<?xml version="1.0" ?><svg enable-background="new 0 0 32 48" id="Layer_1" version="1.1" viewBox="0 0 32 48" xml:space="preserve" xmlns="http://www.w3.org/2000/svg" xmlns:xlink="http://www.w3.org/1999/xlink"><g><path d="M16,0C7.2,0,0,3.6,0,8v32c0,4.4,7.2,8,16,8s16-3.6,16-8V8C32,3.6,24.8,0,16,0z" fill="#E5E5E5"/><path d="M16,32c-8.8,0-16-3.6-16-8v8c0,4.4,7.2,8,16,8s16-3.6,16-8v-8C32,28.4,24.8,32,16,32z" fill="#CC291F"/><path d="M16,16C7.2,16,0,12.4,0,8v8c0,4.4,7.2,8,16,8s16-3.6,16-8V8C32,12.4,24.8,16,16,16z" fill="#CC291F"/><path d="M16,16C7.2,16,0,12.4,0,8v32c0,4.4,7.2,8,16,8s16-3.6,16-8V8C32,12.4,24.8,16,16,16z" opacity="0.2"/><ellipse cx="16" cy="8" opacity="0.4" rx="12" ry="5"/></g></svg>