<?xml version="1.0" ?><svg style="enable-background:new 0 0 128 128;" version="1.1" viewBox="0 0 128 128" xml:space="preserve" xmlns="http://www.w3.org/2000/svg" xmlns:xlink="http://www.w3.org/1999/xlink"><style type="text/css">
	.st0{fill:none;stroke:#000000;stroke-width:8;stroke-miterlimit:10;}
	.st1{display:none;}
	.st2{display:inline;opacity:0.25;fill:#F45EFD;}
</style><g id="_x31_2_3D_Printing"/><g id="_x31_1_VR_Gear"/><g id="_x31_0_Virtual_reality"/><g id="_x39__Augmented_reality"/><g id="_x38__Teleport"/><g id="_x37__Glassess"/><g id="_x36__Folding_phone"><g><path d="M108,28H96v8H16c-4.4,0-8,3.6-8,8v48c0,4.4,3.6,8,8,8h92c6.6,0,12-5.4,12-12V40C120,33.4,114.6,28,108,28z M16,44h16v48    H16V44z M108,92H40V44h56v40h12c2.2,0,4,1.8,4,4S110.2,92,108,92z M112,76.7c-1.3-0.4-2.6-0.7-4-0.7h-4V36h4c2.2,0,4,1.8,4,4V76.7    z"/><circle cx="24" cy="68" r="4"/><rect height="8" width="8" x="48" y="48"/><rect height="8" width="8" x="48" y="64"/><rect height="8" width="8" x="64" y="48"/><rect height="8" width="8" x="64" y="64"/><rect height="8" width="8" x="64" y="80"/><rect height="8" width="8" x="80" y="48"/><rect height="8" width="8" x="80" y="64"/><rect height="8" width="8" x="80" y="80"/></g></g><g id="_x35__Drone"/><g id="_x34__Retina_scan"/><g id="_x33__Smartwatch"/><g id="_x32__Bionic_Arm"/><g id="_x31__Chip"/><g class="st1" id="Guide"><path class="st2" d="M120,8v112H8V8H120 M128,0H0v128h128V0L128,0z"/></g></svg>