<?xml version="1.0" ?><svg viewBox="0 0 64 64" xmlns="http://www.w3.org/2000/svg"><defs><style>.a{fill:none;stroke:#000;stroke-linecap:round;stroke-linejoin:round;stroke-width:2px;}</style></defs><title/><path class="a" d="M40.93,37.93a5.77,5.77,0,0,1-5.63,6.95,5.68,5.68,0,0,1-3.3-1v9.37a2,2,0,0,1-3.2,1.6c-5.1-3.87-15-11.79-19.3-18.3-5-7.44-6.73-18.81-.4-25.14a16.2,16.2,0,0,1,22.9,0v6.92a5.78,5.78,0,0,0-4.65-.78A5.75,5.75,0,1,0,32,27.86v6.56a5.74,5.74,0,0,1,8.93,3.51Z"/><path class="a" d="M54.5,36.5C50.16,43,40.31,50.93,35.2,54.8a2,2,0,0,1-3.2-1.6V43.84a5.68,5.68,0,0,0,3.3,1A5.76,5.76,0,1,0,32,34.42V27.86A5.75,5.75,0,1,1,27.35,17.5a5.78,5.78,0,0,1,4.65.78V11.36a16.2,16.2,0,0,1,22.9,0C61.23,17.69,59.46,29.06,54.5,36.5Z"/></svg>