<?xml version="1.0" ?><svg viewBox="0 0 64 64" xmlns="http://www.w3.org/2000/svg"><defs><style>.a{fill:none;stroke:#000;stroke-linecap:round;stroke-linejoin:round;stroke-width:2px;}</style></defs><title/><path class="a" d="M57.39,29.88c2.08-6.41,1.78-13.61-2.77-18.16a15.94,15.94,0,0,0-22.54,0h0a15.94,15.94,0,0,0-22.54,0c-6.22,6.22-4.48,17.41.4,24.73s17.12,16.67,21,19.49a2,2,0,0,0,2.36,0L35,54.63"/><path class="a" d="M55.6,27.48a11,11,0,0,0-15.51,0h0a11,11,0,0,0-15.51,0c-4.28,4.28-3.09,12,.27,17,3.25,4.88,11.05,10.91,14,13.13a2,2,0,0,0,2.38,0c3-2.22,10.79-8.25,14-13.13C58.69,39.46,59.88,31.76,55.6,27.48Z"/></svg>