<?xml version="1.0" ?><svg viewBox="0 0 64 64" xmlns="http://www.w3.org/2000/svg"><defs><style>.a{fill:none;stroke:#000;stroke-linecap:round;stroke-linejoin:round;stroke-width:2px;}</style></defs><title/><path class="a" d="M55,13H17.47a1,1,0,0,0-.77.36l-12.17,18a1,1,0,0,0,0,1.28l12.17,18a1,1,0,0,0,.77.36H49L59,41V17A4,4,0,0,0,55,13ZM13,35a3,3,0,1,1,3-3A3,3,0,0,1,13,35Z"/><path class="a" d="M47.81,23.69a7.64,7.64,0,0,0-10.81,0h0a7.64,7.64,0,0,0-10.81,0c-3,3-2.15,8.35.19,11.86s8.16,8,10,9.33a1,1,0,0,0,1.17,0c1.86-1.37,7.67-5.79,10-9.33S50.79,26.68,47.81,23.69Z"/><path class="a" d="M59,41,49,51V45a4,4,0,0,1,4-4Z"/></svg>