<?xml version="1.0" ?><!DOCTYPE svg  PUBLIC '-//W3C//DTD SVG 1.1//EN'  'http://www.w3.org/Graphics/SVG/1.1/DTD/svg11.dtd'><svg enable-background="new 0 0 512 512" height="512px" id="Calque_1" version="1.1" viewBox="0 0 512 512" width="512px" xml:space="preserve" xmlns="http://www.w3.org/2000/svg" xmlns:xlink="http://www.w3.org/1999/xlink"><g><rect fill="#ECEFF0" height="322" width="431" x="39.5" y="95"/><g><g><g><path d="M130.213,75.874H25.5c-2.209,0-4,1.791-4,4v50.339c0,2.209,1.791,4,4,4s4-1.791,4-4V83.874h100.713      c2.209,0,4-1.791,4-4S132.422,75.874,130.213,75.874z" fill="#303C44"/></g><g><path d="M130.213,428.127H29.5v-46.34c0-2.209-1.791-4-4-4s-4,1.791-4,4v50.34c0,2.209,1.791,4,4,4h104.713      c2.209,0,4-1.791,4-4S132.422,428.127,130.213,428.127z" fill="#303C44"/></g><g><path d="M486.5,75.874H381.787c-2.209,0-4,1.791-4,4s1.791,4,4,4H482.5v46.339c0,2.209,1.791,4,4,4s4-1.791,4-4      V79.874C490.5,77.665,488.709,75.874,486.5,75.874z" fill="#303C44"/></g><g><path d="M486.5,377.787c-2.209,0-4,1.791-4,4v46.34H381.787c-2.209,0-4,1.791-4,4s1.791,4,4,4H486.5      c2.209,0,4-1.791,4-4v-50.34C490.5,379.578,488.709,377.787,486.5,377.787z" fill="#303C44"/></g><path d="M256,113.063c-2.209,0-4,1.791-4,4v223.009c0,2.209,1.791,4,4,4c2.209,0,4-1.791,4-4V117.063     C260,114.854,258.209,113.063,256,113.063z" fill="#C9314B"/><path d="M288.341,113.063c-2.209,0-4,1.791-4,4v223.009c0,2.209,1.791,4,4,4s4-1.791,4-4V117.063     C292.341,114.854,290.55,113.063,288.341,113.063z" fill="#C9314B"/><path d="M233.791,113.063c-2.209,0-4,1.791-4,4v223.009c0,2.209,1.791,4,4,4s4-1.791,4-4V117.063     C237.791,114.854,235.999,113.063,233.791,113.063z" fill="#C9314B"/><path d="M198.166,113.063c-2.209,0-4,1.791-4,4v223.009c0,2.209,1.791,4,4,4s4-1.791,4-4V117.063     C202.166,114.854,200.374,113.063,198.166,113.063z" fill="#C9314B"/><path d="M175.9,113.063c-2.209,0-4,1.791-4,4v223.009c0,2.209,1.791,4,4,4s4-1.791,4-4V117.063     C179.9,114.854,178.109,113.063,175.9,113.063z" fill="#C9314B"/><path d="M123.122,340.072V117.063c0-2.209-1.791-4-4-4s-4,1.791-4,4v223.009c0,2.209,1.791,4,4,4     S123.122,342.281,123.122,340.072z" fill="#C9314B"/><path d="M66.344,394.938V117.063c0-2.209-1.791-4-4-4s-4,1.791-4,4v277.874c0,2.209,1.791,4,4,4     S66.344,397.146,66.344,394.938z" fill="#C9314B"/><path d="M86.384,340.072V117.063c0-2.209-1.791-4-4-4s-4,1.791-4,4v223.009c0,2.209,1.791,4,4,4     S86.384,342.281,86.384,340.072z" fill="#C9314B"/><path d="M153.634,113.063c-2.209,0-4,1.791-4,4v223.009c0,2.209,1.791,4,4,4s4-1.791,4-4V117.063     C157.634,114.854,155.843,113.063,153.634,113.063z" fill="#C9314B"/><path d="M307.268,113.063c-2.209,0-4,1.791-4,4v223.009c0,2.209,1.791,4,4,4s4-1.791,4-4V117.063     C311.268,114.854,309.477,113.063,307.268,113.063z" fill="#C9314B"/><path d="M326.194,113.063c-2.209,0-4,1.791-4,4v223.009c0,2.209,1.791,4,4,4s4-1.791,4-4V117.063     C330.194,114.854,328.403,113.063,326.194,113.063z" fill="#C9314B"/><path d="M345.12,113.063c-2.209,0-4,1.791-4,4v223.009c0,2.209,1.791,4,4,4s4-1.791,4-4V117.063     C349.12,114.854,347.329,113.063,345.12,113.063z" fill="#C9314B"/><path d="M372.949,113.063c-2.209,0-4,1.791-4,4v223.009c0,2.209,1.791,4,4,4s4-1.791,4-4V117.063     C376.949,114.854,375.158,113.063,372.949,113.063z" fill="#C9314B"/><path d="M402.555,340.072V117.063c0-2.209-1.791-4-4-4s-4,1.791-4,4v223.009c0,2.209,1.791,4,4,4     S402.555,342.281,402.555,340.072z" fill="#C9314B"/><path d="M429.274,340.072V117.063c0-2.209-1.791-4-4-4s-4,1.791-4,4v223.009c0,2.209,1.791,4,4,4     S429.274,342.281,429.274,340.072z" fill="#C9314B"/><path d="M449.313,394.938V117.063c0-2.209-1.791-4-4-4s-4,1.791-4,4v277.874c0,2.209,1.791,4,4,4     S449.313,397.146,449.313,394.938z" fill="#C9314B"/></g></g><linearGradient gradientUnits="userSpaceOnUse" id="SVGID_1_" x1="255" x2="255" y1="256.0005" y2="417"><stop offset="0" style="stop-color:#000000"/><stop offset="1" style="stop-color:#FFFFFF;stop-opacity:0"/></linearGradient><rect fill="url(#SVGID_1_)" height="161" opacity="0.1" width="431" x="39.5" y="256"/></g></svg>