<?xml version="1.0" ?><!DOCTYPE svg  PUBLIC '-//W3C//DTD SVG 1.1//EN'  'http://www.w3.org/Graphics/SVG/1.1/DTD/svg11.dtd'><svg enable-background="new 0 0 512 512" height="512px" id="Calque_1" version="1.1" viewBox="0 0 512 512" width="512px" xml:space="preserve" xmlns="http://www.w3.org/2000/svg" xmlns:xlink="http://www.w3.org/1999/xlink"><g><g><g><g id="XMLID_1_"><g><path d="M65.62,111.46v44.17c-1.92,0.85-3.97,1.44-6.12,1.75c-1.13,0.17-2.28,0.25-3.46,0.25       c-13.3,0-24.09-10.78-24.09-24.09c0-13.3,10.79-24.08,24.09-24.08c1.18,0,2.33,0.08,3.46,0.25       C61.65,110.02,63.7,110.61,65.62,111.46z" fill="#526471"/><path d="M65.62,193.1v44.17c-1.92,0.85-3.97,1.44-6.12,1.75c-1.13,0.17-2.28,0.25-3.46,0.25       c-13.3,0-24.09-10.78-24.09-24.09c0-13.3,10.79-24.08,24.09-24.08c1.18,0,2.33,0.08,3.46,0.25       C61.65,191.66,63.7,192.26,65.62,193.1z" fill="#526471"/><path d="M65.62,274.73v44.18c-1.92,0.84-3.97,1.44-6.12,1.74c-1.13,0.17-2.28,0.26-3.46,0.26       c-13.3,0-24.09-10.79-24.09-24.09s10.79-24.09,24.09-24.09c1.18,0,2.33,0.08,3.46,0.25C61.65,273.29,63.7,273.88,65.62,274.73z       " fill="#526471"/><path d="M65.62,356.37v44.18c-1.92,0.84-3.97,1.44-6.12,1.74c-1.13,0.17-2.28,0.26-3.46,0.26       c-13.3,0-24.09-10.79-24.09-24.09c0-13.3,10.79-24.09,24.09-24.09c1.18,0,2.33,0.08,3.46,0.25       C61.65,354.93,63.7,355.52,65.62,356.37z" fill="#526471"/><polygon fill="#ECEFF0" points="473.34,406.72 455.84,440.79 438.34,406.72      "/><path d="M473.34,71.21v19.42c-0.59-0.13-1.2-0.2-1.83-0.2h-31.33c-0.63,0-1.25,0.07-1.84,0.2V71.21H473.34z" fill="#DD6475"/><path d="M473.34,90.63c3.84,0.84,6.71,4.26,6.71,8.35c0,4.09-2.87,7.5-6.71,8.34c-0.59,0.13-1.2,0.2-1.83,0.2       h-31.33c-0.63,0-1.25-0.07-1.84-0.2c-3.83-0.84-6.7-4.25-6.7-8.34c0-2.36,0.96-4.5,2.5-6.04c1.13-1.13,2.58-1.95,4.2-2.31       c0.59-0.13,1.21-0.2,1.84-0.2h31.33C472.14,90.43,472.75,90.5,473.34,90.63z" fill="#A7B7C1"/><path d="M473.34,107.32v299.4h-35v-299.4c0.59,0.13,1.21,0.2,1.84,0.2h31.33       C472.14,107.52,472.75,107.45,473.34,107.32z" fill="#FFC035"/><path d="M473.34,90.63V71.21h-14v19.22h-1.83c0.63,0,1.24,0.07,1.83,0.2c3.84,0.84,6.71,4.26,6.71,8.35       c0,4.09-2.87,7.5-6.71,8.34c-0.59,0.13-1.2,0.2-1.83,0.2h1.83v299.2l-10.5,20.44l7,13.63l17.5-34.07v-299.4       c3.84-0.84,6.71-4.25,6.71-8.34C480.05,94.89,477.18,91.47,473.34,90.63z" opacity="0.2"/><path d="M366.08,65.24c16,0,28.99,12.98,28.99,28.99v41.79v281.75c0,16.01-12.99,28.99-28.99,28.99h-28.99       c16,0,28.99-12.98,28.99-28.99V136.02V94.23c0-16.01-12.99-28.99-28.99-28.99H366.08z" fill="#ECEFF0"/><path d="M377.58,94.23v323.54c0,16.01-12.99,28.99-28.99,28.99h-11.5       c16,0,28.99-12.98,28.99-28.99V94.23c0-16.01-12.99-28.99-28.99-28.99h11.5C364.59,65.24,377.58,78.22,377.58,94.23z" fill="#303C44" opacity="0.2"/><rect fill="#FFC035" height="68.75" width="223.19" x="104.26" y="105.61"/><path d="M165.62,231.22c17.67,0,32,14.32,32,31.99s-14.33,31.99-32,31.99c-17.66,0-31.99-14.32-31.99-31.99       S147.96,231.22,165.62,231.22z" fill="#ECEFF0"/><path d="M266.08,331.67c17.67,0,31.99,14.33,31.99,32c0,17.67-14.32,31.99-31.99,31.99       s-31.99-14.32-31.99-31.99C234.09,346,248.41,331.67,266.08,331.67z" fill="#ECEFF0"/><path d="M337.09,65.24H94.62c-16,0-28.99,12.98-28.99,28.99l-0.01,0.01v323.53c0,1.5,0.12,2.97,0.34,4.41       c0.07,0.45,0.15,0.9,0.24,1.34c0.01,0.05,0.02,0.1,0.03,0.15l0.01,0.01c0,0.01,0,0.03,0.01,0.04c0.03,0.19,0.07,0.38,0.12,0.56       c0.04,0.19,0.09,0.38,0.13,0.56c0.06,0.26,0.13,0.52,0.21,0.78c0.07,0.26,0.14,0.52,0.22,0.77c0.57,1.82,1.31,3.55,2.2,5.2       c0.36,0.66,0.74,1.31,1.15,1.93c1.11,1.72,2.4,3.3,3.84,4.74c1.97,1.97,4.22,3.66,6.68,5c1.24,0.67,2.52,1.25,3.86,1.74       c0.88,0.33,1.79,0.61,2.72,0.85c2.31,0.59,4.74,0.91,7.24,0.91h242.47c16,0,28.99-12.98,28.99-28.99V94.23       C366.08,78.22,353.09,65.24,337.09,65.24z M165.62,295.2c-17.66,0-31.99-14.32-31.99-31.99c0-17.67,14.33-31.99,31.99-31.99       c17.67,0,32,14.32,32,31.99C197.62,280.88,183.29,295.2,165.62,295.2z M266.08,395.66c-17.67,0-31.99-14.32-31.99-31.99       c0-17.67,14.32-32,31.99-32c17.67,0,31.99,14.33,31.99,32C298.07,381.34,283.75,395.66,266.08,395.66z M327.45,174.36H104.26       v-68.75h223.19V174.36z" fill="#303C44"/></g><g><rect fill="none" height="68.75" width="223.19" x="104.26" y="105.61"/><polyline fill="none" points="366.08,417.77 366.08,136.02 366.08,94.23      "/><path d="M337.09,65.24c16,0,28.99,12.98,28.99,28.99" fill="none"/><path d="M366.08,417.77c0,16.01-12.99,28.99-28.99,28.99" fill="none"/><polyline fill="none" points="395.07,417.77 395.07,136.02 395.07,94.23      "/><path d="M366.08,65.24c16,0,28.99,12.98,28.99,28.99" fill="none"/><path d="M395.07,417.77c0,16.01-12.99,28.99-28.99,28.99" fill="none"/><path d="M84.66,445c0.89,0.32,1.79,0.61,2.72,0.85" fill="none"/><path d="M74.12,438.26c1.97,1.97,4.22,3.66,6.68,5" fill="none"/><path d="M69.13,431.59c0.36,0.66,0.74,1.3,1.15,1.93" fill="none"/><path d="M66.93,426.39c-0.08-0.25-0.15-0.51-0.22-0.77c-0.08-0.26-0.15-0.52-0.21-0.78       c-0.05-0.17-0.09-0.35-0.13-0.52c0-0.01,0-0.02,0-0.04c-0.01-0.03-0.02-0.07-0.03-0.11c-0.01-0.04-0.02-0.08-0.03-0.12       c-0.02-0.12-0.05-0.24-0.07-0.37l-0.01-0.01c-0.01-0.05-0.02-0.1-0.03-0.15c-0.09-0.44-0.17-0.89-0.24-1.34       c-0.22-1.44-0.34-2.91-0.34-4.41v-17.22v-44.18v-37.46v-44.18v-37.46" fill="none"/><line fill="none" x1="65.62" x2="65.62" y1="155.63" y2="193.1"/><line fill="none" x1="65.62" x2="65.62" y1="111.46" y2="94.24"/><path d="M94.62,446.76c-2.5,0-4.93-0.32-7.24-0.91c-0.93-0.24-1.84-0.52-2.72-0.85c-1.34-0.49-2.62-1.07-3.86-1.74       c-2.46-1.34-4.71-3.03-6.68-5c-1.44-1.44-2.73-3.02-3.84-4.74c-0.41-0.62-0.79-1.27-1.15-1.93c-0.89-1.65-1.63-3.38-2.2-5.2       c-0.84-2.72-1.3-5.62-1.3-8.62" fill="none"/><path d="M65.63,94.23c0-16.01,12.99-28.99,28.99-28.99" fill="none"/><line fill="none" x1="94.62" x2="337.09" y1="65.24" y2="65.24"/><polyline fill="none" points="94.62,446.76 94.63,446.76 337.09,446.76      "/><path d="M65.62,400.55c-1.92,0.84-3.97,1.44-6.12,1.74c-1.13,0.17-2.28,0.26-3.46,0.26       c-13.3,0-24.09-10.79-24.09-24.09c0-13.3,10.79-24.09,24.09-24.09c1.18,0,2.33,0.08,3.46,0.25c2.15,0.31,4.2,0.9,6.12,1.75" fill="none"/><path d="M65.62,318.91c-1.92,0.84-3.97,1.44-6.12,1.74c-1.13,0.17-2.28,0.26-3.46,0.26       c-13.3,0-24.09-10.79-24.09-24.09c0-13.3,10.79-24.09,24.09-24.09c1.18,0,2.33,0.08,3.46,0.25c2.15,0.31,4.2,0.9,6.12,1.75" fill="none"/><path d="M65.62,193.1v44.17c-1.92,0.85-3.97,1.44-6.12,1.75c-1.13,0.17-2.28,0.25-3.46,0.25       c-13.3,0-24.09-10.78-24.09-24.09c0-13.3,10.79-24.08,24.09-24.08c1.18,0,2.33,0.08,3.46,0.25       C61.65,191.66,63.7,192.26,65.62,193.1z" fill="none"/><path d="M65.62,111.46v44.17c-1.92,0.85-3.97,1.44-6.12,1.75c-1.13,0.17-2.28,0.25-3.46,0.25       c-13.3,0-24.09-10.78-24.09-24.09c0-13.3,10.79-24.08,24.09-24.08c1.18,0,2.33,0.08,3.46,0.25       C61.65,110.02,63.7,110.61,65.62,111.46z" fill="none"/><line fill="none" x1="337.09" x2="366.08" y1="65.24" y2="65.24"/><line fill="none" x1="337.09" x2="366.08" y1="446.76" y2="446.76"/><path d="M473.34,90.63c3.84,0.84,6.71,4.26,6.71,8.35c0,4.09-2.87,7.5-6.71,8.34c-0.59,0.13-1.2,0.2-1.83,0.2       h-31.33c-0.63,0-1.25-0.07-1.84-0.2c-3.83-0.84-6.7-4.25-6.7-8.34c0-2.36,0.96-4.5,2.5-6.04c1.13-1.13,2.58-1.95,4.2-2.31       c0.59-0.13,1.21-0.2,1.84-0.2h31.33C472.14,90.43,472.75,90.5,473.34,90.63z" fill="none"/><polyline fill="none" points="473.34,90.65 473.34,90.63 473.34,71.21 438.34,71.21 438.34,90.63 438.34,90.65      "/><polyline fill="none" points="473.34,107.32 473.34,406.72 438.34,406.72 438.34,107.32      "/><line fill="none" x1="438.34" x2="455.84" y1="406.72" y2="440.79"/><line fill="none" x1="473.34" x2="455.84" y1="406.72" y2="440.79"/><g><g><path d="M145.04,388.25c-1.024,0-2.047-0.391-2.829-1.172c-1.562-1.562-1.562-4.095,0-5.656l141.63-141.621         c1.563-1.562,4.096-1.562,5.656,0c1.563,1.562,1.563,4.095,0,5.657l-141.63,141.62         C147.087,387.859,146.063,388.25,145.04,388.25z" fill="#ECEFF0"/></g></g><path d="M165.62,231.22c17.67,0,32,14.32,32,31.99s-14.33,31.99-32,31.99c-17.66,0-31.99-14.32-31.99-31.99       S147.96,231.22,165.62,231.22z" fill="none"/><path d="M266.08,331.67c17.67,0,31.99,14.33,31.99,32c0,17.67-14.32,31.99-31.99,31.99s-31.99-14.32-31.99-31.99       C234.09,346,248.41,331.67,266.08,331.67z" fill="none"/></g></g></g></g><path d="M65.62,111.46v44.17c-1.92,0.85-3.97,1.44-6.12,1.75v-47.67C61.65,110.02,63.7,110.61,65.62,111.46z" opacity="0.2"/><path d="M59.5,191.35c2.15,0.31,4.2,0.91,6.12,1.75v44.17c-1.92,0.85-3.97,1.44-6.12,1.75V191.35z" opacity="0.2"/><path d="M59.5,272.98c2.15,0.31,4.2,0.9,6.12,1.75v44.18c-1.92,0.84-3.97,1.44-6.12,1.74V272.98z" opacity="0.2"/><path d="M65.62,356.37v44.18c-1.92,0.84-3.97,1.44-6.12,1.74v-47.67C61.65,354.93,63.7,355.52,65.62,356.37z" opacity="0.2"/><linearGradient gradientUnits="userSpaceOnUse" id="SVGID_1_" x1="104.26" x2="327.45" y1="139.985" y2="139.985"><stop offset="0" style="stop-color:#000000"/><stop offset="1" style="stop-color:#FFFFFF;stop-opacity:0"/></linearGradient><polygon fill="url(#SVGID_1_)" opacity="0.2" points="104.26,174.36 327.45,105.61 327.45,174.36  "/></g></svg>