<?xml version="1.0" ?><!DOCTYPE svg  PUBLIC '-//W3C//DTD SVG 1.1//EN'  'http://www.w3.org/Graphics/SVG/1.1/DTD/svg11.dtd'><svg enable-background="new 0 0 512 512" height="512px" id="Calque_1" version="1.1" viewBox="0 0 512 512" width="512px" xml:space="preserve" xmlns="http://www.w3.org/2000/svg" xmlns:xlink="http://www.w3.org/1999/xlink"><g><g><g><g id="XMLID_1_"><g><path d="M256,16h-0.01c-51.56,0-93.35,41.79-93.35,93.36c0,20.34,6.5,39.17,17.55,54.5l18.55,32.67l8.12,14.3       L256,297.34l49.13-86.51l8.12-14.3l18.56-32.67h0.01c11.03-15.34,17.55-34.16,17.55-54.5C349.37,57.79,307.57,16.01,256,16z        M256,162c-27.78,0-50.3-22.53-50.3-50.31c0-27.78,22.52-50.31,50.3-50.31s50.31,22.53,50.31,50.31       C306.31,139.47,283.78,162,256,162z" fill="#C9314B"/><path d="M255.99,16c-2.56,0-5.1,0.1-7.6,0.31c48.01,3.86,85.78,44.04,85.78,93.05       c0,20.34-6.52,39.16-17.55,54.5h-0.01l-18.56,32.67l-8.12,14.3l-41.53,73.13l7.6,13.38l49.13-86.51l8.12-14.3l18.56-32.67h0.01       c11.03-15.34,17.55-34.16,17.55-54.5C349.37,57.79,307.56,16,255.99,16z" fill="#303C44" opacity="0.2"/><path d="M345.93,340.82h65.25c0,39.72-15.15,79.43-45.45,109.73c-30,30-69.24,45.15-108.57,45.44       C306.29,494.91,345.93,425.86,345.93,340.82z" fill="#303C44"/><path d="M257.16,495.99C256.78,496,256.39,496,256,496V340.82h89.93C345.93,425.86,306.29,494.91,257.16,495.99       z" fill="#526471"/><path d="M256,340.82V496c-0.39,0-0.78,0-1.16-0.01c-49.13-1.08-88.78-70.13-88.78-155.17H256z" fill="#303C44"/><path d="M254.84,495.99c-39.33-0.29-78.57-15.44-108.57-45.44c-30.31-30.31-45.46-70.02-45.46-109.73h0.01       h65.24C166.06,425.86,205.71,494.91,254.84,495.99z" fill="#526471"/><path d="M198.74,196.53l8.12,14.3c-24.56,27.69-40.8,75.57-40.8,129.98v0.01h-65.24h-0.01       c0-39.72,15.15-79.44,45.46-109.74c15.15-15.15,32.65-26.51,51.33-34.09L198.74,196.53z" fill="#303C44"/><path d="M206.86,210.83L256,297.34v43.48h-89.94v-0.01C166.06,286.4,182.3,238.52,206.86,210.83z" fill="#526471"/><path d="M345.93,340.81v0.01H256v-43.48l49.13-86.51C329.7,238.52,345.93,286.39,345.93,340.81z" fill="#303C44"/><linearGradient gradientUnits="userSpaceOnUse" id="SVGID_1_" x1="256" x2="345.93" y1="418.41" y2="418.41"><stop offset="0" style="stop-color:#000000"/><stop offset="1" style="stop-color:#FFFFFF;stop-opacity:0"/></linearGradient><path d="M257.16,495.99C256.78,496,256.39,496,256,496       V340.82h89.93C345.93,425.86,306.29,494.91,257.16,495.99z" enable-background="new    " fill="url(#SVGID_1_)" opacity="0.2"/><linearGradient gradientUnits="userSpaceOnUse" id="SVGID_2_" x1="256" x2="166.06" y1="418.41" y2="418.41"><stop offset="0" style="stop-color:#000000"/><stop offset="1" style="stop-color:#FFFFFF;stop-opacity:0"/></linearGradient><path d="M256,340.82V496c-0.39,0-0.78,0-1.16-0.01       c-49.13-1.08-88.78-70.13-88.78-155.17H256z" enable-background="new    " fill="url(#SVGID_2_)" opacity="0.2"/><linearGradient gradientUnits="userSpaceOnUse" id="SVGID_3_" x1="256" x2="166.06" y1="275.825" y2="275.825"><stop offset="0" style="stop-color:#000000"/><stop offset="1" style="stop-color:#FFFFFF;stop-opacity:0"/></linearGradient><path d="M206.86,210.83L256,297.34v43.48h-89.94v-0.01       C166.06,286.4,182.3,238.52,206.86,210.83z" enable-background="new    " fill="url(#SVGID_3_)" opacity="0.2"/><linearGradient gradientUnits="userSpaceOnUse" id="SVGID_4_" x1="256" x2="345.93" y1="275.825" y2="275.825"><stop offset="0" style="stop-color:#000000"/><stop offset="1" style="stop-color:#FFFFFF;stop-opacity:0"/></linearGradient><path d="M345.93,340.81v0.01H256v-43.48l49.13-86.51       C329.7,238.52,345.93,286.39,345.93,340.81z" enable-background="new    " fill="url(#SVGID_4_)" opacity="0.2"/><path d="M411.18,340.82h-65.25v-0.01c0-54.42-16.23-102.29-40.8-129.98l8.12-14.3       c19.11,7.58,37.02,19.09,52.48,34.55C396.03,261.39,411.18,301.11,411.18,340.82z" fill="#526471"/></g><g><path d="M257.16,495.99c39.33-0.29,78.57-15.44,108.57-45.44c30.3-30.3,45.45-70.01,45.45-109.73       c0-39.71-15.15-79.43-45.45-109.74c-15.46-15.46-33.37-26.97-52.48-34.55" fill="none"/><path d="M198.74,196.53l-1.14,0.46c-18.68,7.58-36.18,18.94-51.33,34.09c-30.31,30.3-45.46,70.02-45.46,109.74       c0,39.71,15.15,79.42,45.46,109.73c30,30,69.24,45.15,108.57,45.44" fill="none"/><path d="M305.13,210.83c24.57,27.69,40.8,75.56,40.8,129.98v0.01c0,85.04-39.64,154.09-88.77,155.17       C256.78,496,256.39,496,256,496s-0.78,0-1.16-0.01c-49.13-1.08-88.78-70.13-88.78-155.17v-0.01       c0-54.41,16.24-102.29,40.8-129.98" fill="none"/><polyline fill="none" points="256,496 256,340.82 256,297.34      "/><polyline fill="none" points="100.82,340.82 166.06,340.82 256,340.82 345.93,340.82 411.18,340.82 411.19,340.82      "/><path d="M331.81,163.86l-18.56,32.67l-8.12,14.3L256,297.34l-49.14-86.51l-8.12-14.3l-18.55-32.67       c-11.05-15.33-17.55-34.16-17.55-54.5c0-51.57,41.79-93.36,93.35-93.36c51.57,0,93.38,41.79,93.38,93.36       c0,20.34-6.52,39.16-17.55,54.5" fill="none"/><path d="M256,61.38c27.78,0,50.31,22.53,50.31,50.31S283.78,162,256,162s-50.3-22.53-50.3-50.31       S228.22,61.38,256,61.38z" fill="none"/></g></g></g></g><linearGradient gradientUnits="userSpaceOnUse" id="SVGID_5_" x1="256" x2="349.37" y1="156.67" y2="156.67"><stop offset="0" style="stop-color:#000000"/><stop offset="1" style="stop-color:#FFFFFF;stop-opacity:0"/></linearGradient><path d="M349.37,109.36c0,20.34-6.52,39.16-17.55,54.5h-0.01l-18.56,32.67l-8.12,14.3   L256,297.34V162c27.78,0,50.31-22.53,50.31-50.31c0-27.78-22.53-50.31-50.31-50.31V16C307.57,16.01,349.37,57.79,349.37,109.36z" fill="url(#SVGID_5_)" opacity="0.2"/></g></svg>