<?xml version="1.0" ?><!DOCTYPE svg  PUBLIC '-//W3C//DTD SVG 1.1//EN'  'http://www.w3.org/Graphics/SVG/1.1/DTD/svg11.dtd'><svg enable-background="new 0 0 512 512" height="512px" id="Calque_1" version="1.1" viewBox="0 0 512 512" width="512px" xml:space="preserve" xmlns="http://www.w3.org/2000/svg" xmlns:xlink="http://www.w3.org/1999/xlink"><g><g><g id="XMLID_1_"><g><path d="M235.51,46.9c0,1.38-0.24,2.78-0.75,4.15l-32.83,88.67c-2.29,6.19-9.17,9.35-15.36,7.06      c-4.82-1.78-7.8-6.35-7.8-11.2c0-1.38,0.24-2.79,0.75-4.16l32.83-88.67c2.29-6.19,9.17-9.35,15.35-7.06      C232.52,37.47,235.51,42.04,235.51,46.9z" fill="#A7B7C1"/><path d="M235.51,46.9c0,1.38-0.24,2.78-0.75,4.15l-32.83,88.67c-2.29,6.19-9.17,9.35-15.36,7.06      c-0.53-0.2-1.04-0.43-1.52-0.69c2.48-1.32,4.5-3.53,5.55-6.37l32.83-88.67c0.51-1.37,0.75-2.77,0.75-4.15      c0-4.32-2.37-8.42-6.29-10.52c2.92-1.57,6.47-1.93,9.81-0.69C232.52,37.47,235.51,42.04,235.51,46.9z" opacity="0.2"/><path d="M332.48,131.42c0.51,1.37,0.75,2.78,0.75,4.16c0,4.85-2.98,9.42-7.8,11.2      c-6.19,2.29-13.07-0.87-15.36-7.06l-32.83-88.67c-0.51-1.37-0.75-2.77-0.75-4.15c0-4.86,2.99-9.43,7.81-11.21      c6.18-2.29,13.06,0.87,15.35,7.06L332.48,131.42z" fill="#A7B7C1"/><path d="M359.62,239.1h96.41c6.89,0,12.47,5.58,12.47,12.47v4.16c0,6.88-5.58,12.47-12.47,12.47h-3.58H59.54      h-3.57c-6.89,0-12.47-5.59-12.47-12.47v-4.16c0-6.89,5.58-12.47,12.47-12.47h96.41H359.62z" fill="#526471"/><path d="M468.5,251.57v4.16c0,6.88-5.58,12.47-12.47,12.47H55.97c-6.89,0-12.47-5.59-12.47-12.47v-4.16      c0-1.86,0.41-3.62,1.13-5.2c1.97,4.29,6.3,7.28,11.34,7.28h400.06c5.04,0,9.37-2.99,11.34-7.28      C468.09,247.95,468.5,249.71,468.5,251.57z" opacity="0.2"/><path d="M452.45,268.2l-20.32,188.08c0,11.43-9.35,20.78-20.78,20.78h-310.7c-11.43,0-20.78-9.35-20.78-20.78      L59.54,268.2H452.45z" fill="#303C44"/><path d="M452.45,268.2l-20.32,188.08c0,11.43-9.35,20.78-20.78,20.78h-310.7c-11.43,0-20.78-9.35-20.78-20.78      L59.54,268.2h1.84l18.49,171.08c0,11.43,9.35,20.78,20.78,20.78h310.7c11.43,0,20.78-9.35,20.78-20.78l18.48-171.08H452.45z" opacity="0.2"/><path d="M276.49,46.9c0,1.38,0.24,2.78,0.75,4.15l32.83,88.67c2.29,6.19,9.17,9.35,15.36,7.06      c0.53-0.2,1.04-0.43,1.52-0.69c-2.48-1.32-4.5-3.53-5.55-6.37l-32.83-88.67c-0.51-1.37-0.75-2.77-0.75-4.15      c0-4.32,2.37-8.42,6.29-10.52c-2.92-1.57-6.47-1.93-9.81-0.69C279.48,37.47,276.49,42.04,276.49,46.9z" opacity="0.2"/></g><g><path d="M59.54,268.2l20.33,188.08c0,11.43,9.35,20.78,20.78,20.78h310.7c11.43,0,20.78-9.35,20.78-20.78      l20.32-188.08" fill="none"/><path d="M359.62,239.1h96.41c6.89,0,12.47,5.58,12.47,12.47v4.16c0,6.88-5.58,12.47-12.47,12.47h-3.58H59.54h-3.57      c-6.89,0-12.47-5.59-12.47-12.47v-4.16c0-6.89,5.58-12.47,12.47-12.47h96.41H359.62z" fill="none"/><g><g><path d="M148.319,254.071c-0.461,0-0.93-0.08-1.388-0.25c-2.072-0.767-3.13-3.068-2.363-5.14l38.25-103.291        c0.768-2.072,3.069-3.129,5.14-2.362c2.072,0.767,3.129,3.068,2.362,5.14l-38.25,103.289        C151.474,253.072,149.945,254.071,148.319,254.071z" fill="#303C44"/></g></g><path d="M201.93,139.72c-2.29,6.19-9.17,9.35-15.36,7.06c-4.82-1.78-7.8-6.35-7.8-11.2c0-1.38,0.24-2.79,0.75-4.16      l32.83-88.67c2.29-6.19,9.17-9.35,15.35-7.06c4.82,1.78,7.81,6.35,7.81,11.21c0,1.38-0.24,2.78-0.75,4.15L201.93,139.72z" fill="none"/><g><g><path d="M363.68,254.071c-1.626,0-3.154-0.999-3.751-2.613l-38.25-103.289c-0.768-2.072,0.29-4.373,2.361-5.14        c2.073-0.768,4.374,0.29,5.141,2.362l38.25,103.291c0.768,2.072-0.291,4.373-2.362,5.14        C364.61,253.991,364.142,254.071,363.68,254.071z" fill="#303C44"/></g></g><path d="M310.07,139.72c2.29,6.19,9.17,9.35,15.36,7.06c4.82-1.78,7.8-6.35,7.8-11.2c0-1.38-0.24-2.79-0.75-4.16      l-32.83-88.67c-2.29-6.19-9.17-9.35-15.35-7.06c-4.82,1.78-7.81,6.35-7.81,11.21c0,1.38,0.24,2.78,0.75,4.15L310.07,139.72z" fill="none"/><g><g><path d="M256,450.92c-2.209,0-4-1.791-4-4V298.33c0-2.209,1.791-4,4-4c2.209,0,4,1.791,4,4v148.59        C260,449.129,258.209,450.92,256,450.92z" fill="#ECEFF0"/></g></g><g><g><path d="M298.62,450.92c-2.209,0-4-1.791-4-4V298.33c0-2.209,1.791-4,4-4s4,1.791,4,4v148.59        C302.62,449.129,300.829,450.92,298.62,450.92z" fill="#ECEFF0"/></g></g><g><g><path d="M341.23,450.92c-2.209,0-4-1.791-4-4V298.33c0-2.209,1.791-4,4-4s4,1.791,4,4v148.59        C345.23,449.129,343.439,450.92,341.23,450.92z" fill="#ECEFF0"/></g></g><g><g><path d="M383.85,450.92c-2.209,0-4-1.791-4-4V298.33c0-2.209,1.791-4,4-4s4,1.791,4,4v148.59        C387.85,449.129,386.059,450.92,383.85,450.92z" fill="#ECEFF0"/></g></g><g><g><path d="M128.15,450.92c-2.209,0-4-1.791-4-4V298.33c0-2.209,1.791-4,4-4s4,1.791,4,4v148.59        C132.15,449.129,130.359,450.92,128.15,450.92z" fill="#ECEFF0"/></g></g><g><g><path d="M170.77,450.92c-2.209,0-4-1.791-4-4V298.33c0-2.209,1.791-4,4-4s4,1.791,4,4v148.59        C174.77,449.129,172.979,450.92,170.77,450.92z" fill="#ECEFF0"/></g></g><g><g><path d="M213.38,450.92c-2.209,0-4-1.791-4-4V298.33c0-2.209,1.791-4,4-4s4,1.791,4,4v148.59        C217.38,449.129,215.589,450.92,213.38,450.92z" fill="#ECEFF0"/></g></g></g></g></g></g></svg>