<?xml version="1.0" ?><svg id="Square-Arrow-5" style="enable-background:new 0 0 32 32;" version="1.1" viewBox="0 0 32 32" xml:space="preserve" xmlns="http://www.w3.org/2000/svg" xmlns:xlink="http://www.w3.org/1999/xlink"><g><path d="M15,9.414V24h-3v2h8v-2h-3V9.414l4.293,4.293l1.414-1.414l-6-6c-0.391-0.391-1.023-0.391-1.414,0l-6,6l1.414,1.414   L15,9.414z"/><path d="M30,0H2C0.897,0,0,0.897,0,2v28c0,1.103,0.897,2,2,2h28c1.103,0,2-0.897,2-2V2C32,0.897,31.103,0,30,0z M30,30L2,30.001V2   h28V30z"/></g></svg>