<?xml version="1.0" ?><svg id="output-3" style="enable-background:new 0 0 30.002 31.707;" version="1.1" viewBox="0 0 30.002 31.707" xml:space="preserve" xmlns="http://www.w3.org/2000/svg" xmlns:xlink="http://www.w3.org/1999/xlink"><g><path d="M26,29.707H2v-24h3v-2H1c-0.552,0-1,0.448-1,1v26c0,0.552,0.448,1,1,1h26c0.553,0,1-0.448,1-1v-16h-2V29.707z"/><path d="M29.709,6l-6-6l-1.414,1.414l4.293,4.293H10c-0.97,0-2,0.701-2,2v7h2v-7h16.588L22.295,12l1.414,1.414l6-6   C30.1,7.023,30.1,6.391,29.709,6z"/></g></svg>