<?xml version="1.0" ?><svg height="256px" version="1.1" viewBox="0 0 256 256" width="256px" xmlns="http://www.w3.org/2000/svg" xmlns:xlink="http://www.w3.org/1999/xlink"><title/><desc/><defs><linearGradient id="linearGradient-1" x1="0.499999523%" x2="101.499999%" y1="101.499999%" y2="-0.499999523%"><stop offset="0%" stop-color="#000000"/><stop offset="100%" stop-color="#616161"/></linearGradient><linearGradient id="linearGradient-2" x1="50%" x2="50%" y1="0%" y2="100%"><stop offset="0%" stop-color="#FBE45F"/><stop offset="49.6512277%" stop-color="#EDC435"/><stop offset="50.131537%" stop-color="#E2A539"/><stop offset="100%" stop-color="#ECC335"/></linearGradient></defs><g fill="none" fill-rule="evenodd" id="Classic" stroke="none" stroke-width="1"><g id="DigixDAO" transform="translate(-4617.000000, -3279.000000)"><g transform="translate(4617.000000, 3279.000000)"><rect fill="url(#linearGradient-1)" height="256" id="Rectangle-9" width="256" x="0" y="0"/><path d="M101.988042,80 L124.207373,80 L124.207373,175.391705 L25,175.391705 L25,118.026513 L101.988042,118.026513 L101.988042,80 Z M47.0804774,138.304876 L47.0804774,155.258841 L102.021154,155.258841 L102.021154,138.304876 L47.0804774,138.304876 Z" fill="#FFFFFF" id="Combined-Shape"/><polygon fill="#FFFFFF" id="Path-20" points="132.792627 80 132.792627 175.391705 232 175.391705 232 118.001192 171.887088 118.001192 171.887088 138.166716 209.803326 138.166716 209.803326 155.153958 154.968182 155.153958 154.968182 100.265403 232 100.265403 232 80"/><polygon fill="url(#linearGradient-2)" id="Path-22" points="25 80 25 109.571429 93.6820276 109.571429 93.6820276 80"/></g></g></g></svg>