<?xml version="1.0" ?><!DOCTYPE svg  PUBLIC '-//W3C//DTD SVG 1.1//EN'  'http://www.w3.org/Graphics/SVG/1.1/DTD/svg11.dtd'><svg enable-background="new -2 0 32 32" height="32px" overflow="visible" version="1.1" viewBox="-2 0 32 32" width="32px" xml:space="preserve" xmlns="http://www.w3.org/2000/svg" xmlns:xlink="http://www.w3.org/1999/xlink"><defs/><path clip-rule="evenodd" d="M6.639,6.896L1.334,6.891L7.98,0.352v5.273L6.639,6.896z   M26,29.5c2.5-2.5,2-10.699,2-10.699c0-12.395-2.004-13.547-2.57-14.502c-0.564-0.953-3.523-2.051-5.059-2.051  c-1.533,0-3.957,0-3.957,0S15.145,0,12.16,0C9.17,0,9.371,1.303,9.371,2.414V6.91L8.018,8.309H1.762c0,0-1.762,1.141-1.762,3.602  c0,2.465,0.781,11.049,6.031,11.844c6.211,0.939,7.273-1.883,7.273-2.223c0-1.43,0.039-3.594,0.039-3.594s1.816,3.396,4.562,3.396  c2.748,0,4.346,1.543,4.346,3.131c0,1.59,0,2.941,0,2.941s-0.102,1.84-1.719,1.84c-1.615,0-3.445,0-3.445,0  s-1.131-0.863-1.131-2.055s0.555-1.514,1.199-1.514s1.176,0.072,1.176,0.072v-2.504c0,0-5.203-0.035-5.203,3.859S15.85,32,18.031,32  c2.18,0,3.553,0,3.553,0S24.5,31,26,29.5z M19.049,15.408c0,0,0.314-2.043,1.525-2.043c1.213,0,2.877,2.729,2.877,2.729  S19.654,15.408,19.049,15.408z" fill-rule="evenodd" id="evernote_1_"/></svg>