<?xml version="1.0" ?><!DOCTYPE svg  PUBLIC '-//W3C//DTD SVG 1.1//EN'  'http://www.w3.org/Graphics/SVG/1.1/DTD/svg11.dtd'><svg enable-background="new 0.001 -2.4 32 32" height="32px" overflow="visible" version="1.1" viewBox="0.001 -2.4 32 32" width="32px" xml:space="preserve" xmlns="http://www.w3.org/2000/svg" xmlns:xlink="http://www.w3.org/1999/xlink"><defs/><path d="M27.322,0.006c-4.448-0.148-7.459,2.371-9.035,7.559c0.812-0.336,1.601-0.508,2.37-0.508  c1.622,0,2.34,0.92,2.148,2.764c-0.096,1.115-0.812,2.74-2.148,4.873c-1.343,2.133-2.345,3.199-3.011,3.199  c-0.864,0-1.651-1.648-2.37-4.943c-0.241-0.971-0.672-3.443-1.289-7.42c-0.578-3.684-2.106-5.404-4.592-5.162  C8.344,0.465,6.769,1.436,4.667,3.276C3.134,4.682,1.58,6.09,0,7.495l1.505,1.963c1.437-1.02,2.276-1.525,2.51-1.525  c1.101,0,2.13,1.742,3.086,5.23c0.858,3.203,1.723,6.402,2.585,9.602c1.284,3.488,2.866,5.234,4.729,5.234  c3.011,0,6.697-2.859,11.046-8.578c4.206-5.477,6.378-9.793,6.524-12.945C32.177,2.26,30.624,0.1,27.322,0.006z" id="vimeo_1_"/></svg>