<?xml version="1.0" ?><!DOCTYPE svg  PUBLIC '-//W3C//DTD SVG 1.1//EN'  'http://www.w3.org/Graphics/SVG/1.1/DTD/svg11.dtd'><svg enable-background="new 0 -5.266 32 32" height="32px" overflow="visible" version="1.1" viewBox="0 -5.266 32 32" width="32px" xml:space="preserve" xmlns="http://www.w3.org/2000/svg" xmlns:xlink="http://www.w3.org/1999/xlink"><defs/><path d="M26.129,4.227c-0.785,0.219-8.301,6.723-8.773,8.145c-0.105,0.49,0.012,5.246,0.113,5.961  c0.473,0.107,3.883,0.012,4.508,0.121L22,20c-1,0-11.957,0-14,0l0.188-1.406c0.684-0.053,3.496,0.129,4.113-0.555  c0.309-0.34,0.211-4.859,0.105-5.625c-0.258-0.816-6.539-9.012-8.18-10.355H0V0h14.262v2.059H9.961  c1.914,2.922,4.664,6.445,5.836,8.141l6.098-6.141H18.48L18,2h12l-1.332,2.059h-1.801C26.57,4.125,26.305,4.188,26.129,4.227z   M29.855,19.846l-1.105-0.057l-1.23-0.156l0.012,2.199L28.5,21.92L29.551,22L29.855,19.846z M32,9.33  c-0.375-0.014-3.762-0.348-4.203-0.439l0.055,9.295l1.914,0.16L32,9.33z" id="yahoo_1_"/></svg>