<?xml version="1.0" ?><!DOCTYPE svg  PUBLIC '-//W3C//DTD SVG 1.1//EN'  'http://www.w3.org/Graphics/SVG/1.1/DTD/svg11.dtd'><svg enable-background="new 0 0 128 128" id="Layer_1" version="1.1" viewBox="0 0 128 128" xml:space="preserve" xmlns="http://www.w3.org/2000/svg" xmlns:xlink="http://www.w3.org/1999/xlink"><g><path d="M62,65.6v-8.5c-1.1,0.2-2,0.6-2.9,1.2c-1.4,1-2.1,2.2-2.1,3.7c0,0.7,0.2,1.3,0.5,1.8   c0.3,0.5,0.9,0.8,1.7,1.1c0.8,0.3,1.5,0.5,2,0.6C61.4,65.5,61.7,65.5,62,65.6z M66,71.2v9.4c1.2-0.2,2.3-0.6,3.3-1.2   c1.4-0.9,2.1-2.1,2.1-3.6c0-1.6-0.6-2.7-1.9-3.4C68.7,71.9,67.5,71.5,66,71.2z M62,48.7c0-1.1,0.9-2,2-2c1.1,0,2,0.9,2,2V52   c3.1,0.1,5.7,0.7,7.8,1.7c1.3,0.7,1.9,1.4,1.9,2.3c0,1.8-0.8,2.7-2.5,2.7c-0.4,0-1.5-0.3-3.4-0.9c-1.3-0.4-2.6-0.7-3.9-0.8v9.2   c3.3,0.5,5.8,1.4,7.8,2.7c2.1,1.4,3.2,3.6,3.2,6.6c0,3.2-1.2,5.7-3.6,7.6c-1.9,1.5-4.4,2.3-7.3,2.6V89c0,1.1-0.9,2-2,2   c-1.1,0-2-0.9-2-2v-3.3c-2.4-0.1-4.6-0.6-6.8-1.3c-2.7-0.9-4.1-1.9-4.1-3c0-2,0.8-3,2.5-3c0.4,0,1.7,0.4,4.1,1.1   c1.5,0.5,3,0.8,4.3,1v-10c-0.8-0.1-1.4-0.2-1.9-0.3c-0.9-0.2-1.9-0.5-3.1-0.9c-1.2-0.4-2.2-0.9-2.8-1.5c-0.7-0.6-1.3-1.3-1.8-2.3   c-0.5-1-0.8-2.1-0.8-3.3c0-2.9,1.3-5.4,3.9-7.3c2-1.5,4.2-2.4,6.6-2.8V48.7z M64,15.6c1.1,0,2,0.9,2,2c0,5.7,2.5,10.8,6.5,14.5   c4.1,3.8,9.7,6.1,16,6.1c5.8,0,11-2,15-5.2c4-3.2,6.6-7.7,7.3-12.8l0-0.1c0.1-1.1,1.1-1.9,2.2-1.9c1.1,0.1,1.9,1.1,1.9,2.2   c-1.3,16.5-8.1,43.8-19.2,64.3c-8.2,15.1-18.8,26.5-31.5,27.7c-0.1,0-0.3,0-0.4,0C51,111.3,40.4,99.8,32.2,84.7   C21.1,64.2,14.4,36.9,13.1,20.4l0,0c-0.1-1.1,0.7-2,1.8-2.2c1.1-0.1,2.1,0.6,2.2,1.8l0,0.1h0l0,0.1c0.7,5.1,3.4,9.5,7.3,12.8   c4,3.3,9.2,5.2,15,5.2c6.3,0,11.9-2.3,16-6.1c4-3.7,6.5-8.9,6.5-14.5C62,16.5,62.9,15.6,64,15.6z M64,27c-1.4,3-3.3,5.8-5.8,8   c-4.8,4.4-11.4,7.2-18.7,7.2c-6.7,0-12.9-2.3-17.6-6.2c-1.1-0.9-2.1-1.8-3-2.9c2.9,15.3,8.6,34.4,16.9,49.6   c7.5,13.9,17.1,24.5,28.2,25.6c11.1-1.1,20.7-11.7,28.2-25.6c8.2-15.2,14-34.3,16.9-49.6c-0.9,1-1.9,2-3,2.9   c-4.7,3.8-10.8,6.2-17.6,6.2c-7.3,0-13.9-2.7-18.7-7.2C67.3,32.8,65.4,30,64,27z" fill="#2B2D03"/><path clip-rule="evenodd" d="M75.8,56c0,1.8-0.8,2.7-2.5,2.7c-0.4,0-1.5-0.3-3.4-0.9   c-1.3-0.4-2.6-0.7-3.9-0.8v9.2c3.3,0.5,5.8,1.4,7.8,2.7c2.1,1.4,3.2,3.6,3.2,6.6c0,3.2-1.2,5.7-3.6,7.6c-1.9,1.5-4.4,2.3-7.3,2.6   V89c0,1.1-0.9,2-2,2c-1.1,0-2-0.9-2-2v-3.3c-2.3-0.1-4.6-0.6-6.8-1.3c-2.7-0.9-4.1-1.9-4.1-3c0-2,0.8-3,2.5-3   c0.4,0,1.7,0.4,4.1,1.1c1.5,0.5,3,0.8,4.3,1v-10c-0.8-0.1-1.4-0.2-1.9-0.3c-0.9-0.2-1.9-0.5-3.1-0.9c-1.2-0.4-2.2-0.9-2.8-1.5   c-0.7-0.6-1.3-1.3-1.8-2.3c-0.5-1-0.8-2.1-0.8-3.3c0-2.9,1.3-5.4,3.9-7.3c2-1.5,4.2-2.4,6.6-2.8v-3.4c0-1.1,0.9-2,2-2   c1.1,0,2,0.9,2,2V52c3.1,0.1,5.7,0.7,7.8,1.7C75.1,54.4,75.8,55.1,75.8,56z M92.2,82.8c8.2-15.2,14-34.3,16.9-49.6   c-0.9,1-1.9,2-3,2.9c-4.7,3.8-10.8,6.2-17.6,6.2c-7.3,0-13.9-2.7-18.7-7.2c-2.5-2.3-4.5-5-5.8-8c-1.4,3-3.3,5.8-5.8,8   c-4.8,4.4-11.4,7.2-18.7,7.2c-6.7,0-12.9-2.3-17.6-6.2c-1.1-0.9-2.1-1.8-3-2.9c2.9,15.3,8.6,34.4,16.9,49.6   c7.5,13.9,17.1,24.5,28.2,25.6C75.1,107.3,84.7,96.7,92.2,82.8z" fill="#C0D863" fill-rule="evenodd"/><path clip-rule="evenodd" d="M62,65.6v-8.5c-1.1,0.2-2,0.6-2.9,1.2c-1.4,1-2.1,2.2-2.1,3.7   c0,0.7,0.2,1.3,0.5,1.8c0.3,0.5,0.9,0.8,1.7,1.1c0.8,0.3,1.5,0.5,2,0.6L62,65.6z" fill="#C0D863" fill-rule="evenodd"/><path clip-rule="evenodd" d="M69.5,72.4c-0.8-0.4-2-0.8-3.5-1.2v9.4c1.2-0.2,2.3-0.6,3.3-1.2   c1.4-0.9,2.1-2.1,2.1-3.6C71.4,74.2,70.8,73.1,69.5,72.4z" fill="#C0D863" fill-rule="evenodd"/></g></svg>