<?xml version="1.0" ?><svg id="Layer_1_1_" style="enable-background:new 0 0 64 64;" version="1.1" viewBox="0 0 64 64" xml:space="preserve" xmlns="http://www.w3.org/2000/svg" xmlns:xlink="http://www.w3.org/1999/xlink"><g><g><path d="M38,50H26c-1.105,0-2-0.895-2-2v0c0-1.105,0.895-2,2-2h12c1.105,0,2,0.895,2,2v0    C40,49.105,39.105,50,38,50z" style="fill:#00F4CB;"/></g><g><path d="M63,50V14c0-1.654-1.346-3-3-3h-4.198c-0.227-1.738-1.007-3.346-2.267-4.606c-0.391-0.391-1.023-0.391-1.414,0    s-0.391,1.023,0,1.414c1.134,1.134,1.758,2.641,1.758,4.243s-0.624,3.109-1.758,4.243c-0.391,0.391-0.391,1.023,0,1.414    C52.316,17.902,52.572,18,52.828,18s0.512-0.098,0.707-0.293c0.224-0.224,0.428-0.462,0.622-0.707H57v26H7V17h3.424    c0.665,1.514,2.058,2.628,3.734,2.915C14.547,21.12,15.667,22,17,22h4c0.669,0,1.335,0.026,2,0.053V33c0,2.757,2.243,5,5,5    s5-2.243,5-5v-9.521c2.932,0.73,5.806,1.714,8.6,2.984l0.986,0.448c0.135,0.061,0.275,0.09,0.413,0.09    c0.381,0,0.744-0.218,0.911-0.587c0.229-0.502,0.007-1.096-0.496-1.324l-0.986-0.448C35.955,21.7,29.088,20.143,22,20.009V9.991    c7.088-0.134,13.955-1.69,20.428-4.632l0.986-0.448c0.503-0.228,0.725-0.821,0.496-1.324c-0.228-0.502-0.817-0.727-1.324-0.497    L41.6,3.538C35.085,6.499,28.154,8,21,8h-4c-1.333,0-2.453,0.88-2.842,2.085c-0.792,0.136-1.514,0.458-2.133,0.92    C12.016,11.005,12.009,11,12,11H4c-1.654,0-3,1.346-3,3v36c0,1.654,1.346,3,3,3h14.914L1.621,60.074C1.245,60.228,1,60.594,1,61v1    c0,0.552,0.447,1,1,1h5c0.107,0,0.214-0.017,0.316-0.051L25.163,57h13.675l17.846,5.949C56.786,62.983,56.893,63,57,63h5    c0.553,0,1-0.448,1-1v-1c0-0.406-0.245-0.772-0.621-0.926L45.086,53H60C61.654,53,63,51.654,63,50z M25,26h2v5h-2V26z M31,33    c0,1.654-1.346,3-3,3s-3-1.346-3-3h3c0.553,0,1-0.448,1-1v-7c0-0.552-0.447-1-1-1h-3v-1.824c2.023,0.161,4.025,0.438,6,0.843V33z     M12,15c0-1.302,0.839-2.402,2-2.816v5.631C12.839,17.402,12,16.302,12,15z M17,10h3v2h-1c-0.553,0-1,0.448-1,1s0.447,1,1,1h1v2    h-1c-0.553,0-1,0.448-1,1s0.447,1,1,1h1v2h-3c-0.552,0-1-0.449-1-1v-8C16,10.449,16.448,10,17,10z M3,50V14c0-0.551,0.448-1,1-1    h6.424C10.154,13.614,10,14.288,10,15H6c-0.553,0-1,0.448-1,1v28c0,0.552,0.447,1,1,1h52c0.553,0,1-0.448,1-1V16    c0-0.552-0.447-1-1-1h-2.686c0.253-0.638,0.422-1.309,0.503-2H60c0.552,0,1,0.449,1,1v36c0,0.551-0.448,1-1,1H24.012    c-0.001,0-0.002,0-0.004,0H4C3.448,51,3,50.551,3,50z M6.838,61H4.641L24,53.081v2.198L6.838,61z M26,55v-2h12v2H26z M57.162,61    L40,55.279v-2.198L59.359,61H57.162z"/><circle cx="37" cy="48" r="1"/><circle cx="32" cy="48" r="1"/><circle cx="27" cy="48" r="1"/><circle cx="54" cy="40" r="1"/><circle cx="49" cy="40" r="1"/><circle cx="44" cy="40" r="1"/><path d="M54,35H44c-0.553,0-1,0.448-1,1s0.447,1,1,1h10c0.553,0,1-0.448,1-1S54.553,35,54,35z"/><path d="M43,32c0,0.552,0.447,1,1,1h10c0.553,0,1-0.448,1-1s-0.447-1-1-1H44C43.447,31,43,31.448,43,32z"/><path d="M49.293,14.879c0.195,0.195,0.451,0.293,0.707,0.293s0.512-0.098,0.707-0.293c0.756-0.755,1.172-1.76,1.172-2.829    s-0.416-2.073-1.172-2.829c-0.391-0.391-1.023-0.391-1.414,0s-0.391,1.023,0,1.414c0.378,0.378,0.586,0.88,0.586,1.415    s-0.208,1.037-0.586,1.415C48.902,13.855,48.902,14.488,49.293,14.879z"/><path d="M28,12c-0.553,0-1,0.448-1,1v4c0,0.552,0.447,1,1,1h8c0.553,0,1-0.448,1-1v-4c0-0.552-0.447-1-1-1H28z M29,14h2v2h-2V14z     M35,16h-2v-2h2V16z"/></g><g><g><path d="M45,29c-1.654,0-3-1.346-3-3V4c0-1.654,1.346-3,3-3s3,1.346,3,3v22C48,27.654,46.654,29,45,29z" style="fill:#00F4CB;"/></g></g></g></svg>