<?xml version="1.0" ?><svg id="Layer_1_1_" style="enable-background:new 0 0 64 64;" version="1.1" viewBox="0 0 64 64" xml:space="preserve" xmlns="http://www.w3.org/2000/svg" xmlns:xlink="http://www.w3.org/1999/xlink"><g><g><circle cx="22" cy="34" r="14" style="fill:#00F4CB;"/></g><g><g><path d="M58,31H42c-0.553,0-1-0.447-1-1V14c0-0.553,0.447-1,1-1h16c0.553,0,1,0.447,1,1v16     C59,30.553,58.553,31,58,31z" style="fill:#00F4CB;"/></g></g><g><path d="M62,1H2C1.448,1,1,1.448,1,2v60c0,0.553,0.448,1,1,1h60c0.552,0,1-0.447,1-1V2C63,1.448,62.552,1,62,1z M61,3v6H3V3H61z     M3,61V11h58v50H3z"/><circle cx="6" cy="6" r="1"/><circle cx="10" cy="6" r="1"/><circle cx="14" cy="6" r="1"/><circle cx="58" cy="37" r="1"/><circle cx="58" cy="41" r="1"/><circle cx="58" cy="45" r="1"/><circle cx="58" cy="49" r="1"/><circle cx="58" cy="53" r="1"/><path d="M22,17c-9.374,0-17,7.626-17,17s7.626,17,17,17s17-7.626,17-17S31.374,17,22,17z M21,19.051V33.28l-13.499,4.5    C7.185,36.569,7,35.307,7,34C7,26.067,13.195,19.569,21,19.051z M22,49c-6.261,0-11.632-3.859-13.876-9.321l13.664-4.554    l11.055,9.212C30.109,47.203,26.264,49,22,49z M34.122,42.799L23,33.531V19.051C30.805,19.569,37,26.067,37,34    C37,37.289,35.924,40.324,34.122,42.799z"/><circle cx="26" cy="30" r="1"/><circle cx="30" cy="30" r="1"/><circle cx="34" cy="30" r="1"/><path d="M54,17h-8c-0.552,0-1,0.448-1,1s0.448,1,1,1h8c0.552,0,1-0.448,1-1S54.552,17,54,17z"/><path d="M54,25h-8c-0.552,0-1,0.448-1,1s0.448,1,1,1h8c0.552,0,1-0.448,1-1S54.552,25,54,25z"/><path d="M46,23h2c0.552,0,1-0.448,1-1s-0.448-1-1-1h-2c-0.552,0-1,0.448-1,1S45.448,23,46,23z"/><path d="M54,21h-2c-0.552,0-1,0.448-1,1s0.448,1,1,1h2c0.552,0,1-0.448,1-1S54.552,21,54,21z"/><path d="M14,56h-2c-0.552,0-1,0.447-1,1s0.448,1,1,1h2c0.552,0,1-0.447,1-1S14.552,56,14,56z"/><path d="M20,56h-2c-0.552,0-1,0.447-1,1s0.448,1,1,1h2c0.552,0,1-0.447,1-1S20.552,56,20,56z"/><path d="M26,56h-2c-0.552,0-1,0.447-1,1s0.448,1,1,1h2c0.552,0,1-0.447,1-1S26.552,56,26,56z"/><path d="M32,56h-2c-0.552,0-1,0.447-1,1s0.448,1,1,1h2c0.552,0,1-0.447,1-1S32.552,56,32,56z"/><path d="M54,36H42c-0.552,0-1,0.447-1,1s0.448,1,1,1h12c0.552,0,1-0.447,1-1S54.552,36,54,36z"/><path d="M54,40H42c-0.552,0-1,0.447-1,1s0.448,1,1,1h12c0.552,0,1-0.447,1-1S54.552,40,54,40z"/><path d="M54,44H42c-0.552,0-1,0.447-1,1s0.448,1,1,1h12c0.552,0,1-0.447,1-1S54.552,44,54,44z"/><path d="M54,48H42c-0.552,0-1,0.447-1,1s0.448,1,1,1h12c0.552,0,1-0.447,1-1S54.552,48,54,48z"/><path d="M54,52H42c-0.552,0-1,0.447-1,1s0.448,1,1,1h12c0.552,0,1-0.447,1-1S54.552,52,54,52z"/></g></g></svg>