<?xml version="1.0" ?><svg id="Layer_1_1_" style="enable-background:new 0 0 64 64;" version="1.1" viewBox="0 0 64 64" xml:space="preserve" xmlns="http://www.w3.org/2000/svg" xmlns:xlink="http://www.w3.org/1999/xlink"><g><g><path d="M35.446,27.857c0.15-0.312,0.266-0.625,0.393-0.939C34.674,24.877,34,22.519,34,20    c0-3.579,1.354-6.834,3.564-9.309l0.133-1.408l-4.687-4.557c-0.305-0.296-0.766-0.368-1.145-0.178l-4.008,2.005    c-0.497-0.238-0.998-0.447-1.495-0.626l-1.415-4.244C24.812,1.275,24.431,1,24,1h-6c-0.431,0-0.812,0.275-0.948,0.684    l-1.415,4.244c-0.497,0.179-0.998,0.388-1.495,0.626l-4.008-2.005C9.748,4.355,9.285,4.431,8.979,4.736L4.736,8.979    c-0.305,0.305-0.38,0.77-0.188,1.154l2.005,4.008c-0.238,0.497-0.447,0.998-0.626,1.495l-4.244,1.415C1.275,17.188,1,17.569,1,18    v6c0,0.431,0.275,0.812,0.684,0.948l4.244,1.415c0.18,0.499,0.389,0.999,0.626,1.494l-2.005,4.009    c-0.192,0.385-0.117,0.85,0.188,1.154l4.243,4.243c0.307,0.307,0.771,0.38,1.154,0.188l4.008-2.005    c0.497,0.238,0.998,0.447,1.495,0.626l1.415,4.244C17.188,40.725,17.569,41,18,41h6c0.431,0,0.812-0.275,0.948-0.684l1.415-4.244    c0.497-0.179,0.998-0.388,1.495-0.626l4.008,2.005c0.384,0.191,0.849,0.118,1.154-0.188l4.243-4.243    c0.305-0.305,0.38-0.77,0.188-1.154L35.446,27.857z" style="fill:#00F4CB;"/></g><g><path d="M63,20c0-8.271-6.729-15-15-15s-15,6.729-15,15c0,7.244,5.161,13.304,12,14.698V41h-1c-0.553,0-1,0.447-1,1v16    c0,2.757,2.243,5,5,5s5-2.243,5-5V42c0-0.553-0.447-1-1-1h-1v-6.302C57.839,33.304,63,27.244,63,20z M35,20    c0-7.168,5.832-13,13-13s13,5.832,13,13s-5.832,13-13,13S35,27.168,35,20z M51,58c0,1.654-1.346,3-3,3s-3-1.346-3-3V43h6V58z     M49,41h-2v-6.051C47.332,34.971,47.662,35,48,35s0.668-0.029,1-0.051V41z"/><path d="M59,20c0-6.065-4.935-11-11-11s-11,4.935-11,11s4.935,11,11,11S59,26.065,59,20z M39,20c0-4.963,4.037-9,9-9s9,4.037,9,9    s-4.037,9-9,9S39,24.963,39,20z"/><circle cx="48" cy="58" r="1"/><path d="M20.999,33C20.999,33,20.999,33,20.999,33C20.999,33,20.999,33,20.999,33C20.999,33,21,33,21,33c0,0,0.001,0,0.001,0    c0,0,0,0,0.001,0c0,0,0.001,0,0.001,0C27.619,32.998,33,27.616,33,21c0-6.617-5.383-12-12-12c-0.03,0-0.059,0.004-0.089,0.005    c-0.001,0-0.002,0-0.003,0C14.333,9.055,9,14.414,9,21C9,27.617,14.382,32.999,20.999,33z M12.811,15.278    c0.416,0.397,1.043,0.898,1.943,1.366c-0.358,1.022-0.61,2.141-0.703,3.356h-3C11.225,18.255,11.854,16.644,12.811,15.278z     M30.949,20h-3.007c-0.113-1.156-0.41-2.262-0.822-3.296c0.963-0.484,1.634-1.011,2.069-1.426    C30.146,16.644,30.775,18.255,30.949,20z M29.189,26.722c-0.416-0.397-1.043-0.898-1.943-1.366    c0.358-1.022,0.61-2.141,0.703-3.356h3C30.775,23.745,30.146,25.356,29.189,26.722z M22,26.032    c0.995,0.062,1.842,0.216,2.567,0.416c-0.789,1.45-1.759,2.59-2.567,3.387V26.032z M22,24.032V22h3.947    c-0.086,0.935-0.289,1.803-0.568,2.609C24.432,24.32,23.315,24.106,22,24.032z M22,20v-2.032c1.257-0.07,2.334-0.268,3.254-0.537    c0.327,0.818,0.577,1.678,0.685,2.569H22z M22,15.968v-3.57c0.746,0.827,1.619,1.927,2.364,3.212    C23.686,15.783,22.901,15.912,22,15.968z M20,15.968c-0.995-0.062-1.842-0.216-2.567-0.416c0.789-1.45,1.759-2.59,2.567-3.387    V15.968z M20,17.968V20h-3.947c0.086-0.935,0.289-1.803,0.568-2.609C17.568,17.68,18.685,17.894,20,17.968z M20,22v2.032    c-1.257,0.07-2.334,0.268-3.254,0.537c-0.327-0.818-0.577-1.678-0.685-2.569H20z M20,26.032v3.57    c-0.746-0.827-1.619-1.927-2.364-3.212C18.314,26.217,19.099,26.088,20,26.032z M18.198,30.593    c-1.55-0.454-2.942-1.273-4.083-2.359c0.287-0.291,0.806-0.727,1.62-1.14C16.497,28.469,17.392,29.663,18.198,30.593z     M26.457,27.193c0.705,0.383,1.164,0.773,1.428,1.04c-1.049,0.999-2.311,1.771-3.714,2.242    C24.95,29.609,25.771,28.511,26.457,27.193z M26.264,14.906c-0.761-1.375-1.657-2.57-2.462-3.499    c1.55,0.454,2.942,1.273,4.083,2.359C27.598,14.057,27.079,14.493,26.264,14.906z M15.543,14.807    c-0.705-0.383-1.164-0.773-1.428-1.04c1.049-0.999,2.311-1.771,3.714-2.242C17.05,12.391,16.229,13.489,15.543,14.807z M14.058,22    c0.113,1.156,0.41,2.262,0.822,3.296c-0.963,0.484-1.634,1.011-2.069,1.426c-0.957-1.366-1.586-2.977-1.761-4.722H14.058z"/><path d="M37,51c-0.88,0-1.666,0.388-2.215,0.994l-6.801-2.834C27.987,49.106,28,49.055,28,49c0-1.654-1.346-3-3-3s-3,1.346-3,3    c0,0.426,0.092,0.829,0.252,1.197c-0.036,0.025-0.077,0.036-0.11,0.066l-7.637,7c-0.036,0.033-0.052,0.076-0.082,0.113    C13.998,57.144,13.518,57,13,57c-0.38,0-0.74,0.078-1.075,0.208c-0.037-0.099-0.08-0.198-0.151-0.285l-5-6.111    c-0.071-0.087-0.16-0.148-0.25-0.205C6.822,50.141,7,49.592,7,49c0-1.654-1.346-3-3-3s-3,1.346-3,3s1.346,3,3,3    c0.38,0,0.74-0.078,1.075-0.208c0.037,0.099,0.08,0.198,0.151,0.285l5,6.111c0.071,0.087,0.164,0.141,0.254,0.197    C10.179,58.853,10,59.405,10,60c0,1.654,1.346,3,3,3s3-1.346,3-3c0-0.425-0.091-0.829-0.252-1.195    c0.035-0.025,0.076-0.037,0.109-0.067l7.637-7c0.036-0.033,0.052-0.076,0.082-0.113C24.002,51.856,24.482,52,25,52    c0.88,0,1.666-0.388,2.215-0.994l6.801,2.834C34.013,53.894,34,53.945,34,54c0,1.654,1.346,3,3,3s3-1.346,3-3S38.654,51,37,51z     M4,50c-0.552,0-1-0.448-1-1s0.448-1,1-1s1,0.448,1,1S4.552,50,4,50z M13,61c-0.552,0-1-0.448-1-1s0.448-1,1-1s1,0.448,1,1    S13.552,61,13,61z M25,50c-0.552,0-1-0.448-1-1s0.448-1,1-1s1,0.448,1,1S25.552,50,25,50z M37,55c-0.552,0-1-0.448-1-1    s0.448-1,1-1s1,0.448,1,1S37.552,55,37,55z"/></g></g></svg>