<?xml version="1.0" ?><svg id="Layer_1_1_" style="enable-background:new 0 0 64 64;" version="1.1" viewBox="0 0 64 64" xml:space="preserve" xmlns="http://www.w3.org/2000/svg" xmlns:xlink="http://www.w3.org/1999/xlink"><g><g><circle cx="50" cy="27" r="9" style="fill:#00F4CB;"/></g><g><g><path d="M42,14H20c-0.553,0-1-0.447-1-1V7c0-0.553,0.447-1,1-1h22c0.553,0,1,0.447,1,1v6     C43,13.553,42.553,14,42,14z" style="fill:#00F4CB;"/></g></g><g><path d="M62,50h-9V39.637c5.724-1.36,10-6.503,10-12.637s-4.276-11.277-10-12.637V7c0-3.309-2.691-6-6-6H7C3.691,1,1,3.691,1,7v7    c0,0.553,0.447,1,1,1h9v10c0,0.553,0.447,1,1,1s1-0.447,1-1V7c0-1.538-0.586-2.937-1.54-4H47c2.206,0,4,1.794,4,4v7.051    C50.669,14.025,50.338,14,50,14c-7.168,0-13,5.832-13,13s5.832,13,13,13c0,0,0.001,0,0.001,0c0,0,0,0,0,0c0,0,0,0,0,0    c0.337,0,0.668-0.025,0.999-0.051V50H22c-0.553,0-1,0.447-1,1v6c0,2.206-1.794,4-4,4s-4-1.794-4-4V47c0-0.553-0.447-1-1-1    s-1,0.447-1,1v10c0,3.309,2.691,6,6,6h40c3.309,0,6-2.691,6-6v-6C63,50.447,62.553,50,62,50z M11,7v6H3V7c0-2.206,1.794-4,4-4    S11,4.794,11,7z M57.015,18.535c-0.414,0.342-1.285,0.98-2.531,1.523c-0.681-1.555-1.479-2.844-2.171-3.808    C54.072,16.627,55.677,17.424,57.015,18.535z M50.002,16.52c0.679,0.837,1.719,2.286,2.571,4.175C51.794,20.879,50.937,21,50,21    c-0.935,0-1.791-0.12-2.568-0.304C48.285,18.808,49.324,17.358,50.002,16.52z M45.516,20.058    c-1.246-0.543-2.117-1.181-2.531-1.523c1.338-1.111,2.943-1.908,4.703-2.286C46.995,17.214,46.197,18.503,45.516,20.058z M50,23    c1.214,0,2.312-0.167,3.295-0.42c0.333,1.054,0.572,2.202,0.661,3.42h-7.913c0.089-1.217,0.33-2.365,0.664-3.419    C47.691,22.833,48.787,23,50,23z M53.956,28c-0.089,1.217-0.33,2.364-0.664,3.419C52.309,31.167,51.213,31,50,31    c-1.214,0-2.312,0.167-3.295,0.42c-0.333-1.054-0.572-2.202-0.661-3.42H53.956z M50,33c0.935,0,1.791,0.12,2.568,0.304    c-0.853,1.888-1.892,3.338-2.569,4.176c-0.679-0.837-1.719-2.286-2.571-4.175C48.206,33.121,49.063,33,50,33z M47.687,37.751    c-1.759-0.378-3.364-1.175-4.702-2.286c0.414-0.342,1.285-0.98,2.531-1.523C46.197,35.497,46.995,36.786,47.687,37.751z     M54.484,33.942c1.246,0.543,2.117,1.181,2.531,1.523c-1.338,1.111-2.943,1.908-4.703,2.286    C53.005,36.786,53.803,35.497,54.484,33.942z M58.437,34.046c-0.479-0.417-1.588-1.279-3.239-1.984    c0.393-1.241,0.668-2.606,0.76-4.063h4.992C60.742,30.289,59.833,32.377,58.437,34.046z M60.949,26h-4.992    c-0.092-1.457-0.367-2.822-0.76-4.063c1.651-0.705,2.76-1.567,3.239-1.984C59.833,21.623,60.742,23.711,60.949,26z M41.563,19.954    c0.479,0.417,1.588,1.279,3.239,1.984c-0.393,1.241-0.668,2.606-0.76,4.063h-4.992C39.258,23.711,40.167,21.623,41.563,19.954z     M39.051,28h4.992c0.092,1.457,0.367,2.822,0.76,4.063c-1.651,0.705-2.76,1.567-3.239,1.984    C40.167,32.377,39.258,30.289,39.051,28z M61,57c0,2.206-1.794,4-4,4H21.469C22.42,59.938,23,58.535,23,57v-5h38V57z"/><path d="M14,28v16c0,0.369,0.203,0.708,0.528,0.882C14.676,44.961,14.838,45,15,45c0.194,0,0.388-0.057,0.555-0.168l1.008-0.672    C19.664,42.093,23.272,41,27,41h2c1.654,0,3-1.346,3-3v-4c0-1.654-1.346-3-3-3h-2c-3.728,0-7.336-1.093-10.438-3.16l-1.008-0.672    c-0.307-0.204-0.702-0.224-1.026-0.05C14.203,27.292,14,27.631,14,28z M30,34v4c0,0.552-0.448,1-1,1h-1v-6h1    C29.552,33,30,33.448,30,34z M16,29.856c3.021,1.882,6.449,2.94,10,3.109v6.069c-3.551,0.169-6.979,1.227-10,3.109V29.856z"/><path d="M11.586,37.414C11.208,37.036,11,36.534,11,36s0.208-1.036,0.586-1.414c0.391-0.391,0.391-1.023,0-1.414    s-1.023-0.391-1.414,0C9.416,33.928,9,34.932,9,36s0.416,2.072,1.172,2.828c0.195,0.195,0.451,0.293,0.707,0.293    s0.512-0.098,0.707-0.293C11.977,38.438,11.977,37.805,11.586,37.414z"/><path d="M7,36c0-1.603,0.624-3.109,1.758-4.242c0.391-0.39,0.391-1.023,0-1.414s-1.023-0.391-1.414,0C5.832,31.854,5,33.862,5,36    s0.832,4.146,2.344,5.656c0.195,0.195,0.451,0.293,0.707,0.293s0.512-0.098,0.707-0.293c0.391-0.391,0.391-1.024,0-1.414    C7.624,39.109,7,37.603,7,36z"/><path d="M3,36c0-2.67,1.04-5.182,2.929-7.071c0.391-0.391,0.391-1.023,0-1.414s-1.023-0.391-1.414,0C2.248,29.782,1,32.796,1,36    s1.248,6.218,3.515,8.485c0.195,0.195,0.451,0.293,0.707,0.293s0.512-0.098,0.707-0.293c0.391-0.391,0.391-1.023,0-1.414    C4.04,41.182,3,38.67,3,36z"/><path d="M36,16H16c-0.553,0-1,0.447-1,1s0.447,1,1,1h20c0.553,0,1-0.447,1-1S36.553,16,36,16z"/><path d="M16,26h20c0.553,0,1-0.447,1-1s-0.447-1-1-1H16c-0.553,0-1,0.447-1,1S15.447,26,16,26z"/><path d="M16,22h8c0.553,0,1-0.447,1-1s-0.447-1-1-1h-8c-0.553,0-1,0.447-1,1S15.447,22,16,22z"/><path d="M36,20h-8c-0.553,0-1,0.447-1,1s0.447,1,1,1h8c0.553,0,1-0.447,1-1S36.553,20,36,20z"/><path d="M31,47c0,0.553,0.447,1,1,1h16c0.553,0,1-0.447,1-1s-0.447-1-1-1H32C31.447,46,31,46.447,31,47z"/><path d="M38,42h-6c-0.553,0-1,0.447-1,1s0.447,1,1,1h6c0.553,0,1-0.447,1-1S38.553,42,38,42z"/><path d="M48,44c0.553,0,1-0.447,1-1s-0.447-1-1-1h-6c-0.553,0-1,0.447-1,1s0.447,1,1,1H48z"/></g></g></svg>