<?xml version="1.0" ?><svg viewBox="0 0 128 128" xmlns="http://www.w3.org/2000/svg"><title/><g data-name="Speaker" id="d214834c-e293-435b-a0f4-bc756ba79558"><rect fill="#1c2029" height="85" rx="4" ry="4" width="49" x="27" y="22"/><rect fill="#323a4a" height="85" rx="4" ry="4" width="49" x="12.25" y="22"/><path d="M61.25,26v77a4,4,0,0,1-4,4H37V22H57.25A4,4,0,0,1,61.25,26Z" fill="#272e3b"/><circle cx="36.75" cy="44" fill="#1c2029" r="11"/><circle cx="36.75" cy="44" fill="#333a4a" r="9.25"/><circle cx="36.75" cy="44" fill="none" r="8.25" stroke="#333a4a" stroke-miterlimit="10"/><circle cx="36.75" cy="82" fill="#1c2029" r="19.25"/><circle cx="36.75" cy="82" fill="#1e222b" r="17.25"/><circle cx="36.75" cy="82" fill="#333a4a" r="15.25"/><circle cx="36.75" cy="82" fill="#1e222b" r="11.25"/><circle cx="36.75" cy="82" fill="none" r="10.25" stroke="#333a4a" stroke-miterlimit="10" stroke-width="0.25"/><circle cx="36.75" cy="82" fill="none" r="9.25" stroke="#333a4a" stroke-miterlimit="10" stroke-width="0.25"/><circle cx="36.75" cy="82" fill="none" r="8.25" stroke="#333a4a" stroke-miterlimit="10" stroke-width="0.25"/><circle cx="36.75" cy="82" fill="none" r="7.25" stroke="#333a4a" stroke-miterlimit="10" stroke-width="0.25"/><path d="M41.75,44a5,5,0,0,1-3.82,4.86,4.88,4.88,0,0,1-1.18.14,5,5,0,0,1,0-10,4.36,4.36,0,0,1,1.18.15A5,5,0,0,1,41.75,44Z" fill="#272c38"/><path d="M40.75,44a4,4,0,0,1-3.06,3.89,3.91,3.91,0,0,1-.94.11,4,4,0,0,1,0-8,3.49,3.49,0,0,1,.94.12A4,4,0,0,1,40.75,44Z" fill="none" stroke="#333a4a" stroke-miterlimit="10" stroke-width="0.5"/><path d="M39.75,44a3,3,0,0,1-2.29,2.92,2.93,2.93,0,0,1-.71.08,3,3,0,0,1,0-6,2.62,2.62,0,0,1,.71.09A3,3,0,0,1,39.75,44Z" fill="#333a4a"/><circle cx="25" cy="34" fill="#171a21" r="1"/><circle cx="48" cy="34" fill="#171a21" r="1"/><circle cx="25" cy="55" fill="#171a21" r="1"/><circle cx="48" cy="55" fill="#171a21" r="1"/><rect fill="#1c2029" height="85" rx="4" ry="4" width="49" x="68" y="22"/><rect fill="#323a4a" height="85" rx="4" ry="4" width="49" x="58.25" y="22"/><path d="M107.25,26v77a4,4,0,0,1-4,4H83V22h20.25A4,4,0,0,1,107.25,26Z" fill="#272e3b"/><circle cx="82.75" cy="44" fill="#1c2029" r="11"/><circle cx="82.75" cy="44" fill="#333a4a" r="9.25"/><circle cx="82.75" cy="44" fill="none" r="8.25" stroke="#333a4a" stroke-miterlimit="10"/><circle cx="82.75" cy="82" fill="#1c2029" r="19.25"/><circle cx="82.75" cy="82" fill="#1e222b" r="17.25"/><circle cx="82.75" cy="82" fill="#333a4a" r="15.25"/><circle cx="82.75" cy="82" fill="#1e222b" r="11.25"/><circle cx="82.75" cy="82" fill="none" r="10.25" stroke="#333a4a" stroke-miterlimit="10" stroke-width="0.25"/><circle cx="82.75" cy="82" fill="none" r="9.25" stroke="#333a4a" stroke-miterlimit="10" stroke-width="0.25"/><circle cx="82.75" cy="82" fill="none" r="8.25" stroke="#333a4a" stroke-miterlimit="10" stroke-width="0.25"/><circle cx="82.75" cy="82" fill="none" r="7.25" stroke="#333a4a" stroke-miterlimit="10" stroke-width="0.25"/><path d="M87.75,44a5,5,0,0,1-3.82,4.86,4.88,4.88,0,0,1-1.18.14,5,5,0,0,1,0-10,4.36,4.36,0,0,1,1.18.15A5,5,0,0,1,87.75,44Z" fill="#272c38"/><path d="M86.75,44a4,4,0,0,1-3.06,3.89,3.91,3.91,0,0,1-.94.11,4,4,0,0,1,0-8,3.49,3.49,0,0,1,.94.12A4,4,0,0,1,86.75,44Z" fill="none" stroke="#333a4a" stroke-miterlimit="10" stroke-width="0.5"/><path d="M85.75,44a3,3,0,0,1-2.29,2.92,2.93,2.93,0,0,1-.71.08,3,3,0,0,1,0-6,2.62,2.62,0,0,1,.71.09A3,3,0,0,1,85.75,44Z" fill="#333a4a"/><circle cx="94" cy="34" fill="#171a21" r="1"/><circle cx="94" cy="55" fill="#171a21" r="1"/></g></svg>