<?xml version="1.0" ?><svg height="56px" version="1.1" viewBox="0 0 40 56" width="40px" xmlns="http://www.w3.org/2000/svg" xmlns:xlink="http://www.w3.org/1999/xlink"><title/><desc/><defs/><g fill="none" fill-rule="evenodd" id="Page-1" stroke="none" stroke-width="1"><g fill="#000000" fill-rule="nonzero" id="029---Gingerbread-Man" transform="translate(-1.000000, 0.000000)"><path d="M40.77,27.84 C40.511186,27.2241055 40.0487328,26.7157601 39.46,26.4 L36.99,31.81 C38.4958286,32.3341716 40.1506647,31.6049959 40.78,30.14 C41.0818375,29.402349 41.0782403,28.5749984 40.77,27.84 L40.77,27.84 Z M21,34.5 C20.1715729,34.5 19.5,35.1715729 19.5,36 C19.5,36.8284271 20.1715729,37.5 21,37.5 C21.8284271,37.5 22.5,36.8284271 22.5,36 C22.5005504,35.6020068 22.3426919,35.2201561 22.0612679,34.9387321 C21.7798439,34.6573081 21.3979932,34.4994496 21,34.5 Z M21,27.5 C20.1715729,27.5 19.5,28.1715729 19.5,29 C19.5,29.8284271 20.1715729,30.5 21,30.5 C21.8284271,30.5 22.5,29.8284271 22.5,29 C22.5005504,28.6020068 22.3426919,28.2201561 22.0612679,27.9387321 C21.7798439,27.6573081 21.3979932,27.4994496 21,27.5 Z M21,34.5 C20.1715729,34.5 19.5,35.1715729 19.5,36 C19.5,36.8284271 20.1715729,37.5 21,37.5 C21.8284271,37.5 22.5,36.8284271 22.5,36 C22.5005504,35.6020068 22.3426919,35.2201561 22.0612679,34.9387321 C21.7798439,34.6573081 21.3979932,34.4994496 21,34.5 Z M21,27.5 C20.1715729,27.5 19.5,28.1715729 19.5,29 C19.5,29.8284271 20.1715729,30.5 21,30.5 C21.8284271,30.5 22.5,29.8284271 22.5,29 C22.5005504,28.6020068 22.3426919,28.2201561 22.0612679,27.9387321 C21.7798439,27.6573081 21.3979932,27.4994496 21,27.5 Z M21,34.5 C20.1715729,34.5 19.5,35.1715729 19.5,36 C19.5,36.8284271 20.1715729,37.5 21,37.5 C21.8284271,37.5 22.5,36.8284271 22.5,36 C22.5005504,35.6020068 22.3426919,35.2201561 22.0612679,34.9387321 C21.7798439,34.6573081 21.3979932,34.4994496 21,34.5 Z M21,27.5 C20.1715729,27.5 19.5,28.1715729 19.5,29 C19.5,29.8284271 20.1715729,30.5 21,30.5 C21.8284271,30.5 22.5,29.8284271 22.5,29 C22.5005504,28.6020068 22.3426919,28.2201561 22.0612679,27.9387321 C21.7798439,27.6573081 21.3979932,27.4994496 21,27.5 Z M21,34.5 C20.1715729,34.5 19.5,35.1715729 19.5,36 C19.5,36.8284271 20.1715729,37.5 21,37.5 C21.8284271,37.5 22.5,36.8284271 22.5,36 C22.5005504,35.6020068 22.3426919,35.2201561 22.0612679,34.9387321 C21.7798439,34.6573081 21.3979932,34.4994496 21,34.5 Z M21,27.5 C20.1715729,27.5 19.5,28.1715729 19.5,29 C19.5,29.8284271 20.1715729,30.5 21,30.5 C21.8284271,30.5 22.5,29.8284271 22.5,29 C22.5005504,28.6020068 22.3426919,28.2201561 22.0612679,27.9387321 C21.7798439,27.6573081 21.3979932,27.4994496 21,27.5 Z M21,34.5 C20.1715729,34.5 19.5,35.1715729 19.5,36 C19.5,36.8284271 20.1715729,37.5 21,37.5 C21.8284271,37.5 22.5,36.8284271 22.5,36 C22.5005504,35.6020068 22.3426919,35.2201561 22.0612679,34.9387321 C21.7798439,34.6573081 21.3979932,34.4994496 21,34.5 Z M28,37.46 L28,32.61 C27.9969359,31.6081637 28.4946206,30.6710404 29.3263436,30.1125404 C30.1580666,29.5540404 31.2138366,29.4480226 32.14,29.83 L32.77,30.09 L35.26,24.63 L26.11,20.86 C25.95,20.93 25.78,20.99 25.62,21.06 C25.41992,21.14 25.23,21.22 25.03,21.29 C24.82,21.37 24.61,21.43 24.4,21.49 C24.15989,21.56 23.9199,21.63 23.67991,21.69 C23.50999,21.73 23.34996,21.75 23.17991,21.78 C22.9,21.83 22.60997,21.89 22.32005,21.92 C22.21995,21.93 22.11998,21.93 22.02,21.94 C21.67991,21.97 21.34007,22 21,22 C20.65993,22 20.32007,21.97 19.98,21.94 C19.88,21.93 19.78,21.93 19.67995,21.92 C19.39003,21.89 19.11001,21.83 18.82009,21.78 C18.65009,21.75 18.49001,21.73 18.32009,21.69 C18.08009,21.64 17.84009,21.56 17.61001,21.49 C17.39001,21.43 17.17995,21.37 16.97001,21.29 C16.77001,21.22 16.58012,21.14 16.38001,21.06 C16.22001,20.99 16.05001,20.93 15.89001,20.86 L6.74001,24.63 L9.23001,30.09 L9.86001,29.83 C10.7861723,29.448027 11.841939,29.554047 12.6736592,30.1125464 C13.5053794,30.6710459 14.0030627,31.6081663 14,32.61 L14,37.46 C13.997853,38.0994458 13.794947,38.7220712 13.41992,39.24 L8.38,46.07 L13.07007,49.81 L18.58007,42.33 C19.1476622,41.5626646 20.0455454,41.1099964 20.99999,41.1099964 C21.9544346,41.1099964 22.8523178,41.5626646 23.41991,42.33 L28.92991,49.81 L33.62,46.07 L28.58008,39.24 C28.205053,38.7220712 28.002147,38.0994458 28,37.46 L28,37.46 Z M21,38.5 C19.9888444,38.5 19.0772537,37.8908946 18.6903012,36.9567086 C18.3033487,36.0225226 18.5172381,34.947228 19.232233,34.232233 C19.947228,33.5172381 21.0225226,33.3033487 21.9567086,33.6903012 C22.8908946,34.0772537 23.5,34.9888444 23.5,36 C23.4994978,37.3805038 22.3805038,38.4994978 21,38.5 L21,38.5 Z M21,31.5 C19.6192881,31.5 18.5,30.3807119 18.5,29 C18.5,27.6192881 19.6192881,26.5 21,26.5 C22.3807119,26.5 23.5,27.6192881 23.5,29 C23.4994978,30.3805038 22.3805038,31.4994978 21,31.5 Z M21,34.5 C20.1715729,34.5 19.5,35.1715729 19.5,36 C19.5,36.8284271 20.1715729,37.5 21,37.5 C21.8284271,37.5 22.5,36.8284271 22.5,36 C22.5005504,35.6020068 22.3426919,35.2201561 22.0612679,34.9387321 C21.7798439,34.6573081 21.3979932,34.4994496 21,34.5 Z M21,27.5 C20.1715729,27.5 19.5,28.1715729 19.5,29 C19.5,29.8284271 20.1715729,30.5 21,30.5 C21.8284271,30.5 22.5,29.8284271 22.5,29 C22.5005504,28.6020068 22.3426919,28.2201561 22.0612679,27.9387321 C21.7798439,27.6573081 21.3979932,27.4994496 21,27.5 Z M21,34.5 C20.1715729,34.5 19.5,35.1715729 19.5,36 C19.5,36.8284271 20.1715729,37.5 21,37.5 C21.8284271,37.5 22.5,36.8284271 22.5,36 C22.5005504,35.6020068 22.3426919,35.2201561 22.0612679,34.9387321 C21.7798439,34.6573081 21.3979932,34.4994496 21,34.5 Z M21,27.5 C20.1715729,27.5 19.5,28.1715729 19.5,29 C19.5,29.8284271 20.1715729,30.5 21,30.5 C21.8284271,30.5 22.5,29.8284271 22.5,29 C22.5005504,28.6020068 22.3426919,28.2201561 22.0612679,27.9387321 C21.7798439,27.6573081 21.3979932,27.4994496 21,27.5 Z M21,34.5 C20.1715729,34.5 19.5,35.1715729 19.5,36 C19.5,36.8284271 20.1715729,37.5 21,37.5 C21.8284271,37.5 22.5,36.8284271 22.5,36 C22.5005504,35.6020068 22.3426919,35.2201561 22.0612679,34.9387321 C21.7798439,34.6573081 21.3979932,34.4994496 21,34.5 Z M21,27.5 C20.1715729,27.5 19.5,28.1715729 19.5,29 C19.5,29.8284271 20.1715729,30.5 21,30.5 C21.8284271,30.5 22.5,29.8284271 22.5,29 C22.5005504,28.6020068 22.3426919,28.2201561 22.0612679,27.9387321 C21.7798439,27.6573081 21.3979932,27.4994496 21,27.5 Z M21,34.5 C20.1715729,34.5 19.5,35.1715729 19.5,36 C19.5,36.8284271 20.1715729,37.5 21,37.5 C21.8284271,37.5 22.5,36.8284271 22.5,36 C22.5005504,35.6020068 22.3426919,35.2201561 22.0612679,34.9387321 C21.7798439,34.6573081 21.3979932,34.4994496 21,34.5 Z M37.40991,51.22 L36.34009,49.77 L31.65991,53.52 L32.58008,54.78 C33.1493678,55.5453208 34.0461666,55.997441 35,56 C35.637344,56.0040988 36.2586816,55.8004966 36.77,55.42 C37.413566,54.9483575 37.8419933,54.2391123 37.96,53.45 C38.0881854,52.6627632 37.8894992,51.8573127 37.40991,51.22 L37.40991,51.22 Z M34.20991,46.87 L29.52,50.62 L31.06,52.71 L35.75,48.96 L34.20991,46.87 Z M5.65991,49.77 L4.58008,51.22 C3.61001797,52.5562541 3.89530318,54.4242142 5.22,55.41 C6.56166641,56.3488626 8.40369071,56.0718955 9.40994,54.78 L10.34012,53.52 L5.65991,49.77 Z M7.79,46.87 L6.25,48.96 L10.93994,52.71 L12.47994,50.62 L7.79,46.87 Z M5.82,25.01 L3.45,25.98 L5.94,31.45 L8.30011,30.47 L5.82,25.01 Z M5.82,25.01 L3.45,25.98 L5.94,31.45 L8.30011,30.47 L5.82,25.01 Z M5.82,25.01 L3.45,25.98 L5.94,31.45 L8.30011,30.47 L5.82,25.01 Z M1.23,27.84 C0.768071755,28.9339772 0.99804524,30.1976794 1.81576641,31.058781 C2.63348759,31.9198826 3.88362634,32.2148132 5,31.81 L2.54,26.4 C1.95126716,26.7157601 1.48881404,27.2241055 1.23,27.84 L1.23,27.84 Z M5.82009,25.01 L3.45,25.98 L5.94,31.45 L8.30011,30.47 L5.82009,25.01 Z M5.82009,25.01 L3.45,25.98 L5.94,31.45 L8.30011,30.47 L5.82009,25.01 Z M5.82009,25.01 L3.45,25.98 L5.94,31.45 L8.30011,30.47 L5.82009,25.01 Z M17,7 C16.4477153,7 16,7.44771525 16,8 C16,8.55228475 16.4477153,9 17,9 C17.5522847,9 18,8.55228475 18,8 C17.9984017,7.44837862 17.5516214,7.00159825 17,7 L17,7 Z M25,7 C24.4477153,7 24,7.44771525 24,8 C24,8.55228475 24.4477153,9 25,9 C25.5522847,9 26,8.55228475 26,8 C25.9984017,7.44837862 25.5516214,7.00159825 25,7 L25,7 Z M18,8 C18,7.44771525 17.5522847,7 17,7 C16.4477153,7 16,7.44771525 16,8 C16,8.55228475 16.4477153,9 17,9 C17.5516214,8.99840175 17.9984017,8.55162138 18,8 Z M21,0 C16.3915158,-0.00114912478 12.3793212,3.14804211 11.2856194,7.62486514 C10.1919175,12.1016882 12.3001083,16.7461087 16.39,18.87 C17.1010992,19.2448281 17.8572399,19.5271207 18.64,19.71 C22.3881909,20.6219067 26.3266043,19.2958672 28.7599702,16.3026684 C31.1933362,13.3094696 31.6873896,9.18328597 30.0294678,5.70021203 C28.371546,2.21713808 24.8575261,-0.00122725379 21,-2.22044605e-15 L21,0 Z M14,8 C14,6.34314575 15.3431458,5 17,5 C18.6568542,5 20,6.34314575 20,8 C20,9.65685425 18.6568542,11 17,11 C15.3451495,10.9951725 14.0048275,9.6548505 14,8 L14,8 Z M21,18 C18.2389901,17.9990011 16.0009989,15.7610099 16,13 C16,12.4477153 16.4477153,12 17,12 C17.5522847,12 18,12.4477153 18,13 C18,14.6568542 19.3431458,16 21,16 C22.6568542,16 24,14.6568542 24,13 C24,12.4477153 24.4477153,12 25,12 C25.5522847,12 26,12.4477153 26,13 C25.9990011,15.7610099 23.7610099,17.9990011 21,18 L21,18 Z M25,11 C23.3431458,11 22,9.65685425 22,8 C22,6.34314575 23.3431458,5 25,5 C26.6568542,5 28,6.34314575 28,8 C27.9951506,9.65484141 26.6548414,10.9951506 25,11 Z M17,7 C16.4477153,7 16,7.44771525 16,8 C16,8.55228475 16.4477153,9 17,9 C17.5522847,9 18,8.55228475 18,8 C17.9984017,7.44837862 17.5516214,7.00159825 17,7 L17,7 Z M36.17993,25.01 L33.7,30.47 L36.06011,31.45 L38.55011,25.98 L36.17993,25.01 Z" id="Shape"/></g></g></svg>