<?xml version="1.0" ?><svg height="58px" version="1.1" viewBox="0 0 60 58" width="60px" xmlns="http://www.w3.org/2000/svg" xmlns:xlink="http://www.w3.org/1999/xlink"><title/><desc/><defs/><g fill="none" fill-rule="evenodd" id="Page-1" stroke="none" stroke-width="1"><g fill="#000000" fill-rule="nonzero" id="027---Reindeer" transform="translate(-1.000000, -1.000000)"><path d="M58.97,10.63 L58.97,4 C58.9709197,2.53536324 57.9141455,1.2841425 56.47,1.04 C55.5791188,0.896357897 54.6698867,1.14831378 53.98,1.73 C53.3539336,2.25838973 52.9858915,3.03091373 52.97,3.85 C52.8942564,2.44480764 51.8568325,1.27874319 50.47,1.04 C49.5791188,0.896357897 48.6698867,1.14831378 47.98,1.73 C47.3539336,2.25838973 46.9858915,3.03091373 46.97,3.85 C46.8942564,2.44480764 45.8568325,1.27874319 44.47,1.04 C43.5791188,0.896357897 42.6698867,1.14831378 41.98,1.73 C41.3450003,2.26868081 40.9762403,3.05731595 40.97,3.89 L41.02,10.88 C39.3794049,11.4430531 38.0139674,12.6083218 37.2,14.14 L34.74,19 L32.0993,19 C32.331566,16.8595968 33.576831,14.9606533 35.4473,13.89453 C35.9399203,13.6467531 36.1390447,13.0469982 35.8924383,12.5537909 C35.6458319,12.0605836 35.0465515,11.8600355 34.55276,12.10547 C32.9628283,12.9097101 31.6982888,14.2368586 30.97176,15.86377 C30.1828483,13.2695916 28.6652747,10.956666 26.59961,9.2002 C26.313937,8.98476883 25.9349058,8.93845323 25.6057639,9.07875728 C25.2766219,9.21906133 25.0475703,9.52458573 25.0051747,9.87986343 C24.962779,10.2351411 25.1135055,10.5859849 25.40039,10.7998 C28.09692,12.82257 29.32939,16.9859 29.78571,19 L27.36,19 L24.75,14.14 C23.9585012,12.6209742 22.6004569,11.4748998 20.97,10.95 L20.97,3.89 C20.9660252,3.05395997 20.5971157,2.26135231 19.96,1.72 C19.2758713,1.14275479 18.3731749,0.894239197 17.49,1.04 C16.1003447,1.2724189 15.0552594,2.43362481 14.97,3.84 C14.949633,3.02197758 14.5824205,2.25119504 13.96,1.72 C13.2758713,1.14275479 12.3731749,0.894239197 11.49,1.04 C10.1049425,1.26645437 9.05980085,2.41942811 8.97,3.82 C8.94480891,3.00882539 8.5779642,2.24607897 7.96,1.72 C7.27587127,1.14275479 6.37317492,0.894239197 5.49,1.04 C4.03774425,1.27511859 2.97039136,2.5288347 2.97,4 L2.97,10.63 C1.61491147,11.076799 0.784474607,12.4410881 1.01,13.85 C1.32806054,15.2810079 2.61453147,16.2867181 4.08,16.25 L18.5,16.25 C18.8754472,16.2444808 19.2241433,16.4437357 19.41,16.77 L21.84,21.28 C20.6569105,22.5671991 20.0002439,24.2516916 20,26 L20,33.75 C20.71,33.51 21.43,33.29 22.19,33.09 C22.7232705,32.9583077 23.2631293,33.2806123 23.4002191,33.8125209 C23.5373089,34.3444294 23.2204919,34.8875267 22.69,35.03 C20.3232844,35.6144932 18.0579444,36.5516427 15.97,37.81 C14.2320196,38.8180138 12.725965,40.1809592 11.55,41.81 C10.563015,43.1765802 10.0217275,44.8144115 10,46.5 C10.0122708,47.817426 10.3561836,49.1105383 11,50.26 C13.84,41.85 20.44,41.28 23.03,41.39995 C23.02,41.26995 23,41.13995 23,40.99995 C23,38.19995 26.51,35.99995 31,35.99995 C35.49,35.99995 39,38.19995 39,40.99995 C39,41.13995 38.98,41.26995 38.97,41.39995 C41.56,41.27995 48.16,41.84995 51,50.26 C51.6438164,49.1105383 51.9877292,47.817426 52,46.5 C51.9782725,44.8144115 51.436985,43.1765802 50.45,41.81 C49.274035,40.1809592 47.7679804,38.8180138 46.03,37.81 C43.9420556,36.5516427 41.6767156,35.6144932 39.31,35.03 C38.7795081,34.8875267 38.4626911,34.3444294 38.5997809,33.8125209 C38.7368707,33.2806123 39.2767295,32.9583077 39.81,33.09 C40.57,33.29 41.29,33.51 42,33.75 L42,26 C42.0008099,24.2496301 41.3399867,22.5636382 40.15,21.28 L42.54,16.77 C42.7258772,16.4437562 43.07456,16.2445089 43.45,16.25 L57.87,16.25 C59.3387043,16.2863571 60.6266002,15.2753378 60.94,13.84 C61.1735859,12.4288633 60.3339464,11.0607197 58.97,10.63 Z M38.71,22.71 C38.3156443,23.0966923 37.6843557,23.0966923 37.29,22.71 C36.9508123,22.3261445 36.4867758,22.0746438 35.98,22 C35.4349314,21.9762816 35.0063154,21.525572 35.01,20.98 C35.0177945,20.8263946 35.058731,20.6762941 35.13,20.54 C35.2942713,20.2097084 35.6311136,20.0006339 36,20 C36.1480055,20.0013349 36.2954687,20.0180921 36.44,20.05 C37.056412,20.1671986 37.637884,20.4237304 38.14,20.8 C38.3420988,20.948708 38.5326438,21.1125098 38.71,21.29 C38.7786179,21.3631585 38.8389808,21.4436424 38.89,21.53 C39.0951018,21.9202731 39.0221326,22.398627 38.71,22.71 Z M27,21 C27.0006921,21.5448055 26.5647083,21.9896869 26.02,22 C25.5142353,22.0776647 25.0511668,22.3286407 24.71,22.71 C24.3612593,23.0578034 23.8119044,23.1017635 23.4122923,22.8138443 C23.0126803,22.525925 22.8804785,21.9909054 23.1,21.55 C23.1026687,21.550055 23.1052443,21.5490192 23.1071317,21.5471317 C23.1090192,21.5452443 23.110055,21.5426687 23.11,21.54 C23.1539492,21.4462087 23.2149911,21.3614283 23.29,21.29 C23.4673562,21.1125098 23.6579012,20.948708 23.86,20.8 C24.3879252,20.4082497 25.0014901,20.1477417 25.65,20.04 C25.7648829,20.0140845 25.8822323,20.0006731 26,20 C26.5517214,20.0013577 26.9986423,20.4482786 27,21 L27,21 Z M21.17,15.83 C20.6418536,14.8489617 19.614132,14.2407968 18.5,14.25 L4.08,14.25 C3.58949591,14.2841944 3.1392225,13.9785042 2.99,13.51 C2.91880397,13.056256 3.2048028,12.6229244 3.65,12.51 C4.44542918,12.2518652 4.98036149,11.506202 4.97,10.67 L4.97,4 C4.96499738,3.51257495 5.31840097,3.09530324 5.8,3.02 C6.10512863,2.96147762 6.42045681,3.04214297 6.66,3.24 C6.85178819,3.40216797 6.9646895,3.63889652 6.97,3.89 L6.97,10.52 C7.00296471,11.6008298 7.88866759,12.4599311 8.97,12.4599311 C10.0513324,12.4599311 10.9370353,11.6008298 10.97,10.52 L10.97,4 C10.9649974,3.51257495 11.318401,3.09530324 11.8,3.02 C12.1051286,2.96147762 12.4204568,3.04214297 12.66,3.24 C12.8517882,3.40216797 12.9646895,3.63889652 12.97,3.89 L12.97,10.52 C13.0029647,11.6008298 13.8886676,12.4599311 14.97,12.4599311 C16.0513324,12.4599311 16.9370353,11.6008298 16.97,10.52 L16.97,4 C16.9649974,3.51257495 17.318401,3.09530324 17.8,3.02 C18.1051286,2.96147762 18.4204568,3.04214297 18.66,3.24 C18.8517882,3.40216797 18.9646895,3.63889652 18.97,3.89 L18.97,10.95 C18.9746927,11.7705884 19.4952897,12.4994242 20.27,12.77 C21.4341377,13.166458 22.4056118,13.9879252 22.99,15.07 L25.22,19.23 C24.5859724,19.3936791 23.9794775,19.6497547 23.42,19.99 L21.17,15.83 Z M26,31.5 C23.9337525,31.3522111 22.3722004,29.5675801 22.5,27.5 C22.3721837,25.4324142 23.9337447,23.6477731 26,23.5 C28.0662553,23.6477731 29.6278163,25.4324142 29.5,27.5 C29.6277996,29.5675801 28.0662475,31.3522111 26,31.5 Z M36,31.5 C33.9337525,31.3522111 32.3722004,29.5675801 32.5,27.5 C32.3721837,25.4324142 33.9337447,23.6477731 36,23.5 C38.0662553,23.6477731 39.6278163,25.4324142 39.5,27.5 C39.6277996,29.5675801 38.0662475,31.3522111 36,31.5 Z M57.87,14.25 L43.45,14.25 C42.3358638,14.2407812 41.3081347,14.8489505 40.78,15.83 L38.57,19.99 C38.0348999,19.662552 37.4556963,19.4133597 36.85,19.25 L38.96,15.08 C39.5407402,13.992783 40.5130862,13.1670039 41.68,12.77 C42.4524986,12.4983501 42.9695479,11.7688697 42.97,10.95 L42.97,3.89 C42.9734386,3.64128116 43.0869732,3.40688708 43.28,3.25 C43.5258801,3.04891394 43.8471726,2.96493975 44.16,3.02 C44.6334474,3.1044195 44.9762145,3.51912527 44.97,4 L44.97,10.52 C45.0029647,11.6008298 45.8886676,12.4599311 46.97,12.4599311 C48.0513324,12.4599311 48.9370353,11.6008298 48.97,10.52 L48.97,3.89 C48.9734386,3.64128116 49.0869732,3.40688708 49.28,3.25 C49.5252686,3.04771492 49.8471192,2.96359486 50.16,3.02 C50.6334474,3.1044195 50.9762145,3.51912527 50.97,4 L50.97,10.52 C51.0029647,11.6008298 51.8886676,12.4599311 52.97,12.4599311 C54.0513324,12.4599311 54.9370353,11.6008298 54.97,10.52 L54.97,3.89 C54.9734386,3.64128116 55.0869732,3.40688708 55.28,3.25 C55.5258801,3.04891394 55.8471726,2.96493975 56.16,3.02 C56.6334474,3.1044195 56.9762145,3.51912527 56.97,4 L56.97,10.67 C56.9706306,11.5112244 57.5109036,12.2571237 58.31,12.52 C58.7494256,12.6332037 59.0308397,13.0618406 58.96,13.51005 C58.8081785,13.9766011 58.359646,14.2810889 57.87,14.25 L57.87,14.25 Z" id="Shape"/><circle cx="26" cy="28" id="Oval" r="1"/><path d="M37,41 C37,39.58 34.54,38 31,38 C27.46,38 25,39.58 25,41 C25,42.42 27.46,44 31,44 C34.54,44 37,42.42 37,41 Z M32.7,39 C33.82,39 34.7,39.66 34.7,40.5 C34.7,41.34 33.82,42 32.7,42 C31.58,42 30.7,41.34 30.7,40.5 C30.7,39.66 31.58,39 32.7,39 Z" id="Shape"/><ellipse cx="32.7002" cy="40.5" id="Oval" rx="1" ry="1"/><ellipse cx="31" cy="53.5" id="Oval" rx="4" ry="2.5"/><path d="M38.68,42.41 C37.73,44.51 34.7,46 31,46 C27.3,46 24.27,44.51 23.32,42.41 C21.25,42.21 14.33,42.26 11.69,51.37 C12.85009,52.913769 14.3048169,54.2121468 15.97,55.19 C18.0579315,56.4483829 20.3232755,57.3855342 22.69,57.97 C28.1453023,59.3400001 33.8546977,59.3400001 39.31,57.97 C41.6767245,57.3855342 43.9420685,56.4483829 46.03,55.19 C47.6951831,54.2121468 49.14991,52.913769 50.31,51.37 C47.67,42.26 40.75,42.21 38.68,42.41 Z M31,58 C27.64,58 25,56.02 25,53.5 C25,50.98 27.64,49 31,49 C34.36,49 37,50.98 37,53.5 C37,56.02 34.36,58 31,58 Z" id="Shape"/><path d="M26,24.5 C24.4888789,24.6525806 23.377582,25.9861368 23.5,27.5 C23.377604,29.0138562 24.4888897,30.347399 26,30.5 C27.5111103,30.347399 28.622396,29.0138562 28.5,27.5 C28.622418,25.9861368 27.5111211,24.6525806 26,24.5 L26,24.5 Z M26,29.5 C25.1715729,29.5 24.5,28.8284271 24.5,28 C24.5,27.1715729 25.1715729,26.5 26,26.5 C26.8284271,26.5 27.5,27.1715729 27.5,28 C27.5005317,28.3979875 27.3426672,28.7798274 27.0612473,29.0612473 C26.7798274,29.3426672 26.3979875,29.5005317 26,29.5 L26,29.5 Z" id="Shape"/><path d="M36,24.5 C34.4888789,24.6525806 33.377582,25.9861368 33.5,27.5 C33.377604,29.0138562 34.4888897,30.347399 36,30.5 C37.5111103,30.347399 38.622396,29.0138562 38.5,27.5 C38.622418,25.9861368 37.5111211,24.6525806 36,24.5 L36,24.5 Z M36,29.5 C35.1715729,29.5 34.5,28.8284271 34.5,28 C34.5,27.1715729 35.1715729,26.5 36,26.5 C36.8284271,26.5 37.5,27.1715729 37.5,28 C37.5005317,28.3979875 37.3426672,28.7798274 37.0612473,29.0612473 C36.7798274,29.3426672 36.3979875,29.5005317 36,29.5 L36,29.5 Z" id="Shape"/><circle cx="36" cy="28" id="Oval" r="1"/></g></g></svg>