<?xml version="1.0" ?><svg height="56px" version="1.1" viewBox="0 0 56 56" width="56px" xmlns="http://www.w3.org/2000/svg" xmlns:xlink="http://www.w3.org/1999/xlink"><title/><desc/><defs/><g fill="none" fill-rule="evenodd" id="Page-1" stroke="none" stroke-width="1"><g fill="#000000" fill-rule="nonzero" id="002---Bauble"><path d="M55.37,0.63 C54.9709484,0.226847777 54.4272512,1.13071035e-05 53.86,1.13071035e-05 C53.2927488,1.13071035e-05 52.7490516,0.226847777 52.35,0.63 C51.951447,1.0313175 51.7284575,1.5744049 51.73,2.14 C51.7321953,2.7048565 51.9546254,3.24658139 52.35,3.65 C52.889471,4.18947104 53.6757672,4.40015847 54.4126984,4.20269836 C55.1496295,4.00523825 55.7252383,3.42962951 55.9226984,2.69269836 C56.1201585,1.95576721 55.909471,1.16947104 55.37,0.63 L55.37,0.63 Z M53.9,8.02 L50.94,5.07 L50.94,5.06 L50.93,5.06 L47.98,2.1 C47.5486867,1.68000369 46.8613133,1.68000369 46.43,2.1 L43.84,4.7 C46.7593306,6.71268179 49.2873182,9.24066943 51.3,12.16 L53.9,9.57 C54.319933,9.13866094 54.319933,8.45133906 53.9,8.02 Z M47.17,41.48 L45.1,38.69 C44.7935408,38.2836919 44.7074658,37.7522719 44.87,37.27 L45.99,33.98 C46.0522482,33.7823327 45.998559,33.5664534 45.8509698,33.4209727 C45.7033806,33.2754919 45.4867513,33.2249143 45.29,33.29 L42,34.4 C41.5194092,34.5659951 40.9878307,34.4836379 40.58,34.18 L37.8,32.1 C37.7042108,32.0297241 37.5887969,31.9912528 37.47,31.99 C37.3833434,31.9919581 37.2981062,32.012415 37.22,32.05 C37.0343902,32.146158 36.9212994,32.341142 36.93,32.55 L36.97,36.02 C36.9779788,36.5278207 36.734729,37.0068356 36.32,37.3 L33.48,39.31 C33.307684,39.4271071 33.221269,39.6352885 33.26,39.84 C33.2863052,40.0444013 33.431809,40.2135004 33.63,40.27 L36.95,41.31 C37.435857,41.4576865 37.817534,41.8356216 37.97,42.32 L39,45.64 C39.0633081,45.8394819 39.2334275,45.9864032 39.44,46.02 C39.646355,46.0528714 39.8530591,45.9631696 39.97,45.79 L41.97,42.96 C42.2636396,42.5445797 42.7412807,42.298296 43.25,42.3 L46.73,42.35 C46.9339962,42.340724 47.1189792,42.2274691 47.22,42.05 C47.319873,41.8673164 47.3001528,41.6425059 47.17,41.48 Z M47.17,41.48 L45.1,38.69 C44.7935408,38.2836919 44.7074658,37.7522719 44.87,37.27 L45.99,33.98 C46.0522482,33.7823327 45.998559,33.5664534 45.8509698,33.4209727 C45.7033806,33.2754919 45.4867513,33.2249143 45.29,33.29 L42,34.4 C41.5194092,34.5659951 40.9878307,34.4836379 40.58,34.18 L37.8,32.1 C37.7042108,32.0297241 37.5887969,31.9912528 37.47,31.99 C37.3833434,31.9919581 37.2981062,32.012415 37.22,32.05 C37.0343902,32.146158 36.9212994,32.341142 36.93,32.55 L36.97,36.02 C36.9779788,36.5278207 36.734729,37.0068356 36.32,37.3 L33.48,39.31 C33.307684,39.4271071 33.221269,39.6352885 33.26,39.84 C33.2863052,40.0444013 33.431809,40.2135004 33.63,40.27 L36.95,41.31 C37.435857,41.4576865 37.817534,41.8356216 37.97,42.32 L39,45.64 C39.0633081,45.8394819 39.2334275,45.9864032 39.44,46.02 C39.646355,46.0528714 39.8530591,45.9631696 39.97,45.79 L41.97,42.96 C42.2636396,42.5445797 42.7412807,42.298296 43.25,42.3 L46.73,42.35 C46.9339962,42.340724 47.1189792,42.2274691 47.22,42.05 C47.319873,41.8673164 47.3001528,41.6425059 47.17,41.48 Z M21.93,37.14 L19.16,33.42 C18.8527783,33.0140176 18.7666394,32.4822034 18.93,32 L20.42,27.61 C20.4870169,27.4138175 20.4365887,27.1965967 20.289996,27.050004 C20.1434033,26.9034113 19.9261825,26.8529831 19.73,26.92 L15.34,28.41 C14.8577303,28.5725611 14.3262976,28.4864839 13.92,28.18 L10.21,25.41 C10.0420198,25.2840944 9.81704959,25.2647004 9.63,25.36 C9.44383955,25.4568928 9.32788875,25.6501442 9.33,25.86 L9.39,30.49 C9.40246982,30.9988481 9.15820818,31.4798556 8.74,31.77 L4.96,34.45 C4.78529118,34.5656564 4.69513909,34.7733982 4.73,34.98 C4.76669276,35.1851122 4.9124135,35.3538415 5.11,35.42 L9.54,36.79 C10.024357,36.9425012 10.4022781,37.3241641 10.55,37.81 L11.93,42.23 C11.9823631,42.4325439 12.1525537,42.5829449 12.36,42.61 C12.5668184,42.6420383 12.7744531,42.5574463 12.9,42.39 L15.57,38.6 C15.863081,38.1851745 16.3421506,37.941897 16.85,37.95 L21.49,38.01 C21.6952669,38.0049486 21.882164,37.8905219 21.98,37.71 C22.0799005,37.5273221 22.0601789,37.3024955 21.93,37.14 Z M45.1,38.69 C44.7935408,38.2836919 44.7074658,37.7522719 44.87,37.27 L45.99,33.98 C46.0522482,33.7823327 45.998559,33.5664534 45.8509698,33.4209727 C45.7033806,33.2754919 45.4867513,33.2249143 45.29,33.29 L42,34.4 C41.5194092,34.5659951 40.9878307,34.4836379 40.58,34.18 L37.8,32.1 C37.7042108,32.0297241 37.5887969,31.9912528 37.47,31.99 C37.3833434,31.9919581 37.2981062,32.012415 37.22,32.05 C37.0343902,32.146158 36.9212994,32.341142 36.93,32.55 L36.97,36.02 C36.9779788,36.5278207 36.734729,37.0068356 36.32,37.3 L33.48,39.31 C33.307684,39.4271071 33.221269,39.6352885 33.26,39.84 C33.2863052,40.0444013 33.431809,40.2135004 33.63,40.27 L36.95,41.31 C37.435857,41.4576865 37.817534,41.8356216 37.97,42.32 L39,45.64 C39.0633081,45.8394819 39.2334275,45.9864032 39.44,46.02 C39.646355,46.0528714 39.8530591,45.9631696 39.97,45.79 L41.97,42.96 C42.2636396,42.5445797 42.7412807,42.298296 43.25,42.3 L46.73,42.35 C46.9339962,42.340724 47.1189792,42.2274691 47.22,42.05 C47.319873,41.8673164 47.3001528,41.6425059 47.17,41.48 L45.1,38.69 Z M34.66,15.18 C34.7598339,14.9938596 34.7402174,14.7663084 34.61,14.6 L33.04,12.5 C32.7356805,12.0924552 32.6532687,11.5605245 32.82,11.08 L33.66,8.6 C33.7270424,8.40381496 33.6766232,8.18657727 33.530023,8.03997704 C33.3834227,7.89337682 33.166185,7.84295761 32.97,7.91 L30.49,8.75 C30.004529,8.91333959 29.469769,8.82732924 29.06,8.52 L26.96,6.96 C26.8702169,6.88571458 26.7564813,6.84661794 26.64,6.85 C26.5532002,6.85082593 26.4677199,6.87134121 26.39,6.91 C26.2046219,7.00263052 26.088207,7.19277487 26.09,7.4 L26.13,10.02 C26.1341188,10.5292979 25.8872921,11.0079921 25.47,11.3 L23.33,12.82 C23.1614346,12.9401284 23.0760567,13.1458114 23.11,13.35 C23.1370525,13.5574475 23.2874546,13.7276393 23.49,13.78 L25.99,14.56 C26.4787523,14.7087462 26.8612538,15.0912477 27.01,15.58 L27.78,18.08 C27.8428374,18.2797684 28.0131571,18.4268827 28.21994,18.46 C28.4241272,18.493931 28.6298039,18.4085557 28.74994,18.24 L30.25994,16.1 C30.5546269,15.6805425 31.0373548,15.4335654 31.54994,15.44 L34.16994,15.48 C34.3776698,15.4835744 34.5687061,15.3666277 34.66,15.18 Z M19.16,33.42 C18.8527783,33.0140176 18.7666394,32.4822034 18.93,32 L20.42,27.61 C20.4870169,27.4138175 20.4365887,27.1965967 20.289996,27.050004 C20.1434033,26.9034113 19.9261825,26.8529831 19.73,26.92 L15.34,28.41 C14.8577303,28.5725611 14.3262976,28.4864839 13.92,28.18 L10.21,25.41 C10.0420198,25.2840944 9.81704959,25.2647004 9.63,25.36 C9.44383955,25.4568928 9.32788875,25.6501442 9.33,25.86 L9.39,30.49 C9.40246982,30.9988481 9.15820818,31.4798556 8.74,31.77 L4.96,34.45 C4.78529118,34.5656564 4.69513909,34.7733982 4.73,34.98 C4.76669276,35.1851122 4.9124135,35.3538415 5.11,35.42 L9.54,36.79 C10.024357,36.9425012 10.4022781,37.3241641 10.55,37.81 L11.93,42.23 C11.9823631,42.4325439 12.1525537,42.5829449 12.36,42.61 C12.5668184,42.6420383 12.7744531,42.5574463 12.9,42.39 L15.57,38.6 C15.863081,38.1851745 16.3421506,37.941897 16.85,37.95 L21.49,38.01 C21.6952669,38.0049486 21.882164,37.8905219 21.98,37.71 C22.0799005,37.5273221 22.0601789,37.3024955 21.93,37.14 L19.16,33.42 Z M46.5,9.5 C39.6190648,2.61906457 29.589883,-0.0682466848 20.1903506,2.4503504 C10.7908181,4.96894749 3.44894749,12.3108181 0.930350401,21.7103506 C-1.58824668,31.109883 1.09906457,41.1390648 7.98,48.02 C14.8609353,54.9009353 24.8901169,57.5882464 34.2896493,55.0696493 C43.6891816,52.5510522 51.0310522,45.2091816 53.5496493,35.8096493 C56.0682464,26.4101169 53.3809353,16.3809353 46.5,9.5 Z M22.87,38.17 C22.5855337,38.6786693 22.0526924,38.9983741 21.47,39.01 L16.84,38.95 C16.6593154,38.9390341 16.4869478,39.0271331 16.39,39.18 L13.71,42.96 C13.4246645,43.3744653 12.9531856,43.6214305 12.45,43.62 C12.3696629,43.6183127 12.2895083,43.6116332 12.21,43.6 C11.6250084,43.5120878 11.142604,43.0958194 10.97,42.53 L9.6,38.11 C9.54753249,37.9374805 9.41251949,37.8024675 9.24,37.75 L4.81,36.37 C4.2506175,36.1916953 3.83987427,35.7128037 3.74885021,35.1327899 C3.65782615,34.5527762 3.90212767,33.9710856 4.38,33.63 L8.16,30.96 C8.30973667,30.855612 8.39633158,30.6824221 8.39,30.5 L8.33,25.87 C8.32275828,25.2818005 8.6497846,24.7404044 9.17378748,24.4730993 C9.69779036,24.2057942 10.3280608,24.2588527 10.8,24.61 L14.52,27.38 C14.662136,27.4901478 14.8505922,27.5203008 15.02,27.46 L19.41,25.98 C19.9672045,25.790323 20.5837788,25.93381 20.9999844,26.3500156 C21.41619,26.7662212 21.559677,27.3827955 21.37,27.94 L19.88,32.32 C19.8205074,32.4927371 19.8504699,32.6837289 19.96,32.82995 L22.73,36.53995 C23.0880379,37.0104786 23.1425617,37.6453111 22.87,38.17 L22.87,38.17 Z M31.08,16.67 L29.57,18.81 C29.2830897,19.2226843 28.8126182,19.4691217 28.31,19.47 C28.2263647,19.4678899 28.1429071,19.4612133 28.06,19.45 C27.4821981,19.3513444 27.007708,18.9385767 26.83,18.38 L26.05,15.88 C25.9974901,15.707506 25.862494,15.5725099 25.69,15.52 L23.19,14.74 C22.6268838,14.5658719 22.2120012,14.0863786 22.1206188,13.5040817 C22.0292364,12.9217848 22.2772941,12.3382535 22.76,12 L24.9,10.49 C25.0422012,10.3836984 25.1271374,10.2175191 25.13,10.04 L25.09,7.42 C25.07906,6.82830646 25.4099836,6.28325575 25.94,6.02 C26.4613292,5.74791888 27.0930778,5.80251444 27.56,6.16 L29.66,7.72 C29.8024625,7.82939214 29.9905178,7.85948099 30.16,7.8 L32.65,6.96 C33.2071065,6.76834288 33.824747,6.91207055 34.24,7.33 C34.653495,7.74771342 34.796592,8.3626437 34.61,8.92 L33.77,11.4 C33.7121633,11.5715802 33.7380727,11.7603482 33.84,11.91 L35.41,14.01 C35.7679697,14.4767344 35.8225903,15.1087728 35.55,15.63 C35.2698621,16.1442098 34.7354576,16.4686697 34.15,16.48 L31.53,16.44 C31.3519106,16.4405427 31.1847553,16.5259776 31.08,16.67 L31.08,16.67 Z M46.72,43.35 L43.24,43.3 C43.0597566,43.2911162 42.8883769,43.3787102 42.79,43.53 L40.78,46.37 C40.496097,46.7796334 40.0283898,47.0228411 39.53,47.02 C39.4465411,47.0218581 39.3630473,47.018535 39.28,47.01005 C38.6992944,46.9175664 38.2219975,46.5023569 38.05,45.94005 L37.01,42.62005 C36.9606532,42.4456791 36.8243709,42.3093968 36.65,42.26005 L33.34,41.23005 C32.7776702,41.0558854 32.3627701,40.5778742 32.2694328,39.9966374 C32.1760955,39.4154006 32.4204729,38.8315201 32.9,38.49005 L35.74,36.49005 C35.8862096,36.3826509 35.9718064,36.2114571 35.97,36.03005 L35.93,32.56005 C35.9175999,31.9707106 36.2441593,31.4264449 36.77,31.16005 C37.2957756,30.8930952 37.9274463,30.9473492 38.4,31.30005 L41.18,33.38005 C41.3244316,33.4847834 41.5101005,33.5144905 41.68,33.46005 L44.97,32.34005 C45.5272061,32.150356 46.1437918,32.2938371 46.5600023,32.7100477 C46.9762129,33.1262582 47.119694,33.7428439 46.93,34.30005 L45.82,37.59005 C45.7596781,37.7594558 45.7898328,37.9479224 45.9,38.09005 L47.97,40.88005 C48.3275312,41.3469545 48.3821292,41.9787304 48.11,42.50005 C47.8450797,43.0237982 47.3069299,43.3528633 46.72,43.35 L46.72,43.35 Z M21.93,37.14 L19.16,33.42 C18.8527783,33.0140176 18.7666394,32.4822034 18.93,32 L20.42,27.61 C20.4870169,27.4138175 20.4365887,27.1965967 20.289996,27.050004 C20.1434033,26.9034113 19.9261825,26.8529831 19.73,26.92 L15.34,28.41 C14.8577303,28.5725611 14.3262976,28.4864839 13.92,28.18 L10.21,25.41 C10.0420198,25.2840944 9.81704959,25.2647004 9.63,25.36 C9.44383955,25.4568928 9.32788875,25.6501442 9.33,25.86 L9.39,30.49 C9.40246982,30.9988481 9.15820818,31.4798556 8.74,31.77 L4.96,34.45 C4.78529118,34.5656564 4.69513909,34.7733982 4.73,34.98 C4.76669276,35.1851122 4.9124135,35.3538415 5.11,35.42 L9.54,36.79 C10.024357,36.9425012 10.4022781,37.3241641 10.55,37.81 L11.93,42.23 C11.9823631,42.4325439 12.1525537,42.5829449 12.36,42.61 C12.5668184,42.6420383 12.7744531,42.5574463 12.9,42.39 L15.57,38.6 C15.863081,38.1851745 16.3421506,37.941897 16.85,37.95 L21.49,38.01 C21.6952669,38.0049486 21.882164,37.8905219 21.98,37.71 C22.0799005,37.5273221 22.0601789,37.3024955 21.93,37.14 Z M47.17,41.48 L45.1,38.69 C44.7935408,38.2836919 44.7074658,37.7522719 44.87,37.27 L45.99,33.98 C46.0522482,33.7823327 45.998559,33.5664534 45.8509698,33.4209727 C45.7033806,33.2754919 45.4867513,33.2249143 45.29,33.29 L42,34.4 C41.5194092,34.5659951 40.9878307,34.4836379 40.58,34.18 L37.8,32.1 C37.7042108,32.0297241 37.5887969,31.9912528 37.47,31.99 C37.3833434,31.9919581 37.2981062,32.012415 37.22,32.05 C37.0343902,32.146158 36.9212994,32.341142 36.93,32.55 L36.97,36.02 C36.9779788,36.5278207 36.734729,37.0068356 36.32,37.3 L33.48,39.31 C33.307684,39.4271071 33.221269,39.6352885 33.26,39.84 C33.2863052,40.0444013 33.431809,40.2135004 33.63,40.27 L36.95,41.31 C37.435857,41.4576865 37.817534,41.8356216 37.97,42.32 L39,45.64 C39.0633081,45.8394819 39.2334275,45.9864032 39.44,46.02 C39.646355,46.0528714 39.8530591,45.9631696 39.97,45.79 L41.97,42.96 C42.2636396,42.5445797 42.7412807,42.298296 43.25,42.3 L46.73,42.35 C46.9339962,42.340724 47.1189792,42.2274691 47.22,42.05 C47.319873,41.8673164 47.3001528,41.6425059 47.17,41.48 L47.17,41.48 Z M47.17,41.48 L45.1,38.69 C44.7935408,38.2836919 44.7074658,37.7522719 44.87,37.27 L45.99,33.98 C46.0522482,33.7823327 45.998559,33.5664534 45.8509698,33.4209727 C45.7033806,33.2754919 45.4867513,33.2249143 45.29,33.29 L42,34.4 C41.5194092,34.5659951 40.9878307,34.4836379 40.58,34.18 L37.8,32.1 C37.7042108,32.0297241 37.5887969,31.9912528 37.47,31.99 C37.3833434,31.9919581 37.2981062,32.012415 37.22,32.05 C37.0343902,32.146158 36.9212994,32.341142 36.93,32.55 L36.97,36.02 C36.9779788,36.5278207 36.734729,37.0068356 36.32,37.3 L33.48,39.31 C33.307684,39.4271071 33.221269,39.6352885 33.26,39.84 C33.2863052,40.0444013 33.431809,40.2135004 33.63,40.27 L36.95,41.31 C37.435857,41.4576865 37.817534,41.8356216 37.97,42.32 L39,45.64 C39.0633081,45.8394819 39.2334275,45.9864032 39.44,46.02 C39.646355,46.0528714 39.8530591,45.9631696 39.97,45.79 L41.97,42.96 C42.2636396,42.5445797 42.7412807,42.298296 43.25,42.3 L46.73,42.35 C46.9339962,42.340724 47.1189792,42.2274691 47.22,42.05 C47.319873,41.8673164 47.3001528,41.6425059 47.17,41.48 L47.17,41.48 Z" id="Shape"/></g></g></svg>