<?xml version="1.0" ?><svg height="56px" version="1.1" viewBox="0 0 51 56" width="51px" xmlns="http://www.w3.org/2000/svg" xmlns:xlink="http://www.w3.org/1999/xlink"><title/><desc/><defs/><g fill="none" fill-rule="evenodd" id="Page-1" stroke="none" stroke-width="1"><g fill="#000000" fill-rule="nonzero" id="005---Bell" transform="translate(-1.000000, -1.000000)"><path d="M42.57,21.15 C42.32,21 42.06,20.82 41.81,20.65 C41.9286898,21.4278705 41.9921817,22.2131654 42,23 L42,27.61 C42.6917353,28.7777652 43.524673,29.8558821 44.48,30.82 C44.9870159,31.3514282 45.609847,31.7586639 46.3,32.01 C46.6372017,32.1185256 46.9988751,32.1254808 47.34,32.03 C47.8631935,31.7814008 48.3243808,31.4192834 48.69,30.97 C49.502455,30.1585043 50.1211757,29.1740205 50.5,28.09 C50.8589558,26.9733725 51.0608897,25.8122528 51.1,24.64 C51.12,24.14995 51.12,23.66 51.1,23.19 C48.1083566,23.4857277 45.1041429,22.7672522 42.57,21.15 L42.57,21.15 Z M32.37,42.8 C30.41,42.61 28.27,42.5 26,42.5 C23.73,42.5 21.59,42.61 19.63,42.8 C19.547231,43.1947391 19.503686,43.5966935 19.5,44 C19.5,47.5898509 22.4101491,50.5 26,50.5 C29.5898509,50.5 32.5,47.5898509 32.5,44 C32.496314,43.5966935 32.452769,43.1947391 32.37,42.8 Z M33.41,42.92 C33.4648158,43.2775002 33.4948873,43.6383579 33.5,44 C33.5,48.1421356 30.1421356,51.5 26,51.5 C21.8578644,51.5 18.5,48.1421356 18.5,44 C18.5051127,43.6383579 18.5351842,43.2775002 18.59,42.92 C10.54,43.85 5.5,46.24 5.5,48.5 C5.5,51.4 13.73,54.49 25.97,54.5 L26,54.5 C38.26,54.5 46.5,51.4 46.5,48.5 C46.5,46.24 41.46,43.85 33.41,42.92 L33.41,42.92 Z M32.37,42.8 C30.41,42.61 28.27,42.5 26,42.5 C23.73,42.5 21.59,42.61 19.63,42.8 C19.547231,43.1947391 19.503686,43.5966935 19.5,44 C19.5,47.5898509 22.4101491,50.5 26,50.5 C29.5898509,50.5 32.5,47.5898509 32.5,44 C32.496314,43.5966935 32.452769,43.1947391 32.37,42.8 Z M33.41,42.92 C33.4648158,43.2775002 33.4948873,43.6383579 33.5,44 C33.5,48.1421356 30.1421356,51.5 26,51.5 C21.8578644,51.5 18.5,48.1421356 18.5,44 C18.5051127,43.6383579 18.5351842,43.2775002 18.59,42.92 C10.54,43.85 5.5,46.24 5.5,48.5 C5.5,51.4 13.73,54.49 25.97,54.5 L26,54.5 C38.26,54.5 46.5,51.4 46.5,48.5 C46.5,46.24 41.46,43.85 33.41,42.92 L33.41,42.92 Z M32.37,42.8 C30.41,42.61 28.27,42.5 26,42.5 C23.73,42.5 21.59,42.61 19.63,42.8 C19.547231,43.1947391 19.503686,43.5966935 19.5,44 C19.5,47.5898509 22.4101491,50.5 26,50.5 C29.5898509,50.5 32.5,47.5898509 32.5,44 C32.496314,43.5966935 32.452769,43.1947391 32.37,42.8 Z M33.41,42.92 C33.4648158,43.2775002 33.4948873,43.6383579 33.5,44 C33.5,48.1421356 30.1421356,51.5 26,51.5 C21.8578644,51.5 18.5,48.1421356 18.5,44 C18.5051127,43.6383579 18.5351842,43.2775002 18.59,42.92 C10.54,43.85 5.5,46.24 5.5,48.5 C5.5,51.4 13.73,54.49 25.97,54.5 L26,54.5 C38.26,54.5 46.5,51.4 46.5,48.5 C46.5,46.24 41.46,43.85 33.41,42.92 L33.41,42.92 Z M32.37,42.8 C30.41,42.61 28.27,42.5 26,42.5 C23.73,42.5 21.59,42.61 19.63,42.8 C19.547231,43.1947391 19.503686,43.5966935 19.5,44 C19.5,47.5898509 22.4101491,50.5 26,50.5 C29.5898509,50.5 32.5,47.5898509 32.5,44 C32.496314,43.5966935 32.452769,43.1947391 32.37,42.8 Z M33.41,42.92 C33.4648158,43.2775002 33.4948873,43.6383579 33.5,44 C33.5,48.1421356 30.1421356,51.5 26,51.5 C21.8578644,51.5 18.5,48.1421356 18.5,44 C18.5051127,43.6383579 18.5351842,43.2775002 18.59,42.92 C10.54,43.85 5.5,46.24 5.5,48.5 C5.5,51.4 13.73,54.49 25.97,54.5 L26,54.5 C38.26,54.5 46.5,51.4 46.5,48.5 C46.5,46.24 41.46,43.85 33.41,42.92 L33.41,42.92 Z M26,50.5 C29.5869592,50.4930286 32.4930286,47.5869592 32.5,44 C32.496314,43.5966935 32.452769,43.1947391 32.37,42.8 C30.41,42.61 28.27,42.5 26,42.5 C23.73,42.5 21.59,42.61 19.63,42.8 C19.547231,43.1947391 19.503686,43.5966935 19.5,44 C19.5069714,47.5869592 22.4130408,50.4930286 26,50.5 Z M33.41,42.92 C33.4648158,43.2775002 33.4948873,43.6383579 33.5,44 C33.5,48.1421356 30.1421356,51.5 26,51.5 C21.8578644,51.5 18.5,48.1421356 18.5,44 C18.5051127,43.6383579 18.5351842,43.2775002 18.59,42.92 C10.54,43.85 5.5,46.24 5.5,48.5 C5.5,51.4 13.73,54.49 25.97,54.5 L26,54.5 C38.26,54.5 46.5,51.4 46.5,48.5 C46.5,46.24 41.46,43.85 33.41,42.92 Z M26,50.5 C29.5869592,50.4930286 32.4930286,47.5869592 32.5,44 C32.496314,43.5966935 32.452769,43.1947391 32.37,42.8 C30.41,42.61 28.27,42.5 26,42.5 C23.73,42.5 21.59,42.61 19.63,42.8 C19.547231,43.1947391 19.503686,43.5966935 19.5,44 C19.5069714,47.5869592 22.4130408,50.4930286 26,50.5 Z M33.41,42.92 C33.4648158,43.2775002 33.4948873,43.6383579 33.5,44 C33.5,48.1421356 30.1421356,51.5 26,51.5 C21.8578644,51.5 18.5,48.1421356 18.5,44 C18.5051127,43.6383579 18.5351842,43.2775002 18.59,42.92 C10.54,43.85 5.5,46.24 5.5,48.5 C5.5,51.4 13.73,54.49 25.97,54.5 L26,54.5 C38.26,54.5 46.5,51.4 46.5,48.5 C46.5,46.24 41.46,43.85 33.41,42.92 Z M45.6,42.92 C42.1126468,41.000488 39.9615275,37.3205375 40,33.34 L40,23 C39.9821164,15.2676268 33.7123909,9.00684523 25.98,9 C25.65,9 25.33,9.01 25,9.03 C20.546452,9.3763039 16.5295289,11.8385289 14.2,15.65 L14.17,15.71 C13.6122382,16.6192243 13.1593466,17.5887478 12.82,18.6 C12.81,18.62 12.81,18.64 12.8,18.65 C12.2732288,20.1783863 12.0029133,21.783385 12,23.4 L12,33.34 C12.0384725,37.3205375 9.88735317,41.000488 6.4,42.92 C3.56,44.45 2,46.25 2,48 C2,52.35 11.64,57 26,57 C40.36,57 50,52.35 50,48 C50,46.25 48.44,44.45 45.6,42.92 Z M25.14,11.03 C28.4622916,10.7964643 31.7325123,11.9521428 34.1703709,14.2212849 C36.6082295,16.490427 37.9950753,19.6695142 38,23 C38,23.5522847 37.5522847,24 37,24 C36.4477153,24 36,23.5522847 36,23 C35.9934674,20.2243555 34.8367347,17.5755796 32.8051864,15.6842687 C30.7736381,13.7929579 28.0490256,12.8283174 25.28,13.02 C24.9235377,13.0467397 24.5800192,12.8806866 24.379545,12.5847298 C24.1790707,12.288773 24.1522943,11.9081661 24.3093568,11.587056 C24.4664194,11.2659459 24.7833051,11.0534322 25.14,11.03 L25.14,11.03 Z M17.16,38.06 C23.0301244,37.32001 28.9699356,37.32001 34.84006,38.06 C34.9713778,38.0771609 35.0904856,38.1458256 35.1711416,38.2508659 C35.2517976,38.3559063 35.2873838,38.4887036 35.27006,38.62 C35.2327991,38.8673335 35.0201844,39.0501821 34.77006,39.05 L34.71006,39.05 C28.9263353,38.3200233 23.0737847,38.3200233 17.29006,39.05 C17.0183879,39.0796651 16.7715394,38.8901207 16.73006,38.62 C16.7127353,38.4887127 16.7483135,38.3559236 16.8289569,38.2508849 C16.9096004,38.1458462 17.0286931,38.0771754 17.16,38.06 L17.16,38.06 Z M26,55.5 C15.43,55.5 4.5,52.88 4.5,48.5 C4.5,45.09 11.14,42.74 19.07,41.87 C19.1128558,41.8620641 19.1564346,41.8587119 19.2,41.86 C23.7172853,41.3800109 28.2727147,41.3800109 32.79,41.86 C32.8368955,41.8579722 32.8838688,41.8613275 32.93,41.87 C40.86,42.74 47.5,45.09 47.5,48.5 C47.5,52.88 36.57,55.5 26,55.5 Z M33.41,42.92 C33.4648158,43.2775002 33.4948873,43.6383579 33.5,44 C33.5,48.1421356 30.1421356,51.5 26,51.5 C21.8578644,51.5 18.5,48.1421356 18.5,44 C18.5051127,43.6383579 18.5351842,43.2775002 18.59,42.92 C10.54,43.85 5.5,46.24 5.5,48.5 C5.5,51.4 13.73,54.49 25.97,54.5 L26,54.5 C38.26,54.5 46.5,51.4 46.5,48.5 C46.5,46.24 41.46,43.85 33.41,42.92 Z M32.37,42.8 C30.41,42.61 28.27,42.5 26,42.5 C23.73,42.5 21.59,42.61 19.63,42.8 C19.547231,43.1947391 19.503686,43.5966935 19.5,44 C19.5,47.5898509 22.4101491,50.5 26,50.5 C29.5898509,50.5 32.5,47.5898509 32.5,44 C32.496314,43.5966935 32.452769,43.1947391 32.37,42.8 L32.37,42.8 Z M33.41,42.92 C33.4648158,43.2775002 33.4948873,43.6383579 33.5,44 C33.5,48.1421356 30.1421356,51.5 26,51.5 C21.8578644,51.5 18.5,48.1421356 18.5,44 C18.5051127,43.6383579 18.5351842,43.2775002 18.59,42.92 C10.54,43.85 5.5,46.24 5.5,48.5 C5.5,51.4 13.73,54.49 25.97,54.5 L26,54.5 C38.26,54.5 46.5,51.4 46.5,48.5 C46.5,46.24 41.46,43.85 33.41,42.92 Z M32.37,42.8 C30.41,42.61 28.27,42.5 26,42.5 C23.73,42.5 21.59,42.61 19.63,42.8 C19.547231,43.1947391 19.503686,43.5966935 19.5,44 C19.5,47.5898509 22.4101491,50.5 26,50.5 C29.5898509,50.5 32.5,47.5898509 32.5,44 C32.496314,43.5966935 32.452769,43.1947391 32.37,42.8 L32.37,42.8 Z M33.41,42.92 C33.4648158,43.2775002 33.4948873,43.6383579 33.5,44 C33.5,48.1421356 30.1421356,51.5 26,51.5 C21.8578644,51.5 18.5,48.1421356 18.5,44 C18.5051127,43.6383579 18.5351842,43.2775002 18.59,42.92 C10.54,43.85 5.5,46.24 5.5,48.5 C5.5,51.4 13.73,54.49 25.97,54.5 L26,54.5 C38.26,54.5 46.5,51.4 46.5,48.5 C46.5,46.24 41.46,43.85 33.41,42.92 Z M32.37,42.8 C30.41,42.61 28.27,42.5 26,42.5 C23.73,42.5 21.59,42.61 19.63,42.8 C19.547231,43.1947391 19.503686,43.5966935 19.5,44 C19.5,47.5898509 22.4101491,50.5 26,50.5 C29.5898509,50.5 32.5,47.5898509 32.5,44 C32.496314,43.5966935 32.452769,43.1947391 32.37,42.8 L32.37,42.8 Z M33.41,42.92 C33.4648158,43.2775002 33.4948873,43.6383579 33.5,44 C33.5,48.1421356 30.1421356,51.5 26,51.5 C21.8578644,51.5 18.5,48.1421356 18.5,44 C18.5051127,43.6383579 18.5351842,43.2775002 18.59,42.92 C10.54,43.85 5.5,46.24 5.5,48.5 C5.5,51.4 13.73,54.49 25.97,54.5 L26,54.5 C38.26,54.5 46.5,51.4 46.5,48.5 C46.5,46.24 41.46,43.85 33.41,42.92 Z M32.37,42.8 C30.41,42.61 28.27,42.5 26,42.5 C23.73,42.5 21.59,42.61 19.63,42.8 C19.547231,43.1947391 19.503686,43.5966935 19.5,44 C19.5,47.5898509 22.4101491,50.5 26,50.5 C29.5898509,50.5 32.5,47.5898509 32.5,44 C32.496314,43.5966935 32.452769,43.1947391 32.37,42.8 L32.37,42.8 Z M33.41,42.92 C33.4648158,43.2775002 33.4948873,43.6383579 33.5,44 C33.5,48.1421356 30.1421356,51.5 26,51.5 C21.8578644,51.5 18.5,48.1421356 18.5,44 C18.5051127,43.6383579 18.5351842,43.2775002 18.59,42.92 C10.54,43.85 5.5,46.24 5.5,48.5 C5.5,51.4 13.73,54.49 25.97,54.5 L26,54.5 C38.26,54.5 46.5,51.4 46.5,48.5 C46.5,46.24 41.46,43.85 33.41,42.92 Z M32.37,42.8 C30.41,42.61 28.27,42.5 26,42.5 C23.73,42.5 21.59,42.61 19.63,42.8 C19.547231,43.1947391 19.503686,43.5966935 19.5,44 C19.5,47.5898509 22.4101491,50.5 26,50.5 C29.5898509,50.5 32.5,47.5898509 32.5,44 C32.496314,43.5966935 32.452769,43.1947391 32.37,42.8 L32.37,42.8 Z M9.54,21.15 C7.00444483,22.763922 4.00139614,23.4821189 1.01,23.19 C0.99,23.67 1,24.15 1.02,24.63 C1.05293114,25.8053446 1.25155606,26.9701619 1.61,28.09 C1.99720514,29.1729075 2.6147414,30.1589184 3.42,30.98 C3.78975332,31.4224945 4.25010454,31.7805454 4.77,32.03 C5.11077541,32.1281805 5.47325133,32.1212098 5.81,32.01 C6.50058287,31.7653279 7.12162346,31.3570195 7.62,30.82 C8.53493882,29.9117348 9.33431156,28.894046 10,27.79 L10,23.4 C10.0053763,22.4953443 10.0822827,21.5925303 10.23,20.7 C10,20.85 9.78,21.01 9.54,21.15 Z M21,4 C21.0059698,3.461534 21.1005687,2.92772599 21.28,2.42 C16.68,0.93 10.99,0.14 8.71,2.46 C6.69,4.52 9.7,9.55 13.18,13.61 C15.4096063,10.5167717 18.6733474,8.32438907 22.38,7.43 C21.4950976,6.5072733 21.0007088,5.27846639 21,4 L21,4 Z M18.6,5.56 C17.6197769,6.18473279 16.5194252,6.59693886 15.37,6.77 C14.7718272,6.90173439 14.1623331,6.97540951 13.55,6.99 C12.980787,7.00789486 12.4163906,6.88056153 11.91,6.62 C11.4604061,6.39417896 11.1529016,5.95917254 11.09,5.46 C10.9720276,4.78423194 11.2190655,4.09632637 11.74,3.65 C11.8190617,3.58519557 11.9065201,3.53137501 12,3.49 C12.9753599,3.09412323 14.032809,2.94305909 15.08,3.05 C16.1075789,3.09393949 17.127129,3.2515673 18.12,3.52 C18.43,3.59 19.16,3.78 19.27,4.42 C19.36,5.01 18.83,5.39 18.6,5.56 Z M26,1 C24.3431458,1 23,2.34314575 23,4 C23,5.65685425 24.3431458,7 26,7 C27.6568542,7 29,5.65685425 29,4 C28.9951725,2.3451495 27.6548505,1.00482753 26,1 L26,1 Z M26,1 C24.3431458,1 23,2.34314575 23,4 C23,5.65685425 24.3431458,7 26,7 C27.6568542,7 29,5.65685425 29,4 C28.9951725,2.3451495 27.6548505,1.00482753 26,1 L26,1 Z M26,1 C24.3431458,1 23,2.34314575 23,4 C23,5.65685425 24.3431458,7 26,7 C27.6568542,7 29,5.65685425 29,4 C28.9951725,2.3451495 27.6548505,1.00482753 26,1 L26,1 Z M26,1 C24.3431458,1 23,2.34314575 23,4 C23,5.65685425 24.3431458,7 26,7 C27.6568542,7 29,5.65685425 29,4 C28.9951725,2.3451495 27.6548505,1.00482753 26,1 L26,1 Z M43.42,2.46 C41.12,0.12 35.35,0.95 30.73,2.46 C30.9013121,2.95571147 30.9924571,3.47557574 31,4 C30.9992912,5.27846639 30.5049024,6.5072733 29.62,7.43 C32.5306169,8.10463017 35.1943821,9.58026603 37.31,11.69 C37.9020119,12.2941524 38.4469354,12.9427115 38.94,13.63 C42.43,9.56 45.44,4.52 43.42,2.46 Z M40.93,5.46 C40.8671104,5.95917718 40.5596023,6.39418868 40.11,6.62 C39.603229,6.87951317 39.0391065,7.00678472 38.47,6.99 C37.857624,6.9760059 37.2480724,6.90232383 36.65,6.77 C35.5005768,6.59693106 34.4002267,6.18472559 33.42,5.56 C33.19,5.39 32.66,5.01 32.75,4.42 C32.86,3.77 33.59,3.59 33.9,3.51 C34.8941563,3.24930938 35.9132227,3.09510855 36.94,3.05 C37.9862701,2.9455183 39.0423517,3.09295827 40.02,3.48 C40.1117611,3.52846409 40.1988044,3.585377 40.28,3.65 C40.8009345,4.09632637 41.0479724,4.78423194 40.93,5.46 L40.93,5.46 Z M26,1 C24.3431458,1 23,2.34314575 23,4 C23,5.65685425 24.3431458,7 26,7 C27.6568542,7 29,5.65685425 29,4 C28.9951725,2.3451495 27.6548505,1.00482753 26,1 L26,1 Z M26,1 C24.3431458,1 23,2.34314575 23,4 C23,5.65685425 24.3431458,7 26,7 C27.6568542,7 29,5.65685425 29,4 C28.9951725,2.3451495 27.6548505,1.00482753 26,1 L26,1 Z M26,1 C24.3431458,1 23,2.34314575 23,4 C23,5.65685425 24.3431458,7 26,7 C27.6568542,7 29,5.65685425 29,4 C28.9951725,2.3451495 27.6548505,1.00482753 26,1 L26,1 Z M26,1 C24.3431458,1 23,2.34314575 23,4 C23,5.65685425 24.3431458,7 26,7 C27.6568542,7 29,5.65685425 29,4 C28.9951725,2.3451495 27.6548505,1.00482753 26,1 L26,1 Z" id="Shape"/></g></g></svg>