<?xml version="1.0" ?><svg height="56px" version="1.1" viewBox="0 0 47 56" width="47px" xmlns="http://www.w3.org/2000/svg" xmlns:xlink="http://www.w3.org/1999/xlink"><title/><desc/><defs/><g fill="none" fill-rule="evenodd" id="Page-1" stroke="none" stroke-width="1"><g fill="#000000" fill-rule="nonzero" id="012---Tired-Santa"><path d="M31.41,31.5 C31.4658089,31.6609749 31.4961737,31.8296682 31.5,32 C31.5,32.8284271 30.8284271,33.5 30,33.5 C29.1715729,33.5 28.5,32.8284271 28.5,32 C28.5038263,31.8296682 28.5341911,31.6609749 28.59,31.5 L26.55,31.5 C26.7912461,33.2202585 28.2629079,34.499938 30,34.499938 C31.7370921,34.499938 33.2087539,33.2202585 33.45,31.5 L31.41,31.5 Z M30,31.5 C29.7238576,31.5 29.5,31.7238576 29.5,32 C29.5,32.2761424 29.7238576,32.5 30,32.5 C30.2761424,32.5 30.5,32.2761424 30.5,32 C30.5013203,31.8669914 30.4490659,31.7390459 30.35501,31.64499 C30.2609541,31.5509341 30.1330086,31.4986797 30,31.5 L30,31.5 Z M30,27.5 C28.2654262,27.5067727 26.7975682,28.7831709 26.55,30.5 L33.45,30.5 C33.2024318,28.7831709 31.7345738,27.5067727 30,27.5 L30,27.5 Z M42.51,26 C42.8,27.31 43.05,28.67 43.23,30.14 C43.34005,31.07 43.41,31.97 43.47,32.84 C45.1429942,32.362652 46.2081503,30.7251431 45.9663432,29.0022676 C45.7245361,27.2793921 44.2497609,25.9983649 42.51,26 L42.51,26 Z M30,27.5 C28.2654262,27.5067727 26.7975682,28.7831709 26.55,30.5 L33.45,30.5 C33.2024318,28.7831709 31.7345738,27.5067727 30,27.5 L30,27.5 Z M30.5,32 C30.5,31.7238576 30.2761424,31.5 30,31.5 C29.7238576,31.5 29.5,31.7238576 29.5,32 C29.5,32.2761424 29.7238576,32.5 30,32.5 C30.1330086,32.5013203 30.2609541,32.4490659 30.35501,32.35501 C30.4490659,32.2609541 30.5013203,32.1330086 30.5,32 L30.5,32 Z M31.5,32 C31.5,32.8284271 30.8284271,33.5 30,33.5 C29.1715729,33.5 28.5,32.8284271 28.5,32 C28.5038263,31.8296682 28.5341911,31.6609749 28.59,31.5 L26.55,31.5 C26.7912461,33.2202585 28.2629079,34.499938 30,34.499938 C31.7370921,34.499938 33.2087539,33.2202585 33.45,31.5 L31.41,31.5 C31.4658089,31.6609749 31.4961737,31.8296682 31.5,32 Z M30,31.5 C29.7238576,31.5 29.5,31.7238576 29.5,32 C29.5,32.2761424 29.7238576,32.5 30,32.5 C30.2761424,32.5 30.5,32.2761424 30.5,32 C30.5013203,31.8669914 30.4490659,31.7390459 30.35501,31.64499 C30.2609541,31.5509341 30.1330086,31.4986797 30,31.5 L30,31.5 Z M30,27.5 C28.2654262,27.5067727 26.7975682,28.7831709 26.55,30.5 L33.45,30.5 C33.2024318,28.7831709 31.7345738,27.5067727 30,27.5 L30,27.5 Z M31.41,31.5 C31.4658089,31.6609749 31.4961737,31.8296682 31.5,32 C31.5,32.8284271 30.8284271,33.5 30,33.5 C29.1715729,33.5 28.5,32.8284271 28.5,32 C28.5038263,31.8296682 28.5341911,31.6609749 28.59,31.5 L26.55,31.5 C26.7912461,33.2202585 28.2629079,34.499938 30,34.499938 C31.7370921,34.499938 33.2087539,33.2202585 33.45,31.5 L31.41,31.5 Z M30,31.5 C29.7238576,31.5 29.5,31.7238576 29.5,32 C29.5,32.2761424 29.7238576,32.5 30,32.5 C30.2761424,32.5 30.5,32.2761424 30.5,32 C30.5013203,31.8669914 30.4490659,31.7390459 30.35501,31.64499 C30.2609541,31.5509341 30.1330086,31.4986797 30,31.5 L30,31.5 Z M30,31.5 C29.7238576,31.5 29.5,31.7238576 29.5,32 C29.5,32.2761424 29.7238576,32.5 30,32.5 C30.2761424,32.5 30.5,32.2761424 30.5,32 C30.5013203,31.8669914 30.4490659,31.7390459 30.35501,31.64499 C30.2609541,31.5509341 30.1330086,31.4986797 30,31.5 L30,31.5 Z M30,27.5 C28.2654262,27.5067727 26.7975682,28.7831709 26.55,30.5 L33.45,30.5 C33.2024318,28.7831709 31.7345738,27.5067727 30,27.5 L30,27.5 Z M31.41,31.5 C31.4658089,31.6609749 31.4961737,31.8296682 31.5,32 C31.5,32.8284271 30.8284271,33.5 30,33.5 C29.1715729,33.5 28.5,32.8284271 28.5,32 C28.5038263,31.8296682 28.5341911,31.6609749 28.59,31.5 L26.55,31.5 C26.7912461,33.2202585 28.2629079,34.499938 30,34.499938 C31.7370921,34.499938 33.2087539,33.2202585 33.45,31.5 L31.41,31.5 Z M30,31.5 C29.7238576,31.5 29.5,31.7238576 29.5,32 C29.5,32.2761424 29.7238576,32.5 30,32.5 C30.2761424,32.5 30.5,32.2761424 30.5,32 C30.5013203,31.8669914 30.4490659,31.7390459 30.35501,31.64499 C30.2609541,31.5509341 30.1330086,31.4986797 30,31.5 L30,31.5 Z M27.53,46.29 C27.3793373,46.064361 27.185639,45.8706627 26.96,45.72 C26.3400606,45.4040377 25.6299311,45.3121802 24.95,45.46 C24.5740034,45.5219568 24.2053906,45.6224875 23.85,45.76 C23.7,45.81 23.55,45.87 23.4,45.91 L20.17,46.95 C19.6189747,47.1008797 19.0806524,47.2948095 18.56,47.53 C18.43,47.59 18,47.81 18,48 C18,48.59 18.94,49.1 19.29,49.27 C19.44,49.32005 19.58,49.38 19.72,49.44 C19.89,49.5 20.05,49.57 20.21005,49.61 C21.2523428,49.8613741 22.3182348,50.0021522 23.39005,50.03 C23.67005,50.05 23.96005,50.07 24.25005,50.09 C25.0209361,50.1676456 25.7969455,50.1810251 26.57005,50.13 C27.0320379,50.1357468 27.4637984,49.9009296 27.71005,49.51 C27.9416254,49.0491247 28.045231,48.5345328 28.01005,48.01995 C28.0124825,47.410084 27.8463529,46.811405 27.53,46.29 L27.53,46.29 Z M16,27.5 C14.2654262,27.5067727 12.7975682,28.7831709 12.55,30.5 L19.45,30.5 C19.2024318,28.7831709 17.7345738,27.5067727 16,27.5 L16,27.5 Z M16,31.5 C15.7238576,31.5 15.5,31.7238576 15.5,32 C15.5,32.2761424 15.7238576,32.5 16,32.5 C16.2761424,32.5 16.5,32.2761424 16.5,32 C16.5013203,31.8669914 16.4490659,31.7390459 16.35501,31.64499 C16.2609541,31.5509341 16.1330086,31.4986797 16,31.5 Z M17.41,31.5 C17.4658089,31.6609749 17.4961737,31.8296682 17.5,32 C17.5,32.8284271 16.8284271,33.5 16,33.5 C15.1715729,33.5 14.5,32.8284271 14.5,32 C14.5038263,31.8296682 14.5341911,31.6609749 14.59,31.5 L12.55,31.5 C12.7912461,33.2202585 14.2629079,34.499938 16,34.499938 C17.7370921,34.499938 19.2087539,33.2202585 19.45,31.5 L17.41,31.5 Z M30,27.5 C28.2654262,27.5067727 26.7975682,28.7831709 26.55,30.5 L33.45,30.5 C33.2024318,28.7831709 31.7345738,27.5067727 30,27.5 L30,27.5 Z M29.5,32 C29.5,32.2761424 29.7238576,32.5 30,32.5 C30.2761424,32.5 30.5,32.2761424 30.5,32 C30.5,31.7238576 30.2761424,31.5 30,31.5 C29.8669939,31.498688 29.7390532,31.5509449 29.6449991,31.6449991 C29.5509449,31.7390532 29.498688,31.8669939 29.5,32 L29.5,32 Z M30,34.5 C31.7345738,34.4932273 33.2024318,33.2168291 33.45,31.5 L31.41,31.5 C31.4658089,31.6609749 31.4961737,31.8296682 31.5,32 C31.5,32.8284271 30.8284271,33.5 30,33.5 C29.1715729,33.5 28.5,32.8284271 28.5,32 C28.5038263,31.8296682 28.5341911,31.6609749 28.59,31.5 L26.55,31.5 C26.7975682,33.2168291 28.2654262,34.4932273 30,34.5 L30,34.5 Z M15.5,32 C15.5,32.2761424 15.7238576,32.5 16,32.5 C16.2761424,32.5 16.5,32.2761424 16.5,32 C16.5,31.7238576 16.2761424,31.5 16,31.5 C15.8669939,31.498688 15.7390532,31.5509449 15.6449991,31.6449991 C15.5509449,31.7390532 15.498688,31.8669939 15.5,32 Z M16,27.5 C14.2654262,27.5067727 12.7975682,28.7831709 12.55,30.5 L19.45,30.5 C19.2024318,28.7831709 17.7345738,27.5067727 16,27.5 L16,27.5 Z M16,34.5 C17.7345738,34.4932273 19.2024318,33.2168291 19.45,31.5 L17.41,31.5 C17.4658089,31.6609749 17.4961737,31.8296682 17.5,32 C17.5,32.8284271 16.8284271,33.5 16,33.5 C15.1715729,33.5 14.5,32.8284271 14.5,32 C14.5038263,31.8296682 14.5341911,31.6609749 14.59,31.5 L12.55,31.5 C12.7975682,33.2168291 14.2654262,34.4932273 16,34.5 Z M31.49,21 L14.48,21 C9.42,24.89 7.98,31.2 7.6,35.21 C7.63487755,35.2390437 7.67162314,35.2657678 7.71,35.29 C7.75,35.33 7.79,35.39 7.83,35.43 C7.83029988,35.4456656 7.83764748,35.4603608 7.85,35.47 C9.06,37.21 14.07,36.66 16.53005,36.08 C16.6784359,35.8229335 16.8526721,35.5816834 17.05005,35.36 C16.7075867,35.4520109 16.3546072,35.4990726 16,35.5 C13.8312221,35.5100492 11.9608512,33.9785824 11.5428256,31.8504487 C11.1248001,29.722315 12.2769049,27.5971486 14.288341,26.7860856 C16.2997771,25.9750227 18.6037917,26.7065926 19.778907,28.5294482 C20.9540222,30.3523038 20.6691315,32.7528277 19.1,34.25 C19.2976473,34.3145021 19.469405,34.4406785 19.59005,34.61 C19.7391654,34.8299526 19.7945036,35.1002515 19.7438243,35.3611081 C19.6931449,35.6219647 19.5406246,35.8518807 19.32,36 C18.7773464,36.3297909 18.3536018,36.823576 18.11,37.41 C18.0406407,37.5991433 18.0034594,37.7985702 18,38 C18.0908901,38.8408272 18.5826125,39.5858611 19.32,40 C21.5957512,41.3333402 24.4142488,41.3333402 26.69,40 C27.421705,39.5815355 27.9087467,38.8379604 28,38 C27.999266,37.8015517 27.961977,37.6049367 27.89,37.42 C27.6486558,36.8326309 27.2288969,36.3359162 26.69,36 C26.468175,35.8555317 26.3136136,35.6280779 26.2609746,35.3686428 C26.2083356,35.1092078 26.2620238,34.8395004 26.41,34.62 C26.5271321,34.4451246 26.6997404,34.3147877 26.9,34.25 C25.2277734,32.6704227 24.98704,30.0953788 26.3375084,28.2332184 C27.6879768,26.3710581 30.2103912,25.7998931 32.2313171,26.8986489 C34.252243,27.9974048 35.1442797,30.4249703 34.3156269,32.5708363 C33.4869742,34.7167023 31.1948892,35.9146799 28.96,35.37 C29.1566826,35.5935598 29.3277458,35.8384149 29.47,36.1 C32.33,36.76 36.97,37.15 38.11,35.45 C38.1810189,35.3489835 38.2689835,35.2610189 38.37,35.19 C38,31.2 36.56,24.9 31.49,21 Z M18.15,23.67 C18.0300339,24.2084777 17.5003536,24.551212 16.96,24.44 C15.6871852,24.3038847 14.4088966,24.6421504 13.37,25.39 C13.2069455,25.4880728 13.0202763,25.5399254 12.83,25.54 C12.4893877,25.5418673 12.1718791,25.3679935 11.99,25.08 C11.6923892,24.6159685 11.8266009,23.9985946 12.29,23.7 C13.777781,22.6702346 15.5972713,22.234984 17.39,22.48 C17.9275718,22.6000361 18.2671855,23.1317996 18.15,23.67 L18.15,23.67 Z M33.71,25.71 C33.3156443,26.0966923 32.6843557,26.0966923 32.29,25.71 C31.4351599,24.7568734 30.2616396,24.1487765 28.99,24 C28.443734,23.9888935 28.0074807,23.5414482 28.0102126,22.9950761 C28.0129444,22.448704 28.4536502,22.0056434 29,22 C30.8010312,22.1478333 32.4813923,22.9648242 33.71,24.29 C34.0999779,24.6830079 34.0999779,25.3169921 33.71,25.71 L33.71,25.71 Z M17.41,31.5 C17.4658089,31.6609749 17.4961737,31.8296682 17.5,32 C17.5,32.8284271 16.8284271,33.5 16,33.5 C15.1715729,33.5 14.5,32.8284271 14.5,32 C14.5038263,31.8296682 14.5341911,31.6609749 14.59,31.5 L12.55,31.5 C12.7912461,33.2202585 14.2629079,34.499938 16,34.499938 C17.7370921,34.499938 19.2087539,33.2202585 19.45,31.5 L17.41,31.5 Z M16,27.5 C14.2654262,27.5067727 12.7975682,28.7831709 12.55,30.5 L19.45,30.5 C19.2024318,28.7831709 17.7345738,27.5067727 16,27.5 L16,27.5 Z M16,31.5 C15.7238576,31.5 15.5,31.7238576 15.5,32 C15.5,32.2761424 15.7238576,32.5 16,32.5 C16.2761424,32.5 16.5,32.2761424 16.5,32 C16.5013203,31.8669914 16.4490659,31.7390459 16.35501,31.64499 C16.2609541,31.5509341 16.1330086,31.4986797 16,31.5 Z M31.41,31.5 C31.4658089,31.6609749 31.4961737,31.8296682 31.5,32 C31.5,32.8284271 30.8284271,33.5 30,33.5 C29.1715729,33.5 28.5,32.8284271 28.5,32 C28.5038263,31.8296682 28.5341911,31.6609749 28.59,31.5 L26.55,31.5 C26.7912461,33.2202585 28.2629079,34.499938 30,34.499938 C31.7370921,34.499938 33.2087539,33.2202585 33.45,31.5 L31.41,31.5 Z M30,31.5 C29.7238576,31.5 29.5,31.7238576 29.5,32 C29.5,32.2761424 29.7238576,32.5 30,32.5 C30.2761424,32.5 30.5,32.2761424 30.5,32 C30.5013203,31.8669914 30.4490659,31.7390459 30.35501,31.64499 C30.2609541,31.5509341 30.1330086,31.4986797 30,31.5 L30,31.5 Z M30,27.5 C28.2654262,27.5067727 26.7975682,28.7831709 26.55,30.5 L33.45,30.5 C33.2024318,28.7831709 31.7345738,27.5067727 30,27.5 L30,27.5 Z M27.53,46.29 C27.3793373,46.064361 27.185639,45.8706627 26.96,45.72 C26.3400606,45.4040377 25.6299311,45.3121802 24.95,45.46 C24.5740034,45.5219568 24.2053906,45.6224875 23.85,45.76 C23.7,45.81 23.55,45.87 23.4,45.91 L20.17,46.95 C19.6189747,47.1008797 19.0806524,47.2948095 18.56,47.53 C18.43,47.59 18,47.81 18,48 C18,48.59 18.94,49.1 19.29,49.27 C19.44,49.32005 19.58,49.38 19.72,49.44 C19.89,49.5 20.05,49.57 20.21005,49.61 C21.2523428,49.8613741 22.3182348,50.0021522 23.39005,50.03 C23.67005,50.05 23.96005,50.07 24.25005,50.09 C25.0209361,50.1676456 25.7969455,50.1810251 26.57005,50.13 C27.0320379,50.1357468 27.4637984,49.9009296 27.71005,49.51 C27.9416254,49.0491247 28.045231,48.5345328 28.01005,48.01995 C28.0124825,47.410084 27.8463529,46.811405 27.53,46.29 L27.53,46.29 Z M30,27.5 C28.2654262,27.5067727 26.7975682,28.7831709 26.55,30.5 L33.45,30.5 C33.2024318,28.7831709 31.7345738,27.5067727 30,27.5 L30,27.5 Z M29.5,32 C29.5,32.2761424 29.7238576,32.5 30,32.5 C30.2761424,32.5 30.5,32.2761424 30.5,32 C30.5,31.7238576 30.2761424,31.5 30,31.5 C29.8669939,31.498688 29.7390532,31.5509449 29.6449991,31.6449991 C29.5509449,31.7390532 29.498688,31.8669939 29.5,32 L29.5,32 Z M30,34.5 C31.7345738,34.4932273 33.2024318,33.2168291 33.45,31.5 L31.41,31.5 C31.4658089,31.6609749 31.4961737,31.8296682 31.5,32 C31.5,32.8284271 30.8284271,33.5 30,33.5 C29.1715729,33.5 28.5,32.8284271 28.5,32 C28.5038263,31.8296682 28.5341911,31.6609749 28.59,31.5 L26.55,31.5 C26.7975682,33.2168291 28.2654262,34.4932273 30,34.5 L30,34.5 Z M26.96,45.72 C26.3400606,45.4040377 25.6299311,45.3121802 24.95,45.46 C24.5740034,45.5219568 24.2053906,45.6224875 23.85,45.76 C23.7,45.81 23.55,45.87 23.4,45.91 L20.17,46.95 C19.6189747,47.1008797 19.0806524,47.2948095 18.56,47.53 C18.43,47.59 18,47.81 18,48 C18,48.59 18.94,49.1 19.29,49.27 C19.44,49.32005 19.58,49.38 19.72,49.44 C19.89,49.5 20.05,49.57 20.21005,49.61 C21.2523428,49.8613741 22.3182348,50.0021522 23.39005,50.03 C23.67005,50.05 23.96005,50.07 24.25005,50.09 C25.0209361,50.1676456 25.7969455,50.1810251 26.57005,50.13 C27.0320379,50.1357468 27.4637984,49.9009296 27.71005,49.51 C27.9416254,49.0491247 28.045231,48.5345328 28.01005,48.01995 C28.0125068,47.4100719 27.8463943,46.8113747 27.53005,46.28995 C27.3793675,46.0643242 27.1856522,45.8706429 26.96,45.72 Z M15.5,32 C15.5,32.2761424 15.7238576,32.5 16,32.5 C16.2761424,32.5 16.5,32.2761424 16.5,32 C16.5,31.7238576 16.2761424,31.5 16,31.5 C15.8669939,31.498688 15.7390532,31.5509449 15.6449991,31.6449991 C15.5509449,31.7390532 15.498688,31.8669939 15.5,32 Z M16,27.5 C14.2654262,27.5067727 12.7975682,28.7831709 12.55,30.5 L19.45,30.5 C19.2024318,28.7831709 17.7345738,27.5067727 16,27.5 L16,27.5 Z M16,34.5 C17.7345738,34.4932273 19.2024318,33.2168291 19.45,31.5 L17.41,31.5 C17.4658089,31.6609749 17.4961737,31.8296682 17.5,32 C17.5,32.8284271 16.8284271,33.5 16,33.5 C15.1715729,33.5 14.5,32.8284271 14.5,32 C14.5038263,31.8296682 14.5341911,31.6609749 14.59,31.5 L12.55,31.5 C12.7975682,33.2168291 14.2654262,34.4932273 16,34.5 Z M7.6,35.21 C7.63487755,35.2390437 7.67162314,35.2657678 7.71,35.29 C7.75,35.33 7.79,35.39 7.83,35.43 C7.83029988,35.4456656 7.83764748,35.4603608 7.85,35.47 C9.06,37.21 14.07,36.66 16.53005,36.08 C16.6784359,35.8229335 16.8526721,35.5816834 17.05005,35.36 C16.7075867,35.4520109 16.3546072,35.4990726 16,35.5 C13.8312221,35.5100492 11.9608512,33.9785824 11.5428256,31.8504487 C11.1248001,29.722315 12.2769049,27.5971486 14.288341,26.7860856 C16.2997771,25.9750227 18.6037917,26.7065926 19.778907,28.5294482 C20.9540222,30.3523038 20.6691315,32.7528277 19.1,34.25 C19.2976473,34.3145021 19.469405,34.4406785 19.59005,34.61 C19.7391654,34.8299526 19.7945036,35.1002515 19.7438243,35.3611081 C19.6931449,35.6219647 19.5406246,35.8518807 19.32,36 C18.7773464,36.3297909 18.3536018,36.823576 18.11,37.41 C18.0406407,37.5991433 18.0034594,37.7985702 18,38 C18.0908901,38.8408272 18.5826125,39.5858611 19.32,40 C21.5957512,41.3333402 24.4142488,41.3333402 26.69,40 C27.421705,39.5815355 27.9087467,38.8379604 28,38 C27.999266,37.8015517 27.961977,37.6049367 27.89,37.42 C27.6486558,36.8326309 27.2288969,36.3359162 26.69,36 C26.468175,35.8555317 26.3136136,35.6280779 26.2609746,35.3686428 C26.2083356,35.1092078 26.2620238,34.8395004 26.41,34.62 C26.5271321,34.4451246 26.6997404,34.3147877 26.9,34.25 C25.2277734,32.6704227 24.98704,30.0953788 26.3375084,28.2332184 C27.6879768,26.3710581 30.2103912,25.7998931 32.2313171,26.8986489 C34.252243,27.9974048 35.1442797,30.4249703 34.3156269,32.5708363 C33.4869742,34.7167023 31.1948892,35.9146799 28.96,35.37 C29.1566826,35.5935598 29.3277458,35.8384149 29.47,36.1 C32.33,36.76 36.97,37.15 38.11,35.45 C38.1810189,35.3489835 38.2689835,35.2610189 38.37,35.19 C38,31.2 36.56,24.9 31.49,21 L14.48,21 C9.42,24.89 7.98,31.2 7.6,35.21 Z M29,22 C30.8010312,22.1478333 32.4813923,22.9648242 33.71,24.29 C34.0999779,24.6830079 34.0999779,25.3169921 33.71,25.71 C33.3156443,26.0966923 32.6843557,26.0966923 32.29,25.71 C31.4351599,24.7568734 30.2616396,24.1487765 28.99,24 C28.443734,23.9888935 28.0074807,23.5414482 28.0102126,22.9950761 C28.0129444,22.448704 28.4536502,22.0056434 29,22 Z M17.39,22.48 C17.9278516,22.6018183 18.2665675,23.1348865 18.1483913,23.6735501 C18.0302151,24.2122137 17.4994509,24.5545287 16.96,24.44 C15.6871852,24.3038847 14.4088966,24.6421504 13.37,25.39 C13.2069455,25.4880728 13.0202763,25.5399254 12.83,25.54 C12.4893877,25.5418673 12.1718791,25.3679935 11.99,25.08 C11.6923892,24.6159685 11.8266009,23.9985946 12.29,23.7 C13.777781,22.6702346 15.5972713,22.234984 17.39,22.48 L17.39,22.48 Z M41.78,36.77 L41.55,34.08 C41.48,32.89 41.39,31.63 41.25,30.37 C41.0460528,28.696668 40.7421766,27.0370365 40.34,25.4 C40.3,25.23 40.27,25.1 40.22995,24.97 L40.19995,24.85 C40.07995,24.37 39.93995,23.88 39.78995,23.4 C38.6608244,22.8781677 37.7035474,22.0457378 37.03,21 L33.05,21 C37.65,25.14 39.01,31.21 39.37,35.12 C39.6530605,35.2461935 39.8604258,35.4979942 39.93,35.8 C39.93,35.8 39.96,35.96 39.98,36.21 C40.0066925,36.4758628 40.0100386,36.7435531 39.99,37.01 C39.9408568,37.8501953 39.7267865,38.6724969 39.36,39.43 C38.35,41.57 36.28,43.09 33.22,43.96 C33.1327776,43.9879424 33.0415774,44.0014535 32.95,44 C32.4518065,43.998947 32.0305529,43.6309609 31.9625661,43.1374271 C31.8945793,42.6438933 32.200647,42.175715 32.68,42.04 C35.16,41.33 36.8,40.17 37.56,38.57 C37.6319349,38.41354 37.6953608,38.2533063 37.75,38.09 C35.34,39.03 31.87,38.6 29.98,38.24 C29.8382201,39.6616954 29.0289446,40.9312927 27.8,41.66 C24.852997,43.4467195 21.157003,43.4467195 18.21,41.66 C16.9736681,40.9324869 16.159724,39.6576796 16.02,38.23 C14.14,38.59 10.64,39.04 8.2,38.09 C8.65,39.4 9.92,41.08 13.28,42.04 C13.7577444,42.1793421 14.0603279,42.6487726 13.9899495,43.1414214 C13.9195711,43.6340701 13.4976504,44 13,44 C12.9051897,44.0007712 12.810802,43.9872872 12.72,43.96 C7.29,42.4 6.17,39.11 5.98,37.28 C5.9394855,36.8474382 5.94283589,36.4118873 5.99,35.98 C5.99857165,35.9058803 6.01193293,35.8323933 6.03,35.76 C6.10703339,35.4609864 6.31719509,35.2139542 6.6,35.09 C6.98,31.17 8.34,25.13 12.92,21 L8,21 C7.89,21 7.78,20.98 7.67,20.97 C7.11904929,22.2606913 6.67749678,23.5953841 6.35,24.96 C5.89345196,26.7427752 5.55274017,28.5532241 5.33,30.38 C5.2,31.47 5.12,32.59 5.05,33.68 C5.01,34.2 4.98,34.72 4.94,35.24 C4.92,35.45 4.9,35.64 4.89,35.84 L4.81,36.63 C4.67067277,37.7649194 4.59389007,38.9066447 4.58,40.05 C4.57345639,41.2410702 4.70432124,42.4289204 4.97,43.59 C5.56065784,46.329486 7.23422921,48.7136039 9.61,50.2 C10.1729698,50.5356581 10.7614482,50.8265536 11.37,51.07 C19.69,54.4 22.49,55.66 23.23,56 L23.35,56 C24.09005,55.66 26.89,54.4 35.21,51.07 C35.8205938,50.8271825 36.4093897,50.5327845 36.97,50.19 C39.3473184,48.7098627 41.0218542,46.3279798 41.61,43.59 C41.8751639,42.4322205 42.0060271,41.2477411 42,40.06 C42,38.98 41.89,37.86 41.78,36.77 Z M29.45,50.5 C28.8865675,51.4521827 27.884767,52.0600168 26.78,52.12 C26.45,52.15 26.11,52.16 25.78,52.16 C25.21,52.16 24.65,52.12 24.1,52.08 C23.83,52.06 23.55,52.04 23.28005,52.03 C22.077058,51.9890067 20.881147,51.828212 19.71005,51.55 C19.4583516,51.4783291 19.2112172,51.391504 18.97,51.29 C18.85,51.24 18.73,51.19 18.6,51.15 C18.563926,51.1394955 18.530048,51.1225565 18.5,51.1 C16.89,50.36 16,49.25 16,48 C16.0396844,46.9580923 16.7208803,46.0498312 17.71,45.72 C18.3160025,45.4482461 18.9409883,45.2209785 19.58,45.04 L22.79,44.01 C22.93,43.96 23.06,43.92 23.2,43.87 C23.6893729,43.6779659 24.1994928,43.5437238 24.72,43.47 C25.8472674,43.2666735 27.0101601,43.4610781 28.01,44.02 C28.4889532,44.3206113 28.8953577,44.7236007 29.2,45.2 C29.722963,46.0334484 30.0034443,46.9960876 30.01,47.98 C30.0521281,48.8549713 29.8587391,49.7252214 29.45,50.5 Z M30,27.5 C28.2654262,27.5067727 26.7975682,28.7831709 26.55,30.5 L33.45,30.5 C33.2024318,28.7831709 31.7345738,27.5067727 30,27.5 L30,27.5 Z M29.5,32 C29.5,32.2761424 29.7238576,32.5 30,32.5 C30.2761424,32.5 30.5,32.2761424 30.5,32 C30.5,31.7238576 30.2761424,31.5 30,31.5 C29.8669939,31.498688 29.7390532,31.5509449 29.6449991,31.6449991 C29.5509449,31.7390532 29.498688,31.8669939 29.5,32 L29.5,32 Z M30,34.5 C31.7345738,34.4932273 33.2024318,33.2168291 33.45,31.5 L31.41,31.5 C31.4658089,31.6609749 31.4961737,31.8296682 31.5,32 C31.5,32.8284271 30.8284271,33.5 30,33.5 C29.1715729,33.5 28.5,32.8284271 28.5,32 C28.5038263,31.8296682 28.5341911,31.6609749 28.59,31.5 L26.55,31.5 C26.7975682,33.2168291 28.2654262,34.4932273 30,34.5 L30,34.5 Z M15.5,32 C15.5,32.2761424 15.7238576,32.5 16,32.5 C16.2761424,32.5 16.5,32.2761424 16.5,32 C16.5,31.7238576 16.2761424,31.5 16,31.5 C15.8669939,31.498688 15.7390532,31.5509449 15.6449991,31.6449991 C15.5509449,31.7390532 15.498688,31.8669939 15.5,32 Z M16,27.5 C14.2654262,27.5067727 12.7975682,28.7831709 12.55,30.5 L19.45,30.5 C19.2024318,28.7831709 17.7345738,27.5067727 16,27.5 L16,27.5 Z M16,34.5 C17.7345738,34.4932273 19.2024318,33.2168291 19.45,31.5 L17.41,31.5 C17.4658089,31.6609749 17.4961737,31.8296682 17.5,32 C17.5,32.8284271 16.8284271,33.5 16,33.5 C15.1715729,33.5 14.5,32.8284271 14.5,32 C14.5038263,31.8296682 14.5341911,31.6609749 14.59,31.5 L12.55,31.5 C12.7975682,33.2168291 14.2654262,34.4932273 16,34.5 Z M31.49,21 L14.48,21 C9.42,24.89 7.98,31.2 7.6,35.21 C7.63487755,35.2390437 7.67162314,35.2657678 7.71,35.29 C7.75,35.33 7.79,35.39 7.83,35.43 C7.83029988,35.4456656 7.83764748,35.4603608 7.85,35.47 C9.06,37.21 14.07,36.66 16.53005,36.08 C16.6784359,35.8229335 16.8526721,35.5816834 17.05005,35.36 C16.7075867,35.4520109 16.3546072,35.4990726 16,35.5 C13.8312221,35.5100492 11.9608512,33.9785824 11.5428256,31.8504487 C11.1248001,29.722315 12.2769049,27.5971486 14.288341,26.7860856 C16.2997771,25.9750227 18.6037917,26.7065926 19.778907,28.5294482 C20.9540222,30.3523038 20.6691315,32.7528277 19.1,34.25 C19.2976473,34.3145021 19.469405,34.4406785 19.59005,34.61 C19.7391654,34.8299526 19.7945036,35.1002515 19.7438243,35.3611081 C19.6931449,35.6219647 19.5406246,35.8518807 19.32,36 C18.7773464,36.3297909 18.3536018,36.823576 18.11,37.41 C18.0406407,37.5991433 18.0034594,37.7985702 18,38 C18.0908901,38.8408272 18.5826125,39.5858611 19.32,40 C21.5957512,41.3333402 24.4142488,41.3333402 26.69,40 C27.421705,39.5815355 27.9087467,38.8379604 28,38 C27.999266,37.8015517 27.961977,37.6049367 27.89,37.42 C27.6486558,36.8326309 27.2288969,36.3359162 26.69,36 C26.468175,35.8555317 26.3136136,35.6280779 26.2609746,35.3686428 C26.2083356,35.1092078 26.2620238,34.8395004 26.41,34.62 C26.5271321,34.4451246 26.6997404,34.3147877 26.9,34.25 C25.2277734,32.6704227 24.98704,30.0953788 26.3375084,28.2332184 C27.6879768,26.3710581 30.2103912,25.7998931 32.2313171,26.8986489 C34.252243,27.9974048 35.1442797,30.4249703 34.3156269,32.5708363 C33.4869742,34.7167023 31.1948892,35.9146799 28.96,35.37 C29.1566826,35.5935598 29.3277458,35.8384149 29.47,36.1 C32.33,36.76 36.97,37.15 38.11,35.45 C38.1810189,35.3489835 38.2689835,35.2610189 38.37,35.19 C38,31.2 36.56,24.9 31.49,21 Z M18.15,23.67 C18.0300339,24.2084777 17.5003536,24.551212 16.96,24.44 C15.6871852,24.3038847 14.4088966,24.6421504 13.37,25.39 C13.2069455,25.4880728 13.0202763,25.5399254 12.83,25.54 C12.4893877,25.5418673 12.1718791,25.3679935 11.99,25.08 C11.6923892,24.6159685 11.8266009,23.9985946 12.29,23.7 C13.777781,22.6702346 15.5972713,22.234984 17.39,22.48 C17.9275718,22.6000361 18.2671855,23.1317996 18.15,23.67 L18.15,23.67 Z M33.71,25.71 C33.3156443,26.0966923 32.6843557,26.0966923 32.29,25.71 C31.4351599,24.7568734 30.2616396,24.1487765 28.99,24 C28.443734,23.9888935 28.0074807,23.5414482 28.0102126,22.9950761 C28.0129444,22.448704 28.4536502,22.0056434 29,22 C30.8010312,22.1478333 32.4813923,22.9648242 33.71,24.29 C34.0999779,24.6830079 34.0999779,25.3169921 33.71,25.71 L33.71,25.71 Z M17.41,31.5 C17.4658089,31.6609749 17.4961737,31.8296682 17.5,32 C17.5,32.8284271 16.8284271,33.5 16,33.5 C15.1715729,33.5 14.5,32.8284271 14.5,32 C14.5038263,31.8296682 14.5341911,31.6609749 14.59,31.5 L12.55,31.5 C12.7912461,33.2202585 14.2629079,34.499938 16,34.499938 C17.7370921,34.499938 19.2087539,33.2202585 19.45,31.5 L17.41,31.5 Z M16,27.5 C14.2654262,27.5067727 12.7975682,28.7831709 12.55,30.5 L19.45,30.5 C19.2024318,28.7831709 17.7345738,27.5067727 16,27.5 L16,27.5 Z M16,31.5 C15.7238576,31.5 15.5,31.7238576 15.5,32 C15.5,32.2761424 15.7238576,32.5 16,32.5 C16.2761424,32.5 16.5,32.2761424 16.5,32 C16.5013203,31.8669914 16.4490659,31.7390459 16.35501,31.64499 C16.2609541,31.5509341 16.1330086,31.4986797 16,31.5 Z M27.53,46.29 C27.3793373,46.064361 27.185639,45.8706627 26.96,45.72 C26.3400606,45.4040377 25.6299311,45.3121802 24.95,45.46 C24.5740034,45.5219568 24.2053906,45.6224875 23.85,45.76 C23.7,45.81 23.55,45.87 23.4,45.91 L20.17,46.95 C19.6189747,47.1008797 19.0806524,47.2948095 18.56,47.53 C18.43,47.59 18,47.81 18,48 C18,48.59 18.94,49.1 19.29,49.27 C19.44,49.32005 19.58,49.38 19.72,49.44 C19.89,49.5 20.05,49.57 20.21005,49.61 C21.2523428,49.8613741 22.3182348,50.0021522 23.39005,50.03 C23.67005,50.05 23.96005,50.07 24.25005,50.09 C25.0209361,50.1676456 25.7969455,50.1810251 26.57005,50.13 C27.0320379,50.1357468 27.4637984,49.9009296 27.71005,49.51 C27.9416254,49.0491247 28.045231,48.5345328 28.01005,48.01995 C28.0124825,47.410084 27.8463529,46.811405 27.53,46.29 L27.53,46.29 Z M31.41,31.5 C31.4658089,31.6609749 31.4961737,31.8296682 31.5,32 C31.5,32.8284271 30.8284271,33.5 30,33.5 C29.1715729,33.5 28.5,32.8284271 28.5,32 C28.5038263,31.8296682 28.5341911,31.6609749 28.59,31.5 L26.55,31.5 C26.7912461,33.2202585 28.2629079,34.499938 30,34.499938 C31.7370921,34.499938 33.2087539,33.2202585 33.45,31.5 L31.41,31.5 Z M30,31.5 C29.7238576,31.5 29.5,31.7238576 29.5,32 C29.5,32.2761424 29.7238576,32.5 30,32.5 C30.2761424,32.5 30.5,32.2761424 30.5,32 C30.5013203,31.8669914 30.4490659,31.7390459 30.35501,31.64499 C30.2609541,31.5509341 30.1330086,31.4986797 30,31.5 L30,31.5 Z M30,27.5 C28.2654262,27.5067727 26.7975682,28.7831709 26.55,30.5 L33.45,30.5 C33.2024318,28.7831709 31.7345738,27.5067727 30,27.5 L30,27.5 Z M27.53,46.29 C27.3793373,46.064361 27.185639,45.8706627 26.96,45.72 C26.3400606,45.4040377 25.6299311,45.3121802 24.95,45.46 C24.5740034,45.5219568 24.2053906,45.6224875 23.85,45.76 C23.7,45.81 23.55,45.87 23.4,45.91 L20.17,46.95 C19.6189747,47.1008797 19.0806524,47.2948095 18.56,47.53 C18.43,47.59 18,47.81 18,48 C18,48.59 18.94,49.1 19.29,49.27 C19.44,49.32005 19.58,49.38 19.72,49.44 C19.89,49.5 20.05,49.57 20.21005,49.61 C21.2523428,49.8613741 22.3182348,50.0021522 23.39005,50.03 C23.67005,50.05 23.96005,50.07 24.25005,50.09 C25.0209361,50.1676456 25.7969455,50.1810251 26.57005,50.13 C27.0320379,50.1357468 27.4637984,49.9009296 27.71005,49.51 C27.9416254,49.0491247 28.045231,48.5345328 28.01005,48.01995 C28.0124825,47.410084 27.8463529,46.811405 27.53,46.29 L27.53,46.29 Z M16,27.5 C14.2654262,27.5067727 12.7975682,28.7831709 12.55,30.5 L19.45,30.5 C19.2024318,28.7831709 17.7345738,27.5067727 16,27.5 L16,27.5 Z M16,31.5 C15.7238576,31.5 15.5,31.7238576 15.5,32 C15.5,32.2761424 15.7238576,32.5 16,32.5 C16.2761424,32.5 16.5,32.2761424 16.5,32 C16.5013203,31.8669914 16.4490659,31.7390459 16.35501,31.64499 C16.2609541,31.5509341 16.1330086,31.4986797 16,31.5 Z M17.41,31.5 C17.4658089,31.6609749 17.4961737,31.8296682 17.5,32 C17.5,32.8284271 16.8284271,33.5 16,33.5 C15.1715729,33.5 14.5,32.8284271 14.5,32 C14.5038263,31.8296682 14.5341911,31.6609749 14.59,31.5 L12.55,31.5 C12.7912461,33.2202585 14.2629079,34.499938 16,34.499938 C17.7370921,34.499938 19.2087539,33.2202585 19.45,31.5 L17.41,31.5 Z M15.5,32 C15.5,32.2761424 15.7238576,32.5 16,32.5 C16.2761424,32.5 16.5,32.2761424 16.5,32 C16.5,31.7238576 16.2761424,31.5 16,31.5 C15.8669939,31.498688 15.7390532,31.5509449 15.6449991,31.6449991 C15.5509449,31.7390532 15.498688,31.8669939 15.5,32 Z M16,27.5 C14.2654262,27.5067727 12.7975682,28.7831709 12.55,30.5 L19.45,30.5 C19.2024318,28.7831709 17.7345738,27.5067727 16,27.5 L16,27.5 Z M17.5,32 C17.5,32.8284271 16.8284271,33.5 16,33.5 C15.1715729,33.5 14.5,32.8284271 14.5,32 C14.5038263,31.8296682 14.5341911,31.6609749 14.59,31.5 L12.55,31.5 C12.7912461,33.2202585 14.2629079,34.499938 16,34.499938 C17.7370921,34.499938 19.2087539,33.2202585 19.45,31.5 L17.41,31.5 C17.4658089,31.6609749 17.4961737,31.8296682 17.5,32 Z M0,29.5 C0.00594465631,31.2727569 1.3385392,32.7601044 3.1,32.96 C3.16,32.03 3.23,31.08 3.35,30.14 C3.52,28.73 3.77,27.38 4.06,26.05 C3.87435211,26.0234142 3.68742127,26.0067239 3.5,26 C1.56788523,26.0021273 0.0021273293,27.5678852 0,29.5 Z M17.41,31.5 C17.4658089,31.6609749 17.4961737,31.8296682 17.5,32 C17.5,32.8284271 16.8284271,33.5 16,33.5 C15.1715729,33.5 14.5,32.8284271 14.5,32 C14.5038263,31.8296682 14.5341911,31.6609749 14.59,31.5 L12.55,31.5 C12.7912461,33.2202585 14.2629079,34.499938 16,34.499938 C17.7370921,34.499938 19.2087539,33.2202585 19.45,31.5 L17.41,31.5 Z M16,27.5 C14.2654262,27.5067727 12.7975682,28.7831709 12.55,30.5 L19.45,30.5 C19.2024318,28.7831709 17.7345738,27.5067727 16,27.5 L16,27.5 Z M16,31.5 C15.7238576,31.5 15.5,31.7238576 15.5,32 C15.5,32.2761424 15.7238576,32.5 16,32.5 C16.2761424,32.5 16.5,32.2761424 16.5,32 C16.5013203,31.8669914 16.4490659,31.7390459 16.35501,31.64499 C16.2609541,31.5509341 16.1330086,31.4986797 16,31.5 Z M16,31.5 C15.7238576,31.5 15.5,31.7238576 15.5,32 C15.5,32.2761424 15.7238576,32.5 16,32.5 C16.2761424,32.5 16.5,32.2761424 16.5,32 C16.5013203,31.8669914 16.4490659,31.7390459 16.35501,31.64499 C16.2609541,31.5509341 16.1330086,31.4986797 16,31.5 Z M17.41,31.5 C17.4658089,31.6609749 17.4961737,31.8296682 17.5,32 C17.5,32.8284271 16.8284271,33.5 16,33.5 C15.1715729,33.5 14.5,32.8284271 14.5,32 C14.5038263,31.8296682 14.5341911,31.6609749 14.59,31.5 L12.55,31.5 C12.7912461,33.2202585 14.2629079,34.499938 16,34.499938 C17.7370921,34.499938 19.2087539,33.2202585 19.45,31.5 L17.41,31.5 Z M16,27.5 C14.2654262,27.5067727 12.7975682,28.7831709 12.55,30.5 L19.45,30.5 C19.2024318,28.7831709 17.7345738,27.5067727 16,27.5 L16,27.5 Z M17.41,31.5 C17.4658089,31.6609749 17.4961737,31.8296682 17.5,32 C17.5,32.8284271 16.8284271,33.5 16,33.5 C15.1715729,33.5 14.5,32.8284271 14.5,32 C14.5038263,31.8296682 14.5341911,31.6609749 14.59,31.5 L12.55,31.5 C12.7912461,33.2202585 14.2629079,34.499938 16,34.499938 C17.7370921,34.499938 19.2087539,33.2202585 19.45,31.5 L17.41,31.5 Z M16,31.5 C15.7238576,31.5 15.5,31.7238576 15.5,32 C15.5,32.2761424 15.7238576,32.5 16,32.5 C16.2761424,32.5 16.5,32.2761424 16.5,32 C16.5013203,31.8669914 16.4490659,31.7390459 16.35501,31.64499 C16.2609541,31.5509341 16.1330086,31.4986797 16,31.5 Z M30,31.5 C29.7238576,31.5 29.5,31.7238576 29.5,32 C29.5,32.2761424 29.7238576,32.5 30,32.5 C30.2761424,32.5 30.5,32.2761424 30.5,32 C30.5013203,31.8669914 30.4490659,31.7390459 30.35501,31.64499 C30.2609541,31.5509341 30.1330086,31.4986797 30,31.5 L30,31.5 Z M31.41,31.5 C31.4658089,31.6609749 31.4961737,31.8296682 31.5,32 C31.5,32.8284271 30.8284271,33.5 30,33.5 C29.1715729,33.5 28.5,32.8284271 28.5,32 C28.5038263,31.8296682 28.5341911,31.6609749 28.59,31.5 L26.55,31.5 C26.7912461,33.2202585 28.2629079,34.499938 30,34.499938 C31.7370921,34.499938 33.2087539,33.2202585 33.45,31.5 L31.41,31.5 Z M30,31.5 C29.7238576,31.5 29.5,31.7238576 29.5,32 C29.5,32.2761424 29.7238576,32.5 30,32.5 C30.2761424,32.5 30.5,32.2761424 30.5,32 C30.5013203,31.8669914 30.4490659,31.7390459 30.35501,31.64499 C30.2609541,31.5509341 30.1330086,31.4986797 30,31.5 L30,31.5 Z M30,27.5 C28.2654262,27.5067727 26.7975682,28.7831709 26.55,30.5 L33.45,30.5 C33.2024318,28.7831709 31.7345738,27.5067727 30,27.5 L30,27.5 Z M30,31.5 C29.7238576,31.5 29.5,31.7238576 29.5,32 C29.5,32.2761424 29.7238576,32.5 30,32.5 C30.2761424,32.5 30.5,32.2761424 30.5,32 C30.5013203,31.8669914 30.4490659,31.7390459 30.35501,31.64499 C30.2609541,31.5509341 30.1330086,31.4986797 30,31.5 L30,31.5 Z M30,31.5 C29.7238576,31.5 29.5,31.7238576 29.5,32 C29.5,32.2761424 29.7238576,32.5 30,32.5 C30.2761424,32.5 30.5,32.2761424 30.5,32 C30.5013203,31.8669914 30.4490659,31.7390459 30.35501,31.64499 C30.2609541,31.5509341 30.1330086,31.4986797 30,31.5 L30,31.5 Z M30,27.5 C28.2654262,27.5067727 26.7975682,28.7831709 26.55,30.5 L33.45,30.5 C33.2024318,28.7831709 31.7345738,27.5067727 30,27.5 L30,27.5 Z M31.41,31.5 C31.4658089,31.6609749 31.4961737,31.8296682 31.5,32 C31.5,32.8284271 30.8284271,33.5 30,33.5 C29.1715729,33.5 28.5,32.8284271 28.5,32 C28.5038263,31.8296682 28.5341911,31.6609749 28.59,31.5 L26.55,31.5 C26.7912461,33.2202585 28.2629079,34.499938 30,34.499938 C31.7370921,34.499938 33.2087539,33.2202585 33.45,31.5 L31.41,31.5 Z M30,31.5 C29.7238576,31.5 29.5,31.7238576 29.5,32 C29.5,32.2761424 29.7238576,32.5 30,32.5 C30.2761424,32.5 30.5,32.2761424 30.5,32 C30.5013203,31.8669914 30.4490659,31.7390459 30.35501,31.64499 C30.2609541,31.5509341 30.1330086,31.4986797 30,31.5 L30,31.5 Z M16,27.5 C14.2654262,27.5067727 12.7975682,28.7831709 12.55,30.5 L19.45,30.5 C19.2024318,28.7831709 17.7345738,27.5067727 16,27.5 L16,27.5 Z M16,31.5 C15.7238576,31.5 15.5,31.7238576 15.5,32 C15.5,32.2761424 15.7238576,32.5 16,32.5 C16.2761424,32.5 16.5,32.2761424 16.5,32 C16.5013203,31.8669914 16.4490659,31.7390459 16.35501,31.64499 C16.2609541,31.5509341 16.1330086,31.4986797 16,31.5 Z M17.41,31.5 C17.4658089,31.6609749 17.4961737,31.8296682 17.5,32 C17.5,32.8284271 16.8284271,33.5 16,33.5 C15.1715729,33.5 14.5,32.8284271 14.5,32 C14.5038263,31.8296682 14.5341911,31.6609749 14.59,31.5 L12.55,31.5 C12.7912461,33.2202585 14.2629079,34.499938 16,34.499938 C17.7370921,34.499938 19.2087539,33.2202585 19.45,31.5 L17.41,31.5 Z M30,27.5 C28.2654262,27.5067727 26.7975682,28.7831709 26.55,30.5 L33.45,30.5 C33.2024318,28.7831709 31.7345738,27.5067727 30,27.5 L30,27.5 Z M29.5,32 C29.5,32.2761424 29.7238576,32.5 30,32.5 C30.2761424,32.5 30.5,32.2761424 30.5,32 C30.5,31.7238576 30.2761424,31.5 30,31.5 C29.8669939,31.498688 29.7390532,31.5509449 29.6449991,31.6449991 C29.5509449,31.7390532 29.498688,31.8669939 29.5,32 L29.5,32 Z M30,34.5 C31.7345738,34.4932273 33.2024318,33.2168291 33.45,31.5 L31.41,31.5 C31.4658089,31.6609749 31.4961737,31.8296682 31.5,32 C31.5,32.8284271 30.8284271,33.5 30,33.5 C29.1715729,33.5 28.5,32.8284271 28.5,32 C28.5038263,31.8296682 28.5341911,31.6609749 28.59,31.5 L26.55,31.5 C26.7975682,33.2168291 28.2654262,34.4932273 30,34.5 L30,34.5 Z M15.5,32 C15.5,32.2761424 15.7238576,32.5 16,32.5 C16.2761424,32.5 16.5,32.2761424 16.5,32 C16.5,31.7238576 16.2761424,31.5 16,31.5 C15.8669939,31.498688 15.7390532,31.5509449 15.6449991,31.6449991 C15.5509449,31.7390532 15.498688,31.8669939 15.5,32 Z M16,27.5 C14.2654262,27.5067727 12.7975682,28.7831709 12.55,30.5 L19.45,30.5 C19.2024318,28.7831709 17.7345738,27.5067727 16,27.5 L16,27.5 Z M16,34.5 C17.7345738,34.4932273 19.2024318,33.2168291 19.45,31.5 L17.41,31.5 C17.4658089,31.6609749 17.4961737,31.8296682 17.5,32 C17.5,32.8284271 16.8284271,33.5 16,33.5 C15.1715729,33.5 14.5,32.8284271 14.5,32 C14.5038263,31.8296682 14.5341911,31.6609749 14.59,31.5 L12.55,31.5 C12.7975682,33.2168291 14.2654262,34.4932273 16,34.5 Z M31.49,21 L14.48,21 C9.42,24.89 7.98,31.2 7.6,35.21 C7.63487755,35.2390437 7.67162314,35.2657678 7.71,35.29 C7.75,35.33 7.79,35.39 7.83,35.43 C7.83029988,35.4456656 7.83764748,35.4603608 7.85,35.47 C9.06,37.21 14.07,36.66 16.53005,36.08 C16.6784359,35.8229335 16.8526721,35.5816834 17.05005,35.36 C16.7075867,35.4520109 16.3546072,35.4990726 16,35.5 C13.8312221,35.5100492 11.9608512,33.9785824 11.5428256,31.8504487 C11.1248001,29.722315 12.2769049,27.5971486 14.288341,26.7860856 C16.2997771,25.9750227 18.6037917,26.7065926 19.778907,28.5294482 C20.9540222,30.3523038 20.6691315,32.7528277 19.1,34.25 C19.2976473,34.3145021 19.469405,34.4406785 19.59005,34.61 C19.7391654,34.8299526 19.7945036,35.1002515 19.7438243,35.3611081 C19.6931449,35.6219647 19.5406246,35.8518807 19.32,36 C18.7773464,36.3297909 18.3536018,36.823576 18.11,37.41 C18.0406407,37.5991433 18.0034594,37.7985702 18,38 C18.0908901,38.8408272 18.5826125,39.5858611 19.32,40 C21.5957512,41.3333402 24.4142488,41.3333402 26.69,40 C27.421705,39.5815355 27.9087467,38.8379604 28,38 C27.999266,37.8015517 27.961977,37.6049367 27.89,37.42 C27.6486558,36.8326309 27.2288969,36.3359162 26.69,36 C26.468175,35.8555317 26.3136136,35.6280779 26.2609746,35.3686428 C26.2083356,35.1092078 26.2620238,34.8395004 26.41,34.62 C26.5271321,34.4451246 26.6997404,34.3147877 26.9,34.25 C25.2277734,32.6704227 24.98704,30.0953788 26.3375084,28.2332184 C27.6879768,26.3710581 30.2103912,25.7998931 32.2313171,26.8986489 C34.252243,27.9974048 35.1442797,30.4249703 34.3156269,32.5708363 C33.4869742,34.7167023 31.1948892,35.9146799 28.96,35.37 C29.1566826,35.5935598 29.3277458,35.8384149 29.47,36.1 C32.33,36.76 36.97,37.15 38.11,35.45 C38.1810189,35.3489835 38.2689835,35.2610189 38.37,35.19 C38,31.2 36.56,24.9 31.49,21 Z M18.15,23.67 C18.0300339,24.2084777 17.5003536,24.551212 16.96,24.44 C15.6871852,24.3038847 14.4088966,24.6421504 13.37,25.39 C13.2069455,25.4880728 13.0202763,25.5399254 12.83,25.54 C12.4893877,25.5418673 12.1718791,25.3679935 11.99,25.08 C11.6923892,24.6159685 11.8266009,23.9985946 12.29,23.7 C13.777781,22.6702346 15.5972713,22.234984 17.39,22.48 C17.9275718,22.6000361 18.2671855,23.1317996 18.15,23.67 L18.15,23.67 Z M33.71,25.71 C33.3156443,26.0966923 32.6843557,26.0966923 32.29,25.71 C31.4351599,24.7568734 30.2616396,24.1487765 28.99,24 C28.443734,23.9888935 28.0074807,23.5414482 28.0102126,22.9950761 C28.0129444,22.448704 28.4536502,22.0056434 29,22 C30.8010312,22.1478333 32.4813923,22.9648242 33.71,24.29 C34.0999779,24.6830079 34.0999779,25.3169921 33.71,25.71 L33.71,25.71 Z M17.41,31.5 C17.4658089,31.6609749 17.4961737,31.8296682 17.5,32 C17.5,32.8284271 16.8284271,33.5 16,33.5 C15.1715729,33.5 14.5,32.8284271 14.5,32 C14.5038263,31.8296682 14.5341911,31.6609749 14.59,31.5 L12.55,31.5 C12.7912461,33.2202585 14.2629079,34.499938 16,34.499938 C17.7370921,34.499938 19.2087539,33.2202585 19.45,31.5 L17.41,31.5 Z M16,27.5 C14.2654262,27.5067727 12.7975682,28.7831709 12.55,30.5 L19.45,30.5 C19.2024318,28.7831709 17.7345738,27.5067727 16,27.5 L16,27.5 Z M16,31.5 C15.7238576,31.5 15.5,31.7238576 15.5,32 C15.5,32.2761424 15.7238576,32.5 16,32.5 C16.2761424,32.5 16.5,32.2761424 16.5,32 C16.5013203,31.8669914 16.4490659,31.7390459 16.35501,31.64499 C16.2609541,31.5509341 16.1330086,31.4986797 16,31.5 Z M31.41,31.5 C31.4658089,31.6609749 31.4961737,31.8296682 31.5,32 C31.5,32.8284271 30.8284271,33.5 30,33.5 C29.1715729,33.5 28.5,32.8284271 28.5,32 C28.5038263,31.8296682 28.5341911,31.6609749 28.59,31.5 L26.55,31.5 C26.7912461,33.2202585 28.2629079,34.499938 30,34.499938 C31.7370921,34.499938 33.2087539,33.2202585 33.45,31.5 L31.41,31.5 Z M30,31.5 C29.7238576,31.5 29.5,31.7238576 29.5,32 C29.5,32.2761424 29.7238576,32.5 30,32.5 C30.2761424,32.5 30.5,32.2761424 30.5,32 C30.5013203,31.8669914 30.4490659,31.7390459 30.35501,31.64499 C30.2609541,31.5509341 30.1330086,31.4986797 30,31.5 L30,31.5 Z M30,27.5 C28.2654262,27.5067727 26.7975682,28.7831709 26.55,30.5 L33.45,30.5 C33.2024318,28.7831709 31.7345738,27.5067727 30,27.5 L30,27.5 Z M39.74,11.62 C39.1604662,10.0531298 37.6705846,9.00941599 36,9 L10,9 C9.63878548,9.00028465 9.27912837,9.04734259 8.93,9.14 C7.20104372,9.62815417 6.00528058,11.2034599 6,13 L6,17 C6.00324566,18.1032223 6.89677769,18.9967543 8,19 L36.18,19 C36.0636117,18.5083903 36.0032276,18.005189 36,17.5 C36.0052279,14.9818295 37.4615198,12.6922583 39.74,11.62 L39.74,11.62 Z M39.74,11.62 C39.1604662,10.0531298 37.6705846,9.00941599 36,9 L10,9 C9.63878548,9.00028465 9.27912837,9.04734259 8.93,9.14 C7.20104372,9.62815417 6.00528058,11.2034599 6,13 L6,17 C6.00324566,18.1032223 6.89677769,18.9967543 8,19 L36.18,19 C36.0636117,18.5083903 36.0032276,18.005189 36,17.5 C36.0052279,14.9818295 37.4615198,12.6922583 39.74,11.62 L39.74,11.62 Z M26.5,0 C19.43,0 13.14,2.81 10.42,7 L36,7 C38.5597101,7.01408592 40.8321416,8.64125915 41.67,11.06 C41.9448295,11.0197511 42.2222391,10.9996974 42.5,11 C42.9956031,10.998227 43.4894671,11.0587001 43.97,11.18 C43.71,4.98 35.98,0 26.5,0 Z M36,9 L10,9 C9.63878548,9.00028465 9.27912837,9.04734259 8.93,9.14 C7.20104372,9.62815417 6.00528058,11.2034599 6,13 L6,17 C6.00324566,18.1032223 6.89677769,18.9967543 8,19 L36.18,19 C36.0636117,18.5083903 36.0032276,18.005189 36,17.5 C36.0052279,14.9818295 37.4615198,12.6922583 39.74,11.62 C39.1604662,10.0531298 37.6705846,9.00941599 36,9 Z M39.74,11.62 C39.1604662,10.0531298 37.6705846,9.00941599 36,9 L10,9 C9.63878548,9.00028465 9.27912837,9.04734259 8.93,9.14 C7.20104372,9.62815417 6.00528058,11.2034599 6,13 L6,17 C6.00324566,18.1032223 6.89677769,18.9967543 8,19 L36.18,19 C36.0636117,18.5083903 36.0032276,18.005189 36,17.5 C36.0052279,14.9818295 37.4615198,12.6922583 39.74,11.62 Z M42.5,13 C40.0147186,13 38,15.0147186 38,17.5 C38,19.9852814 40.0147186,22 42.5,22 C44.9852814,22 47,19.9852814 47,17.5 C46.9962718,15.0162646 44.9837354,13.0037282 42.5,13 Z" id="Shape"/></g></g></svg>