<?xml version="1.0" ?><svg height="56px" version="1.1" viewBox="0 0 56 56" width="56px" xmlns="http://www.w3.org/2000/svg" xmlns:xlink="http://www.w3.org/1999/xlink"><title/><desc/><defs/><g fill="none" fill-rule="evenodd" id="Page-1" stroke="none" stroke-width="1"><g fill="#000000" fill-rule="nonzero" id="006---Present" transform="translate(0.000000, -1.000000)"><path d="M40.08,36.6 C40.2027117,36.3260371 40.4408976,36.1208308 40.73,36.04 L44.45,34.97 C40.56,33.32 37.23,30.09 34.71,25.48 C34.1032957,24.3560927 33.5558791,23.2011771 33.07,22.02 C32.2794694,20.0673045 31.6474277,18.0541348 31.18,16 L25.81,16 C26.4254244,18.9342256 27.2032882,21.8320186 28.14,24.68 C28.39,25.46 28.66,26.21 28.93,26.92 C30.1109339,30.2260471 31.7502738,33.3498816 33.8,36.2 C37.27,40.8 40.59,41.85 42.4,42.04 L40.11,37.45 C39.9706775,37.1861263 39.9596274,36.8730394 40.08,36.6 Z M32.2,37.4 C30.5080468,35.0893785 29.098065,32.5849821 28,29.94 C26.901935,32.5849821 25.4919532,35.0893785 23.8,37.4 C23.7,37.53 23.6,37.65 23.5,37.78 L23.5,57 L32.5,57 L32.5,37.78 C32.4,37.65 32.3,37.53 32.2,37.4 L32.2,37.4 Z M26.24,25.31 C25.52,23.16 24.85,20.77 24.25,18.2 C23.5216424,20.7253579 22.5260112,23.1658277 21.28,25.48 C18.71994,30.16 15.46,33.34 11.57,34.98 L15.27,36.04 C15.5591024,36.1208308 15.7972883,36.3260371 15.92,36.6 C16.0403726,36.8730394 16.0293225,37.1861263 15.89,37.45 L13.6,42.04 C15.4,41.85 18.73,40.8 22.2,36.2 C24.1854787,33.4549233 25.7775458,30.4458156 26.93,27.26 C26.7,26.63 26.46,25.99 26.24,25.31 Z M12.11,1.04 C9.01,1.38 7.12,3.26 7.17,5.97 C7.24,9.5 10.52,13.3 16.65,13.94 C14.4829429,13.0419157 12.5302447,11.6958148 10.92,9.99 C9.91945084,8.98152362 9.34024209,7.63003655 9.3,6.21 C9.40319173,4.89234825 10.1779208,3.72080679 11.35,3.11 C11.9873235,2.79446813 12.6888449,2.63020945 13.4,2.63 C17.01,2.55 19.59,6.01 21.46,8.53 L21.65,8.79 C22.8796096,10.453478 24.0018869,12.1936759 25.01,14 L26.49,14 C24.81,10.29 19.56,0.25 12.11,1.04 Z M43.89,1.04 C36.4,0.24 31.17,10.29 29.51,14 L30.99,14 C31.9981131,12.1936759 33.1203904,10.453478 34.35,8.79 L34.54,8.53 C36.41,6.01 38.94,2.54 42.6,2.63 C43.3111551,2.63020945 44.0126765,2.79446813 44.65,3.11 C45.8220792,3.72080679 46.5968083,4.89234825 46.7,6.21 C46.6597579,7.63003655 46.0805492,8.98152362 45.08,9.99 C43.4697553,11.6958148 41.5170571,13.0419157 39.35,13.94 C45.48,13.3 48.76,9.5 48.83,5.97 C48.88,3.26 46.99,1.38 43.89,1.04 Z M12.11,1.04 C9.01,1.38 7.12,3.26 7.17,5.97 C7.24,9.5 10.52,13.3 16.65,13.94 C14.4829429,13.0419157 12.5302447,11.6958148 10.92,9.99 C9.91945084,8.98152362 9.34024209,7.63003655 9.3,6.21 C9.40319173,4.89234825 10.1779208,3.72080679 11.35,3.11 C11.9873235,2.79446813 12.6888449,2.63020945 13.4,2.63 C17.01,2.55 19.59,6.01 21.46,8.53 L21.65,8.79 C22.8796096,10.453478 24.0018869,12.1936759 25.01,14 L26.49,14 C24.81,10.29 19.56,0.25 12.11,1.04 Z M12.11,1.04 C9.01,1.38 7.12,3.26 7.17,5.97 C7.24,9.5 10.52,13.3 16.65,13.94 C14.4829429,13.0419157 12.5302447,11.6958148 10.92,9.99 C9.91945084,8.98152362 9.34024209,7.63003655 9.3,6.21 C9.40319173,4.89234825 10.1779208,3.72080679 11.35,3.11 C11.9873235,2.79446813 12.6888449,2.63020945 13.4,2.63 C17.01,2.55 19.59,6.01 21.46,8.53 L21.65,8.79 C22.8796096,10.453478 24.0018869,12.1936759 25.01,14 L26.49,14 C24.81,10.29 19.56,0.25 12.11,1.04 Z M1,16 C0.448399067,16.0016474 0.00164740056,16.4483991 0,17 L0,23 C0.00164740056,23.5516009 0.448399067,23.9983526 1,24 L19.8,24 C21.098039,21.4591042 22.0915811,18.7738553 22.76,16 L1,16 Z M12.11,1.04 C9.01,1.38 7.12,3.26 7.17,5.97 C7.24,9.5 10.52,13.3 16.65,13.94 C14.4829429,13.0419157 12.5302447,11.6958148 10.92,9.99 C9.91945084,8.98152362 9.34024209,7.63003655 9.3,6.21 C9.40319173,4.89234825 10.1779208,3.72080679 11.35,3.11 C11.9873235,2.79446813 12.6888449,2.63020945 13.4,2.63 C17.01,2.55 19.59,6.01 21.46,8.53 L21.65,8.79 C22.8796096,10.453478 24.0018869,12.1936759 25.01,14 L26.49,14 C24.81,10.29 19.56,0.25 12.11,1.04 Z M11.57,34.98 L15.27,36.04 C15.5591024,36.1208308 15.7972883,36.3260371 15.92,36.6 C16.0403726,36.8730394 16.0293225,37.1861263 15.89,37.45 L13.6,42.04 C15.4,41.85 18.73,40.8 22.2,36.2 C24.1854787,33.4549233 25.7775458,30.4458156 26.93,27.26 C26.7,26.63 26.46,25.99 26.24,25.31 C25.52,23.16 24.85,20.77 24.25,18.2 C23.5216424,20.7253579 22.5260112,23.1658277 21.28,25.48 C18.72,30.16 15.46,33.34 11.57,34.98 Z M12.88,44.07 C12.5146515,44.0741578 12.1497187,44.0440257 11.79,43.98 C11.487934,43.9119558 11.2336813,43.7092906 11.1,43.43 C10.9631697,43.1517744 10.9668826,42.8250444 11.11,42.55 L13.57,37.63 L7.73,35.96 C7.29501873,35.8393794 6.99548819,35.4413731 7,34.99 L7,34.95 C7.02152415,34.4861041 7.3624506,34.0994436 7.82,34.02 C12.16,33.22 15.79,30.52 18.64,26 L3,26 L3,56 C3.0016474,56.5516009 3.44839907,56.9983526 4,57 L22.5,57 L22.5,38.97 C18.5,43.43 14.69,44.07 12.88,44.07 L12.88,44.07 Z M26.24,25.31 C25.52,23.16 24.85,20.77 24.25,18.2 C23.5216424,20.7253579 22.5260112,23.1658277 21.28,25.48 C18.71994,30.16 15.46,33.34 11.57,34.98 L15.27,36.04 C15.5591024,36.1208308 15.7972883,36.3260371 15.92,36.6 C16.0403726,36.8730394 16.0293225,37.1861263 15.89,37.45 L13.6,42.04 C15.4,41.85 18.73,40.8 22.2,36.2 C24.1854787,33.4549233 25.7775458,30.4458156 26.93,27.26 C26.7,26.63 26.46,25.99 26.24,25.31 Z M40.08,36.6 C40.2027117,36.3260371 40.4408976,36.1208308 40.73,36.04 L44.45,34.97 C40.56,33.32 37.23,30.09 34.71,25.48 C34.1032957,24.3560927 33.5558791,23.2011771 33.07,22.02 C32.2794694,20.0673045 31.6474277,18.0541348 31.18,16 L25.81,16 C26.4254244,18.9342256 27.2032882,21.8320186 28.14,24.68 C28.39,25.46 28.66,26.21 28.93,26.92 C30.1109339,30.2260471 31.7502738,33.3498816 33.8,36.2 C37.27,40.8 40.59,41.85 42.4,42.04 L40.11,37.45 C39.9706775,37.1861263 39.9596274,36.8730394 40.08,36.6 Z M37.35,26 C40.2,30.52 43.83,33.22 48.18,34.02 C48.6375494,34.0994436 48.9784758,34.4861041 49,34.95 L49,34.99 C49.0045118,35.4413731 48.7049813,35.8393794 48.27,35.96 L42.43,37.63 L44.89,42.55 C45.0331174,42.8250444 45.0368303,43.1517744 44.9,43.43 C44.7663187,43.7092906 44.512066,43.9119558 44.21,43.98 C43.8502813,44.0440257 43.4853485,44.0741578 43.12,44.07 C41.31,44.07 37.5,43.43 33.5,38.97 L33.5,57 L52,57 C52.5516009,56.9983526 52.9983526,56.5516009 53,56 L53,26 L37.35,26 Z M42.4,42.04 L40.11,37.45 C39.9706775,37.1861263 39.9596274,36.8730394 40.08,36.6 C40.2027117,36.3260371 40.4408976,36.1208308 40.73,36.04 L44.45,34.97 C40.56,33.32 37.23,30.09 34.71,25.48 C34.1032957,24.3560927 33.5558791,23.2011771 33.07,22.02 C32.2794694,20.0673045 31.6474277,18.0541348 31.18,16 L25.81,16 C26.4254244,18.9342256 27.2032882,21.8320186 28.14,24.68 C28.39,25.46 28.66,26.21 28.93,26.92 C30.1109339,30.2260471 31.7502738,33.3498816 33.8,36.2 C37.27,40.8 40.59,41.85 42.4,42.04 Z M55,16 L33.24,16 C33.6717475,17.7929196 34.2366484,19.5511319 34.93,21.26 C35.31,22.2 35.74,23.12 36.2,24 L55,24 C55.5516009,23.9983526 55.9983526,23.5516009 56,23 L56,17 C55.9983526,16.4483991 55.5516009,16.0016474 55,16 Z M12.11,1.04 C9.01,1.38 7.12,3.26 7.17,5.97 C7.24,9.5 10.52,13.3 16.65,13.94 C14.4829429,13.0419157 12.5302447,11.6958148 10.92,9.99 C9.91945084,8.98152362 9.34024209,7.63003655 9.3,6.21 C9.40319173,4.89234825 10.1779208,3.72080679 11.35,3.11 C11.9873235,2.79446813 12.6888449,2.63020945 13.4,2.63 C17.01,2.55 19.59,6.01 21.46,8.53 L21.65,8.79 C22.8796096,10.453478 24.0018869,12.1936759 25.01,14 L26.49,14 C24.81,10.29 19.56,0.25 12.11,1.04 Z" id="Shape"/></g></g></svg>