<?xml version="1.0" ?><svg height="56px" version="1.1" viewBox="0 0 49 56" width="49px" xmlns="http://www.w3.org/2000/svg" xmlns:xlink="http://www.w3.org/1999/xlink"><title/><desc/><defs/><g fill="none" fill-rule="evenodd" id="Page-1" stroke="none" stroke-width="1"><g fill="#000000" fill-rule="nonzero" id="018---Candle" transform="translate(-1.000000, 0.000000)"><path d="M44,33 C40.6877925,33.0036209 38.0036209,35.6877925 38,39 L38,50 L33.71,50 L27.71,56 L39,56 C39.5516009,55.9983526 39.9983526,55.5516009 40,55 L40,39 C40,36.790861 41.790861,35 44,35 C46.209139,35 48,36.790861 48,39 L48,46 C48,46.5522847 48.4477153,47 49,47 C49.5522847,47 50,46.5522847 50,46 L50,39 C49.9963791,35.6877925 47.3122075,33.0036209 44,33 L44,33 Z" id="Shape"/><rect height="2.5" id="Rectangle-path" width="10" x="17" y="38.5"/><rect height="5" id="Rectangle-path" width="12" x="16" y="43"/><path d="M22,13 C24.3426488,12.8525455 26.1282178,10.8437804 26,8.5 C26,6.8 23.8,3.17 22,0.67 C20.21,3.17 18,6.8 18,8.5 C17.8754855,10.8424854 19.6590714,12.8490195 22,13 Z" id="Shape"/><path d="M27,15 L17,15 L17,34.5 C17.3979875,34.5005317 17.7798274,34.3426672 18.0612473,34.0612473 C18.3426672,33.7798274 18.5005317,33.3979875 18.5,33 L18.5,27 C18.50078,26.7241814 18.7241814,26.50078 19,26.5 C19.1330086,26.4986797 19.2609541,26.5509341 19.35501,26.64499 C19.4490659,26.7390459 19.5013203,26.8669914 19.5,27 L19.5,33 C19.4994978,34.3805038 18.3805038,35.4994978 17,35.5 L17,37.5 L27,37.5 L27,15 Z M25.5,21 C25.5,22.3807119 24.3807119,23.5 23,23.5 C21.6192881,23.5 20.5,22.3807119 20.5,21 L20.5,17 C20.50078,16.7241814 20.7241814,16.50078 21,16.5 C21.1330086,16.4986797 21.2609541,16.5509341 21.35501,16.64499 C21.4490659,16.7390459 21.5013203,16.8669914 21.5,17 L21.5,21 C21.5,21.8284271 22.1715729,22.5 23,22.5 C23.8284271,22.5 24.5,21.8284271 24.5,21 L24.5,17 C24.50078,16.7241814 24.7241814,16.50078 25,16.5 C25.1330086,16.4986797 25.2609541,16.5509341 25.35501,16.64499 C25.4490659,16.7390459 25.5013203,16.8669914 25.5,17 L25.5,21 Z" id="Shape"/><polygon id="Shape" points="29.71 50 23.71 56 26.29 56 32.29 50"/><polygon id="Shape" points="22.71 50 16.71 56 22.29 56 28.29 50"/><path d="M2,50 C1.62264259,49.998324 1.27728795,50.2117454 1.11,50.55 C0.932190403,50.8875057 0.967347917,51.2976767 1.2,51.6 L4.2,55.6 C4.39025084,55.8501268 4.68574803,55.9978754 5,56 L11.29,56 L17.29,50 L2,50 Z" id="Shape"/><polygon id="Shape" points="18.71 50 12.71 56 15.29 56 21.29 50"/></g></g></svg>