<?xml version="1.0" ?><!DOCTYPE svg  PUBLIC '-//W3C//DTD SVG 1.1//EN'  'http://www.w3.org/Graphics/SVG/1.1/DTD/svg11.dtd'><svg enable-background="new 0 0 64 64" height="64px" id="Layer_1" version="1.1" viewBox="0 0 64 64" width="64px" xml:space="preserve" xmlns="http://www.w3.org/2000/svg" xmlns:xlink="http://www.w3.org/1999/xlink"><g id="holly_1_"><g><g><g><path d="M25.588,23.85c0.607-1.665,0.188-4.351-0.697-6.188c0.755-0.144,1.399-0.565,1.886-1.24      c0.899-1.245,1.176-3.312,0.743-5.231c2.101-0.016,3.461-2.217,4.099-3.568c0.746,1.311,2.212,3.438,3.927,3.563      c-0.435,1.922-0.158,3.99,0.742,5.238c0.487,0.674,1.132,1.096,1.886,1.239c-0.925,1.921-1.341,4.766-0.609,6.405      c0.271-0.058,0.582-0.193,0.917-0.392c-0.68-1.476-0.073-4.63,0.935-6.196l0.541-0.841L38.96,16.71      c-0.774,0.058-1.402-0.238-1.861-0.874c-0.827-1.146-0.995-3.279-0.399-5.074l0.315-0.949l-0.949,0.317      c-1.566,0.527-3.493-2.712-4.046-3.903l-0.53-1.14l-0.398,1.192c-0.013,0.039-1.331,3.91-3.593,3.91      c-0.175,0-0.354-0.023-0.535-0.07l-0.887-0.227l0.289,0.869c0.596,1.794,0.428,3.928-0.399,5.074      c-0.459,0.636-1.082,0.925-1.861,0.874l-0.998-0.072l0.542,0.841c0.991,1.54,1.592,4.618,0.961,6.122      c0.36,0.188,0.689,0.298,0.947,0.298L25.588,23.85z" fill="#37474F"/><path d="M24.978,47.403c-1.912,0-4.548,2.055-5.88,4.019c-0.614-0.728-1.502-1.119-2.57-1.119      c-1.547,0-3.391,0.836-4.785,2.132c-0.715-1.268-2.244-1.931-4.478-1.931c-0.375,0-0.726,0.019-1.029,0.046      c0.816-1.379,2.043-3.913,1.208-5.558c2.071-0.632,3.858-2.036,4.488-3.584c0.314-0.773,0.336-1.549,0.07-2.281      c1.963-0.142,4.377-1.027,5.708-2.253c-0.198-0.203-0.48-0.401-0.815-0.589c-1.347,1.13-3.969,1.931-5.679,1.856l-0.999-0.049      l0.561,0.828c0.45,0.664,0.526,1.374,0.228,2.11c-0.577,1.419-2.476,2.753-4.516,3.174l-0.979,0.201l0.75,0.663      c1.34,1.184-0.637,4.696-1.436,5.833L4.1,51.932l1.232-0.252c0.021-0.005,4.985-0.982,5.757,1.778l0.246,0.882l0.609-0.685      c1.232-1.385,3.116-2.353,4.583-2.353c1.006,0,1.726,0.431,2.138,1.28l0.437,0.899l0.458-0.89      c0.905-1.759,3.426-3.944,5.157-4.15c0.153-0.306,0.282-0.654,0.378-1.021C25.053,47.419,25.02,47.403,24.978,47.403z" fill="#37474F"/><path d="M56.853,45.033l0.641-0.654l-0.897-0.185c-2.041-0.421-3.94-1.756-4.518-3.175      c-0.299-0.735-0.223-1.445,0.228-2.109l0.561-0.828l-0.999,0.049c-1.769,0.085-4.515-0.781-5.813-1.975      c-0.345,0.171-0.635,0.356-0.861,0.544c1.285,1.313,3.839,2.27,5.889,2.416c-0.266,0.732-0.244,1.508,0.07,2.28      c0.629,1.548,2.415,2.951,4.485,3.584c-1.153,1.949,0.214,4.424,1.125,5.718c-2.774,0.021-4.66,0.594-5.415,1.731      c-1.396-1.3-3.242-2.138-4.791-2.138c-1.068,0-1.956,0.392-2.57,1.119c-1.333-1.964-3.971-4.018-5.881-4.018      c-0.065,0-0.119,0.022-0.182,0.027c0.093,0.358,0.217,0.699,0.366,1.001c1.73,0.147,4.316,2.375,5.236,4.16l0.458,0.89      l0.437-0.9c0.411-0.849,1.131-1.279,2.137-1.279c1.467,0,3.351,0.968,4.582,2.353l0.665,0.748l0.199-0.98      c0.313-1.547,3.361-1.714,4.657-1.714c0.651,0,1.102,0.039,1.112,0.04l1.255,0.111l-0.837-0.941      C58.156,50.87,54.839,47.09,56.853,45.033z" fill="#37474F"/></g></g><g><g><g><g><g><path d="M36.963,44.774c0.151-0.277,0.349-0.4,0.641-0.4h0.908l-0.485-0.768         c-0.538-0.851-1.295-1.644-2.119-2.354c-0.259,0.228-0.569,0.403-0.93,0.521c0.671,0.553,1.303,1.157,1.805,1.803         c-0.285,0.155-0.522,0.398-0.697,0.719c-0.663,1.216-0.372,3.479,0.333,5.038c-0.544,0.14-1.01,0.465-1.37,0.963         c-0.685,0.948-0.911,2.497-0.617,3.958c-1.488,0.099-2.481,1.564-2.999,2.593c-0.589-0.988-1.628-2.396-2.852-2.579         c0.298-1.465,0.072-3.021-0.615-3.973c-0.359-0.497-0.825-0.823-1.369-0.962c0.705-1.56,0.996-3.823,0.333-5.038         c-0.175-0.32-0.413-0.563-0.697-0.719c0.216-0.277,0.461-0.545,0.718-0.807c-0.363-0.092-0.684-0.238-0.953-0.438         c-0.377,0.408-0.729,0.831-1.009,1.274l-0.485,0.768h0.908c0.292,0,0.49,0.123,0.641,0.399         c0.574,1.053,0.102,3.516-0.672,4.719l-0.542,0.841l1.131-0.076c0.494,0,0.882,0.204,1.185,0.624         c0.612,0.847,0.734,2.436,0.29,3.775l-0.314,0.949l0.948-0.318c1.024-0.342,2.373,1.683,2.95,2.924l0.532,1.143l0.396-1.196         c0.011-0.032,1.193-3.328,3.015-2.859l0.887,0.228l-0.289-0.869c-0.445-1.34-0.323-2.927,0.289-3.775         c0.303-0.42,0.691-0.624,1.186-0.624l1.132,0.076l-0.542-0.841C36.861,48.289,36.389,45.827,36.963,44.774z" fill="#37474F"/></g></g><g><g><path d="M31.003,40.479v11.455c0,0.275,0.225,0.5,0.5,0.5s0.5-0.225,0.5-0.5V41.169         c-0.277-0.268-0.483-0.594-0.631-0.945C31.259,40.319,31.135,40.401,31.003,40.479z" fill="#37474F"/></g></g></g><g><g><g><path d="M55.965,21.956l-1.231,0.251c-0.018,0.004-4.37,0.86-5.039-1.537l-0.246-0.884l-0.609,0.686         c-1.083,1.218-2.737,2.068-4.022,2.068c-0.869,0-1.49-0.371-1.845-1.104l-0.437-0.9l-0.458,0.89         c-0.835,1.624-3.242,3.686-4.755,3.686c-0.409,0-0.691-0.158-0.887-0.497l-0.454-0.786l-0.422,0.804         c-1.07,2.04-1.477,4.74-1.595,7.181c0.284-0.251,0.629-0.441,1.035-0.558c0.127-1.815,0.44-3.85,1.136-5.501         c0.328,0.235,0.728,0.357,1.186,0.357c1.692,0,4.016-1.793,5.22-3.528c0.553,0.623,1.337,0.957,2.275,0.957         c1.366,0,2.989-0.727,4.229-1.858c0.658,1.104,2.017,1.681,3.985,1.681c0.29,0,0.564-0.014,0.809-0.032         c-0.717,1.233-1.723,3.383-1.046,4.828c-1.828,0.575-3.397,1.822-3.955,3.196c-0.272,0.673-0.3,1.347-0.086,1.985         c-2.122,0.175-4.821,1.297-5.664,2.758c-0.229,0.396-0.323,0.802-0.283,1.203c-1.504-0.188-3.104-0.752-4.552-1.404         c-0.196,0.299-0.448,0.558-0.757,0.761c1.923,0.899,4.045,1.626,5.992,1.704l0.907,0.036l-0.454-0.786         c-0.196-0.338-0.191-0.66,0.013-1.014c0.758-1.315,3.739-2.358,5.57-2.277l1,0.049l-0.563-0.829         c-0.387-0.568-0.453-1.178-0.197-1.81c0.504-1.243,2.172-2.414,3.965-2.784l0.979-0.201l-0.75-0.663         c-1.158-1.022,0.581-4.1,1.281-5.098L55.965,21.956z" fill="#37474F"/></g></g><g><g><path d="M48.886,26.101c-0.138-0.238-0.445-0.32-0.683-0.183l-10.341,5.967         c0.246,0.235,0.442,0.51,0.588,0.814l10.253-5.916C48.941,26.646,49.024,26.339,48.886,26.101z" fill="#37474F"/></g></g></g><g><g><g><path d="M28.728,29.112c-0.243-1.683-0.665-3.342-1.382-4.708l-0.422-0.804l-0.454,0.786         c-0.201,0.35-0.492,0.512-0.913,0.512c-1.548,0-4.01-2.107-4.865-3.768l-0.458-0.89l-0.437,0.899         c-0.365,0.752-1.002,1.133-1.894,1.133c-1.315,0-3.007-0.869-4.114-2.114l-0.665-0.748l-0.199,0.98         c-0.285,1.404-3.264,1.514-4.17,1.514c-0.587,0-0.993-0.035-1.003-0.036L6.5,21.758l0.834,0.941         c0.03,0.034,3,3.43,1.212,5.257l-0.641,0.655l0.898,0.185c1.835,0.377,3.542,1.574,4.058,2.848         c0.263,0.648,0.195,1.272-0.202,1.856l-0.564,0.829l1.002-0.049c1.841-0.072,4.917,0.983,5.694,2.33         c0.211,0.365,0.215,0.697,0.013,1.047l-0.454,0.786l0.908-0.036c1.875-0.076,3.904-0.745,5.775-1.589         c-0.445-0.12-0.816-0.334-1.117-0.612c-1.293,0.535-2.667,0.979-3.973,1.141c0.044-0.412-0.051-0.83-0.286-1.236         c-0.861-1.492-3.622-2.638-5.786-2.812c0.222-0.653,0.195-1.344-0.084-2.031c-0.568-1.401-2.171-2.674-4.037-3.258         c0.983-1.743-0.177-3.916-0.998-5.104h0.003c2.449,0,4.115-0.541,4.818-1.542c1.267,1.162,2.931,1.91,4.33,1.91         c0.959,0,1.761-0.344,2.324-0.983c1.226,1.772,3.602,3.608,5.329,3.608c0.47,0,0.879-0.126,1.214-0.37         c0.629,1.485,0.945,3.264,1.101,4.935C28.028,29.942,28.315,29.472,28.728,29.112z" fill="#37474F"/></g></g><g><g><path d="M24.283,31.387l-9.846-5.681c-0.238-0.138-0.545-0.056-0.683,0.183s-0.055,0.545,0.183,0.683         l9.598,5.538C23.731,31.825,23.98,31.58,24.283,31.387z" fill="#37474F"/></g></g></g></g></g></g><g><path d="M32,13.5c0-0.275-0.225-0.5-0.5-0.5S31,13.225,31,13.5v13.011c0,0.01,1,0.063,1,0.148V13.5z" fill="#37474F"/><path d="M12.121,46.669c-0.238,0.138-0.321,0.444-0.183,0.683s0.445,0.32,0.683,0.183L23.592,41.2    c-0.095-0.34-0.157-0.69-0.168-1.057L12.121,46.669z" fill="#37474F"/><path d="M50.957,46.669l-12.589-7.268c-0.032,0.357-0.103,0.701-0.214,1.029l12.303,7.104    c0.237,0.138,0.545,0.056,0.683-0.183S51.194,46.807,50.957,46.669z" fill="#37474F"/></g><g><g><g><g><g><path d="M25.909,36.5c-1.378,0-2.5-1.121-2.5-2.5s1.122-2.5,2.5-2.5c0.943,0,1.755,0.53,2.181,1.303        c-0.16-0.513-0.197-1.067-0.105-1.6c-0.581-0.436-1.294-0.703-2.076-0.703c-1.93,0-3.5,1.57-3.5,3.5s1.57,3.5,3.5,3.5        c0.816,0,1.558-0.293,2.154-0.763c-0.109-0.495-0.106-1.012,0.008-1.505C27.64,35.985,26.837,36.5,25.909,36.5z" fill="#37474F"/></g></g><g><g><path d="M35.909,30.5c-0.883,0-1.686,0.332-2.299,0.874c0.144,0.444,0.186,0.921,0.139,1.39        c0.432-0.751,1.233-1.264,2.16-1.264c1.379,0,2.5,1.121,2.5,2.5s-1.121,2.5-2.5,2.5c-1.022,0-1.9-0.617-2.287-1.498        c0.167,0.543,0.191,1.131,0.077,1.689c0.605,0.497,1.368,0.809,2.21,0.809c1.93,0,3.5-1.57,3.5-3.5S37.838,30.5,35.909,30.5z" fill="#37474F"/></g></g><g><g><path d="M35.529,37.111c0.534,0.459,0.88,1.131,0.88,1.889c0,1.379-1.121,2.5-2.5,2.5s-2.5-1.121-2.5-2.5        c0-0.019,0.005-0.035,0.005-0.054C31.241,38.975,31.066,39,30.875,39c-0.164,0-0.312-0.025-0.462-0.046        c0,0.016-0.004,0.03-0.004,0.046c0,1.93,1.57,3.5,3.5,3.5s3.5-1.57,3.5-3.5c0-0.81-0.288-1.546-0.75-2.139        C36.333,37.011,35.952,37.093,35.529,37.111z" fill="#37474F"/></g></g><g><g><path d="M30.875,39c-0.259,0-0.498-0.031-0.722-0.081c0.159,0.329,0.256,0.692,0.256,1.081        c0,1.379-1.122,2.5-2.5,2.5s-2.5-1.121-2.5-2.5s1.122-2.5,2.5-2.5c0.152,0,0.299,0.019,0.444,0.045        c-0.17-0.32-0.285-0.671-0.338-1.034c-0.036-0.001-0.07-0.011-0.106-0.011c-1.93,0-3.5,1.57-3.5,3.5s1.57,3.5,3.5,3.5        s3.5-1.57,3.5-3.5c0-0.363-0.071-0.706-0.174-1.035C31.115,38.977,31.003,39,30.875,39z" fill="#37474F"/></g></g><g><g><path d="M28.838,33.807c0.252-0.255,0.559-0.459,0.923-0.599c-0.799-0.418-1.352-1.245-1.352-2.208        c0-1.379,1.122-2.5,2.5-2.5c1.379,0,2.5,1.121,2.5,2.5c0,0.973-0.564,1.809-1.377,2.222c0.361,0.145,0.664,0.355,0.912,0.614        c0.884-0.636,1.465-1.667,1.465-2.836c0-1.93-1.57-3.5-3.5-3.5s-3.5,1.57-3.5,3.5C27.409,32.152,27.976,33.168,28.838,33.807z        " fill="#37474F"/></g></g><g><g><path d="M30.909,39.5c-1.93,0-3.5-1.57-3.5-3.5s1.57-3.5,3.5-3.5s3.5,1.57,3.5,3.5S32.838,39.5,30.909,39.5z         M30.909,33.5c-1.378,0-2.5,1.121-2.5,2.5s1.122,2.5,2.5,2.5c1.379,0,2.5-1.121,2.5-2.5S32.288,33.5,30.909,33.5z" fill="#37474F"/></g></g></g></g></g></g></svg>