<?xml version="1.0" ?><!DOCTYPE svg  PUBLIC '-//W3C//DTD SVG 1.1//EN'  'http://www.w3.org/Graphics/SVG/1.1/DTD/svg11.dtd'><svg enable-background="new 0 0 64 64" height="64px" id="Layer_1" version="1.1" viewBox="0 0 64 64" width="64px" xml:space="preserve" xmlns="http://www.w3.org/2000/svg" xmlns:xlink="http://www.w3.org/1999/xlink"><g id="Gingerbread_Man_1_"><g><g><path d="M32,31.5c-1.378,0-2.5-1.121-2.5-2.5s1.122-2.5,2.5-2.5s2.5,1.121,2.5,2.5S33.378,31.5,32,31.5z M32,27.5     c-0.827,0-1.5,0.673-1.5,1.5s0.673,1.5,1.5,1.5s1.5-0.673,1.5-1.5S32.827,27.5,32,27.5z" fill="#37474F"/></g></g><g><g><path d="M32,38.5c-1.378,0-2.5-1.121-2.5-2.5s1.122-2.5,2.5-2.5s2.5,1.121,2.5,2.5S33.378,38.5,32,38.5z M32,34.5     c-0.827,0-1.5,0.673-1.5,1.5s0.673,1.5,1.5,1.5s1.5-0.673,1.5-1.5S32.827,34.5,32,34.5z" fill="#37474F"/></g></g><g><g><path d="M32,20c-2.343,0-4.345-1.6-4.867-3.889c-0.062-0.27,0.107-0.537,0.376-0.599     c0.269-0.064,0.538,0.107,0.599,0.376C28.526,17.721,30.126,19,32,19c1.875,0,3.475-1.279,3.893-3.111     c0.061-0.269,0.33-0.439,0.598-0.376c0.27,0.062,0.438,0.329,0.376,0.599C36.346,18.4,34.344,20,32,20z" fill="#37474F"/></g></g><g><g><path d="M35,14c-1.103,0-2-0.897-2-2s0.897-2,2-2s2,0.897,2,2S36.103,14,35,14z M35,11c-0.551,0-1,0.448-1,1     s0.449,1,1,1s1-0.448,1-1S35.551,11,35,11z" fill="#37474F"/></g></g><g><g><path d="M29,14c-1.103,0-2-0.897-2-2s0.897-2,2-2s2,0.897,2,2S30.103,14,29,14z M29,11c-0.551,0-1,0.448-1,1     s0.449,1,1,1s1-0.448,1-1S29.551,11,29,11z" fill="#37474F"/></g></g><g><g><path d="M46.5,22.987l0.9,4.063L46.5,22.987z" fill="#FFFFFF"/></g><g><path d="M47.4,27.55c-0.229,0-0.436-0.158-0.488-0.392l-0.9-4.063c-0.06-0.27,0.11-0.537,0.38-0.597     c0.27-0.059,0.537,0.109,0.597,0.38l0.9,4.063c0.06,0.27-0.11,0.537-0.38,0.597C47.472,27.546,47.436,27.55,47.4,27.55z" fill="#37474F"/></g></g><g><g><path d="M48.625,22.5l1,4.063L48.625,22.5z" fill="#FFFFFF"/></g><g><path d="M49.625,27.063c-0.225,0-0.429-0.152-0.485-0.381l-1-4.063c-0.066-0.268,0.098-0.539,0.366-0.604     c0.269-0.064,0.539,0.098,0.605,0.366l1,4.063c0.066,0.268-0.098,0.539-0.366,0.604C49.705,27.058,49.664,27.063,49.625,27.063z" fill="#37474F"/></g></g><g><g><path d="M17.625,22.987l-0.9,4.063L17.625,22.987z" fill="#FFFFFF"/></g><g><path d="M16.726,27.55c-0.036,0-0.072-0.004-0.108-0.012c-0.27-0.06-0.44-0.327-0.38-0.597l0.9-4.063     c0.06-0.269,0.328-0.438,0.596-0.38c0.27,0.06,0.44,0.327,0.38,0.597l-0.9,4.063C17.162,27.391,16.955,27.55,16.726,27.55z" fill="#37474F"/></g></g><g><g><path d="M15.5,22.5l-1,4.063L15.5,22.5z" fill="#FFFFFF"/></g><g><path d="M14.5,27.063c-0.04,0-0.08-0.005-0.12-0.015c-0.268-0.065-0.432-0.337-0.366-0.604l1-4.063     c0.066-0.269,0.339-0.43,0.605-0.366c0.268,0.065,0.432,0.337,0.366,0.604l-1,4.063C14.929,26.91,14.725,27.063,14.5,27.063z" fill="#37474F"/></g></g><g><g><path d="M43.202,48.517l-5.417,1.481L43.202,48.517z" fill="#FFFFFF"/></g><g><path d="M37.785,50.498c-0.22,0-0.421-0.146-0.482-0.368c-0.073-0.267,0.084-0.541,0.351-0.614l5.417-1.481     c0.264-0.068,0.541,0.084,0.614,0.351c0.073,0.267-0.084,0.541-0.351,0.614l-5.417,1.481     C37.873,50.492,37.829,50.498,37.785,50.498z" fill="#37474F"/></g></g><g><g><path d="M43.701,50.417l-5.216,1.481L43.701,50.417z" fill="#FFFFFF"/></g><g><path d="M38.485,52.398c-0.218,0-0.418-0.144-0.48-0.363c-0.076-0.266,0.079-0.542,0.344-0.618l5.216-1.481     c0.267-0.073,0.542,0.079,0.618,0.345s-0.079,0.542-0.344,0.618l-5.216,1.481C38.576,52.393,38.53,52.398,38.485,52.398z" fill="#37474F"/></g></g><g><g><path d="M20.783,48.517l5.417,1.481L20.783,48.517z" fill="#FFFFFF"/></g><g><path d="M26.2,50.498c-0.044,0-0.088-0.006-0.132-0.018l-5.417-1.481c-0.267-0.073-0.423-0.348-0.351-0.614     c0.073-0.267,0.351-0.42,0.614-0.351l5.417,1.481c0.267,0.073,0.423,0.348,0.351,0.614C26.621,50.353,26.42,50.498,26.2,50.498z" fill="#37474F"/></g></g><g><g><path d="M20.284,50.417l5.216,1.481L20.284,50.417z" fill="#FFFFFF"/></g><g><path d="M25.5,52.398c-0.045,0-0.091-0.006-0.137-0.019l-5.216-1.481c-0.266-0.076-0.42-0.353-0.344-0.618     c0.075-0.266,0.349-0.419,0.618-0.345l5.216,1.481c0.266,0.076,0.42,0.353,0.344,0.618C25.918,52.255,25.718,52.398,25.5,52.398z     " fill="#37474F"/></g></g><g><g><g><path d="M36.5,26.435L32.099,23.5l4.401-2.935V26.435z M33.901,23.5l1.599,1.065v-2.131L33.901,23.5z" fill="#37474F"/></g></g><g><path d="M27.5,26.435v-5.869l4.401,2.935L27.5,26.435z M28.5,22.435v2.131l1.599-1.065L28.5,22.435z" fill="#37474F"/></g></g><g><g><g><path d="M48.5,18.5c-0.276,0-0.5-0.224-0.5-0.5c0-0.793-0.377-1.17-0.854-1.647      C46.636,15.842,46,15.206,46,13.998s0.636-1.844,1.146-2.354C47.623,11.166,48,10.789,48,9.996c0-0.276,0.224-0.5,0.5-0.5      S49,9.72,49,9.996c0,1.208-0.636,1.844-1.146,2.354C47.377,12.828,47,13.205,47,13.998s0.377,1.17,0.854,1.647      C48.364,16.156,49,16.792,49,18C49,18.276,48.776,18.5,48.5,18.5z" fill="#37474F"/></g></g><g><g><path d="M53.5,17.5c-0.276,0-0.5-0.224-0.5-0.5c0-0.793-0.377-1.17-0.854-1.647      C51.636,14.842,51,14.206,51,12.998s0.636-1.844,1.146-2.354C52.623,10.166,53,9.789,53,8.996c0-0.791-0.376-1.168-0.853-1.644      c-0.308-0.308-0.657-0.656-0.886-1.138c-0.119-0.249-0.013-0.548,0.236-0.666c0.25-0.12,0.548-0.013,0.666,0.236      c0.155,0.325,0.415,0.585,0.69,0.859C53.364,7.155,54,7.79,54,8.996c0,1.208-0.636,1.844-1.146,2.354      C52.377,11.828,52,12.205,52,12.998s0.377,1.17,0.854,1.647C53.364,15.156,54,15.792,54,17C54,17.276,53.776,17.5,53.5,17.5z" fill="#37474F"/></g></g><g><g><path d="M15.5,18.5c-0.276,0-0.5-0.224-0.5-0.5c0-1.208,0.636-1.844,1.146-2.354      C16.623,15.168,17,14.791,17,13.998s-0.377-1.17-0.854-1.647C15.636,11.84,15,11.204,15,9.996c0-0.276,0.224-0.5,0.5-0.5      S16,9.72,16,9.996c0,0.793,0.377,1.17,0.854,1.647C17.364,12.154,18,12.79,18,13.998s-0.636,1.844-1.146,2.354      C16.377,16.83,16,17.207,16,18C16,18.276,15.776,18.5,15.5,18.5z" fill="#37474F"/></g></g><g><g><path d="M10.5,17.5c-0.276,0-0.5-0.224-0.5-0.5c0-1.208,0.636-1.844,1.146-2.354      C11.623,14.168,12,13.791,12,12.998s-0.377-1.17-0.854-1.647C10.636,10.84,10,10.204,10,8.996c0-1.206,0.636-1.841,1.146-2.352      c0.275-0.274,0.535-0.534,0.69-0.859c0.118-0.249,0.417-0.356,0.666-0.236c0.25,0.118,0.355,0.417,0.236,0.666      c-0.229,0.481-0.578,0.83-0.886,1.138C11.376,7.828,11,8.205,11,8.996c0,0.793,0.377,1.17,0.854,1.647      C12.364,11.154,13,11.79,13,12.998s-0.636,1.844-1.146,2.354C11.377,15.83,11,16.207,11,17C11,17.276,10.776,17.5,10.5,17.5z" fill="#37474F"/></g></g><g><path d="M27.482,21.77c0.228,0.138,0.392,0.264,0.518,0.378V21.5l1.308,0.872     c-0.106-0.45-0.485-0.961-1.308-1.458c-2.417-1.461-4-3.955-4-6.914c0-4.418,3.582-8,8-8c4.418,0,8,3.582,8,8     c0,2.959-1.75,5.625-4,6.914c-0.784,0.449-1.146,0.955-1.244,1.415L36,21.5v0.65c0.118-0.114,0.267-0.236,0.497-0.368     C39.232,20.215,41,17.16,41,14c0-4.963-4.038-9-9-9s-9,4.037-9,9C23,17.168,24.676,20.073,27.482,21.77z" fill="#37474F"/><path d="M55.392,23.024c-0.46-2.075-2.266-3.524-4.391-3.524c-0.327,0-0.655,0.035-0.977,0.106     c-0.123,0.027-11.538,2.603-14.025,3.12v1.021c2.035-0.411,14.24-3.165,14.24-3.165c0.255-0.057,0.51-0.083,0.761-0.083     c1.607,0,3.052,1.108,3.415,2.741c0.42,1.887-0.77,3.756-2.656,4.176l-8.189,1.819c-3.234,0.719-3.938,3.826-2.804,6.939     l4.993,16.457c0.754,2.076-0.316,4.371-2.393,5.126c-0.451,0.164-0.913,0.242-1.367,0.242c-1.635,0-3.168-1.009-3.76-2.634     l-3.12-8.581c-0.862-2.37-1.991-3.555-3.12-3.555c-1.129,0-2.259,1.185-3.12,3.555c-1.724,4.739-3.121,8.581-3.121,8.581     c-0.591,1.625-2.125,2.634-3.76,2.634c-0.454,0-0.915-0.078-1.367-0.242c-2.076-0.755-3.147-3.05-2.392-5.126l4.993-16.457     c1.134-3.113,0.43-6.221-2.804-6.939l-8.188-1.819c-1.887-0.42-3.077-2.289-2.657-4.176c0.362-1.634,1.814-2.741,3.418-2.741     c0.25,0,0.503,0.027,0.757,0.083c0,0,12.278,2.769,14.241,3.165v-1.021c-2.421-0.504-13.901-3.093-14.021-3.119     c-0.324-0.071-0.651-0.107-0.977-0.107c-2.093,0-3.942,1.482-4.395,3.524c-0.539,2.421,0.994,4.83,3.416,5.369l8.189,1.819     c0.987,0.219,1.696,0.71,2.107,1.46c0.569,1.037,0.56,2.554-0.025,4.161l-0.01,0.025l-0.008,0.026l-4.985,16.432     c-0.923,2.584,0.417,5.442,3,6.381c0.553,0.201,1.127,0.303,1.708,0.303c2.095,0,3.984-1.323,4.7-3.292l3.121-8.581     c0.777-2.138,1.66-2.896,2.18-2.896s1.403,0.759,2.18,2.896l3.12,8.581c0.717,1.969,2.606,3.292,4.7,3.292     c0.582,0,1.157-0.102,1.709-0.303c2.581-0.938,3.922-3.796,3-6.38l-4.986-16.433l-0.008-0.026l-0.01-0.025     c-0.585-1.607-0.594-3.124-0.026-4.161c0.411-0.75,1.12-1.241,2.107-1.46l8.189-1.819C54.399,27.854,55.931,25.445,55.392,23.024     z" fill="#37474F"/></g></g></g></svg>