<?xml version="1.0" ?><!DOCTYPE svg  PUBLIC '-//W3C//DTD SVG 1.1//EN'  'http://www.w3.org/Graphics/SVG/1.1/DTD/svg11.dtd'><svg enable-background="new 0 0 64 64" height="64px" id="Layer_1" version="1.1" viewBox="0 0 64 64" width="64px" xml:space="preserve" xmlns="http://www.w3.org/2000/svg" xmlns:xlink="http://www.w3.org/1999/xlink"><g id="gifts_1_"><g id="Gift_3_"><g><g><g><path d="M43.305,10.543c-0.042-0.043-0.093-0.092-0.144-0.14c0.29,0.643,0.454,1.179,0.41,1.469       c0,0-0.237-0.127-0.646-0.28c0.077,0.103,0.131,0.194,0.146,0.265c-0.099,3.444-6.148,5.4-11.013,6.328       c0.384-0.23,0.808-0.494,1.268-0.783c0.543-0.341,1.025-0.645,1.321-0.799c3.545-1.862,4.697-4.034,5.035-5.553       c-0.339,0.008-0.697,0.045-1.063,0.1c-0.381,1.287-1.476,3.013-4.436,4.566c-0.311,0.164-0.817,0.48-1.388,0.839       c-0.774,0.486-1.871,1.175-2.521,1.47c-0.01-0.007-0.025-0.01-0.036-0.017c-0.065,0.104-0.121,0.202-0.182,0.305h5.848       c4.038-1.152,8.072-3.125,8.167-6.427C44.083,11.513,43.845,11.099,43.305,10.543z" fill="#37474F"/><g><path d="M41.148,6.303C40.144,5.136,39.594,5,39.268,5c-8.417,0-11.223,10.165-11.89,13.313h1.021        C29.091,15.146,31.745,6,39.267,6c0.101,0.005,0.531,0.224,1.296,1.163c1.06,1.297,1.956,2.916,2.331,3.883        c-0.694-0.238-1.742-0.5-3.005-0.5c-1.831,0-3.574,0.544-5.183,1.615c-1.808,1.205-3.963,3.952-5.217,6.115        c-0.035,0.01-0.082,0.024-0.124,0.036h1.275c1.2-1.943,3.083-4.294,4.621-5.319c1.441-0.96,2.998-1.447,4.628-1.447        c2.009,0,3.43,0.758,3.443,0.765l0.627,0.34l0.106-0.704C44.234,10.837,42.44,7.806,41.148,6.303z" fill="#37474F"/></g></g></g><g><g><path d="M26.021,18.313c-0.062-0.103-0.117-0.2-0.182-0.305c-0.011,0.006-0.026,0.01-0.036,0.017       c-0.65-0.295-1.747-0.983-2.521-1.47c-0.57-0.358-1.077-0.675-1.388-0.839c-2.96-1.553-4.055-3.279-4.436-4.566       c-0.366-0.055-0.724-0.092-1.063-0.1c0.337,1.519,1.489,3.69,5.035,5.553c0.296,0.154,0.778,0.458,1.321,0.799       c0.461,0.29,0.886,0.555,1.271,0.785c-4.865-0.927-10.917-2.877-11.017-6.307c0.016-0.078,0.081-0.182,0.167-0.296       c-0.423,0.157-0.667,0.289-0.667,0.289c-0.044-0.29,0.12-0.827,0.41-1.469c-0.05,0.048-0.102,0.097-0.144,0.14       c-0.54,0.556-0.777,0.97-0.767,1.343c0.095,3.301,4.13,5.275,8.167,6.427H26.021z" fill="#37474F"/><g><path d="M25.437,18.313h1.275c-0.042-0.012-0.089-0.026-0.124-0.036c-1.254-2.163-3.409-4.91-5.217-6.115        c-1.608-1.071-3.352-1.615-5.183-1.615c-1.263,0-2.311,0.262-3.005,0.5c0.375-0.967,1.271-2.586,2.331-3.883        C16.279,6.224,16.709,6.005,16.809,6c7.517,0,10.175,9.147,10.869,12.313h1.021C28.033,15.165,25.229,5,16.809,5        c-0.326,0-0.876,0.136-1.88,1.303c-1.292,1.503-3.086,4.534-2.918,5.644l0.107,0.707l0.627-0.344        c0.014-0.008,1.418-0.764,3.442-0.764c1.63,0,3.187,0.487,4.628,1.447C22.354,14.018,24.237,16.369,25.437,18.313z" fill="#37474F"/></g></g></g></g><g><g><path d="M42,30H5V18h37V30z M6,29h35V19H6V29z" fill="#37474F"/></g></g></g><g><path d="M54,30H41V18h13V30z M42,29h11V19H42V29z" fill="#37474F"/></g><g><polygon fill="#37474F" points="40,29 40,35 41,35 41,30 51,30 51,35 52,35 52,29   "/><polygon fill="#37474F" points="45,35 45,30 47,30 47,35 48,35 48,29 44,29 44,35   "/><g><polygon fill="#37474F" points="41,35 41,29 40,30 40,35    "/><polygon fill="#37474F" points="8,56 8,31 7,31 7,57 23,57 23,56    "/></g><polygon fill="#37474F" points="21,56 21,30 27,30 27,35 28,35 28,29 20,29 20,57 23,57 23,56   "/><g><g><path d="M24,36v23h35V36H24z M58,58H48V37h10V58z M25,58V37h22v21H25z" fill="#37474F"/></g></g><g><g><g><path d="M58,44.6v9.6L56.417,58h-4L58,44.6L58,44.6z M59,39.6l-1.923,4.615l-5.583,13.4L50.917,59h1.5h4h0.667       l0.256-0.615l1.583-3.8L59,54.4v-0.2v-9.6V39.6L59,39.6z" fill="#37474F"/></g></g></g></g><g><polygon fill="#37474F" points="49,20 49,29 46,29 46,20 45,20 45,30 50,30 50,20   "/></g><g><polygon fill="#37474F" points="28.077,38 25,46 25,38 24,38 24,46 24,51.386 25.934,46.359 29.148,38   "/><polygon fill="#37474F" points="37.077,38 29.385,58 25.385,58 33.077,38 32.006,38 24.451,57.641 23.929,59 25.385,59 29.385,59     30.072,59 30.318,58.359 38.148,38   "/><polygon fill="#37474F" points="46,58 43.385,58 46,51.2 46,48.415 42.451,57.641 41.929,59 43.385,59 46,59   "/><polygon fill="#37474F" points="46,38.199 38.385,58 34.385,58 42.077,38 41.006,38 33.451,57.641 32.929,59 34.385,59 38.385,59     39.072,59 39.318,58.359 46,40.985   "/><polygon fill="#37474F" points="27,20 27,29 20,29 20,20 19,20 19,30 28,30 28,20   "/></g><g><polygon fill="#37474F" points="55.077,38 48,56.4 48,46 51.077,38 50.005,38 47.067,45.641 47,45.814 47,59 48.216,59     48.934,56.947 56.148,38   "/></g></g></svg>