<?xml version="1.0" ?><!DOCTYPE svg  PUBLIC '-//W3C//DTD SVG 1.1//EN'  'http://www.w3.org/Graphics/SVG/1.1/DTD/svg11.dtd'><svg enable-background="new 0 0 48 48" height="48px" id="Layer_4" version="1.1" viewBox="0 0 48 48" width="48px" xml:space="preserve" xmlns="http://www.w3.org/2000/svg" xmlns:xlink="http://www.w3.org/1999/xlink"><g><path d="M22.085,23.615c-0.125,0.979,0.464,1.25,1.128,1.042c0.92-0.27,0.914-2.125,0.914-2.125   S22.21,22.635,22.085,23.615z" fill="#241F20"/><path d="M5.211,23.615c-0.125,0.979,0.464,1.25,1.128,1.042c0.92-0.27,0.914-2.125,0.914-2.125   S5.336,22.635,5.211,23.615z" fill="#241F20"/><ellipse cx="35.736" cy="22.443" fill="#241F20" rx="1.141" ry="2.204"/><path d="M0,9v30h48V9H0z M23.252,20.136c-1-0.125-1.229,0.75-1.229,0.75h-0.732l-0.039,0.062l-0.896-0.062   c0,0,0.5-2.229,2.938-2.208c2.437,0.021,2.562,2.062,2.562,2.062v3.583l0.543,0.668l-1.188,1.146l-0.959-0.792   c0,0-0.516,0.553-1.161,0.732c-0.002,0.001-0.001,0.003-0.003,0.004c-0.01,0.004-0.028,0.007-0.04,0.01   c-0.019,0.005-0.038,0.01-0.057,0.014c-0.416,0.095-1.5,0.096-1.885-0.156c-2.375-2.083-0.271-3.77,1.042-4.104   s1.958-0.479,1.958-0.479S24.252,20.261,23.252,20.136z M10.419,18.927h1.729v0.854c0,0,0.583-0.833,1.729-0.854   s1.583,1.125,1.583,1.125c0.166-0.621,1.125-1.146,1.875-1.125c1.938-0.042,1.729,2.646,1.729,2.646v4.589h-1.729v-4.464   c0-0.521-0.188-1.25-0.875-1.25s-0.854,0.896-0.854,0.896v4.818h-1.729v-4.63c0-0.583-0.25-1.208-0.896-1.167   s-0.833,0.979-0.833,0.979v4.818h-1.729V18.927z M7.377,25.344c0,0-0.516,0.553-1.161,0.732c-0.002,0.001-0.001,0.003-0.003,0.004   c-0.01,0.004-0.028,0.007-0.04,0.01c-0.019,0.005-0.038,0.01-0.057,0.014c-0.416,0.095-1.5,0.096-1.885-0.156   c-2.375-2.083-0.271-3.77,1.042-4.104s1.958-0.479,1.958-0.479s0.146-1.104-0.854-1.229s-1.229,0.75-1.229,0.75H4.416l-0.039,0.062   l-0.896-0.062c0,0,0.5-2.229,2.938-2.208s2.562,2.062,2.562,2.062v3.583l0.542,0.668l-1.188,1.146L7.377,25.344z M22.044,31.24   c-9.208,0.792-12.875-4.333-12.875-4.333s6.344,2.834,10.86,2.75s9.306-1.5,9.306-1.5S25.627,31.032,22.044,31.24z M29.416,30.435   c0.164-0.389,0.711-2.736,0.586-3.111c-0.938-0.354-2.906,0-2.906,0c0.406-0.5,2.886-1.542,3.989-0.979   C31.501,28.512,30.189,30.073,29.416,30.435z M32.002,25.959c0,0-2.438-1.047-4.906,0V25.74v-0.531v-0.836l0.007,0.008l1.623-2.654   l0.933-1.331h-2.344v-1.47h4.688v1.47l-2.147,2.871l-0.385,0.651c0.001,0,0.001,0,0.002-0.001c1.242,0.001,2.21,0.336,2.465,0.434   c0.022,0.018,0.043,0.027,0.065,0.045C32.033,25.459,32.002,25.959,32.002,25.959z M35.736,26.146   c-1.665,0-3.016-1.658-3.016-3.705c0-2.045,1.351-3.703,3.016-3.703s3.016,1.658,3.016,3.703   C38.752,24.488,37.401,26.146,35.736,26.146z M44.846,26.146h-1.875v-4.563c0-0.703-0.219-1.203-0.859-1.219   s-0.859,0.984-0.859,0.984v4.797h-1.875v-7.22h1.875v1.032c0,0,0.25-1.033,1.875-1.032c1.315,0.001,1.623,1.385,1.694,2.313h0.024   V26.146z" fill="#241F20"/></g></svg>