<?xml version="1.0" ?><!DOCTYPE svg  PUBLIC '-//W3C//DTD SVG 1.1//EN'  'http://www.w3.org/Graphics/SVG/1.1/DTD/svg11.dtd'><svg enable-background="new 0 0 1024 1024" height="1024px" id="Layer_1" version="1.1" viewBox="0 0 1024 1024" width="1024px" xml:space="preserve" xmlns="http://www.w3.org/2000/svg" xmlns:xlink="http://www.w3.org/1999/xlink"><g><path d="M395.906,0h424.853c33,0,60,27,60,60v904c0,33-27,60-60,60H206.901c-33,0-60-27-60-60V249.004" fill="#C6C6C6"/><path d="M395.906,0v189.004c0,33-27,60-60,60H146.901" fill="#E67E22"/></g><g><path d="M81.83,670.833h65.071V585l-70.946,88.375h0.012C77.167,671.805,79.198,670.833,81.83,670.833z" fill="#262626"/><path d="M945.83,670.833h-65.071V585l70.946,88.375h-0.012C950.493,671.805,948.462,670.833,945.83,670.833z" fill="#262626"/><path d="M884.273,861.471c-1.934,5.149-8.015,9.362-13.515,9.362H156.901c-5.5,0-11.582-4.213-13.514-9.362   L75.344,680.195c-1.933-5.149,0.986-9.362,6.486-9.362h864c5.5,0,8.419,4.213,6.486,9.362L884.273,861.471z" fill="#E67E22"/></g><g><path d="M335.865,818.323c0-5.013,1.483-8.881,4.454-11.606c2.969-2.724,7.287-4.087,12.955-4.087   c5.394,0,9.534,1.363,12.423,4.087c2.888,2.726,4.332,6.594,4.332,11.606c0,4.903-1.485,8.732-4.454,11.483   c-2.971,2.751-7.07,4.127-12.301,4.127c-5.395,0-9.645-1.362-12.751-4.086C337.418,827.123,335.865,823.282,335.865,818.323z" fill="#FFFFFF"/><path d="M421.93,831.891h-31.794V712.396h70.618v25.909H421.93v22.804h35.8v25.909h-35.8V831.891z" fill="#FFFFFF"/><path d="M588.012,831.891H550.66l-23.294-37.353l-23.049,37.353h-36.534l39.641-61.137l-37.271-58.357h35.799   l21.577,36.943l20.76-36.943h36.863l-37.844,60.892L588.012,831.891z" fill="#FFFFFF"/><path d="M688.135,750.402c0,13.351-3.936,23.662-11.811,30.937c-7.873,7.273-19.057,10.911-33.551,10.911h-9.072   v39.641h-32.285V712.396h41.357c15.092,0,26.428,3.297,34.002,9.89C684.348,728.88,688.135,738.252,688.135,750.402z    M633.701,765.932h5.885c4.85,0,8.705-1.361,11.564-4.087c2.861-2.724,4.291-6.483,4.291-11.279   c0-8.063-4.467-12.097-13.404-12.097h-8.336V765.932z" fill="#FFFFFF"/></g><g><g><path d="M729.983,369.821c0,8.25-9,15-20,15H314.852c-11,0-20-6.75-20-15s9-15,20-15h395.132    C720.983,354.821,729.983,361.571,729.983,369.821z" fill="#E67E22"/></g><g><path d="M729.148,459.821c0,8.25-9,15-20,15H314.017c-11,0-20-6.75-20-15s9-15,20-15h395.132    C720.148,444.821,729.148,451.571,729.148,459.821z" fill="#E67E22"/></g><g><path d="M729.983,550.016c0,8.25-9,15-20,15H314.852c-11,0-20-6.75-20-15s9-15,20-15h395.132    C720.983,535.016,729.983,541.766,729.983,550.016z" fill="#E67E22"/></g></g></svg>