<?xml version="1.0" ?><svg enable-background="new 0 0 24 24" id="Layer_1" version="1.1" viewBox="0 0 24 24" xml:space="preserve" xmlns="http://www.w3.org/2000/svg" xmlns:xlink="http://www.w3.org/1999/xlink"><g><path d="M22,23.5H2   c-0.8284271,0-1.5-0.6715736-1.5-1.5V2c0-0.8284271,0.6715729-1.5,1.5-1.5h20c0.8284264,0,1.5,0.6715729,1.5,1.5v20   C23.5,22.8284264,22.8284264,23.5,22,23.5z" fill="none" stroke="#303C42" stroke-linecap="round" stroke-linejoin="round" stroke-miterlimit="10"/><line fill="none" stroke="#303C42" stroke-linecap="round" stroke-linejoin="round" stroke-miterlimit="10" x1="15" x2="15" y1="17.5" y2="16.5"/><line fill="none" stroke="#303C42" stroke-linecap="round" stroke-linejoin="round" stroke-miterlimit="10" x1="8" x2="8" y1="17.5" y2="16.5"/><polygon fill="none" points="15.5,19.5    15.5,17.5 13.5,17.5 13.5,15.5 11.5,15.5 9.5,15.5 9.5,17.5 7.5,17.5 7.5,19.5 5.5,19.5 5.5,21.5 9.5,21.5 9.5,20.5 13.5,20.5    13.5,21.5 17.5,21.5 17.5,19.5  " stroke="#303C42" stroke-linecap="round" stroke-linejoin="round" stroke-miterlimit="10"/><line fill="none" stroke="#303C42" stroke-linecap="round" stroke-linejoin="round" stroke-miterlimit="10" x1="11.5" x2="11.5" y1="15.5" y2="13.5"/><line fill="none" stroke="#303C42" stroke-linecap="round" stroke-linejoin="round" stroke-miterlimit="10" x1="11.5" x2="11.5" y1="11.5" y2="10.5"/><line fill="none" stroke="#303C42" stroke-linecap="round" stroke-linejoin="round" stroke-miterlimit="10" x1="11.5" x2="11.5" y1="8.5" y2="7.5"/><rect fill="none" height="2" stroke="#303C42" stroke-linecap="round" stroke-linejoin="round" stroke-miterlimit="10" width="3" x="3.5" y="4.5"/><line fill="none" stroke="#303C42" stroke-linecap="round" stroke-linejoin="round" stroke-miterlimit="10" x1="5" x2="5" y1="6.5" y2="7.5"/><rect fill="none" height="2" stroke="#303C42" stroke-linecap="round" stroke-linejoin="round" stroke-miterlimit="10" width="3" x="10.5" y="2.5"/><line fill="none" stroke="#303C42" stroke-linecap="round" stroke-linejoin="round" stroke-miterlimit="10" x1="12" x2="12" y1="4.5" y2="5.5"/><rect fill="none" height="2" stroke="#303C42" stroke-linecap="round" stroke-linejoin="round" stroke-miterlimit="10" width="3" x="17.5" y="6.5"/><line fill="none" stroke="#303C42" stroke-linecap="round" stroke-linejoin="round" stroke-miterlimit="10" x1="19" x2="19" y1="8.5" y2="9.5"/></g><g/><g/><g/><g/><g/><g/><g/><g/><g/><g/><g/><g/><g/><g/><g/></svg>