<?xml version="1.0" ?><svg enable-background="new 0 0 24 24" id="Layer_1" version="1.1" viewBox="0 0 24 24" xml:space="preserve" xmlns="http://www.w3.org/2000/svg" xmlns:xlink="http://www.w3.org/1999/xlink"><g><circle cx="12" cy="12" fill="none" r="11.5" stroke="#303C42" stroke-linecap="round" stroke-linejoin="round" stroke-miterlimit="10"/><path d="M13.0769997,14   c-0.03125,0-0.0628004-0.0096149-0.0895424-0.0286961l-0.98738-0.7053785l-0.98738,0.7053785   C10.9859543,13.9903851,10.9544039,14,10.9231539,14c-0.0294466,0-0.0591946-0.008564-0.0850363-0.0255413   c-0.0528841-0.0351563-0.0790262-0.0994587-0.0652037-0.1616583l0.2878599-1.2944708l-1.0069103-0.8631315   c-0.0465746-0.039813-0.0649042-0.1035156-0.046875-0.1621094c0.0180283-0.0584431,0.0691099-0.100811,0.1298075-0.1075716   l1.2908649-0.1433296l0.4284859-1.1424274C11.8786831,10.039814,11.9360743,10,12.0000772,10   c0.064002,0,0.1213942,0.039814,0.1439304,0.0997601l0.4284849,1.1424274l1.2908659,0.1433296   c0.0606966,0.0067606,0.1117783,0.0491285,0.1298075,0.1075716c0.0180292,0.0585938-0.0003004,0.1222963-0.046875,0.1621094   l-1.0069113,0.8631315l0.2878609,1.2944708c0.0138216,0.0621996-0.0123196,0.126502-0.0652046,0.1616583   C13.1361952,13.991436,13.1064472,14,13.0769997,14z" fill="none" stroke="#303C42" stroke-linecap="round" stroke-linejoin="round" stroke-miterlimit="10"/><path d="M9.5769997,8.5   c-0.03125,0-0.0628004-0.0096149-0.0895424-0.0286961l-0.98738-0.7053785l-0.98738,0.7053785   C7.4859543,8.4903851,7.4544039,8.5,7.4231539,8.5c-0.0294471,0-0.0591946-0.008564-0.0850358-0.0255413   C7.2852335,8.4393024,7.2590914,8.375,7.2729135,8.3128004l0.2878609-1.2944713L6.553863,6.1551981   C6.5072885,6.1153846,6.4889593,6.0516825,6.506988,5.9930887c0.0180287-0.0584431,0.0691104-0.100811,0.1298079-0.1075721   l1.2908649-0.1433291l0.4284859-1.1424279C8.3786831,4.5398135,8.4360743,4.5,8.5000772,4.5   c0.064002,0,0.1213942,0.0398135,0.1439304,0.0997596l0.4284849,1.1424279l1.2908659,0.1433291   c0.0606966,0.0067611,0.1117783,0.049129,0.1298075,0.1075721c0.0180292,0.0585938-0.0003004,0.1222959-0.046875,0.1621094   l-1.0069113,0.863131l0.2878609,1.2944713C9.7410622,8.375,9.714921,8.4393024,9.6620359,8.4744587   C9.6361952,8.491436,9.6064472,8.5,9.5769997,8.5z" fill="none" stroke="#303C42" stroke-linecap="round" stroke-linejoin="round" stroke-miterlimit="10"/><path d="M16.5769997,8.5   c-0.03125,0-0.0627995-0.0096149-0.0895424-0.0286961l-0.98738-0.7053785l-0.98738,0.7053785   C14.4859543,8.4903851,14.4544039,8.5,14.4231539,8.5c-0.0294466,0-0.0591946-0.008564-0.0850363-0.0255413   C14.2852335,8.4393024,14.2590914,8.375,14.2729139,8.3128004l0.2878599-1.2944713l-1.0069103-0.863131   c-0.0465746-0.0398135-0.0649042-0.1035156-0.046875-0.1621094c0.0180283-0.0584431,0.0691099-0.100811,0.1298075-0.1075721   l1.2908649-0.1433291l0.4284859-1.1424279C15.3786831,4.5398135,15.4360743,4.5,15.5000772,4.5   c0.064002,0,0.1213942,0.0398135,0.1439304,0.0997596l0.4284849,1.1424279l1.2908649,0.1433291   c0.0606976,0.0067611,0.1117802,0.049129,0.1298084,0.1075721c0.0180283,0.0585938-0.0003014,0.1222959-0.046875,0.1621094   l-1.0069103,0.863131l0.287859,1.2944713C16.7410622,8.375,16.71492,8.4393024,16.6620369,8.4744587   C16.6361942,8.491436,16.6064472,8.5,16.5769997,8.5z" fill="none" stroke="#303C42" stroke-linecap="round" stroke-linejoin="round" stroke-miterlimit="10"/><path d="M9.5769997,19.5   c-0.03125,0-0.0628004-0.0096149-0.0895424-0.0286961l-0.98738-0.7053776l-0.98738,0.7053776   C7.4859543,19.4903851,7.4544039,19.5,7.4231539,19.5c-0.0294471,0-0.0591946-0.008564-0.0850358-0.0255413   C7.2852335,19.4393024,7.2590914,19.375,7.2729135,19.3128014l0.2878609-1.2944717L6.553863,17.1551991   c-0.0465746-0.039814-0.0649037-0.1035156-0.046875-0.1621094c0.0180287-0.058445,0.0691104-0.1008129,0.1298079-0.1075726   l1.2908649-0.1433296l0.4284859-1.1424274C8.3786831,15.539814,8.4360743,15.5,8.5000772,15.5   c0.064002,0,0.1213942,0.039814,0.1439304,0.0997601l0.4284849,1.1424274l1.2908659,0.1433296   c0.0606966,0.0067596,0.1117783,0.0491276,0.1298075,0.1075726c0.0180292,0.0585938-0.0003004,0.1222954-0.046875,0.1621094   l-1.0069113,0.8631306l0.2878609,1.2944717C9.7410622,19.375,9.714921,19.4393024,9.6620359,19.4744587   C9.6361952,19.491436,9.6064472,19.5,9.5769997,19.5z" fill="none" stroke="#303C42" stroke-linecap="round" stroke-linejoin="round" stroke-miterlimit="10"/><path d="M16.5769997,19.5   c-0.03125,0-0.0627995-0.0096149-0.0895424-0.0286961l-0.98738-0.7053776l-0.98738,0.7053776   C14.4859543,19.4903851,14.4544039,19.5,14.4231539,19.5c-0.0294466,0-0.0591946-0.008564-0.0850363-0.0255413   c-0.0528841-0.0351563-0.0790262-0.0994587-0.0652037-0.1616573l0.2878599-1.2944717l-1.0069103-0.8631306   c-0.0465746-0.039814-0.0649042-0.1035156-0.046875-0.1621094c0.0180283-0.058445,0.0691099-0.1008129,0.1298075-0.1075726   l1.2908649-0.1433296l0.4284859-1.1424274C15.3786831,15.539814,15.4360743,15.5,15.5000772,15.5   c0.064002,0,0.1213942,0.039814,0.1439304,0.0997601l0.4284849,1.1424274l1.2908649,0.1433296   c0.0606976,0.0067596,0.1117802,0.0491276,0.1298084,0.1075726c0.0180283,0.0585938-0.0003014,0.1222954-0.046875,0.1621094   l-1.0069103,0.8631306l0.287859,1.2944717c0.0138226,0.0621986-0.0123196,0.1265011-0.0652027,0.1616573   C16.6361942,19.491436,16.6064472,19.5,16.5769997,19.5z" fill="none" stroke="#303C42" stroke-linecap="round" stroke-linejoin="round" stroke-miterlimit="10"/><path d="M19.0769997,14   c-0.03125,0-0.0627995-0.0096149-0.0895424-0.0286961l-0.987381-0.7053785l-0.9873791,0.7053785   C16.9859543,13.9903851,16.9544048,14,16.9231548,14c-0.0294476,0-0.0591965-0.008564-0.0850372-0.0255413   c-0.0528851-0.0351563-0.0790253-0.0994587-0.0652046-0.1616583l0.2878609-1.2944708l-1.0069103-0.8631315   c-0.0465755-0.039813-0.0649042-0.1035156-0.046875-0.1621094c0.0180283-0.0584431,0.0691109-0.100811,0.1298065-0.1075716   l1.2908669-0.1433296l0.428484-1.1424274C17.8786831,10.039814,17.9360752,10,18.0000763,10   c0.064003,0,0.1213951,0.039814,0.1439304,0.0997601l0.4284859,1.1424274l1.2908649,0.1433296   c0.0606976,0.0067606,0.1117802,0.0491285,0.1298084,0.1075716c0.0180283,0.0585938-0.0003014,0.1222963-0.046875,0.1621094   l-1.0069103,0.8631315l0.287859,1.2944708c0.0138226,0.0621996-0.0123196,0.126502-0.0652027,0.1616583   C19.1361942,13.991436,19.1064472,14,19.0769997,14z" fill="none" stroke="#303C42" stroke-linecap="round" stroke-linejoin="round" stroke-miterlimit="10"/><path d="M7.0770001,14   c-0.03125,0-0.0628004-0.0096149-0.0895433-0.0286961l-0.9873796-0.7053785l-0.98738,0.7053785   C4.9859543,13.9903851,4.9544039,14,4.9231539,14c-0.0294471,0-0.0591946-0.008564-0.0850358-0.0255413   C4.7852335,13.9393024,4.7590914,13.875,4.7729135,13.8128004l0.2878609-1.2944708L4.053863,11.6551981   c-0.0465746-0.039813-0.0649037-0.1035156-0.046875-0.1621094c0.0180287-0.0584431,0.0691104-0.100811,0.1298079-0.1075716   l1.2908649-0.1433296l0.4284859-1.1424274C5.8786826,10.039814,5.9360747,10,6.0000772,10   c0.064002,0,0.1213942,0.039814,0.14393,0.0997601l0.4284859,1.1424274l1.2908654,0.1433296   c0.0606971,0.0067606,0.1117787,0.0491285,0.1298075,0.1075716c0.0180292,0.0585938-0.0003004,0.1222963-0.046875,0.1621094   l-1.0069113,0.8631315l0.2878609,1.2944708C7.2410626,13.875,7.214921,13.9393024,7.1620359,13.9744587   C7.1361947,13.991436,7.1064472,14,7.0770001,14z" fill="none" stroke="#303C42" stroke-linecap="round" stroke-linejoin="round" stroke-miterlimit="10"/></g><g/><g/><g/><g/><g/><g/><g/><g/><g/><g/><g/><g/><g/><g/><g/></svg>