<?xml version="1.0" ?><!DOCTYPE svg  PUBLIC '-//W3C//DTD SVG 1.1//EN'  'http://www.w3.org/Graphics/SVG/1.1/DTD/svg11.dtd'><svg enable-background="new 0 0 30 30" height="30px" id="Layer_1" version="1.1" viewBox="0 0 30 30" width="30px" xml:space="preserve" xmlns="http://www.w3.org/2000/svg" xmlns:xlink="http://www.w3.org/1999/xlink"><path d="M15,0C6.729,0,0,6.729,0,15s6.729,15,15,15s15-6.729,15-15S23.271,0,15,0z M16.254,27.482  c-4.744,0.445-8.631-1.342-11.568-5.309c0.596-0.293,1.4-0.629,2.211-0.93v1.938h7.057v-2.652l-2.047-0.008  c-0.01-0.158-0.014-0.314-0.014-0.475c1.588-0.203,3.324-0.244,5.049-0.143c1.455,0.086,2.992,0.242,4.568,0.467  c1.488,0.211,2.908,0.566,4.271,1.076C23.506,25.08,20.305,27.109,16.254,27.482z M13.914,16.656l-2.008,0.127v-2.441L13.914,16.656  z M21.371,9.739c0,0,0.027-0.011,0.092-0.011h2.004V7.086h-6.049L16.477,7.17l-0.061,0.935l-0.01,1.624l2.055-0.036  c0.01,1.914,0.016,3.828,0.021,5.741v0.27c-1.107-1.338-2.217-2.675-3.326-4.011c-1.086-1.308-2.172-2.615-3.256-3.926  c-0.393-0.476-0.867-0.707-1.508-0.707h-0.002C9.955,7.07,9.52,7.073,9.084,7.073L6.109,7.068v2.66l1.6-0.004  c0.063,0,0.127,0,0.188,0.001c0.365,0.407,0.723,0.821,1.072,1.233c-0.002,2.11-0.012,4.219-0.018,6.285  c-2.322,0.461-4.205,0.957-5.91,1.559c-1.068-3.197-1.025-8.625,3.143-12.725c2.379-2.339,5.525-3.628,8.857-3.628  c2.738,0,5.328,0.868,7.49,2.511c4.893,3.718,5.871,9.658,4.381,14.016c-0.291-0.129-0.584-0.256-0.877-0.379  c-1.48-0.633-3.037-1.111-4.631-1.43l0.006-3.063L21.371,9.739z"/></svg>