<?xml version="1.0" ?><!DOCTYPE svg  PUBLIC '-//W3C//DTD SVG 1.1//EN'  'http://www.w3.org/Graphics/SVG/1.1/DTD/svg11.dtd'><svg height="8.0433mm" style="shape-rendering:geometricPrecision; text-rendering:geometricPrecision; image-rendering:optimizeQuality; fill-rule:evenodd; clip-rule:evenodd" version="1.1" viewBox="0 0 1407 1563" width="7.2428mm" xml:space="preserve" xmlns="http://www.w3.org/2000/svg" xmlns:xlink="http://www.w3.org/1999/xlink"><defs><style type="text/css">
   <![CDATA[
    .fil0 {fill:black}
   ]]>
  </style></defs><g id="Layer_x0020_1"><path class="fil0" d="M1407 533l0 976c0,30 -24,54 -53,54l-1300 0c-30,0 -54,-24 -54,-54l0 -976c0,-24 20,-56 39,-70l611 -447c32,-23 75,-21 104,3l116 86 -424 377 210 0 -100 380 503 -447 -210 0 71 -273 452 333c20,14 35,31 35,58zm-807 439l-428 -233 0 652 1063 0 0 -659 -476 242c-48,25 -108,26 -159,-2z"/></g></svg>