<?xml version="1.0" ?><!DOCTYPE svg  PUBLIC '-//W3C//DTD SVG 1.1//EN'  'http://www.w3.org/Graphics/SVG/1.1/DTD/svg11.dtd'><svg height="512px" style="enable-background:new 0 0 512 512;" version="1.1" viewBox="0 0 512 512" width="512px" xml:space="preserve" xmlns="http://www.w3.org/2000/svg" xmlns:xlink="http://www.w3.org/1999/xlink"><g id="chrome__x2C__google__x2C__browser__x2C__social__x2C_"><g><path d="M425.681,86.349C382.233,42.901,322.187,16.07,256.029,16.07    c-66.293,0-126.344,26.831-169.785,70.278c-43.315,43.445-70.282,103.359-70.282,169.652c0,66.29,26.967,126.209,70.282,169.652    c43.44,43.447,103.492,70.276,169.785,70.276c66.158,0,126.205-26.829,169.652-70.276    c43.311-43.443,70.282-103.362,70.282-169.652C495.963,189.708,468.991,129.794,425.681,86.349z M412.394,412.499    c-39.988,39.993-95.389,64.702-156.365,64.702c-61.114,0-116.514-24.709-156.502-64.702    c-39.989-40.117-64.698-95.385-64.698-156.498c0-61.111,24.709-116.379,64.698-156.367    c39.988-39.988,95.389-64.835,156.502-64.835c60.976,0,116.376,24.847,156.365,64.835c39.989,39.988,64.836,95.256,64.836,156.367    C477.229,317.114,452.383,372.382,412.394,412.499z" style="fill:#262626;"/><path d="M187.876,238.065c0.397,0.529,1.195-1.065,1.99-1.065h0.263c0.799,0,1.594,1.461,1.862,0.403    c7.576-29.096,33.88-49.047,64.038-49.047c1.725,0,3.852,0.645,5.713,0.645c0.128,0,0.128,0,0.128,0h108.94    c0.8,0,1.595,0.223,2.129-0.709c0.394-0.529,0.394-1.02,0-1.952c-11.962-19.795-28.83-36.24-48.624-47.933    c-20.729-11.957-44.374-18.257-68.287-18.257c-41.453,0-80.242,18.767-106.151,51.187c-0.532,0.797-0.532,0.618-0.132,1.413    L187.876,238.065z" style="fill:#262626;"/><path d="M205.28,256.001c0,27.901,22.848,50.751,50.749,50.751c28.029,0,50.75-22.85,50.75-50.751    c0-28.033-22.722-50.886-50.75-50.886C228.127,205.115,205.28,227.968,205.28,256.001z" style="fill:#262626;"/><path d="M276.089,320.437c-0.667-0.672-1.462-1.06-2.262-0.795c-5.711,1.59-11.688,2.39-17.798,2.39    c-25.512,0-49.024-14.882-59.917-38.129l-54.605-94.594c-0.395-0.53-1.063-0.93-1.859-0.93c-0.797,0-1.592,0.399-1.992,0.93    c-11.29,20.328-17.404,43.308-17.404,66.692c0,32.686,11.825,64.171,33.215,89.013c21.253,24.444,50.351,40.381,82.366,45.165    c0,0.133,0.263,0.133,0.263,0.133c0.8,0,1.597-0.393,1.997-1.188l38.124-66.293C276.614,322.031,276.614,321.231,276.089,320.437z    " style="fill:#262626;"/><path d="M380.511,204h-76.788c-0.799,0-1.599,1.024-1.992,1.956c-0.27,0.799,0,1.976,0.53,2.633    c12.752,12.487,19.245,29.488,19.245,47.289c0,13.552-2.506,26.563-12.506,37.72c0,0.133,0,0.133,0,0.133l-54.187,94.593    c-0.393,0.801-0.053,1.596,0.34,2.258c0.535,0.795,1.5,1.197,2.298,1.197c35.867-0.402,69.571-14.749,95.076-40.387    c25.244-25.376,39.23-59.517,39.23-95.391c0-17.139-3.168-34.37-9.277-50.045C382.085,205.024,381.311,204,380.511,204z" style="fill:#262626;"/></g></g><g id="Layer_1"/></svg>