<?xml version="1.0" ?><!DOCTYPE svg  PUBLIC '-//W3C//DTD SVG 1.1//EN'  'http://www.w3.org/Graphics/SVG/1.1/DTD/svg11.dtd'><svg height="512px" style="enable-background:new 0 0 512 512;" version="1.1" viewBox="0 0 512 512" width="512px" xml:space="preserve" xmlns="http://www.w3.org/2000/svg" xmlns:xlink="http://www.w3.org/1999/xlink"><g id="vimeo__x2C__social__x2C__media_x2C__icon_x2C_"><g><path d="M425.614,86.346C382.172,42.9,322.253,16.066,255.96,16.066    c-66.292,0-126.209,26.834-169.652,70.279c-43.443,43.442-70.279,103.359-70.279,169.652c0,66.292,26.836,126.211,70.279,169.654    c43.443,43.447,103.359,70.281,169.652,70.281c66.293,0,126.212-26.834,169.654-70.281    c43.443-43.443,70.282-103.362,70.282-169.654C495.896,189.705,469.058,129.788,425.614,86.346z M412.465,412.365    C372.344,452.491,317.071,477.2,255.96,477.2c-61.109,0-116.379-24.709-156.367-64.835    C59.602,372.381,34.76,317.113,34.76,255.998c0-61.111,24.842-116.377,64.833-156.365C139.581,59.509,194.851,34.8,255.96,34.8    c61.111,0,116.384,24.709,156.505,64.833c39.988,39.988,64.698,95.254,64.698,156.365    C477.163,317.113,452.453,372.381,412.465,412.365z" style="fill-rule:evenodd;clip-rule:evenodd;fill:#262626;"/><path d="M274.031,206.578c28.163-17.006,43.04,6.779,28.698,33.613    c-14.352,26.836-27.501,44.235-34.282,44.235c-6.908,0-12.087-17.802-20.063-49.154c-7.968-32.683-7.968-90.87-41.579-84.361    c-32.02,6.246-73.731,56.2-73.731,56.2l9.963,13.149c0,0,20.721-16.339,27.369-8.235c7.039,8.235,33.08,106.148,41.846,124.082    c7.573,15.813,28.826,36.937,51.681,22.06c23.247-15.019,99.907-80.649,113.719-157.967    C391.342,122.88,285.321,139.089,274.031,206.578z" style="fill-rule:evenodd;clip-rule:evenodd;fill:#262626;"/></g></g><g id="Layer_1"/></svg>