<?xml version="1.0" ?><svg height="36" id="svg2" version="1.1" viewBox="0 0 36 36.000001" width="36" xmlns="http://www.w3.org/2000/svg" xmlns:cc="http://creativecommons.org/ns#" xmlns:dc="http://purl.org/dc/elements/1.1/" xmlns:inkscape="http://www.inkscape.org/namespaces/inkscape" xmlns:rdf="http://www.w3.org/1999/02/22-rdf-syntax-ns#" xmlns:sodipodi="http://sodipodi.sourceforge.net/DTD/sodipodi-0.dtd" xmlns:svg="http://www.w3.org/2000/svg"><defs id="defs4"/><g id="layer1" transform="translate(0,-1016.3622)"><path d="M 27.478516 2 C 23.335386 2 20 5.3695 20 9.5 C 20 13.632 23.335403 17 27.478516 17 C 31.620623 17 35 13.6356 35 9.5 A 0.50004994 0.50004994 0 0 0 34.960938 9.3046875 A 0.50004994 0.50004994 0 0 0 34.958984 9.3046875 C 34.84727 5.2668875 31.55052 2.0019531 27.478516 2.0019531 L 27.478516 2 z M 27.478516 3 C 31.080571 3 34 5.9094 34 9.5 C 34 13.0924 31.080588 16 27.478516 16 C 23.875288 16 21 13.096 21 9.5 C 21 5.9057 23.875305 3 27.478516 3 z M 25 6 L 25 6.0097656 L 24.976562 6.0097656 L 24.976562 7.0097656 L 26.003906 7.0097656 C 26.938191 7.0097656 27.408734 7.4511358 27.578125 8 L 25 8 L 25 9 L 27.578125 9 C 27.408278 9.5486333 26.937247 9.9921875 26.003906 9.9921875 L 25.652344 9.9921875 L 25.646484 9.9863281 L 25.640625 9.9921875 L 24.976562 9.9921875 L 24.976562 10.671875 L 24.947266 10.701172 L 24.976562 10.730469 L 24.976562 10.992188 L 25.244141 10.992188 L 28.324219 14.001953 L 29.023438 13.287109 L 26.613281 10.931641 C 27.707963 10.709473 28.410325 9.8958232 28.603516 9 L 29.96875 9 L 29.96875 8 L 28.603516 8 C 28.526224 7.6404157 28.359405 7.299929 28.125 7 L 29.96875 7 L 29.96875 6 L 25 6 z M 12.197266 9.0019531 C 9.3280825 9.0019531 7 11.320194 7 14.183594 L 7 17.273438 L 6.4589844 16.732422 A 0.50005 0.50005 0 0 0 6.0996094 16.582031 A 0.50005 0.50005 0 0 0 5.7519531 17.439453 L 7.1660156 18.853516 A 0.50005 0.50005 0 0 0 7.8730469 18.853516 L 9.2871094 17.439453 A 0.50005 0.50005 0 1 0 8.5800781 16.732422 L 8 17.3125 L 8 14.183594 C 8 11.858394 9.863268 10.001953 12.197266 10.001953 L 18.494141 10.001953 A 0.50005 0.50005 0 1 0 18.494141 9.0019531 L 12.197266 9.0019531 z M 27.472656 18 A 0.50005 0.50005 0 0 0 27.126953 18.146484 L 25.712891 19.560547 A 0.50064305 0.50064305 0 1 0 26.419922 20.269531 L 26.998047 19.689453 L 26.998047 22.818359 C 26.998047 25.143559 25.136732 27 22.802734 27 L 16.505859 27 A 0.50005 0.50005 0 1 0 16.505859 28 L 22.802734 28 C 25.671917 28 27.998047 25.681759 27.998047 22.818359 L 27.998047 19.724609 L 28.541016 20.269531 A 0.50064305 0.50064305 0 1 0 29.248047 19.560547 L 27.833984 18.146484 A 0.50005 0.50005 0 0 0 27.472656 18 z M 7.4804688 20.001953 C 3.337339 20.001953 -5.9211895e-016 23.3695 0 27.5 C 0 31.632 3.3373562 35 7.4804688 35 C 11.622577 35 15 31.6356 15 27.5 A 0.50004994 0.50004994 0 0 0 14.960938 27.304688 A 0.50004994 0.50004994 0 0 0 14.958984 27.304688 C 14.84727 23.266887 11.552473 20.003906 7.4804688 20.003906 L 7.4804688 20.001953 z M 7.4804688 21.001953 C 11.082524 21.001953 14 23.9094 14 27.5 C 14 31.0924 11.082541 34 7.4804688 34 C 3.8772412 34 1 31.096 1 27.5 C 1 23.9057 3.8772585 21.001953 7.4804688 21.001953 z M 4 24 L 4 31 L 5 31 L 5 25.001953 L 6.796875 25.001953 C 7.3798222 25.001953 7.6511586 25.103462 7.7753906 25.226562 C 7.8996227 25.349563 8 25.612753 8 26.189453 L 8 29.195312 L 9 29.195312 L 9 26.189453 C 9 25.500353 8.8867286 24.919925 8.4785156 24.515625 C 8.0703027 24.111225 7.4900278 24.001953 6.796875 24.001953 L 5 24.001953 L 5 24 L 4 24 z M 9.9707031 24.083984 L 9.9707031 28.742188 C 9.9707031 29.347188 9.866271 29.614553 9.7167969 29.751953 C 9.5673227 29.889353 9.2323547 30 8.5703125 30 L 7 30 L 7 26.001953 L 6 26.001953 L 6 31 L 7 31 L 8.5703125 31 C 9.3324803 31 9.9478049 30.897181 10.392578 30.488281 C 10.837351 30.079481 10.970703 29.466588 10.970703 28.742188 L 10.970703 24.083984 L 9.9707031 24.083984 z " id="path5723" style="color:#000000;font-style:normal;font-variant:normal;font-weight:normal;font-stretch:normal;font-size:medium;line-height:normal;font-family:sans-serif;text-indent:0;text-align:start;text-decoration:none;text-decoration-line:none;text-decoration-style:solid;text-decoration-color:#000000;letter-spacing:normal;word-spacing:normal;text-transform:none;direction:ltr;block-progression:tb;writing-mode:lr-tb;baseline-shift:baseline;text-anchor:start;white-space:normal;clip-rule:nonzero;display:inline;overflow:visible;visibility:visible;opacity:1;isolation:auto;mix-blend-mode:normal;color-interpolation:sRGB;color-interpolation-filters:linearRGB;solid-color:#000000;solid-opacity:1;fill:#000000;fill-opacity:1;fill-rule:evenodd;stroke:none;stroke-width:0.99999994px;stroke-linecap:butt;stroke-linejoin:miter;stroke-miterlimit:4;stroke-dasharray:none;stroke-dashoffset:0;stroke-opacity:1;color-rendering:auto;image-rendering:auto;shape-rendering:auto;text-rendering:auto;enable-background:accumulate" transform="translate(0,1016.3622)"/></g></svg>