<?xml version="1.0" ?><!DOCTYPE svg  PUBLIC '-//W3C//DTD SVG 1.0//EN'  'http://www.w3.org/TR/2001/REC-SVG-20010904/DTD/svg10.dtd'><svg enable-background="new 0 0 24 24" id="Layer_1" version="1.0" viewBox="0 0 24 24" xml:space="preserve" xmlns="http://www.w3.org/2000/svg" xmlns:xlink="http://www.w3.org/1999/xlink"><g><path d="M13,5.1c3.4,0.5,6,3.4,6,6.9c0,0.6-0.1,1.2-0.2,1.7l2.8,1.2C21.8,14,22,13,22,12c0-5.2-3.9-9.4-9-9.9V5.1z"/><path d="M18,15.6c-1.2,2-3.5,3.4-6,3.4c-3.9,0-7-3.1-7-7c0-3.5,2.6-6.4,6-6.9v-3C5.9,2.6,2,6.8,2,12c0,5.5,4.5,10,10,10   c3.8,0,7.1-2.1,8.8-5.2L18,15.6z"/></g></svg>