<?xml version="1.0" ?><svg data-name="Layer 1" id="Layer_1" viewBox="0 0 100 100" xmlns="http://www.w3.org/2000/svg"><title/><path d="M30.43,43.17H15a8.65,8.65,0,0,0,0,17.3H30.43A8.69,8.69,0,0,0,34,59.72a1.82,1.82,0,0,0-1.49-3.33,4.88,4.88,0,0,1-2,.44H15a5,5,0,0,1,0-10H30.43a5,5,0,0,1,4.66,3.24,10.67,10.67,0,0,0-3.29-.51,1.83,1.83,0,0,0,0,3.65c6.13,0,6.36,6.53,6.37,7.28V91.41a1.82,1.82,0,0,0,3.64,0V60.47c0-.3.07-7.28,6.37-7.28a1.83,1.83,0,0,0,0-3.65,10.75,10.75,0,0,0-3.31.51,5,5,0,0,1,4.67-3.24H65a5,5,0,0,1,0,10H49.54a5.45,5.45,0,0,1-1-.1,4.93,4.93,0,0,1-1.12-.38,1.82,1.82,0,0,0-1.55,3.3,8.92,8.92,0,0,0,1.93.64,8.4,8.4,0,0,0,1.73.18H65a8.65,8.65,0,0,0,0-17.3H49.54A8.66,8.66,0,0,0,41.81,48V42.26c0-.29.07-7.28,6.37-7.28a1.82,1.82,0,1,0,0-3.64,10.75,10.75,0,0,0-3.31.51,5,5,0,0,1,4.67-3.24H65a5,5,0,0,1,0,10H49.54a5,5,0,0,1-2.11-.47,1.82,1.82,0,0,0-1.55,3.29,8.44,8.44,0,0,0,3.66.82H65A8.65,8.65,0,0,0,65,25H49.54a8.64,8.64,0,0,0-7.73,4.81V15.87a1.82,1.82,0,0,0-3.64,0V29.78A8.65,8.65,0,0,0,30.43,25H15a8.65,8.65,0,1,0,0,17.29H30.43A8.56,8.56,0,0,0,34,41.51a1.82,1.82,0,0,0-1.49-3.32,4.87,4.87,0,0,1-2,.43H15a5,5,0,1,1,0-10H30.43a5,5,0,0,1,4.68,3.24,10.8,10.8,0,0,0-3.31-.51,1.82,1.82,0,1,0,0,3.64c6.13,0,6.36,6.54,6.37,7.29V48A8.72,8.72,0,0,0,30.43,43.17Z"/><path d="M47.72,20.42H46.66a1.82,1.82,0,1,0,0,3.64h1.06a8.65,8.65,0,1,0,0-17.29H32.25a8.65,8.65,0,1,0,0,17.29h.93a1.82,1.82,0,1,0,0-3.64h-.93a5,5,0,0,1,0-10H47.72a5,5,0,1,1,0,10Z"/><path d="M60.92,70a8.66,8.66,0,0,0,8.65,8.65H70.9a1.82,1.82,0,0,0,0-3.64H69.57a5,5,0,1,1,0-10H85a5,5,0,1,1,0,10H83.72a1.82,1.82,0,1,0,0,3.64H85a8.65,8.65,0,1,0,0-17.29H69.57A8.66,8.66,0,0,0,60.92,70Z"/><path d="M77.31,93.23a1.82,1.82,0,0,0,1.82-1.82V80.49c0-.3.07-7.28,6.37-7.28a1.82,1.82,0,0,0,0-3.64A9,9,0,0,0,77.31,74a9.06,9.06,0,0,0-8.2-4.4,1.82,1.82,0,0,0,0,3.64c6.14,0,6.37,6.53,6.38,7.29V91.41A1.81,1.81,0,0,0,77.31,93.23Z"/></svg>