<?xml version="1.0" ?><svg viewBox="0 0 60 60" xmlns="http://www.w3.org/2000/svg"><title/><g id="text"><text font-family="MyriadPro-Regular, Myriad Pro" font-size="9" transform="translate(3.93555 67.39014)"><tspan letter-spacing="-0.04096em" x="26.90039" y="0"/><tspan letter-spacing="-0.07102em" x="28.43945" y="0"/><tspan x="32.27344" y="0"/></text></g><g data-name="Layer 1" id="Layer_1"><path d="M31.29369,4.98831a119.63587,119.63587,0,0,1,4.90895,18.062,8.4575,8.4575,0,0,0-3.50049,1.37054c-1.35193.81262-1.78076,1.05731-2.93445-.072,1.14159-4.29975,1.17679-12.08569.56345-19.13317A.49919.49919,0,0,1,31.29369,4.98831ZM36.707,54.293a.99972.99972,0,0,0-1.60156.25977L33.72559,57.312,32.707,56.293a.99964.99964,0,0,0-1.41406,0L29.80273,57.7832l-1.35547-.67773a1.0011,1.0011,0,0,0-.89453,0l-1.35547.67773L22.707,54.293a.99947.99947,0,0,0-1.67676.46436L20.458,57.04395l-.751-.751a.9989.9989,0,0,0-1.26172-.125l-1.39551.93018c.418-7.80322,3.375-13.09912,6.49316-18.68262a65.30042,65.30042,0,0,0,5.613-11.98108,3.37119,3.37119,0,0,0,1.94653.67786,5.20276,5.20276,0,0,0,2.62988-.97754,6.53768,6.53768,0,0,1,2.83447-1.09027,196.06112,196.06112,0,0,1,2.42432,31.53217Z"/></g></svg>