<?xml version="1.0" ?><svg viewBox="0 0 60 60" xmlns="http://www.w3.org/2000/svg"><title/><g data-name="Layer 1" id="Layer_1"><path d="M36,7h-.67383l-.36426,1.2749A1.00094,1.00094,0,0,1,34,9H26a1.00094,1.00094,0,0,1-.96191-.7251L24.67383,7H24a2,2,0,0,0,0,4,.99974.99974,0,0,1,1,1V23.98059c3.015-.11108,3.95215-.73163,4.93164-1.38684A8.34437,8.34437,0,0,1,35,21.02429V12a.99974.99974,0,0,1,1-1,2,2,0,0,0,0-4Z"/><path d="M33.24609,7l1.06378-3.72543A1,1,0,0,0,33.34831,2H26.65169a1,1,0,0,0-.96157,1.27457L26.75391,7Z"/><path d="M25,25.98083V57a1,1,0,0,0,1,1h8a1,1,0,0,0,1-1V23.0249a6.44618,6.44618,0,0,0-3.957,1.231C29.9198,25.00836,28.65112,25.85077,25,25.98083ZM28.99994,50a1,1,0,0,1-2,0V49a1,1,0,0,1,2,0Zm0-5a1,1,0,0,1-2,0V33a1,1,0,0,1,2,0Z"/></g></svg>