<?xml version="1.0" ?><svg viewBox="0 0 60 60" xmlns="http://www.w3.org/2000/svg"><title/><g data-name="Layer 1" id="Layer_1"><path d="M11,28H3a1,1,0,0,0-1,1V52.777a5.152,5.152,0,0,0,4.50018,5.19855A5.00576,5.00576,0,0,0,12,53V29A1,1,0,0,0,11,28ZM6,54a1,1,0,0,1-2,0V31a1,1,0,0,1,2,0Zm4,0a1,1,0,0,1-2,0V31a1,1,0,0,1,2,0Z"/><path d="M15,22a1,1,0,0,0-1,1V53a6.98008,6.98008,0,0,1-2.10547,5H53a5,5,0,0,0,5-5V23a1,1,0,0,0-1-1Zm2,3H27a1,1,0,0,1,0,2H17a1,1,0,0,1,0-2ZM32,55H17a1,1,0,0,1,0-2H32a1,1,0,0,1,0,2Zm0-4H17a1,1,0,0,1,0-2H32a1,1,0,0,1,0,2Zm0-4H17a1,1,0,0,1,0-2H32a1,1,0,0,1,0,2Zm0-4H17a1,1,0,0,1,0-2H32a1,1,0,0,1,0,2Zm0-4H17a1,1,0,0,1,0-2H32a1,1,0,0,1,0,2ZM55,55H40a1,1,0,0,1,0-2H55a1,1,0,0,1,0,2Zm0-4H40a1,1,0,0,1,0-2H55a1,1,0,0,1,0,2Zm0-4H40a1,1,0,0,1,0-2H55a1,1,0,0,1,0,2Zm0-4H40a1,1,0,0,1,0-2H55a1,1,0,0,1,0,2Zm0-4H40a1,1,0,0,1,0-2H55a1,1,0,0,1,0,2Zm0-6H17a1,1,0,0,1,0-2H55a1,1,0,0,1,0,2Zm0-6H45a1,1,0,0,1,0-2H55a1,1,0,0,1,0,2Z"/></g></svg>