<?xml version="1.0" ?><svg viewBox="0 0 60 60" xmlns="http://www.w3.org/2000/svg"><title/><g id="text"><text font-family="MyriadPro-Regular, Myriad Pro" font-size="9" transform="translate(8.04248 -49.60986)"><tspan letter-spacing="0.00602em"/><tspan x="7.29004" y="0"/><tspan letter-spacing="-0.00499em" x="11.62793" y="0"/><tspan x="14.52588" y="0"/><tspan letter-spacing="0.00602em" x="11.58301" y="10.7998"/><tspan x="18.87305" y="10.7998"/></text></g><g data-name="Layer 1" id="Layer_1"><polygon points="22 25 24.88 25 22 22.943 22 25"/><path d="M18,5.23633l-.55279-1.10557a.5.5,0,0,0-.89443,0L16,5.23633V7h2Z"/><path d="M22,58H38V27H22Zm9.58105-27.81348a.99941.99941,0,0,1,.23291,1.39453l-5,7A1.00008,1.00008,0,0,1,25.186,37.41895l5-7A.99815.99815,0,0,1,31.58105,30.18652ZM24.168,32.44531l2-3A1,1,0,1,1,27.832,30.55469l-2,3A1,1,0,0,1,24.168,32.44531Z"/><polygon points="18 9 16 9 16 12.803 18 10.92 18 9"/><path d="M44,5.23633l-.55279-1.10557a.5.5,0,0,0-.89443,0L42,5.23633V7h2Z"/><polygon points="44 9 42 9 42 10.92 44 12.803 44 9"/><polygon points="33 17.005 33 24.057 37.399 20.915 33 17.005"/><path d="M18,19.4375V58h2V20.99992a.99944.99944,0,0,1,.33545-.747l9-8a1.00028,1.00028,0,0,1,1.3291,0l9,8a.99944.99944,0,0,1,.33545.747V58h2V19.4375L30,8.36133Z"/><polygon points="27 17.005 22.601 20.915 27 24.057 27 17.005"/><polygon points="38 25 38 22.943 35.12 25 38 25"/><path d="M29.31464,3.01808l-15,14.11743A1,1,0,0,0,14,17.86372V57a1,1,0,0,0,1,1h1V19a.99745.99745,0,0,1,.32178-.73437l13-12a.99992.99992,0,0,1,1.35645,0l13,12A.99745.99745,0,0,1,44,19V58h1a1,1,0,0,0,1-1V17.86372a1,1,0,0,0-.31464-.7282l-15-14.11743A1,1,0,0,0,29.31464,3.01808Z"/><polygon points="30 14.338 29 15.227 29 25 31 25 31 15.227 30 14.338"/></g></svg>