<?xml version="1.0" ?><svg viewBox="0 0 60 60" xmlns="http://www.w3.org/2000/svg"><title/><g data-name="Layer 1" id="Layer_1"><polygon points="29 6 20.879 6 20.757 8 29 8 29 6"/><path d="M38.55371,3.36768c-1.02826-1.26434-3.52-1.35883-7.55371-1.366V4h7.8855A2.01661,2.01661,0,0,0,38.55371,3.36768Z"/><polygon points="39.121 6 31 6 31 8 39.243 8 39.121 6"/><polygon points="39.366 10 20.634 10 20.267 16 39.733 16 39.366 10"/><polygon points="29 18 20.145 18 20.022 20 29 20 29 18"/><polygon points="41.08 38 31 38 31 40 41.202 40 41.08 38"/><polygon points="29 22 19.9 22 19.777 24 29 24 29 22"/><path d="M38,48v4h2.87347a1,1,0,0,0,.99811-1.0611L41.69171,48Z"/><polygon points="31 20 39.978 20 39.855 18 31 18 31 20"/><polygon points="31 24 40.223 24 40.1 22 31 22 31 24"/><path d="M29,2.00165c-4.03369.0072-6.52539.10168-7.55273,1.366A2.01243,2.01243,0,0,0,21.11475,4H29Z"/><path d="M34,46h7.56927l-.24481-4H18.67554l-.24481,4H26V45a1,1,0,0,1,1-1h6a1,1,0,0,1,1,1Z"/><rect height="5" width="4" x="28" y="46"/><path d="M34,51.81567V55h2V51.81573a2.80518,2.80518,0,0,1-2-.00006Z"/><rect height="2" width="4" x="28" y="53"/><circle cx="35" cy="49" r="1"/><path d="M38,57a1,1,0,0,0,2,0V54H38Z"/><path d="M24,51.81567V55h2V51.81573a2.80518,2.80518,0,0,1-2-.00006Z"/><path d="M18.798,40H29V34H26.41406l-3.707,3.707A.99989.99989,0,0,1,21.293,36.293L23.58594,34H16a.99942.99942,0,0,0-1,1v3a1,1,0,0,0,2,0V36h2.04279Z"/><path d="M20,57a1,1,0,0,0,2,0V54H20Z"/><circle cx="25" cy="49" r="1"/><path d="M40.34509,26H19.65491l-.36725,6H40.71234ZM35,30H25a1,1,0,0,1,0-2H35a1,1,0,0,1,0,2Z"/><path d="M18.12842,50.9389A1,1,0,0,0,19.12653,52H22V48H18.30829Z"/><path d="M44,34H31v2H43v2a1,1,0,0,0,2,0V35A.99942.99942,0,0,0,44,34Z"/></g></svg>