<?xml version="1.0" ?><svg id="Layer_1" style="enable-background:new 0 0 64 64;" version="1.1" viewBox="0 0 64 64" xml:space="preserve" xmlns="http://www.w3.org/2000/svg" xmlns:xlink="http://www.w3.org/1999/xlink"><style type="text/css">
	.st0{fill:none;stroke:#000000;stroke-width:2;stroke-linejoin:round;stroke-miterlimit:10;}
</style><path d="M41,37H23c-0.287,0-0.56,0.123-0.75,0.338c-0.19,0.215-0.278,0.501-0.243,0.786C22.019,38.213,23.219,47,32,47  s9.981-8.787,9.992-8.876c0.036-0.285-0.053-0.571-0.242-0.786C41.56,37.123,41.287,37,41,37z M32,45c-5.346,0-7.175-3.988-7.758-6  h15.516C39.174,41.014,37.345,45,32,45z"/><path d="M26.5,25c0-1.944-1.395-3.565-3.236-3.923l0.011-0.039l-7-2l-0.55,1.923l4.023,1.149C18.983,22.84,18.5,23.862,18.5,25  c0,2.206,1.794,4,4,4S26.5,27.206,26.5,25z M20.5,25c0-1.103,0.897-2,2-2s2,0.897,2,2s-0.897,2-2,2S20.5,26.103,20.5,25z"/><path d="M47.726,19.039l-7,2l0.011,0.039C38.895,21.435,37.5,23.056,37.5,25c0,2.206,1.794,4,4,4s4-1.794,4-4  c0-1.138-0.483-2.16-1.248-2.889l4.023-1.149L47.726,19.039z M41.5,27c-1.103,0-2-0.897-2-2s0.897-2,2-2s2,0.897,2,2  S42.603,27,41.5,27z"/><path d="M60,5c0-0.475-0.334-0.884-0.799-0.979c-0.467-0.097-0.933,0.149-1.12,0.585c-2.335,5.45-9.846,3.923-11.467,3.521  C42.357,5.512,37.352,4,32,4S21.643,5.512,17.386,8.127c-1.621,0.401-9.131,1.929-11.467-3.521C5.732,4.17,5.263,3.927,4.799,4.021  C4.334,4.116,4,4.525,4,5c0,0.295,0.071,7.005,4.83,11.297C5.783,20.779,4,26.185,4,32c0,15.439,12.561,28,28,28s28-12.561,28-28  c0-5.815-1.783-11.221-4.83-15.702C59.928,12.005,60,5.295,60,5z M6.57,8.641c2.098,1.612,4.857,2.073,7.355,1.998  c-1.432,1.214-2.739,2.569-3.903,4.043C8.105,12.88,7.093,10.562,6.57,8.641z M32,58C17.664,58,6,46.336,6,32  c0-9.267,4.877-17.411,12.194-22.016c0.03-0.009,0.063-0.017,0.093-0.026L18.279,9.93C22.264,7.443,26.966,6,32,6  c5.034,0,9.736,1.443,13.721,3.93l-0.009,0.029c0.029,0.009,0.063,0.017,0.093,0.026C53.124,14.589,58,22.733,58,32  C58,46.336,46.337,58,32,58z M50.073,10.638c2.502,0.075,5.264-0.386,7.364-2.003c-0.521,1.919-1.533,4.238-3.46,6.047  C52.813,13.207,51.506,11.852,50.073,10.638z"/></svg>