<?xml version="1.0" ?><svg id="Layer_1" style="enable-background:new 0 0 64 64;" version="1.1" viewBox="0 0 64 64" xml:space="preserve" xmlns="http://www.w3.org/2000/svg" xmlns:xlink="http://www.w3.org/1999/xlink"><style type="text/css">
	.st0{fill:none;stroke:#000000;stroke-width:2;stroke-linejoin:round;stroke-miterlimit:10;}
</style><path d="M23.264,22.077l0.011-0.039l-7-2l-0.55,1.923l4.023,1.149C18.983,23.84,18.5,24.862,18.5,26c0,2.206,1.794,4,4,4  s4-1.794,4-4C26.5,24.056,25.105,22.435,23.264,22.077z M22.5,28c-1.103,0-2-0.897-2-2s0.897-2,2-2s2,0.897,2,2S23.603,28,22.5,28z"/><path d="M47.726,20.039l-7,2l0.011,0.039C38.895,22.435,37.5,24.056,37.5,26c0,2.206,1.794,4,4,4s4-1.794,4-4  c0-1.138-0.483-2.16-1.248-2.889l4.023-1.149L47.726,20.039z M41.5,28c-1.103,0-2-0.897-2-2s0.897-2,2-2s2,0.897,2,2  S42.603,28,41.5,28z"/><path d="M32,4C16.561,4,4,16.561,4,32s12.561,28,28,28s28-12.561,28-28S47.439,4,32,4z M32,58C17.664,58,6,46.336,6,32  S17.664,6,32,6c14.337,0,26,11.664,26,26S46.337,58,32,58z"/><path d="M32.75,32.5h-1.5c-2.757,0-5,2.243-5,5v9c0,2.757,2.243,5,5,5h1.5c2.757,0,5-2.243,5-5v-9  C37.75,34.743,35.507,32.5,32.75,32.5z M35.75,46.5c0,1.654-1.346,3-3,3h-1.5c-1.654,0-3-1.346-3-3v-9c0-1.654,1.346-3,3-3h1.5  c1.654,0,3,1.346,3,3V46.5z"/></svg>