<?xml version="1.0" ?><svg id="Layer_1" style="enable-background:new 0 0 64 64;" version="1.1" viewBox="0 0 64 64" xml:space="preserve" xmlns="http://www.w3.org/2000/svg" xmlns:xlink="http://www.w3.org/1999/xlink"><style type="text/css">
	.st0{fill:none;stroke:#000000;stroke-width:2;stroke-linejoin:round;stroke-miterlimit:10;}
</style><path d="M32,34.675c-8.889,0-12.503,4.692-13.971,8.628c-0.587,1.576-0.238,3.326,0.909,4.567c1.161,1.256,2.904,1.747,4.545,1.277  c5.572-1.592,11.461-1.592,17.033,0c0.412,0.118,0.83,0.175,1.243,0.175c1.235,0,2.432-0.511,3.302-1.453  c1.147-1.241,1.496-2.991,0.909-4.567C44.503,39.367,40.889,34.675,32,34.675z M43.593,46.513c-0.655,0.71-1.599,0.979-2.527,0.712  C38.1,46.378,35.051,45.954,32,45.954c-3.05,0-6.101,0.424-9.065,1.271c-0.928,0.265-1.871-0.003-2.527-0.712  c-0.643-0.694-0.83-1.633-0.503-2.511c1.812-4.861,5.882-7.327,12.096-7.327s10.284,2.465,12.096,7.327  C44.423,44.879,44.235,45.818,43.593,46.513z"/><path d="M32,4C16.561,4,4,16.561,4,32s12.561,28,28,28s28-12.561,28-28S47.439,4,32,4z M32,58C17.663,58,6,46.336,6,32  S17.663,6,32,6s26,11.664,26,26S46.337,58,32,58z"/><path d="M22.5,29c2.206,0,4-1.794,4-4s-1.794-4-4-4s-4,1.794-4,4S20.294,29,22.5,29z M22.5,23c1.103,0,2,0.897,2,2s-0.897,2-2,2  s-2-0.897-2-2S21.397,23,22.5,23z"/><path d="M41.5,29c2.206,0,4-1.794,4-4s-1.794-4-4-4s-4,1.794-4,4S39.294,29,41.5,29z M41.5,23c1.103,0,2,0.897,2,2s-0.897,2-2,2  s-2-0.897-2-2S40.397,23,41.5,23z"/></svg>