<?xml version="1.0" ?><svg id="Layer_1" style="enable-background:new 0 0 64 64;" version="1.1" viewBox="0 0 64 64" xml:space="preserve" xmlns="http://www.w3.org/2000/svg" xmlns:xlink="http://www.w3.org/1999/xlink"><style type="text/css">
	.st0{fill:none;stroke:#000000;stroke-width:2;stroke-linejoin:round;stroke-miterlimit:10;}
</style><path d="M32,4C16.561,4,4,16.561,4,32s12.561,28,28,28s28-12.561,28-28S47.439,4,32,4z M32,58C17.664,58,6,46.336,6,32  S17.664,6,32,6s26,11.664,26,26S46.336,58,32,58z"/><path d="M28.5,25c0-3.309-2.691-6-6-6s-6,2.691-6,6s2.691,6,6,6S28.5,28.309,28.5,25z M22.5,29c-2.206,0-4-1.794-4-4s1.794-4,4-4  s4,1.794,4,4S24.706,29,22.5,29z"/><path d="M41.5,19c-3.309,0-6,2.691-6,6s2.691,6,6,6s6-2.691,6-6S44.809,19,41.5,19z M41.5,29c-2.206,0-4-1.794-4-4s1.794-4,4-4  s4,1.794,4,4S43.706,29,41.5,29z"/><path d="M32.75,32.5h-1.5c-2.757,0-5,2.243-5,5v9c0,2.757,2.243,5,5,5h1.5c2.757,0,5-2.243,5-5v-9  C37.75,34.743,35.507,32.5,32.75,32.5z M35.75,46.5c0,1.654-1.346,3-3,3h-1.5c-1.654,0-3-1.346-3-3v-9c0-1.654,1.346-3,3-3h1.5  c1.654,0,3,1.346,3,3V46.5z"/></svg>