<?xml version="1.0" ?><svg id="Layer_1" style="enable-background:new 0 0 64 64;" version="1.1" viewBox="0 0 64 64" xml:space="preserve" xmlns="http://www.w3.org/2000/svg" xmlns:xlink="http://www.w3.org/1999/xlink"><style type="text/css">
	.st0{fill:none;stroke:#000000;stroke-width:2;stroke-linejoin:round;stroke-miterlimit:10;}
</style><path d="M26.5,25c0-2.206-1.794-4-4-4c-0.232,0-0.455,0.03-0.676,0.068l-0.008-0.03l-7,2l0.549,1.923l3.269-0.934  C18.555,24.34,18.5,24.663,18.5,25c0,2.206,1.794,4,4,4S26.5,27.206,26.5,25z M20.5,25c0-1.103,0.897-2,2-2s2,0.897,2,2  s-0.897,2-2,2S20.5,26.103,20.5,25z"/><path d="M41.5,29c2.206,0,4-1.794,4-4c0-0.337-0.055-0.66-0.134-0.973l3.269,0.934l0.549-1.923l-7-2l-0.008,0.03  C41.955,21.03,41.732,21,41.5,21c-2.206,0-4,1.794-4,4S39.294,29,41.5,29z M41.5,23c1.103,0,2,0.897,2,2s-0.897,2-2,2s-2-0.897-2-2  S40.397,23,41.5,23z"/><path d="M32,4C16.561,4,4,16.561,4,32s12.561,28,28,28s28-12.561,28-28S47.439,4,32,4z M32,58C17.663,58,6,46.336,6,32  S17.663,6,32,6s26,11.664,26,26S46.337,58,32,58z"/><path d="M49.535,27.693l-7.182,14.365C40.139,39.1,32.951,39,32,39c-1.126,0-11,0.14-11,5h2c0-2.042,5.371-2.998,9-3  c3.629,0.002,9,0.958,9,3h2c0.248,0,0.495-0.092,0.687-0.273l12.078-11.408c0.859-0.812,1.307-1.953,1.226-3.133  c-0.08-1.18-0.679-2.25-1.641-2.938c-0.938-0.672-2.123-0.896-3.238-0.618C50.99,25.909,50.052,26.66,49.535,27.693z M52.593,27.572  c0.154-0.039,0.312-0.057,0.468-0.057c0.4,0,0.794,0.124,1.127,0.361c0.474,0.338,0.768,0.866,0.808,1.447  c0.04,0.581-0.181,1.143-0.604,1.542l-7.97,7.528l4.902-9.806C51.578,28.079,52.041,27.708,52.593,27.572z"/></svg>