<?xml version="1.0" ?><svg height="32px" id="Layer_28" style="enable-background:new 0 0 32 32;" version="1.0" viewBox="0 0 32 32" width="32px" xml:space="preserve" xmlns="http://www.w3.org/2000/svg" xmlns:xlink="http://www.w3.org/1999/xlink"><style type="text/css">
	.Drop_x0020_Shadow{fill:none;}
	.Round_x0020_Corners_x0020_2_x0020_pt{fill:#FFFFFF;stroke:#231F20;stroke-miterlimit:10;}
	.Live_x0020_Reflect_x0020_X{fill:none;}
	.Bevel_x0020_Soft{fill:url(#SVGID_1_);}
	.Dusk{fill:#FFFFFF;}
	.Foliage_GS{fill:#FFDD00;}
	.Pompadour_GS{fill-rule:evenodd;clip-rule:evenodd;fill:#44ADE2;}
	.st0{fill:#6ABF7A;}
	.st1{fill:#00B37E;}
	.st2{fill:#FFFFFF;}
</style><linearGradient gradientUnits="userSpaceOnUse" id="SVGID_1_" x1="-94" x2="-93.2929" y1="-188" y2="-187.2929"><stop offset="0" style="stop-color:#DEDFE3"/><stop offset="0.1783" style="stop-color:#DADBDF"/><stop offset="0.3611" style="stop-color:#CECFD3"/><stop offset="0.546" style="stop-color:#B9BCBF"/><stop offset="0.7324" style="stop-color:#9CA0A2"/><stop offset="0.9181" style="stop-color:#787D7E"/><stop offset="1" style="stop-color:#656B6C"/></linearGradient><g id="XMLID_525_"><path class="st0" d="M27.4,31.7H4.6c-2.4,0-4.4-2-4.4-4.4V4.6c0-2.4,2-4.4,4.4-4.4h22.8c2.4,0,4.4,2,4.4,4.4v22.8   C31.8,29.8,29.8,31.7,27.4,31.7z" id="XMLID_532_"/><polygon class="st1" id="XMLID_531_" points="31.8,31.8 0.2,31.8 0.2,24 31.8,23.8  "/><g id="XMLID_526_"><path class="st2" d="M11.4,19.9c0,3.3,0,6.6,0,9.9c0,0.1,0,0.2,0,0.3c-0.1,0.3-0.4,0.4-0.7,0.3    c-0.5-0.2-1-0.5-1.5-0.7c-1.1-0.6-2.3-1.1-3.4-1.7c-1.2-0.6-2.4-1.2-3.6-1.8c-0.4-0.2-0.6-0.6-0.6-1.1c0-0.1,0-0.1,0-0.2    c0-6.4,0-12.8,0-19.2c0-0.1,0-0.2,0-0.4C1.5,5.1,1.7,4.9,2,5.1c0.4,0.2,0.7,0.3,1.1,0.5c1.5,0.7,3,1.5,4.4,2.2    C8.7,8.4,9.9,9,11.2,9.6c0.2,0.1,0.2,0.2,0.2,0.4C11.4,13.3,11.4,16.6,11.4,19.9z" id="XMLID_530_"/><path class="st2" d="M31,9.9c0,0.1,0,0.1-0.1,0.2c-1.7,2.8-3.4,5.6-5.1,8.3c-1.3,2.1-2.6,4.3-3.9,6.4    c-0.1,0.2-0.2,0.2-0.3,0c-1.2-2-2.4-3.9-3.7-5.9c-0.9-1.4-1.7-2.8-2.6-4.2c-0.1-0.1-0.1-0.2,0-0.4c0.8-1.3,1.6-2.6,2.4-3.9    c1.1-1.7,2.1-3.4,3.2-5.2c0.3-0.4,0.4-0.5,0.9-0.2c1.2,0.6,2.5,1.2,3.7,1.9c1.7,0.9,3.5,1.7,5.2,2.6C30.8,9.6,31,9.7,31,9.9z" id="XMLID_529_"/><path class="st2" d="M31.1,20.7c0,2.9,0,5.8,0,8.8c0,0.2,0,0.3,0,0.5c0,0.4-0.4,0.6-0.8,0.5    c-0.4-0.2-0.7-0.4-1.1-0.5c-1.3-0.6-2.5-1.3-3.8-1.9c-1.1-0.6-2.2-1.1-3.3-1.7C22,26.2,22,26.1,22,26c1-1.7,2-3.3,3.1-5    c0.6-1,1.2-2,1.9-3c1.1-1.9,2.3-3.7,3.4-5.6c0.2-0.3,0.4-0.6,0.5-0.9c0,0,0-0.1,0.1-0.1c0.1,0,0,0.1,0.1,0.1c0,0.1,0,0.1,0,0.2    C31.1,14.7,31.1,17.7,31.1,20.7z" id="XMLID_528_"/><path class="st2" d="M12.2,16.2c0-1.6,0-3.2,0-4.8c0-0.1,0-0.2,0-0.2c0.1,0,0.1,0.1,0.1,0.2    c0.9,1.5,1.8,2.9,2.7,4.4c1.5,2.5,3.1,5,4.6,7.4c0.5,0.8,1,1.6,1.5,2.4c0,0,0.1,0.1,0,0.2c0,0.1-0.1,0-0.2,0    c-1.8-0.9-3.6-1.8-5.4-2.7c-1.1-0.5-2.2-1.1-3.3-1.6c-0.1-0.1-0.2-0.2-0.2-0.3C12.2,19.5,12.2,17.9,12.2,16.2z" id="XMLID_527_"/></g></g></svg>