<?xml version="1.0" ?><svg height="32px" id="Layer_22" style="enable-background:new 0 0 32 32;" version="1.0" viewBox="0 0 32 32" width="32px" xml:space="preserve" xmlns="http://www.w3.org/2000/svg" xmlns:xlink="http://www.w3.org/1999/xlink"><style type="text/css">
	.Drop_x0020_Shadow{fill:none;}
	.Round_x0020_Corners_x0020_2_x0020_pt{fill:#FFFFFF;stroke:#231F20;stroke-miterlimit:10;}
	.Live_x0020_Reflect_x0020_X{fill:none;}
	.Bevel_x0020_Soft{fill:url(#SVGID_1_);}
	.Dusk{fill:#FFFFFF;}
	.Foliage_GS{fill:#FFDD00;}
	.Pompadour_GS{fill-rule:evenodd;clip-rule:evenodd;fill:#44ADE2;}
	.st0{fill:#1988C9;}
	.st1{fill:#155C80;}
	.st2{fill:#FFFFFF;}
</style><linearGradient gradientUnits="userSpaceOnUse" id="SVGID_1_" x1="-94" x2="-93.2929" y1="-141" y2="-140.2929"><stop offset="0" style="stop-color:#DEDFE3"/><stop offset="0.1783" style="stop-color:#DADBDF"/><stop offset="0.3611" style="stop-color:#CECFD3"/><stop offset="0.546" style="stop-color:#B9BCBF"/><stop offset="0.7324" style="stop-color:#9CA0A2"/><stop offset="0.9181" style="stop-color:#787D7E"/><stop offset="1" style="stop-color:#656B6C"/></linearGradient><g id="XMLID_286_"><path class="st0" d="M27,31.3H4.9c-2.3,0-4.3-1.9-4.3-4.3V4.9c0-2.3,1.9-4.3,4.3-4.3H27c2.3,0,4.3,1.9,4.3,4.3V27   C31.3,29.4,29.4,31.3,27,31.3z" id="XMLID_105_"/><polygon class="st1" id="XMLID_102_" points="31.3,31.3 0.6,31.3 0.6,23.7 31.3,23.6  "/><g id="XMLID_455_"><path class="st2" d="M21.5,27.3c-2,1.1-4.1,1.5-6.6,1.5c-6.1,0-11.3-4.5-11.3-11.6c0-7.7,5.3-14.3,13.6-14.3    C23.6,2.9,28,7.5,28,13.7c0,5.6-3.1,8.8-6.6,8.8c-1.5,0-2.9-1-2.8-3.3h-0.1c-1.3,2.2-3,3.3-5.2,3.3c-2.2,0-4-1.7-4-4.7    C9.2,13.2,12.9,9,18,9c1.6,0,3,0.3,4,0.8l-1.3,6.7c-0.6,2.8-0.1,4.1,1.1,4.2c1.9,0,4-2.5,4-6.8c0-5.4-3.2-9.3-9-9.3    C10.8,4.7,5.7,9.4,5.7,17c0,6.2,4.1,10,9.6,10c2.1,0,4.1-0.4,5.6-1.3L21.5,27.3z M19.4,11.3c-0.4-0.1-1-0.3-1.9-0.3    c-3.3,0-5.9,3.1-5.9,6.7c0,1.6,0.8,2.8,2.5,2.8c2.2,0,4.1-2.8,4.5-5.1L19.4,11.3z" id="XMLID_114_"/></g></g></svg>