<?xml version="1.0" ?><svg height="32px" id="Layer_30" style="enable-background:new 0 0 32 32;" version="1.0" viewBox="0 0 32 32" width="32px" xml:space="preserve" xmlns="http://www.w3.org/2000/svg" xmlns:xlink="http://www.w3.org/1999/xlink"><style type="text/css">
	.Drop_x0020_Shadow{fill:none;}
	.Round_x0020_Corners_x0020_2_x0020_pt{fill:#FFFFFF;stroke:#231F20;stroke-miterlimit:10;}
	.Live_x0020_Reflect_x0020_X{fill:none;}
	.Bevel_x0020_Soft{fill:url(#SVGID_1_);}
	.Dusk{fill:#FFFFFF;}
	.Foliage_GS{fill:#FFDD00;}
	.Pompadour_GS{fill-rule:evenodd;clip-rule:evenodd;fill:#44ADE2;}
	.st0{fill:#F79948;}
	.st1{fill:#CD7629;}
	.st2{fill:#FFFFFF;}
</style><linearGradient gradientUnits="userSpaceOnUse" id="SVGID_1_" x1="-188" x2="-187.2929" y1="-188" y2="-187.2929"><stop offset="0" style="stop-color:#DEDFE3"/><stop offset="0.1783" style="stop-color:#DADBDF"/><stop offset="0.3611" style="stop-color:#CECFD3"/><stop offset="0.546" style="stop-color:#B9BCBF"/><stop offset="0.7324" style="stop-color:#9CA0A2"/><stop offset="0.9181" style="stop-color:#787D7E"/><stop offset="1" style="stop-color:#656B6C"/></linearGradient><g id="XMLID_289_"><path class="st0" d="M27.2,31.7H4.6c-2.4,0-4.3-1.9-4.3-4.3V4.8c0-2.4,1.9-4.3,4.3-4.3h22.6c2.4,0,4.3,1.9,4.3,4.3   v22.6C31.5,29.8,29.6,31.7,27.2,31.7z" id="XMLID_111_"/><polygon class="st1" id="XMLID_110_" points="31.5,31.8 0.3,31.8 0.3,24 31.5,23.9  "/><g id="XMLID_878_"><path class="st2" d="M13.9,30.6c-1.5,0-3,0-4.5,0c-1.9,0-3.5-0.7-4.9-1.9c-1.5-1.3-2.3-2.9-2.6-4.8    c0-0.3-0.1-0.6-0.1-0.9c0-3,0-5.9,0-8.9c0-3.9,3-7.1,6.6-7.6c0.5-0.1,0.9-0.1,1.4-0.1c1.3,0,2.6,0,3.9,0c1.3-0.1,2.5,0.3,3.7,0.9    c1.3,0.7,2.3,1.6,3.1,2.8c0.6,1,0.8,2,0.9,3.1c0.1,0.4,0.1,0.9,0.2,1.3c0.1,0.5,0.5,0.9,1.1,0.9c0.3,0,0.6,0.1,0.8,0.1    c0.4,0,0.8,0,1.2,0.1c0.7,0,1.1,0.5,1.1,1.2c0,1.9,0,3.9,0,5.8c0,1.1-0.2,2.2-0.6,3.3c-1.2,2.7-3.3,4.2-6.2,4.7    c-0.3,0-0.6,0-0.8,0C16.8,30.6,15.3,30.6,13.9,30.6z M13.9,21.4C13.9,21.4,13.9,21.4,13.9,21.4c-1.4,0-2.9,0-4.3,0    c-0.9,0-1.6,0.9-1.3,1.8c0.2,0.6,0.7,1,1.4,1c2.7,0,5.3,0,8,0c0.2,0,0.4,0,0.5,0c1-0.1,1.6-1,1.3-1.9c-0.2-0.5-0.7-0.9-1.3-0.9    C16.7,21.4,15.3,21.4,13.9,21.4z M11.7,15.5c0.6,0,1.3,0,1.9,0c0.2,0,0.3,0,0.5,0c0.7-0.2,1.2-0.8,1.1-1.6    c-0.1-0.7-0.7-1.2-1.4-1.2c-1.4,0-2.8,0-4.2,0c-0.8,0-1.5,0.6-1.5,1.4c0,0.8,0.6,1.4,1.5,1.4C10.3,15.5,11,15.5,11.7,15.5z" id="XMLID_893_"/></g></g></svg>