<?xml version="1.0" ?><svg height="32px" id="Layer_26" style="enable-background:new 0 0 32 32;" version="1.0" viewBox="0 0 32 32" width="32px" xml:space="preserve" xmlns="http://www.w3.org/2000/svg" xmlns:xlink="http://www.w3.org/1999/xlink"><style type="text/css">
	.Drop_x0020_Shadow{fill:none;}
	.Round_x0020_Corners_x0020_2_x0020_pt{fill:#FFFFFF;stroke:#231F20;stroke-miterlimit:10;}
	.Live_x0020_Reflect_x0020_X{fill:none;}
	.Bevel_x0020_Soft{fill:url(#SVGID_1_);}
	.Dusk{fill:#FFFFFF;}
	.Foliage_GS{fill:#FFDD00;}
	.Pompadour_GS{fill-rule:evenodd;clip-rule:evenodd;fill:#44ADE2;}
	.st0{fill:#434343;}
	.st1{fill:#FFFFFF;}
</style><linearGradient gradientUnits="userSpaceOnUse" id="SVGID_1_" x1="0" x2="0.7071" y1="-188" y2="-187.2929"><stop offset="0" style="stop-color:#DEDFE3"/><stop offset="0.1783" style="stop-color:#DADBDF"/><stop offset="0.3611" style="stop-color:#CECFD3"/><stop offset="0.546" style="stop-color:#B9BCBF"/><stop offset="0.7324" style="stop-color:#9CA0A2"/><stop offset="0.9181" style="stop-color:#787D7E"/><stop offset="1" style="stop-color:#656B6C"/></linearGradient><g id="XMLID_290_"><path class="st0" d="M27.3,31.6H4.7c-2.4,0-4.3-1.9-4.3-4.3V4.6c0-2.4,1.9-4.3,4.3-4.3h22.6c2.4,0,4.3,1.9,4.3,4.3   v22.6C31.6,29.6,29.7,31.6,27.3,31.6z" id="XMLID_153_"/><polygon id="XMLID_152_" points="31.6,31.6 0.4,31.6 0.4,23.8 31.6,23.7  "/><g id="QY6Q1S.tif"><g id="XMLID_997_"><path class="st1" d="M27.2,15.4c0,7.4-5.3,12.8-12,12.7C12.2,28.1,9.7,27,7.5,25c-2.6-2.4-3.9-5.4-3.9-8.9     c0-2.9,1-5.4,3-7.5c2.4-2.6,5.4-4,9-4c2.9,0,5.5,1,7.6,3C25.8,9.9,27.1,12.8,27.2,15.4z M8.6,18c0,0.1,0,0.2,0.1,0.3     c0.1,0.2,0.1,0.4,0.2,0.6c0.1,0.3,0.2,0.5,0.4,0.8c0.2,0.4,0.4,0.7,0.7,1c0.3,0.3,0.6,0.6,0.9,0.9c0.2,0.2,0.4,0.4,0.7,0.5     c0.2,0.2,0.5,0.3,0.7,0.4c0.1,0.1,0.3,0.1,0.4,0.2c0.2,0.1,0.3,0.1,0.5,0.2c0.1,0,0.2,0.1,0.3,0.1c0.2,0,0.3,0.1,0.5,0.1     c0.2,0.1,0.4,0.1,0.6,0.1c0.3,0.1,0.6,0,0.9,0.1c0,0,0.1,0,0.1,0c0.1,0,0.2,0,0.3,0c0.2,0,0.4,0,0.5,0c0,0,0.1,0,0.1,0     c0.1,0,0.2-0.1,0.3-0.1c0,0,0.1,0,0.1,0c0.1,0,0.2-0.1,0.2-0.1c0,0,0.1,0,0.1,0c0.1-0.1,0.3-0.1,0.4-0.1c0.2-0.1,0.3-0.1,0.5-0.2     c0.2-0.1,0.4-0.2,0.6-0.3c0.3-0.1,0.5-0.3,0.7-0.4c0.2-0.2,0.4-0.3,0.6-0.5c0.4-0.4,0.8-0.8,1.1-1.3c0.1-0.2,0.3-0.4,0.4-0.7     c0.1-0.2,0.2-0.4,0.3-0.6c0.1-0.2,0.2-0.5,0.3-0.8c0.1-0.2,0.1-0.4,0.1-0.6c0,0,0-0.1,0-0.1c-0.1-0.2-0.2-0.3-0.4-0.3     c-0.2-0.1-0.4,0-0.6,0.1c-0.2,0.1-0.2,0.3-0.3,0.5c0,0.2-0.1,0.4-0.2,0.6c-0.1,0.3-0.2,0.5-0.4,0.7c-0.2,0.4-0.5,0.8-0.9,1.1     c-0.4,0.4-0.9,0.8-1.4,1.1c-0.3,0.2-0.7,0.3-1,0.4c-0.3,0.1-0.5,0.2-0.8,0.2c-0.1,0-0.1,0-0.2,0c-0.4,0.1-0.7,0.1-1.1,0     c-0.4,0-0.7-0.1-1.1-0.2c-0.3-0.1-0.5-0.2-0.8-0.3c-0.3-0.1-0.6-0.3-0.9-0.5c-0.3-0.2-0.6-0.5-0.9-0.7c-0.2-0.2-0.4-0.5-0.6-0.7     c-0.2-0.2-0.3-0.5-0.5-0.8c-0.1-0.2-0.2-0.4-0.2-0.6c-0.1-0.2-0.1-0.4-0.2-0.6c-0.1-0.2-0.3-0.4-0.5-0.4C9,17.3,8.6,17.5,8.6,18z     " id="XMLID_1010_"/></g></g></g></svg>