<?xml version="1.0" ?><svg height="32px" id="Layer_15" style="enable-background:new 0 0 32 32;" version="1.0" viewBox="0 0 32 32" width="32px" xml:space="preserve" xmlns="http://www.w3.org/2000/svg" xmlns:xlink="http://www.w3.org/1999/xlink"><style type="text/css">
	.Drop_x0020_Shadow{fill:none;}
	.Round_x0020_Corners_x0020_2_x0020_pt{fill:#FFFFFF;stroke:#231F20;stroke-miterlimit:10;}
	.Live_x0020_Reflect_x0020_X{fill:none;}
	.Bevel_x0020_Soft{fill:url(#SVGID_1_);}
	.Dusk{fill:#FFFFFF;}
	.Foliage_GS{fill:#FFDD00;}
	.Pompadour_GS{fill-rule:evenodd;clip-rule:evenodd;fill:#44ADE2;}
	.st0{fill:#5D8AAB;}
	.st1{fill:#40687F;}
	.st2{fill:#FFFFFF;}
</style><linearGradient gradientUnits="userSpaceOnUse" id="SVGID_1_" x1="-47" x2="-46.2929" y1="-94" y2="-93.2929"><stop offset="0" style="stop-color:#DEDFE3"/><stop offset="0.1783" style="stop-color:#DADBDF"/><stop offset="0.3611" style="stop-color:#CECFD3"/><stop offset="0.546" style="stop-color:#B9BCBF"/><stop offset="0.7324" style="stop-color:#9CA0A2"/><stop offset="0.9181" style="stop-color:#787D7E"/><stop offset="1" style="stop-color:#656B6C"/></linearGradient><g id="XMLID_278_"><path class="st0" d="M27.1,31.5H4.9c-2.4,0-4.3-1.9-4.3-4.3V5c0-2.4,1.9-4.3,4.3-4.3h22.2c2.4,0,4.3,1.9,4.3,4.3   v22.2C31.4,29.6,29.5,31.5,27.1,31.5z" id="XMLID_83_"/><polygon class="st1" id="XMLID_82_" points="31.4,31.6 0.6,31.6 0.6,23.9 31.4,23.8  "/><g id="NpnyCQ.tif"><g id="XMLID_454_"><path class="st2" d="M3.6,23.4c0-0.5,0-1.1,0-1.6c0-0.2,0.1-0.5,0.1-0.7c0-0.3,0.1-0.7,0.1-1     c0-0.3,0.1-0.5,0.1-0.8c0,0,0-0.1,0-0.1C4,18.9,4,18.7,4,18.5c0-0.1,0.1-0.2,0.1-0.3c0-0.1,0.1-0.3,0.1-0.4     c0.1-0.2,0.1-0.4,0.2-0.6c0.1-0.3,0.2-0.5,0.3-0.8c0.1-0.3,0.3-0.6,0.4-0.9c0.2-0.5,0.5-1,0.8-1.4c0.2-0.4,0.5-0.7,0.8-1.1     c0.4-0.5,0.8-1,1.3-1.4c0.4-0.4,0.8-0.7,1.2-1c0.5-0.4,1-0.7,1.6-1c0.4-0.2,0.7-0.4,1.1-0.5c0.4-0.2,0.8-0.3,1.2-0.5     c0.2-0.1,0.4-0.1,0.7-0.2c0.1,0,0.3-0.1,0.4-0.1c0.2-0.1,0.3-0.1,0.5-0.1c0.2-0.1,0.5-0.1,0.8-0.1c0,0,0.1,0,0.1,0     c0.3,0,0.5-0.1,0.8-0.1c0.2,0,0.4,0,0.6-0.1c0.4,0,0.7,0,1.1,0c0,0,0.1,0,0.1,0c0.1,0,0.3,0,0.4,0c0,0,0.1,0,0.1,0     c0.5,0,1,0,1.5,0.1c0.2,0,0.4,0,0.6,0C20.9,8,21.2,8,21.5,8.1c0.1,0,0.2,0,0.4,0c0.2,0.1,0.4,0.1,0.7,0.1c0.2,0,0.4,0.1,0.6,0.1     c0.1,0,0.2,0,0.3,0.1c0.2,0.1,0.3,0.1,0.5,0.1c0.2,0.1,0.5,0.1,0.7,0.2c0.1,0,0.1,0.1,0.1,0.1c-0.1,0.2,0,0.3-0.1,0.5     c-0.1,0.2-0.1,0.4-0.1,0.6c-0.1,0.3-0.1,0.6-0.2,1c0,0.2-0.1,0.3-0.1,0.5c0,0.2-0.1,0.5-0.1,0.7c0,0.2,0,0.5-0.1,0.7     c0,0,0,0,0,0.1c0,0.1,0,0.2,0,0.3c-0.1,0.2-0.1,0.4-0.1,0.6c0,0.2-0.1,0.5-0.1,0.7c0,0.2-0.1,0.4-0.1,0.6c0,0.2-0.1,0.5-0.1,0.7     c0,0.3-0.1,0.6-0.1,0.8c0,0.2-0.1,0.4-0.1,0.6c0,0.2-0.1,0.4-0.1,0.7c-0.1,0.2-0.1,0.5-0.1,0.7c0,0.3-0.1,0.6-0.1,0.8     c0,0.1,0,0.2-0.1,0.3c0,0.1-0.1,0.3-0.1,0.4c0,0.3-0.1,0.5-0.1,0.8c-0.1,0.4-0.1,0.8-0.2,1.1c0,0.1-0.1,0.3-0.1,0.4     c0,0.4-0.1,0.7-0.1,1.1c-0.1,0.4,0,0.7-0.1,1.1c0,0.2,0,0.4,0,0.5c0,0.3-0.1,0.5-0.1,0.8c0,0.1,0,0.2,0,0.4     c0,0.3-0.1,0.6-0.1,0.9c0,0.6,0,1.2,0,1.8c0,0.1,0,0.1-0.1,0.1c-0.6,0-1.2,0-1.9,0c-1.1,0-2.2,0-3.3,0c-0.1,0-0.1,0-0.1-0.1     c0-0.2,0-0.4,0.1-0.6c0-0.3,0-0.6,0.1-1c0.1-0.4,0.1-0.7,0.1-1.1c0-0.4,0-0.7,0.1-1.1c0-0.1,0-0.1,0-0.2c0-0.1-0.1-0.2-0.2-0.1     c-0.1,0.1-0.1,0.1-0.2,0.2c-0.1,0.2-0.2,0.3-0.3,0.5c-0.3,0.4-0.6,0.9-0.9,1.2c-0.2,0.3-0.5,0.6-0.8,0.8c-0.3,0.3-0.6,0.5-1,0.8     c-0.3,0.2-0.5,0.3-0.8,0.4c-0.2,0.1-0.3,0.1-0.5,0.2c-0.2,0.1-0.3,0.1-0.5,0.2c-0.3,0.1-0.5,0.1-0.8,0.2c-0.3,0.1-0.7,0.1-1,0.1     c-0.2,0-0.4,0-0.6,0c-0.2,0-0.5,0-0.7-0.1c-0.2,0-0.4-0.1-0.6-0.1c-0.2-0.1-0.4-0.1-0.6-0.2c-0.3-0.1-0.5-0.2-0.8-0.4     c-0.4-0.2-0.7-0.5-1-0.8c-0.3-0.3-0.6-0.6-0.8-1c-0.1-0.2-0.3-0.5-0.4-0.7c-0.1-0.2-0.2-0.4-0.3-0.6c-0.1-0.2-0.1-0.4-0.2-0.6     c0-0.1-0.1-0.3-0.1-0.4c-0.1-0.3-0.1-0.5-0.2-0.8c0-0.1,0-0.1,0-0.2C3.6,23.8,3.6,23.6,3.6,23.4z M16.4,12.3c-0.2,0-0.5,0-0.7,0     c-0.2,0-0.4,0.1-0.5,0.1c-0.2,0.1-0.4,0.1-0.6,0.2c-0.2,0.1-0.4,0.2-0.5,0.3c-0.5,0.3-0.9,0.6-1.3,1c-0.4,0.4-0.8,0.9-1.2,1.4     c-0.2,0.3-0.4,0.6-0.6,0.9c-0.1,0.2-0.2,0.3-0.3,0.5c-0.1,0.2-0.2,0.5-0.3,0.7c-0.1,0.3-0.2,0.6-0.3,0.8     c-0.1,0.2-0.1,0.5-0.2,0.8c-0.1,0.2-0.1,0.5-0.1,0.7c0,0.3-0.1,0.5-0.1,0.8c0,0.2,0,0.4-0.1,0.5c0,0.2,0,0.5,0,0.7     c0,0.3,0,0.7,0.1,1c0,0.2,0.1,0.3,0.1,0.5c0.1,0.2,0.2,0.5,0.3,0.7c0.2,0.3,0.4,0.6,0.7,0.8c0.3,0.2,0.7,0.4,1.1,0.4     c0.2,0,0.4,0,0.6,0c0.2-0.1,0.4-0.1,0.6-0.2c0.3-0.1,0.6-0.3,0.8-0.5c0.2-0.2,0.5-0.4,0.7-0.6c0.3-0.3,0.6-0.7,0.8-1.1     c0.2-0.3,0.3-0.5,0.5-0.8c0.1-0.2,0.2-0.4,0.3-0.6c0.1-0.2,0.1-0.3,0.2-0.5c0.1-0.2,0.1-0.3,0.2-0.5c0-0.1,0.1-0.3,0.1-0.4     c0.1-0.2,0.2-0.5,0.2-0.7c0.1-0.3,0.1-0.5,0.2-0.8c0.1-0.3,0.2-0.7,0.2-1c0-0.2,0.1-0.4,0.1-0.6c0-0.2,0.1-0.4,0.1-0.6     c0-0.2,0.1-0.5,0.1-0.7c0-0.2,0.1-0.5,0.1-0.7c0-0.2,0.1-0.4,0.1-0.6c0-0.2,0.1-0.4,0.1-0.6c0.1-0.3,0.1-0.5,0.2-0.8     c0,0,0-0.1,0-0.1c-0.1,0-0.1-0.1-0.2-0.1c-0.1,0-0.2,0-0.3-0.1c-0.2-0.1-0.5-0.1-0.7-0.1C16.8,12.3,16.6,12.3,16.4,12.3z" id="XMLID_514_"/></g></g></g></svg>