<?xml version="1.0" ?><!DOCTYPE svg  PUBLIC '-//W3C//DTD SVG 1.1//EN'  'http://www.w3.org/Graphics/SVG/1.1/DTD/svg11.dtd'><svg enable-background="new 0 0 100 100" height="100px" id="Calque_2" version="1.1" viewBox="0 0 100 100" width="100px" xml:space="preserve" xmlns="http://www.w3.org/2000/svg" xmlns:xlink="http://www.w3.org/1999/xlink"><g><path d="M64.72,6.2c-16.03,0-29.07,13.05-29.07,29.08c0,7.75,3.04,14.8,8.01,20.02l-6.72,6.72L33.31,58.4L7.92,83.79   c-2.29,2.29-2.29,6,0,8.29c1.11,1.11,2.58,1.71,4.14,1.71c1.57,0,3.04-0.6,4.15-1.71L41.6,66.69l-3.63-3.631l6.73-6.72   c5.21,4.96,12.27,8.01,20.02,8.01c16.03,0,29.07-13.04,29.07-29.07C93.8,19.25,80.75,6.2,64.72,6.2z M15.17,91.04   c-0.83,0.83-1.93,1.28-3.1,1.28c-1.18,0-2.28-0.45-3.11-1.28c-1.71-1.71-1.71-4.5,0-6.21l1.33-1.33l6.21,6.21L15.17,91.04z    M39.52,66.69l-2.83,2.829l-6.21-6.21l2.83-2.829L39.52,66.69z M64.72,57.76c-12.399,0-22.479-10.09-22.479-22.48   c0-12.4,10.08-22.48,22.479-22.48c12.4,0,22.48,10.08,22.48,22.48C87.2,47.67,77.12,57.76,64.72,57.76z"/><path d="M50.586,47.154l-0.012-0.014c-3.633-4.318-5.07-9.981-3.945-15.539l-1.44-0.291c-1.215,6.004,0.34,12.123,4.271,16.789   l0.009,0.01c0.365,0.436,0.754,0.859,1.159,1.264c1.029,1.029,2.164,1.942,3.369,2.709l0.789-1.238   c-1.115-0.712-2.166-1.556-3.119-2.51C51.291,47.956,50.926,47.558,50.586,47.154z"/><path d="M78.814,21.187c-2.873-2.873-6.496-4.777-10.48-5.508l-0.264,1.445c3.688,0.676,7.043,2.439,9.705,5.102   c6.545,6.545,7.223,16.996,1.576,24.313l1.164,0.898C86.611,39.537,85.879,28.252,78.814,21.187z"/></g></svg>