<?xml version="1.0" ?><svg viewBox="0 0 44 35.81" xmlns="http://www.w3.org/2000/svg"><defs><style>.cls-1{fill:#f7931e;}</style></defs><title/><g data-name="Layer 2" id="Layer_2"><g data-name="Layer 1" id="Layer_1-2"><path class="cls-1" d="M35.17,9.55l1.5-6.84a1,1,0,0,0-.76-1.19L29.06,0a1,1,0,0,0-1.19.76A1,1,0,0,0,28.65,2l4.49,1L3.87,21.87l1.08,1.68L34.22,4.68l-1,4.46a1,1,0,0,0,.13.74,1,1,0,0,0,.62.43A1,1,0,0,0,35.17,9.55Z"/><path class="cls-1" d="M43,3.81a1,1,0,0,0-1,1v29H40v-20a1,1,0,0,0-1-1H33a1,1,0,0,0-1,1v20H30v-15a1,1,0,0,0-1-1H23a1,1,0,0,0-1,1v15H20v-10a1,1,0,0,0-1-1H13a1,1,0,0,0-1,1v10H10v-5a1,1,0,0,0-1-1H3a1,1,0,0,0-1,1v5H1a1,1,0,0,0,0,2H44v-31A1,1,0,0,0,43,3.81Zm-39,30v-4H8v4Zm10,0v-9h4v9Zm10,0v-14h4v14Zm10,0v-19h4v19Z"/></g></g></svg>