<?xml version="1.0" ?><svg viewBox="0 0 31.21 42.52" xmlns="http://www.w3.org/2000/svg"><defs><style>.cls-1{fill:#f7931e;}.cls-2{fill:none;stroke:#f7931e;stroke-miterlimit:10;}</style></defs><title/><g data-name="Layer 2" id="Layer_2"><g data-name="Layer 1" id="Layer_1-2"><path class="cls-1" d="M15.83,25.11l-2.92-1.67-3.36,0-1.7-2.9L4.92,18.9l0-3.36-1.7-2.9L4.87,9.7l0-3.36,2.9-1.7L9.42,1.72l3.37,0L15.69,0l2.92,1.67,3.36,0,1.7,2.9L26.6,6.22l0,3.36,1.7,2.9-1.67,2.92,0,3.36-2.9,1.7L22.1,23.4l-3.37,0Zm-2.4-3.67,2.38,1.36,2.37-1.39,2.75,0L22.29,19l2.37-1.39,0-2.75L26,12.5l-1.39-2.37,0-2.75L22.22,6,20.83,3.65l-2.75,0L15.7,2.31,13.33,3.7l-2.75,0L9.23,6.1,6.86,7.48l0,2.75L5.51,12.61,6.9,15l0,2.75L9.3,19.09l1.39,2.37Z"/><path class="cls-1" d="M15.76,20.56a8,8,0,1,1,3.15-.65A8,8,0,0,1,15.76,20.56Zm0-14a6,6,0,1,0,5.57,8.23h0a6,6,0,0,0-5.57-8.23Z"/><path class="cls-1" d="M9.48,42.52,4.92,38.87,0,39.65,5.27,23.28l9.43,3Zm-4-5.76,3,2.39L12.19,27.6,6.57,25.79,2.9,37.17Z"/><path class="cls-1" d="M21.72,42.52,16.5,26.31l9.43-3,5.28,16.38-4.92-.78ZM19,27.6l3.72,11.55,3-2.39,2.58.41L24.64,25.79Z"/><circle class="cls-2" cx="15.76" cy="12.56" r="7"/></g></g></svg>