<?xml version="1.0" ?><!DOCTYPE svg  PUBLIC '-//W3C//DTD SVG 1.1//EN'  'http://www.w3.org/Graphics/SVG/1.1/DTD/svg11.dtd'><svg height="512px" style="enable-background:new 0 0 512 512;" version="1.1" viewBox="0 0 512 512" width="512px" xml:space="preserve" xmlns="http://www.w3.org/2000/svg" xmlns:xlink="http://www.w3.org/1999/xlink"><g id="Finger_x2C__gesture_x2C__hand_x2C__one"><g><path d="M395.467,388.189l-1.996-0.016c9.15-23.558,33.62-45.105,33.469-65.984l-0.711-97.192    c-0.026-3.147-0.821-6.168-2.153-8.957c-3.64-11.548-15.37-20.011-29.353-19.907c-2.335,0.011-4.574,0.308-6.742,0.773    c-3.446-11.822-15.332-20.535-29.542-20.436c-7.316,0.059-13.937,2.54-19.165,6.465c-0.341-0.104-0.685-0.207-1.033-0.311    l-0.026-2.868c-0.109-15.147-13.823-27.325-30.636-27.198c-11.107,0.081-20.675,5.561-25.94,13.592    c-0.166-0.049-0.341-0.098-0.514-0.147l0.067-90.313c0.011-20.435-13.604-37.002-30.42-37.025    c-16.819-0.028-30.461,16.511-30.473,36.935c-0.026,33.248-0.049,61.38-0.068,90.393c-0.03,0.518-0.079,1.033-0.076,1.559    c0.023,3.416,0.045,6.482,0.068,9.24c-0.011,12.779-0.019,25.855-0.03,39.749h0.219c0.061,9.81,0.178,27.295,0.412,59.302    c0,0-57.874-14.652-85.458-14.455c-60.155,0.447-53.639,43.544-44.194,49.635c102.338,11.013,117.04,27.56,137.533,73.68    c0.265,0.586,0.526,1.498,0.787,2.655c-9.753,1.332-17.319,9.575-17.387,19.698l-0.299,44.933    c-0.075,11.111,8.864,20.167,19.967,20.24l163.128,1.101c11.096,0.075,20.163-8.864,20.236-19.972l0.306-44.932    C415.511,397.325,406.575,388.266,395.467,388.189z M384.633,446.139c-8.891,0.072-16.158-7.078-16.229-15.973    c-0.071-8.89,7.081-16.157,15.973-16.229c8.89-0.068,16.157,7.078,16.229,15.972C400.677,438.804,393.523,446.066,384.633,446.139    z"/></g></g><g id="Layer_1"/></svg>