<?xml version="1.0" ?><!DOCTYPE svg  PUBLIC '-//W3C//DTD SVG 1.1//EN'  'http://www.w3.org/Graphics/SVG/1.1/DTD/svg11.dtd'><svg height="512px" style="enable-background:new 0 0 512 512;" version="1.1" viewBox="0 0 512 512" width="512px" xml:space="preserve" xmlns="http://www.w3.org/2000/svg" xmlns:xlink="http://www.w3.org/1999/xlink"><g id="Hand_x2C__o_x2C__peacehand_x2C__middle_x2C__Finger_x2C__gesture_x2C_"><g><path d="M395.467,371.373l-1.996-0.016c9.15-23.557,33.62-45.105,33.469-65.98l-0.711-97.195    c-0.026-3.147-0.821-6.167-2.153-8.955c-3.64-11.55-15.37-20.009-29.353-19.906c-2.335,0.011-4.574,0.306-6.742,0.775    c-3.446-11.826-15.332-20.535-29.542-20.437c-5.958,0.046-11.439,1.722-16.098,4.449l11.721-62.974    c3.734-20.088-6.636-38.86-23.164-41.943c-13.565-2.542-27.049,6.291-33.519,20.629c-2.05,3.825-3.608,8.092-4.467,12.711    c-3.715,19.957-7.078,38.028-10.344,55.574c-0.257,0.352-0.544,0.685-0.787,1.048l-7.959-60.73    c-2.656-20.259-18.322-34.903-34.998-32.728c-16.68,2.168-28.045,20.349-25.389,40.597c2.444,18.639,4.672,35.644,6.833,52.112    c-0.068,0.772-0.121,1.548-0.114,2.334c0.537,72.5-0.208-11.814,0.669,108.295c0,0-57.874-14.656-85.457-14.456    c-60.155,0.442-53.641,43.543-44.194,49.634c102.336,11.014,117.038,27.557,137.535,73.676c0.261,0.591,0.522,1.499,0.783,2.656    c-9.749,1.331-17.319,9.578-17.383,19.702l-0.303,44.928c-0.075,11.111,8.868,20.168,19.967,20.24l163.128,1.101    c11.096,0.076,20.163-8.863,20.236-19.971l0.306-44.932C415.511,380.51,406.575,371.452,395.467,371.373z M384.633,429.326    c-8.891,0.068-16.158-7.082-16.229-15.972c-0.071-8.895,7.081-16.162,15.973-16.23c8.89-0.071,16.157,7.075,16.229,15.973    C400.677,421.987,393.523,429.251,384.633,429.326z"/></g></g><g id="Layer_1"/></svg>