<?xml version="1.0" ?><!DOCTYPE svg  PUBLIC '-//W3C//DTD SVG 1.0//EN'  'http://www.w3.org/TR/2001/REC-SVG-20010904/DTD/svg10.dtd'><svg enable-background="new 0 0 24 24" id="Layer_1" version="1.0" viewBox="0 0 24 24" xml:space="preserve" xmlns="http://www.w3.org/2000/svg" xmlns:xlink="http://www.w3.org/1999/xlink"><g><path d="M18,10v10H6V10H18 M18,8H6c-1.1,0-2,0.9-2,2v10c0,1.1,0.9,2,2,2h12c1.1,0,2-0.9,2-2V10C20,8.9,19.1,8,18,8L18,8z"/></g><path d="M17,9c0-0.4,0-1.6,0-2c0-2.8-2.2-5-5-5  C9.6,2,7.6,3.7,7.1,6" fill="none" stroke="#000000" stroke-miterlimit="10" stroke-width="2"/><circle cx="12" cy="15" r="2"/></svg>