<?xml version="1.0" ?><svg id="Layer_1" style="enable-background:new 1 -1 100 100;" version="1.1" viewBox="1 -1 100 100" xml:space="preserve" xmlns="http://www.w3.org/2000/svg" xmlns:xlink="http://www.w3.org/1999/xlink"><title/><path d="M92.6,35.8h-3.4v-8c0-1.9-1.6-3.5-3.5-3.5H9.4c-1.9,0-3.5,1.6-3.5,3.5v42.5c0,1.9,1.6,3.5,3.5,3.5h76.3  c1.9,0,3.5-1.6,3.5-3.5v-8h3.4c1.9,0,3.5-1.6,3.5-3.5V39.2C96.1,37.3,94.5,35.8,92.6,35.8z M46.4,63.2c-0.7,0.9-1.7,1.3-2.8,1.3  H18.6c-1.9,0-3.5-1.6-3.5-3.5V36.9c0-1.9,1.6-3.5,3.5-3.5h18.9c1.6,0,3,1.1,3.4,2.6L47,60.2C47.3,61.3,47.1,62.4,46.4,63.2z"/></svg>