<?xml version="1.0" ?><svg enable-background="new 0 0 52 52" id="Layer_1" version="1.1" viewBox="0 0 52 52" xml:space="preserve" xmlns="http://www.w3.org/2000/svg" xmlns:xlink="http://www.w3.org/1999/xlink"><g><g><path d="M7.9776964,19.2126465c-0.0653076-0.0432739-0.12146-0.0969238-0.1928101-0.1326294L4.8348742,17.25    l-0.1099854-0.0499878C4.4548693,17.0700073,4.1548815,17,3.8548934,17c-1.1000366,0-2,0.8699951-2,1.9299927v8.1400146    c0,1.0700073,0.8999634,1.9299927,2,1.9299927c0.299988,0,0.5999758-0.0599976,0.8699954-0.1900024l3.0599976-1.8899536    c0.0710449-0.0355225,0.1268921-0.088562,0.1919556-0.1314087C8.2433214,26.9197388,8.5387926,27,8.8548937,27h5.0038452v-8    H8.8548937C8.5391588,19,8.2439318,19.0808716,7.9776964,19.2126465z" fill="#3A92CC"/></g><g><path d="M34.8548927,19H15.8587389v8h18.9961548c1.1099854,0,2-0.8900146,2-2v-4    C36.8548927,19.9000244,35.9648781,19,34.8548927,19z"/></g><g><path d="M49.2548561,21.3300171l-5.8599854-3.5499878c-0.8499756-0.6199951-2.1199951-0.4500122-2.75,0.3800049    c-0.3247681,0.4227295-0.9550781,1.0161743-2.0643921,1.4140015c0.1706543,0.4443359,0.274353,0.921936,0.274353,1.4257202v4    c0,0.46521-0.0950928,0.9051514-0.2416992,1.3207397c1.0936279,0.4016113,1.7157593,0.9942017,2.0317383,1.4194946    C41.0248756,28.2200317,41.594883,28.5,42.2148781,28.5c0.4199829,0,0.8200073-0.1300049,1.0899658-0.3200073l6-3.5599976    c0.5200195-0.3699951,0.8400269-0.9699707,0.8400269-1.6099854C50.1548805,22.3599854,49.844883,21.7600098,49.2548561,21.3300171    z" fill="#3A92CC"/></g><g><path d="M16.8548927,32.8400269V33c0,1.1099854,0.8999634,2,2,2h2.5199585c0.6500244,0,1.2300415-0.289978,1.6000366-0.8099976    c0.3800049-0.5299683,0.4799805-1.2099609,0.2799683-1.8399658c-0.2399902-0.710022,0.3300171-1.6300049,0.9299927-2.6100464    c0.145813-0.2441406,0.2918091-0.4909668,0.4337158-0.7402344h-6.4815063L16.8548927,32.8400269z"/></g></g></svg>