<?xml version="1.0" ?><svg enable-background="new 0 0 52 52" id="Layer_1" version="1.1" viewBox="0 0 52 52" xml:space="preserve" xmlns="http://www.w3.org/2000/svg" xmlns:xlink="http://www.w3.org/1999/xlink"><g><g><path d="M47.9453125,43.1734619c-1.256897-3.4593506-4.0150757-6.1134033-7.4658203-7.2878418    C40.8084106,34.3237305,41.0006104,32.6917725,41.0006104,31c0-0.9268799-0.0541992-1.8438721-0.1586914-2.7452393    l7.5653076,5.5476074l1.1835938-1.6132813l-9.2672119-6.7956543c-0.4116211-1.6811523-1.0020142-3.2772217-1.7527466-4.743042    l7.1869507-1.8148193l4.1806641-11.4980469l-1.8789063-0.6835938l-3.8193359,10.5019531l-6.7158203,1.6955566    c-1.3902588-2.1237793-3.1448975-3.8798828-5.1837769-5.081543C30.3605957,12.5999756,28.2306519,12,26.0006104,12    c-2.2399902,0-4.3800049,0.5999756-6.3499756,1.7799072c-2.0325317,1.2001953-3.7832642,2.9533691-5.1712646,5.0732422    l-6.7215576-1.6972656L3.9384766,6.6539307L2.0595703,7.3375244l4.1806641,11.4980469l7.192749,1.8165283    c-0.7503052,1.4642334-1.3407593,3.0582275-1.7528076,4.7371826l-9.2729492,6.7998047l1.1835938,1.6132813l7.569397-5.5505371    C11.0552979,29.1542969,11.0006104,30.0722656,11.0006104,31c0,1.6915283,0.1921997,3.3233643,0.5209961,4.8852539    c-3.4503174,1.173584-6.2080688,3.8284912-7.4659424,7.288208l-1.9941406,5.484375l1.8789063,0.6835938l1.9941406-5.484375    c1.0328369-2.8382568,3.272522-5.0302734,6.0826416-6.0341797C14.1878662,44.9356689,19.630188,50,26.0006104,50    c6.3704834,0,11.8128052-5.0643311,13.9833984-12.177124c2.8108521,1.0040283,5.0504761,3.1967773,6.0823975,6.0341797    l1.9951172,5.484375l1.8789063-0.6835938L47.9453125,43.1734619z"/></g><g><path d="M18.6337891,12.057251c2.2773438-1.3632813,4.7597656-2.0576172,7.3671875-2.0576172    c2.5810547,0,5.0556641,0.6894531,7.3574219,2.0488281c0.147644,0.0870361,0.2880249,0.1875,0.4330444,0.279541    c0.1247559-0.5969238,0.2091675-1.2054443,0.2091675-1.8280029c0-4.6900635-3.5899658-8.5-8-8.5c-4.4099731,0-8,3.8099365-8,8.5    c0,0.6225586,0.0836792,1.232666,0.2081299,1.8321533C18.3511353,12.2418213,18.4888306,12.1428223,18.6337891,12.057251z     M26.9990234,6.9957275h2v2h-2V6.9957275z M22.9990234,6.9957275h2v2h-2V6.9957275z" fill="#3A92CC"/></g></g></svg>