<?xml version="1.0" ?><svg enable-background="new 0 0 52 52" id="Layer_1" version="1.1" viewBox="0 0 52 52" xml:space="preserve" xmlns="http://www.w3.org/2000/svg" xmlns:xlink="http://www.w3.org/1999/xlink"><g><path d="M35.6400146,1.9899902H16.3600464L7,11.3599854v15.5300293c0,7.8399658,3.6700439,15.0499878,9.8099976,19.2999878   c2.7800293,1.9199829,5.7000122,3.1599731,8.9400024,3.789978l0.1900024,0.0300293l0.1900024-0.0300293   c3.3099976-0.6500244,6.3600464-1.9199829,9.0599976-3.789978C41.3400269,41.9400024,45,34.7299805,45,26.8900146V11.3599854   L35.6400146,1.9899902z M19.7091675,33.2006836l-1.1445313,1.144043l-3.5107422-10.534668l1.8964844-0.6328125l2.4970703,7.4887695   c2.8574219-2.7299805,10.4013672-9.6230469,16.1611328-12.0913086l0.7871094,1.8378906   C29.6554565,23.3017578,19.8078003,33.1020508,19.7091675,33.2006836z"/></g></svg>