<?xml version="1.0" ?><svg enable-background="new 0 0 52 52" id="Layer_1" version="1.1" viewBox="0 0 52 52" xml:space="preserve" xmlns="http://www.w3.org/2000/svg" xmlns:xlink="http://www.w3.org/1999/xlink"><g><path d="M39.6515503,8.0799561L30.081604,9.9599609c-0.5308228,0.1095581-0.9157715,0.5234375-1.029541,1.0379028h-2.0504761   V9.2199707c0-1.2299805-1-2.2199707-2.2299805-2.2199707h-3.5500488c-0.5700073,0-1.0828857,0.2189941-1.4751587,0.5695801   C19.2531128,7.2145996,18.6530151,7,18.0015869,7c-1.6600342,0-3,1.3399658-3,3   c0,0.5470581,0.1580811,1.0544434,0.4155273,1.4972534c-2.5845947,1.0302124-4.4187012,3.5529175-4.4187012,6.5006104   c0,0.5522461,0.4472656,1,1,1s1-0.4477539,1-1c0-2.7537842,2.2383423-4.9940796,4.9910278-4.9990845   C17.9935913,12.9987793,17.9974365,13,18.0015869,13c0.3519897,0,0.6854858-0.0725098,1-0.1852417v3.1338501   c-2.9605713,1.4761353-5,4.5272217-5,8.0513916v21h18V24c0-3.5224609-2.0424194-6.5723267-5-8.0493164v-2.9528198h2.0502319   c0.1133423,0.5111084,0.4984741,0.9309082,1.0297852,1.0321045l9.2999878,1.8599854l0.2699585,0.0300293   c0.7400513,0,1.3500366-0.6099854,1.3500366-1.3499756V9.4299927C41.0015869,8.6799927,40.3916016,8.0799561,39.6515503,8.0799561z   "/></g></svg>