<?xml version="1.0" ?><svg enable-background="new 0 0 52 52" id="Layer_1" version="1.1" viewBox="0 0 52 52" xml:space="preserve" xmlns="http://www.w3.org/2000/svg" xmlns:xlink="http://www.w3.org/1999/xlink"><g><g><path d="M30.9984741,20.9989319c2.2099609,0,4-1.789978,4-4c0-2.1999512-1.7900391-4-4-4c-2.2000122,0-4,1.8000488-4,4    C26.9984741,19.2089539,28.7984619,20.9989319,30.9984741,20.9989319z"/></g><g><path d="M44.432373,36.7521057c-1.0539551,1.4088135-2.2722168,2.7081909-3.6506348,3.8612671    c-4.1176758,3.4711914-9.3701172,5.3857422-14.7832031,5.3857422c-5.2509766,0-10.1943359-1.7275391-14.2963867-4.9956055    c-1.5818481-1.2562866-2.9634399-2.6950073-4.1405029-4.2670898C5.2258301,38.0975647,4,39.7147522,4,41.5010681    c0,5.5209961,11.3349609,8.5,22,8.5s22-2.9790039,22-8.5C48,39.7441711,46.7432251,38.1147766,44.432373,36.7521057z"/></g><g><path d="M12.9484253,39.4389343c3.7400513,2.9800415,8.25,4.5599976,13.0500488,4.5599976    c4.9499512,0,9.7399902-1.75,13.5-4.9199829c4.7699585-3.9899902,7.5-9.8499756,7.5-16.0800171c0-11.5799561-9.4200439-21-21-21    c-11.5800171,0-21,9.4200439-21,21C4.9984741,29.4389343,7.8984375,35.4289856,12.9484253,39.4389343z M25.9984741,10.9989319    c6.6199951,0,12,5.3800049,12,12c0,6.6200562-5.3800049,12-12,12s-12-5.3799438-12-12    C13.9984741,16.3789368,19.378479,10.9989319,25.9984741,10.9989319z" fill="#3A92CC"/></g></g></svg>