<?xml version="1.0" ?><svg enable-background="new 0 0 52 52" id="Layer_1" version="1.1" viewBox="0 0 52 52" xml:space="preserve" xmlns="http://www.w3.org/2000/svg" xmlns:xlink="http://www.w3.org/1999/xlink"><g><g><path d="M37.6032104,20.7523193c0.3044434-0.2957153,0.456665-0.770752,0.456665-1.4238892    s-0.1568604-1.1013794-0.4695435-1.3447266s-0.8704834-0.3644409-1.6738892-0.3644409h-1.9019775v3.5766602h1.8643188    C36.723938,21.1959229,37.2987671,21.0480957,37.6032104,20.7523193z"/></g><g><path d="M14.9927979,17.6472168h-1.4963989v6.8529663h1.6610107c1.0737915,0,1.895752-0.2887573,2.4664307-0.8650513    c0.5706787-0.5775146,0.8560791-1.4285889,0.8560791-2.5544434C18.4799194,18.791687,17.3173828,17.6472168,14.9927979,17.6472168    z"/></g><g><path d="M50,4H2v34h16.7300415l-1.6000366,8H13v2h26v-2h-4.1400146l-1.6499634-8H50V4z M21.9200439,16.0900269h1.4899902    l5.1499634,7.4699707v-7.4699707h1.5v10h-1.6300049l-5.0199585-7.3000488v7.3000488h-1.4899902V16.0900269z     M14.9400024,26.0900269H12v-10h3.0400391c1.5899658,0,2.8099976,0.4299927,3.6699829,1.3099976    c0.8499756,0.8699951,1.2799683,2.0799561,1.2799683,3.6399536c0,1.5500488-0.4199829,2.7800293-1.2399902,3.6900024    C17.9200439,25.6400146,16.6500244,26.0900269,14.9400024,26.0900269z M38.1000366,26.0900269l-2.1199951-3.3600464h-1.9700317    v3.3600464h-1.4899902v-10h3.2999878c1.3500366,0,2.3200073,0.2599487,2.9000244,0.7699585    c0.5799561,0.5200195,0.8699951,1.3400269,0.8699951,2.4800415c0,1.6499634-0.6300049,2.6799927-1.9100342,3.1099854    L40,26.0900269H38.1000366z"/></g></g></svg>