<?xml version="1.0" ?><svg enable-background="new 0 0 52 52" id="Layer_1" version="1.1" viewBox="0 0 52 52" xml:space="preserve" xmlns="http://www.w3.org/2000/svg" xmlns:xlink="http://www.w3.org/1999/xlink"><g><g><path d="M2,47.7200317C2,48.9700317,2.9899902,50,4.2200317,50h12.7199707    c1.2199707,0,2.2199707-1.0299683,2.2199707-2.2799683v-3.7205811H2.0062256L2,47.7200317z" fill="#3A92CC"/></g><g><path d="M32.8400269,47.7200317c0,1.25,1,2.2799683,2.2199707,2.2799683h12.7200317    C49.0100098,50,50,48.9700317,50,47.7200317v-3.7205811H32.8400269V47.7200317z" fill="#3A92CC"/></g><g><path d="M44.460022,9.5800171C44.2700195,8.6600342,43.4500122,8,42.5100098,8H42V4.3699951    C42,3.0599976,40.9400024,2,39.6300049,2h-5.2600098C33.0599976,2,32,3.0599976,32,4.3699951V8h-0.0100098    C30.8900146,8,30,8.8900146,30,9.9900513V12h-8V9.9900513C22,8.8900146,21.1099854,8,20.0100098,8H20V4.3699951    C20,3.0599976,18.9400024,2,17.6300049,2h-5.2600098C11.0599976,2,10,3.0599976,10,4.3699951V8H9.4899902    C8.5499878,8,7.7299805,8.6600342,7.539978,9.5800171l-5.5199585,26.210022l-0.010437,6.2094116h17.1503906V26.710022    l0.8500366-0.2999878C21.2000122,25.9900513,22,24.8600464,22,23.6000366V20h8v3.6000366    c0,1.2600098,0.7999878,2.3900146,1.9899902,2.8099976l0.8500366,0.2999878v15.2894287H50V36L44.460022,9.5800171z"/></g></g></svg>