<?xml version="1.0" ?><svg enable-background="new 0 0 32 32" id="Layer_1" version="1.1" viewBox="0 0 32 32" xml:space="preserve" xmlns="http://www.w3.org/2000/svg" xmlns:xlink="http://www.w3.org/1999/xlink"><g id="Outline_Filled"><g><polygon fill="#FF00FF" points="24.359,2.038 24.359,7.641 29.962,7.641   "/><polygon fill="#FFFFFF" points="24.772,1.625 1.625,1.625 1.625,30.375 30.375,30.375 30.375,7.228   "/><g><polygon fill="#999999" points="24.359,2.038 24.359,7.641 29.962,7.641    "/><path d="M24.358,2.625l5.017,5.017v21.733H2.625V2.625H24.358 M24.772,1.625H1.625v28.75h28.75V7.228L24.772,1.625L24.772,1.625z     "/></g><polygon points="3.623,28.372 28.373,28.372 28.373,8.641 23.359,8.641 23.359,3.623 3.623,3.623   "/></g><path d="M18.47,11.953c0-1.274,2.561-1.934,2.561,0.221c-0.007,1.183-0.17,2.275-0.43,3.274h2.662   c0.202-1.207,0.194-2.399,0.194-3.804c0-3.956-7.456-4.615-7.456,0.397c0,3.52,1.694,5.372,3.466,6.347   C17.99,21.225,16,22.77,16,22.77c-5.569-4.441-5.03-11.96-5.03-11.96H8.543c0.046,10.158,5.526,13.718,6.201,14.247   c0.673,0.528,0.808,0.484,1.617,0.439c0.807-0.044,2.648-1.847,4.895-5.275c0.216-0.332,0.411-0.649,0.588-0.958   c0.94,0.206,1.613,0.21,1.613,0.21v-2.155C18.739,16.878,18.47,12.922,18.47,11.953z" fill="#FFFFFF"/></g></svg>