<?xml version="1.0" ?><svg enable-background="new 0 0 32 32" id="Layer_1" version="1.1" viewBox="0 0 32 32" xml:space="preserve" xmlns="http://www.w3.org/2000/svg" xmlns:xlink="http://www.w3.org/1999/xlink"><g id="Outline_Filled_copy"><g><polygon fill="#FF00FF" points="24.359,2.038 24.359,7.641 29.962,7.641   "/><polygon fill="#FFFFFF" points="24.772,1.625 1.625,1.625 1.625,30.375 30.375,30.375 30.375,7.228   "/><g><polygon fill="#999999" points="24.359,2.038 24.359,7.641 29.962,7.641    "/><path d="M24.358,2.625l5.017,5.017v21.733H2.625V2.625H24.358 M24.772,1.625H1.625v28.75h28.75V7.228L24.772,1.625L24.772,1.625z     "/></g><path d="M22.359,4.623v4.019v1h1h4.015v17.731H4.623V4.623H22.359 M23.359,3.623H3.623v24.75h24.75V8.641h-5.015    L23.359,3.623L23.359,3.623z" fill="#E0E0E0"/></g><g><path d="M14.308,15.601c0,0,1.66-0.126,1.66-2.113c0-1.985-1.126-2.963-2.847-2.963l-5.896-0.009v10.968h6.033    c0,0,3.016,0.095,3.016-3.291C16.274,18.194,16.496,15.601,14.308,15.601z M9.419,12.161h3.016c0,0,1.032,0.017,1.032,1.355    c0,1.387-1.032,1.387-1.032,1.387H9.419V12.161z M12.709,19.839h-3.29v-3.291h3.291c0,0,1.645,0.017,1.645,1.645    C14.355,19.822,12.946,19.839,12.709,19.839z"/><path d="M20.936,13.258c-4.12,0-4.113,4.113-4.113,4.113s-0.274,4.113,4.113,4.113c0,0,3.839,0,3.839-3.291h-2.194    c0,0,0,1.645-1.645,1.645c0,0-1.645,0-1.645-2.194c0,0,4.387,0,5.484,0C24.775,16.548,24.775,13.258,20.936,13.258z     M19.291,16.548c0,0-0.036-1.645,1.645-1.645s1.645,1.645,1.645,1.645H19.291z"/><rect height="1.097" width="4.387" x="18.742" y="11.612"/></g></g></svg>