<?xml version="1.0" ?><svg enable-background="new 0 0 32 32" id="Layer_1" version="1.1" viewBox="0 0 32 32" xml:space="preserve" xmlns="http://www.w3.org/2000/svg" xmlns:xlink="http://www.w3.org/1999/xlink"><g id="Outline_Filled_copy"><g><polygon fill="#FF00FF" points="24.359,2.038 24.359,7.641 29.962,7.641   "/><polygon fill="#FFFFFF" points="24.772,1.625 1.625,1.625 1.625,30.375 30.375,30.375 30.375,7.228   "/><g><polygon fill="#999999" points="24.359,2.038 24.359,7.641 29.962,7.641    "/><path d="M24.358,2.625l5.017,5.017v21.733H2.625V2.625H24.358 M24.772,1.625H1.625v28.75h28.75V7.228L24.772,1.625L24.772,1.625z     "/></g><path d="M22.359,4.623v4.019v1h1h4.015v17.731H4.623V4.623H22.359 M23.359,3.623H3.623v24.75h24.75V8.641h-5.015    L23.359,3.623L23.359,3.623z" fill="#E0E0E0"/></g><g><circle cx="10.848" cy="16" r="4.007"/><circle cx="21.152" cy="16" r="4.007"/></g></g></svg>