<?xml version="1.0" ?><svg enable-background="new 0 0 32 32" id="Layer_1" version="1.1" viewBox="0 0 32 32" xml:space="preserve" xmlns="http://www.w3.org/2000/svg" xmlns:xlink="http://www.w3.org/1999/xlink"><g id="Outline_Filled"><g><polygon fill="#FF00FF" points="24.359,2.038 24.359,7.641 29.962,7.641   "/><polygon fill="#FFFFFF" points="24.772,1.625 1.625,1.625 1.625,30.375 30.375,30.375 30.375,7.228   "/><g><polygon fill="#999999" points="24.359,2.038 24.359,7.641 29.962,7.641    "/><path d="M24.358,2.625l5.017,5.017v21.733H2.625V2.625H24.358 M24.772,1.625H1.625v28.75h28.75V7.228L24.772,1.625L24.772,1.625z     "/></g><polygon points="3.623,28.372 28.373,28.372 28.373,8.641 23.359,8.641 23.359,3.623 3.623,3.623   "/></g><g><path d="M18.209,7.735c0,0-3.795,0-5.094,0c-2.331,0-4.525,1.636-4.525,3.68c0,2.089,1.588,3.714,3.959,3.714    c0.165,0,0.326-0.037,0.483-0.049c-0.155,0.293-0.263,0.609-0.263,0.954c0,0.581,0.312,1.045,0.706,1.429    c-0.296,0-0.586,0.004-0.901,0.004c-2.887,0.001-5.109,1.838-5.109,3.745c0,1.878,2.436,3.054,5.323,3.054    c3.292,0,5.11-1.869,5.11-3.747c0-1.505-0.445-2.407-1.817-3.381c-0.47-0.331-1.369-1.14-1.369-1.616    c0-0.557,0.159-0.831,0.998-1.488c0.859-0.671,1.468-1.472,1.468-2.571c0-1.307-0.562-2.901-1.655-2.901h1.859L18.209,7.735z     M16.499,20.192c0.04,0.175,0.064,0.355,0.064,0.536c0,1.517-0.979,2.703-3.785,2.703c-1.996,0-3.436-1.263-3.436-2.78    c0-1.487,1.788-2.726,3.784-2.703c0.464,0.005,0.899,0.08,1.293,0.206C15.502,18.909,16.279,19.335,16.499,20.192z M13.303,14.532    c-1.34-0.039-2.613-1.498-2.844-3.256c-0.231-1.76,0.668-3.107,2.007-3.067c1.339,0.041,2.613,1.453,2.844,3.212    C15.541,13.179,14.642,14.572,13.303,14.532z" fill="#FFFFFF"/><polygon fill="#FFFFFF" points="22.341,14.341 22.341,11.861 20.688,11.861 20.688,14.341 18.209,14.341 18.209,15.993     20.688,15.993 20.688,18.473 22.341,18.473 22.341,15.993 24.821,15.993 24.821,14.341   "/></g></g></svg>