<?xml version="1.0" ?><svg enable-background="new 0 0 32 32" id="Layer_1" version="1.1" viewBox="0 0 32 32" xml:space="preserve" xmlns="http://www.w3.org/2000/svg" xmlns:xlink="http://www.w3.org/1999/xlink"><g id="Outline_Filled"><g><polygon fill="#FF00FF" points="24.359,2.038 24.359,7.641 29.962,7.641   "/><polygon fill="#FFFFFF" points="24.772,1.625 1.625,1.625 1.625,30.375 30.375,30.375 30.375,7.228   "/><g><polygon fill="#999999" points="24.359,2.038 24.359,7.641 29.962,7.641    "/><path d="M24.358,2.625l5.017,5.017v21.733H2.625V2.625H24.358 M24.772,1.625H1.625v28.75h28.75V7.228L24.772,1.625L24.772,1.625z     "/></g><polygon points="3.623,28.372 28.373,28.372 28.373,8.641 23.359,8.641 23.359,3.623 3.623,3.623   "/></g><path d="M16.103,6.677c-4.159,0-7.446,3.487-7.446,7.694c0,4.395,5.78,10.951,7.446,10.951   c1.459,0,7.239-6.556,7.239-10.951C23.342,10.164,20.055,6.677,16.103,6.677z M16.128,18.37c-2.596,0-4.597-1.981-4.597-4.298   c0-1.073,0.364-2.031,0.959-2.798c0.008,0.953,0.79,1.723,1.754,1.723c0.97,0,1.756-0.778,1.756-1.738   c0-0.705-0.426-1.31-1.036-1.582c0.372-0.092,0.757-0.156,1.164-0.156c2.341,0,4.342,1.981,4.342,4.551   C20.469,16.389,18.468,18.37,16.128,18.37z" fill="#FFFFFF"/></g></svg>