<?xml version="1.0" ?><svg enable-background="new 0 0 32 32" id="Layer_1" version="1.1" viewBox="0 0 32 32" xml:space="preserve" xmlns="http://www.w3.org/2000/svg" xmlns:xlink="http://www.w3.org/1999/xlink"><g id="Outline_Filled"><g><polygon fill="#FF00FF" points="24.359,2.038 24.359,7.641 29.962,7.641   "/><polygon fill="#FFFFFF" points="24.772,1.625 1.625,1.625 1.625,30.375 30.375,30.375 30.375,7.228   "/><g><polygon fill="#999999" points="24.359,2.038 24.359,7.641 29.962,7.641    "/><path d="M24.358,2.625l5.017,5.017v21.733H2.625V2.625H24.358 M24.772,1.625H1.625v28.75h28.75V7.228L24.772,1.625L24.772,1.625z     "/></g><polygon points="3.623,28.372 28.373,28.372 28.373,8.641 23.359,8.641 23.359,3.623 3.623,3.623   "/></g><g><path d="M9.575,11.905c-0.645,0-1.168,0.523-1.168,1.168v4.672c0,0.645,0.523,1.168,1.168,1.168    c0.645,0,1.168-0.523,1.168-1.168v-4.672C10.744,12.428,10.22,11.905,9.575,11.905z" fill="#FFFFFF"/><path d="M22.425,11.905c-0.645,0-1.168,0.523-1.168,1.168v4.672c0,0.645,0.523,1.168,1.168,1.168    c0.645,0,1.168-0.523,1.168-1.168v-4.672C23.593,12.428,23.069,11.905,22.425,11.905z" fill="#FFFFFF"/><path d="M11.328,21.25h1.168v2.92c0,0.645,0.523,1.168,1.168,1.168s1.168-0.523,1.168-1.168v-2.92h2.336v2.92    c0,0.645,0.523,1.168,1.168,1.168s1.168-0.523,1.168-1.168v-2.92h1.168v-8.761h-9.345v8.761H11.328z" fill="#FFFFFF"/><path d="M18.758,8.139l0.6-1.039c0.081-0.14,0.033-0.318-0.107-0.399c-0.139-0.081-0.318-0.033-0.399,0.107    l-0.585,1.013C17.596,7.447,16.824,7.233,16,7.233c-0.823,0-1.595,0.214-2.267,0.589l-0.585-1.014    c-0.081-0.14-0.259-0.187-0.399-0.107c-0.14,0.081-0.188,0.259-0.108,0.399l0.6,1.04c-1.158,0.85-1.914,2.218-1.914,3.766h9.345    C20.672,10.358,19.917,8.99,18.758,8.139z M14.248,10.153c-0.323,0-0.584-0.261-0.584-0.584s0.261-0.584,0.584-0.584    s0.584,0.261,0.584,0.584S14.571,10.153,14.248,10.153z M17.752,10.153c-0.323,0-0.584-0.261-0.584-0.584s0.261-0.584,0.584-0.584    s0.584,0.261,0.584,0.584S18.075,10.153,17.752,10.153z" fill="#FFFFFF"/></g></g></svg>