<?xml version="1.0" ?><svg enable-background="new 0 0 32 32" id="Outline_Color" version="1.1" viewBox="0 0 32 32" xml:space="preserve" xmlns="http://www.w3.org/2000/svg" xmlns:xlink="http://www.w3.org/1999/xlink"><g><g><path d="M4,31.5c-1.93,0-3.5-1.57-3.5-3.5V4c0-1.93,1.57-3.5,3.5-3.5h24c1.93,0,3.5,1.57,3.5,3.5v24    c0,1.93-1.57,3.5-3.5,3.5H4z" fill="#FFFFFF"/><path d="M28,1c1.654,0,3,1.346,3,3v24c0,1.654-1.346,3-3,3H4c-1.654,0-3-1.346-3-3V4c0-1.654,1.346-3,3-3H28 M28,0H4    C1.8,0,0,1.8,0,4v24c0,2.2,1.8,4,4,4h24c2.2,0,4-1.8,4-4V4C32,1.8,30.2,0,28,0L28,0z"/></g><path d="M27.438,29.438H4.562c-1.1,0-2-0.9-2-2V4.562c0-1.1,0.9-2,2-2h22.875c1.1,0,2,0.9,2,2v22.875   C29.438,28.538,28.538,29.438,27.438,29.438z" fill="#FF0000"/></g><g><path d="M23.866,19.985v-0.127c-1.534-0.818-2.366-2.019-2.366-3.757c0-1.405,0.624-2.632,1.768-3.424l0.052-0.026   c-0.754-0.92-1.768-1.839-3.329-1.839c-1.092,0-2.002,1.048-3.51,1.048c-1.196,0-1.691-0.997-2.991-0.997   c-2.704,0-5.383,2.376-5.383,5.468c0,1.636,0.546,4.166,1.768,6.363c0.884,1.61,1.976,2.658,3.199,2.658   c0.884,0,1.924-0.792,3.173-0.792c1.092,0,2.107,0.716,3.094,0.716c2.367,0,4.551-3.015,4.551-5.033   C23.892,20.139,23.866,20.062,23.866,19.985z" fill="#FFFFFF"/><path d="M16.427,11.529c1.768-0.537,3.407-1.84,3.407-4.114c0-0.179-0.026-0.409-0.052-0.664l-0.026-0.102   c-1.794,0.485-3.406,1.865-3.406,4.037c0,0.205,0.026,0.46,0.078,0.741L16.427,11.529L16.427,11.529z" fill="#FFFFFF"/></g></svg>