<?xml version="1.0" ?><svg enable-background="new 0 0 32 32" version="1.1" viewBox="0 0 32 32" xml:space="preserve" xmlns="http://www.w3.org/2000/svg" xmlns:xlink="http://www.w3.org/1999/xlink"><g id="GLYPH"><g><g><polygon points="29.935,13.935 18.065,2.065 17.958,3.604 28.395,14.043    "/></g><g><polygon points="2.065,18.065 13.937,29.937 14.044,28.395 3.607,17.957    "/></g></g><g><g><circle cx="17.463" cy="10.632" r="0.488"/></g><g><circle cx="14.537" cy="10.632" r="0.488"/></g><g><g><path d="M30.403,14.403l-2.2,0.155L17.442,3.798l0.154-2.201L16,0L0,16l1.596,1.596l2.202-0.155L14.56,28.202l-0.155,2.203      L16,32l16-16L30.403,14.403z M11.612,17.457c0,0.538-0.437,0.975-0.975,0.975s-0.975-0.437-0.975-0.975v-3.9      c0-0.538,0.437-0.975,0.975-0.975s0.975,0.436,0.975,0.975V17.457z M19.9,20.382h-0.975v2.438c0,0.538-0.437,0.975-0.975,0.975      s-0.975-0.437-0.975-0.975v-2.438h-1.95v2.438c0,0.538-0.437,0.975-0.975,0.975s-0.975-0.437-0.975-0.975v-2.438H12.1V13.07h7.8      V20.382z M12.1,12.582c0-1.292,0.631-2.434,1.598-3.143l-0.501-0.868c-0.067-0.117-0.027-0.266,0.089-0.333      c0.117-0.067,0.266-0.027,0.333,0.089l0.488,0.846C14.669,8.861,15.313,8.682,16,8.682c0.687,0,1.332,0.179,1.892,0.491      l0.488-0.845c0.067-0.117,0.217-0.157,0.333-0.09c0.117,0.068,0.157,0.216,0.09,0.333l-0.501,0.867      c0.967,0.71,1.598,1.852,1.598,3.143H12.1z M22.338,17.457c0,0.538-0.437,0.975-0.975,0.975s-0.975-0.437-0.975-0.975v-3.9      c0-0.538,0.437-0.975,0.975-0.975s0.975,0.436,0.975,0.975V17.457z"/></g></g></g></g></svg>