<?xml version="1.0" ?><svg enable-background="new 0 0 32 32" version="1.1" viewBox="0 0 32 32" xml:space="preserve" xmlns="http://www.w3.org/2000/svg" xmlns:xlink="http://www.w3.org/1999/xlink"><g id="GLYPH"><g><g><polygon points="29.935,13.935 18.065,2.065 17.958,3.604 28.395,14.043    "/></g><g><polygon points="2.065,18.065 13.937,29.937 14.044,28.395 3.607,17.957    "/></g></g><g><g><path d="M30.403,14.403l-2.2,0.155L17.442,3.798l0.154-2.201L16,0L0,16l1.596,1.596l2.202-0.155L14.56,28.202l-0.155,2.203L16,32     l16-16L30.403,14.403z M23.199,18.508c-0.086,0.201-0.474,0.487-1.831,0.696c-0.111,0.017-0.154,0.161-0.22,0.464     c-0.024,0.11-0.048,0.219-0.082,0.333c-0.029,0.099-0.091,0.145-0.194,0.145h-0.017c-0.072,0-0.174-0.013-0.304-0.038     c-0.23-0.045-0.487-0.086-0.815-0.086c-0.191,0-0.389,0.017-0.589,0.05c-0.407,0.068-0.753,0.312-1.119,0.571     c-0.532,0.376-1.081,0.764-1.937,0.764c-0.037,0-0.074-0.001-0.11-0.003h0c-0.023,0.002-0.048,0.003-0.072,0.003     c-0.856,0-1.405-0.388-1.936-0.764c-0.367-0.259-0.713-0.504-1.12-0.571c-0.199-0.033-0.397-0.05-0.588-0.05     c-0.345,0-0.617,0.053-0.815,0.092c-0.121,0.024-0.225,0.044-0.304,0.044c-0.083,0-0.172-0.018-0.211-0.151     c-0.034-0.115-0.058-0.227-0.082-0.335c-0.061-0.278-0.104-0.449-0.22-0.466c-1.357-0.21-1.745-0.495-1.832-0.698     c-0.012-0.029-0.019-0.058-0.021-0.087c-0.004-0.078,0.051-0.147,0.128-0.159c2.086-0.344,3.021-2.475,3.06-2.566     c0.001-0.003,0.002-0.005,0.003-0.007c0.128-0.259,0.153-0.483,0.075-0.667c-0.143-0.337-0.61-0.486-0.919-0.584     c-0.076-0.024-0.147-0.047-0.204-0.069c-0.617-0.244-0.668-0.494-0.644-0.622c0.041-0.217,0.332-0.369,0.567-0.369     c0.064,0,0.121,0.011,0.169,0.034c0.277,0.13,0.527,0.196,0.743,0.196c0.298,0,0.428-0.125,0.444-0.142     c-0.008-0.141-0.017-0.289-0.027-0.441c-0.062-0.986-0.139-2.211,0.173-2.911c0.935-2.097,2.918-2.259,3.503-2.259     c0.015,0,0.257-0.003,0.257-0.003l0.035,0c0.587,0,2.574,0.163,3.51,2.261c0.312,0.7,0.235,1.926,0.173,2.912l-0.003,0.043     c-0.009,0.137-0.017,0.271-0.024,0.398c0.015,0.015,0.135,0.13,0.405,0.141h0c0.205-0.008,0.441-0.073,0.7-0.195     c0.076-0.035,0.16-0.043,0.218-0.043c0.088,0,0.177,0.017,0.25,0.048l0.004,0.002c0.21,0.074,0.347,0.221,0.35,0.375     c0.003,0.144-0.108,0.362-0.649,0.575c-0.056,0.022-0.128,0.045-0.204,0.069c-0.309,0.098-0.776,0.246-0.919,0.584     c-0.078,0.184-0.053,0.408,0.074,0.667c0.001,0.003,0.002,0.005,0.003,0.008c0.039,0.09,0.973,2.222,3.06,2.565     c0.077,0.013,0.132,0.081,0.128,0.159C23.218,18.45,23.211,18.479,23.199,18.508z"/></g></g></g></svg>