<?xml version="1.0" ?><svg enable-background="new 0 0 32 32" version="1.1" viewBox="0 0 32 32" xml:space="preserve" xmlns="http://www.w3.org/2000/svg" xmlns:xlink="http://www.w3.org/1999/xlink"><g id="GLYPH"><g><g><polygon points="29.935,13.935 18.065,2.065 17.958,3.604 28.395,14.043    "/></g><g><polygon points="2.065,18.065 13.937,29.937 14.044,28.395 3.607,17.957    "/></g></g><g><g><path d="M16.747,11.453c0.16,0.28,0.258,0.599,0.258,0.944c0,1.068-0.874,1.933-1.953,1.933c-0.936,0-1.716-0.653-1.907-1.523     c-0.489,0.626-0.787,1.409-0.787,2.286c0,1.888,1.631,3.502,3.746,3.502c1.907,0,3.538-1.614,3.538-3.502     C19.642,13.241,18.363,11.768,16.747,11.453z"/></g><g><g><path d="M30.403,14.403l-2.2,0.155L17.442,3.798l0.154-2.201L16,0L0,16l1.596,1.596l2.202-0.155l10.761,10.761l-0.155,2.203      L16,32l16-16L30.403,14.403z M16.084,24.262c-1.357,0-6.068-5.342-6.068-8.924c0-3.428,2.679-6.27,6.068-6.27      c3.22,0,5.899,2.841,5.899,6.27C21.983,18.92,17.273,24.262,16.084,24.262z"/></g></g></g></g></svg>