<?xml version="1.0" ?><svg enable-background="new 0 0 32 32" version="1.1" viewBox="0 0 32 32" xml:space="preserve" xmlns="http://www.w3.org/2000/svg" xmlns:xlink="http://www.w3.org/1999/xlink"><g id="GLYPH"><g><g><polygon points="29.935,13.935 18.065,2.065 17.958,3.604 28.395,14.043    "/></g><g><polygon points="2.065,18.065 13.937,29.937 14.044,28.395 3.607,17.957    "/></g></g><g><g><path d="M15.598,19.625c-0.069,0.08-0.143,0.146-0.225,0.198c-0.082,0.052-0.15,0.078-0.203,0.078     c-0.067,0-0.117-0.019-0.149-0.059c-0.029-0.04-0.044-0.102-0.044-0.19V16.82h-0.725v3.087c0,0.221,0.043,0.384,0.127,0.495     c0.086,0.111,0.211,0.165,0.38,0.165c0.136,0,0.277-0.038,0.422-0.117c0.146-0.077,0.284-0.192,0.42-0.342v0.406h0.724V16.82     h-0.725V19.625z"/></g><g><polygon points="11.422,16.236 12.268,16.236 12.268,20.513 13.086,20.513 13.086,16.236 13.932,16.236 13.932,15.509      11.422,15.509    "/></g><g><path d="M16.218,12.541c0.111,0,0.198-0.031,0.264-0.093c0.065-0.063,0.098-0.149,0.098-0.257V9.975     c0-0.089-0.033-0.161-0.1-0.216c-0.067-0.055-0.154-0.082-0.261-0.082c-0.1,0-0.181,0.027-0.244,0.082     c-0.062,0.055-0.094,0.127-0.094,0.216v2.216c0,0.111,0.03,0.197,0.088,0.259C16.026,12.511,16.11,12.541,16.218,12.541z"/></g><g><g><path d="M18.249,16.776c-0.113,0-0.224,0.029-0.335,0.088c-0.109,0.058-0.213,0.144-0.311,0.257v-1.612H16.87v5.004h0.734V20.23      c0.094,0.114,0.199,0.196,0.31,0.25c0.111,0.054,0.237,0.08,0.379,0.08c0.215,0,0.381-0.069,0.494-0.208      c0.114-0.14,0.171-0.34,0.171-0.601v-2.049c0-0.302-0.06-0.533-0.182-0.69C18.655,16.855,18.48,16.776,18.249,16.776z       M18.211,19.648c0,0.119-0.022,0.203-0.064,0.254c-0.042,0.053-0.107,0.079-0.195,0.079c-0.062,0-0.119-0.014-0.175-0.04      c-0.056-0.026-0.114-0.071-0.173-0.13v-2.3c0.049-0.051,0.099-0.089,0.15-0.113c0.05-0.025,0.101-0.035,0.154-0.035      c0.097,0,0.173,0.032,0.226,0.096c0.051,0.064,0.077,0.159,0.077,0.284V19.648z"/></g></g><g><g><path d="M20.441,16.73c-0.326,0-0.59,0.101-0.795,0.302c-0.205,0.201-0.309,0.463-0.309,0.783v1.658      c0,0.356,0.095,0.635,0.281,0.838c0.187,0.203,0.443,0.304,0.768,0.304c0.361,0,0.633-0.095,0.814-0.286      c0.183-0.193,0.273-0.477,0.273-0.856v-0.19h-0.747v0.168c0,0.218-0.025,0.358-0.073,0.421      c-0.048,0.064-0.132,0.095-0.252,0.095c-0.116,0-0.197-0.037-0.246-0.112c-0.047-0.076-0.071-0.21-0.071-0.405v-0.694h1.388      v-0.942c0-0.35-0.089-0.618-0.267-0.805C21.029,16.823,20.773,16.73,20.441,16.73z M20.728,18.181h-0.642v-0.373      c0-0.155,0.024-0.266,0.075-0.331c0.051-0.069,0.134-0.102,0.25-0.102c0.11,0,0.192,0.032,0.24,0.102      c0.051,0.065,0.077,0.176,0.077,0.331V18.181z"/></g></g><g><g><path d="M30.403,14.403l-2.2,0.155L17.442,3.798l0.154-2.201L16,0L0,16l1.596,1.596l2.202-0.155L14.56,28.202l-0.155,2.203      L16,32l16-16L30.403,14.403z M18.075,9.076h0.816v3.118c0,0.096,0.019,0.166,0.053,0.209c0.033,0.043,0.09,0.065,0.166,0.065      c0.059,0,0.136-0.029,0.228-0.086c0.091-0.057,0.176-0.13,0.252-0.219V9.076h0.818v4.067H19.59v-0.449      c-0.149,0.165-0.306,0.292-0.47,0.378c-0.163,0.086-0.321,0.13-0.474,0.13c-0.19,0-0.331-0.061-0.427-0.182      c-0.095-0.121-0.143-0.302-0.143-0.545V9.076z M15.04,10.006c0-0.316,0.109-0.566,0.33-0.753c0.22-0.187,0.516-0.28,0.887-0.28      c0.338,0,0.616,0.099,0.832,0.296c0.215,0.197,0.323,0.45,0.323,0.76v2.101c0,0.348-0.106,0.62-0.317,0.818      c-0.213,0.198-0.504,0.297-0.876,0.297c-0.357,0-0.643-0.102-0.858-0.306c-0.213-0.205-0.321-0.479-0.321-0.825V10.006z       M12.814,7.63l0.598,2.203h0.058l0.568-2.203h0.936l-1.07,3.225v2.287h-0.92v-2.184L11.887,7.63H12.814z M21.941,21.617      c-0.596,0.595-5.62,0.608-5.62,0.608s-5.024-0.013-5.621-0.608c-0.598-0.597-0.599-3.536-0.599-3.558      c0-0.017,0.002-2.961,0.599-3.558c0.598-0.595,5.621-0.603,5.621-0.603c0,0,5.024,0.007,5.62,0.603      c0.598,0.597,0.605,3.541,0.605,3.558C22.546,18.059,22.541,21.019,21.941,21.617z"/></g></g></g></g></svg>