<?xml version="1.0" ?><svg enable-background="new 0 0 32 32" version="1.1" viewBox="0 0 32 32" xml:space="preserve" xmlns="http://www.w3.org/2000/svg" xmlns:xlink="http://www.w3.org/1999/xlink"><g id="GLYPH"><g><g><polygon points="29.935,13.935 18.065,2.065 17.958,3.604 28.395,14.043    "/></g><g><polygon points="2.065,18.065 13.937,29.937 14.044,28.395 3.607,17.957    "/></g></g><g><g><polygon points="14.348,18.481 18.483,16 14.348,13.519    "/></g><g><g><path d="M30.403,14.403l-2.2,0.155L17.442,3.798l0.154-2.201L16,0L0,16l1.596,1.596l2.202-0.155L14.56,28.202l-0.155,2.203      L16,32l16-16L30.403,14.403z M22.613,16.533c0,1.142-0.132,2.284-0.132,2.284s-0.129,0.972-0.526,1.4      c-0.503,0.561-1.067,0.565-1.325,0.598C18.779,20.957,16,20.961,16,20.961s-3.439-0.033-4.497-0.142      c-0.294-0.059-0.955-0.042-1.458-0.603c-0.396-0.428-0.526-1.4-0.526-1.4s-0.132-1.141-0.132-2.284v-1.07      c0-1.142,0.132-2.283,0.132-2.283s0.129-0.973,0.526-1.401c0.504-0.561,1.067-0.565,1.325-0.597      c1.851-0.143,4.627-0.143,4.627-0.143h0.006c0,0,2.776,0,4.627,0.143c0.258,0.032,0.822,0.035,1.325,0.597      c0.396,0.428,0.526,1.401,0.526,1.401s0.132,1.141,0.132,2.284V16.533z"/></g></g></g></g></svg>