<?xml version="1.0" ?><!DOCTYPE svg  PUBLIC '-//W3C//DTD SVG 1.1//EN'  'http://www.w3.org/Graphics/SVG/1.1/DTD/svg11.dtd'><svg height="512px" style="enable-background:new 0 0 512 512;" version="1.1" viewBox="0 0 512 512" width="512px" xml:space="preserve" xmlns="http://www.w3.org/2000/svg" xmlns:xlink="http://www.w3.org/1999/xlink"><g id="Garbage_x2C__recycle_x2C__waste_x2C__truck"><g><path d="M345.89,271.354l0.719,0.017    c79.617,0.111,59.081-7.201,102.595,45.021l46.654-0.026v-15c-14.321,0-15.021-0.616-15.021-14.997    c0-14.336,0.729-14.987,15.021-14.987v-44.059c-6.877-12.628-14.798-40.162-21.539-55.037    c-9.558-20.974-19.311-20.877-45.944-20.877c-22.492,0-45,0.106-67.481-0.005c-16.837-0.081-15.01,2.813-14.993,18.749    L345.89,271.354z M391.092,236.646l-0.229-58.087c0.036-17.455,9.727-12.072,45.942-12.152c6.316-0.015,12.104-0.623,17.199,2.479    c2.454,1.487,3.034,2.255,4.474,4.914c7.817,14.498,32.025,66.032,14.907,67.567c-10.777,0.97-48.944,0-64.694,0.021    c-8.204,0.005-13.875,1.759-17.014-4.584L391.092,236.646z" style="fill-rule:evenodd;clip-rule:evenodd;fill:#FCB116;"/><path d="M448.109,331.374c-16.063-0.02-106.815-0.057-108.829-0.079    c-143.892-1.363-205.862,0.139-311.128,0.097c-7.097,0-8.781-0.716-12.152-5.021v-20.008v-39.986    c1.615,2.042,2.028,2.65,4.68,4.041c1.807,1.771,7.289,0.965,10.324,0.97l3.617-0.021l281.286,0.016v14.987h29.993l-0.01-15.015    l0.719,0.017c79.603,0.111,59.093-7.201,102.595,45.021l46.717-0.026c0,5.147,0.298,10.376-0.256,15.008H448.109z" style="fill-rule:evenodd;clip-rule:evenodd;fill:#C44127;"/><path d="M495.857,301.366v-29.995    c-14.291,0-15.021,0.662-15.021,14.998C480.837,300.75,481.536,301.366,495.857,301.366L495.857,301.366z" style="fill-rule:evenodd;clip-rule:evenodd;fill:#F15B31;"/><path d="M85.598,298.979c22.865,0,41.398,18.527,41.398,41.388    c0,22.865-18.533,41.397-41.398,41.397c-22.859,0-41.392-18.532-41.392-41.397C44.206,317.506,62.738,298.979,85.598,298.979    L85.598,298.979z M85.598,312.85c15.203,0,27.523,12.321,27.523,27.517c0,15.206-12.32,27.524-27.523,27.524    c-15.195,0-27.518-12.318-27.518-27.524C58.08,325.171,70.402,312.85,85.598,312.85L85.598,312.85z" style="fill-rule:evenodd;clip-rule:evenodd;fill:#221F20;"/><path d="M85.598,312.85c15.203,0,27.523,12.321,27.523,27.517    c0,15.206-12.32,27.524-27.523,27.524c-15.195,0-27.518-12.318-27.518-27.524C58.08,325.171,70.402,312.85,85.598,312.85    L85.598,312.85z" style="fill-rule:evenodd;clip-rule:evenodd;fill:#FFFFFF;"/><path d="M178.644,298.979c22.866,0,41.396,18.527,41.396,41.388    c0,22.865-18.53,41.397-41.396,41.397c-22.859,0-41.391-18.532-41.391-41.397C137.252,317.506,155.784,298.979,178.644,298.979    L178.644,298.979z M178.644,312.85c15.202,0,27.524,12.321,27.524,27.517c0,15.206-12.322,27.524-27.524,27.524    c-15.195,0-27.517-12.318-27.517-27.524C151.127,325.171,163.448,312.85,178.644,312.85L178.644,312.85z" style="fill-rule:evenodd;clip-rule:evenodd;fill:#221F20;"/><path d="M178.644,312.85c15.202,0,27.524,12.321,27.524,27.517    c0,15.206-12.322,27.524-27.524,27.524c-15.195,0-27.517-12.318-27.517-27.524C151.127,325.171,163.448,312.85,178.644,312.85    L178.644,312.85z" style="fill-rule:evenodd;clip-rule:evenodd;fill:#FFFFFF;"/><path d="M390.51,298.979c22.86,0,41.397,18.527,41.397,41.388    c0,22.865-18.537,41.397-41.397,41.397c-22.859,0-41.397-18.532-41.397-41.397C349.112,317.506,367.65,298.979,390.51,298.979    L390.51,298.979z M390.51,312.85c15.202,0,27.525,12.321,27.525,27.517c0,15.206-12.323,27.524-27.525,27.524    c-15.201,0-27.522-12.318-27.522-27.524C362.987,325.171,375.309,312.85,390.51,312.85L390.51,312.85z" style="fill-rule:evenodd;clip-rule:evenodd;fill:#221F20;"/><path d="M390.51,312.85c15.202,0,27.525,12.321,27.525,27.517    c0,15.206-12.323,27.524-27.525,27.524c-15.201,0-27.522-12.318-27.522-27.524C362.987,325.171,375.309,312.85,390.51,312.85    L390.51,312.85z" style="fill-rule:evenodd;clip-rule:evenodd;fill:#FFFFFF;"/><path d="M391.678,236.804c3.139,6.343,8.81,4.589,17.014,4.584    c15.75-0.021,53.917,0.948,64.694-0.021c17.118-1.535-7.09-53.069-14.907-67.567c-1.439-2.659-2.02-3.427-4.474-4.914    c-5.095-3.102-10.883-2.493-17.199-2.479c-36.216,0.08-45.906-5.303-45.942,12.152l0.229,58.087L391.678,236.804z" style="fill-rule:evenodd;clip-rule:evenodd;fill:#43B3E6;"/><path d="M85.598,326.854c7.473,0,13.52,6.051,13.52,13.512    c0,7.478-6.047,13.521-13.52,13.521c-7.464,0-13.511-6.043-13.511-13.521C72.086,332.905,78.133,326.854,85.598,326.854    L85.598,326.854z" style="fill-rule:evenodd;clip-rule:evenodd;fill:#221F20;"/><path d="M178.644,326.854c7.474,0,13.517,6.051,13.517,13.512    c0,7.478-6.043,13.521-13.517,13.521c-7.467,0-13.514-6.043-13.514-13.521C165.13,332.905,171.177,326.854,178.644,326.854    L178.644,326.854z" style="fill-rule:evenodd;clip-rule:evenodd;fill:#221F20;"/><path d="M390.51,326.854c7.468,0,13.522,6.051,13.522,13.512    c0,7.478-6.055,13.521-13.522,13.521c-7.467,0-13.521-6.043-13.521-13.521C376.989,332.905,383.043,326.854,390.51,326.854    L390.51,326.854z" style="fill-rule:evenodd;clip-rule:evenodd;fill:#221F20;"/><path d="M20.458,281.299c1.714,1.633,6.938,0.886,9.823,0.897    l3.449-0.021l267.888,0.005c8.107,0,13.821,0.772,14.301-7.706c0.356-6.465-0.026-14.148-0.026-20.752l0.053-113.885    c-0.053-7.515-3.235-9.413-10.713-9.455c-91.334-0.512-182.72,0.527-274.127,0.027c-1.218-0.006-2.343,0.031-3.387,0.112h-6.252    c-3.006,0-5.466,2.462-5.466,5.474c0,7.365,0,14.779,0,22.204v12.221v107.159C17.543,279.463,17.932,280.022,20.458,281.299    L20.458,281.299z" style="fill-rule:evenodd;clip-rule:evenodd;fill:#333333;"/><path d="M126.782,177.242l25.32,12.072    c2.47-4.126,8.459-15.35,11.516-18.409l5.753,10.943l-7.493,4.018l32.799,8.055l9.221-31.074l-6.348,3.459    c-4.402-11.038-11.126-16.538-23.256-16.688h-22.021c-9.721,0-9.099,1.422-13.704,8.788L126.782,177.242z" style="fill-rule:evenodd;clip-rule:evenodd;fill:#7CBC42;"/><path d="M194.676,218.102c1.146,1.716,2.3,3.444,2.873,5.17h-12.647    v-5.17l0.559-2.9l-22.99,24.754l22.99,23.021l0.596-7.492h3.447c11.403,0,16.635-2.851,22.439-13.229    c0,0,7.245-14.448,10.324-19.821l1.175-2.036c0.652-1.087,0.978-2.255,1.037-3.448v-0.783c-0.083-1.717-0.686-3.444-1.618-4.99    l-13.813-23.583l-22.992,16.692L194.676,218.102z" style="fill-rule:evenodd;clip-rule:evenodd;fill:#7CBC42;"/><path d="M138.862,188.746l-31.065,7.492l5.745,4.594    c-7.48,9.988-7.752,17.893-1.721,28.761c0,0,7.51,12.621,11.197,18.408l1.472,2.305c1.706,3.453,4.6,4.599,8.618,4.599h25.896    v-27.608h-23.595l6.326-10.922c1.742,0.57,4.042,2.299,4.591,2.867l2.301,1.727L138.862,188.746z" style="fill-rule:evenodd;clip-rule:evenodd;fill:#7CBC42;"/></g></g><g id="Layer_1"/></svg>