<?xml version="1.0" ?><!DOCTYPE svg  PUBLIC '-//W3C//DTD SVG 1.1//EN'  'http://www.w3.org/Graphics/SVG/1.1/DTD/svg11.dtd'><svg height="512px" style="enable-background:new 0 0 512 512;" version="1.1" viewBox="0 0 512 512" width="512px" xml:space="preserve" xmlns="http://www.w3.org/2000/svg" xmlns:xlink="http://www.w3.org/1999/xlink"><g id="Car_x2C__ecology_x2C__electric"><g><path d="M263.69,195.069c-39.942,0.501-81.921,11.646-120.466,34.543    l-65.249,23.713v26.435l-0.437,0.063c-5.618,0.764-11.054-0.494-15.841-3.287c-5.042-2.938-9.386-7.585-12.515-13.303    c-2.037-3.694-3.56-7.841-4.456-12.308c-0.837-4.243-1.119-8.773-0.714-13.437c0.458-4.947,1.678-10.074,3.831-15.196    c2.01-4.792,4.819-9.573,8.529-14.214c11.667-14.562,32.192-27.807,64.848-35.897c26.176-6.487,60.138-9.68,103.544-7.579v-6.987    h-4.898c-41.978-1.653-75.167,1.721-101.075,8.239c-33.856,8.561-55.33,22.573-67.68,37.988    c-4.157,5.186-7.302,10.531-9.54,15.893c-2.41,5.766-3.779,11.549-4.281,17.173c-0.474,5.324-0.165,10.51,0.816,15.393    c1.04,5.106,2.793,9.892,5.127,14.161c3.785,6.918,9.114,12.525,15.318,16.091c5.836,3.337,12.483,4.872,19.422,4.036v32.357    l57.887,7.061v10.373h2.431c1.307-20.855,18.607-37.352,39.788-37.352c21.203,0,38.525,16.533,39.783,37.427    c56.594-0.038,103.196-0.059,145.991-0.059c1.284-20.857,18.606-37.368,39.794-37.368c21.176,0,38.487,16.496,39.775,37.352    h28.979c1.839-9.955,2.659-18.559,2.479-26.036h-5.379c-6.384,0-11.608-5.219-11.608-11.603v-11.604h11.62    c-9.088-17.003-29.592-23.974-60.847-29.331C373.594,213.244,318.856,195.069,263.69,195.069L263.69,195.069z" style="fill-rule:evenodd;clip-rule:evenodd;fill:#068DB3;"/><path d="M474.883,310.345c0.608-13.433-5.367-23.207-5.367-23.207    h-11.62v11.604c0,6.384,5.225,11.603,11.608,11.603H474.883z" style="fill-rule:evenodd;clip-rule:evenodd;fill:#D64527;"/><path d="M403.649,308.122c17.007,0,30.763,13.755,30.763,30.765    c0,16.997-13.756,30.752-30.763,30.752c-16.998,0-30.753-13.755-30.753-30.752C372.896,321.877,386.651,308.122,403.649,308.122    L403.649,308.122z" style="fill-rule:evenodd;clip-rule:evenodd;fill:#221F20;"/><path d="M178.082,308.122c16.992,0,30.754,13.755,30.754,30.765    c0,16.997-13.762,30.752-30.754,30.752c-16.992,0-30.775-13.755-30.775-30.752C147.306,321.877,161.089,308.122,178.082,308.122    L178.082,308.122z" style="fill-rule:evenodd;clip-rule:evenodd;fill:#221F20;"/><path d="M178.082,326.265c6.961,0,12.627,5.649,12.627,12.622    c0,6.97-5.667,12.626-12.627,12.626c-6.977,0-12.621-5.656-12.621-12.626C165.461,331.914,171.105,326.265,178.082,326.265    L178.082,326.265z" style="fill-rule:evenodd;clip-rule:evenodd;fill:#E6E6E5;"/><path d="M403.649,326.265c6.976,0,12.62,5.649,12.62,12.622    c0,6.97-5.645,12.626-12.62,12.626c-6.966,0-12.628-5.656-12.628-12.626C391.021,331.914,396.684,326.265,403.649,326.265    L403.649,326.265z" style="fill-rule:evenodd;clip-rule:evenodd;fill:#E6E6E5;"/><path d="M266.346,253.363v-43.018c0,0-86.046-1.477-112.712,43.018    H266.346L266.346,253.363z" style="fill-rule:evenodd;clip-rule:evenodd;fill:#9CD8D9;"/><path d="M279.664,253.363h102.319    c-26.72-25.249-57.808-43.018-102.319-43.018V253.363z" style="fill-rule:evenodd;clip-rule:evenodd;fill:#9CD8D9;"/><path d="M77.539,279.824c-5.618,0.764-11.054-0.494-15.841-3.287    c-5.042-2.938-9.386-7.585-12.515-13.303c-2.037-3.694-3.56-7.841-4.456-12.308c-0.837-4.243-1.119-8.773-0.714-13.437    c0.458-4.947,1.678-10.074,3.831-15.196c2.01-4.792,4.819-9.573,8.529-14.214c11.667-14.562,32.192-27.807,64.848-35.897    c25.921-6.423,59.477-9.62,102.271-7.643v-6.924h-3.625c-41.978-1.653-75.167,1.721-101.075,8.239    c-33.856,8.561-55.33,22.573-67.68,37.988c-4.157,5.186-7.302,10.531-9.54,15.893c-2.41,5.766-3.779,11.549-4.281,17.173    c-0.474,5.324-0.165,10.51,0.816,15.393c1.04,5.106,2.793,9.892,5.127,14.161c3.785,6.918,9.114,12.525,15.318,16.091    c5.836,3.337,12.483,4.872,19.422,4.036v-6.829L77.539,279.824z" style="fill-rule:evenodd;clip-rule:evenodd;fill:#727A81;"/><path d="M249.822,144.419v31.414h-17.695    c-5.074,0-9.243-3.315-9.243-7.338v-16.731c0-4.024,4.168-7.345,9.243-7.345H249.822z" style="fill-rule:evenodd;clip-rule:evenodd;fill:#CED7DB;"/><path d="M256.761,174.65v-28.974c0-1.813-1.892-3.315-4.177-3.315l0,0    c-2.282,0-4.168,1.503-4.168,3.315v28.974c0,1.812,1.886,3.314,4.168,3.314l0,0C254.87,177.965,256.761,176.462,256.761,174.65    L256.761,174.65z" style="fill-rule:evenodd;clip-rule:evenodd;fill:#727A81;"/><path d="M271.1,166.208h-16.406c-2.186,0-4.072,1.423-4.072,3.241l0,0    c0,1.737,1.786,3.235,4.072,3.235H271.1c2.186,0,4.07-1.424,4.07-3.235l0,0C275.17,167.631,273.285,166.208,271.1,166.208    L271.1,166.208z" style="fill-rule:evenodd;clip-rule:evenodd;fill:#727A81;"/><path d="M271.1,147.648h-16.406c-2.186,0-4.072,1.424-4.072,3.241l0,0    c0,1.732,1.786,3.23,4.072,3.23H271.1c2.186,0,4.07-1.418,4.07-3.23l0,0C275.17,149.072,273.285,147.648,271.1,147.648    L271.1,147.648z" style="fill-rule:evenodd;clip-rule:evenodd;fill:#727A81;"/><path d="M234.035,165.02v-9.781c0-1.028-0.991-1.796-2.142-1.796l0,0    c-1.237,0-2.148,0.833-2.148,1.796v9.781c0,1.028,0.997,1.785,2.148,1.785l0,0C233.043,166.805,234.035,165.979,234.035,165.02    L234.035,165.02z" style="fill-rule:evenodd;clip-rule:evenodd;fill:#727A81;"/><path d="M241.604,165.02v-9.781c0-1.028-0.982-1.796-2.143-1.796l0,0    c-1.236,0-2.137,0.833-2.137,1.796v9.781c0,1.028,0.985,1.785,2.143,1.785l0,0C240.622,166.805,241.604,165.979,241.604,165.02    L241.604,165.02z" style="fill-rule:evenodd;clip-rule:evenodd;fill:#727A81;"/><path d="M366.783,323.679H214.932    c1.643,3.978,2.66,8.272,2.932,12.777c56.594-0.038,103.196-0.059,145.991-0.059C364.138,331.914,365.15,327.64,366.783,323.679    L366.783,323.679z" style="fill-rule:evenodd;clip-rule:evenodd;fill:#CDCCCC;"/><path d="M290.148,262.545h17.919c0.821,0,1.492,0.666,1.492,1.488    v3.41c0,0.826-0.671,1.492-1.492,1.492h-17.919c-0.809,0-1.486-0.666-1.486-1.492v-3.41    C288.662,263.211,289.34,262.545,290.148,262.545L290.148,262.545z" style="fill-rule:evenodd;clip-rule:evenodd;fill:#0D7997;"/><path d="M290.148,261.078h17.919c0.821,0,1.492,0.679,1.492,1.504    v3.413c0,0.82-0.671,1.491-1.492,1.491h-17.919c-0.809,0-1.486-0.671-1.486-1.491v-3.413    C288.662,261.757,289.34,261.078,290.148,261.078L290.148,261.078z" style="fill-rule:evenodd;clip-rule:evenodd;fill:#CDCCCC;"/><path d="M168.701,262.545h17.914c0.822,0,1.494,0.666,1.494,1.488    v3.41c0,0.826-0.672,1.492-1.494,1.492h-17.914c-0.821,0-1.492-0.666-1.492-1.492v-3.41    C167.209,263.211,167.88,262.545,168.701,262.545L168.701,262.545z" style="fill-rule:evenodd;clip-rule:evenodd;fill:#0D7997;"/><path d="M168.701,261.078h17.914c0.822,0,1.494,0.679,1.494,1.504    v3.413c0,0.82-0.672,1.491-1.494,1.491h-17.914c-0.821,0-1.492-0.671-1.492-1.491v-3.413    C167.209,261.757,167.88,261.078,168.701,261.078L168.701,261.078z" style="fill-rule:evenodd;clip-rule:evenodd;fill:#CDCCCC;"/><path d="M474.265,323.819l-33.744-0.107    c1.621,3.944,2.635,8.202,2.904,12.669h6.915l22.075-0.058C473.23,331.893,473.844,327.735,474.265,323.819L474.265,323.819z" style="fill-rule:evenodd;clip-rule:evenodd;fill:#CDCCCC;"/><path d="M140.122,326.668c1.349-4.172,3.352-8.047,5.906-11.49    l-68.052-11.043v14.619l36.632,4.659l0.031,0.01l21.224,2.585v0.119L140.122,326.668z" style="fill-rule:evenodd;clip-rule:evenodd;fill:#BCBCBB;"/><path d="M140.122,326.668l-4.259-0.541v10.254h2.431    C138.506,333.006,139.13,329.756,140.122,326.668L140.122,326.668z" style="fill-rule:evenodd;clip-rule:evenodd;fill:#CDCCCC;"/><path d="M207.897,253.363c-7.856-8.219-16.758-17.482-24.837-25.787    c-12.051,6.15-22.652,14.482-29.427,25.787H207.897z" style="fill-rule:evenodd;clip-rule:evenodd;fill:#78CCCD;"/><path d="M183.06,227.576c8.079,8.305,16.981,17.567,24.837,25.787    h25.925l6.833-41.488C223.898,213.782,201.735,218.052,183.06,227.576L183.06,227.576z" style="fill-rule:evenodd;clip-rule:evenodd;fill:#9CD8D9;"/><path d="M240.655,211.875l-6.833,41.488h32.524v-43.018    C266.346,210.345,255.664,210.164,240.655,211.875L240.655,211.875z" style="fill-rule:evenodd;clip-rule:evenodd;fill:#9CD8D9;"/><path d="M302.669,212.045l14.268,41.318h9.721l18.229-27.338    C332.26,219.325,318.374,214.454,302.669,212.045L302.669,212.045z" style="fill-rule:evenodd;clip-rule:evenodd;fill:#9CD8D9;"/><path d="M344.887,226.024l-18.229,27.338h55.326    C370.642,242.639,358.505,233.264,344.887,226.024L344.887,226.024z" style="fill-rule:evenodd;clip-rule:evenodd;fill:#9CD8D9;"/><path d="M381.748,253.058c-7.174-9.109-20.349-16.571-29.837-23.036    c-12.056,6.151-17.689,12.036-24.453,23.34L381.748,253.058z" style="fill-rule:evenodd;clip-rule:evenodd;fill:#B0DFE1;"/></g></g><g id="Layer_1"/></svg>