<?xml version="1.0" ?><!DOCTYPE svg  PUBLIC '-//W3C//DTD SVG 1.1//EN'  'http://www.w3.org/Graphics/SVG/1.1/DTD/svg11.dtd'><svg height="512px" style="enable-background:new 0 0 512 512;" version="1.1" viewBox="0 0 512 512" width="512px" xml:space="preserve" xmlns="http://www.w3.org/2000/svg" xmlns:xlink="http://www.w3.org/1999/xlink"><g id="Energy_x2C__panel_x2C__solar"><g><path d="M323.15,239.096v51.247h116.81l-14.143-51.247H323.15z     M209.291,290.343h93.924v-51.247h-93.924V290.343z M69.597,290.343H189.27v-51.247H83.859L69.597,290.343z M80.979,222.022    h108.29v-51.325H95.226L80.979,222.022z M209.291,222.022h93.924v-51.325h-93.924V222.022z M209.291,153.624h93.924v-51.342    h-93.924V153.624z M189.27,102.282h-79.688l-14.356,51.342h94.044V102.282z M323.15,102.282v51.342h85.474l-14.221-51.342H323.15z     M323.15,222.022h102.667l-17.193-51.325H323.15V222.022z" style="fill-rule:evenodd;clip-rule:evenodd;fill:#485E69;"/><path d="M234.541,321.637v76.616h-96.855v42.788h236.593v-42.788    h-82.653v-76.616h167.248c12.802,0,23.265-2.081,19.396-18.184L427.279,91.304c-5.177-21.544-9.045-20.333-26.573-20.333H100.537    c-20.599,0-22.859,1.857-26.332,20.118L33.206,307.09c-1.841,9.706,5.339,13.764,13.814,14.452    c1.909,0.146,3.852,0.095,5.761,0.095H234.541z M53.512,302.25L95.226,88.045h310.562l52.141,211.247L53.512,302.25z" style="fill-rule:evenodd;clip-rule:evenodd;fill:#859099;"/><path d="M53.512,302.25L95.226,88.045h310.562l52.141,211.247    L53.512,302.25z M52.781,321.637h181.76v76.616h-96.855v42.788h236.593v-42.788h-82.653v-76.616h167.248    c12.802,0,23.265-2.081,19.396-18.184L427.279,91.304c-5.177-21.544-9.045-20.333-26.573-20.333H100.537    c-20.599,0-22.859,1.857-26.332,20.118L33.206,307.09c-1.841,9.706,5.339,13.764,13.814,14.452    C48.93,321.688,50.872,321.637,52.781,321.637L52.781,321.637z" style="fill-rule:evenodd;clip-rule:evenodd;fill:#8D959F;"/><path d="M405.787,88.045H95.226L53.512,302.25l404.426-2.958    L405.787,88.045z M209.291,153.624v-51.342h93.924v51.342H209.291z M209.291,170.697h93.924v51.325h-93.924V170.697z     M323.15,290.343v-51.247h102.667l14.143,51.247H323.15z M209.291,239.096h93.924v51.247h-93.924V239.096z M189.27,239.096v51.247    H69.597l14.263-51.247H189.27z M189.27,170.697v51.325H80.979l14.246-51.325H189.27z M189.27,102.282v51.342H95.226l14.356-51.342    H189.27z M323.15,153.624v-51.342h71.253l14.221,51.342H323.15z M323.15,222.022v-51.325h85.474l17.193,51.325H323.15z" style="fill-rule:evenodd;clip-rule:evenodd;fill:#FFFFFF;"/><rect height="76.616" style="fill-rule:evenodd;clip-rule:evenodd;fill:#828A91;" width="57.084" x="234.541" y="321.637"/><polygon points="291.625,398.253 234.541,398.253 137.686,398.253     137.686,441.041 374.278,441.041 374.278,398.253   " style="fill-rule:evenodd;clip-rule:evenodd;fill:#6F757D;"/></g></g><g id="Layer_1"/></svg>