<?xml version="1.0" ?><!DOCTYPE svg  PUBLIC '-//W3C//DTD SVG 1.1//EN'  'http://www.w3.org/Graphics/SVG/1.1/DTD/svg11.dtd'><svg height="512px" style="enable-background:new 0 0 512 512;" version="1.1" viewBox="0 0 512 512" width="512px" xml:space="preserve" xmlns="http://www.w3.org/2000/svg" xmlns:xlink="http://www.w3.org/1999/xlink"><g id="Home_x2C__eco_x2C__waste_x2C_"><g><path d="M428.539,400.527h36.725h0.674v0.021    c4.037,0.246,7.23,2.591,7.23,5.438v32.618c0,2.847-3.193,5.191-7.23,5.426v0.021h-0.674h-209.27H46.731h-0.677v-0.021    c-4.03-0.234-7.222-2.579-7.222-5.426v-32.618c0-2.847,3.192-5.191,7.222-5.438v-0.021h0.677h36.723v0.021h172.539h172.545    V400.527z" style="fill-rule:evenodd;clip-rule:evenodd;fill:#788F9B;"/><path d="M348.121,117.145h56.391v105.996l62.668,65.512h-52.734    l0.625,113.272H255.994H96.934l0.618-113.272H44.823C180.662,146.661,145.649,183.24,255.994,67.949l92.127,96.253V117.145z" style="fill-rule:evenodd;clip-rule:evenodd;fill:#CED7DB;"/><polygon points="353.936,170.262 398.697,229.205 398.697,123.204     353.936,123.204   " style="fill-rule:evenodd;clip-rule:evenodd;fill:#788F9B;"/><polygon points="255.994,141.88 414.445,288.652 466.51,287.949     404.512,232.835 348.121,173.897 255.994,77.64 163.873,173.897 107.493,232.835 45.484,287.949 97.552,288.652   " style="fill-rule:evenodd;clip-rule:evenodd;fill:#BCC5C8;"/><polygon points="255.994,132.238 414.445,288.652 467.18,288.652     404.512,223.141 348.121,164.203 255.994,67.949 163.873,164.203 107.493,223.141 44.823,288.652 97.552,288.652   " style="fill-rule:evenodd;clip-rule:evenodd;fill:#788F9B;"/><path d="M298.445,335.651h-17.037v-6.961l0.756-3.891l-30.977,33.354    l18.042,18.058h34.789c5.393-2.591,9.475-7.228,13.809-14.967l13.938-26.713l1.568-2.729l1.406-4.658v-1.055    c-0.129-2.313-0.922-4.626-2.188-6.693l-18.615-31.8l-30.957,22.472l11.594,18.622    C296.127,331.004,297.668,333.327,298.445,335.651L298.445,335.651z M294.572,296.125l12.418-41.842l-8.545,4.625    c-5.92-14.859-14.98-22.267-31.307-22.465h-29.682c-13.096,0-12.254,1.914-18.463,11.832l-15.863,25.39l34.085,16.244    c3.337-5.542,11.417-20.658,15.526-24.783l7.744,14.731l-10.094,5.428L294.572,296.125z M214.741,341.077l8.522-14.711    c2.355,0.778,5.452,3.103,6.188,3.86l3.091,2.332l-13.154-43.405l-41.85,10.073l7.744,6.205    c-10.073,13.462-10.435,24.102-2.313,38.749l15.089,24.804l1.978,3.103c0.895,1.812,2.052,3.154,3.432,4.125h43.05v-35.135    H214.741z" style="fill-rule:evenodd;clip-rule:evenodd;fill:#7AC143;"/></g></g><g id="Layer_1"/></svg>