<?xml version="1.0" ?><svg data-name="Layer 1" id="Layer_1" viewBox="0 0 500 500" xmlns="http://www.w3.org/2000/svg"><defs><style>.cls-1{fill:#9090ba;}.cls-2{fill:#acacdd;}.cls-3{fill:#fff;}</style></defs><title/><circle class="cls-1" cx="250" cy="250" r="250"/><circle class="cls-2" cx="250" cy="250" r="203.65"/><circle class="cls-2" cx="250.46" cy="244.02" r="96.97"/><path class="cls-3" d="M250.46,353.5A109.47,109.47,0,1,1,359.93,244,109.6,109.6,0,0,1,250.46,353.5Zm0-193.95A84.47,84.47,0,1,0,334.93,244,84.57,84.57,0,0,0,250.46,159.55Z"/><path class="cls-2" d="M114.81,207.19a139.55,139.55,0,0,1,13.9-33.36,141.1,141.1,0,0,1,46.58-48.49"/><path class="cls-3" d="M114.82,219.7a12.63,12.63,0,0,1-3.27-.44,12.5,12.5,0,0,1-8.8-15.33,151.92,151.92,0,0,1,15.14-36.36,154,154,0,0,1,50.71-52.78A12.5,12.5,0,1,1,182,135.9a128.87,128.87,0,0,0-42.45,44.18,126.69,126.69,0,0,0-12.65,30.37A12.51,12.51,0,0,1,114.82,219.7Z"/><path class="cls-2" d="M386.11,207.19a139.55,139.55,0,0,0-13.9-33.36,141.1,141.1,0,0,0-46.58-48.49"/><path class="cls-3" d="M386.1,219.7A12.52,12.52,0,0,1,374,210.46a127.13,127.13,0,0,0-12.65-30.38,129,129,0,0,0-42.45-44.18,12.5,12.5,0,1,1,13.38-21.12A154.14,154.14,0,0,1,383,167.57a152.48,152.48,0,0,1,15.14,36.35,12.5,12.5,0,0,1-8.8,15.34A12.68,12.68,0,0,1,386.1,219.7Z"/><path class="cls-3" d="M250.44,265a20.95,20.95,0,1,1,21-20.94A21,21,0,0,1,250.44,265Zm0-29.39A8.45,8.45,0,1,0,258.9,244,8.46,8.46,0,0,0,250.44,235.58Z"/><path class="cls-3" d="M302.9,250.27H265.15a6.25,6.25,0,0,1,0-12.5H302.9a6.25,6.25,0,0,1,0,12.5Z"/><path class="cls-3" d="M250.46,235.58a6.25,6.25,0,0,1-6.25-6.25v-51.1a6.25,6.25,0,1,1,12.5,0v51.1A6.25,6.25,0,0,1,250.46,235.58Z"/><path class="cls-3" d="M313.9,241.8l-8.83-5.1a2.56,2.56,0,0,0-3.85,2.22v10.2a2.56,2.56,0,0,0,3.85,2.22l8.83-5.1A2.56,2.56,0,0,0,313.9,241.8Z"/><path class="cls-3" d="M248.24,171.06l-5.1,8.83a2.56,2.56,0,0,0,2.22,3.85h10.2a2.56,2.56,0,0,0,2.22-3.85l-5.1-8.83A2.56,2.56,0,0,0,248.24,171.06Z"/><rect class="cls-3" height="22.92" rx="1.83" ry="1.83" width="67.13" x="216.89" y="369.22"/></svg>