<?xml version="1.0" ?><svg data-name="Layer 1" id="Layer_1" viewBox="0 0 500 500" xmlns="http://www.w3.org/2000/svg"><defs><style>.cls-1{fill:#54c6cc;}.cls-2{fill:#64deff;}.cls-3{fill:#fff;}</style></defs><title/><circle class="cls-1" cx="250" cy="250" r="250"/><circle class="cls-2" cx="250" cy="250" r="203.65"/><path class="cls-3" d="M407.52,177.59A56,56,0,0,1,364,232.15a33.74,33.74,0,0,0-5.69-.5,34.77,34.77,0,0,0-8.81,1.12,12.47,12.47,0,0,1-15.69-12.31v-.81a81.28,81.28,0,0,0-33.19-65.75,56.89,56.89,0,0,1,15.44-19.75,56,56,0,0,1,91.44,43.44Z"/><path class="cls-3" d="M391.46,216.84a58.65,58.65,0,0,0-33.12-10.19h-.19a106.18,106.18,0,0,0-42.06-72.5A105.86,105.86,0,0,0,158.58,171,77,77,0,0,0,159.52,325h86.62L250,315.9l3.81,9.13H358.33a59.15,59.15,0,0,0,33.12-108.19ZM358.33,300H159.52a52,52,0,1,1,0-104.06,40.94,40.94,0,0,1,5.56.31A12.57,12.57,0,0,0,178,188.53a80.94,80.94,0,0,1,155.81,31.13v.81a12.47,12.47,0,0,0,15.69,12.31,34.77,34.77,0,0,1,8.81-1.12,33.74,33.74,0,0,1,5.69.5A34.17,34.17,0,0,1,358.33,300Z"/><path class="cls-2" d="M310.77,331.59c-.19-.5-.44-1.12-.62-1.63L308.08,325l-10.56-25L273,241.59a25,25,0,0,0-46.13.06L202.46,300,192,325l-2.25,5.44a25.44,25.44,0,0,0-1.94,9.62c0,.88.06,1.63.13,2.44a62.32,62.32,0,0,0,123.94,1.19A25.81,25.81,0,0,0,310.77,331.59ZM261,342a12.39,12.39,0,0,1-22,.25L246.14,325,250,315.9l3.81,9.13Z"/><path class="cls-3" d="M299,335.71c-.13-.31-.25-.62-.37-.87L294.46,325,284,300l-22.5-53.63a12.57,12.57,0,0,0-11.56-7.62,12.44,12.44,0,0,0-11.5,7.69L216,300l-10.44,25-4.31,10.25a12.69,12.69,0,0,0-.94,4.81,8.37,8.37,0,0,0,.06,1.25,49.83,49.83,0,0,0,99.12.69A13.46,13.46,0,0,0,299,335.71Zm-49.06,25.63a24.67,24.67,0,0,1-24.25-19.63l7-16.69,10.44-25L250,283.59,256.89,300l10.5,25,6.88,16.37A24.74,24.74,0,0,1,249.89,361.34Z"/></svg>