<?xml version="1.0" ?><svg height="60px" version="1.1" viewBox="0 0 60 60" width="60px" xmlns="http://www.w3.org/2000/svg" xmlns:xlink="http://www.w3.org/1999/xlink"><title/><desc/><defs/><g fill="none" fill-rule="evenodd" id="Page-1" stroke="none" stroke-width="1"><g fill-rule="nonzero" id="015---Mute"><g id="Icons" stroke="#7D5E46" transform="translate(1.000000, 1.000000)"><ellipse cx="29" cy="29" fill="#72808E" id="Oval" rx="29" ry="28.875"/><path d="M16,25 L20,25 L20,33 L16,33 C14.8954305,33 14,32.1045695 14,31 L14,27 C14,25.8954305 14.8954305,25 16,25 Z" fill="#E98290" id="Shape"/><path d="M29.78058,17.47644 L20,25 L20,33 L29.78058,40.5235 C30.3845142,40.9880638 31.1999488,41.0691137 31.8835137,40.7325205 C32.5670787,40.3959272 33.0000079,39.7001723 33,38.93823 L33,19.06171 C33.0000079,18.2997677 32.5670787,17.6040128 31.8835137,17.2674195 C31.1999488,16.9308263 30.3845142,17.0118762 29.78058,17.47644 Z" fill="#FF8792" id="Shape"/></g><g fill="#7D5E46" id="Layer_12"><path d="M30,59.875 C13.516729,59.8061758 0.203712938,46.4001913 0.249595741,29.9168404 C0.295478545,13.4334895 13.6829211,0.101828045 30.1663198,0.124769353 C46.6497186,0.147710662 59.9999998,13.5165853 60,30 C59.9467204,46.5262011 46.5262795,59.8907235 30,59.875 Z M30,2.125 C14.6212947,2.19380832 2.20369152,14.7043573 2.24956401,30.0831481 C2.29543649,45.4619389 14.787452,57.8981865 30.1662941,57.87525 C45.5451362,57.8523134 58.0000005,45.3788592 58,30 C57.9479795,14.5778464 45.422232,2.10801744 30,2.125 Z" id="Shape"/><path d="M30,55.875 C15.7258624,55.8062083 4.20367241,44.1910968 4.24953355,29.9168671 C4.29539468,15.6426374 15.8919815,4.1018034 30.1662665,4.12473387 C44.4405514,4.14766433 55.9999997,15.7256966 56,30 C55.9492389,44.3181062 44.3181845,55.893242 30,55.875 Z M30,6.125 C16.8304243,6.19376862 6.20363798,16.9134441 6.24948467,30.0831195 C6.29533136,43.2527949 16.9964946,53.898223 30.1662298,53.8752983 C43.3359651,53.8523737 54.0000025,43.1697552 54,30 C53.950323,16.7860145 43.2140648,6.10567421 30,6.125 Z" id="Shape"/><path d="M21,35 L17,35 C15.3438951,34.9981923 14.0018077,33.6561049 14,32 L14,28 C14.0018077,26.3438951 15.3438951,25.0018077 17,25 L21,25 C21.5522847,25 22,25.4477153 22,26 L22,34 C22,34.5522847 21.5522847,35 21,35 Z M17,27 C16.4480122,27.0007162 16.0007162,27.4480122 16,28 L16,32 C16.0007162,32.5519878 16.4480122,32.9992838 17,33 L20,33 L20,27 L17,27 Z" id="Shape"/><path d="M34,31 C33.4477153,31 33,30.5522847 33,30 L33,20.06152 C33.0000155,19.680624 32.7835993,19.3328102 32.4418853,19.1645446 C32.1001712,18.9962791 31.6925334,19.0367985 31.39063,19.26904 L22,26.49219 L22,30 C22,30.5522847 21.5522847,31 21,31 C20.4477153,31 20,30.5522847 20,30 L20,26 C19.9998469,25.6895697 20.1440222,25.3967105 20.39014,25.20752 L30.1709,17.68408 C31.0766769,16.9870552 32.2998413,16.8653151 33.3252361,17.3701327 C34.350631,17.8749504 35.0000581,18.9185959 35,20.06152 L35,30 C35,30.5522847 34.5522847,31 34,31 Z" id="Shape"/><path d="M31.99609,42.94141 C31.3352229,42.9407334 30.6932689,42.7207367 30.1709,42.31592 L20.39014,34.79248 C20.1440222,34.6032895 19.9998469,34.3104303 20,34 L20,30 C20,29.4477153 20.4477153,29 21,29 C21.5522847,29 22,29.4477153 22,30 L22,33.50781 L31.39063,40.731 C31.6925391,40.9632459 32.1001861,41.0037621 32.4419032,40.8354865 C32.7836203,40.667211 33.0000307,40.3193832 33,39.93848 L33,30 C33,29.4477153 33.4477153,29 34,29 C34.5522847,29 35,29.4477153 35,30 L35,39.93848 C34.9972843,41.5962088 33.6538196,42.9392352 31.99609,42.94141 Z" id="Shape"/><path d="M44,35 C43.7347342,35.0003006 43.4802902,34.8948521 43.293,34.707 L37.293,28.707 C36.908547,28.3155191 36.9113917,27.6873575 37.2993746,27.2993746 C37.6873575,26.9113917 38.3155191,26.908547 38.707,27.293 L44.707,33.293 C44.9929079,33.5789943 45.0784219,34.0090366 44.923678,34.3826546 C44.7689341,34.7562725 44.4043959,34.9999137 44,35 Z" id="Shape"/><path d="M38,35 C37.5956041,34.9999137 37.2310659,34.7562725 37.076322,34.3826546 C36.9215781,34.0090366 37.0070921,33.5789943 37.293,33.293 L43.293,27.293 C43.5448109,27.0365859 43.9148595,26.9350329 44.2622771,27.0269999 C44.6096948,27.1189669 44.8810331,27.3903052 44.9730001,27.7377229 C45.0649671,28.0851405 44.9634141,28.4551891 44.707,28.707 L38.707,34.707 C38.5197098,34.8948521 38.2652658,35.0003006 38,35 Z" id="Shape"/></g></g></g></svg>