<?xml version="1.0" ?><svg height="60px" version="1.1" viewBox="0 0 60 60" width="60px" xmlns="http://www.w3.org/2000/svg" xmlns:xlink="http://www.w3.org/1999/xlink"><title/><desc/><defs/><g fill="none" fill-rule="evenodd" id="Page-1" stroke="none" stroke-width="1"><g fill-rule="nonzero" id="002---fast-forward"><g id="Icons" stroke="#7D5E46" transform="translate(1.000000, 1.000000)"><ellipse cx="29" cy="29" fill="#95CEDB" id="Oval" rx="29" ry="28.875"/><path d="M28,31.95 L20.09,37.43 C19.8757803,37.5754048 19.598675,37.5902895 19.370112,37.4686688 C19.141549,37.3470481 18.9990824,37.108905 19,36.85 L19,21.15 C18.9990824,20.891095 19.141549,20.6529519 19.370112,20.5313312 C19.598675,20.4097105 19.8757803,20.4245952 20.09,20.57 L28,26.05" fill="#6889A6" id="Shape"/><path d="M28,21.15481 L28,36.84519 C27.9999901,37.1061563 28.1448534,37.345555 28.3760371,37.4666231 C28.6072209,37.5876911 28.8865031,37.5704121 29.101,37.42177 L40.41355,29.58309 C40.6047997,29.4505651 40.7189025,29.2326785 40.7189025,29 C40.7189025,28.7673215 40.6047997,28.5494349 40.41355,28.41691 L29.101,20.57823 C28.8865031,20.4295879 28.6072209,20.4123089 28.3760371,20.5333769 C28.1448534,20.654445 27.9999901,20.8938437 28,21.15481 Z" fill="#69A6CF" id="Shape"/></g><g fill="#7D5E46" id="Layer_12"><path d="M30,59.875 C13.516729,59.8061758 0.203712938,46.4001913 0.249595741,29.9168404 C0.295478545,13.4334895 13.6829211,0.101828045 30.1663198,0.124769353 C46.6497186,0.147710662 59.9999998,13.5165853 60,30 C59.9467204,46.5262011 46.5262795,59.8907235 30,59.875 Z M30,2.125 C14.6212947,2.19380832 2.20369152,14.7043573 2.24956401,30.0831481 C2.29543649,45.4619389 14.787452,57.8981865 30.1662941,57.87525 C45.5451362,57.8523134 58.0000005,45.3788592 58,30 C57.9479795,14.5778464 45.422232,2.10801744 30,2.125 Z" id="Shape"/><path d="M30,55.875 C15.7258624,55.8062083 4.20367241,44.1910968 4.24953355,29.9168671 C4.29539468,15.6426374 15.8919815,4.1018034 30.1662665,4.12473387 C44.4405514,4.14766433 55.9999997,15.7256966 56,30 C55.9492389,44.3181062 44.3181845,55.893242 30,55.875 Z M30,6.125 C16.8304243,6.19376862 6.20363798,16.9134441 6.24948467,30.0831195 C6.29533136,43.2527949 16.9964946,53.898223 30.1662298,53.8752983 C43.3359651,53.8523737 54.0000025,43.1697552 54,30 C53.950323,16.7860145 43.2140648,6.10567421 30,6.125 Z" id="Shape"/><path d="M20.70068,39.55322 C19.7614895,39.5507586 19.0011149,38.789293 19,37.8501 L19,22.1499 C18.9991389,21.5152469 19.3522781,20.9330897 19.91553,20.64063 C20.4716499,20.3471915 21.1451056,20.3890203 21.66064,20.74902 L29.56934,26.22802 C29.8629319,26.4314256 30.0257065,26.7760095 29.9963481,27.1319704 C29.9669896,27.4879313 29.7499584,27.8011902 29.427008,27.9537454 C29.1040577,28.1063007 28.7242519,28.0749756 28.43066,27.87157 L21,22.72412 L21,37.27588 L28.43066,32.12842 C28.7242573,31.9250144 29.104068,31.8936922 29.427021,32.0462521 C29.7499741,32.198812 29.9670053,32.5120766 29.996361,32.8680421 C30.0257168,33.2240076 29.8629373,33.5685944 29.56934,33.772 L21.65918,39.252 C21.377996,39.4480522 21.043464,39.5531829 20.70068,39.55322 Z" id="Shape"/><path d="M29.70215,39.54736 C28.7622911,39.5468469 28.0005131,38.7850689 28,37.84521 L28,22.15479 C28.000029,21.5218481 28.351352,20.9412217 28.9120195,20.6475085 C29.472687,20.3537953 30.1500442,20.3955339 30.67041,20.75586 L41.98291,28.59521 C42.4439617,28.9142514 42.7191395,29.439197 42.7192373,29.9998716 C42.7193351,30.5605463 42.4443404,31.0855878 41.9834,31.40479 L30.6704,39.24365 C30.386191,39.4412933 30.0483257,39.5472711 29.70215,39.54736 Z M30,22.72461 L30,37.27539 L40.499,30 L30,22.72461 Z" id="Shape"/></g></g></g></svg>