<?xml version="1.0" ?><!DOCTYPE svg  PUBLIC '-//W3C//DTD SVG 1.1//EN'  'http://www.w3.org/Graphics/SVG/1.1/DTD/svg11.dtd'><svg height="6.82666in" style="shape-rendering:geometricPrecision; text-rendering:geometricPrecision; image-rendering:optimizeQuality; fill-rule:evenodd; clip-rule:evenodd" viewBox="0 0 6.82666 6.82666" width="6.82666in" xml:space="preserve" xmlns="http://www.w3.org/2000/svg" xmlns:xlink="http://www.w3.org/1999/xlink"><defs><style type="text/css">
   <![CDATA[
    .fil0 {fill:#00C853}
    .fil1 {fill:white}
   ]]>
  </style></defs><g id="Layer_x0020_1"><rect class="fil0" height="6.82667" rx="1.45635" ry="1.45635" width="6.82667"/><path class="fil1" d="M5.00765 3.29454c-0.115843,-0.395854 -0.400287,-0.732323 -0.75572,-0.936421 -0.406256,-0.233598 -0.916059,-0.257256 -1.35234,-0.0957795 -0.220626,0.088315 -0.420071,0.226417 -0.584024,0.398394 -0.00273622,-0.354094 0,-0.70813 -0.00139764,-1.06215 0.000559055,-0.0690906 -0.0417598,-0.137602 -0.106421,-0.163173 -0.0748583,-0.0302835 -0.162315,-0.0294252 -0.236614,0.00219685 -0.0623819,0.0269685 -0.101469,0.0935827 -0.102606,0.160697 -0.00331496,0.359783 0.00529134,0.71961 0.00303543,1.07919 -0.00219685,0.389787 0.00498819,0.779016 0.0030315,1.16889 0.00908268,0.219504 0.0585906,0.438732 0.150201,0.639016 0.162335,0.346331 0.451689,0.631835 0.800795,0.788382 0.294087,0.125146 0.625004,0.175787 0.940291,0.111689 0.386197,-0.0676732 0.740492,-0.286343 0.978744,-0.59698 0.224776,-0.288236 0.335909,-0.655488 0.33972,-1.01889 -0.00522835,-0.160697 -0.0299449,-0.321055 -0.0766969,-0.475067zm-0.381343 0.666488c-0.0365512,0.256701 -0.162256,0.499303 -0.350142,0.678106 -0.164512,0.165071 -0.382681,0.274307 -0.61261,0.310079 -0.2655,0.0437165 -0.546354,-0.00966142 -0.776921,-0.148602 -0.121272,-0.0745 -0.228311,-0.172177 -0.318799,-0.282189 -0.318803,-0.392882 -0.338106,-0.99972 -0.0424016,-1.41043 0.0952205,-0.126264 0.207189,-0.242327 0.343114,-0.325429 0.143311,-0.0904921 0.307803,-0.144709 0.475846,-0.164232 0.280634,-0.0327362 0.574941,0.0371102 0.80437,0.204098 0.171697,0.128795 0.31415,0.300134 0.398591,0.498244 0.0822677,0.201059 0.115004,0.425 0.0789528,0.640354z"/></g></svg>