<?xml version="1.0" ?><svg viewBox="0 0 48 48" xmlns="http://www.w3.org/2000/svg" xmlns:xlink="http://www.w3.org/1999/xlink"><defs><style>.cls-1{fill:url(#linear-gradient);}.cls-2{fill:url(#linear-gradient-2);}.cls-3{fill:url(#linear-gradient-3);}.cls-4{fill:url(#linear-gradient-4);}.cls-5{fill:url(#linear-gradient-5);}.cls-6{fill:url(#linear-gradient-6);}</style><linearGradient gradientTransform="translate(123.96 64.54) rotate(90)" gradientUnits="userSpaceOnUse" id="linear-gradient" x1="-30.43" x2="-30.43" y1="89" y2="91.81"><stop offset="0" stop-color="#dbdbdb"/><stop offset="1" stop-color="#a1a1a1"/></linearGradient><linearGradient gradientUnits="userSpaceOnUse" id="linear-gradient-2" x1="36.12" x2="40.32" y1="40.08" y2="35.55"><stop offset="0" stop-color="#666"/><stop offset="1" stop-color="#9d9d9d"/></linearGradient><linearGradient gradientTransform="matrix(1, 0, 0, 1, 0, 0)" id="linear-gradient-3" x1="20.37" x2="20.37" xlink:href="#linear-gradient" y1="3.95" y2="27.5"/><linearGradient gradientUnits="userSpaceOnUse" id="linear-gradient-4" x1="20.37" x2="20.37" y1="6.71" y2="29.8"><stop offset="0" stop-color="#e7e7e7"/><stop offset="1" stop-color="#a1a1a1"/></linearGradient><linearGradient gradientTransform="matrix(1, 0, 0, 1, 0, 0)" id="linear-gradient-5" x1="21.96" x2="19.99" xlink:href="#linear-gradient" y1="31.56" y2="16.8"/><linearGradient gradientUnits="userSpaceOnUse" id="linear-gradient-6" x1="17.21" x2="22.5" y1="11.02" y2="25.42"><stop offset="0" stop-color="#00e3ff"/><stop offset="1" stop-color="#00afd6"/></linearGradient></defs><title/><g id="icons"><g data-name="Layer 3" id="Layer_3"><rect class="cls-1" height="9.19" transform="translate(-14.35 33.58) rotate(-45)" width="3.22" x="31.76" y="29.52"/><path class="cls-2" d="M37.65,43,31,36.28l4.55-4.56,6.68,6.68a3.13,3.13,0,0,1,0,4.44L42.1,43A3.16,3.16,0,0,1,37.65,43Z"/><circle class="cls-3" cx="20.37" cy="19.62" r="15.5"/><circle class="cls-4" cx="20.37" cy="19.62" r="14.5"/><circle class="cls-5" cx="20.37" cy="19.62" r="10.5"/><circle class="cls-6" cx="20.37" cy="19.62" r="9.5"/></g></g></svg>