<?xml version="1.0" ?><svg viewBox="0 0 48 48" xmlns="http://www.w3.org/2000/svg" xmlns:xlink="http://www.w3.org/1999/xlink"><defs><style>.cls-1{fill:url(#linear-gradient);}.cls-2{fill:url(#linear-gradient-2);}.cls-3{fill:#585858;}.cls-4{fill:url(#linear-gradient-3);}.cls-5{fill:url(#linear-gradient-4);}.cls-6{fill:url(#linear-gradient-5);}.cls-7{fill:url(#linear-gradient-6);}</style><linearGradient gradientUnits="userSpaceOnUse" id="linear-gradient" x1="4" x2="44" y1="23" y2="23"><stop offset="0" stop-color="#e9e9e9"/><stop offset="1" stop-color="#b6b6b6"/></linearGradient><linearGradient gradientUnits="userSpaceOnUse" id="linear-gradient-2" x1="24" x2="23.99" y1="9.45" y2="9.89"><stop offset="0" stop-color="#66bcef"/><stop offset="1" stop-color="#4096c9"/></linearGradient><linearGradient id="linear-gradient-3" x1="13.44" x2="35.39" xlink:href="#linear-gradient-2" y1="14.54" y2="34.67"/><linearGradient gradientUnits="userSpaceOnUse" id="linear-gradient-4" x1="24" x2="24" y1="30.76" y2="39.32"><stop offset="0.32" stop-color="#e9e9e9"/><stop offset="0.5" stop-color="#e5e5e5"/><stop offset="0.65" stop-color="#dadada"/><stop offset="0.8" stop-color="#c8c8c8"/><stop offset="0.92" stop-color="#b4b4b4"/></linearGradient><linearGradient id="linear-gradient-5" x1="24" x2="24" xlink:href="#linear-gradient" y1="36.36" y2="34.5"/><linearGradient gradientUnits="userSpaceOnUse" id="linear-gradient-6" x1="24" x2="24" y1="36.14" y2="34.29"><stop offset="0" stop-color="#949494"/><stop offset="1" stop-color="#6f6f6f"/></linearGradient></defs><title/><g id="icons"><g data-name="Layer 3" id="Layer_3"><rect class="cls-1" height="30" rx="5" ry="5" width="40" x="4" y="8"/><circle class="cls-2" cx="24" cy="9.5" r="0.5"/><path class="cls-3" d="M9.8,10.5H38.2A3.8,3.8,0,0,1,42,14.3V33.56A1.44,1.44,0,0,1,40.56,35H7.44A1.44,1.44,0,0,1,6,33.56V14.3A3.8,3.8,0,0,1,9.8,10.5Z"/><path class="cls-4" d="M10.94,12H37.06A2.94,2.94,0,0,1,40,14.94V34.65a.35.35,0,0,1-.35.35H8.35A.35.35,0,0,1,8,34.65V14.94A2.94,2.94,0,0,1,10.94,12Z"/><path class="cls-5" d="M3,32H45a1,1,0,0,1,1,1v2a5,5,0,0,1-5,5H7a5,5,0,0,1-5-5V33A1,1,0,0,1,3,32Z"/><rect class="cls-6" height="2" rx="1" ry="1" width="10" x="19" y="35"/><rect class="cls-7" height="2" rx="1" ry="1" width="10" x="19" y="34"/></g></g></svg>