<?xml version="1.0" ?><svg enable-background="new 0 0 64 64" height="64px" version="1.1" viewBox="0 0 64 64" width="64px" xml:space="preserve" xmlns="http://www.w3.org/2000/svg" xmlns:xlink="http://www.w3.org/1999/xlink"><g id="Guide"/><g id="Layer_1"><g><path d="M38.6470108,30.8037167l-4.6503639-4.6503658l3.5286674-3.5286694    c0.6194954-0.6194954,1.6238976-0.6194954,2.2433929,0l3.5286713,3.5286694L38.6470108,30.8037167z" fill="#A4FF88"/><path d="M38.6469727,31.3037109c-0.1279297,0-0.2558594-0.0488281-0.3535156-0.1464844l-4.6503906-4.6503906    c-0.1953125-0.1953125-0.1953125-0.5117188,0-0.7070312l3.5288086-3.5288086c0.8144531-0.8144531,2.1376953-0.8125,2.9501953,0    l3.5288086,3.5288086c0.1953125,0.1953125,0.1953125,0.5117188,0,0.7070312l-4.6503906,4.6503906    C38.902832,31.2548828,38.7749023,31.3037109,38.6469727,31.3037109z M34.7036133,26.1533203l3.9433594,3.9433594    l3.9433594-3.9433594l-3.175293-3.175293c-0.4223633-0.4223633-1.1118164-0.4233398-1.5361328,0L34.7036133,26.1533203z" fill="#383838"/></g><g><rect fill="#7BBF66" height="6.5766106" transform="matrix(0.7071068 0.7071068 -0.7071068 0.7071068 34.4630241 -21.5936699)" width="6.5766106" x="40.0090714" y="27.5154114"/><path d="M43.2973633,35.9541016c-0.1279297,0-0.2558594-0.0488281-0.3535156-0.1464844l-4.6503906-4.6503906    c-0.1953125-0.1953125-0.1953125-0.5117188,0-0.7070312l4.6503906-4.6503906c0.1953125-0.1953125,0.5117188-0.1953125,0.7070312,0    l4.6503906,4.6503906c0.1953125,0.1953125,0.1953125,0.5117188,0,0.7070312l-4.6503906,4.6503906    C43.5532227,35.9052734,43.425293,35.9541016,43.2973633,35.9541016z M39.3540039,30.8037109l3.9433594,3.9433594    l3.9433594-3.9433594l-3.9433594-3.9433594L39.3540039,30.8037109z" fill="#383838"/></g><g><path d="M47.9477425,40.1044502l-4.6503639-4.6503677l4.6503639-4.6503658l3.5286713,3.5286694    c0.6194954,0.6194954,0.6194954,1.6238976,0,2.2433929L47.9477425,40.1044502z" fill="#A4FF88"/><path d="M47.9477539,40.6044922c-0.1279297,0-0.2558594-0.0488281-0.3535156-0.1464844l-4.6503906-4.6503906    c-0.1953125-0.1953125-0.1953125-0.5117188,0-0.7070312l4.6503906-4.6503906c0.1953125-0.1953125,0.5117188-0.1953125,0.7070312,0    l3.5288086,3.5288086c0.8129883,0.8129883,0.8129883,2.1362305,0,2.9501953l-3.5288086,3.5288086    C48.2036133,40.5556641,48.0756836,40.6044922,47.9477539,40.6044922z M44.0043945,35.4541016l3.9433594,3.9433594    l3.175293-3.175293c0.4233398-0.4238281,0.4233398-1.112793,0-1.5361328l-3.175293-3.175293L44.0043945,35.4541016z" fill="#383838"/></g><g><polygon fill="#7BBF66" points="38.6481895,30.7987804 36.6549339,32.8054276 31.9995422,28.1500359 33.9927979,26.1567822   "/><path d="M36.6547852,33.3056641c-0.1328125,0-0.2597656-0.0527344-0.3535156-0.1464844l-4.6552734-4.6557617    c-0.1953125-0.1953125-0.1953125-0.5117188,0-0.7070312l1.9931641-1.9931641    c0.1953125-0.1953125,0.5112305-0.1948242,0.706543-0.0004883l4.6552734,4.6420898    c0.1953125,0.1948242,0.1962891,0.5107422,0.0019531,0.706543l-1.9931641,2.0068359    c-0.09375,0.0942383-0.2211914,0.1474609-0.3540039,0.1474609C36.6552734,33.3056641,36.6552734,33.3056641,36.6547852,33.3056641    z M32.706543,28.1499023l3.9472656,3.9472656l1.2875977-1.296875l-3.9482422-3.9370117L32.706543,28.1499023z" fill="#383838"/></g><g><path d="M43.3036613,35.4542542l-4.6554718,4.6553879l-1.9932556-1.9932518l1.5250702-1.5384598    c0.6153984-0.6153221,0.6153984-1.6320343,0-2.2474327l-1.5250702-1.5250702l1.9932556-2.0066471L43.3036613,35.4542542z" fill="#A4FF88"/><path d="M38.6479492,40.6098633L38.6479492,40.6098633c-0.1328125,0-0.2597656-0.0527344-0.3535156-0.1464844    l-1.9931641-1.9936523c-0.1948242-0.1948242-0.1953125-0.5102539-0.0014648-0.7055664l1.5253906-1.5380859    c0.4189453-0.4189453,0.4189453-1.1245117,0.0014648-1.5419922l-1.5253906-1.5249023    c-0.1948242-0.1948242-0.1953125-0.5102539-0.0014648-0.7060547l1.9931641-2.0068359    c0.0942383-0.0947266,0.2578125-0.1499023,0.3549805-0.1474609c0.1328125,0,0.2597656,0.0527344,0.3535156,0.1464844    l4.6557617,4.6552734c0.09375,0.09375,0.1464844,0.2207031,0.1464844,0.3535156s-0.0527344,0.2597656-0.1464844,0.3535156    l-4.6557617,4.6557617C38.9077148,40.5571289,38.7807617,40.6098633,38.6479492,40.6098633z M37.3603516,38.1147461    l1.2875977,1.2880859l3.9487305-3.9487305l-3.9472656-3.9467773l-1.2885742,1.296875l1.1728516,1.1728516    c0.8144531,0.8144531,0.8144531,2.1396484,0,2.9545898L37.3603516,38.1147461z" fill="#383838"/></g><g><rect fill="#7BBF66" height="6.5766106" transform="matrix(0.7071068 0.7071068 -0.7071068 0.7071068 41.0396347 -18.8695488)" width="6.5766106" x="40.0090714" y="36.816143"/><path d="M43.2973633,45.2548828c-0.1279297,0-0.2558594-0.0488281-0.3535156-0.1464844l-4.6503906-4.6503906    c-0.1953125-0.1953125-0.1953125-0.5117188,0-0.7070312l4.6503906-4.6503906c0.1953125-0.1953125,0.5117188-0.1953125,0.7070312,0    l4.6503906,4.6503906c0.1953125,0.1953125,0.1953125,0.5117188,0,0.7070312l-4.6503906,4.6503906    C43.5532227,45.2060547,43.425293,45.2548828,43.2973633,45.2548828z M39.3540039,40.1044922l3.9433594,3.9433594    l3.9433594-3.9433594l-3.9433594-3.9433594L39.3540039,40.1044922z" fill="#383838"/></g><g><polygon fill="#7BBF66" points="38.6481895,40.109642 33.9927979,44.7516441 31.9995422,42.7583885 34.6482887,40.109642     36.6549339,38.1163902   "/><path d="M33.9926758,45.2514648c-0.1279297,0-0.2558594-0.0488281-0.3535156-0.1464844l-1.9931641-1.9931641    c-0.09375-0.09375-0.1464844-0.2207031-0.1464844-0.3535156s0.0527344-0.2597656,0.1464844-0.3535156l4.65625-4.6430664    c0.1958008-0.1943359,0.5112305-0.1933594,0.7060547,0.0009766l1.9931641,1.9936523    c0.09375,0.09375,0.1464844,0.2211914,0.1464844,0.3540039s-0.0532227,0.2597656-0.1469727,0.3535156l-4.6552734,4.6416016    C34.2480469,45.2026367,34.1206055,45.2514648,33.9926758,45.2514648z M32.706543,42.7583008l1.2866211,1.2866211    l3.9472656-3.9355469l-1.2866211-1.2871094L32.706543,42.7583008z" fill="#383838"/></g><g><rect fill="#A4FF88" height="6.5766106" transform="matrix(0.7071068 0.7071068 -0.7071068 0.7071068 42.9658813 -14.219182)" width="6.5766106" x="35.3587074" y="41.4665108"/><path d="M38.6469727,49.9052734c-0.1279297,0-0.2558594-0.0488281-0.3535156-0.1464844l-4.6503906-4.6503906    c-0.1953125-0.1953125-0.1953125-0.5117188,0-0.7070312l4.6503906-4.6503906c0.1953125-0.1953125,0.5117188-0.1953125,0.7070312,0    l4.6503906,4.6503906c0.1953125,0.1953125,0.1953125,0.5117188,0,0.7070312l-4.6503906,4.6503906    C38.902832,49.8564453,38.7749023,49.9052734,38.6469727,49.9052734z M34.7036133,44.7548828l3.9433594,3.9433594    l3.9433594-3.9433594l-3.9433594-3.9433594L34.7036133,44.7548828z" fill="#383838"/></g><g><polygon fill="#7BBF66" points="46.2418289,57 38.6470108,49.4051819 43.2973785,44.7548141 50.8921967,52.3496323     46.4638329,52.5716362   "/><path d="M46.2416992,57.5c-0.1303711,0-0.2578125-0.0507812-0.3535156-0.1464844l-7.5947266-7.5947266    c-0.1953125-0.1953125-0.1953125-0.5117188,0-0.7070312l4.6503906-4.6503906c0.1953125-0.1953125,0.5117188-0.1953125,0.7070312,0    l7.5947266,7.5947266c0.1396484,0.1396484,0.184082,0.3486328,0.1132812,0.5332031    c-0.0712891,0.1845703-0.2441406,0.3095703-0.4418945,0.3198242l-3.9765625,0.1992188l-0.1992188,3.9765625    c-0.0102539,0.1977539-0.1352539,0.3706055-0.3198242,0.4418945C46.362793,57.4892578,46.3022461,57.5,46.2416992,57.5z     M39.3540039,49.4052734l6.4448242,6.4448242l0.1655273-3.3032227c0.0131836-0.2568359,0.2177734-0.4614258,0.4746094-0.4746094    l3.3032227-0.1655273l-6.4448242-6.4448242L39.3540039,49.4052734z" fill="#383838"/></g><g><rect fill="#7BBF66" height="6.5766106" transform="matrix(0.7071068 -0.7071068 0.7071068 0.7071068 -23.6503906 39.0607262)" width="2.8253467" x="33.9125977" y="44.7906036"/><path d="M36.6513672,51.902832c-0.1279297,0-0.2558594-0.0488281-0.3535156-0.1464844l-4.6503906-4.6503906    c-0.09375-0.09375-0.1464844-0.2207031-0.1464844-0.3535156s0.0527344-0.2597656,0.1464844-0.3535156l1.9980469-1.9975586    c0.1953125-0.1953125,0.5117188-0.1953125,0.7070312,0l4.6503906,4.6503906    c0.09375,0.09375,0.1464844,0.2207031,0.1464844,0.3535156s-0.0527344,0.2597656-0.1464844,0.3535156l-1.9980469,1.9975586    C36.9072266,51.8540039,36.7792969,51.902832,36.6513672,51.902832z M32.7080078,46.7524414l3.9433594,3.9433594    l1.2910156-1.2905273l-3.9433594-3.9433594L32.7080078,46.7524414z" fill="#383838"/></g><g><path d="M25.3529873,30.8037167l-4.6503658-4.6503658l3.5286713-3.5286694    c0.6194954-0.6194954,1.6238956-0.6194954,2.243391,0l3.5286713,3.5286694L25.3529873,30.8037167z" fill="#A4FF88"/><path d="M25.3530273,31.3037109c-0.1279297,0-0.2558594-0.0488281-0.3535156-0.1464844l-4.6503906-4.6503906    c-0.1953125-0.1953125-0.1953125-0.5117188,0-0.7070312l3.5288086-3.5288086c0.8134766-0.8134766,2.1367188-0.8134766,2.9501953,0    l3.5288086,3.5288086c0.1953125,0.1953125,0.1953125,0.5117188,0,0.7070312l-4.6503906,4.6503906    C25.6088867,31.2548828,25.480957,31.3037109,25.3530273,31.3037109z M21.409668,26.1533203l3.9433594,3.9433594    l3.9433594-3.9433594l-3.175293-3.175293c-0.4243164-0.4233398-1.112793-0.4223633-1.5361328,0L21.409668,26.1533203z" fill="#383838"/></g><g><polygon fill="#7BBF66" points="34.6482887,30.7987804 31.9995422,33.4609985 30.0062885,35.4542542 25.3508167,30.7987804     30.0062885,26.1567822   "/><path d="M30.0063477,35.9541016c-0.1279297,0-0.2558594-0.0488281-0.3535156-0.1464844l-4.6557617-4.6552734    c-0.09375-0.09375-0.1464844-0.2211914-0.1464844-0.3540039s0.0527344-0.2597656,0.1469727-0.3535156l4.6557617-4.6420898    c0.1953125-0.1943359,0.5112305-0.1948242,0.706543,0.0004883l4.6420898,4.6420898    c0.1948242,0.1948242,0.1953125,0.5107422,0.0009766,0.7060547l-4.6430664,4.65625    C30.262207,35.9052734,30.1342773,35.9541016,30.0063477,35.9541016z M26.0581055,30.7993164l3.9482422,3.9477539    l3.9360352-3.9472656l-3.9365234-3.9365234L26.0581055,30.7993164z" fill="#383838"/></g><g><path d="M38.1800041,36.5779305l-1.5250702,1.5384598l-2.0066452,1.9932518l-2.6487465-2.6621361    l-1.9932537-1.9932518l1.9932537-1.9932556l2.6487465-2.6622181l3.5317154,3.5317173    C38.7954025,34.9458961,38.7954025,35.9626083,38.1800041,36.5779305z" fill="#A4FF88"/><path d="M34.6484375,40.6098633c-0.128418,0-0.2568359-0.0493164-0.3544922-0.1474609l-4.6411133-4.6547852    c-0.1953125-0.1953125-0.1953125-0.5117188,0-0.7070312l4.6411133-4.6542969    c0.09375-0.0942383,0.2211914-0.1474609,0.3540039-0.1474609h0.0004883c0.1328125,0,0.2597656,0.0527344,0.3535156,0.1464844    l3.5317383,3.5317383c0.8144531,0.8139648,0.8144531,2.1396484,0.0004883,2.9541016l-3.5332031,3.5332031    C34.9033203,40.5615234,34.7758789,40.6098633,34.6484375,40.6098633z M30.7133789,35.4541016l3.9370117,3.9487305    l3.1748047-3.1767578c0.0004883-0.0004883,0.0009766-0.0009766,0.0014648-0.0014648    c0.4174805-0.4174805,0.4174805-1.1230469,0-1.5405273l-3.1772461-3.1772461L30.7133789,35.4541016z" fill="#383838"/></g><g><rect fill="#7BBF66" height="6.5766106" transform="matrix(0.7071068 0.7071068 -0.7071068 0.7071068 27.8451748 -5.6167645)" width="6.5766106" x="17.4143162" y="27.5154114"/><path d="M20.7026367,35.9541016c-0.1279297,0-0.2558594-0.0488281-0.3535156-0.1464844l-4.6503906-4.6503906    c-0.1953125-0.1953125-0.1953125-0.5117188,0-0.7070312l4.6503906-4.6503906c0.1953125-0.1953125,0.5117188-0.1953125,0.7070312,0    l4.6503906,4.6503906c0.1953125,0.1953125,0.1953125,0.5117188,0,0.7070312l-4.6503906,4.6503906    C20.9584961,35.9052734,20.8305664,35.9541016,20.7026367,35.9541016z M16.7592773,30.8037109l3.9433594,3.9433594    l3.9433594-3.9433594l-3.9433594-3.9433594L16.7592773,30.8037109z" fill="#383838"/></g><g><polygon fill="#A4FF88" points="30.0062885,35.4542542 27.3574619,38.1163902 25.3508167,40.109642 20.7088165,35.4542542     25.3508167,30.7987804   "/><path d="M25.3505859,40.6098633c-0.128418,0-0.2563477-0.0488281-0.3540039-0.1469727l-4.6416016-4.6557617    c-0.1948242-0.1953125-0.1948242-0.5107422,0-0.7060547l4.6416016-4.6552734    c0.09375-0.0942383,0.2207031-0.1469727,0.3535156-0.1469727h0.0004883c0.1328125,0,0.2597656,0.0527344,0.3535156,0.1464844    l4.6557617,4.6552734c0.1948242,0.1948242,0.1953125,0.5107422,0.0009766,0.7060547l-4.6577148,4.6577148    C25.6054688,40.5615234,25.4780273,40.6098633,25.3505859,40.6098633z M21.4150391,35.4541016l3.9370117,3.9492188    l3.9482422-3.9482422l-3.9492188-3.9487305L21.4150391,35.4541016z" fill="#383838"/></g><g><polygon fill="#7BBF66" points="34.6482887,40.109642 30.0062885,44.7516441 25.3508167,40.109642 27.3574619,38.1163902     30.0062885,35.4542542 31.9995422,37.447506   "/><path d="M30.0063477,45.2514648c-0.1279297,0-0.2553711-0.0488281-0.3530273-0.1459961l-4.6557617-4.6416016    c-0.0942383-0.09375-0.1469727-0.2211914-0.1469727-0.3544922c0-0.1328125,0.0532227-0.2602539,0.1474609-0.3540039    l4.6538086-4.6538086c0.09375-0.0942383,0.2211914-0.1474609,0.3540039-0.1474609h0.0004883    c0.1328125,0,0.2597656,0.0527344,0.3535156,0.1464844l4.6430664,4.6567383    c0.1943359,0.1953125,0.1938477,0.5112305-0.0009766,0.7060547l-4.6420898,4.6416016    C30.262207,45.2026367,30.1342773,45.2514648,30.0063477,45.2514648z M26.0595703,40.1103516l3.9462891,3.9345703    l3.9365234-3.9360352l-3.9350586-3.9467773L26.0595703,40.1103516z" fill="#383838"/></g><g><path d="M16.0522556,40.1044502l-3.5286694-3.5286713c-0.6194954-0.6194954-0.6194954-1.6238976,0-2.2433929    l3.5286694-3.5286694l4.6503658,4.6503658L16.0522556,40.1044502z" fill="#A4FF88"/><path d="M16.0522461,40.6044922c-0.1279297,0-0.2558594-0.0488281-0.3535156-0.1464844l-3.5288086-3.5288086    c-0.8129883-0.8139648-0.8129883-2.137207,0-2.9501953l3.5288086-3.5288086c0.1953125-0.1953125,0.5117188-0.1953125,0.7070312,0    l4.6503906,4.6503906c0.1953125,0.1953125,0.1953125,0.5117188,0,0.7070312l-4.6503906,4.6503906    C16.3081055,40.5556641,16.1801758,40.6044922,16.0522461,40.6044922z M16.0522461,31.5107422l-3.175293,3.175293    c-0.4233398,0.4233398-0.4233398,1.1123047,0,1.5361328l3.175293,3.175293l3.9433594-3.9433594L16.0522461,31.5107422z" fill="#383838"/></g><g><rect fill="#7BBF66" height="6.5766106" transform="matrix(0.7071068 0.7071068 -0.7071068 0.7071068 34.4217873 -2.8926435)" width="6.5766106" x="17.4143162" y="36.816143"/><path d="M20.7026367,45.2548828c-0.1279297,0-0.2558594-0.0488281-0.3535156-0.1464844l-4.6503906-4.6503906    c-0.1953125-0.1953125-0.1953125-0.5117188,0-0.7070312l4.6503906-4.6503906c0.1953125-0.1953125,0.5117188-0.1953125,0.7070312,0    l4.6503906,4.6503906c0.1953125,0.1953125,0.1953125,0.5117188,0,0.7070312l-4.6503906,4.6503906    C20.9584961,45.2060547,20.8305664,45.2548828,20.7026367,45.2548828z M16.7592773,40.1044922l3.9433594,3.9433594    l3.9433594-3.9433594l-3.9433594-3.9433594L16.7592773,40.1044922z" fill="#383838"/></g><g><rect fill="#A4FF88" height="6.5766106" transform="matrix(0.7071068 0.7071068 -0.7071068 0.7071068 39.0721512 -4.8188882)" width="6.5766106" x="22.064682" y="41.4665108"/><path d="M25.3530273,49.9052734c-0.1279297,0-0.2558594-0.0488281-0.3535156-0.1464844l-4.6503906-4.6503906    c-0.1953125-0.1953125-0.1953125-0.5117188,0-0.7070312l4.6503906-4.6503906c0.1953125-0.1953125,0.5117188-0.1953125,0.7070312,0    l4.6503906,4.6503906c0.1953125,0.1953125,0.1953125,0.5117188,0,0.7070312l-4.6503906,4.6503906    C25.6088867,49.8564453,25.480957,49.9052734,25.3530273,49.9052734z M21.409668,44.7548828l3.9433594,3.9433594    l3.9433594-3.9433594l-3.9433594-3.9433594L21.409668,44.7548828z" fill="#383838"/></g><g><polygon fill="#7BBF66" points="32.9478073,57 25.3529873,49.4051819 30.003355,44.7548141 37.5981712,52.3496323     33.1698112,52.5716362   "/><path d="M32.9477539,57.5c-0.1303711,0-0.2578125-0.0507812-0.3535156-0.1464844l-7.5947266-7.5947266    c-0.1953125-0.1953125-0.1953125-0.5117188,0-0.7070312l4.6503906-4.6503906c0.1953125-0.1953125,0.5117188-0.1953125,0.7070312,0    l7.5947266,7.5947266c0.1396484,0.1396484,0.184082,0.3486328,0.1132812,0.5332031    c-0.0712891,0.1845703-0.2441406,0.3095703-0.4418945,0.3198242l-3.9765625,0.1992188l-0.1992188,3.9765625    c-0.0102539,0.1977539-0.1352539,0.3706055-0.3198242,0.4418945C33.0688477,57.4892578,33.0083008,57.5,32.9477539,57.5z     M26.0600586,49.4052734l6.4448242,6.4448242l0.1655273-3.3032227c0.0131836-0.2568359,0.2177734-0.4614258,0.4746094-0.4746094    l3.3032227-0.1655273l-6.4448242-6.4448242L26.0600586,49.4052734z" fill="#383838"/></g><g><polygon fill="#7BBF66" points="13.1078033,52.3496323 20.7026215,44.7548141 25.3529873,49.4051819 17.7581692,57     17.5361671,52.5716362   "/><path d="M17.7583008,57.5c-0.0605469,0-0.1210938-0.0107422-0.1796875-0.0332031    c-0.1845703-0.0712891-0.3095703-0.2441406-0.3198242-0.4418945l-0.1992188-3.9765625l-3.9765625-0.1992188    c-0.1977539-0.0102539-0.3706055-0.1352539-0.4418945-0.3198242c-0.0708008-0.1845703-0.0263672-0.3935547,0.1132812-0.5332031    l7.5947266-7.5947266c0.1953125-0.1953125,0.5117188-0.1953125,0.7070312,0l4.6503906,4.6503906    c0.1953125,0.1953125,0.1953125,0.5117188,0,0.7070312l-7.5947266,7.5947266    C18.0161133,57.4492188,17.8886719,57.5,17.7583008,57.5z M14.2578125,51.9067383l3.3032227,0.1655273    c0.2568359,0.0131836,0.4614258,0.2177734,0.4746094,0.4746094l0.1655273,3.3032227l6.4448242-6.4448242l-3.9433594-3.9433594    L14.2578125,51.9067383z" fill="#383838"/></g><path d="M38.6474609,22.6601562c-0.1928711,0-0.3759766-0.1118164-0.4584961-0.2993164L32,8.2451172   l-6.1889648,14.1157227c-0.1113281,0.2524414-0.4047852,0.3657227-0.6586914,0.2573242   c-0.2529297-0.1108398-0.3681641-0.4057617-0.2573242-0.6586914l6.6469727-15.1601562   c0.1591797-0.3642578,0.7568359-0.3642578,0.9160156,0l6.6469727,15.1601562   c0.1108398,0.2529297-0.0043945,0.5478516-0.2573242,0.6586914C38.7822266,22.6464844,38.7143555,22.6601562,38.6474609,22.6601562   z" fill="#383838"/></g></svg>