<?xml version="1.0" ?><svg enable-background="new 0 0 64 64" height="64px" version="1.1" viewBox="0 0 64 64" width="64px" xml:space="preserve" xmlns="http://www.w3.org/2000/svg" xmlns:xlink="http://www.w3.org/1999/xlink"><g id="Guide"/><g id="Layer_1"><g><g><path d="M47.8798866,17.3166161c-1.3912697-1.3152428-3.6521568-1.0543823-5.3804474-0.2500458     c-1.9347458,0.9130726-3.5543022,2.3587437-5.1412811,3.7826538c-1.3695755,1.2282658-2.782608,2.5543213-3.3152046,4.304306     c0,0-0.0541344,0.041729-0.1515923,0.1183548c-0.2308731,1.3249931-0.67099,2.5759487-1.5984573,3.5229225     c-0.6956024,0.7174282-1.608675,1.1739311-2.3804398,1.8043842c-1.0108604,0.815218-1.7825565,1.923933-2.2064857,3.1521358     c-0.1521912,0.4674492-0.27174,0.9565239-0.5869999,1.3370018c-0.184763,0.2282181-0.4021683,0.3804054-0.6630268,0.4999542     c-0.5978127,0.2500458-1.358696,0.2282867-2.0217228,0.0869751c-0.1474133-0.0305176-0.2948933-0.0695267-0.4423065-0.106411     c0.3443832,0.4511948,1.2640915,0.808979,3.0062466,1.1284866c0.0086918-0.1010399,0.0195713-0.1827736,0.0339012-0.2177353     c0.0434551-0.1086693,0.0977879-0.2065239,0.1738834-0.2934341c0.3043804-0.4130478,0.815218-0.7283096,1.1848125-1.0435028     c1.3912697-1.1630516,2.8695145-2.3043404,4.7282333-2.5760803c1.336937-0.1956444,2.7282715,0.0869751,4.0326347-0.2826195     c1.2717171-0.3695946,2.4130096-1.336937,3.7282524-1.2065067c0.7173615,0.0652142,1.358696,0.4673843,1.9999619,0.8260975     h0.0000648c1.2065086-0.9999809,2.2064896-2.2825813,2.9021568-3.7065582     c0.5543594-1.1412907,0.9565277-2.402132,1.8369598-3.3260841c0.456501-0.4890785,1.0543137-0.8804321,1.315239-1.4891262     c0.1847649-0.4021683,0.1956444-0.8586712,0.206459-1.3042946     C49.1842499,20.3818398,49.1190338,18.4796658,47.8798866,17.3166161z" fill="#FFCE7B"/><path d="M26.9980469,37.1972656c-0.0302734,0-0.0605469-0.0029297-0.0898438-0.0083008     c-1.8818359-0.3447266-2.8730469-0.7387695-3.3134766-1.3168945c-0.1289062-0.1694336-0.1367188-0.4013672-0.0195312-0.5786133     c0.1162109-0.1772461,0.328125-0.2626953,0.5390625-0.2094727c0.1875,0.0473633,0.3046875,0.0771484,0.4228516,0.1020508     c0.6689453,0.1430664,1.296875,0.1210938,1.7255859-0.059082c0.1953125-0.0898438,0.3447266-0.2006836,0.4677734-0.3530273     c0.2099609-0.2529297,0.3173828-0.5981445,0.4326172-0.9633789l0.0673828-0.2138672     c0.4560547-1.3222656,1.2958984-2.5219727,2.3681641-3.3867188c0.3154297-0.2578125,0.65625-0.4897461,0.9980469-0.7211914     c0.4902344-0.3325195,0.9541016-0.6464844,1.3369141-1.0419922c0.7441406-0.7597656,1.2089844-1.7954102,1.4658203-3.2607422     c0.0205078-0.121582,0.0859375-0.230957,0.1835938-0.3071289l0.0302734-0.0244141     c0.6347656-1.8881836,2.234375-3.3227539,3.4111328-4.3774414c1.5947266-1.4311523,3.2441406-2.9106445,5.2607422-3.862793     c1.8105469-0.8417969,4.3164062-1.1928711,5.9375,0.3378906c1.3974609,1.3115234,1.4648438,3.340332,1.4179688,5.1386719     c-0.0117188,0.4711914-0.0244141,1.0043945-0.2519531,1.4995117c-0.21875,0.5112305-0.6113281,0.8730469-0.9912109,1.2226562     c-0.1416016,0.1303711-0.2832031,0.2602539-0.4121094,0.3989258c-0.6074219,0.6367188-0.9697266,1.4570312-1.3535156,2.3261719     c-0.1298828,0.2949219-0.2597656,0.5898438-0.4003906,0.8774414c-0.7304688,1.4951172-1.7792969,2.8339844-3.0322266,3.8725586     c-0.1591797,0.1313477-0.3837891,0.1513672-0.5634766,0.0517578l-0.203125-0.1147461     c-0.546875-0.309082-1.0625-0.6010742-1.5976562-0.6494141c-0.7070312-0.0649414-1.4013672,0.2597656-2.1357422,0.6098633     c-0.4492188,0.2138672-0.9130859,0.4350586-1.4082031,0.5786133c-0.8242188,0.2333984-1.6572266,0.2294922-2.4589844,0.2250977     c-0.5722656-0.0029297-1.1123047-0.0053711-1.640625,0.0717773c-1.7138672,0.2509766-3.0966797,1.309082-4.4804688,2.465332     c-0.1123047,0.0961914-0.2421875,0.1958008-0.375,0.2983398C28.0625,36.0336914,27.7802734,36.25,27.6083984,36.4829102     c-0.0595703,0.0703125-0.0859375,0.1171875-0.1113281,0.1806641c0.0048828-0.0078125,0.0039062,0.0244141-0.0009766,0.0771484     c-0.0117188,0.1401367-0.0830078,0.2685547-0.1953125,0.3540039     C27.2138672,37.1616211,27.1064453,37.1972656,26.9980469,37.1972656z M26.5292969,36.0952148     c0.0390625,0.0083008,0.078125,0.0166016,0.1191406,0.0249023c0.0175781-0.0327148,0.0361328-0.0649414,0.0556641-0.0957031     c-0.0126953,0.0063477-0.0263672,0.012207-0.0390625,0.0185547     C26.6201172,36.0615234,26.5742188,36.0791016,26.5292969,36.0952148z M34.3496094,25.5483398     c-0.3007812,1.5756836-0.8427734,2.722168-1.6992188,3.5961914c-0.453125,0.4677734-0.9814453,0.8256836-1.4931641,1.1723633     c-0.3164062,0.2143555-0.6337891,0.4287109-0.9287109,0.6694336c-0.9296875,0.75-1.6572266,1.7895508-2.0498047,2.9282227     l-0.0615234,0.1953125c-0.0888672,0.2817383-0.1845703,0.5893555-0.3388672,0.8813477     c0.1015625-0.0771484,0.1982422-0.152832,0.2871094-0.2290039c1.4423828-1.2050781,3.0107422-2.4023438,4.9814453-2.6904297     c0.6044922-0.0883789,1.2119141-0.0854492,1.7900391-0.0825195c0.7626953,0.0019531,1.4931641,0.0073242,2.1787109-0.1860352     c0.4140625-0.1206055,0.8212891-0.3149414,1.2529297-0.5205078c0.8251953-0.3930664,1.6728516-0.7988281,2.6611328-0.7026367     c0.703125,0.0634766,1.3085938,0.387207,1.890625,0.7158203c1.0302734-0.9145508,1.8955078-2.0556641,2.5126953-3.3188477     c0.1337891-0.2753906,0.2587891-0.559082,0.3847656-0.8427734c0.4013672-0.9091797,0.8164062-1.8496094,1.5390625-2.6083984     c0.1435547-0.152832,0.3027344-0.3007812,0.4628906-0.4482422c0.3164062-0.2915039,0.6152344-0.5668945,0.7548828-0.8925781     c0.1464844-0.3198242,0.15625-0.7075195,0.1660156-1.1171875c0.0410156-1.5849609-0.0068359-3.3583984-1.1025391-4.3867188     c-0.0009766-0.0004883-0.0009766-0.0009766-0.0019531-0.0014648c-1.2568359-1.1894531-3.3867188-0.8305664-4.8261719-0.1601562     c-1.8818359,0.8886719-3.4765625,2.3188477-5.0175781,3.7016602c-1.453125,1.3027344-2.6933594,2.5083008-3.1708984,4.0776367     c-0.0302734,0.0981445-0.0898438,0.1850586-0.1708984,0.2485352L34.3496094,25.5483398z" fill="#383838"/></g><g><path d="M45.947197,27.8346977c-0.0550652,0.1207428-0.1074753,0.2436104-0.1651268,0.3622971     c-0.6956673,1.4239769-1.6956482,2.7065773-2.9021568,3.7065582h-0.0000648     c-0.6412659-0.3587132-1.2826004-0.7608833-1.9999619-0.8260975c-1.3152428-0.1304302-2.4565353,0.8369122-3.7282524,1.2065067     c-1.3043633,0.3695946-2.6956978,0.0869751-4.0326347,0.2826195c-1.8587189,0.27174-3.3369637,1.4130287-4.7282333,2.5760803     c-0.3695946,0.3151932-0.8804321,0.630455-1.1848125,1.0435028c-0.0760956,0.0869102-0.1304283,0.1847649-0.1738834,0.2934341     c-0.0143299,0.0349617-0.0252094,0.1166954-0.0339012,0.2177353c-1.7421551-0.3195076-2.6618633-0.6772919-3.0062466-1.1284866     c0.1474133,0.0368843,0.2948933,0.0758934,0.4423065,0.106411c-0.9456482-0.1956406-1.8912945-0.5760498-2.8478222-0.456501     c-0.728241,0.0977898-1.5000057,0.4673843-2.1413383,0.1195488c-0.3369541-0.1847649-0.5542927-0.5325966-0.7391224-0.8695526     c-1.1086502-1.9021721-2.2391281-4.1087265-1.5434589-6.1847839c0.0230865-0.0674038,0.0544662-0.1314907,0.0809364-0.1975689     C11.0345564,30.0831127,7,33.3056374,7,36.9431992c0,6.0608559,11.192852,10.9741211,25,10.9741211     c13.8070793,0,25-4.9132652,25-10.9741211C57,33.1494675,52.6140938,29.8056679,45.947197,27.8346977z" fill="#C6C6C6"/><path d="M32,48.4174805c-14.2988281,0-25.5-5.0400391-25.5-11.4741211     c0-3.7670898,3.8603516-7.1689453,10.5898438-9.3330078c0.1865234-0.0595703,0.3867188-0.0068359,0.5185547,0.1347656     c0.1328125,0.1420898,0.1708984,0.347168,0.0986328,0.5268555l-0.4013672,0.0087891l0.0185547,0.0576172l0.3115234,0.1044922     c-0.6269531,1.8730469,0.4462891,3.9624023,1.5019531,5.7739258c0.1591797,0.2895508,0.3300781,0.5634766,0.5478516,0.6831055     c0.296875,0.1601562,0.7050781,0.0639648,1.1777344-0.0458984c0.2197266-0.0512695,0.4404297-0.1015625,0.65625-0.1308594     c0.7988281-0.0981445,1.5517578,0.0947266,2.2773438,0.2836914c0.0849609,0.0219727,0.1708984,0.0439453,0.2558594,0.0654297     c0.0205078,0.0029297,0.0410156,0.0063477,0.0615234,0.0117188c0.1875,0.0473633,0.3046875,0.0771484,0.4228516,0.1020508     c0.21875,0.0454102,0.375,0.2290039,0.3955078,0.440918c0.3476562,0.1538086,0.8867188,0.3227539,1.7158203,0.4931641     c0.0507812-0.0957031,0.1113281-0.1835938,0.1816406-0.2636719c0.2294922-0.3139648,0.5839844-0.5859375,0.8974609-0.8256836     c0.1181641-0.0913086,0.234375-0.1796875,0.3378906-0.2680664c1.4423828-1.2055664,3.0107422-2.402832,4.9814453-2.690918     c0.6025391-0.0878906,1.2050781-0.0854492,1.7900391-0.0825195c0.7714844,0.0053711,1.4941406,0.0078125,2.1787109-0.1860352     c0.4140625-0.1206055,0.8212891-0.3149414,1.2529297-0.5205078c0.8251953-0.3930664,1.6728516-0.7988281,2.6611328-0.7026367     c0.703125,0.0634766,1.3085938,0.387207,1.890625,0.7158203c1.0302734-0.9145508,1.8955078-2.0556641,2.5126953-3.3188477     l0.1582031-0.3481445c0.1035156-0.2275391,0.3583984-0.3461914,0.5976562-0.2739258     C53.234375,29.4677734,57.5,33.0522461,57.5,36.9433594C57.5,43.3774414,46.2988281,48.4174805,32,48.4174805z      M16.5068359,28.8623047C10.8466797,30.8613281,7.5,33.8466797,7.5,36.9433594C7.5,42.71875,18.4902344,47.4174805,32,47.4174805     S56.5,42.71875,56.5,36.9433594c0-3.3520508-3.8330078-6.5151367-10.2802734-8.5039062     c-0.7304688,1.4853516-1.7744141,2.815918-3.0205078,3.8486328c-0.1591797,0.1313477-0.3837891,0.1513672-0.5634766,0.0517578     l-0.203125-0.1147461c-0.546875-0.309082-1.0625-0.6010742-1.5976562-0.6494141     c-0.7070312-0.0649414-1.4013672,0.2597656-2.1357422,0.6098633c-0.4492188,0.2138672-0.9130859,0.4350586-1.4082031,0.5786133     c-0.8242188,0.2333984-1.6572266,0.2294922-2.4589844,0.2250977c-0.5722656-0.0029297-1.1123047-0.0053711-1.640625,0.0717773     c-1.7138672,0.2509766-3.0966797,1.309082-4.4804688,2.465332c-0.1123047,0.0961914-0.2421875,0.1958008-0.375,0.2983398     C28.0625,36.0336914,27.7802734,36.25,27.6083984,36.4829102c-0.0595703,0.0703125-0.0859375,0.1171875-0.1113281,0.1806641     c0.0048828-0.0078125,0.0039062,0.0244141-0.0009766,0.0771484c-0.0117188,0.1401367-0.0830078,0.2685547-0.1953125,0.3540039     c-0.1113281,0.0859375-0.2568359,0.1201172-0.3925781,0.0942383c-1.7158203-0.3144531-2.6914062-0.6694336-3.1835938-1.168457     c-0.0595703-0.0151367-0.1191406-0.0302734-0.1787109-0.0458984c-0.6650391-0.1723633-1.2949219-0.3359375-1.8974609-0.2597656     c-0.1816406,0.0244141-0.3691406,0.0688477-0.5576172,0.112793c-0.5859375,0.137207-1.2529297,0.2939453-1.8837891-0.0498047     c-0.4453125-0.2446289-0.7148438-0.6582031-0.9394531-1.0688477     C17.2333984,32.9345703,16.1826172,30.8925781,16.5068359,28.8623047z" fill="#383838"/></g><g><path d="M34.3147049,19.3600521c-0.0544014,1.0760765-0.1087341,2.1630325-0.1630707,3.2391739     c-0.1086693,2.2064877-0.3151932,4.619566-1.8587189,6.1956005c-0.6956024,0.7174282-1.608675,1.1739311-2.3804379,1.8043842     c-1.0108604,0.815218-1.7825584,1.923933-2.2064877,3.1521358c-0.1521893,0.4674492-0.2717381,0.9565239-0.586998,1.3370018     c-0.1847649,0.2282181-0.4021683,0.3804054-0.6630287,0.4999542c-0.5978127,0.2500458-1.3586941,0.2282867-2.0217228,0.0869751     c-0.9456463-0.1956444-1.8912926-0.5760498-2.8478203-0.456501c-0.7282429,0.0977898-1.5000057,0.4673843-2.1413383,0.1195488     c-0.3369541-0.1847649-0.5542927-0.5325966-0.7391224-0.8695526c-1.1086502-1.9021721-2.2391281-4.1087265-1.5434608-6.1847839     c0.4348106-1.2717209,1.5217667-2.2825832,1.7826252-3.6087036c0.2608585-1.3912697-0.4456902-2.8152466-0.2500458-4.2282772     c0.1957111-1.3478165,1.2282677-2.445652,2.4348392-3.0869198c3.2064686-1.7174101,8.6630116-1.630435,11.913002-0.1739502     c0.4239273,0.1956444,0.8478584,0.4239292,1.0760765,0.815218     C34.3472786,18.4035244,34.3363991,18.9035473,34.3147049,19.3600521z" fill="#FFCE7B"/><path d="M25.3759766,36.277832c-0.4169922,0-0.7910156-0.059082-1.0458984-0.1132812     c-0.2587891-0.0537109-0.5214844-0.121582-0.7841797-0.1899414c-0.6650391-0.1723633-1.2949219-0.3359375-1.8974609-0.2597656     c-0.1816406,0.0244141-0.3691406,0.0688477-0.5576172,0.112793c-0.5859375,0.137207-1.2529297,0.2939453-1.8837891-0.0498047     c-0.4453125-0.2446289-0.7148438-0.6582031-0.9394531-1.0688477c-1.1591797-1.9897461-2.3398438-4.3144531-1.5791016-6.5834961     c0.2119141-0.621582,0.5537109-1.1669922,0.8847656-1.6943359c0.3876953-0.6196289,0.7539062-1.2045898,0.8818359-1.8525391     c0.1171875-0.6259766,0.0039062-1.2910156-0.1152344-1.9946289c-0.1210938-0.7109375-0.2451172-1.4462891-0.1396484-2.2060547     c0.1992188-1.3754883,1.2060547-2.6679688,2.6953125-3.4594727c3.2060547-1.7182617,8.75-1.8037109,12.3515625-0.1884766     c0.5068359,0.2338867,1.0107422,0.5170898,1.3037109,1.0195312c0.3144531,0.5517578,0.2832031,1.203125,0.2626953,1.6337891     c0,0.0004883,0,0.0009766,0,0.0014648l-0.1630859,3.2397461c-0.1171875,2.3852539-0.3681641,4.8540039-2,6.5205078     c-0.453125,0.4672852-0.9814453,0.8251953-1.4931641,1.171875c-0.3164062,0.2143555-0.6337891,0.4287109-0.9287109,0.6694336     c-0.9296875,0.75-1.6572266,1.7895508-2.0498047,2.9282227l-0.0615234,0.1953125     c-0.1318359,0.4208984-0.28125,0.8979492-0.6132812,1.2978516c-0.21875,0.2700195-0.4863281,0.4731445-0.8388672,0.6352539     C26.2412109,36.2202148,25.7871094,36.277832,25.3759766,36.277832z M21.9638672,34.6962891     c0.6357422,0,1.2431641,0.1572266,1.8330078,0.3105469c0.2470703,0.0639648,0.4931641,0.1279297,0.7392578,0.1787109     c0.6679688,0.1425781,1.2958984,0.121582,1.7265625-0.0585938c0.1953125-0.0898438,0.3447266-0.2006836,0.4677734-0.3530273     c0.2099609-0.2529297,0.3173828-0.5981445,0.4326172-0.9633789l0.0673828-0.2138672     c0.4560547-1.3222656,1.2958984-2.5219727,2.3681641-3.3867188c0.3154297-0.2578125,0.65625-0.4897461,0.9980469-0.7211914     c0.4902344-0.3325195,0.9541016-0.6464844,1.3369141-1.0419922c1.390625-1.4189453,1.6064453-3.5874023,1.71875-5.8720703     l0.1630859-3.2387695c0.0195312-0.4174805,0.0244141-0.8149414-0.1308594-1.0874023     c-0.1425781-0.2441406-0.4433594-0.4204102-0.8515625-0.6083984c-3.2919922-1.4760742-8.546875-1.4038086-11.4667969,0.1606445     c-1.2099609,0.6430664-2.0224609,1.6591797-2.1757812,2.7177734c-0.0839844,0.6040039,0.0224609,1.2324219,0.1357422,1.8979492     c0.1279297,0.7597656,0.2617188,1.5449219,0.1103516,2.3510742c-0.1640625,0.8330078-0.5966797,1.5253906-1.0166016,2.1943359     c-0.3134766,0.5014648-0.6103516,0.9750977-0.7851562,1.484375c-0.6259766,1.8696289,0.4472656,3.9589844,1.5029297,5.7705078     c0.1591797,0.2895508,0.3300781,0.5634766,0.5478516,0.6831055c0.296875,0.1601562,0.7050781,0.0639648,1.1777344-0.0458984     c0.2197266-0.0512695,0.4404297-0.1015625,0.65625-0.1308594C21.6689453,34.7045898,21.8173828,34.6962891,21.9638672,34.6962891     z M34.3144531,19.3598633h0.0097656H34.3144531z" fill="#383838"/></g><path d="M20.8632812,29.4716797c-0.0175781,0-0.0351562-0.0009766-0.0537109-0.0029297    c-0.2744141-0.0288086-0.4736328-0.2749023-0.4443359-0.5493164l0.3896484-3.7075195    C20.7851562,24.9287109,20.8232422,24.5776367,21,24.2548828c0.2626953-0.4790039,0.7177734-0.7177734,1.1191406-0.9282227    c0.0878906-0.0463867,0.1757812-0.0927734,0.2607422-0.1411133c0.8925781-0.5112305,1.5761719-1.7202148,1.171875-2.7041016    c-0.1044922-0.2558594,0.0175781-0.5478516,0.2734375-0.6523438c0.2529297-0.1049805,0.546875,0.0166016,0.6523438,0.2724609    c0.6298828,1.5375977-0.3183594,3.2167969-1.5996094,3.9511719c-0.0957031,0.0546875-0.1943359,0.1069336-0.2939453,0.1591797    c-0.3027344,0.1591797-0.5888672,0.309082-0.7070312,0.5244141c-0.0810547,0.1479492-0.1044922,0.3681641-0.1279297,0.5810547    l-0.3896484,3.706543C21.3330078,29.2807617,21.1152344,29.4716797,20.8632812,29.4716797z" fill="#383838"/><path d="M24.6972656,31.5327148c-0.09375,0-0.1875-0.0258789-0.2714844-0.0800781    c-0.2314453-0.1494141-0.2988281-0.4589844-0.1484375-0.690918L25.65625,28.628418    c0.2832031-0.4384766,0.6367188-0.984375,1.1982422-1.3120117c0.1396484-0.081543,0.2871094-0.1459961,0.4355469-0.2089844    c0.1220703-0.0522461,0.2451172-0.1020508,0.3564453-0.1728516c0.4082031-0.2587891,0.5888672-0.7949219,0.6679688-1.199707    c0.0498047-0.2592773,0.0771484-0.5229492,0.1035156-0.7861328c0.0361328-0.3457031,0.0722656-0.690918,0.1503906-1.0288086    c0.1728516-0.7563477,0.5410156-1.4580078,1.0644531-2.0297852c0.1884766-0.2036133,0.5048828-0.2158203,0.7070312-0.0307617    c0.203125,0.1865234,0.2177734,0.5029297,0.03125,0.706543c-0.4072266,0.4438477-0.6933594,0.9892578-0.828125,1.5776367    c-0.0683594,0.2983398-0.0986328,0.6030273-0.1298828,0.9072266c-0.0302734,0.293457-0.0615234,0.5869141-0.1181641,0.8759766    c-0.1669922,0.8564453-0.5517578,1.4970703-1.1132812,1.8525391c-0.1572266,0.0996094-0.328125,0.1748047-0.4990234,0.2480469    c-0.1103516,0.046875-0.2207031,0.0922852-0.3242188,0.152832c-0.3554688,0.2070312-0.625,0.6235352-0.8623047,0.9912109    l-1.3789062,2.1323242C25.0214844,31.4521484,24.8613281,31.5327148,24.6972656,31.5327148z" fill="#383838"/><g><path d="M49.0646477,37.0230942c-0.2173386,1.1848106-1.3151779,1.989151-2.4021339,2.5108681     c-1.0108604,0.4891434-2.0978165,0.8369789-3.2065353,0.923954c-0.8695488,0.0652122-1.7499809-0.0326424-2.5869598,0.184761     c-0.7825775,0.2174072-1.4782448,0.7065506-2.2608871,0.9238892c-0.9130096,0.250042-1.8912964,0.1196136-2.8369408-0.0108147     c-1.2391472-0.1739502-2.4782295-0.3587151-3.7173729-0.5326653c-0.380476-0.0543327-0.7826443-0.1086693-1.0978374-0.3369522     c-0.293499-0.2065239-0.4782639-0.5326004-0.7173634-0.8043404c-0.6739731-0.8260956-1.7935047-1.2717171-2.8586998-1.1412888     c-0.4348087,0.0543327-0.4456902-2.0217247-0.3478336-2.2608871c0.0434532-0.1086693,0.0977879-0.2065277,0.1738834-0.2934341     c0.3043785-0.4130478,0.815218-0.7283096,1.1848106-1.0435028c1.3912716-1.1630516,2.8695164-2.3043442,4.7282333-2.5760803     c1.336937-0.1956444,2.7282715,0.0869751,4.0326347-0.2826195c1.2717209-0.3695946,2.4130096-1.336937,3.7282524-1.2065067     c0.7173615,0.0652142,1.358696,0.4673824,1.9999619,0.8260975c0.1087379,0.0652142,0.2282867,0.1304283,0.336956,0.1847649     c1.2391472,0.6304512,2.6413612,0.9130058,3.8478661,1.5869789     C48.2711906,34.3600388,49.3146896,35.6643982,49.0646477,37.0230942z" fill="#FFCE7B"/><path d="M37.4423828,42.2080078c-0.5996094,0-1.1904297-0.081543-1.7392578-0.1572266l-3.71875-0.5327148     c-0.4384766-0.0625-0.9111328-0.1298828-1.3212891-0.4272461c-0.2558594-0.1791992-0.4384766-0.418457-0.6005859-0.6293945     c-0.0644531-0.0844727-0.1289062-0.1694336-0.1992188-0.2490234c-0.578125-0.7089844-1.5253906-1.0834961-2.4228516-0.9755859     c-0.2246094,0.0292969-0.4521484-0.0688477-0.6054688-0.2695312c-0.4248047-0.5541992-0.3935547-2.3642578-0.265625-2.6767578     c0.0654297-0.1660156,0.1513672-0.3095703,0.2607422-0.434082c0.2294922-0.3139648,0.5839844-0.5859375,0.8974609-0.8256836     c0.1181641-0.0913086,0.234375-0.1796875,0.3378906-0.2680664c1.4423828-1.2055664,3.0107422-2.402832,4.9814453-2.690918     c0.6025391-0.0883789,1.2060547-0.0834961,1.7900391-0.0820312c0.7626953,0.003418,1.4931641,0.0073242,2.1777344-0.1865234     c0.4150391-0.1206055,0.8222656-0.3149414,1.2539062-0.5205078c0.8251953-0.3930664,1.6728516-0.7988281,2.6611328-0.7026367     c0.7460938,0.0673828,1.3818359,0.4277344,1.9970703,0.7763672l0.1972656,0.1108398     c0.1103516,0.065918,0.21875,0.125,0.3164062,0.1738281c0.5546875,0.2822266,1.1376953,0.4892578,1.7548828,0.7084961     c0.7050781,0.2509766,1.4345703,0.5102539,2.1132812,0.8891602c1.3359375,0.7578125,2.546875,2.2480469,2.2480469,3.8740234l0,0     c-0.2109375,1.1538086-1.1123047,2.1201172-2.6777344,2.8720703c-1.15625,0.559082-2.2949219,0.8862305-3.3837891,0.9716797     c-0.3085938,0.0229492-0.6162109,0.0268555-0.9228516,0.0302734c-0.5576172,0.0058594-1.0849609,0.0117188-1.5771484,0.1396484     c-0.3408203,0.0947266-0.6806641,0.2573242-1.0410156,0.4291992c-0.3828125,0.1831055-0.7783203,0.3720703-1.2119141,0.4926758     C38.3125,42.1655273,37.875,42.2080078,37.4423828,42.2080078z M27.7451172,38.21875     c1.0966797,0,2.1923828,0.5029297,2.8808594,1.347168c0.0722656,0.0820312,0.1513672,0.1845703,0.2304688,0.2875977     c0.1289062,0.168457,0.2509766,0.328125,0.3867188,0.4233398c0.2158203,0.15625,0.5292969,0.2011719,0.8623047,0.2485352     l3.7353516,0.5351562c0.8896484,0.1225586,1.8085938,0.2495117,2.6357422,0.0234375     c0.3466797-0.0961914,0.6865234-0.2587891,1.046875-0.4306641c0.3828125-0.1831055,0.7783203-0.3720703,1.2119141-0.4926758     C41.3544922,40,41.9677734,39.9931641,42.5615234,39.9868164c0.2851562-0.003418,0.5722656-0.0063477,0.8574219-0.0273438     c0.9619141-0.0756836,1.9804688-0.3701172,3.0253906-0.8754883c1.2626953-0.605957,1.9775391-1.3295898,2.1279297-2.1508789     c0-0.0004883,0-0.0004883,0-0.0004883c0.2099609-1.1367188-0.7626953-2.2597656-1.7548828-2.8222656     c-0.6015625-0.3364258-1.2597656-0.5703125-1.9570312-0.8183594c-0.6201172-0.2202148-1.2617188-0.4482422-1.8701172-0.7578125     c-0.1162109-0.0581055-0.2480469-0.1298828-0.3671875-0.2016602l-0.1884766-0.105957     c-0.546875-0.3100586-1.0634766-0.6025391-1.5996094-0.6508789c-0.7070312-0.0649414-1.4013672,0.2597656-2.1357422,0.6098633     c-0.4492188,0.2138672-0.9130859,0.4350586-1.4082031,0.5786133c-0.8242188,0.2338867-1.65625,0.2314453-2.4599609,0.2255859     c-0.5712891-0.003418-1.1113281-0.0058594-1.6396484,0.0712891c-1.7138672,0.2509766-3.0966797,1.309082-4.4804688,2.465332     c-0.1123047,0.0961914-0.2421875,0.1958008-0.375,0.2983398C28.0625,36.0336914,27.7802734,36.25,27.6083984,36.4829102     c-0.0595703,0.0703125-0.0859375,0.1171875-0.1113281,0.1806641c-0.0488281,0.2294922-0.0166016,1.1572266,0.0849609,1.5585938     C27.6367188,38.2197266,27.6914062,38.21875,27.7451172,38.21875z M27.3193359,38.2441406     c0,0.0004883-0.0009766,0.0004883-0.0009766,0.0004883S27.3193359,38.2446289,27.3193359,38.2441406z" fill="#383838"/></g><path d="M33.2666016,36.715332c-0.1455078,0-0.2910156-0.0634766-0.3896484-0.1865234    c-0.1728516-0.2148438-0.1386719-0.5297852,0.0761719-0.7026367c0.9726562-0.7836914,2.1953125-1.2363281,3.4433594-1.2749023    c0.4960938-0.0083008,1.1064453,0.1518555,1.4453125,0.5576172c0.0390625,0.0458984,0.0732422,0.0942383,0.1025391,0.144043    c1.6201172-0.3647461,3.2802734-0.4868164,4.9414062-0.3637695c0.2753906,0.0205078,0.4824219,0.2602539,0.4619141,0.5356445    s-0.2626953,0.4829102-0.5361328,0.4614258c-1.7265625-0.128418-3.4462891,0.0253906-5.1171875,0.4560547    c-0.1699219,0.0405273-0.3466797-0.0039062-0.4707031-0.1230469c-0.125-0.1196289-0.1796875-0.2954102-0.1435547-0.4643555    c-0.0361328-0.0727539-0.3652344-0.206543-0.6523438-0.2041016c-1.0322266,0.0322266-2.0429688,0.40625-2.8476562,1.0541992    C33.4882812,36.6791992,33.3769531,36.715332,33.2666016,36.715332z" fill="#383838"/><path d="M37.0136719,39.1474609c-0.2158203,0-0.4140625-0.1401367-0.4794922-0.3569336    c-0.0791016-0.2646484,0.0712891-0.5429688,0.3359375-0.6220703c1.1708984-0.3496094,2.375-0.6323242,3.578125-0.8393555    c0.3808594-0.0654297,0.7841797-0.1166992,1.1875,0.0380859c0.09375,0.0366211,0.1835938,0.0834961,0.2724609,0.1318359    c0.0693359,0.0380859,0.1347656,0.0737305,0.1787109,0.0849609c0.1621094,0.043457,0.3769531-0.1621094,0.6796875-0.4799805    c0.3505859-0.3681641,0.7871094-0.8261719,1.4160156-0.8505859c0.0068359-0.0004883,0.0136719-0.0004883,0.0195312-0.0004883    c0.2675781,0,0.4892578,0.2114258,0.5,0.4804688c0.0107422,0.2758789-0.2050781,0.5083008-0.4804688,0.519043    c-0.2236328,0.0087891-0.4814453,0.2792969-0.7304688,0.5415039c-0.3828125,0.4023438-0.9091797,0.9501953-1.6572266,0.7578125    c-0.1621094-0.0424805-0.2958984-0.1157227-0.4042969-0.1743164c-0.0498047-0.0273438-0.0996094-0.0561523-0.1533203-0.0766602    c-0.1660156-0.0644531-0.40625-0.0307617-0.6582031,0.0136719c-1.1640625,0.2006836-2.3291016,0.4736328-3.4609375,0.8120117    C37.109375,39.140625,37.0605469,39.1474609,37.0136719,39.1474609z" fill="#383838"/><path d="M36.0029297,28.9130859c-0.0048828,0-0.0107422,0-0.015625-0.0004883    c-0.2763672-0.0083008-0.4931641-0.2392578-0.484375-0.515625c0.0498047-1.5625,0.9101562-3.0395508,2.2441406-3.8540039    c0.1982422-0.1210938,0.40625-0.2275391,0.6142578-0.3334961c0.3203125-0.1625977,0.6220703-0.3164062,0.8652344-0.5224609    c0.0908203-0.0771484,0.1767578-0.1630859,0.2636719-0.2490234c0.2402344-0.2387695,0.5117188-0.5097656,0.8974609-0.6547852    c0.1572266-0.0595703,0.3242188-0.0908203,0.4912109-0.1196289c0.0976562-0.0166016,0.1962891-0.03125,0.2900391-0.0634766    c0.3378906-0.1162109,0.5839844-0.4936523,0.8447266-0.8935547l0.1396484-0.2114258    c0.5703125-0.847168,1.3027344-1.2441406,2-1.0878906c0.2695312,0.0600586,0.4394531,0.3271484,0.3798828,0.5966797    c-0.0595703,0.269043-0.3222656,0.4438477-0.5966797,0.3789062c-0.3251953-0.0698242-0.703125,0.300293-0.953125,0.6708984    l-0.1318359,0.199707c-0.3261719,0.4990234-0.6953125,1.0644531-1.3574219,1.2924805    c-0.1455078,0.0498047-0.2958984,0.0776367-0.4462891,0.1035156c-0.1044922,0.0175781-0.2089844,0.0322266-0.3076172,0.0698242    c-0.1845703,0.0693359-0.3515625,0.2353516-0.5449219,0.4277344c-0.1054688,0.1044922-0.2109375,0.2084961-0.3222656,0.3032227    c-0.3320312,0.28125-0.7011719,0.4692383-1.0576172,0.6503906c-0.1855469,0.0942383-0.3701172,0.1879883-0.546875,0.2958984    c-1.0341797,0.6313477-1.7275391,1.8212891-1.765625,3.0327148C36.4941406,28.699707,36.2724609,28.9130859,36.0029297,28.9130859    z" fill="#383838"/><path d="M39.7041016,29.7529297c-0.0361328,0-0.0712891-0.003418-0.1074219-0.0112305    c-0.2695312-0.059082-0.4404297-0.3251953-0.3818359-0.5952148c0.1845703-0.8500977,0.7119141-1.6079102,1.4462891-2.0786133    c0.2333984-0.1494141,0.4941406-0.2763672,0.7539062-0.4013672c0.5263672-0.2529297,0.9804688-0.4711914,1.1171875-0.8623047    c0.0898438-0.2602539,0.375-0.3984375,0.6367188-0.3071289c0.2607422,0.0913086,0.3984375,0.3764648,0.3066406,0.637207    c-0.2734375,0.7827148-0.9921875,1.128418-1.6269531,1.4331055c-0.2236328,0.1074219-0.4482422,0.2143555-0.6484375,0.3422852    c-0.5039062,0.3237305-0.8818359,0.8652344-1.0087891,1.449707C40.140625,29.5932617,39.9335938,29.7529297,39.7041016,29.7529297    z" fill="#383838"/></g></g></svg>