<?xml version="1.0" ?><svg enable-background="new 0 0 64 64" height="64px" version="1.1" viewBox="0 0 64 64" width="64px" xml:space="preserve" xmlns="http://www.w3.org/2000/svg" xmlns:xlink="http://www.w3.org/1999/xlink"><g id="Guide"/><g id="Layer_1"><g><g><path d="M50.5335197,57.4368477H13.4664812c-2.052556,0-3.7164812-1.6639252-3.7164812-3.7164803v-27.854147     c0-2.0525551,1.6639252-3.7164803,3.7164812-3.7164803h37.0670395c2.0525551,0,3.7164803,1.6639252,3.7164803,3.7164803     v27.854147C54.25,55.7729225,52.5860748,57.4368477,50.5335197,57.4368477z" fill="#FFCE7B"/><path d="M50.5332031,57.9370117H13.4667969c-2.3251953,0-4.2167969-1.8916016-4.2167969-4.2167969V25.8662109     c0-2.324707,1.8916016-4.2163086,4.2167969-4.2163086h37.0664062c2.3251953,0,4.2167969,1.8916016,4.2167969,4.2163086     v27.8540039C54.75,56.0454102,52.8583984,57.9370117,50.5332031,57.9370117z M13.4667969,22.6499023     c-1.7734375,0-3.2167969,1.4428711-3.2167969,3.2163086v27.8540039c0,1.7739258,1.4433594,3.2167969,3.2167969,3.2167969     h37.0664062c1.7734375,0,3.2167969-1.4428711,3.2167969-3.2167969V25.8662109     c0-1.7734375-1.4433594-3.2163086-3.2167969-3.2163086H13.4667969z" fill="#383838"/></g><g><path d="M54.25,43.965168H36.1718712C33.8678093,43.965168,32,42.0973587,32,39.7932968v-0.0000076     c0-2.3040581,1.8678093-4.1718712,4.1718712-4.1718712H54.25V43.965168z" fill="#BF9B5C"/><path d="M54.75,44.465332H36.171875c-2.5761719,0-4.671875-2.0957031-4.671875-4.671875     s2.0957031-4.671875,4.671875-4.671875H54.75V44.465332z M36.171875,36.121582     c-2.0244141,0-3.671875,1.6469727-3.671875,3.671875s1.6474609,3.671875,3.671875,3.671875H53.75v-7.34375H36.171875z" fill="#383838"/></g><path d="M36.5849609,42.3574219c-1.4140625,0-2.5644531-1.1503906-2.5644531-2.5639648    c0-1.4140625,1.1503906-2.5644531,2.5644531-2.5644531s2.5644531,1.1503906,2.5644531,2.5644531    C39.1494141,41.2070312,37.9990234,42.3574219,36.5849609,42.3574219z M36.5849609,38.2290039    c-0.8623047,0-1.5644531,0.7016602-1.5644531,1.5644531c0,0.8623047,0.7021484,1.5639648,1.5644531,1.5639648    s1.5644531-0.7016602,1.5644531-1.5639648C38.1494141,38.9306641,37.4472656,38.2290039,36.5849609,38.2290039z" fill="#383838"/><g><polygon fill="#7BBF66" points="51.2949219,15.8339844 11.7779951,18.9918613 11.7779951,22.1497402 51.2949219,22.1497402         "/><path d="M51.2949219,22.6499023H11.7783203c-0.2763672,0-0.5-0.2236328-0.5-0.5v-3.1582031     c0-0.2607422,0.2001953-0.4775391,0.4599609-0.4985352l39.5166016-3.1577148     c0.1386719-0.0068359,0.2763672,0.0361328,0.3789062,0.1313477c0.1025391,0.0942383,0.1611328,0.2275391,0.1611328,0.3671875     v6.315918C51.7949219,22.4262695,51.5712891,22.6499023,51.2949219,22.6499023z M12.2783203,21.6499023h38.5166016v-5.2744141     L12.2783203,19.453125V21.6499023z" fill="#383838"/></g><g><polygon fill="#5C8F4D" points="47.4707031,9.6920576 11.7779951,18.9918613 47.4707031,16.1395855    "/><path d="M11.7783203,19.4916992c-0.2421875,0-0.4521484-0.1743164-0.4931641-0.4165039     c-0.0429688-0.2558594,0.1162109-0.5019531,0.3671875-0.5673828l35.6923828-9.2998047     c0.1513672-0.0405273,0.3076172-0.0063477,0.4316406,0.0883789c0.1230469,0.0947266,0.1943359,0.2407227,0.1943359,0.3955078     v6.4477539c0,0.2607422-0.2001953,0.4775391-0.4599609,0.4985352l-35.6923828,2.8520508     C11.8046875,19.4912109,11.7910156,19.4916992,11.7783203,19.4916992z M46.9707031,10.3388672l-29.5556641,7.7006836     l29.5556641-2.3613281V10.3388672z" fill="#383838"/></g><g><polygon fill="#5C8F4D" points="38.6489258,6.5631509 11.7779951,18.9918613 38.6489258,11.9905882    "/><path d="M11.7783203,19.4916992c-0.2070312,0-0.3984375-0.128418-0.4707031-0.331543     c-0.0869141-0.2436523,0.0253906-0.5136719,0.2607422-0.6220703L38.4394531,6.109375     c0.1533203-0.0722656,0.3349609-0.0605469,0.4794922,0.0322266c0.1435547,0.0917969,0.2304688,0.2509766,0.2304688,0.4213867     v5.4277344c0,0.2275391-0.1533203,0.4262695-0.3740234,0.4838867l-26.8710938,7.0009766     C11.8623047,19.4863281,11.8203125,19.4916992,11.7783203,19.4916992z M38.1494141,7.3452148l-21.0859375,9.7529297     l21.0859375-5.4936523V7.3452148z" fill="#383838"/></g></g></g></svg>