<?xml version="1.0" ?><svg enable-background="new 0 0 64 64" height="64px" version="1.1" viewBox="0 0 64 64" width="64px" xml:space="preserve" xmlns="http://www.w3.org/2000/svg" xmlns:xlink="http://www.w3.org/1999/xlink"><g id="Guide"/><g id="Layer_1"><g><path d="M35.8490715,31.5283012l2.6320572-2.6320534v17.0943336    c0,0.7263756-0.5943451,1.3207207-1.3113365,1.3207207c-0.7263756,0-1.3207207-0.5943451-1.3207207-1.3207207V31.5283012z" fill="#C6C6C6"/><path d="M37.1699219,47.8115234c-1.0039062,0-1.8212891-0.8168945-1.8212891-1.8208008V31.5283203    c0-0.1328125,0.0527344-0.2597656,0.1464844-0.3535156l2.6328125-2.6318359    c0.1425781-0.1430664,0.359375-0.1860352,0.5449219-0.1083984c0.1865234,0.0776367,0.3085938,0.2597656,0.3085938,0.4619141    v17.0942383C38.9814453,46.9946289,38.1689453,47.8115234,37.1699219,47.8115234z M36.3486328,31.7353516v14.2553711    c0,0.4526367,0.3681641,0.8208008,0.8212891,0.8208008c0.4394531,0,0.8115234-0.3759766,0.8115234-0.8208008V30.1030273    L36.3486328,31.7353516z" fill="#383838"/></g><g><path d="M40.7547455,19.867939L34.06604,26.5565853c-0.6603889-1.0094414-1.0660439-2.3396034-1.0660439-3.801857    c0-3.1509686,1.8679085-5.6981506,4.169796-5.6981506C38.6980896,17.0565777,40.0283127,18.1792221,40.7547455,19.867939z" fill="#C6C6C6"/><path d="M34.0664062,27.0566406c-0.0166016,0-0.0341797-0.0009766-0.0517578-0.0024414    c-0.1494141-0.015625-0.2841797-0.0976562-0.3662109-0.2236328C32.9082031,25.7001953,32.5,24.2529297,32.5,22.7548828    c0-3.4174805,2.0947266-6.1982422,4.6699219-6.1982422c1.6933594,0,3.2050781,1.1640625,4.0439453,3.1137695    c0.0810547,0.1879883,0.0390625,0.4067383-0.1054688,0.5512695l-6.6884766,6.6884766    C34.3261719,27.0043945,34.1982422,27.0566406,34.0664062,27.0566406z M37.1699219,17.5566406    c-2.0234375,0-3.6699219,2.3320312-3.6699219,5.1982422c0,1.0742188,0.2363281,2.112793,0.6738281,2.9868164l5.9804688-5.9804688    C39.4638672,18.3745117,38.3662109,17.5566406,37.1699219,17.5566406z" fill="#383838"/></g><path d="M30.6884766,25.378418c-0.2763672,0-0.5-0.2236328-0.5-0.5v-7.5864258c0-0.2763672,0.2236328-0.5,0.5-0.5   s0.5,0.2236328,0.5,0.5v7.5864258C31.1884766,25.1547852,30.9648438,25.378418,30.6884766,25.378418z" fill="#383838"/><path d="M28.1191406,25.378418c-0.2763672,0-0.5-0.2236328-0.5-0.5v-7.5864258c0-0.2763672,0.2236328-0.5,0.5-0.5   s0.5,0.2236328,0.5,0.5v7.5864258C28.6191406,25.1547852,28.3955078,25.378418,28.1191406,25.378418z" fill="#383838"/><path d="M25.5498047,25.378418c-0.2763672,0-0.5-0.2236328-0.5-0.5v-7.5864258c0-0.2763672,0.2236328-0.5,0.5-0.5   s0.5,0.2236328,0.5,0.5v7.5864258C26.0498047,25.1547852,25.8261719,25.378418,25.5498047,25.378418z" fill="#383838"/><path d="M22.9814453,25.378418c-0.2763672,0-0.5-0.2236328-0.5-0.5v-7.5864258c0-0.2763672,0.2236328-0.5,0.5-0.5   s0.5,0.2236328,0.5,0.5v7.5864258C23.4814453,25.1547852,23.2578125,25.378418,22.9814453,25.378418z" fill="#383838"/><g><path d="M25.5188732,41.8585014l2.6320534-2.6321106v6.7641907    c0,0.7263756-0.5943432,1.3207207-1.3207188,1.3207207c-0.7169914,0-1.3113346-0.5943451-1.3113346-1.3207207V41.8585014z" fill="#C6C6C6"/><path d="M26.8300781,47.8115234c-0.9990234,0-1.8115234-0.8168945-1.8115234-1.8208008v-4.1323242    c0-0.1328125,0.0527344-0.2597656,0.1464844-0.3535156l2.6328125-2.6318359    c0.1435547-0.1430664,0.359375-0.1870117,0.5449219-0.1083984c0.1865234,0.0776367,0.3085938,0.2597656,0.3085938,0.4619141    v6.7641602C28.6513672,46.9946289,27.8339844,47.8115234,26.8300781,47.8115234z M26.0185547,42.0654297v3.925293    c0,0.4448242,0.3720703,0.8208008,0.8115234,0.8208008c0.453125,0,0.8212891-0.3681641,0.8212891-0.8208008v-5.5576172    L26.0185547,42.0654297z" fill="#383838"/></g><g><path d="M30.6886654,24.8773708c-0.4528122,1.5377388-1.3773212,2.7546997-2.5377388,3.282999v4.3113289    l-2.6320534,2.6320534v-6.9433823c-1.1603603-0.5282993-2.0849266-1.7452602-2.5377388-3.282999H30.6886654z" fill="#C6C6C6"/><path d="M25.5185547,35.6035156c-0.0644531,0-0.1298828-0.012207-0.1914062-0.0380859    c-0.1865234-0.0776367-0.3085938-0.2597656-0.3085938-0.4619141v-6.6367188    c-1.1474609-0.6416016-2.0556641-1.8789062-2.5166016-3.4482422c-0.0449219-0.1513672-0.015625-0.3144531,0.0791016-0.4404297    c0.0947266-0.1264648,0.2431641-0.2006836,0.4003906-0.2006836h7.7070312c0.1572266,0,0.3056641,0.0742188,0.4003906,0.2006836    c0.0947266,0.1259766,0.1240234,0.2890625,0.0791016,0.4404297c-0.4609375,1.5693359-1.3691406,2.8066406-2.5166016,3.4482422    v4.0048828c0,0.1328125-0.0527344,0.2597656-0.1464844,0.3535156l-2.6328125,2.6318359    C25.7763672,35.5527344,25.6484375,35.6035156,25.5185547,35.6035156z M23.6865234,25.3774414    c0.4560547,1.1040039,1.1777344,1.9355469,2.0390625,2.3276367c0.1787109,0.0810547,0.2929688,0.2592773,0.2929688,0.4550781    v5.7368164l1.6328125-1.6323242v-4.1044922c0-0.1958008,0.1142578-0.3740234,0.2929688-0.4550781    c0.8613281-0.3920898,1.5830078-1.2236328,2.0390625-2.3276367H23.6865234z" fill="#383838"/></g><g><path d="M32,7C18.1900024,7,7,18.1900024,7,32s11.1900024,25,25,25s25-11.1900024,25-25S45.8099976,7,32,7z     M11.7641392,32c0-11.1792221,9.0566387-20.2358608,20.2358608-20.2358608c4.7264252,0,9.0660248,1.6321144,12.5094414,4.3490429    l-3.7546959,3.7547569L34.06604,26.5565853l-17.952858,17.9528561C13.3962536,41.0660248,11.7641392,36.7264252,11.7641392,32z     M32,52.2358589c-4.7264252,0-9.0660248-1.6321144-12.5094433-4.349041l6.0283165-6.0283165l2.6320534-2.6321106    l7.6981449-7.6980896l12.0377464-12.0377445C50.6037445,22.9339752,52.2358589,27.2735748,52.2358589,32    C52.2358589,43.1792221,43.1792221,52.2358589,32,52.2358589z" fill="#FF6456"/><path d="M32,57.5C17.9394531,57.5,6.5,46.0605469,6.5,32S17.9394531,6.5,32,6.5S57.5,17.9394531,57.5,32    S46.0605469,57.5,32,57.5z M32,7.5C18.4902344,7.5,7.5,18.4907227,7.5,32S18.4902344,56.5,32,56.5S56.5,45.5092773,56.5,32    S45.5097656,7.5,32,7.5z M32,52.7358398c-4.6914062,0-9.1240234-1.5410156-12.8193359-4.456543    c-0.1123047-0.0883789-0.1816406-0.2207031-0.1894531-0.3632812c-0.0087891-0.1425781,0.0449219-0.2817383,0.1455078-0.3828125    L47.5332031,19.137207c0.1005859-0.1015625,0.2363281-0.1547852,0.3828125-0.1455078    C48.0585938,19,48.1904297,19.0688477,48.2792969,19.1811523C51.1953125,22.8764648,52.7363281,27.3095703,52.7363281,32    C52.7363281,43.4335938,43.4335938,52.7358398,32,52.7358398z M20.2470703,47.8369141    C23.671875,50.3901367,27.7226562,51.7358398,32,51.7358398c10.8828125,0,19.7363281-8.8535156,19.7363281-19.7358398    c0-4.2763672-1.3457031-8.3271484-3.8994141-11.7524414L20.2470703,47.8369141z M16.1132812,45.0092773    c-0.0097656,0-0.0195312-0.0004883-0.0292969-0.0009766C15.9414062,45,15.8095703,44.9311523,15.7207031,44.8188477    C12.8046875,41.1235352,11.2636719,36.6904297,11.2636719,32c0-11.4335938,9.3027344-20.7358398,20.7363281-20.7358398    c4.6914062,0,9.1240234,1.5410156,12.8193359,4.456543c0.1123047,0.0883789,0.1816406,0.2207031,0.1894531,0.3632812    c0.0087891,0.1425781-0.0449219,0.2817383-0.1455078,0.3828125L16.4667969,44.862793    C16.3730469,44.9570312,16.2451172,45.0092773,16.1132812,45.0092773z M32,12.2641602    c-10.8828125,0-19.7363281,8.8535156-19.7363281,19.7358398c0,4.2763672,1.3457031,8.3271484,3.8994141,11.7524414    l27.5898438-27.5893555C40.328125,13.6098633,36.2773438,12.2641602,32,12.2641602z" fill="#383838"/></g></g></svg>