<?xml version="1.0" ?><!DOCTYPE svg  PUBLIC '-//W3C//DTD SVG 1.1//EN'  'http://www.w3.org/Graphics/SVG/1.1/DTD/svg11.dtd'><svg enable-background="new 0 0 1010 1010" id="mail-heart-note" version="1.1" viewBox="0 0 1010 1010" xml:space="preserve" xmlns="http://www.w3.org/2000/svg" xmlns:xlink="http://www.w3.org/1999/xlink"><g id="mail-heart-note-label"><path d="M505,0C226.106,0,0,226.1157,0,504.9805C0,783.8945,226.106,1010,505,1010   c278.875,0,505-226.1055,505-505.0195C1010,226.1157,783.875,0,505,0z" fill="#F6BBBB"/></g><g id="mail-heart-note-mail-heart-note"><g><path d="M244.9448,449.6274L466.4941,603.751l-11.1455,7.6933    c-59.4956,41.0118-156.205,120.5197-195.0171,152.8018l-15.3867,12.8027V449.6274z" fill="#FED78F"/><path d="M244.8262,777.0879l20.0224-16.5996c39.4043-32.6865,137.2578-112.9444,194.6324-151.8946    c12.9799-8.8076,28.2387-13.4531,44.1381-13.4531l0,0c15.8799,0,31.0098,4.6358,43.7735,13.4043l217.6631,168.543H244.8262z" fill="#FED78F"/><polygon fill="#FED78F" points="542.293,604.5996 765.0557,449.6274 765.0557,777.0879   "/><polygon fill="#F05354" points="726.5195,407.6987 767.5996,447.8521 726.5195,476.416   "/><path d="M536.8779,602.6465c-10.2675-4.8036-21.7578-7.3379-33.2392-7.3379    c-10.9082,0-21.9258,2.2978-31.8482,6.6572l-4.8134,2.1104L281.6563,475.1533l1.6469-6.332l0.1675,0.0298v-235.94h443.0488    v235.3677l1.4395,5.8491l-4.9902,4.7735L541.7705,604.9443L536.8779,602.6465z" fill="#FFFFFF"/><polygon fill="#F05354" points="242.4004,447.8521 283.4707,407.6787 283.4707,476.416   "/><path d="M449.4404,501.8242c-11.8457-10.4355-19.8945-23.416-23.3662-37.5791    c-2.1108-8.7392-1.7163-14.4004-1.5488-15.9297c2.1601-22.7544,18.001-44.9863,44.2959-44.9863    c17.5371,0,33.4565,10.416,40.5381,26.5127c7.2304-16.5898,21.9853-26.5127,39.4726-26.5127    c25.418,0,40.213,20.5156,43.6162,40.834l0.128,0.7695v10.6328l0.2265,2.0313l-0.1572,1.1445    c-0.2568,1.6572-0.5625,3.4126-1.0557,5.4639c-3.4921,14.2627-11.5595,27.2427-23.3261,37.5498l-58.9043,51.6543    L449.4404,501.8242z" fill="#F05354"/></g><g><path d="M774.9082,778.3018c0.0498-0.4151,0.2471-0.7793,0.2471-1.2139V445.3467    c0-2.7222-1.0948-5.3262-3.0381-7.2197l-35.4981-34.6797V232.9111c0-5.582-4.5273-10.0996-10.0996-10.0996H283.4707    c-5.5776,0-10.0996,4.5176-10.0996,10.0996v170.5166l-35.4883,34.6993c-1.9433,1.8935-3.0381,4.4975-3.0381,7.2197v331.7412    c0,0.4941,0.2119,0.9082,0.2764,1.3809c0.0986,0.7011,0.1728,1.3808,0.4141,2.0517c0.2519,0.6807,0.6411,1.2627,1.021,1.8643    c0.2514,0.3945,0.3549,0.8486,0.6655,1.2129c0.0937,0.1093,0.2319,0.1582,0.3305,0.2666c0.4883,0.5322,1.0899,0.9072,1.6817,1.332    c0.4932,0.3447,0.937,0.749,1.4746,0.9961c0.5474,0.2568,1.1489,0.3349,1.7456,0.4931c0.6904,0.1778,1.3516,0.3848,2.0615,0.4141    c0.1533,0.0098,0.2764,0.0889,0.4292,0.0889h520.1108c1.4892,0,2.8798-0.3653,4.1523-0.9473    c0.3447-0.1572,0.6211-0.4336,0.9561-0.6406c0.9082-0.5527,1.7462-1.1738,2.4464-1.9824    c0.1181-0.1387,0.3154-0.1875,0.4344-0.3457c0.2559-0.335,0.3253-0.7393,0.5322-1.0948c0.3653-0.6015,0.6905-1.1836,0.9268-1.8545    C774.7314,779.6523,774.8301,778.9922,774.9082,778.3018z M255.0449,468.9595l193.71,134.7524    c-59.5401,41.169-155.4209,119.957-193.71,151.7861V468.9595z M465.1523,616.9482c23.0557-15.6435,53.9717-15.5546,76.4903-0.0986    l193.872,150.1387H272.8232C314.8506,732.1318,409.1045,654.9805,465.1523,616.9482z M559.3467,605.0332l195.6084-136.0737    v287.5346L559.3467,605.0332z M751.8184,446.5303l-15.1993,10.5732v-25.4272L751.8184,446.5303z M293.5708,243.0117h422.8491    v225.8692c0,0.7099,0.2656,1.3212,0.4044,1.9921L540.7539,593.3555c-22.8926-10.5938-49.5132-10.8106-72.6328-0.7891    L293.1714,470.8633c0.1333-0.6612,0.3994-1.2822,0.3994-1.9824V243.0117z M273.3711,457.0937l-15.1846-10.5634l15.1846-14.854    V457.0937z" fill="#313233"/><path d="M442.7627,509.4082l60.0083,51.6543c1.894,1.6279,4.2407,2.4463,6.5884,2.4463    c2.3769,0,4.7539-0.8389,6.6582-2.5049l58.9033-51.6543c13.3252-11.6782,22.4883-26.4531,26.4834-42.7475    c2.6426-10.938,1.9922-18.0005,1.627-20.3677c-0.0694-0.6807-0.2667-1.292-0.3555-1.9532V321.7896    c12.6943,8.788,31.3955,26.3544,37.0371,50.6772c1.0752,4.6655,5.2275,7.8218,9.8242,7.8218c0.749,0,1.5186-0.0786,2.2881-0.2564    c5.4346-1.2627,8.8174-6.6875,7.5547-12.122c-8.2451-35.587-38.7031-61.0635-56.7041-69.3682v-13.7891    c17.3496,9.7154,62.1885,40.5283,62.3555,78.2652c0.0302,5.563,4.5478,10.0503,10.1005,10.0503c0.0098,0,0.0293,0,0.0498,0    c5.5723-0.0293,10.0801-4.5664,10.0508-10.149c-0.0995-22.4389-10.8994-44.4536-32.0956-65.4428    c-18.2275-18.0498-46.3867-35.6363-54.1689-35.6363c-0.0098,0-0.0205,0-0.0205,0c-9.1133,0.0493-16.501,7.2202-16.4707,15.9488    v127.9668c-9.2227-7.8121-20.7823-12.5264-33.6446-12.5264c-15.5439,0-29.6777,6.6475-39.5957,18.0395    c-10.1494-11.2836-24.7568-18.0395-40.415-18.0395c-28.4258,0-51.1655,22.2612-54.1983,52.9951    c-0.3603,2.3574-1.0209,9.4292,1.6373,20.3975C420.2104,482.7979,429.3438,497.563,442.7627,509.4082z M434.5518,449.4893    c0.0688-0.335,0.1181-0.6709,0.1474-1.0157c1.6231-17.4189,13.8682-35.0444,34.1221-35.0444    c13.5278,0,25.8125,8.0386,31.2964,20.4858c1.6128,3.6592,5.2378,6.0264,9.2417,6.0264c0,0,0.0156,0,0.0195,0    c4.0098-0.0098,7.6348-2.3867,9.2324-6.0654c5.5928-12.8028,16.8858-20.4468,30.2207-20.4468    c18.9776,0,30.7832,15.4165,33.6446,32.3218v10.7807c0,0.2862,0.1378,0.523,0.1671,0.7989    c-0.2168,1.3711-0.4532,2.8012-0.8682,4.4878c-2.9981,12.2207-9.9707,23.4057-20.1699,32.3418l-52.3047,45.874l-53.2666-45.8545    c-10.2139-9.0147-17.1821-20.1997-20.146-32.3316c-1.9136-7.9008-1.3267-12.3686-1.3267-12.3686    S434.5566,449.4893,434.5518,449.4893z" fill="#313233"/></g></g></svg>