<?xml version="1.0" ?><svg enable-background="new 0 0 100 100" id="Livello_1" version="1.1" viewBox="0 0 100 100" xml:space="preserve" xmlns="http://www.w3.org/2000/svg" xmlns:xlink="http://www.w3.org/1999/xlink"><path d="M78.142,15.358H21.858c-3.584,0-6.5,2.916-6.5,6.5v56.284c0,3.584,2.916,6.5,6.5,6.5h56.284c3.584,0,6.5-2.916,6.5-6.5  V21.858C84.642,18.274,81.726,15.358,78.142,15.358z M83.642,78.142c0,3.033-2.467,5.5-5.5,5.5H21.858c-3.033,0-5.5-2.467-5.5-5.5  V21.858c0-3.033,2.467-5.5,5.5-5.5h56.284c3.033,0,5.5,2.467,5.5,5.5V78.142z"/><path d="M66.758,32.889c-4.327-4.227-10.242-6.84-16.758-6.84c-3.191,0-6.236,0.631-9.023,1.766  c-0.015,0.005-0.028,0.011-0.042,0.017C32.193,31.409,26.017,39.996,26.017,50c0,7.341,3.327,13.919,8.552,18.316  c0.008,0.007,0.016,0.015,0.024,0.021c4.171,3.501,9.545,5.615,15.407,5.615c3.609,0,7.032-0.805,10.105-2.238  c0.009-0.005,0.018-0.007,0.027-0.012c8.173-3.821,13.85-12.11,13.85-21.702C73.983,43.301,71.212,37.24,66.758,32.889  C66.759,32.889,66.758,32.889,66.758,32.889z M50,27.048c6.085,0,11.621,2.378,15.736,6.247c-2.946,5.224-8.112,8.462-13.773,10.491  c-4.183-8.19-8.567-13.624-9.99-15.291C44.473,27.562,47.177,27.048,50,27.048z M40.991,28.887  c1.061,1.215,5.643,6.689,10.023,15.23c-7.764,2.58-16.255,3.013-21.11,3.259c-1.101,0.056-2.02,0.103-2.752,0.162  C28.052,39.141,33.505,32.085,40.991,28.887z M27.017,50c0-0.487,0.021-0.97,0.051-1.449c0.739-0.065,1.701-0.115,2.886-0.175  c4.945-0.251,13.587-0.692,21.518-3.358c0.884,1.774,1.751,3.677,2.576,5.691c-2.22,0.584-4.359,1.425-6.406,2.542  c-7.61,4.152-11.83,10.927-12.979,13.825C29.973,62.871,27.017,56.775,27.017,50z M50,72.952c-5.507,0-10.567-1.946-14.529-5.184  c0.829-2.423,5.024-9.478,12.65-13.64c2.011-1.098,4.117-1.919,6.305-2.483c2.235,5.649,4.088,12.156,4.914,19.318  C56.483,72.237,53.324,72.952,50,72.952z M60.29,70.514c-0.848-7.069-2.679-13.503-4.886-19.108  c5.339-1.169,11.173-0.781,17.431,1.161C71.955,60.431,67.081,67.103,60.29,70.514z M72.925,51.55  c-6.418-1.96-12.41-2.328-17.901-1.09c-0.833-2.042-1.709-3.975-2.603-5.776c5.722-2.071,10.967-5.368,14.052-10.667  c4.025,4.136,6.511,9.774,6.511,15.983C72.983,50.522,72.959,51.037,72.925,51.55z"/></svg>