<?xml version="1.0" ?><!DOCTYPE svg  PUBLIC '-//W3C//DTD SVG 1.1//EN'  'http://www.w3.org/Graphics/SVG/1.1/DTD/svg11.dtd'><svg enable-background="new 0 0 512 512" id="Layer_1" version="1.1" viewBox="0 0 512 512" xml:space="preserve" xmlns="http://www.w3.org/2000/svg" xmlns:xlink="http://www.w3.org/1999/xlink"><g><path d="M265.1,76.7v52.7c15.3-0.3,30.2-1.1,44.1-2.6C299,100.4,283.1,81.5,265.1,76.7z"/><path d="M314.7,144.4c-15.6,1.8-32.4,2.8-49.7,3.1v36.9h55.6C320,170.3,318,156.8,314.7,144.4z"/><path d="M246.9,129.4V76.7c-18,4.8-33.9,23.7-44.1,50.1C216.8,128.3,231.6,129.2,246.9,129.4z"/><path d="M246.9,147.5c-17.3-0.3-34.1-1.3-49.7-3.1c-3.2,12.4-5.3,25.9-5.9,40h55.6V147.5z"/><path d="M246.9,202.5h-55.6c0.6,14.1,2.7,27.5,5.9,39.9c15.6-1.8,32.4-2.8,49.7-3.1V202.5z"/><path d="M368.2,253c8.1-15.2,13.2-32.3,14.5-50.5h-43.9c-0.6,15-2.6,29.2-5.8,42.4c12.3,2,23.6,4.4,33.3,7.3   C367,252.4,367.6,252.7,368.2,253z"/><path d="M145.7,252.2c9.7-2.9,21-5.3,33.3-7.3c-3.2-13.2-5.2-27.4-5.8-42.4h-43.9c1.3,18.2,6.4,35.3,14.5,50.5   C144.4,252.7,145,252.4,145.7,252.2z"/><path d="M179,141.9c-12.3-2-23.5-4.4-33.2-7.3c-0.7-0.2-1.4-0.5-2-0.9c-8.1,15.3-13.2,32.4-14.5,50.6h43.9   C173.8,169.4,175.8,155.1,179,141.9z"/><path d="M327.8,124.4c11.2-1.7,21.5-3.9,30.4-6.4c-15.8-21.3-38-37.6-63.9-45.7C308.4,84.1,320,102.2,327.8,124.4z"/><path d="M246.9,310.2v-52.8c-15.3,0.3-30.2,1.1-44.1,2.6C213,286.5,228.9,305.4,246.9,310.2z"/><path d="M153.7,268.8c15.8,21.4,38.1,37.6,63.9,45.8c-14-11.8-25.6-29.9-33.5-52.2C172.9,264.1,162.7,266.3,153.7,268.8z"/><path d="M294.4,314.6c25.9-8.2,48.2-24.5,63.9-45.8c-9-2.5-19.2-4.6-30.5-6.3C320,284.7,308.4,302.8,294.4,314.6z"/><path d="M217.6,72.3c-25.9,8.2-48.1,24.4-63.9,45.8c9,2.5,19.2,4.6,30.4,6.3C192,102.2,203.6,84.1,217.6,72.3z"/><path d="M338.8,184.4h43.9c-1.3-18.2-6.4-35.3-14.5-50.6c-0.6,0.3-1.2,0.6-1.9,0.8c-9.7,2.9-21,5.3-33.3,7.3   C336.2,155.1,338.2,169.4,338.8,184.4z"/><path d="M309.2,260c-13.9-1.5-28.8-2.3-44.1-2.6v52.8C283.1,305.4,299,286.5,309.2,260z"/><path d="M320.6,202.5h-55.6v36.8c17.3,0.3,34.1,1.3,49.7,3.1C318,230.1,320,216.6,320.6,202.5z"/><path d="M421.4,402.8h-91.5v-1c0-9.8-7.9-17.7-17.7-17.7H282l42.8,48.2c0.3,0.3,0.6,0.7,0.8,1.1c2.6-3.1,4.3-7,4.3-11.4v-1h91.5   c5,0,9.1-4.1,9.1-9.1C430.5,406.9,426.4,402.8,421.4,402.8z"/><path d="M262.9,389.9c1.3-1.6,2.1-3.6,2.1-5.8v-35c0-5-4.1-9.1-9.1-9.1c-5,0-9.1,4.1-9.1,9.1v35h-37.4l44,49.5   c1.5,1.7,2.3,3.9,2.3,6h51.3l-44-49.5C263.1,390.1,263,390,262.9,389.9z"/><path d="M190.5,390c-0.6-0.7-1-1.5-1.4-2.3c-4.3,3.2-7.1,8.3-7.1,14.1v1H90.6c-5,0-9.1,4.1-9.1,9.1c0,5,4.1,9.1,9.1,9.1h91.5v1   c0,9.8,7.9,17.7,17.7,17.7h34.9l-43.8-49.2C190.9,390.4,190.6,390,190.5,390z"/></g></svg>