<?xml version="1.0" ?><!DOCTYPE svg  PUBLIC '-//W3C//DTD SVG 1.1//EN'  'http://www.w3.org/Graphics/SVG/1.1/DTD/svg11.dtd'><svg enable-background="new 0 0 512 512" id="Layer_1" version="1.1" viewBox="0 0 512 512" xml:space="preserve" xmlns="http://www.w3.org/2000/svg" xmlns:xlink="http://www.w3.org/1999/xlink"><g><path d="M268.3,146.4c18.7,2.5,35.9,10.6,49.6,22.9l-26.1,7.3l78.3,76.5l27.1-106l-30.7,8.6c-22.1-29.7-55.1-49.3-92.1-54.2   c-36.4-4.9-72.6,4.7-101.8,27c-29.2,22.3-48,54.7-52.8,91.1l44.9,6C171.3,175.2,217.8,139.7,268.3,146.4z"/><path d="M243.7,365.6c-18.7-2.5-35.9-10.6-49.6-22.9l26.1-7.3L142,258.8l-27.1,106l30.7-8.6c22.1,29.7,55.1,49.3,92.1,54.2   c6.2,0.8,12.4,1.2,18.5,1.2c30,0,59-9.8,83.3-28.3c29.2-22.3,48-54.7,52.8-91.1l-44.9-6C340.7,336.8,294.2,372.3,243.7,365.6z"/></g></svg>