<?xml version="1.0" ?><!DOCTYPE svg  PUBLIC '-//W3C//DTD SVG 1.1//EN'  'http://www.w3.org/Graphics/SVG/1.1/DTD/svg11.dtd'><svg enable-background="new 0 0 512 512" id="Layer_1" version="1.1" viewBox="0 0 512 512" xml:space="preserve" xmlns="http://www.w3.org/2000/svg" xmlns:xlink="http://www.w3.org/1999/xlink"><g><polygon points="334.4,85.3 252.2,85.3 196.3,85.3 174.2,85.3 174.2,226.2 334.4,208.2  "/><path d="M352.5,85.3v120.9l79.1-8.9c0.3,0,0.7,0,1,0v-112H352.5z"/><path d="M215.2,239.8L80.4,254.9c-0.3,0-0.7,0.1-1,0.1v92.4h135.9c0,0,0,0,0,0V239.8z"/><polygon points="233.3,347.3 260.1,347.3 299.7,263 310.1,285.2 339.3,347.3 432.7,347.3 432.7,215.5 233.3,237.8  "/><polygon points="156,85.3 79.3,85.3 79.3,236.8 156,228.2  "/><polygon points="299.7,284.3 297.4,289.1 232.8,426.7 299.7,381.1 366.5,426.7 301.9,289.1  "/></g></svg>