<?xml version="1.0" ?><!DOCTYPE svg  PUBLIC '-//W3C//DTD SVG 1.1//EN'  'http://www.w3.org/Graphics/SVG/1.1/DTD/svg11.dtd'><svg enable-background="new 0 0 512 512" id="Layer_1" version="1.1" viewBox="0 0 512 512" xml:space="preserve" xmlns="http://www.w3.org/2000/svg" xmlns:xlink="http://www.w3.org/1999/xlink"><g><path d="M147.7,271.7c8.9,0,19.1-1,29.9-1.9c25.5-2.4,55.9-5.3,85.4,3.1v-78.3l-44.8-12.8l-75.4,21.6l-75.3-21.6V238   c1.8,0,3.7,0.5,5.3,1.7C93.2,254.3,122.7,271.7,147.7,271.7z"/><path d="M299.3,266.8c37.8-25.1,75.9-52.3,94.7-77.9l-25-7.2l-69.7,20V266.8z"/><path d="M412,194.1c-0.3,0.9-0.6,1.8-1.2,2.7c-21.5,31.3-67.9,63.1-111.4,91.8c-0.4,0.3-0.7,0.5-1.1,0.7c0.4,0.3,0.7,0.5,1.1,0.8v0   c12.7,9,24,20.9,33.7,35.5c5.7,8.7,13,15.5,21.2,20c15.7,8.5,44.2,18.6,90.1,18.7V203.4L412,194.1z"/><path d="M198.8,339.4c13.6-14.5,37.1-30.8,63.2-48c-27.2-8.8-56.4-6.1-82.6-3.6c-11.3,1.1-21.9,2.1-31.6,2.1   c-22.7,0-49.6-10.7-80.1-31.7v155l75.3,21.6l34.1-9.8c0-0.2-0.1-0.3-0.1-0.4C171.7,401.8,171.3,368.6,198.8,339.4z"/><path d="M318,335.6c-8.4-12.5-17.7-22.5-28.2-30.1h0l-16.6,0.2c-24.9,16.4-48.6,32.8-61.1,46.1c-17.6,18.7-23.5,41.6-17.5,68.2   l23.8-6.8l75.3,21.6l75.4-21.6l75.4,21.6v-52.4c-49.7-0.1-81.2-11.4-98.7-20.9C334.9,355.6,325.3,346.7,318,335.6z"/><path d="M281.2,298.7c5,0,9.1-4.1,9.1-9.1V138.9c23.4,0.9,37.8-15.3,63.7-9.6c0-18.9,0-28.4,0-47.3c-25.9-5.8-40.3,10.5-63.7,9.6   v-5.3c0-5-4.1-9.1-9.1-9.1c-5,0-9.1,4.1-9.1,9.1v203.3C272.1,294.6,276.2,298.7,281.2,298.7z"/></g></svg>