<?xml version="1.0" ?><!DOCTYPE svg  PUBLIC '-//W3C//DTD SVG 1.1//EN'  'http://www.w3.org/Graphics/SVG/1.1/DTD/svg11.dtd'><svg enable-background="new 0 0 512 512" id="Layer_1" version="1.1" viewBox="0 0 512 512" xml:space="preserve" xmlns="http://www.w3.org/2000/svg" xmlns:xlink="http://www.w3.org/1999/xlink"><g><path d="M407.5,91.4c-49.7-45.8-127-42.6-172.8,7.1c-38.1,41.3-42.2,101.7-14,147.2L172.6,298l-5-4.6l-29.9,28.3l25.4,23.4   c3.7,3.4,3.9,9.1,0.5,12.8c-1.8,1.9-4.2,2.9-6.7,2.9c-2.2,0-4.4-0.8-6.1-2.4L125.3,335c-0.3-0.3-0.5-0.5-0.7-0.8l-11.5,10.9   c0.6,0.3,1.2,0.8,1.8,1.3l25.5,23.5c3.7,3.4,3.9,9.1,0.5,12.8c-1.8,1.9-4.2,2.9-6.7,2.9c-2.2,0-4.4-0.8-6.1-2.4l-25.5-23.5   c-0.9-0.8-1.5-1.8-2-2.8l-12.6,12c1.5,0.3,3,1,4.2,2.2l25.5,23.5c3.7,3.4,3.9,9.1,0.5,12.8c-1.8,1.9-4.2,2.9-6.7,2.9   c-2.2,0-4.4-0.8-6.1-2.4l-25.5-23.5c-1.5-1.4-2.4-3.2-2.8-5.1c-16.5,16.6-16,43.6,1.3,59.6l3.5,3.2c17.6,16.2,45.3,14.2,60.3-4.5   l77.2-96.3l-4.9-4.5l46.8-50.8c48.8,29.7,113.2,21.9,153.4-21.7C460.4,214.5,457.2,137.2,407.5,91.4z M380.6,232.9   c-28.5,30.9-76.6,32.9-107.5,4.4c-30.9-28.5-32.9-76.6-4.4-107.5c28.5-30.9,76.6-32.9,107.5-4.4C407.1,153.9,409.1,202,380.6,232.9   z"/><path d="M353.1,172.3h-62.7c-5,0-9.1,4.1-9.1,9.1s4.1,9.1,9.1,9.1h62.7c5,0,9.1-4.1,9.1-9.1S358.1,172.3,353.1,172.3z"/></g></svg>