<?xml version="1.0" ?><!DOCTYPE svg  PUBLIC '-//W3C//DTD SVG 1.1//EN'  'http://www.w3.org/Graphics/SVG/1.1/DTD/svg11.dtd'><svg enable-background="new 0 0 512 512" id="Layer_1" version="1.1" viewBox="0 0 512 512" xml:space="preserve" xmlns="http://www.w3.org/2000/svg" xmlns:xlink="http://www.w3.org/1999/xlink"><g><path d="M324.4,343.7l-19.9-19.9c-14,9.1-30.5,14-47.3,14c-23.2,0-45-9.1-61.4-25.4c-16.4-16.4-25.5-38.2-25.5-61.5   c0-23.2,9-45,25.5-61.4c16.4-16.4,38.2-25.5,61.4-25.5c23.2,0,45,9.1,61.4,25.5c29.3,29.3,33.6,74.6,11.5,108.7l19.9,19.9   l12.9-12.9l32.7,27.1V73.7l-109.4,30.4l-5.7-1.6l-99-27.5l-4.8-1.3L67.4,104.1v279.5l109.4-30.3l6.4,1.8l103,28.6l36.6-13.3   l-11.4-13.8L324.4,343.7z"/><path d="M431.3,373.4l-67.8-56L350,330.9l0,0l-31.3-31.3c-0.1-0.1-0.3-0.2-0.5-0.4c24.2-30.5,22.2-75-6-103.3   c-30.4-30.4-79.7-30.4-110.1,0c-30.4,30.4-30.4,79.7,0,110.1c28.2,28.2,72.8,30.2,103.3,6c0.1,0.1,0.2,0.3,0.4,0.5l31.3,31.3l0,0   l-13.5,13.5l56,67.8c13.8,16.6,38.8,17.8,54.1,2.6C449.1,412.3,447.9,387.2,431.3,373.4z M295.4,289.1c-21.1,21.1-55.2,21.1-76.3,0   c-21.1-21.1-21.1-55.2,0-76.3c21.1-21.1,55.2-21.1,76.3,0C316.4,233.9,316.4,268,295.4,289.1z"/><path d="M238.4,206.6c-4.9,0.9-8.2,5.5-7.4,10.4c0.8,4.9,5.5,8.2,10.4,7.4c1.5-0.2,37-5.8,47.5,22.6c1.4,3.7,4.8,5.9,8.5,5.9   c1,0,2.1-0.2,3.1-0.6c4.7-1.7,7.1-7,5.3-11.6C293.3,206.7,256.3,203.5,238.4,206.6z"/></g></svg>