<?xml version="1.0" ?><!DOCTYPE svg  PUBLIC '-//W3C//DTD SVG 1.1//EN'  'http://www.w3.org/Graphics/SVG/1.1/DTD/svg11.dtd'><svg enable-background="new 0 0 512 512" height="512px" id="Cloud_x5F_Upload" version="1.1" viewBox="0 0 512 512" width="512px" xml:space="preserve" xmlns="http://www.w3.org/2000/svg" xmlns:xlink="http://www.w3.org/1999/xlink"><linearGradient gradientUnits="userSpaceOnUse" id="SVGID_1_" x1="256.0942" x2="256.0942" y1="283.5107" y2="54.3403"><stop offset="0" style="stop-color:#B3B3B3"/><stop offset="0.017" style="stop-color:#B9B9B9"/><stop offset="0.1082" style="stop-color:#D2D2D2"/><stop offset="0.2095" style="stop-color:#E6E6E6"/><stop offset="0.3248" style="stop-color:#F4F4F4"/><stop offset="0.4662" style="stop-color:#FDFDFD"/><stop offset="0.7092" style="stop-color:#FFFFFF"/></linearGradient><path d="M424.281,191.029c-3.122,0-6.169,0.314-9.117,0.903c-4.548-41.231-39.485-73.308-81.928-73.308  c-3.203,0-6.357,0.202-9.465,0.557C305.253,80.812,265.978,54.34,220.519,54.34c-58.568,0-106.867,43.943-113.74,100.657  c-0.283-0.004-0.563-0.021-0.846-0.021c-35.493,0-64.267,28.773-64.267,64.268s28.773,64.268,64.267,64.268h318.349  c25.538,0,46.241-20.702,46.241-46.241C470.522,211.731,449.819,191.029,424.281,191.029z" fill="url(#SVGID_1_)"/><linearGradient gradientUnits="userSpaceOnUse" id="SVGID_2_" x1="135.6133" x2="365.6832" y1="341.5791" y2="111.5092"><stop offset="0" style="stop-color:#00FFFF"/><stop offset="1" style="stop-color:#FF7BAC"/></linearGradient><path d="M451.551,185.248c-7.991-4.07-16.524-6.228-25.433-6.636c-0.299-0.031-0.607-0.049-0.92-0.061  c-4.803-19.221-14.894-36.79-30.427-49.721c-17.979-14.967-40.472-23.105-63.724-22.569c-20.52-36.046-57.875-59.875-99.302-63.877  c-41.533-4.013-83.985,14.091-109.983,46.677c-12.821,16.069-21.169,34.236-25.417,53.963  c-32.049,3.987-60.167,29.574-65.774,61.808c-6.473,37.209,14.092,73.704,49.702,86.739c12.51,4.579,25.313,4.44,38.333,4.44  c15.661,0,262.068,0,297.976,0c18.306,0,35.66-3.63,49.235-17.205C493.103,251.52,486.294,202.944,451.551,185.248z   M449.801,259.368c-8.926,10.187-20.517,11.643-33.009,11.643c-32.204,0-64.408,0-96.612,0c-44.7,0-89.401,0-134.103,0  c-26.299,0-52.6,0.093-78.898,0C85.937,270.936,66.24,259.048,58,239.055c-10.76-26.104,2.134-56.953,28.146-67.745  c6.496-2.695,13.615-3.989,20.632-3.813c7.381,0.186,11.652-5.93,12.5-12.5c4.266-33.087,25.852-62.161,55.292-77.276  c31.094-15.964,69.389-14.049,99.122,4.046c17.203,10.47,30.425,25.724,39.286,43.724c1.761,3.579,6.767,6.599,10.793,6.191  c19.12-1.937,38.223,2.529,53.322,14.827c13.751,11.199,23.43,27.713,25.57,45.424c1.036,8.571,7.114,13.576,15.823,12.053  c1.938-0.339,3.821-0.407,5.794-0.457C452.295,204.044,468.815,237.669,449.801,259.368z" fill="url(#SVGID_2_)"/><polygon fill="#3F5EAB" points="359.786,342.305 256.094,198.288 152.402,342.305 213.757,342.305 213.757,470.169 298.432,470.169   298.432,342.305 "/></svg>