<?xml version="1.0" ?><svg viewBox="0 0 64 64" xmlns="http://www.w3.org/2000/svg"><title/><g id="Radio"><path d="M52.81,61H11.19A8.19,8.19,0,0,1,3,52.81V27.19A8.19,8.19,0,0,1,11.19,19H52.81A8.19,8.19,0,0,1,61,27.19V52.81A8.19,8.19,0,0,1,52.81,61ZM11.19,21A6.2,6.2,0,0,0,5,27.19V52.81A6.2,6.2,0,0,0,11.19,59H52.81A6.2,6.2,0,0,0,59,52.81V27.19A6.2,6.2,0,0,0,52.81,21Z"/><path d="M32,61a1,1,0,0,1-1-1V20a1,1,0,0,1,2,0V60A1,1,0,0,1,32,61Z"/><path d="M52,21a.93.93,0,0,1-.45-.11,1,1,0,0,1-.44-1.34l8-16a1,1,0,0,1,1.78.9l-8,16A1,1,0,0,1,52,21Z"/><path d="M52,21a1,1,0,0,1-.89-.55l-8-16a1,1,0,1,1,1.78-.9l8,16a1,1,0,0,1-.44,1.34A.93.93,0,0,1,52,21Z"/><path d="M29,21H9a1,1,0,0,1-1-1V18.4A4.4,4.4,0,0,1,12.4,14H25.6A4.4,4.4,0,0,1,30,18.4V20A1,1,0,0,1,29,21ZM10,19H28v-.6A2.39,2.39,0,0,0,25.6,16H12.4A2.39,2.39,0,0,0,10,18.4Z"/><path d="M18,52A12,12,0,1,1,30,40,12,12,0,0,1,18,52Zm0-22A10,10,0,1,0,28,40,10,10,0,0,0,18,30Z"/><path d="M18,46a6,6,0,1,1,6-6A6,6,0,0,1,18,46Zm0-10a4,4,0,1,0,4,4A4,4,0,0,0,18,36Z"/><path d="M36,61a1,1,0,0,1-1-1V20a1,1,0,0,1,2,0V60A1,1,0,0,1,36,61Z"/><path d="M40,61a1,1,0,0,1-1-1V20a1,1,0,0,1,2,0V60A1,1,0,0,1,40,61Z"/><path d="M44,61a1,1,0,0,1-1-1V20a1,1,0,0,1,2,0V60A1,1,0,0,1,44,61Z"/><path d="M48,61a1,1,0,0,1-1-1V20a1,1,0,0,1,2,0V60A1,1,0,0,1,48,61Z"/><path d="M52,61a1,1,0,0,1-1-1V20a1,1,0,0,1,2,0V60A1,1,0,0,1,52,61Z"/><path d="M56,60a1,1,0,0,1-1-1V21a1,1,0,0,1,2,0V59A1,1,0,0,1,56,60Z"/></g></svg>