<?xml version="1.0" ?><!DOCTYPE svg  PUBLIC '-//W3C//DTD SVG 1.1//EN'  'http://www.w3.org/Graphics/SVG/1.1/DTD/svg11.dtd'><svg height="256px" style="shape-rendering:geometricPrecision; text-rendering:geometricPrecision; image-rendering:optimizeQuality; fill-rule:evenodd; clip-rule:evenodd" version="1.1" viewBox="0 0 256000 256002" width="256px" xml:space="preserve" xmlns="http://www.w3.org/2000/svg" xmlns:xlink="http://www.w3.org/1999/xlink"><defs><style type="text/css">
   <![CDATA[
    .fil2 {fill:none}
    .fil0 {fill:#FF452F}
    .fil1 {fill:#FFFFFE}
   ]]>
  </style></defs><g id="Layer_x0020_1"><path class="fil0" d="M255999 59678c0,-16340 -5918,-31216 -15449,-42023 -9610,-10893 -22889,-17655 -37516,-17655l-150074 0c-14627,0 -27903,6762 -37511,17655 -9532,10806 -15448,25683 -15448,42023l0 136648c0,16339 5916,31215 15448,42021 9608,10894 22884,17655 37511,17655l150074 0c14627,0 27906,-6761 37516,-17655 9531,-10806 15449,-25682 15449,-42021l0 -136648z"/><path class="fil1" d="M214648 131869c20613,-64997 -39420,-89441 -39593,-89513l-64 -32c-220,-86 -76706,-30833 -122270,20748l-159 193c-35340,48263 724,92758 826,92887l1791 2260 2145 -1910 23164 -20618 1948 -1735 -1660 -2021c-46,-56 -16075,-19155 -3586,-40402 16957,-27345 51144,-25166 51242,-25161l129 0c155,1 54342,-235 53547,45650 -5236,35628 -39629,29950 -48272,27935l0 -53134 0 -2724 -2723 0 -32069 0 -2724 0 0 2724 0 96749c-673,1749 -1476,3032 -2375,3912 -927,905 -1983,1393 -3116,1539 -1259,161 -2683,-74 -4193,-613 -3427,-1225 -7090,-3949 -10346,-7276l-4659 1904 0 28760 0 1369 1117 823c53,39 18457,13851 38675,6476 20390,-7445 22630,-24789 22637,-24839l32 -372 0 -24771c12856,3692 56221,11727 80407,-38445l149 -363z"/></g><rect class="fil2" height="256000" width="256000" y="1"/></svg>