<?xml version="1.0" ?><!DOCTYPE svg  PUBLIC '-//W3C//DTD SVG 1.1//EN'  'http://www.w3.org/Graphics/SVG/1.1/DTD/svg11.dtd'><svg height="256px" style="shape-rendering:geometricPrecision; text-rendering:geometricPrecision; image-rendering:optimizeQuality; fill-rule:evenodd; clip-rule:evenodd" version="1.1" viewBox="0 0 256000 255998" width="256px" xml:space="preserve" xmlns="http://www.w3.org/2000/svg" xmlns:xlink="http://www.w3.org/1999/xlink"><defs><style type="text/css">
   <![CDATA[
    .fil2 {fill:none}
    .fil1 {fill:#F7780F}
    .fil0 {fill:#F7780F;fill-rule:nonzero}
   ]]>
  </style></defs><g id="Layer_x0020_1"><g id="_393294208"><path class="fil0" d="M223305 183547l-82999 0 -271 -21c-1589,-163 -3014,-886 -4039,-1979 -1024,-1091 -1657,-2545 -1680,-4180l-10 -31 0 -95017 10 -33c22,-1485 332,-2664 1199,-3762 764,-967 1843,-1675 3446,-2294 3126,-1212 6457,-2169 9908,-2815 3342,-625 6783,-964 10243,-964 14442,0 27596,5521 37482,14570 9148,8370 15488,19765 17452,32597 919,-268 1859,-501 2818,-694 2120,-425 4277,-650 6441,-650 9021,0 17195,3665 23119,9590 5916,5917 9575,14091 9575,23114 0,9020 -3656,17153 -9567,23040 -5921,5896 -14100,9529 -23127,9529z"/><path class="fil1" d="M128102 178606l0 -29c-16,1852 -884,3358 -1940,3358 -1063,0 -1931,-1506 -1946,-3343l-397 -12373 -395 -12703 792 -68783 0 -346c7,-1047 288,-1980 725,-2612 332,-471 761,-760 1221,-760 363,0 701,172 991,473 553,603 940,1665 957,2885l860 69143 -868 25090z"/><path class="fil1" d="M114323 176423l-74 2513c-9,875 -223,1666 -545,2239 -330,562 -784,918 -1270,918 -562,0 -1056,-444 -1395,-1147 -249,-517 -405,-1179 -421,-1880 -7,-30 -7,-75 -7,-114 0,0 -695,-25436 -695,-25479l686 -62754 9 -603c7,-1106 338,-2080 841,-2642 281,-330 610,-514 982,-514 363,0 710,198 997,544 488,558 809,1521 818,2612l767 63385 -693 22922z"/><path class="fil1" d="M103608 179124l0 -14c-15,1650 -768,2929 -1698,2929 -935,0 -1675,-1279 -1701,-2915l-758 -25637 758 -53251c26,-1650 766,-2943 1701,-2943 930,0 1683,1293 1698,2943l850 53265 -850 25623z"/><path class="fil1" d="M93043 179282l0 -14c-25,1521 -710,2727 -1575,2727 -858,0 -1551,-1206 -1568,-2713l-835 -25795 827 -55275c25,-1537 718,-2728 1576,-2728 865,0 1550,1191 1575,2728l940 55275 -940 25795z"/><path class="fil1" d="M82568 179510c-26,1408 -669,2513 -1454,2513 -790,0 -1426,-1105 -1451,-2498l-909 -26038 909 -56723c25,-1407 661,-2514 1451,-2514 785,0 1428,1107 1454,2514l1013 56723 -1013 26023z"/><path class="fil1" d="M72163 179684l0 -16c-25,1293 -611,2296 -1329,2296 -718,0 -1303,-1003 -1329,-2280l-973 -26197c0,0 973,-54875 973,-54886 26,-1279 611,-2297 1329,-2297 718,0 1304,1018 1329,2297l1105 54886 -1105 26197z"/><path class="fil1" d="M61690 180098l0 -15c-34,1164 -562,2083 -1214,2083 -643,0 -1171,-919 -1205,-2083l-1048 -26467c0,0 1048,-50654 1048,-50654 34,-1161 562,-2080 1205,-2080 652,0 1180,919 1214,2080l1187 50654 -1187 26482z"/><path class="fil1" d="M51604 180112l0 -14c-34,1048 -511,1882 -1090,1882 -576,-2 -1056,-834 -1088,-1868l-1113 -26639 1113 -41225c32,-1048 512,-1878 1088,-1878 579,0 1056,830 1090,1867l1263 41236 -1263 26639z"/><path class="fil1" d="M41439 180098c-32,947 -454,1650 -957,1650 -520,0 -931,-703 -965,-1650l-1196 -26639 1196 -25334c34,-948 445,-1650 965,-1650 511,0 925,702 957,1636l1354 25348 -1354 26639z"/><path class="fil1" d="M31369 179886c-43,814 -405,1432 -842,1432 -447,0 -811,-618 -851,-1432l-1262 -26427 1262 -27315c40,-819 404,-1436 851,-1436 437,0 799,617 842,1436l1434 27315 -1434 26427z"/><path class="fil1" d="M21361 179066c-42,716 -348,1219 -718,1219 -380,0 -678,-503 -718,-1219l-1337 -25607c0,0 1337,-26582 1337,-26582 32,-717 338,-1236 718,-1236 370,0 676,519 718,1236l1517 26582 -1517 25607z"/><path class="fil1" d="M11448 175362c-50,587 -298,1007 -602,1007 -298,0 -554,-420 -596,-1007l-1411 -21919 1411 -22404c42,-576 298,-1006 596,-1006 304,0 552,419 602,1006l1602 22404 -1602 21919z"/><path class="fil1" d="M2194 167079c-48,562 -277,964 -576,964 -298,0 -528,-402 -569,-978l-1049 -13622 1049 -13849c41,-573 271,-978 569,-978 299,0 528,405 576,978l1248 13865 -1248 13620z"/></g></g><rect class="fil2" height="255998" width="255998" x="2"/></svg>