<?xml version="1.0" ?><!DOCTYPE svg  PUBLIC '-//W3C//DTD SVG 1.1//EN'  'http://www.w3.org/Graphics/SVG/1.1/DTD/svg11.dtd'><svg height="256px" style="shape-rendering:geometricPrecision; text-rendering:geometricPrecision; image-rendering:optimizeQuality; fill-rule:evenodd; clip-rule:evenodd" version="1.1" viewBox="0 0 256000 256001" width="256px" xml:space="preserve" xmlns="http://www.w3.org/2000/svg" xmlns:xlink="http://www.w3.org/1999/xlink"><defs><style type="text/css">
   <![CDATA[
    .fil1 {fill:none}
    .fil0 {fill:#0072C0}
   ]]>
  </style></defs><g id="Layer_x0020_1"><g id="_394365032"><path class="fil0" d="M183934 47604c-13111,-8148 -25506,-11345 -37873,-19496 -7666,-5177 -18303,-17506 -27226,-28108 -1718,17017 -6919,23939 -12869,28873 -12597,9850 -20525,12804 -31425,18731 -9157,4691 -58897,34275 -58897,97918 0,63625 53708,110479 113337,110479 59653,0 111375,-43156 111375,-108515 0,-65360 -48505,-94953 -56422,-99882zm1006 183518c-1245,1226 -12628,9120 -25984,10365 -13367,1222 -31439,1964 -42321,-7903 -1725,-1734 -1248,-4180 0,-5164 1235,-1003 2222,-1744 3716,-1744 1493,0 1224,0 1982,493 4947,3953 12366,7145 28194,7145 15847,0 26996,-4414 31934,-8133 2227,-1722 3216,-239 3472,750 240,980 737,2472 -993,4191zm-42890 -20761c2722,-2475 7189,-6423 11400,-8141 4205,-1734 6410,-1484 10384,-1484 3955,0 8176,247 11139,2234 2961,1974 4703,6399 5671,8850 1001,2482 0,3955 -1960,4952 -1722,976 -1978,487 -3711,-2712 -1720,-3202 -3212,-6422 -11879,-6422 -8655,0 -11383,2970 -15588,6422 -4206,3444 -5694,4681 -7187,2712 -1480,-1969 -985,-3952 1731,-6411zm89323 -47015c0,7639 -2468,21447 -8423,30078 -5918,8644 -9627,11856 -16582,11356 -8917,-750 -26723,-28366 -38106,-28873 -14334,-486 -45530,29868 -70038,29868 -14853,0 -19291,-2217 -24237,-5439 -7436,-5178 -11152,-13067 -10908,-23922 266,-19251 18309,-37235 41091,-37473 28936,-257 49009,28584 63592,28350 12381,-233 36150,-24417 47778,-24417 12370,0 15833,12805 15833,20472z" id="Drupal"/></g><g id="_394355240"/><g id="_394352696"/><g id="_394359344"/><g id="_394362800"/><g id="_394353560"/><g id="_394372400"/><g id="_394363760"/><g id="_394356848"/><g id="_394364408"/><g id="_394373888"/><g id="_394365080"/><g id="_394353200"/><g id="_394345136"/><g id="_394372928"/><g id="_394364984"/></g><rect class="fil1" height="256000" width="256000"/></svg>