<?xml version="1.0" ?><!DOCTYPE svg  PUBLIC '-//W3C//DTD SVG 1.1//EN'  'http://www.w3.org/Graphics/SVG/1.1/DTD/svg11.dtd'><svg height="256px" style="shape-rendering:geometricPrecision; text-rendering:geometricPrecision; image-rendering:optimizeQuality; fill-rule:evenodd; clip-rule:evenodd" version="1.1" viewBox="0 0 256002 256004" width="256px" xml:space="preserve" xmlns="http://www.w3.org/2000/svg" xmlns:xlink="http://www.w3.org/1999/xlink"><defs><style type="text/css">
   <![CDATA[
    .fil1 {fill:none}
    .fil0 {fill:#33CCFF;fill-rule:nonzero}
   ]]>
  </style></defs><g id="Layer_x0020_1"><path class="fil0" d="M108774 179552c2674,2753 5618,4813 8835,6179 3202,1360 6713,2041 10534,2041l60186 0c4543,0 8781,846 12708,2538 3908,1683 7483,4199 10721,7544 3238,3335 5668,7011 7294,11034 1626,4022 2437,8355 2437,13004 0,4652 -813,8996 -2441,13027 -1627,4023 -4055,7700 -7290,11024 -3239,3339 -6807,5849 -10711,7527 -3924,1688 -8162,2534 -12718,2534l-60160 0c-12896,0 -24869,-2370 -35925,-7108 -11046,-4734 -21140,-11822 -30286,-21264 -9147,-9431 -16009,-19842 -20588,-31225 -4582,-11389 -6872,-23718 -6872,-36987l0 -125286c0,-4760 809,-9170 2425,-13234 1619,-4069 4037,-7744 7252,-11022 3222,-3280 6814,-5749 10769,-7400 3957,-1651 8248,-2478 12870,-2478 4505,0 8721,849 12643,2546 3900,1688 7454,4201 10654,7534 3209,3327 5624,7002 7241,11024 1618,4025 2428,8361 2428,13007l0 28661 87459 0c4552,0 8800,844 12740,2533 3928,1684 7518,4197 10766,7538 3247,3330 5682,7003 7308,11017 1634,4029 2449,8376 2449,13035 0,4652 -815,8992 -2445,13019 -1625,4012 -4058,7686 -7299,11019 -3239,3339 -6813,5848 -10718,7526 -3926,1686 -8164,2530 -12711,2530l-87562 0 0 28404c0,7917 2669,14633 8007,20159l0 0z"/></g><rect class="fil1" height="256002" width="256002"/></svg>