<?xml version="1.0" ?><!DOCTYPE svg  PUBLIC '-//W3C//DTD SVG 1.1//EN'  'http://www.w3.org/Graphics/SVG/1.1/DTD/svg11.dtd'><svg height="256px" style="shape-rendering:geometricPrecision; text-rendering:geometricPrecision; image-rendering:optimizeQuality; fill-rule:evenodd; clip-rule:evenodd" version="1.1" viewBox="0 0 256001 256001" width="256px" xml:space="preserve" xmlns="http://www.w3.org/2000/svg" xmlns:xlink="http://www.w3.org/1999/xlink"><defs><style type="text/css">
   <![CDATA[
    .fil3 {fill:none}
    .fil0 {fill:#E0E0E0}
    .fil2 {fill:#1D75CE;fill-rule:nonzero}
    .fil1 {fill:#FF0084;fill-rule:nonzero}
   ]]>
  </style></defs><g id="Layer_x0020_1"><g id="_394106136"><path class="fil0" d="M37208 0l181584 0c20465,0 37209,16745 37209,37210l0 181583c0,20465 -16744,37208 -37209,37208l-181584 0c-20465,0 -37208,-16743 -37208,-37208l0 -181583c0,-20465 16743,-37210 37208,-37210z"/><path class="fil1" d="M155636 157672c-7880,-7878 -12752,-18763 -12752,-30785 0,-12022 4872,-22907 12752,-30786 7877,-7878 18763,-12752 30785,-12752l0 0c12023,0 22906,4874 30784,12752 7878,7879 12752,18764 12752,30786l0 0c0,12022 -4874,22906 -12752,30785 -7878,7878 -18761,12751 -30784,12751 -12022,0 -22908,-4873 -30785,-12751z"/><path class="fil2" d="M48473 157672c-7880,-7878 -12753,-18763 -12753,-30785 0,-12022 4873,-22907 12751,-30786 7880,-7878 18763,-12752 30787,-12752l0 0c12021,0 22905,4874 30784,12752 7878,7879 12751,18764 12751,30786l0 0c0,12022 -4873,22906 -12751,30785 -7879,7878 -18763,12751 -30784,12751 -12022,0 -22907,-4873 -30785,-12751z"/></g></g><rect class="fil3" height="256000" width="256000" x="1" y="1"/></svg>