<?xml version="1.0" ?><!DOCTYPE svg  PUBLIC '-//W3C//DTD SVG 1.1//EN'  'http://www.w3.org/Graphics/SVG/1.1/DTD/svg11.dtd'><svg height="256px" style="shape-rendering:geometricPrecision; text-rendering:geometricPrecision; image-rendering:optimizeQuality; fill-rule:evenodd; clip-rule:evenodd" version="1.1" viewBox="0 0 256001 256001" width="256px" xml:space="preserve" xmlns="http://www.w3.org/2000/svg" xmlns:xlink="http://www.w3.org/1999/xlink"><defs><style type="text/css">
   <![CDATA[
    .fil2 {fill:none}
    .fil0 {fill:#019F0C}
    .fil1 {fill:#FEFEFE}
   ]]>
  </style></defs><g id="Layer_x0020_1"><polygon class="fil0" points="256001,253279 256001,2724 256001,0 253278,0 2722,0 0,0 0,2724 0,253279 0,256001 2722,256001 253278,256001 256001,256001 "/><g id="_396603024"><path class="fil1" d="M33200 74070c-7274,2422 -9902,7579 -8182,16424 3834,19714 33130,-2504 39932,37387 3007,17637 5301,26008 14686,37300 45471,54715 130287,34876 150064,-50008 3343,-14342 3266,-31768 -11492,-34644 -18935,-3690 -19746,13596 -23018,28709 -3103,14330 -7711,27275 -15192,36842 -5807,7427 -19945,17715 -32666,19451 -39055,5331 -41377,-24266 -51842,-52248 -5467,-14618 -12055,-21842 -23157,-28781 -6921,-4326 -29864,-13521 -39133,-10432z"/><path class="fil1" d="M144375 103855c27,-12083 -4980,-24959 -11834,-30784 -11634,-9888 -19480,8249 -20904,18324 -1852,13094 -982,27740 10081,31624 15462,5431 22626,-5228 22657,-19164z"/><path class="fil1" d="M161455 61455c-4865,2481 -6579,4746 -8861,13737 -4598,18113 743,51881 18564,42992 16888,-8426 10781,-67167 -9703,-56729z"/></g></g><rect class="fil2" height="256000" width="256000" y="1"/></svg>