<?xml version="1.0" ?><!DOCTYPE svg  PUBLIC '-//W3C//DTD SVG 1.1//EN'  'http://www.w3.org/Graphics/SVG/1.1/DTD/svg11.dtd'><svg height="256px" style="shape-rendering:geometricPrecision; text-rendering:geometricPrecision; image-rendering:optimizeQuality; fill-rule:evenodd; clip-rule:evenodd" version="1.1" viewBox="0 0 256000 255998" width="256px" xml:space="preserve" xmlns="http://www.w3.org/2000/svg" xmlns:xlink="http://www.w3.org/1999/xlink"><defs><style type="text/css">
   <![CDATA[
    .fil1 {fill:none}
    .fil0 {fill:#EB008A}
   ]]>
  </style></defs><g id="Layer_x0020_1"><g id="_396623184"><path class="fil0" d="M31402 103958c-17342,0 -31402,14058 -31402,31400 0,17342 14060,31401 31402,31401 17342,0 31400,-14059 31400,-31401 0,-17342 -14058,-31400 -31400,-31400zm0 16868c-8027,0 -14534,6506 -14534,14532 0,8027 6507,14534 14534,14534 8026,0 14532,-6507 14532,-14534 0,-8026 -6506,-14532 -14532,-14532z"/><path class="fil0" d="M69550 164424l17388 0 0 -35813c0,-4853 3970,-8823 8823,-8823l2336 0 0 -16350 -3373 0c-13846,0 -25174,11328 -25174,25174l0 35812z"/><path class="fil0" d="M138307 130498c10233,2366 17921,11582 17921,22507l0 10122c0,347 -8,693 -23,1038l-16327 0 0 -6229c0,-9135 -7473,-16609 -16608,-16609l-779 0 0 22578 -16608 0 0 -74221 16608 0 0 35423 16350 -20631 19722 0 -20358 25692c-2255,0 -1584,-60 102,330z"/><path class="fil0" d="M182120 104241l0 34531c0,5696 4662,10357 10357,10357l1386 0c5696,0 10357,-4662 10357,-10357l0 -34531 15969 0 0 36294c0,13930 -11396,25326 -25325,25326l-3387 0c-13930,0 -25326,-11396 -25326,-25326l0 -36294 15969 0z"/><path class="fil0" d="M228416 89238l16776 0 0 15003 10646 0 0 16776 -10646 0 0 15485c0,6350 4709,11656 10808,12595l0 16280 -162 0c-15081,0 -27422,-12340 -27422,-27423l0 -48716z"/></g></g><rect class="fil1" height="255998" width="255998" x="1"/></svg>