<?xml version="1.0" ?><!DOCTYPE svg  PUBLIC '-//W3C//DTD SVG 1.1//EN'  'http://www.w3.org/Graphics/SVG/1.1/DTD/svg11.dtd'><svg height="256px" style="shape-rendering:geometricPrecision; text-rendering:geometricPrecision; image-rendering:optimizeQuality; fill-rule:evenodd; clip-rule:evenodd" version="1.1" viewBox="0 0 256000 256000" width="256px" xml:space="preserve" xmlns="http://www.w3.org/2000/svg" xmlns:xlink="http://www.w3.org/1999/xlink"><defs><style type="text/css">
   <![CDATA[
    .fil3 {fill:none}
    .fil1 {fill:#A52324}
    .fil0 {fill:#EA2324}
    .fil2 {fill:#F05F60}
   ]]>
  </style></defs><g id="Layer_x0020_1"><g id="_396624432"><path class="fil0" d="M89270 55873c8790,-17397 21688,-28370 38594,-29174 684,-33 1258,-50 1727,-50 15811,0 28002,10268 36506,26752 8181,15861 12965,37624 14243,61419 238,4430 357,8831 357,13180 0,4372 -132,8782 -392,13199 -1401,23799 -6597,45609 -14956,61512 -8680,16514 -20821,26816 -35806,26816 -480,0 -1047,-18 -1701,-51 -16207,-846 -29215,-12169 -38227,-30040 -9228,-18298 -14312,-43607 -14312,-71436 0,-28214 4711,-53804 13967,-72127zm166730 72127c0,-35307 -14306,-67285 -37434,-90446 -23172,-23202 -55192,-37554 -90566,-37554 -35374,0 -67394,14352 -90566,37554 -23128,23161 -37434,55139 -37434,90446 0,35307 14306,67285 37434,90446 23172,23202 55192,37554 90566,37554 35374,0 67394,-14352 90566,-37554 23128,-23161 37434,-55139 37434,-90446z"/><path class="fil1" d="M89270 55873c8790,-17397 21688,-28370 38594,-29174 685,-33 1258,-50 1727,-50 15811,0 28002,10268 36506,26752 8181,15861 12965,37624 14244,61419 237,4430 356,8831 356,13180 0,4372 -132,8780 -392,13199 -1401,23799 -6597,45611 -14956,61512 -8680,16514 -20821,26816 -35806,26816 -480,0 -1047,-17 -1701,-51 -16207,-846 -29215,-12169 -38227,-30040 -9228,-18298 -14312,-43607 -14312,-71436 0,-28214 4711,-53804 13967,-72127zm81157 149204c-8051,15317 -21315,29782 -40884,29782 -671,0 -1345,-23 -2014,-59 -20763,-1082 -34676,-16509 -43031,-33077 -11089,-21988 -14860,-49597 -14860,-73723 0,-24155 3385,-52384 14517,-74418 8536,-16897 22479,-31214 43423,-32210 670,-32 1342,-55 2013,-55 20032,0 33402,13859 41601,29754 9745,18891 13688,42666 14806,63480 241,4478 364,8964 364,13449 0,4500 -136,9001 -400,13494 -1235,20959 -5576,44634 -15535,63583z"/><path class="fil2" d="M40014 39838c22976,-23007 54249,-36505 87986,-36505 33737,0 65010,13498 87986,36505 23812,23843 36473,55529 36473,88162l3541 0c0,-35307 -14306,-67285 -37434,-90446 -23172,-23202 -55192,-37554 -90566,-37554 -35374,0 -67394,14352 -90566,37554 -23128,23161 -37434,55139 -37434,90446l3541 0c0,-32633 12661,-64319 36473,-88162z"/></g></g><rect class="fil3" height="256000" width="256000"/></svg>