<?xml version="1.0" ?><!DOCTYPE svg  PUBLIC '-//W3C//DTD SVG 1.1//EN'  'http://www.w3.org/Graphics/SVG/1.1/DTD/svg11.dtd'><svg height="256px" style="shape-rendering:geometricPrecision; text-rendering:geometricPrecision; image-rendering:optimizeQuality; fill-rule:evenodd; clip-rule:evenodd" version="1.1" viewBox="0 0 256000 256000" width="256px" xml:space="preserve" xmlns="http://www.w3.org/2000/svg" xmlns:xlink="http://www.w3.org/1999/xlink"><defs><style type="text/css">
   <![CDATA[
    .fil2 {fill:none}
    .fil0 {fill:#464442}
    .fil1 {fill:#FDFDFD}
   ]]>
  </style></defs><g id="Layer_x0020_1"><g id="_394104264"><path class="fil0" d="M256000 128000c0,70691 -57309,128000 -128000,128000 -70693,0 -128000,-57309 -128000,-128000 0,-70693 57307,-128000 128000,-128000 70691,0 128000,57307 128000,128000z"/><path class="fil1" d="M127218 248128c-66041,-25 -119883,-53876 -119567,-119908 337,-70546 59399,-120313 120934,-119318 65130,1050 118541,54212 118489,119876 -50,65659 -53998,119381 -119856,119350z"/><path class="fil0" d="M127034 242492c-62834,-19 -113852,-51367 -113805,-114544 47,-62713 51474,-113457 114909,-113385 62666,72 113175,51453 113130,115086 -42,61921 -51609,112859 -114234,112843z"/><path class="fil1" d="M193169 142509c5991,-18220 3676,-35000 -7020,-50821 -3070,-4535 -5788,-9322 -7256,-14681 -2737,-10005 1839,-19927 10737,-23109 1952,-696 4052,-987 6161,-1482 -47461,-44125 -124173,-30149 -153670,19965 2724,0 5235,98 7737,-19 8284,-391 16564,-835 24844,-1299 2793,-158 4842,771 5135,3756 298,3047 -1686,4303 -4395,4612 -2525,285 -5066,635 -7595,612 -3149,-25 -3271,1226 -2388,3816 7151,20990 14200,42014 21272,63031 4892,14547 9774,29096 15058,44834 7592,-22719 14829,-44379 22074,-66042 458,-1367 62,-2587 -413,-3879 -4733,-12920 -9451,-25848 -14090,-38802 -667,-1866 -1604,-2801 -3673,-2893 -2933,-134 -5864,-500 -8772,-937 -2195,-331 -3215,-1945 -3114,-4026 114,-2217 1294,-3854 3676,-4035 1587,-124 3204,76 4803,184 8807,592 17617,1296 26449,980 7352,-267 14695,-728 22037,-1189 2924,-183 5676,104 6055,3602 413,3781 -2418,4616 -5452,4892 -1998,177 -4001,433 -6003,439 -3058,6 -4053,712 -2883,4135 9549,27938 18881,55950 28296,83932 2423,7203 4904,14384 7604,22285 559,-1280 813,-1734 960,-2220 4589,-15220 8862,-30542 13826,-45641z"/><path class="fil1" d="M156109 211246c-8887,-24345 -17780,-48685 -27012,-73977 -4823,13977 -9310,26971 -13793,39967 -5356,15535 -10735,31068 -16018,46629 -404,1190 -2045,2916 869,3672 19790,5135 39417,4814 58935,-1428 2035,-654 1983,-1487 1291,-3191 -1551,-3840 -2852,-7780 -4272,-11672z"/><path class="fil1" d="M82586 220740c-16420,-44986 -32562,-89207 -48818,-133742 -21415,45079 -4743,107624 48818,133742z"/><path class="fil1" d="M218634 81514c-259,-413 -516,-825 -776,-1239 -233,233 -685,495 -661,694 152,1261 413,2514 635,3767 630,12052 -1297,23710 -5269,35074 -6656,19044 -13274,38100 -19892,57156 -4538,13054 -9049,26122 -13729,39644 4429,-1472 7758,-4339 11158,-6972 38495,-29793 51380,-82947 28534,-128124z"/></g></g><rect class="fil2" height="255998" width="255998" x="2" y="1"/></svg>