<?xml version="1.0" ?><svg data-name="Layer 1" id="Layer_1" viewBox="0 0 32 32" xmlns="http://www.w3.org/2000/svg"><defs><style>.cls-1{fill:#f43b33;}</style></defs><title/><path class="cls-1" d="M21.65,6.83H22a9.41,9.41,0,0,0-11.39,0H21.65Z"/><path class="cls-1" d="M10.86,24.94h-.3a9.41,9.41,0,0,0,11.39,0H10.86Z"/><path class="cls-1" d="M6.17,15.88a11.23,11.23,0,0,1,4.39-9,5.85,5.85,0,0,0-5.27,6v6a5.85,5.85,0,0,0,5.27,6A11.24,11.24,0,0,1,6.17,15.88Z"/><path class="cls-1" d="M22,6.84a11.23,11.23,0,0,1,4.39,9,11.24,11.24,0,0,1-4.39,9,5.86,5.86,0,0,0,5.27-6v-6A5.86,5.86,0,0,0,22,6.84Z"/><ellipse class="cls-1" cx="12.35" cy="15.88" rx="2.68" ry="2.82"/><ellipse class="cls-1" cx="20.15" cy="15.88" rx="2.68" ry="2.82"/></svg>