<?xml version="1.0" ?><svg data-name="Layer 1" id="Layer_1" viewBox="0 0 32 32" xmlns="http://www.w3.org/2000/svg"><defs><style>.cls-1{fill:#f43b33;}</style></defs><title/><path class="cls-1" d="M21.36,7.06h.3a9.41,9.41,0,0,0-11.39,0H21.36Z"/><path class="cls-1" d="M10.57,25.17h-.3a9.41,9.41,0,0,0,11.39,0H10.57Z"/><path class="cls-1" d="M5.88,16.11a11.23,11.23,0,0,1,4.39-9,5.86,5.86,0,0,0-5.27,6v6a5.86,5.86,0,0,0,5.27,6A11.24,11.24,0,0,1,5.88,16.11Z"/><path class="cls-1" d="M21.66,7.07a11.23,11.23,0,0,1,4.39,9,11.24,11.24,0,0,1-4.39,9.05,5.85,5.85,0,0,0,5.27-6v-6A5.85,5.85,0,0,0,21.66,7.07Z"/><path class="cls-1" d="M15.21,17v3.43h-1V17l-3.11-5.11H12.2L14.67,16h0l2.47-4.15h1.14Z"/><path class="cls-1" d="M19.69,20.38V19.14h1v1.24Zm1.18-8.54-.15,5.79h-.84l-.15-5.79Z"/></svg>