<?xml version="1.0" ?><svg data-name="Layer 1" id="Layer_1" viewBox="0 0 32 32" xmlns="http://www.w3.org/2000/svg"><defs><style>.cls-1{fill:#f43b33;}</style></defs><title/><path class="cls-1" d="M10.86,26.07h-.3a9.41,9.41,0,0,0,11.39,0H10.86Z"/><path class="cls-1" d="M21.65,8H22A9.41,9.41,0,0,0,10.56,8H21.65Z"/><path class="cls-1" d="M20.65,10.87a6.76,6.76,0,0,0-4.4-1.64,6.41,6.41,0,0,0-1.16.1l5.54,5.88Z"/><path class="cls-1" d="M14.46,9.47A7.71,7.71,0,0,0,9.09,17a8.57,8.57,0,0,0,.26,2.1l7-7.64Z"/><path class="cls-1" d="M6.17,17a11.25,11.25,0,0,1,4.39-9,5.85,5.85,0,0,0-5.27,6v6a5.85,5.85,0,0,0,5.27,6A11.23,11.23,0,0,1,6.17,17Z"/><path class="cls-1" d="M21.17,11.35v9.23h1.46A8.4,8.4,0,0,0,23.42,17,8.12,8.12,0,0,0,21.17,11.35Z"/><path class="cls-1" d="M11.7,23V17.25L9.52,19.68A7.76,7.76,0,0,0,11.7,23Z"/><path class="cls-1" d="M22,8A11.25,11.25,0,0,1,26.34,17a11.23,11.23,0,0,1-4.39,9,5.86,5.86,0,0,0,5.27-6V14A5.86,5.86,0,0,0,22,8Z"/><path class="cls-1" d="M12.27,23.5a6.8,6.8,0,0,0,4,1.31,7,7,0,0,0,6-3.55h-10Z"/></svg>