<?xml version="1.0" ?><svg data-name="Layer 1" id="Layer_1" viewBox="0 0 32 32" xmlns="http://www.w3.org/2000/svg"><defs><style>.cls-1{fill:#f43b33;}</style></defs><title/><path class="cls-1" d="M22.53,6.83h.3a9.41,9.41,0,0,0-11.39,0H22.53Z"/><path class="cls-1" d="M11.74,24.94h-.3a9.41,9.41,0,0,0,11.39,0H11.74Z"/><path class="cls-1" d="M7.05,15.88a11.23,11.23,0,0,1,4.39-9,5.85,5.85,0,0,0-5.27,6v6a5.85,5.85,0,0,0,5.27,6A11.24,11.24,0,0,1,7.05,15.88Z"/><path class="cls-1" d="M22.83,6.84a11.23,11.23,0,0,1,4.39,9,11.24,11.24,0,0,1-4.39,9,5.85,5.85,0,0,0,5.27-6v-6A5.85,5.85,0,0,0,22.83,6.84Z"/><path class="cls-1" d="M23.15,14.63H23A1.56,1.56,0,0,0,21.6,13.5l-.22,0a.54.54,0,0,1-.53-.25,1.77,1.77,0,0,0-3,.09A3,3,0,0,1,19,15h.14a1.79,1.79,0,0,1,1.66,1.63h2.79a.66.66,0,0,0,.59-.71A1.18,1.18,0,0,0,23.15,14.63Z"/><path class="cls-1" d="M18.92,15.24h-.14a2.92,2.92,0,0,0-1.16-1.62,2.14,2.14,0,0,0-1.23-.39,2.37,2.37,0,0,0-1.86,1,.73.73,0,0,1-.69.32,1.27,1.27,0,0,0-.28,0A2,2,0,0,0,11.72,16h-.15a1.52,1.52,0,0,0-1.38,1.63.85.85,0,0,0,.77.91h8.8a.82.82,0,0,0,.76-.66,2,2,0,0,0,.09-.61c0-.13,0-.25,0-.37A1.79,1.79,0,0,0,18.92,15.24Z"/></svg>