<?xml version="1.0" ?><svg data-name="Layer 1" id="Layer_1" viewBox="0 0 32 32" xmlns="http://www.w3.org/2000/svg"><defs><style>.cls-1{fill:#f43b33;}</style></defs><title/><path class="cls-1" d="M22.53,7.6h.3a9.41,9.41,0,0,0-11.39,0H22.53Z"/><path class="cls-1" d="M11.74,25.71h-.3a9.45,9.45,0,0,0,11.39,0H11.74Z"/><path class="cls-1" d="M7.05,16.66a11.25,11.25,0,0,1,4.39-9,5.86,5.86,0,0,0-5.27,6.05v6a5.87,5.87,0,0,0,5.27,6.05A11.27,11.27,0,0,1,7.05,16.66Z"/><path class="cls-1" d="M22.83,7.61a11.25,11.25,0,0,1,4.39,9.05,11.27,11.27,0,0,1-4.39,9.05,5.87,5.87,0,0,0,5.27-6.05v-6A5.86,5.86,0,0,0,22.83,7.61Z"/><path class="cls-1" d="M18.57,18.82a2.16,2.16,0,0,1-.31.29,2.39,2.39,0,0,1-.41.26,1.92,1.92,0,0,1-.51.18,2.32,2.32,0,0,1-.61.07A2.39,2.39,0,0,1,16,19.5a1.7,1.7,0,0,1-.61-.36,1.53,1.53,0,0,1-.39-.55,1.73,1.73,0,0,1-.15-.73,2,2,0,0,1,.16-.79,1.62,1.62,0,0,1,.46-.58,2,2,0,0,1,.7-.38,3.82,3.82,0,0,1,1.73,0,4.73,4.73,0,0,1,.63.18h0V15.9a2.21,2.21,0,0,0-.08-.59,1,1,0,0,0-.25-.45,1.17,1.17,0,0,0-.47-.29,2.12,2.12,0,0,0-.72-.1,3.93,3.93,0,0,0-.86.08,6.15,6.15,0,0,0-.81.23V14a2.61,2.61,0,0,1,.37-.14l.43-.11a3.46,3.46,0,0,1,.48-.07l.51,0a3.07,3.07,0,0,1,1.06.16,1.86,1.86,0,0,1,.74.43,1.6,1.6,0,0,1,.44.67,2.5,2.5,0,0,1,.15.88v2.41a.88.88,0,0,0,.1.48.43.43,0,0,0,.39.15,1.1,1.1,0,0,0,.64-.22,1.84,1.84,0,0,0,.5-.59,3.21,3.21,0,0,0,.33-.86,4.44,4.44,0,0,0,.12-1.05,4.22,4.22,0,0,0-.35-1.76,3.56,3.56,0,0,0-.93-1.28,4.21,4.21,0,0,0-1.39-.78,5.5,5.5,0,0,0-1.7-.26,5.43,5.43,0,0,0-1.45.18,4.19,4.19,0,0,0-1.16.5,3.72,3.72,0,0,0-.87.76,4.37,4.37,0,0,0-.6,1,5.2,5.2,0,0,0-.34,1.12,6.16,6.16,0,0,0-.12,1.22,5.36,5.36,0,0,0,.3,1.83A3.92,3.92,0,0,0,13.87,20a4.11,4.11,0,0,0,1.47.95,5.9,5.9,0,0,0,2.06.33,9.08,9.08,0,0,0,1.06-.05,8.47,8.47,0,0,0,.94-.14,7.26,7.26,0,0,0,.8-.19,5.37,5.37,0,0,0,.65-.23v.84l-.67.22c-.26.07-.54.13-.85.19s-.62.1-1,.13-.69.05-1,.05A7.31,7.31,0,0,1,15.83,22a6,6,0,0,1-1.34-.45,4.89,4.89,0,0,1-1.14-.75,5,5,0,0,1-.9-1,5.17,5.17,0,0,1-.59-1.33,5.94,5.94,0,0,1-.21-1.62,6.38,6.38,0,0,1,.4-2.32,5,5,0,0,1,1.13-1.78,5,5,0,0,1,1.76-1.13,6.35,6.35,0,0,1,2.32-.4,6.18,6.18,0,0,1,2.15.35,5.09,5.09,0,0,1,1.7,1A4.7,4.7,0,0,1,22.22,14a5.15,5.15,0,0,1,.18,3.48,3.5,3.5,0,0,1-.58,1.14,2.61,2.61,0,0,1-.88.71,2.36,2.36,0,0,1-1.09.25,1.9,1.9,0,0,1-.5-.06,1.2,1.2,0,0,1-.36-.17.82.82,0,0,1-.24-.25,1,1,0,0,1-.15-.32ZM18.52,17l-.28-.08-.3-.07-.34-.05-.42,0a1.63,1.63,0,0,0-1,.26.92.92,0,0,0-.36.8.88.88,0,0,0,.09.41.73.73,0,0,0,.22.3.92.92,0,0,0,.34.18,1.31,1.31,0,0,0,.41.06,1.49,1.49,0,0,0,.47-.07,2.09,2.09,0,0,0,.44-.16,2.45,2.45,0,0,0,.38-.24l.33-.27Z"/></svg>