<?xml version="1.0" ?><svg data-name="Layer 1" id="Layer_1" viewBox="0 0 32 32" xmlns="http://www.w3.org/2000/svg"><defs><style>.cls-1{fill:#f43b33;}</style></defs><title/><path class="cls-1" d="M21.36,7.19h.3a9.41,9.41,0,0,0-11.39,0H21.36Z"/><path class="cls-1" d="M10.57,25.3h-.3a9.41,9.41,0,0,0,11.39,0H10.57Z"/><path class="cls-1" d="M5.88,16.25a11.25,11.25,0,0,1,4.39-9,5.86,5.86,0,0,0-5.27,6v6a5.86,5.86,0,0,0,5.27,6A11.23,11.23,0,0,1,5.88,16.25Z"/><path class="cls-1" d="M21.66,7.2a11.25,11.25,0,0,1,4.39,9.05,11.23,11.23,0,0,1-4.39,9,5.85,5.85,0,0,0,5.27-6v-6A5.85,5.85,0,0,0,21.66,7.2Z"/><path class="cls-1" d="M9.39,16.31a2.62,2.62,0,0,1,.07-.66,2.17,2.17,0,0,1,.2-.51,1.45,1.45,0,0,1,.28-.36,2.19,2.19,0,0,1,.33-.23,1.25,1.25,0,0,1,.35-.13,1.37,1.37,0,0,1,.34,0,1.26,1.26,0,0,1,.57.11,1.31,1.31,0,0,1,.43.32h0v-2a.2.2,0,0,1,.19-.19h.2a.19.19,0,0,1,.19.19v5.08a.18.18,0,0,1-.19.19h-.1a.2.2,0,0,1-.19-.13L12,17.65h0l-.16.18a1.16,1.16,0,0,1-.21.16.86.86,0,0,1-.28.11,1.38,1.38,0,0,1-.37,0,1.91,1.91,0,0,1-.58-.1,1.47,1.47,0,0,1-.5-.32,1.64,1.64,0,0,1-.36-.57A2.37,2.37,0,0,1,9.39,16.31Zm.61,0a2,2,0,0,0,.07.56,1.14,1.14,0,0,0,.2.43.88.88,0,0,0,.76.36,1.21,1.21,0,0,0,.34,0,.89.89,0,0,0,.26-.12,1.92,1.92,0,0,0,.21-.16l.09-.1a.28.28,0,0,0,0-.12V15.37a.18.18,0,0,0-.06-.14,1.13,1.13,0,0,0-.36-.24,1.19,1.19,0,0,0-.51-.11,1.06,1.06,0,0,0-.34.06.83.83,0,0,0-.34.22,1.25,1.25,0,0,0-.26.44A2,2,0,0,0,10,16.3Z"/><path class="cls-1" d="M13.74,13.45v-.27a.2.2,0,0,1,.19-.2h.2a.19.19,0,0,1,.19.2v.27a.19.19,0,0,1-.19.19h-.2A.2.2,0,0,1,13.74,13.45Zm0,4.41v-3.2a.19.19,0,0,1,.19-.19h.2a.2.2,0,0,1,.19.19v3.2a.19.19,0,0,1-.19.19H14A.18.18,0,0,1,13.76,17.86Z"/><path class="cls-1" d="M16.89,14.38a1.2,1.2,0,0,1,.4.06.83.83,0,0,1,.3.14.85.85,0,0,1,.2.17l.1.13h0l.08-.27a.19.19,0,0,1,.18-.14h.11a.19.19,0,0,1,.19.19v3.6a1.83,1.83,0,0,1-.13.73,1.48,1.48,0,0,1-.38.51,1.82,1.82,0,0,1-.59.3,2.64,2.64,0,0,1-.76.1,2.93,2.93,0,0,1-.63-.06,1.87,1.87,0,0,1-.33-.1.18.18,0,0,1-.11-.17v-.11a.2.2,0,0,1,.25-.18h0l.25.07.26,0h.29a1.43,1.43,0,0,0,1-.29,1.13,1.13,0,0,0,.34-.9v-.48h0a1.28,1.28,0,0,1-.45.32,1.5,1.5,0,0,1-.58.11,1.22,1.22,0,0,1-.32,0,1.57,1.57,0,0,1-.35-.11,2.1,2.1,0,0,1-.33-.22,1.52,1.52,0,0,1-.28-.33,2.09,2.09,0,0,1-.19-.48,2.41,2.41,0,0,1-.07-.64,2.57,2.57,0,0,1,.13-.87,1.78,1.78,0,0,1,.36-.6,1.26,1.26,0,0,1,.51-.36A1.48,1.48,0,0,1,16.89,14.38Zm-1,1.9A1.86,1.86,0,0,0,16,17a1.07,1.07,0,0,0,.25.42,1,1,0,0,0,.34.21,1.55,1.55,0,0,0,.35,0,1.26,1.26,0,0,0,.51-.11,1.41,1.41,0,0,0,.36-.24.2.2,0,0,0,.06-.14V15.43a.21.21,0,0,0-.05-.12l-.09-.1a1.16,1.16,0,0,0-.2-.16.89.89,0,0,0-.26-.12,1.07,1.07,0,0,0-.32,0,1,1,0,0,0-.46.1,1,1,0,0,0-.33.29,1.63,1.63,0,0,0-.2.44A2.62,2.62,0,0,0,15.91,16.28Z"/><path class="cls-1" d="M21,14.38a1.27,1.27,0,0,1,.41.06.87.87,0,0,1,.29.14.69.69,0,0,1,.2.17.76.76,0,0,1,.1.13h0l.08-.27a.18.18,0,0,1,.18-.14h.1a.2.2,0,0,1,.2.19v3.6a1.83,1.83,0,0,1-.14.73,1.48,1.48,0,0,1-.38.51,1.73,1.73,0,0,1-.59.3,2.59,2.59,0,0,1-.76.1,3.06,3.06,0,0,1-.63-.06,2,2,0,0,1-.32-.1.18.18,0,0,1-.12-.17v-.11a.2.2,0,0,1,.25-.18h0l.25.07.26,0h.3a1.45,1.45,0,0,0,1-.29,1.16,1.16,0,0,0,.33-.9v-.48h0a1.25,1.25,0,0,1-.44.32,1.54,1.54,0,0,1-.58.11,1.35,1.35,0,0,1-.33,0,1.5,1.5,0,0,1-.34-.11,1.46,1.46,0,0,1-.33-.22,1.29,1.29,0,0,1-.28-.33,2.1,2.1,0,0,1-.2-.48,2.91,2.91,0,0,1-.07-.64,2.56,2.56,0,0,1,.14-.87,1.94,1.94,0,0,1,.35-.6,1.26,1.26,0,0,1,.51-.36A1.52,1.52,0,0,1,21,14.38Zm-1,1.9a1.86,1.86,0,0,0,.1.69,1.08,1.08,0,0,0,.26.42.88.88,0,0,0,.34.21,1.48,1.48,0,0,0,.35,0,1.26,1.26,0,0,0,.51-.11,1.41,1.41,0,0,0,.36-.24.24.24,0,0,0,.05-.14V15.43a.19.19,0,0,0,0-.12l-.09-.1-.2-.16a1.23,1.23,0,0,0-.26-.12,1.13,1.13,0,0,0-.32,0,1,1,0,0,0-.46.1,1,1,0,0,0-.33.29,1.19,1.19,0,0,0-.2.44A2.12,2.12,0,0,0,20,16.28Z"/></svg>