<?xml version="1.0" ?><svg data-name="Layer 1" id="Layer_1" viewBox="0 0 32 32" xmlns="http://www.w3.org/2000/svg"><defs><style>.cls-1{fill:#f43b33;}</style></defs><title/><path class="cls-1" d="M21.36,6.83h.3a9.41,9.41,0,0,0-11.39,0H21.36Z"/><path class="cls-1" d="M10.57,24.94h-.3a9.41,9.41,0,0,0,11.39,0H10.57Z"/><path class="cls-1" d="M5.88,15.88a11.23,11.23,0,0,1,4.39-9,5.86,5.86,0,0,0-5.27,6v6a5.86,5.86,0,0,0,5.27,6A11.24,11.24,0,0,1,5.88,15.88Z"/><path class="cls-1" d="M21.66,6.84a11.23,11.23,0,0,1,4.39,9,11.24,11.24,0,0,1-4.39,9,5.85,5.85,0,0,0,5.27-6v-6A5.85,5.85,0,0,0,21.66,6.84Z"/><ellipse class="cls-1" cx="11.89" cy="14.59" rx="0.92" ry="1.5"/><ellipse class="cls-1" cx="19.99" cy="14.59" rx="0.92" ry="1.5"/><ellipse class="cls-1" cx="14.38" cy="12.07" rx="1.25" ry="2.03"/><ellipse class="cls-1" cx="17.55" cy="12.07" rx="1.25" ry="2.03"/><path class="cls-1" d="M24,21.73h0l0,0Z"/><path class="cls-1" d="M19.78,17.22,18.58,16a3.54,3.54,0,0,0-5.23,0l-1.19,1.27a2.29,2.29,0,0,0,1.5,3.87h4.62A2.29,2.29,0,0,0,19.78,17.22Z"/><path class="cls-1" d="M8,21.71l0,0H8Z"/></svg>