<?xml version="1.0" ?><svg data-name="Layer 1" id="Layer_1" viewBox="0 0 32 32" xmlns="http://www.w3.org/2000/svg"><defs><style>.cls-1{fill:#f43b33;}</style></defs><title/><path class="cls-1" d="M22.41,7.6h.3a9.41,9.41,0,0,0-11.39,0H22.41Z"/><path class="cls-1" d="M11.62,25.71h-.3a9.45,9.45,0,0,0,11.39,0H11.62Z"/><path class="cls-1" d="M6.93,16.66a11.25,11.25,0,0,1,4.39-9,5.86,5.86,0,0,0-5.27,6.05v6a5.87,5.87,0,0,0,5.27,6.05A11.27,11.27,0,0,1,6.93,16.66Z"/><path class="cls-1" d="M22.71,7.61a11.25,11.25,0,0,1,4.39,9.05,11.27,11.27,0,0,1-4.39,9.05A5.88,5.88,0,0,0,28,19.66v-6A5.87,5.87,0,0,0,22.71,7.61Z"/><path class="cls-1" d="M18.55,11.2a6.05,6.05,0,0,1,1.16.39.18.18,0,0,1,.11.17v1.29a.19.19,0,0,1-.26.18,5.78,5.78,0,0,0-1.11-.37,5.42,5.42,0,0,0-1.22-.15,2,2,0,0,0-1.28.36,1.28,1.28,0,0,0-.45,1.07,1.4,1.4,0,0,0,.15.68,1.2,1.2,0,0,0,.4.44,2.08,2.08,0,0,0,.58.28c.22.07.45.13.7.19a11.12,11.12,0,0,1,1.11.34,3.09,3.09,0,0,1,.94.53,2.29,2.29,0,0,1,.65.89,3.49,3.49,0,0,1,.24,1.4A3.84,3.84,0,0,1,20,20.4a3.21,3.21,0,0,1-.24.45.19.19,0,0,0,.21.29l3.1-.83a.19.19,0,0,0,.13-.24L20.66,10.6a.18.18,0,0,0-.23-.13L18.54,11a.11.11,0,0,0,0,.22Z"/><path class="cls-1" d="M15,22.11a4,4,0,0,1-1.12-.44.19.19,0,0,1-.09-.16V20.25a.19.19,0,0,1,.27-.18,6.08,6.08,0,0,0,1.05.38,5.9,5.9,0,0,0,1.33.15,4,4,0,0,0,.78-.07,1.92,1.92,0,0,0,.69-.27,1.31,1.31,0,0,0,.49-.5,1.52,1.52,0,0,0,.19-.79,1.21,1.21,0,0,0-.17-.67,1.37,1.37,0,0,0-.47-.42,3.24,3.24,0,0,0-.66-.26c-.24-.07-.5-.14-.77-.2a7.61,7.61,0,0,1-1-.33,2.7,2.7,0,0,1-.86-.53,2.43,2.43,0,0,1-.59-.85,3.49,3.49,0,0,1-.22-1.3,4,4,0,0,1,.26-1.49,3.38,3.38,0,0,1,.22-.47.18.18,0,0,0-.21-.27L11,13a.19.19,0,0,0-.14.23l2.54,9.47a.21.21,0,0,0,.24.14L15,22.48a.19.19,0,0,0,0-.37Z"/></svg>