<?xml version="1.0" ?><!DOCTYPE svg  PUBLIC '-//W3C//DTD SVG 1.1//EN'  'http://www.w3.org/Graphics/SVG/1.1/DTD/svg11.dtd'><svg enable-background="new 0 0 66 66" id="Layer_1" version="1.1" viewBox="0 0 66 66" xml:space="preserve" xmlns="http://www.w3.org/2000/svg" xmlns:xlink="http://www.w3.org/1999/xlink"><g><g><rect fill="#27A2DB" height="64" width="64" x="1" y="1"/><rect fill="#1C75A1" height="8" width="64" x="1" y="57"/></g><g><path d="M46.4,33h-1c2.1-4.1-2.1-8.2-7.2-8.2c-0.6,0-1,0-1,0c-0.6,0-1,0.5-1,1v14.4c0,0.6,0.5,1,1,1    h4.1h2.1h3.1c2.3,0,4.1-1.8,4.1-4.1C50.5,34.8,48.7,33,46.4,33z" fill="#FFFFFF" id="Cloud_1_"/><path d="M20.6,32.9c-0.6,0-1,0.5-1,1v6.3c0,0.6,0.5,1,1,1s1-0.5,1-1v-6.3C21.7,33.4,21.2,32.9,20.6,32.9z" fill="#FFFFFF"/><path d="M28.9,25.8c-0.6,0-1,0.5-1,1v13.4c0,0.6,0.5,1,1,1s1-0.5,1-1V26.8C29.9,26.3,29.5,25.8,28.9,25.8z" fill="#FFFFFF"/><path d="M33,28.9c-0.6,0-1,0.5-1,1v10.3c0,0.6,0.5,1,1,1c0.6,0,1-0.5,1-1V29.9C34,29.3,33.6,28.9,33,28.9z" fill="#FFFFFF"/><path d="M24.8,29.9c-0.6,0-1,0.5-1,1v9.3c0,0.6,0.5,1,1,1s1-0.5,1-1v-9.3C25.8,30.4,25.3,29.9,24.8,29.9z" fill="#FFFFFF"/><path d="M16.5,36c-0.6,0-1,0.5-1,1v3.2c0,0.6,0.5,1,1,1s1-0.5,1-1V37C17.6,36.5,17.1,36,16.5,36z" fill="#FFFFFF"/></g></g></svg>