<?xml version="1.0" ?><!DOCTYPE svg  PUBLIC '-//W3C//DTD SVG 1.1//EN'  'http://www.w3.org/Graphics/SVG/1.1/DTD/svg11.dtd'><svg enable-background="new 0 0 66 66" id="Layer_1" version="1.1" viewBox="0 0 66 66" xml:space="preserve" xmlns="http://www.w3.org/2000/svg" xmlns:xlink="http://www.w3.org/1999/xlink"><g><g><rect fill="#27A2DB" height="64" width="64" x="1" y="1"/><rect fill="#1C75A1" height="8" width="64" x="1" y="57"/></g><g><path d="M49.4,37.1c-0.1-0.2-0.1-0.5-0.1-0.7c0.4-2,0.4-3.9,0.1-5.9c-1.4-8.7-9.6-14.8-18.3-13.6    c-0.5,0.1-0.9,0-1.4-0.3c-3.7-2-8.2-1.3-11.2,1.6c-2.9,2.9-3.7,7.4-1.8,11.1c0.2,0.4,0.3,0.7,0.2,1.2c-0.2,0.9-0.2,1.8-0.2,2.7    c0,0.5,0,1.1,0.1,1.7c1,9.4,9.6,16,19,14.5c0.3,0,0.5,0,0.8,0.1c1.8,0.9,3.7,1.1,5.6,0.8C48.5,49.4,52,42.9,49.4,37.1z M41.3,41.5    c-1.1,1.2-2.4,2-3.9,2.4c-2.8,0.8-5.7,0.8-8.5,0c-2.6-0.8-4.5-2.4-5.2-5c-0.5-1.9,0.7-3.3,2.6-3.1c0.8,0.1,1.3,0.6,1.7,1.3    c0.2,0.4,0.4,0.9,0.7,1.3c0.7,1.4,1.8,2.2,3.4,2.4c1.3,0.1,2.6,0.1,3.8-0.5c0.5-0.2,0.9-0.5,1.2-0.9c0.9-1,0.7-2.5-0.4-3.3    c-1.1-0.8-2.4-1-3.6-1.3c-1.8-0.4-3.6-0.8-5.3-1.5c-1.7-0.8-3.2-1.9-3.6-3.9c-0.5-2.3,0.1-4.2,1.9-5.7c1.6-1.3,3.6-1.7,5.6-1.9    c0.5,0,0.9,0,1.4,0c1.9-0.1,3.7,0.2,5.3,1.1c1.3,0.7,2.3,1.5,3,2.9c0.3,0.7,0.4,1.4,0.3,2.1c-0.2,0.8-0.8,1.4-1.7,1.6    c-0.9,0.2-1.8,0-2.3-0.8c-0.3-0.4-0.5-0.8-0.8-1.2c-0.8-1.3-1.9-2.1-3.5-2.1c-0.7,0-1.4,0-2.2,0.2c-0.6,0.2-1.2,0.4-1.7,0.9    c-0.9,0.8-0.8,1.9,0.1,2.6c0.6,0.5,1.3,0.8,2.1,0.9c1.7,0.4,3.5,0.9,5.2,1.3c0.9,0.2,1.8,0.6,2.7,1.1    C43.6,34.2,43.3,39.1,41.3,41.5z" fill="#FFFFFF" id="S_2_"/></g></g></svg>