<?xml version="1.0" ?><!DOCTYPE svg  PUBLIC '-//W3C//DTD SVG 1.1//EN'  'http://www.w3.org/Graphics/SVG/1.1/DTD/svg11.dtd'><svg enable-background="new 0 0 66 66" id="Layer_1" version="1.1" viewBox="0 0 66 66" xml:space="preserve" xmlns="http://www.w3.org/2000/svg" xmlns:xlink="http://www.w3.org/1999/xlink"><g><g><rect fill="#EBF0F3" height="64" width="64" x="1" y="1"/><rect fill="#D5D6DB" height="8" width="64" x="1" y="57"/></g><g><path d="M24.3,30.7h-7.6c-1.2,0-1.2,1.2-1.2,1.2v3.5c0,0,0,1.2,1.2,1.2h4.7L24.3,30.7z" fill="#2F4859"/><path d="M21.3,45.5l-2.1-1.2c-0.4-0.2-0.7,0-0.8,0.4L18,47.8c-0.1,0.4,0.2,0.6,0.6,0.4l2.7-1.9    C21.7,46.1,21.7,45.7,21.3,45.5z" fill="#2F4859"/><path d="M32.9,27.2c0.2-0.4,0.1-0.9-0.3-1.1l-2.1-1.2c-0.4-0.2-0.9-0.1-1.1,0.3l-3.2,5.6l-3.6,6.2l-3,5.2    c-0.2,0.4-0.1,0.9,0.3,1.1l2.1,1.2c0.4,0.2,0.9,0.1,1.1-0.3l4.1-7.2l2.7-4.7L32.9,27.2z" fill="#2F4859"/><polygon fill="#2F4859" points="32.4,30.7 29.5,36.5 38.3,36.5 35.3,30.7   "/><path d="M44.3,37.1C44.3,37.1,44.3,37.1,44.3,37.1c-0.2-0.4-0.7-1.4-1.4-2.6c0,0,0,0,0-0.1    c-0.1-0.1-0.1-0.2-0.2-0.3c0-0.1-0.1-0.1-0.1-0.2c0-0.1-0.1-0.1-0.1-0.2c-0.1-0.1-0.1-0.2-0.2-0.3c0,0,0-0.1-0.1-0.1    c-0.1-0.1-0.1-0.3-0.2-0.4c0,0,0-0.1-0.1-0.1c-1.5-2.8-3.4-6.3-4.5-8.1c-2-3.2-4.7-8.5-5.5-8.1c-1,0.5,2.2,7.3,3.3,9.8    s5.3,12.2,6.1,12.7c0.8,0.4,1.2,0.2,1.7,0C43.8,38.9,44.8,38.1,44.3,37.1z" fill="#2F4859"/><path d="M46.7,42.1l-1-1.9c-0.2-0.4-0.8-0.6-1.2-0.4l-1.2,0.6c-0.4,0.2-0.6,0.7-0.3,1.2l1.3,2    c0.3,0.4,0.8,0.5,1.2,0.3l0.9-0.5C46.8,43.1,46.9,42.6,46.7,42.1z" fill="#2F4859"/><path d="M46.4,44.9c-0.3,0.3-1.1,1-0.2,2.2c0.9,1.3,2.9,1.3,3.2,2.2C49.4,49.3,50.1,42.8,46.4,44.9z" fill="#2F4859"/><path d="M42.9,30.7h6.4c1.2,0,1.2,1.2,1.2,1.2v3.5c0,0,0,1.2-1.2,1.2h-3.5L42.9,30.7z" fill="#2F4859"/></g></g></svg>