<?xml version="1.0" ?><!DOCTYPE svg  PUBLIC '-//W3C//DTD SVG 1.1//EN'  'http://www.w3.org/Graphics/SVG/1.1/DTD/svg11.dtd'><svg enable-background="new 0 0 66 66" id="Layer_1" version="1.1" viewBox="0 0 66 66" xml:space="preserve" xmlns="http://www.w3.org/2000/svg" xmlns:xlink="http://www.w3.org/1999/xlink"><g><g><rect fill="#EBF0F3" height="64" transform="matrix(-1 -4.490642e-11 4.490642e-11 -1 66 66)" width="64" x="1" y="1"/><rect fill="#D5D6DB" height="8" transform="matrix(-1 -4.490642e-11 4.490642e-11 -1 66 122)" width="64" x="1" y="57"/></g><g><path d="M45.4,43.8c-0.2,0-0.4,0-0.5,0.1c-0.2,0.1-0.4,0.2-0.6,0.2l-0.3,0.1l-0.3,0.1v0    C40,46,35.3,47,31.8,47c-3.5,0-10.3-2.7-15-5.3c-0.2-0.1-0.3-0.1-0.5-0.1c-0.2,0-0.4,0.1-0.6,0.2c-0.2,0.1-0.3,0.4-0.3,0.6    c0,0.3,0.2,0.5,0.4,0.7c4.4,3.9,10.2,7.4,16,7.4c5.9,0,9.1-1.5,12.7-3.8l0,0c0.5-0.3,0.8-0.5,1.2-0.9c0.3-0.2,0.7-0.7,0.7-1    C46.5,44.2,46,43.8,45.4,43.8z" fill="#2F4859" id="_x29__5_"/><path d="M50.5,41.7L50.5,41.7c0-0.4-0.1-0.6-0.2-0.9l0,0l0,0c-0.2-0.2-0.3-0.2-0.5-0.3    c-0.5-0.2-1.2-0.3-2-0.3c-0.6,0-1.3,0.1-1.9,0.2l0,0l-0.7,0.2l0,0l-0.4,0.1v0c-0.4,0.2-0.9,0.4-1.2,0.7c-0.2,0.2-0.4,0.4-0.4,0.8    c0,0.2,0.1,0.4,0.3,0.5c0.2,0.1,0.4,0.2,0.5,0.2c0,0,0.1,0,0.1,0l0,0l0,0c0.3-0.1,0.8-0.1,1.4-0.2c0.5-0.1,1-0.1,1.4-0.1    c0.3,0,0.6,0,0.8,0.1c0.1,0,0.2,0,0.2,0.1c0,0,0,0,0,0c0,0,0,0.1,0,0.2c0,0.4-0.2,1.1-0.4,1.7c-0.2,0.7-0.5,1.3-0.6,1.8    c0,0.1-0.1,0.2-0.1,0.3c0,0.2,0.1,0.4,0.2,0.5c0.2,0.1,0.4,0.2,0.5,0.2h0c0.2,0,0.5-0.1,0.6-0.2c1.7-1.5,2.3-4,2.3-5.4L50.5,41.7z    " fill="#2F4859" id="_x3E__5_"/><path d="M35.3,24.8c-2.3,0-7,1.3-9.3,2.3c-2.8,1.3-4.7,3.4-4.7,7c0,4.6,3.3,7,7,7c1.2,0,4.7,0,7-3.5    c0.9,1.2,1.5,1.7,2.9,2.9c0.4,0.2,0.8,0.2,1.1-0.1c0.9-0.8,2.6-2.2,3.4-2.9c0.4-0.3,0.3-0.8,0.1-1.2c-0.8-1.1-1.7-2.5-1.7-4.6v-7    c0-2.9-0.2-5-2.3-7c-1.8-1.6-3.7-2.3-5.8-2.3h-1.2c-3.9,0.2-8.4,1.9-9.3,6.8c-0.2,0.6,0.3,0.8,0.6,0.9l4.3,0.5    c0.5-0.1,0.7-0.5,0.8-0.8c0.4-1.7,0.9-2.6,2.4-2.7l1.2,0c0.9,0,1.8,0.3,2.3,1.1C34.8,22.3,35.3,23.7,35.3,24.8L35.3,24.8    L35.3,24.8z M31.6,36.4c-0.2,0-0.4,0.1-0.6,0.1c-1.7,0-2.6-1.6-2.6-3.5c0-4.7,5.8-4.7,7-4.7v1.2C35.3,35.3,32.6,36.2,31.6,36.4z" fill="#2F4859" id="a_5_"/></g></g></svg>