<?xml version="1.0" ?><!DOCTYPE svg  PUBLIC '-//W3C//DTD SVG 1.1//EN'  'http://www.w3.org/Graphics/SVG/1.1/DTD/svg11.dtd'><svg enable-background="new 0 0 66 66" id="Layer_1" version="1.1" viewBox="0 0 66 66" xml:space="preserve" xmlns="http://www.w3.org/2000/svg" xmlns:xlink="http://www.w3.org/1999/xlink"><g><g><rect fill="#FCD462" height="64" width="64" x="1" y="1"/><rect fill="#F6C358" height="8" width="64" x="1" y="57"/></g><g><path d="M28.3,48.2c1.3,1,3.5,2.3,4.7,2.3c2.3,0,3.7-1,5.8-3.5c3.8-4.4,4.6-6.6,5.8-9.3    c2.3,0,4.7-1.2,4.7-1.2V33c0,0-4,0-4.7,0c-5,0.1-10.5-5.8-7-10.5c0,0,1.2-1.2,2.3-1.2s2,0.6,2.3,1.2c0.8,1.2,1.2,3.5,0,5.8    c1.2,2.3,4.7,2.3,5.8,1.2c1.2-1.2,2.3-7.5-1.2-11.7c-1.3-1.3-3.5-2.3-7-2.3c-2.3,0-3.3,0.3-4.7,1.2c-3.8,2.3-3.8,6.9-3.5,9.3    c0.3,2.4,2,7.7,7,10.5c0.4,0.5-5.5,9.7-5.8,9.3c-8.2-7-10.5-24.5-10.5-24.5h-5.8C16.7,21.3,18.9,40.9,28.3,48.2z" fill="#DC8744" id="V_1_"/></g></g></svg>