<?xml version="1.0" ?><!DOCTYPE svg  PUBLIC '-//W3C//DTD SVG 1.1//EN'  'http://www.w3.org/Graphics/SVG/1.1/DTD/svg11.dtd'><svg enable-background="new 0 0 66 66" id="Layer_1" version="1.1" viewBox="0 0 66 66" xml:space="preserve" xmlns="http://www.w3.org/2000/svg" xmlns:xlink="http://www.w3.org/1999/xlink"><g><g><rect fill="#27A2DB" height="64" width="64" x="1" y="1"/><rect fill="#1C75A1" height="8" width="64" x="1" y="57"/></g><g><circle cx="23.7" cy="33" fill="#FFFFFF" id="_x28____x29__2_" r="8.2"/><path d="M42.3,24.8c-4.5,0-8.2,3.7-8.2,8.2c0,4.5,3.7,8.2,8.2,8.2s8.2-3.7,8.2-8.2C50.5,28.5,46.8,24.8,42.3,24.8z     M42.3,38.8c-3.2,0-5.8-2.6-5.8-5.8c0-3.2,2.6-5.8,5.8-5.8c3.2,0,5.8,2.6,5.8,5.8C48.2,36.2,45.6,38.8,42.3,38.8z" fill="#FFFFFF"/></g></g></svg>