<?xml version="1.0" ?><!DOCTYPE svg  PUBLIC '-//W3C//DTD SVG 1.1//EN'  'http://www.w3.org/Graphics/SVG/1.1/DTD/svg11.dtd'><svg enable-background="new 0 0 66 66" id="Layer_1" version="1.1" viewBox="0 0 66 66" xml:space="preserve" xmlns="http://www.w3.org/2000/svg" xmlns:xlink="http://www.w3.org/1999/xlink"><g><g><rect fill="#E56353" height="64" width="64" x="1" y="1"/><rect fill="#D15241" height="8" width="64" x="1" y="57"/></g><path d="M50.1,26.1c0,0-0.3-2.4-1.4-3.5c-1.3-1.4-2.8-1.4-3.5-1.5C40.4,20.7,33,20.7,33,20.7s-7.4,0-12.3,0.4   c-0.7,0.1-2.2,0.1-3.5,1.5c-1,1.1-1.4,3.5-1.4,3.5s-0.3,2.4-0.3,5.2v3.5c0,2.8,0.3,5.3,0.3,5.3s0.3,2.4,1.4,3.5   c1.3,1.4,3.1,1.3,3.9,1.5c2.8,0.3,11.9,0.2,11.9,0.2s7.4,0.1,12.3-0.2c0.7-0.1,2.2-0.1,3.5-1.5c1-1.1,1.4-3.5,1.4-3.5   s0.4-2.5,0.4-5.3v-3.5C50.5,28.4,50.1,26.1,50.1,26.1z M28.3,37.7v-9.3l9.3,4.7L28.3,37.7z" fill="#FFFFFF"/></g></svg>