<?xml version="1.0" ?><!DOCTYPE svg  PUBLIC '-//W3C//DTD SVG 1.1//EN'  'http://www.w3.org/Graphics/SVG/1.1/DTD/svg11.dtd'><svg enable-background="new 0 0 66 66" id="Layer_1" version="1.1" viewBox="0 0 66 66" xml:space="preserve" xmlns="http://www.w3.org/2000/svg" xmlns:xlink="http://www.w3.org/1999/xlink"><g><g><rect fill="#EBF0F3" height="64" transform="matrix(-1 -4.490642e-11 4.490642e-11 -1 66 66)" width="64" x="1" y="1"/><rect fill="#D5D6DB" height="8" transform="matrix(-1 -4.490642e-11 4.490642e-11 -1 66 122)" width="64" x="1" y="57"/></g><g><path d="M45.8,31.8c-2.2-0.7-4.7-1.8-4.7-3.5c0-1.2,1.2-2.3,2.3-2.3s2.3,1.2,2.3,1.2l2.3-1.2    c0,0-1.2-3.5-4.7-3.5c-3.5,0-5.8,2.5-5.8,5.8c0,2.3,2.3,4.7,5.8,5.8C45.9,35,47,36,47,37.7c0,2.3-2.3,2.3-3.5,2.3    c-2.3,0-3.5-1.2-4.7-3.5c-1.6-3.6-3.5-8.1-3.5-8.2c-2-3.7-3.5-5.8-9.3-5.9c-5.9,0-10.5,4.7-10.5,10.5c0,5.8,4.7,10.6,10.5,10.5    c5.8,0,8.1-3.5,8.1-3.5L33,36.5c0,0-2.3,3.5-7,3.5s-7-3-7-7c0-4,3.5-7,7-7c4.7,0,5.8,2.3,7,4.7l3.5,8.2c1.2,2.3,2.3,4.7,7,4.7    s7-2.8,7-6.3C50.5,33,45.8,31.8,45.8,31.8z" fill="#2F4859" id="as_ligature"/></g></g></svg>