<?xml version="1.0" ?><!DOCTYPE svg  PUBLIC '-//W3C//DTD SVG 1.1//EN'  'http://www.w3.org/Graphics/SVG/1.1/DTD/svg11.dtd'><svg enable-background="new 0 0 66 66" id="Layer_1" version="1.1" viewBox="0 0 66 66" xml:space="preserve" xmlns="http://www.w3.org/2000/svg" xmlns:xlink="http://www.w3.org/1999/xlink"><g><g><rect fill="#E56353" height="64" width="64" x="1" y="1"/><rect fill="#D15241" height="8" width="64" x="1" y="57"/></g><g><path d="M30.5,36.8c-3.4,0-5,3.2-5,6.3l0,0c0,1.3,0,1.3,1.3,1.3h7.5c1.3,0,1.3,0,1.3-1.3l0,0    C35.5,39.9,33.9,36.8,30.5,36.8z" fill="#FFFFFF"/><circle cx="30.5" cy="30.5" fill="#FFFFFF" r="5"/><path d="M44.3,35.5c-3.4,0-6.3,3.2-6.3,6.3V43c0,1.3,0,1.3,1.3,1.3h5h5c1.3,0,1.3,0,1.3-1.3v-1.3    C50.5,38.7,47.7,35.5,44.3,35.5z" fill="#FFFFFF"/><circle cx="44.3" cy="28" fill="#FFFFFF" r="6.3"/><path d="M19.3,38c-2.5,0-3.8,2.5-3.8,3.8V43c0,1.3,0,1.3,1.3,1.3h5c1.3,0,1.3,0,1.3-1.3v-1.3    C23,40.5,21.8,38,19.3,38z" fill="#FFFFFF"/><circle cx="19.3" cy="33" fill="#FFFFFF" r="3.8"/></g></g></svg>