<?xml version="1.0" ?><svg id="Layer_1" style="enable-background:new 0 0 128 128;" version="1.1" viewBox="0 0 128 128" xml:space="preserve" xmlns="http://www.w3.org/2000/svg" xmlns:xlink="http://www.w3.org/1999/xlink"><style type="text/css">
	.st0{fill:#FFFFFF;}
	.st1{fill:none;stroke:#444B54;stroke-width:6;stroke-linecap:round;stroke-linejoin:round;stroke-miterlimit:10;}
	.st2{fill:#76ECFF;}
	.st3{fill:#E4E7E7;}
	.st4{fill:#FF697B;}
	.st5{fill:#659EC9;}
	.st6{fill:#444B54;}
	.st7{fill:#A4F4C4;}
	.st8{fill:#06A18C;}
	.st9{fill:#8FE5B5;}
	.st10{opacity:0.5;fill:#06A18C;}
	.st11{opacity:0.5;}
	.st12{fill:#FFDBAB;}
	.st13{fill:#D18669;}
	.st14{fill:#FCF09D;}
	.st15{fill:none;stroke:#FFFFFF;stroke-miterlimit:10;}
	.st16{fill:#EDECEB;}
	.st17{fill:#4FBBC6;}
</style><g><path class="st7" d="M37,76.9h-3c-3.3,0-6-2.7-6-6v-14c0-3.3,2.7-6,6-6l0.1-2.8h0c1.7,0,3,1.3,3,3L37,76.9z"/></g><g><path class="st8" d="M91,76.9h3c3.3,0,6-2.7,6-6v-14c0-3.3-2.7-6-6-6l0,0h-3V76.9z"/></g><g><path class="st9" d="M74.2,26.6l-3.3-1.1c-2.2-0.5-4.5-0.8-6.8-0.8c-2.3,0-4.6,0.3-6.8,0.8l-3.3,1c-8.2,3.1-13.8,9.9-13.8,17.8   c0,0.1,47.9,0,47.9,0C88,36.5,82.3,29.7,74.2,26.6z"/></g><g><path class="st6" d="M57.3,28.5c-0.8,0-1.5-0.3-2.1-0.9l-6-6c-1.2-1.2-1.2-3.1,0-4.2c1.2-1.2,3.1-1.2,4.2,0l6,6   c1.2,1.2,1.2,3.1,0,4.2C58.8,28.2,58,28.5,57.3,28.5z"/></g><g><g class="st11"><path class="st8" d="M72.9,23.5l-2,2c0,0,0,0,0,0c-2.2-0.5-4.5-0.8-6.8-0.8c-1.7,0-3.4,0.2-5,0.4C73.5,25.5,78,36.5,78,44.3    c0,0,8.7,0,9.9,0c0.1,0,0.1,0,0.1,0c0-0.5,0-1-0.1-1.5c0-0.5-0.1-1-0.2-1.4c-0.2-0.9-0.4-1.9-0.8-2.8c-0.5-1.3-1.2-2.6-2-3.8    c-1.6-2.4-3.9-4.5-6.5-6.2c-1.3-0.8-2.8-1.5-4.3-2.1L72.9,23.5z"/></g><g><path class="st9" d="M56.6,24.8l-4.5-0.1C52.8,24.7,55.8,24.7,56.6,24.8z"/></g></g><g><ellipse class="st0" cx="57" cy="35.9" rx="2.8" ry="2.8"/></g><g><ellipse class="st0" cx="71.1" cy="35.9" rx="2.8" ry="2.8"/></g><g><path class="st9" d="M40.1,80.9c0,4.6,3.8,8.4,8.4,8.4v14.8c0,2.7,2.5,4.9,5.6,4.9c3.1,0,5.6-2.2,5.6-4.9V89.3h8.5v14.8   c0,2.7,2.5,4.9,5.6,4.9c3.1,0,5.6-2.2,5.6-4.9V89.3h0c4.7,0,8.5-3.8,8.5-8.4V51.2c0-1.7-1.3-3-3-3H43.1c-1.7,0-3,1.3-3,3L40.1,80.9   L40.1,80.9z M48.5,89.3v14.8c0,2.7,2.5,4.9,5.6,4.9"/></g><g class="st11"><g><path class="st8" d="M48.5,99.4v4.7c0,2.7,2.5,4.9,5.6,4.9c3.1,0,5.6-2.2,5.6-4.9V89.5C55.9,93.5,52.1,96.8,48.5,99.4z"/></g><g><path class="st8" d="M84.5,48.2H78v0c0,12.5-4.2,24.7-12.1,34.4c-2,2.5-4,4.7-5.9,6.7h8.3v14.8c0,0.8,0.2,1.6,0.6,2.3l0,0h0    c0.2,0.4,0.5,0.7,0.8,1.1c0,0,0,0,0.1,0.1c0.3,0.3,0.7,0.6,1.1,0.8c0,0,0.1,0,0.1,0.1c0.2,0.1,0.4,0.2,0.5,0.3c0,0,0.1,0,0.1,0    c0.2,0.1,0.4,0.2,0.7,0.2c0,0,0.1,0,0.1,0c0.2,0,0.4,0.1,0.6,0.1c0.1,0,0.1,0,0.2,0c0.2,0,0.5,0,0.7,0c3.1,0,5.6-2.2,5.6-4.9V89.3    h0c4.7,0,8.5-3.8,8.5-8.4V51.2c0-1.7-1.3-3-3-3H84.5z"/></g></g><g><path class="st6" d="M73.9,112c-4.8,0-8.6-3.6-8.6-7.9V92.3h-2.5v11.8c0,4.4-3.9,7.9-8.6,7.9c-1.7,0-3-1.3-3-3s1.3-3,3-3   c1.4,0,2.6-0.9,2.6-1.9V89.3c0-1.7,1.3-3,3-3h8.5c1.7,0,3,1.3,3,3v14.8c0,1,1.2,1.9,2.6,1.9c1.4,0,2.6-0.9,2.6-1.9V89.3   c0-1.7,1.3-3,3-3c3,0,5.5-2.4,5.5-5.4l0-4c0,0,0,0,0,0l0-16c0-1.7,1.3-3,3-3c1.7,0,3,1.3,3,3l0,13h3.3c1.4,0,2.6-0.9,2.6-1.9V56.9   c0-0.8-0.3-1.6-0.9-2.1c-0.6-0.6-1.3-0.9-2.1-0.9c0,0,0,0,0,0c-1.7,0-3-1.3-3-3c0-1.7,1.3-3,3-3c0,0,0,0,0,0c2.4,0,4.7,0.9,6.4,2.6   c1.7,1.7,2.6,4,2.6,6.4V72c0,4.4-3.9,7.9-8.6,7.9H91l0,1c0,5.3-3.6,9.7-8.5,11v12.2C82.5,108.4,78.6,112,73.9,112z M48.5,92.3   C48.5,92.3,48.5,92.3,48.5,92.3c-6.3,0-11.4-5.1-11.4-11.4L37,61c0-1.7,1.3-3,3-3c0,0,0,0,0,0c1.7,0,3,1.3,3,3l0.1,19.9   c0,3,2.4,5.4,5.4,5.4c1.7,0,3,1.4,3,3C51.5,91,50.2,92.3,48.5,92.3z M87.7,44.5c-1.4,0-2.7-1-2.9-2.5c-1-5.4-5.3-10.2-11.6-12.6   l-3.1-1c-3.9-0.9-8-0.9-12,0l-3.2,1c-6.3,2.4-10.6,7.1-11.6,12.6c-0.3,1.6-1.9,2.7-3.5,2.4c-1.6-0.3-2.7-1.9-2.4-3.5   c1.4-7.5,7.2-13.9,15.4-17.1c0.1,0,0.1,0,0.2-0.1l3.3-1c0.1,0,0.1,0,0.2-0.1c4.9-1.2,10.1-1.2,15,0c0.1,0,0.1,0,0.2,0.1l3.3,1.1   c0.1,0,0.1,0,0.2,0.1c8.3,3.2,14,9.6,15.4,17.2c0.3,1.6-0.8,3.2-2.4,3.5C88.1,44.4,87.9,44.5,87.7,44.5z"/></g><g><path class="st6" d="M70.9,28.5c-0.8,0-1.5-0.3-2.1-0.9c-1.2-1.2-1.2-3.1,0-4.2l6.1-6c1.2-1.2,3.1-1.2,4.2,0s1.2,3.1,0,4.2l-6.1,6   C72.4,28.2,71.6,28.5,70.9,28.5z"/></g><g><path class="st6" d="M40,80h-6c-5,0-9-4-9-9V57c0-5,4-9,9-9c1.7,0,3,1.3,3,3s-1.3,3-3,3c-1.7,0-3,1.3-3,3v14c0,1.7,1.3,3,3,3h6   c1.7,0,3,1.3,3,3S41.7,80,40,80z"/></g><g><path class="st6" d="M54.1,112c-4.8,0-8.6-3.6-8.6-7.9V89.3c0-1.7,1.3-3,3-3s3,1.3,3,3v14.8c0,1,1.2,1.9,2.6,1.9c1.7,0,3,1.3,3,3   S55.8,112,54.1,112z"/></g></svg>