<?xml version="1.0" ?><!DOCTYPE svg  PUBLIC '-//W3C//DTD SVG 1.1//EN'  'http://www.w3.org/Graphics/SVG/1.1/DTD/svg11.dtd'><svg height="512px" style="enable-background:new 0 0 512 512;" version="1.1" viewBox="0 0 512 512" width="512px" xml:space="preserve" xmlns="http://www.w3.org/2000/svg" xmlns:xlink="http://www.w3.org/1999/xlink"><g id="snapchat__x2C__social__x2C__media"><g><g><path d="M431.023,34.501c-116.684-4.667-233.367-9.335-350.05-14.002     C47.779,19.11,21.39,45.471,22.402,79.002c3.398,117.816,6.797,235.631,10.195,353.447c1.013,33.53,27.402,59.955,58.571,58.645     c109.887-4.396,219.773-8.791,329.66-13.187c31.171-1.312,57.562-27.673,58.574-58.503     c3.398-108.753,6.797-217.506,10.195-326.259C490.61,62.313,464.22,35.89,431.023,34.501z M405.716,337.727     c-0.001,0.033-0.061,0.034-0.061,0.055c-2.635,3.545-6.39,4.825-8.908,5.919c-0.069,0.007-0.157,0.043-0.226,0.078     c-6.786,2.468-13.929,5.346-21.801,6.377c-0.168,0.016-0.356,0.019-0.517,0.021c-2.345,0.011-4.418,0.617-5.65,1.794     c-2.719,3.076-3.693,7.97-5.427,13.42c-0.087,0.266-0.208,0.491-0.344,0.731c0.456-0.761,0.195-0.328-0.081,0.611     c-0.129,0.47-0.318,1.096-0.959,1.922c-0.647,0.771-1.948,1.604-3.13,1.781c-0.322,0.034-0.628,0.136-0.94,0.114     c-8.981-1.031-18.092-0.959-27.148-0.784c-0.044,0.002-0.095,0.003-0.157,0.003c-4.929,0.096-9.358,0.343-12.943,1.695     c-0.017,0-0.034-0.025-0.047-0.025c-10.988,5.056-21.025,12.967-32.27,19.679c-0.065,0.028-0.123,0.179-0.219,0.215     c-4.972,3.312-10.65,5.138-16.515,6.229c-0.037,0.001-0.084,0.002-0.118,0.003c-6.848,0.164-13.859,1.286-20.99,0.505     c-0.034,0.002,0.325-0.008,0.325-0.008c0,0.089,0,0.177,0,0.265c-10.276-0.063-17.763-4.332-25.268-8.717     c0,0.007,0,0.014,0,0.021c0-0.021,0.024,0.146,0.001,0.147c-10.687-6.347-20.18-13.687-31.136-16.364c-0.008,0-0.008,0-0.021,0     c-10.436-2.688-21.772-0.671-33.113,1.592c-0.112,0.036-0.235-0.063-0.368-0.047c-0.27,0.026-1.955,1.1-5.055,0.485     c-1.316-0.249-2.467-1.336-2.857-2.639c-1.471-4.744-2.094-9.301-3.345-13.148c-0.885-2.09-1.29-3.371-1.465-3.68     c-3.708-1.552-8.253-2.105-13.168-3.18c-0.034,0.001-0.065,0-0.083-0.021c-6.844-1.681-14.313-3.313-21.225-7.253     c-0.062-0.057-0.121-0.07-0.179-0.105c-1.093-0.594-2.363-1.397-3.52-2.779c-1.213-1.466-2.213-4.127-1.434-6.627     c0.1-0.32,0.234-0.605,0.407-0.885c2.43-3.916,6.368-4.364,8.025-5.043c0.101-0.043,0.217-0.102,0.329-0.131     c8.087-2.339,15.937-6.081,22.786-11.008c13.046-9.444,23.429-22.212,30.854-36.833c0-0.007,0-0.014,0-0.021     c2.784-5.481,4.512-11.241,3.331-16.182c-0.919-3.883-4.964-7.115-9.476-9.057c0,0-0.007,0-0.028,0     c-6.495-1.942-13.964-4.481-20.767-9.078c-0.074-0.053-0.129-0.054-0.188-0.093c-0.819-0.64-2.13-1.411-3.507-2.627     c-1.399-1.196-2.974-3.078-3.488-5.613c-0.017-0.021,0-0.052-0.018-0.087c-0.039-0.226-0.078-0.492-0.064-0.746     c0.084-4.304,3.083-6.776,5.272-8.223c0.062-0.049,0.113-0.083,0.171-0.136c0.035-0.014,0.085-0.06,0.121-0.077     c2.678-2.036,6.218-3.048,9.864-2.192c0.069,0.018,0.131-0.084,0.19-0.056c3.738,1.064,7.054,2.769,10.141,2.785     c0.028,0,0.052,0,0.066,0c4.523,0.993,9.081,1.302,13.251,0.567c0.05-0.196-0.043-0.229,0.022-0.553     c0.764-8.628,0.062-17.68-0.999-27.07c0-0.006,0-0.012,0-0.018c-1.102-13.366-1.43-27.802,3.791-41.25     c0-0.024,0.046-0.063,0.066-0.087c5.467-13.041,14.333-24.628,25.672-33.188c15.127-11.486,34.593-15.876,53.409-15.501     c4.63,0.058,9.31,0.729,14.027,0.849c0,0,0.018,0,0.035,0.001c13.898,1.307,27.581,6.409,39.028,14.542     c15.771,11.247,28.07,27.75,31.405,46.644c0,0.038-0.114,0.114-0.099,0.159c1.505,11.207,1.443,22.31,0.367,33.076     c-0.001,0.014-0.001,0.03-0.001,0.038c-0.078,7.106-0.585,14.335-0.425,20.905c-0.013,0-0.025,0-0.038,0     c0.119,0.939,0.126,1.827,0.156,2.255c3.092,1.132,7.088,0.907,11.206,0.219c0.081-0.013,0.14-0.075,0.209-0.081     c2.894-0.321,6.036-1.86,9.871-2.98c0.021,0,0.052-0.222,0.079-0.222c0,0,0.007,0,0.018,0c3.549-0.914,7.645-0.887,11.112,1     c0.005,0,0.011,0,0.017,0c2.074,1.877,4.774,3.307,6.63,6.541c0,0,0,0.006,0,0.02c0.929,1.573,0.566,3.325,0.175,4.746     c-0.141,0.47-0.355,0.881-0.547,1.253c-0.808,1.531-1.896,2.556-2.771,3.348c-0.012,0.024-0.061,0.041-0.078,0.077     c-5.668,4.755-12.464,7.183-18.679,9.258c-0.032,0-0.059,0.016-0.069,0.033c-5.618,2.002-10.894,4.571-13.798,8.558     c-0.019,0.021-0.055,0.056-0.062,0.068c-1.862,2.396-1.842,6.371-0.636,10.002c0,0.033-0.001,0.067,0.012,0.101     c3.064,8.37,7.738,16.169,13.295,23.348c9.975,12.85,23.372,23.301,38.931,28.026c0.058,0.02,0.264,0.017,0.308,0.029     c2.3,0.803,6.021,1.084,9.746,3.326c0.001-0.005,0.001-0.009,0.001-0.014c-0.001,0.014-0.148,0.035-0.114,0.035     c0.101,0.067,0.108,0.087,0.209,0.165c-0.035,0.019-0.069,0.037-0.104,0.056c3,1.774,3.653,5.781,1.71,8.726     C405.716,337.722,405.716,337.725,405.716,337.727z" style="fill:none;"/><g><g><g><path d="M403.479,336.272c-0.014,0.333,0.187,0.54,0.483,0.488c0.299-0.063,0.62-0.236,0.789-0.832        c0,0-0.228-0.321-0.491-0.591c-0.261-0.275-0.554-0.494-0.554-0.494s0.02,0.347-0.042,0.708        C403.613,335.912,403.479,336.272,403.479,336.272z" style="fill:#373737;"/><path d="M403.658,328.787c-0.953-0.185-2.014-0.177-2.732,0.093c-0.725,0.268-1.092,0.762-0.831,1.508        c1.403-0.437,1.877-0.168,2.994-0.1l2.681-1.175l-0.021,0.091c-0.024,0.065-0.004,0.088-0.153,0.394l-1.589,0.947        l-1.716-1.302c-0.091-0.384-0.057-0.392-0.067-0.467c0.003-0.191,0.003-0.079,0.004-0.112l0.004-0.007        c0.002-0.006,0.005-0.01,0.007-0.006c0.005,0.003,0.009,0.006,0.014,0.012l0.013,0.02l0.007,0.01        c0.001,0.003,0.003,0.002,0.004,0l0.002-0.003c0.002-0.019-0.004,0.042,0.006-0.043c0.005-0.031,0.002-0.044,0.03-0.183        l0.413-0.792l2.961,0.732c0.076,0.354,0.044,0.311,0.056,0.374l0.001,0.061c-0.659,0.353-1.313,0.704-2.702,1.448        l-0.007-0.032c0.001-0.004,0.003-0.006-0.04-0.044c-0.065-0.066-0.134-0.136-0.205-0.209c-0.059-0.067-0.113-0.142-0.16-0.219        c-0.035-0.06-0.022-0.032-0.09-0.166c-0.051-0.105-0.092-0.221-0.12-0.339c-0.014-0.059-0.024-0.118-0.031-0.177        c-0.003-0.018-0.009-0.087-0.007-0.061l0.008,0.066c0.013,0.089,0.032,0.18,0.06,0.268c0.021,0.078,0.072,0.198,0.09,0.231        l0.057,0.106c0.041,0.071,0.088,0.141,0.14,0.207l0.081,0.096l0.022,0.021l0.08,0.073c0.072,0.063,0.092,0.072,0.111,0.083        l0.072,0.043c0.061-0.7,0.122-1.397,0.24-2.751c-0.018,0.039-0.039,0.08-0.082,0.135l-2.854,3.662l2.805-0.942        c0.194-0.065,0.496-0.122,0.881-0.145c0.568,0.354,0.845,0.913,0.87,1.316c0.027,0.414-0.162,0.67-0.419,0.69        c0.237,0.098,0.346,0.535,0.418,0.991c0.081,0.461,0.138,0.933,0.521,1.304c0.528-0.696,0.698-1.735,0.348-2.698        c-0.333-0.966-1.21-1.797-2.268-2.052l-1.321-0.319l1.35-1.202l0.098-0.087c-0.042,0.488-0.087,1.001-0.133,1.515        l-0.067-0.044l-0.076-0.064c0,0-0.128-0.1-0.223-0.347c-0.017-0.047-0.029-0.096-0.038-0.145        c-0.01-0.054-0.018-0.123-0.003-0.013c0.008,0.11,0.102,0.302,0.115,0.317c0.039,0.078,0.145,0.19,0.17,0.211l0.055,0.05        c0,0.004-0.003,0.006-0.004,0.009c0.474-0.254,0.971-0.52,1.468-0.786l-0.002-0.053c-0.002-0.023,0.001-0.038-0.017-0.133        l-0.183-0.395l-1.529,0.063l-0.124,0.274l-0.017,0.076l-0.009,0.055l-0.003,0.029h-0.001l-0.002-0.001        c-0.001-0.001-0.001-0.006-0.002-0.008l-0.005-0.021l-0.006-0.02c-0.001-0.002-0.001-0.007-0.002-0.007l-0.002,0.003        l-0.001,0.001l-0.002,0.037l0.002,0.071c0.012,0.051-0.014,0.072,0.074,0.314l0.815,0.589l0.863-0.399        c0.131-0.201,0.116-0.229,0.138-0.273l0.025-0.099l-1.449,0.635c-0.126-0.028-0.258-0.058-0.389-0.087        C402.786,328.977,403.419,328.927,403.658,328.787z" style="fill:#373737;"/><path d="M372.968,228.791c0,0,0.146,0.177,0.293,0.354c0.155,0.178,0.311,0.356,0.311,0.356        C373.425,229.271,373.209,229.033,372.968,228.791z" style="fill:#373737;"/><path d="M340.411,170.005c0.225,0.723,0.424,1,0.55,1.009        C340.709,170.348,340.478,169.813,340.411,170.005z" style="fill:#373737;"/><path d="M335.342,153.65c0.147,0.34,0.271,0.626,0.406,0.934        C335.672,154.187,335.542,153.812,335.342,153.65z" style="fill:#373737;"/><path d="M372.968,228.791l-0.139-0.179l-1.272-0.486l-0.017-0.005l0.907,0.229        c-0.716-0.528-1.487-0.996-2.299-1.39c-0.306,0.32,1.121,0.689,2.286,1.412c-0.304-0.077-0.607-0.154-0.895-0.228l0.017,0.001        l0.858,0.074l0.397,0.41L372.968,228.791z" style="fill:#373737;"/><path d="M382.364,324.404c0.526,0.195,1.006,0.272,1.455,0.312c-0.436-0.146-0.861-0.284-1.285-0.459        C382.48,324.311,382.435,324.356,382.364,324.404z" style="fill:#373737;"/><path d="M356.179,258.425l-0.692,0.267c-0.148,0.218-0.271,0.462-0.37,0.724L356.179,258.425z" style="fill:#373737;"/><path d="M347.022,278.567c-0.247-0.654-1.373-0.411-1.937-0.461c0.592,0.178,1.011,0.561,1.349,1.088        C346.633,279.112,346.825,278.919,347.022,278.567z" style="fill:#373737;"/><path d="M378.142,316.867l0.846,0.33C378.764,317.118,378.405,316.953,378.142,316.867z" style="fill:#373737;"/><path d="M377.842,247.655c0.161,0.077,0.362,0.084,0.532,0.041        C378.274,247.595,378.08,247.602,377.842,247.655z" style="fill:#373737;"/><path d="M369.84,345.468c-0.019,0.089,0.052,0.121,0.058,0.192        C370.15,345.474,370.221,345.373,369.84,345.468z" style="fill:#373737;"/><path d="M405.931,337.916l-0.273,0.449c0.132,0.176,0.254,0.356,0.415,0.487        C406.091,338.838,405.931,337.916,405.931,337.916z" style="fill:#373737;"/><path d="M316.24,128.681c0.041,0.047,0.056,0.063,0.095,0.107        C317.056,129.226,316.68,128.939,316.24,128.681z" style="fill:#373737;"/><path d="M129.635,234.41c0.657-1.043,0.917-1.008,0.925-0.602c0.018,0.417-0.132,1.267-0.146,2.043        c-0.025,0.777,0.078,1.459,0.264,1.558c0.21,0.11,0.407-0.391,1.079-1.746c-0.299,0.214-0.326-1.239-0.311-2.236        c-0.013-0.496-0.061-0.873-0.336-0.844C130.852,232.622,130.306,233.047,129.635,234.41z" style="fill:#373737;"/><path d="M381.646,323.883c-0.415-0.188-0.826-0.403-1.233-0.626        C380.955,323.58,381.33,323.779,381.646,323.883z" style="fill:#373737;"/><path d="M131.757,235.664c0.005,0.001,0.009,0.002,0.009,0.002s0.071-0.137,0.142-0.274        c0.075-0.134,0.15-0.269,0.15-0.269C131.928,235.341,131.859,235.469,131.757,235.664z" style="fill:#373737;"/><path d="M248.309,108.859c0.155,0.193,0.445,0.334,0.747,0.468        C249.028,109.213,248.86,109.078,248.309,108.859z" style="fill:#373737;"/><path d="M299.658,120.369l-1.106-0.732C298.976,119.958,299.333,120.186,299.658,120.369z" style="fill:#373737;"/><path d="M221.373,115.098c-0.706,0.145-0.989,0.074-1.863,0.541c0.104,0.023,0.202,0.032,0.326,0.031        C220.118,115.407,220.542,115.185,221.373,115.098z" style="fill:#373737;"/><path d="M196.236,128.939c0.173-0.032,0.369-0.11,0.554-0.163c0.209-0.194,0.453-0.421,0.668-0.622        L196.236,128.939z" style="fill:#373737;"/><path d="M300.207,375.762c0.688-0.068,1.201,0.019,1.639,0.148        C301.047,375.472,304.391,373,300.207,375.762z" style="fill:#373737;"/><path d="M382.629,323.83c-0.275,0.181-0.559,0.196-0.982,0.053c0.303,0.136,0.599,0.259,0.888,0.374        C382.684,324.145,382.769,324.01,382.629,323.83z" style="fill:#373737;"/><path d="M223.151,123.858c0,0-0.976,0.307-1.951,0.614c-0.966,0.333-1.933,0.666-1.933,0.666        C220.364,124.805,221.771,124.334,223.151,123.858z" style="fill:#373737;"/><path d="M131.748,348.074l1.017,0.11C132.394,348.067,132.037,348.014,131.748,348.074z" style="fill:#373737;"/><path d="M208.659,130.787c-0.817,0.055-1.59,0.284-2.329,0.615c-0.089,0.167-0.206,0.336-0.222,0.508        c0,0,0.636-0.288,1.271-0.577C208.019,131.06,208.659,130.787,208.659,130.787z" style="fill:#373737;"/><path d="M301.859,375.915c-0.01,0.001-0.014-0.005-0.014-0.005S301.85,375.916,301.859,375.915z" style="fill:#373737;"/><path d="M330.504,363.381c-4.349,0.074-2.009,1.505-2.891,2.374c-2.6,0.32-3.261,0.139-3.475-0.271        c-0.222-0.398,0.014-0.997-0.982-1.274c-2.837,0.613-5.12,2.038-7.268,3.188c0.52-0.094,1.039-0.188,1.545-0.28        c0.854-0.021,1.894,0.324,2.569,0.858c0.163,0.126-0.027-0.021-0.109-0.077c-0.1-0.07-0.206-0.138-0.315-0.202        c-0.221-0.128-0.46-0.24-0.707-0.33c-0.495-0.182-1.02-0.265-1.483-0.266l-1.227-0.003l-0.599,0.4        c-0.387,0.259-0.781,0.48-1.188,0.666c-0.269-0.14-0.74-0.009-0.367-0.529c-1.325,1.286-3.588,2.479-5.825,3.826        c-2.236,1.344-4.445,2.82-5.696,4.49c-0.313,0.045-0.504,0.02-0.626-0.035c0.932,0.283,1.415,0.868,1.594,1.388        c-1.585,1.038-2.435,2.682-3.557,2.263c0.981-0.61,0.851-0.987,1.142-1.537l-1.428,1.434        c-2.253-0.186,1.995-1.882,1.445-2.741c-3.021,2.486-6.087,5.935-8.753,7.211c-1.26-0.789,5.467-4.164,1.536-3.009        l4.086-2.083c-4.1,0.138,2.405-1.407-1.541-1.551c-5.23,2.979-5.192,4.309-10.344,7.125c-0.711,1.34,0.965,0.713,0.249,2.055        c-0.794,0.695-1.51,1.223-2.158,1.617c-0.165,0.095-0.322,0.186-0.475,0.273c-0.188,0.101-0.367,0.198-0.54,0.292        c-0.294,0.151-0.573,0.277-0.84,0.381c-0.934,0.296-1.743,0.278-2.473,0.208c-1.482-0.146-2.548-0.396-4.81,1.411        c-0.523,0.669-0.8,1.454-1.486,2.114c-0.682,0.657-1.796,1.204-3.946,1.214c0,0,0.262-0.453,0.522-0.906        c0.25-0.454,0.5-0.908,0.5-0.908c-1.583,0.343-2.455,0.685-3.018,1.059c0.256-0.026,0.512-0.054,0.691-0.073        c-1.646,0.634-1.78,1.522-6.06,1.089c1.024-0.688,4.622-0.787,3.712-0.917c-4.122-0.985-2.802,1.043-5.82,1.243l-0.709-1.315        c-3.858,0.395-7.753,1.039-11.695,0.984l-0.669-0.015c-0.134,0.011-0.304,0.022-0.603,0.088        c-0.3,0.092-0.75,0.141-1.572,0.764c-0.396,0.316-0.899,0.866-1.193,1.661c-0.305,0.788-0.291,1.713-0.107,2.344        c0.403,1.285,0.932,1.636,1.193,1.908c0.571,0.469,0.777,0.511,0.713,0.493l0.031,0.016l0.124,0.062l0.247,0.107l0.12,0.043        l0.154,0.049l0.231,0.064c0.415-2.457,0.83-4.915,1.259-7.452c-2.064,0.184-4.204,0.154-6.319-0.178        c0.424-0.328,1.5-0.562,0.199-1.23c-2.792-0.292-5.672-1.222-8.462-2.601c-2.798-1.373-5.514-3.173-8.195-5.051l-6.965-4.877        l-0.533,9.181l-0.01,0.169c2.533-1.441,5.066-2.883,7.55-4.297c-1.779-1.271-3.491-2.579-5.142-3.861l-3.304-0.7        c-0.618-0.406-0.882-1.184-0.08-0.946c-2.53-2.119-0.537,0.539-2.115,0.094c-1.622-0.918-1.742-1.879-0.545-1.552        c-2.698-1.095-6.486-2.803-10.417-4.476c-3.922-1.698-8.019-3.229-11.123-4.572l-0.964-0.116        c-0.008-0.002-0.016-0.003-0.021-0.004c0.389,0.049,0.777,0.099,1.014,0.128c-0.093-0.04-0.168-0.072-0.242-0.104        c0.09-0.002,0.18-0.004,0.265,0.017c-0.345-0.051-0.691-0.103-1.037-0.146l0.021-0.014l0.994,0.121l1.053-0.012        c-0.357-0.128-0.696-0.232-0.975-0.307l-0.474-0.126l-0.597-0.003h-0.021c0.413,0.052,0.825,0.104,1.125,0.143        c-2.109-0.535-3.508-0.159-4.845,0.117c-1.347,0.288-2.633,0.482-4.741-0.124l0.898-0.162        c-4.642-0.51-9.436-0.071-13.904,0.549c-4.479,0.625-8.685,1.414-12.42,1.704l-0.435,0.112        c0.396-0.146,0.969-0.197,1.227-0.188c0.151,0,0.348,0.019,0.458,0.034c0.086,0.011,0.173,0.025,0.258,0.043l0.225,0.051        c-0.068-0.022-0.035-0.018-0.187-0.061c-0.135-0.036-0.246-0.069-0.521-0.111c-0.125-0.018-0.219-0.03-0.371-0.039        c-0.163-0.009-0.327-0.009-0.49,0l-0.244,0.02l-0.353,0.058l-0.029,0.004c-0.022,0.004,0.006-0.004-0.056,0.009l-0.21,0.051        c-0.139,0.036-0.278,0.079-0.414,0.126l-0.113,0.039l-0.035,0.01l-0.131,0.036c-0.053,0.009-0.116,0.023-0.151,0.023        c-0.164,0.014-0.286,0.003-0.419-0.017c-0.261-0.042-0.524-0.131-0.785-0.258c-0.082,0.214-0.239,0.355-0.458,0.438        c-0.114,0.031-0.235,0.068-0.379,0.068c-0.071-0.001-0.145-0.001-0.221-0.001l-0.028-0.001l-0.015-0.001h-0.003h-0.002        c-0.026-0.006,0.222,0.048,0.116,0.025l-0.011-0.002l-0.092-0.016l-0.093-0.016l-0.047-0.008l0.031,0.006        c0.049,0.012,0.099,0.028,0.146,0.049c0.023,0.01,0.021,0.008,0.031,0.016c0.015,0.008,0.024,0.017,0.032,0.018        c0.015,0.009,0.018,0.005,0.022-0.007c0.007-0.02,0.017-0.063,0.07-0.019c0.068,0.167-0.058-0.271-0.125-0.534        c-0.072-0.266-0.144-0.526-0.212-0.78c-0.136-0.471-0.29-0.966-0.459-1.365c-0.341-0.813-0.767-1.37-1.378-1.392        c-0.059-2.34,0.046-3.54,0.083-4.693c0.022-1.169,0.068-2.259-0.412-4.719l-0.148-0.396c-0.068-0.332-0.176-0.766-0.311-1.294        c-0.146-0.553-0.267-1.088-0.525-1.979c-0.04-0.11-0.075-0.208-0.14-0.361c-0.06-0.134-0.14-0.339-0.378-0.761l-0.981-1.738        l-1.597-0.547c-2.285-0.782-3.908,0.186-6.529-0.189l0.199-1.22c0,0-1.01,0.118-2.02,0.235        c-0.977,0.138-1.954,0.275-1.954,0.275l-1.616-1.816c0,0-0.616-0.044-1.232-0.088c-0.304-0.023-0.608-0.048-0.836-0.065        c-0.057-0.005-0.109-0.009-0.155-0.013l-0.065-0.005l-0.029-0.002l-0.013-0.001l-0.007-0.001h-0.001        c-0.025-0.006,0.217,0.051,0.114,0.026l0,0h-0.001h-0.003c-0.069-0.009-0.109-0.013-0.109-0.013l0.09,0.03l0.011,0.004        l0.006,0.002h0c-0.228-0.053-0.063-0.015-0.114-0.026l0.001,0.001l0.003,0.001l0.021,0.007l0.043,0.015l0.172,0.064        c0.114,0.046,0.227,0.097,0.335,0.15c0.216,0.109,0.419,0.23,0.587,0.354c0.335,0.246,0.528,0.499,0.42,0.658        c-0.484-0.028-0.99-0.091-1.495-0.187l-0.294-0.058l-0.394-0.101l-0.792-0.227c-1.048-0.321-2.061-0.717-2.937-1.123        c-1.755-0.812-2.954-1.672-2.914-1.989c0,0-2.227-0.326-4.374-0.771c-2.155-0.432-4.231-1.033-4.231-1.033        c0.369-0.379,1.75,0.011,2.929,0.093c-2.365-0.205-2.423-0.627-2.437-0.988c-0.013-0.382,0.019-0.709-2.053-1.052        c0.369,0.49-0.585,0.531-0.783,0.71c-0.404-0.427-0.99-0.892-1.682-1.403c0.268,0.195,0.535,0.39,0.867,0.631        c-0.215-0.198-0.465-0.392-0.7-0.545l-0.295-0.179l-0.211-0.114l-0.064-0.034c-0.028-0.014,0-0.001,0.045,0.021l0.107,0.054        l0.105,0.057l0.052,0.029l0.013,0.008c0.146,0.084-0.183-0.104-0.15-0.087l-0.003-0.002l-0.025-0.018l-0.191-0.132        c-0.089-0.067-0.179-0.136-0.271-0.205c-0.186-0.141-0.357-0.277-0.519-0.412c-0.322-0.271-0.604-0.538-0.88-0.838        c-0.297-0.271-0.662-0.926-0.831-1.389c0.002,0.021,0.878,0.085,0.878,0.066c-0.03-0.239-0.01-0.405,0.003-0.467l0.008-0.036        l0.002-0.005l0-0.003l0,0c0.052-0.158-0.071,0.216-0.058,0.175l0.002-0.005l0.007-0.021l0.014-0.04l0.055-0.159        c-0.008,0.031-0.043,0.132-0.069,0.191c-0.101,0.229-0.132,0.254-0.157,0.296l0.172-0.27c0.01-0.011,0.018-0.022,0.023-0.035        c0.414-0.583,0.852-1.037,1.875-1.532c0.547-0.261,1.107-0.451,2.299-0.858l0.536-0.198l0.446-0.185        c0.056-0.026,0.114-0.055,0.1-0.051l-0.198,0.074l-0.204,0.066l-0.104,0.028l-0.052,0.014        c-0.175,0.049,0.206-0.059,0.171-0.049l0.005-0.002l0.17-0.058l0.341-0.114l1.408-0.477c2.03-0.701,3.918-1.417,5.869-2.203        c-2.935,0.724-2.78-0.918-0.625-1.915l1.385,0.834c1.116-1.342-2.498,0.511,0.044-1.621c2.827-1.092,2.499,0.509,1.032,1.627        c0,0,0.813-0.489,1.626-0.979c0.808-0.496,1.6-1.015,1.6-1.015c0.37,0.249-0.33,0.832-0.33,1.374        c0.529-0.701,2.138-1.126,3.784-1.735c1.649-0.594,3.321-1.401,3.914-2.587l0.387,0.213c1.796-1.116,3.267-2.175,4.6-3.2        c0.582-0.448,1.21-0.959,1.805-1.447c0.566-0.484,1.112-0.952,1.649-1.412c2.111-1.867,4.005-3.678,6.4-6.025        c-0.681-0.894,1.36-2.54,2.046-4.601c3.578-3.252,7.738-6.881,11.028-11.772c1.855-3.72-0.111-1.529,0.357-3.425        c1.046,0.337,4.033-4.689,3.069-1.725c1.77-3.046,2.808-5.04,3.847-7.287c0.498-1.11,1.049-2.338,1.603-3.881        c0.544-1.535,1.127-3.353,1.582-5.738c-0.685,0.901-1.228,1.906-1.371,1.24c0.384-1.623,1.418-3.656,1.844-3.335l0.005,0.485        c0.146-1.903,0.323-3.921,0.243-6.102c-0.043-1.109-0.137-2.168-0.382-3.411c-0.248-1.254-0.746-2.542-1.331-3.641        c-1.19-2.234-2.762-4.007-4.411-5.499c-1.659-1.486-3.43-2.684-5.239-3.616l-0.562-0.204        c-2.884-1.126-5.484-1.976-7.854-2.149l0.415,0.043c0,0-1.851-0.382-3.667-0.863c-1.82-0.47-3.6-1.06-3.6-1.059        c-2.93-1.71,2.147,0.236,0.217-1.467c-1.094-0.289-2.086-0.648-2.99-1.055c-0.452-0.203-0.883-0.417-1.294-0.642        c-0.203-0.116-0.404-0.23-0.602-0.343l-0.291-0.176l-0.349-0.217l-0.189-0.106c-0.105-0.057-0.213-0.11-0.323-0.159        l-0.165-0.071l-0.079-0.031l0.015,0.006l0.159,0.068c0.193,0.086,0.381,0.19,0.557,0.307c0.104,0.075,0.209,0.149,0.306,0.219        c-0.75-0.555-1.23-0.857-1.676-1.186c-0.438-0.317-0.808-0.612-1.142-0.91c-0.734-0.653-1.108-1.109-1.489-1.686        c-0.363-0.556-0.62-1.098-0.823-1.616c-0.022-0.065-0.056-0.13-0.074-0.195l-0.035-0.098l-0.02-0.049l-0.005-0.012l0-0.001        c-0.03-0.167,0.041,0.225,0.033,0.184l-0.001-0.007l-0.003-0.013l-0.012-0.054l-0.023-0.097l-0.001,0.04l-0.008,0.102        c-0.006,0.031-0.004,0.151-0.02,0.221l-0.011-0.248l-0.013-0.196l-0.016-0.056c-0.02-0.021-0.018-0.131-0.031-0.198        c-0.013-0.155-0.026-0.312-0.04-0.47c0.639-0.321,1.122-0.585,1.697-0.995c0.58-0.41,1.286-0.968,2.369-1.673        c-0.315,0.167-0.63,0.333-0.967,0.511c0.254-0.105,0.505-0.231,0.746-0.373c0.121-0.071,0.238-0.146,0.353-0.224l0.099-0.07        l0.161-0.119l-0.012,0.009l-0.271,0.185c-0.164,0.104-0.334,0.2-0.511,0.286l0.912-0.564c1.315-1.03,3.172-1.809,4.858-1.599        l0.314,0.043l0.155,0.031l0.02,0.003l0.005,0.001l0.002,0c-0.579-0.153-0.158-0.042-0.286-0.076l0.018,0.005l0.071,0.02        l0.142,0.041c0.405,0.114,0.702,0.211,0.991,0.307c0.651,0.221,1.32,0.476,1.983,0.754c1.336,0.561,2.689,1.213,4.073,1.885        l-0.328-0.824c1.157-0.033,1.861,0.188,2.53,0.479c0.626,0.294,1.352,0.661,2.271,0.792c-0.342-0.039-0.684-0.077-1.191-0.134        c0.053,0.019,0.117,0.042,0.183,0.066c-0.011-0.065-0.046-0.129-0.153-0.203c0.262,0.029,0.711,0.08,1.162,0.131        c-0.203-0.209-0.997-0.355-1.325-0.522c-0.372-0.159-0.46-0.278,0.312-0.378c0.324,0.011,0.755,0.011,1.021,0.006        c-0.322-0.036-0.644-0.073-0.978-0.11c4.744,0.805,9.763,1.29,15.075,0.49l2.938-0.442l0.747-2.971        c0.058-0.228,0.101-0.456,0.13-0.693c0.031-0.257,0.041-0.601,0.03-0.792l-0.021-0.31l-0.01-0.097        c-0.012-0.104,0.008,0.053,0.012,0.111c0.018,0.193,0.016,0.451,0.001,0.61c-0.02,0.204-0.025,0.251-0.051,0.384l0.074-0.509        c0.682-6.123,0.871-12.282,0.777-18.338c-0.043-3.03-0.157-6.036-0.316-9.005l-0.03-0.557l-0.008-0.139l-0.003-0.07        l-0.002-0.035l-0.001-0.017l0-0.009c-0.004-0.046,0.036,0.366,0.019,0.188l-0.006-0.274l-0.027-1.092l-0.04-2.12        c-0.016-1.407-0.031-2.811-0.046-4.209c-0.028-2.889-0.942-3.671-1.693-4.679c-0.727-0.991-1.326-2.241-0.333-5.846        c0,0,0.31,0.526,0.619,1.052c0.315,0.521,0.631,1.041,0.631,1.041c-0.907-7.831,0.666-15.768,3.373-22.793l0.346-1.833        c0.002,0.569-0.104,1.199-0.323,1.771c-0.107,0.287-0.241,0.558-0.388,0.805l-0.154,0.242        c-0.075,0.111-0.155,0.22-0.239,0.325l-0.192,0.225l-0.098,0.104c0.091-0.094,0.18-0.192,0.265-0.292l0.504-0.596l0.294-0.712        c1.41-3.414,2.953-6.721,4.433-10.032c-0.078,0.734,0.247,0.944-0.295,1.888c0.993-0.791,2.11-2.628,2.982-4.308        c0.864-1.68,1.472-3.221,1.17-3.47c1.11-1.355,0.81,0.094,1.769-0.52c1.828-1.515,2.804-5.374,4.391-5.655        c0.258-0.05-0.222,0.695-0.449,1.066c0.331-0.729,1.569-2.018,2.532-3.047c0.958-1.032,1.631-1.835,0.712-1.729        c3.38-2.501,5.745-5.689,8.877-7.065c0.534-1.126,2.125-1.991,3.547-2.728c1.422-0.747,2.681-1.384,2.585-2.324        c0.293,0.869,2.07,0.33,4.079-0.543c2.004-0.886,4.289-2.088,5.411-2.933c-0.656,0.803,2.372-0.222,1.631,0.837        c2.826-0.991,5.435-1.984,4.688-2.755c2.992,0.327,5.617-0.662,8.068-1.43c2.434-0.769,4.66-1.309,6.374-0.082        c4.466-0.92,8.897-1.436,13.213-1.634c2.092-0.091,4.282-0.055,6.489-0.015c1.121,0.017,2.236,0.034,3.348,0.05l1.694-0.001        l0.853-0.012l0.213-0.003l0.027,0h0.013c-0.513-0.033-0.139-0.009-0.251-0.017l0.006,0l0.051,0.002l0.102,0.005l0.403,0.021        c-0.062,0.22-0.256,0.373-0.549,0.476l-0.057,0.019l-0.014,0.004l-0.002,0c0.596,0.039,0.164,0.011,0.297,0.02l-0.004,0.001        l-0.008,0.003l-0.03,0.011l-0.128,0.04c-0.088,0.025-0.183,0.048-0.283,0.069c-0.2,0.041-0.426,0.075-0.664,0.096        c-0.961,0.094-2.184,0.043-3.36-0.015c-2.359-0.124-4.515-0.236-4.406,0.727c2.002-0.032,3.883-0.102,5.687-0.231        c0.902-0.064,1.786-0.141,2.664-0.232l0.327-0.034l0.164-0.017l0.021-0.002l0.01-0.001c0.073,0.004-0.622-0.041-0.325-0.021        l0.005,0l0.038-0.001l0.077-0.003l0.613-0.024l1.168-0.037c3.035-0.06,6.167,0.19,9.866,1.356        c1.876,0.736-1.297,0.468-2.011,0.63c3.837,0.511,7.422,1.68,10.796,3.012c3.383,1.34,6.562,2.834,9.818,4.094        c-0.1,0.137-0.838-0.069-1.522-0.276c1.232,0.581,2.614,1.771,2.897,0.988l-1.263-0.47c-0.662-1.047,0.826-0.95,2.566-0.556        c1.736,0.387,3.695,1.102,3.975,0.916c-1.647,0.324-0.247,1.403,0.896,2.492c1.181,1.116,2.028,2.142-0.286,2.273        c0.784,0.38,1.933,0.766,2.098,0.203c0.972,0.95,1.095,1.461-0.351,1.124c2.06,1.318,2.861,1.593,3.602,1.855        c0.731,0.273,1.402,0.543,3.044,2.068c-0.281,0.278-1.048-0.218-1.701-0.176c2.169,0.922,4.409,1.947,6.726,4.978        c-0.331-0.006-0.264,0.522-1.02-0.306c2.235,2.327,4.376,4.131,6.402,6.197c2.015,2.061,3.924,4.398,5.336,7.726        c-2.517-1.007,0.673,2.402-0.537,3.416c0,0,0.519,0.785,1.01,1.59c0.482,0.812,0.965,1.623,0.965,1.623l0.052-1.68        c1.343,3.016,3.372,5.456,3.71,8.381c0,0-0.325-0.55-0.65-1.101c-0.335-0.541-0.669-1.082-0.669-1.082        c-0.001,0,0.562,1.451,1.038,2.934c0.487,1.479,0.885,2.987,0.885,2.987s-0.049-0.891-0.129-1.786        c-0.092-0.895-0.185-1.79-0.185-1.79c0.822,1.536,1.244,1.346,1.573,1.305c0.314-0.037,0.565,0.095,0.851,2.379        c-0.174-0.439,0.013,0.402,0.132,1.598c0.078,1.107,0.076,2.769-0.271,3.669c0,0-0.002-0.011-0.006-0.011        c0.653,1.626,1.313,3.359,1.095,5.935c-0.438,0.687-1.68-0.434-1.972,0.014c0.674,0.792,0.867,2.794,1.006,4.855        c0.141,2.062,0.245,4.182,0.886,5.259c-0.301-0.716-1.084-0.759-1.247-0.529l0.99,1.424c-0.362,1.59-0.534,1.814-1.148,1.537        c-0.381,4.767,1.982-1.449,0.889,4.208c-0.057-0.452-0.22-0.248-0.321-1.186c-0.183,1.422-0.285,2.821-0.359,4.206        c-0.032,0.693-0.064,1.38-0.097,2.064l-0.043,1.024l-0.02,0.51c-0.029,0.415,0.001,0.486,0.002,0.679        c0.116,2.72,0.163,5.383-0.182,8.036c-1.556,1.508-0.206-4.648-1.536-2.899c0.02,4.973,0.459,10.3,0.955,15.498l0.017,0.229        c0.065,0.296,0.116,0.613,0.156,0.95l0.11,1.17l0.138,1.457l1.248,0.385c2.267,0.699,4.396,0.794,6.404,0.854        c0,0-0.375-0.039-0.75-0.079c-0.375-0.041-0.752-0.101-0.752-0.101c0.604-1.035,2.001-0.746,3.832-0.519        c0.911,0.118,1.921,0.229,2.931,0.197l0.688-0.041c0.259-0.024,0.446-0.033,0.773-0.102c0.624-0.118,1.085-0.3,1.565-0.552        c-0.924,0.404-1.084,1.458-0.838,1.17c3.355-0.563,5.887-1.984,8.887-3.177c-0.229,0.033-0.457,0.067-0.707,0.104        c0.434,0.004,1.058-0.151,1.54-0.524c0.239-0.18,0.436-0.395,0.578-0.603c0.068-0.099,0.137-0.218,0.174-0.292l0.013-0.024        l0.088-0.201c0.069-0.18,0.062-0.177,0.075-0.218l0.03-0.122c-0.007,0.016,0.007-0.031-0.024,0.059l-0.093,0.221        c-0.037,0.079-0.079,0.156-0.125,0.23l-0.044,0.069c-0.056,0.085-0.119,0.173-0.193,0.261        c-0.147,0.175-0.337,0.348-0.557,0.49c-0.44,0.292-0.979,0.415-1.378,0.409l0.625-0.081c2.043-0.766,4.597-1.369,7.44-0.878        c0,0-0.233,0.079-0.467,0.158c-0.228,0.088-0.455,0.177-0.455,0.177c0.83,0.345,1.795,0.747,2.736,1.314l0.433,0.26        l0.794,0.052l0.017,0.001c-0.563-0.217-1.124-0.433-1.723-0.664c1.051,1.005,2.139,1.802,3.018,2.561        c0.886,0.754,1.575,1.482,2.03,2.179c0.451,0.123,0.874,0.525,1.185,0.76c0.144,0.097,0.317,0.237,0.374,0.11        c0.068,0.009,0.079-0.107,0.171-0.091c0.041-0.078,0.073-0.191,0.095-0.349c0.144,0.61,0.061,0.873-0.009,1.251        c-0.078,0.357-0.196,0.727-0.346,1.148l-0.246,0.667l-0.139,0.365l-0.035,0.094l-0.009,0.024l-0.002,0.006        c0.02-0.064-0.048,0.153,0.043-0.143l-0.005,0.013l-0.023,0.052l-0.09,0.209c-0.061,0.128-0.059,0.073-0.102,0.161        l-0.178,0.31l-0.186,0.313l-0.156,0.24c-0.476,0.725-1.053,1.415-1.811,2.21c-0.667,0.681-1.503,1.455-2.321,2.164        c-3.296,2.853-7.214,5.158-11.718,5.412c0.976-0.355,2.123-1.31,1.363-1.019c-1.707,0.793-3.469,1.535-5.301,2.147        c0.282-0.002,0.564-0.005,0.847-0.051c-0.369,0.009-0.771,0.104-1.107,0.267c-0.367,0.16-0.875,0.583-1.127,0.994        c0.438-0.344,0.875-0.688,1.311-1.037l-1.539,0.689c0.684,0.487,0.989,0.331,1.883,0.275c-0.18,0.144-0.479,0.384-0.78,0.625        c0.114-0.175,0.339-0.412,0.622-0.553c0.206-0.101,0.483-0.17,0.739-0.167c-0.107,0.018-0.29,0.047-0.474,0.077        c0.24,0.002,0.549,0.011,0.928,0.05c-0.172,0.196-0.41,0.405-0.704,0.622c0.076-0.012,0.152-0.025,0.251-0.041        c-0.211,0.022-0.47,0.062-0.72,0.417c0.119-0.096,0.238-0.191,0.393-0.315c-0.906,0.691-2.264,1.456-3.546,2.011        c2.926-1.862-0.584-1.41-2.219-1.196c0.352,0.148,0.011,0.653,0.252,0.859c-2.199,0.152-2.151,0.704-2.198,1.326        c-0.049,0.675-0.231,1.328-2.768,2.478l-0.053-0.565c-1.56,1.483-2.503,3.221-3.788,5.027        c-0.688,0.179-0.578-0.402-0.187-1.114c0.311-0.614,0.833-1.334,0.554-1.679c-0.273,0.324-0.519,0.672-0.725,1.046        c-0.115,0.201-0.174,0.331-0.277,0.544c-0.122,0.243-0.206,0.461-0.278,0.679c-0.291,0.882-0.353,1.76-0.343,2.573        c0.026,1.642,0.289,3.021-0.051,4.517c-0.507-1.307-0.521-3.322-0.436-4.825c-0.985,1.559-1.177,2.61-1.257,3.463        c-0.059,0.871,0.041,1.613,0.199,2.887l-0.022-0.252c0.081,0.81,0.215,1.613,0.47,2.386c-0.069-0.27-0.139-0.539-0.183-0.808        l0.003,0.244c0.012,0.189,0.063,0.479,0.139,0.7l0.031,0.094l0.003,0.012l0.006,0.023l0.011,0.046l0.047,0.187l0.093,0.372        l0.187,0.744c0.123,0.495,0.285,1.033,0.428,1.55l-0.206-1.412c2.041,1.371,2.924,3.067,3.871,5        c0.939,1.912,1.937,4.025,4.041,5.783c-4.012-3.506-1.289-0.227-2.531,0.058c0.379,1.337,1.144,3.293,0.548,2.971        c2.148,1.599,1.621,3.995,4.851,6.051c-0.226,0.358,1.558,2.168,0.441,2.304c2.223,2.408,0.07-1.024,0.636-1.098        c0.514,0.406,0.968,0.836,1.444,1.375c0.456,0.49,0.856,1.013,1.309,1.606c0.877,1.184,1.727,2.457,2.678,3.778        c1.892,2.623,4.21,5.359,7.522,7.076c2.581,1.776,4.353,2.495,6.053,3.162c1.71,0.654,3.358,1.254,5.885,2.493        c0.63,0.768,0.118,0.864-0.565,0.76c-0.68-0.105-1.518-0.426-1.518-0.426c2.267,2.192,4.376,3.324,7.172,4.287        c-0.682,0.023-0.282,0.566,0.326,1.369c1.088,0.488,1.602,0.34,2.16,0.301c0.559-0.034,1.153,0.044,2.464,0.925        c-0.66,0.189-1.573,0.554-2.812,0.458c2.726,0.885,5.586,1.226,8.426,1.799c0.523,0.888-1.989,0.435-3.115,0.468        c0.8,0.221,1.723,0.459,2.672,0.685c0.978,0.202,1.876,0.427,2.919,0.56c1.909,0.2,3.295,0.165,3.906-0.208        c0,0-0.449-0.218-0.897-0.436c-0.463-0.211-0.926-0.421-0.926-0.421c1.119,0.213,0.354,1.032-0.503,1.032        c-0.702,0.054-1.314-0.005-1.848-0.147c-0.509-0.131-1.091-0.421-1.207-0.586c-0.576-0.441-0.782-0.929-0.796-1.139        l2.03,0.377c-0.695-1.417-2.611-1.893-4.869-2.375c-2.248-0.468-4.846-0.934-6.66-1.915c0,0,0.564-0.185,1.13-0.37        c0.56-0.196,1.118-0.393,1.118-0.393s-1.08-0.119-2.164-0.283c-1.082-0.16-2.173-0.353-2.173-0.354        c-0.578-0.815-0.644-1.9,1.213-1.18c-2.113-2.087-2.53-0.713-4.172-2.773c-0.153-0.266-0.007-0.268,0.238-0.189        c0,0-0.655-0.269-1.311-0.536c-0.652-0.281-1.305-0.563-1.305-0.563c0.65,0.011,0.269-1.23,1.556-0.093        c-1.817-1.754-3.596-2.668-5.057-3.434c-1.45-0.768-2.568-1.376-2.88-2.463l0.385,0.188c-2.816-2.012-3.116-1.95-3.366-1.597        c-0.24,0.331-0.396,0.937-2.828-0.372c0,0-0.135-1.162-0.223-2.323c-0.099-1.154-0.154-2.305-0.154-2.305l-1.355,0.356        c-0.464-0.555-1.36-1.66-0.818-1.799c-2.411-1.42-0.086,0.698-1.718,0.069c-0.747-1.675-2.37-3.402-3.654-5.028        c-1.281-1.615-2.224-3.069-1.654-3.949c-1.485-0.475,1.354,3.118-1.335,0.475c1.109-2.05-2.76-3.323-3.578-6.579        c1.424,0.282,2.497,3.084,1.674-0.08c-1.273-0.324-1.97-1.708-2.498-3.261c-0.533-1.555-0.863-3.281-1.587-4.38        c-0.504,0.188-1.055-0.444-1.632-1.529c-0.286-0.544-0.586-1.197-0.872-1.909c-0.146-0.355-0.298-0.723-0.445-1.124        c-0.075-0.198-0.151-0.397-0.229-0.599l-0.116-0.304l-0.059-0.152l-0.015-0.038l-0.008-0.019        c0.258-0.1-2.251,0.853-1.186,0.448l0.006-0.003l0.012-0.004l0.025-0.008c0.017-0.004,0.033-0.005,0.05-0.005l0.024,0.001        c-0.245,0.02,2.166-0.171,1.146-0.089v0.003l0.001,0.007l0.002,0.051l-0.072-0.446c-0.356-1.04-0.636-2.136-0.864-3.174        c0.132,0.054,0.177-0.412,0.273-1.16c0.096-0.742,0.269-1.787,0.694-2.725c0.215-0.474,0.472-0.881,0.813-1.243        c0.428-0.502,0.847-0.907,1.317-1.313c0.927-0.795,1.942-1.428,2.789-1.851l0.048,0.263c-0.131-0.805,0.699-1.731,1.961-2.574        c1.254-0.851,2.911-1.603,4.29-2.31c0.218,0.867-0.184,1.376-1.487,2.389c0,0,0.639-0.279,1.278-0.559        c0.653-0.264,1.307-0.527,1.307-0.527c0.285-0.428,0.688-0.805,1.494-1.258l-0.725-2.116c0.027,0.009,0.035,0.047,0.031,0.04        l0.715,2.043c0.297-0.189,0.802-0.43,1.429-0.706l-0.364,1.282c1.888-0.668,3.713-1.649,5.677-2.671        c1.968-1.03,4.062-2.083,6.59-3.06c-0.119-0.517-1.387-0.635-2.029-1.063c-0.658-0.437-0.65-1.068,1.447-2.679        c0.445,0.374,1.128,1.089-0.006,2c0.379-0.295,1.21-1.228,2.121-1.544c0,0-0.339,0.489-0.679,0.979        c-0.357,0.482-0.714,0.965-0.714,0.965c2.274-0.884,0.677-1.297,2.301-2.259c0.416,0.681,1.48-0.356,1.624,0.308        c-0.359,0.366-1.572,0.713-2.031,1.368c0.963-0.53,2.048-1.103,3.021-1.588c0.253-0.125,0.495-0.245,0.725-0.358        c0.212-0.097,0.414-0.183,0.605-0.255l0.035-0.014l0.005-0.001l0.002-0.001l0.104-0.089l0.001,0l0.009-0.004l0.019-0.008        l0.071-0.031l0.139-0.059c0.096-0.038,0.186-0.073,0.269-0.106c0.173-0.065,0.332-0.116,0.472-0.147        c-0.474-0.201-0.705-0.711,0.385-2.118c0.365-0.453,0.644-0.833,0.868-1.137c0.221-0.293,0.433-0.599,0.535-0.691        c0.306-0.375,0.442-0.362,0.626-0.4c0.17-0.011,0.323,0.043,0.541-0.063c0.114-0.069,0.263-0.229,0.433-0.481        c0.055-0.074,0.118-0.161,0.193-0.264l0.049-0.073l0.012-0.019l0.007-0.01l0.063-0.201l0.003-0.006l0.024-0.048        c0.03-0.067,0.063-0.138,0.099-0.214c-0.126-0.605,0.15-1.685,0.107-2.844c-0.024-1.156-0.47-2.222-1.054-2.088        c-0.059-0.214-0.111-0.406-0.159-0.58c-0.061-0.204-0.115-0.387-0.164-0.552c-0.093-0.309-0.003-0.311-0.083-0.633        c0.001-0.353,0.078-0.639,0.063-0.959c-0.453-0.46-1.131-1.274-1.957-2.063c-0.82-0.796-1.766-1.555-2.568-2.113        c-1.61-1.097-2.604-1.625-2.179-0.474l0.349,0.382c-0.092-0.041-0.18-0.109-0.289-0.162c0.013,0.011,0,0,0.013,0.011        l-0.013-0.011c-0.463-0.248-0.901-0.511-1.307-0.799l-0.518-0.368l-0.363,0.028l-0.017,0.001        c0.206,0.052,0.416,0.106,0.626,0.159c-3.814-1.625-8.054-2.123-12.139-1.371l0.382-0.05c-0.234,0-0.545,0.068-0.812,0.232        c-0.132,0.08-0.25,0.179-0.345,0.282c-0.048,0.052-0.09,0.104-0.126,0.155l-0.063,0.094c-0.03,0.05-0.059,0.103-0.085,0.157        c-0.064,0.139-0.066,0.158-0.079,0.189l-0.047,0.134l-0.009,0.023c-0.001,0.002-0.004,0.01-0.004,0.008        c0.007-0.001-0.066-0.029,0.229,0.06l0.974,0.313c0.069,0.023,0.138,0.053,0.202,0.087c0.061,0.027,0.084,0.011,0.086,0.056        l-0.445-1.522c-2.516,0.551-4.873,1.388-6.956,2.225l-0.106-0.38c-0.428,0.194-0.862,0.361-1.304,0.511        c-0.48,0.147-0.764,0.246-1.345,0.348c-1.121,0.242-2.052,0.424-3.056,0.586c-1.962,0.325-3.746,0.492-5.112,0.75        c-0.552-0.056-1.156-0.361-1.512-0.693c-0.356-0.339-0.471-0.688-0.21-0.855c-0.189-0.034-0.365-0.066-0.519-0.094        c0.559,0.743,0.966,1.283,1.372,1.823c-0.07-0.303-0.133-0.804-0.205-1.179c-0.082-0.407-0.155-0.779-0.23-1.156l0.014,0.184        c-0.135-1.107-0.147-2.276,0.262-4.766c0.662,3.011,0.603-1.021,0.491,3.075c0.337-3.866,1.014-4.713,0.069-8.961        c0.959,1.473,1.381-2.909,1.142-4.815l-0.82,2.748c-0.071-2.116,0.081-3.962,0.209-5.86l1.306,1.061        c0.23-1.014,0.359-2.052,0.412-2.996l0.01-0.18c-0.003-0.01,0.02-0.301-0.01,0.197l0.04-0.364l0.063-0.725        c0.033-0.481,0.057-0.957,0.059-1.431c0.021-1.892-0.168-3.714-0.35-5.463c-0.365-3.508-0.728-6.695,0.594-9.862        c-0.937-2.172-0.635,4.494-1.736,2.535c0.212-3.747,1.942-7.788,1.863-9.003c0.215-2.648-0.394-3.843-1.02-5.038        c-0.311-0.597-0.652-1.213-0.906-2.012c-0.126-0.408-0.243-0.834-0.33-1.338c-0.043-0.251-0.08-0.521-0.107-0.811        c-0.036-0.343-0.074-0.708-0.114-1.101c-0.36,0.806-1.415,1.605-2.7-2.231c-0.337-1.849-0.19-3.094,0.204-3.622        c0.389-0.526,1.033-0.317,1.542,0.824c0.279,0.896,0.239,1.371,0.072,1.371c0.472,1.173,1.009,2.765,1.184,1.133l-0.577-0.391        c0.02-1.001-0.333-2.812-0.618-4.229c-0.277-1.419-0.452-2.462,0.124-1.979c-1.417-2.684-1.126-0.948-0.687,1.206        c-0.436-2.501-1.149-4.354-1.938-6.172c-0.805-1.817-1.686-3.606-2.701-5.996c0.157,0.851,0.002,1.773-0.366,1.051        c-1.513-3.457-2.203-4.025-2.736-4.305c-0.554-0.271-1.009-0.25-2.477-2.278c-1.035-2.749,2.057-0.164-1.431-3.946        c-1.509-2.777,0.602-1.312,1.671-0.514c-3.526-3.241-5.123-7.237-6.923-9.333c0,0,0.503,0.388,1.007,0.775        c0.499,0.396,0.999,0.792,0.999,0.792c-1.188-0.956-2.039-1.843-2.926-2.731l0.329,1.683        c-0.899-1.165-1.793-2.025-1.498-2.291c-1.514-0.587-0.274,1.908-2.992,0.509c-1.063-1.686-4.687-3.428-4.422-4.803        c2.203,2.072,2.256,1.752,2.304,1.259c0.036-0.48,0.044-1.126,2.067,0.51c-0.851-0.552-1.766-1.353-2.797-2.413        c-0.081-0.248,0.326-0.07,0.683,0.129c-1.927-2.308-2.719-2.422-3.568-2.455c-0.425-0.013-0.884-0.004-1.546-0.221        c-0.621-0.183-1.493-0.627-2.733-1.473c1.043-0.156-0.421-1.912-1.356-2.316c2.066,1.361,0.338,1.604-1.826,0.896        c-3.024-2.464-3.822-1.746-5.552-2.744c0,0,0.476,0.324,0.951,0.649c0.471,0.331,0.941,0.661,0.941,0.661        c-1.021,0.249-2.635-0.751-5.116-1.681c0.035-0.606,2.327,0.708,1.584,0.074c-1.596-0.093-2.943-1.08-4.47-2.133        c-1.518-1.05-3.22-2.167-5.314-2.445c-1.665-1.074,0.256-1.326-1.265-2.172c-2.386-0.278-3.539-0.83-4.744-1.417        c-1.2-0.579-2.455-1.188-4.979-1.298c1.223,1.237,1.485,0.997-2.073,1.3c0,0,2.009,0.172,4.014,0.45        c2.004,0.27,4,0.646,4,0.646s-1.344-0.012-2.677,0.028c-1.334,0.031-2.655,0.115-2.655,0.115        c2.345,0.488,5.087,0.589,6.437,1.156c-2.564,0.082-2.243-0.06-1.356,1c-1.379-1.126-3.023-1.321-4.72-1.412        c-1.703-0.092-3.453-0.085-5.241-0.838l0.461-2.32c-0.708-0.235-1.382-0.413-2.098-0.537c-0.73-0.131-1.381-0.199-2.018-0.235        l-0.588-0.033l-0.225,0.007l-0.451,0.02l-0.914,0.054c-0.625,0.043-1.254,0.087-1.896,0.132        c-2.616,0.191-5.479,0.287-9.275-0.158c0,0,0.609,0.128,1.218,0.256c0.591,0.136,1.183,0.273,1.183,0.273        c-0.529,0.439-1.654,0.398-3.015,0.328c-1.274-0.067-2.787-0.189-3.97,0.015c0.217-0.793-1.285-1.065-2.332-1.524        c0.071,0.292-1.292,0.313-2.748,0.505c-1.456,0.188-2.996,0.549-3.26,1.365c0,0-0.846-0.182-1.691-0.363        c-0.853-0.168-1.706-0.336-1.706-0.336c-3.019,0.15-4.643,1-6.183,1.869c-1.546,0.882-3.015,1.775-5.803,2.333        c1.474-1.236-1.221-1.19,2.427-2.658c-1.896,0.404-3.626,0.712-3.516,1.248c-1.251-0.214-4.851,2.475-6.74,2.38        c-0.654,0.603-0.625,1.451-2.643,2.167c-0.276-0.062-0.135-0.366-0.135-0.366c0.122,0.354-2.898,1.773-0.84,1.858        c-3.164-0.027-6.928,1.821-10.321,3.993c-1.705,1.086-3.324,2.23-4.85,3.233c-1.494,0.976-2.927,1.815-4.256,2.222        c-3.112,2.863-6.542,6.583-8.998,9.476c-0.014-0.338-0.287-0.27,0.256-0.752c-2.025,1.724-2.099,2.734-2.228,3.771        c-0.127,1.048-0.314,2.115-2.371,4.244c-2.804,1.716,1.283-2.955-0.207-1.707c-1.285-0.443-2.314,1.085-3.352,3.063        c-1.05,1.979-2.081,4.381-3.717,5.792l0.348-0.935c-1.927,1.901-2.544,5.604-3.801,9.405c0.859,0.344,1.763,0.706,2.667,1.068        c-0.458-0.382-0.906-0.782-1.342-1.2l-0.644-0.64c-0.154-0.155-0.095-0.11-0.098-0.124l0.017-0.017l-0.083,0.09l-0.124,0.146        c-0.055,0.068-0.107,0.139-0.156,0.212l-0.09,0.14c-0.09,0.15-0.172,0.316-0.238,0.491c-0.134,0.349-0.202,0.734-0.202,1.082        c0.065-0.349,0.135-0.716,0.204-1.083c-0.224,0.753-0.487,1.517-0.779,2.287c0,0-0.135-0.31-0.361-0.156        c0.051,1.878-0.251,4.395-0.516,7.052c-0.276,2.655-0.522,5.45-0.608,7.831c-0.835-1.592-0.252-2.228-1.402-1.453        c-0.11,2.161,1.679-0.399,1.537,3.842c-0.693,1.316-1.333,4.359-2.44,4.738c0,0,0.033-1.017,0.065-2.034        c0.053-1.019,0.106-2.038,0.106-2.038c-1.597,2-0.251,5.291-0.499,7.401l-0.622-0.278c0.084,3.129,0.588,4.689,1.049,6.294        c0.469,1.604,0.908,3.25,1.086,6.527l0.423-0.71c0.906,1.752,0.742,2.44,0.548,3.296c-0.187,0.768-0.418,1.534,0.34,3.227        l-1.465,1.218c0.622,2.262,2.258,7.952,2.628,12.119c-1.204-2.331-2.089-7.103-3.074-10.025        c0.228,2.284,0.683,7.697,1.473,8.854c-0.187-0.913-0.622-2.043-0.432-2.961c1.386,2.713,2.162,6.434,1.929,11        c-1.087-0.336-1.545,1.077-1.903,3.137c0.015-0.103,0.03-0.212,0.046-0.322c-0.056,0.255-0.119,0.602-0.094,1.066        c0.002,0.061,0.02,0.235,0.015,0.203l-0.001,0.011h0l1.989-0.215l0.011-0.002l0.022-0.003l0.045-0.007l0.09-0.012l0.181-0.016        c0.405-0.012,0.104,0.007,0.007-0.044c0.027-0.894,0.055-1.841,0.084-2.789c-1.685,0.177-3.808,0.309-5.748,0.067        c-1.937-0.232-3.65-0.797-4.43-1.674c-0.552-0.014-1.104-0.055-1.654-0.117l-0.864-0.098        c-0.959,0.168-2.279-0.104-3.775-0.605c-1.497-0.499-3.122-1.194-4.969-1.845c-4.715-1.571-10.125-0.808-14.406,2.358        c0.248-0.153,0.507-0.313,0.767-0.474c-0.153,0.077-0.304,0.162-0.452,0.255l-0.299,0.203l-0.106,0.078        c-0.005,0.003,0.011-0.009,0.016-0.013l0.011-0.008l0.005-0.004l0.003-0.002l0.445,0.614l1.727,2.41        c0.076,0.075,0.146,0.156,0.21,0.241c0.128,0.169,0.23,0.358,0.303,0.559l-2.584-3.896c-0.812,0.527-1.673,1.156-2.508,1.918        c1.239-0.289,1.648-0.188,1.658-0.006c0.005,0.193-0.406,0.522-0.886,0.97c-0.987,0.864-2.108,2.374-0.888,2.812        c-0.761,1.12-1.153,2.001-1.411,2.586c-0.257,0.589-0.389,0.893-0.504,0.99c0,0-0.254,0.479-0.529,1.261        c-0.073,0.196-0.131,0.409-0.202,0.64c-0.056,0.232-0.115,0.477-0.176,0.73l-0.039,0.148        c-0.006,0.019-0.014,0.062-0.019,0.062l-0.02,0.173c-0.026,0.25-0.031,0.43-0.036,0.634l0.003,0.291        c0.001,0.093-0.005,0.118-0.006,0.18l-0.002,0.04v0.005l0.021,0.125l0.001,0.014l0.001,0.026l0.007,0.106l0.014,0.214        c0.072,1.147,0.352,2.276,0.628,3.092c0.276,0.818,0.524,1.337,0.524,1.337c0.327,1.079-0.207,0.61-0.83-0.18        c-0.623-0.781-1.215-1.944-1.404-1.706c0.679,1.708,1.249,2.614,1.548,3.241c0.313,0.618,0.399,0.932,0.421,1.208        c0.028,0.271-0.01,0.503,0.136,0.912c0.071,0.206,0.19,0.456,0.393,0.776c0.105,0.165,0.273,0.378,0.452,0.599        c0.102,0.145,0.165,0.258,0.369,0.488c-0.049-0.609,0.549-0.468,1.444,0.032c0.447,0.248,0.974,0.579,1.504,0.939        c0.509,0.346,1.09,0.773,1.253,0.99l0.034,0.045l0.349,0.229c0.161,0.105,0.333,0.207,0.513,0.301        c0.181,0.096,0.407,0.195,0.408,0.195l0.174,0.075l0.011,0.004l0.005,0.002l0.001,0l1.411-3.656l0.002-0.013l0.021-0.098        l0.048-0.194c0.036-0.128,0.079-0.256,0.129-0.38c0.05-0.125,0.108-0.248,0.173-0.367l0.05-0.089        c0.005-0.007,0.004,0,0.006-0.002l0.007,0.004l0.03,0.018l0.008,0.004l0.004,0.002l-2.902,4.256l0,0l0,0l0.001,0.001        l0.002,0.001l0.015,0.013l0.031,0.025l-0.026-0.029l-0.013-0.014l-0.003-0.004l-0.002-0.001l0,0v0l2.896-4.248l-0.001,0        l-0.007-0.004l-0.029-0.017l-0.014-0.008c-0.042,0.067-0.122,0.219-0.171,0.33c-0.109,0.242-0.191,0.496-0.245,0.758        l-0.01,0.049l-0.001,0.006l-1.4,3.629l-0.003-0.001l-0.005-0.002l-0.022-0.01l-0.044-0.02l-0.088-0.041l-0.375-0.182        c-0.193-0.101-0.381-0.212-0.562-0.333l-0.383-0.256l-0.003-0.009c-0.074-0.285-0.52-0.802-0.955-1.322        c-0.448-0.529-0.935-1.106-1.399-1.712c1.667,0.956,2.833,1.6,3.174,1.986l0.013,0.015l0.275,0.191        c0.276,0.192,0.755,0.402,0.755,0.402l0.078,0.033l0.02,0.008c-0.815,2.117,1.122-2.874,0.926-2.385l0.011-0.054l0.05-0.211        c0.076-0.279,0.184-0.546,0.321-0.797c0.048-0.088,0.045-0.075,0.046-0.07l0.008,0.004l0.016,0.009l0.016,0.009l0.008,0.004        c-0.951,1.392,2.132-3.113-2.132,3.12l0.002,0.002l0.003,0.003l0.06,0.049c0.078,0.067,0.154,0.133,0.228,0.197        c0.145,0.135,0.282,0.264,0.416,0.389c0.263,0.254,0.495,0.51,0.718,0.757c0.445,0.499,0.845,0.989,1.338,1.475        c0.98,0.965,2.347,1.953,5.144,2.712c0,0-0.614-0.078-1.228-0.156c-0.618-0.09-1.235-0.181-1.235-0.181        c1.767,0.663,4.844,2.061,8.029,3.051c3.183,1.006,6.419,1.643,8.443,1.329c-0.195-0.07-0.325-0.118-0.455-0.165        c0.148,0.005,0.259-0.011,0.366-0.029c0.374,0.481,0.665,1.357-0.537,0.995c1.515,0.749,3.084,1.569,4.4,2.494        c1.328,0.931,2.29,1.92,2.687,2.796c0.539,1.38,0.697,3.086,0.469,4.731c-0.221,1.647-0.787,3.214-1.576,4.456l-0.371-0.727        c-0.287,1.308,0.172,2.689-1.143,4.031c-0.182-0.189-0.3-0.747-0.603-0.205c-0.135,0.766-0.892,4.04-2.198,5.601l0.245-1.816        c-2.233,3.243-3.476,5.975-4.611,8.666c-1.142,2.678-2.182,5.31-4.128,8.041c-0.682-0.561-2.103,0.282-3.666,1.462        c-1.559,1.188-3.278,2.711-4.451,3.689l-0.103-0.25c-3.229,3.123-5.855,5.888-8.525,8.567c-2.665,2.682-5.344,5.178-8.9,7.498        c-2.748,0.401-6.741,2.122-11.272,3.559c-0.571,0.192-1.109,0.341-1.669,0.518l-0.915,0.263l-0.467,0.133l-0.234,0.066        l-0.029,0.008l-0.007,0.003c-0.034,0.009,0.306-0.087,0.139-0.04l-0.091,0.025l-0.36,0.114l-0.404,0.157        c-0.036,0.027-0.683,0.203-1.385,0.407c-0.71,0.207-1.518,0.469-2.334,0.807c-1.639,0.666-3.337,1.681-4.731,2.967        c-0.352,0.317-0.683,0.652-0.996,0.993c-0.309,0.335-0.601,0.68-0.937,1.126l-0.295,0.377        c-0.247,0.366-0.375,0.564-0.556,0.894c-0.414,0.788-0.587,1.271-0.76,1.768c1.145-2.279,0.853,0.846,1.162,3.271        c-0.073,0.82,0.087,1.778,0.403,2.663c0.313,0.891,0.773,1.712,1.228,2.406c0.906,1.401,1.834,2.281,1.047,2.641        c0,0-0.166-0.2-0.331-0.401c-0.191-0.24-0.109-0.145-0.246-0.323c-0.082-0.113-0.137-0.188-0.137-0.188        c0.122,0.568,0.198,0.956,0.447,1.46c0.236,0.486,0.583,0.996,1.024,1.492c0.44,0.496,0.974,0.978,1.551,1.405        c0.288,0.215,0.586,0.417,0.883,0.603l0.46,0.277l0.086,0.051l0.043,0.025l0.022,0.012l0.011,0.007l0.002,0.001l0.001,0.001        c-0.354-0.203-0.089-0.051-0.165-0.094l0.059,0.034l0.24,0.133c0.068,0.036,0.207,0.104,0.163,0.083l-0.013-0.006        l-0.006-0.004h-0.002l2.14-4.274l0.018-0.042c0.036-0.093,0.146-0.267,0.155-0.276l0.003-0.008l-2.487,4.523        c1.324,0.776,2.781,1.455,4.079,2.059l1.408-1.683c1.815,1.645,4.274,2.882,6.891,3.759c2.621,0.887,5.394,1.43,7.974,1.893        c0.641,0.115,1.274,0.229,1.896,0.34c0.347,0.063,0.691,0.127,1.031,0.189c0.318,0.051,0.633,0.102,0.944,0.151        c1.237,0.197,2.391,0.385,3.423,0.605c2.065,0.437,3.652,1.036,4.497,1.965c1.149-0.036,2.325,0.198,3.361,0.452        c0.378-1.264,0.747-2.499,1.116-3.734c-0.182,0.11-0.367,0.212-0.557,0.306l-0.662,0.313c-0.599,0.29-1.139,0.524-1.809,0.801        l-0.337,0.147l0.002,0.002l0.004,0.003l0.009,0.007c0.004,0,0.016,0.022,0.026,0.036c0.038,0.057,0.091,0.154,0.144,0.25        c0.115,0.209,0.228,0.416,0.34,0.619c0.237,0.423,0.488,0.835,0.754,1.213l-1.097,0.308c0.187,0.53,0.365,1.038,0.478,1.357        c-0.083-0.22-0.119-0.318-0.156-0.416c0.525,2.042,0.84,3.945,1.304,6.096c0.232,1.081,0.496,2.238,0.849,3.557        c0.18,0.67,0.366,1.331,0.618,2.135c0.117,0.357,0.237,0.727,0.362,1.107c0.023,0.056,0.215,0.686,0.405,1.087        c0.192,0.442,0.424,0.859,0.682,1.264c0,0-0.638-0.605-1.159-1.418c-0.129-0.199-0.256-0.423-0.365-0.608        c-0.07-0.068-0.135-0.132-0.191-0.188c-0.112-0.109-0.187-0.183-0.187-0.183c0.037,0.121,0.074,0.239,0.109,0.354l0.104,0.302        l0.168,0.442c0.243,0.563,0.523,1.069,0.838,1.503c0.624,0.876,1.346,1.514,2.095,1.986c0.75,0.473,1.53,0.78,2.313,0.96        c0.403,0.094,0.761,0.138,1.203,0.182c0.235,0.025,0.545,0.06,0.708,0.045l0.131-0.05l0.066-0.024l0.033-0.013l0.016-0.006        l0.008-0.003l0.004-0.002c-0.118-0.025,0.163,0.034,0.135,0.027l0.003-0.001c0.943-0.244,1.838-0.563,2.792-0.888        c0.926-0.313,1.951-0.66,3.2-1.082c0,0,0.126,0.067,0.316,0.169c0.188,0.101,0.458,0.223,0.668,0.365l0.135,0.116        c0.027,0.003-0.051,0.048-0.073,0.068l-0.027,0.02c-0.006-0.003-0.004,0.021-0.018-0.004l-0.053-0.109l-0.202-0.442        c-0.256-0.593-0.461-1.197-0.617-1.803l-0.099-0.424l-0.015-0.128l-0.028-0.253l-0.028-0.248l-0.007-0.061l-0.001-0.016        l-0.001-0.007c-0.004-0.102,0.004,0.134,0.004,0.11l0,0l0,0.004l0.002,0.016c0,0.021,0.001,0.114-0.032,0.237        c-0.029,0.161-0.067,0.313-0.111,0.456l-0.034,0.105l-0.852,3.035l0,0.001l-0.001,0.001l-0.002,0.003l-0.003,0.006        l-0.014,0.022c-0.06,0.016,0.051,0.078,0.121,0.12c0.032,0.034,0.209,0.096,0.296,0.124c0.094,0.03,0.144,0.046,0.144,0.046        l0.145,0.022l0.247,0.026c0.166,0.013,0.333,0.018,0.498,0.014c0.354-0.004,0.879-0.082,1.287-0.217l-0.486,0.126        c3.431-0.69,6.912-0.992,10.288-1.324c3.385-0.332,6.632-0.693,9.831-1.528c-0.103,0.254-0.28,0.735-1.33,0.851        c1.542-0.063,4.465,0.205,6.772,0.436c2.31,0.208,4.117,0.314,3.836-0.933c-0.071,0.504,0.611,0.819,1.688,1.084l0.612,0.15        l0.55-0.003h0.021c-0.334-0.04-0.72-0.087-1.106-0.134c1.033,0.245,2.455,0.454,3.928,0.729        c1.471,0.268,2.992,0.588,4.169,0.886l-0.964,0.786c1.65-0.04,2.565-0.082,3.559,0.053c0.994,0.146,2.074,0.482,4.084,1.4        c0.833,0.65,0.344,1.226-0.709,0.296c2.699,2.239,2.88,0.437,6.203,3.187l-1.726-0.233c3.024,1.98,2.984,1.52,5.127,1.888        c2.171,0.857,5.749,3.939,5.715,5.08c0.303-0.108,0.845-0.117,1.522,0.021l5.241,1.066l-1.288-3.316        c-0.019-0.049-0.042-0.107-0.065-0.169c-1.076,0.617-2.46,1.412-3.844,2.206c0.879,0.167,1.97,0.593,2.947,1.331        c0.07,0.479-0.741,0.29-1.146,0.19c2.511,1.876,4.783,2.703,6.829,3.344c2.06,0.643,3.865,1.121,5.823,2.334        c-0.025,0.379,0.202,0.643,0.532,0.862c-5.058-1.58-8.608-3.672-8.241-3.529c-0.501,0.923,3.282,2.905-0.393,2.735        c1.717,0.404,4.116,0.811,6.581,1.178c2.467,0.38,4.979,0.697,7.023,1.279c0.185,0.132,0.368,0.264,0.497,0.442l-0.455,0.042        c0.959,0.265,1.858,0.281,2.7,0.188c1.337,0.297,2.205,0.469,3.513,0.504c0.056,0.097,0.162,0.178,0.318,0.247l4.977,2.194        l-3.408-11.479c-0.008-0.027-0.047-0.063-0.062-0.09c-0.005-0.008-0.011-0.015-0.008-0.019l0.001-0.008        c-0.14,0.371-0.281,0.746-0.423,1.124c-0.257,0.714-0.507,1.379-0.796,2.082c-0.176,0.405-0.201,0.548-0.305,0.777        c-0.08,0.187-0.238,0.489-0.271,0.536c-0.161,1.465-0.347,3.155-0.533,4.848c1.394,0.541,4.687,0.444,6.374,0.44        c-0.166-1.118,2.517-0.979-0.012-1.872c0.326,0.074-0.382,0.146-1.76,0.168c-0.312,0.027-0.681,0.031-0.889,0.091        c0.041-0.029,0.091-0.063,0.145-0.094c-1.223-0.023-2.457-0.091-3.694-0.224l0.37-3.357c0.049-0.038,0.137-0.274,0.23-0.443        c0.089-0.191,0.144-0.352,0.227-0.583c0.255-0.611,0.497-1.228,0.725-1.85l0.085-0.232c0.039-0.105,0.008-0.03,0.017-0.055        l0.003,0.001l0.007,0.002l0.018,0.005l0.114,0.034l22.788,6.781l-23.911-0.136l-1.16-0.007        c0.383-0.115,0.766-0.236,1.162-0.335l30.031-7.538l-29.021,1.56l-0.132,0.007c-0.018,0.003-0.038,0.004-0.039,0.012        l-0.292,0.773l-0.378,0.938c-0.1,0.265-0.143,0.407-0.238,0.609c-0.091,0.172-0.189,0.416-0.235,0.456        c-0.104,0.936-0.214,1.938-0.325,2.941c1.249-0.169,2.557-0.178,4.148,0.302c1.08-0.692,2.204-1.446,2.829-1.806        c2.774,1.543,8.092,1.984,8.833,2.907c1.815-0.319,3.761-0.56,5.73-0.731l0.574-0.05l0.074-0.019        c2.388-0.589,4.774-1.344,6.802-2.302c2.026-0.96,3.682-2.113,4.625-3.342c1.503-0.985,2.117-0.35,2.888-0.368        c-0.839,0.683-1.99,1.203-2.395,1.704c0.792-0.48,1.773-1.075,2.813-1.706c0.51-0.315,1.045-0.657,1.587-1.028        c0.285-0.187,0.493-0.347,0.726-0.517l0.338-0.251l0.084-0.063l0.01-0.008l0.006-0.004l0.002-0.002        c-0.166,0.104-0.044,0.027-0.081,0.05l0.022-0.015l0.043-0.03l0.172-0.122c1.83-1.295,3.273-2.551,3.225-3.392        c3.995-1.764-1.31,2.464,3.552-0.954l-0.425,0.814c5.393-2.136,8.695-5.429,12.165-8.638c1.735-1.606,3.519-3.2,5.621-4.596        c2.099-1.389,4.526-2.594,7.456-3.273c-0.314,0.068-0.654,0.143-0.994,0.216c-0.238,0.004-0.512-0.034-0.773-0.127        c-0.131-0.045-0.259-0.103-0.377-0.17l-0.169-0.105l-0.079-0.057l-0.038-0.029l0.031,0.024c0.376,0.301,0.966,0.505,1.453,0.5        l0.844-0.152c0.297-0.026,0.598-0.063,0.921-0.067c-0.413,0.019-0.7,0.066-0.926,0.055l-0.839,0.152        c-0.287-0.003-0.608-0.065-0.891-0.184c-0.142-0.058-0.273-0.128-0.39-0.203l-0.164-0.115        c-0.045-0.034-0.021-0.016,0.014,0.011l0.083,0.059c0.461,0.319,1.011,0.4,1.3,0.387c0.4-0.087,0.799-0.174,0.984-0.214        c-0.213,0.024-0.359,0.008-0.476-0.057c0.128-0.047,0.255-0.093,0.386-0.141c-0.29,0.063-0.592,0.129-0.894,0.194        c-0.221,0.003-0.47-0.033-0.707-0.118c-0.117-0.042-0.231-0.096-0.337-0.156l-0.151-0.096        c-0.033-0.022-0.138-0.104-0.055-0.04c0.342,0.268,0.865,0.444,1.297,0.44l0.244-0.002l0.513-0.135        c3.061-0.804,6.55-0.985,10.154-1.147c3.668-0.141,7.359-0.283,11.045-0.425c3.685-0.106,7.358-0.114,10.968,0.171        c1.8,0.143,3.602,0.357,5.329,0.661l1.336,0.254l0.334,0.067l0.042,0.009l0.021,0.004l0.156,0.014l0.246,0.013        c0.144,0.003,0.305-0.001,0.414-0.009l0.524-0.047c0.172-0.017-0.041,0.025,0.258-0.003c1.572-0.177,2.69-0.672,3.84-1.363        c0.192-0.129,0.376-0.265,0.555-0.413c0.09-0.074,0.171-0.14,0.286-0.252l0.246-0.241l0.071-0.07l0.215-0.258l0.174-0.222        c0.112-0.148,0.218-0.301,0.316-0.456c0.396-0.611,0.665-1.299,0.791-1.841c0.027-0.119,0.063-0.283,0.068-0.35        c-0.014,0.009,0.006-0.105,0.007-0.152c0.008-0.132,0.017-0.256,0.024-0.376c0.004-0.067,0.005-0.126,0.018-0.219        c0.001-0.019,0.005-0.044,0.013-0.083c0.012-0.052,0-0.025,0.038-0.166l0.046-0.208c0.093-0.406,0.089-0.901-0.032-1.331        c-0.029-0.107-0.063-0.21-0.103-0.308l-0.03-0.072l-0.065-0.138c-0.073-0.144-0.174-0.316-0.343-0.521        c-0.169-0.201-0.415-0.439-0.775-0.641c-0.355-0.202-0.834-0.342-1.289-0.345c-0.947-0.002-1.523,0.406-1.807,0.639        c-0.371,0.339-0.219,0.215-0.266,0.255l-0.027,0.032l-0.055,0.067l-0.104,0.137c-0.088,0.125-0.073,0.114-0.088,0.14        c-0.144,0.302-0.121,0.365-0.164,0.526c1.619,0.942,3.046,1.773,4.473,2.604c0.066-0.283,0.132-0.563,0.198-0.847l0.031-0.145        l-0.001-0.075l-0.004-0.147v-0.002l0.034-0.1v-0.002v-0.004l-0.001-0.01l-0.001-0.02l-0.003-0.038l-0.005-0.076l-0.009-0.155        c-0.024-0.419-0.045-0.871-0.035-1.398l1.415-0.514l-0.106-4.46c0.374-2.715,1.897-4.825,3.685-5.947l-0.132,0.137        c0.775-0.257,1.858-0.302,3.122-0.309c0.339-0.001,0.685-0.003,1.039-0.004l0.447-0.016l0.223-0.019l0.214-0.023l0.044-0.008        l0.089-0.015c0.237-0.042,0.479-0.086,0.719-0.141c0.966-0.216,1.958-0.545,2.966-1.017l-1.167-0.602        c1.418-0.178,3.589-0.795,5.336-1.308c1.75-0.507,3.106-0.868,3.024-0.35c0.232-0.23,0.623-1.081,1.793-1.024l0.281,0.571        c-0.001,0,1.553-0.806,3.066-1.641c1.506-0.837,3.012-1.675,3.012-1.675c3.306-0.899,2.35,0.488,3.333,0.849l0.392,0.144        l-1.011-2.252c-0.021-0.045-0.05-0.11-0.087-0.192c-0.05-0.141-0.153-0.388-0.164-0.598l1.352,2.907        c0.49,0.063,1.49-0.054,3.842-1.154c1.434-0.822,3.341-2.598,4.328-4.273c0.506-0.818,0.814-1.582,0.941-2.086        c0.067-0.438,0.004-0.648-0.243-0.501c-0.159,0.198-0.456,0.528-0.731,0.764c-0.28,0.249-0.59,0.471-0.886,0.645        c-0.598,0.345-1.149,0.472-1.385,0.258c0,0,0.476-0.499,0.889-1.043c0.421-0.536,0.777-1.116,0.777-1.116        c-0.583-0.757-0.961-1.82-1.797-2.162c-0.415-0.179-0.994-0.094-1.563-0.043c-0.633,0.125-1.387,0.393-2.488,0.769        c0,0-0.474,0.684-1.148,1.359c-0.658,0.674-1.501,1.344-1.501,1.344s-0.4-0.073-0.802-0.147        c-0.418-0.068-0.836-0.138-0.836-0.138s0.813-0.363,1.624-0.728c0.752-0.349,1.393-0.709,1.393-0.709        c-1.591,0.023-2.427,0.803-3.53,1.788c0.434-0.112,0.867-0.226,1.309-0.34c-0.246,0.032-0.526,0.092-0.735,0.155        c-0.148,0.048-0.305,0.104-0.44,0.162c-0.222,0.098-0.413,0.2-0.575,0.3c0.162-0.07,0.325-0.142,0.494-0.215l-0.355,0.292        c-0.505-0.327-1.215-0.425-2.109-0.286l-3.466,3.158c-0.73-0.516,1.317-2.004-1.514-1.426        c-1.612,1.436,2.355,0.914-0.602,2.511c-2.244-0.147-1.863-0.984-3.943,0.406c-0.457-0.366-0.059-0.797,0.776-1.277        c-1.861,1.209-5.255,1.715-6.105,2.871c-0.563-0.152-1.266-0.13-2.009-0.062c-0.369,0.043-0.751,0.088-1.132,0.132        l-0.283,0.037l-0.07,0.009l-0.035,0.005l-0.018,0.002c-0.199,0.021,0.27-0.027,0.221-0.022h-0.003h-0.005l-0.01,0.001        c-0.033,0.002-0.145,0.011-0.102,0.006c0.066-0.004-0.267,0.003-0.435,0.003c-2.059-0.002-3.862,0.425-3.965-0.46        c-0.528,0.437-2.38,1.273-4.157,3.364l-0.239,0.248c-0.748,1.199-1.311,2.457-1.771,3.392        c0.093-1.266-0.101-1.428-0.588-0.894c-0.474,0.527-1.095,1.714-1.597,2.932c-1.02,2.457-1.773,4.979-2.728,4.166        c0.221,0.74,0.245,1.641,0.146,2.63c-0.051,0.494-0.133,1.01-0.239,1.541c-0.058,0.263-0.116,0.532-0.177,0.807l-0.013,0.051        l-0.006,0.025l-0.001,0.004v0.001c-0.064,0.188,0.087-0.254,0.071-0.208l-0.002,0.007l-0.004,0.014l-0.032,0.106        c-0.047,0.146,0.021-0.05,0.062-0.118c0.071-0.131,0.031-0.027-0.001,0.043l8.261,4.81l0.112-0.214l0.006-0.016l-0.081,0.118        c-0.068,0.098-0.141,0.193-0.216,0.286l-0.117,0.137l-0.061,0.066l-0.123,0.128c-0.259,0.256-0.62,0.588-1.265,0.914        c-0.624,0.319-1.641,0.607-2.745,0.452c-1.106-0.139-2.061-0.71-2.597-1.225c-0.557-0.524-0.82-0.979-1-1.32        c-0.189-0.393-0.137-0.297-0.212-0.476c-0.179-0.461-0.294-0.996-0.311-1.527c-0.009-0.265,0.005-0.528,0.038-0.778        c0.022-0.218,0.117-0.599,0.096-0.509l0.018-0.069l0.073-0.241l0.009-0.023l-0.186,0.603l-0.111,0.385l-0.066,0.245        l-0.016,0.069c-0.012,0.059-0.003,0.052,0.004,0.049c0.018-0.012,0.022,0.018-0.031,0.116l-0.022,0.038l-0.006,0.011        l-0.002,0.005l-0.002,0.002c-0.176,0.212,0.239-0.287,0.195-0.235l-0.001,0.002l-0.003,0.004l-0.047,0.057        c-0.015,0.018-0.101,0.121-0.056,0.069c0.023-0.026,0.048-0.05,0.074-0.072c0.024-0.016,0.003,0.023-0.024,0.052        c-0.104,0.145-0.381,0.322-0.322,0.375c0.011,0.007,0.018,0.019,0.045,0.021l0.017,0.006l0.008,0.004l0.004,0.002        c-0.02,0.003,0.179-0.024,0.094-0.013h-0.002l-0.005,0.001l-0.008,0.003c-0.07,0.015-0.034,0.014-0.191,0.043        c-0.121,0.024-0.269,0.056-0.296,0.067c-0.064,0.018-0.107,0.032-0.122,0.041c-0.059,0.023-0.014,0.025,0.074,0.031        c0.146,0.008,0.174-0.003,0.608,0.051l-0.267,0.018c-0.177,0.016-0.352,0.03-0.523,0.046c0.144-0.061,0.358-0.152,0.589-0.211        l0.176-0.037l0.044-0.007l0.011-0.001l0.006-0.001l-0.178-0.017l-0.052-0.009c-0.068-0.011-0.139-0.017-0.208-0.019        c-0.225-0.015-0.349,0.011-0.33,0.031c-0.022-0.004,0.268-0.078,0.73-0.042c-0.155-0.031-0.304-0.063-0.446-0.091        c-0.285-0.063-0.544-0.127-0.784-0.193c-0.466-0.135-0.919-0.27-1.309-0.411c-0.799-0.286-1.442-0.566-2.352-0.818        c-0.492,1.521-4.92,1.611-7.292,2.531c-3.407-1.602,2.146-1.781,1.119-3.258c0.117,1.248-6.061,1.129-4.892,2.22        c-2.621-0.958-2.259-0.466-3.615-1.766c-0.451,1.961-2.446,0.339-4.595,1.576c-3.798-0.901-0.967-1.83-5.161-1.141        c-1.034-0.268-0.604-0.607,0.1-0.875c0.36-0.136,0.76-0.25,1.065-0.331C330.255,363.429,330.519,363.38,330.504,363.381z         M241.211,394.556c0.002-0.011,0.004-0.019,0.004-0.022c0.763,0.129,1.417,0.203,1.835,0.246        C242.667,394.739,242.136,394.689,241.211,394.556z M233.94,392.319c0.851,0.403,1.937,0.832,3.103,1.206        c0.136,0.454-0.264,0.745-1.003,0.471C236.525,393.895,234.87,393.08,233.94,392.319z M248.745,403.03        c-1.25,0.051-1.773-0.163-1.981-0.374c0.243-2.205,0.466-4.232,0.503-4.572c0.266-0.424,0.442-1.016,0.775-1.809        c0.276-0.733,0.5-1.329,0.707-1.877c-0.121,0.327-0.242,0.654-0.369,0.996c-0.121,0.313-0.247,0.64-0.382,0.992        c-0.135,0.337-0.327,0.789-0.386,0.981c-0.048,0.127-0.105,0.257-0.171,0.391c-0.035,0.066-0.071,0.135-0.108,0.204        c-0.027,0.045-0.025,0.044-0.014,0.083c-0.001,0.09-0.067,0.051-0.052,0.038c-0.042,0.378-0.267,2.427-0.493,4.478        c0.637,0.047,1.407,0.083,2.393,0.068c0.043-0.04,0.131-0.083,0.174-0.128C249.194,402.708,249.028,402.902,248.745,403.03z" style="fill:#373737;"/><path d="M251.335,401.668c0.199-0.021,0.31-0.066,0.569-0.072c-0.279-0.104-0.545-0.191-0.814-0.269        c-0.171,0.116-0.346,0.234-0.499,0.338C250.842,401.666,251.102,401.667,251.335,401.668z" style="fill:#373737;"/><path d="M373.685,229.625l-0.113-0.124c0.078,0.121,0.151,0.235,0.173,0.343        C373.69,229.732,373.713,229.705,373.685,229.625z" style="fill:#373737;"/><polygon points="140.742,349.372 140.692,349.651 141.508,349.584       " style="fill:#373737;"/><path d="M350.194,255.383c-0.124-0.05-0.33-0.066-0.69,0.011        C349.561,255.448,349.852,255.423,350.194,255.383z" style="fill:#373737;"/><path d="M338.84,272.597c0.06,0.73,0.166,1.456,0.395,2.151c-0.075-0.275-0.15-0.551-0.195-0.825        c0,0.113-0.007,0.147,0.007,0.327c0.014,0.143,0.038,0.287,0.072,0.428l0.059,0.21l0.032,0.094l0.001,0.007l0.021,0.108        l0.04,0.217l0.081,0.434c-0.033-0.188-0.064-0.369-0.092-0.521c-0.012-0.076-0.022-0.146-0.031-0.206l-0.006-0.043        c-0.051-0.143-0.116-0.387-0.14-0.566c-0.013-0.08-0.025-0.224-0.024-0.244v-0.087c0.002-0.057,0.004-0.109,0.006-0.157        c0.089,0.549,0.112,0.692,0.136,0.837C338.997,273.784,338.913,273.144,338.84,272.597z" style="fill:#373737;"/><path d="M344.658,287.299c0.269,0.073,0.425,0.048,0.567,0.024c-0.003-0.012-0.007-0.02-0.007-0.03        L344.658,287.299z" style="fill:#373737;"/><path d="M297.061,127.503c-0.172-0.085-0.343-0.164-0.508-0.214        C295.308,126.894,296.128,127.21,297.061,127.503z" style="fill:#373737;"/><path d="M337.75,179.248c-0.278-0.71-0.558-1.408-0.787-2.18        C337.045,178.347,337.105,179.274,337.75,179.248z" style="fill:#373737;"/><path d="M223.582,123.733c0.005-0.009-0.003-0.009,0.001-0.021c-0.15,0.051-0.282,0.096-0.432,0.146        L223.582,123.733z" style="fill:#373737;"/><path d="M336.45,173.996c0.02,0.62,0.085,1.175,0.183,1.691c0.049,0.222,0.097,0.436,0.143,0.645        c0.055,0.252,0.118,0.497,0.188,0.736c-0.014-0.26-0.027-0.531-0.042-0.809l-0.013-0.209l-0.003-0.053v-0.001l-0.001-0.001        c0.032,0.212,0.01,0.059,0.017,0.105l-0.001-0.003v-0.006l-0.002-0.013l-0.003-0.025l-0.013-0.101l-0.057-0.405        C336.762,175.007,336.642,174.471,336.45,173.996z" style="fill:#373737;"/><path d="M395.604,329.44l0.688,0.208c0.006-0.074,0.061-0.124,0.123-0.156L395.604,329.44z" style="fill:#373737;"/><path d="M396.415,329.492l0.773,0.051C396.854,329.459,396.553,329.397,396.415,329.492z" style="fill:#373737;"/><path d="M398.748,329.676c0,0-0.386-0.037-0.771-0.074c-0.395-0.029-0.789-0.059-0.789-0.059        C397.721,329.677,398.33,329.883,398.748,329.676z" style="fill:#373737;"/><path d="M376.62,320.784l-0.415,0.227C376.359,321.005,376.5,320.937,376.62,320.784z" style="fill:#373737;"/><path d="M371.313,317.422c1.152,0.946,2.609,2.877,4.556,3.764l0.337-0.175        C375.011,321.021,372.832,317.7,371.313,317.422z" style="fill:#373737;"/><path d="M356.567,296.195c0,0,0.181,0.262,0.451,0.653c0.269,0.383,0.627,0.893,0.985,1.402        c0.719,1.006,1.479,2.001,1.479,2.001c-0.244-0.944-0.528-2.176,1.01-0.551c-1.53-2.77-1.463-2.371-1.594-1.908        C358.778,298.234,358.557,298.848,356.567,296.195z" style="fill:#373737;"/><path d="M348.662,283.06c1.46,2.206,0.527-0.329,0.821-0.324        C348.352,281.465,348.063,281.144,348.662,283.06z" style="fill:#373737;"/><path d="M341.593,231.517c0,0,0.258,0.058,0.516,0.115c0.258,0.058,0.515,0.096,0.515,0.096        C342.398,229.55,342.231,231.776,341.593,231.517z" style="fill:#373737;"/><polygon points="336.618,209.858 335.94,211.854 336.852,212.841       " style="fill:#373737;"/><path d="M344.674,197.221l0.118,0.949c0,0-0.068-0.904-0.136-1.809        c-0.078-0.903-0.156-1.806-0.156-1.806L344.674,197.221z" style="fill:#373737;"/><path d="M199.674,124.994l1.294,0.619C202.042,124.585,201.522,123.202,199.674,124.994z" style="fill:#373737;"/><path d="M168.488,200.618c-0.283,0.473-0.481,1.312-0.515,2.2c-0.008,0.219-0.006,0.441,0.007,0.662        l0.028,0.33l0.033,0.28l0.03,0.159c0.086,0.421,0.221,0.817,0.414,1.151c-0.029-0.458-0.032-0.919-0.026-1.367l0-0.021        l-0.01-0.114l0-0.011l0.002-0.042l0.004-0.084l0.008-0.167l0.019-0.329c0.013-0.217,0.026-0.428,0.038-0.633        C168.572,201.8,168.602,201.088,168.488,200.618z" style="fill:#373737;"/><path d="M116.79,353.801c0,0-0.458-0.054-0.915-0.107c-0.459-0.062-0.919-0.122-0.919-0.122        s0.828,0.213,1.655,0.426c0.824,0.189,1.647,0.379,1.647,0.379L116.79,353.801z" style="fill:#373737;"/></g></g></g><g><g><g><path d="M431.135,31.842c-0.919,0.309-0.46,1.087,2.12,1.111c0,0,0.485-0.3,0.97-0.6        c0.492-0.28,0.984-0.56,0.984-0.56s-1.021-0.035-2.041,0.003C432.151,31.819,431.135,31.842,431.135,31.842z" style="fill:#373737;"/><path d="M447.65,37.197c1.517,0.1,3.155,0.281,4.289,0.129c1.116-0.116,1.704-0.49,1.003-1.444        c-1.665,0.059-2.604-0.083-3.587-0.195c-0.991-0.068-2.011-0.174-3.755,0.144c-2.486-0.527-4.235-1.425-3.717-1.826        c-0.941,0.116-3.903-1.028-5.387-0.349c3.179,1.43,7.155,2.234,11.595,2.756C448.902,36.968,447.923,37.026,447.65,37.197z" style="fill:#373737;"/><path d="M482.43,263.121l0.207-1.573C482.536,261.977,482.472,262.516,482.43,263.121z" style="fill:#373737;"/><path d="M476.961,414.865c0.004-1.156-0.111-1.643-0.229-1.706        C476.785,414.235,476.838,415.119,476.961,414.865z" style="fill:#373737;"/><path d="M470.984,438.622c0.234-0.464,0.432-0.855,0.644-1.277        C471.301,437.8,471.024,438.275,470.984,438.622z" style="fill:#373737;"/><path d="M482.43,263.121l-0.542,4.041C482.311,267.46,482.272,265.095,482.43,263.121z" style="fill:#373737;"/><path d="M478.196,53.219c-0.626-0.646-1.243-1.091-1.826-1.475c0.545,0.493,1.08,0.965,1.578,1.507        C478.028,53.232,478.096,53.217,478.196,53.219z" style="fill:#373737;"/><path d="M483.448,196.184l0.036-1.234c-0.139-0.367-0.311-0.712-0.506-1.04L483.448,196.184z" style="fill:#373737;"/><path d="M484.85,144.833c-0.085,1.159,1.025,1.598,1.503,2.058c-0.442-0.67-0.636-1.535-0.691-2.556        C485.448,144.311,485.188,144.454,484.85,144.833z" style="fill:#373737;"/><path d="M481.366,65.373c0,0-0.21-0.288-0.419-0.575c-0.204-0.29-0.429-0.566-0.428-0.567        C480.763,64.513,481.095,65.036,481.366,65.373z" style="fill:#373737;"/><path d="M482.057,232.926c-0.17,0.082-0.321,0.261-0.417,0.456        C481.781,233.386,481.921,233.207,482.057,232.926z" style="fill:#373737;"/><path d="M371.734,26.847c-0.044,0.079,0.014,0.132-0.003,0.201        C372.034,26.946,372.129,26.87,371.734,26.847z" style="fill:#373737;"/><path d="M431.012,34.792l-0.828,0.027c-0.095,0.209-0.195,0.414-0.203,0.622L431.012,34.792z" style="fill:#373737;"/><path d="M439.764,467.968c0.08-0.024,0.108-0.033,0.186-0.057        C440.941,467.349,440.359,467.621,439.764,467.968z" style="fill:#373737;"/><path d="M37.988,440.008c-0.144,2.35-0.756,0.573-1.321-0.974c-0.302-0.775-0.528-1.459-0.737-1.526        c-0.197-0.063-0.414,0.486-0.404,2.306c0.185-0.364,0.806,1.187,1.476,2.026C37.664,442.688,38.14,442.872,37.988,440.008z" style="fill:#373737;"/><path d="M479.005,54.377c0.501,0.534,0.949,1.132,1.408,1.72        C479.815,55.279,479.395,54.739,479.005,54.377z" style="fill:#373737;"/><path d="M35.526,439.813c-0.005,0-0.01,0.001-0.01,0.001l0.005,0.749        C35.523,440.253,35.524,440.078,35.526,439.813z" style="fill:#373737;"/><path d="M333.192,476.604c0.233,0.189,0.675,0.322,1.134,0.447        C334.285,476.938,334.027,476.807,333.192,476.604z" style="fill:#373737;"/><path d="M414.633,474.947l-2.019-0.07C413.416,474.947,414.063,474.957,414.633,474.947z" style="fill:#373737;"/><path d="M291.007,479.879c-1.1-0.042-1.478-0.182-2.966,0.029c0.14,0.051,0.279,0.085,0.459,0.118        C289.035,479.851,289.752,479.751,291.007,479.879z" style="fill:#373737;"/><path d="M247.029,481.646c0.237,0.076,0.547,0.128,0.821,0.193c0.435-0.036,0.943-0.078,1.392-0.116        L247.029,481.646z" style="fill:#373737;"/><path d="M238.064,22.042c0.95,0.354,1.537,0.727,1.991,1.091        C239.408,22.307,245.88,22.28,238.064,22.042z" style="fill:#373737;"/><path d="M477.738,53.655c0.39,0.015,0.755,0.223,1.267,0.722c-0.364-0.389-0.715-0.763-1.057-1.127        C477.734,53.259,477.599,53.343,477.738,53.655z" style="fill:#373737;"/><path d="M289.573,488.813l-6.995,0.114C284.536,488.958,287.078,488.914,289.573,488.813z" style="fill:#373737;"/><path d="M19.718,144.677l-0.181-1.602C19.53,143.696,19.578,144.264,19.718,144.677z" style="fill:#373737;"/><path d="M261.85,489.923c-1.263-0.347-2.593-0.523-3.965-0.619c-0.285,0.099-0.613,0.185-0.8,0.322        L261.85,489.923z" style="fill:#373737;"/><path d="M240.068,23.146c-0.013-0.005-0.013-0.012-0.013-0.012S240.055,23.14,240.068,23.146z" style="fill:#373737;"/><path d="M286.198,22.317c-6.657-0.298-3.186,1.32-4.632,2.112c-7.963,0.101-3.634-1.235-6.309-2.098        c-4.978,0.192-8.837,1.395-12.535,1.189c-0.266-0.254-0.981-0.372-0.126-0.642c-5.293,0.964-15.574-0.565-21.746,0.665        c-0.449-0.149-0.673-0.282-0.783-0.398c0.961,0.779,1.082,1.537,0.859,2.063c-2.986-0.094-5.576,0.711-6.661-0.299        c1.829,0.102,1.996-0.282,2.865-0.549l-3.144,0.295c-2.76-1.5,4.289-0.31,4.33-1.337c-6.117,0.208-13.27,1.072-17.927,0.493        c-0.922-1.396,10.945-0.02,4.757-1.476l7.21,0.808c-5.44-2.362,4.387,0.326-0.598-2.168c-9.499-0.774-10.67,0.266-20.146-0.51        c-2.167,0.669,0.662,1.145-1.505,1.813c-13.544,0.816-10.483-3.838-20.474-2.427c-2.604,0.802-3.668,2.479-10.693,1.289        l2.469-1.438c-9.206-0.52-5.348,1.996-14.954,0.578c1.739-0.535,7.261-0.219,5.874-0.457        c-6.201-1.462-4.455,0.693-9.261,0.501l-0.94-1.399c-9.816-0.178-20.659,0.371-31.532,0.185        c0.617-0.38,2.496-0.731-0.028-1.249c-13.729,0.131-29.239-1.335-42.422-2.67l-5.095,0.971        c-1.173-0.061-2.157-0.617-0.877-0.793c-0.321-0.038-0.603-0.07-0.85-0.099c-0.296-0.018-0.551-0.034-0.769-0.047        c-0.364-0.015-0.606-0.007-0.759,0.019c-0.306,0.051-0.258,0.173-0.126,0.325c0.263,0.304,0.858,0.726-0.384,0.938        c-1.418-0.007-2.556-0.104-2.958-0.319c-0.415-0.208-0.172-0.496,0.875-0.706c-2.609,0.303-5.503,0.776-8.67,1.509        c-3.15,0.755-6.494,1.763-9.754,3.007c-6.538,2.482-12.601,6.012-17.024,8.692c0,0,0.346-0.376,0.691-0.752        c0.34-0.386,0.714-0.731,0.714-0.73c-1.697,1.093-2.902,2.131-3.789,3.163c-0.449,0.51-0.842,0.993-1.192,1.472        c-0.327,0.498-0.638,0.97-0.945,1.438c-1.214,1.881-2.297,3.646-5.024,6.128c0,0,0.174-0.31,0.349-0.619        c0.188-0.3,0.377-0.6,0.377-0.6c-5.767,6.407-9.847,14.776-11.989,23.015c-1.095,4.124-1.75,8.218-2.142,12.093        c-0.077,0.97-0.191,1.926-0.252,2.866c-0.059,0.943-0.116,1.869-0.172,2.776c-0.1,1.72-0.224,3.346-0.403,4.9        c1.759,2.3-0.291,16.044,2.096,17.018c-0.902,9.277-1.399,6.642-1.809,19.683c-0.008,3.48,1.622,5.141,1.992,9.432        l-1.23,0.141l1.462,5.797l-1.385,3.148l0.433,4.023c0.026-1.607,0.455-3.429,0.817-3.196        c0.739,6.282-0.416,15.378-1.043,15.552l1.472,14.869c-0.505-0.316-0.748-2.807-1.121-4.77        c1.487,7.918-1.256,1.482,0.106,8.738c0.251-0.985,0.75,0.506,1.003,0.664c-0.64,3.655-0.408,11.925,0.083,18.036l-0.884-1.15        c0.103,11.057,1.08,23.286,1.422,35.69c0.268-4.461,1.77-3.48,2.016,0.153l-1.261,1.492c0.874,2.325,0.384-3.813,1.507,0.98        c-0.017,4.637-1.391,3.157-1.891,0.509l0.614,5.62c-0.38,0.341-0.623-0.974-1.129-1.304c0.876,2.289-1.026,9.763,0.475,13.057        l-0.378,0.328c0.347,12.399,0.957,18.01,1.314,28.109c1.13,0.165,0.994,4.121,1.99,7.104        c-0.144,7.433-0.79,15.696-0.437,24.639c0.74,6.268,1.004,1.807,1.754,4.613c-1.01,0.493-0.657,9.421-1.525,4.81        c0.476,10.729,0.599,13.705,1.822,27.254c0.378-1.484,0.512-3.146,0.886-2.298c0.24,2.459-0.268,5.618-0.77,5.279        l-0.124-0.648c1.974,15.194-1.972,35.255,0.513,47.327l-0.125-0.676l1.476,12.55c-0.01,5.794-0.87-3.45-1.38,0.853        c1.05,6.762,1.142,12.125,1.155,17.19c0.006,2.533-0.007,4.991,0.069,7.514l0.015,0.474l0.031,0.591l0.067,0.955        c0.05,0.645,0.098,1.274,0.174,1.949c0.218,1.423,0.401,2.946,0.792,4.373c-0.451,2.393-0.179,5.672,0.682,9.346        c0.871,3.671,2.424,7.701,4.459,11.587c2.027,3.894,4.526,7.632,7.063,10.954c2.536,3.329,5.088,6.26,7.137,8.786        l-0.051-1.031c2.881,1.702,2.695,2.951,4.538,4.601c0.055-0.657-2.417-2.712-0.57-1.751c5.511,4.198,11.76,7.598,18.485,9.955        c6.691,2.387,14.046,3.479,21.186,3.381c13.288-0.083,26.663,0.018,39.778-0.186c9.591-0.193,5.291-3.897,17.441-2.684        l-3.377,1.458c19.278-2.356,39.551-1.527,58.43-3.628c-1.116,0.35-1.132,0.746-2.98,0.815c4.037,0.8,14.79-0.545,14.827-1.331        c2.952-0.028,0.711,0.682,2.543,1.007c4.035,0.405,10.021-1.627,12.191-0.759c0.369,0.143-1.116,0.356-1.846,0.46        c2.595-0.568,12.184-0.369,9.636-1.375c7.128,0.243,13.576-1.037,19.27-0.607c3.646-1.386,12.188,0.109,13.292-1.688        c-0.437,1.829,12.518,0.961,16.977-0.07c-1.481,0.607,3.93,0.41,2.199,1.237c5.125-0.229,9.812-0.754,8.881-1.646        c9.532,1.785,18.918-2.501,24.348,0.059c15.194-1.581,29.263-2.802,42.947-3.774c-0.423,1.823-15.139,0.786-14.476,2.655        c12.97-1.263,20.405-3.11,33.312-3.19c3.349,0.112-1.862,0.857-2.978,1.211c12.955-1.262,25.115-0.841,36.631-2.284        c-0.025,0.169-1.265,0.402-2.438,0.587c1.138-0.075,2.465-0.062,3.471-0.131c0.251-0.018,0.482-0.04,0.687-0.07        c0.051-0.008,0.1-0.016,0.146-0.023l0.07-0.014l0.033-0.007l0.009-0.002l0.119-0.007l0.004-0.001l0.017-0.004        c0.086-0.021,0.164-0.046,0.233-0.071c0.275-0.105,0.407-0.248,0.329-0.448c0,0-0.138,0.023-0.344,0.058        c-0.052,0.009-0.107,0.019-0.167,0.028l-0.091,0.016l-0.151,0.013l-0.048,0.007c-0.13,0.018-0.268,0.037-0.405,0.057        c-0.553,0.077-1.105,0.155-1.105,0.155c-0.921-0.261-0.822-0.569-0.151-0.896c0.336-0.163,0.815-0.33,1.382-0.498l0.217-0.063        l0.056-0.017l0.027-0.008l0.007-0.002l0.004-0.001c0.032-0.002-0.067,0.003,0.073-0.005l0.014-0.004l0.112-0.034        c0.15-0.045,0.306-0.092,0.465-0.139c0.317-0.089,0.65-0.182,0.99-0.277c1.335-0.332,2.937-0.825,4.116-1.185        c1.176-0.417,2.009-0.768,2.084-0.937c-1.755,1.478,1.167,1.196,3.832,0.787c2.624-0.445,5.078-0.833,2.326,1.469        c1.531-0.536,3.301-1.586,2.783-1.976c1.148-0.27,1.909-0.446,2.143-0.342c0.229,0.096-0.062,0.487-1.108,1.168        c2.028-0.837,3.327-1.479,4.235-2.045c0.912-0.556,1.479-0.936,1.997-1.353c1.044-0.816,2.049-1.451,5.409-3.395        c0.089,0.179-0.184,0.503-0.539,0.887c-0.364,0.369-0.816,0.788-1.063,1.188c0.793-0.633,1.559-1.298,2.346-1.992        c0.79-0.675,1.612-1.378,2.497-2.134c1.776-1.479,3.806-3.114,6.387-5.123c-0.146,0.435,0.65,0.188-0.857,1.448        c4.316-3.676,7.25-7.59,9.906-11.699c1.289-2.092,2.581-4.197,3.821-6.506c1.268-2.289,2.571-4.726,3.919-7.468        c0.082,2.003,0.617,1.113,1.35-0.319c0.698-1.439,1.522-3.419,2.31-3.512c0,0,0.103-0.413,0.256-1.032        s0.367-1.438,0.516-2.276c0.159-0.834,0.337-1.661,0.437-2.288c0.092-0.629,0.152-1.048,0.152-1.048s-0.319,0.62-0.639,1.24        c-0.348,0.604-0.694,1.209-0.694,1.209c1.576-5.645,0.88-11.042,1.473-15.756c0,0,0.121,1.035,0.243,2.069        c0.115,1.054,0.193,2.164,0.193,2.164s0.021-0.685,0.055-1.713c0.005-0.977,0.01-2.278,0.016-3.581        c0.011-2.6,0.021-5.199,0.021-5.199l-0.75,5.863c-0.594-5.634-1.907,0.542-1.261-6.825c0.106,1.504,0.192-5.545,1.162-8.407        c0,0-0.001,0.019,0.003,0.019c-0.39-2.758-0.802-5.595-0.303-9.684c0.51-1.049,1.623,0.909,1.963,0.227        c-1.162-2.745,0.06-12.996-1.163-16.464c0.277,1.152,1.059,1.236,1.229,0.865l-0.942-2.303        c0.405-2.558,0.573-2.93,1.186-2.492c0.427-7.719-1.971,2.395-0.868-6.749c0.06,0.723,0.222,0.384,0.329,1.889        c0.713-9.197-0.087-17.813,0.676-26.26c1.58-2.448,0.137,7.405,1.493,4.588c0.109-12.21-1.012-25.32-0.288-37.116        l-0.234,2.196c-2.069-1.703,1.322-8.76,0.509-14.763c0.111,1.468,1.117,1.954,0.894,1.552        c0.594-8.075-0.005-16.547-0.289-28.819l0.498,1.535c0.635-4.75,0.672-12.54,1.081-17.679        c-0.496-1.544-0.315-4.486-1.164-2.723c3.598-15.773-0.717-30.325,2.308-44.325c-0.047,1.684,0.351,4.028,0.396,2.689        l-0.128-12.01c-0.953,0.921-0.608,1.556-1.406,4.052c-0.5-1.536-0.819-4.934-0.726-7.906c0.443,5.413,1.484,0,2.073-2.313        c-0.296,0.381-0.583-0.427-0.877-0.239c1.839-6.214-1.826-1.108-0.452-9.628l0.472,0.469        c-0.148-3.209-0.697-6.179-0.451-9.628c1.114-1.398,0.393,3.423,1.266,3.671c0.09-4.85-1.726-9.631-0.523-13.987        c0.233,2.069,0.146,5.032,0.377,7.101c1.403-4.74,1.103-5.305,1.413-8.849l-0.04,0.348l0.825-8.192l-0.405,2.081        c-2.597-6.156-0.123-12.373-1.693-20.604c1.479,7.998,0.959,1.343,2.151,1.991c0.4-2.076,0.877-5.239,1.189-4.324        c-0.856-3.893,0.971-6.425-0.287-11.923c0.397-0.231,0.167-4.132,1.119-3.229c-0.15-5.032-0.716,1.167-1.191,0.729        c-0.546-3.892,0-8.43,0.498-13.393c0.248-2.482,0.484-5.07,0.566-7.738l0.014-0.501l0.006-0.584l-0.019-1.011        c-0.028-0.69-0.029-1.325-0.114-2.072c-0.161-1.489-0.382-2.981-0.791-4.392c-0.95-4.969-2.292-7.696-3.585-10.237        c-1.329-2.532-2.748-4.882-5.081-8.673c-0.448-1.463,0.17-1.115,0.882-0.351c0.699,0.767,1.513,1.93,1.513,1.93        c-1.668-4.713-3.855-7.916-7.091-11.302c0.844,0.54,0.499-0.422-0.102-1.813c-1.287-1.412-1.966-1.656-2.712-2.027        c-0.742-0.379-1.476-0.94-3.087-2.842c0.901,0.279,2.219,0.499,3.803,1.565c-3.408-3.048-7.267-5.395-11.257-7.678        c-0.64-1.256,2.897,0.714,4.449,1.441c-2.161-1.525-5.061-3.352-7.743-4.587c-2.661-1.279-5.058-2.009-6.003-1.849        c0,0,0.704,0.438,1.408,0.875c0.698,0.446,1.373,0.926,1.373,0.926c-1.671-0.822-0.441-1.277,0.895-0.794        c4.358,1.401,5.319,3.652,5.302,4.073c0,0-0.716-0.392-1.432-0.785c-0.708-0.404-1.446-0.75-1.446-0.75        c0.842,1.833,3.56,3.448,6.6,5.456c3.046,1.97,6.419,4.383,8.515,6.928c0,0-0.757-0.237-1.513-0.475        c-0.767-0.204-1.532-0.407-1.532-0.407s0.346,0.238,0.865,0.595c0.516,0.363,1.173,0.882,1.851,1.393        c0.688,0.503,1.316,1.066,1.811,1.475c0.491,0.414,0.817,0.69,0.817,0.69c0.263,0.696,0.317,1.392,0.074,1.588        c-0.262,0.211-0.772-0.104-1.856-1.249c0.558,1.01,0.955,1.729,1.339,2.255c0.374,0.532,0.73,0.872,1.027,1.231        c0.59,0.715,1.233,1.335,1.783,3.272c0.09,0.443-0.077,0.313-0.33,0.003c0,0,0.163,0.224,0.409,0.559        c0.248,0.335,0.58,0.782,0.877,1.251c0.306,0.465,0.612,0.931,0.843,1.28c0.233,0.349,0.378,0.588,0.378,0.587        c-0.695-0.626-0.727,1.153-1.727-1.346c1.367,3.692,2.736,6.49,3.756,8.859c0.483,1.185,0.913,2.242,1.153,3.206        c0.217,0.969,0.322,1.829,0.141,2.61c0,0-0.053-0.156-0.105-0.313c-0.06-0.155-0.12-0.31-0.12-0.31        c0.313,1.324,0.553,2.333,0.734,3.1c0.155,0.775,0.289,1.306,0.409,1.666c0.239,0.72,0.424,0.754,0.626,0.698        c0.386-0.096,0.971-0.635,1.817,3.635c0,0-0.19,0.353-0.476,0.881c-0.291,0.532-0.652,1.232-1.06,1.923        c-0.798,1.389-1.595,2.778-1.595,2.778l1.187,1.139c-0.08,1.154-0.243,3.436-0.718,2.999c0.701,4.324,0.554-0.717,1.265,1.803        c-1.285,5.524,0.041,15.345-1.943,16.537c0.866,2.024,0.883-5.294,1.343,0.662c-2.146,1.627,0.144,6.873-0.975,11.92        c-1.031-1.593-0.309-6.387-1.432-1.334c1.729,3.121-0.708,9.876-0.493,14.171c1.446,0.247,0.314,9.334,0.574,16.537        c-0.474-0.469-1.221,13.501-1.954,20.173l-0.238-0.205c1.428,1.339,0.935,8.229,1.082,13.261        c-0.874-0.225-1.191-1.139-1.5-3.871l-0.141,4.72c0.436,1.129,0.638,2.609,0.71,5.679l-1.06-1.222        c-0.136,6.286,0.896,12.695-0.089,20.759c1.01,0.486,3.051-6.341,3.468,2.229c-0.563,0.299-1.52,0.586-1.677-1.659        c0.051,0.736,0.378,2.629,0.096,4.099l-0.824-3.446c-0.524,3.67,0.718,1.951,0.539,4.893c-0.788-0.084-0.632,2.161-1.245,1.72        c-0.053-0.755,0.407-2.559,0.133-3.697c-0.246,3.316-0.84,7.315-1.479,8.622c0.458-0.275,1.063,0.033,1.09,2.468        c-0.139,6.286-1.018,2.122-1.537,5.773c0.5,1.54-0.193,5.531,0.983,5.673c-0.063,1.839-0.624,2.162-0.967,2.862        c0.42,3.269-0.325,15.196,1.045,11.571l0.108-0.832c0.011,0.156,0.022,0.34,0.035,0.533c0.001-0.027,0,0,0.001-0.027        l-0.001,0.027c0.841,10.696-1.36,22.124-1.187,32.717l-0.394-0.03c0.254,6.33-0.173,14.063,0.536,18.598        c-0.06,1.866-0.859,4.386-1.304,3.572c0.146,4.835,0.572,5.39-0.297,12.342c-0.538-4.875-0.664,1.654-0.35-4.988        c-0.536,6.26-1.213,7.662-0.346,14.429c-0.939-2.325-1.42,4.68-1.211,7.671l0.861-4.371c0.042,3.357-0.139,6.285-0.318,9.26        l-1.279-1.651c-2.02,12.783,2.03,23.23-0.984,32.916c0.824,3.423,0.873-6.952,1.866-3.881        c-0.363,5.897-2.465,11.988-2.526,13.837c-0.99,8.063,1.707,7.605,0.939,16.053c0.507-1.067,1.806-2.051,2.056,4.288        c-0.36,5.902-2.218,7.199-2.481,3.458c0.004-1.419,0.176-2.098,0.335-2.033c-0.113-1.913-0.238-4.424-0.825-2.101l0.45,0.78        c-0.288,1.458-0.482,4.22-0.695,6.375c-0.097,1.108-0.242,1.921-0.382,2.425c-0.142,0.494-0.292,0.62-0.461,0.169        c0.116,2.066,0.176,2.53,0.421,2.091c0.243-0.438,0.474-1.791,0.681-3.337c-0.476,3.536-0.915,6.252-1.464,8.989        c-0.569,2.725-1.266,5.489-2.828,8.794c0.646-0.982,1.548-1.811,1.136-0.716c-1.095,2.482-1.837,3.953-2.253,4.94        c-0.398,0.996-0.531,1.479-0.564,1.892c-0.091,0.814,0.203,1.344-1.696,4.585c-1.482,1.575-1.621,1.005-1.858,0.883        c-0.247-0.13-0.503,0.201-2.529,3.316c-3.237,3.189-1.543-0.07-0.777-1.661c-1.639,2.897-3.902,5.086-6.066,6.749        c-1.063,0.857-2.169,1.522-3.127,2.18c-1.011,0.596-1.882,1.184-2.662,1.688c0,0,0.158-0.145,0.396-0.361        c0.228-0.229,0.531-0.532,0.835-0.837c0.302-0.303,0.604-0.605,0.831-0.832c0.229-0.223,0.368-0.387,0.368-0.387        c-0.704,0.739-1.406,1.348-2.076,1.928c-0.699,0.541-1.382,1.036-2.067,1.538l2.141-0.388        c-1.722,1.094-3.177,2.001-3.355,1.656c-0.695,0.837-0.157,0.952,0.194,1.227c0.343,0.273,0.523,0.739-1.102,2.199        c-0.653,0.271-1.438,0.665-2.267,1.115c-0.816,0.472-1.706,0.938-2.554,1.363c-0.838,0.446-1.672,0.767-2.36,0.969        c-0.69,0.2-1.248,0.248-1.59,0.03c4.098-1.46,3.698-1.764,3.178-1.913c-0.538-0.191-1.211-0.35,1.938-2.049        c-1.152,0.773-2.679,1.523-4.61,2.144c-0.332-0.01,0.162-0.354,0.636-0.635c-3.906,1.045-4.663,1.548-5.436,2.331        c-0.383,0.39-0.772,0.809-1.59,1.242c-0.408,0.221-0.919,0.464-1.591,0.701c-0.677,0.211-1.51,0.438-2.552,0.655        c0.924-0.896-2.194-0.959-3.434-0.671c1.587-0.187,2.082-0.024,1.725,0.42c-0.169,0.207-0.552,0.489-1.062,0.742        c-0.507,0.246-1.163,0.5-1.915,0.729c-0.719,0.004-1.355,0.007-1.925,0.011c-0.29,0.01-0.563,0.02-0.822,0.028        c-0.223,0.014-0.432,0.025-0.63,0.037c-0.919,0.049-1.625,0.144-2.243,0.251c-1.236,0.213-2.122,0.474-3.657,0.503l3.514,0.12        c-1.159,0.756-4.093,0.78-8.17,1.167c-0.37-0.538,3.695-0.527,2.227-0.713c-4.484,1.428-10.3-0.882-16.589,0.212        c-2.949-0.364-0.338-1.322-2.923-1.545c-7.053,1.204-7.715-0.665-15.136,0.394c2.184,0.867,2.551,0.619-2.658,1.759        l12.221-1.161l-7.804,1.701c3.696-0.135,7.775-0.912,9.997-0.838c-3.715,0.928-3.34,0.675-1.538,1.396        c-5.115-1.229-9.995,1.234-15.88,0.502l0.085-2.368c-8.833-0.7-15.569,1.837-27.006,1.7l3.685,0.263        c-1.494,1-7.043,0.413-10.724,0.941c0.313-0.804-2.01-0.997-3.607-1.426c0.217,0.578-8.356,0.28-9.329,1.898l-5.136-0.836        c-9.234-0.057-10.43,2.669-19.299,2.755c2.634-0.964-1.414-1.362,4.495-2.214c-2.958,0.111-5.623,0.073-5.647,0.622        c-1.748-0.426-8.161,1.391-10.91,0.75c-1.233,0.396-1.608,1.239-4.931,1.307c-0.368-0.146-0.002-0.391-0.002-0.391        c0.002,0.391-5.179,0.738-2.241,1.496c-9.209-2.098-25.459,1.197-33.477-0.6c-6.446,0.523-14.212,1.088-20.07,1.38        c0.367-0.251,0.003-0.395,1.116-0.356c-8.113-0.41-4.88,2.464-14.111,2.013c-4.751-1.087,4.856-0.885,1.906-1.251        c-1.378-2.546-11.087,0.798-17.338-0.47l1.494-0.213c-4.768-0.693-11.507,1.445-19.245,1.569c0,0,0.367-0.244,0.03-0.395        c-5.234,1.536-15.226,2.374-22.649,3.04c2.275-1.108,3.358-0.673,1.904-1.648c-3.328,0.279,1.043,1.618-5.599,2.173        c-2.187-0.469-7.007-0.763-7.688-1.839l6.275-0.311c-3.271-1.298-8.124,0.373-11.439,0.258l0.397-0.64        c-9.612,0.587-9.682,2.162-20.026,2.464l1.087,0.429c-5.587,1.781-4.771-0.686-10.36,0.696l-1.769-1.51        c-3.713,0.53-12.998,2.048-19.672,2.612c3.741-1.321,11.54-2.232,16.354-3.121c-3.696,0.136-12.555,0.618-14.449,1.474        c1.484-0.211,3.344-0.673,4.826-0.488c-2.243,0.709-4.849,1.28-7.816,1.698c-2.871,0.405-6.158,0.437-9.713-0.115        c0.833-1.43-3.672-2.167-8.652-4.012c-2.481-0.942-5.075-2.143-7.2-3.46c-2.103-1.355-3.751-2.763-4.412-3.97        c-5.291-2.947-9.619-7.415-13.114-12.602c-3.51-5.212-6.152-11.212-8.22-17.917c-0.421,2.748-0.726,1.787-1.204,0.275        c-0.495-1.493-0.968-3.545-2.074-2.834c-0.463-1.646-0.69-2.81-0.835-3.588c-0.107-0.785-0.118-1.191-0.063-1.354        c0,0-0.003-0.65-0.007-1.625c0.021-0.478,0.044-1.034,0.069-1.631c0.025-0.594,0.041-1.205,0.108-1.898        c0.055-0.674,0.11-1.348,0.162-1.979c0.065-0.601,0.125-1.161,0.177-1.642c0.108-1.009,0.18-1.681,0.18-1.681        c0.319-1.281,0.479-0.444,0.625,0.67c0.073,0.558,0.144,1.184,0.229,1.649c0.042,0.233,0.089,0.426,0.142,0.55l0.02,0.043        l0.01,0.02l0.005,0.009l0.001,0.002h0c-0.002-0.052,0.005,0.117-0.004-0.116l0,0.001l0.003,0.005        c0.015,0.021,0.029,0.038,0.044,0.05c0.03,0.022,0.062,0.025,0.095,0.003c0.003-0.44,0.006-0.837,0.008-1.194        c0.01-0.395,0.019-0.746,0.026-1.061c0.024-0.63,0.062-1.11,0.108-1.486c0.095-0.751,0.229-1.079,0.38-1.325        c0.303-0.494,0.673-0.662,0.924-3.233c-0.844,1.076-1.33-2.656-1.124-7.079l-0.948,6.248        c-1.613-10.783,1.782-9.412,0.179-20.283l0.869,3.428c-0.616-5.583-0.58-20.647-2.703-26.077        c0.254-0.999,0.885-2.325,1.132,0.133c-0.091-13.385-2.949-29.715-2.039-40.144l0.626,0.996        c-0.245-2.49-1.248-4.312-0.736-7.453c0.251,0.154,0.625,0.988,0.627-0.169c-0.244-1.315-1.239-6.599-0.985-9.916l0.754,2.807        c0.407-13.068-2.215-19.976-2.941-30.904c1.761-0.023,2.037-10.306,2.174-15.438l0.254,0.172        c-0.22-15.199-2.203-25.765-3.3-39.814c1.659-8.789-0.053-29.605,0.613-43.673c-0.257,2.156-1.381-0.309-1.63-2.799        c0.262-3.304-1.484-9.07,0.145-8.594l0.003,1.175c1.512-2.527,0.896-9.286,0.787-14.571l-2.137-0.811        c2.672-13.914-2.173-36.192,0.36-43.817c-0.625-3.32-0.738-7.453-1.36-10.745l1.138,0.146        c0.022-9.251,0.032-13.87-0.568-25.289l0.876,2.307c-0.114-6.447-3.499-8.043-3.737-13.986c0,0,0.41-0.461,0.819-0.923        c0.421-0.428,0.842-0.856,0.842-0.856c-0.084-2.613,0.214-5.222,0.6-7.795c0.463-2.564,1.082-5.087,1.853-7.549        c1.569-4.925,3.602-9.573,5.715-14.291c0.124,0.28,0.361,0.791-0.433,2.239c1.219-2.08,4.041-5.781,6.655-8.54        c1.283-1.405,2.468-2.616,3.134-3.551c0.702-0.892,0.879-1.527,0.165-1.678c0.553,0.535,2.529-1.213,5.188-3.252        c2.627-2.075,6.013-4.401,8.545-5.758l-0.376,1.369c0.475-0.399,0.892-0.75,1.268-1.067c0.393-0.3,0.744-0.568,1.07-0.818        c0.662-0.497,1.235-0.931,1.904-1.287c1.328-0.737,2.935-1.486,6.271-2.306c1.623-0.165,1.538,0.614-0.602,0.736        c0.672-0.054,1.232-0.132,1.719-0.205c0.49-0.056,0.901-0.127,1.265-0.21c0.728-0.155,1.26-0.397,1.842-0.564        c0.58-0.183,1.2-0.369,2.089-0.509c0.897-0.112,1.985-0.157,3.652-0.027c0,0-0.161,0.042-0.401,0.105        c-0.238,0.065-0.527,0.173-0.825,0.271c-0.585,0.2-1.171,0.399-1.171,0.399c0.667-0.021,1.244-0.04,1.749-0.056        c0.546-0.007,1.014-0.013,1.422-0.018c0.413-0.012,0.766-0.032,1.08-0.06c0.157-0.017,0.304-0.032,0.443-0.047        c0.07-0.01,0.137-0.019,0.204-0.028l0.049-0.008l0.024-0.003l0.006-0.001l0.003,0c-0.145-0.004-0.039-0.001-0.071-0.002h0.001        l0.012-0.002l0.096-0.013c1.019-0.148,1.715-0.423,3.332-0.774c3.672-0.301,11.017,0.722,11.834,1.763        c0.809-0.583,4.023-1.277,7.438-0.849c0.448,0.399-0.809,0.585-1.442,0.675c9.691,1.147,14.505-0.717,21.146,0.645        c0.123,0.374,0.551,0.576,1.102,0.709c-7.721-0.335-13.936-0.646-13.351-0.703c-0.041,1.026,6.188,1.457,1.17,2.676        c5.038-0.573,13.667-1.913,19.727-1.187c0.29,0.111,0.575,0.22,0.789,0.387l-0.633,0.09c1.399,0.159,2.659,0.113,3.849-0.012        c1.933,0.246,3.161,0.42,5.022,0.509c0.686,0.879,7.135,0.745,10.242,0.911c-0.212-1.134,3.853-0.791,0.075-1.871        c0.492,0.099-0.592,0.11-2.662,0.075c-0.469,0.014-1.02,0.009-1.33,0.063c0.061-0.029,0.136-0.061,0.215-0.09        c-2.042-0.062-4.707-0.142-7.734-0.234c2.48-0.473,5.067-0.85,8.481-0.089c1.625-0.658,3.411-1.331,4.415-1.639        c4.192,1.737,12.362,2.912,13.465,3.924c9.521-0.25,22.389,0.479,28.443-1.393c2.711-0.163,3.08,0.729,4.076,1.102        c-1.568,0.149-3.419,0.043-4.275,0.313c5.419-0.326,16.002,0.429,17.35-0.994c6.778,0.938-3.878,1.204,5.481,1.337l-1.279,0.4        c18.298,3.092,30.052-2.567,50.322,1.273c-1.404-0.242-2.107-0.356-2.387-0.615c23.194,2.264,47.958,0.665,70.814,3.698        c6.503,0.687,7.247-0.227,11.256-0.783l1.363,1.263l6.86-1.12c9.688-0.634,16.591,3.63,28.884,2.19l-1.545-0.876        c4.382,0.33,13.917,0.077,13.146,0.982c0.455-0.13,1.474-0.788,3.171-0.295l0.108,0.637l10.818-0.651        c8.336,0.791-1.407,2.455,10.78,3.065c4.54-0.062,12.977-1.322,11.293-1.813c-1.828-0.104-4.657-0.58-4.77-1.219l4.158-0.163        c0.827-1.831,4.09-3.609-6.033-5.316l-7.135,0.854l-2.247-0.994l5.968,0.182c-3.35-0.985-5.525-0.32-7.949,0.1        c-0.549-0.502-1.531-0.878-2.932-1.113l-7.031,1.499c-0.814-0.762,3.18-1.32-1.477-1.909        c-3.293,0.695,3.063,1.757-2.356,2.084c-3.359-0.982-2.341-1.631-6.351-1.068c-0.54-0.501,0.316-0.773,1.901-0.92        c-3.567,0.433-9.387-0.132-11.256,0.784c-3.493-1.186-11.974-0.208-11.555-1.955c-1.131,0.377-6.296,1.133-9.555,1.076        c6.031-1.871-12.179-0.611-10.515-2.809c-4.479,1.72-15.932,0.206-23.769,0.946c0.441-0.133,1.312-0.404,1.995-0.28        c-4.382-0.333-5.634-0.956-8.439-1.426c-0.627,1.543-7.473,1.628-11.193,2.447c-5.318-1.727,3.338-1.708,1.709-3.227        c0.22,1.28-9.396,0.893-7.608,2.023c-4.076-1.099-3.526-0.595-5.593-1.978c-0.799,1.93-3.843,0.178-7.302,1.245        c-5.913-1.203-1.458-1.896-8.021-1.561C280.356,22.779,286.198,22.317,286.198,22.317z M130.564,19.484        c0-0.011,0-0.019,0.001-0.022c1.34,0.027,2.482,0.05,3.212,0.065C133.107,19.517,132.18,19.505,130.564,19.484z         M117.495,18.979c1.589,0.107,3.57,0.194,5.666,0.271c0.443,0.407-0.068,0.786-1.383,0.713        C122.503,19.732,119.431,19.384,117.495,18.979z M144.824,27.87c-2.075,0.076-2.758-0.172-3.033-0.414        c0.978,0.02,2.121,0.027,3.623,0.01c0.062-0.04,0.187-0.083,0.249-0.128C145.457,27.545,145.224,27.737,144.824,27.87z" style="fill:#373737;"/><path d="M148.602,26.545c0.299-0.013,0.466-0.054,0.856-0.048c-0.418-0.116-0.818-0.217-1.224-0.302        c-0.257,0.111-0.519,0.224-0.748,0.323C147.863,26.527,148.253,26.537,148.602,26.545z" style="fill:#373737;"/><path d="M482.671,261.273l-0.034,0.274c0.052-0.229,0.103-0.438,0.178-0.573        C482.754,261.156,482.719,261.155,482.671,261.273z" style="fill:#373737;"/><polygon points="18.745,130.134 19.027,130.107 18.747,128.972       " style="fill:#373737;"/><path d="M488.778,189.4c0.103-0.135,0.214-0.402,0.317-0.936        C489.02,188.503,488.904,188.908,488.778,189.4z" style="fill:#373737;"/><path d="M490.002,158.309l0.537-4.386C490.252,155.819,490.101,157.201,490.002,158.309z" style="fill:#373737;"/><path d="M491.306,134.416c-0.188-0.309-0.333-0.4-0.466-0.483c-0.005,0.019-0.008,0.032-0.011,0.046        L491.306,134.416z" style="fill:#373737;"/><path d="M416.58,482.398c-0.321,0.019-0.637,0.046-0.92,0.088        C413.505,482.79,414.973,482.646,416.58,482.398z" style="fill:#373737;"/><path d="M481.656,401.413c0.166,1.208,0.33,2.397,0.417,3.653        C482.223,403.056,482.294,401.492,481.656,401.413z" style="fill:#373737;"/><path d="M290.34,488.803c0.013-0.008-0.001-0.01,0.013-0.021c-0.271,0.012-0.509,0.021-0.779,0.031        L290.34,488.803z" style="fill:#373737;"/><path d="M481.89,410.327c0.286-2.007,0.291-3.691,0.184-5.261        C481.947,406.716,481.771,408.657,481.89,410.327z" style="fill:#373737;"/><path d="M460.725,39.178l-1.054-0.609c-0.017,0.075-0.109,0.095-0.212,0.092L460.725,39.178z" style="fill:#373737;"/><path d="M459.459,38.661c0,0-0.313-0.127-0.627-0.255c-0.311-0.132-0.63-0.245-0.63-0.246        C458.758,38.43,459.229,38.685,459.459,38.661z" style="fill:#373737;"/><path d="M455.525,37.213l2.677,0.946C457.319,37.74,456.234,37.191,455.525,37.213z" style="fill:#373737;"/><path d="M484.334,62.228l0.54,0.122C484.697,62.212,484.518,62.162,484.334,62.228z" style="fill:#373737;"/><path d="M488.912,71.277c-0.368-1.166-0.83-2.63-1.329-4.21c-0.296-0.774-0.617-1.574-0.978-2.363        c-0.365-0.786-0.82-1.532-1.294-2.244l-0.438-0.11c0.657,0.538,1.415,2.287,2.062,4.156        C487.599,68.37,488.195,70.321,488.912,71.277z" style="fill:#373737;"/><path d="M487.071,112.048l0.577-8.049c-0.478,1.395-1.119,3.229-1.109-0.438        C484.926,113.68,487.575,101.495,487.071,112.048z" style="fill:#373737;"/><path d="M485.66,137.021c-0.066-4.336-0.632,0.031-0.871-0.206        C485.1,139.575,485.18,140.243,485.66,137.021z" style="fill:#373737;"/><path d="M480.013,317.635l-1.01-0.467C479.045,320.512,479.398,317.212,480.013,317.635z" style="fill:#373737;"/><polygon points="484.219,352.325 484.956,349.098 484.067,347.522       " style="fill:#373737;"/><polygon points="476.297,372.495 476.196,371.031 476.394,376.611       " style="fill:#373737;"/><path d="M254.812,480.339l1.06,1.22C258.118,481.242,258.533,479.808,254.812,480.339z" style="fill:#373737;"/><path d="M123.951,486.857c-1.451-0.572-5.149-0.83-7.395-0.12        C119.504,486.706,122.458,487.08,123.951,486.857z" style="fill:#373737;"/><polygon points="29.848,164.576 30.346,167.197 29.851,162.244       " style="fill:#373737;"/></g></g></g></g></g></g><g id="Layer_1"/></svg>