<?xml version="1.0" ?><!DOCTYPE svg  PUBLIC '-//W3C//DTD SVG 1.1//EN'  'http://www.w3.org/Graphics/SVG/1.1/DTD/svg11.dtd'><svg height="512px" style="enable-background:new 0 0 512 512;" version="1.1" viewBox="0 0 512 512" width="512px" xml:space="preserve" xmlns="http://www.w3.org/2000/svg" xmlns:xlink="http://www.w3.org/1999/xlink"><g id="facebook__x2C__social__x2C__media_x2C__social__x2C__media_x2C_"><g><g><g><path d="M117.374,374.535      c0,0-62.296-37.463-61.638-38.517c0.25-0.401,38.208,20.13,38.59,19.519c0.25-0.4-44.508-26.404-43.876-27.416      c0.415-0.663,35.576,19.867,35.988,19.208c0,0-40.094-25.027-40.083-25.046l33.04,17.317      c0.173-0.277-34.837-21.769-34.837-21.769c0.389-0.623,29.875,15.254,29.875,15.254s-33.302-20.807-33.301-20.809      c0,0,26.316,12.371,26.749,11.68c0.384-0.615-29.457-17.781-29.176-18.231c0.026-0.041,25.107,10.976,25.107,10.976      c0.193-0.31-27.402-17.123-27.402-17.123s24.089,11.73,24.254,11.466c0.355-0.568-27.325-17.074-27.325-17.074      s23.46,9.589,23.494,9.534c0,0-24.724-15.185-24.605-15.375c0.301-0.481,21.096,9.181,21.313,8.834      c0.182-0.291-22.689-13.047-22.181-13.86c0.069-0.111,20.216,9.163,20.217,9.161c0.23-0.369-21.717-12.664-21.31-13.316      l20.886,9.748c0.28-0.448-22.499-13.258-22.139-13.834c0,0,19.315,9.332,19.578,8.91c0.015-0.023-19.895-11.51-19.48-12.172      c0.039-0.063,18.512,7.624,18.754,7.235c0,0-21.358-12.519-20.986-13.113c0.15-0.24,19.132,7.938,19.292,7.682      c0,0-19.925-12.328-19.87-12.417c0.23-0.367,18.604,7.543,18.893,7.082L26.61,256.454c0.251-0.402,17.75,7.872,17.826,7.751      c0.409-0.653-17.864-10.355-17.501-10.936c0,0,17.387,6.041,17.462,5.92c0.127-0.205-18.065-11.289-18.065-11.289      c0.299-0.479,16.853,5.79,16.853,5.79c0.004-0.007-17.329-10.411-17.142-10.711c0,0,17.333,7.243,17.379,7.169      c0,0-17.049-10.275-16.879-10.547c0,0,17.714,7.396,17.749,7.339c0,0-17.771-11.075-17.758-11.096      c0,0,17.537,6.461,17.833,5.987c0,0-16.65-9.921-16.434-10.269l16.453,5.239c0.112-0.179-17.327-10.564-17.208-10.753      c0.059-0.094,16.235,6.279,16.444,5.944c0.146-0.232-15.168-8.715-14.826-9.264c0,0,16.317,5.487,16.394,5.365      c0,0-16.541-10.214-16.486-10.302c0.264-0.422,16.284,5.271,16.284,5.271l-14.617-9.133c0.116-0.186,15.87,6.34,15.87,6.34      s-16.258-9.808-16.1-10.061c0,0,16.507,6.224,16.676,5.953l-14.656-9.158c0,0,15.356,6.606,15.656,6.126l-15.625-9.764      c0.003-0.005,16.58,6.343,16.58,6.343c0.245-0.393-14.729-9.203-14.729-9.203c0.004-0.006,15.927,4.964,15.927,4.964      l-14.95-9.342l15.214,5.102c0,0-14.171-8.397-13.965-8.727c0.297-0.475,16.406,5.862,16.406,5.862      c0.138-0.221-15.603-9.167-15.341-9.586c0.22-0.352,15.189,4.891,15.283,4.741c0.026-0.042-13.587-8.49-13.587-8.49      c0.249-0.397,15.567,6.327,15.567,6.327c0.199-0.318-14.067-8.601-13.982-8.737c0.071-0.114,15.884,5.709,16.026,5.483      c0,0-14.023-8.743-14.015-8.757l14.867,4.689l-14.485-9.051c0.137-0.219,15.759,5.822,15.953,5.512l-12.785-7.989      c0,0,13.67,4.995,13.837,4.729c0.285-0.456-12.252-7.656-12.252-7.656l15.173,4.698l-13.206-8.252      c0.025-0.041,13.71,4.598,13.71,4.598c0.265-0.424-12.699-7.936-12.699-7.936c0.271-0.434,14.905,4.972,14.905,4.972      l-12.61-7.879l14.702,4.093c0,0-12.386-7.265-12.173-7.606c0,0,14.113,6.308,14.39,5.864c0.229-0.367-13.916-8.532-13.842-8.649      l16.599,5.195c0.249-0.397-14.73-9.021-14.648-9.153c0.136-0.217,15.996,6.856,16.083,6.717l-14.492-9.055      c0.06-0.096,16.271,6.198,16.271,6.198l-13.299-8.31l15.468,5.651l-14.289-8.929c0.119-0.189,14.93,5.667,15.11,5.377      c0,0-11.961-7.163-11.821-7.387c0,0,14.435,4.662,14.497,4.563c0.057-0.091-12.156-7.519-12.121-7.574      c0.038-0.061,14.731,5.592,14.731,5.592c0.066-0.106-14.015-8.757-14.015-8.757s15.558,5.675,15.629,5.561l-11.8-7.374      c0.09-0.144,14.43,5.639,14.564,5.425l-13.15-8.217l14.651,4.871c0.264-0.423-12.229-7.395-12.118-7.572      c0.106-0.17,14.458,5.347,14.638,5.059c0,0-12.665-7.828-12.626-7.89c0,0,16.771,5.735,16.961,5.431      c0.131-0.209-14.11-8.731-14.071-8.793c0,0,17.058,6.271,17.33,5.835l-14.205-8.876l16.903,6.231      c0.031-0.049-14.52-9.073-14.52-9.073l16.28,6.704c0,0-14.05-8.677-14.004-8.75l17.016,6.055l-13.062-8.161l16.802,5.769      c0.221-0.354-13.925-8.701-13.925-8.701l15.232,5.285c0,0-13.239-8.206-13.208-8.253l17.786,6.373l-13.161-8.223      c0.028-0.045,14.51,5.72,14.51,5.72l-12.823-8.012c0.113-0.182,15.687,6.523,15.964,6.08c0,0-13.423-8.276-13.374-8.356      c0.262-0.419,17.903,6.309,17.903,6.309c0.096-0.153-14.524-9.075-14.524-9.075c0.106-0.17,16.588,6.363,16.674,6.226      l-13.146-8.215c0.076-0.122,16.937,6.516,16.962,6.474l-13.595-8.495c0.29-0.463,16.001,5.543,16.001,5.543      c0.198-0.316-13.38-8.135-13.279-8.297c0.169-0.271,17.026,7.007,17.211,6.71c0.235-0.375-13.652-8.154-13.483-8.425      l16.134,6.199l-13.95-8.717l16.929,6.883c0.173-0.277-13.507-7.799-13.219-8.26l16.905,6.402      c0.207-0.331-13.085-8.177-13.085-8.177c0.176-0.282,15.966,7.396,16.244,6.951c0.12-0.192-15.276-9.546-15.276-9.546      c0.333-0.532,19.069,7.25,19.069,7.25c0.197-0.314-14.213-8.881-14.213-8.881c0.117-0.188,17.586,7.542,17.85,7.12      c0.139-0.223-14.615-8.907-14.514-9.069c0,0,19.406,7.129,19.436,7.082c0.265-0.424-15.3-8.87-14.99-9.367      c0.181-0.289,18.676,6.553,18.676,6.553l-14.638-9.146c0.202-0.323,17.289,7.69,17.355,7.584      c0.024-0.039-14.887-9.303-14.887-9.303c0.349-0.559,18.558,7.763,18.693,7.546c0,0-14.422-8.738-14.299-8.935      c0,0,17.643,7.7,17.664,7.667l-14.618-9.134c0.058-0.093,19.823,8.143,19.823,8.143c0.146-0.234-15.493-9.681-15.493-9.681      s19.402,7.174,19.445,7.105l-15.698-9.809c0.319-0.511,20.723,9.22,20.723,9.22c0.133-0.213-16.388-10.24-16.388-10.24      c0.34-0.544,19.577,8.517,19.577,8.517s-16.008-9.399-15.737-9.833c0.369-0.592,21.1,8.538,21.1,8.538      c0.189-0.302-16.298-10.184-16.298-10.184s20.215,8.909,20.273,8.815l-17.048-10.652c0.023-0.038,21.416,9.024,21.416,9.024      c0.198-0.317-16.239-10.147-16.239-10.147c0.239-0.383,21.525,9.144,21.525,9.144c0.363-0.581-17.747-11.089-17.747-11.089      l21.137,9.438l-17.04-10.647l23.292,10.364c0.032-0.051-18.537-11.171-18.352-11.467c0,0,23.218,10.434,23.614,9.801      c0.239-0.382-18.133-10.637-17.821-11.136c0,0,23.498,10.432,23.599,10.27c0.019-0.03-18.889-11.803-18.889-11.803      c0-0.001,24.911,11.138,24.911,11.138c0.347-0.555-18.465-11.538-18.465-11.538s22.866,11.975,23.241,11.375l-19.03-11.891      c0.496-0.793,25.934,11.199,25.934,11.199c0.402-0.644-21.006-13.125-21.006-13.125c0.005-0.008,26.547,13.267,27.073,12.426      l-20.013-12.505c0.121-0.193,26.453,12.62,26.453,12.62c0.018-0.028-22.03-13.706-22.003-13.749      c0.004-0.007,26.52,13.388,26.52,13.388c0.273-0.436-22.523-13.976-22.479-14.046c0.42-0.672,28.196,14.175,28.414,13.826      l-21.839-13.647c0.001-0.002,30.005,14.22,30.005,14.22s-24.64-14.338-24.164-15.1c0.092-0.148,30.075,16.081,30.413,15.541      l-25.043-15.648l34.28,16.512c0.425-0.68-27.021-16.534-26.863-16.786c0.421-0.673,34.826,18.361,34.826,18.361      c0.01-0.015-29.001-18.122-29.001-18.122c0.226-0.36,39.541,20.162,39.541,20.162s-32.771-20.216-32.654-20.405      c0.26-0.415,42.183,22.297,42.183,22.297L291.83,41.8c0.428-0.685,48.465,25.939,48.465,25.939l-40.907-25.562l54.787,30.854      c0,0-47.45-28.866-47.098-29.43" style="fill:none;stroke:#231F20;stroke-width:2;stroke-linecap:round;stroke-linejoin:round;"/><path d="M134.754,403.58      c0,0-28.405-16.691-27.93-17.452c0,0,55.615,32.58,56.501,31.162c1.446-2.314-79.401-49.615-79.401-49.615      c0.677-1.083,90.805,58.009,92.781,54.846L74.489,358.649c2.325-3.721,118.067,68.745,118.067,68.745l-127.547-79.7      c1.438-2.301,139.609,83.172,139.609,83.172S57.137,341.214,58.262,339.413c0,0,153.669,98.726,156.658,93.942      c0.647-1.034-52.659-32.724-52.578-32.854c0.881-1.409,63.668,35.408,63.668,35.408s-44.266-27.172-44.046-27.523      c0.369-0.591,49.372,27.652,49.372,27.652s-38.258-22.025-37.413-23.378c0,0,48.287,25.876,48.464,25.593      c0,0-36.819-21.377-36.086-22.549l41.997,22.79c0.245-0.393-32.746-20.461-32.746-20.461l40.56,21.771      c0,0-31.468-19.167-31.245-19.523c0,0,36.205,20.204,36.644,19.502l-29.659-18.533c0.423-0.678,36.405,19.846,37.169,18.624      l-27.558-17.22c0,0,36.013,18.463,36.515,17.659l-26.913-16.817c0.442-0.708,32.576,16.61,32.866,16.146      c0.207-0.332-23.977-14.981-23.977-14.981c0.299-0.479,30.063,15.031,30.063,15.031c0.051-0.081-23.928-14.676-23.804-14.875      c0.618-0.989,29.612,15.168,30.176,14.267l-22.896-14.308c0.204-0.327,29.375,14.23,29.443,14.121      c0.091-0.146-22.925-13.344-22.484-14.05l26.488,13.432c0.336-0.536-22.941-13.541-22.585-14.112      c0.387-0.618,28.276,13.978,28.276,13.978c0.025-0.04-21.416-13.383-21.416-13.383l25.784,11.83l-20.585-12.862      c0.046-0.072,25.367,12.412,25.76,11.784c0,0-20.607-12.435-20.409-12.752c0.422-0.676,24.572,12.236,24.572,12.236      c0.149-0.24-19.884-11.424-19.434-12.144l25.875,11.235c0,0-19.202-11.678-19.058-11.909      c0.325-0.52,23.459,10.889,23.459,10.889c0.171-0.272-19.381-12.11-19.381-12.11c0.002-0.003,22.592,11.033,22.743,10.791      l-18.302-11.437c0.414-0.663,23.455,9.484,23.455,9.484s-17.741-10.835-17.628-11.016c0.436-0.697,21.592,9.836,21.592,9.836      s-17.026-10.576-16.998-10.621c0,0,22.604,10.579,22.946,10.03l-19.278-12.047c0.176-0.281,23.347,10.066,23.419,9.95      l-17.759-11.097c0.391-0.625,21.934,10.206,22.099,9.941c0,0-19.143-11.296-18.844-11.774      c0.276-0.442,23.445,9.542,23.445,9.542c0.184-0.292-16.826-10.515-16.826-10.515s19.224,8.938,19.457,8.565      c0,0-17.251-10.777-17.25-10.779l22.31,9.225l-16.775-10.482c0,0,20.183,8.821,20.299,8.636      c0.267-0.428-17.683-10.768-17.556-10.97l20.691,8.938c0.005-0.007-15.886-9.927-15.886-9.927s17.923,8.44,18.264,7.895      c0.019-0.029-15.811-9.535-15.655-9.783c0.204-0.327,19.844,9.274,19.844,9.274c0.062-0.099-16.852-10.001-16.613-10.382      c0,0,19.32,7.667,19.438,7.479c0,0-16.537-9.922-16.353-10.218l19.474,7.708c0.218-0.348-15.783-9.861-15.782-9.862      c0.283-0.453,19.079,8.045,19.447,7.456l-15.607-9.753c0.082-0.131,19.365,7.852,19.365,7.852l-15.042-9.399      c0,0,18.232,7.543,18.509,7.1c0.23-0.368-14.655-9.158-14.655-9.158l17.772,7.242c0.15-0.241-16.325-9.779-16.136-10.083      l17.79,7.64c0.167-0.268-14.872-9.292-14.872-9.292s19.364,8.08,19.739,7.479l-16.488-10.303c0.051-0.082,18.485,7.2,18.485,7.2      l-15.567-9.728c0.034-0.055,17.604,8.019,17.849,7.628c0.213-0.341-14.31-8.882-14.282-8.925      c0.247-0.395,17.104,6.685,17.104,6.685c0.158-0.254-14.948-9.341-14.948-9.341c0.203-0.324,18.763,6.721,18.77,6.71      c0.09-0.145-15.336-9.12-15.128-9.453c0,0,16.616,7.3,16.854,6.921c0.187-0.299-15.39-9.24-15.221-9.511l17.868,6.547      c0,0-14.228-8.578-14.087-8.803c0.304-0.486,16.123,6.345,16.123,6.345c0.078-0.125-14.329-8.574-14.159-8.847      c0.103-0.164,17.686,7.011,17.686,7.011s-15.436-9.132-15.205-9.501c0.169-0.27,16.777,5.613,16.914,5.394      c0,0-14.745-9.147-14.716-9.195c0.097-0.155,16.684,7.141,16.826,6.91l-15.029-9.392c0.244-0.39,17.607,8.568,17.909,8.085      c0.014-0.021-16.147-10.09-16.147-10.09l17.378,7.107c0,0-15.631-9.623-15.566-9.728c0.347-0.554,17.228,7.639,17.486,7.225      l-15.337-9.583l17.604,6.243c0,0-14.271-8.424-14.049-8.778c0.299-0.479,16.022,5.764,16.022,5.764      c0.294-0.471-14.656-8.466-14.345-8.964c0.109-0.175,16.022,5.584,16.022,5.584c0.006-0.009-14.146-8.84-14.146-8.84      s15.461,6.782,15.749,6.321c0.279-0.446-14.465-8.811-14.362-8.975c0.06-0.094,17.703,6.287,17.703,6.287l-15.752-9.843      c0.15-0.24,16.593,5.634,16.593,5.634c0.138-0.221-14.848-8.64-14.561-9.1c0.177-0.283,17.47,6.01,17.527,5.918      c0.237-0.38-14.662-9.161-14.662-9.161l16.021,5.853c0.143-0.229-13.793-8.619-13.793-8.619l14.511,5.946l-14.358-8.972      c0.283-0.454,16.69,6.612,16.95,6.197l-14.941-9.337c0,0,15.765,6.753,16.007,6.365c0.292-0.467-15.279-9.361-15.195-9.495      l16.124,5.359c0,0-14.809-8.738-14.577-9.108l16.312,6.537l-14.047-8.777c0,0,14.717,5.944,14.891,5.665l-15.15-9.467      c0,0,16.822,7.371,16.917,7.221c0.127-0.204-15.827-9.495-15.65-9.779c0,0,16.539,5.373,16.618,5.246      c0.167-0.267-14.507-9.065-14.507-9.065c0.154-0.247,15.708,5.867,15.708,5.867c0.088-0.141-14.529-8.699-14.358-8.973      c0.278-0.446,16.239,5.315,16.239,5.315c0.007-0.012-14.564-9.101-14.564-9.101s14.924,4.796,15.034,4.62      c0.02-0.031-13.876-8.382-13.746-8.589c0.273-0.438,15.481,5.439,15.695,5.098c0,0-15.825-9.545-15.671-9.793      c0.231-0.37,16.323,6.588,16.323,6.588c0.133-0.213-15.911-9.942-15.911-9.942c0.173-0.277,16.107,6.811,16.33,6.454      l-14.442-9.024l15.556,4.548c0.124-0.199-15.935-9.76-15.846-9.901c0.057-0.091,17.146,7.3,17.146,7.3l-16.604-10.375      c0.316-0.506,16.919,5.898,16.919,5.898s-15.824-9.189-15.511-9.691c0.197-0.314,15.456,5.814,15.456,5.814      c0.146-0.234-15.103-9.438-15.103-9.438c0.254-0.406,16.303,5.753,16.303,5.753l-16.776-10.482l16.91,6.194l-16.313-10.193      l16.596,6.861c0.342-0.547-15.53-9.509-15.442-9.649l16.981,6.329c0,0-18.212-10.905-17.999-11.247      c0.361-0.578,18.324,7.349,18.324,7.349l-17.905-11.188c0,0,17.066,6.884,17.112,6.81c0.204-0.326-17.226-10.764-17.226-10.764      c0.308-0.494,17.188,6.053,17.188,6.053c0.021-0.035-16.936-10.583-16.936-10.583s16.534,5.883,16.815,5.432      c0.232-0.371-17.04-10.398-16.927-10.578c0.335-0.537,18.189,7.584,18.189,7.584c0.038-0.062-19.249-12.028-19.249-12.028      c0.004-0.007,19.301,8.692,19.301,8.692s-18.949-11.21-18.665-11.664l17.779,7.967l-18.744-11.712l18.555,7.96      c0.345-0.551-19.795-12.002-19.63-12.266c0.382-0.611,19.229,8.242,19.576,7.688l-20.015-12.506l18.663,7.374      c0.241-0.387-18.619-11.514-18.565-11.6c0.002-0.003,17.662,8.138,17.813,7.895L464.065,201.8l18.706,6.856      c0.048-0.077-20.067-12.54-20.067-12.54c0.038-0.061,18.986,7.338,18.986,7.338c0.097-0.155-20.983-12.22-20.583-12.861      c0,0,19.732,9.259,19.844,9.082c0,0-22.378-13.37-22.103-13.811c0.145-0.231,20.503,8.751,20.559,8.663l-21.373-13.355      l20.016,8.447c0.498-0.796-23.083-13.434-22.638-14.146l21.797,8.791c0.457-0.73-24.069-14.628-23.884-14.925      c0.147-0.237,21.432,9.314,21.432,9.314s-24.067-14.929-24.018-15.008l23.471,11.276c0.57-0.913-26.051-16.278-26.051-16.278      l23.975,11.439l-27.55-17.214c0.212-0.339,25.746,11.483,25.746,11.483s-29.563-18.264-29.469-18.414l27.601,13.992      c0.668-1.07-32.401-20.247-32.401-20.247l29.003,13.644c0.501-0.801-34.541-21.14-34.342-21.459      c0.216-0.344,29.819,14.204,29.819,14.204s-37.972-22.375-37.364-23.348l35.479,18.812l-42.855-26.779l39.283,21.085      c0.414-0.664-50.205-30.114-49.641-31.019c0.452-0.723,42.281,21.686,42.478,21.372c1.955-3.129-129.868-81.15-129.868-81.15      c2.586-4.139,126.558,75.955,126.558,75.955L326.064,46.925c1.13-1.808,109.896,66.606,110.871,65.046      c1.264-2.023-98.505-61.553-98.505-61.553c0.831-1.331,85.63,52.157,86.992,49.977c1.421-2.272-73.809-45.091-73.346-45.832      c0.41-0.656,51.966,29.648,52.869,28.204c0,0-25.608-15.206-25.251-15.778" style="fill:none;stroke:#231F20;stroke-width:2;stroke-linecap:round;stroke-linejoin:round;"/><path d="M276.235,197.129      c0,0-50.352-31.073-50.176-31.354c0,0,49.92,26.644,50.144,26.287l-47.412-29.625c0.75-1.2,46.704,25.976,46.802,25.817      c0,0-45.906-27.282-45.275-28.291c0,0,45.252,25.307,45.602,24.748c0.939-1.503-44.452-27.227-44.205-27.622      c0.728-1.166,45.07,23.279,45.07,23.279l-42.294-26.428c0,0,42.284,23.855,42.929,22.823      c0.566-0.907-41.759-24.491-41.039-25.644c0,0,44.083,23.942,44.732,22.902c0.744-1.192-42.769-25.368-42.159-26.344      l47.001,25.189l-43.935-27.454c0.066-0.106,49.476,27.437,49.476,27.437c0.892-1.427-45.214-28.253-45.214-28.253      c0.414-0.662,50.017,27.859,50.017,27.859c0.389-0.622-48.451-28.6-47.698-29.805c1.053-1.686,53.126,31.031,53.668,30.164      l-50.029-31.262c0.941-1.506,54.315,30.727,54.315,30.727l-51.293-32.051c0,0,57.329,32.553,57.732,31.908      c0.147-0.235-53.456-33.051-53.298-33.305c0.666-1.067,53.396,31.181,54.126,30.015c0.195-0.314-50.953-30.764-50.47-31.537      c0.138-0.22,50.094,27.909,50.527,27.215c0.357-0.571-44.491-26.96-44.113-27.565c0.691-1.107,43.262,24.405,43.687,23.726      c0.284-0.455-38.515-23.797-38.394-23.991c0.317-0.508,38.543,19.775,38.543,19.775c0.063-0.1-32.348-20.213-32.348-20.213      s32.697,17.35,32.924,16.989c0.265-0.424-26.614-16.63-26.614-16.63l27.142,12.72c0,0-20.622-12.655-20.519-12.821      c0.188-0.302,20.246,9.446,20.464,9.098c0.289-0.461-15.113-9.444-15.113-9.444c0.018-0.028,14.718,6.455,14.933,6.111      c0,0-9.615-5.829-9.535-5.958c0,0,9.578,2.5,9.755,2.218c0.067-0.109-2.772-1.611-2.718-1.698" style="fill:none;stroke:#231F20;stroke-width:2;stroke-linecap:round;stroke-linejoin:round;"/><path d="M201.648,238.087      c0,0-0.498-0.29-0.488-0.305c0.041-0.066,7.092-0.022,7.155-0.124c0.045-0.072-7.209-4.253-7.097-4.434      c0.138-0.22,12.566,4.876,12.703,4.658c0,0-13.652-8.522-13.648-8.528l18.302,8.109c0.088-0.142-17.22-10.76-17.22-10.76" style="fill:none;stroke:#231F20;stroke-width:2;stroke-linecap:round;stroke-linejoin:round;"/><path d="M225.767,340.908      c0,0-1.727-1.041-1.709-1.068c0,0,8.827,1.648,8.952,1.449c0.146-0.232-8.307-5.19-8.307-5.19      c0.092-0.147,13.38,5.829,13.649,5.398l-13.926-8.702c0.386-0.618,21.167,8.195,21.167,8.195l-20.369-12.728      c0.272-0.436,27.733,13.263,27.733,13.263s-28.353-17.228-28.133-17.579c0,0,34.38,18.969,35.023,17.938      c0.43-0.688-34.739-21.588-34.686-21.674c0.586-0.938,42.917,22.44,42.917,22.44s-43.612-26.771-43.396-27.116      c0.354-0.566,47.368,26.399,47.368,26.399s-47.648-27.454-46.606-29.122c0,0,49.182,26.442,49.363,26.154      c0,0-51.854-30.095-50.817-31.754l50.108,27.858c0.374-0.598-49.998-31.241-49.998-31.241l50.997,28.293      c0,0-50.473-30.744-50.116-31.315c0,0,48.966,28.537,49.566,27.577l-50.176-31.354c0.574-0.918,48.729,28.15,49.763,26.494      l-49.872-31.163c0,0,49.767,27.508,50.472,26.379l-50.751-31.712c0.685-1.096,49.486,27.528,49.934,26.812      c0.411-0.658-49.063-30.658-49.063-30.658c0.502-0.804,49.501,27.178,49.501,27.178c0.104-0.165-50.064-30.715-49.809-31.124      c1.041-1.666,48.659,27.927,49.607,26.408l-49.849-31.149c0.358-0.573,50.282,27.408,50.401,27.217      c0.201-0.321-51.222-29.844-50.25-31.399l50.076,28.17c0.755-1.207-51.678-30.5-50.873-31.788      c0.724-1.158,51.732,28.635,51.732,28.635c0.058-0.093-50.403-31.495-50.403-31.495l49.263,26.5l-50.079-31.292      c0.091-0.145,49.184,28.171,49.969,26.912c0,0-51.081-30.837-50.595-31.615c0.898-1.438,50.938,28.711,50.938,28.711      c0.371-0.594-51.011-29.396-49.897-31.179l50.616,26.695c0,0-50.607-30.801-50.238-31.392      c0.722-1.155,50.309,27.666,50.309,27.666c0.442-0.708-50.886-31.798-50.886-31.798c0.004-0.006,50.087,28.651,50.435,28.095      l-50.216-31.378c0.919-1.471,49.796,25.944,49.796,25.944s-73.68-45.056-73.238-45.764c1.553-2.486,73.282,42.135,73.282,42.135      s-73.061-45.401-72.947-45.582c0,0,73.363,44.145,74.536,42.268l-75.675-47.287c0.596-0.954,74.829,42.621,75.075,42.227      l-74.547-46.582c1.393-2.229,74.546,44.033,75.139,43.085c0,0-77.234-45.473-75.981-47.478      c0.946-1.514,75.727,42.211,75.727,42.211c0.754-1.207-72.146-45.081-72.146-45.081s70.488,42.462,71.391,41.018      c0,0-67.377-42.095-67.374-42.1l69.996,39.021l-61.884-38.669c0,0,68.104,39.427,68.517,38.767      c0.99-1.585-64.03-38.968-63.562-39.718l69.88,39.673c0.018-0.028-66.149-41.334-66.149-41.334s70.007,43.372,71.42,41.11      c0.079-0.126-72.677-43.904-71.998-44.99c0.851-1.362,78.758,46.088,78.758,46.088c0.29-0.464-79.48-47.166-78.357-48.963      c0,0,81.787,47.625,82.32,46.771c0,0-84.149-50.502-83.214-51.999l83.266,47.572c1.119-1.792-83.304-52.048-83.301-52.052      c1.313-2.101,82.031,50.35,83.733,47.625l-83.329-52.07c0.381-0.609,84.332,48.447,84.332,48.447l-82.689-51.67      c0,0,82.011,49.764,83.352,47.617c1.203-1.925-81.971-51.221-81.971-51.221l82.686,47.804      c0.286-0.458-30.896-18.501-30.533-19.08l30.173,15.378c0.267-0.426-24.198-15.121-24.198-15.121s25.766,12.382,26.276,11.564      l-18.675-11.669c0.051-0.081,18.173,7.004,18.173,7.004l-11.117-6.947c0.021-0.034,11.381,3.925,11.533,3.682      c0.079-0.127-4.606-2.856-4.597-2.872c0.07-0.112,5.204,0.024,5.204,0.024c0.01-0.015-0.408-0.255-0.408-0.255" style="fill:none;stroke:#231F20;stroke-width:2;stroke-linecap:round;stroke-linejoin:round;"/></g><g><path d="M117.374,374.535      c0,0-62.296-37.463-61.638-38.517c0.25-0.401,38.208,20.13,38.59,19.519c0.25-0.4-44.508-26.404-43.876-27.416      c0.415-0.663,35.576,19.867,35.988,19.208c0,0-40.094-25.027-40.083-25.046l33.04,17.317      c0.173-0.277-34.837-21.769-34.837-21.769c0.389-0.623,29.875,15.254,29.875,15.254s-33.302-20.807-33.301-20.809      c0,0,26.316,12.371,26.749,11.68c0.384-0.615-29.457-17.781-29.176-18.231c0.026-0.041,25.107,10.976,25.107,10.976      c0.193-0.31-27.402-17.123-27.402-17.123s24.089,11.73,24.254,11.466c0.355-0.568-27.325-17.074-27.325-17.074      s23.46,9.589,23.494,9.534c0,0-24.724-15.185-24.605-15.375c0.301-0.481,21.096,9.181,21.313,8.834      c0.182-0.291-22.689-13.047-22.181-13.86c0.069-0.111,20.216,9.163,20.217,9.161c0.23-0.369-21.717-12.664-21.31-13.316      l20.886,9.748c0.28-0.448-22.499-13.258-22.139-13.834c0,0,19.315,9.332,19.578,8.91c0.015-0.023-19.895-11.51-19.48-12.172      c0.039-0.063,18.512,7.624,18.754,7.235c0,0-21.358-12.519-20.986-13.113c0.15-0.24,19.132,7.938,19.292,7.682      c0,0-19.925-12.328-19.87-12.417c0.23-0.367,18.604,7.543,18.893,7.082L26.61,256.454c0.251-0.402,17.75,7.872,17.826,7.751      c0.409-0.653-17.864-10.355-17.501-10.936c0,0,17.387,6.041,17.462,5.92c0.127-0.205-18.065-11.289-18.065-11.289      c0.299-0.479,16.853,5.79,16.853,5.79c0.004-0.007-17.329-10.411-17.142-10.711c0,0,17.333,7.243,17.379,7.169      c0,0-17.049-10.275-16.879-10.547c0,0,17.714,7.396,17.749,7.339c0,0-17.771-11.075-17.758-11.096      c0,0,17.537,6.461,17.833,5.987c0,0-16.65-9.921-16.434-10.269l16.453,5.239c0.112-0.179-17.327-10.564-17.208-10.753      c0.059-0.094,16.235,6.279,16.444,5.944c0.146-0.232-15.168-8.715-14.826-9.264c0,0,16.317,5.487,16.394,5.365      c0,0-16.541-10.214-16.486-10.302c0.264-0.422,16.284,5.271,16.284,5.271l-14.617-9.133c0.116-0.186,15.87,6.34,15.87,6.34      s-16.258-9.808-16.1-10.061c0,0,16.507,6.224,16.676,5.953l-14.656-9.158c0,0,15.356,6.606,15.656,6.126l-15.625-9.764      c0.003-0.005,16.58,6.343,16.58,6.343c0.245-0.393-14.729-9.203-14.729-9.203c0.004-0.006,15.927,4.964,15.927,4.964      l-14.95-9.342l15.214,5.102c0,0-14.171-8.397-13.965-8.727c0.297-0.475,16.406,5.862,16.406,5.862      c0.138-0.221-15.603-9.167-15.341-9.586c0.22-0.352,15.189,4.891,15.283,4.741c0.026-0.042-13.587-8.49-13.587-8.49      c0.249-0.397,15.567,6.327,15.567,6.327c0.199-0.318-14.067-8.601-13.982-8.737c0.071-0.114,15.884,5.709,16.026,5.483      c0,0-14.023-8.743-14.015-8.757l14.867,4.689l-14.485-9.051c0.137-0.219,15.759,5.822,15.953,5.512l-12.785-7.989      c0,0,13.67,4.995,13.837,4.729c0.285-0.456-12.252-7.656-12.252-7.656l15.173,4.698l-13.206-8.252      c0.025-0.041,13.71,4.598,13.71,4.598c0.265-0.424-12.699-7.936-12.699-7.936c0.271-0.434,14.905,4.972,14.905,4.972      l-12.61-7.879l14.702,4.093c0,0-12.386-7.265-12.173-7.606c0,0,14.113,6.308,14.39,5.864c0.229-0.367-13.916-8.532-13.842-8.649      l16.599,5.195c0.249-0.397-14.73-9.021-14.648-9.153c0.136-0.217,15.996,6.856,16.083,6.717l-14.492-9.055      c0.06-0.096,16.271,6.198,16.271,6.198l-13.299-8.31l15.468,5.651l-14.289-8.929c0.119-0.189,14.93,5.667,15.11,5.377      c0,0-11.961-7.163-11.821-7.387c0,0,14.435,4.662,14.497,4.563c0.057-0.091-12.156-7.519-12.121-7.574      c0.038-0.061,14.731,5.592,14.731,5.592c0.066-0.106-14.015-8.757-14.015-8.757s15.558,5.675,15.629,5.561l-11.8-7.374      c0.09-0.144,14.43,5.639,14.564,5.425l-13.15-8.217l14.651,4.871c0.264-0.423-12.229-7.395-12.118-7.572      c0.106-0.17,14.458,5.347,14.638,5.059c0,0-12.665-7.828-12.626-7.89c0,0,16.771,5.735,16.961,5.431      c0.131-0.209-14.11-8.731-14.071-8.793c0,0,17.058,6.271,17.33,5.835l-14.205-8.876l16.903,6.231      c0.031-0.049-14.52-9.073-14.52-9.073l16.28,6.704c0,0-14.05-8.677-14.004-8.75l17.016,6.055l-13.062-8.161l16.802,5.769      c0.221-0.354-13.925-8.701-13.925-8.701l15.232,5.285c0,0-13.239-8.206-13.208-8.253l17.786,6.373l-13.161-8.223      c0.028-0.045,14.51,5.72,14.51,5.72l-12.823-8.012c0.113-0.182,15.687,6.523,15.964,6.08c0,0-13.423-8.276-13.374-8.356      c0.262-0.419,17.903,6.309,17.903,6.309c0.096-0.153-14.524-9.075-14.524-9.075c0.106-0.17,16.588,6.363,16.674,6.226      l-13.146-8.215c0.076-0.122,16.937,6.516,16.962,6.474l-13.595-8.495c0.29-0.463,16.001,5.543,16.001,5.543      c0.198-0.316-13.38-8.135-13.279-8.297c0.169-0.271,17.026,7.007,17.211,6.71c0.235-0.375-13.652-8.154-13.483-8.425      l16.134,6.199l-13.95-8.717l16.929,6.883c0.173-0.277-13.507-7.799-13.219-8.26l16.905,6.402      c0.207-0.331-13.085-8.177-13.085-8.177c0.176-0.282,15.966,7.396,16.244,6.951c0.12-0.192-15.276-9.546-15.276-9.546      c0.333-0.532,19.069,7.25,19.069,7.25c0.197-0.314-14.213-8.881-14.213-8.881c0.117-0.188,17.586,7.542,17.85,7.12      c0.139-0.223-14.615-8.907-14.514-9.069c0,0,19.406,7.129,19.436,7.082c0.265-0.424-15.3-8.87-14.99-9.367      c0.181-0.289,18.676,6.553,18.676,6.553l-14.638-9.146c0.202-0.323,17.289,7.69,17.355,7.584      c0.024-0.039-14.887-9.303-14.887-9.303c0.349-0.559,18.558,7.763,18.693,7.546c0,0-14.422-8.738-14.299-8.935      c0,0,17.643,7.7,17.664,7.667l-14.618-9.134c0.058-0.093,19.823,8.143,19.823,8.143c0.146-0.234-15.493-9.681-15.493-9.681      s19.402,7.174,19.445,7.105l-15.698-9.809c0.319-0.511,20.723,9.22,20.723,9.22c0.133-0.213-16.388-10.24-16.388-10.24      c0.34-0.544,19.577,8.517,19.577,8.517s-16.008-9.399-15.737-9.833c0.369-0.592,21.1,8.538,21.1,8.538      c0.189-0.302-16.298-10.184-16.298-10.184s20.215,8.909,20.273,8.815l-17.048-10.652c0.023-0.038,21.416,9.024,21.416,9.024      c0.198-0.317-16.239-10.147-16.239-10.147c0.239-0.383,21.525,9.144,21.525,9.144c0.363-0.581-17.747-11.089-17.747-11.089      l21.137,9.438l-17.04-10.647l23.292,10.364c0.032-0.051-18.537-11.171-18.352-11.467c0,0,23.218,10.434,23.614,9.801      c0.239-0.382-18.133-10.637-17.821-11.136c0,0,23.498,10.432,23.599,10.27c0.019-0.03-18.889-11.803-18.889-11.803      c0-0.001,24.911,11.138,24.911,11.138c0.347-0.555-18.465-11.538-18.465-11.538s22.866,11.975,23.241,11.375l-19.03-11.891      c0.496-0.793,25.934,11.199,25.934,11.199c0.402-0.644-21.006-13.125-21.006-13.125c0.005-0.008,26.547,13.267,27.073,12.426      l-20.013-12.505c0.121-0.193,26.453,12.62,26.453,12.62c0.018-0.028-22.03-13.706-22.003-13.749      c0.004-0.007,26.52,13.388,26.52,13.388c0.273-0.436-22.523-13.976-22.479-14.046c0.42-0.672,28.196,14.175,28.414,13.826      l-21.839-13.647c0.001-0.002,30.005,14.22,30.005,14.22s-24.64-14.338-24.164-15.1c0.092-0.148,30.075,16.081,30.413,15.541      l-25.043-15.648l34.28,16.512c0.425-0.68-27.021-16.534-26.863-16.786c0.421-0.673,34.826,18.361,34.826,18.361      c0.01-0.015-29.001-18.122-29.001-18.122c0.226-0.36,39.541,20.162,39.541,20.162s-32.771-20.216-32.654-20.405      c0.26-0.415,42.183,22.297,42.183,22.297L291.83,41.8c0.428-0.685,48.465,25.939,48.465,25.939l-40.907-25.562l54.787,30.854      c0,0-47.45-28.866-47.098-29.43" style="fill:none;stroke:#262626;stroke-width:2;stroke-linecap:round;stroke-linejoin:round;"/><path d="M134.754,403.58      c0,0-28.405-16.691-27.93-17.452c0,0,55.615,32.58,56.501,31.162c1.446-2.314-79.401-49.615-79.401-49.615      c0.677-1.083,90.805,58.009,92.781,54.846L74.489,358.649c2.325-3.721,118.067,68.745,118.067,68.745l-127.547-79.7      c1.438-2.301,139.609,83.172,139.609,83.172S57.137,341.214,58.262,339.413c0,0,153.669,98.726,156.658,93.942      c0.647-1.034-52.659-32.724-52.578-32.854c0.881-1.409,63.668,35.408,63.668,35.408s-44.266-27.172-44.046-27.523      c0.369-0.591,49.372,27.652,49.372,27.652s-38.258-22.025-37.413-23.378c0,0,48.287,25.876,48.464,25.593      c0,0-36.819-21.377-36.086-22.549l41.997,22.79c0.245-0.393-32.746-20.461-32.746-20.461l40.56,21.771      c0,0-31.468-19.167-31.245-19.523c0,0,36.205,20.204,36.644,19.502l-29.659-18.533c0.423-0.678,36.405,19.846,37.169,18.624      l-27.558-17.22c0,0,36.013,18.463,36.515,17.659l-26.913-16.817c0.442-0.708,32.576,16.61,32.866,16.146      c0.207-0.332-23.977-14.981-23.977-14.981c0.299-0.479,30.063,15.031,30.063,15.031c0.051-0.081-23.928-14.676-23.804-14.875      c0.618-0.989,29.612,15.168,30.176,14.267l-22.896-14.308c0.204-0.327,29.375,14.23,29.443,14.121      c0.091-0.146-22.925-13.344-22.484-14.05l26.488,13.432c0.336-0.536-22.941-13.541-22.585-14.112      c0.387-0.618,28.276,13.978,28.276,13.978c0.025-0.04-21.416-13.383-21.416-13.383l25.784,11.83l-20.585-12.862      c0.046-0.072,25.367,12.412,25.76,11.784c0,0-20.607-12.435-20.409-12.752c0.422-0.676,24.572,12.236,24.572,12.236      c0.149-0.24-19.884-11.424-19.434-12.144l25.875,11.235c0,0-19.202-11.678-19.058-11.909      c0.325-0.52,23.459,10.889,23.459,10.889c0.171-0.272-19.381-12.11-19.381-12.11c0.002-0.003,22.592,11.033,22.743,10.791      l-18.302-11.437c0.414-0.663,23.455,9.484,23.455,9.484s-17.741-10.835-17.628-11.016c0.436-0.697,21.592,9.836,21.592,9.836      s-17.026-10.576-16.998-10.621c0,0,22.604,10.579,22.946,10.03l-19.278-12.047c0.176-0.281,23.347,10.066,23.419,9.95      l-17.759-11.097c0.391-0.625,21.934,10.206,22.099,9.941c0,0-19.143-11.296-18.844-11.774      c0.276-0.442,23.445,9.542,23.445,9.542c0.184-0.292-16.826-10.515-16.826-10.515s19.224,8.938,19.457,8.565      c0,0-17.251-10.777-17.25-10.779l22.31,9.225l-16.775-10.482c0,0,20.183,8.821,20.299,8.636      c0.267-0.428-17.683-10.768-17.556-10.97l20.691,8.938c0.005-0.007-15.886-9.927-15.886-9.927s17.923,8.44,18.264,7.895      c0.019-0.029-15.811-9.535-15.655-9.783c0.204-0.327,19.844,9.274,19.844,9.274c0.062-0.099-16.852-10.001-16.613-10.382      c0,0,19.32,7.667,19.438,7.479c0,0-16.537-9.922-16.353-10.218l19.474,7.708c0.218-0.348-15.783-9.861-15.782-9.862      c0.283-0.453,19.079,8.045,19.447,7.456l-15.607-9.753c0.082-0.131,19.365,7.852,19.365,7.852l-15.042-9.399      c0,0,18.232,7.543,18.509,7.1c0.23-0.368-14.655-9.158-14.655-9.158l17.772,7.242c0.15-0.241-16.325-9.779-16.136-10.083      l17.79,7.64c0.167-0.268-14.872-9.292-14.872-9.292s19.364,8.08,19.739,7.479l-16.488-10.303c0.051-0.082,18.485,7.2,18.485,7.2      l-15.567-9.728c0.034-0.055,17.604,8.019,17.849,7.628c0.213-0.341-14.31-8.882-14.282-8.925      c0.247-0.395,17.104,6.685,17.104,6.685c0.158-0.254-14.948-9.341-14.948-9.341c0.203-0.324,18.763,6.721,18.77,6.71      c0.09-0.145-15.336-9.12-15.128-9.453c0,0,16.616,7.3,16.854,6.921c0.187-0.299-15.39-9.24-15.221-9.511l17.868,6.547      c0,0-14.228-8.578-14.087-8.803c0.304-0.486,16.123,6.345,16.123,6.345c0.078-0.125-14.329-8.574-14.159-8.847      c0.103-0.164,17.686,7.011,17.686,7.011s-15.436-9.132-15.205-9.501c0.169-0.27,16.777,5.613,16.914,5.394      c0,0-14.745-9.147-14.716-9.195c0.097-0.155,16.684,7.141,16.826,6.91l-15.029-9.392c0.244-0.39,17.607,8.568,17.909,8.085      c0.014-0.021-16.147-10.09-16.147-10.09l17.378,7.107c0,0-15.631-9.623-15.566-9.728c0.347-0.554,17.228,7.639,17.486,7.225      l-15.337-9.583l17.604,6.243c0,0-14.271-8.424-14.049-8.778c0.299-0.479,16.022,5.764,16.022,5.764      c0.294-0.471-14.656-8.466-14.345-8.964c0.109-0.175,16.022,5.584,16.022,5.584c0.006-0.009-14.146-8.84-14.146-8.84      s15.461,6.782,15.749,6.321c0.279-0.446-14.465-8.811-14.362-8.975c0.06-0.094,17.703,6.287,17.703,6.287l-15.752-9.843      c0.15-0.24,16.593,5.634,16.593,5.634c0.138-0.221-14.848-8.64-14.561-9.1c0.177-0.283,17.47,6.01,17.527,5.918      c0.237-0.38-14.662-9.161-14.662-9.161l16.021,5.853c0.143-0.229-13.793-8.619-13.793-8.619l14.511,5.946l-14.358-8.972      c0.283-0.454,16.69,6.612,16.95,6.197l-14.941-9.337c0,0,15.765,6.753,16.007,6.365c0.292-0.467-15.279-9.361-15.195-9.495      l16.124,5.359c0,0-14.809-8.738-14.577-9.108l16.312,6.537l-14.047-8.777c0,0,14.717,5.944,14.891,5.665l-15.15-9.467      c0,0,16.822,7.371,16.917,7.221c0.127-0.204-15.827-9.495-15.65-9.779c0,0,16.539,5.373,16.618,5.246      c0.167-0.267-14.507-9.065-14.507-9.065c0.154-0.247,15.708,5.867,15.708,5.867c0.088-0.141-14.529-8.699-14.358-8.973      c0.278-0.446,16.239,5.315,16.239,5.315c0.007-0.012-14.564-9.101-14.564-9.101s14.924,4.796,15.034,4.62      c0.02-0.031-13.876-8.382-13.746-8.589c0.273-0.438,15.481,5.439,15.695,5.098c0,0-15.825-9.545-15.671-9.793      c0.231-0.37,16.323,6.588,16.323,6.588c0.133-0.213-15.911-9.942-15.911-9.942c0.173-0.277,16.107,6.811,16.33,6.454      l-14.442-9.024l15.556,4.548c0.124-0.199-15.935-9.76-15.846-9.901c0.057-0.091,17.146,7.3,17.146,7.3l-16.604-10.375      c0.316-0.506,16.919,5.898,16.919,5.898s-15.824-9.189-15.511-9.691c0.197-0.314,15.456,5.814,15.456,5.814      c0.146-0.234-15.103-9.438-15.103-9.438c0.254-0.406,16.303,5.753,16.303,5.753l-16.776-10.482l16.91,6.194l-16.313-10.193      l16.596,6.861c0.342-0.547-15.53-9.509-15.442-9.649l16.981,6.329c0,0-18.212-10.905-17.999-11.247      c0.361-0.578,18.324,7.349,18.324,7.349l-17.905-11.188c0,0,17.066,6.884,17.112,6.81c0.204-0.326-17.226-10.764-17.226-10.764      c0.308-0.494,17.188,6.053,17.188,6.053c0.021-0.035-16.936-10.583-16.936-10.583s16.534,5.883,16.815,5.432      c0.232-0.371-17.04-10.398-16.927-10.578c0.335-0.537,18.189,7.584,18.189,7.584c0.038-0.062-19.249-12.028-19.249-12.028      c0.004-0.007,19.301,8.692,19.301,8.692s-18.949-11.21-18.665-11.664l17.779,7.967l-18.744-11.712l18.555,7.96      c0.345-0.551-19.795-12.002-19.63-12.266c0.382-0.611,19.229,8.242,19.576,7.688l-20.015-12.506l18.663,7.374      c0.241-0.387-18.619-11.514-18.565-11.6c0.002-0.003,17.662,8.138,17.813,7.895L464.065,201.8l18.706,6.856      c0.048-0.077-20.067-12.54-20.067-12.54c0.038-0.061,18.986,7.338,18.986,7.338c0.097-0.155-20.983-12.22-20.583-12.861      c0,0,19.732,9.259,19.844,9.082c0,0-22.378-13.37-22.103-13.811c0.145-0.231,20.503,8.751,20.559,8.663l-21.373-13.355      l20.016,8.447c0.498-0.796-23.083-13.434-22.638-14.146l21.797,8.791c0.457-0.73-24.069-14.628-23.884-14.925      c0.147-0.237,21.432,9.314,21.432,9.314s-24.067-14.929-24.018-15.008l23.471,11.276c0.57-0.913-26.051-16.278-26.051-16.278      l23.975,11.439l-27.55-17.214c0.212-0.339,25.746,11.483,25.746,11.483s-29.563-18.264-29.469-18.414l27.601,13.992      c0.668-1.07-32.401-20.247-32.401-20.247l29.003,13.644c0.501-0.801-34.541-21.14-34.342-21.459      c0.216-0.344,29.819,14.204,29.819,14.204s-37.972-22.375-37.364-23.348l35.479,18.812l-42.855-26.779l39.283,21.085      c0.414-0.664-50.205-30.114-49.641-31.019c0.452-0.723,42.281,21.686,42.478,21.372c1.955-3.129-129.868-81.15-129.868-81.15      c2.586-4.139,126.558,75.955,126.558,75.955L326.064,46.925c1.13-1.808,109.896,66.606,110.871,65.046      c1.264-2.023-98.505-61.553-98.505-61.553c0.831-1.331,85.63,52.157,86.992,49.977c1.421-2.272-73.809-45.091-73.346-45.832      c0.41-0.656,51.966,29.648,52.869,28.204c0,0-25.608-15.206-25.251-15.778" style="fill:none;stroke:#262626;stroke-width:2;stroke-linecap:round;stroke-linejoin:round;"/><path d="M276.235,197.129      c0,0-50.352-31.073-50.176-31.354c0,0,49.92,26.644,50.144,26.287l-47.412-29.625c0.75-1.2,46.704,25.976,46.802,25.817      c0,0-45.906-27.282-45.275-28.291c0,0,45.252,25.307,45.602,24.748c0.939-1.503-44.452-27.227-44.205-27.622      c0.728-1.166,45.07,23.279,45.07,23.279l-42.294-26.428c0,0,42.284,23.855,42.929,22.823      c0.566-0.907-41.759-24.491-41.039-25.644c0,0,44.083,23.942,44.732,22.902c0.744-1.192-42.769-25.368-42.159-26.344      l47.001,25.189l-43.935-27.454c0.066-0.106,49.476,27.437,49.476,27.437c0.892-1.427-45.214-28.253-45.214-28.253      c0.414-0.662,50.017,27.859,50.017,27.859c0.389-0.622-48.451-28.6-47.698-29.805c1.053-1.686,53.126,31.031,53.668,30.164      l-50.029-31.262c0.941-1.506,54.315,30.727,54.315,30.727l-51.293-32.051c0,0,57.329,32.553,57.732,31.908      c0.147-0.235-53.456-33.051-53.298-33.305c0.666-1.067,53.396,31.181,54.126,30.015c0.195-0.314-50.953-30.764-50.47-31.537      c0.138-0.22,50.094,27.909,50.527,27.215c0.357-0.571-44.491-26.96-44.113-27.565c0.691-1.107,43.262,24.405,43.687,23.726      c0.284-0.455-38.515-23.797-38.394-23.991c0.317-0.508,38.543,19.775,38.543,19.775c0.063-0.1-32.348-20.213-32.348-20.213      s32.697,17.35,32.924,16.989c0.265-0.424-26.614-16.63-26.614-16.63l27.142,12.72c0,0-20.622-12.655-20.519-12.821      c0.188-0.302,20.246,9.446,20.464,9.098c0.289-0.461-15.113-9.444-15.113-9.444c0.018-0.028,14.718,6.455,14.933,6.111      c0,0-9.615-5.829-9.535-5.958c0,0,9.578,2.5,9.755,2.218c0.067-0.109-2.772-1.611-2.718-1.698" style="fill:none;stroke:#262626;stroke-width:2;stroke-linecap:round;stroke-linejoin:round;"/><path d="M201.648,238.087      c0,0-0.498-0.29-0.488-0.305c0.041-0.066,7.092-0.022,7.155-0.124c0.045-0.072-7.209-4.253-7.097-4.434      c0.138-0.22,12.566,4.876,12.703,4.658c0,0-13.652-8.522-13.648-8.528l18.302,8.109c0.088-0.142-17.22-10.76-17.22-10.76" style="fill:none;stroke:#262626;stroke-width:2;stroke-linecap:round;stroke-linejoin:round;"/><path d="M225.767,340.908      c0,0-1.727-1.041-1.709-1.068c0,0,8.827,1.648,8.952,1.449c0.146-0.232-8.307-5.19-8.307-5.19      c0.092-0.147,13.38,5.829,13.649,5.398l-13.926-8.702c0.386-0.618,21.167,8.195,21.167,8.195l-20.369-12.728      c0.272-0.436,27.733,13.263,27.733,13.263s-28.353-17.228-28.133-17.579c0,0,34.38,18.969,35.023,17.938      c0.43-0.688-34.739-21.588-34.686-21.674c0.586-0.938,42.917,22.44,42.917,22.44s-43.612-26.771-43.396-27.116      c0.354-0.566,47.368,26.399,47.368,26.399s-47.648-27.454-46.606-29.122c0,0,49.182,26.442,49.363,26.154      c0,0-51.854-30.095-50.817-31.754l50.108,27.858c0.374-0.598-49.998-31.241-49.998-31.241l50.997,28.293      c0,0-50.473-30.744-50.116-31.315c0,0,48.966,28.537,49.566,27.577l-50.176-31.354c0.574-0.918,48.729,28.15,49.763,26.494      l-49.872-31.163c0,0,49.767,27.508,50.472,26.379l-50.751-31.712c0.685-1.096,49.486,27.528,49.934,26.812      c0.411-0.658-49.063-30.658-49.063-30.658c0.502-0.804,49.501,27.178,49.501,27.178c0.104-0.165-50.064-30.715-49.809-31.124      c1.041-1.666,48.659,27.927,49.607,26.408l-49.849-31.149c0.358-0.573,50.282,27.408,50.401,27.217      c0.201-0.321-51.222-29.844-50.25-31.399l50.076,28.17c0.755-1.207-51.678-30.5-50.873-31.788      c0.724-1.158,51.732,28.635,51.732,28.635c0.058-0.093-50.403-31.495-50.403-31.495l49.263,26.5l-50.079-31.292      c0.091-0.145,49.184,28.171,49.969,26.912c0,0-51.081-30.837-50.595-31.615c0.898-1.438,50.938,28.711,50.938,28.711      c0.371-0.594-51.011-29.396-49.897-31.179l50.616,26.695c0,0-50.607-30.801-50.238-31.392      c0.722-1.155,50.309,27.666,50.309,27.666c0.442-0.708-50.886-31.798-50.886-31.798c0.004-0.006,50.087,28.651,50.435,28.095      l-50.216-31.378c0.919-1.471,49.796,25.944,49.796,25.944s-73.68-45.056-73.238-45.764c1.553-2.486,73.282,42.135,73.282,42.135      s-73.061-45.401-72.947-45.582c0,0,73.363,44.145,74.536,42.268l-75.675-47.287c0.596-0.954,74.829,42.621,75.075,42.227      l-74.547-46.582c1.393-2.229,74.546,44.033,75.139,43.085c0,0-77.234-45.473-75.981-47.478      c0.946-1.514,75.727,42.211,75.727,42.211c0.754-1.207-72.146-45.081-72.146-45.081s70.488,42.462,71.391,41.018      c0,0-67.377-42.095-67.374-42.1l69.996,39.021l-61.884-38.669c0,0,68.104,39.427,68.517,38.767      c0.99-1.585-64.03-38.968-63.562-39.718l69.88,39.673c0.018-0.028-66.149-41.334-66.149-41.334s70.007,43.372,71.42,41.11      c0.079-0.126-72.677-43.904-71.998-44.99c0.851-1.362,78.758,46.088,78.758,46.088c0.29-0.464-79.48-47.166-78.357-48.963      c0,0,81.787,47.625,82.32,46.771c0,0-84.149-50.502-83.214-51.999l83.266,47.572c1.119-1.792-83.304-52.048-83.301-52.052      c1.313-2.101,82.031,50.35,83.733,47.625l-83.329-52.07c0.381-0.609,84.332,48.447,84.332,48.447l-82.689-51.67      c0,0,82.011,49.764,83.352,47.617c1.203-1.925-81.971-51.221-81.971-51.221l82.686,47.804      c0.286-0.458-30.896-18.501-30.533-19.08l30.173,15.378c0.267-0.426-24.198-15.121-24.198-15.121s25.766,12.382,26.276,11.564      l-18.675-11.669c0.051-0.081,18.173,7.004,18.173,7.004l-11.117-6.947c0.021-0.034,11.381,3.925,11.533,3.682      c0.079-0.127-4.606-2.856-4.597-2.872c0.07-0.112,5.204,0.024,5.204,0.024c0.01-0.015-0.408-0.255-0.408-0.255" style="fill:none;stroke:#262626;stroke-width:2;stroke-linecap:round;stroke-linejoin:round;"/></g></g></g></g><g id="Layer_1"/></svg>