<?xml version="1.0" ?><!DOCTYPE svg  PUBLIC '-//W3C//DTD SVG 1.1//EN'  'http://www.w3.org/Graphics/SVG/1.1/DTD/svg11.dtd'><svg height="512px" style="enable-background:new 0 0 512 512;" version="1.1" viewBox="0 0 512 512" width="512px" xml:space="preserve" xmlns="http://www.w3.org/2000/svg" xmlns:xlink="http://www.w3.org/1999/xlink"><g id="twitter__x2C__social__x2C__media__x2C__icons_x2C_"><g><g><g><path d="M117.224,374.4      c0,0-63.109-37.284-62.143-38.831c0.525-0.841,41.043,21.336,41.043,21.336c0.97-1.553-45.914-28.211-45.699-28.556      l34.688,17.39c0.24-0.383-39.178-24.481-39.178-24.481c0.106-0.17,29.885,13.521,29.885,13.521      c0.485-0.776-33.375-20.854-33.375-20.854s27.848,15.036,28.411,14.136c0.225-0.359-31.733-19.828-31.733-19.828      c0.045-0.072,27.219,13.876,27.591,13.28L36.74,302.783c0,0,26.066,13.504,26.224,13.253c0,0-26.857-16.02-26.514-16.568      c0.188-0.3,22.455,9.596,22.498,9.528c0.514-0.822-25.978-16.232-25.978-16.232s22.2,10.69,22.637,9.991      c0.093-0.149-22.87-14.288-22.868-14.29c0.361-0.577,20.789,9.225,20.789,9.225L31.47,283.907      c0.27-0.433,19.925,8.41,20.272,7.854c0,0-22.714-13.229-22.281-13.923c0.358-0.572,21.09,9.511,21.09,9.511      s-22.44-13.202-22.071-13.792c0.339-0.542,19.948,7.866,19.948,7.866l-20.115-12.568c0.097-0.155,19.614,8.525,19.633,8.494      L28.103,264.95l18.353,6.823l-19.18-11.985c0.126-0.202,18.75,7.384,18.861,7.206c0.118-0.189-19.308-11.291-18.96-11.848      c0.024-0.039,18.183,7.945,18.183,7.945s-18.831-11.28-18.612-11.63c0.029-0.047,17.7,6.358,17.7,6.358      c0.277-0.442-18.058-11.284-18.058-11.284c0.175-0.28,16.945,6.614,17.147,6.29c0.333-0.532-17.243-10.696-17.208-10.752      l17.521,7.874c0.196-0.313-17.819-10.745-17.644-11.025l17.304,7.596c0,0-16.91-10.44-16.854-10.531      c0,0,17.695,8.15,17.854,7.896c0,0-18.454-10.872-18.158-11.346c0,0,17.396,7.367,17.406,7.352      c0.263-0.42-15.861-9.911-15.861-9.911c0.065-0.104,15.76,6.329,16.029,5.898l-16.019-10.01      c0.034-0.055,15.809,5.264,15.982,4.987l-15.044-9.401c0.163-0.26,15.942,5.197,15.942,5.197l-16.109-10.066l16.937,7.29      c0.174-0.278-15.491-9.68-15.491-9.68l16.038,4.957c0,0-15.117-9.121-14.971-9.355l16.421,6.161c0,0-15.232-9.33-15.147-9.465      c0,0,15.466,5.181,15.632,4.916c0,0-15.523-9.104-15.255-9.533c0.125-0.2,16.947,6.175,16.947,6.175l-15.999-9.998      c0.09-0.144,16.78,6.365,16.78,6.365l-15.312-9.568l16.932,5.49c0.008-0.013-15.118-8.881-14.864-9.288      c0.234-0.375,14.772,5.749,14.772,5.749s-14.568-8.514-14.304-8.938c0.255-0.408,16.238,6.773,16.238,6.773      c0.121-0.193-15.462-9.449-15.367-9.603c0.254-0.406,16.466,6.968,16.466,6.968l-14.36-8.973      c0.18-0.288,14.272,4.908,14.272,4.908s-13.177-8.21-13.167-8.228l15.198,4.355l-13.347-8.34      c0.183-0.292,15.029,6.269,15.321,5.801c0,0-15.092-8.775-14.798-9.247l16.76,6.479c0.005-0.008-13.851-8.573-13.814-8.632      l14.609,5.093l-12.772-7.981c0.171-0.274,14.723,4.409,14.723,4.409s-13.836-8.02-13.555-8.47c0,0,15.832,6.409,16.092,5.991      c0.02-0.031-14.83-8.94-14.683-9.175l15,5.084l-12.636-7.896c0.203-0.324,14.478,4.883,14.594,4.698      c0.172-0.276-13.437-8.118-13.312-8.318c0.116-0.185,16.444,5.891,16.586,5.663c0.082-0.131-12.762-7.975-12.762-7.975      s14.342,4.444,14.578,4.066l-13.522-8.45c0.081-0.129,14.653,6.042,14.653,6.042c0.243-0.389-13.272-7.668-12.991-8.118      c0,0,15.998,6.985,16.171,6.708l-14.704-9.188c0.036-0.058,15.668,5.346,15.668,5.346c0.01-0.016-13.468-7.888-13.231-8.268      c0.06-0.096,16.669,5.741,16.832,5.481l-12.669-7.917l13.796,5.515c0,0-12.971-7.622-12.754-7.97      c0.229-0.366,14.969,5.693,14.969,5.693c0.088-0.142-13.06-8.16-13.06-8.16l15.419,4.719c0.153-0.245-12.057-7.202-11.907-7.441      c0.153-0.245,15.438,5.387,15.724,4.928c0.244-0.39-14.254-8.907-14.254-8.907l15.937,5.75      c0.075-0.119-12.686-7.927-12.686-7.927c0.058-0.093,15.036,5.588,15.036,5.588c0.044-0.07-13.664-8.15-13.489-8.429      c0.053-0.086,16.039,5.273,16.039,5.273c0.292-0.468-13.333-8.332-13.333-8.332l15.684,6.311      c0.18-0.288-12.743-7.963-12.743-7.963c0.01-0.017,16.311,6.35,16.311,6.35c0.025-0.04-13.604-8.125-13.436-8.396l14.88,4.579      l-12.602-7.875c0,0,15.63,5.688,15.835,5.359c0.2-0.32-11.966-7.477-11.966-7.477l15.09,5.801      c0.086-0.138-12.888-7.582-12.676-7.92c0.107-0.171,14.435,5.27,14.435,5.27l-12.602-7.874      c0.097-0.155,16.192,6.533,16.203,6.515c0.126-0.202-13.066-8.165-13.066-8.165s14.738,5.993,14.891,5.749      c0,0-13.926-8.161-13.683-8.55c0.237-0.379,16.629,6.018,16.883,5.612c0.274-0.438-13.546-7.87-13.279-8.298l15.927,6.566      c0.21-0.336-12.073-7.544-12.073-7.544l16.292,5.436c0,0-14.671-8.657-14.441-9.024c0.206-0.33,17.589,6.596,17.618,6.548      c0.302-0.483-13.149-8.216-13.149-8.216c0.141-0.225,15.779,6.958,16.088,6.463l-12.924-8.076      c0.06-0.096,15.268,6.244,15.274,6.235c0.045-0.072-13.273-7.689-13.001-8.125c0,0,16.167,6.133,16.488,5.619      c0.204-0.327-13.461-8.108-13.325-8.327c0.238-0.38,17.872,6.947,17.872,6.947s-14.908-8.868-14.707-9.19      c0.048-0.076,18.178,7.026,18.512,6.492c0.075-0.12-14.697-9.184-14.697-9.184c0.322-0.516,17.791,6.322,17.791,6.322      s-13.217-7.791-13.006-8.127c0.068-0.108,17.793,7.167,18.008,6.823c0.084-0.135-15.251-9.165-15.087-9.428      c0,0,17.25,7.01,17.252,7.007l-13.781-8.611l18.994,7.661l-15.889-9.929c0.3-0.48,18.883,8.137,18.883,8.137l-14.007-8.752      c0,0,17.3,6.79,17.373,6.673l-14.319-8.947c0,0,18.101,7.647,18.284,7.354l-15.514-9.694c0.109-0.175,19.525,7.914,19.525,7.914      s-14.454-8.44-14.188-8.866c0.323-0.517,19.017,7.695,19.33,7.194c0.245-0.393-14.594-9.12-14.594-9.12      c0.189-0.302,17.207,7.995,17.476,7.564c0.16-0.256-15.102-8.994-14.903-9.312c0,0,19.232,8.315,19.36,8.112      c0.268-0.428-15.416-9.633-15.416-9.633c0.147-0.235,19.352,7.949,19.352,7.949l-14.611-9.129l20.511,7.828l-15.464-9.664      c0.283-0.453,19.958,8.516,20.006,8.437c0.366-0.585-16.199-10.123-16.199-10.123l20.016,8.671l-15.83-9.892l21.073,9.346      c0,0-17.61-10.292-17.291-10.804c0,0,23.05,9.954,23.266,9.608c0,0-17.845-11.099-17.821-11.136l23.056,9.81l-18.19-11.366      c0.386-0.618,24.127,10.92,24.303,10.64c0.216-0.346-18.707-10.895-18.35-11.466c0.259-0.414,23.72,10.581,23.72,10.581      l-19.244-12.024c0,0,25.041,11.639,25.351,11.143c0.131-0.21-18.771-11.729-18.771-11.729s25.273,11.934,25.534,11.516      L229.736,44.02c0.512-0.82,26.864,13.712,27.311,12.996c0.448-0.717-21.499-12.918-21.267-13.289      c0.534-0.855,28.35,13.339,28.601,12.938c0.234-0.376-22.683-14.174-22.683-14.174l29.274,14.189      c0.361-0.579-23.783-14.861-23.783-14.861s27.436,15.127,27.95,14.304c0.185-0.294-23.15-14.39-23.116-14.444      c0.493-0.788,31.148,15.032,31.148,15.032c0.317-0.508-24.937-14.983-24.668-15.414c0,0,33.107,16.387,33.391,15.933      l-25.162-15.723c0.527-0.844,32.136,17.476,32.527,16.85c0.114-0.183-28.82-17.487-28.586-17.862c0,0,36.054,19.701,36.61,18.81      c0,0-30.123-18.161-29.825-18.637c0,0,38.4,21.141,38.66,20.725c0,0-33.074-19.778-32.675-20.417      c0,0,42.723,23.479,43.308,22.542c0,0-34.53-21.427-34.463-21.534c0.352-0.562,45.33,25.111,45.35,25.081      c0.038-0.062-39.968-24.975-39.968-24.975c1.252-2.003,59.471,32.22,59.471,32.22c0.105-0.169-49.179-29.884-48.799-30.493" style="fill:none;stroke:#231F20;stroke-width:2;stroke-linecap:round;stroke-linejoin:round;"/><path d="M134.494,403.432      l-26.743-16.711l53.731,29.715l-76.844-48.018c1.684-2.694,93.523,54.304,93.523,54.304      c1.373-2.198-106.296-63.667-105.059-65.647c0,0,119.823,74.325,121.704,71.314c0,0-132.979-78.161-130.762-81.709      l142.646,84.866c0.515-0.824-149.433-93.376-149.433-93.376s158.249,99.596,160.813,95.493c0,0-48.982-28.517-48.042-30.021      c0.239-0.383,59.372,33.999,60.189,32.691c0.835-1.337-39.995-24.992-39.995-24.992c0.829-1.327,47.598,27.593,48.447,26.234      l-36.891-23.053l43.486,23.475c0.264-0.422-33.405-19.676-32.867-20.537c0,0,41.962,22.077,42.283,21.564l-30.962-19.348      c0,0,39.376,20.405,39.696,19.893c0.229-0.365-28.789-17.445-28.544-17.837l35.437,18.385      c0.603-0.965-27.921-17.447-27.921-17.447s34.143,17.985,34.325,17.694l-27.273-17.042c0,0,34.748,17.368,34.795,17.293      c0,0-26.821-16.587-26.744-16.711l33.032,15.98c0.022-0.036-24.671-14.449-24.236-15.145      c0.121-0.194,28.422,14.956,28.784,14.376l-22.026-13.764c0.225-0.36,29.718,14.197,29.828,14.02      c0.375-0.599-23.412-14.63-23.412-14.63c0.368-0.59,28.406,13.764,28.406,13.764c0.273-0.438-22.113-13.818-22.113-13.818      s28.07,13.744,28.578,12.932c0,0-22.09-13.448-21.93-13.703c0.251-0.403,24.526,13.389,25.038,12.569l-19.997-12.495      c0.44-0.704,25.276,12.778,25.604,12.253l-20.751-12.968c0.178-0.285,25.303,11.661,25.478,11.382      c0,0-20.283-12.031-19.994-12.494c0,0,25.563,12.355,25.609,12.28c0.321-0.515-20.598-12.719-20.528-12.828l26.063,11.566      c0.307-0.49-20.029-11.879-19.743-12.337c0.45-0.721,22.534,10.188,22.534,10.188c0.094-0.149-19.261-11.284-18.923-11.824      c0,0,23.016,11.536,23.211,11.224l-19.237-12.021l23.759,9.957c0.218-0.349-18.688-10.811-18.299-11.434l22.528,9.823      c0.373-0.597-16.735-10.458-16.735-10.458c0.226-0.361,21.518,9.637,21.94,8.96c0,0-16.975-10.108-16.75-10.467      c0.112-0.181,20.471,9.394,20.471,9.394s-18.222-10.831-17.972-11.23c0,0,20.357,10.004,20.616,9.59      c0,0-16.491-9.669-16.206-10.126l21.251,8.456c0.013-0.019-16.374-10.231-16.374-10.231c0.058-0.091,19.979,8.575,20.151,8.299      c0.336-0.538-16.532-10.33-16.532-10.33l19.12,8.558c0,0-15.906-9.388-15.658-9.784c0,0,18.865,8.43,19.163,7.953      c0.175-0.28-15.687-9.492-15.547-9.715c0,0,20.233,8.339,20.503,7.907c0.237-0.381-16.322-9.382-15.955-9.97      c0.361-0.579,20.432,8.311,20.699,7.883c0.305-0.487-15.882-9.925-15.882-9.925s19.119,8.433,19.252,8.219l-17.112-10.693      c0.313-0.502,20.392,8.819,20.661,8.389c0.01-0.017-16.876-10.545-16.876-10.545c0.229-0.367,18.518,8.648,18.854,8.11      c0,0-16.655-9.822-16.393-10.243c0.089-0.141,20.272,7.904,20.272,7.904c0.161-0.259-15.64-9.772-15.64-9.772l19.263,7.339      l-15.798-9.872l17.851,7.717l-15.606-9.752c0.211-0.337,18.698,6.659,18.698,6.659l-14.905-9.314      c0.35-0.56,18.56,7.171,18.747,6.871c0.077-0.123-15.118-9.446-15.118-9.446c0.37-0.591,19.034,7.791,19.034,7.791      c0.322-0.516-16.604-10.255-16.55-10.342c0,0,16.93,7.89,17.204,7.45c0,0-14.308-8.382-14.057-8.783      c0.165-0.264,17.964,7.086,18.237,6.647l-14.69-9.18l16.452,6.944c0,0-14.574-8.963-14.51-9.066      c0.288-0.461,18.171,6.385,18.171,6.385c0.036-0.058-16.2-10.123-16.2-10.123l19.019,6.852      c0.052-0.082-15.778-9.597-15.66-9.785l17.766,7.58l-15.041-9.398c0,0,16.351,6.741,16.458,6.57l-14.049-8.779      c0,0,16.486,6.068,16.685,5.752c0,0-15.371-8.988-15.094-9.432c0.217-0.347,16.677,7.106,16.923,6.713      c0.206-0.329-14.692-9.181-14.692-9.181c0.259-0.414,18.651,6.889,18.651,6.889c0.327-0.523-15.62-9.124-15.334-9.582      l16.758,6.43c0.141-0.224-15.724-9.333-15.502-9.688c0.029-0.048,18.341,7.29,18.341,7.29      c0.274-0.439-16.373-9.775-16.168-10.103c0,0,16.629,7.285,16.906,6.842c0.254-0.407-14.099-8.81-14.099-8.81l16.87,6.521      c0.086-0.139-14.478-9.046-14.478-9.046c0.096-0.152,15.945,5.726,15.945,5.726s-15.148-8.806-14.853-9.28      c0,0,16.425,6.105,16.683,5.693l-14.668-9.166c0.099-0.159,17.393,6.721,17.564,6.445l-15.648-9.778      c0.152-0.245,17.646,5.849,17.646,5.849l-15.694-9.807c0.135-0.217,16.908,6.449,17.059,6.209c0,0-14.65-8.76-14.474-9.043      c0.308-0.493,16.398,7.249,16.72,6.734c0.063-0.1-15.905-9.337-15.635-9.77c0,0,16.137,5.183,16.137,5.182      c0,0-14.298-8.508-14.105-8.814c0,0,16.159,6.199,16.433,5.762c0.216-0.345-14.84-9.245-14.827-9.265      c0,0,17.188,6.391,17.339,6.151c0.312-0.5-16.328-10.175-16.315-10.195c0,0,16.331,6.371,16.43,6.213      c0,0-15.402-8.905-15.08-9.422c0.081-0.129,16.272,6.051,16.41,5.83l-13.937-8.708c0.01-0.017,15.19,6.223,15.19,6.223      c0.259-0.413-14.192-8.868-14.192-8.868l16.211,5.967c0,0-15.635-9.673-15.592-9.743c0,0,16.306,6.28,16.513,5.948      c0,0-15.521-9.572-15.465-9.663c0.206-0.33,15.543,6.299,15.55,6.289c0.038-0.063-15.378-9.609-15.378-9.609      s17.115,6.143,17.186,6.03c0.317-0.51-15.043-8.754-14.753-9.219l15.436,5.446l-15.108-9.441      c0.004-0.006,16.583,6.932,16.583,6.932s-15.21-9.204-15.075-9.42l14.955,5.812c0.312-0.498-15.425-9.117-15.19-9.492      c0.195-0.313,17.121,7.558,17.121,7.558l-16.017-10.008c0.135-0.217,15.571,5.746,15.831,5.33      c0.262-0.418-14.722-9.199-14.722-9.199l16.336,5.208c0,0-16.186-10.064-16.163-10.101c0.295-0.472,16.734,6.02,16.887,5.774      l-17.371-10.854l18.192,7.663c0,0-17.958-10.67-17.71-11.066c0.113-0.182,17.361,7.917,17.609,7.52l-16.34-10.211      c0,0,17.246,7.175,17.322,7.052c0.007-0.011-16.501-10.311-16.501-10.311c0.146-0.235,16.087,5.956,16.342,5.548l-16.243-10.15      l15.757,5.707c0,0-16.99-10.503-16.939-10.585l17.999,7.207c0,0-17.404-10.545-17.256-10.783c0,0,17.738,7.302,17.912,7.024      c0,0-17.68-10.299-17.344-10.837c0,0,15.93,6.754,16.071,6.526c0.069-0.11-17.112-10.45-17.003-10.625      c0,0,17.394,6.881,17.697,6.396l-17.82-11.135c0.246-0.394,17.245,7.705,17.245,7.705c0.146-0.235-17.164-10.465-17.047-10.652      c0,0,16.532,6.516,16.57,6.455c0,0-18.589-11.24-18.42-11.51l19.321,7.61c0.3-0.479-19.633-12.269-19.633-12.269      s18.217,7.012,18.48,6.589l-19.626-12.264c0,0,19.674,9.611,20.077,8.966c0.339-0.542-20.95-12.193-20.547-12.839l19.934,7.749      l-20.955-13.095c0.297-0.475,19.471,8.441,19.555,8.306c0.22-0.351-19.914-12.444-19.914-12.444      c0.157-0.252,19.82,8.976,19.82,8.976c0.136-0.216-21.028-13.141-21.028-13.141c0.29-0.465,18.619,9.013,18.998,8.407      L460.16,188.34c0.302-0.482,20.005,10.029,20.408,9.383c0,0-21.957-13.509-21.862-13.661l20.956,9.754l-22.537-14.083      c0.245-0.392,22.042,9.515,22.042,9.515s-23.38-14.257-23.222-14.511c0.163-0.262,21.199,10.161,21.421,9.804l-24.824-15.512      c0.117-0.188,22.156,9.995,22.315,9.742c0.245-0.394-24.673-15.417-24.673-15.417l24.161,10.845c0,0-27.68-16.692-27.408-17.127      c0.024-0.038,24.225,11.873,24.225,11.873l-27.099-16.933c0,0,24.357,11.179,24.799,10.472      c0.282-0.452-30.354-17.607-29.743-18.585c0.439-0.702,27.207,13.021,27.207,13.021s-31.438-18.692-31.011-19.377      c0,0,26.814,13.042,27.15,12.504c0.031-0.05-33.891-21.177-33.891-21.177l30.944,15.098c0,0-39.606-24.681-39.576-24.73      c0.224-0.357,34.579,18.115,35.104,17.275l-47.964-29.971c0.828-1.325,45.123,25.308,45.291,25.04L313.218,44.628      c0,0,131.513,82.307,133.45,79.207c2.669-4.272-124.8-77.984-124.8-77.984l120.512,72.232      c0.951-1.521-112.189-69.789-112.048-70.015c0.578-0.925,103.13,64.046,104.445,61.941c0.934-1.494-94.402-58.989-94.402-58.989      c0.927-1.484,86.064,50.215,86.064,50.215c1.634-2.615-75.067-46.908-75.067-46.908c0.693-1.109,61.25,34.267,61.254,34.261      l-40.989-25.613" style="fill:none;stroke:#231F20;stroke-width:2;stroke-linecap:round;stroke-linejoin:round;"/><path d="M348.424,186.04      c0.33-0.529-42.737-26.706-42.737-26.706c0.518-0.828,44.685,25.166,45.037,24.602l-38.257-23.905l43.308,22.328      c0,0-27.66-16.034-27.099-16.933l29.06,13.871c0.246-0.394-12.19-7.617-12.19-7.617s14.695,5.693,14.827,5.482      c0.206-0.329-9.444-5.661-9.337-5.834c0.141-0.224,13.404,3.505,13.509,3.338c0,0-8.119-4.943-8.061-5.037l9.577,1.841      c0.127-0.202-5.188-3.171-5.156-3.222l6.501,0.184c0,0-3.42-2.05-3.381-2.112c0,0,4.786-0.277,4.845-0.37l-1.897-1.186" style="fill:none;stroke:#231F20;stroke-width:2;stroke-linecap:round;stroke-linejoin:round;"/><path d="M158.973,177.299      c0.103-0.165-6.712-4.17-6.702-4.188" style="fill:none;stroke:#231F20;stroke-width:2;stroke-linecap:round;stroke-linejoin:round;"/><path d="M172.588,253.525      c0.218-0.349-10.352-6.262-10.26-6.411c0,0,23.114,10.878,23.542,10.195c0.288-0.462-32.046-20.025-32.046-20.025" style="fill:none;stroke:#231F20;stroke-width:2;stroke-linecap:round;stroke-linejoin:round;"/><path d="M187.241,280.66      c0,0-10.843-6.388-10.668-6.666c0.317-0.507,25.349,11.528,25.349,11.528c0.711-1.138-33.786-20.761-33.628-21.013      l41.669,21.752c0.262-0.42-42.824-26.76-42.824-26.76" style="fill:none;stroke:#231F20;stroke-width:2;stroke-linecap:round;stroke-linejoin:round;"/><path d="M143.817,306.113      l-1.448-0.904l17.576,7.122l-12.072-7.543c0.4-0.641,23.444,10.513,23.444,10.513c0.23-0.369-17.133-10.243-16.925-10.576      c0,0,28.846,14.249,29.276,13.561c0,0-22.62-13.287-22.239-13.896l31.179,15.214c0.089-0.144-25.927-16.2-25.927-16.2      s33.77,17.267,34.291,16.433c0,0-29.207-16.99-28.641-17.896c0.147-0.236,37.43,19.594,37.936,18.785      c0.663-1.062-31.667-19.788-31.667-19.788c0.646-1.032,37.387,20.792,38.048,19.735l-34.563-21.598l39.631,21.066      c0.281-0.45-35.678-21.017-35.104-21.936c0,0,41.909,22.043,42.228,21.531l-37.816-23.63c0,0,44.359,23.613,44.723,23.031      c0.315-0.505-40.104-24.307-39.766-24.848l45.188,24.478c0.909-1.455-42.108-26.313-42.108-26.313s46.913,26.124,47.166,25.719      l-44.023-27.509c0,0,49.874,26.868,49.942,26.759c0,0-46.57-28.795-46.433-29.015l51.062,27.247      c0.043-0.068-47.495-27.828-46.664-29.158c0.216-0.345,49.398,28.691,50.043,27.66l-85.834-53.636      c0.725-1.16,91.709,53.481,92.066,52.91c1.398-2.237-86.478-54.037-86.478-54.037c1.219-1.95,90.224,52.391,90.224,52.391      c1.036-1.659-84.963-53.091-84.963-53.091s88.128,53.866,89.802,51.188c0,0-124.876-76.014-123.97-77.465      c1.321-2.114,123.435,80.034,126.122,75.734l-126.234-78.88c2.358-3.773,128.958,80.757,130.721,77.937L150.162,225.07      c0.999-1.599,133.7,81.186,134.679,79.618c0,0-135.648-80.55-133.755-83.579c0,0,138.058,83.142,138.326,82.713      c2.048-3.278-128.652-79.42-128.216-80.118l132.217,77.898c1.92-3.071-125.316-74.317-123.523-77.186      c2.65-4.242,125.218,74.353,125.218,74.353c0.694-1.111-144.766-84.906-142.27-88.9c0,0,144.24,89.718,145.529,87.656      l-148.674-92.902l151.734,89.925c1.802-2.884-157.405-91.196-154.187-96.347l157.109,93.919      c3.205-5.129-156.682-97.905-156.682-97.905c1.779-2.847,157.089,100.834,160.426,95.494c0,0-162.335-96.999-160.34-100.191      c0.955-1.527,163.068,98.498,163.068,98.498s-165.882-98.6-163.61-102.234c0,0,163.051,103.482,165.248,99.966      c0,0-166.166-97.928-163.512-102.174l167.091,99.588c0.116-0.186-165.693-103.537-165.693-103.537      c0.514-0.821,166.61,103.268,168.161,100.786c3.257-5.211-167.12-104.428-167.12-104.428l168.676,102.01      c0,0-140.825-83.493-138.801-86.732c0,0,138.676,87.88,141.034,84.106c1.256-2.01-121.877-73.935-120.879-75.533      c0,0,122.567,75.622,124.337,72.789c1.552-2.483-111.523-64.339-109.12-68.185c2.118-3.389,110.682,67.594,112.249,65.089      c1.83-2.93-99.536-62.197-99.536-62.197s100.943,60.938,101.695,59.734l-94.726-59.191c1.577-2.523,95.532,58.177,96.883,56.017      c0.055-0.089-88.115-55.061-88.115-55.061c1.149-1.839,87.114,54.508,88.797,51.815c0,0-84.059-49.566-82.729-51.695      c0.395-0.632,85.095,48.411,85.095,48.411c0.827-1.323-82.124-51.317-82.124-51.317l84.15,47.886l-84.883-53.041l85.692,50.108      l-85.857-53.649c1.064-1.704,87.307,49.53,87.307,49.53l-86.574-54.098c1.786-2.859,87.67,52.066,88.626,50.537      c0.43-0.688-87.27-54.532-87.27-54.532c1.864-2.982,89.743,51.975,89.743,51.975c1.803-2.886-89.126-55.016-88.822-55.502      c0,0,86.729,54.23,88.229,51.83c0,0-87.525-51.545-86.111-53.808c0.863-1.381,87.058,52.854,88.496,50.551l-85.918-53.688      l86.347,50.619c0,0-85.252-52.476-84.895-53.048c1.489-2.383,86.657,49.181,86.657,49.181      c0.198-0.317-85.072-53.159-85.072-53.159l85.774,48.565c0.275-0.441-82.877-50.389-82.248-51.395l82.863,48.258l-79.735-49.824      c0,0,78.991,46.879,79.546,45.992l-76.509-47.808c0,0,75.984,45.009,76.974,43.426c0,0-75.489-44.172-74.142-46.329      c1.018-1.629,72.92,44.269,74.073,42.423c0.958-1.533-70.501-44.054-70.501-44.054c1.075-1.719,72.148,40.318,72.148,40.318      c1.433-2.292-67.877-39.625-66.623-41.631l68.247,38.604c0.592-0.947-65.511-38.853-64.574-40.351      c0.119-0.19,68.539,38.657,68.539,38.657c1.128-1.805-64.187-38.238-63.347-39.583c0,0,63.975,38.786,65.113,36.964      c1.009-1.614-58.901-36.806-58.901-36.806l62.652,35.13c0.073-0.116-12.002-7.5-12.002-7.5      c0.085-0.137,14.421,4.772,14.421,4.772s-9.69-5.628-9.499-5.936c0,0,12.123,3.257,12.309,2.96l-6.323-3.951      c0.054-0.087,10.03,1.949,10.125,1.797l-4.712-2.945c0.062-0.099,7.504-0.488,7.504-0.488l-1.896-1.185" style="fill:none;stroke:#231F20;stroke-width:2;stroke-linecap:round;stroke-linejoin:round;"/></g><g><path d="M117.224,374.4      c0,0-63.109-37.284-62.143-38.831c0.525-0.841,41.043,21.336,41.043,21.336c0.97-1.553-45.914-28.211-45.699-28.556      l34.688,17.39c0.24-0.383-39.178-24.481-39.178-24.481c0.106-0.17,29.885,13.521,29.885,13.521      c0.485-0.776-33.375-20.854-33.375-20.854s27.848,15.036,28.411,14.136c0.225-0.359-31.733-19.828-31.733-19.828      c0.045-0.072,27.219,13.876,27.591,13.28L36.74,302.783c0,0,26.066,13.504,26.224,13.253c0,0-26.857-16.02-26.514-16.568      c0.188-0.3,22.455,9.596,22.498,9.528c0.514-0.822-25.978-16.232-25.978-16.232s22.2,10.69,22.637,9.991      c0.093-0.149-22.87-14.288-22.868-14.29c0.361-0.577,20.789,9.225,20.789,9.225L31.47,283.907      c0.27-0.433,19.925,8.41,20.272,7.854c0,0-22.714-13.229-22.281-13.923c0.358-0.572,21.09,9.511,21.09,9.511      s-22.44-13.202-22.071-13.792c0.339-0.542,19.948,7.866,19.948,7.866l-20.115-12.568c0.097-0.155,19.614,8.525,19.633,8.494      L28.103,264.95l18.353,6.823l-19.18-11.985c0.126-0.202,18.75,7.384,18.861,7.206c0.118-0.189-19.308-11.291-18.96-11.848      c0.024-0.039,18.183,7.945,18.183,7.945s-18.831-11.28-18.612-11.63c0.029-0.047,17.7,6.358,17.7,6.358      c0.277-0.442-18.058-11.284-18.058-11.284c0.175-0.28,16.945,6.614,17.147,6.29c0.333-0.532-17.243-10.696-17.208-10.752      l17.521,7.874c0.196-0.313-17.819-10.745-17.644-11.025l17.304,7.596c0,0-16.91-10.44-16.854-10.531      c0,0,17.695,8.15,17.854,7.896c0,0-18.454-10.872-18.158-11.346c0,0,17.396,7.367,17.406,7.352      c0.263-0.42-15.861-9.911-15.861-9.911c0.065-0.104,15.76,6.329,16.029,5.898l-16.019-10.01      c0.034-0.055,15.809,5.264,15.982,4.987l-15.044-9.401c0.163-0.26,15.942,5.197,15.942,5.197l-16.109-10.066l16.937,7.29      c0.174-0.278-15.491-9.68-15.491-9.68l16.038,4.957c0,0-15.117-9.121-14.971-9.355l16.421,6.161c0,0-15.232-9.33-15.147-9.465      c0,0,15.466,5.181,15.632,4.916c0,0-15.523-9.104-15.255-9.533c0.125-0.2,16.947,6.175,16.947,6.175l-15.999-9.998      c0.09-0.144,16.78,6.365,16.78,6.365l-15.312-9.568l16.932,5.49c0.008-0.013-15.118-8.881-14.864-9.288      c0.234-0.375,14.772,5.749,14.772,5.749s-14.568-8.514-14.304-8.938c0.255-0.408,16.238,6.773,16.238,6.773      c0.121-0.193-15.462-9.449-15.367-9.603c0.254-0.406,16.466,6.968,16.466,6.968l-14.36-8.973      c0.18-0.288,14.272,4.908,14.272,4.908s-13.177-8.21-13.167-8.228l15.198,4.355l-13.347-8.34      c0.183-0.292,15.029,6.269,15.321,5.801c0,0-15.092-8.775-14.798-9.247l16.76,6.479c0.005-0.008-13.851-8.573-13.814-8.632      l14.609,5.093l-12.772-7.981c0.171-0.274,14.723,4.409,14.723,4.409s-13.836-8.02-13.555-8.47c0,0,15.832,6.409,16.092,5.991      c0.02-0.031-14.83-8.94-14.683-9.175l15,5.084l-12.636-7.896c0.203-0.324,14.478,4.883,14.594,4.698      c0.172-0.276-13.437-8.118-13.312-8.318c0.116-0.185,16.444,5.891,16.586,5.663c0.082-0.131-12.762-7.975-12.762-7.975      s14.342,4.444,14.578,4.066l-13.522-8.45c0.081-0.129,14.653,6.042,14.653,6.042c0.243-0.389-13.272-7.668-12.991-8.118      c0,0,15.998,6.985,16.171,6.708l-14.704-9.188c0.036-0.058,15.668,5.346,15.668,5.346c0.01-0.016-13.468-7.888-13.231-8.268      c0.06-0.096,16.669,5.741,16.832,5.481l-12.669-7.917l13.796,5.515c0,0-12.971-7.622-12.754-7.97      c0.229-0.366,14.969,5.693,14.969,5.693c0.088-0.142-13.06-8.16-13.06-8.16l15.419,4.719c0.153-0.245-12.057-7.202-11.907-7.441      c0.153-0.245,15.438,5.387,15.724,4.928c0.244-0.39-14.254-8.907-14.254-8.907l15.937,5.75      c0.075-0.119-12.686-7.927-12.686-7.927c0.058-0.093,15.036,5.588,15.036,5.588c0.044-0.07-13.664-8.15-13.489-8.429      c0.053-0.086,16.039,5.273,16.039,5.273c0.292-0.468-13.333-8.332-13.333-8.332l15.684,6.311      c0.18-0.288-12.743-7.963-12.743-7.963c0.01-0.017,16.311,6.35,16.311,6.35c0.025-0.04-13.604-8.125-13.436-8.396l14.88,4.579      l-12.602-7.875c0,0,15.63,5.688,15.835,5.359c0.2-0.32-11.966-7.477-11.966-7.477l15.09,5.801      c0.086-0.138-12.888-7.582-12.676-7.92c0.107-0.171,14.435,5.27,14.435,5.27l-12.602-7.874      c0.097-0.155,16.192,6.533,16.203,6.515c0.126-0.202-13.066-8.165-13.066-8.165s14.738,5.993,14.891,5.749      c0,0-13.926-8.161-13.683-8.55c0.237-0.379,16.629,6.018,16.883,5.612c0.274-0.438-13.546-7.87-13.279-8.298l15.927,6.566      c0.21-0.336-12.073-7.544-12.073-7.544l16.292,5.436c0,0-14.671-8.657-14.441-9.024c0.206-0.33,17.589,6.596,17.618,6.548      c0.302-0.483-13.149-8.216-13.149-8.216c0.141-0.225,15.779,6.958,16.088,6.463l-12.924-8.076      c0.06-0.096,15.268,6.244,15.274,6.235c0.045-0.072-13.273-7.689-13.001-8.125c0,0,16.167,6.133,16.488,5.619      c0.204-0.327-13.461-8.108-13.325-8.327c0.238-0.38,17.872,6.947,17.872,6.947s-14.908-8.868-14.707-9.19      c0.048-0.076,18.178,7.026,18.512,6.492c0.075-0.12-14.697-9.184-14.697-9.184c0.322-0.516,17.791,6.322,17.791,6.322      s-13.217-7.791-13.006-8.127c0.068-0.108,17.793,7.167,18.008,6.823c0.084-0.135-15.251-9.165-15.087-9.428      c0,0,17.25,7.01,17.252,7.007l-13.781-8.611l18.994,7.661l-15.889-9.929c0.3-0.48,18.883,8.137,18.883,8.137l-14.007-8.752      c0,0,17.3,6.79,17.373,6.673l-14.319-8.947c0,0,18.101,7.647,18.284,7.354l-15.514-9.694c0.109-0.175,19.525,7.914,19.525,7.914      s-14.454-8.44-14.188-8.866c0.323-0.517,19.017,7.695,19.33,7.194c0.245-0.393-14.594-9.12-14.594-9.12      c0.189-0.302,17.207,7.995,17.476,7.564c0.16-0.256-15.102-8.994-14.903-9.312c0,0,19.232,8.315,19.36,8.112      c0.268-0.428-15.416-9.633-15.416-9.633c0.147-0.235,19.352,7.949,19.352,7.949l-14.611-9.129l20.511,7.828l-15.464-9.664      c0.283-0.453,19.958,8.516,20.006,8.437c0.366-0.585-16.199-10.123-16.199-10.123l20.016,8.671l-15.83-9.892l21.073,9.346      c0,0-17.61-10.292-17.291-10.804c0,0,23.05,9.954,23.266,9.608c0,0-17.845-11.099-17.821-11.136l23.056,9.81l-18.19-11.366      c0.386-0.618,24.127,10.92,24.303,10.64c0.216-0.346-18.707-10.895-18.35-11.466c0.259-0.414,23.72,10.581,23.72,10.581      l-19.244-12.024c0,0,25.041,11.639,25.351,11.143c0.131-0.21-18.771-11.729-18.771-11.729s25.273,11.934,25.534,11.516      L229.736,44.02c0.512-0.82,26.864,13.712,27.311,12.996c0.448-0.717-21.499-12.918-21.267-13.289      c0.534-0.855,28.35,13.339,28.601,12.938c0.234-0.376-22.683-14.174-22.683-14.174l29.274,14.189      c0.361-0.579-23.783-14.861-23.783-14.861s27.436,15.127,27.95,14.304c0.185-0.294-23.15-14.39-23.116-14.444      c0.493-0.788,31.148,15.032,31.148,15.032c0.317-0.508-24.937-14.983-24.668-15.414c0,0,33.107,16.387,33.391,15.933      l-25.162-15.723c0.527-0.844,32.136,17.476,32.527,16.85c0.114-0.183-28.82-17.487-28.586-17.862c0,0,36.054,19.701,36.61,18.81      c0,0-30.123-18.161-29.825-18.637c0,0,38.4,21.141,38.66,20.725c0,0-33.074-19.778-32.675-20.417      c0,0,42.723,23.479,43.308,22.542c0,0-34.53-21.427-34.463-21.534c0.352-0.562,45.33,25.111,45.35,25.081      c0.038-0.062-39.968-24.975-39.968-24.975c1.252-2.003,59.471,32.22,59.471,32.22c0.105-0.169-49.179-29.884-48.799-30.493" style="fill:none;stroke:#262626;stroke-width:2;stroke-linecap:round;stroke-linejoin:round;"/><path d="M134.494,403.432      l-26.743-16.711l53.731,29.715l-76.844-48.018c1.684-2.694,93.523,54.304,93.523,54.304      c1.373-2.198-106.296-63.667-105.059-65.647c0,0,119.823,74.325,121.704,71.314c0,0-132.979-78.161-130.762-81.709      l142.646,84.866c0.515-0.824-149.433-93.376-149.433-93.376s158.249,99.596,160.813,95.493c0,0-48.982-28.517-48.042-30.021      c0.239-0.383,59.372,33.999,60.189,32.691c0.835-1.337-39.995-24.992-39.995-24.992c0.829-1.327,47.598,27.593,48.447,26.234      l-36.891-23.053l43.486,23.475c0.264-0.422-33.405-19.676-32.867-20.537c0,0,41.962,22.077,42.283,21.564l-30.962-19.348      c0,0,39.376,20.405,39.696,19.893c0.229-0.365-28.789-17.445-28.544-17.837l35.437,18.385      c0.603-0.965-27.921-17.447-27.921-17.447s34.143,17.985,34.325,17.694l-27.273-17.042c0,0,34.748,17.368,34.795,17.293      c0,0-26.821-16.587-26.744-16.711l33.032,15.98c0.022-0.036-24.671-14.449-24.236-15.145      c0.121-0.194,28.422,14.956,28.784,14.376l-22.026-13.764c0.225-0.36,29.718,14.197,29.828,14.02      c0.375-0.599-23.412-14.63-23.412-14.63c0.368-0.59,28.406,13.764,28.406,13.764c0.273-0.438-22.113-13.818-22.113-13.818      s28.07,13.744,28.578,12.932c0,0-22.09-13.448-21.93-13.703c0.251-0.403,24.526,13.389,25.038,12.569l-19.997-12.495      c0.44-0.704,25.276,12.778,25.604,12.253l-20.751-12.968c0.178-0.285,25.303,11.661,25.478,11.382      c0,0-20.283-12.031-19.994-12.494c0,0,25.563,12.355,25.609,12.28c0.321-0.515-20.598-12.719-20.528-12.828l26.063,11.566      c0.307-0.49-20.029-11.879-19.743-12.337c0.45-0.721,22.534,10.188,22.534,10.188c0.094-0.149-19.261-11.284-18.923-11.824      c0,0,23.016,11.536,23.211,11.224l-19.237-12.021l23.759,9.957c0.218-0.349-18.688-10.811-18.299-11.434l22.528,9.823      c0.373-0.597-16.735-10.458-16.735-10.458c0.226-0.361,21.518,9.637,21.94,8.96c0,0-16.975-10.108-16.75-10.467      c0.112-0.181,20.471,9.394,20.471,9.394s-18.222-10.831-17.972-11.23c0,0,20.357,10.004,20.616,9.59      c0,0-16.491-9.669-16.206-10.126l21.251,8.456c0.013-0.019-16.374-10.231-16.374-10.231c0.058-0.091,19.979,8.575,20.151,8.299      c0.336-0.538-16.532-10.33-16.532-10.33l19.12,8.558c0,0-15.906-9.388-15.658-9.784c0,0,18.865,8.43,19.163,7.953      c0.175-0.28-15.687-9.492-15.547-9.715c0,0,20.233,8.339,20.503,7.907c0.237-0.381-16.322-9.382-15.955-9.97      c0.361-0.579,20.432,8.311,20.699,7.883c0.305-0.487-15.882-9.925-15.882-9.925s19.119,8.433,19.252,8.219l-17.112-10.693      c0.313-0.502,20.392,8.819,20.661,8.389c0.01-0.017-16.876-10.545-16.876-10.545c0.229-0.367,18.518,8.648,18.854,8.11      c0,0-16.655-9.822-16.393-10.243c0.089-0.141,20.272,7.904,20.272,7.904c0.161-0.259-15.64-9.772-15.64-9.772l19.263,7.339      l-15.798-9.872l17.851,7.717l-15.606-9.752c0.211-0.337,18.698,6.659,18.698,6.659l-14.905-9.314      c0.35-0.56,18.56,7.171,18.747,6.871c0.077-0.123-15.118-9.446-15.118-9.446c0.37-0.591,19.034,7.791,19.034,7.791      c0.322-0.516-16.604-10.255-16.55-10.342c0,0,16.93,7.89,17.204,7.45c0,0-14.308-8.382-14.057-8.783      c0.165-0.264,17.964,7.086,18.237,6.647l-14.69-9.18l16.452,6.944c0,0-14.574-8.963-14.51-9.066      c0.288-0.461,18.171,6.385,18.171,6.385c0.036-0.058-16.2-10.123-16.2-10.123l19.019,6.852      c0.052-0.082-15.778-9.597-15.66-9.785l17.766,7.58l-15.041-9.398c0,0,16.351,6.741,16.458,6.57l-14.049-8.779      c0,0,16.486,6.068,16.685,5.752c0,0-15.371-8.988-15.094-9.432c0.217-0.347,16.677,7.106,16.923,6.713      c0.206-0.329-14.692-9.181-14.692-9.181c0.259-0.414,18.651,6.889,18.651,6.889c0.327-0.523-15.62-9.124-15.334-9.582      l16.758,6.43c0.141-0.224-15.724-9.333-15.502-9.688c0.029-0.048,18.341,7.29,18.341,7.29      c0.274-0.439-16.373-9.775-16.168-10.103c0,0,16.629,7.285,16.906,6.842c0.254-0.407-14.099-8.81-14.099-8.81l16.87,6.521      c0.086-0.139-14.478-9.046-14.478-9.046c0.096-0.152,15.945,5.726,15.945,5.726s-15.148-8.806-14.853-9.28      c0,0,16.425,6.105,16.683,5.693l-14.668-9.166c0.099-0.159,17.393,6.721,17.564,6.445l-15.648-9.778      c0.152-0.245,17.646,5.849,17.646,5.849l-15.694-9.807c0.135-0.217,16.908,6.449,17.059,6.209c0,0-14.65-8.76-14.474-9.043      c0.308-0.493,16.398,7.249,16.72,6.734c0.063-0.1-15.905-9.337-15.635-9.77c0,0,16.137,5.183,16.137,5.182      c0,0-14.298-8.508-14.105-8.814c0,0,16.159,6.199,16.433,5.762c0.216-0.345-14.84-9.245-14.827-9.265      c0,0,17.188,6.391,17.339,6.151c0.312-0.5-16.328-10.175-16.315-10.195c0,0,16.331,6.371,16.43,6.213      c0,0-15.402-8.905-15.08-9.422c0.081-0.129,16.272,6.051,16.41,5.83l-13.937-8.708c0.01-0.017,15.19,6.223,15.19,6.223      c0.259-0.413-14.192-8.868-14.192-8.868l16.211,5.967c0,0-15.635-9.673-15.592-9.743c0,0,16.306,6.28,16.513,5.948      c0,0-15.521-9.572-15.465-9.663c0.206-0.33,15.543,6.299,15.55,6.289c0.038-0.063-15.378-9.609-15.378-9.609      s17.115,6.143,17.186,6.03c0.317-0.51-15.043-8.754-14.753-9.219l15.436,5.446l-15.108-9.441      c0.004-0.006,16.583,6.932,16.583,6.932s-15.21-9.204-15.075-9.42l14.955,5.812c0.312-0.498-15.425-9.117-15.19-9.492      c0.195-0.313,17.121,7.558,17.121,7.558l-16.017-10.008c0.135-0.217,15.571,5.746,15.831,5.33      c0.262-0.418-14.722-9.199-14.722-9.199l16.336,5.208c0,0-16.186-10.064-16.163-10.101c0.295-0.472,16.734,6.02,16.887,5.774      l-17.371-10.854l18.192,7.663c0,0-17.958-10.67-17.71-11.066c0.113-0.182,17.361,7.917,17.609,7.52l-16.34-10.211      c0,0,17.246,7.175,17.322,7.052c0.007-0.011-16.501-10.311-16.501-10.311c0.146-0.235,16.087,5.956,16.342,5.548l-16.243-10.15      l15.757,5.707c0,0-16.99-10.503-16.939-10.585l17.999,7.207c0,0-17.404-10.545-17.256-10.783c0,0,17.738,7.302,17.912,7.024      c0,0-17.68-10.299-17.344-10.837c0,0,15.93,6.754,16.071,6.526c0.069-0.11-17.112-10.45-17.003-10.625      c0,0,17.394,6.881,17.697,6.396l-17.82-11.135c0.246-0.394,17.245,7.705,17.245,7.705c0.146-0.235-17.164-10.465-17.047-10.652      c0,0,16.532,6.516,16.57,6.455c0,0-18.589-11.24-18.42-11.51l19.321,7.61c0.3-0.479-19.633-12.269-19.633-12.269      s18.217,7.012,18.48,6.589l-19.626-12.264c0,0,19.674,9.611,20.077,8.966c0.339-0.542-20.95-12.193-20.547-12.839l19.934,7.749      l-20.955-13.095c0.297-0.475,19.471,8.441,19.555,8.306c0.22-0.351-19.914-12.444-19.914-12.444      c0.157-0.252,19.82,8.976,19.82,8.976c0.136-0.216-21.028-13.141-21.028-13.141c0.29-0.465,18.619,9.013,18.998,8.407      L460.16,188.34c0.302-0.482,20.005,10.029,20.408,9.383c0,0-21.957-13.509-21.862-13.661l20.956,9.754l-22.537-14.083      c0.245-0.392,22.042,9.515,22.042,9.515s-23.38-14.257-23.222-14.511c0.163-0.262,21.199,10.161,21.421,9.804l-24.824-15.512      c0.117-0.188,22.156,9.995,22.315,9.742c0.245-0.394-24.673-15.417-24.673-15.417l24.161,10.845c0,0-27.68-16.692-27.408-17.127      c0.024-0.038,24.225,11.873,24.225,11.873l-27.099-16.933c0,0,24.357,11.179,24.799,10.472      c0.282-0.452-30.354-17.607-29.743-18.585c0.439-0.702,27.207,13.021,27.207,13.021s-31.438-18.692-31.011-19.377      c0,0,26.814,13.042,27.15,12.504c0.031-0.05-33.891-21.177-33.891-21.177l30.944,15.098c0,0-39.606-24.681-39.576-24.73      c0.224-0.357,34.579,18.115,35.104,17.275l-47.964-29.971c0.828-1.325,45.123,25.308,45.291,25.04L313.218,44.628      c0,0,131.513,82.307,133.45,79.207c2.669-4.272-124.8-77.984-124.8-77.984l120.512,72.232      c0.951-1.521-112.189-69.789-112.048-70.015c0.578-0.925,103.13,64.046,104.445,61.941c0.934-1.494-94.402-58.989-94.402-58.989      c0.927-1.484,86.064,50.215,86.064,50.215c1.634-2.615-75.067-46.908-75.067-46.908c0.693-1.109,61.25,34.267,61.254,34.261      l-40.989-25.613" style="fill:none;stroke:#262626;stroke-width:2;stroke-linecap:round;stroke-linejoin:round;"/><path d="M348.424,186.04      c0.33-0.529-42.737-26.706-42.737-26.706c0.518-0.828,44.685,25.166,45.037,24.602l-38.257-23.905l43.308,22.328      c0,0-27.66-16.034-27.099-16.933l29.06,13.871c0.246-0.394-12.19-7.617-12.19-7.617s14.695,5.693,14.827,5.482      c0.206-0.329-9.444-5.661-9.337-5.834c0.141-0.224,13.404,3.505,13.509,3.338c0,0-8.119-4.943-8.061-5.037l9.577,1.841      c0.127-0.202-5.188-3.171-5.156-3.222l6.501,0.184c0,0-3.42-2.05-3.381-2.112c0,0,4.786-0.277,4.845-0.37l-1.897-1.186" style="fill:none;stroke:#262626;stroke-width:2;stroke-linecap:round;stroke-linejoin:round;"/><path d="M158.973,177.299      c0.103-0.165-6.712-4.17-6.702-4.188" style="fill:none;stroke:#262626;stroke-width:2;stroke-linecap:round;stroke-linejoin:round;"/><path d="M172.588,253.525      c0.218-0.349-10.352-6.262-10.26-6.411c0,0,23.114,10.878,23.542,10.195c0.288-0.462-32.046-20.025-32.046-20.025" style="fill:none;stroke:#262626;stroke-width:2;stroke-linecap:round;stroke-linejoin:round;"/><path d="M187.241,280.66      c0,0-10.843-6.388-10.668-6.666c0.317-0.507,25.349,11.528,25.349,11.528c0.711-1.138-33.786-20.761-33.628-21.013      l41.669,21.752c0.262-0.42-42.824-26.76-42.824-26.76" style="fill:none;stroke:#262626;stroke-width:2;stroke-linecap:round;stroke-linejoin:round;"/><path d="M143.817,306.113      l-1.448-0.904l17.576,7.122l-12.072-7.543c0.4-0.641,23.444,10.513,23.444,10.513c0.23-0.369-17.133-10.243-16.925-10.576      c0,0,28.846,14.249,29.276,13.561c0,0-22.62-13.287-22.239-13.896l31.179,15.214c0.089-0.144-25.927-16.2-25.927-16.2      s33.77,17.267,34.291,16.433c0,0-29.207-16.99-28.641-17.896c0.147-0.236,37.43,19.594,37.936,18.785      c0.663-1.062-31.667-19.788-31.667-19.788c0.646-1.032,37.387,20.792,38.048,19.735l-34.563-21.598l39.631,21.066      c0.281-0.45-35.678-21.017-35.104-21.936c0,0,41.909,22.043,42.228,21.531l-37.816-23.63c0,0,44.359,23.613,44.723,23.031      c0.315-0.505-40.104-24.307-39.766-24.848l45.188,24.478c0.909-1.455-42.108-26.313-42.108-26.313s46.913,26.124,47.166,25.719      l-44.023-27.509c0,0,49.874,26.868,49.942,26.759c0,0-46.57-28.795-46.433-29.015l51.062,27.247      c0.043-0.068-47.495-27.828-46.664-29.158c0.216-0.345,49.398,28.691,50.043,27.66l-85.834-53.636      c0.725-1.16,91.709,53.481,92.066,52.91c1.398-2.237-86.478-54.037-86.478-54.037c1.219-1.95,90.224,52.391,90.224,52.391      c1.036-1.659-84.963-53.091-84.963-53.091s88.128,53.866,89.802,51.188c0,0-124.876-76.014-123.97-77.465      c1.321-2.114,123.435,80.034,126.122,75.734l-126.234-78.88c2.358-3.773,128.958,80.757,130.721,77.937L150.162,225.07      c0.999-1.599,133.7,81.186,134.679,79.618c0,0-135.648-80.55-133.755-83.579c0,0,138.058,83.142,138.326,82.713      c2.048-3.278-128.652-79.42-128.216-80.118l132.217,77.898c1.92-3.071-125.316-74.317-123.523-77.186      c2.65-4.242,125.218,74.353,125.218,74.353c0.694-1.111-144.766-84.906-142.27-88.9c0,0,144.24,89.718,145.529,87.656      l-148.674-92.902l151.734,89.925c1.802-2.884-157.405-91.196-154.187-96.347l157.109,93.919      c3.205-5.129-156.682-97.905-156.682-97.905c1.779-2.847,157.089,100.834,160.426,95.494c0,0-162.335-96.999-160.34-100.191      c0.955-1.527,163.068,98.498,163.068,98.498s-165.882-98.6-163.61-102.234c0,0,163.051,103.482,165.248,99.966      c0,0-166.166-97.928-163.512-102.174l167.091,99.588c0.116-0.186-165.693-103.537-165.693-103.537      c0.514-0.821,166.61,103.268,168.161,100.786c3.257-5.211-167.12-104.428-167.12-104.428l168.676,102.01      c0,0-140.825-83.493-138.801-86.732c0,0,138.676,87.88,141.034,84.106c1.256-2.01-121.877-73.935-120.879-75.533      c0,0,122.567,75.622,124.337,72.789c1.552-2.483-111.523-64.339-109.12-68.185c2.118-3.389,110.682,67.594,112.249,65.089      c1.83-2.93-99.536-62.197-99.536-62.197s100.943,60.938,101.695,59.734l-94.726-59.191c1.577-2.523,95.532,58.177,96.883,56.017      c0.055-0.089-88.115-55.061-88.115-55.061c1.149-1.839,87.114,54.508,88.797,51.815c0,0-84.059-49.566-82.729-51.695      c0.395-0.632,85.095,48.411,85.095,48.411c0.827-1.323-82.124-51.317-82.124-51.317l84.15,47.886l-84.883-53.041l85.692,50.108      l-85.857-53.649c1.064-1.704,87.307,49.53,87.307,49.53l-86.574-54.098c1.786-2.859,87.67,52.066,88.626,50.537      c0.43-0.688-87.27-54.532-87.27-54.532c1.864-2.982,89.743,51.975,89.743,51.975c1.803-2.886-89.126-55.016-88.822-55.502      c0,0,86.729,54.23,88.229,51.83c0,0-87.525-51.545-86.111-53.808c0.863-1.381,87.058,52.854,88.496,50.551l-85.918-53.688      l86.347,50.619c0,0-85.252-52.476-84.895-53.048c1.489-2.383,86.657,49.181,86.657,49.181      c0.198-0.317-85.072-53.159-85.072-53.159l85.774,48.565c0.275-0.441-82.877-50.389-82.248-51.395l82.863,48.258l-79.735-49.824      c0,0,78.991,46.879,79.546,45.992l-76.509-47.808c0,0,75.984,45.009,76.974,43.426c0,0-75.489-44.172-74.142-46.329      c1.018-1.629,72.92,44.269,74.073,42.423c0.958-1.533-70.501-44.054-70.501-44.054c1.075-1.719,72.148,40.318,72.148,40.318      c1.433-2.292-67.877-39.625-66.623-41.631l68.247,38.604c0.592-0.947-65.511-38.853-64.574-40.351      c0.119-0.19,68.539,38.657,68.539,38.657c1.128-1.805-64.187-38.238-63.347-39.583c0,0,63.975,38.786,65.113,36.964      c1.009-1.614-58.901-36.806-58.901-36.806l62.652,35.13c0.073-0.116-12.002-7.5-12.002-7.5      c0.085-0.137,14.421,4.772,14.421,4.772s-9.69-5.628-9.499-5.936c0,0,12.123,3.257,12.309,2.96l-6.323-3.951      c0.054-0.087,10.03,1.949,10.125,1.797l-4.712-2.945c0.062-0.099,7.504-0.488,7.504-0.488l-1.896-1.185" style="fill:none;stroke:#262626;stroke-width:2;stroke-linecap:round;stroke-linejoin:round;"/></g></g></g></g><g id="Layer_1"/></svg>