<?xml version="1.0" ?><!DOCTYPE svg  PUBLIC '-//W3C//DTD SVG 1.1//EN'  'http://www.w3.org/Graphics/SVG/1.1/DTD/svg11.dtd'><svg height="512px" style="enable-background:new 0 0 512 512;" version="1.1" viewBox="0 0 512 512" width="512px" xml:space="preserve" xmlns="http://www.w3.org/2000/svg" xmlns:xlink="http://www.w3.org/1999/xlink"><g id="play__x2C__store__x2C__google_._apps."><g><g><g><path d="M118.274,375.049      c0,0-63.549-39.217-63.328-39.571c0.373-0.597,44.256,24.284,44.256,24.284s-48.66-28.159-47.65-29.774l34.01,16.114      c0.306-0.49-39.511-23.614-39.027-24.388c0.574-0.919,32.511,16.988,32.511,16.988c0.067-0.106-35.118-21.944-35.118-21.944      c0.399-0.639,28.809,14.963,29.106,14.486c0,0-32.869-18.973-32.166-20.099l26.925,13.434      c0.347-0.556-30.017-17.732-29.557-18.469l24.984,11.267c0,0-26.44-16.052-26.229-16.39l22.123,8.843      c0,0-25.257-14.646-24.747-15.463c0.303-0.486,22.857,11.095,22.857,11.095l-24.931-15.578l23.218,10.126      c0.065-0.104-23.913-14.943-23.913-14.943c0.065-0.104,21.493,10.788,21.887,10.158c0,0-23.087-14.209-22.989-14.365      c0.069-0.109,19.702,8.83,19.805,8.664c0.119-0.188-21.439-13.396-21.439-13.396s21.515,10.611,21.646,10.402l-22.705-14.188      c0,0,20.339,10.275,20.671,9.744c0,0-20.742-12.869-20.701-12.935c0.254-0.406,19.523,7.49,19.523,7.49      c0.353-0.565-20.756-12.971-20.756-12.971c0.126-0.201,19.797,7.939,19.797,7.939s-19.284-12.013-19.267-12.039l17.911,6.877      c0.127-0.203-17.64-11.022-17.64-11.022l17.691,7.107c0.214-0.342-18.93-11.325-18.703-11.688c0,0,18.303,7.038,18.34,6.98      c0.215-0.346-18.265-11.215-18.176-11.358c0.104-0.167,16.855,7.38,16.968,7.201c0.043-0.069-16.809-9.793-16.49-10.304      l17.052,6.421c0.175-0.281-16.771-10.479-16.771-10.479s16.262,6.769,16.467,6.441c0.113-0.181-16.56-10.348-16.56-10.348      s17.098,6.278,17.277,5.992c0.366-0.586-17.856-11.158-17.856-11.158c0.313-0.5,17.355,7.768,17.52,7.503      c0,0-16.696-10.132-16.561-10.348c0,0,17.326,7.275,17.413,7.136l-15.929-9.954l16.073,5.273      c0.001-0.001-16.926-10.577-16.926-10.577c0.221-0.354,17.361,8.054,17.62,7.64c0,0-16.812-9.985-16.578-10.359l16.581,6.825      c0.311-0.496-15.924-9.733-15.826-9.889l16.523,6.724c0,0-15.625-9.75-15.62-9.76l16.473,5.504l-15.661-9.786      c0.231-0.371,16.469,6.769,16.643,6.491c0.335-0.536-15.644-9.505-15.522-9.7c0,0,16.384,5.559,16.437,5.475l-15.667-9.79      l16.767,7.25c0.022-0.037-14.993-8.683-14.685-9.176l15.267,5.28c0.195-0.313-15.113-9.415-15.1-9.436      c0.036-0.057,15.303,6.758,15.568,6.334c0,0-13.677-8.264-13.55-8.467c0,0,14.704,6.122,14.998,5.651      c0.117-0.188-14.093-8.806-14.093-8.806l15.218,4.704c0.125-0.2-13.522-8.166-13.395-8.37c0,0,14.884,6.565,15.149,6.142      c0.166-0.266-14.341-8.962-14.341-8.962c0.001-0.002,14.925,6.201,14.931,6.192c0,0-13.547-8.321-13.483-8.425l15.239,5.458      c0.123-0.197-13.369-8.295-13.342-8.337l14.679,5.832c0,0-14.371-8.789-14.285-8.926c0,0,15.6,5.66,15.873,5.223l-13.042-8.149      c0.276-0.442,14.452,4.316,14.505,4.23c0.127-0.204-12.604-7.84-12.588-7.866c0,0,14.471,6.145,14.682,5.807      c0.068-0.11-13.752-8.593-13.752-8.593c0.099-0.158,14.551,5.207,14.551,5.207c0.167-0.268-12.989-8.117-12.989-8.117      c0.057-0.09,15.938,5.551,16.105,5.283c0,0-14.26-8.253-13.965-8.727c0,0,15.181,5.252,15.357,4.971      c0,0-13.832-8.257-13.658-8.534l16.416,5.629c0.237-0.379-14.652-8.571-14.389-8.992c0.231-0.37,15.803,5.665,15.803,5.665      c0.048-0.077-13.856-8.658-13.856-8.658c0.243-0.389,15.278,5.701,15.356,5.576l-13.017-8.134c0,0,14.533,6.16,14.825,5.692      c0,0-12.909-7.541-12.673-7.918c0.203-0.325,15.74,5.077,15.796,4.986c0,0-13.837-8.386-13.72-8.574      c0.105-0.169,14.851,6.107,14.851,6.107c0.155-0.248-13.301-8.312-13.301-8.312s15.213,5.373,15.44,5.01      c0.206-0.331-12.62-7.731-12.55-7.842c0,0,15.668,4.776,15.718,4.697c0.146-0.234-13.068-8.166-13.068-8.166      c0.17-0.272,15.22,5.144,15.42,4.823c0.042-0.068-12.939-7.658-12.747-7.965c0,0,15.502,4.991,15.587,4.854      c0.165-0.263-12.05-7.011-11.817-7.384c0.037-0.058,14.207,5.656,14.254,5.579c0,0-12.904-8.062-12.903-8.063      c0,0,14.497,6.341,14.684,6.041c0.062-0.1-12.145-7.127-11.938-7.459l14.778,5.363c0.041-0.065-13.85-8.291-13.687-8.552      c0.137-0.22,15.753,5.832,16.065,5.333l-13.202-8.25c0,0,17.181,6.715,17.347,6.45l-14.127-8.828      c0.053-0.085,14.849,6.493,15.016,6.225c0.281-0.449-13.676-8.39-13.606-8.502c0.313-0.502,17.078,6.939,17.134,6.849      c0.1-0.16-14.655-9.005-14.586-9.115c0.012-0.02,16.824,7.008,16.824,7.008s-14.053-8.309-13.84-8.648      c0.287-0.46,16.137,6.577,16.137,6.577c0.205-0.328-14.156-8.527-14.013-8.756c0,0,15.752,5.68,15.766,5.66      c0.106-0.171-13.044-7.497-12.75-7.967c0,0,16.662,6.492,16.926,6.068c0.069-0.111-14.148-8.585-14.033-8.769      c0,0,16.112,5.909,16.233,5.715c0,0-12.514-7.509-12.375-7.732c0.3-0.48,15.323,6.458,15.63,5.967      c0.102-0.163-13.096-7.804-12.925-8.077c0.296-0.475,17.135,6.421,17.374,6.038c0.198-0.317-14.574-8.888-14.476-9.045      c0.043-0.068,15.76,6.587,15.819,6.492l-12.053-7.532c0,0,17.093,6.119,17.13,6.06l-14.939-9.335      c0.174-0.278,16.551,6.632,16.551,6.632l-13.827-8.64l17.345,7.507c0.091-0.146-13.52-8.448-13.52-8.448      s17.229,5.789,17.23,5.786l-13.737-8.583l17.266,6.608l-13.034-8.145c0.123-0.197,16.247,6.995,16.396,6.756      c0,0-14.671-9.032-14.61-9.129c0.358-0.572,18.242,6.488,18.242,6.488s-13.736-8.306-13.612-8.505      c0.332-0.531,17.319,6.425,17.319,6.425s-13.404-7.699-13.1-8.186c0.174-0.279,17.987,7.147,17.987,7.147l-15.023-9.387      c0.326-0.521,17.995,7.421,17.995,7.421c0.004-0.007-14.44-8.307-14.118-8.822c0.216-0.346,17.198,7.501,17.203,7.494      c0.023-0.037-14.307-8.494-14.106-8.814l17.659,7.187c0.07-0.113-14.167-8.852-14.167-8.852      c0.094-0.15,17.612,7.767,17.612,7.767c0.148-0.236-16.239-10.147-16.239-10.147c0.297-0.476,21.111,8.044,21.111,8.044      l-15.292-9.555l20.166,7.631c0.05-0.08-16.006-10.001-16.006-10.001c0.104-0.167,18.733,8.641,19.097,8.058      c0.281-0.449-15.601-9.29-15.395-9.62c0.404-0.647,20.874,8.883,20.874,8.883l-15.758-9.846c0,0,20.507,8.687,20.692,8.391      c0.099-0.159-16.937-10.583-16.937-10.583c0.189-0.303,21.75,8.946,21.756,8.937c0,0-16.084-9.823-15.982-9.986      c0.137-0.219,19.576,8.196,19.576,8.196l-15.311-9.567c0,0,20.708,9.7,20.78,9.584c0.067-0.107-17.946-11.109-17.899-11.185      c0.432-0.691,22.492,9.363,22.678,9.067c0,0-16.765-9.652-16.395-10.245c0.017-0.027,22.106,9.333,22.106,9.333      c0.387-0.619-18.16-11.348-18.16-11.348c0.459-0.734,23.759,11.35,24.003,10.958c0.329-0.526-18.901-11.811-18.901-11.811      s23.651,11.405,24.064,10.743c0.209-0.335-19.705-12.313-19.705-12.313c0.424-0.678,26.221,11.347,26.221,11.347      s-20.211-11.689-19.789-12.365l24.354,12.066c0.219-0.351-19.975-12.482-19.975-12.482s25.429,12.527,25.636,12.195      c0,0-21.154-12.266-20.726-12.951c0,0,26.36,12.759,26.606,12.367l-21.606-13.501l28.932,13.46l-23.138-14.458      c0,0,27.769,14.448,28.038,14.016c0.263-0.42-22.515-14.068-22.515-14.068c0.333-0.532,29.495,14.265,29.518,14.228      c0,0-23.775-13.996-23.389-14.615l28.912,14.961l-24.41-15.253l33.381,16.189L265.485,40.56      c0.396-0.635,34.619,18.511,35,17.902l-28.317-17.695c0.074-0.119,37.357,20.034,37.914,19.144      c0.46-0.736-30.977-19.28-30.942-19.335l39.116,20.949c0.277-0.444-32.341-20.209-32.341-20.209      c0.493-0.79,46.572,24.479,46.767,24.169c0.73-1.17-38.362-23.971-38.362-23.971l52.225,28.655      c0.27-0.431-44.669-25.92-43.773-27.353c1.004-1.607,59.482,34.064,59.482,34.064l-53.766-33.596" style="fill:none;stroke:#231F20;stroke-width:2;stroke-linecap:round;stroke-linejoin:round;"/><path d="M133.833,403.013      c0,0-26.557-15.956-26.27-16.415l58.937,31.786c0.422-0.676-85.709-53.557-85.709-53.557l104.732,60.455      c1.724-2.759-116.453-72.768-116.453-72.768c1.03-1.649,131.381,79.359,132.412,77.71c0,0-142.279-86.396-141.151-88.201      c1.688-2.703,150.164,94.321,152.34,90.839c1.034-1.654-56.17-35.099-56.17-35.099l66.057,36.852      c0.484-0.775-44.577-27.119-44.247-27.648c0,0,52.941,29.351,53.066,29.15l-38.295-23.929      c0.313-0.501,47.981,25.612,48.036,25.525c0.66-1.056-35.042-20.822-34.56-21.596c0.175-0.28,44.027,22.655,44.027,22.655      s-31.321-19.378-31.234-19.517l38.536,20.73c0.074-0.12-31.892-19.929-31.892-19.929s37.205,20.345,37.526,19.831l-28.8-17.997      c0.537-0.858,35.72,18.518,35.72,18.518s-29.09-16.945-28.537-17.831c0.423-0.679,34.099,17.897,34.544,17.185      c0,0-25.897-15.741-25.699-16.059c0,0,31.915,17.294,32.454,16.432c0.484-0.775-25.548-15.376-25.283-15.799      c0.606-0.971,32.235,15.418,32.235,15.418L266.6,425.037c0.111-0.177,29.136,14.745,29.136,14.745      c0.038-0.06-23.499-14.685-23.499-14.685s27.48,14.101,27.625,13.869c0,0-22.266-13.899-22.26-13.909      c0,0,26.896,14.802,27.449,13.918c0.193-0.31-22.862-14.054-22.758-14.221c0.275-0.44,28.062,13.035,28.277,12.689      c0,0-21.184-12.737-20.959-13.097l26.727,13.297c0.325-0.52-22.303-13.937-22.303-13.937c0.494-0.792,28.028,13.639,28.428,13      c0.325-0.521-20.419-12.759-20.419-12.759c0.012-0.02,26.117,11.813,26.396,11.366c0.182-0.29-19.968-12.478-19.968-12.478      c0.403-0.646,24.863,11.2,25.163,10.721c0,0-19.063-11.841-19.031-11.892l23.31,10.519c0.238-0.382-18.408-11.502-18.408-11.502      c0.201-0.323,24.954,10.833,24.954,10.833s-19.875-11.925-19.653-12.28c0.187-0.299,22.989,11.529,23.192,11.205      c0.206-0.33-19.913-12.073-19.746-12.339c0,0,23.73,10.889,24.191,10.151c0,0-17.618-10.574-17.422-10.887      c0.422-0.676,22.03,9.021,22.076,8.946c0.26-0.414-17.714-10.224-17.334-10.831l21.295,9.055      c0.286-0.458-16.904-10.273-16.774-10.481c0,0,20.858,10.052,21.017,9.799l-18.189-11.366l21.837,8.734      c0.293-0.47-17.019-10.634-17.019-10.634s20.241,10.149,20.636,9.519c0.333-0.533-16.562-10.059-16.432-10.267      c0.113-0.182,20.246,8.869,20.592,8.315c0.353-0.563-16.154-9.985-16.105-10.063c0,0,19.583,8.707,19.87,8.248l-16.088-10.053      c0.396-0.632,19.766,8.326,19.772,8.314c0,0-16.935-10.199-16.763-10.475c0.078-0.125,18.783,8.933,18.953,8.661l-15.547-9.715      c0,0,18.237,8.138,18.446,7.804l-15.86-9.911c0,0,19.85,8.403,19.902,8.318c0,0-16.483-9.637-16.186-10.113      c0.064-0.104,19.909,8.553,19.909,8.553s-17.474-10.247-17.172-10.729l19.025,8.147c0,0-15.917-9.39-15.667-9.79      c0.073-0.117,19.931,8.388,19.931,8.388c0.277-0.443-17.078-10.267-16.896-10.558c0.333-0.532,20.322,8.095,20.322,8.095      s-17.002-10.271-16.844-10.525c0.372-0.595,19.841,8.19,19.841,8.19s-16.938-9.957-16.655-10.407      c0.147-0.237,19.692,8.202,19.692,8.202l-15.776-9.858c0.213-0.34,18.486,7.245,18.486,7.245      c0.07-0.113-14.739-8.969-14.63-9.143c0.265-0.424,16.862,6.355,16.862,6.355c0.182-0.29-14.246-8.806-14.203-8.875      c0,0,17.432,6.298,17.616,6.002c0.266-0.424-13.947-8.715-13.947-8.715l17.102,6.546l-14.304-8.938      c0,0,15.983,6.204,16.147,5.942c0,0-13.725-8.172-13.543-8.463c0,0,17.762,6.6,17.782,6.567l-15.78-9.86      c0.094-0.151,16.812,6.985,16.833,6.951l-13.863-8.663c0.31-0.496,16.91,7.39,16.91,7.39l-15.999-9.997      c0.327-0.522,16.392,7.074,16.417,7.032l-14.214-8.882c0.063-0.099,16.716,6.267,16.813,6.112c0,0-14.126-8.416-13.941-8.712      l16.889,6.463c0.097-0.153-15.178-9.484-15.178-9.484s16.994,7.772,17.174,7.483c0.292-0.467-15.558-9.359-15.395-9.62      c0.188-0.3,17.286,5.914,17.39,5.747c0.275-0.44-14.085-8.163-13.799-8.622c0.014-0.022,17.545,6.574,17.763,6.227      c0.311-0.497-15.994-9.393-15.724-9.825c0.223-0.355,16.101,6.693,16.101,6.693c0.123-0.196-15.076-9.276-15.011-9.38      c0.341-0.546,16.873,7.228,17.203,6.7c0.104-0.166-14.712-9.193-14.712-9.193s16.88,7.051,17.206,6.528      c0,0-15.647-9.317-15.441-9.648c0.068-0.108,16.497,6.169,16.697,5.849l-13.489-8.429l16.09,5.993      c0.109-0.176-14.92-9.323-14.92-9.323c0.322-0.515,16.011,7.175,16.161,6.935c0.047-0.075-14.356-8.827-14.292-8.931      c0.044-0.071,16.177,5.765,16.177,5.765c0.146-0.233-15.212-9.506-15.212-9.506c0.217-0.347,16.431,6.604,16.431,6.604      s-14.5-8.705-14.341-8.961c0.254-0.406,15.537,5.551,15.537,5.551c0.292-0.467-13.882-8.174-13.657-8.533      c0.316-0.506,16.436,6.943,16.516,6.815c0.059-0.095-15.31-8.981-15.047-9.402l15.862,5.545      c0.072-0.115-14.296-8.934-14.296-8.934c0.069-0.11,14.999,5.979,14.999,5.979c0.15-0.24-15.043-9.202-14.954-9.344      c0.229-0.366,16.702,7.031,16.758,6.942c0.268-0.428-15.402-9.624-15.402-9.624l17.48,7.569      c0.062-0.098-14.877-9.296-14.877-9.296s15.159,5.864,15.391,5.494l-15.626-9.764l17.492,7.07c0,0-16.581-9.657-16.265-10.163      c0,0,15.859,6.744,16.146,6.284c0.058-0.091-14.187-8.864-14.187-8.864l16.831,5.623l-15.647-9.778      c0.217-0.347,16.773,6.962,16.967,6.652c0.313-0.5-16.655-10.029-16.485-10.301c0.293-0.469,16.204,6.978,16.204,6.978      l-14.195-8.87c0,0,15.672,5.679,15.727,5.592c0.266-0.425-14.787-9.24-14.787-9.24c0.228-0.365,15.188,6.258,15.477,5.797      c0.121-0.193-15.245-9.453-15.213-9.506l16.904,6.09c0,0-15.638-9.239-15.398-9.622c0.045-0.072,16.379,5.793,16.519,5.569      l-16.637-10.396l15.846,6.155c0.072-0.115-15.745-9.839-15.745-9.839l16.463,5.496c0,0-15.777-9.671-15.693-9.806      c0.016-0.024,16.565,6.983,16.565,6.983s-16.214-10.113-16.206-10.126c0.208-0.332,16.986,5.68,16.986,5.68      c0.184-0.293-16.647-10.382-16.638-10.396c0,0,16.457,7.512,16.725,7.084L467.602,258c0.012-0.02,17.796,5.97,17.796,5.97      s-17.527-10.194-17.187-10.739l17.781,6.975c0,0-17.313-10.313-17.086-10.677l16.742,5.592l-16.972-10.605      c0.112-0.181,16.348,6.279,16.533,5.981l-16.054-10.032c0.061-0.098,17.455,7.138,17.455,7.138s-17.508-10.459-17.292-10.805      c0,0,16.736,7.075,17.013,6.632c0.282-0.451-17.269-10.79-17.269-10.79s17.022,6.306,17.079,6.215      c0.364-0.583-18.917-11.379-18.719-11.696c0.252-0.403,18.409,6.8,18.409,6.8c0.227-0.362-19.566-11.431-19.209-12.003      c0,0,19.068,8.148,19.309,7.764l-18.752-11.718l18.44,8.088l-19.731-12.33c0,0,19.143,8.476,19.173,8.428      c0.301-0.482-20.078-12.527-20.069-12.541l19.239,7.767c0.216-0.346-20.087-12.551-20.087-12.551      c0.297-0.476,19.954,9.74,20.136,9.449c0,0-20.96-12.499-20.691-12.929c0.36-0.577,19.271,7.956,19.484,7.614      c0.185-0.294-20.763-12.923-20.739-12.959l20.153,9.034c0.075-0.119-22.253-12.99-21.842-13.648l20.627,8.855      c0,0-20.668-12.89-20.656-12.908c0.125-0.199,19.484,7.637,19.691,7.304c0.396-0.634-22.962-13.622-22.636-14.145l21.134,8.464      c0,0-23.493-14.577-23.447-14.651c0.289-0.462,22.81,10.938,22.81,10.938c0.348-0.557-25.642-15.586-25.445-15.9      c0.216-0.345,22.721,10.495,22.721,10.495s-23.886-14.799-23.829-14.89c0,0,22.622,9.953,22.789,9.686l-26.01-16.252      c0.239-0.383,23.522,11.899,23.873,11.339c0.436-0.698-26.848-16.776-26.848-16.776c0.361-0.578,24.748,12.037,24.748,12.037      l-28.386-17.737c0.456-0.731,25.713,12.034,25.713,12.034l-30.785-19.237c0.173-0.277,27.489,12.398,27.489,12.398      c0.672-1.077-34.132-20.188-33.619-21.008c0.575-0.921,29.786,14.664,29.901,14.479c0.817-1.308-37.288-22.959-37.135-23.204      l34.293,16.917c0.371-0.595-46.466-26.926-45.519-28.442c0.032-0.052,40.021,23.37,40.789,22.14l-53.754-33.589      c0,0,47.374,27.718,48.394,26.086c0,0-131.1-76.437-128.635-80.38c0.069-0.112,121.806,77.345,124.019,73.804L328.619,47.851      c0.452-0.723,104.38,60.254,104.38,60.254L342.09,51.298c0,0,82.183,50.43,83.282,48.669C426.686,97.865,353.409,55,353.409,55      c0.502-0.803,51.331,29.72,52.23,28.28c0.251-0.401-27.028-16.889-27.028-16.889" style="fill:none;stroke:#231F20;stroke-width:2;stroke-linecap:round;stroke-linejoin:round;"/><path d="M171.021,315.283      c0,0-0.179-0.099-0.173-0.108l3.333-2.959c0.02-0.032-3.776-2.358-3.776-2.358l7.085-0.562c0.113-0.181-6.459-4.036-6.459-4.036      c0.072-0.115,10.528,1.708,10.6,1.593c0,0-10.909-6.618-10.82-6.761c0.132-0.213,13.155,4.246,13.325,3.973      c0.258-0.413-13.228-8.266-13.228-8.266l15.565,5.302c0.188-0.3-16.768-10.193-16.64-10.397c0,0,19.31,8.153,19.353,8.084      l-18.944-11.838c0.139-0.223,22.254,9.47,22.278,9.431c0.432-0.69-22.558-13.393-22.242-13.898      c0.099-0.158,25.635,11.162,25.635,11.162s-25.564-15.814-25.493-15.93l28.804,14.649c0.07-0.112-30.143-18.835-30.143-18.835      s31.593,16.726,31.864,16.293L169.9,270.422c0.511-0.817,34.064,17.482,34.064,17.482s-35.612-20.74-34.932-21.828      c0.453-0.725,36.308,19.345,36.784,18.583c0,0-36.719-22.324-36.44-22.771c0,0,39.133,22.091,39.8,21.023      c0.759-1.215-40.244-24.227-39.83-24.889c0.819-1.311,42.868,22.062,42.868,22.062l-42.536-26.58      c0.176-0.282,45.473,24.954,45.473,24.954c0.072-0.115-45.58-28.482-45.58-28.482s46.99,26.531,47.243,26.126      c0,0-47.444-29.618-47.432-29.639c0,0,49.264,29.854,50.299,28.196c0.429-0.687-50.867-31.271-50.636-31.641      c0.533-0.854,52.584,28.809,53.003,28.139c0,0-53.825-32.397-53.27-33.286l56.882,32.142      c0.85-1.359-57.324-35.821-57.324-35.821c1.097-1.755,59.921,34.648,60.806,33.232c0.933-1.492-59.57-37.224-59.57-37.224      c0.029-0.046,62.075,35.203,62.767,34.095c0.562-0.9-63.17-39.474-63.17-39.474c1.111-1.779,65.214,37.582,66.039,36.263      c0,0-66.534-41.336-66.427-41.508l68.824,38.959c0.852-1.362-68.974-43.099-68.974-43.099      c0.625-1.001,73.609,41.237,73.609,41.237s-74.972-44.954-74.121-46.316c0.64-1.023,75.669,45.544,76.364,44.432      c0.825-1.32-77.438-46.912-76.774-47.974c0,0,77.817,47.224,79.419,44.66c0,0-79.252-47.662-78.416-49      c1.657-2.652,81.295,46.353,81.476,46.064c1.174-1.879-83.804-48.539-82.084-51.292l84.708,48.68      c1.366-2.186-85.468-52.03-84.849-53.02c0,0,87.502,52.895,88.199,51.778l-88.838-55.512l91.171,52.06      c1.533-2.454-91.457-57.148-91.457-57.148s87.064,55,88.849,52.143c1.699-2.718-88.676-53.939-88.015-54.998      c0.365-0.584,61.489,36.349,62.602,34.567c1.299-2.078-62.753-38.812-62.573-39.1c0,0,31.174,16.358,31.644,15.606      l-31.976-19.981" style="fill:none;stroke:#231F20;stroke-width:2;stroke-linecap:round;stroke-linejoin:round;"/><path d="M269.352,232.611      c0,0-2.37-1.401-2.335-1.458l6.042-1.266c0.168-0.269-33.758-21.095-33.758-21.095l37.191,18.251      c1.09-1.744-73.151-45.71-73.151-45.71c0.595-0.953,76.822,44.3,77.419,43.346c0,0-102.581-62.288-101.767-63.59      c1.15-1.841,102.897,63.244,104.38,60.871c1.709-2.734-93.536-58.447-93.536-58.447l95.984,55.552      c0.838-1.342-77.743-47.304-77.17-48.221c0,0,79.792,46.276,79.983,45.971l-59.776-37.352      c0.415-0.664,63.15,35.13,63.221,35.016c0.727-1.162-38.718-23.01-38.187-23.862c0.166-0.265,41.7,21.201,41.7,21.201      s-8.513-5.261-8.486-5.303" style="fill:none;stroke:#231F20;stroke-width:2;stroke-linecap:round;stroke-linejoin:round;"/><path d="M307.529,265.872      c0,0-1.71-1.004-1.681-1.051l6.639-0.893c0.134-0.215-26.943-16.836-26.943-16.836l31.614,14.767      c0.545-0.873-35.985-22.487-35.985-22.487c0.312-0.499,41.188,21.401,41.5,20.902c0,0-38.343-23.277-38.036-23.768      c0.448-0.717,41.152,22.646,41.73,21.722c0.713-1.141-38.444-24.022-38.444-24.022l41.989,21.814      c0.437-0.699-40.121-24.407-39.823-24.884c0,0,43.529,23.418,43.631,23.255l-40.286-25.173      c0.289-0.463,44.536,23.451,44.587,23.37c0.783-1.253-41.835-24.864-41.261-25.783c0.178-0.285,44.732,23.098,44.732,23.098      s-41.148-25.46-41.035-25.642l43.643,23.921c0.101-0.161-42.527-26.574-42.527-26.574s42.304,23.632,42.67,23.045      l-39.202-24.497c0.589-0.942,39.04,20.592,39.04,20.592s-37.846-22.04-37.123-23.197c0.404-0.646,32.079,17.845,32.503,17.167      c0,0-10.444-6.338-10.36-6.474" style="fill:none;stroke:#231F20;stroke-width:2;stroke-linecap:round;stroke-linejoin:round;"/><path d="M179.393,322.941      c0,0-0.411-0.238-0.402-0.252l7.181-0.555c0.022-0.034-4.024-2.515-4.024-2.515l8.698,0.446      c0.084-0.136-4.551-2.844-4.551-2.844c0.066-0.105,9.759,1.216,9.825,1.109c0,0-6.551-3.971-6.496-4.059      c0.097-0.155,9.857,2.083,9.981,1.883c0.142-0.227-6.812-4.256-6.812-4.256l10.146,1.915c0.095-0.152-8.163-4.956-8.098-5.06      c0,0,11.688,3.351,11.714,3.311l-8.477-5.296c0.077-0.123,12.809,3.543,12.822,3.521c0.199-0.317-9.762-5.776-9.617-6.009      c0.052-0.084,14.103,3.956,14.103,3.956s-10.566-6.531-10.534-6.583l14.6,5.774c0.03-0.049-13.574-8.482-13.574-8.482      s15.972,6.653,16.103,6.443l-12.723-7.95c0.238-0.38,16.574,6.554,16.574,6.554s-15.009-8.755-14.729-9.204      c0.207-0.33,17.385,6.945,17.602,6.598c0,0-14.231-8.642-14.119-8.822c0,0,18.077,8.104,18.372,7.633      c0.303-0.484-15.823-9.52-15.658-9.784c0.36-0.576,19.792,7.642,19.792,7.642l-16.089-10.053c0.074-0.119,19.83,8.93,19.83,8.93      c0.028-0.045-17.468-10.915-17.468-10.915s19.816,9.216,19.919,9.052c0,0-17.692-11.044-17.687-11.052      c0,0,20.881,10.756,21.304,10.079c0.165-0.264-19.423-11.939-19.334-12.081c0.219-0.352,22.686,9.577,22.857,9.302      c0,0-19.782-11.893-19.571-12.229l23.974,11.577c0.32-0.513-21.988-13.739-21.988-13.739      c0.461-0.737,26.204,12.437,26.576,11.842c0.349-0.559-21.942-13.711-21.942-13.711c0.011-0.018,26.079,11.788,26.356,11.343      c0.209-0.334-23.085-14.426-23.085-14.426c0.438-0.7,26.827,12.482,27.152,11.963c0,0-23.973-14.891-23.933-14.955      l27.298,13.012c0.313-0.501-24.532-15.328-24.532-15.328c0.248-0.397,30.305,14.177,30.305,14.177s-27.697-16.614-27.386-17.112      c0.248-0.396,30.146,16.15,30.415,15.719c0.301-0.481-28.698-17.394-28.456-17.781c0,0,31.662,16.215,32.29,15.21      c0,0-28.011-16.826-27.707-17.313c0.625-1.001,31.857,15.211,31.926,15.102c0.425-0.68-29.662-17.15-29.04-18.146l32.681,16.169      c0.492-0.788-29.98-18.237-29.758-18.594c0,0,33.645,18.27,33.905,17.852l-32.14-20.083l15.109,4.532      c0.207-0.333-11.856-7.408-11.856-7.408" style="fill:none;stroke:#231F20;stroke-width:2;stroke-linecap:round;stroke-linejoin:round;"/></g><g><path d="M118.274,375.049      c0,0-63.549-39.217-63.328-39.571c0.373-0.597,44.256,24.284,44.256,24.284s-48.66-28.159-47.65-29.774l34.01,16.114      c0.306-0.49-39.511-23.614-39.027-24.388c0.574-0.919,32.511,16.988,32.511,16.988c0.067-0.106-35.118-21.944-35.118-21.944      c0.399-0.639,28.809,14.963,29.106,14.486c0,0-32.869-18.973-32.166-20.099l26.925,13.434      c0.347-0.556-30.017-17.732-29.557-18.469l24.984,11.267c0,0-26.44-16.052-26.229-16.39l22.123,8.843      c0,0-25.257-14.646-24.747-15.463c0.303-0.486,22.857,11.095,22.857,11.095l-24.931-15.578l23.218,10.126      c0.065-0.104-23.913-14.943-23.913-14.943c0.065-0.104,21.493,10.788,21.887,10.158c0,0-23.087-14.209-22.989-14.365      c0.069-0.109,19.702,8.83,19.805,8.664c0.119-0.188-21.439-13.396-21.439-13.396s21.515,10.611,21.646,10.402l-22.705-14.188      c0,0,20.339,10.275,20.671,9.744c0,0-20.742-12.869-20.701-12.935c0.254-0.406,19.523,7.49,19.523,7.49      c0.353-0.565-20.756-12.971-20.756-12.971c0.126-0.201,19.797,7.939,19.797,7.939s-19.284-12.013-19.267-12.039l17.911,6.877      c0.127-0.203-17.64-11.022-17.64-11.022l17.691,7.107c0.214-0.342-18.93-11.325-18.703-11.688c0,0,18.303,7.038,18.34,6.98      c0.215-0.346-18.265-11.215-18.176-11.358c0.104-0.167,16.855,7.38,16.968,7.201c0.043-0.069-16.809-9.793-16.49-10.304      l17.052,6.421c0.175-0.281-16.771-10.479-16.771-10.479s16.262,6.769,16.467,6.441c0.113-0.181-16.56-10.348-16.56-10.348      s17.098,6.278,17.277,5.992c0.366-0.586-17.856-11.158-17.856-11.158c0.313-0.5,17.355,7.768,17.52,7.503      c0,0-16.696-10.132-16.561-10.348c0,0,17.326,7.275,17.413,7.136l-15.929-9.954l16.073,5.273      c0.001-0.001-16.926-10.577-16.926-10.577c0.221-0.354,17.361,8.054,17.62,7.64c0,0-16.812-9.985-16.578-10.359l16.581,6.825      c0.311-0.496-15.924-9.733-15.826-9.889l16.523,6.724c0,0-15.625-9.75-15.62-9.76l16.473,5.504l-15.661-9.786      c0.231-0.371,16.469,6.769,16.643,6.491c0.335-0.536-15.644-9.505-15.522-9.7c0,0,16.384,5.559,16.437,5.475l-15.667-9.79      l16.767,7.25c0.022-0.037-14.993-8.683-14.685-9.176l15.267,5.28c0.195-0.313-15.113-9.415-15.1-9.436      c0.036-0.057,15.303,6.758,15.568,6.334c0,0-13.677-8.264-13.55-8.467c0,0,14.704,6.122,14.998,5.651      c0.117-0.188-14.093-8.806-14.093-8.806l15.218,4.704c0.125-0.2-13.522-8.166-13.395-8.37c0,0,14.884,6.565,15.149,6.142      c0.166-0.266-14.341-8.962-14.341-8.962c0.001-0.002,14.925,6.201,14.931,6.192c0,0-13.547-8.321-13.483-8.425l15.239,5.458      c0.123-0.197-13.369-8.295-13.342-8.337l14.679,5.832c0,0-14.371-8.789-14.285-8.926c0,0,15.6,5.66,15.873,5.223l-13.042-8.149      c0.276-0.442,14.452,4.316,14.505,4.23c0.127-0.204-12.604-7.84-12.588-7.866c0,0,14.471,6.145,14.682,5.807      c0.068-0.11-13.752-8.593-13.752-8.593c0.099-0.158,14.551,5.207,14.551,5.207c0.167-0.268-12.989-8.117-12.989-8.117      c0.057-0.09,15.938,5.551,16.105,5.283c0,0-14.26-8.253-13.965-8.727c0,0,15.181,5.252,15.357,4.971      c0,0-13.832-8.257-13.658-8.534l16.416,5.629c0.237-0.379-14.652-8.571-14.389-8.992c0.231-0.37,15.803,5.665,15.803,5.665      c0.048-0.077-13.856-8.658-13.856-8.658c0.243-0.389,15.278,5.701,15.356,5.576l-13.017-8.134c0,0,14.533,6.16,14.825,5.692      c0,0-12.909-7.541-12.673-7.918c0.203-0.325,15.74,5.077,15.796,4.986c0,0-13.837-8.386-13.72-8.574      c0.105-0.169,14.851,6.107,14.851,6.107c0.155-0.248-13.301-8.312-13.301-8.312s15.213,5.373,15.44,5.01      c0.206-0.331-12.62-7.731-12.55-7.842c0,0,15.668,4.776,15.718,4.697c0.146-0.234-13.068-8.166-13.068-8.166      c0.17-0.272,15.22,5.144,15.42,4.823c0.042-0.068-12.939-7.658-12.747-7.965c0,0,15.502,4.991,15.587,4.854      c0.165-0.263-12.05-7.011-11.817-7.384c0.037-0.058,14.207,5.656,14.254,5.579c0,0-12.904-8.062-12.903-8.063      c0,0,14.497,6.341,14.684,6.041c0.062-0.1-12.145-7.127-11.938-7.459l14.778,5.363c0.041-0.065-13.85-8.291-13.687-8.552      c0.137-0.22,15.753,5.832,16.065,5.333l-13.202-8.25c0,0,17.181,6.715,17.347,6.45l-14.127-8.828      c0.053-0.085,14.849,6.493,15.016,6.225c0.281-0.449-13.676-8.39-13.606-8.502c0.313-0.502,17.078,6.939,17.134,6.849      c0.1-0.16-14.655-9.005-14.586-9.115c0.012-0.02,16.824,7.008,16.824,7.008s-14.053-8.309-13.84-8.648      c0.287-0.46,16.137,6.577,16.137,6.577c0.205-0.328-14.156-8.527-14.013-8.756c0,0,15.752,5.68,15.766,5.66      c0.106-0.171-13.044-7.497-12.75-7.967c0,0,16.662,6.492,16.926,6.068c0.069-0.111-14.148-8.585-14.033-8.769      c0,0,16.112,5.909,16.233,5.715c0,0-12.514-7.509-12.375-7.732c0.3-0.48,15.323,6.458,15.63,5.967      c0.102-0.163-13.096-7.804-12.925-8.077c0.296-0.475,17.135,6.421,17.374,6.038c0.198-0.317-14.574-8.888-14.476-9.045      c0.043-0.068,15.76,6.587,15.819,6.492l-12.053-7.532c0,0,17.093,6.119,17.13,6.06l-14.939-9.335      c0.174-0.278,16.551,6.632,16.551,6.632l-13.827-8.64l17.345,7.507c0.091-0.146-13.52-8.448-13.52-8.448      s17.229,5.789,17.23,5.786l-13.737-8.583l17.266,6.608l-13.034-8.145c0.123-0.197,16.247,6.995,16.396,6.756      c0,0-14.671-9.032-14.61-9.129c0.358-0.572,18.242,6.488,18.242,6.488s-13.736-8.306-13.612-8.505      c0.332-0.531,17.319,6.425,17.319,6.425s-13.404-7.699-13.1-8.186c0.174-0.279,17.987,7.147,17.987,7.147l-15.023-9.387      c0.326-0.521,17.995,7.421,17.995,7.421c0.004-0.007-14.44-8.307-14.118-8.822c0.216-0.346,17.198,7.501,17.203,7.494      c0.023-0.037-14.307-8.494-14.106-8.814l17.659,7.187c0.07-0.113-14.167-8.852-14.167-8.852      c0.094-0.15,17.612,7.767,17.612,7.767c0.148-0.236-16.239-10.147-16.239-10.147c0.297-0.476,21.111,8.044,21.111,8.044      l-15.292-9.555l20.166,7.631c0.05-0.08-16.006-10.001-16.006-10.001c0.104-0.167,18.733,8.641,19.097,8.058      c0.281-0.449-15.601-9.29-15.395-9.62c0.404-0.647,20.874,8.883,20.874,8.883l-15.758-9.846c0,0,20.507,8.687,20.692,8.391      c0.099-0.159-16.937-10.583-16.937-10.583c0.189-0.303,21.75,8.946,21.756,8.937c0,0-16.084-9.823-15.982-9.986      c0.137-0.219,19.576,8.196,19.576,8.196l-15.311-9.567c0,0,20.708,9.7,20.78,9.584c0.067-0.107-17.946-11.109-17.899-11.185      c0.432-0.691,22.492,9.363,22.678,9.067c0,0-16.765-9.652-16.395-10.245c0.017-0.027,22.106,9.333,22.106,9.333      c0.387-0.619-18.16-11.348-18.16-11.348c0.459-0.734,23.759,11.35,24.003,10.958c0.329-0.526-18.901-11.811-18.901-11.811      s23.651,11.405,24.064,10.743c0.209-0.335-19.705-12.313-19.705-12.313c0.424-0.678,26.221,11.347,26.221,11.347      s-20.211-11.689-19.789-12.365l24.354,12.066c0.219-0.351-19.975-12.482-19.975-12.482s25.429,12.527,25.636,12.195      c0,0-21.154-12.266-20.726-12.951c0,0,26.36,12.759,26.606,12.367l-21.606-13.501l28.932,13.46l-23.138-14.458      c0,0,27.769,14.448,28.038,14.016c0.263-0.42-22.515-14.068-22.515-14.068c0.333-0.532,29.495,14.265,29.518,14.228      c0,0-23.775-13.996-23.389-14.615l28.912,14.961l-24.41-15.253l33.381,16.189L265.485,40.56      c0.396-0.635,34.619,18.511,35,17.902l-28.317-17.695c0.074-0.119,37.357,20.034,37.914,19.144      c0.46-0.736-30.977-19.28-30.942-19.335l39.116,20.949c0.277-0.444-32.341-20.209-32.341-20.209      c0.493-0.79,46.572,24.479,46.767,24.169c0.73-1.17-38.362-23.971-38.362-23.971l52.225,28.655      c0.27-0.431-44.669-25.92-43.773-27.353c1.004-1.607,59.482,34.064,59.482,34.064l-53.766-33.596" style="fill:none;stroke:#262626;stroke-width:2;stroke-linecap:round;stroke-linejoin:round;"/><path d="M133.833,403.013      c0,0-26.557-15.956-26.27-16.415l58.937,31.786c0.422-0.676-85.709-53.557-85.709-53.557l104.732,60.455      c1.724-2.759-116.453-72.768-116.453-72.768c1.03-1.649,131.381,79.359,132.412,77.71c0,0-142.279-86.396-141.151-88.201      c1.688-2.703,150.164,94.321,152.34,90.839c1.034-1.654-56.17-35.099-56.17-35.099l66.057,36.852      c0.484-0.775-44.577-27.119-44.247-27.648c0,0,52.941,29.351,53.066,29.15l-38.295-23.929      c0.313-0.501,47.981,25.612,48.036,25.525c0.66-1.056-35.042-20.822-34.56-21.596c0.175-0.28,44.027,22.655,44.027,22.655      s-31.321-19.378-31.234-19.517l38.536,20.73c0.074-0.12-31.892-19.929-31.892-19.929s37.205,20.345,37.526,19.831l-28.8-17.997      c0.537-0.858,35.72,18.518,35.72,18.518s-29.09-16.945-28.537-17.831c0.423-0.679,34.099,17.897,34.544,17.185      c0,0-25.897-15.741-25.699-16.059c0,0,31.915,17.294,32.454,16.432c0.484-0.775-25.548-15.376-25.283-15.799      c0.606-0.971,32.235,15.418,32.235,15.418L266.6,425.037c0.111-0.177,29.136,14.745,29.136,14.745      c0.038-0.06-23.499-14.685-23.499-14.685s27.48,14.101,27.625,13.869c0,0-22.266-13.899-22.26-13.909      c0,0,26.896,14.802,27.449,13.918c0.193-0.31-22.862-14.054-22.758-14.221c0.275-0.44,28.062,13.035,28.277,12.689      c0,0-21.184-12.737-20.959-13.097l26.727,13.297c0.325-0.52-22.303-13.937-22.303-13.937c0.494-0.792,28.028,13.639,28.428,13      c0.325-0.521-20.419-12.759-20.419-12.759c0.012-0.02,26.117,11.813,26.396,11.366c0.182-0.29-19.968-12.478-19.968-12.478      c0.403-0.646,24.863,11.2,25.163,10.721c0,0-19.063-11.841-19.031-11.892l23.31,10.519c0.238-0.382-18.408-11.502-18.408-11.502      c0.201-0.323,24.954,10.833,24.954,10.833s-19.875-11.925-19.653-12.28c0.187-0.299,22.989,11.529,23.192,11.205      c0.206-0.33-19.913-12.073-19.746-12.339c0,0,23.73,10.889,24.191,10.151c0,0-17.618-10.574-17.422-10.887      c0.422-0.676,22.03,9.021,22.076,8.946c0.26-0.414-17.714-10.224-17.334-10.831l21.295,9.055      c0.286-0.458-16.904-10.273-16.774-10.481c0,0,20.858,10.052,21.017,9.799l-18.189-11.366l21.837,8.734      c0.293-0.47-17.019-10.634-17.019-10.634s20.241,10.149,20.636,9.519c0.333-0.533-16.562-10.059-16.432-10.267      c0.113-0.182,20.246,8.869,20.592,8.315c0.353-0.563-16.154-9.985-16.105-10.063c0,0,19.583,8.707,19.87,8.248l-16.088-10.053      c0.396-0.632,19.766,8.326,19.772,8.314c0,0-16.935-10.199-16.763-10.475c0.078-0.125,18.783,8.933,18.953,8.661l-15.547-9.715      c0,0,18.237,8.138,18.446,7.804l-15.86-9.911c0,0,19.85,8.403,19.902,8.318c0,0-16.483-9.637-16.186-10.113      c0.064-0.104,19.909,8.553,19.909,8.553s-17.474-10.247-17.172-10.729l19.025,8.147c0,0-15.917-9.39-15.667-9.79      c0.073-0.117,19.931,8.388,19.931,8.388c0.277-0.443-17.078-10.267-16.896-10.558c0.333-0.532,20.322,8.095,20.322,8.095      s-17.002-10.271-16.844-10.525c0.372-0.595,19.841,8.19,19.841,8.19s-16.938-9.957-16.655-10.407      c0.147-0.237,19.692,8.202,19.692,8.202l-15.776-9.858c0.213-0.34,18.486,7.245,18.486,7.245      c0.07-0.113-14.739-8.969-14.63-9.143c0.265-0.424,16.862,6.355,16.862,6.355c0.182-0.29-14.246-8.806-14.203-8.875      c0,0,17.432,6.298,17.616,6.002c0.266-0.424-13.947-8.715-13.947-8.715l17.102,6.546l-14.304-8.938      c0,0,15.983,6.204,16.147,5.942c0,0-13.725-8.172-13.543-8.463c0,0,17.762,6.6,17.782,6.567l-15.78-9.86      c0.094-0.151,16.812,6.985,16.833,6.951l-13.863-8.663c0.31-0.496,16.91,7.39,16.91,7.39l-15.999-9.997      c0.327-0.522,16.392,7.074,16.417,7.032l-14.214-8.882c0.063-0.099,16.716,6.267,16.813,6.112c0,0-14.126-8.416-13.941-8.712      l16.889,6.463c0.097-0.153-15.178-9.484-15.178-9.484s16.994,7.772,17.174,7.483c0.292-0.467-15.558-9.359-15.395-9.62      c0.188-0.3,17.286,5.914,17.39,5.747c0.275-0.44-14.085-8.163-13.799-8.622c0.014-0.022,17.545,6.574,17.763,6.227      c0.311-0.497-15.994-9.393-15.724-9.825c0.223-0.355,16.101,6.693,16.101,6.693c0.123-0.196-15.076-9.276-15.011-9.38      c0.341-0.546,16.873,7.228,17.203,6.7c0.104-0.166-14.712-9.193-14.712-9.193s16.88,7.051,17.206,6.528      c0,0-15.647-9.317-15.441-9.648c0.068-0.108,16.497,6.169,16.697,5.849l-13.489-8.429l16.09,5.993      c0.109-0.176-14.92-9.323-14.92-9.323c0.322-0.515,16.011,7.175,16.161,6.935c0.047-0.075-14.356-8.827-14.292-8.931      c0.044-0.071,16.177,5.765,16.177,5.765c0.146-0.233-15.212-9.506-15.212-9.506c0.217-0.347,16.431,6.604,16.431,6.604      s-14.5-8.705-14.341-8.961c0.254-0.406,15.537,5.551,15.537,5.551c0.292-0.467-13.882-8.174-13.657-8.533      c0.316-0.506,16.436,6.943,16.516,6.815c0.059-0.095-15.31-8.981-15.047-9.402l15.862,5.545      c0.072-0.115-14.296-8.934-14.296-8.934c0.069-0.11,14.999,5.979,14.999,5.979c0.15-0.24-15.043-9.202-14.954-9.344      c0.229-0.366,16.702,7.031,16.758,6.942c0.268-0.428-15.402-9.624-15.402-9.624l17.48,7.569      c0.062-0.098-14.877-9.296-14.877-9.296s15.159,5.864,15.391,5.494l-15.626-9.764l17.492,7.07c0,0-16.581-9.657-16.265-10.163      c0,0,15.859,6.744,16.146,6.284c0.058-0.091-14.187-8.864-14.187-8.864l16.831,5.623l-15.647-9.778      c0.217-0.347,16.773,6.962,16.967,6.652c0.313-0.5-16.655-10.029-16.485-10.301c0.293-0.469,16.204,6.978,16.204,6.978      l-14.195-8.87c0,0,15.672,5.679,15.727,5.592c0.266-0.425-14.787-9.24-14.787-9.24c0.228-0.365,15.188,6.258,15.477,5.797      c0.121-0.193-15.245-9.453-15.213-9.506l16.904,6.09c0,0-15.638-9.239-15.398-9.622c0.045-0.072,16.379,5.793,16.519,5.569      l-16.637-10.396l15.846,6.155c0.072-0.115-15.745-9.839-15.745-9.839l16.463,5.496c0,0-15.777-9.671-15.693-9.806      c0.016-0.024,16.565,6.983,16.565,6.983s-16.214-10.113-16.206-10.126c0.208-0.332,16.986,5.68,16.986,5.68      c0.184-0.293-16.647-10.382-16.638-10.396c0,0,16.457,7.512,16.725,7.084L467.602,258c0.012-0.02,17.796,5.97,17.796,5.97      s-17.527-10.194-17.187-10.739l17.781,6.975c0,0-17.313-10.313-17.086-10.677l16.742,5.592l-16.972-10.605      c0.112-0.181,16.348,6.279,16.533,5.981l-16.054-10.032c0.061-0.098,17.455,7.138,17.455,7.138s-17.508-10.459-17.292-10.805      c0,0,16.736,7.075,17.013,6.632c0.282-0.451-17.269-10.79-17.269-10.79s17.022,6.306,17.079,6.215      c0.364-0.583-18.917-11.379-18.719-11.696c0.252-0.403,18.409,6.8,18.409,6.8c0.227-0.362-19.566-11.431-19.209-12.003      c0,0,19.068,8.148,19.309,7.764l-18.752-11.718l18.44,8.088l-19.731-12.33c0,0,19.143,8.476,19.173,8.428      c0.301-0.482-20.078-12.527-20.069-12.541l19.239,7.767c0.216-0.346-20.087-12.551-20.087-12.551      c0.297-0.476,19.954,9.74,20.136,9.449c0,0-20.96-12.499-20.691-12.929c0.36-0.577,19.271,7.956,19.484,7.614      c0.185-0.294-20.763-12.923-20.739-12.959l20.153,9.034c0.075-0.119-22.253-12.99-21.842-13.648l20.627,8.855      c0,0-20.668-12.89-20.656-12.908c0.125-0.199,19.484,7.637,19.691,7.304c0.396-0.634-22.962-13.622-22.636-14.145l21.134,8.464      c0,0-23.493-14.577-23.447-14.651c0.289-0.462,22.81,10.938,22.81,10.938c0.348-0.557-25.642-15.586-25.445-15.9      c0.216-0.345,22.721,10.495,22.721,10.495s-23.886-14.799-23.829-14.89c0,0,22.622,9.953,22.789,9.686l-26.01-16.252      c0.239-0.383,23.522,11.899,23.873,11.339c0.436-0.698-26.848-16.776-26.848-16.776c0.361-0.578,24.748,12.037,24.748,12.037      l-28.386-17.737c0.456-0.731,25.713,12.034,25.713,12.034l-30.785-19.237c0.173-0.277,27.489,12.398,27.489,12.398      c0.672-1.077-34.132-20.188-33.619-21.008c0.575-0.921,29.786,14.664,29.901,14.479c0.817-1.308-37.288-22.959-37.135-23.204      l34.293,16.917c0.371-0.595-46.466-26.926-45.519-28.442c0.032-0.052,40.021,23.37,40.789,22.14l-53.754-33.589      c0,0,47.374,27.718,48.394,26.086c0,0-131.1-76.437-128.635-80.38c0.069-0.112,121.806,77.345,124.019,73.804L328.619,47.851      c0.452-0.723,104.38,60.254,104.38,60.254L342.09,51.298c0,0,82.183,50.43,83.282,48.669C426.686,97.865,353.409,55,353.409,55      c0.502-0.803,51.331,29.72,52.23,28.28c0.251-0.401-27.028-16.889-27.028-16.889" style="fill:none;stroke:#262626;stroke-width:2;stroke-linecap:round;stroke-linejoin:round;"/><path d="M171.021,315.283      c0,0-0.179-0.099-0.173-0.108l3.333-2.959c0.02-0.032-3.776-2.358-3.776-2.358l7.085-0.562c0.113-0.181-6.459-4.036-6.459-4.036      c0.072-0.115,10.528,1.708,10.6,1.593c0,0-10.909-6.618-10.82-6.761c0.132-0.213,13.155,4.246,13.325,3.973      c0.258-0.413-13.228-8.266-13.228-8.266l15.565,5.302c0.188-0.3-16.768-10.193-16.64-10.397c0,0,19.31,8.153,19.353,8.084      l-18.944-11.838c0.139-0.223,22.254,9.47,22.278,9.431c0.432-0.69-22.558-13.393-22.242-13.898      c0.099-0.158,25.635,11.162,25.635,11.162s-25.564-15.814-25.493-15.93l28.804,14.649c0.07-0.112-30.143-18.835-30.143-18.835      s31.593,16.726,31.864,16.293L169.9,270.422c0.511-0.817,34.064,17.482,34.064,17.482s-35.612-20.74-34.932-21.828      c0.453-0.725,36.308,19.345,36.784,18.583c0,0-36.719-22.324-36.44-22.771c0,0,39.133,22.091,39.8,21.023      c0.759-1.215-40.244-24.227-39.83-24.889c0.819-1.311,42.868,22.062,42.868,22.062l-42.536-26.58      c0.176-0.282,45.473,24.954,45.473,24.954c0.072-0.115-45.58-28.482-45.58-28.482s46.99,26.531,47.243,26.126      c0,0-47.444-29.618-47.432-29.639c0,0,49.264,29.854,50.299,28.196c0.429-0.687-50.867-31.271-50.636-31.641      c0.533-0.854,52.584,28.809,53.003,28.139c0,0-53.825-32.397-53.27-33.286l56.882,32.142      c0.85-1.359-57.324-35.821-57.324-35.821c1.097-1.755,59.921,34.648,60.806,33.232c0.933-1.492-59.57-37.224-59.57-37.224      c0.029-0.046,62.075,35.203,62.767,34.095c0.562-0.9-63.17-39.474-63.17-39.474c1.111-1.779,65.214,37.582,66.039,36.263      c0,0-66.534-41.336-66.427-41.508l68.824,38.959c0.852-1.362-68.974-43.099-68.974-43.099      c0.625-1.001,73.609,41.237,73.609,41.237s-74.972-44.954-74.121-46.316c0.64-1.023,75.669,45.544,76.364,44.432      c0.825-1.32-77.438-46.912-76.774-47.974c0,0,77.817,47.224,79.419,44.66c0,0-79.252-47.662-78.416-49      c1.657-2.652,81.295,46.353,81.476,46.064c1.174-1.879-83.804-48.539-82.084-51.292l84.708,48.68      c1.366-2.186-85.468-52.03-84.849-53.02c0,0,87.502,52.895,88.199,51.778l-88.838-55.512l91.171,52.06      c1.533-2.454-91.457-57.148-91.457-57.148s87.064,55,88.849,52.143c1.699-2.718-88.676-53.939-88.015-54.998      c0.365-0.584,61.489,36.349,62.602,34.567c1.299-2.078-62.753-38.812-62.573-39.1c0,0,31.174,16.358,31.644,15.606      l-31.976-19.981" style="fill:none;stroke:#262626;stroke-width:2;stroke-linecap:round;stroke-linejoin:round;"/><path d="M269.352,232.611      c0,0-2.37-1.401-2.335-1.458l6.042-1.266c0.168-0.269-33.758-21.095-33.758-21.095l37.191,18.251      c1.09-1.744-73.151-45.71-73.151-45.71c0.595-0.953,76.822,44.3,77.419,43.346c0,0-102.581-62.288-101.767-63.59      c1.15-1.841,102.897,63.244,104.38,60.871c1.709-2.734-93.536-58.447-93.536-58.447l95.984,55.552      c0.838-1.342-77.743-47.304-77.17-48.221c0,0,79.792,46.276,79.983,45.971l-59.776-37.352      c0.415-0.664,63.15,35.13,63.221,35.016c0.727-1.162-38.718-23.01-38.187-23.862c0.166-0.265,41.7,21.201,41.7,21.201      s-8.513-5.261-8.486-5.303" style="fill:none;stroke:#262626;stroke-width:2;stroke-linecap:round;stroke-linejoin:round;"/><path d="M307.529,265.872      c0,0-1.71-1.004-1.681-1.051l6.639-0.893c0.134-0.215-26.943-16.836-26.943-16.836l31.614,14.767      c0.545-0.873-35.985-22.487-35.985-22.487c0.312-0.499,41.188,21.401,41.5,20.902c0,0-38.343-23.277-38.036-23.768      c0.448-0.717,41.152,22.646,41.73,21.722c0.713-1.141-38.444-24.022-38.444-24.022l41.989,21.814      c0.437-0.699-40.121-24.407-39.823-24.884c0,0,43.529,23.418,43.631,23.255l-40.286-25.173      c0.289-0.463,44.536,23.451,44.587,23.37c0.783-1.253-41.835-24.864-41.261-25.783c0.178-0.285,44.732,23.098,44.732,23.098      s-41.148-25.46-41.035-25.642l43.643,23.921c0.101-0.161-42.527-26.574-42.527-26.574s42.304,23.632,42.67,23.045      l-39.202-24.497c0.589-0.942,39.04,20.592,39.04,20.592s-37.846-22.04-37.123-23.197c0.404-0.646,32.079,17.845,32.503,17.167      c0,0-10.444-6.338-10.36-6.474" style="fill:none;stroke:#262626;stroke-width:2;stroke-linecap:round;stroke-linejoin:round;"/><path d="M179.393,322.941      c0,0-0.411-0.238-0.402-0.252l7.181-0.555c0.022-0.034-4.024-2.515-4.024-2.515l8.698,0.446      c0.084-0.136-4.551-2.844-4.551-2.844c0.066-0.105,9.759,1.216,9.825,1.109c0,0-6.551-3.971-6.496-4.059      c0.097-0.155,9.857,2.083,9.981,1.883c0.142-0.227-6.812-4.256-6.812-4.256l10.146,1.915c0.095-0.152-8.163-4.956-8.098-5.06      c0,0,11.688,3.351,11.714,3.311l-8.477-5.296c0.077-0.123,12.809,3.543,12.822,3.521c0.199-0.317-9.762-5.776-9.617-6.009      c0.052-0.084,14.103,3.956,14.103,3.956s-10.566-6.531-10.534-6.583l14.6,5.774c0.03-0.049-13.574-8.482-13.574-8.482      s15.972,6.653,16.103,6.443l-12.723-7.95c0.238-0.38,16.574,6.554,16.574,6.554s-15.009-8.755-14.729-9.204      c0.207-0.33,17.385,6.945,17.602,6.598c0,0-14.231-8.642-14.119-8.822c0,0,18.077,8.104,18.372,7.633      c0.303-0.484-15.823-9.52-15.658-9.784c0.36-0.576,19.792,7.642,19.792,7.642l-16.089-10.053c0.074-0.119,19.83,8.93,19.83,8.93      c0.028-0.045-17.468-10.915-17.468-10.915s19.816,9.216,19.919,9.052c0,0-17.692-11.044-17.687-11.052      c0,0,20.881,10.756,21.304,10.079c0.165-0.264-19.423-11.939-19.334-12.081c0.219-0.352,22.686,9.577,22.857,9.302      c0,0-19.782-11.893-19.571-12.229l23.974,11.577c0.32-0.513-21.988-13.739-21.988-13.739      c0.461-0.737,26.204,12.437,26.576,11.842c0.349-0.559-21.942-13.711-21.942-13.711c0.011-0.018,26.079,11.788,26.356,11.343      c0.209-0.334-23.085-14.426-23.085-14.426c0.438-0.7,26.827,12.482,27.152,11.963c0,0-23.973-14.891-23.933-14.955      l27.298,13.012c0.313-0.501-24.532-15.328-24.532-15.328c0.248-0.397,30.305,14.177,30.305,14.177s-27.697-16.614-27.386-17.112      c0.248-0.396,30.146,16.15,30.415,15.719c0.301-0.481-28.698-17.394-28.456-17.781c0,0,31.662,16.215,32.29,15.21      c0,0-28.011-16.826-27.707-17.313c0.625-1.001,31.857,15.211,31.926,15.102c0.425-0.68-29.662-17.15-29.04-18.146l32.681,16.169      c0.492-0.788-29.98-18.237-29.758-18.594c0,0,33.645,18.27,33.905,17.852l-32.14-20.083l15.109,4.532      c0.207-0.333-11.856-7.408-11.856-7.408" style="fill:none;stroke:#262626;stroke-width:2;stroke-linecap:round;stroke-linejoin:round;"/></g></g></g></g><g id="Layer_1"/></svg>