<?xml version="1.0" ?><!DOCTYPE svg  PUBLIC '-//W3C//DTD SVG 1.1//EN'  'http://www.w3.org/Graphics/SVG/1.1/DTD/svg11.dtd'><svg height="512px" style="enable-background:new 0 0 512 512;" version="1.1" viewBox="0 0 512 512" width="512px" xml:space="preserve" xmlns="http://www.w3.org/2000/svg" xmlns:xlink="http://www.w3.org/1999/xlink"><g id="youtube__x2C__logo__x2C__social__x2C__media_x2C__icons_x2C_"><g><g><g><path d="M118.457,375.174      l-63.727-39.82c0.828-1.325,39.161,21.788,39.977,20.482c0,0-44.907-27.327-44.577-27.854c0,0,35.135,19.741,35.688,18.857      c0.575-0.92-39.317-23.113-38.663-24.159l30.932,14.774c0,0-34.888-21.728-34.855-21.78l28.649,13.925l-31.219-19.508      c0.442-0.708,24.861,10.93,24.861,10.93c0.446-0.714-27.858-17.407-27.858-17.407c0.406-0.648,24.571,10.566,24.571,10.566      s-26.587-16.499-26.536-16.581c0.338-0.542,21.758,9.569,22.176,8.9l-24.518-15.32c0,0,21.42,10.296,21.684,9.874      c0,0-23.719-13.916-23.312-14.567c0.428-0.686,21.508,8.94,21.508,8.94c0.381-0.609-22.626-14.139-22.626-14.139      s20.05,7.755,20.118,7.646c0.102-0.163-21.764-13.6-21.764-13.6l20.716,9.53c0.065-0.104-20.831-13.017-20.831-13.017      s18.4,9.126,18.776,8.525c0,0-19.859-12.364-19.839-12.396l18.65,7.471c0.001-0.002-18.996-11.87-18.996-11.87      c0.286-0.457,19.229,8.219,19.235,8.209l-19.237-12.021c0,0,16.957,6.134,17.004,6.06L27,254.925c0,0,17.986,8.026,18.081,7.875      c0.093-0.148-19.426-11.483-19.132-11.955l19.046,7.119l-19.439-12.146c0,0,18.418,7.872,18.44,7.836      c0.256-0.41-17.582-10.819-17.506-10.939c0,0,17.747,6.894,17.913,6.627c0,0-17.65-10.934-17.608-11.002      c0,0,16.866,6.918,17.188,6.403c0.154-0.247-17.38-10.86-17.38-10.86l17.7,6.814c0.105-0.169-17.143-10.712-17.143-10.712      l17.136,7.307l-16.241-10.149c0.003-0.005,15.625,6.374,15.788,6.113l-15.462-9.662c0.07-0.113,15.652,5.979,15.836,5.685      l-14.739-9.21c0.272-0.436,16.181,5.456,16.181,5.456c0.106-0.169-15.322-9.574-15.322-9.574      c0.283-0.453,15.656,6.705,15.656,6.705c0.211-0.338-16.366-9.523-16.05-10.029c0,0,17.219,6.758,17.297,6.632      c0.181-0.291-16.099-10.06-16.099-10.06l15.568,5.085c0.273-0.437-15.056-9.231-14.977-9.358l15.575,5.834      c0,0-14.567-8.961-14.504-9.063c0.105-0.168,16.438,6.469,16.438,6.469c0.006-0.01-14.526-8.629-14.325-8.951l15.557,5.193      c0.014-0.022-15.864-9.437-15.65-9.779c0.042-0.067,16.654,6.728,16.654,6.728l-14.869-9.291      c0.073-0.117,16.098,5.45,16.244,5.217c0.187-0.299-14.493-9.056-14.493-9.056s15.78,4.962,15.847,4.855      c0,0-13.883-8.667-13.879-8.673c0.138-0.22,14.043,4.856,14.043,4.856l-13.878-8.672c0,0,15.399,5.617,15.667,5.189      c0,0-14.28-8.399-14.044-8.776c0,0,15.374,5.225,15.548,4.947l-12.587-7.865c0,0,14.401,5.676,14.536,5.46      c0.112-0.18-13.757-8.596-13.757-8.596l15.202,5.772c0.226-0.361-12.948-8.091-12.948-8.091l14.742,5.883      c0,0-14.714-8.598-14.446-9.027c0,0,16.567,5.544,16.595,5.5c0.258-0.413-13.532-8.456-13.532-8.456l14.819,6.02      c0,0-14.724-8.782-14.536-9.083c0.138-0.221,15.581,5.619,15.581,5.619l-13.006-8.127c0,0,14.727,6.123,14.83,5.957      l-12.857-8.034c0.084-0.135,15.622,5.122,15.85,4.756c0.098-0.157-14.757-9.221-14.757-9.221      c0.252-0.404,16.975,6.117,16.975,6.117l-13.792-8.618c0.028-0.046,14.419,5.492,14.419,5.492l-13.19-8.242      c0.001-0.002,15.018,5.553,15.018,5.553c0.169-0.271-13.184-8.238-13.184-8.238c0.321-0.513,16.242,6.125,16.282,6.061      c0.062-0.099-14.588-8.854-14.471-9.042c0,0,14.889,6.305,15.093,5.979l-11.73-7.33c0.113-0.182,15.27,5.557,15.302,5.506      c0.126-0.202-14.388-8.991-14.388-8.991l15.962,5.689c0.197-0.316-14.038-8.289-13.821-8.636c0,0,16.294,6.91,16.361,6.803      c0,0-13.232-8.224-13.212-8.256c0.263-0.42,15.243,4.964,15.36,4.777c0,0-13.576-7.937-13.33-8.33      c0.065-0.104,14.611,5.503,14.611,5.503s-11.696-6.94-11.531-7.205l14.81,4.959L82.3,122.072      c0.125-0.2,14.344,5.782,14.42,5.661c0.062-0.1-12.384-7.738-12.384-7.738c0.237-0.38,15.208,6.262,15.306,6.105l-12.916-8.071      c0.164-0.262,13.534,5.377,13.534,5.377c0.047-0.074-12.243-7.65-12.243-7.65c0.131-0.209,14.737,5.228,14.737,5.228      l-11.426-7.14c0,0,15.224,5.555,15.42,5.242l-13.468-8.416c0,0,14.838,5.581,14.953,5.398      c0.154-0.248-11.734-7.332-11.734-7.332l15.676,4.845c0.115-0.184-13.579-7.889-13.311-8.317l16.651,6.993      c0,0-14.152-8.609-14.047-8.777c0,0,15.261,6.585,15.561,6.106c0,0-12.433-7.478-12.302-7.687      c0.23-0.369,15.563,5.631,15.721,5.38l-14.103-8.813c0,0,16.656,6.354,16.908,5.951c0,0-12.563-7.545-12.426-7.765      c0.013-0.021,15.47,6.26,15.47,6.26s-12.991-7.741-12.822-8.012c0.052-0.083,15.691,6.702,15.691,6.702      c0.245-0.392-14.794-9.053-14.708-9.191c0.043-0.069,17.799,7.474,17.884,7.337c0.243-0.389-14.957-9.07-14.833-9.269      c0.316-0.506,16.812,7.135,16.812,7.135c0.214-0.343-13.69-8.555-13.69-8.555c0.133-0.213,16.507,5.747,16.507,5.747      l-13.478-8.422c0.038-0.062,17.383,6.578,17.383,6.578s-13.563-7.904-13.306-8.314c0,0,16.694,5.423,16.763,5.313      c0.023-0.037-12.849-7.594-12.654-7.907c0,0,16.065,6.72,16.374,6.227c0.106-0.169-14.146-8.467-13.979-8.735      c0.24-0.384,18.449,7.646,18.783,7.111c0.285-0.457-14.37-8.979-14.37-8.979c0.29-0.463,16.574,7.032,16.585,7.015      c0.135-0.217-13.364-7.866-13.146-8.214c0.128-0.206,16.319,6.136,16.389,6.024l-14.122-8.824c0,0,17.254,8.099,17.603,7.54      c0,0-14.075-8.286-13.846-8.652c0.049-0.079,17.438,7.186,17.438,7.186l-13.958-8.722c0.121-0.193,18.047,7.317,18.047,7.317      l-15.83-9.892c0.261-0.417,20.364,8.386,20.364,8.386s-15.227-8.994-14.993-9.369l19.576,7.49c0,0-16.661-9.716-16.349-10.216      l21.093,8.323c0,0-16.647-9.866-16.406-10.251c0,0,17.966,8.662,18.199,8.289c0,0-15.068-9.394-15.058-9.409      c0.028-0.044,19.77,8.605,19.77,8.605s-16.031-9.682-15.88-9.923c0.203-0.324,18.411,8.248,18.411,8.248      c0.272-0.436-15.3-8.964-15.032-9.393c0.052-0.083,19.94,7.907,19.94,7.907c0.298-0.477-16.117-9.376-15.805-9.876      c0.185-0.296,19.656,8.815,20.037,8.207c0.018-0.029-15.658-9.784-15.658-9.784l22.083,8.872c0,0-16.601-9.807-16.347-10.215      c0.222-0.354,20.941,9.932,21.161,9.58c0,0-18.764-11.342-18.591-11.618c0.359-0.575,23.997,9.904,24.033,9.846      c0.079-0.126-18.063-11.287-18.063-11.287l22.071,9.856c0.273-0.438-17.849-10.609-17.604-11c0,0,21.784,11.064,22.034,10.665      l-17.696-11.057c0,0,20.458,10.496,20.873,9.831l-17.622-11.011c0.022-0.035,23.658,10.998,23.658,10.998      c0.292-0.467-18.771-11.209-18.537-11.583c0,0,23.365,10.649,23.422,10.558c0,0-20.3-12.26-20.109-12.565      c0.174-0.278,24.969,12.507,25.031,12.408c0.102-0.162-21.309-12.495-20.94-13.085l26.77,12.297c0,0-21.235-13.133-21.174-13.23      c0,0,26.433,12.502,26.457,12.465c0,0-21.374-12.832-21.138-13.208c0.396-0.634,29.167,13.668,29.167,13.668      c0.261-0.417-23.238-13.479-22.77-14.228c0.38-0.608,26.825,13.833,27.086,13.416c0.025-0.042-21.727-13.468-21.678-13.545      c0,0,27.45,14.903,27.861,14.246c0,0-23.429-13.808-23.055-14.406c0.03-0.048,28.12,13.947,28.12,13.947      S257.383,42.014,257.46,41.89c0,0,31.499,15.81,31.767,15.383c0,0-25.419-15.594-25.289-15.802      c0.172-0.275,30.242,16.159,30.472,15.792c0,0-25.871-14.916-25.309-15.815c0.238-0.381,34.502,17.063,34.502,17.063      c0.54-0.866-28.633-17.892-28.633-17.892s37.29,21.079,37.87,20.15l-32.009-20.001L320.01,62      c0.164-0.262-33.603-19.591-32.971-20.603l47.173,24.444L295.47,41.634c0.035-0.057,53.889,31.098,54.697,29.804      c0.972-1.555-45.906-28.686-45.906-28.686" style="fill:none;stroke:#231F20;stroke-width:2;stroke-linecap:round;stroke-linejoin:round;"/><path d="M134.023,403.142      c0,0-26.664-16.63-26.65-16.652l54.07,29.741l-77.627-48.508l92.857,54.73c2.179-3.487-101.823-62.858-101.478-63.41      c0,0,114.317,70.749,115.868,68.267c2.236-3.579-127.321-74.29-124.953-78.079l137.959,81.576L57.82,339.421      c2.428-3.886,154.815,93.223,154.815,93.223c0.824-1.319-55.051-34.399-55.051-34.399l66.841,37.315      c0,0-45.628-26.634-44.785-27.984l54.058,29.313c0.718-1.149-38.333-23.953-38.333-23.953s43.963,25.722,44.624,24.664      l-35.865-22.411c0,0,42.818,24.001,43.138,23.489c0.544-0.87-32.396-20.243-32.396-20.243l41.068,20.637      c0,0-30.67-17.824-30.067-18.788c0.171-0.274,36.338,20.167,36.772,19.473c0,0-29.113-17.388-28.751-17.967l36.154,18.106      c0,0-26.872-15.702-26.382-16.485c0.478-0.766,34.243,16.539,34.243,16.539s-25.468-15.508-25.286-15.801      c0.661-1.058,31.891,16.139,31.908,16.112c0.13-0.208-25.243-15.773-25.243-15.773s29.521,15.47,29.799,15.023      c0.256-0.409-23.121-14.198-23.009-14.378c0.138-0.221,30.103,15.53,30.706,14.563l-23.01-14.379      c0.321-0.513,29.185,14.169,29.185,14.169c0.483-0.774-24.53-14.384-24.106-15.063c0.431-0.688,29.411,14.646,29.616,14.318      c0,0-23.083-13.945-22.868-14.289c0.095-0.151,28.166,13.132,28.211,13.06c0.218-0.348-20.886-12.05-20.436-12.77      c0.464-0.743,27.331,12.621,27.516,12.326c0.309-0.494-21.79-13.615-21.79-13.615l25.983,12.834      c0.177-0.283-21.076-13.171-21.076-13.171l24.124,11.476c0,0-20.197-12.043-19.938-12.459      c0.44-0.705,26.054,11.927,26.054,11.927c0.425-0.681-19.598-12.246-19.598-12.246l22.105,10.71      c0.045-0.071-19.356-11.692-19.176-11.982c0.017-0.024,23.523,12.606,24.008,11.83c0.34-0.543-19.061-11.646-18.942-11.836      l22.746,9.539c0.268-0.429-17.869-10.49-17.565-10.976c0,0,21.602,10.922,21.956,10.354      c0.116-0.186-18.343-11.462-18.343-11.462s21.184,10.909,21.563,10.302c0.122-0.193-18.969-11.357-18.746-11.714      c0.088-0.141,22.438,9.455,22.438,9.455s-17.609-10.982-17.6-10.998c0,0,23.787,10.461,23.967,10.173l-18.149-11.341      c0.107-0.171,20.108,9.727,20.229,9.532l-17.022-10.637c0.236-0.378,21.354,8.661,21.498,8.43      c0.265-0.423-16.955-10.087-16.728-10.452c0.288-0.46,21.714,8.837,21.764,8.758c0,0-18.092-10.564-17.759-11.098      c0.032-0.052,21.478,9.851,21.478,9.851s-17.63-10.946-17.598-10.997c0,0,20.074,9.695,20.313,9.313      c0.147-0.236-17.533-10.957-17.533-10.957c0.066-0.106,20.976,9.631,20.993,9.602c0.144-0.229-17.149-10.717-17.149-10.717      l19.838,8.958c0,0-16.637-10.278-16.584-10.363c0,0,20.203,8.395,20.267,8.292c0.209-0.334-16.46-9.856-16.268-10.165      c0.266-0.425,19.346,8.685,19.346,8.685l-17.532-10.955c0.107-0.172,20.555,8.788,20.555,8.788l-15.833-9.894      c0,0,19.67,8.064,19.917,7.668c0.215-0.344-16.132-10.08-16.132-10.08s18.158,6.855,18.269,6.679l-15.584-9.738l19.572,7.378      l-15.485-9.676c0.037-0.059,18.881,8.447,19.053,8.173c0.298-0.478-16.636-10.292-16.589-10.366      c0.329-0.527,18.721,7.149,18.721,7.149c0.344-0.55-15.516-9.099-15.247-9.527c0.273-0.438,19.534,7.335,19.534,7.335      s-16.435-9.84-16.242-10.149c0.111-0.178,20.079,7.395,20.079,7.395c0.051-0.082-16.678-10.421-16.678-10.421      c0.126-0.202,18.783,8.177,18.877,8.027c0,0-16.517-10.038-16.39-10.242l18.974,7.219c0.097-0.155-16.237-9.467-15.933-9.956      c0.231-0.37,17.396,7.422,17.396,7.422l-14.807-9.252c0.22-0.351,17.786,6.645,17.786,6.645      c0.154-0.246-15.119-9.214-15.014-9.383c0.155-0.249,17.609,6.886,17.709,6.727l-14.951-9.342l17.852,7.978      c0,0-14.914-9.029-14.784-9.237c0,0,16.596,6.718,16.656,6.621c0,0-15.729-9.241-15.465-9.663l17.619,6.824      c0.16-0.257-14.404-8.703-14.271-8.917c0.109-0.174,16.751,5.938,16.751,5.938l-14.714-9.193      c0.122-0.196,17.764,6.771,18.018,6.364c0.017-0.025-15.43-9.158-15.212-9.506c0.122-0.195,16.731,6.764,16.731,6.764      s-14.649-8.438-14.328-8.953c0,0,15.993,7.191,16.198,6.863c0.111-0.177-15.247-9.065-15.039-9.397l16.012,6.506      c0,0-15.659-9.124-15.362-9.6c0.079-0.126,17.89,7.211,18.168,6.764l-14.53-9.079c0.125-0.2,16.068,5.192,16.068,5.192      s-14.946-8.923-14.759-9.223l17.759,6.841c0.063-0.101-14.977-8.722-14.69-9.18c0.008-0.014,16.006,5.751,16.006,5.751      c0.095-0.152-15.407-9.628-15.407-9.628l17.589,7.216c0.063-0.102-16.131-9.754-15.984-9.988l17.028,6.233l-14.894-9.306      c0.296-0.472,16.236,6.683,16.302,6.576c0,0-15.391-8.979-15.104-9.438l17.182,7.39c0.159-0.254-14.707-9.189-14.707-9.189      l16.082,5.229c0.307-0.491-14.932-9.33-14.932-9.33l16.569,5.683c0.316-0.507-15.734-9.832-15.734-9.832      c0.261-0.418,16.534,7.539,16.775,7.152c0,0-14.845-9.188-14.806-9.251c0,0,16.368,6.563,16.54,6.288      c0.111-0.179-15.797-9.87-15.797-9.87l16.222,5.7c0,0-14.032-8.506-13.914-8.694c0.028-0.046,15.554,6.208,15.554,6.208      s-15.145-9.077-14.971-9.354c0.049-0.079,16.447,6.416,16.472,6.375c0.056-0.089-15.991-9.452-15.748-9.841      c0.018-0.028,16.294,5.786,16.294,5.786c0.035-0.056-14.182-8.861-14.182-8.861l15.131,4.326      c0.184-0.294-14.394-8.994-14.394-8.994c0.229-0.365,15.713,6.787,15.943,6.419c0.125-0.2-15.478-9.064-15.204-9.501      c0,0,16.544,5.621,16.697,5.375c0.207-0.33-15.854-9.906-15.854-9.906l16.527,6.237l-16.002-9.999      c0,0,16.326,5.578,16.446,5.387c0,0-15.025-9.196-14.938-9.335c0,0,16.105,5.829,16.373,5.4c0.024-0.039-16.5-10.31-16.5-10.31      s17.136,7.235,17.177,7.17c0.139-0.223-15.995-9.994-15.995-9.994c0.289-0.461,16.769,5.491,16.769,5.491      c0.306-0.49-16.285-10.176-16.285-10.176s17.393,6.276,17.572,5.989c0.23-0.369-16.282-10.093-16.246-10.151      c0.046-0.073,15.573,5.863,15.753,5.576c0.207-0.331-15.938-9.648-15.798-9.872c0.095-0.152,15.921,5.417,15.921,5.417      l-15.189-9.491c0,0,16.048,6.193,16.359,5.693c0.351-0.562-17.016-10.632-17.016-10.632c0.117-0.188,17.814,6.636,17.882,6.529      l-17.441-10.898c0,0,16.417,5.827,16.503,5.69c0,0-16.402-10.139-16.353-10.218c0.122-0.195,17.301,8.161,17.626,7.639      l-18.83-11.767c0.088-0.141,17.902,8.128,18.167,7.705c0.294-0.471-17.538-10.554-17.356-10.845      c0.202-0.323,17.593,7.706,17.593,7.706s-18.054-11.135-17.988-11.241c0.008-0.013,18.157,8.02,18.157,8.02      c0.367-0.589-18.605-11.626-18.605-11.626c0.211-0.338,17.105,7.217,17.105,7.217l-17.337-10.833c0,0,18.446,6.613,18.508,6.516      l-20.304-12.687c0.049-0.077,19.238,7.308,19.238,7.308c0.293-0.47-18.855-11.782-18.855-11.782      c0.063-0.101,18.415,7.169,18.415,7.169c0.102-0.162-20.104-11.701-19.718-12.321c0.234-0.375,18.927,8.09,18.927,8.09      c0.357-0.572-19.705-12.313-19.705-12.313s18.282,7.169,18.334,7.086c0.107-0.171-20.687-12.926-20.687-12.926      c0.264-0.421,20.615,9.89,20.842,9.526c0.461-0.737-22.14-13.137-21.826-13.639c0.133-0.212,20.151,8.552,20.151,8.552      c0.355-0.569-22.191-13.425-21.993-13.743l20.58,8.915c0,0-21.525-12.731-21.202-13.249l20.704,9.799      c0.342-0.547-22.603-13.167-22.173-13.855c0.353-0.564,21.729,10.907,21.928,10.589c0.359-0.575-24.05-14.136-23.649-14.777      c0.083-0.132,21.581,8.377,21.581,8.377l-25.34-15.833c0.008-0.012,22.633,9.639,22.633,9.639      c0.061-0.096-26.974-16.136-26.65-16.653c0,0,24.371,11.793,24.443,11.677l-26.391-16.491      c0.083-0.132,24.202,12.192,24.567,11.607c0.265-0.424-29.243-17.714-28.992-18.116c0.433-0.691,25.668,10.953,25.668,10.953      s-31.714-19.646-31.638-19.769l30.187,14.937c0.334-0.534-34.484-21.548-34.484-21.548c0.304-0.486,30.938,16.24,31.226,15.78      c0.21-0.336-37.501-23.433-37.501-23.433l32.604,15.425c0.582-0.931-44.395-27.74-44.395-27.74      c0.533-0.853,39.515,19.577,39.515,19.577L313.584,44.558c0,0,130.523,78.911,131.445,77.436      c2.344-3.751-120.273-75.156-120.273-75.156c0.74-1.186,115.086,68.464,115.086,68.464      C441.53,112.6,333.768,49.02,333.768,49.02s97.189,60.92,98.887,58.204l-89.223-55.752c0.654-1.047,74.901,43.683,75.582,42.595      c0,0-56.848-33.689-56.024-35.008" style="fill:none;stroke:#231F20;stroke-width:2;stroke-linecap:round;stroke-linejoin:round;"/><path d="M233.514,267.288      l-93.935-58.697c1.985-3.177,91.328,56.921,93.283,53.793c0,0-93.197-56.719-92.515-57.81c0,0,91.036,56.708,92.504,54.36      c1.352-2.164-93.34-54.904-91.802-57.365l92.691,53.366c0,0-92.131-57.376-92.043-57.516l91.58,53.249l-90.353-56.459      c1.678-2.686,89.339,51.221,89.339,51.221c1.376-2.203-88.268-55.156-88.268-55.156c1.563-2.501,89.462,51.115,89.462,51.115      s-87.351-54.209-87.183-54.478c1.411-2.258,84.877,51.956,86.619,49.168l-84.334-52.698c0,0,82.892,50.513,83.966,48.792      c0,0-83.304-48.946-81.907-51.181c1.747-2.795,82.499,47.052,82.499,47.052c1.314-2.104-79.073-49.41-79.073-49.41      s78.506,44.765,78.791,44.309c0.348-0.556-75.122-46.941-75.122-46.941l75.448,43.731c0.223-0.356-71.755-44.837-71.755-44.837      s69.239,43.368,70.726,40.988c0,0-67.958-42.32-67.893-42.424l67.919,38.258c0.005-0.007-62.916-39.314-62.916-39.314      c1.012-1.619,64.43,36.497,64.451,36.463l-59.241-37.018c0,0,86.643,50.153,86.904,49.736l-81.028-50.632      c0,0,105.494,63.814,106.086,62.867c0.506-0.808-103.99-61.417-102.389-63.98" style="fill:none;stroke:#231F20;stroke-width:2;stroke-linecap:round;stroke-linejoin:round;"/><path d="M159.982,308.995      c0,0-7.714-4.81-7.709-4.817l17.743,7.042l-23.193-14.493l30.583,15.817c0.682-1.092-31.535-19.465-31.427-19.638      c0,0,38.213,20.861,38.716,20.058c0.727-1.163-41.412-24.166-40.643-25.396l47.939,25.325l-49.676-31.041      c0.845-1.352,54.858,30.764,54.858,30.764c0.813-1.301-54.271-33.913-54.271-33.913l62.923,34.868      c0,0-64.868-37.862-63.667-39.783l70.695,39.709c1.32-2.113-70.931-44.323-70.931-44.323s74.628,45.941,75.765,44.123      l-76.895-48.049c0,0,82.666,49.586,83.293,48.581c1.35-2.161-82.089-51.296-82.089-51.296l89.646,50.992      c0,0-92.728-53.974-90.944-56.828c0.466-0.745,96.181,59.218,97.359,57.331c0,0-98.346-58.788-97.148-60.704l104.427,60.768      c0,0-106.011-62.118-104.157-65.084c1.635-2.617,112.366,65.356,112.366,65.356s-113.623-69.255-112.838-70.51      c2.581-4.131,119.962,71.278,120.027,71.175c0.613-0.981-120.442-75.26-120.442-75.26s124.372,76.838,125.593,74.882      c1.311-2.098-125.763-77.303-125.187-78.225c0.632-1.012,131.206,83.518,133.973,79.091l-133.969-83.713      c1.625-2.6,141.264,84.204,141.264,84.204c2.972-4.756-145.318-85.005-142.712-89.176c2.28-3.648,148.542,91.043,149.626,89.309      c0,0-150.563-90.916-149.14-93.193c0.552-0.883,155.906,93.443,156.171,93.019c1.561-2.497-158.227-91.696-155.002-96.857      c2.942-4.708,162.977,99.574,164.146,97.703c2.401-3.843-165.094-103.163-165.094-103.163l170.833,103.345      c1.446-2.314-170.377-106.462-170.377-106.462l175.118,105.826c0,0-80.964-48.322-79.944-49.954      c1.569-2.511,88.368,50.864,88.368,50.864c1.785-2.856-83.468-52.157-83.468-52.157l87.62,51.648      c0.193-0.311-86.425-52.247-85.635-53.511c0.063-0.101,90.319,57.584,92.26,54.479c1.548-2.478-88.701-54.223-88.16-55.088      l94.191,54.184c1.289-2.062-91.61-54-90.152-56.333c0,0,93.731,58.805,95.349,56.215c0.572-0.916-92.506-57.805-92.506-57.805      s94.282,59.685,96.053,56.85c0.612-0.979-95.005-56.868-93.882-58.664c0.406-0.651,97.238,56.194,97.238,56.194      s-93.177-58.115-93.128-58.193c0,0,97.664,57.969,98.448,56.714l-93.329-58.318c0.525-0.84,93.955,56.928,94.552,55.974      l-91.603-57.24c1.108-1.774,93.329,54.825,94.008,53.739c1.361-2.18-90.819-54.142-89.647-56.017      c1.306-2.089,92.086,53.203,92.312,52.84c0,0-90.134-52.571-88.448-55.269c0.144-0.23,90.201,52.793,90.201,52.793      s-86.559-53.734-86.399-53.988c0,0,86.022,52.772,87.101,51.047c0.724-1.158-84.335-52.699-84.335-52.699      c0.287-0.459,85.643,50.172,85.72,50.047c0.687-1.098-81.753-51.085-81.753-51.085l82.325,48.004      c0,0-79.199-48.937-78.951-49.334c0,0,79.407,45.846,79.677,45.415c0.948-1.519-76.296-45.726-75.42-47.128      c1.102-1.763,76.191,44.207,76.191,44.207L185.849,169.475c1.037-1.66,184.819,111.431,184.819,111.431L192.702,169.7      c0,0,176.359,110.796,178.773,106.934c2.268-3.629-172.229-107.621-172.229-107.621s170.155,104.106,171.287,102.294      L204.812,167.753l166.518,99.199L212.027,167.41c0.327-0.523,158.874,98.99,160.422,96.51      c2.882-4.61-155.839-96.379-155.39-97.098c2.961-4.74,154.654,92.09,154.654,92.09c3.228-5.165-150.526-88.447-148.004-92.484      c2.273-3.638,149.136,88.319,149.136,88.319s-143.941-86.085-142.208-88.861c0.863-1.381,142.802,84.08,142.802,84.08      c0.441-0.706-135.434-84.628-135.434-84.628c0.967-1.548,134.607,81.942,135.325,80.793c0,0-130.883-79.438-129.828-81.126      l129.572,76.329c0.761-1.218-125.018-72.787-122.621-76.622c1.741-2.787,122.077,72.833,122.077,72.833l-116.456-72.77      c1.563-2.5,116.862,68.554,116.862,68.554c1.103-1.763-110.628-67.452-109.874-68.657c1.05-1.681,109.345,65.478,110.015,64.406      l-102.902-64.3l103.963,61.786c0,0-98.493-59.687-97.658-61.023c0,0,96.99,57.667,97.37,57.059c0,0-93.789-55.064-92.197-57.611      l91.919,53.252c0.895-1.432-84.732-51.292-83.988-52.482c0.592-0.947,83.818,47.845,83.818,47.845l-76.745-47.955      c0.567-0.907,76.114,45.29,77.293,43.403c0.072-0.115-69.784-41.414-68.799-42.99c0.531-0.852,68.19,38.919,68.19,38.919      s-62.672-36.23-61.354-38.338c0,0,60.481,36.365,61.304,35.048c0.412-0.659-56.927-33.861-56.157-35.091l54.824,30.758      c0,0-50.695-29.518-49.725-31.071c0.226-0.361,48.271,27.354,49.07,26.074l-39.297-24.555      c0.3-0.479,36.283,17.824,36.283,17.824s-28.527-17.04-28.174-17.605l24.554,11.087c0.057-0.09-13.299-7.744-13.044-8.151" style="fill:none;stroke:#231F20;stroke-width:2;stroke-linecap:round;stroke-linejoin:round;"/></g><g><path d="M118.457,375.174      l-63.727-39.82c0.828-1.325,39.161,21.788,39.977,20.482c0,0-44.907-27.327-44.577-27.854c0,0,35.135,19.741,35.688,18.857      c0.575-0.92-39.317-23.113-38.663-24.159l30.932,14.774c0,0-34.888-21.728-34.855-21.78l28.649,13.925l-31.219-19.508      c0.442-0.708,24.861,10.93,24.861,10.93c0.446-0.714-27.858-17.407-27.858-17.407c0.406-0.648,24.571,10.566,24.571,10.566      s-26.587-16.499-26.536-16.581c0.338-0.542,21.758,9.569,22.176,8.9l-24.518-15.32c0,0,21.42,10.296,21.684,9.874      c0,0-23.719-13.916-23.312-14.567c0.428-0.686,21.508,8.94,21.508,8.94c0.381-0.609-22.626-14.139-22.626-14.139      s20.05,7.755,20.118,7.646c0.102-0.163-21.764-13.6-21.764-13.6l20.716,9.53c0.065-0.104-20.831-13.017-20.831-13.017      s18.4,9.126,18.776,8.525c0,0-19.859-12.364-19.839-12.396l18.65,7.471c0.001-0.002-18.996-11.87-18.996-11.87      c0.286-0.457,19.229,8.219,19.235,8.209l-19.237-12.021c0,0,16.957,6.134,17.004,6.06L27,254.925c0,0,17.986,8.026,18.081,7.875      c0.093-0.148-19.426-11.483-19.132-11.955l19.046,7.119l-19.439-12.146c0,0,18.418,7.872,18.44,7.836      c0.256-0.41-17.582-10.819-17.506-10.939c0,0,17.747,6.894,17.913,6.627c0,0-17.65-10.934-17.608-11.002      c0,0,16.866,6.918,17.188,6.403c0.154-0.247-17.38-10.86-17.38-10.86l17.7,6.814c0.105-0.169-17.143-10.712-17.143-10.712      l17.136,7.307l-16.241-10.149c0.003-0.005,15.625,6.374,15.788,6.113l-15.462-9.662c0.07-0.113,15.652,5.979,15.836,5.685      l-14.739-9.21c0.272-0.436,16.181,5.456,16.181,5.456c0.106-0.169-15.322-9.574-15.322-9.574      c0.283-0.453,15.656,6.705,15.656,6.705c0.211-0.338-16.366-9.523-16.05-10.029c0,0,17.219,6.758,17.297,6.632      c0.181-0.291-16.099-10.06-16.099-10.06l15.568,5.085c0.273-0.437-15.056-9.231-14.977-9.358l15.575,5.834      c0,0-14.567-8.961-14.504-9.063c0.105-0.168,16.438,6.469,16.438,6.469c0.006-0.01-14.526-8.629-14.325-8.951l15.557,5.193      c0.014-0.022-15.864-9.437-15.65-9.779c0.042-0.067,16.654,6.728,16.654,6.728l-14.869-9.291      c0.073-0.117,16.098,5.45,16.244,5.217c0.187-0.299-14.493-9.056-14.493-9.056s15.78,4.962,15.847,4.855      c0,0-13.883-8.667-13.879-8.673c0.138-0.22,14.043,4.856,14.043,4.856l-13.878-8.672c0,0,15.399,5.617,15.667,5.189      c0,0-14.28-8.399-14.044-8.776c0,0,15.374,5.225,15.548,4.947l-12.587-7.865c0,0,14.401,5.676,14.536,5.46      c0.112-0.18-13.757-8.596-13.757-8.596l15.202,5.772c0.226-0.361-12.948-8.091-12.948-8.091l14.742,5.883      c0,0-14.714-8.598-14.446-9.027c0,0,16.567,5.544,16.595,5.5c0.258-0.413-13.532-8.456-13.532-8.456l14.819,6.02      c0,0-14.724-8.782-14.536-9.083c0.138-0.221,15.581,5.619,15.581,5.619l-13.006-8.127c0,0,14.727,6.123,14.83,5.957      l-12.857-8.034c0.084-0.135,15.622,5.122,15.85,4.756c0.098-0.157-14.757-9.221-14.757-9.221      c0.252-0.404,16.975,6.117,16.975,6.117l-13.792-8.618c0.028-0.046,14.419,5.492,14.419,5.492l-13.19-8.242      c0.001-0.002,15.018,5.553,15.018,5.553c0.169-0.271-13.184-8.238-13.184-8.238c0.321-0.513,16.242,6.125,16.282,6.061      c0.062-0.099-14.588-8.854-14.471-9.042c0,0,14.889,6.305,15.093,5.979l-11.73-7.33c0.113-0.182,15.27,5.557,15.302,5.506      c0.126-0.202-14.388-8.991-14.388-8.991l15.962,5.689c0.197-0.316-14.038-8.289-13.821-8.636c0,0,16.294,6.91,16.361,6.803      c0,0-13.232-8.224-13.212-8.256c0.263-0.42,15.243,4.964,15.36,4.777c0,0-13.576-7.937-13.33-8.33      c0.065-0.104,14.611,5.503,14.611,5.503s-11.696-6.94-11.531-7.205l14.81,4.959L82.3,122.072      c0.125-0.2,14.344,5.782,14.42,5.661c0.062-0.1-12.384-7.738-12.384-7.738c0.237-0.38,15.208,6.262,15.306,6.105l-12.916-8.071      c0.164-0.262,13.534,5.377,13.534,5.377c0.047-0.074-12.243-7.65-12.243-7.65c0.131-0.209,14.737,5.228,14.737,5.228      l-11.426-7.14c0,0,15.224,5.555,15.42,5.242l-13.468-8.416c0,0,14.838,5.581,14.953,5.398      c0.154-0.248-11.734-7.332-11.734-7.332l15.676,4.845c0.115-0.184-13.579-7.889-13.311-8.317l16.651,6.993      c0,0-14.152-8.609-14.047-8.777c0,0,15.261,6.585,15.561,6.106c0,0-12.433-7.478-12.302-7.687      c0.23-0.369,15.563,5.631,15.721,5.38l-14.103-8.813c0,0,16.656,6.354,16.908,5.951c0,0-12.563-7.545-12.426-7.765      c0.013-0.021,15.47,6.26,15.47,6.26s-12.991-7.741-12.822-8.012c0.052-0.083,15.691,6.702,15.691,6.702      c0.245-0.392-14.794-9.053-14.708-9.191c0.043-0.069,17.799,7.474,17.884,7.337c0.243-0.389-14.957-9.07-14.833-9.269      c0.316-0.506,16.812,7.135,16.812,7.135c0.214-0.343-13.69-8.555-13.69-8.555c0.133-0.213,16.507,5.747,16.507,5.747      l-13.478-8.422c0.038-0.062,17.383,6.578,17.383,6.578s-13.563-7.904-13.306-8.314c0,0,16.694,5.423,16.763,5.313      c0.023-0.037-12.849-7.594-12.654-7.907c0,0,16.065,6.72,16.374,6.227c0.106-0.169-14.146-8.467-13.979-8.735      c0.24-0.384,18.449,7.646,18.783,7.111c0.285-0.457-14.37-8.979-14.37-8.979c0.29-0.463,16.574,7.032,16.585,7.015      c0.135-0.217-13.364-7.866-13.146-8.214c0.128-0.206,16.319,6.136,16.389,6.024l-14.122-8.824c0,0,17.254,8.099,17.603,7.54      c0,0-14.075-8.286-13.846-8.652c0.049-0.079,17.438,7.186,17.438,7.186l-13.958-8.722c0.121-0.193,18.047,7.317,18.047,7.317      l-15.83-9.892c0.261-0.417,20.364,8.386,20.364,8.386s-15.227-8.994-14.993-9.369l19.576,7.49c0,0-16.661-9.716-16.349-10.216      l21.093,8.323c0,0-16.647-9.866-16.406-10.251c0,0,17.966,8.662,18.199,8.289c0,0-15.068-9.394-15.058-9.409      c0.028-0.044,19.77,8.605,19.77,8.605s-16.031-9.682-15.88-9.923c0.203-0.324,18.411,8.248,18.411,8.248      c0.272-0.436-15.3-8.964-15.032-9.393c0.052-0.083,19.94,7.907,19.94,7.907c0.298-0.477-16.117-9.376-15.805-9.876      c0.185-0.296,19.656,8.815,20.037,8.207c0.018-0.029-15.658-9.784-15.658-9.784l22.083,8.872c0,0-16.601-9.807-16.347-10.215      c0.222-0.354,20.941,9.932,21.161,9.58c0,0-18.764-11.342-18.591-11.618c0.359-0.575,23.997,9.904,24.033,9.846      c0.079-0.126-18.063-11.287-18.063-11.287l22.071,9.856c0.273-0.438-17.849-10.609-17.604-11c0,0,21.784,11.064,22.034,10.665      l-17.696-11.057c0,0,20.458,10.496,20.873,9.831l-17.622-11.011c0.022-0.035,23.658,10.998,23.658,10.998      c0.292-0.467-18.771-11.209-18.537-11.583c0,0,23.365,10.649,23.422,10.558c0,0-20.3-12.26-20.109-12.565      c0.174-0.278,24.969,12.507,25.031,12.408c0.102-0.162-21.309-12.495-20.94-13.085l26.77,12.297c0,0-21.235-13.133-21.174-13.23      c0,0,26.433,12.502,26.457,12.465c0,0-21.374-12.832-21.138-13.208c0.396-0.634,29.167,13.668,29.167,13.668      c0.261-0.417-23.238-13.479-22.77-14.228c0.38-0.608,26.825,13.833,27.086,13.416c0.025-0.042-21.727-13.468-21.678-13.545      c0,0,27.45,14.903,27.861,14.246c0,0-23.429-13.808-23.055-14.406c0.03-0.048,28.12,13.947,28.12,13.947      S257.383,42.014,257.46,41.89c0,0,31.499,15.81,31.767,15.383c0,0-25.419-15.594-25.289-15.802      c0.172-0.275,30.242,16.159,30.472,15.792c0,0-25.871-14.916-25.309-15.815c0.238-0.381,34.502,17.063,34.502,17.063      c0.54-0.866-28.633-17.892-28.633-17.892s37.29,21.079,37.87,20.15l-32.009-20.001L320.01,62      c0.164-0.262-33.603-19.591-32.971-20.603l47.173,24.444L295.47,41.634c0.035-0.057,53.889,31.098,54.697,29.804      c0.972-1.555-45.906-28.686-45.906-28.686" style="fill:none;stroke:#262626;stroke-width:2;stroke-linecap:round;stroke-linejoin:round;"/><path d="M134.023,403.142      c0,0-26.664-16.63-26.65-16.652l54.07,29.741l-77.627-48.508l92.857,54.73c2.179-3.487-101.823-62.858-101.478-63.41      c0,0,114.317,70.749,115.868,68.267c2.236-3.579-127.321-74.29-124.953-78.079l137.959,81.576L57.82,339.421      c2.428-3.886,154.815,93.223,154.815,93.223c0.824-1.319-55.051-34.399-55.051-34.399l66.841,37.315      c0,0-45.628-26.634-44.785-27.984l54.058,29.313c0.718-1.149-38.333-23.953-38.333-23.953s43.963,25.722,44.624,24.664      l-35.865-22.411c0,0,42.818,24.001,43.138,23.489c0.544-0.87-32.396-20.243-32.396-20.243l41.068,20.637      c0,0-30.67-17.824-30.067-18.788c0.171-0.274,36.338,20.167,36.772,19.473c0,0-29.113-17.388-28.751-17.967l36.154,18.106      c0,0-26.872-15.702-26.382-16.485c0.478-0.766,34.243,16.539,34.243,16.539s-25.468-15.508-25.286-15.801      c0.661-1.058,31.891,16.139,31.908,16.112c0.13-0.208-25.243-15.773-25.243-15.773s29.521,15.47,29.799,15.023      c0.256-0.409-23.121-14.198-23.009-14.378c0.138-0.221,30.103,15.53,30.706,14.563l-23.01-14.379      c0.321-0.513,29.185,14.169,29.185,14.169c0.483-0.774-24.53-14.384-24.106-15.063c0.431-0.688,29.411,14.646,29.616,14.318      c0,0-23.083-13.945-22.868-14.289c0.095-0.151,28.166,13.132,28.211,13.06c0.218-0.348-20.886-12.05-20.436-12.77      c0.464-0.743,27.331,12.621,27.516,12.326c0.309-0.494-21.79-13.615-21.79-13.615l25.983,12.834      c0.177-0.283-21.076-13.171-21.076-13.171l24.124,11.476c0,0-20.197-12.043-19.938-12.459      c0.44-0.705,26.054,11.927,26.054,11.927c0.425-0.681-19.598-12.246-19.598-12.246l22.105,10.71      c0.045-0.071-19.356-11.692-19.176-11.982c0.017-0.024,23.523,12.606,24.008,11.83c0.34-0.543-19.061-11.646-18.942-11.836      l22.746,9.539c0.268-0.429-17.869-10.49-17.565-10.976c0,0,21.602,10.922,21.956,10.354      c0.116-0.186-18.343-11.462-18.343-11.462s21.184,10.909,21.563,10.302c0.122-0.193-18.969-11.357-18.746-11.714      c0.088-0.141,22.438,9.455,22.438,9.455s-17.609-10.982-17.6-10.998c0,0,23.787,10.461,23.967,10.173l-18.149-11.341      c0.107-0.171,20.108,9.727,20.229,9.532l-17.022-10.637c0.236-0.378,21.354,8.661,21.498,8.43      c0.265-0.423-16.955-10.087-16.728-10.452c0.288-0.46,21.714,8.837,21.764,8.758c0,0-18.092-10.564-17.759-11.098      c0.032-0.052,21.478,9.851,21.478,9.851s-17.63-10.946-17.598-10.997c0,0,20.074,9.695,20.313,9.313      c0.147-0.236-17.533-10.957-17.533-10.957c0.066-0.106,20.976,9.631,20.993,9.602c0.144-0.229-17.149-10.717-17.149-10.717      l19.838,8.958c0,0-16.637-10.278-16.584-10.363c0,0,20.203,8.395,20.267,8.292c0.209-0.334-16.46-9.856-16.268-10.165      c0.266-0.425,19.346,8.685,19.346,8.685l-17.532-10.955c0.107-0.172,20.555,8.788,20.555,8.788l-15.833-9.894      c0,0,19.67,8.064,19.917,7.668c0.215-0.344-16.132-10.08-16.132-10.08s18.158,6.855,18.269,6.679l-15.584-9.738l19.572,7.378      l-15.485-9.676c0.037-0.059,18.881,8.447,19.053,8.173c0.298-0.478-16.636-10.292-16.589-10.366      c0.329-0.527,18.721,7.149,18.721,7.149c0.344-0.55-15.516-9.099-15.247-9.527c0.273-0.438,19.534,7.335,19.534,7.335      s-16.435-9.84-16.242-10.149c0.111-0.178,20.079,7.395,20.079,7.395c0.051-0.082-16.678-10.421-16.678-10.421      c0.126-0.202,18.783,8.177,18.877,8.027c0,0-16.517-10.038-16.39-10.242l18.974,7.219c0.097-0.155-16.237-9.467-15.933-9.956      c0.231-0.37,17.396,7.422,17.396,7.422l-14.807-9.252c0.22-0.351,17.786,6.645,17.786,6.645      c0.154-0.246-15.119-9.214-15.014-9.383c0.155-0.249,17.609,6.886,17.709,6.727l-14.951-9.342l17.852,7.978      c0,0-14.914-9.029-14.784-9.237c0,0,16.596,6.718,16.656,6.621c0,0-15.729-9.241-15.465-9.663l17.619,6.824      c0.16-0.257-14.404-8.703-14.271-8.917c0.109-0.174,16.751,5.938,16.751,5.938l-14.714-9.193      c0.122-0.196,17.764,6.771,18.018,6.364c0.017-0.025-15.43-9.158-15.212-9.506c0.122-0.195,16.731,6.764,16.731,6.764      s-14.649-8.438-14.328-8.953c0,0,15.993,7.191,16.198,6.863c0.111-0.177-15.247-9.065-15.039-9.397l16.012,6.506      c0,0-15.659-9.124-15.362-9.6c0.079-0.126,17.89,7.211,18.168,6.764l-14.53-9.079c0.125-0.2,16.068,5.192,16.068,5.192      s-14.946-8.923-14.759-9.223l17.759,6.841c0.063-0.101-14.977-8.722-14.69-9.18c0.008-0.014,16.006,5.751,16.006,5.751      c0.095-0.152-15.407-9.628-15.407-9.628l17.589,7.216c0.063-0.102-16.131-9.754-15.984-9.988l17.028,6.233l-14.894-9.306      c0.296-0.472,16.236,6.683,16.302,6.576c0,0-15.391-8.979-15.104-9.438l17.182,7.39c0.159-0.254-14.707-9.189-14.707-9.189      l16.082,5.229c0.307-0.491-14.932-9.33-14.932-9.33l16.569,5.683c0.316-0.507-15.734-9.832-15.734-9.832      c0.261-0.418,16.534,7.539,16.775,7.152c0,0-14.845-9.188-14.806-9.251c0,0,16.368,6.563,16.54,6.288      c0.111-0.179-15.797-9.87-15.797-9.87l16.222,5.7c0,0-14.032-8.506-13.914-8.694c0.028-0.046,15.554,6.208,15.554,6.208      s-15.145-9.077-14.971-9.354c0.049-0.079,16.447,6.416,16.472,6.375c0.056-0.089-15.991-9.452-15.748-9.841      c0.018-0.028,16.294,5.786,16.294,5.786c0.035-0.056-14.182-8.861-14.182-8.861l15.131,4.326      c0.184-0.294-14.394-8.994-14.394-8.994c0.229-0.365,15.713,6.787,15.943,6.419c0.125-0.2-15.478-9.064-15.204-9.501      c0,0,16.544,5.621,16.697,5.375c0.207-0.33-15.854-9.906-15.854-9.906l16.527,6.237l-16.002-9.999      c0,0,16.326,5.578,16.446,5.387c0,0-15.025-9.196-14.938-9.335c0,0,16.105,5.829,16.373,5.4c0.024-0.039-16.5-10.31-16.5-10.31      s17.136,7.235,17.177,7.17c0.139-0.223-15.995-9.994-15.995-9.994c0.289-0.461,16.769,5.491,16.769,5.491      c0.306-0.49-16.285-10.176-16.285-10.176s17.393,6.276,17.572,5.989c0.23-0.369-16.282-10.093-16.246-10.151      c0.046-0.073,15.573,5.863,15.753,5.576c0.207-0.331-15.938-9.648-15.798-9.872c0.095-0.152,15.921,5.417,15.921,5.417      l-15.189-9.491c0,0,16.048,6.193,16.359,5.693c0.351-0.562-17.016-10.632-17.016-10.632c0.117-0.188,17.814,6.636,17.882,6.529      l-17.441-10.898c0,0,16.417,5.827,16.503,5.69c0,0-16.402-10.139-16.353-10.218c0.122-0.195,17.301,8.161,17.626,7.639      l-18.83-11.767c0.088-0.141,17.902,8.128,18.167,7.705c0.294-0.471-17.538-10.554-17.356-10.845      c0.202-0.323,17.593,7.706,17.593,7.706s-18.054-11.135-17.988-11.241c0.008-0.013,18.157,8.02,18.157,8.02      c0.367-0.589-18.605-11.626-18.605-11.626c0.211-0.338,17.105,7.217,17.105,7.217l-17.337-10.833c0,0,18.446,6.613,18.508,6.516      l-20.304-12.687c0.049-0.077,19.238,7.308,19.238,7.308c0.293-0.47-18.855-11.782-18.855-11.782      c0.063-0.101,18.415,7.169,18.415,7.169c0.102-0.162-20.104-11.701-19.718-12.321c0.234-0.375,18.927,8.09,18.927,8.09      c0.357-0.572-19.705-12.313-19.705-12.313s18.282,7.169,18.334,7.086c0.107-0.171-20.687-12.926-20.687-12.926      c0.264-0.421,20.615,9.89,20.842,9.526c0.461-0.737-22.14-13.137-21.826-13.639c0.133-0.212,20.151,8.552,20.151,8.552      c0.355-0.569-22.191-13.425-21.993-13.743l20.58,8.915c0,0-21.525-12.731-21.202-13.249l20.704,9.799      c0.342-0.547-22.603-13.167-22.173-13.855c0.353-0.564,21.729,10.907,21.928,10.589c0.359-0.575-24.05-14.136-23.649-14.777      c0.083-0.132,21.581,8.377,21.581,8.377l-25.34-15.833c0.008-0.012,22.633,9.639,22.633,9.639      c0.061-0.096-26.974-16.136-26.65-16.653c0,0,24.371,11.793,24.443,11.677l-26.391-16.491      c0.083-0.132,24.202,12.192,24.567,11.607c0.265-0.424-29.243-17.714-28.992-18.116c0.433-0.691,25.668,10.953,25.668,10.953      s-31.714-19.646-31.638-19.769l30.187,14.937c0.334-0.534-34.484-21.548-34.484-21.548c0.304-0.486,30.938,16.24,31.226,15.78      c0.21-0.336-37.501-23.433-37.501-23.433l32.604,15.425c0.582-0.931-44.395-27.74-44.395-27.74      c0.533-0.853,39.515,19.577,39.515,19.577L313.584,44.558c0,0,130.523,78.911,131.445,77.436      c2.344-3.751-120.273-75.156-120.273-75.156c0.74-1.186,115.086,68.464,115.086,68.464      C441.53,112.6,333.768,49.02,333.768,49.02s97.189,60.92,98.887,58.204l-89.223-55.752c0.654-1.047,74.901,43.683,75.582,42.595      c0,0-56.848-33.689-56.024-35.008" style="fill:none;stroke:#262626;stroke-width:2;stroke-linecap:round;stroke-linejoin:round;"/><path d="M233.514,267.288      l-93.935-58.697c1.985-3.177,91.328,56.921,93.283,53.793c0,0-93.197-56.719-92.515-57.81c0,0,91.036,56.708,92.504,54.36      c1.352-2.164-93.34-54.904-91.802-57.365l92.691,53.366c0,0-92.131-57.376-92.043-57.516l91.58,53.249l-90.353-56.459      c1.678-2.686,89.339,51.221,89.339,51.221c1.376-2.203-88.268-55.156-88.268-55.156c1.563-2.501,89.462,51.115,89.462,51.115      s-87.351-54.209-87.183-54.478c1.411-2.258,84.877,51.956,86.619,49.168l-84.334-52.698c0,0,82.892,50.513,83.966,48.792      c0,0-83.304-48.946-81.907-51.181c1.747-2.795,82.499,47.052,82.499,47.052c1.314-2.104-79.073-49.41-79.073-49.41      s78.506,44.765,78.791,44.309c0.348-0.556-75.122-46.941-75.122-46.941l75.448,43.731c0.223-0.356-71.755-44.837-71.755-44.837      s69.239,43.368,70.726,40.988c0,0-67.958-42.32-67.893-42.424l67.919,38.258c0.005-0.007-62.916-39.314-62.916-39.314      c1.012-1.619,64.43,36.497,64.451,36.463l-59.241-37.018c0,0,86.643,50.153,86.904,49.736l-81.028-50.632      c0,0,105.494,63.814,106.086,62.867c0.506-0.808-103.99-61.417-102.389-63.98" style="fill:none;stroke:#262626;stroke-width:2;stroke-linecap:round;stroke-linejoin:round;"/><path d="M159.982,308.995      c0,0-7.714-4.81-7.709-4.817l17.743,7.042l-23.193-14.493l30.583,15.817c0.682-1.092-31.535-19.465-31.427-19.638      c0,0,38.213,20.861,38.716,20.058c0.727-1.163-41.412-24.166-40.643-25.396l47.939,25.325l-49.676-31.041      c0.845-1.352,54.858,30.764,54.858,30.764c0.813-1.301-54.271-33.913-54.271-33.913l62.923,34.868      c0,0-64.868-37.862-63.667-39.783l70.695,39.709c1.32-2.113-70.931-44.323-70.931-44.323s74.628,45.941,75.765,44.123      l-76.895-48.049c0,0,82.666,49.586,83.293,48.581c1.35-2.161-82.089-51.296-82.089-51.296l89.646,50.992      c0,0-92.728-53.974-90.944-56.828c0.466-0.745,96.181,59.218,97.359,57.331c0,0-98.346-58.788-97.148-60.704l104.427,60.768      c0,0-106.011-62.118-104.157-65.084c1.635-2.617,112.366,65.356,112.366,65.356s-113.623-69.255-112.838-70.51      c2.581-4.131,119.962,71.278,120.027,71.175c0.613-0.981-120.442-75.26-120.442-75.26s124.372,76.838,125.593,74.882      c1.311-2.098-125.763-77.303-125.187-78.225c0.632-1.012,131.206,83.518,133.973,79.091l-133.969-83.713      c1.625-2.6,141.264,84.204,141.264,84.204c2.972-4.756-145.318-85.005-142.712-89.176c2.28-3.648,148.542,91.043,149.626,89.309      c0,0-150.563-90.916-149.14-93.193c0.552-0.883,155.906,93.443,156.171,93.019c1.561-2.497-158.227-91.696-155.002-96.857      c2.942-4.708,162.977,99.574,164.146,97.703c2.401-3.843-165.094-103.163-165.094-103.163l170.833,103.345      c1.446-2.314-170.377-106.462-170.377-106.462l175.118,105.826c0,0-80.964-48.322-79.944-49.954      c1.569-2.511,88.368,50.864,88.368,50.864c1.785-2.856-83.468-52.157-83.468-52.157l87.62,51.648      c0.193-0.311-86.425-52.247-85.635-53.511c0.063-0.101,90.319,57.584,92.26,54.479c1.548-2.478-88.701-54.223-88.16-55.088      l94.191,54.184c1.289-2.062-91.61-54-90.152-56.333c0,0,93.731,58.805,95.349,56.215c0.572-0.916-92.506-57.805-92.506-57.805      s94.282,59.685,96.053,56.85c0.612-0.979-95.005-56.868-93.882-58.664c0.406-0.651,97.238,56.194,97.238,56.194      s-93.177-58.115-93.128-58.193c0,0,97.664,57.969,98.448,56.714l-93.329-58.318c0.525-0.84,93.955,56.928,94.552,55.974      l-91.603-57.24c1.108-1.774,93.329,54.825,94.008,53.739c1.361-2.18-90.819-54.142-89.647-56.017      c1.306-2.089,92.086,53.203,92.312,52.84c0,0-90.134-52.571-88.448-55.269c0.144-0.23,90.201,52.793,90.201,52.793      s-86.559-53.734-86.399-53.988c0,0,86.022,52.772,87.101,51.047c0.724-1.158-84.335-52.699-84.335-52.699      c0.287-0.459,85.643,50.172,85.72,50.047c0.687-1.098-81.753-51.085-81.753-51.085l82.325,48.004      c0,0-79.199-48.937-78.951-49.334c0,0,79.407,45.846,79.677,45.415c0.948-1.519-76.296-45.726-75.42-47.128      c1.102-1.763,76.191,44.207,76.191,44.207L185.849,169.475c1.037-1.66,184.819,111.431,184.819,111.431L192.702,169.7      c0,0,176.359,110.796,178.773,106.934c2.268-3.629-172.229-107.621-172.229-107.621s170.155,104.106,171.287,102.294      L204.812,167.753l166.518,99.199L212.027,167.41c0.327-0.523,158.874,98.99,160.422,96.51      c2.882-4.61-155.839-96.379-155.39-97.098c2.961-4.74,154.654,92.09,154.654,92.09c3.228-5.165-150.526-88.447-148.004-92.484      c2.273-3.638,149.136,88.319,149.136,88.319s-143.941-86.085-142.208-88.861c0.863-1.381,142.802,84.08,142.802,84.08      c0.441-0.706-135.434-84.628-135.434-84.628c0.967-1.548,134.607,81.942,135.325,80.793c0,0-130.883-79.438-129.828-81.126      l129.572,76.329c0.761-1.218-125.018-72.787-122.621-76.622c1.741-2.787,122.077,72.833,122.077,72.833l-116.456-72.77      c1.563-2.5,116.862,68.554,116.862,68.554c1.103-1.763-110.628-67.452-109.874-68.657c1.05-1.681,109.345,65.478,110.015,64.406      l-102.902-64.3l103.963,61.786c0,0-98.493-59.687-97.658-61.023c0,0,96.99,57.667,97.37,57.059c0,0-93.789-55.064-92.197-57.611      l91.919,53.252c0.895-1.432-84.732-51.292-83.988-52.482c0.592-0.947,83.818,47.845,83.818,47.845l-76.745-47.955      c0.567-0.907,76.114,45.29,77.293,43.403c0.072-0.115-69.784-41.414-68.799-42.99c0.531-0.852,68.19,38.919,68.19,38.919      s-62.672-36.23-61.354-38.338c0,0,60.481,36.365,61.304,35.048c0.412-0.659-56.927-33.861-56.157-35.091l54.824,30.758      c0,0-50.695-29.518-49.725-31.071c0.226-0.361,48.271,27.354,49.07,26.074l-39.297-24.555      c0.3-0.479,36.283,17.824,36.283,17.824s-28.527-17.04-28.174-17.605l24.554,11.087c0.057-0.09-13.299-7.744-13.044-8.151" style="fill:none;stroke:#262626;stroke-width:2;stroke-linecap:round;stroke-linejoin:round;"/></g></g></g></g><g id="Layer_1"/></svg>