<?xml version="1.0" ?><!DOCTYPE svg  PUBLIC '-//W3C//DTD SVG 1.1//EN'  'http://www.w3.org/Graphics/SVG/1.1/DTD/svg11.dtd'><svg height="512px" style="enable-background:new 0 0 512 512;" version="1.1" viewBox="0 0 512 512" width="512px" xml:space="preserve" xmlns="http://www.w3.org/2000/svg" xmlns:xlink="http://www.w3.org/1999/xlink"><g id="xing__x2C__logo__x2C__icons__x2C__social"><g><g><g><path d="M118.699,375.322      l-63.016-39.376c0,0,42.453,24.293,42.887,23.599c0,0-46.623-27.969-46.1-28.807c0,0,33.18,16.609,33.339,16.354l-38.56-24.095      c0,0,30.188,15.335,30.507,14.826c0.173-0.276-35.18-20.389-34.463-21.535l29.368,15.27c0,0-30.951-18.694-30.661-19.158      c0.347-0.555,24.776,11.05,25.017,10.665l-29.262-18.285c0,0,25.726,12.267,25.991,11.844      c0.016-0.026-28.561-17.847-28.561-17.847l24.844,12.437L35.173,295.68c0,0,21.931,9.742,21.954,9.705      c0.518-0.829-24.478-15.295-24.478-15.295s22.44,10.788,22.621,10.498c0.187-0.299-24.48-15.298-24.48-15.298      c0.143-0.229,22.771,10.386,22.848,10.263c0.192-0.307-24.484-14.575-24.159-15.096l21.452,9.447      c0,0-22.067-13.076-21.747-13.589l19.168,7.011l-19.565-12.226c0.239-0.383,18.771,8.89,19.052,8.44l-19.805-12.375      c0.017-0.027,18.464,8.35,18.464,8.35s-19.448-11.638-19.217-12.008c0.306-0.489,18.75,7.555,18.75,7.555      c0.159-0.255-19.879-12.422-19.879-12.422c0.362-0.58,19.935,9.306,19.935,9.306l-18.673-11.668      c0.247-0.395,16.602,6.518,16.602,6.518s-17.304-10.352-17.097-10.684c0,0,16.253,5.744,16.532,5.298      c0,0-17.913-10.518-17.609-11.004c0,0,17.873,8.117,17.903,8.068c0.39-0.624-18.115-11.32-18.115-11.32      c0.304-0.486,18.604,7.779,18.803,7.461c0.307-0.492-18.814-11.115-18.525-11.576c0.017-0.027,17.573,6.95,17.573,6.95      l-16.673-10.419l16.661,5.447c0.208-0.333-16.316-10.195-16.316-10.195c0.157-0.25,16.47,7.362,16.582,7.182      c0,0-15.922-9.198-15.584-9.738c0,0,15.796,6.483,15.924,6.28c0,0-15.575-9.512-15.476-9.67      c0.12-0.192,16.781,5.655,16.781,5.655c0.195-0.313-16.683-10.025-16.503-10.313l16.235,5.435c0,0-15.451-9.563-15.41-9.629      c0.153-0.245,15.751,4.975,15.751,4.975l-15.026-9.389l15.854,5.989l-15.499-9.685c0,0,17.304,6.783,17.305,6.781      c0,0-16.242-10.052-16.198-10.122c0.313-0.5,15.977,6.608,15.977,6.608l-14.337-8.959c0,0,15.229,4.912,15.433,4.585      c0.281-0.45-13.697-8.559-13.697-8.559c0.164-0.263,14.165,5.193,14.297,4.982c0.089-0.142-13.56-8.427-13.539-8.46      c0.054-0.087,15.122,5.674,15.122,5.674c0.062-0.098-14.403-9-14.403-9s15.958,6.697,16.07,6.518      c0.183-0.292-14.219-8.676-14.125-8.826c0.045-0.071,14.489,5.887,14.628,5.664c0.086-0.138-13.754-8.058-13.514-8.444      l15.367,4.438c0.144-0.23-13.729-8.502-13.695-8.557c0,0,14.122,6.068,14.3,5.783c0.188-0.302-14.138-8.506-13.991-8.742      c0,0,15.857,6.835,16.029,6.56c0,0-15.328-8.936-15.039-9.397c0,0,15.217,4.818,15.291,4.7      c0.016-0.026-13.899-8.686-13.899-8.686c0.215-0.344,16.478,7.018,16.478,7.018c0.032-0.052-13.567-8.478-13.567-8.478      c0.242-0.388,14.25,4.108,14.417,3.84c0.258-0.413-12.221-7.636-12.221-7.636s15.25,4.726,15.417,4.46      c0.251-0.402-14.206-8.876-14.206-8.876s16.383,5.28,16.456,5.163c0,0-14.501-8.812-14.389-8.991l14.975,5.993      c0.19-0.304-12.615-7.74-12.551-7.843l14.041,4.04c0,0-12.61-7.709-12.533-7.832l15.246,4.573c0,0-12.969-7.793-12.829-8.017      l15.499,5.527c0.054-0.087-13.301-8.108-13.209-8.254c0.246-0.394,15.079,6.429,15.151,6.313      c0.016-0.026-13.894-8.309-13.726-8.577l15.834,5.979c0,0-14.832-8.808-14.625-9.139l16.748,5.928l-12.938-8.084l14.617,5.333      c0,0-12.869-7.558-12.652-7.906c0.256-0.411,13.742,5.203,13.742,5.203c0.058-0.093-13.347-8.34-13.347-8.34      s16.329,6.349,16.438,6.173c0.155-0.248-13.217-8.259-13.217-8.259s14.713,6.105,14.869,5.857l-12.657-7.909      c0.26-0.417,14.984,5.499,14.984,5.499c0.081-0.129-12.8-7.999-12.8-7.999c0.291-0.465,15.743,5.196,15.965,4.84      c0.242-0.387-14.216-8.385-13.993-8.744l15.671,5.475c0.251-0.402-13.607-7.868-13.322-8.325      c0.247-0.396,15.633,5.769,15.651,5.74l-12.608-7.878c0.001-0.002,15.721,6.109,15.721,6.109l-12.505-7.814l15.45,5.582      l-13.76-8.598c0,0,15.693,5.842,15.808,5.659c0,0-13.163-7.728-12.939-8.085c0,0,16.396,5.527,16.481,5.392      c0.25-0.401-13.626-8.396-13.573-8.481c0.165-0.263,16.584,5.708,16.823,5.325c0.273-0.437-13.091-7.763-12.903-8.063      l15.945,6.833l-14.747-9.215c0,0,17.789,6.539,17.904,6.354c0.137-0.219-13.053-7.92-12.947-8.09l15.111,6.229      c0.236-0.377-13.983-8.184-13.734-8.582l15.772,6.716c0.015-0.024-13.606-8.008-13.384-8.363l17.34,6.104      c0.048-0.077-13.854-8.657-13.854-8.657l16.266,6.646c0,0-13.256-7.917-13.092-8.181c0.072-0.116,16.491,5.155,16.505,5.132      c0.141-0.226-13.32-8.324-13.32-8.324c0.29-0.463,16.416,6.238,16.416,6.238c0.032-0.051-12.84-8.023-12.84-8.023      s15.762,6.179,15.936,5.901l-13.228-8.266c0.004-0.007,16.072,6.413,16.145,6.296c0.267-0.427-12.87-7.681-12.708-7.94      c0.324-0.52,16.921,6.668,16.921,6.668s-14.295-8.527-14.113-8.819c0.165-0.264,15.765,6.318,15.765,6.318      c0.23-0.368-12.815-7.983-12.804-8.001l16.233,6.24c0.059-0.094-14.06-8.488-13.926-8.702      c0.043-0.069,18.541,6.949,18.541,6.949s-14.091-8.373-13.896-8.684c0.05-0.081,18.002,7.277,18.002,7.277      c0.117-0.187-14.697-9.184-14.697-9.184l18.167,7.206c0.255-0.408-15.083-9.267-15.012-9.381      c0.386-0.618,19.116,8.006,19.476,7.431c0.314-0.503-15.302-9.145-15.115-9.445c0.021-0.033,18.334,7.173,18.581,6.779      c0,0-14.094-8.737-14.063-8.787c0.375-0.6,18.625,8.258,18.707,8.126c0.03-0.048-15.912-9.571-15.744-9.838l17.537,7.464      c0.189-0.303-14.785-9.239-14.785-9.239l19.118,8.754c0.193-0.309-15.305-9.257-15.167-9.478      c0.325-0.52,19.172,8.591,19.37,8.275c0.013-0.021-16.508-9.819-16.285-10.176c0,0,20.98,8.382,21.068,8.241      c0.248-0.396-15.962-9.51-15.753-9.844l20.278,7.959c0.066-0.105-16.369-9.686-16.125-10.076c0,0,18.978,8.878,19.237,8.463      c0.166-0.266-15.136-9.458-15.136-9.458l20.453,7.673c0.033-0.053-15.661-9.371-15.474-9.669c0,0,20.367,9.152,20.63,8.731      c0,0-17.061-10.356-16.924-10.575c0.158-0.253,21.143,10.109,21.143,10.109c0.048-0.076-18.293-11.171-18.177-11.358      c0,0,20.962,10.595,21.358,9.962c0,0-16.593-9.765-16.322-10.199l19.943,9.028c0.042-0.067-16.771-10.479-16.771-10.479      c0.357-0.571,22.407,10.454,22.49,10.32c0,0-18.563-11.136-18.354-11.469c0,0,22.917,10.146,23.025,9.971      c0.368-0.588-17.709-11.066-17.709-11.066s24.067,11.412,24.416,10.854c0.058-0.093-19.534-12.207-19.534-12.207l25.598,11.542      c0,0-19.652-11.688-19.387-12.114c0.471-0.753,25.19,11.823,25.649,11.089c0.022-0.035-20.995-12.503-20.718-12.946      c0.295-0.472,26.294,12.724,26.294,12.724c0.039-0.062-21.436-13.395-21.436-13.395s25.891,13.881,26.435,13.011      c0.458-0.733-21.933-13.592-21.882-13.673c0,0,28.464,13.241,28.666,12.919c0.089-0.143-21.981-12.668-21.502-13.436      c0.461-0.738,29.81,15.069,30.291,14.3c0.395-0.632-24.651-14.438-24.217-15.132c0.476-0.762,29.166,14.915,29.166,14.915      s-23.813-14.764-23.761-14.847c0.576-0.922,32.276,15.722,32.276,15.722l-26.099-16.308      c0.062-0.098,31.031,16.746,31.491,16.009c0.568-0.909-26.31-16.396-26.29-16.428l35.89,17.985      c0.228-0.363-29.053-18.154-29.053-18.154c0.618-0.99,36.536,19.593,36.536,19.593s-31.518-18.185-30.84-19.271      c0,0,41.667,22.787,42.413,21.592c0,0-34.376-20.809-34.074-21.292c0,0,47.416,26.253,47.792,25.651      c0.109-0.175-40.64-23.698-39.877-24.918c0.878-1.405,51.573,30.589,52.499,29.109c0,0-46.188-26.681-45.207-28.249" style="fill:none;stroke:#231F20;stroke-width:2;stroke-linecap:round;stroke-linejoin:round;"/><path d="M134.336,403.377      l-27.485-17.175c0,0,58.504,33.757,59.435,32.269l-84.15-52.583c0,0,99.449,61.069,100.912,58.727L70.985,354.59l123.57,73.397      L63.103,345.847l143.153,85.718c0,0-151.442-89.167-148.987-93.097c1.82-2.913,156.097,97.925,158.013,94.858      c0,0-53.1-31.041-52.139-32.58c0.532-0.852,61.765,37.077,62.908,35.248c0,0-44.414-26.346-43.782-27.358      c0.086-0.138,52.153,29.641,52.949,28.366c0.029-0.047-37.647-21.673-36.815-23.004c0,0,43.771,24.11,43.913,23.882      c0,0-35.499-21.609-35.242-22.021c0,0,43.916,24.77,44.839,23.292c0.242-0.387-32.106-20.063-32.106-20.063l39.551,20.6      c0,0-29.169-18.016-29.074-18.167c0.322-0.516,34.961,19.046,35.522,18.148c0.486-0.778-28.053-17.529-28.053-17.529      l35.053,17.781l-27.063-16.911c0.102-0.163,33.708,18.099,34.237,17.252l-25.249-15.777      c0.199-0.317,30.987,16.161,30.987,16.161c0.454-0.728-26.53-16.257-26.386-16.488c0.435-0.694,30.464,15.844,30.464,15.844      s-25.021-15.399-24.915-15.569c0,0,31.362,16.136,31.763,15.495c0.297-0.476-23.798-14.856-23.792-14.866l26.814,13.613      c0,0-21.573-13.3-21.492-13.43c0.316-0.508,26.757,13.307,26.757,13.307c0.008-0.014-22.902-14.311-22.902-14.311      c0.485-0.777,28.122,14.453,28.122,14.453s-22.849-14.154-22.793-14.243c0.315-0.505,27.8,12.553,27.8,12.553      s-21.422-12.973-21.236-13.27c0.236-0.379,25.919,13.009,25.919,13.009l-20.732-12.955l27.499,12.021      c0.265-0.424-21.884-13.15-21.648-13.527l26.341,12.678c0.224-0.358-21.494-13.143-21.365-13.35      c0.352-0.563,25.961,11.537,25.961,11.537c0.149-0.238-19.854-12.406-19.854-12.406s22.778,11.616,23.106,11.092l-18.198-11.372      c0.23-0.368,24.145,11.114,24.238,10.963l-20.327-12.701c0.151-0.242,24.349,11.506,24.505,11.255      c0,0-19.099-11.536-18.92-11.822l23.425,10.069c0.276-0.441-19.088-11.874-19.063-11.912l24.242,10.449l-19.256-12.032      c0,0,22.709,10.69,23.103,10.06c0.303-0.484-18.378-10.623-17.991-11.242c0.283-0.454,22.089,10.165,22.089,10.165      l-18.339-11.459l20.657,9.754l-17.148-10.716c0.248-0.396,19.635,9.442,20.02,8.827l-15.917-9.946      c0.013-0.02,19.371,7.932,19.371,7.932c0.25-0.399-16.285-9.867-16.146-10.089l20.973,8.045c0,0-15.514-9.386-15.375-9.607      c0,0,18.818,8.495,19.186,7.907l-16.556-10.345l19.506,8.242l-16.162-10.1c0.034-0.055,19.857,8.404,19.948,8.26l-15.758-9.847      l19.783,7.832c0,0-16.534-10.138-16.446-10.277c0,0,20.096,9.152,20.366,8.72l-16.485-10.301      c0.06-0.097,19.411,7.053,19.411,7.053c0.212-0.341-16.521-10.024-16.387-10.24l19.477,7.623      c0.033-0.053-14.993-9.368-14.993-9.368s18.782,8.61,19.055,8.174c0,0-17.104-10.159-16.866-10.539l19.157,8.185      c0.099-0.157-16.227-10.14-16.227-10.14l18.448,7.394c0.118-0.189-14.544-9.088-14.544-9.088l18.073,8.079      c0.282-0.452-16.965-10.6-16.965-10.6s17.937,8.145,18.209,7.709c0,0-15.284-9.134-15.097-9.433l17.301,7.719l-15.241-9.524      l18.578,7.17l-16.024-10.014c0.071-0.114,19.225,7.576,19.268,7.507c0,0-16.122-10.017-16.097-10.059l18.862,7.572      c0.008-0.013-14.971-9.354-14.971-9.354s16.978,7.548,17.147,7.276c0,0-16.152-9.905-16.068-10.04      c0.063-0.101,18.006,7.396,18.006,7.396s-14.896-9.177-14.837-9.271c0,0,17.369,6.573,17.478,6.4l-14.803-9.25l16.308,5.768      l-13.8-8.623c0.019-0.031,16.556,7.659,16.809,7.255c0,0-16.379-9.613-16.1-10.06c0,0,18.171,7.688,18.203,7.636      c0.229-0.366-14.491-9.055-14.491-9.055c0.117-0.188,15.369,5.331,15.369,5.331s-14.194-8.463-14.011-8.756l16.658,6.517      c0,0-15.3-9.55-15.295-9.558c0.131-0.209,16.827,6.924,16.827,6.924s-14.477-8.792-14.362-8.975      c0.15-0.242,16.782,6.44,16.947,6.176c0,0-14.163-8.472-13.993-8.744c0.139-0.223,16.403,6.564,16.403,6.564      c0.076-0.122-14.883-9.3-14.883-9.3c0.195-0.313,17.28,6.305,17.28,6.305c0.24-0.384-16.188-9.678-15.991-9.993      c0,0,17.103,6.734,17.11,6.722c0,0-14.443-8.922-14.397-8.996c0,0,15.963,5.524,16.206,5.136      c0.284-0.455-15.021-9.123-14.903-9.313c0.231-0.37,16.582,7.66,16.796,7.317c0,0-14.654-8.776-14.483-9.05      c0.178-0.285,16.34,6.398,16.541,6.076l-16.048-10.027c0.314-0.504,16.9,5.89,16.9,5.89l-14.029-8.767      c0.113-0.182,15.727,6.716,15.727,6.716s-15.049-9.222-14.968-9.353c0.013-0.02,15.608,5.86,15.608,5.86      c0.205-0.327-14.286-8.642-14.157-8.847c0.231-0.37,15.828,6.398,16.047,6.048c0.241-0.385-13.895-8.683-13.895-8.683      l16.122,6.539c0.254-0.405-15.426-9.64-15.426-9.64c0.322-0.516,16.899,6.618,16.899,6.618      c0.288-0.461-14.926-9.294-14.911-9.317c0,0,14.94,5.563,15.213,5.128c0,0-14.816-8.906-14.658-9.16      c0.223-0.355,15.941,6.913,16.12,6.628c0.189-0.304-14.636-8.982-14.563-9.1c0.172-0.274,15.954,6.299,15.956,6.297      l-15.376-9.608c0.196-0.314,15.454,5.888,15.69,5.51l-14.989-9.367c0.147-0.235,15.98,6.689,15.98,6.689      s-14.08-8.623-14.001-8.749c0,0,14.507,5.784,14.66,5.538l-15.12-9.448c0.097-0.155,17.69,5.935,17.69,5.935      s-15.292-9.457-15.248-9.527l15.774,6.219l-16.26-10.16l16.808,6.448c0.077-0.124-15.493-8.959-15.168-9.479l16.194,5.68      c0,0-16.15-9.495-15.883-9.924c0.313-0.5,16.107,6.745,16.107,6.745l-14.843-9.275c0.239-0.383,15.884,6.595,16.012,6.39      c0,0-15.653-9.21-15.397-9.621l15.53,6.384c0,0-15.424-9.203-15.229-9.516l15.847,6.037c0.207-0.33-15.614-9.757-15.614-9.757      c0.281-0.45,16.035,6.839,16.193,6.586c0.205-0.329-15.753-9.844-15.753-9.844s16.741,7.635,16.962,7.282      c0,0-16.61-10.105-16.487-10.302l16.866,6.686c0.139-0.223-17.7-11.06-17.7-11.06c0.067-0.107,17.78,6.152,17.78,6.152      l-17.648-11.027l17.012,6.647c0.037-0.059-16.565-10.351-16.565-10.351c0.061-0.098,17.353,5.934,17.353,5.934l-16.612-10.38      c0,0,17.3,7.422,17.556,7.014c0,0-18.563-11.563-18.547-11.589c0.015-0.023,17.125,6.293,17.246,6.099l-16.658-10.41      l17.978,7.689c0,0-18.666-11.294-18.5-11.56c0.227-0.362,18.442,6.486,18.466,6.448c0.096-0.151-18.78-11.735-18.78-11.735      c0.26-0.415,17.207,7.352,17.44,6.978c0.02-0.03-18.078-10.694-17.807-11.127l17.979,6.099c0,0-20.744-12.042-20.33-12.704      c0.385-0.616,19.629,8.454,19.629,8.454l-19.78-12.36l19.973,8.548c0.275-0.441-20.868-12.377-20.57-12.854      c0.151-0.243,19.623,7.104,19.623,7.104l-20.631-12.891c0.22-0.352,19.666,8.196,19.666,8.196s-21.285-13.28-21.275-13.295      c0.067-0.108,18.988,7.906,18.988,7.906c0.359-0.575-20.9-12.709-20.742-12.961c0.354-0.567,19.768,8.57,20.063,8.099      c0.169-0.27-22.428-13.387-22.146-13.838l21.984,9.563c0.063-0.102-23.466-14.663-23.466-14.663      c0.22-0.353,22.008,10.507,22.008,10.507s-24.819-14.88-24.537-15.333c0.238-0.38,21.766,8.86,21.88,8.678      c0,0-24.961-14.385-24.416-15.257l22.709,9.48c0.185-0.295-25.859-15.624-25.619-16.009c0.207-0.33,23.583,11.748,23.925,11.201      c0.446-0.714-28.264-17.662-28.264-17.662c0.491-0.787,26.2,13.393,26.6,12.754c0,0-29.524-18.021-29.333-18.329      c0.142-0.226,25.164,11.873,25.592,11.187l-31.251-19.528c0.043-0.069,27.651,13.442,28.096,12.731      c0.688-1.1-34.867-21.788-34.867-21.788c0.548-0.878,31.118,16.25,31.118,16.25c0.419-0.672-37.963-22.992-37.635-23.517      l33.893,16.221c0.758-1.212-45.376-27.768-45.112-28.189c0.026-0.042,40.038,20.573,40.226,20.273      c1.51-2.417-139.708-82.474-137.54-85.944c1.5-2.4,129.062,77.085,129.646,76.152L325.599,46.868      c0.825-1.322,109.588,66.482,110.888,64.401c0,0-98.908-57.979-97.189-60.73c1.099-1.757,89.072,52.426,89.072,52.426      l-77.96-48.715c0.947-1.517,65.171,38.862,65.956,37.606c0,0-51.585-31.127-51.088-31.923" style="fill:none;stroke:#231F20;stroke-width:2;stroke-linecap:round;stroke-linejoin:round;"/><path d="M150.183,278.953      l-0.863-0.54c0,0,8.282,0.562,8.397,0.377l-4.923-3.077c0,0,10.899,2.797,11.041,2.569l-8.998-5.623l14.099,4.992l-12.918-8.072      l19.786,8.63c0,0-18.487-10.904-18.196-11.37c0.252-0.403,22.937,11.044,23.202,10.619c0,0-21.616-12.625-21.219-13.259      c0.233-0.374,28.02,14.564,28.522,13.761c0,0-26.189-15.533-25.816-16.131c0.051-0.082,31.601,16.073,32.071,15.32      c0.024-0.038-30.342-17.456-29.666-18.538c0,0,34.053,17.967,34.164,17.79c0,0-34.217-20.829-33.969-21.227      c0,0,35.988,19.43,36.738,18.229c0.254-0.406-33.789-21.113-33.789-21.113l35.691,18.188c0,0-32.935-20.341-32.827-20.513      c0.308-0.493,33.561,18.118,34.098,17.259c0.574-0.918-33.223-20.76-33.223-20.76l35.401,17.998l-33.666-21.037      c0.108-0.172,35.529,19.304,36.088,18.41l-33.012-20.628c0.229-0.366,35.438,18.941,35.438,18.941      c0.608-0.974-35.197-21.563-35.003-21.873c0.513-0.821,35.788,19.17,35.788,19.17s-34.417-21.182-34.271-21.415      c0,0,36.428,19.452,36.896,18.702c0.424-0.679-34.005-21.229-33.997-21.243l34.102,18.167c0,0-32.459-20.018-32.34-20.208      c0.414-0.662,34.495,18.143,34.495,18.143c0.013-0.02-34.201-21.371-34.201-21.371c0.643-1.029,36.824,19.89,36.824,19.89      s-34.761-21.532-34.676-21.668c0.411-0.658,35.677,17.475,35.677,17.475s-34.008-20.6-33.716-21.067      c0.333-0.533,35.987,19.301,35.987,19.301l-39.548-24.712l42.457,21.368c0.634-1.015-51.155-30.709-50.59-31.612l52.644,29.114      c0.627-1.004-58.232-35.58-57.869-36.161c0.836-1.338,59.323,32.384,59.323,32.384c0.493-0.789-65.867-41.158-65.867-41.158      s65.937,40.054,66.925,38.473l-70.983-44.355c0.742-1.187,74.21,42.867,74.515,42.378l-74.606-46.619      c0.492-0.788,75.841,44.469,76.351,43.653c0,0-70.284-42.458-69.628-43.508l71.616,40.183      c0.97-1.553-65.935-41.013-65.851-41.148l60.706,33.234l-54.075-33.79c0,0,47.401,27.147,48.257,25.777      c0.695-1.112-42.334-24.475-41.445-25.897c0.497-0.795,37.613,19.864,37.613,19.864l-32.227-20.137l27.48,14.019l-22.556-14.094      c0.211-0.339,16.936,7.63,17.265,7.104l-11.382-7.113c0.003-0.005,5.754-0.556,5.754-0.556c0.023-0.038-0.447-0.25-0.434-0.271" style="fill:none;stroke:#231F20;stroke-width:2;stroke-linecap:round;stroke-linejoin:round;"/><path d="M281.828,338.899      l-1.906-1.19c0,0,10.769,2.196,10.922,1.953l-14.575-9.107c0,0,21.708,9.902,22.009,9.422l-26.303-16.436l32.564,16.53      l-36.972-23.103l45.126,24.465c0,0-49.857-29.37-49.056-30.653c0.625-1,54.668,31.745,55.326,30.692      c0,0-60.351-35.282-59.259-37.029c0.575-0.921,66.649,40.337,67.886,38.359c0,0-72.404-42.952-71.375-44.6      c0.123-0.197,73.306,43.604,74.437,41.793c0.063-0.1-80.989-46.693-79.23-49.509c0,0,75.603,44.241,75.853,43.841      c0,0-81.772-49.776-81.178-50.727c0,0,75.863,46.297,77.489,43.694c0.615-0.984-82.075-51.286-82.075-51.286l78.356,44.848      c0,0-82.325-50.86-82.063-51.279c0.723-1.157,76.523,46.574,77.784,44.558c1.419-2.271-83.379-52.102-83.379-52.102      l79.703,45.682l-79.319-49.564c0.232-0.372,74.657,45.19,75.862,43.264l-72.828-45.508c0.465-0.744,70.707,40.979,70.707,40.979      c1.237-1.98-70.697-43.3-70.304-43.93c0.971-1.554,66.556,38.396,66.556,38.396s-65.35-40.218-65.072-40.662      c0,0,60.592,35.277,61.387,34.005c0.729-1.167-58.546-36.549-58.531-36.574l53.993,30.597c0,0-52.453-32.356-52.264-32.658      c0.599-0.959,49.377,27.442,49.377,27.442c0.019-0.029-49.118-30.692-49.118-30.692c0.829-1.327,47.119,26.323,47.119,26.323      s-45.112-27.944-45.001-28.12c0.454-0.727,39.221,19.689,39.221,19.689s-37.632-22.796-37.309-23.313      c0.367-0.587,39.55,21.527,39.55,21.527l-37.322-23.321l40.181,19.945c0.483-0.774-39.242-23.563-38.811-24.251l40.828,21.731      c0.419-0.671-39.259-23.993-39.017-24.38c0.562-0.899,40.427,20.576,40.427,20.576c0.284-0.455-37.954-23.716-37.954-23.716      s38.413,21.917,38.979,21.01l-36.597-22.868c0.392-0.626,39.928,21.125,40.089,20.867l-39.158-24.468      c0.259-0.414,40.597,21.907,40.864,21.479c0,0-38.366-23.176-38.008-23.75l39.952,20.396c0.565-0.904-38.59-24.003-38.54-24.083      l41.163,21.024l-39.012-24.377c0,0,39.887,22.138,40.602,20.994c0.638-1.021-38.856-22.464-38.04-23.771      c0.534-0.855,40.382,21.596,40.382,21.596l-38.591-24.114l39.389,21.46l-37.58-23.483c0.498-0.797,37.995,21.776,38.767,20.541      l-36.523-22.822c0.024-0.039,38.208,19.703,38.208,19.703c0.55-0.88-37.286-22.619-36.98-23.108l39.694,19.744      c0,0-36.761-22.283-36.451-22.777c0,0,37.986,21.375,38.76,20.139l-37.852-23.652l39.368,20.654l-37.69-23.551      c0.072-0.115,39.778,21.071,39.967,20.769l-37.392-23.365l40.006,20.468c0,0-38.541-23.631-38.338-23.957      c0,0,40.443,22.524,41.009,21.619l-38.552-24.09c0.13-0.209,40.001,19.918,40.001,19.918      c0.502-0.803-38.872-23.582-38.555-24.091l40.452,20.729c0.079-0.127-37.381-23.358-37.381-23.358s39.861,22.518,40.464,21.553      c0,0-39.851-23.637-39.282-24.546l40.679,21.632c0.236-0.378-38.74-24.208-38.74-24.208l40.073,20.906      c0.289-0.462-37.253-23.278-37.253-23.278l40.092,21.839c0.69-1.104-39.688-24.799-39.688-24.799s39.55,22.439,40.176,21.438      c0,0-38.314-22.927-37.858-23.657l39.544,21.618l-38.154-23.841l40.775,21.039l-39.057-24.405      c0.162-0.259,41.476,21.602,41.573,21.445c0,0-39.237-24.376-39.173-24.479l41.447,21.685      c0.02-0.032-38.272-23.916-38.272-23.916s39.635,22.249,40.048,21.586c0,0-39.623-24.288-39.411-24.627      c0.148-0.238,40.9,21.702,40.9,21.702s-38.361-23.642-38.214-23.878c0,0,40.206,21.191,40.471,20.768l-37.829-23.638      l39.014,19.955l-31.733-19.829c0.042-0.066,33.966,19.175,34.505,18.313c0,0-30.817-18.058-30.278-18.92      c0,0,32.121,16.466,32.18,16.371c0.379-0.605-24.419-15.259-24.419-15.259c0.198-0.318,25.172,11.457,25.172,11.457      s-19.292-11.513-19.049-11.903l21.581,9.591c0,0-15.669-9.78-15.664-9.788c0.133-0.212,17.095,7.092,17.095,7.092      s-10.488-6.366-10.403-6.501c0.113-0.183,12.924,3.939,13.049,3.74c0,0-4.844-2.877-4.776-2.984      c0.058-0.092,7.237,0.836,7.237,0.836c0.007-0.011-1.219-0.761-1.219-0.761" style="fill:none;stroke:#231F20;stroke-width:2;stroke-linecap:round;stroke-linejoin:round;"/></g><g><path d="M118.699,375.322      l-63.016-39.376c0,0,42.453,24.293,42.887,23.599c0,0-46.623-27.969-46.1-28.807c0,0,33.18,16.609,33.339,16.354l-38.56-24.095      c0,0,30.188,15.335,30.507,14.826c0.173-0.276-35.18-20.389-34.463-21.535l29.368,15.27c0,0-30.951-18.694-30.661-19.158      c0.347-0.555,24.776,11.05,25.017,10.665l-29.262-18.285c0,0,25.726,12.267,25.991,11.844      c0.016-0.026-28.561-17.847-28.561-17.847l24.844,12.437L35.173,295.68c0,0,21.931,9.742,21.954,9.705      c0.518-0.829-24.478-15.295-24.478-15.295s22.44,10.788,22.621,10.498c0.187-0.299-24.48-15.298-24.48-15.298      c0.143-0.229,22.771,10.386,22.848,10.263c0.192-0.307-24.484-14.575-24.159-15.096l21.452,9.447      c0,0-22.067-13.076-21.747-13.589l19.168,7.011l-19.565-12.226c0.239-0.383,18.771,8.89,19.052,8.44l-19.805-12.375      c0.017-0.027,18.464,8.35,18.464,8.35s-19.448-11.638-19.217-12.008c0.306-0.489,18.75,7.555,18.75,7.555      c0.159-0.255-19.879-12.422-19.879-12.422c0.362-0.58,19.935,9.306,19.935,9.306l-18.673-11.668      c0.247-0.395,16.602,6.518,16.602,6.518s-17.304-10.352-17.097-10.684c0,0,16.253,5.744,16.532,5.298      c0,0-17.913-10.518-17.609-11.004c0,0,17.873,8.117,17.903,8.068c0.39-0.624-18.115-11.32-18.115-11.32      c0.304-0.486,18.604,7.779,18.803,7.461c0.307-0.492-18.814-11.115-18.525-11.576c0.017-0.027,17.573,6.95,17.573,6.95      l-16.673-10.419l16.661,5.447c0.208-0.333-16.316-10.195-16.316-10.195c0.157-0.25,16.47,7.362,16.582,7.182      c0,0-15.922-9.198-15.584-9.738c0,0,15.796,6.483,15.924,6.28c0,0-15.575-9.512-15.476-9.67      c0.12-0.192,16.781,5.655,16.781,5.655c0.195-0.313-16.683-10.025-16.503-10.313l16.235,5.435c0,0-15.451-9.563-15.41-9.629      c0.153-0.245,15.751,4.975,15.751,4.975l-15.026-9.389l15.854,5.989l-15.499-9.685c0,0,17.304,6.783,17.305,6.781      c0,0-16.242-10.052-16.198-10.122c0.313-0.5,15.977,6.608,15.977,6.608l-14.337-8.959c0,0,15.229,4.912,15.433,4.585      c0.281-0.45-13.697-8.559-13.697-8.559c0.164-0.263,14.165,5.193,14.297,4.982c0.089-0.142-13.56-8.427-13.539-8.46      c0.054-0.087,15.122,5.674,15.122,5.674c0.062-0.098-14.403-9-14.403-9s15.958,6.697,16.07,6.518      c0.183-0.292-14.219-8.676-14.125-8.826c0.045-0.071,14.489,5.887,14.628,5.664c0.086-0.138-13.754-8.058-13.514-8.444      l15.367,4.438c0.144-0.23-13.729-8.502-13.695-8.557c0,0,14.122,6.068,14.3,5.783c0.188-0.302-14.138-8.506-13.991-8.742      c0,0,15.857,6.835,16.029,6.56c0,0-15.328-8.936-15.039-9.397c0,0,15.217,4.818,15.291,4.7      c0.016-0.026-13.899-8.686-13.899-8.686c0.215-0.344,16.478,7.018,16.478,7.018c0.032-0.052-13.567-8.478-13.567-8.478      c0.242-0.388,14.25,4.108,14.417,3.84c0.258-0.413-12.221-7.636-12.221-7.636s15.25,4.726,15.417,4.46      c0.251-0.402-14.206-8.876-14.206-8.876s16.383,5.28,16.456,5.163c0,0-14.501-8.812-14.389-8.991l14.975,5.993      c0.19-0.304-12.615-7.74-12.551-7.843l14.041,4.04c0,0-12.61-7.709-12.533-7.832l15.246,4.573c0,0-12.969-7.793-12.829-8.017      l15.499,5.527c0.054-0.087-13.301-8.108-13.209-8.254c0.246-0.394,15.079,6.429,15.151,6.313      c0.016-0.026-13.894-8.309-13.726-8.577l15.834,5.979c0,0-14.832-8.808-14.625-9.139l16.748,5.928l-12.938-8.084l14.617,5.333      c0,0-12.869-7.558-12.652-7.906c0.256-0.411,13.742,5.203,13.742,5.203c0.058-0.093-13.347-8.34-13.347-8.34      s16.329,6.349,16.438,6.173c0.155-0.248-13.217-8.259-13.217-8.259s14.713,6.105,14.869,5.857l-12.657-7.909      c0.26-0.417,14.984,5.499,14.984,5.499c0.081-0.129-12.8-7.999-12.8-7.999c0.291-0.465,15.743,5.196,15.965,4.84      c0.242-0.387-14.216-8.385-13.993-8.744l15.671,5.475c0.251-0.402-13.607-7.868-13.322-8.325      c0.247-0.396,15.633,5.769,15.651,5.74l-12.608-7.878c0.001-0.002,15.721,6.109,15.721,6.109l-12.505-7.814l15.45,5.582      l-13.76-8.598c0,0,15.693,5.842,15.808,5.659c0,0-13.163-7.728-12.939-8.085c0,0,16.396,5.527,16.481,5.392      c0.25-0.401-13.626-8.396-13.573-8.481c0.165-0.263,16.584,5.708,16.823,5.325c0.273-0.437-13.091-7.763-12.903-8.063      l15.945,6.833l-14.747-9.215c0,0,17.789,6.539,17.904,6.354c0.137-0.219-13.053-7.92-12.947-8.09l15.111,6.229      c0.236-0.377-13.983-8.184-13.734-8.582l15.772,6.716c0.015-0.024-13.606-8.008-13.384-8.363l17.34,6.104      c0.048-0.077-13.854-8.657-13.854-8.657l16.266,6.646c0,0-13.256-7.917-13.092-8.181c0.072-0.116,16.491,5.155,16.505,5.132      c0.141-0.226-13.32-8.324-13.32-8.324c0.29-0.463,16.416,6.238,16.416,6.238c0.032-0.051-12.84-8.023-12.84-8.023      s15.762,6.179,15.936,5.901l-13.228-8.266c0.004-0.007,16.072,6.413,16.145,6.296c0.267-0.427-12.87-7.681-12.708-7.94      c0.324-0.52,16.921,6.668,16.921,6.668s-14.295-8.527-14.113-8.819c0.165-0.264,15.765,6.318,15.765,6.318      c0.23-0.368-12.815-7.983-12.804-8.001l16.233,6.24c0.059-0.094-14.06-8.488-13.926-8.702      c0.043-0.069,18.541,6.949,18.541,6.949s-14.091-8.373-13.896-8.684c0.05-0.081,18.002,7.277,18.002,7.277      c0.117-0.187-14.697-9.184-14.697-9.184l18.167,7.206c0.255-0.408-15.083-9.267-15.012-9.381      c0.386-0.618,19.116,8.006,19.476,7.431c0.314-0.503-15.302-9.145-15.115-9.445c0.021-0.033,18.334,7.173,18.581,6.779      c0,0-14.094-8.737-14.063-8.787c0.375-0.6,18.625,8.258,18.707,8.126c0.03-0.048-15.912-9.571-15.744-9.838l17.537,7.464      c0.189-0.303-14.785-9.239-14.785-9.239l19.118,8.754c0.193-0.309-15.305-9.257-15.167-9.478      c0.325-0.52,19.172,8.591,19.37,8.275c0.013-0.021-16.508-9.819-16.285-10.176c0,0,20.98,8.382,21.068,8.241      c0.248-0.396-15.962-9.51-15.753-9.844l20.278,7.959c0.066-0.105-16.369-9.686-16.125-10.076c0,0,18.978,8.878,19.237,8.463      c0.166-0.266-15.136-9.458-15.136-9.458l20.453,7.673c0.033-0.053-15.661-9.371-15.474-9.669c0,0,20.367,9.152,20.63,8.731      c0,0-17.061-10.356-16.924-10.575c0.158-0.253,21.143,10.109,21.143,10.109c0.048-0.076-18.293-11.171-18.177-11.358      c0,0,20.962,10.595,21.358,9.962c0,0-16.593-9.765-16.322-10.199l19.943,9.028c0.042-0.067-16.771-10.479-16.771-10.479      c0.357-0.571,22.407,10.454,22.49,10.32c0,0-18.563-11.136-18.354-11.469c0,0,22.917,10.146,23.025,9.971      c0.368-0.588-17.709-11.066-17.709-11.066s24.067,11.412,24.416,10.854c0.058-0.093-19.534-12.207-19.534-12.207l25.598,11.542      c0,0-19.652-11.688-19.387-12.114c0.471-0.753,25.19,11.823,25.649,11.089c0.022-0.035-20.995-12.503-20.718-12.946      c0.295-0.472,26.294,12.724,26.294,12.724c0.039-0.062-21.436-13.395-21.436-13.395s25.891,13.881,26.435,13.011      c0.458-0.733-21.933-13.592-21.882-13.673c0,0,28.464,13.241,28.666,12.919c0.089-0.143-21.981-12.668-21.502-13.436      c0.461-0.738,29.81,15.069,30.291,14.3c0.395-0.632-24.651-14.438-24.217-15.132c0.476-0.762,29.166,14.915,29.166,14.915      s-23.813-14.764-23.761-14.847c0.576-0.922,32.276,15.722,32.276,15.722l-26.099-16.308      c0.062-0.098,31.031,16.746,31.491,16.009c0.568-0.909-26.31-16.396-26.29-16.428l35.89,17.985      c0.228-0.363-29.053-18.154-29.053-18.154c0.618-0.99,36.536,19.593,36.536,19.593s-31.518-18.185-30.84-19.271      c0,0,41.667,22.787,42.413,21.592c0,0-34.376-20.809-34.074-21.292c0,0,47.416,26.253,47.792,25.651      c0.109-0.175-40.64-23.698-39.877-24.918c0.878-1.405,51.573,30.589,52.499,29.109c0,0-46.188-26.681-45.207-28.249" style="fill:none;stroke:#262626;stroke-width:2;stroke-linecap:round;stroke-linejoin:round;"/><path d="M134.336,403.377      l-27.485-17.175c0,0,58.504,33.757,59.435,32.269l-84.15-52.583c0,0,99.449,61.069,100.912,58.727L70.985,354.59l123.57,73.397      L63.103,345.847l143.153,85.718c0,0-151.442-89.167-148.987-93.097c1.82-2.913,156.097,97.925,158.013,94.858      c0,0-53.1-31.041-52.139-32.58c0.532-0.852,61.765,37.077,62.908,35.248c0,0-44.414-26.346-43.782-27.358      c0.086-0.138,52.153,29.641,52.949,28.366c0.029-0.047-37.647-21.673-36.815-23.004c0,0,43.771,24.11,43.913,23.882      c0,0-35.499-21.609-35.242-22.021c0,0,43.916,24.77,44.839,23.292c0.242-0.387-32.106-20.063-32.106-20.063l39.551,20.6      c0,0-29.169-18.016-29.074-18.167c0.322-0.516,34.961,19.046,35.522,18.148c0.486-0.778-28.053-17.529-28.053-17.529      l35.053,17.781l-27.063-16.911c0.102-0.163,33.708,18.099,34.237,17.252l-25.249-15.777      c0.199-0.317,30.987,16.161,30.987,16.161c0.454-0.728-26.53-16.257-26.386-16.488c0.435-0.694,30.464,15.844,30.464,15.844      s-25.021-15.399-24.915-15.569c0,0,31.362,16.136,31.763,15.495c0.297-0.476-23.798-14.856-23.792-14.866l26.814,13.613      c0,0-21.573-13.3-21.492-13.43c0.316-0.508,26.757,13.307,26.757,13.307c0.008-0.014-22.902-14.311-22.902-14.311      c0.485-0.777,28.122,14.453,28.122,14.453s-22.849-14.154-22.793-14.243c0.315-0.505,27.8,12.553,27.8,12.553      s-21.422-12.973-21.236-13.27c0.236-0.379,25.919,13.009,25.919,13.009l-20.732-12.955l27.499,12.021      c0.265-0.424-21.884-13.15-21.648-13.527l26.341,12.678c0.224-0.358-21.494-13.143-21.365-13.35      c0.352-0.563,25.961,11.537,25.961,11.537c0.149-0.238-19.854-12.406-19.854-12.406s22.778,11.616,23.106,11.092l-18.198-11.372      c0.23-0.368,24.145,11.114,24.238,10.963l-20.327-12.701c0.151-0.242,24.349,11.506,24.505,11.255      c0,0-19.099-11.536-18.92-11.822l23.425,10.069c0.276-0.441-19.088-11.874-19.063-11.912l24.242,10.449l-19.256-12.032      c0,0,22.709,10.69,23.103,10.06c0.303-0.484-18.378-10.623-17.991-11.242c0.283-0.454,22.089,10.165,22.089,10.165      l-18.339-11.459l20.657,9.754l-17.148-10.716c0.248-0.396,19.635,9.442,20.02,8.827l-15.917-9.946      c0.013-0.02,19.371,7.932,19.371,7.932c0.25-0.399-16.285-9.867-16.146-10.089l20.973,8.045c0,0-15.514-9.386-15.375-9.607      c0,0,18.818,8.495,19.186,7.907l-16.556-10.345l19.506,8.242l-16.162-10.1c0.034-0.055,19.857,8.404,19.948,8.26l-15.758-9.847      l19.783,7.832c0,0-16.534-10.138-16.446-10.277c0,0,20.096,9.152,20.366,8.72l-16.485-10.301      c0.06-0.097,19.411,7.053,19.411,7.053c0.212-0.341-16.521-10.024-16.387-10.24l19.477,7.623      c0.033-0.053-14.993-9.368-14.993-9.368s18.782,8.61,19.055,8.174c0,0-17.104-10.159-16.866-10.539l19.157,8.185      c0.099-0.157-16.227-10.14-16.227-10.14l18.448,7.394c0.118-0.189-14.544-9.088-14.544-9.088l18.073,8.079      c0.282-0.452-16.965-10.6-16.965-10.6s17.937,8.145,18.209,7.709c0,0-15.284-9.134-15.097-9.433l17.301,7.719l-15.241-9.524      l18.578,7.17l-16.024-10.014c0.071-0.114,19.225,7.576,19.268,7.507c0,0-16.122-10.017-16.097-10.059l18.862,7.572      c0.008-0.013-14.971-9.354-14.971-9.354s16.978,7.548,17.147,7.276c0,0-16.152-9.905-16.068-10.04      c0.063-0.101,18.006,7.396,18.006,7.396s-14.896-9.177-14.837-9.271c0,0,17.369,6.573,17.478,6.4l-14.803-9.25l16.308,5.768      l-13.8-8.623c0.019-0.031,16.556,7.659,16.809,7.255c0,0-16.379-9.613-16.1-10.06c0,0,18.171,7.688,18.203,7.636      c0.229-0.366-14.491-9.055-14.491-9.055c0.117-0.188,15.369,5.331,15.369,5.331s-14.194-8.463-14.011-8.756l16.658,6.517      c0,0-15.3-9.55-15.295-9.558c0.131-0.209,16.827,6.924,16.827,6.924s-14.477-8.792-14.362-8.975      c0.15-0.242,16.782,6.44,16.947,6.176c0,0-14.163-8.472-13.993-8.744c0.139-0.223,16.403,6.564,16.403,6.564      c0.076-0.122-14.883-9.3-14.883-9.3c0.195-0.313,17.28,6.305,17.28,6.305c0.24-0.384-16.188-9.678-15.991-9.993      c0,0,17.103,6.734,17.11,6.722c0,0-14.443-8.922-14.397-8.996c0,0,15.963,5.524,16.206,5.136      c0.284-0.455-15.021-9.123-14.903-9.313c0.231-0.37,16.582,7.66,16.796,7.317c0,0-14.654-8.776-14.483-9.05      c0.178-0.285,16.34,6.398,16.541,6.076l-16.048-10.027c0.314-0.504,16.9,5.89,16.9,5.89l-14.029-8.767      c0.113-0.182,15.727,6.716,15.727,6.716s-15.049-9.222-14.968-9.353c0.013-0.02,15.608,5.86,15.608,5.86      c0.205-0.327-14.286-8.642-14.157-8.847c0.231-0.37,15.828,6.398,16.047,6.048c0.241-0.385-13.895-8.683-13.895-8.683      l16.122,6.539c0.254-0.405-15.426-9.64-15.426-9.64c0.322-0.516,16.899,6.618,16.899,6.618      c0.288-0.461-14.926-9.294-14.911-9.317c0,0,14.94,5.563,15.213,5.128c0,0-14.816-8.906-14.658-9.16      c0.223-0.355,15.941,6.913,16.12,6.628c0.189-0.304-14.636-8.982-14.563-9.1c0.172-0.274,15.954,6.299,15.956,6.297      l-15.376-9.608c0.196-0.314,15.454,5.888,15.69,5.51l-14.989-9.367c0.147-0.235,15.98,6.689,15.98,6.689      s-14.08-8.623-14.001-8.749c0,0,14.507,5.784,14.66,5.538l-15.12-9.448c0.097-0.155,17.69,5.935,17.69,5.935      s-15.292-9.457-15.248-9.527l15.774,6.219l-16.26-10.16l16.808,6.448c0.077-0.124-15.493-8.959-15.168-9.479l16.194,5.68      c0,0-16.15-9.495-15.883-9.924c0.313-0.5,16.107,6.745,16.107,6.745l-14.843-9.275c0.239-0.383,15.884,6.595,16.012,6.39      c0,0-15.653-9.21-15.397-9.621l15.53,6.384c0,0-15.424-9.203-15.229-9.516l15.847,6.037c0.207-0.33-15.614-9.757-15.614-9.757      c0.281-0.45,16.035,6.839,16.193,6.586c0.205-0.329-15.753-9.844-15.753-9.844s16.741,7.635,16.962,7.282      c0,0-16.61-10.105-16.487-10.302l16.866,6.686c0.139-0.223-17.7-11.06-17.7-11.06c0.067-0.107,17.78,6.152,17.78,6.152      l-17.648-11.027l17.012,6.647c0.037-0.059-16.565-10.351-16.565-10.351c0.061-0.098,17.353,5.934,17.353,5.934l-16.612-10.38      c0,0,17.3,7.422,17.556,7.014c0,0-18.563-11.563-18.547-11.589c0.015-0.023,17.125,6.293,17.246,6.099l-16.658-10.41      l17.978,7.689c0,0-18.666-11.294-18.5-11.56c0.227-0.362,18.442,6.486,18.466,6.448c0.096-0.151-18.78-11.735-18.78-11.735      c0.26-0.415,17.207,7.352,17.44,6.978c0.02-0.03-18.078-10.694-17.807-11.127l17.979,6.099c0,0-20.744-12.042-20.33-12.704      c0.385-0.616,19.629,8.454,19.629,8.454l-19.78-12.36l19.973,8.548c0.275-0.441-20.868-12.377-20.57-12.854      c0.151-0.243,19.623,7.104,19.623,7.104l-20.631-12.891c0.22-0.352,19.666,8.196,19.666,8.196s-21.285-13.28-21.275-13.295      c0.067-0.108,18.988,7.906,18.988,7.906c0.359-0.575-20.9-12.709-20.742-12.961c0.354-0.567,19.768,8.57,20.063,8.099      c0.169-0.27-22.428-13.387-22.146-13.838l21.984,9.563c0.063-0.102-23.466-14.663-23.466-14.663      c0.22-0.353,22.008,10.507,22.008,10.507s-24.819-14.88-24.537-15.333c0.238-0.38,21.766,8.86,21.88,8.678      c0,0-24.961-14.385-24.416-15.257l22.709,9.48c0.185-0.295-25.859-15.624-25.619-16.009c0.207-0.33,23.583,11.748,23.925,11.201      c0.446-0.714-28.264-17.662-28.264-17.662c0.491-0.787,26.2,13.393,26.6,12.754c0,0-29.524-18.021-29.333-18.329      c0.142-0.226,25.164,11.873,25.592,11.187l-31.251-19.528c0.043-0.069,27.651,13.442,28.096,12.731      c0.688-1.1-34.867-21.788-34.867-21.788c0.548-0.878,31.118,16.25,31.118,16.25c0.419-0.672-37.963-22.992-37.635-23.517      l33.893,16.221c0.758-1.212-45.376-27.768-45.112-28.189c0.026-0.042,40.038,20.573,40.226,20.273      c1.51-2.417-139.708-82.474-137.54-85.944c1.5-2.4,129.062,77.085,129.646,76.152L325.599,46.868      c0.825-1.322,109.588,66.482,110.888,64.401c0,0-98.908-57.979-97.189-60.73c1.099-1.757,89.072,52.426,89.072,52.426      l-77.96-48.715c0.947-1.517,65.171,38.862,65.956,37.606c0,0-51.585-31.127-51.088-31.923" style="fill:none;stroke:#262626;stroke-width:2;stroke-linecap:round;stroke-linejoin:round;"/><path d="M150.183,278.953      l-0.863-0.54c0,0,8.282,0.562,8.397,0.377l-4.923-3.077c0,0,10.899,2.797,11.041,2.569l-8.998-5.623l14.099,4.992l-12.918-8.072      l19.786,8.63c0,0-18.487-10.904-18.196-11.37c0.252-0.403,22.937,11.044,23.202,10.619c0,0-21.616-12.625-21.219-13.259      c0.233-0.374,28.02,14.564,28.522,13.761c0,0-26.189-15.533-25.816-16.131c0.051-0.082,31.601,16.073,32.071,15.32      c0.024-0.038-30.342-17.456-29.666-18.538c0,0,34.053,17.967,34.164,17.79c0,0-34.217-20.829-33.969-21.227      c0,0,35.988,19.43,36.738,18.229c0.254-0.406-33.789-21.113-33.789-21.113l35.691,18.188c0,0-32.935-20.341-32.827-20.513      c0.308-0.493,33.561,18.118,34.098,17.259c0.574-0.918-33.223-20.76-33.223-20.76l35.401,17.998l-33.666-21.037      c0.108-0.172,35.529,19.304,36.088,18.41l-33.012-20.628c0.229-0.366,35.438,18.941,35.438,18.941      c0.608-0.974-35.197-21.563-35.003-21.873c0.513-0.821,35.788,19.17,35.788,19.17s-34.417-21.182-34.271-21.415      c0,0,36.428,19.452,36.896,18.702c0.424-0.679-34.005-21.229-33.997-21.243l34.102,18.167c0,0-32.459-20.018-32.34-20.208      c0.414-0.662,34.495,18.143,34.495,18.143c0.013-0.02-34.201-21.371-34.201-21.371c0.643-1.029,36.824,19.89,36.824,19.89      s-34.761-21.532-34.676-21.668c0.411-0.658,35.677,17.475,35.677,17.475s-34.008-20.6-33.716-21.067      c0.333-0.533,35.987,19.301,35.987,19.301l-39.548-24.712l42.457,21.368c0.634-1.015-51.155-30.709-50.59-31.612l52.644,29.114      c0.627-1.004-58.232-35.58-57.869-36.161c0.836-1.338,59.323,32.384,59.323,32.384c0.493-0.789-65.867-41.158-65.867-41.158      s65.937,40.054,66.925,38.473l-70.983-44.355c0.742-1.187,74.21,42.867,74.515,42.378l-74.606-46.619      c0.492-0.788,75.841,44.469,76.351,43.653c0,0-70.284-42.458-69.628-43.508l71.616,40.183      c0.97-1.553-65.935-41.013-65.851-41.148l60.706,33.234l-54.075-33.79c0,0,47.401,27.147,48.257,25.777      c0.695-1.112-42.334-24.475-41.445-25.897c0.497-0.795,37.613,19.864,37.613,19.864l-32.227-20.137l27.48,14.019l-22.556-14.094      c0.211-0.339,16.936,7.63,17.265,7.104l-11.382-7.113c0.003-0.005,5.754-0.556,5.754-0.556c0.023-0.038-0.447-0.25-0.434-0.271" style="fill:none;stroke:#262626;stroke-width:2;stroke-linecap:round;stroke-linejoin:round;"/><path d="M281.828,338.899      l-1.906-1.19c0,0,10.769,2.196,10.922,1.953l-14.575-9.107c0,0,21.708,9.902,22.009,9.422l-26.303-16.436l32.564,16.53      l-36.972-23.103l45.126,24.465c0,0-49.857-29.37-49.056-30.653c0.625-1,54.668,31.745,55.326,30.692      c0,0-60.351-35.282-59.259-37.029c0.575-0.921,66.649,40.337,67.886,38.359c0,0-72.404-42.952-71.375-44.6      c0.123-0.197,73.306,43.604,74.437,41.793c0.063-0.1-80.989-46.693-79.23-49.509c0,0,75.603,44.241,75.853,43.841      c0,0-81.772-49.776-81.178-50.727c0,0,75.863,46.297,77.489,43.694c0.615-0.984-82.075-51.286-82.075-51.286l78.356,44.848      c0,0-82.325-50.86-82.063-51.279c0.723-1.157,76.523,46.574,77.784,44.558c1.419-2.271-83.379-52.102-83.379-52.102      l79.703,45.682l-79.319-49.564c0.232-0.372,74.657,45.19,75.862,43.264l-72.828-45.508c0.465-0.744,70.707,40.979,70.707,40.979      c1.237-1.98-70.697-43.3-70.304-43.93c0.971-1.554,66.556,38.396,66.556,38.396s-65.35-40.218-65.072-40.662      c0,0,60.592,35.277,61.387,34.005c0.729-1.167-58.546-36.549-58.531-36.574l53.993,30.597c0,0-52.453-32.356-52.264-32.658      c0.599-0.959,49.377,27.442,49.377,27.442c0.019-0.029-49.118-30.692-49.118-30.692c0.829-1.327,47.119,26.323,47.119,26.323      s-45.112-27.944-45.001-28.12c0.454-0.727,39.221,19.689,39.221,19.689s-37.632-22.796-37.309-23.313      c0.367-0.587,39.55,21.527,39.55,21.527l-37.322-23.321l40.181,19.945c0.483-0.774-39.242-23.563-38.811-24.251l40.828,21.731      c0.419-0.671-39.259-23.993-39.017-24.38c0.562-0.899,40.427,20.576,40.427,20.576c0.284-0.455-37.954-23.716-37.954-23.716      s38.413,21.917,38.979,21.01l-36.597-22.868c0.392-0.626,39.928,21.125,40.089,20.867l-39.158-24.468      c0.259-0.414,40.597,21.907,40.864,21.479c0,0-38.366-23.176-38.008-23.75l39.952,20.396c0.565-0.904-38.59-24.003-38.54-24.083      l41.163,21.024l-39.012-24.377c0,0,39.887,22.138,40.602,20.994c0.638-1.021-38.856-22.464-38.04-23.771      c0.534-0.855,40.382,21.596,40.382,21.596l-38.591-24.114l39.389,21.46l-37.58-23.483c0.498-0.797,37.995,21.776,38.767,20.541      l-36.523-22.822c0.024-0.039,38.208,19.703,38.208,19.703c0.55-0.88-37.286-22.619-36.98-23.108l39.694,19.744      c0,0-36.761-22.283-36.451-22.777c0,0,37.986,21.375,38.76,20.139l-37.852-23.652l39.368,20.654l-37.69-23.551      c0.072-0.115,39.778,21.071,39.967,20.769l-37.392-23.365l40.006,20.468c0,0-38.541-23.631-38.338-23.957      c0,0,40.443,22.524,41.009,21.619l-38.552-24.09c0.13-0.209,40.001,19.918,40.001,19.918      c0.502-0.803-38.872-23.582-38.555-24.091l40.452,20.729c0.079-0.127-37.381-23.358-37.381-23.358s39.861,22.518,40.464,21.553      c0,0-39.851-23.637-39.282-24.546l40.679,21.632c0.236-0.378-38.74-24.208-38.74-24.208l40.073,20.906      c0.289-0.462-37.253-23.278-37.253-23.278l40.092,21.839c0.69-1.104-39.688-24.799-39.688-24.799s39.55,22.439,40.176,21.438      c0,0-38.314-22.927-37.858-23.657l39.544,21.618l-38.154-23.841l40.775,21.039l-39.057-24.405      c0.162-0.259,41.476,21.602,41.573,21.445c0,0-39.237-24.376-39.173-24.479l41.447,21.685      c0.02-0.032-38.272-23.916-38.272-23.916s39.635,22.249,40.048,21.586c0,0-39.623-24.288-39.411-24.627      c0.148-0.238,40.9,21.702,40.9,21.702s-38.361-23.642-38.214-23.878c0,0,40.206,21.191,40.471,20.768l-37.829-23.638      l39.014,19.955l-31.733-19.829c0.042-0.066,33.966,19.175,34.505,18.313c0,0-30.817-18.058-30.278-18.92      c0,0,32.121,16.466,32.18,16.371c0.379-0.605-24.419-15.259-24.419-15.259c0.198-0.318,25.172,11.457,25.172,11.457      s-19.292-11.513-19.049-11.903l21.581,9.591c0,0-15.669-9.78-15.664-9.788c0.133-0.212,17.095,7.092,17.095,7.092      s-10.488-6.366-10.403-6.501c0.113-0.183,12.924,3.939,13.049,3.74c0,0-4.844-2.877-4.776-2.984      c0.058-0.092,7.237,0.836,7.237,0.836c0.007-0.011-1.219-0.761-1.219-0.761" style="fill:none;stroke:#262626;stroke-width:2;stroke-linecap:round;stroke-linejoin:round;"/></g></g></g></g><g id="Layer_1"/></svg>