<?xml version="1.0" ?><!DOCTYPE svg  PUBLIC '-//W3C//DTD SVG 1.1//EN'  'http://www.w3.org/Graphics/SVG/1.1/DTD/svg11.dtd'><svg height="512px" style="enable-background:new 0 0 512 512;" version="1.1" viewBox="0 0 512 512" width="512px" xml:space="preserve" xmlns="http://www.w3.org/2000/svg" xmlns:xlink="http://www.w3.org/1999/xlink"><g id="twitter__x2C__social__x2C__media_x2C__icons_x2C_"><g><g><path d="M431.023,34.501c-116.684-4.667-233.367-9.335-350.05-14.002     C47.779,19.11,21.39,45.469,22.402,79.002c3.398,117.816,6.797,235.631,10.195,353.447C33.61,465.983,60,492.404,91.168,491.094     c109.887-4.396,219.773-8.791,329.66-13.187c31.171-1.312,57.562-27.67,58.574-58.503     c3.398-108.753,6.797-217.506,10.195-326.259C490.61,62.312,464.219,35.89,431.023,34.501z M378.28,196.202     c0.066,2.577,0.075,5.206,0.033,7.815c-0.195,11.975-1.849,24.203-4.85,36.357c-17.196,68.519-77.163,136.406-173.139,138.749     c-34.745,0.72-67.221-8.941-94.957-26.482c4.859,0.521,9.775,0.74,14.785,0.662c28.942-0.461,55.426-10.912,76.532-27.859     c-27.119-0.162-50.237-18.039-58.585-43.016c3.828,0.72,7.732,1.121,11.738,1.107c5.723-0.021,11.191-0.824,16.431-2.266     c-21.052-4.189-38.311-19.047-46.313-38.868c-2.874-7.088-4.418-14.797-4.563-22.882c-0.004-0.246-0.009-0.519-0.014-0.795     c8.694,4.801,18.169,7.688,28.452,8.083c-16.992-11.361-28.55-30.808-28.949-52.694c-0.208-11.563,2.699-22.356,7.986-31.56     c31.981,38.805,78.553,64.04,130.842,67.059c-1.05-4.555-1.622-9.231-1.625-14.064c-0.07-34.109,28.369-61.079,63.54-60.229     c18.299,0.411,34.739,8.146,46.111,20.117c14.482-2.43,28.181-7.193,40.576-13.829c-5.041,13.937-15.278,25.537-28.466,32.799     c12.829-1.258,25.065-4.291,36.519-8.852C401.652,177.42,390.722,187.854,378.28,196.202z" style="fill:none;"/><g><g><g><path d="M376.797,193.992c-0.371,0.66,0.396,1.104,1.808-0.084l0.307-1.834L376.797,193.992z" style="fill:#373737;"/><path d="M388.191,188.553c1.274-1.908,2.435-4.352,0.571-4.376c-0.807,2.326-1.521,2.267-2.363,4.904        c-1.375,1.251-2.819,1.631-2.866,1.053c-0.307,0.676-2.431,1.505-2.773,2.725c1.293-0.255,2.543-0.872,3.72-1.748        c1.175-0.878,2.326-1.952,3.257-3.326C388.445,187.57,388.157,188.263,388.191,188.553z" style="fill:#373737;"/><path d="M342.256,139.452l1.022,0.659C343.019,139.891,342.665,139.67,342.256,139.452z" style="fill:#373737;"/><path d="M250.653,183.548c0.121-0.89,0.081-1.282-0.022-1.352        C250.53,183.031,250.512,183.724,250.653,183.548z" style="fill:#373737;"/><path d="M248.573,203.714c-0.029-0.438-0.047-0.809-0.049-1.21        C248.435,202.977,248.428,203.448,248.573,203.714z" style="fill:#373737;"/><path d="M342.256,139.452c0,0-0.161-0.113-0.416-0.256c-0.253-0.148-0.591-0.345-0.929-0.542        c-0.68-0.396-1.358-0.791-1.358-0.791C339.191,138.186,340.909,138.761,342.256,139.452z" style="fill:#373737;"/><path d="M403.455,168.856c-0.346,0.51-0.58,0.98-0.76,1.442c0.282-0.423,0.561-0.828,0.858-1.236        C403.516,168.996,403.483,168.939,403.455,168.856z" style="fill:#373737;"/><path d="M384.657,146.304l0.842-0.31c0.194-0.231,0.36-0.486,0.506-0.757L384.657,146.304z" style="fill:#373737;"/><path d="M394.909,160.794c0.605-0.682-0.084-1.622-0.263-2.186c0.056,0.674-0.185,1.33-0.606,2        C394.196,160.755,394.466,160.827,394.909,160.794z" style="fill:#373737;"/><path d="M408.438,165.02l0.945-0.503C409.141,164.654,408.718,164.853,408.438,165.02z" style="fill:#373737;"/><path d="M362.169,151.379c0.068-0.168,0.068-0.375,0.021-0.548        C362.091,150.933,362.101,151.131,362.169,151.379z" style="fill:#373737;"/><path d="M368.406,238.807c0.071,0.048,0.13,0.018,0.194,0.044        C368.537,238.614,368.473,238.53,368.406,238.807z" style="fill:#373737;"/><path d="M378.57,196.2l0.063,0.614c0.213,0.063,0.423,0.131,0.631,0.13L378.57,196.2z" style="fill:#373737;"/><path d="M226.431,200.331c0.063,0.022,0.085,0.029,0.145,0.05        C227.486,200.427,226.981,200.352,226.431,200.331z" style="fill:#373737;"/><path d="M153.624,282.327c-1.633-1.202-0.027-0.873,1.341-0.737c1.374,0.154,2.472,0.191-0.012-1.334        c0.175,0.29-1.22,0.275-2.113,0.353C151.947,280.701,151.478,281.085,153.624,282.327z" style="fill:#373737;"/><path d="M404.19,168.213c0.322-0.385,0.609-0.809,0.935-1.204        C404.673,167.537,404.396,167.914,404.19,168.213z" style="fill:#373737;"/><path d="M154.953,280.256c0.002-0.005,0.004-0.009,0.004-0.009l-0.513-0.306        C154.654,280.071,154.773,280.145,154.953,280.256z" style="fill:#373737;"/><path d="M155.375,167.48c0.007,0.256,0.165,0.567,0.338,0.883        C155.763,168.256,155.704,168.032,155.375,167.48z" style="fill:#373737;"/><path d="M206.372,197.028l-1.331-0.646C205.554,196.679,205.986,196.874,206.372,197.028z" style="fill:#373737;"/><path d="M131.723,147.825c-0.495-0.634-0.532-0.964-1.367-1.682c0.023,0.114,0.06,0.217,0.115,0.342        C130.853,146.674,131.225,147.045,131.723,147.825z" style="fill:#373737;"/><path d="M112.357,163.576c0.112-0.168,0.212-0.396,0.319-0.593c0.032-0.339,0.07-0.735,0.104-1.084        L112.357,163.576z" style="fill:#373737;"/><path d="M322.212,322.497c0.72-0.271,1.278-0.338,1.769-0.339c-0.455-0.097,0.078-1.04,0.226-1.454        C324.342,320.28,324.199,320.484,322.212,322.497z" style="fill:#373737;"/><path d="M403.954,169.245c-0.099-0.323-0.031-0.62,0.236-1.032c-0.226,0.288-0.436,0.571-0.637,0.849        C403.623,169.24,403.731,169.356,403.954,169.245z" style="fill:#373737;"/><path d="M124.266,152.794l-3.379-4.151C121.783,149.843,123.014,151.352,124.266,152.794z" style="fill:#373737;"/><path d="M112.025,351.332l1.063,0.485C112.714,351.568,112.349,351.378,112.025,351.332z" style="fill:#373737;"/><path d="M123.321,155.334c-0.61,0.684-1.084,1.482-1.493,2.338c0.029,0.213,0.035,0.448,0.123,0.606        L123.321,155.334z" style="fill:#373737;"/><path d="M323.996,322.159c-0.011,0.004-0.016-0.001-0.016-0.001S323.985,322.163,323.996,322.159z" style="fill:#373737;"/><path d="M342.66,294.512c-2.697,3.95-0.059,2.678,0.072,4.003c-1.422,2.533-2.11,2.867-2.543,2.793        c-0.453-0.09-0.747-0.646-1.628-0.079c-0.902,1.55-1.453,3.112-2.06,4.503c-0.609,1.387-1.2,2.659-2.055,3.697        c-0.314,0.006-0.706,0.359-0.565-0.312c-0.682,1.89-2.555,4.018-4.391,6.271c-1.854,2.242-3.866,4.439-4.827,6.605        c-0.316,0.156-0.531,0.182-0.668,0.165c1.041,0.001,1.648,0.423,1.938,0.907c-1.512,1.589-2.22,3.553-3.481,3.459        c0.973-0.934,0.775-1.288,1.006-1.944l-1.327,1.922c-2.436,0.473,1.876-2.558,1.141-3.276        c-1.428,1.712-2.795,3.765-4.29,5.518c-1.484,1.761-2.936,3.391-4.348,4.383c-1.399-0.512,5.57-5.753,1.416-3.551        c0,0,1.055-0.798,2.11-1.596c1.071-0.784,2.084-1.636,2.084-1.636c-4.333,1.296,2.357-2.142-1.844-1.186        c-2.618,2.221-3.932,3.617-5.217,5.057c-1.32,1.397-2.69,2.752-5.421,4.826c-0.726,1.557,1.117,0.555,0.372,2.102        c-3.461,3.563-5.507,4.106-7.296,4.36c-1.79,0.271-3.19,0.455-5.648,3.201c-0.524,0.883-0.702,1.782-1.354,2.721        c-0.326,0.47-0.771,0.948-1.435,1.438c-0.658,0.499-1.545,0.994-2.78,1.443l0.694-2.204c-2.897,1.642-3.436,2.595-4.069,3.487        c-0.632,0.89-1.353,1.744-4.713,2.924c0.408-0.561,1.505-1.292,2.379-1.844c0.866-0.564,1.487-0.985,1.011-0.801        c-4.541,1.147-2.39,2.292-5.476,3.967l-1.262-0.867c-6.217,3.377-12.981,7.516-20.391,10.388        c0.276-0.535,1.394-1.409-0.471-1.154c-2.278,0.996-4.718,1.807-7.188,2.631c-2.485,0.778-5.071,1.353-7.626,1.96        c-2.569,0.562-5.174,0.92-7.696,1.329c-2.528,0.385-5.037,0.547-7.41,0.797c0,0-0.85,0.452-1.7,0.904        c-0.863,0.415-1.725,0.83-1.725,0.83c-0.849,0.1-1.641-0.314-0.762-0.662c-3.755,0.057-0.087,0.762-1.807,1.46        c-2.107,0.367-2.871-0.293-1.581-0.823c-0.8,0.229-1.687,0.49-2.645,0.728c-0.964,0.2-1.994,0.414-3.068,0.637        c-1.077,0.212-2.202,0.42-3.354,0.618c-0.577,0.096-1.159,0.192-1.745,0.289c-0.589,0.063-1.182,0.128-1.775,0.191        c-1.188,0.119-2.38,0.22-3.555,0.297c-0.588,0.033-1.171,0.066-1.748,0.099c-0.549,0.02-1.092,0.039-1.625,0.058        c-2.278-0.049-4.395-0.208-6.175-0.519l1.387-0.352c-0.69-0.061-1.318-0.058-1.864-0.038        c-0.538,0.012-1.021,0.063-1.468,0.141c-0.894,0.153-1.643,0.409-2.385,0.646c-0.742,0.234-1.476,0.457-2.337,0.528        c-0.865,0.047-1.855-0.051-3.094-0.415l0.979-0.138c-5.87-0.589-12.034-1.28-17.803-2.284        c-1.438-0.271-2.853-0.549-4.232-0.838c-1.373-0.32-2.702-0.688-3.986-1.051c-2.578-0.693-4.906-1.667-6.953-2.642        c-1.058,0.637-3.784-0.443-6.423-1.336c-2.615-0.976-5.117-1.885-5.881-0.893c-5.88-3.504-3.992-3.073-12.259-7.593        c-2.206-1.181-4.039-0.209-6.923-1.454l0.493-1.134c0,0-1.088-0.196-2.176-0.393c-0.546-0.101-1.093-0.2-1.503-0.275        c-0.405-0.089-0.674-0.147-0.674-0.147l-1.251-2.393l-2.698-1.149c0.975,0.629,1.88,1.688,1.552,1.912        c-2.544-0.988-5.229-3.144-6.968-4.73c-0.96,2.756-1.92,5.512-2.762,7.926c1.729,0.467,2.908,0.949,2.937,1.212        c0,0,0.726-0.011,1.814-0.026c1.087-0.04,2.532,0.02,3.975-0.13c2.873-0.22,5.747-0.439,5.747-0.439        c-0.249,0.493-2.174,0.637-3.709,0.931c3.087-0.584,3.355-0.257,3.577,0.084c0.109,0.17,0.203,0.344,0.623,0.407        c0.052,0.005,0.11,0.012,0.173,0.018l0.099,0.006l0.053,0.001l0.18-0.004c0.145-0.007,0.313-0.023,0.511-0.053        c0.396-0.058,0.91-0.163,1.581-0.333c-0.736-0.252,0.364-0.748,0.478-1.002c0.682,0.161,1.577,0.268,2.607,0.33        c1.067,0.031,2.315-0.018,3.605-0.09c2.618-0.104,5.322-0.612,7.659-1.037l-0.783,0.955        c8.572-0.916,17.724-3.837,26.742-7.091c-3.393,0.764-3.104-0.897-0.542-1.94l1.498,0.822        c1.386-1.415-2.876,0.606,0.201-1.669c3.333-1.157,2.778,0.494,1.013,1.648c0,0,0.97-0.506,1.939-1.011        c0.975-0.489,1.917-1.045,1.917-1.045c0.386,0.254-0.464,0.858-0.52,1.421c0.666-0.733,2.512-1.196,4.438-1.776        c1.911-0.604,3.863-1.408,4.708-2.598l0.398,0.236c2.128-1.136,3.954-2.14,5.567-3.121c1.596-1.012,3.038-1.904,4.388-2.834        c1.337-0.944,2.629-1.857,3.987-2.816c1.332-0.99,2.729-2.029,4.299-3.197c-0.515-0.933,1.699-2.446,3.003-4.367l6.239-9.19        l-8.604,2.406c-0.149,0.042-0.285,0.088-0.42,0.14c-5.22-0.414-10.724-2.109-16.553-3.876        c-1.084-0.146-1.69-0.293-2.064-0.293c-0.372-0.01-0.493,0.075-0.545,0.189c-0.107,0.229,0.071,0.581-0.976,0.534        c0.016-0.268-0.338-0.604-0.823-0.948c-0.486-0.341-1.105-0.685-1.591-1.053c-0.991-0.695-1.579-1.154,0.006-0.8        c-1.664-0.776-3.077-1.325-4.257-2.032c-0.606-0.324-1.183-0.633-1.75-0.937c-0.575-0.295-1.139-0.59-1.683-0.949        c-2.225-1.354-4.738-2.757-8.472-5.703c0.461,1.012,1.196,1.955,0.522,1.8c-1.392-1.08-2.6-3.032-2.063-3.203l0.406,0.236        c-3.531-2.651-6.451-6.803-8.553-11.187c-2.075-4.435-3.341-9.012-4.751-12.808c-2.026,2.323-4.051,4.646-6.022,6.907        c2.082,0.275,4.041,0.384,5.797,0.243l-0.548,0.03c0,0,0.158,0.004,0.433,0.012c0.275,0.007,0.666,0.033,1.145-0.011        c0.948-0.059,2.212-0.138,3.476-0.216c0.626-0.041,1.252-0.083,1.84-0.121c0.146-0.011,0.29-0.02,0.431-0.029l0.343-0.021        l0.19-0.029c0.25-0.039,0.486-0.077,0.704-0.111c0.873-0.137,1.454-0.229,1.454-0.229c4.307,0.015-2.55,0.867,0.656,1.38        c1.446-0.298,2.81-0.58,4.11-0.849c0.663-0.133,1.328-0.229,1.943-0.359c0.609-0.131,1.205-0.258,1.789-0.383        c2.352-0.41,4.476-0.927,6.583-1.347l18.312-3.654l-18.627-5.102c-3.106-0.851-6.03-1.674-9.536-2.527        c-2.244-2.47-6.914-4.544-11.509-7.551c-4.603-2.922-9.063-6.787-10.848-10.461l-0.24,0.808        c-1.92-1.089-1.259-2.202-2.063-3.466c-0.313,0.497,0.858,2.161-0.232,1.379c-2.113-2.381-3.869-5.104-5.477-7.923        c-0.722-1.456-1.526-2.88-2.111-4.412l-0.471-1.134L124.427,241l-0.117-0.284l-0.015-0.036l-0.007-0.018        c0.033,0.087-0.078-0.207,0.072,0.192l-0.003-0.01l-0.025-0.079l-0.051-0.158l-0.808-2.526l-0.795-2.537        c-0.196-0.805-0.311-1.554-0.471-2.331l-0.453-2.303l-0.114-0.574l-0.061-0.614l-0.12-1.227l-0.241-2.446        c-0.036-0.408-0.091-0.812-0.111-1.221l-0.004-1.234l-0.012-2.459c0.003-0.834-0.033-1.588,0.015-2.515        c-2.834,1.707-5.669,3.414-8.496,5.116c5.069,3.116,10.583,5.665,16.349,7.348c0.948,0.264,1.737,0.439,2.417,0.505        c0.685,0.048,1.251,0.027,1.741-0.036c0.979-0.125,1.654-0.417,2.372-0.652c0.724-0.272,1.491-0.493,2.654-0.463        c1.163,0.066,2.724,0.239,5.105,0.824l-2.84,1.128c1.065-0.02,2.133-0.04,3.211-0.06l19.451-0.362l-16.165-9.761l-1.99-1.201        l-0.992-0.618l-0.946-0.688l-1.883-1.404l-1.778-1.544l-0.885-0.78l-0.833-0.836l-1.657-1.684l-1.546-1.787l-0.771-0.893        l-0.717-0.937l-1.433-1.87l-1.325-1.939c-0.926-1.263-1.66-2.642-2.515-3.94c-1.533-2.697-3.053-5.383-4.376-8.147        c0.566,0.619,0.923,0.5,1.389,1.673c-0.048-1.46-0.973-3.771-1.759-5.813c-0.447-1.004-0.837-1.943-1.179-2.623        c-0.351-0.677-0.663-1.092-0.857-1.061c-0.207-0.999-0.042-1.153,0.167-1.216c0.208-0.063,0.47-0.042,0.559-0.687        c0.044-1.393-0.595-3.003-0.981-4.53c-0.209-0.759-0.432-1.483-0.502-2.116c-0.055-0.635-0.015-1.174,0.206-1.549        c0.144-0.253,0.35,0.75,0.447,1.24c-0.137-0.434-0.223-1.169-0.294-2c-0.016-0.208-0.033-0.421-0.05-0.637l-0.024-0.326        l-0.012-0.164l-0.006-0.082l-0.001-0.021l-0.001-0.01v-0.005c0-0.167,0,0.225,0,0.183v-0.003v-0.045        c-0.002-0.479-0.004-0.956-0.007-1.403c-0.023-1.789-0.134-3.104-0.702-2.182c0.058-0.693,0.174-1.231,0.244-1.805        c0.074-0.568,0.127-1.129,0.167-1.686c0.037-1.095,0.233-2.257,0.321-3.349c0.063-0.549,0.094-1.098,0.188-1.626        c0.099-0.527,0.203-1.046,0.318-1.554c0.234-1.015,0.478-1.996,0.94-2.873c-0.12-0.688,0.005-1.532,0.234-2.423        c0.245-0.886,0.679-1.787,1.031-2.655c0.176-0.434,0.348-0.855,0.508-1.25c0.175-0.388,0.321-0.754,0.421-1.092        c0.2-0.675,0.216-1.236-0.098-1.608c0.39,0.281,0.866-0.07,1.438-0.748c0.593-0.669,1.243-1.688,1.861-2.841        c-2.703,0.227-5.406,0.455-8.231,0.692c1.826,2.138,4.169,4.389,5.576,5.375c-1.161-0.503,1.53,2.628,0.089,2.123        c2.712,2.843,5.457,5.192,5.643,4.052c0.428,0.838,0.927,1.612,1.472,2.335c0.548,0.72,1.191,1.339,1.831,1.943        c1.292,1.198,2.674,2.231,3.967,3.206c0.647,0.486,1.27,0.963,1.855,1.432c0.606,0.447,1.169,0.895,1.667,1.359        c0.997,0.929,1.737,1.926,2.062,3.116c9.532,6.774,18.711,12.347,27.847,17.277c-0.625,0.702-3.089-0.796-5.481-2.211        c-1.195-0.71-2.37-1.405-3.288-1.809c-0.903-0.426-1.541-0.58-1.714-0.118c8.79,4.775,14.407,6.353,22.981,11.01        c2.171,1.333-1.632,0.074-2.548-0.03c2.312,0.913,4.52,1.928,6.702,2.91c2.216,0.906,4.378,1.84,6.514,2.753        c2.115,0.963,4.294,1.673,6.43,2.404c1.071,0.356,2.14,0.695,3.208,1.009c0.536,0.15,1.07,0.301,1.603,0.45l1.629,0.33        c-0.074,0.149-1.041,0.057-1.938-0.093c1.671,0.47,3.775,1.442,3.832,0.605l-1.679-0.283        c-2.245-1.933,7.276-0.369,7.711-0.894c-1.704,0.704,0.292,1.507,2.125,2.155c1.816,0.686,3.433,1.401,0.802,2.275        c1.148,0.127,2.627,0.095,2.503-0.501c1.595,0.563,2.049,1.006,0.236,1.197c1.534,0.268,2.561,0.381,3.323,0.422        c0.768,0.017,1.274-0.048,1.755-0.09c0.964-0.089,1.841-0.136,4.584,0.405c-0.093,0.387-1.23,0.323-1.893,0.67        c1.472-0.109,2.938-0.22,4.605-0.15c1.667,0.075,3.562,0.161,5.873,0.672c-0.314,0.198,0.186,0.582-1.211,0.382        c1.454,0.18,2.837,0.291,4.178,0.362c0.67,0.031,1.329,0.072,1.983,0.071c0.656-0.019,1.304-0.037,1.95-0.056        c2.581-0.087,5.1-0.206,7.811-0.123l2.839,0.087l-0.688-2.636c-0.252-0.967-0.486-1.975-0.689-3.036        c-0.175-1.065-0.262-2.191-0.337-3.371c1.042,1.119,1.057,0.387,1.043-0.679c0.021-1.074-0.021-2.5,0.704-2.762        c0,0-0.07-0.27-0.114-0.679c-0.054-0.41-0.125-0.956-0.197-1.502c-0.072-0.55-0.145-1.099-0.2-1.511l-0.005-0.038        l-0.002-0.019c0-0.021-0.002,0.179-0.001,0.094v-0.001v-0.002l0-0.005l-0.001-0.01l-0.005-0.078        c-0.003-0.05-0.007-0.098-0.01-0.143c-0.006-0.09-0.012-0.168-0.017-0.232c-0.009-0.129-0.014-0.203-0.014-0.203        s-0.048,0.117-0.12,0.292c-0.036,0.087-0.079,0.19-0.124,0.299l-0.017,0.042l-0.009,0.021l-0.004,0.011l-0.001,0.001v0.001        c0,0.019,0.002-0.164,0.001-0.086l-0.001,0.002l-0.002,0.005l-0.031,0.081l-0.063,0.167c-0.167,0.449-0.334,0.899-0.334,0.899        c-0.01-0.245-0.02-0.488-0.03-0.729l-0.023-0.36l-0.003-0.045l0-0.011l0-0.006l0-0.002c-0.001,0.148,0,0.04-0.001,0.072        v-0.023l-0.002-0.095l-0.005-0.188c-0.015-0.502-0.041-0.997-0.075-1.486c-0.038-0.487-0.076-0.969-0.114-1.446        c-0.019-0.446-0.038-0.887-0.057-1.324c-0.04-0.876-0.07-1.743,0.028-2.612c0.094-0.862,0.178-1.719,0.475-2.529        c0,0,0.009,0.746,0.083,1.493c0.06,0.741,0.119,1.482,0.119,1.482s0.042-0.456,0.103-1.14c0.031-0.343,0.068-0.742,0.107-1.17        c0.061-0.425,0.126-0.879,0.191-1.333c0.123-0.91,0.258-1.819,0.409-2.491c0.133-0.677,0.222-1.127,0.222-1.127        s-0.379,0.982-0.758,1.966c-0.329,1.004-0.658,2.008-0.658,2.008c-0.018-2.041-0.499-2.044-0.807-2.158        c-0.316-0.116-0.429-0.367,0.395-2.954c-0.177,1.099,1.126-3.938,2.726-5.57c0,0-0.005,0.012-0.001,0.014        c0.158-0.998,0.295-2.036,0.626-3.136c0.373-1.079,0.829-2.274,1.726-3.494c0.783-0.453,1.172,1.314,1.688,1.022        c-0.118-1.138,0.923-3.225,2.17-5.26c0.309-0.512,0.619-1.027,0.922-1.529c0.321-0.49,0.627-0.972,0.897-1.438        c0.524-0.942,0.971-1.769,1.111-2.459c-0.287,0.839,0.303,1.356,0.596,1.251l0.255-1.904c1.466-1.188,1.778-1.254,2.034-0.621        c0.946-0.992,1.289-1.46,1.321-1.705c0.027-0.248-0.259-0.269-0.511-0.296c-0.5-0.044-0.872-0.168,1.798-2.183        c-0.328,0.41-0.053,0.343-0.707,1.217c2.518-2.151,4.873-4.29,7.35-6.227c2.483-1.915,5.103-3.592,7.947-4.725        c1.144,0.308-0.037,0.907-1.121,1.59c-1.104,0.657-2.175,1.276-0.979,1.35c3.664-2.197,7.601-4.354,11.786-5.982        c4.172-1.631,8.589-2.715,12.845-2.852l-1.593-0.008c0.241-0.557,0.772-0.81,1.494-0.899c0.724-0.056,1.636,0.068,2.637,0.218        c1.001,0.143,2.092,0.421,3.195,0.531l0.789,0.079c0.286,0.028,0.572,0.047,0.859,0.054c0.572,0.014,1.144-0.019,1.704-0.117        c-1.095,0.105-1.48,1.109-1.176,0.887c1.541,0.127,2.924,0.3,4.392,0.399c0.732,0.039,1.507,0.155,2.288,0.214        c0.786,0.064,1.592,0.128,2.415,0.244c3.309,0.358,7.017,0.919,11.281,2.199l-1.223,0.141c0.768,0.381,1.656,0.822,2.61,1.295        c0.965,0.436,1.976,0.939,2.989,1.454c2.038,1.007,4.042,2.157,5.537,3.221c1.232,0.069,2.921,1.38,2.295-0.016        c3.342,3.792,6.85,6.622,10.234,9.638l1.093,0.975l1.045-0.26c6.316-1.575,12.004-3.944,18.271-4.351        c-1.207,0.403-2.766,1.367-1.792,1.076c0,0,2.131-0.813,4.261-1.627c1.07-0.386,2.102-0.881,2.89-1.203        c0.784-0.337,1.307-0.561,1.307-0.561c-0.995-0.62-1.314-0.116-3.33-0.146c0.886-0.927,3.128-2.132,5.173-2.972        c-3.519,2.049,0.571,1.398,2.399,1.175c-0.38-0.15,0.057-0.668-0.191-0.877c2.498-0.135,2.504-0.648,2.658-1.31        c0.162-0.66,0.473-1.462,3.605-2.294l-0.099,0.58c1.786-1.074,3.249-2.445,5.154-3.45c-0.121-0.104-0.242-0.209-0.38-0.329        c-0.117,0.299-0.253,0.612-0.403,0.926c-0.739,0.311-0.563-0.397-0.342-1.195c0.475,0.411,0.987,0.854,1.499,1.297        c-0.635,0.43-1.355,0.9-1.234,1.306c0.505-0.268,0.985-0.576,1.448-0.907c-0.716-0.619-1.432-1.238-2.14-1.851        c-0.353,1.429-0.517,2.935-0.834,4.37c-0.079,0.358-0.168,0.711-0.271,1.057c-0.131,0.331-0.28,0.653-0.445,0.963        c-0.332,0.621-0.739,1.194-1.256,1.688c0.224-0.739,0.588-1.584,0.951-2.427c0.373-0.838,0.593-1.746,0.764-2.486        c-0.623,0.677-1.069,1.208-1.428,1.657c-0.399,0.43-0.687,0.789-0.93,1.138c-0.487,0.697-0.806,1.358-1.486,2.428l0.142-0.206        c0,0-0.202,0.306-0.506,0.764c-0.296,0.461-0.796,1.012-1.245,1.59c-0.916,1.137-1.832,2.273-1.832,2.273l1.093-1.047        c0.047,2.641-1.382,4.452-2.873,6.379c-0.361,0.496-0.809,0.933-1.246,1.398c-0.437,0.465-0.876,0.947-1.308,1.463        c-0.431,0.515-0.854,1.063-1.261,1.662c-0.422,0.583-0.878,1.162-1.287,1.837c0.82-1.283,1.206-2.006,1.308-2.43        c0.118-0.405,0.008-0.447-0.204-0.358c-0.404,0.199-1.295,0.835-1.553,0.241c-1.355,0.741-3.279,1.932-3.021,1.25        c-0.356,0.626-0.759,1.124-1.25,1.492c-0.499,0.36-1.037,0.652-1.591,0.975c-0.555,0.323-1.127,0.676-1.702,1.165        c-0.289,0.242-0.573,0.529-0.87,0.845c-0.312,0.295-0.626,0.636-0.943,1.038c-0.357-0.241-2.523,1.491-2.492,0.325        c-2.851,2.101,1.045,0.156,1.055,0.725c-0.506,0.504-1.076,0.97-1.697,1.408l-9.546,6.735l10.962-2.167        c2.731-0.54,5.882-0.531,9.271-0.715c1.685-0.139,3.406-0.446,5.151-0.83c1.737-0.413,3.504-0.903,5.197-1.733        c3.413-1.348,5.334-2.427,7.176-3.47c0.93-0.492,1.802-1.095,2.831-1.704c1.03-0.61,2.21-1.251,3.71-1.962        c2.332-0.173-1.245,1.956-1.245,1.956c1.793-0.34,3.332-0.767,4.795-1.301c-0.644-0.833-1.287-1.665-1.928-2.492        c-0.938,1.233-1.755,2.521-2.614,4.009c0.144-0.756-0.494-0.362-1.479,0.148c-1.646,2.106-0.059,2.291-2.801,4.624        c0.083-0.741,0.048-1.804,0.545-3.065c-0.437,0.658-0.855,1.331-1.267,2.013c-0.434,0.667-0.867,1.334-1.303,2.005        c-0.876,1.342-1.736,2.734-2.798,3.996c-1.103,0.13,0.685-2.1,1.103-3.272c-0.282,0.361-0.586,0.75-0.901,1.153        c-0.333,0.389-0.68,0.794-1.03,1.204c-0.699,0.823-1.412,1.676-2.054,2.493c-1.305,1.611-2.39,3.016-2.443,3.812l2.015-1.323        c-0.964,0.953-1.14-0.21-0.545-1.02c1.706-2.765,3.495-2.924,3.921-2.766l-1.485,1.834c0.826-0.017,1.647-0.464,2.466-1.174        c0.407-0.357,0.82-0.771,1.22-1.243c0.387-0.483,0.772-1.011,1.157-1.563c0.76-1.111,1.554-2.283,2.288-3.449        c0.73-1.169,1.474-2.271,2.259-3.152l0.004,2.579c0,0,0.522-1.156,1.044-2.312c0.269-0.568,0.489-1.17,0.669-1.608        c0.176-0.441,0.293-0.735,0.293-0.735c0.968-0.549,2.148-0.559,0.9,1.472c2.036-1.647,1.816-2.378,2.596-3.371l1.128-1.436        l-1.765,0.612c-0.409,0.142-0.943,0.247-1.739,0.28c-0.354-0.025-0.245-0.149,0.012-0.31l-2.953,1.584        c0.494-0.548-0.912-0.921,1.079-1.379c-1.478,0.274-2.745,0.685-3.865,1.142c-0.56,0.229-1.081,0.469-1.572,0.709        c-0.5,0.214-0.972,0.416-1.417,0.606c-1.775,0.784-3.136,1.413-4.375,1.106l0.45-0.233c-1.94,0.692-2.944,1.127-3.442,1.438        c-0.507,0.274-0.501,0.455-0.424,0.65c0.149,0.392,0.6,0.833-2.321,2.168c0,0-1.185-0.524-2.369-1.049        c-1.162-0.529-2.323-1.058-2.323-1.058l-0.574,1.366c-0.838,0.169-2.527,0.284-2.296-0.241        c-3.012,1.246,0.623,0.453-1.086,1.477c-2.077-0.27-4.781,0.204-7.155,0.552c0.11,0.354,0.215,0.691,0.319,1.029        c2.164-1.353,4.022-2.415,4.991-1.84c0.765-1.553-3.8,1.475-0.355-1.377c1.093,0.5,2.103-0.355,3.263-1.494        c0.577-0.566,1.213-1.188,1.874-1.837c0.652-0.655,1.385-1.263,2.262-1.715c-0.16,1.581-3.32,3.592,0.235,1.754        c0.264-1.495,1.815-2.546,3.353-3.854c1.575-1.255,3.463-2.456,4.305-3.914c-0.524-0.537,0.508-1.983,1.933-3.955        c0.666-1.02,1.423-2.179,2.2-3.37l0.575-0.903c0.177-0.311,0.327-0.638,0.486-0.958c0.313-0.642,0.609-1.285,0.876-1.915        c0.085,0.167,0.66-0.626,1.504-1.938c0.741-1.361,1.656-3.285,2.627-5.267l2.305-4.704l-5.2,2.198        c-2.297,0.971-4.622,2.052-6.377,2.592l0.027-0.281c-0.115,0.858-1.353,1.763-2.973,2.666c-1.652,0.83-3.66,1.711-5.335,2.502        c-0.176-0.866,0.325-1.414,2-2.544c0,0-0.792,0.328-1.585,0.657c-0.795,0.322-1.604,0.605-1.604,0.604        c-0.598,0.715-1.518,1.33-3.576,2.241l0.459-1.326c-4.279,1.489-8.401,4.113-14.354,4.647        c-0.134,1.081,5.297,1.702-0.779,3.807c-0.35-0.507-0.76-1.355,0.802-1.956c-0.507,0.211-1.795,0.864-2.919,0.826        c0,0,0.574-0.346,1.149-0.691c0.574-0.335,1.135-0.714,1.135-0.714c-2.731,0.151-1.232,1.039-3.386,1.369        c-0.104-0.785-1.679-0.256-1.483-0.931c0.526-0.177,1.91-0.028,2.663-0.487c-1.265,0.164-2.68,0.265-3.873,0.262        c0.778,0.26,1.469,0.491,2.16,0.722c-0.674-0.966-1.176-1.831-1.327-2.385c-0.165,0.495-0.715,0.727-2.173-0.438        c-1.791-1.611-1.99-2.014-1.92-2.353c0.063-0.331,0.362-0.542-0.62-1.61c-1.252-0.326-3.441-2.626-4.193-1.688        c-1.17-0.791-1.083-1.395-1.37-1.971c-1.196-0.481-3.738-1.97-5.818-2.892c-2.078-0.93-3.624-1.357-2.617-0.203l0.539,0.348        c-0.118-0.029-0.244-0.088-0.389-0.127c0.02,0.009,0,0,0.02,0.009l-0.02-0.009c-3.9-1.222-7.727-2.83-11.718-4.165        c-3.99-1.334-8.079-2.386-12.199-2.444l0.038-0.393c-1.185,0.013-2.435,0.027-3.698,0.041        c-1.356,0.029-2.604,0.089-3.871,0.155c-1.25,0.128-2.456,0.231-3.551,0.435c-1.094,0.22-2.083,0.459-2.901,0.765        c-1.384,0.205-3.412-0.221-2.893-0.773c-1.798,0.481-2.769,0.859-3.951,1.202c-1.179,0.368-2.581,0.624-5.229,1.126        c3.382-1.723-1.436-0.264,3.542-1.544c-1.203,0.193-2.163,0.403-3.024,0.567c-0.861,0.161-1.611,0.314-2.346,0.557        c-0.735,0.235-1.478,0.493-2.3,0.91c-0.813,0.439-1.734,0.97-2.812,1.748c1.22-1.692-3.905,0.386-5.791,1.84        c0,0,0.846-0.247,1.69-0.495c0.419-0.121,0.839-0.242,1.153-0.333c0.312-0.094,0.526-0.14,0.526-0.14        c-1.122,0.664-2.191,1.246-3.228,1.812c-1.015,0.605-2.043,1.118-3.024,1.73c0,0,0.082-0.455,0.164-0.909        c0.095-0.446,0.19-0.892,0.19-0.892c-4.788,1.99-8.039,5.536-10.698,8.869c-2.688,3.378-4.824,6.563-8.161,8.931        c-0.361,1.387,0.515,0.309,1.517-0.689c0.973-1.029,2.017-2.01,1.719-0.749c-0.708,0.892-1.545,1.706-2.34,2.512        c-0.78,0.816-1.625,1.552-2.34,2.268c-0.729,0.719-1.386,1.366-1.926,1.899c-0.507,0.562-0.888,1.021-1.063,1.346        c-0.946,1.328-1.391,2.44-1.684,3.376c-0.301,0.933-0.339,1.746-0.394,2.549c-0.044,0.809-0.115,1.605-0.266,2.604        c-0.162,0.995-0.527,2.144-1.085,3.702c0.346-0.34,0.876-0.602,1.203-0.181c0.164,0.209,0.277,0.587,0.294,1.205        c0.002,0.613-0.054,1.476-0.208,2.663c-0.149,0.536-0.314,1.014-0.479,1.438c-0.146,0.428-0.303,0.8-0.463,1.117        c-0.32,0.633-0.655,1.046-0.955,1.234c-0.601,0.377-1.063-0.155-0.986-1.629c0.15-1.102,0.418-1.592,0.571-1.511        c0.172-1.479,0.434-3.453-0.493-1.784l0.322,0.697c-0.533,1.057-1.025,3.185-1.442,4.848c-0.364,1.67-0.702,2.881-0.993,2.083        c0.012,1.807,0.229,2.243,0.412,1.843c0.101-0.194,0.205-0.588,0.324-1.089c0.135-0.49,0.28-1.091,0.424-1.729        c-0.175,0.732-0.349,1.412-0.456,2.097c-0.103,0.689-0.185,1.351-0.253,1.993c-0.165,1.334-0.135,2.355-0.164,3.488        c0.006,2.446,0.128,4.752,0.211,7.86c0.173-1.006,0.651-1.939,0.731-0.979c0.007,2.079,0.271,3.384,0.416,4.258        c0.162,0.874,0.367,1.294,0.575,1.587c0.409,0.586,0.83,0.671,1.424,2.711c0.344-0.408,1.252-1.484,2.161-2.561        c-0.218,0.01-0.583,0.001-1.006-0.019c-3.171-0.995,1.267-1.626-4.46-1.503c-3.421-0.781-0.608-1.316,0.784-1.586        c-5.243,0.589-9.484-1.719-12.341-2.239l2.725-0.009c-1.626,0.002-2.937-0.181-4.266-0.374l1.375,1.152        c-1.554-0.349-2.866-0.658-2.771-1.031c-1.722,0.299,0.972,1.797-2.401,2.009c-2.001-0.901-6.534-0.685-6.957-2.173        c1.6,0.537,2.399,0.599,2.744,0.58c0.349-0.036,0.263-0.234,0.15-0.457c-0.227-0.446-0.556-0.993,2.23-0.558        c-1.094-0.067-2.404-0.297-3.923-0.802c-0.199-0.202,0.272-0.184,0.714-0.181c-5.913-2.607-3.158,0.687-9.605-0.944        c0.994-0.449-1.105-1.738-2.17-1.915c2.534,0.793,0.9,1.515-1.616,1.312c-1.961-0.89-3.097-1.13-4.016-1.24        c-0.92-0.1-1.614-0.086-2.652-0.516c0,0,0.58,0.282,1.16,0.563c0.591,0.251,1.182,0.503,1.182,0.503        c-1.066,0.461-3.048-0.397-5.945-1.21c-0.049-0.606,2.686,0.576,1.764-0.021c-1.771,0.018-3.435-0.934-5.213-1.98        c-1.764-1.093-3.598-2.382-5.894-2.887c-1.774-1.277,0.343-1.304-1.241-2.331c-1.286-0.269-2.183-0.692-2.932-1.088        c-0.746-0.404-1.324-0.827-1.905-1.257c-1.157-0.875-2.351-1.716-4.916-2.619c0.452,0.809,0.793,1.149,0.517,1.218        c-0.282,0.08-1.127-0.205-3.024-0.719c0,0,0.509,0.233,1.271,0.584c0.753,0.368,1.789,0.793,2.835,1.197        c2.077,0.826,4.153,1.652,4.153,1.652l-5.772-1.271c2.432,1.201,5.397,1.964,6.779,2.82c-2.793-0.498-2.448-0.593-1.615,0.695        c-1.366-1.463-3.102-2.078-4.948-2.682c-1.85-0.585-3.715-1.344-5.377-2.785l1.261-2.003c-1.267-1.006-2.56-1.769-3.883-2.458        c-1.292-0.74-2.631-1.378-4.033-2.037c-1.396-0.667-2.878-1.322-4.392-2.181c-1.488-0.897-3.044-1.942-4.667-3.25l1.964,1.864        c-0.725,0.068-1.805-0.643-3.006-1.521c-0.6-0.441-1.239-0.911-1.865-1.371c-0.617-0.472-1.226-0.926-1.82-1.262        c0.672-0.479-0.491-1.739-1.096-2.828c-0.124,0.274-1.318-0.665-2.679-1.575c-1.386-0.88-2.816-1.889-3.623-1.516        l-2.153-3.211c-2.443-2.302-4.157-3.255-5.941-4.123c-0.887-0.438-1.775-0.871-2.727-1.486        c-0.955-0.612-1.979-1.404-3.04-2.648c0.984,0.408,1.062-0.024,1.327-0.215c0.279-0.207,0.677-0.107,2.478,1.143        c-0.386-0.375-0.763-0.741-1.111-1.079c-0.331-0.355-0.638-0.678-0.911-0.94c-0.546-0.525-0.958-0.811-1.166-0.631        c-0.259-0.629-1.483-1.523-2.753-2.511c-1.272-0.984-2.594-2.062-2.943-3.085c-0.854-0.458-1.67-0.136-3.221-2.026        c-0.053-0.306,0.302-0.248,0.302-0.248c-0.299,0.251-2.911-2.547-2.176-0.366c-0.298-0.786-0.696-1.581-1.179-2.388        l-1.119-1.874l-1.703,2.111c-2.277,2.823-4.068,6.921-5.322,10.905c-0.314,0.996-0.566,1.997-0.861,2.953        c-0.147,0.479-0.292,0.95-0.434,1.412c-0.125,0.467-0.247,0.924-0.366,1.371c-0.253,0.89-0.527,1.73-0.832,2.506        c-0.276,0.78-0.545,1.503-0.884,2.141c-0.13,1.25-0.27,2.562-0.289,3.948c-0.037,1.359-0.149,2.801-0.076,4.061        c0.014,0.648,0.028,1.292,0.042,1.929c0.006,0.318,0.012,0.634,0.017,0.948l0.006,0.321l0.02,0.242l0.038,0.48        c0.094,1.274,0.185,2.494,0.269,3.623c-0.267-0.269-0.399,0.019-0.364-0.847c-0.096,3.158,0.624,4.063,1.303,5.025        c0.368,0.48,0.736,0.98,1.039,1.795c0.3,0.816,0.513,1.946,0.757,3.681c-0.388,3.802-1.557-3.48-1.498-1.191        c-0.577,0.376-0.715,1.092-0.602,2.032c0.109,0.941,0.461,2.104,0.989,3.332c0.501,1.236,1.043,2.576,1.597,3.878        c0.519,1.315,0.902,2.646,1.081,3.895l-0.623-1.015c0.177,0.935,0.558,1.904,1.063,2.909c0.487,1.015,1.232,1.998,1.956,3.061        c1.499,2.106,3.332,4.29,4.982,6.794c0,0-0.353-0.109-0.341,0.197c1.726,1.31,3.874,3.374,6.209,5.486        c1.148,1.074,2.417,2.09,3.584,3.143c1.253,0.964,2.42,1.96,3.569,2.782c-2.006-0.352-2.281-1.315-2.164,0.207        c1.002,0.817,1.147,0.353,1.523,0.112c0.381-0.248,1.021-0.311,3.059,1.146c0.628,0.975,2.082,2.381,2.852,3.58        c0.494-1.522,0.865-2.665,1.236-3.807c-0.664-0.301-1.117-0.629-1.243-1.002c0.426,0.024,0.853,0.048,1.278,0.078        l-1.787,5.502l-2.858-1.981c0.474,1.041,1.419,1.844,2.492,2.529c0.719-2.213,1.449-4.463,2.179-6.713        c-1.686-0.049-3.538,0.379-4.904-0.002l0.367-0.58c-0.833-0.084-1.569-0.133-2.233-0.157        c-0.664-0.023-1.245-0.089-1.789-0.096c-1.08-0.046-1.995,0.044-2.903-0.01c-0.913-0.032-1.854-0.059-3.006-0.237        c-0.569-0.113-1.193-0.258-1.894-0.449c-0.702-0.19-1.485-0.414-2.339-0.781l0.557,0.721c-2.174-0.018-2.938-0.509-3.61-1.108        c-0.677-0.617-1.326-1.21-3.418-1.589l-0.376-1.974c-0.36-0.125-0.799-0.274-1.674-0.636l-5.162-2.136l0.958,4.667        c0.299,1.456,0.747,3.641,1.232,6.005c0.057,0.293,0.114,0.59,0.171,0.888l0.244,0.888c0.159,0.592,0.318,1.187,0.476,1.775        c0.312,1.175,0.573,2.324,0.826,3.383c-0.817-1.299-1.574-3.429-2.31-5.709c-0.563-2.289-1.024-4.75-1.475-6.619        c0.062,1.426,0.253,3.899,0.522,6.161c0.409,2.256,0.995,4.303,1.479,4.972c-0.325-1.112-0.929-2.507-0.859-3.674        c0.44,0.836,0.851,1.733,1.231,2.694c0.405,0.959,0.669,1.987,1.141,3.073c0.883,2.151,1.501,4.666,2.488,7.191        c-0.802,0.024-0.954,0.894-0.744,2.256c0.052,0.34,0.127,0.712,0.221,1.108l0.036,0.15l0.009,0.038l0.059,0.163l0.026,0.078        c0.036,0.104,0.072,0.209,0.108,0.316c0.077,0.213,0.155,0.433,0.236,0.658c0.334,0.898,0.724,1.88,1.15,2.89        c1.789,4.022,4.475,8.252,4.741,10.66c3.447,3.885,6.71,7.762,10.526,11.506c3.806,3.722,8.197,7.309,13.634,10.035        c-2.664-4.093,3.142,1.595,3.571-1.036c1.274,0.487,2.141,0.844,2.711,1.11c0.582,0.239,0.865,0.392,0.95,0.51        c0,0,0.452,0.267,1.129,0.666c0.682,0.395,1.583,0.963,2.535,1.413c0.951,0.479,1.902,0.956,2.616,1.314        c0.724,0.344,1.22,0.537,1.221,0.537c0.891,0.574,0.216,0.555-0.679,0.462c-0.896-0.082-1.976-0.357-1.932-0.043        c1.308,0.465,2.17,0.711,2.735,0.948c0.566,0.233,0.842,0.422,1.021,0.603c0.358,0.361,0.317,0.688,1.457,1.263        c-0.066-1.846-0.252-7.002-0.438-12.17c-0.221-0.022-0.525-0.023-0.898-0.006c0.453,0.342,0.095,0.749-0.764,1.123        c-0.429,0.187-0.981,0.365-1.612,0.521c-0.635,0.132-1.356,0.201-2.106,0.251c0,0,1.095,0.093,2.19,0.186        c1.104,0.022,2.207,0.045,2.207,0.045c-0.872,0.373-1.635,0.666-2.319,0.848c-0.689,0.154-1.291,0.239-1.832,0.276        c-1.08,0.071-1.93-0.014-2.716-0.217c-0.798-0.176-1.578-0.352-2.586-0.349c-0.49,0.008-1.212-0.019-1.951,0.055        c-0.38,0.031-0.787,0.077-1.224,0.141c-0.218,0.034-0.445,0.07-0.68,0.107c-0.117,0.021-0.236,0.042-0.358,0.064l-0.184,0.034        l-0.093,0.018l-0.023,0.005l-0.012,0.002l-0.006,0.002c0.355-0.008,0.096-0.002,0.173-0.003l-0.043,0.005        c0,0,0.009-0.003,0.026-0.007l0.014-0.005l0.004-0.001h0.002l0.001-0.001l0,0l-0.179,0.004h0l0.01-0.004        c0.014-0.004,0.029-0.01,0.046-0.016c0.069-0.023,0.168-0.058,0.287-0.098c0.237-0.081,0.554-0.189,0.871-0.298        c0.633-0.217,1.267-0.433,1.267-0.433c-2.734,0.588-8.449,0.015-13.062-0.165l-9.478-0.371l3.59,7.123        c1.031,2.047,2.047,3.749,3.059,4.7c0.069,0.816-0.097,2.046-1.094,0.322c1.992,5.008,5.449,9.997,9.156,14.217        c3.662,4.297,7.682,7.696,10.407,10.835l-1.016-0.054c0.833,0.564,1.688,0.894,2.522,1.329        c0.843,0.427,1.624,1.013,2.49,1.934c-0.248,0.129-1.012,0.026-0.269,0.582c0.497,0.218,1.74,0.756,3.095,1.449        c1.376,0.664,2.938,1.367,3.983,2.19l-2.287-0.547c1.087,0.731,2.118,1.425,3.157,1.972c1.055,0.519,2.075,0.974,3.065,1.379        c0.496,0.199,0.98,0.399,1.466,0.566c0.498,0.139,0.986,0.275,1.468,0.409c0.966,0.256,1.909,0.48,2.836,0.688        c1.869,0.378,3.734,0.526,5.601,0.817c0.944,0.087,1.906,0.175,2.901,0.267c0.99,0.085,1.991,0.272,3.055,0.359        c-0.133,0.738,1.23,1.457,3.194,2.099c0.978,0.354,2.112,0.565,3.27,0.741c1.158,0.186,2.339,0.342,3.419,0.472        c-1.191-3.419-2.257-6.477-3.322-9.535c-0.572,0.372-1.097,0.713-1.553,1.009L191.726,322        c-4.304,3.254-7.91,6.081-11.509,8.839c-0.906,0.686-1.807,1.368-2.711,2.053c-0.932,0.651-1.867,1.306-2.816,1.97        c-0.945,0.68-1.942,1.302-2.971,1.929c-1.034,0.616-2.071,1.3-3.203,1.876c-3.266,0.444-8.196,2.324-13.703,4.021        c-5.497,1.697-11.588,3.123-16.598,3.425c1.562,0.062-0.005,1.392-1.757,1.866c-2.374,0.009-6.374,2.053-6.162,0.403        c0,0,0.207-0.008,0.417-0.03c0.21-0.019,0.42-0.037,0.42-0.037c-0.979-0.654-2.59-0.863-4.442-0.794        c-0.464,0.012-0.933,0.044-1.427,0.072c-0.519,0.021-1.045,0.04-1.572,0.061c-1.052,0.045-2.102,0.09-3.083,0.132        l-0.568,2.135l-0.013-0.003c-0.067,0.002,0.088-0.003,0.071-0.003l-0.003-0.001l-0.006-0.002l-0.024-0.008l-0.049-0.016        l-0.098-0.03l-0.197-0.06l-0.398-0.115c-0.267-0.068-0.537-0.138-0.811-0.208c-0.547-0.131-1.106-0.243-1.677-0.341        c-1.141-0.194-2.324-0.326-3.537-0.412c-2.417-0.274-4.943-0.455-7.455-0.524l-17.892-0.494l15.027,8.715        c6.555,3.801,13.301,6.427,15.591,9.389c1.248,0.354,2.611,0.811,3.947,1.308c1.346,0.479,2.668,0.996,3.94,1.229        l-0.583,0.982c1.601,0.758,3.001,1.422,4.325,2.049c1.333,0.609,2.619,1.114,3.946,1.655c1.329,0.536,2.713,1.078,4.311,1.584        c1.597,0.506,3.353,1.137,5.473,1.694c0,0-0.489,0.063-0.979,0.126c-0.492,0.068-0.977,0.108-0.977,0.108        c4.74,1.537,6.9-1.246,11.247-0.198l0.896,1.984c2.074,0.542,4.166,1.043,6.241,1.642c2.08,0.579,4.188,1.053,6.291,1.551        c2.106,0.479,4.243,0.781,6.375,1.035c2.134,0.237,4.29,0.222,6.43,0.089c-0.163,0.23-0.461,0.69-1.856,0.605        c2.006,0.294,5.895,0.856,9.124,1.071c3.272,0.138,5.86-0.102,5.126-1.28c0.02,0.378,0.589,0.597,1.508,0.701        c0.921,0.107,2.11,0.03,3.472-0.082c0.677-0.061,1.389-0.138,2.11-0.226l1.087-0.138l0.272-0.036l0.034-0.005l0.096-0.001        l0.004-0.001l0.009-0.002l0.017-0.003l0.069-0.012l0.138-0.024l0.549-0.099c1.452-0.276,2.848-0.542,3.99-0.759l-0.665,1.146        c3.815-1.616,3.908-1.923,9.24-2.83c1.285,0.03,1.199,0.788-0.521,0.657c4.306,0.164,3.208-1.254,8.384-1.375l-1.821,0.964        c4.367-0.501,3.975-0.834,6.236-1.978c2.638-0.872,8.203-1.179,9.056-0.297c0.465-0.719,2.624-2.064,5.199-2.348        c0.428,0.293-0.436,0.732-0.874,0.949c1.829-0.238,3.41-0.528,4.788-0.989c1.38-0.451,2.588-0.94,3.728-1.4        c1.138-0.462,2.21-0.886,3.315-1.228c1.094-0.382,2.226-0.668,3.51-0.797c0.212,0.319,0.583,0.394,1.017,0.369        c-1.395,0.442-2.722,0.863-3.92,1.243c-1.205,0.362-2.299,0.621-3.194,0.861c-1.795,0.465-2.833,0.713-2.631,0.615        c0.254,0.996,4.905-0.097,1.622,2.278c1.749-0.899,4.102-2.11,6.506-3.423c2.414-1.286,4.979-2.348,7.207-2.981        c0.243,0.016,0.482,0.03,0.694,0.12l-0.409,0.275c1.037-0.278,1.901-0.704,2.684-1.183c1.437-0.378,2.387-0.535,3.69-1.101        c0.819,0.559,5.225-1.689,7.396-2.65c-0.642-0.94,2.218-2.111-0.781-1.701c0.365-0.104-0.33,0.347-1.76,0.987        c-0.313,0.169-0.689,0.348-0.878,0.5c0.029-0.046,0.066-0.1,0.107-0.152c-1.415,0.625-3.263,1.441-5.361,2.368        c1.505-1.262,3.088-2.46,5.73-2.909c0.827-1.115,1.703-2.367,2.223-3.007c1.766,0.021,4.146-0.451,6.245-0.874        c2.059-0.502,3.841-0.942,4.454-0.723c3.077-1.928,6.652-4.259,9.855-6.521c3.121-2.392,5.88-4.703,7.063-6.922        c1.493-1.402,2.252-0.868,3.07-1.045c-0.834,0.857-1.993,1.648-2.339,2.269c3.074-2.732,9.562-7.464,9.366-9.225        c4.329-2.806-1.334,2.918,3.891-1.841l-0.434,0.961c6.115-3.599,9.551-8.347,13.019-13.073        c3.352-4.885,6.794-9.715,12.651-14.876c-0.806,0.723-1.202,1.087-1.53,1.104c5.962-6.441,10.849-14.113,15.196-21.964        c4.362-7.866,8.206-15.897,12.49-23.49c2.178-4.435,1.563-5.259,1.882-8.319l1.488-0.595c0,0,0.096-1.325,0.19-2.65        c0.046-0.659,0.093-1.317,0.127-1.812c0.019-0.5,0.031-0.833,0.031-0.833c0.295-1.812,0.85-3.405,1.534-4.941        c0.684-1.537,1.391-3.002,2.145-4.536c0.182-0.384,0.364-0.771,0.55-1.164l0.27-0.595l0.133-0.301l0.065-0.151l0.032-0.076        l0.017-0.038l0.02-0.07l0.004-0.01l0.007-0.02c0.309-0.842,0.596-1.718,0.843-2.644c0.493-1.851,0.826-3.901,0.845-6.245        l-1.052,1.003c0.485-1.584,0.701-4.201,1.044-6.301c0.319-2.104,0.658-3.721,1.077-3.384        c-0.091-0.356-0.649-1.178-0.111-2.417l0.638-0.025c0,0-0.056-2.061-0.112-4.121c-0.029-1.021-0.059-2.043-0.08-2.809        c-0.012-0.381-0.021-0.699-0.027-0.922c-0.018-0.22-0.028-0.346-0.028-0.346c0.744-6.186,2.461,1.086,3.004-7.966        c-0.009-0.274-0.018-0.563-0.027-0.863c-0.029-0.23-0.061-0.469-0.092-0.714c-0.07-0.49-0.156-1.004-0.254-1.522        c-0.194-1.037-0.435-2.09-0.68-2.999c-0.49-1.817-1-3.055-1.209-2.422c-0.025,1.361-0.379,3.477-1.012,3.582l-0.343-3.081        c-1.864-0.55-3.782-2.911-5.051,4.662c0,0,0.073,0.33,0.182,0.823c0.055,0.247,0.118,0.535,0.187,0.843        c0.033,0.154,0.068,0.314,0.104,0.476l0.054,0.245l0.027,0.123l0.007,0.031l0.003,0.015l0.001,0.004        c-0.003,0.19,0.006-0.257,0.005-0.21v0.002l0.002,0.008l0.011,0.063c0.223,1.33,0.446,2.659,0.446,2.659l-0.98,1.655        l0.142-4.203l-0.01,0.029c-0.001,0.051,0.009-0.437,0.005-0.229l-0.001,0.001l-0.001,0.004l-0.003,0.007l-0.006,0.014        l-0.021,0.058l-0.042,0.114l-0.076,0.225c-0.049,0.148-0.091,0.293-0.127,0.436c-0.073,0.285-0.124,0.559-0.157,0.823        c-0.065,0.529-0.058,1.021-0.007,1.492c0.104,0.943,0.381,1.802,0.598,2.707c-0.5,0.4-0.869,1.124-1.097,2.162        c0,0,0.097,0.328,0.24,0.82c0.119,0.473,0.278,1.103,0.438,1.733c0.312,1.273,0.623,2.547,0.623,2.547        c-0.789,0.528-1.208-2.325-1.956,0.93c0.578,2.397,1.86-2.076,1.995,1.842c-1.09,2.336-1.687,1.514-1.436,4.474        c-0.539,0.329-0.743-0.321-0.769-1.475c0.146,2.612-0.825,6.728-0.105,8.219c-1.575,2.301-1.598,8.57-3.257,7.91        c0.013,0.055,0.026,0.122,0.044,0.2c0.006,0.039,0.014,0.08,0.021,0.124l0.001,0.008l0.001,0.004v0.002        c-0.024,0.095,0.034-0.128,0.028-0.105v0.001l0.001,0.017l0.004,0.035l0.006,0.073c0.015,0.199,0.025,0.437,0.031,0.703        c0.012,0.534,0.004,1.184-0.027,1.879c-0.064,1.39-0.218,2.966-0.504,4.138c-0.813-4.669-2.659,8.354-4.579,6.547        c0.785,3.631-3.065,11.101-4.48,16.65c-0.012-0.353-0.043-1.047,0.244-1.466c-1.391,2.871-2.343,3.45-3.541,5.135        c0.62,0.52,0.477,1.938,0.138,3.592c-0.371,1.637-0.982,3.483-1.176,4.908c-3.151,2.765-0.521-2.973-2.382-2.551        c0.608,0.207,0.106,1.851-0.357,3.367c-0.501,1.495-0.983,2.851-0.188,2.532c-2.299,2.141-1.676,2.021-3.556,2.697        c1.449,1.469-1.165,2.528-1.439,5.275c-1.546,1.588-2.082,1.565-2.493,1.694c-0.405,0.131-0.675,0.407-1.747,2.535        C340.899,298.372,342.66,294.512,342.66,294.512z M257.909,365.717c-0.004-0.011-0.007-0.018-0.008-0.021        c0.907-0.368,1.681-0.683,2.175-0.883C259.624,365.001,258.998,365.262,257.909,365.717z M248.828,368.683        c1.141-0.246,2.506-0.737,3.966-1.202c0.438,0.267,0.216,0.759-0.711,1.038C252.499,368.094,250.296,368.629,248.828,368.683z         M270.883,369.005c-1.392,0.768-1.964,0.771-2.251,0.643c0.678-0.31,1.465-0.687,2.486-1.206        c0.024-0.057,0.093-0.138,0.115-0.199C271.181,368.498,271.103,368.75,270.883,369.005z" style="fill:#373737;"/><path d="M272.897,366.543c0.197-0.111,0.293-0.204,0.561-0.329c-0.335,0.035-0.65,0.078-0.962,0.136        c-0.127,0.186-0.256,0.375-0.369,0.541C272.387,366.772,272.656,366.651,272.897,366.543z" style="fill:#373737;"/><path d="M343.457,140.224l-0.179-0.113c0.14,0.116,0.266,0.225,0.329,0.333        C343.505,140.335,343.521,140.304,343.457,140.224z" style="fill:#373737;"/><polygon points="121.508,355.917 121.391,356.175 122.236,356.332       " style="fill:#373737;"/><path d="M391.313,149.194c0.134,0.051,0.362,0.068,0.771-0.006        C392.026,149.131,391.701,149.154,391.313,149.194z" style="fill:#373737;"/><path d="M395.954,149.479c0,0-0.113,0.161-0.283,0.402c-0.159,0.247-0.402,0.557-0.67,0.852        c-0.515,0.599-1.028,1.197-1.028,1.197C394.907,150.927,395.562,150.165,395.954,149.479z" style="fill:#373737;"/><path d="M385.101,162.476c-0.025,0.284,0.029,0.433,0.081,0.568c0.012-0.006,0.02-0.012,0.03-0.015        L385.101,162.476z" style="fill:#373737;"/><path d="M205.101,204.571c-0.231-0.078-0.462-0.146-0.676-0.192        C202.805,204.021,203.887,204.324,205.101,204.571z" style="fill:#373737;"/><path d="M257.515,174.934c-0.103,0.889-0.188,1.759-0.365,2.644        C257.709,176.246,258.09,175.201,257.515,174.934z" style="fill:#373737;"/><path d="M124.636,153.25c0.012,0.003,0.007-0.007,0.021-0.005c-0.136-0.156-0.255-0.294-0.391-0.451        L124.636,153.25z" style="fill:#373737;"/><path d="M256.079,181.184c0.583-1.336,0.879-2.493,1.071-3.607        C256.721,178.677,256.209,179.987,256.079,181.184z" style="fill:#373737;"/><path d="M392.868,180.055l-0.646,0.527c0.061,0.045,0.065,0.123,0.05,0.199L392.868,180.055z" style="fill:#373737;"/><path d="M392.271,180.782l-0.594,0.723C391.991,181.218,392.258,180.962,392.271,180.782z" style="fill:#373737;"/><path d="M390.426,183.034l1.252-1.529C391.177,181.959,390.539,182.495,390.426,183.034z" style="fill:#373737;"/><path d="M410.764,168.582l-0.111,0.473C410.763,168.925,410.808,168.771,410.764,168.582z" style="fill:#373737;"/><path d="M403.918,171.162c1.666-0.498,4.421-0.659,6.638-1.727l0.097-0.379        C409.777,170.015,405.246,169.957,403.918,171.162z" style="fill:#373737;"/><path d="M374.817,176.078l-0.037,0.021l-1.121-3.618l5.858-0.458c-1.089-0.292-2.498-0.693,0.133-1.15        c-7.485-0.302,1.613,0.754-5.991,1.608c0.263,0.847,0.691,2.233,1.121,3.619C374.789,176.094,374.804,176.086,374.817,176.078        z" style="fill:#373737;"/><path d="M390.438,164.957c-2.177,2.571,0.471,0.421,0.529,0.715        C392.172,163.835,392.438,163.409,390.438,164.957z" style="fill:#373737;"/><path d="M301.368,133.928l0.145-1.072C298.972,133.512,301.565,133.25,301.368,133.928z" style="fill:#373737;"/><path d="M279.823,148.425c0,0,0.567-0.187,1.134-0.374c0.281-0.092,0.563-0.185,0.773-0.254        c0.215-0.061,0.357-0.102,0.357-0.102l0.451-1.362c0,0-0.705,0.491-1.38,1.019        C280.491,147.889,279.823,148.425,279.823,148.425z" style="fill:#373737;"/><path d="M263.518,153.145l0.677-0.962c0,0-0.697,0.875-1.345,1.785        c-0.636,0.917-1.271,1.834-1.271,1.834s0.478-0.668,0.955-1.337C263.003,153.787,263.518,153.145,263.518,153.145z" style="fill:#373737;"/><path d="M112.534,157.332l1.396-0.472c0.118-0.875-0.114-1.496-0.455-1.537        C113.164,155.289,112.646,155.827,112.534,157.332z" style="fill:#373737;"/><path d="M126.295,220.466c-0.739-0.971-2.985-2.219-4.678-2.367        C123.451,219.083,125.25,220.21,126.295,220.466z" style="fill:#373737;"/><polygon points="115.404,348.26 117.286,347.864 113.744,348.166       " style="fill:#373737;"/></g></g></g><g><g><g><path d="M431.135,31.842c-0.919,0.309-0.46,1.087,2.12,1.111c0,0,0.485-0.3,0.97-0.6        c0.492-0.28,0.984-0.56,0.984-0.56s-1.021-0.035-2.041,0.003C432.151,31.819,431.135,31.842,431.135,31.842z" style="fill:#373737;"/><path d="M447.65,37.197c1.517,0.1,3.155,0.281,4.289,0.129c1.116-0.116,1.704-0.49,1.003-1.444        c-1.665,0.059-2.604-0.083-3.587-0.195c-0.991-0.068-2.011-0.174-3.755,0.144c-2.486-0.527-4.235-1.425-3.717-1.826        c-0.941,0.116-3.903-1.028-5.387-0.349c3.179,1.43,7.155,2.234,11.595,2.756C448.902,36.968,447.923,37.026,447.65,37.197z" style="fill:#373737;"/><path d="M482.43,263.121l0.207-1.573C482.536,261.977,482.472,262.516,482.43,263.121z" style="fill:#373737;"/><path d="M476.961,414.866c0.004-1.157-0.111-1.643-0.229-1.706        C476.785,414.236,476.838,415.119,476.961,414.866z" style="fill:#373737;"/><path d="M470.985,438.622c0.233-0.464,0.431-0.854,0.644-1.276        C471.301,437.801,471.024,438.276,470.985,438.622z" style="fill:#373737;"/><path d="M482.43,263.121l-0.542,4.041C482.311,267.461,482.272,265.095,482.43,263.121z" style="fill:#373737;"/><path d="M478.196,53.219c-0.626-0.646-1.243-1.092-1.826-1.475c0.545,0.493,1.08,0.965,1.578,1.507        C478.028,53.232,478.097,53.217,478.196,53.219z" style="fill:#373737;"/><path d="M483.448,196.185l0.036-1.234c-0.139-0.367-0.311-0.712-0.506-1.04L483.448,196.185z" style="fill:#373737;"/><path d="M484.85,144.833c-0.085,1.159,1.025,1.598,1.503,2.058c-0.442-0.67-0.636-1.535-0.691-2.556        C485.448,144.311,485.188,144.454,484.85,144.833z" style="fill:#373737;"/><path d="M481.366,65.372c0,0-0.21-0.287-0.419-0.574c-0.204-0.29-0.428-0.567-0.428-0.567        C480.763,64.513,481.095,65.036,481.366,65.372z" style="fill:#373737;"/><path d="M482.057,232.926c-0.17,0.082-0.321,0.261-0.417,0.455        C481.781,233.386,481.921,233.207,482.057,232.926z" style="fill:#373737;"/><path d="M371.734,26.847c-0.044,0.079,0.014,0.132-0.003,0.201        C372.034,26.946,372.129,26.87,371.734,26.847z" style="fill:#373737;"/><path d="M431.012,34.792l-0.828,0.027c-0.095,0.209-0.195,0.414-0.203,0.622L431.012,34.792z" style="fill:#373737;"/><path d="M439.764,467.968c0.081-0.024,0.109-0.033,0.186-0.056        C440.942,467.349,440.36,467.621,439.764,467.968z" style="fill:#373737;"/><path d="M37.988,440.009c-0.144,2.349-0.756,0.573-1.321-0.975c-0.302-0.774-0.528-1.459-0.737-1.526        c-0.197-0.063-0.414,0.486-0.404,2.306c0.185-0.364,0.805,1.187,1.476,2.026C37.664,442.688,38.14,442.873,37.988,440.009z" style="fill:#373737;"/><path d="M479.006,54.377c0.5,0.534,0.948,1.132,1.407,1.72        C479.815,55.279,479.395,54.739,479.006,54.377z" style="fill:#373737;"/><path d="M35.526,439.813c-0.005,0.001-0.01,0.002-0.01,0.002l0.005,0.748        C35.523,440.254,35.524,440.078,35.526,439.813z" style="fill:#373737;"/><path d="M333.192,476.604c0.233,0.189,0.675,0.322,1.135,0.447        C334.285,476.938,334.027,476.807,333.192,476.604z" style="fill:#373737;"/><path d="M414.633,474.947l-2.019-0.07C413.416,474.947,414.064,474.957,414.633,474.947z" style="fill:#373737;"/><path d="M291.007,479.879c-1.1-0.042-1.478-0.182-2.966,0.029c0.14,0.051,0.279,0.085,0.459,0.118        C289.035,479.851,289.752,479.751,291.007,479.879z" style="fill:#373737;"/><path d="M247.029,481.646c0.237,0.076,0.547,0.128,0.821,0.193c0.435-0.036,0.943-0.078,1.391-0.116        L247.029,481.646z" style="fill:#373737;"/><path d="M238.063,22.042c0.95,0.354,1.537,0.727,1.991,1.091        C239.408,22.307,245.88,22.28,238.063,22.042z" style="fill:#373737;"/><path d="M477.738,53.655c0.39,0.015,0.755,0.223,1.268,0.722c-0.365-0.389-0.716-0.763-1.058-1.127        C477.734,53.259,477.599,53.343,477.738,53.655z" style="fill:#373737;"/><path d="M289.573,488.813l-6.995,0.114C284.536,488.958,287.078,488.914,289.573,488.813z" style="fill:#373737;"/><path d="M19.718,144.677l-0.181-1.602C19.53,143.696,19.578,144.264,19.718,144.677z" style="fill:#373737;"/><path d="M261.85,489.923c-1.263-0.347-2.593-0.523-3.965-0.619c-0.285,0.099-0.613,0.185-0.8,0.322        L261.85,489.923z" style="fill:#373737;"/><path d="M240.068,23.146c-0.014-0.005-0.013-0.012-0.013-0.012S240.054,23.14,240.068,23.146z" style="fill:#373737;"/><path d="M286.198,22.317c-6.657-0.298-3.186,1.32-4.632,2.112c-7.963,0.101-3.634-1.235-6.309-2.098        c-4.978,0.192-8.838,1.395-12.535,1.189c-0.266-0.254-0.982-0.372-0.126-0.642c-5.293,0.964-15.574-0.565-21.746,0.665        c-0.449-0.149-0.673-0.282-0.783-0.398c0.961,0.779,1.082,1.537,0.859,2.063c-2.986-0.094-5.577,0.711-6.661-0.299        c1.828,0.102,1.995-0.282,2.865-0.549l-3.144,0.295c-2.76-1.5,4.288-0.31,4.329-1.337c-6.116,0.208-13.27,1.072-17.926,0.493        c-0.922-1.396,10.945-0.02,4.757-1.476l7.21,0.808c-5.44-2.362,4.387,0.326-0.598-2.168c-9.499-0.774-10.67,0.266-20.146-0.51        c-2.167,0.669,0.662,1.145-1.505,1.813c-13.544,0.816-10.483-3.838-20.474-2.427c-2.604,0.802-3.667,2.479-10.693,1.289        l2.469-1.438c-9.206-0.52-5.348,1.996-14.954,0.578c1.739-0.535,7.26-0.219,5.874-0.457c-6.201-1.462-4.455,0.693-9.26,0.501        l-0.941-1.399c-9.816-0.178-20.659,0.371-31.531,0.185c0.617-0.38,2.495-0.731-0.028-1.249        c-13.728,0.131-29.239-1.335-42.421-2.67l-5.096,0.971c-1.173-0.061-2.157-0.617-0.877-0.793        c-0.321-0.038-0.603-0.07-0.85-0.099c-0.296-0.018-0.551-0.034-0.769-0.047c-0.364-0.015-0.606-0.007-0.759,0.019        c-0.306,0.051-0.258,0.173-0.126,0.325c0.263,0.304,0.858,0.726-0.384,0.938c-1.419-0.007-2.557-0.104-2.958-0.319        c-0.415-0.208-0.172-0.496,0.875-0.706c-2.609,0.303-5.503,0.776-8.67,1.509c-3.15,0.755-6.494,1.763-9.753,3.007        c-6.539,2.482-12.602,6.012-17.025,8.692c0,0,0.346-0.376,0.691-0.752c0.34-0.386,0.714-0.731,0.714-0.731        c-1.697,1.094-2.902,2.132-3.789,3.163c-0.449,0.509-0.842,0.993-1.192,1.472c-0.327,0.498-0.638,0.97-0.945,1.438        c-1.214,1.881-2.297,3.646-5.024,6.128c0,0,0.174-0.31,0.349-0.619c0.188-0.3,0.376-0.6,0.376-0.6        C27.17,44.59,23.09,52.959,20.948,61.198c-1.095,4.124-1.75,8.218-2.142,12.093c-0.077,0.97-0.191,1.926-0.252,2.867        c-0.059,0.943-0.116,1.869-0.172,2.775c-0.1,1.72-0.224,3.347-0.403,4.9c1.759,2.3-0.291,16.044,2.096,17.018        c-0.902,9.277-1.399,6.642-1.809,19.683c-0.008,3.48,1.622,5.141,1.992,9.432l-1.23,0.141l1.462,5.797l-1.385,3.148        l0.433,4.023c0.026-1.607,0.455-3.429,0.817-3.196c0.739,6.282-0.416,15.378-1.043,15.552l1.472,14.869        c-0.505-0.316-0.748-2.807-1.121-4.77c1.487,7.917-1.256,1.482,0.106,8.738c0.251-0.985,0.75,0.506,1.003,0.665        c-0.64,3.654-0.408,11.925,0.083,18.035l-0.884-1.15c0.103,11.057,1.08,23.287,1.422,35.69c0.268-4.461,1.77-3.48,2.016,0.153        l-1.261,1.492c0.874,2.326,0.384-3.812,1.508,0.98c-0.017,4.637-1.391,3.157-1.892,0.509l0.614,5.62        c-0.38,0.342-0.623-0.974-1.129-1.303c0.876,2.289-1.026,9.762,0.475,13.057l-0.378,0.328        c0.347,12.399,0.957,18.01,1.314,28.109c1.13,0.165,0.994,4.122,1.99,7.104c-0.144,7.433-0.79,15.696-0.437,24.639        c0.74,6.269,1.004,1.808,1.754,4.614c-1.01,0.492-0.657,9.421-1.525,4.809c0.476,10.729,0.599,13.705,1.822,27.255        c0.378-1.484,0.512-3.146,0.886-2.298c0.24,2.458-0.268,5.617-0.77,5.278l-0.124-0.648        c1.974,15.194-1.972,35.256,0.513,47.327l-0.125-0.676l1.476,12.551c-0.01,5.794-0.87-3.451-1.38,0.852        c1.05,6.763,1.143,12.125,1.155,17.191c0.006,2.532-0.007,4.991,0.069,7.513l0.015,0.474l0.031,0.592l0.067,0.955        c0.05,0.644,0.098,1.274,0.174,1.949c0.218,1.422,0.401,2.946,0.792,4.373c-0.451,2.392-0.179,5.672,0.682,9.345        c0.871,3.672,2.424,7.702,4.459,11.587c2.027,3.895,4.526,7.633,7.063,10.955c2.536,3.329,5.088,6.26,7.138,8.786        l-0.051-1.031c2.881,1.702,2.695,2.951,4.538,4.601c0.055-0.657-2.417-2.713-0.57-1.752        c5.511,4.199,11.761,7.599,18.485,9.955c6.691,2.387,14.046,3.479,21.186,3.381c13.287-0.083,26.663,0.018,39.778-0.186        c9.591-0.193,5.291-3.897,17.441-2.684l-3.377,1.458c19.278-2.356,39.551-1.527,58.43-3.628        c-1.116,0.35-1.132,0.746-2.98,0.815c4.037,0.8,14.79-0.545,14.827-1.331c2.952-0.028,0.711,0.682,2.543,1.007        c4.035,0.405,10.021-1.627,12.191-0.759c0.368,0.143-1.116,0.356-1.846,0.46c2.595-0.568,12.183-0.369,9.635-1.375        c7.128,0.243,13.576-1.037,19.27-0.607c3.646-1.386,12.188,0.109,13.292-1.688c-0.437,1.829,12.518,0.961,16.977-0.07        c-1.481,0.607,3.93,0.41,2.199,1.237c5.125-0.229,9.812-0.754,8.881-1.646c9.532,1.785,18.918-2.501,24.348,0.059        c15.194-1.581,29.263-2.802,42.947-3.774c-0.423,1.823-15.139,0.786-14.476,2.655c12.97-1.263,20.405-3.11,33.312-3.19        c3.349,0.112-1.862,0.857-2.978,1.211c12.956-1.262,25.115-0.841,36.632-2.284c-0.025,0.169-1.266,0.402-2.438,0.587        c1.139-0.075,2.465-0.062,3.471-0.131c0.252-0.018,0.483-0.04,0.687-0.07c0.051-0.008,0.1-0.016,0.147-0.023l0.069-0.014        l0.033-0.007l0.009-0.002l0.119-0.007l0.004-0.001l0.017-0.004c0.086-0.021,0.164-0.046,0.233-0.071        c0.276-0.105,0.407-0.248,0.329-0.448c0,0-0.138,0.023-0.344,0.058c-0.052,0.009-0.107,0.019-0.167,0.028l-0.091,0.016        l-0.15,0.013l-0.049,0.007c-0.129,0.018-0.268,0.037-0.405,0.057c-0.553,0.077-1.105,0.155-1.105,0.155        c-0.921-0.261-0.822-0.569-0.15-0.896c0.335-0.163,0.814-0.33,1.381-0.498l0.217-0.063l0.056-0.017l0.027-0.008l0.007-0.002        l0.004-0.001c0.032-0.002-0.067,0.003,0.073-0.005l0.014-0.004l0.112-0.034c0.15-0.045,0.306-0.092,0.465-0.139        c0.317-0.089,0.65-0.182,0.99-0.277c1.335-0.332,2.938-0.825,4.116-1.185c1.176-0.417,2.009-0.768,2.084-0.937        c-1.755,1.478,1.167,1.196,3.832,0.787c2.624-0.445,5.078-0.832,2.326,1.469c1.531-0.536,3.301-1.586,2.783-1.976        c1.148-0.27,1.909-0.446,2.143-0.341c0.229,0.095-0.062,0.486-1.108,1.168c2.028-0.838,3.327-1.479,4.235-2.045        c0.913-0.556,1.479-0.937,1.998-1.354c1.043-0.816,2.048-1.45,5.409-3.394c0.089,0.178-0.184,0.503-0.539,0.887        c-0.364,0.369-0.817,0.787-1.064,1.188c0.793-0.634,1.559-1.298,2.346-1.992c0.791-0.676,1.612-1.378,2.498-2.135        c1.776-1.479,3.805-3.114,6.386-5.122c-0.146,0.435,0.65,0.188-0.857,1.448c4.317-3.676,7.25-7.59,9.906-11.7        c1.29-2.091,2.582-4.197,3.821-6.505c1.268-2.29,2.571-4.727,3.919-7.468c0.082,2.003,0.617,1.112,1.351-0.32        c0.698-1.439,1.521-3.419,2.309-3.512c0,0,0.103-0.412,0.256-1.031s0.367-1.439,0.516-2.277        c0.159-0.834,0.337-1.66,0.437-2.288c0.092-0.629,0.153-1.048,0.153-1.048s-0.32,0.62-0.64,1.24        c-0.347,0.604-0.694,1.209-0.694,1.209c1.576-5.645,0.88-11.041,1.473-15.755c0,0,0.121,1.034,0.243,2.069        c0.115,1.053,0.193,2.164,0.193,2.164s0.021-0.686,0.055-1.713c0.005-0.977,0.01-2.279,0.016-3.581        c0.011-2.6,0.021-5.199,0.021-5.199l-0.75,5.862c-0.594-5.634-1.907,0.542-1.261-6.825c0.106,1.505,0.192-5.545,1.162-8.407        c0,0-0.001,0.019,0.003,0.019c-0.39-2.758-0.802-5.594-0.303-9.683c0.51-1.05,1.623,0.909,1.963,0.227        c-1.162-2.746,0.06-12.996-1.163-16.465c0.277,1.152,1.059,1.236,1.229,0.865l-0.942-2.302        c0.404-2.559,0.573-2.93,1.186-2.493c0.427-7.718-1.971,2.395-0.868-6.749c0.06,0.724,0.222,0.384,0.329,1.889        c0.713-9.197-0.087-17.813,0.676-26.26c1.58-2.448,0.137,7.405,1.493,4.588c0.109-12.21-1.012-25.32-0.288-37.116        l-0.234,2.197c-2.069-1.704,1.322-8.761,0.509-14.764c0.111,1.468,1.117,1.954,0.894,1.552        c0.594-8.075-0.005-16.547-0.289-28.818l0.498,1.535c0.635-4.751,0.672-12.541,1.081-17.68        c-0.496-1.544-0.315-4.486-1.164-2.722c3.598-15.773-0.717-30.325,2.308-44.326c-0.047,1.684,0.351,4.028,0.396,2.689        l-0.128-12.01c-0.953,0.92-0.608,1.556-1.406,4.051c-0.5-1.535-0.819-4.934-0.726-7.906c0.443,5.413,1.484,0,2.072-2.313        c-0.295,0.381-0.582-0.427-0.876-0.239c1.839-6.214-1.826-1.108-0.452-9.628l0.472,0.469        c-0.148-3.209-0.697-6.179-0.451-9.628c1.114-1.397,0.393,3.424,1.266,3.671c0.09-4.85-1.726-9.631-0.523-13.988        c0.233,2.069,0.146,5.032,0.377,7.101c1.403-4.74,1.103-5.305,1.413-8.849l-0.04,0.348l0.825-8.192l-0.405,2.081        c-2.597-6.156-0.123-12.373-1.693-20.604c1.479,7.999,0.959,1.343,2.151,1.991c0.4-2.076,0.877-5.239,1.189-4.324        c-0.856-3.893,0.971-6.425-0.287-11.923c0.397-0.231,0.167-4.131,1.119-3.229c-0.15-5.032-0.716,1.167-1.191,0.729        c-0.546-3.892,0-8.43,0.498-13.393c0.248-2.482,0.484-5.07,0.566-7.738l0.014-0.501l0.006-0.584l-0.019-1.011        c-0.028-0.69-0.029-1.325-0.114-2.072c-0.161-1.489-0.382-2.981-0.791-4.392c-0.949-4.969-2.292-7.696-3.585-10.237        c-1.329-2.532-2.748-4.882-5.081-8.673c-0.448-1.463,0.17-1.115,0.882-0.351c0.7,0.766,1.513,1.93,1.513,1.93        c-1.668-4.713-3.855-7.916-7.091-11.302c0.844,0.54,0.499-0.422-0.102-1.813c-1.287-1.413-1.966-1.656-2.712-2.027        c-0.742-0.379-1.475-0.94-3.087-2.842c0.901,0.279,2.22,0.498,3.803,1.565c-3.408-3.048-7.267-5.395-11.257-7.678        c-0.64-1.256,2.897,0.714,4.45,1.441c-2.162-1.526-5.062-3.352-7.744-4.587c-2.661-1.279-5.058-2.009-6.003-1.849        c0,0,0.704,0.438,1.408,0.875c0.698,0.446,1.373,0.926,1.373,0.926c-1.671-0.822-0.441-1.277,0.895-0.794        c4.358,1.401,5.319,3.652,5.303,4.073c0,0-0.717-0.392-1.433-0.785c-0.708-0.404-1.446-0.75-1.446-0.75        c0.842,1.833,3.56,3.448,6.6,5.456c3.047,1.969,6.419,4.383,8.515,6.928c0,0-0.757-0.237-1.513-0.475        c-0.767-0.204-1.532-0.407-1.532-0.407s0.347,0.238,0.865,0.595c0.516,0.363,1.173,0.882,1.851,1.393        c0.688,0.503,1.316,1.066,1.811,1.474c0.491,0.415,0.818,0.691,0.818,0.691c0.263,0.696,0.316,1.392,0.073,1.588        c-0.261,0.211-0.772-0.104-1.856-1.249c0.558,1.01,0.955,1.729,1.339,2.255c0.374,0.532,0.73,0.872,1.027,1.231        c0.591,0.715,1.233,1.335,1.783,3.272c0.09,0.443-0.077,0.313-0.33,0.003c0,0,0.164,0.224,0.409,0.56        c0.248,0.334,0.581,0.782,0.877,1.251c0.307,0.465,0.612,0.931,0.843,1.28c0.233,0.349,0.378,0.587,0.378,0.587        c-0.695-0.626-0.727,1.153-1.727-1.346c1.367,3.692,2.736,6.49,3.756,8.859c0.483,1.185,0.913,2.241,1.153,3.206        c0.217,0.969,0.322,1.829,0.141,2.61c0,0-0.053-0.156-0.105-0.313c-0.06-0.155-0.12-0.31-0.12-0.31        c0.313,1.324,0.553,2.333,0.734,3.1c0.155,0.775,0.289,1.306,0.409,1.666c0.239,0.72,0.424,0.754,0.627,0.698        c0.385-0.096,0.97-0.635,1.816,3.635c0,0-0.19,0.353-0.476,0.881c-0.291,0.532-0.652,1.232-1.06,1.923        c-0.798,1.389-1.595,2.778-1.595,2.778l1.187,1.139c-0.08,1.154-0.243,3.436-0.718,2.999c0.701,4.324,0.554-0.717,1.265,1.803        c-1.285,5.524,0.041,15.345-1.943,16.537c0.866,2.024,0.883-5.294,1.343,0.662c-2.146,1.627,0.144,6.873-0.975,11.921        c-1.031-1.593-0.309-6.387-1.432-1.335c1.729,3.121-0.708,9.876-0.493,14.171c1.446,0.247,0.314,9.335,0.574,16.538        c-0.474-0.47-1.221,13.501-1.954,20.172l-0.238-0.205c1.428,1.339,0.935,8.229,1.082,13.261        c-0.874-0.225-1.191-1.139-1.5-3.872l-0.141,4.72c0.436,1.129,0.638,2.609,0.71,5.678l-1.06-1.222        c-0.136,6.286,0.896,12.695-0.089,20.759c1.01,0.486,3.051-6.342,3.468,2.229c-0.563,0.299-1.52,0.586-1.677-1.66        c0.051,0.736,0.378,2.629,0.096,4.099l-0.824-3.446c-0.524,3.67,0.718,1.951,0.539,4.893c-0.788-0.084-0.632,2.161-1.245,1.72        c-0.053-0.754,0.407-2.559,0.133-3.696c-0.246,3.316-0.84,7.315-1.479,8.622c0.458-0.275,1.063,0.033,1.09,2.467        c-0.139,6.286-1.018,2.122-1.537,5.774c0.5,1.54-0.193,5.531,0.983,5.673c-0.063,1.839-0.624,2.161-0.967,2.862        c0.42,3.268-0.325,15.196,1.045,11.57l0.108-0.832c0.011,0.156,0.022,0.34,0.035,0.533c0.001-0.027,0,0,0.001-0.027        l-0.001,0.027c0.841,10.696-1.36,22.125-1.187,32.718l-0.394-0.031c0.254,6.33-0.173,14.063,0.536,18.598        c-0.06,1.867-0.859,4.386-1.304,3.573c0.146,4.834,0.572,5.389-0.297,12.341c-0.538-4.874-0.664,1.655-0.35-4.988        c-0.536,6.26-1.213,7.662-0.346,14.429c-0.939-2.324-1.42,4.681-1.211,7.671l0.861-4.371c0.042,3.357-0.139,6.286-0.318,9.26        l-1.279-1.651c-2.02,12.783,2.03,23.23-0.984,32.916c0.824,3.424,0.873-6.951,1.866-3.881        c-0.363,5.897-2.465,11.988-2.526,13.837c-0.99,8.063,1.707,7.606,0.939,16.053c0.507-1.067,1.806-2.051,2.056,4.288        c-0.36,5.902-2.218,7.199-2.481,3.458c0.004-1.418,0.176-2.097,0.335-2.032c-0.113-1.914-0.238-4.425-0.825-2.102l0.45,0.781        c-0.288,1.458-0.482,4.219-0.695,6.374c-0.097,1.108-0.242,1.921-0.382,2.425c-0.142,0.494-0.292,0.62-0.461,0.169        c0.116,2.066,0.176,2.53,0.421,2.091c0.243-0.438,0.474-1.791,0.681-3.337c-0.476,3.536-0.915,6.253-1.464,8.99        c-0.569,2.725-1.266,5.489-2.827,8.794c0.646-0.983,1.547-1.811,1.135-0.716c-1.094,2.481-1.836,3.952-2.253,4.94        c-0.398,0.995-0.53,1.478-0.564,1.891c-0.091,0.814,0.204,1.345-1.695,4.585c-1.483,1.576-1.621,1.006-1.859,0.883        c-0.246-0.129-0.503,0.202-2.528,3.317c-3.238,3.189-1.544-0.07-0.777-1.661c-1.639,2.897-3.903,5.086-6.066,6.748        c-1.063,0.858-2.169,1.523-3.128,2.181c-1.01,0.596-1.882,1.184-2.661,1.688c0,0,0.158-0.146,0.395-0.362        c0.229-0.228,0.531-0.532,0.835-0.836c0.303-0.303,0.604-0.605,0.831-0.833c0.23-0.222,0.369-0.387,0.369-0.387        c-0.705,0.74-1.407,1.348-2.076,1.928c-0.699,0.542-1.382,1.037-2.068,1.538l2.141-0.388        c-1.721,1.094-3.177,2.002-3.355,1.656c-0.695,0.837-0.156,0.952,0.194,1.228c0.344,0.272,0.523,0.739-1.102,2.199        c-0.652,0.271-1.438,0.665-2.266,1.114c-0.816,0.472-1.707,0.938-2.554,1.364c-0.839,0.445-1.673,0.766-2.361,0.968        c-0.689,0.201-1.248,0.248-1.589,0.03c4.097-1.46,3.697-1.764,3.177-1.913c-0.538-0.19-1.211-0.35,1.938-2.049        c-1.152,0.773-2.678,1.523-4.61,2.145c-0.332-0.011,0.162-0.354,0.636-0.636c-3.905,1.046-4.662,1.548-5.436,2.331        c-0.383,0.39-0.771,0.809-1.59,1.242c-0.408,0.221-0.919,0.464-1.59,0.701c-0.678,0.211-1.511,0.438-2.553,0.655        c0.924-0.896-2.194-0.959-3.434-0.671c1.587-0.187,2.082-0.024,1.725,0.42c-0.169,0.207-0.552,0.489-1.062,0.742        c-0.507,0.246-1.163,0.5-1.915,0.729c-0.719,0.004-1.354,0.007-1.925,0.011c-0.29,0.01-0.563,0.02-0.822,0.028        c-0.222,0.014-0.432,0.025-0.629,0.037c-0.92,0.049-1.626,0.144-2.244,0.251c-1.236,0.213-2.122,0.474-3.657,0.503l3.514,0.12        c-1.159,0.756-4.093,0.78-8.169,1.167c-0.371-0.538,3.694-0.527,2.226-0.713c-4.484,1.428-10.3-0.882-16.589,0.212        c-2.949-0.364-0.338-1.322-2.923-1.545c-7.053,1.204-7.715-0.665-15.136,0.394c2.184,0.867,2.551,0.619-2.658,1.759        l12.221-1.161l-7.804,1.701c3.696-0.135,7.775-0.912,9.997-0.838c-3.715,0.928-3.34,0.675-1.538,1.396        c-5.114-1.229-9.994,1.234-15.88,0.502l0.085-2.368c-8.833-0.7-15.569,1.837-27.006,1.7l3.685,0.263        c-1.494,1-7.043,0.413-10.724,0.941c0.313-0.804-2.01-0.997-3.606-1.426c0.216,0.578-8.357,0.28-9.33,1.898l-5.136-0.836        c-9.234-0.057-10.43,2.669-19.299,2.755c2.634-0.964-1.414-1.362,4.495-2.214c-2.958,0.111-5.623,0.073-5.647,0.622        c-1.748-0.426-8.161,1.391-10.91,0.75c-1.233,0.396-1.608,1.239-4.931,1.307c-0.368-0.146-0.002-0.391-0.002-0.391        c0.002,0.391-5.179,0.738-2.241,1.496c-9.209-2.098-25.459,1.197-33.477-0.6c-6.446,0.523-14.212,1.088-20.07,1.38        c0.367-0.251,0.003-0.395,1.116-0.356c-8.113-0.41-4.88,2.464-14.111,2.013c-4.751-1.087,4.855-0.885,1.906-1.251        c-1.378-2.546-11.087,0.798-17.338-0.47l1.493-0.213c-4.767-0.692-11.506,1.445-19.245,1.569c0,0,0.367-0.244,0.03-0.395        c-5.234,1.536-15.227,2.374-22.649,3.04c2.275-1.108,3.358-0.673,1.904-1.648c-3.328,0.279,1.043,1.618-5.599,2.173        c-2.187-0.469-7.007-0.763-7.688-1.839l6.275-0.311c-3.271-1.298-8.124,0.373-11.439,0.258l0.397-0.64        c-9.612,0.587-9.682,2.162-20.027,2.464l1.087,0.429c-5.587,1.781-4.771-0.686-10.361,0.696l-1.769-1.51        c-3.712,0.53-12.998,2.048-19.671,2.612c3.741-1.321,11.54-2.232,16.354-3.121c-3.696,0.136-12.555,0.618-14.449,1.474        c1.484-0.211,3.344-0.673,4.826-0.488c-2.243,0.709-4.849,1.28-7.816,1.698c-2.87,0.405-6.158,0.437-9.713-0.115        c0.833-1.43-3.672-2.167-8.652-4.012c-2.481-0.941-5.075-2.143-7.2-3.459c-2.103-1.355-3.751-2.763-4.412-3.97        c-5.291-2.947-9.62-7.415-13.114-12.602c-3.51-5.212-6.152-11.212-8.22-17.917c-0.421,2.748-0.726,1.786-1.204,0.274        c-0.495-1.492-0.968-3.544-2.074-2.834c-0.463-1.646-0.69-2.809-0.835-3.587c-0.107-0.786-0.118-1.191-0.062-1.354        c0,0-0.003-0.65-0.007-1.625c0.021-0.478,0.044-1.034,0.069-1.63c0.025-0.595,0.041-1.206,0.108-1.899        c0.055-0.674,0.11-1.348,0.162-1.979c0.065-0.601,0.125-1.161,0.177-1.641c0.108-1.009,0.18-1.682,0.18-1.682        c0.319-1.28,0.479-0.444,0.625,0.671c0.073,0.557,0.144,1.184,0.229,1.649c0.042,0.232,0.089,0.425,0.142,0.549l0.02,0.044        l0.01,0.019l0.005,0.009l0.001,0.002c-0.002-0.052,0.005,0.117-0.005-0.116l0,0.001l0,0.001l0.003,0.004        c0.015,0.021,0.029,0.038,0.044,0.05c0.03,0.023,0.062,0.025,0.095,0.004c0.003-0.44,0.006-0.837,0.008-1.195        c0.01-0.394,0.019-0.746,0.026-1.061c0.024-0.629,0.062-1.11,0.108-1.485c0.095-0.751,0.229-1.079,0.38-1.326        c0.303-0.493,0.673-0.661,0.924-3.232c-0.844,1.075-1.33-2.657-1.124-7.079l-0.948,6.248        c-1.613-10.783,1.782-9.412,0.179-20.283l0.869,3.427c-0.616-5.583-0.58-20.646-2.703-26.076        c0.254-0.999,0.885-2.326,1.132,0.133c-0.091-13.385-2.949-29.715-2.039-40.145l0.626,0.997        c-0.245-2.491-1.248-4.313-0.736-7.453c0.251,0.153,0.625,0.987,0.627-0.17c-0.244-1.314-1.239-6.598-0.985-9.915l0.754,2.806        c0.407-13.068-2.215-19.976-2.941-30.903c1.761-0.023,2.037-10.306,2.174-15.438l0.254,0.172        c-0.22-15.198-2.203-25.765-3.3-39.813c1.659-8.789-0.053-29.605,0.613-43.673c-0.257,2.156-1.381-0.309-1.63-2.8        c0.262-3.304-1.484-9.07,0.145-8.594l0.003,1.175c1.512-2.527,0.896-9.286,0.787-14.571l-2.137-0.811        c2.672-13.915-2.173-36.192,0.36-43.817c-0.625-3.319-0.738-7.453-1.36-10.745l1.138,0.146        c0.022-9.251,0.032-13.87-0.568-25.289l0.876,2.307c-0.114-6.447-3.499-8.043-3.737-13.986c0,0,0.41-0.461,0.819-0.923        c0.421-0.428,0.842-0.856,0.842-0.856c-0.084-2.613,0.214-5.222,0.6-7.795c0.463-2.564,1.081-5.087,1.853-7.549        c1.568-4.925,3.602-9.574,5.714-14.292c0.124,0.28,0.361,0.791-0.433,2.239c1.219-2.08,4.041-5.781,6.655-8.54        c1.283-1.405,2.468-2.616,3.134-3.551c0.702-0.892,0.879-1.527,0.165-1.679c0.552,0.535,2.529-1.213,5.188-3.252        c2.627-2.075,6.013-4.402,8.545-5.758l-0.376,1.369c0.475-0.399,0.892-0.75,1.268-1.067c0.393-0.3,0.744-0.568,1.07-0.818        c0.662-0.497,1.235-0.931,1.904-1.287c1.328-0.737,2.935-1.486,6.271-2.306c1.623-0.165,1.538,0.614-0.602,0.736        c0.672-0.054,1.232-0.132,1.719-0.205c0.49-0.056,0.901-0.127,1.265-0.21c0.728-0.155,1.26-0.397,1.842-0.564        c0.58-0.183,1.2-0.369,2.089-0.509c0.897-0.112,1.985-0.157,3.652-0.027c0,0-0.16,0.042-0.401,0.105        c-0.238,0.065-0.527,0.173-0.825,0.271c-0.585,0.2-1.171,0.399-1.171,0.399c0.667-0.021,1.244-0.04,1.749-0.056        c0.546-0.007,1.014-0.013,1.422-0.018c0.413-0.012,0.767-0.032,1.08-0.06c0.157-0.017,0.304-0.032,0.443-0.047        c0.07-0.01,0.138-0.019,0.204-0.028l0.049-0.008l0.025-0.003l0.006-0.001l0.003,0c0.017,0-0.136-0.004-0.071-0.002h0.001        l0.012-0.002l0.097-0.013c1.019-0.148,1.715-0.423,3.332-0.774c3.673-0.301,11.017,0.722,11.834,1.763        c0.809-0.583,4.024-1.277,7.438-0.849c0.448,0.399-0.809,0.585-1.442,0.675c9.691,1.147,14.505-0.717,21.147,0.645        c0.123,0.374,0.551,0.576,1.101,0.709c-7.721-0.335-13.936-0.646-13.35-0.703c-0.041,1.026,6.188,1.457,1.169,2.676        c5.038-0.573,13.667-1.913,19.728-1.187c0.289,0.111,0.574,0.22,0.788,0.387l-0.633,0.09c1.399,0.159,2.659,0.113,3.849-0.012        c1.933,0.246,3.161,0.42,5.022,0.509c0.686,0.879,7.135,0.745,10.242,0.911c-0.211-1.134,3.853-0.791,0.075-1.871        c0.492,0.099-0.592,0.11-2.662,0.075c-0.469,0.014-1.02,0.009-1.33,0.063c0.061-0.029,0.136-0.061,0.215-0.09        c-2.041-0.062-4.706-0.142-7.734-0.234c2.48-0.473,5.068-0.85,8.482-0.089c1.625-0.658,3.41-1.331,4.415-1.639        c4.193,1.737,12.362,2.912,13.465,3.924c9.521-0.25,22.388,0.479,28.443-1.393c2.712-0.163,3.08,0.729,4.076,1.102        c-1.567,0.149-3.419,0.043-4.274,0.313c5.418-0.326,16.002,0.429,17.35-0.994c6.778,0.938-3.878,1.204,5.48,1.337l-1.279,0.4        c18.297,3.092,30.052-2.567,50.322,1.273c-1.405-0.242-2.107-0.356-2.387-0.615c23.194,2.264,47.958,0.665,70.813,3.698        c6.504,0.687,7.248-0.227,11.257-0.783l1.363,1.263l6.86-1.12c9.688-0.634,16.591,3.63,28.884,2.19l-1.545-0.876        c4.382,0.33,13.917,0.077,13.146,0.982c0.455-0.13,1.474-0.788,3.171-0.295l0.108,0.637l10.818-0.651        c8.336,0.791-1.407,2.455,10.78,3.065c4.54-0.062,12.977-1.322,11.293-1.813c-1.828-0.104-4.657-0.58-4.77-1.219l4.158-0.163        c0.827-1.831,4.09-3.609-6.033-5.316l-7.135,0.854l-2.247-0.994l5.968,0.182c-3.35-0.985-5.525-0.32-7.949,0.1        c-0.549-0.502-1.531-0.878-2.932-1.113l-7.031,1.499c-0.814-0.762,3.18-1.32-1.477-1.909        c-3.293,0.695,3.063,1.757-2.356,2.084c-3.359-0.982-2.342-1.631-6.351-1.068c-0.54-0.501,0.316-0.773,1.901-0.92        c-3.567,0.433-9.387-0.132-11.256,0.784c-3.493-1.186-11.974-0.208-11.555-1.955c-1.131,0.377-6.296,1.133-9.555,1.076        c6.031-1.871-12.179-0.611-10.515-2.809c-4.479,1.72-15.932,0.206-23.769,0.946c0.441-0.133,1.312-0.404,1.995-0.28        c-4.382-0.333-5.634-0.956-8.439-1.426c-0.627,1.543-7.474,1.628-11.194,2.447c-5.317-1.727,3.339-1.708,1.709-3.227        c0.22,1.28-9.396,0.893-7.608,2.023c-4.075-1.099-3.526-0.595-5.593-1.978c-0.798,1.93-3.842,0.178-7.302,1.245        c-5.913-1.203-1.458-1.896-8.021-1.561C280.355,22.779,286.198,22.317,286.198,22.317z M130.563,19.484        c0-0.011,0.001-0.019,0.001-0.022c1.34,0.027,2.482,0.05,3.212,0.065C133.106,19.517,132.179,19.505,130.563,19.484z         M117.495,18.979c1.589,0.107,3.57,0.194,5.666,0.271c0.443,0.407-0.068,0.786-1.383,0.713        C122.502,19.732,119.43,19.384,117.495,18.979z M144.824,27.87c-2.074,0.076-2.758-0.172-3.033-0.414        c0.978,0.02,2.121,0.027,3.624,0.01c0.061-0.04,0.187-0.083,0.249-0.128C145.457,27.545,145.224,27.737,144.824,27.87z" style="fill:#373737;"/><path d="M148.602,26.545c0.299-0.013,0.466-0.054,0.856-0.048c-0.418-0.116-0.818-0.217-1.223-0.302        c-0.257,0.111-0.519,0.224-0.748,0.323C147.863,26.527,148.253,26.537,148.602,26.545z" style="fill:#373737;"/><path d="M482.671,261.273l-0.034,0.274c0.052-0.228,0.103-0.438,0.178-0.573        C482.754,261.156,482.719,261.155,482.671,261.273z" style="fill:#373737;"/><polygon points="18.745,130.134 19.027,130.107 18.747,128.972       " style="fill:#373737;"/><path d="M488.777,189.4c0.104-0.135,0.215-0.402,0.318-0.936        C489.02,188.503,488.904,188.908,488.777,189.4z" style="fill:#373737;"/><path d="M490.002,158.309l0.537-4.386C490.252,155.819,490.101,157.201,490.002,158.309z" style="fill:#373737;"/><path d="M491.306,134.416c-0.188-0.309-0.333-0.4-0.466-0.483c-0.005,0.019-0.008,0.032-0.011,0.046        L491.306,134.416z" style="fill:#373737;"/><path d="M416.58,482.398c-0.321,0.019-0.637,0.046-0.92,0.088        C413.505,482.79,414.974,482.646,416.58,482.398z" style="fill:#373737;"/><path d="M481.656,401.413c0.166,1.208,0.33,2.397,0.417,3.654        C482.223,403.057,482.294,401.493,481.656,401.413z" style="fill:#373737;"/><path d="M290.34,488.803c0.013-0.008-0.001-0.01,0.013-0.021c-0.271,0.012-0.509,0.021-0.779,0.031        L290.34,488.803z" style="fill:#373737;"/><path d="M481.89,410.327c0.286-2.006,0.291-3.691,0.184-5.26        C481.947,406.716,481.771,408.657,481.89,410.327z" style="fill:#373737;"/><path d="M460.725,39.178l-1.054-0.609c-0.017,0.075-0.109,0.094-0.212,0.092L460.725,39.178z" style="fill:#373737;"/><path d="M459.459,38.661c0,0-0.313-0.127-0.627-0.255c-0.311-0.132-0.63-0.245-0.63-0.246        C458.758,38.43,459.229,38.685,459.459,38.661z" style="fill:#373737;"/><path d="M455.525,37.213l2.677,0.946C457.319,37.74,456.234,37.191,455.525,37.213z" style="fill:#373737;"/><path d="M484.334,62.228l0.54,0.122C484.697,62.212,484.518,62.162,484.334,62.228z" style="fill:#373737;"/><path d="M488.912,71.277c-0.368-1.166-0.83-2.63-1.329-4.21c-0.295-0.774-0.617-1.574-0.978-2.363        c-0.365-0.786-0.82-1.532-1.294-2.244l-0.438-0.109c0.657,0.538,1.415,2.287,2.062,4.156        C487.599,68.37,488.195,70.321,488.912,71.277z" style="fill:#373737;"/><path d="M487.071,112.048l0.577-8.049c-0.478,1.395-1.119,3.229-1.109-0.438        C484.926,113.68,487.575,101.495,487.071,112.048z" style="fill:#373737;"/><path d="M485.66,137.021c-0.066-4.336-0.632,0.031-0.871-0.206        C485.1,139.575,485.18,140.244,485.66,137.021z" style="fill:#373737;"/><path d="M480.013,317.636l-1.01-0.468C479.045,320.512,479.398,317.212,480.013,317.636z" style="fill:#373737;"/><polygon points="484.219,352.325 484.956,349.098 484.067,347.522       " style="fill:#373737;"/><polygon points="476.297,372.495 476.196,371.032 476.394,376.612       " style="fill:#373737;"/><path d="M254.812,480.339l1.059,1.22C258.118,481.242,258.533,479.808,254.812,480.339z" style="fill:#373737;"/><path d="M123.951,486.857c-1.451-0.572-5.149-0.83-7.394-0.12        C119.504,486.706,122.458,487.08,123.951,486.857z" style="fill:#373737;"/><polygon points="29.848,164.576 30.346,167.197 29.851,162.244       " style="fill:#373737;"/></g></g></g></g></g></g><g id="Layer_1"/></svg>