<?xml version="1.0" ?><!DOCTYPE svg  PUBLIC '-//W3C//DTD SVG 1.1//EN'  'http://www.w3.org/Graphics/SVG/1.1/DTD/svg11.dtd'><svg height="512px" style="enable-background:new 0 0 512 512;" version="1.1" viewBox="0 0 512 512" width="512px" xml:space="preserve" xmlns="http://www.w3.org/2000/svg" xmlns:xlink="http://www.w3.org/1999/xlink"><g id="media__x2C__social__x2C__web__x2C__network__x2C___dropbox__x2C_"><g><g><path d="M470.74,150.089v253.943l-90.695,91.6H107.019     c-36.179,0-65.758-29.938-65.758-66.478V150.089H470.74z" style="fill-rule:evenodd;clip-rule:evenodd;fill:#4188C8;"/><path d="M107.019,61.854H133.9v22.957     c0,15.037,12.123,27.284,27.011,27.284c14.883,0,27.068-12.247,27.068-27.284V61.854h136.044v22.957     c0,15.037,12.184,27.284,27.066,27.284s27.072-12.247,27.072-27.284V61.854h26.82c36.174,0,65.758,29.876,65.758,66.416v15.224     H41.26V128.27C41.26,91.729,70.84,61.854,107.019,61.854L107.019,61.854z" style="fill-rule:evenodd;clip-rule:evenodd;fill:#E5E6E7;"/><path d="M351.09,16.368L351.09,16.368     c12.244,0,22.301,10.154,22.301,22.519v45.924c0,12.374-10.057,22.527-22.301,22.527l0,0c-12.305,0-22.293-10.153-22.293-22.527     V38.887C328.797,26.522,338.785,16.368,351.09,16.368L351.09,16.368z M160.911,16.368L160.911,16.368     c12.309,0,22.29,10.154,22.29,22.519v45.924c0,12.374-9.981,22.527-22.29,22.527l0,0c-12.25,0-22.3-10.153-22.3-22.527V38.887     C138.611,26.522,148.661,16.368,160.911,16.368L160.911,16.368z" style="fill-rule:evenodd;clip-rule:evenodd;fill:#4188C8;"/><path d="M470.74,404.032h-53.828     c-20.287,0-36.867,16.749-36.867,37.24v54.359L470.74,404.032z" style="fill-rule:evenodd;clip-rule:evenodd;fill:#57585A;"/></g><g><g><path d="M324.246,288.063l46.967-36.367l-67.857-42.813      L255.8,247.271l-47.36-38.388l-67.848,42.813l46.961,36.367l-46.961,36.38l67.848,42.61l47.36-38.194l47.555,38.194      l67.857-42.61L324.246,288.063z M324.049,362.422l-20.498,12.865l-47.555-38.182l-47.556,38.182l-20.49-12.865v14.474      l68.046,39.394l68.053-39.394V362.422z M255.8,247.271l68.446,40.792L255.8,328.858l-68.247-40.796L255.8,247.271z" style="fill-rule:evenodd;clip-rule:evenodd;fill:#4188C8;"/></g><g><path d="M324.246,288.063l46.967-36.367l-67.857-42.813L255.8,247.271l-47.36-38.388l-67.848,42.813      l46.961,36.367l-46.961,36.38l67.848,42.61l47.36-38.194l47.555,38.194l67.857-42.61L324.246,288.063z M324.049,362.422      l-20.498,12.865l-47.555-38.182l-47.556,38.182l-20.49-12.865v14.474l68.046,39.394l68.053-39.394V362.422z M255.8,247.271      l68.446,40.792L255.8,328.858l-68.247-40.796L255.8,247.271z" style="fill:#FFFFFF;"/></g></g></g></g><g id="Layer_1"/></svg>