<?xml version="1.0" ?><!DOCTYPE svg  PUBLIC '-//W3C//DTD SVG 1.1//EN'  'http://www.w3.org/Graphics/SVG/1.1/DTD/svg11.dtd'><svg height="512px" style="enable-background:new 0 0 512 512;" version="1.1" viewBox="0 0 512 512" width="512px" xml:space="preserve" xmlns="http://www.w3.org/2000/svg" xmlns:xlink="http://www.w3.org/1999/xlink"><g id="media__x2C__social__x2C__web__x2C__network__x2C___twitter__x2C_"><g><g><path d="M470.74,150.096v253.937l-90.695,91.603H107.019     c-36.174,0-65.758-29.943-65.758-66.483V150.096H470.74z" style="fill-rule:evenodd;clip-rule:evenodd;fill:#42BDED;"/><path d="M107.019,61.851H133.9v22.967     c0,15.036,12.123,27.281,27.011,27.281c14.883,0,27.068-12.245,27.068-27.281V61.851h136.044v22.967     c0,15.036,12.178,27.281,27.064,27.281c14.885,0,27.074-12.245,27.074-27.281V61.851h26.82c36.174,0,65.758,29.885,65.758,66.425     V143.5H41.26v-15.225C41.26,91.735,70.845,61.851,107.019,61.851L107.019,61.851z" style="fill-rule:evenodd;clip-rule:evenodd;fill:#E5E6E7;"/><path d="M351.088,16.365L351.088,16.365     c12.246,0,22.303,10.153,22.303,22.527v45.925c0,12.373-10.057,22.518-22.303,22.518l0,0c-12.303,0-22.291-10.145-22.291-22.518     V38.893C328.797,26.519,338.785,16.365,351.088,16.365L351.088,16.365z M160.911,16.365L160.911,16.365     c12.309,0,22.295,10.153,22.295,22.527v45.925c0,12.373-9.986,22.518-22.295,22.518l0,0c-12.25,0-22.3-10.145-22.3-22.518V38.893     C138.611,26.519,148.661,16.365,160.911,16.365L160.911,16.365z" style="fill-rule:evenodd;clip-rule:evenodd;fill:#42BDED;"/><path d="M470.74,404.032h-53.828     c-20.287,0-36.867,16.746-36.867,37.237v54.365L470.74,404.032z" style="fill-rule:evenodd;clip-rule:evenodd;fill:#57585A;"/></g><g><g><g><path d="M304.102,362.326H255.49c-6.743,0-12.482-2.35-17.211-7.208       c-4.73-4.775-7.059-10.571-7.059-17.462v-17.463h69.235c6.201,0,11.633-2.272,16.055-6.731       c4.492-4.545,6.742-9.947,6.742-16.288c0-6.337-2.25-11.749-6.742-16.285c-4.5-4.468-9.854-6.74-16.131-6.74H231.22v-36.097       c0-6.809-2.479-12.69-7.212-17.54c-4.803-4.935-10.539-7.361-17.206-7.361c-6.901,0-12.79,2.427-17.521,7.208       c-4.809,4.775-7.213,10.646-7.213,17.693v99.604c0,20.516,7.213,38.062,21.556,52.548       c14.343,14.565,31.629,21.841,51.865,21.841h48.612c6.744,0,12.561-2.423,17.365-7.275c4.805-4.858,7.211-10.729,7.211-17.545       c0-6.809-2.406-12.688-7.211-17.54C316.662,364.749,310.846,362.326,304.102,362.326L304.102,362.326z" style="fill:#42BDED;"/></g></g><g><g><path d="M304.102,362.326H255.49c-6.743,0-12.482-2.35-17.211-7.208       c-4.73-4.775-7.059-10.571-7.059-17.462v-17.463h69.235c6.201,0,11.633-2.272,16.055-6.731       c4.492-4.545,6.742-9.947,6.742-16.288c0-6.337-2.25-11.749-6.742-16.285c-4.5-4.468-9.854-6.74-16.131-6.74H231.22v-36.097       c0-6.809-2.479-12.69-7.212-17.54c-4.803-4.935-10.539-7.361-17.206-7.361c-6.901,0-12.79,2.427-17.521,7.208       c-4.809,4.775-7.213,10.646-7.213,17.693v99.604c0,20.516,7.213,38.062,21.556,52.548       c14.343,14.565,31.629,21.841,51.865,21.841h48.612c6.744,0,12.561-2.423,17.365-7.275c4.805-4.858,7.211-10.729,7.211-17.545       c0-6.809-2.406-12.688-7.211-17.54C316.662,364.749,310.846,362.326,304.102,362.326L304.102,362.326z" style="fill:#FFFFFF;"/></g></g></g></g></g><g id="Layer_1"/></svg>