<?xml version="1.0" ?><!DOCTYPE svg  PUBLIC '-//W3C//DTD SVG 1.1//EN'  'http://www.w3.org/Graphics/SVG/1.1/DTD/svg11.dtd'><svg height="512px" style="enable-background:new 0 0 512 512;" version="1.1" viewBox="0 0 512 512" width="512px" xml:space="preserve" xmlns="http://www.w3.org/2000/svg" xmlns:xlink="http://www.w3.org/1999/xlink"><g id="media__x2C__social__x2C__web__x2C__network__x2C___facebook__x2C_"><g><g><path d="M470.74,150.093v253.934l-90.698,91.609H107.015     c-36.174,0-65.755-29.949-65.755-66.486V150.093H470.74z" style="fill-rule:evenodd;clip-rule:evenodd;fill:#6181C0;"/><path d="M107.015,61.848h26.881v22.967     c0,15.037,12.125,27.275,27.011,27.275c14.883,0,27.072-12.238,27.072-27.275V61.848h136.043v22.967     c0,15.037,12.178,27.275,27.066,27.275c14.883,0,27.072-12.238,27.072-27.275V61.848h26.819     c36.174,0,65.761,29.886,65.761,66.417v15.233H41.26v-15.233C41.26,91.733,70.841,61.848,107.015,61.848L107.015,61.848z" style="fill-rule:evenodd;clip-rule:evenodd;fill:#E5E6E7;"/><path d="M351.088,16.363L351.088,16.363     c12.244,0,22.3,10.153,22.3,22.527v45.925c0,12.374-10.056,22.518-22.3,22.518l0,0c-12.306,0-22.294-10.145-22.294-22.518V38.89     C328.794,26.517,338.782,16.363,351.088,16.363L351.088,16.363z M160.906,16.363L160.906,16.363     c12.313,0,22.297,10.153,22.297,22.527v45.925c0,12.374-9.984,22.518-22.297,22.518l0,0c-12.248,0-22.3-10.145-22.3-22.518V38.89     C138.606,26.517,148.658,16.363,160.906,16.363L160.906,16.363z" style="fill-rule:evenodd;clip-rule:evenodd;fill:#6181C0;"/><path d="M470.74,404.027h-53.83     c-20.288,0-36.868,16.747-36.868,37.238v54.371L470.74,404.027z" style="fill-rule:evenodd;clip-rule:evenodd;fill:#57585A;"/></g><g><g><path d="M272.11,270.581v-16.883c0-8.238,5.578-10.049,9.551-10.049      c3.979,0,24.483,0,24.483,0v-35.971l-33.635-0.206c-37.404,0-45.763,26.934-45.763,44.012v19.097H205.06v25.313v16.691h21.885      c0,47.625,0,105.102,0,105.102h43.383c0,0,0-58.079,0-105.102h32.429l1.402-16.482l2.38-25.521H272.11z" style="fill-rule:evenodd;clip-rule:evenodd;fill:#6181C0;"/></g><g><path d="M272.11,270.581v-16.883c0-8.238,5.578-10.049,9.551-10.049c3.979,0,24.483,0,24.483,0v-35.971      l-33.635-0.206c-37.404,0-45.763,26.934-45.763,44.012v19.097H205.06v25.313v16.691h21.885c0,47.625,0,105.102,0,105.102h43.383      c0,0,0-58.079,0-105.102h32.429l1.402-16.482l2.38-25.521H272.11z" style="fill:#FFFFFF;"/></g></g></g></g><g id="Layer_1"/></svg>