<?xml version="1.0" ?><!DOCTYPE svg  PUBLIC '-//W3C//DTD SVG 1.1//EN'  'http://www.w3.org/Graphics/SVG/1.1/DTD/svg11.dtd'><svg height="512px" style="enable-background:new 0 0 512 512;" version="1.1" viewBox="0 0 512 512" width="512px" xml:space="preserve" xmlns="http://www.w3.org/2000/svg" xmlns:xlink="http://www.w3.org/1999/xlink"><g id="media__x2C__social__x2C__web__x2C__network__x2C___youtube__x2C__2___x2C_"><g><g><path d="M470.742,150.096v253.937l-90.698,91.603H107.017     c-36.174,0-65.759-29.943-65.759-66.483V150.096H470.742z" style="fill-rule:evenodd;clip-rule:evenodd;fill:#F15A4B;"/><path d="M107.017,61.851h26.881v22.967     c0,15.036,12.125,27.274,27.011,27.274c14.883,0,27.068-12.238,27.068-27.274V61.851h136.047v22.967     c0,15.036,12.184,27.274,27.066,27.274c14.889,0,27.072-12.238,27.072-27.274V61.851h26.819     c36.174,0,65.761,29.876,65.761,66.416V143.5H41.258v-15.233C41.258,91.727,70.843,61.851,107.017,61.851L107.017,61.851z" style="fill-rule:evenodd;clip-rule:evenodd;fill:#E5E6E7;"/><path d="M351.09,16.365L351.09,16.365     c12.244,0,22.3,10.153,22.3,22.519v45.934c0,12.364-10.056,22.518-22.3,22.518l0,0c-12.306,0-22.294-10.153-22.294-22.518V38.884     C328.796,26.519,338.784,16.365,351.09,16.365L351.09,16.365z M160.908,16.365L160.908,16.365     c12.309,0,22.297,10.153,22.297,22.519v45.934c0,12.364-9.988,22.518-22.297,22.518l0,0c-12.251,0-22.3-10.153-22.3-22.518     V38.884C138.608,26.519,148.657,16.365,160.908,16.365L160.908,16.365z" style="fill-rule:evenodd;clip-rule:evenodd;fill:#F15A4B;"/><path d="M470.742,404.032h-53.824     c-20.294,0-36.874,16.746-36.874,37.237v54.365L470.742,404.032z" style="fill-rule:evenodd;clip-rule:evenodd;fill:#57585A;"/></g><g><g><path d="M292.211,310.375l-58.697,30.743V293.89v-14.465      l26.465,13.862L292.211,310.375z M362.448,268.771c0,0-2.188-15.07-8.561-21.709c-8.352-8.832-17.699-8.832-21.881-9.24      c-30.442-2.214-76.012-2.214-76.012-2.214h-0.196c0,0-45.565,0-76.008,2.214c-4.378,0.408-13.532,0.408-21.887,9.24      c-6.369,6.639-8.562,21.709-8.562,21.709s-2.186,17.682-2.186,35.571v2.008v14.474c0,17.888,2.186,35.571,2.186,35.571      s2.192,15.07,8.562,21.706c8.354,8.638,19.301,8.444,24.07,9.438c17.315,1.617,73.824,2.214,73.824,2.214      s45.766-0.197,76.208-2.408c4.182-0.408,13.529-0.605,21.881-9.243c6.372-6.636,8.561-21.706,8.561-21.706      s2.196-17.684,2.196-35.571v-13.462v-3.02C364.645,286.452,362.448,268.771,362.448,268.771L362.448,268.771z" style="fill-rule:evenodd;clip-rule:evenodd;fill:#F15A4B;"/></g><g><path d="M292.211,310.375l-58.697,30.743V293.89v-14.465l26.465,13.862L292.211,310.375z       M362.448,268.771c0,0-2.188-15.07-8.561-21.709c-8.352-8.832-17.699-8.832-21.881-9.24      c-30.442-2.214-76.012-2.214-76.012-2.214h-0.196c0,0-45.565,0-76.008,2.214c-4.378,0.408-13.532,0.408-21.887,9.24      c-6.369,6.639-8.562,21.709-8.562,21.709s-2.186,17.682-2.186,35.571v2.008v14.474c0,17.888,2.186,35.571,2.186,35.571      s2.192,15.07,8.562,21.706c8.354,8.638,19.301,8.444,24.07,9.438c17.315,1.617,73.824,2.214,73.824,2.214      s45.766-0.197,76.208-2.408c4.182-0.408,13.529-0.605,21.881-9.243c6.372-6.636,8.561-21.706,8.561-21.706      s2.196-17.684,2.196-35.571v-13.462v-3.02C364.645,286.452,362.448,268.771,362.448,268.771L362.448,268.771z" style="fill:#FFFFFF;"/></g></g></g></g><g id="Layer_1"/></svg>