<?xml version="1.0" ?><!DOCTYPE svg  PUBLIC '-//W3C//DTD SVG 1.1//EN'  'http://www.w3.org/Graphics/SVG/1.1/DTD/svg11.dtd'><svg height="512px" style="enable-background:new 0 0 512 512;" version="1.1" viewBox="0 0 512 512" width="512px" xml:space="preserve" xmlns="http://www.w3.org/2000/svg" xmlns:xlink="http://www.w3.org/1999/xlink"><g id="media__x2C__social__x2C__web__x2C__network__x2C___blogger__x2C_"><g><g><path d="M470.74,150.093v253.936l-90.698,91.606H107.015     c-36.174,0-65.755-29.943-65.755-66.486V150.093H470.74z" style="fill-rule:evenodd;clip-rule:evenodd;fill:#F89D44;"/><path d="M107.015,61.848h26.881v22.97     c0,15.036,12.125,27.271,27.011,27.271c14.883,0,27.072-12.235,27.072-27.271v-22.97h136.043v22.97     c0,15.036,12.178,27.271,27.066,27.271c14.883,0,27.072-12.235,27.072-27.271v-22.97h26.819     c36.174,0,65.761,29.879,65.761,66.419v15.23H41.26v-15.23C41.26,91.727,70.841,61.848,107.015,61.848L107.015,61.848z" style="fill-rule:evenodd;clip-rule:evenodd;fill:#E5E6E7;"/><path d="M351.088,16.365L351.088,16.365     c12.244,0,22.3,10.15,22.3,22.515v45.938c0,12.37-10.056,22.515-22.3,22.515l0,0c-12.306,0-22.294-10.145-22.294-22.515V38.88     C328.794,26.516,338.782,16.365,351.088,16.365L351.088,16.365z M160.906,16.365L160.906,16.365     c12.313,0,22.297,10.15,22.297,22.515v45.938c0,12.37-9.984,22.515-22.297,22.515l0,0c-12.248,0-22.3-10.145-22.3-22.515V38.88     C138.606,26.516,148.658,16.365,160.906,16.365L160.906,16.365z" style="fill-rule:evenodd;clip-rule:evenodd;fill:#F89D44;"/><path d="M470.74,404.028h-53.83     c-20.288,0-36.868,16.747-36.868,37.238v54.368L470.74,404.028z" style="fill-rule:evenodd;clip-rule:evenodd;fill:#57585A;"/></g><g><g><path d="M294.601,363.03H217c-7.368,0-13.337-5.839-13.337-12.662      c0-6.833,5.969-12.663,13.337-12.663h77.601c7.361,0,13.13,5.83,13.13,12.663C307.73,357.191,301.962,363.03,294.601,363.03      L294.601,363.03z M217,261.732h38.203c7.16,0,13.131,5.836,13.131,12.659c0,7.039-5.971,12.663-13.131,12.663H217      c-7.368,0-13.337-5.624-13.337-12.663C203.663,267.568,209.632,261.732,217,261.732L217,261.732z M364.046,294.893l-1.802-3.819      l-3.18-2.205c-3.985-3.013-24.273,0.203-29.643-4.631c-3.985-3.41-4.582-9.64-5.769-17.877      c-2.196-16.279-3.586-17.088-6.175-22.712c-9.551-19.486-35.411-34.166-53.123-36.174h-48.353      c-37.81,0-68.848,29.943-68.848,66.518v32.354v45.018c0,36.386,31.038,66.323,68.848,66.323h79.188      c38.006,0,68.854-29.938,69.051-66.323l0.4-44.006v-9.649L364.046,294.893z" style="fill-rule:evenodd;clip-rule:evenodd;fill:#F89D44;"/></g><g><path d="M294.601,363.03H217c-7.368,0-13.337-5.839-13.337-12.662c0-6.833,5.969-12.663,13.337-12.663      h77.601c7.361,0,13.13,5.83,13.13,12.663C307.73,357.191,301.962,363.03,294.601,363.03L294.601,363.03z M217,261.732h38.203      c7.16,0,13.131,5.836,13.131,12.659c0,7.039-5.971,12.663-13.131,12.663H217c-7.368,0-13.337-5.624-13.337-12.663      C203.663,267.568,209.632,261.732,217,261.732L217,261.732z M364.046,294.893l-1.802-3.819l-3.18-2.205      c-3.985-3.013-24.273,0.203-29.643-4.631c-3.985-3.41-4.582-9.64-5.769-17.877c-2.196-16.279-3.586-17.088-6.175-22.712      c-9.551-19.486-35.411-34.166-53.123-36.174h-48.353c-37.81,0-68.848,29.943-68.848,66.518v32.354v45.018      c0,36.386,31.038,66.323,68.848,66.323h79.188c38.006,0,68.854-29.938,69.051-66.323l0.4-44.006v-9.649L364.046,294.893z" style="fill:#FFFFFF;"/></g></g></g></g><g id="Layer_1"/></svg>