<?xml version="1.0" ?><!DOCTYPE svg  PUBLIC '-//W3C//DTD SVG 1.1//EN'  'http://www.w3.org/Graphics/SVG/1.1/DTD/svg11.dtd'><svg height="512px" style="enable-background:new 0 0 512 512;" version="1.1" viewBox="0 0 512 512" width="512px" xml:space="preserve" xmlns="http://www.w3.org/2000/svg" xmlns:xlink="http://www.w3.org/1999/xlink"><g id="media__x2C__social__x2C__web__x2C__network__x2C___instagram__x2C__2___x2C_"><g><g><path d="M470.742,150.093v253.934l-90.698,91.609H107.017     c-36.174,0-65.759-29.949-65.759-66.486V150.093H470.742z" style="fill-rule:evenodd;clip-rule:evenodd;fill:#F05344;"/><path d="M107.017,61.848h26.881v22.967     c0,15.027,12.125,27.275,27.011,27.275c14.883,0,27.068-12.248,27.068-27.275V61.848h136.047v22.967     c0,15.027,12.184,27.275,27.066,27.275c14.889,0,27.072-12.248,27.072-27.275V61.848h26.819     c36.174,0,65.761,29.876,65.761,66.417v15.224H41.258v-15.224C41.258,91.724,70.843,61.848,107.017,61.848L107.017,61.848z" style="fill-rule:evenodd;clip-rule:evenodd;fill:#E5E6E7;"/><path d="M351.09,16.363L351.09,16.363     c12.244,0,22.3,10.153,22.3,22.518v45.934c0,12.364-10.056,22.518-22.3,22.518l0,0c-12.306,0-22.294-10.154-22.294-22.518V38.881     C328.796,26.517,338.784,16.363,351.09,16.363L351.09,16.363z M160.908,16.363L160.908,16.363     c12.309,0,22.297,10.153,22.297,22.518v45.934c0,12.364-9.988,22.518-22.297,22.518l0,0c-12.251,0-22.3-10.154-22.3-22.518     V38.881C138.608,26.517,148.657,16.363,160.908,16.363L160.908,16.363z" style="fill-rule:evenodd;clip-rule:evenodd;fill:#F05344;"/><path d="M470.742,404.027h-53.824     c-20.294,0-36.874,16.747-36.874,37.238v54.371L470.742,404.027z" style="fill-rule:evenodd;clip-rule:evenodd;fill:#57585A;"/></g><g><g><g><g><path d="M340.795,351.858c0,25.319-20.603,45.934-45.934,45.934        h-78.752c-25.331,0-45.939-20.614-45.939-45.934v-78.756c0-25.336,20.608-45.938,45.939-45.938h78.752        c25.331,0,45.934,20.602,45.934,45.938V351.858L340.795,351.858z M294.861,207.472h-78.752        c-36.241,0-65.625,29.394-65.625,65.631v78.756c0,36.229,29.384,65.626,65.625,65.626h78.752        c36.241,0,65.625-29.397,65.625-65.626v-78.756C360.486,236.865,331.103,207.472,294.861,207.472L294.861,207.472z         M255.484,345.296c-18.087,0-32.813-14.729-32.813-32.815c0-18.105,14.726-32.811,32.813-32.811        c18.086,0,32.814,14.705,32.814,32.811C288.299,330.567,273.57,345.296,255.484,345.296L255.484,345.296z M255.484,259.979        c-28.993,0-52.498,23.505-52.498,52.502c0,28.996,23.505,52.495,52.498,52.495c28.989,0,52.501-23.499,52.501-52.495        C307.985,283.483,284.474,259.979,255.484,259.979L255.484,259.979z M311.927,249.042c3.862,0,6.993,3.131,6.993,6.996        c0,3.861-3.131,6.998-6.993,6.998c-3.868,0-6.998-3.137-6.998-6.998C304.929,252.173,308.059,249.042,311.927,249.042        L311.927,249.042z" style="fill-rule:evenodd;clip-rule:evenodd;fill:#F05344;"/></g></g></g><g><g><g><path d="M340.795,351.858c0,25.319-20.603,45.934-45.934,45.934h-78.752        c-25.331,0-45.939-20.614-45.939-45.934v-78.756c0-25.336,20.608-45.938,45.939-45.938h78.752        c25.331,0,45.934,20.602,45.934,45.938V351.858L340.795,351.858z M294.861,207.472h-78.752        c-36.241,0-65.625,29.394-65.625,65.631v78.756c0,36.229,29.384,65.626,65.625,65.626h78.752        c36.241,0,65.625-29.397,65.625-65.626v-78.756C360.486,236.865,331.103,207.472,294.861,207.472L294.861,207.472z         M255.484,345.296c-18.087,0-32.813-14.729-32.813-32.815c0-18.105,14.726-32.811,32.813-32.811        c18.086,0,32.814,14.705,32.814,32.811C288.299,330.567,273.57,345.296,255.484,345.296L255.484,345.296z M255.484,259.979        c-28.993,0-52.498,23.505-52.498,52.502c0,28.996,23.505,52.495,52.498,52.495c28.989,0,52.501-23.499,52.501-52.495        C307.985,283.483,284.474,259.979,255.484,259.979L255.484,259.979z M311.927,249.042c3.862,0,6.993,3.131,6.993,6.996        c0,3.861-3.131,6.998-6.993,6.998c-3.868,0-6.998-3.137-6.998-6.998C304.929,252.173,308.059,249.042,311.927,249.042        L311.927,249.042z" style="fill:#FFFFFF;"/></g><g><path d="M340.795,351.858c0,25.319-20.603,45.934-45.934,45.934h-78.752        c-25.331,0-45.939-20.614-45.939-45.934v-78.756c0-25.336,20.608-45.938,45.939-45.938h78.752        c25.331,0,45.934,20.602,45.934,45.938V351.858L340.795,351.858z M294.861,207.472h-78.752        c-36.241,0-65.625,29.394-65.625,65.631v78.756c0,36.229,29.384,65.626,65.625,65.626h78.752        c36.241,0,65.625-29.397,65.625-65.626v-78.756C360.486,236.865,331.103,207.472,294.861,207.472L294.861,207.472z         M255.484,345.296c-18.087,0-32.813-14.729-32.813-32.815c0-18.105,14.726-32.811,32.813-32.811        c18.086,0,32.814,14.705,32.814,32.811C288.299,330.567,273.57,345.296,255.484,345.296L255.484,345.296z M255.484,259.979        c-28.993,0-52.498,23.505-52.498,52.502c0,28.996,23.505,52.495,52.498,52.495c28.989,0,52.501-23.499,52.501-52.495        C307.985,283.483,284.474,259.979,255.484,259.979L255.484,259.979z M311.927,249.042c3.862,0,6.993,3.131,6.993,6.996        c0,3.861-3.131,6.998-6.993,6.998c-3.868,0-6.998-3.137-6.998-6.998C304.929,252.173,308.059,249.042,311.927,249.042        L311.927,249.042z" style="fill:#FFFFFF;"/></g></g></g></g></g></g><g id="Layer_1"/></svg>