<?xml version="1.0" ?><svg id="Layer_1" style="enable-background:new 0 0 250 250;" version="1.0" viewBox="0 0 250 250" xml:space="preserve" xmlns="http://www.w3.org/2000/svg" xmlns:xlink="http://www.w3.org/1999/xlink"><style type="text/css">
	.st0{fill-rule:evenodd;clip-rule:evenodd;fill:none;stroke:#000000;stroke-width:6;stroke-linecap:round;stroke-linejoin:round;}
	.st1{fill:none;stroke:#000000;stroke-width:6;stroke-linecap:round;stroke-linejoin:round;stroke-miterlimit:10;}
	.st2{fill:none;stroke:#ED1C24;stroke-miterlimit:10;}
	.st3{fill:none;stroke:#000000;stroke-width:2;stroke-linecap:round;stroke-linejoin:round;stroke-miterlimit:10;}
	.st4{stroke:#000000;stroke-width:3;stroke-linecap:round;stroke-linejoin:round;stroke-miterlimit:10;}
	.st5{stroke:#000000;stroke-width:6;stroke-linecap:round;stroke-linejoin:round;stroke-miterlimit:10;}
</style><path d="M229.6,165c-1.5-5.3-9.6-31.9-20.8-34.7c-9.5-2.4-25.2-15.1-24.6-23.9c0.3-4.6,4.7-11.8,12.3-20.2c0.7-0.8,1-2,0.6-3  c-5.8-15.9-20.3-30.1-26.2-35.5c-0.9-0.8-2.2-1-3.3-0.5l-0.8,0.4c-3.1-3.1-10.4-8.8-20.3-7.1c-10.8,1.8-19.1,9.7-25.7,16.1  c-3.8,3.6-8.5,8.1-10.3,7.3c-35.1-15.4-54.4,0.5-61.1,8.1c-0.9,1-5.4,4.8-26.8,12.5c-1.4,0.5-2.2,2-1.9,3.5  c1.6,7.1,3.2,14.3,4.8,21.4c2.9,13.1,6,26.7,9,40c0.6,2.5,2.1,5.1,4.1,7.3c3.6,3.8,7.4,7.6,11.1,11.2c1.3,1.3,2.7,2.6,4,3.9  c3.3,3.3,6.6,6.6,10,9.9l2.4,2.4l-4.4,5c-0.7,0.8-0.9,1.8-0.6,2.8c0.3,1,1,1.7,2,2.1l43.9,14.4c3.5,1.1,7,1.6,10.6,1.6  c5.5,0,10.9-1.3,15.9-3.8l70.3-35.2c0.1-0.1,0.3-0.1,0.4-0.1l23-2c0.9-0.1,1.7-0.5,2.2-1.3S229.8,165.9,229.6,165z M203.4,164.8  c-0.9,0.1-1.8,0.3-2.6,0.7l-70.3,35.2c-6.9,3.4-14.7,4.1-22,1.8L69,189.6l3.3-3.7c1-1.2,1-3-0.1-4.1l-4.4-4.4  c-3.4-3.3-6.7-6.6-10-9.9c-1.3-1.3-2.7-2.6-4-4c-3.6-3.6-7.4-7.3-10.9-11c-1.3-1.4-2.3-3.1-2.6-4.5c-3.1-13.3-6.1-26.9-9-40  c-1.4-6.3-2.8-12.6-4.2-18.8c14.8-5.5,23.9-9.9,26.8-13.3c17.5-19.8,43.8-11.2,54.2-6.6c5.5,2.5,10.8-2.5,16.9-8.4  c6-5.8,13.6-13,22.6-14.5c9.6-1.6,16,6.4,16.3,6.8c0.9,1.1,2.4,1.5,3.7,0.8l1-0.5c6,5.6,17.2,17.2,22.5,30.1  c-7.9,9.1-12.2,16.6-12.6,22.5c-0.9,13.2,18.3,27.4,29.1,30.2c5.2,1.3,11.7,15.6,15.4,27L203.4,164.8z"/></svg>