<?xml version="1.0" ?><svg id="Layer_1" style="enable-background:new 0 0 250 250;" version="1.0" viewBox="0 0 250 250" xml:space="preserve" xmlns="http://www.w3.org/2000/svg" xmlns:xlink="http://www.w3.org/1999/xlink"><style type="text/css">
	.st0{fill-rule:evenodd;clip-rule:evenodd;fill:none;stroke:#000000;stroke-width:6;stroke-linecap:round;stroke-linejoin:round;}
	.st1{fill:none;stroke:#000000;stroke-width:6;stroke-linecap:round;stroke-linejoin:round;stroke-miterlimit:10;}
	.st2{fill:none;stroke:#ED1C24;stroke-miterlimit:10;}
	.st3{fill:none;stroke:#000000;stroke-width:2;stroke-linecap:round;stroke-linejoin:round;stroke-miterlimit:10;}
	.st4{stroke:#000000;stroke-width:3;stroke-linecap:round;stroke-linejoin:round;stroke-miterlimit:10;}
	.st5{stroke:#000000;stroke-width:6;stroke-linecap:round;stroke-linejoin:round;stroke-miterlimit:10;}
</style><path d="M183.2,216.8l-6.3-15.7c-0.4-1-0.3-2.2,0.4-3l3.2-4.4c2.1-2.9,2.7-6.6,1.5-10c-4.3-12.2-5.3-18.9-4.9-21.1  c0.5-2.6,2.6-6.3,5.7-10.2c0.9-1.2,0.8-2.9-0.2-4c-5.7-5.7-10.5-9.3-11.9-10.4c-1.8-2.6-11.6-17.3-14.8-30.4  c-3.2-12.9,0.3-26.2,0.9-28.4l4.6-7.9c0.5-0.8,0.5-1.7,0.2-2.5c-0.6-1.6-1.7-6.7,0.4-9.5c3.4-4.5,12.4-13.8,12.5-13.9  c0.2-0.2,0.4-0.5,0.6-0.9c0.2-0.4,4.2-9.5,1.7-19.2c-0.2-0.9-0.8-1.6-1.6-2L138.3,5.3c-0.6-0.3-1.2-0.4-1.9-0.3  c-0.2,0-5.6,1.1-9.7,4.2c-3.5,2.6-11.4,12.8-13.3,15.3l-8,5.1c-1,0.7-1.5,1.9-1.3,3.1c0,0,0,0,0,0c-2,3-3.5,5.5-4.8,7.9  c-0.9,1.8-1.5,3.7-1.8,5.6c-0.5,3.6-0.9,7.2-1.3,10.6c-0.5,4.1-1,8.4-1.5,12.6c-0.7,4.9-0.9,10.3,1.7,15.6c1.2,2.4,2.1,4.9,3.1,7.5  c0.6,1.7,1.2,3.4,1.9,5.1c0,0,0,0,0,0c-3.2,3.3-6.3,6.6-9.4,9.9c-2.6,2.8-5.2,5.5-7.9,8.3c-2.5,2.6-3.1,5.6-1.7,9c1.1,2.5,2,5,3,7.4  l-1.8-0.9c-2-1-4.2-1.5-6.4-1.5H66c-4.1,0-7.4,3.3-7.4,7.4v2.1c0,2,0.6,3.9,1.7,5.6l1.7,2.5c0.3,0.4,0.2,1-0.1,1.4l-2.3,2.3  c-0.6,0.6-0.9,1.3-0.9,2.1c0,3,1.2,5.8,3.4,7.9c2.1,2,4.7,3,7.5,3c0,0,0,0,0.1,0l6.7,1.6c0.1,0,0.2,0.1,0.3,0.2l0.7,5.3  c0.1,4.4,5.7,8.7,7.1,9.6l4.2,2.5c0.1,0.1,0.3,0.1,0.4,0.2l6.2,2.6c-5.3,6.8-10.8,13.8-16.3,20.7c-2.2,2.8-2.5,5.8-0.9,9.2  c3.3,6.8,6.6,13.8,9.8,20.6l1,2.2c0.4,0.9,0.8,1.8,0.9,2.6l0.2,0.9c0.2,0.8,0.7,1.6,1.5,2c0.4,0.2,0.9,0.4,1.4,0.4  c0.3,0,0.7-0.1,1-0.2c14-5,16.1-7.4,16.9-8.3c3.1-3.5,11.9-10.7,28.7-3.3c3.9,1.8,7.3-1.5,10.9-4.9c3.4-3.3,7.3-7,11.9-7.7  c4.5-0.8,7.7,3.1,7.8,3.3c0.9,1.1,2.4,1.5,3.7,0.8l8.1-4C183.2,220,183.8,218.3,183.2,216.8z M173,218.3c-2.2-1.9-6.3-4.6-11.8-3.7  c-6.4,1.1-11.2,5.6-15,9.3c-1.4,1.4-3.6,3.4-4.5,3.7c-20.2-8.8-31.5,0.5-35.4,4.9c-0.2,0.2-1.8,1.9-11.4,5.5c-0.2-0.5-0.4-1-0.6-1.5  l-1-2.2c-3.2-6.8-6.5-13.8-9.8-20.7c-0.6-1.3-0.5-1.9,0.2-2.8c6-7.6,12.1-15.4,18-22.9l0.7-0.9c0.6-0.7,0.8-1.7,0.5-2.6  s-0.9-1.6-1.7-2l-9.6-4l-4-2.4c-1.8-1.1-4-3.6-4.2-4.6c0-0.2,0-0.3,0-0.5l-0.8-6.1c0-0.3-0.1-0.6-0.2-0.8c-0.9-1.9-2.5-3.3-4.5-3.8  l-7.1-1.7c-0.3-0.1-0.6-0.1-0.9-0.1c-1.4,0.1-2.6-0.4-3.6-1.4c-0.7-0.7-1.2-1.5-1.4-2.4l1.3-1.3c2.4-2.4,2.8-6.2,0.9-9l-1.7-2.5  c-0.5-0.7-0.7-1.5-0.7-2.3v-2.1c0-0.8,0.6-1.4,1.4-1.4h11.3c1.3,0,2.6,0.3,3.8,0.9l7.7,3.7c0.8,0.4,1.8,0.4,2.7,0s1.4-1.2,1.6-2.1  c0.2-0.9,0.3-2.3-0.2-3.6c-1.3-3.7-3-8-4.8-12.3c-0.5-1.1-0.4-1.6,0.5-2.5c2.6-2.8,5.3-5.5,7.9-8.3c3.1-3.3,6.2-6.6,9.4-9.9  c1.8-1.9,2.2-4,1.3-6.4c-0.7-1.6-1.3-3.3-1.9-4.9c-1-2.7-2-5.4-3.3-8.1c-1.8-3.7-1.8-7.4-1.1-12.2c0.6-4.3,1.1-8.6,1.5-12.8  c0.4-3.5,0.8-7,1.2-10.6c0.2-1.2,0.6-2.5,1.1-3.6c1.2-2.2,2.6-4.6,4.5-7.4c0.5-0.7,0.8-1.5,0.9-2.3l7.1-4.5c0.3-0.2,0.6-0.4,0.8-0.7  c3.6-4.7,10.2-12.8,12.5-14.6c2.1-1.6,4.8-2.5,6.2-2.8l34.6,17c1.1,6.2-0.9,11.9-1.5,13.6c-1.8,1.9-9.3,9.7-12.5,13.9  c-3.5,4.6-2.5,10.9-1.7,13.7l-4.2,7c-0.1,0.2-0.2,0.4-0.3,0.6c-0.2,0.7-4.9,16.2-1.1,31.9c3.8,15.5,15.5,32.1,16,32.8  c0.2,0.3,0.4,0.5,0.7,0.7c0,0,4.3,3,9.7,8.2c-2.2,3.1-4.5,6.9-5.2,10.5c-0.8,4.1,0.9,12.3,5.1,24.3c0.5,1.5,0.3,3.2-0.7,4.5  l-3.2,4.4c-1.9,2.6-2.3,5.9-1.1,8.8l5.3,13.2L173,218.3z"/></svg>