<?xml version="1.0" ?><svg data-name="Livello 1" height="48" id="Livello_1" viewBox="0 0 48 48" width="48" xmlns="http://www.w3.org/2000/svg"><defs><style>.cls-1{fill:#2da8e0;}.cls-2{fill:#299cc4;}</style></defs><title/><g id="Twitter"><path class="cls-1" d="M47.514,13l.008-.012H44.068a5.349,5.349,0,0,0,2.881-8.341.528.528,0,0,0-.459-.209v0h-4l0,0a.517.517,0,0,0-.466.315A5.376,5.376,0,0,1,40.3,6.974a26.507,26.507,0,0,0-1.416-2.381l-.006,0A9.983,9.983,0,0,0,30.869.07l-.1-.07H25.3l-.128.142a9.976,9.976,0,0,0-8.68,9.875,9.787,9.787,0,0,0,.125,1.551,9.958,9.958,0,0,1-14.33-1.113,1,1,0,0,0-1.7.307A9.921,9.921,0,0,0,.111,15.6a10.031,10.031,0,0,0,8.8,8.415c.182.02.359.019.539.028a9.982,9.982,0,0,1-8.032.426A1,1,0,0,0,.089,25.575a9.921,9.921,0,0,0,2,4.426,10.065,10.065,0,0,0,8.839,3.714A9.851,9.851,0,0,1,8.8,37.946a9.975,9.975,0,0,1-7.8,3.469,1,1,0,0,0-.876,1.49A9.932,9.932,0,0,0,9.152,47.9l0,.006q1.162.1,2.352.1c.685,0,1.362-.033,2.034-.081h0c.651.045,1.3.081,1.968.081a27.96,27.96,0,0,0,28-27.92c0-.785-.036-1.557-.094-2.322a5.312,5.312,0,0,0,4.579-4.119A.529.529,0,0,0,47.514,13ZM26.489.046c-.264,0-.523.019-.782.039C25.965.062,26.225.046,26.489.046Zm-6.1,46.508-.023.008Z"/><path class="cls-2" d="M26.489.046A9.99,9.99,0,0,1,34.875,4.6l.006,0c.071.106.132.217.2.323l0,0q.387.59.741,1.2c.122.209.235.424.351.637q.262.475.505.963c.055.112.12.219.174.332a5.342,5.342,0,0,0,1.761-.214,5.38,5.38,0,0,0,1.68-.853,26.507,26.507,0,0,0-1.416-2.381l-.006,0A9.983,9.983,0,0,0,30.869.07l-.1-.07H25.3l-.128.142A10.075,10.075,0,0,1,26.489.046Z"/><path class="cls-2" d="M47.514,13l.008-.012H44.068a5.349,5.349,0,0,0,2.881-8.341.528.528,0,0,0-.459-.209v0h-4l0,0a.529.529,0,0,1,.46.209,5.352,5.352,0,0,1-2.223,8.116,5.577,5.577,0,0,1-.776.254,5.394,5.394,0,0,0,3.35-.007.537.537,0,0,1,.687.628,5.309,5.309,0,0,1-4.579,4.119c.008.1.006.209.013.312.048.663.081,1.33.081,2.01,0,.471-.013.939-.036,1.405-.008.159-.024.315-.034.474-.021.3-.04.611-.07.914-.019.188-.046.374-.069.561-.032.269-.062.539-.1.8-.03.2-.068.4-.1.6-.043.25-.085.5-.134.747-.041.206-.09.409-.136.614-.053.237-.105.474-.164.708-.052.209-.112.415-.169.622-.062.225-.124.45-.191.673s-.135.421-.2.631-.14.425-.215.635-.159.427-.241.639-.155.4-.237.6c-.089.216-.183.43-.277.643-.084.189-.168.377-.255.563q-.155.327-.318.649-.13.262-.268.522c-.116.221-.236.439-.359.657q-.136.242-.277.479-.2.334-.4.663-.138.221-.282.438c-.147.225-.3.448-.45.668-.092.131-.185.262-.279.391-.165.228-.331.454-.5.677-.088.114-.178.227-.268.341-.185.232-.371.462-.563.688-.08.095-.162.188-.244.281-.208.239-.417.476-.633.707-.068.073-.137.143-.205.215-.235.247-.473.492-.717.73l-.141.134c-.27.26-.543.517-.824.766l-.039.034a27.921,27.921,0,0,1-16.555,6.968h0c.651.045,1.3.081,1.968.081a27.96,27.96,0,0,0,28-27.92c0-.785-.036-1.557-.094-2.322a5.312,5.312,0,0,0,4.579-4.119A.529.529,0,0,0,47.514,13Z"/></g></svg>