<?xml version="1.0" ?><svg data-name="Livello 1" height="48" id="Livello_1" viewBox="0 0 48 48" width="48" xmlns="http://www.w3.org/2000/svg"><defs><style>.cls-1{fill:#2da8e0;}.cls-2{fill:#299cc4;}.cls-3{fill:#268ca8;}.cls-4{fill:#f2f2f3;}</style></defs><title/><g id="Skype"><path class="cls-1" d="M45.89,27.622A24.111,24.111,0,0,0,46.167,24C46.167,11.85,37.138,2,26,2l-3.743.007h0A11.123,11.123,0,0,0,15.917,0h-4C5.335,0,0,5.82,0,13a13.766,13.766,0,0,0,2.11,7.378A24.111,24.111,0,0,0,1.833,24c0,12.15,9.029,22,20.167,22a18.669,18.669,0,0,0,3.32-.3A11.182,11.182,0,0,0,32.083,48a10.952,10.952,0,0,0,1.978-.194A10.9,10.9,0,0,0,36.083,48C42.665,48,48,42.18,48,35A13.766,13.766,0,0,0,45.89,27.622Z"/><path class="cls-2" d="M45.89,27.622A24.111,24.111,0,0,0,46.167,24C46.167,11.85,37.138,2,26,2l-3.743.007q.612.009,1.215.058l.1.008q.585.049,1.161.134l.041.005a18.658,18.658,0,0,1,3.531.891l.076.028q.524.191,1.032.411l.1.041a19.42,19.42,0,0,1,3.143,1.739l.034.024q.464.317.91.661l.111.086q.429.335.841.692l.073.062a21.19,21.19,0,0,1,2.5,2.61l.084.106q.336.421.652.86c.03.041.06.082.089.124.229.323.452.651.664.988h0c.3.481.59.978.859,1.487h0l.076.146h0a22.989,22.989,0,0,1,1.884,4.965h0l.03.112q.229.93.385,1.892c.007.044.015.088.021.132h0c.086.551.155,1.107.2,1.671h0c.005.053.008.106.011.159.049.626.08,1.258.08,1.9a24.111,24.111,0,0,1-.277,3.622A13.766,13.766,0,0,1,44,35c0,.427-.022.848-.059,1.265h0c-.012.141-.035.278-.052.418h0c-.033.272-.066.543-.113.809h0c-.044.244-.1.483-.159.723-.034.154-.067.309-.108.46h0c-.077.282-.167.557-.261.831-.033.1-.064.2-.1.3h0c-.067.183-.139.362-.213.541h0c-.017.04-.035.079-.052.119-.155.363-.324.718-.508,1.062-.064.117-.128.234-.2.349h0c-.112.2-.224.389-.345.576h0c-.039.061-.081.12-.122.179-.177.264-.357.524-.551.773h0c-.024.03-.048.058-.073.087A11.5,11.5,0,0,1,32.083,48h4C42.665,48,48,42.18,48,35A13.766,13.766,0,0,0,45.89,27.622Z"/><path class="cls-3" d="M38.616,11.536h0c.3.481.59.979.859,1.487l.076.146q.387.741.721,1.518c.022.052.043.1.065.158a23.047,23.047,0,0,1,1.1,3.29c.017.067.036.132.053.2.131.537.241,1.084.334,1.637.017.1.034.2.049.3q.131.825.2,1.671c.007.087.012.175.018.263.044.592.073,1.189.073,1.794a24.111,24.111,0,0,1-.277,3.622h4A24.111,24.111,0,0,0,46.167,24C46.167,11.85,37.138,2,26,2l-3.743.007A19.753,19.753,0,0,1,38.616,11.536Z"/><path class="cls-2" d="M20.57,2.066C21.042,2.025,21.518,2,22,2c.086,0,.171.006.256.007A11.123,11.123,0,0,0,15.917,0h-4A11.182,11.182,0,0,1,18.68,2.3C19.3,2.19,19.932,2.117,20.57,2.066Z"/><path class="cls-4" d="M22.616,21.038c-4.728-1.2-5.709-3.043-5.572-3.905.111-.232.074-.085.087-.393.047-.229.579-2.242,4.869-2.242,4.307,0,4.857,2.029,4.893,2.175a2.2,2.2,0,0,0,2.2,2.2h.563a2.2,2.2,0,0,0,2.2-2.2v-.638C31.562,13.774,29.128,9.5,22,9.5c-6.9,0-9.379,4-9.785,6.32a6.39,6.39,0,0,0,.636,4.619c1.353,2.519,4.224,4.351,8.533,5.446,6.328,1.609,6.328,2.619,6.329,4.292a2.821,2.821,0,0,1-.827,1.962c-.925.932-2.614,1.426-4.886,1.426-5.369,0-5.8-2.231-5.831-2.556h0A2.411,2.411,0,0,0,13.758,28.6h-.177a2.412,2.412,0,0,0-2.412,2.411v.067a6.768,6.768,0,0,0,2.075,4.595c1.917,1.92,4.863,2.894,8.756,2.894,3.687,0,6.526-.978,8.437-2.906a7.855,7.855,0,0,0,2.276-5.483C32.712,25.816,31.15,23.207,22.616,21.038Z"/></g></svg>