<?xml version="1.0" ?><svg data-name="Livello 1" height="48" id="Livello_1" viewBox="0 0 48 48" width="48" xmlns="http://www.w3.org/2000/svg"><defs><style>.cls-1{fill:#40a5a8;}.cls-2{fill:#378c8c;}.cls-3{fill:#f2f2f3;}</style></defs><title/><g id="Shazam"><circle class="cls-1" cx="24" cy="24" r="24"/><path class="cls-2" d="M24,0c-.35,0-.7.012-1.043.026C34.663.573,44,11.1,44,24S34.663,47.427,22.957,47.974C23.3,47.988,23.65,48,24,48A24,24,0,0,0,24,0Z"/><path class="cls-3" d="M26.43,39.9A2,2,0,0,1,25,36.5l5.619-5.74a6.573,6.573,0,1,0-9.281-9.311l-2.166,2.093A2,2,0,1,1,16.4,20.667L18.536,18.6A10.572,10.572,0,0,1,33.463,33.575l-5.6,5.726A2,2,0,0,1,26.43,39.9Z"/><path class="cls-3" d="M18.021,32.472a10.571,10.571,0,0,1-7.484-18.047l5.6-5.726A2,2,0,1,1,19,11.5l-5.619,5.74a6.573,6.573,0,1,0,9.281,9.311l2.166-2.093a2,2,0,1,1,2.778,2.877L25.464,29.4A10.492,10.492,0,0,1,18.021,32.472Z"/></g></svg>