<?xml version="1.0" ?><!DOCTYPE svg  PUBLIC '-//W3C//DTD SVG 1.1//EN'  'http://www.w3.org/Graphics/SVG/1.1/DTD/svg11.dtd'><svg enable-background="new 0 0 512 512" height="512px" id="Layer_1" version="1.1" viewBox="0 0 512 512" width="512px" xml:space="preserve" xmlns="http://www.w3.org/2000/svg" xmlns:xlink="http://www.w3.org/1999/xlink"><path d="M504.169,224.177c0,0-45.7-2.731-62.237-8.906c-0.824-3.887-1.713-7.575-2.639-10.938  c-12.593-46.356-66.225-81.825-111.462-77.312c-16.112-12.951-0.593-26.731,0-32c-42.675,5.325-57.662,72.237-74.8,117.612  c-13.463-13.062-25.425-23.362-36.112-29.1c-30.031-16.087-65.956-37.899-122.3-58.856c-1.731,18.656-1.125,159.5,105.688,198.396  C149.544,375.596,53.8,362.908,7.831,319.021c120.031,163.736,396.619,105.594,435.488-52.095  C472.481,267.158,504.169,224.177,504.169,224.177z" fill="#1D1D1B"/></svg>