<?xml version="1.0" ?><!DOCTYPE svg  PUBLIC '-//W3C//DTD SVG 1.1//EN'  'http://www.w3.org/Graphics/SVG/1.1/DTD/svg11.dtd'><svg enable-background="new 0 0 512 512" height="512px" id="Layer_1" version="1.1" viewBox="0 0 512 512" width="512px" xml:space="preserve" xmlns="http://www.w3.org/2000/svg" xmlns:xlink="http://www.w3.org/1999/xlink"><g><path d="M232,165.194c-3.426-6-7.625-10.975-12.637-14.938c-5.02-3.957-10.832-5.938-17.439-5.938   c-4.268,0-8.437,0.963-12.486,2.881c-4.05,1.925-7.363,4.506-9.926,7.707c-2.762,3.438-4.637,7.169-5.588,11.25   c-0.975,4.062-1.438,8.237-1.438,12.525c0,5.35,0.795,11.337,2.389,17.981c1.611,6.644,4.062,12.837,7.362,18.619   c3.313,5.782,7.462,10.663,12.481,14.606c5.02,3.956,10.938,5.944,17.768,5.944c4.045,0,8.045-0.863,12-2.562   c3.938-1.719,7.201-3.857,9.751-6.418c3.625-3.651,5.874-7.707,6.712-12.213c0.863-4.5,1.288-8.243,1.288-11.25   c0-5.768-0.85-12.081-2.55-18.937C237.969,177.6,235.406,171.194,232,165.194z M221.594,287.352h-4   c-0.645,0-2.125,0.062-4.469,0.168c-2.363,0.101-5.125,0.312-8.325,0.638c-3.206,0.319-6.612,0.851-10.237,1.601   c-3.625,0.749-7.156,1.655-10.562,2.719c-1.701,0.649-4.113,1.655-7.2,3.024c-3.101,1.375-6.125,3.375-9.112,5.938   c-3,2.531-5.613,5.756-7.844,9.6c-2.25,3.838-3.357,8.619-3.357,14.4c0,11.5,5.064,20.906,15.201,28.162   c10.125,7.25,23.824,10.875,41.112,10.875c15.356,0,27.044-3.25,35.044-9.756c8-6.531,12-14.775,12-24.807   c0-4.068-0.721-7.727-2.095-11.038c-1.375-3.306-3.438-6.558-6.25-9.78c-2.75-3.182-6.375-6.5-10.863-9.9   c-4.48-3.412-9.699-7.25-15.688-11.519C223.688,287.456,222.562,287.352,221.594,287.352z M256,0C114.612,0,0,114.612,0,256   c0,141.382,114.612,256,256,256c141.375,0,256-114.618,256-256C512,114.612,397.375,0,256,0z M254.406,151.2   c2.531,2.457,5,5.463,7.344,8.982c2.344,3.524,4.375,7.631,6.094,12.331c1.688,4.712,2.562,10.044,2.562,16.019   c0,5.981-0.75,11.226-2.25,15.706c-1.5,4.481-3.531,8.481-6.094,12.019c-2.563,3.525-5.438,6.731-8.625,9.606   c-3.2,2.887-6.5,5.606-9.926,8.168c-2.124,2.15-4.148,4.375-6.074,6.738c-1.926,2.35-2.875,5.343-2.875,8.968   s0.949,6.469,2.875,8.481c1.926,2.038,3.737,3.8,5.438,5.3l11.531,8.977c3.406,2.975,6.781,5.98,10.062,8.975   c3.312,2.981,6.188,6.188,8.655,9.594c2.438,3.443,4.407,7.281,5.907,11.531c1.5,4.281,2.25,9.188,2.25,14.758   c0,7.469-1.812,14.836-5.438,22.117c-3.626,7.25-8.969,13.727-16,19.383c-7.031,5.654-15.844,10.242-26.406,13.78   c-10.562,3.524-22.676,5.281-36.312,5.281c-11.531,0-21.613-1.281-30.25-3.845c-8.638-2.568-15.825-5.969-21.594-10.226   c-5.77-4.274-10.031-9.125-12.795-14.562c-2.787-5.438-4.174-11.15-4.174-17.125c0-5.75,1.762-12.312,5.281-19.682   c3.531-7.382,9.969-13.812,19.355-19.351c4.913-2.994,10.188-5.399,15.851-7.212c5.649-1.812,11.25-3.25,16.794-4.312   c5.543-1.088,10.781-1.818,15.688-2.25c4.906-0.42,9.168-0.738,12.793-0.957c-2.336-2.98-4.523-6.131-6.562-9.437   c-2.024-3.313-3.025-7.407-3.025-12.325c0-2.769,0.313-5.062,0.951-6.875c0.637-1.812,1.388-3.682,2.25-5.6   c-1.719,0.212-3.426,0.375-5.125,0.475c-1.719,0.113-3.426,0.168-5.125,0.168c-8.531,0-16.113-1.45-22.719-4.325   c-6.607-2.875-12.156-6.663-16.645-11.356c-4.48-4.694-7.887-10.082-10.23-16.162c-2.356-6.081-3.531-12.212-3.531-18.4   c0-7.463,1.719-14.987,5.125-22.562c3.406-7.569,8.531-14.35,15.362-20.319c9.169-7.469,18.825-12.263,28.963-14.406   c10.124-2.125,19.562-3.194,28.312-3.194H288l-20.469,11.194h-19.844C249.594,146.769,251.844,148.75,254.406,151.2z    M384.062,261.488H347.75v36.455h-11.5v-36.455h-36.5V249.95h36.5v-35.9h11.5v35.9h36.312V261.488z" fill="#1D1D1B"/></g></svg>