<?xml version="1.0" ?><!DOCTYPE svg  PUBLIC '-//W3C//DTD SVG 1.1//EN'  'http://www.w3.org/Graphics/SVG/1.1/DTD/svg11.dtd'><svg enable-background="new 0 0 512 512" height="512px" id="Layer_1" version="1.1" viewBox="0 0 512 512" width="512px" xml:space="preserve" xmlns="http://www.w3.org/2000/svg" xmlns:xlink="http://www.w3.org/1999/xlink"><g><path d="M256,0C114.612,0,0,114.612,0,256c0,141.388,114.612,256,256,256c141.388,0,256-114.612,256-256   C512,114.612,397.388,0,256,0z M256,448c-105.875,0-192-86.125-192-192S150.125,64,256,64s192,86.125,192,192S361.875,448,256,448z    M353.25,227.7c-7.031-25.856-31.138-46.7-56.375-44.188c-9-7.231-1.5-18.062-1.175-21c-23.825,2.975-36.825,44.5-46.4,69.832   c-7.499-7.294-14.188-13.031-20.144-16.231c-16.77-8.987-36.812-18.375-68.25-30.062c-0.969,10.4-0.625,86.213,58.98,107.92   c-28.324,29.33-73.023,27.144-98.668,2.644c66.969,91.375,212.595,54.024,234.281-33.976c16.281,0.125,33.95-23.838,33.95-23.838   s-25.5-1.537-34.713-4.987C354.263,231.638,353.763,229.593,353.25,227.7z" fill="#1D1D1B"/></g></svg>