<?xml version="1.0" ?><!DOCTYPE svg  PUBLIC '-//W3C//DTD SVG 1.1//EN'  'http://www.w3.org/Graphics/SVG/1.1/DTD/svg11.dtd'><svg enable-background="new 0 0 512 512" height="512px" id="Layer_1" version="1.1" viewBox="0 0 512 512" width="512px" xml:space="preserve" xmlns="http://www.w3.org/2000/svg" xmlns:xlink="http://www.w3.org/1999/xlink"><g><path d="M256,0C114.609,0,0,114.612,0,256c0,141.374,114.609,256,256,256c141.375,0,256-114.626,256-256   C512,114.612,397.375,0,256,0z M256,448c-105.875,0-192-86.125-192-192S150.125,64,256,64s192,86.125,192,192S361.875,448,256,448z    M167.328,180c-41.969,0-76,34.031-76,76s34.031,76,76,76c41.969,0,76-34.031,76-76S209.297,180,167.328,180z M344.656,180   c-41.969,0-75.984,34.031-75.984,76s34.016,76,75.984,76c42,0,76-34.031,76-76S386.656,180,344.656,180z" fill="#1D1D1B"/></g></svg>