<?xml version="1.0" ?><svg id="Capa_1" style="enable-background:new 0 0 200 200;" version="1.1" viewBox="0 0 200 200" xml:space="preserve" xmlns="http://www.w3.org/2000/svg" xmlns:xlink="http://www.w3.org/1999/xlink"><style type="text/css">
	.st0{fill:#CAD568;}
	.st1{opacity:0.55;fill:#9FA34F;}
	.st2{fill:#D7D7D7;}
	.st3{opacity:0.1;fill:#636363;}
	.st4{fill:#EFEFEE;}
	.st5{fill:#BA6363;}
	.st6{opacity:0.55;fill:#924B4B;}
	.st7{fill:#FFFFFF;}
	.st8{fill:#A5639D;}
	.st9{opacity:0.55;fill:#8F4B8F;}
	.st10{fill:#78A7CA;}
	.st11{fill:#6188AE;}
	.st12{opacity:0.45;fill:#6A84B4;}
	.st13{fill:#62A99D;}
	.st14{opacity:0.55;fill:#498980;}
	.st15{fill:#E1D64F;}
	.st16{fill:#D2CB4D;}
	.st17{opacity:0.55;fill:#AFA747;}
	.st18{fill:#5D6BA2;}
	.st19{opacity:0.55;fill:#464781;}
	.st20{fill:#63A460;}
	.st21{opacity:0.55;fill:#4E894A;}
	.st22{fill:#BD7E34;}
	.st23{opacity:0.55;fill:#985B1E;}
	.st24{fill:#ACC567;}
	.st25{opacity:0.55;fill:#799B4F;}
	.st26{fill:#C23C3F;}
	.st27{opacity:0.55;fill:#6D191B;}
</style><g><g><path class="st10" d="M162.2,61.6l35.3,40.2c0-0.7,0-1.4,0-2.1c0-53.9-43.7-97.6-97.6-97.6S2.3,45.8,2.3,99.7    c0,49.6,37,90.6,85,96.8l-47.9-54.6L162.2,61.6z"/><path class="st11" d="M197.5,101.8l-35.3-40.2L39.4,141.9l47.9,54.6c4.1,0.5,8.3,0.8,12.6,0.8    C153.1,197.3,196.4,154.8,197.5,101.8z"/><path class="st12" d="M197.5,101.8l-35.3-40.2L39.4,141.9l47.9,54.6c4.1,0.5,8.3,0.8,12.6,0.8    C153.1,197.3,196.4,154.8,197.5,101.8z"/></g><g><rect class="st2" height="80.3" width="122.8" x="39.4" y="61.6"/><polygon class="st3" points="39.4,141.9 100.8,87.7 162.2,141.9   "/><polygon class="st4" points="39.4,61.6 100.8,124.2 162.2,61.6   "/></g><circle class="st11" cx="162.3" cy="108.5" r="12"/><g><path class="st7" d="M162.3,115.6c-3.8,0-6.9-3.1-6.9-6.9s3.1-6.9,6.9-6.9c3.8,0,6.9,3.1,6.9,6.9S166.1,115.6,162.3,115.6z     M162.3,104.6c-2.3,0-4.1,1.8-4.1,4.1s1.8,4.1,4.1,4.1c2.3,0,4.1-1.8,4.1-4.1S164.5,104.6,162.3,104.6z"/><rect class="st7" height="5.6" transform="matrix(0.6518 -0.7584 0.7584 0.6518 -28.2857 167.1883)" width="2.8" x="166.5" y="111.6"/></g><circle class="st7" cx="163.3" cy="106.7" r="0.6"/></g></svg>