<?xml version="1.0" ?><!DOCTYPE svg  PUBLIC '-//W3C//DTD SVG 1.1//EN'  'http://www.w3.org/Graphics/SVG/1.1/DTD/svg11.dtd'><svg enable-background="new 0 0 512 512" id="Layer_1" version="1.1" viewBox="0 0 512 512" xml:space="preserve" xmlns="http://www.w3.org/2000/svg" xmlns:xlink="http://www.w3.org/1999/xlink"><circle cx="256" cy="256" id="ellipse" r="256"/><path d="M415.8,154.7c0,0-49.6,0-66.2,0l-4.7,0.8v6.4c0,0.7,2.3,1.4,2.9,1.8c0.6,0.5,2.2,0.8,2.9,0.8  l6,0.3c6.8,0.3,8.9,1.8,11.5,4.3c2.6,2.6,3,7,1,13.1l-58.5,152.6l-2.2-0.7l-37.1-83.5c0.5-1.3,0.9-2,0.9-2l30.4-62.5  c3.5-6.6,7-12.5,8.7-15.2c3.2-5,4.7-6,13.4-6.4c1.8,0,2.4-0.9,2.4-2.6v-6.3l-0.4-0.7c0,0-36.4-0.1-52.9,0v0.7v6.3  c0,0.8-0.4,1.4,0.2,1.9s0.9,0.8,1.6,0.8l2.5,0.3c6.8,0.3,9.8,2.3,10.7,3.5c1.6,2.2,2.4,4.5-1.5,13.9L264,233.6L242.8,186  c-6.9-15.2-8.7-19.9,1.8-20.8l2.8-0.7c2,0,1.7-0.8,1.7-2.3v-6.6l-0.2-0.5c0,0-38.8,0-56.4,0l-0.2,0.7v6.7c0,1.5,1.5,1.9,4.2,2.3  c9.8,1.4,9.6,2.5,19.3,23.6c1.4,3.2,5.7,12.7,5.7,12.7l22.1,47.6c0,0,2.5,6.1,6.4,15.6l-32.1,70.3l-1.8-0.5  c0,0-49.7-115.3-64.1-153.8c-1.5-4-2.2-6.9-2.2-8.8c0-3.9,3.2-6,9.6-6.3l9.8-0.4c2,0,5.3-0.8,5.3-2.6v-6.3l-2.9-0.7  c0,0-60.9-0.1-73.3,0l-2,0.7v6.7c0,1.2,1.6,1.9,4.4,2.3c7.6,0.5,12.7,1.8,15,4c2.4,2.2,5,7.9,8.3,16.7  c18.1,47.7,56.5,132.9,75.3,181.4c5.4,13.2,12.2,15.3,20.4-0.4c8.5-17.2,25.5-55.5,38-83.7c11.6,28.2,27.5,66.3,35.1,83.6  c6.1,13.8,13,15.2,20.1,0.4c18.4-45,72.2-180.4,72.2-180.4c2.3-6.6,5.6-11.8,9.8-15.5c4.2-3.7,10.3-5.7,19-6.2  c1.8,0,2.4-0.9,2.4-2.6v-6.4L415.8,154.7L415.8,154.7z" fill="#FFFFFF" id="logo"/></svg>