<?xml version="1.0" ?><!DOCTYPE svg  PUBLIC '-//W3C//DTD SVG 1.1//EN'  'http://www.w3.org/Graphics/SVG/1.1/DTD/svg11.dtd'><svg enable-background="new 0 0 512 512" id="Layer_1" version="1.1" viewBox="0 0 512 512" xml:space="preserve" xmlns="http://www.w3.org/2000/svg" xmlns:xlink="http://www.w3.org/1999/xlink"><circle cx="256" cy="256" fill="#0077B5" id="ellipse" r="256"/><g id="logo"><path d="M212.7,202c-21.1,0-38.6,16.4-38.6,36.3s17.6,36.3,38.6,36.3c21.1,0,38.6-16.4,38.6-36.3   C251.3,218.4,234.9,202,212.7,202z" fill="#FFFFFF"/><path d="M302.8,202c-21.1,0-38.6,16.4-38.6,36.3s17.6,36.3,38.6,36.3c21.1,0,38.6-16.4,38.6-36.3   C341.5,218.4,323.9,202,302.8,202z" fill="#FFFFFF"/><path d="M401.2,259.4c-1.2,0.8-2.3,1.6-3.5,2.4V137.6c0-17.6-12.9-31.6-29.3-31.6H143.6c-16.4,0-29.3,14-29.3,31.6   v124.2c-1.2-0.8-2.3-1.6-3.5-2.4c-9.4-7-16.4,2.3-10.5,10.5c11.7,14,32.8,31.6,66.7,44.5c-35.1,119.4,85.5,139.3,84.3,77.3   c0-1.2,0-35.7,0-60.2c0.4,0.2,0.8,0.4,1.2,0.5c3,0.8,5.7,1.5,8.2,2.2c0,24.3,0,56.4,0,57.5c-1.2,62,119.4,42.1,84.3-77.3   c34-12.9,55-30.4,66.7-44.5C417.6,261.7,410.5,252.4,401.2,259.4z M281.8,289.8c-15.1-1.1-20.3,4.8-21,14.9c-3.5-2.6-7-5.6-10.6-9   c-4.3-3.9-7.4-5.4-9.4-5.2c-2.8-0.7-6.2-1-10.5-0.7c-20.2,1-55.9,4.6-98.3-17.6V151.7c0-22.2,5.9-28.1,25.8-28.1h199   c18.7,0,25.8,8.2,25.8,28.1V271C339,294.6,302.3,290.8,281.8,289.8z" fill="#FFFFFF"/></g></svg>