<?xml version="1.0" ?><!DOCTYPE svg  PUBLIC '-//W3C//DTD SVG 1.1//EN'  'http://www.w3.org/Graphics/SVG/1.1/DTD/svg11.dtd'><svg enable-background="new 0 0 512 512" id="Layer_1" version="1.1" viewBox="0 0 512 512" xml:space="preserve" xmlns="http://www.w3.org/2000/svg" xmlns:xlink="http://www.w3.org/1999/xlink"><circle cx="256" cy="256" id="ellipse" r="256"/><path d="M149,242.9l96.1-96.7c24.1-24.3,63.2-24.3,87.3,0c5.8,6.1,5.5,15.9-0.4,21.9  c-6,6.1-15.8,6.1-21.8,0l-1.5-1.7c-12.1-10.3-30.3-9.8-41.8,1.8L168.7,267c-6.5,6-16.2,6-22.3-0.1c-6-6.1-6-15.9,0-22  C147.2,244.1,148.1,243.5,149,242.9L149,242.9z M364.7,245c-6-6.1-15.8-6.1-21.8,0c-0.8,0.8-1.5,1.7-2.1,2.6l-95.7,96.3  c-12.1,12.1-31.6,12.1-43.7,0l-0.4-0.1c-6-6.1-15.8-6.1-21.8,0s-6,15.9,0,22c0.8,0.8,1.6,1.5,2.5,2c24.2,22.3,61.9,21.6,85.3-2  l97.8-98.9C370.8,260.9,370.8,251,364.7,245L364.7,245z M214.5,308.7c-0.9,0.6-1.8,1.3-2.6,2.1c-6,6.1-6,15.9,0,22  s15.8,6.1,22.3,0.1l98.2-98.8c12.1-12.1,31.6-12.1,43.7,0s12.1,31.8,0,43.9l-93.2,94.1c12.1,12.1,31.6,12.1,43.7,0l71.3-72.2  c24.1-24.3,24.1-63.6,0-87.9c-24.1-24.2-63.2-24.2-87.3,0L214.5,308.7L214.5,308.7z M201.4,299.9l97.8-98.9c6-6.1,6-15.9,0-22  s-15.8-6.1-21.8,0c-0.8,0.8-1.5,1.7-2.1,2.6L179.6,278c-12.1,12.1-31.6,12.1-43.7,0s-12.1-31.8,0-43.9l93.2-94.1  c-12.1-12.1-31.6-12.1-43.7,0l-71.3,72.2c-24.1,24.3-24.1,63.6,0,87.9C138.2,324.2,177.3,324.2,201.4,299.9L201.4,299.9z" fill="#FFFFFF" id="logo"/></svg>