<?xml version="1.0" ?><!DOCTYPE svg  PUBLIC '-//W3C//DTD SVG 1.1//EN'  'http://www.w3.org/Graphics/SVG/1.1/DTD/svg11.dtd'><svg enable-background="new 0 0 512 512" id="Layer_1" version="1.1" viewBox="0 0 512 512" xml:space="preserve" xmlns="http://www.w3.org/2000/svg" xmlns:xlink="http://www.w3.org/1999/xlink"><circle cx="256" cy="256" fill="#1E5397" id="ellipse" r="256"/><g id="logo"><g><path d="M277.8,435.6c0-0.6,0-1.1,0-1.6c0-17.4,0-34.8,0-52.2c0-1.4-0.2-1.9-1.8-1.9c-35.8,0-71.6,0.1-107.3,0    c-18-0.1-30.8-8.7-38.6-24.6c-2.8-5.7-3.9-11.8-3.8-18.2c0-3.9,0-7.9,0-11.8c0-1.2,0.3-1.4,1.6-1.4c8.4,0,16.7,0,25,0    c77,0,153.8,0,230.8,0c2.1,0,2.2,0,2.1,2.1c-0.1,5.5,0.4,10.9-0.2,16.3c-1.9,15.2-9.6,26.4-23.2,33.5c-5.7,3-11.9,4.1-18.4,4.2    c-3.3,0-6.8,0-10.1,0c-1,0-1.8,0.3-2.5,1.1c-17.3,17.8-34.6,35.7-51.9,53.5c-0.4,0.4-0.7,1-1,1.4    C278.1,435.9,277.9,435.7,277.8,435.6z" fill="#FFFFFF"/><path d="M255,172.1c-42.3,0-84.4,0-126.7,0c-2.1,0-2.1,0-2.1-2.1c0-4.3-0.1-8.6,0-12.9c0.7-17.6,11.6-33,28.3-38.9    c4.3-1.6,8.9-2.1,13.5-2.1c58.3,0,116.8,0,175.1,0c11.5,0,21.2,4.2,29.1,12.6c6.5,6.9,10.3,15.2,11.3,24.8    c0.7,5.9,0.1,11.8,0.3,17.6c0,0.8-0.2,1.2-1.1,1.1c-0.4,0-0.8,0-1.2,0C339.3,172.1,297.2,172.1,255,172.1z" fill="#FFFFFF"/><path d="M255,308.6c-42.4,0-84.7,0-127,0c-1.3,0-1.8-0.2-1.8-1.8c0.1-16.5,0.1-33.1,0-49.6c0-1.3,0.3-1.7,1.7-1.7    c84.8,0,169.5,0,254.3,0c1.3,0,1.7,0.2,1.7,1.7c0,16.6,0,33.2,0,49.7c0,1.3-0.3,1.7-1.7,1.7C339.8,308.6,297.4,308.6,255,308.6z" fill="#FFFFFF"/><path d="M255.1,240c-42.3,0-84.5,0-126.8,0c-2,0-2,0-2-2c0-16.4,0-32.9,0-49.3c0-1.2,0.2-1.7,1.7-1.7    c84.8,0,169.5,0,254.3,0c1.2,0,1.7,0.2,1.7,1.6c-0.1,16.6-0.1,33.2,0,49.7c0,1.3-0.4,1.6-1.7,1.6C339.8,240,297.5,240,255.1,240z" fill="#FFFFFF"/></g></g></svg>