<?xml version="1.0" ?><!DOCTYPE svg  PUBLIC '-//W3C//DTD SVG 1.1//EN'  'http://www.w3.org/Graphics/SVG/1.1/DTD/svg11.dtd'><svg enable-background="new 0 0 512 512" id="Layer_1" version="1.1" viewBox="0 0 512 512" xml:space="preserve" xmlns="http://www.w3.org/2000/svg" xmlns:xlink="http://www.w3.org/1999/xlink"><circle cx="256" cy="256" fill="#7EB900" id="ellipse" r="256"/><path d="M259.2,99.2c-17.8-0.3-35.8,2.3-52.4,7.6c-14.5,4.7-27.2,9.7-28.1,11.2c-0.9,1.5,8.8,5.5,21.6,9  c12.8,3.5,30.1,10.4,38.3,15.2c18.7,11.1,18,11,32.6,2c16.7-10.3,58.4-23,68-20.7c4.3,1-2.9-3.3-15.9-9.7  C304.5,104.6,282.1,99.6,259.2,99.2z M360.1,135.2l-13.7,7.4c-7.6,4.1-22.3,15.1-32.5,24.6l-18.6,17.1l20.8,26  c43.1,53.6,66.9,99.6,67.3,130l0.2,14.5l10.9-16.3c16.8-25.1,22.8-50.8,21.3-90.6c-1.1-29.7-2.9-37.8-13.2-58.7  c-6.6-13.3-18.8-30.9-27.1-39.1L360.1,135.2L360.1,135.2z M155.6,137.5c-2.9-0.1-5.5,1.2-9.7,4c-11.7,7.7-33.3,40.5-42.5,64.6  c-14.8,38.9-6.7,98.8,18,135.1c9.8,14.3,11.9,15.8,8.8,5.8c-6.3-19.8,26.1-84.9,68.2-137l21.1-25.9l-19.7-17.5  c-10.8-9.6-25.2-20.6-32.2-24.3C161.8,139.1,158.5,137.6,155.6,137.5L155.6,137.5z M256,219l-26.5,23  c-47.1,40.7-90.2,95.7-90.2,115.4c0,14.7,42.4,41.9,80.4,51.6c40.5,10.3,97.3-0.8,132-25.7c28.8-20.7,29.6-28,8-60.7  c-13.4-20.2-73-82.1-91.7-95.1L256,219L256,219z" fill="#FFFFFF" id="logo"/></svg>