<?xml version="1.0" ?><!DOCTYPE svg  PUBLIC '-//W3C//DTD SVG 1.1//EN'  'http://www.w3.org/Graphics/SVG/1.1/DTD/svg11.dtd'><svg enable-background="new 0 0 1000 1000" id="Layer_1" version="1.1" viewBox="0 0 1000 1000" xml:space="preserve" xmlns="http://www.w3.org/2000/svg" xmlns:xlink="http://www.w3.org/1999/xlink"><g><g><g><path d="M500,789c-77.2,0-149.8-30.1-204.4-84.6C241.1,649.8,211,577.2,211,500s30.1-149.8,84.6-204.4      C350.2,241.1,422.8,211,500,211c77.2,0,149.8,30.1,204.4,84.6C758.9,350.2,789,422.8,789,500s-30.1,149.8-84.6,204.4      C649.8,758.9,577.2,789,500,789z M500,251c-137.3,0-249,111.7-249,249s111.7,249,249,249s249-111.7,249-249S637.3,251,500,251z"/></g><g><rect height="76.9" transform="matrix(0.2602 -0.9655 0.9655 0.2602 -101.6969 667.2667)" width="40" x="364.6" y="361.6"/></g><g><rect height="40" transform="matrix(0.9656 -0.2602 0.2602 0.9656 -82.8839 173.9081)" width="76.9" x="577" y="380"/></g><g><path d="M652.5,615c-26.7,0-41-12.8-51.4-22.1c-8.6-7.7-13.4-11.9-24.8-11.9c-11.4,0-16.2,4.2-24.8,11.9      C541,602.2,526.7,615,500,615c-26.7,0-41-12.8-51.4-22.1c-8.6-7.7-13.4-11.9-24.8-11.9c-11.4,0-16.2,4.2-24.8,11.9      c-10.4,9.3-24.8,22.1-51.4,22.1v-40c11.4,0,16.2-4.2,24.8-11.9c10.4-9.3,24.8-22.1,51.4-22.1c26.7,0,41,12.8,51.4,22.1      c8.6,7.7,13.4,11.9,24.8,11.9c11.4,0,16.2-4.2,24.8-11.9c10.4-9.3,24.8-22.1,51.4-22.1c26.7,0,41,12.8,51.4,22.1      c8.6,7.7,13.4,11.9,24.8,11.9V615z"/></g></g></g></svg>