<?xml version="1.0" ?><!DOCTYPE svg  PUBLIC '-//W3C//DTD SVG 1.1//EN'  'http://www.w3.org/Graphics/SVG/1.1/DTD/svg11.dtd'><svg enable-background="new 0 0 1000 1000" id="Layer_1" version="1.1" viewBox="0 0 1000 1000" xml:space="preserve" xmlns="http://www.w3.org/2000/svg" xmlns:xlink="http://www.w3.org/1999/xlink"><g><g><g><path d="M500.1,789c-1.9,0-3.7,0-5.6-0.1c-77.2-1.5-149.2-32.9-202.7-88.5c-53.5-55.6-82.2-128.7-80.8-205.9      c1.5-77.2,32.9-149.2,88.5-202.7c55.6-53.5,128.7-82.2,205.9-80.8c77.2,1.5,149.2,32.9,202.7,88.5      c53.5,55.6,82.2,128.7,80.8,205.9c-1.5,77.2-32.9,149.2-88.5,202.7C646.2,760.4,575.3,789,500.1,789z M499.9,251      C364.8,251,253.6,359.6,251,495.3c-1.3,66.5,23.5,129.5,69.6,177.4c46.1,47.9,108.2,75,174.7,76.2c1.6,0,3.2,0,4.8,0      c135.1,0,246.3-108.6,248.9-244.3c1.3-66.5-23.5-129.5-69.6-177.4c-46.1-47.9-108.2-75-174.7-76.2      C503.1,251,501.5,251,499.9,251z"/></g><g><rect height="40" transform="matrix(0.9703 -0.2419 0.2419 0.9703 -84.7711 105.3354)" width="76.9" x="348.1" y="377.8"/></g><g><rect height="76.9" transform="matrix(0.2784 -0.9605 0.9605 0.2784 59.1052 883.0712)" width="40" x="597.3" y="363.8"/></g><g><path d="M500,694.8c-54.2,0-98.3-44.1-98.3-98.3h40c0,32.1,26.1,58.3,58.3,58.3s58.3-26.1,58.3-58.3h40      C598.3,650.7,554.2,694.8,500,694.8z"/></g></g></g></svg>