<?xml version="1.0" ?><svg id="Layer_1" style="enable-background:new 0 0 30 30;" version="1.1" viewBox="0 0 30 30" xml:space="preserve" xmlns="http://www.w3.org/2000/svg" xmlns:xlink="http://www.w3.org/1999/xlink"><g><circle cx="16.904" cy="6.721" r="0.056"/><circle cx="13.049" cy="6.721" r="0.056"/><path d="M29.677,8c-0.859-1.29-5.561-0.143-5.606-0.13c-1.381,0.364-4.87,1.496-6.178,1.924V9.61   c-0.006-0.277-0.059-0.527-0.144-0.758l0.88-0.688c0.056-0.043,0.097-0.103,0.118-0.17c0.089-0.283,0.205-0.746,0.259-0.965   l0.964-0.737c0.153-0.117,0.183-0.337,0.065-0.49s-0.337-0.184-0.491-0.065L18.48,6.548c-0.063,0.049-0.109,0.119-0.128,0.197   c0,0.002-0.133,0.563-0.243,0.936l-0.727,0.568c-0.046-0.052-0.086-0.108-0.139-0.156c-0.02-0.018-0.043-0.03-0.064-0.047   c0.425-0.228,0.719-0.671,0.719-1.186c0-0.745-0.606-1.35-1.351-1.35h-0.345c0.095-0.77,0.745-1.37,1.54-1.37   c0.221,0,0.4-0.179,0.4-0.4s-0.18-0.4-0.4-0.4c-1.236,0-2.242,0.959-2.34,2.17h-0.562c-0.099-1.211-1.104-2.17-2.341-2.17   c-0.221,0-0.4,0.179-0.4,0.4s0.179,0.4,0.4,0.4c0.795,0,1.446,0.6,1.541,1.37h-0.591c-0.745,0-1.35,0.605-1.35,1.35   c0,0.516,0.301,0.951,0.728,1.178c-0.024,0.02-0.05,0.034-0.073,0.054c-0.045,0.041-0.079,0.09-0.119,0.134l-0.68-0.532   c-0.11-0.373-0.243-0.933-0.243-0.935c-0.019-0.079-0.064-0.148-0.128-0.197l-1.063-0.813c-0.155-0.119-0.374-0.089-0.49,0.065   c-0.118,0.153-0.088,0.373,0.065,0.49l0.964,0.737c0.053,0.219,0.169,0.683,0.259,0.965c0.021,0.067,0.063,0.127,0.118,0.17   l0.823,0.643c-0.093,0.239-0.147,0.503-0.153,0.795l0.001,0.176c-1.306-0.427-4.798-1.56-6.179-1.925   C5.883,7.857,1.185,6.709,0.323,8C0.063,8.388,0.156,8.88,0.6,9.461c0.972,1.274,1.78,2.183,4.799,4.058   c0.576,0.357,1.191,0.669,1.942,0.669c0.861,0,1.9-0.41,3.26-1.632c0.322-0.289,1.001-0.929,1.51-1.412   c0.019,0.155,0.077,0.35,0.229,0.533c0.051,0.061,0.115,0.111,0.179,0.161l-2.264,1.228c-0.097,0.053-0.164,0.148-0.18,0.258   L9.849,14.91l-1.627,0.968c-0.167,0.099-0.221,0.313-0.122,0.479c0.065,0.11,0.182,0.171,0.301,0.171   c0.061,0,0.123-0.016,0.178-0.049l1.771-1.054c0.091-0.054,0.153-0.146,0.168-0.251l0.225-1.576l0.978-0.53   c-0.404,0.635-0.711,1.344-0.898,2.083c0,0,0,0.001-0.001,0.002c-0.005,0.021-0.015,0.04-0.02,0.06   c-0.223,0.922-0.256,1.893-0.111,2.887c0,0.003-0.002,0.006-0.002,0.009c0,0.008,0.004,0.015,0.005,0.024   c-0.213,0.463-0.966,1.977-2.414,3.695c-0.125,0.147-0.106,0.368,0.042,0.493c0.065,0.056,0.146,0.082,0.226,0.082   c0.1,0,0.198-0.042,0.268-0.124c0.996-1.181,1.664-2.251,2.077-2.997c0.312,1.664,0.694,3.284,1.212,4.582   c0.001,0.003,0.002,0.005,0.003,0.008c0.663,1.658,1.548,2.789,2.8,2.789c1.211,0,2.077-1.099,2.746-2.76   c0.013-0.025,0.023-0.05,0.031-0.078c0.503-1.275,0.893-2.868,1.23-4.559c0.412,0.747,1.083,1.825,2.087,3.015   c0.069,0.082,0.168,0.124,0.268,0.124c0.08,0,0.16-0.026,0.226-0.082c0.147-0.125,0.167-0.346,0.042-0.493   c-1.448-1.717-2.2-3.23-2.414-3.694c0.001-0.009,0.005-0.016,0.005-0.025c0-0.005-0.002-0.008-0.003-0.013   c0.155-0.978,0.14-1.908-0.049-2.779c0-0.004,0.002-0.007,0.002-0.01c0-0.071-0.024-0.134-0.056-0.192   c-0.189-0.752-0.496-1.462-0.941-2.113l1.004,0.525l0.25,1.572c0.017,0.105,0.08,0.196,0.172,0.249l1.788,1.027   c0.055,0.031,0.114,0.046,0.174,0.046c0.121,0,0.239-0.063,0.304-0.176c0.096-0.167,0.038-0.381-0.13-0.478L20,14.823l-0.251-1.58   c-0.018-0.109-0.086-0.204-0.184-0.255l-2.126-1.111c0.083-0.058,0.158-0.123,0.221-0.199c0.156-0.189,0.212-0.386,0.23-0.533   c0.509,0.482,1.188,1.123,1.509,1.411c1.36,1.222,2.399,1.632,3.26,1.632c0.751,0,1.366-0.312,1.941-0.669   c3.02-1.874,3.827-2.783,4.8-4.058C29.844,8.88,29.937,8.388,29.677,8z M17.837,20.511h-5.879c-0.172-0.77-0.302-1.476-0.394-2.002   h6.683C18.141,19.075,18.005,19.77,17.837,20.511z M17.032,23.313h-4.276c-0.237-0.633-0.438-1.324-0.608-2.001h5.496   C17.469,21.996,17.266,22.683,17.032,23.313z M18.346,15.707c0.11,0.63,0.113,1.299,0.024,2.001h-6.921   c-0.074-0.686-0.048-1.356,0.075-2.001L18.346,15.707z M11.73,14.907c0.481-1.452,1.351-2.347,1.827-2.748   c0.052,0.002,0.098,0.011,0.153,0.011c0.016,0,0.033,0,0.049,0c0.019,0,0.036-0.009,0.054-0.012   c0.02,0.003,0.037,0.012,0.058,0.012h2.37c0.009,0,0.018,0,0.027,0c0.917,0.797,1.543,1.712,1.88,2.737L11.73,14.907z    M16.246,11.37h-2.375c-0.02,0-0.037,0.009-0.057,0.011c-0.023-0.003-0.041-0.012-0.066-0.011   c-0.081,0.001-0.153-0.003-0.224-0.008c-0.034-0.008-0.067-0.012-0.102-0.011c-0.219-0.028-0.382-0.087-0.461-0.177   c-0.071-0.08-0.061-0.172-0.054-0.25V9.626c0.008-0.403,0.134-0.71,0.384-0.939c0.59-0.541,1.67-0.475,1.68-0.473   c0.007,0,0.014-0.003,0.021-0.003h0.01c0.009,0,0.017,0.004,0.025,0.003c0.009-0.001,1.089-0.068,1.68,0.473   c0.25,0.229,0.376,0.536,0.384,0.931l0.009,1.385c0,0.001,0.006,0.09-0.057,0.164C16.935,11.301,16.639,11.38,16.246,11.37z    M12.901,6.86c0-0.189,0.102-0.349,0.249-0.448c0.076,0.087,0.145,0.203,0.145,0.35c0,0.165-0.093,0.326-0.254,0.456   C12.957,7.121,12.901,6.998,12.901,6.86z M16.056,6.31c-0.044,0.125-0.074,0.254-0.074,0.389c0,0.258,0.09,0.5,0.242,0.712h-1.409   c-0.019,0-0.032,0-0.054,0h-0.964c0.126-0.197,0.197-0.418,0.197-0.648c0-0.158-0.039-0.308-0.099-0.452H16.056z M16.979,7.187   c-0.186-0.132-0.298-0.306-0.298-0.489c0-0.13,0.055-0.236,0.12-0.319c0.174,0.092,0.297,0.27,0.297,0.481   C17.099,6.985,17.049,7.095,16.979,7.187z M10.133,12.036c-2.369,2.128-3.43,1.469-4.365,0.889   c-2.917-1.811-3.688-2.677-4.612-3.888C0.928,8.737,0.834,8.495,0.905,8.388c0.144-0.215,0.674-0.299,1.356-0.299   c1.094,0,2.58,0.216,3.49,0.457c1.324,0.35,4.738,1.456,6.084,1.895C11.326,10.924,10.497,11.709,10.133,12.036z M14.908,25.859   c-0.734,0-1.331-0.729-1.813-1.746h3.604C16.218,25.137,15.629,25.859,14.908,25.859z M28.844,9.037   c-0.924,1.211-1.695,2.077-4.612,3.888c-0.935,0.581-1.995,1.239-4.364-0.889c-0.363-0.327-1.193-1.112-1.702-1.595   c1.346-0.439,4.76-1.545,6.084-1.895c1.478-0.391,4.472-0.719,4.846-0.158C29.166,8.495,29.072,8.737,28.844,9.037z"/></g></svg>