<?xml version="1.0" ?><svg id="Layer_1" style="enable-background:new 0 0 30 30;" version="1.1" viewBox="0 0 30 30" xml:space="preserve" xmlns="http://www.w3.org/2000/svg" xmlns:xlink="http://www.w3.org/1999/xlink"><path d="M19.345,3.303L18.68,1.1c-0.048-0.159-0.179-0.278-0.342-0.31c-0.161-0.03-0.329,0.029-0.434,0.157l-1.334,1.642  C13.675,2.441,5.267,2.706,0.709,10.123c-0.109,0.178-0.081,0.408,0.068,0.554c0.149,0.146,0.381,0.17,0.556,0.057  c0.014-0.009,1.339-0.838,2.952-0.472c1.139,0.26,2.145,1.075,3.007,2.387c-0.01,0.033-0.024,0.063-0.034,0.096  c-0.071,0.237,0.065,0.486,0.302,0.557c0.042,0.013,0.085,0.019,0.127,0.019c0.193,0,0.371-0.126,0.429-0.32  c0.005-0.019,0.014-0.035,0.019-0.053c0.017-0.016,0.043-0.022,0.057-0.04c0.195-0.143,1.225-0.708,2.495-0.495  c1.249,0.207,2.337,1.087,3.241,2.604c-0.006,0.035-0.014,0.069-0.019,0.104c-0.003,0.019,0.003,0.036,0.002,0.055L10.56,27.59  c-0.153,0.57-0.741,0.904-1.31,0.755c-0.569-0.154-0.907-0.741-0.753-1.31l0.356-1.32c0.065-0.239-0.077-0.486-0.316-0.549  C8.3,25.1,8.053,25.242,7.988,25.48L7.632,26.8c-0.282,1.045,0.339,2.126,1.385,2.409c0.17,0.045,0.341,0.067,0.51,0.067  c0.866,0,1.662-0.577,1.898-1.452l3.374-12.509c0.002-0.006,0-0.013,0.001-0.019c0.772-0.354,4.209-1.678,7.029,1.185  c-0.004,0.035-0.003,0.069-0.008,0.104c-0.028,0.246,0.148,0.468,0.394,0.496c0.017,0.002,0.035,0.003,0.052,0.003  c0.224,0,0.418-0.168,0.444-0.397c0.006-0.049,0.005-0.095,0.011-0.144c0.654-0.435,3.238-1.876,5.891,0.462  c0.084,0.074,0.189,0.113,0.296,0.113c0.071,0,0.143-0.017,0.209-0.052c0.165-0.086,0.258-0.267,0.235-0.451  C29.342,16.512,28.05,6.967,19.345,3.303z M18.066,2.167l0.228,0.755c-0.048-0.016-0.093-0.035-0.141-0.051  c-0.063-0.042-0.133-0.069-0.209-0.076c-0.103-0.033-0.194-0.077-0.299-0.108c0,0-0.001,0-0.001,0L18.066,2.167z M4.484,9.389  C3.652,9.199,2.89,9.266,2.279,9.41C6.464,3.885,13.124,3.393,16.02,3.465c-2.372,1.037-6.485,3.446-8.364,8.16  C6.743,10.431,5.685,9.664,4.484,9.389z M8.784,11.665c-0.058,0.017-0.141,0.048-0.215,0.073c2.07-4.881,6.852-7.108,8.705-7.81  c-0.679,1.654-2.231,5.678-3.105,9.832C12.147,11.055,9.778,11.369,8.784,11.665z M17.666,13.802c-1.119,0-2.066,0.253-2.689,0.472  c0.9-4.485,2.661-8.899,3.249-10.305c0.828,1.064,3.909,5.446,3.686,11.37C20.497,14.162,18.979,13.802,17.666,13.802z   M22.801,15.477c0.233-5.13-1.839-9.094-3.129-11.037c5.968,2.873,7.982,8.736,8.574,11.18  C26.007,14.26,23.899,14.929,22.801,15.477z"/></svg>