<?xml version="1.0" ?><svg id="Layer_1" style="enable-background:new 0 0 30 30;" version="1.1" viewBox="0 0 30 30" xml:space="preserve" xmlns="http://www.w3.org/2000/svg" xmlns:xlink="http://www.w3.org/1999/xlink"><g><path d="M28.798,12.303c-0.261-1.377-0.69-2.361-1.28-2.94l0.117-5.122c0.006-0.236-0.181-0.432-0.417-0.437   c-0.254-0.023-0.431,0.181-0.436,0.417l-0.106,4.63c-0.248-0.077-0.484-0.101-0.693-0.086l0.097-4.297   c0.097-0.103,0.16-0.24,0.16-0.393c0-0.317-0.26-0.576-0.578-0.576c-0.318,0-0.576,0.259-0.576,0.576   c0,0.141,0.057,0.266,0.142,0.367L25.125,8.97c0,0.016,0.007,0.03,0.008,0.046c-0.001,0.001-0.004,0.002-0.005,0.003   c-1.176,0.845-6.107,4.327-7.816,5.534c-0.298-2.3-1.713-9.281-7.963-9.941C8.82,4.568,6.057,4.461,3.855,6.535   C1.981,8.3,1.07,11.115,1.15,14.912c0.011,0.23,0.318,5.659,3.682,7.404c0.001,0.001,0.01,0.005,0.013,0.007   c-1.228,0.616-2.675,2.016-3.033,2.365c-0.138,0.134-0.169,0.345-0.075,0.513c0.093,0.169,0.289,0.257,0.476,0.206   c5.698-1.414,12.266,0.802,12.352,0.831c0.624,0.181,1.208,0.263,1.753,0.262c4.457,0,6.339-5.39,6.37-5.489   c0.863-3.767,3-4.436,3.038-4.45c1.127-0.171,1.969-0.644,2.505-1.407C29.104,13.91,28.81,12.365,28.798,12.303z M2.003,14.883   C1.929,11.349,2.75,8.749,4.441,7.156c1.628-1.533,3.655-1.705,4.485-1.705c0.18,0,0.304,0.008,0.355,0.013   c6.026,0.636,7.078,8.038,7.233,9.593l-3.445,1.577c-0.08-0.011-0.164,0.004-0.241,0.044l-0.351,0.18   c0.104-0.476,0.219-1.284,0.173-2.325c0.001-0.016,0.003-0.031,0.003-0.048c0.001-0.021-0.008-0.039-0.01-0.06   c-0.048-0.893-0.212-1.945-0.616-3.124c0,0,0,0,0,0c0-0.001,0-0.001,0-0.002c-0.201-0.574-1.309-3.468-3.473-3.983   C7.348,7.029,6.072,7.523,4.765,8.787c-1.834,1.771-2.149,5.212-1.513,7.696c0.451,1.756,1.336,2.935,2.429,3.234   c0.165,0.045,0.354,0.075,0.565,0.075c0.64,0,1.483-0.276,2.46-1.257c1.502-1.508,2.045-5.416,0.523-7.196   c-0.719-0.842-1.405-0.87-1.859-0.751c-1.074,0.292-1.793,1.712-2.007,2.908c-0.183,1.024,0.004,1.82,0.513,2.182   c0.194,0.139,0.632,0.314,1.039,0.101c0.249-0.13,0.544-0.444,0.536-1.198c-0.002-0.235-0.193-0.423-0.427-0.423   c-0.001,0-0.003,0-0.004,0c-0.236,0.002-0.425,0.195-0.423,0.431c0.003,0.347-0.078,0.432-0.077,0.432   c-0.029,0.008-0.114-0.014-0.15-0.039c-0.174-0.124-0.3-0.595-0.167-1.336c0.195-1.094,0.806-2.075,1.391-2.234   c0.307-0.081,0.641,0.078,0.986,0.481c1.21,1.415,0.747,4.807-0.478,6.039c-0.557,0.56-1.392,1.176-2.195,0.961   C5.129,18.68,4.446,17.7,4.079,16.27c-0.561-2.189-0.304-5.341,1.279-6.869C6.442,8.353,7.45,7.929,8.355,8.146   c1.767,0.421,2.757,3.126,2.864,3.434c0,0,0,0.001,0.001,0.001c0.384,1.122,0.534,2.112,0.574,2.944   c-0.12,3-0.903,5.151-2.332,6.389c-0.878,0.762-1.842,1.022-2.547,1.104c-0.942-0.055-1.653-0.439-1.673-0.451   C2.297,20.04,2.005,14.922,2.003,14.883z M27.531,14.663c-0.396,0.564-1.047,0.919-1.983,1.064c-0.11,0.03-2.708,0.796-3.681,5.051   c-0.084,0.249-2.124,6.076-7.045,4.647c-0.254-0.088-5.786-1.962-11.275-1.149c0.968-0.802,1.939-1.425,2.321-1.391   c0.201,0.023,0.587,0.045,1.076-0.005c0.059,0.002,0.114,0.009,0.174,0.009c0.512,0,1.076-0.089,1.65-0.334   c1.514-0.645,2.656-2.182,3.401-4.573l4.971-2.275c0.025-0.012,0.037-0.037,0.059-0.053l0.009,0.013c0,0,6.987-4.93,8.381-5.934   c0.018-0.011,0.467-0.257,0.958-0.027c0.444,0.206,1.049,0.852,1.41,2.757C27.963,12.478,28.197,13.715,27.531,14.663z"/><path d="M26.062,11.558c-0.351,0-0.638,0.286-0.638,0.638s0.287,0.638,0.638,0.638c0.352,0,0.639-0.286,0.639-0.638   S26.415,11.558,26.062,11.558z"/></g></svg>