<?xml version="1.0" ?><svg id="Layer_1" style="enable-background:new 0 0 30 30;" version="1.1" viewBox="0 0 30 30" xml:space="preserve" xmlns="http://www.w3.org/2000/svg" xmlns:xlink="http://www.w3.org/1999/xlink"><g><path d="M25.51,11.213v-6.81c0-0.221-0.18-0.4-0.4-0.4H9.776L9.4,2.091C9.372,1.947,9.267,1.831,9.127,1.787l-4.57-1.431   L4.318,1.119l4.343,1.36L8.96,4.003H7.545c-0.221,0-0.4,0.179-0.4,0.4v14.908c0,0.026-0.006,0.044-0.005,0.071   c0,0.007,0.004,0.013,0.005,0.02v6.488c0,0.361,0.069,0.703,0.167,1.032c0.004,0.062,0.023,0.118,0.053,0.169   c0.5,1.422,1.842,2.451,3.433,2.451h11.06c2.014,0,3.652-1.639,3.652-3.652v-12.73C25.65,12.255,25.546,11.445,25.51,11.213z    M24.709,4.803v8.283c-0.1,0.611-0.327,1.25-0.822,1.695c-0.538,0.483-1.329,0.669-2.352,0.571c0.49-0.516,0.535-1.322,0.059-1.871   l-3.085-3.556c-0.244-0.282-0.584-0.451-0.958-0.478c-0.382-0.023-0.736,0.094-1.016,0.338l-4.018,3.484   c-0.282,0.244-0.451,0.585-0.478,0.959c-0.026,0.374,0.094,0.735,0.338,1.016l1.79,2.063c-0.149,0.514-0.35,1.013-1.606,0.879   L9.933,4.803H24.709z M19.98,15.039c-0.162-0.048-0.35-0.118-0.554-0.193c-0.949-0.352-2.25-0.833-3.432-0.235   c-0.64,0.325-1.147,0.944-1.521,1.83l-1.492-1.721c-0.104-0.12-0.156-0.275-0.144-0.436c0.011-0.161,0.084-0.307,0.204-0.411   l4.018-3.484c0.108-0.095,0.246-0.146,0.391-0.146c0.015,0,0.029,0,0.044,0.001c0.16,0.011,0.307,0.084,0.411,0.204l3.085,3.556   c0.217,0.25,0.189,0.629-0.061,0.846h0.001l-0.386,0.335C20.361,15.143,20.175,15.097,19.98,15.039z M19.812,15.822l-2.898,2.514   c-0.121,0.104-0.281,0.154-0.437,0.145c-0.16-0.012-0.307-0.084-0.411-0.204l-0.994-1.146c0.311-0.91,0.738-1.529,1.284-1.805   c0.871-0.442,1.937-0.046,2.792,0.271c0.224,0.083,0.428,0.158,0.605,0.211C19.774,15.813,19.792,15.816,19.812,15.822z    M9.118,4.803l2.6,13.235l-0.153-0.035c-0.943-0.223-2.617-0.609-3.619-0.098V4.803H9.118z M21.857,28.742h-11.06   c-1.058,0-1.973-0.586-2.466-1.444h15.99C23.83,28.156,22.916,28.742,21.857,28.742z M24.709,25.891   c0,0.208-0.026,0.411-0.068,0.606H8.013c-0.043-0.196-0.068-0.398-0.068-0.606v-6.656c0.013-0.315,0.128-0.464,0.223-0.543   c0.63-0.521,2.44-0.094,3.212,0.089l0.307,0.071c0.073,0.016,0.126,0.017,0.195,0.03l1.008,5.13l0.785-0.154L12.72,18.99   c1.293,0.06,1.803-0.468,2.046-0.993l0.697,0.803c0.244,0.282,0.584,0.452,0.958,0.479c0.034,0.003,0.068,0.004,0.103,0.004   c0.337,0,0.658-0.119,0.914-0.342l3.334-2.892c1.586,0.297,2.815,0.078,3.65-0.672c0.105-0.094,0.2-0.195,0.287-0.3V25.891z"/><path d="M17.645,11.357c-0.394-0.015-0.776,0.122-1.066,0.389l-1.257,1.156c-0.163,0.149-0.173,0.403-0.023,0.565   c0.079,0.085,0.187,0.129,0.294,0.129c0.097,0,0.194-0.035,0.271-0.105l1.256-1.156c0.135-0.123,0.309-0.184,0.491-0.179   c0.184,0.007,0.353,0.085,0.476,0.219c0.148,0.162,0.403,0.172,0.564,0.023c0.163-0.149,0.174-0.403,0.023-0.565   C18.407,11.542,18.041,11.373,17.645,11.357z"/></g></svg>