<?xml version="1.0" ?><svg viewBox="0 0 512 512" xmlns="http://www.w3.org/2000/svg"><title/><g data-name="1" id="_1"><path d="M301.93,450H212.06a15,15,0,0,1-15-15V263a15,15,0,0,1,15-15h89.87a15,15,0,0,1,15,15V435A15,15,0,0,1,301.93,450Zm-74.87-30h59.87V278H227.06Z"/><path d="M160.86,450H71a15,15,0,0,1-15-15V158.11a15,15,0,0,1,15-15h89.86a15,15,0,0,1,15,15V435A15,15,0,0,1,160.86,450ZM86,420h59.86V173.11H86Z"/><path d="M443,450H353.13a15,15,0,0,1-15-15V63a15,15,0,0,1,15-15H443a15,15,0,0,1,15,15V435A15,15,0,0,1,443,450Zm-74.87-30H428V78H368.13Z"/></g></svg>