<?xml version="1.0" ?><svg viewBox="0 0 512 512" xmlns="http://www.w3.org/2000/svg"><title/><g data-name="1" id="_1"><path d="M257.36,450a15,15,0,0,1-7.31-1.91C208.14,424.68,174,393.91,148.5,356.66c-20.36-29.78-35.19-63.67-44.07-100.74C89.36,193,96.58,143,96.9,140.87a15,15,0,0,1,12.15-12.53l9-1.63A221.06,221.06,0,0,0,246,53.24a15,15,0,0,1,22.79,0,221.06,221.06,0,0,0,128,73.47l8.95,1.63a15,15,0,0,1,12.15,12.53c.32,2.1,7.54,52.17-7.53,115-8.88,37.07-23.71,71-44.07,100.74-25.48,37.25-59.65,68-101.55,91.43A15,15,0,0,1,257.36,450ZM125.57,155.82A317.77,317.77,0,0,0,133.86,250c8.11,33.31,21.5,63.69,39.79,90.28,21.3,31,49.43,57,83.71,77.4,34.28-20.42,62.42-46.43,83.72-77.4,18.29-26.59,31.68-57,39.79-90.28a318.1,318.1,0,0,0,8.29-94.18A251.32,251.32,0,0,1,257.37,85.18,251.38,251.38,0,0,1,125.57,155.82Z"/><path d="M216.35,305a15,15,0,0,1-10.6-25.6l82-82A15,15,0,0,1,309,218.59l-82,82A15,15,0,0,1,216.35,305Z"/><path d="M298.38,305a15,15,0,0,1-10.61-4.39l-82-82A15,15,0,0,1,227,197.38l82,82a15,15,0,0,1-10.6,25.6Z"/></g></svg>