<?xml version="1.0" ?><svg viewBox="0 0 512 512" xmlns="http://www.w3.org/2000/svg"><title/><g data-name="1" id="_1"><path d="M413.37,448.66H96.9a15,15,0,0,1-15-15V217.82a15,15,0,0,1,15-15H413.37a15,15,0,0,1,15,15V433.66A15,15,0,0,1,413.37,448.66Zm-301.47-30H398.37V232.82H111.9Z"/><path d="M440.47,232.82H69.8a15,15,0,0,1-15-15V137.2a15,15,0,0,1,15-15H440.47a15,15,0,0,1,15,15v80.62A15,15,0,0,1,440.47,232.82Zm-355.67-30H425.47V152.2H84.8Z"/><path d="M255.12,152.2a15,15,0,0,1-9.26-3.21L159,80.67a12.23,12.23,0,0,0-19.8,9.62V137.2a15,15,0,0,1-30,0V90.29a42.24,42.24,0,0,1,68.35-33.2l86.85,68.32a15,15,0,0,1-9.29,26.79Z"/><path d="M255.14,152.2a15,15,0,0,1-9.28-26.79L332.7,57.09a42.24,42.24,0,0,1,68.36,33.2V137.2a15,15,0,0,1-30,0V90.29a12.24,12.24,0,0,0-19.81-9.62L264.41,149A15,15,0,0,1,255.14,152.2Z"/></g></svg>