<?xml version="1.0" ?><!DOCTYPE svg  PUBLIC '-//W3C//DTD SVG 1.1//EN'  'http://www.w3.org/Graphics/SVG/1.1/DTD/svg11.dtd'><svg enable-background="new 0 0 1024 1024" height="1024px" version="1.1" viewBox="0 0 1024 1024" width="1024px" xml:space="preserve" xmlns="http://www.w3.org/2000/svg" xmlns:xlink="http://www.w3.org/1999/xlink"><g id="Background"><rect fill="none" height="964" id="bg_1_" stroke="#4C75A3" stroke-miterlimit="10" stroke-width="60" width="963.984" x="30.008" y="30"/></g><g id="VK"><path d="M154.504,399.328c7.7,20.099,17.191,39.481,26.987,58.622   c23.277,45.481,47.248,89.673,79.387,129.648c32.479,40.396,70.825,79.544,115.996,105.675   c12.564,7.268,25.77,13.401,39.527,18.061c53.079,17.979,111.295,16.267,129.274,4.281c17.979-11.986-3.424-90.75,12.842-100.167   c16.266-9.418,45.375,11.13,66.777,29.965c21.403,18.834,37.669,35.1,49.656,47.942c7.506,8.042,12.79,17.64,22.575,23.376   c16.186,9.487,37.753,8.435,55.808,8.486c10.066,0.029,20.133,0.062,30.199-0.064c6.803-0.084,13.609,0.136,20.407-0.193   c11.17-0.542,25.779-4.952,24.941-18.927c-0.198-3.304-0.931-7.256-2.244-10.305c-2.822-6.555-6.797-13.358-11.069-19.068   c-22.258-29.75-37.027-44.946-48.156-56.932c-11.13-11.985-56.932-55.22-59.928-63.781c-2.997-8.561-3.96-12.36,4.547-23.918   c8.508-11.558,27.129-40.719,41.684-61.694c9.128-13.155,17.42-26.91,25.612-40.659c9.659-16.21,18.743-32.814,26.486-50.029   c3.462-7.698,6.604-14.711,4.46-23.337c-1.437-5.779-4.687-10.856-10.74-12.282c-3.303-0.778-6.909-0.857-10.29-0.857   c-12.627,0-45.589,0-45.589,0c-5.958,0-11.917-0.087-17.876-0.076c-6.109,0.011-12.268-0.037-18.36,0.485   c-8.666,0.742-13.977,7.425-18.336,14.163c-5.333,8.245-10.187,16.823-15.36,25.172c-3.537,5.705-6.998,11.455-10.398,17.243   c-5.311,9.04-10.784,17.983-16.256,26.927c-2.271,3.71-4.55,7.416-6.789,11.146c-6.421,10.7-62.069,83.899-73.198,86.896   c-11.129,2.997-14.982,2.141-14.982-20.547c0-22.687,0-151.533,0-151.533s-0.855-9.935-10.273-9.935c-9.418,0-53.098,0-53.098,0   h-90.09c0,0-21.189,0.088-13.698,19.138c7.492,19.049,29.644,24.828,29.644,56.611c0,31.783,0,124.566,0,124.566   s-3.745,27.93-27.931,4.815c-19.058-18.215-34.761-39.751-48.636-62.081c-14.426-23.215-26.048-47.333-36.401-72.602   c-2.961-7.227-5.893-14.466-8.934-21.659c-3.174-7.509-6.319-15.031-9.363-22.593c-3.535-8.784-7.317-20.265-16.849-24.309   c-4.792-2.033-10.092-1.933-15.2-1.932c-18.943,0.005-37.885,0.058-56.827,0.022c-5.558-0.01-11.116-0.016-16.674-0.002   c-13.123,0.031-29.445-0.356-32.558,16.038c-1.794,9.443,1.772,19.523,4.757,28.367   C151.321,391.511,152.99,395.375,154.504,399.328z" fill="#4C75A3" id="Vk"/></g></svg>