<?xml version="1.0" ?><!DOCTYPE svg  PUBLIC '-//W3C//DTD SVG 1.1//EN'  'http://www.w3.org/Graphics/SVG/1.1/DTD/svg11.dtd'><svg enable-background="new 0 0 1024 1024" height="1024px" version="1.1" viewBox="0 0 1024 1024" width="1024px" xml:space="preserve" xmlns="http://www.w3.org/2000/svg" xmlns:xlink="http://www.w3.org/1999/xlink"><g id="Background"><rect fill="none" height="964" id="bg_1_" stroke="#FFA32B" stroke-miterlimit="10" stroke-width="60" width="963.984" x="30.008" y="30"/></g><g id="Swarm"><g id="Swarm_1_"><path d="M434.29,589.655c-0.858,0.344-1.803,2.491-2.236,3.196c-1.734,2.817-3.322,5.727-4.923,8.62    c-2.286,4.132-4.557,8.272-6.796,12.43c-2.803,5.203-5.535,10.442-8.258,15.688c-2.995,5.766-6.005,11.523-8.97,17.304    c-3.132,6.106-6.174,12.257-9.202,18.415c-6.417,13.055-13.001,26.044-18.804,39.388c-1.654,3.804-3.241,7.637-4.724,11.51    c-1.184,3.092-2.239,6.237-3.062,9.446c-1.796,6.983,0.159,14.771,7.343,17.826c4.826,2.053,9.893,3.774,14.852,5.47    c4.506,1.54,8.951,3.216,13.393,4.931c31.947,12.33,118.263,30.826,118.263,30.826C432.608,704.555,434.29,589.655,434.29,589.655    z" fill="#FFA32B"/><path d="M677.164,715.924c-32.379-30.07-55.507-68.633-69.303-110.474c-7.92-24.021-12.201-49.086-13.368-74.32    c-0.167-3.605-0.271-7.214-0.318-10.829c-0.707-18.641,1.535-38.819,3.955-58.093c0.433-3.332,0.947-6.608,1.542-9.114    c0.594-2.505,1.27-4.239,2.017-4.483c-2.406,0.789-4.811,1.604-7.207,2.449c-2.397,0.845-4.786,1.718-7.174,2.616    c-16.537,5.496-32.652,13.289-46.967,23.531c-2.862,2.048-5.653,4.195-8.36,6.44c-3.156,2.362-6.164,4.868-9.021,7.504    c-30.38,27.324-42.71,69.92-37.505,110.105c0.73,9.037,2.121,18.022,3.959,26.898c6.84,33.021,20.669,65.058,40.091,92.643    c17.762,25.229,40.582,47.425,69.542,59.182c27.922,11.332,64.824,10.05,93.154,0.024c11.371-4.023,22.608-8.909,33.028-15.019    c0.849-0.499,12.17-9.01,12.47-8.865c-11.355-5.487-21.844-11.397-31.529-17.657C695.866,731.802,686.149,724.269,677.164,715.924    z" fill="#FFA32B"/><path d="M385.714,292.785c-46.647-17.631-97.206-21.622-141.989,2.904c-23.352,12.789-39.466,31.688-37.563,59.192    c1.944,28.098,21.546,57.044,42.284,75.13c5.887,5.134,12.436,9.9,19.225,13.78c14.008,8.004,30.412,13.581,46.301,16.392    c97.151,17.188,193.554-24.662,208.5-30.641C522.473,429.543,480.623,328.656,385.714,292.785z" fill="#FFA32B"/><path d="M649.576,345.87c14.229-25.906,20.42-55.157,8.775-83.243c-6.074-14.646-16.413-25.532-33.343-26.553    c-17.298-1.043-36.426,8.175-49.005,18.896c-3.57,3.043-6.967,6.503-9.84,10.172c-5.924,7.569-10.55,16.728-13.445,25.799    c-17.706,55.469,0.679,115.08,3.219,124.282C555.938,415.225,620.631,398.579,649.576,345.87z" fill="#FFA32B"/><path d="M802.516,540.979c-8.63-18.799-20.617-35.535-34.685-50.542c-8.203-8.751-17-16.171-26.881-22.976    c-22.568-15.544-51.52-27.533-76.861-10.636c-2.803,2.239-5.184,4.76-7.21,7.503c-4.559,6.173-7.316,13.466-9.005,21.208    c-0.563,2.581-1.007,5.211-1.358,7.867c-2.02,16.051-1.057,32.031,1.766,47.701c0.563,3.134,1.203,6.255,1.906,9.362    c10.539,38.629,25.111,75.621,48.524,108.316c2.093,2.871,4.259,5.679,6.503,8.411c6.734,8.202,14.178,15.739,22.506,22.326    c2.828,2.023,5.775,3.922,8.85,5.68c2.704,1.548,5.508,2.925,8.41,4.108c3.29,1.176,6.625,2.108,9.981,2.753    c25.364,4.885,45.112-11.736,54.474-34.239c1.433-3.442,2.692-7.01,3.778-10.655c2.168-8.898,3.567-17.925,4.256-27.055    C819.769,599.667,814.399,569.007,802.516,540.979z" fill="#FFA32B"/></g></g></svg>