<?xml version="1.0" ?><svg data-name="Layer 1" id="Layer_1" viewBox="0 0 128 128" xmlns="http://www.w3.org/2000/svg"><title/><path d="M35.61,44.39A28.39,28.39,0,1,0,64,16,28.42,28.42,0,0,0,35.61,44.39Zm54.78,0A26.39,26.39,0,1,1,64,18,26.42,26.42,0,0,1,90.39,44.39Z"/><path d="M29,44.39a35,35,0,1,0,35-35A35.06,35.06,0,0,0,29,44.39Zm68.06,0a33,33,0,1,1-33-33A33.07,33.07,0,0,1,97,44.39Z"/><path d="M73.14,60.78a1,1,0,0,0,.7-.29l7.26-7.26a1,1,0,0,0-1.41-1.41l-7.26,7.25a1,1,0,0,0,.71,1.71Z"/><path d="M73.49,53.78a1,1,0,0,0,.71-.29L82,45.73a1,1,0,0,0,0-1.41,1,1,0,0,0-1.42,0l-7.75,7.76a1,1,0,0,0,0,1.41A1,1,0,0,0,73.49,53.78Z"/><path d="M83.63,43.65a1,1,0,0,0,.7-.29l1.2-1.2a1,1,0,0,0,0-1.42,1,1,0,0,0-1.41,0l-1.2,1.2a1,1,0,0,0,.71,1.71Z"/><path d="M55.18,35.51,49.68,41a1,1,0,0,0,0,1.41,1,1,0,0,0,1.41,0l5.5-5.5a1,1,0,0,0-1.41-1.41Z"/><path d="M45.34,38.7,44.2,39.84a1,1,0,0,0,0,1.42,1,1,0,0,0,.71.29,1,1,0,0,0,.7-.29l1.15-1.15a1,1,0,0,0,0-1.41A1,1,0,0,0,45.34,38.7Z"/><path d="M55.53,28.51,48,36a1,1,0,0,0,0,1.42,1,1,0,0,0,.71.29,1,1,0,0,0,.7-.29L57,29.93a1,1,0,1,0-1.42-1.42Z"/><path d="M26.19,40.79a3.55,3.55,0,1,0-4.52,3.39,1.55,1.55,0,0,0,0,.21A42.4,42.4,0,0,0,63,86.73v23.85H51.64a7.07,7.07,0,0,0-7.06,7.06,1,1,0,0,0,1,1H82.42a1,1,0,0,0,1-1,7.07,7.07,0,0,0-7.06-7.06H65V86.73a42.4,42.4,0,0,0,41.37-42.34,1.55,1.55,0,0,0,0-.21,3.54,3.54,0,1,0-1.92,0,.71.71,0,0,0,0,.2,40.37,40.37,0,0,1-80.74,0,.71.71,0,0,0,0-.2A3.53,3.53,0,0,0,26.19,40.79Zm55.13,75.85H46.68a5.07,5.07,0,0,1,5-4.06H76.36A5.07,5.07,0,0,1,81.32,116.64Zm22.49-75.85a1.55,1.55,0,1,1,1.54,1.55A1.55,1.55,0,0,1,103.81,40.79ZM22.65,42.34a1.55,1.55,0,1,1,1.54-1.55A1.55,1.55,0,0,1,22.65,42.34Z"/></svg>