<?xml version="1.0" ?><svg style="enable-background:new 0 0 512 512;" version="1.1" viewBox="0 0 512 512" xml:space="preserve" xmlns="http://www.w3.org/2000/svg" xmlns:xlink="http://www.w3.org/1999/xlink"><style type="text/css">
	.st0{fill-rule:evenodd;clip-rule:evenodd;}
</style><g id="LinkedIn"/><g id="Twitter"/><g id="Youtube_2"><g><g><circle cx="227.9" cy="32.4" r="12.3"/><circle cx="396.3" cy="229.2" r="12.3"/><circle cx="115.7" cy="229.2" r="12.3"/><path d="M363.7,86.4c-1.8,0-3.3-1.5-3.3-3.3v-8.9c0-1.8,1.5-3.3,3.3-3.3c1.8,0,3.3,1.5,3.3,3.3v8.9     C367.1,85,365.6,86.4,363.7,86.4z"/><path d="M377.8,92.2c-0.9,0-1.7-0.3-2.3-1c-1.3-1.3-1.3-3.4,0-4.7l6.3-6.3c1.3-1.3,3.4-1.3,4.7,0s1.3,3.4,0,4.7l-6.3,6.3     C379.5,91.9,378.6,92.2,377.8,92.2z"/><path d="M392.5,106.3h-8.7c-1.8,0-3.3-1.5-3.3-3.3c0-1.8,1.5-3.3,3.3-3.3h8.7c1.8,0,3.3,1.5,3.3,3.3     C395.8,104.8,394.3,106.3,392.5,106.3z"/><path d="M384.1,126.6c-0.8,0-1.7-0.3-2.3-1l-6.3-6.3c-1.3-1.3-1.3-3.4,0-4.7c1.3-1.3,3.4-1.3,4.7,0l6.3,6.3     c1.3,1.3,1.3,3.4,0,4.7C385.7,126.2,384.9,126.6,384.1,126.6z"/><path d="M363.7,135c-1.8,0-3.3-1.5-3.3-3.3v-8.7c0-1.8,1.5-3.3,3.3-3.3c1.8,0,3.3,1.5,3.3,3.3v8.7     C367.1,133.5,365.6,135,363.7,135z"/><path d="M343.4,126.6c-0.9,0-1.7-0.3-2.3-1c-1.3-1.3-1.3-3.4,0-4.7l6.3-6.3c1.3-1.3,3.4-1.3,4.7,0c1.3,1.3,1.3,3.4,0,4.7     l-6.3,6.3C345.1,126.2,344.3,126.6,343.4,126.6z"/><path d="M343.8,106.3H335c-1.8,0-3.3-1.5-3.3-3.3c0-1.8,1.5-3.3,3.3-3.3h8.7c1.8,0,3.3,1.5,3.3,3.3     C347.1,104.8,345.6,106.3,343.8,106.3z"/><path d="M349.7,92.2c-0.9,0-1.7-0.3-2.3-1l-6.3-6.3c-1.3-1.3-1.3-3.4,0-4.7c1.3-1.3,3.4-1.3,4.7,0l6.3,6.3c1.3,1.3,1.3,3.4,0,4.7     C351.4,91.9,350.6,92.2,349.7,92.2z"/><path d="M147.2,103.1c-1.8,0-3.3-1.5-3.3-3.3v-8.2c0-1.8,1.5-3.3,3.3-3.3c1.8,0,3.3,1.5,3.3,3.3v8.2     C150.5,101.6,149,103.1,147.2,103.1z"/><path d="M147.2,139.8c-1.8,0-3.3-1.5-3.3-3.3v-8.2c0-1.8,1.5-3.3,3.3-3.3c1.8,0,3.3,1.5,3.3,3.3v8.2     C150.5,138.3,149,139.8,147.2,139.8z"/><path d="M169.7,117.3h-8.2c-1.8,0-3.3-1.5-3.3-3.3c0-1.8,1.5-3.3,3.3-3.3h8.2c1.8,0,3.3,1.5,3.3,3.3     C173,115.8,171.5,117.3,169.7,117.3z"/><path d="M133,117.3h-8.2c-1.8,0-3.3-1.5-3.3-3.3c0-1.8,1.5-3.3,3.3-3.3h8.2c1.8,0,3.3,1.5,3.3,3.3     C136.3,115.8,134.8,117.3,133,117.3z"/></g><g><path d="M230.7,167c-0.1,0,0-0.1-0.1-0.2h4.6c1,3.9,2.1,7.7,3.1,11.6c1-3.6,2.1-7.9,3-11.6l4.5,0c-1.4,4.6-3.3,10.8-4.8,15.5     c-0.2,0.7-0.5,1.4-0.6,2c-0.1,1.9,0,10,0,12.1h-4.5c0-2,0.1-11.8,0.1-11.8s-0.7-3.2-1.1-4.7C233.7,175.6,232.1,171.2,230.7,167z"/><path d="M257,176.9c-0.9-1.7-2.8-2.8-5.2-2.8c-2.6,0.1-4.4,1.4-5.2,3.3c-0.8,1.9-0.6,5.4-0.6,8.5c0,2.9-0.1,6.5,0.8,8.2     c0.5,0.9,1.4,1.8,2.3,2.2c3,1.5,6.7,0.2,7.9-2.4c0.8-1.7,0.8-5.8,0.8-8.5C257.8,182.3,258,178.9,257,176.9z M253.7,191.3     c0,0.1,0,0.1,0,0.1c-0.3,1.3-1.1,2-2.5,1.6c-0.6-0.2-0.9-0.8-1.1-1.7v-11.4c0.2-1.2,0.7-2.1,1.8-2.1c1,0,1.5,0.7,1.8,1.6V191.3z"/><path d="M261.1,193.4c-0.2-3,0-6.2,0-9.5v-9.4c0-0.1,0-0.2,0.1-0.2h3.9v17.4c0,1.1,0.8,2,1.7,2c1,0,1.8-0.9,1.8-2v-0.4     c0-0.1,0-0.2,0-0.2v-16.8h4c0.1,7.3,0.1,14.7,0.1,22.1h-4v-2.2c0,1.8-2.3,2.2-3.6,2.3C261.2,196.2,261.4,194.6,261.1,193.4z"/><path d="M260.7,221.2c-0.1-0.9-0.5-1.9-1-2.1c-1-0.5-2.5,0.2-2.7,0.9c-0.2,0.8,0,2.3,0,3.3v10.1c0.7,0.6,1.6,1.3,2.6,0.8     c0.6-0.3,1-1.2,1-2.2c0.1-1.5,0-3.4,0-5.4C260.7,224.7,260.8,222.7,260.7,221.2z M260.7,221.2c-0.1-0.9-0.5-1.9-1-2.1     c-1-0.5-2.5,0.2-2.7,0.9c-0.2,0.8,0,2.3,0,3.3v10.1c0.7,0.6,1.6,1.3,2.6,0.8c0.6-0.3,1-1.2,1-2.2c0.1-1.5,0-3.4,0-5.4     C260.7,224.7,260.8,222.7,260.7,221.2z M285,211.6c-0.2-1.6-0.3-3-0.7-4.3c-1.1-3.9-4.3-5.7-8.9-5.9c-3-0.1-6.3-0.3-9.5-0.4     c-6.4-0.2-13.2-0.5-19.6-0.2c-3,0.2-5.8,0.1-8.6,0.2c-2.8,0.1-5.6,0.2-8.3,0.3c-3,0.1-5.2,0.3-7.1,1.5c-1.7,1.1-3.1,2.7-3.6,5     c-0.5,2.3-0.7,4.8-0.9,7.7c-0.5,6.9-0.4,14.1,0.4,20.5c0.2,1.3,0.3,2.6,0.6,3.7c1.2,3.8,4.3,5.6,8.9,5.8     c14.1,0.7,29.1,0.8,43.4,0.2c3.2-0.1,6.6-0.1,8.8-1.1c2.2-1,3.9-2.9,4.5-5.4c0.6-2.6,0.8-5.8,1-8.8     C286,224.1,285.7,217.5,285,211.6z M232.6,212.3v25.4h-4.5v-25.4h-4.7v-4.1c0-0.1,0-0.2,0.1-0.2c4.6,0,9.4-0.1,14,0.1v4.1     C235.9,212.3,234.2,212.2,232.6,212.3z M249,237.5H245v-2.2c-1.1,1-3.3,3.2-5.7,2.4c-1.8-0.6-1.8-3.1-1.8-5.8v-16.3     c0-0.1,0-0.2,0.1-0.2h4v14.5c0,0.7-0.1,2,0,2.9c0,0.5,0.1,0.9,0.3,1.1c0.2,0.3,0.4,0.5,0.7,0.6c1.3,0.4,2.1-0.3,2.4-1.6     c0-0.1,0-0.1,0-0.2v-0.5c0.1-0.5,0-1.5,0-2.2v-14.7c1.2-0.1,2.7,0,4.1-0.1V237.5z M263.2,237.3c-2.2,1.9-5,0-6.2-1.7v2h-4.1     v-29.5c0-0.1,0-0.2,0.1-0.2h4v9.5c1-1.3,4.2-3.4,6.3-1.5c2,1.8,1.4,7.5,1.4,11.5C264.7,231.5,265.1,235.7,263.2,237.3z      M272.6,234c0.6,0.4,1.4,0.4,1.9,0.2c1.3-0.5,1.1-2.5,1.1-4.2h4.1c0.5,5-1.9,8-5.9,8c-2.4,0-4.5-1.1-5.5-3.2     c-1-2.1-0.7-5.1-0.7-8.2c0-3.1-0.3-6.1,0.7-8.2c0.8-1.8,2.8-3.2,5.2-3.2c6.1-0.1,6.5,5.6,6.2,12.1h-8     C272,229.7,271.3,232.9,272.6,234z M274.5,219c-2.8-0.9-2.8,2.6-2.7,5h4C275.8,222.1,276,219.5,274.5,219z M260.7,221.2     c-0.1-0.9-0.5-1.9-1-2.1c-1-0.5-2.5,0.2-2.7,0.9c-0.2,0.8,0,2.3,0,3.3v10.1c0.7,0.6,1.6,1.3,2.6,0.8c0.6-0.3,1-1.2,1-2.2     c0.1-1.5,0-3.4,0-5.4C260.7,224.7,260.8,222.7,260.7,221.2z"/><path d="M251.6,127.2c-43.7,0-79.2,35.5-79.2,79.2c0,43.7,35.5,79.2,79.2,79.2c43.8,0,79.2-35.5,79.2-79.2     C330.8,162.7,295.4,127.2,251.6,127.2z M251.6,282.3c-41.8,0-75.9-34-75.9-75.9c0-41.9,34-75.9,75.9-75.9     c41.9,0,75.9,34,75.9,75.9C327.5,248.3,293.5,282.3,251.6,282.3z"/><path d="M251.6,123.9c-45.5,0-82.5,37-82.5,82.5c0,45.5,37,82.5,82.5,82.5c45.5,0,82.5-37,82.5-82.5     C334.2,160.9,297.1,123.9,251.6,123.9z M251.6,282.3c-41.8,0-75.9-34-75.9-75.9c0-41.9,34-75.9,75.9-75.9     c41.9,0,75.9,34,75.9,75.9C327.5,248.3,293.5,282.3,251.6,282.3z"/></g><g><path d="M246,166.8c-1.4,4.6-3.3,10.8-4.8,15.5c-0.2,0.7-0.5,1.4-0.6,2c-0.1,1.9,0,10,0,12.1h-4.5c0-2,0.1-11.8,0.1-11.8     s-0.7-3.2-1.1-4.7c-1.3-4.3-3-8.7-4.3-13c-0.1,0,0-0.1-0.1-0.2h4.6c1,3.9,2.1,7.7,3.1,11.6c1-3.6,2.1-7.9,3-11.6L246,166.8z"/><path d="M257,176.9c-0.9-1.7-2.8-2.8-5.2-2.8c-2.6,0.1-4.4,1.4-5.2,3.3c-0.8,1.9-0.6,5.4-0.6,8.5c0,2.9-0.1,6.5,0.8,8.2     c0.5,0.9,1.4,1.8,2.3,2.2c3,1.5,6.7,0.2,7.9-2.4c0.8-1.7,0.8-5.8,0.8-8.5C257.8,182.3,258,178.9,257,176.9z M253.7,191.3     c0,0.1,0,0.1,0,0.1c-0.3,1.3-1.1,2-2.5,1.6c-0.6-0.2-0.9-0.8-1.1-1.7v-11.4c0.2-1.2,0.7-2.1,1.8-2.1c1,0,1.5,0.7,1.8,1.6V191.3z"/><path d="M268.6,196.4v-2.2c0,1.8-2.3,2.2-3.6,2.3c-3.8-0.3-3.6-1.9-3.9-3.1c-0.2-3,0-6.2,0-9.5v-9.4c0-0.1,0-0.2,0.1-0.2h3.9     v17.4c0,1.1,0.8,2,1.7,2c1,0,1.8-0.9,1.8-2v-0.4c0-0.1,0-0.2,0-0.2v-16.8h4c0.1,7.3,0.1,14.7,0.1,22.1H268.6z"/><path d="M275.8,224h-4c-0.2-2.4-0.1-5.9,2.7-5C276,219.5,275.8,222.1,275.8,224z"/><path d="M285,211.6c-0.2-1.6-0.3-3-0.7-4.3c-1.1-3.9-4.3-5.7-8.9-5.9c-3-0.1-6.3-0.3-9.5-0.4c-6.4-0.2-13.2-0.5-19.6-0.2     c-3,0.2-5.8,0.1-8.6,0.2c-2.8,0.1-5.6,0.2-8.3,0.3c-3,0.1-5.2,0.3-7.1,1.5c-1.7,1.1-3.1,2.7-3.6,5c-0.5,2.3-0.7,4.8-0.9,7.7     c-0.5,6.9-0.4,14.1,0.4,20.5c0.2,1.3,0.3,2.6,0.6,3.7c1.2,3.8,4.3,5.6,8.9,5.8c14.1,0.7,29.1,0.8,43.4,0.2     c3.2-0.1,6.6-0.1,8.8-1.1c2.2-1,3.9-2.9,4.5-5.4c0.6-2.6,0.8-5.8,1-8.8C286,224.1,285.7,217.5,285,211.6z M232.6,212.3v25.4h-4.5     v-25.4h-4.7v-4.1c0-0.1,0-0.2,0.1-0.2c4.6,0,9.4-0.1,14,0.1v4.1C235.9,212.3,234.2,212.2,232.6,212.3z M249,237.5H245v-2.2     c-1.1,1-3.3,3.2-5.7,2.4c-1.8-0.6-1.8-3.1-1.8-5.8v-16.3c0-0.1,0-0.2,0.1-0.2h4v14.5c0,0.7-0.1,2,0,2.9c0,0.5,0.1,0.9,0.3,1.1     c0.2,0.3,0.4,0.5,0.7,0.6c1.3,0.4,2.1-0.3,2.4-1.6c0-0.1,0-0.1,0-0.2v-0.5c0.1-0.5,0-1.5,0-2.2v-14.7c1.2-0.1,2.7,0,4.1-0.1     V237.5z M263.2,237.3c-2.2,1.9-5,0-6.2-1.7v2h-4.1v-29.5c0-0.1,0-0.2,0.1-0.2h4v9.5c1-1.3,4.2-3.4,6.3-1.5     c2,1.8,1.4,7.5,1.4,11.5C264.7,231.5,265.1,235.7,263.2,237.3z M272.6,234c0.6,0.4,1.4,0.4,1.9,0.2c1.3-0.5,1.1-2.5,1.1-4.2h4.1     c0.5,5-1.9,8-5.9,8c-2.4,0-4.5-1.1-5.5-3.2c-1-2.1-0.7-5.1-0.7-8.2c0-3.1-0.3-6.1,0.7-8.2c0.8-1.8,2.8-3.2,5.2-3.2     c6.1-0.1,6.5,5.6,6.2,12.1h-8C272,229.7,271.3,232.9,272.6,234z"/><path d="M260.7,226.6c0,2,0.1,3.9,0,5.4c-0.1,0.9-0.5,1.9-1,2.2c-1.1,0.5-2-0.2-2.6-0.8v-10.1c0-1-0.2-2.5,0-3.3     c0.2-0.7,1.7-1.4,2.7-0.9c0.5,0.3,0.9,1.2,1,2.1C260.8,222.7,260.7,224.7,260.7,226.6z"/></g><path d="M251.6,491.9c-1.8,0-3.3-1.5-3.3-3.3V483c0-1.8,1.5-3.3,3.3-3.3c1.8,0,3.3,1.5,3.3,3.3v5.6    C254.9,490.4,253.5,491.9,251.6,491.9z"/><path d="M251.6,466.4c-1.8,0-3.3-1.5-3.3-3.3v-20.3c0-1.8,1.5-3.3,3.3-3.3c1.8,0,3.3,1.5,3.3,3.3v20.3    C254.9,465,253.5,466.4,251.6,466.4z"/><path d="M251.6,419.8c-1.8,0-3.3-1.5-3.3-3.3V346c0-1.8,1.5-3.3,3.3-3.3c1.8,0,3.3,1.5,3.3,3.3v70.4    C254.9,418.3,253.5,419.8,251.6,419.8z"/><path d="M251.6,332.5c-1.8,0-3.3-1.5-3.3-3.3v-8.8c0-1.8,1.5-3.3,3.3-3.3c1.8,0,3.3,1.5,3.3,3.3v8.8    C254.9,331,253.5,332.5,251.6,332.5z"/><path d="M292,426.7c-1.8,0-3.3-1.5-3.3-3.3V403c0-1.8,1.5-3.3,3.3-3.3c1.8,0,3.3,1.5,3.3,3.3v20.3    C295.4,425.2,293.9,426.7,292,426.7z"/><path d="M292,380c-1.8,0-3.3-1.5-3.3-3.3v-43.9c0-1.8,1.5-3.3,3.3-3.3c1.8,0,3.3,1.5,3.3,3.3v43.9C295.4,378.5,293.9,380,292,380z    "/><path d="M292,319.2c-1.8,0-3.3-1.5-3.3-3.3V307c0-1.8,1.5-3.3,3.3-3.3c1.8,0,3.3,1.5,3.3,3.3v8.8    C295.4,317.7,293.9,319.2,292,319.2z"/><path d="M292,448.4c-1.8,0-3.3-1.5-3.3-3.3v-1.9c0-1.8,1.5-3.3,3.3-3.3c1.8,0,3.3,1.5,3.3,3.3v1.9    C295.4,446.9,293.9,448.4,292,448.4z"/><path d="M211.2,380.8c-1.8,0-3.3-1.5-3.3-3.3V307c0-1.8,1.5-3.3,3.3-3.3s3.3,1.5,3.3,3.3v70.4C214.5,379.3,213,380.8,211.2,380.8z    "/><path d="M211.2,406.5c-1.8,0-3.3-1.5-3.3-3.3v-8.8c0-1.8,1.5-3.3,3.3-3.3s3.3,1.5,3.3,3.3v8.8C214.5,405,213,406.5,211.2,406.5z"/></g></g><g id="Tumblr"/><g id="Facebook"/><g id="Instagram"/><g id="Youtube"/><g id="Whatsapp"/><g id="Reddit"/><g id="Snapachat"/><g id="Pinterest"/><g id="Google_x2B_"/><g id="GitHub"/><g id="Dribbble"/><g id="Deviant_Art"/><g id="Behance"/></svg>