<?xml version="1.0" ?><svg style="enable-background:new 0 0 512 512;" version="1.1" viewBox="0 0 512 512" xml:space="preserve" xmlns="http://www.w3.org/2000/svg" xmlns:xlink="http://www.w3.org/1999/xlink"><style type="text/css">
	.st0{fill-rule:evenodd;clip-rule:evenodd;}
</style><g id="LinkedIn"/><g id="Twitter"/><g id="Youtube_2"/><g id="Tumblr"/><g id="Facebook"/><g id="Instagram"/><g id="Youtube"/><g id="Whatsapp"><g><g><circle cx="227.9" cy="31.5" r="12.3"/><circle cx="396.3" cy="228.4" r="12.3"/><circle cx="115.7" cy="228.4" r="12.3"/><path d="M363.7,85.6c-1.8,0-3.3-1.5-3.3-3.3v-8.9c0-1.8,1.5-3.3,3.3-3.3c1.8,0,3.3,1.5,3.3,3.3v8.9     C367.1,84.1,365.6,85.6,363.7,85.6z"/><path d="M377.8,91.4c-0.9,0-1.7-0.3-2.3-1c-1.3-1.3-1.3-3.4,0-4.7l6.3-6.3c1.3-1.3,3.4-1.3,4.7,0c1.3,1.3,1.3,3.4,0,4.7l-6.3,6.3     C379.5,91.1,378.6,91.4,377.8,91.4z"/><path d="M392.5,105.4h-8.7c-1.8,0-3.3-1.5-3.3-3.3c0-1.8,1.5-3.3,3.3-3.3h8.7c1.8,0,3.3,1.5,3.3,3.3     C395.8,104,394.3,105.4,392.5,105.4z"/><path d="M384.1,125.7c-0.8,0-1.7-0.3-2.3-1l-6.3-6.3c-1.3-1.3-1.3-3.4,0-4.7c1.3-1.3,3.4-1.3,4.7,0l6.3,6.3     c1.3,1.3,1.3,3.4,0,4.7C385.7,125.4,384.9,125.7,384.1,125.7z"/><path d="M363.7,134.2c-1.8,0-3.3-1.5-3.3-3.3v-8.7c0-1.8,1.5-3.3,3.3-3.3c1.8,0,3.3,1.5,3.3,3.3v8.7     C367.1,132.7,365.6,134.2,363.7,134.2z"/><path d="M343.4,125.7c-0.9,0-1.7-0.3-2.3-1c-1.3-1.3-1.3-3.4,0-4.7l6.3-6.3c1.3-1.3,3.4-1.3,4.7,0c1.3,1.3,1.3,3.4,0,4.7     l-6.3,6.3C345.1,125.4,344.3,125.7,343.4,125.7z"/><path d="M343.8,105.4H335c-1.8,0-3.3-1.5-3.3-3.3c0-1.8,1.5-3.3,3.3-3.3h8.7c1.8,0,3.3,1.5,3.3,3.3     C347.1,104,345.6,105.4,343.8,105.4z"/><path d="M349.7,91.4c-0.9,0-1.7-0.3-2.3-1l-6.3-6.3c-1.3-1.3-1.3-3.4,0-4.7c1.3-1.3,3.4-1.3,4.7,0l6.3,6.3c1.3,1.3,1.3,3.4,0,4.7     C351.4,91.1,350.6,91.4,349.7,91.4z"/><path d="M147.2,102.3c-1.8,0-3.3-1.5-3.3-3.3v-8.2c0-1.8,1.5-3.3,3.3-3.3c1.8,0,3.3,1.5,3.3,3.3V99     C150.5,100.8,149,102.3,147.2,102.3z"/><path d="M147.2,138.9c-1.8,0-3.3-1.5-3.3-3.3v-8.2c0-1.8,1.5-3.3,3.3-3.3c1.8,0,3.3,1.5,3.3,3.3v8.2     C150.5,137.4,149,138.9,147.2,138.9z"/><path d="M169.7,116.5h-8.2c-1.8,0-3.3-1.5-3.3-3.3c0-1.8,1.5-3.3,3.3-3.3h8.2c1.8,0,3.3,1.5,3.3,3.3     C173,115,171.5,116.5,169.7,116.5z"/><path d="M133,116.5h-8.2c-1.8,0-3.3-1.5-3.3-3.3c0-1.8,1.5-3.3,3.3-3.3h8.2c1.8,0,3.3,1.5,3.3,3.3     C136.3,115,134.8,116.5,133,116.5z"/></g><path d="M270.6,216.6c0.3,0.4,0.3,2.5-0.6,4.8c-0.8,2.4-4.9,4.5-6.8,4.8c-1.7,0.3-4,0.4-6.4-0.4c-1.5-0.5-3.3-1.1-5.8-2.1    c-10.1-4.4-16.8-14.6-17.3-15.3c-0.5-0.7-4.1-5.5-4.1-10.5c0-5,2.6-7.4,3.5-8.4c0.9-1,2-1.3,2.7-1.3c0.7,0,1.4,0,1.9,0    c0.6,0,1.5-0.2,2.3,1.7c0.8,2,2.9,7,3.1,7.5c0.3,0.5,0.4,1.1,0.1,1.8c-0.3,0.7-0.5,1.1-1,1.7c-0.5,0.6-1.1,1.3-1.5,1.8    c-0.5,0.5-1,1.1-0.4,2.1c0.6,1,2.6,4.3,5.6,7c3.9,3.5,7.1,4.5,8.1,5c1,0.5,1.6,0.4,2.2-0.3c0.6-0.7,2.5-3,3.2-4    c0.7-1,1.3-0.8,2.3-0.5c0.9,0.3,5.9,2.8,6.9,3.3C269.7,215.9,270.3,216.1,270.6,216.6z"/><path d="M278.8,178.3c-7.6-7.7-17.8-11.9-28.6-11.9c-22.3,0-40.5,18.2-40.5,40.5c0,7.1,1.9,14.1,5.4,20.2l-5.7,21l21.5-5.6    c5.9,3.2,12.6,4.9,19.3,4.9h0c22.3,0,40.5-18.2,40.5-40.5C290.7,196.1,286.5,186,278.8,178.3z M250.2,240.6L250.2,240.6    c-6,0-12-1.6-17.1-4.7l-1.2-0.7l-12.7,3.3l3.4-12.4l-0.8-1.3c-3.4-5.4-5.2-11.5-5.1-17.9c0-18.5,15.1-33.6,33.7-33.6    c9,0,17.4,3.5,23.8,9.9c6.4,6.4,9.9,14.8,9.8,23.8C283.8,225.5,268.7,240.6,250.2,240.6z"/><path d="M246.7,128.1c-43.7,0-79.2,35.5-79.2,79.2s35.5,79.2,79.2,79.2c43.8,0,79.2-35.5,79.2-79.2S290.5,128.1,246.7,128.1z     M246.7,283.2c-41.9,0-75.9-34-75.9-75.9c0-41.8,34-75.9,75.9-75.9c41.8,0,75.9,34,75.9,75.9C322.6,249.1,288.6,283.2,246.7,283.2    z"/><path d="M246.7,124.8c-45.5,0-82.5,37-82.5,82.5c0,45.5,37,82.5,82.5,82.5c45.5,0,82.5-37,82.5-82.5    C329.2,161.8,292.2,124.8,246.7,124.8z M246.7,283.2c-41.9,0-75.9-34-75.9-75.9c0-41.8,34-75.9,75.9-75.9    c41.8,0,75.9,34,75.9,75.9C322.6,249.1,288.6,283.2,246.7,283.2z"/><path d="M246.7,492.7c-1.8,0-3.3-1.5-3.3-3.3v-5.6c0-1.8,1.5-3.3,3.3-3.3c1.8,0,3.3,1.5,3.3,3.3v5.6    C250,491.2,248.5,492.7,246.7,492.7z"/><path d="M246.7,467.3c-1.8,0-3.3-1.5-3.3-3.3v-20.3c0-1.8,1.5-3.3,3.3-3.3c1.8,0,3.3,1.5,3.3,3.3V464    C250,465.8,248.5,467.3,246.7,467.3z"/><path d="M246.7,420.6c-1.8,0-3.3-1.5-3.3-3.3v-70.4c0-1.8,1.5-3.3,3.3-3.3c1.8,0,3.3,1.5,3.3,3.3v70.4    C250,419.1,248.5,420.6,246.7,420.6z"/><path d="M246.7,333.3c-1.8,0-3.3-1.5-3.3-3.3v-8.8c0-1.8,1.5-3.3,3.3-3.3c1.8,0,3.3,1.5,3.3,3.3v8.8    C250,331.8,248.5,333.3,246.7,333.3z"/><path d="M287.1,427.5c-1.8,0-3.3-1.5-3.3-3.3v-20.3c0-1.8,1.5-3.3,3.3-3.3c1.8,0,3.3,1.5,3.3,3.3v20.3    C290.4,426,289,427.5,287.1,427.5z"/><path d="M287.1,380.8c-1.8,0-3.3-1.5-3.3-3.3v-43.9c0-1.8,1.5-3.3,3.3-3.3c1.8,0,3.3,1.5,3.3,3.3v43.9    C290.4,379.3,289,380.8,287.1,380.8z"/><path d="M287.1,320c-1.8,0-3.3-1.5-3.3-3.3v-8.8c0-1.8,1.5-3.3,3.3-3.3c1.8,0,3.3,1.5,3.3,3.3v8.8C290.4,318.5,289,320,287.1,320z    "/><path d="M287.1,449.2c-1.8,0-3.3-1.5-3.3-3.3V444c0-1.8,1.5-3.3,3.3-3.3c1.8,0,3.3,1.5,3.3,3.3v1.9    C290.4,447.7,289,449.2,287.1,449.2z"/><path d="M206.3,381.6c-1.8,0-3.3-1.5-3.3-3.3v-70.4c0-1.8,1.5-3.3,3.3-3.3s3.3,1.5,3.3,3.3v70.4    C209.6,380.2,208.1,381.6,206.3,381.6z"/><path d="M206.3,407.3c-1.8,0-3.3-1.5-3.3-3.3v-8.8c0-1.8,1.5-3.3,3.3-3.3s3.3,1.5,3.3,3.3v8.8    C209.6,405.8,208.1,407.3,206.3,407.3z"/><path d="M278.8,178.3c-7.6-7.7-17.8-11.9-28.6-11.9c-22.3,0-40.5,18.2-40.5,40.5c0,7.1,1.9,14.1,5.4,20.2l-5.7,21l21.5-5.6    c5.9,3.2,12.6,4.9,19.3,4.9h0c22.3,0,40.5-18.2,40.5-40.5C290.7,196.1,286.5,186,278.8,178.3z M250.2,240.6L250.2,240.6    c-6,0-12-1.6-17.1-4.7l-1.2-0.7l-12.7,3.3l3.4-12.4l-0.8-1.3c-3.4-5.4-5.2-11.5-5.1-17.9c0-18.5,15.1-33.6,33.7-33.6    c9,0,17.4,3.5,23.8,9.9c6.4,6.4,9.9,14.8,9.8,23.8C283.8,225.5,268.7,240.6,250.2,240.6z"/><path class="st0" d="M270.6,216.6c-0.3-0.4-0.9-0.7-1.9-1.2c-1-0.5-6-3-6.9-3.3c-0.9-0.3-1.6-0.5-2.3,0.5c-0.7,1-2.6,3.3-3.2,4    c-0.6,0.7-1.2,0.8-2.2,0.3c-1-0.5-4.3-1.6-8.1-5c-3-2.7-5-6-5.6-7c-0.6-1-0.1-1.6,0.4-2.1c0.5-0.5,1-1.2,1.5-1.8    c0.5-0.6,0.7-1,1-1.7c0.3-0.7,0.2-1.3-0.1-1.8c-0.3-0.5-2.3-5.5-3.1-7.5c-0.8-2-1.7-1.7-2.3-1.7c-0.6,0-1.3,0-1.9,0    c-0.7,0-1.8,0.3-2.7,1.3c-0.9,1-3.5,3.5-3.5,8.4c0,5,3.6,9.8,4.1,10.5c0.5,0.7,7.1,10.9,17.3,15.3c2.4,1,4.3,1.7,5.8,2.1    c2.4,0.8,4.6,0.7,6.4,0.4c1.9-0.3,6-2.5,6.8-4.8C270.8,219,270.8,217,270.6,216.6z"/></g></g><g id="Reddit"/><g id="Snapachat"/><g id="Pinterest"/><g id="Google_x2B_"/><g id="GitHub"/><g id="Dribbble"/><g id="Deviant_Art"/><g id="Behance"/></svg>