<?xml version="1.0" ?><svg style="enable-background:new 0 0 512 512;" version="1.1" viewBox="0 0 512 512" xml:space="preserve" xmlns="http://www.w3.org/2000/svg" xmlns:xlink="http://www.w3.org/1999/xlink"><style type="text/css">
	.st0{fill-rule:evenodd;clip-rule:evenodd;}
</style><g id="LinkedIn"/><g id="Twitter"/><g id="Youtube_2"/><g id="Tumblr"/><g id="Facebook"/><g id="Instagram"/><g id="Youtube"/><g id="Whatsapp"/><g id="Reddit"/><g id="Snapachat"/><g id="Pinterest"/><g id="Google_x2B_"/><g id="GitHub"/><g id="Dribbble"><g><path d="M252.2,165.7c-24.2,0-43.8,19.6-43.8,43.8c0,24.2,19.6,43.8,43.8,43.8c24.2,0,43.8-19.6,43.8-43.8    C296,185.3,276.4,165.7,252.2,165.7z M281,186.9c4.7,6,7.6,13.4,7.8,21.6c-9.8-1.7-18.3-1.8-25.6-0.6c-0.9-2.1-1.9-4.2-2.9-6.2    C268.2,198.4,275.2,193.7,281,186.9z M252.2,172.9c9.1,0,17.3,3.3,23.7,8.7c-5.1,6.3-11.6,10.6-18.9,13.5    c-4.7-8.7-9.5-15.9-13.3-21.2C246.4,173.3,249.3,172.9,252.2,172.9z M236.5,176.4c3.7,5,8.7,12.2,13.5,21    c-10.3,2.8-21.8,3.6-33.4,3.6C219.2,190.2,226.7,181.2,236.5,176.4z M215.7,209.5v-1.2h0.2c13,0,26-0.9,37.6-4.3    c0.8,1.8,1.7,3.5,2.5,5.4c-15.3,4.5-24.8,14.5-31.3,24.1C219.1,227.1,215.7,218.7,215.7,209.5z M252.2,246c-8.3,0-16-2.8-22.2-7.5    c6.2-9.3,14.8-18.5,28.8-22.4c3.3,8.4,6,17.5,7.4,27.1C261.9,245,257.2,246,252.2,246z M272.9,239.6c-1.5-8.8-3.9-17.1-6.9-24.9    c6.4-0.8,13.8-0.6,22.3,1C286.6,225.6,280.9,234.1,272.9,239.6z M252.2,165.7c-24.2,0-43.8,19.6-43.8,43.8    c0,24.2,19.6,43.8,43.8,43.8c24.2,0,43.8-19.6,43.8-43.8C296,185.3,276.4,165.7,252.2,165.7z M281,186.9c4.7,6,7.6,13.4,7.8,21.6    c-9.8-1.7-18.3-1.8-25.6-0.6c-0.9-2.1-1.9-4.2-2.9-6.2C268.2,198.4,275.2,193.7,281,186.9z M252.2,172.9c9.1,0,17.3,3.3,23.7,8.7    c-5.1,6.3-11.6,10.6-18.9,13.5c-4.7-8.7-9.5-15.9-13.3-21.2C246.4,173.3,249.3,172.9,252.2,172.9z M236.5,176.4    c3.7,5,8.7,12.2,13.5,21c-10.3,2.8-21.8,3.6-33.4,3.6C219.2,190.2,226.7,181.2,236.5,176.4z M215.7,209.5v-1.2h0.2    c13,0,26-0.9,37.6-4.3c0.8,1.8,1.7,3.5,2.5,5.4c-15.3,4.5-24.8,14.5-31.3,24.1C219.1,227.1,215.7,218.7,215.7,209.5z M252.2,246    c-8.3,0-16-2.8-22.2-7.5c6.2-9.3,14.8-18.5,28.8-22.4c3.3,8.4,6,17.5,7.4,27.1C261.9,245,257.2,246,252.2,246z M272.9,239.6    c-1.5-8.8-3.9-17.1-6.9-24.9c6.4-0.8,13.8-0.6,22.3,1C286.6,225.6,280.9,234.1,272.9,239.6z M252.2,165.7    c-24.2,0-43.8,19.6-43.8,43.8c0,24.2,19.6,43.8,43.8,43.8c24.2,0,43.8-19.6,43.8-43.8C296,185.3,276.4,165.7,252.2,165.7z     M281,186.9c4.7,6,7.6,13.4,7.8,21.6c-9.8-1.7-18.3-1.8-25.6-0.6c-0.9-2.1-1.9-4.2-2.9-6.2C268.2,198.4,275.2,193.7,281,186.9z     M252.2,172.9c9.1,0,17.3,3.3,23.7,8.7c-5.1,6.3-11.6,10.6-18.9,13.5c-4.7-8.7-9.5-15.9-13.3-21.2    C246.4,173.3,249.3,172.9,252.2,172.9z M236.5,176.4c3.7,5,8.7,12.2,13.5,21c-10.3,2.8-21.8,3.6-33.4,3.6    C219.2,190.2,226.7,181.2,236.5,176.4z M215.7,209.5v-1.2h0.2c13,0,26-0.9,37.6-4.3c0.8,1.8,1.7,3.5,2.5,5.4    c-15.3,4.5-24.8,14.5-31.3,24.1C219.1,227.1,215.7,218.7,215.7,209.5z M252.2,246c-8.3,0-16-2.8-22.2-7.5    c6.2-9.3,14.8-18.5,28.8-22.4c3.3,8.4,6,17.5,7.4,27.1C261.9,245,257.2,246,252.2,246z M272.9,239.6c-1.5-8.8-3.9-17.1-6.9-24.9    c6.4-0.8,13.8-0.6,22.3,1C286.6,225.6,280.9,234.1,272.9,239.6z M252.2,165.7c-24.2,0-43.8,19.6-43.8,43.8    c0,24.2,19.6,43.8,43.8,43.8c24.2,0,43.8-19.6,43.8-43.8C296,185.3,276.4,165.7,252.2,165.7z M281,186.9c4.7,6,7.6,13.4,7.8,21.6    c-9.8-1.7-18.3-1.8-25.6-0.6c-0.9-2.1-1.9-4.2-2.9-6.2C268.2,198.4,275.2,193.7,281,186.9z M252.2,172.9c9.1,0,17.3,3.3,23.7,8.7    c-5.1,6.3-11.6,10.6-18.9,13.5c-4.7-8.7-9.5-15.9-13.3-21.2C246.4,173.3,249.3,172.9,252.2,172.9z M236.5,176.4    c3.7,5,8.7,12.2,13.5,21c-10.3,2.8-21.8,3.6-33.4,3.6C219.2,190.2,226.7,181.2,236.5,176.4z M215.7,209.5v-1.2h0.2    c13,0,26-0.9,37.6-4.3c0.8,1.8,1.7,3.5,2.5,5.4c-15.3,4.5-24.8,14.5-31.3,24.1C219.1,227.1,215.7,218.7,215.7,209.5z M252.2,246    c-8.3,0-16-2.8-22.2-7.5c6.2-9.3,14.8-18.5,28.8-22.4c3.3,8.4,6,17.5,7.4,27.1C261.9,245,257.2,246,252.2,246z M272.9,239.6    c-1.5-8.8-3.9-17.1-6.9-24.9c6.4-0.8,13.8-0.6,22.3,1C286.6,225.6,280.9,234.1,272.9,239.6z M252.2,165.7    c-24.2,0-43.8,19.6-43.8,43.8c0,24.2,19.6,43.8,43.8,43.8c24.2,0,43.8-19.6,43.8-43.8C296,185.3,276.4,165.7,252.2,165.7z     M281,186.9c4.7,6,7.6,13.4,7.8,21.6c-9.8-1.7-18.3-1.8-25.6-0.6c-0.9-2.1-1.9-4.2-2.9-6.2C268.2,198.4,275.2,193.7,281,186.9z     M252.2,172.9c9.1,0,17.3,3.3,23.7,8.7c-5.1,6.3-11.6,10.6-18.9,13.5c-4.7-8.7-9.5-15.9-13.3-21.2    C246.4,173.3,249.3,172.9,252.2,172.9z M236.5,176.4c3.7,5,8.7,12.2,13.5,21c-10.3,2.8-21.8,3.6-33.4,3.6    C219.2,190.2,226.7,181.2,236.5,176.4z M215.7,209.5v-1.2h0.2c13,0,26-0.9,37.6-4.3c0.8,1.8,1.7,3.5,2.5,5.4    c-15.3,4.5-24.8,14.5-31.3,24.1C219.1,227.1,215.7,218.7,215.7,209.5z M252.2,246c-8.3,0-16-2.8-22.2-7.5    c6.2-9.3,14.8-18.5,28.8-22.4c3.3,8.4,6,17.5,7.4,27.1C261.9,245,257.2,246,252.2,246z M272.9,239.6c-1.5-8.8-3.9-17.1-6.9-24.9    c6.4-0.8,13.8-0.6,22.3,1C286.6,225.6,280.9,234.1,272.9,239.6z M252.2,165.7c-24.2,0-43.8,19.6-43.8,43.8    c0,24.2,19.6,43.8,43.8,43.8c24.2,0,43.8-19.6,43.8-43.8C296,185.3,276.4,165.7,252.2,165.7z M281,186.9c4.7,6,7.6,13.4,7.8,21.6    c-9.8-1.7-18.3-1.8-25.6-0.6c-0.9-2.1-1.9-4.2-2.9-6.2C268.2,198.4,275.2,193.7,281,186.9z M252.2,172.9c9.1,0,17.3,3.3,23.7,8.7    c-5.1,6.3-11.6,10.6-18.9,13.5c-4.7-8.7-9.5-15.9-13.3-21.2C246.4,173.3,249.3,172.9,252.2,172.9z M236.5,176.4    c3.7,5,8.7,12.2,13.5,21c-10.3,2.8-21.8,3.6-33.4,3.6C219.2,190.2,226.7,181.2,236.5,176.4z M215.7,209.5v-1.2h0.2    c13,0,26-0.9,37.6-4.3c0.8,1.8,1.7,3.5,2.5,5.4c-15.3,4.5-24.8,14.5-31.3,24.1C219.1,227.1,215.7,218.7,215.7,209.5z M252.2,246    c-8.3,0-16-2.8-22.2-7.5c6.2-9.3,14.8-18.5,28.8-22.4c3.3,8.4,6,17.5,7.4,27.1C261.9,245,257.2,246,252.2,246z M272.9,239.6    c-1.5-8.8-3.9-17.1-6.9-24.9c6.4-0.8,13.8-0.6,22.3,1C286.6,225.6,280.9,234.1,272.9,239.6z M252.2,165.7    c-24.2,0-43.8,19.6-43.8,43.8c0,24.2,19.6,43.8,43.8,43.8c24.2,0,43.8-19.6,43.8-43.8C296,185.3,276.4,165.7,252.2,165.7z     M281,186.9c4.7,6,7.6,13.4,7.8,21.6c-9.8-1.7-18.3-1.8-25.6-0.6c-0.9-2.1-1.9-4.2-2.9-6.2C268.2,198.4,275.2,193.7,281,186.9z     M252.2,172.9c9.1,0,17.3,3.3,23.7,8.7c-5.1,6.3-11.6,10.6-18.9,13.5c-4.7-8.7-9.5-15.9-13.3-21.2    C246.4,173.3,249.3,172.9,252.2,172.9z M236.5,176.4c3.7,5,8.7,12.2,13.5,21c-10.3,2.8-21.8,3.6-33.4,3.6    C219.2,190.2,226.7,181.2,236.5,176.4z M215.7,209.5v-1.2h0.2c13,0,26-0.9,37.6-4.3c0.8,1.8,1.7,3.5,2.5,5.4    c-15.3,4.5-24.8,14.5-31.3,24.1C219.1,227.1,215.7,218.7,215.7,209.5z M252.2,246c-8.3,0-16-2.8-22.2-7.5    c6.2-9.3,14.8-18.5,28.8-22.4c3.3,8.4,6,17.5,7.4,27.1C261.9,245,257.2,246,252.2,246z M272.9,239.6c-1.5-8.8-3.9-17.1-6.9-24.9    c6.4-0.8,13.8-0.6,22.3,1C286.6,225.6,280.9,234.1,272.9,239.6z M252.2,165.7c-24.2,0-43.8,19.6-43.8,43.8    c0,24.2,19.6,43.8,43.8,43.8c24.2,0,43.8-19.6,43.8-43.8C296,185.3,276.4,165.7,252.2,165.7z M281,186.9c4.7,6,7.6,13.4,7.8,21.6    c-9.8-1.7-18.3-1.8-25.6-0.6c-0.9-2.1-1.9-4.2-2.9-6.2C268.2,198.4,275.2,193.7,281,186.9z M252.2,172.9c9.1,0,17.3,3.3,23.7,8.7    c-5.1,6.3-11.6,10.6-18.9,13.5c-4.7-8.7-9.5-15.9-13.3-21.2C246.4,173.3,249.3,172.9,252.2,172.9z M236.5,176.4    c3.7,5,8.7,12.2,13.5,21c-10.3,2.8-21.8,3.6-33.4,3.6C219.2,190.2,226.7,181.2,236.5,176.4z M215.7,209.5v-1.2h0.2    c13,0,26-0.9,37.6-4.3c0.8,1.8,1.7,3.5,2.5,5.4c-15.3,4.5-24.8,14.5-31.3,24.1C219.1,227.1,215.7,218.7,215.7,209.5z M252.2,246    c-8.3,0-16-2.8-22.2-7.5c6.2-9.3,14.8-18.5,28.8-22.4c3.3,8.4,6,17.5,7.4,27.1C261.9,245,257.2,246,252.2,246z M272.9,239.6    c-1.5-8.8-3.9-17.1-6.9-24.9c6.4-0.8,13.8-0.6,22.3,1C286.6,225.6,280.9,234.1,272.9,239.6z M252.2,165.7    c-24.2,0-43.8,19.6-43.8,43.8c0,24.2,19.6,43.8,43.8,43.8c24.2,0,43.8-19.6,43.8-43.8C296,185.3,276.4,165.7,252.2,165.7z     M281,186.9c4.7,6,7.6,13.4,7.8,21.6c-9.8-1.7-18.3-1.8-25.6-0.6c-0.9-2.1-1.9-4.2-2.9-6.2C268.2,198.4,275.2,193.7,281,186.9z     M252.2,172.9c9.1,0,17.3,3.3,23.7,8.7c-5.1,6.3-11.6,10.6-18.9,13.5c-4.7-8.7-9.5-15.9-13.3-21.2    C246.4,173.3,249.3,172.9,252.2,172.9z M236.5,176.4c3.7,5,8.7,12.2,13.5,21c-10.3,2.8-21.8,3.6-33.4,3.6    C219.2,190.2,226.7,181.2,236.5,176.4z M215.7,209.5v-1.2h0.2c13,0,26-0.9,37.6-4.3c0.8,1.8,1.7,3.5,2.5,5.4    c-15.3,4.5-24.8,14.5-31.3,24.1C219.1,227.1,215.7,218.7,215.7,209.5z M252.2,246c-8.3,0-16-2.8-22.2-7.5    c6.2-9.3,14.8-18.5,28.8-22.4c3.3,8.4,6,17.5,7.4,27.1C261.9,245,257.2,246,252.2,246z M272.9,239.6c-1.5-8.8-3.9-17.1-6.9-24.9    c6.4-0.8,13.8-0.6,22.3,1C286.6,225.6,280.9,234.1,272.9,239.6z M252.2,165.7c-24.2,0-43.8,19.6-43.8,43.8    c0,24.2,19.6,43.8,43.8,43.8c24.2,0,43.8-19.6,43.8-43.8C296,185.3,276.4,165.7,252.2,165.7z M281,186.9c4.7,6,7.6,13.4,7.8,21.6    c-9.8-1.7-18.3-1.8-25.6-0.6c-0.9-2.1-1.9-4.2-2.9-6.2C268.2,198.4,275.2,193.7,281,186.9z M252.2,172.9c9.1,0,17.3,3.3,23.7,8.7    c-5.1,6.3-11.6,10.6-18.9,13.5c-4.7-8.7-9.5-15.9-13.3-21.2C246.4,173.3,249.3,172.9,252.2,172.9z M236.5,176.4    c3.7,5,8.7,12.2,13.5,21c-10.3,2.8-21.8,3.6-33.4,3.6C219.2,190.2,226.7,181.2,236.5,176.4z M215.7,209.5v-1.2h0.2    c13,0,26-0.9,37.6-4.3c0.8,1.8,1.7,3.5,2.5,5.4c-15.3,4.5-24.8,14.5-31.3,24.1C219.1,227.1,215.7,218.7,215.7,209.5z M252.2,246    c-8.3,0-16-2.8-22.2-7.5c6.2-9.3,14.8-18.5,28.8-22.4c3.3,8.4,6,17.5,7.4,27.1C261.9,245,257.2,246,252.2,246z M272.9,239.6    c-1.5-8.8-3.9-17.1-6.9-24.9c6.4-0.8,13.8-0.6,22.3,1C286.6,225.6,280.9,234.1,272.9,239.6z M252.2,165.7    c-24.2,0-43.8,19.6-43.8,43.8c0,24.2,19.6,43.8,43.8,43.8c24.2,0,43.8-19.6,43.8-43.8C296,185.3,276.4,165.7,252.2,165.7z     M281,186.9c4.7,6,7.6,13.4,7.8,21.6c-9.8-1.7-18.3-1.8-25.6-0.6c-0.9-2.1-1.9-4.2-2.9-6.2C268.2,198.4,275.2,193.7,281,186.9z     M252.2,172.9c9.1,0,17.3,3.3,23.7,8.7c-5.1,6.3-11.6,10.6-18.9,13.5c-4.7-8.7-9.5-15.9-13.3-21.2    C246.4,173.3,249.3,172.9,252.2,172.9z M236.5,176.4c3.7,5,8.7,12.2,13.5,21c-10.3,2.8-21.8,3.6-33.4,3.6    C219.2,190.2,226.7,181.2,236.5,176.4z M215.7,209.5v-1.2h0.2c13,0,26-0.9,37.6-4.3c0.8,1.8,1.7,3.5,2.5,5.4    c-15.3,4.5-24.8,14.5-31.3,24.1C219.1,227.1,215.7,218.7,215.7,209.5z M252.2,246c-8.3,0-16-2.8-22.2-7.5    c6.2-9.3,14.8-18.5,28.8-22.4c3.3,8.4,6,17.5,7.4,27.1C261.9,245,257.2,246,252.2,246z M272.9,239.6c-1.5-8.8-3.9-17.1-6.9-24.9    c6.4-0.8,13.8-0.6,22.3,1C286.6,225.6,280.9,234.1,272.9,239.6z M252.2,165.7c-24.2,0-43.8,19.6-43.8,43.8    c0,24.2,19.6,43.8,43.8,43.8c24.2,0,43.8-19.6,43.8-43.8C296,185.3,276.4,165.7,252.2,165.7z M281,186.9c4.7,6,7.6,13.4,7.8,21.6    c-9.8-1.7-18.3-1.8-25.6-0.6c-0.9-2.1-1.9-4.2-2.9-6.2C268.2,198.4,275.2,193.7,281,186.9z M252.2,172.9c9.1,0,17.3,3.3,23.7,8.7    c-5.1,6.3-11.6,10.6-18.9,13.5c-4.7-8.7-9.5-15.9-13.3-21.2C246.4,173.3,249.3,172.9,252.2,172.9z M236.5,176.4    c3.7,5,8.7,12.2,13.5,21c-10.3,2.8-21.8,3.6-33.4,3.6C219.2,190.2,226.7,181.2,236.5,176.4z M215.7,209.5v-1.2h0.2    c13,0,26-0.9,37.6-4.3c0.8,1.8,1.7,3.5,2.5,5.4c-15.3,4.5-24.8,14.5-31.3,24.1C219.1,227.1,215.7,218.7,215.7,209.5z M252.2,246    c-8.3,0-16-2.8-22.2-7.5c6.2-9.3,14.8-18.5,28.8-22.4c3.3,8.4,6,17.5,7.4,27.1C261.9,245,257.2,246,252.2,246z M272.9,239.6    c-1.5-8.8-3.9-17.1-6.9-24.9c6.4-0.8,13.8-0.6,22.3,1C286.6,225.6,280.9,234.1,272.9,239.6z M252.2,165.7    c-24.2,0-43.8,19.6-43.8,43.8c0,24.2,19.6,43.8,43.8,43.8c24.2,0,43.8-19.6,43.8-43.8C296,185.3,276.4,165.7,252.2,165.7z     M281,186.9c4.7,6,7.6,13.4,7.8,21.6c-9.8-1.7-18.3-1.8-25.6-0.6c-0.9-2.1-1.9-4.2-2.9-6.2C268.2,198.4,275.2,193.7,281,186.9z     M252.2,172.9c9.1,0,17.3,3.3,23.7,8.7c-5.1,6.3-11.6,10.6-18.9,13.5c-4.7-8.7-9.5-15.9-13.3-21.2    C246.4,173.3,249.3,172.9,252.2,172.9z M236.5,176.4c3.7,5,8.7,12.2,13.5,21c-10.3,2.8-21.8,3.6-33.4,3.6    C219.2,190.2,226.7,181.2,236.5,176.4z M215.7,209.5v-1.2h0.2c13,0,26-0.9,37.6-4.3c0.8,1.8,1.7,3.5,2.5,5.4    c-15.3,4.5-24.8,14.5-31.3,24.1C219.1,227.1,215.7,218.7,215.7,209.5z M252.2,246c-8.3,0-16-2.8-22.2-7.5    c6.2-9.3,14.8-18.5,28.8-22.4c3.3,8.4,6,17.5,7.4,27.1C261.9,245,257.2,246,252.2,246z M272.9,239.6c-1.5-8.8-3.9-17.1-6.9-24.9    c6.4-0.8,13.8-0.6,22.3,1C286.6,225.6,280.9,234.1,272.9,239.6z M252.2,165.7c-24.2,0-43.8,19.6-43.8,43.8    c0,24.2,19.6,43.8,43.8,43.8c24.2,0,43.8-19.6,43.8-43.8C296,185.3,276.4,165.7,252.2,165.7z M281,186.9c4.7,6,7.6,13.4,7.8,21.6    c-9.8-1.7-18.3-1.8-25.6-0.6c-0.9-2.1-1.9-4.2-2.9-6.2C268.2,198.4,275.2,193.7,281,186.9z M252.2,172.9c9.1,0,17.3,3.3,23.7,8.7    c-5.1,6.3-11.6,10.6-18.9,13.5c-4.7-8.7-9.5-15.9-13.3-21.2C246.4,173.3,249.3,172.9,252.2,172.9z M236.5,176.4    c3.7,5,8.7,12.2,13.5,21c-10.3,2.8-21.8,3.6-33.4,3.6C219.2,190.2,226.7,181.2,236.5,176.4z M215.7,209.5v-1.2h0.2    c13,0,26-0.9,37.6-4.3c0.8,1.8,1.7,3.5,2.5,5.4c-15.3,4.5-24.8,14.5-31.3,24.1C219.1,227.1,215.7,218.7,215.7,209.5z M252.2,246    c-8.3,0-16-2.8-22.2-7.5c6.2-9.3,14.8-18.5,28.8-22.4c3.3,8.4,6,17.5,7.4,27.1C261.9,245,257.2,246,252.2,246z M272.9,239.6    c-1.5-8.8-3.9-17.1-6.9-24.9c6.4-0.8,13.8-0.6,22.3,1C286.6,225.6,280.9,234.1,272.9,239.6z M252.2,165.7    c-24.2,0-43.8,19.6-43.8,43.8c0,24.2,19.6,43.8,43.8,43.8c24.2,0,43.8-19.6,43.8-43.8C296,185.3,276.4,165.7,252.2,165.7z     M281,186.9c4.7,6,7.6,13.4,7.8,21.6c-9.8-1.7-18.3-1.8-25.6-0.6c-0.9-2.1-1.9-4.2-2.9-6.2C268.2,198.4,275.2,193.7,281,186.9z     M252.2,172.9c9.1,0,17.3,3.3,23.7,8.7c-5.1,6.3-11.6,10.6-18.9,13.5c-4.7-8.7-9.5-15.9-13.3-21.2    C246.4,173.3,249.3,172.9,252.2,172.9z M236.5,176.4c3.7,5,8.7,12.2,13.5,21c-10.3,2.8-21.8,3.6-33.4,3.6    C219.2,190.2,226.7,181.2,236.5,176.4z M215.7,209.5v-1.2h0.2c13,0,26-0.9,37.6-4.3c0.8,1.8,1.7,3.5,2.5,5.4    c-15.3,4.5-24.8,14.5-31.3,24.1C219.1,227.1,215.7,218.7,215.7,209.5z M252.2,246c-8.3,0-16-2.8-22.2-7.5    c6.2-9.3,14.8-18.5,28.8-22.4c3.3,8.4,6,17.5,7.4,27.1C261.9,245,257.2,246,252.2,246z M272.9,239.6c-1.5-8.8-3.9-17.1-6.9-24.9    c6.4-0.8,13.8-0.6,22.3,1C286.6,225.6,280.9,234.1,272.9,239.6z M252.2,165.7c-24.2,0-43.8,19.6-43.8,43.8    c0,24.2,19.6,43.8,43.8,43.8c24.2,0,43.8-19.6,43.8-43.8C296,185.3,276.4,165.7,252.2,165.7z M281,186.9c4.7,6,7.6,13.4,7.8,21.6    c-9.8-1.7-18.3-1.8-25.6-0.6c-0.9-2.1-1.9-4.2-2.9-6.2C268.2,198.4,275.2,193.7,281,186.9z M252.2,172.9c9.1,0,17.3,3.3,23.7,8.7    c-5.1,6.3-11.6,10.6-18.9,13.5c-4.7-8.7-9.5-15.9-13.3-21.2C246.4,173.3,249.3,172.9,252.2,172.9z M236.5,176.4    c3.7,5,8.7,12.2,13.5,21c-10.3,2.8-21.8,3.6-33.4,3.6C219.2,190.2,226.7,181.2,236.5,176.4z M215.7,209.5v-1.2h0.2    c13,0,26-0.9,37.6-4.3c0.8,1.8,1.7,3.5,2.5,5.4c-15.3,4.5-24.8,14.5-31.3,24.1C219.1,227.1,215.7,218.7,215.7,209.5z M252.2,246    c-8.3,0-16-2.8-22.2-7.5c6.2-9.3,14.8-18.5,28.8-22.4c3.3,8.4,6,17.5,7.4,27.1C261.9,245,257.2,246,252.2,246z M272.9,239.6    c-1.5-8.8-3.9-17.1-6.9-24.9c6.4-0.8,13.8-0.6,22.3,1C286.6,225.6,280.9,234.1,272.9,239.6z M252.2,165.7    c-24.2,0-43.8,19.6-43.8,43.8c0,24.2,19.6,43.8,43.8,43.8c24.2,0,43.8-19.6,43.8-43.8C296,185.3,276.4,165.7,252.2,165.7z     M281,186.9c4.7,6,7.6,13.4,7.8,21.6c-9.8-1.7-18.3-1.8-25.6-0.6c-0.9-2.1-1.9-4.2-2.9-6.2C268.2,198.4,275.2,193.7,281,186.9z     M252.2,172.9c9.1,0,17.3,3.3,23.7,8.7c-5.1,6.3-11.6,10.6-18.9,13.5c-4.7-8.7-9.5-15.9-13.3-21.2    C246.4,173.3,249.3,172.9,252.2,172.9z M236.5,176.4c3.7,5,8.7,12.2,13.5,21c-10.3,2.8-21.8,3.6-33.4,3.6    C219.2,190.2,226.7,181.2,236.5,176.4z M215.7,209.5v-1.2h0.2c13,0,26-0.9,37.6-4.3c0.8,1.8,1.7,3.5,2.5,5.4    c-15.3,4.5-24.8,14.5-31.3,24.1C219.1,227.1,215.7,218.7,215.7,209.5z M252.2,246c-8.3,0-16-2.8-22.2-7.5    c6.2-9.3,14.8-18.5,28.8-22.4c3.3,8.4,6,17.5,7.4,27.1C261.9,245,257.2,246,252.2,246z M272.9,239.6c-1.5-8.8-3.9-17.1-6.9-24.9    c6.4-0.8,13.8-0.6,22.3,1C286.6,225.6,280.9,234.1,272.9,239.6z M252.2,165.7c-24.2,0-43.8,19.6-43.8,43.8    c0,24.2,19.6,43.8,43.8,43.8c24.2,0,43.8-19.6,43.8-43.8C296,185.3,276.4,165.7,252.2,165.7z M281,186.9c4.7,6,7.6,13.4,7.8,21.6    c-9.8-1.7-18.3-1.8-25.6-0.6c-0.9-2.1-1.9-4.2-2.9-6.2C268.2,198.4,275.2,193.7,281,186.9z M252.2,172.9c9.1,0,17.3,3.3,23.7,8.7    c-5.1,6.3-11.6,10.6-18.9,13.5c-4.7-8.7-9.5-15.9-13.3-21.2C246.4,173.3,249.3,172.9,252.2,172.9z M236.5,176.4    c3.7,5,8.7,12.2,13.5,21c-10.3,2.8-21.8,3.6-33.4,3.6C219.2,190.2,226.7,181.2,236.5,176.4z M215.7,209.5v-1.2h0.2    c13,0,26-0.9,37.6-4.3c0.8,1.8,1.7,3.5,2.5,5.4c-15.3,4.5-24.8,14.5-31.3,24.1C219.1,227.1,215.7,218.7,215.7,209.5z M252.2,246    c-8.3,0-16-2.8-22.2-7.5c6.2-9.3,14.8-18.5,28.8-22.4c3.3,8.4,6,17.5,7.4,27.1C261.9,245,257.2,246,252.2,246z M272.9,239.6    c-1.5-8.8-3.9-17.1-6.9-24.9c6.4-0.8,13.8-0.6,22.3,1C286.6,225.6,280.9,234.1,272.9,239.6z M252.2,165.7    c-24.2,0-43.8,19.6-43.8,43.8c0,24.2,19.6,43.8,43.8,43.8c24.2,0,43.8-19.6,43.8-43.8C296,185.3,276.4,165.7,252.2,165.7z     M281,186.9c4.7,6,7.6,13.4,7.8,21.6c-9.8-1.7-18.3-1.8-25.6-0.6c-0.9-2.1-1.9-4.2-2.9-6.2C268.2,198.4,275.2,193.7,281,186.9z     M252.2,172.9c9.1,0,17.3,3.3,23.7,8.7c-5.1,6.3-11.6,10.6-18.9,13.5c-4.7-8.7-9.5-15.9-13.3-21.2    C246.4,173.3,249.3,172.9,252.2,172.9z M236.5,176.4c3.7,5,8.7,12.2,13.5,21c-10.3,2.8-21.8,3.6-33.4,3.6    C219.2,190.2,226.7,181.2,236.5,176.4z M215.7,209.5v-1.2h0.2c13,0,26-0.9,37.6-4.3c0.8,1.8,1.7,3.5,2.5,5.4    c-15.3,4.5-24.8,14.5-31.3,24.1C219.1,227.1,215.7,218.7,215.7,209.5z M252.2,246c-8.3,0-16-2.8-22.2-7.5    c6.2-9.3,14.8-18.5,28.8-22.4c3.3,8.4,6,17.5,7.4,27.1C261.9,245,257.2,246,252.2,246z M272.9,239.6c-1.5-8.8-3.9-17.1-6.9-24.9    c6.4-0.8,13.8-0.6,22.3,1C286.6,225.6,280.9,234.1,272.9,239.6z M252.2,165.7c-24.2,0-43.8,19.6-43.8,43.8    c0,24.2,19.6,43.8,43.8,43.8c24.2,0,43.8-19.6,43.8-43.8C296,185.3,276.4,165.7,252.2,165.7z M281,186.9c4.7,6,7.6,13.4,7.8,21.6    c-9.8-1.7-18.3-1.8-25.6-0.6c-0.9-2.1-1.9-4.2-2.9-6.2C268.2,198.4,275.2,193.7,281,186.9z M252.2,172.9c9.1,0,17.3,3.3,23.7,8.7    c-5.1,6.3-11.6,10.6-18.9,13.5c-4.7-8.7-9.5-15.9-13.3-21.2C246.4,173.3,249.3,172.9,252.2,172.9z M236.5,176.4    c3.7,5,8.7,12.2,13.5,21c-10.3,2.8-21.8,3.6-33.4,3.6C219.2,190.2,226.7,181.2,236.5,176.4z M215.7,209.5v-1.2h0.2    c13,0,26-0.9,37.6-4.3c0.8,1.8,1.7,3.5,2.5,5.4c-15.3,4.5-24.8,14.5-31.3,24.1C219.1,227.1,215.7,218.7,215.7,209.5z M252.2,246    c-8.3,0-16-2.8-22.2-7.5c6.2-9.3,14.8-18.5,28.8-22.4c3.3,8.4,6,17.5,7.4,27.1C261.9,245,257.2,246,252.2,246z M272.9,239.6    c-1.5-8.8-3.9-17.1-6.9-24.9c6.4-0.8,13.8-0.6,22.3,1C286.6,225.6,280.9,234.1,272.9,239.6z M252.2,165.7    c-24.2,0-43.8,19.6-43.8,43.8c0,24.2,19.6,43.8,43.8,43.8c24.2,0,43.8-19.6,43.8-43.8C296,185.3,276.4,165.7,252.2,165.7z     M281,186.9c4.7,6,7.6,13.4,7.8,21.6c-9.8-1.7-18.3-1.8-25.6-0.6c-0.9-2.1-1.9-4.2-2.9-6.2C268.2,198.4,275.2,193.7,281,186.9z     M252.2,172.9c9.1,0,17.3,3.3,23.7,8.7c-5.1,6.3-11.6,10.6-18.9,13.5c-4.7-8.7-9.5-15.9-13.3-21.2    C246.4,173.3,249.3,172.9,252.2,172.9z M236.5,176.4c3.7,5,8.7,12.2,13.5,21c-10.3,2.8-21.8,3.6-33.4,3.6    C219.2,190.2,226.7,181.2,236.5,176.4z M215.7,209.5v-1.2h0.2c13,0,26-0.9,37.6-4.3c0.8,1.8,1.7,3.5,2.5,5.4    c-15.3,4.5-24.8,14.5-31.3,24.1C219.1,227.1,215.7,218.7,215.7,209.5z M252.2,246c-8.3,0-16-2.8-22.2-7.5    c6.2-9.3,14.8-18.5,28.8-22.4c3.3,8.4,6,17.5,7.4,27.1C261.9,245,257.2,246,252.2,246z M272.9,239.6c-1.5-8.8-3.9-17.1-6.9-24.9    c6.4-0.8,13.8-0.6,22.3,1C286.6,225.6,280.9,234.1,272.9,239.6z M252.2,165.7c-24.2,0-43.8,19.6-43.8,43.8    c0,24.2,19.6,43.8,43.8,43.8c24.2,0,43.8-19.6,43.8-43.8C296,185.3,276.4,165.7,252.2,165.7z M281,186.9c4.7,6,7.6,13.4,7.8,21.6    c-9.8-1.7-18.3-1.8-25.6-0.6c-0.9-2.1-1.9-4.2-2.9-6.2C268.2,198.4,275.2,193.7,281,186.9z M252.2,172.9c9.1,0,17.3,3.3,23.7,8.7    c-5.1,6.3-11.6,10.6-18.9,13.5c-4.7-8.7-9.5-15.9-13.3-21.2C246.4,173.3,249.3,172.9,252.2,172.9z M236.5,176.4    c3.7,5,8.7,12.2,13.5,21c-10.3,2.8-21.8,3.6-33.4,3.6C219.2,190.2,226.7,181.2,236.5,176.4z M215.7,209.5v-1.2h0.2    c13,0,26-0.9,37.6-4.3c0.8,1.8,1.7,3.5,2.5,5.4c-15.3,4.5-24.8,14.5-31.3,24.1C219.1,227.1,215.7,218.7,215.7,209.5z M252.2,246    c-8.3,0-16-2.8-22.2-7.5c6.2-9.3,14.8-18.5,28.8-22.4c3.3,8.4,6,17.5,7.4,27.1C261.9,245,257.2,246,252.2,246z M272.9,239.6    c-1.5-8.8-3.9-17.1-6.9-24.9c6.4-0.8,13.8-0.6,22.3,1C286.6,225.6,280.9,234.1,272.9,239.6z M252.2,165.7    c-24.2,0-43.8,19.6-43.8,43.8c0,24.2,19.6,43.8,43.8,43.8c24.2,0,43.8-19.6,43.8-43.8C296,185.3,276.4,165.7,252.2,165.7z     M281,186.9c4.7,6,7.6,13.4,7.8,21.6c-9.8-1.7-18.3-1.8-25.6-0.6c-0.9-2.1-1.9-4.2-2.9-6.2C268.2,198.4,275.2,193.7,281,186.9z     M252.2,172.9c9.1,0,17.3,3.3,23.7,8.7c-5.1,6.3-11.6,10.6-18.9,13.5c-4.7-8.7-9.5-15.9-13.3-21.2    C246.4,173.3,249.3,172.9,252.2,172.9z M236.5,176.4c3.7,5,8.7,12.2,13.5,21c-10.3,2.8-21.8,3.6-33.4,3.6    C219.2,190.2,226.7,181.2,236.5,176.4z M215.7,209.5v-1.2h0.2c13,0,26-0.9,37.6-4.3c0.8,1.8,1.7,3.5,2.5,5.4    c-15.3,4.5-24.8,14.5-31.3,24.1C219.1,227.1,215.7,218.7,215.7,209.5z M252.2,246c-8.3,0-16-2.8-22.2-7.5    c6.2-9.3,14.8-18.5,28.8-22.4c3.3,8.4,6,17.5,7.4,27.1C261.9,245,257.2,246,252.2,246z M272.9,239.6c-1.5-8.8-3.9-17.1-6.9-24.9    c6.4-0.8,13.8-0.6,22.3,1C286.6,225.6,280.9,234.1,272.9,239.6z M252.2,165.7c-24.2,0-43.8,19.6-43.8,43.8    c0,24.2,19.6,43.8,43.8,43.8c24.2,0,43.8-19.6,43.8-43.8C296,185.3,276.4,165.7,252.2,165.7z M281,186.9c4.7,6,7.6,13.4,7.8,21.6    c-9.8-1.7-18.3-1.8-25.6-0.6c-0.9-2.1-1.9-4.2-2.9-6.2C268.2,198.4,275.2,193.7,281,186.9z M252.2,172.9c9.1,0,17.3,3.3,23.7,8.7    c-5.1,6.3-11.6,10.6-18.9,13.5c-4.7-8.7-9.5-15.9-13.3-21.2C246.4,173.3,249.3,172.9,252.2,172.9z M236.5,176.4    c3.7,5,8.7,12.2,13.5,21c-10.3,2.8-21.8,3.6-33.4,3.6C219.2,190.2,226.7,181.2,236.5,176.4z M215.7,209.5v-1.2h0.2    c13,0,26-0.9,37.6-4.3c0.8,1.8,1.7,3.5,2.5,5.4c-15.3,4.5-24.8,14.5-31.3,24.1C219.1,227.1,215.7,218.7,215.7,209.5z M252.2,246    c-8.3,0-16-2.8-22.2-7.5c6.2-9.3,14.8-18.5,28.8-22.4c3.3,8.4,6,17.5,7.4,27.1C261.9,245,257.2,246,252.2,246z M272.9,239.6    c-1.5-8.8-3.9-17.1-6.9-24.9c6.4-0.8,13.8-0.6,22.3,1C286.6,225.6,280.9,234.1,272.9,239.6z M252.2,165.7    c-24.2,0-43.8,19.6-43.8,43.8c0,24.2,19.6,43.8,43.8,43.8c24.2,0,43.8-19.6,43.8-43.8C296,185.3,276.4,165.7,252.2,165.7z     M281,186.9c4.7,6,7.6,13.4,7.8,21.6c-9.8-1.7-18.3-1.8-25.6-0.6c-0.9-2.1-1.9-4.2-2.9-6.2C268.2,198.4,275.2,193.7,281,186.9z     M252.2,172.9c9.1,0,17.3,3.3,23.7,8.7c-5.1,6.3-11.6,10.6-18.9,13.5c-4.7-8.7-9.5-15.9-13.3-21.2    C246.4,173.3,249.3,172.9,252.2,172.9z M236.5,176.4c3.7,5,8.7,12.2,13.5,21c-10.3,2.8-21.8,3.6-33.4,3.6    C219.2,190.2,226.7,181.2,236.5,176.4z M215.7,209.5v-1.2h0.2c13,0,26-0.9,37.6-4.3c0.8,1.8,1.7,3.5,2.5,5.4    c-15.3,4.5-24.8,14.5-31.3,24.1C219.1,227.1,215.7,218.7,215.7,209.5z M252.2,246c-8.3,0-16-2.8-22.2-7.5    c6.2-9.3,14.8-18.5,28.8-22.4c3.3,8.4,6,17.5,7.4,27.1C261.9,245,257.2,246,252.2,246z M272.9,239.6c-1.5-8.8-3.9-17.1-6.9-24.9    c6.4-0.8,13.8-0.6,22.3,1C286.6,225.6,280.9,234.1,272.9,239.6z M252.2,165.7c-24.2,0-43.8,19.6-43.8,43.8    c0,24.2,19.6,43.8,43.8,43.8c24.2,0,43.8-19.6,43.8-43.8C296,185.3,276.4,165.7,252.2,165.7z M281,186.9c4.7,6,7.6,13.4,7.8,21.6    c-9.8-1.7-18.3-1.8-25.6-0.6c-0.9-2.1-1.9-4.2-2.9-6.2C268.2,198.4,275.2,193.7,281,186.9z M252.2,172.9c9.1,0,17.3,3.3,23.7,8.7    c-5.1,6.3-11.6,10.6-18.9,13.5c-4.7-8.7-9.5-15.9-13.3-21.2C246.4,173.3,249.3,172.9,252.2,172.9z M236.5,176.4    c3.7,5,8.7,12.2,13.5,21c-10.3,2.8-21.8,3.6-33.4,3.6C219.2,190.2,226.7,181.2,236.5,176.4z M215.7,209.5v-1.2h0.2    c13,0,26-0.9,37.6-4.3c0.8,1.8,1.7,3.5,2.5,5.4c-15.3,4.5-24.8,14.5-31.3,24.1C219.1,227.1,215.7,218.7,215.7,209.5z M252.2,246    c-8.3,0-16-2.8-22.2-7.5c6.2-9.3,14.8-18.5,28.8-22.4c3.3,8.4,6,17.5,7.4,27.1C261.9,245,257.2,246,252.2,246z M272.9,239.6    c-1.5-8.8-3.9-17.1-6.9-24.9c6.4-0.8,13.8-0.6,22.3,1C286.6,225.6,280.9,234.1,272.9,239.6z M252.2,165.7    c-24.2,0-43.8,19.6-43.8,43.8c0,24.2,19.6,43.8,43.8,43.8c24.2,0,43.8-19.6,43.8-43.8C296,185.3,276.4,165.7,252.2,165.7z     M281,186.9c4.7,6,7.6,13.4,7.8,21.6c-9.8-1.7-18.3-1.8-25.6-0.6c-0.9-2.1-1.9-4.2-2.9-6.2C268.2,198.4,275.2,193.7,281,186.9z     M252.2,172.9c9.1,0,17.3,3.3,23.7,8.7c-5.1,6.3-11.6,10.6-18.9,13.5c-4.7-8.7-9.5-15.9-13.3-21.2    C246.4,173.3,249.3,172.9,252.2,172.9z M236.5,176.4c3.7,5,8.7,12.2,13.5,21c-10.3,2.8-21.8,3.6-33.4,3.6    C219.2,190.2,226.7,181.2,236.5,176.4z M215.7,209.5v-1.2h0.2c13,0,26-0.9,37.6-4.3c0.8,1.8,1.7,3.5,2.5,5.4    c-15.3,4.5-24.8,14.5-31.3,24.1C219.1,227.1,215.7,218.7,215.7,209.5z M252.2,246c-8.3,0-16-2.8-22.2-7.5    c6.2-9.3,14.8-18.5,28.8-22.4c3.3,8.4,6,17.5,7.4,27.1C261.9,245,257.2,246,252.2,246z M272.9,239.6c-1.5-8.8-3.9-17.1-6.9-24.9    c6.4-0.8,13.8-0.6,22.3,1C286.6,225.6,280.9,234.1,272.9,239.6z M252.2,165.7c-24.2,0-43.8,19.6-43.8,43.8    c0,24.2,19.6,43.8,43.8,43.8c24.2,0,43.8-19.6,43.8-43.8C296,185.3,276.4,165.7,252.2,165.7z M281,186.9c4.7,6,7.6,13.4,7.8,21.6    c-9.8-1.7-18.3-1.8-25.6-0.6c-0.9-2.1-1.9-4.2-2.9-6.2C268.2,198.4,275.2,193.7,281,186.9z M252.2,172.9c9.1,0,17.3,3.3,23.7,8.7    c-5.1,6.3-11.6,10.6-18.9,13.5c-4.7-8.7-9.5-15.9-13.3-21.2C246.4,173.3,249.3,172.9,252.2,172.9z M236.5,176.4    c3.7,5,8.7,12.2,13.5,21c-10.3,2.8-21.8,3.6-33.4,3.6C219.2,190.2,226.7,181.2,236.5,176.4z M215.7,209.5v-1.2h0.2    c13,0,26-0.9,37.6-4.3c0.8,1.8,1.7,3.5,2.5,5.4c-15.3,4.5-24.8,14.5-31.3,24.1C219.1,227.1,215.7,218.7,215.7,209.5z M252.2,246    c-8.3,0-16-2.8-22.2-7.5c6.2-9.3,14.8-18.5,28.8-22.4c3.3,8.4,6,17.5,7.4,27.1C261.9,245,257.2,246,252.2,246z M272.9,239.6    c-1.5-8.8-3.9-17.1-6.9-24.9c6.4-0.8,13.8-0.6,22.3,1C286.6,225.6,280.9,234.1,272.9,239.6z M252.2,165.7    c-24.2,0-43.8,19.6-43.8,43.8c0,24.2,19.6,43.8,43.8,43.8c24.2,0,43.8-19.6,43.8-43.8C296,185.3,276.4,165.7,252.2,165.7z     M281,186.9c4.7,6,7.6,13.4,7.8,21.6c-9.8-1.7-18.3-1.8-25.6-0.6c-0.9-2.1-1.9-4.2-2.9-6.2C268.2,198.4,275.2,193.7,281,186.9z     M252.2,172.9c9.1,0,17.3,3.3,23.7,8.7c-5.1,6.3-11.6,10.6-18.9,13.5c-4.7-8.7-9.5-15.9-13.3-21.2    C246.4,173.3,249.3,172.9,252.2,172.9z M236.5,176.4c3.7,5,8.7,12.2,13.5,21c-10.3,2.8-21.8,3.6-33.4,3.6    C219.2,190.2,226.7,181.2,236.5,176.4z M215.7,209.5v-1.2h0.2c13,0,26-0.9,37.6-4.3c0.8,1.8,1.7,3.5,2.5,5.4    c-15.3,4.5-24.8,14.5-31.3,24.1C219.1,227.1,215.7,218.7,215.7,209.5z M252.2,246c-8.3,0-16-2.8-22.2-7.5    c6.2-9.3,14.8-18.5,28.8-22.4c3.3,8.4,6,17.5,7.4,27.1C261.9,245,257.2,246,252.2,246z M272.9,239.6c-1.5-8.8-3.9-17.1-6.9-24.9    c6.4-0.8,13.8-0.6,22.3,1C286.6,225.6,280.9,234.1,272.9,239.6z M252.2,165.7c-24.2,0-43.8,19.6-43.8,43.8    c0,24.2,19.6,43.8,43.8,43.8c24.2,0,43.8-19.6,43.8-43.8C296,185.3,276.4,165.7,252.2,165.7z M281,186.9c4.7,6,7.6,13.4,7.8,21.6    c-9.8-1.7-18.3-1.8-25.6-0.6c-0.9-2.1-1.9-4.2-2.9-6.2C268.2,198.4,275.2,193.7,281,186.9z M252.2,172.9c9.1,0,17.3,3.3,23.7,8.7    c-5.1,6.3-11.6,10.6-18.9,13.5c-4.7-8.7-9.5-15.9-13.3-21.2C246.4,173.3,249.3,172.9,252.2,172.9z M236.5,176.4    c3.7,5,8.7,12.2,13.5,21c-10.3,2.8-21.8,3.6-33.4,3.6C219.2,190.2,226.7,181.2,236.5,176.4z M215.7,209.5v-1.2h0.2    c13,0,26-0.9,37.6-4.3c0.8,1.8,1.7,3.5,2.5,5.4c-15.3,4.5-24.8,14.5-31.3,24.1C219.1,227.1,215.7,218.7,215.7,209.5z M252.2,246    c-8.3,0-16-2.8-22.2-7.5c6.2-9.3,14.8-18.5,28.8-22.4c3.3,8.4,6,17.5,7.4,27.1C261.9,245,257.2,246,252.2,246z M272.9,239.6    c-1.5-8.8-3.9-17.1-6.9-24.9c6.4-0.8,13.8-0.6,22.3,1C286.6,225.6,280.9,234.1,272.9,239.6z M252.2,165.7    c-24.2,0-43.8,19.6-43.8,43.8c0,24.2,19.6,43.8,43.8,43.8c24.2,0,43.8-19.6,43.8-43.8C296,185.3,276.4,165.7,252.2,165.7z     M281,186.9c4.7,6,7.6,13.4,7.8,21.6c-9.8-1.7-18.3-1.8-25.6-0.6c-0.9-2.1-1.9-4.2-2.9-6.2C268.2,198.4,275.2,193.7,281,186.9z     M252.2,172.9c9.1,0,17.3,3.3,23.7,8.7c-5.1,6.3-11.6,10.6-18.9,13.5c-4.7-8.7-9.5-15.9-13.3-21.2    C246.4,173.3,249.3,172.9,252.2,172.9z M236.5,176.4c3.7,5,8.7,12.2,13.5,21c-10.3,2.8-21.8,3.6-33.4,3.6    C219.2,190.2,226.7,181.2,236.5,176.4z M215.7,209.5v-1.2h0.2c13,0,26-0.9,37.6-4.3c0.8,1.8,1.7,3.5,2.5,5.4    c-15.3,4.5-24.8,14.5-31.3,24.1C219.1,227.1,215.7,218.7,215.7,209.5z M252.2,246c-8.3,0-16-2.8-22.2-7.5    c6.2-9.3,14.8-18.5,28.8-22.4c3.3,8.4,6,17.5,7.4,27.1C261.9,245,257.2,246,252.2,246z M272.9,239.6c-1.5-8.8-3.9-17.1-6.9-24.9    c6.4-0.8,13.8-0.6,22.3,1C286.6,225.6,280.9,234.1,272.9,239.6z M252.2,165.7c-24.2,0-43.8,19.6-43.8,43.8    c0,24.2,19.6,43.8,43.8,43.8c24.2,0,43.8-19.6,43.8-43.8C296,185.3,276.4,165.7,252.2,165.7z M281,186.9c4.7,6,7.6,13.4,7.8,21.6    c-9.8-1.7-18.3-1.8-25.6-0.6c-0.9-2.1-1.9-4.2-2.9-6.2C268.2,198.4,275.2,193.7,281,186.9z M252.2,172.9c9.1,0,17.3,3.3,23.7,8.7    c-5.1,6.3-11.6,10.6-18.9,13.5c-4.7-8.7-9.5-15.9-13.3-21.2C246.4,173.3,249.3,172.9,252.2,172.9z M236.5,176.4    c3.7,5,8.7,12.2,13.5,21c-10.3,2.8-21.8,3.6-33.4,3.6C219.2,190.2,226.7,181.2,236.5,176.4z M215.7,209.5v-1.2h0.2    c13,0,26-0.9,37.6-4.3c0.8,1.8,1.7,3.5,2.5,5.4c-15.3,4.5-24.8,14.5-31.3,24.1C219.1,227.1,215.7,218.7,215.7,209.5z M252.2,246    c-8.3,0-16-2.8-22.2-7.5c6.2-9.3,14.8-18.5,28.8-22.4c3.3,8.4,6,17.5,7.4,27.1C261.9,245,257.2,246,252.2,246z M272.9,239.6    c-1.5-8.8-3.9-17.1-6.9-24.9c6.4-0.8,13.8-0.6,22.3,1C286.6,225.6,280.9,234.1,272.9,239.6z M255.5,127.2    c-43.7,0-79.2,35.5-79.2,79.2s35.5,79.2,79.2,79.2c43.8,0,79.2-35.5,79.2-79.2S299.3,127.2,255.5,127.2z M255.6,282.3    c-41.8,0-75.9-34-75.9-75.9c0-41.8,34.1-75.9,75.9-75.9s75.9,34.1,75.9,75.9C331.5,248.3,297.4,282.3,255.6,282.3z M252.2,165.7    c-24.2,0-43.8,19.6-43.8,43.8c0,24.2,19.6,43.8,43.8,43.8c24.2,0,43.8-19.6,43.8-43.8C296,185.3,276.4,165.7,252.2,165.7z     M252.2,172.9c9.1,0,17.3,3.3,23.7,8.7c-5.1,6.3-11.6,10.6-18.9,13.5c-4.7-8.7-9.5-15.9-13.3-21.2    C246.4,173.3,249.3,172.9,252.2,172.9z M236.5,176.4c3.7,5,8.7,12.2,13.5,21c-10.3,2.8-21.8,3.6-33.4,3.6    C219.2,190.2,226.7,181.2,236.5,176.4z M215.7,209.5v-1.2h0.2c13,0,26-0.9,37.6-4.3c0.8,1.8,1.7,3.5,2.5,5.4    c-15.3,4.5-24.8,14.5-31.3,24.1C219.1,227.1,215.7,218.7,215.7,209.5z M252.2,246c-8.3,0-16-2.8-22.2-7.5    c6.2-9.3,14.8-18.5,28.8-22.4c3.3,8.4,6,17.5,7.4,27.1C261.9,245,257.2,246,252.2,246z M272.9,239.6c-1.5-8.8-3.9-17.1-6.9-24.9    c6.4-0.8,13.8-0.6,22.3,1C286.6,225.6,280.9,234.1,272.9,239.6z M263.2,207.8c-0.9-2.1-1.9-4.2-2.9-6.2    c7.8-3.2,14.9-7.9,20.7-14.7c4.7,6,7.6,13.4,7.8,21.6C279,206.7,270.5,206.7,263.2,207.8z M252.2,165.7    c-24.2,0-43.8,19.6-43.8,43.8c0,24.2,19.6,43.8,43.8,43.8c24.2,0,43.8-19.6,43.8-43.8C296,185.3,276.4,165.7,252.2,165.7z     M281,186.9c4.7,6,7.6,13.4,7.8,21.6c-9.8-1.7-18.3-1.8-25.6-0.6c-0.9-2.1-1.9-4.2-2.9-6.2C268.2,198.4,275.2,193.7,281,186.9z     M252.2,172.9c9.1,0,17.3,3.3,23.7,8.7c-5.1,6.3-11.6,10.6-18.9,13.5c-4.7-8.7-9.5-15.9-13.3-21.2    C246.4,173.3,249.3,172.9,252.2,172.9z M236.5,176.4c3.7,5,8.7,12.2,13.5,21c-10.3,2.8-21.8,3.6-33.4,3.6    C219.2,190.2,226.7,181.2,236.5,176.4z M215.7,209.5v-1.2h0.2c13,0,26-0.9,37.6-4.3c0.8,1.8,1.7,3.5,2.5,5.4    c-15.3,4.5-24.8,14.5-31.3,24.1C219.1,227.1,215.7,218.7,215.7,209.5z M252.2,246c-8.3,0-16-2.8-22.2-7.5    c6.2-9.3,14.8-18.5,28.8-22.4c3.3,8.4,6,17.5,7.4,27.1C261.9,245,257.2,246,252.2,246z M272.9,239.6c-1.5-8.8-3.9-17.1-6.9-24.9    c6.4-0.8,13.8-0.6,22.3,1C286.6,225.6,280.9,234.1,272.9,239.6z M252.2,165.7c-24.2,0-43.8,19.6-43.8,43.8    c0,24.2,19.6,43.8,43.8,43.8c24.2,0,43.8-19.6,43.8-43.8C296,185.3,276.4,165.7,252.2,165.7z M281,186.9c4.7,6,7.6,13.4,7.8,21.6    c-9.8-1.7-18.3-1.8-25.6-0.6c-0.9-2.1-1.9-4.2-2.9-6.2C268.2,198.4,275.2,193.7,281,186.9z M252.2,172.9c9.1,0,17.3,3.3,23.7,8.7    c-5.1,6.3-11.6,10.6-18.9,13.5c-4.7-8.7-9.5-15.9-13.3-21.2C246.4,173.3,249.3,172.9,252.2,172.9z M236.5,176.4    c3.7,5,8.7,12.2,13.5,21c-10.3,2.8-21.8,3.6-33.4,3.6C219.2,190.2,226.7,181.2,236.5,176.4z M215.7,209.5v-1.2h0.2    c13,0,26-0.9,37.6-4.3c0.8,1.8,1.7,3.5,2.5,5.4c-15.3,4.5-24.8,14.5-31.3,24.1C219.1,227.1,215.7,218.7,215.7,209.5z M252.2,246    c-8.3,0-16-2.8-22.2-7.5c6.2-9.3,14.8-18.5,28.8-22.4c3.3,8.4,6,17.5,7.4,27.1C261.9,245,257.2,246,252.2,246z M272.9,239.6    c-1.5-8.8-3.9-17.1-6.9-24.9c6.4-0.8,13.8-0.6,22.3,1C286.6,225.6,280.9,234.1,272.9,239.6z M252.2,165.7    c-24.2,0-43.8,19.6-43.8,43.8c0,24.2,19.6,43.8,43.8,43.8c24.2,0,43.8-19.6,43.8-43.8C296,185.3,276.4,165.7,252.2,165.7z     M281,186.9c4.7,6,7.6,13.4,7.8,21.6c-9.8-1.7-18.3-1.8-25.6-0.6c-0.9-2.1-1.9-4.2-2.9-6.2C268.2,198.4,275.2,193.7,281,186.9z     M252.2,172.9c9.1,0,17.3,3.3,23.7,8.7c-5.1,6.3-11.6,10.6-18.9,13.5c-4.7-8.7-9.5-15.9-13.3-21.2    C246.4,173.3,249.3,172.9,252.2,172.9z M236.5,176.4c3.7,5,8.7,12.2,13.5,21c-10.3,2.8-21.8,3.6-33.4,3.6    C219.2,190.2,226.7,181.2,236.5,176.4z M215.7,209.5v-1.2h0.2c13,0,26-0.9,37.6-4.3c0.8,1.8,1.7,3.5,2.5,5.4    c-15.3,4.5-24.8,14.5-31.3,24.1C219.1,227.1,215.7,218.7,215.7,209.5z M252.2,246c-8.3,0-16-2.8-22.2-7.5    c6.2-9.3,14.8-18.5,28.8-22.4c3.3,8.4,6,17.5,7.4,27.1C261.9,245,257.2,246,252.2,246z M272.9,239.6c-1.5-8.8-3.9-17.1-6.9-24.9    c6.4-0.8,13.8-0.6,22.3,1C286.6,225.6,280.9,234.1,272.9,239.6z M252.2,165.7c-24.2,0-43.8,19.6-43.8,43.8    c0,24.2,19.6,43.8,43.8,43.8c24.2,0,43.8-19.6,43.8-43.8C296,185.3,276.4,165.7,252.2,165.7z M281,186.9c4.7,6,7.6,13.4,7.8,21.6    c-9.8-1.7-18.3-1.8-25.6-0.6c-0.9-2.1-1.9-4.2-2.9-6.2C268.2,198.4,275.2,193.7,281,186.9z M252.2,172.9c9.1,0,17.3,3.3,23.7,8.7    c-5.1,6.3-11.6,10.6-18.9,13.5c-4.7-8.7-9.5-15.9-13.3-21.2C246.4,173.3,249.3,172.9,252.2,172.9z M236.5,176.4    c3.7,5,8.7,12.2,13.5,21c-10.3,2.8-21.8,3.6-33.4,3.6C219.2,190.2,226.7,181.2,236.5,176.4z M215.7,209.5v-1.2h0.2    c13,0,26-0.9,37.6-4.3c0.8,1.8,1.7,3.5,2.5,5.4c-15.3,4.5-24.8,14.5-31.3,24.1C219.1,227.1,215.7,218.7,215.7,209.5z M252.2,246    c-8.3,0-16-2.8-22.2-7.5c6.2-9.3,14.8-18.5,28.8-22.4c3.3,8.4,6,17.5,7.4,27.1C261.9,245,257.2,246,252.2,246z M272.9,239.6    c-1.5-8.8-3.9-17.1-6.9-24.9c6.4-0.8,13.8-0.6,22.3,1C286.6,225.6,280.9,234.1,272.9,239.6z M252.2,165.7    c-24.2,0-43.8,19.6-43.8,43.8c0,24.2,19.6,43.8,43.8,43.8c24.2,0,43.8-19.6,43.8-43.8C296,185.3,276.4,165.7,252.2,165.7z     M281,186.9c4.7,6,7.6,13.4,7.8,21.6c-9.8-1.7-18.3-1.8-25.6-0.6c-0.9-2.1-1.9-4.2-2.9-6.2C268.2,198.4,275.2,193.7,281,186.9z     M252.2,172.9c9.1,0,17.3,3.3,23.7,8.7c-5.1,6.3-11.6,10.6-18.9,13.5c-4.7-8.7-9.5-15.9-13.3-21.2    C246.4,173.3,249.3,172.9,252.2,172.9z M236.5,176.4c3.7,5,8.7,12.2,13.5,21c-10.3,2.8-21.8,3.6-33.4,3.6    C219.2,190.2,226.7,181.2,236.5,176.4z M215.7,209.5v-1.2h0.2c13,0,26-0.9,37.6-4.3c0.8,1.8,1.7,3.5,2.5,5.4    c-15.3,4.5-24.8,14.5-31.3,24.1C219.1,227.1,215.7,218.7,215.7,209.5z M252.2,246c-8.3,0-16-2.8-22.2-7.5    c6.2-9.3,14.8-18.5,28.8-22.4c3.3,8.4,6,17.5,7.4,27.1C261.9,245,257.2,246,252.2,246z M272.9,239.6c-1.5-8.8-3.9-17.1-6.9-24.9    c6.4-0.8,13.8-0.6,22.3,1C286.6,225.6,280.9,234.1,272.9,239.6z M252.2,165.7c-24.2,0-43.8,19.6-43.8,43.8    c0,24.2,19.6,43.8,43.8,43.8c24.2,0,43.8-19.6,43.8-43.8C296,185.3,276.4,165.7,252.2,165.7z M281,186.9c4.7,6,7.6,13.4,7.8,21.6    c-9.8-1.7-18.3-1.8-25.6-0.6c-0.9-2.1-1.9-4.2-2.9-6.2C268.2,198.4,275.2,193.7,281,186.9z M252.2,172.9c9.1,0,17.3,3.3,23.7,8.7    c-5.1,6.3-11.6,10.6-18.9,13.5c-4.7-8.7-9.5-15.9-13.3-21.2C246.4,173.3,249.3,172.9,252.2,172.9z M236.5,176.4    c3.7,5,8.7,12.2,13.5,21c-10.3,2.8-21.8,3.6-33.4,3.6C219.2,190.2,226.7,181.2,236.5,176.4z M215.7,209.5v-1.2h0.2    c13,0,26-0.9,37.6-4.3c0.8,1.8,1.7,3.5,2.5,5.4c-15.3,4.5-24.8,14.5-31.3,24.1C219.1,227.1,215.7,218.7,215.7,209.5z M252.2,246    c-8.3,0-16-2.8-22.2-7.5c6.2-9.3,14.8-18.5,28.8-22.4c3.3,8.4,6,17.5,7.4,27.1C261.9,245,257.2,246,252.2,246z M272.9,239.6    c-1.5-8.8-3.9-17.1-6.9-24.9c6.4-0.8,13.8-0.6,22.3,1C286.6,225.6,280.9,234.1,272.9,239.6z M252.2,165.7    c-24.2,0-43.8,19.6-43.8,43.8c0,24.2,19.6,43.8,43.8,43.8c24.2,0,43.8-19.6,43.8-43.8C296,185.3,276.4,165.7,252.2,165.7z     M281,186.9c4.7,6,7.6,13.4,7.8,21.6c-9.8-1.7-18.3-1.8-25.6-0.6c-0.9-2.1-1.9-4.2-2.9-6.2C268.2,198.4,275.2,193.7,281,186.9z     M252.2,172.9c9.1,0,17.3,3.3,23.7,8.7c-5.1,6.3-11.6,10.6-18.9,13.5c-4.7-8.7-9.5-15.9-13.3-21.2    C246.4,173.3,249.3,172.9,252.2,172.9z M236.5,176.4c3.7,5,8.7,12.2,13.5,21c-10.3,2.8-21.8,3.6-33.4,3.6    C219.2,190.2,226.7,181.2,236.5,176.4z M215.7,209.5v-1.2h0.2c13,0,26-0.9,37.6-4.3c0.8,1.8,1.7,3.5,2.5,5.4    c-15.3,4.5-24.8,14.5-31.3,24.1C219.1,227.1,215.7,218.7,215.7,209.5z M252.2,246c-8.3,0-16-2.8-22.2-7.5    c6.2-9.3,14.8-18.5,28.8-22.4c3.3,8.4,6,17.5,7.4,27.1C261.9,245,257.2,246,252.2,246z M272.9,239.6c-1.5-8.8-3.9-17.1-6.9-24.9    c6.4-0.8,13.8-0.6,22.3,1C286.6,225.6,280.9,234.1,272.9,239.6z M252.2,165.7c-24.2,0-43.8,19.6-43.8,43.8    c0,24.2,19.6,43.8,43.8,43.8c24.2,0,43.8-19.6,43.8-43.8C296,185.3,276.4,165.7,252.2,165.7z M281,186.9c4.7,6,7.6,13.4,7.8,21.6    c-9.8-1.7-18.3-1.8-25.6-0.6c-0.9-2.1-1.9-4.2-2.9-6.2C268.2,198.4,275.2,193.7,281,186.9z M252.2,172.9c9.1,0,17.3,3.3,23.7,8.7    c-5.1,6.3-11.6,10.6-18.9,13.5c-4.7-8.7-9.5-15.9-13.3-21.2C246.4,173.3,249.3,172.9,252.2,172.9z M236.5,176.4    c3.7,5,8.7,12.2,13.5,21c-10.3,2.8-21.8,3.6-33.4,3.6C219.2,190.2,226.7,181.2,236.5,176.4z M215.7,209.5v-1.2h0.2    c13,0,26-0.9,37.6-4.3c0.8,1.8,1.7,3.5,2.5,5.4c-15.3,4.5-24.8,14.5-31.3,24.1C219.1,227.1,215.7,218.7,215.7,209.5z M252.2,246    c-8.3,0-16-2.8-22.2-7.5c6.2-9.3,14.8-18.5,28.8-22.4c3.3,8.4,6,17.5,7.4,27.1C261.9,245,257.2,246,252.2,246z M272.9,239.6    c-1.5-8.8-3.9-17.1-6.9-24.9c6.4-0.8,13.8-0.6,22.3,1C286.6,225.6,280.9,234.1,272.9,239.6z M252.2,165.7    c-24.2,0-43.8,19.6-43.8,43.8c0,24.2,19.6,43.8,43.8,43.8c24.2,0,43.8-19.6,43.8-43.8C296,185.3,276.4,165.7,252.2,165.7z     M281,186.9c4.7,6,7.6,13.4,7.8,21.6c-9.8-1.7-18.3-1.8-25.6-0.6c-0.9-2.1-1.9-4.2-2.9-6.2C268.2,198.4,275.2,193.7,281,186.9z     M252.2,172.9c9.1,0,17.3,3.3,23.7,8.7c-5.1,6.3-11.6,10.6-18.9,13.5c-4.7-8.7-9.5-15.9-13.3-21.2    C246.4,173.3,249.3,172.9,252.2,172.9z M236.5,176.4c3.7,5,8.7,12.2,13.5,21c-10.3,2.8-21.8,3.6-33.4,3.6    C219.2,190.2,226.7,181.2,236.5,176.4z M215.7,209.5v-1.2h0.2c13,0,26-0.9,37.6-4.3c0.8,1.8,1.7,3.5,2.5,5.4    c-15.3,4.5-24.8,14.5-31.3,24.1C219.1,227.1,215.7,218.7,215.7,209.5z M252.2,246c-8.3,0-16-2.8-22.2-7.5    c6.2-9.3,14.8-18.5,28.8-22.4c3.3,8.4,6,17.5,7.4,27.1C261.9,245,257.2,246,252.2,246z M272.9,239.6c-1.5-8.8-3.9-17.1-6.9-24.9    c6.4-0.8,13.8-0.6,22.3,1C286.6,225.6,280.9,234.1,272.9,239.6z M252.2,165.7c-24.2,0-43.8,19.6-43.8,43.8    c0,24.2,19.6,43.8,43.8,43.8c24.2,0,43.8-19.6,43.8-43.8C296,185.3,276.4,165.7,252.2,165.7z M281,186.9c4.7,6,7.6,13.4,7.8,21.6    c-9.8-1.7-18.3-1.8-25.6-0.6c-0.9-2.1-1.9-4.2-2.9-6.2C268.2,198.4,275.2,193.7,281,186.9z M252.2,172.9c9.1,0,17.3,3.3,23.7,8.7    c-5.1,6.3-11.6,10.6-18.9,13.5c-4.7-8.7-9.5-15.9-13.3-21.2C246.4,173.3,249.3,172.9,252.2,172.9z M236.5,176.4    c3.7,5,8.7,12.2,13.5,21c-10.3,2.8-21.8,3.6-33.4,3.6C219.2,190.2,226.7,181.2,236.5,176.4z M215.7,209.5v-1.2h0.2    c13,0,26-0.9,37.6-4.3c0.8,1.8,1.7,3.5,2.5,5.4c-15.3,4.5-24.8,14.5-31.3,24.1C219.1,227.1,215.7,218.7,215.7,209.5z M252.2,246    c-8.3,0-16-2.8-22.2-7.5c6.2-9.3,14.8-18.5,28.8-22.4c3.3,8.4,6,17.5,7.4,27.1C261.9,245,257.2,246,252.2,246z M272.9,239.6    c-1.5-8.8-3.9-17.1-6.9-24.9c6.4-0.8,13.8-0.6,22.3,1C286.6,225.6,280.9,234.1,272.9,239.6z M252.2,165.7    c-24.2,0-43.8,19.6-43.8,43.8c0,24.2,19.6,43.8,43.8,43.8c24.2,0,43.8-19.6,43.8-43.8C296,185.3,276.4,165.7,252.2,165.7z     M281,186.9c4.7,6,7.6,13.4,7.8,21.6c-9.8-1.7-18.3-1.8-25.6-0.6c-0.9-2.1-1.9-4.2-2.9-6.2C268.2,198.4,275.2,193.7,281,186.9z     M252.2,172.9c9.1,0,17.3,3.3,23.7,8.7c-5.1,6.3-11.6,10.6-18.9,13.5c-4.7-8.7-9.5-15.9-13.3-21.2    C246.4,173.3,249.3,172.9,252.2,172.9z M236.5,176.4c3.7,5,8.7,12.2,13.5,21c-10.3,2.8-21.8,3.6-33.4,3.6    C219.2,190.2,226.7,181.2,236.5,176.4z M215.7,209.5v-1.2h0.2c13,0,26-0.9,37.6-4.3c0.8,1.8,1.7,3.5,2.5,5.4    c-15.3,4.5-24.8,14.5-31.3,24.1C219.1,227.1,215.7,218.7,215.7,209.5z M252.2,246c-8.3,0-16-2.8-22.2-7.5    c6.2-9.3,14.8-18.5,28.8-22.4c3.3,8.4,6,17.5,7.4,27.1C261.9,245,257.2,246,252.2,246z M272.9,239.6c-1.5-8.8-3.9-17.1-6.9-24.9    c6.4-0.8,13.8-0.6,22.3,1C286.6,225.6,280.9,234.1,272.9,239.6z M252.2,165.7c-24.2,0-43.8,19.6-43.8,43.8    c0,24.2,19.6,43.8,43.8,43.8c24.2,0,43.8-19.6,43.8-43.8C296,185.3,276.4,165.7,252.2,165.7z M281,186.9c4.7,6,7.6,13.4,7.8,21.6    c-9.8-1.7-18.3-1.8-25.6-0.6c-0.9-2.1-1.9-4.2-2.9-6.2C268.2,198.4,275.2,193.7,281,186.9z M252.2,172.9c9.1,0,17.3,3.3,23.7,8.7    c-5.1,6.3-11.6,10.6-18.9,13.5c-4.7-8.7-9.5-15.9-13.3-21.2C246.4,173.3,249.3,172.9,252.2,172.9z M236.5,176.4    c3.7,5,8.7,12.2,13.5,21c-10.3,2.8-21.8,3.6-33.4,3.6C219.2,190.2,226.7,181.2,236.5,176.4z M215.7,209.5v-1.2h0.2    c13,0,26-0.9,37.6-4.3c0.8,1.8,1.7,3.5,2.5,5.4c-15.3,4.5-24.8,14.5-31.3,24.1C219.1,227.1,215.7,218.7,215.7,209.5z M252.2,246    c-8.3,0-16-2.8-22.2-7.5c6.2-9.3,14.8-18.5,28.8-22.4c3.3,8.4,6,17.5,7.4,27.1C261.9,245,257.2,246,252.2,246z M272.9,239.6    c-1.5-8.8-3.9-17.1-6.9-24.9c6.4-0.8,13.8-0.6,22.3,1C286.6,225.6,280.9,234.1,272.9,239.6z M252.2,165.7    c-24.2,0-43.8,19.6-43.8,43.8c0,24.2,19.6,43.8,43.8,43.8c24.2,0,43.8-19.6,43.8-43.8C296,185.3,276.4,165.7,252.2,165.7z     M281,186.9c4.7,6,7.6,13.4,7.8,21.6c-9.8-1.7-18.3-1.8-25.6-0.6c-0.9-2.1-1.9-4.2-2.9-6.2C268.2,198.4,275.2,193.7,281,186.9z     M252.2,172.9c9.1,0,17.3,3.3,23.7,8.7c-5.1,6.3-11.6,10.6-18.9,13.5c-4.7-8.7-9.5-15.9-13.3-21.2    C246.4,173.3,249.3,172.9,252.2,172.9z M236.5,176.4c3.7,5,8.7,12.2,13.5,21c-10.3,2.8-21.8,3.6-33.4,3.6    C219.2,190.2,226.7,181.2,236.5,176.4z M215.7,209.5v-1.2h0.2c13,0,26-0.9,37.6-4.3c0.8,1.8,1.7,3.5,2.5,5.4    c-15.3,4.5-24.8,14.5-31.3,24.1C219.1,227.1,215.7,218.7,215.7,209.5z M252.2,246c-8.3,0-16-2.8-22.2-7.5    c6.2-9.3,14.8-18.5,28.8-22.4c3.3,8.4,6,17.5,7.4,27.1C261.9,245,257.2,246,252.2,246z M272.9,239.6c-1.5-8.8-3.9-17.1-6.9-24.9    c6.4-0.8,13.8-0.6,22.3,1C286.6,225.6,280.9,234.1,272.9,239.6z M252.2,165.7c-24.2,0-43.8,19.6-43.8,43.8    c0,24.2,19.6,43.8,43.8,43.8c24.2,0,43.8-19.6,43.8-43.8C296,185.3,276.4,165.7,252.2,165.7z M281,186.9c4.7,6,7.6,13.4,7.8,21.6    c-9.8-1.7-18.3-1.8-25.6-0.6c-0.9-2.1-1.9-4.2-2.9-6.2C268.2,198.4,275.2,193.7,281,186.9z M252.2,172.9c9.1,0,17.3,3.3,23.7,8.7    c-5.1,6.3-11.6,10.6-18.9,13.5c-4.7-8.7-9.5-15.9-13.3-21.2C246.4,173.3,249.3,172.9,252.2,172.9z M236.5,176.4    c3.7,5,8.7,12.2,13.5,21c-10.3,2.8-21.8,3.6-33.4,3.6C219.2,190.2,226.7,181.2,236.5,176.4z M215.7,209.5v-1.2h0.2    c13,0,26-0.9,37.6-4.3c0.8,1.8,1.7,3.5,2.5,5.4c-15.3,4.5-24.8,14.5-31.3,24.1C219.1,227.1,215.7,218.7,215.7,209.5z M252.2,246    c-8.3,0-16-2.8-22.2-7.5c6.2-9.3,14.8-18.5,28.8-22.4c3.3,8.4,6,17.5,7.4,27.1C261.9,245,257.2,246,252.2,246z M272.9,239.6    c-1.5-8.8-3.9-17.1-6.9-24.9c6.4-0.8,13.8-0.6,22.3,1C286.6,225.6,280.9,234.1,272.9,239.6z M252.2,165.7    c-24.2,0-43.8,19.6-43.8,43.8c0,24.2,19.6,43.8,43.8,43.8c24.2,0,43.8-19.6,43.8-43.8C296,185.3,276.4,165.7,252.2,165.7z     M281,186.9c4.7,6,7.6,13.4,7.8,21.6c-9.8-1.7-18.3-1.8-25.6-0.6c-0.9-2.1-1.9-4.2-2.9-6.2C268.2,198.4,275.2,193.7,281,186.9z     M252.2,172.9c9.1,0,17.3,3.3,23.7,8.7c-5.1,6.3-11.6,10.6-18.9,13.5c-4.7-8.7-9.5-15.9-13.3-21.2    C246.4,173.3,249.3,172.9,252.2,172.9z M236.5,176.4c3.7,5,8.7,12.2,13.5,21c-10.3,2.8-21.8,3.6-33.4,3.6    C219.2,190.2,226.7,181.2,236.5,176.4z M215.7,209.5v-1.2h0.2c13,0,26-0.9,37.6-4.3c0.8,1.8,1.7,3.5,2.5,5.4    c-15.3,4.5-24.8,14.5-31.3,24.1C219.1,227.1,215.7,218.7,215.7,209.5z M252.2,246c-8.3,0-16-2.8-22.2-7.5    c6.2-9.3,14.8-18.5,28.8-22.4c3.3,8.4,6,17.5,7.4,27.1C261.9,245,257.2,246,252.2,246z M272.9,239.6c-1.5-8.8-3.9-17.1-6.9-24.9    c6.4-0.8,13.8-0.6,22.3,1C286.6,225.6,280.9,234.1,272.9,239.6z M252.2,165.7c-24.2,0-43.8,19.6-43.8,43.8    c0,24.2,19.6,43.8,43.8,43.8c24.2,0,43.8-19.6,43.8-43.8C296,185.3,276.4,165.7,252.2,165.7z M281,186.9c4.7,6,7.6,13.4,7.8,21.6    c-9.8-1.7-18.3-1.8-25.6-0.6c-0.9-2.1-1.9-4.2-2.9-6.2C268.2,198.4,275.2,193.7,281,186.9z M252.2,172.9c9.1,0,17.3,3.3,23.7,8.7    c-5.1,6.3-11.6,10.6-18.9,13.5c-4.7-8.7-9.5-15.9-13.3-21.2C246.4,173.3,249.3,172.9,252.2,172.9z M236.5,176.4    c3.7,5,8.7,12.2,13.5,21c-10.3,2.8-21.8,3.6-33.4,3.6C219.2,190.2,226.7,181.2,236.5,176.4z M215.7,209.5v-1.2h0.2    c13,0,26-0.9,37.6-4.3c0.8,1.8,1.7,3.5,2.5,5.4c-15.3,4.5-24.8,14.5-31.3,24.1C219.1,227.1,215.7,218.7,215.7,209.5z M252.2,246    c-8.3,0-16-2.8-22.2-7.5c6.2-9.3,14.8-18.5,28.8-22.4c3.3,8.4,6,17.5,7.4,27.1C261.9,245,257.2,246,252.2,246z M272.9,239.6    c-1.5-8.8-3.9-17.1-6.9-24.9c6.4-0.8,13.8-0.6,22.3,1C286.6,225.6,280.9,234.1,272.9,239.6z M252.2,165.7    c-24.2,0-43.8,19.6-43.8,43.8c0,24.2,19.6,43.8,43.8,43.8c24.2,0,43.8-19.6,43.8-43.8C296,185.3,276.4,165.7,252.2,165.7z     M281,186.9c4.7,6,7.6,13.4,7.8,21.6c-9.8-1.7-18.3-1.8-25.6-0.6c-0.9-2.1-1.9-4.2-2.9-6.2C268.2,198.4,275.2,193.7,281,186.9z     M252.2,172.9c9.1,0,17.3,3.3,23.7,8.7c-5.1,6.3-11.6,10.6-18.9,13.5c-4.7-8.7-9.5-15.9-13.3-21.2    C246.4,173.3,249.3,172.9,252.2,172.9z M236.5,176.4c3.7,5,8.7,12.2,13.5,21c-10.3,2.8-21.8,3.6-33.4,3.6    C219.2,190.2,226.7,181.2,236.5,176.4z M215.7,209.5v-1.2h0.2c13,0,26-0.9,37.6-4.3c0.8,1.8,1.7,3.5,2.5,5.4    c-15.3,4.5-24.8,14.5-31.3,24.1C219.1,227.1,215.7,218.7,215.7,209.5z M252.2,246c-8.3,0-16-2.8-22.2-7.5    c6.2-9.3,14.8-18.5,28.8-22.4c3.3,8.4,6,17.5,7.4,27.1C261.9,245,257.2,246,252.2,246z M272.9,239.6c-1.5-8.8-3.9-17.1-6.9-24.9    c6.4-0.8,13.8-0.6,22.3,1C286.6,225.6,280.9,234.1,272.9,239.6z M252.2,165.7c-24.2,0-43.8,19.6-43.8,43.8    c0,24.2,19.6,43.8,43.8,43.8c24.2,0,43.8-19.6,43.8-43.8C296,185.3,276.4,165.7,252.2,165.7z M281,186.9c4.7,6,7.6,13.4,7.8,21.6    c-9.8-1.7-18.3-1.8-25.6-0.6c-0.9-2.1-1.9-4.2-2.9-6.2C268.2,198.4,275.2,193.7,281,186.9z M252.2,172.9c9.1,0,17.3,3.3,23.7,8.7    c-5.1,6.3-11.6,10.6-18.9,13.5c-4.7-8.7-9.5-15.9-13.3-21.2C246.4,173.3,249.3,172.9,252.2,172.9z M236.5,176.4    c3.7,5,8.7,12.2,13.5,21c-10.3,2.8-21.8,3.6-33.4,3.6C219.2,190.2,226.7,181.2,236.5,176.4z M215.7,209.5v-1.2h0.2    c13,0,26-0.9,37.6-4.3c0.8,1.8,1.7,3.5,2.5,5.4c-15.3,4.5-24.8,14.5-31.3,24.1C219.1,227.1,215.7,218.7,215.7,209.5z M252.2,246    c-8.3,0-16-2.8-22.2-7.5c6.2-9.3,14.8-18.5,28.8-22.4c3.3,8.4,6,17.5,7.4,27.1C261.9,245,257.2,246,252.2,246z M272.9,239.6    c-1.5-8.8-3.9-17.1-6.9-24.9c6.4-0.8,13.8-0.6,22.3,1C286.6,225.6,280.9,234.1,272.9,239.6z M252.2,165.7    c-24.2,0-43.8,19.6-43.8,43.8c0,24.2,19.6,43.8,43.8,43.8c24.2,0,43.8-19.6,43.8-43.8C296,185.3,276.4,165.7,252.2,165.7z     M281,186.9c4.7,6,7.6,13.4,7.8,21.6c-9.8-1.7-18.3-1.8-25.6-0.6c-0.9-2.1-1.9-4.2-2.9-6.2C268.2,198.4,275.2,193.7,281,186.9z     M252.2,172.9c9.1,0,17.3,3.3,23.7,8.7c-5.1,6.3-11.6,10.6-18.9,13.5c-4.7-8.7-9.5-15.9-13.3-21.2    C246.4,173.3,249.3,172.9,252.2,172.9z M236.5,176.4c3.7,5,8.7,12.2,13.5,21c-10.3,2.8-21.8,3.6-33.4,3.6    C219.2,190.2,226.7,181.2,236.5,176.4z M215.7,209.5v-1.2h0.2c13,0,26-0.9,37.6-4.3c0.8,1.8,1.7,3.5,2.5,5.4    c-15.3,4.5-24.8,14.5-31.3,24.1C219.1,227.1,215.7,218.7,215.7,209.5z M252.2,246c-8.3,0-16-2.8-22.2-7.5    c6.2-9.3,14.8-18.5,28.8-22.4c3.3,8.4,6,17.5,7.4,27.1C261.9,245,257.2,246,252.2,246z M272.9,239.6c-1.5-8.8-3.9-17.1-6.9-24.9    c6.4-0.8,13.8-0.6,22.3,1C286.6,225.6,280.9,234.1,272.9,239.6z M252.2,165.7c-24.2,0-43.8,19.6-43.8,43.8    c0,24.2,19.6,43.8,43.8,43.8c24.2,0,43.8-19.6,43.8-43.8C296,185.3,276.4,165.7,252.2,165.7z M281,186.9c4.7,6,7.6,13.4,7.8,21.6    c-9.8-1.7-18.3-1.8-25.6-0.6c-0.9-2.1-1.9-4.2-2.9-6.2C268.2,198.4,275.2,193.7,281,186.9z M252.2,172.9c9.1,0,17.3,3.3,23.7,8.7    c-5.1,6.3-11.6,10.6-18.9,13.5c-4.7-8.7-9.5-15.9-13.3-21.2C246.4,173.3,249.3,172.9,252.2,172.9z M236.5,176.4    c3.7,5,8.7,12.2,13.5,21c-10.3,2.8-21.8,3.6-33.4,3.6C219.2,190.2,226.7,181.2,236.5,176.4z M215.7,209.5v-1.2h0.2    c13,0,26-0.9,37.6-4.3c0.8,1.8,1.7,3.5,2.5,5.4c-15.3,4.5-24.8,14.5-31.3,24.1C219.1,227.1,215.7,218.7,215.7,209.5z M252.2,246    c-8.3,0-16-2.8-22.2-7.5c6.2-9.3,14.8-18.5,28.8-22.4c3.3,8.4,6,17.5,7.4,27.1C261.9,245,257.2,246,252.2,246z M272.9,239.6    c-1.5-8.8-3.9-17.1-6.9-24.9c6.4-0.8,13.8-0.6,22.3,1C286.6,225.6,280.9,234.1,272.9,239.6z M252.2,165.7    c-24.2,0-43.8,19.6-43.8,43.8c0,24.2,19.6,43.8,43.8,43.8c24.2,0,43.8-19.6,43.8-43.8C296,185.3,276.4,165.7,252.2,165.7z     M281,186.9c4.7,6,7.6,13.4,7.8,21.6c-9.8-1.7-18.3-1.8-25.6-0.6c-0.9-2.1-1.9-4.2-2.9-6.2C268.2,198.4,275.2,193.7,281,186.9z     M252.2,172.9c9.1,0,17.3,3.3,23.7,8.7c-5.1,6.3-11.6,10.6-18.9,13.5c-4.7-8.7-9.5-15.9-13.3-21.2    C246.4,173.3,249.3,172.9,252.2,172.9z M236.5,176.4c3.7,5,8.7,12.2,13.5,21c-10.3,2.8-21.8,3.6-33.4,3.6    C219.2,190.2,226.7,181.2,236.5,176.4z M215.7,209.5v-1.2h0.2c13,0,26-0.9,37.6-4.3c0.8,1.8,1.7,3.5,2.5,5.4    c-15.3,4.5-24.8,14.5-31.3,24.1C219.1,227.1,215.7,218.7,215.7,209.5z M252.2,246c-8.3,0-16-2.8-22.2-7.5    c6.2-9.3,14.8-18.5,28.8-22.4c3.3,8.4,6,17.5,7.4,27.1C261.9,245,257.2,246,252.2,246z M272.9,239.6c-1.5-8.8-3.9-17.1-6.9-24.9    c6.4-0.8,13.8-0.6,22.3,1C286.6,225.6,280.9,234.1,272.9,239.6z M252.2,165.7c-24.2,0-43.8,19.6-43.8,43.8    c0,24.2,19.6,43.8,43.8,43.8c24.2,0,43.8-19.6,43.8-43.8C296,185.3,276.4,165.7,252.2,165.7z M281,186.9c4.7,6,7.6,13.4,7.8,21.6    c-9.8-1.7-18.3-1.8-25.6-0.6c-0.9-2.1-1.9-4.2-2.9-6.2C268.2,198.4,275.2,193.7,281,186.9z M252.2,172.9c9.1,0,17.3,3.3,23.7,8.7    c-5.1,6.3-11.6,10.6-18.9,13.5c-4.7-8.7-9.5-15.9-13.3-21.2C246.4,173.3,249.3,172.9,252.2,172.9z M236.5,176.4    c3.7,5,8.7,12.2,13.5,21c-10.3,2.8-21.8,3.6-33.4,3.6C219.2,190.2,226.7,181.2,236.5,176.4z M215.7,209.5v-1.2h0.2    c13,0,26-0.9,37.6-4.3c0.8,1.8,1.7,3.5,2.5,5.4c-15.3,4.5-24.8,14.5-31.3,24.1C219.1,227.1,215.7,218.7,215.7,209.5z M252.2,246    c-8.3,0-16-2.8-22.2-7.5c6.2-9.3,14.8-18.5,28.8-22.4c3.3,8.4,6,17.5,7.4,27.1C261.9,245,257.2,246,252.2,246z M272.9,239.6    c-1.5-8.8-3.9-17.1-6.9-24.9c6.4-0.8,13.8-0.6,22.3,1C286.6,225.6,280.9,234.1,272.9,239.6z M252.2,165.7    c-24.2,0-43.8,19.6-43.8,43.8c0,24.2,19.6,43.8,43.8,43.8c24.2,0,43.8-19.6,43.8-43.8C296,185.3,276.4,165.7,252.2,165.7z     M281,186.9c4.7,6,7.6,13.4,7.8,21.6c-9.8-1.7-18.3-1.8-25.6-0.6c-0.9-2.1-1.9-4.2-2.9-6.2C268.2,198.4,275.2,193.7,281,186.9z     M252.2,172.9c9.1,0,17.3,3.3,23.7,8.7c-5.1,6.3-11.6,10.6-18.9,13.5c-4.7-8.7-9.5-15.9-13.3-21.2    C246.4,173.3,249.3,172.9,252.2,172.9z M236.5,176.4c3.7,5,8.7,12.2,13.5,21c-10.3,2.8-21.8,3.6-33.4,3.6    C219.2,190.2,226.7,181.2,236.5,176.4z M215.7,209.5v-1.2h0.2c13,0,26-0.9,37.6-4.3c0.8,1.8,1.7,3.5,2.5,5.4    c-15.3,4.5-24.8,14.5-31.3,24.1C219.1,227.1,215.7,218.7,215.7,209.5z M252.2,246c-8.3,0-16-2.8-22.2-7.5    c6.2-9.3,14.8-18.5,28.8-22.4c3.3,8.4,6,17.5,7.4,27.1C261.9,245,257.2,246,252.2,246z M272.9,239.6c-1.5-8.8-3.9-17.1-6.9-24.9    c6.4-0.8,13.8-0.6,22.3,1C286.6,225.6,280.9,234.1,272.9,239.6z M252.2,165.7c-24.2,0-43.8,19.6-43.8,43.8    c0,24.2,19.6,43.8,43.8,43.8c24.2,0,43.8-19.6,43.8-43.8C296,185.3,276.4,165.7,252.2,165.7z M281,186.9c4.7,6,7.6,13.4,7.8,21.6    c-9.8-1.7-18.3-1.8-25.6-0.6c-0.9-2.1-1.9-4.2-2.9-6.2C268.2,198.4,275.2,193.7,281,186.9z M252.2,172.9c9.1,0,17.3,3.3,23.7,8.7    c-5.1,6.3-11.6,10.6-18.9,13.5c-4.7-8.7-9.5-15.9-13.3-21.2C246.4,173.3,249.3,172.9,252.2,172.9z M236.5,176.4    c3.7,5,8.7,12.2,13.5,21c-10.3,2.8-21.8,3.6-33.4,3.6C219.2,190.2,226.7,181.2,236.5,176.4z M215.7,209.5v-1.2h0.2    c13,0,26-0.9,37.6-4.3c0.8,1.8,1.7,3.5,2.5,5.4c-15.3,4.5-24.8,14.5-31.3,24.1C219.1,227.1,215.7,218.7,215.7,209.5z M252.2,246    c-8.3,0-16-2.8-22.2-7.5c6.2-9.3,14.8-18.5,28.8-22.4c3.3,8.4,6,17.5,7.4,27.1C261.9,245,257.2,246,252.2,246z M272.9,239.6    c-1.5-8.8-3.9-17.1-6.9-24.9c6.4-0.8,13.8-0.6,22.3,1C286.6,225.6,280.9,234.1,272.9,239.6z M252.2,165.7    c-24.2,0-43.8,19.6-43.8,43.8c0,24.2,19.6,43.8,43.8,43.8c24.2,0,43.8-19.6,43.8-43.8C296,185.3,276.4,165.7,252.2,165.7z     M281,186.9c4.7,6,7.6,13.4,7.8,21.6c-9.8-1.7-18.3-1.8-25.6-0.6c-0.9-2.1-1.9-4.2-2.9-6.2C268.2,198.4,275.2,193.7,281,186.9z     M252.2,172.9c9.1,0,17.3,3.3,23.7,8.7c-5.1,6.3-11.6,10.6-18.9,13.5c-4.7-8.7-9.5-15.9-13.3-21.2    C246.4,173.3,249.3,172.9,252.2,172.9z M236.5,176.4c3.7,5,8.7,12.2,13.5,21c-10.3,2.8-21.8,3.6-33.4,3.6    C219.2,190.2,226.7,181.2,236.5,176.4z M215.7,209.5v-1.2h0.2c13,0,26-0.9,37.6-4.3c0.8,1.8,1.7,3.5,2.5,5.4    c-15.3,4.5-24.8,14.5-31.3,24.1C219.1,227.1,215.7,218.7,215.7,209.5z M252.2,246c-8.3,0-16-2.8-22.2-7.5    c6.2-9.3,14.8-18.5,28.8-22.4c3.3,8.4,6,17.5,7.4,27.1C261.9,245,257.2,246,252.2,246z M272.9,239.6c-1.5-8.8-3.9-17.1-6.9-24.9    c6.4-0.8,13.8-0.6,22.3,1C286.6,225.6,280.9,234.1,272.9,239.6z M252.2,165.7c-24.2,0-43.8,19.6-43.8,43.8    c0,24.2,19.6,43.8,43.8,43.8c24.2,0,43.8-19.6,43.8-43.8C296,185.3,276.4,165.7,252.2,165.7z M281,186.9c4.7,6,7.6,13.4,7.8,21.6    c-9.8-1.7-18.3-1.8-25.6-0.6c-0.9-2.1-1.9-4.2-2.9-6.2C268.2,198.4,275.2,193.7,281,186.9z M252.2,172.9c9.1,0,17.3,3.3,23.7,8.7    c-5.1,6.3-11.6,10.6-18.9,13.5c-4.7-8.7-9.5-15.9-13.3-21.2C246.4,173.3,249.3,172.9,252.2,172.9z M236.5,176.4    c3.7,5,8.7,12.2,13.5,21c-10.3,2.8-21.8,3.6-33.4,3.6C219.2,190.2,226.7,181.2,236.5,176.4z M215.7,209.5v-1.2h0.2    c13,0,26-0.9,37.6-4.3c0.8,1.8,1.7,3.5,2.5,5.4c-15.3,4.5-24.8,14.5-31.3,24.1C219.1,227.1,215.7,218.7,215.7,209.5z M252.2,246    c-8.3,0-16-2.8-22.2-7.5c6.2-9.3,14.8-18.5,28.8-22.4c3.3,8.4,6,17.5,7.4,27.1C261.9,245,257.2,246,252.2,246z M272.9,239.6    c-1.5-8.8-3.9-17.1-6.9-24.9c6.4-0.8,13.8-0.6,22.3,1C286.6,225.6,280.9,234.1,272.9,239.6z M252.2,165.7    c-24.2,0-43.8,19.6-43.8,43.8c0,24.2,19.6,43.8,43.8,43.8c24.2,0,43.8-19.6,43.8-43.8C296,185.3,276.4,165.7,252.2,165.7z     M281,186.9c4.7,6,7.6,13.4,7.8,21.6c-9.8-1.7-18.3-1.8-25.6-0.6c-0.9-2.1-1.9-4.2-2.9-6.2C268.2,198.4,275.2,193.7,281,186.9z     M252.2,172.9c9.1,0,17.3,3.3,23.7,8.7c-5.1,6.3-11.6,10.6-18.9,13.5c-4.7-8.7-9.5-15.9-13.3-21.2    C246.4,173.3,249.3,172.9,252.2,172.9z M236.5,176.4c3.7,5,8.7,12.2,13.5,21c-10.3,2.8-21.8,3.6-33.4,3.6    C219.2,190.2,226.7,181.2,236.5,176.4z M215.7,209.5v-1.2h0.2c13,0,26-0.9,37.6-4.3c0.8,1.8,1.7,3.5,2.5,5.4    c-15.3,4.5-24.8,14.5-31.3,24.1C219.1,227.1,215.7,218.7,215.7,209.5z M252.2,246c-8.3,0-16-2.8-22.2-7.5    c6.2-9.3,14.8-18.5,28.8-22.4c3.3,8.4,6,17.5,7.4,27.1C261.9,245,257.2,246,252.2,246z M272.9,239.6c-1.5-8.8-3.9-17.1-6.9-24.9    c6.4-0.8,13.8-0.6,22.3,1C286.6,225.6,280.9,234.1,272.9,239.6z M252.2,165.7c-24.2,0-43.8,19.6-43.8,43.8    c0,24.2,19.6,43.8,43.8,43.8c24.2,0,43.8-19.6,43.8-43.8C296,185.3,276.4,165.7,252.2,165.7z M281,186.9c4.7,6,7.6,13.4,7.8,21.6    c-9.8-1.7-18.3-1.8-25.6-0.6c-0.9-2.1-1.9-4.2-2.9-6.2C268.2,198.4,275.2,193.7,281,186.9z M252.2,172.9c9.1,0,17.3,3.3,23.7,8.7    c-5.1,6.3-11.6,10.6-18.9,13.5c-4.7-8.7-9.5-15.9-13.3-21.2C246.4,173.3,249.3,172.9,252.2,172.9z M236.5,176.4    c3.7,5,8.7,12.2,13.5,21c-10.3,2.8-21.8,3.6-33.4,3.6C219.2,190.2,226.7,181.2,236.5,176.4z M215.7,209.5v-1.2h0.2    c13,0,26-0.9,37.6-4.3c0.8,1.8,1.7,3.5,2.5,5.4c-15.3,4.5-24.8,14.5-31.3,24.1C219.1,227.1,215.7,218.7,215.7,209.5z M252.2,246    c-8.3,0-16-2.8-22.2-7.5c6.2-9.3,14.8-18.5,28.8-22.4c3.3,8.4,6,17.5,7.4,27.1C261.9,245,257.2,246,252.2,246z M272.9,239.6    c-1.5-8.8-3.9-17.1-6.9-24.9c6.4-0.8,13.8-0.6,22.3,1C286.6,225.6,280.9,234.1,272.9,239.6z M252.2,165.7    c-24.2,0-43.8,19.6-43.8,43.8c0,24.2,19.6,43.8,43.8,43.8c24.2,0,43.8-19.6,43.8-43.8C296,185.3,276.4,165.7,252.2,165.7z     M281,186.9c4.7,6,7.6,13.4,7.8,21.6c-9.8-1.7-18.3-1.8-25.6-0.6c-0.9-2.1-1.9-4.2-2.9-6.2C268.2,198.4,275.2,193.7,281,186.9z     M252.2,172.9c9.1,0,17.3,3.3,23.7,8.7c-5.1,6.3-11.6,10.6-18.9,13.5c-4.7-8.7-9.5-15.9-13.3-21.2    C246.4,173.3,249.3,172.9,252.2,172.9z M236.5,176.4c3.7,5,8.7,12.2,13.5,21c-10.3,2.8-21.8,3.6-33.4,3.6    C219.2,190.2,226.7,181.2,236.5,176.4z M215.7,209.5v-1.2h0.2c13,0,26-0.9,37.6-4.3c0.8,1.8,1.7,3.5,2.5,5.4    c-15.3,4.5-24.8,14.5-31.3,24.1C219.1,227.1,215.7,218.7,215.7,209.5z M252.2,246c-8.3,0-16-2.8-22.2-7.5    c6.2-9.3,14.8-18.5,28.8-22.4c3.3,8.4,6,17.5,7.4,27.1C261.9,245,257.2,246,252.2,246z M272.9,239.6c-1.5-8.8-3.9-17.1-6.9-24.9    c6.4-0.8,13.8-0.6,22.3,1C286.6,225.6,280.9,234.1,272.9,239.6z M252.2,165.7c-24.2,0-43.8,19.6-43.8,43.8    c0,24.2,19.6,43.8,43.8,43.8c24.2,0,43.8-19.6,43.8-43.8C296,185.3,276.4,165.7,252.2,165.7z M281,186.9c4.7,6,7.6,13.4,7.8,21.6    c-9.8-1.7-18.3-1.8-25.6-0.6c-0.9-2.1-1.9-4.2-2.9-6.2C268.2,198.4,275.2,193.7,281,186.9z M252.2,172.9c9.1,0,17.3,3.3,23.7,8.7    c-5.1,6.3-11.6,10.6-18.9,13.5c-4.7-8.7-9.5-15.9-13.3-21.2C246.4,173.3,249.3,172.9,252.2,172.9z M236.5,176.4    c3.7,5,8.7,12.2,13.5,21c-10.3,2.8-21.8,3.6-33.4,3.6C219.2,190.2,226.7,181.2,236.5,176.4z M215.7,209.5v-1.2h0.2    c13,0,26-0.9,37.6-4.3c0.8,1.8,1.7,3.5,2.5,5.4c-15.3,4.5-24.8,14.5-31.3,24.1C219.1,227.1,215.7,218.7,215.7,209.5z M252.2,246    c-8.3,0-16-2.8-22.2-7.5c6.2-9.3,14.8-18.5,28.8-22.4c3.3,8.4,6,17.5,7.4,27.1C261.9,245,257.2,246,252.2,246z M272.9,239.6    c-1.5-8.8-3.9-17.1-6.9-24.9c6.4-0.8,13.8-0.6,22.3,1C286.6,225.6,280.9,234.1,272.9,239.6z"/><path d="M255.6,123.9c-45.5,0-82.5,37-82.5,82.5c0,45.5,37,82.5,82.5,82.5c45.5,0,82.5-37,82.5-82.5    C338.1,160.9,301.1,123.9,255.6,123.9z M255.6,282.3c-41.8,0-75.9-34-75.9-75.9c0-41.8,34.1-75.9,75.9-75.9s75.9,34.1,75.9,75.9    C331.5,248.3,297.4,282.3,255.6,282.3z"/><path d="M255.6,491.9c-1.8,0-3.3-1.5-3.3-3.3V483c0-1.8,1.5-3.3,3.3-3.3c1.8,0,3.3,1.5,3.3,3.3v5.6    C258.9,490.4,257.4,491.9,255.6,491.9z"/><path d="M255.6,466.4c-1.8,0-3.3-1.5-3.3-3.3v-20.3c0-1.8,1.5-3.3,3.3-3.3c1.8,0,3.3,1.5,3.3,3.3v20.3    C258.9,465,257.4,466.4,255.6,466.4z"/><path d="M255.6,419.8c-1.8,0-3.3-1.5-3.3-3.3V346c0-1.8,1.5-3.3,3.3-3.3c1.8,0,3.3,1.5,3.3,3.3v70.4    C258.9,418.3,257.4,419.8,255.6,419.8z"/><path d="M255.6,332.5c-1.8,0-3.3-1.5-3.3-3.3v-8.8c0-1.8,1.5-3.3,3.3-3.3c1.8,0,3.3,1.5,3.3,3.3v8.8    C258.9,331,257.4,332.5,255.6,332.5z"/><path d="M296,426.7c-1.8,0-3.3-1.5-3.3-3.3V403c0-1.8,1.5-3.3,3.3-3.3s3.3,1.5,3.3,3.3v20.3C299.3,425.2,297.8,426.7,296,426.7z"/><path d="M296,380c-1.8,0-3.3-1.5-3.3-3.3v-43.9c0-1.8,1.5-3.3,3.3-3.3s3.3,1.5,3.3,3.3v43.9C299.3,378.5,297.8,380,296,380z"/><path d="M296,319.2c-1.8,0-3.3-1.5-3.3-3.3V307c0-1.8,1.5-3.3,3.3-3.3s3.3,1.5,3.3,3.3v8.8C299.3,317.7,297.8,319.2,296,319.2z"/><path d="M296,448.4c-1.8,0-3.3-1.5-3.3-3.3v-1.9c0-1.8,1.5-3.3,3.3-3.3s3.3,1.5,3.3,3.3v1.9C299.3,446.9,297.8,448.4,296,448.4z"/><path d="M215.1,380.8c-1.8,0-3.3-1.5-3.3-3.3V307c0-1.8,1.5-3.3,3.3-3.3s3.3,1.5,3.3,3.3v70.4C218.5,379.3,217,380.8,215.1,380.8z    "/><path d="M215.1,406.5c-1.8,0-3.3-1.5-3.3-3.3v-8.8c0-1.8,1.5-3.3,3.3-3.3s3.3,1.5,3.3,3.3v8.8C218.5,405,217,406.5,215.1,406.5z"/><g><circle cx="227.9" cy="32.4" r="12.3"/><circle cx="396.3" cy="229.2" r="12.3"/><circle cx="115.7" cy="229.2" r="12.3"/><path d="M363.7,86.4c-1.8,0-3.3-1.5-3.3-3.3v-8.9c0-1.8,1.5-3.3,3.3-3.3c1.8,0,3.3,1.5,3.3,3.3v8.9     C367.1,85,365.6,86.4,363.7,86.4z"/><path d="M377.8,92.2c-0.9,0-1.7-0.3-2.3-1c-1.3-1.3-1.3-3.4,0-4.7l6.3-6.3c1.3-1.3,3.4-1.3,4.7,0s1.3,3.4,0,4.7l-6.3,6.3     C379.5,91.9,378.6,92.2,377.8,92.2z"/><path d="M392.5,106.3h-8.7c-1.8,0-3.3-1.5-3.3-3.3c0-1.8,1.5-3.3,3.3-3.3h8.7c1.8,0,3.3,1.5,3.3,3.3     C395.8,104.8,394.3,106.3,392.5,106.3z"/><path d="M384.1,126.6c-0.8,0-1.7-0.3-2.3-1l-6.3-6.3c-1.3-1.3-1.3-3.4,0-4.7c1.3-1.3,3.4-1.3,4.7,0l6.3,6.3     c1.3,1.3,1.3,3.4,0,4.7C385.7,126.2,384.9,126.6,384.1,126.6z"/><path d="M363.7,135c-1.8,0-3.3-1.5-3.3-3.3v-8.7c0-1.8,1.5-3.3,3.3-3.3c1.8,0,3.3,1.5,3.3,3.3v8.7     C367.1,133.5,365.6,135,363.7,135z"/><path d="M343.4,126.6c-0.9,0-1.7-0.3-2.3-1c-1.3-1.3-1.3-3.4,0-4.7l6.3-6.3c1.3-1.3,3.4-1.3,4.7,0c1.3,1.3,1.3,3.4,0,4.7     l-6.3,6.3C345.1,126.2,344.3,126.6,343.4,126.6z"/><path d="M343.8,106.3H335c-1.8,0-3.3-1.5-3.3-3.3c0-1.8,1.5-3.3,3.3-3.3h8.7c1.8,0,3.3,1.5,3.3,3.3     C347.1,104.8,345.6,106.3,343.8,106.3z"/><path d="M349.7,92.2c-0.9,0-1.7-0.3-2.3-1l-6.3-6.3c-1.3-1.3-1.3-3.4,0-4.7c1.3-1.3,3.4-1.3,4.7,0l6.3,6.3c1.3,1.3,1.3,3.4,0,4.7     C351.4,91.9,350.6,92.2,349.7,92.2z"/><path d="M147.2,103.1c-1.8,0-3.3-1.5-3.3-3.3v-8.2c0-1.8,1.5-3.3,3.3-3.3c1.8,0,3.3,1.5,3.3,3.3v8.2     C150.5,101.6,149,103.1,147.2,103.1z"/><path d="M147.2,139.8c-1.8,0-3.3-1.5-3.3-3.3v-8.2c0-1.8,1.5-3.3,3.3-3.3c1.8,0,3.3,1.5,3.3,3.3v8.2     C150.5,138.3,149,139.8,147.2,139.8z"/><path d="M169.7,117.3h-8.2c-1.8,0-3.3-1.5-3.3-3.3c0-1.8,1.5-3.3,3.3-3.3h8.2c1.8,0,3.3,1.5,3.3,3.3     C173,115.8,171.5,117.3,169.7,117.3z"/><path d="M133,117.3h-8.2c-1.8,0-3.3-1.5-3.3-3.3c0-1.8,1.5-3.3,3.3-3.3h8.2c1.8,0,3.3,1.5,3.3,3.3     C136.3,115.8,134.8,117.3,133,117.3z"/></g><path d="M252.2,165.7c-24.2,0-43.8,19.6-43.8,43.8c0,24.2,19.6,43.8,43.8,43.8c24.2,0,43.8-19.6,43.8-43.8    C296,185.3,276.4,165.7,252.2,165.7z M281,186.9c4.7,6,7.6,13.4,7.8,21.6c-9.8-1.7-18.3-1.8-25.6-0.6c-0.9-2.1-1.9-4.2-2.9-6.2    C268.2,198.4,275.2,193.7,281,186.9z M252.2,172.9c9.1,0,17.3,3.3,23.7,8.7c-5.1,6.3-11.6,10.6-18.9,13.5    c-4.7-8.7-9.5-15.9-13.3-21.2C246.4,173.3,249.3,172.9,252.2,172.9z M236.5,176.4c3.7,5,8.7,12.2,13.5,21    c-10.3,2.8-21.8,3.6-33.4,3.6C219.2,190.2,226.7,181.2,236.5,176.4z M215.7,209.5v-1.2h0.2c13,0,26-0.9,37.6-4.3    c0.8,1.8,1.7,3.5,2.5,5.4c-15.3,4.5-24.8,14.5-31.3,24.1C219.1,227.1,215.7,218.7,215.7,209.5z M252.2,246c-8.3,0-16-2.8-22.2-7.5    c6.2-9.3,14.8-18.5,28.8-22.4c3.3,8.4,6,17.5,7.4,27.1C261.9,245,257.2,246,252.2,246z M272.9,239.6c-1.5-8.8-3.9-17.1-6.9-24.9    c6.4-0.8,13.8-0.6,22.3,1C286.6,225.6,280.9,234.1,272.9,239.6z" id="dribble_5_"/></g></g><g id="Deviant_Art"/><g id="Behance"/></svg>