<?xml version="1.0" ?><svg style="enable-background:new 0 0 512 512;" version="1.1" viewBox="0 0 512 512" xml:space="preserve" xmlns="http://www.w3.org/2000/svg" xmlns:xlink="http://www.w3.org/1999/xlink"><style type="text/css">
	.st0{fill-rule:evenodd;clip-rule:evenodd;}
</style><g id="LinkedIn"/><g id="Twitter"/><g id="Youtube_2"/><g id="Tumblr"/><g id="Facebook"/><g id="Instagram"/><g id="Youtube"/><g id="Whatsapp"/><g id="Reddit"/><g id="Snapachat"><g><g><circle cx="227.9" cy="31.5" r="12.3"/><circle cx="396.3" cy="228.4" r="12.3"/><circle cx="115.7" cy="228.4" r="12.3"/><path d="M363.7,85.6c-1.8,0-3.3-1.5-3.3-3.3v-8.9c0-1.8,1.5-3.3,3.3-3.3c1.8,0,3.3,1.5,3.3,3.3v8.9     C367.1,84.1,365.6,85.6,363.7,85.6z"/><path d="M377.8,91.4c-0.9,0-1.7-0.3-2.3-1c-1.3-1.3-1.3-3.4,0-4.7l6.3-6.3c1.3-1.3,3.4-1.3,4.7,0c1.3,1.3,1.3,3.4,0,4.7l-6.3,6.3     C379.5,91.1,378.6,91.4,377.8,91.4z"/><path d="M392.5,105.4h-8.7c-1.8,0-3.3-1.5-3.3-3.3c0-1.8,1.5-3.3,3.3-3.3h8.7c1.8,0,3.3,1.5,3.3,3.3     C395.8,104,394.3,105.4,392.5,105.4z"/><path d="M384.1,125.7c-0.8,0-1.7-0.3-2.3-1l-6.3-6.3c-1.3-1.3-1.3-3.4,0-4.7c1.3-1.3,3.4-1.3,4.7,0l6.3,6.3     c1.3,1.3,1.3,3.4,0,4.7C385.7,125.4,384.9,125.7,384.1,125.7z"/><path d="M363.7,134.2c-1.8,0-3.3-1.5-3.3-3.3v-8.7c0-1.8,1.5-3.3,3.3-3.3c1.8,0,3.3,1.5,3.3,3.3v8.7     C367.1,132.7,365.6,134.2,363.7,134.2z"/><path d="M343.4,125.7c-0.9,0-1.7-0.3-2.3-1c-1.3-1.3-1.3-3.4,0-4.7l6.3-6.3c1.3-1.3,3.4-1.3,4.7,0c1.3,1.3,1.3,3.4,0,4.7     l-6.3,6.3C345.1,125.4,344.3,125.7,343.4,125.7z"/><path d="M343.8,105.4H335c-1.8,0-3.3-1.5-3.3-3.3c0-1.8,1.5-3.3,3.3-3.3h8.7c1.8,0,3.3,1.5,3.3,3.3     C347.1,104,345.6,105.4,343.8,105.4z"/><path d="M349.7,91.4c-0.9,0-1.7-0.3-2.3-1l-6.3-6.3c-1.3-1.3-1.3-3.4,0-4.7c1.3-1.3,3.4-1.3,4.7,0l6.3,6.3c1.3,1.3,1.3,3.4,0,4.7     C351.4,91.1,350.6,91.4,349.7,91.4z"/><path d="M147.2,102.3c-1.8,0-3.3-1.5-3.3-3.3v-8.2c0-1.8,1.5-3.3,3.3-3.3c1.8,0,3.3,1.5,3.3,3.3V99     C150.5,100.8,149,102.3,147.2,102.3z"/><path d="M147.2,138.9c-1.8,0-3.3-1.5-3.3-3.3v-8.2c0-1.8,1.5-3.3,3.3-3.3c1.8,0,3.3,1.5,3.3,3.3v8.2     C150.5,137.4,149,138.9,147.2,138.9z"/><path d="M169.7,116.5h-8.2c-1.8,0-3.3-1.5-3.3-3.3c0-1.8,1.5-3.3,3.3-3.3h8.2c1.8,0,3.3,1.5,3.3,3.3     C173,115,171.5,116.5,169.7,116.5z"/><path d="M133,116.5h-8.2c-1.8,0-3.3-1.5-3.3-3.3c0-1.8,1.5-3.3,3.3-3.3h8.2c1.8,0,3.3,1.5,3.3,3.3     C136.3,115,134.8,116.5,133,116.5z"/></g><path d="M287.4,226.5c0,0.2,0,0.3-0.1,0.5c-0.4,1-2.4,2.5-9.3,3.5c-0.6,0.1-0.8,0.8-1.1,2.4c-0.1,0.6-0.3,1.1-0.4,1.7    c-0.1,0.5-0.5,0.7-1,0.7h-0.1c-0.4,0-0.9-0.1-1.5-0.2c-1.2-0.2-2.5-0.4-4.2-0.4c-1,0-2,0.1-3,0.3c-2.1,0.4-3.8,1.6-5.7,2.9    c-2.7,1.9-5.5,3.9-9.8,3.9c-0.2,0-0.4,0-0.6,0c-0.1,0-0.2,0-0.4,0c-4.3,0-7.1-2-9.8-3.9c-1.9-1.3-3.6-2.6-5.7-2.9    c-1-0.2-2-0.3-3-0.3c-1.8,0-3.1,0.3-4.1,0.5c-0.6,0.1-1.1,0.2-1.5,0.2c-0.4,0-0.9-0.1-1.1-0.8c-0.2-0.6-0.3-1.2-0.4-1.7    c-0.3-1.4-0.5-2.3-1.1-2.4c-6.9-1.1-8.9-2.5-9.3-3.5c-0.1-0.1-0.1-0.3-0.1-0.5c0-0.4,0.3-0.7,0.7-0.8c10.6-1.7,15.4-12.6,15.6-13    c0,0,0,0,0,0c0.6-1.3,0.8-2.5,0.4-3.4c-0.7-1.7-3.1-2.5-4.7-3c-0.4-0.1-0.8-0.2-1-0.3c-3.1-1.2-3.4-2.5-3.3-3.2    c0.2-1.1,1.7-1.9,2.9-1.9c0.3,0,0.6,0,0.9,0.2c1.4,0.7,2.7,1,3.8,1c1.5,0,2.2-0.6,2.3-0.7c0-0.7-0.1-1.5-0.1-2.2    c-0.3-5-0.7-11.2,0.9-14.8c4.8-10.7,14.8-11.5,17.8-11.5c0.1,0,1.3,0,1.3,0h0.2c3,0,13.1,0.8,17.8,11.5c1.6,3.6,1.2,9.8,0.9,14.8    l0,0.2c0,0.7-0.1,1.4-0.1,2c0.1,0.1,0.7,0.7,2.1,0.7c1,0,2.3-0.4,3.6-1c0.4-0.2,0.8-0.2,1.1-0.2c0.4,0,0.9,0.1,1.3,0.2l0,0    c1.1,0.4,1.8,1.1,1.8,1.9c0,0.7-0.5,1.8-3.3,2.9c-0.3,0.1-0.6,0.2-1,0.3c-1.6,0.5-4,1.3-4.7,3c-0.4,0.9-0.3,2.1,0.4,3.4    c0,0,0,0,0,0c0.2,0.5,5,11.3,15.6,13C287.1,225.8,287.4,226.2,287.4,226.5z"/><path d="M250.7,128.1c-43.8,0-79.2,35.5-79.2,79.2s35.5,79.2,79.2,79.2s79.2-35.5,79.2-79.2S294.4,128.1,250.7,128.1z     M250.7,283.2c-41.8,0-75.9-34-75.9-75.9c0-41.9,34.1-75.9,75.9-75.9c41.9,0,75.9,34,75.9,75.9    C326.6,249.1,292.5,283.2,250.7,283.2z"/><path d="M250.7,124.8c-45.5,0-82.5,37-82.5,82.5c0,45.5,37,82.5,82.5,82.5c45.5,0,82.5-37,82.5-82.5    C333.2,161.8,296.2,124.8,250.7,124.8z M250.7,283.2c-41.8,0-75.9-34-75.9-75.9c0-41.9,34.1-75.9,75.9-75.9    c41.9,0,75.9,34,75.9,75.9C326.6,249.1,292.5,283.2,250.7,283.2z"/><path d="M250.7,492.7c-1.8,0-3.3-1.5-3.3-3.3v-5.6c0-1.8,1.5-3.3,3.3-3.3c1.8,0,3.3,1.5,3.3,3.3v5.6    C254,491.2,252.5,492.7,250.7,492.7z"/><path d="M250.7,467.3c-1.8,0-3.3-1.5-3.3-3.3v-20.3c0-1.8,1.5-3.3,3.3-3.3c1.8,0,3.3,1.5,3.3,3.3V464    C254,465.8,252.5,467.3,250.7,467.3z"/><path d="M250.7,420.6c-1.8,0-3.3-1.5-3.3-3.3v-70.4c0-1.8,1.5-3.3,3.3-3.3c1.8,0,3.3,1.5,3.3,3.3v70.4    C254,419.1,252.5,420.6,250.7,420.6z"/><path d="M250.7,333.3c-1.8,0-3.3-1.5-3.3-3.3v-8.8c0-1.8,1.5-3.3,3.3-3.3c1.8,0,3.3,1.5,3.3,3.3v8.8    C254,331.8,252.5,333.3,250.7,333.3z"/><path d="M291.1,427.5c-1.8,0-3.3-1.5-3.3-3.3v-20.3c0-1.8,1.5-3.3,3.3-3.3s3.3,1.5,3.3,3.3v20.3    C294.4,426,292.9,427.5,291.1,427.5z"/><path d="M291.1,380.8c-1.8,0-3.3-1.5-3.3-3.3v-43.9c0-1.8,1.5-3.3,3.3-3.3s3.3,1.5,3.3,3.3v43.9    C294.4,379.3,292.9,380.8,291.1,380.8z"/><path d="M291.1,320c-1.8,0-3.3-1.5-3.3-3.3v-8.8c0-1.8,1.5-3.3,3.3-3.3s3.3,1.5,3.3,3.3v8.8C294.4,318.5,292.9,320,291.1,320z"/><path d="M291.1,449.2c-1.8,0-3.3-1.5-3.3-3.3V444c0-1.8,1.5-3.3,3.3-3.3s3.3,1.5,3.3,3.3v1.9C294.4,447.7,292.9,449.2,291.1,449.2    z"/><path d="M210.3,381.6c-1.8,0-3.3-1.5-3.3-3.3v-70.4c0-1.8,1.5-3.3,3.3-3.3s3.3,1.5,3.3,3.3v70.4    C213.6,380.2,212.1,381.6,210.3,381.6z"/><path d="M210.3,407.3c-1.8,0-3.3-1.5-3.3-3.3v-8.8c0-1.8,1.5-3.3,3.3-3.3s3.3,1.5,3.3,3.3v8.8    C213.6,405.8,212.1,407.3,210.3,407.3z"/><path d="M287.4,226.5c0,0.2,0,0.3-0.1,0.5c-0.4,1-2.4,2.5-9.3,3.5c-0.6,0.1-0.8,0.8-1.1,2.4c-0.1,0.6-0.3,1.1-0.4,1.7    c-0.1,0.5-0.5,0.7-1,0.7h-0.1c-0.4,0-0.9-0.1-1.5-0.2c-1.2-0.2-2.5-0.4-4.2-0.4c-1,0-2,0.1-3,0.3c-2.1,0.4-3.8,1.6-5.7,2.9    c-2.7,1.9-5.5,3.9-9.8,3.9c-0.2,0-0.4,0-0.6,0c-0.1,0-0.2,0-0.4,0c-4.3,0-7.1-2-9.8-3.9c-1.9-1.3-3.6-2.6-5.7-2.9    c-1-0.2-2-0.3-3-0.3c-1.8,0-3.1,0.3-4.1,0.5c-0.6,0.1-1.1,0.2-1.5,0.2c-0.4,0-0.9-0.1-1.1-0.8c-0.2-0.6-0.3-1.2-0.4-1.7    c-0.3-1.4-0.5-2.3-1.1-2.4c-6.9-1.1-8.9-2.5-9.3-3.5c-0.1-0.1-0.1-0.3-0.1-0.5c0-0.4,0.3-0.7,0.7-0.8c10.6-1.7,15.4-12.6,15.6-13    c0,0,0,0,0,0c0.6-1.3,0.8-2.5,0.4-3.4c-0.7-1.7-3.1-2.5-4.7-3c-0.4-0.1-0.8-0.2-1-0.3c-3.1-1.2-3.4-2.5-3.3-3.2    c0.2-1.1,1.7-1.9,2.9-1.9c0.3,0,0.6,0,0.9,0.2c1.4,0.7,2.7,1,3.8,1c1.5,0,2.2-0.6,2.3-0.7c0-0.7-0.1-1.5-0.1-2.2    c-0.3-5-0.7-11.2,0.9-14.8c4.8-10.7,14.8-11.5,17.8-11.5c0.1,0,1.3,0,1.3,0h0.2c3,0,13.1,0.8,17.8,11.5c1.6,3.6,1.2,9.8,0.9,14.8    l0,0.2c0,0.7-0.1,1.4-0.1,2c0.1,0.1,0.7,0.7,2.1,0.7c1,0,2.3-0.4,3.6-1c0.4-0.2,0.8-0.2,1.1-0.2c0.4,0,0.9,0.1,1.3,0.2l0,0    c1.1,0.4,1.8,1.1,1.8,1.9c0,0.7-0.5,1.8-3.3,2.9c-0.3,0.1-0.6,0.2-1,0.3c-1.6,0.5-4,1.3-4.7,3c-0.4,0.9-0.3,2.1,0.4,3.4    c0,0,0,0,0,0c0.2,0.5,5,11.3,15.6,13C287.1,225.8,287.4,226.2,287.4,226.5z"/></g></g><g id="Pinterest"/><g id="Google_x2B_"/><g id="GitHub"/><g id="Dribbble"/><g id="Deviant_Art"/><g id="Behance"/></svg>