<?xml version="1.0" ?><svg style="enable-background:new 0 0 512 512;" version="1.1" viewBox="0 0 512 512" xml:space="preserve" xmlns="http://www.w3.org/2000/svg" xmlns:xlink="http://www.w3.org/1999/xlink"><style type="text/css">
	.st0{fill-rule:evenodd;clip-rule:evenodd;}
</style><g id="LinkedIn"/><g id="Twitter"/><g id="Youtube_2"/><g id="Tumblr"/><g id="Facebook"/><g id="Instagram"/><g id="Youtube"/><g id="Whatsapp"/><g id="Reddit"/><g id="Snapachat"/><g id="Pinterest"/><g id="Google_x2B_"><g><g><circle cx="227.9" cy="31.5" r="12.3"/><circle cx="396.3" cy="228.4" r="12.3"/><circle cx="115.7" cy="228.4" r="12.3"/><path d="M363.7,85.6c-1.8,0-3.3-1.5-3.3-3.3v-8.9c0-1.8,1.5-3.3,3.3-3.3c1.8,0,3.3,1.5,3.3,3.3v8.9     C367.1,84.1,365.6,85.6,363.7,85.6z"/><path d="M377.8,91.4c-0.9,0-1.7-0.3-2.3-1c-1.3-1.3-1.3-3.4,0-4.7l6.3-6.3c1.3-1.3,3.4-1.3,4.7,0c1.3,1.3,1.3,3.4,0,4.7l-6.3,6.3     C379.5,91.1,378.6,91.4,377.8,91.4z"/><path d="M392.5,105.4h-8.7c-1.8,0-3.3-1.5-3.3-3.3c0-1.8,1.5-3.3,3.3-3.3h8.7c1.8,0,3.3,1.5,3.3,3.3     C395.8,104,394.3,105.4,392.5,105.4z"/><path d="M384.1,125.7c-0.8,0-1.7-0.3-2.3-1l-6.3-6.3c-1.3-1.3-1.3-3.4,0-4.7c1.3-1.3,3.4-1.3,4.7,0l6.3,6.3     c1.3,1.3,1.3,3.4,0,4.7C385.7,125.4,384.9,125.7,384.1,125.7z"/><path d="M363.7,134.2c-1.8,0-3.3-1.5-3.3-3.3v-8.7c0-1.8,1.5-3.3,3.3-3.3c1.8,0,3.3,1.5,3.3,3.3v8.7     C367.1,132.7,365.6,134.2,363.7,134.2z"/><path d="M343.4,125.7c-0.9,0-1.7-0.3-2.3-1c-1.3-1.3-1.3-3.4,0-4.7l6.3-6.3c1.3-1.3,3.4-1.3,4.7,0c1.3,1.3,1.3,3.4,0,4.7     l-6.3,6.3C345.1,125.4,344.3,125.7,343.4,125.7z"/><path d="M343.8,105.4H335c-1.8,0-3.3-1.5-3.3-3.3c0-1.8,1.5-3.3,3.3-3.3h8.7c1.8,0,3.3,1.5,3.3,3.3     C347.1,104,345.6,105.4,343.8,105.4z"/><path d="M349.7,91.4c-0.9,0-1.7-0.3-2.3-1l-6.3-6.3c-1.3-1.3-1.3-3.4,0-4.7c1.3-1.3,3.4-1.3,4.7,0l6.3,6.3c1.3,1.3,1.3,3.4,0,4.7     C351.4,91.1,350.6,91.4,349.7,91.4z"/><path d="M147.2,102.3c-1.8,0-3.3-1.5-3.3-3.3v-8.2c0-1.8,1.5-3.3,3.3-3.3c1.8,0,3.3,1.5,3.3,3.3V99     C150.5,100.8,149,102.3,147.2,102.3z"/><path d="M147.2,138.9c-1.8,0-3.3-1.5-3.3-3.3v-8.2c0-1.8,1.5-3.3,3.3-3.3c1.8,0,3.3,1.5,3.3,3.3v8.2     C150.5,137.4,149,138.9,147.2,138.9z"/><path d="M169.7,116.5h-8.2c-1.8,0-3.3-1.5-3.3-3.3c0-1.8,1.5-3.3,3.3-3.3h8.2c1.8,0,3.3,1.5,3.3,3.3     C173,115,171.5,116.5,169.7,116.5z"/><path d="M133,116.5h-8.2c-1.8,0-3.3-1.5-3.3-3.3c0-1.8,1.5-3.3,3.3-3.3h8.2c1.8,0,3.3,1.5,3.3,3.3     C136.3,115,134.8,116.5,133,116.5z"/></g><path d="M265.3,203.4c0.5,7.8-0.6,16-5.6,22.3c-6.9,8.9-19.6,11.5-30,8c-11-3.6-19-14.7-18.8-26.3c-0.5-14.3,12-27.6,26.4-27.8    c7.3-0.6,14.4,2.2,20,6.8c-2.3,2.5-4.6,5-7,7.3c-4.9-3-10.8-5.2-16.5-3.2c-9.2,2.6-14.8,13.5-11.4,22.5    c2.8,9.4,14.2,14.5,23.2,10.6c4.6-1.7,7.7-5.9,9-10.5c-5.3-0.1-10.6,0-16-0.2c0-3.2,0-6.3,0-9.5    C247.5,203.3,256.4,203.3,265.3,203.4z"/><path d="M290.5,203.3c2.7,0,5.3,0,8,0v7.9c-2.7,0-5.3,0-8,0c0,2.7,0,5.3,0,8c-2.7,0-5.3,0-7.9,0c0-2.7,0-5.3,0-7.9    c-2.6,0-5.3,0-7.9,0v-7.9c2.6,0,5.3,0,7.9,0c0-2.6,0-5.3,0.1-8h7.9C290.5,198,290.5,200.7,290.5,203.3z"/><path d="M254.7,128.1c-43.8,0-79.2,35.5-79.2,79.2s35.5,79.2,79.2,79.2s79.2-35.5,79.2-79.2S298.4,128.1,254.7,128.1z     M254.7,283.2c-41.9,0-75.9-34-75.9-75.9c0-41.9,34-75.9,75.9-75.9c41.9,0,75.9,34,75.9,75.9C330.6,249.1,296.5,283.2,254.7,283.2    z"/><path d="M254.7,124.8c-45.5,0-82.5,37-82.5,82.5c0,45.5,37,82.5,82.5,82.5c45.5,0,82.5-37,82.5-82.5    C337.2,161.8,300.2,124.8,254.7,124.8z M254.7,283.2c-41.9,0-75.9-34-75.9-75.9c0-41.9,34-75.9,75.9-75.9    c41.9,0,75.9,34,75.9,75.9C330.6,249.1,296.5,283.2,254.7,283.2z"/><path d="M254.7,492.7c-1.8,0-3.3-1.5-3.3-3.3v-5.6c0-1.8,1.5-3.3,3.3-3.3c1.8,0,3.3,1.5,3.3,3.3v5.6    C258,491.2,256.5,492.7,254.7,492.7z"/><path d="M254.7,467.3c-1.8,0-3.3-1.5-3.3-3.3v-20.3c0-1.8,1.5-3.3,3.3-3.3c1.8,0,3.3,1.5,3.3,3.3V464    C258,465.8,256.5,467.3,254.7,467.3z"/><path d="M254.7,420.6c-1.8,0-3.3-1.5-3.3-3.3v-70.4c0-1.8,1.5-3.3,3.3-3.3c1.8,0,3.3,1.5,3.3,3.3v70.4    C258,419.1,256.5,420.6,254.7,420.6z"/><path d="M254.7,333.3c-1.8,0-3.3-1.5-3.3-3.3v-8.8c0-1.8,1.5-3.3,3.3-3.3c1.8,0,3.3,1.5,3.3,3.3v8.8    C258,331.8,256.5,333.3,254.7,333.3z"/><path d="M295.1,427.5c-1.8,0-3.3-1.5-3.3-3.3v-20.3c0-1.8,1.5-3.3,3.3-3.3c1.8,0,3.3,1.5,3.3,3.3v20.3    C298.4,426,296.9,427.5,295.1,427.5z"/><path d="M295.1,380.8c-1.8,0-3.3-1.5-3.3-3.3v-43.9c0-1.8,1.5-3.3,3.3-3.3c1.8,0,3.3,1.5,3.3,3.3v43.9    C298.4,379.3,296.9,380.8,295.1,380.8z"/><path d="M295.1,320c-1.8,0-3.3-1.5-3.3-3.3v-8.8c0-1.8,1.5-3.3,3.3-3.3c1.8,0,3.3,1.5,3.3,3.3v8.8    C298.4,318.5,296.9,320,295.1,320z"/><path d="M295.1,449.2c-1.8,0-3.3-1.5-3.3-3.3V444c0-1.8,1.5-3.3,3.3-3.3c1.8,0,3.3,1.5,3.3,3.3v1.9    C298.4,447.7,296.9,449.2,295.1,449.2z"/><path d="M214.3,381.6c-1.8,0-3.3-1.5-3.3-3.3v-70.4c0-1.8,1.5-3.3,3.3-3.3c1.8,0,3.3,1.5,3.3,3.3v70.4    C217.6,380.2,216.1,381.6,214.3,381.6z"/><path d="M214.3,407.3c-1.8,0-3.3-1.5-3.3-3.3v-8.8c0-1.8,1.5-3.3,3.3-3.3c1.8,0,3.3,1.5,3.3,3.3v8.8    C217.6,405.8,216.1,407.3,214.3,407.3z"/><path d="M259.7,225.6c-6.9,8.9-19.6,11.5-30,8c-11-3.6-19-14.7-18.8-26.3c-0.5-14.3,12-27.6,26.4-27.8c7.3-0.6,14.4,2.2,20,6.8    c-2.3,2.5-4.6,5-7,7.3c-4.9-3-10.8-5.2-16.5-3.2c-9.2,2.6-14.8,13.5-11.4,22.5c2.8,9.4,14.2,14.5,23.2,10.6    c4.6-1.7,7.7-5.9,9-10.5c-5.3-0.1-10.6,0-16-0.2c0-3.2,0-6.3,0-9.5c8.9,0,17.7,0,26.6,0C265.8,211.1,264.7,219.4,259.7,225.6z"/><path d="M298.5,203.3v7.9c-2.7,0-5.3,0-8,0c0,2.7,0,5.3,0,8c-2.7,0-5.3,0-7.9,0c0-2.7,0-5.3,0-7.9c-2.6,0-5.3,0-7.9,0v-7.9    c2.6,0,5.3,0,7.9,0c0-2.6,0-5.3,0.1-8h7.9c0,2.7,0,5.3,0,8C293.2,203.3,295.8,203.3,298.5,203.3z"/></g></g><g id="GitHub"/><g id="Dribbble"/><g id="Deviant_Art"/><g id="Behance"/></svg>