<?xml version="1.0" ?><svg enable-background="new 0 0 30 30" height="512" id="Layer_1" version="1.1" viewBox="0 0 512 512" width="512" xml:space="preserve" xmlns="http://www.w3.org/2000/svg" xmlns:cc="http://creativecommons.org/ns#" xmlns:dc="http://purl.org/dc/elements/1.1/" xmlns:inkscape="http://www.inkscape.org/namespaces/inkscape" xmlns:rdf="http://www.w3.org/1999/02/22-rdf-syntax-ns#" xmlns:sodipodi="http://sodipodi.sourceforge.net/DTD/sodipodi-0.dtd" xmlns:svg="http://www.w3.org/2000/svg" xmlns:xlink="http://www.w3.org/1999/xlink"><defs id="defs79"><linearGradient gradientTransform="translate(-662.25693,-1536.7687)" gradientUnits="userSpaceOnUse" id="linearGradient3843" x1="256.50049" x2="256.50049" y1="471.79099" y2="133.04559"><stop id="stop3845" offset="0" style="stop-color:#b3631b;stop-opacity:1;"/><stop id="stop3847" offset="1" style="stop-color:#e19558;stop-opacity:1;"/></linearGradient><linearGradient gradientTransform="translate(-662.25693,-1536.7687)" gradientUnits="userSpaceOnUse" id="path108_2_" x1="256.50049" x2="256.50049" y1="471.79099" y2="133.04559"><stop id="stop10" offset="0" style="stop-color:#c5752d;stop-opacity:1;"/><stop id="stop12-1" offset="1" style="stop-color:#e7ab7b;stop-opacity:1;"/></linearGradient><linearGradient gradientTransform="translate(-540.11617,-130.55161)" gradientUnits="userSpaceOnUse" id="linearGradient3338" x1="256.50049" x2="256.50049" xlink:href="#path108_2_" y1="471.79099" y2="133.04559"/><linearGradient gradientUnits="userSpaceOnUse" id="linearGradient3791" x1="418.43079" x2="417.9664" xlink:href="#path108_2_" y1="347.47681" y2="-0.18233438"/><linearGradient gradientTransform="translate(1635.9966,-2013.2351)" gradientUnits="userSpaceOnUse" id="linearGradient3006" x1="256.00049" x2="256.00049" xlink:href="#SVGID_1_-8" y1="512" y2="0.00048828131"/><linearGradient gradientUnits="userSpaceOnUse" id="SVGID_1_-8" x1="256.00049" x2="256.00049" y1="512" y2="0.00048828131"><stop id="stop4-8" offset="0" style="stop-color:#0c80b1;stop-opacity:1"/><stop id="stop6-2" offset="1" style="stop-color:#11a7df;stop-opacity:1"/></linearGradient><linearGradient gradientTransform="translate(-544.69941,207.20573)" gradientUnits="userSpaceOnUse" id="linearGradient3355" x1="256.00049" x2="256.00049" xlink:href="#SVGID_1_-8" y1="512" y2="0.00048828131"/><linearGradient gradientUnits="userSpaceOnUse" id="linearGradient3816" x1="17.083406" x2="21.972782" xlink:href="#SVGID_1_-8" y1="465.56476" y2="218.54378"/><linearGradient gradientUnits="userSpaceOnUse" id="linearGradient3818" x1="497.2446" x2="498.06696" xlink:href="#SVGID_1_-8" y1="461.25214" y2="217.28079"/><linearGradient gradientTransform="translate(869.89203,-509.56148)" gradientUnits="userSpaceOnUse" id="SVGID_1_" x1="256.01999" x2="256.01999" y1="492.9541" y2="18.0005"><stop id="stop18" offset="0" style="stop-color:#343434;stop-opacity:1"/><stop id="stop20" offset="1" style="stop-color:#636363;stop-opacity:1"/></linearGradient><linearGradient gradientTransform="translate(-595.54676,-109.434)" gradientUnits="userSpaceOnUse" id="linearGradient3371" x1="487.79276" x2="273.3013" xlink:href="#SVGID_1_" y1="260.55972" y2="298.172"/><linearGradient gradientUnits="userSpaceOnUse" id="linearGradient3841" x1="118.1162" x2="121.5506" xlink:href="#linearGradient3843" y1="511.8511" y2="302.44238"/><linearGradient gradientUnits="userSpaceOnUse" id="linearGradient3857" x1="197.21016" x2="199.24321" xlink:href="#SVGID_1_" y1="316.82297" y2="201.95314"/><linearGradient gradientUnits="userSpaceOnUse" id="linearGradient3867" x1="185.51987" x2="201.27634" xlink:href="#SVGID_1_" y1="162.05362" y2="162.05362"/><linearGradient gradientUnits="userSpaceOnUse" id="linearGradient3867-3" x1="185.51987" x2="201.27634" xlink:href="#SVGID_1_-6" y1="162.05362" y2="162.05362"/><linearGradient gradientTransform="translate(869.89203,-509.56148)" gradientUnits="userSpaceOnUse" id="SVGID_1_-6" x1="256.01999" x2="256.01999" y1="492.9541" y2="18.0005"><stop id="stop18-2" offset="0" style="stop-color:#343434;stop-opacity:1"/><stop id="stop20-4" offset="1" style="stop-color:#636363;stop-opacity:1"/></linearGradient><linearGradient gradientUnits="userSpaceOnUse" id="linearGradient3884" x1="185.51987" x2="201.27634" xlink:href="#SVGID_1_-6" y1="162.05362" y2="162.05362"/></defs><path d="m 356.29979,155.70021 a 35.070877,29.47987 0 1 1 -70.14175,0 35.070877,29.47987 0 1 1 70.14175,0 z" id="path3018" style="fill:#ffffff;fill-opacity:1;stroke:none"/><path d="m 221.60729,155.44606 a 29.225733,26.684364 0 1 1 -58.45146,0 29.225733,26.684364 0 1 1 58.45146,0 z" id="path3016" style="fill:#ffffff;fill-opacity:1;stroke:none"/><g id="g3903"><rect height="111.82023" id="rect3849" style="fill:url(#linearGradient3857);fill-opacity:1;stroke:none" width="115.88634" x="197.21016" y="203.98621"/><path d="m 346.42976,471.98683 -13.97773,-2.03095 6.95473,-12.28811 c 4.04484,-7.15954 10.21449,-16.14522 17.35696,-26.54745 15.59908,-22.72447 41.71132,-60.76642 37.85421,-75.46096 -1.97121,-7.4838 -3.15736,-13.86679 -3.84003,-19.23431 l -9.84756,7.79101 -4.52271,-12.72332 c -0.3328,-0.93868 -3.26829,-9.70249 -3.26829,-23.09995 -30.62642,31.23229 -72.99481,50.61167 -119.74084,50.61167 -42.70972,0 -81.75862,-16.20495 -111.54876,-42.82919 -0.62294,10.26569 -2.83309,16.78522 -3.11469,17.59589 l -4.51418,12.72332 -9.84755,-7.79101 c -0.68268,5.36752 -1.86882,11.75904 -3.84004,19.23431 -3.8571,14.69454 22.2466,52.72795 37.84568,75.46096 7.14247,10.40223 13.32066,19.38791 17.36549,26.54745 l 6.9462,12.28811 -13.96919,2.02242 c -2.79043,0.4096 -5.63206,0.6144 -8.44808,0.6144 -9.92436,0 -19.25991,-2.56855 -27.92986,-6.64752 C 165.16302,495.54758 207.36074,512 253.3985,512 c 45.03082,0 86.36666,-15.75268 118.86189,-42.01852 -5.57231,1.63841 -11.37503,2.61122 -17.38256,2.61122 -2.81602,0 -5.65765,-0.21333 -8.44807,-0.60587 z" id="path9" style="fill-opacity:1.0;fill:url(#linearGradient3841)"/><path d="m 167.33904,462.15634 c -14.5836,-25.78797 -62.90831,-83.4653 -56.14131,-109.22767 6.75846,-25.75384 3.49016,-36.77047 3.49016,-36.77047 l 14.94201,11.83584 c 0,0 3.58403,-10.18036 2.39789,-25.8477 -17.6727,-19.91699 -30.81415,-44.03241 -37.803019,-70.67372 -4.736043,-4.36911 -9.967025,-8.73821 -15.897746,-13.08172 0,0 -89.780025,11.91264 -50.108194,128.84598 7.031531,-35.91713 12.62945,-36.01953 12.62945,-36.01953 0,0 -7.014465,54.71624 32.452565,110.89169 0.298669,-40.90918 5.017646,-26.81198 5.017646,-26.81198 0,0 38.502758,74.20655 89.020548,66.85928 z" id="path13" style="fill-opacity:1;fill:url(#linearGradient3816)"/><path d="m 436.83272,216.11248 c -5.62352,4.1131 -10.61556,8.26887 -15.16387,12.40758 -6.78406,27.90426 -20.29245,53.13755 -38.69902,73.80548 -0.66561,14.26786 2.55149,23.38155 2.55149,23.38155 l 14.942,-11.81878 c 0,0 -3.2683,11.01664 3.49017,36.77047 6.76699,25.75384 -41.55772,83.4141 -56.14132,109.21914 50.50926,7.3302 89.01202,-66.86781 89.01202,-66.86781 0,0 4.71897,-14.0972 5.01764,26.82051 39.46703,-56.17545 32.4611,-110.89169 32.4611,-110.89169 0,0 5.59792,0.11094 12.62092,36.02807 39.6889,-116.93335 -50.09113,-128.85452 -50.09113,-128.85452 z" id="path17" style="fill-opacity:1;fill:url(#linearGradient3818)"/><path d="m 257.57987,349.32757 c 88.02215,0 159.37,-72.49987 159.37,-161.93002 0,-77.74792 -53.93116,-142.670114 -125.85076,-158.320391 4.72752,-6.87793 10.84597,-12.689184 10.84597,-12.689184 l -24.75543,-2.560023 c 0,0 7.66301,-5.9648551 15.33454,-12.7830511 -51.1322,-8.5248784 -98.67184,37.9139481 -98.67184,37.9139481 h 0.0256 C 137.5745,63.944679 98.218408,120.982 98.218408,187.39755 c -0.0085,89.42162 71.339322,161.93002 159.361462,161.93002 z m 65.48541,-215.86972 c 11.35797,0 20.57405,9.21609 20.57405,20.57406 0,11.35797 -9.21608,20.57405 -20.57405,20.57405 -11.36651,0 -20.57406,-9.20755 -20.57406,-20.57405 0,-11.36651 9.21608,-20.57406 20.57406,-20.57406 z M 218.47125,222.0432 c 0,0 8.83208,-14.75427 39.10862,-14.75427 30.28508,0 39.10863,14.75427 39.10863,14.75427 5.10298,3.6779 6.77553,11.3665 3.7035,17.10096 l -37.22274,69.3681 c -3.07203,5.73445 -8.10674,5.73445 -11.1873,0 l -37.21421,-69.3681 c -3.08057,-5.73446 -1.39948,-13.43159 3.7035,-17.10096 z m -26.38531,-88.58535 c 11.35797,0 20.57405,9.21609 20.57405,20.57406 0,11.35797 -9.21608,20.57405 -20.57405,20.57405 -11.35797,0 -20.57406,-9.20755 -20.57406,-20.57405 0,-11.36651 9.21609,-20.57406 20.57406,-20.57406 z" id="path21" style="fill-opacity:1.0;fill:url(#linearGradient3791)"/><path d="m 201.27634,162.05362 a 7.8782411,7.8782411 0 1 1 -15.75648,0 7.8782411,7.8782411 0 1 1 15.75648,0 z" id="path3859" style="fill:url(#linearGradient3867);fill-opacity:1;stroke:none" transform="matrix(0,-1.6451613,1.6451613,0,-71.681418,476.66677)"/><path d="m 201.27634,162.05362 a 7.8782411,7.8782411 0 1 1 -15.75648,0 7.8782411,7.8782411 0 1 1 15.75648,0 z" id="path3859-5" style="fill:url(#linearGradient3884);fill-opacity:1;stroke:none" transform="matrix(0,-1.6451613,1.6451613,0,52.546158,475.58847)"/></g></svg>