<?xml version="1.0" ?><svg enable-background="new 0 0 30 30" height="512" id="Layer_1" version="1.1" viewBox="0 0 512 512" width="512" xml:space="preserve" xmlns="http://www.w3.org/2000/svg" xmlns:cc="http://creativecommons.org/ns#" xmlns:dc="http://purl.org/dc/elements/1.1/" xmlns:inkscape="http://www.inkscape.org/namespaces/inkscape" xmlns:rdf="http://www.w3.org/1999/02/22-rdf-syntax-ns#" xmlns:sodipodi="http://sodipodi.sourceforge.net/DTD/sodipodi-0.dtd" xmlns:svg="http://www.w3.org/2000/svg"><defs id="defs15"><linearGradient gradientTransform="matrix(1,0,0,-1,-41.6602,348.04)" gradientUnits="userSpaceOnUse" id="linearGradient3984" x1="516.11951" x2="516.31952" y1="348.06253" y2="-164.18085"><stop id="stop4" offset="0" stop-color="#fbde14"/><stop id="stop6" offset="1" stop-color="#faa819"/></linearGradient><linearGradient gradientTransform="translate(-545.17209,352.12974)" gradientUnits="userSpaceOnUse" id="linearGradient4036" x1="878.24628" x2="885.52423" y1="104.08287" y2="-300.33762"><stop id="stop18" offset="0" stop-color="#343434"/><stop id="stop20" offset="1" stop-color="#636363"/></linearGradient></defs><path d="M85.344,0c-47.13,0-85.344,38.223-85.344,85.344v341.32c0,47.13,38.214,85.34,85.344,85.34h341.32c47.13,0,85.34-38.21,85.34-85.34v-341.32c0-47.121-38.21-85.344-85.34-85.344h-341.32z" fill="url(#linearGradient3984)" id="path5" style="fill:url(#linearGradient3984)"/><path d="m 312.4539,60.021892 c -38.12723,0 -69.15165,30.992433 -69.15165,69.119668 0,16.2947 5.71506,31.28026 15.15268,43.10281 -18.3198,4.23436 -45.70976,44.40372 -49.19669,73.47215 -19.75482,80.91127 -111.54057,95.05604 -115.450476,95.62035 l -14.668844,2.12775 3.77187,14.34594 c 0.07046,0.27291 7.153164,26.9969 14.92675,51.83975 l 3.09491,9.80055 10.25189,-0.54806 c 73.05021,-4.05836 130.23383,-57.04642 149.58734,-77.37276 48.77063,27.09697 71.43775,97.68466 71.66678,98.42434 l 3.80416,12.02476 12.18569,-3.19168 c 1.25891,-0.32572 30.66437,-8.12094 47.68122,-15.41059 l 9.63941,-4.12655 -1.83765,-10.31636 c -8.82968,-49.66816 -51.65303,-105.0619 -79.43604,-136.69188 5.53731,0.2465 11.55743,0.4191 17.95667,0.4191 30.10729,0 57.32084,-3.4762 80.88652,-10.31636 l 9.54264,-2.74024 v -9.96169 c 0,-5.37885 -1.38384,-11.06843 -3.32053,-18.95633 -1.59347,-6.54965 -3.59381,-14.72248 -5.41609,-25.24312 l -2.16005,-12.50859 -12.60557,1.67641 c -11.79676,1.56695 -23.35316,2.35337 -34.36691,2.35337 -24.20014,0 -43.66713,-3.83315 -59.02923,-8.83339 36.48074,-1.85747 65.60591,-32.05193 65.60591,-68.99071 0,-38.117952 -31.00172,-69.11967 -69.11966,-69.11967 z" id="path5-1" stroke-miterlimit="4" style="fill:#ffffff;stroke:none"/></svg>