<?xml version="1.0" ?><svg id="Слой_1" style="enable-background:new 0 0 1600 1600;" version="1.1" viewBox="0 0 1600 1600" xml:space="preserve" xmlns="http://www.w3.org/2000/svg" xmlns:xlink="http://www.w3.org/1999/xlink"><style type="text/css">
	.st0{fill:none;}
</style><g id="XMLID_9_"><g><path d="M940.2,659.4v38.4c0,6.2,5,11.2,11.2,11.2h112.8c6.2,0,11.2,5,11.2,11.2c0,40,0,79.9,0,119.9c0,6.2,5,11.2,11.2,11.2h41    c6.2,0,11.2-5,11.2-11.2c0-40,0-79.9,0-119.9c0-6.2,5-11.2,11.2-11.2h112.8c6.2,0,11.2-5,11.2-11.2c0-12.8,0-25.6,0-38.4    c0-6.2-5-11.2-11.2-11.2c-37.6,0-75.2,0-112.8,0c-6.2,0-11.2-5-11.2-11.2c0-39.5,0-79.1,0-118.6c0-6.2-5-11.2-11.2-11.2    c-13.7,0-27.3,0-41,0c-6.2,0-11.2,5-11.2,11.2c0,39.6,0,79.1,0,118.6c0,6.2-5,11.2-11.2,11.2c-37.6,0-75.2,0-112.8,0    C945.2,648.2,940.2,653.2,940.2,659.4z M326.2,686.3c-0.9,86.7,28.9,163.8,83.2,214.7c54.3,52.5,132.3,79.7,240.1,79.7    c73.3,0,146.6-17,189.4-30.7c4.6-1.5,7.8-5.8,7.8-10.7c0-97.2,0-194.5,0-291.8c0-6.2-5-11.2-11.2-11.2c-65.9,0-131.7,0-197.6,0    c-6.2,0-11.2,5-11.2,11.2c0,27.3,0,54.6,0,81.9c0,6.2,5,11.2,11.2,11.2c22.9,0,45.8,0,68.8,0c6.2,0,11.2,5,11.2,11.2    c0,34.9,0,69.7,0,104.6c0,4.9-3.2,9.3-8,10.7c-12.7,3.6-33.2,5.8-57.7,5.8c-109.5,0-185.7-71.8-185.7-193.6    c0-127.9,84.1-191,195.4-191c57.3,0,95.5,8.9,125.9,20.7c6.2,2.4,13.2-1.1,14.8-7.6c7.5-28.5,14.9-56.9,22.4-85.4    c1.4-5.4-1.3-11-6.5-13.1c-31.1-12.7-85.8-25-154.9-25C469.9,377.9,327.1,490,326.2,686.3z M1431.8,680.7v522.2    c0,22.3-18.1,40.3-40.4,40.3h-3.1c-22.2,0-40.2-17.9-40.3-40.1l-0.7-205.6c-13.3,23-28,45.1-44,66.1l-0.4,167.2    c0,22.2-18.1,40.2-40.3,40.2h-0.2c-22.4,0-40.4-18.2-40.3-40.5l0.3-79c-14.2,12.8-29,24.9-44.3,36.4l-0.4,301.7    c-0.1,22.2-18.1,40.2-40.3,40.2h-0.1c-22.3,0-40.4-18.1-40.4-40.3v-250c-14.3,7.6-28.9,14.7-43.7,21.2v60.6    c0,22.3-18.1,40.4-40.4,40.4h-4.7c-22.3,0-40.3-18.1-40.3-40.4V1291c-14,3.8-28.2,7.2-42.6,10.1v99.5c0,22.3-18.1,40.3-40.4,40.3    h-2.3c-22.3,0-40.3-18.1-40.3-40.3v-88.4c-13.9,0.9-28,1.4-42.1,1.4s-28.2-0.5-42.1-1.4v197.6c0,22.3-18.1,40.3-40.3,40.3h-2.3    c-22.3,0-40.4-18-40.4-40.3v-208.6c-14.4-2.9-28.6-6.3-42.6-10.1v68.5c0,22.3-18,40.3-40.3,40.3h-4.7c-22.3,0-40.4-18.1-40.4-40.3    v-98.8c-14.9-6.5-29.5-13.6-43.7-21.2v201.4c0,22.3-18.1,40.4-40.4,40.4c-11.1,0-21.2-4.5-28.5-11.8c-7.3-7.3-11.8-17.4-11.8-28.5    v-252.6c-15.3-11.4-30.1-23.5-44.3-36.3l0,79.7c0,22.3-18.1,40.4-40.3,40.4h-0.3c-22.3,0-40.4-18.1-40.4-40.4v-167.4    c-7.4-9.7-14.6-19.7-21.4-29.9c-8.4-12.5-16.4-25.4-24-38.5V1104c0,22.3-18.1,40.4-40.3,40.4h-2.8c-22.3,0-40.4-18.1-40.4-40.4    V681.8C168.3,332.8,451.1,50,800,50S1431.8,331.8,1431.8,680.7z"/></g></g></svg>