<?xml version="1.0" ?><svg id="Слой_1" style="enable-background:new 0 0 1600 1600;" version="1.1" viewBox="0 0 1600 1600" xml:space="preserve" xmlns="http://www.w3.org/2000/svg" xmlns:xlink="http://www.w3.org/1999/xlink"><style type="text/css">
	.st0{fill:none;}
</style><g id="XMLID_7_"><g><path d="M1049.5,1065.9c0,7.4,6,13.3,13.3,13.3h146.6c7.4,0,13.3-6,13.3-13.3c0-105.7,0-211.4,0-317.1    c0-164.1-85.5-239.3-199.4-239.3c-89.8,0-146.2,50.7-170.2,86.1c-1.2,1.8-3.2,2.8-5.3,2.8h0c-2.2-21.5-4.5-42.9-6.7-64.4    c-0.7-6.8-6.4-11.9-13.3-11.9H703.3c-7.6,0-13.7,6.3-13.3,13.9c2.1,46.2,3.9,100.8,3.9,163.9v366.2c0,7.4,6,13.3,13.3,13.3h146.5    c7.4,0,13.3-6,13.3-13.3v-308c0-16,2.3-33.1,6.9-43.3c11.4-31.9,39.9-65,87.7-65c62.7,0,87.8,49,87.8,120.8V1065.9z M555.1,535.4    c0-7.4-5.9-13.3-13.3-13.3H395.2c-7.3,0-13.3,6-13.3,13.3v530.6c0,7.4,6,13.3,13.3,13.3h146.6c7.4,0,13.3-6,13.3-13.3V535.4z     M560.8,367c-1.2-50.2-36.5-87.8-92.3-87.8c-55.8,0-92.3,37.6-91.2,87.8c-1.1,47.8,35.3,86.6,90,86.6    C524.3,453.6,560.8,414.9,560.8,367z M1431.8,680.7v522.2c0,22.3-18.1,40.3-40.4,40.3h-3.1c-22.2,0-40.2-17.9-40.3-40.1    l-0.7-205.6c-13.3,23-28,45.1-44,66.1l-0.4,167.2c0,22.2-18.1,40.2-40.3,40.2h-0.2c-22.4,0-40.4-18.2-40.3-40.5l0.3-79    c-14.2,12.8-29,24.9-44.3,36.4l-0.4,301.7c-0.1,22.2-18.1,40.2-40.3,40.2h-0.1c-22.3,0-40.4-18.1-40.4-40.3v-250    c-14.3,7.6-28.9,14.7-43.7,21.2v60.6c0,22.3-18.1,40.4-40.4,40.4h-4.7c-22.3,0-40.3-18.1-40.3-40.4V1291    c-14,3.8-28.2,7.2-42.6,10.1v99.5c0,22.3-18.1,40.3-40.4,40.3h-2.3c-22.3,0-40.3-18.1-40.3-40.3v-88.4c-13.9,0.9-28,1.4-42.1,1.4    s-28.2-0.5-42.1-1.4v197.6c0,22.3-18.1,40.3-40.3,40.3h-2.3c-22.3,0-40.4-18-40.4-40.3v-208.6c-14.4-2.9-28.6-6.3-42.6-10.1v68.5    c0,22.3-18,40.3-40.3,40.3h-4.7c-22.3,0-40.4-18.1-40.4-40.3v-98.8c-14.9-6.5-29.5-13.6-43.7-21.2v201.4    c0,22.3-18.1,40.4-40.4,40.4c-11.1,0-21.2-4.5-28.5-11.8c-7.3-7.3-11.8-17.4-11.8-28.5v-252.6c-15.3-11.4-30.1-23.5-44.3-36.3    l0,79.7c0,22.3-18.1,40.4-40.3,40.4h-0.3c-22.3,0-40.4-18.1-40.4-40.4v-167.4c-7.4-9.7-14.6-19.7-21.4-29.9    c-8.4-12.5-16.4-25.4-24-38.5V1104c0,22.3-18.1,40.4-40.3,40.4h-2.8c-22.3,0-40.4-18.1-40.4-40.4V681.8    C168.2,332.8,451.1,50,800,50S1431.8,331.8,1431.8,680.7z"/></g></g></svg>