<?xml version="1.0" ?><!DOCTYPE svg  PUBLIC '-//W3C//DTD SVG 1.1//EN'  'http://www.w3.org/Graphics/SVG/1.1/DTD/svg11.dtd'><svg height="512px" style="enable-background:new 0 0 512 512;" version="1.1" viewBox="0 0 512 512" width="512px" xml:space="preserve" xmlns="http://www.w3.org/2000/svg" xmlns:xlink="http://www.w3.org/1999/xlink"><g id="Factory_x2C___mill_x2C_"><g><path d="M128.279,283.007c27.473,0,41.794-6.535,75.624-6.535    c34.559,0,96.618,6.535,125.084,6.535l7.051-176.776h26.843l7.893,176.776h12.947c3.032,0,5.517,2.479,5.517,5.518v141.247    c0,3.032-2.484,5.517-5.517,5.517c-62.792,0-100.038,0-255.441,0c-3.034,0-5.519-2.484-5.519-5.517V288.524    C122.761,285.485,125.246,283.007,128.279,283.007L128.279,283.007z" style="fill-rule:evenodd;clip-rule:evenodd;fill:#CED7DB;"/><path d="M122.761,289.881v1.148h266.477v-1.148    c0-3.036-2.484-5.515-5.517-5.515h-12.947h-25.726h-16.061c-28.466,0-90.525-6.529-125.084-6.529    c-33.83,0-48.151,6.529-75.624,6.529C125.246,284.366,122.761,286.845,122.761,289.881L122.761,289.881z" style="fill-rule:evenodd;clip-rule:evenodd;fill:#ADB5B8;"/><rect height="30.354" style="fill-rule:evenodd;clip-rule:evenodd;fill:#0E7EBD;" width="23.201" x="342.259" y="307.53"/><rect height="30.354" style="fill-rule:evenodd;clip-rule:evenodd;fill:#0E7EBD;" width="23.211" x="310.109" y="307.53"/><rect height="30.354" style="fill-rule:evenodd;clip-rule:evenodd;fill:#0E7EBD;" width="23.207" x="277.97" y="307.53"/><rect height="30.354" style="fill-rule:evenodd;clip-rule:evenodd;fill:#0E7EBD;" width="23.213" x="245.83" y="307.53"/><rect height="30.354" style="fill-rule:evenodd;clip-rule:evenodd;fill:#0E7EBD;" width="23.212" x="213.691" y="307.53"/><rect height="30.354" style="fill-rule:evenodd;clip-rule:evenodd;fill:#0E7EBD;" width="23.212" x="181.552" y="307.53"/><rect height="30.354" style="fill-rule:evenodd;clip-rule:evenodd;fill:#0E7EBD;" width="23.212" x="149.412" y="307.53"/><path d="M151.755,73.724c0,0,0,0,1.722,1.732    c9.406,9.386,22.901,11.704,32.851,1.727c6.281-6.05,17.504-13.368,25.775-5.395c3.358,3.257,2.021,0.277,0.213-1.518    C190.626,48.54,180.934,88.349,151.755,73.724L151.755,73.724z" style="fill-rule:evenodd;clip-rule:evenodd;fill:#556369;"/><path d="M182.432,88.774c0,14.887,41.738,28.057,63.463,6.349    c3.271-3.172,6.327-6.349,6.327-6.349c19.021-18.303,25.21-3.171,41.364-3.171c3.188,3.171,3.188,3.171,3.188,3.171    s0,0-3.188-3.171c-20.334-20.205-39.688-18.025-57.101,0C217.981,104.05,205.902,100.49,182.432,88.774L182.432,88.774z" style="fill-rule:evenodd;clip-rule:evenodd;fill:#556369;"/><path d="M272.89,104.908c0,8.112,22.749,15.292,34.597,3.458    c1.785-1.737,3.455-3.458,3.455-3.458c10.366-9.977,13.729-1.727,22.54-1.727c1.732,1.727,1.732,1.727,1.732,1.727    s0,0-1.732-1.727c-11.082-11.011-21.636-9.834-31.121,0C292.275,113.233,285.688,111.294,272.89,104.908L272.89,104.908z" style="fill-rule:evenodd;clip-rule:evenodd;fill:#556369;"/><rect height="30.359" style="fill-rule:evenodd;clip-rule:evenodd;fill:#1B87C9;" width="23.207" x="340.815" y="305.781"/><rect height="30.359" style="fill-rule:evenodd;clip-rule:evenodd;fill:#1B87C9;" width="23.2" x="308.676" y="305.781"/><rect height="30.359" style="fill-rule:evenodd;clip-rule:evenodd;fill:#1B87C9;" width="23.201" x="276.535" y="305.781"/><rect height="30.359" style="fill-rule:evenodd;clip-rule:evenodd;fill:#1B87C9;" width="23.212" x="244.392" y="305.781"/><rect height="30.359" style="fill-rule:evenodd;clip-rule:evenodd;fill:#1B87C9;" width="23.212" x="212.249" y="305.781"/><rect height="30.359" style="fill-rule:evenodd;clip-rule:evenodd;fill:#1B87C9;" width="23.211" x="180.11" y="305.781"/><rect height="30.359" style="fill-rule:evenodd;clip-rule:evenodd;fill:#1B87C9;" width="23.211" x="147.971" y="305.781"/><polygon points="336.038,106.23 328.987,283.007 370.773,283.007     362.881,106.23   " style="fill-rule:evenodd;clip-rule:evenodd;fill:#D64527;"/><polygon points="349.392,106.23 345.048,283.007 370.773,283.007     365.913,106.23   " style="fill-rule:evenodd;clip-rule:evenodd;fill:#C44127;"/><polygon points="361.462,376.228 313.307,376.228 265.136,376.228     265.136,433.912 313.307,433.912 361.462,433.912   " style="fill-rule:evenodd;clip-rule:evenodd;fill:#58595B;"/><path d="M313.307,382.058h48.162v5.838h-48.162h-48.171v-5.838    H313.307z M313.307,422.588h-48.171v5.834h48.171h48.162v-5.834H313.307z M313.307,409.08h-48.171v5.831h48.171h48.162v-5.831    H313.307z M313.307,395.568h-48.171v5.838h48.171h48.162v-5.838H313.307z" style="fill-rule:evenodd;clip-rule:evenodd;fill:#FFD032;"/><rect height="18.602" style="fill-rule:evenodd;clip-rule:evenodd;fill:#788F9B;" width="320.305" x="95.848" y="429.771"/><path d="M122.761,288.524v1.14h266.477v-1.14    c0-3.039-2.484-5.518-5.517-5.518h-12.947h-25.726h-16.061c-28.466,0-90.525-6.535-125.084-6.535    c-33.83,0-48.151,6.535-75.624,6.535C125.246,283.007,122.761,285.485,122.761,288.524L122.761,288.524z" style="fill-rule:evenodd;clip-rule:evenodd;fill:#788F9B;"/><rect height="40.092" style="fill-rule:evenodd;clip-rule:evenodd;fill:#0E7EBD;" width="52.502" x="166.487" y="381.163"/><rect height="40.091" style="fill-rule:evenodd;clip-rule:evenodd;fill:#1B87C9;" width="52.503" x="163.915" y="378.435"/></g></g><g id="Layer_1"/></svg>