<?xml version="1.0" ?><!DOCTYPE svg  PUBLIC '-//W3C//DTD SVG 1.1//EN'  'http://www.w3.org/Graphics/SVG/1.1/DTD/svg11.dtd'><svg height="512px" style="enable-background:new 0 0 512 512;" version="1.1" viewBox="0 0 512 512" width="512px" xml:space="preserve" xmlns="http://www.w3.org/2000/svg" xmlns:xlink="http://www.w3.org/1999/xlink"><g id="Eco_mind_x2C__head"><g><path d="M213.76,440.203l136.786-20.236c0,0-9.076-45.428-7.86-95.202    c0.553-22.419,33.599-47.48,44.546-98.359c19.246-89.713-35.534-152.729-106.886-154.541    c-90.928-2.238-157.583,51.78-129.282,145.63c0,0-32.128,49.396-30.092,57.396c1.998,8.056,24.09,12.399,24.09,12.399    s1.914,5.564-2.094,16.432c-3.966,10.853,7.5,23.453,10.927,27.839c3.411,4.391-4.83,18.036-2.037,25.706    c2.851,7.6,16.091,16.868,31.334,14.822c15.292-1.978,34.916-5.607,41.674-6.844C240.222,401.439,213.76,440.203,213.76,440.203    L213.76,440.203z" style="fill-rule:evenodd;clip-rule:evenodd;fill:#FDC895;"/><path d="M220.698,263.443c7.772,12.302,57.89,36.43,86.016-3.173    c16.649-23.43,26.585-70.887,1.924-122.352C235.691,160.379,219.026,193.482,220.698,263.443L220.698,263.443z" style="fill-rule:evenodd;clip-rule:evenodd;fill:#7AC143;"/><path d="M304.304,179.386c0,0-45.037,72.96-108.245,93.539    l3.038,5.719C199.097,278.644,266.588,265.186,304.304,179.386L304.304,179.386z" style="fill-rule:evenodd;clip-rule:evenodd;fill:#3F8640;"/><path d="M267.66,256.963c-0.063-0.007-28.254-0.832-36.664,0.831    l4.509,4.759C243.437,260.987,267.598,256.956,267.66,256.963L267.66,256.963z" style="fill-rule:evenodd;clip-rule:evenodd;fill:#3F8640;"/><path d="M246.794,214.833c-0.031,0.081-10.963,32.423-12.024,42.751    l7.115-3.543C242.882,244.309,246.763,214.914,246.794,214.833L246.794,214.833z" style="fill-rule:evenodd;clip-rule:evenodd;fill:#3F8640;"/><path d="M271.412,203.204c-0.026,0.049-10.45,23.101-11.98,30.642    l5.5-2.094C266.376,224.652,271.386,203.253,271.412,203.204L271.412,203.204z" style="fill-rule:evenodd;clip-rule:evenodd;fill:#3F8640;"/><path d="M292.63,231.836c-0.085,0.017-32.713,5.607-42.008,9.472    l6.3,4.435C265.679,242.103,292.556,231.853,292.63,231.836L292.63,231.836z" style="fill-rule:evenodd;clip-rule:evenodd;fill:#3F8640;"/><path d="M286.209,192.667c-0.016,0.037-4.652,16.682-4.903,21.943    l3.496-1.994C285.035,207.67,286.193,192.704,286.209,192.667L286.209,192.667z" style="fill-rule:evenodd;clip-rule:evenodd;fill:#3F8640;"/><path d="M305.935,209.147c-0.059,0.01-22.347,3.827-28.707,6.465    l4.308,3.038C287.516,216.155,305.876,209.157,305.935,209.147L305.935,209.147z" style="fill-rule:evenodd;clip-rule:evenodd;fill:#3F8640;"/></g></g><g id="Layer_1"/></svg>