<?xml version="1.0" ?><svg id="Capa_1" style="enable-background:new 0 0 25.3 28.1;" version="1.1" viewBox="0 0 25.3 28.1" xml:space="preserve" xmlns="http://www.w3.org/2000/svg" xmlns:xlink="http://www.w3.org/1999/xlink"><style type="text/css">
	.st0{fill:#00B488;}
</style><path class="st0" d="M24.9,5.9L25,6c-0.1-0.7-0.3-1.5-0.5-2.1c-0.3-0.7-0.7-1.3-0.9-1.8c-0.2,0-0.4-0.3-0.7-0.5  c-0.3-0.3-0.6-0.4-0.7-0.3c-0.7-0.6-0.4-0.6-1.5-1.1c-0.3-0.1-0.5,0.2-0.9,0.2l0-0.2c0,0-0.6,0.2-0.5,0.2L18.8,0c0,0-0.4,0-0.4,0.1  c0.1,0,0.3,0.1,0.3,0.2c-0.6,0.1-1.4-0.1-1.4-0.2c0,0-1.3,0.5-1.3,0.5c0-0.1,0.1-0.1,0.2-0.2c-0.3,0.2-0.1-0.3-0.6,0.1  c0.1,0,0,0.1,0,0.2c-0.2,0-0.5,0.1-0.7,0.3c-0.3,0.2-0.6,0.4-0.8,0.6l0-0.2c-0.9,0.6-1.5,1.7-2,2.7c0.3-0.3,0.5-0.1,0.3,0.2l-0.3,0  c0.1,0.3,0.2-0.3,0.2,0.2C12.2,4.8,12,4.6,12,4.4l-0.1,0.5c-0.1,0-0.1-0.1-0.2-0.2c0.1,0.2-0.5,0.8-0.3,1.2l-0.1,0  c-0.2,1.1-0.1,1.7-0.1,2.6c0.2,0,0.2,0.4,0.4,0.6c0,0.6-0.1,1.4,0.2,2.2c0.3,0.5,0.2,0.1,0.4,0.3C12,11.6,12.3,12.4,12,12  c0.4,0.9,0.5,1.1,1.2,2.1c0-0.2,0-0.3,0.1-0.3c0.1,0.2,0.2,0.5,0.1,0.5l0,0c0.5,0.5,0.9,1.2,1.3,1.8c0.2,0.3,0.5,0.6,0.8,0.8  c0.1,0.1,0.1,0.1,0.2,0.2c0.1,0,0,0,0.1,0c0,0,0.1,0,0.2,0l0,0c0,0,0.1,0,0.2,0c0.1,0,0,0.2,0.1,0.1c-0.1,0.2-0.1-0.1-0.3,0  c0,0,0,0.1,0,0.1c0,0,0,0.1-0.1,0.2c-0.1,0.2-0.2,0.4-0.3,0.5c-0.2,0.3-0.5,0.6-0.6,1.1c-0.4,0.1-0.8,0.6-1.1,1.2  c-0.2,0.3-0.4,0.5-0.6,0.8c-0.1,0.1-0.2,0.2-0.3,0.3c-0.1,0-0.1,0.1-0.2,0.1c-0.1,0-0.1,0-0.1,0l0.1,0.1c0,0.1-0.1,0-0.1,0  c0,0.1,0.1,0.1,0.1,0.2c0,0.1-0.1,0.1-0.1,0.2l0,0l0,0l-0.1-0.1c0-0.1-0.1-0.1-0.1-0.2c-0.1-0.2-0.3-0.4-0.4-0.7  c-0.5-0.9-1-1.9-1.4-2.8c-0.3-0.7-0.8-0.1-1-1.1l0.3,0.1C9,16.1,8.7,14.4,8,13.1c0.1,0.1,0.2,0.1,0.2,0.2c0.1-0.4-0.3-1.1-0.5-1.1  c0-0.2,0.1-0.1,0.1-0.2c0-0.3-0.4-0.7-0.3-0.9c0,0,0.1,0.1,0.1,0.1c-0.1-0.2-0.2-1-0.4-0.7c0-0.6-0.3-1.1-0.3-1.5  c-0.3-0.2-0.1-1-0.4-1c0.3,0,0.1-1-0.1-1.4c0.1,0.1,0.1-0.3,0.2-0.2c0-0.3-0.2-1.2-0.4-0.9c0.1-0.4,0-0.7,0-1.1l0-0.2L6.1,4  c-0.2,0-0.3,0-0.5,0C5,4.1,4.4,4.2,4.3,3.9C3.6,4,3,4.1,2.4,4.2C2,4.2,1.5,4.2,1.1,4.3l-0.6,0l-0.2,0c0,0-0.1,0-0.1,0l0,0.1l0.1,0.3  C0.2,4.6,0.1,4.5,0.1,4.3C0,4.1,0.2,4.2,0.3,4.1c0.1,0,0.2,0,0.4,0c0.5,0,1,0,0.9-0.2C1,4,0.6,4,0.3,4.1L0,4.1c-0.1,0,0,0,0,0.1  l0,0.1c0.1,0.2,0.1,0.4,0.2,0.6c0.1,0.4,0.2,0.7,0.3,1c0,0.2,0.1,0.3,0.1,0.5c0,0.1,0,0.2,0,0.4c0,0.3-0.2-0.1-0.2-0.2  c0.3,1,0.3,2.1,0.7,3c0,0-0.1-0.1-0.1-0.2c0,0.2,0,0.4,0.2,0.4L1,9.7c0.2-0.3,0.6,0.6,0.7,0.6c-0.5-0.2,0.1,0.9-0.6,0.6  c0.1,0.1,0.2,0.3,0.3,0.2c0,0.2,0,0.3-0.2,0.1c0.2,0.6,0.3,0.4,0.5,1c-0.1,0-0.1-0.1-0.2-0.1c0.2,0.3,0.4,0.5,0.5,1.1  c0,0-0.1,0-0.1,0c0.3,0.8,0.8,1.3,0.9,2.2c-0.4-0.2,0,0.3-0.2,0.5l0.3,0.5L2.9,16c0.2,0.4,0.5,0.8,0.5,1.2l-0.2-0.3  c0,0,0.1,0.2,0.2,0.4c0.1,0.2,0.2,0.4,0.2,0.4l-0.1-0.5C3.8,17.6,3.8,17,4,17.6c-0.1-0.1,0.2,0.4,0.1,0.7l0,0  c0.2,0.2,0.3,0.4,0.4,0.7c0,0.1-0.3,0.1-0.3,0.1c0.3,0.1,0.5,1,0.9,1.1c-0.1-0.1-0.2,0-0.2,0L5,20.4c0,0.2,0,0.3-0.1,0.3  c0.3,0.6,0.2-0.3,0.4,0.4c0,0-0.1,0-0.1-0.1c0.3,0.7,0.8,1.2,1.1,1.9c-0.1,0.3-0.4-0.5-0.5-0.2c0.6,0.9,1.5,1.6,2,2.4l-0.1-0.2  c0.4-0.1,0.3,0.7,0.8,0.9c-0.1-0.1-0.3,0-0.2,0c0.4,0.5,1.1,0.9,2,1.5l-0.2,0c0.3,0.3,0.9,0.7,1.4,0.8c0.2-0.1,0.4,0,0.3-0.2  c0.3,0.2,0.8,0.2,1.1,0.1c0.4-0.1,0.7-0.3,0.9-0.5c0.5-0.4,0.8-0.9,1.5-1.1c-0.1,0.1-0.2,0.3-0.1,0.2c0,0,0.2-0.2,0.3-0.4  c0.2-0.2,0.3-0.4,0.3-0.4c-0.2-0.1-0.2,0-0.4,0.1c0-0.2,0.2-0.4,0.3-0.6c-0.2,0.4,0.2,0.2,0.4,0.1c-0.1,0-0.1-0.1-0.1-0.1  c0.6-0.2-0.2-0.3,0.4-0.7l0,0.1c0.1-0.2,0.2-0.5,0.4-0.7c0.2,0-0.1,0.3,0,0.4c0.3-0.3,0.2-0.8,0.6-1c-0.1,0.2-0.2,0.4-0.3,0.5  c0.4-0.2,0.4-0.2,0.6-0.4l0,0l0.5-0.5l-0.2,0.1c-0.1-0.7,0.6-0.9,0.7-1.6c-0.1,0.7,0.1,0.2,0.2,0.4c0.2-0.1,0.4-0.3,0.4-0.2  c0-0.4,0.4-0.4,0.4-0.9c0.1,0,0.2-0.3,0.3-0.1c0.2-0.4-0.2,0-0.2-0.1c0.1-0.3,0.3-0.6,0.6-1c0.1-0.2,0.3-0.3,0.4-0.5  c0.1-0.2,0.2-0.5,0.2-0.6c0-0.1,0-0.3,0.1-0.4c0.2-0.1,0.4-0.3,0.9-0.4c0.3,0.1-0.2,0.3-0.2,0.3c0.4,0.1,0.7,0,1.1-0.1  c-0.1,0.1,0,0.1,0.1,0.2c0.4-0.1,0.2-0.3,0.7-0.3c0,0.1-0.1,0.2-0.3,0.3c0.2-0.1,0.5-0.2,0.7-0.3c0.1,0,0.2-0.1,0.3-0.1l-0.1-0.4  c0.1,0,0.1,0.1,0.2,0.2c0,0.1,0.1,0.4,0,0.4c0,0,0.1,0,0.1,0l0-0.1c0-0.1,0-0.2,0-0.3c0-0.2,0-0.4-0.1-0.5c0-0.3-0.1-0.6-0.2-0.6  l-0.1,0.3c0-0.2,0.2-0.1,0.2,0.1c0.2,0.5-0.1,0.7-0.1,0.6l0-0.3c-0.1,0-0.2,0.1-0.2,0.2c0,0.1,0.1,0.3-0.1,0.3  c-0.2,0.1-0.6,0.3-0.9,0.3c0,0,0.2-0.3,0.2-0.3c0,0-0.5,0.3-0.5,0.3c-0.1-0.1-0.2-0.2,0-0.3c-0.4-0.1-0.3,0.2-0.7,0c0,0,0,0,0-0.1  l-0.4,0.1c0.1-0.1-0.1-0.2,0.1-0.2c-0.1,0-0.2,0-0.3,0c-0.1,0-0.2,0-0.3,0c-0.2,0-0.4,0.1-0.5,0.1c-0.1,0.1-0.1,0.2-0.2,0.2l0-0.1  c-0.2,0.6-0.2,0.6-0.1,0.6c0.1,0,0.2,0.1,0.1,0.4l-0.7,0.1l0.2,0.2c-0.1,0.1-0.2,0.2-0.2,0.2c0,0.4,0.1,0,0.1,0.2  c-0.4,0.3-0.6,1.1-0.9,1c0.1,0.2,0.4-0.3,0.2,0.2c-0.4-0.1-0.2,0.5-0.6,0.7c-0.1-0.2,0.2-0.5-0.2-0.2c0.1,0.4-0.5,0.6-0.7,0.9  c0.2,0.2-0.4,0.7-0.7,1.2c0-0.1-0.8,0.8-1.3,1.1l0,0c0.1,0.3-0.3,0.6-0.5,1c-0.1-0.1-0.1-0.2,0-0.4l-0.3,0.3c0,0.1,0,0.2-0.2,0.4  l-0.1-0.2c-0.4,0.4-0.6,0.9-1.2,1.2c0.1,0.2,0.7,0.1,0.3,0.6c-0.1-0.1-0.2-0.2-0.1-0.3c0,0-0.1,0.2-0.2,0.2l0.1-0.3  c-0.3,0.1,0,0.2-0.2,0.3c-0.1-0.1-0.2,0-0.2-0.1c0,0,0.2,0,0.2-0.1c-0.2,0.1-0.5,0.2-0.6,0.1c0.1,0.1,0.1,0.2-0.1,0.3  c-0.4,0.1-0.2-0.1-0.4-0.2c-0.1,0.1-0.3,0-0.3,0.2c-0.1,0-0.1-0.1-0.2-0.2c-0.2,0.1-0.9-0.4-0.8,0l0,0l0,0c-0.8-0.2-1.3-1.1-2-1.7  l0.1-0.1c-0.4-0.3-0.8-0.8-1.1-1c-0.1-0.1-0.1-0.4,0-0.4c-0.3-0.3-0.4-0.3-0.6-0.8c0.3,0.2,0-0.2,0.3,0.3c-0.2-0.5-0.2-0.6-0.7-0.9  c0.3,0.1,0-0.5-0.2-0.6l0.1,0.4c-0.2-0.2-0.3-0.4-0.4-0.6l0.3,0c-0.3-1-1.4-1.4-1.3-2.3c-0.3-0.2,0.1,0.6-0.2,0.4  c-0.2-0.4-0.1-1-0.1-1.2c-0.1-0.7-0.6-0.4-0.7-1.1c0,0.1-0.2,0.3-0.5-0.2c-0.2-0.5,0.1-0.7,0.3-0.4c0.1,0.1,0,0.2,0,0.2  c0.1,0.1,0.2,0.3,0.2,0.1l-0.1,0c0-0.2-0.2-0.9-0.1-0.8c-0.2-0.3-0.2-0.1-0.1,0.2C4.3,15.9,4.1,15.6,4,15c0,0.1-0.1,0.2-0.1,0.1  c-0.2-0.9-0.3-0.3-0.5-0.9c0-0.4,0.3,0,0.1-0.5c0-0.4,0.2-0.1,0.3,0c-0.3-0.5-0.2-1.1-0.2-1.4l0.1,0.3c-0.1-0.2-0.1-0.3-0.2-0.5  l-0.1,0.2c0-0.2,0-0.3,0-0.3c-0.2-0.1-0.3,0.2-0.5-0.1c0-0.3-0.3-0.7-0.1-0.8c0.1,0.7,0.2-0.1,0.4,0.5c-0.1-0.1-0.1-0.3-0.1-0.4  c0,0,0.1,0,0.1,0.1c0-0.7-0.3-0.3-0.5-1c0.1,0.1,0.2-0.2,0.2-0.3c0.1,0.3-0.2,0.2-0.3-0.1c0-0.5-0.2-0.5-0.2-0.7l0,0.3  C2.1,9.2,2.1,9,2,8.7c0.1,0,0.1,0.3,0.2,0.2C1.8,8.5,2.2,8,2,7.5C2,7.3,2.2,7.4,2.2,7.2C2.1,7,2.1,6.8,2.2,6.6c0-0.1,0-0.2,0-0.3  c0,0,0-0.1,0-0.2c0,0,0,0,0,0C1.9,6.2,2,6.3,1.8,6c0,0,0,0.1,0.1,0.3C2,6.6,2,6.8,2,6.8c0,0-0.4-0.6-0.3-0.6c0,0.2,0.2,0.6,0.2,0.8  C1.7,6.7,1.7,6.7,1.6,6.9c0.1-0.2,0-0.4,0-0.6C1.5,6.2,1.4,6,1.5,5.8L2,6c0,0,0-0.1,0-0.1c0,0,0-0.1,0-0.1l0,0  c0.1-0.1,0.2-0.1,0.5-0.1c0,0-0.2-0.1-0.2-0.1c0-0.2,0.5,0,0.8-0.1c0,0.1,0.2,0.2,0.3,0.3c0-0.1,0.7,0,0.8-0.3c0,0,0.5,0.2,0.4,0.2  c0.1,0,0.3-0.1,0.5-0.2c0.3-0.2,0.3,0,0.3,0.2c-0.2,0-0.2,0.2-0.4,0c0,0.1,0,0.2,0.1,0.2C5,6,5,6,5.1,6.1c0.1,0.2,0.1,0.4,0.1,0.5  C5.2,6.7,5.4,6.7,5.4,7c0,0-0.1,0-0.1,0c0.1,0,0.2,0.4,0.3,0.1C5.3,8,6,9.2,5.8,9.9c0.2,0.5,0.4,1.1,0.5,1.6c-0.1,0-0.1,0-0.1-0.1  c0,0.7,0.5,0.3,0.6,1.1c-0.1,0.4-0.2-0.4-0.3-0.1c-0.4,0.2,0.3,0.9,0.2,1.4l-0.1-0.1c0,0.4,0.5,0.9,0.7,1.5c0,0-0.1,0-0.1,0  c0.4,0.3,0.8,1.1,1.1,1.6c-0.3-0.1-0.2-0.2-0.3,0c0.1,0.2,0.3-0.2,0.5,0.3c0,0.2,0.1,0.6-0.1,0.7l-0.2-0.5C8,17.8,8.4,18,8.5,18.3  l-0.1,0c0.4,0.7,0.7,0.6,1.1,1.3l0-0.1C10,19.8,9.5,20,10,20.2l-0.2,0.3c0.2,0.2,0.8,0.8,1.2,1.2c-0.4-0.1-0.8-0.6-1.2-0.9  c0.2,0.3,0.6,0.9,0.8,0.9c-0.1-0.1-0.2-0.2-0.3-0.3c0.4,0.2,0.8,0.5,1.2,1c-0.3,0.1,0,0.6,0.5,1.2c0.1,0.1,0.2,0.3,0.3,0.4l0.2,0.2  c0.1,0,0.1-0.1,0.2-0.1c0.2-0.2,0.4-0.3,0.6-0.3c0.3-0.4,0.6-0.7,0.8-1c0.2-0.2,0.4-0.4,0.6-0.6c0.4-0.4,0.8-0.9,1.2-1.4  c-0.6,0.1,0.2-0.3-0.2-0.5c0.1-0.3,0.2-0.4,0.2-0.4l0.7-0.6c0.2-0.1-0.1,0.3,0,0.3c0.4-0.5,0.3-0.1,0.6-0.4c-0.2,0-0.1-0.3,0.2-0.6  L17,18.9c0.1-0.2,0.1-0.4,0.2-0.5c0.1-0.1,0.2-0.2,0.3-0.3c0.2-0.2,0.5-0.6,0.8-1.3l-0.1,0.5c0.1-0.2,0.2-0.5,0.4-0.8  c-0.2-0.2-0.6-0.4-0.9-0.6c-0.2-0.1-0.4-0.2-0.5-0.3c-0.2-0.1-0.3-0.2-0.4-0.2c-0.2-0.1-0.3-0.1-0.4-0.1c0-0.1,0-0.2,0.1-0.2  c-0.7-0.6-1.8-1.3-2-2.1l0.1,0c-0.1-0.1-0.3-0.2-0.4-0.4c0,0,0.1,0,0.1-0.1c-0.1-0.1-0.4-0.4-0.4-0.6l0.2,0.1  c-0.2-0.9-0.8-1.3-1-2.2c0.3-0.1,0.3-0.8,0.3-1.2l0,0c0-1.1-0.3-1.9-0.1-3c0.2-0.3,0.5-0.8,0.7-1.3c0.3-0.5,0.7-1,1.1-1.2  c-0.2,0-0.2-0.2,0-0.3c0.2-0.1,0.4-0.6,0.5-0.3l-0.1,0c0.3,0.1,0.6-0.1,1-0.3l-0.1-0.4C17,2,17.5,1.8,18.2,1.8  c0.6-0.1,1.2-0.1,1.4,0.2c0.3-0.1,0.5,0,0.8,0l-0.1,0.2c0.6,0.2,0.9,0.4,1.5,0.8l-0.2,0C21.7,3.1,21.9,3,22.1,3c0.2,0,0.4,0,0.6,0.1  l-0.2,0.3C23,4.1,23,4.9,23.5,5.6c0,0-0.1,0-0.2-0.1c0.1,0.4,0,1.5,0.4,1.3c-0.3,0,0,0.9,0.1,1.4l-0.2-0.1c0.2,0.4,0.3,0.4,0.3,1  c0,0.1-0.1,0.1-0.1,0c-0.1,0.3,0.1,0.3-0.1,0.8l-0.1-0.2c-0.1,0.4,0,0.4,0.1,0.7c0,0.3-0.3,0.9-0.5,0.7c0.1,0.1,0.2,0.3,0,0.5l0,0  c0,0,0,0,0-0.1c0,0,0-0.1,0-0.1l0,0c-0.2,0-0.3,0.1-0.5,0.1c-0.2,0.1-0.4,0.1-0.6,0c0-0.1,0-0.1-0.1-0.1c0.3,0,0.5,0.1,0.7,0.1  c0.2,0,0.2,0,0.2,0c0-0.1-0.1-0.2-0.1-0.2c-0.1-0.1,0-0.1,0-0.3c-0.2,0.2-0.9,0.4-1.2,0.2c0,0,0,0,0-0.1l0,0c-0.1,0-0.2-0.1-0.2-0.1  c-0.1-0.1-0.1-0.1-0.2-0.2c0-0.1-0.1-0.2-0.1-0.2c0,0-0.1,0-0.1-0.1c-0.2,0.1-0.3,0-0.3,0.2c0,0,0,0,0.1,0.1c0,0,0,0,0.1,0l0,0  c0,0,0.2,0.2,0.4,0.2c-0.2,0-0.4-0.1-0.5-0.2c-0.2,0-0.4,0-0.5,0c0-0.1,0-0.2,0.1-0.3c0.1-0.1,0.2-0.2,0.3-0.2  c0.1,0,0.2-0.2,0.2-0.2c0.1-0.8,0.3-2-0.2-2.5c-0.1-0.2,0.1-0.3,0.2-0.4c0.1,0.1,0,0.3,0.1,0.4c-0.1-0.2-0.1-0.6-0.2-0.9  c-0.1-0.3-0.2-0.6-0.4-0.6c-0.1-0.6,0.4,0.3,0-0.6l0.1,0.1c-0.1-0.5-0.4-0.9-0.9-1.1c-0.5-0.2-0.9-0.2-1.3-0.1  c-0.4,0.1-0.8,0.4-1.1,0.7c-0.3,0.3-0.5,0.6-0.8,1.1C16.4,6.1,16.4,6,16.4,6c-0.5,1-0.4,2.1-0.3,3.1c0.2,1,0.5,2,0.8,3  c0.3,0.5,0.4,0.5,0.8,0.7L17.7,13c0,0,0.1,0.1,0.3,0.1c0.2,0.1,0.3,0.1,0.3,0.1c0.4,0.2,0.6,0.5,0.9,0.8c0.3,0.3,0.7,0.6,1.2,0.6  l-0.1-0.2c0.4,0.2,1.2,0.2,1.1,0.3c0,0,0.1-0.1,0.3,0l0,0.1c0,0,0.2,0,0.5-0.1c0.2,0,0.5-0.1,0.5-0.1c0.7,0-0.1,0.5,1,0.4  c0.4-0.1,1.1-0.5,0.9-0.6c-0.2,0-0.4,0-0.4-0.1l0.3-0.1c0-0.4,0.1-0.7-0.7-0.8c0,0-0.1,0.1-0.2,0.1c-0.1,0.1-0.3,0.1-0.3,0.1  L23,13.6l0.4-0.1c-0.3-0.1-0.4,0-0.6,0.1c0-0.1-0.1-0.1-0.2-0.2c0,0-0.1,0.1-0.3,0.2c-0.1,0.1-0.3,0.2-0.3,0.2  c-0.1-0.1,0.2-0.3-0.1-0.4c-0.2,0.1,0.2,0.3-0.2,0.4c-0.2-0.2-0.1-0.3-0.4-0.2c0-0.1,0-0.1,0.2-0.2c-0.3,0.1-0.7-0.1-0.8,0  c-0.2-0.2-0.8-0.3-0.7-0.6c-0.1,0-0.5,0-0.7-0.1c0.3,0,0.1-0.2-0.1-0.3c-0.2-0.2-0.4-0.4-0.2-0.5c-0.5,0.1-0.8-0.7-1.2-1.1  c0,0,0.1,0,0.1,0.1c-0.1-0.3,0-0.4-0.1-0.6c-0.3,0.1-0.5-0.4-0.7-0.6c0.2-0.5,0.4,0.2,0.6,0c-0.2,0.1-0.4-0.6-0.5-0.4  C17.4,9,17.3,9,17.6,8.9c-0.4,0-0.1-0.3-0.3-0.5c0.2-0.5,0.3-0.1,0.2-0.6c0.1-0.2,0.2,0.2,0.2,0.2c0-0.5-0.3-0.2-0.4-0.3  c0-0.6,0.2-0.2,0.4-0.4c0-0.3-0.2-0.6-0.1-0.8c0,0,0.1,0,0.1,0c0-0.2,0.1-0.4,0.2-0.5c0.1-0.1,0.2-0.2,0.4-0.3c0,0,0,0,0,0.1  c-0.1-0.1-0.1-0.3-0.1-0.4c0.2,0,0.4-0.2,0.4,0c-0.1,0-0.1,0-0.2,0.1c0,0,0.2-0.1,0.2-0.1c0.1,0.3-0.3,0-0.3,0.3  c0.2,0,0.3-0.1,0.5,0c0.2,0,0.3,0.2,0.4,0.3c-0.1,0.1-0.2,0-0.3-0.1c-0.1-0.1-0.1-0.1-0.1,0.1c0,0-0.2-0.3-0.2-0.2  c0,0.4-0.1-0.1-0.1,0.4c0.1,0.1,0.3,0,0.4,0.6c0.2,0.1,0.2-0.1,0.4,0c0.2,0.4,0.1,0.7-0.1,0.8C19.2,7.6,19,7.7,19.2,8  c0.2,0.2,0.5,0.3,0.2,0.8l-0.3-0.2c-0.1,0.7,0.4,0.5,0,1.2c-0.1-0.2,0-0.6,0-0.5c-0.3,0.4,0.1,0.3,0,0.8l-0.3,0.1  c-0.1,0.2-0.1,0.4-0.2,0.7c0.3,0.5,0.8,1,1.2,1.2c0.4,0.2,0.8,0.4,1.3,0.5c-0.1,0.1-0.3,0.1-0.1,0.2c0.4,0.1,0.9,0.1,1.3,0.1  c0.1,0,0.2,0,0.3,0c0.1,0,0.3,0,0.5,0l1-0.1c0.2-0.3,0.3-0.7,0.5-1c0.1-0.2,0.2-0.5,0.3-0.7l-0.1-0.5c0-0.1,0.1-0.2,0.2,0  c0.2-0.4-0.1-0.1-0.2-0.3c0-0.3,0.2-0.3,0.2-0.1c0-0.8-0.1-2.3,0.1-3.1l0.1,0.2C25.3,6.5,24.8,6.5,24.9,5.9z M20.7,10.7  C20.7,10.7,20.8,10.7,20.7,10.7c0.2,0,0.2,0.1,0.2,0.1C20.9,10.8,20.8,10.8,20.7,10.7z M21.2,12.5c-0.1,0-0.2-0.1-0.3-0.1  C20.9,12.4,21,12.5,21.2,12.5L21.2,12.5z M21.8,12.6c0-0.1,0-0.1,0.1-0.1c-0.1,0,0.2,0.1,0.4,0.2C22.2,12.7,22,12.7,21.8,12.6z"/></svg>