<?xml version="1.0" ?><!DOCTYPE svg  PUBLIC '-//W3C//DTD SVG 1.1//EN'  'http://www.w3.org/Graphics/SVG/1.1/DTD/svg11.dtd'><svg enable-background="new 0 0 512 512" height="512px" id="Photo_x5F_print" version="1.1" viewBox="0 0 512 512" width="512px" xml:space="preserve" xmlns="http://www.w3.org/2000/svg" xmlns:xlink="http://www.w3.org/1999/xlink"><path d="M241.168,189.241c-17.587,0-31.896-14.308-31.896-31.896c0-17.587,14.309-31.895,31.896-31.895s31.896,14.308,31.896,31.895  C273.063,174.934,258.755,189.241,241.168,189.241z M241.168,133.451c-13.176,0-23.896,10.719-23.896,23.895  s10.72,23.896,23.896,23.896s23.896-10.72,23.896-23.896S254.344,133.451,241.168,133.451z"/><path d="M386.623,282.689l-87.313-95.118c-0.757-0.825-1.826-1.295-2.946-1.295h-0.001c-1.121,0-2.19,0.471-2.947,1.297  l-51.582,56.275l-71.243-80.767c-0.76-0.86-1.853-1.354-3-1.354s-2.24,0.493-3,1.354L62.877,278.392  c-1.461,1.657-1.303,4.185,0.354,5.646c0.761,0.671,1.705,1,2.645,1c1.108,0,2.211-0.457,3.002-1.354l98.713-111.908l90.072,102.112  c1.461,1.656,3.988,1.815,5.646,0.354c1.656-1.461,1.814-3.989,0.354-5.646l-16.508-18.715l49.211-53.688L380.73,288.1  c0.788,0.859,1.866,1.295,2.947,1.295c0.967,0,1.936-0.348,2.704-1.053C388.009,286.848,388.117,284.317,386.623,282.689z"/><path d="M460.51,151.85H400.28v-63.49c0-2.21-1.79-4-4-4H51.49c-2.2,0-4,1.79-4,4V356.15c0,2.209,1.8,4,4,4h60.229v63.49  c0,2.209,1.79,4,4,4h344.79c2.2,0,4-1.791,4-4V155.85C464.51,153.64,462.71,151.85,460.51,151.85z M392.28,92.359v59.49v8v132.428  H55.49V92.359H392.28z M111.72,352.15H55.49v-51.873h336.79v51.873H119.72H111.72z M456.51,419.641H119.72v-59.49H396.28  c2.21,0,4-1.791,4-4V159.85h56.229V419.641z"/></svg>