<?xml version="1.0" ?><!DOCTYPE svg  PUBLIC '-//W3C//DTD SVG 1.1//EN'  'http://www.w3.org/Graphics/SVG/1.1/DTD/svg11.dtd'><svg enable-background="new 0 0 512 512" height="512px" id="_x33_d_x5F_scan" version="1.1" viewBox="0 0 512 512" width="512px" xml:space="preserve" xmlns="http://www.w3.org/2000/svg" xmlns:xlink="http://www.w3.org/1999/xlink"><path d="M198.144,139.107l-6.711-2.237c-0.414-0.141-0.849-0.212-1.285-0.212h-16.199V117.09c0-2.21-1.79-4-4-4h-21.24V89.35  c0-2.21-1.79-4-4-4h-51.34c-20.3,0-36.82,16.521-36.82,36.83V389.82c0,20.31,16.521,36.83,36.82,36.83h51.34c2.21,0,4-1.791,4-4  v-25.5h21.24c2.21,0,4-1.791,4-4v-17.875h16.199c0.437,0,0.871-0.072,1.285-0.212l6.711-2.237c1.635-0.544,2.737-2.072,2.737-3.795  v-22.445c0-1.723-1.103-3.252-2.737-3.795l-6.709-2.236c-0.414-0.141-0.85-0.213-1.287-0.213h-16.199V320.77c0-2.209-1.79-4-4-4  h-21.24V296.16h21.24c2.21,0,4-1.79,4-4v-17.885h16.199c0.438,0,0.873-0.072,1.287-0.213l6.709-2.236  c1.635-0.543,2.737-2.072,2.737-3.795v-22.445c0-1.723-1.103-3.251-2.737-3.795l-6.711-2.237c-0.414-0.141-0.849-0.212-1.285-0.212  h-16.199V219.77c0-2.21-1.79-4-4-4h-21.24v-22.3h21.24c2.21,0,4-1.79,4-4v-17.879h16.199c0.437,0,0.871-0.071,1.285-0.212  l6.711-2.236c1.635-0.544,2.737-2.073,2.737-3.796v-22.444C200.881,141.18,199.778,139.651,198.144,139.107z M173.948,348.342  h15.538l3.395,1.13v16.675l-3.32,1.104l-15.612,0.025V348.342z M173.948,247.342h15.54l3.393,1.129v16.676l-3.322,1.104  l-15.61,0.024V247.342z M140.708,418.65h-47.34c-15.89,0-28.82-12.93-28.82-28.83V122.18c0-15.899,12.931-28.83,28.82-28.83h47.34  v19.74h-22.94c-2.21,0-4,1.79-4,4v72.38c0,2.21,1.79,4,4,4h22.94v22.3h-22.94c-2.21,0-4,1.79-4,4v72.391c0,2.21,1.79,4,4,4h22.94  v20.609h-22.94c-2.21,0-4,1.791-4,4v72.381c0,2.209,1.79,4,4,4h22.94V418.65z M165.948,324.77v64.381h-17.24h-8h-18.94V324.77h18.94  h8H165.948z M165.948,223.77v64.391h-17.24h-8h-18.94V223.77h18.94h8H165.948z M165.948,185.47h-17.24h-8h-18.94v-64.38h18.94h8  h17.24V185.47z M192.881,162.462l-3.32,1.104l-15.612,0.024v-18.933h15.54l3.393,1.129V162.462z"/><path d="M341.723,141.833c-16.58,0-32.341,3.568-46.56,9.974h-4.396c-2.209,0-4,1.791-4,4c0,0.07,0.017,0.135,0.021,0.203  c-33.81,18.731-57.12,54.181-58.699,95.113h-9.321c-2.209,0-4,1.791-4,4s1.791,4,4,4h9.288c1.278,41.346,24.73,77.199,58.838,96.049  c-0.075,0.306-0.126,0.621-0.126,0.95c0,2.209,1.791,4,4,4h6.235c13.733,5.896,28.852,9.168,44.72,9.168  c62.711,0,113.729-51.019,113.729-113.729S404.434,141.833,341.723,141.833z M341.723,361.29c-12.275,0-24.066-2.11-35.036-5.975  c-0.374-1.822-1.986-3.193-3.919-3.193h-4.091c-36.904-16.517-62.683-53.583-62.683-96.561c0-42.294,24.967-78.861,60.932-95.755  h5.842c2.209,0,4-1.791,4-4c0-0.009-0.003-0.018-0.003-0.027c10.948-3.847,22.712-5.946,34.958-5.946  c58.3,0,105.729,47.43,105.729,105.729S400.022,361.29,341.723,361.29z"/><path d="M266.768,159.807h12c2.209,0,4-1.791,4-4s-1.791-4-4-4h-12c-2.209,0-4,1.791-4,4S264.559,159.807,266.768,159.807z"/><path d="M218.768,159.807h12c2.209,0,4-1.791,4-4s-1.791-4-4-4h-12c-2.209,0-4,1.791-4,4S216.559,159.807,218.768,159.807z"/><path d="M242.768,159.807h12c2.209,0,4-1.791,4-4s-1.791-4-4-4h-12c-2.209,0-4,1.791-4,4S240.559,159.807,242.768,159.807z"/><path d="M254.768,251.123h-12c-2.209,0-4,1.791-4,4s1.791,4,4,4h12c2.209,0,4-1.791,4-4S256.977,251.123,254.768,251.123z"/><path d="M278.768,251.123h-12c-2.209,0-4,1.791-4,4s1.791,4,4,4h12c2.209,0,4-1.791,4-4S280.977,251.123,278.768,251.123z"/><path d="M302.768,251.123h-12c-2.209,0-4,1.791-4,4s1.791,4,4,4h12c2.209,0,4-1.791,4-4S304.977,251.123,302.768,251.123z"/><path d="M254.768,352.122h-12c-2.209,0-4,1.791-4,4s1.791,4,4,4h12c2.209,0,4-1.791,4-4S256.977,352.122,254.768,352.122z"/><path d="M230.768,352.122h-12c-2.209,0-4,1.791-4,4s1.791,4,4,4h12c2.209,0,4-1.791,4-4S232.977,352.122,230.768,352.122z"/><path d="M278.768,352.122h-12c-2.209,0-4,1.791-4,4s1.791,4,4,4h12c2.209,0,4-1.791,4-4S280.977,352.122,278.768,352.122z"/></svg>