<?xml version="1.0" ?><svg data-name="Layer 1" id="Layer_1" viewBox="0 0 70 70" xmlns="http://www.w3.org/2000/svg"><defs><style>.cls-1{fill:#62bb46;}.cls-2{fill:#494b4d;}.cls-3{fill:#fff;}</style></defs><title/><rect class="cls-1" height="48" width="47.7" x="11.65" y="11"/><path class="cls-2" d="M64.62,12.22H5a1,1,0,1,1,0-2H64.62a1,1,0,0,1,0,2Z"/><path class="cls-2" d="M65,59.22H5.38a1,1,0,1,1,0-2H65a1,1,0,0,1,0,2Z"/><path class="cls-2" d="M12,66a1,1,0,0,1-1-1V5a1,1,0,0,1,2,0V65A1,1,0,0,1,12,66Z"/><path class="cls-2" d="M58.66,66a1,1,0,0,1-1-1V5a1,1,0,0,1,2,0V65A1,1,0,0,1,58.66,66Z"/><path class="cls-3" d="M35,42.88a7.74,7.74,0,0,1-4-1.06A7.87,7.87,0,0,1,28.18,39a7.92,7.92,0,0,1,0-7.91A7.87,7.87,0,0,1,31,28.18a8,8,0,0,1,7.91,0A7.87,7.87,0,0,1,41.82,31h0a7.92,7.92,0,0,1,0,7.91A7.87,7.87,0,0,1,39,41.82,7.74,7.74,0,0,1,35,42.88Zm0-15a7,7,0,0,0-3.58,1,7.14,7.14,0,0,0-2.59,2.59,7.18,7.18,0,0,0,0,7.15,7.13,7.13,0,0,0,12.34,0,7.18,7.18,0,0,0,0-7.15,7.14,7.14,0,0,0-2.59-2.59A7,7,0,0,0,35,27.88Z"/><path class="cls-3" d="M40.5,33.54a.74.74,0,0,0-.39-.68,10.09,10.09,0,0,0-2.86-1.08,15.24,15.24,0,0,0-3.35-.37,12.62,12.62,0,0,0-3.55.46.78.78,0,0,0-.38.25.71.71,0,0,0-.15.47.7.7,0,0,0,.2.51.67.67,0,0,0,.5.21,1.78,1.78,0,0,0,.39-.08,11.23,11.23,0,0,1,3-.36,13.69,13.69,0,0,1,3,.33,8.55,8.55,0,0,1,2.48.93.79.79,0,0,0,.39.12.69.69,0,0,0,.49-.2A.67.67,0,0,0,40.5,33.54Z"/><path class="cls-3" d="M39.44,36a.66.66,0,0,0-.34-.6A10.27,10.27,0,0,0,33.75,34a10.93,10.93,0,0,0-3,.41.59.59,0,0,0-.47.62.58.58,0,0,0,.59.59l.36-.08a9.35,9.35,0,0,1,2.45-.32,9.17,9.17,0,0,1,4.77,1.21.85.85,0,0,0,.37.13.58.58,0,0,0,.59-.59Z"/><path class="cls-3" d="M38.51,38.07a.57.57,0,0,0-.29-.5,8.37,8.37,0,0,0-4.37-1.12,13,13,0,0,0-2.8.33.47.47,0,0,0-.41.51.48.48,0,0,0,.13.34.45.45,0,0,0,.35.14l.36-.08a11.9,11.9,0,0,1,2.37-.26,7.37,7.37,0,0,1,3.88,1,.67.67,0,0,0,.32.11.46.46,0,0,0,.46-.47Z"/></svg>