<?xml version="1.0" ?><svg data-name="Layer 1" id="Layer_1" viewBox="0 0 70 70" xmlns="http://www.w3.org/2000/svg"><defs><style>.cls-1{fill:#00aeef;}.cls-2{fill:#494b4d;}.cls-3{fill:#fff;}.cls-4{fill:#ca237b;}</style></defs><title/><rect class="cls-1" height="48" width="47.7" x="11.65" y="11"/><path class="cls-2" d="M64.62,12.22H5a1,1,0,1,1,0-2H64.62a1,1,0,0,1,0,2Z"/><path class="cls-2" d="M65,59.22H5.38a1,1,0,1,1,0-2H65a1,1,0,0,1,0,2Z"/><path class="cls-2" d="M12,66a1,1,0,0,1-1-1V5a1,1,0,0,1,2,0V65A1,1,0,0,1,12,66Z"/><path class="cls-2" d="M58.66,66a1,1,0,0,1-1-1V5a1,1,0,0,1,2,0V65A1,1,0,0,1,58.66,66Z"/><path class="cls-3" d="M34.46,35a4.73,4.73,0,1,1-4.73-4.73A4.73,4.73,0,0,1,34.46,35Zm0,0"/><path class="cls-4" d="M45,35a4.73,4.73,0,1,1-4.73-4.73A4.73,4.73,0,0,1,45,35Zm0,0"/></svg>