<?xml version="1.0" ?><svg data-name="Layer 1" id="Layer_1" viewBox="0 0 70 70" xmlns="http://www.w3.org/2000/svg"><defs><style>.cls-1{fill:#3d9ae8;}.cls-2{fill:#494b4d;}.cls-3{fill:#fff;}</style></defs><title/><rect class="cls-1" height="48" width="47.7" x="11.65" y="11"/><path class="cls-2" d="M64.62,12.22H5a1,1,0,1,1,0-2H64.62a1,1,0,0,1,0,2Z"/><path class="cls-2" d="M65,59.22H5.38a1,1,0,1,1,0-2H65a1,1,0,0,1,0,2Z"/><path class="cls-2" d="M12,66a1,1,0,0,1-1-1V5a1,1,0,0,1,2,0V65A1,1,0,0,1,12,66Z"/><path class="cls-2" d="M58.66,66a1,1,0,0,1-1-1V5a1,1,0,0,1,2,0V65A1,1,0,0,1,58.66,66Z"/><path class="cls-3" d="M34.82,41.69,30.51,39v-.81L32,39l2.86-2.35v5Zm-7.11-5.63,2.59-2.2,4.22,2.56L32,38.59Zm2.62-2.65L27.5,31.08,32,28.31l2.83,2.35ZM39.49,39l-4.31,2.65v-5L38,39l1.45-.78ZM38,38.59l-2.5-2.17,4.22-2.56,2.59,2.2Zm1.69-5.18-4.49-2.74L38,28.31l4.49,2.77Z"/></svg>