<?xml version="1.0" ?><svg data-name="Layer 1" id="Layer_1" viewBox="0 0 70 70" xmlns="http://www.w3.org/2000/svg"><defs><style>.cls-1{fill:#f4661e;}.cls-2{fill:#494b4d;}.cls-3{fill:#fff;}</style></defs><title/><rect class="cls-1" height="48" width="47.7" x="11.65" y="11"/><path class="cls-2" d="M64.62,12.22H5a1,1,0,1,1,0-2H64.62a1,1,0,0,1,0,2Z"/><path class="cls-2" d="M65,59.22H5.38a1,1,0,1,1,0-2H65a1,1,0,0,1,0,2Z"/><path class="cls-2" d="M12,66a1,1,0,0,1-1-1V5a1,1,0,0,1,2,0V65A1,1,0,0,1,12,66Z"/><path class="cls-2" d="M58.66,66a1,1,0,0,1-1-1V5a1,1,0,0,1,2,0V65A1,1,0,0,1,58.66,66Z"/><path class="cls-3" d="M41.67,35.44A2.66,2.66,0,0,0,42.11,34a2.68,2.68,0,0,0-5-1.36,10.1,10.1,0,0,0-1.69-.21l1.21-4,2.31.64s0,0,0,.08a1.58,1.58,0,1,0,.16-.69l-2.6-.72a.32.32,0,0,0-.39.21L34.76,32.4a10.13,10.13,0,0,0-1.88.21,2.68,2.68,0,0,0-5,1.36,2.66,2.66,0,0,0,.44,1.46,3.76,3.76,0,0,0-.59,2,4.43,4.43,0,0,0,2.17,3.61,9.7,9.7,0,0,0,10.18,0,4.43,4.43,0,0,0,2.17-3.61,3.76,3.76,0,0,0-.59-2Zm-1.14-7.31a.95.95,0,1,1-.95.95.95.95,0,0,1,.95-.95Zm-1.11,3.79A2.06,2.06,0,0,1,41.47,34a2,2,0,0,1-.21.91,7.17,7.17,0,0,0-3.5-2.11,2,2,0,0,1,1.66-.85Zm-8.84,0a2,2,0,0,1,1.66.85,7.17,7.17,0,0,0-3.5,2.11,2,2,0,0,1-.21-.91,2.06,2.06,0,0,1,2.05-2.05Zm9.16,8.61a9.07,9.07,0,0,1-9.47,0,3.82,3.82,0,0,1-1.9-3.09,3.2,3.2,0,0,1,.6-1.84h0a6.42,6.42,0,0,1,3.82-2.33h0a9.7,9.7,0,0,1,4.41,0h0A6.42,6.42,0,0,1,41,35.61h0a3.2,3.2,0,0,1,.6,1.84,3.82,3.82,0,0,1-1.9,3.09Zm0,0"/><path class="cls-3" d="M37.28,40a4.38,4.38,0,0,1-4.56,0,1.76,1.76,0,0,1-.88-1.41h-.63a2.37,2.37,0,0,0,1.15,1.94,5,5,0,0,0,5.27,0,2.37,2.37,0,0,0,1.15-1.94h-.63A1.76,1.76,0,0,1,37.28,40Zm0,0"/><path class="cls-3" d="M32.79,37.61A1.58,1.58,0,1,0,31.21,36a1.58,1.58,0,0,0,1.58,1.58Zm0-2.53a.95.95,0,1,1-.95.95.95.95,0,0,1,.95-.95Zm0,0"/><path class="cls-3" d="M36.89,37.61A1.58,1.58,0,1,0,35.32,36a1.58,1.58,0,0,0,1.58,1.58Zm0-2.53a.95.95,0,1,1-.95.95.95.95,0,0,1,.95-.95Zm0,0"/></svg>