<?xml version="1.0" ?><svg data-name="Layer 1" id="Layer_1" viewBox="0 0 70 70" xmlns="http://www.w3.org/2000/svg"><defs><style>.cls-1{fill:#65a2d9;}.cls-2{fill:#494b4d;}.cls-3{fill:#fff;}</style></defs><title/><rect class="cls-1" height="48" width="47.7" x="11.65" y="11"/><path class="cls-2" d="M64.62,12.22H5a1,1,0,1,1,0-2H64.62a1,1,0,0,1,0,2Z"/><path class="cls-2" d="M65,59.22H5.38a1,1,0,1,1,0-2H65a1,1,0,0,1,0,2Z"/><path class="cls-2" d="M12,66a1,1,0,0,1-1-1V5a1,1,0,0,1,2,0V65A1,1,0,0,1,12,66Z"/><path class="cls-2" d="M58.66,66a1,1,0,0,1-1-1V5a1,1,0,0,1,2,0V65A1,1,0,0,1,58.66,66Z"/><path class="cls-3" d="M41.88,29.31a2.13,2.13,0,0,0-1.56-.62c-1.9-.06-3.25,1-4,3a.31.31,0,0,0,.37.4,2.4,2.4,0,0,1,.64-.09,1,1,0,0,1,.83.29.93.93,0,0,1,.06.83,11.59,11.59,0,0,1-1.09,2c-.68,1.06-1,1.54-1.16,1.54-.36,0-1.64-5.71-1.68-5.83-.37-1.31-.55-2-1.76-2-.92,0-3,1.67-4.63,3.13l-.26.22a.4.4,0,0,0-.06.55l.31.4a.4.4,0,0,0,.55.08h0a3.55,3.55,0,0,1,1.44-.77c.42,0,.79.64,1.22,2.2.83,3,2.09,6.65,3.38,6.65s3-1.14,5-3.85c1.88-2.45,2.89-4.39,3-5.81a3.17,3.17,0,0,0-.61-2.35Zm0,0"/></svg>