<?xml version="1.0" ?><svg enable-background="new 0 0 24 24" id="Layer_1" version="1.1" viewBox="0 0 24 24" xml:space="preserve" xmlns="http://www.w3.org/2000/svg" xmlns:xlink="http://www.w3.org/1999/xlink"><g><path d="M20.0538273,8h-0.5478306c-0.2045898,0-0.3707809,0.1939201-0.3707809,0.4327803v0.2705994   l-0.2546997-0.4938297c-0.0668087-0.1299295-0.1866398-0.2090597-0.3164997-0.2090597h-0.8154697   c-0.2045994,0-0.3703594,0.1939201-0.3703594,0.4327698v0.3678102l-0.1966705-0.5382805   c-0.0588703-0.1587496-0.19207-0.2622995-0.33988-0.2622995h-0.8021011c-0.0818386,0-0.1590891,0.0312595-0.2212992,0.0859699   c-0.0613794-0.0542202-0.1386299-0.0859699-0.22089-0.0859699h-0.5181694c-0.4392605,0-0.7657804,0.1250496-1.0054502,0.3678102   c-0.0271406-0.2066202-0.1741199-0.3678102-0.3590899-0.3678102H13.168066c-0.1457195,0-0.2693195,0.1011095-0.3294392,0.2437401   c-0.0229702-0.0195398-0.0413408-0.0425005-0.0668106-0.0605707c-0.2517796-0.1699791-0.5152502-0.1831694-0.8338394-0.1831694   h-1.23176c-0.0693102,0-0.1302805,0.0283298-0.1858101,0.0669203c-0.0546999-0.0385904-0.1160803-0.0669203-0.1853905-0.0669203   H8.5462465c-0.0755701,0-0.1411304,0.0327301-0.1995802,0.0776596C8.2877865,8.0332203,8.2222366,8.0004902,8.1470766,8.0004902   H7.2543564c-0.14781,0-0.2822599,0.1040401-0.33988,0.2642593L6.5963063,9.1420202L6.2459865,8.2520504   C6.1850266,8.0991602,6.0534964,8.0004902,5.9098663,8.0004902H5.0351067c-0.2046003,0-0.3699503,0.1939201-0.3699503,0.4327698   v0.3766098l-0.20084-0.5480499C4.4054465,8.1030703,4.2722464,8,4.1240163,8H3.3290064   C3.1807764,8,3.0467465,8.10355,2.9887066,8.2622995l-0.9586802,2.6215706   c-0.0492699,0.1333494-0.0371599,0.2867298,0.0309,0.4088402c0.06847,0.1211395,0.18455,0.1944094,0.30898,0.1944094h0.5820601   c0.1486499,0,0.2839301-0.1055098,0.3407199-0.2666998l0.1131501-0.3184795h0.62047l0.1114898,0.3165293   c0.0572,0.1621704,0.19207,0.2681608,0.3423901,0.2681608h1.0893798c0.2041802,0,0.3699403-0.1939201,0.3699403-0.4327803   v-0.0102501l0.0701499,0.1861c0.0588698,0.15728,0.1916499,0.2583895,0.33779,0.2583895h0.4705801   c0.1469698,0,0.2789197-0.1011095,0.3382101-0.2578993L7.2272162,11.04457v0.0107498   c0,0.2388601,0.1653504,0.4322901,0.3699503,0.4322901h0.5490699c0.07516,0,0.1407204-0.0332203,0.1995897-0.0776701   c0.0584602,0.0444498,0.1240101,0.0776701,0.1995907,0.0776701h1.7887592c0.0693207,0,0.1307001-0.0283403,0.1853905-0.0669203   c0.0559597,0.0385904,0.1164999,0.0669203,0.1858101,0.0669203h0.53613c0.2041798,0,0.3699503-0.1939201,0.3699503-0.4327803   v-0.5206995h0.2041798c0.0463495,0,0.0793295,0.0014696,0.1039696,0.0034199   c0.0025005,0.0444498,0.0016699,0.0972004,0.0016699,0.13237L11.9204369,10.72756l0.0020895,0.3306904   c0.0016699,0.2373896,0.1670198,0.4293594,0.3703604,0.4293594h0.5403099c0.0609598,0,0.1156597-0.0214996,0.1661797-0.0522699   c0.0513601,0.0307703,0.1068897,0.0522699,0.1674404,0.0522699h0.5469799c0.1791296,0,0.3211002-0.1514301,0.3557501-0.3487701   c0.30439,0.2984505,0.7311296,0.3487701,0.9695396,0.3487701h0.6271601c0.1499004,0,0.2860203-0.1074696,0.3415508-0.2711   l0.1093998-0.3140802h0.6171303l0.1131592,0.3184805c0.0584507,0.16119,0.1924801,0.2662096,0.3415508,0.2662096h1.09021   c0.2037582,0,0.3699493-0.1939201,0.3699493-0.4327793v-0.4137201l0.3286095,0.6374397   c0.0672207,0.1299305,0.1870613,0.2090597,0.3177509,0.2090597h0.7582703c0.2037582,0,0.3699398-0.1939201,0.3699398-0.4327793   V8.4327803C20.4237671,8.1939201,20.2584171,8,20.0538273,8L20.0538273,8z M10.7053766,11.0548296V8.43326h1.23176   c0.2734995,0,0.4751701,0.0083103,0.6488695,0.1255398c0.1686907,0.1172304,0.2705708,0.2881899,0.2705708,0.58078   c0,0.4176302-0.2380009,0.6340199-0.3774605,0.6984901c0.1173296,0.0522699,0.2175398,0.1445904,0.2651396,0.2207899   c0.0759907,0.1304197,0.0889406,0.2466698,0.0889406,0.4806404v0.5153294h-0.5403099l-0.0025005-0.3306894   c0-0.1577702,0.0129404-0.3844204-0.0843496-0.5104399C12.1279564,10.12187,12.0085363,10.10184,11.8156366,10.10184h-0.5741301   v0.9529896H10.7053766L10.7053766,11.0548296z M8.5449963,11.0548296V8.43326h1.7887707v0.5460997H9.080286v0.4723406h1.2238302   v0.5373096H9.080286V10.51264h1.2534809v0.5421896H8.5449963L8.5449963,11.0548296z M19.5059967,10.2596197V8.4337502h0.5478306   v2.6215696H19.295557L18.2792473,9.0878v1.9675198h-1.09021l-0.2087708-0.5846901h-1.1123505l-0.2012501,0.5846901h-0.6271591   c-0.2609701-0.0004902-0.5904102-0.0678997-0.7766304-0.2901497c-0.1887398-0.2227402-0.2872801-0.5246-0.2872801-1.0008497   c0-0.3888206,0.0588799-0.7444201,0.2885303-1.02528c0.1724396-0.2090607,0.4442701-0.3052902,0.8133793-0.3052902h0.5181704   v0.5617294H15.088356c-0.1966591,0-0.3064795,0.0341902-0.4125299,0.1553307   C14.5843868,9.2612,14.5221663,9.4692898,14.5221663,9.7447796c0,0.2803802,0.0467701,0.4830904,0.1473999,0.6149702   c0.0822506,0.1040401,0.2334003,0.1353006,0.3732805,0.1353006h0.2400894l0.7565994-2.0613003h0.8021011l0.9069099,2.4794302   V8.4337502h0.8154697L19.5059967,10.2596197L19.5059967,10.2596197z M13.1668167,11.0553198V8.4337502h0.5465698v2.6215696   H13.1668167L13.1668167,11.0553198z M6.6105065,10.2122402l0.6434398-1.7784901H8.146656v2.6215696H7.5975866l-0.00209-2.0529995   l-0.7766404,2.0529995l-0.4714098-0.0004902L5.5695662,9.00037v2.0549498H4.4797664l-0.2058501-0.5846901H3.1590664   l-0.2079399,0.5846901h-0.58164l0.9591098-2.6215696h0.7950003l0.91151,2.4823599V8.4337502h0.8743396L6.6105065,10.2122402   L6.6105065,10.2122402z M15.0403461,10.0627699c-0.0517797,0-0.0864401-0.0068398-0.1052294-0.0127001   c-0.0179501-0.0390797-0.0425901-0.1255398-0.0425901-0.3052902c0-0.1817093,0.0375795-0.27598,0.0425901-0.2842798   c0.015214-0.016839,0.0279865-0.0322514,0.1487894-0.0322514c0.0018711,0,0.0037861,0.0000038,0.0057106,0.0000114h0.1828794   L15.0403461,10.0627699L15.0403461,10.0627699z M16.4274273,8.8792295L16.059576,9.9240398h0.7390499L16.4274273,8.8792295   L16.4274273,8.8792295z M3.7139864,8.8792295l-0.3641,1.0448103h0.7302899L3.7139864,8.8792295L3.7139864,8.8792295z    M11.9008169,8.9798498h-0.6597204l-0.0004196,0.5817604h0.6509495c0.1039705,0,0.1908197-0.0014706,0.2651405-0.05373   c0.0688992-0.0425005,0.1102295-0.13482,0.1102295-0.2491198c0-0.1123505-0.0430002-0.1934309-0.1123095-0.2315302   C12.0912161,8.98522,11.9935064,8.9798498,11.9008169,8.9798498L11.9008169,8.9798498z M21.5214958,12.5119104H20.447567   c-0.3344612,0-0.5853996,0.1147795-0.7691212,0.2891598c-0.0513592-0.1675406-0.1841393-0.2891598-0.3457298-0.2891598h-1.0730896   c-0.2947903,0-0.5286198,0.0859699-0.7048206,0.2256699c-0.0634689-0.1323805-0.1803799-0.2256699-0.3190098-0.2256699h-1.7870893   c-0.1444798,0-0.2651501,0.09867-0.3261099,0.2388496c-0.0258904-0.0205097-0.0438404-0.0454197-0.0718203-0.0644703   c-0.25846-0.1616802-0.5340405-0.1743793-0.8188-0.1743793h-1.2367697c-0.1448908,0-0.26682,0.0991497-0.3273602,0.2408094   c-0.18748-0.14361-0.4513702-0.2408094-0.8263206-0.2408094h-1.7111092c-0.1031303,0-0.2012606,0.0498199-0.2714005,0.1382294   l-0.4054403,0.5119104l-0.3891497-0.5065403c-0.0697298-0.0918303-0.1695299-0.1435995-0.2751703-0.1435995H6.6355567   c-0.2041802,0-0.3699403,0.1934299-0.3699403,0.43326V15.56674C6.2656164,15.8055897,6.4309564,16,6.6355567,16h2.1215501   c0.1031399,0,0.2012596-0.0508003,0.27141-0.1392097l0.4087801-0.5177698l0.3878994,0.5109291   c0.0701399,0.0923204,0.1711903,0.1450701,0.2768307,0.1450701h1.0409393c0.2046003,0,0.3703604-0.1934299,0.3703604-0.4327698   v-0.4469395h0.29772c0.3615894,0,0.6238098-0.0869503,0.8137903-0.2193203v0.6662598   c0,0.2388506,0.16535,0.4327698,0.3703699,0.4327698h0.5382099c0.2041798,0,0.3699493-0.1934299,0.3699493-0.4327698v-0.5250998   h0.2020903c0.0492697,0,0.08393,0.0019598,0.1085606,0.0039101c0.0025091,0.0464001,0.0025091,0.1030598,0.0016699,0.1401901   v0.38099c0,0.2388601,0.16535,0.4327793,0.3703699,0.4327793h0.5373802c0.0592899,0,0.1131496-0.02003,0.1628399-0.0488501   c0.0492697,0.0298004,0.1039696,0.0488501,0.1636801,0.0488501h1.7870903c0.0584583,0,0.1114883-0.0190496,0.1603394-0.0468893   c0.0492706,0.0278397,0.1018791,0.0468893,0.160759,0.0468893h1.0430317c0.3327789,0,0.6016788-0.0947599,0.8050289-0.2632799   c0.0567799,0.1543503,0.1874695,0.2632799,0.3402996,0.2632799h1.0430298   c0.000742,0.000001,0.0016193,0.0000019,0.0023594,0.0000019c0.7569237,0,1.2081013-0.4711523,1.2081013-1.2592516   c0-0.3663397-0.0835094-0.6388998-0.2672291-0.8596897c-0.0037498-0.0043898-0.0079308-0.00879-0.0108509-0.0127001   c0.1023006-0.0771704,0.1690998-0.2115002,0.1690998-0.3643904v-0.5578194   C21.891016,12.7058201,21.7256756,12.5119104,21.5214958,12.5119104L21.5214958,12.5119104z M19.7481766,15.5657597V15.00354   h1.0384407c0.1010399,0,0.1732788-0.0151396,0.2187901-0.06497c0.0359097-0.0400496,0.0622101-0.0996399,0.0622101-0.1709604   c0-0.0766792-0.0279713-0.1362801-0.0647106-0.1733999c-0.0417595-0.0400496-0.09729-0.0581293-0.1908207-0.0581293   c-0.500639-0.0190506-1.1286297,0.0180798-1.1286297-0.8108406c0-0.3809996,0.2045994-0.7805595,0.7657795-0.7805595h1.0739307   v0.5578194h-0.9824905c-0.0977001,0-0.1611691,0.0048904-0.2150288,0.0473804   c-0.0588818,0.0429897-0.0805912,0.1059999-0.0805912,0.1890402c0,0.0991497,0.0501003,0.1655798,0.1164894,0.1953802   c0.0576305,0.0229597,0.1181717,0.0297995,0.2087803,0.0297995l0.2881012,0.0097704   c0.2906189,0.0082998,0.4906197,0.0664301,0.6129704,0.2090597c0.1052189,0.1260204,0.1607494,0.2862301,0.1607494,0.5553799   c0,0.5641699-0.3010502,0.8274498-0.8409405,0.8274498H19.7481766L19.7481766,15.5657597z M17.5593967,15.5657597V15.00354   h1.0388603c0.1010399,0,0.1732788-0.0151396,0.2183685-0.06497c0.0367508-0.0400496,0.0626411-0.0996399,0.0626411-0.1709604   c0-0.0766792-0.0275612-0.1362801-0.0651398-0.1733999c-0.0409203-0.0400496-0.0968704-0.0581293-0.1908207-0.0581293   c-0.5002193-0.0190506-1.1277905,0.0180798-1.1277905-0.8108406c0-0.3809996,0.2037601-0.7805595,0.7657814-0.7805595h1.0730896   v0.5578194h-0.9820709c-0.0981197,0-0.1611691,0.0048904-0.2146187,0.0473804   c-0.0592899,0.0429897-0.0810013,0.1059999-0.0810013,0.1890402c0,0.0991497,0.0496902,0.1655798,0.1169109,0.1953802   c0.057209,0.0229597,0.1173306,0.0297995,0.2087688,0.0297995l0.2876911,0.0097704   c0.2906189,0.0082998,0.4902,0.0664301,0.6133804,0.2090597c0.1043892,0.1260204,0.160759,0.2862301,0.160759,0.5553799   c0,0.5641699-0.3018894,0.8274498-0.8417797,0.8274498H17.5593967L17.5593967,15.5657597z M15.4495363,15.56674v-2.6215696   h1.7871008v0.5416994h-1.2543106v0.4772301h1.2234097v0.5348597h-1.2234097v0.5211906l1.2543106,0.0029297V15.56674H15.4495363   L15.4495363,15.56674z M12.9968767,15.56674v-2.6215696h1.2363501c0.2709894,0,0.46807,0.0131893,0.6451101,0.1230898   c0.1682692,0.1191902,0.2747393,0.2833099,0.2747393,0.5822496c-0.0008297,0.4195805-0.2400894,0.6330404-0.3803797,0.6980104   c0.1185799,0.0507994,0.2167101,0.1440897,0.2617998,0.2202902c0.0764103,0.1279793,0.0872698,0.24716,0.0889406,0.4782V15.56674   h-0.5373802v-0.3277597c0-0.1577806,0.0129395-0.3912601-0.0864401-0.5133705   c-0.0784903-0.0937901-0.1975002-0.1162596-0.39291-0.1162596h-0.5720301V15.56674H12.9968767L12.9968767,15.56674z    M9.4489861,13.8043699l0.6814308-0.8587103h1.7110996c0.0007267,0,0.0015192-0.000001,0.0022459-0.000001   c0.4245205-0.0000143,0.900074,0.1389818,0.900074,0.8636017c0,0.7282896-0.4643097,0.8787394-0.9323797,0.8787394h-0.6680698   v0.87922h-1.0409403l-0.65973-0.8679895l-0.6856098,0.8679895H6.6355567v-2.6215601h2.1536994L9.4489861,13.8043699   L9.4489861,13.8043699z M10.6097565,13.2265196l-0.8225603,1.0335903l0.8225603,1.0687504V13.2265196L10.6097565,13.2265196z    M11.8415165,13.48736h-0.6981297v0.6677303h0.6914492c0.0004034,0.000001,0.0008335,0.000001,0.001236,0.000001   c0.2055607,0,0.3328047-0.1196337,0.3328047-0.3458309C12.1688766,13.5796804,12.0352669,13.48736,11.8415165,13.48736   L11.8415165,13.48736z M14.1935568,13.4878502h-0.6597204V14.07693h0.6509504c0.1043901,0,0.1933298-0.0043898,0.2651396-0.0542202   c0.0684805-0.0488396,0.1098204-0.1396999,0.1098204-0.2515497c0-0.1118603-0.0413399-0.1934299-0.1106501-0.2359304   C14.3839569,13.4902897,14.2879267,13.4878502,14.1935568,13.4878502L14.1935568,13.4878502z M8.5124264,13.4878502H7.1700163   v0.4767399h1.1753902v0.5353498H7.1700163v0.5216799h1.3161001l0.6121302-0.7703094L8.5124264,13.4878502L8.5124264,13.4878502z" fill="#303C42"/></g><path d="  M22,20.5H2c-0.8284271,0-1.5-0.6715736-1.5-1.5V5c0-0.8284273,0.6715729-1.5,1.5-1.5h20c0.8284264,0,1.5,0.6715727,1.5,1.5v14  C23.5,19.8284264,22.8284264,20.5,22,20.5z" fill="none" id="XMLID_1435_" stroke="#303C42" stroke-linecap="round" stroke-linejoin="round" stroke-miterlimit="10"/><g/><g/><g/><g/><g/><g/><g/><g/><g/><g/><g/><g/><g/><g/><g/></svg>