<?xml version="1.0" ?><svg enable-background="new 0 0 24 24" id="Layer_1" version="1.1" viewBox="0 0 24 24" xml:space="preserve" xmlns="http://www.w3.org/2000/svg" xmlns:xlink="http://www.w3.org/1999/xlink"><g><path d="M22,20.5H2   c-0.8284271,0-1.5-0.6715736-1.5-1.5V5c0-0.8284273,0.6715729-1.5,1.5-1.5h20c0.8284264,0,1.5,0.6715727,1.5,1.5v14   C23.5,19.8284264,22.8284264,20.5,22,20.5z" fill="none" stroke="#303C42" stroke-linecap="round" stroke-linejoin="round" stroke-miterlimit="10"/><circle cx="12" cy="12" fill="none" id="XMLID_2271_" r="5.5" stroke="#303C42" stroke-linecap="round" stroke-linejoin="round" stroke-miterlimit="10"/><path d="M11.5443649,13.0056353   c-0.8591537-0.8591537-0.8591537-2.2521172,0-3.11127c0.8591537-0.8591537,2.2521162-0.8591537,3.11127,0" fill="none" id="XMLID_2275_" stroke="#303C42" stroke-linejoin="round" stroke-miterlimit="10"/><path d="M13.0056353,11.5443649   c0.8591528,0.8591537,0.8591528,2.2521162,0,3.11127c-0.8591537,0.8591537-2.2521172,0.8591537-3.11127,0" fill="none" id="XMLID_2277_" stroke="#303C42" stroke-linejoin="round" stroke-miterlimit="10"/></g><g/><g/><g/><g/><g/><g/><g/><g/><g/><g/><g/><g/><g/><g/><g/></svg>