<?xml version="1.0" ?><svg enable-background="new 0 0 24 24" id="Layer_1" version="1.1" viewBox="0 0 24 24" xml:space="preserve" xmlns="http://www.w3.org/2000/svg" xmlns:xlink="http://www.w3.org/1999/xlink"><g><path clip-rule="evenodd" d="   M22,20.5H2c-0.8284271,0-1.5-0.6715736-1.5-1.5V5c0-0.8284273,0.6715729-1.5,1.5-1.5h20c0.8284264,0,1.5,0.6715727,1.5,1.5v14   C23.5,19.8284264,22.8284264,20.5,22,20.5z" fill="none" fill-rule="evenodd" stroke="#303C42" stroke-linecap="round" stroke-linejoin="round" stroke-miterlimit="10"/><g><path d="M5.8834348,8.5003128c-1.8681965,0-3.5921633,1.6788454-3.850786,3.7498436    C1.7740874,14.3211546,3.0788779,16,4.9470134,16s3.5921636-1.6788454,3.8507857-3.7498436    C9.0563612,10.1791582,7.7515702,8.5003128,5.8834348,8.5003128z M7.1396804,12.9541235    c0,0-0.1625104,1.1722383-1.0624924,1.4150257c-0.4479122,0.1632442-1.0339403,0.1255817-1.0339403,0.1255817    s-1.3730228,0.0042191-1.4860709-1.084197c0-0.4897318,0.0780759-0.7478046,0.0780759-0.7478046l0.4630139-2.1914444    c0,0,0.0054417-0.0872469,0.0659089-0.0872469c0.0604677,0,0.4688225,0,0.4688225,0h0.2972016    c0,0,0.2386298,0.0008564,0.1823201,0.2674885c-0.0563712,0.2666931-0.4885097,2.3118286-0.4885097,2.3118286    S4.4706097,13.5737782,5.1211405,13.63235c0.6504693,0.0586338,0.9039559-0.3627443,1.0592518-1.0978928    c0.1553569-0.7350864,0.4426541-2.0947809,0.4426541-2.0947809s0.0006728-0.0556383,0.0569215-0.0556383    c0.0562491,0,0.7660241,0,0.7660241,0s0.233983,0.0132065,0.1821976,0.2581949    C7.5764041,10.8873434,7.1396804,12.9541235,7.1396804,12.9541235z" fill="#303C42"/><path d="M10.2240477,10.4581976c0,0,0.0038528-0.0741739,0.0600929-0.0741739s0.6069565,0,0.6069565,0    s0.3049746,0.0241375,0.2350464,0.3550625c-0.0699282,0.3310204-0.3672981,1.7383566-0.3672981,1.7383566l1.0071468-0.9924288    h1.1040783c0,0,0.0533724,0.025116,0,0.0753479c-0.0533714,0.0502329-1.5938425,1.4483461-1.5938425,1.4483461    l0.9418535,1.3394928c0,0,0.034977,0.0711794-0.0390205,0.0711794c-0.0740013,0-0.9321442,0-0.9321442,0    s-0.0136127,0.0156975-0.0512877-0.0376749c-0.037674-0.0533705-0.6361408-0.9607859-0.6361408-0.9607859l-0.1442719,0.6828918    c0,0-0.0374279,0.3092899-0.2744637,0.3092899c-0.237031,0-0.6969719,0-0.6969719,0s-0.0609016,0.0260954-0.0337267-0.1025248    C9.4372349,14.1819525,10.2240477,10.4581976,10.2240477,10.4581976z" fill="#303C42"/><path d="M14.8875532,11.4428749c-0.4759808-0.0939407-0.916935-0.0302658-0.916935-0.0302658    s-0.701829,0.0493984-0.9467106,0.5244951c-0.1316643,0.2453747-0.1576147,0.368207-0.1576147,0.368207    s-0.0272255,0.0974712,0.0275221,0.0974712c0.0547438,0,0.818676,0,0.818676,0s0.0480261,0.0038729,0.0664721-0.0832453    c0.0184402-0.0871229,0.1323967-0.2736301,0.3144884-0.2861881c0.1820927-0.012558,0.1988192-0.0146179,0.1988192-0.0146179    s0.4787283-0.0244274,0.4067659,0.3161573c-0.0719681,0.3405895-0.3815994,0.3284225-0.5741892,0.3368111    c-0.1925907,0.0083895-1.0307913,0.0105991-1.4153843,0.3757629c-0.1815987,0.1517258-0.2255526,0.4238338-0.2255526,0.4238338    s-0.0752983,0.4981537,0.1486378,0.7346468c0.2239351,0.2364931,0.4553242,0.288785,0.6868143,0.288785    s0.727293,0.0372829,1.001852-0.3716879c-0.0469475,0.2221222-0.052,0.2461576-0.052,0.2461576    s-0.0146179,0.0544519,0.029336,0.0523415c0.0439529-0.0021095,0.6237335,0,0.6237335,0s0.2238846,0.0083895,0.3097315-0.2951136    s0.3181715-1.301281,0.3181715-1.301281s0.0753984-0.4861832,0.0774574-0.7499027    C15.6297045,11.8115234,15.3614235,11.5368137,14.8875532,11.4428749z M14.1939163,13.7998152    c-0.3453465,0.2428226-0.7769318,0.0711794-0.7683477-0.2050982c0.008585-0.2762775,0.2366896-0.3495159,0.4376192-0.3871899    c0.2009287-0.037674,0.5721741-0.0258036,0.6785259-0.1280317C14.5417137,13.0794954,14.5120373,13.5654316,14.1939163,13.7998152    z" fill="#303C42"/><path d="M15.7583284,13.4470654h0.8005266c0,0,0.0399303,0.0011749,0.0462093,0.0618553    s0.0167255,0.2407131,0.2302132,0.3265095s0.4939346,0.025116,0.596508-0.0649004    c0.1025734-0.0900154,0.1591358-0.3265591-0.0585709-0.4102459c-0.2177067-0.0836878-0.7327328-0.2092676-0.7327328-0.2092676    s-0.4603329-0.0920763-0.5963612-0.4834852c-0.0690193-0.2463541-0.0263939-0.4481668-0.0263939-0.4481668    s0.011776-0.2530251,0.285944-0.4957972c0.2992821-0.2595501,0.8497772-0.3076725,0.8497772-0.3076725    s0.6508598-0.0501823,0.9941463,0.1109123c0.3432884,0.1611958,0.4982033,0.4437513,0.4814262,0.7932673    c0.0039234,0.0334549-0.0335045,0.0335054-0.0335045,0.0335054l-0.7890491-0.00422c0,0-0.0397835,0.0087366-0.0460625-0.0688725    c-0.006279-0.0776043-0.0460625-0.286972-0.3830204-0.2848129c-0.3369579,0.0020599-0.4164753,0.1845446-0.4123058,0.2848129    c0.0041695,0.1002674,0.0648499,0.2111807,0.6257935,0.320034c0.5609417,0.1088533,0.8079338,0.3096371,0.8623352,0.6037712    c0.0544014,0.2941294-0.0118237,0.7213001-0.1906261,0.9020205c-0.1788063,0.1807156-0.3660965,0.3047285-0.9395981,0.3884153    c-0.6111755,0.0271254-0.8456097-0.0439529-0.8456097-0.0439529s-0.7200289-0.1165037-0.7534838-0.9530354    C15.7218304,13.4816952,15.7299728,13.4470654,15.7583284,13.4470654z" fill="#303C42"/><path d="M19.4844894,10.4197388c0,0,0.0057373-0.0357151,0.0434113-0.0357151s0.6906929,0,0.6906929,0    s0.2342892,0.0016184,0.1733608,0.290062c-0.0609264,0.2884436-0.2472363,1.1700592-0.2472363,1.1700592    s0.2888336-0.4765682,1.0682678-0.4356546c0.7794342,0.0409088,0.8218689,0.7268963,0.7733059,0.9565172    c-0.0485649,0.2296267-0.3738499,1.7693148-0.3738499,1.7693148s-0.0846691,0.2756395-0.2793198,0.2756395    s-0.7126713,0-0.7126713,0s-0.0443439,0.0123625-0.0212879-0.0965414c0.023056-0.1088982,0.339901-1.6085567,0.339901-1.6085567    s0.1465282-0.5773296-0.3324909-0.5710506c-0.4790249,0.006279-0.61726,0.4462042-0.6496849,0.5994024    s-0.2915325,1.3796682-0.2915325,1.3796682s-0.0840836,0.2948227-0.2850113,0.2975206    c-0.2009296,0.002697-0.6906929,0-0.6906929,0s-0.0530758,0.0221214-0.0337524-0.0693665    C18.6752281,14.2495499,19.4844894,10.4197388,19.4844894,10.4197388z" fill="#303C42"/></g></g><g/><g/><g/><g/><g/><g/><g/><g/><g/><g/><g/><g/><g/><g/><g/></svg>