<?xml version="1.0" ?><svg enable-background="new 0 0 24 24" id="Layer_1" version="1.1" viewBox="0 0 24 24" xml:space="preserve" xmlns="http://www.w3.org/2000/svg" xmlns:xlink="http://www.w3.org/1999/xlink"><g><path d="M22,20.5H2   c-0.8284271,0-1.5-0.6715736-1.5-1.5V5c0-0.8284273,0.6715729-1.5,1.5-1.5h20c0.8284264,0,1.5,0.6715727,1.5,1.5v14   C23.5,19.8284264,22.8284264,20.5,22,20.5z" fill="none" stroke="#303C42" stroke-linejoin="round" stroke-miterlimit="10"/><path clip-rule="evenodd" d="M13.887434,11.0213547   C14.2738638,11.5841923,14.5,12.2656879,14.5,13c0,1.9329967-1.5670033,3.5-3.5,3.5   c-1.200572,0-2.2599592-0.6044836-2.8904104-1.5256977" fill="none" fill-rule="evenodd" stroke="#303C42" stroke-miterlimit="10"/><path clip-rule="evenodd" d="M10.725666,13.0772219   C10.2965555,12.4962111,10.0428877,11.777729,10.0428877,11c0-1.9329967,1.5670033-3.5,3.5-3.5   c1.243989,0,2.3363972,0.6489944,2.9571123,1.6268702" fill="none" fill-rule="evenodd" stroke="#303C42" stroke-miterlimit="10"/></g><g/><g/><g/><g/><g/><g/><g/><g/><g/><g/><g/><g/><g/><g/><g/></svg>