<?xml version="1.0" ?><svg enable-background="new 0 0 24 24" id="Layer_1" version="1.1" viewBox="0 0 24 24" xml:space="preserve" xmlns="http://www.w3.org/2000/svg" xmlns:xlink="http://www.w3.org/1999/xlink"><g><path clip-rule="evenodd" d="   M22,20.5H2c-0.8284271,0-1.5-0.6715736-1.5-1.5V5c0-0.8284273,0.6715729-1.5,1.5-1.5h20c0.8284264,0,1.5,0.6715727,1.5,1.5v14   C23.5,19.8284264,22.8284264,20.5,22,20.5z" fill="none" fill-rule="evenodd" stroke="#303C42" stroke-linecap="round" stroke-linejoin="round" stroke-miterlimit="10"/><path clip-rule="evenodd" d="   M12.5,17.5l0.5-3h0.9743557C15.9215155,14.5,17.5,12.9329996,17.5,11.0000057V11c0-1.3807116-1.127491-2.5-2.518322-2.5h-4.0850258   c-0.2550201,0-0.4692593,0.1903572-0.4974213,0.4419737l-0.8961105,8.0063181C9.4701796,17.2426033,9.7022486,17.5,10.0005417,17.5   H12.5z" fill="none" fill-rule="evenodd" stroke="#303C42" stroke-linecap="round" stroke-linejoin="round" stroke-miterlimit="10"/><path clip-rule="evenodd" d="   M9.4259424,16.5H7.0063434c-0.3194175,0-0.5589848-0.288662-0.4963417-0.5980577l1.3339057-8.9745731   C7.8803902,6.6819119,8.0935593,6.5,8.3447104,6.5h4.6244383C14.3668995,6.5,15.5,7.6192856,15.5,8.9999943V9   c0,1.9329967-1.5863447,3.5-3.5432005,3.5H9.9883547" fill="none" fill-rule="evenodd" stroke="#303C42" stroke-linecap="round" stroke-linejoin="round" stroke-miterlimit="10"/></g><g/><g/><g/><g/><g/><g/><g/><g/><g/><g/><g/><g/><g/><g/><g/></svg>