<?xml version="1.0" ?><svg enable-background="new 0 0 24 24" id="Layer_1" version="1.1" viewBox="0 0 24 24" xml:space="preserve" xmlns="http://www.w3.org/2000/svg" xmlns:xlink="http://www.w3.org/1999/xlink"><g><path clip-rule="evenodd" d="   M22,20.5H2c-0.8284271,0-1.5-0.6715736-1.5-1.5V5c0-0.8284273,0.6715729-1.5,1.5-1.5h20c0.8284264,0,1.5,0.6715727,1.5,1.5v14   C23.5,19.8284264,22.8284264,20.5,22,20.5z" fill="none" fill-rule="evenodd" stroke="#303C42" stroke-linecap="round" stroke-linejoin="round" stroke-miterlimit="10"/><path d="M8.6118479,10.4334431c-0.2736073,0-0.538929,0.0628824-0.7881389,0.1802292   c-0.3558707,0.16856-0.6787076,0.4496374-0.942234,0.8226461c-0.1711807,0.2421532-0.3177466,0.5228453-0.4324718,0.8367767   c-0.2163453,0.5925808-0.2139249,1.073245,0.0072594,1.3899994c0.1254115,0.1790447,0.3861203,0.3929567,0.9161963,0.3935614   h0.0020318c0.9655895,0,1.6863747-0.6329069,2.1428566-1.881176c0.120573-0.3302641,0.2796631-0.9466515-0.0110826-1.362607   c-0.1756163-0.2514286-0.4760427-0.3790264-0.8944178-0.3794298H8.6118479z M14.4380751,10.4334431   c-0.273406,0-0.5389357,0.0628824-0.7879448,0.1802292c-0.3560734,0.16856-0.6786594,0.4496374-0.9421854,0.8226461   c-0.1713829,0.2421532-0.3177948,0.5228453-0.4325209,0.8367767c-0.216547,0.5925808-0.213933,1.073245,0.007453,1.3899994   c0.1252098,0.1790447,0.3857174,0.3929567,0.9161968,0.3935614h0.0016451c0.9657917,0,1.6867781-0.6329069,2.1428576-1.881176   c0.1209755-0.3302641,0.2796545-0.9466515-0.0108891-1.362607C15.1568689,10.5614443,14.856451,10.4338465,14.4380751,10.4334431z    M5.5108347,10.4836302c-0.3177633,0-0.6264491-0.0000248-0.9030809,0.1403017   c-0.2764301,0.1403322-0.5206103,0.4212046-0.7085264,0.9829359c-0.0407286,0.1207743-0.0622709,0.2248297-0.0650935,0.3151588   c-0.0028219,0.0905304,0.0129101,0.1675415,0.0471866,0.2344818c0.0423415,0.0816584,0.1108956,0.1584826,0.1965871,0.2232046   c0.0858932,0.0649233,0.1884947,0.117568,0.2991881,0.1512394c0.0042338,0.0012093,0.0623274,0.0177317,0.1328969,0.0378952   c0.0701661,0.0201616,0.1522141,0.0443335,0.2042336,0.0600595c0.0304456,0.0092754,0.0638876,0.0213852,0.0941315,0.0397339   c0.0304456,0.0179443,0.057683,0.0421257,0.074821,0.0755959c0.0112915,0.0221786,0.0173507,0.0465841,0.0179553,0.0725946   c0.0008054,0.0262117-0.003655,0.0544662-0.0139384,0.0843067c-0.0258079,0.0762148-0.0649252,0.1254082-0.1395273,0.1554499   c-0.0741987,0.0300426-0.1836705,0.0396852-0.3498106,0.0408955H2.3239172l-0.3278387,0.9006615h2.2199044   c0.2088852,0,0.5907607,0.0000248,0.9577208-0.1560307c0.3669605-0.155858,0.7190399-0.4673748,0.868042-1.0910053   c0.0560522-0.2342901,0.0386972-0.4252319-0.0530424-0.575242c-0.0921435-0.1498089-0.2586875-0.2586651-0.5012441-0.3282261   c0,0-0.0542207-0.0157719-0.1181364-0.0341196c-0.0635123-0.0183477-0.1371121-0.0393-0.1746149-0.0501871   c-0.0621009-0.0177441-0.1098962-0.0536375-0.138124-0.0994072c-0.0280261-0.0455675-0.0364971-0.1010189-0.0205684-0.1576757   c0.0167351-0.0588751,0.0570674-0.1058559,0.1151357-0.1383181c0.0584717-0.0322609,0.1350865-0.0499935,0.2246084-0.0499935   h1.2903991c0.0090733-0.0131054,0.0173516-0.0274019,0.0264249-0.0405083   c0.2357011-0.3334904,0.5210137-0.6032639,0.8335347-0.7938013H5.5108347z M11.3108311,10.4836302   c-0.5742331,0-1.0016985,0.2905226-1.2035275,0.8343096l-0.975482,2.6802053h1.0686455l0.5012436-1.3777075l0.9444122,0.0006294   l0.2687464-0.7379513l-0.9413624-0.0006294l0.1516266-0.4272451c0.0314531-0.0766182,0.1070509-0.137495,0.2175426-0.137495   c0.0614958,0,0.7548637,0.0001984,1.1135578,0.0003862c0.0092745-0.0133066,0.0175447-0.0275955,0.026618-0.0407009   c0.2357016-0.3334913,0.5694103-0.6032639,0.8819313-0.7938023h-2.0539522V10.4836302z M16.2684364,10.4855652   l-1.2797527,3.5147562h1.0869884l0.4651394-1.2371626c0.0227852,0.051012,0.2972031,1.2371626,0.2972031,1.2371626h1.1428375   c0,0-0.2078667-0.8716202-0.3606987-1.2236595c-0.0393162-0.0905304-0.0802822-0.1919441-0.1351242-0.2768288   c0.3228035-0.1199675,0.790575-0.3774481,0.9843388-0.8992577c0.1189594-0.3207884,0.112133-0.5800991-0.0201321-0.7702322   c-0.1602936-0.2308626-0.4865265-0.3441725-0.9976482-0.3447781h-1.1831532H16.2684364z M18.4979725,10.4856157   c0.0687542,0.0544395,0.1280231,0.1165152,0.1774216,0.1874886c0.1264191,0.1822701,0.1747971,0.39886,0.1459637,0.6470623   h0.6472569l-0.9754829,2.6810274h0.9746609l0.9760628-2.6810274h1.2523098L22,10.4856157H18.4979725z M16.9846096,11.2112265   h0.1794548c0.3280468,0.0002222,0.4504051,0.0961781,0.3393078,0.3955936   c-0.1042404,0.2810669-0.291748,0.4546862-0.6482239,0.4546862h-0.0014019l-0.1844883-0.0001984l0.3153534-0.8500862   L16.9846096,11.2112265z M8.3553953,11.2286491h0.0001984c0.3338928,0.0004034,0.4103327,0.1939802,0.1171675,0.9960508H8.4727125   c-0.3012304,0.8244505-0.519774,1.0319128-0.8488288,1.0319128H7.6232543   c-0.3205862-0.0001984-0.4330626-0.2030659-0.1330423-1.0236855c0.2240071-0.6125422,0.514154-1.0042782,0.8651862-1.0042782   H8.3553953z M14.1816225,11.2286491h0.0003862c0.3336916,0.0004034,0.4102936,0.1939802,0.1169262,0.9960508   c-0.3010283,0.8244505-0.5197821,1.0319128-0.8486347,1.0319128h-0.0007725   c-0.3207884-0.0001984-0.4327154-0.2030659-0.1328974-1.0236855c0.2238054-0.6125422,0.514163-1.0042782,0.8649931-1.0042782   H14.1816225z" fill="#303C42" id="path66"/></g><g/><g/><g/><g/><g/><g/><g/><g/><g/><g/><g/><g/><g/><g/><g/></svg>