<?xml version="1.0" ?><svg enable-background="new 0 0 24 24" id="Layer_1" version="1.1" viewBox="0 0 24 24" xml:space="preserve" xmlns="http://www.w3.org/2000/svg" xmlns:xlink="http://www.w3.org/1999/xlink"><g><path d="M22,20.5H2   c-0.8284271,0-1.5-0.6715736-1.5-1.5V5c0-0.8284273,0.6715729-1.5,1.5-1.5h20c0.8284264,0,1.5,0.6715727,1.5,1.5v14   C23.5,19.8284264,22.8284264,20.5,22,20.5z" fill="none" stroke="#303C42" stroke-linecap="round" stroke-linejoin="round" stroke-miterlimit="10"/><g><g><g id="XMLID_1314_"><g id="XMLID_1320_"><g id="XMLID_1321_"><path d="M8.393755,17.9729137v-0.9309158        c0-0.3506413-0.2234144-0.5864639-0.5833597-0.5895748c-0.1892724-0.0030842-0.3847704,0.055851-0.5213084,0.2637653        c-0.1023955-0.1644478-0.2637644-0.2637653-0.4902821-0.2637653c-0.158258,0-0.3133945,0.046545-0.4344072,0.2203236        v-0.1830826h-0.322731v1.4832497h0.3258162v-0.822319c0-0.2575436,0.1427517-0.3940506,0.3630562-0.3940506        c0.2141027,0,0.3227243,0.139616,0.3227243,0.3909645v0.8254051h0.3258162v-0.822319        c0-0.2575436,0.1489472-0.3940506,0.3630505-0.3940506c0.2203045,0,0.32581,0.139616,0.32581,0.3909645v0.8254051H8.393755z" fill="#303C42" id="XMLID_1376_"/><path d="M9.8894157,16.4896622v0.1799717c-0.1024017-0.133419-0.2575445-0.2172127-0.4685678-0.2172127        c-0.4157991,0-0.7416077,0.3258419-0.7416077,0.7788525c0,0.4530411,0.3258085,0.7788849,0.7416077,0.7788849        c0.2110233,0,0.3661661-0.0837975,0.4685678-0.2172184v0.1799717h0.3227301v-0.7416382v-0.7416115H9.8894157z         M9.4612026,17.7060318c-0.2792645,0-0.4499331-0.2141018-0.4499331-0.4747581        c0-0.2606525,0.1706686-0.4747295,0.4499331-0.4747295c0.2668495,0,0.4468212,0.204771,0.4468212,0.4747295        C9.9080238,17.501236,9.7280521,17.7060318,9.4612026,17.7060318z" fill="#303C42"/></g></g></g></g><path d="M17.856226,16.9215298c-0.0402317-0.0949879-0.096014-0.1773281-0.167284-0.2470264    c-0.071209-0.0696964-0.1556091-0.1244183-0.2531967-0.1641674s-0.2037048-0.0596542-0.3182945-0.0596542    c-0.1145878,0-0.2207069,0.0199051-0.3182945,0.0596542s-0.1817436,0.094471-0.25247,0.1641674    c-0.0707245,0.0696983-0.1262054,0.1520386-0.1664982,0.2470264c-0.0402336,0.0950165-0.060379,0.1982594-0.060379,0.309763    c0,0.1115341,0.0201454,0.2147484,0.060379,0.3097343c0.0402927,0.095047,0.0957737,0.1773891,0.1664982,0.2470856    c0.0707264,0.0696964,0.1548824,0.1243896,0.25247,0.1641388s0.2037067,0.0596523,0.3182945,0.0596523    c0.1145897,0,0.2207069-0.0199032,0.3182945-0.0596523s0.1819878-0.0944424,0.2531967-0.1641388    c0.07127-0.0696964,0.1270523-0.1520386,0.167284-0.2470856c0.0402946-0.094986,0.0604401-0.1982002,0.0604401-0.3097343    C17.916666,17.1197891,17.8965206,17.0165462,17.856226,16.9215298z M17.5480347,17.424139    c-0.023777,0.0583229-0.0565681,0.1084175-0.0983734,0.1502247c-0.0418072,0.0418053-0.091114,0.0743542-0.1479244,0.0975876    c-0.0567493,0.0232315-0.1182194,0.0348473-0.1842861,0.0348473s-0.1275349-0.0116158-0.1842861-0.0348473    c-0.0568085-0.0232334-0.105875-0.0557823-0.1471367-0.0975876c-0.0413227-0.0418072-0.0738716-0.0919018-0.0975876-0.1502247    c-0.023777-0.0583229-0.035635-0.1226349-0.035635-0.1928463s0.011858-0.1344624,0.035635-0.1928158    c0.023716-0.0583229,0.0562649-0.1084175,0.0975876-0.1502533c0.0412617-0.0418072,0.0903282-0.0743256,0.1471367-0.0975571    c0.0567513-0.0232334,0.1182194-0.0348492,0.1842861-0.0348492s0.1275368,0.0116158,0.1842861,0.0348492    c0.0568104,0.0232315,0.1061172,0.0557499,0.1479244,0.0975571c0.0418053,0.0418358,0.0745964,0.0919304,0.0983734,0.1502533    c0.023716,0.0583534,0.035635,0.1226044,0.035635,0.1928158S17.5717506,17.3658161,17.5480347,17.424139z" fill="#303C42"/><path d="M11.9681549,17.2312737c-0.0030851-0.462347-0.2885695-0.7788525-0.7043648-0.7788525    c-0.4344339,0-0.7385302,0.3165054-0.7385302,0.7788525c0,0.4716797,0.3165064,0.7788849,0.7602501,0.7788849    c0.2234068,0,0.4282093-0.0558815,0.6081839-0.2079086l-0.1582584-0.2389431    c-0.1241179,0.0992889-0.2823687,0.1551456-0.4313221,0.1551456c-0.2079144,0-0.3971834-0.09618-0.4437389-0.36306h1.1015835    C11.9650698,17.3150673,11.9681549,17.2747402,11.9681549,17.2312737z M10.8634863,17.1009636    c0.0341377-0.2141094,0.1644487-0.3599472,0.394083-0.3599472c0.2079115,0,0.3413343,0.130312,0.3754683,0.3599472H10.8634863z" fill="#303C42"/><path d="M13.4668741,16.6075897c-0.1551733-0.1024017-0.369276-0.1551666-0.6050997-0.1551666    c-0.3754711,0-0.6174898,0.1799736-0.6174898,0.4747581c0,0.2420483,0.1799726,0.390995,0.5119715,0.4375477l0.1520634,0.0217133    c0.1768627,0.024807,0.2606544,0.071352,0.2606544,0.1551495c0,0.1148109-0.1179276,0.1799736-0.3382244,0.1799736    c-0.2234154,0-0.384778-0.0713825-0.4933996-0.1551495l-0.1520319,0.2513237    c0.1768627,0.1303425,0.4003019,0.1924191,0.6423206,0.1924191c0.4282112,0,0.6764507-0.2017231,0.6764507-0.4840927    c0-0.2606602-0.1954737-0.397192-0.518199-0.443737l-0.1520319-0.0217209    c-0.1396475-0.01861-0.2513485-0.0465202-0.2513485-0.1458111c0-0.1086235,0.1054802-0.1737785,0.2823753-0.1737785    c0.189271,0,0.3723545,0.0713768,0.4623404,0.1272259L13.4668741,16.6075897z" fill="#303C42" id="XMLID_1313_"/><path d="M14.8778868,16.4896641h-0.527504l-0.0000925-0.4499264h-0.3258162l0.0000992,0.4499264    h-0.3010101v0.2947903h0.3010101v0.6764488c0,0.3444519,0.1334219,0.5492554,0.5150881,0.5492554    c0.1396418,0,0.3009796-0.0434723,0.4033813-0.1148167l-0.0930653-0.2761784    c-0.0962124,0.0558491-0.201725,0.0837898-0.2854919,0.0837898c-0.1613617,0-0.2141027-0.0993156-0.2141027-0.2482376v-0.6702614    h0.527504V16.4896641z" fill="#303C42" id="XMLID_1312_"/><path d="M15.9947224,16.4524231c-0.1861677,0-0.3072042,0.0869026-0.3909645,0.2172127v-0.1799717    h-0.319622v1.4832497h0.3227005v-0.831625c0-0.2451286,0.1055117-0.3816662,0.3165359-0.3816662    c0.065155,0,0.1334267,0.009306,0.2016926,0.0372467l0.0992928-0.3040962    C16.1529751,16.464838,16.0598793,16.4524231,15.9947224,16.4524231L15.9947224,16.4524231z" fill="#303C42" id="XMLID_37_"/></g><circle cx="8.75" cy="10.75" fill="none" r="4.25" stroke="#303C42" stroke-linecap="round" stroke-linejoin="round" stroke-miterlimit="10"/><circle cx="15.25" cy="10.75" fill="none" r="4.25" stroke="#303C42" stroke-linecap="round" stroke-linejoin="round" stroke-miterlimit="10"/></g><g/><g/><g/><g/><g/><g/><g/><g/><g/><g/><g/><g/><g/><g/><g/></svg>