<?xml version="1.0" ?><svg enable-background="new 0 0 24 24" id="Layer_1" version="1.1" viewBox="0 0 24 24" xml:space="preserve" xmlns="http://www.w3.org/2000/svg" xmlns:xlink="http://www.w3.org/1999/xlink"><g><path clip-rule="evenodd" d="   M22,20.5H2c-0.8284271,0-1.5-0.6715736-1.5-1.5V5c0-0.8284273,0.6715729-1.5,1.5-1.5h20c0.8284264,0,1.5,0.6715727,1.5,1.5v14   C23.5,19.8284264,22.8284264,20.5,22,20.5z" fill="none" fill-rule="evenodd" stroke="#303C42" stroke-linecap="round" stroke-linejoin="round" stroke-miterlimit="10"/><g><path d="M15.0072823,8.6768255c-0.0061989-0.0457172-0.0462704-0.0710669-0.0793686-0.0738344    c-0.0329876-0.0027676-0.7319193-0.0544615-0.7319193-0.0544615s-0.4855108-0.4819689-0.5387554-0.5353241    c-0.0532436-0.0532446-0.1574087-0.0370831-0.1978121-0.0252385c-0.0059776,0.001771-0.1060467,0.0326552-0.2716475,0.0839067    c-0.1621685-0.4665813-0.4483166-0.8954158-0.9517603-0.8954158c-0.0139475,0-0.0282269,0.0006642-0.0426178,0.0014391    c-0.14324-0.1894002-0.3205738-0.271647-0.4737768-0.271647c-1.1727085,0-1.7330494,1.4661627-1.9087229,2.2111435    c-0.4557343,0.1412477-0.7795181,0.241538-0.8208084,0.2545996C8.7356043,9.4518051,8.7276344,9.459775,8.694315,9.6994305    c-0.025238,0.1815414-0.6908503,5.3288841-0.6908503,5.3288841L13.1898832,16L16,15.3920603    C16,15.3920603,15.0135918,8.7225428,15.0072823,8.6768255z M12.1549902,8.3406429    c0,0.0179329-0.0002213,0.0343161-0.0003319,0.0509195c-0.2854843,0.0884466-0.595542,0.1844196-0.9063759,0.2806139    c0.1745672-0.6734719,0.5015621-0.998806,0.7877102-1.1215677C12.1080551,7.7313747,12.1549902,7.9907341,12.1549902,8.3406429z     M11.6874123,7.2208467c0.0506983,0,0.1016188,0.017158,0.1505461,0.0508094    c-0.3759222,0.1767807-0.7788544,0.6223302-0.9489927,1.5117693c-0.2486229,0.0770435-0.4917097,0.152317-0.7164221,0.2219448    C10.3719063,8.3268061,10.8450193,7.2208467,11.6874123,7.2208467z M11.889432,11.1865149    c0,0-0.3035278-0.1620588-0.6756859-0.1620588c-0.545619,0-0.5730715,0.3423815-0.5730715,0.4286137    c0,0.470788,1.2271709,0.6512222,1.2271709,1.7538605c0,0.8674097-0.5502672,1.4260902-1.2921486,1.4260902    c-0.8903246,0-1.3456154-0.5540314-1.3456154-0.5540314l0.238328-0.7875986c0,0,0.4680204,0.4017143,0.8629818,0.4017143    c0.2579212,0,0.3629713-0.203126,0.3629713-0.3515692c0-0.614028-1.0067759-0.6414804-1.0067759-1.6504707    c0-0.8492556,0.6096001-1.6710596,1.8400917-1.6710596c0.4741087,0,0.70823,0.1358232,0.70823,0.1358232L11.889432,11.1865149z     M12.4622812,8.2963648c0.0001106-0.0308838,0.0002213-0.0613251,0.0002213-0.0946445    c0-0.2900224-0.0401831-0.5234795-0.1048288-0.7085624c0.25947,0.0325446,0.4322662,0.3277693,0.5434046,0.6673837    C12.7708998,8.2008343,12.6227894,8.2466621,12.4622812,8.2963648z" fill="#303C42"/></g></g><g/><g/><g/><g/><g/><g/><g/><g/><g/><g/><g/><g/><g/><g/><g/></svg>