<?xml version="1.0" ?><svg enable-background="new 0 0 24 24" id="Layer_1" version="1.1" viewBox="0 0 24 24" xml:space="preserve" xmlns="http://www.w3.org/2000/svg" xmlns:xlink="http://www.w3.org/1999/xlink"><g><path clip-rule="evenodd" d="   M22,20.5H2c-0.8284271,0-1.5-0.6715736-1.5-1.5V5c0-0.8284273,0.6715729-1.5,1.5-1.5h20c0.8284264,0,1.5,0.6715727,1.5,1.5v14   C23.5,19.8284264,22.8284264,20.5,22,20.5z" fill="none" fill-rule="evenodd" stroke="#303C42" stroke-linecap="round" stroke-linejoin="round" stroke-miterlimit="10"/><g><polygon fill="#303C42" points="3,11.4475079 7.9543133,11.4486456 7.0536323,15.9668341   "/><polygon fill="#303C42" points="9.6627064,6.3427978 8.8075151,10.7836542 13.6759672,10.7836542   "/><path d="M18.0790119,11.474802l-1.1648006-0.0005693l-0.5862389,3.0042601    c-0.0261574,0.0190487-0.0966644,0.5956211-0.6317282,0.5509844c-0.6465111-0.0534487-0.4443703-0.6874514-0.4443703-0.6874514    l0.5154467-2.8692131l-1.1437616,0.0017052l-0.5751505,3.0179062c0,0-0.3605003,1.4633217,1.5412226,1.5744858    c0,0,1.6040545,0.2285824,1.9614248-1.7297163C17.9294662,12.2611923,18.0790119,11.474802,18.0790119,11.474802" fill="#303C42"/><path d="M17.6508465,14.4804831c0,0-0.4841728,1.4920368,1.4576359,1.5804548    c0,0,1.625946-0.0307045,1.6219654-1.4738407c0,0,0.1242409-0.8546228-1.2444057-1.4368811    c0,0-0.2877178-0.1279383-0.3036404-0.4167929c-0.0159206-0.2888536,0.292551-0.3431568,0.292551-0.3431568    s0.211525-0.0568619,0.3258152,0.0707922c0.0821648,0.0921154,0.0702248,0.4435167,0.0702248,0.4435167h1.0840588    c0,0,0.4244671-1.4943113-1.3353844-1.5130758c0,0-1.3075218-0.081027-1.5904064,1.1949377    c0,0-0.1811028,0.7579594,0.4210567,1.14888c0.6015911,0.3914881,0.7261162,0.4025764,0.9458847,0.5586605    c0.2192001,0.1563683,0.2425117,0.7380581-0.2103863,0.7673416c-0.5100441,0.03298-0.4042816-0.5796995-0.4139481-0.5796995    L17.6508465,14.4804831z" fill="#303C42"/><polygon fill="#303C42" points="3.1222513,10.7862139 8.8959332,6.3018579 8.0600748,10.7884874   "/><polygon fill="#303C42" points="12.162323,11.4503517 13.3413391,11.449214 12.6894264,14.9143343 13.9332638,14.9166079     13.7427797,15.953187 11.2997389,15.9537554   "/><path d="M9.6442261,12.5287237l-0.1839457,0.9817085h0.4293022    c0.736352-0.0139313,0.707922-0.5470047,0.707922-0.5470047c-0.0517435-0.4440861-0.5049276-0.4347029-0.5049276-0.4347029    L9.6442261,12.5287237z M8.6684895,11.4480772l1.5167713,0.004549c0,0,1.0931559,0.0372438,1.4411459,0.8006048    c0.3477058,0.7636461-0.1324863,1.5949564-0.2197676,1.6614838c-0.0872822,0.0665283-0.4065571,0.7969093-2.1649885,0.697402    l-0.2905607,1.3825788l-1.151154,0.0005684L8.6684895,11.4480772z" fill="#303C42"/></g></g><g/><g/><g/><g/><g/><g/><g/><g/><g/><g/><g/><g/><g/><g/><g/></svg>