<?xml version="1.0" ?><!DOCTYPE svg  PUBLIC '-//W3C//DTD SVG 1.1//EN'  'http://www.w3.org/Graphics/SVG/1.1/DTD/svg11.dtd'><svg height="512px" style="enable-background:new 0 0 512 512;" version="1.1" viewBox="0 0 512 512" width="512px" xml:space="preserve" xmlns="http://www.w3.org/2000/svg" xmlns:xlink="http://www.w3.org/1999/xlink"><g id="Worldpay_x2C__card_x2C__income_x2C__pattern_x2C__paying_x2C__payment"><g><path d="M495.952,389.908c0,8.837-7.123,16.052-15.959,16.052H32.01    c-8.836,0-15.962-7.215-15.962-16.052V121.999c0-8.836,7.126-15.959,15.962-15.959h447.983c8.836,0,15.959,7.123,15.959,15.959    V389.908z" style="fill-rule:evenodd;clip-rule:evenodd;fill:#213D73;"/><path d="M167.635,278.722h-10.377l-8.833-32.189    c-0.902-3.16-1.444-6.494-1.983-9.833h-0.09c-0.452,3.247-0.992,6.401-1.895,9.648l-8.746,32.374h-9.921L112.354,226.6h8.929    l8.025,31.652c0.899,3.426,1.531,6.766,1.983,10.277h0.09c0.539-3.426,1.174-6.758,2.073-9.914l8.836-32.016h9.2l9.106,32.104    c0.813,2.797,1.534,6.223,2.07,9.563h0.092c0.543-3.248,1.085-6.224,1.806-9.113l8.115-32.553h8.386L167.635,278.722z" style="fill-rule:evenodd;clip-rule:evenodd;fill:#FFFFFF;"/><path d="M196.311,279.442c-10.647,0-17.586-5.952-17.586-19.384    c0-11.635,7.48-20.47,19.114-20.47c10.191,0,17.499,5.681,17.499,19.206C215.338,270.606,207.574,279.442,196.311,279.442     M197.117,246.532c-5.046,0-9.828,3.876-9.828,12.62c0,8.656,3.341,13.167,9.736,13.167c5.323,0,9.834-4.146,9.834-12.983    C206.859,251.129,203.705,246.532,197.117,246.532L197.117,246.532z" style="fill-rule:evenodd;clip-rule:evenodd;fill:#FFFFFF;"/><path d="M239.504,247.796c-7.579-1.534-11.275,3.784-11.275,15.324    v15.509l-8.294,0.093v-38.326h7.844c0,2.076-0.179,5.502-0.721,8.479h0.178c1.621-5.231,5.503-10.006,12.712-9.199    L239.504,247.796z" style="fill-rule:evenodd;clip-rule:evenodd;fill:#FFFFFF;"/><rect height="52.479" style="fill-rule:evenodd;clip-rule:evenodd;fill:#FFFFFF;" width="8.208" x="244.371" y="226.15"/><path d="M283.868,278.722c0-2.07,0.172-5.047,0.541-7.215h-0.092    c-2.076,4.688-6.587,7.936-12.539,7.936c-9.378,0-14.062-6.944-14.062-18.035c0-13.161,7.573-21.64,20.014-21.64    c1.806,0,3.697,0.092,5.773,0.271V226.15h8.207v52.571H283.868 M283.504,246.982c-2.076-0.45-4.061-0.721-6.131-0.721    c-6.495,0-11.005,4.055-11.005,14.332c0,7.758,2.439,12.083,7.666,12.083c6.044,0,9.47-7.302,9.47-13.796V246.982z" style="fill-rule:evenodd;clip-rule:evenodd;fill:#FFFFFF;"/><path d="M309.925,259.607c-1.078,0-2.52,0-3.789-0.092v19.113h-8.473    V226.6c4.061-0.179,8.473-0.271,13.34-0.271c12.361,0,19.119,5.951,19.119,15.601    C330.122,252.029,322.095,259.607,309.925,259.607 M310.468,233.187c-1.621,0-2.977,0-4.332,0.179v19.027    c1.085,0.179,2.439,0.271,3.697,0.271c6.943-0.093,11.633-3.882,11.633-10.014C321.466,236.699,317.954,233.187,310.468,233.187    L310.468,233.187z" style="fill-rule:evenodd;clip-rule:evenodd;fill:#FFFFFF;"/><path d="M353.926,278.722c0-2.527,0.093-5.047,0.37-7.123    l-0.093-0.092c-1.806,4.51-6.587,7.936-12.718,7.936c-6.488,0-10.728-4.418-10.728-10.642c0-8.656,8.564-13.346,22.626-13.346    v-2.249c0-4.695-1.979-7.216-8.022-7.216c-3.513,0-7.838,1.171-10.907,2.792l-1.626-6.674c3.782-1.442,9.021-2.52,13.888-2.52    c11.721,0,14.974,5.046,14.974,12.712v15.872c0,3.334,0,7.301,0.173,10.456h-7.937 M353.384,261.05    c-11.449,0-14.604,3.155-14.604,6.759c0,2.891,1.984,5.146,5.225,5.146c5.596,0,9.379-5.416,9.379-10.825V261.05z" style="fill-rule:evenodd;clip-rule:evenodd;fill:#FFFFFF;"/><path d="M383.958,281.341c-4.781,12.803-9.92,16.766-18.572,16.766    c-1.447,0-3.61-0.266-4.873-0.45l0.906-7.209c1.349,0.45,3.154,0.628,4.682,0.628c3.611,0,7.037-1.713,9.563-8.656l1.442-3.697    l-14.339-38.326h9.2l6.309,17.499c1.171,3.334,2.162,6.76,2.977,10.007h0.092c0.721-3.068,2.342-8.114,3.783-11.99l5.41-15.516    h8.929L383.958,281.341z" style="fill-rule:evenodd;clip-rule:evenodd;fill:#FFFFFF;"/><polygon points="386.755,226.871 383.958,226.871 383.958,225.792     390.63,225.792 390.63,226.871 387.839,226.871 387.839,234.178 386.755,234.178   " style="fill-rule:evenodd;clip-rule:evenodd;fill:#FFFFFF;"/><path d="M391.709,225.792h1.713l1.983,5.946    c0.271,0.813,0.271,0.998,0.363,1.263l0,0c0.18-0.449,0.18-0.535,0.451-1.349l1.983-5.86h1.534v8.386h-1.078v-6.943l0,0    l-2.439,6.943h-0.986l-2.348-7.128h-0.092v7.128h-0.986v-8.386 M391.709,225.792L391.709,225.792L391.709,225.792z" style="fill-rule:evenodd;clip-rule:evenodd;fill:#FFFFFF;"/></g></g><g id="Layer_1"/></svg>