<?xml version="1.0" ?><!DOCTYPE svg  PUBLIC '-//W3C//DTD SVG 1.1//EN'  'http://www.w3.org/Graphics/SVG/1.1/DTD/svg11.dtd'><svg height="512px" style="enable-background:new 0 0 512 512;" version="1.1" viewBox="0 0 512 512" width="512px" xml:space="preserve" xmlns="http://www.w3.org/2000/svg" xmlns:xlink="http://www.w3.org/1999/xlink"><g id="card_x2C__income_x2C__pattern_x2C__paying_x2C__payment_x2C__cirrus_x2C_"><g><path d="M495.951,390.001c0,8.836-7.123,15.959-15.959,15.959H32.011    c-8.839,0-15.962-7.123-15.962-15.959V121.999c0-8.836,7.123-15.959,15.962-15.959h447.981c8.836,0,15.959,7.123,15.959,15.959    V390.001z" style="fill-rule:evenodd;clip-rule:evenodd;fill:#14477C;"/><path d="M284.227,256.004c0-47.526-38.416-85.938-85.938-85.938    c-47.519,0-85.934,38.411-85.934,85.938c0,47.519,38.415,85.931,85.934,85.931C245.811,341.935,284.227,303.522,284.227,256.004    L284.227,256.004z" style="fill-rule:evenodd;clip-rule:evenodd;fill:#0F7DC2;"/><path d="M313.713,170.066c-22.182,0-42.473,8.387-57.714,22.182    c-3.065,2.884-6.038,5.859-8.654,9.107h17.312c2.438,2.884,4.602,5.952,6.584,9.106h-30.479c-1.803,2.977-3.516,5.953-4.96,9.107    h40.399c1.352,2.976,2.615,6.044,3.605,9.107h-47.613c-0.988,2.976-1.892,6.044-2.523,9.106h52.662    c1.264,5.865,1.895,11.997,1.895,18.221c0,9.557-1.535,18.755-4.42,27.32h-47.613c0.995,3.063,2.256,6.131,3.608,9.107h40.399    c-1.445,3.154-3.158,6.13-4.961,9.106h-30.479c1.983,3.155,4.149,6.223,6.583,9.107h17.312c-2.611,3.247-5.5,6.223-8.657,9.106    c15.241,13.796,35.532,22.183,57.714,22.183c47.52,0,85.938-38.412,85.938-85.931C399.65,208.57,361.232,170.066,313.713,170.066    L313.713,170.066z" style="fill-rule:evenodd;clip-rule:evenodd;fill:#139CD8;"/><path d="M388.195,303.972c0-1.62,1.264-2.791,2.791-2.791    c1.535,0,2.799,1.171,2.799,2.791c0,1.442-1.264,2.705-2.799,2.705C389.459,306.677,388.195,305.507,388.195,303.972    L388.195,303.972z M390.986,306.048c1.178,0,2.076-0.992,2.076-2.076c0-1.171-0.898-2.162-2.076-2.162    c-1.17,0-2.07,0.991-2.07,2.162C388.916,305.056,389.816,306.048,390.986,306.048L390.986,306.048z M390.629,305.143h-0.541    v-2.434h0.99c0.18,0,0.451,0,0.637,0.092c0.178,0.179,0.27,0.358,0.27,0.629s-0.092,0.542-0.363,0.635l0.451,1.078h-0.629    l-0.365-0.992h-0.449V305.143L390.629,305.143z M390.629,303.794h0.271c0.178,0,0.271,0,0.357-0.094    c0.092-0.086,0.186-0.178,0.186-0.271c0-0.086-0.094-0.179-0.186-0.271c-0.086,0-0.18,0-0.357,0h-0.271V303.794z" style="fill-rule:evenodd;clip-rule:evenodd;fill:#139CD8;"/><path d="M359.34,275.21c0-1.535,1.264-2.798,2.791-2.798    c1.535,0,2.799,1.263,2.799,2.798c0,1.527-1.264,2.791-2.799,2.791C360.604,278.001,359.34,276.737,359.34,275.21L359.34,275.21z     M362.131,277.28c1.178,0,2.17-0.9,2.17-2.07c0-1.172-0.992-2.077-2.17-2.077c-1.17,0-2.07,0.905-2.07,2.077    C360.061,276.38,360.961,277.28,362.131,277.28L362.131,277.28z M361.773,276.38h-0.541v-2.434h0.992c0.271,0,0.449,0,0.635,0.178    c0.178,0.094,0.357,0.364,0.357,0.635c0,0.266-0.18,0.451-0.451,0.629l0.451,0.992h-0.629l-0.363-0.899h-0.451V276.38    L361.773,276.38z M361.773,275.024h0.357c0.094,0,0.186,0,0.271,0c0.094-0.086,0.186-0.178,0.186-0.266    c0-0.092-0.092-0.271-0.186-0.271c-0.086-0.093-0.178-0.093-0.357-0.093h-0.271V275.024z" style="fill-rule:evenodd;clip-rule:evenodd;fill:#FFFFFF;"/><path d="M196.037,233.636c-0.813,3.341-1.174,5.324-2.255,9.379    c-6.405-2.705-15.06-4.146-21.732,0c-6.313,3.968-8.387,10.191-7.937,17.136c0.453,3.333,2.976,6.58,6.402,7.936    c6.134,2.249,11.904,1.442,18.396-1.897c-0.899,4.24-1.624,7.486-2.434,10.463c-7.755,2.162-15.06,2.884-22.814,0.271    c-6.944-2.435-12.625-8.657-13.074-15.423c-1.535-10.729,3.607-21.818,14.156-26.871    C174.483,230.211,185.663,230.931,196.037,233.636L196.037,233.636z" style="fill-rule:evenodd;clip-rule:evenodd;fill:#FFFFFF;"/><path d="M305.598,272.054c-2.076,2.07-5.502,6.488-14.973,6.488    c-8.561,0-14.063-6.309-10.998-20.561l3.516-16.772h13.164l-3.604,16.772c-1.172,5.681-0.9,10.104,4.867,10.104    c6.852,0,8.928-4.152,10.191-10.104l3.518-16.772h13.162l-5.953,26.964c-0.627,3.154-1.256,6.494-1.621,9.828h-12.354    C304.514,278.001,305.328,273.497,305.598,272.054L305.598,272.054z" style="fill-rule:evenodd;clip-rule:evenodd;fill:#FFFFFF;"/><path d="M328.773,252.842c0,4.689,3.061,7.851,10.006,10.285    c5.41,1.799,6.223,2.341,6.223,4.054c0,2.255-2.434,3.248-7.572,3.248c-3.969,0-7.58-0.357-11.813-1.351    c0,0-1.719,7.573-1.896,8.473c3.697,0.635,10.098,0.991,13.795,0.991c13.889,0,20.291-3.875,20.291-12.261    c0-4.961-2.705-7.937-9.285-10.191c-5.502-1.799-6.131-2.255-6.131-3.969c0-1.984,2.162-2.976,6.488-2.976    c2.525,0,6.129,0.185,9.471,0.542l1.891-8.564c-3.426-0.364-8.656-0.722-11.633-0.722    C333.818,240.401,328.773,246.083,328.773,252.842L328.773,252.842z" style="fill-rule:evenodd;clip-rule:evenodd;fill:#FFFFFF;"/><polygon points="201.626,241.209 214.793,241.209 206.946,278.001     193.782,278.001   " style="fill-rule:evenodd;clip-rule:evenodd;fill:#FFFFFF;"/><path d="M279.449,241.123c-9.742-1.355-12.445,3.426-15.061,5.767    c0.357-1.891,0.9-3.783,0.811-5.681h-12.084c-1.713,11.455-4.778,22.909-7.215,34.271l-0.628,2.521h13.704    c1.623-7.48,3.518-18.757,5.68-22.183c2.168-3.333,5.863-6.131,10.553-4.418L279.449,241.123z" style="fill-rule:evenodd;clip-rule:evenodd;fill:#FFFFFF;"/><path d="M249.508,241.123c-9.646-1.355-12.443,3.426-15.059,5.767    c0.363-1.891,0.902-3.783,0.813-5.681h-12.083c-1.712,11.455-4.781,22.909-7.215,34.271l-0.632,2.521h13.707    c1.623-7.48,3.516-18.757,5.681-22.183c2.255-3.333,5.863-6.131,10.642-4.418L249.508,241.123z" style="fill-rule:evenodd;clip-rule:evenodd;fill:#FFFFFF;"/></g></g><g id="Layer_1"/></svg>