<?xml version="1.0" ?><!DOCTYPE svg  PUBLIC '-//W3C//DTD SVG 1.1//EN'  'http://www.w3.org/Graphics/SVG/1.1/DTD/svg11.dtd'><svg height="512px" style="enable-background:new 0 0 512 512;" version="1.1" viewBox="0 0 512 512" width="512px" xml:space="preserve" xmlns="http://www.w3.org/2000/svg" xmlns:xlink="http://www.w3.org/1999/xlink"><g id="commercial_x2C__cover_x2C__credit_x2C__card_x2C_o"><g><path d="M495.951,389.952c0,8.842-7.215,16.051-16.051,16.051H32.011    c-8.836,0-15.962-7.209-15.962-16.051V122.049c0-8.836,7.126-16.052,15.962-16.052l447.89,0.093    c8.836,0,16.051,7.123,16.051,15.959V389.952z" style="fill-rule:evenodd;clip-rule:evenodd;fill:#9A9FB8;"/><path d="M352.217,302.395c-25.879-0.179-46.982-21.098-46.982-46.619    c0-25.701,21.104-46.527,46.982-46.804h0.18c26.059,0,47.248,21.017,47.248,46.804c0,25.608-21.189,46.619-47.248,46.619H352.217    L352.217,302.395z M352.217,222.317c-18.576,0-33.814,15.065-33.814,33.458c0,18.307,15.238,33.272,33.814,33.272v13.347     M352.217,289.048c18.572,0,33.631-14.966,33.631-33.272c0-18.393-15.059-33.458-33.631-33.458" style="fill-rule:evenodd;clip-rule:evenodd;fill:#FFFFFF;"/><path d="M302.443,209.064c-13.26,11.004-21.643,27.598-21.643,45.99    c0,19.478,9.375,36.878,23.984,47.968h-15.238c-14.52-11.09-23.895-28.398-23.895-47.968c0-18.393,8.475-34.986,21.732-45.99    H302.443L302.443,209.064z" style="fill-rule:evenodd;clip-rule:evenodd;fill:#FFFFFF;"/><path d="M264.117,209.064c-13.164,11.004-21.644,27.598-21.644,45.99    c0,19.478,9.471,36.878,23.899,47.968h-15.06c-14.521-11.09-23.987-28.398-23.987-47.968c0-18.393,8.476-34.986,21.732-45.99    H264.117L264.117,209.064z" style="fill-rule:evenodd;clip-rule:evenodd;fill:#FFFFFF;"/><path d="M225.792,209.064c-13.254,11.004-21.729,27.598-21.729,45.99    c0,19.478,9.468,36.878,24.073,47.968h-15.237c-14.517-11.09-23.896-28.398-23.896-47.968c0-18.393,8.476-34.986,21.732-45.99    H225.792L225.792,209.064z" style="fill-rule:evenodd;clip-rule:evenodd;fill:#FFFFFF;"/><path d="M187.38,209.064c-13.168,11.004-21.643,27.598-21.643,45.99    c0,19.478,9.467,36.878,24.076,47.968h-15.237c-14.521-11.09-23.898-28.398-23.898-47.968c0-18.393,8.386-34.986,21.732-45.99    H187.38L187.38,209.064z" style="fill-rule:evenodd;clip-rule:evenodd;fill:#FFFFFF;"/><path d="M149.054,209.064c-13.253,11.004-21.639,27.598-21.639,45.99    c0,19.478,9.377,36.878,23.983,47.968h-15.237c-14.521-11.09-23.896-28.398-23.896-47.968c0-18.393,8.476-34.986,21.821-45.99    H149.054L149.054,209.064z" style="fill-rule:evenodd;clip-rule:evenodd;fill:#FFFFFF;"/></g></g><g id="Layer_1"/></svg>