<?xml version="1.0" ?><!DOCTYPE svg  PUBLIC '-//W3C//DTD SVG 1.1//EN'  'http://www.w3.org/Graphics/SVG/1.1/DTD/svg11.dtd'><svg enable-background="new 0 0 64 64" height="64px" id="Layer_1" version="1.1" viewBox="0 0 64 64" width="64px" xml:space="preserve" xmlns="http://www.w3.org/2000/svg" xmlns:xlink="http://www.w3.org/1999/xlink"><g id="yuan"><g><g><g><g><g><g><circle cx="32" cy="32" fill="#FFFFFF" r="26.5"/></g></g></g><g><g><g><g><path d="M58,32c0-11.868-7.996-21.897-18.881-25.001C37.462,6.675,35.752,6.5,34,6.5          C19.365,6.5,7.5,18.365,7.5,33c0,7.773,3.348,14.765,8.679,19.612C20.565,55.987,26.051,58,32,58C46.337,58,58,46.337,58,32          z" fill="#FFE57F"/></g></g></g></g><g><g><g><path d="M42.852,7.825C50.99,12.349,56.5,21.029,56.5,31c0,14.635-11.865,26.5-26.5,26.5         c-3.868,0-7.539-0.836-10.852-2.325C22.955,57.291,27.336,58.5,32,58.5c14.635,0,26.5-11.865,26.5-26.5         C58.5,21.233,52.074,11.973,42.852,7.825z" fill="#FFD740"/></g></g></g><g><g><g><path d="M32,59C17.112,59,5,46.888,5,32S17.112,5,32,5s27,12.112,27,27S46.888,59,32,59z M32,6         C17.663,6,6,17.663,6,32s11.663,26,26,26s26-11.663,26-26S46.337,6,32,6z" fill="#37474F"/></g></g></g></g><g><g><g><g><circle cx="32" cy="32" fill="#FFD740" r="22.5"/></g></g></g><g><g><g><path d="M11.5,33c0-12.426,10.074-22.5,22.5-22.5c3.212,0,6.265,0.678,9.029,1.892         C39.77,10.554,36.009,9.5,32,9.5C19.574,9.5,9.5,19.574,9.5,32c0,9.214,5.541,17.129,13.471,20.608         C16.126,48.75,11.5,41.417,11.5,33z" fill="#FFCA28"/></g></g></g><g><g><g><path d="M41.029,11.392C47.874,15.25,52.5,22.583,52.5,31c0,12.426-10.074,22.5-22.5,22.5         c-3.212,0-6.265-0.678-9.029-1.892C24.23,53.446,27.991,54.5,32,54.5c12.426,0,22.5-10.074,22.5-22.5         C54.5,22.786,48.959,14.871,41.029,11.392z" fill="#FFE57F"/></g></g></g><g><g><g><path d="M32,55C19.317,55,9,44.683,9,32S19.317,9,32,9s23,10.317,23,23S44.683,55,32,55z M32,10         c-12.131,0-22,9.869-22,22s9.869,22,22,22s22-9.869,22-22S44.131,10,32,10z" fill="#37474F"/></g></g></g></g></g></g><g><g><g><g><polygon fill="#FFFFFF" points="43.5,19 37.5,19 32,31.389 26.5,19 20.5,19 29,34 22,34 22,37 29,37 29,39 22,39 22,42 29,42        29,49 34,49 34,42 41,42 41,39 34,39 34,37 41,37 41,34 35,34      "/></g></g></g><g><g><g><polygon fill="#FFE57F" points="35.142,34 43.642,19 38.825,19 33,32.121 27.175,19 22.358,19 30.858,34 30,34 24,34 24,36        31,36 31,39 30,39 24,39 24,41 31,41 31,48 35,48 35,42 35,41 42,41 42,39 35,39 35,37 35,36 42,36 42,34 36,34      "/></g></g></g><g><g><g><path d="M35,49h-6v-7h-7v-4h7v-1h-7v-4h6.142l-8.5-15h7.184L32,29.656L37.175,18h7.184l-8.5,15H42v4h-7v1h7v4       h-7V49z M30,48h4v-7h7v-2h-7v-3h7v-2h-6.858l8.5-15h-4.816L32,32.121L26.175,19h-4.816l8.5,15H23v2h7v3h-7v2h7V48z" fill="#37474F"/></g></g></g></g></g></svg>