<?xml version="1.0" ?><!DOCTYPE svg  PUBLIC '-//W3C//DTD SVG 1.1//EN'  'http://www.w3.org/Graphics/SVG/1.1/DTD/svg11.dtd'><svg enable-background="new 0 0 64 64" height="64px" id="Layer_1" version="1.1" viewBox="0 0 64 64" width="64px" xml:space="preserve" xmlns="http://www.w3.org/2000/svg" xmlns:xlink="http://www.w3.org/1999/xlink"><g id="euro"><g><g><g><g><g><g><path d="M32,59C17.112,59,5,46.888,5,32S17.112,5,32,5s27,12.112,27,27S46.888,59,32,59z M32,6         C17.663,6,6,17.663,6,32s11.663,26,26,26s26-11.663,26-26S46.337,6,32,6z" fill="#37474F"/></g></g></g></g><g><g><g><g><path d="M32,55C19.317,55,9,44.683,9,32S19.317,9,32,9s23,10.317,23,23S44.683,55,32,55z M32,10         c-12.131,0-22,9.869-22,22s9.869,22,22,22s22-9.869,22-22S44.131,10,32,10z" fill="#37474F"/></g></g></g></g></g></g><g><g><g><g><path d="M33,48c-6.975,0-13.036-4.404-15.197-11h-4.996l1.333-4h2.895C17.011,32.657,17,32.326,17,32h-4.193       l1.333-4h3.38c1.82-7.086,8.13-12,15.48-12c3.931,0,7.719,1.455,10.666,4.097l0.247,0.221l-1.852,5.384l-0.568-0.689       C39.393,22.462,36.298,21,33,21c-4.572,0-8.606,2.785-10.246,7h18.439l-1.333,4H22c0,0.312,0.018,0.637,0.055,1h17.139       l-1.333,4H23.201c1.871,3.669,5.638,6,9.799,6c3.41,0,6.575-1.554,8.682-4.264l0.247-0.318l4.567,2.188l-0.334,0.481       C43.167,45.416,38.247,48,33,48z M14.193,36h4.347l0.107,0.355C20.577,42.722,26.345,47,33,47       c4.723,0,9.164-2.234,11.996-6.005l-2.778-1.33C39.924,42.425,36.587,44,33,44c-4.819,0-9.154-2.867-11.044-7.304L21.659,36       h15.48l0.667-2H21.171l-0.058-0.436C21.036,32.973,21,32.476,21,32c0-0.12,0.008-0.237,0.016-0.355L21.048,31H39.14l0.667-2       H21.362l0.208-0.652C23.166,23.354,27.76,20,33,20c3.305,0,6.423,1.346,8.685,3.721l1.065-3.098C40.024,18.284,36.575,17,33,17       c-7.016,0-13.02,4.775-14.601,11.612L18.31,29H14.86l-0.667,2h3.85l-0.03,0.741C18.006,31.827,18,31.912,18,32       c0,0.464,0.024,0.938,0.074,1.452L18.127,34H14.86L14.193,36z" fill="#37474F"/></g></g></g></g></g></svg>