<?xml version="1.0" ?><!DOCTYPE svg  PUBLIC '-//W3C//DTD SVG 1.1//EN'  'http://www.w3.org/Graphics/SVG/1.1/DTD/svg11.dtd'><svg height="256px" style="shape-rendering:geometricPrecision; text-rendering:geometricPrecision; image-rendering:optimizeQuality; fill-rule:evenodd; clip-rule:evenodd" version="1.1" viewBox="0 0 256001 256000" width="256px" xml:space="preserve" xmlns="http://www.w3.org/2000/svg" xmlns:xlink="http://www.w3.org/1999/xlink"><defs><style type="text/css">
   <![CDATA[
    .fil1 {fill:none}
    .fil0 {fill:#007EE5}
   ]]>
  </style></defs><g id="Layer_x0020_1"><path class="fil0" d="M52069 99812l-52069 -41699 75307 -49172 52692 43984 -75930 46887 75930 46886 -52692 43987 -75307 -49172 52069 -41701 0 0zm75931 46886l52695 43987 75305 -49172 -52070 -41702 -75930 46887zm128001 -88586l-75306 -49172 -52694 43984 75930 46887 52070 -41699zm-127846 98049l-52848 43855 -22613 -14765 0 16554 75461 45255 75462 -45255 0 -16554 -22610 14765 -52852 -43855z"/></g><rect class="fil1" height="256000" width="256000" x="1"/></svg>