<?xml version="1.0" ?><!DOCTYPE svg  PUBLIC '-//W3C//DTD SVG 1.1//EN'  'http://www.w3.org/Graphics/SVG/1.1/DTD/svg11.dtd'><svg height="256px" style="shape-rendering:geometricPrecision; text-rendering:geometricPrecision; image-rendering:optimizeQuality; fill-rule:evenodd; clip-rule:evenodd" version="1.1" viewBox="0 0 256000 256007" width="256px" xml:space="preserve" xmlns="http://www.w3.org/2000/svg" xmlns:xlink="http://www.w3.org/1999/xlink"><defs><style type="text/css">
   <![CDATA[
    .fil2 {fill:none}
    .fil0 {fill:#5ACF36}
    .fil1 {fill:#FFFFFE}
   ]]>
  </style></defs><g id="Layer_x0020_1"><path class="fil0" d="M171719 124165l0 6516 12326 0c3195,0 5801,2607 5801,5802 0,3199 -2599,5811 -5801,5811l-18137 0c-3202,0 -5800,-2612 -5800,-5811l0 -36249c0,-3196 2603,-5808 5800,-5808l18137 0c3199,0 5801,2610 5801,5808 0,3199 -2599,5809 -5801,5809l-12326 0 0 6514 12326 0c3201,0 5801,2607 5801,5806 0,3198 -2603,5802 -5801,5802l-12326 0zm-43178 -6987l0 19305c0,3207 -2598,5811 -5806,5811 -3206,0 -5807,-2607 -5807,-5811l0 -36249c0,-2502 1600,-4722 3975,-5509 590,-196 1212,-299 1834,-299 1821,0 3567,866 4646,2335l16735 22791 0 -19318c0,-3200 2607,-5808 5807,-5808 3200,0 5806,2607 5806,5808l0 36249c0,2508 -1596,4720 -3976,5511 -593,197 -1211,300 -1836,300 -1821,0 -3566,-863 -4645,-2333l-16733 -22783zm-16449 19305c0,3202 -2596,5811 -5802,5811 -3205,0 -5804,-2607 -5804,-5811l0 -36249c0,-3200 2605,-5808 5804,-5808 3200,0 5802,2610 5802,5808l0 36249zm-32092 -5802l12320 0c3203,0 5807,2597 5807,5802 0,3209 -2598,5811 -5807,5811l-18124 0c-3205,0 -5800,-2608 -5800,-5811l0 -36249c0,-3199 2601,-5808 5800,-5808 3201,0 5804,2608 5804,5808l0 30447z"/><path class="fil0" d="M255989 48376c19,-13277 -5344,-25304 -14031,-34015 -8691,-8714 -20708,-14114 -33992,-14135l0 -11 -8 0 0 11 -159573 -225c-13280,-16 -25311,5349 -34023,14037 -8715,8692 -14116,20710 -14136,33995l-225 159585c-16,13280 5349,25310 14037,34025 8692,8716 20711,14118 33994,14137l159569 226c13283,18 25312,-5347 34025,-14036 8717,-8692 14118,-20714 14139,-34003l224 -159582 11 0 0 -9 -11 0z"/><path class="fil1" d="M194228 62554c-16988,-13787 -40403,-22326 -66188,-22326 -25786,0 -49203,8541 -66193,22326 -17145,13912 -27764,33163 -27764,54431 0,19013 8382,36465 22432,49918 13970,13375 33562,22787 56060,25799 1494,321 3263,826 4601,1575 715,399 1264,833 1443,1275l3 -2c313,789 416,1920 413,3092 -2,1289 -141,2625 -282,3697l-1292 7787 -3 -1 -34 189c-249,1398 -673,3780 220,5901 1250,2969 4297,4802 11449,1792 5943,-2506 23806,-13199 41278,-26113 11798,-8720 23486,-18495 31346,-27529 1220,-1336 2383,-2675 3490,-4018l464 -535 -27 0c4871,-5992 8626,-12057 11302,-18286 3386,-7883 5042,-16003 5042,-24541 0,-21268 -10617,-40519 -27760,-54431zm-73325 32171c590,-196 1212,-299 1834,-299 1821,0 3567,866 4646,2335l16735 22791 0 -19318c0,-3200 2607,-5808 5807,-5808 3200,0 5806,2607 5806,5808l0 36249c0,2508 -1596,4720 -3976,5511 -593,197 -1211,300 -1836,300 -1821,0 -3566,-863 -4645,-2333l-16733 -22783 0 19305c0,3207 -2598,5811 -5806,5811 -3206,0 -5807,-2607 -5807,-5811l0 -36249c0,-2502 1600,-4722 3975,-5509zm39205 41758l0 -36249c0,-3196 2603,-5808 5800,-5808l18137 0c3199,0 5801,2610 5801,5808 0,3199 -2599,5809 -5801,5809l-12326 0 0 6514 12326 0c3201,0 5801,2607 5801,5806 0,3198 -2603,5802 -5801,5802l-12326 0 0 6516 12326 0c3195,0 5801,2607 5801,5802 0,3199 -2599,5811 -5801,5811l-18137 0c-3202,0 -5800,-2612 -5800,-5811zm-59622 0l0 -36249c0,-3200 2605,-5808 5804,-5808 3200,0 5802,2610 5802,5808l0 36249c0,3202 -2596,5811 -5802,5811 -3205,0 -5804,-2607 -5804,-5811zm-20486 -5802l12320 0c3203,0 5807,2597 5807,5802 0,3209 -2598,5811 -5807,5811l-18124 0c-3205,0 -5800,-2608 -5800,-5811l0 -36249c0,-3199 2601,-5808 5800,-5808 3201,0 5804,2608 5804,5808l0 30447z"/></g><rect class="fil2" height="255998" width="255998" x="1" y="5"/></svg>