<?xml version="1.0" ?><!DOCTYPE svg  PUBLIC '-//W3C//DTD SVG 1.1//EN'  'http://www.w3.org/Graphics/SVG/1.1/DTD/svg11.dtd'><svg height="256px" style="shape-rendering:geometricPrecision; text-rendering:geometricPrecision; image-rendering:optimizeQuality; fill-rule:evenodd; clip-rule:evenodd" version="1.1" viewBox="0 0 256000 256002" width="256px" xml:space="preserve" xmlns="http://www.w3.org/2000/svg" xmlns:xlink="http://www.w3.org/1999/xlink"><defs><style type="text/css">
   <![CDATA[
    .fil2 {fill:none}
    .fil0 {fill:#0092C9}
    .fil1 {fill:#FFFFFE}
   ]]>
  </style></defs><g id="Layer_x0020_1"><rect class="fil0" height="256002" rx="37918" ry="37926" width="255948" x="26"/><path class="fil1" d="M133641 65757c-7423,-9677 -15812,-16560 -25484,-19728l-305 -71c-18323,-2929 -34361,-478 -47059,9837 -12580,10218 -21730,28106 -26367,56083l-24 165c-1663,20921 -889,39194 3098,53974 4052,15024 11420,26463 22903,33451l-2 3c17160,11076 32968,13533 47706,9177 13854,-4093 26638,-14213 38619,-28842 5318,9975 11610,17923 19121,23334 8301,5978 18019,8833 29465,7879l589 -149c10031,-4106 16963,-9671 21224,-16376 4576,-7200 6047,-15639 4951,-24943l-212 -1804 -1812 30 -18011 306 -836 14 -576 599c-7159,7427 -13258,9086 -18417,5633 -5580,-3736 -10445,-13004 -14684,-27106l31618 -91536 4 1c1026,-2529 1506,-4733 1228,-6484 -364,-2299 -1760,-3753 -4474,-4125l-274 -16 -25491 158 -1430 9 -462 1341 -17230 50120c-5215,-12022 -10938,-22541 -17376,-30934zm-43966 8623c11555,39 20667,3774 28416,13697 7496,9603 13632,25049 19443,48735l-95 1240c-7190,17521 -15297,28678 -24078,35156 -8958,6609 -18552,8356 -28552,6991l-306 -64c-12995,-3913 -20715,-16043 -24085,-30787 -2189,-9585 -2543,-20290 -1312,-30507 1233,-10247 4064,-20047 8237,-27791 5355,-9940 12949,-16559 22309,-16670l23 0z"/></g><rect class="fil2" height="256000" width="256000" y="1"/></svg>