<?xml version="1.0" ?><!DOCTYPE svg  PUBLIC '-//W3C//DTD SVG 1.1//EN'  'http://www.w3.org/Graphics/SVG/1.1/DTD/svg11.dtd'><svg height="256px" style="shape-rendering:geometricPrecision; text-rendering:geometricPrecision; image-rendering:optimizeQuality; fill-rule:evenodd; clip-rule:evenodd" version="1.1" viewBox="0 0 256000 255998" width="256px" xml:space="preserve" xmlns="http://www.w3.org/2000/svg" xmlns:xlink="http://www.w3.org/1999/xlink"><defs><style type="text/css">
   <![CDATA[
    .fil1 {fill:none}
    .fil0 {fill:#1679BD;fill-rule:nonzero}
   ]]>
  </style></defs><g id="Layer_x0020_1"><path class="fil0" d="M192926 89629c17810,1021 33662,8959 45019,21102 11703,12512 18633,29484 18016,47948 -617,18471 -8664,34946 -21177,46648 -12511,11704 -29484,18635 -47948,18017 -1265,-43 -2537,-122 -3816,-237l-10 0c-1276,-115 -2470,-253 -3582,-413l-120682 0 -2723 0 0 -486c-15774,-1559 -29738,-8968 -39778,-19971 -10552,-11563 -16773,-27102 -16210,-43990 545,-16263 7280,-30855 17864,-41587 10111,-10250 23736,-16985 38836,-18298 781,-18699 8992,-35366 21686,-47239 12808,-11979 30172,-19080 49068,-18472l0 -8 1 0 85 11c16834,562 32043,7135 43634,17586 11232,10128 19076,23904 21717,39389z"/></g><rect class="fil1" height="255998" width="255998" x="1"/></svg>