<?xml version="1.0" ?><!DOCTYPE svg  PUBLIC '-//W3C//DTD SVG 1.1//EN'  'http://www.w3.org/Graphics/SVG/1.1/DTD/svg11.dtd'><svg height="256px" style="shape-rendering:geometricPrecision; text-rendering:geometricPrecision; image-rendering:optimizeQuality; fill-rule:evenodd; clip-rule:evenodd" version="1.1" viewBox="0 0 255999 255998" width="256px" xml:space="preserve" xmlns="http://www.w3.org/2000/svg" xmlns:xlink="http://www.w3.org/1999/xlink"><defs><style type="text/css">
   <![CDATA[
    .fil7 {fill:none}
    .fil0 {fill:#424242}
    .fil3 {fill:#3572B8;fill-rule:nonzero}
    .fil6 {fill:#733D91;fill-rule:nonzero}
    .fil2 {fill:#7A943B;fill-rule:nonzero}
    .fil4 {fill:#B21F17;fill-rule:nonzero}
    .fil5 {fill:#EB6D1D;fill-rule:nonzero}
    .fil1 {fill:#FCB825;fill-rule:nonzero}
   ]]>
  </style></defs><g id="Layer_x0020_1"><g id="_396606384"><polygon class="fil0" points="109634,62742 107608,60857 16301,159223 18327,161110 "/><polygon class="fil0" points="24407,173946 23758,176630 105161,196263 105811,193578 "/><polygon class="fil0" points="228785,103576 226089,102969 215687,148635 218382,149241 "/><polygon class="fil0" points="141683,193431 142732,195983 202461,168980 201412,166429 "/><polygon class="fil0" points="114656,182903 117075,181547 97941,147588 95522,148944 "/><polygon class="fil0" points="101636,131412 102611,134001 213647,92012 212672,89422 "/><polygon class="fil0" points="130171,52424 129423,55091 212177,78520 212924,75853 "/><polygon class="fil0" points="126061,60301 123948,62089 201109,153401 203222,151612 "/><polygon class="fil0" points="218258,98336 216254,96429 133794,182960 135799,184867 "/><polygon class="fil0" points="121134,63902 118354,63902 118354,180972 121134,180972 "/><polygon class="fil0" points="110572,62435 107871,61806 92757,125638 95458,126267 "/><polygon class="fil0" points="21202,161842 22177,164431 79854,142621 78878,140031 "/><path class="fil1" d="M233175 60213c6303,0 12009,2556 16139,6685 4130,4131 6685,9838 6685,16139 0,6302 -2555,12009 -6685,16138 -4130,4131 -9836,6687 -16139,6687 -6302,0 -12008,-2556 -16138,-6687 -4129,-4129 -6685,-9836 -6685,-16138 0,-6301 2556,-12008 6685,-16139 4130,-4129 9836,-6685 16138,-6685z"/><path class="fil2" d="M212077 146555c4003,0 7628,1623 10251,4246 2622,2623 4245,6248 4245,10251 0,4001 -1623,7626 -4245,10249 -2623,2624 -6248,4246 -10251,4246 -4002,0 -7626,-1622 -10249,-4246 -2623,-2623 -4246,-6248 -4246,-10249 0,-4003 1623,-7628 4246,-10251 2623,-2623 6247,-4246 10249,-4246z"/><path class="fil3" d="M123891 179050c5613,0 10692,2275 14370,5953 3678,3678 5953,8758 5953,14371 0,5611 -2275,10692 -5953,14369 -3678,3678 -8757,5952 -14370,5952 -5611,0 -10692,-2274 -14369,-5952 -3678,-3677 -5953,-8758 -5953,-14369 0,-5613 2275,-10693 5953,-14371 3677,-3678 8758,-5953 14369,-5953z"/><path class="fil4" d="M13141 157897c3627,0 6913,1472 9290,3849 2378,2378 3850,5664 3850,9291 0,3628 -1471,6914 -3850,9291 -2377,2378 -5662,3850 -9290,3850 -3628,0 -6914,-1472 -9292,-3850 -2377,-2377 -3849,-5663 -3849,-9291 0,-3627 1472,-6913 3849,-9291 2378,-2377 5664,-3849 9292,-3849z"/><path class="fil5" d="M117029 36302c4003,0 7626,1623 10249,4245 2624,2623 4246,6248 4246,10251 0,4002 -1622,7626 -4246,10249 -2623,2623 -6246,4246 -10249,4246 -4003,0 -7627,-1623 -10250,-4246 -2623,-2623 -4246,-6247 -4246,-10249 0,-4003 1623,-7628 4246,-10251 2623,-2622 6247,-4245 10250,-4245z"/><path class="fil6" d="M90646 123638c3811,0 7262,1545 9760,4043 2498,2498 4044,5950 4044,9762 0,3812 -1546,7264 -4044,9762 -2498,2498 -5949,4044 -9760,4044 -3813,0 -7264,-1546 -9762,-4044 -2498,-2498 -4044,-5950 -4044,-9762 0,-3812 1546,-7264 4044,-9762 2498,-2498 5949,-4043 9762,-4043z"/></g></g><rect class="fil7" height="255998" width="255998" x="1"/></svg>