<?xml version="1.0" ?><!DOCTYPE svg  PUBLIC '-//W3C//DTD SVG 1.1//EN'  'http://www.w3.org/Graphics/SVG/1.1/DTD/svg11.dtd'><svg height="256px" style="shape-rendering:geometricPrecision; text-rendering:geometricPrecision; image-rendering:optimizeQuality; fill-rule:evenodd; clip-rule:evenodd" version="1.1" viewBox="0 0 256000 256000" width="256px" xml:space="preserve" xmlns="http://www.w3.org/2000/svg" xmlns:xlink="http://www.w3.org/1999/xlink"><defs><style type="text/css">
   <![CDATA[
    .fil2 {fill:none}
    .fil0 {fill:#F7323F}
    .fil1 {fill:#FF671B}
   ]]>
  </style></defs><g id="Layer_x0020_1"><g id="_396618504"><polygon class="fil0" points="232422,256000 218130,211999 255545,184812 209297,184812 195001,140811 180712,184812 134454,184812 171870,211999 157581,256000 195001,228806 "/><path class="fil1" d="M161137 215485c-7872,-5713 -54774,-39801 -54774,-39801 0,0 57980,0 67714,0 3010,-9259 20919,-64411 20919,-64411 0,0 17926,55152 20934,64411 4727,0 20836,0 36157,0l-57086 -175684 -45923 141361 -148623 0 149366 108973c4780,-14703 9846,-30305 11316,-34849z"/></g></g><rect class="fil2" height="256000" width="256000"/></svg>