<?xml version="1.0" ?><svg enable-background="new 0 0 64 64" height="64px" version="1.1" viewBox="0 0 64 64" width="64px" xml:space="preserve" xmlns="http://www.w3.org/2000/svg" xmlns:xlink="http://www.w3.org/1999/xlink"><g id="Guide"/><g id="Layer_1"><g><path d="M50.5335197,57.4368477H13.4664812c-2.052556,0-3.7164812-1.6639252-3.7164812-3.7164803v-27.854147    c0-2.0525551,1.6639252-3.7164803,3.7164812-3.7164803h37.0670395c2.0525551,0,3.7164803,1.6639252,3.7164803,3.7164803v27.854147    C54.25,55.7729225,52.5860748,57.4368477,50.5335197,57.4368477z" fill="#FFCE7B"/><path d="M54.25,43.965168H36.1718712C33.8678093,43.965168,32,42.0973587,32,39.7932968v-0.0000076    c0-2.3040581,1.8678093-4.1718712,4.1718712-4.1718712H54.25V43.965168z" fill="#BF9B5C"/><circle cx="36.5847168" cy="39.793293" fill="#FFCE7B" r="2.064209"/><polygon fill="#7BBF66" points="51.2949219,15.8339844 11.7779951,18.9918613 11.7779951,22.1497402 51.2949219,22.1497402   "/><polygon fill="#5C8F4D" points="47.4707031,9.6920576 11.7779951,18.9918613 47.4707031,16.1395855   "/><polygon fill="#5C8F4D" points="38.6489258,6.5631509 11.7779951,18.9918613 38.6489258,11.9905882   "/></g></g></svg>