<?xml version="1.0" ?><svg enable-background="new 0 0 64 64" height="64px" version="1.1" viewBox="0 0 64 64" width="64px" xml:space="preserve" xmlns="http://www.w3.org/2000/svg" xmlns:xlink="http://www.w3.org/1999/xlink"><g id="Guide"/><g id="Layer_1"><g><path d="M38.6470108,30.8037167l-4.6503639-4.6503658l3.5286674-3.5286694    c0.6194954-0.6194954,1.6238976-0.6194954,2.2433929,0l3.5286713,3.5286694L38.6470108,30.8037167z" fill="#A4FF88"/><rect fill="#7BBF66" height="6.5766106" transform="matrix(0.7071068 0.7071068 -0.7071068 0.7071068 34.4630241 -21.5936699)" width="6.5766106" x="40.0090714" y="27.5154114"/><path d="M47.9477425,40.1044502l-4.6503639-4.6503677l4.6503639-4.6503658l3.5286713,3.5286694    c0.6194954,0.6194954,0.6194954,1.6238976,0,2.2433929L47.9477425,40.1044502z" fill="#A4FF88"/><polygon fill="#7BBF66" points="38.6481895,30.7987804 36.6549339,32.8054276 31.9995422,28.1500359 33.9927979,26.1567822   "/><path d="M43.3036613,35.4542542l-4.6554718,4.6553879l-1.9932556-1.9932518l1.5250702-1.5384598    c0.6153984-0.6153221,0.6153984-1.6320343,0-2.2474327l-1.5250702-1.5250702l1.9932556-2.0066471L43.3036613,35.4542542z" fill="#A4FF88"/><rect fill="#7BBF66" height="6.5766106" transform="matrix(0.7071068 0.7071068 -0.7071068 0.7071068 41.0396347 -18.8695488)" width="6.5766106" x="40.0090714" y="36.816143"/><polygon fill="#7BBF66" points="38.6481895,40.109642 33.9927979,44.7516441 31.9995422,42.7583885 34.6482887,40.109642     36.6549339,38.1163902   "/><rect fill="#A4FF88" height="6.5766106" transform="matrix(0.7071068 0.7071068 -0.7071068 0.7071068 42.9658813 -14.219182)" width="6.5766106" x="35.3587074" y="41.4665108"/><polygon fill="#7BBF66" points="46.2418289,57 38.6470108,49.4051819 43.2973785,44.7548141 50.8921967,52.3496323     46.4638329,52.5716362   "/><rect fill="#7BBF66" height="6.5766106" transform="matrix(0.7071068 -0.7071068 0.7071068 0.7071068 -23.6503906 39.0607262)" width="2.8253467" x="33.9125977" y="44.7906036"/><path d="M25.3529873,30.8037167l-4.6503658-4.6503658l3.5286713-3.5286694    c0.6194954-0.6194954,1.6238956-0.6194954,2.243391,0l3.5286713,3.5286694L25.3529873,30.8037167z" fill="#A4FF88"/><polygon fill="#7BBF66" points="34.6482887,30.7987804 31.9995422,33.4609985 30.0062885,35.4542542 25.3508167,30.7987804     30.0062885,26.1567822   "/><path d="M38.1800041,36.5779305l-1.5250702,1.5384598l-2.0066452,1.9932518l-2.6487465-2.6621361    l-1.9932537-1.9932518l1.9932537-1.9932556l2.6487465-2.6622181l3.5317154,3.5317173    C38.7954025,34.9458961,38.7954025,35.9626083,38.1800041,36.5779305z" fill="#A4FF88"/><rect fill="#7BBF66" height="6.5766106" transform="matrix(0.7071068 0.7071068 -0.7071068 0.7071068 27.8451748 -5.6167645)" width="6.5766106" x="17.4143162" y="27.5154114"/><polygon fill="#A4FF88" points="30.0062885,35.4542542 27.3574619,38.1163902 25.3508167,40.109642 20.7088165,35.4542542     25.3508167,30.7987804   "/><polygon fill="#7BBF66" points="34.6482887,40.109642 30.0062885,44.7516441 25.3508167,40.109642 27.3574619,38.1163902     30.0062885,35.4542542 31.9995422,37.447506   "/><path d="M16.0522556,40.1044502l-3.5286694-3.5286713c-0.6194954-0.6194954-0.6194954-1.6238976,0-2.2433929    l3.5286694-3.5286694l4.6503658,4.6503658L16.0522556,40.1044502z" fill="#A4FF88"/><rect fill="#7BBF66" height="6.5766106" transform="matrix(0.7071068 0.7071068 -0.7071068 0.7071068 34.4217873 -2.8926435)" width="6.5766106" x="17.4143162" y="36.816143"/><rect fill="#A4FF88" height="6.5766106" transform="matrix(0.7071068 0.7071068 -0.7071068 0.7071068 39.0721512 -4.8188882)" width="6.5766106" x="22.064682" y="41.4665108"/><polygon fill="#7BBF66" points="32.9478073,57 25.3529873,49.4051819 30.003355,44.7548141 37.5981712,52.3496323     33.1698112,52.5716362   "/><polygon fill="#7BBF66" points="13.1078033,52.3496323 20.7026215,44.7548141 25.3529873,49.4051819 17.7581692,57     17.5361671,52.5716362   "/><path d="M38.6474609,22.6601562c-0.1928711,0-0.3759766-0.1118164-0.4584961-0.2993164L32,8.2451172    l-6.1889648,14.1157227c-0.1113281,0.2524414-0.4047852,0.3657227-0.6586914,0.2573242    c-0.2529297-0.1108398-0.3681641-0.4057617-0.2573242-0.6586914l6.6469727-15.1601562    c0.1591797-0.3642578,0.7568359-0.3642578,0.9160156,0l6.6469727,15.1601562    c0.1108398,0.2529297-0.0043945,0.5478516-0.2573242,0.6586914    C38.7822266,22.6464844,38.7143555,22.6601562,38.6474609,22.6601562z" fill="#7BBF66"/></g></g></svg>