<?xml version="1.0" ?><svg enable-background="new 0 0 64 64" height="64px" version="1.1" viewBox="0 0 64 64" width="64px" xml:space="preserve" xmlns="http://www.w3.org/2000/svg" xmlns:xlink="http://www.w3.org/1999/xlink"><g id="Guide"/><g id="Layer_1"><g><path d="M47.8798866,17.3166161c-1.3912697-1.3152428-3.6521568-1.0543823-5.3804474-0.2500458    c-1.9347458,0.9130726-3.5543022,2.3587437-5.1412811,3.7826538c-1.3695755,1.2282658-2.782608,2.5543213-3.3152046,4.304306    c0,0-0.0541344,0.041729-0.1515923,0.1183548c-0.2308731,1.3249931-0.67099,2.5759487-1.5984573,3.5229225    c-0.6956024,0.7174282-1.608675,1.1739311-2.3804398,1.8043842c-1.0108604,0.815218-1.7825565,1.923933-2.2064857,3.1521358    c-0.1521912,0.4674492-0.27174,0.9565239-0.5869999,1.3370018c-0.184763,0.2282181-0.4021683,0.3804054-0.6630268,0.4999542    c-0.5978127,0.2500458-1.358696,0.2282867-2.0217228,0.0869751c-0.1474133-0.0305176-0.2948933-0.0695267-0.4423065-0.106411    c0.3443832,0.4511948,1.2640915,0.808979,3.0062466,1.1284866c0.0086918-0.1010399,0.0195713-0.1827736,0.0339012-0.2177353    c0.0434551-0.1086693,0.0977879-0.2065239,0.1738834-0.2934341c0.3043804-0.4130478,0.815218-0.7283096,1.1848125-1.0435028    c1.3912697-1.1630516,2.8695145-2.3043404,4.7282333-2.5760803c1.336937-0.1956444,2.7282715,0.0869751,4.0326347-0.2826195    c1.2717171-0.3695946,2.4130096-1.336937,3.7282524-1.2065067c0.7173615,0.0652142,1.358696,0.4673843,1.9999619,0.8260975    h0.0000648c1.2065086-0.9999809,2.2064896-2.2825813,2.9021568-3.7065582    c0.5543594-1.1412907,0.9565277-2.402132,1.8369598-3.3260841c0.456501-0.4890785,1.0543137-0.8804321,1.315239-1.4891262    c0.1847649-0.4021683,0.1956444-0.8586712,0.206459-1.3042946C49.1842499,20.3818398,49.1190338,18.4796658,47.8798866,17.3166161    z" fill="#BF9B5C"/><path d="M45.947197,27.8346977c-0.0550652,0.1207428-0.1074753,0.2436104-0.1651268,0.3622971    c-0.6956673,1.4239769-1.6956482,2.7065773-2.9021568,3.7065582h-0.0000648    c-0.6412659-0.3587132-1.2826004-0.7608833-1.9999619-0.8260975c-1.3152428-0.1304302-2.4565353,0.8369122-3.7282524,1.2065067    c-1.3043633,0.3695946-2.6956978,0.0869751-4.0326347,0.2826195c-1.8587189,0.27174-3.3369637,1.4130287-4.7282333,2.5760803    c-0.3695946,0.3151932-0.8804321,0.630455-1.1848125,1.0435028c-0.0760956,0.0869102-0.1304283,0.1847649-0.1738834,0.2934341    c-0.0143299,0.0349617-0.0252094,0.1166954-0.0339012,0.2177353c-1.7421551-0.3195076-2.6618633-0.6772919-3.0062466-1.1284866    c0.1474133,0.0368843,0.2948933,0.0758934,0.4423065,0.106411c-0.9456482-0.1956406-1.8912945-0.5760498-2.8478222-0.456501    c-0.728241,0.0977898-1.5000057,0.4673843-2.1413383,0.1195488c-0.3369541-0.1847649-0.5542927-0.5325966-0.7391224-0.8695526    c-1.1086502-1.9021721-2.2391281-4.1087265-1.5434589-6.1847839c0.0230865-0.0674038,0.0544662-0.1314907,0.0809364-0.1975689    C11.0345564,30.0831127,7,33.3056374,7,36.9431992c0,6.0608559,11.192852,10.9741211,25,10.9741211    c13.8070793,0,25-4.9132652,25-10.9741211C57,33.1494675,52.6140938,29.8056679,45.947197,27.8346977z" fill="#C6C6C6"/><path d="M34.3147049,19.3600521c-0.0544014,1.0760765-0.1087341,2.1630325-0.1630707,3.2391739    c-0.1086693,2.2064877-0.3151932,4.619566-1.8587189,6.1956005c-0.6956024,0.7174282-1.608675,1.1739311-2.3804379,1.8043842    c-1.0108604,0.815218-1.7825584,1.923933-2.2064877,3.1521358c-0.1521893,0.4674492-0.2717381,0.9565239-0.586998,1.3370018    c-0.1847649,0.2282181-0.4021683,0.3804054-0.6630287,0.4999542c-0.5978127,0.2500458-1.3586941,0.2282867-2.0217228,0.0869751    c-0.9456463-0.1956444-1.8912926-0.5760498-2.8478203-0.456501c-0.7282429,0.0977898-1.5000057,0.4673843-2.1413383,0.1195488    c-0.3369541-0.1847649-0.5542927-0.5325966-0.7391224-0.8695526c-1.1086502-1.9021721-2.2391281-4.1087265-1.5434608-6.1847839    c0.4348106-1.2717209,1.5217667-2.2825832,1.7826252-3.6087036c0.2608585-1.3912697-0.4456902-2.8152466-0.2500458-4.2282772    c0.1957111-1.3478165,1.2282677-2.445652,2.4348392-3.0869198c3.2064686-1.7174101,8.6630116-1.630435,11.913002-0.1739502    c0.4239273,0.1956444,0.8478584,0.4239292,1.0760765,0.815218C34.3472786,18.4035244,34.3363991,18.9035473,34.3147049,19.3600521    z" fill="#FFCE7B"/><path d="M20.8632812,29.4716797c-0.0175781,0-0.0351562-0.0009766-0.0537109-0.0029297    c-0.2744141-0.0288086-0.4736328-0.2749023-0.4443359-0.5493164l0.3896484-3.7075195    C20.7851562,24.9287109,20.8232422,24.5776367,21,24.2548828c0.2626953-0.4790039,0.7177734-0.7177734,1.1191406-0.9282227    c0.0878906-0.0463867,0.1757812-0.0927734,0.2607422-0.1411133c0.8925781-0.5112305,1.5761719-1.7202148,1.171875-2.7041016    c-0.1044922-0.2558594,0.0175781-0.5478516,0.2734375-0.6523438c0.2529297-0.1044922,0.546875,0.0166016,0.6523438,0.2724609    c0.6298828,1.5375977-0.3183594,3.2167969-1.5996094,3.9511719c-0.0957031,0.0546875-0.1943359,0.1069336-0.2939453,0.1591797    c-0.3027344,0.1591797-0.5888672,0.309082-0.7070312,0.5244141c-0.0810547,0.1479492-0.1044922,0.3681641-0.1279297,0.5810547    l-0.3896484,3.706543C21.3330078,29.2807617,21.1152344,29.4716797,20.8632812,29.4716797z" fill="#BF9B5C"/><path d="M24.6972656,31.5327148c-0.09375,0-0.1875-0.0258789-0.2714844-0.0800781    c-0.2314453-0.1494141-0.2988281-0.4589844-0.1484375-0.690918L25.65625,28.628418    c0.2832031-0.4384766,0.6367188-0.984375,1.1982422-1.3120117c0.1396484-0.081543,0.2871094-0.1459961,0.4355469-0.2089844    c0.1220703-0.0522461,0.2451172-0.1020508,0.3564453-0.1728516c0.4082031-0.2587891,0.5888672-0.7949219,0.6679688-1.199707    c0.0498047-0.2592773,0.0771484-0.5229492,0.1035156-0.7861328c0.0361328-0.3457031,0.0722656-0.690918,0.1503906-1.0288086    c0.1728516-0.7563477,0.5410156-1.4580078,1.0644531-2.0297852c0.1884766-0.203125,0.5048828-0.2163086,0.7070312-0.0307617    c0.203125,0.1865234,0.2177734,0.5029297,0.03125,0.706543c-0.4072266,0.4438477-0.6933594,0.9892578-0.828125,1.5776367    c-0.0683594,0.2983398-0.0986328,0.6030273-0.1298828,0.9072266c-0.0302734,0.293457-0.0615234,0.5869141-0.1181641,0.8759766    c-0.1669922,0.8564453-0.5517578,1.4970703-1.1132812,1.8525391c-0.1572266,0.0996094-0.328125,0.1748047-0.4990234,0.2480469    c-0.1103516,0.046875-0.2207031,0.0922852-0.3242188,0.152832c-0.3554688,0.2070312-0.625,0.6235352-0.8623047,0.9912109    l-1.3789062,2.1323242C25.0214844,31.4521484,24.8613281,31.5327148,24.6972656,31.5327148z" fill="#BF9B5C"/><path d="M49.0646477,37.0230942c-0.2173386,1.1848106-1.3151779,1.989151-2.4021339,2.5108681    c-1.0108604,0.4891434-2.0978165,0.8369789-3.2065353,0.923954c-0.8695488,0.0652122-1.7499809-0.0326424-2.5869598,0.184761    c-0.7825775,0.2174072-1.4782448,0.7065506-2.2608871,0.9238892c-0.9130096,0.250042-1.8912964,0.1196136-2.8369408-0.0108147    c-1.2391472-0.1739502-2.4782295-0.3587151-3.7173729-0.5326653c-0.380476-0.0543327-0.7826443-0.1086693-1.0978374-0.3369522    c-0.293499-0.2065239-0.4782639-0.5326004-0.7173634-0.8043404c-0.6739731-0.8260956-1.7935047-1.2717171-2.8586998-1.1412888    c-0.4348087,0.0543327-0.4456902-2.0217247-0.3478336-2.2608871c0.0434532-0.1086693,0.0977879-0.2065277,0.1738834-0.2934341    c0.3043785-0.4130478,0.815218-0.7283096,1.1848106-1.0435028c1.3912716-1.1630516,2.8695164-2.3043442,4.7282333-2.5760803    c1.336937-0.1956444,2.7282715,0.0869751,4.0326347-0.2826195c1.2717209-0.3695946,2.4130096-1.336937,3.7282524-1.2065067    c0.7173615,0.0652142,1.358696,0.4673824,1.9999619,0.8260975c0.1087379,0.0652142,0.2282867,0.1304283,0.336956,0.1847649    c1.2391472,0.6304512,2.6413612,0.9130058,3.8478661,1.5869789    C48.2711906,34.3600388,49.3146896,35.6643982,49.0646477,37.0230942z" fill="#FFCE7B"/><path d="M33.2666016,36.715332c-0.1455078,0-0.2910156-0.0634766-0.3896484-0.1865234    c-0.1728516-0.2148438-0.1386719-0.5297852,0.0761719-0.7026367c0.9726562-0.7836914,2.1953125-1.2363281,3.4433594-1.2749023    c0.4960938-0.0063477,1.1064453,0.1523438,1.4453125,0.5576172c0.0390625,0.0458984,0.0732422,0.0942383,0.1025391,0.144043    c1.6201172-0.3642578,3.2802734-0.487793,4.9414062-0.3637695c0.2753906,0.0205078,0.4824219,0.2602539,0.4619141,0.5356445    s-0.2626953,0.4794922-0.5361328,0.4614258c-1.7265625-0.1298828-3.4462891,0.0253906-5.1171875,0.4560547l-0.7802734,0.2006836    l0.1660156-0.7880859c-0.0361328-0.0732422-0.3652344-0.2089844-0.6523438-0.2041016    c-1.0322266,0.0322266-2.0429688,0.40625-2.8476562,1.0541992C33.4882812,36.6791992,33.3769531,36.715332,33.2666016,36.715332z" fill="#BF9B5C"/><path d="M37.0136719,39.1474609c-0.2158203,0-0.4140625-0.1401367-0.4794922-0.3569336    c-0.0791016-0.2646484,0.0712891-0.5429688,0.3359375-0.6220703c1.1708984-0.3496094,2.375-0.6323242,3.578125-0.8393555    c0.3808594-0.0649414,0.7841797-0.1162109,1.1875,0.0380859c0.09375,0.0366211,0.1835938,0.0834961,0.2724609,0.1318359    c0.0693359,0.0380859,0.1347656,0.0737305,0.1787109,0.0849609c0.1621094,0.0424805,0.3769531-0.1621094,0.6796875-0.4799805    c0.3505859-0.3681641,0.7871094-0.8261719,1.4160156-0.8505859c0.0068359-0.0004883,0.0136719-0.0004883,0.0195312-0.0004883    c0.2675781,0,0.4892578,0.2114258,0.5,0.4804688c0.0107422,0.2758789-0.2050781,0.5083008-0.4804688,0.519043    c-0.2236328,0.0087891-0.4814453,0.2792969-0.7304688,0.5415039c-0.3828125,0.4023438-0.9091797,0.9511719-1.6572266,0.7578125    c-0.1621094-0.0424805-0.2958984-0.1157227-0.4042969-0.1743164c-0.0498047-0.0273438-0.0996094-0.0561523-0.1533203-0.0766602    c-0.1660156-0.0654297-0.40625-0.0302734-0.6582031,0.0136719c-1.1640625,0.2006836-2.3291016,0.4736328-3.4609375,0.8120117    C37.109375,39.140625,37.0605469,39.1474609,37.0136719,39.1474609z" fill="#BF9B5C"/><path d="M36.0029297,28.9130859c-0.0048828,0-0.0107422,0-0.015625-0.0004883    c-0.2763672-0.0083008-0.4931641-0.2392578-0.484375-0.515625c0.0498047-1.5625,0.9101562-3.0395508,2.2441406-3.8540039    c0.1982422-0.1210938,0.40625-0.2275391,0.6142578-0.3334961c0.3203125-0.1625977,0.6220703-0.3164062,0.8652344-0.5224609    c0.0908203-0.0771484,0.1767578-0.1630859,0.2636719-0.2490234c0.2402344-0.2387695,0.5117188-0.5097656,0.8974609-0.6547852    c0.1572266-0.0595703,0.3242188-0.0908203,0.4912109-0.1196289c0.0976562-0.0166016,0.1962891-0.03125,0.2900391-0.0634766    c0.3378906-0.1162109,0.5839844-0.4936523,0.8447266-0.8935547l0.1396484-0.2114258    c0.5703125-0.847168,1.3027344-1.2441406,2-1.0878906c0.2695312,0.0600586,0.4394531,0.3271484,0.3798828,0.5966797    c-0.0595703,0.269043-0.3222656,0.4438477-0.5966797,0.3789062c-0.3251953-0.065918-0.703125,0.3007812-0.953125,0.6708984    l-0.1318359,0.199707c-0.3261719,0.4990234-0.6953125,1.0644531-1.3574219,1.2924805    c-0.1455078,0.0498047-0.2958984,0.0776367-0.4462891,0.1035156c-0.1044922,0.0175781-0.2089844,0.0322266-0.3076172,0.0698242    c-0.1845703,0.0693359-0.3515625,0.2353516-0.5449219,0.4277344c-0.1054688,0.1044922-0.2109375,0.2084961-0.3222656,0.3032227    c-0.3320312,0.28125-0.7011719,0.4692383-1.0576172,0.6503906c-0.1855469,0.0942383-0.3701172,0.1879883-0.546875,0.2958984    c-1.0341797,0.6313477-1.7275391,1.8212891-1.765625,3.0327148C36.4941406,28.699707,36.2724609,28.9130859,36.0029297,28.9130859    z" fill="#8F7445"/><path d="M39.7041016,29.7529297c-0.0361328,0-0.0712891-0.003418-0.1074219-0.0112305    c-0.2695312-0.059082-0.4404297-0.3251953-0.3818359-0.5952148c0.1845703-0.8500977,0.7119141-1.6079102,1.4462891-2.0786133    c0.2333984-0.1494141,0.4941406-0.2763672,0.7539062-0.4013672c0.5263672-0.2529297,0.9804688-0.4711914,1.1171875-0.8623047    c0.0898438-0.2602539,0.375-0.3984375,0.6367188-0.3071289c0.2607422,0.0913086,0.3984375,0.3764648,0.3066406,0.637207    c-0.2734375,0.7827148-0.9921875,1.128418-1.6269531,1.4331055c-0.2236328,0.1074219-0.4482422,0.2143555-0.6484375,0.3422852    c-0.5039062,0.3237305-0.8818359,0.8652344-1.0087891,1.449707C40.140625,29.5932617,39.9335938,29.7529297,39.7041016,29.7529297    z" fill="#8F7445"/></g></g></svg>