<?xml version="1.0" ?><svg enable-background="new 0 0 64 64" height="64px" version="1.1" viewBox="0 0 64 64" width="64px" xml:space="preserve" xmlns="http://www.w3.org/2000/svg" xmlns:xlink="http://www.w3.org/1999/xlink"><g id="Guide"/><g id="Layer_1"><g><path d="M32.9970703,54.2314453c-0.1660156,0-0.3286133-0.0825195-0.4233398-0.2333984l-8.8198242-14.0024414    c-0.1474609-0.2338867-0.0771484-0.5424805,0.15625-0.6894531c0.2353516-0.1469727,0.5429688-0.0771484,0.6894531,0.15625    l8.8198242,14.0024414c0.1474609,0.2338867,0.0771484,0.5424805-0.15625,0.6894531    C33.1801758,54.206543,33.0878906,54.2314453,32.9970703,54.2314453z" fill="#6B6B6B"/><ellipse cx="24.7014542" cy="28.1876965" fill="#B29D83" rx="7.2687564" ry="11.5415268"/><path d="M57,28.1876965c0,6.3712711-3.2488289,11.5415249-7.2687569,11.5415249h-25.029789    c4.0072765,0,7.2687569-5.1702538,7.2687569-11.5415249c0-6.3711967-3.2614803-11.5415287-7.2687569-11.5415287h25.029789    C53.7511711,16.6461678,57,21.8164997,57,28.1876965z" fill="#A4FF88"/><path d="M48.577301,28.1876965c0,6.3712711-3.2488289,11.5415249-7.2687569,11.5415249h-8.184391    c4.0072746,0,7.2687569-5.1702538,7.2687569-11.5415249c0-6.3711967-3.2614822-11.5415287-7.2687569-11.5415287h8.184391    C45.3284721,16.6461678,48.577301,21.8164997,48.577301,28.1876965z" fill="#7BBF66"/><path d="M22.4619141,54.2314453c-0.0913086,0-0.1831055-0.0249023-0.2661133-0.0771484    c-0.2333984-0.1469727-0.3037109-0.4555664-0.15625-0.6894531l14.5375977-23.0786133    c0.1474609-0.2333984,0.4560547-0.3032227,0.6894531-0.15625s0.3037109,0.4555664,0.15625,0.6894531L22.8852539,53.9980469    C22.7905273,54.1489258,22.6279297,54.2314453,22.4619141,54.2314453z" fill="#6B6B6B"/><path d="M49.9038086,54.2314453c-0.1660156,0-0.3286133-0.0825195-0.4233398-0.2333984l-8.8203125-14.0024414    c-0.1474609-0.2338867-0.0771484-0.5424805,0.15625-0.6894531c0.2353516-0.1464844,0.5429688-0.0771484,0.6894531,0.15625    l8.8203125,14.0024414c0.1474609,0.2338867,0.0771484,0.5424805-0.15625,0.6894531    C50.0869141,54.206543,49.9951172,54.2314453,49.9038086,54.2314453z" fill="#6B6B6B"/><path d="M39.3681641,54.2314453c-0.0913086,0-0.1831055-0.0249023-0.2661133-0.0771484    c-0.2333984-0.1469727-0.3037109-0.4555664-0.15625-0.6894531l14.5375977-23.0786133    c0.1474609-0.2333984,0.456543-0.3032227,0.6894531-0.15625c0.2333984,0.1469727,0.3037109,0.4555664,0.15625,0.6894531    L39.7915039,53.9980469C39.6967773,54.1489258,39.5341797,54.2314453,39.3681641,54.2314453z" fill="#6B6B6B"/><path d="M12.9604492,39.0629883c-0.2290039,0-0.4355469-0.1582031-0.487793-0.3916016L9.3330078,24.5576172    c-0.0595703-0.2695312,0.1103516-0.5366211,0.3798828-0.5966797c0.2705078-0.0551758,0.5361328,0.109375,0.5966797,0.3798828    l3.1396484,14.1137695c0.0595703,0.2695312-0.1103516,0.5366211-0.3798828,0.5966797    C13.0327148,39.059082,12.996582,39.0629883,12.9604492,39.0629883z" fill="#6B6B6B"/><path d="M17.9228516,43.9165039c-0.0444336,0-0.0888672-0.0058594-0.1333008-0.0180664    c-0.2661133-0.0732422-0.4228516-0.3486328-0.3491211-0.6147461l3.8447266-13.9379883    c0.0732422-0.2666016,0.3515625-0.4194336,0.6147461-0.3491211c0.2661133,0.0732422,0.4228516,0.3486328,0.3491211,0.6147461    l-3.8447266,13.9379883C18.3432617,43.7709961,18.1420898,43.9165039,17.9228516,43.9165039z" fill="#6B6B6B"/><path d="M19.1933594,16.1411133c-0.1640625,0-0.324707-0.0805664-0.4204102-0.2285156l-3.4760742-5.3725586    c-0.1499023-0.2319336-0.0834961-0.5415039,0.1484375-0.6914062c0.2314453-0.1494141,0.5410156-0.0834961,0.6914062,0.1484375    l3.4760742,5.3725586c0.1499023,0.2319336,0.0834961,0.5415039-0.1484375,0.6914062    C19.3803711,16.1152344,19.2866211,16.1411133,19.1933594,16.1411133z" fill="#6B6B6B"/><path d="M15.3999023,17.1459961c-0.1069336,0-0.2148438-0.0341797-0.3056641-0.1049805l-5.5791016-4.3232422    c-0.2182617-0.1689453-0.2583008-0.4829102-0.0888672-0.7011719c0.168457-0.2177734,0.4838867-0.2578125,0.7011719-0.0888672    l5.5791016,4.3232422c0.2182617,0.1689453,0.2583008,0.4829102,0.0888672,0.7011719    C15.6972656,17.0795898,15.5493164,17.1459961,15.3999023,17.1459961z" fill="#6B6B6B"/><circle cx="9.3180714" cy="22.1870346" fill="#E0D8CD" r="2.3175745"/><circle cx="22.3832951" cy="27.2442265" fill="#E0D8CD" r="2.3175745"/></g></g></svg>