<?xml version="1.0" ?><svg enable-background="new 0 0 64 64" height="64px" version="1.1" viewBox="0 0 64 64" width="64px" xml:space="preserve" xmlns="http://www.w3.org/2000/svg" xmlns:xlink="http://www.w3.org/1999/xlink"><g id="Guide"/><g id="Layer_1"><g><path d="M57,27.712204v20.961689h-5.612648c0-2.6293488-2.1241913-4.7534599-4.7404938-4.7534599    c-2.6293449,0-4.7534561,2.1241112-4.7534561,4.7534599H23.7990475c0-2.6293488-2.1241894-4.7534599-4.7404938-4.7534599    c-2.6293468,0-4.7535372,2.1241112-4.7535372,4.7534599H7V34.1285248c0-5.200491,4.2158308-9.4163208,9.4163208-9.4163208H54    C55.6568527,24.712204,57,26.0553493,57,27.712204z" fill="#8FC1FF"/><path d="M23.7990475,48.673893c0,2.6293449-2.1241894,4.7534561-4.7404938,4.7534561    c-2.6293468,0-4.7535372-2.1241112-4.7535372-4.7534561c0-2.6293488,2.1241903-4.7534599,4.7535372-4.7534599    C21.6748581,43.920433,23.7990475,46.0445442,23.7990475,48.673893z" fill="#666666"/><path d="M51.387352,48.673893c0,2.6293449-2.1241913,4.7534561-4.7404938,4.7534561    c-2.6293449,0-4.7534561-2.1241112-4.7534561-4.7534561c0-2.6293488,2.1241112-4.7534599,4.7534561-4.7534599    C49.2631607,43.920433,51.387352,46.0445442,51.387352,48.673893z" fill="#666666"/><rect fill="#A4FF88" height="6.1523252" width="18.6728458" x="20.7336636" y="18.5598793"/><rect fill="#F2DB5C" height="10.9014883" width="9.4983263" x="39.4065094" y="13.8107157"/><rect fill="#B29D83" height="7.9872289" width="9.3364229" x="30.0700855" y="10.57265"/><path d="M19.0520325,38.0409775h-7.825326v-5.6015244c0-2.4196968,1.9615507-4.3812485,4.3812466-4.3812485    h3.4440794V38.0409775z" fill="#6B91BF"/><rect fill="#6B91BF" height="5.9904218" width="5.9904218" x="22.6225338" y="28.0582047"/><rect fill="#6B91BF" height="5.9904218" width="5.9904218" x="32.8527069" y="28.0582047"/><rect fill="#6B91BF" height="5.9904218" width="5.9904218" x="43.0828781" y="28.0582047"/></g></g></svg>