<?xml version="1.0" ?><svg height="60px" version="1.1" viewBox="0 0 60 60" width="60px" xmlns="http://www.w3.org/2000/svg" xmlns:xlink="http://www.w3.org/1999/xlink"><title/><desc/><defs><linearGradient id="linearGradient-1" x1="21.2012857%" x2="78.7987143%" y1="-0.39775%" y2="100.39775%"><stop offset="0%" stop-color="#D4E1F4"/><stop offset="17.173%" stop-color="#D4E1F4"/><stop offset="20%" stop-color="#D4E1F4"/><stop offset="20.014%" stop-color="#DAE4F4"/><stop offset="20.069%" stop-color="#EBEBF4"/><stop offset="20.136%" stop-color="#F6F1F4"/><stop offset="20.231%" stop-color="#FDF4F4"/><stop offset="20.495%" stop-color="#FFF5F4"/><stop offset="25.222%" stop-color="#FFF5F4"/><stop offset="26%" stop-color="#FFF5F4"/><stop offset="26%" stop-color="#D4E1F4"/><stop offset="39.739%" stop-color="#D4E1F4"/><stop offset="42%" stop-color="#D4E1F4"/><stop offset="42.014%" stop-color="#DAE4F4"/><stop offset="42.069%" stop-color="#EBEBF4"/><stop offset="42.136%" stop-color="#F6F1F4"/><stop offset="42.231%" stop-color="#FDF4F4"/><stop offset="42.495%" stop-color="#FFF5F4"/><stop offset="48.939%" stop-color="#FFF5F4"/><stop offset="50%" stop-color="#FFF5F4"/><stop offset="50.003%" stop-color="#F9F2F4"/><stop offset="50.014%" stop-color="#E8EBF4"/><stop offset="50.028%" stop-color="#DDE5F4"/><stop offset="50.047%" stop-color="#D6E2F4"/><stop offset="50.1%" stop-color="#D4E1F4"/><stop offset="70.622%" stop-color="#D4E1F4"/><stop offset="74%" stop-color="#D4E1F4"/><stop offset="74.1%" stop-color="#FFF5F4"/><stop offset="83.459%" stop-color="#FFF5F4"/><stop offset="85%" stop-color="#FFF5F4"/><stop offset="85.1%" stop-color="#D4E1F4"/></linearGradient></defs><g fill="none" fill-rule="evenodd" id="Page-1" stroke="none" stroke-width="1"><g id="027---Reindeer"><g id="Colour"><path d="M38.88,18.6616 L40.66,15.30132 C41.0163918,14.6469582 41.7049206,14.2428072 42.45,14.25063 L56.87,14.25063 C57.8490292,14.2889684 58.7192638,13.6315731 58.95,12.67935 C59.1004931,11.7329663 58.5211723,10.8230679 57.6,10.559 C57.2197043,10.4298321 56.9655236,10.0708481 56.97,9.66924 L56.97,2.996 C56.9682862,1.91215202 56.1041247,1.02660541 55.0206423,0.998402369 C53.93716,0.970199324 53.0280984,1.80958893 52.97,2.89188 L52.97,9.51784 C52.9408105,10.0487971 52.5017589,10.4643747 51.97,10.4643747 C51.4382411,10.4643747 50.9991895,10.0487971 50.97,9.51784 L50.97,2.996 C50.9682862,1.91215202 50.1041247,1.02660541 49.0206423,0.998402369 C47.93716,0.970199324 47.0280984,1.80958893 46.97,2.89188 L46.97,9.51784 C46.9408105,10.0487971 46.5017589,10.4643747 45.97,10.4643747 C45.4382411,10.4643747 44.9991895,10.0487971 44.97,9.51784 L44.97,2.996 C44.9682862,1.91215202 44.1041247,1.02660541 43.0206423,0.998402369 C41.93716,0.970199324 41.0280984,1.80958893 40.97,2.89188 L40.97,9.95325 C40.9711301,10.3463444 40.7218203,10.69652 40.35,10.82409 C38.9486015,11.3071179 37.7809078,12.3008752 37.08,13.607 L35.23,17.09981 C35.22,17.12821 35.2,17.14714 35.2,17.17553 L38.88,18.6616 Z" fill="#E3E7F2" fill-rule="nonzero" id="Shape"/><path d="M24.75,17.185 C24.74,17.1566 24.72,17.12821 24.71,17.09981 L22.87,13.607 C22.1690863,12.3008865 21.0013934,11.3071406 19.6,10.82412 C19.2234635,10.7010499 18.969079,10.3494178 18.97,9.95328 L18.97,2.89192 C18.95117,2.31834234 18.6823844,1.78170151 18.2343227,1.42311176 C17.786261,1.06452202 17.2037624,0.919868834 16.64,1.02719 C15.6750132,1.18365517 14.9669461,2.0184155 14.97,2.996 L14.97,9.5178 C14.9408105,10.0487571 14.5017589,10.4643347 13.97,10.4643347 C13.4382411,10.4643347 12.9991895,10.0487571 12.97,9.5178 L12.97,2.89192 C12.95117,2.31834234 12.6823844,1.78170151 12.2343227,1.42311176 C11.786261,1.06452202 11.2037624,0.919868834 10.64,1.02719 C9.67501325,1.18365517 8.96694607,2.0184155 8.97,2.996 L8.97,9.5178 C8.94081049,10.0487571 8.50175886,10.4643347 7.97,10.4643347 C7.43824114,10.4643347 6.99918951,10.0487571 6.97,9.5178 L6.97,2.89192 C6.95116997,2.31834234 6.68238437,1.78170151 6.23432266,1.42311176 C5.78626096,1.06452202 5.20376242,0.919868834 4.64,1.02719 C3.67501325,1.18365517 2.96694607,2.0184155 2.97,2.996 L2.97,9.66929 C2.97873292,10.0691218 2.72811612,10.4287812 2.35,10.55905 C1.42616001,10.8195067 0.845126391,11.7320738 1,12.67935 C1.2279871,13.6333742 2.09998972,14.2921051 3.08,14.25063 L17.5,14.25063 C18.2450794,14.2428072 18.9336082,14.6469582 19.29,15.30132 L21.08,18.69 L24.75,17.185 Z" fill="#E3E7F2" fill-rule="nonzero" id="Shape"/><path d="M52,45.5 C51.9772457,47.3802015 51.3880443,49.2098466 50.30934,50.75 C50.24092,50.85 50.1725,50.95 50.10409,51.04 L50.04545,51 C49.762148,49.7949983 49.3560932,48.6222043 48.83365,47.5 C48.5454349,48.6613162 48.0523318,49.7618946 47.37752,50.75 C46.1579906,52.4870372 44.5904515,53.9513905 42.77452,55.05 C40.6522451,56.3513255 38.3460764,57.3255859 35.93361,57.94 C33.6787823,58.5351858 31.3646609,58.8772961 29.03407,58.96 C28.73112,58.95 28.42817,58.93 28.12521,58.91 C27.82226,58.9 27.51931,58.87 27.22614,58.84 C26.51269,58.78 25.81887,58.69 25.12498,58.57 C24.78298,58.51995 24.44088,58.45995 24.10864,58.39 C23.80569,58.33 23.51246,58.27 23.21929,58.2 C22.84792,58.12 22.48629,58.03 22.13453,57.94 C19.7220636,57.3255859 17.4158949,56.3513255 15.29362,55.05 C14.83427,54.76 14.40433,54.46 13.98405,54.14 C13.82771,54.0199533 13.6713533,53.8999533 13.51498,53.78 C13.27066,53.58 13.03612,53.38 12.81137,53.17 C12.62568,53 12.44978,52.83 12.27382,52.66 C12.13705,52.52 12.00021,52.38 11.87316,52.24 C11.5251328,51.8586646 11.1988594,51.4580301 10.89589,51.04 C10.82748,50.95 10.75906,50.85 10.69064,50.75 C8.43642592,47.6129629 8.43642592,43.3870371 10.69064,40.25 C11.9101721,38.5129651 13.4777106,37.0486123 15.29364,35.95 C16.3996985,35.2600215 17.563802,34.6677795 18.77273,34.18 L18.77273,25 C18.7483124,22.9022887 19.5583656,20.8808262 21.0246243,19.3804682 C22.4908829,17.8801101 24.4931917,17.0238062 26.59091,17 L34.40909,17 C36.5068083,17.0238062 38.5091171,17.8801101 39.9753757,19.3804682 C41.4416344,20.8808262 42.2516876,22.9022887 42.22727,25 L42.22727,34.18 C43.436198,34.6677795 44.6003015,35.2600215 45.70636,35.95 C47.5222894,37.0486123 49.0898279,38.5129651 50.30936,40.25 C51.3880572,41.7901557 51.9772516,43.6198006 52,45.5 Z" fill="#A4C2F7" id="Shape"/><path d="M49,45.5 C49.0009249,46.1738017 48.9209255,46.8452762 48.76172,47.5 C48.467939,48.6634461 47.9667924,49.7643909 47.28233,50.75 C46.0382045,52.4918223 44.4457004,53.9561094 42.60581,55.05 C40.4454295,56.3530964 38.1029921,57.3271179 35.65561,57.94 C33.3633625,58.5353913 31.0126999,58.8774385 28.64583,58.96 C28.33804,58.95 28.03025,58.93 27.72246,58.91 C27.41466,58.9 27.10687,58.87 26.80902,58.84 C26.08417,58.78 25.37926,58.69 24.67429,58.57 C24.3268,58.51995 23.97929,58.45995 23.64171,58.39 C23.33392,58.33 23.036,58.27 22.73815,58.2 C22.36085,58.12 21.99348,58.03 21.63606,57.94 C19.1886779,57.3271179 16.8462405,56.3530964 14.68586,55.05 C14.21917,54.76 13.78236,54.46 13.35536,54.14 C13.1965267,54.0199533 13.0376733,53.8999533 12.8788,53.78 C12.63057,53.58 12.39229,53.38 12.16395,53.17 C11.9753,53 11.79658,52.83 11.61781,52.66 C11.47881,52.52 11.33981,52.38 11.21075,52.24 C10.8574543,51.8590183 10.5259661,51.4583799 10.21787,51.04 C10.14836,50.95 10.07887,50.85 10.00934,50.75 C7.71911387,47.6246526 7.71911387,43.3753474 10.00934,40.25 C11.2534629,38.5081754 12.8459675,37.0438878 14.68586,35.95 C15.8109321,35.259345 16.9935493,34.6671447 18.22053,34.18 L18.22053,25 C18.2124239,22.8856456 19.0448625,20.85473 20.5346015,19.3543174 C22.0243405,17.8539048 24.0492616,17.0069886 26.16362,17 L31.12805,17 C33.2424084,17.0069886 35.2673295,17.8539048 36.7570685,19.3543174 C38.2468075,20.85473 39.0792461,22.8856456 39.07114,25 L39.07114,34.18 C40.2981207,34.6671447 41.4807379,35.259345 42.60581,35.95 C44.4457004,37.0438906 46.0382045,38.5081777 47.28233,40.25 C48.3763296,41.7841625 48.9756233,43.6158834 49,45.5 Z" fill="#E3E7F2" id="Shape"/><ellipse cx="25" cy="26.5" fill="#E3E7F2" fill-rule="nonzero" id="Oval" rx="3" ry="3.5"/><ellipse cx="35" cy="26.5" fill="#E3E7F2" fill-rule="nonzero" id="Oval" rx="3" ry="3.5"/><path d="M50.06,51.04 C49.92,51.23 49.78,51.41 49.63,51.6 C49.58,51.66 49.54,51.71 49.49,51.76 C49.35,51.92 49.21,52.07995 49.06,52.24 C48.93,52.38 48.79,52.52 48.65,52.66 C48.47,52.83 48.29,53 48.1,53.17 C47.87,53.38 47.63,53.58 47.38,53.78 C47.22,53.9 47.06,54.02 46.9,54.14 C46.47,54.46 46.03,54.76 45.56,55.05 C43.3822636,56.3538818 41.0233007,57.3277965 38.56,57.94 C35.7626291,58.6520752 32.8865667,59.0082231 30,59 C29.49,59 28.99,58.99 28.5,58.96 C30.8834014,58.8775017 33.2507124,58.5354822 35.56,57.94 C38.0233007,57.3277965 40.3822636,56.3538818 42.56,55.05 C44.4107825,53.9582292 46.0146497,52.4939768 47.27,50.75 C47.9588514,49.7655331 48.4636684,48.6644222 48.76,47.5 C49.2939441,48.6203618 49.7095276,49.7933797 50,51 L50.06,51.04 Z" fill="#A4C2F7" id="Shape"/><path d="M48.76,47.5 C48.4636684,48.6644222 47.9588514,49.7655331 47.27,50.75 C46.0146497,52.4939768 44.4107825,53.9582292 42.56,55.05 C40.3822636,56.3538818 38.0233007,57.3277965 35.56,57.94 C33.2507124,58.5354822 30.8834014,58.8775017 28.5,58.96 C28.19,58.95 27.88,58.93 27.57,58.91 C27.26,58.9 26.95,58.87 26.65,58.84 C25.92,58.78 25.21,58.69 24.5,58.57 C24.15,58.51995 23.8,58.45995 23.46,58.39 C23.15,58.33 22.85,58.27 22.55,58.2 C22.17,58.12 21.8,58.03 21.44,57.94 C18.9766993,57.3277965 16.6177364,56.3538818 14.44,55.05 C13.97,54.76 13.53,54.46 13.1,54.14 C12.94,54.0199533 12.78,53.8999533 12.62,53.78 C12.37,53.58 12.13,53.38 11.9,53.17 C11.71,53 11.53,52.83 11.35,52.66 C11.21,52.52 11.07,52.38 10.94,52.24 C10.5843058,51.8591762 10.2504392,51.4585362 9.94,51.04 L10,51 C13,39 23,41 23,41 L37,41 C41.9434261,40.2323878 46.7801805,42.9057639 48.76,47.5 Z" fill="#E3E7F2" id="Shape"/><ellipse cx="30" cy="52.5" fill="#A4C2F7" fill-rule="nonzero" id="Oval" rx="5" ry="3.5"/><ellipse cx="30" cy="40" fill="url(#linearGradient-1)" fill-rule="nonzero" id="Oval" rx="7" ry="4"/><ellipse cx="31.7" cy="39.6" fill="#A4C2F7" fill-rule="nonzero" id="Oval" rx="1.5" ry="1"/><circle cx="25" cy="27" fill="#A4C2F7" fill-rule="nonzero" id="Oval" r="1"/><circle cx="35" cy="27" fill="#A4C2F7" fill-rule="nonzero" id="Oval" r="1"/><path d="M58.95,12.68 C58.7199133,13.6324773 57.8490653,14.2898001 56.87,14.25 L53.89,14.25 C54.8690815,14.2898517 55.7399585,13.632507 55.97,12.68 C56.1232061,11.7331366 55.542794,10.8216746 54.62,10.56 C54.2387788,10.4319331 53.9840753,10.072114 53.99,9.67 L53.99,3 C53.9898039,2.50113645 53.8045119,2.02009005 53.47,1.65 C53.9393057,1.1459122 54.6313244,0.912731974 55.31,1.03 C56.271948,1.19005898 56.9753689,2.02484151 56.97,3 L56.97,9.67 C56.9640976,10.072107 57.2187927,10.4319144 57.6,10.56 C58.522768,10.8217095 59.1031635,11.7331454 58.95,12.68 L58.95,12.68 Z" fill="#A4C2F7" fill-rule="nonzero" id="Shape"/><path d="M1.02549,12.67845 C1.2555767,13.6309273 2.12642467,14.2882501 3.10549,14.24845 L6.08549,14.24845 C5.1064073,14.2883057 4.23552802,13.6309593 4.00549,12.67845 C3.85228389,11.7315866 4.432696,10.8201246 5.35549,10.55845 C5.73671522,10.4303885 5.99142107,10.0705659 5.98549,9.66845 L5.98549,2.99845 C5.98568231,2.49958574 6.17097476,2.01853802 6.50549,1.64845 C6.03618023,1.14436854 5.344165,0.911189493 4.66549,1.02845 C3.70354196,1.18850898 3.00012115,2.02329151 3.00549,2.99845 L3.00549,9.66845 C3.01139235,10.070557 2.75669727,10.4303644 2.37549,10.55845 C1.45274509,10.8201905 0.872364379,11.7316032 1.02549,12.67845 Z" fill="#FFFFFF" fill-rule="nonzero" id="Shape"/><path d="M8,45.5 C8.02514287,47.3859176 8.62905079,49.2185862 9.73,50.75 C9.8,50.85 9.87,50.95 9.94,51.04 C10.08,51.23 10.22,51.41 10.37,51.6 C10.42,51.66 10.46,51.71 10.51,51.76 C10.65,51.92 10.79,52.07995 10.94,52.24 C11.07,52.38 11.21,52.52 11.35,52.66 C11.53,52.83 11.71,53 11.9,53.17 C12.13,53.38 12.37,53.58 12.62,53.78 C12.78,53.9 12.94,54.02 13.1,54.14 C13.53,54.46 13.97,54.76 14.44,55.05 C16.6177364,56.3538818 18.9766993,57.3277965 21.44,57.94 C24.2373709,58.6520752 27.1134333,59.0082231 30,59 C30.51,59 31.01,58.99 31.5,58.96 C29.1165986,58.8775017 26.7492876,58.5354822 24.44,57.94 C21.9766993,57.3277965 19.6177364,56.3538818 17.44,55.05 C15.5892175,53.9582292 13.9853503,52.4939768 12.73,50.75 C12.0411486,49.7655331 11.5363316,48.6644222 11.24,47.5 C11.0796689,46.8454457 10.9990839,46.1739039 11,45.5 C11.0251429,43.6140824 11.6290508,41.7814138 12.73,40.25 C13.9853503,38.5060232 15.5892175,37.0417708 17.44,35.95 C18.5737367,35.2590451 19.764791,34.6668636 21,34.18 L21,25 C20.9994109,22.8780875 21.8420765,20.842914 23.3424952,19.3424952 C24.842914,17.8420765 26.8780875,16.9994109 29,17 L26,17 C23.8780875,16.9994109 21.842914,17.8420765 20.3424952,19.3424952 C18.8420765,20.842914 17.9994109,22.8780875 18,25 L18,34.18 C16.764791,34.6668636 15.5737367,35.2590451 14.44,35.95 C12.5892175,37.0417708 10.9853503,38.5060232 9.73,40.25 C8.62905079,41.7814138 8.02514287,43.6140824 8,45.5 L8,45.5 Z" fill="#FFFFFF" id="Shape"/></g><g id="Outline"><path d="M18.58,22 C19.804778,18.9781757 22.7394015,17.0006667 26,17 L34,17 C36.1219108,16.9994162 38.1570813,17.8420835 39.6574989,19.3425011 C41.1579165,20.8429187 42.0005838,22.8780892 42,25 L42,34.18" id="Shape" stroke="#428DFF" stroke-linecap="round" stroke-linejoin="round" stroke-width="2"/><path d="M18,34.18 L18,30" id="Shape" stroke="#428DFF" stroke-linecap="round" stroke-linejoin="round" stroke-width="2"/><path d="M38.56339,33.0609 C41.0239003,33.6763954 43.380232,34.6512623 45.55639,35.95406 C47.4083234,37.0423186 49.013867,38.503595 50.27117,40.24519 C52.5763284,43.3691901 52.5763284,47.6308099 50.27117,50.75481 C49.013867,52.496405 47.4083234,53.9576814 45.55639,55.04594 C43.380232,56.3487377 41.0239003,57.3236046 38.56339,57.9391 C32.9420851,59.3536332 27.0579149,59.3536332 21.43661,57.9391 C18.9760997,57.3236046 16.619768,56.3487377 14.44361,55.04594 C12.5916766,53.9576814 10.986133,52.496405 9.72883,50.75481 C7.42367156,47.6308099 7.42367156,43.3691901 9.72883,40.24519 C10.986133,38.503595 12.5916766,37.0423186 14.44361,35.95406 C16.619768,34.6512623 18.9760997,33.6763954 21.43661,33.0609" id="Shape" stroke="#428DFF" stroke-linecap="round" stroke-linejoin="round" stroke-width="2"/><ellipse cx="30" cy="40" id="Oval" rx="7" ry="4" stroke="#428DFF" stroke-linecap="round" stroke-linejoin="round" stroke-width="2"/><ellipse cx="25" cy="26.5" id="Oval" rx="3" ry="3.5" stroke="#428DFF" stroke-linecap="round" stroke-linejoin="round"/><ellipse cx="35" cy="26.5" id="Oval" rx="3" ry="3.5" stroke="#428DFF" stroke-linecap="round" stroke-linejoin="round"/><path d="M25,7 C29,10 30,17 30,17 C30,17 30,12 34,10" id="Shape" stroke="#428DFF" stroke-linecap="round" stroke-linejoin="round" stroke-width="2"/><circle cx="25" cy="27" id="Oval" r="1" stroke="#428DFF" stroke-linecap="round" stroke-linejoin="round"/><circle cx="35" cy="27" id="Oval" r="1" stroke="#428DFF" stroke-linecap="round" stroke-linejoin="round"/><ellipse cx="31.7" cy="39.5" id="Oval" rx="1.5" ry="1" stroke="#428DFF" stroke-linecap="round" stroke-linejoin="round"/><path d="M23,41 C23,41 13,39 10,51" id="Shape" stroke="#428DFF" stroke-linecap="round" stroke-linejoin="round"/><path d="M37,41 C37,41 47,39 50,51" id="Shape" stroke="#428DFF" stroke-linecap="round" stroke-linejoin="round"/><path d="M25,20 C24.232065,20.0726427 23.5188752,20.4292376 23,21" id="Shape" stroke="#428DFF" stroke-linecap="round" stroke-linejoin="round" stroke-width="2"/><path d="M35,20 C35.767935,20.0726427 36.4811248,20.4292376 37,21" id="Shape" stroke="#428DFF" stroke-linecap="round" stroke-linejoin="round" stroke-width="2"/><path d="M38.88,18.6616 L40.66,15.30132 C41.0163918,14.6469582 41.7049206,14.2428072 42.45,14.25063 L56.87,14.25063 C57.8490292,14.2889684 58.7192638,13.6315731 58.95,12.67935 C59.1004931,11.7329663 58.5211723,10.8230679 57.6,10.559 C57.2197043,10.4298321 56.9655236,10.0708481 56.97,9.66924 L56.97,2.996 C56.9682862,1.91215202 56.1041247,1.02660541 55.0206423,0.998402369 C53.93716,0.970199324 53.0280984,1.80958893 52.97,2.89188 L52.97,9.51784 C52.9408105,10.0487971 52.5017589,10.4643747 51.97,10.4643747 C51.4382411,10.4643747 50.9991895,10.0487971 50.97,9.51784 L50.97,2.996 C50.9682862,1.91215202 50.1041247,1.02660541 49.0206423,0.998402369 C47.93716,0.970199324 47.0280984,1.80958893 46.97,2.89188 L46.97,9.51784 C46.9408105,10.0487971 46.5017589,10.4643747 45.97,10.4643747 C45.4382411,10.4643747 44.9991895,10.0487971 44.97,9.51784 L44.97,2.996 C44.9682862,1.91215202 44.1041247,1.02660541 43.0206423,0.998402369 C41.93716,0.970199324 41.0280984,1.80958893 40.97,2.89188 L40.97,9.95325 C40.9711301,10.3463444 40.7218203,10.69652 40.35,10.82409 C38.9486015,11.3071179 37.7809078,12.3008752 37.08,13.607 L35.23,17.09981 C35.22,17.12821 35.2,17.14714 35.2,17.17553" id="Shape" stroke="#428DFF" stroke-linejoin="round" stroke-width="2"/><path d="M24.75,17.185 C24.74,17.1566 24.72,17.12821 24.71,17.09981 L22.87,13.607 C22.1690863,12.3008865 21.0013934,11.3071406 19.6,10.82412 C19.2234635,10.7010499 18.969079,10.3494178 18.97,9.95328 L18.97,2.89192 C18.95117,2.31834234 18.6823844,1.78170151 18.2343227,1.42311176 C17.786261,1.06452202 17.2037624,0.919868834 16.64,1.02719 C15.6750132,1.18365517 14.9669461,2.0184155 14.97,2.996 L14.97,9.5178 C14.9408105,10.0487571 14.5017589,10.4643347 13.97,10.4643347 C13.4382411,10.4643347 12.9991895,10.0487571 12.97,9.5178 L12.97,2.89192 C12.95117,2.31834234 12.6823844,1.78170151 12.2343227,1.42311176 C11.786261,1.06452202 11.2037624,0.919868834 10.64,1.02719 C9.67501325,1.18365517 8.96694607,2.0184155 8.97,2.996 L8.97,9.5178 C8.94081049,10.0487571 8.50175886,10.4643347 7.97,10.4643347 C7.43824114,10.4643347 6.99918951,10.0487571 6.97,9.5178 L6.97,2.89192 C6.95116997,2.31834234 6.68238437,1.78170151 6.23432266,1.42311176 C5.78626096,1.06452202 5.20376242,0.919868834 4.64,1.02719 C3.67501325,1.18365517 2.96694607,2.0184155 2.97,2.996 L2.97,9.66929 C2.97873292,10.0691218 2.72811612,10.4287812 2.35,10.55905 C1.42616001,10.8195067 0.845126391,11.7320738 1,12.67935 C1.2279871,13.6333742 2.09998972,14.2921051 3.08,14.25063 L17.5,14.25063 C18.2450794,14.2428072 18.9336082,14.6469582 19.29,15.30132 L21.08,18.69" id="Shape" stroke="#428DFF" stroke-linejoin="round" stroke-width="2"/><ellipse cx="30" cy="52.5" id="Oval" rx="5" ry="3.5" stroke="#428DFF" stroke-linecap="round" stroke-linejoin="round" stroke-width="2"/><circle cx="18" cy="26" fill="#428DFF" fill-rule="nonzero" id="Oval" r="1"/></g></g></g></svg>