<?xml version="1.0" ?><svg height="60px" version="1.1" viewBox="0 0 60 60" width="60px" xmlns="http://www.w3.org/2000/svg" xmlns:xlink="http://www.w3.org/1999/xlink"><title/><desc/><defs/><g fill="none" fill-rule="evenodd" id="Page-1" stroke="none" stroke-width="1"><g id="024---Mince-Pie" transform="translate(1.000000, 1.000000)"><g id="Colour"><ellipse cx="31" cy="29" fill="#A4C2F7" fill-rule="nonzero" id="Oval" rx="27" ry="29"/><ellipse cx="27" cy="29" fill="#FFFFFF" fill-rule="nonzero" id="Oval" rx="27" ry="29"/><ellipse cx="29" cy="29" fill="#E3E7F2" fill-rule="nonzero" id="Oval" rx="26" ry="29"/><circle cx="29" cy="29" fill="#A4C2F7" fill-rule="nonzero" id="Oval" r="23"/><ellipse cx="27.5" cy="29" fill="#E3E7F2" fill-rule="nonzero" id="Oval" rx="21.5" ry="23"/><polygon fill="#E3E7F2" id="Shape" points="28.99 6 35.746 19.643 50.854 21.831 39.922 32.45 42.503 47.445 28.99 40.365 15.477 47.445 18.057 32.45 7.125 21.831 22.233 19.643"/><path d="M29,0 C12.9837423,-2.66453526e-15 -2.44249065e-15,12.9837423 -4.4408921e-15,29 C-6.43929354e-15,45.0162577 12.9837423,58 29,58 C45.0162577,58 58,45.0162577 58,29 C58.0012787,21.3083299 54.946341,13.9313234 49.5075088,8.4924912 C44.0686766,3.05365901 36.6916701,-0.00127872745 29,0 Z M29,52 C16.2974508,52 6,41.7025492 6,29 C6,16.2974508 16.2974508,6 29,6 C41.7025492,6 52,16.2974508 52,29 C51.9840498,41.6959366 41.6959366,51.9840498 29,52 Z" id="Shape" stroke="#F58D6D"/></g><g id="Outline" stroke="#428DFF" stroke-linecap="round" stroke-linejoin="round"><circle cx="29" cy="29" id="Oval" r="29" stroke-width="2"/><circle cx="29" cy="29" id="Oval" r="23" stroke-width="2"/><path d="M29,0 C30.6568542,2.46890521e-08 32,1.34314577 32,3 C32,4.65685423 30.6568542,5.99999998 29,6" id="Shape"/><path d="M29,52 C27.3431458,52 26,53.3431458 26,55 C26,56.6568542 27.3431458,58 29,58" id="Shape"/><path d="M23.9642,0.44058 C25.0204599,0.252759271 26.0966189,0.643275783 26.7866158,1.46477798 C27.4766126,2.28628018 27.6754096,3.41371147 27.3079956,4.42166409 C26.9405817,5.42961671 26.0628879,6.16465088 25.00609,6.34942" id="Shape"/><path d="M32.99391,51.65058 C31.9371121,51.8353491 31.0594183,52.5703833 30.6920044,53.5783359 C30.3245904,54.5862885 30.5233874,55.7137198 31.2133842,56.535222 C31.9033811,57.3567242 32.9795401,57.7472407 34.0358,57.55942" id="Shape"/><path d="M19.08142,1.74891 C20.6383549,1.18223274 22.3598827,1.98499514 22.92656,3.54193002 C23.4932372,5.09886489 22.6904749,6.82039269 21.13354,7.38707" id="Shape"/><path d="M36.86646,50.61293 C35.3095251,51.1796073 34.5067627,52.9011351 35.07344,54.45807 C35.6401173,56.0150049 37.3616451,56.8177673 38.91858,56.25109" id="Shape"/><path d="M14.5,3.88526 C15.4282046,3.3493616 16.5717994,3.34936231 17.5000033,3.88526186 C18.4282072,4.42116142 19.000004,5.41154393 19.0000033,6.48334189 C19.0000026,7.55513984 18.4282046,8.54552162 17.5,9.08142" id="Shape"/><path d="M40.5,48.91858 C39.5717954,49.4544784 38.9999974,50.4448602 38.9999967,51.5166581 C38.999996,52.588456 39.5717928,53.5788385 40.4999967,54.1147381 C41.4282006,54.6506377 42.5717954,54.6506384 43.5,54.11474" id="Shape"/><path d="M10.35916,6.78471 C11.6283904,5.71970618 13.5206612,5.88526456 14.585665,7.154495 C15.6506688,8.42372544 15.4851104,10.3159962 14.21588,11.381" id="Shape"/><path d="M43.78412,46.619 C42.9623344,47.3077197 42.5705971,48.3826689 42.756575,49.4386418 C42.9425528,50.4946146 43.6779677,51.3710499 44.6856025,51.7375723 C45.6932372,52.1040946 46.8198804,51.9049742 47.64084,51.21527" id="Shape"/><path d="M6.78471,10.35916 C7.47364667,9.53811187 8.54827437,9.14697545 9.60379125,9.33308805 C10.6593081,9.51920064 11.535356,10.2542873 11.9019362,11.261448 C12.2685164,12.2686088 12.0699367,13.3948319 11.381,14.21588" id="Shape"/><path d="M46.619,43.78412 C45.5552077,45.0534451 45.7212429,46.9446855 46.9899303,48.0092382 C48.2586176,49.0737909 50.1499572,48.9088892 51.21527,47.64084" id="Shape"/><path d="M3.88526,14.5 C4.42115838,13.5717954 5.41154016,12.9999974 6.48333811,12.9999967 C7.55513607,12.999996 8.54551858,13.5717928 9.08141814,14.4999967 C9.61731769,15.4282006 9.6173184,16.5717954 9.08142,17.5" id="Shape"/><path d="M48.91858,40.5 C48.0901529,41.93488 48.58178,43.7696529 50.01666,44.59808 C51.45154,45.4265071 53.2863129,44.93488 54.11474,43.5" id="Shape"/><path d="M1.74891,19.08142 C2.31558731,17.5244851 4.03711511,16.7217228 5.59404998,17.2884 C7.15098486,17.8550773 7.95374726,19.5766051 7.38707,21.13354" id="Shape"/><path d="M50.61293,36.86646 C50.2463541,37.8736203 50.4449376,38.9998407 51.133876,39.8208849 C51.8228144,40.6419291 52.8974416,41.033061 53.952956,40.8469449 C55.0084703,40.6608288 55.8845141,39.9257403 56.25109,38.91858" id="Shape"/><path d="M0.44058,23.9642 C0.625349116,22.9074021 1.36038329,22.0297083 2.36833591,21.6622944 C3.37628853,21.2948804 4.50371982,21.4936774 5.32522202,22.1836742 C6.14672422,22.8736711 6.53724073,23.9498301 6.34942,25.00609" id="Shape"/><path d="M51.65058,32.99391 C51.4627593,34.0501699 51.8532758,35.1263289 52.674778,35.8163258 C53.4962802,36.5063226 54.6237115,36.7051196 55.6316641,36.3377056 C56.6396167,35.9702917 57.3746509,35.0925979 57.55942,34.0358" id="Shape"/><path d="M0,29 C2.46890521e-08,27.3431458 1.34314577,26 3,26 C4.65685423,26 5.99999998,27.3431458 6,29" id="Shape"/><path d="M52,29 C52,30.6568542 53.3431458,32 55,32 C56.6568542,32 58,30.6568542 58,29" id="Shape"/><path d="M0.44058,34.0358 C0.252759271,32.9795401 0.643275783,31.9033811 1.46477798,31.2133842 C2.28628018,30.5233874 3.41371147,30.3245904 4.42166409,30.6920044 C5.42961671,31.0594183 6.16465088,31.9371121 6.34942,32.99391" id="Shape"/><path d="M51.65058,25.00609 C51.8353491,26.0628879 52.5703833,26.9405817 53.5783359,27.3079956 C54.5862885,27.6754096 55.7137198,27.4766126 56.535222,26.7866158 C57.3567242,26.0966189 57.7472407,25.0204599 57.55942,23.9642" id="Shape"/><path d="M1.74891,38.91858 C1.18223271,37.3616451 1.98499511,35.6401173 3.54193,35.07344 C5.09886489,34.5067627 6.82039271,35.3095251 7.38707,36.86646" id="Shape"/><path d="M50.61293,21.13354 C50.9795059,22.1407003 51.8555497,22.8757888 52.911064,23.0619049 C53.9665784,23.248021 55.0412056,22.8568891 55.730144,22.0358449 C56.4190824,21.2148007 56.6176659,20.0885803 56.25109,19.08142" id="Shape"/><path d="M3.88526,43.5 C3.3493616,42.5717954 3.34936231,41.4282006 3.88526186,40.4999967 C4.42116142,39.5717928 5.41154393,38.999996 6.48334189,38.9999967 C7.55513984,38.9999974 8.54552162,39.5717954 9.08142,40.5" id="Shape"/><path d="M48.91858,17.5 C49.7470071,18.93488 51.58178,19.4265071 53.01666,18.59808 C54.45154,17.7696529 54.9431671,15.93488 54.11474,14.5" id="Shape"/><path d="M6.78471,47.64084 C6.0957733,46.8197919 5.89719351,45.6935688 6.2637737,44.686408 C6.6303539,43.6792473 7.50640184,42.9441606 8.56191873,42.758048 C9.61743562,42.5719354 10.6920633,42.9630718 11.381,43.78412" id="Shape"/><path d="M46.619,14.21588 C47.3077197,15.0376656 48.3826689,15.4294029 49.4386418,15.243425 C50.4946146,15.0574472 51.3710499,14.3220323 51.7375723,13.3143975 C52.1040946,12.3067628 51.9049742,11.1801196 51.21527,10.35916" id="Shape"/><path d="M10.35916,51.21529 C9.08992956,50.1502862 8.92437118,48.2580154 9.989375,46.988785 C11.0543788,45.7195546 12.9466496,45.5539962 14.21588,46.619" id="Shape"/><path d="M43.78412,11.381 C45.0534451,12.4447923 46.9446855,12.2787571 48.0092382,11.0100697 C49.0737909,9.74138239 48.9088892,7.85004284 47.64084,6.78473" id="Shape"/><path d="M14.5,54.11474 C13.06512,53.2863129 12.5734929,51.45154 13.40192,50.01666 C14.2303471,48.58178 16.06512,48.0901529 17.5,48.91858" id="Shape"/><path d="M40.5,9.08142 C41.93488,9.90984709 43.7696528,9.41821993 44.59808,7.98333998 C45.4265071,6.54846003 44.9348799,4.71368714 43.5,3.88526" id="Shape"/><path d="M19.08142,56.25109 C17.5244851,55.6844127 16.7217227,53.9628849 17.2884,52.40595 C17.8550773,50.8490151 19.5766051,50.0462527 21.13354,50.61293" id="Shape"/><path d="M36.86646,7.38707 C38.4233949,7.95374729 40.1449227,7.15098489 40.7116,5.59405 C41.2782773,4.03711511 40.4755149,2.31558729 38.91858,1.74891" id="Shape"/><path d="M23.9642,57.55942 C22.9074021,57.3746509 22.0297083,56.6396167 21.6622944,55.6316641 C21.2948804,54.6237115 21.4936774,53.4962802 22.1836742,52.674778 C22.8736711,51.8532758 23.9498301,51.4627593 25.00609,51.65058" id="Shape"/><path d="M32.99391,6.34942 C34.0501699,6.53724073 35.1263289,6.14672422 35.8163258,5.32522202 C36.5063226,4.50371982 36.7051196,3.37628853 36.3377056,2.36833591 C35.9702917,1.36038329 35.0925979,0.625349116 34.0358,0.44058" id="Shape"/><polygon id="Shape" points="28.99 6 35.746 19.643 50.854 21.831 39.922 32.45 42.503 47.445 28.99 40.365 15.477 47.445 18.057 32.45 7.125 21.831 22.233 19.643"/></g></g></g></svg>