<?xml version="1.0" ?><svg height="60px" version="1.1" viewBox="0 0 60 60" width="60px" xmlns="http://www.w3.org/2000/svg" xmlns:xlink="http://www.w3.org/1999/xlink"><title/><desc/><defs/><g fill="none" fill-rule="evenodd" id="Page-1" stroke="none" stroke-width="1"><g id="009---Cracker" transform="translate(1.000000, 1.000000)"><g fill-rule="nonzero" id="Colour"><polyline fill="#E3E7F2" id="Shape" points="40.91 21.16 41.02 26.88 26.88 41.02 21 40.75 20.51 47.38 9.9 57.99 0 48.09 10.61 37.49 17.16 37 16.98 31.12 31.12 16.98 36.86 17.06 36.78 16.98 37.49 10.62 48.1 0.01 58 9.91 47.39 20.51 40.91 21.16"/><polygon fill="#E3E7F2" id="Shape" points="19 38.8 18.51 45.37 18.51 45.38 18.5 45.38 16.27 43.14 14.85 41.73 10.61 37.49 16.34 36.85 16.98 36.78"/><polygon fill="#E3E7F2" id="Shape" points="12.96 50.92 10.84 53.04 10.61 53.04 10.61 48.8 6.37 48.8 6.37 44.56 3.54 44.56 5.66 42.44 8.49 42.44 8.49 46.68 12.73 46.68 12.73 50.92"/><polygon fill="#E3E7F2" id="Shape" points="24.87 39.01 19 38.74 19 38.8 16.98 36.78 16.98 31.12"/><polygon fill="#E3E7F2" id="Shape" points="47.39 20.51 41.66 21.15 41.02 21.22 40.96 21.16"/><polygon fill="#E3E7F2" id="Shape" points="45.38 18.5 38.95 19.15 38.2 18.4 38.2 18.39 36.78 16.98 36.85 16.34 37.49 10.62 41.73 14.86 43.15 16.27"/><polygon fill="#E3E7F2" id="Shape" points="51.63 9.2 51.63 12.26 49.51 14.38 49.51 11.32 45.27 11.32 45.27 7.08 41.02 7.08 43.15 4.96 47.39 4.96 47.39 9.2"/><polygon fill="#E3E7F2" id="Shape" points="38.91 19.15 39.02 24.87 39.02 24.88 31.12 16.98 36.78 16.98 38.95 19.15"/><polygon fill="#E3E7F2" id="Shape" points="41.02 21.22 41.02 26.88 40.91 21.16 40.96 21.16"/><polygon fill="#E3E7F2" id="Shape" points="34.07 29.83 29.83 34.07 21.93 26.17 26.17 21.93 32.99 28.75"/><circle cx="29" cy="29" fill="#A4C2F7" id="Oval" r="4.00059"/><rect fill="#A4C2F7" height="2.82843" id="Rectangle-path" transform="translate(32.950073, 32.949983) rotate(-45.000410) translate(-32.950073, -32.949983) " width="5.99629" x="29.9519279" y="31.5357678"/><polygon fill="#A4C2F7" id="Shape" points="17 50.907 14.876 53.031 10.859 53.031 12.983 50.907"/><polygon fill="#A4C2F7" id="Shape" points="10.859 53.031 14.876 53.031 9.918 57.99 0 48.072 0.01 48.072 7.914 55.976"/><polygon fill="#A4C2F7" id="Shape" points="21.22 41.02 21.15 41.65 20.51 47.38 18.51 45.38 18.51 45.37 19 38.8"/><polygon fill="#A4C2F7" id="Shape" points="18.51 45.38 20.51 47.38 16.97 50.92 12.96 50.92 18.5 45.38"/><polygon fill="#A4C2F7" id="Shape" points="26.88 41.02 21.22 41.02 19 38.8 19 38.74 24.87 39.01"/><polygon fill="#A4C2F7" id="Shape" points="31.83 36.07 26.88 41.02 24.87 39.01 24.88 39.01 29.83 34.07"/><polygon fill="#A4C2F7" id="Shape" points="54.46 13.44 52.34 15.56 49.51 15.56 49.51 14.38 51.63 12.26 51.63 13.44"/><polygon fill="#A4C2F7" id="Shape" points="39.02 24.88 39.02 24.87 38.91 19.15 38.95 19.15 40.96 21.16 40.91 21.16 41.02 26.88"/><rect fill="#A4C2F7" height="2.82843" id="Rectangle-path" transform="translate(37.545052, 28.354986) rotate(-45.000000) translate(-37.545052, -28.354986) " width="7.00029" x="34.0449067" y="26.9407713"/><polygon fill="#A4C2F7" id="Shape" points="47.39 20.51 40.96 21.16 38.95 19.15 45.38 18.5"/><polygon fill="#A4C2F7" id="Shape" points="52.34 15.56 47.39 20.51 45.38 18.5 45.39 18.5 49.51 14.38 49.51 15.56"/><polygon fill="#A4C2F7" id="Shape" points="58 9.91 54.46 13.44 51.63 13.44 51.63 12.26 55.99 7.9"/><polygon fill="#FFFFFF" id="Shape" points="50.09 2.01 45.73 6.37 43.61 8.49 39.49 12.61 39.49 12.62 38.84 19.05 38.84 19.09 33.12 18.98 33.11 18.98 28.16 23.93 23.92 28.17 18.98 33.12 18.98 33.13 19.25 39 19.19 39 12.62 39.49 12.61 39.49 12.61 39.5 7.07 45.04 7.07 45.03 4.959 47.141 2.014 50.086 9.918 57.99 9.918 58 0 48.083 4.959 43.124 7.083 41 7.083 41.018 10.61 37.49 16.34 36.85 16.97 36.78 16.97 31.12 21.92 26.17 26.16 21.93 31.11 16.98 36.83 17.09 36.83 17.04 37.48 10.61 42.43 5.66 44.55 3.54 48.08 0"/></g><g id="Outline" stroke="#428DFF" stroke-linecap="round" stroke-linejoin="round"><rect height="15.00223" id="Rectangle-path" stroke-width="2" transform="translate(10.256087, 47.738335) rotate(-135.008520) translate(-10.256087, -47.738335) " width="14.00208" x="3.25504687" y="40.2372195"/><polygon id="Shape" points="14.854 41.728 16.268 43.142 20.512 47.385 21.22 41.021 19.805 39.607 18.39 38.192 16.976 36.778 10.61 37.485" stroke-width="2"/><polyline id="Shape" points="14.854 53.042 10.61 53.042 10.61 48.799 6.366 48.799 6.366 44.556 3.537 44.556"/><polyline id="Shape" points="16.976 50.92 12.732 50.92 12.732 46.678 8.488 46.678 8.488 42.435 5.659 42.435"/><rect height="20.00297" id="Rectangle-path" stroke-width="2" transform="translate(28.999998, 29.000007) rotate(-135.008520) translate(-28.999998, -29.000007) " width="14.00208" x="21.9989576" y="18.9985221"/><polygon id="Shape" points="16.976 36.778 19.098 38.899 21.22 41.021 26.878 41.021 21.927 36.071 16.976 31.121" stroke-width="2"/><path d="M16.97561,36.77817 C16.97561,36.77817 14.14634,31.12132 9.90244,31.12132 C5.65854,31.12132 4.2439,29.70711 4.2439,29.70711" id="Shape"/><path d="M16.62116,36.08948 C16.62116,36.08948 11.368,32.56518 7.67684,34.65885 C3.98568,36.75252 2.0572,36.22039 2.0572,36.22039" id="Shape"/><rect height="15.00223" id="Rectangle-path" stroke-width="2" transform="translate(47.743902, 10.261660) rotate(44.991480) translate(-47.743902, -10.261660) " width="14.00208" x="40.7428617" y="2.76054526"/><polygon id="Shape" points="43.146 16.272 41.732 14.858 37.488 10.615 36.78 16.979 38.195 18.393 39.61 19.808 41.024 21.222 47.39 20.515" stroke-width="2"/><polyline id="Shape" points="43.146 4.958 47.39 4.958 47.39 9.201 51.634 9.201 51.634 13.444 54.463 13.444"/><polyline id="Shape" points="41.024 7.08 45.268 7.08 45.268 11.322 49.512 11.322 49.512 15.565 52.341 15.565"/><polygon id="Shape" points="36.78 16.979 38.902 19.101 41.024 21.222 41.024 26.879 36.073 21.929 31.122 16.979" stroke-width="2"/><path d="M41.02439,21.22183 C41.02439,21.22183 43.85366,26.87868 48.09756,26.87868 C52.34146,26.87868 53.7561,28.29289 53.7561,28.29289" id="Shape"/><path d="M41.37884,21.91052 C41.37884,21.91052 46.632,25.43482 50.32316,23.34115 C54.01432,21.24748 55.9428,21.77961 55.9428,21.77961" id="Shape"/><polyline id="Shape" points="25.011 29.255 21.927 26.172 26.171 21.929 29.255 25.012"/><polyline id="Shape" points="32.989 28.745 36.073 31.828 31.829 36.071 28.745 32.988"/><circle cx="29" cy="29" id="Oval" r="4.00059"/></g></g></g></svg>