<?xml version="1.0" ?><svg enable-background="new 0 0 32 32" version="1.1" viewBox="0 0 32 32" xml:space="preserve" xmlns="http://www.w3.org/2000/svg" xmlns:xlink="http://www.w3.org/1999/xlink"><g id="SOLID"><g><g><path d="M24.772,1.625H1.625v28.75h28.75V7.228L24.772,1.625z M21.712,21.037l-5.725,3.613l-5.598-3.64v-0.872l1.675,0.992     l0.186,0.11l0.172-0.131l3.616-2.776l3.615,2.776l0.173,0.131l0.187-0.112l1.698-1.019V21.037z M21.712,19.136l-1.863,1.118     l-3.811-2.925l-3.812,2.925l-1.838-1.088l-3.999-2.369l4.019-3.058l-4.019-3.058l5.837-3.802l3.812,3.27l3.9-3.27l5.672,3.625     l-3.722,3.102l3.722,3.191L21.712,19.136z"/></g><g><polygon points="10.479,13.686 16,17.165 21.556,13.483 16.05,10.32    "/></g></g></g></svg>