<?xml version="1.0" ?><svg enable-background="new 0 0 32 32" version="1.1" viewBox="0 0 32 32" xml:space="preserve" xmlns="http://www.w3.org/2000/svg" xmlns:xlink="http://www.w3.org/1999/xlink"><g id="SOLID"><g><path d="M24.772,1.625H1.625v28.75h28.75V7.228L24.772,1.625z M16.164,24.172c-4.515,0-8.172-3.657-8.172-8.172    s3.657-8.172,8.172-8.172c2.207,0,4.05,0.812,5.465,2.13l-2.304,2.304v-0.005c-0.858-0.817-1.946-1.236-3.161-1.236    c-2.697,0-4.888,2.278-4.888,4.975c0,2.696,2.191,4.98,4.888,4.98c2.446,0,4.111-1.4,4.454-3.32h-4.454v-3.187h7.686    c0.102,0.546,0.158,1.118,0.158,1.716C24.008,20.852,20.883,24.172,16.164,24.172z"/></g></g></svg>