<?xml version="1.0" ?><svg enable-background="new 0 0 32 32" version="1.1" viewBox="0 0 32 32" xml:space="preserve" xmlns="http://www.w3.org/2000/svg" xmlns:xlink="http://www.w3.org/1999/xlink"><g id="SOLID"><g><g><path d="M18.317,17.817h-5.452c-0.419,0-0.772,0.354-0.772,0.795c0,0.42,0.353,0.773,0.772,0.773h5.452     c0.442,0,0.795-0.353,0.795-0.773C19.112,18.171,18.759,17.817,18.317,17.817z"/></g><g><path d="M12.865,13.16h2.958c0.441,0,0.772-0.353,0.772-0.795c0-0.419-0.331-0.772-0.772-0.772h-2.958     c-0.419,0-0.772,0.353-0.772,0.772C12.093,12.807,12.446,13.16,12.865,13.16z"/></g><g><path d="M24.772,1.625H1.625v28.75h28.75V7.228L24.772,1.625z M23.792,18.612c0,2.56-2.119,4.68-4.68,4.68h-6.247     c-2.56,0-4.657-2.119-4.657-4.68v-6.246c0-2.56,2.097-4.657,4.657-4.657h2.34c3.002,0,5.452,2.45,5.452,5.452     c0,0.419,0.354,0.773,0.795,0.773h0.773c0.861,0,1.567,0.706,1.567,1.568V18.612z"/></g></g></g></svg>