<?xml version="1.0" ?><svg enable-background="new 0 0 32 32" version="1.1" viewBox="0 0 32 32" xml:space="preserve" xmlns="http://www.w3.org/2000/svg" xmlns:xlink="http://www.w3.org/1999/xlink"><g id="Outline_Color_copy_2"><g><path d="M28,1c1.654,0,3,1.346,3,3v24c0,1.654-1.346,3-3,3H4c-1.654,0-3-1.346-3-3V4c0-1.654,1.346-3,3-3H28 M28,0H4    C1.8,0,0,1.8,0,4v24c0,2.2,1.8,4,4,4h24c2.2,0,4-1.8,4-4V4C32,1.8,30.2,0,28,0L28,0z"/></g><path d="M8.606,11.287c-0.742,0-1.344,0.602-1.344,1.344v5.378c0,0.742,0.602,1.344,1.344,1.344   s1.344-0.602,1.344-1.344v-5.378C9.95,11.889,9.348,11.287,8.606,11.287z" fill="#0BA4E0"/><path d="M23.394,11.287c-0.742,0-1.344,0.602-1.344,1.344v5.378c0,0.742,0.602,1.344,1.344,1.344   c0.742,0,1.344-0.602,1.344-1.344v-5.378C24.739,11.889,24.136,11.287,23.394,11.287z" fill="#0BA4E0"/><path d="M10.622,22.043h1.344v3.361c0,0.742,0.602,1.344,1.344,1.344c0.742,0,1.344-0.602,1.344-1.344v-3.361h2.689   v3.361c0,0.742,0.602,1.344,1.344,1.344c0.742,0,1.344-0.602,1.344-1.344v-3.361h1.344V11.96H10.622V22.043z" fill="#0BA4E0"/><path d="M19.175,6.953l0.69-1.196c0.093-0.161,0.038-0.366-0.124-0.46c-0.16-0.093-0.366-0.038-0.459,0.124   l-0.673,1.166C17.836,6.157,16.948,5.91,16,5.91c-0.947,0-1.836,0.247-2.609,0.678l-0.674-1.167   c-0.093-0.161-0.298-0.216-0.46-0.123c-0.16,0.093-0.215,0.298-0.123,0.459l0.691,1.197c-1.333,0.979-2.203,2.553-2.203,4.334   h10.755C21.378,9.506,20.508,7.932,19.175,6.953z M13.983,9.271c-0.372,0-0.672-0.3-0.672-0.672s0.3-0.672,0.672-0.672   s0.672,0.3,0.672,0.672S14.355,9.271,13.983,9.271z M18.017,9.271c-0.372,0-0.672-0.3-0.672-0.672s0.3-0.672,0.672-0.672   s0.672,0.3,0.672,0.672S18.388,9.271,18.017,9.271z" fill="#0BA4E0"/></g></svg>