<?xml version="1.0" ?><svg id="Layer_1" style="enable-background:new 0 0 512 512;" version="1.1" viewBox="0 0 512 512" xml:space="preserve" xmlns="http://www.w3.org/2000/svg" xmlns:xlink="http://www.w3.org/1999/xlink"><style type="text/css">
	.st0{fill:#FFFFFF;stroke:#231F20;stroke-width:13;stroke-linecap:round;stroke-linejoin:round;stroke-miterlimit:10;}
	.st1{fill:#FF465F;}
	.st2{fill:none;stroke:#231F20;stroke-width:13;stroke-linecap:round;stroke-linejoin:round;stroke-miterlimit:10;}
	.st3{fill:#FFFFFF;stroke:#231F20;stroke-width:10;stroke-linecap:round;stroke-linejoin:round;stroke-miterlimit:10;}
	.st4{clip-path:url(#SVGID_2_);}
	.st5{clip-path:url(#SVGID_4_);}
	.st6{clip-path:url(#SVGID_6_);}
	.st7{clip-path:url(#SVGID_8_);}
	.st8{clip-path:url(#SVGID_8_);fill:none;}
	.st9{clip-path:url(#SVGID_10_);}
	.st10{clip-path:url(#SVGID_10_);fill:none;}
	.st11{clip-path:url(#SVGID_12_);}
	.st12{clip-path:url(#SVGID_12_);fill:none;}
	.st13{fill:none;stroke:#231F20;stroke-width:3.9318;stroke-linecap:round;stroke-linejoin:round;stroke-miterlimit:10;}
	.st14{fill:#FFFFFF;stroke:#231F20;stroke-width:3.9318;stroke-linecap:round;stroke-linejoin:round;stroke-miterlimit:10;}
	.st15{clip-path:url(#SVGID_14_);}
	.st16{clip-path:url(#SVGID_16_);}
	.st17{clip-path:url(#SVGID_16_);fill:none;}
	.st18{fill:none;stroke:#231F20;stroke-width:7.5752;stroke-linecap:round;stroke-linejoin:round;stroke-miterlimit:10;}
	.st19{fill:#FFFFFF;stroke:#231F20;stroke-width:7.5752;stroke-linecap:round;stroke-linejoin:round;stroke-miterlimit:10;}
	.st20{clip-path:url(#SVGID_18_);}
	.st21{clip-path:url(#SVGID_20_);}
	.st22{clip-path:url(#SVGID_20_);fill:none;}
</style><g><g><defs><path d="M183,366.3L183,366.3c-6.6-6.6-6.6-17.4,0-24l106.5-106.5c13.9-13.9,14.5-36.7,0.5-50.7     c-12.1-12.1-30.8-13.6-44.5-4.6c-6.8,4.5-15.8,3.8-21.6-2l0,0c-8-8-6.9-19.8,2.5-26c27-18.1,64.1-15.2,87.9,8.7     c26.9,27,26.1,71.8-0.8,98.7L207.1,366.3C200.4,372.9,189.7,372.9,183,366.3z" id="SVGID_11_"/></defs><clipPath id="SVGID_2_"><use style="overflow:visible;" xlink:href="#SVGID_11_"/></clipPath><g class="st4"><g><line class="st2" x1="155.6" x2="353.4" y1="96.3" y2="96.3"/><line class="st2" x1="155.6" x2="353.4" y1="116.7" y2="116.7"/><line class="st2" x1="155.6" x2="353.4" y1="137.2" y2="137.2"/><line class="st2" x1="155.6" x2="353.4" y1="157.6" y2="157.6"/><line class="st2" x1="155.6" x2="353.4" y1="178.1" y2="178.1"/><line class="st2" x1="155.6" x2="353.4" y1="198.5" y2="198.5"/><line class="st2" x1="155.6" x2="353.4" y1="218.9" y2="218.9"/><line class="st2" x1="155.6" x2="353.4" y1="239.4" y2="239.4"/></g><g><line class="st2" x1="155.6" x2="353.4" y1="239.4" y2="239.4"/><line class="st2" x1="155.6" x2="353.4" y1="259.8" y2="259.8"/><line class="st2" x1="155.6" x2="353.4" y1="280.3" y2="280.3"/><line class="st2" x1="155.6" x2="353.4" y1="300.7" y2="300.7"/><line class="st2" x1="155.6" x2="353.4" y1="321.1" y2="321.1"/><line class="st2" x1="155.6" x2="353.4" y1="341.6" y2="341.6"/><line class="st2" x1="155.6" x2="353.4" y1="362" y2="362"/><line class="st2" x1="155.6" x2="353.4" y1="382.5" y2="382.5"/></g></g><rect height="122.1" style="clip-path:url(#SVGID_2_);fill:none;" width="79.9" x="129.2" y="153.1"/></g><path class="st2" d="M183,366.3L183,366.3c-6.6-6.6-6.6-17.4,0-24l106.5-106.5c13.9-13.9,14.5-36.7,0.5-50.7   c-12.1-12.1-30.8-13.6-44.5-4.6c-6.8,4.5-15.8,3.8-21.6-2l0,0c-8-8-6.9-19.8,2.5-26c27-18.1,64.1-15.2,87.9,8.7   c26.9,27,26.1,71.8-0.8,98.7L207.1,366.3C200.4,372.9,189.7,372.9,183,366.3z"/></g></svg>