<?xml version="1.0" ?><svg id="Слой_1" style="enable-background:new 0 0 200 200;" version="1.1" viewBox="0 0 200 200" xml:space="preserve" xmlns="http://www.w3.org/2000/svg" xmlns:xlink="http://www.w3.org/1999/xlink"><style type="text/css">
	.st0{fill:url(#SVGID_1_);}
	.st1{fill:url(#SVGID_2_);}
	.st2{fill:url(#SVGID_3_);}
	.st3{fill:url(#SVGID_4_);}
	.st4{fill:url(#SVGID_5_);}
	.st5{fill:url(#SVGID_6_);}
	.st6{fill:url(#SVGID_7_);}
	.st7{fill:url(#SVGID_8_);}
	.st8{fill:url(#SVGID_9_);}
	.st9{fill:url(#SVGID_10_);}
</style><linearGradient gradientUnits="userSpaceOnUse" id="SVGID_1_" x1="177.7045" x2="188.6523" y1="110.1313" y2="110.1313"><stop offset="0" style="stop-color:#F7931E"/><stop offset="1" style="stop-color:#AF1259"/></linearGradient><circle class="st0" cx="183.2" cy="110.1" r="5.5"/><linearGradient gradientUnits="userSpaceOnUse" id="SVGID_2_" x1="126.6938" x2="141.6956" y1="35.5834" y2="35.5834"><stop offset="0" style="stop-color:#F7931E"/><stop offset="1" style="stop-color:#AF1259"/></linearGradient><circle class="st1" cx="134.2" cy="35.6" r="7.5"/><linearGradient gradientUnits="userSpaceOnUse" id="SVGID_3_" x1="20.9778" x2="39.0094" y1="142.1665" y2="142.1665"><stop offset="0" style="stop-color:#F7931E"/><stop offset="1" style="stop-color:#AF1259"/></linearGradient><circle class="st2" cx="30" cy="142.2" r="9"/><g><linearGradient gradientUnits="userSpaceOnUse" id="SVGID_4_" x1="63.1705" x2="140.0853" y1="112.6207" y2="112.6207"><stop offset="0" style="stop-color:#F7931E"/><stop offset="1" style="stop-color:#AF1259"/></linearGradient><path class="st3" d="M103.3,103.3c0.5-0.2,1-0.3,1.5-0.5c-0.9-2.2-2-4.4-3-6.6c-19.3,6-37.9,5.6-38.6,5.5c0,0.4,0,0.8,0,1.2   c0,10,3.6,19.1,9.6,26C72.8,129,83.1,110.1,103.3,103.3z"/><linearGradient gradientUnits="userSpaceOnUse" id="SVGID_5_" x1="76.8858" x2="136.5025" y1="75.9537" y2="75.9537"><stop offset="0" style="stop-color:#F7931E"/><stop offset="1" style="stop-color:#AF1259"/></linearGradient><path class="st4" d="M125.5,73.8c-6.6-6-15.3-9.7-24.8-9.7c-3.1,0-6,0.4-8.9,1.1c0.6,0.8,7.6,10.5,14,22.7   C120.1,82.4,125.5,73.9,125.5,73.8z"/><linearGradient gradientUnits="userSpaceOnUse" id="SVGID_6_" x1="77.6484" x2="140.5011" y1="125.6203" y2="125.6203"><stop offset="0" style="stop-color:#F7931E"/><stop offset="1" style="stop-color:#AF1259"/></linearGradient><path class="st5" d="M107.1,109.4c-22.2,8-29.4,24.2-29.5,24.3c6.4,5.1,14.4,8.2,23.1,8.2c5.2,0,10.2-1.1,14.7-3.1   c-0.6-3.4-2.7-15.3-8-29.6C107.3,109.3,107.2,109.3,107.1,109.4z"/><linearGradient gradientUnits="userSpaceOnUse" id="SVGID_7_" x1="59.4759" x2="126.003" y1="81.367" y2="81.367"><stop offset="0" style="stop-color:#F7931E"/><stop offset="1" style="stop-color:#AF1259"/></linearGradient><path class="st6" d="M98.7,90.2c-6.5-12-13.4-21.8-13.9-22.4C74.2,72.9,66.4,82.9,64,95C65,95,80.6,95.2,98.7,90.2z"/><linearGradient gradientUnits="userSpaceOnUse" id="SVGID_8_" x1="11.6325" x2="180.5393" y1="102.8101" y2="102.8101"><stop offset="0" style="stop-color:#F7931E"/><stop offset="1" style="stop-color:#AF1259"/></linearGradient><path class="st7" d="M171.4,96.2c2.5-2.2,4.6-4.9,6.2-8.1c5.7-11.1,2.8-25-6.9-32.9c-7-5.7-15.7-7.3-23.5-5.4   c-10.1,2.4-20.7-1.4-27.4-9.3c-4.5-5.3-10-9.9-16.5-13.6c-28.3-16.1-63.6-7.6-81.6,19.5C2.9,75,11.1,113.5,39.9,132L40,132   c5.4,3.4,8.3,9.6,7.6,16c-1.4,12.7,4.3,25.8,15.8,33.2c10.8,6.9,23.4,7.4,34.1,2c9.9-5,20.9-7.4,32-6.9c14.6,0.7,30-6.5,38.5-19.8   c8.8-13.7,8.7-30.8,1-44.2C165.9,107,166.8,100.2,171.4,96.2z M143.8,112.2c-0.6,2.9-1.4,5.8-2.6,8.6c-1.1,2.7-2.5,5.3-4.1,7.7   c-1.6,2.4-3.4,4.7-5.4,6.8c-2,2.1-4.2,3.9-6.5,5.6c-2.3,1.6-4.9,3.1-7.5,4.2c-2.7,1.2-5.4,2.1-8.3,2.7c-2.9,0.6-5.9,0.9-8.9,0.9   c-3,0-6-0.3-8.9-0.9c-2.8-0.6-5.6-1.5-8.3-2.7c-2.6-1.1-5.1-2.6-7.5-4.2c-2.3-1.6-4.5-3.5-6.5-5.6c-2-2.1-3.8-4.3-5.4-6.8   c-1.6-2.4-3-5-4.1-7.7c-1.1-2.8-2-5.6-2.6-8.6c-0.6-3-0.9-6.1-0.9-9.2c0-3.1,0.3-6.2,0.9-9.2c0.6-2.9,1.4-5.8,2.6-8.6   c1.1-2.7,2.5-5.3,4.1-7.8c1.6-2.4,3.4-4.7,5.4-6.8c2-2.1,4.2-3.9,6.5-5.6c2.3-1.7,4.9-3.1,7.5-4.2c2.7-1.2,5.4-2.1,8.3-2.7   c2.9-0.6,5.9-0.9,8.9-0.9c3,0,6,0.3,8.9,0.9c2.8,0.6,5.6,1.5,8.3,2.7c2.6,1.1,5.1,2.6,7.5,4.2c2.3,1.6,4.5,3.5,6.5,5.6   c2,2.1,3.8,4.3,5.4,6.8c1.6,2.4,3,5,4.1,7.8c1.1,2.8,2,5.6,2.6,8.6c0.6,3,0.9,6.1,0.9,9.2C144.7,106.1,144.4,109.2,143.8,112.2z"/><linearGradient gradientUnits="userSpaceOnUse" id="SVGID_9_" x1="88.8213" x2="141.0082" y1="90.4257" y2="90.4257"><stop offset="0" style="stop-color:#F7931E"/><stop offset="1" style="stop-color:#AF1259"/></linearGradient><path class="st8" d="M108.8,93.7c0.9,1.9,1.7,3.7,2.5,5.6c0.3,0.7,0.5,1.3,0.8,2c12.9-1.7,25.6,1.1,26.2,1.3   c-0.1-9.2-3.3-17.7-8.5-24.3C129.7,78.4,123.7,87.4,108.8,93.7z"/><linearGradient gradientUnits="userSpaceOnUse" id="SVGID_10_" x1="99.9189" x2="141.5021" y1="121.08" y2="121.08"><stop offset="0" style="stop-color:#F7931E"/><stop offset="1" style="stop-color:#AF1259"/></linearGradient><path class="st9" d="M114.4,107.5c4.9,14,6.9,25.5,7.3,27.8c8.4-5.9,14.4-15.3,16.1-26.1C137.1,108.9,126.5,105.5,114.4,107.5z"/></g></svg>