<?xml version="1.0" ?><svg id="Layer_1" style="enable-background:new 0 0 512 512;" version="1.1" viewBox="0 0 512 512" xml:space="preserve" xmlns="http://www.w3.org/2000/svg" xmlns:xlink="http://www.w3.org/1999/xlink"><style type="text/css">
	.st0{fill:url(#SVGID_1_);}
	.st1{fill:#4A76A8;}
</style><g><g><g><linearGradient gradientUnits="userSpaceOnUse" id="SVGID_1_" x1="360.2839" x2="152.5496" y1="435.908" y2="76.1015"><stop offset="0" style="stop-color:#4A76A8"/><stop offset="1" style="stop-color:#000F6A"/></linearGradient><path class="st0" d="M256.4,463.8c-114.6,0-207.8-93.2-207.8-207.8c0-114.6,93.2-207.8,207.8-207.8     c114.6,0,207.8,93.2,207.8,207.8C464.2,370.6,371,463.8,256.4,463.8z M291.7,303c3.4,0,10.4,8,15.5,13.8     c5.3,6.1,10.9,12.5,16.9,16.6c8.4,5.8,15.6,6.6,19.2,6.6c1.1,0,2-0.1,2.5-0.2l36.8-0.5l0.1,0c1.2-0.1,12-0.9,16-8.5     c1.6-3,2.6-8.2-1.8-15.5l-0.1-0.2c-5.8-10.8-18.6-23.7-28.3-32.7l-0.7-0.6c-8.2-7.6-13.2-12.2-13.2-15.4     c-0.1-3.5,4.8-9.8,12.8-20.2c2.8-3.6,5.9-7.7,9.5-12.5c23.6-31.4,24.4-41.7,22.4-47.2c-1.3-3.5-5-7.6-15.7-7.6     c-1.8,0-3.2,0.1-3.8,0.2l-41.1,0.2c-0.3,0-0.8-0.1-1.3-0.1c-1.8,0-4.5,0.3-6.9,1.7c-3.4,2.1-5.3,5.9-5.7,6.7l-0.1,0.2l-0.1,0.2     c-0.1,0.2-6.6,17.3-15,31.7c-14.5,24.6-20.9,28.5-22.5,29.2c-3.1-2.8-2.8-11.8-2.6-18.4c0-1.8,0.1-3.5,0.1-5.2     c0-6.9,0.2-12.9,0.5-18.1c0.7-17.9,1.2-29.8-13.3-33.3c-5-1.2-8.7-2-20.6-2.1c-2.1,0-4.1,0-6.1,0c-13.4,0-23.8,0.7-30.7,4.1     c-4.3,2.1-10.4,7.6-9.6,12.5c0.4,2.5,2.3,4.4,4.9,4.7c1.5,0.2,6.7,1.1,8.9,4.2c2.3,3.1,3.2,11.1,3.1,15.8l0,0.2l0,0.2     c1.1,16.3-0.4,33.3-3.2,35.7c-0.1,0.1-0.2,0.1-0.2,0.1c-1.3,0-6.8-2.2-22.9-30c-8.2-14.2-14.5-30-14.6-30.2     c-0.3-0.8-1.9-4.5-5.1-6.8c-3.5-2.6-8-3.4-8.5-3.5l-0.4-0.1l-40.1,0.2c-1.9,0.1-8.4,0.6-11.8,4.5c-3.7,4.3-1.5,10.8-1,12l0.1,0.2     c1.3,3,31.8,73.8,67.1,110.6c30.1,31.3,64.4,32.9,70.9,32.9c0.8,0,1.3,0,1.5,0h16.7l0.3,0c1.1-0.1,7.1-1,10.7-4.9     c3.5-3.8,3.6-9.6,3.6-10.8c-0.1-7.7,2.1-19.2,6.5-20.6C291.4,303,291.6,303,291.7,303z"/><path class="st1" d="M256.4,53.2c27.4,0,53.9,5.4,78.9,15.9c24.1,10.2,45.8,24.8,64.5,43.5c18.6,18.6,33.2,40.3,43.5,64.5     c10.6,25,15.9,51.5,15.9,78.9c0,27.4-5.4,53.9-15.9,78.9c-10.2,24.1-24.8,45.8-43.5,64.5c-18.6,18.6-40.3,33.2-64.5,43.5     c-25,10.6-51.5,15.9-78.9,15.9c-27.4,0-53.9-5.4-78.9-15.9c-24.1-10.2-45.8-24.8-64.5-43.5c-18.6-18.6-33.2-40.3-43.5-64.5     c-10.6-25-15.9-51.5-15.9-78.9c0-27.4,5.4-53.9,15.9-78.9c10.2-24.1,24.8-45.8,43.5-64.5c18.6-18.6,40.3-33.2,64.5-43.5     C202.5,58.6,229,53.2,256.4,53.2 M216.1,241.4c-3-3.4-8.1-10.4-16.2-24.5c-8-13.8-14.2-29.4-14.2-29.5l0,0l0,0     c-0.5-1.3-2.6-5.9-6.8-8.9c-4.4-3.2-9.6-4.2-10.6-4.4l-0.9-0.1l-0.9,0l-39.6,0.2l-0.1,0l-0.1,0c-3.1,0.1-10.9,0.9-15.5,6.3     c-5.3,6.3-2.8,14.6-1.9,17l0.1,0.2l0.1,0.2c1.3,3,32.1,74.6,68.1,112.1c30.7,31.9,64.8,34.4,74.5,34.4c0.7,0,1.3,0,1.6,0H270h0.5     l0.5-0.1c2-0.2,9.1-1.4,13.8-6.4c4.7-5.1,5-12.1,4.9-14.2c-0.1-5.4,1.2-12,2.6-14.9c3,2.2,7.9,7.8,11,11.4     c5.5,6.4,11.3,12.9,17.8,17.4c9.5,6.5,17.9,7.5,22,7.5c1.2,0,2.1-0.1,2.8-0.2l36.4-0.5l0.2,0l0.2,0c2.5-0.2,15-1.4,20.1-11.2     c2.2-4.2,3.6-11-1.9-20.3l-0.1-0.1c-6.2-11.4-19.3-24.8-29.3-34l-0.7-0.6c-5-4.6-10.6-9.9-11.6-11.9c0.6-2.5,6.3-9.9,11.7-16.9     c2.8-3.6,6-7.7,9.6-12.5c24.8-33.1,25.8-44.5,23.1-51.9c-1.5-4.1-6.1-11-20.4-11c-1.8,0-3.2,0.1-4.1,0.2l-40.7,0.2     c-0.4,0-0.9-0.1-1.5-0.1c-2.4,0-6,0.4-9.4,2.4l0,0l0,0c-4.5,2.7-6.9,7.5-7.6,8.8l-0.2,0.3l-0.1,0.3c-0.1,0.2-6.4,16.9-14.7,30.9     c-7.5,12.7-12.5,19.5-15.7,23.1c-0.2-3.3-0.1-7.2,0-9.6c0-1.8,0.1-3.6,0.1-5.3c0-6.8,0.2-12.7,0.4-17.9     c0.4-9.7,0.7-16.6-0.8-22.6c-2.1-8.4-7.6-13.7-16.3-15.8c-5.4-1.3-9.5-2.1-21.7-2.2c-2.4,0-4.4,0-6.2,0     c-14.1,0-25.1,0.8-32.9,4.6c-5.7,2.8-13.6,9.8-12.3,17.8c0.8,4.7,4.5,8.3,9.2,8.9c2.7,0.4,5,1.4,5.5,2.2     c1.2,1.6,2.2,7.8,2.2,12.8l0,0.4l0,0.4C217.5,224,217.1,235,216.1,241.4 M256.4,43.2C138.9,43.2,43.6,138.5,43.6,256     s95.3,212.8,212.8,212.8c117.5,0,212.8-95.3,212.8-212.8S373.9,43.2,256.4,43.2L256.4,43.2z M218.4,254.5c1,0,1.8-0.3,2.7-0.7     c8.2-4.5,5.7-40.4,5.7-40.4s0.2-13.1-4.1-18.9c-3.3-4.5-9.5-5.8-12.3-6.2c-2.2-0.3,1.4-5.5,6.2-7.8c6.1-3,16.3-3.6,28.5-3.6     c2,0,4,0,6.1,0c11.6,0.1,14.9,0.9,19.5,1.9c13.6,3.3,9,16,9,46.6c0,9.8-1.8,23.5,5.3,28.1c0.5,0.3,1.1,0.6,1.9,0.6     c3.9,0,11.6-5.6,27.1-31.8c8.8-14.9,15.4-32.5,15.4-32.5s1.4-3.1,3.7-4.5c1.4-0.9,3.2-1,4.3-1c0.7,0,1.1,0.1,1.1,0.1l41.6-0.2     c0,0,1.5-0.2,3.5-0.2c3.9,0,9.7,0.6,11,4.3c2.1,5.9-4.7,19.8-21.7,42.5c-28,37.3-31.1,33.8-7.9,55.3     c22.2,20.6,26.8,30.6,27.5,31.8c9.2,15.2-10.2,16.4-10.2,16.4l-37,0.5c0,0-0.7,0.1-2.1,0.1c-3,0-9.1-0.8-16.3-5.8     c-13-8.9-25.3-31.3-35.2-31.3c-0.6,0-1.3,0.1-1.9,0.3c-10.3,3.3-10,25.5-10,25.5s0.1,4.7-2.3,7.3c-2.5,2.8-7.5,3.3-7.5,3.3h-16.6     c0,0-0.5,0-1.4,0c-7,0-38.9-1.7-67.3-31.3C149.6,266.5,118.6,194,118.6,194s-1.8-4.8,0.2-7c2.2-2.6,8.1-2.8,8.1-2.8l39.6-0.2     c0,0,3.7,0.6,6.4,2.6c2.2,1.6,3.4,4.6,3.4,4.6s6.4,16.2,14.9,30.8C205.3,246.3,213,254.5,218.4,254.5L218.4,254.5z"/></g></g></g></svg>