<?xml version="1.0" ?><svg id="Layer_1" style="enable-background:new 0 0 512 512;" version="1.1" viewBox="0 0 512 512" xml:space="preserve" xmlns="http://www.w3.org/2000/svg" xmlns:xlink="http://www.w3.org/1999/xlink"><style type="text/css">
	.st0{fill:url(#SVGID_1_);}
	.st1{fill:#CE5800;}
</style><g><g><g><linearGradient gradientUnits="userSpaceOnUse" id="SVGID_1_" x1="152.1333" x2="359.8679" y1="76.0987" y2="435.9055"><stop offset="0" style="stop-color:#CE5800"/><stop offset="1" style="stop-color:#E9A400"/></linearGradient><path class="st0" d="M256,463.8c-114.6,0-207.8-93.2-207.8-207.8c0-114.6,93.2-207.8,207.8-207.8c114.6,0,207.8,93.2,207.8,207.8     C463.8,370.6,370.6,463.8,256,463.8z M155,174.1l5,0c46.8,0.2,90.8,18.6,123.9,51.7c33.2,33.2,51.5,77.3,51.7,124.2l0,5H391l0-5     c-0.3-127-103.9-230.8-230.9-231.2l-5,0V174.1z M155,251.2l4.9,0.1c26.2,0.3,50.9,10.7,69.5,29.3c18.6,18.6,29,43.3,29.3,69.5     l0.1,4.9h55.3l0-5c-0.6-84.4-69.7-153.5-154.1-154.1l-5,0V251.2z M190.7,283.8c-19.6,0-35.6,16-35.6,35.6s16,35.6,35.6,35.6     c19.6,0,35.6-16,35.6-35.6S210.3,283.8,190.7,283.8z"/><path class="st1" d="M256,53.2c27.4,0,53.9,5.4,78.9,15.9c24.1,10.2,45.8,24.8,64.5,43.5c18.6,18.6,33.2,40.3,43.5,64.5     c10.6,25,15.9,51.5,15.9,78.9c0,27.4-5.4,53.9-15.9,78.9c-10.2,24.1-24.8,45.8-43.5,64.5c-18.6,18.6-40.3,33.2-64.5,43.5     c-25,10.6-51.5,15.9-78.9,15.9c-27.4,0-53.9-5.4-78.9-15.9c-24.1-10.2-45.8-24.8-64.5-43.5c-18.6-18.6-33.2-40.3-43.5-64.5     c-10.6-25-15.9-51.5-15.9-78.9c0-27.4,5.4-53.9,15.9-78.9c10.2-24.1,24.8-45.8,43.5-64.5c18.6-18.6,40.3-33.2,64.5-43.5     C202.1,58.6,228.6,53.2,256,53.2 M330.7,360h10H386h10l0-10c-0.3-129.8-106.1-235.7-235.9-236.2l-10,0v10v45.3v10l10,0     c45.5,0.2,88.3,18,120.4,50.2c32.2,32.2,50.1,75.1,50.2,120.7L330.7,360 M253.9,360h9.9h45.4h10.1l-0.1-10.1     c-0.6-87.1-72-158.4-159-159l-10.1-0.1v10.1v45.4v9.9l9.9,0.1c24.9,0.3,48.4,10.1,66.1,27.8c17.7,17.7,27.6,41.1,27.8,66     L253.9,360 M190.7,360c22.4,0,40.6-18.2,40.6-40.6c0-22.4-18.2-40.6-40.6-40.6c-22.4,0-40.6,18.2-40.6,40.6     C150,341.8,168.3,360,190.7,360 M256,43.2C138.5,43.2,43.2,138.5,43.2,256c0,117.5,95.3,212.8,212.8,212.8     c117.5,0,212.8-95.3,212.8-212.8C468.8,138.5,373.5,43.2,256,43.2L256,43.2z M340.6,350c-0.1-48.3-19-93.6-53.1-127.7     c-34.1-34.1-79.3-52.9-127.5-53.1v-45.3C284.7,124.2,385.7,225.3,386,350H340.6L340.6,350z M263.8,350     C263.2,293.1,217,246.9,160,246.3v-45.4c82.1,0.6,148.5,67,149.1,149.1H263.8L263.8,350z M190.7,350c-16.9,0-30.6-13.7-30.6-30.6     c0-16.9,13.7-30.6,30.6-30.6c16.9,0,30.6,13.7,30.6,30.6C221.3,336.3,207.6,350,190.7,350L190.7,350z"/></g></g></g></svg>