<?xml version="1.0" ?><!DOCTYPE svg  PUBLIC '-//W3C//DTD SVG 1.1//EN'  'http://www.w3.org/Graphics/SVG/1.1/DTD/svg11.dtd'><svg height="6.82666in" style="shape-rendering:geometricPrecision; text-rendering:geometricPrecision; image-rendering:optimizeQuality; fill-rule:evenodd; clip-rule:evenodd" viewBox="0 0 6.82666 6.82666" width="6.82666in" xml:space="preserve" xmlns="http://www.w3.org/2000/svg" xmlns:xlink="http://www.w3.org/1999/xlink"><defs><style type="text/css">
   <![CDATA[
    .fil0 {fill:#0288D1}
    .fil1 {fill:#FFFFFE}
   ]]>
  </style></defs><g id="Layer_x0020_1"><rect class="fil0" height="6.82667" rx="1.65565" ry="1.65565" width="6.82667"/><path class="fil1" d="M1.25706 1.78925l4.31254 0c0.222059,0 0.403732,0.181669 0.403732,0.403728l0 2.44071c0,0.222059 -0.181673,0.403728 -0.403732,0.403728l-4.31254 0c-0.222051,0 -0.403724,-0.181669 -0.403724,-0.403728l0 -2.44071c0,-0.222059 0.181673,-0.403728 0.403724,-0.403728zm2.15628 2.33972c-0.230925,0.3275 -0.607622,0.526362 -1.01519,0.526362 -0.685906,0 -1.242,-0.556091 -1.242,-1.242 0,-0.685906 0.556094,-1.242 1.242,-1.242 0.407571,0 0.784268,0.198862 1.01519,0.526362 0.230929,-0.3275 0.60763,-0.526362 1.0152,-0.526362 0.685906,0 1.242,0.556094 1.242,1.242 0,0.685902 -0.556091,1.242 -1.242,1.242 -0.407571,0 -0.784272,-0.198862 -1.0152,-0.526362z"/><path class="fil1" d="M4.42853 2.25391c-0.437087,0 -0.817634,0.241906 -1.0152,0.59911 -0.197567,-0.357205 -0.578106,-0.59911 -1.01519,-0.59911 -0.640335,0 -1.15943,0.519091 -1.15943,1.15942 0,0.640331 0.519091,1.15942 1.15943,1.15942 0.437087,0 0.817626,-0.241906 1.01519,-0.59911 0.197567,0.357205 0.578114,0.59911 1.0152,0.59911 0.640331,0 1.15942,-0.519091 1.15942,-1.15942 0,-0.640331 -0.519091,-1.15942 -1.15942,-1.15942zm-2.15633 1.21711l0.172177 0.0519213c-0.0115394,0.0482205 -0.0297283,0.0886024 -0.0547283,0.120846 -0.0248504,0.0323976 -0.0556181,0.0568031 -0.0925945,0.0732205 -0.0368346,0.0164213 -0.0837244,0.0247087 -0.140673,0.0247087 -0.0692323,0 -0.125587,-0.0100591 -0.16952,-0.0300315 -0.0437835,-0.0201181 -0.0815,-0.0554685 -0.113307,-0.105913 -0.0317992,-0.050437 -0.0477756,-0.115224 -0.0477756,-0.193921 0,-0.10502 0.0279567,-0.185783 0.0838701,-0.242291 0.056063,-0.0563543 0.135201,-0.0846063 0.237559,-0.0846063 0.0800236,0 0.143039,0.0161181 0.188894,0.0485157 0.0457047,0.0323937 0.079878,0.0820945 0.102067,0.149248l-0.173067 0.038311c-0.00606693,-0.0192283 -0.0124291,-0.0332795 -0.0190866,-0.0421535 -0.0110906,-0.0149409 -0.0245512,-0.0264764 -0.040378,-0.0344685 -0.0159764,-0.00813386 -0.0337283,-0.012126 -0.0534016,-0.012126 -0.0446693,0 -0.0788386,0.0178976 -0.102508,0.0535472 -0.0178976,0.0264764 -0.0269173,0.068189 -0.0269173,0.124843 0,0.0704094 0.0106457,0.11848 0.0320984,0.144665 0.0214449,0.0260354 0.0514724,0.0390512 0.0902283,0.0390512 0.0375709,0 0.0659724,-0.0105039 0.0852008,-0.0316535 0.0192323,-0.0210079 0.0331339,-0.051626 0.0418622,-0.0917126zm0.261669 -0.375421l0.176614 0 0 0.119815 -0.176614 0 0 -0.119815zm0 0.174843l0.176614 0 0 0.460622 -0.176614 0 0 -0.460622zm0.291106 0l0.165374 0 0 0.0751417c0.0159724,-0.032689 0.0323937,-0.0551732 0.0492598,-0.0674488 0.0170079,-0.0122795 0.0378622,-0.0183425 0.0627126,-0.0183425 0.026185,0 0.0547323,0.00813386 0.0856457,0.0244055l-0.0547283 0.125287c-0.0208583,-0.00872835 -0.0374213,-0.0130157 -0.0495551,-0.0130157 -0.0230748,0 -0.0411181,0.00961417 -0.0538425,0.0286969 -0.018189,0.0269213 -0.0273622,0.0773622 -0.0273622,0.151173l0 0.154724 -0.177504 0 0 -0.460622zm0.431189 0l0.16537 0 0 0.0751417c0.0159764,-0.032689 0.0323937,-0.0551732 0.0492598,-0.0674488 0.0170079,-0.0122795 0.0378661,-0.0183425 0.0627165,-0.0183425 0.026185,0 0.0547283,0.00813386 0.0856457,0.0244055l-0.0547323 0.125287c-0.0208543,-0.00872835 -0.0374213,-0.0130157 -0.0495512,-0.0130157 -0.0230748,0 -0.0411181,0.00961417 -0.0538425,0.0286969 -0.0181929,0.0269213 -0.0273661,0.0773622 -0.0273661,0.151173l0 0.154724 -0.1775 0 0 -0.460622zm0.906154 0.460622l-0.164929 0 0 -0.0742559c-0.0245551,0.030622 -0.0492559,0.0523622 -0.0741063,0.0653819 -0.025,0.0130157 -0.055622,0.0195276 -0.0920079,0.0195276 -0.0485197,0 -0.0863819,-0.0145 -0.114047,-0.0436417 -0.0275118,-0.0289921 -0.0412677,-0.073811 -0.0412677,-0.134311l0 -0.293323 0.177504 0 0 0.253831c0,0.0288465 0.00532677,0.0494055 0.0159724,0.0616811 0.0106535,0.0121299 0.0255945,0.0181969 0.0448228,0.0181969 0.0208583,0 0.0380157,-0.0081378 0.0514764,-0.0242598 0.013311,-0.0162717 0.0199685,-0.0454094 0.0199685,-0.0874213l0 -0.222028 0.176614 0 0 0.460622zm0.0763307 -0.127799l0.174839 -0.0159764c0.00724803,0.0207047 0.0173071,0.0355 0.0303228,0.044374 0.0130197,0.00887402 0.0303228,0.013315 0.0520709,0.013315 0.0236654,0 0.0420079,-0.0050315 0.0550276,-0.0152362 0.0102047,-0.00739764 0.0152323,-0.0168661 0.0152323,-0.0281063 0,-0.0127205 -0.00665354,-0.0226339 -0.0199685,-0.0295827 -0.00946457,-0.00488189 -0.0347598,-0.0109488 -0.0757323,-0.0181969 -0.0612402,-0.0106496 -0.103693,-0.0205591 -0.127657,-0.0297323 -0.023815,-0.00901969 -0.0437835,-0.0245512 -0.0602008,-0.0461496 -0.0162717,-0.021748 -0.0244094,-0.0464488 -0.0244094,-0.0742559 0,-0.0303228 0.00872835,-0.0565079 0.0263307,-0.0783976 0.0176024,-0.0220433 0.0418583,-0.0384606 0.0727756,-0.0492598 0.0309134,-0.0107953 0.0723346,-0.0162677 0.124252,-0.0162677 0.0547283,0 0.0952598,0.00414173 0.121295,0.0125709 0.0261811,0.00843307 0.0479252,0.0214488 0.0653819,0.0390512 0.0174528,0.017752 0.0319488,0.0415669 0.0434882,0.0717402l-0.166858 0.0159764c-0.0042874,-0.0146417 -0.0115354,-0.0254409 -0.0215945,-0.0323937 -0.0137559,-0.00917323 -0.0304685,-0.0137559 -0.0501417,-0.0137559 -0.0198228,0 -0.0343189,0.00355118 -0.0433425,0.0106535 -0.00902362,0.00709843 -0.0136063,0.0156772 -0.0136063,0.0257362 0,0.0113858 0.00576772,0.0198189 0.0171575,0.0255906 0.0113898,0.00591339 0.0365354,0.0110906 0.0751457,0.0156772 0.0587205,0.00665748 0.102209,0.0159764 0.130906,0.0278071 0.0285472,0.0118346 0.0504409,0.0287008 0.0655315,0.0507402 0.0152323,0.0220394 0.0227795,0.0461496 0.0227795,0.0724803 0,0.026622 -0.00799213,0.0525118 -0.0241142,0.0776575 -0.0159764,0.0251457 -0.0412677,0.0451142 -0.0757362,0.0600551 -0.0344606,0.0149409 -0.0815039,0.0223386 -0.140965,0.0223386 -0.0840197,0 -0.143925,-0.0119882 -0.179575,-0.0360945 -0.0356496,-0.0239646 -0.0585748,-0.0581339 -0.0686339,-0.102358zm0.574075 -0.0488189l0.188154 0 0 0.176618 -0.188154 0 0 -0.176618z"/></g></svg>