<?xml version="1.0" ?><!DOCTYPE svg  PUBLIC '-//W3C//DTD SVG 1.1//EN'  'http://www.w3.org/Graphics/SVG/1.1/DTD/svg11.dtd'><svg height="6.82666in" style="shape-rendering:geometricPrecision; text-rendering:geometricPrecision; image-rendering:optimizeQuality; fill-rule:evenodd; clip-rule:evenodd" viewBox="0 0 6.82666 6.82666" width="6.82666in" xml:space="preserve" xmlns="http://www.w3.org/2000/svg" xmlns:xlink="http://www.w3.org/1999/xlink"><defs><style type="text/css">
   <![CDATA[
    .fil0 {fill:#AFB42B}
    .fil1 {fill:#FFFFFE}
   ]]>
  </style></defs><g id="Layer_x0020_1"><rect class="fil0" height="6.82667" rx="1.65565" ry="1.65565" width="6.82667"/><path class="fil1" d="M1.25706 1.78925l4.31254 0c0.222059,0 0.403732,0.181669 0.403732,0.403728l0 2.44071c0,0.222059 -0.181673,0.403728 -0.403732,0.403728l-4.31254 0c-0.222051,0 -0.403724,-0.181669 -0.403724,-0.403728l0 -2.44071c0,-0.222059 0.181673,-0.403728 0.403724,-0.403728zm0.442732 1.77619l0.263622 -0.0165276c0.00564961,0.0426811 0.0173661,0.0753189 0.0349409,0.0974961 0.0286614,0.0361969 0.0694606,0.0544016 0.122606,0.0544016 0.0395433,0 0.0700866,-0.00920472 0.0914331,-0.0278268 0.0215472,-0.018622 0.0322165,-0.0401732 0.0322165,-0.0646496 0,-0.0232283 -0.0100394,-0.0441496 -0.0303386,-0.0625591 -0.0202953,-0.0184134 -0.0675787,-0.0355669 -0.141854,-0.0520984 -0.121768,-0.0271969 -0.208386,-0.0636024 -0.260272,-0.109008 -0.0523071,-0.045189 -0.0784606,-0.102937 -0.0784606,-0.173236 0,-0.0460276 0.0133898,-0.0895433 0.0401732,-0.130555 0.0267795,-0.0412165 0.0669488,-0.073437 0.12072,-0.0968701 0.0537717,-0.0234331 0.127417,-0.0351496 0.220941,-0.0351496 0.114862,0 0.202323,0.0213425 0.262575,0.0642323 0.0602559,0.0426811 0.0960354,0.110681 0.107539,0.203992l-0.261106 0.0154843c-0.00690551,-0.0407992 -0.0215512,-0.0705079 -0.0437283,-0.0889213 -0.0223898,-0.0186181 -0.0531457,-0.0278228 -0.0922717,-0.0278228 -0.0322165,0 -0.0567008,0.00690157 -0.0730157,0.0205 -0.0163228,0.0135984 -0.0244843,0.0303386 -0.0244843,0.0500039 0,0.0142283 0.00670079,0.0269882 0.019878,0.0385 0.0127677,0.0119213 0.0437283,0.0228031 0.092689,0.0330551 0.121346,0.0261535 0.208177,0.0527283 0.260484,0.0795039 0.0525118,0.0267835 0.0907992,0.0598386 0.114654,0.0995945 0.0238504,0.0395433 0.0357795,0.0838976 0.0357795,0.133063 0,0.0575394 -0.0159055,0.110681 -0.0477047,0.159429 -0.0320118,0.0485433 -0.0763661,0.0855748 -0.133693,0.110681 -0.057122,0.0251063 -0.129094,0.0376614 -0.21613,0.0376614 -0.152732,0 -0.258598,-0.0295 -0.317394,-0.0882953 -0.0587913,-0.0587913 -0.0920591,-0.133484 -0.0997992,-0.224079zm0.937953 -0.601516l0.254831 0 0 0.462799 0.186417 -0.215496 0.306933 0 -0.233492 0.228051 0.247303 0.423469 -0.280988 0 -0.132232 -0.26111 -0.0939409 0.0918504 0 0.16926 -0.254831 0 0 -0.898823zm0.839823 0.247303l0.233913 0 0 0.10628c0.0225984,-0.0462362 0.0458189,-0.0780354 0.0696732,-0.0954016 0.0240591,-0.0173661 0.0535591,-0.0259449 0.0887087,-0.0259449 0.0370354,0 0.0774134,0.0115079 0.121142,0.0345197l-0.0774134 0.177217c-0.0295,-0.0123465 -0.0529331,-0.0184134 -0.0700906,-0.0184134 -0.0326417,0 -0.0581614,0.0136024 -0.0761575,0.0405906 -0.0257323,0.0380787 -0.0387047,0.109421 -0.0387047,0.213827l0 0.218846 -0.251071 0 0 -0.65152zm0.563441 -0.247303l0.249815 0 0 0.169469 -0.249815 0 0 -0.169469zm0 0.247303l0.249815 0 0 0.65152 -0.249815 0 0 -0.65152zm0.418028 -0.247303l0.249815 0 0 0.898823 -0.249815 0 0 -0.898823zm0.418028 0l0.249815 0 0 0.898823 -0.249815 0 0 -0.898823z"/></g></svg>