<?xml version="1.0" ?><svg enable-background="new 0 0 52 52" id="Layer_1" version="1.1" viewBox="0 0 52 52" xml:space="preserve" xmlns="http://www.w3.org/2000/svg" xmlns:xlink="http://www.w3.org/1999/xlink"><g><path d="M46.4799805,14.1199875l-20-11c-0.2999878-0.1599731-0.6599731-0.1599731-0.9599609,0l-20,11   C5.2000122,14.2999802,5,14.640007,5,14.9999924v22c0,0.3599854,0.2000122,0.7000122,0.5200195,0.8800049l20,11   C25.6699829,48.9600143,25.8300171,48.9999924,26,48.9999924s0.3300171-0.039978,0.4799805-0.1199951l20-11   C46.7999878,37.7000046,47,37.3599777,47,36.9999924v-22C47,14.640007,46.7999878,14.2999802,46.4799805,14.1199875z    M40.3599854,26.4899826l-2.6199951,2.0100098L31,38.2899704v2.7900391H19v-3.0300293   c-1.3599854-1.7699585-2.1500244-3.8300171-2.2799683-5.9899902c-0.3100586-5.039978-0.0300293-9.460022,0.1699829-11.6599731   C16.960022,19.6199875,17,18.8099899,17,18.0100021v-2.3400269c0-0.8099976,0.3599854-1.5799561,0.9899902-2.1300049   c0.6799927-0.5799561,1.5900269-0.8299561,2.5-0.6999512c0.2200317,0.039978,0.4299927,0.1099854,0.6400146,0.1900024   c0.3599854-1.2000122,1.5-2.0900269,2.8699951-2.0900269c0.4000244,0,0.7800293,0.0800171,1.1300049,0.2199707   c0.3599854-1.1999512,1.5-2.0799561,2.8699951-2.0799561c1.6500244,0,3,1.2799683,3,2.8599854v0.0100098   c0.3099976-0.1099854,0.6500244-0.1799927,1-0.1799927c1.6500244,0,3,1.289978,3,2.8699951v8.5999756l1.6599731-0.9799805   C37.789978,21.2800217,39.5,21.3099899,40.5999756,22.3300095c0.6000366,0.5599976,0.9200439,1.3299561,0.8700562,2.1300049   C41.4299927,25.2600021,41.0200195,25.9999924,40.3599854,26.4899826z"/></g></svg>