<?xml version="1.0" ?><svg enable-background="new 0 0 52 52" id="Layer_1" version="1.1" viewBox="0 0 52 52" xml:space="preserve" xmlns="http://www.w3.org/2000/svg" xmlns:xlink="http://www.w3.org/1999/xlink"><g><path d="M39.1788635,22.2315674v-6.7770996c0-3.5771484-1.3662109-6.953125-3.8515625-9.5107422   c-2.5019531-2.5439453-5.8134766-3.9453125-9.3251953-3.9453125c-7.265625,0-13.1767578,6.0361328-13.1767578,13.4560547v6.7770996   H7.4100037l0.0800171,27.7700195h37.0999756V22.2315674H39.1788635z M14.8253479,15.4544678   c0-6.3168945,5.0136719-11.4560547,11.1767578-11.4560547c2.9707031,0,5.7763672,1.1889648,7.8955078,3.3432617   c2.1162109,2.1777344,3.28125,5.059082,3.28125,8.112793v6.7770996H14.8253479V15.4544678z M29.2315979,44.1986084   c-0.875-1.0561523-2.0214844-1.6381836-3.2294922-1.6381836s-2.3544922,0.5820313-3.2294922,1.6381836l-1.5410156-1.2753906   c1.2617188-1.5234375,2.9560547-2.362793,4.7705078-2.362793s3.5087891,0.8393555,4.7705078,2.362793L29.2315979,44.1986084z    M33.2315979,39.7537842c-1.9433594-2.3457031-4.5107422-3.6376953-7.2294922-3.6376953s-5.2861328,1.2919922-7.2294922,3.6376953   l-1.5410156-1.2753906c2.3300781-2.8129883,5.4453125-4.3623047,8.7705078-4.3623047s6.4404297,1.5493164,8.7705078,4.3623047   L33.2315979,39.7537842z M37.2315979,35.3094482c-3.0107422-3.6352539-6.9990234-5.6376953-11.2285156-5.6376953   c-4.2304688,0-8.21875,2.0019531-11.2304688,5.6381836l-1.5410156-1.2763672   c3.3994141-4.1025391,7.9345703-6.3618164,12.7705078-6.3618164c0.0009766,0,0.0009766,0,0.0009766,0   c4.8359375,0,9.3710938,2.2597656,12.7695313,6.3623047L37.2315979,35.3094482z"/></g></svg>