<?xml version="1.0" ?><svg enable-background="new 0 0 52 52" id="Layer_1" version="1.1" viewBox="0 0 52 52" xml:space="preserve" xmlns="http://www.w3.org/2000/svg" xmlns:xlink="http://www.w3.org/1999/xlink"><g><g><path d="M45.8399658,21.4649963H29v15.0700073c0.0599976-5.5200195,4.5499878-10,10-10    c5.4599609,0,9.9500122,4.4400024,10,9.8999634c0,0.3500366-0.0200195,0.6900024-0.0499878,1.0300293H50V27.1349792    L45.8399658,21.4649963z"/></g><g><polygon fill="#F93E2B" points="38.5100098,11.4649963 29,11.4649963 29,19.4649963 44.3699951,19.4649963   "/></g><g><path d="M2,37.5049744h2.0499878C4.0200195,37.184967,4,36.8650208,4,36.5350037    c0.039978-5.5200195,4.5200195-10,10-10c5.4899902,0,9.9799805,4.4599609,10,9.9500122    c0,0.3299561-0.0200195,0.6599731-0.0499878,0.9799805h3.039978v-30H2V37.5049744z M10,9.4649963h13v8    c0,3.2399902-5.3800049,6.5-5.9899902,6.8599854L16.5,24.6249695L16,24.3249817c-0.6199951-0.3599854-6-3.6199951-6-6.8599854    V9.4649963z" fill="#F93E2B"/></g><g><path d="M14,28.5350037c-4.3900146,0-7.9699707,3.5700073-8,8c0,4.4099731,3.5900269,8,8,8s8-3.5900269,8-8.0400391    C21.9799805,32.105011,18.3900146,28.5350037,14,28.5350037z M14,39.5350037c-1.6500244,0-3-1.3500366-3-3    c0.0300293-1.6799927,1.3800049-3,3-3c1.6500244,0,2.9700317,1.289978,3,2.9500122    C17,38.184967,15.6599731,39.5350037,14,39.5350037z"/></g><g><path d="M39,28.5350037c-4.3599854,0-7.9500122,3.5499878-8,8c0,4.4099731,3.5900269,8,8,8s8-3.5900269,8-8.0800171    C46.9599609,32.0849915,43.3699951,28.5350037,39,28.5350037z M42,36.5350037c0,1.6499634-1.3400269,3-3,3    c-1.6500244,0-3-1.3500366-3-3v-0.1099854c0.0599976-1.6200562,1.3800049-2.8900146,3-2.8900146s2.9400024,1.2699585,3,2.8900146    V36.5350037z"/></g></g></svg>