<?xml version="1.0" ?><!DOCTYPE svg  PUBLIC '-//W3C//DTD SVG 1.1//EN'  'http://www.w3.org/Graphics/SVG/1.1/DTD/svg11.dtd'><svg height="100%" style="fill-rule:evenodd;clip-rule:evenodd;stroke-linejoin:round;stroke-miterlimit:1.41421;" version="1.1" viewBox="0 0 49 49" width="100%" xml:space="preserve" xmlns="http://www.w3.org/2000/svg" xmlns:serif="http://www.serif.com/" xmlns:xlink="http://www.w3.org/1999/xlink"><g><path d="M14.568,40.681c0,0.531 0.21,1.039 0.585,1.414c0.376,0.376 0.884,0.586 1.415,0.586c1.104,0 2,-0.895 2,-2c0,-0.012 0,-0.025 0,-0.038c0,-0.52 -0.207,-1.019 -0.575,-1.387c-0.368,-0.368 -0.867,-0.575 -1.387,-0.575c-0.026,0 -0.051,0 -0.076,0c-0.521,0 -1.02,0.207 -1.388,0.575c-0.368,0.368 -0.574,0.867 -0.574,1.387c0,0.013 0,0.026 0,0.038Zm-8,-32c0,1.105 0.895,2 2,2c1.104,0 2,-0.895 2,-2c0,-1.104 -0.896,-2 -2,-2c-1.105,0 -2,0.896 -2,2c0,0 0,0 0,0Zm8,0c0,1.105 0.895,2 2,2c1.104,0 2,-0.895 2,-2c0,-1.104 -0.896,-2 -2,-2c-1.105,0 -2,0.896 -2,2c0,0 0,0 0,0Zm0,16c0,1.105 0.895,2 2,2c1.104,0 2,-0.895 2,-2c0,-1.104 -0.896,-2 -2,-2c-1.105,0 -2,0.896 -2,2c0,0 0,0 0,0Zm-8,16c0,0.531 0.21,1.039 0.585,1.414c0.376,0.376 0.884,0.586 1.415,0.586c1.104,0 2,-0.895 2,-2c0,-0.012 0,-0.025 0,-0.038c0,-0.52 -0.207,-1.019 -0.575,-1.387c-0.368,-0.368 -0.867,-0.575 -1.387,-0.575c-0.026,0 -0.051,0 -0.076,0c-0.521,0 -1.02,0.207 -1.388,0.575c-0.368,0.368 -0.574,0.867 -0.574,1.387c0,0.013 0,0.026 0,0.038Zm16,0c0,0.531 0.21,1.039 0.585,1.414c0.376,0.376 0.884,0.586 1.415,0.586c1.104,0 2,-0.895 2,-2c0,-0.012 0,-0.025 0,-0.038c0,-0.52 -0.207,-1.019 -0.575,-1.387c-0.368,-0.368 -0.867,-0.575 -1.387,-0.575c-0.026,0 -0.051,0 -0.076,0c-0.521,0 -1.02,0.207 -1.388,0.575c-0.368,0.368 -0.574,0.867 -0.574,1.387c0,0.013 0,0.026 0,0.038Zm-16,-16c0,1.105 0.895,2 2,2c1.104,0 2,-0.895 2,-2c0,-1.104 -0.896,-2 -2,-2c-1.105,0 -2,0.896 -2,2c0,0 0,0 0,0Zm0,8c0,1.105 0.895,2 2,2c1.104,0 2,-0.895 2,-2c0,-1.104 -0.896,-2 -2,-2c-1.105,0 -2,0.896 -2,2c0,0 0,0 0,0Zm0,-16c0,1.105 0.895,2 2,2c1.104,0 2,-0.895 2,-2c0,-1.104 -0.896,-2 -2,-2c-1.105,0 -2,0.896 -2,2c0,0 0,0 0,0Zm16,16c0,1.105 0.895,2 2,2c1.104,0 2,-0.895 2,-2c0,-1.104 -0.896,-2 -2,-2c-1.105,0 -2,0.896 -2,2c0,0 0,0 0,0Zm8,-8c0,1.105 0.895,2 2,2c1.104,0 2,-0.895 2,-2c0,-1.104 -0.896,-2 -2,-2c-1.105,0 -2,0.896 -2,2c0,0 0,0 0,0Zm0,16c0,0.531 0.21,1.039 0.585,1.414c0.376,0.376 0.884,0.586 1.415,0.586c1.104,0 2,-0.895 2,-2c0,-0.012 0,-0.025 0,-0.038c0,-0.52 -0.207,-1.019 -0.575,-1.387c-0.368,-0.368 -0.867,-0.575 -1.387,-0.575c-0.026,0 -0.051,0 -0.076,0c-0.521,0 -1.02,0.207 -1.388,0.575c-0.368,0.368 -0.574,0.867 -0.574,1.387c0,0.013 0,0.026 0,0.038Zm0,-32c0,1.105 0.895,2 2,2c1.104,0 2,-0.895 2,-2c0,-1.104 -0.896,-2 -2,-2c-1.105,0 -2,0.896 -2,2c0,0 0,0 0,0Zm-8,16c0,1.105 0.895,2 2,2c1.104,0 2,-0.895 2,-2c0,-1.104 -0.896,-2 -2,-2c-1.105,0 -2,0.896 -2,2c0,0 0,0 0,0Zm0,-16c0,1.105 0.895,2 2,2c1.104,0 2,-0.895 2,-2c0,-1.104 -0.896,-2 -2,-2c-1.105,0 -2,0.896 -2,2c0,0 0,0 0,0Zm0,8c0,1.105 0.895,2 2,2c1.104,0 2,-0.895 2,-2c0,-1.104 -0.896,-2 -2,-2c-1.105,0 -2,0.896 -2,2c0,0 0,0 0,0Z" style="fill:#d9d9d9;fill-rule:nonzero;"/><path d="M40.568,6.681c-1.105,0 -2,0.896 -2,2c0,6.302 0,25.699 0,32c0,1.105 0.895,2 2,2c1.104,0 2,-0.895 2,-2c0,-6.301 0,-25.698 0,-32c0,-1.104 -0.896,-2 -2,-2c0,0 0,0 0,0Z" style="fill:#008bf6;fill-rule:nonzero;"/></g><rect height="48" style="fill:none;" width="48" x="0.568" y="0.681"/></svg>