<?xml version="1.0" ?><!DOCTYPE svg  PUBLIC '-//W3C//DTD SVG 1.1//EN'  'http://www.w3.org/Graphics/SVG/1.1/DTD/svg11.dtd'><svg height="512px" style="enable-background:new 0 0 512 512;" version="1.1" viewBox="0 0 512 512" width="512px" xml:space="preserve" xmlns="http://www.w3.org/2000/svg" xmlns:xlink="http://www.w3.org/1999/xlink"><g id="social__x2C__media__x2C__last.fm_x2C_"><g><path d="M434.463,16.01H77.562c-33.511,0-61.552,27.677-61.552,61.54    v356.913c0,33.851,28.041,61.527,61.552,61.527h356.901c33.85,0,61.527-27.677,61.527-61.527V77.55    C495.99,43.687,468.313,16.01,434.463,16.01L434.463,16.01z M355.069,239.975c25.494,7.642,60.825,18.205,60.825,55.349    c0,24.415-17.139,40.425-45.895,47.727c-8.732,2.534-18.218,3.639-28.055,3.639c-32.043,0-66.646-9.109-81.206-33.875    c-7.276-11.644-12.384-25.846-18.218-40.425c-16.385-43.705-29.86-72.11-62.631-72.11c-33.876,0-48.078,18.933-48.078,63.378    c0,0.728,1.832,50.612,46.986,50.612c27.678,0,42.244-19.297,42.607-20.024l15.658,30.589c-2.184,3.287-10.2,20.751-58.266,20.751    c-57.174,0-82.668-46.597-82.668-81.928c0-85.598,52.443-98.345,83.76-98.345c60.097,0,80.849,54.627,96.137,94.7    c5.119,13.481,10.213,26.228,15.657,35.312c9.108,15.684,43.36,24.415,69.206,17.49c12.747-3.287,19.297-9.109,19.297-17.49    c0-9.46-9.46-14.202-35.683-21.83c-25.143-7.654-58.642-17.86-58.642-53.555c0-26.573,20.4-49.157,52.093-53.899    c30.588-4.718,67.726,10.564,78.29,44.439l-34.227,10.188c-5.471-16.736-26.223-21.843-38.97-20.024    c-2.183,0.364-22.207,5.471-22.207,19.297C320.843,228.319,329.926,232.334,355.069,239.975L355.069,239.975z" style="fill-rule:evenodd;clip-rule:evenodd;fill:#008E86;"/><path d="M260.739,312.813c14.56,24.766,49.163,33.875,81.206,33.875    c9.837,0,19.322-1.104,28.055-3.639c28.756-7.302,45.895-23.312,45.895-47.727c0-37.144-35.331-47.707-60.825-55.349    c-25.144-7.641-34.227-11.655-34.227-20.036c0-13.826,20.024-18.933,22.207-19.297c12.747-1.818,33.499,3.288,38.97,20.024    l34.227-10.188c-10.564-33.875-47.702-49.157-78.29-44.439c-31.692,4.742-52.093,27.326-52.093,53.899    c0,35.694,33.499,45.9,58.642,53.555c26.223,7.628,35.683,12.37,35.683,21.83c0,8.381-6.55,14.203-19.297,17.49    c-25.846,6.925-60.098-1.807-69.206-17.49c-5.444-9.084-10.538-21.83-15.657-35.312c-15.288-40.073-36.04-94.7-96.137-94.7    c-31.316,0-83.76,12.747-83.76,98.345c0,35.331,25.494,81.928,82.668,81.928c48.065,0,56.082-17.464,58.266-20.751l-15.658-30.589    c-0.363,0.728-14.93,20.024-42.607,20.024c-45.154,0-46.986-49.885-46.986-50.612c0-44.445,14.202-63.378,48.078-63.378    c32.771,0,46.246,28.405,62.631,72.11C248.355,286.968,253.463,301.17,260.739,312.813L260.739,312.813z" style="fill-rule:evenodd;clip-rule:evenodd;fill:#E9D9A8;"/></g></g><g id="Layer_1"/></svg>