<?xml version="1.0" ?><!DOCTYPE svg  PUBLIC '-//W3C//DTD SVG 1.1//EN'  'http://www.w3.org/Graphics/SVG/1.1/DTD/svg11.dtd'><svg height="512px" style="enable-background:new 0 0 512 512;" version="1.1" viewBox="0 0 512 512" width="512px" xml:space="preserve" xmlns="http://www.w3.org/2000/svg" xmlns:xlink="http://www.w3.org/1999/xlink"><g id="social__x2C__media__x2C__stumbleupon"><g><path d="M434.438,16.01H77.549c-33.862,0-61.539,27.677-61.539,61.54    v356.888c0,33.876,27.677,61.553,61.539,61.553h356.889c33.875,0,61.553-27.677,61.553-61.553V77.55    C495.99,43.687,468.313,16.01,434.438,16.01L434.438,16.01z M255.996,188.986c-9.108,0-17.113,7.653-17.113,16.762v100.516    c0,39.32-31.691,71.364-71.389,71.364c-39.32,0-71.376-32.044-71.376-71.364v-42.256h54.991v42.256    c0,9.108,7.289,16.737,16.385,16.737c9.473,0,16.386-7.629,16.386-16.737V205.748c0-39.333,32.784-71.389,72.116-71.389    c39.703,0,72.099,32.056,72.099,71.389v19.297l-33.123,10.563l-21.855-10.563v-19.297    C273.116,196.64,265.463,188.986,255.996,188.986L255.996,188.986z M344.48,377.628c-39.32,0-71.364-32.044-71.364-71.364V263.28    l21.855,10.563l33.123-10.563v42.983c0,9.108,7.302,16.737,16.386,16.737c9.484,0,16.41-7.629,16.41-16.737v-42.256h54.979v42.256    h0.377C416.246,345.961,384.177,377.628,344.48,377.628L344.48,377.628z" style="fill-rule:evenodd;clip-rule:evenodd;fill:#C45359;"/><path d="M273.116,225.045l21.855,10.563l33.123-10.563v-19.297    c0-39.333-32.396-71.389-72.099-71.389c-39.332,0-72.116,32.056-72.116,71.389v100.516c0,9.108-6.913,16.737-16.386,16.737    c-9.096,0-16.385-7.629-16.385-16.737v-42.256H96.118v42.256c0,39.32,32.056,71.364,71.376,71.364    c39.697,0,71.389-32.044,71.389-71.364V205.748c0-9.108,8.005-16.762,17.113-16.762c9.467,0,17.12,7.653,17.12,16.762V225.045z" style="fill-rule:evenodd;clip-rule:evenodd;fill:#E9D9A8;"/><path d="M294.972,273.844l-21.855-10.563v42.983    c0,39.32,32.044,71.364,71.364,71.364c39.696,0,71.766-31.667,71.766-71.364h-0.377v-42.256h-54.979v42.256    c0,9.108-6.926,16.737-16.41,16.737c-9.084,0-16.386-7.629-16.386-16.737V263.28L294.972,273.844z" style="fill-rule:evenodd;clip-rule:evenodd;fill:#E9D9A8;"/></g></g><g id="Layer_1"/></svg>