<?xml version="1.0" ?><!DOCTYPE svg  PUBLIC '-//W3C//DTD SVG 1.1//EN'  'http://www.w3.org/Graphics/SVG/1.1/DTD/svg11.dtd'><svg height="512px" style="enable-background:new 0 0 512 512;" version="1.1" viewBox="0 0 512 512" width="512px" xml:space="preserve" xmlns="http://www.w3.org/2000/svg" xmlns:xlink="http://www.w3.org/1999/xlink"><g id="social__x2C__media__x2C___apple__x2C_"><g><path d="M434.463,16H77.549C43.687,16,16.01,43.677,16.01,77.553    v356.895C16.01,467.946,43.687,496,77.549,496h356.914c33.85,0,61.527-28.054,61.527-61.553V77.553    C495.99,43.677,468.313,16,434.463,16L434.463,16z M272.389,119.797c11.291-13.476,30.588-23.312,46.246-24.039    c2.183,18.568-5.445,37.514-16.386,50.988c-10.915,13.475-29.133,24.402-46.604,22.947    C253.086,151.125,262.194,131.815,272.389,119.797L272.389,119.797z M362.346,376.182c-13.123,19.673-26.598,38.97-48.077,39.333    c-21.128,0.364-28.028-12.747-52.074-12.747c-24.038,0-31.68,12.384-51.716,13.111c-20.389,1.092-36.41-20.752-49.521-40.425    c-22.948-33.499-41.152-90.686-29.51-137.295c2.196-8.381,5.106-16.398,9.473-24.039c13.839-24.403,38.605-39.696,65.191-40.061    c20.388-0.364,39.696,13.839,52.08,13.839c12.39,0,35.676-17.113,60.091-14.566c10.188,0.363,38.969,4.015,57.538,31.691    c-1.104,0.729-16.763,9.824-26.222,28.757c-4.743,8.745-8.005,19.31-7.654,32.056c0.377,48.442,41.529,64.828,42.257,64.828    C383.826,331.742,377.628,353.599,362.346,376.182L362.346,376.182z" style="fill-rule:evenodd;clip-rule:evenodd;fill:#647A80;"/><path d="M314.269,415.515c21.479-0.363,34.954-19.66,48.077-39.333    c15.282-22.583,21.48-44.439,21.856-45.518c-0.728,0-41.88-16.386-42.257-64.828c-0.351-12.746,2.911-23.311,7.654-32.056    c9.459-18.933,25.117-28.028,26.222-28.757c-18.569-27.677-47.351-31.328-57.538-31.691    c-24.415-2.547-47.701,14.566-60.091,14.566c-12.384,0-31.692-14.203-52.08-13.839c-26.586,0.364-51.353,15.657-65.191,40.061    c-4.366,7.641-7.276,15.658-9.473,24.039c-11.643,46.609,6.562,103.796,29.51,137.295c13.11,19.673,29.132,41.517,49.521,40.425    c20.036-0.728,27.678-13.111,51.716-13.111C286.24,402.768,293.141,415.879,314.269,415.515L314.269,415.515z" style="fill-rule:evenodd;clip-rule:evenodd;fill:#E9D9A8;"/><path d="M255.646,169.693c17.471,1.455,35.688-9.473,46.604-22.947    c10.94-13.475,18.568-32.42,16.386-50.988c-15.658,0.728-34.955,10.563-46.246,24.039    C262.194,131.815,253.086,151.125,255.646,169.693L255.646,169.693z" style="fill-rule:evenodd;clip-rule:evenodd;fill:#E9D9A8;"/></g></g><g id="Layer_1"/></svg>