<?xml version="1.0" ?><!DOCTYPE svg  PUBLIC '-//W3C//DTD SVG 1.1//EN'  'http://www.w3.org/Graphics/SVG/1.1/DTD/svg11.dtd'><svg height="512px" style="enable-background:new 0 0 512 512;" version="1.1" viewBox="0 0 512 512" width="512px" xml:space="preserve" xmlns="http://www.w3.org/2000/svg" xmlns:xlink="http://www.w3.org/1999/xlink"><g id="social__x2C_media__x2C__vintage__x2C___vines__x2C_"><g><path d="M256.104,495.946c126.467,0,230.169-97.885,239.193-222.145    H16.703C25.832,398.062,129.534,495.946,256.104,495.946L256.104,495.946z M495.297,238.199    C486.272,113.938,382.57,16.054,256.104,16.054c-126.569,0-230.271,97.884-239.4,222.146H495.297L495.297,238.199z" style="fill-rule:evenodd;clip-rule:evenodd;fill:#058E85;"/><path d="M256.104,431.059c96.482,0,175.011-78.729,175.011-175.108    c0-96.279-78.528-175.008-175.011-175.008c-96.481,0-175.01,78.729-175.01,175.008C81.094,352.33,159.622,431.059,256.104,431.059    L256.104,431.059z" style="fill-rule:evenodd;clip-rule:evenodd;fill:#E9D9A8;"/><path d="M24.83,238.199h462.548    c0.401,5.817,0.498,11.834,0.498,17.751c0,6.018-0.097,12.036-0.498,17.852H24.83c-0.401-5.815-0.705-11.834-0.705-17.852    C24.125,250.033,24.429,244.017,24.83,238.199L24.83,238.199z" style="fill-rule:evenodd;clip-rule:evenodd;fill:#E9D9A8;"/><path d="M256.104,412.608c86.249,0,156.457-70.409,156.457-156.658    c0-86.25-70.208-156.554-156.457-156.554c-86.254,0-156.656,70.304-156.656,156.554    C99.447,342.199,169.85,412.608,256.104,412.608L256.104,412.608z" style="fill-rule:evenodd;clip-rule:evenodd;fill:#058E85;"/><path d="M321.69,237.797c1.811-12.836,1.811-17.45,1.811-30.188    c0-36.004-69.205-42.021-69.205,3.511c0,31.993,16.949,48.84,33.099,57.468c-13.337,25.675-33.099,40.818-33.099,40.818    c-50.648-40.218-45.23-108.815-45.23-108.815h-21.36c0.498,89.857,50.846,123.859,57.065,128.572    c5.814,4.716,6.82,4.012,14.845,4.012c7.222-0.301,23.668-17.048,43.922-48.041c1.811-2.806,4.216-5.915,5.818-8.824    c8.527,1.804,14.947,1.804,14.947,1.804v-19.354c-43.632-4.112-45.636-39.516-45.636-48.24c0-11.533,22.97-16.949,22.97,1.806    c0,10.63-1.811,15.846-4.111,25.473H321.69L321.69,237.797z" style="fill-rule:evenodd;clip-rule:evenodd;fill:#E9D9A8;"/></g></g><g id="Layer_1"/></svg>