<?xml version="1.0" ?><!DOCTYPE svg  PUBLIC '-//W3C//DTD SVG 1.1//EN'  'http://www.w3.org/Graphics/SVG/1.1/DTD/svg11.dtd'><svg height="512px" style="enable-background:new 0 0 512 512;" version="1.1" viewBox="0 0 512 512" width="512px" xml:space="preserve" xmlns="http://www.w3.org/2000/svg" xmlns:xlink="http://www.w3.org/1999/xlink"><g id="social__x2C_media__x2C__vintage__x2C___dropbox__x2C_"><g><path d="M256.101,495.998c126.469,0,230.171-97.885,239.195-222.145    H16.704C25.833,398.113,129.532,495.998,256.101,495.998L256.101,495.998z M495.296,238.151    C486.271,113.987,382.569,16.002,256.101,16.002c-126.568,0-230.268,97.984-239.396,222.148H495.296L495.296,238.151z" style="fill-rule:evenodd;clip-rule:evenodd;fill:#645B4C;"/><path d="M256.101,431.109c96.481,0,175.01-78.729,175.01-175.209    c0-96.178-78.528-175.006-175.01-175.006S81.091,159.722,81.091,255.9C81.091,352.381,159.619,431.109,256.101,431.109    L256.101,431.109z" style="fill-rule:evenodd;clip-rule:evenodd;fill:#E9D9A8;"/><path d="M24.827,238.151h462.547c0.4,5.915,0.501,11.934,0.501,17.849    c0,6.02-0.101,12.037-0.501,17.854H24.827c-0.4-5.816-0.701-11.834-0.701-17.854C24.126,250.084,24.427,244.066,24.827,238.151    L24.827,238.151z" style="fill-rule:evenodd;clip-rule:evenodd;fill:#E9D9A8;"/><path d="M256.101,412.656c86.251,0,156.556-70.406,156.556-156.756    c0-86.251-70.305-156.452-156.556-156.452S99.444,169.649,99.444,255.9C99.444,342.25,169.85,412.656,256.101,412.656    L256.101,412.656z" style="fill-rule:evenodd;clip-rule:evenodd;fill:#645B4C;"/><polygon points="290.399,296.818 339.342,264.828 305.544,237.75     256,268.238   " style="fill-rule:evenodd;clip-rule:evenodd;fill:#E9D9A8;"/><polygon points="256.201,274.354 221.501,302.838 206.657,293.209     206.657,304.041 256.501,333.426 306.148,304.041 306.148,293.209 291.004,302.838   " style="fill-rule:evenodd;clip-rule:evenodd;fill:#E9D9A8;"/><polygon points="172.759,264.828 221.701,296.818 256,268.238     206.558,237.75   " style="fill-rule:evenodd;clip-rule:evenodd;fill:#E9D9A8;"/><polygon points="221.701,178.577 172.759,210.668 206.558,237.75     256,207.158   " style="fill-rule:evenodd;clip-rule:evenodd;fill:#E9D9A8;"/><polygon points="290.399,178.577 256,207.158 305.544,237.75     339.342,210.668   " style="fill-rule:evenodd;clip-rule:evenodd;fill:#E9D9A8;"/></g></g><g id="Layer_1"/></svg>