<?xml version="1.0" ?><!DOCTYPE svg  PUBLIC '-//W3C//DTD SVG 1.1//EN'  'http://www.w3.org/Graphics/SVG/1.1/DTD/svg11.dtd'><svg height="512px" style="enable-background:new 0 0 512 512;" version="1.1" viewBox="0 0 512 512" width="512px" xml:space="preserve" xmlns="http://www.w3.org/2000/svg" xmlns:xlink="http://www.w3.org/1999/xlink"><g id="social__x2C_media__x2C__vintage__x2C__google_wallet__x2C_"><g><path d="M256.101,495.998c126.469,0,230.168-97.885,239.195-222.145    H16.704C25.833,398.113,129.532,495.998,256.101,495.998L256.101,495.998z M495.296,238.147    c-9.027-124.16-112.727-222.145-239.195-222.145c-126.568,0-230.268,97.984-239.396,222.145H495.296L495.296,238.147z" style="fill-rule:evenodd;clip-rule:evenodd;fill:#657C84;"/><path d="M256.101,431.109c96.478,0,175.006-78.729,175.006-175.209    c0-96.281-78.528-175.01-175.006-175.01c-96.481,0-175.01,78.729-175.01,175.01C81.091,352.381,159.619,431.109,256.101,431.109    L256.101,431.109z" style="fill-rule:evenodd;clip-rule:evenodd;fill:#E9D9A8;"/><path d="M24.827,238.147H487.37    c0.401,5.919,0.505,11.934,0.505,17.853c0,5.918-0.104,11.934-0.505,17.854H24.827c-0.4-5.92-0.701-11.936-0.701-17.854    C24.126,250.081,24.427,244.066,24.827,238.147L24.827,238.147z" style="fill-rule:evenodd;clip-rule:evenodd;fill:#E9D9A8;"/><path d="M256.101,412.656c86.251,0,156.452-70.406,156.452-156.756    c0-86.251-70.201-156.456-156.452-156.456S99.444,169.649,99.444,255.9C99.444,342.15,169.85,412.656,256.101,412.656    L256.101,412.656z" style="fill-rule:evenodd;clip-rule:evenodd;fill:#657C84;"/><path d="M315.975,189.506c-2.608-5.515-8.223-9.025-14.242-9.025    c-2.408,0-4.816,0.501-6.921,1.503c-7.822,3.811-11.132,13.14-7.321,20.962c8.127,16.847,12.038,34.7,12.038,53.354    c0,18.555-3.911,36.407-11.938,52.854c-0.101,0.199-1.604,3.109-1.604,6.52c0,1.102,0.301,2.508,0.602,3.609    c0.901,4.713,3.911,8.625,8.424,10.832c2.308,1.002,4.516,1.504,6.92,1.504c5.715,0,10.933-3.109,13.642-8.223    c3.206-5.92,6.516-13.541,9.225-23.568c0.905-2.908,1.507-5.918,2.309-8.828c2.508-11.232,4.011-22.967,4.011-34.8    c-0.203-11.633-1.503-23.467-4.011-34.8C324.498,210.468,320.688,199.636,315.975,189.506L315.975,189.506z" style="fill-rule:evenodd;clip-rule:evenodd;fill:#E9D9A8;"/><path d="M296.018,242.159c-10.13-16.346-24.873-31.089-42.525-41.921    c0.2,0.301,0.301,0.301,0.301,0.301c1.205,0.701,2.207,1.807,3.41,3.009c0.2,0.301,0.501,0.902,0.801,1.303    c9.329,15.544,14.242,33.297,14.242,51.35c0,2.208-2.107,4.312-2.204,6.419c7.519,14.344,9.526,30.488,9.526,47.537    c0,1.305,0,3.41,0,5.117c0-1.809,2.608-3.611,3.209-5.318c0-0.301,1.303-0.602,1.403-0.801    c7.822-16.447,12.238-34.299,12.238-52.854C296.419,249.881,296.419,245.168,296.018,242.159L296.018,242.159z" style="fill-rule:evenodd;clip-rule:evenodd;fill:#E9D9A8;"/><path d="M254.193,203.547c-0.901-1.202-2.208-2.408-3.507-3.41    c-2.509-1.403-5.317-2.508-8.227-2.508c-2.505,0-3.611,0.401-5.414,1.105c-1.808,0.702-3.614,1.804-5.418,3.611    c-1.604,1.803-2.509,3.61-3.407,5.414c-1.306,3.711-1.205,8.724,1.3,12.635c5.317,8.527,8.326,18.053,9.529,27.783    c0.1,2.709,0.504,5.314,0.504,8.123c0,12.635-3.511,24.874-10.033,35.706c-0.298,0.301-0.401,0.801-0.698,1.102    c-1.206,2.609-1.707,5.414-1.406,8.023c0.501,4.613,2.909,8.824,7.021,11.434c1.206,0.701,2.305,1.201,3.41,1.502    c1.503,0.506,3.007,0.605,4.513,0.605c5.218,0,10.131-2.508,12.735-7.121c8.327-13.641,13.141-28.986,14.143-44.932    c0.203-2.107,0.203-4.211,0.203-6.319c0-18.153-4.816-35.906-14.145-51.45C254.998,204.549,254.598,204.148,254.193,203.547    L254.193,203.547z" style="fill-rule:evenodd;clip-rule:evenodd;fill:#E9D9A8;"/><path d="M236.741,247.576c-8.624-11.834-20.558-22.265-34.095-29.486    c-1.907-1.002-4.416-1.807-6.724-1.807c-5.314,0-10.629,3.009-13.137,7.521c-3.61,7.121-2.004,15.849,4.913,19.459    c20.862,11.233,34.399,32.492,34.399,57.265v-0.199c0-2.609,1.807-5.418,3.013-7.924c0.297-0.4,1.202-0.705,1.503-1.105    c6.521-10.729,10.327-23.268,10.327-35.902C236.941,252.89,236.941,250.282,236.741,247.576L236.741,247.576z" style="fill-rule:evenodd;clip-rule:evenodd;fill:#E9D9A8;"/></g></g><g id="Layer_1"/></svg>