<?xml version="1.0" ?><!DOCTYPE svg  PUBLIC '-//W3C//DTD SVG 1.1//EN'  'http://www.w3.org/Graphics/SVG/1.1/DTD/svg11.dtd'><svg height="512px" style="enable-background:new 0 0 512 512;" version="1.1" viewBox="0 0 512 512" width="512px" xml:space="preserve" xmlns="http://www.w3.org/2000/svg" xmlns:xlink="http://www.w3.org/1999/xlink"><g id="social__x2C_media__x2C__vintage__x2C___snapchat__x2C_"><g><path d="M256.104,495.946c126.466,0,230.168-97.885,239.192-222.145    H16.704C25.833,398.062,129.535,495.946,256.104,495.946L256.104,495.946z M495.296,238.198    C486.271,113.938,382.569,16.054,256.104,16.054c-126.568,0-230.271,97.884-239.399,222.145H495.296L495.296,238.198z" style="fill-rule:evenodd;clip-rule:evenodd;fill:#D66527;"/><path d="M256.104,431.059c96.479,0,175.007-78.729,175.007-175.108    c0-96.28-78.528-175.01-175.007-175.01c-96.48,0-175.009,78.729-175.009,175.01C81.094,352.33,159.623,431.059,256.104,431.059    L256.104,431.059z" style="fill-rule:evenodd;clip-rule:evenodd;fill:#E9D9A8;"/><path d="M24.831,238.198h462.543c0.4,5.818,0.501,11.835,0.501,17.752    c0,6.018-0.101,12.032-0.501,17.852H24.831c-0.401-5.819-0.705-11.834-0.705-17.852C24.126,250.033,24.43,244.017,24.831,238.198    L24.831,238.198z" style="fill-rule:evenodd;clip-rule:evenodd;fill:#E9D9A8;"/><path d="M256.104,412.608c86.251,0,156.453-70.409,156.453-156.658    c0-86.25-70.202-156.556-156.453-156.556c-86.254,0-156.655,70.306-156.655,156.556    C99.448,342.199,169.85,412.608,256.104,412.608L256.104,412.608z" style="fill-rule:evenodd;clip-rule:evenodd;fill:#D66527;"/><path d="M326.606,290.151c-7.723-3.11-14.239-7.021-19.256-13.441    c-2.809-3.911-5.414-7.621-7.121-11.934c-2.004-5.816,2.81-7.622,7.422-9.427c18.955-5.919,9.93-15.646,2.007-13.341    c-3.41,1.104-7.421,2.608-10.932,1.404c0-4.312,0.701-8.022,0.701-12.134c2.208-72.912-89.761-59.674-86.15-1.705    c0.101,4.612,0.501,9.227,0.101,13.739c0,0-5.715-1.204-10.228-1.705c-11.132-1.202-12.839,8.225-1.707,12.737    c2.108,0.903,4.212,1.505,6.02,2.307c2.404,1.003,4.312,2.508,4.713,4.613c0.701,2.405-0.505,5.314-1.907,8.023    c-3.711,7.421-9.326,12.535-16.246,17.352c-5.314,3.511-13.137,2.806-16.246,7.919c-0.602,0.604-0.305,3.814,0.501,4.717    c0.501,0.701,1.202,1.302,1.804,1.606c3.51,2.104,7.521,3.006,11.032,3.911c3.811,1.002,6.319,0.2,7.722,3.607    c0.604,2.007,0.902,4.415,1.703,6.82c0.104,0.601,0.705,1.105,1.406,1.202c3.311,0.905,12.339-2.705,20.161-0.698    c5.715,1.403,10.628,5.314,16.347,8.721c3.61,2.412,8.022,4.616,12.936,4.816c3.711,0.301,7.422,0,11.032-0.3    c3.21-0.201,6.119-1.303,8.728-2.81l0.2-0.2c5.916-3.206,11.029-7.318,16.747-9.93c1.904-0.602,4.313-0.802,6.821-0.898    c4.813-0.104,9.626,0.497,14.241,0.497c0.201,0,0.501,0,0.501,0c0.702,0,1.403-0.297,1.704-0.601    c2.107-2.709,1.306-11.534,6.72-11.534c2.81,0,14.042-1.603,16.146-4.512C337.538,294.463,329.716,291.453,326.606,290.151    L326.606,290.151z" style="fill-rule:evenodd;clip-rule:evenodd;fill:#E9D9A8;"/></g></g><g id="Layer_1"/></svg>