<?xml version="1.0" ?><!DOCTYPE svg  PUBLIC '-//W3C//DTD SVG 1.1//EN'  'http://www.w3.org/Graphics/SVG/1.1/DTD/svg11.dtd'><svg height="512px" style="enable-background:new 0 0 512 512;" version="1.1" viewBox="0 0 512 512" width="512px" xml:space="preserve" xmlns="http://www.w3.org/2000/svg" xmlns:xlink="http://www.w3.org/1999/xlink"><g id="social__x2C_media__x2C__vintage__x2C___opera__x2C_"><g><path d="M256.101,495.998c126.469,0,230.067-97.885,239.195-222.145    H16.704C25.831,398.113,129.434,495.998,256.101,495.998L256.101,495.998z M495.296,238.147    c-9.128-124.16-112.727-222.145-239.195-222.145c-126.667,0-230.27,97.984-239.396,222.145H495.296L495.296,238.147z" style="fill-rule:evenodd;clip-rule:evenodd;fill:#D66527;"/><path d="M256.101,431.109c96.381,0,175.01-78.729,175.01-175.209    c0-96.281-78.629-175.01-175.01-175.01c-96.479,0-175.008,78.729-175.008,175.01C81.093,352.381,159.621,431.109,256.101,431.109    L256.101,431.109z" style="fill-rule:evenodd;clip-rule:evenodd;fill:#E9D9A8;"/><path d="M24.829,238.147h462.545c0.4,5.919,0.501,11.934,0.501,17.753    c0,6.016-0.101,12.034-0.501,17.954H24.829c-0.401-5.92-0.703-11.938-0.703-17.954C24.126,250.081,24.428,244.066,24.829,238.147    L24.829,238.147z" style="fill-rule:evenodd;clip-rule:evenodd;fill:#E9D9A8;"/><path d="M256.101,412.557c86.251,0,156.456-70.406,156.456-156.657    c0-86.251-70.205-156.456-156.456-156.456S99.446,169.649,99.446,255.9C99.446,342.15,169.85,412.557,256.101,412.557    L256.101,412.557z" style="fill-rule:evenodd;clip-rule:evenodd;fill:#D66527;"/><path d="M255.9,177.572c-21.563,0-39.214,7.021-52.753,21.563    c-13.739,14.038-20.561,33.093-20.561,56.364c0,21.06,7.021,39.714,20.86,55.358c13.741,15.748,31.393,23.57,52.453,23.57    c21.363,0,38.915-7.822,52.753-23.771c13.841-15.645,20.762-34.098,20.762-55.458c0-23.271-6.72-42.025-20.762-56.263    C294.815,184.592,277.363,177.572,255.9,177.572L255.9,177.572z M282.979,267.834c0,4.111-0.501,8.725-1.002,14.041    c-0.702,5.516-1.507,9.826-2.806,13.639c-1.006,3.51-2.709,7.221-4.616,10.83c-1.907,3.512-4.313,6.221-7.522,8.123    c-3.31,1.809-6.82,2.709-10.932,2.709c-4.312,0-7.723-0.9-10.832-2.709c-3.208-1.902-5.614-4.611-7.42-8.123    c-2.006-3.609-3.511-7.02-4.614-10.83c-1.204-3.512-2.006-8.123-2.507-13.639c-0.503-5.316-0.803-9.93-1.004-13.74    c-0.3-3.912-0.3-8.725-0.3-14.042c0-8.825,0.3-16.246,0.801-22.365c0.503-6.216,1.806-12.335,3.511-18.554    c1.605-6.115,4.313-10.728,8.125-14.038c3.408-3.21,8.323-4.816,14.04-4.816c5.614,0,10.23,1.606,14.041,4.816    c3.812,3.61,6.521,8.223,8.424,13.838c1.808,6.219,3.21,12.539,3.812,18.754c0.601,6.419,0.802,13.741,1.105,22.365    C283.282,259.41,282.979,264.023,282.979,267.834L282.979,267.834z" style="fill-rule:evenodd;clip-rule:evenodd;fill:#E9D9A8;"/></g></g><g id="Layer_1"/></svg>