<?xml version="1.0" ?><!DOCTYPE svg  PUBLIC '-//W3C//DTD SVG 1.1//EN'  'http://www.w3.org/Graphics/SVG/1.1/DTD/svg11.dtd'><svg height="512px" style="enable-background:new 0 0 512 512;" version="1.1" viewBox="0 0 512 512" width="512px" xml:space="preserve" xmlns="http://www.w3.org/2000/svg" xmlns:xlink="http://www.w3.org/1999/xlink"><g id="social__x2C_media__x2C__vintage__x2C___apple__x2C_"><g><path d="M256.098,495.998c126.471,0,230.069-97.885,239.197-222.145    H16.705C25.83,398.113,129.433,495.998,256.098,495.998L256.098,495.998z M495.295,238.147    c-9.128-124.16-112.727-222.145-239.197-222.145c-126.665,0-230.268,97.984-239.393,222.145H495.295L495.295,238.147z" style="fill-rule:evenodd;clip-rule:evenodd;fill:#657C84;"/><path d="M256.098,431.105c96.383,0,175.008-78.729,175.008-175.206    c0-96.281-78.625-175.01-175.008-175.01c-96.478,0-175.006,78.729-175.006,175.01C81.092,352.377,159.62,431.105,256.098,431.105    L256.098,431.105z" style="fill-rule:evenodd;clip-rule:evenodd;fill:#E9D9A8;"/><path d="M24.828,238.147h462.541    c0.401,5.919,0.505,11.934,0.505,17.753c0,6.016-0.104,12.034-0.505,17.954H24.828c-0.404-5.92-0.705-11.938-0.705-17.954    C24.123,250.081,24.424,244.066,24.828,238.147L24.828,238.147z" style="fill-rule:evenodd;clip-rule:evenodd;fill:#E9D9A8;"/><path d="M256.098,412.557c86.253,0,156.454-70.406,156.454-156.657    c0-86.251-70.201-156.456-156.454-156.456c-86.25,0-156.656,70.205-156.656,156.456    C99.441,342.15,169.848,412.557,256.098,412.557L256.098,412.557z" style="fill-rule:evenodd;clip-rule:evenodd;fill:#657C84;"/><path d="M277.863,202.542v-0.1c6.42-6.617,9.426-15.845,8.521-24.97    c-7.822,0.2-17.048,5.113-22.666,11.833c-4.911,5.919-9.523,15.244-8.422,24.369C263.822,214.279,274.65,209.162,277.863,202.542    L277.863,202.542z" style="fill-rule:evenodd;clip-rule:evenodd;fill:#E9D9A8;"/><path d="M298.124,260.912c0-6.318,1.604-11.632,3.808-15.744    c4.816-9.229,12.335-13.841,12.84-14.142c-9.025-13.641-23.066-15.344-28.284-15.645c-11.934-1.203-23.37,7.221-29.384,7.221    c-6.119,0-15.648-6.92-25.575-6.92c-13.04,0.4-25.174,7.922-31.994,19.856c-2.104,3.61-3.611,7.622-4.613,11.834    c-5.818,22.77,3.311,50.749,14.543,67.295c6.319,9.529,14.242,20.361,24.269,19.859c9.83-0.299,13.44-6.318,25.274-6.318    c11.933,0,15.146,6.318,25.573,6.119c10.531-0.1,17.151-9.73,23.668-19.156c7.422-11.232,10.435-21.863,10.635-22.365    C318.683,292.607,298.325,284.682,298.124,260.912L298.124,260.912z" style="fill-rule:evenodd;clip-rule:evenodd;fill:#E9D9A8;"/></g></g><g id="Layer_1"/></svg>