<?xml version="1.0" ?><!DOCTYPE svg  PUBLIC '-//W3C//DTD SVG 1.1//EN'  'http://www.w3.org/Graphics/SVG/1.1/DTD/svg11.dtd'><svg height="512px" style="enable-background:new 0 0 512 512;" version="1.1" viewBox="0 0 512 512" width="512px" xml:space="preserve" xmlns="http://www.w3.org/2000/svg" xmlns:xlink="http://www.w3.org/1999/xlink"><g id="social__x2C_media__x2C__vintage__x2C___stumbleupon__x2C_"><g><path d="M256.102,495.998c126.464,0,230.167-97.984,239.193-222.145    H16.706C25.831,398.014,129.534,495.998,256.102,495.998L256.102,495.998z M495.295,238.147    C486.27,113.887,382.566,16.002,256.102,16.002c-126.568,0-230.271,97.884-239.396,222.145H495.295L495.295,238.147z" style="fill-rule:evenodd;clip-rule:evenodd;fill:#44566A;"/><path d="M256.102,431.109c96.378,0,175.009-78.729,175.009-175.209    c0-96.281-78.631-175.01-175.009-175.01c-96.481,0-175.01,78.729-175.01,175.01C81.092,352.381,159.621,431.109,256.102,431.109    L256.102,431.109z" style="fill-rule:evenodd;clip-rule:evenodd;fill:#E9D9A8;"/><path d="M24.829,238.147h462.546c0.4,5.919,0.498,11.934,0.498,17.753    c0,6.016-0.098,12.034-0.498,17.954H24.829c-0.4-5.92-0.701-11.938-0.701-17.954C24.127,250.081,24.428,244.066,24.829,238.147    L24.829,238.147z" style="fill-rule:evenodd;clip-rule:evenodd;fill:#E9D9A8;"/><path d="M256.102,412.557c86.251,0,156.457-70.406,156.457-156.657    c0-86.251-70.205-156.456-156.457-156.456c-86.251,0-156.656,70.205-156.656,156.456    C99.446,342.15,169.851,412.557,256.102,412.557L256.102,412.557z" style="fill-rule:evenodd;clip-rule:evenodd;fill:#44566A;"/><path d="M265.631,240.255l11.029,5.314l16.551-5.314v-9.73    c0-20.057-17.152-36.305-37.109-36.305c-20.157,0-37.309,16.248-37.309,36.305v50.95c0,4.713-2.909,8.623-7.622,8.623    c-4.616,0-7.726-3.91-7.726-8.623v-21.664h-28.28v21.664c0,19.957,15.945,36.303,35.905,36.303    c20.157,0,36.007-16.346,36.007-36.303v-50.95c0-4.712,4.512-8.624,9.325-8.624c4.712,0,9.228,3.912,9.228,8.624V240.255z" style="fill-rule:evenodd;clip-rule:evenodd;fill:#E9D9A8;"/><path d="M309.256,281.475c0,4.713-3.209,8.623-8.023,8.623    c-4.713,0-8.021-3.91-8.021-8.623v-21.664l-16.551,5.215l-11.029-5.215v21.664c0,19.957,15.541,36.303,35.502,36.303    c20.158,0,35.701-16.346,35.701-36.303v-21.664h-27.578V281.475z" style="fill-rule:evenodd;clip-rule:evenodd;fill:#E9D9A8;"/></g></g><g id="Layer_1"/></svg>