<?xml version="1.0" ?><svg height="512" id="SVGRoot" version="1.1" viewBox="0 0 512 512" width="512" xmlns="http://www.w3.org/2000/svg" xmlns:cc="http://creativecommons.org/ns#" xmlns:dc="http://purl.org/dc/elements/1.1/" xmlns:inkscape="http://www.inkscape.org/namespaces/inkscape" xmlns:rdf="http://www.w3.org/1999/02/22-rdf-syntax-ns#" xmlns:sodipodi="http://sodipodi.sourceforge.net/DTD/sodipodi-0.dtd" xmlns:svg="http://www.w3.org/2000/svg"><defs id="defs1839"/><g id="layer1" transform="translate(0,480)"><path d="m 198.4,-368 c -47.69954,0 -86.4,38.70046 -86.4,86.4 v 115.2 c 0,47.69954 38.70046,86.4 86.4,86.4 h 115.2 c 47.69954,0 86.4,-38.70046 86.4,-86.4 v -115.2 c 0,-47.69954 -38.70046,-86.4 -86.4,-86.4 z m 0,19.2 h 115.2 c 37.39486,0 67.2,29.80514 67.2,67.2 v 115.2 c 0,37.39486 -29.80514,67.2 -67.2,67.2 H 198.4 c -37.39486,0 -67.2,-29.80514 -67.2,-67.2 v -115.2 c 0,-37.39486 29.80514,-67.2 67.2,-67.2 z" id="rect14030" style="color:#000000;font-style:normal;font-variant:normal;font-weight:normal;font-stretch:normal;font-size:medium;line-height:normal;font-family:sans-serif;font-variant-ligatures:normal;font-variant-position:normal;font-variant-caps:normal;font-variant-numeric:normal;font-variant-alternates:normal;font-feature-settings:normal;text-indent:0;text-align:start;text-decoration:none;text-decoration-line:none;text-decoration-style:solid;text-decoration-color:#000000;letter-spacing:normal;word-spacing:normal;text-transform:none;writing-mode:lr-tb;direction:ltr;text-orientation:mixed;dominant-baseline:auto;baseline-shift:baseline;text-anchor:start;white-space:normal;shape-padding:0;clip-rule:nonzero;display:inline;overflow:visible;visibility:visible;opacity:1;isolation:auto;mix-blend-mode:normal;color-interpolation:sRGB;color-interpolation-filters:linearRGB;solid-color:#000000;solid-opacity:1;vector-effect:none;fill:#808080;fill-opacity:1;fill-rule:nonzero;stroke:none;stroke-width:1;stroke-linecap:square;stroke-linejoin:round;stroke-miterlimit:4;stroke-dasharray:none;stroke-dashoffset:0;stroke-opacity:1;paint-order:fill markers stroke;color-rendering:auto;image-rendering:auto;shape-rendering:auto;text-rendering:auto;enable-background:accumulate"/><path d="m 256,-291.2 c -36.99982,0 -67.2,30.20018 -67.2,67.2 0,36.99982 30.20018,67.2 67.2,67.2 36.99982,0 67.2,-30.20018 67.2,-67.2 0,-36.99982 -30.20018,-67.2 -67.2,-67.2 z m 0,19.2 c 26.62338,0 48,21.37662 48,48 0,26.62338 -21.37662,48 -48,48 -26.62338,0 -48,-21.37662 -48,-48 0,-26.62338 21.37662,-48 48,-48 z" id="path14032" style="color:#000000;font-style:normal;font-variant:normal;font-weight:normal;font-stretch:normal;font-size:medium;line-height:normal;font-family:sans-serif;font-variant-ligatures:normal;font-variant-position:normal;font-variant-caps:normal;font-variant-numeric:normal;font-variant-alternates:normal;font-feature-settings:normal;text-indent:0;text-align:start;text-decoration:none;text-decoration-line:none;text-decoration-style:solid;text-decoration-color:#000000;letter-spacing:normal;word-spacing:normal;text-transform:none;writing-mode:lr-tb;direction:ltr;text-orientation:mixed;dominant-baseline:auto;baseline-shift:baseline;text-anchor:start;white-space:normal;shape-padding:0;clip-rule:nonzero;display:inline;overflow:visible;visibility:visible;opacity:1;isolation:auto;mix-blend-mode:normal;color-interpolation:sRGB;color-interpolation-filters:linearRGB;solid-color:#000000;solid-opacity:1;vector-effect:none;fill:#808080;fill-opacity:1;fill-rule:nonzero;stroke:none;stroke-width:1;stroke-linecap:square;stroke-linejoin:round;stroke-miterlimit:4;stroke-dasharray:none;stroke-dashoffset:0;stroke-opacity:1;paint-order:fill markers stroke;color-rendering:auto;image-rendering:auto;shape-rendering:auto;text-rendering:auto;enable-background:accumulate"/><circle cx="332.79999" cy="-300.79999" id="path14034" r="19.200001" style="opacity:1;vector-effect:none;fill:#808080;fill-opacity:1;stroke:none;stroke-width:1;stroke-linecap:square;stroke-linejoin:round;stroke-miterlimit:4;stroke-dasharray:none;stroke-dashoffset:0;stroke-opacity:1;paint-order:fill markers stroke"/><g id="layer1-5" style="stroke-width:0.0625" transform="matrix(16,0,0,16,0,-480)"><path d="m 4.5,2.75 v 1 H 5 9 9.5 23 c 1.947649,0 3.5,1.552351 3.5,3.5 v 15.5 4.5 h 1 V 22.75 7.25 C 27.5,4.765649 25.484351,2.75 23,2.75 H 9.5 9 5 Z m 0,2 v 2.5 17.5 c 0,2.484351 2.015649,4.5 4.5,4.5 h 12 6.5 v -1 H 26.5 25 21 9 c -1.947649,0 -3.5,-1.552351 -3.5,-3.5 V 7.25 4.75 Z" id="path8211" style="color:#000000;font-style:normal;font-variant:normal;font-weight:normal;font-stretch:normal;font-size:medium;line-height:normal;font-family:sans-serif;font-variant-ligatures:normal;font-variant-position:normal;font-variant-caps:normal;font-variant-numeric:normal;font-variant-alternates:normal;font-feature-settings:normal;text-indent:0;text-align:start;text-decoration:none;text-decoration-line:none;text-decoration-style:solid;text-decoration-color:#000000;letter-spacing:normal;word-spacing:normal;text-transform:none;writing-mode:lr-tb;direction:ltr;text-orientation:mixed;dominant-baseline:auto;baseline-shift:baseline;text-anchor:start;white-space:normal;shape-padding:0;clip-rule:nonzero;display:inline;overflow:visible;visibility:visible;opacity:1;isolation:auto;mix-blend-mode:normal;color-interpolation:sRGB;color-interpolation-filters:linearRGB;solid-color:#000000;solid-opacity:1;vector-effect:none;fill:#808080;fill-opacity:1;fill-rule:nonzero;stroke:none;stroke-width:0.0625;stroke-linecap:butt;stroke-linejoin:round;stroke-miterlimit:4;stroke-dasharray:none;stroke-dashoffset:0;stroke-opacity:1;paint-order:fill markers stroke;color-rendering:auto;image-rendering:auto;shape-rendering:auto;text-rendering:auto;enable-background:accumulate"/><path d="" id="path3773" style="fill:#000000;stroke-width:0.0625"/><path d="" id="path3771" style="fill:#000000;stroke-width:0.0625"/><path d="" id="path3790" style="fill:#000000;stroke-width:0.0625"/><path d="" id="path3788" style="fill:#000000;stroke-width:0.0625"/><path d="" id="path3786" style="fill:#000000;stroke-width:0.0625"/><path d="" id="path3805" style="fill:#000000;stroke-width:0.0625"/><path d="" id="path3822" style="fill:#000000;stroke-width:0.0625"/><path d="" id="path3820" style="fill:#000000;stroke-width:0.0625"/><path d="" id="path3818" style="fill:#000000;stroke-width:0.0625"/></g></g></svg>