<?xml version="1.0" ?><svg height="512" id="SVGRoot" version="1.1" viewBox="0 0 512 512" width="512" xmlns="http://www.w3.org/2000/svg" xmlns:cc="http://creativecommons.org/ns#" xmlns:dc="http://purl.org/dc/elements/1.1/" xmlns:inkscape="http://www.inkscape.org/namespaces/inkscape" xmlns:rdf="http://www.w3.org/1999/02/22-rdf-syntax-ns#" xmlns:sodipodi="http://sodipodi.sourceforge.net/DTD/sodipodi-0.dtd" xmlns:svg="http://www.w3.org/2000/svg"><defs id="defs1839"/><g id="layer1" transform="translate(0,480)"><path d="" id="path3773" style="fill:#000000"/><path d="" id="path3771" style="fill:#000000"/><path d="" id="path3790" style="fill:#000000"/><path d="" id="path3788" style="fill:#000000"/><path d="" id="path3786" style="fill:#000000"/><path d="" id="path3805" style="fill:#000000;stroke-width:1"/><path d="" id="path3822" style="fill:#000000;stroke-width:1"/><path d="" id="path3820" style="fill:#000000;stroke-width:1"/><path d="" id="path3818" style="fill:#000000;stroke-width:1"/><path d="" id="path2048" style="fill:#000000;stroke-width:1"/><g id="g3479" style="stroke-width:0.0625" transform="matrix(16,0,0,16,0,-480)"><path d="m 4.5,2.75 v 1 H 5 9 9.5 23 c 1.947649,0 3.5,1.5523514 3.5,3.5 v 15.5 4.5 h 1 V 22.75 7.25 C 27.5,4.7656486 25.484351,2.75 23,2.75 H 9.5 9 5 Z m 0,2 v 2.5 17.5 c 0,2.484351 2.0156486,4.5 4.5,4.5 h 12 6.5 v -1 H 26.5 25 21 9 c -1.9476486,0 -3.5,-1.552351 -3.5,-3.5 V 7.25 4.75 Z" id="path8211" style="color:#000000;font-style:normal;font-variant:normal;font-weight:normal;font-stretch:normal;font-size:medium;line-height:normal;font-family:sans-serif;font-variant-ligatures:normal;font-variant-position:normal;font-variant-caps:normal;font-variant-numeric:normal;font-variant-alternates:normal;font-feature-settings:normal;text-indent:0;text-align:start;text-decoration:none;text-decoration-line:none;text-decoration-style:solid;text-decoration-color:#000000;letter-spacing:normal;word-spacing:normal;text-transform:none;writing-mode:lr-tb;direction:ltr;text-orientation:mixed;dominant-baseline:auto;baseline-shift:baseline;text-anchor:start;white-space:normal;shape-padding:0;clip-rule:nonzero;display:inline;overflow:visible;visibility:visible;opacity:1;isolation:auto;mix-blend-mode:normal;color-interpolation:sRGB;color-interpolation-filters:linearRGB;solid-color:#000000;solid-opacity:1;vector-effect:none;fill:#808080;fill-opacity:1;fill-rule:nonzero;stroke:none;stroke-width:0.0625;stroke-linecap:butt;stroke-linejoin:round;stroke-miterlimit:4;stroke-dasharray:none;stroke-dashoffset:0;stroke-opacity:1;paint-order:fill markers stroke;color-rendering:auto;image-rendering:auto;shape-rendering:auto;text-rendering:auto;enable-background:accumulate"/><path d="M 12.400469,23.799197 C 11.376296,23.649 10.447398,23.165454 9.660404,22.372832 8.874679,21.581489 8.467667,20.848052 8.26218,19.853223 8.11525,19.141888 8.114662,12.906766 8.261459,12.196079 c 0.389042,-1.883475 1.82544,-3.3959503 3.660529,-3.8544076 0.468973,-0.1171626 0.82546,-0.1534926 1.803277,-0.183774 1.806087,-0.055932 2.947299,0.025896 3.6875,0.2644037 1.254875,0.4043453 2.232109,1.2304423 2.896745,2.4487399 0.322674,0.591472 0.469086,1.092263 0.568247,1.94364 0.09572,0.821804 0.160015,0.969063 0.534373,1.223849 0.176349,0.120022 0.289969,0.140849 0.775503,0.142153 0.312886,8.41e-4 0.695445,0.03054 0.850133,0.066 0.340758,0.07811 0.664652,0.371541 0.750262,0.679705 0.08157,0.293607 0.07991,3.766882 -0.0021,4.441912 -0.27693,2.278928 -1.94161,4.030519 -4.212746,4.43269 -0.442649,0.07838 -6.636542,0.07684 -7.172692,-0.0018 z m 6.937275,-4.020354 c 0.674565,-0.350975 0.716116,-1.282649 0.07502,-1.68213 -0.215511,-0.13429 -0.262698,-0.136608 -3.1875,-0.156565 -3.392188,-0.02314 -3.495484,-0.01325 -3.83971,0.367765 -0.195858,0.216792 -0.222762,0.286246 -0.222556,0.574547 2.75e-4,0.387797 0.152242,0.676573 0.45232,0.859533 0.196184,0.119615 0.320781,0.124204 3.378675,0.124429 2.605368,1.87e-4 3.205258,-0.01552 3.34375,-0.08758 z m -2.827098,-5.692555 c 0.280836,-0.16458 0.527119,-0.562247 0.527119,-0.851123 0,-0.245809 -0.262213,-0.6986 -0.493617,-0.852381 -0.207885,-0.13815 -0.249579,-0.141129 -1.975133,-0.141129 -1.730022,0 -1.766681,0.0026 -1.973645,0.142112 -0.589889,0.397526 -0.669088,1.125223 -0.172886,1.588509 0.08063,0.07528 0.216893,0.164902 0.302813,0.199163 0.08928,0.0356 0.877,0.06399 1.838227,0.06625 l 1.682009,0.004 z" id="path2050" style="opacity:1;vector-effect:none;fill:#808080;fill-opacity:1;stroke:none;stroke-width:0.9375;stroke-linecap:butt;stroke-linejoin:round;stroke-miterlimit:4;stroke-dasharray:none;stroke-dashoffset:0;stroke-opacity:1;paint-order:fill markers stroke"/></g></g></svg>