<?xml version="1.0" ?><!DOCTYPE svg  PUBLIC '-//W3C//DTD SVG 1.1//EN'  'http://www.w3.org/Graphics/SVG/1.1/DTD/svg11.dtd'><svg enable-background="new 0 0 128 128" height="128px" id="Layer_1" version="1.1" viewBox="0 0 128 128" width="128px" xml:space="preserve" xmlns="http://www.w3.org/2000/svg" xmlns:xlink="http://www.w3.org/1999/xlink"><g><g><path d="M18.161,18.215v47.882h91.678V18.215H18.161z M107.839,64.097H20.161V20.215h87.678V64.097z" fill="#2BACE2"/><path d="M64.001,54.327c6.712,0,12.172-5.46,12.172-12.172s-5.46-12.173-12.172-12.173    s-12.173,5.461-12.173,12.173S57.289,54.327,64.001,54.327z M64.001,31.982c5.608,0,10.172,4.563,10.172,10.173    c0,5.608-4.563,10.172-10.172,10.172c-5.609,0-10.173-4.563-10.173-10.172C53.828,36.546,58.392,31.982,64.001,31.982z" fill="#2BACE2"/><path d="M108.839,73.033H19.161c-0.553,0-1,0.448-1,1s0.447,1,1,1h89.678c0.553,0,1-0.448,1-1    S109.392,73.033,108.839,73.033z" fill="#2BACE2"/><path d="M108.839,81.972H19.161c-0.553,0-1,0.447-1,1c0,0.552,0.447,1,1,1h89.678c0.553,0,1-0.448,1-1    C109.839,82.419,109.392,81.972,108.839,81.972z" fill="#2BACE2"/><path d="M108.839,90.909H19.161c-0.553,0-1,0.447-1,1s0.447,1,1,1h89.678c0.553,0,1-0.447,1-1    S109.392,90.909,108.839,90.909z" fill="#2BACE2"/><path d="M108.839,99.847H19.161c-0.553,0-1,0.448-1,1c0,0.553,0.447,1,1,1h89.678c0.553,0,1-0.447,1-1    C109.839,100.295,109.392,99.847,108.839,99.847z" fill="#2BACE2"/></g><line fill="none" stroke="#2BACE2" stroke-linecap="round" stroke-miterlimit="10" stroke-width="2" x1="19.161" x2="108.839" y1="109.785" y2="109.785"/></g></svg>