<?xml version="1.0" ?><svg id="border" viewBox="0 0 48 48" xmlns="http://www.w3.org/2000/svg" xmlns:xlink="http://www.w3.org/1999/xlink"><defs><style>.cls-1,.cls-4{fill:none;}.cls-2{fill:#093;}.cls-2,.cls-3,.cls-4{stroke:#000;}.cls-2,.cls-3,.cls-4,.cls-5,.cls-6,.cls-7{stroke-miterlimit:10;}.cls-3{fill:#fc0;stroke-width:0.1px;}.cls-4,.cls-5,.cls-6,.cls-7{stroke-linecap:round;}.cls-5,.cls-7{fill:#ad9d4d;}.cls-5,.cls-6,.cls-7{stroke:#1d1d1b;}.cls-5{fill-rule:evenodd;}.cls-6{fill:url(#Degradado_sin_nombre_6);}.cls-7{stroke-width:0.25px;}</style><radialGradient cx="30" cy="30" gradientUnits="userSpaceOnUse" id="Degradado_sin_nombre_6" r="11"><stop offset="0.88" stop-color="#fff"/><stop offset="1"/></radialGradient><symbol data-name="material_system_icon_border" id="material_system_icon_border" viewBox="0 0 48 48"><rect class="cls-1" height="48" width="48"/></symbol></defs><title/><use data-name="material_system_icon_border" height="48" id="material_system_icon_border-3" width="48" xlink:href="#material_system_icon_border"/><rect class="cls-2" height="27" width="35" x="4.5" y="4.5"/><path class="cls-3" d="M12,23.44l0-4h2.77l0-3H9.16a1.4,1.4,0,0,1-1.39,1,1.48,1.48,0,0,1,0-3,1.32,1.32,0,0,1,1.39,1h5.62v-3H9.16a1.4,1.4,0,0,1-1.39,1,1.48,1.48,0,0,1,0-3,1.32,1.32,0,0,1,1.39,1h5.59l0-3H9.16a1.4,1.4,0,0,1-1.39,1,1.48,1.48,0,0,1,0-3,1.32,1.32,0,0,1,1.39,1H16v8.7l5,0.06V8.58a1.4,1.4,0,0,1-1-1.39,1.48,1.48,0,0,1,3,0,1.32,1.32,0,0,1-1,1.39V16.2h4V9.58a1.4,1.4,0,0,1-1-1.39,1.48,1.48,0,0,1,3,0,1.32,1.32,0,0,1-1,1.39V16.2h3V8.58a1.4,1.4,0,0,1-1-1.39,1.48,1.48,0,0,1,3,0,1.32,1.32,0,0,1-1,1.39v1l5,0h1v2.76a1.4,1.4,0,0,1,1,1.39,1.48,1.48,0,1,1-3,0,1.32,1.32,0,0,1,1-1.39V10.59l-5,.08V17.2H16v2.24h0.92a1.4,1.4,0,0,1,1.39-1,1.48,1.48,0,1,1,0,3,1.32,1.32,0,0,1-1.39-1H13v3h2.92a1.4,1.4,0,0,1,1.39-1,1.48,1.48,0,1,1,0,3,1.32,1.32,0,0,1-1.39-1H13v4H9.16a1.4,1.4,0,0,1-1.39,1,1.48,1.48,0,0,1,0-3,1.32,1.32,0,0,1,1.39,1H12v-3H9.16a1.4,1.4,0,0,1-1.39,1,1.48,1.48,0,0,1,0-3,1.32,1.32,0,0,1,1.39,1H12"/><rect class="cls-4" height="28" id="base" rx="1" ry="1" width="36" x="4" y="4"/><path class="cls-5" d="M30,16A14,14,0,1,1,16,30,14,14,0,0,1,30,16ZM41,30A11,11,0,1,0,30,41,11,11,0,0,0,41,30Z"/><path class="cls-6" d="M30,19A11,11,0,1,1,19,30,11,11,0,0,1,30,19Z"/><g id="stratis"><polygon class="cls-7" points="30 37.78 20.73 31.6 30 25.42 39.27 31.6 30 37.78"/><polygon class="cls-7" points="30 35.72 20.73 29.54 30 23.36 39.27 29.54 30 35.72"/><polygon class="cls-7" points="30 33.66 20.73 27.48 30 21.3 39.27 27.48 30 33.66"/></g></svg>