<?xml version="1.0" ?><!DOCTYPE svg  PUBLIC '-//W3C//DTD SVG 1.1//EN'  'http://www.w3.org/Graphics/SVG/1.1/DTD/svg11.dtd'><svg enable-background="new 0 0 1024 1024" height="1024px" version="1.1" viewBox="0 0 1024 1024" width="1024px" xml:space="preserve" xmlns="http://www.w3.org/2000/svg" xmlns:xlink="http://www.w3.org/1999/xlink"><g id="Background"><linearGradient gradientUnits="userSpaceOnUse" id="SVGID_1_" x1="861.7026" x2="162.2978" y1="1117.7021" y2="-93.7025"><stop offset="0" style="stop-color:#20254C"/><stop offset="0.0571" style="stop-color:#29254D"/><stop offset="0.1502" style="stop-color:#41234F"/><stop offset="0.2679" style="stop-color:#692152"/><stop offset="0.4039" style="stop-color:#A01F57"/><stop offset="0.5333" style="stop-color:#DA1C5C"/><stop offset="0.5924" style="stop-color:#DC255A"/><stop offset="0.6889" style="stop-color:#E13D56"/><stop offset="0.8106" style="stop-color:#EA654E"/><stop offset="0.9515" style="stop-color:#F69C44"/><stop offset="1" style="stop-color:#FBB040"/></linearGradient><path d="M0,0v1024h1024V0H0z M964,964H60L59.86,59.984H964V964z" fill="url(#SVGID_1_)"/></g><g id="Instagram"><g id="Instagram_1_"><linearGradient gradientUnits="userSpaceOnUse" id="SVGID_2_" x1="675.3359" x2="642.1943" y1="393.2651" y2="335.8622"><stop offset="0.2" style="stop-color:#DA1C5C"/><stop offset="0.3454" style="stop-color:#DF3158"/><stop offset="0.647" style="stop-color:#EB684E"/><stop offset="1" style="stop-color:#FBB040"/></linearGradient><circle cx="658.765" cy="364.563" fill="url(#SVGID_2_)" r="33.136" stroke="#C78000" stroke-miterlimit="10"/><linearGradient gradientUnits="userSpaceOnUse" id="SVGID_3_" x1="561.2236" x2="462.7762" y1="647.2407" y2="376.7588"><stop offset="0" style="stop-color:#20254C"/><stop offset="0.1235" style="stop-color:#582251"/><stop offset="0.2623" style="stop-color:#8F2056"/><stop offset="0.3819" style="stop-color:#B81E59"/><stop offset="0.4761" style="stop-color:#D11C5B"/><stop offset="0.5333" style="stop-color:#DA1C5C"/><stop offset="0.5935" style="stop-color:#DC265A"/><stop offset="0.696" style="stop-color:#E24155"/><stop offset="0.8284" style="stop-color:#EC6D4D"/><stop offset="0.9842" style="stop-color:#FAA941"/><stop offset="1" style="stop-color:#FBB040"/></linearGradient><path d="M512,655.912c-79.353,0-143.912-64.559-143.912-143.912c0-79.354,64.559-143.912,143.912-143.912    c79.354,0,143.913,64.559,143.913,143.912C655.913,591.354,591.354,655.912,512,655.912z M512,413.088    c-54.54,0-98.912,44.372-98.912,98.912c0,54.54,44.372,98.912,98.912,98.912c54.541,0,98.913-44.372,98.913-98.912    C610.913,457.46,566.541,413.088,512,413.088z" fill="url(#SVGID_3_)"/><linearGradient gradientUnits="userSpaceOnUse" id="SVGID_4_" x1="619.1548" x2="404.8457" y1="806.4048" y2="217.5956"><stop offset="0" style="stop-color:#20254C"/><stop offset="0.1235" style="stop-color:#582251"/><stop offset="0.2623" style="stop-color:#8F2056"/><stop offset="0.3819" style="stop-color:#B81E59"/><stop offset="0.4761" style="stop-color:#D11C5B"/><stop offset="0.5333" style="stop-color:#DA1C5C"/><stop offset="0.5935" style="stop-color:#DC265A"/><stop offset="0.696" style="stop-color:#E24155"/><stop offset="0.8284" style="stop-color:#EC6D4D"/><stop offset="0.9842" style="stop-color:#FAA941"/><stop offset="1" style="stop-color:#FBB040"/></linearGradient><path d="M603.643,800.006H420.358c-103.388,0-187.5-84.112-187.5-187.5V411.495    c0-103.388,84.112-187.5,187.5-187.5h183.284c103.388,0,187.5,84.112,187.5,187.5v201.011    C791.143,715.894,707.03,800.006,603.643,800.006z M420.358,268.995c-78.575,0-142.5,63.925-142.5,142.5v201.011    c0,78.575,63.925,142.5,142.5,142.5h183.284c78.575,0,142.5-63.925,142.5-142.5V411.495c0-78.575-63.925-142.5-142.5-142.5    H420.358z" fill="url(#SVGID_4_)"/></g></g></svg>