<?xml version="1.0" ?><svg height="60px" version="1.1" viewBox="0 0 60 60" width="60px" xmlns="http://www.w3.org/2000/svg" xmlns:xlink="http://www.w3.org/1999/xlink"><title/><desc/><defs/><g fill="none" fill-rule="evenodd" id="Page-1" stroke="none" stroke-width="1"><g fill-rule="nonzero" id="016---Volume"><g id="Icons" stroke="#7D5E46" transform="translate(1.000000, 1.000000)"><ellipse cx="29" cy="29" fill="#72808E" id="Oval" rx="29" ry="28.875"/><path d="M19,25 L23,25 L23,33 L19,33 C17.8954305,33 17,32.1045695 17,31 L17,27 C17,25.8954305 17.8954305,25 19,25 Z" fill="#E98290" id="Shape"/><path d="M32.78058,17.47644 L23,25 L23,33 L32.78058,40.5235 C33.3845142,40.9880638 34.1999488,41.0691137 34.8835137,40.7325205 C35.5670787,40.3959272 36.0000079,39.7001723 36,38.93823 L36,19.06171 C36.0000079,18.2997677 35.5670787,17.6040128 34.8835137,17.2674195 C34.1999488,16.9308263 33.3845142,17.0118762 32.78058,17.47644 Z" fill="#FF8792" id="Shape"/></g><g fill="#7D5E46" id="Layer_12"><path d="M30,59.875 C13.516729,59.8061758 0.203712938,46.4001913 0.249595741,29.9168404 C0.295478545,13.4334895 13.6829211,0.101828045 30.1663198,0.124769353 C46.6497186,0.147710662 59.9999998,13.5165853 60,30 C59.9467204,46.5262011 46.5262795,59.8907235 30,59.875 Z M30,2.125 C14.6212947,2.19380832 2.20369152,14.7043573 2.24956401,30.0831481 C2.29543649,45.4619389 14.787452,57.8981865 30.1662941,57.87525 C45.5451362,57.8523134 58.0000005,45.3788592 58,30 C57.9479795,14.5778464 45.422232,2.10801744 30,2.125 Z" id="Shape"/><path d="M30,55.875 C15.7258624,55.8062083 4.20367241,44.1910968 4.24953355,29.9168671 C4.29539468,15.6426374 15.8919815,4.1018034 30.1662665,4.12473387 C44.4405514,4.14766433 55.9999997,15.7256966 56,30 C55.9494092,44.3181773 44.3182549,55.8934126 30,55.875 Z M30,6.125 C16.8304243,6.19376862 6.20363798,16.9134441 6.24948467,30.0831195 C6.29533136,43.2527949 16.9964946,53.898223 30.1662298,53.8752983 C43.3359651,53.8523737 54.0000025,43.1697552 54,30 C53.950323,16.7860145 43.2140648,6.10567421 30,6.125 Z" id="Shape"/><path d="M24,34.9999999 L20,34.9999999 C18.3438951,34.9981922 17.0018077,33.6561048 17,32 L17,28 C17.0018077,26.3438951 18.3438951,25.0018077 20,25 L24,25 C24.2652376,24.999931 24.5196316,25.1052657 24.7071829,25.292817 C24.8947343,25.4803684 25.000069,25.7347624 25,26 L25,33.9999999 C25.000069,34.2652376 24.8947343,34.5196316 24.7071829,34.7071829 C24.5196316,34.8947342 24.2652376,35.0000689 24,34.9999999 Z M20,27 C19.4479437,27.0005512 19.0005512,27.4479437 19,28 L19,32 C19.0005512,32.5520563 19.4479437,32.9994488 20,33 L23,33 L23,27 L20,27 Z" id="Shape"/><path d="M37,31 C36.7347624,31.000069 36.4803684,30.8947343 36.292817,30.707183 C36.1052657,30.5196316 35.999931,30.2652376 36,30 L36,20.06152 C35.9997535,19.6805146 35.7831254,19.3327204 35.4412726,19.164489 C35.0994198,18.9962575 34.6916878,19.0367937 34.38965,19.26904 L25,26.49219 L25,30 C25,30.5522847 24.5522847,31 24,31 C23.4477153,31 23,30.5522847 23,30 L23,26 C23.0000343,25.6895012 23.1443839,25.3966558 23.39063,25.20752 L33.1709,17.68408 C34.0767446,16.9873448 35.2997562,16.8657663 36.3250408,17.3705296 C37.3503253,17.8752929 37.9997873,18.9187189 38,20.06152 L38,30 C38.000069,30.2652376 37.8947343,30.5196316 37.707183,30.707183 C37.5196316,30.8947343 37.2652376,31.000069 37,31 Z" id="Shape"/><path d="M34.99609,42.94141 C34.3352226,42.9407349 33.6932682,42.7207381 33.1709,42.31592 L23.39063,34.79248 C23.1443839,34.6033442 23.0000343,34.3104988 23,34 L23,30 C23,29.4477153 23.4477153,29 24,29 C24.5522847,29 25,29.4477153 25,30 L25,33.50781 L34.38965,40.731 C34.6916935,40.9632507 35.0994346,41.0037837 35.4412905,40.8355422 C35.7831465,40.6673007 35.9997688,40.3194926 36,39.93848 L36,30 C36,29.4477153 36.4477153,29 37,29 C37.5522847,29 38,29.4477153 38,30 L38,39.93848 C37.9965711,41.5959125 36.6535235,42.9385219 34.99609,42.94141 Z" id="Shape"/></g></g></g></svg>