<?xml version="1.0" ?><svg height="60px" version="1.1" viewBox="0 0 60 60" width="60px" xmlns="http://www.w3.org/2000/svg" xmlns:xlink="http://www.w3.org/1999/xlink"><title/><desc/><defs/><g fill="none" fill-rule="evenodd" id="Page-1" stroke="none" stroke-width="1"><g fill-rule="nonzero" id="004---Pause"><g id="Icons" stroke="#7D5E46" transform="translate(1.000000, 1.000000)"><ellipse cx="29" cy="29" fill="#CAB8DA" id="Oval" rx="29" ry="28.875"/><rect fill="#A67A96" height="20" id="Rectangle-path" rx="2" width="6" x="20" y="19"/><rect fill="#A67A96" height="20" id="Rectangle-path" rx="2" width="6" x="32" y="19"/></g><g fill="#7D5E46" id="Layer_12"><path d="M30,59.875 C13.516729,59.8061758 0.203712938,46.4001913 0.249595741,29.9168404 C0.295478545,13.4334895 13.6829211,0.101828045 30.1663198,0.124769353 C46.6497186,0.147710662 59.9999998,13.5165853 60,30 C59.9467204,46.5262011 46.5262795,59.8907235 30,59.875 Z M30,2.125 C14.6212947,2.19380832 2.20369152,14.7043573 2.24956401,30.0831481 C2.29543649,45.4619389 14.787452,57.8981865 30.1662941,57.87525 C45.5451362,57.8523134 58.0000005,45.3788592 58,30 C57.9479795,14.5778464 45.422232,2.10801744 30,2.125 Z" id="Shape"/><path d="M30,55.875 C15.7258624,55.8062083 4.20367241,44.1910968 4.24953355,29.9168671 C4.29539468,15.6426374 15.8919815,4.1018034 30.1662665,4.12473387 C44.4405514,4.14766433 55.9999997,15.7256966 56,30 C55.9492389,44.3181062 44.3181845,55.893242 30,55.875 Z M30,6.125 C16.8304243,6.19376862 6.20363798,16.9134441 6.24948467,30.0831195 C6.29533136,43.2527949 16.9964946,53.898223 30.1662298,53.8752983 C43.3359651,53.8523737 54.0000025,43.1697552 54,30 C53.950323,16.7860145 43.2140648,6.10567421 30,6.125 Z" id="Shape"/><path d="M25,41 L23,41 C21.3438951,40.9981923 20.0018077,39.6561049 20,38 L20,22 C20.0018077,20.3438951 21.3438951,19.0018077 23,19 L25,19 C26.6561049,19.0018077 27.9981923,20.3438951 28,22 L28,38 C27.9981923,39.6561049 26.6561049,40.9981923 25,41 Z M23,21 C22.4480122,21.0007162 22.0007162,21.4480122 22,22 L22,38 C22.0007162,38.5519878 22.4480122,38.9992838 23,39 L25,39 C25.5519878,38.9992838 25.9992838,38.5519878 26,38 L26,22 C25.9992838,21.4480122 25.5519878,21.0007162 25,21 L23,21 Z" id="Shape"/><path d="M37,41 L35,41 C33.3438951,40.9981923 32.0018077,39.6561049 32,38 L32,22 C32.0018077,20.3438951 33.3438951,19.0018077 35,19 L37,19 C38.6561049,19.0018077 39.9981923,20.3438951 40,22 L40,38 C39.9981923,39.6561049 38.6561049,40.9981923 37,41 Z M35,21 C34.4480122,21.0007162 34.0007162,21.4480122 34,22 L34,38 C34.0007162,38.5519878 34.4480122,38.9992838 35,39 L37,39 C37.5519878,38.9992838 37.9992838,38.5519878 38,38 L38,22 C37.9992838,21.4480122 37.5519878,21.0007162 37,21 L35,21 Z" id="Shape"/></g></g></g></svg>