<?xml version="1.0" ?><svg height="60px" version="1.1" viewBox="0 0 60 60" width="60px" xmlns="http://www.w3.org/2000/svg" xmlns:xlink="http://www.w3.org/1999/xlink"><title/><desc/><defs/><g fill="none" fill-rule="evenodd" id="Page-1" stroke="none" stroke-width="1"><g fill-rule="nonzero" id="010---Eject"><g id="Icons" stroke="#7D5E46" transform="translate(1.000000, 1.000000)"><ellipse cx="29" cy="29" fill="#CAB8DA" id="Oval" rx="29" ry="28.875"/><path d="M38.02659,30.309 L19.97341,30.309 C19.5965743,30.3090009 19.251736,30.0971594 19.0813992,29.7610187 C18.9110624,29.4248781 18.9441544,29.0215232 19.167,28.71764 L28.1936,16.40864 C28.3819755,16.1517689 28.6814594,16.0000105 29,16.0000105 C29.3185406,16.0000105 29.6180245,16.1517689 29.8064,16.40864 L38.833,28.71764 C39.0558456,29.0215232 39.0889376,29.4248781 38.9186008,29.7610187 C38.748264,30.0971594 38.4034257,30.3090009 38.02659,30.309 Z" fill="#A67A96" id="Shape"/><rect fill="#A67A96" height="4" id="Rectangle-path" rx="1" width="20" x="19" y="34.30899"/></g><g fill="#7D5E46" id="Layer_12"><path d="M30,59.875 C13.516729,59.8061758 0.203712938,46.4001913 0.249595741,29.9168404 C0.295478545,13.4334895 13.6829211,0.101828045 30.1663198,0.124769353 C46.6497186,0.147710662 59.9999998,13.5165853 60,30 C59.9467204,46.5262011 46.5262795,59.8907235 30,59.875 Z M30,2.125 C14.6212947,2.19380832 2.20369152,14.7043573 2.24956401,30.0831481 C2.29543649,45.4619389 14.787452,57.8981865 30.1662941,57.87525 C45.5451362,57.8523134 58.0000005,45.3788592 58,30 C57.9479795,14.5778464 45.422232,2.10801744 30,2.125 Z" id="Shape"/><path d="M30,55.875 C15.7258624,55.8062083 4.20367241,44.1910968 4.24953355,29.9168671 C4.29539468,15.6426374 15.8919815,4.1018034 30.1662665,4.12473387 C44.4405514,4.14766433 55.9999997,15.7256966 56,30 C55.9494092,44.3181773 44.3182549,55.8934126 30,55.875 Z M30,6.125 C16.8304243,6.19376862 6.20363798,16.9134441 6.24948467,30.0831195 C6.29533136,43.2527949 16.9964946,53.898223 30.1662298,53.8752983 C43.3359651,53.8523737 54.0000025,43.1697552 54,30 C53.950323,16.7860145 43.2140648,6.10567421 30,6.125 Z" id="Shape"/><path d="M39.02637,32.30908 L20.97363,32.30908 C20.2199108,32.3089809 19.5302218,31.8852584 19.1894817,31.2129573 C18.8487415,30.5406562 18.9147932,29.7339041 19.36035,29.12598 L28.38672,16.81738 C28.7636276,16.3035526 29.3627576,15.9999985 30,15.9999985 C30.6372424,15.9999985 31.2363724,16.3035526 31.61328,16.81738 L40.63965,29.12646 C41.0851323,29.7343349 41.1511357,30.5410026 40.8103925,31.2132082 C40.4696494,31.8854139 39.7800054,32.3090416 39.02637,32.30908 Z M30,18 L20.97363,30.30908 L39.0332,30.30859 L30,18 Z" id="Shape"/><path d="M39,40.30908 L21,40.30908 C19.8959536,40.307818 19.001262,39.4131264 19,38.30908 L19,36.30908 C19.001262,35.2050336 19.8959536,34.310342 21,34.30908 L39,34.30908 C40.1040464,34.310342 40.998738,35.2050336 41,36.30908 L41,38.30908 C40.998738,39.4131264 40.1040464,40.307818 39,40.30908 Z M21,36.30908 L21,38.30908 L39.001,38.30908 L39,36.30908 L21,36.30908 Z" id="Shape"/></g></g></g></svg>