<?xml version="1.0" ?><svg height="60px" version="1.1" viewBox="0 0 60 60" width="60px" xmlns="http://www.w3.org/2000/svg" xmlns:xlink="http://www.w3.org/1999/xlink"><title/><desc/><defs/><g fill="none" fill-rule="evenodd" id="Page-1" stroke="none" stroke-width="1"><g fill-rule="nonzero" id="018---Expand"><g fill="#BCD9E0" id="Icons" stroke="#7D5E46" transform="translate(1.000000, 1.000000)"><ellipse cx="29" cy="29" id="Oval" rx="29" ry="28.875"/></g><g fill="#7D5E46" id="Layer_12"><path d="M30,59.875 C13.516729,59.8061758 0.203712938,46.4001913 0.249595741,29.9168404 C0.295478545,13.4334895 13.6829211,0.101828045 30.1663198,0.124769353 C46.6497186,0.147710662 59.9999998,13.5165853 60,30 C59.9467204,46.5262011 46.5262795,59.8907235 30,59.875 Z M30,2.125 C14.6212947,2.19380832 2.20369152,14.7043573 2.24956401,30.0831481 C2.29543649,45.4619389 14.787452,57.8981865 30.1662941,57.87525 C45.5451362,57.8523134 58.0000005,45.3788592 58,30 C57.9479795,14.5778464 45.422232,2.10801744 30,2.125 Z" id="Shape"/><path d="M30,55.875 C15.7258624,55.8062083 4.20367241,44.1910968 4.24953355,29.9168671 C4.29539468,15.6426374 15.8919815,4.1018034 30.1662665,4.12473387 C44.4405514,4.14766433 55.9999997,15.7256966 56,30 C55.9494092,44.3181773 44.3182549,55.8934126 30,55.875 Z M30,6.125 C16.8304243,6.19376862 6.20363798,16.9134441 6.24948467,30.0831195 C6.29533136,43.2527949 16.9964946,53.898223 30.1662298,53.8752983 C43.3359651,53.8523737 54.0000025,43.1697552 54,30 C53.950323,16.7860145 43.2140648,6.10567421 30,6.125 Z" id="Shape"/><path d="M20,25.9999999 C19.7347624,26.0000689 19.4803684,25.8947342 19.292817,25.7071829 C19.1052657,25.5196316 18.999931,25.2652376 19,24.9999999 L19,20 C18.999931,19.7347624 19.1052657,19.4803684 19.292817,19.292817 C19.4803684,19.1052657 19.7347624,18.999931 20,19 L25,19 C25.5522847,19 26,19.4477152 26,20 C26,20.5522847 25.5522847,21 25,21 L21,21 L21,24.9999999 C21.000069,25.2652376 20.8947343,25.5196316 20.707183,25.7071829 C20.5196316,25.8947342 20.2652376,26.0000689 20,25.9999999 Z" id="Shape"/><path d="M25,41 L20,41 C19.7347624,41.000069 19.4803684,40.8947343 19.292817,40.7071829 C19.1052657,40.5196316 18.999931,40.2652376 19,40 L19,35 C19,34.4477152 19.4477152,34 20,34 C20.5522847,34 21,34.4477152 21,35 L21,39 L25,39 C25.5522847,39 26,39.4477152 26,40 C26,40.5522847 25.5522847,41 25,41 Z" id="Shape"/><path d="M40,41 L35,41 C34.4477152,41 34,40.5522847 34,40 C34,39.4477152 34.4477152,39 35,39 L39,39 L39,35 C39,34.4477152 39.4477152,34 40,34 C40.5522847,34 41,34.4477152 41,35 L41,40 C41.000069,40.2652376 40.8947343,40.5196316 40.7071829,40.7071829 C40.5196316,40.8947343 40.2652376,41.000069 40,41 Z" id="Shape"/><path d="M40,25.9999999 C39.7347623,26.0000689 39.4803683,25.8947342 39.292817,25.7071829 C39.1052657,25.5196316 38.999931,25.2652376 39,24.9999999 L39,21 L35,21 C34.4477152,21 34,20.5522847 34,20 C34,19.4477152 34.4477152,19 35,19 L40,19 C40.2652376,18.999931 40.5196316,19.1052657 40.7071829,19.292817 C40.8947343,19.4803684 41.000069,19.7347624 41,20 L41,24.9999999 C41.000069,25.2652376 40.8947343,25.5196316 40.7071829,25.7071829 C40.5196316,25.8947342 40.2652376,26.0000689 40,25.9999999 Z" id="Shape"/></g></g></g></svg>