<?xml version="1.0" ?><svg height="60px" version="1.1" viewBox="0 0 60 60" width="60px" xmlns="http://www.w3.org/2000/svg" xmlns:xlink="http://www.w3.org/1999/xlink"><title/><desc/><defs/><g fill="none" fill-rule="evenodd" id="Page-1" stroke="none" stroke-width="1"><g fill-rule="nonzero" id="001---play"><g id="Icons" stroke="#7D5E46" transform="translate(1.000000, 1.000000)"><ellipse cx="29" cy="29" fill="#93E7CE" id="Oval" rx="29" ry="28.875"/><path d="M22,17.89588 L22,40.10412 C21.9957534,40.4724299 22.1969604,40.8124553 22.5218469,40.9860035 C22.8467334,41.1595518 23.2412277,41.1377389 23.545,40.92943 L39.57015,29.82531 C39.8395425,29.6368487 40.0000005,29.3287704 40.0000005,29 C40.0000005,28.6712296 39.8395425,28.3631513 39.57015,28.17469 L23.545,17.07057 C23.2412277,16.8622611 22.8467334,16.8404482 22.5218469,17.0139965 C22.1969604,17.1875447 21.9957534,17.5275701 22,17.89588 Z" fill="#66C68F" id="Shape"/></g><g fill="#7D5E46" id="Layer_12"><path d="M30,59.875 C13.516729,59.8061758 0.203712938,46.4001913 0.249595741,29.9168404 C0.295478545,13.4334895 13.6829211,0.101828045 30.1663198,0.124769353 C46.6497186,0.147710662 59.9999998,13.5165853 60,30 C59.9467204,46.5262011 46.5262795,59.8907235 30,59.875 Z M30,2.125 C14.6212947,2.19380832 2.20369152,14.7043573 2.24956401,30.0831481 C2.29543649,45.4619389 14.787452,57.8981865 30.1662941,57.87525 C45.5451362,57.8523134 58.0000005,45.3788592 58,30 C57.9479795,14.5778464 45.422232,2.10801744 30,2.125 Z" id="Shape"/><path d="M30,55.875 C15.7258624,55.8062083 4.20367241,44.1910968 4.24953355,29.9168671 C4.29539468,15.6426374 15.8919815,4.1018034 30.1662665,4.12473387 C44.4405514,4.14766433 55.9999997,15.7256966 56,30 C55.9492389,44.3181062 44.3181845,55.893242 30,55.875 Z M30,6.125 C16.8304243,6.19376862 6.20363798,16.9134441 6.24948467,30.0831195 C6.29533136,43.2527949 16.9964946,53.898223 30.1662298,53.8752983 C43.3359651,53.8523737 54.0000025,43.1697552 54,30 C53.950323,16.7860145 43.2140648,6.10567421 30,6.125 Z" id="Shape"/><path d="M23.98779,43.10449 C23.4587402,43.1033581 22.9518701,42.8918231 22.5789677,42.5165382 C22.2060652,42.1412533 21.9977626,41.6330463 22,41.104 L22,18.896 C21.9977195,18.1511472 22.410389,17.4670004 23.07031,17.12158 C23.72227,16.7796587 24.5102992,16.8287804 25.11475,17.24902 L41.13965,28.35302 C41.6785803,28.7281612 41.9999029,29.3432215 42.0000006,29.9998621 C42.0000983,30.6565026 41.6789587,31.2716585 41.14014,31.64696 L25.11426,42.751 C24.7836644,42.9810707 24.3905629,43.1044273 23.98779,43.10449 Z M24,18.90967 L24,41.104 L40.001,30.00342 L24,18.90967 Z" id="Shape"/></g></g></g></svg>