<?xml version="1.0" ?><svg height="60px" version="1.1" viewBox="0 0 60 60" width="60px" xmlns="http://www.w3.org/2000/svg" xmlns:xlink="http://www.w3.org/1999/xlink"><title/><desc/><defs/><g fill="none" fill-rule="evenodd" id="Page-1" stroke="none" stroke-width="1"><g fill-rule="nonzero" id="007---Record"><g id="Icons" stroke="#7D5E46" transform="translate(1.000000, 1.000000)"><ellipse cx="29" cy="29" fill="#FCA39F" id="Oval" rx="29" ry="28.875"/><circle cx="29" cy="29" fill="#D3756B" id="Oval" r="10"/></g><g fill="#7D5E46" id="Layer_12"><path d="M30,59.875 C13.516729,59.8061758 0.203712938,46.4001913 0.249595741,29.9168404 C0.295478545,13.4334895 13.6829211,0.101828045 30.1663198,0.124769353 C46.6497186,0.147710662 59.9999998,13.5165853 60,30 C59.9467204,46.5262011 46.5262795,59.8907235 30,59.875 Z M30,2.125 C14.6212947,2.19380832 2.20369152,14.7043573 2.24956401,30.0831481 C2.29543649,45.4619389 14.787452,57.8981865 30.1662941,57.87525 C45.5451362,57.8523134 58.0000005,45.3788592 58,30 C57.9479795,14.5778464 45.422232,2.10801744 30,2.125 Z" id="Shape"/><path d="M30,55.875 C15.7258624,55.8062083 4.20367241,44.1910968 4.24953355,29.9168671 C4.29539468,15.6426374 15.8919815,4.1018034 30.1662665,4.12473387 C44.4405514,4.14766433 55.9999997,15.7256966 56,30 C55.9494092,44.3181773 44.3182549,55.8934126 30,55.875 Z M30,6.125 C16.8304243,6.19376862 6.20363798,16.9134441 6.24948467,30.0831195 C6.29533136,43.2527949 16.9964946,53.898223 30.1662298,53.8752983 C43.3359651,53.8523737 54.0000025,43.1697552 54,30 C53.950323,16.7860145 43.2140648,6.10567421 30,6.125 Z" id="Shape"/><path d="M30,41 C23.9248678,41 19,36.0751322 19,30 C19,23.9248678 23.9248678,19 30,19 C36.0751322,19 41,23.9248678 41,30 C40.9931389,36.072288 36.072288,40.9931389 30,41 Z M30,21 C25.0294373,21 21,25.0294373 21,30 C21,34.9705627 25.0294373,39 30,39 C34.9705627,39 39,34.9705627 39,30 C38.9944009,25.0317583 34.9682417,21.0055991 30,21 Z" id="Shape"/></g></g></g></svg>