<?xml version="1.0" ?><svg viewBox="0 0 48 48" xmlns="http://www.w3.org/2000/svg" xmlns:xlink="http://www.w3.org/1999/xlink"><defs><style>.cls-1{fill:url(#linear-gradient);}.cls-2{fill:url(#linear-gradient-2);}.cls-3{fill:url(#linear-gradient-3);}.cls-4{fill:url(#linear-gradient-4);}.cls-5{fill:#fff;}.cls-6{fill:#d3ea77;}.cls-7{fill:#9cd0f3;}.cls-8{fill:url(#linear-gradient-5);}.cls-9{fill:url(#linear-gradient-6);}</style><linearGradient gradientUnits="userSpaceOnUse" id="linear-gradient" x1="24" x2="24" y1="7.64" y2="47.99"><stop offset="0" stop-color="#66bcef"/><stop offset="1" stop-color="#4096c9"/></linearGradient><linearGradient id="linear-gradient-2" x1="24" x2="24" xlink:href="#linear-gradient" y1="-2.48" y2="9.67"/><linearGradient gradientUnits="userSpaceOnUse" id="linear-gradient-3" x1="19.08" x2="28.95" y1="5.29" y2="21.78"><stop offset="0" stop-color="#eee"/><stop offset="1" stop-color="#bcbcbc"/></linearGradient><linearGradient id="linear-gradient-4" x1="24" x2="24" xlink:href="#linear-gradient" y1="35.86" y2="21.77"/><linearGradient id="linear-gradient-5" x1="9" x2="9" xlink:href="#linear-gradient" y1="11.07" y2="12.81"/><linearGradient id="linear-gradient-6" x1="39" x2="39" xlink:href="#linear-gradient" y1="11.07" y2="12.81"/></defs><title/><g id="icons"><g data-name="Layer 3" id="Layer_3"><rect class="cls-1" height="36" rx="5" ry="5" width="36" x="6" y="7.5"/><path class="cls-2" d="M14,7.5v14H34V7.5Zm17,11H25v-8h6Z"/><path class="cls-3" d="M14,6.5v14H34V6.5Zm17,12H25v-9h6Z"/><rect class="cls-4" height="14" width="20" x="14" y="26.5"/><rect class="cls-5" height="12" width="18" x="15" y="27.5"/><rect class="cls-6" height="3" width="12" x="18" y="29.5"/><rect class="cls-7" height="2" width="2" x="8" y="13.5"/><rect class="cls-8" height="2" width="2" x="8" y="12.5"/><rect class="cls-7" height="2" width="2" x="38" y="13.5"/><rect class="cls-9" height="2" width="2" x="38" y="12.5"/></g></g></svg>