<?xml version="1.0" ?><svg viewBox="0 0 48 48" xmlns="http://www.w3.org/2000/svg" xmlns:xlink="http://www.w3.org/1999/xlink"><defs><style>.cls-1{fill:url(#linear-gradient);}.cls-2{fill:#f1f5f9;}.cls-3{fill:#a7c1db;}.cls-4{fill:url(#linear-gradient-2);}.cls-5{fill:url(#linear-gradient-3);}.cls-6{fill:url(#linear-gradient-4);}.cls-7{fill:url(#linear-gradient-5);}.cls-8{fill:url(#linear-gradient-6);}.cls-9{fill:url(#linear-gradient-7);}.cls-10{fill:url(#linear-gradient-8);}.cls-11{fill:url(#linear-gradient-9);}.cls-12{fill:url(#linear-gradient-10);}.cls-13{fill:url(#linear-gradient-11);}</style><linearGradient gradientUnits="userSpaceOnUse" id="linear-gradient" x1="24" x2="24" y1="12.2" y2="44.47"><stop offset="0" stop-color="#f1f5f9"/><stop offset="1" stop-color="#d8e5f4"/></linearGradient><linearGradient gradientUnits="userSpaceOnUse" id="linear-gradient-2" x1="24.5" x2="24.5" y1="5.88" y2="13.65"><stop offset="0" stop-color="#f1f5f9"/><stop offset="1" stop-color="#a7c1db"/></linearGradient><linearGradient id="linear-gradient-3" x1="32.17" x2="32.17" xlink:href="#linear-gradient-2" y1="5.88" y2="13.65"/><linearGradient id="linear-gradient-4" x1="38.76" x2="38.76" xlink:href="#linear-gradient-2" y1="6.97" y2="13.69"/><linearGradient id="linear-gradient-5" x1="9.75" x2="9.75" xlink:href="#linear-gradient-2" y1="5.88" y2="13.65"/><linearGradient id="linear-gradient-6" x1="16.83" x2="16.83" xlink:href="#linear-gradient-2" y1="5.88" y2="13.65"/><linearGradient id="linear-gradient-7" x2="24.5" xlink:href="#linear-gradient-2" y1="29.88" y2="37.65"/><linearGradient id="linear-gradient-8" x1="16.83" x2="16.83" xlink:href="#linear-gradient-2" y1="29.88" y2="37.65"/><linearGradient id="linear-gradient-9" x1="9.75" x2="9.75" xlink:href="#linear-gradient-2" y1="29.88" y2="37.65"/><linearGradient id="linear-gradient-10" x1="38.76" x2="38.76" xlink:href="#linear-gradient-2" y1="30.57" y2="37.29"/><linearGradient id="linear-gradient-11" x1="32.17" x2="32.17" xlink:href="#linear-gradient-2" y1="29.88" y2="37.65"/></defs><title/><g id="icons"><g data-name="Layer 3" id="Layer_3"><rect class="cls-1" height="30" rx="5" ry="5" width="38" x="5" y="9"/><rect class="cls-2" height="6" width="9" x="30" y="18"/><rect class="cls-3" height="6" width="9" x="30" y="17"/><path class="cls-2" d="M9,27.56H23v-2H9Zm0,4h8v-2H9Zm0-10v2H23v-2Z"/><path class="cls-3" d="M9,27H23V25H9Zm0,4h8V29H9ZM9,21v2H23V21Z"/><polygon class="cls-4" points="24.71 14 27.71 11 24.29 11 21.29 14 24.71 14"/><polygon class="cls-5" points="32.38 14 35.38 11 31.95 11 28.95 14 32.38 14"/><path class="cls-6" d="M40.89,14a4.46,4.46,0,0,0-1.67-2.59L36.62,14Z"/><path class="cls-7" d="M9.38,14l3-3h-3a4.48,4.48,0,0,0-2.3,3Z"/><polygon class="cls-8" points="17.05 14 20.05 11 16.62 11 13.62 14 17.05 14"/><polygon class="cls-9" points="21.29 35 24.29 38 27.71 38 24.71 35 21.29 35"/><polygon class="cls-10" points="13.62 35 16.62 38 20.05 38 17.05 35 13.62 35"/><path class="cls-11" d="M7.11,35a4.48,4.48,0,0,0,2.3,3h3l-3-3Z"/><path class="cls-12" d="M36.62,35l2.6,2.59A4.46,4.46,0,0,0,40.89,35Z"/><polygon class="cls-13" points="28.95 35 31.95 38 35.38 38 32.38 35 28.95 35"/></g></g></svg>