<?xml version="1.0" ?><svg id="Layer_1" style="enable-background:new 0 0 96 96;" version="1.1" viewBox="0 0 96 96" xml:space="preserve" xmlns="http://www.w3.org/2000/svg" xmlns:xlink="http://www.w3.org/1999/xlink"><path d="M60,21.6c0.9-4.1,2.8-9.5,7.9-9.5h0H68h8.6l2.7-8H58c-8.7,0-12.6,11.5-14,18.4l-4.3,20c-0.2,0.9-1,1.6-2,1.6H19.4l-2.7,8  h18.4c0.6,0,1.2,0.3,1.6,0.7c0.4,0.5,0.5,1.1,0.4,1.7L32,78.4l0,0l0,0c-0.1,0.6-0.3,1.2-0.6,1.7c-1,1.9-3.1,3.9-5.3,3.9h-2.5l-2.7,8  H34h0h0h0c0.3,0,0.7,0,1,0c7.8-0.5,11.6-7.3,13-14.3l0,0v0l0,0v0l5.1-24c0.2-0.9,1-1.6,2-1.6h17.4l2.7-8H57.7  c-0.6,0-1.2-0.3-1.6-0.7c-0.4-0.5-0.5-1.1-0.4-1.7L60,21.6C60,21.6,60,21.6,60,21.6L60,21.6z M57.9,0L57.9,0L57.9,0H82  c0.7,0,1.2,0.3,1.6,0.8C84,1.4,84.1,2,83.9,2.6l-4,12c-0.3,0.8-1,1.4-1.9,1.4H68c-2.6,0-3.6,4.5-4,6.4c0,0,0,0,0,0L60.2,40H78  c0.7,0,1.2,0.3,1.6,0.8c0.4,0.5,0.5,1.2,0.3,1.8l-4,12c-0.3,0.8-1,1.4-1.9,1.4H56.8L52,78.4l0,0l0,0C50.1,87.3,45,95.3,35.3,96  c-0.4,0-0.8,0-1.3,0h0h0H18c-0.7,0-1.2-0.3-1.6-0.8c-0.4-0.5-0.5-1.2-0.3-1.8l4-12c0.3-0.8,1-1.4,1.9-1.4h4c0.6,0,1.5-1.2,1.8-1.7  c0.1-0.2,0.2-0.4,0.2-0.6l0,0v0v0v0l0,0l0,0l0,0L32.7,56H14c-0.7,0-1.2-0.3-1.6-0.8c-0.4-0.5-0.5-1.2-0.3-1.8l4-12  c0.3-0.8,1-1.4,1.9-1.4h18.1L40,21.6C42,12.6,46.9,0.1,57.9,0z"/></svg>