<?xml version="1.0" ?><svg id="Layer_1" style="enable-background:new 0 0 96 96;" version="1.1" viewBox="0 0 96 96" xml:space="preserve" xmlns="http://www.w3.org/2000/svg" xmlns:xlink="http://www.w3.org/1999/xlink"><path d="M13.5,68.8c0,6,0,11.9,0,17.9c0,3.1,2.4,5.4,5.5,5.4c3.7,0,5.4-2.8,5.4-6.1c0-0.9,0-2.2-0.5-2.9c-1.1-1.7-5.9-1.7-7.6-1.7  c-1.1,0-2-0.9-2-2s0.9-2,2-2c6.9,0,12.1,0.8,12.1,8.6c0,5.6-3.3,10.2-9.4,10.2c-5.3,0-9.5-4.1-9.5-9.4c0-6,0-11.9,0-17.9  c0-1.1,0.9-2,2-2S13.5,67.7,13.5,68.8L13.5,68.8z M32.4,87.9L32.4,87.9v-9.4c0-1.1,0.9-2,2-2c1.1,0,2,0.9,2,2v9.4  c0,2.3,2.4,4.1,4.5,4.1c2.2,0,4.5-1.8,4.5-4.1v-9.4c0-1.1,0.9-2,2-2s2,0.9,2,2v9.4l0,0c0,0,0,0,0,0c0,4.5-4.1,8.1-8.5,8.1  C36.6,96,32.4,92.4,32.4,87.9L32.4,87.9z M78,4l14,1.5l-9,51.1l-7.2-0.6L78,4L78,4z M73.4,60L73.4,60l11.2,1.3l-1.1,9.4l-11.2-1.3  L73.4,60L73.4,60z M86.8,57.9c0.1-0.2,0.2-0.5,0.2-0.7l9-51.1C96.1,5,95.9,3.9,95.2,3c-0.7-0.9-1.6-1.4-2.8-1.6L78.4,0  c-1.1-0.1-2.2,0.2-3,1c-0.9,0.7-1.3,1.7-1.4,2.9l-2.1,51.9c0,0.2,0,0.4,0,0.6c-1.3,0.5-2.2,1.7-2.4,3.2L68.4,69  c-0.3,2.2,1.3,4.2,3.5,4.4l11.2,1.3c2.2,0.3,4.2-1.3,4.4-3.5l1.1-9.4C88.8,60.2,88.1,58.7,86.8,57.9L86.8,57.9z M39,44.7v11.4h4.3  c2.7,0,4.9,2.2,4.9,4.9c0,2.7-2.2,4.9-4.9,4.9h-20c-2.7,0-4.9-2.2-4.9-4.9s2.2-4.9,4.9-4.9h5.9V44.3L15.5,18.5H8.9  c-2.7,0-4.9-2.2-4.9-4.9c0-2.7,2.2-4.9,4.9-4.9h21.3c2.7,0,4.9,2.2,4.9,4.9c0,2.7-2.2,4.9-4.9,4.9h-3.6L34.9,34l5.4-6.9h-0.2  c-2.7,0-4.9-2.2-4.9-4.9c0-2.7,2.2-4.9,4.9-4.9h19c2.7,0,4.9,2.2,4.9,4.9c0,2.7-2.2,4.9-4.9,4.9h-6.3L39,44.7L39,44.7z M43,46.1  L54.7,31h4.4c4.9,0,8.9-4,8.9-8.9c0-4.9-4-8.9-8.9-8.9h-19c-0.3,0-0.6,0-0.9,0c-0.2-4.7-4.1-8.5-8.9-8.5H8.9C4,4.7,0,8.7,0,13.6  c0,4.9,4,8.9,8.9,8.9h4.1l12.1,22.7v6.9h-1.9c-4.9,0-8.9,4-8.9,8.9c0,4.9,4,8.9,8.9,8.9h20c4.9,0,8.9-4,8.9-8.9c0-4.9-4-8.9-8.9-8.9  H43V46.1L43,46.1z M74.6,92.1c0.1-0.8,0.4-1.6,1.1-2.3c1.5-1.5,3-3.1,4.4-4.7c0.7-0.7,1.4-1.5,2.1-2.2H74c-1.1,0-2-0.9-2-2  c0-1.1,0.9-2,2-2h9.9c4.4,0,3.9,3.9,1.4,6.5c-0.8,0.8-1.6,1.6-2.3,2.4c-1.3,1.4-2.6,2.8-3.9,4.1c3.7,0,7.4,0,11.2,0c1.1,0,2,0.9,2,2  s-0.9,2-2,2c-3.9,0-7.9,0-11.8,0c-1.1,0-2.1-0.4-2.7-1c-0.3,0.6-1,1-1.8,1c-4.2,0-10.6-0.1-14.8-0.1c-3.4,0-5.2-3.8-2.8-6.2  c1.6-1.6,3.2-3.4,4.8-5c0.6-0.6,1.2-1.2,1.7-1.8h-7.5c-1.1,0-2-0.9-2-2c0-1.1,0.9-2,2-2h9.2c4.4,0,3.9,3.9,1.4,6.5  c-0.7,0.7-1.3,1.4-2,2.1c-1.4,1.5-2.8,3-4.2,4.5c4,0,10.2,0.1,14.1,0.1C74.2,92,74.4,92,74.6,92.1z"/></svg>