<?xml version="1.0" ?><svg id="Layer_1" style="enable-background:new 0 0 96 96;" version="1.1" viewBox="0 0 96 96" xml:space="preserve" xmlns="http://www.w3.org/2000/svg" xmlns:xlink="http://www.w3.org/1999/xlink"><path d="M74.3,39.7c0.3-2.2-0.6-4.3-2.4-5.7c-2.1-1.7-4.9-1.9-7.2-0.5c-1.1,0.6-2.2,1.2-3.4,1.6c-3.2-2.2-7.1-3.5-11.1-3.5  c-9.2,0-16.9,6.4-18.9,14.9c-6.1-1.7-11.6-5.2-15.7-10.2c-1.3-1.6-3.3-2.5-5.4-2.3c-2.1,0.2-3.9,1.3-5,3.1c-1.7,3-2.6,6.3-2.6,9.8  c0,2,0.3,3.9,0.9,5.8c-0.6,1-1,2.2-1,3.4c0,0.1,0,0.1,0,0.2c0,4.6,1.6,9,4.6,12.5c-0.1,0.8,0,1.6,0.3,2.4c0.7,2.3,1.9,4.4,3.4,6.2  c-0.4,0-0.9,0-1.3,0c-0.8,0-1.6-0.1-2.4-0.1c-3-0.3-5.7,1.4-6.7,4.2c-1,2.8,0.1,5.9,2.6,7.5c7,4.5,15.1,6.9,23.4,6.9  c12.5,0,24-4.8,32.3-14.2c6.7-7.6,10.8-17.7,11.1-27.8c2.1-1.8,3.9-3.9,5.4-6.2c1.6-2.4,1.4-5.5-0.4-7.6  C74.5,39.9,74.4,39.8,74.3,39.7z M71.6,45.4c-1.3,2-2.9,3.9-4.7,5.5L65.6,52l-0.1,1.7c-0.3,9.2-4,18.4-10.1,25.3  C47.9,87.7,37.5,92,26.2,92c-7.6,0-14.9-2.1-21.2-6.2C4,85.1,3.6,84,4,82.9c0.4-1.1,1.4-1.7,2.5-1.6c0.9,0.1,1.9,0.2,2.8,0.2  c0.5,0,1,0,1.5,0l7.7-0.5l-4.8-6c-1.2-1.5-2.1-3.2-2.7-4.9c-0.1-0.3-0.1-0.6-0.1-0.9l0.1-1.6l-1-1.2c-2.3-2.8-3.6-6.3-3.6-9.9  c0-0.1,0-0.1,0-0.2c0-0.5,0.1-0.9,0.4-1.3l1-1.6l-0.6-1.8c-0.5-1.5-0.7-3-0.7-4.6c0-2.7,0.7-5.4,2.1-7.7c0.4-0.7,1.1-1.1,1.9-1.2  c0.8-0.1,1.5,0.2,2,0.9c4.6,5.6,10.7,9.6,17.7,11.5l4,1.1l1-4c1.6-6.9,7.9-11.9,15-11.9c3.1,0,6.2,1,8.8,2.7l1.7,1.2l1.9-0.7  c1.4-0.5,2.8-1.2,4.2-1.9c0.9-0.5,1.9-0.4,2.7,0.2c0.6,0.5,1,1.3,0.9,2.1l-0.2,1.9l1.3,1.4c0,0,0.1,0.1,0.1,0.1  C72.2,43.4,72.2,44.5,71.6,45.4z M87.2,17.8L84.2,16l3.1-1.8c1-0.6,1.3-1.8,0.7-2.7c-0.6-1-1.8-1.3-2.7-0.7l-3.1,1.8V9  c0-1.1-0.9-2-2-2c-1.1,0-2,0.9-2,2v3.5l-3.1-1.8c-1-0.6-2.2-0.2-2.7,0.7c-0.5,0.9-0.2,2.2,0.7,2.7l3.1,1.8l-3.1,1.8  c-1,0.5-1.3,1.8-0.7,2.7c0.6,1,1.8,1.3,2.7,0.7l3.1-1.8V23c0,1.1,0.9,2,2,2c1.1,0,2-0.9,2-2v-3.5l3.1,1.8c1,0.5,2.2,0.2,2.7-0.7  C88.5,19.6,88.2,18.4,87.2,17.8z M80.2,16L80.2,16L80.2,16L80.2,16z M80.2,0.1c-8.8,0-16,7.2-16,16c0,8.8,7.2,16,16,16  c8.8,0,16-7.2,16-16C96.2,7.2,89,0.1,80.2,0.1z M80.2,28c-6.6,0-12-5.4-12-12c0-6.6,5.4-12,12-12c6.6,0,12,5.4,12,12  C92.2,22.7,86.8,28,80.2,28z"/></svg>