<?xml version="1.0" ?><svg id="Layer_1" style="enable-background:new 0 0 96 96;" version="1.1" viewBox="0 0 96 96" xml:space="preserve" xmlns="http://www.w3.org/2000/svg" xmlns:xlink="http://www.w3.org/1999/xlink"><path d="M92,45.7H76.9c-2.2,0-4,1.8-4,4v12.6c0,0.4-0.3,0.7-0.7,0.7s-0.7-0.3-0.7-0.7V50c0-1.3-0.6-2.4-1.6-3.2  c-1-0.8-2.3-1-3.5-0.6L59,48.4l-4.6-2.2c-1.3-0.6-2.7-0.5-3.8,0.3c-1.2,0.8-1.9,2-1.9,3.4v12.3c0,13,10.7,23.5,23.7,23.5  C85.4,85.6,96,75,96,61.9c0-4.1,0-8.1,0-12.2C96,47.5,94.2,45.7,92,45.7z M92,61.9c0,10.9-8.8,19.7-19.7,19.7  c-10.8,0-19.6-8.7-19.7-19.5V49.8l6,2.8l9-2.7v12.4c0,2.6,2.1,4.7,4.7,4.7c2.6,0,4.7-2.1,4.7-4.7V49.7H92C92,49.7,92,61.8,92,61.9z   M48.7,39.6c0,1.6,0.9,3,2.3,3.6l6,2.8c0.9,0.4,1.9,0.5,2.8,0.2l9-2.7c1.7-0.5,2.9-2,2.9-3.8v-6.2c0,0,0-0.1,0-0.1  c-0.4-12.8-10.8-23-23.6-23c-12.7,0-23.2,10.1-23.6,22.8c0,0,0,0.1,0,0.1v28.4c0,0.4-0.3,0.7-0.6,0.7c-0.4,0-0.7-0.3-0.7-0.7v-12  c0-2.2-1.8-4-4-4H4c-2.2,0-4,1.8-4,4c0,4.1,0,8.1,0,12.2C0,75,10.6,85.6,23.7,85.6c12.9,0,23.5-10.4,23.6-23.3l0-28.1  c0-0.4,0.3-0.7,0.7-0.7c0.4,0,0.7,0.3,0.7,0.7V39.6z M48,29.5c-2.6,0-4.7,2.1-4.7,4.7l0,28.1C43.2,73,34.4,81.6,23.7,81.6  C12.8,81.6,4,72.8,4,61.9c0-0.1,0-12.2,0-12.2h15.1v12c0,2.6,2.1,4.7,4.7,4.7c2.6,0,4.6-2.1,4.6-4.7V33.4c0.4-10.5,9-19,19.6-19  c10.7,0,19.3,8.5,19.6,19.1v6.2l-9,2.7l-6-2.8v-5.4C52.7,31.6,50.6,29.5,48,29.5z"/></svg>