<?xml version="1.0" ?><svg id="Layer_1" style="enable-background:new 0 0 96 96;" version="1.1" viewBox="0 0 96 96" xml:space="preserve" xmlns="http://www.w3.org/2000/svg" xmlns:xlink="http://www.w3.org/1999/xlink"><path d="M32.5,48.1l9.4-26.6c0.6-1.6,2-2.7,3.8-2.7H61c1.4,0,2.5,0.6,3.3,1.7c0.8,1.1,0.9,2.4,0.4,3.7L45,74.7  c-0.6,1.6-2,2.5-3.7,2.5H23.7c-1.7,0-3.1-1-3.7-2.5L0.3,24.2c-0.5-1.3-0.4-2.6,0.4-3.7c0.8-1.1,1.9-1.7,3.3-1.7h15.4  c1.7,0,3.2,1,3.8,2.7L32.5,48.1L32.5,48.1z M4,22.8l19.7,50.4h17.5L61,22.8H45.7L32.5,60.1L19.4,22.8H4L4,22.8z M82,23.1  c5.5,0,10,4.5,10,10s-4.5,10-10,10c-5.5,0-10-4.5-10-10S76.5,23.1,82,23.1L82,23.1z M82,19.1c-7.7,0-14,6.2-14,14  c0,7.7,6.2,14,14,14s14-6.3,14-14C96,25.4,89.8,19.1,82,19.1z"/></svg>