<?xml version="1.0" ?><svg id="Layer_1" style="enable-background:new 0 0 96 96;" version="1.1" viewBox="0 0 96 96" xml:space="preserve" xmlns="http://www.w3.org/2000/svg" xmlns:xlink="http://www.w3.org/1999/xlink"><path d="M17.1,45.8c-6.6,3.4-9.4,9.9-9.4,17.1c0,3.7,0.9,9,4.8,10.6c2.9,1.2,6.3-0.2,8.7-1.9c4.2-2.9,7.3-7.6,9.4-12.2  c0.5-5.1,1.3-10.3,2.4-14.6C27.9,42.9,21.9,43.3,17.1,45.8z M26.6,58.3c-1.8,3.7-4.4,7.7-7.8,10c-1.1,0.8-3.4,2-4.9,1.4  c-2-0.8-2.3-5.2-2.3-6.9c0-5.7,2.1-10.8,7.3-13.6c2.8-1.5,6.1-2,9.2-1.6C27.5,51.2,27,54.8,26.6,58.3z M94.1,33.1  c-2.4-2.2-6.1-2.1-8.2,0.3l-8.5,9.2l4.2-21.7c0.6-3.2-1.5-6.2-4.6-6.8c-3.2-0.6-6.2,1.5-6.8,4.6l-4.1,20.9c-0.8-1.5-2.3-2.6-4-2.9  c-7.1-1.3-16.8-1-21.7,4.5c-0.5-0.9-1.1-1.7-2-2.3c-0.3-0.2-0.5-0.3-0.8-0.4c-7.4-3.6-16.6-3.4-24,0.5C4.4,43.8,0,52.8,0,62.9  C0,70,2.4,77.7,9.6,80.6c5.4,2.2,11.3,0.6,15.9-2.7c0.1-0.1,0.3-0.2,0.5-0.3c0.8,2.1,2.9,3.7,5.3,3.8c1.9,0,3.5-0.8,4.6-2.1  c7.4,3.3,17.5,2.8,23.2-2.4c0.3,2.4,2.1,4.5,4.7,5c3.2,0.6,6.2-1.5,6.8-4.6l2.5-13l2.3-2.5l7.7,16.8c1.3,2.9,4.8,4.2,7.7,2.9  c2.9-1.3,4.2-4.8,2.9-7.7L84,52.6l10.4-11.2C96.6,39,96.5,35.3,94.1,33.1z M38.1,61.2c0.2-0.6,0.2-1.3,0.2-1.9  c0.1-1.3,0.3-2.6,0.5-3.8c1.9,3.2,5.5,4.8,9.6,6.5c2.6,1.1,3.5,1.7,3.5,4.6c0,4.7-9.4,3.1-11.9,1.7c-0.7-0.4-1.5-0.7-2.3-0.7  C37.7,65.4,37.9,63.3,38.1,61.2z M34.1,60.4c-0.5,5.3-0.8,10.7-0.9,15.2c0,1-0.9,1.8-1.9,1.8c-1,0-1.8-0.9-1.8-1.9  c0.1-2.3,0.2-4.9,0.3-7.6c-1.9,2.6-4.1,5-6.7,6.8c-3.5,2.4-8,3.9-12.1,2.3C5.6,74.7,4,68.3,4,62.9c0-8.6,3.6-16.3,11.4-20.4  c6.2-3.3,14.1-3.5,20.5-0.4c0.1,0,0.2,0.1,0.2,0.1c0.4,0.2,0.6,0.6,0.7,1c0.1,0.3,0.1,0.7,0,1c-1.2,4.3-2,9.6-2.6,15  C34.3,59.7,34.3,60,34.1,60.4z M36.1,74.9c-0.9-0.5-1.2-1.6-0.7-2.5s1.6-1.2,2.5-0.7c5.3,3.1,17.9,3.5,17.9-5.1  c0-4.7-1.9-6.6-5.9-8.3c-4.3-1.8-8.6-3.1-8.6-8.7c0-0.6,0.1-1.3,0.2-1.9c1.9-8.4,13.3-8.2,19.8-7c1,0.2,1.7,1.1,1.5,2.1  c-0.2,1-1.1,1.7-2.1,1.5c-4.2-0.8-15.7-1.6-15.7,5.3c0,3.5,3.7,4.3,6.3,5.4c5.4,2.3,8.1,5.5,8.1,11.7C59.4,78.4,43.9,79.4,36.1,74.9  z M52.8,51.2c-0.6-0.3-3.3-1.2-3.9-1.7c0.2-2.5,9.4-1.6,11-1.3c1.7,0.3,3.4-0.2,4.7-1.2l-2.5,12.7C60.6,55.8,57.4,53.1,52.8,51.2z   M91.5,38.7L79.3,51.8l10.8,23.6c0.4,0.9,0,2-0.9,2.4c-0.9,0.4-2,0-2.4-0.9L76.6,54.7l-7.1,7.7l-2.7,14.1c-0.2,1-1.2,1.6-2.1,1.4  c-1-0.2-1.6-1.2-1.5-2.1l11-56.4c0.2-1,1.2-1.6,2.1-1.4c1,0.2,1.6,1.2,1.4,2.1l-6.9,35.5l5-5.4c0,0,0,0,0.1-0.1l13-14  c0.7-0.7,1.8-0.8,2.6-0.1C92.2,36.8,92.2,37.9,91.5,38.7z"/></svg>