<?xml version="1.0" ?><svg id="Layer_1" style="enable-background:new 0 0 96 96;" version="1.1" viewBox="0 0 96 96" xml:space="preserve" xmlns="http://www.w3.org/2000/svg" xmlns:xlink="http://www.w3.org/1999/xlink"><path d="M66.9,62c0,1.8-1.5,3.3-3.3,3.3H32.8c-1.8,0-3.3-1.5-3.3-3.3s1.5-3.3,3.3-3.3h30.8C65.4,58.7,66.9,60.2,66.9,62z M32.8,37.3  h14.8c1.8,0,3.3-1.5,3.3-3.3c0-1.8-1.5-3.3-3.3-3.3H32.8c-1.8,0-3.3,1.5-3.3,3.3C29.5,35.8,31,37.3,32.8,37.3z M96,41.8v21.2  C96,81.2,81.1,96,63,96H33C14.8,96,0,81.2,0,63.1V33C0,17.9,10.4,4.7,25,1c2.7-0.7,5.5-1,8.3-1H48c17.7,0,32.2,13.9,33.2,31.2h4.2  C91.2,31.2,96,36,96,41.8z M92,41.8c0-3.6-3-6.6-6.6-6.6h-8l-0.2-3.8C76.3,16.1,63.4,4,48,4H33.3c-2.5,0-4.9,0.3-7.3,0.9  C13.1,8.2,4,19.7,4,33v30.1C4,79,17.1,92,33,92H63c15.9,0,29-13,29-28.9V41.8z"/></svg>