<?xml version="1.0" ?><!DOCTYPE svg  PUBLIC '-//W3C//DTD SVG 1.1//EN'  'http://www.w3.org/Graphics/SVG/1.1/DTD/svg11.dtd'><svg enable-background="new 0 0 512 512" height="512px" id="Layer_1" version="1.1" viewBox="0 0 512 512" width="512px" xml:space="preserve" xmlns="http://www.w3.org/2000/svg" xmlns:xlink="http://www.w3.org/1999/xlink"><g><path d="M512,512H0V0h512V512z M15.096,496.94h481.808V15.06H15.096V496.94z"/></g><g><g><rect height="195.617" width="14.816" x="270.36" y="247.88"/></g><g><rect height="41.136" width="14.816" x="214.474" y="194.201"/></g><g><rect height="41.136" width="14.816" x="270.36" y="138.249"/></g><g><rect height="24.068" width="14.816" x="285.176" y="114.181"/></g><g><rect height="20.313" width="14.816" x="299.992" y="93.868"/></g><g><rect height="15.389" width="14.816" x="314.809" y="78.479"/></g><g><rect height="15.389" width="14.816" x="367.744" y="130.555"/></g><g><rect height="31.023" width="14.816" x="352.929" y="145.944"/></g><g><rect height="15.389" width="42.518" x="382.56" y="114.18"/></g><g><rect height="15.389" width="14.816" x="329.625" y="63.091"/></g><g><rect height="35.702" width="14.816" x="410.262" y="78.479"/></g><g><rect height="15.389" width="80.64" x="344.438" y="63.09"/></g><g><rect height="195.617" width="14.816" x="355.305" y="247.88"/></g><g><rect height="14.816" width="70.129" x="285.176" y="443.497"/></g><g><rect height="14.816" width="41.469" x="229.291" y="235.337"/></g><g><rect height="14.816" width="41.469" x="229.291" y="179.385"/></g><g><rect height="70.769" width="14.816" x="409.738" y="176.967"/></g><g><rect height="14.816" width="41.469" x="368.267" y="232.919"/></g><g><rect height="14.816" width="41.469" x="368.267" y="176.966"/></g></g></svg>