<?xml version="1.0" ?><svg enable-background="new 0 0 24 24" id="Layer_1" version="1.1" viewBox="0 0 24 24" xml:space="preserve" xmlns="http://www.w3.org/2000/svg" xmlns:xlink="http://www.w3.org/1999/xlink"><g><path d="M22,20.5H2   c-0.8284271,0-1.5-0.6715736-1.5-1.5V5c0-0.8284273,0.6715729-1.5,1.5-1.5h20c0.8284264,0,1.5,0.6715727,1.5,1.5v14   C23.5,19.8284264,22.8284264,20.5,22,20.5z" fill="none" stroke="#303C42" stroke-linecap="round" stroke-linejoin="round" stroke-miterlimit="10"/><g id="XMLID_2255_"><path d="M9.7694044,7.721715C9.7450457,7.687562,9.7037306,7.6670151,9.6594305,7.6670151H9.6593103    L8.7003469,7.6674557c-0.0541515,0-0.1028109,0.0306826-0.1225729,0.07723l-1.1219554,2.6443934L7.3351569,9.9860716    C7.3336048,9.9807281,7.3315749,9.97544,7.3291268,9.9703722C7.1520452,9.5911064,6.6761456,8.9977226,6.0121183,8.5269041    c-0.0452552-0.032115-0.107646-0.0336571-0.154633-0.0039663c-0.0469871,0.0296917-0.0680027,0.083951-0.052002,0.1344099    l0.922246,2.9072628c0.0164189,0.0517807,0.0678835,0.0873661,0.1263933,0.0873661h0.0001192l1.0620732-0.0013771    c0.0525393,0,0.1000042-0.0289755,0.1207809-0.0734844l1.7432938-3.7405462    C9.797883,7.7990003,9.7937641,7.7558131,9.7694044,7.721715z M6.8717351,9.0419016    C6.8972888,9.0729141,6.9364543,9.0898809,6.976635,9.0898809c0.0185084,0,0.0371361-0.0035257,0.0547485-0.0109625    c0.0560021-0.0236311,0.0868096-0.080039,0.0740924-0.1356754L6.8859448,7.9855762    C6.8854671,7.9834828,6.8849297,7.9814444,6.8843327,7.9794617C6.8054042,7.7059054,6.5554838,7.6652522,6.3744016,7.6584764    c-0.0017314,0-0.0034628-0.0000548-0.0051341-0.0000548l-1.2373037-0.001873H5.1317248    c-0.0639429,0-0.1186914,0.0424161-0.1297369,0.1005316C4.990943,7.8151956,5.026825,7.8723197,5.0871258,7.8923159    C5.8415446,8.1428461,6.4586439,8.5403452,6.8717351,9.0419016z M11.3594389,7.663765h-0.9122753    c-0.0641823,0-0.11905,0.0427465-0.129796,0.1010823l-0.6920881,3.7480922    c-0.0065079,0.0353107,0.004179,0.071557,0.0291357,0.0988245c0.0250158,0.0273771,0.0618534,0.0431318,0.1006603,0.0431318    h0.9116192c0.0641813,0,0.11905-0.0426912,0.129796-0.1011372l0.6927443-3.7480927    c0.0065079-0.035255-0.0041189-0.0714464-0.0291348-0.0987692C11.4350843,7.6795745,11.3982468,7.663765,11.3594389,7.663765z     M18.1007862,7.7630844c-0.0133743-0.0556917-0.0667496-0.0952983-0.128603-0.0952983h-0.804987    c-0.3219833,0-0.5067062,0.098989-0.6176376,0.3310657l-1.668664,3.4869862    c-0.017971,0.0377331-0.0141497,0.0810862,0.01015,0.1155701c0.0242996,0.0344286,0.0657339,0.0551405,0.1103325,0.0551405    h0.9449339c0.0547476,0,0.1037645-0.0312338,0.123229-0.0784426c0.1161232-0.2826452,0.1906338-0.4627752,0.2152328-0.5209455    c0.0626888,0,0.3529091,0.00033,0.6640854,0.0007706h0.0175533c0.357626,0.0003862,0.7375221,0.0008268,0.8284512,0.0008268    c0.0268078,0.1059294,0.093317,0.3864813,0.1207809,0.5021067c0.013195,0.0558567,0.0667496,0.0955744,0.1286621,0.0955744    h0.8240337c0.0398827,0,0.0776749-0.0166912,0.1026306-0.0453911s0.0345097-0.0663233,0.0259724-0.1022396L18.1007862,7.7630844z     M16.6240692,10.2403479l0.6269512-1.4966259l0.0797043,0.3447819l0.2729073,1.151844H16.6240692z M13.8853922,8.4725895    c0.0103283-0.000165,0.0226278-0.0002756,0.034688-0.0002756c0.357089,0,0.6092777,0.0746965,0.7678518,0.1308842    c0.0368967,0.0130548,0.0780926,0.010191,0.112422-0.0078773c0.0343304-0.018013,0.058032-0.0492468,0.0647192-0.0852175    l0.1065712-0.5782361c0.0109863-0.0596576-0.0272846-0.1176629-0.089735-0.136117    c-0.1959476-0.0578399-0.5128565-0.1267524-0.909708-0.1267524c-1.125001,0-1.9150629,0.5221586-1.9213314,1.2693424    c-0.0071049,0.5532818,0.5648584,0.861927,0.9959803,1.0460243c0.4422274,0.1881723,0.5907707,0.3085899,0.5887403,0.4772081    c-0.0031042,0.2580767-0.3544617,0.3755751-0.6796694,0.3755751c-0.4628248,0-0.7122669-0.0643959-1.0651169-0.1997967    c-0.0370169-0.0142117-0.0790482-0.012064-0.1141548,0.0058393c-0.0351057,0.0177374-0.0594645,0.0494118-0.0662708,0.0858784    l-0.1129599,0.6089182c-0.0108662,0.0584469,0.0255537,0.1156254,0.0862122,0.1352358    c0.3109379,0.1005869,0.7451048,0.1631641,1.1613607,0.1672955h0.0014324    c1.1935415-0.0002203,1.9702291-0.5163183,1.9787674-1.3148422c0.0045366-0.4390888-0.2989979-0.7711468-0.9516811-1.0435457    c-0.399478-0.1790838-0.6442642-0.2980137-0.6419363-0.480073C13.2315741,8.6383429,13.4554043,8.4725895,13.8853922,8.4725895z" fill="#303C42"/></g><g id="XMLID_2319_"><polygon clip-rule="evenodd" fill="#303C42" fill-rule="evenodd" id="XMLID_2320_" points="4.6787772,16.3505936     6.4624691,16.3505936 6.4624691,16.8879433 5.3541675,16.8879433 5.3467417,17.384203 6.4512854,17.384203 6.4512854,17.8991737     5.3429823,17.8991737 5.347002,18.395443 6.4401016,18.395443 6.4401016,18.9327812 4.6793399,18.9327812 4.6787772,16.3505936       "/><polygon clip-rule="evenodd" fill="#303C42" fill-rule="evenodd" id="XMLID_2321_" points="6.9104304,16.1341953     7.5596819,16.1341953 7.5620251,18.9327812 6.9127111,18.9327812 6.9104304,16.1341953   "/><path clip-rule="evenodd" d="M9.7932615,18.7201405    C9.573103,18.9067478,9.2372618,19,8.9386902,19c-0.6828136,0-0.992569-0.485075-0.992569-0.9664841    c0-0.5671425,0.4254274-1.0485611,1.011282-1.0485611c0.7164803,0,0.9403563,0.507452,0.9403563,1.152998H8.5954256    c0,0.1456184,0.0933037,0.3918228,0.4515114,0.3918228c0.2276478,0,0.3545017-0.0671139,0.5299253-0.1865044L9.7932615,18.7201405    L9.7932615,18.7201405z M9.3156128,17.7574177c0-0.1940327-0.0932522-0.3694458-0.3097038-0.3694458    c-0.2052164,0-0.361927,0.1828384-0.4030075,0.3694458H9.3156128L9.3156128,17.7574177z" fill="#303C42" fill-rule="evenodd" id="XMLID_2322_"/><path clip-rule="evenodd" d="M11.8681002,18.8059673    C11.6889696,18.9179325,11.3941679,19,11.1777687,19c-0.5971422,0-1.0262356-0.3433075-1.0262356-0.9627247    c0-0.6343594,0.425375-1.0523205,1.0672636-1.0523205c0.223877,0,0.4925518,0.0708828,0.6380672,0.164135l-0.2089739,0.4253845    c-0.0970116-0.0409851-0.2015095-0.0745373-0.3059969-0.0745373c-0.324605,0-0.5410566,0.1940212-0.5410566,0.5037766    c0,0.2686749,0.2089853,0.4813156,0.4851265,0.4813156c0.1230965,0,0.2462549-0.0559311,0.3507423-0.1081944    L11.8681002,18.8059673L11.8681002,18.8059673z" fill="#303C42" fill-rule="evenodd" id="XMLID_2325_"/><path clip-rule="evenodd" d="M12.1080971,17.0521736h0.2933331    l-0.0022383-0.6381207h0.6268415l-0.0148497,0.6381207h0.5336847l-0.0113926,0.4701309H13    c0,0.2612495-0.018713,0.5373497-0.018713,0.6978188c0,0.1641254,0.0410805,0.2425385,0.1865034,0.2425385    c0.0896912,0,0.1643333-0.0448513,0.2389755-0.0895977l0.1417685,0.4403286C13.3581572,18.9291267,13.1269073,19,12.9066448,19    c-0.5261555,0-0.5521889-0.3321228-0.5521889-0.7649326c0-0.2313538,0.0185041-0.4626961,0.0185041-0.7127628h-0.2797546    L12.1080971,17.0521736L12.1080971,17.0521736z" fill="#303C42" fill-rule="evenodd" id="XMLID_2326_"/><path clip-rule="evenodd" d="M13.8770018,17.0521736h0.6494074v0.2649155    h0.0073204c0.0970116-0.160471,0.2239294-0.3171806,0.4777546-0.3171806c0.0707788,0,0.145422,0.0074253,0.2127447,0.0223675    l-0.0858374,0.6417847c-0.0634489-0.0186081-0.1344366-0.0372162-0.2314472-0.0372162    c-0.2164001,0-0.3843985,0.1827431-0.3843985,0.2200642l-0.0111933,1.0858727h-0.6492004L13.8770018,17.0521736    L13.8770018,17.0521736z" fill="#303C42" fill-rule="evenodd" id="XMLID_2327_"/><path clip-rule="evenodd" d="M16.400198,16.9849548    c0.6941528,0,1.0523205,0.4403381,1.0523205,1.0074692C17.4525185,18.5596714,17.0943508,19,16.400198,19    c-0.6939459,0-1.0523109-0.4403286-1.0523109-1.007576C15.347887,17.425293,15.7062521,16.9849548,16.400198,16.9849548    L16.400198,16.9849548z M16.400198,18.5074062c0.3097553,0,0.4031105-0.2686749,0.4031105-0.5149822    c0-0.246191-0.0933552-0.5148659-0.4031105-0.5148659c-0.3095474,0-0.4029036,0.2686749-0.4029036,0.5148659    C15.9972944,18.2387314,16.0906506,18.5074062,16.400198,18.5074062L16.400198,18.5074062z" fill="#303C42" fill-rule="evenodd" id="XMLID_2328_"/><path clip-rule="evenodd" d="M17.8055935,17.0521736h0.64921v0.205225    c0.1492844-0.1455269,0.3768692-0.2724438,0.6083279-0.2724438c0.3992481,0,0.6156464,0.2201691,0.6156464,0.7351398    c0,0.3842945-0.0036659,0.7984962-0.0075283,1.2126865H19.022049c0.0036545-0.3619251,0.0075188-0.7276115,0.0075188-1.1156654    c0-0.1530552-0.0410805-0.2724438-0.2351131-0.2724438c-0.104538,0-0.2538242,0.0895958-0.3396511,0.1716652l-0.0034561,1.216444    h-0.6608009L17.8055935,17.0521736L17.8055935,17.0521736z" fill="#303C42" fill-rule="evenodd" id="XMLID_2331_"/></g><line fill="none" id="XMLID_2332_" stroke="#303C42" stroke-miterlimit="10" x1="0.5" x2="23.5" y1="14.5223045" y2="14.5223045"/></g><g/><g/><g/><g/><g/><g/><g/><g/><g/><g/><g/><g/><g/><g/><g/></svg>