<?xml version="1.0" ?><svg enable-background="new 0 0 24 24" id="Layer_1" version="1.1" viewBox="0 0 24 24" xml:space="preserve" xmlns="http://www.w3.org/2000/svg" xmlns:xlink="http://www.w3.org/1999/xlink"><g><path d="M22,20.5H2   c-0.8284271,0-1.5-0.6715736-1.5-1.5V5c0-0.8284273,0.6715729-1.5,1.5-1.5h20c0.8284264,0,1.5,0.6715727,1.5,1.5v14   C23.5,19.8284264,22.8284264,20.5,22,20.5z" fill="none" stroke="#303C42" stroke-linecap="round" stroke-linejoin="round" stroke-miterlimit="10"/><g><polygon clip-rule="evenodd" fill="#303C42" fill-rule="evenodd" points="21,14.0707598 20.8401585,14.0707598     20.8401585,10.0377378 21,10.0377378 21,14.0707598   "/><polygon clip-rule="evenodd" fill="#303C42" fill-rule="evenodd" points="19.0695705,14.0584641 18.9097328,14.0584641     18.9097328,10.0254145 19.0695705,10.0254145 19.0695705,14.0584641   "/><polygon clip-rule="evenodd" fill="#303C42" fill-rule="evenodd" points="4.1818547,11.8287716 4.3422389,10.6656389     4.5052032,11.8287716 5.2888684,11.8287716 5.6690316,10.0327692 5.056066,10.0327692 4.8879433,11.168541 4.7198529,10.0327692     3.9723961,10.0327692 3.8043368,11.1385441 3.6387615,10.0327692 3,10.0327692 3.385289,11.8287716 4.1818547,11.8287716   "/><polygon clip-rule="evenodd" fill="#303C42" fill-rule="evenodd" points="5.9764218,11.8287716 7.5362124,11.8287716     7.5362124,11.3617258 6.7505999,11.3617258 6.7505999,11.1493683 7.4916573,11.1493683 7.4916573,10.6872663     6.7505999,10.6872663 6.7505999,10.4948778 7.5105729,10.4948778 7.5105729,10.0327692 5.9764218,10.0327692     5.9764218,11.8287716   "/><path clip-rule="evenodd" d="M7.8720055,11.2518196    c-0.0028009,0.0224276-0.0028009,0.0449057-0.0028009,0.064908c0,0.3422289,0.3105164,0.54249,0.8955183,0.54249    c0.5766258,0,0.8905163-0.2060862,0.8905163-0.5858002c0-0.3272009-0.183917-0.4242086-0.6431551-0.5788269    c-0.2453213-0.0826101-0.3874941-0.0781841-0.3874941-0.2031555c0-0.0674181,0.0430603-0.1164026,0.1456432-0.1164026    c0.1211786,0,0.1801586,0.0801582,0.1746836,0.1979637h0.6625204v-0.0756054c0-0.3171988-0.2869453-0.5084772-0.8164063-0.5084772    c-0.5822039,0-0.891315,0.2262125-0.891315,0.5784121c0,0.2523289,0.1566586,0.3983793,0.4781852,0.4906101    c0.2355804,0.0675488,0.3710537,0.1233158,0.473382,0.1685362c0.0541105,0.0239153,0.0720358,0.077323,0.0645237,0.1279984    c-0.0103817,0.06987-0.0524511,0.1128998-0.1588221,0.1128998c-0.1303234,0-0.166976-0.0781879-0.166976-0.2005806v-0.0149698    H7.8720055L7.8720055,11.2518196z" fill="#303C42" fill-rule="evenodd"/><polygon clip-rule="evenodd" fill="#303C42" fill-rule="evenodd" points="11.5580845,10.0327692 9.8499527,10.0327692     9.8499527,10.5123949 10.3255634,10.5123949 10.3255634,11.8287716 11.0853405,11.8287716 11.0853405,10.5123949     11.5580845,10.5123949 11.5580845,10.0327692   "/><polygon clip-rule="evenodd" fill="#303C42" fill-rule="evenodd" points="11.8849697,11.8287716 13.4447575,11.8287716     13.4447575,11.3617258 12.6591759,11.3617258 12.6591759,11.1493683 13.3930054,11.1493683 13.3930054,10.6872663     12.6591759,10.6872663 12.6591759,10.4948778 13.4191523,10.4948778 13.4191523,10.0327692 11.8849697,10.0327692     11.8849697,11.8287716   "/><path clip-rule="evenodd" d="M13.9200115,11.8287716h0.7475576v-0.639782    c0.024868-0.0025196,0.0496435-0.0025196,0.0690126-0.0025196c0.1792641,0,0.2059565,0.0651617,0.2344589,0.2601318    l0.0193958,0.1324224c0.0109539,0.0799322,0.0330248,0.1623573,0.0578651,0.2497473h0.7586708    c-0.0331211-0.1322985-0.0579958-0.2397766-0.068985-0.3197193l-0.0248718-0.1923246    c-0.0336618-0.2600365-0.1325178-0.3576164-0.3335981-0.3975534c0.2049313-0.0503492,0.35847-0.2049036,0.35847-0.4205732    c0-0.3592997-0.2264662-0.4658318-0.772522-0.4658318h-1.045454V11.8287716L13.9200115,11.8287716z M14.6675692,10.7479639    v-0.3129921c0.0331516-0.0025196,0.0607319-0.0025196,0.0855732-0.0025196c0.1683092,0,0.2427387,0.0409889,0.2427387,0.1525517    c0,0.114109-0.0938215,0.1654806-0.2731209,0.1654806C14.7062588,10.7504845,14.6869621,10.7504845,14.6675692,10.7479639    L14.6675692,10.7479639z" fill="#303C42" fill-rule="evenodd"/><polygon clip-rule="evenodd" fill="#303C42" fill-rule="evenodd" points="16.7697468,10.8042393 17.1706123,11.8287716     18.0396271,11.8287716 18.0396271,10.0327692 17.4524937,10.0327692 17.4524937,10.9471693 17.1207676,10.0327692     16.1826057,10.0327692 16.1826057,11.8287716 16.7697468,11.8287716 16.7697468,10.8042393   "/><polygon clip-rule="evenodd" fill="#303C42" fill-rule="evenodd" points="10.8249617,12.9476604 11.2258577,13.9722538     12.0948114,13.9722538 12.0948114,12.1762562 11.5077314,12.1762562 11.5077314,13.0906248 11.1760426,12.1762562     10.2378511,12.1762562 10.2378511,13.9722538 10.8249617,13.9722538 10.8249617,12.9476604   "/><polygon clip-rule="evenodd" fill="#303C42" fill-rule="evenodd" points="16.7878342,12.9476604 17.1886997,13.9722538     18.0577183,13.9722538 18.0577183,12.1762562 17.4706135,12.1762562 17.4706135,13.0906248 17.1388912,12.1762562     16.2007618,12.1762562 16.2007618,13.9722538 16.7878342,13.9722538 16.7878342,12.9476604   "/><path clip-rule="evenodd" d="M7.913218,12.1762562v1.0820751    c0,0.206913,0.0137286,0.3692703,0.1733804,0.5241461c0.1652517,0.1598759,0.4048119,0.2202234,0.7462482,0.2202234    c0.6278019,0,0.9223623-0.2351923,0.9223623-0.7443695v-1.0820751H9.0090256v1.1095591    c0,0.1469803-0.0660839,0.2269163-0.1761789,0.2269163c-0.1156759,0-0.1762772-0.0749712-0.1762772-0.2269163v-1.1095591H7.913218    L7.913218,12.1762562z" fill="#303C42" fill-rule="evenodd"/><polygon clip-rule="evenodd" fill="#303C42" fill-rule="evenodd" points="13.3484812,12.1762562 12.5832205,12.1762562     12.5832205,13.9722881 13.3484812,13.9722881 13.3484812,12.1762562   "/><path clip-rule="evenodd" d="M14.7495108,14.0002527    c0.680706,0,1.0448818-0.3293028,1.0448818-0.9389601c0-0.599556-0.3669806-0.9410887-1.0196257-0.9410887    c-0.6582584,0-1.0280676,0.3415327-1.0280676,0.9436092C13.7466993,13.6607876,14.1136789,14.0002527,14.7495108,14.0002527    L14.7495108,14.0002527z M14.7719278,12.5371504c0.1764355,0,0.2185087,0.155798,0.2185087,0.495801    c0,0.3796873-0.0448399,0.5525188-0.2213097,0.5525188c-0.1736965,0-0.2184744-0.1700306-0.2184744-0.5156746    C14.5506525,12.7071228,14.589797,12.5371504,14.7719278,12.5371504L14.7719278,12.5371504z" fill="#303C42" fill-rule="evenodd"/></g></g><g/><g/><g/><g/><g/><g/><g/><g/><g/><g/><g/><g/><g/><g/><g/></svg>