<?xml version="1.0" ?><svg enable-background="new 0 0 24 24" id="Layer_1" version="1.1" viewBox="0 0 24 24" xml:space="preserve" xmlns="http://www.w3.org/2000/svg" xmlns:xlink="http://www.w3.org/1999/xlink"><g><path d="M22,20.5H2   c-0.8284271,0-1.5-0.6715736-1.5-1.5V5c0-0.8284273,0.6715729-1.5,1.5-1.5h20c0.8284264,0,1.5,0.6715727,1.5,1.5v14   C23.5,19.8284264,22.8284264,20.5,22,20.5z" fill="none" stroke="#303C42" stroke-linecap="round" stroke-linejoin="round" stroke-miterlimit="10"/><g id="XMLID_1393_"><g id="XMLID_1402_"><path d="M7.5617242,7.0002003v2.1949606H6.3324943c-0.7642498,0-1.3860202,0.6027508-1.3860202,1.3405704     l-0.0059996,1.9694662c-0.0234599,0.0017166-0.0506892,0.0027838-0.0821404,0.0027838     c-0.0881896,0-0.18435-0.00741-0.3025799-0.02108c-0.1767097-0.0205116-0.3647857-0.059886-0.5557499-0.1159811V8.2225513     c0-0.2366505,0.0114498-0.4102497,0.0685802-0.5445499c0.1165099-0.2741394,0.4105797-0.5193901,0.73208-0.6103706     c0.16012-0.0453701,0.3041296-0.0674305,0.4402499-0.0674305H7.5617242 M7.5617242,15.0418692v0.8734322     c0,0.0370102-0.0023398,0.0736198-0.0053401,0.1104403c-0.0127797,0.1566601-0.05128,0.283989-0.1214099,0.4010792     c-0.1437101,0.2402-0.4321799,0.4398804-0.7530298,0.5211601c-0.1754403,0.0444813-0.3846903,0.0480213-0.6400104,0.0480213     l-0.0595999-0.000042l-0.0619097-0.0000381l-1.4524002-0.0002213H4.000174v-1.6504726     c0.2882895,0.0311222,0.5533381,0.0513792,0.81459,0.0627728c0.1154904,0.0051203,0.2325201,0.0075607,0.3579903,0.0075607     c0.1328998,0,0.27807-0.0025206,0.4556398-0.0086403c0.1637602-0.0054903,0.3075399-0.0145702,0.4423599-0.0275297     l0.1075401-0.00912c0.12498-0.0098705,0.2541499-0.0213003,0.3900199-0.04389     C6.8627176,15.2772388,7.2135515,15.1914101,7.5617242,15.0418692 M8.5617247,6.0002003H5.2409143     c-0.2446599,0-0.48032,0.0394115-0.7128801,0.1053104c-0.6229501,0.1762905-1.14991,0.64048-1.3797801,1.1813412     c-0.12993,0.3054695-0.1482499,0.6154995-0.1482499,0.9356995v4.9792795     c0.0529182-0.0227785,0.110584-0.0343437,0.1684663-0.0343437c0.0519688,0,0.1041102,0.0093193,0.1531737,0.0282145     c0.3749299,0.1448097,0.7617898,0.2430897,1.1188197,0.2845297c0.1635504,0.0189199,0.2962604,0.02775,0.41787,0.02775     c0.2195301,0,0.4040103-0.0299997,0.56387-0.0917006c0.0036902-0.0015697,0.0074801-0.0029192,0.0111704-0.0041895     c0.2712197-0.0957403,0.4651999-0.3414497,0.5063-0.6410799l0.0067997-2.2322302     c0-0.1897602,0.1728001-0.3436203,0.3860202-0.3436203H7.802124c0.2132206,0,0.3860207,0.1538601,0.3860207,0.3436203v2.1128502     c0,0.2815399-0.0622807,0.6869297-0.3594604,1.0187302c-0.3755999,0.41961-0.9822402,0.5957594-1.4250002,0.6696596     c-0.1056399,0.0175705-0.2065797,0.02565-0.3041601,0.0333605c-0.0416899,0.0033598-0.0837097,0.0065794-0.1269097,0.0108395     c-0.1136298,0.0109205-0.2370901,0.0185499-0.3776999,0.0232601c-0.1650701,0.0056896-0.2992902,0.0080805-0.4221601,0.0080805     c-0.10993,0-0.2124701-0.0020905-0.3136601-0.0065804c-0.44099-0.0192299-0.8982799-0.0664206-1.4819798-0.1529598     c-0.10691-0.0158606-0.2112901-0.03792-0.3004601-0.0573702c-0.0269799-0.0059805-0.0521998-0.0150299-0.0764799-0.0254297     v3.8224792c0.48931,0,0.9786201,0,1.46785,0c0.4840198,0.0002213,0.96804,0.0002213,1.4524002,0.0002213     c0.0406008,0,0.0811286,0.0000801,0.121511,0.0000801c0.2992606,0,0.5928206-0.0044136,0.8857789-0.0786915     c0.5760498-0.1459293,1.0836-0.5060692,1.3654003-0.9770699c0.1569996-0.2621593,0.2362595-0.5425701,0.2599592-0.8332291     v-0.0004501c0.0052099-0.0634308,0.0086508-0.1270103,0.0086508-0.1912603V6.0002003L8.5617247,6.0002003z" fill="#303C42"/></g><g id="XMLID_1400_"><path d="M17.9872875,5.9999676l0.01227,1.0000305l2.0004406,0.0008793v2.459384     c-0.2556305-0.1202126-0.5427914-0.2021599-0.8546505-0.2425833c-0.2357597-0.03057-0.45924-0.0347805-0.6657906-0.0347805     L16.430687,9.183218l-0.00107-1.1748104c0-0.150259,0.0396404-0.2966995,0.1146507-0.4235401     c0.0754604-0.1275997,0.1841393-0.2435093,0.3160191-0.3364105c0.0985203-0.069706,0.2307816-0.1261616,0.4218521-0.1965866     c0.1131287-0.0259724,0.4073811-0.0519028,0.7051487-0.0519028V5.9999676 M19.9999981,15.1170731v0.3349447v0.4737597     c0,0.2108097-0.0457001,0.3800011-0.1435909,0.5321198c-0.15238,0.2365608-0.4510593,0.4266109-0.7986202,0.5082912     c-0.1143589,0.0268288-0.2601795,0.0323296-0.4439487,0.0323296l-0.1229401-0.0004902l-0.13447-0.0005302h-1.4529915h-0.4638329     l-0.0018711-1.6936102h1.8494339l0.2093315,0.0024805l0.22435,0.0023794c0.1632099,0,0.2962589-0.0055695,0.419899-0.0162592     C19.3752747,15.2720661,19.6843414,15.2315702,19.9999981,15.1170731 M17.9872894,5.9999676     c-0.0941391,0-0.6886444,0.0038071-1.0081215,0.0979099c-0.2489395,0.09058-0.4840202,0.1839294-0.6964912,0.3342705     c-0.2479286,0.1746502-0.4519091,0.3946991-0.5991592,0.6436996c-0.1696901,0.2869205-0.2538996,0.6088409-0.2538996,0.93256     l0.0020094,2.20994c0.0518599-0.0220594,0.1081705-0.0349998,0.1665802-0.0349998l2.8815098-0.0004501     c0.200201,0,0.3674507,0.0044899,0.5370598,0.0264797c0.2792797,0.0362005,0.6686611,0.1394205,0.9361,0.4249201     c0.0025196,0.0026102,0.0048714,0.0053101,0.007391,0.0079203c0.2903004,0.3294802,0.3124886,0.7845497,0.0565701,1.1595001     c-0.1056499,0.1484699-0.2611313,0.2711401-0.4521713,0.3611202c0.4393101,0.1363497,0.8299503,0.4156399,0.88904,0.8879099     c0.0298309,0.2391996-0.0275688,0.4772797-0.1576691,0.6529703c-0.0953102,0.1272297-0.2128105,0.2653093-0.3736706,0.3425694     c-0.2653389,0.1774902-0.6029491,0.22686-0.8683605,0.2499704c-0.0977497,0.0084496-0.2034798,0.0124893-0.3331585,0.0124893     c-0.0737114,0-0.147501-0.0012693-0.2212906-0.0024595c-0.0710201-0.0012798-0.1418705-0.0024004-0.2123909-0.0024004h-2.6824789     c-0.0606804,0-0.1172504-0.0134592-0.1681004-0.0355997l0.0041199,3.7292099c0.4876404,0,0.9752703,0,1.4627295,0     c0.4844513,0,0.9686317,0,1.4529915,0c0.0856304,0,0.1715488,0.0010242,0.2574139,0.0010242     c0.226202,0,0.4521503-0.0071068,0.6723747-0.0587749c0.5865612-0.1378498,1.1073112-0.4690495,1.410881-0.9403381     c0.21348-0.3317204,0.3029003-0.6941109,0.3029003-1.0736313c0-0.1579695,0-0.3158598,0-0.4737597V6.4306469     c0-0.1442795,0-0.28512,0-0.4293289l-3-0.0013199C17.9999981,5.9999981,17.9955788,5.9999676,17.9872894,5.9999676     L17.9872894,5.9999676z" fill="#303C42"/></g><g id="XMLID_1398_"><path d="M17.6896019,12.6233644l-1.0591393,0.0005903v0.7815495l1.0794792,0.0011206     c0.4582195,0,0.5302391-0.28265,0.5302391-0.3926802c0-0.1316404-0.0686588-0.2508602-0.1838894-0.31915     C17.9586315,12.6348743,17.844162,12.6233644,17.6896019,12.6233644L17.6896019,12.6233644z" fill="#303C42"/></g><g id="XMLID_1396_"><path d="M17.6125984,11.0556355c-0.0132313,0-0.0272427,0.0001364-0.0420856,0.0004368h-0.9402199v0.6996498     l0.9106293,0.0011206c0.0397511,0,0.0795898-0.0001497,0.1159897-0.0007505c0.1045513,0,0.2408714-0.0204897,0.3366013-0.1177998     c0.0940495-0.0952997,0.1229591-0.2431698,0.070179-0.3596296c-0.049839-0.1080799-0.1566601-0.1932697-0.2648296-0.2099504     C17.789238,11.0672235,17.7345238,11.0556355,17.6125984,11.0556355L17.6125984,11.0556355z" fill="#303C42"/></g><g id="XMLID_1394_"><path d="M11.6850815,7.0000019l0.0660496,0.000061l0.0688,0.0000591h1.4537401h0.5144196v2.2431841     c-0.4334927-0.0693893-0.8820276-0.1365738-1.36306-0.1558733c-0.1684999-0.0067501-0.3489799-0.0101604-0.5346498-0.0101604     l-0.2497997,0.0020103c-0.2634497,0.0042801-0.5620499,0.00912-0.8738098,0.0553598L10.6696215,9.148962     c-0.1471987,0.021409-0.2974977,0.043272-0.4542837,0.0729227l-0.0008268-0.8172722l-0.0003996-0.1153297     c-0.0012102-0.2303505-0.0023603-0.4479208,0.0682898-0.6121702c0.1001902-0.2634296,0.4064999-0.5082302,0.7803802-0.6236706     C11.2228413,7.0040226,11.439311,7.0000019,11.6850815,7.0000019 M12.1766109,11.9896126     c0.1057005,0,0.2160902,0.00667,0.3227901,0.0198402c0.2994699,0.0370598,0.5860605,0.1079493,0.8518105,0.21068     c0.0113611,0.0043926,0.0227642,0.0086346,0.0342083,0.0127268c-0.0163374,0.0056915-0.0325823,0.0116835-0.0487585,0.0179825     c-0.3053303,0.1189604-0.6475,0.1977501-1.0462599,0.2408905c-0.0414705,0.0044994-0.0836802,0.0066795-0.1269903,0.0066795     c-0.1257896,0-0.2678289-0.0182629-0.4331303-0.0557575c-0.0964766-0.0348425-0.1306543-0.0692606-0.1316938-0.0692606     c-0.0000238,0-0.0000305,0.0000172-0.00002,0.0000534c-0.0131397-0.0238438-0.0385914-0.1244335,0.0009737-0.2704048     l0.0350704-0.0177498l0.0190897-0.0105104c0.0282803-0.0155802,0.1161299-0.0541296,0.3197899-0.0755901     C12.0369215,11.9925623,12.1055613,11.9896021,12.1766109,11.9896126 M13.7880907,15.240243v0.2832794v0.4285097     c0,0.0378408,0.0003805,0.0756207-0.0030699,0.11446c-0.0085649,0.0976944-0.039217,0.2382813-0.1978989,0.4668407     c-0.1816025,0.207756-0.4262409,0.3503132-0.7270508,0.4303493c-0.1390696,0.0335102-0.3241005,0.0363197-0.4866199,0.0363197     l-0.1162004-0.0003796l-0.1260195-0.0004101h-1.45012h-0.4611559l-0.0010471-1.7263575     c0.0082121,0.0016136,0.0164251,0.0032053,0.0246525,0.0047779c0.3114805,0.0597095,0.6029205,0.0893898,0.8465605,0.1105194     c0.1982403,0.0172701,0.3949995,0.0217199,0.6318903,0.0217199l0.1975098-0.0002995c0.2394896,0,0.5375395,0,0.8411102-0.0320206     C13.0857201,15.3431892,13.4303246,15.302619,13.7880907,15.240243 M11.6850843,6     c-0.3104219,0-0.6189375,0.0058231-0.9173231,0.0979519C10.1245613,6.2965431,9.569521,6.7384434,9.3477211,7.3216324     c-0.1523695,0.34758-0.1332102,0.7180405-0.1332102,1.0829802l0.0022707,2.2447901     c0.2784395-0.1730003,0.5879793-0.3019505,0.9446697-0.3923798c0.2183599-0.0553503,0.4289799-0.0860205,0.6521196-0.1184807     l0.099-0.0145893c0.2476006-0.0367203,0.5001602-0.0408401,0.7442303-0.0448008     c0.0784388-0.0012512,0.1564989-0.0018778,0.2335777-0.0018778c0.1717606,0,0.3387136,0.0031118,0.4945927,0.0093584     c0.4661999,0.0186996,0.9042492,0.08916,1.3676796,0.1638098l0.1052198,0.0169001     c0.0280704,0.0045595,0.0573997,0.0095701,0.0873203,0.0152597c0.1787701,0.0334301,0.3064394,0.1737499,0.3064394,0.3362103     v0.3534899c0,0.1157799-0.0654793,0.2237902-0.1742296,0.2872896c-0.0638599,0.0373049-0.1376152,0.0562744-0.2117405,0.0562744     c-0.0522118,0-0.1046057-0.0094109-0.1538591-0.0284538c-0.3422403-0.1323099-0.7087603-0.2232599-1.08957-0.2703905     c-0.1475878-0.0182219-0.29984-0.0274124-0.4456158-0.0274143c-0.1073389-0.000001-0.2111483,0.0049791-0.3070946,0.0150051     c-0.2874403,0.0302896-0.5158796,0.0937891-0.6982603,0.1942396c-0.0052099,0.0028496-0.0102501,0.0054598-0.0155401,0.0080795     c-0.2488594,0.12327-0.4561195,0.3823605-0.5279799,0.66008c-0.0995092,0.3636608-0.0512695,0.7602301,0.1243906,1.0389309     c0.1423693,0.2255096,0.3856001,0.3980598,0.70397,0.4994898l0.0021801,0.0005999     c0.2584438,0.0619316,0.4891663,0.0923767,0.7051306,0.0923767c0.0800591,0,0.158083-0.0041828,0.2347488-0.0124969     c0.4873905-0.0527296,0.9129906-0.1519098,1.3015404-0.3032999c0.0496941-0.0193491,0.1024799-0.0288858,0.1550064-0.0288858     c0.0739765,0,0.1474466,0.0189104,0.2110939,0.0559559c0.1090097,0.0635099,0.1747293,0.1715899,0.1747293,0.2875996v0.3599205     c0,0.1584902-0.1218596,0.2964201-0.2948294,0.33389c-0.4420805,0.0954399-0.8812208,0.1487703-1.2901907,0.1920004     c-0.2510395,0.0264797-0.5087299,0.0264797-0.7359896,0.0264797l-0.1990204,0.0002995h-0.0006695     c-0.2023001,0-0.3719902-0.0030594-0.5429401-0.0179501c-0.2191-0.0189991-0.4789705-0.0453997-0.74506-0.0964098     c-0.2884502-0.05513-0.5647898-0.1415901-0.8453302-0.2637396c-0.1128798-0.04914-0.2419701-0.1102505-0.3684597-0.1882601     l0.0025196,4.1556997c0.4868803,0,0.9735899,0,1.4605503,0c0.4834299,0,0.9666901,0,1.45012,0     C12.2119455,17.9992123,12.2927732,18,12.3734484,18c0.2425804,0,0.4842329-0.0071125,0.7208729-0.0641365     c0.5220003-0.1384506,0.9587898-0.3973217,1.2837095-0.789032c0.2202806-0.3063698,0.3709803-0.6258297,0.4031706-0.993     c0.00597-0.067318,0.0068893-0.1344891,0.0068893-0.2017994c0-0.1428595,0-0.2855797,0-0.4285097V6.5013332     c0-0.1670208,0-0.3341217,0-0.5012112h-1.5144196c-0.4846096,0-0.9691296,0-1.4537401,0     C11.7749605,6.0001221,11.7299995,6,11.6850843,6L11.6850843,6z" fill="#303C42"/></g></g></g><g/><g/><g/><g/><g/><g/><g/><g/><g/><g/><g/><g/><g/><g/><g/></svg>