<?xml version="1.0" ?><svg enable-background="new 0 0 24 24" id="Layer_1" version="1.1" viewBox="0 0 24 24" xml:space="preserve" xmlns="http://www.w3.org/2000/svg" xmlns:xlink="http://www.w3.org/1999/xlink"><g><path d="M22,20.5H2   c-0.8284271,0-1.5-0.6715736-1.5-1.5V5c0-0.8284273,0.6715729-1.5,1.5-1.5h20c0.8284264,0,1.5,0.6715727,1.5,1.5v14   C23.5,19.8284264,22.8284264,20.5,22,20.5z" fill="none" stroke="#303C42" stroke-linecap="round" stroke-linejoin="round" stroke-miterlimit="10"/><circle cx="8.75" cy="10.75" fill="none" r="4.25" stroke="#303C42" stroke-linecap="round" stroke-linejoin="round" stroke-miterlimit="10"/><circle cx="15.25" cy="10.75" fill="none" r="4.25" stroke="#303C42" stroke-linecap="round" stroke-linejoin="round" stroke-miterlimit="10"/><path d="M9.1970215,17.0875244l-0.1495361-0.0213623c-0.1373291-0.0183105-0.2471924-0.0457764-0.2471924-0.1434326   c0-0.1068115,0.1037598-0.1708984,0.27771-0.1708984c0.1861572,0,0.3662109,0.0701904,0.4547119,0.1251221l0.1373291-0.2563477   c-0.1525879-0.100708-0.3631592-0.1525879-0.5950928-0.1525879c-0.3692627,0-0.6072388,0.177002-0.6072388,0.4669189   c0,0.2380371,0.1769409,0.3845215,0.503479,0.4302979l0.1495361,0.0213623   c0.1739502,0.024353,0.2563477,0.0701294,0.2563477,0.1525269c0,0.112915-0.1159668,0.177063-0.3326416,0.177063   c-0.2197266,0-0.378418-0.0701904-0.4852295-0.1526489L8.409668,17.81073C8.5836182,17.9389038,8.8033447,18,9.0413818,18   c0.4211426,0,0.6652832-0.1984253,0.6652832-0.4760742C9.706665,17.2675781,9.5144043,17.1333008,9.1970215,17.0875244z    M10.7473145,17.697876c-0.1586914,0-0.2105713-0.0977173-0.2105713-0.2441406v-0.6591797h0.5187378v-0.289917h-0.5187378   v-0.4425049h-0.3204346v0.4425049H9.9202881v0.289917h0.2960205v0.6652832C10.2163086,17.7985229,10.3475342,18,10.7229004,18   c0.1373291,0,0.2959595-0.0427856,0.3966675-0.112915l-0.0914917-0.2716064   C10.9334106,17.6704102,10.8296509,17.697876,10.7473145,17.697876z M7.7841187,16.6816406   c-0.100708-0.1312256-0.2532959-0.213623-0.4608154-0.213623c-0.4089355,0-0.7293701,0.3204346-0.7293701,0.7659302   C6.5939331,17.6795044,6.9143677,18,7.3233032,18c0.2075195,0,0.3601074-0.0824585,0.4608154-0.2136841v0.177063h0.3173828   v-1.4587402H7.7841187V16.6816406z M7.3629761,17.7008667c-0.2746582,0-0.4425049-0.2105713-0.4425049-0.4669189   c0-0.2562866,0.1678467-0.4668579,0.4425049-0.4668579c0.2623901,0,0.4393921,0.201416,0.4393921,0.4668579   C7.8023682,17.4995117,7.6253662,17.7008667,7.3629761,17.7008667z M5.7394409,16.4680176   c-0.1860962-0.0030518-0.3783569,0.0549316-0.5126343,0.2593994c-0.100708-0.1617432-0.2593994-0.2593994-0.4821777-0.2593994   c-0.1556396,0-0.3082275,0.0457764-0.4272461,0.2166748v-0.1800537H4v1.4587402h0.3204346v-0.8087158   c0-0.2532959,0.1403809-0.3875732,0.3570557-0.3875732c0.2105713,0,0.3173828,0.1373291,0.3173828,0.3845215v0.8117676h0.3204346   v-0.8087158c0-0.2532959,0.1464844-0.3875732,0.3570557-0.3875732c0.2166138,0,0.3203735,0.1373291,0.3203735,0.3845215v0.8117676   h0.3204346v-0.9155273C6.3131714,16.7030029,6.0934448,16.4710693,5.7394409,16.4680176z M20.0494995,17.0875244   l-0.1494751-0.0213623c-0.1373901-0.0183105-0.2471924-0.0457764-0.2471924-0.1434326   c0-0.1068115,0.1036987-0.1708984,0.27771-0.1708984c0.1860962,0,0.3661499,0.0701904,0.4546509,0.1251221l0.1373291-0.2563477   c-0.1525879-0.100708-0.3631592-0.1525879-0.5950928-0.1525879c-0.3692017,0-0.6072388,0.177002-0.6072388,0.4669189   c0,0.2380371,0.177002,0.3845215,0.503479,0.4302979l0.1495361,0.0213623   c0.1739502,0.024353,0.2563477,0.0701294,0.2563477,0.1525269c0,0.112915-0.1159668,0.177063-0.3326416,0.177063   c-0.2196655,0-0.3783569-0.0701904-0.4851685-0.1526489L19.262207,17.81073C19.4361572,17.9389038,19.6558838,18,19.8938599,18   c0.4211426,0,0.6652832-0.1984253,0.6652832-0.4760742C20.5591431,17.2675781,20.3668823,17.1333008,20.0494995,17.0875244z    M17.0881348,16.713623C16.9874268,16.5823975,16.8348389,16.5,16.6273193,16.5   c-0.4088745,0-0.7293091,0.3204346-0.7293091,0.7659302c0,0.4455566,0.3204346,0.7660522,0.7293091,0.7660522   c0.2075195,0,0.3601074-0.0824585,0.4608154-0.2136841v0.177063h0.3173828v-1.4587402h-0.3173828V16.713623z    M16.6670532,17.7328491c-0.2747192,0-0.4425659-0.2105713-0.4425659-0.4669189   c0-0.2562866,0.1678467-0.4668579,0.4425659-0.4668579c0.2623901,0,0.4393921,0.201416,0.4393921,0.4668579   C17.1064453,17.5314941,16.9294434,17.7328491,16.6670532,17.7328491z M12.0442505,16.4680176   c-0.4272461,0-0.7263184,0.3112793-0.7263184,0.7659302C11.3179321,17.697876,11.6292114,18,12.0656128,18   c0.2197266,0,0.4211426-0.0549927,0.5981445-0.2045288l-0.1556396-0.2349243   c-0.1220703,0.0976563-0.27771,0.1525269-0.4241943,0.1525269c-0.2044678,0-0.390625-0.0945435-0.4364014-0.3570557h1.083374   c0.0030518-0.0396118,0.0061035-0.0792847,0.0061035-0.1220703C12.7339478,16.7792969,12.453186,16.4680176,12.0442505,16.4680176z    M11.6505737,17.105835c0.0335693-0.2105713,0.1617432-0.3540039,0.3875732-0.3540039   c0.2044678,0,0.3356934,0.1281738,0.3692627,0.3540039H11.6505737z M18.5103149,17.0875244l-0.1495361-0.0213623   c-0.1373291-0.0183105-0.2471924-0.0457764-0.2471924-0.1434326c0-0.1068115,0.1037598-0.1708984,0.27771-0.1708984   c0.1861572,0,0.3662109,0.0701904,0.4547119,0.1251221l0.1373291-0.2563477   c-0.1525879-0.100708-0.3631592-0.1525879-0.5950928-0.1525879c-0.3692627,0-0.6072998,0.177002-0.6072998,0.4669189   c0,0.2380371,0.177002,0.3845215,0.50354,0.4302979l0.1495361,0.0213623   c0.1739502,0.024353,0.2563477,0.0701294,0.2563477,0.1525269c0,0.112915-0.1159668,0.177063-0.3326416,0.177063   c-0.2197266,0-0.378418-0.0701904-0.4852295-0.1526489L17.7229614,17.81073C17.8969116,17.9389038,18.1166382,18,18.3546753,18   c0.4211426,0,0.6652222-0.1984253,0.6652222-0.4760742C19.0198975,17.2675781,18.8276978,17.1333008,18.5103149,17.0875244z    M13.3778687,16.6816406v-0.177002h-0.3143311v1.4587402h0.3173218v-0.8178711   c0-0.2410889,0.1037598-0.3753662,0.3113403-0.3753662c0.0640259,0,0.1312256,0.0091553,0.1983032,0.0366211l0.0976563-0.2990723   c-0.0701904-0.0274658-0.1617432-0.0396729-0.2258301-0.0396729   C13.5792847,16.4680176,13.4602051,16.5534668,13.3778687,16.6816406z M14.97229,16.4187622   c-0.2075195,0-0.3601074,0.0824585-0.4608154,0.2136841v-0.177063h-0.3173828V18.5h0.3173828v-0.7628784   c0.100708,0.1312256,0.2532959,0.213623,0.4608154,0.213623c0.4089355,0,0.7293701-0.3204346,0.7293701-0.7659302   C15.7016602,16.7392578,15.3812256,16.4187622,14.97229,16.4187622z M14.9326172,17.6516724   c-0.2624512,0-0.4394531-0.201416-0.4394531-0.4668579c0-0.265564,0.177002-0.4669189,0.4394531-0.4669189   c0.2746582,0,0.4424438,0.2105713,0.4424438,0.4669189C15.375061,17.4411011,15.2072754,17.6516724,14.9326172,17.6516724z" fill="#303C42"/></g><g/><g/><g/><g/><g/><g/><g/><g/><g/><g/><g/><g/><g/><g/><g/></svg>