<?xml version="1.0" ?><svg enable-background="new 0 0 24 24" id="Layer_1" version="1.1" viewBox="0 0 24 24" xml:space="preserve" xmlns="http://www.w3.org/2000/svg" xmlns:xlink="http://www.w3.org/1999/xlink"><g><path d="M22,20.5H2   c-0.8284271,0-1.5-0.6715736-1.5-1.5V5c0-0.8284273,0.6715729-1.5,1.5-1.5h20c0.8284264,0,1.5,0.6715727,1.5,1.5v14   C23.5,19.8284264,22.8284264,20.5,22,20.5z" fill="none" stroke="#303C42" stroke-linecap="round" stroke-linejoin="round" stroke-miterlimit="10"/><g><path d="M9.5,8.5505371C7.8083496,8.7957764,6.5,10.2415161,6.5,12s1.3083496,3.2042236,3,3.4494629V8.5505371z" fill="#303C42"/><path d="M10.5,8.5505371v6.8989258c1.6916504-0.2452393,3-1.690979,3-3.4494629    S12.1916504,8.7957764,10.5,8.5505371z" fill="#303C42"/><path d="M14,7h-4c-2.7614136,0-5,2.2385864-5,5s2.2385864,5,5,5h4c2.7614136,0,5-2.2385864,5-5S16.7614136,7,14,7z     M10,16.5c-2.4814453,0-4.5-2.0185547-4.5-4.5S7.5185547,7.5,10,7.5s4.5,2.0185547,4.5,4.5S12.4814453,16.5,10,16.5z" fill="#303C42"/></g></g><g/><g/><g/><g/><g/><g/><g/><g/><g/><g/><g/><g/><g/><g/><g/></svg>