<?xml version="1.0" ?><svg enable-background="new 0 0 24 24" id="Layer_1" version="1.1" viewBox="0 0 24 24" xml:space="preserve" xmlns="http://www.w3.org/2000/svg" xmlns:xlink="http://www.w3.org/1999/xlink"><g><path d="M22,20.5H2   c-0.8284271,0-1.5-0.6715736-1.5-1.5V5c0-0.8284273,0.6715729-1.5,1.5-1.5h20c0.8284264,0,1.5,0.6715727,1.5,1.5v14   C23.5,19.8284264,22.8284264,20.5,22,20.5z" fill="none" stroke="#303C42" stroke-linecap="round" stroke-linejoin="round" stroke-miterlimit="10"/><g id="XMLID_2043_"><path d="M9.7694044,10.0651665c-0.0243587-0.034153-0.0656738-0.0546999-0.1099739-0.0546999H9.6593103    l-0.9589634,0.0004406c-0.0541515,0-0.1028109,0.0306826-0.1225729,0.0772305l-1.1219554,2.644393l-0.1206617-0.4030075    c-0.0015521-0.0053434-0.003582-0.0106316-0.0060301-0.0156994c-0.1770816-0.3792658-0.6529813-0.9726496-1.3170085-1.4434681    c-0.0452552-0.032115-0.107646-0.0336571-0.154633-0.0039663c-0.0469871,0.0296917-0.0680027,0.083951-0.052002,0.1344099    l0.922246,2.9072628c0.0164189,0.0517807,0.0678835,0.0873661,0.1263933,0.0873661h0.0001192l1.0620732-0.0013771    c0.0525393,0,0.1000042-0.0289755,0.1207809-0.0734844l1.7432938-3.7405462    C9.797883,10.1424522,9.7937641,10.0992641,9.7694044,10.0651665z M6.8717351,11.3853531    c0.0255537,0.0310125,0.0647192,0.0479794,0.1048999,0.0479794c0.0185084,0,0.0371361-0.0035257,0.0547485-0.0109625    c0.0560021-0.0236311,0.0868096-0.080039,0.0740924-0.1356764l-0.2195311-0.9576664    c-0.0004778-0.0020933-0.0010152-0.0041313-0.0016122-0.006114c-0.0789285-0.2735567-0.3288488-0.3142099-0.5099311-0.3209848    c-0.0017314,0-0.0034628-0.0000553-0.0051341-0.0000553L5.1319637,10H5.1317248    c-0.0639429,0-0.1186914,0.0424156-0.1297369,0.1005316c-0.011045,0.058116,0.024837,0.1152391,0.0851378,0.1352358    C5.8415446,10.4862976,6.4586439,10.8837967,6.8717351,11.3853531z M11.3594389,10.0072165h-0.9122753    c-0.0641823,0-0.11905,0.0427465-0.129796,0.1010818L9.6252794,13.856391    c-0.0065079,0.0353107,0.004179,0.071557,0.0291357,0.0988245c0.0250158,0.0273771,0.0618534,0.0431318,0.1006603,0.0431318    h0.9116192c0.0641813,0,0.11905-0.0426912,0.129796-0.1011372l0.6927443-3.7480927    c0.0065079-0.0352554-0.0041189-0.0714464-0.0291348-0.0987692S11.3982468,10.0072165,11.3594389,10.0072165z     M18.1007862,10.1065359c-0.0133743-0.0556917-0.0667496-0.0952988-0.128603-0.0952988h-0.804987    c-0.3219833,0-0.5067062,0.0989895-0.6176376,0.3310661l-1.668664,3.4869862    c-0.017971,0.0377331-0.0141497,0.0810862,0.01015,0.1155701C14.9153442,13.9792881,14.9567785,14,15.0013771,14h0.9449339    c0.0547476,0,0.1037645-0.0312338,0.123229-0.0784426c0.1161232-0.2826452,0.1906338-0.4627752,0.2152328-0.5209455    c0.0626888,0,0.3529091,0.00033,0.6640854,0.0007706h0.0175533c0.357626,0.0003862,0.7375221,0.0008268,0.8284512,0.0008268    c0.0268078,0.1059294,0.093317,0.3864813,0.1207809,0.5021067c0.013195,0.0558567,0.0667496,0.0955734,0.1286621,0.0955734    h0.8240337c0.0398827,0,0.0776749-0.0166903,0.1026306-0.0453901s0.0345097-0.0663233,0.0259724-0.1022396L18.1007862,10.1065359z     M16.6240692,12.5837994l0.6269512-1.4966259l0.0797043,0.3447819l0.2729073,1.151844H16.6240692z M13.8853922,10.816041    c0.0103283-0.000165,0.0226278-0.0002756,0.034688-0.0002756c0.357089,0,0.6092777,0.0746965,0.7678518,0.1308842    c0.0368967,0.0130548,0.0780926,0.010191,0.112422-0.0078773c0.0343304-0.018013,0.058032-0.0492468,0.0647192-0.0852175    l0.1065712-0.5782356c0.0109863-0.0596581-0.0272846-0.1176634-0.089735-0.136117    c-0.1959476-0.0578403-0.5128565-0.1267529-0.909708-0.1267529c-1.125001,0-1.9150629,0.5221586-1.9213314,1.2693424    c-0.0071049,0.5532818,0.5648584,0.861927,0.9959803,1.0460243c0.4422274,0.1881723,0.5907707,0.3085899,0.5887403,0.4772081    c-0.0031042,0.2580767-0.3544617,0.3755751-0.6796694,0.3755751c-0.4628248,0-0.7122669-0.0643959-1.0651169-0.1997967    c-0.0370169-0.0142117-0.0790482-0.012064-0.1141548,0.0058393c-0.0351057,0.0177374-0.0594645,0.0494118-0.0662708,0.0858784    l-0.1129599,0.6089182c-0.0108662,0.0584469,0.0255537,0.1156254,0.0862122,0.1352358    c0.3109379,0.1005869,0.7451048,0.1631641,1.1613607,0.1672955h0.0014324    c1.1935415-0.0002203,1.9702291-0.5163193,1.9787674-1.3148422c0.0045366-0.4390888-0.2989979-0.7711468-0.9516811-1.0435457    c-0.399478-0.1790838-0.6442642-0.2980137-0.6419363-0.480073C13.2315741,10.9817944,13.4554043,10.816041,13.8853922,10.816041z" fill="#303C42"/></g></g><g/><g/><g/><g/><g/><g/><g/><g/><g/><g/><g/><g/><g/><g/><g/></svg>