<?xml version="1.0" ?><svg viewBox="0 0 64 64" xmlns="http://www.w3.org/2000/svg" xmlns:xlink="http://www.w3.org/1999/xlink"><defs><linearGradient gradientUnits="userSpaceOnUse" id="gradient_ice" x1="-6.872" x2="49.128" y1="22.657" y2="75.657"><stop offset="0" stop-color="#fff200"/><stop offset="1" stop-color="#cd118c"/></linearGradient><linearGradient id="gradient_ice-2" x1="-3.092" x2="52.908" xlink:href="#gradient_ice" y1="18.663" y2="71.663"/><linearGradient id="gradient_ice-3" x1="11.074" x2="67.074" xlink:href="#gradient_ice" y1="3.695" y2="56.695"/><linearGradient id="gradient_ice-4" x1="7.036" x2="63.036" xlink:href="#gradient_ice" y1="7.962" y2="60.962"/><linearGradient id="gradient_ice-5" x1="18.75" x2="74.75" xlink:href="#gradient_ice" y1="-4.415" y2="48.585"/><linearGradient id="gradient_ice-6" x1="-1.389" x2="54.611" xlink:href="#gradient_ice" y1="16.864" y2="69.864"/></defs><g data-name="chart-financial-business-finance" id="chart-financial-business-finance-6"><polygon points="54 60 54 59 52 59 52 60 44 60 44 59 42 59 42 60 33 60 33 59 31 59 31 60 23 60 23 59 21 59 21 60 12 60 12 59 10 59 10 60 4 60 4 54 5 54 5 52 4 52 4 44 5 44 5 42 4 42 4 33 5 33 5 31 4 31 4 22 5 22 5 20 4 20 4 13 5 13 5 11 4 11 4 2 2 2 2 62 62 62 62 60 54 60" style="fill:url(#gradient_ice)"/><path d="M10,50h2V40h2V24H12V14H10V24H8V40h2Zm0-24h2V38H10Z" style="fill:url(#gradient_ice-2)"/><path d="M31,40h2V32h2V18H33V7H31V18H29V32h2Zm0-20h2V30H31Z" style="fill:url(#gradient_ice-3)"/><path d="M42,52h2V49h2V41H44V32H42v9H40v8h2Zm0-9h2v4H42Z" style="fill:url(#gradient_ice-4)"/><path d="M52,44h2V34h2V26H54V12H52V26H50v8h2Zm0-16h2v4H52Z" style="fill:url(#gradient_ice-5)"/><path d="M21,50h2V44h2V33H23V28H21v5H19V44h2Zm0-15h2v7H21Z" style="fill:url(#gradient_ice-6)"/></g></svg>