<?xml version="1.0" ?><svg viewBox="0 0 64 64" xmlns="http://www.w3.org/2000/svg" xmlns:xlink="http://www.w3.org/1999/xlink"><defs><linearGradient gradientUnits="userSpaceOnUse" id="gradient_ice" x1="2.467" x2="64.467" y1="0.561" y2="66.561"><stop offset="0" stop-color="#fff200"/><stop offset="1" stop-color="#cd118c"/></linearGradient><linearGradient id="gradient_ice-2" x1="2.217" x2="64.217" xlink:href="#gradient_ice" y1="0.796" y2="66.796"/><linearGradient id="gradient_ice-3" x1="-6.033" x2="55.967" xlink:href="#gradient_ice" y1="8.546" y2="74.546"/><linearGradient id="gradient_ice-4" x1="10.966" x2="72.966" xlink:href="#gradient_ice" y1="-7.423" y2="58.577"/></defs><g id="gear-financial-business-finance"><path d="M62,39V25H54.958a23.927,23.927,0,0,0-1.777-4.281l4.982-4.983-9.9-9.9-4.983,4.982A23.927,23.927,0,0,0,39,9.042V2H25V9.042a23.927,23.927,0,0,0-4.281,1.777L15.736,5.837l-9.9,9.9,4.982,4.983A23.927,23.927,0,0,0,9.042,25H2V39H9.042a23.927,23.927,0,0,0,1.777,4.281L5.837,48.264l9.9,9.9,4.983-4.982A23.927,23.927,0,0,0,25,54.958V62H39V54.958a23.927,23.927,0,0,0,4.281-1.777l4.983,4.982,9.9-9.9-4.982-4.983A23.927,23.927,0,0,0,54.958,39Zm-8.761-1.26a21.849,21.849,0,0,1-2.165,5.217l-.382.664,4.642,4.643-7.07,7.07-4.643-4.642-.664.382a21.849,21.849,0,0,1-5.217,2.165l-.74.2V60H27V53.438l-.74-.2a21.866,21.866,0,0,1-5.217-2.165l-.664-.382-4.643,4.642-7.07-7.07,4.642-4.643-.382-.664a21.849,21.849,0,0,1-2.165-5.217l-.2-.74H4V27h6.562l.2-.74a21.866,21.866,0,0,1,2.165-5.217l.382-.664L8.666,15.736l7.07-7.071,4.643,4.643.664-.382a21.866,21.866,0,0,1,5.217-2.165l.74-.2V4H37v6.562l.74.2a21.849,21.849,0,0,1,5.217,2.165l.664.382,4.643-4.643,7.07,7.071-4.642,4.643.382.664a21.866,21.866,0,0,1,2.165,5.217l.2.74H60V37H53.438Z" style="fill:url(#gradient_ice)"/><path d="M36,17V13H28v4H21V36H36v4H21v8h7v4h8V48h7V28H28V24H43V17Zm5,5H26v8H41V46H34v4H30V46H23V42H38V34H23V19h7V15h4v4h7Z" style="fill:url(#gradient_ice-2)"/><path d="M13,35h6V29H13Zm2-4h2v2H15Z" style="fill:url(#gradient_ice-3)"/><path d="M45,35h6V29H45Zm2-4h2v2H47Z" style="fill:url(#gradient_ice-4)"/></g></svg>