<?xml version="1.0" ?><svg viewBox="0 0 64 64" xmlns="http://www.w3.org/2000/svg" xmlns:xlink="http://www.w3.org/1999/xlink"><defs><linearGradient gradientUnits="userSpaceOnUse" id="gradient_ice" x1="-5.395" x2="64.605" y1="8.656" y2="73.656"><stop offset="0" stop-color="#fff200"/><stop offset="1" stop-color="#cd118c"/></linearGradient><linearGradient id="gradient_ice-2" x1="4.09" x2="74.09" xlink:href="#gradient_ice" y1="-1.559" y2="63.441"/><linearGradient id="gradient_ice-3" x1="12.425" x2="82.425" xlink:href="#gradient_ice" y1="-10.534" y2="54.466"/><linearGradient id="gradient_ice-4" x1="8.258" x2="78.258" xlink:href="#gradient_ice" y1="-6.047" y2="58.953"/></defs><g data-name="reward-performance-business-finance" id="reward-performance-business-finance-2"><path d="M59,60V39H42V29H37.166a14,14,0,1,0-10.332,0H22v6H5V60H2v2H62V60ZM20,16A12,12,0,1,1,32,28,12.013,12.013,0,0,1,20,16ZM7,60V37H22V60Zm17,0V31H40V60Zm18,0V41H57V60Z" style="fill:url(#gradient_ice)"/><rect height="2" style="fill:url(#gradient_ice-2)" width="2" x="22" y="15"/><rect height="2" style="fill:url(#gradient_ice-3)" width="2" x="40" y="15"/><polygon points="33 27 33 25 38 25 38 15 28 15 28 9 36 9 36 10 38 10 38 7 33 7 33 5 31 5 31 7 26 7 26 17 36 17 36 23 28 23 28 22 26 22 26 25 31 25 31 27 33 27" style="fill:url(#gradient_ice-4)"/></g></svg>