<?xml version="1.0" ?><svg viewBox="0 0 64 64" xmlns="http://www.w3.org/2000/svg" xmlns:xlink="http://www.w3.org/1999/xlink"><defs><linearGradient gradientUnits="userSpaceOnUse" id="gradient_ice" x1="6.344" x2="68.344" y1="-2.19" y2="62.81"><stop offset="0" stop-color="#fff200"/><stop offset="1" stop-color="#cd118c"/></linearGradient><linearGradient id="gradient_ice-2" x1="13.19" x2="75.19" xlink:href="#gradient_ice" y1="-8.72" y2="56.28"/><linearGradient id="gradient_ice-3" x1="8.695" x2="70.695" xlink:href="#gradient_ice" y1="-4.432" y2="60.568"/><linearGradient id="gradient_ice-4" x1="5.699" x2="67.699" xlink:href="#gradient_ice" y1="-1.574" y2="63.426"/><linearGradient id="gradient_ice-5" x1="2.702" x2="64.702" xlink:href="#gradient_ice" y1="1.284" y2="66.284"/><linearGradient id="gradient_ice-6" x1="-0.295" x2="61.705" xlink:href="#gradient_ice" y1="4.143" y2="69.143"/></defs><g id="document-financial-business-finance"><path d="M8,2V47.414L22.586,62H56V2ZM22,58.586,11.414,48H22ZM54,60H24V46H10V4H54Z" style="fill:url(#gradient_ice)"/><path d="M49,7H15v8H49Zm-2,6H17V9H47Z" style="fill:url(#gradient_ice-2)"/><rect height="2" style="fill:url(#gradient_ice-3)" width="34" x="15" y="19"/><rect height="2" style="fill:url(#gradient_ice-4)" width="34" x="15" y="25"/><rect height="2" style="fill:url(#gradient_ice-5)" width="34" x="15" y="31"/><rect height="2" style="fill:url(#gradient_ice-6)" width="34" x="15" y="37"/></g></svg>