<?xml version="1.0" ?><svg viewBox="0 0 64 64" xmlns="http://www.w3.org/2000/svg" xmlns:xlink="http://www.w3.org/1999/xlink"><defs><linearGradient gradientUnits="userSpaceOnUse" id="gradient_ice" x1="-8.375" x2="54.625" y1="16.812" y2="82.812"><stop offset="0" stop-color="#fff200"/><stop offset="1" stop-color="#cd118c"/></linearGradient><linearGradient id="gradient_ice-2" x1="13.062" x2="76.062" xlink:href="#gradient_ice" y1="-3.65" y2="62.35"/><linearGradient id="gradient_ice-3" x1="11.064" x2="74.064" xlink:href="#gradient_ice" y1="-1.743" y2="64.257"/><linearGradient id="gradient_ice-4" x1="11.016" x2="74.016" xlink:href="#gradient_ice" y1="-1.697" y2="64.303"/><linearGradient id="gradient_ice-5" x1="13.109" x2="76.109" xlink:href="#gradient_ice" y1="-3.695" y2="62.305"/><linearGradient id="gradient_ice-6" x1="7.924" x2="70.924" xlink:href="#gradient_ice" y1="1.254" y2="67.254"/><linearGradient id="gradient_ice-7" x1="5.926" x2="68.926" xlink:href="#gradient_ice" y1="3.161" y2="69.161"/><linearGradient id="gradient_ice-8" x1="5.879" x2="68.879" xlink:href="#gradient_ice" y1="3.206" y2="69.206"/><linearGradient id="gradient_ice-9" x1="7.972" x2="70.972" xlink:href="#gradient_ice" y1="1.209" y2="67.209"/><linearGradient id="gradient_ice-10" x1="1.788" x2="64.788" xlink:href="#gradient_ice" y1="7.111" y2="73.111"/><linearGradient id="gradient_ice-11" x1="-0.21" x2="62.79" xlink:href="#gradient_ice" y1="9.018" y2="75.018"/><linearGradient id="gradient_ice-12" x1="-0.257" x2="62.743" xlink:href="#gradient_ice" y1="9.064" y2="75.064"/><linearGradient id="gradient_ice-13" x1="1.836" x2="64.836" xlink:href="#gradient_ice" y1="7.066" y2="73.066"/><linearGradient id="gradient_ice-14" x1="21.053" x2="84.053" xlink:href="#gradient_ice" y1="-11.278" y2="54.722"/><linearGradient id="gradient_ice-16" x1="16.344" x2="79.344" xlink:href="#gradient_ice" y1="-6.783" y2="59.217"/><linearGradient id="gradient_ice-17" x1="25.762" x2="88.762" xlink:href="#gradient_ice" y1="-15.773" y2="50.227"/></defs><g data-name="reward-performance-business-finance" id="reward-performance-business-finance-3"><path d="M17,20A15.017,15.017,0,0,0,2,35V57.8l20,4.445V55h1c1.99,0,5-1.6,5-4V47h4V35A15,15,0,0,0,17,20ZM30,45H26v6c0,.966-1.761,2-3,2H20v6.753L4,56.2V35a13,13,0,1,1,26,0Z" style="fill:url(#gradient_ice)"/><rect height="2" style="fill:url(#gradient_ice-2)" width="2" x="48" y="33"/><rect height="2" style="fill:url(#gradient_ice-3)" width="2" x="48" y="37"/><rect height="2" style="fill:url(#gradient_ice-4)" width="2" x="46" y="35"/><rect height="2" style="fill:url(#gradient_ice-5)" width="2" x="50" y="35"/><rect height="2" style="fill:url(#gradient_ice-6)" width="2" x="42" y="37"/><rect height="2" style="fill:url(#gradient_ice-7)" width="2" x="42" y="41"/><rect height="2" style="fill:url(#gradient_ice-8)" width="2" x="40" y="39"/><rect height="2" style="fill:url(#gradient_ice-9)" width="2" x="44" y="39"/><rect height="2" style="fill:url(#gradient_ice-10)" width="2" x="36" y="43"/><rect height="2" style="fill:url(#gradient_ice-11)" width="2" x="36" y="47"/><rect height="2" style="fill:url(#gradient_ice-12)" width="2" x="34" y="45"/><rect height="2" style="fill:url(#gradient_ice-13)" width="2" x="38" y="45"/><path d="M49,4A14,14,0,1,0,63,18,14.015,14.015,0,0,0,49,4Zm0,26A12,12,0,1,1,61,18,12.013,12.013,0,0,1,49,30Z" style="fill:url(#gradient_ice-14)"/><polygon points="50 7 48 7 48 9 43 9 43 19 53 19 53 25 45 25 45 24 43 24 43 27 48 27 48 29 50 29 50 27 55 27 55 17 45 17 45 11 53 11 53 12 55 12 55 9 50 9 50 7" style="fill:url(#gradient_ice-14)"/><rect height="2" style="fill:url(#gradient_ice-16)" width="2" x="39" y="17"/><rect height="2" style="fill:url(#gradient_ice-17)" width="2" x="57" y="17"/></g></svg>