<?xml version="1.0" ?><svg data-name="money chart-financial-business-finance" id="money_chart-financial-business-finance" viewBox="0 0 64 64" xmlns="http://www.w3.org/2000/svg" xmlns:xlink="http://www.w3.org/1999/xlink"><defs><linearGradient gradientUnits="userSpaceOnUse" id="gradient_ice" x1="0.607" x2="64.607" y1="-3.317" y2="68.683"><stop offset="0" stop-color="#fff200"/><stop offset="1" stop-color="#cd118c"/></linearGradient><linearGradient id="gradient_ice-3" x1="-4.421" x2="59.579" xlink:href="#gradient_ice" y1="1.152" y2="73.152"/><linearGradient id="gradient_ice-4" x1="5.634" x2="69.634" xlink:href="#gradient_ice" y1="-7.786" y2="64.214"/><linearGradient id="gradient_ice-5" x1="0.616" x2="64.616" xlink:href="#gradient_ice" y1="-3.326" y2="68.674"/><linearGradient id="gradient_ice-6" x1="15.068" x2="79.068" xlink:href="#gradient_ice" y1="-16.171" y2="55.829"/><linearGradient id="gradient_ice-7" x1="-13.359" x2="50.641" xlink:href="#gradient_ice" y1="9.097" y2="81.097"/><linearGradient id="gradient_ice-8" x1="-8.766" x2="55.234" xlink:href="#gradient_ice" y1="5.014" y2="77.014"/><linearGradient id="gradient_ice-9" x1="-4.11" x2="59.89" xlink:href="#gradient_ice" y1="0.876" y2="72.876"/></defs><path d="M32,18A14,14,0,1,0,46,32,14.015,14.015,0,0,0,32,18Zm0,26A12,12,0,1,1,44,32,12.013,12.013,0,0,1,32,44Z" style="fill:url(#gradient_ice)"/><polygon points="33 23 31 23 31 25 27 25 27 33 35 33 35 37 29 37 29 36 27 36 27 39 31 39 31 41 33 41 33 39 37 39 37 31 29 31 29 27 35 27 35 28 37 28 37 25 33 25 33 23" style="fill:url(#gradient_ice)"/><rect height="2" style="fill:url(#gradient_ice-3)" width="2" x="22" y="31"/><rect height="2" style="fill:url(#gradient_ice-4)" width="2" x="40" y="31"/><path d="M47.593,38.771a17,17,0,1,1-3.569-18.793l.707.7,9.193-9.193-.707-.707a30,30,0,1,0,6.3,33.164l.4-.917L47.991,37.854Zm9.676,5.292A27.994,27.994,0,1,1,51.083,11.5l-6.372,6.371A18.947,18.947,0,0,0,19.2,18H15v2h2.285a19.035,19.035,0,0,0-2.5,4H12v2h1.986a18.888,18.888,0,0,0-.935,5H10v2h3.051a18.984,18.984,0,0,0,35.954,7.475Z" style="fill:url(#gradient_ice-5)"/><path d="M56.412,14.567l-.581-.809L45.242,21.309l.585.815A16.818,16.818,0,0,1,49,32a16.347,16.347,0,0,1-.508,4.1l-.254.976,12.63,3.157.242-.97A30.107,30.107,0,0,0,62,32,29.716,29.716,0,0,0,56.412,14.567ZM59.394,37.8l-8.742-2.186a18.97,18.97,0,0,0-2.636-13.83l7.338-5.233A27.719,27.719,0,0,1,60,32,28.136,28.136,0,0,1,59.394,37.8Z" style="fill:url(#gradient_ice-6)"/><rect height="2" style="fill:url(#gradient_ice-7)" width="2" x="6" y="31"/><rect height="2" style="fill:url(#gradient_ice-8)" width="2" x="8" y="24"/><rect height="2" style="fill:url(#gradient_ice-9)" width="2" x="11" y="18"/></svg>