<?xml version="1.0" ?><!DOCTYPE svg  PUBLIC '-//W3C//DTD SVG 1.1//EN'  'http://www.w3.org/Graphics/SVG/1.1/DTD/svg11.dtd'><svg enable-background="new 0 0 360 360" height="360px" id="Layer_1" version="1.1" viewBox="0 0 360 360" width="360px" xml:space="preserve" xmlns="http://www.w3.org/2000/svg" xmlns:xlink="http://www.w3.org/1999/xlink"><g><circle clip-rule="evenodd" cx="180" cy="180" fill="#1586AD" fill-rule="evenodd" r="180"/><g><g><path clip-rule="evenodd" d="M167.66,75.488c25.803,0,48.326,13.109,60.351,32.586     c21.055-0.434,45.396,12.977,45.396,36.36c0,0.759-0.028,1.511-0.084,2.257c18.082,8.963,30.396,26.727,30.396,47.176     c0,29.478-25.59,53.374-57.157,53.374H119.557c-34.151,0-61.837-25.853-61.837-57.743c0-24.906,16.886-46.129,40.55-54.231     C101.119,101.81,131.098,75.488,167.66,75.488z" fill="#A5DFF9" fill-rule="evenodd"/><path clip-rule="evenodd" d="M269.428,129.104c2.516,4.475,3.979,9.604,3.979,15.331     c0,0.759-0.028,1.511-0.084,2.257c18.082,8.963,30.396,26.727,30.396,47.176c0,29.478-25.59,53.374-57.157,53.374H119.557     c-34.151,0-61.837-25.853-61.837-57.743c0-0.607,0.013-1.211,0.033-1.812c20.92,7.689,44.874,12.058,70.33,12.058     C194.492,199.743,250.684,170.029,269.428,129.104z" fill="#77C9F4" fill-rule="evenodd"/></g><path clip-rule="evenodd" d="M210.229,289.076c-4.359-6.28-7.168-14.159-7.458-22.562    c6.047,6.447,12.549,11.211,21.539,11.439c1.387-1.805,2.733-3.832,4.035-6.102c2.327-5.611,7.273-9.545,14.119-9.545    c6.849,0,13.488,5.274,14.979,12.316l8.929,3.068l-8.822,3.043c-5.804,32.918-46.513,34.258-68.203,10.424    C196.783,291.873,203.782,291.658,210.229,289.076L210.229,289.076z" fill="#77C9F4" fill-rule="evenodd"/><path d="M266.373,277.691l-8.929-3.068c-1.491-7.043-8.131-12.316-14.979-12.316    c-6.846,0-11.792,3.934-14.119,9.545c-1.302,2.27-2.648,4.297-4.035,6.102c-8.99-0.229-15.492-4.992-21.539-11.439    c0.235,6.805,2.142,13.25,5.166,18.797c7.671,5.016,17.836,8.074,28.99,8.074c6.166,0,12.024-0.939,17.332-2.622    c1.492-2.944,2.629-6.271,3.291-10.028L266.373,277.691z" fill="#A5DFF9"/><path clip-rule="evenodd" d="M177.494,275.217c0.022,0.52-0.148,0.979-0.51,1.357    c-0.36,0.379-0.811,0.57-1.332,0.57h-41.445c-0.523,0-0.973-0.191-1.334-0.57c-0.361-0.378-0.532-0.838-0.51-1.357    c0.624-13.736,2.392-17.081,15.785-20.457c1.488-0.387,1.805-3.264,0.859-4.284c-1.63-1.757-2.969-4.116-3.949-6.606    c-0.354,0.027-0.86-0.093-1.097-0.355c-1.372-1.538-2.655-1.923-1.928-4.532c0.192-0.698,0.832-0.731,1.476-0.569l-0.004-0.02    c-0.515-2.227-0.975-4.99-0.492-7.23c0.674-3.117,2.411-3.895,4.211-5.453c1.654-1.496,3.713-2.521,5.983-2.867    c1.038-0.184,2.396-0.184,3.433-0.002c3.025,0.46,4.41,1.622,6.65,3.41c1.554,1.242,2.965,2.176,3.557,4.912    c0.484,2.247,0.021,5.02-0.496,7.25c0.642-0.162,1.28-0.127,1.473,0.569c0.729,2.609-0.557,2.994-1.93,4.532    c-0.234,0.263-0.741,0.383-1.095,0.355c-0.981,2.49-2.318,4.85-3.948,6.606c-0.946,1.019-0.63,3.899,0.859,4.284    C175.104,258.136,176.869,261.48,177.494,275.217L177.494,275.217z" fill="#376A8D" fill-rule="evenodd"/><path clip-rule="evenodd" d="M145.88,279.162c0.029,0.65-0.184,1.223-0.636,1.693    c-0.449,0.471-1.011,0.711-1.662,0.711h-51.7c-0.653,0-1.212-0.24-1.663-0.711s-0.664-1.043-0.635-1.693    c0.777-17.137,2.98-21.307,19.69-25.52c1.856-0.48,2.251-4.069,1.071-5.344c-2.033-2.191-3.703-5.134-4.926-8.24    c-0.443,0.035-1.074-0.116-1.369-0.445c-1.711-1.916-3.312-2.396-2.404-5.65c0.24-0.872,1.038-0.916,1.84-0.712l-0.005-0.024    c-0.642-2.778-1.216-6.226-0.613-9.022c0.841-3.888,3.009-4.854,5.253-6.802c2.063-1.864,4.631-3.143,7.464-3.576    c1.294-0.227,2.988-0.227,4.282-0.002c3.773,0.574,5.502,2.025,8.297,4.256c1.938,1.548,3.697,2.713,4.436,6.124    c0.605,2.806,0.025,6.265-0.619,9.047c0.801-0.204,1.597-0.157,1.838,0.712c0.908,3.254-0.695,3.734-2.407,5.65    c-0.294,0.329-0.925,0.48-1.366,0.445c-1.223,3.106-2.892,6.049-4.924,8.24c-1.182,1.272-0.787,4.863,1.07,5.344    C142.898,257.855,145.102,262.025,145.88,279.162L145.88,279.162z" fill="#FFE8CE" fill-rule="evenodd"/><g><path clip-rule="evenodd" d="M166.134,177.334l1.814,11.256     c0.228,1.875-2.111,3.109-3.614,1.66l-12.477-12.441c-14.156-1.621-21.92-11.956-20.998-21.887     c0.922-9.932,10.532-19.457,27.219-19.457c15.341,0,25.399,8.426,27.11,17.747C186.898,163.533,180.266,173.752,166.134,177.334     L166.134,177.334z" fill="#E64545" fill-rule="evenodd"/><path clip-rule="evenodd" d="M177.346,142.307c13.163,25.491-17.185,31.963-17.185,31.963     l6.68,16.367c0.716-0.371,1.218-1.131,1.107-2.047l-1.814-11.256c14.132-3.582,20.765-13.801,19.055-23.122     C184.371,149.762,181.634,145.528,177.346,142.307z" fill="#DA2C2C" fill-rule="evenodd"/></g><g><path clip-rule="evenodd" d="M231.516,227.493c7,0.043,6.758,5.813,15.75,5.813     c3.486,0,12.639,0,12.639,0c2.654,0,5.852-0.914,6.766-3.8c0.639-2.02-0.047-2.638,0.375-3.964     c0.357-1.125,3.787-1.933,3.438-5.132c-0.15-1.387-1.154-3.399-0.658-4.685c0.57-1.477,2.197-2.802,2.197-4.534     c0-2.973-1.572-2.907-2.199-5.37c-0.324-1.285,1.486-3.211-0.506-6.455c-1.15-1.873-2.994-2.061-6.533-2.061c0,0-7.307,0-8.412,0     c-1.109,0-1.963-0.819-1.633-2.081c0.639-2.43,1.584-6.169,1.633-9.974c0.059-4.4-1.342-8.224-4.26-8.224     c-4.926,0-2.479,7.021-7.791,14.966c-3.48,5.207-8.805,7.302-10.805,7.939" fill="#FDD7B3" fill-rule="evenodd"/><path d="M259.742,214.523c4.297,0,8.365-0.744,12-2.068c0.17-0.4,0.279-0.818,0.279-1.264     c0-2.973-1.572-2.906-2.199-5.369c-0.324-1.285,1.486-3.212-0.506-6.456c-1.15-1.873-2.994-2.06-6.533-2.06c0,0-7.307,0-8.412,0     c-1.109,0-1.963-0.819-1.633-2.081c0.639-2.43,1.584-6.169,1.633-9.974c0.059-4.4-1.342-8.224-4.26-8.224     c-4.926,0-2.436,7.021-7.748,14.966c-2.822,4.223-6.83,6.396-9.311,7.407C236.506,208.151,247.146,214.523,259.742,214.523z" fill="#FFE8CE"/><polyline clip-rule="evenodd" fill="#3677A3" fill-rule="evenodd" points="230.963,195.307 209.963,195.307 209.963,230.307      230.963,230.307    "/><circle clip-rule="evenodd" cx="225.016" cy="223.896" fill="#FFFFFF" fill-rule="evenodd" r="3"/></g></g></g></svg>