<?xml version="1.0" ?><svg viewBox="0 0 60 60" xmlns="http://www.w3.org/2000/svg"><title/><g data-name="Layer 1" id="Layer_1"><path d="M2.57012,45.854,2.89746,47H5a1,1,0,0,1,0,2H3.469l.49292,1.72559A.99026.99026,0,0,1,4,50.99758v2.63372a.67.67,0,0,0,.53872.657l1.98725.39707a.65342.65342,0,0,0,.75089-.402,6.26741,6.26741,0,0,1,4.34448-3.64669,4.81319,4.81319,0,0,0-.37945,3.86676A4.99329,4.99329,0,0,0,21,53a4.93617,4.93617,0,0,0-.62244-2.36548,6.23555,6.23555,0,0,1,4.36583,3.71025A.97735.97735,0,0,0,25.67666,55H27V45H3.21435A.67.67,0,0,0,2.57012,45.854Zm16.37367,6.55813a3.00191,3.00191,0,1,1-2.35595-2.35595A3.006,3.006,0,0,1,18.94379,52.41216Z"/><path d="M18.53516,43H27V37.5144a57.10217,57.10217,0,0,0-10.46786.82108.66949.66949,0,0,0-.41976,1.03046Z"/><path d="M14.637,40.75818A6.85425,6.85425,0,0,1,13.60425,43h2.52734Z"/><path d="M38.647,38.88375A37.46872,37.46872,0,0,0,29,37.53662V43H41.382l-2.18847-3.67507A.97969.97969,0,0,0,38.647,38.88375Z"/><path d="M29,45V55H40.56258a.687.687,0,0,0,.64921-.51242,5.38652,5.38652,0,0,1,2.78588-3.17A10.48922,10.48922,0,0,0,42.44031,45Zm4,4H32a1,1,0,0,1,0-2h1a1,1,0,0,1,0,2Z"/><path d="M57,49a1,1,0,0,1,0-2h.12891c-3.30933-1.77106-7.83582-1.97406-12.394-1.99652a11.456,11.456,0,0,1,1.23486,5.06409,4.94231,4.94231,0,0,0-.84813,4.03265A4.99935,4.99935,0,0,0,54.9,53.98865c2.0943-.0603,2.1-.41624,2.1-1.98855a1.003,1.003,0,0,1,.293-.70711l.707-.707V49Zm-6.41216,6.94379a3.00191,3.00191,0,1,1,2.35595-2.35595A3.006,3.006,0,0,1,50.58784,55.94379Z"/></g></svg>