<?xml version="1.0" ?><svg viewBox="0 0 60 60" xmlns="http://www.w3.org/2000/svg"><title/><g data-name="Layer 1" id="Layer_1"><path d="M14.93811,15.52747a19.81247,19.81247,0,0,1,2.33661,1.45111l4.195-4.66119a6.98645,6.98645,0,0,1,2.66095-1.8288A44.342,44.342,0,0,0,19.1955,6.08643,9.74322,9.74322,0,0,0,14.93811,15.52747Z"/><path d="M12.83478,14.73029a11.72929,11.72929,0,0,1,4.6394-9.843c-3.15167-2.0434-6.03687-2.96735-8.49457-2.67212C8.167,7.14581,8.74335,11.78632,10.49542,14.853A3.7189,3.7189,0,0,1,12.83478,14.73029Z"/><path d="M47.16522,14.73077a3.71779,3.71779,0,0,1,2.33948.12195c1.75244-3.06763,2.32874-7.70959,1.51514-12.6416-2.4566-.29346-5.34235.63141-8.49463,2.67566A11.72889,11.72889,0,0,1,47.16522,14.73077Z"/><path d="M50.83783,22.77386a24.41952,24.41952,0,0,1-3.3974,6.99323A23.67645,23.67645,0,0,0,55.293,24.293l.5528-.5528a30.85172,30.85172,0,0,0,1.67535-5.78253A12.03587,12.03587,0,0,1,50.83783,22.77386Z"/><path d="M12.68359,31.94824a21.30613,21.30613,0,0,1-6.18567-3.41809,37.7187,37.7187,0,0,0,5.37871,7.061.50047.50047,0,0,0,.85879-.348c-.00636-1.00521.01783-2.08731.07494-3.2527Z"/><path d="M8.63257,20.44794A7.14879,7.14879,0,0,1,9.008,16.27618C6.92822,12.96674,6.17419,8.132,6.8844,2.8244,4.75879,3.85272,3.2157,6.05847,2.49219,9.18457A18.60535,18.60535,0,0,0,2.05951,13.075C4.25629,17.98114,6.40961,19.54236,8.63257,20.44794Z"/><path d="M42.72534,16.97864a19.85524,19.85524,0,0,1,2.33643-1.45038A9.74338,9.74338,0,0,0,40.804,6.086a44.3372,44.3372,0,0,0-4.93481,4.40253,6.98656,6.98656,0,0,1,2.66113,1.82886Z"/><path d="M41.49023,18.5957l-4.44629-4.94043A5.006,5.006,0,0,0,33.32813,12H26.67188a5.006,5.006,0,0,0-3.71582,1.65527L18.50977,18.5957a12.32415,12.32415,0,0,0-3.10254,6.76563c-2.10254,17.11133.93848,20.02637,4.459,23.40137a19.02642,19.02642,0,0,1,5.23828,7.335A2.92968,2.92968,0,0,0,27.81934,58h4.36133a2.92968,2.92968,0,0,0,2.71484-1.90234,19.02642,19.02642,0,0,1,5.23828-7.335c3.52051-3.375,6.56152-6.29,4.459-23.40137A12.32415,12.32415,0,0,0,41.49023,18.5957ZM31.03809,21.72559l2-7a1.00029,1.00029,0,1,1,1.92383.54883l-2,7A1.00108,1.00108,0,0,1,32.001,23a1.029,1.029,0,0,1-.27539-.03809A1.00122,1.00122,0,0,1,31.03809,21.72559ZM31,37a1,1,0,0,1,2,0v2a1,1,0,0,1-2,0ZM25.72559,14.03809a1.00757,1.00757,0,0,1,1.23633.6875l2,7a1.00122,1.00122,0,0,1-.6875,1.23633A1.029,1.029,0,0,1,27.999,23a1.00108,1.00108,0,0,1-.96094-.72559l-2-7A1.00122,1.00122,0,0,1,25.72559,14.03809ZM29,37v2a1,1,0,0,1-2,0V37a1,1,0,0,1,2,0ZM17.293,30.293a.99964.99964,0,0,1,1.41406,0,4.657,4.657,0,0,0,3.78613,1.498A4.91687,4.91687,0,0,0,25.626,30.1416,10.56278,10.56278,0,0,0,23,28.81006V29a1,1,0,0,1-2,0v-.75336A10.3191,10.3191,0,0,0,19,28a1,1,0,0,1,0-2c2.18359,0,6.46094,1.04688,8.707,3.293a.99978.99978,0,0,1,.125,1.26172,7.08158,7.08158,0,0,1-5.14258,3.22656c-.2041.01953-.40723.03027-.61035.03027A6.758,6.758,0,0,1,17.293,31.707.99964.99964,0,0,1,17.293,30.293Zm24.60156,11.1543a17.52718,17.52718,0,0,1-4.16211,4.89355c-1.69238,1.55176-3.291,3.01758-3.7627,4.90137A.99961.99961,0,0,1,33,52H27a.99961.99961,0,0,1-.96973-.75781c-.47168-1.88379-2.07031-3.34961-3.7627-4.90137a17.52718,17.52718,0,0,1-4.16211-4.89355,1.00012,1.00012,0,1,1,1.78906-.89453,16.01961,16.01961,0,0,0,3.72461,4.31348c.0484.04437.0968.08936.14526.13379H36.2356c.04846-.04443.09686-.08942.14526-.13379a16.01961,16.01961,0,0,0,3.72461-4.31348,1.00012,1.00012,0,1,1,1.78906.89453ZM42.707,31.707a6.758,6.758,0,0,1-4.78613,2.10449c-.20312,0-.40625-.01074-.61035-.03027A7.08158,7.08158,0,0,1,32.168,30.55469a.99978.99978,0,0,1,.125-1.26172C34.53906,27.04688,38.81641,26,41,26a1,1,0,0,1,0,2,10.3191,10.3191,0,0,0-2,.24664V29a1,1,0,0,1-2,0v-.18994a10.56278,10.56278,0,0,0-2.626,1.33154A4.91687,4.91687,0,0,0,37.50684,31.791,4.64477,4.64477,0,0,0,41.293,30.293.99989.99989,0,0,1,42.707,31.707Z"/><path d="M47.18964,31.99048c.057,1.16336.08124,2.24377.075,3.24753a.50053.50053,0,0,0,.85841.34847,37.57936,37.57936,0,0,0,5.39575-7.06956,21.324,21.324,0,0,1-6.20239,3.43134Z"/><path d="M27.7334,50h4.5332a9.50314,9.50314,0,0,1,1.93427-3H25.79913A9.50314,9.50314,0,0,1,27.7334,50Z"/><path d="M50.992,16.27618a7.15033,7.15033,0,0,1,.37531,4.17267c2.24365-.91119,4.3941-2.46478,6.58191-7.343a18.6403,18.6403,0,0,0-.43457-3.92517c-.72565-3.12817-2.27124-5.335-4.3999-6.36243C53.82629,8.12836,53.07257,12.96545,50.992,16.27618Z"/><path d="M9.16187,22.773a12.03821,12.03821,0,0,1-6.6792-4.84155,30.89291,30.89291,0,0,0,1.68726,5.8244L4.707,24.293a23.67645,23.67645,0,0,0,7.85254,5.47412A24.41731,24.41731,0,0,1,9.16187,22.773Z"/></g></svg>