<?xml version="1.0" ?><svg height="256px" version="1.1" viewBox="0 0 256 256" width="256px" xmlns="http://www.w3.org/2000/svg" xmlns:xlink="http://www.w3.org/1999/xlink"><title/><desc/><defs><linearGradient id="linearGradient-1" x1="-1.11022302e-14%" x2="100%" y1="50%" y2="50%"><stop offset="0%" stop-color="#CE913B"/><stop offset="100%" stop-color="#F2C45E"/></linearGradient></defs><g fill="none" fill-rule="evenodd" id="Classic" stroke="none" stroke-width="1"><g id="Zcash" transform="translate(-3388.000000, -1122.000000)"><g transform="translate(3388.000000, 1122.000000)"><circle cx="128" cy="128" fill="#000000" id="Oval-6" r="128"/><circle cx="128" cy="128" fill="url(#linearGradient-1)" id="Oval-6" r="100"/><path d="M175.779387,159.857591 L175.779387,187.727772 L141.629417,187.727772 C142.185177,195.702613 142.490779,203.093921 143.046538,211.040886 L114.314996,211.040886 L114.314996,188.005601 L80.1650267,188.005601 C80.1650267,178.891468 79.0257345,169.80521 80.7207865,161.274712 C81.5820452,156.717645 86.6948714,152.744111 89.834817,148.770577 C100.643899,135.960842 111.452982,123.456912 122.539893,110.647074 C126.819028,105.812179 131.070494,101.255112 135.905286,95.8644573 L82.7213374,95.8644573 L82.7213374,67.9942764 L114.287224,67.9942764 L114.287224,44.6811619 L141.879473,44.6811619 L141.879473,67.4385166 L176.307477,67.4385166 C176.307477,76.8305806 177.446666,85.9168384 175.751717,94.4752115 C174.890356,99.032278 169.77753,103.00571 166.359653,106.979244 C155.550673,119.788979 144.74159,132.293011 133.654577,145.102747 C129.431089,150.187801 125.179624,154.716992 120.316956,159.857591 L175.779387,159.857591 Z" fill="#000000" id="Fill-4"/></g></g></g></svg>