<?xml version="1.0" ?><!DOCTYPE svg  PUBLIC '-//W3C//DTD SVG 1.1//EN'  'http://www.w3.org/Graphics/SVG/1.1/DTD/svg11.dtd'><svg enable-background="new 0 0 64 64" id="Layer_1" version="1.1" viewBox="0 0 64 64" xml:space="preserve" xmlns="http://www.w3.org/2000/svg" xmlns:xlink="http://www.w3.org/1999/xlink"><g><polygon fill="#BEEDDF" points="46.2,9.8 17.8,9.8 14.7,40.5 49.3,40.5  "/><path d="M45.9,42.5h4.5c0.3,0,0.6-0.1,0.7-0.3c0.2-0.2,0.3-0.5,0.3-0.8L48.1,8.7c-0.1-0.5-0.5-0.9-1-0.9H33V4.4   c0-0.6-0.4-1-1-1c-0.6,0-1,0.4-1,1v3.4H16.9c-0.5,0-0.9,0.4-1,0.9l-3.3,32.8c0,0.3,0.1,0.6,0.3,0.8c0.2,0.2,0.5,0.3,0.7,0.3h4.5   l-5.4,16.8c-0.2,0.5,0.1,1.1,0.6,1.3c0.1,0,0.2,0,0.3,0c0.4,0,0.8-0.3,1-0.7l5.6-17.4H31v13.5c0,0.6,0.4,1,1,1c0.6,0,1-0.4,1-1   V42.5h10.8l5.6,17.4c0.1,0.4,0.5,0.7,1,0.7c0.1,0,0.2,0,0.3,0c0.5-0.2,0.8-0.7,0.6-1.3L45.9,42.5z M14.7,40.5l3.1-30.8h28.4   l3.1,30.8H14.7z" fill="#101A1E"/></g></svg>