<?xml version="1.0" ?><!DOCTYPE svg  PUBLIC '-//W3C//DTD SVG 1.1//EN'  'http://www.w3.org/Graphics/SVG/1.1/DTD/svg11.dtd'><svg enable-background="new 0 0 64 64" id="Layer_1" version="1.1" viewBox="0 0 64 64" xml:space="preserve" xmlns="http://www.w3.org/2000/svg" xmlns:xlink="http://www.w3.org/1999/xlink"><g><path d="M30.6,35.9v19.6c0,0,0,0.1,0.1,0.1H37c0,0,0.1,0,0.1-0.1V35.9c0,0,0-0.1-0.1-0.1L30.6,35.9   C30.6,35.9,30.6,35.9,30.6,35.9z" fill="#49897A"/><path d="M53,8.4H15.4c0,0-0.1,0-0.1,0.1v11.9c0,0,0,0.1,0.1,0.1H53c0,0,0.1,0,0.1-0.1V18h-7.8c-0.6,0-1-0.4-1-1   c0-0.6,0.4-1,1-1h7.8v-1.1h-5.9c-0.6,0-1-0.4-1-1c0-0.6,0.4-1,1-1h5.9v-1.1H43c-0.6,0-1-0.4-1-1c0-0.6,0.4-1,1-1h10.1L53,8.4   C53.1,8.4,53,8.4,53,8.4z" fill="#BEEDDF"/><path d="M53,6.4H15.4c-1.2,0-2.1,0.9-2.1,2.1v4.9H9.9c-0.6,0-1,0.4-1,1v16.7c0,0.6,0.4,1,1,1h22.9v1.8h-2.2   c-1.2,0-2.1,0.9-2.1,2.1v19.6c0,1.2,0.9,2.1,2.1,2.1H37c1.2,0,2.1-0.9,2.1-2.1V35.9c0-1.2-0.9-2.1-2.1-2.1h-2.2v-2.8   c0-0.6-0.4-1-1-1H10.9V15.4h2.4v4.9c0,1.2,0.9,2.1,2.1,2.1H53c1.2,0,2.1-0.9,2.1-2.1V8.5C55.1,7.3,54.1,6.4,53,6.4z M37,35.9   C37.1,35.9,37.1,35.9,37,35.9l0.1,19.7c0,0,0,0.1-0.1,0.1h-6.3c0,0-0.1,0-0.1-0.1V35.9c0,0,0-0.1,0.1-0.1H37z M53.1,9.8H43   c-0.6,0-1,0.4-1,1c0,0.6,0.4,1,1,1h10.1v1.1h-5.9c-0.6,0-1,0.4-1,1c0,0.6,0.4,1,1,1h5.9V16h-7.8c-0.6,0-1,0.4-1,1c0,0.6,0.4,1,1,1   h7.8v2.4c0,0,0,0.1-0.1,0.1H15.4c0,0-0.1,0-0.1-0.1V8.5c0,0,0-0.1,0.1-0.1H53c0,0,0.1,0,0.1,0.1V9.8z" fill="#101A1E"/></g></svg>