<?xml version="1.0" ?><!DOCTYPE svg  PUBLIC '-//W3C//DTD SVG 1.1//EN'  'http://www.w3.org/Graphics/SVG/1.1/DTD/svg11.dtd'><svg enable-background="new 0 0 64 64" id="Layer_1" version="1.1" viewBox="0 0 64 64" xml:space="preserve" xmlns="http://www.w3.org/2000/svg" xmlns:xlink="http://www.w3.org/1999/xlink"><g><polygon fill="#49897A" points="21,15.7 19,13.8 19,50.5 21,50.5  "/><polygon fill="#7EBCAF" points="25,11.4 22.1,8 19.3,11.4 22.1,14  "/><rect fill="#A3D3C7" height="4.1" width="6.4" x="19" y="52.5"/><rect fill="#A3D3C7" height="49.3" width="4.4" x="40.6" y="7.4"/><polygon fill="#49897A" points="23,50.5 25.4,50.5 25.4,13.7 23,15.8  "/><path d="M34.2,12.5h2.7c0.6,0,1,0.4,1,1c0,0.6-0.4,1-1,1h-2.7v4.7h2.7c0.6,0,1,0.4,1,1c0,0.6-0.4,1-1,1h-2.7V26h2.7   c0.6,0,1,0.4,1,1c0,0.6-0.4,1-1,1h-2.7v4.8h2.7c0.6,0,1,0.4,1,1c0,0.6-0.4,1-1,1h-2.7v4.8h2.7c0.6,0,1,0.4,1,1c0,0.6-0.4,1-1,1   h-2.7v4.8h2.7c0.6,0,1,0.4,1,1c0,0.6-0.4,1-1,1h-2.7v8.3h4.4V7.4h-4.4V12.5z" fill="#A3D3C7"/><path d="M22.8,5.7c-0.2-0.2-0.5-0.4-0.8-0.4c-0.3,0-0.6,0.1-0.8,0.4l-4.1,5.2C17,11.1,17,11.3,17,11.5v46.1   c0,0.6,0.4,1,1,1h8.4c0.6,0,1-0.4,1-1V11.5c0-0.2-0.1-0.5-0.2-0.6L22.8,5.7z M22.1,8l2.9,3.5L22.1,14l-2.7-2.5L22.1,8z M19,13.8   l2.1,1.9v34.8H19V13.8z M25.4,56.6H19v-4.1h6.4V56.6z M25.4,50.5H23V15.8l2.3-2V50.5z" fill="#101A1E"/><path d="M45,5.4H34.2c-1.1,0-2,0.9-2,2v49.3c0,1.1,0.9,2,2,2H45c1.1,0,2-0.9,2-2V7.4C47,6.3,46.1,5.4,45,5.4z    M38.6,56.6h-4.4v-8.3h2.7c0.6,0,1-0.4,1-1c0-0.6-0.4-1-1-1h-2.7v-4.8h2.7c0.6,0,1-0.4,1-1c0-0.6-0.4-1-1-1h-2.7v-4.8h2.7   c0.6,0,1-0.4,1-1c0-0.6-0.4-1-1-1h-2.7V28h2.7c0.6,0,1-0.4,1-1c0-0.6-0.4-1-1-1h-2.7v-4.8h2.7c0.6,0,1-0.4,1-1c0-0.6-0.4-1-1-1   h-2.7v-4.7h2.7c0.6,0,1-0.4,1-1c0-0.6-0.4-1-1-1h-2.7V7.4h4.4V56.6z M40.6,56.6V7.4H45l0,49.3H40.6z" fill="#101A1E"/></g></svg>