<?xml version="1.0" ?><!DOCTYPE svg  PUBLIC '-//W3C//DTD SVG 1.1//EN'  'http://www.w3.org/Graphics/SVG/1.1/DTD/svg11.dtd'><svg enable-background="new 0 0 64 64" id="Layer_1" version="1.1" viewBox="0 0 64 64" xml:space="preserve" xmlns="http://www.w3.org/2000/svg" xmlns:xlink="http://www.w3.org/1999/xlink"><g><rect fill="#49897A" height="29.9" width="17.4" x="16.7" y="26.9"/><path d="M26.6,13.4c0-0.6-0.5-1.1-1.1-1.1c-0.6,0-1.1,0.5-1.1,1.1v2.2h2.2V13.4z" fill="#A3D3C7"/><polygon fill="#A3D3C7" points="23.3,17.6 19.8,17.6 17.2,24.9 33.7,24.9 31.1,17.6 27.6,17.6  "/><polygon fill="#49897A" points="47.3,19.2 47.3,7.8 34.1,13.5  "/><path d="M48.8,5.4c-0.3-0.2-0.6-0.2-0.9-0.1l-16.5,7.2l-3,0c-0.4-1.2-1.6-2.1-2.9-2.1c-1.7,0-3.1,1.4-3.1,3.1v2.2   h-3.2c-0.4,0-0.8,0.3-0.9,0.7l-3.4,9.3c0,0.1,0,0.2-0.1,0.3c0,0,0,0,0,0v31.9c0,0.6,0.4,1,1,1h19.4c0.6,0,1-0.4,1-1V25.9   c0,0,0,0,0,0c0-0.1,0-0.2-0.1-0.3l-3.4-9.3c-0.1-0.4-0.5-0.7-0.9-0.7h-3.2v-1.1l2.8,0l16.5,7.2c0.1,0.1,0.3,0.1,0.4,0.1   c0.2,0,0.4-0.1,0.5-0.2c0.3-0.2,0.5-0.5,0.5-0.8V6.2C49.3,5.9,49.1,5.6,48.8,5.4z M24.3,13.4c0-0.6,0.5-1.1,1.1-1.1   c0.6,0,1.1,0.5,1.1,1.1v2.2h-2.2V13.4z M34.2,56.8H16.7V26.9h17.4V56.8z M31.1,17.6l2.7,7.3H17.2l2.7-7.3h3.5h4.2H31.1z M47.3,19.2   l-13.2-5.7l13.2-5.7V19.2z" fill="#101A1E"/></g></svg>