<?xml version="1.0" ?><!DOCTYPE svg  PUBLIC '-//W3C//DTD SVG 1.1//EN'  'http://www.w3.org/Graphics/SVG/1.1/DTD/svg11.dtd'><svg enable-background="new 0 0 64 64" id="Layer_1" version="1.1" viewBox="0 0 64 64" xml:space="preserve" xmlns="http://www.w3.org/2000/svg" xmlns:xlink="http://www.w3.org/1999/xlink"><g><path d="M31.2,41L23,32.8c0,0,0,0,0,0l-1.5-1.5c0,0-0.1,0-0.2,0.1L20,32.6c-0.1,0.1-0.1,0.2-0.1,0.2l1.2,1.2   c0,0,0,0,0,0l8.9,8.9h0l1.2,1.2l0,0c0,0,0.1,0,0.2-0.1l1.3-1.3c0.1-0.1,0.1-0.2,0.1-0.2L31.2,41C31.2,41,31.2,41,31.2,41z" fill="#BEEDDF"/><path d="M15.8,37.7c-3.8,3.9-4.4,12.2-4.5,15c3.6-0.1,16.5-1.1,17-8.7L20,35.7C18.4,35.8,17,36.5,15.8,37.7z    M21,39.3c0.1,0.5-0.3,1.1-0.8,1.2c-4.6,0.9-4.8,9-4.8,9.1c0,0.5-0.5,1-1,1c0,0,0,0,0,0c-0.6,0-1-0.5-1-1c0-0.4,0.2-9.8,6.4-11   C20.4,38.4,20.9,38.8,21,39.3z" fill="#49897A"/><path d="M46.8,12.3c-0.9-0.9-1.7-1.1-2.2-1.1c-0.7,0-1.4,0.4-2.1,1.1l-18,18.8c-0.1,0.1-0.1,0.2-0.1,0.2l8.2,8.2   l0,0c0,0,0.1,0,0.2-0.1l18.9-18.1c1.4-1.4,1.4-2.9,0-4.3L46.8,12.3z" fill="#A3D3C7"/><path d="M48.2,10.9c-1.4-1.4-2.7-1.7-3.6-1.7c-1.3,0-2.4,0.6-3.6,1.7l-18,18.8c0,0-0.1,0.1-0.1,0.1l-0.1-0.1   c-0.8-0.8-2.2-0.7-3,0.1l-1.3,1.3c-0.8,0.8-0.9,2-0.3,2.8c-1.5,0.4-2.8,1.2-4,2.3c-5.2,5.3-5.1,17-5.1,17.5c0,0.5,0.4,1,1,1l0.1,0   h0c1.9,0,17.4-0.3,19.7-9c0.3,0.3,0.8,0.4,1.2,0.4h0c0.6,0,1.1-0.2,1.6-0.7l1.3-1.3c0.4-0.4,0.6-0.9,0.7-1.5c0-0.6-0.2-1.1-0.6-1.5   l-0.1-0.1c0,0,0.1-0.1,0.1-0.1l18.9-18.1c2.6-2.6,1.7-5.4,0-7.1L48.2,10.9z M11.3,52.7c0.1-2.9,0.7-11.2,4.5-15   c1.2-1.2,2.6-1.9,4.2-2l8.3,8.3C27.8,51.6,14.9,52.6,11.3,52.7z M32.7,42.7L31.4,44c-0.1,0.1-0.1,0.1-0.2,0.1l0,0L30,42.9h0   L21.1,34c0,0,0,0,0,0l-1.2-1.2c0,0,0-0.1,0.1-0.2l1.3-1.3c0.1-0.1,0.1-0.1,0.2-0.1l1.5,1.5c0,0,0,0,0,0l8.3,8.3c0,0,0,0,0,0   l1.5,1.5C32.8,42.6,32.8,42.7,32.7,42.7z M51.7,21.5L32.8,39.5c-0.1,0.1-0.1,0.1-0.2,0.1l0,0l-8.2-8.2c0,0,0-0.1,0.1-0.2l18-18.8   c0.7-0.7,1.4-1.1,2.1-1.1c0.5,0,1.3,0.2,2.2,1.1l4.8,4.8C53.1,18.6,53.1,20.1,51.7,21.5z" fill="#101A1E"/><path d="M13.5,49.5c0,0.6,0.4,1,1,1c0,0,0,0,0,0c0.5,0,1-0.4,1-1c0-0.1,0.1-8.2,4.8-9.1c0.5-0.1,0.9-0.6,0.8-1.2   c-0.1-0.5-0.6-0.9-1.2-0.8C13.6,39.7,13.5,49.1,13.5,49.5z" fill="#101A1E"/></g></svg>