<?xml version="1.0" ?><svg height="45px" version="1.1" viewBox="0 0 56 45" width="56px" xmlns="http://www.w3.org/2000/svg" xmlns:xlink="http://www.w3.org/1999/xlink"><title/><desc/><defs/><g fill="none" fill-rule="evenodd" id="Page-1" stroke="none" stroke-width="1"><g fill="#000000" fill-rule="nonzero" id="025---Mince-Pie"><path d="M39.62787,5.06165 C41.0434573,5.58656816 42.5971285,5.6051578 44.02487,5.11426 C46.1749127,4.54155955 47.7768605,2.74276222 48.09766,0.541 C49.4853599,2.14513384 51.5719156,2.96614102 53.68066,2.73777 C52.3428888,4.38224822 51.8936096,6.57688739 52.47754,8.61477 C50.4589191,7.67868395 48.0758069,8.04430799 46.43066,9.5425 C45.241843,10.476073 44.4121124,11.791737 44.08191,13.2668 C43.1524492,12.5080006 42.0105017,12.0561906 40.81348,11.97365 C40.4828992,10.7214065 39.7217912,9.6256222 38.66376,8.87865 C39.4529635,7.77248885 39.7971298,6.40990285 39.62787,5.06165 Z M35.5,9.87012 C37.4320281,9.87245627 38.9976637,11.4380919 39,13.37012 C38.9987991,14.0870808 38.773344,14.7857056 38.35522,15.36812 C36.6934142,15.0322959 35.0155235,14.7816654 33.32812,14.61721 C34.0194222,13.2950253 34.1844181,11.7601131 33.78992,10.32121 C34.3120975,10.0273418 34.9008138,9.87204848 35.5,9.87012 Z M28,7.87012 C30.209139,7.87012 32,9.660981 32,11.87012 C32,14.079259 30.209139,15.87012 28,15.87012 C25.790861,15.87012 24,14.079259 24,11.87012 C24.0025239,9.66202729 25.7919073,7.87264393 28,7.87012 Z M11.918,13.266 C11.5873934,11.7912297 10.7575701,10.4759052 9.56888,9.54249 C7.92417826,8.04377541 5.54086569,7.678091 3.52249,8.61476 C4.10568362,6.57684902 3.65647477,4.38255385 2.31937,2.73776 C4.42787863,2.96445827 6.51367371,2.14374972 7.90234,0.541 C8.22286149,2.74277441 9.82495394,4.54154681 11.9751,5.11375 C13.4024587,5.60552995 14.9563,5.58637204 16.3711,5.05955 C16.2079716,6.40778049 16.5538727,7.76835925 17.3411,8.87498 C16.2807266,9.62190011 15.5178227,10.7189362 15.18668,11.97298 C13.9894819,12.0549729 12.8473067,12.506793 11.918,13.266 Z M17,13.37012 C16.9975481,12.1270034 17.6559306,10.976246 18.7288324,10.3483712 C19.8017342,9.72049649 21.1274803,9.71011854 22.21008,10.32112 C21.8155819,11.7600231 21.9805778,13.2949353 22.67188,14.61712 C20.984477,14.7815798 19.3065866,15.0322103 17.64478,15.36803 C17.2266654,14.7856449 17.0012103,14.0870515 17,13.37012 Z M24.18787,16.50012 C26.4010568,18.3267874 29.5989432,18.3267874 31.81213,16.50012 C40.85272,17.13989 48.63458,20.07025 52.50232,24.25586 L50.19141,26.74121 C50.0576806,26.8920569 49.86661,26.9796153 49.66504,26.98242 C49.4345868,26.9742168 49.2184343,26.8686248 49.07031,26.69189 C47.8295579,25.3391436 46.0772871,24.5702995 44.2417,24.57324 L44.2397,24.57324 C42.3823416,24.5792 40.6131176,25.3660057 39.3647,26.74124 C39.2173725,26.8989565 39.0084047,26.9843021 38.7927895,26.9748166 C38.5771743,26.9653312 38.3765084,26.8619648 38.2436,26.69192 C37.0026166,25.338636 35.2496586,24.5697244 33.41352,24.57327 C31.5561931,24.5788702 29.7868943,25.3655204 28.53852,26.74075 C28.3910193,26.8984387 28.181972,26.9837922 27.9662544,26.9744047 C27.7505368,26.9650171 27.5496945,26.8618261 27.41645,26.69192 C26.1756023,25.3387333 24.4228353,24.5698275 22.58686,24.57327 C20.729414,24.5789608 18.9600018,25.365584 17.71138,26.74075 C17.5779509,26.8918488 17.3870542,26.9797648 17.1855,26.98294 L17.18501,26.98294 C16.9543853,26.9744526 16.7381333,26.8687281 16.58979,26.69194 C15.3489423,25.3387533 13.5961753,24.5698475 11.7602,24.57329 C9.90308273,24.5787413 8.13393677,25.3652284 6.88569,26.74029 C6.74494735,26.8871985 6.55032181,26.9702695 6.346875,26.9702695 C6.14342819,26.9702695 5.94880265,26.8871985 5.80806,26.74029 L3.49792,24.25568 C7.36609,20.07013 15.1474,17.13989 24.18787,16.50012 Z M44.60787,44.27051 C44.4486639,44.634744 44.0888785,44.8701297 43.69137,44.87012 L13.23584,44.87012 C12.8568655,44.8712606 12.5101828,44.6569145 12.34184,44.31738 L6.61127,32.85632 C8.37327257,32.7818673 10.0326029,32.0069218 11.2207,30.70361 C11.3553391,30.5524746 11.5471261,30.4646416 11.74951,30.46143 C11.9797017,30.469656 12.1956291,30.5750325 12.34375,30.75143 C13.5845944,32.1046225 15.3373626,32.8735324 17.17334,32.87009 C19.0304586,32.8646449 20.7996069,32.0781567 22.04785,30.70309 C22.1955301,30.5456933 22.4044672,30.460464 22.6201026,30.4696576 C22.8357379,30.4788511 23.0366626,30.5815547 23.17041,30.75095 C24.4108928,32.1047101 26.1638492,32.8738877 28,32.87012 C29.8572192,32.8644843 31.6264455,32.0780406 32.875,30.70312 C33.0225401,30.545577 33.2314956,30.4602803 33.4471378,30.4695704 C33.66278,30.4788605 33.8636257,30.5818119 33.99707,30.75146 C35.2380494,32.1047507 36.9910091,32.8736667 38.82715,32.87012 C40.6839663,32.864427 42.4528015,32.0781736 43.70115,30.70361 C43.8354049,30.5525146 44.0268816,30.4646609 44.22898,30.46143 L44.22947,30.46143 C44.4596361,30.4697582 44.6755242,30.5751155 44.82371,30.75143 C46.0508482,32.0877981 47.778178,32.8540658 49.59245,32.86691 L44.60787,44.27051 Z M55.74801,26.45361 L53.01851,29.38916 C52.1540043,30.3327185 50.9331036,30.8700253 49.6533878,30.8701185 C48.373672,30.8702117 47.1526931,30.3330826 46.28805,29.38965 C45.7630082,28.8052364 45.016515,28.4684031 44.23092,28.46143 L44.22945,28.46143 C43.4721105,28.46645 42.7506921,28.7849983 42.23678,29.34131 C41.37799,30.3054684 40.1510914,30.8608881 38.8599529,30.8700072 C37.5688145,30.8791263 36.334193,30.3410918 35.46187,29.38916 C34.9360762,28.8043694 34.1886814,28.4675288 33.4023,28.46094 C32.6450002,28.4659568 31.9236728,28.7847207 31.41012,29.34131 C30.55133,30.3054684 29.3244314,30.8608881 28.0332929,30.8700072 C26.7421545,30.8791263 25.507533,30.3410918 24.63521,29.38916 C24.1094162,28.8043694 23.3620214,28.4675288 22.57564,28.46094 C21.8181762,28.4658527 21.0966575,28.7846227 20.58297,29.34131 C19.7241818,30.3054679 18.4972848,30.8608875 17.206148,30.8700066 C15.9150111,30.8791257 14.6803912,30.3410913 13.80807,29.38916 C13.2827977,28.8048415 12.5361302,28.4681876 11.75045,28.46143 L11.74945,28.46143 C10.9921521,28.466644 10.2708074,28.7851597 9.75678,29.34131 C8.89799001,30.3054684 7.67109137,30.8608881 6.37995294,30.8700072 C5.08881451,30.8791263 3.854193,30.3410918 2.98187,29.38916 L0.25244,26.45361 C-0.101044784,26.0724927 -0.0805413272,25.4774904 0.29834,25.12161 C0.478531687,24.9523819 0.718804835,24.8620568 0.965853291,24.870674 C1.21290175,24.8792912 1.44629743,24.9861381 1.61426,25.16751 L4.34326,28.10257 C5.45146269,29.2054634 7.24265705,29.2052443 8.35059,28.10208 C9.20937818,27.1379221 10.4362752,26.5825025 11.727412,26.5733834 C13.0185489,26.5642643 14.2531688,27.1022987 15.12549,28.05423 C15.6512195,28.6391705 16.3986114,28.9761876 17.18506,28.98294 L17.18652,28.98294 C17.9432603,28.9774588 18.6638703,28.6585241 19.17676,28.10208 C20.0355482,27.1379221 21.2624452,26.5825025 22.553582,26.5733834 C23.8447189,26.5642643 25.0793388,27.1022987 25.95166,28.05423 C26.473131,28.6149311 27.2016253,28.9373961 27.9672858,28.9464383 C28.7329464,28.9554805 29.4688529,28.6503097 30.00342,28.10208 C30.8623218,27.1379974 32.0892252,26.5825991 33.3803808,26.5733871 C34.6715363,26.5641752 35.9062396,27.1020109 36.77881,28.05374 C37.3043707,28.6389734 38.0518263,28.976197 38.83838,28.98294 L38.83938,28.98294 C39.5961721,28.977526 40.3168968,28.6587949 40.8301,28.10257 C41.6970746,27.1303099 42.9375857,26.573996 44.24025,26.57327 L44.24172,26.57327 C45.5206086,26.5726435 46.740886,27.1095157 47.60451,28.05276 C48.1299151,28.6388324 48.8779805,28.9763485 49.66506,28.98245 C50.4224885,28.9780203 51.1440426,28.6591579 51.65725,28.10208 L54.38576,25.16751 C54.5535572,24.9853224 54.7876136,24.8783279 55.03518,24.87064 C55.2826408,24.8591213 55.5239131,24.9500813 55.70218,25.1221 C56.0810486,25.477794 56.1015424,26.0726864 55.74805,26.45361 L55.74801,26.45361 Z" id="Shape"/></g></g></svg>