<?xml version="1.0" ?><svg height="56px" version="1.1" viewBox="0 0 55 56" width="55px" xmlns="http://www.w3.org/2000/svg" xmlns:xlink="http://www.w3.org/1999/xlink"><title/><desc/><defs/><g fill="none" fill-rule="evenodd" id="Page-1" stroke="none" stroke-width="1"><g fill="#000000" fill-rule="nonzero" id="008---Xmas-Pudding" transform="translate(-1.000000, -1.000000)"><path d="M27.75,5.95 C27.2073112,5.95276183 26.7690936,6.39396309 26.7700142,6.93665817 C26.7709348,7.47935325 27.2106467,7.91906521 27.7533418,7.91998583 C28.2960369,7.92090644 28.7372382,7.48268883 28.74,6.94 C28.7387573,6.39375368 28.2962463,5.95124274 27.75,5.95 L27.75,5.95 Z M27.75,5.95 C27.2073112,5.95276183 26.7690936,6.39396309 26.7700142,6.93665817 C26.7709348,7.47935325 27.2106467,7.91906521 27.7533418,7.91998583 C28.2960369,7.92090644 28.7372382,7.48268883 28.74,6.94 C28.7387573,6.39375368 28.2962463,5.95124274 27.75,5.95 L27.75,5.95 Z M27.75,5.95 C27.2073112,5.95276183 26.7690936,6.39396309 26.7700142,6.93665817 C26.7709348,7.47935325 27.2106467,7.91906521 27.7533418,7.91998583 C28.2960369,7.92090644 28.7372382,7.48268883 28.74,6.94 C28.7387573,6.39375368 28.2962463,5.95124274 27.75,5.95 L27.75,5.95 Z M27.75,5.95 C27.2073112,5.95276183 26.7690936,6.39396309 26.7700142,6.93665817 C26.7709348,7.47935325 27.2106467,7.91906521 27.7533418,7.91998583 C28.2960369,7.92090644 28.7372382,7.48268883 28.74,6.94 C28.7387573,6.39375368 28.2962463,5.95124274 27.75,5.95 L27.75,5.95 Z M27.75,5.95 C27.2073112,5.95276183 26.7690936,6.39396309 26.7700142,6.93665817 C26.7709348,7.47935325 27.2106467,7.91906521 27.7533418,7.91998583 C28.2960369,7.92090644 28.7372382,7.48268883 28.74,6.94 C28.7387573,6.39375368 28.2962463,5.95124274 27.75,5.95 L27.75,5.95 Z M27.75,5.95 C27.2073112,5.95276183 26.7690936,6.39396309 26.7700142,6.93665817 C26.7709348,7.47935325 27.2106467,7.91906521 27.7533418,7.91998583 C28.2960369,7.92090644 28.7372382,7.48268883 28.74,6.94 C28.7387573,6.39375368 28.2962463,5.95124274 27.75,5.95 L27.75,5.95 Z M27.75,5.95 C27.2073112,5.95276183 26.7690936,6.39396309 26.7700142,6.93665817 C26.7709348,7.47935325 27.2106467,7.91906521 27.7533418,7.91998583 C28.2960369,7.92090644 28.7372382,7.48268883 28.74,6.94 C28.7387573,6.39375368 28.2962463,5.95124274 27.75,5.95 L27.75,5.95 Z M27.75,5.95 C27.2073112,5.95276183 26.7690936,6.39396309 26.7700142,6.93665817 C26.7709348,7.47935325 27.2106467,7.91906521 27.7533418,7.91998583 C28.2960369,7.92090644 28.7372382,7.48268883 28.74,6.94 C28.7387573,6.39375368 28.2962463,5.95124274 27.75,5.95 L27.75,5.95 Z M28.25,3.47 C26.6474257,3.46595308 25.2003998,4.42820604 24.584315,5.90763169 C23.9682301,7.38705733 24.3045581,9.09196152 25.4363194,10.226588 C26.5680806,11.3612145 28.272129,11.7018521 29.7531076,11.0895099 C31.2340863,10.4771677 32.1999949,9.0325794 32.2,7.43 C32.1985461,5.24745601 30.4325333,3.47697236 28.25,3.47 L28.25,3.47 Z M27.75,8.92 C26.6537199,8.91723511 25.76725,8.02628434 25.7700126,6.93000423 C25.7727752,5.83372412 26.6637241,4.94725235 27.7600042,4.9500126 C28.8562843,4.95277286 29.7427579,5.84371988 29.74,6.94 C29.7363167,8.03590041 28.8459051,8.92183759 27.75,8.92 L27.75,8.92 Z M27.75,5.95 C27.2073112,5.95276183 26.7690936,6.39396309 26.7700142,6.93665817 C26.7709348,7.47935325 27.2106467,7.91906521 27.7533418,7.91998583 C28.2960369,7.92090644 28.7372382,7.48268883 28.74,6.94 C28.7387573,6.39375368 28.2962463,5.95124274 27.75,5.95 L27.75,5.95 Z M27.75,5.95 C27.2073112,5.95276183 26.7690936,6.39396309 26.7700142,6.93665817 C26.7709348,7.47935325 27.2106467,7.91906521 27.7533418,7.91998583 C28.2960369,7.92090644 28.7372382,7.48268883 28.74,6.94 C28.7387573,6.39375368 28.2962463,5.95124274 27.75,5.95 L27.75,5.95 Z M27.75,5.95 C27.2073112,5.95276183 26.7690936,6.39396309 26.7700142,6.93665817 C26.7709348,7.47935325 27.2106467,7.91906521 27.7533418,7.91998583 C28.2960369,7.92090644 28.7372382,7.48268883 28.74,6.94 C28.7387573,6.39375368 28.2962463,5.95124274 27.75,5.95 L27.75,5.95 Z M27.75,5.95 C27.2073112,5.95276183 26.7690936,6.39396309 26.7700142,6.93665817 C26.7709348,7.47935325 27.2106467,7.91906521 27.7533418,7.91998583 C28.2960369,7.92090644 28.7372382,7.48268883 28.74,6.94 C28.7387573,6.39375368 28.2962463,5.95124274 27.75,5.95 L27.75,5.95 Z M27.75,5.95 C27.2073112,5.95276183 26.7690936,6.39396309 26.7700142,6.93665817 C26.7709348,7.47935325 27.2106467,7.91906521 27.7533418,7.91998583 C28.2960369,7.92090644 28.7372382,7.48268883 28.74,6.94 C28.7387573,6.39375368 28.2962463,5.95124274 27.75,5.95 L27.75,5.95 Z M27.75,5.95 C27.2073112,5.95276183 26.7690936,6.39396309 26.7700142,6.93665817 C26.7709348,7.47935325 27.2106467,7.91906521 27.7533418,7.91998583 C28.2960369,7.92090644 28.7372382,7.48268883 28.74,6.94 C28.7387573,6.39375368 28.2962463,5.95124274 27.75,5.95 L27.75,5.95 Z M27.75,5.95 C27.2073112,5.95276183 26.7690936,6.39396309 26.7700142,6.93665817 C26.7709348,7.47935325 27.2106467,7.91906521 27.7533418,7.91998583 C28.2960369,7.92090644 28.7372382,7.48268883 28.74,6.94 C28.7387573,6.39375368 28.2962463,5.95124274 27.75,5.95 L27.75,5.95 Z M36.18,7.44 C35.0892428,7.43724208 34.2027729,8.31923857 34.2000127,9.40999581 C34.1972524,10.5007531 35.079247,11.3872248 36.1700043,11.3899874 C37.2607615,11.3927499 38.1472351,10.5107572 38.15,9.42 C38.1475551,8.331386 37.2685877,7.44795682 36.18,7.44 L36.18,7.44 Z M27.75,5.95 C27.2073112,5.95276183 26.7690936,6.39396309 26.7700142,6.93665817 C26.7709348,7.47935325 27.2106467,7.91906521 27.7533418,7.91998583 C28.2960369,7.92090644 28.7372382,7.48268883 28.74,6.94 C28.7387573,6.39375368 28.2962463,5.95124274 27.75,5.95 L27.75,5.95 Z M27.75,5.95 C27.2073112,5.95276183 26.7690936,6.39396309 26.7700142,6.93665817 C26.7709348,7.47935325 27.2106467,7.91906521 27.7533418,7.91998583 C28.2960369,7.92090644 28.7372382,7.48268883 28.74,6.94 C28.7387573,6.39375368 28.2962463,5.95124274 27.75,5.95 L27.75,5.95 Z M27.75,5.95 C27.2073112,5.95276183 26.7690936,6.39396309 26.7700142,6.93665817 C26.7709348,7.47935325 27.2106467,7.91906521 27.7533418,7.91998583 C28.2960369,7.92090644 28.7372382,7.48268883 28.74,6.94 C28.7387573,6.39375368 28.2962463,5.95124274 27.75,5.95 L27.75,5.95 Z M27.75,5.95 C27.2073112,5.95276183 26.7690936,6.39396309 26.7700142,6.93665817 C26.7709348,7.47935325 27.2106467,7.91906521 27.7533418,7.91998583 C28.2960369,7.92090644 28.7372382,7.48268883 28.74,6.94 C28.7387573,6.39375368 28.2962463,5.95124274 27.75,5.95 L27.75,5.95 Z M27.75,5.95 C27.2073112,5.95276183 26.7690936,6.39396309 26.7700142,6.93665817 C26.7709348,7.47935325 27.2106467,7.91906521 27.7533418,7.91998583 C28.2960369,7.92090644 28.7372382,7.48268883 28.74,6.94 C28.7387573,6.39375368 28.2962463,5.95124274 27.75,5.95 L27.75,5.95 Z M27.75,5.95 C27.2073112,5.95276183 26.7690936,6.39396309 26.7700142,6.93665817 C26.7709348,7.47935325 27.2106467,7.91906521 27.7533418,7.91998583 C28.2960369,7.92090644 28.7372382,7.48268883 28.74,6.94 C28.7387573,6.39375368 28.2962463,5.95124274 27.75,5.95 L27.75,5.95 Z M28.25,3.47 C26.6474257,3.46595308 25.2003998,4.42820604 24.584315,5.90763169 C23.9682301,7.38705733 24.3045581,9.09196152 25.4363194,10.226588 C26.5680806,11.3612145 28.272129,11.7018521 29.7531076,11.0895099 C31.2340863,10.4771677 32.1999949,9.0325794 32.2,7.43 C32.1985461,5.24745601 30.4325333,3.47697236 28.25,3.47 L28.25,3.47 Z M27.75,8.92 C26.6537199,8.91723511 25.76725,8.02628434 25.7700126,6.93000423 C25.7727752,5.83372412 26.6637241,4.94725235 27.7600042,4.9500126 C28.8562843,4.95277286 29.7427579,5.84371988 29.74,6.94 C29.7363167,8.03590041 28.8459051,8.92183759 27.75,8.92 L27.75,8.92 Z M27.75,5.95 C27.2073112,5.95276183 26.7690936,6.39396309 26.7700142,6.93665817 C26.7709348,7.47935325 27.2106467,7.91906521 27.7533418,7.91998583 C28.2960369,7.92090644 28.7372382,7.48268883 28.74,6.94 C28.7387573,6.39375368 28.2962463,5.95124274 27.75,5.95 L27.75,5.95 Z M27.75,5.95 C27.2073112,5.95276183 26.7690936,6.39396309 26.7700142,6.93665817 C26.7709348,7.47935325 27.2106467,7.91906521 27.7533418,7.91998583 C28.2960369,7.92090644 28.7372382,7.48268883 28.74,6.94 C28.7387573,6.39375368 28.2962463,5.95124274 27.75,5.95 L27.75,5.95 Z M27.75,5.95 C27.2073112,5.95276183 26.7690936,6.39396309 26.7700142,6.93665817 C26.7709348,7.47935325 27.2106467,7.91906521 27.7533418,7.91998583 C28.2960369,7.92090644 28.7372382,7.48268883 28.74,6.94 C28.7387573,6.39375368 28.2962463,5.95124274 27.75,5.95 L27.75,5.95 Z M27.75,5.95 C27.2073112,5.95276183 26.7690936,6.39396309 26.7700142,6.93665817 C26.7709348,7.47935325 27.2106467,7.91906521 27.7533418,7.91998583 C28.2960369,7.92090644 28.7372382,7.48268883 28.74,6.94 C28.7387573,6.39375368 28.2962463,5.95124274 27.75,5.95 L27.75,5.95 Z M27.75,5.95 C27.2073112,5.95276183 26.7690936,6.39396309 26.7700142,6.93665817 C26.7709348,7.47935325 27.2106467,7.91906521 27.7533418,7.91998583 C28.2960369,7.92090644 28.7372382,7.48268883 28.74,6.94 C28.7387573,6.39375368 28.2962463,5.95124274 27.75,5.95 L27.75,5.95 Z M36.18,7.44 C35.0892428,7.43724208 34.2027729,8.31923857 34.2000127,9.40999581 C34.1972524,10.5007531 35.079247,11.3872248 36.1700043,11.3899874 C37.2607615,11.3927499 38.1472351,10.5107572 38.15,9.42 C38.1475551,8.331386 37.2685877,7.44795682 36.18,7.44 L36.18,7.44 Z M27.75,5.95 C27.2073112,5.95276183 26.7690936,6.39396309 26.7700142,6.93665817 C26.7709348,7.47935325 27.2106467,7.91906521 27.7533418,7.91998583 C28.2960369,7.92090644 28.7372382,7.48268883 28.74,6.94 C28.7387573,6.39375368 28.2962463,5.95124274 27.75,5.95 L27.75,5.95 Z M27.75,5.95 C27.2073112,5.95276183 26.7690936,6.39396309 26.7700142,6.93665817 C26.7709348,7.47935325 27.2106467,7.91906521 27.7533418,7.91998583 C28.2960369,7.92090644 28.7372382,7.48268883 28.74,6.94 C28.7387573,6.39375368 28.2962463,5.95124274 27.75,5.95 L27.75,5.95 Z M27.75,5.95 C27.2073112,5.95276183 26.7690936,6.39396309 26.7700142,6.93665817 C26.7709348,7.47935325 27.2106467,7.91906521 27.7533418,7.91998583 C28.2960369,7.92090644 28.7372382,7.48268883 28.74,6.94 C28.7387573,6.39375368 28.2962463,5.95124274 27.75,5.95 L27.75,5.95 Z M27.75,5.95 C27.2073112,5.95276183 26.7690936,6.39396309 26.7700142,6.93665817 C26.7709348,7.47935325 27.2106467,7.91906521 27.7533418,7.91998583 C28.2960369,7.92090644 28.7372382,7.48268883 28.74,6.94 C28.7387573,6.39375368 28.2962463,5.95124274 27.75,5.95 L27.75,5.95 Z M28.25,3.47 C26.6474257,3.46595308 25.2003998,4.42820604 24.584315,5.90763169 C23.9682301,7.38705733 24.3045581,9.09196152 25.4363194,10.226588 C26.5680806,11.3612145 28.272129,11.7018521 29.7531076,11.0895099 C31.2340863,10.4771677 32.1999949,9.0325794 32.2,7.43 C32.1985461,5.24745601 30.4325333,3.47697236 28.25,3.47 L28.25,3.47 Z M27.75,8.92 C26.6537199,8.91723511 25.76725,8.02628434 25.7700126,6.93000423 C25.7727752,5.83372412 26.6637241,4.94725235 27.7600042,4.9500126 C28.8562843,4.95277286 29.7427579,5.84371988 29.74,6.94 C29.7363167,8.03590041 28.8459051,8.92183759 27.75,8.92 L27.75,8.92 Z M27.75,5.95 C27.2073112,5.95276183 26.7690936,6.39396309 26.7700142,6.93665817 C26.7709348,7.47935325 27.2106467,7.91906521 27.7533418,7.91998583 C28.2960369,7.92090644 28.7372382,7.48268883 28.74,6.94 C28.7387573,6.39375368 28.2962463,5.95124274 27.75,5.95 L27.75,5.95 Z M27.75,5.95 C27.2073112,5.95276183 26.7690936,6.39396309 26.7700142,6.93665817 C26.7709348,7.47935325 27.2106467,7.91906521 27.7533418,7.91998583 C28.2960369,7.92090644 28.7372382,7.48268883 28.74,6.94 C28.7387573,6.39375368 28.2962463,5.95124274 27.75,5.95 L27.75,5.95 Z M27.75,5.95 C27.2073112,5.95276183 26.7690936,6.39396309 26.7700142,6.93665817 C26.7709348,7.47935325 27.2106467,7.91906521 27.7533418,7.91998583 C28.2960369,7.92090644 28.7372382,7.48268883 28.74,6.94 C28.7387573,6.39375368 28.2962463,5.95124274 27.75,5.95 L27.75,5.95 Z M36.18,7.44 C35.0892428,7.43724208 34.2027729,8.31923857 34.2000127,9.40999581 C34.1972524,10.5007531 35.079247,11.3872248 36.1700043,11.3899874 C37.2607615,11.3927499 38.1472351,10.5107572 38.15,9.42 C38.1475551,8.331386 37.2685877,7.44795682 36.18,7.44 L36.18,7.44 Z M27.75,5.95 C27.2073112,5.95276183 26.7690936,6.39396309 26.7700142,6.93665817 C26.7709348,7.47935325 27.2106467,7.91906521 27.7533418,7.91998583 C28.2960369,7.92090644 28.7372382,7.48268883 28.74,6.94 C28.7387573,6.39375368 28.2962463,5.95124274 27.75,5.95 L27.75,5.95 Z M27.75,5.95 C27.2073112,5.95276183 26.7690936,6.39396309 26.7700142,6.93665817 C26.7709348,7.47935325 27.2106467,7.91906521 27.7533418,7.91998583 C28.2960369,7.92090644 28.7372382,7.48268883 28.74,6.94 C28.7387573,6.39375368 28.2962463,5.95124274 27.75,5.95 L27.75,5.95 Z M28.25,3.47 C26.6474257,3.46595308 25.2003998,4.42820604 24.584315,5.90763169 C23.9682301,7.38705733 24.3045581,9.09196152 25.4363194,10.226588 C26.5680806,11.3612145 28.272129,11.7018521 29.7531076,11.0895099 C31.2340863,10.4771677 32.1999949,9.0325794 32.2,7.43 C32.1985461,5.24745601 30.4325333,3.47697236 28.25,3.47 L28.25,3.47 Z M27.75,8.92 C26.6537199,8.91723511 25.76725,8.02628434 25.7700126,6.93000423 C25.7727752,5.83372412 26.6637241,4.94725235 27.7600042,4.9500126 C28.8562843,4.95277286 29.7427579,5.84371988 29.74,6.94 C29.7363167,8.03590041 28.8459051,8.92183759 27.75,8.92 L27.75,8.92 Z M27.75,5.95 C27.2073112,5.95276183 26.7690936,6.39396309 26.7700142,6.93665817 C26.7709348,7.47935325 27.2106467,7.91906521 27.7533418,7.91998583 C28.2960369,7.92090644 28.7372382,7.48268883 28.74,6.94 C28.7387573,6.39375368 28.2962463,5.95124274 27.75,5.95 L27.75,5.95 Z M36.18,7.44 C35.0892428,7.43724208 34.2027729,8.31923857 34.2000127,9.40999581 C34.1972524,10.5007531 35.079247,11.3872248 36.1700043,11.3899874 C37.2607615,11.3927499 38.1472351,10.5107572 38.15,9.42 C38.1475551,8.331386 37.2685877,7.44795682 36.18,7.44 L36.18,7.44 Z M50.81,0.95 C49.9002026,2.95069017 47.897763,4.22817608 45.7,4.21 C44.2082265,4.29263707 42.7331173,3.86210281 41.52,2.99 C41.3144533,4.53961149 40.3971982,5.90439819 39.04,6.68 C39.7548209,7.41254801 40.153423,8.39648457 40.15,9.42 C40.15,9.53 40.13,9.65 40.12,9.76 C41.523183,10.002119 42.76617,10.8078925 43.56,11.99 C44.2711344,10.6746242 45.4160792,9.6462941 46.8,9.08 C48.7713861,8.09349766 51.1415348,8.38090771 52.82,9.81 C52.8077196,7.7108683 53.8237082,5.7386551 55.54,4.53 C53.470059,4.18824746 51.7010509,2.84933641 50.81,0.95 Z M36.18,7.44 C35.0892428,7.43724208 34.2027729,8.31923857 34.2000127,9.40999581 C34.1972524,10.5007531 35.079247,11.3872248 36.1700043,11.3899874 C37.2607615,11.3927499 38.1472351,10.5107572 38.15,9.42 C38.1475551,8.331386 37.2685877,7.44795682 36.18,7.44 Z M27.75,5.95 C27.2073112,5.95276183 26.7690936,6.39396309 26.7700142,6.93665817 C26.7709348,7.47935325 27.2106467,7.91906521 27.7533418,7.91998583 C28.2960369,7.92090644 28.7372382,7.48268883 28.74,6.94 C28.7387573,6.39375368 28.2962463,5.95124274 27.75,5.95 L27.75,5.95 Z M28.25,3.47 C26.6474257,3.46595308 25.2003998,4.42820604 24.584315,5.90763169 C23.9682301,7.38705733 24.3045581,9.09196152 25.4363194,10.226588 C26.5680806,11.3612145 28.272129,11.7018521 29.7531076,11.0895099 C31.2340863,10.4771677 32.1999949,9.0325794 32.2,7.43 C32.1985461,5.24745601 30.4325333,3.47697236 28.25,3.47 L28.25,3.47 Z M27.75,8.92 C26.6537199,8.91723511 25.76725,8.02628434 25.7700126,6.93000423 C25.7727752,5.83372412 26.6637241,4.94725235 27.7600042,4.9500126 C28.8562843,4.95277286 29.7427579,5.84371988 29.74,6.94 C29.7363167,8.03590041 28.8459051,8.92183759 27.75,8.92 L27.75,8.92 Z M36.18,7.44 C35.0892428,7.43724208 34.2027729,8.31923857 34.2000127,9.40999581 C34.1972524,10.5007531 35.079247,11.3872248 36.1700043,11.3899874 C37.2607615,11.3927499 38.1472351,10.5107572 38.15,9.42 C38.1475551,8.331386 37.2685877,7.44795682 36.18,7.44 L36.18,7.44 Z M27.75,5.95 C27.2073112,5.95276183 26.7690936,6.39396309 26.7700142,6.93665817 C26.7709348,7.47935325 27.2106467,7.91906521 27.7533418,7.91998583 C28.2960369,7.92090644 28.7372382,7.48268883 28.74,6.94 C28.7387573,6.39375368 28.2962463,5.95124274 27.75,5.95 L27.75,5.95 Z M27.75,5.95 C27.2073112,5.95276183 26.7690936,6.39396309 26.7700142,6.93665817 C26.7709348,7.47935325 27.2106467,7.91906521 27.7533418,7.91998583 C28.2960369,7.92090644 28.7372382,7.48268883 28.74,6.94 C28.7387573,6.39375368 28.2962463,5.95124274 27.75,5.95 L27.75,5.95 Z M27.75,5.95 C27.2073112,5.95276183 26.7690936,6.39396309 26.7700142,6.93665817 C26.7709348,7.47935325 27.2106467,7.91906521 27.7533418,7.91998583 C28.2960369,7.92090644 28.7372382,7.48268883 28.74,6.94 C28.7387573,6.39375368 28.2962463,5.95124274 27.75,5.95 L27.75,5.95 Z M28.25,3.47 C26.6474257,3.46595308 25.2003998,4.42820604 24.584315,5.90763169 C23.9682301,7.38705733 24.3045581,9.09196152 25.4363194,10.226588 C26.5680806,11.3612145 28.272129,11.7018521 29.7531076,11.0895099 C31.2340863,10.4771677 32.1999949,9.0325794 32.2,7.43 C32.1985461,5.24745601 30.4325333,3.47697236 28.25,3.47 L28.25,3.47 Z M27.75,8.92 C26.6537199,8.91723511 25.76725,8.02628434 25.7700126,6.93000423 C25.7727752,5.83372412 26.6637241,4.94725235 27.7600042,4.9500126 C28.8562843,4.95277286 29.7427579,5.84371988 29.74,6.94 C29.7363167,8.03590041 28.8459051,8.92183759 27.75,8.92 L27.75,8.92 Z M27.75,5.95 C27.2073112,5.95276183 26.7690936,6.39396309 26.7700142,6.93665817 C26.7709348,7.47935325 27.2106467,7.91906521 27.7533418,7.91998583 C28.2960369,7.92090644 28.7372382,7.48268883 28.74,6.94 C28.7387573,6.39375368 28.2962463,5.95124274 27.75,5.95 L27.75,5.95 Z M27.75,5.95 C27.2073112,5.95276183 26.7690936,6.39396309 26.7700142,6.93665817 C26.7709348,7.47935325 27.2106467,7.91906521 27.7533418,7.91998583 C28.2960369,7.92090644 28.7372382,7.48268883 28.74,6.94 C28.7387573,6.39375368 28.2962463,5.95124274 27.75,5.95 L27.75,5.95 Z M36.18,7.44 C35.0892428,7.43724208 34.2027729,8.31923857 34.2000127,9.40999581 C34.1972524,10.5007531 35.079247,11.3872248 36.1700043,11.3899874 C37.2607615,11.3927499 38.1472351,10.5107572 38.15,9.42 C38.1475551,8.331386 37.2685877,7.44795682 36.18,7.44 L36.18,7.44 Z M27.75,5.95 C27.2073112,5.95276183 26.7690936,6.39396309 26.7700142,6.93665817 C26.7709348,7.47935325 27.2106467,7.91906521 27.7533418,7.91998583 C28.2960369,7.92090644 28.7372382,7.48268883 28.74,6.94 C28.7387573,6.39375368 28.2962463,5.95124274 27.75,5.95 L27.75,5.95 Z M27.75,5.95 C27.2073112,5.95276183 26.7690936,6.39396309 26.7700142,6.93665817 C26.7709348,7.47935325 27.2106467,7.91906521 27.7533418,7.91998583 C28.2960369,7.92090644 28.7372382,7.48268883 28.74,6.94 C28.7387573,6.39375368 28.2962463,5.95124274 27.75,5.95 L27.75,5.95 Z M27.75,5.95 C27.2073112,5.95276183 26.7690936,6.39396309 26.7700142,6.93665817 C26.7709348,7.47935325 27.2106467,7.91906521 27.7533418,7.91998583 C28.2960369,7.92090644 28.7372382,7.48268883 28.74,6.94 C28.7387573,6.39375368 28.2962463,5.95124274 27.75,5.95 L27.75,5.95 Z M27.75,5.95 C27.2073112,5.95276183 26.7690936,6.39396309 26.7700142,6.93665817 C26.7709348,7.47935325 27.2106467,7.91906521 27.7533418,7.91998583 C28.2960369,7.92090644 28.7372382,7.48268883 28.74,6.94 C28.7387573,6.39375368 28.2962463,5.95124274 27.75,5.95 L27.75,5.95 Z M27.75,5.95 C27.2073112,5.95276183 26.7690936,6.39396309 26.7700142,6.93665817 C26.7709348,7.47935325 27.2106467,7.91906521 27.7533418,7.91998583 C28.2960369,7.92090644 28.7372382,7.48268883 28.74,6.94 C28.7387573,6.39375368 28.2962463,5.95124274 27.75,5.95 L27.75,5.95 Z M28.25,3.47 C26.6474257,3.46595308 25.2003998,4.42820604 24.584315,5.90763169 C23.9682301,7.38705733 24.3045581,9.09196152 25.4363194,10.226588 C26.5680806,11.3612145 28.272129,11.7018521 29.7531076,11.0895099 C31.2340863,10.4771677 32.1999949,9.0325794 32.2,7.43 C32.1985461,5.24745601 30.4325333,3.47697236 28.25,3.47 L28.25,3.47 Z M27.75,8.92 C26.6537199,8.91723511 25.76725,8.02628434 25.7700126,6.93000423 C25.7727752,5.83372412 26.6637241,4.94725235 27.7600042,4.9500126 C28.8562843,4.95277286 29.7427579,5.84371988 29.74,6.94 C29.7363167,8.03590041 28.8459051,8.92183759 27.75,8.92 L27.75,8.92 Z M27.75,5.95 C27.2073112,5.95276183 26.7690936,6.39396309 26.7700142,6.93665817 C26.7709348,7.47935325 27.2106467,7.91906521 27.7533418,7.91998583 C28.2960369,7.92090644 28.7372382,7.48268883 28.74,6.94 C28.7387573,6.39375368 28.2962463,5.95124274 27.75,5.95 L27.75,5.95 Z M27.75,5.95 C27.2073112,5.95276183 26.7690936,6.39396309 26.7700142,6.93665817 C26.7709348,7.47935325 27.2106467,7.91906521 27.7533418,7.91998583 C28.2960369,7.92090644 28.7372382,7.48268883 28.74,6.94 C28.7387573,6.39375368 28.2962463,5.95124274 27.75,5.95 L27.75,5.95 Z M27.75,5.95 C27.2073112,5.95276183 26.7690936,6.39396309 26.7700142,6.93665817 C26.7709348,7.47935325 27.2106467,7.91906521 27.7533418,7.91998583 C28.2960369,7.92090644 28.7372382,7.48268883 28.74,6.94 C28.7387573,6.39375368 28.2962463,5.95124274 27.75,5.95 L27.75,5.95 Z M27.75,5.95 C27.2073112,5.95276183 26.7690936,6.39396309 26.7700142,6.93665817 C26.7709348,7.47935325 27.2106467,7.91906521 27.7533418,7.91998583 C28.2960369,7.92090644 28.7372382,7.48268883 28.74,6.94 C28.7387573,6.39375368 28.2962463,5.95124274 27.75,5.95 L27.75,5.95 Z M36.18,7.44 C35.0892428,7.43724208 34.2027729,8.31923857 34.2000127,9.40999581 C34.1972524,10.5007531 35.079247,11.3872248 36.1700043,11.3899874 C37.2607615,11.3927499 38.1472351,10.5107572 38.15,9.42 C38.1475551,8.331386 37.2685877,7.44795682 36.18,7.44 L36.18,7.44 Z M27.75,5.95 C27.2073112,5.95276183 26.7690936,6.39396309 26.7700142,6.93665817 C26.7709348,7.47935325 27.2106467,7.91906521 27.7533418,7.91998583 C28.2960369,7.92090644 28.7372382,7.48268883 28.74,6.94 C28.7387573,6.39375368 28.2962463,5.95124274 27.75,5.95 L27.75,5.95 Z M27.75,5.95 C27.2073112,5.95276183 26.7690936,6.39396309 26.7700142,6.93665817 C26.7709348,7.47935325 27.2106467,7.91906521 27.7533418,7.91998583 C28.2960369,7.92090644 28.7372382,7.48268883 28.74,6.94 C28.7387573,6.39375368 28.2962463,5.95124274 27.75,5.95 L27.75,5.95 Z M27.75,5.95 C27.2073112,5.95276183 26.7690936,6.39396309 26.7700142,6.93665817 C26.7709348,7.47935325 27.2106467,7.91906521 27.7533418,7.91998583 C28.2960369,7.92090644 28.7372382,7.48268883 28.74,6.94 C28.7387573,6.39375368 28.2962463,5.95124274 27.75,5.95 L27.75,5.95 Z M27.75,5.95 C27.2073112,5.95276183 26.7690936,6.39396309 26.7700142,6.93665817 C26.7709348,7.47935325 27.2106467,7.91906521 27.7533418,7.91998583 C28.2960369,7.92090644 28.7372382,7.48268883 28.74,6.94 C28.7387573,6.39375368 28.2962463,5.95124274 27.75,5.95 L27.75,5.95 Z M27.75,5.95 C27.2073112,5.95276183 26.7690936,6.39396309 26.7700142,6.93665817 C26.7709348,7.47935325 27.2106467,7.91906521 27.7533418,7.91998583 C28.2960369,7.92090644 28.7372382,7.48268883 28.74,6.94 C28.7387573,6.39375368 28.2962463,5.95124274 27.75,5.95 L27.75,5.95 Z M27.75,5.95 C27.2073112,5.95276183 26.7690936,6.39396309 26.7700142,6.93665817 C26.7709348,7.47935325 27.2106467,7.91906521 27.7533418,7.91998583 C28.2960369,7.92090644 28.7372382,7.48268883 28.74,6.94 C28.7387573,6.39375368 28.2962463,5.95124274 27.75,5.95 L27.75,5.95 Z M27.75,5.95 C27.2073112,5.95276183 26.7690936,6.39396309 26.7700142,6.93665817 C26.7709348,7.47935325 27.2106467,7.91906521 27.7533418,7.91998583 C28.2960369,7.92090644 28.7372382,7.48268883 28.74,6.94 C28.7387573,6.39375368 28.2962463,5.95124274 27.75,5.95 L27.75,5.95 Z M28.25,3.47 C26.6474257,3.46595308 25.2003998,4.42820604 24.584315,5.90763169 C23.9682301,7.38705733 24.3045581,9.09196152 25.4363194,10.226588 C26.5680806,11.3612145 28.272129,11.7018521 29.7531076,11.0895099 C31.2340863,10.4771677 32.1999949,9.0325794 32.2,7.43 C32.1985461,5.24745601 30.4325333,3.47697236 28.25,3.47 L28.25,3.47 Z M27.75,8.92 C26.6537199,8.91723511 25.76725,8.02628434 25.7700126,6.93000423 C25.7727752,5.83372412 26.6637241,4.94725235 27.7600042,4.9500126 C28.8562843,4.95277286 29.7427579,5.84371988 29.74,6.94 C29.7363167,8.03590041 28.8459051,8.92183759 27.75,8.92 L27.75,8.92 Z M27.75,5.95 C27.2073112,5.95276183 26.7690936,6.39396309 26.7700142,6.93665817 C26.7709348,7.47935325 27.2106467,7.91906521 27.7533418,7.91998583 C28.2960369,7.92090644 28.7372382,7.48268883 28.74,6.94 C28.7387573,6.39375368 28.2962463,5.95124274 27.75,5.95 L27.75,5.95 Z M27.75,5.95 C27.2073112,5.95276183 26.7690936,6.39396309 26.7700142,6.93665817 C26.7709348,7.47935325 27.2106467,7.91906521 27.7533418,7.91998583 C28.2960369,7.92090644 28.7372382,7.48268883 28.74,6.94 C28.7387573,6.39375368 28.2962463,5.95124274 27.75,5.95 L27.75,5.95 Z M27.75,5.95 C27.2073112,5.95276183 26.7690936,6.39396309 26.7700142,6.93665817 C26.7709348,7.47935325 27.2106467,7.91906521 27.7533418,7.91998583 C28.2960369,7.92090644 28.7372382,7.48268883 28.74,6.94 C28.7387573,6.39375368 28.2962463,5.95124274 27.75,5.95 L27.75,5.95 Z M27.75,5.95 C27.2073112,5.95276183 26.7690936,6.39396309 26.7700142,6.93665817 C26.7709348,7.47935325 27.2106467,7.91906521 27.7533418,7.91998583 C28.2960369,7.92090644 28.7372382,7.48268883 28.74,6.94 C28.7387573,6.39375368 28.2962463,5.95124274 27.75,5.95 L27.75,5.95 Z M27.75,5.95 C27.2073112,5.95276183 26.7690936,6.39396309 26.7700142,6.93665817 C26.7709348,7.47935325 27.2106467,7.91906521 27.7533418,7.91998583 C28.2960369,7.92090644 28.7372382,7.48268883 28.74,6.94 C28.7387573,6.39375368 28.2962463,5.95124274 27.75,5.95 L27.75,5.95 Z M27.75,5.95 C27.2073112,5.95276183 26.7690936,6.39396309 26.7700142,6.93665817 C26.7709348,7.47935325 27.2106467,7.91906521 27.7533418,7.91998583 C28.2960369,7.92090644 28.7372382,7.48268883 28.74,6.94 C28.7387573,6.39375368 28.2962463,5.95124274 27.75,5.95 L27.75,5.95 Z M36.18,7.44 C35.0892428,7.43724208 34.2027729,8.31923857 34.2000127,9.40999581 C34.1972524,10.5007531 35.079247,11.3872248 36.1700043,11.3899874 C37.2607615,11.3927499 38.1472351,10.5107572 38.15,9.42 C38.1475551,8.331386 37.2685877,7.44795682 36.18,7.44 L36.18,7.44 Z M27.75,5.95 C27.2073112,5.95276183 26.7690936,6.39396309 26.7700142,6.93665817 C26.7709348,7.47935325 27.2106467,7.91906521 27.7533418,7.91998583 C28.2960369,7.92090644 28.7372382,7.48268883 28.74,6.94 C28.7387573,6.39375368 28.2962463,5.95124274 27.75,5.95 L27.75,5.95 Z M27.75,5.95 C27.2073112,5.95276183 26.7690936,6.39396309 26.7700142,6.93665817 C26.7709348,7.47935325 27.2106467,7.91906521 27.7533418,7.91998583 C28.2960369,7.92090644 28.7372382,7.48268883 28.74,6.94 C28.7387573,6.39375368 28.2962463,5.95124274 27.75,5.95 L27.75,5.95 Z M27.75,5.95 C27.2073112,5.95276183 26.7690936,6.39396309 26.7700142,6.93665817 C26.7709348,7.47935325 27.2106467,7.91906521 27.7533418,7.91998583 C28.2960369,7.92090644 28.7372382,7.48268883 28.74,6.94 C28.7387573,6.39375368 28.2962463,5.95124274 27.75,5.95 L27.75,5.95 Z M27.75,5.95 C27.2073112,5.95276183 26.7690936,6.39396309 26.7700142,6.93665817 C26.7709348,7.47935325 27.2106467,7.91906521 27.7533418,7.91998583 C28.2960369,7.92090644 28.7372382,7.48268883 28.74,6.94 C28.7387573,6.39375368 28.2962463,5.95124274 27.75,5.95 L27.75,5.95 Z M27.75,5.95 C27.2073112,5.95276183 26.7690936,6.39396309 26.7700142,6.93665817 C26.7709348,7.47935325 27.2106467,7.91906521 27.7533418,7.91998583 C28.2960369,7.92090644 28.7372382,7.48268883 28.74,6.94 C28.7387573,6.39375368 28.2962463,5.95124274 27.75,5.95 L27.75,5.95 Z M27.75,5.95 C27.2073112,5.95276183 26.7690936,6.39396309 26.7700142,6.93665817 C26.7709348,7.47935325 27.2106467,7.91906521 27.7533418,7.91998583 C28.2960369,7.92090644 28.7372382,7.48268883 28.74,6.94 C28.7387573,6.39375368 28.2962463,5.95124274 27.75,5.95 L27.75,5.95 Z M27.75,5.95 C27.2073112,5.95276183 26.7690936,6.39396309 26.7700142,6.93665817 C26.7709348,7.47935325 27.2106467,7.91906521 27.7533418,7.91998583 C28.2960369,7.92090644 28.7372382,7.48268883 28.74,6.94 C28.7387573,6.39375368 28.2962463,5.95124274 27.75,5.95 L27.75,5.95 Z M27.75,5.95 C27.2073112,5.95276183 26.7690936,6.39396309 26.7700142,6.93665817 C26.7709348,7.47935325 27.2106467,7.91906521 27.7533418,7.91998583 C28.2960369,7.92090644 28.7372382,7.48268883 28.74,6.94 C28.7387573,6.39375368 28.2962463,5.95124274 27.75,5.95 L27.75,5.95 Z M27.75,5.95 C27.2073112,5.95276183 26.7690936,6.39396309 26.7700142,6.93665817 C26.7709348,7.47935325 27.2106467,7.91906521 27.7533418,7.91998583 C28.2960369,7.92090644 28.7372382,7.48268883 28.74,6.94 C28.7387573,6.39375368 28.2962463,5.95124274 27.75,5.95 L27.75,5.95 Z M28.25,3.47 C26.6474257,3.46595308 25.2003998,4.42820604 24.584315,5.90763169 C23.9682301,7.38705733 24.3045581,9.09196152 25.4363194,10.226588 C26.5680806,11.3612145 28.272129,11.7018521 29.7531076,11.0895099 C31.2340863,10.4771677 32.1999949,9.0325794 32.2,7.43 C32.1985461,5.24745601 30.4325333,3.47697236 28.25,3.47 L28.25,3.47 Z M27.75,8.92 C26.6537199,8.91723511 25.76725,8.02628434 25.7700126,6.93000423 C25.7727752,5.83372412 26.6637241,4.94725235 27.7600042,4.9500126 C28.8562843,4.95277286 29.7427579,5.84371988 29.74,6.94 C29.7363167,8.03590041 28.8459051,8.92183759 27.75,8.92 L27.75,8.92 Z M27.75,5.95 C27.2073112,5.95276183 26.7690936,6.39396309 26.7700142,6.93665817 C26.7709348,7.47935325 27.2106467,7.91906521 27.7533418,7.91998583 C28.2960369,7.92090644 28.7372382,7.48268883 28.74,6.94 C28.7387573,6.39375368 28.2962463,5.95124274 27.75,5.95 L27.75,5.95 Z M27.75,5.95 C27.2073112,5.95276183 26.7690936,6.39396309 26.7700142,6.93665817 C26.7709348,7.47935325 27.2106467,7.91906521 27.7533418,7.91998583 C28.2960369,7.92090644 28.7372382,7.48268883 28.74,6.94 C28.7387573,6.39375368 28.2962463,5.95124274 27.75,5.95 L27.75,5.95 Z M27.75,5.95 C27.2073112,5.95276183 26.7690936,6.39396309 26.7700142,6.93665817 C26.7709348,7.47935325 27.2106467,7.91906521 27.7533418,7.91998583 C28.2960369,7.92090644 28.7372382,7.48268883 28.74,6.94 C28.7387573,6.39375368 28.2962463,5.95124274 27.75,5.95 L27.75,5.95 Z M27.75,5.95 C27.2073112,5.95276183 26.7690936,6.39396309 26.7700142,6.93665817 C26.7709348,7.47935325 27.2106467,7.91906521 27.7533418,7.91998583 C28.2960369,7.92090644 28.7372382,7.48268883 28.74,6.94 C28.7387573,6.39375368 28.2962463,5.95124274 27.75,5.95 L27.75,5.95 Z M27.75,5.95 C27.2073112,5.95276183 26.7690936,6.39396309 26.7700142,6.93665817 C26.7709348,7.47935325 27.2106467,7.91906521 27.7533418,7.91998583 C28.2960369,7.92090644 28.7372382,7.48268883 28.74,6.94 C28.7387573,6.39375368 28.2962463,5.95124274 27.75,5.95 L27.75,5.95 Z M27.75,5.95 C27.2073112,5.95276183 26.7690936,6.39396309 26.7700142,6.93665817 C26.7709348,7.47935325 27.2106467,7.91906521 27.7533418,7.91998583 C28.2960369,7.92090644 28.7372382,7.48268883 28.74,6.94 C28.7387573,6.39375368 28.2962463,5.95124274 27.75,5.95 L27.75,5.95 Z M27.75,5.95 C27.2073112,5.95276183 26.7690936,6.39396309 26.7700142,6.93665817 C26.7709348,7.47935325 27.2106467,7.91906521 27.7533418,7.91998583 C28.2960369,7.92090644 28.7372382,7.48268883 28.74,6.94 C28.7387573,6.39375368 28.2962463,5.95124274 27.75,5.95 L27.75,5.95 Z M27.75,5.95 C27.2073112,5.95276183 26.7690936,6.39396309 26.7700142,6.93665817 C26.7709348,7.47935325 27.2106467,7.91906521 27.7533418,7.91998583 C28.2960369,7.92090644 28.7372382,7.48268883 28.74,6.94 C28.7387573,6.39375368 28.2962463,5.95124274 27.75,5.95 L27.75,5.95 Z M36.67,31.73 C35.5764762,31.73 34.69,32.6164762 34.69,33.71 C34.69,34.8035238 35.5764762,35.69 36.67,35.69 C36.8360137,35.6837049 37.0006047,35.6568329 37.16,35.61 L37.16,31.81 C37.0006124,31.7631334 36.8360172,31.7362607 36.67,31.73 L36.67,31.73 Z M36.67,31.73 C35.5764762,31.73 34.69,32.6164762 34.69,33.71 C34.69,34.8035238 35.5764762,35.69 36.67,35.69 C36.8360137,35.6837049 37.0006047,35.6568329 37.16,35.61 L37.16,31.81 C37.0006124,31.7631334 36.8360172,31.7362607 36.67,31.73 L36.67,31.73 Z M36.67,31.73 C35.5764762,31.73 34.69,32.6164762 34.69,33.71 C34.69,34.8035238 35.5764762,35.69 36.67,35.69 C36.8360137,35.6837049 37.0006047,35.6568329 37.16,35.61 L37.16,31.81 C37.0006124,31.7631334 36.8360172,31.7362607 36.67,31.73 L36.67,31.73 Z M36.67,31.73 C35.5764762,31.73 34.69,32.6164762 34.69,33.71 C34.69,34.8035238 35.5764762,35.69 36.67,35.69 C36.8360137,35.6837049 37.0006047,35.6568329 37.16,35.61 L37.16,31.81 C37.0006124,31.7631334 36.8360172,31.7362607 36.67,31.73 L36.67,31.73 Z M34.7,33.71 C34.6977874,34.8005366 35.5794662,35.6866909 36.67,35.69 C36.8360137,35.6837049 37.0006047,35.6568329 37.16,35.61 L37.16,31.81 C37.0006124,31.7631334 36.8360172,31.7362607 36.67,31.73 C35.5794662,31.7333091 34.6977874,32.6194634 34.7,33.71 L34.7,33.71 Z M37.19,13.24 C36.8616215,13.3352414 36.5218843,13.3856975 36.18,13.39 C35.0005381,13.3868215 33.8847324,12.8546115 33.14,11.94 C32.85,11.88 32.57,11.82 32.31,11.78 C30.0251277,13.9267147 26.4648723,13.9267147 24.18,11.78 C23.92,11.82 23.64,11.88 23.35,11.94 C22.6066522,12.8563709 21.4899579,13.3890047 20.31,13.39 C19.9721657,13.3847897 19.6362766,13.3377653 19.31,13.25 C14.7093815,15.2084797 10.882115,18.6280668 8.42,22.98 L8.42,29.25 C8.42,30.8902857 9.74971429,32.22 11.39,32.22 C13.0302857,32.22 14.36,30.8902857 14.36,29.25 L14.36,28.25 C14.36,25.5079062 16.5829062,23.285 19.325,23.285 C22.0670938,23.285 24.29,25.5079062 24.29,28.25 L24.29,37.18 C24.2933831,38.8133595 25.6166405,40.1366169 27.25,40.14 C28.0373062,40.1444219 28.7937897,39.8343073 29.3514461,39.2785286 C29.9091024,38.7227499 30.2217665,37.9673166 30.22,37.18 L30.22,26.77 C30.222629,24.302377 32.222377,22.302629 34.69,22.3 C37.1542006,22.3108597 39.1491403,24.3057994 39.16,26.77 L39.16,41.64 C39.16,43.0041433 40.2658567,44.11 41.63,44.11 C42.9941433,44.11 44.1,43.0041433 44.1,41.64 L44.1,32.72 C44.102629,30.252377 46.102377,28.252629 48.57,28.25 L50.24,28.25 C48.4272869,21.50734 43.615176,15.9724907 37.19,13.24 Z M36.67,31.73 C35.5764762,31.73 34.69,32.6164762 34.69,33.71 C34.69,34.8035238 35.5764762,35.69 36.67,35.69 C36.8360137,35.6837049 37.0006047,35.6568329 37.16,35.61 L37.16,31.81 C37.0006124,31.7631334 36.8360172,31.7362607 36.67,31.73 L36.67,31.73 Z M36.67,31.73 C35.5764762,31.73 34.69,32.6164762 34.69,33.71 C34.69,34.8035238 35.5764762,35.69 36.67,35.69 C36.8360137,35.6837049 37.0006047,35.6568329 37.16,35.61 L37.16,31.81 C37.0006124,31.7631334 36.8360172,31.7362607 36.67,31.73 L36.67,31.73 Z M36.67,31.73 C35.5764762,31.73 34.69,32.6164762 34.69,33.71 C34.69,34.8035238 35.5764762,35.69 36.67,35.69 C36.8360137,35.6837049 37.0006047,35.6568329 37.16,35.61 L37.16,31.81 C37.0006124,31.7631334 36.8360172,31.7362607 36.67,31.73 L36.67,31.73 Z M36.67,31.73 C35.5764762,31.73 34.69,32.6164762 34.69,33.71 C34.69,34.8035238 35.5764762,35.69 36.67,35.69 C36.8360137,35.6837049 37.0006047,35.6568329 37.16,35.61 L37.16,31.81 C37.0006124,31.7631334 36.8360172,31.7362607 36.67,31.73 L36.67,31.73 Z M36.67,31.73 C35.5764762,31.73 34.69,32.6164762 34.69,33.71 C34.69,34.8035238 35.5764762,35.69 36.67,35.69 C36.8360137,35.6837049 37.0006047,35.6568329 37.16,35.61 L37.16,31.81 C37.0006124,31.7631334 36.8360172,31.7362607 36.67,31.73 L36.67,31.73 Z M36.67,31.73 C35.5764762,31.73 34.69,32.6164762 34.69,33.71 C34.69,34.8035238 35.5764762,35.69 36.67,35.69 C36.8360137,35.6837049 37.0006047,35.6568329 37.16,35.61 L37.16,31.81 C37.0006124,31.7631334 36.8360172,31.7362607 36.67,31.73 L36.67,31.73 Z M36.67,31.73 C35.5764762,31.73 34.69,32.6164762 34.69,33.71 C34.69,34.8035238 35.5764762,35.69 36.67,35.69 C36.8360137,35.6837049 37.0006047,35.6568329 37.16,35.61 L37.16,31.81 C37.0006124,31.7631334 36.8360172,31.7362607 36.67,31.73 L36.67,31.73 Z M36.67,31.73 C35.5764762,31.73 34.69,32.6164762 34.69,33.71 C34.69,34.8035238 35.5764762,35.69 36.67,35.69 C36.8360137,35.6837049 37.0006047,35.6568329 37.16,35.61 L37.16,31.81 C37.0006124,31.7631334 36.8360172,31.7362607 36.67,31.73 L36.67,31.73 Z M50.55,34.7 C49.4564762,34.7 48.57,35.5864762 48.57,36.68 C48.57,37.7735238 49.4564762,38.66 50.55,38.66 L50.59,38.66 C50.8537655,37.3828663 50.9977235,36.0838967 51.02,34.78 C50.8676315,34.7323699 50.7095461,34.7054617 50.55,34.7 Z M34.7,33.71 C34.6977874,34.8005366 35.5794662,35.6866909 36.67,35.69 C36.8360137,35.6837049 37.0006047,35.6568329 37.16,35.61 L37.16,31.81 C37.0006124,31.7631334 36.8360172,31.7362607 36.67,31.73 C35.5794662,31.7333091 34.6977874,32.6194634 34.7,33.71 L34.7,33.71 Z M36.67,31.73 C35.5764762,31.73 34.69,32.6164762 34.69,33.71 C34.69,34.8035238 35.5764762,35.69 36.67,35.69 C36.8360137,35.6837049 37.0006047,35.6568329 37.16,35.61 L37.16,31.81 C37.0006124,31.7631334 36.8360172,31.7362607 36.67,31.73 L36.67,31.73 Z M36.67,31.73 C35.5764762,31.73 34.69,32.6164762 34.69,33.71 C34.69,34.8035238 35.5764762,35.69 36.67,35.69 C36.8360137,35.6837049 37.0006047,35.6568329 37.16,35.61 L37.16,31.81 C37.0006124,31.7631334 36.8360172,31.7362607 36.67,31.73 L36.67,31.73 Z M36.67,31.73 C35.5764762,31.73 34.69,32.6164762 34.69,33.71 C34.69,34.8035238 35.5764762,35.69 36.67,35.69 C36.8360137,35.6837049 37.0006047,35.6568329 37.16,35.61 L37.16,31.81 C37.0006124,31.7631334 36.8360172,31.7362607 36.67,31.73 L36.67,31.73 Z M36.67,31.73 C35.5764762,31.73 34.69,32.6164762 34.69,33.71 C34.69,34.8035238 35.5764762,35.69 36.67,35.69 C36.8360137,35.6837049 37.0006047,35.6568329 37.16,35.61 L37.16,31.81 C37.0006124,31.7631334 36.8360172,31.7362607 36.67,31.73 L36.67,31.73 Z M36.67,31.73 C35.5764762,31.73 34.69,32.6164762 34.69,33.71 C34.69,34.8035238 35.5764762,35.69 36.67,35.69 C36.8360137,35.6837049 37.0006047,35.6568329 37.16,35.61 L37.16,31.81 C37.0006124,31.7631334 36.8360172,31.7362607 36.67,31.73 L36.67,31.73 Z M15.85,37.68 C15.3073178,37.6827893 14.8691253,38.1240027 14.8700642,38.6666912 C14.8710032,39.2093797 15.3107198,39.6490741 15.8534083,39.6499856 C16.3960969,39.6508971 16.8372881,39.2126823 16.84005,38.67 C16.8388072,38.1237342 16.3962658,37.6812153 15.85,37.68 L15.85,37.68 Z M36.67,31.73 C35.5764762,31.73 34.69,32.6164762 34.69,33.71 C34.69,34.8035238 35.5764762,35.69 36.67,35.69 C36.8360137,35.6837049 37.0006047,35.6568329 37.16,35.61 L37.16,31.81 C37.0006124,31.7631334 36.8360172,31.7362607 36.67,31.73 Z M18.83,30.74 C18.4307019,30.7379782 18.0696887,30.9772215 17.9159485,31.3457415 C17.7622083,31.7142615 17.8461624,32.1391375 18.1285124,32.4214876 C18.4108625,32.7038376 18.8357385,32.7877917 19.2042585,32.6340515 C19.5727785,32.4803113 19.8120218,32.1192981 19.81,31.72 C19.8079385,31.1796171 19.3703829,30.7420615 18.83,30.74 L18.83,30.74 Z M15.85,37.68 C15.3073178,37.6827893 14.8691253,38.1240027 14.8700642,38.6666912 C14.8710032,39.2093797 15.3107198,39.6490741 15.8534083,39.6499856 C16.3960969,39.6508971 16.8372881,39.2126823 16.84005,38.67 C16.8388072,38.1237342 16.3962658,37.6812153 15.85,37.68 L15.85,37.68 Z M15.85,37.68 C15.3073178,37.6827893 14.8691253,38.1240027 14.8700642,38.6666912 C14.8710032,39.2093797 15.3107198,39.6490741 15.8534083,39.6499856 C16.3960969,39.6508971 16.8372881,39.2126823 16.84005,38.67 C16.8388072,38.1237342 16.3962658,37.6812153 15.85,37.68 L15.85,37.68 Z M21.8,43.63 C20.7105443,43.6327616 19.8290865,44.5172036 19.8300071,45.6066624 C19.8309276,46.6961213 20.7138787,47.5790724 21.8033376,47.5799929 C22.8927964,47.5809135 23.7772384,46.6994557 23.78,45.61 C23.7804995,45.0847184 23.5720533,44.5808074 23.200623,44.209377 C22.8291926,43.8379467 22.3252816,43.6295005 21.8,43.63 L21.8,43.63 Z M13.87,44.62 C13.3273112,44.6227618 12.8890936,45.0639631 12.8900142,45.6066582 C12.8909348,46.1493533 13.3306467,46.5890652 13.8733418,46.5899858 C14.4160369,46.5909064 14.8572382,46.1526888 14.86,45.61 C14.8610983,45.3471005 14.7571477,45.0946515 14.5712481,44.9087519 C14.3853485,44.7228523 14.1328995,44.6189017 13.87,44.62 L13.87,44.62 Z M21.8,43.63 C20.7105443,43.6327616 19.8290865,44.5172036 19.8300071,45.6066624 C19.8309276,46.6961213 20.7138787,47.5790724 21.8033376,47.5799929 C22.8927964,47.5809135 23.7772384,46.6994557 23.78,45.61 C23.7804995,45.0847184 23.5720533,44.5808074 23.200623,44.209377 C22.8291926,43.8379467 22.3252816,43.6295005 21.8,43.63 L21.8,43.63 Z M18.83,30.74 C18.4307019,30.7379782 18.0696887,30.9772215 17.9159485,31.3457415 C17.7622083,31.7142615 17.8461624,32.1391375 18.1285124,32.4214876 C18.4108625,32.7038376 18.8357385,32.7877917 19.2042585,32.6340515 C19.5727785,32.4803113 19.8120218,32.1192981 19.81,31.72 C19.8079385,31.1796171 19.3703829,30.7420615 18.83,30.74 L18.83,30.74 Z M36.67,31.73 C35.5764762,31.73 34.69,32.6164762 34.69,33.71 C34.69,34.8035238 35.5764762,35.69 36.67,35.69 C36.8360137,35.6837049 37.0006047,35.6568329 37.16,35.61 L37.16,31.81 C37.0006124,31.7631334 36.8360172,31.7362607 36.67,31.73 Z M21.8,43.63 C20.7105443,43.6327616 19.8290865,44.5172036 19.8300071,45.6066624 C19.8309276,46.6961213 20.7138787,47.5790724 21.8033376,47.5799929 C22.8927964,47.5809135 23.7772384,46.6994557 23.78,45.61 C23.7804995,45.0847184 23.5720533,44.5808074 23.200623,44.209377 C22.8291926,43.8379467 22.3252816,43.6295005 21.8,43.63 L21.8,43.63 Z M18.83,30.74 C18.4307019,30.7379782 18.0696887,30.9772215 17.9159485,31.3457415 C17.7622083,31.7142615 17.8461624,32.1391375 18.1285124,32.4214876 C18.4108625,32.7038376 18.8357385,32.7877917 19.2042585,32.6340515 C19.5727785,32.4803113 19.8120218,32.1192981 19.81,31.72 C19.8079385,31.1796171 19.3703829,30.7420615 18.83,30.74 L18.83,30.74 Z M15.85,37.68 C15.3073178,37.6827893 14.8691253,38.1240027 14.8700642,38.6666912 C14.8710032,39.2093797 15.3107198,39.6490741 15.8534083,39.6499856 C16.3960969,39.6508971 16.8372881,39.2126823 16.84005,38.67 C16.8388072,38.1237342 16.3962658,37.6812153 15.85,37.68 L15.85,37.68 Z M13.87,44.62 C13.3273112,44.6227618 12.8890936,45.0639631 12.8900142,45.6066582 C12.8909348,46.1493533 13.3306467,46.5890652 13.8733418,46.5899858 C14.4160369,46.5909064 14.8572382,46.1526888 14.86,45.61 C14.8610983,45.3471005 14.7571477,45.0946515 14.5712481,44.9087519 C14.3853485,44.7228523 14.1328995,44.6189017 13.87,44.62 L13.87,44.62 Z M21.8,43.63 C20.7105443,43.6327616 19.8290865,44.5172036 19.8300071,45.6066624 C19.8309276,46.6961213 20.7138787,47.5790724 21.8033376,47.5799929 C22.8927964,47.5809135 23.7772384,46.6994557 23.78,45.61 C23.7804995,45.0847184 23.5720533,44.5808074 23.200623,44.209377 C22.8291926,43.8379467 22.3252816,43.6295005 21.8,43.63 L21.8,43.63 Z M27.75,51.56 C27.2073112,51.5627618 26.7690936,52.0039631 26.7700142,52.5466582 C26.7709348,53.0893533 27.2106467,53.5290652 27.7533418,53.5299858 C28.2960369,53.5309064 28.7372382,53.0926888 28.74,52.55 C28.7387573,52.0037537 28.2962463,51.5612427 27.75,51.56 L27.75,51.56 Z M21.8,43.63 C20.7105443,43.6327616 19.8290865,44.5172036 19.8300071,45.6066624 C19.8309276,46.6961213 20.7138787,47.5790724 21.8033376,47.5799929 C22.8927964,47.5809135 23.7772384,46.6994557 23.78,45.61 C23.7804995,45.0847184 23.5720533,44.5808074 23.200623,44.209377 C22.8291926,43.8379467 22.3252816,43.6295005 21.8,43.63 L21.8,43.63 Z M15.85,37.68 C15.3073178,37.6827893 14.8691253,38.1240027 14.8700642,38.6666912 C14.8710032,39.2093797 15.3107198,39.6490741 15.8534083,39.6499856 C16.3960969,39.6508971 16.8372881,39.2126823 16.84005,38.67 C16.8388072,38.1237342 16.3962658,37.6812153 15.85,37.68 L15.85,37.68 Z M21.8,43.63 C20.7105443,43.6327616 19.8290865,44.5172036 19.8300071,45.6066624 C19.8309276,46.6961213 20.7138787,47.5790724 21.8033376,47.5799929 C22.8927964,47.5809135 23.7772384,46.6994557 23.78,45.61 C23.7804995,45.0847184 23.5720533,44.5808074 23.200623,44.209377 C22.8291926,43.8379467 22.3252816,43.6295005 21.8,43.63 L21.8,43.63 Z M13.87,44.62 C13.3273112,44.6227618 12.8890936,45.0639631 12.8900142,45.6066582 C12.8909348,46.1493533 13.3306467,46.5890652 13.8733418,46.5899858 C14.4160369,46.5909064 14.8572382,46.1526888 14.86,45.61 C14.8610983,45.3471005 14.7571477,45.0946515 14.5712481,44.9087519 C14.3853485,44.7228523 14.1328995,44.6189017 13.87,44.62 L13.87,44.62 Z M18.83,30.74 C18.4307019,30.7379782 18.0696887,30.9772215 17.9159485,31.3457415 C17.7622083,31.7142615 17.8461624,32.1391375 18.1285124,32.4214876 C18.4108625,32.7038376 18.8357385,32.7877917 19.2042585,32.6340515 C19.5727785,32.4803113 19.8120218,32.1192981 19.81,31.72 C19.8079385,31.1796171 19.3703829,30.7420615 18.83,30.74 L18.83,30.74 Z M36.67,31.73 C35.5764762,31.73 34.69,32.6164762 34.69,33.71 C34.69,34.8035238 35.5764762,35.69 36.67,35.69 C36.8360137,35.6837049 37.0006047,35.6568329 37.16,35.61 L37.16,31.81 C37.0006124,31.7631334 36.8360172,31.7362607 36.67,31.73 L36.67,31.73 Z M27.75,51.56 C27.2073112,51.5627618 26.7690936,52.0039631 26.7700142,52.5466582 C26.7709348,53.0893533 27.2106467,53.5290652 27.7533418,53.5299858 C28.2960369,53.5309064 28.7372382,53.0926888 28.74,52.55 C28.7387573,52.0037537 28.2962463,51.5612427 27.75,51.56 L27.75,51.56 Z M21.8,43.63 C20.7105443,43.6327616 19.8290865,44.5172036 19.8300071,45.6066624 C19.8309276,46.6961213 20.7138787,47.5790724 21.8033376,47.5799929 C22.8927964,47.5809135 23.7772384,46.6994557 23.78,45.61 C23.7804995,45.0847184 23.5720533,44.5808074 23.200623,44.209377 C22.8291926,43.8379467 22.3252816,43.6295005 21.8,43.63 L21.8,43.63 Z M18.83,30.74 C18.4307019,30.7379782 18.0696887,30.9772215 17.9159485,31.3457415 C17.7622083,31.7142615 17.8461624,32.1391375 18.1285124,32.4214876 C18.4108625,32.7038376 18.8357385,32.7877917 19.2042585,32.6340515 C19.5727785,32.4803113 19.8120218,32.1192981 19.81,31.72 C19.8079385,31.1796171 19.3703829,30.7420615 18.83,30.74 L18.83,30.74 Z M15.85,37.68 C15.3073178,37.6827893 14.8691253,38.1240027 14.8700642,38.6666912 C14.8710032,39.2093797 15.3107198,39.6490741 15.8534083,39.6499856 C16.3960969,39.6508971 16.8372881,39.2126823 16.84005,38.67 C16.8388072,38.1237342 16.3962658,37.6812153 15.85,37.68 L15.85,37.68 Z M13.87,44.62 C13.3273112,44.6227618 12.8890936,45.0639631 12.8900142,45.6066582 C12.8909348,46.1493533 13.3306467,46.5890652 13.8733418,46.5899858 C14.4160369,46.5909064 14.8572382,46.1526888 14.86,45.61 C14.8610983,45.3471005 14.7571477,45.0946515 14.5712481,44.9087519 C14.3853485,44.7228523 14.1328995,44.6189017 13.87,44.62 L13.87,44.62 Z M37.67,49.58 C37.2707019,49.5779782 36.9096887,49.8172215 36.7559485,50.1857415 C36.6022083,50.5542615 36.6861624,50.9791375 36.9685124,51.2614876 C37.2508625,51.5438376 37.6757385,51.6277917 38.0442585,51.4740515 C38.4127785,51.3203113 38.6520218,50.9592981 38.65,50.56 C38.6479277,50.0196217 38.2103783,49.5820723 37.67,49.58 L37.67,49.58 Z M27.75,51.56 C27.2073112,51.5627618 26.7690936,52.0039631 26.7700142,52.5466582 C26.7709348,53.0893533 27.2106467,53.5290652 27.7533418,53.5299858 C28.2960369,53.5309064 28.7372382,53.0926888 28.74,52.55 C28.7387573,52.0037537 28.2962463,51.5612427 27.75,51.56 L27.75,51.56 Z M21.8,43.63 C20.7105443,43.6327616 19.8290865,44.5172036 19.8300071,45.6066624 C19.8309276,46.6961213 20.7138787,47.5790724 21.8033376,47.5799929 C22.8927964,47.5809135 23.7772384,46.6994557 23.78,45.61 C23.7804995,45.0847184 23.5720533,44.5808074 23.200623,44.209377 C22.8291926,43.8379467 22.3252816,43.6295005 21.8,43.63 L21.8,43.63 Z M15.85,37.68 C15.3073178,37.6827893 14.8691253,38.1240027 14.8700642,38.6666912 C14.8710032,39.2093797 15.3107198,39.6490741 15.8534083,39.6499856 C16.3960969,39.6508971 16.8372881,39.2126823 16.84005,38.67 C16.8388072,38.1237342 16.3962658,37.6812153 15.85,37.68 L15.85,37.68 Z M21.8,43.63 C20.7105443,43.6327616 19.8290865,44.5172036 19.8300071,45.6066624 C19.8309276,46.6961213 20.7138787,47.5790724 21.8033376,47.5799929 C22.8927964,47.5809135 23.7772384,46.6994557 23.78,45.61 C23.7804995,45.0847184 23.5720533,44.5808074 23.200623,44.209377 C22.8291926,43.8379467 22.3252816,43.6295005 21.8,43.63 L21.8,43.63 Z M13.87,44.62 C13.3273112,44.6227618 12.8890936,45.0639631 12.8900142,45.6066582 C12.8909348,46.1493533 13.3306467,46.5890652 13.8733418,46.5899858 C14.4160369,46.5909064 14.8572382,46.1526888 14.86,45.61 C14.8610983,45.3471005 14.7571477,45.0946515 14.5712481,44.9087519 C14.3853485,44.7228523 14.1328995,44.6189017 13.87,44.62 L13.87,44.62 Z M18.83,30.74 C18.4307019,30.7379782 18.0696887,30.9772215 17.9159485,31.3457415 C17.7622083,31.7142615 17.8461624,32.1391375 18.1285124,32.4214876 C18.4108625,32.7038376 18.8357385,32.7877917 19.2042585,32.6340515 C19.5727785,32.4803113 19.8120218,32.1192981 19.81,31.72 C19.8079385,31.1796171 19.3703829,30.7420615 18.83,30.74 L18.83,30.74 Z M37.67,49.58 C37.2707019,49.5779782 36.9096887,49.8172215 36.7559485,50.1857415 C36.6022083,50.5542615 36.6861624,50.9791375 36.9685124,51.2614876 C37.2508625,51.5438376 37.6757385,51.6277917 38.0442585,51.4740515 C38.4127785,51.3203113 38.6520218,50.9592981 38.65,50.56 C38.6479277,50.0196217 38.2103783,49.5820723 37.67,49.58 L37.67,49.58 Z M34.7,33.71 C34.6977874,34.8005366 35.5794662,35.6866909 36.67,35.69 C36.8360137,35.6837049 37.0006047,35.6568329 37.16,35.61 L37.16,31.81 C37.0006124,31.7631334 36.8360172,31.7362607 36.67,31.73 C35.5794662,31.7333091 34.6977874,32.6194634 34.7,33.71 L34.7,33.71 Z M31.72,43.63 C30.6305443,43.6327616 29.7490865,44.5172036 29.7500071,45.6066624 C29.7509276,46.6961213 30.6338787,47.5790724 31.7233376,47.5799929 C32.8127964,47.5809135 33.6972384,46.6994557 33.7,45.61 C33.7021993,45.0842002 33.494299,44.5793007 33.1224992,44.2075008 C32.7506993,43.835701 32.2457998,43.6278007 31.72,43.63 L31.72,43.63 Z M27.75,51.56 C27.2073112,51.5627618 26.7690936,52.0039631 26.7700142,52.5466582 C26.7709348,53.0893533 27.2106467,53.5290652 27.7533418,53.5299858 C28.2960369,53.5309064 28.7372382,53.0926888 28.74,52.55 C28.7387573,52.0037537 28.2962463,51.5612427 27.75,51.56 L27.75,51.56 Z M21.8,43.63 C20.7105443,43.6327616 19.8290865,44.5172036 19.8300071,45.6066624 C19.8309276,46.6961213 20.7138787,47.5790724 21.8033376,47.5799929 C22.8927964,47.5809135 23.7772384,46.6994557 23.78,45.61 C23.7804995,45.0847184 23.5720533,44.5808074 23.200623,44.209377 C22.8291926,43.8379467 22.3252816,43.6295005 21.8,43.63 L21.8,43.63 Z M18.83,32.71 C19.3726888,32.7072382 19.8109064,32.2660369 19.8099858,31.7233418 C19.8090652,31.1806467 19.3693533,30.7409348 18.8266582,30.7400142 C18.2839631,30.7390936 17.8427618,31.1773112 17.84,31.72 C17.838326,31.983074 17.9420916,32.2358581 18.1281167,32.4218833 C18.3141419,32.6079084 18.566926,32.711674 18.83,32.71 L18.83,32.71 Z M15.85,37.68 C15.3073178,37.6827893 14.8691253,38.1240027 14.8700642,38.6666912 C14.8710032,39.2093797 15.3107198,39.6490741 15.8534083,39.6499856 C16.3960969,39.6508971 16.8372881,39.2126823 16.84005,38.67 C16.8388072,38.1237342 16.3962658,37.6812153 15.85,37.68 L15.85,37.68 Z M13.87,44.62 C13.3273112,44.6227618 12.8890936,45.0639631 12.8900142,45.6066582 C12.8909348,46.1493533 13.3306467,46.5890652 13.8733418,46.5899858 C14.4160369,46.5909064 14.8572382,46.1526888 14.86,45.61 C14.8610983,45.3471005 14.7571477,45.0946515 14.5712481,44.9087519 C14.3853485,44.7228523 14.1328995,44.6189017 13.87,44.62 L13.87,44.62 Z M50.55,33.7 C50.7106952,33.7029669 50.8710302,33.7163281 51.03,33.74 C51.0079208,32.5695762 50.8942401,31.4026774 50.69,30.25 L48.57,30.25 C47.9148266,30.2497107 47.2864043,30.5098492 46.8231268,30.9731268 C46.3598492,31.4364043 46.0997107,32.0648266 46.1,32.72 L46.1,41.64 C46.0891892,44.104221 44.094221,46.0991892 41.63,46.11 C39.1638461,46.103833 37.166167,44.1061539 37.16,41.64 L37.16,36.65 C36.9976761,36.6736747 36.8340145,36.6870348 36.67,36.69 C35.0241914,36.69 33.69,35.3558086 33.69,33.71 C33.69,32.0641914 35.0241914,30.73 36.67,30.73 C36.8342239,30.7280069 36.9982736,30.7413987 37.16,30.77 L37.16,26.77 C37.16129,26.1172613 36.9021373,25.4909757 36.44,25.03 C35.9803284,24.5586375 35.3483736,24.295022 34.69,24.3 C34.0348266,24.2997107 33.4064043,24.5598492 32.9431268,25.0231268 C32.4798492,25.4864043 32.2197107,26.1148266 32.22,26.77 L32.22,37.18 C32.22,39.9220938 29.9970938,42.145 27.255,42.145 C24.5129062,42.145 22.29,39.9220938 22.29,37.18 L22.29,28.25 C22.29,26.6124757 20.9625243,25.285 19.325,25.285 C17.6874757,25.285 16.36,26.6124757 16.36,28.25 L16.36,29.25 C16.36,31.9948552 14.1348552,34.22 11.39,34.22 C8.64514479,34.22 6.42,31.9948552 6.42,29.25 L6.42,27.64 C5.78213408,29.7684755 5.45541977,31.9780073 5.45,34.2 C5.45682622,35.1263425 5.52027791,36.0514013 5.64,36.97 C6.0424038,36.7766419 6.48355878,36.6774675 6.93,36.68 C8.54514997,36.6755871 9.8680984,37.9620286 9.90887217,39.5766699 C9.94964594,41.1913112 8.69331408,42.542886 7.08,42.62 C10.7328188,51.8338432 19.9256539,57.626946 29.8137613,56.9462678 C39.7018688,56.2655896 48.0141805,49.2674663 50.37,39.64 C48.7673015,39.5413219 47.5326076,38.1877616 47.5812438,36.582765 C47.6298801,34.9777683 48.9442672,33.7014529 50.55,33.7 Z M18.83,29.74 C19.9262801,29.7427649 20.81275,30.6337157 20.8099874,31.7299958 C20.8072248,32.8262759 19.9162759,33.7127476 18.8199958,33.7099874 C17.7237157,33.7072271 16.8372421,32.8162801 16.84,31.72 C16.8412025,31.193507 17.051568,30.6890693 17.4247923,30.3177205 C17.7980166,29.9463717 18.3035077,29.7385501 18.83,29.74 Z M13.87,47.59 C12.7737199,47.5872351 11.88725,46.6962843 11.8900126,45.6000042 C11.8927752,44.5037241 12.7837241,43.6172524 13.8800042,43.6200126 C14.9762843,43.6227729 15.8627579,44.5137199 15.86,45.61 C15.8563332,46.7059073 14.9659119,47.5918541 13.87,47.59 Z M15.85,40.65 C14.7537199,40.6472351 13.86725,39.7562843 13.8700126,38.6600042 C13.8727752,37.5637241 14.7637241,36.6772524 15.8600042,36.6800126 C16.9562843,36.6827729 17.8427579,37.5737199 17.84,38.67 C17.8328132,39.7644339 16.9444562,40.6483268 15.85,40.65 L15.85,40.65 Z M21.8,48.58 C20.1569563,48.5772363 18.8272462,47.2430465 18.8300084,45.6000028 C18.8327706,43.9569591 20.1669591,42.6272478 21.8100028,42.6300084 C23.4530465,42.6327691 24.7827591,43.9669563 24.78,45.61 C24.7751158,47.2521629 23.44217,48.5806357 21.8,48.58 L21.8,48.58 Z M27.75,54.53 C26.6537199,54.5272351 25.76725,53.6362843 25.7700126,52.5400042 C25.7727752,51.4437241 26.6637241,50.5572524 27.7600042,50.5600126 C28.8562843,50.5627729 29.7427579,51.4537199 29.74,52.55 C29.7363387,53.6459096 28.8459141,54.5318596 27.75,54.53 L27.75,54.53 Z M31.72,48.58 C30.0769563,48.5772363 28.7472462,47.2430465 28.7500084,45.6000028 C28.7527706,43.9569591 30.0869591,42.6272478 31.7300028,42.6300084 C33.3730465,42.6327691 34.7027591,43.9669563 34.7,45.61 C34.6993414,46.3992247 34.3848468,47.1557893 33.8258434,47.7129169 C33.2668399,48.2700445 32.5092225,48.5819943 31.72,48.58 L31.72,48.58 Z M37.67,52.55 C36.5737199,52.5527579 35.6827729,51.6662843 35.6800126,50.5700042 C35.6772524,49.4737241 36.5637241,48.5827752 37.6600042,48.5800126 C38.7562843,48.57725 39.6472351,49.4637199 39.65,50.56 C39.6506717,51.6554246 38.7654141,52.5451532 37.67,52.55 L37.67,52.55 Z M13.87,44.62 C13.3273112,44.6227618 12.8890936,45.0639631 12.8900142,45.6066582 C12.8909348,46.1493533 13.3306467,46.5890652 13.8733418,46.5899858 C14.4160369,46.5909064 14.8572382,46.1526888 14.86,45.61 C14.8610983,45.3471005 14.7571477,45.0946515 14.5712481,44.9087519 C14.3853485,44.7228523 14.1328995,44.6189017 13.87,44.62 L13.87,44.62 Z M15.85,37.68 C15.3073178,37.6827893 14.8691253,38.1240027 14.8700642,38.6666912 C14.8710032,39.2093797 15.3107198,39.6490741 15.8534083,39.6499856 C16.3960969,39.6508971 16.8372881,39.2126823 16.84005,38.67 C16.8388072,38.1237342 16.3962658,37.6812153 15.85,37.68 L15.85,37.68 Z M18.83,30.74 C18.4307019,30.7379782 18.0696887,30.9772215 17.9159485,31.3457415 C17.7622083,31.7142615 17.8461624,32.1391375 18.1285124,32.4214876 C18.4108625,32.7038376 18.8357385,32.7877917 19.2042585,32.6340515 C19.5727785,32.4803113 19.8120218,32.1192981 19.81,31.72 C19.8079385,31.1796171 19.3703829,30.7420615 18.83,30.74 L18.83,30.74 Z M21.8,43.63 C20.7105443,43.6327616 19.8290865,44.5172036 19.8300071,45.6066624 C19.8309276,46.6961213 20.7138787,47.5790724 21.8033376,47.5799929 C22.8927964,47.5809135 23.7772384,46.6994557 23.78,45.61 C23.7804995,45.0847184 23.5720533,44.5808074 23.200623,44.209377 C22.8291926,43.8379467 22.3252816,43.6295005 21.8,43.63 L21.8,43.63 Z M27.75,51.56 C27.2073112,51.5627618 26.7690936,52.0039631 26.7700142,52.5466582 C26.7709348,53.0893533 27.2106467,53.5290652 27.7533418,53.5299858 C28.2960369,53.5309064 28.7372382,53.0926888 28.74,52.55 C28.7387573,52.0037537 28.2962463,51.5612427 27.75,51.56 L27.75,51.56 Z M36.67,31.73 C35.5764762,31.73 34.69,32.6164762 34.69,33.71 C34.69,34.8035238 35.5764762,35.69 36.67,35.69 C36.8360137,35.6837049 37.0006047,35.6568329 37.16,35.61 L37.16,31.81 C37.0006124,31.7631334 36.8360172,31.7362607 36.67,31.73 L36.67,31.73 Z M37.67,49.58 C37.2707019,49.5779782 36.9096887,49.8172215 36.7559485,50.1857415 C36.6022083,50.5542615 36.6861624,50.9791375 36.9685124,51.2614876 C37.2508625,51.5438376 37.6757385,51.6277917 38.0442585,51.4740515 C38.4127785,51.3203113 38.6520218,50.9592981 38.65,50.56 C38.6479277,50.0196217 38.2103783,49.5820723 37.67,49.58 Z M18.83,30.74 C18.4307019,30.7379782 18.0696887,30.9772215 17.9159485,31.3457415 C17.7622083,31.7142615 17.8461624,32.1391375 18.1285124,32.4214876 C18.4108625,32.7038376 18.8357385,32.7877917 19.2042585,32.6340515 C19.5727785,32.4803113 19.8120218,32.1192981 19.81,31.72 C19.8079385,31.1796171 19.3703829,30.7420615 18.83,30.74 L18.83,30.74 Z M13.87,44.62 C13.3273112,44.6227618 12.8890936,45.0639631 12.8900142,45.6066582 C12.8909348,46.1493533 13.3306467,46.5890652 13.8733418,46.5899858 C14.4160369,46.5909064 14.8572382,46.1526888 14.86,45.61 C14.8610983,45.3471005 14.7571477,45.0946515 14.5712481,44.9087519 C14.3853485,44.7228523 14.1328995,44.6189017 13.87,44.62 L13.87,44.62 Z M21.8,43.63 C20.7105443,43.6327616 19.8290865,44.5172036 19.8300071,45.6066624 C19.8309276,46.6961213 20.7138787,47.5790724 21.8033376,47.5799929 C22.8927964,47.5809135 23.7772384,46.6994557 23.78,45.61 C23.7804995,45.0847184 23.5720533,44.5808074 23.200623,44.209377 C22.8291926,43.8379467 22.3252816,43.6295005 21.8,43.63 L21.8,43.63 Z M15.85,37.68 C15.3073178,37.6827893 14.8691253,38.1240027 14.8700642,38.6666912 C14.8710032,39.2093797 15.3107198,39.6490741 15.8534083,39.6499856 C16.3960969,39.6508971 16.8372881,39.2126823 16.84005,38.67 C16.8388072,38.1237342 16.3962658,37.6812153 15.85,37.68 L15.85,37.68 Z M21.8,43.63 C20.7105443,43.6327616 19.8290865,44.5172036 19.8300071,45.6066624 C19.8309276,46.6961213 20.7138787,47.5790724 21.8033376,47.5799929 C22.8927964,47.5809135 23.7772384,46.6994557 23.78,45.61 C23.7804995,45.0847184 23.5720533,44.5808074 23.200623,44.209377 C22.8291926,43.8379467 22.3252816,43.6295005 21.8,43.63 L21.8,43.63 Z M27.75,51.56 C27.2073112,51.5627618 26.7690936,52.0039631 26.7700142,52.5466582 C26.7709348,53.0893533 27.2106467,53.5290652 27.7533418,53.5299858 C28.2960369,53.5309064 28.7372382,53.0926888 28.74,52.55 C28.7387573,52.0037537 28.2962463,51.5612427 27.75,51.56 L27.75,51.56 Z M13.87,44.62 C13.3273112,44.6227618 12.8890936,45.0639631 12.8900142,45.6066582 C12.8909348,46.1493533 13.3306467,46.5890652 13.8733418,46.5899858 C14.4160369,46.5909064 14.8572382,46.1526888 14.86,45.61 C14.8610983,45.3471005 14.7571477,45.0946515 14.5712481,44.9087519 C14.3853485,44.7228523 14.1328995,44.6189017 13.87,44.62 L13.87,44.62 Z M15.85,37.68 C15.3073178,37.6827893 14.8691253,38.1240027 14.8700642,38.6666912 C14.8710032,39.2093797 15.3107198,39.6490741 15.8534083,39.6499856 C16.3960969,39.6508971 16.8372881,39.2126823 16.84005,38.67 C16.8388072,38.1237342 16.3962658,37.6812153 15.85,37.68 L15.85,37.68 Z M18.83,30.74 C18.4307019,30.7379782 18.0696887,30.9772215 17.9159485,31.3457415 C17.7622083,31.7142615 17.8461624,32.1391375 18.1285124,32.4214876 C18.4108625,32.7038376 18.8357385,32.7877917 19.2042585,32.6340515 C19.5727785,32.4803113 19.8120218,32.1192981 19.81,31.72 C19.8079385,31.1796171 19.3703829,30.7420615 18.83,30.74 L18.83,30.74 Z M21.8,43.63 C20.7105443,43.6327616 19.8290865,44.5172036 19.8300071,45.6066624 C19.8309276,46.6961213 20.7138787,47.5790724 21.8033376,47.5799929 C22.8927964,47.5809135 23.7772384,46.6994557 23.78,45.61 C23.7804995,45.0847184 23.5720533,44.5808074 23.200623,44.209377 C22.8291926,43.8379467 22.3252816,43.6295005 21.8,43.63 L21.8,43.63 Z M27.75,51.56 C27.2073112,51.5627618 26.7690936,52.0039631 26.7700142,52.5466582 C26.7709348,53.0893533 27.2106467,53.5290652 27.7533418,53.5299858 C28.2960369,53.5309064 28.7372382,53.0926888 28.74,52.55 C28.7387573,52.0037537 28.2962463,51.5612427 27.75,51.56 L27.75,51.56 Z M36.67,31.73 C35.5764762,31.73 34.69,32.6164762 34.69,33.71 C34.69,34.8035238 35.5764762,35.69 36.67,35.69 C36.8360137,35.6837049 37.0006047,35.6568329 37.16,35.61 L37.16,31.81 C37.0006124,31.7631334 36.8360172,31.7362607 36.67,31.73 L36.67,31.73 Z M18.83,30.74 C18.4307019,30.7379782 18.0696887,30.9772215 17.9159485,31.3457415 C17.7622083,31.7142615 17.8461624,32.1391375 18.1285124,32.4214876 C18.4108625,32.7038376 18.8357385,32.7877917 19.2042585,32.6340515 C19.5727785,32.4803113 19.8120218,32.1192981 19.81,31.72 C19.8079385,31.1796171 19.3703829,30.7420615 18.83,30.74 L18.83,30.74 Z M13.87,44.62 C13.3273112,44.6227618 12.8890936,45.0639631 12.8900142,45.6066582 C12.8909348,46.1493533 13.3306467,46.5890652 13.8733418,46.5899858 C14.4160369,46.5909064 14.8572382,46.1526888 14.86,45.61 C14.8610983,45.3471005 14.7571477,45.0946515 14.5712481,44.9087519 C14.3853485,44.7228523 14.1328995,44.6189017 13.87,44.62 L13.87,44.62 Z M21.8,43.63 C20.7105443,43.6327616 19.8290865,44.5172036 19.8300071,45.6066624 C19.8309276,46.6961213 20.7138787,47.5790724 21.8033376,47.5799929 C22.8927964,47.5809135 23.7772384,46.6994557 23.78,45.61 C23.7804995,45.0847184 23.5720533,44.5808074 23.200623,44.209377 C22.8291926,43.8379467 22.3252816,43.6295005 21.8,43.63 L21.8,43.63 Z M15.85,37.68 C15.3073178,37.6827893 14.8691253,38.1240027 14.8700642,38.6666912 C14.8710032,39.2093797 15.3107198,39.6490741 15.8534083,39.6499856 C16.3960969,39.6508971 16.8372881,39.2126823 16.84005,38.67 C16.8388072,38.1237342 16.3962658,37.6812153 15.85,37.68 L15.85,37.68 Z M21.8,43.63 C20.7105443,43.6327616 19.8290865,44.5172036 19.8300071,45.6066624 C19.8309276,46.6961213 20.7138787,47.5790724 21.8033376,47.5799929 C22.8927964,47.5809135 23.7772384,46.6994557 23.78,45.61 C23.7804995,45.0847184 23.5720533,44.5808074 23.200623,44.209377 C22.8291926,43.8379467 22.3252816,43.6295005 21.8,43.63 L21.8,43.63 Z M21.8,43.63 C20.7105443,43.6327616 19.8290865,44.5172036 19.8300071,45.6066624 C19.8309276,46.6961213 20.7138787,47.5790724 21.8033376,47.5799929 C22.8927964,47.5809135 23.7772384,46.6994557 23.78,45.61 C23.7804995,45.0847184 23.5720533,44.5808074 23.200623,44.209377 C22.8291926,43.8379467 22.3252816,43.6295005 21.8,43.63 L21.8,43.63 Z M13.87,44.62 C13.3273112,44.6227618 12.8890936,45.0639631 12.8900142,45.6066582 C12.8909348,46.1493533 13.3306467,46.5890652 13.8733418,46.5899858 C14.4160369,46.5909064 14.8572382,46.1526888 14.86,45.61 C14.8610983,45.3471005 14.7571477,45.0946515 14.5712481,44.9087519 C14.3853485,44.7228523 14.1328995,44.6189017 13.87,44.62 L13.87,44.62 Z M21.8,43.63 C20.7105443,43.6327616 19.8290865,44.5172036 19.8300071,45.6066624 C19.8309276,46.6961213 20.7138787,47.5790724 21.8033376,47.5799929 C22.8927964,47.5809135 23.7772384,46.6994557 23.78,45.61 C23.7804995,45.0847184 23.5720533,44.5808074 23.200623,44.209377 C22.8291926,43.8379467 22.3252816,43.6295005 21.8,43.63 L21.8,43.63 Z M15.85,37.68 C15.3073178,37.6827893 14.8691253,38.1240027 14.8700642,38.6666912 C14.8710032,39.2093797 15.3107198,39.6490741 15.8534083,39.6499856 C16.3960969,39.6508971 16.8372881,39.2126823 16.84005,38.67 C16.8388072,38.1237342 16.3962658,37.6812153 15.85,37.68 L15.85,37.68 Z M18.83,30.74 C18.4307019,30.7379782 18.0696887,30.9772215 17.9159485,31.3457415 C17.7622083,31.7142615 17.8461624,32.1391375 18.1285124,32.4214876 C18.4108625,32.7038376 18.8357385,32.7877917 19.2042585,32.6340515 C19.5727785,32.4803113 19.8120218,32.1192981 19.81,31.72 C19.8079385,31.1796171 19.3703829,30.7420615 18.83,30.74 L18.83,30.74 Z M36.67,31.73 C35.5764762,31.73 34.69,32.6164762 34.69,33.71 C34.69,34.8035238 35.5764762,35.69 36.67,35.69 C36.8360137,35.6837049 37.0006047,35.6568329 37.16,35.61 L37.16,31.81 C37.0006124,31.7631334 36.8360172,31.7362607 36.67,31.73 L36.67,31.73 Z M18.83,30.74 C18.4307019,30.7379782 18.0696887,30.9772215 17.9159485,31.3457415 C17.7622083,31.7142615 17.8461624,32.1391375 18.1285124,32.4214876 C18.4108625,32.7038376 18.8357385,32.7877917 19.2042585,32.6340515 C19.5727785,32.4803113 19.8120218,32.1192981 19.81,31.72 C19.8079385,31.1796171 19.3703829,30.7420615 18.83,30.74 L18.83,30.74 Z M15.85,37.68 C15.3073178,37.6827893 14.8691253,38.1240027 14.8700642,38.6666912 C14.8710032,39.2093797 15.3107198,39.6490741 15.8534083,39.6499856 C16.3960969,39.6508971 16.8372881,39.2126823 16.84005,38.67 C16.8388072,38.1237342 16.3962658,37.6812153 15.85,37.68 L15.85,37.68 Z M15.85,37.68 C15.3073178,37.6827893 14.8691253,38.1240027 14.8700642,38.6666912 C14.8710032,39.2093797 15.3107198,39.6490741 15.8534083,39.6499856 C16.3960969,39.6508971 16.8372881,39.2126823 16.84005,38.67 C16.8388072,38.1237342 16.3962658,37.6812153 15.85,37.68 L15.85,37.68 Z M36.67,31.73 C35.5764762,31.73 34.69,32.6164762 34.69,33.71 C34.69,34.8035238 35.5764762,35.69 36.67,35.69 C36.8360137,35.6837049 37.0006047,35.6568329 37.16,35.61 L37.16,31.81 C37.0006124,31.7631334 36.8360172,31.7362607 36.67,31.73 L36.67,31.73 Z M15.85,37.68 C15.3073178,37.6827893 14.8691253,38.1240027 14.8700642,38.6666912 C14.8710032,39.2093797 15.3107198,39.6490741 15.8534083,39.6499856 C16.3960969,39.6508971 16.8372881,39.2126823 16.84005,38.67 C16.8388072,38.1237342 16.3962658,37.6812153 15.85,37.68 L15.85,37.68 Z M15.85,37.68 C15.3073178,37.6827893 14.8691253,38.1240027 14.8700642,38.6666912 C14.8710032,39.2093797 15.3107198,39.6490741 15.8534083,39.6499856 C16.3960969,39.6508971 16.8372881,39.2126823 16.84005,38.67 C16.8388072,38.1237342 16.3962658,37.6812153 15.85,37.68 L15.85,37.68 Z M15.85,37.68 C15.3073178,37.6827893 14.8691253,38.1240027 14.8700642,38.6666912 C14.8710032,39.2093797 15.3107198,39.6490741 15.8534083,39.6499856 C16.3960969,39.6508971 16.8372881,39.2126823 16.84005,38.67 C16.8388072,38.1237342 16.3962658,37.6812153 15.85,37.68 L15.85,37.68 Z M15.85,37.68 C15.3073178,37.6827893 14.8691253,38.1240027 14.8700642,38.6666912 C14.8710032,39.2093797 15.3107198,39.6490741 15.8534083,39.6499856 C16.3960969,39.6508971 16.8372881,39.2126823 16.84005,38.67 C16.8388072,38.1237342 16.3962658,37.6812153 15.85,37.68 L15.85,37.68 Z M15.85,37.68 C15.3073178,37.6827893 14.8691253,38.1240027 14.8700642,38.6666912 C14.8710032,39.2093797 15.3107198,39.6490741 15.8534083,39.6499856 C16.3960969,39.6508971 16.8372881,39.2126823 16.84005,38.67 C16.8388072,38.1237342 16.3962658,37.6812153 15.85,37.68 L15.85,37.68 Z M6.93,37.68 C6.51789266,37.6830998 6.11659889,37.8122117 5.78,38.05 C5.98154627,39.2613772 6.2894026,40.4526473 6.7,41.61 C7.42863744,41.6984886 8.14613642,41.3750178 8.56230644,40.7704144 C8.97847645,40.165811 9.02445887,39.3801114 8.68165622,38.7310898 C8.33885358,38.0820681 7.66398529,37.6771101 6.93,37.68 L6.93,37.68 Z M15.85,37.68 C15.3073178,37.6827893 14.8691253,38.1240027 14.8700642,38.6666912 C14.8710032,39.2093797 15.3107198,39.6490741 15.8534083,39.6499856 C16.3960969,39.6508971 16.8372881,39.2126823 16.84005,38.67 C16.8388072,38.1237342 16.3962658,37.6812153 15.85,37.68 L15.85,37.68 Z M15.85,37.68 C15.3073178,37.6827893 14.8691253,38.1240027 14.8700642,38.6666912 C14.8710032,39.2093797 15.3107198,39.6490741 15.8534083,39.6499856 C16.3960969,39.6508971 16.8372881,39.2126823 16.84005,38.67 C16.8388072,38.1237342 16.3962658,37.6812153 15.85,37.68 L15.85,37.68 Z M15.85,37.68 C15.3073178,37.6827893 14.8691253,38.1240027 14.8700642,38.6666912 C14.8710032,39.2093797 15.3107198,39.6490741 15.8534083,39.6499856 C16.3960969,39.6508971 16.8372881,39.2126823 16.84005,38.67 C16.8388072,38.1237342 16.3962658,37.6812153 15.85,37.68 L15.85,37.68 Z M15.85,37.68 C15.3073178,37.6827893 14.8691253,38.1240027 14.8700642,38.6666912 C14.8710032,39.2093797 15.3107198,39.6490741 15.8534083,39.6499856 C16.3960969,39.6508971 16.8372881,39.2126823 16.84005,38.67 C16.8388072,38.1237342 16.3962658,37.6812153 15.85,37.68 L15.85,37.68 Z M20.31,7.44 C19.2205443,7.44276162 18.3390865,8.32720362 18.3400071,9.41666244 C18.3409276,10.5061213 19.2238787,11.3890724 20.3133376,11.3899929 C21.4027964,11.3909135 22.2872384,10.5094557 22.29,9.42 C22.2910861,8.89453914 22.0828284,8.39028708 21.7112707,8.01872935 C21.3397129,7.64717161 20.8354609,7.43891387 20.31,7.44 Z M20.31,7.44 C19.2205443,7.44276162 18.3390865,8.32720362 18.3400071,9.41666244 C18.3409276,10.5061213 19.2238787,11.3890724 20.3133376,11.3899929 C21.4027964,11.3909135 22.2872384,10.5094557 22.29,9.42 C22.2910861,8.89453914 22.0828284,8.39028708 21.7112707,8.01872935 C21.3397129,7.64717161 20.8354609,7.43891387 20.31,7.44 Z M20.31,7.44 C19.2205443,7.44276162 18.3390865,8.32720362 18.3400071,9.41666244 C18.3409276,10.5061213 19.2238787,11.3890724 20.3133376,11.3899929 C21.4027964,11.3909135 22.2872384,10.5094557 22.29,9.42 C22.2910861,8.89453914 22.0828284,8.39028708 21.7112707,8.01872935 C21.3397129,7.64717161 20.8354609,7.43891387 20.31,7.44 Z M20.31,7.44 C19.2205443,7.44276162 18.3390865,8.32720362 18.3400071,9.41666244 C18.3409276,10.5061213 19.2238787,11.3890724 20.3133376,11.3899929 C21.4027964,11.3909135 22.2872384,10.5094557 22.29,9.42 C22.2910861,8.89453914 22.0828284,8.39028708 21.7112707,8.01872935 C21.3397129,7.64717161 20.8354609,7.43891387 20.31,7.44 Z M20.31,7.44 C19.2205443,7.44276162 18.3390865,8.32720362 18.3400071,9.41666244 C18.3409276,10.5061213 19.2238787,11.3890724 20.3133376,11.3899929 C21.4027964,11.3909135 22.2872384,10.5094557 22.29,9.42 C22.2910861,8.89453914 22.0828284,8.39028708 21.7112707,8.01872935 C21.3397129,7.64717161 20.8354609,7.43891387 20.31,7.44 Z M14.98,2.99 C13.7652422,3.85873289 12.2913436,4.28891383 10.8,4.21 C10.75,4.21 10.71,4.22 10.66,4.22 C8.50576286,4.19783074 6.56295343,2.91956377 5.69,0.95 C4.79442025,2.84566313 3.02763568,4.1828912 0.96,4.53 C2.66949918,5.74455794 3.68353072,7.71297211 3.68,9.81 C5.3541174,8.37991452 7.72220531,8.09227655 9.69,9.08 C11.0739208,9.6462941 12.2188656,10.6746242 12.93,11.99 C13.72383,10.8078925 14.966817,10.002119 16.37,9.76 C16.36,9.65 16.34,9.53 16.34,9.42 C16.3365717,8.39648354 16.7351745,7.41254502 17.45,6.68 C16.0921503,5.9069181 15.1771744,4.54001087 14.98,2.99 L14.98,2.99 Z M20.31,7.44 C19.2205443,7.44276162 18.3390865,8.32720362 18.3400071,9.41666244 C18.3409276,10.5061213 19.2238787,11.3890724 20.3133376,11.3899929 C21.4027964,11.3909135 22.2872384,10.5094557 22.29,9.42 C22.2910861,8.89453914 22.0828284,8.39028708 21.7112707,8.01872935 C21.3397129,7.64717161 20.8354609,7.43891387 20.31,7.44 L20.31,7.44 Z M20.31,7.44 C19.2205443,7.44276162 18.3390865,8.32720362 18.3400071,9.41666244 C18.3409276,10.5061213 19.2238787,11.3890724 20.3133376,11.3899929 C21.4027964,11.3909135 22.2872384,10.5094557 22.29,9.42 C22.2910861,8.89453914 22.0828284,8.39028708 21.7112707,8.01872935 C21.3397129,7.64717161 20.8354609,7.43891387 20.31,7.44 L20.31,7.44 Z M20.31,7.44 C19.2205443,7.44276162 18.3390865,8.32720362 18.3400071,9.41666244 C18.3409276,10.5061213 19.2238787,11.3890724 20.3133376,11.3899929 C21.4027964,11.3909135 22.2872384,10.5094557 22.29,9.42 C22.2910861,8.89453914 22.0828284,8.39028708 21.7112707,8.01872935 C21.3397129,7.64717161 20.8354609,7.43891387 20.31,7.44 L20.31,7.44 Z M20.31,7.44 C19.2205443,7.44276162 18.3390865,8.32720362 18.3400071,9.41666244 C18.3409276,10.5061213 19.2238787,11.3890724 20.3133376,11.3899929 C21.4027964,11.3909135 22.2872384,10.5094557 22.29,9.42 C22.2910861,8.89453914 22.0828284,8.39028708 21.7112707,8.01872935 C21.3397129,7.64717161 20.8354609,7.43891387 20.31,7.44 L20.31,7.44 Z M20.31,7.44 C19.2205443,7.44276162 18.3390865,8.32720362 18.3400071,9.41666244 C18.3409276,10.5061213 19.2238787,11.3890724 20.3133376,11.3899929 C21.4027964,11.3909135 22.2872384,10.5094557 22.29,9.42 C22.2910861,8.89453914 22.0828284,8.39028708 21.7112707,8.01872935 C21.3397129,7.64717161 20.8354609,7.43891387 20.31,7.44 L20.31,7.44 Z M27.75,5.95 C27.2073112,5.95276183 26.7690936,6.39396309 26.7700142,6.93665817 C26.7709348,7.47935325 27.2106467,7.91906521 27.7533418,7.91998583 C28.2960369,7.92090644 28.7372382,7.48268883 28.74,6.94 C28.7387573,6.39375368 28.2962463,5.95124274 27.75,5.95 L27.75,5.95 Z M27.75,5.95 C27.2073112,5.95276183 26.7690936,6.39396309 26.7700142,6.93665817 C26.7709348,7.47935325 27.2106467,7.91906521 27.7533418,7.91998583 C28.2960369,7.92090644 28.7372382,7.48268883 28.74,6.94 C28.7387573,6.39375368 28.2962463,5.95124274 27.75,5.95 L27.75,5.95 Z M27.75,5.95 C27.2073112,5.95276183 26.7690936,6.39396309 26.7700142,6.93665817 C26.7709348,7.47935325 27.2106467,7.91906521 27.7533418,7.91998583 C28.2960369,7.92090644 28.7372382,7.48268883 28.74,6.94 C28.7387573,6.39375368 28.2962463,5.95124274 27.75,5.95 L27.75,5.95 Z M27.75,5.95 C27.2073112,5.95276183 26.7690936,6.39396309 26.7700142,6.93665817 C26.7709348,7.47935325 27.2106467,7.91906521 27.7533418,7.91998583 C28.2960369,7.92090644 28.7372382,7.48268883 28.74,6.94 C28.7387573,6.39375368 28.2962463,5.95124274 27.75,5.95 L27.75,5.95 Z M27.75,5.95 C27.2073112,5.95276183 26.7690936,6.39396309 26.7700142,6.93665817 C26.7709348,7.47935325 27.2106467,7.91906521 27.7533418,7.91998583 C28.2960369,7.92090644 28.7372382,7.48268883 28.74,6.94 C28.7387573,6.39375368 28.2962463,5.95124274 27.75,5.95 L27.75,5.95 Z M27.75,5.95 C27.2073112,5.95276183 26.7690936,6.39396309 26.7700142,6.93665817 C26.7709348,7.47935325 27.2106467,7.91906521 27.7533418,7.91998583 C28.2960369,7.92090644 28.7372382,7.48268883 28.74,6.94 C28.7387573,6.39375368 28.2962463,5.95124274 27.75,5.95 L27.75,5.95 Z M27.75,5.95 C27.2073112,5.95276183 26.7690936,6.39396309 26.7700142,6.93665817 C26.7709348,7.47935325 27.2106467,7.91906521 27.7533418,7.91998583 C28.2960369,7.92090644 28.7372382,7.48268883 28.74,6.94 C28.7387573,6.39375368 28.2962463,5.95124274 27.75,5.95 L27.75,5.95 Z M27.75,5.95 C27.2073112,5.95276183 26.7690936,6.39396309 26.7700142,6.93665817 C26.7709348,7.47935325 27.2106467,7.91906521 27.7533418,7.91998583 C28.2960369,7.92090644 28.7372382,7.48268883 28.74,6.94 C28.7387573,6.39375368 28.2962463,5.95124274 27.75,5.95 L27.75,5.95 Z M27.75,5.95 C27.2073112,5.95276183 26.7690936,6.39396309 26.7700142,6.93665817 C26.7709348,7.47935325 27.2106467,7.91906521 27.7533418,7.91998583 C28.2960369,7.92090644 28.7372382,7.48268883 28.74,6.94 C28.7387573,6.39375368 28.2962463,5.95124274 27.75,5.95 L27.75,5.95 Z M28.25,3.47 C26.6474257,3.46595308 25.2003998,4.42820604 24.584315,5.90763169 C23.9682301,7.38705733 24.3045581,9.09196152 25.4363194,10.226588 C26.5680806,11.3612145 28.272129,11.7018521 29.7531076,11.0895099 C31.2340863,10.4771677 32.1999949,9.0325794 32.2,7.43 C32.1985461,5.24745601 30.4325333,3.47697236 28.25,3.47 L28.25,3.47 Z M27.75,8.92 C26.6537199,8.91723511 25.76725,8.02628434 25.7700126,6.93000423 C25.7727752,5.83372412 26.6637241,4.94725235 27.7600042,4.9500126 C28.8562843,4.95277286 29.7427579,5.84371988 29.74,6.94 C29.7363167,8.03590041 28.8459051,8.92183759 27.75,8.92 L27.75,8.92 Z M27.75,5.95 C27.2073112,5.95276183 26.7690936,6.39396309 26.7700142,6.93665817 C26.7709348,7.47935325 27.2106467,7.91906521 27.7533418,7.91998583 C28.2960369,7.92090644 28.7372382,7.48268883 28.74,6.94 C28.7387573,6.39375368 28.2962463,5.95124274 27.75,5.95 L27.75,5.95 Z M27.75,5.95 C27.2073112,5.95276183 26.7690936,6.39396309 26.7700142,6.93665817 C26.7709348,7.47935325 27.2106467,7.91906521 27.7533418,7.91998583 C28.2960369,7.92090644 28.7372382,7.48268883 28.74,6.94 C28.7387573,6.39375368 28.2962463,5.95124274 27.75,5.95 L27.75,5.95 Z M27.75,5.95 C27.2073112,5.95276183 26.7690936,6.39396309 26.7700142,6.93665817 C26.7709348,7.47935325 27.2106467,7.91906521 27.7533418,7.91998583 C28.2960369,7.92090644 28.7372382,7.48268883 28.74,6.94 C28.7387573,6.39375368 28.2962463,5.95124274 27.75,5.95 L27.75,5.95 Z M27.75,5.95 C27.2073112,5.95276183 26.7690936,6.39396309 26.7700142,6.93665817 C26.7709348,7.47935325 27.2106467,7.91906521 27.7533418,7.91998583 C28.2960369,7.92090644 28.7372382,7.48268883 28.74,6.94 C28.7387573,6.39375368 28.2962463,5.95124274 27.75,5.95 L27.75,5.95 Z M27.75,5.95 C27.2073112,5.95276183 26.7690936,6.39396309 26.7700142,6.93665817 C26.7709348,7.47935325 27.2106467,7.91906521 27.7533418,7.91998583 C28.2960369,7.92090644 28.7372382,7.48268883 28.74,6.94 C28.7387573,6.39375368 28.2962463,5.95124274 27.75,5.95 L27.75,5.95 Z M27.75,5.95 C27.2073112,5.95276183 26.7690936,6.39396309 26.7700142,6.93665817 C26.7709348,7.47935325 27.2106467,7.91906521 27.7533418,7.91998583 C28.2960369,7.92090644 28.7372382,7.48268883 28.74,6.94 C28.7387573,6.39375368 28.2962463,5.95124274 27.75,5.95 L27.75,5.95 Z M27.75,5.95 C27.2073112,5.95276183 26.7690936,6.39396309 26.7700142,6.93665817 C26.7709348,7.47935325 27.2106467,7.91906521 27.7533418,7.91998583 C28.2960369,7.92090644 28.7372382,7.48268883 28.74,6.94 C28.7387573,6.39375368 28.2962463,5.95124274 27.75,5.95 L27.75,5.95 Z M27.75,5.95 C27.2073112,5.95276183 26.7690936,6.39396309 26.7700142,6.93665817 C26.7709348,7.47935325 27.2106467,7.91906521 27.7533418,7.91998583 C28.2960369,7.92090644 28.7372382,7.48268883 28.74,6.94 C28.7387573,6.39375368 28.2962463,5.95124274 27.75,5.95 L27.75,5.95 Z M36.18,7.44 C35.0892428,7.43724208 34.2027729,8.31923857 34.2000127,9.40999581 C34.1972524,10.5007531 35.079247,11.3872248 36.1700043,11.3899874 C37.2607615,11.3927499 38.1472351,10.5107572 38.15,9.42 C38.1475551,8.331386 37.2685877,7.44795682 36.18,7.44 L36.18,7.44 Z" id="Shape"/></g></g></svg>