<?xml version="1.0" ?><svg height="51px" version="1.1" viewBox="0 0 56 51" width="56px" xmlns="http://www.w3.org/2000/svg" xmlns:xlink="http://www.w3.org/1999/xlink"><title/><desc/><defs/><g fill="none" fill-rule="evenodd" id="Page-1" stroke="none" stroke-width="1"><g fill="#000000" fill-rule="nonzero" id="010---Heart" transform="translate(0.000000, -1.000000)"><path d="M50.43262,29.67969 C49.4564745,28.7900387 47.9634455,28.7900387 46.9873,29.67969 C45.6237287,30.9443591 43.5158713,30.9443591 42.1523,29.67969 C41.1765344,28.7900377 39.6837356,28.7900377 38.70797,29.67969 C37.3843082,30.9735789 35.2765785,30.9959598 33.92574,29.73047 C33.9022238,29.7143472 33.8800211,29.6963877 33.85934,29.67676 C32.8831895,28.7898708 31.3925689,28.7911399 30.41793,29.67969 C29.052483,30.9444995 26.9429742,30.9432222 25.57906,29.67676 C24.6177402,28.7513095 23.096423,28.7526044 22.13668,29.67969 C22.1160112,29.700165 22.0934506,29.7186373 22.0693,29.73486 C20.699684,30.947944 18.6331864,30.9240796 17.29195,29.67969 C16.3161844,28.7900377 14.8233856,28.7900377 13.84762,29.67969 C12.4840487,30.9443591 10.3761913,30.9443591 9.01262,29.67969 C8.05116856,28.7519464 6.52778144,28.7519464 5.56633,29.67969 C5.54663799,29.6993529 5.52504581,29.7170159 5.50187,29.73242 C5.17552043,30.0375733 4.79224467,30.2754365 4.37394,30.43242 C4.40178,30.48296 4.42494,30.5335 4.45304,30.58403 C4.91144342,31.446669 5.42030279,32.2815339 5.97697,33.08428 C7.25201818,32.559456 8.71690395,32.8406748 9.70697,33.80034 C10.6781571,34.7026922 12.1810929,34.7026922 13.15228,33.80034 C14.5158513,32.5356709 16.6237087,32.5356709 17.98728,33.80034 C18.9584724,34.7026886 20.4614076,34.7026886 21.4326,33.80034 C21.453378,33.7803996 21.475939,33.7624044 21.5,33.74658 C22.8504175,32.4836361 24.955658,32.5073046 26.27734,33.80029 C27.2470236,34.7024825 28.748512,34.7037605 29.71973,33.80322 C31.061469,32.5516633 33.1358871,32.5288043 34.50488,33.75049 C34.5275337,33.7656432 34.5487792,33.7828022 34.56836,33.80176 C35.5256917,34.7383641 37.0561681,34.7377109 38.0127,33.80029 C39.3762713,32.5356209 41.4841287,32.5356209 42.8477,33.80029 C43.8185114,34.7026387 45.3212186,34.7026387 46.29203,33.80029 C47.2971918,32.8737018 48.7427025,32.6013304 50.01615,33.09857 C50.5703608,32.2993983 51.0769376,31.4682241 51.53324,30.60938 C51.56706,30.54858 51.59501,30.48792 51.62834,30.42712 C51.2078548,30.2725032 50.8225631,30.0353025 50.49516,29.72949 C50.47295,29.7146782 50.4520291,29.6980192 50.43262,29.67969 Z" id="Shape"/><path d="M33.87109,16.51514 C33.5266203,16.5767277 33.2305412,16.7953577 33.07031,17.10645 C32.9739882,17.2518931 32.8111615,17.3393554 32.636715,17.3393554 C32.4622685,17.3393554 32.2994418,17.2518931 32.20312,17.10645 C32.0428937,16.7953536 31.7468122,16.5767219 31.40234,16.51514 C31.3423252,16.5050072 31.2815642,16.4999427 31.2207,16.5 C30.9925761,16.4954531 30.7702919,16.572313 30.5937,16.7168 C30.19331,17.06641 30.23628,17.87354 30.69819,18.68018 C31.1993332,19.4031388 31.863337,19.9982307 32.63667,20.41748 C33.406071,20.0012669 34.0672851,19.410621 34.56733,18.69287 C35.03706,17.87354 35.08003,17.06641 34.67964,16.7168 C34.4525257,16.5346877 34.1571249,16.461012 33.87109,16.51514 Z" id="Shape"/><path d="M24.59766,16.51514 C24.2531878,16.5767219 23.9571063,16.7953536 23.79688,17.10645 C23.7005582,17.2518931 23.5377315,17.3393554 23.363285,17.3393554 C23.1888385,17.3393554 23.0260118,17.2518931 22.92969,17.10645 C22.7694588,16.7953577 22.4733797,16.5767277 22.12891,16.51514 C22.0688951,16.505008 22.0081341,16.4999435 21.94727,16.5 C21.7191462,16.4954539 21.4968624,16.5723138 21.32027,16.7168 C20.91988,17.06641 20.96285,17.87354 21.42476,18.68018 C21.9259032,19.4031388 22.589907,19.9982307 23.36324,20.41748 C24.1326744,20.0012753 24.7939228,19.4106293 25.294,18.69287 C25.76372,17.87354 25.80669,17.06641 25.4063,16.7168 C25.1791647,16.5346592 24.883724,16.4609817 24.59766,16.51514 Z" id="Shape"/><path d="M50.49609,25.57129 C50.4736714,25.5558241 50.4524543,25.5386852 50.43262,25.52002 C49.4618088,24.6167016 47.9581112,24.6167016 46.9873,25.52002 C45.6233466,26.7837148 43.5162534,26.7837148 42.1523,25.52002 C41.1820624,24.6162123 39.6782076,24.6162123 38.70797,25.52002 C37.3840384,26.8132566 35.2768344,26.8356319 33.92574,25.5708 C33.9022238,25.5546772 33.8800211,25.5367177 33.85934,25.51709 C32.8886195,24.616318 31.3871957,24.6175876 30.418,25.52 C29.0521734,26.7838399 26.943425,26.782563 25.57913,25.51707 C24.6225243,24.582418 23.0945121,24.5830664 22.1387,25.51853 C22.1171731,25.5392719 22.0939858,25.5582183 22.06937,25.57518 C20.699473,26.7875338 18.6335292,26.7636716 17.292,25.52 C16.3213802,24.6171639 14.8182898,24.6171639 13.84767,25.52 C12.4837166,26.7836948 10.3766234,26.7836948 9.01267,25.52 C8.0557384,24.583558 6.52606057,24.5829052 5.56833,25.51853 C5.54713441,25.5389531 5.52427918,25.5575804 5.5,25.57422 C4.68140999,26.3390716 3.54219418,26.6584275 2.44531,26.43054 C2.87012,27.45471 3.36084,28.48511 3.89673,29.51776 C4.25706239,29.4119825 4.58704018,29.2219517 4.85938,28.96338 C4.88130253,28.941716 4.90516207,28.9221042 4.93066,28.90479 C6.28553036,27.655308 8.3796253,27.6788608 9.70605,28.9585 C10.6760826,29.8641817 12.1815403,29.8648195 13.15234,28.95996 C14.521246,27.7089615 16.618434,27.7089615 17.98734,28.95996 C18.9581512,29.8632784 20.4618488,29.8632784 21.43266,28.95996 C21.4540742,28.9399315 21.4769216,28.9214926 21.50102,28.90479 C22.855697,27.6557803 24.9491939,27.6793312 26.27543,28.9585 C27.2445205,29.8635417 28.7483756,29.8654585 29.71977,28.96289 C31.0676724,27.7269992 33.1298635,27.7040637 34.50492,28.90967 C34.5274689,28.9251463 34.5487011,28.9424584 34.5684,28.96143 C35.5257159,29.8980191 37.0561621,29.8973837 38.0127,28.96 C39.381606,27.7090015 41.478794,27.7090015 42.8477,28.96 C43.8182258,29.8630751 45.3215042,29.8630751 46.29203,28.96 C47.6392266,27.7265451 49.6987212,27.7042453 51.07231,28.90824 C51.0968803,28.9243027 51.1197782,28.9427885 51.14066,28.96342 C51.4123111,29.2225481 51.7411976,29.4140218 52.10066,29.52232 C52.63654,28.4885 53.12678,27.45713 53.55158,26.43232 C52.4536867,26.6586619 51.3142633,26.3375751 50.49609,25.57129 L50.49609,25.57129 Z" id="Shape"/><path d="M6.05176,16.51465 C5.70707242,16.576628 5.41078567,16.795325 5.25,17.10645 C5.16101789,17.2619582 4.99557144,17.3579061 4.816405,17.3579061 C4.63723856,17.3579061 4.47179211,17.2619582 4.38281,17.10645 C4.22258124,16.7953557 3.92650097,16.5767248 3.58203,16.51514 C3.52234975,16.5049679 3.46191085,16.4999029 3.40137,16.5 C3.17290859,16.4956327 2.95033906,16.5726511 2.77344,16.71729 C2.37305,17.06641 2.41602,17.87354 2.87793,18.68018 C3.37924707,19.4028607 4.04321926,19.9977599 4.81641,20.417 C5.58576555,20.0009377 6.24697745,19.4104615 6.74707,18.69288 C7.21777,17.87355 7.26074,17.06642 6.86035,16.7173 C6.6327873,16.5360384 6.33791183,16.4621362 6.05176,16.51465 L6.05176,16.51465 Z" id="Shape"/><path d="M15.3252,16.51465 C14.9805124,16.576628 14.6842257,16.795325 14.52344,17.10645 C14.4344579,17.2619582 14.2690114,17.3579061 14.089845,17.3579061 C13.9106786,17.3579061 13.7452321,17.2619582 13.65625,17.10645 C13.4960212,16.7953557 13.199941,16.5767248 12.85547,16.51514 C12.7957864,16.5049675 12.7353442,16.4999025 12.6748,16.5 C12.4463416,16.4956325 12.2237751,16.572651 12.04688,16.71729 C11.64648,17.06641 11.68945,17.87354 12.15137,18.68018 C12.6525061,19.4031414 13.3165073,19.9982341 14.08984,20.41748 C14.8592455,20.0012694 15.5204634,19.4106231 16.02051,18.69287 C16.49121,17.87354 16.53418,17.06641 16.13379,16.71729 C15.9061115,16.5362631 15.6113421,16.4623912 15.3252,16.51465 Z" id="Shape"/><path d="M52.418,16.51514 C52.073529,16.5767248 51.7774488,16.7953557 51.61722,17.10645 C51.5211806,17.2522962 51.3582523,17.3400886 51.183625,17.3400886 C51.0089977,17.3400886 50.8460694,17.2522962 50.75003,17.10645 C50.5642701,16.7341472 50.1836514,16.4991977 49.76758,16.5 C49.5394304,16.4952902 49.3170915,16.5721691 49.14058,16.7168 C48.73922,17.06641 48.78219,17.87354 49.24508,18.68018 C49.746273,19.4029813 50.4102865,19.9979083 51.18359,20.417 C51.9525829,20.0000394 52.6139243,19.4097473 53.11523,18.69288 C53.58398,17.87355 53.62695,17.06642 53.22656,16.71681 C52.999063,16.5354631 52.7040143,16.4618724 52.418,16.51514 L52.418,16.51514 Z" id="Shape"/><path d="M4.86523,12.6416 C6.2108097,11.3302528 8.35595289,11.3289536 9.70312,12.63867 C10.6615889,13.5735699 12.1903332,13.5748692 13.15039,12.6416 C14.4967347,11.3311973 16.6413294,11.3298987 17.98926,12.63867 C18.9477255,13.5735686 20.4764666,13.574868 21.43652,12.6416 C22.7824919,11.3312168 24.9268518,11.3299181 26.27441,12.63867 C27.2332607,13.5735677 28.7622219,13.5748669 29.72266,12.6416 C31.0686319,11.3312168 33.2129918,11.3299181 34.56055,12.63867 C35.5190155,13.5735686 37.0477566,13.574868 38.00781,12.6416 C39.3537819,11.3312168 41.4981418,11.3299181 42.8457,12.63867 C43.8045507,13.5735677 45.3335119,13.5748669 46.29395,12.6416 C47.6395297,11.3302528 49.7846729,11.3289536 51.13184,12.63867 C52.0903055,13.5735686 53.6190466,13.574868 54.5791,12.6416 L55.63867,11.61871 C55.1752962,8.83544353 53.809606,6.28175511 51.752,4.35107 C48.5323628,1.62769482 44.2698675,0.47416278 40.11621,1.20215 C35.2721768,2.10379471 31.1198922,5.20032836 28.874,9.58594 C28.6823853,9.88271839 28.3532614,10.0619828 28,10.0619828 C27.6467386,10.0619828 27.3176147,9.88271839 27.126,9.58594 C24.8801078,5.20032836 20.7278232,2.10379471 15.88379,1.20215 C15.0859394,1.06961857 14.2785131,1.0031497 13.46973,1.00342 C10.0912495,0.962115908 6.81326326,2.15208894 4.24805,4.35107 C2.19064114,6.28172478 0.824748763,8.83502946 0.3606,11.618 L1.4209,12.6416 C2.37941936,13.5747043 3.90671064,13.5747043 4.86523,12.6416 Z" id="Shape"/><path d="M55.82935,12.82568 L55.27441,13.36133 C53.9281839,14.6694611 51.7856361,14.6694611 50.43941,13.36133 C49.4813428,12.4254542 47.9518067,12.4241542 46.99215,13.3584 C45.6461781,14.6687832 43.5018182,14.6700819 42.15426,13.36133 C41.1954093,12.4264323 39.6664481,12.4251331 38.70601,13.3584 C37.360173,14.6691149 35.2155437,14.6704137 33.86812,13.36133 C32.9096545,12.4264314 31.3809134,12.425132 30.42086,13.3584 C29.0745153,14.6688027 26.9299206,14.6701013 25.58199,13.36133 C24.6235245,12.4264314 23.0947834,12.425132 22.13473,13.3584 C20.7887581,14.6687832 18.6443982,14.6700819 17.29684,13.36133 C16.3383711,12.4264301 14.8096268,12.4251308 13.84957,13.3584 C12.5032253,14.6688027 10.3586306,14.6701013 9.0107,13.36133 C8.05263279,12.4254542 6.52309672,12.4241542 5.56344,13.3584 C4.21746807,14.6687832 2.07310817,14.6700819 0.72555,13.36133 L0.16964,12.82471 C-0.225209003,17.0300043 0.389233721,21.2688113 1.96191,25.1889 C2.90789967,25.7139281 4.08623161,25.5565934 4.86133,24.80176 C4.88241791,24.7813563 4.90529656,24.7628887 4.92969,24.74658 C6.2806689,23.4841143 8.38574997,23.5077761 9.70801,24.80029 C10.6788214,25.7026387 12.1815286,25.7026387 13.15234,24.80029 C14.5159113,23.5356209 16.6237687,23.5356209 17.98734,24.80029 C18.9585324,25.7026386 20.4614676,25.7026386 21.43266,24.80029 C21.4534212,24.7803699 21.4759618,24.7623916 21.5,24.74658 C22.8504175,23.4836361 24.955658,23.5073046 26.27734,24.80029 C27.2470236,25.7024825 28.748512,25.7037605 29.71973,24.80322 C31.061563,23.551898 33.1357983,23.529041 34.50488,24.75049 C34.5275337,24.7656432 34.5487792,24.7828022 34.56836,24.80176 C35.5256917,25.7383641 37.0561681,25.7377109 38.0127,24.80029 C39.3762713,23.5356209 41.4841287,23.5356209 42.8477,24.80029 C43.8185114,25.7026387 45.3212186,25.7026387 46.29203,24.80029 C47.6338201,23.553215 49.7038365,23.5308055 51.07231,24.74854 C51.0961083,24.7640965 51.1183453,24.7819195 51.13871,24.80176 C51.9127556,25.5563312 53.0899731,25.7141589 54.03544,25.19012 C55.607917,21.2698757 56.2228953,17.0311671 55.82935,12.82568 L55.82935,12.82568 Z M7.62207,19.17725 C6.96531379,20.124347 6.08870741,20.8980778 5.06738,21.43213 C4.99126695,21.4767418 4.90460343,21.5001754 4.81638,21.5 C4.72785659,21.5000562 4.64090141,21.476637 4.56438,21.43213 C3.53997683,20.8945647 2.66132254,20.1164402 2.00384,19.16455 C1.29778,17.93213 1.33977,16.64111 2.11516,15.96387 C2.56853676,15.5849494 3.16617074,15.4257117 3.74798,15.52881 C4.14843094,15.5959451 4.52011389,15.7799184 4.81634,16.05762 C5.11317238,15.7796836 5.48554734,15.5957036 5.88665,15.52881 C6.46794566,15.423422 7.0659457,15.5829488 7.51751,15.96387 C8.294,16.64062 8.33594,17.93262 7.62207,19.17725 Z M16.89551,19.17725 C16.2387538,20.124347 15.3621474,20.8980778 14.34082,21.43213 C14.185725,21.522637 13.993915,21.522637 13.83882,21.43213 C12.8133472,20.8953412 11.9338848,20.1170967 11.27632,19.16455 C10.57124,17.93213 10.61323,16.64111 11.38862,15.96387 C11.8419937,15.5849511 12.4396239,15.4257133 13.02143,15.52881 C13.4218824,15.5959406 13.7935666,15.7799144 14.08979,16.05762 C14.3866261,15.7796833 14.7590043,15.5957035 15.16011,15.52881 C15.741395,15.4236833 16.3392848,15.5831807 16.79097,15.96387 C17.56738,16.64062 17.60938,17.93262 16.89551,19.17725 Z M26.16895,19.17725 C25.5121911,20.1243446 24.6355854,20.8980748 23.61426,21.43213 C23.459165,21.522637 23.267355,21.522637 23.11226,21.43213 C22.0867888,20.8953389 21.2073269,20.1170948 20.54976,19.16455 C19.84469,17.93213 19.88668,16.64111 20.66207,15.96387 C21.1147169,15.5842865 21.7123729,15.4249472 22.29391,15.52881 C22.6947869,15.5955097 23.0669011,15.7795293 23.36324,16.05762 C23.6595813,15.7795271 24.0316993,15.5955072 24.43258,15.52881 C25.0141533,15.4239997 25.6122045,15.5834453 26.06441,15.96387 C26.83984,16.64111 26.88184,17.93213 26.169,19.17725 L26.16895,19.17725 Z M35.44238,19.17725 C34.7856272,20.1243463 33.9090242,20.8980771 32.8877,21.43213 C32.732605,21.522637 32.540795,21.522637 32.3857,21.43213 C31.3602288,20.8953389 30.4807669,20.1170948 29.8232,19.16455 C29.11812,17.93213 29.16012,16.64111 29.93551,15.96387 C30.3881492,15.5842794 30.9858057,15.424939 31.56734,15.52881 C31.9682207,15.5955072 32.3403387,15.7795271 32.63668,16.05762 C32.9330189,15.7795293 33.3051331,15.5955097 33.70601,15.52881 C34.2875864,15.4240008 34.8856401,15.5834462 35.33785,15.96387 C36.11328,16.64111 36.15527,17.93213 35.44238,19.17725 Z M44.71582,19.17725 C44.0590638,20.124347 43.1824574,20.8980778 42.16113,21.43213 C42.006035,21.522637 41.814225,21.522637 41.65913,21.43213 C40.6336572,20.8953412 39.7541948,20.1170967 39.09663,19.16455 C38.39057,17.93262 38.43257,16.64062 39.20991,15.96338 C39.662432,15.585058 40.2589855,15.4260007 40.83979,15.52881 C41.2408957,15.5957035 41.6132739,15.7796833 41.91011,16.05762 C42.2063334,15.7799144 42.5780176,15.5959406 42.97847,15.52881 C43.5602709,15.4239434 44.1585783,15.5831821 44.61128,15.96338 C45.38672,16.64111 45.42871,17.93213 44.71582,19.17725 Z M53.98926,19.17725 C53.3319944,20.1235283 52.4559247,20.8970821 51.43555,21.43213 C51.3590286,21.476637 51.2720734,21.5000562 51.18355,21.5 C51.0953266,21.5001754 51.0086631,21.4767418 50.93255,21.43213 C49.9070772,20.8953412 49.0276148,20.1170967 48.37005,19.16455 C47.66399,17.93262 47.70598,16.64062 48.48333,15.96338 C48.935852,15.585058 49.5324055,15.4260007 50.11321,15.52881 C50.5143127,15.5957036 50.8866876,15.7796836 51.18352,16.05762 C51.4797461,15.7799184 51.8514291,15.5959451 52.25188,15.52881 C52.8336894,15.4238105 53.4320558,15.5830638 53.8847,15.96338 C54.66016,16.64111 54.70215,17.93213 53.98926,19.17725 Z" id="Shape"/><path d="M43.14453,16.51514 C42.800059,16.5767248 42.5039788,16.7953557 42.34375,17.10645 C42.2477106,17.2522962 42.0847823,17.3400886 41.910155,17.3400886 C41.7355277,17.3400886 41.5725994,17.2522962 41.47656,17.10645 C41.2908049,16.7341569 40.9102006,16.4992091 40.49414,16.5 C40.2659893,16.4952832 40.0436481,16.5721629 39.86714,16.7168 C39.46577,17.06641 39.50874,17.87354 39.97163,18.68018 C40.4727678,19.4031435 41.1367728,19.9982366 41.91011,20.41748 C42.679511,20.0012669 43.3407251,19.410621 43.84077,18.69287 C44.3105,17.87354 44.35347,17.06641 43.95307,16.7168 C43.7255763,16.5354624 43.4305364,16.4618757 43.14453,16.51514 L43.14453,16.51514 Z" id="Shape"/><path d="M40.42969,39.33008 C39.9168964,39.3249337 39.4227833,39.522331 39.05469,39.87939 C37.5496696,41.3498425 35.1569898,41.3850298 33.60938,39.95947 C33.5741755,39.9332319 33.5408877,39.9045156 33.50977,39.87354 C32.7286825,39.1710852 31.5427365,39.1736125 30.76465,39.87939 C29.2220871,41.375803 26.7688864,41.3732102 25.22949,39.87354 C24.4612726,39.1380094 23.2491917,39.1408088 22.48438,39.87988 C22.4526623,39.910291 22.4190662,39.9386802 22.38379,39.96488 C20.8155117,41.330418 18.4699138,41.2935637 16.94531,39.87943 C16.5772167,39.522371 16.0831036,39.3249737 15.57031,39.33012 C15.0576329,39.3271647 14.5640064,39.5242243 14.19431,39.87943 C13.801765,40.2563925 13.3360153,40.5487602 12.8259,40.73843 C17.5321817,44.9063664 22.611579,48.632927 28,51.87109 C33.3889485,48.6327293 38.4692268,44.906483 43.17688,40.73926 C42.6657133,40.5496275 42.1989818,40.2569477 41.80566,39.87939 C41.4359711,39.5241915 40.9423567,39.3271325 40.42969,39.33008 L40.42969,39.33008 Z" id="Shape"/><path d="M46.9873,34.52 C45.6233466,35.7836948 43.5162534,35.7836948 42.1523,34.52 C41.1820624,33.6161923 39.6782076,33.6161923 38.70797,34.52 C37.3840384,35.8132366 35.2768344,35.8356119 33.92574,34.57078 C33.9022238,34.5546572 33.8800211,34.5366977 33.85934,34.51707 C32.8885188,33.6165472 31.3872863,33.6178253 30.418,34.52 C29.0521734,35.7838399 26.943425,35.782563 25.57913,34.51707 C24.6225243,33.582418 23.0945121,33.5830664 22.1387,34.51853 C22.1171731,34.5392719 22.0939858,34.5582183 22.06937,34.57518 C20.6993824,35.7872907 18.6336254,35.7634306 17.292,34.52 C16.3213802,33.6171639 14.8182898,33.6171639 13.84767,34.52 C12.4837166,35.7836948 10.3766234,35.7836948 9.01267,34.52 C8.36270404,33.8885886 7.41994383,33.662261 6.55417,33.92979 C7.85982453,35.6864646 9.29920485,37.3396742 10.85947,38.87467 L11.51364,38.99803 C11.9980673,38.9770928 12.4578953,38.778808 12.80564,38.4409 C14.3697841,37.0077907 16.7698159,37.0077907 18.33396,38.4409 C19.1097288,39.1616271 20.3101912,39.1616271 21.08596,38.4409 C21.1175488,38.4102113 21.1511501,38.3816646 21.18654,38.35545 C22.736868,36.9470295 25.1139802,36.9828968 26.62111,38.43745 C27.3923524,39.1631521 28.5939856,39.1672085 29.37011,38.44673 C30.9012273,37.0353194 33.2481491,36.9989543 34.82226,38.36225 C34.8555885,38.387149 34.8872311,38.4142282 34.91698,38.44331 C35.6816506,39.190035 36.9029029,39.1887334 37.66598,38.44038 C39.2308226,37.0088802 41.6297112,37.0090929 43.1943,38.44087 C43.7095967,38.9180348 44.4353164,39.0941743 45.11202,38.90632 C46.6798011,37.3673359 48.1258075,35.7090257 49.43702,33.94632 C48.5764017,33.6926841 47.6458135,33.910611 46.9873,34.52 Z" id="Shape"/></g></g></svg>