<?xml version="1.0" ?><!DOCTYPE svg  PUBLIC '-//W3C//DTD SVG 1.1 Tiny//EN'  'http://www.w3.org/Graphics/SVG/1.1/DTD/svg11-tiny.dtd'><svg baseProfile="tiny" height="110px" id="Layer_1" version="1.1" viewBox="0 0 110 110" width="110px" xml:space="preserve" xmlns="http://www.w3.org/2000/svg" xmlns:xlink="http://www.w3.org/1999/xlink"><g><polygon fill="#694E9F" fill-rule="evenodd" points="0,110.609 0,110.609 110,110.609 110,110.609 110,0.611 110,0.611 0,0.611    0,0.611  "/><g><g><circle cx="55" cy="55.611" fill="#7DBA48" fill-rule="evenodd" r="37.887"/><path d="M73.285,88.798c-2.31,1.275-4.767,2.316-7.339,3.092l2.03-21.662     c0.084-0.898,0.453-1.645,1.118-2.255l14.999-13.8c1.423-1.309,3.65-1.217,4.959,0.206s1.216,3.649-0.207,4.958L74.839,72.226     L73.285,88.798L73.285,88.798z M58.835,93.306v-29.43l18.326-16.353c1.442-1.287,1.569-3.513,0.282-4.955     s-3.513-1.569-4.954-0.282L55.325,57.602L38.162,42.286c-1.442-1.287-3.668-1.16-4.955,0.282s-1.16,3.668,0.282,4.955     l18.327,16.353v29.486c1.05,0.088,2.111,0.135,3.184,0.135C56.295,93.497,57.574,93.432,58.835,93.306L58.835,93.306z      M44.055,91.89c-2.572-0.775-5.029-1.816-7.339-3.092l-1.554-16.572L21.155,59.337c-1.423-1.309-1.516-3.535-0.207-4.958     s3.536-1.515,4.959-0.206l14.999,13.8c0.665,0.61,1.034,1.356,1.118,2.255L44.055,91.89z" fill="#FFFFFF" fill-rule="evenodd"/><path d="M55.001,43.931c3.607,0,6.551-3.033,6.551-6.751s-2.943-6.751-6.551-6.751     c-3.608,0-6.551,3.033-6.551,6.751S51.393,43.931,55.001,43.931z" fill="#FFFFFF" fill-rule="evenodd"/></g></g></g></svg>