<?xml version="1.0" ?><!DOCTYPE svg  PUBLIC '-//W3C//DTD SVG 1.1 Tiny//EN'  'http://www.w3.org/Graphics/SVG/1.1/DTD/svg11-tiny.dtd'><svg baseProfile="tiny" height="110px" id="Layer_1" version="1.1" viewBox="0 0 110 110" width="110px" xml:space="preserve" xmlns="http://www.w3.org/2000/svg" xmlns:xlink="http://www.w3.org/1999/xlink"><g><polygon fill="#A4CD39" fill-rule="evenodd" points="0.001,110.61 0.001,110.61 110.001,110.61 110.001,110.61 110.001,0.61    110.001,0.61 0.001,0.61 0.001,0.61  "/><g><g><circle cx="55.001" cy="55.61" fill="#FFFFFF" fill-rule="evenodd" r="32.004"/><path d="M24.101,63.967c-0.719-2.664-1.104-5.465-1.104-8.356     c0-17.555,14.133-31.805,31.643-31.999c-4.301,2.206-9.865,5.389-14.559,9.147c-9.129,7.31-4.316,19.18,2.576,23.729     c6.891,4.551,12.344-0.878,12.344-0.878c8.295,19.927-6.201,20.51-15.42,16.746C34.823,70.415,28.798,68.415,24.101,63.967z" fill="#AA4E9D" fill-rule="evenodd"/><path d="M77.69,78.181c-5.797,5.826-13.822,9.434-22.689,9.434     c-11.721,0-21.967-6.3-27.543-15.697c4.063,2.621,9.605,5.853,15.211,8.039c10.896,4.252,18.77-5.852,19.264-14.095     S55.001,55.61,55.001,55.61c13.109-17.148,20.861-4.884,22.211,4.981C77.909,65.679,79.188,71.892,77.69,78.181z" fill="#0A82A9" fill-rule="evenodd"/><path d="M87.005,55.61c0,5.706-1.494,11.062-4.111,15.7     c0.24-4.828,0.266-11.244-0.643-17.193c-1.768-11.563-14.453-13.328-21.84-9.636c-7.387,3.693-5.41,11.129-5.41,11.129     c-21.406-2.778-14.662-15.625-6.793-21.727c4.061-3.149,8.805-7.367,15.006-9.211C76.909,28.3,87.005,40.774,87.005,55.61z" fill="#F5881F" fill-rule="evenodd"/></g></g></g></svg>