<?xml version="1.0" ?><!DOCTYPE svg  PUBLIC '-//W3C//DTD SVG 1.1 Tiny//EN'  'http://www.w3.org/Graphics/SVG/1.1/DTD/svg11-tiny.dtd'><svg baseProfile="tiny" height="110px" id="Layer_1" version="1.1" viewBox="0 0 110 110" width="110px" xml:space="preserve" xmlns="http://www.w3.org/2000/svg" xmlns:xlink="http://www.w3.org/1999/xlink"><g><polygon fill="#80297E" fill-rule="evenodd" points="0.001,110.61 0.001,110.61 110.001,110.61 110.001,110.61 110.001,0.61    110.001,0.61 0.001,0.61 0.001,0.61  "/><g><g><circle cx="54.338" cy="55.521" fill="#0A82A9" fill-rule="evenodd" r="31.341"/><path d="M85.679,55.521c0,0.243-0.005,0.484-0.01,0.726l-0.006,0.209     c-0.005,0.182-0.012,0.364-0.021,0.546l-0.01,0.196c-0.011,0.234-0.025,0.469-0.044,0.703l-0.013,0.146     c-0.015,0.195-0.032,0.391-0.052,0.586l-0.019,0.187c-0.022,0.201-0.044,0.402-0.069,0.603l-0.015,0.121     c-0.03,0.238-0.063,0.476-0.1,0.713l-0.021,0.131c-0.03,0.195-0.063,0.391-0.098,0.585l-0.031,0.18     c-0.036,0.198-0.073,0.396-0.112,0.592l-0.023,0.115c-0.046,0.225-0.096,0.447-0.146,0.67l-0.045,0.192     c-0.04,0.17-0.081,0.338-0.123,0.507l-0.051,0.198c-0.059,0.225-0.118,0.449-0.183,0.672l-0.005,0.018     c-0.061,0.212-0.123,0.424-0.188,0.633l-0.066,0.215c-0.049,0.152-0.098,0.307-0.148,0.459l-0.071,0.213     c-0.07,0.205-0.143,0.41-0.217,0.615l-0.071,0.192c-0.055,0.147-0.11,0.292-0.168,0.438l-0.1,0.257     c-0.057,0.14-0.113,0.278-0.172,0.417l-0.086,0.209c-0.085,0.199-0.171,0.396-0.26,0.594l-0.088,0.193     c-0.065,0.143-0.132,0.283-0.198,0.424l-0.11,0.229c-0.07,0.146-0.144,0.291-0.216,0.436l-0.153,0.299     c-0.074,0.143-0.149,0.285-0.226,0.427l-0.124,0.229l-0.207,0.37l-0.139,0.242c-0.095,0.164-0.189,0.326-0.288,0.488     l-0.158,0.258c-0.071,0.113-0.141,0.227-0.212,0.34l-0.169,0.262l-0.192,0.293c-0.059,0.089-0.117,0.178-0.179,0.268     l-0.003,0.004c-0.104,0.152-0.208,0.304-0.314,0.453l-0.002,0.004c-0.072,0.103-0.147,0.205-0.222,0.308l-0.162,0.224     l-0.226,0.301l-0.169,0.222c-0.126,0.163-0.253,0.325-0.382,0.485l-0.193,0.24l-0.223,0.27l-0.214,0.251l-0.216,0.25     l-0.226,0.255c-0.132,0.146-0.265,0.293-0.398,0.438l-0.192,0.207l-0.269,0.279l-0.174,0.18c-0.091,0.092-0.18,0.184-0.271,0.274     l-0.009,0.01c-0.13,0.129-0.262,0.257-0.394,0.384l-0.268,0.251l-0.204,0.19l-0.272,0.248l-0.21,0.186L74.8,79.26     c-0.139,0.12-0.279,0.238-0.42,0.355l-0.008,0.007l-0.299,0.244l-0.211,0.17l-0.317,0.25l-0.114,0.087     c-0.229,0.177-0.458,0.349-0.691,0.519l-0.122,0.088c-0.112,0.082-0.228,0.162-0.341,0.243l-0.188,0.13     c-0.118,0.08-0.235,0.16-0.354,0.24c-0.281,0.188-0.565,0.371-0.854,0.552l-0.1,0.062c-0.136,0.084-0.271,0.166-0.407,0.247     l-0.109,0.064c-0.428,0.255-0.864,0.497-1.307,0.73l-0.12,0.063c-0.138,0.072-0.275,0.143-0.415,0.214l-0.131,0.065     c-0.287,0.143-0.576,0.281-0.867,0.416l-0.034,0.016l-0.029,0.004c-7.621,1.007,0.038-7.564-0.968-10.422     c-1.006-2.861-4.384-2.523-4.821-6.029c-0.438-3.504,1.181-9.775,2.411-13.259c1.229-3.483,1.556-6.066,4.821-7.232     s9.483,1.719,12.055,1.204c2.569-0.514,0.851-2.764,0-3.615c-0.854-0.853-2.28,0.892-3.617,0s-1.325-4.821-3.616-4.821     s-3.581,4.577-6.027,4.821c-2.445,0.245-6.423,0.067-6.026-3.616c0.396-3.683-0.226-13.67,7.816-13.028h0.004     c0.152,0.083,0.304,0.167,0.452,0.253l0.354,0.206l0.165,0.098l0.363,0.219l0.102,0.063c0.221,0.137,0.439,0.276,0.657,0.418     l0.189,0.127c0.111,0.072,0.222,0.146,0.331,0.223l0.215,0.148c0.167,0.116,0.333,0.233,0.497,0.354l0.212,0.154l0.315,0.234     l0.207,0.16c0.16,0.122,0.317,0.247,0.475,0.372l0.21,0.17l0.292,0.24l0.21,0.179c0.146,0.124,0.29,0.25,0.435,0.376l0.232,0.207     l0.265,0.241l0.209,0.194l0.251,0.238h0.001c0.125,0.12,0.247,0.239,0.369,0.359l0.011,0.012l0.252,0.254l0.205,0.21l0.235,0.244     c0.125,0.133,0.249,0.266,0.371,0.399l0.227,0.252l0.189,0.213l0.238,0.275c0.089,0.102,0.175,0.205,0.262,0.309l0.273,0.332     l0.222,0.275l0.191,0.242l0.245,0.319c0.093,0.122,0.185,0.244,0.275,0.368l0.201,0.277l0.192,0.271l0.22,0.316l0.193,0.286     c0.09,0.134,0.178,0.268,0.266,0.402l0.157,0.247c0.073,0.113,0.145,0.229,0.216,0.345l0.129,0.21     c0.101,0.165,0.198,0.333,0.297,0.501l0.139,0.245c0.073,0.126,0.144,0.254,0.215,0.381l0.105,0.192     c0.094,0.176,0.188,0.354,0.279,0.53l0.123,0.241c0.063,0.125,0.125,0.25,0.187,0.375l0.108,0.226     c0.089,0.186,0.177,0.372,0.262,0.559l0.082,0.185c0.063,0.144,0.127,0.288,0.19,0.435l0.096,0.224     c0.08,0.191,0.159,0.384,0.235,0.577l0.064,0.167c0.062,0.159,0.121,0.317,0.182,0.479l0.073,0.198     c0.066,0.186,0.133,0.372,0.196,0.559l0.06,0.178c0.06,0.176,0.116,0.352,0.172,0.528l0.063,0.201     c0.063,0.202,0.122,0.405,0.181,0.608l0.012,0.04c0.063,0.219,0.121,0.439,0.179,0.661l0.047,0.183     c0.048,0.186,0.093,0.372,0.137,0.559l0.028,0.122c0.05,0.215,0.097,0.43,0.141,0.646l0.046,0.226     c0.034,0.173,0.067,0.347,0.1,0.52l0.028,0.15c0.04,0.229,0.078,0.46,0.113,0.691l0.021,0.133     c0.028,0.192,0.056,0.386,0.081,0.58l0.022,0.172c0.029,0.234,0.056,0.47,0.081,0.705l0.008,0.082     c0.02,0.203,0.038,0.408,0.054,0.614l0.016,0.199c0.018,0.229,0.032,0.459,0.044,0.689l0.005,0.114     c0.011,0.206,0.018,0.412,0.024,0.619l0.004,0.182C85.675,55.039,85.679,55.28,85.679,55.521L85.679,55.521z M24.652,45.445     L24.652,45.445c2.505-7.378,7.683-13.521,14.379-17.275l0.013-0.002c6.415-0.811,11.512,5.028,14.089,6.962     c2.576,1.936,1.251,1.324,0,3.616c-1.251,2.294-3.864,7.848-7.233,9.644c-3.367,1.796-8.733-2.818-10.849,0     c-2.114,2.819,0.713,8.192,3.616,9.645c2.903,1.45,4.83-4.819,8.438-3.617c3.608,1.203,8.939,4.24,9.644,9.644     c0.705,5.403-4.248,14.746-6.026,18.081c-1.779,3.335-1.24,3.24-3.617,0c-2.375-3.24-6.784-13.998-9.643-18.081     s-5.042-2.851-7.232-6.026c-2.189-3.178-5.923-6.371-5.579-12.553L24.652,45.445z" fill="#18B8D4" fill-rule="evenodd"/><path d="M60.632,51.387l-1.018-27.545c0,0,8.222,1.907,15.298,6.865     c7.077,4.958,11.696,12.289,11.696,12.289h-2.967c10.496,19.773-4.768,45.031-29.239,44.37     c-12.543-0.34-18.941-5.529-22.586-8.92c-3.645-3.39-5.001-7.882-5.001-7.882s6.349,12.231,26.952,11.356     C74.37,81.047,70.634,56.835,69.87,53.274c-0.763-3.56-1.61-5.679-1.61-5.679L60.632,51.387z" fill="#F3B521" fill-rule="evenodd"/></g></g></g></svg>