<?xml version="1.0" ?><!DOCTYPE svg  PUBLIC '-//W3C//DTD SVG 1.1 Tiny//EN'  'http://www.w3.org/Graphics/SVG/1.1/DTD/svg11-tiny.dtd'><svg baseProfile="tiny" height="110px" id="Layer_1" version="1.1" viewBox="0 0 110 110" width="110px" xml:space="preserve" xmlns="http://www.w3.org/2000/svg" xmlns:xlink="http://www.w3.org/1999/xlink"><g><polygon fill="#3AB77B" fill-rule="evenodd" points="0,110.61 0,110.61 110,110.61 110,110.61 110,0.61 110,0.61 0,0.61 0,0.61     "/><g><path d="M55,23.606L55,23.606c16.596,0,30.174,13.578,30.174,30.173v3.661    c0,16.596-13.578,30.174-30.174,30.174l0,0c-16.596,0-30.174-13.578-30.174-30.174V53.78C24.826,37.184,38.404,23.606,55,23.606    L55,23.606z M55,29.905c-6.302,0-11.458,5.155-11.458,11.458v28.494c0,6.302,5.156,11.458,11.458,11.458l0,0    c6.302,0,11.458-5.156,11.458-11.458V41.363C66.458,35.061,61.302,29.905,55,29.905L55,29.905z" fill="#E02D2B" fill-rule="evenodd"/></g></g></svg>