<?xml version="1.0" ?><!DOCTYPE svg  PUBLIC '-//W3C//DTD SVG 1.1 Tiny//EN'  'http://www.w3.org/Graphics/SVG/1.1/DTD/svg11-tiny.dtd'><svg baseProfile="tiny" height="110px" id="Layer_1" version="1.1" viewBox="0 0 110 110" width="110px" xml:space="preserve" xmlns="http://www.w3.org/2000/svg" xmlns:xlink="http://www.w3.org/1999/xlink"><g><polygon fill="#3DAE49" fill-rule="evenodd" points="0,110.611 0,110.611 110,110.611 110,110.611 110,0.609 110,0.609 0,0.609    0,0.609  "/><g><g><path d="M55.001,87.614c17.627,0,32.004-14.376,32.004-32.004     c0-17.627-14.377-32.004-32.004-32.004c-17.629,0-32.006,14.377-32.006,32.004C22.995,73.238,37.372,87.614,55.001,87.614z" fill="#FFFFFF" fill-rule="evenodd"/><path d="M55.001,33.104c12.43,0,22.506,10.077,22.506,22.508     c0,11.829-9.125,21.526-20.721,22.437c-0.268,0-7.143-0.046-11.682-5.915c-4.629-5.985-0.719-12.052,5.826-14.366     c6.545-2.313,16.521-5.507,16.043-12.29c-0.479-6.784-1.039-10.695-5.109-8.939s-21.627,9.259-21.627,9.259     s-4.719,1.392-7.678,8.071C33.45,42.252,43.157,33.104,55.001,33.104z" fill="#E02D2B" fill-rule="evenodd"/><path d="M53.509,56.856c1.838-0.659,3.789-1.398,5.619-2.263     c0.039,1.117,0.027,2.656-0.137,4.649c-0.389,4.771-3.352,9.538-3.352,9.538s0.398-5.068-0.279-7.063     C54.794,60.049,53.872,57.772,53.509,56.856z" fill="#3D3D3F" fill-rule="evenodd"/></g></g></g></svg>