<?xml version="1.0" ?><!DOCTYPE svg  PUBLIC '-//W3C//DTD SVG 1.1 Tiny//EN'  'http://www.w3.org/Graphics/SVG/1.1/DTD/svg11-tiny.dtd'><svg baseProfile="tiny" height="110px" id="Layer_1" version="1.1" viewBox="0 0 110 110" width="110px" xml:space="preserve" xmlns="http://www.w3.org/2000/svg" xmlns:xlink="http://www.w3.org/1999/xlink"><g><polygon fill="#B158A1" fill-rule="evenodd" points="0,110.61 0,110.61 110,110.61 110,110.61 110,0.61 110,0.61 0,0.61 0,0.61     "/><g><g><path d="M76.905,70.414c-2.399,9.871-11.296,17.2-21.905,17.2s-19.506-7.329-21.905-17.2     c-3.33,1.054-7.209,1.749-8.229,0.32c-1.699-2.379,2.832-9.855,10.083-19.259c7.023-9.109,7.137-14.604,7.137-14.938v-0.012     v-0.004c0-7.133,5.782-12.915,12.915-12.915s12.915,5.782,12.915,12.915v0.004v0.012c0,0.335,0.113,5.829,7.137,14.938     c7.251,9.403,11.782,16.88,10.083,19.259C84.114,72.163,80.235,71.468,76.905,70.414z" fill="#3D3D3F" fill-rule="evenodd"/><path d="M55,46.263c8.635,0,15.635,10.173,15.635,18.808s-7,15.635-15.635,15.635     s-15.635-7-15.635-15.635S46.365,46.263,55,46.263z" fill="#FFFFFF" fill-rule="evenodd"/><path d="M49.505,32.103c2.848,0,5.155,2.308,5.155,5.154s-2.308,5.155-5.155,5.155     c-2.847,0-5.154-2.309-5.154-5.155S46.658,32.103,49.505,32.103L49.505,32.103z M60.494,32.103c2.847,0,5.155,2.308,5.155,5.154     s-2.309,5.155-5.155,5.155s-5.154-2.309-5.154-5.155S57.647,32.103,60.494,32.103z" fill="#FFFFFF" fill-rule="evenodd"/><circle cx="60.456" cy="36.854" fill="#3D3D3F" fill-rule="evenodd" r="2.334"/><circle cx="49.544" cy="36.854" fill="#3D3D3F" fill-rule="evenodd" r="2.334"/><path d="M55,48.813c-2.285-1.419-8.455-3.973-8.04-6.774c0.465-3.135,15.614-3.135,16.079,0     C63.455,44.84,57.284,47.394,55,48.813z" fill="#F5881F" fill-rule="evenodd"/></g></g></g></svg>