<?xml version="1.0" ?><!DOCTYPE svg  PUBLIC '-//W3C//DTD SVG 1.1 Tiny//EN'  'http://www.w3.org/Graphics/SVG/1.1/DTD/svg11-tiny.dtd'><svg baseProfile="tiny" height="110px" id="Layer_1" version="1.1" viewBox="0 0 110 110" width="110px" xml:space="preserve" xmlns="http://www.w3.org/2000/svg" xmlns:xlink="http://www.w3.org/1999/xlink"><g><polygon fill="#6D6B62" fill-rule="evenodd" points="0,110.61 0,110.61 110,110.61 110,110.61 110,0.61 110,0.61 0,0.61 0,0.61     "/><g><g><circle cx="55" cy="55.61" fill="#F89B1C" fill-rule="evenodd" r="32.004"/><circle cx="55" cy="55.611" fill="#FFFFFF" fill-rule="evenodd" r="16.296"/><path d="M82.674,39.531c2.752,4.725,4.33,10.218,4.33,16.08     c0,17.676-14.329,32.004-32.004,32.004c-0.256,0-0.511-0.004-0.765-0.01l11.012-19.323V68.28     c3.689-2.988,6.048-7.553,6.048-12.67c0-8.096-5.903-14.811-13.641-16.079l0.005-0.001H82.674z" fill="#F3B521" fill-rule="evenodd"/><path d="M55,67.478c6.536,0,11.867-5.331,11.867-11.867c0-6.536-5.331-11.867-11.867-11.867     c-6.537,0-11.867,5.332-11.867,11.867C43.133,62.146,48.463,67.478,55,67.478z" fill="#F3B521" fill-rule="evenodd"/><path d="M55,23.606c11.813,0,22.13,6.402,27.675,15.924H57.66l-0.001,0.001     c-0.865-0.142-1.753-0.217-2.658-0.217c-9,0-16.296,7.295-16.296,16.295c0,1.368,0.169,2.695,0.486,3.965l-0.001,0.002     L27.667,38.955C33.288,29.751,43.426,23.606,55,23.606z" fill="#F5881F" fill-rule="evenodd"/></g></g></g></svg>