<?xml version="1.0" ?><!DOCTYPE svg  PUBLIC '-//W3C//DTD SVG 1.1 Tiny//EN'  'http://www.w3.org/Graphics/SVG/1.1/DTD/svg11-tiny.dtd'><svg baseProfile="tiny" height="110px" id="Layer_1" version="1.1" viewBox="0 0 110 110" width="110px" xml:space="preserve" xmlns="http://www.w3.org/2000/svg" xmlns:xlink="http://www.w3.org/1999/xlink"><g><polygon fill="#77BF43" fill-rule="evenodd" points="0,110.611 0,110.611 110,110.611 110,110.611 110,0.609 110,0.609 0,0.609    0,0.609  "/><g><path d="M55,23.606c2.249,0,4.442,0.233,6.561,0.675l-9.537,7.907    c-0.622-0.283-1.313-0.44-2.041-0.44c-1.74,0-3.271,0.9-4.149,2.261l-12.836-0.651l-0.909-0.089    C37.9,27.309,46.018,23.606,55,23.606L55,23.606z M66.276,25.652l-11.634,9.396c0.152,0.432,0.245,0.893,0.271,1.37l20.089,13.94    l5.327-14.311C76.729,31.396,71.877,27.761,66.276,25.652L66.276,25.652z M82.868,39.867c2.633,4.648,4.136,10.021,4.136,15.743    c0,0.067-0.002,0.135-0.002,0.202l-6.499,5.299l-2.685-8.768L82.868,39.867L82.868,39.867z M86.586,60.781l-5.083,3.83    l1.677,6.181C84.837,67.722,86.006,64.351,86.586,60.781L86.586,60.781z M80.403,75.075C74.554,82.698,65.352,87.614,55,87.614    c-4.833,0-9.415-1.073-13.522-2.991l-0.479-3.51l16.387-6.554c0.873,0.778,2.023,1.251,3.284,1.251    c2.591,0,4.716-1.996,4.921-4.534l12.913-5.165L80.403,75.075L80.403,75.075z M37.296,82.273    c-6.943-4.619-11.979-11.878-13.675-20.343l8.739,5.496c-0.002,0.065-0.004,0.13-0.004,0.195c0,2.342,1.63,4.303,3.817,4.811    L37.296,82.273L37.296,82.273z M23.048,57.412l11.18,6.341c0.765-0.607,1.715-0.992,2.75-1.058l9.56-22.473    c-0.843-0.82-1.393-1.939-1.481-3.188L29.04,36.893c-3.802,5.265-6.044,11.729-6.044,18.718    C22.996,56.215,23.015,56.816,23.048,57.412L23.048,57.412z M60.669,65.936c-2.619,0-4.761,2.039-4.927,4.617h0L42.23,67.719    l0.001-0.097c0-1.62-0.781-3.059-1.986-3.958l9.923-22.045c1.399-0.052,2.649-0.686,3.515-1.666L73.502,53.61l-10.79,12.766    C62.089,66.093,61.397,65.936,60.669,65.936L60.669,65.936z M40.382,71.476c-0.181,0.146-0.373,0.277-0.573,0.396l0.688,5.741    L51,73.362L40.382,71.476L40.382,71.476z M66.252,67.862l11.197-5.397l-1.946-5.354L66.252,67.862z" fill="#0A82A9" fill-rule="evenodd"/></g></g></svg>