<?xml version="1.0" ?><!DOCTYPE svg  PUBLIC '-//W3C//DTD SVG 1.1 Tiny//EN'  'http://www.w3.org/Graphics/SVG/1.1/DTD/svg11-tiny.dtd'><svg baseProfile="tiny" height="110px" id="Layer_1" version="1.1" viewBox="0 0 110 110" width="110px" xml:space="preserve" xmlns="http://www.w3.org/2000/svg" xmlns:xlink="http://www.w3.org/1999/xlink"><g><polygon fill="#ED2132" fill-rule="evenodd" points="0,110.611 0,110.611 110,110.611 110,110.611 110,0.609 110,0.609 0,0.609    0,0.609  "/><g><g><path d="M77.631,32.98c12.498,12.496,12.498,32.762,0,45.26s-32.762,12.498-45.26,0     s-12.498-32.764,0-45.26C44.869,20.482,65.133,20.482,77.631,32.98L77.631,32.98z M69.557,41.055     c-8.039-8.039-21.072-8.039-29.111,0s-8.039,21.072,0,29.111s21.072,8.039,29.111,0S77.596,49.094,69.557,41.055z" fill="#E5E5E5" fill-rule="evenodd"/><g><path d="M87.004,55.609c0,17.676-14.328,32.004-32.004,32.004S22.996,73.285,22.996,55.609      c0-3.18,0.465-6.252,1.328-9.15c0.004,0.203,0.008,0.408,0.014,0.611c-0.434,5.197,1.318,10.686,4.793,15.48      c5.27,8.217,14.363,13.646,24.697,13.646c16.297,0,29.508-13.498,29.508-30.15c0-2.27-0.246-4.479-0.711-6.604      C85.408,44.188,87.004,49.713,87.004,55.609z" fill="#0A82A9" fill-rule="evenodd"/><path d="M30.16,35.434C36.027,28.217,44.975,23.607,55,23.607      c13.803,0,26.689,7.541,26.689,22.439c0,8.959-4.053,16.951-10.385,22.17c2.707-3.488,4.32-7.867,4.32-12.625      C75.625,34.178,44.586,22.742,30.16,35.434z" fill="#0A82A9" fill-rule="evenodd"/><path d="M40.682,70.4c-11.35-6.555-16.871-19.004-12.377-28.574      c4.713-10.039,18.66-13.107,31.15-6.857c0.682,0.34,1.344,0.701,1.986,1.082c-2.025-0.666-4.191-1.029-6.441-1.029      c-11.369,0-20.588,9.219-20.588,20.588C34.412,61.416,36.816,66.658,40.682,70.4z" fill="#0A82A9" fill-rule="evenodd"/></g></g></g></g></svg>