<?xml version="1.0" ?><!DOCTYPE svg  PUBLIC '-//W3C//DTD SVG 1.1//EN'  'http://www.w3.org/Graphics/SVG/1.1/DTD/svg11.dtd'><svg enable-background="new 0 0 1024 1024" height="1024px" id="Layer_1" version="1.1" viewBox="0 0 1024 1024" width="1024px" xml:space="preserve" xmlns="http://www.w3.org/2000/svg" xmlns:xlink="http://www.w3.org/1999/xlink"><g id="Background"><path d="M983.766,312.727c-25.785-60.972-62.694-115.728-109.705-162.744   C827.05,102.966,772.299,66.049,711.329,40.257C648.194,13.548,581.14,0.004,512,0c-69.104,0-136.155,13.54-199.289,40.243   c-60.969,25.787-115.721,62.699-162.735,109.71c-47.014,47.011-83.929,101.761-109.72,162.728   C13.548,375.814,0.004,442.865,0,511.97c-0.004,69.109,13.533,136.165,40.234,199.304   c25.785,60.973,62.696,115.728,109.707,162.743c47.011,47.018,101.762,83.935,162.732,109.727   c63.136,26.708,130.19,40.253,199.323,40.257h0.009c69.104,0,136.153-13.54,199.288-40.243   c60.969-25.787,115.72-62.699,162.733-109.709c47.013-47.01,83.929-101.76,109.72-162.728   c26.708-63.134,40.251-130.186,40.255-199.29C1024.004,442.921,1010.467,375.866,983.766,312.727z M512.004,976.328h-0.03   c-124.026-0.007-240.627-48.313-328.323-136.019C95.957,752.604,47.665,635.999,47.672,511.973   c0.015-256.016,208.312-464.3,464.356-464.3c124.026,0.007,240.626,48.312,328.32,136.017   c87.695,87.706,135.986,204.311,135.979,328.337C976.313,768.043,768.018,976.328,512.004,976.328z" fill="#262626"/></g><g id="Dailymotion"><path d="M588.135,188.5v191.667c0,0-49.333-68.667-147.333-53.667   c-42.271,6.47-84.707,24.195-117.319,52.147c-25.39,21.76-47.719,47.964-61.295,78.762c-8.092,18.354-14.451,39.559-16.904,59.516   c-9.865,80.268,20.014,172.016,87.937,219.709c19.356,13.592,43.987,27.799,66.831,34.379   c43.961,12.665,91.925,12.008,134.615-4.994c11.613-4.625,22.519-10.899,32.675-18.164c4.285-3.064,25.962-16.682,25.962-21.855   l-0.167,50.5l127.417-0.25v-616L588.135,188.5z M483.819,662.545c-61.306,0-111-49.696-111-111s49.694-111,111-111   c61.303,0,111,49.696,111,111S545.122,662.545,483.819,662.545z" fill="#262626" id="Dailymotion_1_"/></g></svg>