<?xml version="1.0" ?><!DOCTYPE svg  PUBLIC '-//W3C//DTD SVG 1.1//EN'  'http://www.w3.org/Graphics/SVG/1.1/DTD/svg11.dtd'><svg enable-background="new 0 0 1024 1024" height="1024px" id="Layer_1" version="1.1" viewBox="0 0 1024 1024" width="1024px" xml:space="preserve" xmlns="http://www.w3.org/2000/svg" xmlns:xlink="http://www.w3.org/1999/xlink"><g id="Background"><path d="M983.766,312.727c-25.785-60.972-62.694-115.728-109.705-162.744   C827.05,102.966,772.299,66.049,711.329,40.257C648.194,13.548,581.14,0.004,512,0c-69.104,0-136.155,13.54-199.289,40.243   c-60.969,25.787-115.721,62.699-162.735,109.71c-47.014,47.011-83.929,101.761-109.72,162.728   C13.548,375.814,0.004,442.865,0,511.97c-0.004,69.109,13.533,136.165,40.234,199.304   c25.785,60.973,62.696,115.728,109.707,162.743c47.011,47.018,101.762,83.935,162.732,109.727   c63.136,26.708,130.19,40.253,199.323,40.257h0.009c69.104,0,136.153-13.54,199.288-40.243   c60.969-25.787,115.72-62.699,162.733-109.709c47.013-47.01,83.929-101.76,109.72-162.728   c26.708-63.134,40.251-130.186,40.255-199.29C1024.004,442.921,1010.467,375.866,983.766,312.727z M512.004,976.328h-0.03   c-124.026-0.007-240.627-48.313-328.323-136.019C95.957,752.604,47.665,635.999,47.672,511.973   c0.015-256.016,208.312-464.3,464.356-464.3c124.026,0.007,240.626,48.312,328.32,136.017   c87.695,87.706,135.986,204.311,135.979,328.337C976.313,768.043,768.018,976.328,512.004,976.328z" fill="#262626"/></g><g id="Iconfinder"><path d="M513.38,436.646c-14.454,0-28.209,2.988-40.679,8.373c16.677,6.076,28.588,22.075,28.588,40.854   c0,24.01-19.464,43.472-43.472,43.472c-18.154,0-33.703-11.133-40.21-26.941c-4.333,11.317-6.717,23.602-6.717,36.44   c0,56.444,45.888,102.202,102.487,102.202c56.603,0,102.489-45.758,102.489-102.201   C615.868,482.402,569.982,436.646,513.38,436.646z" fill="#262626"/><path d="M781.816,461.414c-62.014-105.127-163.974-208.927-351.571-160.277c0,0,82.99-67.321,195.075-28.168   c112.085,39.153-88.285-99.034-112.084-99.034s-149.099,77.154-212.271,184.25C239.08,463.098,202.121,604.06,336.992,741.96   c-20.256-9.354-100.806-52.479-120.095-154.235c-22.113-116.646-41.646,125.969-29.751,146.58   c11.896,20.614,143.165,92.301,265.682,91.76c121.625-0.537,261.939-37.214,314.148-222.226   c2.037,22.303,4.953,113.536-73.432,181.113c-89.922,77.521,129.9-26.987,141.791-47.604   C847.232,716.736,841.834,563.16,781.816,461.414z M720.691,566.88c-3.354,13.444-8.08,25.934-13.988,37.475   c-0.053,0.113-0.104,0.227-0.159,0.341c-0.081,0.169-0.172,0.32-0.259,0.478c-78.336,151.048-359.398,138.237-403.064-38.617   c-12.396-46.051-3.521-76.938-3.521-76.938c34.489-28.798,71.574-46.598,104.945-57.588c23.28-8.231,49.395-13.864,77.256-16.244   c18.662-1.787,30.103-1.286,30.103-1.286h0.001c0,0,11.442-0.501,30.104,1.286c27.86,2.381,53.978,8.014,77.258,16.246   c33.37,10.988,70.452,28.79,104.939,57.585C724.306,489.616,733.224,520.648,720.691,566.88z" fill="#262626"/></g></svg>