<?xml version="1.0" ?><svg id="Multicolor" viewBox="0 0 100 112" xmlns="http://www.w3.org/2000/svg"><defs><style>.cls-1{fill:#fff0ed;}.cls-2{fill:#45413c;fill-opacity:0.15;}.cls-3{fill:#fff;}.cls-4{fill:#ff6196;}.cls-5{fill:#9f5ae5;}.cls-6,.cls-8{fill:#2d86fa;}.cls-7{fill:none;}.cls-7,.cls-8{stroke:#45413c;stroke-linecap:round;stroke-linejoin:round;}</style></defs><title/><g id="Scene"><g data-name="New Symbol 1" id="New_Symbol_1-39"><circle class="cls-1" cx="49.967" cy="55.948" r="40"/></g><ellipse class="cls-2" cx="49.964" cy="82.872" rx="15.525" ry="1.725"/><rect class="cls-3" height="40.449" rx="1" ry="1" width="64.35" x="17.79" y="30.723"/><path class="cls-4" d="M18.789,30.723h62.35a1,1,0,0,1,1,1V34.4a0,0,0,0,1,0,0H17.789a0,0,0,0,1,0,0V31.723A1,1,0,0,1,18.789,30.723Z"/><rect class="cls-4" height="3.679" width="64.35" x="17.79" y="38.077"/><rect class="cls-5" height="3.679" width="64.35" x="17.79" y="45.431"/><rect class="cls-5" height="3.679" width="64.35" x="17.79" y="52.785"/><rect class="cls-6" height="3.679" width="64.35" x="17.79" y="60.139"/><path class="cls-6" d="M17.79,67.493H82.14a0,0,0,0,1,0,0v2.679a1,1,0,0,1-1,1H18.79a1,1,0,0,1-1-1V67.493A0,0,0,0,1,17.79,67.493Z"/><rect class="cls-7" height="40.449" rx="1" ry="1" width="64.35" x="17.79" y="30.723"/><path class="cls-8" d="M18.79,30.724H46.252a0,0,0,0,1,0,0V50.335a0,0,0,0,1,0,0H17.79a0,0,0,0,1,0,0V31.724A1,1,0,0,1,18.79,30.724Z"/><path class="cls-3" d="M21.949,32.186a.2.2,0,0,1,.172-.1.2.2,0,0,1,.171.1l.652,1.083,1.231.285a.2.2,0,0,1,.106.326l-.829.954.11,1.259a.2.2,0,0,1-.278.2L22.121,35.8l-1.164.493a.2.2,0,0,1-.277-.2l.109-1.259-.828-.954a.2.2,0,0,1,.106-.326l1.231-.285Z"/><path class="cls-3" d="M21.949,38.314a.2.2,0,0,1,.172-.1.2.2,0,0,1,.171.1l.652,1.083,1.231.285a.2.2,0,0,1,.106.326l-.829.954.11,1.259a.2.2,0,0,1-.278.2l-1.163-.493-1.164.493a.2.2,0,0,1-.277-.2l.109-1.259-.828-.954a.2.2,0,0,1-.039-.193.2.2,0,0,1,.145-.133L21.3,39.4Z"/><path class="cls-3" d="M26.9,35.25a.2.2,0,0,1,.342,0l.652,1.083,1.231.285a.2.2,0,0,1,.106.326L28.4,37.9l.11,1.259a.2.2,0,0,1-.278.2l-1.163-.492-1.164.492a.2.2,0,0,1-.277-.2l.109-1.259-.828-.954a.2.2,0,0,1,.106-.326l1.231-.285Z"/><path class="cls-3" d="M26.9,41.379a.2.2,0,0,1,.342,0l.652,1.082,1.231.285a.2.2,0,0,1,.145.133.2.2,0,0,1-.039.193l-.829.955.11,1.258a.2.2,0,0,1-.278.2l-1.163-.493-1.164.493a.2.2,0,0,1-.277-.2l.109-1.258-.828-.955a.2.2,0,0,1-.039-.193.2.2,0,0,1,.145-.133l1.231-.285Z"/><path class="cls-3" d="M21.949,44.443a.2.2,0,0,1,.172-.1.2.2,0,0,1,.171.1l.652,1.083,1.231.285a.2.2,0,0,1,.145.133.2.2,0,0,1-.039.193l-.829.954.11,1.259a.2.2,0,0,1-.278.2l-1.163-.493-1.164.493a.2.2,0,0,1-.277-.2l.109-1.259-.828-.954a.2.2,0,0,1,.106-.326l1.231-.285Z"/><path class="cls-3" d="M31.85,32.186a.2.2,0,0,1,.342,0l.652,1.083,1.231.285a.2.2,0,0,1,.106.326l-.829.954.11,1.259a.2.2,0,0,1-.278.2L32.021,35.8l-1.164.493a.2.2,0,0,1-.277-.2l.109-1.259-.828-.954a.2.2,0,0,1,.106-.326l1.231-.285Z"/><path class="cls-3" d="M31.85,38.314a.2.2,0,0,1,.342,0l.652,1.083,1.231.285a.2.2,0,0,1,.145.133.2.2,0,0,1-.039.193l-.829.954.11,1.259a.2.2,0,0,1-.278.2l-1.163-.493-1.164.493a.2.2,0,0,1-.277-.2l.109-1.259-.828-.954a.2.2,0,0,1-.039-.193.2.2,0,0,1,.145-.133L31.2,39.4Z"/><path class="cls-3" d="M36.8,35.25a.2.2,0,0,1,.342,0l.652,1.083,1.231.285a.2.2,0,0,1,.106.326L38.3,37.9l.11,1.259a.2.2,0,0,1-.278.2l-1.163-.492-1.164.492a.2.2,0,0,1-.277-.2l.109-1.259-.828-.954a.2.2,0,0,1,.106-.326l1.231-.285Z"/><path class="cls-3" d="M36.8,41.379a.2.2,0,0,1,.342,0l.652,1.082,1.231.285a.2.2,0,0,1,.145.133.2.2,0,0,1-.039.193l-.829.955.11,1.258a.2.2,0,0,1-.278.2l-1.163-.493-1.164.493a.2.2,0,0,1-.277-.2l.109-1.258-.828-.955a.2.2,0,0,1-.039-.193.2.2,0,0,1,.145-.133l1.231-.285Z"/><path class="cls-3" d="M31.85,44.443a.2.2,0,0,1,.342,0l.652,1.083,1.231.285a.2.2,0,0,1,.106.326l-.829.954.11,1.259a.2.2,0,0,1-.278.2l-1.163-.493-1.164.493a.2.2,0,0,1-.277-.2l.109-1.259-.828-.954a.2.2,0,0,1,.106-.326l1.231-.285Z"/><path class="cls-3" d="M41.75,32.186a.2.2,0,0,1,.342,0l.652,1.083,1.231.285a.2.2,0,0,1,.106.326l-.829.954.11,1.259a.2.2,0,0,1-.278.2L41.921,35.8l-1.164.493a.2.2,0,0,1-.277-.2l.109-1.259-.828-.954a.2.2,0,0,1,.106-.326l1.231-.285Z"/><path class="cls-3" d="M41.75,38.314a.2.2,0,0,1,.342,0l.652,1.083,1.231.285a.2.2,0,0,1,.145.133.2.2,0,0,1-.039.193l-.829.954.11,1.259a.2.2,0,0,1-.278.2l-1.163-.493-1.164.493a.2.2,0,0,1-.277-.2l.109-1.259-.828-.954a.2.2,0,0,1-.039-.193.2.2,0,0,1,.145-.133L41.1,39.4Z"/><path class="cls-3" d="M41.75,44.443a.2.2,0,0,1,.342,0l.652,1.083,1.231.285a.2.2,0,0,1,.106.326l-.829.954.11,1.259a.2.2,0,0,1-.278.2l-1.163-.493-1.164.493a.2.2,0,0,1-.277-.2l.109-1.259-.828-.954a.2.2,0,0,1,.106-.326l1.231-.285Z"/></g></svg>