<?xml version="1.0" ?><svg id="Multicolor" viewBox="0 0 100 112" xmlns="http://www.w3.org/2000/svg"><defs><style>.cls-1{fill:#fff0ed;}.cls-2{fill:#45413c;fill-opacity:0.15;}.cls-3{fill:#fff;}.cls-4{fill:#bdbec0;}.cls-5{fill:#525252;}.cls-6{fill:#9f5ae5;}.cls-7{fill:#e0e0e0;}.cls-8{fill:#656769;}.cls-9{fill:#bf8df2;}.cls-10{fill:none;stroke:#45413c;stroke-linecap:round;stroke-linejoin:round;}</style></defs><title/><g id="Scene"><g data-name="New Symbol 1" id="New_Symbol_1-53"><circle class="cls-1" cx="50.636" cy="56.376" r="40"/></g><ellipse class="cls-2" cx="50.636" cy="83.3" rx="15.525" ry="1.725"/><path class="cls-3" d="M54.636,56.376a8.947,8.947,0,0,1-1.694,5.249h6.747a15.02,15.02,0,0,0,.09-10.25H53.116A8.946,8.946,0,0,1,54.636,56.376Z"/><path class="cls-3" d="M36.636,56.376a8.947,8.947,0,0,1,1.521-5H31.493a15.005,15.005,0,0,0,.092,10.25H38.33A8.954,8.954,0,0,1,36.636,56.376Z"/><path class="cls-4" d="M45.636,41.376a15.026,15.026,0,0,0-14.143,10h6.664a8.994,8.994,0,0,1,14.959,0h6.663a15.034,15.034,0,0,0-1.632-3.268l6.489-6.489v4.758a3,3,0,1,0,6,0V41.125H56.645L53.9,43.865A14.917,14.917,0,0,0,45.636,41.376Z"/><path class="cls-5" d="M70.636,34.376a3,3,0,0,0-3-3h-12a3,3,0,0,0,0,6h4.758l-3.749,3.749H70.636Z"/><path class="cls-6" d="M45.636,65.376a8.995,8.995,0,0,1-7.306-3.751H31.585a15,15,0,0,0,28.1,0H52.942A8.992,8.992,0,0,1,45.636,65.376Z"/><path class="cls-7" d="M53.537,43.63l-.119-.074-.091-.054c-.06-.037-.121-.072-.182-.108l-.118-.068-.1-.056-.11-.061-.1-.057-.121-.064-.087-.046-.21-.106-.057-.028-.163-.079L52,42.793l-.163-.076-.059-.026q-.23-.1-.464-.2l-.036-.015-.2-.08-.051-.02-.206-.077-.03-.011c-.125-.046-.251-.09-.378-.133l-.19-.063-.066-.02a15.088,15.088,0,0,0-10.386.5l-.05.021-.155.068c-.112.049-.222.1-.332.152l-.013.006q-.49.234-.96.5l-.054.031c-.084.048-.168.1-.251.147-.019.011-.038.022-.056.034q-.3.177-.582.369l-.066.045q-.111.075-.222.153l-.038.027-.036.025-.144.105-.091.066-.137.1-.09.069-.138.108-.089.07-.13.106-.092.076c-.043.036-.086.072-.128.109s-.06.051-.09.077l-.125.109-.09.08-.119.109-.093.086-.116.11-.091.087-.114.113-.089.088c-.038.038-.075.076-.112.115s-.058.059-.086.089-.075.079-.112.118l-.085.092-.107.118-.084.094-.1.117-.087.1-.1.12c-.026.033-.054.065-.081.1l-.1.123c-.027.034-.055.067-.081.1l-.091.117c-.028.038-.058.075-.086.112l-.087.116c-.027.037-.055.074-.082.112s-.064.088-.1.132l-.07.1-.094.137-.069.1-.091.136c-.021.034-.044.068-.066.1s-.06.095-.09.142l-.064.1c-.03.05-.06.1-.091.15l-.056.094-.092.158-.053.091c-.03.055-.06.11-.091.164l-.048.088c-.031.057-.061.116-.092.174l-.042.08c-.032.062-.064.125-.095.188-.012.023-.024.046-.035.069l-.1.2-.026.055c-.035.074-.068.148-.1.222l-.018.042q-.237.53-.433,1.082h3.118a16.13,16.13,0,0,1,1.743-2.608,16,16,0,0,1,17.232-5.106Z"/><path class="cls-8" d="M67.636,31.376h-12a3,3,0,0,0-3,3h0v.037c0,.033,0,.067,0,.1v.013l.005.065,0,.057c0,.033.007.064.011.1l.005.041c0,.029.008.058.013.087l.008.046c.005.03.011.061.018.09l.009.039c.017.073.036.144.057.215v0c.012.039.025.079.039.117a3,3,0,0,1,2.826-1.992h12a3,3,0,0,1,3,2.993V34.376A3,3,0,0,0,67.636,31.376Z"/><path class="cls-9" d="M34.32,65.875a16.016,16.016,0,0,1-1.359-4.25H31.588c.1.272.21.542.327.808.03.068.061.136.092.2l.013.028.06.126c.016.034.032.069.049.1s.044.089.066.134l.047.095.072.139.047.091.07.131.057.1c.023.042.045.083.069.125l.059.1.106.183c.029.049.058.1.088.146l.058.1.08.128.062.1.081.126.063.095.088.129.056.083.117.166.031.044c.105.145.212.289.322.43l.031.041.133.168.042.051c.02.026.042.052.063.078Z"/><path class="cls-10" d="M67.636,31.375h-12a3,3,0,1,0,0,6h4.758l-6.489,6.49a15.009,15.009,0,1,0,4.242,4.242l6.489-6.489v4.757a3,3,0,0,0,6,0v-12A3,3,0,0,0,67.636,31.375Zm-22,34a9,9,0,1,1,9-9A9.01,9.01,0,0,1,45.636,65.375Z"/></g></svg>