<?xml version="1.0" ?><svg id="Multicolor" viewBox="0 0 100 112" xmlns="http://www.w3.org/2000/svg"><defs><style>.cls-1{fill:#fff0ed;}.cls-2,.cls-3{fill:#dea47a;}.cls-2,.cls-5{stroke:#45413c;stroke-linecap:round;stroke-linejoin:round;}.cls-4{fill:#f0c2a1;}.cls-5{fill:none;}.cls-6{fill:#e0366f;}.cls-7{fill:#ff6196;}.cls-8{fill:#ff87af;}.cls-9{fill:#fff;}.cls-10{fill:#ff866e;}.cls-11{fill:#ff6242;}.cls-12{fill:#e04122;}.cls-13{fill:#45413c;fill-opacity:0.15;}</style></defs><title/><g id="Scene"><g data-name="New Symbol 1" id="New_Symbol_1-57"><circle class="cls-1" cx="50.013" cy="55.806" r="40"/></g><path class="cls-2" d="M46.716,75.76A1.835,1.835,0,1,1,43.229,76.9L29.336,34.536l3.487-1.144Z"/><path class="cls-3" d="M33.423,29.334a3.669,3.669,0,1,1-4.63-2.344A3.669,3.669,0,0,1,33.423,29.334Z"/><path class="cls-4" d="M26.512,31.8a3.67,3.67,0,0,1,6.849,0,3.67,3.67,0,1,0-6.912-.175C26.469,31.68,26.49,31.738,26.512,31.8Z"/><path class="cls-5" d="M33.423,29.334a3.669,3.669,0,1,1-4.63-2.344A3.669,3.669,0,0,1,33.423,29.334Z"/><path class="cls-6" d="M67.064,31.819a1.835,1.835,0,0,0-2.315-1.172l-12.2,4a3.67,3.67,0,0,1-4.631-2.344,3.669,3.669,0,0,0-4.63-2.343L29.336,34.535l1.176,3.585,13.947-4.574a3.669,3.669,0,0,1,4.63,2.344,3.67,3.67,0,0,0,4.631,2.343l12.2-4A1.835,1.835,0,0,1,68.239,35.4Z"/><path class="cls-7" d="M68.239,35.4a1.835,1.835,0,0,0-2.315-1.172l-12.2,4a3.669,3.669,0,0,1-4.63-2.343,3.67,3.67,0,0,0-4.63-2.344L30.512,38.12,31.687,41.7,45.635,37.13a3.669,3.669,0,0,1,4.63,2.344,3.668,3.668,0,0,0,4.63,2.343l12.2-4a1.835,1.835,0,0,1,2.315,1.173Z"/><path class="cls-8" d="M69.415,38.988A1.835,1.835,0,0,0,67.1,37.816l-12.2,4a3.669,3.669,0,0,1-4.63-2.344,3.671,3.671,0,0,0-4.631-2.344L31.687,41.7l1.176,3.584L46.81,40.715a3.67,3.67,0,0,1,4.631,2.343,3.669,3.669,0,0,0,4.63,2.344l12.2-4a1.834,1.834,0,0,1,2.315,1.172Z"/><path class="cls-9" d="M70.591,42.572A1.835,1.835,0,0,0,68.276,41.4l-12.2,4a3.671,3.671,0,0,1-4.631-2.344,3.668,3.668,0,0,0-4.63-2.343L32.863,45.288l1.176,3.584L47.986,44.3a3.67,3.67,0,0,1,4.63,2.343,3.671,3.671,0,0,0,4.631,2.344l12.2-4a1.835,1.835,0,0,1,2.315,1.172Z"/><path class="cls-10" d="M71.766,46.156a1.835,1.835,0,0,0-2.315-1.172l-12.2,4a3.67,3.67,0,0,1-4.63-2.344,3.669,3.669,0,0,0-4.63-2.343L34.039,48.872l1.175,3.585,13.948-4.574a3.669,3.669,0,0,1,4.63,2.344,3.669,3.669,0,0,0,4.63,2.343l12.2-4a1.835,1.835,0,0,1,2.315,1.172Z"/><path class="cls-11" d="M72.942,49.74a1.835,1.835,0,0,0-2.315-1.172l-12.2,4a3.669,3.669,0,0,1-4.63-2.343,3.671,3.671,0,0,0-4.631-2.344L35.214,52.457l1.176,3.584,13.947-4.574a3.671,3.671,0,0,1,4.631,2.344,3.668,3.668,0,0,0,4.63,2.343l12.2-4a1.835,1.835,0,0,1,2.315,1.173Z"/><path class="cls-12" d="M74.153,53.433l-.019-.057-.016-.052A1.831,1.831,0,0,0,71.8,52.153l-12.2,4a3.668,3.668,0,0,1-4.631-2.344l0-.012a3.67,3.67,0,0,0-4.626-2.332L36.39,56.041l1.176,3.584,13.947-4.573a3.669,3.669,0,0,1,4.63,2.343l.043.123,0,0a3.591,3.591,0,0,0,.152.354v0c.037.075.077.149.118.221l0,.006a3.3,3.3,0,0,0,.2.313h0a3.676,3.676,0,0,0,2.351,1.452l.081.013.017,0,.146.018.092.008h.005l.085.005h.014l.074,0h.212l.064,0,.031,0,.061,0,.034,0,.057,0,.037,0,.051-.006.046-.006.045-.006.046-.008.049-.008.045-.008.043-.009.051-.01.043-.01.049-.011.052-.014.04-.01.065-.018.027-.008.093-.029,12.2-4,0,0A1.833,1.833,0,0,0,74.153,53.433Z"/><path class="cls-5" d="M56.144,57.4a3.67,3.67,0,0,0-4.631-2.343L37.566,59.625l-8.23-25.089,13.948-4.574a3.669,3.669,0,0,1,4.63,2.344Z"/><path class="cls-5" d="M47.914,32.306a3.671,3.671,0,0,0,4.631,2.343l12.2-4a1.835,1.835,0,0,1,2.315,1.172l7.086,21.6a1.835,1.835,0,0,1-1.172,2.315l-12.2,4a3.669,3.669,0,0,1-4.63-2.344Z"/><ellipse class="cls-13" cx="50.016" cy="82.731" rx="15.525" ry="1.725"/></g></svg>