<?xml version="1.0" ?><svg id="Multicolor" viewBox="0 0 100 112" xmlns="http://www.w3.org/2000/svg" xmlns:xlink="http://www.w3.org/1999/xlink"><defs><style>.cls-1,.cls-13,.cls-6{fill:none;}.cls-2{fill:#fff0ed;}.cls-3{clip-path:url(#clip-path);}.cls-4{fill:#f0f0f0;}.cls-5{fill:#e0e0e0;}.cls-13,.cls-14,.cls-17,.cls-19,.cls-20,.cls-21,.cls-22,.cls-25,.cls-6,.cls-7,.cls-8{stroke:#45413c;stroke-linejoin:round;}.cls-17,.cls-20,.cls-21,.cls-22,.cls-25,.cls-6,.cls-7,.cls-8{stroke-linecap:round;}.cls-11,.cls-7{fill:#fff;}.cls-12,.cls-8{fill:#87898c;}.cls-20,.cls-9{fill:#d18660;}.cls-10{fill:#bd704a;}.cls-14{fill:#ff6196;}.cls-15{fill:#656769;}.cls-16{fill:#525252;}.cls-17,.cls-19{fill:#ff6242;}.cls-18{fill:#bdbec0;}.cls-21,.cls-23{fill:#724f3d;}.cls-22,.cls-24{fill:#a86c4d;}.cls-25,.cls-27{fill:#947063;}.cls-26{fill:#614b44;}</style><clipPath id="clip-path"><circle class="cls-1" cx="50.468" cy="56.027" r="40"/></clipPath></defs><title/><g id="Background"><g data-name="New Symbol 93" id="New_Symbol_93-3"><circle class="cls-2" cx="49.954" cy="56.027" r="40"/></g></g><g id="Scene"><g class="cls-3"><rect class="cls-4" height="16" width="19" x="58.458" y="83.055"/><rect class="cls-5" height="4.5" width="19" x="58.458" y="83.055"/><rect class="cls-6" height="16" width="19" x="58.458" y="83.055"/><line class="cls-6" x1="67.958" x2="67.958" y1="95.555" y2="88.555"/><path class="cls-7" d="M67.957,55.055a15.113,15.113,0,0,0-4.7.747l.041,27.253h9.329l.04-27.252A15.1,15.1,0,0,0,67.957,55.055Z"/><rect class="cls-8" height="6" width="19" x="58.458" y="77.055"/><line class="cls-6" x1="58.459" x2="77.458" y1="79.055" y2="79.055"/><line class="cls-6" x1="58.459" x2="77.489" y1="81.055" y2="81.055"/><line class="cls-6" x1="67.958" x2="67.958" y1="60.093" y2="77.055"/><path class="cls-9" d="M71.458,55.464V51.055h-7v4.408c-.3.072-.6.152-.891.24l4.39,4.39,4.39-4.39C72.055,55.615,71.758,55.535,71.458,55.464Z"/><path class="cls-10" d="M71.458,51.055h-7v4.462l1.2.355a8.078,8.078,0,0,0,4.6,0l1.2-.355Z"/><path class="cls-6" d="M71.458,55.464V51.055h-7v4.408c-.3.072-.6.152-.891.24l4.39,4.39,4.39-4.39C72.055,55.615,71.758,55.535,71.458,55.464Z"/><path class="cls-4" d="M82.958,70.17A15.021,15.021,0,0,0,72.672,55.806l-1.835,12.2a57.541,57.541,0,0,0,1.878,14.074,2.08,2.08,0,0,0,.642,1.041L76.411,85.8a1.43,1.43,0,0,0,1.888.007,14.108,14.108,0,0,0,4.661-10.6V70.169Z"/><path class="cls-11" d="M82.958,73.049l0,0V70.169h0A15.021,15.021,0,0,0,72.672,55.806l-.413,2.75A15.02,15.02,0,0,1,82.958,73.049Z"/><path class="cls-6" d="M82.958,70.17A15.021,15.021,0,0,0,72.672,55.806l-1.835,12.2a57.541,57.541,0,0,0,1.878,14.074,2.08,2.08,0,0,0,.642,1.041L76.411,85.8a1.43,1.43,0,0,0,1.888.007,14.108,14.108,0,0,0,4.661-10.6V70.169Z"/><path class="cls-12" d="M70.837,68.011a55.5,55.5,0,0,0,.994,10.118l4.045-11.558-2.16-5.038,2.88-.72-.571-3.425a15.056,15.056,0,0,0-3.353-1.582Z"/><path class="cls-13" d="M70.837,68.011a55.5,55.5,0,0,0,.994,10.118l4.045-11.558-2.16-5.038,2.88-.72-.571-3.425a15.056,15.056,0,0,0-3.353-1.582Z"/><path class="cls-6" d="M77.458,66.571v8.814c0,2.543-2.166,6.633-4.1,7.74"/><path class="cls-4" d="M52.958,70.17A15.021,15.021,0,0,1,63.245,55.806l1.834,12.2A57.54,57.54,0,0,1,63.2,82.085a2.08,2.08,0,0,1-.642,1.041L59.506,85.8a1.43,1.43,0,0,1-1.888.007,14.108,14.108,0,0,1-4.661-10.6V70.169Z"/><path class="cls-11" d="M52.958,73.049v-2.88h0A15.021,15.021,0,0,1,63.245,55.806l.413,2.75A15.021,15.021,0,0,0,52.958,73.049Z"/><path class="cls-6" d="M52.958,70.17A15.021,15.021,0,0,1,63.245,55.806l1.834,12.2A57.54,57.54,0,0,1,63.2,82.085a2.08,2.08,0,0,1-.642,1.041L59.506,85.8a1.43,1.43,0,0,1-1.888.007,14.108,14.108,0,0,1-4.661-10.6V70.169Z"/><path class="cls-12" d="M65.079,68.011a55.5,55.5,0,0,1-.993,10.118L60.041,66.571,62.2,61.533l-2.879-.72.571-3.425a15.056,15.056,0,0,1,3.353-1.582Z"/><path class="cls-13" d="M65.079,68.011a55.5,55.5,0,0,1-.993,10.118L60.041,66.571,62.2,61.533l-2.879-.72.571-3.425a15.056,15.056,0,0,1,3.353-1.582Z"/><path class="cls-6" d="M58.458,66.571l0,8.814c0,2.543,2.164,6.633,4.1,7.74"/><path class="cls-14" d="M67.958,61.533l.84-.72a5.128,5.128,0,0,1,2.45-1.307A1.451,1.451,0,0,1,73,60.916v1.233a1.451,1.451,0,0,1-1.749,1.411,5.137,5.137,0,0,1-2.45-1.307Z"/><path class="cls-14" d="M67.958,61.533l-.839-.72a5.127,5.127,0,0,0-2.451-1.307,1.45,1.45,0,0,0-1.748,1.41v1.233a1.451,1.451,0,0,0,1.748,1.411,5.135,5.135,0,0,0,2.451-1.307Z"/><circle class="cls-14" cx="67.958" cy="61.533" r="1.439"/><rect class="cls-15" height="16" width="19" x="22.968" y="83.527"/><rect class="cls-16" height="4.5" width="19" x="22.968" y="83.527"/><rect class="cls-6" height="16" width="19" x="22.968" y="83.527"/><line class="cls-6" x1="32.468" x2="32.468" y1="96.027" y2="89.027"/><path class="cls-7" d="M32.467,55.527a15.079,15.079,0,0,0-4.7.748L27.8,83.527h9.329l.04-27.252A15.1,15.1,0,0,0,32.467,55.527Z"/><rect class="cls-17" height="6" width="19" x="22.968" y="77.527"/><line class="cls-6" x1="22.968" x2="41.968" y1="79.527" y2="79.527"/><line class="cls-6" x1="22.968" x2="41.999" y1="81.527" y2="81.527"/><line class="cls-6" x1="32.468" x2="32.468" y1="60.565" y2="77.527"/><path class="cls-9" d="M35.968,55.936V51.527h-7v4.409q-.451.106-.891.24l4.39,4.389,4.39-4.389Q36.418,56.043,35.968,55.936Z"/><path class="cls-10" d="M35.968,51.527h-7v4.462l1.2.356a8.1,8.1,0,0,0,4.6,0l1.2-.356Z"/><path class="cls-6" d="M35.968,55.936V51.527h-7v4.409q-.451.106-.891.24l4.39,4.389,4.39-4.389Q36.418,56.043,35.968,55.936Z"/><path class="cls-15" d="M47.468,70.642A15.021,15.021,0,0,0,37.182,56.278L35.347,68.483a57.535,57.535,0,0,0,1.878,14.074,2.074,2.074,0,0,0,.642,1.041l3.053,2.673a1.429,1.429,0,0,0,1.888.007,14.1,14.1,0,0,0,4.662-10.6V70.641Z"/><path class="cls-12" d="M47.468,73.521h0V70.641h0A15.021,15.021,0,0,0,37.182,56.278l-.413,2.75A15.02,15.02,0,0,1,47.468,73.521Z"/><path class="cls-6" d="M47.468,70.642A15.021,15.021,0,0,0,37.182,56.278L35.347,68.483a57.535,57.535,0,0,0,1.878,14.074,2.074,2.074,0,0,0,.642,1.041l3.053,2.673a1.429,1.429,0,0,0,1.888.007,14.1,14.1,0,0,0,4.662-10.6V70.641Z"/><path class="cls-18" d="M35.347,68.483A55.577,55.577,0,0,0,36.34,78.6l4.046-11.558-2.16-5.038,2.879-.72-.57-3.425a15.056,15.056,0,0,0-3.353-1.582Z"/><path class="cls-13" d="M35.347,68.483A55.577,55.577,0,0,0,36.34,78.6l4.046-11.558-2.16-5.038,2.879-.72-.57-3.425a15.056,15.056,0,0,0-3.353-1.582Z"/><path class="cls-6" d="M41.968,67.043l0,8.814c0,2.543-2.163,6.633-4.1,7.741"/><path class="cls-15" d="M17.468,70.642A15.021,15.021,0,0,1,27.755,56.278l1.834,12.205a57.534,57.534,0,0,1-1.877,14.074,2.075,2.075,0,0,1-.643,1.041l-3.053,2.673a1.429,1.429,0,0,1-1.888.007,14.108,14.108,0,0,1-4.661-10.6V70.641Z"/><path class="cls-12" d="M17.468,73.521h0V70.641h0A15.021,15.021,0,0,1,27.755,56.278l.413,2.75A15.021,15.021,0,0,0,17.468,73.521Z"/><path class="cls-6" d="M17.468,70.642A15.021,15.021,0,0,1,27.755,56.278l1.834,12.205a57.534,57.534,0,0,1-1.877,14.074,2.075,2.075,0,0,1-.643,1.041l-3.053,2.673a1.429,1.429,0,0,1-1.888.007,14.108,14.108,0,0,1-4.661-10.6V70.641Z"/><path class="cls-18" d="M29.589,68.483A55.577,55.577,0,0,1,28.6,78.6L24.551,67.043l2.159-5.038-2.879-.72L24.4,57.86a15.035,15.035,0,0,1,3.353-1.582Z"/><path class="cls-13" d="M29.589,68.483A55.577,55.577,0,0,1,28.6,78.6L24.551,67.043l2.159-5.038-2.879-.72L24.4,57.86a15.035,15.035,0,0,1,3.353-1.582Z"/><path class="cls-6" d="M22.968,67.043l0,8.814c0,2.543,2.163,6.633,4.1,7.741"/><path class="cls-19" d="M32.468,62.005l.84-.72a5.128,5.128,0,0,1,2.45-1.307,1.451,1.451,0,0,1,1.749,1.411v1.232a1.451,1.451,0,0,1-1.749,1.411,5.128,5.128,0,0,1-2.45-1.307Z"/><path class="cls-19" d="M32.468,62.005l-.839-.72a5.127,5.127,0,0,0-2.451-1.307,1.451,1.451,0,0,0-1.748,1.411v1.232a1.451,1.451,0,0,0,1.748,1.411,5.127,5.127,0,0,0,2.451-1.307Z"/><circle class="cls-19" cx="32.468" cy="62.005" r="1.44"/></g><path class="cls-20" d="M42.468,41.527v-2.5a10,10,0,1,0-20,0v2.5a2,2,0,0,0,0,4c.042,0,.081-.01.123-.012a9.987,9.987,0,0,0,19.755,0c.041,0,.08.012.122.012a2,2,0,0,0,0-4Z"/><path class="cls-6" d="M37.968,42.527a1.629,1.629,0,0,0-3.008,0"/><path class="cls-6" d="M29.977,42.527a1.63,1.63,0,0,0-3.009,0"/><circle class="cls-10" cx="26.718" cy="45.777" r="1.25"/><circle class="cls-10" cx="38.218" cy="45.777" r="1.25"/><path class="cls-21" d="M32.468,57.527a12.746,12.746,0,0,0,4.421-.725,7.833,7.833,0,0,0,4.942-6.285l.5-4.99H41.9s-1.428,3.5-3.428,3.5c-2.061,0-3.5-2-6-2s-3.938,2-6,2c-2,0-3.428-3.5-3.428-3.5H22.6l.5,4.99A7.829,7.829,0,0,0,28.048,56.8,12.744,12.744,0,0,0,32.468,57.527Z"/><path class="cls-20" d="M32.468,52.583c-1.5,0-2.5,1-3,0-.806-1.613,1-3.5,3-3.5s3.806,1.887,3,3.5C34.968,53.583,33.968,52.583,32.468,52.583Z"/><path class="cls-22" d="M33.491,29.079a10.079,10.079,0,0,0-2.045,0,10,10,0,0,0-8.978,9.948v2.5a1.726,1.726,0,0,1,1.6,1.719,9.08,9.08,0,0,0,.213-4.065c1.054.351,2.787-1.151,2.787-1.151v-2.4a23.919,23.919,0,0,0,5.4,1.2,23.9,23.9,0,0,0,5.4-1.2v2.4s1.734,1.5,2.788,1.151a9.072,9.072,0,0,0,.212,4.065,1.727,1.727,0,0,1,1.6-1.719v-2.5A10,10,0,0,0,33.491,29.079Z"/><path class="cls-23" d="M29.374,37.628a3.5,3.5,0,0,0,4.645-1.709A7,7,0,0,0,30.6,26.628,6.5,6.5,0,0,0,21.974,29.8l-1.258,2.724c-.63,1.361-2.728.943-4.017.347a2.5,2.5,0,0,0,2.218,3.546l-.3.646a6.5,6.5,0,0,0,9.407,8.2l.019.01a3.5,3.5,0,0,1-1.709-4.645l1.048-2.27A1.5,1.5,0,0,1,29.374,37.628Z"/><path class="cls-24" d="M17.082,35.491c1.289.595,3.387,1.014,4.016-.348l1.258-2.723a6.5,6.5,0,0,1,8.627-3.175,6.973,6.973,0,0,1,3.672,4.06A7,7,0,0,0,30.6,26.628,6.5,6.5,0,0,0,21.974,29.8l-1.259,2.724c-.629,1.362-2.727.943-4.016.347a2.494,2.494,0,0,0,.368,2.661C17.073,35.52,17.076,35.505,17.082,35.491Z"/><path class="cls-6" d="M29.374,37.628a3.5,3.5,0,0,0,4.645-1.709A7,7,0,0,0,30.6,26.628,6.5,6.5,0,0,0,21.974,29.8l-1.258,2.724c-.63,1.361-2.728.943-4.017.347a2.5,2.5,0,0,0,2.218,3.546l-.3.646a6.5,6.5,0,0,0,9.407,8.2l.019.01a3.5,3.5,0,0,1-1.709-4.645l1.048-2.27A1.5,1.5,0,0,1,29.374,37.628Z"/><path class="cls-20" d="M77.967,41.027v-2.5a10,10,0,0,0-20,0v2.5a2,2,0,0,0,0,4c.042,0,.081-.01.122-.013a9.987,9.987,0,0,0,19.755,0c.042,0,.081.013.123.013a2,2,0,0,0,0-4Z"/><path class="cls-6" d="M64.95,47.823a4.361,4.361,0,0,0,6.017,0"/><path class="cls-6" d="M73.467,42.027a1.63,1.63,0,0,0-3.009,0"/><path class="cls-6" d="M65.475,42.027a1.629,1.629,0,0,0-3.008,0"/><circle class="cls-10" cx="62.217" cy="45.277" r="1.25"/><circle class="cls-10" cx="73.717" cy="45.277" r="1.25"/><path class="cls-25" d="M68.989,28.578c-.336-.033-.677-.051-1.022-.051s-.686.018-1.023.051a10,10,0,0,0-8.977,9.949v2.5a1.726,1.726,0,0,1,1.6,1.719,9.075,9.075,0,0,0,.212-4.066c1.055.352,2.788-1.15,2.788-1.15v-2.4a23.9,23.9,0,0,0,5.4,1.2,23.919,23.919,0,0,0,5.4-1.2v2.4s1.733,1.5,2.787,1.15a9.083,9.083,0,0,0,.213,4.066,1.725,1.725,0,0,1,1.6-1.719v-2.5A10,10,0,0,0,68.989,28.578Z"/><path class="cls-26" d="M77.967,26.527a1,1,0,0,0-1-1,1,1,0,0,0-1-1,1,1,0,0,0-2,0,.872.872,0,0,0-.135.027.973.973,0,0,0-1.73,0,.351.351,0,0,0-.27,0,.973.973,0,0,0-1.73,0,.872.872,0,0,0-.135-.027,1,1,0,0,0-1,1,1,1,0,0,0-2,0,1,1,0,0,0-1-1,.872.872,0,0,0-.135.027.973.973,0,0,0-1.73,0,.351.351,0,0,0-.27,0,.973.973,0,0,0-1.73,0,.872.872,0,0,0-.135-.027,1,1,0,0,0-2,0,1,1,0,0,0-1,1,1,1,0,0,0-1,1,.989.989,0,0,0,.527.865.872.872,0,0,0-.027.135.974.974,0,0,0,.147.491.97.97,0,0,0-.147.509.994.994,0,0,0,.645.928l.155,4.159,3.3,1.513a23.9,23.9,0,0,0,5.4,1.2,23.919,23.919,0,0,0,5.4-1.2l3.3-1.513.154-4.159a1,1,0,0,0,.646-.928.962.962,0,0,0-.148-.509.965.965,0,0,0,.148-.491,1.008,1.008,0,0,0-.027-.135A.989.989,0,0,0,77.967,26.527Z"/><path class="cls-27" d="M77.967,26.527a1,1,0,0,0-1-1,1,1,0,0,0-1-1,1,1,0,0,0-2,0,.872.872,0,0,0-.135.027.973.973,0,0,0-1.73,0,.351.351,0,0,0-.27,0,.973.973,0,0,0-1.73,0,.872.872,0,0,0-.135-.027,1,1,0,0,0-1,1,1,1,0,0,0-2,0,1,1,0,0,0-1-1,.872.872,0,0,0-.135.027.973.973,0,0,0-1.73,0,.351.351,0,0,0-.27,0,.973.973,0,0,0-1.73,0,.872.872,0,0,0-.135-.027,1,1,0,0,0-2,0,1,1,0,0,0-1,1,1,1,0,0,0-1,1,.989.989,0,0,0,.527.865.872.872,0,0,0-.027.135.974.974,0,0,0,.147.491.97.97,0,0,0-.147.509c0,.037.013.07.016.106a.943.943,0,0,1,.934-.866.95.95,0,0,1,.95-.95.95.95,0,0,1,1.9,0,.785.785,0,0,1,.128.026.925.925,0,0,1,1.644,0,.785.785,0,0,1,.128-.026.807.807,0,0,1,.128.026.925.925,0,0,1,1.644,0,.785.785,0,0,1,.128-.026.95.95,0,0,1,.95.95.95.95,0,0,1,1.9,0,.95.95,0,0,1,.95-.95.807.807,0,0,1,.128.026.925.925,0,0,1,1.644,0,.328.328,0,0,1,.256,0,.925.925,0,0,1,1.644,0,.785.785,0,0,1,.128-.026.95.95,0,0,1,1.9,0,.95.95,0,0,1,.95.95.941.941,0,0,1,.933.866.936.936,0,0,0,.017-.106.962.962,0,0,0-.148-.509.965.965,0,0,0,.148-.491,1.008,1.008,0,0,0-.027-.135A.989.989,0,0,0,77.967,26.527Z"/><path class="cls-6" d="M77.967,26.527a1,1,0,0,0-1-1,1,1,0,0,0-1-1,1,1,0,0,0-2,0,.872.872,0,0,0-.135.027.973.973,0,0,0-1.73,0,.351.351,0,0,0-.27,0,.973.973,0,0,0-1.73,0,.872.872,0,0,0-.135-.027,1,1,0,0,0-1,1,1,1,0,0,0-2,0,1,1,0,0,0-1-1,.872.872,0,0,0-.135.027.973.973,0,0,0-1.73,0,.351.351,0,0,0-.27,0,.973.973,0,0,0-1.73,0,.872.872,0,0,0-.135-.027,1,1,0,0,0-2,0,1,1,0,0,0-1,1,1,1,0,0,0-1,1,.989.989,0,0,0,.527.865.872.872,0,0,0-.027.135.974.974,0,0,0,.147.491.97.97,0,0,0-.147.509.994.994,0,0,0,.645.928l.155,4.159,3.3,1.513a23.9,23.9,0,0,0,5.4,1.2,23.919,23.919,0,0,0,5.4-1.2l3.3-1.513.154-4.159a1,1,0,0,0,.646-.928.962.962,0,0,0-.148-.509.965.965,0,0,0,.148-.491,1.008,1.008,0,0,0-.027-.135A.989.989,0,0,0,77.967,26.527Z"/></g></svg>