<?xml version="1.0" ?><svg id="Multicolor" viewBox="0 0 100 112" xmlns="http://www.w3.org/2000/svg"><defs><style>.cls-1{fill:#fff0ed;}.cls-2{fill:#ff6196;}.cls-3{fill:#e0366f;}.cls-4{fill:#ff87af;}.cls-5{fill:#fff;}.cls-6{fill:#ff866e;}.cls-7{fill:#ff6242;}.cls-8{fill:#e04122;}.cls-9{fill:none;stroke:#45413c;stroke-linecap:round;stroke-linejoin:round;}.cls-10{fill:#45413c;fill-opacity:0.15;}</style></defs><title/><g id="Scene"><g data-name="New Symbol 1" id="New_Symbol_1-63"><circle class="cls-1" cx="49.955" cy="56" r="40"/></g><polygon class="cls-2" points="63.959 41.242 63.201 42 63.959 42 63.959 41.242"/><path class="cls-3" d="M69.959,34a3,3,0,0,0-3-3h-12a3,3,0,0,0-2.235,5H69.959Z"/><path class="cls-2" d="M54.959,37h4.758l-5,5H63.2l.758-.758V42h6V36H52.724A2.99,2.99,0,0,0,54.959,37Z"/><path class="cls-2" d="M44.959,41a14.922,14.922,0,0,0-5.387,1H50.346A14.918,14.918,0,0,0,44.959,41Z"/><path class="cls-4" d="M63.959,46a2.989,2.989,0,0,0,.765,2h4.471a2.988,2.988,0,0,0,.764-2V42h-6Z"/><path class="cls-4" d="M63.2,42H54.717l-1.49,1.49A14.91,14.91,0,0,0,50.346,42H39.572a15.092,15.092,0,0,0-7.3,6h8.564a8.989,8.989,0,0,1,8.241,0h8.563c-.057-.09-.115-.18-.174-.268Z"/><path class="cls-5" d="M40.839,48H32.275a14.909,14.909,0,0,0-2.183,6h6.091A9.036,9.036,0,0,1,40.839,48Z"/><path class="cls-5" d="M66.959,49a2.99,2.99,0,0,0,2.236-1H64.724A2.99,2.99,0,0,0,66.959,49Z"/><path class="cls-5" d="M53.735,54h6.091a14.909,14.909,0,0,0-2.183-6H49.08A9.032,9.032,0,0,1,53.735,54Z"/><path class="cls-6" d="M35.959,56a9.028,9.028,0,0,1,.224-2H30.092a15.165,15.165,0,0,0-.133,2,14.958,14.958,0,0,0,.542,4h6.4A8.943,8.943,0,0,1,35.959,56Z"/><path class="cls-6" d="M53.959,56a8.942,8.942,0,0,1-.939,4h6.4a15.073,15.073,0,0,0,.408-6H53.735A8.969,8.969,0,0,1,53.959,56Z"/><path class="cls-7" d="M44.959,65a9.009,9.009,0,0,1-8.06-5H30.5a14.97,14.97,0,0,0,3.288,6H56.13a14.97,14.97,0,0,0,3.288-6h-6.4A9.009,9.009,0,0,1,44.959,65Z"/><path class="cls-8" d="M44.959,71A14.966,14.966,0,0,0,56.13,66H33.789A14.965,14.965,0,0,0,44.959,71Z"/><path class="cls-9" d="M66.959,31h-12a3,3,0,0,0,0,6h4.758l-6.49,6.49a15.006,15.006,0,1,0,4.243,4.242l6.489-6.49V46a3,3,0,0,0,6,0V34A3,3,0,0,0,66.959,31Zm-22,34a9,9,0,1,1,9-9A9.01,9.01,0,0,1,44.959,65Z"/><ellipse class="cls-10" cx="50.404" cy="82.55" rx="15.525" ry="1.725"/></g></svg>