<?xml version="1.0" ?><svg id="Multicolor" viewBox="0 0 100 112" xmlns="http://www.w3.org/2000/svg"><defs><style>.cls-1{fill:#fff0ed;}.cls-2{fill:#45413c;fill-opacity:0.15;}.cls-3{fill:#fff;}.cls-4{fill:#ffb0ca;}.cls-5{fill:#80ddff;}.cls-6{fill:none;stroke:#656769;stroke-linecap:round;stroke-linejoin:round;}</style></defs><title/><g id="Scene"><circle class="cls-1" cx="50" cy="56" r="40"/><ellipse class="cls-2" cx="50" cy="87.73" rx="15.52" ry="1.73"/><path class="cls-3" d="M67.66,53.5a17.6,17.6,0,0,1-.77,5.16h8.25a25.79,25.79,0,0,0,0-10.25H66.91A17.61,17.61,0,0,1,67.66,53.5Z"/><polygon class="cls-3" points="54 48.41 46 48.41 46 51.84 39.18 58.66 60.81 58.66 54 51.84 54 48.41"/><path class="cls-3" d="M32.34,53.5a17.59,17.59,0,0,1,.75-5.09H24.85a25.79,25.79,0,0,0,0,10.25h8.25A17.6,17.6,0,0,1,32.34,53.5Z"/><path class="cls-4" d="M33.09,48.41a17.74,17.74,0,0,1,8.18-10.25H29.44a25.55,25.55,0,0,0-4.6,10.25Z"/><path class="cls-4" d="M66.91,48.41h8.24a25.55,25.55,0,0,0-4.6-10.25H58.73A17.74,17.74,0,0,1,66.91,48.41Z"/><rect class="cls-4" height="10.25" width="8" x="46" y="38.16"/><path class="cls-5" d="M46,36.3v1.86h8V36.3a17.54,17.54,0,0,1,4.73,1.86H70.55a25.63,25.63,0,0,0-41.11,0H41.26A17.54,17.54,0,0,1,46,36.3Z"/><path class="cls-4" d="M65,62.83l-4.17-4.17H39.18L35,62.83a17.57,17.57,0,0,1-1.9-4.17H24.86a25.56,25.56,0,0,0,4.63,10.25H41.38l-.71-.42L50,59.16l9.33,9.33-.71.42H70.5a25.55,25.55,0,0,0,4.63-10.25H66.89A17.59,17.59,0,0,1,65,62.83Z"/><path class="cls-5" d="M50,71.16a17.54,17.54,0,0,1-8.62-2.25H29.49a25.8,25.8,0,0,0,2.22,2.58l.14.15.15.15a25.61,25.61,0,0,0,36,0l.16-.15.15-.16a25.87,25.87,0,0,0,2.21-2.57H58.62A17.54,17.54,0,0,1,50,71.16Z"/><path class="cls-6" d="M68.29,71.48a25.66,25.66,0,1,0-36.57,0l.14.15.15.15a25.61,25.61,0,0,0,36,0l.16-.15Zm-.63-18A17.55,17.55,0,0,1,65,62.83l-11-11V36.3A17.69,17.69,0,0,1,67.66,53.5ZM46,36.3V51.84l-11,11A17.65,17.65,0,0,1,46,36.3ZM40.67,68.49,50,59.16l9.33,9.33a17.63,17.63,0,0,1-18.66,0Z"/></g></svg>