<?xml version="1.0" ?><svg id="Multicolor" viewBox="0 0 100 112" xmlns="http://www.w3.org/2000/svg"><defs><style>.cls-1{fill:#fff0ed;}.cls-2{fill:#45413c;fill-opacity:0.15;}.cls-3{fill:#fff;}.cls-4{fill:#bdbec0;}.cls-5{fill:#525252;}.cls-6{fill:#9f5ae5;}.cls-7{fill:none;stroke:#45413c;stroke-linecap:round;stroke-linejoin:round;}</style></defs><title/><g id="Scene"><g data-name="New Symbol 1" id="New_Symbol_1-31"><circle class="cls-1" cx="50.186" cy="55.806" r="40"/></g><ellipse class="cls-2" cx="50.186" cy="82.732" rx="15.525" ry="1.725"/><rect class="cls-3" height="52" transform="translate(-9.496 109.868) rotate(-90)" width="8.75" x="45.811" y="33.682"/><rect class="cls-4" height="52" transform="translate(-0.746 101.118) rotate(-90)" width="8.75" x="45.811" y="24.932"/><path class="cls-5" d="M45.811,16.182h7.75a1,1,0,0,1,1,1v50a1,1,0,0,1-1,1h-7.75a0,0,0,0,1,0,0v-52A0,0,0,0,1,45.811,16.182Z" transform="translate(8.004 92.368) rotate(-90)"/><path class="cls-6" d="M45.811,42.432h7.75a1,1,0,0,1,1,1v50a1,1,0,0,1-1,1h-7.75a0,0,0,0,1,0,0v-52A0,0,0,0,1,45.811,42.432Z" transform="translate(118.618 18.246) rotate(90)"/><rect class="cls-7" height="35" rx="1" ry="1" width="52" x="24.186" y="37.807"/></g></svg>