<?xml version="1.0" ?><svg id="Multicolor" viewBox="0 0 100 112" xmlns="http://www.w3.org/2000/svg"><defs><style>.cls-1{fill:#fff0ed;}.cls-2{fill:#ff6242;}.cls-3{fill:#ff8a14;}.cls-4{fill:#ffe500;}.cls-5{fill:#6dd627;}.cls-6{fill:#00b8f0;}.cls-7{fill:#9f5ae5;}.cls-8{fill:#ff866e;}.cls-9{fill:#ffaa54;}.cls-10{fill:#fff48c;}.cls-11{fill:#9ceb60;}.cls-12{fill:#4acfff;}.cls-13{fill:#bf8df2;}.cls-14{fill:none;stroke:#45413c;stroke-linecap:round;stroke-linejoin:round;}.cls-15{fill:#45413c;fill-opacity:0.15;}</style></defs><title/><g id="Scene"><g data-name="New Symbol 1" id="New_Symbol_1-21"><circle class="cls-1" cx="49.959" cy="56" r="40"/></g><path class="cls-2" d="M66.959,31h-12A3,3,0,0,0,53.3,36.5H69.959V34A3,3,0,0,0,66.959,31Z"/><path class="cls-3" d="M54.959,37h4.758l-6.49,6.49a14.973,14.973,0,0,0-16.915.259H61.451l2.508-2.507v2.507h6V36.5H53.3A2.985,2.985,0,0,0,54.959,37Z"/><path class="cls-4" d="M30.816,51h6.663a8.994,8.994,0,0,1,14.959,0H59.1a14.959,14.959,0,0,0-1.632-3.267l3.982-3.983H36.312A15.073,15.073,0,0,0,30.816,51Z"/><path class="cls-4" d="M63.959,46a3,3,0,0,0,6,0V43.749h-6Z"/><path class="cls-5" d="M35.959,56a8.948,8.948,0,0,1,1.52-5H30.816a15.056,15.056,0,0,0-.689,7.25h6.116A8.971,8.971,0,0,1,35.959,56Z"/><path class="cls-5" d="M53.959,56a8.972,8.972,0,0,1-.285,2.249H59.79A15.017,15.017,0,0,0,59.1,51H52.438A8.949,8.949,0,0,1,53.959,56Z"/><path class="cls-6" d="M44.959,65a9.017,9.017,0,0,1-8.716-6.751H30.127a14.942,14.942,0,0,0,3.231,7.25h23.2a14.933,14.933,0,0,0,3.231-7.25H53.674A9.016,9.016,0,0,1,44.959,65Z"/><path class="cls-7" d="M44.959,71a14.977,14.977,0,0,0,11.6-5.5h-23.2A14.979,14.979,0,0,0,44.959,71Z"/><path class="cls-8" d="M66.959,31h-12a3,3,0,0,0-3,3h0c0,.04,0,.08,0,.12l0,.03.006.093,0,.029c.006.081.017.16.03.238l0,.018c.007.037.013.074.021.111l0,.007q.027.121.063.24l0,0q.018.059.039.117a3,3,0,0,1,2.826-1.993h12a3,3,0,0,1,3,3V34A3,3,0,0,0,66.959,31Z"/><path class="cls-9" d="M41.929,43.749a16.058,16.058,0,0,1,10.981-.463,14.906,14.906,0,0,0-3.037-1.459l-.008,0-.09-.03-.24-.079-.029-.009a15.088,15.088,0,0,0-10.421.493l-.011.005-.188.082a14.962,14.962,0,0,0-2.574,1.464Z"/><path class="cls-10" d="M30.816,51h3.117a16.128,16.128,0,0,1,1.744-2.607,15.932,15.932,0,0,1,6.252-4.643H36.312A15.073,15.073,0,0,0,30.816,51Z"/><path class="cls-11" d="M30.134,58.249h1.92A15.945,15.945,0,0,1,33.933,51H30.816q-.093.261-.175.526l-.027.085-.035.118c-.022.075-.044.151-.065.227l-.008.026A15.083,15.083,0,0,0,30.134,58.249Z"/><path class="cls-12" d="M33.642,65.5a16.068,16.068,0,0,1-1.588-7.25h-1.92a15.079,15.079,0,0,0,1.109,3.821l0,.008c.032.071.064.141.1.212A15,15,0,0,0,33.358,65.5Z"/><path class="cls-13" d="M33.358,65.5q.332.405.69.784c-.143-.258-.278-.52-.406-.784Z"/><path class="cls-14" d="M66.959,31h-12a3,3,0,0,0,0,6h4.758l-6.49,6.49a15.012,15.012,0,1,0,4.242,4.242l6.49-6.49V46a3,3,0,0,0,6,0V34A3,3,0,0,0,66.959,31Zm-22,34a9,9,0,1,1,9-9A9.01,9.01,0,0,1,44.959,65Z"/><ellipse class="cls-15" cx="50.404" cy="82.55" rx="15.525" ry="1.725"/></g></svg>