<?xml version="1.0" ?><svg id="Multicolor" viewBox="0 0 100 112" xmlns="http://www.w3.org/2000/svg"><defs><style>.cls-1{fill:#fff0ed;}.cls-2{fill:#45413c;fill-opacity:0.15;}.cls-3{fill:#e0366f;}.cls-4{fill:#ff6196;}.cls-5{fill:#ff87af;}.cls-6{fill:#fff;}.cls-7{fill:#ff866e;}.cls-8{fill:#ff6242;}.cls-9{fill:#e04122;}.cls-10{fill:none;stroke:#45413c;stroke-linecap:round;stroke-linejoin:round;}</style></defs><title/><g id="Scene"><g data-name="New Symbol 1" id="New_Symbol_1-65"><circle class="cls-1" cx="50.041" cy="55.799" r="40"/></g><ellipse class="cls-2" cx="50.041" cy="82.723" rx="15.525" ry="1.725"/><path class="cls-3" d="M50.042,30.8a8.991,8.991,0,0,1,2.215.276h9.98a14.987,14.987,0,0,0-24.391,0h9.98A8.993,8.993,0,0,1,50.042,30.8Z"/><path class="cls-4" d="M58.92,38.325h6.049a14.907,14.907,0,0,0-2.732-7.25h-9.98A9.025,9.025,0,0,1,58.92,38.325Z"/><path class="cls-4" d="M41.163,38.325a9.025,9.025,0,0,1,6.663-7.25h-9.98a14.918,14.918,0,0,0-2.733,7.25Z"/><path class="cls-5" d="M59.042,39.8a8.962,8.962,0,0,1-2.1,5.776h6.947A14.918,14.918,0,0,0,65.042,39.8q0-.747-.073-1.474H58.92A8.948,8.948,0,0,1,59.042,39.8Z"/><path class="cls-5" d="M41.042,39.8a9.059,9.059,0,0,1,.121-1.474h-6.05q-.07.727-.071,1.474A14.917,14.917,0,0,0,36.2,45.575h6.947A8.961,8.961,0,0,1,41.042,39.8Z"/><path class="cls-6" d="M50.042,48.8a8.988,8.988,0,0,1-6.9-3.224H36.2a15.1,15.1,0,0,0,6.412,7.25H57.473a15.1,15.1,0,0,0,6.412-7.25H56.938A8.986,8.986,0,0,1,50.042,48.8Z"/><path class="cls-7" d="M47.042,54.5v5.578h6V54.5a14.9,14.9,0,0,0,4.431-1.672H42.61A14.894,14.894,0,0,0,47.042,54.5Z"/><path class="cls-8" d="M47.042,60.8h-3a3,3,0,1,0,0,6h3v.526h6V66.8h3a3,3,0,0,0,0-6h-3v-.724h-6Z"/><path class="cls-9" d="M47.042,70.8a3,3,0,0,0,6,0V67.325h-6Z"/><path class="cls-4" d="M37.855,31.062l-.009.013H40.34a16,16,0,0,1,19.4,0h2.494l-.009-.013c-.036-.051-.073-.1-.11-.151l-.023-.032c-.079-.107-.16-.212-.242-.316l-.014-.019-.11-.138-.037-.046-.112-.136-.03-.036-.122-.144-.02-.023c-.13-.15-.262-.3-.4-.443l-.042-.046-.07-.074-.068-.07c-.09-.094-.182-.187-.275-.278l-.05-.049-.108-.1-.058-.056-.108-.1-.049-.045-.122-.111-.017-.015h0c-.048-.043-.1-.086-.145-.128l-.016-.015-.019-.016-.131-.112-.02-.017c-.106-.09-.213-.178-.322-.265l-.005,0-.134-.106-.058-.045-.127-.1L59,27.772l-.129-.1-.019-.013-.156-.113-.061-.042-.115-.08-.022-.015-.092-.062-.049-.034-.04-.026c-.111-.074-.223-.146-.335-.217l-.037-.023-.147-.09-.046-.027-.149-.089-.085-.049-.122-.07-.028-.015c-.05-.029-.1-.057-.151-.084l-.027-.015-.04-.022-.109-.058-.043-.023-.06-.031c-.093-.048-.186-.1-.28-.141L56.6,26.31l-.005,0-.155-.075-.051-.024-.142-.065-.065-.03-.136-.06-.1-.043-.107-.046-.02-.008-.116-.048-.109-.044-.009,0c-.123-.049-.247-.1-.372-.143l-.013,0-.038-.014-.115-.04-.095-.034-.087-.03-.157-.052-.01,0-.105-.034-.109-.034-.1-.032-.119-.035-.127-.037-.085-.023-.12-.033L53.9,25.3l-.123-.032c-.072-.018-.144-.037-.216-.054l-.094-.023-.067-.015-.009,0-.165-.037-.09-.019-.158-.033-.092-.018-.133-.025-.131-.023L52.5,25l-.092-.015-.022,0-.151-.022-.084-.013h-.006c-.07-.009-.139-.019-.21-.027l-.074-.01-.2-.022h-.008l-.113-.011-.132-.013-.031,0-.083-.007c-.051,0-.1-.009-.153-.012l-.122-.008-.093-.006-.112-.006h-.007l-.166-.007-.09,0-.166,0h-.11c-.072,0-.144,0-.215,0h-.04c-.072,0-.143,0-.215,0H49.7l-.166,0-.09,0-.165.007h-.007l-.113.006-.092.006-.122.008c-.052,0-.1.008-.154.012l-.083.007-.031,0-.132.013-.113.011h-.007l-.2.022-.074.01c-.07.008-.14.018-.21.027h-.005l-.084.013-.152.022-.022,0L47.587,25l-.126.021-.13.023-.136.026-.089.017-.162.034c-.029.006-.057.011-.085.018l-.173.038-.07.016-.1.025c-.068.017-.135.033-.2.051-.042.01-.085.021-.127.033l-.035.009-.115.031-.09.026c-.042.011-.083.023-.124.036l-.123.036-.1.03-.118.036-.1.032-.012,0-.165.054-.077.027-.114.04-.095.034-.042.015-.031.012-.152.057-.006,0-.162.063-.048.019-.089.037-.131.054-.027.012-.093.039-.112.049-.123.054-.085.038-.121.057-.072.034L43.5,26.3l-.012.006-.083.041c-.07.035-.14.07-.209.106l-.1.052-.058.031-.133.072-.04.022-.109.06-.064.036-.1.055,0,0c-.037.02-.073.041-.109.063l-.132.078-.069.042-.124.076-.062.039-.146.092-.005,0-.162.107-.046.03-.095.064L41.6,27.4l-.053.037-.036.025-.13.091-.122.088-.054.039-.106.078-.095.071-.1.08-.093.072-.1.08-.07.056-.085.07-.032.026c-.046.037-.092.076-.137.114l-.033.028-.148.127-.035.031-.094.082-.035.032-.028.025-.093.085-.076.07-.083.077-.085.081-.084.081-.075.074-.112.11-.065.068-.055.055-.026.027-.128.135,0,0c-.022.022-.043.045-.064.068l-.022.024-.083.089-.018.021-.138.153,0,0-.078.09c-.024.027-.047.054-.07.082-.038.043-.075.087-.112.131l-.039.047-.1.128-.045.056-.1.129-.023.03c-.08.1-.158.2-.236.308l-.023.032C37.928,30.961,37.891,31.011,37.855,31.062Z"/><path class="cls-5" d="M59.743,31.075a16.066,16.066,0,0,1,5.179,6.833l-.01-.081v-.006q-.015-.118-.033-.237l0-.016a14.818,14.818,0,0,0-.493-2.167v0c-.023-.075-.047-.149-.071-.224l-.008-.023c-.048-.15-.1-.3-.152-.446l0-.007q-.165-.453-.358-.895l-.007-.016q-.193-.439-.413-.864l0,0c-.036-.069-.072-.138-.11-.208l0-.009q-.111-.2-.226-.4L63,32.248c-.074-.125-.148-.249-.225-.372l0-.006q-.186-.3-.385-.586l-.026-.037c-.012-.018-.025-.035-.037-.052l-.057-.081-.028-.039Z"/><path class="cls-5" d="M40.34,31.075H37.846l-.029.041c-.016.021-.03.042-.045.063s-.032.045-.047.068l-.029.04-.118.173-.007.011v0c-.083.123-.163.247-.242.373l-.023.037c-.039.063-.078.126-.116.19l-.006.008-.078.132-.057.1c-.032.053-.063.107-.093.161l-.02.036c-.031.055-.06.109-.09.164l-.032.059c-.027.051-.054.1-.08.153l-.029.054-.008.015-.078.154-.009.019c-.01.02-.02.039-.029.058-.026.052-.051.1-.076.157l-.01.019c-.023.048-.045.1-.067.145l-.018.038-.024.051c-.022.048-.044.1-.065.146l-.042.095c-.022.052-.044.1-.067.156l-.023.056c-.028.066-.055.132-.081.2l-.046.116,0,.006-.04.1,0,.009-.068.18-.006.02c-.01.024-.019.049-.027.073l-.046.13-.03.086-.039.119c-.015.044-.029.088-.044.133s-.025.078-.037.117-.021.068-.031.1l-.005.015c-.014.048-.029.1-.043.146l-.014.047c-.033.113-.063.226-.094.339L35.5,36.1l-.011.041c-.015.06-.03.121-.044.181l-.01.041-.021.093-.029.126,0,.018-.008.039-.033.159-.005.026-.015.071-.032.166-.01.059c-.01.053-.019.106-.028.159-.006.033-.011.066-.016.1-.008.048-.015.095-.023.142l-.018.12c0,.044-.012.088-.018.132s-.011.081-.016.122l0,.013a16.072,16.072,0,0,1,5.18-6.834Z"/><path class="cls-10" d="M65.041,39.8a15,15,0,1,0-18,14.7v6.3h-3a3,3,0,1,0,0,6h3v4a3,3,0,0,0,6,0v-4h3a3,3,0,0,0,0-6h-3V54.5A15.024,15.024,0,0,0,65.041,39.8Zm-24,0a9,9,0,1,1,9,9A9.01,9.01,0,0,1,41.041,39.8Z"/></g></svg>