<?xml version="1.0" ?><svg id="Multicolor" viewBox="0 0 100 112" xmlns="http://www.w3.org/2000/svg"><defs><style>.cls-1{fill:#fff0ed;}.cls-2{fill:#45413c;fill-opacity:0.15;}.cls-3{fill:#ffe500;}.cls-4{fill:#fff48c;}.cls-5{fill:none;stroke:#45413c;stroke-linecap:round;stroke-linejoin:round;}</style></defs><title/><g id="Scene"><circle class="cls-1" cx="50" cy="56" r="40"/><ellipse class="cls-2" cx="50" cy="87.73" rx="15.53" ry="1.73"/><path class="cls-3" d="M50,79.5a3,3,0,0,1-3-3v-43a3,3,0,0,1,6,0v43A3,3,0,0,1,50,79.5Z"/><path class="cls-3" d="M47,34.72A16,16,0,0,1,34.58,23.3a22,22,0,0,0,0,31.39A16,16,0,0,1,47,43.28Z"/><path class="cls-3" d="M65.41,23.3A16,16,0,0,1,53,34.72v8.56A16,16,0,0,1,65.41,54.7a22,22,0,0,0,0-31.39Z"/><path class="cls-4" d="M46.59,38.07V36.69a3.41,3.41,0,0,1,6.81,0v1.38a18.19,18.19,0,0,0,14.09-13,22,22,0,0,0-2.08-2.36A16,16,0,0,1,53,34.17V33a3,3,0,1,0-6,0v1.22A16,16,0,0,1,34.58,22.76a22.12,22.12,0,0,0-2.08,2.36A18.19,18.19,0,0,0,46.59,38.07Z"/><path class="cls-5" d="M50,79.5a3,3,0,0,1-3-3v-43a3,3,0,0,1,6,0v43A3,3,0,0,1,50,79.5Z"/><path class="cls-5" d="M47,34.72A16,16,0,0,1,34.58,23.3a22,22,0,0,0,0,31.39A16,16,0,0,1,47,43.28Z"/><path class="cls-5" d="M65.41,23.3A16,16,0,0,1,53,34.72v8.56A16,16,0,0,1,65.41,54.7a22,22,0,0,0,0-31.39Z"/></g></svg>