<?xml version="1.0" ?><!DOCTYPE svg  PUBLIC '-//W3C//DTD SVG 1.1//EN'  'http://www.w3.org/Graphics/SVG/1.1/DTD/svg11.dtd'><svg height="100%" style="fill-rule:evenodd;clip-rule:evenodd;stroke-linejoin:round;stroke-miterlimit:1.41421;" version="1.1" viewBox="0 0 101 126" width="100%" xml:space="preserve" xmlns="http://www.w3.org/2000/svg" xmlns:serif="http://www.serif.com/" xmlns:xlink="http://www.w3.org/1999/xlink"><clipPath id="_clip1"><rect height="125" width="100" x="0.868" y="0.621"/></clipPath><g clip-path="url(#_clip1)"><path d="M100.868,42.658c0,-16.313 -13.225,-29.537 -29.538,-29.537c-12.908,0 -28.016,0 -40.925,0c-16.313,0 -29.537,13.224 -29.537,29.537c0,12.909 0,28.017 0,40.926c0,16.313 13.224,29.537 29.537,29.537c12.909,0 28.017,0 40.925,0c16.313,0 29.538,-13.224 29.538,-29.537c0,-12.909 0,-28.017 0,-40.926Z" style="fill:#574aff;"/><path d="M50.868,87.821c-12.6,0 -21,-9.1 -23.7,-18.2l-7.7,2.3c3.6,11.9 14.7,23.9 31.4,23.9c19.5,0 32.7,-16.9 32.7,-32.7c0,-15.8 -13.1,-32.7 -32.7,-32.7c-9.4,0 -17.2,4.1 -22.6,9.2l0.1,-7.4l-8,-0.1l-0.3,22.1l22.1,-0.3l-0.1,-8l-8.9,0.1c4.1,-4 10.3,-7.6 17.7,-7.6c16.1,0 24.7,14.3 24.7,24.7c0,10.4 -8.6,24.7 -24.7,24.7Z" style="fill-opacity:0.5;fill-rule:nonzero;"/></g></svg>