<?xml version="1.0" ?><!DOCTYPE svg  PUBLIC '-//W3C//DTD SVG 1.1//EN'  'http://www.w3.org/Graphics/SVG/1.1/DTD/svg11.dtd'><svg enable-background="new 0 0 64 64" id="Layer_1" version="1.1" viewBox="0 0 64 64" xml:space="preserve" xmlns="http://www.w3.org/2000/svg" xmlns:xlink="http://www.w3.org/1999/xlink"><g><path d="M54.2,9.8c0,0-0.1-0.1-0.1-0.1c-3.9-3.8-10.1-3.8-14,0C40.1,9.7,32.3,17.6,24,33l7,7   c15.4-8.4,23.3-16.1,23.3-16.2c3.8-3.9,3.8-10.1,0-14C54.3,9.9,54.3,9.8,54.2,9.8z M51.4,21.4c-0.2,0.3-0.5,0.6-0.9,0.5l-3.2,0   l-1.8,2.6c-0.2,0.3-0.5,0.4-0.8,0.4c-0.1,0-0.1,0-0.2,0c-0.4-0.1-0.7-0.3-0.8-0.7l-0.9-3l-3-0.9c-0.4-0.1-0.6-0.4-0.7-0.8   c-0.1-0.4,0.1-0.8,0.4-1l2.6-1.8l0-3.2c0-0.4,0.2-0.7,0.5-0.9c0.3-0.2,0.7-0.1,1.1,0.1l2.5,1.9l3-1c0.4-0.1,0.8,0,1,0.2   c0.3,0.3,0.4,0.7,0.2,1l-1,3l1.9,2.5C51.5,20.7,51.6,21.1,51.4,21.4z" fill="#798C49"/><path d="M22,36.8l2.6,2.6c0,0,0,0,0,0s0,0,0,0l2.6,2.6c0.7-0.3,1.3-0.7,2-1L23,34.8C22.6,35.5,22.3,36.1,22,36.8z" fill="#515E27"/><polygon fill="#515E27" points="20.4,38 14.4,37.8 7.7,44.5 15.9,46.7 22.5,40.1  "/><polygon fill="#515E27" points="23.9,41.5 17.3,48.1 19.5,56.3 26.2,49.6 26,43.6  "/><path d="M47.3,17.7l0.5-1.6l-1.6,0.5c-0.3,0.1-0.7,0.1-0.9-0.1l-1.3-1l0,1.7c0,0.3-0.2,0.6-0.4,0.8l-1.4,1l1.6,0.5   c0.3,0.1,0.6,0.3,0.7,0.7l0.5,1.6l1-1.4c0.2-0.3,0.5-0.4,0.8-0.4l1.7,0l-1-1.3C47.3,18.4,47.2,18,47.3,17.7z" fill="#798C49"/><path d="M55.6,8.4c0,0-0.1-0.1-0.1-0.1c-4.6-4.6-12.2-4.6-16.8,0c-0.4,0.4-9.3,9.5-18.6,27.8l-6-0.3   c-0.3,0-0.6,0.1-0.8,0.3l-8.3,8.3c-0.3,0.3-0.4,0.6-0.3,1c0.1,0.3,0.4,0.6,0.7,0.7l9.8,2.7l2.7,9.8c0.1,0.3,0.4,0.6,0.7,0.7   c0.1,0,0.2,0,0.3,0c0.3,0,0.5-0.1,0.7-0.3l8.3-8.3c0.2-0.2,0.3-0.5,0.3-0.8l-0.3-6c18.3-9.3,27.4-18.2,27.8-18.6   c4.6-4.6,4.6-12.2,0-16.8C55.7,8.4,55.7,8.4,55.6,8.4z M7.7,44.5l6.7-6.7l5.9,0.3l2.1,2.1l-6.6,6.6L7.7,44.5z M19.5,56.3l-2.2-8.2   l6.6-6.6l2.1,2.1l0.3,5.9L19.5,56.3z M27.2,42l-2.6-2.6c0,0,0,0,0,0s0,0,0,0L22,36.8c0.3-0.7,0.7-1.3,1-2l6.2,6.2   C28.5,41.4,27.9,41.7,27.2,42z M54.4,23.9C54.3,23.9,46.5,31.7,31,40l-7-7C32.3,17.6,40.1,9.7,40.1,9.6c3.9-3.8,10.1-3.8,14,0   c0,0,0.1,0.1,0.1,0.1c0,0,0.1,0.1,0.1,0.1C58.2,13.8,58.2,20,54.4,23.9z" fill="#1F2310"/><path d="M49.4,17.8l1-3c0.1-0.4,0-0.8-0.2-1c-0.3-0.3-0.7-0.4-1-0.2l-3,1l-2.5-1.9c-0.3-0.2-0.7-0.3-1.1-0.1   c-0.3,0.2-0.6,0.5-0.5,0.9l0,3.2l-2.6,1.8c-0.3,0.2-0.5,0.6-0.4,1c0.1,0.4,0.3,0.7,0.7,0.8l3,0.9l0.9,3c0.1,0.4,0.4,0.6,0.8,0.7   c0.1,0,0.1,0,0.2,0c0.3,0,0.6-0.2,0.8-0.4l1.8-2.6l3.2,0c0.4,0,0.7-0.2,0.9-0.5c0.2-0.3,0.1-0.7-0.1-1.1L49.4,17.8z M46.8,19.9   c-0.3,0-0.6,0.2-0.8,0.4l-1,1.4l-0.5-1.6c-0.1-0.3-0.3-0.6-0.7-0.7L42.3,19l1.4-1c0.3-0.2,0.4-0.5,0.4-0.8l0-1.7l1.3,1   c0.3,0.2,0.6,0.3,0.9,0.1l1.6-0.5l-0.5,1.6c-0.1,0.3-0.1,0.7,0.1,0.9l1,1.3L46.8,19.9z" fill="#1F2310"/></g></svg>