<?xml version="1.0" ?><!DOCTYPE svg  PUBLIC '-//W3C//DTD SVG 1.1//EN'  'http://www.w3.org/Graphics/SVG/1.1/DTD/svg11.dtd'><svg enable-background="new 0 0 64 64" id="Layer_1" version="1.1" viewBox="0 0 64 64" xml:space="preserve" xmlns="http://www.w3.org/2000/svg" xmlns:xlink="http://www.w3.org/1999/xlink"><g><path d="M27.1,55.7c6.9-3.6,9.3-11.1,10.2-14.8c-3.8,2.3-8.4,4.4-13.8,6.3L27.1,55.7z" fill="#515E27"/><path d="M8.3,36.9l8.6,3.6c1.9-5.4,4-9.9,6.3-13.8C19.5,27.6,11.9,30,8.3,36.9z" fill="#515E27"/><path d="M55.2,7.9c-5.9,0-26,2.4-36.6,33.5l1.5,0.9l4.6-4.6c0.4-0.4,1-0.4,1.4,0c0.4,0.4,0.4,1,0,1.4l-4.6,4.6   l0.9,1.5c6.2-2.1,11.2-4.6,15.4-7.2c0.1-0.1,0.2-0.1,0.3-0.2C55.8,26.4,56.2,11.6,56,8C55.8,8,55.5,7.9,55.2,7.9z" fill="#C6BF66"/><path d="M57.1,6c0,0-0.7-0.1-1.9-0.1c-5,0-19.4,1.6-30.6,18.5C22.1,24.8,10.6,26.9,6,37c-0.1,0.2-0.1,0.5,0,0.8   c0.1,0.3,0.3,0.4,0.5,0.6L17,42.8l2.6,1.6l1.6,2.6l4.4,10.5c0.1,0.2,0.3,0.4,0.6,0.5c0.1,0,0.2,0.1,0.4,0.1c0.1,0,0.3,0,0.4-0.1   c10.1-4.5,12.2-16,12.6-18.6C60.4,25.6,58,7.1,58,6.9C57.9,6.4,57.5,6.1,57.1,6z M16.9,40.6l-8.6-3.6c3.6-6.9,11.2-9.3,14.9-10.2   C20.9,30.6,18.7,35.2,16.9,40.6z M27.1,55.7l-3.6-8.6c5.4-1.9,9.9-4,13.8-6.3C36.4,44.5,33.9,52.1,27.1,55.7z M38.1,37.9   c-0.1,0-0.2,0.1-0.3,0.2c-4.1,2.7-9.2,5.1-15.4,7.2l-0.9-1.5l4.6-4.6c0.4-0.4,0.4-1,0-1.4c-0.4-0.4-1-0.4-1.4,0l-4.6,4.6l-1.5-0.9   C29.3,10.4,49.3,7.9,55.2,7.9c0.3,0,0.6,0,0.8,0C56.2,11.6,55.8,26.4,38.1,37.9z" fill="#1F2310"/></g></svg>