<?xml version="1.0" ?><!DOCTYPE svg  PUBLIC '-//W3C//DTD SVG 1.1//EN'  'http://www.w3.org/Graphics/SVG/1.1/DTD/svg11.dtd'><svg enable-background="new 0 0 64 64" id="Layer_1" version="1.1" viewBox="0 0 64 64" xml:space="preserve" xmlns="http://www.w3.org/2000/svg" xmlns:xlink="http://www.w3.org/1999/xlink"><g><path d="M13.7,33h-1.5c0.5,10.1,8.6,18.3,18.8,18.8v-1.5C21.7,49.8,14.2,42.3,13.7,33z" fill="#798C49"/><circle cx="32" cy="32" fill="#798C49" r="1.6"/><path d="M31,13.7v-1.5C20.9,12.7,12.7,20.9,12.2,31h1.5C14.2,21.7,21.7,14.2,31,13.7z" fill="#798C49"/><path d="M33,50.3v1.5c10.1-0.5,18.3-8.6,18.8-18.8h-1.5C49.8,42.3,42.3,49.8,33,50.3z" fill="#798C49"/><path d="M33,12.2v1.5c9.3,0.5,16.8,8,17.3,17.3h1.5C51.3,20.9,43.1,12.7,33,12.2z" fill="#798C49"/><path d="M57.1,31h-3.3C53.3,19.8,44.2,10.7,33,10.2V6.9c0-0.6-0.4-1-1-1s-1,0.4-1,1v3.3   C19.8,10.7,10.7,19.8,10.2,31H6.9c-0.6,0-1,0.4-1,1c0,0.6,0.4,1,1,1h3.3c0.5,11.2,9.6,20.3,20.8,20.8v3.3c0,0.6,0.4,1,1,1   s1-0.4,1-1v-3.3c11.2-0.5,20.3-9.6,20.8-20.8h3.3c0.6,0,1-0.4,1-1C58.1,31.4,57.6,31,57.1,31z M31,12.2v1.5   c-9.3,0.5-16.8,8-17.3,17.3h-1.5C12.7,20.9,20.9,12.7,31,12.2z M31,51.8C20.9,51.3,12.7,43.1,12.2,33h1.5c0.5,9.3,8,16.8,17.3,17.3   V51.8z M32,40.6c-0.6,0-1,0.4-1,1v6.7c-8.2-0.5-14.8-7.1-15.3-15.3h6.7c0.6,0,1-0.4,1-1c0-0.6-0.4-1-1-1h-6.7   c0.5-8.2,7.1-14.8,15.3-15.3v6.7c0,0.6,0.4,1,1,1s1-0.4,1-1v-6.7c8.2,0.5,14.8,7.1,15.3,15.3h-6.7c-0.6,0-1,0.4-1,1   c0,0.6,0.4,1,1,1h6.7c-0.5,8.2-7.1,14.8-15.3,15.3v-6.7C33,41,32.6,40.6,32,40.6z M33,51.8v-1.5c9.3-0.5,16.8-8,17.3-17.3h1.5   C51.3,43.1,43.1,51.3,33,51.8z M50.3,31c-0.5-9.3-8-16.8-17.3-17.3v-1.5c10.1,0.5,18.3,8.6,18.8,18.8H50.3z" fill="#1F2310"/><path d="M35.6,32c0-2-1.6-3.6-3.6-3.6S28.4,30,28.4,32s1.6,3.6,3.6,3.6S35.6,34,35.6,32z M32,33.6   c-0.9,0-1.6-0.7-1.6-1.6s0.7-1.6,1.6-1.6s1.6,0.7,1.6,1.6S32.9,33.6,32,33.6z" fill="#1F2310"/></g></svg>