<?xml version="1.0" ?><!DOCTYPE svg  PUBLIC '-//W3C//DTD SVG 1.1//EN'  'http://www.w3.org/Graphics/SVG/1.1/DTD/svg11.dtd'><svg enable-background="new 0 0 64 64" id="Layer_1" version="1.1" viewBox="0 0 64 64" xml:space="preserve" xmlns="http://www.w3.org/2000/svg" xmlns:xlink="http://www.w3.org/1999/xlink"><g><path d="M45,21.4c-7.1,0-11.4-2.7-13-4c-1.6,1.3-5.9,4-13,4c-0.4,0-0.7,0-1.1,0c-0.1,3.5-0.2,15.5,5.4,21.8   c2.2,2.5,5.1,3.8,8.7,3.9c3.5-0.1,6.4-1.4,8.7-3.9c5.6-6.3,5.6-18.3,5.4-21.8C45.7,21.3,45.3,21.4,45,21.4z M40.7,30.9l-3.6,3.6   l0.9,5c0.1,0.4-0.1,0.8-0.4,1c-0.2,0.1-0.4,0.2-0.6,0.2c-0.2,0-0.3,0-0.5-0.1L32,38.2l-4.5,2.4c-0.3,0.2-0.7,0.1-1.1-0.1   c-0.3-0.2-0.5-0.6-0.4-1l0.9-5l-3.6-3.6c-0.3-0.3-0.4-0.7-0.3-1c0.1-0.4,0.4-0.6,0.8-0.7l5-0.7l2.3-4.6c0.3-0.7,1.5-0.7,1.8,0   l2.3,4.6l5,0.7c0.4,0.1,0.7,0.3,0.8,0.7C41.1,30.2,41,30.6,40.7,30.9z" fill="#C6BF66"/><path d="M33.6,29.8L32,26.6l-1.6,3.2c-0.1,0.3-0.4,0.5-0.8,0.5l-3.6,0.5l2.6,2.5c0.2,0.2,0.3,0.6,0.3,0.9l-0.6,3.5   l3.2-1.7c0.1-0.1,0.3-0.1,0.5-0.1c0.2,0,0.3,0,0.5,0.1l3.2,1.7L35,34.3c-0.1-0.3,0.1-0.7,0.3-0.9l2.6-2.5l-3.6-0.5   C34,30.3,33.7,30.1,33.6,29.8z" fill="#798C49"/><path d="M51.7,15.3c-11.1,0-17.6-4.5-19.7-6.2c-2.1,1.7-8.6,6.2-19.7,6.2c-0.7,0-1.4,0-2.2-0.1   c-0.2,4.6-0.6,23.9,8.3,33.9c3.5,3.9,8,5.9,13.5,6c5.5-0.1,10-2.2,13.5-6c8.9-10,8.6-29.3,8.3-33.9C53.1,15.3,52.4,15.3,51.7,15.3z    M42.2,44.4c-2.6,2.9-6,4.4-10.1,4.5c0,0,0,0,0,0c0,0,0,0,0,0c-4.1-0.1-7.5-1.6-10.1-4.5c-7.2-8-5.9-23.6-5.9-24.2   c0-0.5,0.5-1,1.1-0.9c0.7,0.1,1.3,0.1,2,0.1c8.2,0,12.2-4,12.3-4c0.2-0.2,0.4-0.3,0.7-0.3c0.3,0,0.5,0.1,0.7,0.3c0,0,4.2,4,12.3,4   c0.6,0,1.3,0,2-0.1c0.5,0,1,0.4,1.1,0.9C48.1,20.8,49.3,36.5,42.2,44.4z" fill="#C6BF66"/><path d="M54.7,13.2c-1,0.1-2,0.1-3,0.1c-12.5,0-18.9-6.2-19-6.2c-0.4-0.4-1-0.4-1.4,0c-0.1,0.1-6.4,6.2-19,6.2   c-1,0-2,0-3-0.1c-0.5,0-1,0.4-1.1,0.9c-0.1,1-1.9,24.4,8.8,36.3c3.9,4.3,8.9,6.5,15,6.7c0,0,0,0,0,0c0,0,0,0,0,0   c6.1-0.1,11.1-2.4,15-6.7c10.7-11.9,8.9-35.4,8.8-36.3C55.7,13.6,55.2,13.2,54.7,13.2z M45.5,49.2c-3.5,3.9-8,5.9-13.5,6   c-5.5-0.1-10-2.1-13.5-6c-8.9-9.9-8.6-29.3-8.3-33.9c0.7,0,1.5,0.1,2.2,0.1c11.1,0,17.6-4.5,19.7-6.2c2.1,1.7,8.6,6.2,19.7,6.2   c0.7,0,1.4,0,2.2-0.1C54.1,19.9,54.5,39.2,45.5,49.2z" fill="#1F2310"/><path d="M47,19.3c-0.7,0.1-1.3,0.1-2,0.1c-8.1,0-12.2-4-12.3-4C32.5,15.1,32.3,15,32,15c-0.3,0-0.5,0.1-0.7,0.3   c0,0-4.1,4-12.3,4c-0.6,0-1.3,0-2-0.1c-0.5,0-1,0.4-1.1,0.9c-0.1,0.7-1.3,16.3,5.9,24.2c2.6,2.9,6,4.4,10.1,4.5c0,0,0,0,0,0   c0,0,0,0,0,0c4.1-0.1,7.5-1.6,10.1-4.5c7.2-8,5.9-23.6,5.9-24.2C48,19.6,47.5,19.2,47,19.3z M40.7,43.1c-2.2,2.5-5.1,3.8-8.7,3.9   c-3.5-0.1-6.4-1.4-8.7-3.9c-5.6-6.3-5.6-18.3-5.4-21.8c0.4,0,0.7,0,1.1,0c7.1,0,11.4-2.7,13-4c1.6,1.3,5.9,4,13,4   c0.4,0,0.7,0,1.1,0C46.2,24.8,46.3,36.8,40.7,43.1z" fill="#1F2310"/><path d="M40.2,29.2l-5-0.7l-2.3-4.6c-0.3-0.7-1.5-0.7-1.8,0l-2.3,4.6l-5,0.7c-0.4,0.1-0.7,0.3-0.8,0.7   c-0.1,0.4,0,0.8,0.3,1l3.6,3.6l-0.9,5c-0.1,0.4,0.1,0.8,0.4,1c0.3,0.2,0.7,0.3,1.1,0.1l4.5-2.4l4.5,2.4c0.1,0.1,0.3,0.1,0.5,0.1   c0.2,0,0.4-0.1,0.6-0.2c0.3-0.2,0.5-0.6,0.4-1l-0.9-5l3.6-3.6c0.3-0.3,0.4-0.7,0.3-1C40.9,29.5,40.6,29.3,40.2,29.2z M35.3,33.4   C35.1,33.6,35,34,35,34.3l0.6,3.5l-3.2-1.7C32.3,36.1,32.2,36,32,36c-0.2,0-0.3,0-0.5,0.1l-3.2,1.7l0.6-3.5   c0.1-0.3-0.1-0.7-0.3-0.9l-2.6-2.5l3.6-0.5c0.3,0,0.6-0.3,0.8-0.5l1.6-3.2l1.6,3.2c0.1,0.3,0.4,0.5,0.8,0.5l3.6,0.5L35.3,33.4z" fill="#1F2310"/></g></svg>