<?xml version="1.0" ?><!DOCTYPE svg  PUBLIC '-//W3C//DTD SVG 1.1//EN'  'http://www.w3.org/Graphics/SVG/1.1/DTD/svg11.dtd'><svg enable-background="new 0 0 64 64" id="Layer_1" version="1.1" viewBox="0 0 64 64" xml:space="preserve" xmlns="http://www.w3.org/2000/svg" xmlns:xlink="http://www.w3.org/1999/xlink"><g><polygon fill="#798C49" points="23.1,24.3 26.7,25.7 26.7,9.4 23.1,9.4  "/><polygon fill="#798C49" points="35.3,26.5 35.3,9.4 28.7,9.4 28.7,26.5 32,27.8  "/><polygon fill="#798C49" points="40.9,9.4 37.3,9.4 37.3,25.7 40.9,24.3  "/><path d="M33.3,41.2L32,38.5l-1.3,2.7c-0.1,0.3-0.4,0.5-0.8,0.5L27,42.2l2.1,2.1c0.2,0.2,0.3,0.6,0.3,0.9l-0.5,2.9   l2.6-1.4c0.1-0.1,0.3-0.1,0.5-0.1c0.2,0,0.3,0,0.5,0.1l2.6,1.4l-0.5-2.9c-0.1-0.3,0.1-0.7,0.3-0.9l2.1-2.1l-2.9-0.4   C33.7,41.7,33.5,41.5,33.3,41.2z" fill="#C6BF66"/><path d="M32,33.1c-5.9,0-10.8,4.8-10.8,10.8S26.1,54.6,32,54.6s10.8-4.8,10.8-10.8S37.9,33.1,32,33.1z M40.1,41.2   c0.1,0.4,0,0.8-0.3,1l-3.2,3.1l0.8,4.4c0.1,0.4-0.1,0.8-0.4,1c-0.2,0.1-0.4,0.2-0.6,0.2c-0.2,0-0.3,0-0.5-0.1l-4-2.1l-4,2.1   c-0.3,0.2-0.7,0.1-1.1-0.1c-0.3-0.2-0.5-0.6-0.4-1l0.8-4.4l-3.2-3.1c-0.3-0.3-0.4-0.7-0.3-1c0.1-0.4,0.4-0.6,0.8-0.7l4.4-0.6l2-4   c0.3-0.7,1.5-0.7,1.8,0l2,4l4.4,0.6C39.7,40.6,40,40.8,40.1,41.2z" fill="#C6BF66"/><path d="M31.6,29.8l-1-0.4v1.8c0.5,0,0.9-0.1,1.4-0.1c0.5,0,0.9,0,1.4,0.1v-1.8l-1,0.4c-0.1,0-0.2,0.1-0.4,0.1   S31.8,29.8,31.6,29.8z" fill="#C6BF66"/><path d="M35.4,31.5v-2.9l6.9-2.7c0.4-0.1,0.6-0.5,0.6-0.9V8.4c0-0.6-0.4-1-1-1H22.1c-0.6,0-1,0.4-1,1V25   c0,0.4,0.3,0.8,0.6,0.9l6.9,2.7v2.9c-5.4,1.5-9.4,6.4-9.4,12.3c0,7,5.7,12.8,12.8,12.8s12.8-5.7,12.8-12.8   C44.8,38,40.8,33,35.4,31.5z M37.3,9.4h3.5v15l-3.5,1.4V9.4z M26.7,25.7l-3.5-1.4v-15h3.5V25.7z M28.7,9.4h6.7v17.1L32,27.8   l-3.3-1.3V9.4z M33.4,29.4v1.8c-0.5,0-0.9-0.1-1.4-0.1c-0.5,0-0.9,0-1.4,0.1v-1.8l1,0.4c0.1,0,0.2,0.1,0.4,0.1s0.2,0,0.4-0.1   L33.4,29.4z M32,54.6c-5.9,0-10.8-4.8-10.8-10.8S26.1,33.1,32,33.1s10.8,4.8,10.8,10.8S37.9,54.6,32,54.6z" fill="#1F2310"/><path d="M34.9,39.9l-2-4c-0.3-0.7-1.5-0.7-1.8,0l-2,4l-4.4,0.6c-0.4,0.1-0.7,0.3-0.8,0.7c-0.1,0.4,0,0.8,0.3,1   l3.2,3.1l-0.8,4.4c-0.1,0.4,0.1,0.8,0.4,1c0.3,0.2,0.7,0.3,1.1,0.1l4-2.1l4,2.1c0.1,0.1,0.3,0.1,0.5,0.1c0.2,0,0.4-0.1,0.6-0.2   c0.3-0.2,0.5-0.6,0.4-1l-0.8-4.4l3.2-3.1c0.3-0.3,0.4-0.7,0.3-1c-0.1-0.4-0.4-0.6-0.8-0.7L34.9,39.9z M34.9,44.3   c-0.2,0.2-0.3,0.6-0.3,0.9l0.5,2.9l-2.6-1.4c-0.1-0.1-0.3-0.1-0.5-0.1c-0.2,0-0.3,0-0.5,0.1l-2.6,1.4l0.5-2.9   c0.1-0.3-0.1-0.7-0.3-0.9L27,42.2l2.9-0.4c0.3,0,0.6-0.3,0.8-0.5l1.3-2.7l1.3,2.7c0.1,0.3,0.4,0.5,0.8,0.5l2.9,0.4L34.9,44.3z" fill="#1F2310"/></g></svg>