<?xml version="1.0" ?><!DOCTYPE svg  PUBLIC '-//W3C//DTD SVG 1.1//EN'  'http://www.w3.org/Graphics/SVG/1.1/DTD/svg11.dtd'><svg height="100%" style="fill-rule:evenodd;clip-rule:evenodd;stroke-linejoin:round;stroke-miterlimit:1.41421;" version="1.1" viewBox="0 0 49 49" width="100%" xml:space="preserve" xmlns="http://www.w3.org/2000/svg" xmlns:serif="http://www.serif.com/" xmlns:xlink="http://www.w3.org/1999/xlink"><path d="M32.934,8.637l0,-2c0,-1.104 0.895,-2 2,-2c0,0 0,0 0,0c1.104,0 2,0.896 2,2c0,1 0,2 0,2l2,0c2.2,0 4,1.8 4,4l0,28c0,2.2 -1.8,4 -4,4l-28,0c-2.22,0 -4,-1.8 -4,-4l0.02,-28c0,-2.2 1.76,-4 3.98,-4l2,0l0,-2c0,-1.104 0.895,-2 2,-2c1.104,0 2,0.896 2,2c0,1 0,2 0,2l16,0Zm6,32l0,-22l-28,0l0,22l28,0Zm-4,-12.041c0,-1.082 -0.877,-1.959 -1.959,-1.959c-1.758,0 -4.325,0 -6.083,0c-1.081,0 -1.958,0.877 -1.958,1.959c0,1.758 0,4.325 0,6.083c0,1.082 0.877,1.958 1.958,1.958c1.758,0 4.325,0 6.083,0c1.082,0 1.959,-0.876 1.959,-1.958c0,-1.758 0,-4.325 0,-6.083Z" style="fill:#774fa0;"/><rect height="48" style="fill:none;" width="48" x="0.934" y="0.637"/></svg>