<?xml version="1.0" ?><!DOCTYPE svg  PUBLIC '-//W3C//DTD SVG 1.1//EN'  'http://www.w3.org/Graphics/SVG/1.1/DTD/svg11.dtd'><svg height="100%" style="fill-rule:evenodd;clip-rule:evenodd;stroke-linejoin:round;stroke-miterlimit:1.41421;" version="1.1" viewBox="0 0 49 49" width="100%" xml:space="preserve" xmlns="http://www.w3.org/2000/svg" xmlns:serif="http://www.serif.com/" xmlns:xlink="http://www.w3.org/1999/xlink"><path d="M38.286,6.336l-28,0c-2.2,0 -4,1.8 -4,4l0,28c0,2.2 1.8,4 4,4l28,0c2.2,0 4,-1.8 4,-4l0,-28c0,-2.2 -1.8,-4 -4,-4Zm-20,26c0,1.104 -0.896,2 -2,2c-1.105,0 -2,-0.896 -2,-2c0,-2.662 0,-7.339 0,-10c0,-1.105 0.895,-2 2,-2c1.104,0 2,0.895 2,2c0,2.661 0,7.338 0,10Zm8,0c0,0.53 -0.211,1.039 -0.586,1.414c-0.375,0.375 -0.884,0.586 -1.414,0.586c-0.531,0 -1.039,-0.211 -1.414,-0.586c-0.375,-0.375 -0.586,-0.884 -0.586,-1.414c0,-3.833 0,-12.168 0,-16c0,-0.531 0.211,-1.04 0.586,-1.415c0.375,-0.375 0.883,-0.585 1.414,-0.585c0.53,0 1.039,0.21 1.414,0.585c0.375,0.375 0.586,0.884 0.586,1.415c0,3.832 0,12.167 0,16Zm8,0c0,1.104 -0.896,2 -2,2c-1.105,0 -2,-0.896 -2,-2c0,-1.222 0,-2.779 0,-4c0,-1.105 0.895,-2 2,-2c1.104,0 2,0.895 2,2c0,1.221 0,2.778 0,4Z" style="fill:#784fa0;fill-rule:nonzero;"/><rect height="48" style="fill:none;" width="48" x="0.286" y="0.336"/></svg>