<?xml version="1.0" ?><!DOCTYPE svg  PUBLIC '-//W3C//DTD SVG 1.1//EN'  'http://www.w3.org/Graphics/SVG/1.1/DTD/svg11.dtd'><svg height="100%" style="fill-rule:evenodd;clip-rule:evenodd;stroke-linejoin:round;stroke-miterlimit:1.41421;" version="1.1" viewBox="0 0 49 49" width="100%" xml:space="preserve" xmlns="http://www.w3.org/2000/svg" xmlns:serif="http://www.serif.com/" xmlns:xlink="http://www.w3.org/1999/xlink"><path d="M6.174,35.681c0.406,0.406 0.957,0.634 1.532,0.634c0.575,0 1.126,-0.229 1.532,-0.636c3.235,-3.24 10.469,-10.485 10.469,-10.485c0,0 4.402,4.402 6.675,6.675c0.344,0.344 0.815,0.531 1.301,0.517c0.486,-0.014 0.945,-0.229 1.268,-0.592c3.113,-3.502 11.219,-12.618 14.423,-16.222c0.748,-0.841 0.711,-2.12 -0.085,-2.916c0,0 0,0 -0.001,-0.001c-0.364,-0.364 -0.862,-0.562 -1.376,-0.546c-0.515,0.015 -1.001,0.241 -1.343,0.626c-3.517,3.954 -12.862,14.459 -12.862,14.459c0,0 -4.501,-4.501 -6.751,-6.751c-0.331,-0.331 -0.781,-0.517 -1.249,-0.517c-0.469,0 -0.918,0.187 -1.249,0.518c-2.755,2.759 -9.343,9.355 -12.287,12.303c-0.809,0.81 -0.808,2.123 0.001,2.932c0.001,0.001 0.001,0.001 0.002,0.002Z" style="fill:#784fa0;fill-rule:nonzero;"/><rect height="48" style="fill:none;" width="48" x="0.738" y="0.211"/></svg>