<?xml version="1.0" ?><!DOCTYPE svg  PUBLIC '-//W3C//DTD SVG 1.1//EN'  'http://www.w3.org/Graphics/SVG/1.1/DTD/svg11.dtd'><svg height="100%" style="fill-rule:evenodd;clip-rule:evenodd;stroke-linejoin:round;stroke-miterlimit:1.41421;" version="1.1" viewBox="0 0 49 49" width="100%" xml:space="preserve" xmlns="http://www.w3.org/2000/svg" xmlns:serif="http://www.serif.com/" xmlns:xlink="http://www.w3.org/1999/xlink"><path d="M24.934,4.299c-11.04,0 -20,8.96 -20,20c0,11.04 8.96,20 20,20c11.04,0 20,-8.96 20,-20c0,-11.04 -8.96,-20 -20,-20Zm2.82,32.18c0,0 0,0.506 0,1.15c0,1.474 -1.196,2.67 -2.67,2.67c-1.475,0 -2.67,-1.196 -2.67,-2.67c0,-0.664 0,-1.19 0,-1.19c-2.481,-0.523 -4.689,-1.824 -5.798,-3.98c-0.316,-0.592 -0.298,-1.306 0.047,-1.881c0.345,-0.576 0.966,-0.928 1.637,-0.928c0.007,-0.011 0.013,-0.011 0.02,-0.011c0.778,0 1.48,0.47 1.775,1.19c0.566,1.502 2.074,2.55 4.999,2.55c3.92,0 4.8,-1.96 4.8,-3.18c0,-1.66 -0.88,-3.22 -5.34,-4.28c-4.96,-1.2 -8.36,-3.24 -8.36,-7.34c0,-3.44 2.78,-5.68 6.22,-6.42c0,0 0,-0.526 0,-1.19c0,-1.475 1.195,-2.67 2.67,-2.67c1.474,0 2.67,1.195 2.67,2.67c0,0.683 0,1.23 0,1.23c2.585,0.625 4.272,2.178 5.101,4.095c0.261,0.59 0.205,1.273 -0.147,1.814c-0.353,0.541 -0.955,0.867 -1.601,0.867c0,0.004 -0.001,0.004 -0.001,0.004c-0.818,0 -1.545,-0.522 -1.807,-1.296c-0.45,-1.497 -1.711,-2.444 -4.205,-2.444c-3,0 -4.8,1.36 -4.8,3.28c0,1.68 1.3,2.78 5.34,3.82c4.04,1.04 8.36,2.78 8.36,7.82c-0.02,3.66 -2.76,5.66 -6.24,6.32Z" style="fill:#774fa0;fill-rule:nonzero;"/><rect height="48" style="fill:none;" width="48" x="0.934" y="0.299"/></svg>