<?xml version="1.0" ?><svg id="Layer_1" style="enable-background:new 0 0 242.9 242.9;" version="1.1" viewBox="0 0 242.9 242.9" xml:space="preserve" xmlns="http://www.w3.org/2000/svg" xmlns:xlink="http://www.w3.org/1999/xlink"><style type="text/css">
	.st0{fill:#D06828;}
</style><path class="st0" d="M121.5,0L121.5,0C54.4,0,0,54.4,0,121.5v0c0,67.1,54.4,121.5,121.5,121.5l0,0c67.1,0,121.5-54.4,121.5-121.5v0  C242.9,54.4,188.5,0,121.5,0z M72.5,117.8c0,2.8-1.5,4.8-4.6,5c-2.6,0.2-4.5-2.1-4.5-5.3c0-6.1,0-12.2,0-18.3c0-4.7,0-9.3,0-14  c0-1.6,0-3.1,0-4.7c0-3.1,1.3-5.1,4.4-5.6c2.5-0.4,4.7,1.9,4.7,5.2C72.6,92.7,72.6,105.2,72.5,117.8z M81.4,140.9  c-3.2-0.4-4.3-2.5-4.3-5.6c0.1-12.2,0.1-24.5,0-36.7c0-3.1,1.2-5.2,4.3-5.5c2.8-0.3,4.5,1.9,4.6,5.6c0.1,6.1,0,12.2,0,18.4  c0,6.1,0,12.2,0,18.4C86,138.9,84.1,141.2,81.4,140.9z M95.4,153.1c-2.6,0.3-4.5-2-4.5-5.2c0-3.1,0-6.2,0-9.3c0-3.1,0-6.2,0-9.3  c0-6.2,0-12.4,0-18.7c0-3.2,1.9-5.6,4.4-5.3c2.9,0.3,4.4,2.1,4.4,5.1c0,12.6,0,25.1,0,37.7C99.7,151,98.3,152.8,95.4,153.1z   M112.6,149.5c0,3.5-1.7,5.3-4.5,5.1c-3.1-0.2-4.3-2.2-4.2-5.1c0-3.1,0-6.2,0-9.3s0-6.2,0-9.3c0-3.1,0-6.2,0-9.3s0-6.2,0-9.3  c0-3.5,1.7-5.3,4.5-5.1c3.1,0.2,4.2,2.2,4.2,5.1C112.6,124.6,112.6,137.1,112.6,149.5z M121.8,151.2c-3.1,0-4.4-1.9-4.4-4.9  c0-6.4,0-12.7,0-19.1c0-6.1,0-12.2,0-18.3c0-3.6,1.5-5.5,4.3-5.4c2.8,0.1,4.5,2.1,4.5,5.4c0,12.5,0,24.9,0,37.4  C126.2,149.3,124.8,151.2,121.8,151.2z M139.8,139.5c0,3.4-1.6,5.1-4.6,5.2c-3.2,0.1-4.8-1.5-4.9-5.2c0-3.2,0-6.4,0-9.5  c0-3.2,0-6.4,0-9.5c0-3.1,0-6.1,0-9.2c0-3.1,0-6.1,0-9.2c0-3.6,1.7-5.3,4.9-5.2c3.3,0.1,4.6,2.1,4.6,5.2  C139.8,114.6,139.9,127,139.8,139.5z M148.4,144.5c-2.6,0-4.4-2-4.5-5.4c-0.1-12.3,0-24.7,0-37c0-3.1,1.2-5.2,4.4-5.4  c2.7-0.2,4.5,2.2,4.5,5.7c0,6.1,0,12.2,0,18.3s0,12.2,0,18.3C152.8,142.4,151.1,144.4,148.4,144.5z M166.5,147.7  c0,3.7-1.7,5.7-4.6,5.5c-3.4-0.2-4.3-2.5-4.3-5.5c0-6.1,0-12.2,0-18.4c0-6,0-12,0-18c0-3.8,1.6-5.8,4.4-5.8c2.9,0,4.5,1.9,4.5,5.7  C166.5,123.5,166.5,135.6,166.5,147.7z M175,168c-2.6,0.1-4.6-2-4.6-5.3c-0.1-12.5-0.1-24.9,0-37.4c0-2.9,1.4-4.9,4.4-5.2  c2.5-0.3,4.5,2.1,4.6,5.3c0.1,6.2,0,12.5,0,18.7c0,6.1,0,12.2,0,18.3C179.4,165.7,177.6,167.9,175,168z"/></svg>