<?xml version="1.0" ?><svg id="Layer_1" style="enable-background:new 0 0 242.9 242.9;" version="1.1" viewBox="0 0 242.9 242.9" xml:space="preserve" xmlns="http://www.w3.org/2000/svg" xmlns:xlink="http://www.w3.org/1999/xlink"><style type="text/css">
	.st0{fill:#50C7EB;}
</style><path class="st0" d="M116.2,105.6c0,8.3-4,14.5-12.7,14.5c-1.1,0-2,0-2.8-0.3V92.4c1.1-0.4,2.6-0.7,4.2-0.7  C113,91.7,116.2,97.8,116.2,105.6z M242.9,121.5c0,67.1-54.4,121.5-121.5,121.5l0,0C54.4,242.9,0,188.5,0,121.5S54.4,0,121.5,0l0,0  C188.5,0,242.9,54.4,242.9,121.5z M133.4,104.1c0-7.5-2.4-14.9-7.7-19.6c-5.8-5.4-13.9-6.9-24.2-6.9c-6.6,0-13.2,0.7-18.1,1.7v87.8  h17.3V134c1.1,0,2.2,0,3.4,0c7.1,0,16.1-2.6,21.7-8.5C130.4,120.5,133.4,113.8,133.4,104.1z M159.5,75.7h-17.3v91.5h17.3V75.7z"/></svg>