<?xml version="1.0" ?><svg id="Layer_1" style="enable-background:new 0 0 242.9 242.9;" version="1.1" viewBox="0 0 242.9 242.9" xml:space="preserve" xmlns="http://www.w3.org/2000/svg" xmlns:xlink="http://www.w3.org/1999/xlink"><style type="text/css">
	.st0{fill:#491211;}
</style><path class="st0" d="M121.5,0L121.5,0C54.4,0,0,54.4,0,121.5c0,67.1,54.4,121.5,121.5,121.5h0c67.1,0,121.5-54.4,121.5-121.5  C242.9,54.4,188.5,0,121.5,0z M158.7,93.4c-3.1,0-5.7,0.5-8.1,1.3c-2.4,0.8-4.4,2-6.3,3.6c-1.7,1.4-3.4,3.4-4.9,5.7  c-1.5,2.3-2.8,4.9-4.2,8h14.1v18.6h-21.4l-5.1,11.6c-2.1,4.1-4.3,7.6-6.6,10.6c-8.1,10-18.7,15.1-32,15.1v-18.6  c3.9,0,7.3-0.7,10.2-2.1c2.6-1.3,5-3.2,7.3-6c1.8-2.4,3.6-5.6,5.5-9.8c1.5-2.9,3.3-7.3,5.4-13.2l6-14.6c2.4-5.5,5.2-9.9,8-13.5  c8.1-10.1,18.7-15.1,32-15.1V93.4z"/></svg>