<?xml version="1.0" ?><!DOCTYPE svg  PUBLIC '-//W3C//DTD SVG 1.1//EN'  'http://www.w3.org/Graphics/SVG/1.1/DTD/svg11.dtd'><svg height="512px" style="enable-background:new 0 0 512 512;" version="1.1" viewBox="0 0 512 512" width="512px" xml:space="preserve" xmlns="http://www.w3.org/2000/svg" xmlns:xlink="http://www.w3.org/1999/xlink"><g id="google__x2C__wallet_._social_._media_x2C__icon_x2C_"><g><path d="M425.681,86.28C382.233,42.97,322.187,16.004,256.029,16.004    c-66.293,0-126.344,26.966-169.785,70.276c-43.315,43.445-70.282,103.492-70.282,169.789c0,66.156,26.967,126.212,70.282,169.65    c43.44,43.311,103.492,70.276,169.785,70.276c66.158,0,126.205-26.966,169.652-70.276c43.311-43.438,70.282-103.494,70.282-169.65    C495.963,189.772,468.991,129.726,425.681,86.28z M412.394,412.438c-39.988,39.988-95.389,64.83-156.365,64.83    c-61.114,0-116.514-24.842-156.502-64.83c-39.989-39.989-64.698-95.389-64.698-156.368c0-61.113,24.709-116.514,64.698-156.502    c39.988-39.993,95.389-64.7,156.502-64.7c60.976,0,116.376,24.707,156.365,64.7c39.989,39.988,64.836,95.389,64.836,156.502    C477.229,317.049,452.383,372.448,412.394,412.438z" style="fill:#262626;"/><path d="M330.586,172.634c-3.189-6.906-10.235-11.293-17.802-11.293c-3.062,0-5.98,0.663-8.636,1.862    c-9.832,4.779-13.954,16.472-9.17,26.304c10.098,21.123,15.01,43.443,15.01,66.823c0,23.252-4.912,45.572-14.872,66.292    c-0.138,0.133-1.997,3.861-1.997,8.102c0,1.334,0.27,3.189,0.667,4.523c1.192,5.844,4.916,10.76,10.628,13.552    c2.791,1.325,5.574,1.859,8.635,1.859c7.174,0,13.68-3.856,17.135-10.234c3.988-7.438,8.11-17.006,11.56-29.489    c1.064-3.724,1.859-7.438,2.792-11.157c3.185-14.082,5.049-28.703,5.049-43.58c-0.27-14.609-1.864-29.358-5.049-43.573    C341.346,198.938,336.562,185.388,330.586,172.634z" style="fill:#262626;"/><path d="M305.678,238.659c-12.758-20.456-31.259-38.927-53.309-52.477c0.265,0.268,0.314,0.268,0.314,0.268    c1.595,0.93,2.841,2.26,4.301,3.854c0.268,0.399,0.665,1.063,1.064,1.592c11.69,19.528,17.799,41.719,17.799,64.301    c0,2.792-2.597,5.446-2.729,8.101C282.549,282.241,285,302.427,285,323.824c0,1.59,0,4.249,0,6.369    c0-2.252,3.26-4.514,4.064-6.639c0-0.397,1.563-0.8,1.691-0.933c9.832-20.72,15.396-43.04,15.396-66.292    C306.151,248.356,306.074,242.383,305.678,238.659z" style="fill:#262626;"/><path d="M253.263,190.305c-1.192-1.595-2.787-3.055-4.379-4.254c-3.189-1.854-6.644-3.189-10.365-3.189    c-3.054,0-4.517,0.535-6.771,1.335c-2.262,0.93-4.519,2.254-6.78,4.514c-1.99,2.255-3.189,4.517-4.249,6.773    c-1.593,4.651-1.46,11.027,1.594,15.941c6.644,10.63,10.495,22.588,11.958,34.81c0.132,3.322,0.662,6.644,0.662,10.096    c0,15.809-4.384,31.221-12.62,44.772c-0.397,0.397-0.535,0.928-0.795,1.324c-1.597,3.322-2.259,6.776-1.862,10.098    c0.662,5.717,3.714,11.03,8.898,14.348c1.464,0.8,2.792,1.467,4.254,1.864c1.86,0.662,3.719,0.795,5.579,0.795    c6.511,0,12.754-3.185,15.941-9.033c10.495-17.001,16.476-36.265,17.806-56.2c0.265-2.654,0.265-5.309,0.265-7.968    c0-22.715-6.113-44.905-17.801-64.434C254.195,191.499,253.798,190.965,253.263,190.305z" style="fill:#262626;"/><path d="M231.444,245.438c-10.895-14.882-25.826-27.901-42.83-36.935c-2.392-1.327-5.536-2.257-8.325-2.257    c-6.642,0-13.403,3.722-16.458,9.431c-4.517,8.902-2.508,19.795,6.133,24.316C196.136,254.075,213,280.774,213,311.729v-0.265    c0-3.189,2.264-6.775,3.856-9.833c0.27-0.529,1.403-0.927,1.801-1.462c8.233-13.414,12.987-29.096,12.987-44.902    C231.645,252.083,231.579,248.762,231.444,245.438z" style="fill:#262626;"/></g></g><g id="Layer_1"/></svg>