<?xml version="1.0" ?><!DOCTYPE svg  PUBLIC '-//W3C//DTD SVG 1.1//EN'  'http://www.w3.org/Graphics/SVG/1.1/DTD/svg11.dtd'><svg height="512px" style="enable-background:new 0 0 512 512;" version="1.1" viewBox="0 0 512 512" width="512px" xml:space="preserve" xmlns="http://www.w3.org/2000/svg" xmlns:xlink="http://www.w3.org/1999/xlink"><g id="opera__x2C__social__x2C__browser__x2C_"><g><path d="M425.614,86.344c-43.31-43.434-103.361-70.277-169.652-70.277    c-66.16,0-126.207,26.844-169.652,70.277c-43.445,43.447-70.282,103.494-70.282,169.654c0,66.297,26.836,126.211,70.282,169.659    c43.445,43.438,103.492,70.276,169.652,70.276c66.291,0,126.342-26.839,169.652-70.276    c43.443-43.448,70.282-103.362,70.282-169.659C495.896,189.838,469.058,129.791,425.614,86.344z M412.465,412.498    c-40.126,39.988-95.389,64.702-156.502,64.702c-60.979,0-116.379-24.714-156.365-64.702    c-39.993-40.121-64.835-95.385-64.835-156.5c0-61.107,24.842-116.375,64.835-156.363C139.583,59.646,194.983,34.8,255.962,34.8    c61.114,0,116.376,24.847,156.502,64.835c39.988,39.988,64.698,95.256,64.698,156.363    C477.163,317.113,452.453,372.377,412.465,412.498z" style="fill-rule:evenodd;clip-rule:evenodd;fill:#262626;"/><path d="M255.83,133.779c-33.613,0-61.111,10.889-82.234,33.61    c-21.39,21.918-32.018,51.539-32.018,87.813c0,32.819,11.025,61.91,32.548,86.355c21.388,24.449,48.891,36.666,81.704,36.666    c33.343,0,60.711-12.217,82.236-37.063c21.521-24.444,32.418-53.139,32.418-86.355c0-36.27-10.495-65.498-32.418-87.813    C316.541,144.668,289.305,133.779,255.83,133.779z M298.078,274.471c0,6.383-0.795,13.552-1.6,21.918    c-1.06,8.498-2.257,15.274-4.377,21.118c-1.6,5.588-4.254,11.3-7.178,16.878c-2.92,5.574-6.776,9.691-11.688,12.752    c-5.187,2.792-10.633,4.122-17.009,4.122c-6.774,0-12.087-1.33-16.874-4.122c-5.049-3.061-8.766-7.178-11.688-12.752    c-3.059-5.578-5.449-10.897-7.173-16.878c-1.859-5.446-3.057-12.62-3.856-21.118c-0.795-8.366-1.195-15.535-1.59-21.525    c-0.402-5.977-0.402-13.547-0.402-21.913c0-13.693,0.402-25.249,1.197-34.816c0.795-9.69,2.792-19.131,5.449-28.826    c2.522-9.567,6.773-16.736,12.622-21.918c5.441-5.054,13.017-7.571,21.918-7.571c8.771,0,15.939,2.518,21.92,7.571    c5.977,5.574,10.098,12.747,13.154,21.516c2.792,9.705,4.912,19.538,5.977,29.229c0.795,9.97,1.197,21.521,1.595,34.816    C298.476,261.316,298.078,268.489,298.078,274.471z" style="fill-rule:evenodd;clip-rule:evenodd;fill:#262626;"/></g></g><g id="Layer_1"/></svg>