<?xml version="1.0" ?><!DOCTYPE svg  PUBLIC '-//W3C//DTD SVG 1.1//EN'  'http://www.w3.org/Graphics/SVG/1.1/DTD/svg11.dtd'><svg height="512px" style="enable-background:new 0 0 512 512;" version="1.1" viewBox="0 0 512 512" width="512px" xml:space="preserve" xmlns="http://www.w3.org/2000/svg" xmlns:xlink="http://www.w3.org/1999/xlink"><g id="dribbble__x2C__social__x2C__media_x2C__icons__x2C_"><g><path d="M425.614,86.35c-43.31-43.443-103.361-70.287-169.652-70.287    c-66.16,0-126.207,26.844-169.652,70.287c-43.445,43.438-70.282,103.356-70.282,169.654c0,66.285,26.836,126.209,70.282,169.657    c43.445,43.438,103.492,70.276,169.652,70.276c66.291,0,126.342-26.839,169.652-70.276    c43.443-43.448,70.282-103.372,70.282-169.657C495.896,189.706,469.058,129.787,425.614,86.35z M412.465,412.364    c-40.126,40.126-95.389,64.835-156.502,64.835c-60.979,0-116.379-24.709-156.365-64.835    c-39.993-39.984-64.835-95.252-64.835-156.36c0-61.116,24.842-116.379,64.835-156.368c39.986-40.121,95.386-64.835,156.365-64.835    c61.114,0,116.376,24.714,156.502,64.835c39.988,39.989,64.698,95.252,64.698,156.368    C477.163,317.112,452.453,372.38,412.465,412.364z" style="fill-rule:evenodd;clip-rule:evenodd;fill:#262626;"/><path d="M374.336,231.691c-1.595-7.841-3.852-15.411-6.913-22.722    c-3.185-7.174-6.771-13.945-11.29-20.593c-4.382-6.369-9.299-12.223-14.744-17.802c-5.447-5.309-11.561-10.49-17.934-14.739    c-6.379-4.387-13.292-7.978-20.466-11.172c-7.173-3.042-15.009-5.446-22.58-6.903c-7.973-1.586-16.211-2.522-24.447-2.522    c-8.103,0-16.341,0.937-24.314,2.522c-7.568,1.457-15.407,3.861-22.583,6.903c-7.173,3.194-14.214,6.785-20.593,11.172    c-6.244,4.249-12.49,9.431-17.801,14.739c-5.579,5.579-10.498,11.433-14.744,17.802c-4.521,6.647-8.243,13.419-11.03,20.593    c-3.319,7.311-5.579,14.881-7.174,22.722c-1.33,6.104-2.125,12.487-2.259,18.597c-0.267,1.854-0.267,3.719-0.267,5.849    c0,8.094,0.802,16.213,2.526,24.172c1.595,7.846,3.854,15.416,7.174,22.723c2.787,7.173,6.508,13.949,11.03,20.593    c4.247,6.246,9.166,12.227,14.744,17.801c5.312,5.584,11.558,10.495,17.801,14.744c6.378,4.259,13.419,7.979,20.593,11.035    c7.176,3.18,15.014,5.574,22.583,7.173c7.973,1.732,16.211,2.253,24.314,2.253c8.236,0,16.474-0.521,24.447-2.253    c7.571-1.599,15.407-3.993,22.58-7.173c7.174-3.057,14.087-6.776,20.466-11.035c6.373-4.249,12.486-9.16,17.934-14.744    c5.445-5.574,10.362-11.555,14.744-17.801c4.519-6.644,8.105-13.42,11.29-20.593c3.062-7.307,5.318-14.877,6.913-22.723    c1.59-7.959,2.521-16.201,2.521-24.172c0-1.732,0-3.053-0.265-4.52C376.461,244.847,375.528,238.203,374.336,231.691z     M255.962,152.907c26.042,0,50.083,9.705,68.155,25.642c-0.27,0.402-15.014,22.722-53.806,37.334    c-17.538-32.423-37.066-58.06-38.526-60.047C239.621,153.972,247.594,152.907,255.962,152.907z M231.385,155.836    c-0.132,0-0.132,0.133-0.4,0.133C231.253,155.969,231.385,155.836,231.385,155.836z M211.854,162.739    c1.462,1.86,20.593,27.762,38.396,59.518c-49.421,13.149-92.462,12.482-95.124,12.482    C161.901,202.724,183.156,176.287,211.854,162.739z M179,324.816v0.142c-15-18.217-26.279-42.388-26.279-68.821    c0-1.33,0.077-2.267,0.205-3.322c1.727,0,52.784,1.192,105.921-14.754c2.925,5.721,5.734,11.702,8.389,17.674    c-1.462,0.132-2.939,0.539-4.269,1.197C207.176,274.734,179,324.816,179,324.816z M255.962,359.226    c-23.912,0-45.833-8.242-63.369-21.917c0,0-0.932-0.673-2.257-1.855c0.662,0.663,1.458,1.183,2.257,1.855    c0.263-0.407,20.195-43.315,81.035-64.438c0.265,0,0.402-0.132,0.667-0.132c14.479,37.731,20.46,69.349,21.923,78.245    C283.863,356.169,270.312,359.226,255.962,359.226z M313.617,341.558c-1.06-6.236-6.506-36.407-20.059-73.599    c33.346-5.319,62.177,3.719,64.434,4.391C353.208,301.176,336.869,326.019,313.617,341.558z M287.45,251.617    c-0.933-1.854-1.728-3.587-2.262-5.313c-1.728-3.725-3.321-7.179-4.911-10.897c-0.663-1.325-1.33-2.659-2.13-4.116    c40.783-16.604,57.26-40.387,57.657-40.789c12.757,15.549,21.123,35.082,22.987,56.337c0.132,2.65,0.397,5.305,0.397,8.233    C357.723,254.679,322.655,247.099,287.45,251.617z" style="fill-rule:evenodd;clip-rule:evenodd;fill:#262626;"/></g></g><g id="Layer_1"/></svg>