<?xml version="1.0" ?><!DOCTYPE svg  PUBLIC '-//W3C//DTD SVG 1.1//EN'  'http://www.w3.org/Graphics/SVG/1.1/DTD/svg11.dtd'><svg height="512px" style="enable-background:new 0 0 512 512;" version="1.1" viewBox="0 0 512 512" width="512px" xml:space="preserve" xmlns="http://www.w3.org/2000/svg" xmlns:xlink="http://www.w3.org/1999/xlink"><g id="ebay__x2C__social__x2C__icons__x2C__media_x2C_"><g><path d="M425.609,86.346C382.172,42.9,322.12,16.066,255.955,16.066    c-66.292,0-126.344,26.834-169.649,70.279c-43.443,43.442-70.277,103.359-70.277,169.652c0,66.292,26.834,126.211,70.277,169.654    c43.306,43.447,103.357,70.281,169.649,70.281c66.165,0,126.217-26.834,169.654-70.281    c43.443-43.443,70.287-103.362,70.287-169.654C495.896,189.705,469.053,129.788,425.609,86.346z M412.328,412.365    c-39.989,40.126-95.252,64.835-156.373,64.835c-61.111,0-116.374-24.709-156.5-64.835    c-39.983-39.984-64.693-95.252-64.693-156.367c0-61.111,24.71-116.377,64.693-156.365c40.126-40.124,95.389-64.833,156.5-64.833    c61.121,0,116.384,24.709,156.373,64.833c39.988,39.988,64.83,95.254,64.83,156.365    C477.158,317.113,452.316,372.381,412.328,412.365z" style="fill-rule:evenodd;clip-rule:evenodd;fill:#262626;"/><path d="M404.885,218l-29.356,58.59L346.167,218h-20.323l1.325,3.72    c-5.318-4.116-13.816-6.907-26.972-7.44c0,0-35.602-1.279-39.723,22.721h18.468c0,0,1.192-10.83,20.059-10.432    c17.938,0.668,20.725,9.602,20.725,20.627c0,0-15.009,0.551-20.058,0.551c-7.041,0-26.305,0.741-36.928,9.242    c-0.676-25.242-19.399-39.555-40.252-39.555c-21.928,0-29.488,12.658-29.488,12.658V184h-20.467l0.133,55.925    c-4.126-11.955-14.479-23.714-39.729-23.714c-43.045,0-44.9,34.241-44.375,42.745c0,0-2.257,37.909,43.045,37.909    c39.194,0,41.058-25.865,41.058-25.865H154.86c0,0-3.459,14.697-23.252,14.035c-24.577,0-25.77-23.035-25.77-23.035h67.088    l0.132,16.403c0,0,0,12.597-0.525,17.597h16.6l0.53-10.367c0,0,8.105,12.807,30.956,12.807c15.279,0,28.429-6.069,35.739-17.762    c4.117,13.547,19.523,17.816,32.418,17.816c15.941,0,25.239-4.633,32.152-13.264l0.658,10.77h15.945c0,0-0.529-6.256-0.529-18.34    c0-12.09,0.529-22.257,0-29.827c0-1.598,0-3.822-0.397-6.481l29.091,54.914L350.151,325h19.665l53.536-107H404.885z M106.501,247    c0,0,1.197-21.92,25.779-21.92c24.837,0,24.837,21.92,24.837,21.92H106.501z M216.771,287.086    c-27.108,0.534-27.108-28.694-27.108-28.694s-1.192-28.301,27.108-28.698c27.492-0.665,27.099,29.227,27.099,29.227    S243.87,286.423,216.771,287.086z M291.694,286.129c0,0-17.536-0.742-18.468-14.438C271.896,256.68,299.668,257,299.668,257h19.4    C319.726,257,323.18,286.792,291.694,286.129z" style="fill-rule:evenodd;clip-rule:evenodd;fill:#262626;"/></g></g><g id="Layer_1"/></svg>