<?xml version="1.0" ?><!DOCTYPE svg  PUBLIC '-//W3C//DTD SVG 1.1//EN'  'http://www.w3.org/Graphics/SVG/1.1/DTD/svg11.dtd'><svg height="512px" style="enable-background:new 0 0 512 512;" version="1.1" viewBox="0 0 512 512" width="512px" xml:space="preserve" xmlns="http://www.w3.org/2000/svg" xmlns:xlink="http://www.w3.org/1999/xlink"><g id="flicker__x2C__icon_x2C__social__x2C__media"><g><path d="M425.619,86.281C382.172,42.981,322.258,16,255.965,16c-66.297,0-126.212,26.981-169.65,70.281    c-43.452,43.448-70.286,103.49-70.286,169.792c0,66.155,26.834,126.202,70.286,169.654C129.753,469.166,189.667,496,255.965,496    c66.293,0,126.207-26.834,169.654-70.272c43.443-43.452,70.277-103.499,70.277-169.654    C495.896,189.771,469.063,129.729,425.619,86.281z M412.332,412.432c-39.993,39.993-95.251,64.835-156.367,64.835    c-61.121,0-116.379-24.842-156.372-64.835c-40.117-39.984-64.831-95.384-64.831-156.358c0-61.116,24.714-116.384,64.831-156.5    c39.993-39.993,95.251-64.708,156.372-64.708c61.116,0,116.374,24.714,156.367,64.708c40.121,40.116,64.831,95.384,64.831,156.5    C477.163,317.048,452.453,372.447,412.332,412.432z" style="fill:#262626;"/><path d="M189.27,203.593c-26.962,0-49.154,19.661-52.613,45.298c-0.525,2.267-0.663,4.783-0.663,7.183    c0,28.959,23.777,52.339,53.276,52.339c29.366,0,53.143-23.38,53.143-52.339c0-7.978-1.6-15.283-4.642-21.927    C229.131,216.085,210.658,203.593,189.27,203.593z" style="fill:#262626;"/><path d="M322.792,203.593c-21.657,0-40.126,12.752-48.634,30.946c-2.777,6.648-4.646,13.821-4.646,21.534    c0,28.959,23.782,52.339,53.28,52.339c29.361,0,53.134-23.38,53.134-52.339c0-1.329,0-2.796-0.128-4.259    C373.678,224.711,350.691,203.593,322.792,203.593z" style="fill:#262626;"/></g></g><g id="Layer_1"/></svg>