<?xml version="1.0" ?><!DOCTYPE svg  PUBLIC '-//W3C//DTD SVG 1.1//EN'  'http://www.w3.org/Graphics/SVG/1.1/DTD/svg11.dtd'><svg height="512px" style="enable-background:new 0 0 512 512;" version="1.1" viewBox="0 0 512 512" width="512px" xml:space="preserve" xmlns="http://www.w3.org/2000/svg" xmlns:xlink="http://www.w3.org/1999/xlink"><g id="vine__x2C__social__x2C__media__x2C__icons_x2C_"><g><path d="M425.609,86.344C382.172,42.91,322.12,16.066,255.955,16.066    c-66.292,0-126.344,26.844-169.649,70.277c-43.443,43.447-70.277,103.494-70.277,169.654c0,66.297,26.834,126.211,70.277,169.659    c43.306,43.438,103.357,70.276,169.649,70.276c66.165,0,126.217-26.839,169.654-70.276    c43.443-43.448,70.287-103.362,70.287-169.659C495.896,189.838,469.053,129.791,425.609,86.344z M412.328,412.498    c-39.989,39.988-95.252,64.702-156.373,64.702c-61.111,0-116.374-24.714-156.5-64.702c-39.983-40.121-64.693-95.385-64.693-156.5    c0-61.107,24.71-116.375,64.693-156.363c40.126-39.988,95.389-64.835,156.5-64.835c61.121,0,116.384,24.847,156.373,64.835    c39.988,39.988,64.83,95.256,64.83,156.363C477.158,317.113,452.316,372.377,412.328,412.498z" style="fill-rule:evenodd;clip-rule:evenodd;fill:#262626;"/><path d="M358.915,228c2.796-20,2.796-27.189,2.796-46.978    c0-56.195-107.875-65.471-107.875,5.469c0,49.821,26.437,76.006,51.543,89.566c-20.725,39.979-51.543,63.614-51.543,63.614    C174.918,276.963,183.289,170,183.289,170h-33.208c0.785,140,79.177,192.997,88.873,200.436c9.038,7.306,10.627,6.216,23.11,6.216    c11.299-0.397,36.937-26.575,68.559-74.802c2.792-4.514,6.488-9.248,9.016-13.758c13.277,2.781,23.361,2.713,23.361,2.713v-30.155    c-68-6.374-71.191-61.514-71.191-75.193c0-17.934,35.813-26.361,35.813,2.872c0,16.608-2.847,24.672-6.428,39.672H358.915z" style="fill-rule:evenodd;clip-rule:evenodd;fill:#262626;"/></g></g><g id="Layer_1"/></svg>