<?xml version="1.0" ?><!DOCTYPE svg  PUBLIC '-//W3C//DTD SVG 1.1//EN'  'http://www.w3.org/Graphics/SVG/1.1/DTD/svg11.dtd'><svg height="512px" style="enable-background:new 0 0 512 512;" version="1.1" viewBox="0 0 512 512" width="512px" xml:space="preserve" xmlns="http://www.w3.org/2000/svg" xmlns:xlink="http://www.w3.org/1999/xlink"><g id="evernote__x2C__icons__x2C__social__x2C__media"><g><path d="M425.609,86.35C382.172,42.906,322.12,16.063,255.955,16.063    c-66.292,0-126.344,26.844-169.649,70.287c-43.443,43.438-70.277,103.356-70.277,169.654c0,66.285,26.834,126.209,70.277,169.657    c43.306,43.438,103.357,70.276,169.649,70.276c66.165,0,126.217-26.839,169.654-70.276    c43.443-43.448,70.287-103.372,70.287-169.657C495.896,189.706,469.053,129.787,425.609,86.35z M412.328,412.364    c-39.989,40.126-95.252,64.835-156.373,64.835c-61.111,0-116.374-24.709-156.5-64.835c-39.983-39.984-64.693-95.252-64.693-156.36    c0-61.116,24.71-116.379,64.693-156.368c40.126-40.121,95.389-64.835,156.5-64.835c61.121,0,116.384,24.714,156.373,64.835    c39.988,39.989,64.83,95.252,64.83,156.368C477.158,317.112,452.316,372.38,412.328,412.364z" style="fill:#262626;"/><path d="M195.251,176.154c3.582-2.649,2.649-40.386,0-41.446c-2.664-1.064-41.195,40.656-41.195,41.446    C154.056,176.821,191.797,178.549,195.251,176.154z" style="fill:#262626;"/><path d="M331.688,147.461c-34.276-1.86-40.258-2.257-55.399-3.327    c-2.925-26.829-71.347-24.576-71.347-6.373c0,18.729,0.397,34.542-3.317,41.45c-3.327,6.384-19.666,3.062-38.129,3.322    c-10.897,0-14.749,8.772-15.809,12.752c-3.057,11.03,12.88,87.948,17.399,95.254c7.183,11.962,73.869,24.444,82.504,19.136    c8.768-5.31,9.435-27.104,11.291-27.104c1.595,0.266,3.86,12.359,9.431,14.347c15.813,5.584,35.871,7.979,44.512,12.758    c9.563,5.309,13.547,37.722,4.646,44.507c-5.839,4.515-16.201,1.59-28.429,1.59c-12.487,0-11.499-18.596-5.792-18.993    c5.318-0.407,11.752,0,11.752,0s0-16.079,0-19.136c-5,0.274-26.496-3.719-38.717,14.356c-5.446,7.969-4.213,35.867,8.534,46.221    c14.882,12.094,60.263,10.637,65.179,7.713c47.962-27.095,31.74-198.748,31.74-198.748S366.363,149.315,331.688,147.461z     M328.627,250.822c-5.182-2.929-19.264-3.454-27.095-1.599c-3.062-5.182,1.992-17.13,15.937-15.805    C331.025,234.342,329.166,249.224,328.627,250.822z" style="fill:#262626;"/></g></g><g id="Layer_1"/></svg>