<?xml version="1.0" ?><!DOCTYPE svg  PUBLIC '-//W3C//DTD SVG 1.1//EN'  'http://www.w3.org/Graphics/SVG/1.1/DTD/svg11.dtd'><svg height="100%" style="fill-rule:evenodd;clip-rule:evenodd;stroke-linejoin:round;stroke-miterlimit:1.41421;" version="1.1" viewBox="0 0 49 49" width="100%" xml:space="preserve" xmlns="http://www.w3.org/2000/svg" xmlns:serif="http://www.serif.com/" xmlns:xlink="http://www.w3.org/1999/xlink"><rect height="48" style="fill:none;" width="48" x="0.414" y="0.362"/><path d="M36.414,11.168c0,-1.55 -1.256,-2.806 -2.805,-2.806c-4.625,0 -13.794,0 -18.407,0c-0.739,0 -1.448,0.294 -1.971,0.817c-0.523,0.523 -0.817,1.232 -0.817,1.971c0,0.001 0,0.001 0,0.001c0,0.772 0.323,1.509 0.89,2.033c2.933,2.707 12.11,11.178 12.11,11.178c0,0 -9.177,8.471 -12.11,11.179c-0.567,0.523 -0.89,1.26 -0.89,2.032c0,0.001 0,0.001 0,0.001c0,0.74 0.294,1.449 0.817,1.972c0.523,0.522 1.232,0.816 1.971,0.816c4.613,0 13.782,0 18.407,0c1.549,0 2.805,-1.256 2.805,-2.805c0,-0.13 0,-0.26 0,-0.389c0,-1.55 -1.256,-2.806 -2.805,-2.806c-4.087,0 -11.195,0 -11.195,0c0,0 6.211,-6.211 8.843,-8.843c0.307,-0.307 0.48,-0.723 0.48,-1.157c0,-0.434 -0.173,-0.85 -0.48,-1.157c-2.632,-2.632 -8.843,-8.843 -8.843,-8.843c0,0 7.108,0 11.195,0c1.549,0 2.805,-1.256 2.805,-2.805c0,-0.13 0,-0.26 0,-0.389Z" style="fill:#f6ac00;fill-rule:nonzero;"/></svg>