<?xml version="1.0" ?><!DOCTYPE svg  PUBLIC '-//W3C//DTD SVG 1.1//EN'  'http://www.w3.org/Graphics/SVG/1.1/DTD/svg11.dtd'><svg enable-background="new 0 0 90 90" height="90px" id="Layer_1" version="1.1" viewBox="0 0 90 90" width="90px" xml:space="preserve" xmlns="http://www.w3.org/2000/svg" xmlns:xlink="http://www.w3.org/1999/xlink"><path d="M61.419,37.145c0.883-0.515,1.181-1.648,0.665-2.53l-2.334-3.999l-1.598-15.971h3.497V7.74l-11.1-6.428L39.45,7.74v6.904  h3.497L41.582,28.3c-0.102,1.017,0.64,1.923,1.657,2.025c1.015,0.104,1.923-0.64,2.025-1.657l1.401-14.024h7.771l1.713,17.141  l2.74,4.694c0.344,0.589,0.963,0.917,1.6,0.917C60.805,37.397,61.126,37.316,61.419,37.145z M57.95,10.944h-0.167l-0.01-0.094  H43.326l-0.009,0.094H43.15V9.873l7.4-4.285l7.4,4.285V10.944z M2.45,44.917v45.482h51.799V44.917L28.35,30.366L2.45,44.917z   M50.55,86.7H6.15V47.083l22.2-12.473l22.2,12.473V86.7z M13.549,60.8h3.7V53.4h-3.7V60.8z M26.5,60.8h3.7V53.4h-3.7V60.8z   M43.15,53.4h-3.7V60.8h3.7V53.4z M13.549,75.6h3.7V68.2h-3.7V75.6z M26.5,75.6h3.7V68.2h-3.7V75.6z M43.15,68.2h-3.7V75.6h3.7V68.2  z M61.649,44.15c-1.021,0-1.85,0.828-1.85,1.85c0,1.021,0.828,1.85,1.85,1.85h22.2v12.951h-22.2c-1.021,0-1.85,0.828-1.85,1.85  s0.828,1.85,1.85,1.85h22.2v16.65H62.5c-1.021,0-1.85,0.828-1.85,1.85s0.828,1.85,1.85,1.85h25.049v-40.7H61.649z"/></svg>