<?xml version="1.0" ?><!DOCTYPE svg  PUBLIC '-//W3C//DTD SVG 1.1//EN'  'http://www.w3.org/Graphics/SVG/1.1/DTD/svg11.dtd'><svg enable-background="new 0 0 90 90" height="90px" id="Layer_1" version="1.1" viewBox="0 0 90 90" width="90px" xml:space="preserve" xmlns="http://www.w3.org/2000/svg" xmlns:xlink="http://www.w3.org/1999/xlink"><path d="M82.431,25.371c-0.298-1.111-0.742-2.156-1.294-3.132c-0.016-0.032-0.025-0.066-0.044-0.098  c-0.024-0.043-0.055-0.082-0.079-0.125c-0.137-0.23-0.281-0.453-0.431-0.674c-0.081-0.121-0.163-0.241-0.247-0.358  c-0.151-0.208-0.309-0.412-0.471-0.611c-0.104-0.127-0.21-0.251-0.318-0.375c-0.153-0.175-0.31-0.347-0.473-0.514  c-0.143-0.146-0.29-0.285-0.438-0.423c-0.142-0.132-0.282-0.266-0.431-0.393c-0.215-0.184-0.438-0.356-0.664-0.526  c-0.096-0.072-0.188-0.149-0.286-0.219c-3.46-2.461-7.994-3.213-12.206-1.727c-0.964,0.34-1.47,1.396-1.13,2.36  c0.341,0.964,1.399,1.47,2.36,1.129c2.738-0.965,5.667-0.625,8.05,0.748c0.004,0.002,0.007,0.005,0.01,0.007  c0.268,0.155,0.525,0.322,0.774,0.499c0.065,0.047,0.129,0.1,0.193,0.148c0.169,0.126,0.335,0.255,0.494,0.391  c0.104,0.089,0.204,0.184,0.305,0.278c0.109,0.102,0.218,0.205,0.322,0.312c0.117,0.12,0.23,0.244,0.341,0.37  c0.079,0.089,0.155,0.18,0.23,0.271c0.118,0.144,0.231,0.292,0.342,0.443c0.061,0.084,0.118,0.169,0.177,0.255  c0.108,0.162,0.215,0.326,0.315,0.495c0.441,0.75,0.792,1.561,1.023,2.424c0.67,2.502,0.326,5.115-0.979,7.375l-9.291,16.479  c-0.502,0.89-0.188,2.018,0.703,2.52c0.287,0.162,0.599,0.239,0.906,0.239c0.646,0,1.273-0.339,1.613-0.942l9.281-16.46  C82.881,32.439,83.356,28.828,82.431,25.371z M60.258,14.328v-0.229c0-3.061-2.489-5.55-5.549-5.55H41.81L18.364,0.665h-6.536  c-3.061,0-5.55,2.49-5.55,5.55c0,1.208,0.394,2.362,1.14,3.345l8.086,12.247L6.568,62.912l-0.042,0.393  c0,5.694,1.735,11.354,5.158,16.83v3.695c0,3.061,2.489,5.551,5.549,5.551h39.589c3.06,0,5.549-2.49,5.549-5.551v-3.729  c3.413-5.468,5.143-11.116,5.143-16.796v-0.199l-9.055-41.636L60.258,14.328z M63.813,63.5c-0.041,5.055-1.672,10.122-4.849,15.064  l-0.293,0.457v4.809c0,1.021-0.83,1.852-1.85,1.852H17.233c-1.02,0-1.849-0.831-1.849-1.852v-4.776l-0.294-0.457  c-3.187-4.95-4.822-10.028-4.863-15.097l9.224-42.431L10.468,7.465l-0.086-0.119C10.198,7.11,9.978,6.722,9.978,6.215  c0-1.02,0.83-1.85,1.85-1.85h5.931l23.446,7.883h13.504c0.955,0,1.744,0.729,1.84,1.659l-1.891,7.5L63.813,63.5z M37.954,32.03  c-7.141,0-12.95,4.979-12.95,11.1s5.809,11.1,12.95,11.1c7.14,0,12.949-4.979,12.949-11.1S45.094,32.03,37.954,32.03z   M37.954,50.531c-5.1,0-9.25-3.32-9.25-7.401s4.149-7.4,9.25-7.4s9.25,3.319,9.25,7.4S43.054,50.531,37.954,50.531z M45.354,59.781  H30.553c-1.022,0-1.85,0.828-1.85,1.85s0.828,1.85,1.85,1.85h14.801c1.022,0,1.85-0.828,1.85-1.85S46.376,59.781,45.354,59.781z"/></svg>