<?xml version="1.0" ?><!DOCTYPE svg  PUBLIC '-//W3C//DTD SVG 1.1//EN'  'http://www.w3.org/Graphics/SVG/1.1/DTD/svg11.dtd'><svg enable-background="new 0 0 90 90" height="90px" id="Layer_1" version="1.1" viewBox="0 0 90 90" width="90px" xml:space="preserve" xmlns="http://www.w3.org/2000/svg" xmlns:xlink="http://www.w3.org/1999/xlink"><path d="M70.899,44.994L62.033,0.719H27.965l-8.83,43.91l-0.037,0.365c0,9.884,5.529,18.737,14.254,23.11L26.5,79.605v0.51  c0,5.101,4.15,9.25,9.25,9.25h18.5c5.101,0,9.249-4.149,9.249-9.25v-0.493l-6.66-11.613C65.445,63.601,70.899,54.779,70.899,44.994z   M53.521,65.472l-1.94,0.806l8.2,14.298c-0.234,2.846-2.625,5.091-5.53,5.091h-18.5c-2.9,0-5.289-2.236-5.53-5.075l8.478-14.228  l-2.003-0.808C28.31,62.175,22.872,54.188,22.8,45.174l8.196-40.755h28.008l7.781,38.696H32.944c-1.021,0-1.85,0.828-1.85,1.85  s0.829,1.85,1.85,1.85h34.181C66.454,55.054,61.264,62.254,53.521,65.472z"/></svg>