<?xml version="1.0" ?><svg height="512px" style="shape-rendering:geometricPrecision; text-rendering:geometricPrecision; image-rendering:optimizeQuality; fill-rule:evenodd; clip-rule:evenodd" version="1.1" viewBox="0 0 512000 512000" width="512px" xml:space="preserve" xmlns="http://www.w3.org/2000/svg" xmlns:xlink="http://www.w3.org/1999/xlink"><g><path d="M59785 5846l392431 0c29666,0 53938,24272 53938,53938l0 392431c0,29667 -24272,53939 -53938,53939l-392431 0c-29667,0 -53939,-24273 -53939,-53939l0 -392431c0,-29666 24273,-53938 53939,-53938zm7848 10006l376736 0c28478,0 51779,23301 51779,51779l0 376736c0,28479 -23301,51781 -51779,51781l-376736 0c-28480,0 -51781,-23302 -51781,-51781l0 -376736c0,-28478 23301,-51779 51781,-51779z" fill="#000000"/><path d="M174481 174481c29437,-29438 77164,-29438 106602,0 25531,25531 28913,64819 10158,94002l67557 67557c1065,1065 1065,2809 0,3874l-18884 18884c-1065,1065 -2809,1065 -3874,0l-67557 -67557c-29183,18756 -68471,15373 -94002,-10158 -29438,-29438 -29438,-77165 0,-106602zm74055 28230l0 56829 -10524 0 0 -27362 -19468 27362 -11445 0 26573 -34860 -10393 0c-8610,0 -15654,-7044 -15654,-15654l0 0c0,-8610 7044,-15654 15654,-15654l10604 0 7944 0 4106 0c1055,391 2028,1122 2603,2437l0 6904zm-14816 14744l5660 0 0 -16859 -5546 0 -9887 0c-4635,0 -8428,3795 -8428,8430l0 0c0,4635 3793,8430 8428,8430l9774 0zm-44867 -28600c21500,-21500 56356,-21500 77856,0 21498,21500 21498,56356 0,77856 -21500,21498 -56356,21498 -77856,0 -21500,-21500 -21500,-56356 0,-77856z" fill="#000000"/></g></svg>