<?xml version="1.0" ?><!DOCTYPE svg  PUBLIC '-//W3C//DTD SVG 1.1//EN'  'http://www.w3.org/Graphics/SVG/1.1/DTD/svg11.dtd'><svg height="6.82666in" style="shape-rendering:geometricPrecision; text-rendering:geometricPrecision; image-rendering:optimizeQuality; fill-rule:evenodd; clip-rule:evenodd" viewBox="0 0 6.82666 6.82666" width="6.82666in" xml:space="preserve" xmlns="http://www.w3.org/2000/svg" xmlns:xlink="http://www.w3.org/1999/xlink"><defs><style type="text/css">
   <![CDATA[
    .fil2 {fill:none}
    .fil1 {fill:black}
    .fil0 {fill:black;fill-rule:nonzero}
   ]]>
  </style></defs><g id="Layer_x0020_1"><g id="_341771952"><path class="fil0" d="M1.60666 0.913331l2.55457 0c0.0222638,0 0.0423976,0.00909843 0.0569016,0.0237756l1.22509 1.22509 3.93701e-006 -3.93701e-006c0.015622,0.0156181 0.0234291,0.0360945 0.0234291,0.0565669l3.93701e-006 0 0 3.4479c0,0.0679173 -0.0277244,0.129602 -0.0723937,0.174272 -0.0446693,0.0446693 -0.106354,0.0723937 -0.174272,0.0723937l-3.61333 0c-0.0679173,0 -0.129602,-0.0277244 -0.174272,-0.0723937 -0.0446693,-0.0446693 -0.0723937,-0.106354 -0.0723937,-0.174272l0 -4.50667c0,-0.0679173 0.0277244,-0.129602 0.0723937,-0.174272 0.0446693,-0.0446693 0.106354,-0.0723937 0.174272,-0.0723937zm2.52144 0.16l-2.52144 0c-0.023748,0 -0.0454016,0.00977559 -0.0611457,0.0255197 -0.0157441,0.0157441 -0.0255197,0.0373976 -0.0255197,0.0611457l0 4.50667c0,0.023748 0.00977559,0.0454016 0.0255197,0.0611457 0.0157441,0.0157441 0.0373976,0.0255197 0.0611457,0.0255197l3.61333 0c0.023748,0 0.0454016,-0.00977559 0.0611457,-0.0255197 0.0157441,-0.0157441 0.0255197,-0.0373976 0.0255197,-0.0611457l0 -3.41478 -1.17856 -1.17856z" id="_341771328"/><path class="fil0" d="M5.37944 2.29843l-1.21511 -0.00354724 0 -0.079689 -0.000232283 0.08c-0.0441811,-0.000125984 -0.0798937,-0.0360512 -0.0797677,-0.0802323 7.87402e-006,-0.00222835 0.000110236,-0.00443307 0.000295276,-0.00661024l-0.00308661 -1.21482 -0.000311024 0c-0.000110236,-0.0441811 0.0356142,-0.0800945 0.0797953,-0.0802047 0.0223858,-5.51181e-005 0.0426457,0.00909055 0.0572047,0.023874l1.225 1.225 3.93701e-006 -3.93701e-006c0.0312402,0.0312402 0.0312402,0.0818937 0,0.113134 -0.0174567,0.0174567 -0.0409803,0.0251575 -0.0637874,0.0231024z" id="_341771472"/></g><path class="fil1" d="M2.83793 5.60178l0 -0.658846 0.243138 0c0.0547598,0 0.0964843,0.00414173 0.125327,0.0125787 0.0386535,0.0113504 0.0717874,0.0316024 0.099248,0.060748 0.0276102,0.0289921 0.048626,0.0645787 0.0630472,0.10661 0.0142638,0.042185 0.0214724,0.0940315 0.0214724,0.155854 0,0.0541496 -0.00674803,0.100933 -0.020248,0.140205 -0.0164134,0.0478583 -0.0398819,0.0866693 -0.070563,0.116276 -0.0230079,0.0225512 -0.0541496,0.0400354 -0.0934173,0.0526142 -0.0292992,0.00935827 -0.0685709,0.0139606 -0.117811,0.0139606l-0.250193 0zm1.95873 -0.970398l-2.76667 0c-0.0679173,0 -0.129602,0.0277244 -0.174272,0.0723937 -0.0446693,0.0446693 -0.0723937,0.106354 -0.0723937,0.174272l0 0.87528 0.16 0 2.94 0 0.16 0 0 -0.87528c0,-0.0679173 -0.0277244,-0.129602 -0.0723937,-0.174272 -0.0446693,-0.0446693 -0.106354,-0.0723937 -0.174272,-0.0723937zm-1.29329 0.970398l0 -0.658846 0.263386 0c0.0521535,0 0.0911181,0.00214961 0.116736,0.00659843 0.0256142,0.00429528 0.0484724,0.0133425 0.0687205,0.0271496 0.020248,0.0138071 0.0369685,0.0320591 0.0504685,0.0550709 0.0135,0.0228543 0.020248,0.048626 0.020248,0.0770039 0,0.0308346 -0.00828346,0.0592126 -0.0248504,0.0849843 -0.0167205,0.0257717 -0.0392717,0.0450984 -0.0676496,0.0579843 0.0400394,0.0116575 0.0710236,0.0315984 0.0925,0.0596732 0.0216299,0.0282244 0.0323661,0.0613583 0.0323661,0.0994016 0,0.0299134 -0.00690157,0.0590591 -0.0208622,0.087437 -0.0139567,0.0282244 -0.0329803,0.0509291 -0.057063,0.0678031 -0.0240827,0.016874 -0.0538425,0.0273031 -0.0892795,0.0312913 -0.0220866,0.00230315 -0.075622,0.00383465 -0.160453,0.00444882l-0.224268 0z"/><path class="fil1" d="M2.97093 5.05446l0 0.436268 0.099248 0c0.037122,0 0.0639685,-0.00199606 0.0805354,-0.00629134 0.0214764,-0.00537008 0.0394213,-0.0144173 0.053689,-0.0273031 0.0142677,-0.0128858 0.0257717,-0.0342087 0.0348228,-0.0636614 0.00889764,-0.0294528 0.0134961,-0.0697953 0.0134961,-0.120724 0,-0.0509291 -0.00459843,-0.0898898 -0.0134961,-0.117197 -0.00905118,-0.0273031 -0.0216299,-0.048626 -0.0377362,-0.063815 -0.0162598,-0.0153386 -0.036815,-0.0256142 -0.0616654,-0.0309843 -0.018563,-0.00429528 -0.0549173,-0.00629134 -0.10922,-0.00629134l-0.0596732 0z"/><path class="fil1" d="M3.63652 5.05262l0 0.152323 0.0871299 0c0.0518465,0 0.084063,-0.000767717 0.0966417,-0.00229921 0.0227008,-0.00261024 0.0406496,-0.0104331 0.053689,-0.0234724 0.0130394,-0.0130354 0.0194803,-0.0302165 0.0194803,-0.0515394 0,-0.0204016 -0.00552362,-0.0369685 -0.0167205,-0.0497008 -0.0113504,-0.0127323 -0.0280709,-0.0204016 -0.0501614,-0.0230118 -0.0131929,-0.0015315 -0.0510827,-0.00229921 -0.113665,-0.00229921l-0.0763937 0z"/><path class="fil1" d="M3.7439 5.31462l-0.107378 0 0 0.176102 0.123024 0c0.0480157,0 0.0783858,-0.00122835 0.0912717,-0.00398819 0.0197913,-0.0035315 0.0358976,-0.0124252 0.0483228,-0.0262323 0.0124252,-0.0139606 0.0187126,-0.0326732 0.0187126,-0.0559921 0,-0.0197874 -0.00490945,-0.0365079 -0.0144173,-0.050315 -0.00966535,-0.0138031 -0.0234724,-0.0239291 -0.0415709,-0.0302165 -0.0181024,-0.00629134 -0.0575236,-0.00935827 -0.117965,-0.00935827z"/></g><rect class="fil2" height="6.82666" width="6.82666"/></svg>