<?xml version="1.0" ?><!DOCTYPE svg  PUBLIC '-//W3C//DTD SVG 1.1//EN'  'http://www.w3.org/Graphics/SVG/1.1/DTD/svg11.dtd'><svg height="6.82666in" style="shape-rendering:geometricPrecision; text-rendering:geometricPrecision; image-rendering:optimizeQuality; fill-rule:evenodd; clip-rule:evenodd" viewBox="0 0 6.82666 6.82666" width="6.82666in" xml:space="preserve" xmlns="http://www.w3.org/2000/svg" xmlns:xlink="http://www.w3.org/1999/xlink"><defs><style type="text/css">
   <![CDATA[
    .fil2 {fill:none}
    .fil1 {fill:black}
    .fil0 {fill:black;fill-rule:nonzero}
   ]]>
  </style></defs><g id="Layer_x0020_1"><g id="_341796960"><path class="fil0" d="M1.60666 0.913331l2.55457 0c0.0222638,0 0.0423976,0.00909843 0.0569016,0.0237756l1.22509 1.22509 3.93701e-006 -3.93701e-006c0.015622,0.0156181 0.0234291,0.0360945 0.0234291,0.0565669l3.93701e-006 0 0 3.4479c0,0.0679173 -0.0277244,0.129602 -0.0723937,0.174272 -0.0446693,0.0446693 -0.106354,0.0723937 -0.174272,0.0723937l-3.61333 0c-0.0679173,0 -0.129602,-0.0277244 -0.174272,-0.0723937 -0.0446693,-0.0446693 -0.0723937,-0.106354 -0.0723937,-0.174272l0 -4.50667c0,-0.0679173 0.0277244,-0.129602 0.0723937,-0.174272 0.0446693,-0.0446693 0.106354,-0.0723937 0.174272,-0.0723937zm2.52144 0.16l-2.52144 0c-0.023748,0 -0.0454016,0.00977559 -0.0611457,0.0255197 -0.0157441,0.0157441 -0.0255197,0.0373976 -0.0255197,0.0611457l0 4.50667c0,0.023748 0.00977559,0.0454016 0.0255197,0.0611457 0.0157441,0.0157441 0.0373976,0.0255197 0.0611457,0.0255197l3.61333 0c0.023748,0 0.0454016,-0.00977559 0.0611457,-0.0255197 0.0157441,-0.0157441 0.0255197,-0.0373976 0.0255197,-0.0611457l0 -3.41478 -1.17856 -1.17856z" id="_341797080"/><path class="fil0" d="M5.37944 2.29843l-1.21511 -0.00354724 0 -0.079689 -0.000232283 0.08c-0.0441811,-0.000125984 -0.0798937,-0.0360512 -0.0797677,-0.0802323 7.87402e-006,-0.00222835 0.000110236,-0.00443307 0.000295276,-0.00661024l-0.00308661 -1.21482 -0.000311024 0c-0.000110236,-0.0441811 0.0356142,-0.0800945 0.0797953,-0.0802047 0.0223858,-5.51181e-005 0.0426457,0.00909055 0.0572047,0.023874l1.225 1.225 3.93701e-006 -3.93701e-006c0.0312402,0.0312402 0.0312402,0.0818937 0,0.113134 -0.0174567,0.0174567 -0.0409803,0.0251575 -0.0637874,0.0231024z" id="_341797032"/></g><path class="fil1" d="M4.79666 4.63139l-2.76667 0c-0.0679173,0 -0.129602,0.0277244 -0.174272,0.0723937 -0.0446693,0.0446693 -0.0723937,0.106354 -0.0723937,0.174272l0 0.87528 0.16 0 2.94 0 0.16 0 0 -0.87528c0,-0.0679173 -0.0277244,-0.129602 -0.0723937,-0.174272 -0.0446693,-0.0446693 -0.106354,-0.0723937 -0.174272,-0.0723937zm-2.23622 0.73148l0 -0.425528 0.132689 0 0 0.417091c0,0.0544567 -0.00490945,0.0964882 -0.0144213,0.125787 -0.0128819,0.0383504 -0.0362008,0.0691811 -0.0701024,0.0923465 -0.0339016,0.023315 -0.0785394,0.0348189 -0.133917,0.0348189 -0.0650394,0 -0.115047,-0.0180984 -0.150177,-0.0546102 -0.0349724,-0.0363543 -0.0527677,-0.0897362 -0.0529213,-0.160146l0.125327 -0.0144213c0.00153543,0.0377362 0.00705512,0.0644291 0.0165669,0.0800748 0.0144213,0.023622 0.0363543,0.035437 0.0656535,0.035437 0.0296063,0 0.050622,-0.00843701 0.0628937,-0.0254646 0.0122717,-0.016874 0.0184094,-0.0520039 0.0184094,-0.105386zm0.20724 0.233319l0.256634 -0.658846 0.140669 0 0.263843 0.658846 -0.144807 0 -0.0575236 -0.149717 -0.263386 0 -0.0543031 0.149717 -0.141126 0zm0.831417 0l-0.235469 -0.658846 0.144346 0 0.166591 0.487654 0.161378 -0.487654 0.141126 0 -0.235929 0.658846 -0.142043 0zm0.31063 0l0.256634 -0.658846 0.140669 0 0.263843 0.658846 -0.144807 0 -0.0575236 -0.149717 -0.263386 0 -0.0543031 0.149717 -0.141126 0z"/><polygon class="fil1" points="3.18385,5.33556 3.09304,5.09104 3.00406,5.33556 "/><polygon class="fil1" points="4.23508,5.09104 4.14611,5.33556 4.32589,5.33556 "/></g><rect class="fil2" height="6.82666" width="6.82666"/></svg>