<?xml version="1.0" ?><svg height="16px" id="SVGRoot" version="1.1" viewBox="0 0 16 16" width="16px" xmlns="http://www.w3.org/2000/svg" xmlns:cc="http://creativecommons.org/ns#" xmlns:dc="http://purl.org/dc/elements/1.1/" xmlns:inkscape="http://www.inkscape.org/namespaces/inkscape" xmlns:rdf="http://www.w3.org/1999/02/22-rdf-syntax-ns#" xmlns:sodipodi="http://sodipodi.sourceforge.net/DTD/sodipodi-0.dtd" xmlns:svg="http://www.w3.org/2000/svg"><defs id="defs4094"/><g id="layer1"><path d="M 8.1484375 0.20898438 C 7.8568503 0.20716408 7.5610218 0.3171502 7.3300781 0.5390625 L 5.6464844 2.15625 L 3.28125 2.15625 C 2.658 2.15625 2.15625 2.6719375 2.15625 3.3125 L 2.15625 5.5097656 L 0.5703125 7.0332031 C 0.1084251 7.4770279 0.085748225 8.1970805 0.51757812 8.6464844 L 2.15625 10.351562 L 2.15625 12.6875 C 2.15625 13.328062 2.658 13.84375 3.28125 13.84375 L 5.5117188 13.84375 L 7.0566406 15.451172 C 7.4884701 15.900576 8.2080345 15.904692 8.6699219 15.460938 L 10.353516 13.84375 L 12.71875 13.84375 C 13.342 13.84375 13.84375 13.328062 13.84375 12.6875 L 13.84375 10.490234 L 15.429688 8.9667969 C 15.891575 8.5229721 15.914259 7.8029195 15.482422 7.3535156 L 13.84375 5.6484375 L 13.84375 3.3125 C 13.84375 2.6719375 13.342 2.15625 12.71875 2.15625 L 10.488281 2.15625 L 8.9433594 0.54882812 C 8.7274446 0.32412622 8.4400247 0.21080468 8.1484375 0.20898438 z M 8.4921875 3.6542969 A 4.375 4.375 0 0 1 12.375 8 A 4.375 4.375 0 0 1 8.4863281 12.341797 C 8.4914596 12.295837 8.5 12.250504 8.5 12.203125 L 8.5 3.734375 C 8.5 3.7070182 8.4939178 3.6812 8.4921875 3.6542969 z " id="rect4039" style="fill:#000000;stroke:none"/></g></svg>