<?xml version="1.0" ?><svg height="16px" id="SVGRoot" version="1.1" viewBox="0 0 16 16" width="16px" xmlns="http://www.w3.org/2000/svg" xmlns:cc="http://creativecommons.org/ns#" xmlns:dc="http://purl.org/dc/elements/1.1/" xmlns:inkscape="http://www.inkscape.org/namespaces/inkscape" xmlns:rdf="http://www.w3.org/1999/02/22-rdf-syntax-ns#" xmlns:sodipodi="http://sodipodi.sourceforge.net/DTD/sodipodi-0.dtd" xmlns:svg="http://www.w3.org/2000/svg"><defs id="defs4063"/><g id="layer1"><path d="M 8.148437,0.1464897 C 7.8568498,0.1446694 7.5610213,0.2546555 7.3300776,0.4765678 L 5.6464839,2.0937553 H 3.2812495 c -0.62325,0 -1.125,0.5156875 -1.125,1.15625 V 5.4472709 L 0.570312,6.9707084 C 0.1084246,7.4145332 0.0857481,8.1345858 0.517578,8.5839897 l 1.6386719,1.7050773 v 2.335938 c 0,0.640562 0.50175,1.15625 1.125,1.15625 h 2.2304688 l 1.5449218,1.607422 c 0.4318295,0.449404 1.1513939,0.453555 1.6132813,0.0098 l 1.6835942,-1.617222 h 2.365234 c 0.62325,0 1.125,-0.515688 1.125,-1.15625 v -2.197266 l 1.585938,-1.5234368 c 0.461887,-0.4438248 0.484567,-1.1638774 0.05273,-1.6132813 L 13.84375,5.5859428 V 3.2500053 c 0,-0.6405625 -0.50175,-1.15625 -1.125,-1.15625 H 10.488281 L 8.9433589,0.4863334 C 8.7274441,0.2616315 8.4400242,0.14831 8.148437,0.1464897 Z M 7.9999995,3.5625053 a 4.375,4.375 0 0 1 4.3750005,4.375 4.375,4.375 0 0 1 -4.3750005,4.3749997 4.375,4.375 0 0 1 -4.375,-4.3749997 4.375,4.375 0 0 1 4.375,-4.375 z" id="rect4039" style="fill:#000000;stroke:none"/></g></svg>