<?xml version="1.0" ?><svg height="16px" id="SVGRoot" version="1.1" viewBox="0 0 16 16" width="16px" xmlns="http://www.w3.org/2000/svg" xmlns:cc="http://creativecommons.org/ns#" xmlns:dc="http://purl.org/dc/elements/1.1/" xmlns:inkscape="http://www.inkscape.org/namespaces/inkscape" xmlns:rdf="http://www.w3.org/1999/02/22-rdf-syntax-ns#" xmlns:sodipodi="http://sodipodi.sourceforge.net/DTD/sodipodi-0.dtd" xmlns:svg="http://www.w3.org/2000/svg"><defs id="defs137"/><g id="layer1"><path d="M 3.5195312 1.3203125 C 3.0062929 1.3203125 2.59375 1.7052861 2.59375 2.1816406 L 2.59375 2.2773438 C 2.59375 2.7536983 3.0062929 3.1367188 3.5195312 3.1367188 L 12.607422 3.1367188 C 13.12066 3.1367188 13.533203 2.7536983 13.533203 2.2773438 L 13.533203 2.1816406 C 13.533203 1.7052861 13.12066 1.3203125 12.607422 1.3203125 L 3.5195312 1.3203125 z M 3.5195312 4.2070312 C 3.0062929 4.2070312 2.59375 4.5920048 2.59375 5.0683594 L 2.59375 5.1640625 C 2.59375 5.640417 3.0062929 6.0234375 3.5195312 6.0234375 L 12.607422 6.0234375 C 13.12066 6.0234375 13.533203 5.640417 13.533203 5.1640625 L 13.533203 5.0683594 C 13.533203 4.5920048 13.12066 4.2070312 12.607422 4.2070312 L 3.5195312 4.2070312 z M 3.5195312 7.09375 C 3.0062929 7.09375 2.59375 7.4787235 2.59375 7.9550781 L 2.59375 8.0507812 C 2.59375 8.5271359 3.0062929 8.9101562 3.5195312 8.9101562 L 12.607422 8.9101562 C 13.12066 8.9101562 13.533203 8.5271359 13.533203 8.0507812 L 13.533203 7.9550781 C 13.533203 7.4787235 13.12066 7.09375 12.607422 7.09375 L 3.5195312 7.09375 z M 3.5195312 9.9804688 C 3.0062929 9.9804688 2.59375 10.365442 2.59375 10.841797 L 2.59375 10.9375 C 2.59375 11.413855 3.0062929 11.796875 3.5195312 11.796875 L 12.607422 11.796875 C 13.12066 11.796875 13.533203 11.413855 13.533203 10.9375 L 13.533203 10.841797 C 13.533203 10.365442 13.12066 9.9804688 12.607422 9.9804688 L 3.5195312 9.9804688 z M 3.5195312 12.867188 C 3.0062929 12.867188 2.59375 13.252161 2.59375 13.728516 L 2.59375 13.824219 C 2.59375 14.300573 3.0062929 14.683594 3.5195312 14.683594 L 12.607422 14.683594 C 13.12066 14.683594 13.533203 14.300573 13.533203 13.824219 L 13.533203 13.728516 C 13.533203 13.252161 13.12066 12.867188 12.607422 12.867188 L 3.5195312 12.867188 z " id="rect49" style="fill:#000000;stroke:none;stroke-width:0.01671921"/></g></svg>