<?xml version="1.0" ?><svg height="16px" id="SVGRoot" version="1.1" viewBox="0 0 16 16" width="16px" xmlns="http://www.w3.org/2000/svg" xmlns:cc="http://creativecommons.org/ns#" xmlns:dc="http://purl.org/dc/elements/1.1/" xmlns:inkscape="http://www.inkscape.org/namespaces/inkscape" xmlns:rdf="http://www.w3.org/1999/02/22-rdf-syntax-ns#" xmlns:sodipodi="http://sodipodi.sourceforge.net/DTD/sodipodi-0.dtd" xmlns:svg="http://www.w3.org/2000/svg"><defs id="defs615"/><g id="layer1"><path d="M 6.9375 4.71875 C 6.245 4.71875 5.6875 5.5672893 5.6875 6.6210938 L 5.6875 6.7753906 L 4.7675781 6.7753906 C 4.0901251 6.7753906 3.7174106 7.2928585 3.9316406 7.9355469 L 4.6503906 10.089844 C 4.8646196 10.732532 5.5823126 11.25 6.2597656 11.25 L 9.3652344 11.25 C 10.042687 11.25 10.760378 10.732532 10.974609 10.089844 L 11.693359 7.9355469 C 11.90759 7.2928585 11.534874 6.7753906 10.857422 6.7753906 L 9.9375 6.7753906 L 9.9375 6.6210938 C 9.9375 5.5672894 9.38 4.71875 8.6875 4.71875 L 6.9375 4.71875 z M 7.1484375 5.125 L 8.546875 5.125 C 9.100875 5.125 9.546875 5.8034409 9.546875 6.6464844 L 9.546875 6.7753906 L 7.875 6.7753906 L 7.75 6.7753906 L 6.1484375 6.7753906 L 6.1484375 6.6464844 C 6.1484375 5.8034409 6.5944375 5.125 7.1484375 5.125 z M 7.8125 7.3125 C 8.1068125 7.3125 8.34375 7.5494375 8.34375 7.84375 L 8.34375 8.375 L 8.875 8.3730469 C 9.1693122 8.372648 9.4058511 8.6099846 9.40625 8.9042969 C 9.4066489 9.1986091 9.1693122 9.4351449 8.875 9.4355469 L 8.34375 9.4375 L 8.34375 9.96875 C 8.34375 10.263063 8.1068125 10.5 7.8125 10.5 C 7.5181875 10.5 7.28125 10.263063 7.28125 9.96875 L 7.28125 9.4375 L 6.75 9.4394531 C 6.4556878 9.439852 6.2191489 9.2025154 6.21875 8.9082031 C 6.2183511 8.6138909 6.4556878 8.377352 6.75 8.3769531 L 7.28125 8.375 L 7.28125 7.84375 C 7.28125 7.5494375 7.5181875 7.3125 7.8125 7.3125 z " id="rect633" style="fill:#000000;stroke:none;stroke-width:1.32581425"/></g></svg>