<?xml version="1.0" ?><svg height="16px" id="SVGRoot" version="1.1" viewBox="0 0 16 16" width="16px" xmlns="http://www.w3.org/2000/svg" xmlns:cc="http://creativecommons.org/ns#" xmlns:dc="http://purl.org/dc/elements/1.1/" xmlns:inkscape="http://www.inkscape.org/namespaces/inkscape" xmlns:rdf="http://www.w3.org/1999/02/22-rdf-syntax-ns#" xmlns:sodipodi="http://sodipodi.sourceforge.net/DTD/sodipodi-0.dtd" xmlns:svg="http://www.w3.org/2000/svg"><defs id="defs4212"/><g id="layer1"><path d="M 7.8476562 1.78125 C 7.1724803 1.7773697 6.628184 2.2194466 6.625 2.7734375 L 6.6191406 3.6289062 A 4.59375 4.59375 0 0 0 3.3886719 6.84375 L 2.53125 6.84375 C 1.97725 6.84375 1.53125 7.387312 1.53125 8.0625 C 1.53125 8.737687 1.97725 9.28125 2.53125 9.28125 L 3.3847656 9.28125 A 4.59375 4.59375 0 0 0 6.5683594 12.480469 L 6.5625 13.335938 C 6.5593 13.889926 7.1021667 14.33987 7.7773438 14.34375 C 8.4525198 14.34765 8.996816 13.905555 9 13.351562 L 9.0058594 12.496094 A 4.59375 4.59375 0 0 0 12.236328 9.28125 L 13.09375 9.28125 C 13.64775 9.28125 14.09375 8.737687 14.09375 8.0625 C 14.09375 7.387312 13.64775 6.84375 13.09375 6.84375 L 12.240234 6.84375 A 4.59375 4.59375 0 0 0 9.0566406 3.6445312 L 9.0625 2.7890625 C 9.065684 2.2350716 8.5228333 1.7851303 7.8476562 1.78125 z M 7.8125 4.375 A 3.6875 3.6875 0 0 1 11.5 8.0625 A 3.6875 3.6875 0 0 1 7.8125 11.75 A 3.6875 3.6875 0 0 1 4.125 8.0625 A 3.6875 3.6875 0 0 1 7.8125 4.375 z M 7.8125 5.75 A 2.3125 2.3125 0 0 0 5.5 8.0625 A 2.3125 2.3125 0 0 0 7.8125 10.375 A 2.3125 2.3125 0 0 0 10.125 8.0625 A 2.3125 2.3125 0 0 0 7.8125 5.75 z " id="rect3986" style="fill:#000000;stroke:none;stroke-width:0.87447464"/></g></svg>