<?xml version="1.0" ?><svg height="16px" id="SVGRoot" version="1.1" viewBox="0 0 16 16" width="16px" xmlns="http://www.w3.org/2000/svg" xmlns:cc="http://creativecommons.org/ns#" xmlns:dc="http://purl.org/dc/elements/1.1/" xmlns:inkscape="http://www.inkscape.org/namespaces/inkscape" xmlns:rdf="http://www.w3.org/1999/02/22-rdf-syntax-ns#" xmlns:sodipodi="http://sodipodi.sourceforge.net/DTD/sodipodi-0.dtd" xmlns:svg="http://www.w3.org/2000/svg"><defs id="defs867"/><g id="layer1"><path d="M 6.6660156 3.1875 C 5.9160888 3.1875 5.3125 3.7910888 5.3125 4.5410156 L 5.3125 4.8339844 C 5.3125 4.9234804 5.3250509 5.0093466 5.3417969 5.09375 L 3.3398438 5.09375 C 2.5800276 5.09375 1.96875 5.7050275 1.96875 6.4648438 L 1.96875 10.691406 C 1.96875 11.451222 2.5800276 12.0625 3.3398438 12.0625 L 12.410156 12.0625 C 13.169972 12.0625 13.78125 11.451222 13.78125 10.691406 L 13.78125 6.4648438 C 13.78125 5.7050275 13.169972 5.09375 12.410156 5.09375 L 10.408203 5.09375 C 10.424953 5.009347 10.4375 4.9234805 10.4375 4.8339844 L 10.4375 4.5410156 C 10.437503 3.7910888 9.8339114 3.1875 9.0839844 3.1875 L 6.6660156 3.1875 z M 6.9882812 3.7050781 L 8.7617188 3.7050781 C 9.3116257 3.7050781 9.7539122 4.1473588 9.7539062 4.6972656 L 9.7539062 4.9121094 C 9.7539062 4.9748294 9.745505 5.0345631 9.734375 5.09375 L 6.015625 5.09375 C 6.0045 5.034563 5.9960938 4.9748302 5.9960938 4.9121094 L 5.9960938 4.6972656 C 5.9960936 4.1473588 6.4383744 3.7050781 6.9882812 3.7050781 z M 6.6152344 6.6777344 C 6.7670082 6.6777305 6.9188563 6.7352685 7.0351562 6.8515625 L 7.8828125 7.6992188 L 8.7480469 6.8691406 C 8.9852033 6.6412006 9.3599505 6.6476091 9.5878906 6.8847656 C 9.8158307 7.1219221 9.807469 7.4966693 9.5703125 7.7246094 L 8.7226562 8.5390625 L 9.5546875 9.3710938 C 9.7872873 9.6036817 9.7872756 9.9783377 9.5546875 10.210938 C 9.3220995 10.443537 8.9474437 10.443525 8.7148438 10.210938 L 7.8671875 9.3632812 L 7.0019531 10.193359 C 6.7647965 10.421301 6.3900497 10.414891 6.1621094 10.177734 C 5.9341693 9.9405785 5.9425309 9.5658308 6.1796875 9.3378906 L 7.0273438 8.5234375 L 6.1953125 7.6914062 C 5.9627127 7.4588183 5.9627244 7.0841624 6.1953125 6.8515625 C 6.3116065 6.7352626 6.4634605 6.6777382 6.6152344 6.6777344 z " id="rect779" style="fill:#000000;stroke:none;stroke-width:1.09200716"/></g></svg>