<?xml version="1.0" ?><!DOCTYPE svg  PUBLIC '-//W3C//DTD SVG 1.1//EN'  'http://www.w3.org/Graphics/SVG/1.1/DTD/svg11.dtd'><svg enable-background="new 0 0 512 512" id="Layer_1" version="1.1" viewBox="0 0 512 512" xml:space="preserve" xmlns="http://www.w3.org/2000/svg" xmlns:xlink="http://www.w3.org/1999/xlink"><g><g><circle cx="256" cy="256" fill="#5598E0" r="244.4"/></g></g><g><polygon fill="#FFFFFF" points="207.1,150.4 136.4,196.5 185,235.7 256.5,191.7  "/><polygon fill="#FFFFFF" points="376,196.6 305.5,150.7 256.5,191.7 327.5,235.6  "/><polygon fill="#FFFFFF" points="256.5,279.6 305.5,320.7 376,274.7 327.5,235.6  "/><polygon fill="#FFFFFF" points="136.4,274.9 207.1,320.7 256.5,279.6 185,235.7  "/><polygon fill="#FFFFFF" points="256.5,288.4 207.2,329.7 186.1,316 186.1,331.4 256.5,373.7 327.1,331.2 327.1,316 305.9,329.7     "/></g><g><path d="M255.3,474.1c-58.5,0-113.5-22.8-154.9-64.2C59,368.5,36.2,313.5,36.2,255S59,141.5,100.3,100.1   c41.4-41.4,96.4-64.2,154.9-64.2s113.5,22.8,154.9,64.2c41.4,41.4,64.2,96.4,64.2,154.9s-22.8,113.5-64.2,154.9   S313.8,474.1,255.3,474.1z M255.3,51.9C143.3,51.9,52.2,143,52.2,255s91.1,203.1,203.1,203.1S458.3,367,458.3,255   S367.2,51.9,255.3,51.9z" fill="#FFFFFF"/></g></svg>