<?xml version="1.0" ?><!DOCTYPE svg  PUBLIC '-//W3C//DTD SVG 1.1//EN'  'http://www.w3.org/Graphics/SVG/1.1/DTD/svg11.dtd'><svg enable-background="new 0 0 512 512" id="Layer_1" version="1.1" viewBox="0 0 512 512" xml:space="preserve" xmlns="http://www.w3.org/2000/svg" xmlns:xlink="http://www.w3.org/1999/xlink"><g><circle cx="256" cy="256" fill="#133B7C" r="244.4"/></g><path d="M292.9,176.2c7.4-0.3,14.8-0.1,22.2-0.1c0.9,0,1.8,0,3,0v-38.4c-4-0.4-8.1-1-12.2-1.2  c-7.6-0.3-15.2-0.7-22.8-0.5c-11.6,0.2-22.5,3.1-32.1,9.9c-11,7.9-17,19-19.3,32.1c-1,5.4-1.2,11-1.3,16.5  c-0.2,8.6-0.1,17.2-0.1,25.9v3.2h-36.8v42.9h36.6v107.9h44.7V266.7h36.5c1.9-14.3,3.7-28.4,5.6-43.1c-2.9,0-5.6,0-8.2,0  c-10.4,0-34.1,0-34.1,0s0.1-21.3,0.4-30.5C275.3,180.4,282.8,176.6,292.9,176.2z" fill="#FFFFFF"/><g><path d="M255.3,474.1c-58.5,0-113.5-22.8-154.9-64.2S36.2,313.5,36.2,255S59,141.5,100.3,100.1   c41.4-41.4,96.4-64.2,154.9-64.2s113.5,22.8,154.9,64.2s64.2,96.4,64.2,154.9s-22.8,113.5-64.2,154.9S313.8,474.1,255.3,474.1z    M255.3,51.9C143.3,51.9,52.2,143,52.2,255s91.1,203.1,203.1,203.1s203-91.1,203-203.1S367.2,51.9,255.3,51.9z" fill="#FFFFFF"/></g></svg>