<?xml version="1.0" ?><!DOCTYPE svg  PUBLIC '-//W3C//DTD SVG 1.1//EN'  'http://www.w3.org/Graphics/SVG/1.1/DTD/svg11.dtd'><svg id="Layer_1" style="enable-background:new 0 0 512 512;" version="1.1" viewBox="0 0 512 512" xml:space="preserve" xmlns="http://www.w3.org/2000/svg" xmlns:xlink="http://www.w3.org/1999/xlink"><style type="text/css">
	.st0{fill:#EBC5C0;stroke:#5D5185;stroke-width:9;stroke-miterlimit:10;}
	.st1{fill:#FFFFFF;stroke:#5D5185;stroke-width:9;stroke-miterlimit:10;}
	.st2{fill:#E5ECFF;stroke:#5D5185;stroke-width:9;stroke-miterlimit:10;}
	.st3{fill:#FFFFFF;}
	.st4{fill:#FFE0F6;stroke:#5D5185;stroke-width:9;stroke-miterlimit:10;}
	.st5{opacity:0.14;fill:#766360;}
</style><g><g><g><path class="st0" d="M96.1,175.2V40.6h238.5l95.6,91.7c0.4,0.4,0.6,0.8,0.6,1.3v337.7H96.1V175.2"/><path class="st1" d="M428.5,132.5H334V41.8c0-0.6,0.7-0.9,1.1-0.5l93.9,90.1C429.4,131.8,429.1,132.5,428.5,132.5z"/></g><g><polyline class="st2" points="243.5,195.6 261.9,160 324.9,192.6 337.7,230.2 291.4,319.6 203,273.8 243.5,195.6     "/><path class="st1" d="M337.5,230.1l-25.2-13l12.5-24.2c0-0.1,0.2-0.1,0.2,0l12.6,37.1C337.7,230,337.6,230.1,337.5,230.1z"/></g><g><path class="st3" d="M320.3,391.4c-2.3-7.3-7.3-8.8-7.3-8.8c4.3-1.6,7.3-5.4,7.3-5.4s2.8-3.8,2.3-8.9c-0.5-5.1-2.7-7.2-5.9-9.8      c-3.2-2.5-11.8-3.1-11.8-3.1c-6.1-0.4-13.9,0.9-13.9,0.9v50.7h6.6v-22.4h5.4c0,0,0.4,0,1.1,0c4.1,0.1,7.6,2.7,9.1,6.4      c0.7,1.7,1.2,3.8,1.5,5.7c0.8,4.1,2.8,10.2,2.8,10.2h7C322.6,404.1,322.6,398.7,320.3,391.4z M301.8,379.9h-4.2V361      c0,0,7.4-0.8,11.2,0c4.5,1,6.7,3.9,7.2,8.1c0,0,1.2,4.9-3,8C308.8,380.2,304.2,379.8,301.8,379.9z"/><path class="st3" d="M239.7,362.3c-4.9-2.8-12.2-2.9-17.8-1.1c-5.9,1.9-12.5,10.2-12.2,20c0.4,9.8,3.9,15.3,12.2,18.8      s18.2-1.4,18.2-1.4l1.7,5.8c0,0-13.6,5.8-25.4,0.5c-10.2-4.6-13.7-14.3-13.7-23.7c0-12.9,5.6-21,15.5-25.3s23.4,1.2,23.4,1.2      L239.7,362.3z"/><path class="st3" d="M282.2,386.2c-2.8-6.3-9.5-7.7-9.5-7.7c3.8-1.6,5.2-2.5,7.3-5.9c2.3-3.9,0.5-9.8-0.5-11.1      c-0.9-1.3-3.8-5.4-10.5-6.6c-6.7-1.2-18,0.7-18,0.7v50.8c11.5,1,16.2,1.1,21.7-0.6c0.9-0.3,1.8-0.7,2.5-1.1      c5-2.7,8.3-8.1,8-13.7C283.2,389.3,282.9,387.7,282.2,386.2z M257.6,360c0,0,6.3-0.9,10.8,0c4.5,0.9,6.2,4.6,6.2,6.3      c0,1.7,0.8,5.2-3,8.1c-3.2,2.4-9.8,2.5-14,2V360z M276.7,394c-0.7,5.7-8.8,7.5-10.5,7.5c-1.8,0-8.6,0-8.6,0v-19.9      c0,0,10.7-0.1,14.5,2.3C276.1,386.2,277.4,388.3,276.7,394z"/></g><g><polyline class="st4" points="209.8,205.2 228.2,169.6 291.2,202.2 304,239.8 257.7,329.2 169.3,283.4 209.8,205.2     "/><path class="st1" d="M303.8,239.7l-25.2-13l12.5-24.2c0-0.1,0.2-0.1,0.2,0l12.6,37.1C303.9,239.6,303.8,239.7,303.8,239.7z"/></g><polygon class="st5" points="426.1,137 345.3,155 341.5,137    "/></g></g></svg>