<?xml version="1.0" ?><!DOCTYPE svg  PUBLIC '-//W3C//DTD SVG 1.1//EN'  'http://www.w3.org/Graphics/SVG/1.1/DTD/svg11.dtd'><svg id="Layer_1" style="enable-background:new 0 0 512 512;" version="1.1" viewBox="0 0 512 512" xml:space="preserve" xmlns="http://www.w3.org/2000/svg" xmlns:xlink="http://www.w3.org/1999/xlink"><style type="text/css">
	.st0{fill:#A1E7C7;stroke:#5D5185;stroke-width:9;stroke-miterlimit:10;}
	.st1{fill:#FFFFFF;stroke:#5D5185;stroke-width:9;stroke-miterlimit:10;}
	.st2{fill:#FFFFFF;}
	.st3{fill:#FFF2B2;stroke:#5D5185;stroke-width:9;stroke-miterlimit:10;}
	.st4{fill:#FFD4C2;stroke:#5D5185;stroke-width:9;stroke-miterlimit:10;}
	.st5{opacity:0.18;fill:#517464;}
</style><g><g><g><polyline class="st0" points="94.8,175.2 94.8,40.6 333.3,40.6 429.4,132.9 429.4,471.4 94.8,471.4 94.8,175.2     "/><path class="st1" d="M427.8,132.9h-94.5V42.2c0-0.6,0.7-0.9,1.1-0.5l93.9,90.1C428.7,132.2,428.4,132.9,427.8,132.9z"/></g><g><polygon class="st2" points="195.1,355.7 195.1,361.1 210.4,361.1 210.4,407.1 217.3,407.1 217.3,361.3 232.8,361.3       232.8,355.7     "/><rect class="st2" height="52" width="6.8" x="238.1" y="355.3"/><polygon class="st2" points="256.6,355.4 282.8,355.4 282.8,361 263,361 263,377.2 281.2,377.2 281.2,382.4 262.9,382.4       262.9,407.1 256.6,407.1     "/><polygon class="st2" points="293.2,355.4 319.4,355.4 319.4,361 299.6,361 299.6,377.2 317.8,377.2 317.8,382.4 299.5,382.4       299.5,407.1 293.2,407.1     "/></g><rect class="st3" height="76.4" width="76.4" x="175.4" y="187.8"/><circle class="st1" cx="261" cy="270.9" r="43.1"/><polygon class="st4" points="265.4,261.5 366.4,261.5 315.9,194.2    "/><polygon class="st5" points="424.9,137.4 344,155.3 340.2,137.3    "/></g></g></svg>