<?xml version="1.0" ?><!DOCTYPE svg  PUBLIC '-//W3C//DTD SVG 1.1//EN'  'http://www.w3.org/Graphics/SVG/1.1/DTD/svg11.dtd'><svg id="Layer_1" style="enable-background:new 0 0 512 512;" version="1.1" viewBox="0 0 512 512" xml:space="preserve" xmlns="http://www.w3.org/2000/svg" xmlns:xlink="http://www.w3.org/1999/xlink"><style type="text/css">
	.st0{fill:#E0E0E0;stroke:#5D5185;stroke-width:9;stroke-miterlimit:10;}
	.st1{fill:#FFFFFF;stroke:#5D5185;stroke-width:9;stroke-miterlimit:10;}
	.st2{fill:none;stroke:#5D5185;stroke-width:9;stroke-miterlimit:10;}
	.st3{fill:#FFFFFF;}
	.st4{opacity:0.16;fill:#383838;}
</style><g><g><g><polyline class="st0" points="96.3,175.2 96.3,40.6 334.7,40.6 430.9,132.9 430.9,471.4 96.3,471.4 96.3,175.2     "/><path class="st1" d="M429.2,132.9h-94.5V42.2c0-0.6,0.7-0.9,1.1-0.5l93.9,90.1C430.1,132.2,429.8,132.9,429.2,132.9z"/></g><g><rect class="st1" height="156.3" width="125.5" x="200.8" y="154.1"/><g><line class="st2" x1="220.6" x2="306.6" y1="196.2" y2="196.2"/><line class="st2" x1="220.6" x2="306.6" y1="220.2" y2="220.2"/><line class="st2" x1="220.6" x2="306.6" y1="244.2" y2="244.2"/><line class="st2" x1="220.6" x2="276.9" y1="266.7" y2="266.7"/></g></g><g><polygon class="st3" points="201.3,349.9 201.3,355.4 216.9,355.4 216.9,402.3 224.1,402.3 224.1,355.5 239.9,355.5       239.9,349.9     "/><polygon class="st3" points="244.3,349.9 252.2,349.9 263.9,371.2 276,349.9 283.8,349.9 267.8,375.1 284.5,402.3 276.5,402.3       263.4,380.4 251.5,402.3 243.1,402.3 259.6,375.3     "/><polygon class="st3" points="287.8,349.9 287.8,355.4 303.4,355.4 303.4,402.3 310.5,402.3 310.5,355.5 326.3,355.5       326.3,349.9     "/></g><polygon class="st4" points="426.3,137.5 345.5,155.4 341.7,137.4    "/></g></g></svg>