<?xml version="1.0" ?><!DOCTYPE svg  PUBLIC '-//W3C//DTD SVG 1.1//EN'  'http://www.w3.org/Graphics/SVG/1.1/DTD/svg11.dtd'><svg enable-background="new 0 0 64 64" height="64px" id="Vine" version="1.1" viewBox="0 0 64 64" width="64px" xml:space="preserve" xmlns="http://www.w3.org/2000/svg" xmlns:xlink="http://www.w3.org/1999/xlink"><linearGradient gradientTransform="matrix(1 0 0 1 -2192 -2908)" gradientUnits="userSpaceOnUse" id="Circle_Shadow_1_" x1="2256.0293" x2="2224.03" y1="2972" y2="2940.0007"><stop offset="0.3163" style="stop-color:#FFFFFF;stop-opacity:0"/><stop offset="0.3508" style="stop-color:#E9E9E9;stop-opacity:0.0504"/><stop offset="0.4543" style="stop-color:#ACACAC;stop-opacity:0.2018"/><stop offset="0.5572" style="stop-color:#787878;stop-opacity:0.3523"/><stop offset="0.6569" style="stop-color:#4D4D4D;stop-opacity:0.4981"/><stop offset="0.7528" style="stop-color:#2B2B2B;stop-opacity:0.6385"/><stop offset="0.8441" style="stop-color:#131313;stop-opacity:0.7719"/><stop offset="0.9286" style="stop-color:#050505;stop-opacity:0.8956"/><stop offset="1" style="stop-color:#000000"/></linearGradient><polygon enable-background="new    " fill="url(#Circle_Shadow_1_)" id="Circle_Shadow" opacity="0.2" points="64.029,64   64.029,30.059 49,15.029 15.059,48.971 30.088,64 "/><circle cx="32" cy="32" fill="#00B386" id="Circle" r="24"/><g id="V_Shadow"><g><defs><circle cx="32.029" cy="32" id="SVGID_1_" r="24"/></defs><clipPath id="SVGID_2_"><use overflow="visible" xlink:href="#SVGID_1_"/></clipPath><linearGradient gradientTransform="matrix(1 0 0 -1 -274 -299)" gradientUnits="userSpaceOnUse" id="SVGID_3_" x1="348.4863" x2="295.9724" y1="-369.5405" y2="-317.0266"><stop offset="0.4082" style="stop-color:#000000;stop-opacity:0"/><stop offset="0.6531" style="stop-color:#000000"/></linearGradient><path clip-path="url(#SVGID_2_)" d="M77.923,63.895    c0,0-0.043,0-0.106,0v-0.106c0,0-0.043,0-0.105,0v-0.106c0,0-0.043,0-0.105,0v-0.104c0,0-0.043,0-0.106,0v-0.106    c0,0-0.043,0-0.106,0v-0.105c0,0-0.043,0-0.105,0v-0.106c0,0-0.043,0-0.105,0v-0.106c0,0-0.043,0-0.106,0v-0.105    c0,0-0.043,0-0.106,0v-0.105c0,0-0.043,0-0.105,0V62.83c0,0-0.043,0-0.105,0v-0.105c0,0-0.043,0-0.105,0v-0.105    c0,0-0.043,0-0.107,0v-0.105c0,0-0.043,0-0.105,0v-0.106c0,0-0.043,0-0.105,0v-0.106c0,0-0.043,0-0.105,0v-0.105    c0,0-0.043,0-0.106,0v-0.106c0,0-0.043,0-0.106,0V61.98c0,0-0.043,0-0.105,0v-0.106c0,0-0.043,0-0.106,0v-0.106    c0,0-0.043,0-0.106,0v-0.105c0,0-0.043,0-0.105,0v-0.057c0.598-0.084,1.128-0.285,1.447-0.604c1-1,2-6.458-1-10    c-0.023-0.022-0.053-0.044-0.076-0.065c-0.011-0.014-0.02-0.027-0.029-0.041c-0.023-0.021-0.053-0.043-0.076-0.065    c-0.012-0.013-0.021-0.027-0.03-0.04c-0.023-0.021-0.054-0.044-0.076-0.066c-0.011-0.013-0.021-0.027-0.03-0.039    c-0.023-0.023-0.054-0.045-0.078-0.068c-0.011-0.012-0.019-0.025-0.027-0.037c-0.023-0.021-0.053-0.044-0.076-0.066    c-0.012-0.013-0.02-0.027-0.03-0.039c-0.022-0.022-0.053-0.045-0.075-0.066c-0.012-0.014-0.021-0.027-0.031-0.04    c-0.022-0.022-0.053-0.044-0.075-0.066c-0.011-0.013-0.021-0.026-0.03-0.04c-0.023-0.021-0.052-0.044-0.076-0.066    c-0.011-0.012-0.02-0.026-0.029-0.039c-0.023-0.022-0.053-0.045-0.076-0.066c-0.012-0.013-0.021-0.027-0.03-0.04    c-0.022-0.022-0.052-0.044-0.076-0.065c-0.011-0.014-0.021-0.027-0.03-0.041c-0.022-0.021-0.053-0.043-0.076-0.065    c-0.01-0.013-0.02-0.026-0.029-0.04c-0.023-0.023-0.055-0.045-0.078-0.068c-0.011-0.012-0.02-0.024-0.027-0.037    c-0.022-0.021-0.052-0.041-0.074-0.063c-0.012-0.015-0.021-0.028-0.031-0.042c-0.023-0.021-0.053-0.044-0.076-0.066    c-0.011-0.013-0.02-0.026-0.029-0.039c-0.024-0.023-0.055-0.047-0.08-0.069c-0.01-0.013-0.018-0.025-0.027-0.037    c-0.023-0.022-0.053-0.044-0.076-0.065c-0.012-0.014-0.02-0.027-0.03-0.041c-0.022-0.021-0.051-0.043-0.073-0.063    c-0.012-0.015-0.021-0.028-0.031-0.042c-0.023-0.021-0.053-0.044-0.076-0.066c-0.012-0.013-0.02-0.027-0.03-0.04    c-0.022-0.022-0.052-0.044-0.075-0.065c-0.012-0.014-0.021-0.027-0.031-0.041c-0.023-0.022-0.053-0.045-0.077-0.067    c-0.011-0.012-0.019-0.024-0.028-0.037c-0.023-0.022-0.052-0.044-0.076-0.065c-0.011-0.014-0.02-0.027-0.029-0.041    c-0.023-0.021-0.053-0.043-0.076-0.065c-0.012-0.013-0.021-0.026-0.03-0.04c-0.022-0.021-0.052-0.044-0.076-0.066    c-0.011-0.013-0.021-0.026-0.03-0.039c-0.022-0.022-0.053-0.045-0.076-0.066c-0.01-0.014-0.02-0.027-0.029-0.04    c-0.023-0.022-0.053-0.044-0.076-0.065c-0.011-0.014-0.02-0.027-0.029-0.041c-0.023-0.021-0.054-0.043-0.076-0.065    c-0.012-0.013-0.021-0.027-0.03-0.04c-0.022-0.021-0.052-0.044-0.076-0.066c-0.011-0.013-0.021-0.027-0.03-0.039    c-0.023-0.023-0.054-0.045-0.078-0.068c-0.011-0.012-0.019-0.025-0.027-0.037c-0.023-0.021-0.053-0.044-0.076-0.066    c-0.012-0.013-0.02-0.027-0.03-0.039c-0.022-0.022-0.053-0.045-0.075-0.066c-0.012-0.014-0.021-0.027-0.031-0.04    c-0.022-0.022-0.051-0.044-0.075-0.066c-0.011-0.013-0.021-0.026-0.03-0.04c-0.023-0.021-0.053-0.044-0.076-0.066    c-0.011-0.012-0.02-0.026-0.029-0.039c-0.023-0.022-0.053-0.045-0.076-0.066c-0.012-0.013-0.02-0.027-0.03-0.04    c-0.022-0.022-0.052-0.044-0.076-0.065c-0.011-0.014-0.02-0.027-0.03-0.041c-0.023-0.022-0.054-0.045-0.078-0.067    c-0.01-0.013-0.019-0.024-0.027-0.037c-0.023-0.022-0.053-0.044-0.076-0.065c-0.011-0.014-0.02-0.027-0.029-0.041    c-0.022-0.021-0.052-0.041-0.074-0.063c-0.012-0.015-0.021-0.028-0.031-0.042c-0.023-0.023-0.055-0.046-0.079-0.068    c-0.01-0.013-0.019-0.025-0.028-0.037c-0.022-0.022-0.052-0.045-0.076-0.066c-0.01-0.014-0.02-0.027-0.029-0.04    c-0.023-0.022-0.053-0.044-0.076-0.065c-0.012-0.014-0.02-0.027-0.029-0.041c-0.023-0.021-0.053-0.044-0.076-0.066    c-0.012-0.012-0.021-0.026-0.031-0.039c-0.022-0.022-0.051-0.045-0.075-0.066c-0.011-0.013-0.019-0.025-0.029-0.039    c-0.022-0.021-0.053-0.044-0.075-0.066c-0.012-0.012-0.021-0.026-0.031-0.039c-0.023-0.023-0.053-0.047-0.078-0.069    c-0.01-0.012-0.018-0.024-0.028-0.037c-0.022-0.022-0.053-0.044-0.075-0.065c-0.012-0.015-0.021-0.027-0.031-0.041    c-0.021-0.021-0.051-0.041-0.072-0.063c-0.012-0.015-0.021-0.028-0.032-0.042c-0.024-0.023-0.054-0.045-0.078-0.068    c-0.011-0.012-0.019-0.024-0.028-0.037c-0.021-0.021-0.051-0.043-0.074-0.063c-0.012-0.015-0.021-0.028-0.031-0.043    c-0.023-0.022-0.055-0.045-0.078-0.067c-0.011-0.013-0.02-0.025-0.027-0.037c-0.023-0.022-0.053-0.045-0.076-0.066    c-0.012-0.014-0.021-0.027-0.03-0.04c-0.022-0.022-0.054-0.044-0.076-0.065c-0.011-0.014-0.021-0.027-0.03-0.041    c-0.022-0.021-0.052-0.043-0.076-0.065c-0.011-0.013-0.02-0.027-0.029-0.04c-0.023-0.021-0.053-0.044-0.076-0.066    c-0.012-0.013-0.02-0.027-0.029-0.04c-0.025-0.022-0.055-0.045-0.078-0.067c-0.012-0.012-0.02-0.025-0.029-0.037    c-0.021-0.022-0.051-0.043-0.073-0.064c-0.013-0.014-0.021-0.029-0.032-0.043c-0.023-0.023-0.054-0.045-0.078-0.068    c-0.011-0.012-0.019-0.024-0.027-0.037c-0.023-0.021-0.053-0.043-0.076-0.065c-0.012-0.013-0.02-0.026-0.03-0.04    c-0.022-0.021-0.052-0.044-0.075-0.066c-0.012-0.013-0.021-0.026-0.031-0.039c-0.022-0.022-0.053-0.045-0.076-0.066    c-0.01-0.014-0.02-0.027-0.029-0.04c-0.023-0.022-0.052-0.044-0.076-0.065c-0.011-0.014-0.02-0.027-0.029-0.041    c-0.023-0.021-0.053-0.043-0.076-0.065c-0.01-0.013-0.02-0.026-0.029-0.039c-0.023-0.022-0.053-0.045-0.077-0.067    c-0.011-0.013-0.021-0.027-0.03-0.039c-0.023-0.023-0.054-0.045-0.078-0.068c-0.011-0.012-0.019-0.025-0.027-0.037    c-0.023-0.021-0.053-0.044-0.076-0.066c-0.011-0.014-0.02-0.027-0.029-0.039c-0.022-0.021-0.052-0.043-0.074-0.064    c-0.012-0.014-0.021-0.028-0.031-0.042c-0.023-0.022-0.053-0.044-0.076-0.066c-0.012-0.013-0.02-0.026-0.03-0.04    c-0.022-0.021-0.052-0.044-0.075-0.066c-0.012-0.012-0.021-0.026-0.031-0.039c-0.024-0.024-0.055-0.047-0.08-0.071    c-0.01-0.011-0.018-0.022-0.026-0.034c-0.021-0.021-0.049-0.041-0.071-0.063c-0.013-0.016-0.021-0.03-0.033-0.045    c-0.024-0.023-0.055-0.045-0.078-0.068c-0.012-0.012-0.02-0.025-0.028-0.037c-0.022-0.021-0.052-0.044-0.076-0.066    c-0.011-0.013-0.02-0.026-0.03-0.039c-0.022-0.022-0.053-0.045-0.076-0.066c-0.01-0.014-0.02-0.027-0.029-0.04    c-0.023-0.022-0.052-0.044-0.076-0.065c-0.011-0.014-0.02-0.027-0.029-0.041c-0.023-0.021-0.054-0.043-0.076-0.065    c-0.012-0.013-0.021-0.027-0.03-0.04c-0.024-0.023-0.054-0.045-0.078-0.068c-0.011-0.012-0.019-0.025-0.028-0.037    c-0.021-0.021-0.051-0.043-0.074-0.063c-0.012-0.015-0.021-0.029-0.031-0.043c-0.024-0.023-0.055-0.046-0.078-0.068    c-0.012-0.012-0.02-0.024-0.027-0.037c-0.023-0.022-0.054-0.044-0.076-0.065c-0.012-0.014-0.021-0.027-0.03-0.041    c-0.023-0.021-0.052-0.043-0.076-0.065c-0.011-0.013-0.021-0.026-0.03-0.04c-0.023-0.021-0.053-0.044-0.076-0.066    c-0.011-0.013-0.02-0.026-0.029-0.039c-0.023-0.022-0.053-0.045-0.076-0.066c-0.012-0.014-0.02-0.027-0.03-0.04    c-0.022-0.022-0.053-0.044-0.075-0.065c-0.012-0.014-0.021-0.027-0.031-0.041c-0.022-0.021-0.051-0.043-0.075-0.065    c-0.011-0.013-0.021-0.026-0.03-0.04c-0.023-0.023-0.054-0.045-0.078-0.068c-0.011-0.012-0.02-0.024-0.027-0.037    c-0.023-0.021-0.053-0.043-0.076-0.065c-0.012-0.013-0.021-0.027-0.03-0.04c-0.022-0.021-0.054-0.044-0.076-0.066    c-0.011-0.013-0.021-0.027-0.03-0.039c-0.022-0.022-0.053-0.045-0.076-0.066c-0.01-0.014-0.02-0.027-0.029-0.04    c-0.023-0.022-0.053-0.044-0.076-0.066c-0.011-0.013-0.02-0.026-0.029-0.04c-0.023-0.021-0.053-0.044-0.076-0.066    c-0.012-0.012-0.021-0.026-0.03-0.039c-0.022-0.021-0.052-0.043-0.073-0.064c-0.012-0.014-0.021-0.027-0.031-0.042    c-0.025-0.024-0.057-0.047-0.082-0.071c-0.01-0.011-0.017-0.022-0.025-0.033c-0.023-0.022-0.053-0.045-0.076-0.066    c-0.012-0.014-0.02-0.027-0.03-0.04c-0.022-0.022-0.053-0.044-0.075-0.065c-0.012-0.014-0.021-0.027-0.031-0.041    c-0.021-0.021-0.051-0.041-0.072-0.063c-0.012-0.015-0.021-0.028-0.032-0.042c-0.022-0.021-0.052-0.044-0.075-0.066    c-0.012-0.013-0.021-0.026-0.031-0.039c-0.022-0.022-0.051-0.045-0.075-0.066c-0.011-0.014-0.021-0.027-0.03-0.04    c-0.023-0.022-0.055-0.046-0.079-0.069c-0.011-0.012-0.019-0.025-0.028-0.037c-0.021-0.021-0.051-0.041-0.072-0.063    c-0.012-0.015-0.021-0.028-0.032-0.042c-0.024-0.023-0.054-0.045-0.078-0.068c-0.011-0.012-0.019-0.025-0.028-0.037    c-0.022-0.021-0.052-0.044-0.076-0.065c-0.01-0.013-0.02-0.027-0.029-0.04c-0.023-0.022-0.053-0.045-0.076-0.066    c-0.011-0.014-0.02-0.027-0.029-0.04c-0.023-0.022-0.053-0.044-0.076-0.065c-0.012-0.014-0.021-0.027-0.03-0.041    c-0.023-0.021-0.054-0.043-0.076-0.065c-0.011-0.013-0.021-0.026-0.03-0.04c-0.023-0.021-0.052-0.044-0.076-0.066    c-0.011-0.013-0.02-0.026-0.029-0.039c-0.023-0.022-0.053-0.045-0.076-0.066c-0.012-0.014-0.02-0.027-0.03-0.04    c-0.022-0.022-0.052-0.044-0.075-0.065c-0.012-0.014-0.021-0.027-0.031-0.041c-0.023-0.022-0.053-0.045-0.077-0.067    c-0.011-0.013-0.019-0.025-0.028-0.037c-0.023-0.022-0.052-0.044-0.076-0.065c-0.011-0.014-0.02-0.027-0.029-0.041    c-0.023-0.021-0.053-0.043-0.076-0.065c-0.012-0.013-0.02-0.027-0.03-0.04c-0.022-0.021-0.052-0.044-0.076-0.066    c-0.011-0.013-0.021-0.027-0.03-0.039c-0.022-0.022-0.053-0.045-0.076-0.066c-0.01-0.014-0.02-0.027-0.029-0.04    c-0.023-0.022-0.053-0.044-0.076-0.066c-0.011-0.013-0.02-0.026-0.029-0.04c-0.023-0.021-0.054-0.044-0.076-0.066    c-0.012-0.012-0.021-0.026-0.03-0.039c-0.022-0.022-0.054-0.045-0.076-0.066c-0.011-0.013-0.021-0.027-0.03-0.04    c-0.023-0.022-0.054-0.045-0.078-0.067c-0.011-0.013-0.019-0.025-0.027-0.037c-0.023-0.022-0.053-0.045-0.076-0.066    c-0.012-0.014-0.02-0.027-0.03-0.04c-0.022-0.022-0.052-0.044-0.075-0.065c-0.012-0.014-0.021-0.027-0.031-0.041    c-0.022-0.021-0.051-0.043-0.075-0.065c-0.011-0.013-0.021-0.026-0.03-0.04c-0.021-0.021-0.051-0.042-0.072-0.064    c-0.013-0.014-0.021-0.027-0.033-0.041c-0.023-0.023-0.053-0.047-0.078-0.069c-0.01-0.013-0.02-0.025-0.028-0.037    c-0.022-0.022-0.053-0.044-0.076-0.065c-0.011-0.014-0.02-0.027-0.03-0.041c-0.022-0.021-0.053-0.043-0.076-0.065    c-0.01-0.013-0.02-0.027-0.029-0.04c-0.023-0.021-0.053-0.044-0.075-0.065c-0.011-0.014-0.021-0.026-0.03-0.04    c-0.022-0.021-0.053-0.044-0.076-0.066c-0.01-0.012-0.02-0.026-0.029-0.039c-0.023-0.022-0.053-0.045-0.076-0.066    c-0.011-0.013-0.02-0.027-0.029-0.04c-0.024-0.022-0.055-0.046-0.08-0.069c-0.01-0.012-0.019-0.024-0.027-0.037    c-0.021-0.021-0.051-0.041-0.073-0.063c-0.012-0.014-0.021-0.028-0.032-0.042c-0.023-0.023-0.054-0.045-0.078-0.068    c-0.011-0.012-0.019-0.024-0.027-0.037c-0.022-0.021-0.051-0.043-0.074-0.063c-0.012-0.015-0.021-0.028-0.032-0.043    c-0.024-0.022-0.054-0.045-0.077-0.067c-0.012-0.013-0.02-0.025-0.029-0.037c-0.022-0.022-0.051-0.045-0.075-0.066    c-0.011-0.014-0.021-0.027-0.03-0.04c-0.023-0.022-0.053-0.044-0.076-0.065c-0.011-0.014-0.02-0.027-0.029-0.041    c-0.023-0.021-0.053-0.043-0.076-0.065c-0.012-0.013-0.021-0.027-0.03-0.04c-0.022-0.021-0.053-0.044-0.076-0.066    c-0.011-0.013-0.021-0.027-0.03-0.039c-0.023-0.023-0.054-0.046-0.078-0.068c-0.01-0.012-0.019-0.025-0.027-0.037    c-0.021-0.022-0.051-0.043-0.074-0.064c-0.012-0.015-0.021-0.029-0.031-0.043c-0.024-0.023-0.055-0.045-0.078-0.068    c-0.012-0.012-0.02-0.024-0.028-0.037c-0.022-0.021-0.054-0.043-0.076-0.065c-0.011-0.013-0.021-0.026-0.03-0.04    c-0.022-0.021-0.052-0.044-0.076-0.066c-0.011-0.013-0.02-0.026-0.029-0.039c-0.023-0.022-0.053-0.045-0.076-0.066    c-0.012-0.014-0.02-0.027-0.03-0.04c-0.022-0.022-0.052-0.044-0.075-0.065c-0.012-0.014-0.021-0.027-0.031-0.041    c-0.022-0.021-0.051-0.043-0.075-0.065c-0.011-0.013-0.019-0.026-0.029-0.039c-0.022-0.022-0.053-0.045-0.077-0.067    c-0.011-0.013-0.02-0.026-0.029-0.039c-0.024-0.023-0.055-0.045-0.078-0.068c-0.012-0.012-0.02-0.025-0.028-0.037    c-0.022-0.021-0.053-0.044-0.076-0.066c-0.011-0.014-0.021-0.027-0.03-0.039c-0.021-0.021-0.051-0.043-0.072-0.064    c-0.012-0.014-0.021-0.028-0.032-0.042c-0.024-0.023-0.056-0.046-0.079-0.069c-0.011-0.012-0.02-0.025-0.027-0.037    c-0.022-0.021-0.052-0.042-0.074-0.063c-0.012-0.015-0.021-0.028-0.031-0.042c-0.025-0.024-0.057-0.047-0.081-0.071    c-0.011-0.011-0.017-0.022-0.026-0.034c-0.021-0.021-0.049-0.041-0.07-0.063c-0.014-0.016-0.021-0.03-0.034-0.045    c-0.024-0.023-0.054-0.047-0.079-0.069c-0.01-0.013-0.02-0.024-0.028-0.037c-0.022-0.022-0.052-0.044-0.075-0.065    c-0.011-0.014-0.02-0.026-0.029-0.039c-0.023-0.022-0.053-0.045-0.076-0.066c-0.012-0.014-0.02-0.027-0.03-0.04    c-0.022-0.022-0.052-0.044-0.075-0.065c-0.012-0.014-0.021-0.027-0.031-0.041c-0.023-0.022-0.055-0.045-0.078-0.068    c-0.012-0.012-0.02-0.025-0.028-0.037c-0.022-0.021-0.052-0.044-0.075-0.066c-0.011-0.013-0.02-0.025-0.029-0.039    c-0.023-0.021-0.053-0.043-0.076-0.065c-0.012-0.015-0.021-0.027-0.03-0.04c-0.022-0.021-0.052-0.044-0.076-0.066    c-0.011-0.013-0.021-0.027-0.03-0.039c-0.022-0.023-0.053-0.046-0.076-0.068c-0.012-0.012-0.021-0.026-0.03-0.039    c-0.022-0.022-0.052-0.045-0.075-0.065c-0.011-0.014-0.02-0.026-0.029-0.04c-0.023-0.021-0.053-0.044-0.076-0.066    c-0.01-0.012-0.02-0.025-0.029-0.039c-0.023-0.021-0.053-0.045-0.077-0.066c-0.011-0.013-0.021-0.027-0.03-0.04    c-0.023-0.022-0.053-0.044-0.076-0.065c-0.011-0.014-0.02-0.027-0.029-0.041c-0.023-0.021-0.053-0.043-0.076-0.065    c-0.012-0.013-0.02-0.026-0.03-0.04c-0.022-0.021-0.052-0.044-0.075-0.066c-0.011-0.013-0.02-0.025-0.029-0.039    c-0.023-0.021-0.053-0.043-0.077-0.066c-0.011-0.014-0.021-0.027-0.03-0.04c-0.023-0.022-0.052-0.044-0.076-0.065    c-0.011-0.014-0.02-0.027-0.029-0.041c-0.024-0.022-0.055-0.045-0.078-0.067c-0.012-0.013-0.02-0.025-0.028-0.037    c-0.022-0.021-0.051-0.042-0.073-0.063c-0.012-0.015-0.021-0.029-0.031-0.043c-0.024-0.022-0.055-0.046-0.08-0.068    c-0.01-0.012-0.019-0.025-0.027-0.037c-0.023-0.022-0.053-0.045-0.076-0.066c-0.011-0.013-0.02-0.027-0.029-0.04    c-0.024-0.022-0.055-0.045-0.078-0.067c-0.012-0.012-0.02-0.025-0.028-0.037c-0.022-0.021-0.052-0.043-0.073-0.064    c-0.012-0.014-0.021-0.027-0.031-0.042c-0.024-0.022-0.056-0.046-0.08-0.069c-0.011-0.012-0.019-0.024-0.027-0.037    c-0.023-0.021-0.053-0.043-0.076-0.065c-0.012-0.013-0.02-0.027-0.03-0.04c-0.022-0.022-0.053-0.044-0.075-0.066    c-0.012-0.013-0.021-0.027-0.031-0.04c-0.021-0.022-0.051-0.043-0.073-0.065c-0.013-0.013-0.021-0.028-0.031-0.041    c-0.022-0.022-0.052-0.043-0.075-0.066c-0.012-0.013-0.02-0.028-0.031-0.041c-0.023-0.023-0.053-0.045-0.078-0.069    c-0.01-0.012-0.018-0.025-0.028-0.038c-0.022-0.023-0.053-0.044-0.077-0.067c-0.011-0.013-0.02-0.026-0.029-0.039    c-0.022-0.022-0.051-0.043-0.074-0.065c-0.012-0.014-0.021-0.028-0.03-0.041c-0.022-0.022-0.054-0.044-0.076-0.066    c-0.011-0.013-0.021-0.027-0.03-0.04c-0.022-0.022-0.052-0.044-0.076-0.066c-0.01-0.013-0.02-0.027-0.029-0.04    c-0.023-0.022-0.053-0.044-0.076-0.066c-0.011-0.013-0.02-0.027-0.029-0.04c-0.023-0.023-0.054-0.044-0.078-0.067    c-0.011-0.013-0.019-0.026-0.028-0.039c-0.023-0.022-0.052-0.043-0.075-0.066c-0.012-0.013-0.02-0.028-0.031-0.041    c-0.023-0.022-0.052-0.044-0.076-0.066c-0.011-0.013-0.02-0.027-0.029-0.04c-0.024-0.023-0.055-0.045-0.078-0.068    c-0.012-0.012-0.02-0.025-0.028-0.037c-0.022-0.022-0.052-0.044-0.075-0.066c-0.012-0.013-0.021-0.027-0.031-0.04    c-0.022-0.022-0.053-0.044-0.075-0.066c-0.011-0.013-0.021-0.027-0.03-0.04c-0.023-0.022-0.052-0.044-0.076-0.066    c-0.011-0.013-0.02-0.027-0.029-0.04c-0.023-0.022-0.053-0.044-0.076-0.066c-0.012-0.013-0.021-0.027-0.03-0.04    c-0.022-0.023-0.054-0.045-0.077-0.067c-0.011-0.013-0.02-0.026-0.029-0.039c-0.022-0.022-0.052-0.043-0.074-0.065    c-0.012-0.014-0.021-0.028-0.031-0.042c-0.023-0.023-0.053-0.044-0.077-0.067c-0.011-0.013-0.019-0.026-0.028-0.039    c-0.023-0.023-0.054-0.044-0.078-0.067c-0.01-0.013-0.019-0.026-0.028-0.039c-0.022-0.022-0.052-0.044-0.076-0.066    c-0.011-0.013-0.021-0.027-0.03-0.04c-0.021-0.022-0.051-0.042-0.072-0.064c-0.013-0.014-0.021-0.029-0.032-0.042    c-0.024-0.023-0.054-0.046-0.079-0.069c-0.01-0.012-0.02-0.025-0.028-0.038c-0.022-0.022-0.052-0.044-0.075-0.066    c-0.012-0.013-0.021-0.027-0.031-0.04c-0.022-0.023-0.053-0.045-0.076-0.067c-0.012-0.013-0.02-0.026-0.029-0.039    c-0.021-0.022-0.051-0.043-0.074-0.065c-0.012-0.013-0.021-0.028-0.031-0.041c-0.023-0.023-0.053-0.045-0.078-0.068    c-0.01-0.013-0.018-0.026-0.028-0.039c-0.022-0.022-0.051-0.043-0.074-0.065c-0.012-0.013-0.02-0.028-0.03-0.041    c-0.024-0.023-0.055-0.045-0.08-0.069c-0.01-0.012-0.018-0.025-0.027-0.038c-0.021-0.022-0.051-0.042-0.073-0.064    c-0.012-0.014-0.021-0.028-0.032-0.042c-0.023-0.023-0.055-0.046-0.078-0.069c-0.012-0.012-0.02-0.025-0.028-0.038    c-0.022-0.022-0.052-0.042-0.073-0.064C54.02,28.996,54.01,28.98,54,28.968c-0.024-0.023-0.055-0.045-0.078-0.068    c-0.012-0.012-0.02-0.025-0.028-0.037c-0.023-0.022-0.054-0.044-0.076-0.066c-0.011-0.013-0.021-0.027-0.03-0.04    c-0.023-0.023-0.054-0.045-0.078-0.068c-0.011-0.012-0.019-0.026-0.029-0.039c-0.021-0.022-0.051-0.043-0.073-0.065    c-0.013-0.013-0.021-0.028-0.031-0.041c-0.022-0.022-0.053-0.044-0.075-0.066c-0.012-0.013-0.021-0.027-0.031-0.04    c-0.022-0.022-0.051-0.044-0.075-0.066c-0.011-0.013-0.021-0.027-0.03-0.04c-0.023-0.022-0.053-0.044-0.076-0.066    c-0.011-0.013-0.02-0.027-0.029-0.04c-0.024-0.023-0.055-0.045-0.078-0.068c-0.012-0.012-0.02-0.025-0.028-0.037    c-0.022-0.022-0.054-0.044-0.076-0.066c-0.011-0.013-0.021-0.027-0.03-0.04c-0.022-0.022-0.052-0.044-0.076-0.066    c-0.01-0.013-0.02-0.027-0.029-0.04c-0.023-0.022-0.053-0.043-0.075-0.066c-0.012-0.013-0.021-0.028-0.03-0.041    c-0.023-0.023-0.054-0.044-0.078-0.067c-0.011-0.013-0.019-0.026-0.028-0.039c-0.022-0.022-0.054-0.044-0.076-0.066    c-0.011-0.013-0.021-0.027-0.03-0.04c-0.023-0.022-0.052-0.044-0.076-0.066c-0.011-0.013-0.02-0.027-0.029-0.04    c-0.023-0.022-0.053-0.044-0.076-0.066c-0.012-0.013-0.02-0.027-0.03-0.04c-0.024-0.023-0.054-0.045-0.077-0.068    c-0.012-0.012-0.02-0.025-0.029-0.037c-0.022-0.022-0.053-0.044-0.075-0.066c-0.011-0.013-0.021-0.027-0.03-0.04    c-0.021-0.022-0.051-0.042-0.072-0.064c-0.013-0.014-0.021-0.028-0.033-0.042c-0.022-0.022-0.051-0.044-0.075-0.066    c-0.011-0.013-0.021-0.027-0.03-0.04c-0.023-0.023-0.055-0.045-0.079-0.069c-0.01-0.012-0.019-0.025-0.028-0.038    c-0.022-0.022-0.053-0.044-0.076-0.066c-0.01-0.013-0.02-0.027-0.029-0.04c-0.021-0.022-0.051-0.043-0.074-0.065    c-0.012-0.013-0.021-0.028-0.031-0.041c-0.022-0.022-0.052-0.044-0.076-0.066c-0.01-0.013-0.02-0.027-0.029-0.04    c-0.023-0.023-0.055-0.045-0.079-0.069c-0.011-0.012-0.019-0.025-0.028-0.038c-0.022-0.022-0.051-0.043-0.074-0.065    c-0.012-0.014-0.021-0.028-0.03-0.041c-0.024-0.023-0.054-0.046-0.079-0.069c-0.01-0.012-0.02-0.025-0.028-0.038    c-0.022-0.022-0.051-0.042-0.073-0.064c-0.012-0.014-0.021-0.028-0.031-0.042c-0.024-0.023-0.055-0.045-0.079-0.069    c-0.011-0.012-0.019-0.025-0.028-0.038c-0.023-0.022-0.052-0.044-0.076-0.066c-0.011-0.013-0.02-0.027-0.029-0.04    c-0.022-0.022-0.051-0.043-0.075-0.065c-0.011-0.013-0.021-0.028-0.03-0.041c-0.023-0.023-0.052-0.044-0.076-0.066    c-0.011-0.013-0.02-0.027-0.029-0.04c-0.023-0.023-0.054-0.044-0.076-0.066c-0.012-0.013-0.021-0.027-0.03-0.04    c-0.022-0.023-0.054-0.044-0.077-0.067c-0.011-0.013-0.02-0.026-0.029-0.039c-0.022-0.022-0.053-0.044-0.076-0.066    c-0.01-0.013-0.02-0.027-0.029-0.04c-0.023-0.023-0.053-0.045-0.077-0.067c-0.011-0.013-0.019-0.026-0.028-0.039    c-0.023-0.022-0.053-0.043-0.076-0.066c-0.012-0.013-0.02-0.028-0.03-0.041c-0.023-0.022-0.052-0.044-0.076-0.066    c-0.011-0.013-0.021-0.027-0.03-0.04c-0.023-0.023-0.053-0.044-0.076-0.067c-0.012-0.013-0.02-0.026-0.029-0.039    c-0.023-0.022-0.053-0.044-0.076-0.066c-0.012-0.013-0.02-0.027-0.03-0.04c-0.022-0.023-0.053-0.044-0.075-0.066    c-0.012-0.013-0.021-0.027-0.031-0.04c-0.022-0.023-0.053-0.044-0.076-0.067c-0.012-0.013-0.02-0.026-0.029-0.039    c-0.023-0.023-0.053-0.045-0.077-0.067c-0.011-0.013-0.019-0.026-0.028-0.039c-0.023-0.023-0.053-0.044-0.076-0.066    c-0.012-0.013-0.021-0.027-0.03-0.04c-0.022-0.022-0.052-0.043-0.075-0.065c-0.012-0.014-0.02-0.028-0.031-0.042    c-0.022-0.022-0.052-0.044-0.076-0.066c-0.01-0.013-0.02-0.027-0.029-0.04c-0.023-0.023-0.053-0.045-0.077-0.067    c-0.011-0.013-0.019-0.026-0.028-0.039c-0.023-0.023-0.054-0.044-0.076-0.067c-0.012-0.013-0.021-0.027-0.03-0.04    c-0.022-0.023-0.054-0.044-0.076-0.066c-0.011-0.013-0.021-0.027-0.03-0.04c-0.023-0.022-0.052-0.043-0.074-0.066    c-0.012-0.013-0.021-0.027-0.03-0.04c-0.024-0.023-0.054-0.046-0.079-0.069c-0.01-0.012-0.018-0.025-0.028-0.038    c-0.022-0.022-0.051-0.042-0.073-0.064c-0.012-0.014-0.021-0.028-0.031-0.042c-0.023-0.022-0.053-0.043-0.075-0.065    c-0.013-0.014-0.021-0.028-0.031-0.042c-0.024-0.023-0.054-0.046-0.079-0.069c-0.011-0.012-0.019-0.025-0.027-0.038    c-0.022-0.022-0.051-0.043-0.074-0.065c-0.012-0.013-0.02-0.028-0.031-0.041c-0.023-0.022-0.053-0.044-0.076-0.066    c-0.011-0.013-0.02-0.027-0.029-0.04c-0.023-0.023-0.054-0.044-0.078-0.067c-0.01-0.013-0.019-0.026-0.028-0.039    c-0.022-0.023-0.054-0.044-0.077-0.067c-0.011-0.013-0.02-0.026-0.029-0.039c-0.022-0.023-0.052-0.044-0.076-0.066    c-0.01-0.013-0.02-0.027-0.029-0.04c-0.023-0.023-0.053-0.044-0.076-0.067c-0.011-0.013-0.02-0.027-0.029-0.04    c-0.023-0.023-0.053-0.044-0.076-0.066c-0.012-0.013-0.021-0.027-0.03-0.04c-0.023-0.022-0.052-0.043-0.075-0.065    c-0.012-0.014-0.02-0.028-0.031-0.042c-0.023-0.023-0.054-0.045-0.078-0.068c-0.011-0.012-0.019-0.025-0.027-0.037    c-0.023-0.022-0.053-0.044-0.076-0.066c-0.012-0.013-0.02-0.027-0.03-0.04c-0.022-0.022-0.052-0.044-0.075-0.066    c-0.012-0.013-0.021-0.027-0.031-0.04c-0.022-0.023-0.053-0.044-0.076-0.067c-0.012-0.013-0.02-0.026-0.029-0.039    c-0.023-0.023-0.052-0.044-0.076-0.066c-0.011-0.013-0.02-0.027-0.029-0.04c-0.023-0.023-0.054-0.044-0.076-0.066    c-0.012-0.013-0.021-0.027-0.03-0.04c-0.022-0.023-0.054-0.044-0.076-0.067c-0.011-0.013-0.021-0.027-0.03-0.04    c-0.022-0.023-0.053-0.044-0.076-0.067c-0.012-0.013-0.02-0.026-0.029-0.039c-0.023-0.022-0.053-0.044-0.076-0.066    c-0.011-0.013-0.02-0.027-0.029-0.04c-0.023-0.022-0.054-0.044-0.076-0.066c-0.012-0.013-0.021-0.027-0.03-0.04    c-0.022-0.022-0.052-0.044-0.076-0.066c-0.011-0.013-0.021-0.027-0.03-0.04c-0.021-0.022-0.051-0.043-0.074-0.065    c-0.012-0.013-0.02-0.028-0.03-0.041c-0.024-0.023-0.056-0.045-0.079-0.069c-0.012-0.012-0.02-0.025-0.028-0.038    c-0.022-0.022-0.051-0.042-0.073-0.064c-0.012-0.014-0.021-0.029-0.031-0.042c-0.024-0.024-0.055-0.046-0.08-0.07    c-0.01-0.012-0.018-0.024-0.027-0.036c-0.023-0.022-0.053-0.044-0.076-0.066c-0.011-0.013-0.02-0.027-0.029-0.04    c-0.023-0.022-0.053-0.044-0.076-0.066c-0.012-0.013-0.021-0.027-0.03-0.04c-0.022-0.022-0.051-0.042-0.073-0.064    c-0.012-0.014-0.021-0.029-0.031-0.042c-0.023-0.022-0.054-0.044-0.076-0.066c-0.012-0.013-0.021-0.027-0.03-0.04    c-0.022-0.023-0.054-0.044-0.077-0.067c-0.011-0.013-0.02-0.026-0.029-0.039c-0.022-0.022-0.052-0.044-0.076-0.066    c-0.01-0.013-0.02-0.027-0.029-0.04c-0.023-0.023-0.053-0.044-0.077-0.067c-0.011-0.013-0.019-0.026-0.028-0.039    c-0.023-0.022-0.054-0.044-0.076-0.066c-0.012-0.013-0.021-0.027-0.03-0.04c-0.023-0.022-0.052-0.044-0.076-0.066    c-0.011-0.013-0.021-0.027-0.03-0.04c-0.023-0.022-0.053-0.044-0.076-0.066c-0.011-0.013-0.02-0.027-0.029-0.04    c-0.023-0.022-0.053-0.044-0.076-0.066c-0.012-0.013-0.02-0.027-0.03-0.04c-0.022-0.022-0.053-0.044-0.075-0.066    c-0.012-0.013-0.021-0.027-0.031-0.04c-0.022-0.023-0.053-0.045-0.076-0.067c-0.012-0.013-0.02-0.026-0.029-0.039    c-0.023-0.023-0.053-0.044-0.077-0.067c-0.011-0.013-0.019-0.026-0.028-0.039c-0.023-0.022-0.053-0.044-0.076-0.066    c-0.012-0.013-0.021-0.027-0.03-0.04c-0.022-0.022-0.054-0.044-0.076-0.066c-0.011-0.013-0.021-0.027-0.03-0.04    c-0.022-0.022-0.053-0.044-0.076-0.066C44.02,19.027,44.012,19.013,44,19c-1.117-1.081-2.98-2-6-2c-2,0-2.82,0.293-4,1    c-3.232,1.94-3.254,5.94-3,8c0.193,1.568,1.075,4.555,3.383,6.963c0.033,0.036,0.072,0.071,0.107,0.107    c0.033,0.035,0.07,0.07,0.105,0.104c0.033,0.037,0.071,0.071,0.105,0.107c0.068,0.071,0.145,0.143,0.216,0.215    c0.033,0.035,0.069,0.067,0.104,0.103c0.031,0.035,0.069,0.069,0.104,0.104c0.035,0.037,0.073,0.071,0.107,0.108    c0.069,0.072,0.146,0.144,0.218,0.215c0.032,0.035,0.067,0.068,0.102,0.103c0.034,0.036,0.072,0.071,0.107,0.106    c0.1,0.106,0.209,0.209,0.313,0.313c0.036,0.039,0.077,0.077,0.114,0.115c0.033,0.036,0.071,0.069,0.104,0.104    c0.035,0.037,0.072,0.07,0.106,0.106c0.033,0.035,0.07,0.067,0.104,0.104c0.035,0.037,0.074,0.071,0.109,0.108    c0.033,0.036,0.071,0.07,0.105,0.104c0.031,0.035,0.07,0.068,0.104,0.104c0.034,0.037,0.073,0.072,0.108,0.108    c0.022,0.023,0.049,0.048,0.071,0.072c-0.039,0.099-0.096,0.217-0.153,0.338h-0.009c-0.008-0.063-0.014-0.104-0.014-0.104h-0.092    c-0.009-0.063-0.015-0.106-0.015-0.106h-0.093c-0.01-0.063-0.016-0.105-0.016-0.105h-0.092c-0.009-0.063-0.016-0.105-0.016-0.105    h-0.092c-0.009-0.063-0.015-0.106-0.015-0.106H36.21c-0.009-0.063-0.015-0.104-0.015-0.104h-0.092    c-0.011-0.064-0.017-0.107-0.017-0.107h-0.091c-0.01-0.063-0.016-0.105-0.016-0.105h-0.09c-0.01-0.063-0.016-0.105-0.016-0.105    h-0.091c-0.009-0.063-0.015-0.106-0.015-0.106h-0.093c-0.009-0.063-0.015-0.106-0.015-0.106H35.57    c-0.01-0.063-0.016-0.105-0.016-0.105h-0.091c-0.009-0.063-0.015-0.105-0.015-0.105h-0.092c-0.01-0.063-0.016-0.106-0.016-0.106    H35.25c-0.009-0.063-0.016-0.104-0.016-0.104h-0.09c-0.011-0.064-0.017-0.107-0.017-0.107h-0.092    c-0.009-0.063-0.015-0.105-0.015-0.105H34.93c-0.01-0.063-0.016-0.105-0.016-0.105h-0.092c-0.01-0.063-0.016-0.105-0.016-0.105    h-0.086c-0.01-0.063-0.016-0.106-0.016-0.106h-0.092c-0.01-0.063-0.016-0.106-0.016-0.106h-0.092    c-0.009-0.063-0.015-0.104-0.015-0.104H34.4c-0.01-0.064-0.017-0.107-0.017-0.107h-0.092c-0.009-0.063-0.015-0.104-0.015-0.104    h-0.092c-0.01-0.064-0.016-0.107-0.016-0.107h-0.092c-0.01-0.063-0.016-0.105-0.016-0.105h-0.09    c-0.01-0.063-0.016-0.105-0.016-0.105h-0.093c-0.009-0.063-0.015-0.105-0.015-0.105h-0.093c-0.009-0.063-0.015-0.105-0.015-0.105    h-0.09c-0.01-0.064-0.016-0.107-0.016-0.107h-0.094c-0.009-0.063-0.016-0.104-0.016-0.104h-0.09    c-0.01-0.064-0.017-0.107-0.017-0.107H33.33c-0.01-0.063-0.016-0.105-0.016-0.105H33.23c-0.01-0.063-0.016-0.106-0.016-0.106    h-0.092c-0.01-0.063-0.016-0.106-0.016-0.106h-0.092C33.006,32.049,33,32.006,33,32.006h-0.091    C32.9,31.943,32.895,31.9,32.895,31.9h-0.093c-0.009-0.063-0.015-0.105-0.015-0.105h-0.092c-0.01-0.063-0.016-0.107-0.016-0.107    h-0.093c-0.009-0.063-0.015-0.106-0.015-0.106h-0.09c-0.009-0.063-0.015-0.106-0.015-0.106h-0.091    c-0.009-0.063-0.015-0.106-0.015-0.106H32.27c-0.009-0.063-0.015-0.106-0.015-0.106h-0.091c-0.009-0.063-0.015-0.106-0.015-0.106    H32.06c-0.009-0.063-0.015-0.105-0.015-0.105h-0.091c-0.009-0.063-0.015-0.106-0.015-0.106h-0.092    c-0.009-0.063-0.015-0.106-0.015-0.106h-0.091c-0.009-0.063-0.015-0.107-0.015-0.107h-0.091c-0.009-0.063-0.015-0.106-0.015-0.106    h-0.091c-0.009-0.063-0.015-0.106-0.015-0.106h-0.091c-0.009-0.063-0.015-0.106-0.015-0.106h-0.091    c-0.009-0.063-0.015-0.106-0.015-0.106h-0.091c-0.009-0.063-0.015-0.106-0.015-0.106h-0.09c-0.009-0.063-0.015-0.106-0.015-0.106    h-0.092c-0.009-0.063-0.015-0.106-0.015-0.106h-0.092c-0.009-0.063-0.015-0.106-0.015-0.106h-0.091    c-0.009-0.063-0.015-0.106-0.015-0.106h-0.092c-0.009-0.063-0.015-0.106-0.015-0.106H30.57c-0.009-0.063-0.015-0.106-0.015-0.106    h-0.091c-0.009-0.063-0.015-0.106-0.015-0.106h-0.091c-0.009-0.063-0.015-0.106-0.015-0.106h-0.091    c-0.009-0.063-0.015-0.106-0.015-0.106h-0.091c-0.009-0.063-0.015-0.106-0.015-0.106h-0.092c-0.009-0.063-0.015-0.106-0.015-0.106    h-0.092c-0.009-0.063-0.015-0.106-0.015-0.106h-0.091c-0.009-0.063-0.015-0.106-0.015-0.106H29.72    c-0.009-0.063-0.015-0.106-0.015-0.106h-0.091c-0.009-0.063-0.015-0.106-0.015-0.106h-0.091c-0.009-0.063-0.015-0.106-0.015-0.106    h-0.092c-0.009-0.063-0.015-0.105-0.015-0.105h-0.091c-0.009-0.063-0.015-0.107-0.015-0.107h-0.091    c-0.009-0.063-0.015-0.106-0.015-0.106H29.08c-0.009-0.063-0.015-0.107-0.015-0.107h-0.091c-0.009-0.063-0.015-0.106-0.015-0.106    h-0.091c-0.009-0.063-0.015-0.106-0.015-0.106h-0.091c-0.009-0.063-0.015-0.106-0.015-0.106h-0.091    c-0.009-0.063-0.015-0.107-0.015-0.107H28.55c-0.009-0.063-0.015-0.106-0.015-0.106h-0.091c-0.009-0.063-0.015-0.106-0.015-0.106    h-0.092c-0.009-0.063-0.015-0.107-0.015-0.107h-0.091c-0.009-0.063-0.015-0.106-0.015-0.106h-0.091    c-0.009-0.063-0.015-0.107-0.015-0.107h-0.091c-0.009-0.063-0.015-0.105-0.015-0.105H27.91c-0.009-0.063-0.015-0.107-0.015-0.107    h-0.091c-0.009-0.063-0.015-0.106-0.015-0.106h-0.091c-0.009-0.063-0.015-0.106-0.015-0.106h-0.091    c-0.009-0.063-0.015-0.106-0.015-0.106h-0.091c-0.009-0.063-0.015-0.106-0.015-0.106H27.38c-0.009-0.064-0.015-0.107-0.015-0.107    h-0.091c-0.009-0.063-0.015-0.106-0.015-0.106h-0.091c-0.009-0.063-0.015-0.106-0.015-0.106h-0.092    c-0.009-0.063-0.015-0.106-0.015-0.106h-0.091c-0.009-0.063-0.015-0.107-0.015-0.107h-0.092c-0.009-0.063-0.015-0.105-0.015-0.105    h-0.092c-0.009-0.063-0.015-0.107-0.015-0.107h-0.091c-0.009-0.063-0.015-0.106-0.015-0.106h-0.092    c-0.009-0.063-0.015-0.106-0.015-0.106H26.42c-0.009-0.063-0.015-0.106-0.015-0.106h-0.091c-0.009-0.063-0.015-0.106-0.015-0.106    h-0.091c-0.009-0.063-0.015-0.106-0.015-0.106h-0.091c-0.009-0.063-0.015-0.106-0.015-0.106h-0.091    c-0.009-0.063-0.015-0.106-0.015-0.106h-0.092c-0.009-0.063-0.015-0.106-0.015-0.106h-0.091c-0.009-0.063-0.015-0.106-0.015-0.106    h-0.092c-0.009-0.063-0.015-0.107-0.015-0.107H25.57c-0.009-0.063-0.015-0.106-0.015-0.106h-0.091    c-0.009-0.063-0.015-0.106-0.015-0.106h-0.092c-0.009-0.063-0.015-0.106-0.015-0.106H25.25c-0.009-0.063-0.015-0.106-0.015-0.106    h-0.091c-0.009-0.063-0.015-0.106-0.015-0.106h-0.091c-0.009-0.063-0.015-0.106-0.015-0.106h-0.091    c-0.009-0.063-0.015-0.106-0.015-0.106h-0.091c-0.009-0.063-0.015-0.106-0.015-0.106h-0.092c-0.009-0.063-0.015-0.107-0.015-0.107    h-0.091c-0.009-0.063-0.015-0.105-0.015-0.105h-0.092c-0.009-0.063-0.015-0.107-0.015-0.107H24.4    c-0.009-0.063-0.015-0.106-0.015-0.106h-0.091c-0.009-0.063-0.015-0.106-0.015-0.106h-0.091c-0.009-0.063-0.015-0.106-0.015-0.106    h-0.092c-0.009-0.063-0.015-0.106-0.015-0.106h-0.091c-0.009-0.063-0.015-0.106-0.015-0.106h-0.091    c-0.009-0.063-0.015-0.106-0.015-0.106H23.76c-0.009-0.063-0.015-0.106-0.015-0.106h-0.091c-0.009-0.063-0.015-0.106-0.015-0.106    h-0.092c-0.009-0.063-0.015-0.107-0.015-0.107h-0.09c-0.009-0.063-0.015-0.105-0.015-0.105h-0.092    c-0.009-0.063-0.015-0.107-0.015-0.107h-0.091c-0.009-0.063-0.015-0.106-0.015-0.106h-0.091c-0.009-0.063-0.015-0.107-0.015-0.107    h-0.091C23.006,22.043,23,22,23,22h-5c0,0,1.7,14.828,8.623,21.777c0.035,0.037,0.071,0.072,0.106,0.106    c0.035,0.036,0.071,0.07,0.106,0.106c0.035,0.035,0.071,0.07,0.107,0.105c0.037,0.037,0.074,0.073,0.11,0.11    c0.034,0.035,0.07,0.069,0.104,0.104c0.034,0.035,0.07,0.068,0.104,0.104c0.034,0.035,0.068,0.068,0.102,0.104    c0.038,0.037,0.076,0.075,0.113,0.113c0.035,0.035,0.071,0.07,0.106,0.105s0.071,0.07,0.106,0.105    c0.033,0.033,0.067,0.066,0.101,0.1c0.036,0.037,0.073,0.074,0.109,0.11c0.035,0.035,0.071,0.07,0.106,0.105    c0.035,0.036,0.071,0.069,0.106,0.104c0.034,0.035,0.069,0.069,0.104,0.104c0.038,0.038,0.076,0.075,0.113,0.112    c0.034,0.035,0.069,0.068,0.104,0.104c0.035,0.036,0.07,0.069,0.104,0.104c0.036,0.035,0.072,0.07,0.107,0.106    c0.037,0.037,0.074,0.073,0.11,0.108c0.035,0.037,0.071,0.07,0.106,0.105c0.033,0.034,0.067,0.067,0.101,0.102    c0.036,0.037,0.072,0.072,0.107,0.107c0.035,0.036,0.072,0.071,0.107,0.107c0.035,0.035,0.072,0.07,0.107,0.107    c0.035,0.035,0.072,0.071,0.108,0.106c0.033,0.035,0.067,0.067,0.102,0.103c0.038,0.039,0.077,0.076,0.115,0.114    c0.033,0.034,0.066,0.065,0.1,0.101c0.035,0.035,0.071,0.069,0.106,0.105c0.038,0.038,0.076,0.075,0.113,0.112    c0.031,0.032,0.063,0.063,0.095,0.096c0.038,0.039,0.077,0.076,0.115,0.115c0.034,0.034,0.069,0.067,0.103,0.102    c0.035,0.036,0.07,0.07,0.104,0.105c0.034,0.034,0.07,0.069,0.105,0.104c0.036,0.036,0.073,0.072,0.109,0.108    c0.036,0.036,0.072,0.071,0.107,0.106c0.037,0.039,0.075,0.074,0.112,0.111c0.032,0.032,0.064,0.063,0.096,0.096    c0.038,0.039,0.076,0.076,0.114,0.114c0.035,0.036,0.071,0.07,0.106,0.106c0.034,0.035,0.069,0.068,0.104,0.103    c0.033,0.033,0.065,0.066,0.098,0.099c0.038,0.039,0.076,0.076,0.114,0.115c0.035,0.035,0.071,0.07,0.106,0.105    c0.035,0.035,0.071,0.07,0.106,0.105c0.037,0.039,0.075,0.074,0.113,0.112c0.033,0.034,0.067,0.065,0.101,0.101    c0.037,0.037,0.075,0.074,0.113,0.112c0.031,0.031,0.063,0.063,0.095,0.095c0.037,0.037,0.074,0.073,0.11,0.11    c0.038,0.038,0.076,0.075,0.114,0.113c0.031,0.032,0.063,0.063,0.094,0.094c0.04,0.041,0.081,0.08,0.121,0.12    c0.032,0.034,0.065,0.064,0.099,0.1s0.069,0.069,0.106,0.105c0.034,0.035,0.07,0.07,0.105,0.105    c0.035,0.036,0.07,0.071,0.105,0.106c0.035,0.036,0.071,0.069,0.106,0.106c0.035,0.035,0.069,0.069,0.104,0.104    c0.037,0.037,0.074,0.071,0.109,0.108c0.036,0.037,0.074,0.074,0.111,0.11c0.029,0.031,0.063,0.063,0.093,0.093    c0.04,0.041,0.08,0.08,0.12,0.121c0.029,0.03,0.063,0.062,0.093,0.092c0.039,0.041,0.08,0.08,0.12,0.121    c0.032,0.033,0.066,0.064,0.1,0.099c0.035,0.036,0.07,0.071,0.105,0.106c0.038,0.039,0.077,0.075,0.115,0.113    c0.029,0.031,0.061,0.061,0.091,0.092c0.037,0.038,0.075,0.075,0.112,0.113c0.039,0.038,0.076,0.075,0.115,0.114    c0.029,0.03,0.062,0.062,0.092,0.092c0.041,0.041,0.08,0.08,0.121,0.12c0.031,0.033,0.065,0.064,0.099,0.099    c0.034,0.036,0.071,0.071,0.106,0.106c0.034,0.035,0.07,0.07,0.105,0.105c0.033,0.034,0.066,0.067,0.102,0.102    c0.039,0.039,0.078,0.078,0.118,0.119c0.033,0.033,0.067,0.065,0.101,0.101c0.035,0.035,0.07,0.069,0.104,0.104    c0.035,0.035,0.071,0.07,0.106,0.106s0.072,0.071,0.107,0.106s0.07,0.07,0.105,0.105s0.07,0.07,0.105,0.105    c0.037,0.037,0.075,0.076,0.113,0.113c0.032,0.033,0.066,0.065,0.1,0.099c0.037,0.038,0.075,0.075,0.112,0.112    c0.034,0.035,0.068,0.067,0.103,0.103c0.033,0.032,0.064,0.063,0.099,0.099c0.04,0.041,0.081,0.08,0.121,0.12    c0.03,0.031,0.062,0.062,0.091,0.091c0.04,0.041,0.081,0.082,0.121,0.123c0.029,0.03,0.063,0.061,0.093,0.092    c0.039,0.039,0.079,0.08,0.119,0.119c0.033,0.034,0.067,0.066,0.103,0.102c0.031,0.031,0.063,0.064,0.096,0.096    c0.041,0.042,0.083,0.083,0.124,0.124c0.032,0.033,0.065,0.063,0.098,0.099c0.035,0.035,0.071,0.07,0.106,0.105    c0.037,0.039,0.076,0.076,0.113,0.114c0.03,0.03,0.063,0.062,0.094,0.092c0.037,0.038,0.074,0.075,0.111,0.112    c0.035,0.037,0.07,0.07,0.105,0.105c0.035,0.036,0.072,0.072,0.107,0.108c0.035,0.034,0.07,0.069,0.105,0.104    c0.037,0.038,0.074,0.075,0.113,0.113c0.035,0.035,0.07,0.068,0.104,0.104c0.031,0.033,0.063,0.063,0.095,0.095    c0.037,0.038,0.075,0.075,0.112,0.112c0.035,0.037,0.071,0.071,0.106,0.106c0.037,0.038,0.076,0.075,0.113,0.112    c0.032,0.033,0.065,0.064,0.099,0.099c0.036,0.037,0.071,0.072,0.108,0.108c0.034,0.035,0.069,0.07,0.104,0.104    c0.034,0.035,0.069,0.07,0.104,0.104c0.037,0.037,0.072,0.072,0.108,0.109c0.035,0.034,0.069,0.069,0.104,0.104    c0.039,0.038,0.076,0.075,0.114,0.112c0.029,0.031,0.062,0.062,0.091,0.092c0.039,0.039,0.076,0.076,0.115,0.115    c0.034,0.035,0.069,0.068,0.104,0.104c0.037,0.037,0.074,0.071,0.109,0.108c0.034,0.035,0.069,0.068,0.104,0.104    c0.036,0.036,0.071,0.072,0.108,0.108c0.037,0.037,0.073,0.074,0.11,0.111c0.031,0.031,0.063,0.063,0.097,0.094    c0.039,0.041,0.077,0.08,0.117,0.119c0.032,0.033,0.065,0.064,0.1,0.099c0.037,0.039,0.078,0.077,0.117,0.116    c0.028,0.031,0.06,0.061,0.09,0.09c0.037,0.037,0.074,0.076,0.112,0.113c0.037,0.039,0.075,0.074,0.112,0.112    c0.031,0.032,0.063,0.063,0.095,0.095c0.039,0.041,0.08,0.08,0.12,0.119c0.032,0.033,0.064,0.065,0.1,0.1    c0.035,0.035,0.07,0.07,0.105,0.105c0.037,0.038,0.075,0.074,0.111,0.112c0.031,0.032,0.063,0.063,0.097,0.095    c0.039,0.041,0.079,0.08,0.119,0.119c0.03,0.031,0.062,0.061,0.091,0.092c0.038,0.038,0.076,0.076,0.114,0.114    c0.034,0.035,0.069,0.069,0.104,0.104c0.036,0.037,0.073,0.074,0.109,0.109c0.036,0.037,0.074,0.073,0.109,0.11    c0.033,0.032,0.067,0.065,0.102,0.1c0.035,0.036,0.07,0.07,0.105,0.106c0.035,0.035,0.07,0.07,0.105,0.105    c0.036,0.035,0.071,0.07,0.107,0.105c0.035,0.035,0.07,0.07,0.105,0.105c0.034,0.036,0.07,0.071,0.105,0.106    c0.035,0.036,0.07,0.071,0.106,0.106c0.037,0.037,0.075,0.074,0.112,0.112c0.033,0.033,0.066,0.066,0.102,0.101    c0.034,0.035,0.069,0.069,0.104,0.104c0.036,0.036,0.071,0.072,0.108,0.108c0.031,0.033,0.063,0.063,0.097,0.097    c0.04,0.041,0.081,0.081,0.12,0.122c0.033,0.033,0.066,0.064,0.101,0.1c0.035,0.035,0.071,0.07,0.106,0.105s0.07,0.07,0.105,0.105    c0.035,0.036,0.071,0.071,0.105,0.106c0.037,0.038,0.076,0.075,0.113,0.112c0.032,0.033,0.066,0.065,0.101,0.1    c0.034,0.036,0.071,0.07,0.106,0.107c0.035,0.035,0.07,0.07,0.105,0.104c0.035,0.036,0.07,0.071,0.105,0.106    s0.071,0.07,0.106,0.105c0.035,0.036,0.071,0.071,0.106,0.106c0.035,0.036,0.07,0.069,0.105,0.106    c0.035,0.035,0.071,0.07,0.105,0.105c0.039,0.038,0.076,0.076,0.115,0.113c0.029,0.031,0.062,0.062,0.092,0.092    c0.039,0.041,0.08,0.08,0.119,0.119c0.032,0.033,0.066,0.066,0.101,0.101c0.034,0.035,0.069,0.069,0.104,0.104    c0.035,0.037,0.072,0.072,0.107,0.107c0.035,0.036,0.07,0.07,0.105,0.105s0.07,0.07,0.106,0.106    c0.033,0.034,0.065,0.066,0.101,0.101c0.039,0.039,0.078,0.078,0.119,0.119c0.032,0.033,0.065,0.065,0.1,0.1    c0.035,0.035,0.072,0.07,0.106,0.107c0.037,0.037,0.075,0.073,0.112,0.111c0.029,0.031,0.063,0.061,0.093,0.092    c0.04,0.041,0.08,0.081,0.121,0.121c0.032,0.034,0.065,0.065,0.099,0.1c0.035,0.035,0.071,0.07,0.106,0.105    c0.035,0.036,0.071,0.07,0.106,0.105c0.035,0.037,0.07,0.072,0.105,0.106c0.035,0.036,0.071,0.07,0.105,0.106    c0.035,0.035,0.072,0.07,0.106,0.105c0.037,0.038,0.075,0.075,0.112,0.112c0.031,0.032,0.063,0.063,0.096,0.095    c0.039,0.04,0.079,0.079,0.118,0.119c0.033,0.033,0.065,0.064,0.101,0.1c0.034,0.035,0.069,0.069,0.104,0.104    c0.036,0.036,0.071,0.072,0.108,0.108c0.033,0.035,0.068,0.068,0.104,0.104c0.036,0.037,0.072,0.072,0.107,0.107    s0.069,0.07,0.104,0.104c0.036,0.036,0.072,0.072,0.108,0.108c0.033,0.035,0.07,0.068,0.104,0.104    c0.038,0.038,0.076,0.075,0.113,0.113c0.033,0.033,0.066,0.064,0.1,0.1c0.033,0.033,0.067,0.066,0.102,0.102    c0.039,0.04,0.078,0.078,0.117,0.117c0.033,0.035,0.067,0.066,0.103,0.102c0.035,0.036,0.071,0.07,0.106,0.105    s0.069,0.07,0.104,0.104c0.035,0.037,0.071,0.071,0.106,0.106c0.035,0.037,0.072,0.072,0.107,0.107    c0.036,0.038,0.073,0.074,0.11,0.111c0.032,0.034,0.067,0.066,0.103,0.102c0.031,0.032,0.064,0.064,0.098,0.098    c0.041,0.041,0.08,0.082,0.121,0.121c0.033,0.033,0.065,0.064,0.099,0.099c0.036,0.036,0.071,0.071,0.108,0.108    c0.035,0.035,0.069,0.069,0.104,0.104c0.035,0.036,0.071,0.071,0.106,0.106c0.037,0.037,0.074,0.074,0.111,0.111    c0.031,0.032,0.063,0.063,0.096,0.096c0.039,0.039,0.078,0.078,0.119,0.119c0.031,0.032,0.065,0.064,0.1,0.098    c0.035,0.037,0.07,0.072,0.105,0.107s0.07,0.069,0.105,0.104c0.035,0.036,0.072,0.071,0.107,0.108    c0.035,0.035,0.07,0.069,0.105,0.104c0.031,0.033,0.064,0.065,0.1,0.099c0.041,0.045,0.086,0.086,0.129,0.131    c0.027,0.027,0.057,0.055,0.084,0.082c0.037,0.039,0.074,0.076,0.112,0.113c0.037,0.038,0.076,0.075,0.114,0.114    c0.029,0.03,0.063,0.062,0.092,0.091c0.037,0.039,0.075,0.076,0.113,0.113c0.037,0.039,0.076,0.076,0.113,0.113    c0.033,0.035,0.066,0.066,0.101,0.101c0.033,0.034,0.065,0.065,0.101,0.101c0.039,0.039,0.078,0.078,0.118,0.118    c0.032,0.034,0.066,0.066,0.101,0.101c0.035,0.035,0.07,0.07,0.105,0.105c0.035,0.036,0.071,0.07,0.105,0.106    c0.035,0.036,0.072,0.071,0.106,0.106c0.037,0.037,0.075,0.074,0.112,0.111c0.033,0.034,0.068,0.066,0.102,0.102    c0.035,0.035,0.07,0.069,0.105,0.104c0.035,0.036,0.07,0.071,0.105,0.106s0.071,0.07,0.106,0.105    c0.035,0.036,0.071,0.07,0.106,0.105c0.035,0.037,0.07,0.071,0.105,0.106c0.035,0.036,0.072,0.071,0.107,0.106    s0.068,0.07,0.104,0.104c0.038,0.038,0.076,0.075,0.114,0.113c0.032,0.034,0.067,0.067,0.101,0.101    c0.032,0.033,0.065,0.066,0.1,0.1c0.039,0.039,0.078,0.078,0.117,0.119c0.035,0.033,0.068,0.066,0.104,0.102    c0.034,0.035,0.07,0.068,0.105,0.104c0.035,0.037,0.069,0.071,0.105,0.107c0.035,0.035,0.07,0.07,0.105,0.105    c0.033,0.033,0.066,0.066,0.101,0.101c0.041,0.043,0.084,0.084,0.126,0.126c0.027,0.029,0.059,0.057,0.086,0.086    c0.038,0.038,0.075,0.075,0.113,0.113c0.037,0.039,0.076,0.076,0.113,0.113c0.033,0.033,0.065,0.064,0.099,0.098    c0.036,0.037,0.071,0.072,0.108,0.107c0.033,0.035,0.068,0.069,0.104,0.104c0.035,0.036,0.072,0.071,0.107,0.108    c0.035,0.035,0.07,0.069,0.105,0.104c0.035,0.036,0.071,0.071,0.105,0.106c0.035,0.035,0.072,0.07,0.106,0.105    c0.035,0.036,0.071,0.071,0.106,0.107c0.035,0.035,0.07,0.068,0.104,0.104c0.038,0.039,0.077,0.076,0.115,0.115    c0.032,0.033,0.065,0.064,0.099,0.098c0.035,0.036,0.071,0.07,0.106,0.106c0.034,0.036,0.071,0.071,0.106,0.106    c0.037,0.037,0.074,0.074,0.111,0.111c0.031,0.032,0.063,0.063,0.096,0.094c0.037,0.039,0.074,0.076,0.112,0.113    c0.036,0.038,0.074,0.074,0.111,0.111c0.032,0.033,0.067,0.066,0.102,0.102c0.032,0.033,0.065,0.065,0.099,0.1    c0.039,0.039,0.08,0.078,0.119,0.119c0.031,0.031,0.063,0.063,0.096,0.094c0.035,0.039,0.072,0.074,0.109,0.111    c0.041,0.041,0.082,0.08,0.121,0.12c0.029,0.03,0.061,0.06,0.09,0.089c0.035,0.037,0.072,0.073,0.108,0.109    c0.038,0.038,0.076,0.076,0.114,0.113c0.031,0.031,0.063,0.063,0.093,0.094c0.038,0.038,0.075,0.075,0.112,0.113    c0.035,0.035,0.072,0.07,0.106,0.105c0.035,0.036,0.071,0.07,0.106,0.106s0.07,0.071,0.107,0.106    c0.036,0.038,0.074,0.074,0.111,0.112c0.03,0.031,0.063,0.062,0.094,0.092c0.039,0.041,0.079,0.08,0.119,0.121    c0.469,0.478,0.959,0.921,1.477,1.32c1.119,0.864,3,2,4,2c1.959,0,3.146-0.863,5-3c3.275-3.777,3.924-5.636,5-8c2,0,4-1,4-1v-3    c0,0-0.043,0-0.105,0v-0.058H77.923z" enable-background="new    " fill="url(#SVGID_3_)" opacity="0.3"/></g></g><path d="M28,45c1.119,0.864,3,2,4,2c1.958,0,3.146-0.863,5-3c3.275-3.777,3.923-5.636,5-8c2,0,4-1,4-1v-3  c0,0-3.436-0.009-4,0c-4.307,0.061-9-5-6-9c0,0,1-1,2-1s1.706,0.524,2,1c0.657,1.063,1,3,0,5c1,2,4,2,5,1s2-6.458-1-10  c-1.117-1.081-2.98-2-6-2c-2,0-2.82,0.293-4,1c-3.232,1.94-3.254,5.94-3,8c0.254,2.061,1.689,6.575,6,9c0.38,0.424-4.717,8.277-5,8  c-7-6-9-21-9-21h-5C18,22,19.921,38.768,28,45z" fill="#FFFFFF" id="V_1_"/></svg>