<?xml version="1.0" ?><!DOCTYPE svg  PUBLIC '-//W3C//DTD SVG 1.1//EN'  'http://www.w3.org/Graphics/SVG/1.1/DTD/svg11.dtd'><svg enable-background="new 0 0 64 64" height="64px" id="App_Store" version="1.1" viewBox="0 0 64 64" width="64px" xml:space="preserve" xmlns="http://www.w3.org/2000/svg" xmlns:xlink="http://www.w3.org/1999/xlink"><linearGradient gradientTransform="matrix(1 0 0 1 -548 -727)" gradientUnits="userSpaceOnUse" id="Circle_Shadow_1_" x1="612.001" x2="580.0009" y1="791.001" y2="759.0009"><stop offset="0.3163" style="stop-color:#FFFFFF;stop-opacity:0"/><stop offset="0.3508" style="stop-color:#E9E9E9;stop-opacity:0.0504"/><stop offset="0.4543" style="stop-color:#ACACAC;stop-opacity:0.2018"/><stop offset="0.5572" style="stop-color:#787878;stop-opacity:0.3523"/><stop offset="0.6569" style="stop-color:#4D4D4D;stop-opacity:0.4981"/><stop offset="0.7528" style="stop-color:#2B2B2B;stop-opacity:0.6385"/><stop offset="0.8441" style="stop-color:#131313;stop-opacity:0.7719"/><stop offset="0.9286" style="stop-color:#050505;stop-opacity:0.8956"/><stop offset="1" style="stop-color:#000000"/></linearGradient><polygon enable-background="new    " fill="url(#Circle_Shadow_1_)" id="Circle_Shadow" opacity="0.2" points="64,64 64,30.059   48.971,15.029 15.029,48.971 30.059,64 "/><circle cx="32" cy="32" fill="#00A8FB" id="Circle" r="24"/><g id="Logo_shadow"><g><g><defs><circle cx="32" cy="32" id="SVGID_1_" r="24"/></defs><clipPath id="SVGID_2_"><use overflow="visible" xlink:href="#SVGID_1_"/></clipPath><g clip-path="url(#SVGID_2_)" opacity="0.3"><linearGradient gradientTransform="matrix(1 0 0 1 -548 -727)" gradientUnits="userSpaceOnUse" id="SVGID_3_" x1="601.083" x2="567.0092" y1="803.3584" y2="769.2847"><stop offset="0.6735" style="stop-color:#FFFFFF;stop-opacity:0"/><stop offset="0.6927" style="stop-color:#E5E5E5;stop-opacity:0.059"/><stop offset="0.7412" style="stop-color:#A9A9A9;stop-opacity:0.2073"/><stop offset="0.7894" style="stop-color:#767676;stop-opacity:0.3552"/><stop offset="0.8364" style="stop-color:#4B4B4B;stop-opacity:0.4989"/><stop offset="0.8817" style="stop-color:#2A2A2A;stop-opacity:0.6377"/><stop offset="0.925" style="stop-color:#131313;stop-opacity:0.7703"/><stop offset="0.9654" style="stop-color:#050505;stop-opacity:0.894"/><stop offset="1" style="stop-color:#000000"/></linearGradient><path d="M54.057,74.766c-0.022-0.039-0.064-0.07-0.104-0.104c-0.025-0.039-0.064-0.072-0.105-0.104      c-0.023-0.039-0.066-0.072-0.105-0.106c-0.024-0.039-0.066-0.071-0.105-0.106c-0.025-0.037-0.066-0.07-0.107-0.105      c-0.021-0.037-0.063-0.07-0.104-0.104c-0.022-0.039-0.063-0.071-0.104-0.104c-0.024-0.039-0.065-0.072-0.106-0.106      c-0.024-0.039-0.065-0.071-0.106-0.106c-0.022-0.037-0.063-0.068-0.104-0.104c-0.023-0.039-0.066-0.072-0.105-0.107      c-0.023-0.039-0.065-0.071-0.106-0.105c-0.022-0.039-0.065-0.071-0.104-0.104c-0.024-0.039-0.065-0.072-0.106-0.106      c-0.024-0.039-0.065-0.072-0.106-0.106c-0.022-0.039-0.065-0.072-0.104-0.104c-0.024-0.039-0.065-0.071-0.104-0.106      c-0.023-0.039-0.066-0.07-0.107-0.105c-0.021-0.037-0.064-0.069-0.104-0.104c-0.023-0.039-0.066-0.072-0.107-0.107      c-0.023-0.039-0.064-0.071-0.105-0.105c-0.023-0.039-0.064-0.072-0.105-0.105c-0.023-0.039-0.064-0.071-0.105-0.105      c-0.023-0.039-0.064-0.072-0.105-0.105c-0.022-0.037-0.064-0.07-0.104-0.104c-0.022-0.039-0.065-0.071-0.106-0.106      c-0.023-0.039-0.065-0.071-0.105-0.104c-0.023-0.039-0.064-0.071-0.105-0.106c-0.024-0.039-0.065-0.07-0.106-0.105      c-0.022-0.039-0.063-0.071-0.104-0.105c-0.023-0.039-0.064-0.07-0.105-0.104c-0.023-0.039-0.064-0.071-0.105-0.104      c-0.022-0.039-0.065-0.072-0.104-0.105c-0.024-0.039-0.065-0.072-0.106-0.105c-0.023-0.039-0.064-0.072-0.105-0.107      c-0.023-0.038-0.064-0.071-0.105-0.104c-0.023-0.039-0.064-0.071-0.104-0.104c-0.024-0.039-0.065-0.072-0.106-0.106      c-0.023-0.039-0.064-0.071-0.105-0.106c-0.022-0.037-0.064-0.069-0.104-0.104c-0.022-0.039-0.065-0.071-0.106-0.104      c-0.022-0.039-0.063-0.072-0.104-0.105c-0.024-0.039-0.065-0.072-0.106-0.105c-0.023-0.039-0.064-0.071-0.105-0.106      c-0.021-0.039-0.064-0.07-0.104-0.104c-0.024-0.039-0.065-0.072-0.106-0.105c-0.022-0.039-0.065-0.07-0.104-0.104      c-0.023-0.041-0.066-0.074-0.107-0.108c-0.021-0.039-0.064-0.07-0.104-0.104c-0.023-0.039-0.066-0.072-0.107-0.106      c-0.023-0.038-0.064-0.071-0.105-0.106c-0.022-0.039-0.063-0.07-0.104-0.105c-0.023-0.039-0.066-0.071-0.106-0.104      c-0.023-0.039-0.066-0.071-0.105-0.106c-0.023-0.039-0.064-0.07-0.105-0.104c-0.023-0.039-0.064-0.07-0.105-0.105      c-0.022-0.039-0.063-0.072-0.104-0.106c-0.024-0.039-0.065-0.071-0.106-0.104c-0.023-0.039-0.064-0.072-0.105-0.105      c-0.021-0.039-0.064-0.072-0.104-0.105c-0.024-0.039-0.065-0.072-0.106-0.106c-0.022-0.039-0.065-0.072-0.106-0.104      c-0.021-0.039-0.064-0.07-0.104-0.104c-0.023-0.039-0.064-0.071-0.105-0.106c-0.024-0.039-0.065-0.072-0.106-0.105      c-0.022-0.039-0.063-0.071-0.104-0.106c-0.024-0.038-0.065-0.071-0.106-0.104c-0.024-0.039-0.065-0.072-0.106-0.105      c-0.023-0.039-0.063-0.072-0.104-0.105c-0.024-0.039-0.065-0.071-0.106-0.104c-0.022-0.039-0.063-0.071-0.104-0.106      c-0.023-0.039-0.064-0.071-0.105-0.105c-0.023-0.039-0.064-0.072-0.105-0.105c-0.024-0.039-0.065-0.071-0.106-0.105      c-0.022-0.039-0.063-0.071-0.104-0.104c-0.023-0.041-0.064-0.074-0.105-0.108c-0.023-0.038-0.064-0.069-0.104-0.104      c-0.024-0.039-0.066-0.072-0.106-0.106c-0.024-0.039-0.065-0.071-0.106-0.104c-0.023-0.039-0.064-0.072-0.105-0.105      c-0.023-0.039-0.066-0.072-0.105-0.105c-0.023-0.039-0.064-0.072-0.104-0.104c-0.022-0.04-0.065-0.074-0.106-0.109      c-0.023-0.038-0.064-0.068-0.104-0.104c-0.024-0.039-0.065-0.072-0.106-0.106c-0.022-0.039-0.063-0.071-0.104-0.104      c-0.023-0.039-0.064-0.072-0.104-0.106c-0.025-0.039-0.066-0.071-0.107-0.106c-0.023-0.039-0.064-0.07-0.105-0.104      c-0.023-0.039-0.064-0.069-0.104-0.104c-0.024-0.039-0.065-0.072-0.104-0.105c-0.024-0.039-0.067-0.073-0.108-0.107      c-0.022-0.039-0.064-0.07-0.104-0.104c-0.022-0.039-0.065-0.072-0.106-0.105c-0.023-0.039-0.064-0.072-0.105-0.106      c-0.023-0.039-0.064-0.071-0.105-0.105c-0.022-0.04-0.064-0.073-0.105-0.108c-0.021-0.036-0.064-0.068-0.104-0.104      c-0.023-0.039-0.065-0.072-0.105-0.105c-0.025-0.039-0.066-0.071-0.107-0.105c-0.022-0.039-0.064-0.07-0.104-0.105      c-0.022-0.039-0.066-0.071-0.104-0.105c-0.025-0.039-0.065-0.072-0.106-0.105c-0.024-0.039-0.066-0.071-0.106-0.105      c-0.023-0.038-0.064-0.07-0.104-0.104c-0.024-0.039-0.067-0.072-0.108-0.107c-0.022-0.039-0.065-0.071-0.104-0.105      c-0.022-0.039-0.064-0.072-0.105-0.104c-0.023-0.039-0.064-0.072-0.105-0.106c-0.022-0.039-0.064-0.07-0.104-0.104      c-0.024-0.041-0.065-0.072-0.106-0.107c-0.022-0.039-0.064-0.07-0.104-0.105c-0.023-0.038-0.066-0.071-0.105-0.106      c-0.024-0.038-0.066-0.067-0.105-0.104c-0.023-0.041-0.066-0.073-0.107-0.107c-0.022-0.039-0.065-0.07-0.104-0.104      c-0.024-0.039-0.065-0.072-0.106-0.106c-0.023-0.039-0.064-0.071-0.104-0.106c-0.024-0.039-0.066-0.071-0.107-0.104      c-0.023-0.039-0.064-0.071-0.104-0.104c-0.023-0.039-0.065-0.07-0.104-0.105c-0.023-0.039-0.066-0.072-0.105-0.107      c-0.024-0.037-0.066-0.07-0.106-0.104c-0.022-0.039-0.065-0.071-0.106-0.104c-0.022-0.039-0.063-0.07-0.104-0.105      c-0.023-0.039-0.064-0.071-0.104-0.105c-0.025-0.039-0.067-0.072-0.108-0.107c-0.024-0.038-0.065-0.069-0.104-0.104      c-0.022-0.039-0.065-0.072-0.106-0.107c-0.022-0.039-0.065-0.07-0.104-0.104c-0.023-0.039-0.066-0.071-0.105-0.106      c-0.023-0.039-0.064-0.069-0.105-0.104c-0.022-0.039-0.065-0.071-0.106-0.106c-0.022-0.039-0.065-0.07-0.104-0.105      c-0.023-0.037-0.064-0.07-0.105-0.104c-0.023-0.041-0.065-0.072-0.105-0.107c-0.023-0.039-0.066-0.071-0.104-0.105      c-0.024-0.039-0.065-0.072-0.106-0.104c-0.023-0.039-0.064-0.071-0.104-0.106c-0.024-0.039-0.066-0.07-0.106-0.105      c-0.024-0.039-0.065-0.072-0.106-0.105c-0.022-0.039-0.065-0.07-0.104-0.104c-0.025-0.039-0.066-0.072-0.107-0.106      c-0.023-0.039-0.064-0.07-0.104-0.104c-0.023-0.039-0.066-0.072-0.107-0.107c-0.022-0.038-0.063-0.07-0.104-0.105      c-0.022-0.039-0.065-0.071-0.106-0.104c-0.023-0.039-0.064-0.071-0.105-0.106c-0.021-0.037-0.064-0.068-0.104-0.104      c-0.024-0.039-0.065-0.072-0.106-0.107c-0.022-0.037-0.065-0.07-0.104-0.104c-0.023-0.039-0.064-0.072-0.105-0.104      c-0.025-0.039-0.064-0.072-0.105-0.105c-0.025-0.039-0.066-0.072-0.106-0.105c-0.023-0.039-0.064-0.072-0.105-0.106      c-0.022-0.037-0.065-0.07-0.104-0.104c-0.023-0.039-0.066-0.072-0.107-0.107c-0.023-0.038-0.064-0.07-0.104-0.104      c-0.024-0.04-0.065-0.073-0.106-0.108c-0.022-0.039-0.065-0.07-0.104-0.104c-0.023-0.039-0.064-0.072-0.105-0.105      c-0.023-0.039-0.064-0.071-0.105-0.106c-0.022-0.039-0.065-0.069-0.104-0.104c-0.024-0.039-0.065-0.072-0.106-0.105      c-0.023-0.039-0.065-0.072-0.105-0.105c-0.023-0.039-0.064-0.071-0.104-0.104c-0.024-0.039-0.066-0.071-0.107-0.106      c-0.023-0.039-0.064-0.071-0.105-0.105c-0.023-0.039-0.064-0.07-0.104-0.105c-0.024-0.039-0.065-0.072-0.106-0.105      c-0.023-0.039-0.066-0.071-0.105-0.105c-0.022-0.037-0.065-0.07-0.104-0.104c-0.022-0.039-0.065-0.072-0.104-0.107      c-0.023-0.038-0.066-0.071-0.107-0.104c-0.023-0.039-0.064-0.072-0.105-0.105c-0.022-0.039-0.065-0.072-0.104-0.105      c-0.022-0.038-0.065-0.07-0.104-0.104c-0.024-0.039-0.066-0.073-0.107-0.108c-0.023-0.037-0.064-0.069-0.104-0.104      c-0.024-0.039-0.066-0.072-0.106-0.107c-0.022-0.037-0.065-0.069-0.104-0.104c-0.024-0.039-0.066-0.07-0.106-0.105      c-0.024-0.039-0.065-0.07-0.104-0.104c-0.023-0.039-0.065-0.071-0.106-0.106c-0.022-0.039-0.065-0.07-0.104-0.105      c-0.023-0.038-0.065-0.071-0.105-0.104c-0.023-0.039-0.066-0.072-0.105-0.107c-0.023-0.038-0.066-0.07-0.104-0.104      c-0.023-0.039-0.066-0.072-0.107-0.107c-0.022-0.039-0.063-0.071-0.104-0.105c-0.023-0.039-0.066-0.072-0.106-0.107      c-0.024-0.037-0.065-0.069-0.104-0.104c-0.023-0.039-0.065-0.072-0.106-0.105c-0.024-0.041-0.065-0.073-0.106-0.108      c-0.023-0.038-0.064-0.069-0.104-0.104c-0.022-0.039-0.065-0.071-0.104-0.105c-0.024-0.039-0.065-0.07-0.105-0.105      c-0.023-0.039-0.066-0.071-0.107-0.105c-0.022-0.039-0.064-0.072-0.104-0.105c-0.022-0.039-0.065-0.07-0.104-0.104      c-0.024-0.039-0.066-0.071-0.106-0.104c-0.024-0.039-0.065-0.072-0.106-0.106c-0.025-0.039-0.066-0.072-0.106-0.106      c-0.023-0.039-0.065-0.072-0.105-0.104c-0.024-0.039-0.066-0.072-0.106-0.106c-0.024-0.037-0.066-0.07-0.106-0.105      c-0.024-0.038-0.066-0.07-0.106-0.104c-0.024-0.038-0.066-0.071-0.106-0.106c-0.024-0.039-0.066-0.07-0.106-0.104      c-0.024-0.039-0.066-0.071-0.106-0.104c-0.024-0.039-0.066-0.072-0.106-0.106c-0.024-0.039-0.066-0.071-0.106-0.104      c-0.024-0.039-0.066-0.073-0.107-0.106c-0.024-0.039-0.066-0.071-0.107-0.104c-0.024-0.039-0.066-0.072-0.106-0.106      c-0.024-0.039-0.066-0.071-0.105-0.104c-0.024-0.039-0.067-0.071-0.107-0.105c-0.024-0.039-0.066-0.071-0.106-0.105      c-0.024-0.039-0.066-0.072-0.106-0.107c-0.024-0.037-0.067-0.07-0.106-0.104c-0.024-0.039-0.066-0.072-0.106-0.104      c-0.024-0.039-0.066-0.072-0.107-0.107c-0.024-0.038-0.066-0.069-0.106-0.104c-0.024-0.039-0.066-0.071-0.106-0.104      c-0.024-0.038-0.066-0.071-0.106-0.106c-0.024-0.038-0.066-0.071-0.106-0.105c-0.024-0.039-0.066-0.072-0.106-0.105      c-0.024-0.039-0.066-0.072-0.106-0.105c-0.024-0.039-0.066-0.07-0.106-0.105c-0.024-0.039-0.066-0.071-0.106-0.105      c-0.024-0.038-0.066-0.07-0.106-0.105c-0.024-0.037-0.066-0.07-0.106-0.104c-0.024-0.04-0.066-0.072-0.106-0.107      c-0.024-0.039-0.066-0.072-0.106-0.104c-0.024-0.039-0.066-0.072-0.106-0.106c-0.024-0.039-0.066-0.07-0.106-0.105      c-0.024-0.039-0.066-0.07-0.106-0.104c-0.024-0.039-0.066-0.072-0.106-0.106c-0.024-0.039-0.066-0.072-0.106-0.106      c-0.024-0.037-0.066-0.07-0.106-0.104c-0.024-0.039-0.066-0.072-0.106-0.106c-0.024-0.038-0.066-0.071-0.106-0.106      c-0.024-0.038-0.066-0.069-0.106-0.104c-0.024-0.039-0.066-0.071-0.107-0.106c-0.024-0.039-0.066-0.07-0.106-0.105      c-0.024-0.039-0.066-0.07-0.106-0.104c-0.024-0.039-0.066-0.071-0.106-0.106c-0.024-0.039-0.066-0.069-0.106-0.104      c-0.024-0.039-0.066-0.07-0.106-0.105c-0.024-0.039-0.066-0.07-0.106-0.105c-0.024-0.039-0.066-0.072-0.106-0.106      c-0.024-0.039-0.066-0.07-0.106-0.104c-0.024-0.039-0.066-0.072-0.106-0.105c-0.024-0.039-0.066-0.072-0.106-0.105      c-0.024-0.039-0.066-0.072-0.107-0.105c-0.024-0.038-0.066-0.071-0.105-0.104c-0.024-0.041-0.066-0.072-0.106-0.107      c-0.024-0.039-0.066-0.07-0.106-0.105c-0.025-0.039-0.066-0.07-0.107-0.105c-0.024-0.039-0.066-0.071-0.106-0.104      c-0.024-0.039-0.066-0.071-0.106-0.106c-0.024-0.039-0.066-0.07-0.106-0.105c-0.024-0.039-0.066-0.07-0.106-0.105      c-0.024-0.037-0.065-0.07-0.105-0.104c-0.024-0.039-0.066-0.071-0.107-0.106c-0.024-0.039-0.066-0.07-0.106-0.105      c-0.024-0.039-0.066-0.07-0.106-0.105c-0.024-0.039-0.066-0.072-0.106-0.105c-0.024-0.038-0.066-0.071-0.106-0.104      c-0.024-0.039-0.066-0.072-0.106-0.106c-0.024-0.039-0.066-0.071-0.106-0.106c-0.024-0.039-0.066-0.07-0.106-0.104      c-0.024-0.039-0.066-0.071-0.106-0.105c-0.024-0.039-0.066-0.072-0.107-0.106c-0.024-0.039-0.066-0.071-0.106-0.106      c-0.024-0.039-0.066-0.07-0.106-0.105c-0.024-0.038-0.066-0.07-0.106-0.104c-0.024-0.039-0.066-0.071-0.106-0.104      c-0.024-0.039-0.066-0.072-0.106-0.105c-0.024-0.039-0.066-0.072-0.106-0.105c-0.024-0.039-0.066-0.071-0.106-0.105      c-0.024-0.038-0.066-0.07-0.106-0.105c-0.024-0.039-0.066-0.07-0.106-0.105c-0.024-0.039-0.066-0.072-0.107-0.107      c-0.024-0.039-0.066-0.069-0.106-0.104c-0.024-0.039-0.066-0.071-0.106-0.105c-0.024-0.039-0.066-0.072-0.106-0.105      c-0.024-0.038-0.066-0.07-0.105-0.105c-0.024-0.039-0.066-0.072-0.107-0.105c-0.024-0.038-0.066-0.071-0.106-0.104      c-0.024-0.039-0.066-0.072-0.106-0.106c-0.024-0.039-0.066-0.072-0.106-0.106c-0.024-0.039-0.066-0.07-0.105-0.104      C23.082,43.828,23.04,43.795,23,43.76c-0.024-0.039-0.066-0.07-0.107-0.105c-0.024-0.039-0.066-0.07-0.106-0.105      c-0.024-0.038-0.066-0.07-0.106-0.105c-0.024-0.039-0.066-0.069-0.106-0.104c-0.024-0.039-0.066-0.069-0.106-0.104      c-0.024-0.039-0.066-0.071-0.106-0.105c-0.042-0.068-0.104-0.133-0.196-0.186l-1.807-1.035c-0.331-0.19-0.636-0.034-0.68,0.343      l-0.313,2.721c-0.023,0.21,0.038,0.337,0.146,0.38c0.025,0.051,0.06,0.088,0.107,0.105c0.025,0.052,0.06,0.088,0.106,0.105      c0.025,0.053,0.06,0.088,0.107,0.105c0.025,0.052,0.06,0.088,0.106,0.105c0.025,0.051,0.06,0.086,0.105,0.104      c0.025,0.052,0.06,0.088,0.107,0.106c0.025,0.052,0.06,0.088,0.105,0.104c0.025,0.054,0.06,0.088,0.106,0.104      c0.025,0.054,0.06,0.09,0.106,0.106c0.025,0.052,0.06,0.089,0.106,0.106c0.025,0.052,0.06,0.088,0.106,0.104      c0.025,0.054,0.06,0.089,0.107,0.106c0.025,0.051,0.06,0.087,0.106,0.104c0.025,0.053,0.06,0.088,0.106,0.106      c0.025,0.052,0.06,0.088,0.106,0.106c0.025,0.051,0.059,0.088,0.105,0.104c0.025,0.052,0.061,0.088,0.107,0.104      c0.025,0.051,0.06,0.088,0.106,0.106c0.025,0.052,0.06,0.088,0.106,0.106c0.025,0.051,0.06,0.088,0.106,0.104      c0.025,0.051,0.06,0.087,0.106,0.104c0.025,0.053,0.06,0.088,0.106,0.105c0.025,0.053,0.06,0.088,0.106,0.105      c0.025,0.052,0.06,0.088,0.106,0.106c0.025,0.052,0.06,0.086,0.106,0.104c0.025,0.052,0.06,0.088,0.106,0.105      c0.025,0.053,0.06,0.088,0.107,0.105c0.025,0.053,0.06,0.089,0.106,0.106c0.025,0.052,0.06,0.086,0.106,0.104      c0.025,0.052,0.06,0.088,0.106,0.105c0.025,0.053,0.06,0.088,0.106,0.105c0.025,0.051,0.06,0.088,0.106,0.105      c0.025,0.051,0.06,0.088,0.106,0.105c0.025,0.052,0.06,0.087,0.106,0.104c0.025,0.053,0.06,0.09,0.106,0.106      c0.025,0.052,0.06,0.089,0.107,0.106c0.025,0.051,0.06,0.088,0.105,0.104c0.025,0.053,0.06,0.088,0.107,0.106      c0.025,0.051,0.06,0.088,0.106,0.105c0.025,0.051,0.06,0.086,0.106,0.104c0.025,0.053,0.06,0.09,0.106,0.106      c0.025,0.052,0.06,0.088,0.106,0.104c0.025,0.053,0.06,0.09,0.107,0.107c0.025,0.051,0.06,0.086,0.105,0.104      c0.025,0.053,0.06,0.089,0.106,0.106c0.025,0.052,0.06,0.089,0.107,0.104c0.025,0.054,0.06,0.089,0.106,0.105      c0.025,0.053,0.06,0.088,0.106,0.105c0.025,0.053,0.06,0.088,0.106,0.105c0.025,0.053,0.06,0.09,0.107,0.106      c0.025,0.051,0.06,0.088,0.106,0.104c0.025,0.053,0.06,0.088,0.106,0.105c0.025,0.053,0.06,0.088,0.106,0.105      c0.025,0.053,0.06,0.088,0.106,0.106c0.025,0.051,0.06,0.088,0.106,0.104c0.025,0.051,0.06,0.088,0.106,0.105      c0.025,0.052,0.06,0.088,0.107,0.105c0.025,0.053,0.06,0.088,0.106,0.104c0.025,0.054,0.06,0.088,0.106,0.106      c0.025,0.052,0.06,0.088,0.106,0.105c0.025,0.053,0.06,0.088,0.106,0.105c0.025,0.053,0.06,0.088,0.107,0.105      c0.025,0.053,0.06,0.088,0.106,0.105c0.025,0.052,0.06,0.087,0.106,0.104c0.025,0.052,0.06,0.089,0.106,0.106      c0.025,0.051,0.06,0.088,0.106,0.105c0.025,0.051,0.06,0.088,0.106,0.104c0.025,0.053,0.06,0.088,0.106,0.106      c0.025,0.051,0.06,0.088,0.106,0.105c0.025,0.051,0.06,0.086,0.106,0.104c0.025,0.053,0.06,0.09,0.107,0.106      c0.025,0.052,0.06,0.088,0.106,0.104c0.025,0.053,0.06,0.088,0.106,0.105c0.025,0.053,0.06,0.089,0.106,0.105      c0.025,0.053,0.06,0.09,0.106,0.106c0.025,0.052,0.06,0.088,0.106,0.104c0.025,0.052,0.06,0.088,0.105,0.105      c0.025,0.053,0.06,0.088,0.106,0.105c0.025,0.053,0.06,0.088,0.106,0.105c0.025,0.053,0.061,0.09,0.107,0.105      c0.025,0.053,0.06,0.089,0.106,0.105c0.025,0.051,0.059,0.088,0.105,0.105c0.025,0.053,0.061,0.088,0.107,0.105      c0.025,0.053,0.06,0.088,0.106,0.106c0.025,0.051,0.06,0.087,0.106,0.104c0.025,0.051,0.06,0.088,0.106,0.105      c0.025,0.052,0.06,0.088,0.107,0.105c0.025,0.053,0.06,0.088,0.106,0.105c0.025,0.052,0.06,0.088,0.106,0.105      c0.025,0.051,0.06,0.088,0.106,0.105c0.025,0.051,0.06,0.088,0.106,0.105c0.025,0.053,0.06,0.088,0.107,0.105      c0.025,0.051,0.06,0.087,0.105,0.104c0.025,0.054,0.06,0.088,0.106,0.106c0.025,0.052,0.06,0.088,0.106,0.106      c0.025,0.052,0.06,0.088,0.107,0.104c0.025,0.054,0.06,0.088,0.106,0.104c0.025,0.053,0.06,0.089,0.105,0.105      c0.025,0.053,0.06,0.09,0.107,0.107c0.025,0.052,0.06,0.088,0.106,0.104c0.025,0.054,0.06,0.089,0.106,0.106      c0.025,0.051,0.06,0.087,0.106,0.104c0.025,0.053,0.06,0.088,0.106,0.106c0.025,0.052,0.06,0.088,0.106,0.106      c0.025,0.051,0.06,0.088,0.106,0.104c0.025,0.052,0.06,0.088,0.106,0.104c0.025,0.053,0.06,0.088,0.106,0.106      c0.025,0.052,0.06,0.088,0.107,0.106c0.025,0.051,0.059,0.086,0.105,0.104c0.025,0.052,0.06,0.088,0.107,0.105      c0.025,0.053,0.06,0.088,0.106,0.105c0.025,0.053,0.06,0.088,0.106,0.105c0.025,0.053,0.06,0.088,0.106,0.106      c0.025,0.052,0.06,0.086,0.106,0.104c0.025,0.052,0.06,0.088,0.106,0.105c0.025,0.051,0.06,0.088,0.107,0.106      c0.025,0.051,0.06,0.087,0.106,0.104c0.025,0.054,0.06,0.089,0.106,0.106c0.025,0.052,0.06,0.088,0.107,0.105      c0.025,0.053,0.06,0.088,0.106,0.105c0.025,0.051,0.06,0.087,0.106,0.105c0.025,0.051,0.06,0.088,0.106,0.104      c0.025,0.053,0.061,0.088,0.105,0.104c0.027,0.053,0.061,0.09,0.107,0.107c0.025,0.051,0.061,0.088,0.105,0.105      c0.023,0.052,0.06,0.088,0.105,0.104c0.024,0.054,0.06,0.088,0.106,0.106c0.024,0.052,0.06,0.088,0.106,0.105      c0.023,0.051,0.06,0.088,0.104,0.105c0.024,0.051,0.062,0.086,0.104,0.104c0.024,0.052,0.062,0.088,0.105,0.104      c0.025,0.053,0.061,0.089,0.107,0.105c0.023,0.053,0.06,0.088,0.104,0.105c0.024,0.053,0.062,0.089,0.104,0.106      c0.024,0.052,0.062,0.089,0.105,0.105c0.025,0.053,0.061,0.088,0.107,0.106c0.022,0.051,0.059,0.086,0.104,0.105      c0.024,0.051,0.06,0.086,0.104,0.104c0.023,0.053,0.061,0.088,0.105,0.106c0.024,0.051,0.061,0.088,0.106,0.104      c0.024,0.053,0.06,0.088,0.104,0.105c0.024,0.053,0.061,0.088,0.105,0.105c0.023,0.051,0.06,0.088,0.105,0.106      c0.023,0.052,0.061,0.088,0.105,0.104c0.025,0.054,0.061,0.088,0.105,0.105c0.024,0.053,0.061,0.088,0.104,0.105      c0.024,0.053,0.062,0.088,0.106,0.104c0.023,0.054,0.061,0.089,0.104,0.106c0.024,0.052,0.062,0.089,0.106,0.105      c0.024,0.053,0.061,0.088,0.104,0.105c0.024,0.051,0.062,0.088,0.106,0.105c0.023,0.051,0.06,0.088,0.105,0.106      c0.023,0.051,0.061,0.086,0.105,0.104c0.022,0.051,0.061,0.088,0.104,0.105c0.024,0.051,0.062,0.088,0.106,0.105      c0.023,0.051,0.06,0.086,0.104,0.104c0.025,0.052,0.061,0.088,0.105,0.106c0.025,0.051,0.061,0.086,0.107,0.104      c0.023,0.053,0.059,0.09,0.104,0.107c0.024,0.051,0.062,0.086,0.104,0.104c0.024,0.052,0.062,0.088,0.106,0.104      c0.024,0.054,0.06,0.088,0.106,0.106c0.022,0.052,0.06,0.088,0.104,0.106c0.024,0.051,0.06,0.088,0.104,0.104      c0.025,0.052,0.062,0.088,0.105,0.104c0.025,0.054,0.063,0.089,0.105,0.106c0.024,0.052,0.061,0.087,0.106,0.104      c0.022,0.053,0.06,0.088,0.104,0.105c0.023,0.053,0.062,0.088,0.105,0.106c0.023,0.052,0.061,0.088,0.105,0.104      c0.024,0.053,0.061,0.088,0.106,0.105c0.022,0.052,0.06,0.089,0.104,0.105c0.025,0.053,0.06,0.09,0.105,0.106      c0.025,0.051,0.061,0.087,0.105,0.104c0.025,0.051,0.061,0.088,0.105,0.106c0.024,0.051,0.061,0.087,0.104,0.104      c0.024,0.053,0.062,0.088,0.106,0.105c0.023,0.052,0.062,0.088,0.105,0.105c0.025,0.052,0.061,0.086,0.105,0.104      c0.024,0.052,0.061,0.088,0.104,0.106c0.024,0.051,0.062,0.088,0.106,0.104c0.023,0.052,0.06,0.088,0.105,0.104      c0.023,0.054,0.061,0.089,0.105,0.106c0.022,0.052,0.061,0.089,0.104,0.106c0.024,0.052,0.062,0.088,0.104,0.104      c0.025,0.054,0.062,0.089,0.107,0.106c0.023,0.052,0.061,0.088,0.105,0.105c0.023,0.051,0.059,0.086,0.104,0.104      c0.023,0.052,0.061,0.089,0.105,0.106c0.025,0.051,0.062,0.088,0.106,0.104c0.024,0.052,0.06,0.088,0.106,0.104      c0.023,0.053,0.06,0.088,0.105,0.106c0.022,0.052,0.061,0.088,0.104,0.106c0.024,0.052,0.061,0.088,0.104,0.104      c0.025,0.052,0.062,0.088,0.105,0.104c0.025,0.054,0.061,0.09,0.105,0.106c0.024,0.052,0.061,0.087,0.106,0.104      c0.022,0.053,0.06,0.089,0.104,0.105c0.024,0.053,0.062,0.09,0.105,0.105c0.025,0.053,0.061,0.089,0.105,0.105      c0.024,0.053,0.061,0.088,0.105,0.106c0.023,0.051,0.061,0.087,0.105,0.104c0.024,0.054,0.061,0.089,0.105,0.106      c0.025,0.052,0.061,0.088,0.105,0.105c0.023,0.053,0.061,0.088,0.105,0.105c0.023,0.053,0.061,0.088,0.104,0.105      c0.025,0.053,0.063,0.088,0.107,0.105c0.023,0.052,0.061,0.089,0.105,0.105c0.025,0.051,0.061,0.088,0.104,0.105      c0.025,0.051,0.062,0.088,0.105,0.105c0.024,0.052,0.061,0.088,0.104,0.104c0.025,0.054,0.062,0.09,0.107,0.106      c0.025,0.052,0.061,0.088,0.105,0.105c0.023,0.051,0.061,0.088,0.105,0.105c0.023,0.052,0.061,0.088,0.104,0.104      c0.025,0.054,0.063,0.089,0.106,0.106c0.024,0.052,0.062,0.088,0.106,0.105c0.023,0.051,0.06,0.086,0.104,0.104      c0.024,0.052,0.062,0.089,0.104,0.106c0.025,0.051,0.062,0.088,0.106,0.104c0.024,0.053,0.06,0.088,0.106,0.106      c0.022,0.051,0.06,0.088,0.104,0.105c0.023,0.051,0.063,0.088,0.105,0.105c0.025,0.051,0.061,0.088,0.105,0.104      c0.024,0.051,0.061,0.088,0.105,0.104c0.025,0.053,0.061,0.088,0.107,0.105c0.022,0.053,0.059,0.088,0.104,0.105      c0.022,0.053,0.061,0.088,0.104,0.106c0.024,0.052,0.062,0.088,0.105,0.104c0.025,0.054,0.061,0.089,0.107,0.105      c0.022,0.053,0.06,0.09,0.104,0.106c0.023,0.052,0.061,0.087,0.105,0.104c0.023,0.053,0.061,0.088,0.105,0.106      c0.023,0.051,0.061,0.088,0.105,0.104c0.023,0.053,0.061,0.088,0.105,0.105c0.023,0.053,0.061,0.088,0.104,0.105      c0.025,0.053,0.063,0.088,0.107,0.106c0.023,0.051,0.059,0.088,0.104,0.104c0.024,0.054,0.062,0.088,0.106,0.105      c0.024,0.053,0.062,0.088,0.106,0.105c0.023,0.053,0.06,0.088,0.105,0.104c0.023,0.054,0.061,0.089,0.105,0.106      c0.023,0.052,0.061,0.088,0.104,0.105c0.024,0.053,0.062,0.088,0.106,0.105c0.023,0.051,0.06,0.088,0.104,0.105      c0.024,0.053,0.062,0.088,0.107,0.106c0.023,0.051,0.059,0.086,0.105,0.104c0.022,0.052,0.06,0.089,0.104,0.106      c0.024,0.051,0.062,0.088,0.104,0.105c0.025,0.051,0.062,0.088,0.107,0.104c0.023,0.053,0.059,0.088,0.105,0.106      c0.024,0.051,0.06,0.088,0.104,0.105c0.024,0.051,0.062,0.088,0.104,0.105c0.025,0.051,0.062,0.086,0.105,0.104      c0.023,0.052,0.061,0.088,0.105,0.104c0.024,0.054,0.061,0.088,0.106,0.106c0.022,0.052,0.06,0.088,0.104,0.106      c0.023,0.051,0.062,0.088,0.105,0.104c0.025,0.052,0.061,0.088,0.105,0.104c0.025,0.052,0.061,0.089,0.104,0.106      c0.025,0.052,0.062,0.089,0.106,0.106c0.025,0.051,0.06,0.086,0.105,0.104c0.023,0.053,0.061,0.088,0.105,0.106      c0.023,0.052,0.061,0.088,0.105,0.104c0.024,0.053,0.061,0.088,0.106,0.105c0.022,0.053,0.06,0.089,0.104,0.105      c0.023,0.053,0.062,0.09,0.105,0.106c0.023,0.051,0.061,0.088,0.105,0.104c0.024,0.051,0.061,0.088,0.104,0.105      c0.024,0.052,0.062,0.088,0.106,0.105c0.023,0.053,0.06,0.088,0.105,0.105c0.023,0.053,0.061,0.088,0.105,0.105      c0.022,0.053,0.061,0.088,0.104,0.105c0.024,0.053,0.06,0.088,0.104,0.105c0.025,0.053,0.062,0.088,0.107,0.105      c0.023,0.053,0.059,0.087,0.105,0.104c0.023,0.054,0.059,0.09,0.104,0.106c0.023,0.052,0.062,0.089,0.105,0.106      c0.024,0.052,0.061,0.088,0.106,0.105c0.023,0.053,0.059,0.088,0.105,0.105c0.023,0.052,0.061,0.088,0.104,0.105      c0.024,0.051,0.063,0.088,0.106,0.105c0.024,0.052,0.06,0.088,0.104,0.105c0.025,0.051,0.062,0.088,0.105,0.104      c0.023,0.052,0.061,0.088,0.105,0.104c0.024,0.054,0.061,0.088,0.106,0.106c0.022,0.052,0.06,0.088,0.104,0.106      c0.024,0.052,0.062,0.088,0.106,0.104c0.024,0.054,0.06,0.088,0.104,0.106c0.024,0.051,0.061,0.088,0.105,0.105      c0.023,0.051,0.061,0.088,0.105,0.105c0.024,0.051,0.061,0.087,0.105,0.104c0.023,0.052,0.061,0.089,0.105,0.105      c0.023,0.052,0.061,0.088,0.105,0.104c0.024,0.053,0.061,0.088,0.104,0.106c0.025,0.052,0.063,0.088,0.107,0.106      c0.025,0.051,0.059,0.086,0.105,0.104c0.023,0.051,0.06,0.088,0.105,0.104c0.024,0.053,0.061,0.088,0.104,0.105      c0.024,0.053,0.062,0.09,0.106,0.107c0.072,0.147,0.237,0.174,0.455,0.024l2.332-1.586      C54.275,75.236,54.283,74.96,54.057,74.766z" fill="url(#SVGID_3_)"/><linearGradient gradientTransform="matrix(1 0 0 1 -548 -727)" gradientUnits="userSpaceOnUse" id="SVGID_4_" x1="625.0791" x2="570.8701" y1="805.9111" y2="751.7022"><stop offset="0.6735" style="stop-color:#FFFFFF;stop-opacity:0"/><stop offset="0.6927" style="stop-color:#E5E5E5;stop-opacity:0.059"/><stop offset="0.7412" style="stop-color:#A9A9A9;stop-opacity:0.2073"/><stop offset="0.7894" style="stop-color:#767676;stop-opacity:0.3552"/><stop offset="0.8364" style="stop-color:#4B4B4B;stop-opacity:0.4989"/><stop offset="0.8817" style="stop-color:#2A2A2A;stop-opacity:0.6377"/><stop offset="0.925" style="stop-color:#131313;stop-opacity:0.7703"/><stop offset="0.9654" style="stop-color:#050505;stop-opacity:0.894"/><stop offset="1" style="stop-color:#000000"/></linearGradient><path d="M78.668,62.255c-0.031-0.039-0.07-0.073-0.109-0.108c-0.029-0.039-0.066-0.07-0.104-0.105      c-0.029-0.037-0.067-0.068-0.104-0.104c-0.029-0.037-0.066-0.069-0.104-0.104c-0.03-0.039-0.069-0.074-0.108-0.108      c-0.027-0.037-0.066-0.07-0.104-0.104c-0.03-0.038-0.068-0.072-0.106-0.106c-0.03-0.037-0.067-0.07-0.106-0.104      c-0.028-0.038-0.066-0.072-0.104-0.106c-0.028-0.037-0.067-0.07-0.106-0.105c-0.028-0.037-0.065-0.069-0.104-0.104      c-0.028-0.038-0.067-0.071-0.106-0.106c-0.029-0.038-0.067-0.07-0.105-0.105c-0.029-0.038-0.068-0.07-0.105-0.105      c-0.03-0.037-0.067-0.07-0.105-0.105c-0.03-0.038-0.068-0.072-0.107-0.105c-0.027-0.039-0.066-0.071-0.104-0.104      c-0.03-0.039-0.068-0.073-0.107-0.106c-0.029-0.037-0.066-0.07-0.104-0.104c-0.029-0.038-0.068-0.072-0.105-0.106      c-0.029-0.037-0.068-0.072-0.107-0.106c-0.028-0.037-0.066-0.07-0.104-0.104c-0.028-0.039-0.067-0.072-0.104-0.105      c-0.029-0.039-0.068-0.071-0.106-0.105c-0.03-0.039-0.069-0.074-0.108-0.109c-0.028-0.036-0.065-0.067-0.104-0.103      c-0.029-0.038-0.066-0.071-0.104-0.104c-0.031-0.038-0.07-0.073-0.107-0.107c-0.029-0.038-0.068-0.07-0.105-0.105      c-0.031-0.037-0.067-0.072-0.106-0.105c-0.028-0.037-0.065-0.07-0.104-0.104c-0.029-0.039-0.067-0.074-0.106-0.109      c-0.029-0.037-0.067-0.07-0.104-0.104c-0.029-0.039-0.068-0.071-0.107-0.106c-0.028-0.037-0.066-0.071-0.104-0.104      c-0.03-0.039-0.067-0.07-0.106-0.105c-0.028-0.039-0.066-0.072-0.104-0.105c-0.03-0.039-0.067-0.072-0.104-0.106      c-0.029-0.037-0.068-0.069-0.104-0.104c-0.03-0.039-0.069-0.072-0.108-0.109c-0.028-0.036-0.067-0.069-0.104-0.104      c-0.028-0.037-0.067-0.07-0.104-0.104c-0.029-0.039-0.068-0.072-0.105-0.106c-0.029-0.038-0.068-0.071-0.105-0.106      c-0.031-0.037-0.067-0.069-0.106-0.104c-0.028-0.037-0.065-0.069-0.104-0.104c-0.029-0.039-0.067-0.072-0.106-0.107      c-0.029-0.039-0.068-0.07-0.106-0.105c-0.029-0.037-0.066-0.069-0.104-0.104c-0.031-0.037-0.068-0.069-0.106-0.104      c-0.03-0.039-0.067-0.072-0.106-0.105c-0.028-0.039-0.067-0.071-0.104-0.105c-0.03-0.039-0.067-0.072-0.106-0.106      c-0.029-0.037-0.066-0.07-0.105-0.104c-0.027-0.037-0.066-0.07-0.104-0.104c-0.028-0.039-0.067-0.072-0.106-0.107      c-0.028-0.038-0.067-0.071-0.104-0.106c-0.029-0.037-0.068-0.07-0.105-0.105c-0.029-0.037-0.068-0.07-0.105-0.105      c-0.031-0.039-0.069-0.071-0.108-0.106c-0.029-0.037-0.065-0.067-0.104-0.104c-0.029-0.037-0.068-0.071-0.104-0.106      c-0.029-0.037-0.068-0.069-0.106-0.104c-0.029-0.039-0.068-0.072-0.107-0.107c-0.027-0.037-0.066-0.07-0.104-0.104      c-0.029-0.039-0.068-0.072-0.105-0.106c-0.03-0.037-0.069-0.072-0.106-0.106c-0.028-0.037-0.067-0.068-0.104-0.104      c-0.029-0.037-0.068-0.072-0.105-0.107c-0.029-0.037-0.068-0.072-0.107-0.105c-0.028-0.038-0.065-0.069-0.104-0.104      c-0.028-0.036-0.067-0.071-0.104-0.106c-0.03-0.037-0.068-0.07-0.105-0.105c-0.031-0.037-0.068-0.07-0.105-0.105      c-0.031-0.037-0.068-0.069-0.106-0.104c-0.029-0.039-0.068-0.071-0.106-0.106c-0.029-0.037-0.068-0.07-0.104-0.104      c-0.028-0.039-0.067-0.071-0.104-0.104c-0.029-0.039-0.068-0.072-0.105-0.107c-0.03-0.037-0.067-0.07-0.106-0.105      c-0.028-0.037-0.067-0.072-0.104-0.105c-0.03-0.038-0.068-0.071-0.105-0.105c-0.029-0.037-0.068-0.07-0.105-0.104      c-0.029-0.038-0.067-0.071-0.104-0.106c-0.028-0.037-0.067-0.07-0.106-0.105c-0.029-0.037-0.067-0.071-0.105-0.104      c-0.029-0.039-0.068-0.072-0.105-0.106c-0.029-0.038-0.067-0.072-0.105-0.106c-0.03-0.037-0.066-0.07-0.105-0.105      c-0.028-0.036-0.066-0.069-0.104-0.104c-0.029-0.039-0.067-0.072-0.104-0.107c-0.031-0.039-0.07-0.072-0.109-0.107      c-0.029-0.038-0.066-0.068-0.104-0.104c-0.031-0.037-0.068-0.07-0.106-0.105c-0.03-0.037-0.067-0.072-0.106-0.105      c-0.029-0.039-0.068-0.07-0.105-0.105c-0.028-0.037-0.066-0.068-0.104-0.104c-0.031-0.039-0.07-0.072-0.107-0.106      c-0.029-0.039-0.068-0.073-0.106-0.108c-0.028-0.037-0.067-0.068-0.104-0.104c-0.029-0.038-0.067-0.071-0.105-0.105      c-0.029-0.039-0.068-0.072-0.105-0.105c-0.029-0.038-0.067-0.071-0.105-0.106c-0.03-0.036-0.066-0.069-0.105-0.104      c-0.029-0.038-0.067-0.071-0.105-0.105c-0.029-0.037-0.066-0.07-0.105-0.105c-0.029-0.037-0.066-0.07-0.104-0.105      c-0.03-0.038-0.068-0.07-0.104-0.105c-0.031-0.037-0.068-0.071-0.107-0.105c-0.029-0.038-0.067-0.07-0.105-0.105      c-0.029-0.039-0.068-0.071-0.107-0.106c-0.027-0.037-0.065-0.069-0.104-0.104c-0.027-0.039-0.066-0.07-0.104-0.104      c-0.029-0.038-0.068-0.072-0.106-0.106c-0.03-0.037-0.067-0.072-0.106-0.106c-0.028-0.037-0.066-0.071-0.104-0.104      c-0.03-0.039-0.067-0.072-0.104-0.105c-0.031-0.038-0.068-0.072-0.107-0.106c-0.029-0.036-0.066-0.069-0.105-0.104      c-0.029-0.037-0.067-0.071-0.104-0.106c-0.03-0.038-0.069-0.071-0.106-0.106c-0.029-0.036-0.066-0.067-0.104-0.104      c-0.03-0.039-0.068-0.072-0.107-0.107c-0.028-0.039-0.067-0.07-0.104-0.105c-0.03-0.038-0.068-0.07-0.106-0.104      c-0.028-0.039-0.067-0.074-0.106-0.108c-0.028-0.038-0.067-0.071-0.105-0.106c-0.029-0.037-0.066-0.07-0.104-0.104      c-0.029-0.038-0.067-0.071-0.105-0.105c-0.029-0.039-0.068-0.072-0.105-0.106c-0.03-0.037-0.067-0.07-0.105-0.104      c-0.029-0.039-0.068-0.072-0.105-0.105c-0.029-0.039-0.068-0.071-0.105-0.106c-0.03-0.038-0.068-0.071-0.107-0.106      c-0.029-0.036-0.065-0.069-0.104-0.104c-0.03-0.039-0.068-0.07-0.105-0.105c-0.031-0.039-0.07-0.074-0.109-0.108      c-0.027-0.036-0.064-0.069-0.104-0.103c-0.029-0.039-0.066-0.072-0.105-0.106c-0.029-0.039-0.068-0.073-0.107-0.108      c-0.029-0.037-0.064-0.069-0.104-0.104c-0.029-0.038-0.067-0.072-0.105-0.106c-0.029-0.039-0.07-0.074-0.109-0.108      c-0.028-0.037-0.065-0.069-0.104-0.104c-0.029-0.037-0.068-0.07-0.105-0.104c-0.031-0.039-0.067-0.072-0.106-0.106      c-0.029-0.037-0.067-0.07-0.104-0.105c-0.029-0.037-0.066-0.07-0.105-0.104c-0.028-0.038-0.067-0.071-0.105-0.106      c-0.029-0.036-0.068-0.071-0.106-0.106c-0.028-0.037-0.067-0.069-0.104-0.104c-0.029-0.039-0.066-0.071-0.105-0.106      c-0.029-0.037-0.067-0.071-0.105-0.104c-0.029-0.037-0.068-0.07-0.105-0.105c-0.028-0.037-0.067-0.07-0.104-0.105      c-0.028-0.037-0.067-0.072-0.106-0.106c-0.029-0.037-0.066-0.07-0.105-0.104c-0.029-0.037-0.066-0.07-0.105-0.104      c-0.028-0.039-0.067-0.073-0.106-0.108c-0.028-0.037-0.067-0.07-0.104-0.104c-0.029-0.039-0.066-0.072-0.104-0.105      c-0.03-0.037-0.069-0.072-0.106-0.107c-0.029-0.036-0.068-0.069-0.105-0.104c-0.029-0.038-0.068-0.071-0.105-0.104      c-0.029-0.039-0.067-0.072-0.106-0.107c-0.029-0.036-0.066-0.068-0.104-0.104c-0.029-0.039-0.068-0.071-0.105-0.106      c-0.031-0.039-0.068-0.071-0.107-0.106c-0.029-0.037-0.066-0.07-0.105-0.105c-0.028-0.037-0.067-0.07-0.104-0.104      c-0.028-0.039-0.067-0.071-0.104-0.106c-0.029-0.037-0.068-0.071-0.105-0.106c-0.029-0.037-0.068-0.07-0.105-0.104      c-0.03-0.039-0.067-0.072-0.106-0.105c-0.028-0.039-0.067-0.072-0.104-0.106c-0.03-0.037-0.068-0.07-0.105-0.104      c-0.029-0.039-0.068-0.072-0.105-0.106c-0.03-0.038-0.068-0.071-0.106-0.106c-0.029-0.037-0.067-0.07-0.106-0.105      c-0.029-0.037-0.065-0.069-0.104-0.104c-0.029-0.037-0.068-0.071-0.107-0.106c-0.029-0.037-0.066-0.07-0.104-0.105      c-0.029-0.037-0.068-0.07-0.104-0.105c-0.031-0.037-0.068-0.07-0.107-0.104c-0.027-0.037-0.066-0.069-0.104-0.104      c-0.029-0.039-0.068-0.073-0.107-0.109c-0.029-0.037-0.067-0.068-0.104-0.104c-0.028-0.039-0.067-0.072-0.104-0.106      c-0.03-0.038-0.068-0.071-0.105-0.106c-0.031-0.037-0.068-0.07-0.105-0.104c-0.03-0.038-0.068-0.07-0.106-0.104      c-0.028-0.039-0.067-0.072-0.104-0.105c-0.028-0.038-0.066-0.07-0.104-0.105c-0.03-0.039-0.069-0.072-0.108-0.107      c-0.027-0.037-0.066-0.069-0.104-0.104c-0.03-0.039-0.066-0.071-0.105-0.106c-0.029-0.037-0.067-0.07-0.105-0.104      c-0.029-0.039-0.068-0.072-0.105-0.105c-0.029-0.039-0.068-0.072-0.106-0.106c-0.029-0.037-0.066-0.069-0.105-0.104      c-0.028-0.037-0.065-0.071-0.104-0.105c-0.03-0.039-0.069-0.072-0.108-0.107c-0.029-0.037-0.066-0.07-0.104-0.104      c-0.029-0.038-0.068-0.071-0.105-0.105c-0.029-0.037-0.068-0.07-0.107-0.105c-0.028-0.038-0.066-0.07-0.104-0.105      c-0.028-0.039-0.067-0.07-0.104-0.105c-0.029-0.038-0.068-0.071-0.105-0.104c-0.029-0.039-0.066-0.07-0.105-0.105      c-0.028-0.039-0.067-0.074-0.107-0.109c-0.028-0.037-0.066-0.07-0.104-0.104c-0.029-0.038-0.067-0.071-0.105-0.105      c-0.03-0.039-0.068-0.072-0.107-0.107c-0.029-0.037-0.066-0.069-0.104-0.104c-0.03-0.038-0.069-0.07-0.107-0.105      c-0.029-0.039-0.068-0.072-0.105-0.106c-0.029-0.037-0.066-0.069-0.104-0.104c-0.028-0.039-0.067-0.071-0.106-0.106      c-0.029-0.038-0.067-0.07-0.105-0.104c-0.029-0.039-0.068-0.072-0.107-0.107c-0.027-0.037-0.065-0.07-0.104-0.104      c-0.029-0.039-0.068-0.074-0.107-0.108c-0.028-0.038-0.067-0.072-0.105-0.107c-0.029-0.036-0.064-0.069-0.104-0.104      c-0.029-0.037-0.068-0.071-0.106-0.106c-0.03-0.038-0.067-0.071-0.106-0.106c-0.029-0.037-0.067-0.07-0.104-0.104      c-0.03-0.038-0.068-0.069-0.106-0.104c-0.027-0.037-0.066-0.07-0.104-0.104c-0.03-0.04-0.07-0.075-0.111-0.11      c-0.027-0.037-0.064-0.067-0.104-0.104c-0.029-0.038-0.067-0.072-0.105-0.105c-0.029-0.039-0.066-0.072-0.105-0.105      c-0.029-0.038-0.067-0.072-0.105-0.105c-0.029-0.037-0.068-0.07-0.105-0.105c-0.03-0.038-0.067-0.072-0.105-0.106      c-0.029-0.036-0.066-0.069-0.104-0.104c-0.029-0.038-0.068-0.072-0.107-0.108c-0.03-0.037-0.068-0.068-0.105-0.104      c-0.028-0.037-0.067-0.071-0.104-0.105c-0.03-0.038-0.067-0.072-0.106-0.105c-0.029-0.039-0.066-0.07-0.105-0.105      c-0.029-0.038-0.067-0.072-0.105-0.105c-0.029-0.037-0.068-0.07-0.104-0.105c-0.029-0.038-0.068-0.07-0.104-0.105      c-0.029-0.037-0.068-0.069-0.105-0.104c-0.029-0.038-0.068-0.072-0.107-0.106c-0.029-0.037-0.066-0.07-0.105-0.104      c-0.028-0.038-0.066-0.071-0.104-0.106c-0.03-0.037-0.067-0.072-0.104-0.104c-0.031-0.038-0.068-0.071-0.106-0.106      c-0.03-0.037-0.067-0.07-0.106-0.105c-0.028-0.037-0.067-0.07-0.104-0.104c-0.029-0.038-0.068-0.071-0.105-0.106      c-0.029-0.038-0.068-0.071-0.107-0.106c-0.029-0.036-0.066-0.069-0.104-0.104c-0.031-0.039-0.069-0.071-0.108-0.106      c-0.028-0.038-0.065-0.071-0.104-0.104c-0.029-0.037-0.068-0.072-0.106-0.106c-0.029-0.038-0.067-0.071-0.104-0.106      c-0.029-0.037-0.068-0.069-0.105-0.104c-0.029-0.037-0.067-0.071-0.105-0.104c-0.029-0.039-0.068-0.07-0.105-0.105      c-0.028-0.037-0.067-0.07-0.104-0.104c-0.031-0.041-0.07-0.074-0.109-0.11c-0.029-0.037-0.066-0.069-0.104-0.104      c-0.028-0.037-0.067-0.07-0.104-0.104c-0.029-0.037-0.066-0.072-0.105-0.105c-0.029-0.038-0.068-0.073-0.107-0.108      c-0.028-0.037-0.067-0.07-0.104-0.104c-0.029-0.038-0.067-0.071-0.104-0.106c-0.029-0.037-0.066-0.069-0.105-0.104      c-0.029-0.037-0.068-0.071-0.105-0.106c-0.031-0.037-0.068-0.07-0.106-0.105c-0.029-0.037-0.066-0.068-0.104-0.104      c-0.029-0.041-0.068-0.074-0.107-0.109c-0.029-0.039-0.068-0.071-0.105-0.105c-0.029-0.037-0.066-0.072-0.105-0.104      c-0.028-0.039-0.067-0.072-0.104-0.106c-0.028-0.037-0.067-0.07-0.104-0.104c-0.029-0.039-0.068-0.074-0.109-0.11      c-0.027-0.036-0.064-0.069-0.104-0.103c-0.029-0.038-0.068-0.072-0.105-0.107c-0.029-0.039-0.068-0.072-0.105-0.107      c-0.03-0.038-0.067-0.072-0.106-0.107c-0.029-0.038-0.067-0.072-0.106-0.106c-0.029-0.038-0.066-0.071-0.104-0.106      c-0.029-0.037-0.068-0.07-0.105-0.104c-0.029-0.039-0.067-0.073-0.105-0.108c-0.03-0.039-0.069-0.073-0.108-0.108      c-0.028-0.037-0.065-0.069-0.104-0.103c-0.029-0.039-0.068-0.073-0.107-0.108c-0.028-0.038-0.067-0.072-0.106-0.107      c-0.027-0.038-0.066-0.071-0.104-0.105c-0.029-0.038-0.068-0.071-0.105-0.106c-0.029-0.038-0.067-0.071-0.104-0.105      c-0.028-0.038-0.067-0.072-0.106-0.107c-0.028-0.038-0.067-0.072-0.105-0.106c-0.029-0.038-0.068-0.072-0.105-0.107      c-0.029-0.038-0.067-0.072-0.106-0.107C46.627,30.174,46.393,30.016,46,30h-2.534c-0.03-0.033-0.058-0.055-0.087-0.083      c-0.036-0.039-0.068-0.069-0.102-0.101c-0.041-0.044-0.076-0.078-0.113-0.114c-0.036-0.039-0.068-0.069-0.104-0.102      c-0.037-0.041-0.069-0.071-0.104-0.104c-0.039-0.042-0.073-0.075-0.108-0.109c-0.037-0.041-0.07-0.071-0.104-0.105      c-0.037-0.041-0.07-0.072-0.104-0.105c-0.039-0.042-0.072-0.074-0.109-0.109c-0.035-0.041-0.068-0.071-0.104-0.105      c-0.035-0.04-0.066-0.07-0.103-0.103c-0.039-0.043-0.074-0.077-0.111-0.112c-0.037-0.04-0.069-0.071-0.104-0.104      c-0.039-0.042-0.071-0.073-0.106-0.107c-0.037-0.041-0.069-0.071-0.104-0.105c-0.037-0.041-0.07-0.073-0.105-0.106      c-0.037-0.041-0.07-0.073-0.105-0.106c-0.037-0.041-0.069-0.071-0.104-0.105c-0.037-0.041-0.07-0.073-0.105-0.107      c-0.037-0.042-0.072-0.073-0.106-0.107c-0.038-0.041-0.072-0.073-0.106-0.107c-0.037-0.042-0.072-0.073-0.106-0.106      c-0.036-0.041-0.069-0.071-0.104-0.105c-0.035-0.041-0.07-0.073-0.105-0.106c-0.035-0.04-0.067-0.07-0.104-0.103      c-0.039-0.043-0.074-0.077-0.109-0.112c-0.037-0.04-0.069-0.07-0.104-0.104c-0.038-0.042-0.071-0.073-0.108-0.108      c-0.037-0.042-0.069-0.073-0.105-0.107c-0.036-0.04-0.068-0.07-0.104-0.103c-0.039-0.042-0.074-0.075-0.11-0.11      c-0.035-0.04-0.069-0.071-0.104-0.104c-0.037-0.041-0.07-0.072-0.104-0.105c-0.036-0.041-0.07-0.073-0.104-0.107      c-0.037-0.041-0.07-0.071-0.105-0.105c-0.037-0.042-0.072-0.074-0.107-0.109c-0.037-0.041-0.07-0.071-0.105-0.105      c-0.036-0.041-0.069-0.073-0.104-0.106c-0.036-0.041-0.069-0.072-0.104-0.105c-0.037-0.042-0.072-0.074-0.107-0.108      c-0.036-0.04-0.068-0.07-0.104-0.104c-0.039-0.042-0.072-0.074-0.108-0.109c-0.037-0.041-0.069-0.071-0.104-0.105      c-0.037-0.041-0.071-0.073-0.106-0.106c-0.036-0.041-0.069-0.073-0.104-0.106c-0.037-0.041-0.07-0.073-0.105-0.106      c-0.039-0.042-0.073-0.074-0.109-0.109c-0.035-0.04-0.068-0.07-0.104-0.103c-0.037-0.04-0.069-0.071-0.104-0.104      c-0.039-0.042-0.072-0.074-0.106-0.108c-0.039-0.041-0.072-0.072-0.107-0.106c-0.036-0.041-0.071-0.073-0.104-0.106      c-0.037-0.042-0.072-0.073-0.107-0.107c-0.036-0.04-0.07-0.071-0.104-0.105c-0.037-0.04-0.07-0.071-0.104-0.104      c-0.038-0.042-0.073-0.075-0.108-0.109c-0.037-0.041-0.069-0.072-0.104-0.106c-0.039-0.042-0.073-0.073-0.108-0.108      c-0.037-0.04-0.068-0.071-0.104-0.104c-0.037-0.041-0.07-0.072-0.104-0.104c-0.039-0.042-0.072-0.073-0.106-0.107      c-0.037-0.041-0.071-0.073-0.106-0.106c-0.035-0.041-0.07-0.071-0.104-0.105c-0.037-0.041-0.07-0.072-0.105-0.106      c-0.037-0.042-0.072-0.074-0.106-0.109c-0.037-0.041-0.072-0.072-0.106-0.106c-0.037-0.041-0.07-0.072-0.105-0.106      c-0.037-0.041-0.07-0.072-0.105-0.106c-0.037-0.041-0.07-0.072-0.105-0.105c-0.037-0.041-0.069-0.072-0.104-0.106      c-0.037-0.041-0.069-0.072-0.104-0.106c-0.037-0.041-0.07-0.073-0.105-0.107c-0.037-0.041-0.07-0.072-0.105-0.106      c-0.039-0.042-0.073-0.075-0.108-0.109c-0.037-0.039-0.067-0.068-0.103-0.101c-0.039-0.042-0.074-0.075-0.108-0.109      c-0.037-0.041-0.072-0.072-0.106-0.106c-0.035-0.04-0.068-0.07-0.104-0.104c-0.037-0.041-0.072-0.073-0.107-0.107      c-0.035-0.041-0.07-0.073-0.105-0.107c-0.036-0.041-0.069-0.072-0.104-0.106c-0.038-0.042-0.071-0.074-0.108-0.108      c-0.035-0.04-0.066-0.069-0.103-0.102c-0.039-0.042-0.073-0.075-0.108-0.11c-0.037-0.04-0.068-0.069-0.104-0.103      c-0.039-0.042-0.074-0.076-0.11-0.11c-0.035-0.039-0.066-0.069-0.101-0.101c-0.039-0.042-0.074-0.075-0.108-0.11      c-0.037-0.041-0.072-0.072-0.106-0.106c-0.036-0.041-0.071-0.072-0.106-0.106c-0.037-0.042-0.07-0.074-0.107-0.108      c-0.034-0.039-0.065-0.067-0.1-0.1c-0.039-0.043-0.074-0.076-0.109-0.112c-0.038-0.042-0.073-0.073-0.108-0.108      c-0.035-0.04-0.067-0.07-0.104-0.104c-0.037-0.042-0.071-0.074-0.106-0.108c-0.037-0.041-0.069-0.071-0.104-0.104      c-0.037-0.041-0.07-0.072-0.104-0.106c-0.039-0.042-0.074-0.075-0.109-0.109c-0.035-0.04-0.068-0.07-0.104-0.103      c-0.039-0.042-0.074-0.075-0.109-0.109c-0.035-0.04-0.068-0.071-0.104-0.104c-0.038-0.042-0.072-0.073-0.107-0.108      c-0.037-0.041-0.07-0.071-0.105-0.105c-0.037-0.041-0.072-0.073-0.106-0.107c-0.038-0.042-0.073-0.073-0.108-0.107      c-0.037-0.04-0.07-0.071-0.104-0.104c-0.038-0.041-0.072-0.073-0.107-0.107c-0.037-0.041-0.071-0.072-0.105-0.105      c-0.039-0.042-0.073-0.075-0.109-0.109c-0.234-0.257-0.424-0.383-0.55-0.321c-0.9,0.451,1.89,6.226,2.813,8.396      c0.313,0.733,0.933,2.173,1.644,3.766c-0.011-0.01-0.021-0.019-0.032-0.028c-0.027-0.041-0.068-0.071-0.105-0.106      c-0.027-0.041-0.068-0.071-0.105-0.105c-0.027-0.042-0.066-0.073-0.105-0.107c-0.026-0.041-0.067-0.071-0.104-0.105      c-0.029-0.041-0.068-0.072-0.107-0.107c-0.027-0.041-0.066-0.071-0.104-0.105c-0.029-0.041-0.068-0.072-0.107-0.107      c-0.027-0.041-0.067-0.071-0.104-0.105c-0.026-0.041-0.067-0.071-0.104-0.105c-0.027-0.042-0.068-0.073-0.105-0.108      c-0.029-0.041-0.068-0.071-0.107-0.105c-0.026-0.042-0.067-0.073-0.105-0.107c-0.025-0.041-0.066-0.071-0.104-0.105      c-0.028-0.041-0.068-0.072-0.106-0.107c-0.028-0.041-0.067-0.072-0.104-0.106c-0.027-0.041-0.067-0.071-0.104-0.106      c-0.029-0.041-0.067-0.072-0.104-0.107c-0.029-0.041-0.069-0.072-0.107-0.106c-0.027-0.041-0.068-0.072-0.105-0.107      c-0.027-0.041-0.068-0.071-0.105-0.106c-0.028-0.041-0.068-0.071-0.104-0.105c-0.029-0.041-0.07-0.072-0.106-0.106      c-0.029-0.041-0.069-0.072-0.106-0.107c-0.029-0.041-0.068-0.071-0.104-0.105c-0.029-0.041-0.069-0.072-0.107-0.106      c-0.027-0.041-0.068-0.072-0.105-0.107c-0.028-0.04-0.068-0.071-0.105-0.105c-0.029-0.042-0.068-0.073-0.107-0.108      c-0.026-0.041-0.066-0.071-0.104-0.105c-0.027-0.041-0.068-0.072-0.105-0.107c-0.028-0.041-0.068-0.072-0.105-0.106      c-0.028-0.041-0.068-0.072-0.106-0.106c-0.029-0.041-0.069-0.072-0.107-0.107c-0.029-0.041-0.068-0.071-0.105-0.105      c-0.029-0.042-0.069-0.073-0.108-0.108c-0.028-0.041-0.068-0.071-0.105-0.105c-0.057-0.081-0.127-0.153-0.218-0.205      l-1.805-1.034c-0.332-0.192-0.76-0.075-0.947,0.254l-2.77,4.826l-0.582,1.014H25.51l0.053-0.107h-0.159l0.053-0.106h-0.16      l0.054-0.107h-0.159l0.053-0.105h-0.161l0.054-0.107h-0.16l0.053-0.106h-0.159l0.053-0.105h-0.16l0.054-0.107H24.66l0.053-0.106      h-0.16l0.054-0.107h-0.159L24.5,30H18c-1,0.041-1,1-1,1v3c0,0,0.008,0.469,0.334,0.766c0.03,0.037,0.068,0.071,0.106,0.105      c0.03,0.038,0.068,0.072,0.106,0.105c0.029,0.039,0.068,0.07,0.105,0.104c0.03,0.039,0.069,0.071,0.107,0.106      c0.029,0.037,0.068,0.07,0.105,0.104c0.03,0.038,0.068,0.071,0.106,0.106c0.03,0.037,0.068,0.069,0.105,0.104      c0.03,0.039,0.069,0.073,0.108,0.107c0.03,0.037,0.068,0.07,0.106,0.104c0.03,0.038,0.068,0.072,0.106,0.106      c0.03,0.037,0.068,0.07,0.106,0.104c0.029,0.038,0.068,0.071,0.106,0.104c0.03,0.039,0.068,0.072,0.106,0.105      c0.03,0.039,0.068,0.072,0.106,0.106c0.03,0.038,0.068,0.071,0.106,0.106c0.03,0.036,0.068,0.069,0.106,0.104      c0.03,0.039,0.068,0.07,0.106,0.105c0.03,0.039,0.069,0.072,0.107,0.106c0.029,0.038,0.067,0.069,0.105,0.104      c0.03,0.039,0.069,0.071,0.108,0.106c0.029,0.038,0.068,0.071,0.105,0.104c0.03,0.037,0.068,0.072,0.106,0.105      c0.03,0.038,0.068,0.072,0.106,0.105c0.029,0.039,0.067,0.069,0.105,0.104c0.03,0.038,0.069,0.072,0.108,0.106      c0.029,0.039,0.068,0.07,0.105,0.105c0.03,0.039,0.069,0.072,0.108,0.107c0.029,0.037,0.067,0.068,0.104,0.104      c0.03,0.039,0.068,0.072,0.107,0.107c0.03,0.037,0.068,0.072,0.106,0.105c0.03,0.038,0.068,0.071,0.106,0.104      c0.03,0.039,0.069,0.073,0.108,0.106c0.029,0.037,0.066,0.07,0.104,0.104c0.03,0.038,0.068,0.071,0.107,0.106      c0.03,0.039,0.07,0.073,0.109,0.108c0.029,0.037,0.066,0.069,0.104,0.104c0.017,0.021,0.038,0.041,0.057,0.063l-0.721,1.256      c-0.165,0.287-0.089,0.637,0.145,0.852c0.029,0.041,0.069,0.07,0.107,0.105c0.029,0.041,0.068,0.071,0.106,0.105      c0.029,0.041,0.069,0.072,0.106,0.104c0.029,0.041,0.069,0.072,0.107,0.107c0.028,0.04,0.068,0.069,0.104,0.104      c0.029,0.044,0.069,0.074,0.107,0.107c0.029,0.041,0.069,0.071,0.106,0.104c0.029,0.041,0.068,0.072,0.105,0.104      c0.029,0.042,0.069,0.073,0.108,0.108c0.028,0.041,0.068,0.069,0.105,0.104c0.029,0.041,0.069,0.071,0.107,0.104      c0.029,0.043,0.069,0.072,0.107,0.107c0.029,0.041,0.068,0.07,0.106,0.104c0.028,0.041,0.068,0.071,0.106,0.106      c0.029,0.041,0.068,0.07,0.106,0.104c0.029,0.041,0.069,0.072,0.106,0.105c0.029,0.041,0.068,0.072,0.106,0.105      c0.029,0.041,0.069,0.072,0.107,0.106c0.029,0.041,0.069,0.07,0.106,0.104c0.029,0.041,0.068,0.072,0.106,0.106      c0.028,0.04,0.068,0.071,0.106,0.104c0.029,0.041,0.069,0.072,0.106,0.105c0.029,0.041,0.068,0.071,0.106,0.104      c0.028,0.041,0.068,0.071,0.106,0.106c0.029,0.041,0.069,0.072,0.107,0.105c0.028,0.041,0.068,0.07,0.105,0.105      c0.029,0.041,0.069,0.071,0.107,0.106c0.029,0.041,0.068,0.069,0.106,0.104c0.029,0.041,0.069,0.071,0.106,0.105      c0.029,0.041,0.069,0.072,0.106,0.105c0.028,0.039,0.068,0.07,0.105,0.104c0.029,0.041,0.069,0.072,0.108,0.106      c0.028,0.041,0.068,0.07,0.104,0.104c0.029,0.042,0.07,0.073,0.108,0.108c0.028,0.041,0.068,0.07,0.105,0.104      c0.029,0.041,0.068,0.071,0.106,0.105c0.029,0.041,0.069,0.072,0.107,0.107c0.028,0.039,0.068,0.07,0.105,0.104      c0.029,0.041,0.069,0.072,0.106,0.105c0.029,0.041,0.069,0.071,0.106,0.104c0.029,0.041,0.068,0.071,0.106,0.106      c0.029,0.041,0.069,0.071,0.106,0.105c0.029,0.041,0.069,0.072,0.107,0.105c0.029,0.041,0.068,0.071,0.106,0.104      c0.028,0.041,0.068,0.071,0.106,0.104c0.029,0.043,0.069,0.073,0.107,0.108c0.028,0.04,0.068,0.071,0.105,0.104      c0.029,0.041,0.068,0.07,0.106,0.104c0.029,0.041,0.069,0.072,0.107,0.104c0.028,0.041,0.068,0.072,0.106,0.106      c0.029,0.041,0.069,0.071,0.107,0.106c0.028,0.041,0.068,0.07,0.105,0.104c0.029,0.04,0.068,0.071,0.106,0.104      c0.029,0.041,0.069,0.072,0.107,0.106c0.029,0.041,0.068,0.072,0.106,0.106c0.028,0.041,0.068,0.07,0.106,0.104      c0.029,0.041,0.069,0.072,0.106,0.106c0.029,0.041,0.069,0.071,0.106,0.104c0.029,0.041,0.069,0.072,0.107,0.106      c0.028,0.041,0.068,0.071,0.105,0.104c0.029,0.043,0.069,0.071,0.106,0.106c0.029,0.041,0.069,0.071,0.106,0.104      c0.029,0.041,0.069,0.072,0.107,0.106c0.028,0.041,0.068,0.071,0.105,0.104c0.029,0.041,0.069,0.071,0.107,0.105      c0.029,0.041,0.069,0.072,0.106,0.105c0.029,0.041,0.069,0.072,0.106,0.105c0.029,0.041,0.068,0.071,0.105,0.105      c0.029,0.041,0.069,0.072,0.108,0.106c0.028,0.04,0.068,0.071,0.106,0.104c0.028,0.041,0.068,0.07,0.105,0.104      c0.029,0.041,0.069,0.072,0.107,0.107c0.029,0.041,0.069,0.071,0.106,0.104c0.029,0.041,0.069,0.072,0.106,0.106      c0.029,0.041,0.069,0.071,0.106,0.106c0.029,0.041,0.068,0.069,0.106,0.104c0.028,0.041,0.068,0.07,0.105,0.105      c0.029,0.041,0.069,0.071,0.107,0.106c0.029,0.04,0.069,0.071,0.106,0.104c0.028,0.041,0.068,0.071,0.105,0.104      c0.029,0.042,0.069,0.073,0.107,0.106c0.029,0.041,0.068,0.07,0.106,0.104c0.029,0.041,0.069,0.072,0.107,0.106      c0.029,0.041,0.069,0.072,0.106,0.106c0.028,0.041,0.068,0.07,0.105,0.104c0.029,0.041,0.069,0.07,0.106,0.105      c0.029,0.041,0.069,0.071,0.107,0.106c0.028,0.04,0.068,0.069,0.105,0.104c0.029,0.041,0.069,0.072,0.107,0.106      c0.029,0.041,0.069,0.072,0.106,0.105c0.029,0.041,0.068,0.07,0.106,0.104c0.028,0.041,0.068,0.071,0.106,0.106      c0.029,0.041,0.069,0.071,0.106,0.104c0.029,0.041,0.069,0.071,0.106,0.104c0.029,0.041,0.069,0.072,0.106,0.106      c0.029,0.041,0.069,0.071,0.106,0.106c0.028,0.041,0.068,0.069,0.106,0.104c0.028,0.041,0.068,0.071,0.106,0.104      c0.029,0.043,0.069,0.072,0.108,0.107c0.028,0.041,0.067,0.07,0.104,0.104c0.029,0.043,0.069,0.074,0.107,0.108      c0.028,0.041,0.068,0.07,0.106,0.104c0.029,0.041,0.069,0.072,0.106,0.105c0.029,0.041,0.068,0.07,0.106,0.104      c0.029,0.043,0.069,0.074,0.107,0.106c0.029,0.041,0.069,0.072,0.106,0.105c0.029,0.041,0.068,0.071,0.106,0.106      c0.029,0.041,0.069,0.07,0.107,0.105c0.028,0.041,0.068,0.07,0.105,0.104c0.029,0.041,0.069,0.071,0.107,0.106      c0.029,0.041,0.069,0.071,0.106,0.106c0.029,0.041,0.069,0.07,0.106,0.105c0.027,0.041,0.066,0.07,0.104,0.104      c0.028,0.041,0.067,0.071,0.104,0.106c0.029,0.041,0.068,0.071,0.106,0.104c0.029,0.041,0.069,0.072,0.106,0.105      c0.029,0.041,0.068,0.072,0.106,0.105c0.027,0.041,0.067,0.072,0.104,0.106c0.027,0.041,0.068,0.072,0.105,0.104      c0.028,0.041,0.068,0.072,0.106,0.106c0.028,0.041,0.067,0.071,0.104,0.104c0.027,0.041,0.067,0.072,0.105,0.105      c0.027,0.043,0.068,0.071,0.105,0.106c0.027,0.041,0.067,0.069,0.104,0.104c0.028,0.041,0.067,0.07,0.106,0.105      c0.026,0.041,0.067,0.072,0.104,0.105c0.028,0.041,0.069,0.072,0.104,0.106c0.029,0.039,0.068,0.069,0.105,0.104      c0.029,0.041,0.068,0.072,0.107,0.107c0.026,0.039,0.067,0.07,0.104,0.104c0.028,0.041,0.067,0.072,0.106,0.107      c0.027,0.039,0.066,0.07,0.104,0.104c0.028,0.041,0.068,0.072,0.105,0.106c0.029,0.041,0.068,0.073,0.106,0.106      c0.028,0.041,0.068,0.072,0.106,0.105c0.027,0.041,0.066,0.071,0.104,0.104c0.028,0.041,0.068,0.072,0.106,0.107      c0.028,0.04,0.067,0.07,0.104,0.105c0.028,0.041,0.069,0.07,0.106,0.105c0.028,0.041,0.067,0.071,0.104,0.104      c0.029,0.041,0.068,0.071,0.107,0.106c0.027,0.039,0.066,0.069,0.104,0.104c0.029,0.041,0.068,0.072,0.107,0.107      c0.027,0.041,0.068,0.07,0.105,0.105c0.026,0.04,0.067,0.068,0.104,0.104c0.026,0.041,0.067,0.072,0.104,0.107      c0.029,0.041,0.068,0.071,0.105,0.105c0.029,0.041,0.069,0.072,0.105,0.105c0.029,0.041,0.067,0.07,0.104,0.105      c0.029,0.041,0.069,0.072,0.106,0.106c0.029,0.04,0.07,0.07,0.105,0.104c0.029,0.041,0.068,0.072,0.105,0.105      c0.029,0.041,0.068,0.072,0.107,0.106c0.026,0.041,0.067,0.071,0.104,0.104c0.029,0.041,0.068,0.072,0.105,0.105      c0.029,0.041,0.068,0.072,0.107,0.105c0.027,0.041,0.066,0.071,0.104,0.105c0.028,0.041,0.067,0.07,0.104,0.105      c0.028,0.041,0.069,0.071,0.106,0.106c0.027,0.04,0.068,0.069,0.105,0.104c0.027,0.041,0.068,0.071,0.105,0.106      c0.028,0.041,0.067,0.069,0.104,0.104c0.028,0.041,0.069,0.071,0.106,0.105c0.029,0.041,0.068,0.072,0.105,0.105      c0.029,0.041,0.068,0.07,0.104,0.104c0.029,0.042,0.07,0.073,0.107,0.105c0.028,0.041,0.067,0.072,0.104,0.106      c0.029,0.041,0.07,0.072,0.106,0.106c0.028,0.041,0.069,0.072,0.106,0.104c0.027,0.041,0.068,0.072,0.105,0.106      c0.028,0.041,0.067,0.07,0.106,0.105c0.026,0.041,0.067,0.07,0.104,0.104c0.027,0.041,0.066,0.071,0.105,0.106      c0.027,0.041,0.066,0.07,0.105,0.105c0.026,0.04,0.067,0.068,0.104,0.104c0.026,0.041,0.067,0.071,0.104,0.106      c0.029,0.041,0.069,0.071,0.105,0.106c0.029,0.041,0.068,0.069,0.105,0.104c0.029,0.042,0.069,0.074,0.107,0.107      c0.028,0.039,0.066,0.07,0.104,0.104c0.028,0.041,0.068,0.072,0.106,0.104c0.028,0.041,0.067,0.072,0.104,0.106      c0.029,0.041,0.068,0.072,0.105,0.106c0.028,0.041,0.069,0.072,0.105,0.104c0.029,0.041,0.068,0.072,0.105,0.106      c0.029,0.041,0.068,0.07,0.107,0.105c0.027,0.041,0.066,0.07,0.104,0.104c0.028,0.041,0.067,0.071,0.106,0.106      c0.026,0.041,0.067,0.07,0.104,0.104c0.028,0.041,0.068,0.071,0.105,0.104c0.029,0.041,0.068,0.072,0.105,0.106      c0.028,0.041,0.068,0.071,0.105,0.106c0.027,0.041,0.068,0.071,0.105,0.104c0.028,0.041,0.068,0.071,0.106,0.106      c0.028,0.041,0.067,0.068,0.104,0.104c0.027,0.041,0.067,0.072,0.104,0.106c0.028,0.041,0.067,0.072,0.104,0.105      c0.029,0.041,0.069,0.072,0.106,0.105c0.028,0.041,0.067,0.072,0.106,0.104c0.027,0.043,0.068,0.073,0.105,0.108      c0.028,0.039,0.067,0.068,0.104,0.104c0.029,0.041,0.068,0.072,0.106,0.106c0.029,0.041,0.068,0.071,0.106,0.104      c0.027,0.04,0.068,0.071,0.104,0.105c0.029,0.041,0.069,0.072,0.106,0.105c0.028,0.041,0.067,0.072,0.104,0.105      c0.029,0.041,0.069,0.072,0.106,0.105c0.028,0.041,0.069,0.071,0.106,0.106c0.026,0.039,0.066,0.069,0.104,0.104      c0.027,0.041,0.068,0.07,0.105,0.105c0.028,0.041,0.068,0.07,0.106,0.105c0.028,0.041,0.067,0.071,0.104,0.104      c0.028,0.041,0.068,0.072,0.105,0.106c0.029,0.041,0.068,0.072,0.105,0.105c0.029,0.041,0.068,0.072,0.106,0.105      c0.028,0.041,0.067,0.07,0.104,0.104c0.029,0.039,0.067,0.07,0.104,0.104c0.028,0.041,0.068,0.072,0.106,0.105      c0.027,0.041,0.068,0.074,0.105,0.107c0.028,0.041,0.068,0.07,0.105,0.105c0.029,0.041,0.068,0.071,0.107,0.104      c0.026,0.041,0.066,0.071,0.104,0.104c0.027,0.041,0.066,0.072,0.105,0.105c0.027,0.041,0.067,0.072,0.105,0.105      c0.027,0.041,0.068,0.071,0.105,0.106c0.028,0.041,0.067,0.071,0.104,0.104c0.028,0.041,0.069,0.072,0.104,0.105      c0.029,0.041,0.07,0.072,0.106,0.105c0.028,0.041,0.069,0.072,0.106,0.106c0.028,0.041,0.067,0.07,0.104,0.104      c0.028,0.041,0.067,0.072,0.106,0.105c0.027,0.041,0.066,0.072,0.104,0.105c0.029,0.041,0.068,0.072,0.105,0.105      c0.029,0.041,0.069,0.071,0.106,0.106c0.028,0.041,0.068,0.071,0.104,0.104c0.029,0.041,0.068,0.072,0.105,0.105      c0.029,0.041,0.068,0.07,0.105,0.105c0.029,0.041,0.07,0.072,0.107,0.106c0.028,0.041,0.066,0.069,0.104,0.104      c0.027,0.041,0.068,0.071,0.105,0.105c0.029,0.041,0.068,0.072,0.105,0.105c0.029,0.041,0.068,0.072,0.105,0.106      c0.028,0.041,0.069,0.072,0.106,0.104c0.028,0.041,0.067,0.071,0.104,0.105c0.027,0.041,0.068,0.072,0.105,0.107      c0.027,0.041,0.068,0.07,0.105,0.104c0.028,0.041,0.067,0.071,0.106,0.105c0.026,0.041,0.067,0.072,0.104,0.105      c0.027,0.041,0.068,0.072,0.105,0.105c0.028,0.041,0.068,0.072,0.105,0.105c0.029,0.041,0.067,0.072,0.104,0.106      c0.029,0.041,0.068,0.069,0.106,0.104c0.027,0.041,0.068,0.072,0.105,0.107c0.029,0.04,0.068,0.07,0.104,0.104      c0.029,0.041,0.07,0.072,0.106,0.106c0.029,0.041,0.068,0.071,0.105,0.106c0.028,0.041,0.069,0.07,0.106,0.104      c0.027,0.041,0.068,0.072,0.105,0.104c0.027,0.041,0.068,0.072,0.105,0.106c0.028,0.041,0.067,0.071,0.104,0.104      c0.028,0.041,0.067,0.072,0.106,0.106c0.027,0.041,0.066,0.071,0.104,0.104c0.029,0.041,0.068,0.072,0.105,0.105      c0.029,0.041,0.069,0.072,0.106,0.106c0.028,0.04,0.067,0.071,0.104,0.106c0.029,0.041,0.069,0.07,0.107,0.104      c0.027,0.041,0.068,0.069,0.104,0.104c0.029,0.041,0.068,0.07,0.105,0.104c0.028,0.041,0.069,0.073,0.105,0.106      c0.029,0.041,0.068,0.071,0.105,0.105c0.029,0.041,0.068,0.07,0.105,0.105c0.029,0.041,0.068,0.071,0.105,0.105      c0.028,0.041,0.067,0.07,0.106,0.105c0.028,0.041,0.067,0.074,0.106,0.106c0.027,0.04,0.066,0.069,0.104,0.104      c0.027,0.043,0.068,0.074,0.107,0.108c0.028,0.041,0.067,0.069,0.104,0.104c0.026,0.041,0.067,0.07,0.104,0.105      c0.029,0.041,0.069,0.072,0.106,0.106c0.028,0.041,0.069,0.071,0.106,0.106c0.027,0.041,0.067,0.07,0.104,0.104      c0.026,0.04,0.067,0.069,0.104,0.104c0.028,0.043,0.068,0.073,0.106,0.108c0.028,0.04,0.067,0.069,0.104,0.104      c0.029,0.041,0.068,0.071,0.105,0.105c0.028,0.041,0.069,0.072,0.105,0.105c0.029,0.041,0.068,0.072,0.105,0.105      c0.029,0.041,0.068,0.072,0.107,0.105c0.027,0.041,0.068,0.072,0.104,0.104c0.028,0.041,0.068,0.071,0.104,0.104      c0.028,0.041,0.067,0.072,0.106,0.107c0.028,0.041,0.068,0.071,0.105,0.105c0.029,0.041,0.068,0.072,0.105,0.104      c0.028,0.041,0.068,0.072,0.105,0.106c0.027,0.041,0.068,0.072,0.105,0.105c0.028,0.041,0.067,0.07,0.105,0.104      c0.027,0.042,0.068,0.073,0.107,0.106c0.026,0.041,0.065,0.069,0.104,0.104c0.027,0.042,0.068,0.072,0.105,0.107      c0.028,0.041,0.068,0.072,0.105,0.105c0.059,0.08,0.127,0.15,0.219,0.203l1.807,1.037c0.332,0.189,0.758,0.074,0.947-0.254      l3.543-6.166l0.938-1.635l-0.051,0.1h0.16l-0.053,0.105h0.158l-0.054,0.104h0.157l-0.053,0.106h0.16l-0.054,0.105h0.159      l-0.055,0.105h0.162l-0.056,0.104h0.157l-0.053,0.104h0.158l-0.053,0.105h0.16l-0.055,0.105h0.16L61,67h5.189      c0.021,0.02,0.041,0.04,0.063,0.059c0.036,0.034,0.066,0.073,0.105,0.105c0.035,0.035,0.067,0.074,0.105,0.107      c0.035,0.033,0.066,0.07,0.104,0.104c0.037,0.036,0.07,0.075,0.109,0.107c0.035,0.035,0.067,0.074,0.105,0.105      c0.035,0.034,0.066,0.073,0.105,0.104c0.034,0.035,0.066,0.074,0.104,0.106c0.036,0.034,0.067,0.073,0.104,0.104      c0.037,0.035,0.068,0.074,0.106,0.106c0.036,0.034,0.067,0.073,0.106,0.105c0.035,0.034,0.066,0.073,0.104,0.104      c0.036,0.035,0.067,0.074,0.104,0.106c0.035,0.034,0.067,0.073,0.104,0.104c0.036,0.034,0.069,0.073,0.106,0.106      c0.037,0.034,0.067,0.073,0.105,0.104c0.036,0.035,0.068,0.074,0.105,0.106c0.035,0.035,0.068,0.073,0.107,0.106      c0.035,0.033,0.064,0.071,0.104,0.104c0.035,0.036,0.07,0.076,0.109,0.109c0.035,0.033,0.065,0.072,0.104,0.104      c0.036,0.035,0.067,0.074,0.106,0.107c0.035,0.033,0.067,0.072,0.105,0.104c0.035,0.034,0.068,0.073,0.105,0.106      s0.067,0.072,0.105,0.104c0.036,0.035,0.068,0.074,0.105,0.107c0.035,0.033,0.066,0.072,0.104,0.104      c0.037,0.037,0.071,0.078,0.11,0.11c0.033,0.032,0.064,0.071,0.103,0.103c0.036,0.035,0.069,0.074,0.106,0.106      c0.035,0.035,0.068,0.073,0.105,0.106c0.037,0.035,0.068,0.073,0.105,0.104c0.037,0.036,0.07,0.075,0.109,0.108      c0.034,0.033,0.065,0.07,0.104,0.104c0.035,0.034,0.068,0.073,0.105,0.105c0.034,0.033,0.066,0.072,0.104,0.104      c0.035,0.035,0.066,0.075,0.105,0.107c0.037,0.035,0.068,0.074,0.106,0.106c0.036,0.033,0.067,0.072,0.106,0.104      c0.035,0.035,0.067,0.074,0.104,0.105c0.036,0.035,0.069,0.074,0.108,0.107c0.033,0.033,0.064,0.07,0.103,0.104      c0.036,0.035,0.069,0.076,0.108,0.108c0.035,0.034,0.066,0.071,0.104,0.104c0.037,0.035,0.069,0.073,0.106,0.106      s0.068,0.072,0.105,0.104c0.037,0.033,0.068,0.072,0.105,0.105c0.037,0.034,0.07,0.074,0.107,0.107      c0.034,0.033,0.065,0.07,0.104,0.104c0.037,0.035,0.07,0.074,0.107,0.107c0.037,0.035,0.069,0.074,0.106,0.106      c0.036,0.033,0.067,0.072,0.104,0.104c0.035,0.033,0.068,0.072,0.105,0.104c0.037,0.035,0.068,0.074,0.105,0.107      s0.067,0.072,0.106,0.105c0.035,0.034,0.067,0.073,0.104,0.104c0.037,0.036,0.068,0.075,0.107,0.106      c0.035,0.033,0.065,0.072,0.104,0.104c0.037,0.036,0.07,0.075,0.107,0.108c0.035,0.033,0.068,0.072,0.105,0.104      c0.035,0.035,0.068,0.074,0.105,0.107c0.034,0.033,0.067,0.072,0.104,0.104c0.036,0.037,0.069,0.076,0.108,0.109      c0.035,0.035,0.068,0.072,0.105,0.104c0.035,0.033,0.064,0.072,0.104,0.104c0.037,0.035,0.068,0.074,0.107,0.107      c0.035,0.034,0.066,0.073,0.105,0.104c0.035,0.034,0.067,0.073,0.104,0.106s0.067,0.072,0.106,0.105      c0.035,0.033,0.068,0.072,0.105,0.105c0.035,0.034,0.068,0.073,0.105,0.106c0.035,0.033,0.066,0.071,0.104,0.104      c0.037,0.035,0.07,0.073,0.107,0.106c0.035,0.033,0.068,0.072,0.105,0.104c0.036,0.035,0.067,0.074,0.106,0.105      c0.034,0.035,0.067,0.074,0.104,0.105c0.036,0.035,0.068,0.074,0.107,0.106c0.035,0.033,0.064,0.072,0.104,0.104      c0.037,0.035,0.068,0.076,0.107,0.109c0.037,0.034,0.068,0.071,0.105,0.104c0.035,0.034,0.067,0.073,0.104,0.104      c0.037,0.034,0.067,0.072,0.106,0.105c0.035,0.035,0.067,0.072,0.105,0.105c0.035,0.034,0.068,0.073,0.105,0.106      c0.035,0.032,0.068,0.071,0.105,0.104c0.034,0.033,0.065,0.072,0.104,0.104c0.035,0.035,0.068,0.076,0.107,0.107      c0.035,0.035,0.066,0.072,0.104,0.104c0.036,0.035,0.069,0.074,0.108,0.106c0.603,0.584,1.492,0.813,2.039,1.129      c0.006,0.017,0.021,0.025,0.023,0.041c0,0,0.002-0.02,0.002-0.025c0.016,0.009,0.023,0.02,0.039,0.027      c0.021,0.035,0.053,0.064,0.063,0.104c0,0,0.002-0.022,0.006-0.051c0.002,0.002,0.006,0.004,0.008,0.006      c0.033,0.05,0.076,0.097,0.094,0.152c0,0,0.002-0.022,0.006-0.062c0.039,0.053,0.082,0.104,0.104,0.165      c0,0,0.002-0.022,0.004-0.058c0.039,0.054,0.082,0.104,0.103,0.164c0,0,0.271-2.801-0.7-3.793      c-0.033-0.041-0.072-0.07-0.107-0.106c-0.031-0.04-0.07-0.069-0.104-0.104c-0.032-0.041-0.071-0.069-0.106-0.105      c-0.03-0.041-0.069-0.071-0.106-0.106c-0.03-0.041-0.069-0.07-0.104-0.104c-0.031-0.041-0.07-0.069-0.105-0.106      c-0.031-0.041-0.07-0.069-0.105-0.104c-0.03-0.041-0.069-0.069-0.104-0.106c-0.032-0.041-0.071-0.07-0.106-0.105      c-0.031-0.039-0.068-0.066-0.104-0.104c-0.033-0.043-0.072-0.072-0.108-0.109c-0.031-0.041-0.07-0.069-0.104-0.104      c-0.033-0.041-0.072-0.07-0.105-0.106c-0.033-0.041-0.072-0.07-0.106-0.104c-0.031-0.041-0.07-0.07-0.104-0.105      c-0.019-0.021-0.037-0.037-0.056-0.059c0.112-0.228,0.133-0.502,0.01-0.738l-0.858-1.652c-0.058-0.107-0.14-0.189-0.229-0.258      c-0.034-0.039-0.065-0.076-0.104-0.105c-0.033-0.037-0.064-0.076-0.105-0.104c-0.033-0.039-0.064-0.078-0.105-0.107      c-0.035-0.038-0.065-0.075-0.106-0.106c-0.033-0.037-0.065-0.074-0.104-0.104c-0.035-0.038-0.064-0.076-0.105-0.105      c-0.035-0.039-0.064-0.075-0.105-0.106c-0.035-0.037-0.065-0.075-0.105-0.104c-0.034-0.039-0.064-0.076-0.105-0.105      c-0.033-0.039-0.066-0.078-0.107-0.107c-0.033-0.037-0.064-0.074-0.104-0.104c-0.006-0.008-0.012-0.018-0.019-0.021      c0.287-0.311,0.47-0.725,0.216-1.186c-0.011-0.018-0.022-0.043-0.037-0.064c-0.166-0.313-0.588-1.119-1.14-2.166      c-0.008-0.018-0.018-0.026-0.021-0.045c-0.045-0.08-0.088-0.16-0.131-0.242c-0.031-0.061-0.064-0.121-0.097-0.186      c-0.026-0.051-0.058-0.102-0.085-0.154c-0.049-0.096-0.096-0.188-0.146-0.281c-0.015-0.028-0.029-0.061-0.047-0.09      c-0.059-0.104-0.113-0.215-0.17-0.322c-0.02-0.03-0.033-0.063-0.05-0.096c-0.052-0.098-0.104-0.197-0.155-0.295h0.03      l0.054,0.105h0.055l0.053,0.105h0.054l0.056,0.104h0.053l0.054,0.106h0.054l0.055,0.105h0.053l0.054,0.104h0.054l0.053,0.106      h0.056L72.42,64.4h0.053l0.054,0.106h0.053l0.056,0.106H72.7l0.053,0.104h0.054l0.055,0.105h0.052l0.055,0.106h0.054      l0.054,0.104h0.053l0.054,0.105h0.055l0.054,0.106h0.053l0.056,0.104h0.054l0.053,0.105h0.054l0.053,0.105h0.056l0.054,0.106      h0.055l0.053,0.104h0.052l0.054,0.106h0.056l0.053,0.104h0.054l0.055,0.105h0.054l0.053,0.105h0.054l0.054,0.105h0.055      l0.054,0.105h0.053l0.055,0.105h0.054l0.054,0.104h0.054l0.053,0.106h0.054l0.055,0.105h0.054L75,67h3c1,0,1-1,1-1v-3      C79,63,78.992,62.551,78.668,62.255z" fill="url(#SVGID_4_)"/></g></g></g></g><g id="Logo"><path d="M24.5,30H18c-1,0.042-1,1-1,1v3c0,0,0,1,1,1h4L24.5,30z" fill="#FFFFFF"/><path d="M21.968,42.688l-1.807-1.035c-0.331-0.188-0.636-0.032-0.68,0.345l-0.313,2.721   c-0.043,0.384,0.179,0.519,0.495,0.302l2.333-1.586C22.313,43.211,22.3,42.878,21.968,42.688z" fill="#FFFFFF"/><path d="M31.874,27.058c0.19-0.33,0.077-0.756-0.255-0.947l-1.805-1.034c-0.332-0.192-0.76-0.075-0.947,0.254   l-2.77,4.826l-3.053,5.315l-2.547,4.438c-0.19,0.331-0.074,0.758,0.255,0.945l1.807,1.037c0.331,0.189,0.757,0.074,0.948-0.254   l3.542-6.166l2.287-3.99L31.874,27.058z" fill="#FFFFFF"/><polygon fill="#FFFFFF" points="31.5,30 29,35 36.5,35 34,30  "/><path d="M41.697,35.54c-0.01-0.017-0.022-0.042-0.036-0.065c-0.167-0.313-0.589-1.119-1.14-2.166   c-0.008-0.017-0.018-0.025-0.021-0.045c-0.044-0.08-0.087-0.16-0.131-0.242c-0.031-0.058-0.064-0.121-0.096-0.184   c-0.027-0.05-0.059-0.102-0.084-0.156c-0.049-0.093-0.099-0.187-0.147-0.281c-0.015-0.028-0.03-0.059-0.047-0.09   c-0.058-0.104-0.114-0.215-0.171-0.321c-0.018-0.032-0.033-0.064-0.049-0.097c-1.274-2.406-2.873-5.367-3.858-6.928   c-1.726-2.73-4.032-7.277-4.677-6.957c-0.9,0.451,1.889,6.226,2.813,8.396c0.924,2.17,4.528,10.487,5.25,10.852   c0.725,0.359,1.004,0.158,1.487-0.041C41.273,37.018,42.141,36.344,41.697,35.54z" fill="#FFFFFF"/><path d="M43.757,39.826l-0.86-1.653c-0.193-0.373-0.65-0.524-1.02-0.339l-1.036,0.533   c-0.366,0.189-0.479,0.631-0.256,0.99l1.088,1.721c0.224,0.354,0.7,0.471,1.052,0.255l0.741-0.442   C43.818,40.682,43.951,40.199,43.757,39.826z" fill="#FFFFFF"/><path d="M43.488,42.216c-0.271,0.263-0.913,0.821-0.135,1.917c0.776,1.098,2.516,1.145,2.744,1.876   C46.098,46.009,46.645,40.438,43.488,42.216z" fill="#FFFFFF"/><path d="M40.5,30H46c1,0.042,1,1,1,1v3c0,0,0,1-1,1h-3L40.5,30z" fill="#FFFFFF"/></g></svg>