<?xml version="1.0" ?><!DOCTYPE svg  PUBLIC '-//W3C//DTD SVG 1.1//EN'  'http://www.w3.org/Graphics/SVG/1.1/DTD/svg11.dtd'><svg enable-background="new 0 0 64 64" height="64px" id="Tumblr" version="1.1" viewBox="0 0 64 64" width="64px" xml:space="preserve" xmlns="http://www.w3.org/2000/svg" xmlns:xlink="http://www.w3.org/1999/xlink"><linearGradient gradientTransform="matrix(1 0 0 -1 -1918 -2480)" gradientUnits="userSpaceOnUse" id="Circle_Shadow_1_" x1="1982.0313" x2="1950.0313" y1="-2543.999" y2="-2511.999"><stop offset="0.3163" style="stop-color:#FFFFFF;stop-opacity:0"/><stop offset="0.3508" style="stop-color:#E9E9E9;stop-opacity:0.0504"/><stop offset="0.4543" style="stop-color:#ACACAC;stop-opacity:0.2018"/><stop offset="0.5572" style="stop-color:#787878;stop-opacity:0.3523"/><stop offset="0.6569" style="stop-color:#4D4D4D;stop-opacity:0.4981"/><stop offset="0.7528" style="stop-color:#2B2B2B;stop-opacity:0.6385"/><stop offset="0.8441" style="stop-color:#131313;stop-opacity:0.7719"/><stop offset="0.9286" style="stop-color:#050505;stop-opacity:0.8956"/><stop offset="1" style="stop-color:#000000"/></linearGradient><polygon enable-background="new    " fill="url(#Circle_Shadow_1_)" id="Circle_Shadow" opacity="0.2" points="64.029,64   64.029,30.059 49,15.029 15.059,48.971 30.088,64 "/><circle cx="32" cy="32" fill="#2C4762" id="Circle" r="24"/><g id="t_shadow"><g><defs><circle cx="32.029" cy="32" id="SVGID_1_" r="24"/></defs><clipPath id="SVGID_2_"><use overflow="visible" xlink:href="#SVGID_1_"/></clipPath><linearGradient gradientTransform="matrix(1 0 0 -1 -274 -299)" gradientUnits="userSpaceOnUse" id="SVGID_3_" x1="349.0947" x2="297.6961" y1="-372.7002" y2="-321.3016"><stop offset="0.5306" style="stop-color:#000000;stop-opacity:0"/><stop offset="0.5446" style="stop-color:#000000;stop-opacity:0.0723"/><stop offset="0.7245" style="stop-color:#000000"/></linearGradient><path clip-path="url(#SVGID_2_)" d="M72.029,71.75    c-0.021,0.021-0.045,0.036-0.065,0.057l-0.04-0.158c-0.021,0.021-0.045,0.037-0.066,0.058l-0.041-0.159    c-0.021,0.021-0.045,0.036-0.065,0.059l-0.04-0.16c-0.021,0.021-0.045,0.037-0.066,0.058l-0.039-0.159    c-0.021,0.021-0.045,0.036-0.066,0.059l-0.04-0.16c-0.021,0.021-0.045,0.035-0.065,0.058l-0.041-0.159    c-0.021,0.021-0.045,0.036-0.065,0.058l-0.04-0.159c-0.021,0.021-0.045,0.036-0.066,0.059l-0.039-0.16    c-0.021,0.021-0.046,0.035-0.066,0.058l-0.04-0.159c-0.021,0.021-0.046,0.036-0.066,0.059l-0.04-0.16    c-0.021,0.021-0.045,0.035-0.066,0.058l-0.039-0.16c-0.021,0.021-0.045,0.036-0.065,0.058l-0.04-0.16    c-0.021,0.021-0.045,0.037-0.066,0.059l-0.039-0.158c-0.021,0.021-0.045,0.035-0.066,0.057l-0.04-0.159    c-0.021,0.021-0.045,0.036-0.065,0.058l-0.041-0.158c-0.021,0.021-0.045,0.035-0.065,0.058l-0.04-0.16    c-0.021,0.021-0.045,0.037-0.066,0.058l-0.039-0.158c-0.021,0.021-0.045,0.035-0.066,0.058l-0.04-0.16    c-0.021,0.021-0.045,0.036-0.065,0.058l-0.041-0.16c-0.021,0.021-0.045,0.037-0.065,0.059l-0.04-0.159    c-0.021,0.021-0.045,0.036-0.066,0.058l-0.04-0.159c-0.021,0.021-0.045,0.036-0.065,0.058l-0.041-0.158    c-0.021,0.021-0.045,0.035-0.065,0.057l-0.04-0.159c-0.021,0.021-0.045,0.036-0.066,0.058l-0.039-0.16    c-0.021,0.021-0.045,0.037-0.066,0.059l-0.04-0.159c-0.021,0.021-0.045,0.036-0.065,0.058l-0.041-0.16    c-0.021,0.021-0.045,0.037-0.065,0.059l-0.04-0.159c-0.021,0.021-0.045,0.036-0.066,0.058l-0.039-0.16    c-0.021,0.021-0.045,0.037-0.066,0.059l-0.04-0.16c-0.021,0.021-0.045,0.036-0.065,0.059l-0.041-0.16    c-0.021,0.021-0.045,0.035-0.066,0.058L68.744,68.6c-0.021,0.021-0.045,0.036-0.066,0.059l-0.04-0.16    c-0.021,0.021-0.045,0.037-0.065,0.059l-0.041-0.16c-0.021,0.021-0.043,0.037-0.064,0.058l-0.04-0.159    c-0.021,0.021-0.045,0.037-0.067,0.059l-0.039-0.16c-0.021,0.021-0.045,0.035-0.065,0.057l-0.04-0.158    c-0.021,0.021-0.045,0.036-0.066,0.059l-0.039-0.16c-0.021,0.021-0.045,0.035-0.066,0.058l-0.04-0.159    c-0.021,0.021-0.045,0.036-0.065,0.059l-0.041-0.16c-0.021,0.021-0.045,0.035-0.065,0.058l-0.04-0.159    c-0.021,0.021-0.045,0.036-0.066,0.059l-0.039-0.16c-0.021,0.021-0.046,0.036-0.066,0.059l-0.04-0.16    c-0.021,0.021-0.046,0.037-0.066,0.058l-0.04-0.159c-0.021,0.021-0.045,0.036-0.066,0.059l-0.039-0.16    c-0.021,0.021-0.045,0.035-0.066,0.058l-0.04-0.159c-0.021,0.021-0.045,0.036-0.065,0.059l-0.041-0.16    c-0.021,0.021-0.045,0.035-0.065,0.058l-0.04-0.159c-0.021,0.021-0.045,0.035-0.066,0.057l-0.039-0.159    c-0.021,0.021-0.045,0.036-0.066,0.058l-0.04-0.158c-0.021,0.021-0.045,0.035-0.065,0.058l-0.041-0.16    c-0.021,0.021-0.045,0.036-0.065,0.058l-0.04-0.158c-0.021,0.021-0.045,0.035-0.066,0.058l-0.039-0.16    c-0.021,0.021-0.046,0.036-0.066,0.058l-0.04-0.16c-0.021,0.021-0.046,0.037-0.066,0.059l-0.04-0.159    c-0.021,0.021-0.045,0.036-0.066,0.058l-0.039-0.159c-0.021,0.021-0.045,0.036-0.066,0.058l-0.04-0.158    c-0.014,0.014-0.026,0.021-0.041,0.034V59.75h6v-4h-0.104v-0.104h-0.107v-0.102H71.71v-0.104h-0.106v-0.103h-0.105v-0.103h-0.105    v-0.103h-0.106v-0.102H71.18V54.93h-0.105v-0.1h-0.106v-0.102h-0.106v-0.104h-0.104v-0.102H70.65V54.42h-0.11v-0.104h-0.106    v-0.102h-0.105v-0.104h-0.105V54.01h-0.106v-0.103H70.01v-0.103h-0.105v-0.103h-0.106V53.6h-0.106v-0.103h-0.105V53.4H69.48    v-0.104h-0.106v-0.102h-0.106v-0.104h-0.105V52.99H69.05v-0.1h-0.106v-0.104h-0.105v-0.104H68.73v-0.102h-0.106V52.48h-0.106    v-0.103h-0.104v-0.103h-0.106v-0.104h-0.105V52.07h-0.105v-0.1h-0.107v-0.103H67.88v-0.103h-0.106v-0.104h-0.105v-0.102h-0.105    v-0.104h-0.106v-0.102H67.35v-0.104h-0.105v-0.104h-0.105v-0.102h-0.106v-0.104h-0.106v-0.102H66.82v-0.104h-0.106v-0.103h-0.106    V50.54h-0.105v-0.103h-0.111v-0.103h-0.106v-0.103h-0.106v-0.104H66.07v-0.102h-0.041V47.75h-0.106v-0.104h-0.106v-0.102H65.71    v-0.104h-0.106V47.34h-0.105v-0.104h-0.105v-0.103h-0.106v-0.102H65.18V46.93h-0.105v-0.1h-0.105v-0.102h-0.105v-0.104h-0.107    v-0.102H64.65V46.42h-0.106v-0.104h-0.104v-0.102h-0.106v-0.104h-0.106V46.01h-0.105v-0.103h-0.107v-0.097h-0.104v-0.104h-0.106    v-0.104h-0.105v-0.103h-0.106V45.4h-0.106v-0.104h-0.105v-0.102h-0.105v-0.104h-0.106v-0.103H63.05v-0.099h-0.106v-0.104h-0.105    v-0.102H62.73v-0.104h-0.106V44.48h-0.106v-0.103h-0.104v-0.103h-0.106v-0.104H62.2V44.07h-0.106v-0.1h-0.105v-0.103h-0.106    v-0.103h-0.104v-0.103h-0.106v-0.103h-0.11v-0.104h-0.106v-0.102H61.35v-0.104h-0.106v-0.104h-0.106v-0.102h-0.105v-0.104h-0.106    v-0.102h-0.106v-0.104h-0.105v-0.103h-0.105V42.54h-0.106v-0.103h-0.11v-0.103h-0.106v-0.103h-0.106v-0.104H60.07v-0.104h-0.106    v-0.102h-0.106V41.82h-0.105v-0.102h-0.105V41.62H59.54v-0.103h-0.106v-0.103h-0.104v-0.103h-0.108v-0.104h-0.107v-0.102h-0.106    v-0.103H58.9v-0.103h-0.105v-0.104h-0.105v-0.102h-0.105v-0.104h-0.105v-0.103h-0.106v-0.103h-0.106v-0.103H58.16v-0.097h-0.105    v-0.103h-0.106v-0.103h-0.106v-0.104h-0.105v-0.102H57.63v-0.1h-0.106v-0.103H57.41v-0.103h-0.105v-0.103h-0.106V39.27h-0.106    v-0.104h-0.105v-0.102H56.88v-0.103h-0.106v-0.103h-0.105v-0.1h-0.105v-0.103h-0.106v-0.103H56.35v-0.103H56.24V38.35h-0.107    v-0.103h-0.105v-0.103H55.92v-0.103h-0.105v-0.103h-0.106v-0.1h-0.104v-0.102h-0.106v-0.104h-0.106v-0.103h-0.105V37.43H55.18    v-0.103h-0.107v-0.103h-0.105v-0.103h-0.105V37.02H54.75v-0.103h-0.105v-0.103h-0.106v-0.103h-0.106v-0.103h-0.105v-0.104h-0.105    V36.41h-0.106v-0.104h-0.106v-0.103h-0.105v-0.103h-0.106V36h-0.106v-0.104H53.58v-0.103h-0.107v-0.103h-0.105v-0.103H53.26V35.49    h-0.105v-0.102h-0.106v-0.104h-0.104v-0.104h-0.106V35.08H52.73v-0.104h-0.106v-0.103H52.52v-0.103h-0.106V34.67h-0.106v-0.104    h-0.105v-0.103H52.09v-0.103h-0.105v-0.103h-0.106v-0.103h-0.106v-0.102h-0.105v-0.104h-0.105V33.85h-0.106v-0.104h-0.106v-0.104    h-0.105V33.54h-0.105v-0.103h-0.107v-0.102h-0.105v-0.104h-0.105V33.13h-0.106v-0.103H50.6v-0.103h-0.104v-0.103h-0.106V32.72    h-0.109v-0.09h-0.105v-0.103h-0.105v-0.103h-0.106v-0.103h-0.104V32.22h-0.106v-0.103h-0.106v-0.102h-0.106v-0.103H49.43V31.81    h-0.105v-0.102h-0.106v-0.103h-0.108v-0.103h-0.105V31.4h-0.105v-0.102h-0.106V31.2h-0.106v-0.102H48.58v-0.103h-0.105v-0.102    h-0.106V30.79h-0.106v-0.103h-0.105v-0.102h-0.105v-0.102h-0.107V30.38h-0.105v-0.1h-0.105v-0.103h-0.105v-0.102H47.52v-0.103    h-0.105v-0.103h-0.105V29.77h-0.105v-0.102h-0.105v-0.102h-0.106v-0.103h-0.107v-0.102H46.77v-0.102h-0.106v-0.103h-0.104v-0.103    H46.45v-0.102h-0.106V28.85h-0.105v-0.102h-0.106v-0.103h-0.106v-0.102H45.92v-0.102h-0.105v-0.103h-0.106v-0.102h-0.106v-0.102    h-0.105v-0.102h-0.105v-0.103h-0.106v-0.103h-0.106v-0.102h-0.104v-0.102h-0.106v-0.103h-0.107v-0.102h-0.105v-0.102h-0.105    v-0.102h-0.105V27.11h-0.107v-0.103h-0.104v-0.102h-0.106v-0.102h-0.106v-0.102h-0.106v-0.103h-0.104V26.5H43.79v-0.102h-0.106    v-0.103h-0.106v-0.103h-0.104V26.09h-0.106v-0.103H43.26v-0.102H43.15v-0.103h-0.105V25.68h-0.105v-0.102h-0.106v-0.103h-0.106    v-0.103h-0.105V25.27h-0.105v-0.102h-0.106V25.07H42.3v-0.102h-0.106v-0.103h-0.105v-0.102h-0.105V24.66h-0.105v-0.102H41.77    v-0.103h-0.105v-0.102h-0.105v-0.102h-0.105V24.15h-0.107v-0.103h-0.104v-0.102H41.13v-0.103h-0.106V23.74h-0.105v-0.103h-0.105    v-0.102h-0.106v-0.102H40.6V23.33H40.49v-0.102h-0.105v-0.102h-0.105v-0.102h-0.106v-0.103h-0.106v-0.102h-0.105V22.72h-0.105    v-0.102h-0.106v-0.103h-0.108v-0.102h-0.106v-0.102h-0.106v-0.102H39.32v-0.103h-0.106v-0.102h-0.106v-0.102h-0.105V21.8h-0.105    v-0.102H38.79v-0.103h-0.104v-0.102h-0.106V21.39h-0.106v-0.1h-0.105v-0.103H38.26v-0.102H38.15v-0.102h-0.106v-0.102h-0.106    v-0.103h-0.105v-0.102h-0.105v-0.103H37.62v-0.102h-0.106V20.37h-0.106v-0.102h-0.105v-0.102h-0.106v-0.103H37.09v-0.102h-0.105    V19.86h-0.106v-0.102h-0.106v-0.103H36.66v-0.102h-0.105V19.45h-0.106v-0.102h-0.106v-0.103h-0.105v-0.102h-0.105v-0.102h-0.107    V18.94h-0.105v-0.103h-0.105v-0.102h-0.106v-0.102h-0.104v-0.102h-0.107V18.43h-0.105v-0.103h-0.105v-0.102h-0.105v-0.103H35.07    V18.02h-0.105v-0.103h-0.107v-0.102h-0.104v-0.102h-0.106v-0.102h-0.105V17.51h-0.105v-0.102h-0.106v-0.103h-0.106v-0.102h-0.105    V17.1H34v-0.102h-5c0,0,0.018,0.839,0,1c-0.257,2.339,0,5-6,7v4h0.106V29.1h0.106v0.103h0.106v0.102h0.107v0.102h0.105v0.102    h0.107v0.103h0.106v0.102h0.106v0.102h0.106v0.102h0.106v0.103h0.107v0.103h0.106v0.103h0.106v0.102h0.106v0.102h0.107v0.102    h0.105v0.102h0.107v0.103h0.106v0.102h0.106v0.103h0.106v0.102h0.106v0.102h0.106v0.103h0.107v0.103h0.106v0.102h0.106v0.103    h0.107v0.102h0.106v0.102h0.107v0.103h0.106v0.102h0.106v0.102h0.106v0.102h0.106v0.102h0.106v0.102h0.107v0.103h0.106v0.103    h0.107v0.103h0.106v0.103h0.106v0.103h0.107v0.103h0.106v0.103h0.106v0.102h0.106v0.104h0.106v0.104h0.106v0.102h0.106v0.104    h0.106v0.102H28v5.301c0,2.117,0.189,4.79,1.968,6.447c0.036,0.036,0.072,0.07,0.109,0.105c0.034,0.033,0.068,0.065,0.104,0.099    c0.035,0.034,0.07,0.069,0.106,0.103c0.036,0.035,0.071,0.07,0.108,0.104c0.034,0.034,0.07,0.067,0.105,0.103    c0.035,0.033,0.071,0.068,0.108,0.104c0.034,0.033,0.068,0.066,0.104,0.099c0.036,0.036,0.072,0.07,0.109,0.104    c0.034,0.035,0.069,0.068,0.105,0.102c0.035,0.034,0.07,0.068,0.106,0.102c0.035,0.035,0.07,0.068,0.105,0.103    c0.036,0.035,0.071,0.069,0.108,0.104c0.035,0.033,0.07,0.067,0.105,0.102c0.035,0.035,0.071,0.068,0.107,0.104    c0.035,0.034,0.07,0.068,0.106,0.103c0.036,0.035,0.071,0.069,0.108,0.104c0.034,0.032,0.068,0.065,0.104,0.099    c0.035,0.034,0.071,0.069,0.107,0.104c0.035,0.034,0.07,0.068,0.106,0.103c0.036,0.035,0.072,0.07,0.108,0.104    c0.034,0.033,0.069,0.067,0.104,0.1c0.036,0.037,0.072,0.07,0.109,0.105c0.034,0.033,0.069,0.066,0.104,0.1    c0.035,0.035,0.07,0.068,0.106,0.104c0.035,0.034,0.069,0.068,0.105,0.104c0.035,0.033,0.07,0.067,0.105,0.102    c0.035,0.035,0.07,0.068,0.107,0.104c0.034,0.034,0.069,0.068,0.105,0.103c0.035,0.034,0.07,0.067,0.106,0.103    c0.034,0.034,0.07,0.068,0.104,0.103c0.035,0.034,0.072,0.067,0.107,0.103c0.034,0.034,0.069,0.067,0.104,0.102    c0.034,0.033,0.069,0.068,0.106,0.103c0.034,0.035,0.07,0.069,0.107,0.104c0.035,0.033,0.068,0.066,0.105,0.101    c0.033,0.034,0.068,0.067,0.104,0.101c0.036,0.035,0.072,0.07,0.109,0.104c0.033,0.034,0.068,0.067,0.104,0.103    c0.035,0.033,0.07,0.067,0.106,0.102c0.033,0.035,0.07,0.068,0.105,0.104c0.034,0.033,0.068,0.066,0.104,0.1    c0.037,0.035,0.074,0.072,0.111,0.107c0.034,0.032,0.068,0.065,0.104,0.098c0.034,0.035,0.069,0.07,0.106,0.104    c0.034,0.034,0.069,0.068,0.105,0.104c0.035,0.033,0.07,0.068,0.105,0.102c0.035,0.035,0.071,0.069,0.108,0.104    c0.034,0.035,0.067,0.067,0.104,0.101c0.035,0.035,0.069,0.069,0.105,0.103c0.035,0.035,0.071,0.07,0.107,0.104    c0.035,0.034,0.07,0.067,0.105,0.103c0.036,0.034,0.072,0.068,0.109,0.104c0.033,0.033,0.066,0.064,0.101,0.098    c0.036,0.036,0.072,0.071,0.109,0.105c0.036,0.035,0.071,0.068,0.108,0.104c0.033,0.033,0.067,0.066,0.104,0.1    c0.035,0.035,0.07,0.068,0.105,0.104c0.037,0.035,0.072,0.069,0.108,0.104c0.035,0.035,0.069,0.067,0.104,0.102    c0.035,0.035,0.07,0.068,0.106,0.104c0.035,0.035,0.071,0.068,0.106,0.104c0.035,0.034,0.07,0.066,0.104,0.1    c0.035,0.035,0.07,0.069,0.107,0.104c0.034,0.034,0.069,0.067,0.104,0.103c0.035,0.034,0.071,0.068,0.108,0.104    c0.034,0.033,0.069,0.068,0.104,0.102c0.035,0.035,0.07,0.069,0.107,0.104c0.034,0.033,0.068,0.066,0.104,0.101    c0.035,0.035,0.07,0.069,0.107,0.104c0.034,0.033,0.068,0.066,0.104,0.101c0.035,0.035,0.072,0.07,0.109,0.104    c0.033,0.033,0.068,0.066,0.104,0.1c0.037,0.036,0.074,0.072,0.111,0.107c0.033,0.031,0.066,0.063,0.102,0.096    c0.035,0.036,0.072,0.072,0.111,0.107c0.033,0.033,0.067,0.065,0.104,0.099c0.033,0.034,0.068,0.067,0.105,0.103    c0.034,0.034,0.07,0.069,0.106,0.104c0.035,0.033,0.069,0.066,0.104,0.101c0.035,0.035,0.071,0.069,0.107,0.104    c0.035,0.035,0.071,0.068,0.107,0.104c0.035,0.033,0.068,0.066,0.104,0.1c0.034,0.035,0.069,0.068,0.104,0.103    c0.035,0.035,0.072,0.07,0.109,0.104c0.033,0.033,0.067,0.066,0.104,0.1c0.035,0.036,0.072,0.07,0.109,0.105    c0.033,0.033,0.068,0.066,0.104,0.1c0.035,0.035,0.07,0.07,0.107,0.104c0.035,0.033,0.069,0.067,0.105,0.102    c0.035,0.035,0.07,0.068,0.107,0.104c0.033,0.033,0.068,0.067,0.104,0.1c0.036,0.037,0.072,0.072,0.109,0.105    c0.033,0.033,0.065,0.065,0.101,0.098c0.037,0.035,0.074,0.072,0.112,0.106c0.033,0.034,0.068,0.067,0.104,0.101    c0.035,0.035,0.07,0.069,0.107,0.104c0.033,0.034,0.068,0.066,0.104,0.1c0.035,0.035,0.072,0.07,0.109,0.105    c0.034,0.034,0.068,0.066,0.105,0.102c0.033,0.033,0.068,0.067,0.104,0.102c0.034,0.033,0.069,0.068,0.104,0.102    c0.037,0.036,0.074,0.071,0.111,0.106c0.032,0.032,0.066,0.065,0.102,0.097c0.035,0.036,0.072,0.07,0.107,0.105    c0.035,0.033,0.071,0.068,0.107,0.103c0.033,0.033,0.068,0.065,0.104,0.101s0.07,0.068,0.106,0.103    c0.036,0.036,0.071,0.071,0.108,0.104c0.035,0.035,0.071,0.068,0.106,0.103c0.034,0.033,0.067,0.065,0.103,0.099    c0.035,0.035,0.071,0.069,0.108,0.104c0.035,0.034,0.071,0.067,0.106,0.103c0.035,0.034,0.07,0.068,0.105,0.103    s0.069,0.067,0.105,0.101c0.035,0.035,0.07,0.07,0.107,0.104c0.034,0.035,0.07,0.068,0.106,0.103    c0.034,0.035,0.071,0.069,0.106,0.104c0.033,0.033,0.066,0.063,0.102,0.097c0.035,0.036,0.074,0.071,0.111,0.108    c0.035,0.033,0.068,0.065,0.104,0.1c0.034,0.034,0.069,0.068,0.106,0.104c0.033,0.032,0.067,0.065,0.104,0.1    c0.036,0.035,0.074,0.072,0.111,0.107c0.033,0.031,0.066,0.064,0.102,0.096c0.036,0.037,0.072,0.072,0.109,0.105    c0.033,0.034,0.07,0.068,0.104,0.102c0.036,0.035,0.072,0.07,0.109,0.104c0.032,0.033,0.067,0.066,0.104,0.099    c0.034,0.035,0.069,0.069,0.106,0.104c0.034,0.033,0.067,0.065,0.104,0.101c0.035,0.035,0.073,0.071,0.111,0.106    c0.033,0.033,0.066,0.063,0.102,0.097c0.035,0.036,0.072,0.071,0.109,0.106c0.034,0.032,0.068,0.065,0.104,0.101    c0.037,0.034,0.072,0.068,0.109,0.104c0.034,0.033,0.068,0.066,0.104,0.1c0.034,0.035,0.069,0.069,0.106,0.104    c0.034,0.035,0.069,0.068,0.106,0.104c0.034,0.035,0.071,0.068,0.106,0.104c0.035,0.033,0.068,0.066,0.104,0.101    c0.035,0.035,0.069,0.069,0.106,0.104c0.035,0.033,0.069,0.065,0.104,0.1c0.035,0.035,0.069,0.068,0.106,0.104    c0.035,0.035,0.072,0.07,0.108,0.104c0.033,0.032,0.067,0.065,0.103,0.099c0.035,0.035,0.072,0.07,0.111,0.105    c0.033,0.033,0.068,0.066,0.104,0.101c0.033,0.034,0.068,0.067,0.105,0.103c0.034,0.033,0.068,0.068,0.104,0.102    c0.036,0.035,0.071,0.069,0.108,0.104c0.033,0.035,0.068,0.067,0.104,0.102c0.036,0.035,0.072,0.07,0.109,0.104    c0.033,0.035,0.067,0.067,0.104,0.102c0.035,0.035,0.07,0.068,0.107,0.104c0.033,0.033,0.067,0.065,0.104,0.099    c0.036,0.036,0.073,0.071,0.109,0.106c0.035,0.033,0.068,0.065,0.104,0.1c0.035,0.033,0.07,0.068,0.106,0.103    c0.035,0.035,0.07,0.069,0.107,0.104c0.034,0.033,0.069,0.066,0.105,0.102c0.035,0.034,0.07,0.068,0.105,0.102    c0.035,0.035,0.07,0.068,0.106,0.104c0.035,0.035,0.069,0.069,0.106,0.104c0.035,0.035,0.07,0.068,0.106,0.103    c0.034,0.034,0.07,0.067,0.104,0.103c0.035,0.033,0.069,0.066,0.105,0.101c0.036,0.036,0.072,0.071,0.109,0.104    c0.033,0.033,0.068,0.066,0.104,0.1c0.035,0.035,0.07,0.068,0.106,0.104s0.071,0.07,0.108,0.104    c0.034,0.032,0.068,0.065,0.104,0.099c0.036,0.036,0.071,0.071,0.108,0.105c0.035,0.033,0.068,0.066,0.104,0.1    c0.035,0.034,0.069,0.068,0.104,0.102c0.037,0.037,0.074,0.07,0.11,0.105c0.034,0.033,0.067,0.064,0.103,0.1    c0.037,0.035,0.072,0.069,0.111,0.104c0.032,0.033,0.066,0.065,0.103,0.099c0.036,0.036,0.073,0.071,0.11,0.105    c0.032,0.033,0.065,0.064,0.101,0.097c0.036,0.037,0.073,0.073,0.112,0.108c0.033,0.033,0.066,0.064,0.102,0.098    c0.037,0.036,0.074,0.072,0.111,0.107c0.033,0.031,0.065,0.063,0.101,0.096c0.036,0.036,0.074,0.072,0.112,0.107    c0.033,0.033,0.066,0.065,0.103,0.1c0.035,0.034,0.07,0.068,0.106,0.104c0.035,0.035,0.072,0.068,0.107,0.104    c0.035,0.034,0.069,0.066,0.105,0.102c0.035,0.035,0.072,0.069,0.107,0.104c0.034,0.033,0.068,0.066,0.104,0.099    c0.035,0.035,0.069,0.069,0.106,0.103c0.035,0.037,0.071,0.072,0.108,0.105c0.034,0.033,0.067,0.066,0.104,0.1    c0.035,0.035,0.07,0.07,0.106,0.104c0.035,0.034,0.071,0.068,0.106,0.104c0.035,0.033,0.07,0.066,0.104,0.1    c0.035,0.035,0.071,0.07,0.108,0.104c0.033,0.033,0.066,0.066,0.104,0.1c0.036,0.035,0.073,0.072,0.111,0.107    c0.033,0.032,0.066,0.063,0.102,0.097c0.035,0.036,0.072,0.071,0.11,0.106c0.033,0.032,0.067,0.065,0.103,0.098    c0.035,0.037,0.072,0.072,0.11,0.106c0.033,0.033,0.067,0.065,0.103,0.099c0.037,0.035,0.074,0.072,0.111,0.106    c0.033,0.033,0.066,0.063,0.102,0.097c0.037,0.037,0.074,0.073,0.113,0.109c0.031,0.031,0.064,0.063,0.099,0.094    c0.036,0.036,0.073,0.072,0.11,0.107c0.035,0.033,0.068,0.066,0.104,0.1c0.035,0.036,0.071,0.07,0.108,0.105    c0.033,0.031,0.066,0.064,0.102,0.097c0.038,0.037,0.076,0.074,0.115,0.11c0.031,0.031,0.064,0.063,0.097,0.093    c0.036,0.036,0.073,0.072,0.111,0.106c0.034,0.035,0.069,0.068,0.104,0.103s0.07,0.067,0.106,0.103    c0.034,0.035,0.071,0.068,0.106,0.104c0.034,0.033,0.069,0.066,0.104,0.1c0.035,0.035,0.071,0.07,0.106,0.104    s0.071,0.067,0.107,0.103c0.034,0.033,0.068,0.067,0.105,0.102c0.035,0.035,0.069,0.068,0.106,0.104    c0.034,0.034,0.069,0.067,0.104,0.102c0.035,0.035,0.072,0.068,0.107,0.104c0.035,0.034,0.069,0.068,0.105,0.102    c0.033,0.035,0.068,0.067,0.104,0.102c0.036,0.036,0.072,0.07,0.109,0.105c0.032,0.033,0.067,0.064,0.103,0.099    c0.035,0.035,0.071,0.069,0.108,0.104c0.034,0.034,0.069,0.067,0.104,0.103c0.035,0.034,0.069,0.067,0.105,0.101    c0.035,0.035,0.07,0.07,0.107,0.104c0.035,0.034,0.07,0.067,0.106,0.103c0.034,0.034,0.069,0.067,0.104,0.102    c0.035,0.035,0.072,0.07,0.109,0.104c0.033,0.033,0.067,0.066,0.104,0.1c0.035,0.035,0.07,0.069,0.107,0.104    c0.034,0.034,0.07,0.068,0.106,0.102c0.034,0.035,0.069,0.067,0.104,0.102c0.034,0.035,0.07,0.07,0.107,0.104    c0.034,0.034,0.07,0.068,0.105,0.103s0.069,0.067,0.105,0.103c0.035,0.034,0.07,0.068,0.107,0.104    c0.033,0.033,0.068,0.066,0.104,0.1c0.036,0.036,0.072,0.071,0.108,0.105c0.035,0.033,0.068,0.066,0.104,0.099    c0.035,0.035,0.07,0.069,0.106,0.103c0.035,0.037,0.072,0.071,0.109,0.105c0.033,0.033,0.067,0.066,0.104,0.1    c0.035,0.035,0.07,0.068,0.105,0.103c0.037,0.036,0.072,0.071,0.109,0.104c0.034,0.034,0.068,0.067,0.104,0.102    c0.035,0.033,0.071,0.068,0.107,0.104c0.034,0.032,0.068,0.065,0.104,0.098c0.037,0.037,0.072,0.072,0.109,0.106    c0.035,0.034,0.07,0.067,0.106,0.103c0.032,0.033,0.067,0.066,0.104,0.099c0.035,0.036,0.071,0.07,0.108,0.104    c0.035,0.035,0.07,0.068,0.107,0.104c0.032,0.033,0.066,0.066,0.103,0.1c0.037,0.035,0.073,0.071,0.112,0.107    c0.033,0.032,0.064,0.063,0.1,0.096c0.037,0.036,0.075,0.072,0.113,0.108c0.033,0.032,0.066,0.063,0.102,0.097    c0.034,0.034,0.069,0.068,0.105,0.102c0.035,0.037,0.072,0.072,0.109,0.106c0.034,0.033,0.068,0.066,0.104,0.099    c0.034,0.035,0.069,0.07,0.106,0.104c0.035,0.036,0.071,0.071,0.108,0.105c0.034,0.033,0.067,0.065,0.104,0.099    c0.035,0.035,0.07,0.069,0.107,0.104c0.034,0.033,0.07,0.067,0.105,0.102s0.068,0.066,0.104,0.102s0.072,0.07,0.108,0.104    c0.035,0.032,0.068,0.065,0.104,0.099c0.035,0.035,0.07,0.069,0.106,0.104c0.035,0.034,0.072,0.069,0.109,0.104    c0.033,0.033,0.067,0.066,0.104,0.099c0.035,0.037,0.072,0.072,0.109,0.105c0.032,0.033,0.066,0.064,0.103,0.1    s0.071,0.069,0.108,0.104c0.035,0.034,0.069,0.068,0.105,0.102c0.034,0.034,0.068,0.067,0.105,0.103    c0.035,0.035,0.07,0.069,0.107,0.104c0.034,0.033,0.069,0.067,0.105,0.102c0.033,0.033,0.068,0.066,0.104,0.101    c0.036,0.036,0.074,0.071,0.112,0.107c0.032,0.032,0.065,0.063,0.099,0.095c0.037,0.036,0.074,0.072,0.112,0.107    c0.034,0.033,0.067,0.066,0.104,0.1c0.035,0.034,0.068,0.068,0.104,0.102c0.035,0.035,0.071,0.069,0.108,0.104    c0.033,0.033,0.068,0.065,0.104,0.101c0.036,0.035,0.072,0.069,0.107,0.104c0.035,0.032,0.07,0.065,0.105,0.101    c0.034,0.033,0.069,0.067,0.105,0.102c0.035,0.035,0.07,0.07,0.107,0.104c0.034,0.034,0.07,0.068,0.106,0.102    c1.036,1.027,2.643,1.697,5.137,1.654c2.205-0.039,5.457-1.205,6-2L72.029,71.75z" enable-background="new    " fill="url(#SVGID_3_)" opacity="0.3"/></g></g><path d="M40,40.999c-1,1-2.203,1-3,1c-2,0-2.979-1.729-3-3v-10h6v-4h-6v-8h-5c0,0,0.018,0.839,0,1  c-0.257,2.339,0,5-6,7v4h5v10c0,3.354,0.465,8.112,7,8c2.205-0.038,5.457-1.204,6-2L40,40.999z" fill="#FFFFFF" id="t_1_"/></svg>