<?xml version="1.0" ?><!DOCTYPE svg  PUBLIC '-//W3C//DTD SVG 1.1//EN'  'http://www.w3.org/Graphics/SVG/1.1/DTD/svg11.dtd'><svg enable-background="new 0 0 64 64" height="64px" id="Cloud" version="1.1" viewBox="0 0 64 64" width="64px" xml:space="preserve" xmlns="http://www.w3.org/2000/svg" xmlns:xlink="http://www.w3.org/1999/xlink"><linearGradient gradientTransform="matrix(1 0 0 1 -548 -727)" gradientUnits="userSpaceOnUse" id="Circle_Shadow_1_" x1="612" x2="580" y1="790.8271" y2="758.8271"><stop offset="0.3163" style="stop-color:#FFFFFF;stop-opacity:0"/><stop offset="0.3508" style="stop-color:#E9E9E9;stop-opacity:0.0504"/><stop offset="0.4543" style="stop-color:#ACACAC;stop-opacity:0.2018"/><stop offset="0.5572" style="stop-color:#787878;stop-opacity:0.3523"/><stop offset="0.6569" style="stop-color:#4D4D4D;stop-opacity:0.4981"/><stop offset="0.7528" style="stop-color:#2B2B2B;stop-opacity:0.6385"/><stop offset="0.8441" style="stop-color:#131313;stop-opacity:0.7719"/><stop offset="0.9286" style="stop-color:#050505;stop-opacity:0.8956"/><stop offset="1" style="stop-color:#000000"/></linearGradient><polygon enable-background="new    " fill="url(#Circle_Shadow_1_)" id="Circle_Shadow" opacity="0.2" points="64,63.827 64,29.886   48.971,14.856 15.029,48.798 30.059,63.827 "/><circle cx="32" cy="31.828" fill="#1F86CC" id="Circle" r="24"/><g id="Cloud_Shadow"><g><g><defs><circle cx="32" cy="31.827" id="SVGID_1_" r="24"/></defs><clipPath id="SVGID_2_"><use overflow="visible" xlink:href="#SVGID_1_"/></clipPath><linearGradient gradientTransform="matrix(1 0 0 1 -548 -727)" gradientUnits="userSpaceOnUse" id="SVGID_3_" x1="612.3584" x2="578.5513" y1="806.5703" y2="748.0146"><stop offset="0.602" style="stop-color:#231F20;stop-opacity:0"/><stop offset="1" style="stop-color:#231F20"/></linearGradient><path clip-path="url(#SVGID_2_)" d="M77.02,61.926     c-0.035-0.037-0.074-0.074-0.109-0.111c-0.034-0.035-0.07-0.068-0.104-0.104c-0.033-0.034-0.068-0.066-0.103-0.102     c-0.036-0.039-0.073-0.073-0.11-0.109c-0.033-0.037-0.07-0.073-0.107-0.107c-0.033-0.035-0.068-0.068-0.104-0.104     c-0.032-0.036-0.069-0.07-0.104-0.104c-0.034-0.037-0.07-0.072-0.106-0.106c-0.034-0.036-0.069-0.071-0.106-0.106     c-0.032-0.035-0.068-0.07-0.104-0.104c-0.035-0.036-0.07-0.071-0.105-0.106c-0.035-0.034-0.069-0.069-0.105-0.104     c-0.034-0.036-0.07-0.071-0.105-0.106c-0.035-0.036-0.069-0.069-0.105-0.106c-0.034-0.034-0.07-0.069-0.105-0.104     c-0.033-0.036-0.07-0.069-0.105-0.104c-0.035-0.037-0.071-0.071-0.107-0.107c-0.033-0.036-0.07-0.07-0.104-0.105     c-0.033-0.035-0.067-0.066-0.103-0.103c-0.035-0.037-0.072-0.073-0.109-0.108c-0.034-0.037-0.069-0.069-0.105-0.105     c-0.033-0.036-0.068-0.071-0.105-0.105c-0.033-0.035-0.069-0.07-0.105-0.105c-0.033-0.035-0.068-0.07-0.104-0.104     c-0.037-0.037-0.072-0.074-0.108-0.108c-0.035-0.037-0.071-0.07-0.106-0.105c-0.033-0.034-0.067-0.067-0.104-0.104     c-0.035-0.037-0.071-0.071-0.107-0.107c-0.033-0.036-0.07-0.069-0.104-0.104c-0.034-0.037-0.07-0.07-0.106-0.106     c-0.031-0.034-0.066-0.069-0.103-0.104c-0.037-0.036-0.076-0.075-0.114-0.112c-0.031-0.033-0.064-0.065-0.1-0.099     c-0.036-0.037-0.071-0.073-0.108-0.108c-0.034-0.036-0.069-0.069-0.104-0.106c-0.035-0.035-0.07-0.07-0.106-0.105     c-0.034-0.035-0.069-0.069-0.106-0.105c-0.033-0.035-0.069-0.07-0.104-0.104c-0.035-0.037-0.071-0.071-0.106-0.107     c-0.033-0.034-0.066-0.065-0.103-0.102c-0.036-0.037-0.073-0.074-0.11-0.111c-0.033-0.034-0.068-0.069-0.104-0.104     c-0.035-0.036-0.07-0.071-0.105-0.105c-0.035-0.036-0.07-0.07-0.107-0.105c-0.032-0.035-0.067-0.068-0.104-0.104     c-0.035-0.036-0.07-0.071-0.107-0.106c-0.032-0.035-0.069-0.07-0.104-0.105c-0.035-0.037-0.074-0.073-0.111-0.109     c-0.031-0.035-0.064-0.068-0.101-0.102c-0.035-0.037-0.071-0.072-0.108-0.107c-0.033-0.037-0.068-0.07-0.105-0.106     c-0.033-0.035-0.068-0.07-0.105-0.105c-0.035-0.036-0.072-0.073-0.108-0.108c-0.031-0.033-0.063-0.064-0.099-0.098     c-0.037-0.039-0.074-0.076-0.112-0.113c-0.033-0.035-0.068-0.068-0.104-0.104c-0.033-0.036-0.07-0.071-0.105-0.106     c-0.034-0.035-0.069-0.068-0.105-0.105c-0.033-0.035-0.07-0.07-0.105-0.105c-0.033-0.035-0.07-0.069-0.105-0.104     c-0.033-0.035-0.068-0.069-0.104-0.104c-0.034-0.037-0.071-0.07-0.106-0.107c-0.036-0.037-0.073-0.071-0.108-0.107     c-0.035-0.035-0.068-0.068-0.104-0.104c-0.035-0.037-0.069-0.07-0.106-0.106c-0.033-0.036-0.068-0.071-0.105-0.106     c-0.035-0.034-0.07-0.071-0.105-0.106c-0.035-0.034-0.068-0.067-0.104-0.103c-0.037-0.038-0.074-0.073-0.11-0.11     c-0.034-0.034-0.067-0.067-0.103-0.103c-0.035-0.037-0.072-0.071-0.109-0.108c-0.033-0.035-0.068-0.069-0.105-0.104     c-0.032-0.037-0.069-0.07-0.104-0.105c-0.034-0.037-0.069-0.07-0.106-0.105c-0.033-0.037-0.068-0.072-0.105-0.106     c-0.035-0.035-0.07-0.072-0.107-0.106c-0.033-0.035-0.067-0.07-0.104-0.104c-0.033-0.035-0.068-0.07-0.104-0.104     c-0.037-0.037-0.072-0.072-0.109-0.109c-0.033-0.035-0.07-0.07-0.105-0.105c-0.033-0.035-0.07-0.07-0.105-0.105     c-0.034-0.034-0.069-0.067-0.104-0.104c-0.036-0.039-0.073-0.074-0.11-0.109c-0.032-0.035-0.065-0.067-0.102-0.104     c-0.035-0.037-0.072-0.074-0.109-0.109c-0.035-0.035-0.069-0.07-0.104-0.104c-0.035-0.035-0.069-0.07-0.106-0.104     c-0.033-0.037-0.068-0.07-0.105-0.106c-0.033-0.036-0.07-0.071-0.105-0.106c-0.033-0.035-0.069-0.068-0.104-0.104     c-0.033-0.034-0.067-0.067-0.103-0.104c-0.039-0.039-0.078-0.078-0.117-0.115c-0.03-0.033-0.063-0.065-0.1-0.1     c-0.033-0.037-0.07-0.072-0.107-0.107c-0.032-0.037-0.069-0.069-0.104-0.106c-0.034-0.035-0.069-0.069-0.106-0.104     c-0.034-0.037-0.07-0.071-0.105-0.107c-0.033-0.033-0.064-0.066-0.1-0.1c-0.038-0.039-0.077-0.078-0.115-0.115     c-0.033-0.035-0.068-0.068-0.104-0.104c-0.035-0.034-0.07-0.069-0.105-0.104s-0.07-0.07-0.105-0.105s-0.07-0.068-0.104-0.104     c-0.035-0.037-0.072-0.073-0.109-0.108c-0.032-0.034-0.067-0.069-0.104-0.104c-0.035-0.036-0.072-0.073-0.109-0.109     c-0.032-0.033-0.067-0.066-0.103-0.102c-0.035-0.037-0.071-0.072-0.108-0.107c-0.032-0.037-0.069-0.07-0.104-0.105     c-0.035-0.037-0.07-0.072-0.105-0.106c-0.035-0.037-0.072-0.072-0.109-0.106c-0.031-0.035-0.065-0.068-0.1-0.103     c-0.037-0.037-0.072-0.072-0.109-0.109c-0.035-0.034-0.07-0.069-0.106-0.106c-0.033-0.034-0.068-0.068-0.104-0.104     c-0.035-0.035-0.07-0.07-0.106-0.105c-0.033-0.036-0.07-0.071-0.105-0.106c-0.034-0.034-0.069-0.069-0.106-0.104     c-0.033-0.035-0.068-0.069-0.104-0.104c-0.035-0.037-0.068-0.071-0.105-0.106c-0.035-0.037-0.072-0.073-0.108-0.109     c-0.033-0.035-0.067-0.068-0.104-0.104c-0.033-0.037-0.069-0.072-0.104-0.106c-0.035-0.036-0.069-0.071-0.106-0.106     c-0.033-0.035-0.069-0.068-0.105-0.104c-0.033-0.036-0.07-0.07-0.105-0.104c-0.035-0.037-0.072-0.074-0.109-0.109     c-0.032-0.034-0.067-0.066-0.102-0.103c-0.033-0.034-0.068-0.069-0.104-0.104c-0.036-0.037-0.071-0.073-0.107-0.108     c-0.035-0.037-0.07-0.072-0.107-0.105c-0.033-0.036-0.068-0.071-0.105-0.106c-0.033-0.035-0.068-0.069-0.104-0.104     c-0.036-0.037-0.074-0.073-0.111-0.11c-0.032-0.032-0.064-0.063-0.098-0.099c-0.036-0.037-0.073-0.072-0.108-0.108     c-0.037-0.037-0.073-0.073-0.108-0.108c-0.033-0.035-0.068-0.068-0.104-0.103c-0.033-0.036-0.067-0.071-0.104-0.106     c-0.035-0.037-0.071-0.072-0.108-0.107c-0.035-0.037-0.071-0.072-0.106-0.106c-0.033-0.034-0.066-0.067-0.103-0.104     c-0.037-0.036-0.074-0.073-0.11-0.109c-0.035-0.034-0.07-0.068-0.104-0.104c-0.034-0.035-0.07-0.07-0.106-0.105     c-0.032-0.035-0.069-0.07-0.104-0.105c-0.034-0.035-0.07-0.07-0.106-0.105c-0.034-0.036-0.071-0.07-0.106-0.105     c-0.031-0.033-0.064-0.066-0.1-0.101c-0.037-0.04-0.078-0.079-0.117-0.117c-0.033-0.032-0.064-0.065-0.1-0.1     c-0.035-0.036-0.07-0.072-0.107-0.107c-0.035-0.036-0.07-0.069-0.105-0.106c-0.034-0.035-0.069-0.07-0.105-0.105     c-0.033-0.035-0.068-0.068-0.104-0.104c-0.035-0.036-0.071-0.071-0.107-0.107c-0.034-0.037-0.073-0.072-0.11-0.109     c-0.031-0.033-0.064-0.065-0.099-0.1c-0.036-0.038-0.073-0.074-0.11-0.111c-0.035-0.035-0.07-0.068-0.105-0.104     c-0.033-0.036-0.07-0.071-0.105-0.105c-0.033-0.035-0.069-0.069-0.105-0.105c-0.034-0.036-0.068-0.071-0.105-0.105     c-0.033-0.035-0.069-0.07-0.104-0.104c-0.035-0.037-0.071-0.072-0.106-0.107c-0.035-0.034-0.07-0.069-0.105-0.104     c-0.033-0.035-0.068-0.07-0.104-0.104c-0.035-0.035-0.07-0.072-0.107-0.107c-0.035-0.036-0.072-0.071-0.108-0.107     c-0.032-0.033-0.067-0.066-0.103-0.104c-0.035-0.036-0.072-0.071-0.109-0.108c-0.033-0.035-0.068-0.067-0.104-0.104     c-0.034-0.035-0.07-0.07-0.107-0.106c-0.034-0.035-0.07-0.069-0.105-0.104c-0.035-0.037-0.069-0.072-0.105-0.106     c-0.035-0.036-0.068-0.071-0.105-0.106c-0.033-0.035-0.07-0.07-0.104-0.104c-0.035-0.036-0.071-0.071-0.106-0.107     c-0.035-0.033-0.07-0.068-0.104-0.104c-0.035-0.036-0.072-0.072-0.109-0.108c-0.033-0.034-0.068-0.069-0.104-0.104     c-0.033-0.034-0.069-0.069-0.105-0.104c-0.033-0.036-0.07-0.069-0.104-0.104c-0.034-0.037-0.07-0.07-0.105-0.106     c-0.032-0.034-0.067-0.067-0.104-0.103c-0.036-0.039-0.074-0.076-0.111-0.113c-0.034-0.035-0.07-0.068-0.104-0.104     s-0.068-0.068-0.104-0.104c-0.035-0.036-0.071-0.072-0.106-0.108c-0.035-0.035-0.07-0.068-0.106-0.105     c-0.034-0.035-0.07-0.07-0.106-0.105c-0.033-0.035-0.07-0.07-0.104-0.104c-0.032-0.034-0.067-0.067-0.103-0.103     c-0.037-0.039-0.074-0.076-0.113-0.113c-0.032-0.034-0.067-0.068-0.104-0.104c-0.035-0.037-0.07-0.072-0.107-0.107     c-0.032-0.035-0.068-0.068-0.104-0.104c-0.033-0.036-0.068-0.071-0.105-0.104c-0.035-0.037-0.07-0.072-0.106-0.107     c-0.035-0.036-0.069-0.07-0.104-0.105s-0.067-0.067-0.104-0.104c-0.035-0.036-0.07-0.071-0.105-0.105     c-0.035-0.039-0.072-0.074-0.109-0.11c-0.034-0.035-0.068-0.069-0.104-0.104s-0.069-0.07-0.104-0.105     c-0.035-0.034-0.071-0.069-0.106-0.105c-0.033-0.035-0.068-0.068-0.104-0.104c-0.035-0.037-0.072-0.072-0.109-0.108     c-0.032-0.035-0.067-0.067-0.104-0.103c-0.035-0.037-0.071-0.074-0.107-0.109c-0.034-0.036-0.071-0.07-0.106-0.105     c-0.033-0.037-0.068-0.069-0.104-0.104c-0.034-0.036-0.069-0.069-0.106-0.106c-0.032-0.035-0.069-0.07-0.104-0.105     c-0.035-0.037-0.071-0.072-0.108-0.107c-0.033-0.035-0.066-0.068-0.103-0.104c-0.034-0.035-0.069-0.069-0.104-0.104     c-0.033-0.037-0.07-0.072-0.105-0.107c-0.036-0.037-0.073-0.072-0.109-0.109c-0.035-0.035-0.07-0.07-0.104-0.105     c-0.035-0.034-0.068-0.067-0.104-0.104c-0.035-0.037-0.072-0.074-0.109-0.109c-0.033-0.035-0.066-0.067-0.102-0.102     c-0.035-0.037-0.072-0.072-0.107-0.109c-0.035-0.035-0.07-0.069-0.107-0.104c-0.033-0.037-0.068-0.071-0.105-0.106     c-0.032-0.035-0.069-0.068-0.104-0.105c-0.034-0.035-0.069-0.07-0.106-0.105c-0.033-0.035-0.068-0.068-0.104-0.104     c-0.035-0.037-0.072-0.074-0.109-0.109c-0.033-0.035-0.067-0.07-0.104-0.104c-0.035-0.037-0.071-0.072-0.105-0.106     c-0.035-0.036-0.07-0.071-0.106-0.106c-0.033-0.034-0.07-0.069-0.104-0.104c-0.035-0.036-0.07-0.071-0.105-0.106     s-0.07-0.068-0.106-0.105c-0.034-0.034-0.069-0.068-0.104-0.104c-0.034-0.037-0.069-0.072-0.106-0.107     c-0.034-0.037-0.071-0.071-0.106-0.107c-0.033-0.035-0.068-0.067-0.104-0.104c-0.034-0.037-0.069-0.071-0.106-0.105     c-0.033-0.037-0.068-0.072-0.105-0.106c-0.033-0.035-0.068-0.07-0.105-0.104c-0.033-0.037-0.069-0.072-0.104-0.105     c-0.035-0.035-0.069-0.07-0.104-0.105s-0.07-0.07-0.105-0.105c-0.035-0.036-0.07-0.071-0.105-0.106     c-0.035-0.034-0.07-0.069-0.106-0.104c-0.033-0.035-0.07-0.07-0.104-0.105c-0.035-0.036-0.07-0.07-0.106-0.105     c-0.034-0.037-0.069-0.071-0.106-0.106c-0.033-0.035-0.068-0.069-0.105-0.104c-0.032-0.037-0.069-0.07-0.104-0.105     c-0.032-0.035-0.069-0.07-0.104-0.105c-0.035-0.037-0.072-0.071-0.107-0.106c-0.033-0.035-0.066-0.067-0.104-0.103     c-0.035-0.037-0.072-0.074-0.109-0.11c-0.033-0.035-0.07-0.07-0.104-0.104c-0.035-0.035-0.07-0.07-0.106-0.105     c-0.033-0.036-0.069-0.071-0.104-0.106c-0.035-0.034-0.069-0.069-0.104-0.104s-0.072-0.07-0.106-0.105     c-0.035-0.037-0.07-0.07-0.106-0.105c-0.034-0.035-0.069-0.069-0.104-0.104c-0.033-0.037-0.07-0.071-0.106-0.106     c-0.035-0.037-0.072-0.072-0.107-0.107c-0.032-0.035-0.067-0.068-0.104-0.104c-0.033-0.035-0.069-0.07-0.104-0.105     c-0.034-0.037-0.071-0.072-0.108-0.109c-0.033-0.035-0.069-0.068-0.104-0.104c-0.035-0.036-0.07-0.069-0.105-0.105     c-0.033-0.035-0.068-0.068-0.104-0.104c-0.039-0.04-0.076-0.077-0.115-0.114c-0.031-0.032-0.064-0.065-0.099-0.099     c-0.036-0.037-0.071-0.071-0.108-0.108c-0.033-0.034-0.068-0.069-0.104-0.104c-0.036-0.039-0.073-0.074-0.11-0.111     c-0.032-0.035-0.067-0.068-0.104-0.104c-0.033-0.037-0.069-0.07-0.105-0.105c-0.035-0.037-0.07-0.072-0.105-0.107     c-0.033-0.036-0.069-0.07-0.104-0.104c-0.037-0.037-0.072-0.072-0.107-0.107c-0.034-0.036-0.069-0.07-0.104-0.105     c-0.032-0.036-0.067-0.07-0.104-0.104c-0.035-0.038-0.073-0.075-0.11-0.112c-0.033-0.035-0.067-0.069-0.104-0.104     c-0.033-0.037-0.069-0.071-0.105-0.106c-0.034-0.036-0.069-0.07-0.104-0.105c-0.035-0.037-0.072-0.072-0.107-0.108     s-0.07-0.071-0.105-0.106c-0.033-0.035-0.068-0.069-0.104-0.104c-0.035-0.037-0.071-0.072-0.108-0.108     c-0.034-0.037-0.069-0.072-0.106-0.108c-0.034-0.036-0.069-0.07-0.105-0.105c-0.033-0.036-0.068-0.07-0.105-0.105     c-0.031-0.035-0.066-0.069-0.104-0.104c-0.035-0.037-0.072-0.072-0.107-0.108c-0.033-0.036-0.069-0.071-0.105-0.106     c-0.034-0.036-0.068-0.071-0.105-0.106c-0.035-0.037-0.07-0.072-0.106-0.107c-1.024-1.063-2.431-1.761-4.112-1.962     c-0.015-0.016-0.033-0.029-0.049-0.045c-0.036-0.038-0.072-0.074-0.109-0.11c-0.035-0.035-0.068-0.07-0.104-0.104     c-0.034-0.035-0.068-0.07-0.104-0.104c-0.035-0.037-0.07-0.072-0.106-0.108c-0.034-0.036-0.07-0.071-0.106-0.106     c-0.033-0.036-0.07-0.071-0.104-0.106c-0.034-0.036-0.07-0.071-0.104-0.106c-0.035-0.036-0.07-0.071-0.107-0.107     c-0.032-0.034-0.066-0.068-0.102-0.103c-0.037-0.039-0.076-0.077-0.115-0.114c-0.031-0.034-0.065-0.066-0.101-0.099     c-0.034-0.038-0.071-0.074-0.108-0.111c-0.035-0.035-0.068-0.068-0.104-0.103c-0.035-0.037-0.071-0.072-0.106-0.107     c-0.035-0.036-0.07-0.071-0.106-0.106c-0.033-0.035-0.067-0.069-0.103-0.104c-0.037-0.038-0.074-0.074-0.111-0.111     c-0.034-0.035-0.07-0.07-0.105-0.104c-0.033-0.035-0.068-0.068-0.103-0.103c-0.036-0.038-0.073-0.075-0.111-0.111     c-0.034-0.036-0.069-0.07-0.104-0.105c-0.032-0.035-0.068-0.07-0.104-0.104c-0.035-0.037-0.072-0.073-0.109-0.109     c-0.033-0.034-0.065-0.068-0.102-0.102c-0.036-0.037-0.072-0.074-0.109-0.111c-0.035-0.035-0.069-0.069-0.104-0.104     c-0.036-0.037-0.073-0.073-0.109-0.109c-0.033-0.036-0.068-0.07-0.104-0.105c-0.035-0.036-0.07-0.07-0.104-0.105     c-0.035-0.036-0.07-0.071-0.105-0.107c-0.035-0.036-0.071-0.071-0.107-0.107c-0.035-0.036-0.07-0.071-0.105-0.106     c-0.033-0.035-0.068-0.07-0.104-0.104c-0.035-0.036-0.07-0.071-0.105-0.107s-0.07-0.071-0.106-0.107     c-0.034-0.037-0.071-0.072-0.108-0.108C35.827,22.841,33.844,22,31,22c-4.217,0-7,3-7,6v1c0,0-7,0.031-7,6     c0,2.33,0.65,4.271,1.945,5.516c0.036,0.037,0.072,0.074,0.109,0.109c0.035,0.035,0.069,0.07,0.105,0.105     c0.035,0.035,0.069,0.068,0.104,0.104c0.036,0.037,0.072,0.074,0.11,0.109c0.035,0.035,0.069,0.07,0.105,0.104     c0.035,0.035,0.07,0.07,0.105,0.104c0.034,0.035,0.068,0.07,0.104,0.104c0.036,0.037,0.072,0.074,0.11,0.11     c0.036,0.035,0.071,0.072,0.108,0.107c0.035,0.033,0.069,0.068,0.105,0.104c0.034,0.035,0.068,0.068,0.103,0.104     c0.036,0.036,0.072,0.073,0.109,0.109c0.035,0.036,0.07,0.07,0.106,0.105c0.035,0.035,0.069,0.069,0.104,0.104     c0.035,0.035,0.069,0.07,0.105,0.104c0.036,0.037,0.072,0.074,0.109,0.108c0.035,0.036,0.07,0.072,0.106,0.106     c0.036,0.037,0.071,0.072,0.108,0.106c0.034,0.034,0.067,0.068,0.102,0.103c0.036,0.037,0.071,0.074,0.108,0.108     c0.035,0.034,0.07,0.07,0.106,0.105c0.035,0.034,0.07,0.069,0.106,0.104c0.035,0.036,0.071,0.071,0.107,0.106     c0.034,0.034,0.068,0.069,0.104,0.104c0.036,0.034,0.071,0.07,0.107,0.105c0.035,0.035,0.07,0.07,0.106,0.105     c0.037,0.037,0.074,0.074,0.112,0.11c0.033,0.033,0.066,0.065,0.1,0.101c0.036,0.035,0.071,0.072,0.108,0.107     c0.035,0.035,0.07,0.07,0.106,0.105c0.036,0.037,0.071,0.071,0.108,0.106c0.034,0.034,0.067,0.068,0.102,0.104     c0.036,0.035,0.072,0.072,0.11,0.108c0.034,0.033,0.067,0.068,0.102,0.103c0.037,0.039,0.074,0.076,0.112,0.113     c0.034,0.032,0.068,0.067,0.103,0.103c0.035,0.036,0.07,0.071,0.107,0.106c0.035,0.034,0.07,0.071,0.106,0.105     c0.034,0.034,0.068,0.068,0.104,0.104c0.037,0.037,0.074,0.076,0.113,0.111c0.034,0.034,0.067,0.069,0.103,0.104     c0.035,0.035,0.069,0.07,0.105,0.105c0.036,0.035,0.071,0.071,0.107,0.105c0.035,0.035,0.07,0.072,0.106,0.104     c0.036,0.037,0.07,0.072,0.107,0.106c0.035,0.037,0.07,0.07,0.107,0.105c0.035,0.037,0.07,0.071,0.106,0.106     c0.035,0.034,0.07,0.071,0.105,0.104c0.035,0.034,0.07,0.071,0.106,0.105c0.035,0.035,0.07,0.07,0.105,0.104     c0.036,0.037,0.071,0.072,0.107,0.107c0.035,0.035,0.07,0.07,0.106,0.105c0.035,0.034,0.07,0.071,0.107,0.106     c0.035,0.034,0.069,0.069,0.105,0.104c0.036,0.035,0.072,0.07,0.108,0.107c0.035,0.034,0.07,0.068,0.106,0.104     c0.035,0.035,0.069,0.069,0.104,0.104c0.036,0.035,0.071,0.071,0.107,0.106c0.035,0.035,0.07,0.07,0.106,0.105     c0.035,0.035,0.07,0.07,0.106,0.105c0.036,0.035,0.072,0.072,0.11,0.106c0.033,0.035,0.066,0.068,0.101,0.103     c0.036,0.037,0.071,0.072,0.107,0.106c0.036,0.037,0.07,0.072,0.107,0.107c0.035,0.034,0.07,0.071,0.106,0.106     c0.035,0.033,0.07,0.07,0.106,0.105c0.035,0.033,0.07,0.07,0.106,0.105c0.035,0.034,0.069,0.069,0.105,0.104     c0.037,0.037,0.073,0.073,0.11,0.108c0.034,0.035,0.068,0.068,0.103,0.103c0.035,0.037,0.07,0.071,0.105,0.106     c0.036,0.035,0.071,0.071,0.107,0.105c0.035,0.035,0.07,0.072,0.106,0.105c0.035,0.035,0.07,0.072,0.106,0.106     c0.035,0.035,0.07,0.07,0.106,0.104c0.036,0.037,0.071,0.072,0.108,0.107c0.033,0.033,0.066,0.068,0.1,0.102     c0.038,0.037,0.075,0.076,0.113,0.113c0.034,0.034,0.069,0.068,0.104,0.104s0.07,0.07,0.105,0.104     c0.036,0.036,0.071,0.071,0.107,0.106c0.035,0.035,0.069,0.069,0.104,0.104c0.036,0.037,0.072,0.072,0.109,0.107     c0.034,0.035,0.067,0.07,0.102,0.104c0.037,0.037,0.074,0.076,0.112,0.111c0.034,0.035,0.068,0.068,0.103,0.104     c0.036,0.037,0.071,0.072,0.108,0.107c0.034,0.035,0.068,0.07,0.104,0.104c0.036,0.037,0.071,0.074,0.108,0.109     c0.035,0.034,0.069,0.068,0.104,0.104c0.036,0.037,0.072,0.072,0.108,0.107c0.036,0.035,0.071,0.071,0.107,0.106     c0.034,0.033,0.068,0.067,0.103,0.103c0.036,0.037,0.071,0.073,0.108,0.108c0.035,0.035,0.069,0.069,0.105,0.104     c0.036,0.035,0.072,0.072,0.108,0.107c0.036,0.035,0.071,0.072,0.107,0.105c0.034,0.033,0.067,0.068,0.102,0.104     c0.037,0.037,0.074,0.074,0.112,0.111c0.034,0.033,0.067,0.066,0.101,0.102c0.036,0.036,0.072,0.072,0.109,0.107     c0.035,0.037,0.07,0.07,0.106,0.105c0.035,0.035,0.07,0.071,0.106,0.106c0.036,0.035,0.071,0.071,0.108,0.106     c0.034,0.033,0.067,0.067,0.101,0.103c0.037,0.037,0.073,0.073,0.11,0.108c0.036,0.037,0.072,0.074,0.108,0.108     c0.034,0.034,0.067,0.067,0.102,0.103c0.036,0.035,0.071,0.072,0.107,0.106c0.036,0.036,0.071,0.071,0.108,0.108     c0.035,0.033,0.07,0.068,0.106,0.104c0.035,0.035,0.07,0.071,0.106,0.106c0.035,0.034,0.07,0.069,0.107,0.104     c0.033,0.034,0.067,0.068,0.101,0.103c0.038,0.038,0.076,0.077,0.115,0.114c0.034,0.033,0.067,0.067,0.102,0.103     c0.035,0.035,0.07,0.071,0.106,0.104c0.036,0.037,0.071,0.072,0.107,0.107c0.035,0.035,0.071,0.072,0.107,0.107     s0.072,0.07,0.109,0.106c0.032,0.031,0.064,0.063,0.098,0.099c0.037,0.037,0.075,0.076,0.113,0.112     c0.034,0.034,0.067,0.068,0.101,0.103c0.037,0.039,0.074,0.074,0.113,0.111c0.035,0.035,0.069,0.07,0.104,0.104     c0.035,0.034,0.069,0.067,0.104,0.104c0.036,0.035,0.071,0.072,0.108,0.106c0.035,0.035,0.069,0.069,0.105,0.104     c0.036,0.037,0.071,0.072,0.108,0.107c0.035,0.035,0.068,0.07,0.104,0.105c0.035,0.035,0.067,0.069,0.104,0.104     c0.037,0.036,0.072,0.071,0.106,0.105c0.035,0.035,0.07,0.072,0.104,0.105c0.037,0.037,0.072,0.072,0.109,0.109     c0.033,0.033,0.067,0.068,0.104,0.103c0.034,0.036,0.069,0.073,0.106,0.108c0.034,0.035,0.068,0.07,0.104,0.104     c0.034,0.036,0.069,0.072,0.106,0.107c0.034,0.035,0.069,0.072,0.105,0.105c0.035,0.035,0.068,0.07,0.104,0.104     s0.071,0.071,0.107,0.106c0.035,0.034,0.068,0.069,0.104,0.104c0.037,0.036,0.071,0.073,0.108,0.108     c0.034,0.033,0.067,0.067,0.103,0.104c0.037,0.037,0.074,0.074,0.111,0.109c0.034,0.035,0.068,0.07,0.104,0.104     c0.037,0.035,0.07,0.071,0.106,0.105c0.035,0.035,0.07,0.07,0.106,0.105c0.033,0.035,0.066,0.069,0.103,0.104     c0.037,0.037,0.073,0.074,0.111,0.111c0.034,0.034,0.067,0.069,0.104,0.104c0.037,0.036,0.071,0.073,0.107,0.108     c0.035,0.033,0.068,0.068,0.104,0.104s0.07,0.07,0.105,0.105c0.036,0.037,0.072,0.072,0.109,0.107     c0.033,0.034,0.065,0.066,0.102,0.104c0.037,0.037,0.074,0.076,0.113,0.111c0.031,0.032,0.064,0.065,0.097,0.098     c0.037,0.039,0.073,0.076,0.111,0.11c0.034,0.036,0.069,0.071,0.104,0.105c0.036,0.034,0.069,0.071,0.105,0.106     c0.035,0.034,0.068,0.07,0.105,0.105c0.035,0.035,0.069,0.07,0.105,0.105c0.037,0.036,0.072,0.073,0.111,0.108     c0.028,0.032,0.062,0.063,0.094,0.095c0.039,0.04,0.078,0.08,0.117,0.119c0.033,0.034,0.067,0.068,0.104,0.104     c0.034,0.035,0.069,0.069,0.105,0.104c0.035,0.036,0.07,0.071,0.104,0.104c0.036,0.035,0.07,0.072,0.106,0.106     c0.033,0.035,0.068,0.07,0.104,0.104c0.035,0.037,0.072,0.074,0.11,0.111c0.034,0.033,0.067,0.068,0.104,0.104     c0.034,0.037,0.069,0.072,0.106,0.107c0.032,0.033,0.067,0.068,0.104,0.104c0.034,0.036,0.069,0.072,0.105,0.107     s0.07,0.07,0.105,0.105s0.07,0.07,0.105,0.104c0.035,0.037,0.07,0.072,0.107,0.107c0.033,0.035,0.067,0.07,0.104,0.104     c0.035,0.035,0.07,0.072,0.105,0.105c0.037,0.038,0.074,0.076,0.113,0.112c0.032,0.034,0.065,0.069,0.102,0.103     c0.035,0.035,0.07,0.071,0.104,0.106c0.037,0.036,0.074,0.073,0.111,0.108c0.032,0.032,0.063,0.065,0.099,0.1     c0.036,0.037,0.073,0.074,0.109,0.109c0.035,0.036,0.068,0.07,0.104,0.105s0.07,0.07,0.107,0.105     c0.035,0.035,0.068,0.07,0.105,0.105c0.035,0.035,0.069,0.07,0.104,0.105s0.069,0.071,0.106,0.105     c0.035,0.035,0.068,0.071,0.105,0.105c0.035,0.035,0.069,0.07,0.105,0.104c0.035,0.036,0.07,0.073,0.106,0.108     c0.035,0.033,0.067,0.068,0.104,0.104c0.035,0.035,0.07,0.072,0.106,0.107c0.035,0.035,0.07,0.07,0.105,0.104     c0.034,0.035,0.069,0.07,0.104,0.104c0.037,0.037,0.074,0.074,0.111,0.109c0.032,0.033,0.067,0.068,0.104,0.104     c0.034,0.036,0.069,0.071,0.104,0.104c0.036,0.037,0.071,0.074,0.108,0.108c0.035,0.035,0.068,0.069,0.104,0.104     s0.068,0.069,0.105,0.104c0.035,0.035,0.069,0.071,0.104,0.106c0.037,0.033,0.07,0.07,0.106,0.105     c0.035,0.035,0.072,0.072,0.107,0.107c0.033,0.033,0.066,0.068,0.102,0.102c0.037,0.036,0.072,0.072,0.109,0.107     c0.035,0.037,0.068,0.072,0.104,0.106c0.036,0.035,0.069,0.07,0.106,0.105c0.034,0.034,0.069,0.071,0.104,0.104     c0.036,0.035,0.069,0.072,0.106,0.106c0.036,0.036,0.072,0.073,0.109,0.108c0.029,0.032,0.063,0.063,0.096,0.096     c0.037,0.039,0.076,0.08,0.117,0.119c0.033,0.033,0.064,0.065,0.102,0.102c0.035,0.035,0.072,0.072,0.107,0.107     s0.07,0.07,0.104,0.104c0.037,0.035,0.07,0.07,0.106,0.104c0.035,0.035,0.07,0.07,0.104,0.105     c0.035,0.035,0.072,0.071,0.107,0.107c0.035,0.035,0.068,0.07,0.105,0.104c0.033,0.037,0.068,0.072,0.104,0.106     c0.036,0.034,0.069,0.071,0.106,0.106c0.034,0.034,0.069,0.069,0.104,0.104c0.036,0.034,0.07,0.071,0.105,0.106     c0.035,0.033,0.07,0.07,0.105,0.105c0.037,0.034,0.069,0.07,0.106,0.105c0.035,0.035,0.067,0.069,0.104,0.104     c0.035,0.036,0.07,0.072,0.106,0.107c0.035,0.035,0.072,0.071,0.108,0.108c0.033,0.035,0.067,0.068,0.104,0.104     c0.035,0.035,0.07,0.07,0.105,0.104c0.035,0.037,0.072,0.074,0.108,0.108c0.033,0.035,0.068,0.068,0.104,0.104     c0.035,0.035,0.07,0.07,0.105,0.104c0.033,0.034,0.067,0.069,0.104,0.104c0.037,0.037,0.072,0.074,0.111,0.111     c0.034,0.035,0.068,0.069,0.104,0.104c0.037,0.034,0.07,0.07,0.105,0.105s0.07,0.07,0.106,0.105     c0.035,0.035,0.069,0.071,0.106,0.106c0.035,0.035,0.068,0.067,0.104,0.104c0.034,0.035,0.071,0.071,0.106,0.106     s0.07,0.07,0.104,0.104c0.035,0.035,0.07,0.072,0.104,0.105c0.037,0.035,0.07,0.072,0.106,0.105     c0.035,0.035,0.069,0.072,0.106,0.106c0.035,0.035,0.068,0.07,0.104,0.105c0.035,0.034,0.068,0.069,0.104,0.104     c0.037,0.038,0.074,0.075,0.109,0.11c0.034,0.035,0.069,0.07,0.104,0.104c0.034,0.036,0.069,0.071,0.104,0.106     s0.069,0.069,0.105,0.104c0.035,0.035,0.07,0.071,0.105,0.105c0.035,0.035,0.069,0.072,0.105,0.105     c0.036,0.037,0.07,0.072,0.107,0.107c0.033,0.034,0.065,0.066,0.102,0.102c0.036,0.037,0.073,0.076,0.111,0.111     c0.033,0.034,0.068,0.069,0.104,0.104c0.036,0.035,0.07,0.07,0.104,0.105c0.035,0.035,0.07,0.07,0.106,0.105     s0.07,0.07,0.106,0.105c0.035,0.036,0.072,0.073,0.107,0.108c0.033,0.032,0.066,0.067,0.104,0.103     c0.035,0.035,0.07,0.072,0.107,0.106c0.035,0.037,0.068,0.071,0.104,0.106c0.035,0.035,0.069,0.07,0.104,0.105     s0.07,0.07,0.106,0.105s0.069,0.07,0.106,0.105c0.035,0.034,0.068,0.071,0.104,0.104c0.035,0.037,0.07,0.074,0.106,0.108     c0.035,0.035,0.068,0.069,0.104,0.104s0.071,0.07,0.108,0.105c0.033,0.035,0.068,0.069,0.104,0.104     c0.036,0.035,0.07,0.072,0.105,0.106c0.037,0.035,0.07,0.071,0.105,0.106s0.07,0.07,0.106,0.105     c0.034,0.035,0.069,0.071,0.106,0.106c0.033,0.032,0.067,0.067,0.104,0.103c0.035,0.036,0.07,0.072,0.107,0.108     c0.035,0.035,0.071,0.071,0.108,0.108c0.034,0.035,0.067,0.068,0.104,0.104c0.035,0.035,0.068,0.069,0.104,0.104     c0.035,0.035,0.07,0.071,0.104,0.106c0.037,0.036,0.072,0.071,0.107,0.106s0.07,0.07,0.107,0.105     c0.033,0.034,0.066,0.068,0.102,0.104c0.036,0.037,0.072,0.074,0.109,0.107c0.035,0.036,0.068,0.071,0.105,0.106     c0.034,0.034,0.068,0.069,0.104,0.104c0.034,0.035,0.069,0.071,0.104,0.106c0.037,0.034,0.07,0.071,0.106,0.106     c0.036,0.034,0.071,0.07,0.108,0.105c0.033,0.035,0.067,0.068,0.104,0.104c0.034,0.034,0.068,0.069,0.104,0.104     s0.069,0.069,0.105,0.104c0.037,0.037,0.073,0.075,0.111,0.111C51.831,73.418,53.215,74,55,74c0,0,16.891,0,17,0c4,0,7-2.953,7-7     C79,64.943,78.279,63.173,77.02,61.926z" enable-background="new    " fill="url(#SVGID_3_)" opacity="0.4"/></g></g></g><path d="M40,42c4,0,7-2.953,7-7s-2.782-7-7-7c-0.154,0,0,0-1,0c-0.654-3.407-3-6-8-6  c-4.217,0-7,3-7,6v1c0,0-7,0.031-7,6c0,4.094,2,7,6,7C23,42,39.891,42,40,42z" fill="#FFFFFF" id="Cloud__x2601_"/></svg>