<?xml version="1.0" ?><!DOCTYPE svg  PUBLIC '-//W3C//DTD SVG 1.1//EN'  'http://www.w3.org/Graphics/SVG/1.1/DTD/svg11.dtd'><svg enable-background="new 0 0 64 64" height="64px" id="Drupal" version="1.1" viewBox="0 0 64 64" width="64px" xml:space="preserve" xmlns="http://www.w3.org/2000/svg" xmlns:xlink="http://www.w3.org/1999/xlink"><linearGradient gradientTransform="matrix(1 0 0 -1 -274 -299)" gradientUnits="userSpaceOnUse" id="Circle_Shadow_1_" x1="338.0293" x2="306.0293" y1="-362.9995" y2="-330.9995"><stop offset="0.3163" style="stop-color:#FFFFFF;stop-opacity:0"/><stop offset="0.3508" style="stop-color:#E9E9E9;stop-opacity:0.0504"/><stop offset="0.4543" style="stop-color:#ACACAC;stop-opacity:0.2018"/><stop offset="0.5572" style="stop-color:#787878;stop-opacity:0.3523"/><stop offset="0.6569" style="stop-color:#4D4D4D;stop-opacity:0.4981"/><stop offset="0.7528" style="stop-color:#2B2B2B;stop-opacity:0.6385"/><stop offset="0.8441" style="stop-color:#131313;stop-opacity:0.7719"/><stop offset="0.9286" style="stop-color:#050505;stop-opacity:0.8956"/><stop offset="1" style="stop-color:#000000"/></linearGradient><polygon enable-background="new    " fill="url(#Circle_Shadow_1_)" id="Circle_Shadow" opacity="0.2" points="64.029,64   64.029,30.059 49,15.029 15.059,48.971 30.088,64 "/><circle cx="32" cy="32" fill="#1886C9" id="Circle" r="24"/><g id="Drupicon_shadow"><g><defs><circle cx="32.029" cy="32" id="SVGID_1_" r="24"/></defs><clipPath id="SVGID_2_"><use overflow="visible" xlink:href="#SVGID_1_"/></clipPath><linearGradient gradientTransform="matrix(1 0 0 -1 -274 -299)" gradientUnits="userSpaceOnUse" id="SVGID_3_" x1="347.4004" x2="296.8033" y1="-374.3223" y2="-323.7252"><stop offset="0.5612" style="stop-color:#000000;stop-opacity:0"/><stop offset="0.5819" style="stop-color:#000000;stop-opacity:0.0471"/><stop offset="1" style="stop-color:#000000"/></linearGradient><path clip-path="url(#SVGID_2_)" d="M73.275,56.771    c-0.034-0.035-0.07-0.072-0.105-0.106c-0.035-0.035-0.07-0.072-0.105-0.106c-0.037-0.035-0.071-0.072-0.106-0.105    c-0.035-0.034-0.069-0.07-0.104-0.104c-0.035-0.035-0.07-0.072-0.106-0.107c-0.035-0.035-0.071-0.072-0.106-0.105    c-0.035-0.035-0.07-0.072-0.105-0.107c-0.035-0.034-0.071-0.071-0.105-0.105c-0.035-0.033-0.068-0.068-0.104-0.104    c-0.038-0.037-0.076-0.076-0.114-0.113c-0.035-0.035-0.069-0.07-0.104-0.104c-0.033-0.033-0.066-0.067-0.1-0.101    c-0.037-0.036-0.072-0.073-0.109-0.11c-0.035-0.035-0.07-0.07-0.106-0.105c-0.035-0.035-0.071-0.072-0.106-0.105    c-0.035-0.035-0.069-0.072-0.105-0.106c-0.037-0.036-0.074-0.074-0.11-0.11c-0.032-0.031-0.063-0.064-0.096-0.096    c-0.038-0.037-0.076-0.077-0.114-0.114c-0.033-0.034-0.068-0.069-0.104-0.104c-0.035-0.034-0.07-0.07-0.106-0.105    c-0.034-0.035-0.071-0.072-0.106-0.105c-0.035-0.037-0.071-0.073-0.107-0.108c-0.034-0.033-0.068-0.069-0.104-0.103    c-0.037-0.037-0.072-0.074-0.109-0.109c-0.032-0.033-0.064-0.067-0.098-0.1c-0.039-0.039-0.078-0.078-0.115-0.115    c-0.034-0.033-0.069-0.069-0.104-0.104c-0.035-0.035-0.072-0.072-0.106-0.105c-0.035-0.035-0.07-0.072-0.106-0.106    c-0.035-0.034-0.07-0.071-0.105-0.104c-0.037-0.037-0.073-0.075-0.11-0.111c-0.033-0.033-0.065-0.066-0.101-0.1    c-0.035-0.035-0.07-0.072-0.105-0.106c-0.036-0.035-0.072-0.073-0.107-0.108s-0.071-0.072-0.106-0.105    c-0.035-0.035-0.069-0.071-0.106-0.105c-0.035-0.035-0.07-0.072-0.105-0.106c-0.034-0.033-0.067-0.069-0.102-0.103    c-0.039-0.039-0.078-0.078-0.117-0.115c-0.032-0.032-0.064-0.066-0.098-0.1c-0.037-0.035-0.072-0.072-0.109-0.107    c-0.034-0.035-0.07-0.072-0.105-0.106c-0.035-0.035-0.07-0.071-0.105-0.106s-0.071-0.071-0.106-0.105    c-0.036-0.036-0.071-0.073-0.108-0.107c-0.031-0.031-0.063-0.064-0.095-0.097c-0.041-0.04-0.081-0.082-0.121-0.12    c-0.032-0.033-0.067-0.068-0.101-0.101c-0.035-0.035-0.071-0.072-0.105-0.106c-0.035-0.035-0.07-0.07-0.107-0.105    c-0.033-0.033-0.067-0.069-0.102-0.104c-0.037-0.037-0.074-0.074-0.111-0.111c-0.035-0.035-0.07-0.07-0.105-0.104    c-0.036-0.036-0.072-0.073-0.107-0.106c-0.035-0.035-0.068-0.07-0.104-0.104c-0.035-0.035-0.07-0.072-0.105-0.106    c-0.035-0.035-0.07-0.07-0.106-0.105c-0.035-0.035-0.071-0.072-0.106-0.105c-0.035-0.035-0.07-0.072-0.105-0.106    c-0.035-0.035-0.071-0.072-0.105-0.106c-0.037-0.035-0.072-0.072-0.109-0.107c-0.032-0.032-0.064-0.066-0.098-0.098    c-0.037-0.039-0.076-0.078-0.113-0.113c-0.034-0.035-0.069-0.071-0.104-0.105c-0.035-0.035-0.071-0.072-0.106-0.105    c-0.035-0.035-0.069-0.071-0.105-0.106c-0.034-0.033-0.068-0.069-0.104-0.103c-0.037-0.039-0.076-0.078-0.114-0.115    c-0.032-0.032-0.064-0.065-0.097-0.098c-0.037-0.037-0.076-0.076-0.112-0.111c-0.035-0.034-0.069-0.07-0.104-0.104    s-0.07-0.071-0.105-0.106c-0.036-0.035-0.072-0.072-0.108-0.107c-0.034-0.033-0.067-0.068-0.103-0.102    c-0.035-0.035-0.07-0.072-0.105-0.107c-0.037-0.036-0.074-0.074-0.109-0.109s-0.07-0.07-0.104-0.104    c-0.035-0.035-0.071-0.072-0.106-0.105c-0.035-0.035-0.07-0.072-0.105-0.106c-0.035-0.035-0.07-0.071-0.105-0.106    c-0.035-0.033-0.068-0.068-0.104-0.103c-0.039-0.039-0.078-0.079-0.118-0.117c-0.03-0.03-0.063-0.063-0.095-0.095    c-0.036-0.037-0.072-0.074-0.109-0.109c-0.035-0.035-0.07-0.072-0.105-0.107c-0.035-0.034-0.071-0.071-0.106-0.105    c-0.035-0.035-0.069-0.07-0.106-0.105c-0.035-0.037-0.071-0.073-0.107-0.108s-0.072-0.072-0.107-0.106    c-0.031-0.031-0.063-0.065-0.096-0.097c-0.04-0.039-0.079-0.08-0.119-0.118c-0.031-0.031-0.063-0.064-0.095-0.096    c-0.038-0.038-0.076-0.077-0.114-0.114c-0.035-0.034-0.07-0.071-0.105-0.106c-0.034-0.032-0.068-0.068-0.104-0.102    c-0.035-0.037-0.072-0.074-0.109-0.111c-0.033-0.031-0.065-0.066-0.1-0.099c-0.038-0.037-0.074-0.075-0.111-0.112    c-0.037-0.035-0.071-0.071-0.106-0.105c-0.035-0.035-0.071-0.072-0.106-0.105c-0.035-0.035-0.07-0.072-0.104-0.105    c-0.035-0.035-0.071-0.072-0.106-0.105c-0.033-0.035-0.068-0.07-0.104-0.104c-0.035-0.035-0.07-0.071-0.105-0.104    c-0.037-0.039-0.074-0.078-0.113-0.113c-0.032-0.033-0.066-0.068-0.101-0.102c-0.036-0.037-0.075-0.076-0.112-0.111    c-0.033-0.033-0.067-0.069-0.103-0.104c-0.035-0.035-0.071-0.072-0.106-0.105c-0.035-0.035-0.069-0.071-0.105-0.106    c-0.034-0.034-0.068-0.07-0.104-0.104c-0.037-0.035-0.074-0.074-0.109-0.108c-0.034-0.033-0.068-0.069-0.102-0.103    c-0.039-0.037-0.074-0.076-0.111-0.111c-0.034-0.032-0.067-0.067-0.102-0.101c-0.037-0.038-0.076-0.077-0.113-0.114    c-0.035-0.032-0.068-0.068-0.104-0.103c-0.035-0.035-0.07-0.071-0.105-0.104c-0.035-0.035-0.07-0.072-0.105-0.106    c-0.033-0.033-0.066-0.067-0.1-0.101c-0.039-0.039-0.078-0.08-0.117-0.117c-0.035-0.034-0.069-0.07-0.104-0.104    c-0.035-0.034-0.07-0.069-0.104-0.104c-0.035-0.035-0.07-0.071-0.106-0.106c-0.035-0.035-0.07-0.072-0.105-0.105    c-0.035-0.035-0.071-0.072-0.107-0.106c-0.033-0.032-0.066-0.067-0.1-0.101c-0.039-0.038-0.077-0.078-0.115-0.115    c-0.034-0.034-0.068-0.068-0.104-0.104s-0.07-0.071-0.105-0.105c-0.036-0.036-0.072-0.073-0.107-0.107    c-0.033-0.033-0.067-0.068-0.102-0.102c-0.037-0.036-0.074-0.075-0.109-0.109c-0.035-0.035-0.07-0.072-0.105-0.105    c-0.036-0.035-0.072-0.073-0.107-0.107c-0.033-0.033-0.066-0.068-0.1-0.1c-0.039-0.039-0.079-0.08-0.118-0.118    c-0.034-0.034-0.067-0.069-0.103-0.103c-0.035-0.035-0.068-0.069-0.104-0.103c-0.035-0.035-0.07-0.071-0.104-0.106    c-0.037-0.035-0.073-0.074-0.109-0.108c-0.038-0.037-0.076-0.076-0.113-0.112c-0.029-0.029-0.061-0.063-0.09-0.091    c-0.041-0.04-0.081-0.082-0.122-0.121c-0.032-0.032-0.065-0.067-0.101-0.101c-0.035-0.035-0.071-0.072-0.106-0.106    c-0.034-0.034-0.071-0.071-0.106-0.106c-0.033-0.033-0.067-0.068-0.102-0.102c-0.037-0.038-0.076-0.076-0.113-0.113    c-0.033-0.033-0.066-0.067-0.102-0.102c-0.037-0.037-0.074-0.075-0.111-0.111c-0.035-0.033-0.068-0.07-0.104-0.104    c-0.035-0.035-0.071-0.072-0.105-0.105c-0.037-0.037-0.072-0.074-0.109-0.109c-0.031-0.03-0.063-0.064-0.096-0.096    c-0.039-0.039-0.078-0.08-0.117-0.117c-0.034-0.035-0.068-0.07-0.104-0.104c-0.036-0.036-0.07-0.072-0.107-0.107    c-0.035-0.033-0.068-0.069-0.104-0.104c-0.035-0.035-0.07-0.07-0.105-0.105s-0.07-0.071-0.106-0.106    c-0.036-0.036-0.072-0.073-0.108-0.108c-0.033-0.033-0.067-0.068-0.102-0.102c-0.035-0.034-0.068-0.071-0.104-0.104    c-0.039-0.039-0.078-0.078-0.117-0.117c-0.033-0.031-0.066-0.066-0.1-0.099c-0.035-0.034-0.07-0.071-0.105-0.106    c-0.037-0.036-0.074-0.074-0.111-0.11c-0.034-0.033-0.066-0.067-0.102-0.101c-0.037-0.037-0.072-0.074-0.107-0.108    s-0.068-0.069-0.104-0.103c-0.037-0.039-0.076-0.078-0.113-0.114c-0.033-0.032-0.066-0.067-0.1-0.101    c-0.037-0.037-0.076-0.076-0.113-0.111c-0.033-0.034-0.067-0.069-0.103-0.104c-0.034-0.033-0.069-0.07-0.104-0.104    c-0.039-0.039-0.077-0.078-0.115-0.115c-0.032-0.031-0.063-0.064-0.097-0.096c-0.037-0.038-0.075-0.078-0.114-0.115    c-0.032-0.032-0.063-0.064-0.097-0.098c-0.041-0.039-0.08-0.08-0.121-0.119c-0.031-0.032-0.063-0.065-0.096-0.098    c-0.037-0.035-0.072-0.072-0.106-0.105c-0.037-0.036-0.073-0.074-0.11-0.11c-0.033-0.034-0.068-0.069-0.104-0.104    c-0.034-0.033-0.069-0.069-0.104-0.104c-0.036-0.035-0.073-0.074-0.108-0.109c-0.036-0.037-0.073-0.073-0.11-0.109    c-0.033-0.032-0.065-0.066-0.101-0.1c-0.037-0.037-0.074-0.076-0.111-0.112c-0.034-0.034-0.069-0.07-0.104-0.103    c-0.035-0.037-0.07-0.072-0.105-0.106c-0.037-0.036-0.073-0.074-0.109-0.109c-0.033-0.032-0.066-0.067-0.102-0.102    c-0.036-0.035-0.072-0.073-0.108-0.108c-0.034-0.033-0.067-0.068-0.103-0.104c-0.037-0.036-0.075-0.075-0.112-0.111    c-0.035-0.035-0.069-0.07-0.104-0.105c-0.033-0.033-0.066-0.066-0.101-0.1c-0.038-0.038-0.075-0.077-0.112-0.113    c-0.037-0.035-0.072-0.072-0.107-0.106c-0.035-0.035-0.069-0.07-0.104-0.104c-0.037-0.035-0.072-0.072-0.107-0.106    s-0.069-0.07-0.104-0.104c-0.033-0.033-0.066-0.068-0.101-0.101c-0.039-0.039-0.077-0.079-0.116-0.116    c-0.033-0.033-0.066-0.066-0.1-0.1c-0.038-0.038-0.075-0.076-0.112-0.112c-0.033-0.033-0.065-0.067-0.101-0.101    c-0.039-0.039-0.076-0.078-0.115-0.115c-0.034-0.034-0.068-0.069-0.104-0.104c-0.035-0.033-0.068-0.07-0.104-0.104    c-0.034-0.034-0.068-0.07-0.102-0.104c-0.037-0.037-0.074-0.074-0.111-0.111c-0.034-0.033-0.069-0.069-0.104-0.104    c-0.036-0.035-0.071-0.072-0.106-0.105c-0.035-0.035-0.071-0.072-0.106-0.107c-0.038-0.037-0.075-0.074-0.112-0.111    c-0.035-0.035-0.068-0.07-0.104-0.104c-0.032-0.032-0.064-0.066-0.098-0.098c-0.039-0.039-0.077-0.08-0.116-0.117    c-0.035-0.035-0.069-0.07-0.104-0.104c-0.031-0.032-0.064-0.067-0.099-0.099c-0.037-0.037-0.074-0.076-0.11-0.112    c-0.037-0.036-0.072-0.073-0.109-0.108c-0.033-0.033-0.067-0.068-0.103-0.103c-0.036-0.036-0.071-0.073-0.108-0.108    c-0.033-0.033-0.068-0.069-0.104-0.104c-0.037-0.037-0.072-0.075-0.109-0.11c-0.035-0.035-0.069-0.07-0.104-0.104    c-0.036-0.036-0.071-0.073-0.108-0.107c-0.035-0.036-0.07-0.072-0.105-0.106c-0.035-0.035-0.07-0.071-0.105-0.105    c-0.035-0.035-0.07-0.072-0.105-0.106c-0.036-0.036-0.072-0.073-0.108-0.108c-0.034-0.034-0.067-0.069-0.102-0.102    c-0.035-0.035-0.071-0.072-0.106-0.106c-0.037-0.038-0.074-0.076-0.111-0.112c-0.035-0.034-0.069-0.07-0.104-0.104    c-0.035-0.035-0.069-0.071-0.104-0.104c-0.035-0.035-0.07-0.073-0.106-0.107c-0.035-0.035-0.069-0.071-0.104-0.105    c-0.037-0.036-0.072-0.073-0.108-0.108c-0.035-0.035-0.069-0.071-0.104-0.104c-0.033-0.035-0.068-0.071-0.103-0.104    c-0.038-0.037-0.075-0.075-0.112-0.111c-0.035-0.036-0.072-0.074-0.107-0.108c-0.035-0.035-0.069-0.071-0.104-0.104    c-0.034-0.035-0.069-0.07-0.104-0.104c-0.034-0.035-0.07-0.072-0.105-0.106c-0.035-0.036-0.07-0.073-0.105-0.107    c-0.035-0.034-0.068-0.07-0.104-0.103c-0.038-0.038-0.075-0.077-0.113-0.113c-0.033-0.035-0.068-0.071-0.104-0.104    c-0.036-0.036-0.072-0.073-0.108-0.108c-0.034-0.034-0.067-0.069-0.102-0.102c-0.036-0.036-0.072-0.074-0.108-0.108    c-0.035-0.036-0.07-0.073-0.107-0.107c-0.033-0.034-0.067-0.07-0.103-0.103c-0.034-0.035-0.069-0.072-0.104-0.106    c-0.037-0.037-0.074-0.076-0.112-0.112c-0.034-0.034-0.067-0.069-0.103-0.103c-0.037-0.037-0.074-0.075-0.11-0.11    c-0.034-0.034-0.068-0.07-0.104-0.103c-0.035-0.036-0.072-0.074-0.107-0.108c-0.035-0.035-0.069-0.071-0.104-0.104    c-0.035-0.034-0.068-0.07-0.104-0.103c-0.036-0.036-0.072-0.074-0.108-0.109s-0.071-0.072-0.106-0.107s-0.071-0.072-0.106-0.106    c-0.034-0.034-0.067-0.07-0.103-0.103c-0.037-0.037-0.074-0.076-0.11-0.111c-0.038-0.037-0.075-0.075-0.112-0.111    c-0.033-0.033-0.066-0.067-0.099-0.099c-0.036-0.035-0.071-0.072-0.106-0.106c-0.035-0.036-0.072-0.073-0.107-0.108    c-0.034-0.034-0.068-0.07-0.104-0.103c-0.037-0.037-0.072-0.075-0.109-0.11c-0.033-0.034-0.067-0.069-0.102-0.101    c-0.037-0.038-0.074-0.076-0.111-0.112c-0.035-0.035-0.07-0.071-0.105-0.105c-0.035-0.035-0.068-0.071-0.104-0.104    c-0.035-0.036-0.071-0.073-0.106-0.107c-0.038-0.038-0.076-0.076-0.112-0.113c-0.035-0.033-0.068-0.067-0.102-0.1    c-0.035-0.035-0.069-0.071-0.104-0.104c-0.035-0.035-0.07-0.072-0.105-0.106c-0.036-0.036-0.071-0.073-0.107-0.107    c-0.035-0.037-0.072-0.074-0.109-0.109c-0.033-0.034-0.068-0.07-0.104-0.104c-0.035-0.036-0.07-0.073-0.107-0.107    c-0.037-0.037-0.073-0.075-0.11-0.111c-0.034-0.033-0.067-0.067-0.101-0.1c-0.037-0.036-0.072-0.074-0.108-0.109    c-0.033-0.033-0.065-0.067-0.101-0.1c-0.035-0.037-0.072-0.075-0.109-0.111c-0.036-0.036-0.072-0.073-0.107-0.108    c-0.035-0.035-0.07-0.071-0.104-0.104c-0.037-0.037-0.074-0.075-0.111-0.111c-1.075-1.065-2.056-1.653-2.409-1.875    c-1.533-0.954-3.558-2.046-5-3c-0.005-0.002-0.009-0.006-0.013-0.009c-0.004-0.005-0.008-0.009-0.013-0.014    c0,0.001,0,0.003,0,0.004c-0.01-0.007-0.021-0.019-0.032-0.026c-0.024-0.029-0.05-0.056-0.073-0.084    c-0.001,0.006-0.001,0.01-0.002,0.015c-0.033-0.042-0.068-0.08-0.104-0.122c-0.002,0.005-0.002,0.009-0.002,0.014    c-0.034-0.041-0.069-0.079-0.104-0.121c-0.001,0.006-0.001,0.01-0.002,0.015c-0.034-0.042-0.069-0.08-0.104-0.122    c0,0.006,0,0.01-0.002,0.016c-0.033-0.042-0.068-0.08-0.104-0.122c-0.001,0.005-0.001,0.01-0.002,0.015    c-0.034-0.041-0.068-0.08-0.104-0.122c-0.002,0.005-0.002,0.01-0.002,0.015c-0.035-0.041-0.07-0.08-0.104-0.122    c-0.001,0.006-0.001,0.01-0.002,0.016c-0.034-0.042-0.069-0.08-0.104-0.122c0,0.005,0,0.009-0.002,0.015    c-0.033-0.041-0.068-0.079-0.104-0.121c0,0.006-0.001,0.01-0.002,0.016c-0.035-0.042-0.07-0.08-0.105-0.122    c0,0.005-0.001,0.009-0.001,0.015c-0.034-0.042-0.069-0.08-0.104-0.122c0,0.006-0.002,0.01-0.002,0.015    c-0.034-0.042-0.069-0.08-0.104-0.122c0,0.006-0.001,0.01-0.001,0.015c-0.035-0.041-0.07-0.08-0.104-0.121    c0,0.005-0.002,0.01-0.002,0.015c-0.034-0.041-0.069-0.08-0.104-0.122c0,0.005-0.001,0.009-0.001,0.015    c-0.035-0.041-0.07-0.08-0.104-0.121c0,0.006-0.001,0.01-0.001,0.016c-0.035-0.042-0.07-0.08-0.105-0.122    c0,0.006-0.001,0.01-0.001,0.016c-0.035-0.042-0.07-0.08-0.105-0.122c0,0.005-0.001,0.01-0.001,0.015    c-0.035-0.041-0.07-0.08-0.105-0.122c0,0.005-0.001,0.01-0.001,0.015c-0.035-0.042-0.07-0.08-0.105-0.122    c0,0.005-0.001,0.009-0.001,0.014c-0.035-0.041-0.07-0.08-0.104-0.121c0,0.006-0.001,0.01-0.001,0.015    c-0.035-0.041-0.07-0.08-0.104-0.121c0,0.006-0.001,0.01-0.001,0.015c-0.035-0.041-0.07-0.08-0.105-0.122    c0,0.006-0.001,0.01-0.001,0.016c-0.035-0.042-0.07-0.08-0.105-0.122c0,0.006-0.001,0.01-0.001,0.016    c-0.035-0.042-0.07-0.08-0.104-0.121c0,0.005-0.001,0.01-0.001,0.015c-0.035-0.042-0.07-0.08-0.105-0.122    c0,0.005-0.001,0.009-0.001,0.015c-0.035-0.041-0.07-0.08-0.104-0.121c0,0.005-0.001,0.01-0.001,0.015    c-0.035-0.042-0.07-0.08-0.105-0.122c0,0.005-0.001,0.01-0.001,0.015c-0.035-0.041-0.07-0.08-0.105-0.122    c-0.202,1.994-0.307,2.422-1,3c-1.475,1.156-2.971,1.885-4.242,2.578c-1.628,0.836-6.758,3.896-6.758,11.422    c0,3.745,1.553,7.006,3.979,9.325c0.036,0.035,0.07,0.072,0.106,0.105c0.036,0.035,0.071,0.072,0.107,0.107    c0.037,0.035,0.071,0.072,0.108,0.107c0.036,0.034,0.069,0.07,0.105,0.104c0.037,0.034,0.072,0.071,0.108,0.106    c0.035,0.034,0.067,0.069,0.103,0.104c0.036,0.035,0.07,0.072,0.106,0.107s0.071,0.071,0.107,0.106    c0.037,0.036,0.072,0.073,0.11,0.108c0.034,0.033,0.066,0.067,0.1,0.102c0.038,0.037,0.074,0.075,0.113,0.111    c0.034,0.033,0.067,0.068,0.102,0.103c0.037,0.036,0.072,0.074,0.11,0.109c0.035,0.034,0.067,0.069,0.102,0.103    c0.037,0.036,0.072,0.074,0.109,0.109c0.035,0.033,0.068,0.07,0.104,0.104c0.038,0.037,0.073,0.075,0.111,0.111    c0.034,0.033,0.066,0.066,0.101,0.102c0.036,0.035,0.07,0.071,0.107,0.106c0.037,0.036,0.073,0.074,0.11,0.11    c0.035,0.033,0.069,0.07,0.104,0.104c0.036,0.035,0.07,0.072,0.106,0.105c0.035,0.035,0.068,0.07,0.104,0.104    c0.038,0.037,0.074,0.075,0.111,0.111c0.035,0.034,0.068,0.069,0.104,0.103c0.036,0.036,0.071,0.073,0.108,0.108    c0.034,0.033,0.065,0.067,0.1,0.101c0.038,0.037,0.075,0.076,0.114,0.113c0.035,0.034,0.068,0.07,0.104,0.104    c0.036,0.035,0.07,0.072,0.106,0.106c0.035,0.034,0.068,0.07,0.104,0.104c0.037,0.035,0.072,0.074,0.11,0.108    c0.036,0.035,0.069,0.071,0.105,0.105c0.036,0.034,0.071,0.071,0.107,0.106c0.035,0.033,0.068,0.069,0.103,0.104    c0.037,0.035,0.071,0.072,0.108,0.109c0.036,0.034,0.071,0.071,0.107,0.105c0.036,0.035,0.07,0.07,0.105,0.105    c0.037,0.035,0.072,0.072,0.109,0.107c0.034,0.033,0.065,0.066,0.1,0.102c0.038,0.037,0.074,0.074,0.113,0.111    c0.034,0.033,0.067,0.068,0.102,0.102c0.037,0.037,0.073,0.076,0.111,0.111c0.036,0.034,0.069,0.07,0.105,0.104    c0.035,0.034,0.068,0.069,0.104,0.104c0.036,0.034,0.071,0.071,0.107,0.106c0.037,0.036,0.073,0.073,0.11,0.11    c0.034,0.033,0.066,0.066,0.101,0.101c0.037,0.036,0.071,0.073,0.108,0.108c0.036,0.035,0.071,0.071,0.107,0.106    c0.036,0.034,0.069,0.07,0.104,0.104c0.037,0.035,0.071,0.072,0.107,0.106c0.036,0.035,0.069,0.071,0.105,0.104    c0.037,0.035,0.071,0.072,0.108,0.107c0.036,0.036,0.071,0.072,0.107,0.107c0.036,0.033,0.069,0.07,0.105,0.104    c0.036,0.035,0.07,0.072,0.106,0.106s0.07,0.071,0.106,0.106c0.036,0.034,0.07,0.071,0.106,0.105    c0.036,0.035,0.071,0.072,0.107,0.107c0.035,0.033,0.069,0.069,0.104,0.104c0.036,0.035,0.071,0.072,0.107,0.107    c0.036,0.035,0.07,0.07,0.107,0.105c0.036,0.035,0.069,0.071,0.105,0.105c0.036,0.035,0.07,0.072,0.106,0.105    c0.036,0.035,0.07,0.072,0.106,0.105c0.036,0.035,0.07,0.072,0.106,0.106c0.036,0.035,0.07,0.072,0.106,0.106    c0.037,0.035,0.072,0.072,0.108,0.107c0.034,0.032,0.065,0.067,0.099,0.101c0.038,0.036,0.075,0.075,0.113,0.112    c0.035,0.035,0.069,0.07,0.104,0.104c0.036,0.035,0.07,0.071,0.106,0.106c0.036,0.035,0.07,0.071,0.106,0.105    c0.036,0.035,0.07,0.072,0.106,0.105c0.036,0.035,0.071,0.072,0.107,0.107c0.036,0.034,0.069,0.07,0.105,0.104    c0.035,0.035,0.069,0.072,0.105,0.105c0.037,0.036,0.073,0.074,0.11,0.11c0.034,0.032,0.067,0.067,0.102,0.103    c0.036,0.034,0.07,0.071,0.107,0.106c0.037,0.036,0.072,0.073,0.109,0.108c0.038,0.037,0.073,0.073,0.111,0.109    c0.033,0.032,0.064,0.064,0.097,0.098c0.037,0.035,0.071,0.073,0.108,0.108c0.037,0.035,0.071,0.072,0.107,0.106    c0.036,0.035,0.07,0.072,0.106,0.106c0.036,0.035,0.07,0.072,0.106,0.106c0.036,0.035,0.069,0.07,0.105,0.104    c0.037,0.035,0.071,0.073,0.108,0.108c0.035,0.035,0.069,0.07,0.105,0.105s0.071,0.071,0.107,0.106    c0.035,0.034,0.068,0.069,0.104,0.104c0.036,0.034,0.071,0.071,0.107,0.106c0.037,0.036,0.072,0.073,0.109,0.108    c0.033,0.033,0.065,0.067,0.101,0.102c0.038,0.037,0.073,0.075,0.112,0.111c0.033,0.033,0.064,0.068,0.1,0.101    c0.038,0.037,0.074,0.075,0.111,0.112c0.037,0.035,0.069,0.07,0.105,0.105c0.035,0.033,0.068,0.068,0.104,0.104    c0.037,0.035,0.071,0.072,0.108,0.107c0.035,0.034,0.069,0.071,0.106,0.105c0.033,0.033,0.066,0.07,0.104,0.104    c0.037,0.036,0.072,0.074,0.109,0.109c0.035,0.036,0.07,0.072,0.107,0.107c0.035,0.035,0.069,0.07,0.105,0.104    c0.033,0.034,0.066,0.069,0.104,0.104s0.071,0.072,0.109,0.108c0.034,0.034,0.066,0.069,0.102,0.103    c0.037,0.037,0.072,0.074,0.109,0.108c0.035,0.035,0.068,0.072,0.105,0.106c0.035,0.035,0.07,0.07,0.105,0.105    c0.035,0.034,0.067,0.069,0.104,0.104c0.037,0.037,0.074,0.076,0.113,0.111c0.033,0.035,0.067,0.07,0.104,0.104    c0.035,0.034,0.068,0.069,0.104,0.104c0.037,0.035,0.072,0.072,0.109,0.107c0.035,0.035,0.068,0.071,0.105,0.105    c0.035,0.035,0.07,0.072,0.106,0.107c0.035,0.033,0.067,0.068,0.103,0.102c0.037,0.037,0.072,0.074,0.109,0.109    c0.035,0.035,0.069,0.071,0.104,0.105c0.037,0.035,0.07,0.07,0.106,0.105c0.035,0.034,0.067,0.069,0.103,0.104    c0.039,0.037,0.076,0.076,0.115,0.113c0.034,0.035,0.067,0.069,0.104,0.104c0.035,0.034,0.068,0.07,0.104,0.104    c0.037,0.037,0.072,0.074,0.11,0.11c0.035,0.034,0.067,0.069,0.104,0.104c0.035,0.035,0.07,0.072,0.106,0.106    c0.036,0.035,0.069,0.071,0.106,0.105c0.035,0.036,0.07,0.073,0.107,0.108c0.034,0.033,0.067,0.068,0.102,0.103    c0.037,0.034,0.072,0.073,0.108,0.108c0.036,0.034,0.07,0.07,0.106,0.105c0.035,0.035,0.07,0.07,0.105,0.105    s0.069,0.071,0.106,0.105c0.036,0.036,0.071,0.074,0.108,0.109c0.035,0.033,0.066,0.067,0.102,0.101    c0.036,0.036,0.07,0.074,0.107,0.108c0.037,0.035,0.07,0.072,0.106,0.106c0.035,0.034,0.069,0.07,0.104,0.104    c0.037,0.035,0.07,0.072,0.107,0.107c0.036,0.035,0.071,0.072,0.107,0.107c0.035,0.035,0.068,0.07,0.104,0.104    c0.035,0.035,0.069,0.072,0.106,0.106c0.035,0.035,0.068,0.071,0.105,0.106c0.034,0.033,0.066,0.068,0.103,0.103    c0.038,0.037,0.073,0.075,0.11,0.11c0.035,0.035,0.068,0.07,0.104,0.104c0.037,0.036,0.071,0.074,0.11,0.11    c0.035,0.033,0.067,0.068,0.104,0.103c0.035,0.035,0.068,0.072,0.105,0.106c0.035,0.035,0.069,0.072,0.106,0.105    c0.035,0.035,0.069,0.072,0.106,0.106c0.033,0.034,0.066,0.069,0.101,0.103c0.038,0.037,0.074,0.075,0.113,0.112    c0.036,0.035,0.069,0.071,0.106,0.106c0.033,0.033,0.064,0.066,0.1,0.1c0.039,0.038,0.076,0.078,0.115,0.115    c0.035,0.033,0.068,0.07,0.104,0.104c0.034,0.034,0.066,0.068,0.102,0.102c0.037,0.037,0.073,0.076,0.111,0.111    c0.035,0.035,0.068,0.07,0.104,0.104c0.037,0.034,0.068,0.069,0.104,0.104c0.038,0.036,0.074,0.074,0.111,0.11    c0.034,0.033,0.067,0.067,0.102,0.103c0.037,0.034,0.072,0.072,0.109,0.107c0.034,0.035,0.069,0.072,0.106,0.105    c0.035,0.037,0.07,0.074,0.106,0.108c0.035,0.034,0.067,0.069,0.104,0.103c0.035,0.035,0.069,0.072,0.105,0.107    c0.037,0.036,0.072,0.073,0.109,0.108c0.033,0.034,0.066,0.069,0.103,0.103c0.036,0.036,0.071,0.073,0.108,0.108    c0.035,0.034,0.068,0.071,0.105,0.106c0.035,0.034,0.07,0.071,0.106,0.105c0.034,0.035,0.069,0.07,0.104,0.105    s0.07,0.071,0.106,0.106s0.069,0.071,0.106,0.104c0.034,0.035,0.068,0.072,0.105,0.106c0.035,0.035,0.068,0.072,0.105,0.106    c0.035,0.035,0.069,0.072,0.106,0.105c0.035,0.035,0.069,0.071,0.104,0.105c0.037,0.035,0.072,0.074,0.109,0.109    c0.034,0.033,0.067,0.068,0.102,0.103c0.037,0.034,0.072,0.071,0.108,0.106c0.035,0.035,0.069,0.072,0.106,0.106    c0.035,0.034,0.068,0.071,0.105,0.106c0.035,0.034,0.069,0.071,0.106,0.105c0.034,0.035,0.069,0.072,0.106,0.105    c0.034,0.035,0.068,0.072,0.105,0.106c0.036,0.036,0.07,0.072,0.107,0.106c0.035,0.035,0.067,0.07,0.104,0.104    c0.036,0.036,0.07,0.073,0.107,0.108c0.035,0.035,0.069,0.07,0.105,0.104c0.035,0.035,0.068,0.072,0.105,0.106    c0.037,0.035,0.07,0.072,0.106,0.107c0.036,0.033,0.069,0.069,0.104,0.104c0.037,0.035,0.07,0.072,0.106,0.105    c0.036,0.036,0.07,0.073,0.107,0.107c0.034,0.035,0.069,0.07,0.104,0.105c0.036,0.035,0.07,0.071,0.106,0.105    c0.034,0.035,0.069,0.072,0.106,0.105c0.034,0.035,0.068,0.072,0.105,0.106c0.035,0.035,0.068,0.072,0.105,0.106    c0.035,0.033,0.068,0.07,0.104,0.104c0.036,0.035,0.069,0.071,0.104,0.105c0.039,0.037,0.076,0.076,0.113,0.113    c0.034,0.033,0.067,0.067,0.104,0.102c0.035,0.035,0.068,0.072,0.105,0.105c0.035,0.035,0.069,0.072,0.106,0.106    c0.034,0.035,0.069,0.071,0.106,0.106c0.033,0.033,0.066,0.068,0.103,0.104c0.036,0.036,0.071,0.074,0.11,0.109    c0.035,0.035,0.069,0.072,0.106,0.107c0.035,0.034,0.067,0.069,0.104,0.104c0.035,0.035,0.068,0.072,0.105,0.106    c0.035,0.035,0.068,0.072,0.105,0.106c0.035,0.035,0.069,0.072,0.106,0.105c0.037,0.036,0.072,0.074,0.11,0.11    c0.033,0.032,0.066,0.067,0.103,0.103c0.034,0.033,0.066,0.068,0.101,0.103c0.039,0.037,0.076,0.075,0.113,0.112    c0.034,0.033,0.067,0.068,0.103,0.103c0.036,0.035,0.071,0.073,0.108,0.108c0.035,0.035,0.069,0.072,0.106,0.105    c0.036,0.035,0.069,0.072,0.106,0.107c0.035,0.033,0.068,0.07,0.104,0.104c0.037,0.035,0.07,0.072,0.107,0.108    c0.035,0.034,0.07,0.069,0.105,0.104c0.035,0.034,0.07,0.071,0.105,0.105c0.035,0.035,0.07,0.072,0.106,0.105    c0.035,0.035,0.069,0.072,0.106,0.106c0.033,0.034,0.066,0.069,0.103,0.104c0.038,0.037,0.074,0.075,0.113,0.111    c0.034,0.034,0.067,0.069,0.103,0.104c0.037,0.035,0.069,0.07,0.105,0.105s0.07,0.072,0.107,0.107    c0.035,0.035,0.069,0.07,0.105,0.104c0.035,0.035,0.068,0.072,0.105,0.106c0.035,0.035,0.069,0.072,0.106,0.105    c0.035,0.035,0.069,0.072,0.106,0.106c0.035,0.036,0.07,0.073,0.107,0.108c0.033,0.032,0.065,0.066,0.1,0.1    c0.037,0.037,0.074,0.076,0.113,0.111c0.034,0.035,0.067,0.07,0.104,0.104c0.035,0.035,0.068,0.072,0.105,0.106    c0.035,0.035,0.069,0.072,0.106,0.105c0.035,0.035,0.069,0.072,0.106,0.105c0.035,0.037,0.069,0.072,0.106,0.107    c0.035,0.035,0.067,0.07,0.104,0.104c0.035,0.034,0.068,0.071,0.104,0.106c0.036,0.034,0.069,0.07,0.106,0.105    c0.035,0.035,0.07,0.072,0.106,0.105c0.035,0.035,0.069,0.072,0.106,0.106c0.035,0.035,0.068,0.071,0.105,0.106    c0.035,0.033,0.068,0.069,0.104,0.104c0.038,0.037,0.073,0.075,0.112,0.111c0.033,0.033,0.065,0.067,0.102,0.102    c0.036,0.036,0.07,0.072,0.107,0.107c0.035,0.035,0.068,0.072,0.105,0.105c0.035,0.035,0.068,0.072,0.105,0.106    c0.035,0.034,0.069,0.071,0.106,0.106c0.035,0.033,0.067,0.069,0.104,0.104c0.037,0.037,0.072,0.074,0.109,0.109    c0.035,0.034,0.068,0.069,0.104,0.104c0.037,0.035,0.072,0.071,0.107,0.106c0.036,0.035,0.07,0.071,0.106,0.105    c0.034,0.035,0.069,0.072,0.106,0.105c0.034,0.035,0.068,0.072,0.105,0.106c0.036,0.036,0.07,0.073,0.107,0.108    c0.035,0.033,0.065,0.068,0.101,0.101c0.039,0.037,0.075,0.076,0.114,0.113c0.033,0.032,0.063,0.065,0.098,0.099    c0.038,0.037,0.074,0.076,0.113,0.112c0.035,0.035,0.068,0.069,0.104,0.104c0.035,0.034,0.069,0.071,0.105,0.105    c0.035,0.035,0.07,0.072,0.107,0.105c0.035,0.037,0.07,0.073,0.107,0.109c0.033,0.033,0.066,0.066,0.102,0.102    c0.037,0.037,0.073,0.074,0.111,0.11c0.034,0.033,0.066,0.068,0.102,0.101c0.035,0.037,0.07,0.074,0.108,0.109    c0.035,0.035,0.069,0.072,0.106,0.106c0.035,0.034,0.068,0.071,0.105,0.106c0.035,0.034,0.069,0.071,0.105,0.105    c0.037,0.035,0.072,0.072,0.108,0.107c0.034,0.033,0.065,0.068,0.101,0.102c0.037,0.036,0.072,0.074,0.109,0.109    c0.036,0.035,0.07,0.071,0.106,0.105c0.034,0.035,0.069,0.072,0.106,0.105c0.034,0.035,0.068,0.072,0.105,0.106    c0.035,0.034,0.068,0.07,0.104,0.104c0.037,0.035,0.073,0.074,0.11,0.109c0.036,0.035,0.071,0.072,0.106,0.106    c0.035,0.032,0.066,0.067,0.102,0.102c0.036,0.035,0.07,0.071,0.105,0.106c0.037,0.037,0.074,0.074,0.111,0.111    C57.26,77.583,60.566,79,64.084,79c6.966,0,13.006-5.059,13.006-12.717C77.09,61.463,75.033,58.473,73.275,56.771z" enable-background="new    " fill="url(#SVGID_3_)" opacity="0.5"/></g></g><path d="M38.969,23c-1.531-0.955-3.557-2.047-5-3c-0.896-0.607-1.959-1.758-3-3  c-0.201,1.994-0.307,2.422-1,3c-1.475,1.156-2.971,1.885-4.242,2.578C24.1,23.414,18.97,26.474,18.97,34c0,7.457,6.15,13,13.115,13  c6.967,0,13.006-5.059,13.006-12.717C45.09,26.623,39.895,23.578,38.969,23z M38.668,44.279c-0.145,0.145-1.475,1.07-3.035,1.215  c-1.56,0.145-3.67,0.23-4.942-0.926c-0.203-0.201-0.145-0.492,0-0.607c0.145-0.113,0.26-0.201,0.434-0.201s0.145,0,0.23,0.059  c0.578,0.464,1.445,0.839,3.295,0.839c1.852,0,3.149-0.521,3.729-0.953c0.261-0.203,0.375-0.029,0.402,0.086  C38.813,43.904,38.869,44.076,38.668,44.279z M33.609,41.65c0.317-0.289,0.84-0.752,1.33-0.955c0.492-0.201,0.752-0.174,1.215-0.174  c0.461,0,0.953,0.028,1.301,0.262c0.348,0.23,0.549,0.75,0.664,1.039s0,0.463-0.23,0.578c-0.203,0.115-0.229,0.059-0.434-0.318  c-0.203-0.375-0.377-0.75-1.389-0.75s-1.328,0.348-1.82,0.75c-0.49,0.406-0.664,0.551-0.838,0.318  C33.234,42.17,33.293,41.938,33.609,41.65z M40.969,42c-1.039-0.086-2.67-2.941-4-3c-1.676-0.059-5.139,3-8,3  c-1.732,0-2.422-0.625-3-1c-0.867-0.607-2.029-1.729-2-3c0.027-2.256,2.341-3.971,5-4c3.381-0.027,6.295,3.027,8,3  c1.445-0.029,3.643-3,5-3c1.445,0,2,2.104,2,3s-0.07,2.539-0.764,3.551C42.512,41.564,41.779,42.059,40.969,42z" fill="#FFFFFF" id="Drupicon_2_"/></svg>