<?xml version="1.0" ?><!DOCTYPE svg  PUBLIC '-//W3C//DTD SVG 1.1//EN'  'http://www.w3.org/Graphics/SVG/1.1/DTD/svg11.dtd'><svg enable-background="new 0 0 64 64" height="64px" id="Safari" version="1.1" viewBox="0 0 64 64" width="64px" xml:space="preserve" xmlns="http://www.w3.org/2000/svg" xmlns:xlink="http://www.w3.org/1999/xlink"><linearGradient gradientTransform="matrix(1 0 0 1 -2192 -2908)" gradientUnits="userSpaceOnUse" id="Circle_Shadow_1_" x1="2256.0293" x2="2224.03" y1="2972" y2="2940.0007"><stop offset="0.3163" style="stop-color:#FFFFFF;stop-opacity:0"/><stop offset="0.3508" style="stop-color:#E9E9E9;stop-opacity:0.0504"/><stop offset="0.4543" style="stop-color:#ACACAC;stop-opacity:0.2018"/><stop offset="0.5572" style="stop-color:#787878;stop-opacity:0.3523"/><stop offset="0.6569" style="stop-color:#4D4D4D;stop-opacity:0.4981"/><stop offset="0.7528" style="stop-color:#2B2B2B;stop-opacity:0.6385"/><stop offset="0.8441" style="stop-color:#131313;stop-opacity:0.7719"/><stop offset="0.9286" style="stop-color:#050505;stop-opacity:0.8956"/><stop offset="1" style="stop-color:#000000"/></linearGradient><polygon enable-background="new    " fill="url(#Circle_Shadow_1_)" id="Circle_Shadow" opacity="0.2" points="64.029,64   64.029,30.059 49,15.029 15.059,48.971 30.088,64 "/><circle cx="32" cy="32" fill="#90A1AF" id="Circle" r="24"/><g id="S_shadow"><g><g><defs><circle cx="32.029" cy="32" id="SVGID_1_" r="24"/></defs><clipPath id="SVGID_2_"><use overflow="visible" xlink:href="#SVGID_1_"/></clipPath><linearGradient gradientTransform="matrix(1 0 0 1 -548 -727)" gradientUnits="userSpaceOnUse" id="SVGID_3_" x1="622.4551" x2="569.4773" y1="801.2871" y2="748.3093"><stop offset="0.5663" style="stop-color:#000000;stop-opacity:0"/><stop offset="0.6232" style="stop-color:#000000;stop-opacity:0.131"/><stop offset="1" style="stop-color:#000000"/></linearGradient><path clip-path="url(#SVGID_2_)" d="M74.546,53.005     c-0.037-0.037-0.073-0.073-0.11-0.11c-0.035-0.033-0.067-0.064-0.103-0.1s-0.069-0.068-0.106-0.104     c-0.033-0.035-0.066-0.069-0.104-0.104c-0.037-0.037-0.074-0.073-0.111-0.11c-0.033-0.035-0.068-0.066-0.104-0.103     c-0.036-0.036-0.071-0.069-0.106-0.104c-0.036-0.037-0.071-0.07-0.108-0.106c-0.033-0.035-0.069-0.07-0.105-0.104     c-0.031-0.033-0.066-0.065-0.104-0.102c-0.034-0.036-0.07-0.071-0.106-0.105c-0.034-0.035-0.069-0.07-0.104-0.104     c-0.035-0.037-0.072-0.072-0.109-0.108c-0.033-0.035-0.068-0.068-0.104-0.103c-0.035-0.035-0.07-0.07-0.105-0.104     c-0.036-0.037-0.073-0.072-0.109-0.108c-0.033-0.033-0.068-0.066-0.104-0.103c-0.036-0.035-0.068-0.068-0.104-0.102     c-0.035-0.037-0.072-0.073-0.109-0.109c-0.035-0.035-0.072-0.072-0.108-0.107c-0.035-0.034-0.069-0.067-0.104-0.104     c-0.034-0.035-0.068-0.066-0.104-0.104c-0.035-0.035-0.07-0.069-0.105-0.104c-0.035-0.036-0.072-0.071-0.108-0.106     c-0.033-0.034-0.067-0.066-0.103-0.102s-0.069-0.07-0.104-0.105c-0.038-0.036-0.075-0.072-0.112-0.109     c-0.033-0.034-0.068-0.066-0.104-0.104c-0.036-0.035-0.07-0.067-0.105-0.104s-0.07-0.07-0.104-0.105     c-0.037-0.037-0.074-0.071-0.111-0.107c-0.032-0.034-0.067-0.066-0.104-0.102c-0.032-0.035-0.064-0.066-0.1-0.102     c-0.037-0.037-0.076-0.074-0.113-0.111c-0.035-0.035-0.071-0.07-0.105-0.104c-0.034-0.035-0.068-0.068-0.104-0.104     c-0.035-0.035-0.07-0.07-0.105-0.104c-0.036-0.036-0.073-0.072-0.109-0.107c-0.033-0.033-0.068-0.066-0.104-0.102     c-0.034-0.036-0.07-0.071-0.105-0.105c-0.035-0.035-0.068-0.068-0.104-0.104c-0.036-0.038-0.074-0.075-0.112-0.112     c-0.033-0.034-0.066-0.065-0.104-0.103c-0.035-0.035-0.069-0.068-0.104-0.104c-0.034-0.035-0.071-0.068-0.104-0.104     c-0.035-0.034-0.069-0.068-0.104-0.104c-0.036-0.036-0.073-0.071-0.11-0.108c-0.033-0.035-0.067-0.067-0.104-0.104     c-0.035-0.035-0.07-0.07-0.105-0.105c-0.037-0.037-0.074-0.072-0.11-0.108c-0.034-0.034-0.068-0.067-0.103-0.101     c-0.035-0.035-0.072-0.07-0.106-0.105c-0.037-0.037-0.073-0.072-0.11-0.109c-0.031-0.031-0.063-0.063-0.097-0.096     c-0.037-0.038-0.074-0.074-0.112-0.111c-0.033-0.035-0.068-0.067-0.104-0.103c-0.037-0.038-0.074-0.074-0.111-0.11     c-0.033-0.035-0.066-0.065-0.102-0.102c-0.035-0.035-0.072-0.07-0.107-0.105c-0.034-0.035-0.068-0.067-0.104-0.104     c-0.037-0.037-0.076-0.074-0.112-0.111c-0.031-0.031-0.063-0.063-0.097-0.095c-0.039-0.038-0.076-0.076-0.115-0.114     c-0.032-0.033-0.065-0.064-0.1-0.1c-0.037-0.036-0.074-0.072-0.111-0.109c-0.034-0.035-0.069-0.068-0.104-0.104     c-0.035-0.034-0.07-0.069-0.105-0.104c-0.035-0.034-0.07-0.069-0.105-0.104c-0.035-0.034-0.07-0.068-0.105-0.104     c-0.035-0.034-0.069-0.067-0.104-0.104c-0.035-0.036-0.071-0.07-0.106-0.105c-0.035-0.037-0.072-0.072-0.109-0.107     c-0.035-0.035-0.068-0.067-0.104-0.103c-0.035-0.034-0.07-0.069-0.105-0.104s-0.07-0.069-0.105-0.105     c-0.037-0.036-0.072-0.07-0.109-0.105c-0.032-0.032-0.063-0.064-0.098-0.099c-0.037-0.036-0.074-0.073-0.111-0.11     c-0.034-0.035-0.071-0.069-0.106-0.105c-0.036-0.035-0.071-0.07-0.108-0.105c-0.031-0.033-0.064-0.064-0.1-0.1     c-0.036-0.037-0.072-0.072-0.109-0.107c-0.035-0.037-0.072-0.072-0.109-0.107c-0.033-0.035-0.068-0.068-0.104-0.104     c-0.037-0.037-0.066-0.066-0.103-0.102c-0.037-0.038-0.074-0.074-0.11-0.111c-0.037-0.033-0.072-0.068-0.107-0.104     c-0.033-0.035-0.068-0.068-0.104-0.104s-0.071-0.07-0.106-0.105c-0.035-0.034-0.07-0.069-0.105-0.104     c-0.033-0.037-0.068-0.07-0.104-0.105c-0.034-0.034-0.069-0.068-0.106-0.104c-0.035-0.037-0.071-0.072-0.108-0.107     c-0.033-0.035-0.066-0.068-0.104-0.104c-0.035-0.036-0.072-0.071-0.107-0.106s-0.07-0.068-0.104-0.104     c-0.035-0.036-0.072-0.071-0.108-0.106c-0.033-0.033-0.068-0.066-0.103-0.103c-0.035-0.034-0.07-0.069-0.104-0.104     c-0.037-0.035-0.072-0.069-0.107-0.105c-0.035-0.035-0.07-0.07-0.105-0.105c-0.037-0.037-0.074-0.071-0.111-0.107     c-0.033-0.034-0.067-0.066-0.102-0.102c-0.033-0.034-0.068-0.067-0.104-0.104c-0.037-0.037-0.075-0.074-0.112-0.111     c-0.033-0.033-0.067-0.067-0.104-0.104c-0.033-0.033-0.067-0.066-0.104-0.104c-0.035-0.035-0.072-0.07-0.107-0.105     c-0.037-0.037-0.074-0.073-0.111-0.109c-0.032-0.033-0.067-0.066-0.102-0.102c-0.035-0.034-0.07-0.068-0.105-0.104     c-0.034-0.037-0.071-0.07-0.106-0.105c-0.034-0.037-0.071-0.07-0.106-0.105c-0.033-0.035-0.066-0.068-0.103-0.104     s-0.073-0.071-0.11-0.108c-0.035-0.034-0.068-0.067-0.104-0.103c-0.035-0.037-0.072-0.072-0.109-0.108     c-0.033-0.034-0.067-0.067-0.104-0.103c-0.036-0.036-0.07-0.07-0.105-0.105s-0.068-0.068-0.104-0.104     c-0.039-0.037-0.076-0.074-0.115-0.111c-0.031-0.033-0.064-0.064-0.098-0.098c-0.037-0.037-0.074-0.074-0.111-0.11     c-0.035-0.035-0.07-0.069-0.107-0.104c-0.032-0.035-0.065-0.065-0.1-0.101c-0.037-0.037-0.074-0.073-0.111-0.11     c-0.033-0.033-0.067-0.065-0.102-0.101c-0.039-0.038-0.076-0.075-0.113-0.112c-0.033-0.033-0.066-0.065-0.102-0.1     s-0.07-0.068-0.104-0.104c-0.037-0.037-0.072-0.071-0.108-0.106c-0.037-0.037-0.074-0.073-0.111-0.108     c-0.032-0.033-0.065-0.064-0.101-0.101c-0.034-0.035-0.071-0.071-0.108-0.108c-0.034-0.033-0.069-0.066-0.104-0.103     c-0.034-0.037-0.068-0.07-0.104-0.104c-0.035-0.035-0.07-0.07-0.105-0.105c-0.037-0.035-0.072-0.07-0.108-0.106     c-0.035-0.034-0.072-0.069-0.106-0.104c-0.033-0.035-0.067-0.067-0.103-0.103s-0.072-0.072-0.108-0.109     c-0.037-0.034-0.072-0.069-0.109-0.105c-0.031-0.031-0.064-0.063-0.098-0.097c-0.037-0.037-0.072-0.072-0.109-0.109     c-0.035-0.036-0.072-0.071-0.107-0.106c-0.035-0.033-0.07-0.068-0.104-0.104c-0.036-0.037-0.073-0.072-0.11-0.107     c-0.03-0.033-0.063-0.066-0.101-0.101c-0.036-0.036-0.074-0.073-0.112-0.11c-0.033-0.033-0.065-0.066-0.101-0.101     c-0.037-0.037-0.073-0.073-0.109-0.108c-0.034-0.035-0.071-0.07-0.105-0.105c-0.035-0.034-0.07-0.068-0.104-0.104     c-0.034-0.033-0.069-0.068-0.104-0.104s-0.07-0.069-0.105-0.104c-0.037-0.037-0.073-0.072-0.11-0.109     c-0.032-0.033-0.065-0.064-0.101-0.1c-0.035-0.033-0.069-0.068-0.106-0.104c-0.034-0.037-0.071-0.072-0.108-0.107     c-0.035-0.037-0.071-0.072-0.107-0.108c-0.033-0.033-0.068-0.065-0.104-0.101s-0.07-0.07-0.105-0.106     c-0.035-0.033-0.07-0.067-0.104-0.104c-0.035-0.035-0.071-0.07-0.106-0.104c-0.037-0.037-0.074-0.072-0.108-0.108     c-0.035-0.033-0.067-0.066-0.104-0.101c-0.034-0.035-0.071-0.07-0.105-0.106c-0.037-0.035-0.074-0.072-0.109-0.107     c-0.035-0.033-0.07-0.068-0.104-0.104s-0.071-0.07-0.106-0.104c-0.033-0.033-0.066-0.068-0.103-0.103     c-0.036-0.038-0.073-0.073-0.11-0.11c-0.035-0.035-0.069-0.068-0.104-0.104c-0.037-0.035-0.073-0.071-0.108-0.106     c-0.035-0.033-0.069-0.068-0.104-0.104c-0.034-0.034-0.069-0.068-0.104-0.104c-0.035-0.037-0.072-0.072-0.108-0.107     c-0.034-0.035-0.068-0.068-0.104-0.104c-0.035-0.035-0.07-0.069-0.104-0.104c-0.036-0.035-0.07-0.069-0.107-0.104     c-0.034-0.035-0.069-0.068-0.104-0.104c-0.036-0.037-0.072-0.071-0.108-0.106c-0.035-0.035-0.07-0.068-0.105-0.104     c-0.032-0.033-0.066-0.065-0.102-0.103c-0.037-0.037-0.076-0.074-0.115-0.113c-0.031-0.032-0.066-0.064-0.102-0.1     s-0.07-0.07-0.107-0.104c-0.033-0.035-0.067-0.069-0.104-0.104c-0.035-0.035-0.07-0.07-0.105-0.105s-0.07-0.07-0.105-0.104     c-0.036-0.037-0.073-0.072-0.11-0.109c-0.03-0.032-0.063-0.063-0.099-0.098c-0.036-0.037-0.073-0.072-0.11-0.109     c-0.034-0.036-0.073-0.071-0.108-0.108c-0.034-0.032-0.068-0.065-0.104-0.101c-0.035-0.036-0.069-0.071-0.106-0.107     c-0.033-0.035-0.068-0.068-0.104-0.103c-0.033-0.035-0.069-0.07-0.104-0.105c-0.035-0.036-0.071-0.072-0.108-0.108     c-0.035-0.036-0.069-0.07-0.104-0.104c-0.035-0.035-0.068-0.068-0.104-0.103c-0.036-0.036-0.073-0.072-0.107-0.108     c-0.035-0.036-0.072-0.07-0.106-0.105c-0.035-0.036-0.071-0.07-0.106-0.105s-0.07-0.07-0.104-0.104     c-0.035-0.034-0.069-0.069-0.104-0.103c-0.034-0.037-0.073-0.073-0.11-0.11c-0.033-0.035-0.068-0.069-0.104-0.103     c-0.032-0.035-0.067-0.068-0.104-0.103c-0.034-0.036-0.069-0.07-0.104-0.105c-0.035-0.036-0.071-0.071-0.106-0.106     c-0.037-0.037-0.073-0.073-0.11-0.109c-0.033-0.034-0.067-0.066-0.103-0.1c-0.035-0.036-0.07-0.071-0.107-0.107     c-0.033-0.034-0.067-0.067-0.102-0.101c-0.037-0.037-0.074-0.073-0.111-0.11c-0.033-0.035-0.069-0.069-0.104-0.104     c-0.036-0.036-0.073-0.072-0.108-0.108c-0.032-0.033-0.066-0.066-0.102-0.099c-0.037-0.038-0.074-0.075-0.111-0.112     c-0.035-0.035-0.068-0.068-0.104-0.102c-0.035-0.035-0.068-0.069-0.104-0.104c-0.035-0.036-0.07-0.071-0.106-0.106     c-0.035-0.036-0.071-0.071-0.106-0.106s-0.068-0.069-0.104-0.104s-0.071-0.07-0.105-0.105c-0.035-0.036-0.072-0.071-0.106-0.106     c-0.035-0.035-0.069-0.068-0.104-0.103c-0.035-0.037-0.072-0.073-0.109-0.109c-0.033-0.035-0.069-0.069-0.104-0.104     c-0.033-0.034-0.068-0.068-0.104-0.102c-0.035-0.037-0.072-0.072-0.109-0.109c-0.033-0.035-0.068-0.068-0.104-0.103     c-0.037-0.036-0.072-0.071-0.109-0.107c-0.034-0.035-0.068-0.068-0.104-0.103c-0.037-0.036-0.072-0.071-0.108-0.107     c-0.033-0.034-0.067-0.066-0.101-0.1c-0.037-0.038-0.076-0.075-0.113-0.112c-0.033-0.034-0.067-0.067-0.104-0.101     c-0.035-0.037-0.072-0.072-0.107-0.109c-0.035-0.035-0.07-0.068-0.104-0.103c-0.036-0.036-0.071-0.071-0.108-0.107     c-0.034-0.035-0.069-0.069-0.104-0.104c-0.034-0.035-0.069-0.07-0.104-0.104c-0.033-0.034-0.065-0.066-0.101-0.099     c-0.039-0.039-0.077-0.077-0.114-0.115c-0.035-0.034-0.068-0.067-0.104-0.102s-0.071-0.07-0.104-0.105     c-0.035-0.036-0.072-0.071-0.107-0.106c-0.034-0.035-0.069-0.068-0.104-0.103c-0.037-0.037-0.074-0.073-0.108-0.109     c-0.034-0.035-0.069-0.068-0.104-0.103c-0.035-0.035-0.068-0.068-0.104-0.103c-0.035-0.036-0.071-0.071-0.107-0.107     c-0.035-0.037-0.072-0.073-0.109-0.109c-0.032-0.034-0.066-0.068-0.104-0.102c-0.035-0.035-0.07-0.07-0.105-0.104     c-0.035-0.036-0.071-0.071-0.106-0.106c-0.036-0.036-0.071-0.071-0.108-0.107c-0.033-0.035-0.068-0.068-0.104-0.103     c-0.033-0.034-0.068-0.068-0.104-0.103c-0.035-0.036-0.072-0.072-0.107-0.107c-0.035-0.035-0.07-0.069-0.105-0.104     c-0.037-0.037-0.074-0.073-0.111-0.109c-0.032-0.034-0.065-0.066-0.102-0.1c-0.033-0.035-0.068-0.069-0.104-0.104     c-0.037-0.037-0.074-0.074-0.111-0.11c-0.033-0.034-0.066-0.066-0.102-0.1c-0.037-0.037-0.072-0.072-0.108-0.108     c-0.035-0.035-0.071-0.07-0.106-0.105c-0.035-0.035-0.069-0.069-0.104-0.104c-0.034-0.035-0.069-0.07-0.104-0.105     c-0.035-0.037-0.072-0.072-0.109-0.108c-0.032-0.033-0.065-0.065-0.1-0.098c-0.035-0.037-0.072-0.073-0.109-0.11     c-0.035-0.036-0.072-0.071-0.107-0.106c-0.035-0.035-0.07-0.07-0.105-0.105c-0.034-0.035-0.069-0.069-0.104-0.104     c-0.035-0.036-0.072-0.071-0.107-0.106c-0.033-0.034-0.068-0.068-0.104-0.103c-0.037-0.037-0.072-0.072-0.109-0.109     c-0.033-0.034-0.068-0.068-0.104-0.102c-0.035-0.036-0.071-0.071-0.106-0.106c-0.035-0.037-0.072-0.072-0.109-0.108     c-0.033-0.035-0.068-0.068-0.104-0.103c-0.035-0.036-0.07-0.07-0.107-0.106c-0.033-0.035-0.068-0.069-0.104-0.104     c-0.035-0.036-0.072-0.071-0.107-0.106c-0.033-0.035-0.068-0.069-0.104-0.104c-0.036-0.037-0.073-0.072-0.108-0.108     c-0.033-0.034-0.068-0.067-0.103-0.101c-0.037-0.037-0.073-0.072-0.108-0.108c-0.035-0.035-0.07-0.07-0.105-0.105     c-0.036-0.036-0.072-0.071-0.107-0.106c-0.035-0.035-0.069-0.069-0.104-0.104c-0.033-0.035-0.067-0.069-0.104-0.103     c-0.035-0.036-0.07-0.07-0.104-0.105c-0.037-0.037-0.073-0.072-0.108-0.109c-0.035-0.035-0.072-0.069-0.105-0.104     c-0.035-0.035-0.07-0.069-0.105-0.104C39.934,18.7,36.166,17,32,17c-8.284,0-15,6.716-15,15c0,4.173,1.707,7.945,4.457,10.664     c0.034,0.035,0.069,0.068,0.104,0.104c0.035,0.034,0.071,0.069,0.107,0.104c0.035,0.036,0.071,0.071,0.107,0.106     c0.035,0.035,0.069,0.066,0.104,0.104c0.037,0.037,0.074,0.072,0.111,0.109c0.033,0.033,0.066,0.064,0.1,0.1     c0.036,0.036,0.073,0.072,0.109,0.107c0.035,0.035,0.071,0.068,0.106,0.104c0.036,0.036,0.072,0.071,0.108,0.105     c0.033,0.033,0.067,0.066,0.101,0.102c0.037,0.037,0.074,0.073,0.111,0.109c0.035,0.035,0.07,0.068,0.105,0.104     s0.071,0.07,0.106,0.104c0.035,0.035,0.07,0.068,0.105,0.104c0.035,0.036,0.07,0.07,0.106,0.104     c0.035,0.035,0.071,0.07,0.107,0.105c0.035,0.035,0.071,0.07,0.107,0.105c0.035,0.035,0.071,0.07,0.107,0.104     c0.034,0.034,0.069,0.068,0.104,0.104c0.036,0.035,0.073,0.072,0.109,0.107c0.034,0.033,0.069,0.067,0.104,0.104     c0.035,0.035,0.071,0.07,0.106,0.105c0.036,0.034,0.072,0.069,0.108,0.105c0.035,0.033,0.07,0.066,0.105,0.104     c0.035,0.034,0.07,0.069,0.105,0.104c0.036,0.035,0.073,0.07,0.109,0.107c0.034,0.033,0.069,0.067,0.104,0.104     c0.036,0.036,0.072,0.07,0.109,0.105c0.034,0.035,0.069,0.068,0.104,0.104c0.035,0.035,0.071,0.069,0.106,0.104     c0.036,0.037,0.073,0.07,0.109,0.106c0.034,0.034,0.068,0.067,0.102,0.103c0.036,0.037,0.073,0.071,0.109,0.106     c0.035,0.035,0.07,0.069,0.104,0.104c0.037,0.037,0.075,0.074,0.112,0.11c0.032,0.032,0.065,0.063,0.098,0.097     c0.037,0.037,0.073,0.073,0.11,0.109c0.036,0.035,0.072,0.07,0.107,0.105c0.035,0.033,0.07,0.068,0.104,0.104     c0.035,0.035,0.07,0.069,0.105,0.104c0.035,0.035,0.071,0.07,0.106,0.104c0.036,0.037,0.073,0.073,0.11,0.109     c0.035,0.034,0.071,0.067,0.106,0.104s0.071,0.07,0.106,0.105c0.034,0.032,0.068,0.065,0.103,0.102     c0.036,0.037,0.073,0.072,0.109,0.108c0.035,0.035,0.07,0.068,0.106,0.104c0.035,0.035,0.071,0.069,0.106,0.104     c0.035,0.034,0.07,0.069,0.106,0.104c0.035,0.034,0.071,0.068,0.106,0.104c0.035,0.035,0.071,0.068,0.107,0.104     c0.035,0.035,0.07,0.069,0.105,0.104c0.037,0.036,0.073,0.071,0.11,0.108c0.033,0.032,0.066,0.063,0.1,0.099     c0.036,0.036,0.073,0.071,0.109,0.108c0.036,0.034,0.073,0.069,0.109,0.105c0.035,0.036,0.071,0.07,0.107,0.105     c0.034,0.033,0.068,0.065,0.102,0.102c0.035,0.035,0.071,0.07,0.107,0.105c0.036,0.035,0.071,0.07,0.107,0.104     c0.036,0.037,0.073,0.071,0.11,0.108c0.032,0.033,0.064,0.063,0.097,0.097c0.038,0.036,0.076,0.075,0.114,0.112     c0.035,0.035,0.071,0.069,0.107,0.104c0.034,0.034,0.069,0.067,0.103,0.103c0.035,0.035,0.071,0.069,0.106,0.104     c0.035,0.035,0.071,0.069,0.106,0.104c0.035,0.033,0.069,0.068,0.104,0.104c0.038,0.037,0.075,0.074,0.113,0.11     c0.034,0.035,0.069,0.066,0.104,0.103c0.034,0.034,0.067,0.067,0.102,0.103c0.037,0.037,0.074,0.074,0.112,0.11     c0.035,0.035,0.07,0.068,0.105,0.104c0.035,0.035,0.07,0.068,0.104,0.104c0.035,0.035,0.071,0.07,0.106,0.105     c0.037,0.035,0.073,0.072,0.11,0.107c0.033,0.032,0.066,0.064,0.1,0.1c0.037,0.037,0.074,0.072,0.111,0.109     c0.035,0.034,0.071,0.068,0.106,0.104c0.035,0.035,0.071,0.07,0.106,0.104c0.035,0.035,0.07,0.068,0.105,0.104     s0.07,0.069,0.105,0.104c0.036,0.036,0.072,0.071,0.109,0.107c0.035,0.035,0.07,0.068,0.105,0.104s0.071,0.07,0.107,0.104     c0.034,0.034,0.068,0.067,0.102,0.103c0.038,0.037,0.077,0.076,0.116,0.113c0.033,0.033,0.066,0.064,0.099,0.098     c0.036,0.035,0.072,0.07,0.107,0.107c0.035,0.034,0.071,0.068,0.107,0.104c0.036,0.037,0.073,0.071,0.11,0.108     c0.033,0.032,0.066,0.063,0.099,0.099c0.038,0.037,0.075,0.073,0.113,0.11c0.034,0.034,0.068,0.067,0.103,0.103     c0.035,0.035,0.071,0.069,0.106,0.104c0.035,0.035,0.07,0.067,0.104,0.104c0.036,0.035,0.072,0.07,0.108,0.105     c0.036,0.035,0.072,0.071,0.108,0.105c0.036,0.037,0.072,0.072,0.108,0.106c0.034,0.033,0.068,0.066,0.102,0.101     c0.036,0.037,0.072,0.072,0.108,0.108c0.035,0.035,0.07,0.068,0.105,0.104c0.035,0.035,0.071,0.07,0.106,0.104     c0.036,0.035,0.072,0.07,0.108,0.106c0.034,0.035,0.069,0.068,0.104,0.103c0.035,0.035,0.07,0.07,0.105,0.104     c0.037,0.037,0.075,0.074,0.113,0.111c0.031,0.031,0.064,0.064,0.098,0.098c0.037,0.037,0.074,0.072,0.111,0.109     c0.033,0.033,0.068,0.068,0.104,0.104s0.071,0.07,0.106,0.105c0.034,0.033,0.071,0.068,0.106,0.104     c0.035,0.036,0.071,0.07,0.107,0.107c0.033,0.032,0.064,0.065,0.102,0.1c0.037,0.038,0.076,0.074,0.113,0.113     c0.033,0.033,0.066,0.063,0.102,0.098c0.035,0.037,0.072,0.072,0.107,0.109c0.035,0.035,0.07,0.067,0.104,0.104     c0.035,0.035,0.07,0.07,0.105,0.105c0.036,0.035,0.073,0.072,0.109,0.106c0.033,0.033,0.066,0.065,0.1,0.101     c0.037,0.037,0.074,0.071,0.111,0.108c0.033,0.035,0.068,0.068,0.104,0.104c0.037,0.037,0.072,0.072,0.109,0.106     c0.034,0.035,0.068,0.068,0.104,0.104c0.037,0.035,0.072,0.07,0.106,0.104c0.035,0.035,0.069,0.07,0.104,0.104     c0.037,0.037,0.072,0.072,0.108,0.106c0.034,0.035,0.068,0.068,0.104,0.104c0.035,0.035,0.07,0.068,0.104,0.104     s0.069,0.07,0.104,0.104c0.037,0.039,0.074,0.074,0.111,0.113c0.033,0.032,0.067,0.063,0.103,0.098     c0.034,0.035,0.069,0.07,0.104,0.105c0.035,0.036,0.071,0.071,0.107,0.106c0.035,0.034,0.072,0.069,0.107,0.104     s0.071,0.07,0.105,0.105c0.033,0.033,0.066,0.064,0.102,0.1c0.037,0.037,0.073,0.074,0.11,0.111     c0.036,0.034,0.072,0.068,0.108,0.105c0.033,0.033,0.068,0.067,0.104,0.104c0.034,0.034,0.069,0.066,0.104,0.104     c0.035,0.037,0.072,0.07,0.107,0.107c0.034,0.033,0.068,0.066,0.104,0.102c0.036,0.037,0.073,0.072,0.11,0.109     c0.034,0.035,0.068,0.069,0.104,0.104c0.032,0.033,0.065,0.065,0.103,0.102c0.036,0.037,0.073,0.073,0.11,0.109     c0.033,0.033,0.065,0.065,0.101,0.1c0.039,0.039,0.075,0.076,0.114,0.113c0.032,0.033,0.066,0.066,0.101,0.1     c0.035,0.035,0.072,0.07,0.106,0.105c0.035,0.035,0.071,0.07,0.106,0.104c0.037,0.037,0.072,0.074,0.109,0.109     c0.033,0.034,0.067,0.065,0.104,0.102c0.035,0.036,0.07,0.07,0.105,0.104c0.035,0.035,0.069,0.068,0.104,0.104     c0.036,0.035,0.071,0.07,0.106,0.105c0.037,0.035,0.071,0.07,0.106,0.105c0.035,0.034,0.069,0.069,0.104,0.104     c0.033,0.034,0.068,0.067,0.104,0.103c0.037,0.038,0.075,0.075,0.112,0.112c0.033,0.033,0.066,0.065,0.103,0.101     c0.036,0.036,0.072,0.071,0.108,0.106c0.033,0.032,0.066,0.067,0.103,0.103c0.035,0.035,0.071,0.069,0.107,0.106     c0.034,0.035,0.069,0.069,0.104,0.104c0.037,0.035,0.074,0.07,0.109,0.107c0.035,0.035,0.07,0.066,0.105,0.104     c0.032,0.035,0.067,0.068,0.104,0.104c0.035,0.037,0.07,0.069,0.105,0.104s0.069,0.069,0.104,0.104     c0.035,0.037,0.071,0.072,0.108,0.107c0.033,0.035,0.07,0.07,0.107,0.104c0.033,0.035,0.067,0.067,0.104,0.104     c0.035,0.035,0.072,0.07,0.107,0.106c0.035,0.033,0.069,0.068,0.104,0.103c0.035,0.035,0.07,0.07,0.104,0.104     c0.035,0.035,0.07,0.07,0.106,0.104c0.035,0.037,0.07,0.072,0.105,0.106c0.037,0.035,0.072,0.07,0.107,0.104     c0.033,0.035,0.068,0.068,0.104,0.104c0.037,0.037,0.074,0.072,0.111,0.109c0.034,0.032,0.068,0.065,0.104,0.101     s0.068,0.067,0.104,0.104c0.036,0.037,0.073,0.074,0.111,0.109c0.033,0.035,0.068,0.067,0.104,0.104     c0.035,0.037,0.071,0.07,0.107,0.105c0.035,0.036,0.07,0.069,0.104,0.104c0.035,0.034,0.068,0.067,0.104,0.104     c0.037,0.036,0.074,0.071,0.111,0.108c0.032,0.035,0.067,0.067,0.103,0.103c0.036,0.035,0.071,0.069,0.106,0.104     c0.037,0.037,0.071,0.071,0.106,0.106c0.034,0.033,0.067,0.066,0.104,0.101c0.035,0.039,0.073,0.073,0.11,0.11     c0.033,0.035,0.068,0.068,0.104,0.104c0.035,0.035,0.072,0.072,0.108,0.106c0.035,0.035,0.069,0.068,0.104,0.104     c0.033,0.034,0.068,0.067,0.104,0.104s0.07,0.068,0.104,0.104c0.037,0.037,0.074,0.072,0.111,0.109     c0.03,0.031,0.063,0.063,0.098,0.096c0.037,0.039,0.076,0.076,0.113,0.113c0.035,0.033,0.069,0.068,0.104,0.104     c0.035,0.037,0.071,0.072,0.108,0.107c0.033,0.035,0.068,0.068,0.104,0.104c0.033,0.034,0.068,0.068,0.104,0.104     c0.037,0.035,0.07,0.068,0.107,0.105c0.035,0.034,0.071,0.069,0.107,0.104c0.033,0.034,0.068,0.067,0.104,0.104     c0.036,0.035,0.07,0.069,0.105,0.104c0.037,0.037,0.074,0.071,0.109,0.108c0.034,0.032,0.067,0.064,0.103,0.101     c0.036,0.034,0.071,0.071,0.108,0.106c0.034,0.037,0.071,0.071,0.108,0.107c0.033,0.033,0.067,0.066,0.103,0.102     s0.071,0.07,0.106,0.105s0.071,0.07,0.108,0.105c0.033,0.035,0.066,0.067,0.103,0.102c0.037,0.037,0.074,0.074,0.11,0.111     c0.033,0.033,0.068,0.065,0.103,0.102c0.037,0.037,0.074,0.072,0.109,0.107c0.032,0.033,0.067,0.065,0.102,0.1     c0.037,0.039,0.074,0.074,0.111,0.111c0.034,0.035,0.069,0.068,0.104,0.104s0.072,0.07,0.107,0.107     c0.035,0.033,0.07,0.068,0.105,0.104c0.035,0.034,0.069,0.067,0.104,0.104c0.035,0.035,0.067,0.068,0.104,0.103     c0.037,0.038,0.074,0.075,0.11,0.112c0.035,0.033,0.068,0.066,0.104,0.102c0.035,0.036,0.07,0.07,0.104,0.105     c0.035,0.035,0.072,0.068,0.107,0.104c0.035,0.037,0.072,0.073,0.109,0.11c0.034,0.033,0.067,0.065,0.104,0.101     c0.033,0.034,0.07,0.069,0.105,0.104c0.034,0.035,0.069,0.067,0.104,0.104c0.035,0.035,0.069,0.068,0.104,0.104     c0.035,0.037,0.072,0.072,0.109,0.109c0.033,0.033,0.068,0.067,0.104,0.104c0.037,0.035,0.072,0.07,0.107,0.105     s0.07,0.069,0.105,0.104s0.07,0.069,0.105,0.104c0.032,0.033,0.067,0.066,0.102,0.101c0.039,0.039,0.076,0.076,0.115,0.112     c0.033,0.035,0.067,0.067,0.104,0.104c0.033,0.034,0.068,0.069,0.104,0.104c0.035,0.035,0.071,0.07,0.106,0.104     c0.035,0.036,0.071,0.071,0.108,0.108c0.035,0.035,0.069,0.066,0.104,0.104c0.033,0.033,0.066,0.066,0.104,0.1     c0.035,0.037,0.072,0.074,0.109,0.11c0.033,0.035,0.068,0.069,0.104,0.104c0.037,0.035,0.072,0.07,0.109,0.107     c0.033,0.033,0.068,0.067,0.104,0.104c0.037,0.035,0.072,0.068,0.107,0.104c0.035,0.037,0.072,0.073,0.109,0.108     c0.033,0.032,0.064,0.065,0.1,0.099c0.036,0.036,0.072,0.072,0.109,0.108c0.035,0.034,0.072,0.071,0.107,0.106     c0.033,0.033,0.065,0.065,0.1,0.099c0.039,0.038,0.076,0.075,0.113,0.112c0.033,0.033,0.068,0.067,0.104,0.103     c0.037,0.037,0.074,0.073,0.111,0.11c0.033,0.031,0.066,0.063,0.101,0.099s0.069,0.067,0.104,0.104     c0.037,0.039,0.074,0.075,0.113,0.113c0.033,0.032,0.067,0.064,0.104,0.102c0.033,0.033,0.068,0.068,0.104,0.104     c0.035,0.034,0.071,0.069,0.106,0.104c0.035,0.035,0.069,0.07,0.106,0.105c0.035,0.036,0.071,0.07,0.107,0.107     c0.033,0.033,0.068,0.066,0.104,0.103c0.037,0.036,0.068,0.067,0.104,0.103c0.037,0.037,0.074,0.074,0.11,0.11     c0.035,0.035,0.07,0.069,0.106,0.104c0.034,0.035,0.069,0.068,0.104,0.104c0.033,0.035,0.07,0.07,0.105,0.105     c0.034,0.035,0.069,0.068,0.106,0.104c0.034,0.037,0.071,0.073,0.108,0.108c0.032,0.032,0.064,0.063,0.101,0.098     c0.034,0.036,0.069,0.072,0.104,0.107c0.039,0.036,0.076,0.073,0.113,0.11c0.033,0.033,0.068,0.066,0.102,0.101     c0.035,0.034,0.071,0.069,0.106,0.104c0.036,0.037,0.073,0.073,0.11,0.11c0.033,0.032,0.066,0.063,0.101,0.099     c0.034,0.034,0.069,0.068,0.104,0.104c0.035,0.037,0.072,0.072,0.108,0.109c0.036,0.035,0.072,0.071,0.109,0.107     c0.032,0.034,0.067,0.064,0.103,0.102c0.036,0.035,0.071,0.069,0.106,0.104c0.037,0.037,0.073,0.071,0.11,0.108     c0.033,0.033,0.067,0.066,0.103,0.102s0.069,0.068,0.104,0.104s0.068,0.068,0.104,0.104c0.037,0.038,0.074,0.074,0.111,0.11     c0.035,0.035,0.07,0.07,0.105,0.104c0.034,0.035,0.069,0.067,0.104,0.103c2.72,2.742,6.486,4.443,10.652,4.443     c8.283,0,15-6.716,15-15C79,59.495,77.295,55.725,74.546,53.005z" enable-background="new    " fill="url(#SVGID_3_)" opacity="0.5"/></g></g></g><g id="S"><path d="M32,17c-8.284,0-15,6.716-15,15s6.716,15,15,15s15-6.716,15-15S40.284,17,32,17z M32,44   c-6.627,0-12-5.373-12-12s5.373-12,12-12s12,5.373,12,12S38.627,44,32,44z" fill="#FFFFFF"/><polygon fill="#FFFFFF" points="27.05,36.95 33.414,33.414 36.95,27.05 30.586,30.586  "/></g></svg>