<?xml version="1.0" ?><!DOCTYPE svg  PUBLIC '-//W3C//DTD SVG 1.1//EN'  'http://www.w3.org/Graphics/SVG/1.1/DTD/svg11.dtd'><svg enable-background="new 0 0 64 64" height="64px" id="Flickr" version="1.1" viewBox="0 0 64 64" width="64px" xml:space="preserve" xmlns="http://www.w3.org/2000/svg" xmlns:xlink="http://www.w3.org/1999/xlink"><linearGradient gradientTransform="matrix(1 0 0 -1 -822 -1026)" gradientUnits="userSpaceOnUse" id="Circle_Shadow_1_" x1="886.0303" x2="854.0302" y1="-1089.9985" y2="-1057.9985"><stop offset="0.3163" style="stop-color:#FFFFFF;stop-opacity:0"/><stop offset="0.3508" style="stop-color:#E9E9E9;stop-opacity:0.0504"/><stop offset="0.4543" style="stop-color:#ACACAC;stop-opacity:0.2018"/><stop offset="0.5572" style="stop-color:#787878;stop-opacity:0.3523"/><stop offset="0.6569" style="stop-color:#4D4D4D;stop-opacity:0.4981"/><stop offset="0.7528" style="stop-color:#2B2B2B;stop-opacity:0.6385"/><stop offset="0.8441" style="stop-color:#131313;stop-opacity:0.7719"/><stop offset="0.9286" style="stop-color:#050505;stop-opacity:0.8956"/><stop offset="1" style="stop-color:#000000"/></linearGradient><polygon enable-background="new    " fill="url(#Circle_Shadow_1_)" id="Circle_Shadow" opacity="0.2" points="64.029,64   64.029,30.059 49,15.029 15.059,48.971 30.088,64 "/><circle cx="32" cy="32" fill="#B5B5B5" id="Circle" r="24"/><g id="Shadow"><g><defs><circle cx="32.029" cy="32" id="SVGID_1_" r="24"/></defs><clipPath id="SVGID_2_"><use overflow="visible" xlink:href="#SVGID_1_"/></clipPath><linearGradient gradientTransform="matrix(1 0 0 -1 -274 -299)" gradientUnits="userSpaceOnUse" id="SVGID_3_" x1="346.9707" x2="297.0566" y1="-371.957" y2="-322.0431"><stop offset="0.5816" style="stop-color:#000000;stop-opacity:0"/><stop offset="1" style="stop-color:#000000"/></linearGradient><path clip-path="url(#SVGID_2_)" d="M76.924,59    c-0.035-0.036-0.07-0.072-0.107-0.107c-0.034-0.035-0.069-0.07-0.104-0.104c-0.036-0.037-0.071-0.073-0.108-0.108    c-0.035-0.037-0.07-0.072-0.106-0.105c-0.034-0.035-0.069-0.069-0.104-0.104c-0.035-0.037-0.069-0.072-0.104-0.107    s-0.071-0.07-0.106-0.105s-0.068-0.07-0.104-0.105c-0.037-0.036-0.074-0.073-0.111-0.109c-0.034-0.034-0.067-0.068-0.103-0.104    c-0.036-0.037-0.073-0.073-0.11-0.109c-0.034-0.035-0.067-0.069-0.104-0.104c-0.035-0.035-0.069-0.07-0.104-0.105    c-0.036-0.037-0.073-0.073-0.11-0.109c-0.031-0.033-0.064-0.066-0.099-0.1c-0.037-0.037-0.073-0.074-0.11-0.11    c-0.035-0.036-0.072-0.073-0.107-0.108c-0.036-0.035-0.072-0.071-0.108-0.106c-0.034-0.035-0.067-0.069-0.103-0.103    c-0.035-0.036-0.071-0.072-0.107-0.107c-0.035-0.035-0.07-0.07-0.105-0.105c-0.034-0.035-0.07-0.071-0.106-0.106    c-0.035-0.035-0.069-0.069-0.104-0.104c-0.037-0.039-0.074-0.074-0.111-0.111c-0.034-0.034-0.068-0.068-0.104-0.102    c-0.033-0.035-0.068-0.07-0.104-0.104c-0.036-0.037-0.072-0.073-0.109-0.11c-0.035-0.035-0.068-0.068-0.104-0.104    c-0.035-0.036-0.07-0.072-0.104-0.107c-0.035-0.035-0.072-0.07-0.107-0.105c-0.035-0.037-0.07-0.071-0.106-0.106    c-0.036-0.036-0.071-0.071-0.106-0.106s-0.069-0.069-0.104-0.104c-0.036-0.037-0.073-0.074-0.11-0.11    c-0.033-0.033-0.065-0.066-0.101-0.101c-0.036-0.037-0.073-0.074-0.11-0.111c-0.033-0.034-0.066-0.067-0.102-0.102    c-0.036-0.037-0.073-0.073-0.109-0.109c-0.035-0.034-0.068-0.069-0.104-0.104c-0.038-0.037-0.076-0.075-0.115-0.113    c-0.032-0.033-0.065-0.066-0.101-0.1c-0.033-0.035-0.068-0.069-0.104-0.104c-0.035-0.037-0.07-0.073-0.107-0.108    c-0.035-0.035-0.07-0.07-0.105-0.105c-0.035-0.036-0.07-0.072-0.107-0.107c-0.035-0.035-0.069-0.07-0.105-0.105    c-0.037-0.038-0.074-0.074-0.112-0.111c-0.032-0.033-0.065-0.066-0.099-0.099c-0.036-0.036-0.071-0.072-0.107-0.107    c-0.035-0.036-0.07-0.071-0.105-0.106s-0.071-0.07-0.107-0.105c-0.035-0.036-0.07-0.072-0.105-0.107    c-0.034-0.035-0.07-0.069-0.106-0.104c-0.036-0.038-0.073-0.074-0.11-0.11c-0.033-0.035-0.067-0.068-0.103-0.103    c-0.035-0.035-0.069-0.07-0.104-0.104c-0.035-0.037-0.071-0.072-0.107-0.107c-0.035-0.036-0.07-0.071-0.105-0.105    c-0.035-0.035-0.07-0.072-0.106-0.106c-0.035-0.035-0.07-0.07-0.105-0.105c-0.036-0.038-0.073-0.073-0.11-0.11    c-0.034-0.034-0.068-0.068-0.104-0.103c-0.033-0.034-0.068-0.069-0.104-0.104c-0.036-0.036-0.073-0.073-0.11-0.11    c-0.033-0.033-0.065-0.067-0.101-0.101c-0.037-0.037-0.072-0.073-0.109-0.109c-0.038-0.038-0.076-0.076-0.115-0.114    c-0.029-0.03-0.063-0.063-0.094-0.094c-0.038-0.039-0.077-0.078-0.116-0.116c-0.032-0.033-0.065-0.066-0.101-0.102    c-0.035-0.034-0.069-0.069-0.105-0.104c-0.035-0.036-0.07-0.071-0.107-0.106c-0.035-0.036-0.07-0.072-0.105-0.107    s-0.07-0.07-0.107-0.105c-0.035-0.037-0.07-0.072-0.106-0.107c-0.035-0.036-0.069-0.07-0.104-0.105    c-0.037-0.035-0.072-0.072-0.108-0.106c-0.034-0.035-0.067-0.068-0.103-0.103c-0.037-0.037-0.072-0.074-0.109-0.11    c-0.035-0.035-0.069-0.069-0.105-0.104c-0.035-0.035-0.07-0.07-0.105-0.104c-0.034-0.036-0.07-0.072-0.106-0.107    c-0.034-0.034-0.069-0.071-0.106-0.106c-0.035-0.036-0.072-0.072-0.108-0.108c-0.034-0.034-0.067-0.067-0.103-0.101    c-0.035-0.037-0.072-0.074-0.108-0.11c-0.034-0.034-0.067-0.067-0.103-0.103c-0.037-0.037-0.072-0.072-0.109-0.108    c-0.034-0.035-0.069-0.07-0.104-0.104c-0.037-0.039-0.076-0.076-0.113-0.111c-0.033-0.035-0.068-0.069-0.104-0.104    c-0.035-0.034-0.066-0.067-0.102-0.101c-0.035-0.036-0.07-0.072-0.106-0.107c-0.036-0.037-0.073-0.074-0.11-0.111    c-0.035-0.035-0.069-0.069-0.105-0.104c-0.035-0.036-0.07-0.071-0.105-0.106s-0.07-0.07-0.106-0.105    c-0.035-0.035-0.07-0.07-0.106-0.105c-0.033-0.035-0.068-0.068-0.104-0.104c-0.036-0.037-0.073-0.074-0.11-0.109    c-0.034-0.037-0.069-0.07-0.104-0.105c-0.034-0.034-0.068-0.069-0.104-0.104c-0.034-0.037-0.071-0.072-0.108-0.109    c-0.034-0.035-0.071-0.071-0.108-0.108c-0.033-0.034-0.067-0.067-0.103-0.103c-0.037-0.037-0.072-0.072-0.109-0.108    c-0.034-0.035-0.069-0.069-0.104-0.104c-0.035-0.035-0.07-0.071-0.105-0.106s-0.071-0.07-0.107-0.104    c-0.035-0.037-0.07-0.072-0.104-0.107c-0.036-0.035-0.071-0.071-0.107-0.105c-0.034-0.037-0.071-0.072-0.106-0.107    c-0.035-0.036-0.071-0.072-0.108-0.107c-0.034-0.035-0.067-0.068-0.103-0.104s-0.069-0.069-0.104-0.104    c-0.036-0.036-0.071-0.071-0.106-0.106c-0.037-0.037-0.073-0.073-0.11-0.109c-0.033-0.034-0.067-0.068-0.103-0.102    c-0.035-0.037-0.072-0.074-0.11-0.111c-0.036-0.037-0.072-0.072-0.109-0.107c-0.032-0.033-0.065-0.066-0.099-0.1    c-0.036-0.037-0.071-0.073-0.108-0.109c-0.034-0.033-0.067-0.068-0.104-0.104c-0.036-0.037-0.072-0.074-0.11-0.11    c-0.033-0.034-0.067-0.069-0.103-0.103c-0.037-0.038-0.072-0.074-0.11-0.11c-0.036-0.037-0.072-0.073-0.108-0.108    c-0.033-0.033-0.066-0.065-0.1-0.1c-0.036-0.037-0.073-0.074-0.109-0.109c-0.035-0.035-0.07-0.07-0.105-0.104    c-0.035-0.036-0.07-0.072-0.105-0.106c-0.035-0.035-0.07-0.07-0.107-0.105c-0.034-0.036-0.069-0.072-0.104-0.107    c-0.036-0.035-0.071-0.072-0.108-0.107c-0.035-0.035-0.069-0.069-0.104-0.104c-0.036-0.036-0.071-0.071-0.106-0.106    c-0.037-0.036-0.071-0.071-0.107-0.107c-0.035-0.035-0.069-0.068-0.105-0.104c-0.035-0.035-0.07-0.07-0.104-0.105    c-0.035-0.036-0.071-0.072-0.106-0.107s-0.072-0.072-0.109-0.108c-0.033-0.033-0.066-0.066-0.102-0.101    c-0.035-0.037-0.072-0.074-0.111-0.111c-0.034-0.035-0.069-0.07-0.104-0.105c-0.034-0.033-0.067-0.066-0.103-0.102    c-0.035-0.036-0.071-0.073-0.108-0.108c-0.035-0.036-0.069-0.071-0.104-0.106c-0.037-0.035-0.072-0.071-0.108-0.107    c-0.034-0.035-0.069-0.068-0.104-0.104c-0.037-0.039-0.074-0.074-0.111-0.111c-0.032-0.033-0.065-0.066-0.1-0.1    c-0.037-0.037-0.074-0.076-0.111-0.111c-0.034-0.035-0.069-0.069-0.104-0.104c-0.034-0.037-0.071-0.074-0.108-0.109    c-0.033-0.034-0.066-0.068-0.102-0.103c-0.037-0.036-0.074-0.073-0.111-0.11c-0.033-0.035-0.068-0.069-0.104-0.104    c-0.034-0.036-0.068-0.071-0.105-0.104c-0.035-0.037-0.072-0.074-0.109-0.11c-0.034-0.035-0.068-0.069-0.104-0.103    c-0.035-0.037-0.07-0.072-0.107-0.107c-0.034-0.035-0.069-0.07-0.104-0.105c-0.036-0.037-0.071-0.072-0.108-0.107    c-0.035-0.036-0.07-0.071-0.106-0.107c-0.034-0.033-0.069-0.068-0.104-0.104c-0.035-0.036-0.07-0.071-0.106-0.106    c-0.035-0.036-0.069-0.071-0.106-0.104c-0.033-0.034-0.065-0.068-0.101-0.103c-0.038-0.04-0.077-0.079-0.117-0.116    c-0.032-0.035-0.065-0.067-0.101-0.102c-0.035-0.036-0.071-0.072-0.108-0.107c-0.034-0.035-0.067-0.068-0.103-0.104    c-0.038-0.038-0.075-0.076-0.113-0.113c-0.034-0.033-0.066-0.066-0.102-0.101c-0.034-0.035-0.067-0.068-0.103-0.103    c-0.038-0.039-0.075-0.078-0.114-0.115c-0.033-0.033-0.066-0.066-0.102-0.101c-0.035-0.036-0.071-0.071-0.107-0.108    c-0.037-0.037-0.074-0.074-0.113-0.111c-0.031-0.032-0.063-0.064-0.096-0.098c-0.037-0.037-0.074-0.073-0.111-0.109    c-0.035-0.037-0.072-0.074-0.11-0.11c-0.032-0.032-0.063-0.065-0.097-0.098c-0.037-0.038-0.075-0.075-0.113-0.112    c-0.033-0.033-0.066-0.068-0.102-0.103c-0.037-0.037-0.073-0.074-0.111-0.11c-0.035-0.036-0.071-0.072-0.107-0.107    c-0.033-0.035-0.068-0.068-0.104-0.103c-0.035-0.036-0.07-0.071-0.105-0.106s-0.07-0.07-0.107-0.105    c-0.034-0.036-0.069-0.072-0.104-0.107c-0.036-0.035-0.071-0.07-0.108-0.106c-0.033-0.035-0.068-0.07-0.104-0.104    c-0.034-0.035-0.069-0.07-0.104-0.104c-0.037-0.038-0.073-0.075-0.111-0.112c-0.032-0.031-0.064-0.064-0.098-0.097    c-0.037-0.039-0.076-0.077-0.115-0.115c-0.033-0.034-0.067-0.067-0.104-0.103c-0.033-0.034-0.068-0.069-0.104-0.104    c-0.037-0.038-0.074-0.075-0.113-0.112c-0.031-0.033-0.064-0.066-0.1-0.101c-0.036-0.036-0.072-0.072-0.108-0.108    c-0.036-0.035-0.071-0.072-0.108-0.107c-0.033-0.035-0.067-0.068-0.103-0.104c-0.037-0.037-0.073-0.074-0.112-0.111    c-0.033-0.034-0.068-0.068-0.104-0.104c-0.034-0.033-0.067-0.068-0.104-0.104c-0.037-0.037-0.074-0.074-0.111-0.111    c-0.034-0.035-0.069-0.07-0.105-0.104c-0.033-0.035-0.068-0.069-0.104-0.104c-0.035-0.036-0.07-0.071-0.106-0.106    c-0.034-0.037-0.071-0.072-0.106-0.107c-0.035-0.036-0.071-0.072-0.108-0.107c-0.035-0.035-0.069-0.07-0.104-0.104    c-0.035-0.035-0.069-0.07-0.105-0.105c-0.035-0.036-0.071-0.071-0.107-0.108c-0.035-0.034-0.068-0.068-0.104-0.104    c-0.034-0.033-0.068-0.068-0.104-0.104c-0.037-0.038-0.074-0.075-0.111-0.111c-0.033-0.035-0.067-0.068-0.104-0.104    c-0.035-0.037-0.07-0.072-0.107-0.107c-0.034-0.036-0.069-0.071-0.104-0.105c-0.034-0.035-0.071-0.072-0.106-0.106    c-0.035-0.036-0.071-0.072-0.107-0.106c-0.035-0.035-0.07-0.07-0.105-0.105c-0.035-0.036-0.07-0.071-0.106-0.106    c-0.034-0.034-0.07-0.069-0.104-0.104c-0.035-0.036-0.07-0.071-0.105-0.106c-0.035-0.034-0.069-0.069-0.104-0.104    c-0.037-0.036-0.074-0.072-0.111-0.108c-0.033-0.035-0.067-0.069-0.104-0.104c-0.035-0.035-0.07-0.071-0.107-0.106    c-0.034-0.036-0.069-0.071-0.104-0.106c-0.034-0.035-0.071-0.069-0.106-0.104c-0.037-0.037-0.072-0.074-0.109-0.11    c-0.034-0.033-0.068-0.068-0.104-0.103c-0.035-0.036-0.07-0.072-0.106-0.107c-0.035-0.034-0.071-0.071-0.106-0.104    c-0.035-0.036-0.07-0.071-0.105-0.106c-0.035-0.036-0.071-0.071-0.107-0.106c-0.033-0.035-0.068-0.07-0.104-0.104    c-0.035-0.036-0.071-0.071-0.107-0.106c-0.035-0.035-0.07-0.07-0.105-0.105c-0.035-0.037-0.071-0.072-0.107-0.107    c-0.036-0.037-0.072-0.072-0.107-0.108c-0.035-0.034-0.068-0.068-0.104-0.103c-0.035-0.035-0.069-0.072-0.104-0.106    c-0.035-0.035-0.07-0.07-0.106-0.104c-0.036-0.037-0.072-0.072-0.108-0.109c-0.035-0.035-0.068-0.069-0.104-0.104    c-0.035-0.036-0.07-0.071-0.105-0.105c-0.035-0.037-0.07-0.072-0.107-0.108c-0.035-0.037-0.072-0.073-0.109-0.109    c-0.033-0.034-0.066-0.068-0.102-0.102c-0.036-0.037-0.072-0.073-0.109-0.109c-0.033-0.035-0.066-0.068-0.102-0.102    c-0.036-0.037-0.072-0.073-0.109-0.109c-0.036-0.038-0.073-0.074-0.109-0.111c-0.035-0.035-0.07-0.069-0.104-0.103    c-0.034-0.035-0.068-0.069-0.104-0.103c-0.035-0.037-0.072-0.074-0.109-0.11c-0.034-0.035-0.069-0.07-0.104-0.104    c-0.034-0.036-0.071-0.071-0.106-0.106c-0.035-0.036-0.071-0.072-0.107-0.107c-0.035-0.036-0.07-0.071-0.105-0.106    c-0.035-0.036-0.07-0.071-0.105-0.106c-0.034-0.035-0.068-0.07-0.104-0.104c-0.037-0.037-0.072-0.073-0.109-0.11    c-0.035-0.036-0.071-0.071-0.107-0.106c-0.033-0.035-0.068-0.07-0.104-0.104c-0.035-0.036-0.071-0.071-0.107-0.106    c-0.033-0.036-0.068-0.071-0.104-0.106c-0.036-0.037-0.072-0.073-0.109-0.109c-0.034-0.035-0.067-0.069-0.104-0.103    c-0.034-0.036-0.07-0.072-0.106-0.107c-0.035-0.036-0.069-0.071-0.104-0.106c-0.037-0.037-0.072-0.073-0.109-0.108    c-0.034-0.035-0.068-0.07-0.104-0.104c-0.035-0.036-0.071-0.071-0.107-0.106c-0.035-0.036-0.071-0.072-0.107-0.108    c-0.033-0.035-0.068-0.07-0.104-0.105c-0.035-0.036-0.07-0.072-0.107-0.107c-0.034-0.036-0.069-0.071-0.104-0.106    c-0.034-0.035-0.069-0.07-0.104-0.104c-0.036-0.036-0.071-0.072-0.106-0.107c-0.035-0.037-0.071-0.073-0.108-0.108    c-0.035-0.036-0.069-0.071-0.106-0.106c-0.035-0.036-0.069-0.072-0.105-0.107c-0.034-0.035-0.068-0.07-0.104-0.104    c-0.035-0.036-0.07-0.072-0.106-0.107c-0.035-0.036-0.071-0.072-0.106-0.107c-0.037-0.037-0.072-0.073-0.109-0.109    c-0.033-0.035-0.067-0.068-0.104-0.103c-0.035-0.036-0.07-0.072-0.107-0.107c-0.034-0.036-0.069-0.072-0.106-0.107    c-0.034-0.037-0.071-0.072-0.106-0.108c-0.034-0.035-0.068-0.068-0.104-0.102c-0.036-0.037-0.07-0.073-0.107-0.108    c-0.035-0.036-0.07-0.071-0.106-0.106c-0.035-0.036-0.071-0.072-0.106-0.107C43.729,25.807,41.959,25,40,25    c-3.58,0-6.527,2.688-6.943,6.156c-0.005-0.004-0.01-0.007-0.014-0.011c-0.034-0.036-0.068-0.07-0.104-0.105    c-0.035-0.036-0.071-0.072-0.107-0.108c-0.035-0.036-0.07-0.071-0.105-0.106c-0.035-0.036-0.072-0.071-0.107-0.106    c-0.034-0.035-0.068-0.07-0.104-0.104c-0.037-0.037-0.073-0.073-0.108-0.109c-0.035-0.036-0.07-0.071-0.106-0.106    c-0.035-0.036-0.069-0.07-0.105-0.105c-0.036-0.036-0.071-0.072-0.107-0.107c-0.035-0.036-0.07-0.071-0.106-0.105    c-0.035-0.036-0.071-0.072-0.107-0.107c-0.035-0.035-0.07-0.07-0.105-0.104c-0.036-0.037-0.071-0.072-0.107-0.107    c-0.035-0.036-0.07-0.071-0.106-0.106c-0.036-0.037-0.072-0.073-0.109-0.108c-0.033-0.034-0.066-0.067-0.1-0.101    c-0.038-0.038-0.075-0.076-0.113-0.113c-0.034-0.034-0.068-0.068-0.103-0.103c-0.037-0.037-0.073-0.073-0.11-0.11    c-0.033-0.034-0.066-0.066-0.1-0.1c-0.037-0.037-0.073-0.074-0.11-0.11c-0.036-0.036-0.071-0.072-0.108-0.107    c-0.034-0.035-0.069-0.07-0.104-0.104c-0.035-0.036-0.071-0.072-0.107-0.107c-0.035-0.036-0.07-0.071-0.106-0.106    c-0.036-0.037-0.073-0.073-0.11-0.11c-0.034-0.034-0.067-0.067-0.102-0.101c-0.036-0.037-0.072-0.073-0.108-0.108    c-0.035-0.036-0.07-0.071-0.105-0.105c-0.036-0.037-0.072-0.072-0.108-0.108c-0.035-0.036-0.069-0.07-0.105-0.105    c-0.035-0.036-0.071-0.071-0.107-0.107c-0.035-0.036-0.07-0.071-0.105-0.106c-0.036-0.036-0.071-0.071-0.107-0.107    c-0.034-0.035-0.068-0.069-0.104-0.104c-0.036-0.037-0.073-0.074-0.11-0.11c-0.035-0.036-0.07-0.07-0.105-0.105    c-0.035-0.036-0.07-0.071-0.106-0.106C27.729,25.808,25.96,25,24,25c-3.866,0-7,3.134-7,7c0,1.96,0.808,3.73,2.106,5.001    c0.035,0.035,0.07,0.069,0.105,0.104c0.036,0.037,0.071,0.072,0.107,0.107c0.035,0.036,0.07,0.071,0.106,0.105    c0.036,0.037,0.072,0.072,0.108,0.108c0.035,0.035,0.07,0.07,0.105,0.104c0.035,0.035,0.069,0.07,0.105,0.104    c0.034,0.034,0.069,0.069,0.104,0.104c0.036,0.037,0.072,0.072,0.109,0.109c0.035,0.035,0.071,0.07,0.107,0.106    s0.072,0.071,0.108,0.106c0.034,0.035,0.068,0.068,0.102,0.103c0.037,0.038,0.073,0.074,0.111,0.11    c0.035,0.035,0.069,0.07,0.105,0.104c0.034,0.035,0.069,0.069,0.104,0.104c0.036,0.035,0.071,0.07,0.107,0.106    c0.034,0.035,0.069,0.069,0.104,0.104c0.036,0.037,0.072,0.072,0.109,0.109c0.035,0.035,0.071,0.07,0.106,0.105    c0.036,0.037,0.072,0.072,0.108,0.107c0.034,0.035,0.069,0.069,0.104,0.104c0.035,0.036,0.07,0.069,0.105,0.104    c0.036,0.037,0.072,0.072,0.108,0.108c0.035,0.035,0.07,0.069,0.106,0.104c0.036,0.037,0.071,0.072,0.108,0.108    c0.035,0.035,0.069,0.069,0.104,0.104c0.034,0.035,0.068,0.068,0.103,0.103c0.037,0.038,0.074,0.075,0.111,0.112    c0.035,0.035,0.07,0.07,0.106,0.105c0.035,0.035,0.071,0.07,0.106,0.105s0.07,0.07,0.105,0.104    c0.035,0.036,0.07,0.071,0.106,0.106c0.036,0.036,0.072,0.071,0.108,0.108c0.035,0.035,0.071,0.07,0.107,0.106    c0.035,0.035,0.07,0.069,0.105,0.104c0.035,0.035,0.07,0.07,0.105,0.104c0.034,0.035,0.069,0.07,0.104,0.104    c0.037,0.037,0.073,0.074,0.111,0.109c0.034,0.035,0.069,0.07,0.105,0.105s0.072,0.072,0.109,0.107    c0.033,0.034,0.066,0.067,0.101,0.102c0.036,0.037,0.073,0.074,0.11,0.109c0.035,0.036,0.07,0.071,0.106,0.106    c0.035,0.035,0.07,0.069,0.106,0.104c0.034,0.035,0.069,0.07,0.104,0.104c0.035,0.036,0.07,0.071,0.106,0.106    c0.037,0.037,0.073,0.074,0.111,0.109c0.035,0.036,0.07,0.071,0.106,0.105c0.034,0.035,0.069,0.068,0.104,0.104    c0.035,0.035,0.071,0.071,0.107,0.106c0.035,0.035,0.071,0.07,0.107,0.107c0.035,0.034,0.069,0.069,0.105,0.104    c0.035,0.035,0.07,0.07,0.105,0.105c0.035,0.035,0.071,0.071,0.107,0.106c0.036,0.037,0.072,0.073,0.108,0.108    c0.036,0.035,0.071,0.071,0.108,0.106c0.033,0.034,0.067,0.067,0.102,0.103c0.036,0.037,0.072,0.072,0.109,0.108    c0.035,0.035,0.07,0.07,0.105,0.104c0.035,0.035,0.071,0.072,0.106,0.106c0.036,0.036,0.071,0.071,0.107,0.106    c0.034,0.035,0.069,0.07,0.104,0.104c0.036,0.036,0.072,0.072,0.108,0.108c0.036,0.035,0.071,0.07,0.107,0.107    c0.035,0.034,0.069,0.068,0.104,0.104c0.036,0.036,0.071,0.072,0.108,0.107c0.035,0.035,0.07,0.069,0.105,0.104    c0.035,0.035,0.07,0.069,0.106,0.104c0.036,0.037,0.071,0.072,0.108,0.107c0.034,0.035,0.069,0.07,0.104,0.104    c0.035,0.035,0.07,0.071,0.105,0.106c0.037,0.037,0.073,0.073,0.111,0.11c0.035,0.035,0.069,0.068,0.105,0.104    c0.034,0.035,0.069,0.069,0.104,0.104c0.036,0.037,0.072,0.072,0.109,0.109c0.035,0.035,0.071,0.07,0.107,0.105    c0.035,0.035,0.07,0.07,0.105,0.105c0.036,0.035,0.071,0.07,0.107,0.105c0.034,0.035,0.069,0.07,0.104,0.104    c0.035,0.037,0.071,0.072,0.107,0.107c0.035,0.036,0.071,0.07,0.107,0.105c0.035,0.037,0.07,0.071,0.106,0.106    c0.034,0.035,0.069,0.07,0.104,0.104c0.035,0.035,0.071,0.072,0.107,0.106c0.036,0.037,0.072,0.073,0.108,0.108    c0.036,0.035,0.071,0.072,0.108,0.107c0.034,0.034,0.068,0.068,0.103,0.103c0.035,0.036,0.071,0.071,0.106,0.106    c0.035,0.035,0.07,0.07,0.105,0.105c0.036,0.035,0.071,0.072,0.107,0.107c0.036,0.037,0.073,0.072,0.109,0.108    c0.034,0.033,0.067,0.065,0.101,0.101c0.037,0.037,0.074,0.075,0.112,0.112c0.033,0.033,0.065,0.066,0.099,0.099    c0.037,0.039,0.075,0.076,0.112,0.112c0.034,0.035,0.069,0.069,0.104,0.104c0.036,0.035,0.072,0.072,0.108,0.107    c0.035,0.036,0.07,0.071,0.106,0.105c0.034,0.035,0.068,0.068,0.103,0.104c0.037,0.038,0.075,0.075,0.112,0.112    c0.034,0.034,0.068,0.067,0.102,0.103c0.035,0.035,0.07,0.07,0.106,0.105c0.036,0.036,0.072,0.072,0.108,0.107    c0.036,0.037,0.072,0.072,0.108,0.107c0.035,0.035,0.069,0.07,0.104,0.104c0.035,0.035,0.07,0.07,0.105,0.105    c0.036,0.036,0.071,0.071,0.107,0.105c0.035,0.035,0.069,0.07,0.104,0.104c0.036,0.037,0.073,0.074,0.11,0.11    c0.034,0.035,0.068,0.068,0.104,0.104c0.036,0.036,0.072,0.072,0.108,0.107c0.035,0.036,0.071,0.072,0.106,0.107    s0.069,0.068,0.104,0.104c0.037,0.038,0.075,0.075,0.112,0.111c0.033,0.033,0.066,0.066,0.099,0.1    c0.036,0.037,0.072,0.073,0.109,0.109c0.036,0.037,0.072,0.072,0.109,0.107c0.035,0.036,0.07,0.07,0.105,0.105    c0.034,0.033,0.068,0.068,0.103,0.103c0.036,0.037,0.072,0.073,0.109,0.109c0.035,0.036,0.07,0.071,0.106,0.104    c0.035,0.036,0.071,0.072,0.106,0.107c0.036,0.036,0.072,0.072,0.108,0.107c0.033,0.033,0.066,0.066,0.1,0.1    c0.038,0.039,0.075,0.076,0.113,0.113c0.034,0.035,0.068,0.068,0.103,0.103c0.037,0.038,0.073,0.074,0.111,0.111    c0.033,0.034,0.068,0.069,0.104,0.104c0.034,0.035,0.069,0.07,0.104,0.105c0.036,0.036,0.071,0.071,0.108,0.108    c0.035,0.034,0.069,0.069,0.104,0.104c0.035,0.035,0.069,0.07,0.104,0.105c0.037,0.037,0.072,0.072,0.109,0.108    c0.034,0.035,0.069,0.069,0.104,0.104c0.035,0.035,0.072,0.071,0.107,0.106c0.034,0.035,0.068,0.069,0.104,0.104    c0.037,0.037,0.074,0.074,0.113,0.111c0.032,0.034,0.066,0.068,0.102,0.102c0.035,0.037,0.07,0.072,0.107,0.107    c0.034,0.035,0.069,0.07,0.104,0.105s0.071,0.072,0.106,0.107s0.071,0.071,0.108,0.107c0.034,0.034,0.067,0.068,0.103,0.102    c0.037,0.037,0.072,0.074,0.109,0.11c0.036,0.036,0.071,0.071,0.107,0.106c0.031,0.033,0.064,0.065,0.099,0.099    c0.038,0.04,0.077,0.078,0.116,0.117c0.033,0.034,0.066,0.067,0.102,0.102c0.035,0.035,0.071,0.07,0.107,0.104    c0.033,0.035,0.068,0.07,0.104,0.104c0.037,0.038,0.075,0.076,0.114,0.114c0.033,0.034,0.067,0.066,0.103,0.102    c0.033,0.034,0.067,0.068,0.104,0.104s0.07,0.07,0.105,0.105c0.035,0.037,0.072,0.072,0.108,0.108    c0.035,0.036,0.071,0.072,0.107,0.106c0.034,0.035,0.069,0.07,0.104,0.105c0.034,0.035,0.068,0.069,0.104,0.104    c0.036,0.037,0.071,0.074,0.108,0.109c0.037,0.037,0.073,0.074,0.111,0.11c0.033,0.034,0.066,0.067,0.102,0.101    c0.035,0.036,0.07,0.072,0.106,0.107c0.035,0.035,0.07,0.07,0.104,0.105c0.035,0.035,0.072,0.071,0.107,0.106    c0.035,0.036,0.071,0.071,0.108,0.108c0.034,0.035,0.069,0.07,0.106,0.104c0.032,0.034,0.066,0.067,0.102,0.103    c0.037,0.037,0.072,0.074,0.109,0.11c0.035,0.035,0.069,0.069,0.104,0.104s0.071,0.07,0.106,0.104    c0.035,0.036,0.07,0.072,0.105,0.107c0.037,0.036,0.073,0.071,0.109,0.108c0.033,0.034,0.067,0.068,0.104,0.103    c0.035,0.036,0.071,0.071,0.107,0.108c0.033,0.034,0.068,0.068,0.104,0.104c0.036,0.038,0.073,0.074,0.11,0.111    c0.032,0.033,0.065,0.064,0.099,0.099c0.038,0.039,0.077,0.077,0.116,0.114c0.032,0.033,0.065,0.066,0.101,0.101    c0.035,0.037,0.071,0.073,0.107,0.108c0.036,0.037,0.072,0.074,0.109,0.109c0.033,0.034,0.067,0.067,0.103,0.103    c0.035,0.034,0.069,0.071,0.106,0.106c0.035,0.036,0.072,0.072,0.108,0.108c0.034,0.035,0.069,0.069,0.104,0.104    c0.035,0.037,0.072,0.072,0.109,0.109c0.034,0.034,0.068,0.068,0.104,0.102c0.035,0.037,0.072,0.074,0.109,0.109    c0.032,0.034,0.066,0.068,0.103,0.104c0.035,0.035,0.071,0.072,0.108,0.107c0.035,0.036,0.069,0.071,0.105,0.105    c0.035,0.035,0.07,0.072,0.105,0.107c0.035,0.034,0.07,0.069,0.106,0.104c0.035,0.036,0.07,0.071,0.104,0.106    c0.037,0.036,0.072,0.072,0.109,0.108c0.035,0.035,0.07,0.069,0.105,0.104s0.07,0.07,0.105,0.104    c0.034,0.035,0.069,0.069,0.104,0.104c0.034,0.037,0.071,0.072,0.106,0.107c0.035,0.036,0.07,0.071,0.105,0.105    c0.035,0.035,0.068,0.07,0.104,0.104c0.037,0.037,0.074,0.074,0.111,0.11c0.035,0.035,0.07,0.07,0.105,0.105    s0.07,0.07,0.105,0.105c0.033,0.033,0.066,0.066,0.102,0.101c0.037,0.037,0.072,0.074,0.11,0.111    c0.035,0.036,0.07,0.071,0.106,0.106c0.035,0.035,0.07,0.069,0.105,0.104c0.034,0.035,0.069,0.069,0.105,0.104    c0.035,0.037,0.07,0.072,0.107,0.107c0.033,0.035,0.069,0.07,0.104,0.105s0.069,0.069,0.104,0.104    c0.035,0.036,0.071,0.071,0.106,0.106c0.036,0.037,0.071,0.072,0.108,0.107c0.033,0.035,0.067,0.069,0.104,0.104    c0.036,0.037,0.073,0.074,0.111,0.111c0.033,0.034,0.066,0.067,0.102,0.103c0.036,0.036,0.072,0.071,0.109,0.108    c0.035,0.035,0.07,0.07,0.105,0.106c0.035,0.035,0.069,0.069,0.105,0.104c0.035,0.035,0.07,0.069,0.105,0.104    c0.034,0.036,0.07,0.072,0.106,0.106c0.035,0.035,0.069,0.07,0.104,0.105c0.037,0.037,0.072,0.073,0.109,0.107    c0.035,0.037,0.071,0.072,0.107,0.107c0.033,0.034,0.065,0.067,0.101,0.102c0.037,0.037,0.074,0.074,0.111,0.111    c0.034,0.034,0.069,0.068,0.104,0.104s0.069,0.07,0.105,0.105c0.034,0.036,0.071,0.072,0.106,0.107    c0.035,0.036,0.07,0.07,0.106,0.105c0.034,0.037,0.071,0.071,0.106,0.107c0.034,0.035,0.069,0.068,0.104,0.104    c0.035,0.037,0.071,0.072,0.106,0.106c0.033,0.035,0.067,0.069,0.103,0.103c0.037,0.039,0.075,0.076,0.112,0.113    c0.033,0.034,0.068,0.068,0.104,0.104c0.036,0.037,0.073,0.072,0.11,0.109c0.032,0.033,0.067,0.067,0.102,0.103    c0.036,0.037,0.073,0.073,0.109,0.108c0.034,0.035,0.069,0.069,0.104,0.104s0.07,0.069,0.105,0.104    c0.035,0.037,0.07,0.072,0.107,0.107c0.035,0.035,0.069,0.071,0.105,0.105c0.035,0.035,0.07,0.07,0.105,0.105    c0.035,0.037,0.071,0.073,0.108,0.109c0.034,0.035,0.069,0.068,0.104,0.104c0.035,0.036,0.07,0.071,0.105,0.107    c0.036,0.035,0.071,0.07,0.107,0.107c0.035,0.034,0.068,0.068,0.104,0.104s0.071,0.07,0.107,0.105    c0.035,0.035,0.07,0.071,0.105,0.106c0.036,0.036,0.072,0.071,0.109,0.108c0.034,0.035,0.068,0.069,0.104,0.104    c0.035,0.036,0.07,0.07,0.105,0.104c0.035,0.037,0.07,0.072,0.105,0.105c0.035,0.036,0.068,0.07,0.104,0.105    c0.037,0.037,0.072,0.072,0.109,0.108c0.035,0.035,0.067,0.068,0.104,0.103c0.035,0.037,0.071,0.072,0.107,0.109    c0.035,0.035,0.07,0.07,0.106,0.105c0.036,0.037,0.072,0.072,0.109,0.109c0.034,0.035,0.067,0.068,0.103,0.103    c0.036,0.037,0.071,0.071,0.107,0.106c0.035,0.037,0.07,0.071,0.105,0.105c0.034,0.036,0.069,0.071,0.105,0.105    c0.035,0.037,0.07,0.072,0.105,0.106c0.037,0.037,0.072,0.073,0.109,0.109c0.034,0.034,0.068,0.069,0.104,0.104    c0.037,0.037,0.074,0.073,0.11,0.109c0.034,0.034,0.068,0.069,0.103,0.104c0.035,0.034,0.072,0.069,0.107,0.104    c0.035,0.036,0.07,0.071,0.105,0.106s0.07,0.07,0.107,0.105c0.034,0.037,0.07,0.072,0.107,0.109    c0.035,0.035,0.07,0.069,0.105,0.104s0.069,0.069,0.104,0.104s0.071,0.072,0.106,0.106c0.035,0.035,0.07,0.07,0.105,0.104    c0.035,0.037,0.071,0.072,0.107,0.107c0.035,0.035,0.07,0.07,0.104,0.105c0.035,0.035,0.071,0.072,0.106,0.107    c0.035,0.034,0.07,0.07,0.105,0.105c0.037,0.037,0.074,0.072,0.111,0.109c0.033,0.033,0.066,0.066,0.102,0.101    c0.034,0.037,0.07,0.071,0.106,0.108c0.035,0.035,0.069,0.069,0.104,0.104c0.037,0.037,0.073,0.073,0.11,0.108    c0.033,0.035,0.067,0.068,0.103,0.104c0.035,0.036,0.07,0.071,0.105,0.105c0.036,0.037,0.071,0.072,0.107,0.107    c0.035,0.037,0.072,0.073,0.108,0.108c0.034,0.034,0.069,0.069,0.104,0.104s0.07,0.071,0.105,0.106    c0.034,0.035,0.07,0.069,0.106,0.104c0.034,0.037,0.069,0.072,0.104,0.107c0.037,0.037,0.074,0.073,0.111,0.109    c0.034,0.035,0.068,0.068,0.104,0.103c0.035,0.036,0.069,0.071,0.105,0.106c0.035,0.035,0.07,0.07,0.105,0.104    c0.035,0.036,0.07,0.072,0.106,0.107c1.271,1.298,3.04,2.104,5,2.104c3.58,0,6.527-2.689,6.944-6.156    c0.004,0.004,0.009,0.008,0.013,0.012c0.034,0.033,0.067,0.068,0.103,0.104c0.037,0.037,0.074,0.074,0.111,0.11    c0.034,0.035,0.069,0.069,0.104,0.104c0.035,0.034,0.07,0.069,0.104,0.104c0.036,0.037,0.073,0.074,0.11,0.109    c0.033,0.035,0.068,0.069,0.104,0.104c0.036,0.037,0.073,0.074,0.11,0.11c0.034,0.033,0.067,0.068,0.104,0.103    c0.035,0.036,0.069,0.071,0.105,0.106c0.035,0.035,0.07,0.07,0.105,0.105c0.035,0.036,0.07,0.071,0.106,0.106    c0.035,0.036,0.071,0.073,0.108,0.108c0.035,0.035,0.07,0.07,0.105,0.105c0.034,0.035,0.069,0.068,0.104,0.104    c0.034,0.037,0.069,0.071,0.106,0.106c0.034,0.036,0.069,0.071,0.105,0.106c0.035,0.035,0.07,0.07,0.105,0.105    c0.034,0.035,0.068,0.068,0.104,0.104c0.036,0.037,0.073,0.074,0.11,0.111c0.035,0.035,0.069,0.069,0.104,0.104    c0.036,0.037,0.071,0.072,0.106,0.107c0.035,0.036,0.072,0.071,0.107,0.106c0.033,0.034,0.067,0.067,0.102,0.102    c0.037,0.037,0.072,0.072,0.107,0.108c0.036,0.035,0.073,0.072,0.11,0.109c0.032,0.032,0.065,0.065,0.1,0.1    c0.037,0.038,0.074,0.074,0.112,0.111c0.034,0.035,0.068,0.069,0.104,0.104c0.035,0.036,0.071,0.072,0.108,0.108    c0.034,0.035,0.069,0.068,0.104,0.104c0.035,0.036,0.069,0.071,0.105,0.105c0.035,0.037,0.07,0.072,0.105,0.106    c0.035,0.036,0.07,0.071,0.106,0.106c0.035,0.037,0.071,0.072,0.108,0.109c0.035,0.034,0.07,0.069,0.105,0.104    c0.034,0.035,0.069,0.069,0.104,0.104c0.034,0.035,0.069,0.071,0.106,0.106c0.034,0.035,0.069,0.069,0.104,0.104    C68.299,70.191,70.068,71,72.029,71c3.865,0,7-3.135,7-7C79.029,62.04,78.223,60.271,76.924,59z" enable-background="new    " fill="url(#SVGID_3_)" opacity="0.4"/></g></g><g id="Flickr_1_"><circle cx="24" cy="32" fill="#FFFFFF" id="_x28____x29__2_" r="7"/><path d="M40,25c-3.866,0-7,3.134-7,7c0,3.865,3.134,7,7,7s7-3.135,7-7C47,28.134,43.866,25,40,25z M40,37   c-2.762,0-5-2.238-5-5c0-2.761,2.238-5,5-5s5,2.239,5,5C45,34.762,42.762,37,40,37z" fill="#FFFFFF"/></g></svg>