<?xml version="1.0" ?><!DOCTYPE svg  PUBLIC '-//W3C//DTD SVG 1.1//EN'  'http://www.w3.org/Graphics/SVG/1.1/DTD/svg11.dtd'><svg enable-background="new 0 0 64 64" height="64px" id="Evernote" version="1.1" viewBox="0 0 64 64" width="64px" xml:space="preserve" xmlns="http://www.w3.org/2000/svg" xmlns:xlink="http://www.w3.org/1999/xlink"><linearGradient gradientTransform="matrix(1 0 0 -1 -822 -1026)" gradientUnits="userSpaceOnUse" id="Circle_Shadow_1_" x1="886.0303" x2="854.0302" y1="-1089.9985" y2="-1057.9985"><stop offset="0.3163" style="stop-color:#FFFFFF;stop-opacity:0"/><stop offset="0.3508" style="stop-color:#E9E9E9;stop-opacity:0.0504"/><stop offset="0.4543" style="stop-color:#ACACAC;stop-opacity:0.2018"/><stop offset="0.5572" style="stop-color:#787878;stop-opacity:0.3523"/><stop offset="0.6569" style="stop-color:#4D4D4D;stop-opacity:0.4981"/><stop offset="0.7528" style="stop-color:#2B2B2B;stop-opacity:0.6385"/><stop offset="0.8441" style="stop-color:#131313;stop-opacity:0.7719"/><stop offset="0.9286" style="stop-color:#050505;stop-opacity:0.8956"/><stop offset="1" style="stop-color:#000000"/></linearGradient><polygon enable-background="new    " fill="url(#Circle_Shadow_1_)" id="Circle_Shadow" opacity="0.2" points="64.029,64   64.029,30.059 49,15.029 15.059,48.971 30.088,64 "/><circle cx="32" cy="32" fill="#5BA545" id="Circle" r="24"/><g id="elephant_shadow"><linearGradient gradientTransform="matrix(1 0 0 -1 -274 -299)" gradientUnits="userSpaceOnUse" id="SVGID_1_" x1="351.5566" x2="296.8588" y1="-373.4834" y2="-318.7855"><stop offset="0.5816" style="stop-color:#000000;stop-opacity:0"/><stop offset="0.6306" style="stop-color:#000000;stop-opacity:0.117"/><stop offset="1" style="stop-color:#000000"/></linearGradient><path d="M75.624,54.998c-0.093-0.492-0.341-0.873-0.642-1.174   c-0.033-0.038-0.069-0.072-0.105-0.108c-0.033-0.038-0.068-0.071-0.104-0.106c-0.035-0.039-0.072-0.075-0.108-0.112   c-0.034-0.038-0.069-0.073-0.104-0.108c-0.035-0.037-0.07-0.072-0.105-0.109c-0.035-0.038-0.071-0.073-0.107-0.11   c-0.035-0.039-0.07-0.073-0.106-0.11c-0.034-0.037-0.071-0.072-0.106-0.108c-0.033-0.037-0.068-0.072-0.104-0.107   c-0.034-0.038-0.071-0.073-0.107-0.11c-0.033-0.037-0.07-0.072-0.105-0.108c-0.033-0.038-0.068-0.072-0.104-0.106   c-0.034-0.041-0.071-0.078-0.108-0.115c-0.035-0.037-0.07-0.071-0.105-0.106c-0.035-0.039-0.07-0.075-0.107-0.11   c-0.033-0.039-0.07-0.072-0.105-0.108c-0.033-0.038-0.068-0.072-0.104-0.106c-0.035-0.041-0.072-0.076-0.109-0.113   c-0.033-0.037-0.069-0.071-0.104-0.107c-0.035-0.039-0.07-0.074-0.107-0.109c-0.033-0.039-0.069-0.072-0.104-0.108   c-0.034-0.039-0.071-0.075-0.108-0.112c-0.034-0.038-0.07-0.072-0.105-0.109c-0.033-0.037-0.068-0.069-0.104-0.104   c-0.035-0.04-0.072-0.077-0.11-0.115c-0.033-0.036-0.067-0.069-0.103-0.104c-0.035-0.039-0.072-0.075-0.108-0.112   c-0.034-0.038-0.07-0.072-0.104-0.108c-0.035-0.037-0.07-0.072-0.106-0.108c-0.035-0.039-0.071-0.074-0.107-0.111   c-0.034-0.038-0.069-0.071-0.104-0.108c-0.034-0.037-0.069-0.071-0.104-0.106c-0.034-0.039-0.069-0.074-0.106-0.11   c-0.034-0.039-0.071-0.074-0.107-0.111c-0.035-0.039-0.07-0.073-0.105-0.109c-0.035-0.038-0.069-0.072-0.105-0.107   c-0.034-0.039-0.07-0.074-0.105-0.109c-0.035-0.039-0.07-0.074-0.106-0.11c-0.035-0.038-0.071-0.073-0.106-0.11   c-0.033-0.037-0.068-0.07-0.104-0.105c-0.035-0.039-0.072-0.075-0.109-0.111c-0.033-0.039-0.07-0.074-0.105-0.111   c-0.034-0.037-0.071-0.072-0.106-0.108c-0.034-0.038-0.069-0.073-0.106-0.108c-0.032-0.037-0.068-0.072-0.104-0.107   c-0.035-0.039-0.07-0.075-0.107-0.111c-0.033-0.037-0.067-0.07-0.104-0.105c-0.035-0.041-0.072-0.076-0.109-0.114   c-0.033-0.037-0.068-0.071-0.104-0.106c-0.035-0.039-0.072-0.074-0.108-0.111c-0.033-0.038-0.07-0.073-0.105-0.109   c-0.034-0.038-0.069-0.072-0.105-0.107c-0.033-0.039-0.07-0.074-0.105-0.109c-0.033-0.038-0.068-0.072-0.104-0.107   c-0.034-0.039-0.071-0.076-0.108-0.113c-0.034-0.037-0.07-0.072-0.106-0.108c-0.034-0.038-0.069-0.072-0.104-0.108   c-0.035-0.039-0.071-0.074-0.107-0.111c-0.034-0.037-0.07-0.071-0.105-0.107c-0.033-0.038-0.069-0.072-0.105-0.109   c-0.034-0.037-0.07-0.072-0.105-0.108c-0.035-0.039-0.07-0.074-0.106-0.11c-0.034-0.037-0.069-0.072-0.104-0.107   c-0.033-0.039-0.07-0.073-0.107-0.11c-0.033-0.039-0.07-0.074-0.106-0.11c-0.034-0.039-0.069-0.074-0.106-0.109   c-0.033-0.038-0.069-0.073-0.105-0.109c-0.033-0.037-0.068-0.07-0.104-0.105c-0.034-0.039-0.071-0.076-0.109-0.113   c-0.033-0.038-0.068-0.072-0.105-0.108c-0.033-0.038-0.067-0.071-0.104-0.106c-0.035-0.041-0.071-0.076-0.107-0.113   c-0.035-0.038-0.072-0.073-0.106-0.109c-0.034-0.037-0.07-0.072-0.106-0.109c-0.033-0.035-0.066-0.068-0.102-0.104   c-0.036-0.041-0.075-0.078-0.113-0.117c-0.033-0.037-0.066-0.068-0.102-0.104c-0.035-0.04-0.071-0.076-0.108-0.113   c-0.034-0.037-0.069-0.07-0.104-0.105c-0.035-0.041-0.071-0.076-0.108-0.113c-0.035-0.038-0.071-0.073-0.106-0.109   c-0.033-0.037-0.067-0.07-0.103-0.104c-0.035-0.039-0.072-0.076-0.108-0.113c-0.035-0.038-0.07-0.071-0.105-0.108   c-0.035-0.039-0.072-0.074-0.109-0.111c-0.033-0.037-0.068-0.071-0.104-0.105c-0.034-0.039-0.07-0.074-0.106-0.111   c-0.034-0.037-0.069-0.072-0.106-0.109c-0.033-0.038-0.069-0.073-0.105-0.109c-0.034-0.037-0.07-0.072-0.105-0.108   c-0.033-0.037-0.068-0.071-0.104-0.106c-0.035-0.04-0.071-0.076-0.108-0.113c-0.035-0.039-0.072-0.073-0.106-0.109   c-0.034-0.038-0.069-0.072-0.104-0.107c-0.035-0.039-0.072-0.074-0.107-0.111c-0.034-0.039-0.07-0.072-0.106-0.108   c-0.032-0.038-0.069-0.071-0.104-0.108c-0.033-0.037-0.068-0.072-0.104-0.107c-0.035-0.039-0.072-0.076-0.109-0.113   c-0.033-0.038-0.069-0.072-0.104-0.107c-0.035-0.039-0.071-0.074-0.106-0.11c-0.035-0.038-0.069-0.072-0.104-0.106   c-0.035-0.039-0.071-0.074-0.106-0.111c-0.035-0.038-0.071-0.073-0.107-0.109c-0.033-0.037-0.066-0.07-0.104-0.105   c-0.035-0.039-0.07-0.076-0.107-0.112c-0.035-0.039-0.071-0.074-0.107-0.111c-0.033-0.038-0.07-0.073-0.105-0.108   c-0.034-0.039-0.07-0.072-0.105-0.108c-0.033-0.038-0.07-0.073-0.105-0.108c-0.035-0.039-0.071-0.074-0.107-0.111   c-0.033-0.038-0.07-0.073-0.105-0.109c-0.033-0.037-0.067-0.07-0.104-0.104c-0.034-0.041-0.07-0.076-0.107-0.113   c-0.035-0.039-0.071-0.074-0.107-0.111c-0.035-0.038-0.071-0.072-0.105-0.109c-0.035-0.037-0.07-0.071-0.105-0.107   c-0.034-0.038-0.07-0.073-0.105-0.109c-0.035-0.039-0.07-0.072-0.106-0.109c-0.034-0.038-0.071-0.074-0.107-0.11   c-0.032-0.037-0.067-0.069-0.102-0.104c-0.035-0.039-0.072-0.076-0.11-0.113c-0.033-0.039-0.07-0.074-0.105-0.11   c-0.034-0.038-0.07-0.071-0.105-0.108c-0.035-0.039-0.07-0.073-0.107-0.109c-0.033-0.038-0.069-0.073-0.104-0.107   c-0.035-0.039-0.071-0.074-0.106-0.111c-0.033-0.036-0.068-0.07-0.104-0.105c-0.035-0.04-0.072-0.076-0.109-0.111   c-0.033-0.039-0.068-0.073-0.104-0.108c-0.035-0.039-0.072-0.075-0.108-0.112c-0.034-0.037-0.069-0.072-0.104-0.107   c-0.034-0.039-0.07-0.073-0.105-0.108c-0.035-0.04-0.072-0.075-0.107-0.112c-0.033-0.037-0.068-0.07-0.104-0.104   c-0.035-0.041-0.073-0.077-0.11-0.115c-0.033-0.036-0.066-0.069-0.102-0.104c-0.035-0.039-0.072-0.075-0.107-0.111   c-0.035-0.039-0.07-0.074-0.106-0.11c-0.034-0.038-0.07-0.073-0.106-0.108c-0.035-0.039-0.07-0.074-0.106-0.11   c-0.033-0.037-0.067-0.071-0.103-0.104c-0.037-0.041-0.074-0.078-0.113-0.117c-0.031-0.036-0.066-0.069-0.102-0.104   c-0.035-0.039-0.07-0.074-0.107-0.111c-0.035-0.039-0.069-0.074-0.105-0.108c-0.034-0.039-0.07-0.074-0.105-0.108   c-0.035-0.041-0.071-0.076-0.108-0.113c-0.032-0.035-0.067-0.069-0.103-0.104c-0.035-0.041-0.074-0.078-0.111-0.115   c-0.033-0.037-0.067-0.07-0.102-0.104c-0.035-0.04-0.072-0.076-0.109-0.112c-0.033-0.039-0.068-0.072-0.104-0.109   c-0.034-0.037-0.069-0.072-0.104-0.108c-0.035-0.039-0.072-0.076-0.11-0.113c-0.032-0.036-0.065-0.067-0.101-0.103   c-0.035-0.04-0.072-0.077-0.109-0.114c-0.034-0.039-0.07-0.073-0.105-0.108c-0.035-0.039-0.07-0.074-0.106-0.109   c-0.034-0.039-0.07-0.074-0.106-0.109c-0.033-0.038-0.068-0.072-0.104-0.107c-0.035-0.039-0.071-0.074-0.107-0.111   c-0.033-0.038-0.068-0.072-0.104-0.108c-0.034-0.038-0.07-0.073-0.106-0.11c-0.033-0.037-0.07-0.072-0.105-0.108   c-0.035-0.039-0.071-0.075-0.108-0.11c-0.034-0.039-0.069-0.074-0.104-0.109c-0.034-0.037-0.069-0.071-0.104-0.107   c-0.035-0.039-0.071-0.074-0.106-0.109c-0.035-0.039-0.07-0.074-0.106-0.11c-0.034-0.038-0.069-0.073-0.106-0.109   c-0.033-0.038-0.068-0.071-0.104-0.108c-0.035-0.039-0.072-0.074-0.109-0.111c-0.033-0.037-0.066-0.07-0.103-0.105   c-0.035-0.039-0.072-0.076-0.11-0.113c-0.033-0.038-0.07-0.073-0.105-0.109c-0.033-0.037-0.069-0.072-0.104-0.107   c-0.034-0.039-0.069-0.073-0.106-0.108c-0.033-0.038-0.068-0.073-0.104-0.108c-0.035-0.039-0.072-0.074-0.107-0.111   c-0.035-0.038-0.069-0.072-0.105-0.108c-0.034-0.038-0.068-0.073-0.105-0.108c-0.035-0.041-0.072-0.076-0.109-0.113   c-0.032-0.036-0.066-0.068-0.1-0.104c-0.037-0.041-0.076-0.078-0.115-0.117c-0.031-0.037-0.065-0.068-0.1-0.104   c-0.035-0.041-0.074-0.078-0.111-0.115c-0.033-0.037-0.067-0.07-0.103-0.105c-0.034-0.037-0.069-0.072-0.106-0.108   c-0.033-0.039-0.069-0.073-0.105-0.108c-0.035-0.041-0.072-0.076-0.109-0.113c-0.033-0.037-0.067-0.072-0.104-0.107   c-0.035-0.039-0.072-0.074-0.109-0.111c-0.033-0.037-0.068-0.071-0.104-0.106c-0.034-0.038-0.069-0.073-0.105-0.108   c-0.035-0.041-0.072-0.077-0.109-0.114c-0.032-0.038-0.068-0.072-0.104-0.107c-0.033-0.039-0.07-0.074-0.105-0.111   c-0.034-0.039-0.071-0.074-0.107-0.11c-0.033-0.038-0.068-0.072-0.104-0.107c-0.035-0.04-0.073-0.077-0.11-0.114   c-0.032-0.037-0.065-0.07-0.103-0.104c-0.035-0.04-0.07-0.076-0.107-0.113c-0.035-0.039-0.071-0.075-0.107-0.111   c-0.033-0.038-0.07-0.073-0.105-0.108c-0.034-0.039-0.069-0.073-0.105-0.109c-0.033-0.038-0.068-0.073-0.104-0.108   c-0.034-0.039-0.07-0.074-0.106-0.11c-0.033-0.039-0.07-0.074-0.105-0.11c-0.034-0.039-0.07-0.074-0.106-0.11   c-0.034-0.039-0.071-0.074-0.106-0.111c-0.034-0.038-0.07-0.073-0.106-0.109c-0.034-0.039-0.069-0.074-0.106-0.11   c-0.033-0.038-0.068-0.072-0.104-0.107c-0.034-0.039-0.07-0.074-0.105-0.11c-0.035-0.039-0.07-0.074-0.106-0.11   c-0.034-0.038-0.07-0.073-0.106-0.109c-0.033-0.039-0.07-0.074-0.105-0.11c-0.034-0.04-0.071-0.075-0.108-0.112   c-0.034-0.039-0.069-0.073-0.104-0.109c-0.034-0.038-0.069-0.072-0.104-0.107c-0.034-0.039-0.071-0.075-0.106-0.111   c-0.034-0.038-0.069-0.072-0.104-0.108c-0.034-0.04-0.071-0.076-0.108-0.112c-0.033-0.038-0.069-0.073-0.104-0.109   c-0.035-0.039-0.071-0.074-0.106-0.11c-0.035-0.039-0.07-0.074-0.106-0.11c-0.034-0.038-0.069-0.073-0.104-0.108   c-0.035-0.039-0.07-0.074-0.106-0.11c-0.033-0.038-0.067-0.072-0.104-0.107c-0.035-0.041-0.072-0.077-0.109-0.114   c-0.034-0.038-0.069-0.072-0.104-0.107c-0.035-0.039-0.07-0.074-0.107-0.11c-0.034-0.039-0.069-0.073-0.105-0.109   c-0.033-0.039-0.07-0.074-0.107-0.111c-0.033-0.038-0.068-0.073-0.104-0.109c-0.034-0.038-0.069-0.072-0.104-0.107   c-0.034-0.04-0.071-0.076-0.108-0.113c-0.033-0.038-0.067-0.071-0.103-0.106c-0.037-0.04-0.073-0.076-0.11-0.114   c-0.034-0.038-0.069-0.072-0.104-0.107c-0.033-0.038-0.07-0.073-0.104-0.108c-0.035-0.04-0.071-0.075-0.108-0.112   c-0.033-0.038-0.068-0.073-0.105-0.108c-0.033-0.038-0.068-0.073-0.104-0.108c-0.033-0.039-0.07-0.074-0.107-0.11   c-0.033-0.039-0.069-0.074-0.105-0.111c-0.035-0.039-0.072-0.075-0.109-0.112c-0.031-0.037-0.065-0.07-0.101-0.104   c-0.036-0.041-0.073-0.077-0.11-0.115c-0.035-0.038-0.069-0.072-0.105-0.108c-0.033-0.038-0.069-0.073-0.105-0.109   c-0.033-0.038-0.068-0.073-0.104-0.108c-0.035-0.04-0.071-0.075-0.107-0.112c-0.033-0.038-0.07-0.073-0.105-0.109   c-0.034-0.039-0.07-0.074-0.106-0.109c-0.034-0.039-0.071-0.075-0.106-0.111c-0.034-0.039-0.07-0.073-0.106-0.109   c-0.034-0.038-0.069-0.073-0.104-0.109c-0.034-0.039-0.07-0.073-0.106-0.109c-0.034-0.039-0.069-0.073-0.104-0.109   c-0.035-0.039-0.07-0.074-0.106-0.11c-0.034-0.038-0.069-0.073-0.106-0.109c-0.033-0.039-0.069-0.074-0.105-0.111   c-0.034-0.038-0.07-0.073-0.105-0.108c-0.035-0.039-0.072-0.075-0.107-0.112c-0.034-0.038-0.069-0.072-0.105-0.108   c-0.033-0.039-0.07-0.074-0.107-0.111c-0.032-0.038-0.067-0.072-0.104-0.107c-0.033-0.039-0.07-0.074-0.105-0.11   c-0.034-0.039-0.07-0.074-0.106-0.11c-0.034-0.038-0.069-0.073-0.104-0.108c-0.035-0.04-0.072-0.076-0.109-0.113   c-0.033-0.038-0.068-0.072-0.104-0.108c-0.035-0.039-0.07-0.074-0.106-0.109c-0.034-0.039-0.071-0.075-0.106-0.111   c-0.033-0.038-0.07-0.072-0.104-0.107c-0.034-0.039-0.07-0.074-0.106-0.11c-0.033-0.039-0.07-0.074-0.105-0.11   c-0.034-0.039-0.07-0.074-0.107-0.111c-0.033-0.038-0.068-0.072-0.104-0.107c-0.035-0.039-0.071-0.075-0.108-0.111   c-0.034-0.04-0.071-0.075-0.106-0.112c-0.033-0.037-0.068-0.07-0.104-0.105c-0.035-0.04-0.072-0.077-0.109-0.114   c-0.035-0.038-0.069-0.072-0.105-0.108c-0.033-0.038-0.068-0.073-0.105-0.108c-0.033-0.039-0.068-0.073-0.104-0.109   c-0.036-0.04-0.073-0.077-0.109-0.114c-0.033-0.037-0.068-0.07-0.103-0.104c-0.035-0.04-0.072-0.076-0.109-0.113   c-0.034-0.039-0.069-0.074-0.106-0.11c-0.033-0.039-0.069-0.074-0.105-0.11c-0.033-0.038-0.07-0.073-0.105-0.108   c-0.033-0.039-0.069-0.073-0.105-0.109c-0.033-0.038-0.068-0.073-0.105-0.109c-0.033-0.04-0.07-0.075-0.106-0.111   c-0.034-0.038-0.069-0.073-0.104-0.108c-0.035-0.039-0.07-0.074-0.106-0.11c-0.034-0.039-0.071-0.075-0.106-0.111   c-0.445-0.5-1.053-0.789-1.467-0.936c-0.699-0.251-1.216-0.791-3-1c-1.02-0.119-2.587,0.415-3.781,0.748   c-0.014-0.014-0.028-0.021-0.043-0.034c-0.035-0.039-0.067-0.077-0.104-0.107c-0.035-0.04-0.069-0.079-0.106-0.111   c-0.035-0.04-0.07-0.079-0.107-0.111c-0.035-0.039-0.069-0.077-0.106-0.109c-0.034-0.039-0.067-0.077-0.104-0.109   c-0.034-0.039-0.068-0.078-0.105-0.109c-0.035-0.04-0.068-0.079-0.107-0.111c-0.033-0.039-0.067-0.078-0.105-0.109   c-0.034-0.039-0.068-0.078-0.105-0.11c-0.035-0.039-0.068-0.078-0.106-0.109c-0.034-0.04-0.069-0.079-0.106-0.11   c-0.033-0.039-0.067-0.077-0.104-0.108c-0.035-0.04-0.069-0.079-0.106-0.11c-0.033-0.039-0.067-0.078-0.104-0.109   c-0.035-0.04-0.069-0.079-0.106-0.11c-0.035-0.039-0.068-0.078-0.105-0.109c-0.035-0.04-0.069-0.079-0.106-0.11   c-0.034-0.04-0.069-0.079-0.106-0.11c-0.092-0.103-0.188-0.19-0.301-0.235c-1.75-0.698-4.458-0.53-5.152-0.338   c-0.552,0.154-1.163,0.467-1.503,0.95c-0.108,0.153-0.197,0.33-0.262,0.532l-0.176,0.173c0.024-0.056,0.036-0.122,0.063-0.175   l0.097-0.18c-0.012,0.001-0.021,0.006-0.034,0.017l-0.232,0.229c0.023-0.056,0.035-0.122,0.062-0.175l0.098-0.18   c-0.012,0.002-0.021,0.007-0.033,0.017l-0.232,0.229c0.023-0.056,0.035-0.122,0.062-0.175l0.098-0.18   c-0.012,0.002-0.021,0.007-0.033,0.017l-0.233,0.229c0.024-0.056,0.036-0.122,0.063-0.176l0.097-0.18   c-0.012,0.002-0.021,0.007-0.033,0.017l-0.233,0.229c0.023-0.056,0.036-0.123,0.063-0.176l0.098-0.18   c-0.012,0.002-0.021,0.006-0.034,0.017l-0.232,0.228c0.023-0.056,0.035-0.121,0.062-0.174l0.097-0.18   c-0.012,0.002-0.021,0.007-0.034,0.017l-0.232,0.229c0.024-0.056,0.036-0.122,0.063-0.175l0.097-0.18   c-0.011,0.002-0.021,0.007-0.033,0.017l-5.517,5.426c-0.01,0.009-0.017,0.021-0.021,0.032c0.114-0.056,0.27-0.133,0.292-0.143   c0.026-0.012,0.061-0.016,0.087-0.027l-0.252,0.248c-0.01,0.009-0.017,0.021-0.021,0.032c0.114-0.057,0.27-0.134,0.292-0.143   c0.026-0.012,0.06-0.016,0.086-0.026l-0.251,0.247c-0.009,0.009-0.017,0.021-0.021,0.032c0.114-0.056,0.27-0.133,0.292-0.143   c0.026-0.012,0.06-0.016,0.086-0.027l-0.251,0.248c-0.01,0.009-0.017,0.021-0.021,0.032c0.114-0.056,0.27-0.133,0.292-0.144   c0.026-0.012,0.061-0.016,0.088-0.027l-0.252,0.248c-0.01,0.009-0.018,0.021-0.021,0.032c0.114-0.056,0.27-0.133,0.292-0.143   c0.026-0.012,0.06-0.016,0.086-0.027l-0.251,0.247c-0.01,0.009-0.018,0.021-0.021,0.032c0.114-0.057,0.27-0.134,0.292-0.144   c0.026-0.012,0.061-0.016,0.087-0.027l-0.251,0.248c-0.009,0.009-0.017,0.021-0.021,0.032c0.114-0.056,0.27-0.133,0.292-0.143   c0.026-0.012,0.061-0.016,0.087-0.027l-0.251,0.248c-0.01,0.009-0.017,0.021-0.021,0.032c0.114-0.056,0.27-0.133,0.292-0.143   c0.026-0.012,0.06-0.016,0.086-0.027l-0.184,0.181c-0.455,0.064-0.862,0.193-0.969,0.455c-0.38,0.503,0.644,9.504,1.452,11.156   c0.175,0.359,0.325,0.598,0.524,0.791c0.032,0.038,0.07,0.074,0.105,0.107c0.033,0.039,0.072,0.078,0.108,0.112   c0.033,0.038,0.071,0.074,0.106,0.109c0.032,0.037,0.07,0.073,0.105,0.108c0.032,0.037,0.071,0.074,0.106,0.108   c0.032,0.038,0.07,0.075,0.106,0.11c0.033,0.037,0.071,0.074,0.106,0.109c0.033,0.037,0.072,0.075,0.108,0.11   c0.032,0.037,0.069,0.072,0.104,0.106c0.034,0.039,0.072,0.076,0.109,0.111c0.032,0.038,0.07,0.074,0.105,0.108   c0.033,0.038,0.071,0.075,0.107,0.11c0.032,0.037,0.069,0.073,0.105,0.107c0.033,0.038,0.072,0.076,0.108,0.111   c0.032,0.037,0.07,0.074,0.105,0.107c0.032,0.038,0.071,0.075,0.106,0.11c0.032,0.037,0.07,0.074,0.105,0.108   c0.033,0.037,0.071,0.076,0.108,0.11c0.032,0.038,0.07,0.074,0.106,0.108c0.032,0.037,0.07,0.074,0.106,0.109   c0.032,0.037,0.07,0.074,0.105,0.108c0.033,0.038,0.071,0.076,0.107,0.11c0.032,0.037,0.07,0.074,0.105,0.109   c0.033,0.037,0.071,0.074,0.106,0.108c0.032,0.038,0.07,0.075,0.106,0.108c0.033,0.039,0.071,0.076,0.107,0.111   c0.032,0.038,0.07,0.074,0.105,0.108c0.033,0.038,0.071,0.075,0.106,0.11c0.033,0.037,0.07,0.073,0.106,0.107   c0.033,0.039,0.072,0.076,0.108,0.111c0.032,0.037,0.07,0.074,0.105,0.107c0.033,0.038,0.071,0.075,0.106,0.109   c0.032,0.038,0.07,0.074,0.105,0.109c0.033,0.039,0.072,0.076,0.108,0.11c0.032,0.038,0.07,0.074,0.105,0.108   c0.033,0.037,0.071,0.074,0.107,0.109c0.032,0.037,0.069,0.074,0.104,0.107c0.034,0.039,0.073,0.077,0.109,0.113   c0.032,0.037,0.07,0.072,0.104,0.107c0.033,0.037,0.071,0.073,0.106,0.108c0.033,0.038,0.071,0.075,0.107,0.11   c0.033,0.037,0.071,0.074,0.106,0.109c0.033,0.037,0.07,0.074,0.106,0.108c0.033,0.038,0.071,0.075,0.107,0.11   c0.032,0.037,0.07,0.073,0.105,0.107c0.033,0.039,0.072,0.076,0.108,0.111c0.032,0.037,0.07,0.074,0.105,0.107   c0.033,0.038,0.071,0.075,0.107,0.11c0.032,0.037,0.069,0.073,0.104,0.106c0.033,0.039,0.071,0.076,0.107,0.111   c0.033,0.038,0.071,0.075,0.107,0.11c0.033,0.038,0.071,0.075,0.107,0.11c0.032,0.037,0.07,0.073,0.105,0.107   c0.033,0.038,0.071,0.075,0.106,0.109c0.033,0.037,0.07,0.074,0.106,0.108c0.032,0.038,0.07,0.075,0.106,0.109   c0.033,0.039,0.071,0.075,0.107,0.11c0.032,0.037,0.07,0.074,0.105,0.108c0.033,0.038,0.071,0.076,0.107,0.11   c0.032,0.037,0.07,0.074,0.105,0.109c0.033,0.037,0.071,0.074,0.107,0.109c0.032,0.038,0.071,0.074,0.106,0.109   c0.032,0.037,0.07,0.074,0.106,0.108c0.032,0.037,0.07,0.074,0.105,0.108c0.033,0.039,0.072,0.076,0.107,0.111   c0.032,0.037,0.07,0.074,0.105,0.107c0.033,0.038,0.071,0.075,0.107,0.11c0.033,0.038,0.07,0.075,0.106,0.108   c0.033,0.038,0.072,0.076,0.108,0.111c0.032,0.037,0.069,0.073,0.104,0.107c0.033,0.037,0.071,0.074,0.106,0.109   c0.033,0.037,0.07,0.074,0.106,0.108c0.033,0.039,0.071,0.075,0.107,0.11c0.032,0.037,0.07,0.074,0.105,0.107   c0.033,0.039,0.072,0.077,0.108,0.112c0.032,0.038,0.07,0.073,0.105,0.108c0.032,0.037,0.07,0.074,0.105,0.108   c0.033,0.038,0.071,0.075,0.107,0.11c0.033,0.037,0.07,0.074,0.106,0.108c0.033,0.038,0.071,0.075,0.106,0.109   c0.033,0.038,0.071,0.075,0.106,0.108c0.033,0.039,0.071,0.076,0.107,0.11c0.032,0.038,0.07,0.075,0.106,0.108   c0.032,0.039,0.07,0.074,0.105,0.109c0.033,0.038,0.071,0.075,0.107,0.109c0.032,0.038,0.07,0.074,0.105,0.109   c0.033,0.037,0.071,0.076,0.107,0.109c0.033,0.039,0.071,0.075,0.107,0.11c0.032,0.036,0.069,0.073,0.104,0.108   c0.033,0.037,0.071,0.074,0.106,0.108c0.033,0.039,0.072,0.076,0.108,0.11c0.032,0.037,0.07,0.074,0.105,0.109   c0.033,0.037,0.071,0.074,0.107,0.109c0.033,0.038,0.07,0.074,0.106,0.107c0.033,0.039,0.071,0.076,0.107,0.11   c0.033,0.038,0.071,0.075,0.106,0.109c0.032,0.038,0.07,0.075,0.106,0.108c0.032,0.039,0.07,0.075,0.106,0.109   c0.033,0.039,0.072,0.076,0.108,0.111c0.032,0.037,0.07,0.074,0.105,0.107c0.032,0.038,0.07,0.075,0.106,0.109   c0.032,0.038,0.07,0.074,0.105,0.109c0.033,0.037,0.071,0.074,0.107,0.109c0.033,0.038,0.071,0.076,0.106,0.11   c0.033,0.038,0.072,0.073,0.107,0.108c0.031,0.037,0.068,0.073,0.104,0.107c0.033,0.04,0.072,0.078,0.109,0.113   c0.031,0.037,0.068,0.072,0.104,0.105c0.033,0.039,0.072,0.076,0.107,0.111c0.032,0.038,0.07,0.074,0.105,0.109   c0.032,0.037,0.07,0.074,0.105,0.108c0.033,0.038,0.071,0.075,0.106,0.11c0.032,0.037,0.069,0.072,0.104,0.107   c0.033,0.039,0.072,0.075,0.107,0.111c0.032,0.037,0.07,0.074,0.105,0.107c0.033,0.039,0.07,0.076,0.105,0.11   c0.033,0.038,0.071,0.075,0.107,0.109c0.031,0.037,0.068,0.073,0.104,0.108c0.033,0.037,0.071,0.076,0.107,0.11   c0.031,0.037,0.068,0.073,0.104,0.106c0.033,0.039,0.072,0.078,0.109,0.113c0.031,0.037,0.068,0.072,0.104,0.105   c0.033,0.04,0.072,0.078,0.109,0.113c0.032,0.037,0.069,0.072,0.104,0.106c0.033,0.038,0.07,0.075,0.106,0.109   c0.032,0.039,0.07,0.075,0.106,0.11c0.031,0.037,0.07,0.074,0.105,0.108c0.032,0.038,0.07,0.075,0.106,0.11   c0.032,0.037,0.069,0.074,0.104,0.107c0.033,0.038,0.072,0.076,0.108,0.111c0.031,0.037,0.068,0.073,0.104,0.107   c0.033,0.037,0.071,0.076,0.107,0.11c0.031,0.038,0.07,0.075,0.105,0.109c0.032,0.038,0.071,0.075,0.106,0.108   c0.033,0.039,0.071,0.075,0.106,0.11c0.031,0.037,0.068,0.073,0.104,0.106c0.033,0.039,0.07,0.076,0.107,0.111   c0.033,0.038,0.07,0.075,0.105,0.109c0.032,0.038,0.071,0.075,0.105,0.109c0.033,0.039,0.072,0.076,0.106,0.109   c0.032,0.037,0.069,0.073,0.104,0.107c0.033,0.039,0.072,0.078,0.111,0.113c0.03,0.037,0.066,0.072,0.102,0.105   c0.033,0.038,0.07,0.076,0.107,0.111c0.032,0.037,0.07,0.074,0.106,0.109c0.032,0.037,0.069,0.074,0.104,0.108   c0.033,0.038,0.07,0.073,0.105,0.108c0.033,0.039,0.07,0.076,0.107,0.11c0.031,0.038,0.069,0.075,0.105,0.11   c0.032,0.037,0.07,0.074,0.105,0.107c0.031,0.039,0.07,0.075,0.105,0.109c0.032,0.038,0.07,0.075,0.105,0.109   c0.033,0.039,0.072,0.076,0.107,0.111c0.032,0.037,0.07,0.074,0.106,0.108c0.032,0.038,0.069,0.075,0.104,0.108   c0.032,0.037,0.07,0.074,0.105,0.108c0.031,0.038,0.07,0.075,0.105,0.109c0.032,0.038,0.072,0.077,0.108,0.112   c0.032,0.037,0.067,0.072,0.104,0.105c0.033,0.039,0.07,0.076,0.106,0.111c0.033,0.037,0.071,0.076,0.106,0.109   c0.033,0.038,0.07,0.075,0.105,0.109c0.033,0.038,0.071,0.074,0.105,0.107c0.033,0.039,0.07,0.076,0.104,0.109   c0.034,0.039,0.073,0.077,0.11,0.112c0.031,0.036,0.068,0.073,0.104,0.106c0.031,0.037,0.069,0.074,0.105,0.109   c0.033,0.039,0.072,0.076,0.107,0.111c0.032,0.037,0.07,0.074,0.106,0.108c0.032,0.038,0.069,0.075,0.106,0.109   c0.031,0.038,0.068,0.073,0.104,0.108c0.033,0.037,0.07,0.076,0.107,0.11c0.031,0.037,0.068,0.073,0.104,0.106   c0.033,0.039,0.071,0.076,0.106,0.111c0.033,0.037,0.07,0.074,0.106,0.108c0.032,0.039,0.071,0.076,0.107,0.11   c0.032,0.039,0.069,0.074,0.104,0.109c0.032,0.038,0.07,0.074,0.106,0.108c0.032,0.038,0.069,0.075,0.104,0.108   c0.032,0.039,0.071,0.076,0.107,0.111c0.031,0.038,0.07,0.074,0.105,0.107c0.033,0.039,0.07,0.076,0.105,0.111   c0.032,0.037,0.07,0.074,0.105,0.108c0.033,0.038,0.071,0.076,0.107,0.11c0.032,0.037,0.07,0.074,0.105,0.107   c0.033,0.039,0.07,0.076,0.106,0.111c0.031,0.037,0.068,0.072,0.103,0.105c0.035,0.039,0.074,0.078,0.111,0.113   c0.031,0.037,0.068,0.073,0.104,0.107c0.031,0.037,0.07,0.074,0.105,0.109c0.032,0.037,0.07,0.075,0.106,0.109   c0.032,0.038,0.069,0.075,0.104,0.109c0.033,0.037,0.072,0.076,0.108,0.11c0.031,0.036,0.067,0.072,0.104,0.106   c0.033,0.039,0.071,0.076,0.108,0.111c0.031,0.039,0.069,0.074,0.104,0.108c0.031,0.038,0.07,0.075,0.105,0.108   c0.033,0.039,0.071,0.076,0.107,0.111c0.031,0.037,0.07,0.074,0.104,0.108c0.033,0.038,0.071,0.076,0.107,0.11   c0.03,0.037,0.069,0.072,0.104,0.106c0.032,0.039,0.071,0.077,0.108,0.112c0.03,0.037,0.067,0.072,0.104,0.107   c0.032,0.039,0.071,0.075,0.107,0.11c0.032,0.038,0.07,0.075,0.105,0.108c0.033,0.039,0.07,0.074,0.105,0.108   c0.032,0.038,0.07,0.076,0.105,0.11c0.033,0.038,0.07,0.074,0.105,0.109c0.033,0.037,0.071,0.074,0.107,0.109   c0.031,0.037,0.068,0.074,0.104,0.107c0.033,0.039,0.072,0.076,0.108,0.111c0.032,0.039,0.069,0.074,0.104,0.108   c0.033,0.038,0.07,0.075,0.106,0.108c0.032,0.039,0.069,0.076,0.106,0.11c0.031,0.037,0.068,0.074,0.104,0.107   c0.033,0.04,0.072,0.077,0.109,0.114c0.031,0.035,0.068,0.07,0.104,0.104c0.032,0.039,0.07,0.077,0.107,0.112   c0.033,0.038,0.07,0.075,0.106,0.11c0.032,0.037,0.07,0.073,0.104,0.107c0.033,0.039,0.072,0.076,0.107,0.109   c0.031,0.039,0.069,0.074,0.104,0.108c0.033,0.038,0.072,0.076,0.109,0.111c0.031,0.038,0.069,0.073,0.104,0.108   c0.032,0.037,0.071,0.074,0.106,0.108c0.032,0.039,0.069,0.076,0.105,0.11c0.033,0.037,0.07,0.074,0.107,0.109   c0.031,0.039,0.069,0.075,0.105,0.109c0.032,0.037,0.068,0.074,0.104,0.107c0.033,0.039,0.072,0.076,0.108,0.111   c0.031,0.037,0.069,0.073,0.104,0.107c0.033,0.037,0.072,0.076,0.107,0.111c0.032,0.037,0.07,0.073,0.105,0.108   c0.031,0.038,0.07,0.075,0.105,0.108c0.033,0.039,0.071,0.076,0.107,0.111c0.031,0.037,0.068,0.073,0.104,0.107   c0.033,0.038,0.071,0.076,0.107,0.109c0.031,0.039,0.07,0.074,0.105,0.108c0.031,0.039,0.07,0.076,0.106,0.111   c0.032,0.038,0.069,0.073,0.104,0.106c0.033,0.039,0.07,0.076,0.106,0.111c0.033,0.039,0.071,0.076,0.106,0.109   c0.033,0.039,0.07,0.076,0.106,0.109c0.032,0.038,0.069,0.074,0.104,0.108c0.033,0.038,0.07,0.075,0.105,0.108   c0.033,0.039,0.071,0.076,0.108,0.111c0.03,0.038,0.069,0.074,0.104,0.108c0.031,0.038,0.069,0.075,0.105,0.108   c0.031,0.039,0.07,0.076,0.105,0.11c0.033,0.039,0.071,0.076,0.107,0.11c0.031,0.037,0.07,0.074,0.105,0.109   c0.033,0.036,0.069,0.072,0.104,0.106c0.034,0.039,0.071,0.077,0.108,0.112c0.031,0.037,0.07,0.072,0.104,0.106   c0.033,0.039,0.072,0.076,0.108,0.111c0.031,0.038,0.07,0.073,0.104,0.108c0.032,0.037,0.07,0.074,0.106,0.109   c0.033,0.038,0.07,0.075,0.107,0.109c0.031,0.039,0.068,0.074,0.104,0.109c0.031,0.037,0.07,0.074,0.105,0.108   c0.032,0.038,0.07,0.075,0.106,0.11c0.032,0.037,0.071,0.074,0.106,0.109c0.032,0.038,0.07,0.075,0.105,0.109   c0.032,0.037,0.07,0.074,0.105,0.107c0.033,0.039,0.071,0.076,0.107,0.111c0.032,0.038,0.07,0.075,0.105,0.109   c0.031,0.037,0.07,0.072,0.104,0.106c0.032,0.038,0.07,0.075,0.106,0.109c0.033,0.04,0.072,0.078,0.109,0.112   c0.031,0.037,0.068,0.074,0.104,0.107c0.033,0.038,0.07,0.075,0.105,0.109c0.032,0.037,0.07,0.074,0.106,0.109   c0.032,0.039,0.069,0.075,0.106,0.109c0.032,0.039,0.07,0.076,0.106,0.109c0.032,0.039,0.069,0.074,0.104,0.108   c0.031,0.038,0.069,0.075,0.104,0.109c0.033,0.038,0.071,0.075,0.108,0.11c0.031,0.039,0.07,0.076,0.105,0.109   c0.032,0.038,0.07,0.075,0.105,0.109c0.031,0.037,0.07,0.074,0.105,0.107c0.032,0.039,0.07,0.076,0.106,0.111   c0.032,0.037,0.069,0.074,0.104,0.107c0.032,0.039,0.07,0.076,0.105,0.109c0.033,0.038,0.07,0.075,0.107,0.11   c0.032,0.038,0.07,0.075,0.106,0.11c0.032,0.037,0.069,0.074,0.106,0.108c0.031,0.038,0.069,0.074,0.104,0.108   c0.032,0.037,0.069,0.074,0.104,0.109c0.033,0.039,0.071,0.075,0.107,0.11c0.032,0.037,0.07,0.074,0.105,0.106   c0.031,0.039,0.07,0.076,0.105,0.111c0.032,0.038,0.071,0.075,0.105,0.109c0.033,0.038,0.072,0.076,0.107,0.109   c0.032,0.039,0.07,0.074,0.105,0.108c0.031,0.038,0.07,0.075,0.105,0.108c0.032,0.039,0.07,0.076,0.106,0.111   c0.032,0.037,0.069,0.074,0.106,0.108c0.031,0.038,0.068,0.075,0.104,0.108c0.032,0.039,0.071,0.076,0.106,0.11   c0.032,0.038,0.069,0.074,0.105,0.108c0.176,0.206,0.387,0.359,0.721,0.515c0.508,0.216,1.211,0.4,1.967,0.56   c0.006,0.006,0.012,0.011,0.018,0.017c0.031,0.038,0.068,0.071,0.105,0.108c0.031,0.039,0.07,0.074,0.106,0.11   c0.032,0.039,0.069,0.073,0.106,0.109c0.031,0.038,0.068,0.071,0.104,0.106c0.033,0.039,0.072,0.075,0.107,0.112   c0.033,0.038,0.07,0.072,0.106,0.108c0.031,0.037,0.068,0.07,0.103,0.105c0.035,0.041,0.074,0.077,0.111,0.115   c0.031,0.038,0.068,0.07,0.104,0.105c0.033,0.039,0.07,0.074,0.107,0.109c0.031,0.039,0.069,0.074,0.105,0.11   c0.031,0.039,0.07,0.073,0.107,0.11c0.031,0.039,0.07,0.073,0.105,0.109c0.032,0.038,0.07,0.073,0.105,0.109   c0.031,0.037,0.068,0.07,0.104,0.104c0.033,0.041,0.072,0.076,0.107,0.113c0.033,0.04,0.072,0.074,0.107,0.111   c0.032,0.037,0.07,0.072,0.105,0.106c0.031,0.039,0.07,0.074,0.105,0.11c0.033,0.04,0.071,0.074,0.107,0.111   c0.031,0.037,0.07,0.071,0.105,0.107c0.032,0.039,0.07,0.073,0.106,0.109c0.03,0.039,0.067,0.072,0.104,0.106   c0.032,0.04,0.071,0.075,0.107,0.113c0.032,0.038,0.07,0.071,0.105,0.106c0.031,0.039,0.069,0.074,0.104,0.108   c0.033,0.04,0.072,0.076,0.108,0.113c0.031,0.038,0.07,0.073,0.105,0.108c0.032,0.039,0.07,0.072,0.105,0.108   c0.031,0.037,0.068,0.07,0.103,0.104c0.034,0.041,0.074,0.078,0.112,0.117c0.031,0.037,0.068,0.07,0.104,0.105   c0.033,0.039,0.071,0.074,0.107,0.111c0.031,0.037,0.068,0.07,0.104,0.106c0.033,0.039,0.071,0.074,0.108,0.111   c0.032,0.039,0.069,0.073,0.106,0.11c0.031,0.037,0.066,0.068,0.102,0.104c0.034,0.041,0.074,0.078,0.111,0.115   c0.031,0.039,0.068,0.072,0.104,0.106c0.033,0.039,0.071,0.074,0.107,0.111c0.031,0.038,0.07,0.071,0.104,0.108   c0.033,0.039,0.071,0.074,0.107,0.109c0.032,0.038,0.069,0.072,0.104,0.108c0.033,0.038,0.071,0.073,0.107,0.11   c0.031,0.037,0.068,0.07,0.104,0.105c0.032,0.04,0.07,0.075,0.106,0.111c0.032,0.039,0.071,0.074,0.108,0.111   c0.031,0.039,0.07,0.073,0.105,0.109c0.032,0.038,0.07,0.072,0.105,0.107c0.033,0.039,0.07,0.072,0.104,0.108   c0.033,0.039,0.071,0.074,0.106,0.111c0.033,0.038,0.072,0.073,0.107,0.11c0.031,0.037,0.069,0.07,0.104,0.105   c0.033,0.04,0.072,0.075,0.109,0.111c0.031,0.039,0.069,0.074,0.104,0.108c0.032,0.04,0.071,0.074,0.106,0.111   c0.032,0.038,0.07,0.071,0.106,0.108c0.032,0.039,0.069,0.071,0.104,0.107c0.032,0.039,0.069,0.074,0.105,0.109   c0.033,0.039,0.07,0.074,0.105,0.111c0.033,0.037,0.07,0.071,0.105,0.106c0.033,0.04,0.071,0.075,0.107,0.112   c0.033,0.039,0.07,0.072,0.106,0.109c0.032,0.039,0.071,0.073,0.106,0.109c0.031,0.038,0.068,0.07,0.104,0.105   c0.033,0.041,0.072,0.076,0.108,0.113c0.03,0.037,0.067,0.07,0.104,0.105c0.032,0.039,0.07,0.074,0.106,0.111   c0.032,0.038,0.069,0.073,0.106,0.109c0.031,0.039,0.07,0.074,0.106,0.111c0.032,0.039,0.071,0.072,0.106,0.108   c0.031,0.038,0.069,0.072,0.104,0.108c0.032,0.038,0.07,0.072,0.106,0.109c0.033,0.039,0.07,0.073,0.106,0.11   c0.032,0.038,0.071,0.073,0.106,0.109c0.031,0.036,0.068,0.069,0.103,0.104c0.033,0.04,0.071,0.075,0.107,0.111   c0.032,0.04,0.071,0.074,0.108,0.111c0.664,0.793,1.948,1.004,4.344,1.004c3.312,0,4.635,0.205,6-4c0.271-0.828,1.604-3.745,2-8   C76.875,65.309,76.009,57.046,75.624,54.998z M25.603,18.928l-0.004,0.004c0.003-0.007,0.005-0.016,0.008-0.023   C25.605,18.916,25.604,18.922,25.603,18.928z M20.585,24.019c0.026-0.012,0.06-0.016,0.086-0.027l-0.045,0.045   c-0.034,0.003-0.067,0.007-0.101,0.011C20.547,24.037,20.579,24.021,20.585,24.019z" enable-background="new    " fill="url(#SVGID_1_)" opacity="0.4"/><circle cx="32.029" cy="32" fill="none" r="24"/></g><path d="M43.624,21.999c-0.228-1.198-1.353-1.77-2-2c-0.699-0.251-1.216-0.791-3-1  c-1.437-0.168-3.979,0.969-5,1c-0.122-0.831-0.381-2.23-1.038-2.494c-1.751-0.697-4.458-0.529-5.153-0.338  c-0.552,0.154-1.163,0.467-1.503,0.95c-0.228,0.323-0.375,0.735-0.376,1.315c0,0.325,0.009,1.098,0.018,1.78  c0.008,0.687,0.016,1.302,0.016,1.306c0,0.61-0.343,1.479-0.963,1.48h-3c-0.606,0-2,0-2.212,0.518  c-0.38,0.504,0.644,9.503,1.452,11.156c0.313,0.645,0.522,0.911,1.138,1.195c1.372,0.582,4.153,0.945,5.622,1.131  c1,0,3,0,3.545-0.975c0.477-1.433,0.542-2.7,0.542-3.617c0-0.096,0.139-0.1,0.139,0c0,0.648,0.026,2.977,1.773,3.592  c0.688,0.243,6-1,6,4c0,2.035-0.746,3-3,3c-1.828,0-3-0.561-3-2c0-1.163,1.142-1,2-1c0.383,0,0-0.282,0-1c0-0.714,0.426-0.99,0-1  c-2.978-0.082-4,0-4,4c0,3.348,0.777,4,5,4c3.312,0,4.634,0.205,6-4c0.271-0.829,1.604-3.746,2-8  C44.875,32.31,44.009,24.047,43.624,21.999L43.624,21.999z M35.624,30.999c0.104-0.826,0.778-2.043,2-2c1.351,0.046,2,1,2,2  C38.624,29.999,35.624,30.999,35.624,30.999z M21.497,22.81h0.002h2.839c0.163,0,0.294-0.133,0.294-0.291  c0-0.002-0.034-2.414-0.034-3.086v-0.009c0-0.551,0.116-1.03,0.319-1.435l0.097-0.18c-0.011,0.002-0.021,0.006-0.033,0.017  l-5.517,5.426c-0.01,0.009-0.017,0.021-0.021,0.032c0.114-0.057,0.27-0.133,0.292-0.143C20.216,22.926,20.798,22.81,21.497,22.81  L21.497,22.81z" fill="#FFFFFF" id="elephant_1_"/></svg>