<?xml version="1.0" ?><svg height="36" id="svg6390" version="1.1" width="36" xmlns="http://www.w3.org/2000/svg" xmlns:cc="http://creativecommons.org/ns#" xmlns:dc="http://purl.org/dc/elements/1.1/" xmlns:inkscape="http://www.inkscape.org/namespaces/inkscape" xmlns:rdf="http://www.w3.org/1999/02/22-rdf-syntax-ns#" xmlns:sodipodi="http://sodipodi.sourceforge.net/DTD/sodipodi-0.dtd" xmlns:svg="http://www.w3.org/2000/svg"><defs id="defs6392"/><g id="layer1" transform="translate(0,-1016.3622)"><path d="m 13.5,1020.3622 9,0 c 0.8396,0 1.5,0.6604 1.5,1.5 l 0,8 c 0,2.3667 -1,4.3907 -1,7.5078 l 0,3.9922 0,1.5 0,1.5 c 0,2.2247 -1.7754,4 -4,4 l -2,0 c -2.2246,0 -4,-1.7753 -4,-4 l 0,-1.5 0,-1.5 0,-3.9922 c 0,-3.1171 -1,-5.1411 -1,-7.5078 l 0,-8 c 0,-0.8396 0.6604,-1.5 1.5,-1.5 z m 0.5,1 c -0.5464,0 -1,0.4536 -1,1 0,0.5464 0.4536,1 1,1 0.5464,0 1,-0.4536 1,-1 0,-0.5464 -0.4536,-1 -1,-1 z m 2.5078,0.5 c -0.6762,-0.01 -0.6762,1.0096 0,1 l 1,0 c 0.6762,0.01 0.6762,-1.0096 0,-1 z m 3,0 c -0.6762,-0.01 -0.6762,1.0096 0,1 l 1,0 c 0.6762,0.01 0.6762,-1.0096 0,-1 z m -5.0078,2.5 c -0.6762,-0.01 -0.6762,1.0096 0,1 l 1,0 c 0.6762,0.01 0.6762,-1.0096 0,-1 z m 3,0 c -0.6762,-0.01 -0.6762,1.0096 0,1 l 1,0 c 0.6762,0.01 0.6762,-1.0096 0,-1 z m 3,0 c -0.6762,-0.01 -0.6762,1.0096 0,1 l 1,0 c 0.6762,0.01 0.6762,-1.0096 0,-1 z m -6,2 c -0.6762,-0.01 -0.6762,1.0096 0,1 l 1,0 c 0.6762,0.01 0.6762,-1.0096 0,-1 z m 3,0 c -0.6762,-0.01 -0.6762,1.0096 0,1 l 1,0 c 0.6762,0.01 0.6762,-1.0096 0,-1 z m 3,0 c -0.6762,-0.01 -0.6762,1.0096 0,1 l 1,0 c 0.6762,0.01 0.6762,-1.0096 0,-1 z m -6,2 c -0.6762,-0.01 -0.6762,1.0096 0,1 l 1,0 c 0.6762,0.01 0.6762,-1.0096 0,-1 z m 3,0 c -0.6762,-0.01 -0.6762,1.0096 0,1 l 1,0 c 0.6762,0.01 0.6762,-1.0096 0,-1 z m 3,0 c -0.6762,-0.01 -0.6762,1.0096 0,1 l 1,0 c 0.6762,0.01 0.6762,-1.0096 0,-1 z m -6,2 c -0.6762,-0.01 -0.6762,1.0096 0,1 l 1,0 c 0.6762,0.01 0.6762,-1.0096 0,-1 z m 3,0 c -0.6762,-0.01 -0.6762,1.0096 0,1 l 1,0 c 0.6762,0.01 0.6762,-1.0096 0,-1 z m 3,0 c -0.6762,-0.01 -0.6762,1.0096 0,1 l 1,0 c 0.6762,0.01 0.6762,-1.0096 0,-1 z m -6,3 c -0.6762,-0.01 -0.6762,1.0096 0,1 l 1,0 c 0.6762,0.01 0.6762,-1.0096 0,-1 z m 5.9922,0 c -0.6762,-0.01 -0.6762,1.0096 0,1 l 1,0 c 0.6762,0.01 0.6762,-1.0096 0,-1 z m -2.5,0.5 c -0.1299,0 -0.2539,0.055 -0.3457,0.1465 l -1.0606,1.0605 c -0.4884,0.4714 0.2358,1.1955 0.7071,0.7071 l 0.707,-0.7071 0.707,0.7071 c 0.4713,0.4884 1.1955,-0.2357 0.7071,-0.7071 l -1.0606,-1.0605 c -0.096,-0.096 -0.226,-0.1486 -0.3613,-0.1465 z m -2.4414,2.4258 c -0.1301,0 -0.2534,0.059 -0.3438,0.1523 l -1.0605,1.0606 c -0.1952,0.1952 -0.1952,0.5117 0,0.707 l 1.0605,1.0606 c 0.4713,0.4884 1.1955,-0.2358 0.7071,-0.7071 l -0.7071,-0.707 0.7071,-0.707 c 0.3288,-0.3179 0.094,-0.8739 -0.3633,-0.8594 z m 4.8828,0 c -0.4494,0 -0.6706,0.5468 -0.3477,0.8594 l 0.7071,0.707 -0.7071,0.707 c -0.4884,0.4713 0.2358,1.1955 0.7071,0.7071 l 1.0605,-1.0606 c 0.1952,-0.1953 0.1952,-0.5118 0,-0.707 l -1.0605,-1.0606 c -0.094,-0.097 -0.2239,-0.1523 -0.3594,-0.1523 z M 18,1036.3622 c -0.8225,0 -1.5,0.6775 -1.5,1.5 0,0.8225 0.6775,1.5 1.5,1.5 0.8225,0 1.5,-0.6775 1.5,-1.5 0,-0.8225 -0.6775,-1.5 -1.5,-1.5 z m 0,1 c 0.2821,0 0.5,0.2179 0.5,0.5 0,0.282 -0.2179,0.5 -0.5,0.5 -0.2821,0 -0.5,-0.218 -0.5,-0.5 0,-0.2821 0.2179,-0.5 0.5,-0.5 z m 1.0547,2.4336 c -0.1314,0 -0.2563,0.058 -0.3477,0.1523 l -0.707,0.7071 -0.707,-0.7071 c -0.094,-0.097 -0.2242,-0.1509 -0.3594,-0.1504 -0.4471,0 -0.6672,0.5447 -0.3477,0.8575 l 1.0606,1.0605 c 0.1953,0.1952 0.5117,0.1952 0.707,0 l 1.0606,-1.0605 c 0.3273,-0.3165 0.096,-0.8702 -0.3594,-0.8594 z m -4.5547,1.5664 c -0.6762,-0.01 -0.6762,1.0095 0,1 l 1,0 c 0.6762,0.01 0.6762,-1.0096 0,-1 z m 5.9922,0 c -0.6762,-0.01 -0.6762,1.0095 0,1 l 1,0 c 0.6762,0.01 0.6762,-1.0096 0,-1 z m -5.9922,2 c -0.6762,-0.01 -0.6762,1.0095 0,1 l 1,0 c 0.6762,0.01 0.6762,-1.0096 0,-1 z m 3,0 c -0.6762,-0.01 -0.6762,1.0095 0,1 l 1,0 c 0.6762,0.01 0.6762,-1.0096 0,-1 z m 3,0 c -0.6762,-0.01 -0.6762,1.0095 0,1 l 1,0 c 0.6762,0.01 0.6762,-1.0096 0,-1 z m -6,2 c -0.6762,-0.01 -0.6762,1.0095 0,1 l 1,0 c 0.6762,0.01 0.6762,-1.0096 0,-1 z m 3,0 c -0.6762,-0.01 -0.6762,1.0095 0,1 l 1,0 c 0.6762,0.01 0.6762,-1.0096 0,-1 z m 3,0 c -0.6762,-0.01 -0.6762,1.0095 0,1 l 1,0 c 0.6762,0.01 0.6762,-1.0096 0,-1 z" id="path6247" style="font-size:medium;font-style:normal;font-variant:normal;font-weight:normal;font-stretch:normal;text-indent:0;text-align:start;text-decoration:none;line-height:normal;letter-spacing:normal;word-spacing:normal;text-transform:none;direction:ltr;block-progression:tb;writing-mode:lr-tb;text-anchor:start;baseline-shift:baseline;color:#000000;fill:#000000;fill-opacity:1;fill-rule:nonzero;stroke:none;visibility:visible;display:inline;overflow:visible;enable-background:accumulate;font-family:sans-serif"/></g></svg>