<?xml version="1.0" ?><svg height="36" id="svg6390" version="1.1" width="36" xmlns="http://www.w3.org/2000/svg" xmlns:cc="http://creativecommons.org/ns#" xmlns:dc="http://purl.org/dc/elements/1.1/" xmlns:inkscape="http://www.inkscape.org/namespaces/inkscape" xmlns:rdf="http://www.w3.org/1999/02/22-rdf-syntax-ns#" xmlns:sodipodi="http://sodipodi.sourceforge.net/DTD/sodipodi-0.dtd" xmlns:svg="http://www.w3.org/2000/svg"><defs id="defs6392"/><g id="layer1" transform="translate(0,-1016.3622)"><path d="m 11.656666,1020.3622 0.3418,0 0,12 c 0,1.8884 0.4958,3.6246 1.5079,4.9102 1.012,1.2856 2.5575,2.0898 4.4921,2.0898 0.069,-4e-4 0.1365,-0.015 0.1993,-0.043 1.8315,-0.059 3.3217,-0.8106 4.2949,-2.0468 1.012,-1.2856 1.5058,-3.0218 1.5058,-4.9102 l 0,-12 0.3418,0 c 0.3732,0 0.6582,0.2852 0.6582,0.6582 l 0,6.3418 c 0,1.0885 0.294,1.917 0.5508,2.6641 0.2568,0.747 0.4776,1.4113 0.4492,2.3203 l 0,0.01 0,7.0078 c 0,0.4424 -0.1137,0.9644 -0.3984,1.3398 -0.2847,0.3755 -0.7229,0.6602 -1.6016,0.6602 l -0.4199,0 c -0.054,-0.01 -0.1084,-0.01 -0.1621,0 l -4.418,0 -2,0 -4.4257,0 c -0.027,0 -0.055,-0.01 -0.082,-0.01 -0.021,6e-4 -0.042,0 -0.062,0.01 l -0.7715,0 c -0.6781,0 -1.0158,-0.2596 -1.2714,-0.6485 -0.2557,-0.3888 -0.3748,-0.937 -0.3868005,-1.3652 l 0,-3.5644 0,-3.4219 c 0,-0.9167 0.2247005,-1.5918 0.4747005,-2.3418 0.25,-0.75 0.5253,-1.5749 0.5253,-2.6582 l 0,-6.3418 c 0,-0.373 0.2852,-0.6582 0.6582,-0.6582 z m 1.3418,0 10,0 0,12 c 0,1.7126 -0.4533,3.2269 -1.291,4.291 -0.8377,1.0642 -2.0426,1.709 -3.709,1.709 -1.6663,0 -2.8693,-0.6448 -3.707,-1.709 -0.8377,-1.0641 -1.293,-2.5784 -1.293,-4.291 z m 2.4942,2 c -0.2739,0 -0.4942,0.2261 -0.4942,0.5 0,3.7381 2.7461,5.4141 2.7461,5.4141 0.1572,0.093 0.3526,0.093 0.5098,0 0,0 2.6506,-1.6514 2.7207,-5.2871 l 0,-0.016 c 0,-0.018 0.01,-0.036 0.01,-0.055 2e-4,-0.022 0.01,-0.035 0.01,-0.057 l -0.01,0.01 c 0,-0.2762 -0.2161,-0.5035 -0.4922,-0.5078 l -4.9942,0 z m 0.5898,1 3.8321,0 c -0.2099,2.5042 -1.5395,3.5673 -1.9141,3.8164 -0.3734,-0.2482 -1.708,-1.3108 -1.918,-3.8164 z m 1.916,2 c -0.2761,0 -0.5,0.2239 -0.5,0.5 0,0.2762 0.2239,0.5 0.5,0.5 0.2761,0 0.5,-0.2238 0.5,-0.5 0,-0.2761 -0.2239,-0.5 -0.5,-0.5 z m 0,4 c -1.6533,0 -3,1.3467 -3,3 l 0,1 c 0,1.6534 1.3467,3 3,3 1.6534,0 3,-1.3466 3,-3 l 0,-1 c 0,-1.6533 -1.3466,-3 -3,-3 z m 0,1 c 1.1167,0 2,0.8834 2,2 l 0,1 c 0,1.1167 -0.8833,2 -2,2 -1.1166,0 -2,-0.8833 -2,-2 l 0,-1 c 0,-1.1166 0.8834,-2 2,-2 z m 0,2.5 c -0.3437,0 -0.6577,0.063 -0.9296,0.1993 -0.272,0.1359 -0.5704,0.3924 -0.5704,0.8007 0,0.4083 0.2984,0.6648 0.5704,0.8008 0.2719,0.136 0.5859,0.1992 0.9296,0.1992 0.3437,0 0.6597,-0.063 0.9317,-0.1992 0.2719,-0.136 0.5683,-0.3925 0.5683,-0.8008 0,-0.4083 -0.2964,-0.6648 -0.5683,-0.8007 -0.272,-0.136 -0.588,-0.1993 -0.9317,-0.1993 z m -5,9.5 3.5,0 0,5 -2.8418,0 c -0.373,0 -0.6582,-0.2831 -0.6582,-0.6562 z m 4.5,0 1,0 0,5 -1,0 z m 2,0 3.5,0 0,4.3438 c 0,0.3732 -0.285,0.6562 -0.6582,0.6562 l -2.8418,0 z" id="path6074" style="font-size:medium;font-style:normal;font-variant:normal;font-weight:normal;font-stretch:normal;text-indent:0;text-align:start;text-decoration:none;line-height:normal;letter-spacing:normal;word-spacing:normal;text-transform:none;direction:ltr;block-progression:tb;writing-mode:lr-tb;text-anchor:start;baseline-shift:baseline;color:#000000;fill:#000000;fill-opacity:1;fill-rule:nonzero;stroke:none;visibility:visible;display:inline;overflow:visible;enable-background:accumulate;font-family:sans-serif"/></g></svg>