<?xml version="1.0" ?><svg height="36" id="svg6390" version="1.1" width="36" xmlns="http://www.w3.org/2000/svg" xmlns:cc="http://creativecommons.org/ns#" xmlns:dc="http://purl.org/dc/elements/1.1/" xmlns:inkscape="http://www.inkscape.org/namespaces/inkscape" xmlns:rdf="http://www.w3.org/1999/02/22-rdf-syntax-ns#" xmlns:sodipodi="http://sodipodi.sourceforge.net/DTD/sodipodi-0.dtd" xmlns:svg="http://www.w3.org/2000/svg"><defs id="defs6392"/><g id="layer1" transform="translate(0,-1016.3622)"><g id="g3" transform="translate(-7,1019.3622)"><path d="m 34.84375,-6.009104e-5 -0.031,1.00000000104 0.9883,0 0,-1.00000000104 -0.957,0 z M 34.03515,1.9999399 c -0.1912,0.0562 -0.4108,0.11035 -0.5098,0.16015 l 0,-0.002 c -0.9258,0.46764 -1.3857,1.08262 -1.5625,1.8418 l 2.8379,0 0,-2 -0.7656,0 z m 1.7656,0 0,2 2.8379,0 c -0.1766,-0.75839 -0.6365,-1.37249 -1.5606,-1.83985 -0.1,-0.0498 -0.3208,-0.10415 -0.5136,-0.16015 l -0.7637,0 z m -3.4629,3 0.4277,6.0000001 5.0704,0 0.2851,-4.0000001 0.8789,0 0,3.5000001 a 0.50005,0.50005 0 1 0 1,0 l 0,-4.0000001 a 0.50005,0.50005 0 0 0 -0.5,-0.5 l -1.3086,0 0.072,-1 -2.9629,0 -2.9629,0 z m 4.582,0.52734 c 0.3016,-0.0129 0.5456,0.24225 0.5196,0.54297 l -0.2832,3.9765601 c -0.047,0.66708 -1.0481,0.59463 -0.9981,-0.0723 l 0.2852,-3.97656 c 0.015,-0.25582 0.2205,-0.45911 0.4765,-0.47071 z m -3.1191,6.4726601 0,1 3,0 0,-1 -3,0 z m -9.2227,0.5 0,1 1.1368,0 -0.031,-1 -1.1055,0 z m 7.1758,1.5 -0.9551,9.55078 c -0.026,0.25537 -0.2413,0.4495 -0.498,0.44922 l -8.5,0 0,5 17.9668,0 -0.9356,-15 -7.0781,0 z m -7.9687,0.5 c -0.2136,0.0573 -0.4549,0.11241 -0.5703,0.16601 -1.0009,0.47063 -1.4948,1.08453 -1.6856,1.83399 l 3.125,0 0,-2 -0.8691,0 z m 1.8691,0 0,2 2.9961,0 0.127,0 c -0.1909,-0.74989 -0.6837,-1.36321 -1.6856,-1.83399 -0.1141,-0.0533 -0.3544,-0.10861 -0.5664,-0.16601 l -0.8711,0 z m -11.8105,2.5 -0.031,1 0.9883,0 0,-1 -0.957,0 z m 8.3691,0.5 0.055,0.5 -1.1191,0 a 0.50005,0.50005 0 0 0 -0.5,0.5 l 0,2 a 0.50005,0.50005 0 1 0 1,0 l 0,-1.5 0.7304,0 0.2227,2 5.1054,0 0.3887,-3.5 -2.9394,0 -2.9434,0 z m 1.4277,0.4082 c 0.2633,-0.007 0.4868,0.19086 0.5118,0.45313 l 0.1992,1.78906 c 0.074,0.66283 -0.9202,0.77417 -0.9942,0.11133 l -0.1992,-1.79102 c -0.037,-0.29321 0.187,-0.5545 0.4824,-0.5625 z m -10.6054,1.0918 c -0.1912,0.0562 -0.4108,0.11035 -0.5098,0.16015 l 0,-0.002 c -0.9258,0.46764 -1.3857,1.08262 -1.5625,1.8418 l 2.8379,0 0,-2 -0.7656,0 z m 1.7656,0 0,2 2.8379,0 c -0.1766,-0.75839 -0.6365,-1.37249 -1.5606,-1.83985 -0.1,-0.0498 -0.3208,-0.10415 -0.5136,-0.16015 l -0.7637,0 z m -3.4629,3 0.4277,6 0.5352,0 4,0 0.5352,0 0.2851,-4 0.9805,0 0,3.5 c -0.01,0.67616 1.0096,0.67616 1,0 l 0,-4 c 0,-0.27613 -0.2239,-0.49997 -0.5,-0.5 l -1.4102,0 0.072,-1 -2.9629,0 -2.9629,0 z m 12.3164,0 0,1 3,0 0,-1 -3,0 z m -7.7344,0.52734 c 0.3016,-0.0129 0.5456,0.24225 0.5196,0.54297 l -0.2832,3.97656 c -0.047,0.66708 -1.0481,0.59463 -0.9981,-0.0723 l 0.2852,-3.97656 c 0.015,-0.25582 0.2205,-0.45911 0.4765,-0.47071 z m 9.3809,2.47266 c 0.8225,-10e-6 1.5,0.67749 1.5,1.5 0,0.82251 -0.6775,1.5 -1.5,1.5 -0.8225,0 -1.5,-0.67749 -1.5,-1.5 0,-0.82251 0.6775,-1.50001 1.5,-1.5 z m 0,1 c -0.2821,0 -0.5,0.21794 -0.5,0.5 0,0.28206 0.2179,0.5 0.5,0.5 0.2821,0 0.5,-0.21794 0.5,-0.5 0,-0.28206 -0.2179,-0.5 -0.5,-0.5 z m 3,1 c 0.2761,0 0.5,0.22386 0.5,0.5 0,0.27614 -0.2239,0.5 -0.5,0.5 -0.2761,0 -0.5,-0.22386 -0.5,-0.5 0,-0.27614 0.2239,-0.5 0.5,-0.5 z m -15.5,2 0,1 3,0 0,-1 -3,0 z m 11,0.5 0,1 a 0.50004994,0.50004994 0 0 0 0.5078,0.5 l 0.9922,0 a 0.50004994,0.50004994 0 0 0 0.4922,-0.6211 l 0,-0.8789 -0.5,0 -0.9922,0 -0.5,0 z m 12.0039,0 0,0.91992 a 0.50004994,0.50004994 0 0 0 0.5,0.58008 l 0.9922,0 a 0.50004994,0.50004994 0 0 0 0.5,-0.58203 l 0,-0.91797 -0.5,0 -0.9922,0 -0.5,0 z" id="path6468" style="font-size:medium;font-style:normal;font-variant:normal;font-weight:normal;font-stretch:normal;text-indent:0;text-align:start;text-decoration:none;line-height:normal;letter-spacing:normal;word-spacing:normal;text-transform:none;direction:ltr;block-progression:tb;writing-mode:lr-tb;text-anchor:start;baseline-shift:baseline;color:#000000;fill:#000000;fill-opacity:1;fill-rule:nonzero;stroke:none;visibility:visible;display:inline;overflow:visible;enable-background:accumulate;font-family:sans-serif"/></g></g></svg>