<?xml version="1.0" ?><svg height="36" id="svg6390" version="1.1" width="36" xmlns="http://www.w3.org/2000/svg" xmlns:cc="http://creativecommons.org/ns#" xmlns:dc="http://purl.org/dc/elements/1.1/" xmlns:inkscape="http://www.inkscape.org/namespaces/inkscape" xmlns:rdf="http://www.w3.org/1999/02/22-rdf-syntax-ns#" xmlns:sodipodi="http://sodipodi.sourceforge.net/DTD/sodipodi-0.dtd" xmlns:svg="http://www.w3.org/2000/svg"><defs id="defs6392"/><g id="layer1" transform="translate(0,-1016.3622)"><g id="g3" transform="translate(-7,1019.3622)"><path d="m 10.096,3.9976181 21.9043,0 0,14.9999999 0,1 0,7 -21.9043,0 c 0.015,0 0.014,0.0152 -0.022,-0.0312 C 10.039,26.919918 10,26.820428 10,26.698838 L 10,4.2984481 c 0,-0.12159 0.04,-0.22111 0.074,-0.26758 0.035,-0.0465 0.035,-0.0332 0.022,-0.0332 z m 22.9043,0 6.9043,0 c -0.015,0 -0.014,-0.0133 0.022,0.0332 0.035,0.0465 0.074,0.14599 0.074,0.26758 l 0,12.6992199 -7,0 z m -21.1348,1 c -0.4961,0 -0.8652,0.43375 -0.8652,0.90039 l 0,11.2011699 c 0,0.46664 0.3691,0.89844 0.8652,0.89844 l 18.2696,0 c 0.4961,0 0.8652,-0.4318 0.8652,-0.89844 l 0,-11.2011699 c 0,-0.46664 -0.3691,-0.90039 -0.8652,-0.90039 z m 22.9942,0 c -0.2861,0 -0.5243,0.16681 -0.6602,0.35547 -0.1358,0.18865 -0.1992,0.4094 -0.1992,0.64453 l 0,1 c 0,0.23513 0.063,0.45783 0.1992,0.64648 0.1359,0.18865 0.3741,0.35352 0.6602,0.35352 l 3.2812,0 c 0.2861,0 0.5243,-0.16487 0.6602,-0.35352 0.1358,-0.18865 0.1992,-0.41135 0.1992,-0.64648 l 0,-1 c 0,-0.23513 -0.063,-0.45588 -0.1992,-0.64453 -0.1359,-0.18866 -0.3741,-0.35547 -0.6602,-0.35547 z m -22.8594,1 18,0 0,1 -18,0 z m 23,0 3,0 0,1 -3,0 z m -23,2 18,0 0,1 -18,0 z m 22.8594,1 c -0.2861,0 -0.5243,0.16681 -0.6602,0.35547 -0.1358,0.18865 -0.1992,0.4094 -0.1992,0.64453 l 0,0.9999999 c 0,0.23513 0.063,0.45783 0.1992,0.64648 0.1359,0.18865 0.3741,0.35352 0.6602,0.35352 l 3.2812,0 c 0.2861,0 0.5243,-0.16487 0.6602,-0.35352 0.1358,-0.18865 0.1992,-0.41135 0.1992,-0.64648 l 0,-0.9999999 c 0,-0.23513 -0.063,-0.45588 -0.1992,-0.64453 -0.1359,-0.18866 -0.3741,-0.35547 -0.6602,-0.35547 z m -22.8594,1 18,0 0,0.9999999 -18,0 z m 23,0 3,0 0,0.9999999 -3,0 z m -23,1.9999999 18,0 0,1 -18,0 z m 22.8594,1 c -0.2861,0 -0.5243,0.16681 -0.6602,0.35547 -0.1358,0.18865 -0.1992,0.4094 -0.1992,0.64453 l 0,1 c 0,0.23513 0.063,0.45783 0.1992,0.64648 0.1359,0.18865 0.3741,0.35352 0.6602,0.35352 l 3.2812,0 c 0.2861,0 0.5243,-0.16487 0.6602,-0.35352 0.1358,-0.18865 0.1992,-0.41135 0.1992,-0.64648 l 0,-1 c 0,-0.23513 -0.063,-0.45588 -0.1992,-0.64453 -0.1359,-0.18866 -0.3741,-0.35547 -0.6602,-0.35547 z m -22.8594,1 18,0 0,1 -18,0 z m 23,0 3,0 0,1 -3,0 z m -23,2 18,0 0,1 -18,0 z m 21,2 7,0 0,1 -7,0 z m -21.1348,1 c -0.1746,0 -0.3376,0.0333 -0.498,0.12109 -0.1604,0.0878 -0.3672,0.27963 -0.3672,0.58008 l 0,5.59961 c 0,0.30045 0.2068,0.49226 0.3672,0.58008 0.1604,0.0878 0.3234,0.11914 0.498,0.11914 l 18.2696,0 c 0.1746,0 0.3376,-0.0313 0.498,-0.11914 0.1604,-0.0878 0.3672,-0.27963 0.3672,-0.58008 l 0,-5.59961 c 0,-0.30045 -0.2068,-0.49226 -0.3672,-0.58008 -0.1604,-0.0878 -0.3234,-0.12109 -0.498,-0.12109 z m 0.1348,1 18,0 0,1 -18,0 z m 21,0 7,0 0,6.70117 c 0,0.12159 -0.04,0.22111 -0.074,0.26758 -0.035,0.0465 -0.035,0.0312 -0.022,0.0312 l -6.9043,0 z m 1.9004,1 c -0.4452,0 -0.9004,0.3273 -0.9004,0.83398 l 0,1.33399 c 0,0.50668 0.4552,0.83203 0.9004,0.83203 l 3.1992,0 c 0.4452,0 0.9004,-0.32535 0.9004,-0.83203 l 0,-1.33399 c 0,-0.50668 -0.4552,-0.83398 -0.9004,-0.83398 z m -22.9004,1 18,0 0,1 -18,0 z m 23,0 3,0 0,1 -3,0 z m -23,2 18,0 0,1 -18,0 z m 22.5,1 c -0.2761,0 -0.5,0.22386 -0.5,0.5 0,0.27614 0.2239,0.5 0.5,0.5 0.2761,0 0.5,-0.22386 0.5,-0.5 0,-0.27614 -0.2239,-0.5 -0.5,-0.5 z m 2,0 c -0.2761,0 -0.5,0.22386 -0.5,0.5 0,0.27614 0.2239,0.5 0.5,0.5 0.2761,0 0.5,-0.22386 0.5,-0.5 0,-0.27614 -0.2239,-0.5 -0.5,-0.5 z m 2,0 c -0.2761,0 -0.5,0.22386 -0.5,0.5 0,0.27614 0.2239,0.5 0.5,0.5 0.2761,0 0.5,-0.22386 0.5,-0.5 0,-0.27614 -0.2239,-0.5 -0.5,-0.5 z" id="rect6571" style="font-size:medium;font-style:normal;font-variant:normal;font-weight:normal;font-stretch:normal;text-indent:0;text-align:start;text-decoration:none;line-height:normal;letter-spacing:normal;word-spacing:normal;text-transform:none;direction:ltr;block-progression:tb;writing-mode:lr-tb;text-anchor:start;baseline-shift:baseline;color:#000000;fill:#000000;fill-opacity:1;fill-rule:nonzero;stroke:none;visibility:visible;display:inline;overflow:visible;enable-background:accumulate;font-family:sans-serif"/></g></g></svg>