<?xml version="1.0" ?><svg height="36" id="svg6390" version="1.1" width="36" xmlns="http://www.w3.org/2000/svg" xmlns:cc="http://creativecommons.org/ns#" xmlns:dc="http://purl.org/dc/elements/1.1/" xmlns:inkscape="http://www.inkscape.org/namespaces/inkscape" xmlns:rdf="http://www.w3.org/1999/02/22-rdf-syntax-ns#" xmlns:sodipodi="http://sodipodi.sourceforge.net/DTD/sodipodi-0.dtd" xmlns:svg="http://www.w3.org/2000/svg"><defs id="defs6392"/><g id="layer1" transform="translate(0,-1016.3622)"><path d="m 10.0004,1019.3622 c 0,6e-4 0,0 0.031,0 l 15.9376,0 c 0.027,0 0.028,6e-4 0.031,0 l 0,1 -16,0 z m 0,2 16,0 0,1 -16,0 z m 0,2 16,0 0,1 c 0,-9e-4 0,0 -0.031,0 l -15.9376,0 c -0.027,0 -0.028,-9e-4 -0.031,0 z m 5,2 6,0 0,0.3359 c 0,0.3523 -0.3141,0.6641 -0.7734,0.6641 l -4.4532,0 c -0.4593,0 -0.7734,-0.3118 -0.7734,-0.6641 z m 2,2 2,0 0,2.0263 -1,0 -1,0 z m 1,2.9999 c 1.1018,0 2,0.931 2,2.1387 l 0,1.2129 c 5e-4,0.1348 0.055,0.2637 0.1523,0.3574 0.5281,0.5125 0.8477,1.1992 0.8477,1.9668 0,0.7677 -0.3197,1.4545 -0.8477,1.9668 -0.097,0.094 -0.1518,0.2226 -0.1523,0.3574 l 0,2 c 0,0.1355 0.055,0.2652 0.1523,0.3594 0.5281,0.5124 0.8477,1.1994 0.8477,1.9668 0,0.7861 -0.3336,1.4871 -0.8828,2.0019 -0.1528,0.1438 -0.1996,0.3676 -0.1172,0.5606 l 0,0.9765 c 0,1.2077 -0.8981,2.1387 -2,2.1387 -1.1019,0 -2,-0.931 -2,-2.1387 l 0,-0.9746 c 0.083,-0.1934 0.036,-0.4184 -0.1172,-0.5625 -0.5492,-0.5148 -0.8828,-1.2158 -0.8828,-2.0019 0,-0.7674 0.3196,-1.4544 0.8477,-1.9668 0.097,-0.094 0.1523,-0.2239 0.1523,-0.3594 l 0,-2 c -5e-4,-0.1348 -0.055,-0.2637 -0.1523,-0.3574 -0.528,-0.5123 -0.8477,-1.1991 -0.8477,-1.9668 0,-0.7676 0.3196,-1.4543 0.8477,-1.9668 0.097,-0.094 0.1518,-0.2226 0.1523,-0.3574 l 0,-1.2129 c 0,-1.2077 0.8982,-2.1387 2,-2.1387 z" id="rect7031" style="font-size:medium;font-style:normal;font-variant:normal;font-weight:normal;font-stretch:normal;text-indent:0;text-align:start;text-decoration:none;line-height:normal;letter-spacing:normal;word-spacing:normal;text-transform:none;direction:ltr;block-progression:tb;writing-mode:lr-tb;text-anchor:start;baseline-shift:baseline;opacity:0.98999999;color:#000000;fill:#000000;fill-opacity:1;fill-rule:nonzero;stroke:none;visibility:visible;display:inline;overflow:visible;enable-background:accumulate;font-family:sans-serif"/></g></svg>