<?xml version="1.0" ?><svg height="36" id="svg6390" version="1.1" width="36" xmlns="http://www.w3.org/2000/svg" xmlns:cc="http://creativecommons.org/ns#" xmlns:dc="http://purl.org/dc/elements/1.1/" xmlns:inkscape="http://www.inkscape.org/namespaces/inkscape" xmlns:rdf="http://www.w3.org/1999/02/22-rdf-syntax-ns#" xmlns:sodipodi="http://sodipodi.sourceforge.net/DTD/sodipodi-0.dtd" xmlns:svg="http://www.w3.org/2000/svg"><defs id="defs6392"/><g id="layer1" transform="translate(0,-1016.3622)"><g id="g3" transform="translate(-7,1019.3622)"><path d="m 20,8 0,15 10,0 0,-15 -10,0 z m 5,1 c 1.6509,0 3,1.34907 3,3 0,1.65093 -1.3491,2.99999 -3,3 -1.6509,-10e-6 -3,-1.34907 -3,-3 0,-1.65093 1.3491,-3 3,-3 z m 0,1 c -1.1105,0 -2,0.88951 -2,2 0,1.11049 0.8895,1.99999 2,2 1.1105,-10e-6 2,-0.88951 2,-2 0,-1.11049 -0.8895,-2 -2,-2 z m -13.9688,3 c 0.01,0 -0.031,-0.0198 -0.031,0.0625 l 0,5.84375 c 0,0.0823 0.041,0.0937 0.031,0.0937 l 4.9376,0 c -0.01,0 0.031,-0.0114 0.031,-0.0937 l 0,-5.84375 C 15.9998,12.9805 15.9588,13 15.9688,13 l -4.9376,0 z m 23,0 c 0.01,0 -0.031,-0.0198 -0.031,0.0625 l 0,5.84375 c 0,0.0823 0.041,0.0937 0.031,0.0937 l 4.9376,0 c -0.01,0 0.031,-0.0114 0.031,-0.0937 l 0,-5.84375 C 38.9998,12.9805 38.9588,13 38.9688,13 l -4.9376,0 z M 13.5,14 c 0.8559,0 1.5,0.76321 1.5,1.625 l 0,0.75 C 15,17.23678 14.3559,18 13.5,18 12.6441,18 12,17.23678 12,16.375 l 0,-0.75 C 12,14.76321 12.6441,14 13.5,14 z m 23,0 c 0.8559,0 1.5,0.76321 1.5,1.625 l 0,0.75 C 38,17.23678 37.3559,18 36.5,18 35.6441,18 35,17.23678 35,16.375 l 0,-0.75 C 35,14.76321 35.6441,14 36.5,14 z m -23,1 C 13.2479,15 13,15.24028 13,15.625 l 0,0.75 C 13,16.75971 13.2479,17 13.5,17 13.7521,17 14,16.75971 14,16.375 l 0,-0.75 C 14,15.24028 13.7521,15 13.5,15 z m 8,0 c 0.2431,-0.002 0.456,0.16712 0.5,0.40625 l 1,5 c 0.1302,0.65493 -0.8698,0.84243 -1,0.1875 l -1,-5 C 20.933,15.28408 21.1832,15.003 21.5,15 z m 7,0 c 0.3224,-0.006 0.568,0.27857 0.5,0.59375 l -1,5 c -0.1143,0.67707 -1.1539,0.48167 -1,-0.1875 l 1,-5 C 28.043,15.17217 28.2621,15.005 28.5,15 z m 8,0 C 36.2479,15 36,15.24028 36,15.625 l 0,0.75 C 36,16.75971 36.2479,17 36.5,17 36.7521,17 37,16.75971 37,16.375 l 0,-0.75 C 37,15.24028 36.7521,15 36.5,15 z M 25,17 c 0.2761,0 0.5,0.22386 0.5,0.5 0,0.27614 -0.2239,0.5 -0.5,0.5 -0.2761,0 -0.5,-0.22386 -0.5,-0.5 0,-0.27614 0.2239,-0.5 0.5,-0.5 z m 0,2 c 0.2761,0 0.5,0.22386 0.5,0.5 0,0.27614 -0.2239,0.5 -0.5,0.5 -0.2761,0 -0.5,-0.22386 -0.5,-0.5 0,-0.27614 0.2239,-0.5 0.5,-0.5 z m -12,1 0,1 1,0 0,-1 -1,0 z m 23,0 0,1 1,0 0,-1 -1,0 z m -11,1 c 0.2761,0 0.5,0.22386 0.5,0.5 0,0.27614 -0.2239,0.5 -0.5,0.5 -0.2761,0 -0.5,-0.22386 -0.5,-0.5 0,-0.27614 0.2239,-0.5 0.5,-0.5 z m -14,1 0,1 5,0 0,-1 -1.6875,0 -1.625,0 L 11,22 z m 23,0 0,1 5,0 0,-1 -1.6875,0 -1.625,0 L 34,22 z" id="rect6674" style="font-size:medium;font-style:normal;font-variant:normal;font-weight:normal;font-stretch:normal;text-indent:0;text-align:start;text-decoration:none;line-height:normal;letter-spacing:normal;word-spacing:normal;text-transform:none;direction:ltr;block-progression:tb;writing-mode:lr-tb;text-anchor:start;baseline-shift:baseline;color:#000000;fill:#000000;fill-opacity:1;fill-rule:nonzero;stroke:none;visibility:visible;display:inline;overflow:visible;enable-background:accumulate;font-family:sans-serif"/></g></g></svg>