<?xml version="1.0" ?><svg height="36" id="svg6390" version="1.1" width="36" xmlns="http://www.w3.org/2000/svg" xmlns:cc="http://creativecommons.org/ns#" xmlns:dc="http://purl.org/dc/elements/1.1/" xmlns:inkscape="http://www.inkscape.org/namespaces/inkscape" xmlns:rdf="http://www.w3.org/1999/02/22-rdf-syntax-ns#" xmlns:sodipodi="http://sodipodi.sourceforge.net/DTD/sodipodi-0.dtd" xmlns:svg="http://www.w3.org/2000/svg"><defs id="defs6392"/><g id="layer1" transform="translate(0,-1016.3622)"><path d="m 12.0486,1023.3612 0,1 2e-4,2.6738 0,1.9043 c 3e-4,0.1476 -0.065,0.2877 -0.1777,0.3828 l -1.832,1.541 0,4.5059 1.4941,0 c 0.2761,0 0.5,0.2239 0.5,0.5 l 0,4.0156 c 0,0.2762 -0.2239,0.5 -0.5,0.5 l -1.5332,0 0,4.9786 15.0352,0 0,-21.002 0,-1 z m 0.9866,1 3,0 0,5.0019 -0.5,0 -2,0 -0.5,0 z m 4,0 3,0 0,6.0019 -0.5,0 -2,0 -0.5,0 z m 4,0 3,0 0,5.0019 -0.5,0 -2,0 -0.5,0 z m -7,0 0,4 1,0 0,-4 z m 4,0 0,5 1,0 0,-5 z m 4,0 0,4 1,0 0,-4 z m -11,19 13,0 0,1 -13,0 z" id="rect6313" style="font-size:medium;font-style:normal;font-variant:normal;font-weight:normal;font-stretch:normal;text-indent:0;text-align:start;text-decoration:none;line-height:normal;letter-spacing:normal;word-spacing:normal;text-transform:none;direction:ltr;block-progression:tb;writing-mode:lr-tb;text-anchor:start;baseline-shift:baseline;color:#000000;fill:#000000;fill-opacity:1;fill-rule:nonzero;stroke:none;visibility:visible;display:inline;overflow:visible;enable-background:accumulate;font-family:sans-serif"/></g></svg>