<?xml version="1.0" ?><svg height="36" id="svg6390" version="1.1" width="36" xmlns="http://www.w3.org/2000/svg" xmlns:cc="http://creativecommons.org/ns#" xmlns:dc="http://purl.org/dc/elements/1.1/" xmlns:inkscape="http://www.inkscape.org/namespaces/inkscape" xmlns:rdf="http://www.w3.org/1999/02/22-rdf-syntax-ns#" xmlns:sodipodi="http://sodipodi.sourceforge.net/DTD/sodipodi-0.dtd" xmlns:svg="http://www.w3.org/2000/svg"><defs id="defs6392"/><g id="layer1" transform="translate(0,-1016.3622)"><g id="g3" transform="translate(-7,1019.3622)"><path d="M 12.166,5 38.834,5 C 39.4622,5 40,5.56229 40,6.33398 l 0,18.33399 C 40,25.43966 39.4622,26 38.834,26 L 12.166,26 C 11.5378,26 11,25.43966 11,24.66797 L 11,6.33398 C 11,5.56229 11.5378,5 12.166,5 z M 14,6 c -1.0993,0 -2,0.90065 -2,2 l 0,5 c 0,1.09934 0.9007,2 2,2 l 5,0 c 1.0993,0 2,-0.90066 2,-2 L 21,8 C 21,6.90065 20.0993,6 19,6 z m 10,0 c -1.0993,0 -2,0.90065 -2,2 l 0,5 c 0,1.09934 0.9007,2 2,2 l 5,0 c 1.0993,0 2,-0.90066 2,-2 L 31,8 C 31,6.90065 30.0993,6 29,6 z m 10,0 c -1.159,0 -2,1.09877 -2,2.33398 l 0,7.33399 C 32,16.90319 32.841,18 34,18 l 3,0 c 1.159,0 2,-1.09681 2,-2.33203 L 39,8.33398 C 39,7.09877 38.159,6 37,6 z m -20,1 5,0 c 0.5627,0 1,0.43736 1,1 l 0,5 c 0,0.56263 -0.4373,1 -1,1 l -5,0 c -0.5627,0 -1,-0.43737 -1,-1 l 0,-5 c 0,-0.56264 0.4373,-1 1,-1 z m 10,0 5,0 c 0.5627,0 1,0.43736 1,1 l 0,5 c 0,0.56263 -0.4373,1 -1,1 l -5,0 c -0.5627,0 -1,-0.43737 -1,-1 l 0,-5 c 0,-0.56264 0.4373,-1 1,-1 z m 10,0 3,0 c 0.503,0 1,0.5379 1,1.33398 l 0,7.33399 C 38,16.46407 37.503,17 37,17 l -3,0 c -0.503,0 -1,-0.53593 -1,-1.33203 L 33,8.33398 C 33,7.5379 33.497,7 34,7 z M 16.5,8 C 16.2239,8 16,8.22386 16,8.5 16,8.77614 16.2239,9 16.5,9 16.7761,9 17,8.77614 17,8.5 17,8.22386 16.7761,8 16.5,8 z m 10,0 C 26.2239,8 26,8.22386 26,8.5 26,8.77614 26.2239,9 26.5,9 26.7761,9 27,8.77614 27,8.5 27,8.22386 26.7761,8 26.5,8 z m 8,0 C 34.2239,8.00003 34,8.22387 34,8.5 l 0,7 c 0,0.27613 0.2239,0.49997 0.5,0.5 l 2,0 c 0.2761,-3e-5 0.5,-0.22387 0.5,-0.5 l 0,-7 C 37,8.22387 36.7761,8.00003 36.5,8 z m 0.5,1 1,0 0,1 -1,0 z M 14.5,10 C 14.2239,10 14,10.22386 14,10.5 14,10.77614 14.2239,11 14.5,11 14.7761,11 15,10.77614 15,10.5 15,10.22386 14.7761,10 14.5,10 z m 4,0 C 18.2239,10 18,10.22386 18,10.5 18,10.77614 18.2239,11 18.5,11 18.7761,11 19,10.77614 19,10.5 19,10.22386 18.7761,10 18.5,10 z m 6,0 C 24.2239,10 24,10.22386 24,10.5 24,10.77614 24.2239,11 24.5,11 24.7761,11 25,10.77614 25,10.5 25,10.22386 24.7761,10 24.5,10 z m 4,0 C 28.2239,10 28,10.22386 28,10.5 28,10.77614 28.2239,11 28.5,11 28.7761,11 29,10.77614 29,10.5 29,10.22386 28.7761,10 28.5,10 z m 6.5,1 1,0 0,2 -1,0 z M 14.5,12 C 14.2239,12 14,12.22386 14,12.5 14,12.77614 14.2239,13 14.5,13 14.7761,13 15,12.77614 15,12.5 15,12.22386 14.7761,12 14.5,12 z m 4,0 C 18.2239,12 18,12.22386 18,12.5 18,12.77614 18.2239,13 18.5,13 18.7761,13 19,12.77614 19,12.5 19,12.22386 18.7761,12 18.5,12 z m 6,0 C 24.2239,12 24,12.22386 24,12.5 24,12.77614 24.2239,13 24.5,13 24.7761,13 25,12.77614 25,12.5 25,12.22386 24.7761,12 24.5,12 z m 4,0 C 28.2239,12 28,12.22386 28,12.5 28,12.77614 28.2239,13 28.5,13 28.7761,13 29,12.77614 29,12.5 29,12.22386 28.7761,12 28.5,12 z m 6.5,2 1,0 0,1 -1,0 z m -21,2 c -1.0993,0 -2,0.90065 -2,2 l 0,5 c 0,1.09934 0.9007,2 2,2 l 5,0 c 1.0993,0 2,-0.90066 2,-2 l 0,-5 c 0,-1.09935 -0.9007,-2 -2,-2 z m 10,0 c -1.0993,0 -2,0.90065 -2,2 l 0,5 c 0,1.09934 0.9007,2 2,2 l 5,0 c 1.0993,0 2,-0.90066 2,-2 l 0,-5 c 0,-1.09935 -0.9007,-2 -2,-2 z m -10,1 5,0 c 0.5627,0 1,0.43736 1,1 l 0,5 c 0,0.56263 -0.4373,1 -1,1 l -5,0 c -0.5627,0 -1,-0.43737 -1,-1 l 0,-5 c 0,-0.56264 0.4373,-1 1,-1 z m 10,0 5,0 c 0.5627,0 1,0.43736 1,1 l 0,5 c 0,0.56263 -0.4373,1 -1,1 l -5,0 c -0.5627,0 -1,-0.43737 -1,-1 l 0,-5 c 0,-0.56264 0.4373,-1 1,-1 z m -7.5,1 C 16.2239,18 16,18.22386 16,18.5 16,18.77614 16.2239,19 16.5,19 16.7761,19 17,18.77614 17,18.5 17,18.22386 16.7761,18 16.5,18 z m 10,0 C 26.2239,18 26,18.22386 26,18.5 26,18.77614 26.2239,19 26.5,19 26.7761,19 27,18.77614 27,18.5 27,18.22386 26.7761,18 26.5,18 z m 8.9961,1.0039 c -0.2754,0.004 -0.4954,0.23047 -0.4922,0.50586 l 0,1.33203 c -0.01,0.67616 1.0096,0.67616 1,0 l 0,-1.33203 c 0,-0.2815 -0.2263,-0.51024 -0.5078,-0.50586 z m 1.4902,0.66797 c -0.4383,0.003 -0.6604,0.529 -0.3574,0.84571 0.5351,0.60701 0.4954,1.51521 -0.09,2.07421 -0.5851,0.55899 -1.494,0.55624 -2.0762,-0.006 -0.5823,-0.56194 -0.6163,-1.46991 -0.078,-2.07422 0.2923,-0.31887 0.069,-0.83327 -0.3633,-0.83789 -0.1469,-0.001 -0.2869,0.0625 -0.3828,0.17382 -0.888,0.99729 -0.83,2.53166 0.1308,3.45899 0.9609,0.92733 2.4954,0.93008 3.461,0.008 0.9655,-0.92249 1.0314,-2.45529 0.1484,-3.45703 -0.096,-0.11841 -0.2403,-0.18671 -0.3926,-0.18555 z M 14.5,20 C 14.2239,20 14,20.22386 14,20.5 14,20.77614 14.2239,21 14.5,21 14.7761,21 15,20.77614 15,20.5 15,20.22386 14.7761,20 14.5,20 z m 4,0 C 18.2239,20 18,20.22386 18,20.5 18,20.77614 18.2239,21 18.5,21 18.7761,21 19,20.77614 19,20.5 19,20.22386 18.7761,20 18.5,20 z m 6,0 C 24.2239,20 24,20.22386 24,20.5 24,20.77614 24.2239,21 24.5,21 24.7761,21 25,20.77614 25,20.5 25,20.22386 24.7761,20 24.5,20 z m 4,0 C 28.2239,20 28,20.22386 28,20.5 28,20.77614 28.2239,21 28.5,21 28.7761,21 29,20.77614 29,20.5 29,20.22386 28.7761,20 28.5,20 z m -14,2 C 14.2239,22 14,22.22386 14,22.5 14,22.77614 14.2239,23 14.5,23 14.7761,23 15,22.77614 15,22.5 15,22.22386 14.7761,22 14.5,22 z m 4,0 C 18.2239,22 18,22.22386 18,22.5 18,22.77614 18.2239,23 18.5,23 18.7761,23 19,22.77614 19,22.5 19,22.22386 18.7761,22 18.5,22 z m 6,0 C 24.2239,22 24,22.22386 24,22.5 24,22.77614 24.2239,23 24.5,23 24.7761,23 25,22.77614 25,22.5 25,22.22386 24.7761,22 24.5,22 z m 4,0 C 28.2239,22 28,22.22386 28,22.5 28,22.77614 28.2239,23 28.5,23 28.7761,23 29,22.77614 29,22.5 29,22.22386 28.7761,22 28.5,22 z" id="rect6931" style="font-size:medium;font-style:normal;font-variant:normal;font-weight:normal;font-stretch:normal;text-indent:0;text-align:start;text-decoration:none;line-height:normal;letter-spacing:normal;word-spacing:normal;text-transform:none;direction:ltr;block-progression:tb;writing-mode:lr-tb;text-anchor:start;baseline-shift:baseline;color:#000000;fill:#000000;fill-opacity:1;fill-rule:nonzero;stroke:none;visibility:visible;display:inline;overflow:visible;enable-background:accumulate;font-family:sans-serif"/></g></g></svg>