<?xml version="1.0" ?><!DOCTYPE svg  PUBLIC '-//W3C//DTD SVG 1.1//EN'  'http://www.w3.org/Graphics/SVG/1.1/DTD/svg11.dtd'><svg enable-background="new 0 0 24 24" height="24px" id="Layer_1" version="1.1" viewBox="0 0 24 24" width="24px" xml:space="preserve" xmlns="http://www.w3.org/2000/svg" xmlns:xlink="http://www.w3.org/1999/xlink"><path clip-rule="evenodd" d="M17,18H7c-0.553,0-1-0.447-1-1V7c0-0.552,0.447-1,1-1h10  c0.553,0,1,0.448,1,1v10C18,17.553,17.553,18,17,18z M13,11c-0.276,0-0.5,0.224-0.5,0.5S12.724,12,13,12s0.5-0.224,0.5-0.5  S13.276,11,13,11z M17,7.5h-2V9h2V7.5z M17,10.5h-2.778C14.7,11.032,15,11.728,15,12.5c0,1.656-1.343,3-3,3s-3-1.344-3-3  c0-0.772,0.3-1.468,0.778-2H7V17h10V10.5z" fill="#616763" fill-rule="evenodd"/></svg>