<?xml version="1.0" ?><svg data-name="Layer 1" id="Layer_1" viewBox="0 0 70 70" xmlns="http://www.w3.org/2000/svg"><defs><style>.cls-1{fill:#ec4988;}.cls-2{fill:#494b4d;}.cls-3{fill:#fff;}</style></defs><title/><rect class="cls-1" height="48" width="47.7" x="11.65" y="11"/><path class="cls-2" d="M64.62,12.22H5a1,1,0,1,1,0-2H64.62a1,1,0,0,1,0,2Z"/><path class="cls-2" d="M65,59.22H5.38a1,1,0,1,1,0-2H65a1,1,0,0,1,0,2Z"/><path class="cls-2" d="M12,66a1,1,0,0,1-1-1V5a1,1,0,0,1,2,0V65A1,1,0,0,1,12,66Z"/><path class="cls-2" d="M58.66,66a1,1,0,0,1-1-1V5a1,1,0,0,1,2,0V65A1,1,0,0,1,58.66,66Z"/><path class="cls-3" d="M42.67,33a7.48,7.48,0,0,0-5.4-5.24h0a7.46,7.46,0,0,0-9,5.33,7.6,7.6,0,0,0,0,3.75h0a7.49,7.49,0,0,0,5.21,5.43,7.43,7.43,0,0,0,7.3-1.91,7.5,7.5,0,0,0,2-3.47A7.59,7.59,0,0,0,42.67,33Zm-.72-.18a10.35,10.35,0,0,0-5.51,2.71l-1.66-1.67a10.46,10.46,0,0,0,2.68-5.4,6.85,6.85,0,0,1,4.49,4.35ZM35.5,28.14a6.82,6.82,0,0,1,1.34.13,9.84,9.84,0,0,1-2.51,5.11l-3.43-3.45a6.75,6.75,0,0,1,4.59-1.79Zm-6.59,5.07a6.87,6.87,0,0,1,1.54-2.83l3.43,3.45a9.76,9.76,0,0,1-2.31,1.62,9.65,9.65,0,0,1-2.77.9,7,7,0,0,1,.1-3.14ZM29,37a10.27,10.27,0,0,0,2.9-1,10.39,10.39,0,0,0,2.47-1.74L36,35.95a10.45,10.45,0,0,0-2.7,5.55A6.85,6.85,0,0,1,29,37Zm4.94,4.7a9.88,9.88,0,0,1,2.53-5.28l3.65,3.68a6.8,6.8,0,0,1-6.18,1.6Zm8.21-5a6.86,6.86,0,0,1-1.57,2.94l-3.65-3.68a9.79,9.79,0,0,1,5.24-2.55,7,7,0,0,1,0,3.28Zm0,0"/></svg>