<?xml version="1.0" ?><svg data-name="Layer 1" id="Layer_1" viewBox="0 0 70 70" xmlns="http://www.w3.org/2000/svg"><defs><style>.cls-1{fill:#9b51a0;}.cls-2{fill:#494b4d;}.cls-3{fill:#fff;}</style></defs><title/><rect class="cls-1" height="48" width="47.7" x="11.65" y="11"/><path class="cls-2" d="M64.62,12.22H5a1,1,0,1,1,0-2H64.62a1,1,0,0,1,0,2Z"/><path class="cls-2" d="M65,59.22H5.38a1,1,0,1,1,0-2H65a1,1,0,0,1,0,2Z"/><path class="cls-2" d="M12,66a1,1,0,0,1-1-1V5a1,1,0,0,1,2,0V65A1,1,0,0,1,12,66Z"/><path class="cls-2" d="M58.66,66a1,1,0,0,1-1-1V5a1,1,0,0,1,2,0V65A1,1,0,0,1,58.66,66Z"/><path class="cls-3" d="M38.09,28.19A7.35,7.35,0,0,0,32.38,28l5.71,5.19v-5Z"/><path class="cls-3" d="M31.14,41.42V35L28,37.79a7.53,7.53,0,0,0,3.1,3.63Z"/><path class="cls-3" d="M27.5,35A7.45,7.45,0,0,0,27.77,37l6.65-6-2.84-2.58A7.46,7.46,0,0,0,27.5,35Z"/><path class="cls-3" d="M31.93,38.28v3.58a7.46,7.46,0,0,0,2.38.63h1.38a7.53,7.53,0,0,0,6.05-4.21Z"/><path class="cls-3" d="M38.88,28.62v8.87h3.19a7.45,7.45,0,0,0-3.19-8.87Z"/></svg>