<?xml version="1.0" ?><svg data-name="Layer 1" id="Layer_1" viewBox="0 0 70 70" xmlns="http://www.w3.org/2000/svg"><defs><style>.cls-1{fill:#9b51a0;}.cls-2{fill:#494b4d;}.cls-3{fill:#fff;}</style></defs><title/><rect class="cls-1" height="48" width="47.7" x="11.65" y="11"/><path class="cls-2" d="M64.62,12.22H5a1,1,0,1,1,0-2H64.62a1,1,0,0,1,0,2Z"/><path class="cls-2" d="M65,59.22H5.38a1,1,0,1,1,0-2H65a1,1,0,0,1,0,2Z"/><path class="cls-2" d="M12,66a1,1,0,0,1-1-1V5a1,1,0,0,1,2,0V65A1,1,0,0,1,12,66Z"/><path class="cls-2" d="M58.66,66a1,1,0,0,1-1-1V5a1,1,0,0,1,2,0V65A1,1,0,0,1,58.66,66Z"/><circle class="cls-3" cx="29.5" cy="40.51" r="2"/><path class="cls-3" d="M27.5,35.47a7,7,0,0,1,5,2.06,7,7,0,0,1,2.05,5H37.4a9.93,9.93,0,0,0-9.9-9.94Z"/><path class="cls-3" d="M27.51,30.36A12.16,12.16,0,0,1,39.61,42.53H42.5a15,15,0,0,0-15-15.06Z"/></svg>