<?xml version="1.0" ?><svg data-name="Layer 1" id="Layer_1" viewBox="0 0 70 70" xmlns="http://www.w3.org/2000/svg"><defs><style>.cls-1{fill:#75b73b;}.cls-2{fill:#494b4d;}.cls-3{fill:#fff;}</style></defs><title/><rect class="cls-1" height="48" width="47.7" x="11.65" y="11"/><path class="cls-2" d="M64.62,12.22H5a1,1,0,1,1,0-2H64.62a1,1,0,0,1,0,2Z"/><path class="cls-2" d="M65,59.22H5.38a1,1,0,1,1,0-2H65a1,1,0,0,1,0,2Z"/><path class="cls-2" d="M12,66a1,1,0,0,1-1-1V5a1,1,0,0,1,2,0V65A1,1,0,0,1,12,66Z"/><path class="cls-2" d="M58.66,66a1,1,0,0,1-1-1V5a1,1,0,0,1,2,0V65A1,1,0,0,1,58.66,66Z"/><path class="cls-3" d="M34.63,27.45a7.5,7.5,0,0,0-6.32,10.9l-.8,3.86a.29.29,0,0,0,.35.34l3.79-.9a7.5,7.5,0,1,0,3-14.21Zm4.52,11.64a5.88,5.88,0,0,1-6.77,1.11l-.53-.26-2.32.55L30,38.11l-.26-.51a5.88,5.88,0,0,1,1.08-6.82,5.87,5.87,0,0,1,8.3,8.31Zm0,0"/><path class="cls-3" d="M38.51,36.61l-1.45-.42a.54.54,0,0,0-.54.14l-.36.36a.53.53,0,0,1-.58.12,7.75,7.75,0,0,1-2.5-2.21.53.53,0,0,1,0-.59l.31-.4a.54.54,0,0,0,.07-.55l-.61-1.38a.54.54,0,0,0-.85-.19,2.44,2.44,0,0,0-.94,1.44c-.1,1,.33,2.3,2,3.84,1.91,1.78,3.43,2,4.43,1.77a2.44,2.44,0,0,0,1.3-1.13.54.54,0,0,0-.31-.81Zm0,0"/></svg>