<?xml version="1.0" ?><!DOCTYPE svg  PUBLIC '-//W3C//DTD SVG 1.1//EN'  'http://www.w3.org/Graphics/SVG/1.1/DTD/svg11.dtd'><svg height="100%" style="fill-rule:evenodd;clip-rule:evenodd;stroke-linejoin:round;stroke-miterlimit:1.41421;" version="1.1" viewBox="0 0 49 49" width="100%" xml:space="preserve" xmlns="http://www.w3.org/2000/svg" xmlns:serif="http://www.serif.com/" xmlns:xlink="http://www.w3.org/1999/xlink"><path d="M24.478,22.136c-4.54,-1.18 -6,-2.4 -6,-4.3c0,-2.18 2.02,-3.7 5.4,-3.7c2.81,0 4.224,1.059 4.754,2.734c0.294,0.862 1.104,1.442 2.014,1.442c0.003,0.024 0.006,0.024 0.008,0.024c0.729,0 1.408,-0.369 1.804,-0.979c0.397,-0.611 0.458,-1.381 0.162,-2.046c-0.941,-2.148 -2.84,-3.887 -5.742,-4.595c0,0 0,-0.596 0,-1.348c0,-0.805 -0.32,-1.576 -0.888,-2.144c-0.569,-0.569 -1.34,-0.888 -2.144,-0.888c-0.001,0 -0.002,0 -0.002,0c-0.787,0 -1.541,0.312 -2.098,0.868c-0.556,0.556 -0.868,1.311 -0.868,2.098c0,0.753 0,1.354 0,1.354c-3.88,0.84 -7,3.36 -7,7.22c0,4.62 3.82,6.92 9.4,8.26c5,1.2 6,2.96 6,4.82c0,1.38 -0.98,3.58 -5.4,3.58c-3.294,0 -4.99,-1.177 -5.65,-2.854c-0.327,-0.797 -1.102,-1.317 -1.963,-1.317c-0.013,-0.029 -0.026,-0.029 -0.039,-0.029c-0.755,-0.001 -1.454,0.395 -1.843,1.041c-0.39,0.647 -0.411,1.45 -0.058,2.117c1.257,2.438 3.756,3.904 6.553,4.502c0,0 0,0.581 0,1.317c0,0.802 0.318,1.571 0.885,2.137c0.567,0.567 1.335,0.886 2.137,0.886c0,0 0.001,0 0.002,0c1.643,0 2.976,-1.333 2.976,-2.976c0,-0.739 0,-1.324 0,-1.324c3.9,-0.74 7,-3 7,-7.1c0,-5.68 -4.86,-7.62 -9.4,-8.8Z" style="fill:#f6ac02;fill-rule:nonzero;"/><rect height="48" style="fill:none;" width="48" x="0.878" y="0.336"/></svg>