<?xml version="1.0" ?><svg height="58px" version="1.1" viewBox="0 0 58 58" width="58px" xmlns="http://www.w3.org/2000/svg" xmlns:xlink="http://www.w3.org/1999/xlink"><title/><desc/><defs/><g fill="none" fill-rule="evenodd" id="Page-1" stroke="none" stroke-width="1"><g fill-rule="nonzero" id="003---Rewind"><ellipse cx="29" cy="29" fill="#67B9CC" id="Oval" rx="29" ry="28.875"/><path d="M29,54.875 C14.7258624,54.8062083 3.20367241,43.1910968 3.24953355,28.9168671 C3.29539468,14.6426374 14.8919815,3.1018034 29.1662665,3.12473387 C43.4405514,3.14766433 54.9999997,14.7256966 55,29 C54.9492389,43.3181062 43.3181845,54.893242 29,54.875 Z M29,5.125 C15.8304243,5.19376862 5.20363798,15.9134441 5.24948467,29.0831195 C5.29533136,42.2527949 15.9964946,52.898223 29.1662298,52.8752983 C42.3359651,52.8523737 53.0000025,42.1697552 53,29 C52.950323,15.7860145 42.2140648,5.10567421 29,5.125 Z" fill="#2980BA" id="Shape"/><path d="M30,26.05 L37.91,20.57 C38.1242197,20.4245952 38.401325,20.4097105 38.629888,20.5313312 C38.858451,20.6529519 39.0009176,20.891095 39,21.15 L39,36.85 C39.0009176,37.108905 38.858451,37.3470481 38.629888,37.4686688 C38.401325,37.5902895 38.1242197,37.5754048 37.91,37.43 L30,31.95" fill="#285680" id="Shape"/><path d="M30,21.15481 L30,36.84519 C30.0000099,37.1061563 29.8551466,37.345555 29.6239629,37.4666231 C29.3927791,37.5876911 29.1134969,37.5704121 28.899,37.42177 L17.58647,29.58309 C17.3952203,29.4505651 17.2811175,29.2326785 17.2811175,29 C17.2811175,28.7673215 17.3952203,28.5494349 17.58647,28.41691 L28.899,20.57823 C29.1134969,20.4295879 29.3927791,20.4123089 29.6239629,20.5333769 C29.8551466,20.654445 30.0000099,20.8938437 30,21.15481 Z" fill="#2980BA" id="Shape"/></g></g></svg>