<?xml version="1.0" ?><svg height="58px" version="1.1" viewBox="0 0 58 58" width="58px" xmlns="http://www.w3.org/2000/svg" xmlns:xlink="http://www.w3.org/1999/xlink"><title/><desc/><defs/><g fill="none" fill-rule="evenodd" id="Page-1" stroke="none" stroke-width="1"><g fill-rule="nonzero" id="019---Reduce"><ellipse cx="29" cy="29" fill="#9FC9D3" id="Oval" rx="29" ry="28.875"/><path d="M29,54.875 C14.7258624,54.8062083 3.20367241,43.1910968 3.24953355,28.9168671 C3.29539468,14.6426374 14.8919815,3.1018034 29.1662665,3.12473387 C43.4405514,3.14766433 54.9999997,14.7256966 55,29 C54.9494092,43.3181773 43.3182549,54.8934126 29,54.875 Z M29,5.125 C15.8304243,5.19376862 5.20363798,15.9134441 5.24948467,29.0831195 C5.29533136,42.2527949 15.9964946,52.898223 29.1662298,52.8752983 C42.3359651,52.8523737 53.0000025,42.1697552 53,29 C52.950323,15.7860145 42.2140648,5.10567421 29,5.125 Z" fill="#285680" id="Shape"/><path d="M24,25 L19,25 C18.4477152,25 18,24.5522847 18,24 C18,23.4477152 18.4477152,23 19,23 L23,23 L23,19 C23,18.4477152 23.4477152,18 24,18 C24.5522847,18 25,18.4477152 25,19 L25,24 C25.000069,24.2652376 24.8947343,24.5196316 24.7071829,24.7071829 C24.5196316,24.8947343 24.2652376,25.000069 24,25 Z" fill="#285680" id="Shape"/><path d="M24,39.9999999 C23.7347623,40.0000689 23.4803683,39.8947342 23.292817,39.7071829 C23.1052657,39.5196316 22.999931,39.2652376 23,38.9999999 L23,35 L19,35 C18.4477152,35 18,34.5522847 18,34 C18,33.4477152 18.4477152,33 19,33 L24,33 C24.2652376,32.999931 24.5196316,33.1052657 24.7071829,33.292817 C24.8947343,33.4803684 25.000069,33.7347624 25,34 L25,38.9999999 C25.000069,39.2652376 24.8947343,39.5196316 24.7071829,39.7071829 C24.5196316,39.8947342 24.2652376,40.0000689 24,39.9999999 Z" fill="#285680" id="Shape"/><path d="M34,39.9999999 C33.7347624,40.0000689 33.4803684,39.8947342 33.292817,39.7071829 C33.1052657,39.5196316 32.999931,39.2652376 33,38.9999999 L33,34 C32.999931,33.7347624 33.1052657,33.4803684 33.292817,33.292817 C33.4803684,33.1052657 33.7347624,32.999931 34,33 L39,33 C39.5522847,33 40,33.4477152 40,34 C40,34.5522847 39.5522847,35 39,35 L35,35 L35,38.9999999 C35.000069,39.2652376 34.8947343,39.5196316 34.707183,39.7071829 C34.5196316,39.8947342 34.2652376,40.0000689 34,39.9999999 Z" fill="#285680" id="Shape"/><path d="M39,25 L34,25 C33.7347624,25.000069 33.4803684,24.8947343 33.292817,24.7071829 C33.1052657,24.5196316 32.999931,24.2652376 33,24 L33,19 C33,18.4477152 33.4477152,18 34,18 C34.5522847,18 35,18.4477152 35,19 L35,23 L39,23 C39.5522847,23 40,23.4477152 40,24 C40,24.5522847 39.5522847,25 39,25 Z" fill="#285680" id="Shape"/></g></g></svg>