<?xml version="1.0" ?><svg height="58px" version="1.1" viewBox="0 0 58 58" width="58px" xmlns="http://www.w3.org/2000/svg" xmlns:xlink="http://www.w3.org/1999/xlink"><title/><desc/><defs/><g fill="none" fill-rule="evenodd" id="Page-1" stroke="none" stroke-width="1"><g fill-rule="nonzero" id="018---Expand"><ellipse cx="29" cy="29" fill="#9FC9D3" id="Oval" rx="29" ry="28.875"/><path d="M29,54.875 C14.7258624,54.8062083 3.20367241,43.1910968 3.24953355,28.9168671 C3.29539468,14.6426374 14.8919815,3.1018034 29.1662665,3.12473387 C43.4405514,3.14766433 54.9999997,14.7256966 55,29 C54.9494092,43.3181773 43.3182549,54.8934126 29,54.875 Z M29,5.125 C15.8304243,5.19376862 5.20363798,15.9134441 5.24948467,29.0831195 C5.29533136,42.2527949 15.9964946,52.898223 29.1662298,52.8752983 C42.3359651,52.8523737 53.0000025,42.1697552 53,29 C52.950323,15.7860145 42.2140648,5.10567421 29,5.125 Z" fill="#285680" id="Shape"/><path d="M19,24.9999999 C18.7347624,25.0000689 18.4803684,24.8947342 18.292817,24.7071829 C18.1052657,24.5196316 17.999931,24.2652376 18,23.9999999 L18,19 C17.999931,18.7347624 18.1052657,18.4803684 18.292817,18.292817 C18.4803684,18.1052657 18.7347624,17.999931 19,18 L24,18 C24.5522847,18 25,18.4477152 25,19 C25,19.5522847 24.5522847,20 24,20 L20,20 L20,23.9999999 C20.000069,24.2652376 19.8947343,24.5196316 19.707183,24.7071829 C19.5196316,24.8947342 19.2652376,25.0000689 19,24.9999999 Z" fill="#285680" id="Shape"/><path d="M24,40 L19,40 C18.7347624,40.000069 18.4803684,39.8947343 18.292817,39.7071829 C18.1052657,39.5196316 17.999931,39.2652376 18,39 L18,34 C18,33.4477152 18.4477152,33 19,33 C19.5522847,33 20,33.4477152 20,34 L20,38 L24,38 C24.5522847,38 25,38.4477152 25,39 C25,39.5522847 24.5522847,40 24,40 Z" fill="#285680" id="Shape"/><path d="M39,40 L34,40 C33.4477152,40 33,39.5522847 33,39 C33,38.4477152 33.4477152,38 34,38 L38,38 L38,34 C38,33.4477152 38.4477152,33 39,33 C39.5522847,33 40,33.4477152 40,34 L40,39 C40.000069,39.2652376 39.8947343,39.5196316 39.7071829,39.7071829 C39.5196316,39.8947343 39.2652376,40.000069 39,40 Z" fill="#285680" id="Shape"/><path d="M39,24.9999999 C38.7347623,25.0000689 38.4803683,24.8947342 38.292817,24.7071829 C38.1052657,24.5196316 37.999931,24.2652376 38,23.9999999 L38,20 L34,20 C33.4477152,20 33,19.5522847 33,19 C33,18.4477152 33.4477152,18 34,18 L39,18 C39.2652376,17.999931 39.5196316,18.1052657 39.7071829,18.292817 C39.8947343,18.4803684 40.000069,18.7347624 40,19 L40,23.9999999 C40.000069,24.2652376 39.8947343,24.5196316 39.7071829,24.7071829 C39.5196316,24.8947342 39.2652376,25.0000689 39,24.9999999 Z" fill="#285680" id="Shape"/></g></g></svg>