<?xml version="1.0" ?><svg id="Layer_1" style="enable-background:new 0 0 512 512;" version="1.1" viewBox="0 0 512 512" xml:space="preserve" xmlns="http://www.w3.org/2000/svg" xmlns:xlink="http://www.w3.org/1999/xlink"><style type="text/css">
	.st0{fill:#FFFFFF;stroke:#231F20;stroke-width:13;stroke-linecap:round;stroke-linejoin:round;stroke-miterlimit:10;}
	.st1{fill:#FF465F;}
	.st2{fill:none;stroke:#231F20;stroke-width:13;stroke-linecap:round;stroke-linejoin:round;stroke-miterlimit:10;}
	.st3{fill:#FFFFFF;stroke:#231F20;stroke-width:10;stroke-linecap:round;stroke-linejoin:round;stroke-miterlimit:10;}
	.st4{clip-path:url(#SVGID_2_);}
	.st5{clip-path:url(#SVGID_4_);}
	.st6{clip-path:url(#SVGID_6_);}
	.st7{clip-path:url(#SVGID_8_);}
	.st8{clip-path:url(#SVGID_8_);fill:none;}
	.st9{clip-path:url(#SVGID_10_);}
	.st10{clip-path:url(#SVGID_10_);fill:none;}
	.st11{clip-path:url(#SVGID_12_);}
	.st12{clip-path:url(#SVGID_12_);fill:none;}
	.st13{fill:none;stroke:#231F20;stroke-width:3.9318;stroke-linecap:round;stroke-linejoin:round;stroke-miterlimit:10;}
	.st14{fill:#FFFFFF;stroke:#231F20;stroke-width:3.9318;stroke-linecap:round;stroke-linejoin:round;stroke-miterlimit:10;}
	.st15{clip-path:url(#SVGID_14_);}
	.st16{clip-path:url(#SVGID_16_);}
	.st17{clip-path:url(#SVGID_16_);fill:none;}
	.st18{fill:none;stroke:#231F20;stroke-width:7.5752;stroke-linecap:round;stroke-linejoin:round;stroke-miterlimit:10;}
	.st19{fill:#FFFFFF;stroke:#231F20;stroke-width:7.5752;stroke-linecap:round;stroke-linejoin:round;stroke-miterlimit:10;}
	.st20{clip-path:url(#SVGID_18_);}
	.st21{clip-path:url(#SVGID_20_);}
	.st22{clip-path:url(#SVGID_20_);fill:none;}
</style><g><g><path class="st2" d="M221.6,227.8c-24.9-2.5-45.1-7.8-55.5-14.6"/><path class="st2" d="M339.6,213.4c-10.3,6.5-29.6,11.7-53.6,14.2"/></g><g><g><line class="st2" x1="223.6" x2="158.6" y1="228.1" y2="273.6"/><line class="st2" x1="347.6" x2="282.5" y1="273.6" y2="228.1"/></g><path class="st2" d="M219.2,289.9c-27.6-2.7-49.9-8.6-61.3-16.1"/><path class="st2" d="M347.9,274.1c-11.4,7.3-33,13-59.7,15.7"/></g><g><g><line class="st2" x1="222" x2="153.3" y1="290.3" y2="338.4"/><line class="st2" x1="352.9" x2="284.2" y1="338.4" y2="290.3"/></g><path class="st2" d="M353.2,338.9c-17,10.8-55.4,18.4-100.1,18.4c-45.1,0-83.8-7.7-100.6-18.7"/></g></g><path class="st2" d="M260.6,390.3h-15.5c-7.3,0-13.3-5.9-13.3-13.3v-19.7h42V377C273.9,384.3,268,390.3,260.6,390.3z"/><g><path class="st2" d="M252.9,137.1c6.8,11.6,15.9,23.3,27,34.4c20.7,20.7,43.8,34.5,63.6,39.6"/><path class="st2" d="M166.1,209.9c18.9-5.8,40.4-19.1,59.8-38.5c11-11,20.1-22.8,27-34.4"/></g><circle class="st2" cx="252.9" cy="94.4" r="13.3"/></svg>