<?xml version="1.0" ?><svg id="Layer_1" style="enable-background:new 0 0 512 512;" version="1.1" viewBox="0 0 512 512" xml:space="preserve" xmlns="http://www.w3.org/2000/svg" xmlns:xlink="http://www.w3.org/1999/xlink"><style type="text/css">
	.st0{fill:#FFFFFF;stroke:#231F20;stroke-width:13;stroke-linecap:round;stroke-linejoin:round;stroke-miterlimit:10;}
	.st1{fill:#FF465F;}
	.st2{fill:none;stroke:#231F20;stroke-width:13;stroke-linecap:round;stroke-linejoin:round;stroke-miterlimit:10;}
	.st3{fill:#FFFFFF;stroke:#231F20;stroke-width:10;stroke-linecap:round;stroke-linejoin:round;stroke-miterlimit:10;}
	.st4{clip-path:url(#SVGID_2_);}
	.st5{clip-path:url(#SVGID_4_);}
	.st6{clip-path:url(#SVGID_6_);}
	.st7{clip-path:url(#SVGID_8_);}
	.st8{clip-path:url(#SVGID_8_);fill:none;}
	.st9{clip-path:url(#SVGID_10_);}
	.st10{clip-path:url(#SVGID_10_);fill:none;}
	.st11{clip-path:url(#SVGID_12_);}
	.st12{clip-path:url(#SVGID_12_);fill:none;}
	.st13{fill:none;stroke:#231F20;stroke-width:3.9318;stroke-linecap:round;stroke-linejoin:round;stroke-miterlimit:10;}
	.st14{fill:#FFFFFF;stroke:#231F20;stroke-width:3.9318;stroke-linecap:round;stroke-linejoin:round;stroke-miterlimit:10;}
	.st15{clip-path:url(#SVGID_14_);}
	.st16{clip-path:url(#SVGID_16_);}
	.st17{clip-path:url(#SVGID_16_);fill:none;}
	.st18{fill:none;stroke:#231F20;stroke-width:7.5752;stroke-linecap:round;stroke-linejoin:round;stroke-miterlimit:10;}
	.st19{fill:#FFFFFF;stroke:#231F20;stroke-width:7.5752;stroke-linecap:round;stroke-linejoin:round;stroke-miterlimit:10;}
	.st20{clip-path:url(#SVGID_18_);}
	.st21{clip-path:url(#SVGID_20_);}
	.st22{clip-path:url(#SVGID_20_);fill:none;}
</style><g><path class="st2" d="M243.6,193c-3.1-3.6-5-8.3-5-13.5c0-11.4,20.7-27.6,20.7-50.3c0-11.4,20.7,38.9,20.7,50.3"/><path class="st0" d="M280.1,179.5c0,2.9-0.6,5.6-1.6,8.1"/><line class="st0" x1="259.3" x2="259.3" y1="184.5" y2="215.4"/><path class="st2" d="M311.7,384.5h-79.7c-27.5,0-49.8-22.3-49.8-49.8v-71.5c0-26.4,21.4-47.8,47.8-47.8H282   c26.4,0,47.8,21.4,47.8,47.8v103.3C329.8,376.5,321.7,384.5,311.7,384.5z"/><path class="st2" d="M280.1,260.5v30.7c0,7.1,5.7,12.8,12.8,12.8h0c7.1,0,12.8-5.7,12.8-12.8v-30.7"/><path class="st2" d="M254.4,260.5v8.8c0,7.1,5.7,12.8,12.8,12.8h0c7.1,0,12.8-5.7,12.8-12.8v-8.8"/><line class="st0" x1="305.7" x2="329.8" y1="260.5" y2="260.5"/><line class="st0" x1="182.2" x2="254.4" y1="260.5" y2="260.5"/></g></svg>