<?xml version="1.0" ?><svg id="Layer_1" style="enable-background:new 0 0 512 512;" version="1.1" viewBox="0 0 512 512" xml:space="preserve" xmlns="http://www.w3.org/2000/svg" xmlns:xlink="http://www.w3.org/1999/xlink"><style type="text/css">
	.st0{fill:#FFFFFF;stroke:#231F20;stroke-width:13;stroke-linecap:round;stroke-linejoin:round;stroke-miterlimit:10;}
	.st1{fill:#FF465F;}
	.st2{fill:none;stroke:#231F20;stroke-width:13;stroke-linecap:round;stroke-linejoin:round;stroke-miterlimit:10;}
	.st3{fill:#FFFFFF;stroke:#231F20;stroke-width:10;stroke-linecap:round;stroke-linejoin:round;stroke-miterlimit:10;}
	.st4{clip-path:url(#SVGID_2_);}
	.st5{clip-path:url(#SVGID_4_);}
	.st6{clip-path:url(#SVGID_6_);}
	.st7{clip-path:url(#SVGID_8_);}
	.st8{clip-path:url(#SVGID_8_);fill:none;}
	.st9{clip-path:url(#SVGID_10_);}
	.st10{clip-path:url(#SVGID_10_);fill:none;}
	.st11{clip-path:url(#SVGID_12_);}
	.st12{clip-path:url(#SVGID_12_);fill:none;}
	.st13{fill:none;stroke:#231F20;stroke-width:3.9318;stroke-linecap:round;stroke-linejoin:round;stroke-miterlimit:10;}
	.st14{fill:#FFFFFF;stroke:#231F20;stroke-width:3.9318;stroke-linecap:round;stroke-linejoin:round;stroke-miterlimit:10;}
	.st15{clip-path:url(#SVGID_14_);}
	.st16{clip-path:url(#SVGID_16_);}
	.st17{clip-path:url(#SVGID_16_);fill:none;}
	.st18{fill:none;stroke:#231F20;stroke-width:7.5752;stroke-linecap:round;stroke-linejoin:round;stroke-miterlimit:10;}
	.st19{fill:#FFFFFF;stroke:#231F20;stroke-width:7.5752;stroke-linecap:round;stroke-linejoin:round;stroke-miterlimit:10;}
	.st20{clip-path:url(#SVGID_18_);}
	.st21{clip-path:url(#SVGID_20_);}
	.st22{clip-path:url(#SVGID_20_);fill:none;}
</style><g><circle class="st2" cx="256" cy="150.7" r="14.5"/><path class="st2" d="M334.4,287.4H177.6v-42.5c0-43.3,35.1-78.4,78.4-78.4h0c43.3,0,78.4,35.1,78.4,78.4V287.4z"/><rect class="st2" height="31.2" width="156.7" x="177.6" y="287.4"/><line class="st2" x1="334.4" x2="334.4" y1="373.9" y2="390.6"/><line class="st2" x1="334.4" x2="334.4" y1="318.6" y2="346.3"/><path class="st2" d="M334.4,355.9c5,0,9,4,9,9s-4,9-9,9c-5,0-9-4-9-9S329.4,355.9,334.4,355.9"/><line class="st2" x1="177.6" x2="177.6" y1="358.1" y2="365.4"/><line class="st2" x1="177.6" x2="177.6" y1="319.9" y2="332.4"/><circle class="st2" cx="177.6" cy="345.4" r="9"/><circle class="st2" cx="256" cy="128.1" r="6.7"/></g></svg>