<?xml version="1.0" ?><svg baseProfile="tiny" id="Layer_1" version="1.2" viewBox="0 0 512 512" xml:space="preserve" xmlns="http://www.w3.org/2000/svg" xmlns:xlink="http://www.w3.org/1999/xlink"><g><g><path d="M262.7,456h-13.5c-24,0-43.5-19.5-43.5-43.5v-85.2c0-24,19.5-43.5,43.5-43.5h13.5    c24,0,43.5,19.5,43.5,43.5v85.2C306.3,436.5,286.8,456,262.7,456z" fill="#E2B291" id="XMLID_11_"/><path d="M462.3,506c-17.9-62.6-78.5-113.5-156-130.3v0.9c0,10.5-50,72.9-50,72.9    s-50.6-62.4-50.6-72.9v-0.9c-77.5,16.8-138.2,67.7-156,130.3H462.3z" fill="#662D91" id="XMLID_10_"/></g><path d="M175.3,71.7c0,0-29.8-5.1-42.3,11.7c0,0,17.3-9.2,19.6,3.1c0,0-24.7-8.7-46.4,26.6   c0,0,27.3-22.9,39.3-13.6c0,0-30.2,29.3-27.7,101l29.7,29.2l20.4-91.3l46.7-48.2L175.3,71.7z" fill="#3F2820" id="XMLID_9_"/><path d="M334.6,74.1c0,0,60.6,27.2,60.6,143.6l-37,4.4l-23.6-91l-31.5-38.5L334.6,74.1z" fill="#3F2820" id="XMLID_8_"/><ellipse cx="375.1" cy="229.7" fill="#F4C5A2" id="XMLID_7_" rx="27.3" ry="37.8" transform="matrix(0.9772 0.2124 -0.2124 0.9772 57.3584 -74.4413)"/><ellipse cx="133" cy="229.7" fill="#F4C5A2" id="XMLID_6_" rx="27.3" ry="37.8" transform="matrix(-0.9772 0.2124 -0.2124 -0.9772 311.81 425.9663)"/><ellipse cx="254.4" cy="224.9" fill="#F4C5A2" id="XMLID_5_" rx="117.5" ry="137.1"/><path d="M305.4,116.4c0,0,20.4,13.6,25.5,33.1c0,0,6.5,34.4,17.2,47.1c0,0,8.3,10.8,7.8,35.1l9.7-2   l3.7-37.6l-14.9-71.4l-37.2-28.2l-17.4,16.5L305.4,116.4z" fill="#3F2820" id="XMLID_4_"/><path d="M203.4,116.4c0,0-20.4,13.6-25.5,33.1c0,0-6.5,34.4-17.2,47.1c0,0-8.3,10.8-7.8,35.1l-9.7-2   l-3.7-37.6l14.9-71.4l37.2-28.2l17.4,16.5L203.4,116.4z" fill="#3F2820" id="XMLID_3_"/><path d="M203.8,108.9c0,0,62.5,34.4,105.1,0c0,0,7.6-5,19.3-21c0,0,14.3-23.8,29.9-23.1   c0,0-10.2-5.2-27.2,3.2c0,0,12-16.6,41-26.5c0,0-30.9-16.1-84,0c0,0,23.4-15.1,81.4-11.2c0,0-56.8-16.4-88.5-0.6   c0,0,17-9.1,25.8-23.7c0,0-17,17-45.8,24.8c0,0-12.2,3.9-32.1,0.5c0,0-45.8-9.4-57.4,33.8C171.3,65.1,170.1,89.1,203.8,108.9z" fill="#3F2820" id="XMLID_2_"/><path d="M149.3,286.3c19.3,44.9,59.1,75.7,105.1,75.7c46,0,85.8-30.8,105.1-75.7   c-37.4,43.8-53.2,40.9-53.2,40.9c-9.4-4.5-10.4-35.1-10.4-35.1l-5.2,4.5V332c-12,5.5-19.8,1.6-19.8,1.6   c-9.9-3.9-10.4-28.2-10.4-28.2h-12.3c0,0-0.5,24.3-10.4,28.2c0,0-7.8,3.9-19.8-1.6v-35.4l-5.2-4.5c0,0-1,30.6-10.4,35.1   C202.5,327.2,186.7,330.1,149.3,286.3z" fill="#3F2820" id="XMLID_1_"/></g></svg>