<?xml version="1.0" ?><svg data-name="Layer 1" id="Layer_1" viewBox="0 0 500 500" xmlns="http://www.w3.org/2000/svg"><defs><style>.cls-1{fill:#adadad;}.cls-2{fill:#ccc;}.cls-3{fill:#fff;}</style></defs><title/><circle class="cls-1" cx="250" cy="250" r="250"/><circle class="cls-2" cx="250" cy="250" r="203.65"/><path class="cls-3" d="M246.76,408.25c-87.26,0-158.26-71-158.26-158.25s71-158.25,158.26-158.25S405,162.74,405,250,334,408.25,246.76,408.25Zm0-291.5c-73.48,0-133.26,59.78-133.26,133.25s59.78,133.25,133.26,133.25S380,323.47,380,250,320.23,116.75,246.76,116.75Z"/><path class="cls-3" d="M244.56,265.92a28.76,28.76,0,0,1-13.85-3.56L110.24,196l12-21.9,120.48,66.34a3.7,3.7,0,0,0,3.54,0L371.39,174l11.72,22.08L258,262.55A28.61,28.61,0,0,1,244.56,265.92Z"/><line class="cls-3" x1="127.37" x2="219.81" y1="333.2" y2="241.91"/><rect class="cls-3" height="25" transform="translate(-151.98 204.95) rotate(-44.64)" width="129.92" x="108.63" y="275.06"/><line class="cls-3" x1="366.15" x2="273.7" y1="333.2" y2="241.91"/><rect class="cls-3" height="129.92" transform="translate(-109.48 313.14) rotate(-45.36)" width="25" x="307.42" y="222.6"/></svg>