<?xml version="1.0" ?><svg data-name="Layer 1" id="Layer_1" viewBox="0 0 500 500" xmlns="http://www.w3.org/2000/svg"><defs><style>.cls-1{fill:#cead63;}.cls-2{fill:#efca70;}.cls-3{fill:#fff;}</style></defs><title/><circle class="cls-1" cx="250" cy="250" r="250"/><circle class="cls-2" cx="250" cy="250" r="203.65"/><path class="cls-2" d="M297,178.74h0a37.7,37.7,0,0,0-37.7-37.7H160.47A19.44,19.44,0,0,0,141,160.47v182A16.48,16.48,0,0,0,157.51,359h185A16.48,16.48,0,0,0,359,342.49v-142H318.68A21.7,21.7,0,0,1,297,178.74Z"/><path class="cls-3" d="M342.49,371.47h-185a29,29,0,0,1-29-29v-182a32,32,0,0,1,31.93-31.94h98.81a50.26,50.26,0,0,1,50.2,50.2,9.21,9.21,0,0,0,9.2,9.2h52.78V342.49A29,29,0,0,1,342.49,371.47Zm-182-217.93a6.94,6.94,0,0,0-6.93,6.94v182a4,4,0,0,0,4,4h185a4,4,0,0,0,4-4V212.93H318.68a34.23,34.23,0,0,1-34.2-34.2,25.23,25.23,0,0,0-25.2-25.2Z"/><rect class="cls-3" height="25" width="217.93" x="141.04" y="187.93"/><path class="cls-3" d="M359,287.5H141a6.25,6.25,0,0,1,0-12.5H359a6.25,6.25,0,0,1,0,12.5Z"/><path class="cls-3" d="M268.54,327.34H231.46a9.38,9.38,0,0,1,0-18.75h37.09a9.38,9.38,0,0,1,0,18.75Z"/><path class="cls-3" d="M268.54,253.52H231.46a9.37,9.37,0,0,1,0-18.75h37.09a9.37,9.37,0,0,1,0,18.75Z"/></svg>