<?xml version="1.0" ?><!DOCTYPE svg  PUBLIC '-//W3C//DTD SVG 1.1//EN'  'http://www.w3.org/Graphics/SVG/1.1/DTD/svg11.dtd'><svg height="6.82666in" style="shape-rendering:geometricPrecision; text-rendering:geometricPrecision; image-rendering:optimizeQuality; fill-rule:evenodd; clip-rule:evenodd" viewBox="0 0 6.82666 6.82666" width="6.82666in" xml:space="preserve" xmlns="http://www.w3.org/2000/svg" xmlns:xlink="http://www.w3.org/1999/xlink"><defs><style type="text/css">
   <![CDATA[
    .fil2 {fill:#463D38}
    .fil0 {fill:#A1887F}
    .fil1 {fill:#FFFFFE}
   ]]>
  </style></defs><g id="Layer_x0020_1"><circle class="fil0" cx="3.41333" cy="3.41333" r="3.41333"/><path class="fil1" d="M1.58835 1.95879l3.64994 0c0.232091,0 0.421697,0.189598 0.421697,0.421693l0 2.0657c0,0.232094 -0.189606,0.421693 -0.421697,0.421693l-3.64994 0c-0.232091,0 -0.421689,-0.189606 -0.421689,-0.421693l0 -2.0657c0,-0.232087 0.189598,-0.421693 0.421689,-0.421693z"/><path class="fil2" d="M1.58835 2.03878l3.64994 0c0.187941,0 0.341701,0.153756 0.341701,0.341697l0 2.0657c0,0.187941 -0.15376,0.341697 -0.341701,0.341697l-3.64994 0c-0.187933,0 -0.341693,-0.153756 -0.341693,-0.341697l0 -2.0657c0,-0.187941 0.15376,-0.341697 0.341693,-0.341697zm3.14457 0.847673l0.0465709 0 0 1.05363 -0.0465709 0 0 -1.05363zm0.0873661 0l0.0465709 0 0 1.05363 -0.0465709 0 0 -1.05363zm-2.85203 0.000125984l0.104055 0 0.0374094 0.197949 0.0548346 -0.197949 0.103228 0 0.055248 0.19828 0.0376575 -0.19828 0.103559 0 -0.0782087 0.354772 -0.10752 0 -0.0622677 -0.223382 -0.0618543 0.223382 -0.107358 0 -0.0787835 -0.354772zm0.531665 0l0.293331 0 0 0.0758071 -0.183327 0 0 0.0564882 0.169953 0 0 0.0723425 -0.169953 0 0 0.0698661 0.18878 0 0 0.0802677 -0.298783 0 0 -0.354772zm0.339 0.237425l0.104055 -0.00652756c0.00222835,0.0168504 0.00685039,0.0297283 0.0137874,0.0384843 0.0113189,0.0142874 0.0274173,0.0214724 0.0483976,0.0214724 0.0156063,0 0.0276654,-0.00363386 0.0360866,-0.0109843 0.00850787,-0.00735039 0.0127165,-0.0158543 0.0127165,-0.0255157 0,-0.00916535 -0.00396063,-0.0174252 -0.0119724,-0.0246929 -0.00801181,-0.00726772 -0.0266732,-0.0140394 -0.0559921,-0.020563 -0.048063,-0.0107362 -0.082252,-0.0251063 -0.102732,-0.0430236 -0.0206457,-0.0178386 -0.0309685,-0.0406339 -0.0309685,-0.0683819 0,-0.0181654 0.00528346,-0.0353425 0.0158543,-0.0515315 0.0105709,-0.0162677 0.0264291,-0.0289843 0.0476535,-0.0382323 0.0212205,-0.00925197 0.0502913,-0.013878 0.0872087,-0.013878 0.0453346,0 0.0798543,0.0084252 0.103638,0.0253543 0.0237835,0.0168465 0.0379055,0.043685 0.0424488,0.0805157l-0.103067 0.00611417c-0.00272441,-0.0161024 -0.00850394,-0.0278307 -0.0172598,-0.0350984 -0.00883465,-0.00735039 -0.0209724,-0.0109803 -0.0364173,-0.0109803 -0.0127165,0 -0.022378,0.00272441 -0.0288189,0.00809055 -0.00644488,0.00536614 -0.00966142,0.0119764 -0.00966142,0.0197362 0,0.00561417 0.0026378,0.0106535 0.00784252,0.0151969 0.00503543,0.00470472 0.0172598,0.00900394 0.0365866,0.0130472 0.0478937,0.0103228 0.0821654,0.020811 0.102815,0.0313819 0.0207283,0.0105709 0.0358386,0.0236181 0.0452559,0.0393071 0.00941339,0.0156102 0.0141181,0.0331181 0.0141181,0.0525236 0,0.0227126 -0.00627559,0.043685 -0.0188268,0.0629252 -0.0126339,0.0191614 -0.0301417,0.0337795 -0.0527717,0.043689 -0.0225433,0.00990945 -0.0509528,0.0148661 -0.0853071,0.0148661 -0.0602835,0 -0.102071,-0.0116457 -0.12528,-0.0348504 -0.0232047,-0.0232087 -0.0363346,-0.052689 -0.0393898,-0.0884449zm0.351882 -0.237425l0.333469 0 0 0.0877008 -0.111984 0 0 0.267071 -0.109504 0 0 -0.267071 -0.11198 0 0 -0.0877008zm0.384087 0.354772l0 -0.354772 0.182673 0c0.0338622,0 0.0597913,0.00288976 0.0776299,0.00875197 0.0179213,0.00578346 0.0323701,0.0166024 0.0433543,0.0322913 0.0109843,0.0157717 0.0164331,0.0350157 0.0164331,0.0576417 0,0.0196535 -0.00420866,0.0366654 -0.0126339,0.0509528 -0.00834252,0.0143701 -0.0199016,0.0259331 -0.034685,0.0348504 -0.00933071,0.00561417 -0.0222126,0.0103228 -0.0384803,0.0140394 0.0130433,0.00437795 0.0225433,0.00866929 0.0284882,0.0130472 0.00396457,0.00288976 0.00982677,0.00916535 0.0175079,0.0186654 0.00759843,0.00949606 0.0127165,0.0168465 0.0152795,0.0220472l0.0532638 0.102484 -0.123874 0 -0.0585512 -0.108181c-0.00743307,-0.0140394 -0.0140394,-0.023126 -0.0198189,-0.0273346 -0.00792913,-0.00545276 -0.0169291,-0.00817717 -0.0269213,-0.00817717l-0.00966142 0 0 0.143693 -0.110004 0zm0.110004 -0.210583l0.0463268 0c0.00495276,0 0.0147008,-0.00165354 0.0290669,-0.00487402 0.00726772,-0.00140551 0.0132165,-0.00511811 0.0177559,-0.0111496 0.00462598,-0.00602756 0.00693701,-0.0128819 0.00693701,-0.0206457 0,-0.0114764 -0.00362992,-0.020311 -0.0108976,-0.0264252 -0.00726772,-0.00619291 -0.0208976,-0.00924803 -0.0409646,-0.00924803l-0.0482244 0 0 0.0723425zm0.273925 -0.144189l0.293331 0 0 0.0758071 -0.183331 0 0 0.0564882 0.169957 0 0 0.0723425 -0.169957 0 0 0.0698661 0.188783 0 0 0.0802677 -0.298783 0 0 -0.354772zm0.358819 0l0.102319 0 0.133043 0.195886 0 -0.195886 0.103559 0 0 0.354772 -0.103559 0 -0.132299 -0.194811 0 0.194811 -0.103063 0 0 -0.354772zm-1.21272 0.698728l0.109508 0 0 0.211327c0,0.0208937 -0.00330709,0.0407126 -0.00983071,0.0592913 -0.00651969,0.0186654 -0.0167598,0.0349331 -0.0307205,0.0488898 -0.0139567,0.0139606 -0.0285709,0.0237047 -0.0438504,0.0293976 -0.0213031,0.00784646 -0.0469055,0.011811 -0.0767205,0.011811 -0.0172598,0 -0.0360866,-0.00123622 -0.0564843,-0.00363386 -0.0203976,-0.0023937 -0.0374921,-0.00718504 -0.0512008,-0.0143661 -0.0137087,-0.00718504 -0.0262598,-0.0173425 -0.0375748,-0.0305591 -0.0113937,-0.0132087 -0.0191575,-0.0268386 -0.0233701,-0.040874 -0.00677165,-0.0225472 -0.0101575,-0.0425315 -0.0101575,-0.0599567l0 -0.211327 0.109504 0 0 0.216362c0,0.0193268 0.00536614,0.034437 0.0160197,0.0452559 0.0107362,0.0109016 0.0256024,0.0163504 0.0445945,0.0163504 0.0187441,0 0.0335276,-0.00536614 0.0442638,-0.0160984 0.0106575,-0.0106575 0.0160197,-0.0258504 0.0160197,-0.0455079l0 -0.216362zm0.182839 0l0.102323 0 0.133039 0.195882 0 -0.195882 0.103559 0 0 0.354772 -0.103559 0 -0.132295 -0.194811 0 0.194811 -0.103067 0 0 -0.354772zm0.41622 0l0.109996 0 0 0.354772 -0.109996 0 0 -0.354772zm0.174496 0.177634c0,-0.0578937 0.0161024,-0.10298 0.0483937,-0.135189 0.0322913,-0.0322874 0.0772126,-0.0483937 0.134854,-0.0483937 0.0590472,0 0.104551,0.0158583 0.136512,0.0474882 0.0319567,0.0317087 0.0478976,0.0761378 0.0478976,0.133205 0,0.0414528 -0.00694094,0.0753937 -0.0208937,0.101906 -0.0139567,0.0265079 -0.034189,0.0471535 -0.0605354,0.061937 -0.0264252,0.0147795 -0.0592913,0.0221299 -0.098685,0.0221299 -0.0399685,0 -0.0730866,-0.00635827 -0.0993465,-0.0190748 -0.0261772,-0.0128031 -0.0474843,-0.0329488 -0.0637559,-0.0605315 -0.0162677,-0.0275 -0.0244409,-0.0620197 -0.0244409,-0.103476zm0.109504 0.000248031c0,0.0357559 0.00668898,0.0615236 0.0199843,0.0771299 0.013378,0.0156063 0.0315472,0.0234528 0.0545039,0.0234528 0.0235354,0 0.0418701,-0.00767717 0.0547559,-0.0229567 0.0129606,-0.0153622 0.0194055,-0.0427795 0.0194055,-0.0825 0,-0.0333622 -0.00677165,-0.0577244 -0.0202362,-0.0730866 -0.0135394,-0.0154409 -0.0317913,-0.0231181 -0.0549173,-0.0231181 -0.0221299,0 -0.0399685,0.00783858 -0.0533465,0.0234488 -0.0134606,0.0156102 -0.0201496,0.0415394 -0.0201496,0.0776299zm0.318106 -0.177882l0.102323 0 0.133039 0.195882 0 -0.195882 0.103559 0 0 0.354772 -0.103559 0 -0.132295 -0.194811 0 0.194811 -0.103067 0 0 -0.354772z"/></g></svg>