<?xml version="1.0" ?><svg height="64px" id="SVGRoot" version="1.1" viewBox="0 0 64 64" width="64px" xmlns="http://www.w3.org/2000/svg" xmlns:cc="http://creativecommons.org/ns#" xmlns:dc="http://purl.org/dc/elements/1.1/" xmlns:inkscape="http://www.inkscape.org/namespaces/inkscape" xmlns:rdf="http://www.w3.org/1999/02/22-rdf-syntax-ns#" xmlns:sodipodi="http://sodipodi.sourceforge.net/DTD/sodipodi-0.dtd" xmlns:svg="http://www.w3.org/2000/svg"><defs id="defs3848"/><g id="layer1"><g id="g875"><rect class="fil0 str0" height="59.709984" id="rect73" style="clip-rule:evenodd;fill:none;fill-rule:evenodd;stroke:#000000;stroke-width:2.00005412;stroke-linecap:round;stroke-linejoin:round;image-rendering:optimizeQuality;shape-rendering:geometricPrecision;text-rendering:geometricPrecision" width="59.613987" x="2.1930101" y="2.1450083"/><line class="fil0 str1" id="line75" style="clip-rule:evenodd;fill:none;fill-rule:evenodd;stroke:#000000;stroke-width:2.00005412;image-rendering:optimizeQuality;shape-rendering:geometricPrecision;text-rendering:geometricPrecision" x1="2.1930101" x2="61.902996" y1="13.664619" y2="13.664619"/><line class="fil0 str0" id="line77" style="clip-rule:evenodd;fill:none;fill-rule:evenodd;stroke:#000000;stroke-width:2.00005412;stroke-linecap:round;stroke-linejoin:round;image-rendering:optimizeQuality;shape-rendering:geometricPrecision;text-rendering:geometricPrecision" x1="8.9127836" x2="53.263287" y1="55.615204" y2="55.615204"/><line class="fil0" id="line79" style="clip-rule:evenodd;fill:none;fill-rule:evenodd;stroke:#000000;stroke-width:0.09599676;image-rendering:optimizeQuality;shape-rendering:geometricPrecision;text-rendering:geometricPrecision" x1="12.944647" x2="12.944647" y1="2.1450083" y2="12.992642"/><line class="fil0 str0" id="line81" style="clip-rule:evenodd;fill:none;fill-rule:evenodd;stroke:#000000;stroke-width:2.00005412;stroke-linecap:round;stroke-linejoin:round;image-rendering:optimizeQuality;shape-rendering:geometricPrecision;text-rendering:geometricPrecision" x1="13.520628" x2="13.520628" y1="43.903599" y2="51.007359"/><line class="fil0 str0" id="line83" style="clip-rule:evenodd;fill:none;fill-rule:evenodd;stroke:#000000;stroke-width:2.00005412;stroke-linecap:round;stroke-linejoin:round;image-rendering:optimizeQuality;shape-rendering:geometricPrecision;text-rendering:geometricPrecision" x1="22.544323" x2="22.544323" y1="35.359886" y2="51.007359"/><line class="fil0 str0" id="line85" style="clip-rule:evenodd;fill:none;fill-rule:evenodd;stroke:#000000;stroke-width:2.00005412;stroke-linecap:round;stroke-linejoin:round;image-rendering:optimizeQuality;shape-rendering:geometricPrecision;text-rendering:geometricPrecision" x1="31.472021" x2="31.472021" y1="40.351719" y2="51.007359"/><line class="fil0 str0" id="line87" style="clip-rule:evenodd;fill:none;fill-rule:evenodd;stroke:#000000;stroke-width:2.00005412;stroke-linecap:round;stroke-linejoin:round;image-rendering:optimizeQuality;shape-rendering:geometricPrecision;text-rendering:geometricPrecision" x1="40.399719" x2="40.399719" y1="35.263889" y2="51.007359"/><line class="fil0 str0" id="line89" style="clip-rule:evenodd;fill:none;fill-rule:evenodd;stroke:#000000;stroke-width:2.00005412;stroke-linecap:round;stroke-linejoin:round;image-rendering:optimizeQuality;shape-rendering:geometricPrecision;text-rendering:geometricPrecision" x1="49.423416" x2="49.423416" y1="27.58415" y2="51.007359"/><polygon class="fil1" id="polygon91" points="6767,1415 6778,1415 6786,1442 6793,1415 6804,1415 6811,1442 6819,1415 6830,1415 6817,1457 6806,1457 6799,1430 6792,1457 6781,1457 " style="clip-rule:evenodd;fill:#000000;fill-rule:nonzero;stroke:none;image-rendering:optimizeQuality;shape-rendering:geometricPrecision;text-rendering:geometricPrecision" transform="matrix(0.09599676,0,0,0.09599676,-632.15358,-129.75454)"/><polygon class="fil1" id="polygon93" points="6844,1415 6854,1415 6862,1442 6869,1415 6880,1415 6887,1442 6895,1415 6906,1415 6893,1457 6882,1457 6875,1430 6868,1457 6857,1457 " style="clip-rule:evenodd;fill:#000000;fill-rule:nonzero;stroke:none;image-rendering:optimizeQuality;shape-rendering:geometricPrecision;text-rendering:geometricPrecision" transform="matrix(0.09599676,0,0,0.09599676,-632.15358,-129.75454)"/><polygon class="fil1" id="polygon95" points="6920,1415 6930,1415 6938,1442 6946,1415 6956,1415 6963,1442 6971,1415 6982,1415 6969,1457 6958,1457 6951,1430 6944,1457 6933,1457 " style="clip-rule:evenodd;fill:#000000;fill-rule:nonzero;stroke:none;image-rendering:optimizeQuality;shape-rendering:geometricPrecision;text-rendering:geometricPrecision" transform="matrix(0.09599676,0,0,0.09599676,-632.15358,-129.75454)"/><circle class="fil2" cx="39.343758" cy="9.4407616" id="circle97" r="0.67197734" style="clip-rule:evenodd;fill:#000000;fill-rule:evenodd;stroke:none;stroke-width:0.09599676;image-rendering:optimizeQuality;shape-rendering:geometricPrecision;text-rendering:geometricPrecision"/><polyline class="fil0 str0" id="polyline99" points="6717,1751 6839,1638 6928,1723 7104,1542 " style="clip-rule:evenodd;fill:none;fill-rule:evenodd;stroke:#000000;stroke-width:20.83460045;stroke-linecap:round;stroke-linejoin:round;image-rendering:optimizeQuality;shape-rendering:geometricPrecision;text-rendering:geometricPrecision" transform="matrix(0.09599676,0,0,0.09599676,-632.15358,-129.75454)"/><line class="fil0 str1" id="line101" style="clip-rule:evenodd;fill:none;fill-rule:evenodd;stroke:#000000;stroke-width:2.00005412;image-rendering:optimizeQuality;shape-rendering:geometricPrecision;text-rendering:geometricPrecision" x1="12.944647" x2="12.944647" y1="2.1450083" y2="13.664619"/></g></g></svg>