<?xml version="1.0" ?><!DOCTYPE svg  PUBLIC '-//W3C//DTD SVG 1.1//EN'  'http://www.w3.org/Graphics/SVG/1.1/DTD/svg11.dtd'><svg enable-background="new 0 0 512 512" height="512px" id="Calque_1" version="1.1" viewBox="0 0 512 512" width="512px" xml:space="preserve" xmlns="http://www.w3.org/2000/svg" xmlns:xlink="http://www.w3.org/1999/xlink"><g id="Calque_1_1_"/><g id="Calque_2"><g><path d="M223.763,71.564c2.19-2.269,4.355-3.995,3.615-3.057c4.276-4.808,4.676-4.602,4.749-5.707    c2.663-3.168,6.123-5.927,3.016-2.402l8.09-8.721l-5.106,4.945c0.47-0.899,2.51-2.875,4.569-4.887    c1.029-1.006,2.064-2.022,2.909-2.917c0.208-0.226,0.408-0.442,0.595-0.646c0.197-0.226,0.382-0.438,0.552-0.634    c0.501-0.531,0.702-0.77,0.932-1.08c0,0-0.176,0.149-0.483,0.41c-0.134,0.118-0.368,0.317-0.62,0.564    c-0.184,0.185-0.391,0.394-0.618,0.622c-0.849,0.857-1.981,2-3.113,3.142c-2.264,2.285-4.529,4.57-4.529,4.57l0.313-0.597    c-1.918,2.225-6.007,6.185-7.47,7.527c0.15-0.292-0.105-0.265,1.487-1.883c-11.019,10.952-2.209,3.709-11.183,12.967    C222.03,73.201,222.743,72.499,223.763,71.564z" fill="#202020"/><path d="M213.381,79.846l-3.294,4.37l-6.568,6.29c0.113,0.259-4.42,5.091-1.086,2.084    c0.591-0.649,1.761-1.93,2.768-2.903c-0.316,1.119-8.349,8.749-6.054,7.266c4.978-5.19,5.847-5.882,8.65-9.337    c4.699-4.624,8.185-7.925,10.508-9.955c1.322-1.445,1.271-1.885,2.98-3.692c-0.384,0.394-0.737,0.756-1.179,1.209l-0.792-0.414    c-1.339,1.593-2.786,2.919-4.4,4.558l6.821-8.23c-2.992,1.862-10.054,9.587-13.244,12.307    C212.665,80.243,205.826,86.569,213.381,79.846z" fill="#202020"/><path d="M221.285,73.969c0.048-0.049,0.128-0.13,0.183-0.186C221.413,73.839,221.333,73.92,221.285,73.969z" fill="#202020"/><path d="M263.586,327.863c-0.015-2.263-0.217-2.93-0.318-3.257l0.017,25.477c0.224-0.798,0.501-8.136,0.636-3.232    c0.248-2.187,0.035-8.847-0.268-9.813l0.342,1.847c-0.438-5.87,0.423-9.879,0.682-6.052l-0.005-0.495l-1.685-16.258    C262.888,322.049,263.567,320.677,263.586,327.863z" fill="#202020"/><path d="M278.072,67.125c2.39,2.279,2.733,2.509,2.527,2.185C279.718,68.517,278.872,67.774,278.072,67.125z" fill="#202020"/><path d="M262.59,312.279l-0.526-5.093C262.205,309.225,262.395,311.017,262.59,312.279z" fill="#202020"/><path d="M270.61,347.559c0.028,0.01,0.053,0.065,0.091-0.069l-0.27-2.286c0,0.034,0,0.045,0,0.059    C270.496,346.104,270.556,346.861,270.61,347.559z" fill="#202020"/><path d="M260.61,196.68c-0.012-0.547-0.022-1.018-0.037-1.671C260.586,195.617,260.599,196.167,260.61,196.68z" fill="#202020"/><path d="M273.623,416.575l-0.507-11.326c0.239,1.51,0.168-3.954,0.448-1.568c-0.039-0.863-0.134-4.91-0.258-3.807    l0.016,2.312c-0.699-5.974-0.968-2.355-1.5-12.259c-0.416,6.147-0.035,8.844,0.283,12.101c0.035,1.104,0.065,2.028,0.096,2.964    l0.979,9.418L273.623,416.575z" fill="#202020"/><path d="M348.207,166.767l-0.126-0.049C348.175,166.784,348.202,166.786,348.207,166.767z" fill="#202020"/><path d="M347.573,166.526l0.509,0.191C347.572,166.366,345.847,164.794,347.573,166.526z" fill="#202020"/><path d="M263.043,314.149c-0.129-0.154-0.288-0.808-0.453-1.87l0.396,3.8    C263.002,315.539,263.024,314.827,263.043,314.149z" fill="#202020"/><path d="M264.572,322.795l0.1,9.542l0.362,3.518C264.897,332.202,264.803,327.931,264.572,322.795z" fill="#202020"/><path d="M260.199,211.751c-0.107-19.765,0.822,4.855,1.021-4.226c-0.098-5.488-0.488-7.424-0.611-10.845    c0.334,15.677-1.287-2.125-1.08,13.686c-0.707-2.249-0.77-11.402-0.578-16.767c0.681-6.072,0.498,5.306,1.166,6.681    c-0.111-6.344-0.234-5.227-0.615-7.919c0.158-9.961-0.836-20.611,0.107-26.56c-0.15-7.211-0.476-6.736-0.834-10.883    c-0.73-0.825-0.383,10.725-0.957,13.397c0.061-0.554,0.184-1.634,0.287-1.321l-0.154,6.234c0.254-5.918,0.729,0.822,0.786,3.985    c0.015,2.3,0.048,6.874-0.153,6.245l-0.158-3.483c-0.229,4.484,0.533,9.893,0.138,14.628c-0.163,0.248-0.241-1.544-0.343-1.816    c0.498,5.306,0.469,10.422,0.822,18.276l-0.724-4.553c0.8,6.282,0.573,20.508,0.15,30.366c0.122-1.093,0.208-3.063,0.349-1.881    c0.172,5.791-0.324,10.165-0.705,7.482c0.6,5.657-0.504,21.553,0.275,29.262l3.675,35.445c-0.093-1.327-0.167-2.747-0.198-4.212    c0.635-3.223,0.557-4.959,1.156,0.688c-0.336-5.543-0.846-3.425-0.873-11.753c0.32,3.267,1.049,4.092,1.123-3.886    c-0.634-19.944-2.438-33.162-3.361-51.789c0.49-0.688,0.353-15.312,0.467-22.419c0.525,2.713,0.676,7.988,0.781,13.462    c0.018-3.435,0.049-9.35,0.07-13.737L260.199,211.751z" fill="#202020"/><path d="M261.842,258.062c0.045-0.498,0.068-1.014,0.092-1.544C261.893,256.801,261.862,257.261,261.842,258.062z" fill="#202020"/><path d="M261.143,228.945c0.02,0.069,0.033,0.044,0.054,0.069c-0.013-0.574-0.024-1.149-0.038-1.737    C261.154,227.865,261.147,228.529,261.143,228.945z" fill="#202020"/><path d="M264.149,309.476c0.116,1.186,0.202,2.058,0.318,3.243c-0.036-0.729-0.083-1.645-0.127-2.524    C264.274,309.356,264.207,308.958,264.149,309.476z" fill="#202020"/><path d="M263.287,313.466l-0.201-0.633c-0.016,0.509-0.027,0.866-0.043,1.316    C263.153,314.287,263.242,314.139,263.287,313.466z" fill="#202020"/><path d="M264.621,136.222l-0.105-1.895C264.524,135.469,264.567,135.961,264.621,136.222z" fill="#202020"/><path d="M261.03,189.734c0.047,6.874,0.73,0.822,0.733,10.546l0.044-2.854c0.313,6.977,0.17,19.239,0.195,27.53    c-0.291-0.936-0.354,5.027-0.806,4.058c0.106,5.667,0.206,11.278,0.673,14.198c-0.152,3.511,0.258,8.844,0.064,13.307    c0.273-1.884,0.924,6.354,0.59-4.508c0.037,0.877,0.1,0.327,0.139,1.193c0.381-6.998-0.266-9.804-0.274-15.832    c0.269-3.604,0.435,5.894,0.543,2.493c-0.251-7.527,0.325-23.62-0.69-23.121c-0.07-5.478,0.152-6.234,0.338-7.868    c-1.08-8.665,0.465-32.158-0.918-32.079c0.055,3.164,0.025,8.318,0.322,12.96L261.03,189.734z" fill="#202020"/><path d="M264.076,297.933c0.005-0.423,0.011-0.987,0.014-1.338C264.086,296.991,264.081,297.483,264.076,297.933z" fill="#202020"/><path d="M260.073,384.676l-0.902-2.875c-0.217-16.367,0.037-22.285,0.002-36.597    c0.123-1.094,0.201,0.643,0.242,1.523c-0.105-10.062,0.084-25.116-0.33-32.44c0.006-3.201,0.293-11.604,0.559-8.424    c-0.079-1.559-0.156-3.339-0.127-5.131c0.324-0.475,0.092,4.01,0.357,4.112c0.022-1.42,0.086-1.974-0.018-2.3    c0.279,2.39,1.102-2.479,1.082,8.665c-0.76,4.315-0.088-7.73-0.926-5.182c-0.006,3.696,0.318,3.267,0.421,3.583    c-0.019,4.711-0.229,4.587-0.421,4.336c0.26,1.805-0.102,7.729,0.293,10.223c0.064,9.16-0.629-0.498-0.619,5.484l0.848,3.449    l-0.16,9.948c0.299,14.4,1.465-2.061,1.945,14.4c-0.443-2.163-1.186,4.439-1.363,12.101c-0.031-4.584-0.584-13.057-0.332-18.975    c-0.664,8.343-0.08-11.481-0.84-7.152c0.359,4.123,0.408,10.997,0.215,16.357l-0.078-1.757c-0.09,5.701,0.797,10.017,0.457,17.885    c0.027,3.909-0.211,3.177-0.41,2.489C260.094,381.708,260.26,384.665,260.073,384.676z M259.896,376.158l0.084-5.23    C259.84,372.17,259.844,374.119,259.896,376.158z" fill="#202020"/><path d="M161.732,131.646c0.383-0.351,0.824-0.756,1.172-1.075C162.631,130.789,162.193,131.202,161.732,131.646z" fill="#202020"/><path d="M241.802,365.515l0.028-3.029C241.801,363.67,241.797,364.638,241.802,365.515z" fill="#202020"/><path d="M239.002,297.524l-0.198-4.426C238.817,294.845,238.895,296.214,239.002,297.524z" fill="#202020"/><path d="M139.032,162.601l0.029,0.204c0.082,0.335,0.151,0.59,0.256,0.938c0,0-0.086-0.281-0.155-0.567    C139.087,162.89,139.032,162.601,139.032,162.601z" fill="#202020"/><path d="M240.985,161.156c0.071-0.674,0.136-1.431,0.187-2.465C241.088,158.814,241.028,159.736,240.985,161.156z" fill="#202020"/><path d="M239.039,298.34c0.007-0.114,0.01-0.18,0.016-0.269c-0.017-0.172-0.035-0.361-0.053-0.547L239.039,298.34z    " fill="#202020"/><path d="M239.329,395.466c0.028,0.65,0.054,1.241,0.084,1.939C239.397,396.491,239.366,395.93,239.329,395.466z" fill="#202020"/><path d="M241.732,391.195c0.021,0.698,0.048,1.365,0.084,1.885L241.732,391.195z" fill="#202020"/><path d="M271.916,445.463l-0.123-4.078C271.807,443.389,271.855,444.587,271.916,445.463z" fill="#202020"/><path d="M241.177,401.989c0.039,0.237,0.077,0.475,0.115,0.633C241.266,402.057,241.217,401.79,241.177,401.989z" fill="#202020"/><path d="M181.845,115.108c-0.065,0.066-0.135,0.138-0.173,0.177l-0.003,0.143L181.845,115.108z" fill="#202020"/><path d="M187.985,107.222c0.811-0.843,1.654-1.72,2.484-2.583C189.525,105.577,188.627,106.512,187.985,107.222z" fill="#202020"/><path d="M242.348,101.912c0.026-0.267,0.061-0.624,0.096-0.99c0.036-0.215,0.072-0.436,0.102-0.615    c0.069-0.367,0.141-0.594,0.211-0.25c-0.088-0.612-0.24-0.827-0.345-0.611c-0.052,0.108-0.093,0.319-0.108,0.648    c-0.008,0.165-0.009,0.359-0.002,0.587C242.316,101.038,242.331,101.447,242.348,101.912z" fill="#202020"/><path d="M171.537,132.916c0.378-0.541,0.888-1.174,1.401-1.808C171.958,132.262,171.094,133.271,171.537,132.916z" fill="#202020"/><path d="M172.938,131.108c0.482-0.573,0.997-1.186,1.428-1.699C173.856,129.997,173.373,130.571,172.938,131.108z" fill="#202020"/><path d="M249.383,129.383c-0.058,0.269-0.105,0.685-0.121,1.249C249.377,130.467,249.402,130.016,249.383,129.383z    " fill="#202020"/><path d="M192.613,102.688c0.312-0.597,11.019-11.924,1.679-2.731c-0.087-0.802,5.739-6.15,8.1-8.731    c-1.898,1.69,0.607-1.178-0.097-0.792c-1.171,1.279-2.5,2.864-4.558,4.857c-1.134,0.729,1.801-2.483,4.277-4.807    c-3.192,2.722,3.399-4.104-0.965-0.1c-8.789,9.102-14.95,15.585-20.59,22.524c4.992-5.206,10.564-11.042,14.925-15.045    l-1.374,2.143c-5.065,4.388-7.73,7.559-12.416,12.171l10.648-10.238c5.212-4.572,2.013-1.226-1.774,2.7    C191.422,103.696,192.304,102.861,192.613,102.688z" fill="#202020"/><path d="M188.951,113.1l0.186-0.164c0.14-0.167,0.32-0.366,0.401-0.479L188.951,113.1z" fill="#202020"/><path d="M260.906,446.217l-0.205-1.27C260.793,446.007,260.858,446.333,260.906,446.217z" fill="#202020"/><path d="M180.858,117.466l0.007-0.007C180.799,117.533,180.782,117.551,180.858,117.466z" fill="#202020"/><path d="M252.844,458.697c0.026,0.004,0.053,0.006,0.091,0.02C252.884,458.692,252.873,458.705,252.844,458.697z" fill="#202020"/><path d="M239.412,455.327c-0.023,0.097-0.046,0.126-0.064,0.354C239.454,456.797,239.419,456.251,239.412,455.327z    " fill="#202020"/><path d="M252.802,458.728c0.011-0.013,0.014-0.032,0.042-0.031C252.823,458.703,252.791,458.699,252.802,458.728z" fill="#202020"/><path d="M249.088,310.127c0,0-0.094,0.484-0.184,1.248C248.955,311.671,249.013,311.375,249.088,310.127z" fill="#202020"/><path d="M248.282,340.425c-0.021,0.192-0.033,0.306-0.06,0.554L248.282,340.425z" fill="#202020"/><path d="M239.898,109.078c-0.008,1.499,0.006,2.624,0.029,3.573C239.941,111.557,239.939,110.375,239.898,109.078z    " fill="#202020"/><path d="M252.935,458.717c0.159,0.046,0.36,0.144,0.694,0.257C253.261,458.847,253.069,458.748,252.935,458.717z" fill="#202020"/><path d="M246.34,263.932c0.021,0.323,0.04,0.626,0.06,0.932c0.009-0.186,0.019-0.371,0.027-0.554L246.34,263.932z" fill="#202020"/><path d="M246.74,248.122c0.062,0.54,0.126,0.787,0.182,1.09c-0.226-5.643,0.02-16.01-0.559-17.238    c0.014,1.916-0.326,11.843-0.665,10.151c0.145,3.934-0.261,9.749-0.166,11.867c0.316-6.458,0.488-0.698,0.684,3.663    c-0.169,3.964-0.466-0.747-0.573,2.668l0.064,9.174l0.076-7.991l0.557,2.428c-0.019-0.296-0.032-0.498-0.053-0.814    C246.028,249.597,247.101,261.969,246.74,248.122z" fill="#202020"/><path d="M246.922,249.212c0.035,0.846,0.078,1.589,0.137,2.167C247.05,250.102,246.993,249.607,246.922,249.212z" fill="#202020"/><path d="M247.84,193.974c-0.026-0.694-0.053-1.447-0.088-2.393C247.768,192.031,247.806,193.076,247.84,193.974z" fill="#202020"/><path d="M264.942,342.635c-0.164,0.237-0.502,8.114-0.073,7.974c0.045-2.338,0.089-4.693,0.134-7.06    L264.942,342.635z" fill="#202020"/><path d="M219.843,108.216l1.873-1.857c0.116-0.151,0.228-0.296,0.315-0.409    C221.606,106.284,220.434,107.567,219.843,108.216z" fill="#202020"/><path d="M245.497,239.69c0.065,1.444,0.133,2.087,0.201,2.435C245.664,241.19,245.609,240.326,245.497,239.69z" fill="#202020"/><path d="M218.773,107.846c-0.876,0.704-2.173,1.737-2.454,1.787c-1.62,1.614-2.597,2.909-4.186,4.611    C213.947,112.342,216.126,110.223,218.773,107.846z" fill="#202020"/><path d="M212.005,114.383c0.044-0.048,0.088-0.096,0.128-0.139C212.089,114.292,212.049,114.335,212.005,114.383z" fill="#202020"/><path d="M265.123,337.948c-0.028-0.678-0.059-1.375-0.09-2.094l0.115,1.09c0.043-1.813,0.086-3.614,0.129-5.419    c-0.02-0.654-0.041-1.362-0.068-2.231c0.016,0.351,0.061,0.622,0.107,0.79c0.018-0.588,0.034-1.162,0.051-1.736    c-0.443-4.315-0.768-15.054-1.027-18.152c-0.189-4.099-0.297-9.115-0.264-12.262c-0.008,2.916,0.08,6.788,0.326,5.625    c0.254-5.921,0.989-8.799,0.357-19.019l0.01,5.993l-0.95-13.476c0.394-4.721,0.474,6.726,0.817,8.597    c-0.469-10.481,0.783-19.198-0.041-24.057c0.488-0.685,1.303-1.833,1.255-8.71c-0.558,4.958-0.358-4.123-0.954-0.055    c-0.279-2.376,0.176-7.671-0.189-8.067l0.203,0.643c0.772-11.743-0.439-15.587-0.838-20.611    c-0.199-14.061,0.117-20.518,0.035-31.986c0.327-0.451,1.227-3.573,1.193-8.174c-0.443-2.139-0.648-12.517-1.215-13.576    c-0.236,8.225,0.475,6.729,0.607,11.653c-0.594,4.099-0.588,0.372-0.943,5.97c0.232-4.519-0.309-20.415,0.248-25.363l0.078,1.747    c0.34-7.898,1.742-9.408,0.893-22.568l-0.348-6.279c0.057,0.303,0.123,0.337,0.174,0.499c0.06-10.278,0.705-7.472,0.195-18.819    c0.039,0.877,0.102,0.327,0.141,1.217c0.318-6.468-0.322-12.991-0.455-17.881c0.236-1.632,0.353-1.439,0.452-0.559    c0.101,0.831,0.184,2.18,0.354,3.114c0.126-7.872-0.216-16.831-0.629-25.418c2.435,2.121,4.585,3.995,6.331,5.516l6.185,6.577    c-1.847-1.708-3.834-3.45-5.141-4.496c-1.316-1.055-1.966-1.427-1.412-0.672c2.975,2.841,2.415,1.965,6.78,6.458    c-0.863-0.435-2.724-1.896-4.504-3.139c2.025,2.204,3.094,3.268,3.752,3.838c0.651,0.563,0.858,0.599,0.982,0.571    c0.124-0.028,0.165-0.121,0.521,0.222c0.354,0.341,1.035,1.128,2.319,2.74c2.616,2.626,4.451,3.835,4.996,3.864l4.41,5.086    c0.856,0.199,6.737,6.042,10.629,9.834c0.611,0.328-2.742-3.444-4.325-4.773c0.545,0.028,4.754,3.994,7.377,6.628    c0.273,1.652,17.31,17.11,13.39,14.816c5.984,5.824,13.179,12.825,19.865,19.332c3.346,3.251,6.564,6.378,9.441,9.173    c1.446,1.388,2.808,2.694,4.056,3.891c0.627,0.595,1.227,1.163,1.794,1.7c0.284,0.268,0.562,0.528,0.83,0.78    c0.238,0.217,0.473,0.412,0.71,0.59c0.563,0.543,1.386,1.122,2.305,1.507c0.911,0.403,1.897,0.606,2.672,0.69    c0.775,0.076,1.341,0.065,1.462,0.118c0.12,0.042-0.191,0.226-1.228,0.329c3.167,0.062,5.79-1.515,7.293-3.518    c1.532-2.018,2.036-4.451,1.708-6.674c-0.164-1.115-0.534-2.188-1.098-3.164c-0.281-0.488-0.609-0.952-0.984-1.386    c-0.189-0.216-0.387-0.425-0.597-0.627c-0.24-0.23-0.482-0.463-0.727-0.697c-1.975-1.895-4.059-3.961-6.37-6.367    c-0.694-0.867,4.271,4.259,4.165,3.693c-6.442-5.89-10.927-11.511-20.679-20.895c1.622,1.597,2.234,1.924,2.529,2.076    c0.054,0.282-4.156-3.683-6.742-6.047c-1.332-1.45,1.936,1.77,1.242,0.902c-18.146-18.817-33.164-31.96-51.515-50.373    c5.24,5.259,7.682,6.786,7.925,6.655l-5.135-5.151c-2.21-1.753-6.07-5.615-9.47-8.674c-0.311-0.482-1.789-2.145-0.079-0.651    c-3.98-4.36-7.508-7.675-11.133-10.95c-1.818-1.631-3.645-3.271-5.58-5.008c-0.481-0.437-0.97-0.88-1.467-1.332    c-0.249-0.231-0.496-0.452-0.739-0.662c-0.074-0.066,0.094,0.085,0.075,0.069l-0.005-0.003l-0.009-0.006l-0.018-0.013    l-0.043-0.031l-0.096-0.07l-0.199-0.146l-0.384-0.272c-0.503-0.35-0.968-0.572-1.557-0.82c-0.132-0.062-0.264-0.098-0.412-0.149    l-0.468-0.152l-0.094-0.028c0.034,0.009-0.085-0.024,0.074,0.021l-0.009-0.002l-0.02-0.004l-0.036-0.008l-0.069-0.016l-0.27-0.063    l-0.46-0.1c-0.193-0.025-0.398-0.051-0.605-0.077c-0.292-0.021-0.679-0.038-1.024-0.037c-0.343,0.004-0.646,0.005-0.979,0.065    c-0.788,0.097-1.329,0.259-2.061,0.523c-0.149,0.066-0.304,0.135-0.462,0.206c-0.168,0.084-0.339,0.17-0.512,0.257    c-0.165,0.095-0.335,0.192-0.509,0.292c-0.173,0.112-0.291,0.203-0.549,0.388l0.506-0.43c0.148-0.114,0.328-0.234,0.511-0.324    l0.479-0.31c0.153-0.09,0.306-0.181,0.473-0.237c0.667-0.308,1.241-0.548,2.021-0.697c0.344-0.096,0.679-0.123,1.04-0.153    c0.369-0.026,0.78-0.033,1.109,0.085c0.222-0.021,0.443-0.042,0.655-0.01c0.214,0.028,0.444,0.072,0.717,0.124    c0.17,0.017,0.397,0.089,0.657,0.163c0.238,0.066,0.444,0.128,0.661,0.217c0.247,0.1,0.447,0.167,0.657,0.275l0.62,0.32    c0.216,0.132,0.412,0.256,0.626,0.405l0.32,0.222c0.031,0.018,0.15,0.115,0.098,0.06l0.149,0.125l0.6,0.516l4.803,4.214    l-3.409-4.051l7.047,6.209c-3.708-4.211-7.728-7.07-7.867-7.893c0.943,0.738,2.921,2.786,3.174,2.661    c-0.916-0.983-1.638-1.724-2.251-2.324c-0.305-0.3-0.585-0.566-0.865-0.812c-0.173-0.156-0.189-0.152-0.278-0.223l-0.213-0.154    c-0.145-0.101-0.285-0.199-0.424-0.296c-0.145-0.092-0.287-0.183-0.429-0.273l-0.117-0.071c-0.116-0.069-0.088-0.047-0.142-0.077    l-0.213-0.107c-0.287-0.153-0.634-0.318-0.973-0.445c-0.328-0.144-0.746-0.279-1.132-0.395c-0.106-0.032-0.216-0.065-0.328-0.098    c-0.188-0.056-0.23-0.054-0.362-0.086c-0.232-0.05-0.479-0.104-0.738-0.159l-0.007-0.001l0.007,0    c1.427,0.154,3.011,0.653,4.502,1.656c0.374,0.272,0.659,0.424,1.098,0.826c0.313,0.281,0.631,0.566,0.954,0.856    c0.636,0.583,1.29,1.183,1.959,1.796c2.667,2.466,5.535,5.194,8.399,7.952c5.71,5.537,11.47,11.124,15.502,15.035    c1.306,1.194-1.239-0.9-1.532-1.049c3.265,3.217,4.99,5.382,9.191,9.34c2.832,2.236-1.714-2.152-3.693-4.194    c0.536,0.018,1.532,1.045,3.811,3.246c0.141,0.832,12.171,12.416,14.636,15.724c12.073,11.856-1.02-2.808,10.511,9.023    l3.095,3.884c7.086,6.477,16.127,14.976,23.717,22.734l-1.63-1.604c-1.246-0.908,0.43,0.976,1.131,1.85    c5.63,5.968,11.32,10.7,14.438,14.608c0.875,0.78,1.821,1.625,2.824,2.519c0.249,0.226,0.502,0.454,0.759,0.686    c0.233,0.21,0.602,0.559,0.876,0.865c0.59,0.64,1.128,1.364,1.588,2.157c1.864,3.159,2.273,7.534,0.58,11.307    c-1.622,3.789-5.286,6.675-9.313,7.425c-4.016,0.825-8.152-0.438-10.889-2.724c-0.585-0.789-0.036-0.354,1.329,0.494    c1.358,0.839,3.75,1.924,6.565,2.011c2.798,0.142,5.883-0.824,8.03-2.49c2.183-1.63,3.393-3.744,3.846-5.024    c0,0-0.294,0.692-0.913,1.628c-0.619,0.933-1.598,2.079-2.796,2.975c-1.187,0.91-2.555,1.565-3.623,1.897    c-1.067,0.346-1.812,0.439-1.812,0.439c1.822-0.303,3.284-0.966,4.434-1.715c1.153-0.754,2.006-1.599,2.671-2.453    c1.313-1.723,1.979-3.474,2.221-5.55c-0.555,2.409-1.671,4.217-2.897,5.574c-1.234,1.362-2.604,2.331-4.099,3.008    c-1.494,0.669-3.127,1.07-4.976,1.06c-1.835-0.025-3.94-0.454-6.055-1.775c0.387,0.115,0.291-0.007-0.32-0.51    c-0.302-0.257-0.734-0.61-1.251-1.134c-0.438-0.446-0.984-1.002-1.648-1.678l-1.095-0.403c-0.021-0.077-0.286-0.395-1.078-1.231    l-10.388-9.964c2.012,2.307,1.815,2.712,4.439,5.345c-0.737-1.141,1.533,1.049,4.158,3.686c-2.531-2.079,2.374,2.756,2.132,2.886    c-5.264-5.283-11.791-11.716-15.343-15.08l-0.805-1.441c-4.945-5.107-10.431-10.237-13.747-13.739l1.244,0.905    c-5.933-6.127-12.075-11.86-17.118-17.525c-5.742-5.015-12.817-11.483-17.594-15.499c-0.662-0.465-1.884-1.643-3.449-3.241    c-0.776-0.805-1.647-1.708-2.58-2.675c-0.232-0.243-0.468-0.491-0.707-0.741l-0.347-0.365l-0.175-0.194    c-0.239-0.264-0.483-0.534-0.731-0.809c-1.003-1.108-2.147-2.354-3.239-3.466c-1.087-1.108-2.108-2.069-2.739-2.48    c0.033,0.28,0.063,0.532,0.092,0.773c-0.02,0.041-0.066-0.286-0.129-0.863c0.487,0.281,1.747,1.217,2.532,1.784    c-1.208-1.273-2.156-1.98-2.846-2.541c0.085,1.275,0.102,2.046-0.194,1.976c0.034-1.125,0.043-1.874,0.034-2.361    c0.948,0.914,0.263,0.001-0.35-0.845c-0.119,0.161-0.241,0.248-0.315-0.761c0.067,0.05,0.169,0.138,0.298,0.253l-0.327-0.324    c0.019,3.767,0.129,7.74,0.338,9.546c-0.002-2.938,0.209-2.136,0.389-1.49c0.178,0.636,0.324,1.223,0.191-1.518    c0.128,1.192,0.237,2.355,0.326,3.486c0.038,0.545,0.077,1.105,0.117,1.674c0.015,0.272,0.03,0.546,0.046,0.822l0.021,0.656    l0.018,0.875c0.091,4.681,0.092,9.544-0.008,14.078c-0.264-0.089-0.387,1.028-0.496,4.408l0.383,2.727    c-0.068,4.243-0.453-8.205-0.589,0.337c0.655,8.789-0.372,26.467,0.839,30.314c-0.478,6.699-0.484-12.747-1.07-2.651    c-0.438-5.873,0.064-13.975-0.541-15.911c0.173,5.756-0.511,2.101-0.517,5.815l0.373,6.42l0.022-1.42    c0.571,10.773,0.297,27.842,0.395,41.6c0.609,11.654,1.488,19.676,1.422,33.654c-0.356-4.126-0.344,11.609-0.998,2.81    c-0.315,6.468,0.059,12.854,0.322,12.98c0.09-5.691,0.084-2.001,0.215-6.794c0.32,3.235,0.305,10.694,0.096,13.758    c0.023-1.42-0.037-0.88-0.139-1.193c-0.215,6.795,0.318,3.256,0.453,8.167c-0.449,1.558-0.121,10.842-0.352,15.326l0.639,6.502    c-0.42-3.572-0.154,6.231-0.541,7.256c0.297,4.663,0.816,8.572,0.703,15.673c-0.219-2.933-0.316,6.479-0.742,6.603    c-0.408,12.159,1.162,20.137,0.553,31.652c-0.1-0.357-0.381-2.683-0.487,0.685c0.119,2.65,0.069,7.293,0.115,10.13l-0.013-0.09    c0.005,0.056,0.008,0.09,0.013,0.148c0.022,1.389,0.075,2.263,0.179,2.297c0.418,4.855,0.844,7.358,1.197,16.914    c0.488-0.701,0.299-8.769,0.143-12.262l-0.482-3.02c0.736-2.885-0.127-8.617,0.121-10.814c0.863,5.732,0.65,22.241,1.182,32.145    c0.68-6.038,0.785-19.174,0.703-30.635l-0.293,5.048l-0.009-5.997l-0.519,5.805c0.09-5.681-0.043-10.591-0.014-15.725    c0.01,6.011-0.662,8.353-0.557,4.951c0.479-6.698-0.313-6.98-0.283-12.101c-0.044,2.851-0.053,6.558-0.332,4.168    c0.586-10.096,0.205-12.822,0.83-22.004c-0.813,1.139-0.08-11.471-0.747-12.847l-0.067,4.261l-0.492-9.036    c0.662-8.339,0.676,7.382,1.145-5.307c0.082-11.708-0.773-11.405-0.836-20.61c0.481,3.032,0.895,10.333,0.881,17.76l0.232-4.497    c0.279,2.379,0.221,12.654,0.192,17.781c-0.554-8.474-0.17,3.964-0.603,7.819c0.467,0.708,0.393-4.732,0.768,1.691    c-0.01-6.018-0.049-6.897,0.127-14.552c-0.211,16.546,1.619,14.878,1.227,29.32c-0.211-6.657-0.672,2.321-0.898,3.122    c0.057,3.133,0.167,9.487,0.283,12.101l0.674-2.365c0.291,8.414-1.135,11.337-0.441,21.048c0.404,1.262,0.137-8.542,0.215-6.795    c0.424,13.287-0.662,18.073-1.168,29.871c0.201,0.667,0.629,0.529,0.984,4.656c-0.404-1.297-0.611,1.757-0.906-2.886    c-0.172,3.944,0.125,8.617,0.283,12.098c0.236-8.212,0.58,3.359,0.822,4.872c-0.068,4.254-0.402-1.296-0.52-3.913    c-0.109,3.415-0.705,7.472-0.1,9.411c-0.426,0.135-1.119-9.545-1.23-15.876l-0.068,4.268c-0.217-2.94-0.156-3.49-0.09-7.727    c-0.33,4.147-0.693,3.738-0.997,2.771c0.062-0.543,0.101,0.303,0.161-0.217c0.109-3.411-0.008-6.027-0.234-5.236    c-0.571-3.067-0.357,4.731-0.643,7.042c0.039,1.747,0.077,3.493,0.115,5.206l1.836,17.723c0.215,7.571-0.225,10.976-0.502,16.663    l0.49,1.562c-0.051,6.588-0.205,12.805-0.828,8.583c0.164-0.237,0.125-1.107,0.148-2.538c-0.066-0.189-0.113-0.52-0.152-0.936    c-0.035-0.136-0.056-0.214-0.086-0.326c0.167,7.056,0.271,11.46,0.281,11.866c-0.713-11.98-0.893-0.599-1.764-2.603l0.285,12.1    c0.275-7.334,0.426-0.134,0.543,2.47c-0.122,0.18-0.184,0.878-0.207,1.892c-0.008,0.564-0.017,1.217-0.026,1.928    c-0.037,0.916-0.161,1.91-0.404,2.923c-0.48,2.025-1.487,4.091-2.825,5.724c-1.327,1.645-2.948,2.846-4.321,3.551l0.348-0.309    c-1.247,0.675-2.841,1.295-4.652,1.598c-1.809,0.307-3.807,0.29-5.792-0.171c-1.981-0.452-3.902-1.352-5.498-2.565    c-1.605-1.205-2.891-2.705-3.795-4.228c0.036,0.186-1.432-1.563-2.25-4.388c-0.208-0.699-0.36-1.456-0.465-2.23l-0.067-0.575    l-0.055-0.385c-0.037-0.257-0.074-0.513-0.11-0.766c-0.151-1.009-0.294-1.968-0.407-2.724c-0.029,1.051-0.051,1.893-0.07,2.562    c-0.029,0.721-0.05,1.257-0.065,1.647c-0.014,1.158,0,1.465-0.073,1.38c-0.152-0.163-0.343-1.92-0.469-1.368    c0.003-0.471,0.008-1.13,0.013-1.695c-0.003-0.522-0.017-0.959-0.048-1.051c-0.139-1.203-0.186,1.634-0.348,1.871    c0.009,0.387,0.026,1.558,0.149,2.448c0.114,0.938,0.317,1.868,0.59,2.771c0.542,1.81,1.392,3.504,2.464,4.983    c2.135,2.977,5.164,5.057,8.24,6.055c3.096,1.022,6.101,0.975,8.518,0.417c2.439-0.556,4.259-1.609,5.402-2.513    c-1.947,1.01-3.688,1.699-5.582,2.136c-1.888,0.412-3.946,0.573-6.357-0.063c1.771,0.281,3.666,0.326,5.659,0.002    c1.991-0.321,4.071-1.029,6.023-2.228c1.942-1.201,3.767-2.887,5.152-5.079c1.39-2.177,2.321-4.891,2.426-7.804    c0,0,0.031-0.235,0.077-0.589c0.039-0.228,0.09-0.532,0.142-0.837c0.103-0.608,0.205-1.217,0.205-1.217l-0.222-7.473    c0.217,3.119,0.645,1.242,0.727,9.082c0.387-1.001-0.088-7.774,0.043-12.575l-0.545-2.455c0.303,0.945,0.361-9.329,0.775-2.029    l0.445,11.877l0.373-3.301c0,0,0.025,2.511,0.052,5.021c0.013,1.255,0.026,2.51,0.036,3.451c0.007,0.336,0.006,1.195-0.03,1.655    c-0.031,0.487-0.062,0.766-0.062,0.766s0.013-0.265,0.014-0.659c0.002-0.198,0.004-0.428-0.009-0.673    c-0.005-0.123-0.011-0.249-0.016-0.378c-0.006-0.128-0.013-0.275-0.022-0.326c-0.07-0.593-0.141-1.185-0.141-1.185    c0.006,0.252,0.011,0.497,0.017,0.736l0.007,0.354c0.001,0.158,0.001,0.313,0.001,0.468c0.001,0.789-0.065,1.539-0.158,2.242    c-0.19,1.41-0.541,2.632-0.934,3.677c-0.8,2.092-1.759,3.479-2.556,4.467c-1.649,1.952-2.605,2.465-3.475,3.021    c-0.907,0.504-1.778,1.087-4.094,2.029c-1.163,0.443-2.722,0.953-4.874,1.172c-2.12,0.196-4.924,0.136-8.189-1.146    c-2.07-0.702-4.058-1.856-5.816-3.515c-1.748-1.656-3.294-3.83-4.258-6.556c-0.485-1.357-0.815-2.849-0.932-4.429    c-0.037-0.396-0.041-0.794-0.051-1.199c-0.001-0.237-0.002-0.479-0.003-0.722c0-0.473,0-0.956,0-1.454    c0.021-1.991,0.044-4.198,0.071-6.687c0.147,7.2,0.465,0.739,0.847,3.449c0.275-7.345-0.269-9.824-0.525-13.634    c0.348-1.871,0.633-3.202,0.582,3.359c0.729,0.821-0.126-8.631,0.625-9.229c-0.022-21.735-2.426-17.417-1.487-42.824l0.303,0.952    c-0.377-16.134-0.016-25.442-0.254-40.383l0.771-11.764c0.118,2.631,0.694,9.704,1.065,6.403    c-0.779,5.722-0.507,11.794-0.925,17.959c0.202,0.63,0.349-1.881,0.474-2.974c-0.007,3.721-0.356,5.588-0.221,10.501    c0.161-0.237,0.354-5.598,0.449-1.558l-0.479,6.685c0.229,8.944,1.148,4.405,0.928,14.91c-0.428-1.953-1.047-5.942-1.149-10.01    c-0.093,4.8-0.259-6.399-0.515-2.019c0.634,6.915,0.132,10.254,0.529,19.448c-0.088-1.079-0.212-1.364-0.251-3.627l-0.268,13.342    c0.371-3.302,0.407,11.021,0.958,9.779c0.229-14.219-0.104-10.041,0.208-26.244c0.125,4.588,0.686,10.502,1.201,13.273    c-0.021,0.141-0.039,0.375-0.049,0.873c0.545,2.477,0.691-0.048,1.645,0c-0.678-7.396-0.12-12.341-0.51-21.064    c-0.522-1.641-0.666,5.062-0.531,9.397l-0.346-7.686l0.24,1.514l0.175-19.508c0.028,3.697,0.331,4.952,0.559,6.881    c0.021-2.517,0.158-5.01,0.31-7.661c-0.498,0.558-0.85,0.206-0.84-2.249c0.119-12.551,0.566-19.527,1.135-24.159    c-0.012-0.481-0.024-1.024-0.035-1.462c-0.51,2.104-0.917-8.912-1.439-12.802c0.527,0.192,0.316-6.468,0.586-10.085    c-0.605-1.926-1.441,0.643-1.937,5.048c0.554,8.486,0.559,4.755,1.344,8.765l0.524,13.613l-0.483-3.043    c-0.213,6.795,0.425,13.321-0.204,12.822c-0.419-3.59-0.165-9.518-0.585-13.08l-0.23,4.494c-0.618-7.93,0.595-4.064,0.164-13.665    c-0.534,3.531-0.038-0.87-0.396-4.982c-0.372,3.301,0.152,16.904-0.756,14.02c-0.396-4.993,1.064-16.798,0.162-23.403l0.103,0.323    c0.117-9.745-0.401-13.17-0.728-16.818c0.294-4.147-0.12-9.872-0.153-14.366l0.264,0.109l-0.11-6.341    c0.481,3.02-0.013,7.431,0.057,12.878l0.491-0.678c-0.583,6.279,0.303,10.468,0.726,15.337c-0.425-7.088,0.12-20.013-0.839-21.678    l0.495-4.384l-0.179-2.098c0.372-3.267,0.955,0.068,1.066,6.402c-0.124,1.101-0.186,1.65-0.288,1.317    c0.219,2.94,0.6,5.64,0.487,12.754l-0.26-3.797c-0.035,8.858,0.154,16.911,0.637,19.944c0.205-12.788,0.248-25.363,0.226-37.371    c-1.109-3.541-1.731-7.743-2.762-9.549c-0.19-8.057-0.332-18.995,0.045-25.992l0.203,0.643c0.105-3.415,0.05-6.561-0.067-9.185    c0.271-3.607,0.545,2.469,0.691-0.045l-0.346-11.54c0.467,0.711,0.469,10.422,0.502,15.033c-0.04-0.87-0.117-2.627-0.18-2.063    c-0.192,5.364,0.603,15.357-0.072,17.702c0.117,2.614-0.498-5.309-0.533,3.539c-0.254,5.924,0.352,7.854,0.554,8.473    c0.265,0.096,0.362-9.298,0.681-6.039c-0.033-4.611-0.374-6.447-0.119-12.344c0.032,4.57,0.568,10.777,0.158,13.211    c0.493,9.036,1.733,7.74,1.801,3.479c-0.389,1.015-0.479-16.484-0.985-4.635c-0.5-5.323-0.504-15.048-0.816-22.011l0.1,0.316    l-0.125-8.645c0.139,1.217,0.257,3.831,0.52,3.917l-0.708-11.974c0.476,6.74,0.33-4.178,0.54-7.245    c-0.404-1.282-0.7-5.959-0.932-1.472c-0.293,5.044,0.219,2.937,0.25,7.524l-0.638-6.496l0.063-0.557l-0.522-3.91    c0.037-8.848,1.213,3.865,0.703-7.472l-0.711,1.475c0.105-13.125,0.905-29.981,0.577-39.255c0.404,2.558,1.055,3.686,1.44,0.168    c-0.123,3.999-0.097,12.035-0.03,17.771c-0.125,1.104-0.841-7.166-0.688-13.396c-1.164,3.019,0.703,15.673-0.477,16.405    c-0.412,15.876,1.137,11.843,0.444,25.318c0.527,0.186,0.257,3.831,0.722,4.539c0.86-3.989-0.029-18.015,0.271-26.759    c0.038,0.856,0.117,2.579,0.217,2.916c0.154-6.251,0.037-8.833-0.158-13.201l-0.063,0.55c-0.515-7.63,0.394-4.721,0.625-9.212    c-0.078-1.74,0.074-7.985-0.313-6.98l0.5-8.132l-0.588,0.392c-0.034-4.587,0.354-5.591-0.004-9.749l-0.526-0.193l-0.183,11.392    c-0.172-5.773-0.504-1.609-0.615-7.953c0.576,7.087,0.292-5.014,0.781-5.712l-0.296-4.666l0.14,1.193    c0.271-3.662-0.196-4.36-0.127-8.634c-0.293,5.041-0.664,8.342-0.29,14.765c-0.296-4.676-0.624-13.95-0.642-16.227    c-0.221-4.911,0.181-8.339,0.24-12.933c0.211,8.816,1.597-3.088,1.218,14.58c-0.101-0.327-0.078-1.757-0.016-2.311    c-0.673,2.355,0.042,10.591,0.299,14.421c0.388-0.987,0.484,3.019,0.698-3.772c-0.248,2.229-0.864-5.722-0.546-12.183l0.829,1.138    l0.098-9.408l0.039,0.88c0.267-1.769,0.241-4.278,0.188-7.155c-0.021-1.438-0.044-2.969-0.067-4.544    c0.004-0.788,0.009-1.587,0.013-2.392l0.029-1.113l0.048-0.735c-0.148-1.382-0.163-4.675-0.25-6.901    c-0.043-1.108-0.104-1.925-0.209-2.062c-0.105-0.146-0.253,0.416-0.47,1.807c0.104-0.785,0.161-1.501,0.184-2.135    c-0.773,0.709-1.661,1.72-2.495,2.709c-0.843,0.999-1.631,1.974-2.442,2.848c0,0,0.631-0.512,1.262-1.023    c0.573-0.454,1.147-0.907,1.147-0.907c-1.494,1.913-1.846,2.339-2.223,2.853c-0.175,0.243-0.33,0.481-0.517,0.819    c-0.093,0.168-0.193,0.36-0.298,0.579c-0.048,0.106-0.101,0.222-0.158,0.348c-0.025,0.06-0.051,0.122-0.078,0.188    c-0.028,0.066-0.013,0.091-0.206,0.326c-0.695,0.375-2.006,1.422-1.1,0.178c-8.913,8.852-21.764,21.371-26.495,27.062    c-6.287,6.235-7.959,6.527-16.473,15.583c-1.768,1.933,1.99-0.894-3.995,4.754c-0.435,0.348,5.166-6.034-1.266,0.49    c-4.162,5.063-11.084,10.585-16.694,16.978c-1.665,1.502-3.857,3.644-5.534,5.222c-0.427,0.395-0.819,0.757-1.158,1.07    c-0.5,0.457-0.95,0.808-1.304,1.044c-0.709,0.473-0.991,0.526-0.577,0.089c0.52-0.384,1.039-0.8,1.522-1.27    c0.347-0.339,0.701-0.684,1.06-1.034c0.68-0.673,1.376-1.363,2.074-2.055c1.381-1.396,2.767-2.794,4.029-4.07    c2.508-2.568,4.493-4.675,4.948-5.302c-0.478,0.909,3.778-3.361,0.246,0.503c7.856-7.316,4.703-5.145,11.693-11.766    c0.326-0.612-3.894,3.104-5.225,4.69c-0.519-0.456,13.184-13.655,6.55-8.19c-7.315,7.23-8.458,10.406-15.273,16.195    c2.23-2.823,6.432-6.523,9.13-10.245l-5.375,4.983l-3.407,4.111l0.152-0.295c-4.797,4.351-6.787,6.591-8.57,8.798    c-0.442,0.555-0.878,1.102-1.339,1.681c-0.231,0.289-0.469,0.586-0.717,0.896c-0.13,0.159-0.264,0.321-0.4,0.487    c-0.193,0.21-0.385,0.434-0.604,0.643c-0.855,0.854-1.938,1.702-3.341,2.41c-1.399,0.706-3.133,1.266-5.201,1.398    c2.403-0.021,3.475-0.338,3.864-0.287c0.39,0.018,0.095,0.273-0.301,0.531c-0.394,0.258-0.892,0.502-0.808,0.601    c0.079,0.079,0.782,0.124,2.673-0.535c-2.836,1.195-5.782,1.427-8.312,1.052c-2.542-0.38-4.675-1.347-6.231-2.414    c-1.566-1.069-2.578-2.195-3.172-3.033c-0.595-0.841-0.788-1.391-0.661-1.503c1.653,2.193,3.393,3.373,4.746,4.123    c1.375,0.73,2.392,1.03,3.083,1.201c1.394,0.31,1.517,0.178,1.583,0.107c0.067-0.095,0.092-0.158,1.268-0.122    c0.586,0.006,1.465,0.027,2.76-0.141c1.283-0.178,3.02-0.539,5.046-1.641c-1.416,0.522-0.52-0.167-0.539-0.411    c-0.006-0.129-0.219-0.128-1.025,0.098c-0.806,0.19-2.235,0.697-4.755,0.675c-1.418,0.04-2.433-0.139-3.134-0.269    c-0.702-0.151-1.1-0.237-1.299-0.28c-0.403-0.069-0.022,0.152,0.379,0.35c0.402,0.194,0.823,0.358,0.419,0.292    c-0.2-0.041-0.61-0.131-1.307-0.39c-0.692-0.264-1.683-0.697-2.911-1.57c-0.536-0.473-1.024-1.018-0.65-0.816    c-2.136-1.701-2.936-3.221-3.604-4.81c-0.32-0.813-0.592-1.684-0.801-2.768c-0.204-1.083-0.369-2.386-0.258-4.064    c0,0-0.021,0.399-0.009,0.796c0.001,0.396,0.038,0.791,0.038,0.791c0.136-2.046,0.593-3.566,1.06-4.803    c0.488-1.231,0.994-2.198,1.581-3.072c0.295-0.436,0.604-0.854,0.96-1.254c0.152-0.169,0.307-0.341,0.466-0.518    c0.145-0.152,0.292-0.309,0.447-0.471c0.624-0.642,1.372-1.349,2.389-2.204c-1.86,1.136,2.217-2.811,4.313-5.358    c-1.966,1.829-3.593,3.127-5.661,4.908c-0.513,0.45-1.057,0.926-1.646,1.442c-0.291,0.262-0.593,0.535-0.908,0.819    c-0.127,0.11-0.384,0.363-0.611,0.591c-0.228,0.234-0.452,0.483-0.674,0.744c-1.754,2.074-3.319,5.181-3.361,9.161    c0.209,0.954,0.383,1.125,0.592,1.845c0.104,0.361,0.245,0.847,0.467,1.617c0.242,0.762,0.591,1.808,1.335,3.161    c0,0-0.295-0.536-0.63-1.387c-0.335-0.85-0.685-2.026-0.842-3.234c-0.168-1.207-0.16-2.432-0.062-3.341    c0.09-0.911,0.233-1.506,0.233-1.506c-0.356,2.078-0.233,3.706,0.171,5.555c0,0,0.083,0.57,0.304,1.409    c0.223,0.837,0.627,1.931,1.182,2.955c0.544,1.03,1.246,1.969,1.824,2.622c0.577,0.656,1.016,1.042,1.016,1.042    c-2.248-1.938-3.188-3.682-3.786-4.775c-0.578-1.123-0.815-1.692-1.014-2.041c-0.2-0.352-0.328-0.498-0.518-0.874    c-0.166-0.38-0.428-0.993-0.588-2.348c-0.044-2.938,0.634-4.951,1.209-6.396c0.613-1.446,1.187-2.364,1.719-3.133    c0.272-0.381,0.533-0.729,0.822-1.067c0.141-0.173,0.292-0.339,0.452-0.51c0.134-0.141,0.273-0.286,0.42-0.44    c0.471-0.479,1.057-1.055,1.933-1.884c0.077,0.762,11.178-9.743,17.695-15.719c-0.976,0.965-2.235,2.209-2.915,2.882    c-4.272,4.802,3.472-2.772,3.755-2.824l3.097-3.517c-0.593,0.651-1.356,1.61,0.114,0.259c4.398-4.554,3.722-4.71,8.112-9.258    c0.567-0.104-2.861,4.025,0.04,1.367c1.16-0.756,4.748-3.271,10.481-9.413c0.332-0.509,1.822-2.098,3.568-3.92    c-0.235,0.261-0.538,0.581-0.633,0.709l4.196-3.692c-2.966,3.754-6.982,6.609-9.964,10.383l0.088,0.662    c-2.627,2.63-6.035,6.361-7.481,8.197c4.071-3.943,4.816-4.886,9.22-9.444c0.864-0.391-2.116,2.941-2.545,3.422l0.455-0.882    c-5.655,5.034-7.631,8.349-14.354,14.931c-1.02,0.989-0.434,0.349-0.282,0.054c-5.022,5.749-10.804,10.534-15.56,16.248    l1.509-1.904c-1.693,1.861-4.225,4.629-7.085,7.84c-1.33,1.627-2.153,3.812-2.127,6.055c0.01,2.24,0.882,4.481,2.386,6.108    l0.205-0.078c-0.243-0.419,0.097,0.042,0.747,0.662c0.636,0.64,1.66,1.34,2.441,1.717l-0.01,0    c2.022,0.778,4.229,0.706,6.023,0.037c0.902-0.33,1.702-0.812,2.383-1.364c0.338-0.281,0.646-0.58,0.929-0.891    c0.345-0.377,0.682-0.746,1.009-1.105c-0.239,0.2-0.496,0.413-0.767,0.639c-0.132,0.113-0.269,0.229-0.408,0.349    c-0.116,0.092-0.235,0.187-0.357,0.283c-0.496,0.372-1.059,0.738-1.7,1.044c-0.236,0.196-0.841,0.508-1.641,0.735    c-0.8,0.222-1.794,0.324-2.714,0.251c-1.853-0.125-3.282-0.94-2.957-0.438c-1.501-0.892-3.211-2.516-4.011-4.541    c-0.854-2.004-0.702-4.204-0.208-5.382c-0.399,1.101-0.454,1.503-0.527,1.389c-0.06-0.108-0.054-0.715,0.107-1.49    c0.161-0.774,0.516-1.695,0.933-2.431c0.414-0.736,0.859-1.292,0.962-1.507c1.568-1.08,5.842-5.879,5.652-5.03    c0.867-0.695-2.162,1.723-3.647,3.604c-3.835,4.451,7.858-7.314,2.988-1.86c6.333-6.796,15.085-15.346,21.553-22.422l-3.926,3.656    c3.059-2.962,10.11-10.159,10.802-10.532c-2.198,2.276-4.816,4.885-7.612,7.813c0.234,0.512,6.874-6.878,7.423-6.966l7.693-8.928    l-3.661,3.619c2.066-2.519,9.951-9.856,15.645-15.444c-2.726,3.747-8.498,8.523-14.228,14.663    c-4.118,4.504,3.155-2.169-0.803,2.032c1.177-0.938,3.825-3.615,5.01-5.056l1.702-1.517c-3.176,4.104-11.44,12.16-16.473,17.991    c0.427-0.526,0.79-0.995,0.887-1.199c-4.362,4.002-8.603,8.257-12.558,12.457c2.303-2.01,3.058-2.963,4.236-4.25    c0.268-0.039-3.532,3.86-4.861,5.443c3.928-3.658,0.981-0.434,3.458-2.757c-2.36,2.581-4.393,4.55-7.452,7.511    c-1.736,1.385,1.049-1.533,0.501-1.444c-2.962,3.238-4.929,4.106-9.202,8.908c3.066-2.969,2.793-2.447,1.514-0.903    c-0.64,0.772-1.532,1.799-2.383,2.773c-0.512,0.633-0.819,1.279-0.956,1.689c-0.018-0.011,0.423-0.711,0.441-0.699    c-0.56,1.506-0.685,2.666-0.961,3.768c-0.174-1.006,0.05-2.022,0.268-2.658c0.224-0.637,0.375-0.976,0.051-0.812    c-0.674,1.237-0.93,2.764-0.483,4.293c0,0-0.149-0.334-0.253-0.695c-0.105-0.359-0.165-0.738-0.165-0.738    s-0.022,0.457,0.088,1.128c0.104,0.67,0.392,1.541,0.877,2.295c0.474,0.762,1.145,1.399,1.693,1.782    c0.551,0.384,0.963,0.557,0.963,0.557c0.581,0.094,1.346,0.122,2.038-0.035c0.695-0.144,1.292-0.457,1.622-0.781    c0.696,0.021,1.509-0.293,2.123-0.839c0.158-0.131,0.298-0.284,0.435-0.434c0.269-0.293,0.535-0.583,0.793-0.864    c0.518-0.57,1.008-1.11,1.447-1.594l-0.757,0.959c3.783-3.37,11.568-11.501,12.025-12.386c2.747-2.365-16.702,19.424,1.163,1.163    c6.864-6.868,3.595-4.959,7.278-9.115c0,0-0.151,0.291,0.282-0.053c3.055-2.956,3.097-3.517,5.458-6.097    c-1.905,1.698-4.521,4.305-5.264,5.245c0.619-1.189,6.284-6.233,8.361-8.761c-2.548,3.428,5.977-5.641,3.883-3.096    c6.259-5.693,12.301-12.431,15.116-15.895c4.608-3.503,7.039-7.185,13.876-13.512c-1.028,0.995-2.781,2.914-4.256,4.27    c-3.401,4.102,7.004-6.637,1.549-0.542c1.181-1.29-0.098-0.273-1.31,1.048c-2.176,2.254-4.108,4.495-3.392,4.097l5.674-5.054    l-1.788,1.957l8.569-7.711c0.151-0.292-0.7,0.384-1.135,0.732c1.618-1.577,3.275-3.192,4.951-4.826    c2.194-2.188,4.415-4.401,6.634-6.614c4.693-4.729,9.387-9.458,13.86-13.966c0.006,6.176,0.013,12.001,0.018,17.304    c0.349,0.441,0.562,3.298,0.696,7.675c0.045,1.748,0.097,3.754,0.152,5.923c0.026,1.832,0.054,3.802,0.082,5.829    c0.083,8.106,0.097,17.12,0.526,21.846c-0.401-2.534-1.108-3.92-1.399-2.352c-0.059-2.108-0.623-6.423-0.506-11.203    c0.225-0.764,0.479-6.667,0.735-2.868c-0.159-13.211-0.613,1.788-1.133-2.111c0.136,14.638,0.954,23.225,1.283,32.464    l-0.165,0.234l0.313,6.977c0.093-5.701,0.885-5.419,0.607,1.929l-0.039-0.894c-0.333,4.191,0.059,12.912,0.007,19.459l0.458,4.439    c-0.052,6.557-0.905,6.839-1.416,8.971c-0.06,10.278,0.639,16.213,1.055,23.513c-0.372,3.301-0.46,18.696-0.911,10.539    c0.328,9.271,2.32,7.4,1.216,23.3l-0.359-4.126c0.075,15.202,0.789,36.883,0.411,43.887c-1.289-5.608-1.312,18.988-2.575,21.691    c0.289-0.754,0.385,4.958,0.539,5.79c-0.148,1.252-0.292,3.336-0.031,5.547c0.254-5.929,1.312,4.167,0.802-7.166    c0.866,5.735,1.543,13.125,1.5,25.689l-0.527-0.189l0.16-9.94c-0.389,1.004-0.359-4.112-0.539-6.21    c-0.296,18.492-1.234-2.421-1.165,16.484c0.342,1.826,0.201,0.643,0.336,5.557c-0.018-2.311-0.381-2.727-0.388,0.997l0.421,3.576    c-0.879,6.603-0.572-10.928-1.19-5.295c-0.414-7.301-0.635-19.944-1.308-17.589c-0.244,11.922,1.26,10.725,0.955,23.19    l-0.287,1.327c0.195,4.384,0.659,5.093,0.939,7.492c-0.163,0.217-0.285,1.331-0.332,4.147c0.678,7.403,0.811,12.316,1.55,19.146    c-0.555-18.176,0.515-15.539,0.021-34.3c0.219,2.94,0.379,16.147,1.107,16.959l-0.528-0.175c0.274,6.1,0.546,12.196,0.372,19.857    l-0.297-4.676c0.367,10.154-0.801,16.88,0.077,24.892c0.047-2.83,0.031-5.127-0.049-6.874c0.235,5.227,0.182,11.784,0.093,17.465    l0.871,11.753c-0.262-0.103-0.277,7.346-0.695,3.752c-0.401,8.462,0.385,12.451,0.516,17.341c-0.561,8.665-0.25-7.507-0.979-8.355    c-0.122,5.969-0.128,12.117-0.044,17.615c0.006,0.344,0.011,0.685,0.017,1.023l0.009,0.505l0.017,0.322    c0.029,0.382,0.097,0.748,0.198,1.094c0.2,0.692,0.532,1.306,0.933,1.812c0.809,1.021,1.86,1.569,2.717,1.757    c-1.141-0.58-1.475-1.144-1.353-1.177c0.009,0.118,0.491,0.584,1.22,0.908c0.721,0.334,1.677,0.455,2.365,0.389    c0.025,0.028,0.848-0.47,0.826-0.483c1.034-0.176,1.475-0.44,1.509-0.306c0.028,0.104-0.365,0.564-1.313,0.97    c1.123-0.258,2.174-1.128,2.8-2.184c0.321-0.524,0.552-1.085,0.714-1.65c0.083-0.282,0.151-0.567,0.212-0.857l0.078-0.438    c0.016-0.046,0.026-0.218,0.039-0.351l0.044-0.415c0.017,0.351,0.034,0.707,0.053,1.068c0.008,0.255-0.02,0.51-0.055,0.767    c-0.078,0.511-0.245,1.02-0.49,1.495c-0.49,0.955-1.314,1.749-2.216,2.222c-0.903,0.481-1.862,0.652-2.71,0.639    c-0.849-0.009-1.535-0.191-2.049-0.333c0.994,0.369,1.945,0.432,2.78,0.35c0.827-0.089,1.532-0.319,2.15-0.625    c1.23-0.621,2.13-1.505,2.742-2.636c0.304-0.57,0.52-1.216,0.615-1.962l0.026-0.285c0.007-0.153,0.014-0.308,0.02-0.465    c0.012-0.317,0.023-0.643,0.035-0.976c0.019-0.666,0.038-1.365,0.058-2.105c0.063-2.964,0.068-6.591-0.041-11.42    c0.164-0.237,0.483,3.033,0.488-0.688c-0.127-8.621-0.707-2.252-1.088-4.944c0.213,6.636,0.004,9.724-0.428,13.575l-0.279-1.771    c0.145-0.269,0.152-4.437,0.293-5.664l-0.567-1.072c0.628,0.495,1.105-6.173,0.87-11.413c-0.455,5.296-0.431,3.865-1.145,5.306    c-0.678-7.369,0.664-8.314-0.053-16.574c0.201,0.619,0.352,7.83,0.506,1.6c0.027-5.158-0.461-4.471-0.617-7.93    c0.523,3.896,0.911,2.896,1.531,7.118c0.066,9.163-0.007,3.696,0.221,12.653l0.442-7.582c0.085,7.765,0.599,5.646,0.798,6.286    c0.532-13.26-0.793-9.992-0.656-18.523c-0.358-4.113-0.076,7.991-0.451,1.558c0.076-7.978-0.341-1.819-0.568-10.773l0.24,1.499    c0.311-2.737-0.072-5.443-0.125-8.61c-0.158-3.483-1.816,3.944-1.852-10.377c0.146,0.701,0.238,0.959,0.299,0.959l4.391,13.971    c-0.01-14.511,0.111-31.232,0.406-48.037c0.857-3.958,0.707,11.994,1.094,10.966l-0.176,7.665    c-0.363-0.431-0.111-16.059-0.755-9.137c0.261,13.534-0.157,19.676,0.593,32.516c0.861-3.989-0.152-16.911,0.513-25.264    c-0.056,3.508,0.038,6.468,0.161,9.343c0.113-7.844,0.233-16.237,0.361-25.16l-0.207-2.005c-0.098,6.014-0.17,10.175-0.201,10.711    c0.074-7.974-0.401-14.7-1.031-15.229l-0.021,1.417l-0.197-2.882C265.043,341.679,265.083,339.808,265.123,337.948z     M290.24,78.123c0.386,0.3,0.705,0.521,0.967,0.658C290.936,78.638,291.124,78.912,290.24,78.123z M244.766,447.3    c-0.024,2.671-0.049,5.348-0.073,8.021c0.035,3.015,1.361,5.995,3.563,8.056c2.18,2.086,5.232,3.232,8.228,3.113    c3.004-0.082,5.928-1.422,7.953-3.572c-1.937,1.852-4.399,2.857-6.681,3.065c-2.292,0.219-4.381-0.313-5.962-1.135    c-1.589-0.83-2.69-1.907-3.384-2.835c-0.696-0.934-1.027-1.701-1.148-2.119c-0.12-0.42-0.054-0.49,0.204-0.166    c0.267,0.315,0.737,1.04,1.716,1.977c0.975,0.91,2.534,2.072,4.918,2.552c1.182,0.229,2.564,0.264,4.025-0.08    c1.457-0.334,2.993-1.079,4.318-2.318c0,0,0.335-0.339,0.624-0.713c0.297-0.368,0.546-0.768,0.546-0.768    c-1.109,1.483-3.206,3.211-6.01,3.672c-1.381,0.244-2.896,0.167-4.331-0.266c-1.434-0.437-2.783-1.238-3.855-2.301    c-0.929-0.775-2.283-2.274-2.962-4.483c-0.361-1.09-0.427-2.345-0.549-3.597c-0.12-1.253-0.242-2.52-0.36-3.744    c-0.249-2.448-0.48-4.726-0.648-6.381c-0.179-1.654-0.307-2.685-0.343-2.638c-0.348,1.87,0.032,4.597-0.074,7.998L244.766,447.3z     M246.849,439.738c0.139-6.028-0.137-4.656-0.385-5.591c0.031,2.121,0.063,4.239,0.094,6.334    C246.621,439.679,246.709,439.284,246.849,439.738z M246.217,434.508c-0.006,0.678-0.018,1.256-0.051,1.558L246.217,434.508z     M266.099,389.669c0.007,0.268,0.009,0.364,0.015,0.618c0.02-1.423,0.038-2.851,0.059-4.339    C266.132,386.525,266.102,387.626,266.099,389.669z M265.49,401.903l0.455,1.431c0.017-1.328,0.034-2.683,0.052-4.068    C265.791,399.722,265.613,400.201,265.49,401.903z M263.997,441.226c0.546,2.479,0.569,10.784,1.199,11.293    c0.161,0.529,0.224-1.218,0.274-3.178c0.017-2.187,0.034-4.521,0.053-6.997c-0.092-0.086-0.177-0.578-0.259-1.399    c-0.079,2.444-0.235,4.078-0.622,3.088c0.844-6.286-0.6-5.633-0.383-12.428C263.816,429.443,263.82,439.167,263.997,441.226z     M172.732,153.895c-0.175,0.098-0.744,0.467-1.527,1.001l3.165-3.604c6.134-5.94,11.609-10.137,16.494-16.121    c2.682-2.405,4.335-3.475,5.876-4.535c-1.263,1.227-2.45,2.369-3.458,3.302C178.852,149.978,184.49,141.031,172.732,153.895z     M241.985,86.21c-0.589,0.644-0.834,1.035-0.834,1.035c1.514-1.695,2.997-3.355,4.33-4.849c0.215,3.308,0.392,6.848,0.537,10.402    c0.066,1.828,0.13,3.604,0.193,5.326c0.05,1.764,0.099,3.473,0.146,5.125c0.167,6.517,0.222,12.128,0.202,16.679    c0.458-1.994,0.813-11.22,1.002-15.601l0.521,3.882l-0.41,2.424l0.474,6.74c0.351-1.884,0.278-7.328,0.547-10.966    c-0.025-0.079-0.082-0.867-0.158-2.054c-0.037-0.594-0.08-1.288-0.127-2.043c-0.046-0.845-0.096-1.759-0.147-2.699    c-0.205-4.28-0.437-8.656-0.598-10.406l-0.36,11.216c0.142-2.863,0.031-16.756-0.099-22.188c-0.143,0.149-0.243,0.252-0.339,0.353    c-0.045,0.095,0.034,0.069,0.219-0.062c-0.121,1.229-0.241,3.727-0.268,5.89c-0.028,2.167,0.036,4.07,0.282,4.278    c-0.194,0.809-0.292-1.488-0.393-2.975c-0.102-1.514-0.207-2.176-0.415,1.375c-0.108-1.799-0.165-3.911-0.186-6.205    c-2.357,2.398-4.788,4.77-7.059,6.947c-2.327,2.198-4.42,4.176-5.887,5.563c0,0-0.264,0.033-0.527,0.066    c-0.276,0.045-0.553,0.091-0.553,0.091c-0.303,0.287-0.582,0.549-0.838,0.792c-0.223,0.219-0.427,0.42-0.615,0.605    c-0.37,0.375-0.666,0.697-0.915,0.985c-0.498,0.577-0.808,1.021-1.146,1.486c-0.675,0.932-1.46,1.95-4.073,4.297    c6.008-6.188-1.536,0.525,3.28-4.36c-1.723,1.375-0.519-0.456-5.345,4.439c-3.436,4.656-5.506,4.741-8.792,9.104    c-2.746,2.365,2.383-3.118-2.727,1.829c-5.447,6.088-4.884,5.985-4.797,6.787c5.518-5.268,5.481-6.637,10-10.939l-8.012,9.533    c1.725-1.509,2.932-2.694,3.906-3.729c-1.719,1.807-3.104,3.417-4.23,4.854c-0.649,0.812-1.247,1.56-1.8,2.251    c4.977-4.968,9.403-9.373,10.373-9.964l-0.47,0.901c1.958-1.563,4.672-4.587,5.837-6.067c4.428-4.476,8.575-9.223,9.827-9.916    l-1.493,1.887c2.559-2.622,3.98-4.078,5.567-5.704C237.158,91.072,238.86,89.359,241.985,86.21z M244.562,329.823    c1.117-4.69,2.104-9.862,1.908-31.752l0.077,1.723c0.701-11.031-0.927-21.509-0.148-34.93c0.421,6.513,0.383,6.162,1.346,13.353    l-0.316-6.987c0.608,1.936,0.293-5.034,0.322-10.161l0.723,4.525c-0.208,3.077-0.283,11.055-0.118,10.821    c-0.08-1.747-0.913,10.532-0.703,17.203c0.49-0.688,0.292-14.772,1.092-8.483c-0.335-5.543,0.153-6.23-0.019-12.024    c0.336,5.557,0.668,1.375,1.025,5.512l-0.167-9.501c0.163-0.247,0.362,13.838,0.965,6.053c-0.257-3.807,0.065-13.972-0.462-14.153    l0.162-0.234c0.114-7.121-0.747-3.132-0.446-11.877c-0.265-0.103-0.449,1.565-0.394,4.697c0.118,2.648,0.48,3.054,0.554,8.507    c-0.413,2.445,0.051-6.578-0.646-2.792c-0.347,1.881,0.3,14.397-0.484,10.409l0.113-7.107c-0.528-0.183-0.498-5.33-0.924-5.186    c-0.194-4.347,0.4-8.449-0.059-12.888c-0.341-1.843-0.976,1.375-0.7-5.969c0.781-5.739,0.629-22.65,0.518-28.984l-0.337-5.543    c-0.324,0.471,0.044,10.591-0.377,7.032l-0.127-8.645l0.203,0.667c0.045-2.865-0.173-5.794-0.289-8.408    c0.38,2.692,0.228,8.923,0.777,7.686c0.108-4.058,0.313-4.677,0.207-8.411c0.039,0.815,0.093,1.517,0.17,1.414    c0.238-8.215-0.615-7.933-0.794-9.993c-0.716-8.26-0.664,8.325-1.23,7.269l-0.303-24.115c0.179,2.06,0.356,4.133,0.582,3.356    c0.254-5.915,0.427-0.134,0.4-8.438c-0.752,0.592-0.469-10.457-0.903-16.323c0.308-2.741,0.37-3.305,0.379,2.689    c0.488-0.688,0.301-8.734,0.345-11.595c-0.121-1.657-0.192-4.484-0.301-6.275c-0.243,2.4-0.549,1.375-0.757-3.82l-0.103-0.303    c-0.134,8.518-0.667,21.756-0.167,27.096l-0.242-1.509c-0.422,9.858,0.877,21.454-0.045,26c-0.365-0.42-0.084,1.98-0.611,1.809    l0.412,7.259l-0.239-1.51l0.119,12.348l-0.099-0.327c0.492,5.869,0.877,10.466,1.186,14.14c0.23,0.014,0.301-0.368,0.47,1.588    c0.114,1.964,0.131,3.453,0.101,4.78c0.001,0.01,0.001,0.01,0.003,0.01h-0.003c-0.067,3.03-0.397,5.048-0.532,8.779l-0.057-11.481    c-0.391-0.935-0.796,0.042-1.069,5.667c-0.015-2.301-0.319-3.263-0.364-0.416c0.102,0.313,0.25,7.523,0.561,4.776    c0.143,10.907-0.883,28.564-0.141,45.125c-0.446-11.898-0.523,9.535-0.684-3.673c-0.625,9.219,0.615,7.933,0.518,17.33    c-0.225,0.802,0.029-5.116-0.414-7.275c-0.25,15.625,1.009,26.363,0.82,41.479l-0.487,0.646    C244.422,323.342,244.491,326.518,244.562,329.823z M245.17,359.725c0.055,2.909,0.111,5.859,0.168,8.857    c0.005-0.292,0.009-0.563,0.015-0.87l0.393,8.741c0.19-5.371,0.726-8.909,0.975-1.393c-0.202-0.633-0.449,1.564-0.566-1.049    c-0.292,5.038-0.576,16.089,0.161,13.208c-0.696-9.68,0.938-2.256,0.421-9.862c0.48,4.082,0.264,8.126,0.478,11.98    c-0.401-4.013-0.91,0.936-1.101,6.963c0.119,2.624,0.005,9.725,0.2,14.085c0.45-1.555,0.708,2.241,0.821-4.862    c0.118,2.606,0.212,6.64-0.02,11.158c-0.077-1.792-0.133-4.924-0.296-4.708c-0.414,2.916-0.396,6.331-0.573,8.215    c0.024,1.503,0.048,3.02,0.072,4.494c0.04-0.439,0.09-0.821,0.155-1.093l0.397,4.992c-0.212-6.649,0.208-3.073,0.472-2.987    c-0.527-0.18-0.068,4.28-0.051,6.557l0.557-4.944c0.279,2.39-0.402,8.438,0.149,7.19c0.221-10.491,0.126-14.525-0.04-24.012    l-0.433,3.851c-0.306-10.704,0.742-6.602,0.721-18.613c-0.395-4.992-0.027-18.063-0.819-18.311    c0.241,1.507,0.704-7.479,0.346-11.595c-0.724-4.549-0.821-18.307-1.151-14.14c-0.009,3.718,0.389,8.721-0.082,11.709    l-0.151-7.211l-0.394,4.731C246.135,358.363,245.75,358.6,245.17,359.725z M271.27,420.282c0.003-0.079,0.007-0.182,0.011-0.278    c-0.001,0.106-0.002,0.21-0.003,0.31L271.27,420.282z" fill="#202020"/><path d="M184.89,112.161c1.339-1.593,4.985-5.197,4.001-4.762C189.281,107.614,182.46,113.923,184.89,112.161z" fill="#202020"/><path d="M189.52,108.121c0.183-0.328-0.109-0.265,1.507-1.902l-4.402,4.555L189.52,108.121z" fill="#202020"/><path d="M196.124,105.635c2.085-2.534,3.422-4.125,7.068-7.729c2.097-0.626-5.73,6.141-6.688,8.47    c6.714-6.576,8.112-9.258,13.516-14.786C207.006,93.992,195.765,104.878,196.124,105.635z" fill="#202020"/><polygon fill="#202020" points="194.101,109.516 197.632,105.655 197.223,105.976 193.691,109.84   "/><path d="M175.634,159.52c0.563-0.103,2.64-2.632,3.819-3.923C178.434,156.587,176.968,157.932,175.634,159.52z" fill="#202020"/><path d="M374.617,164.661c0,0,0.063-0.241,0.18-0.693c0.101-0.456,0.248-1.126,0.334-1.993    c0.181-1.718,0.154-4.268-0.862-7.091c-0.508-1.403-1.261-2.859-2.296-4.217c-0.258-0.34-0.533-0.672-0.823-0.998    c-0.143-0.165-0.298-0.319-0.449-0.479l-0.371-0.375c-0.4-0.395-0.81-0.797-1.227-1.207c-1.664-1.639-3.44-3.387-5.216-5.135    c-7.103-6.992-14.206-13.985-14.206-13.985c4.083,4.029,8.009,7.903,12.498,12.334c2.247,2.212,4.636,4.564,7.255,7.143    c0.328,0.322,0.659,0.647,0.994,0.977c0.465,0.464,1.021,1.061,1.47,1.658c0.936,1.209,1.722,2.594,2.286,4.101    C375.325,157.708,375.578,161.221,374.617,164.661z" fill="#202020"/><path d="M242.458,108.257c-0.077-2.676-0.169-4.98-0.267-7.102l-0.019-0.312l-0.019-0.208l-0.037-0.404    c-0.025-0.26-0.051-0.515-0.075-0.768c-0.051-0.478-0.1-0.945-0.15-1.413c-0.196-1.809-0.372-3.336-0.443-5.588    c-0.164,1.964-0.182,3.169-0.127,4.246c0.055,1.062,0.182,1.971,0.309,2.973l0.094,0.763l0.044,0.395l0.011,0.1l0.011,0.207    l0.021,0.416c0.054,1.11,0.099,2.235,0.125,3.41c0.053,2.349,0.032,4.894-0.136,7.905L242.458,108.257z" fill="#202020"/><path d="M239.866,104.481c0.612-1.774,0.717,8.26,1.166,6.706c-0.149-7.214-0.583-3.36-0.53-9.907L239.866,104.481    z" fill="#202020"/><polygon fill="#202020" points="225.389,96.124 227.459,93.604 225.693,95.534   "/><polygon fill="#202020" points="240.41,153.268 240.271,152.085 240.078,157.452   "/><path d="M240.131,150.902l0.141,1.183L240.131,150.902z" fill="#202020"/><polygon fill="#202020" points="227.41,92.247 223.906,95.566 222.418,97.452   "/><path d="M248.01,102.724l-0.196-4.875c0.009,0.258,0.001,0.909-0.011,1.686c-0.01,0.716-0.021,1.551-0.031,2.27    C247.766,103.081,247.805,103.946,248.01,102.724z" fill="#202020"/><polygon fill="#202020" points="240.15,186.048 240.385,191.299 240.445,190.762 240.211,185.529   "/><path d="M249.697,136.505c0.47-2.981,0.127,8.61,0.543,2.476C250.167,133.523,249.922,135.738,249.697,136.505z" fill="#202020"/><path d="M246.508,199.861c0,0.708,0.017,1.455,0.069,2.173C246.549,201.178,246.527,200.459,246.508,199.861z" fill="#202020"/><path d="M246.508,199.861c0-2.287,0.18-4.574,0.044-6.142C246.339,196.57,246.419,197.609,246.508,199.861z" fill="#202020"/><path d="M246.617,226.06l0.034-2.074c0.232,2.118,0.198,1.114,0.011-0.777c-0.016-2.197-0.165-2.074-0.267-2.335    c-0.06-0.44-0.119-0.877-0.183-1.352c0.064,0.677,0.121,1.286,0.17,1.802C246.379,224.729,246.402,226.806,246.617,226.06z" fill="#202020"/><path d="M238.691,323.383c0.175-7.658,0.26-9.639,0.625-9.223c0.116-7.269-0.512-6.141-0.658-10.525    C238.728,311.86,238.56,313.541,238.691,323.383z" fill="#202020"/><path d="M238.658,303.635c-0.009-0.922-0.019-1.802-0.029-2.871C238.618,301.96,238.633,302.847,238.658,303.635z" fill="#202020"/><polygon fill="#202020" points="250.609,195.439 251.167,200.198 251.09,198.451   "/><path d="M238.508,334.747c0.023-1.42,0.007-3.696,0.132-4.813C238.273,329.524,238.485,336.164,238.508,334.747z" fill="#202020"/><path d="M245.666,305.213c0.224-0.777,0.09-5.677,0.176-7.671C245.795,300.402,245.121,302.734,245.666,305.213z" fill="#202020"/><path d="M240.013,356.717c0.023-1.42,0.269-3.604,0.571-2.658C240.406,351.995,239.761,349.203,240.013,356.717z" fill="#202020"/><polygon fill="#202020" points="245.6,319.208 245.724,318.115 245.49,312.874   "/><path d="M250.992,300.515c-0.436-5.894-1.051,9.35-1.42-0.801c-0.456,13.094,0.617-1.004,0.546,8.655    C250.265,302.713,250.817,299.941,250.992,300.515z" fill="#202020"/><path d="M250.118,308.37c-0.023,0.821-0.036,1.712-0.038,2.679C250.096,309.978,250.108,309.116,250.118,308.37z" fill="#202020"/><path d="M247.361,391.319c-0.046-0.856-0.096-1.44-0.147-1.98C247.25,390.012,247.295,390.655,247.361,391.319z" fill="#202020"/><path d="M250.478,339.218l-0.654-8.834c0.436,5.9,0.409,20.745,1.06,19.82c0.132-4.808-0.041-10.591-0.322-12.967    L250.478,339.218z" fill="#202020"/><path d="M238.668,440.615l-0.258-3.817l-0.076,4.767C238.431,440.199,238.91,442.668,238.668,440.615z" fill="#202020"/><path d="M238.32,442.485l0.014-0.921C238.318,441.766,238.311,442.059,238.32,442.485z" fill="#202020"/><path d="M247.046,374.611c0.046-2.854,0.028-5.138-0.088-7.74C246.835,367.95,246.72,375.061,247.046,374.611z" fill="#202020"/><path d="M250.821,470.545c0-0.001-0.623-0.184-1.514-0.57c-0.892-0.383-2.038-0.998-3.085-1.758    c-1.051-0.755-1.989-1.654-2.633-2.38c-0.647-0.725-1.018-1.26-1.018-1.26s0.399,0.588,1.107,1.377    c0.702,0.794,1.742,1.763,2.909,2.563c1.158,0.813,2.442,1.436,3.435,1.815c0.993,0.381,1.685,0.547,1.685,0.547    s-0.224-0.08-0.447-0.16S250.821,470.545,250.821,470.545z" fill="#202020"/><polygon fill="#202020" points="273.492,444.528 273.615,443.441 273.382,438.218 273.26,439.322   "/><path d="M251.597,456.577c-0.15-0.472-0.25-0.926-0.32-1.352c-0.029-0.12-0.061-0.638-0.092-1.009    c-0.04-0.384-0.076-0.733-0.108-1.041c-0.153-1.228-0.331-1.782-0.392-1.224c0,0,0.001,0.518,0.004,1.294    c0.001,0.388,0.003,0.841,0.004,1.326c0,0.121,0,0.244,0.001,0.369l0.007,0.23c-0.001,0.138,0.02,0.274,0.03,0.411    c0.061,0.548,0.22,1.07,0.379,1.446c0.158,0.378,0.307,0.608,0.307,0.608c-0.05-0.604-0.138-0.851-0.321-1.28    c-0.083-0.216-0.187-0.476-0.246-0.849c-0.008-0.095-0.03-0.193-0.033-0.303c-0.005-0.104-0.015-0.196-0.013-0.474    c0.006-0.469,0.013-0.997,0.021-1.598c0,0,0.031,0.332,0.078,0.829c0.023,0.249,0.05,0.539,0.08,0.85    c0.013,0.188,0.033,0.257,0.051,0.335c0.014,0.082,0.036,0.164,0.06,0.244C251.26,456.045,251.597,456.577,251.597,456.577z" fill="#202020"/><path d="M272.535,226.342c0.342,1.85,0.145,10.907-0.181,11.382c-0.142-1.217-0.276-6.128-0.483-3.043l0.84,7.166    c-0.523,9.532-1.104-7.245-1.4-11.953c-0.107,9.711,0.444,12.589,0.441,22.918c0.074-3.046,0.284-4.972,0.465-6.582    c0.59-0.351,0.328,9.274,0.375,16.154c0.258-4.381,0.474-1.846,0.705,1.345c0.02,0.574,0.053,0.956,0.092,1.228    c0.029,0.371,0.056,0.723,0.084,1.083l-0.002-0.825c0.066,0.059,0.146-0.124,0.256-0.719c-0.172-5.773,0.322-10.188,0.33-13.905    c-0.961,3.672-0.223-12.658-0.518-17.331l-0.096-5.396l-0.002-2.018c0.105-0.406,0.238,0.168,0.428,3.246    c-0.189-2.569-0.123-11.134-0.432-10.344l-0.014-19.548c0.039-0.608,0.088-1.217,0.158-1.667c-0.061-0.678-0.111-0.791-0.16-0.702    l-0.061-85.171c-0.076,4.202-0.295,7.836-0.402,12.169c-0.638-6.502-0.115,7.104-0.719,5.196c-0.219-2.923-0.15-7.201-0.003-9.749    c-0.305-0.949-0.575,2.682-0.938,2.263c-0.383,10.742,1.074,12.386,0.854,22.887c-0.365-0.416-0.686-3.662-0.636,3.211    l-0.079-1.747c0.409,11.007-0.825,8.576,0.176,15.504l-0.527-0.182c0.398,4.993,0.4,14.707,0.473,20.181l-0.102-0.327    c0.604,15.357,0.129,8.621,0.381,25.865l-0.615-7.936c-0.254,5.949,0.415,7.29,0.346,11.561c-0.102-0.306-0.486,0.684-0.582-3.349    l0.938,20.924C272.322,233.126,272.311,227.118,272.535,226.342z" fill="#202020"/><path d="M271.752,252.812c-0.029,1.107-0.041,2.366-0.02,3.851C271.74,255.229,271.745,253.995,271.752,252.812z" fill="#202020"/><path d="M273.356,105.677l0.006,5.983C273.393,109.807,273.403,107.875,273.356,105.677z" fill="#202020"/><path d="M272.903,282.803c0.273-3.628,0.382,2.717,0.584,3.349l-0.01-12.994c-0.203,0.059-0.43-1.228-0.615-0.966    L272.903,282.803z" fill="#202020"/><path d="M273.86,269.396c-0.141-0.44-0.268-1.815-0.387-3.356l0.004,7.118    C273.629,273.113,273.768,272.315,273.86,269.396z" fill="#202020"/><polygon fill="#202020" points="263.02,270.771 263.001,268.471 262.844,264.991   "/><path d="M263.912,234.794c-0.308,2.747-0.074,7.96,0.004,9.704C263.906,238.49,264.024,241.093,263.912,234.794z" fill="#202020"/><polygon fill="#202020" points="260.613,242.218 260.438,236.427 260.377,236.967   "/><path d="M276.238,98.847c0.662,0.646,1.306,1.274,1.976,1.927c-0.461-0.456-0.842-0.833-1.168-1.156    C276.733,99.32,276.471,99.071,276.238,98.847z" fill="#202020"/><path d="M271.783,111.141c0.592-13.813,0.492,9.05,1.25,4.711l-0.25-7.517l0.203,0.64l-0.066-8.213    c-0.044,0.031-0.082,0.065-0.117,0.1l-0.049,0.053c-0.008,0.017-0.016,0-0.023,0.045l-0.021,0.149c-0.059,0.39-0.11,0.729-0.15,1    c-0.095,0.537-0.191,0.788-0.375,0.583c0.011-0.678,0.021-1.285,0.029-1.829c0.012-0.146,0.022-0.274,0.031-0.389    c0.022-0.224,0.048-0.379,0.075-0.489c0.055-0.218,0.118-0.254,0.192-0.259c0.148,0.02,0.336,0.032,0.566-0.304    c-0.014-0.432-0.027-0.863-0.027-1.26l0.47,0.417c-0.003-0.003-0.043,0.111-0.04,0.114c0.101,0.09,0.124,0.048,0.136-0.024    c0,0,0.298,0.278,0.745,0.694c0.116,0.109,0.242,0.228,0.376,0.353c0.068,0.064,0.139,0.129,0.21,0.197    c0.21,0.205,0.425,0.415,0.643,0.628c1.919,1.9,3.967,3.928,6.014,5.955c8.189,8.109,16.379,16.218,16.379,16.218    c6.135,5.726-2.815-3.745,1.939,0.249c-6.876-6.873-16.815-17.362-17.914-17.431c0.303,0.16,0.899,0.472-0.434-0.982l-4.399-3.551    l3.655,3.926c-1.104-0.894-2.734-2.377-4.59-4.139c-0.231-0.221-0.467-0.445-0.705-0.673l-0.18-0.172l-0.082-0.079l-0.019-0.015    l-0.072-0.059c-0.092-0.08-0.187-0.161-0.283-0.243c-0.186-0.165-0.367-0.337-0.546-0.518c-0.693-0.701-1.454-1.64-1.915-2.363    c0.69,0.546,0.829,0.357,1.134,0.441c0.153,0.043,0.358,0.164,0.716,0.499c0.353,0.331,0.875,0.893,1.531,1.687    c0.033-0.227-0.456-1.176,0.418-0.446c-1.747-1.627-3.286-3.169-4.867-4.741c0.005,1.688,0.015,3.405,0.07,5.115    c0.017,0.42,0.033,0.843,0.05,1.269l0.017,0.312l0.017,0.666c0.013,0.632,0.026,1.266,0.039,1.903    C271.635,105.916,271.709,108.502,271.783,111.141z" fill="#202020"/><path d="M372.441,168.229l-0.054,0.211C372.609,168.018,372.66,167.871,372.441,168.229z" fill="#202020"/><path d="M366.021,173.999c0,0-0.681,0.416-1.795,0.866c-1.109,0.456-2.668,0.899-4.282,1.056    c-1.613,0.167-3.258,0.042-4.473-0.188c-1.217-0.227-2.004-0.511-2.004-0.511s0.299,0.126,0.839,0.293    c0.538,0.176,1.32,0.389,2.274,0.547c1.902,0.333,4.532,0.329,7.019-0.401c2.497-0.689,4.753-2.09,6.18-3.376    c0.72-0.64,1.27-1.226,1.628-1.659c0.369-0.424,0.555-0.688,0.554-0.689c0,0,0.131-0.371,0.234-0.748    c0.112-0.372,0.192-0.749,0.192-0.749c-0.397,0.786-1.609,2.668-3.437,4.147c-1.793,1.526-4.139,2.511-5.489,2.754    c0,0,0.679-0.272,1.317-0.614C365.423,174.395,366.021,173.999,366.021,173.999z" fill="#202020"/><path d="M343.749,168.07c4.853,4.552,5.015,3.879,2.64,1.124c0.563,0.516,1.016,0.945,1.381,1.306    c0.42,0.428,0.751,0.765,1.02,1.037c0.726,0.697,1.11,1.066,1.432,1.374c0.327,0.302,0.596,0.538,1.161,0.865    c0.569,0.31,1.442,0.75,3.036,1.117c-0.02-0.228-2.888-1.139-5.29-3.318c-0.84-0.797-1.719-1.631-2.474-2.349    c-0.696-0.648-1.278-1.19-1.596-1.485L343.749,168.07z" fill="#202020"/><polygon fill="#202020" points="309.272,133.152 310.768,134.302 307.556,130.998   "/><path d="M310.768,134.302l3.188,3.28c-0.096-0.352-0.191-0.699-0.632-1.314L310.768,134.302z" fill="#202020"/><path d="M322.321,146.189c1.338,1.4,2.829,2.938,4.661,4.792L322.321,146.189z" fill="#202020"/><path d="M318.729,142.384l0.055,0.164l3.537,3.641C321.036,144.828,319.883,143.607,318.729,142.384z" fill="#202020"/><path d="M313.955,137.582c0.232,0.817,0.541,1.74,5.298,6.334l-0.47-1.369L313.955,137.582z" fill="#202020"/><polygon fill="#202020" points="261.235,200.101 261.001,194.871 260.938,195.425 261.172,200.652   "/><path d="M261.613,169.924c-0.073-1.293-0.149-2.273-0.228-3.164C261.431,168.122,261.5,169.205,261.613,169.924z" fill="#202020"/><path d="M258.789,147.491c0.416-6.152,0.551,8.486,0.734-2.906c0.387-1.004,0.887,4.336,0.693,9.7    c-0.363-0.426-0.232-5.227-0.604-1.929c0.421,3.563,0.134,4.917,0.683,3.676c0.343,5.994,0.732,6.661,1.09,10.729    c-0.242-7.245,0.322-22.458-0.383-31.652c-0.66-5.068-1.561-1.994-2.514-2.015C258.265,133.857,258.158,146.995,258.789,147.491z" fill="#202020"/><path d="M257.838,157.171c-0.047,2.847-0.008,3.717,0.07,5.464C258.235,162.163,257.854,159.471,257.838,157.171z" fill="#202020"/><path d="M265.016,90.636c-0.068-0.378-0.145-2.074-0.232-3.605c-0.088-1.524-0.189-2.892-0.307-2.438l0.172,9.384    C264.671,91.854,264.836,91.266,265.016,90.636z" fill="#202020"/><path d="M264.721,97.99l-0.072-4.012C264.637,94.965,264.655,96.222,264.721,97.99z" fill="#202020"/><path d="M265.1,90.318c-0.028,0.106-0.054,0.201-0.084,0.318C265.043,90.791,265.073,90.799,265.1,90.318z" fill="#202020"/><path d="M335.552,159.757c-0.263,0.107,2.309,2.458,3.599,3.638C338.162,162.374,336.813,160.904,335.552,159.757z    " fill="#202020"/><path d="M311.782,91.031l-2.026-2.321C310.437,89.566,310.786,90.004,311.782,91.031z" fill="#202020"/><path d="M273.23,62.581c-0.099-0.027-0.29-0.157-0.534-0.346C272.935,62.429,273.116,62.549,273.23,62.581z" fill="#202020"/><path d="M272.696,62.236c-1.64-1.332-5.986-6.157-7.868-7.571l0.28,0.138l-3.208-2.93    C264.797,54.728,270.806,60.794,272.696,62.236z" fill="#202020"/></g></g></svg>