<?xml version="1.0" ?><!DOCTYPE svg  PUBLIC '-//W3C//DTD SVG 1.1//EN'  'http://www.w3.org/Graphics/SVG/1.1/DTD/svg11.dtd'><svg enable-background="new 0 0 512 512" height="512px" id="Calque_1" version="1.1" viewBox="0 0 512 512" width="512px" xml:space="preserve" xmlns="http://www.w3.org/2000/svg" xmlns:xlink="http://www.w3.org/1999/xlink"><g><path d="M433.673,157.819c-0.383-7.123-1.249-13.312-0.661-10.678c-1.311-7.178-2.381-10.748-2.949-12.802   c-0.611-2.044-0.862-2.544-1.485-3.333c-1.562-4.385-3.357-8.83-4.212-10.99c-0.42-1.083-0.582-1.603-0.332-1.263   c0.244,0.342,0.909,1.542,1.995,3.968c-0.001,0-0.649-1.554-1.741-3.83c-1.083-2.279-2.637-5.264-4.354-8.152   c-1.707-2.894-3.579-5.683-5.05-7.724c-1.471-2.042-2.515-3.354-2.515-3.354s2.405,3.211,4.532,6.607   c2.154,3.38,4.01,6.932,4.01,6.932c-1.281-1.784-4.381-7.371-8.244-12.577c-3.801-5.247-8.321-10.054-10.374-11.569   c0,0,1.293,1.26,3.126,3.251c1.839,1.985,4.192,4.724,6.371,7.6c2.188,2.869,4.198,5.869,5.619,8.171   c1.424,2.301,2.291,3.884,2.291,3.884l-0.887-1.154c1.746,2.778,4,7.064,5.764,11.278c1.785,4.206,3.088,8.313,3.685,10.453   c-0.326-0.632-0.258-0.19-1.941-4.972c2.878,8.19,3.805,13.056,4.49,15.929c0.64,2.891,0.892,3.853,1.159,4.626   c0.256,0.776,0.507,1.366,0.884,3.575c0.339,2.208,0.919,6.048,0.871,13.342C433.743,163.209,433.762,160.946,433.673,157.819z" fill="#202020"/><path d="M429.499,187.117c0,0-0.503,2.987-1.199,5.947c-0.677,2.963-1.549,5.888-1.549,5.888   c0,0-1.77,4.798-4.046,9.368c-1.119,2.292-2.344,4.53-3.301,6.185s-1.638,2.732-1.638,2.732c0.063,0.172-1.822,3.447-3.169,5.55   c-0.664,1.057-1.164,1.837-1.108,1.855c0.027,0.009,0.196-0.171,0.544-0.61c0.348-0.439,0.877-1.134,1.608-2.167   c1.086-1.657,3.11-5.002,4.649-7.758c-0.274,1.15-3.645,7.121-7.101,11.79c-1.697,2.354-3.354,4.414-4.304,5.625   c-0.243,0.315-0.443,0.574-0.592,0.766c-0.181,0.242-0.303,0.405-0.309,0.473c-0.012,0.069,0.019,0.046,0.162-0.08   c0.127-0.119,0.345-0.321,0.664-0.619c2.637-3.125,4.552-5.721,6.093-7.924c1.542-2.205,2.695-4.031,3.708-5.712   c1.995-3.376,3.466-6.166,5.395-10.795c3.174-6.755,5.221-12.901,6.645-18.169c1.417-5.274,2.222-9.681,2.761-13.136   c0.23-2.212,0.234-3.485,0.244-4.904c0.014-1.417,0.029-2.981,0.058-5.795c-0.025,1.244-0.062,2.387-0.143,3.816l-0.891,0.549   c-0.141,4.657-0.779,9.033-1.786,14.098c0,0,0.992-5.912,1.227-11.866c0.313-5.954-0.125-11.874-0.125-11.874   c-0.274,3.822-0.482,11.532-1.818,19.325c-1.242,7.804-3.632,15.588-5.452,19.833c2.283-5.268,1.568-3.113,1.354-2.2   c-0.125,0.447-0.124,0.579,0.384-0.724C426.953,195.277,428.032,192.556,429.499,187.117z" fill="#202020"/><path d="M433.715,165.628c0.002-0.156,0.007-0.412,0.01-0.591C433.722,165.216,433.717,165.472,433.715,165.628z" fill="#202020"/><path d="M112.884,340.113c-1.698,1.857-2.648,3.185-3.257,4.086c-0.614,0.898-0.854,1.403-1.03,1.72   c0,0,0.498-0.726,1.44-1.942c0.945-1.213,2.334-2.923,4.181-4.813c3.901-3.907,9.103-9.116,14.304-14.326   c10.428-10.434,20.856-20.868,20.856-20.868c-1.465,1.148-13.679,12.97-5.743,4.845c-3.757,3.406-14.515,14.465-15.884,16.261   l2.783-3.266c-9.304,9.923-16.479,15.881-10.393,9.431l-0.808,0.814c0,0-1.59,1.738-3.974,4.346   c-1.21,1.319-2.556,2.779-3.884,4.461c-1.336,1.671-2.647,3.537-3.841,5.466c-2.412,3.85-4.224,8.006-5.306,11.189   c-0.542,1.594-0.937,2.937-1.177,3.886c-0.255,0.944-0.372,1.491-0.371,1.491c0.921-3.146,1.765-5.257,2.428-6.939   c0.679-1.678,1.215-2.917,1.818-4.224c0.613-1.3,1.3-2.664,2.433-4.506C108.603,345.393,110.194,343.069,112.884,340.113z" fill="#202020"/><path d="M326.951,53.448c-3.876,0.097-6.044,0.324-7.134,0.438c-1.09,0.127-1.104,0.169-0.662,0.176   C321.913,53.769,324.546,53.588,326.951,53.448z" fill="#202020"/><path d="M99.503,371.114c0,0-0.23,2.776-0.163,5.549c0.044,2.775,0.382,5.515,0.382,5.515   C99.267,377.784,99.348,373.868,99.503,371.114z" fill="#202020"/><path d="M140.064,302.924c-0.003-0.037,0.069-0.145-0.177,0.048l-3.555,3.936c0.057-0.056,0.073-0.073,0.096-0.096   C137.762,305.385,138.959,304.105,140.064,302.924z" fill="#202020"/><path d="M278.165,330.006c0.887-0.903,1.65-1.683,2.711-2.763C279.889,328.249,278.996,329.159,278.165,330.006z" fill="#202020"/><path d="M250.964,187.76l-18.192,18.909c2.303-2.642-6.595,6.358-2.885,2.251c-1.386,1.441-7.947,8.136-6.052,6.416   l3.773-3.795c-9.288,10.276-3.173,4.542-19.015,21.138c10.363-9.775,14.509-14.459,19.617-20.018   c1.782-1.833,3.276-3.37,4.786-4.923l14.734-16.116L250.964,187.76z" fill="#202020"/><path d="M184.94,178.552l0.164-0.241C184.932,178.51,184.911,178.556,184.94,178.552z" fill="#202020"/><path d="M185.757,177.341l-0.653,0.969C186.022,177.235,189.764,173.34,185.757,177.341z" fill="#202020"/><path d="M99.721,366.998c0.063,0.359-0.082,1.796-0.219,4.116c0,0,0.149-2.072,0.482-4.128   c0.316-2.058,0.794-4.093,0.794-4.093C100.45,364.032,100.03,365.54,99.721,366.998z" fill="#202020"/><path d="M105.289,348.591c0,0,0.678-1.166,1.818-2.837c1.131-1.676,2.763-3.829,4.562-5.843   c1.778-1.998,3.787-3.917,5.232-5.404c1.458-1.472,2.431-2.452,2.431-2.452l5.504-6.019c-2.948,3.033-6.146,6.323-9.644,9.921   c-1.779,1.804-3.52,3.631-5.193,5.735C108.336,343.785,106.743,346.078,105.289,348.591z" fill="#202020"/><path d="M253.191,354.398c32.295-32.446-7.37,8.534,7.644-6.198c8.92-9.057,11.814-12.504,17.331-18.194   c-25.438,25.911,2.569-4.391-23.178,21.65c3.183-4.183,18.13-19.219,27.05-27.869c10.428-9.464-8.336,9.042-10.117,11.768   c10.313-10.469,8.395-8.727,12.535-13.404c16.427-16.203,33.164-34.349,43.574-43.424c11.703-11.915,10.696-11.368,17.233-18.414   c0.836-1.867-17.835,17.295-22.617,21.264c0.95-0.862,2.806-2.544,2.365-1.959l-10.318,10.102c9.872-9.512-0.83,1.861-5.972,7.083   c-3.756,3.778-11.224,11.291-10.335,10.118l5.594-5.816c-7.507,7.182-15.826,16.579-23.86,24.055   c-0.521,0.289,2.358-2.699,2.731-3.216c-8.337,9.042-16.738,17.4-29.351,30.513l6.945-7.968   c-9.723,10.854-33.182,33.992-49.626,49.839c1.877-1.704,5.165-4.87,3.326-2.834c-9.361,9.605-16.875,16.419-12.752,11.757   c-1.032,1.131-2.309,2.474-3.782,3.988c-0.74,0.754-1.525,1.554-2.35,2.395c-0.249,0.254-0.5,0.511-0.755,0.771   c-0.367,0.384-0.718,0.794-1.06,1.22l-0.439,0.581l-0.104,0.151l-0.029,0.051l-0.042,0.023c-0.007,0.007-0.015,0.002-0.318,0.228   c-0.382,0.284-0.756,0.585-1.118,0.903c-0.181,0.159-0.361,0.32-0.535,0.488l-0.41,0.396c-0.688,0.671-1.403,1.347-2.16,2.004   c-1.51,1.317-3.149,2.603-4.909,3.786c-3.513,2.376-7.477,4.389-11.564,5.824c-4.081,1.455-8.266,2.341-12.154,2.771   c-3.891,0.442-7.481,0.418-10.46,0.267c0,0-1.119-0.033-3.072-0.246c-1.951-0.211-4.74-0.638-8.012-1.532   c-3.266-0.9-7.018-2.278-10.785-4.322c-3.776-2.022-7.561-4.696-10.951-7.872c-3.406-3.161-6.379-6.8-8.731-10.512   c-2.348-3.717-4.081-7.49-5.248-10.846c-1.182-3.354-1.822-6.277-2.194-8.333c-0.364-2.061-0.489-3.256-0.489-3.256   c0.302,2.856,0.806,5.885,1.583,8.94c0.505,3.449,1.336,6.03,1.313,6.339c-0.008,0.154-0.25-0.245-0.737-1.419   c-0.478-1.177-1.242-3.119-2.034-6.123c0.717,2.962,1.431,4.828,2.011,6.271c0.59,1.441,1.093,2.451,1.682,3.624   c0.593,1.171,1.269,2.509,2.408,4.503c1.155,1.979,2.731,4.658,5.551,8.181c-2.33-2.664-3.698-4.448-3.45-3.609   c0.14,0.409,0.696,1.472,1.957,3.264c1.263,1.782,3.252,4.305,6.473,7.319c6.399,5.736,13.657,9.515,20.929,11.64   c7.29,2.117,14.609,2.606,21.54,1.802c6.936-0.812,13.502-2.912,19.443-6.114c2.97-1.604,5.785-3.485,8.416-5.627   c1.316-1.071,2.585-2.207,3.806-3.406c0.301-0.305,0.612-0.599,0.906-0.911l0.982-1.019c0.252-0.256,0.518-0.501,0.791-0.738   l0.417-0.349l0.375-0.296l0.279-0.217l0.199-0.139c0.038-0.087,0.077-0.173,0.119-0.256c0.044-0.081,0.075-0.153,0.291-0.455   c0.242-0.338,0.498-0.666,0.767-0.982c0.135-0.159,0.271-0.316,0.413-0.468l0.36-0.386c0.742-0.787,1.488-1.579,2.238-2.376   c1.504-1.591,3.026-3.2,4.57-4.833c3.099-3.253,6.282-6.594,9.571-10.045c1.472-0.781,25.327-24.829,37.048-36.389   c-4.072,4.814-12.605,13.56-21.496,22.601c5.639-5.614,15.346-15.279,22.548-22.449L253.191,354.398z" fill="#202020"/><path d="M177.55,427.719c0.987-0.421,1.998-0.884,3.008-1.415C180.004,426.556,179.118,427.006,177.55,427.719z" fill="#202020"/><path d="M225.701,383.224c-0.1,0.126-0.05,0.097-0.075,0.15c0.932-0.949,1.863-1.898,2.817-2.87   C227.476,381.464,226.385,382.546,225.701,383.224z" fill="#202020"/><path d="M97.509,377.187c-0.089-2.659,0.044-4.633,0.266-7.294c-0.194,1.634-0.365,3.69-0.408,5.673   C97.349,377.458,97.448,378.353,97.509,377.187z" fill="#202020"/><path d="M99.2,368.434l-0.025,1.409c0.194-1.104,0.336-1.877,0.546-2.846C99.68,366.68,99.511,366.976,99.2,368.434   z" fill="#202020"/><path d="M380.017,233.828l3.027-3.178C381.181,232.525,380.406,233.361,380.017,233.828z" fill="#202020"/><path d="M289.837,318.927c-11.224,11.291-0.83,1.862-16.753,17.791l4.705-4.643   c-11.205,11.647-31.389,31.628-44.949,45.224c1.326-1.737-8.484,7.983-7.215,6.076c-9.206,9.356-18.326,18.617-22.777,23.729   c-1.121,1.08-2.337,2.284-3.623,3.575c-0.65,0.657-1.32,1.335-2.005,2.028c-0.47,0.482-0.923,1.022-1.318,1.571l-0.161,0.235   l-0.097,0.156c-0.063,0.106-0.122,0.216-0.178,0.328c-0.183,0.103-0.324,0.189-0.53,0.336l-0.201,0.146l-0.343,0.266   c-0.225,0.183-0.45,0.366-0.663,0.563c-0.215,0.189-0.431,0.405-0.625,0.596l-0.411,0.41c-0.276,0.271-0.545,0.553-0.833,0.817   c-1.123,1.086-2.313,2.128-3.547,3.112c-2.464,1.974-5.115,3.703-7.756,5.061c1.854-0.852-1.042,1.001-1.902,1.567   c-0.429,0.278-0.296,0.319,1.235-0.447c0.764-0.385,1.877-0.974,3.394-1.915c1.513-0.942,3.44-2.229,5.723-4.114   c-1.475,1.216-0.495,0.522-1.984,1.69c1.876-1.287,3.49-2.602,4.919-3.884c0.353-0.326,0.708-0.636,1.036-0.961   c0.362-0.35,0.716-0.692,1.064-1.029c0.228-0.211,0.458-0.416,0.695-0.607l0.358-0.282l0.296-0.22   c0.299-0.212,0.475-0.316,0.725-0.454c0.074-0.143,0.151-0.282,0.232-0.417c0.078-0.127,0.168-0.268,0.328-0.489   c0.396-0.546,0.837-1.063,1.287-1.521c0.691-0.716,1.365-1.413,2.03-2.103c1.323-1.384,2.611-2.731,3.929-4.109   c2.633-2.758,5.392-5.632,8.856-9.101c6.092-5.712-9.345,9.96-3.699,4.467c12.15-12.505,38.913-38.454,37.379-38.354   c8.92-9.022,10.317-10.103,13.124-12.646c6.713-7.479,19.962-20.563,31.394-31.884c11.433-11.321,21.047-20.879,20.494-21.303   c-5.143,5.22-13.605,13.641-20.998,21.452L289.837,318.927z" fill="#202020"/><path d="M102.877,402.273c0.391,0.863,0.968,1.986,1.326,2.687C103.796,404.173,103.3,403.189,102.877,402.273z" fill="#202020"/><path d="M208.302,249.586l-4.069,5.347c-26.654,26.959-36.525,36.472-59.938,59.936   c-1.878,1.703,0.91-1.196,2.324-2.666c-8.229,8.249-18.5,18.545-28.211,28.28c-0.567,0.576-1.133,1.151-1.696,1.723   c-0.519,0.554-1.032,1.106-1.522,1.673c-0.985,1.13-1.911,2.286-2.773,3.459c-1.716,2.35-3.181,4.76-4.373,7.14   c-2.401,4.759-3.727,9.354-4.381,13.032c-0.339,1.599-0.741,3.867-0.967,6.293c-0.247,2.422-0.301,5.001-0.245,7.162   c0.063,2.161,0.226,3.908,0.277,4.713s-0.043,0.675-0.329-0.946c0.468,3.188,1.309,6.771,2.47,10.269   c0.006,0.516-0.707-1.43-1.273-3.578c-0.586-2.143-0.982-4.485-1.122-4.571c0.47,2.908,0.744,4.029,1.001,4.661   c-0.725-2.373-0.694-1.062-1.14-1.979c-0.212-0.463-0.577-1.486-0.994-3.878c-0.392-2.381-0.901-6.182-0.434-12.079   c0.405-2.257,0.541-2.351,0.479-1.338c-0.063,1.015-0.238,3.157-0.239,5.425c-0.065,4.552,0.799,9.469,0.848,6.773   c-0.417-3.826-0.411-5.539-0.531-6.362c-0.082-0.825-0.19-0.769-0.237-1.103c0.167-4.951,0.753-7.309,0.997-8.377   c0.278-1.068,0.34-0.854,0.387-0.58c0.215-1.867,1.165-5.805,2.776-9.688c1.559-3.908,3.787-7.692,5.11-9.942   c2.721-3.947,4.428-5.581,5.123-6.287c0.72-0.691,0.546-0.388,0.236,0.066c-0.315,0.451-0.753,1.063-0.595,0.985   c0.076-0.042,0.302-0.255,0.778-0.736c0.502-0.505,1.276-1.283,2.426-2.439l5.049-6.248l16.405-16.179   c23.375-23.796-4.409,2.337,22.211-24.96c-3.229,3.854,8.108-6.433,20.781-18.854c-7.485,7.529-20.971,21.796-30.84,31.311   c14.131-13.193-18.748,18.86-11.12,12.307c6.498-7.006,17.721-18.298,26.638-26.94l-2.823,2.933   c9.401-9.273,15.842-16.968,28.966-29.614c6.384-6.422,5.354-5.053,4.367-3.787c2.663-2.754,5.185-5.363,7.043-7.285   C207.008,250.74,208.227,249.528,208.302,249.586z M194.477,263.661l-8.625,8.507C187.985,270.233,191.174,267.037,194.477,263.661   z" fill="#202020"/><path d="M324.288,314.312c0.866-0.834,1.864-1.796,2.65-2.553C326.342,312.301,325.344,313.273,324.288,314.312z" fill="#202020"/><path d="M151.594,376.962c0,0-0.592,0.838-0.828,1.842c-0.12,0.495-0.176,1.008-0.176,1.394   c0,0.385,0.034,0.64,0.034,0.64C150.489,379.228,150.952,377.927,151.594,376.962z" fill="#202020"/><path d="M249.05,291.798l7.108-7.388C253.306,287.28,251.12,289.577,249.05,291.798z" fill="#202020"/><path d="M265.087,373.431l-0.246,0.237c-0.395,0.417-0.695,0.735-1.111,1.176L265.087,373.431z" fill="#202020"/><path d="M235.887,192.425c-1.155,1.053-2.439,2.246-4.17,3.906C231.979,196.187,233.531,194.72,235.887,192.425z" fill="#202020"/><path d="M247.741,293.158c0.191-0.181,0.3-0.285,0.451-0.428c0.27-0.293,0.567-0.616,0.858-0.933L247.741,293.158z" fill="#202020"/><path d="M201.736,330.161c1.044-1.085,1.995-2.071,3.117-3.236C203.366,328.434,202.47,329.375,201.736,330.161z" fill="#202020"/><path d="M193.042,335.456c1.121-1.165,2.192-2.278,3.026-3.146L193.042,335.456z" fill="#202020"/><path d="M310.192,150.915c0,0-2.858-0.565-5.759-0.546c-2.9-0.041-5.752,0.501-5.752,0.501   c2.803-0.473,5.084-0.517,6.95-0.444C307.5,150.504,308.963,150.704,310.192,150.915z" fill="#202020"/><path d="M211.112,318.171c0.358-0.419,0.715-0.838,0.955-1.118C211.162,317.995,210.758,318.469,211.112,318.171z" fill="#202020"/><path d="M368.521,273.653c-0.151,0.152-0.314,0.317-0.403,0.407l-0.1,0.239L368.521,273.653z" fill="#202020"/><path d="M383.889,256.539c1.898-1.931,3.875-3.941,5.818-5.917C387.524,252.797,385.42,254.939,383.889,256.539z" fill="#202020"/><path d="M137.896,288.487c-1.855,1.683-6.109,5.729-4.271,3.692C130.366,295.689,130.895,295.767,137.896,288.487z" fill="#202020"/><path d="M339.711,309.966c0.983-1.146,2.244-2.531,3.513-3.921C340.839,308.604,338.743,310.844,339.711,309.966z" fill="#202020"/><path d="M343.224,306.045c1.177-1.268,2.434-2.623,3.486-3.757C345.485,303.608,344.309,304.876,343.224,306.045z" fill="#202020"/><path d="M177.913,238.522c0.48-0.398,1.196-1.045,2.13-1.958C179.691,236.753,178.936,237.473,177.913,238.522z" fill="#202020"/><path d="M394.545,245.975c0.455-0.598,6.984-7.354,10.708-11.286c0.232-0.246,0.454-0.481,0.663-0.702   c0.104-0.111,0.205-0.218,0.303-0.322c0.065-0.078,0.13-0.152,0.191-0.224c0.236-0.277,0.404-0.539,0.528-0.734   c0.395-0.676,0.587-0.93,0.217-0.5c-0.076,0.105-0.181,0.249-0.316,0.436c-0.088,0.097-0.181,0.232-0.311,0.371   c-0.126,0.149-0.273,0.297-0.46,0.485c-0.271,0.263-0.576,0.56-0.919,0.894c-1.362,1.346-3.324,3.282-6.023,5.948   c0.096-0.318,0.991-1.351,2.369-2.812c0.696-0.723,1.504-1.561,2.387-2.477c0.835-0.883,2.062-2.018,2.443-2.577l0.104-0.139   l0.188-0.284l0.189-0.284l0.257-0.302c0.254-0.294,0.51-0.59,0.767-0.888c0.456-0.547,0.916-1.099,1.376-1.651   c0.91-1.113,1.798-2.245,2.632-3.353c1.667-2.218,3.106-4.35,4.134-6.011c-1.62,2.331-1.322,1.677-0.748,0.624   c0.569-1.058,1.359-2.551,0.808-1.886c-2,3.285-4.44,7.199-8.605,12.043c-1.076,1.009-0.026-0.317,1.788-2.692   c1.822-2.371,4.345-5.845,6.401-9c-2.686,3.785-1.149,1.266,0.067-0.862c0.602-1.069,1.119-2.047,1.063-2.06   c-0.029-0.007-0.203,0.226-0.588,0.806c-0.387,0.577-1.001,1.49-1.909,2.843c-1.89,2.927-3.858,5.651-5.877,8.194   c-0.513,0.63-1.021,1.255-1.523,1.874l-0.834,0.985l-0.33,0.39c-0.102,0.127-0.162,0.238-0.245,0.358l-0.217,0.331l-0.09,0.124   c-0.117,0.167-0.244,0.313-0.372,0.453l-0.81,0.832c-0.567,0.579-1.131,1.154-1.689,1.724c-4.452,4.575-8.623,8.86-12.604,12.951   c-7.931,8.212-15.03,15.718-21.99,23.327c11.703-11.916,24.781-25.261,34.646-34.768l-3.687,4.456   c-11.286,10.61-17.791,17.62-28.595,28.352l24.392-23.984c11.651-11.011,4.146-3.357-4.717,5.645   C391.908,248.43,393.919,246.465,394.545,245.975z" fill="#202020"/><path d="M381.624,265.647l0.416-0.395c0.341-0.368,0.764-0.824,0.98-1.058L381.624,265.647z" fill="#202020"/><path d="M309.411,162.031c0,0-0.583-0.104-1.168-0.173c-0.585-0.074-1.172-0.106-1.172-0.106   C309.014,161.977,309.606,162.154,309.411,162.031z" fill="#202020"/><path d="M365.332,278.213l0.017-0.017C365.19,278.364,365.15,278.403,365.332,278.213z" fill="#202020"/><path d="M305.034,210.165c0.064-0.082,0.129-0.164,0.242-0.309C305.103,210.054,305.115,210.066,305.034,210.165z" fill="#202020"/><path d="M299.508,232.28c0.113-0.078,0.158-0.089,0.401-0.297C300.991,230.858,300.439,231.375,299.508,232.28z" fill="#202020"/><path d="M305.031,210.241c-0.012-0.012-0.057,0.011,0.004-0.076C305.007,210.218,304.93,210.32,305.031,210.241z" fill="#202020"/><path d="M235.542,319.569c0,0-0.86,0.728-2.174,1.915C232.92,322.004,233.446,321.561,235.542,319.569z" fill="#202020"/><path d="M185.353,368.621c-0.33,0.301-0.525,0.478-0.949,0.864L185.353,368.621z" fill="#202020"/><path d="M151.365,278.484c2.447-2.464,4.282-4.313,5.831-5.872C155.395,274.393,153.459,276.332,151.365,278.484z" fill="#202020"/><path d="M305.277,209.856c0.478-0.558,1.174-1.338,2.338-2.606C306.329,208.645,305.662,209.397,305.277,209.856z" fill="#202020"/><path d="M309.253,241.97c-0.515,0.544-0.996,1.053-1.483,1.568c0.311-0.297,0.621-0.595,0.926-0.887L309.253,241.97   z" fill="#202020"/><path d="M335.43,216.359c-0.84,0.928-1.2,1.379-1.656,1.914c1.143-1.175,2.403-2.472,3.741-3.847   c1.348-1.407,2.675-2.985,3.924-4.678c2.498-3.387,4.609-7.282,6.026-11.092c1.436-3.806,2.205-7.49,2.523-10.367   c0.327-2.881,0.249-4.95,0.119-5.665c-0.009,1.116-0.102,3.408-0.534,6.113c-0.419,2.705-1.218,5.804-2.251,8.533   c-2.054,5.489-4.923,9.36-4.021,7.612c-1.104,1.976-2.536,4.08-4.21,6.076c-1.649,2.016-3.625,3.832-5.455,5.629   c-3.67,3.569-6.973,6.763-8.674,8.531c10.8-10.352,1.488-0.798-5.514,6.481c-6.613,6.374,0.893-1.551-4.775,3.965l-14.98,15.07   l13.143-13.034l-3.583,4.369c0.471-0.498,0.794-0.839,1.298-1.372C332.511,218.272,313.008,239.294,335.43,216.359z" fill="#202020"/><path d="M333.774,218.273c-1.36,1.41-2.547,2.657-3.451,3.645C332.406,219.822,333.177,218.971,333.774,218.273z" fill="#202020"/><path d="M288.192,137.065c-1.571,0.574-3.25,1.273-5.275,2.309C283.872,138.863,286.159,137.808,288.192,137.065z" fill="#202020"/><path d="M136.007,314.996c0.504-0.272,13.645-12.937,13.112-13.008c-3.861,3.798-7.75,7.624-11.657,11.467   L136.007,314.996z" fill="#202020"/><path d="M79.245,399.433c-0.529-1.943-0.999-3.91-1.397-5.893c-0.105-0.422-0.208-0.829-0.286-1.145   C77.696,393.627,78.629,397.514,79.245,399.433z" fill="#202020"/><path d="M345.625,199.8c-1.261,3.06-1.994,4.353-2.323,5.083C344.357,203.006,345.162,201.186,345.625,199.8z" fill="#202020"/><path d="M78.584,400.815c0.593,2.536,1.768,6.203,1.836,6.768c2.004,4.966,3.907,8.241,6.82,12.815   C83.939,415.249,80.76,408.802,78.584,400.815z" fill="#202020"/><path d="M87.483,420.766c-0.084-0.127-0.167-0.255-0.243-0.368C87.324,420.525,87.399,420.639,87.483,420.766z" fill="#202020"/><path d="M128.203,322.543c-1.089,1.131-2.211,2.295-3.366,3.493l1.705-1.865c-2.999,2.937-5.98,5.857-8.967,8.783   c-1.056,1.084-2.201,2.26-3.607,3.703c0.564-0.585,0.977-1.062,1.22-1.371c-0.967,0.951-1.912,1.881-2.857,2.811   c-1.624,1.865-3.771,4.496-5.814,7.689c-2.056,3.182-4.001,6.919-5.451,10.751c-1.468,3.825-2.453,7.722-2.995,11.089   c-0.552,3.368-0.691,6.197-0.703,7.94c-0.122,4.616,0.319,9.752,1.382,14.479c1.024,4.737,2.65,9.035,4.129,12.229   c-1.406-2.949-2.67-6.543-3.401-9.104c-0.731-2.559-1.067-4.051-0.931-2.741c0.647,3.272,1.437,6.084,2.388,8.778   c0.96,2.689,2.075,5.271,3.583,7.992c1.507,2.72,3.404,5.594,6.088,8.693c2.696,3.077,6.176,6.419,11.021,9.609   c0,0-2.812-1.918-5.338-4.196c-2.559-2.24-4.816-4.791-4.816-4.791c0,0,1.301,1.406,3.424,3.323   c2.132,1.905,5.139,4.257,8.387,6.214c3.236,1.977,6.676,3.569,9.324,4.551c1.32,0.504,2.439,0.866,3.224,1.113   c0.788,0.235,1.238,0.37,1.238,0.37c2.486,0.869,2.849,1.007,1.881,0.818c-0.965-0.192-3.236-0.809-5.871-1.804   c-2.634-0.993-5.608-2.401-8.073-3.824c-2.473-1.409-4.458-2.779-5.344-3.362c9.579,7.033,20.185,10.582,29.405,11.563   c9.258,1.014,17.081-0.411,22.189-2.407c0.809-0.002,1.911,0.034,4.641-0.744c1.36-0.401,3.125-1.021,5.389-2.095   c2.258-1.076,5.018-2.621,8.201-5c-2.388,1.587-3.167,1.913-3.021,1.755c0.134-0.174,1.151-0.897,2.181-1.707   c1.032-0.807,2.072-1.702,2.385-2.048c0.305-0.357-0.085-0.12-2.015,1.161c1.075-0.892,2.497-2.055,3.958-3.377   c0.729-0.662,1.471-1.36,2.197-2.068c0.411-0.406,0.854-0.779,1.316-1.112c0.404-0.289,0.74-0.488,1.129-0.688   c0.192-0.357,0.386-0.666,0.628-1.003c0.258-0.357,0.583-0.756,0.886-1.082c0.587-0.595,1.124-1.139,1.588-1.608   c0.903-0.924,1.5-1.577,1.594-1.796l-0.91,1.196c19.778-18.686,25.218-25.838,33.164-34.348   c22.887-23.169,33.686-33.521,52.41-52.361c0.969-0.506,6.719-4.983,14.229-12.543c3.19-3.815,20.041-20.956,21.375-23.092   c-13.639,13.303-10.686,11.356-18.656,19.515c-7.133,6.293-1.023,0.193-10.443,9.11c7.563-7.236,33.216-33.654,41.715-41.363   l-2.806,2.916c13.175-12.696,16.639-14.178,37.591-36.33l10.038-10.529c-0.456,0.536-0.466,0.639-0.694,0.939   c4.219-4.198,7.124-7.03,9.394-9.214c2.279-2.172,3.833-3.719,5.383-5.423c1.543-1.698,3.082-3.512,5.083-6.294   c1.971-2.795,4.459-6.554,7.229-12.435c-0.864,1.813-0.235,0.719-1.146,2.547c3.635-6.473,6.181-13.571,7.675-20.398   c1.515-6.833,2-13.375,2.03-18.948c0.461-6.822,0.612,1.617,0.504,5.889c0.603-6.522,0.414-13.252-0.568-19.766   c-0.971-6.517-2.725-12.81-5.016-18.535c-2.287-5.73-5.104-10.886-8.053-15.292c-2.949-4.412-6.021-8.075-8.785-10.985   c0,0-2.692-3.184-5.71-6.072c-2.986-2.918-6.269-5.512-6.269-5.512c4.001,2.927,8.146,6.594,10.933,9.342   c2.794,2.739,4.347,4.446,3.497,3.164c-3.046-3.511-4.459-4.755-6.159-6.375c-1.749-1.567-3.749-3.587-8.944-7.585   c1.976,1.083,6.521,4.264,11.136,8.476c-4.729-4.968-7.812-7.27-9.54-8.554c-1.757-1.26-2.253-1.44-2.517-1.503   c-0.269-0.056-0.313,0.016-1.242-0.617c-0.941-0.617-2.716-2.012-6.761-4.583c-3.748-2.11-6.903-3.408-9.205-4.205   c-2.307-0.792-3.768-1.09-4.266-1.081c0,0-3.587-1.438-7.308-2.517c-3.709-1.114-7.523-1.86-7.523-1.86   c-0.887,0.093-6.05-0.703-12.6-0.781c-3.272-0.043-6.882,0.079-10.434,0.434c-3.552,0.343-7.041,0.917-10.087,1.583   c-0.723,0.266,1.749-0.187,5.004-0.606c3.254-0.442,7.299-0.744,9.65-0.914c-0.456,0.205-3.985,0.453-8.396,1.156   c-4.416,0.674-9.683,1.908-13.712,3.184c-0.805,0.002-4.549,1.008-9.331,3.064c-4.788,2.033-10.535,5.231-15.494,8.842   c-4.997,3.576-9.158,7.498-11.719,10.014c-2.602,2.5-3.707,3.399-2.111,1.396c-27.122,27.572-65.471,66.061-83.232,84.398   c-6.143,5.762-18.283,17.883-11.336,10.289c-11.009,11.005-19.174,19.523-27.343,27.998c-1.021,1.059-2.042,2.117-3.068,3.181   c-1.031,1.139-2.46,2.224-4.005,2.865c-3.11,1.333-6.938,1.202-10.079-0.635c-3.129-1.79-5.47-5.306-5.634-9.293   c-0.091-1.975,0.338-4.03,1.321-5.876c0.496-0.918,1.117-1.787,1.864-2.552c0.674-0.667,1.357-1.343,2.051-2.029   c0.474-0.43,0.093-0.027-0.728,0.81c-0.206,0.209-0.438,0.445-0.692,0.703c-0.127,0.129-0.259,0.263-0.396,0.401   c-0.15,0.162-0.31,0.323-0.462,0.499c-0.613,0.703-1.209,1.552-1.659,2.492c-0.941,1.871-1.221,4.044-1.093,5.557   c0.124,1.523,0.483,2.394,0.471,2.079c-0.712-2.708-0.327-5.625,0.993-8.022c0.328-0.6,0.711-1.168,1.142-1.695   c0.217-0.263,0.444-0.516,0.682-0.758l0.648-0.652l2.587-2.581c3.482-3.422,7.006-6.885,10.78-10.593   c7.565-7.396,16.127-15.766,27.115-26.938c-3.715,3.74-4.66,4.97-5.106,5.56c-0.503,0.274,8.841-9.315,14.463-15.16   c3.281-3.162-4.208,4.375-2.313,2.654c21.571-21.235,40.274-40.241,58.912-59.255c4.659-4.754,9.315-9.507,14.009-14.297   c2.348-2.395,4.705-4.798,7.077-7.216c2.399-2.446,4.929-4.804,7.587-7.05c10.622-8.98,23.389-16.27,38.04-20.684   c-8.362,2.545-13.758,5.312-17.107,7.181c-3.344,1.908-4.67,2.983-4.69,3.133c0.001,0,3.682-2.115,7.535-3.89   c3.837-1.813,7.817-3.285,7.817-3.285c3.001-1.303,7.563-2.92,12.753-4.222c5.184-1.322,10.983-2.304,16.308-2.854   c1.322-0.004,6.51-0.158,1.234,0.31c8.379-0.423,15.852-0.058,22.919,0.824c7.064,0.896,13.736,2.318,20.459,4.431   c6.715,2.124,13.499,4.946,20.552,9.002c7.034,4.064,14.362,9.38,21.642,16.757c0,0-0.574-0.534-1.578-1.467   c-1.013-0.925-2.477-2.228-4.287-3.722c-3.615-2.996-8.674-6.704-14.061-9.854c-5.366-3.188-11.034-5.801-15.375-7.488   c-2.169-0.85-4.001-1.488-5.289-1.915c-1.292-0.415-2.029-0.652-2.029-0.652s2.872,1.086,5.663,2.349   c2.801,1.242,5.509,2.662,5.509,2.662c0,0-4.966-2.218-10.13-3.856c-2.575-0.837-5.185-1.553-7.151-2.041   c-1.967-0.488-3.289-0.758-3.289-0.758c12.457,3.313,22.806,7.867,23.952,9.021c-1.239-0.57-3.325-1.586-5.17-2.373   c-1.842-0.794-3.427-1.384-3.571-1.3c5.653,2.466,8.584,4.041,11.206,5.38c2.603,1.376,4.882,2.573,8.749,5.154   c-5.177-3.272-11.826-6.968-19.553-10.033c-7.709-3.085-16.483-5.515-25.477-6.749c-8.989-1.256-18.166-1.329-26.554-0.427   c-8.396,0.882-15.98,2.741-22.03,4.776c-1.895,0.671-1.102,0.334,0.256-0.191c1.366-0.505,3.288-1.216,3.625-1.341   c-5.025,1.443-8.983,2.823-13.166,4.553c-4.166,1.758-8.586,3.86-14.141,7.413c-3.329,2.388-1.981,1.586,0.901-0.185   c2.887-1.771,7.476-4.255,10.432-5.578c-0.632,0.744-3.661,1.962-9.799,5.702c-0.395,0.099-2.724,1.399-5.967,3.61   c-3.243,2.207-7.363,5.375-11.358,9.056c-0.999,0.919-1.992,1.866-2.97,2.83c-0.993,0.98-1.986,1.96-2.966,2.929   c-1.967,1.931-3.885,3.813-5.662,5.558c-3.565,3.478-6.593,6.375-8.369,7.941c-27.604,27.821,5.326-3.539-21.878,23.366   l-8.476,7.687c-15.401,16.012-35.444,36.596-53.301,54.285l3.732-3.757c2.326-2.664-1.9,1.354-3.812,3.092   c-6.8,6.631-13.098,13.084-18.762,18.847c-2.832,2.881-5.505,5.59-8.004,8.063c-0.686,0.674-1.097,1.068-1.489,1.62   c-0.386,0.529-0.704,1.09-0.942,1.671c-0.488,1.159-0.677,2.378-0.647,3.529c0.249,2.147,1.473,4.347,3.526,5.675   c2,1.341,4.805,1.683,7.193,0.662c0.596-0.246,1.156-0.582,1.676-0.974c0.253-0.206,0.507-0.414,0.736-0.652l0.877-0.903   c1.224-1.267,2.465-2.551,3.719-3.849c2.512-2.593,5.076-5.239,7.657-7.902c10.35-10.628,20.971-21.534,29.611-30.408   c5.246-4.204-22.405,23.29-29.367,30.902l15.941-15.945c-9.849,9.862-13.542,13.952-19.153,20.156   c14.069-13.875,18.208-18.927,31.322-32.305c-0.889,1.172,0.966-0.509,7.081-6.615l1.389-2.08c0.141-0.084,0.842-0.734,2.751-2.599   l23.357-23.78c-5.149,4.853-5.692,4.794-11.784,10.878c2.375-1.972-2.749,3.232-8.847,9.32c5.113-5.564-6.132,5.751-6.189,5.435   c12.224-12.206,27.186-27.261,35.099-35.363l2.92-2.284c11.721-11.56,23.837-24.032,31.825-31.834l-2.319,2.659   c3.501-3.482,6.989-6.95,10.445-10.388c1.697-1.703,3.479-3.505,5.332-5.167c1.848-1.67,3.753-3.256,5.705-4.752   c7.808-5.988,16.409-10.467,25.013-13.243c8.466-3.29,18.664-5.46,28.573-5.818c9.911-0.437,19.456,0.894,26.771,2.719   c1.975,0.413,6.227,1.628,11.531,3.962c5.303,2.318,11.619,5.822,17.656,10.377c6.058,4.53,11.795,10.08,16.473,15.756   c4.704,5.661,8.326,11.413,10.9,15.937c0.286,0.645-1.391-2.525-3.966-6.373c-2.547-3.869-6.119-8.294-8.533-10.866   c8.961,10.44,14.125,20.349,15.213,24.546c-1.465-3.571-2.762-6.136-3.746-7.982c-0.988-1.846-1.675-2.971-2.075-3.61   c-0.81-1.274-0.49-0.603,0.084,0.526c0.575,1.13,1.353,2.748,1.561,3.326c0.196,0.586-0.087,0.086-1.85-2.882   c3.649,6.182,6.571,12.997,8.498,19.163c1.952,6.165,2.956,11.646,3.506,15.131c-0.777-5.773-1.381-8.103-1.43-8.792   c-0.08-0.686,0.248,0.292,0.547,1.272c0.301,0.979,0.569,1.961,0.472,1.241c-0.13-0.71-0.482-3.17-2.229-8.847   c2.942,8.709,4.848,19.631,4.391,31.016c-0.393,11.375-3.185,23.098-7.767,33.132c-0.079-0.154-0.408,0.385-1.188,1.869   c-0.786,1.479-2.016,3.914-4.129,7.415c0,0-0.753,1.471-1.565,2.913c-0.805,1.446-1.673,2.86-1.672,2.86   c-3.035,4.167-0.143,0.101,1.71-3.066c0.933-1.58,1.635-2.915,1.464-2.732c-0.196,0.164-1.155,1.917-4.125,6.13   c-1.459,2.215-3.234,4.628-5.308,7.092c-2.039,2.462-4.53,4.999-6.907,7.364c-4.843,4.831-10.015,9.99-14.934,14.896   c-9.841,9.809-18.622,18.654-21.345,22.233c-11.309,10.633,20.533-21.219,3.585-5.099c9.31-9.928,22.932-22.842,25.675-26.44   c-9.305,9.549-3.802,3.079-9.889,9.157l-10.25,10.778l2.342-2.31c-17.24,18.048-45.389,45.81-67.853,68.41   c-18.654,19.517-31.171,33.276-54.11,56.122c6.505-7.01-19.255,18.77-5.307,3.896c-5.408,5.185-10.661,10.458-14.563,14.483   c-3.903,4.026-6.457,6.806-6.468,7.003c9.384-9.256,3.337-3.217,11.279-10.976c-5.073,5.525-17.298,17.73-22.463,22.601   c2.342-2.31,1.415-1.47,1.856-2.053c-2.675,2.603-4.369,4.284-5.499,5.439c-0.204,0.216-0.319,0.346-0.437,0.508   c-0.059,0.073-0.106,0.147-0.153,0.215c-0.037,0.048-0.155,0.26-0.221,0.369c-0.347,0.62-0.614,1.164-0.825,1.61   c-0.881,0.548-1.977,1.248-2.14,1.556c-0.051,0.058-0.105,0.118-0.163,0.184l-0.088,0.102c-0.059,0.063-0.12,0.127-0.182,0.194   c-0.262,0.273-0.559,0.584-0.899,0.94c-0.699,0.698-1.593,1.565-2.814,2.614c-1.606,1.085-6.895,5.371-13.861,8.599   c-3.458,1.634-7.281,3.021-10.953,3.961c-3.668,0.959-7.175,1.46-9.946,1.672c0-0.001-4.002,0.57-8.063,0.572   c-2.027,0.02-4.059-0.077-5.58-0.197c-1.521-0.128-2.532-0.257-2.532-0.257c2.228,0.236,2.377,0.158,1.311-0.012   c-1.064-0.189-3.339-0.558-5.923-1.191c-2.586-0.622-5.469-1.539-7.803-2.469c-2.333-0.932-4.131-1.83-4.659-2.199   c-5.284-2.376-9.932-5.149-14.659-9.057c-2.355-1.964-4.715-4.222-7.063-6.965c-2.344-2.741-4.686-5.965-6.838-9.878   c1.979,3.118-0.191-0.35-2.167-4.961c-0.995-2.301-1.885-4.9-2.454-6.955c-0.572-2.056-0.84-3.559-0.763-3.656   c-1.725-7.361-2.13-14.303-1.667-20.825c0.473-6.528,1.841-12.668,4.042-18.457c2.206-5.784,5.252-11.229,9.252-16.246   c1.005-1.25,2.058-2.481,3.184-3.673c1.165-1.226,2.232-2.27,3.337-3.367c2.213-2.19,4.51-4.427,6.921-6.73   c-0.515,0.656-4.124,4.661,1.465-0.776c4.257-4.427,11.896-11.993,16.509-16.673l-0.138,0.155c0.087-0.093,0.141-0.151,0.233-0.251   c2.259-2.291,3.652-3.759,3.636-3.888c7.657-8.247,11.455-12.648,26.854-28.55c-1.494,0.804-14.571,14.15-20.182,19.982   l-4.604,5.285c-5.246,4.205-14.022,14.203-17.796,17.627c8.777-9.998,35.965-36.886,51.809-53.48   c-10.37,9.408-31.958,30.846-50.669,49.675l8.474-8.061l-9.815,9.828l9.874-9.139c-9.368,9.239-17.315,17.375-25.745,25.762   c9.837-9.851,14.148-13.21,8.503-7.716c-2.828,2.658-4.942,4.716-6.654,6.438c-1.652,1.65-3.185,3.27-4.417,4.787   c-1.253,1.529-2.357,3.017-3.588,4.803c-1.221,1.793-2.59,3.875-4.183,6.721c3.46-6.438,9.87-13.405,6.156-8.597   c-4.086,4.918-6.721,9.519-8.665,13.713c-1.923,4.215-3.154,8.058-4.054,11.891c-0.883,3.839-1.439,7.681-1.659,12.017   c-0.203,4.331-0.09,9.185,0.877,14.998c0.166-1.529,1.259,5.787,4.588,13.227c1.616,3.724,3.732,7.439,5.714,10.272   c1.974,2.842,3.755,4.828,4.447,5.379c0,0-1.743-2.062-3.291-4.273c-1.573-2.195-2.922-4.535-2.923-4.535   c0,0,0.748,1.222,1.976,2.979c1.231,1.754,2.986,4.011,4.897,6.121c1.913,2.11,3.967,4.073,5.58,5.467   c1.615,1.391,2.744,2.251,2.744,2.251c1.989,1.707,3.332,2.722,4.115,3.332c0.782,0.613,1.009,0.82,0.872,0.792   c-0.276-0.053-1.979-1.097-3.344-2.032c-1.372-0.925-2.417-1.722-1.594-0.953c0.417,0.378,1.305,1.144,2.95,2.358   c1.649,1.205,4.06,2.87,7.65,4.772c6.692,3.397,12.153,4.821,16.557,5.666c4.428,0.81,7.875,0.992,11.1,0.99   c3.227-0.025,6.249-0.249,9.877-0.782c3.62-0.555,7.874-1.401,13.361-3.327c-3.511,1.501-9.825,3.596-17.807,4.188   c-3.979,0.304-8.348,0.234-12.85-0.361c-4.5-0.596-9.124-1.729-13.579-3.395c0,0,2.675,1.074,5.445,1.884   c2.761,0.835,5.598,1.396,5.598,1.396c-1.512-0.211-4.277-0.698-7.676-1.727c-3.399-1.012-7.428-2.571-11.419-4.705   c-3.997-2.119-7.938-4.809-11.317-7.682c-3.391-2.866-6.213-5.884-8.308-8.432c1.798,2.051,3.138,3.373,4.004,4.186   c0.863,0.816,1.254,1.128,1.235,1.083c-0.011-0.052-0.432-0.462-1.107-1.171c-0.677-0.707-1.625-1.7-2.682-2.928   c-2.128-2.441-4.688-5.828-6.727-9.317c-2.06-3.477-3.612-7.009-4.413-9.339c-0.56-0.755,0.473,2.101,0.93,3.221   c0.212,0.565,0.235,0.714-0.247-0.211c-0.469-0.93-1.493-2.922-2.883-6.838c1.207,3.699,2.451,6.506,3.655,8.934   c1.209,2.426,2.405,4.467,3.757,6.561c1.358,2.088,2.887,4.227,4.965,6.705c2.085,2.468,4.704,5.297,8.509,8.475   c-4.125-3.419-7.282-6.787-9.841-9.926c-2.558-3.143-4.5-6.063-6.09-8.735c-3.15-5.37-4.961-9.727-6.407-14.013   c-1.4-4.3-2.433-8.588-2.899-14.181c-0.226-2.795-0.283-5.913-0.012-9.511c0.271-3.593,0.897-7.667,2.188-12.256   c-1.077,4.262-1.204,6.08-1.193,6.298c0.044,0.227,0.338-1.119,0.846-3.036c0.506-1.918,1.257-4.399,2.042-6.48   c0.768-2.087,1.549-3.773,1.793-4.236c1.491-3.794,4.316-9.341,7.89-14.184c1.78-2.42,3.684-4.696,5.5-6.603   c1.667-1.724,3.129-3.233,4.205-4.347c0,0-1.087,0.85-2.175,1.699c-0.544,0.425-1.087,0.85-1.496,1.168   c-0.442,0.36-0.737,0.601-0.737,0.601c0.445-0.459,0.881-0.91,1.308-1.352c0.411-0.417,0.813-0.825,1.208-1.227   c0.795-0.796,1.561-1.562,2.301-2.302c1.488-1.475,2.888-2.833,4.234-4.122c2.693-2.577,5.172-4.873,7.708-7.244   c5.072-4.742,10.374-9.785,18.081-17.982c1.781-2.353-14.085,13.892-11.28,10.977c21.461-22.061,30.067-29.132,49.748-48.096   c0.949-1.235,0.422-1.312,6.928-8.322c-1.837,2.409,3.31-2.445-4.083,5.367c6.581-6.339,14.024-14.202,19.611-20.013   c-13.615,13.281,5.091-5.913,7.398-8.562c7.015-6.917-1.837,2.409-6.041,6.777c5.668-5.516,12.735-11.739,15.483-15.344   c0.26,0.041-3.45,4.147-8.512,9.549s-11.474,12.1-16.619,17.322l7.037-6.94c-4.661,4.968-5.605,5.826-12.591,12.717   c7.025-6.558,6.612-5.631,5.245-3.833c-0.934,0.846,0.424-0.567-0.469,0.24c-5.663,5.51-9.866,9.878-8.411,8.743   c-4.619,5.428,8.002-7.497,11.988-11.08c2.834-2.888,5.667-5.776,8.445-8.607l27.726-30.325   c12.25-12.552,18.136-17.816,27.646-26.935l2.21-2.904c10.825-10.754,21.117-20.827,14.642-13.471   c-0.505,0.273-1.901,1.725-4.262,4.051c-0.262,0.357-0.77,0.931-1.424,1.64c-0.199,0.25-0.31,0.389-0.475,0.596   c2.861-2.917,5.453-5.561,7.742-7.895c1.175-1.193,2.271-2.307,3.285-3.338c1.221-1.192,2.441-2.191,3.602-3.024   c2.325-1.667,4.385-2.679,5.882-3.324c1.502-0.645,2.452-0.933,2.721-1.026c-4,1.363-6.715,3.119-8.58,4.527   c-1.866,1.427-2.916,2.534-3.519,3.201c-0.314,0.351-0.452,0.536-0.529,0.657s-0.078,0.166-0.019,0.149   c0.06-0.017,0.181-0.095,0.348-0.22c0.189-0.151,0.437-0.35,0.726-0.582c1.162-0.958,3.079-2.329,4.529-3.072   c1.448-0.749,2.32-1.003,1.271-0.155c0,0,0.426-0.269,1.197-0.692c0.772-0.422,1.896-0.995,3.301-1.549   c2.795-1.135,6.774-2.092,10.817-2.083c4.042-0.043,8.047,0.877,10.871,1.994c1.42,0.545,2.558,1.113,3.34,1.531   c0.782,0.421,1.215,0.688,1.215,0.688c-2.088-1.31-3.799-2.056-5.045-2.561c-1.253-0.494-2.052-0.746-2.454-0.887   c-0.813-0.263-0.022-0.152,1.549,0.32c1.569,0.469,3.899,1.388,6.075,2.679c2.19,1.264,4.191,2.886,5.478,4.104   c0.26,0.432,1.606,1.778,3.223,4.008c1.612,2.222,3.427,5.397,4.563,9.142c1.163,3.729,1.601,7.987,1.193,11.925   c-0.377,3.945-1.575,7.521-2.871,10.106l0.271-0.814c-1.137,2.414-2.821,5.144-5.152,7.693c-0.293,0.316-0.591,0.634-0.901,0.944   c-0.274,0.273-0.552,0.549-0.831,0.828c-0.543,0.54-1.096,1.09-1.655,1.646c-1.117,1.116-2.262,2.26-3.42,3.417   c-4.622,4.633-9.416,9.491-13.382,13.55c0.482-0.25-9.246,10.611-13.85,15.897c13.899-13.64,5.866-5.33,7.185-6.218   c-1.444,1.405-4.011,3.963-4.265,4.306c-1.873,2.069,2.806-2.544,3.31-2.818c7.24-7.396,14.585-14.898,20.857-21.307   c1.559-1.612,3.05-3.155,4.456-4.611c0.7-0.731,1.378-1.441,2.033-2.126c0.333-0.351,0.66-0.696,0.981-1.035   c0.391-0.413,0.764-0.828,1.118-1.245c2.846-3.339,4.446-6.674,5.289-9.131c-1.67,3.546-3.48,6.376-5.717,9.007   c-0.284,0.324-0.569,0.65-0.869,0.967c-0.256,0.272-0.514,0.546-0.774,0.824c-0.499,0.521-1.008,1.053-1.533,1.602   c-1.058,1.09-2.199,2.23-3.493,3.451c0.874-0.941,1.778-1.915,2.716-2.925c0.965-1.014,1.964-2.064,2.998-3.151   c2.482-2.616,4.721-5.848,6.33-9.647c1.606-3.792,2.583-8.154,2.527-12.815c-0.047-4.648-1.136-9.615-3.584-14.285   c0,0-0.701-1.583-1.6-3.075c-0.874-1.506-1.938-2.897-1.938-2.897s-0.856-1.035-2.313-2.406c-1.451-1.377-3.566-3.042-5.89-4.371   c-2.315-1.343-4.812-2.333-6.728-2.893c-1.915-0.57-3.23-0.784-3.23-0.784c2.186,0.39,3.477,0.757,4.541,1.053   c1.063,0.308,1.901,0.563,3.107,1.053c1.197,0.504,2.794,1.22,5.131,2.828c2.287,1.639,5.431,4.143,8.532,8.979   c-0.591-1.302-3.747-6.291-9.779-10.122c-2.978-1.917-6.597-3.479-10.37-4.32c-3.771-0.865-7.663-1.01-11.136-0.633   c0,0-1.766,0.332-3.462,0.872c-1.706,0.516-3.321,1.237-3.321,1.237c0.623-0.277-0.683,0.038-2.597,0.828   c-1.92,0.776-4.385,2.145-6.188,3.46c-1.819,1.295-3.028,2.436-2.917,2.222c0.063-0.1,0.452-0.54,1.364-1.361   c0.915-0.813,2.354-2.027,4.658-3.412c0,0,0.467-0.285,1.313-0.731c0.846-0.444,2.074-1.05,3.609-1.631   c3.052-1.191,7.381-2.184,11.773-2.15c4.393-0.023,8.746,0.989,11.825,2.201c1.546,0.595,2.789,1.208,3.644,1.663   c0.854,0.456,1.326,0.746,1.326,0.746s-2.049-1.382-4.307-2.412c-2.24-1.063-4.637-1.752-4.637-1.752s0.459,0.11,1.254,0.339   c0.792,0.234,1.921,0.592,3.234,1.131c2.635,1.049,5.992,2.911,8.879,5.365c2.908,2.416,5.31,5.391,6.815,7.809   c0.759,1.206,1.313,2.257,1.682,3c0.367,0.746,0.555,1.182,0.555,1.182s-0.779-1.619-1.746-3.123   c-0.945-1.519-2.062-2.905-2.062-2.905c3.604,4.888,5.122,9.563,5.852,13.255c0.708,3.729,0.649,6.581,0.475,8.743   c-0.195,2.168-0.532,3.671-0.84,4.843c-0.318,1.17-0.619,2.013-0.945,2.845c-0.329,0.831-0.677,1.655-1.188,2.754   c-0.517,1.096-1.186,2.477-2.328,4.316c-0.574,0.917-1.268,1.949-2.155,3.08c-0.442,0.567-0.937,1.155-1.481,1.77   c-0.537,0.599-1.219,1.292-1.681,1.758c-2.06,2.115-4.643,4.767-7.922,8.135c-7.857,8.79-16.756,17.789-33.168,33.973   c11.688-11.897,0.883-1.54,5.051-6.247c-12.225,11.834-15.9,16.279-21.958,22.701c-3.311,2.817-5.691,4.795,5.09-5.914   c0.83-1.861-14.046,14.225-15.557,14.674c-35.582,35.613-26.809,30.239-69.084,71.188l1.346-1.773   c-13.079,13.345-23.493,23.765-33.675,33.928l-1.907,1.903l-0.251,0.256l-0.112,0.129c-0.069,0.088-0.134,0.177-0.19,0.27   c-0.223,0.371-0.353,0.811-0.356,1.271c0,0.461,0.125,0.909,0.353,1.289c0.223,0.383,0.605,0.731,1.002,0.935   c0.806,0.433,1.953,0.339,2.678-0.294c2.622-2.645,5.341-5.387,8.194-8.265l19.81-18.721c-4.224,4.392-15.401,16.383-9.732,11.239   c-4.961,4.41-9.88,9.149-14.857,14.012l-1.869,1.829l-0.469,0.458l-0.226,0.208c-0.126,0.099-0.247,0.201-0.382,0.28   c-0.522,0.336-1.133,0.531-1.764,0.55c-1.268,0.059-2.469-0.643-3.034-1.717c-0.204-0.156-0.133,0.214,0.214,0.69   c0.339,0.49,0.979,0.932,1.423,1.121c-0.771-0.246-1.349-0.724-1.758-1.267c-0.391-0.546-0.612-1.139-0.676-1.792   c-0.061-0.65,0.038-1.354,0.358-2.029c0.168-0.334,0.375-0.67,0.69-0.989c0.84-0.854,1.741-1.771,2.717-2.763   c-0.125,0.068-0.777,0.66-1.581,1.404c-0.398,0.371-0.835,0.777-1.264,1.176c-0.176,0.147-0.329,0.307-0.457,0.449   c-0.253,0.286-0.393,0.518-0.4,0.451c-0.004-0.033,0.028-0.139,0.13-0.332c0.051-0.098,0.119-0.217,0.219-0.353   c0.046-0.072,0.107-0.143,0.17-0.223c0.029-0.041,0.071-0.077,0.106-0.12l0.058-0.065l0.15-0.154l11.287-10.608   c14.486-14.81,6.402-8.026,23.763-25.075c-2.896,3.502-8.991,10.472-15.581,17.207c7.927-7.797-10.298,10.663-2.942,3.669   c10.876-11.773,16.7-16.887,31.478-32.226c-1.706,1.83-2.085,2.386-5.763,6.119l22.04-21.662   c-5.668,5.145,17.761-18.337,15.339-16.693c-23.448,23.125-16.371,16.518-43.127,42.833c7.424-7.601,16.714-17.684,20.889-22.587   c0.246-0.216,0.642-0.586,1.465-1.396c3.669-4.44-0.568-0.41-1.163-1.163c-11.634,12.593-20.127,20.297-34.139,34.859   c-2.317,3.056,8.76-7.819,15.767-15.016L180.7,348.287l2.308-2.647c0,0-8.018,7.956-16.036,15.912   c-4.009,3.978-8.018,7.956-11.025,10.939c-1.502,1.491-2.755,2.733-3.631,3.604c-0.51,0.518-0.722,0.867-0.722,0.867   c0.168-0.26,0.36-0.489,0.549-0.707l0.146-0.158l0.238-0.245c0.166-0.169,0.327-0.334,0.486-0.496   c0.63-0.653,1.209-1.253,1.747-1.81c1.068-1.118,1.958-2.075,2.752-2.946c1.573-1.757,2.806-3.133,4.298-4.8   c-2.068,2.054-4.148,4.077-6.266,6.116c-1.062,1.018-2.13,2.042-3.21,3.077c-0.62,0.592-0.908,0.854-1.231,1.258   c-0.316,0.389-0.582,0.82-0.803,1.279c0.407-0.29,0.618-0.232,0.563,0.237c-0.024,0.469-0.382,1.402-0.238,3.069   c0.199,2.125,1.616,3.909,3.341,4.71c1.728,0.83,3.744,0.704,5.26-0.081c0.382-0.195,0.738-0.429,1.065-0.694   c0.082-0.067,0.165-0.133,0.24-0.206c0.072-0.064,0.152-0.135,0.292-0.274c0.247-0.24,0.492-0.479,0.736-0.716   c0.975-0.946,1.92-1.863,2.837-2.753c1.841-1.771,3.568-3.435,5.192-4.998c6.514-6.234,11.447-10.808,15.441-14.399   c0.78-0.797,1.661-1.695,2.369-2.418c-3.808,3.085,13.948-15.246,19.948-21.984c0.058,0.688,10.817-10.369,16.932-16.104   c2.726-3.582-2.072,0.034-9.636,6.898c-13.508,14.29-7.394,8.183-13.405,15.306l-21.925,22.666l4.642-5.326   c-11.278,10.978-21.516,22.118-21.144,20.856c5.583-6.176,15.472-15.705,21.009-21.836l-7.523,7.197   c12.55-13.423,7.077-6.235,22.496-22.264c-6.161,5.406,1.398-1.452,7.88-8.441c-5.669,5.144-27.577,27.794-23.494,22.427   c7.896-8.458,28.263-26.759,38.442-38.215l-0.457,0.602c16.043-15.877,21.286-21.853,27.03-28.059   c7-6.584,16.083-16.253,23.42-23.637l0.007,0.367l10.307-10.464c-4.604,5.285-12.179,12.161-21.05,21.132l1.456-0.763   c-10.695,9.871-16.928,17.356-24.604,25.63c11.306-11.907,32.86-32.69,34.908-36.095l7.53-6.83l3.31-3.562   c5.612-5.087,0.563,0.788-9.732,11.239c-1.89,1.715-2.835,2.572-2.36,1.954c-4.66,4.97-8.812,9.66-20.543,21.232l6.034-6.401   c-14.532,14.482-27.587,27.806-32.213,33.113c21.088-20.799,41.714-41.363,61.363-61.045c5.017-6.584,11.458-13.906,13.686-17.592   c6.53-6.665,14.249-14.5,21.801-22.069c3.713-3.708,7.372-7.364,10.807-10.795c2.863-3.037,5.03-6.311,6.59-9.357   c0,0-0.093,0.306-0.185,0.611c-0.099,0.304-0.196,0.609-0.196,0.609c3.214-5.926,4.377-12.242,4.313-17.394   c0.084-1.775,0.093-2.366,0.17-2.323c0.065,0.043,0.164,0.719,0.227,1.469c0.127,1.498,0.14,3.291,0.296,0.775   c0,0,0.026-1.449-0.168-3.607c-0.187-2.157-0.672-5.014-1.509-7.767c-0.816-2.759-1.98-5.394-3.01-7.276   c-1.023-1.888-1.838-3.066-1.838-3.066c0.563,0.442,3.581,4.807,5.234,10.826c0.84,2.986,1.342,6.325,1.415,9.482   c0.08,3.158-0.239,6.118-0.675,8.393c0.339-1.723,0.553-5.248,0.385-4.125c-0.269,2.671-0.826,5.901-1.892,9.191   c-1.047,3.294-2.617,6.625-4.522,9.528c-0.949,1.454-1.969,2.807-3.017,4.014c-0.521,0.606-1.047,1.176-1.571,1.708   c-0.593,0.592-1.162,1.16-1.703,1.699c-2.228,2.195-4.025,3.884-5.104,4.725c-4.197,4.363,8.343-9.047-6.172,5.418   c-9.883,9.523-12.614,13.111-13.484,14.268c0.029,0.345,15.483-14.972,10.37-9.408c3.764-3.788,6.338-6.494,9.2-9.438   c1.432-1.472,2.935-3.003,4.695-4.759c0.852-0.847,1.763-1.752,2.753-2.736c0.882-0.904,1.8-1.916,2.741-3.075   c-0.706,0.917-1.48,1.847-2.314,2.768c-0.205,0.233-0.42,0.461-0.637,0.688l-0.696,0.728c-0.503,0.519-1.01,1.042-1.519,1.567   c-2.033,2.103-4.094,4.236-6.047,6.258c-3.914,4.037-7.43,7.597-9.568,9.445c-14.452,15.148-11.452,13.902-4.426,6.973   c-1.937,1.386,26.659-27.337,6.895-8.289c2.091-2.268,4.654-4.964,7.498-7.915c1.426-1.472,2.917-3.011,4.452-4.595   c0.77-0.79,1.55-1.59,2.338-2.399c0.389-0.399,0.779-0.8,1.171-1.203c0.351-0.366,0.699-0.734,1.037-1.116   c2.725-3.028,5.032-6.544,6.694-10.217c1.673-3.669,2.698-7.479,3.159-10.992l-0.004,0.653c0,0,0.191-1.087,0.354-2.733   c0.167-1.646,0.245-3.854,0.127-6.055c-0.119-2.201-0.436-4.384-0.776-5.998c-0.336-1.615-0.644-2.671-0.644-2.671   c0.4,1.174,0.875,3.071,1.192,4.712c0.318,1.641,0.499,3.02,0.636,3.1c0,0-0.115-1.543-0.549-3.812   c-0.429-2.267-1.235-5.244-2.437-8.056c-1.177-2.821-2.714-5.463-4.027-7.321c-1.307-1.865-2.311-3.001-2.311-3.001   c2.194,2.613,2.795,3.649,2.73,3.388c-0.092-0.238-0.945-1.702-2.372-3.531c-1.412-1.836-3.435-4.008-5.536-5.802   c-2.087-1.812-4.234-3.241-5.563-4.077c-0.61-0.255-1.616-0.677-2.652-1.111c-1.04-0.416-2.125-0.793-2.873-1.015   c-0.752-0.213-1.159-0.291-0.858-0.105c0.295,0.197,1.321,0.612,3.318,1.641c2.229,1.187,3.579,2.095,4.554,2.733   c0.971,0.646,1.559,1.037,2.123,1.413c0.563,0.379,1.111,0.736,1.942,1.395c0.829,0.659,1.951,1.62,3.521,3.324   c0,0-2.303-2.365-4.969-4.237c-2.625-1.935-5.536-3.335-5.536-3.336l-0.943-0.577c0,0-1.78-0.789-3.622-1.374   c-1.839-0.603-3.72-1-3.72-1c-2.083-0.604-3.57-0.885-4.574-1.088c-1.006-0.198-1.538-0.299-1.756-0.38   c-0.439-0.157,0.372-0.206,1.035-0.23c0.661-0.021,1.174-0.04,0.108-0.245c-0.534-0.087-1.464-0.232-2.976-0.316   c-1.509-0.077-3.607-0.12-6.424,0.206c0,0,0.751,0.103,1.49,0.246c0.74,0.134,1.468,0.296,1.468,0.296   c-6.437,0.09-13.345,1.836-19.391,5.433c-1.515,0.887-2.968,1.895-4.36,2.987c-0.689,0.555-1.374,1.118-2.026,1.72   c-0.333,0.293-0.648,0.605-0.973,0.909l-1.104,1.078c-2.966,2.902-5.919,5.791-8.822,8.631   c-11.609,11.365-22.391,21.98-29.869,29.69c3.904-4.476,5.291-6.783-0.742-1.294c6.636-6.463,19.779-19.642,29.125-29.083   c1.896-1.719-11.142,12.331-21.455,22.427c5.768-4.121,25.171-26.166,27.206-26.531c1.639-1.611,3.149-3.096,4.547-4.469   c0.737-0.727,1.271-1.26,1.855-1.789c0.571-0.531,1.14-1.017,1.691-1.476c2.213-1.827,4.228-3.128,6.013-4.163   c3.594-2.033,6.251-3.059,8.805-3.886c2.565-0.789,5.074-1.38,8.662-1.589c1.793-0.089,3.859-0.073,6.305,0.236   c2.44,0.308,5.269,0.901,8.468,2.09c0.261-0.188,2.133,0.386,4.048,1.227c1.924,0.823,3.855,1.931,4.593,2.13   c-1.616-1.273-4.52-3.058-8.475-4.445c-3.938-1.394-8.935-2.339-14.244-2.165c-5.305,0.143-10.865,1.424-15.778,3.662   c-4.94,2.221-9.159,5.336-12.432,8.546c0.647-0.673,1.572-1.599,2.475-2.416c0.905-0.8,1.708-1.51,1.973-1.745   c-2.664,1.925-4.523,3.842-6.564,5.875c-1.944,1.952-3.652,3.667-5.265,5.287c-3.207,3.255-5.997,6.156-9.504,9.802l0.945-0.857   c-12.132,12.861-8.01,7.455-15.529,14.645c-2.794,2.905-13.128,13.024-11.211,11.654l-13.672,12.965l1.058-0.226   c-7.488,7.537-9.407,8.906-15.962,15.969l0.057,0.688l18.787-18.528c-9.333,9.577-2.279,2.992-12.591,13.46   c11.199-12.014-8.417,8.004-9.906,8.802l-7.433,7.852l1.855-2.053c-6.189,5.806-7.002,7.279-14.051,14.231   c8.463-8.049,14.131-13.193,24.387-23.978c-7.45,7.868-22.406,23.289-26.122,27.029c-7.886,8.198-13.784,13.528-21.35,21.011   c14.29-14.589-6.187,3.928,23.016-24.74c-0.464,0.606-2.823,2.933-3.773,3.796c4.333-3.382,17.315-17.375,23.407-23.831   c-1.89,1.342,4.603-5.287-6.671,5.685c3.825-3.474-8.76,9.981-19.566,20.339l1.278-2.45l-15.478,15.339l1.414-1.47   c-6.172,5.418-16.366,16.512-27.197,26.899c-7.45,7.869-37.001,37.088-23.745,25.059c-2.473,2.289-4.82,4.558-7.112,6.836   c-1.17,1.162-2.228,2.224-3.254,3.359c-1.025,1.133-2.011,2.301-2.962,3.507c-3.792,4.832-7.047,10.246-9.857,16.581   c0,0,1.835-3.922,4.154-7.562c2.272-3.67,4.999-7.008,4.999-7.008c-2.981,4.125-4.644,7.146-5.843,9.399   c-1.182,2.266-1.869,3.794-2.471,5.219c-0.597,1.428-1.101,2.758-1.726,4.702c-0.609,1.947-1.361,4.512-2.1,8.46   c-0.622,1.511-1.498,5.013-1.074,1.749c-1.465,6.625-2.115,14.2-1.483,21.892c0.609,7.689,2.515,15.455,5.455,22.402   c2.92,6.962,6.845,13.075,10.891,17.893c4.042,4.836,8.162,8.399,11.356,10.732c3.721,2.967,6.867,5.035,9.767,6.77   c2.909,1.722,5.581,3.112,8.564,4.408c2.986,1.286,6.289,2.492,10.542,3.523c4.25,1.004,9.477,1.866,16.222,1.829   c2.838-0.065,1.727-0.271,2.138-0.418c0.205-0.082,0.788-0.147,2.422-0.263c1.632-0.134,4.326-0.275,8.701-0.968   c0.598-0.053-3.587,0.795-5.529,1.081c-0.967,0.16-1.358,0.257-0.269,0.204c1.083-0.081,3.673-0.229,8.535-1.258   c6.045-1.568,12.903-3.841,19.685-7.445c3.386-1.796,6.746-3.912,9.94-6.354c1.595-1.223,3.154-2.52,4.651-3.897   c0.749-0.688,1.487-1.393,2.204-2.118l0.209-0.214c0.048-0.049,0.093-0.1,0.136-0.151c0.09-0.102,0.172-0.208,0.251-0.317   c0.087-0.118,0.326-0.521,0.54-0.907l0.642-1.175l1.229-0.693c0.208-0.119,0.417-0.24,0.552-0.33l0.224-0.142l0.082-0.067   c0.109-0.088,0.212-0.185,0.315-0.282l0.442-0.457l2.379-2.494c7.5-7.176,20.172-19.97,17.876-16.96   c-3.543,3.522-7.533,7.489-11.438,11.372c-1.942,1.951-3.863,3.881-5.696,5.723c-0.915,0.923-1.807,1.824-2.669,2.695l-0.511,0.512   c-0.122,0.111-0.242,0.22-0.369,0.317l-0.094,0.074l-0.223,0.142c-0.135,0.09-0.342,0.208-0.54,0.322   c-0.395,0.222-0.785,0.441-1.17,0.658c-0.281,0.506-0.558,1.005-0.83,1.495l-0.179,0.296c-0.062,0.102-0.119,0.193-0.137,0.21   c-0.056,0.078-0.113,0.154-0.173,0.227c-0.129,0.161-0.214,0.257-0.397,0.445c-0.219,0.222-0.435,0.439-0.645,0.651   c-0.845,0.845-1.632,1.591-2.329,2.238c-1.396,1.295-2.436,2.189-2.919,2.637c1.529-1.487-8.939,6.405-0.023-0.661   c-4.603,3.579-7.949,5.517-10.403,6.922c-2.469,1.386-4.092,2.197-5.655,2.963c-1.569,0.753-3.086,1.452-5.47,2.334   c-2.387,0.858-5.643,1.952-10.793,2.906c-0.693,0.226,1.992-0.087,5.346-0.9c3.359-0.787,7.328-2.194,9.362-3.171   c0.087,0.138-2.238,1.291-5.648,2.481c-3.401,1.209-7.903,2.361-11.905,3.001c-4,0.668-7.471,0.877-8.745,1.014   c-1.276,0.097-0.361,0.333,4.39,0.154c5.689-0.52,10.295-1.626,14.239-2.89c3.946-1.276,7.242-2.73,10.348-4.307   c3.102-1.588,6.018-3.308,9.128-5.364c3.105-2.066,6.414-4.468,10.141-7.662c-2.737,2.832-6.68,6.04-11.179,8.887   c-4.489,2.869-9.511,5.362-14.144,7.385c0-0.001,3.872-1.281,7.564-3.021c3.714-1.694,7.206-3.829,7.206-3.828   c0-0.001,2.457-1.67,4.748-3.544c2.308-1.854,4.442-3.894,4.442-3.894l-0.464,0.536c1.301-1.063,2.482-2.109,3.563-3.12   c0.268-0.255,0.532-0.506,0.791-0.753c0.238-0.229,0.376-0.371,0.547-0.572c0.218-0.178,0.868-1.276,1.282-2.034   c0.393-0.21,0.781-0.422,1.155-0.643c0.394-0.227,0.651-0.407,0.783-0.511c0.34-0.266,0.572-0.496,1.031-0.955   c0.807-0.811,1.567-1.573,2.288-2.298c1.436-1.453,2.703-2.76,3.862-3.976c2.318-2.432,4.205-4.499,6.15-6.645   c3.889-4.293,8.009-8.902,16.27-17.379c-11.32,10.643,1.695-3.386-6.774,4.669c12.615-12.739,21.988-21.983,22.561-21.58   c-23.317,24.112-0.83,1.862-22.268,24.271c3.773-3.424-4.507,5.935,8.612-7.077c14.373-15.069-4.81,3.998,9.71-10.845   c0.911-0.824,1.856-1.681,1.415-1.097c6.499-7.006,7.969-7.787,15.861-16.239l-1.839,2.035c10.37-9.778,10.686-11.356,19.68-19.706   c-3.83,3.106,5.526-6.12,10.679-11.724c-8.928,8.653-14.206,12.893-31.521,30.268c-1.81,2.381-0.383,1.272-7.368,8.535   l11.239-11.31c-2.366,2.499-4.169,4.402-6.338,6.693l-10.978,10.682c13.525-13.935,6.923-7.944,12.46-14.076   c12.688-12.438,10.289-10.446,18.283-18.254c-0.374,1.214,24.944-23.51,39.682-37.708c-2.253,2.242-5.16,5.135-6.729,6.696   c-10.243,10.774,7.581-6.88,8.086-7.153l7.448-7.869c-1.413,1.471-3.309,3.562,0.018,0.355   c10.289-10.446,9.271-10.26,19.543-20.689c1.008-0.546-7.393,8.557-0.834,2.241c2.421-2.018,10.024-8.549,23.573-22.505   c0.885-1.063,4.4-4.678,8.496-8.85c-0.563,0.587-1.273,1.317-1.517,1.593l9.387-8.883c-7.389,8.177-15.927,15.555-23.353,23.772   l-0.289,1.039c-6.087,6.09-14.191,14.519-17.799,18.514c9.345-9.217,11.2-11.27,21.501-21.727c1.69-1.216-5.443,6.271-6.471,7.349   l1.335-1.762c-12.689,12.067-18.146,18.864-33.623,34.203c-2.342,2.311-0.95,0.863-0.503,0.274   c-12.111,12.837-24.847,24.577-36.491,37.181l3.755-4.15c-8.075,8.436-23.863,24.929-39.64,41.41l0.017,0.275   c1.879-1.703-4.18,4.346-7.489,7.536l0.015-0.02c-7.918,8.257-15.527,16.191-21.751,22.683c2.123-1.943,4.8-4.47,7.806-7.434   c2.357-2.7,17.32-17.382,14.898-15.737c7.083-6.613,17.778-17.982,22.955-22.864c-9.413,8.912,6.013-6.748,7.403-8.567   c3.326-2.835,13.56-13.597,12.69-12.067c1.894-1.722-4.719,4.281-8.418,8.376c-9.289,9.904,17.841-17.3,6.178-5.052   c14.974-15.437,35.111-35.374,50.491-51.362l-8.915,8.646c7.021-6.924,23.447-23.498,24.841-24.572   c-5.152,5.211-11.172,11.299-17.763,17.965c0.052,0.693,15.924-15.929,16.892-16.437l18.632-19.866l-8.452,8.41   c5.085-5.537,22.985-22.891,36.103-35.904c-6.984,8.006-19.697,19.724-33.239,33.675c-9.791,10.179,6.659-5.674-2.668,3.898   c2.568-2.331,8.721-8.512,11.634-11.682l3.821-3.636c-7.967,8.895-26.971,27.69-39.151,40.671c1.054-1.153,1.964-2.169,2.26-2.571   c-9.867,9.506-19.698,19.352-29.02,28.919c5.143-4.849,7.02-6.925,9.82-9.834c0.47-0.24-8.396,8.725-11.642,12.225   c8.921-8.65,1.912-1.365,7.548-6.847c-5.611,5.832-10.278,10.435-17.3,17.357c-3.791,3.44,2.749-3.231,1.782-2.723   c-7.043,7.317-10.876,10.052-21.119,20.825c14.075-13.881-3.183,4.184-7.844,9.152l2.359-2.326   c-4.163,4.701-7.913,8.475-11.224,11.291c5.611-5.832,11.224-11.291,9.322-9.938c-3.768,3.79-7.523,7.569-11.721,11.933l3.693-4.09   l-18.724,18.839c-2.732,3.216-7.358,8.523-9.604,11.482c-4.724,4.286-10.815,10.742-15.006,15.101l1.887-2.089   c-2.091,1.989-4.774,4.617-7.65,7.474c-1.434,1.433-2.92,2.918-4.41,4.405c-0.741,0.747-1.483,1.494-2.22,2.235   c-0.502,0.51-1.116,1.052-1.727,1.504l-0.258,0.187l-0.137,0.094c-0.086,0.055-0.174,0.107-0.263,0.156l-0.152,0.276   c-0.047,0.077-0.11,0.179-0.281,0.414c-0.449,0.616-0.967,1.214-1.467,1.719c-0.751,0.762-1.493,1.49-2.217,2.181   c-1.452,1.377-2.832,2.599-4.053,3.634c-2.447,2.066-4.243,3.399-4.685,3.806c-1.734,1.099,0.071-0.202,3.018-2.677   c1.467-1.244,3.206-2.798,4.918-4.491c0.858-0.845,1.711-1.723,2.529-2.605c0.17-0.184,0.502-0.533,0.75-0.834   c0.263-0.31,0.507-0.632,0.738-0.959c0.222-0.313,0.265-0.41,0.327-0.527c0.059-0.114,0.111-0.232,0.162-0.351   c0.093-0.062,0.184-0.125,0.272-0.192c0.111-0.088,0.221-0.176,0.329-0.261c0.431-0.338,0.967-0.807,1.37-1.22l0.304-0.315   l0.207-0.229c0.136-0.151,0.268-0.298,0.396-0.441c0.256-0.286,0.497-0.557,0.722-0.808c0.894-1.008,1.5-1.722,1.666-1.98   c0.165-0.259-0.114-0.062-0.99,0.751c-0.433,0.413-1.02,0.974-1.784,1.702c-0.189,0.184-0.389,0.378-0.6,0.584   c-0.264,0.257-0.588,0.56-0.927,0.837c-0.33,0.278-0.778,0.604-0.953,0.718c-0.17,0.11-0.351,0.217-0.546,0.318   c-0.065,0.115-0.132,0.234-0.207,0.354l-0.117,0.179l-0.181,0.255c-0.413,0.565-0.948,1.178-1.458,1.677   c-0.863,0.86-1.828,1.781-2.905,2.76c-2.157,1.953-4.769,4.136-7.982,6.41c-4.831,3.362-8.25,5.182-10.61,6.477   c-2.375,1.271-3.729,1.979-4.789,2.578c-1.063,0.593-1.839,1.062-3.144,1.688c-1.308,0.617-3.144,1.413-6.407,2.408   c0,0,0.715-0.298-0.605-0.002c-5.059,1.285-7.893,1.768-10.494,2.243c-2.606,0.436-5,0.843-9.308,1.041   c3.145,0.011,7-0.258,10.401-0.766c3.403-0.492,6.343-1.198,7.752-1.616c-1.479,0.579-6.843,1.816-12.917,2.287   c-3.033,0.25-6.23,0.328-9.167,0.268c-2.938-0.06-5.613-0.25-7.625-0.404c2.619,0.126,2.66,0.007,1.386-0.158   c-1.274-0.178-3.861-0.496-6.495-0.98c-5.281-0.934-10.685-2.607-6.752-1.655c-5.004-1.422-9.967-3.292-14.634-5.528   c-4.668-2.236-9.042-4.83-12.934-7.575c-7.816-5.478-13.628-11.518-17.196-15.699c-4.058-5.838-7.324-11.135-10.414-17.772   c-1.524-3.323-2.972-6.997-4.213-11.283c-1.23-4.284-2.258-9.189-2.726-14.921c0.159,1.759,0.481,4.227,0.973,6.843   c0.484,2.618,1.134,5.381,1.764,7.771c1.029,3.113,1.191,3.212,0.842,1.96c-0.335-1.257-1.059-3.908-1.569-6.382   c-0.526-2.471-0.862-4.751-0.876-5.172c0.016-0.428,0.183,1.039,1.39,5.895c-0.965-4.172-0.431-0.213,0.848,4.004   c2.124,7.419,5.632,13.802,4.983,11.962c0,0-1.877-4.242-3.211-8.666c-1.385-4.41-2.216-8.945-2.217-8.945   c0,0,0.364,1.565,0.792,3.113c0.422,1.549,0.912,3.077,0.912,3.077c0,0-0.48-1.679-1.038-4.231   c-0.562-2.552-1.153-5.987-1.489-9.446c-0.347-3.459-0.438-6.932-0.387-9.53c0.046-2.599,0.186-4.325,0.186-4.325   c-0.066-0.758-0.315,1.834-0.375,3.172c0.132-8.053,1.442-16.375,4.021-24.393c2.569-8.019,6.419-15.713,11.282-22.54   c2.429-3.415,5.102-6.617,7.955-9.563c2.787-2.805,5.534-5.569,8.226-8.278c5.38-5.381,10.534-10.536,15.324-15.326   c2.61-4.587,46.741-47.589,61.615-63.677c-3.867,4.434-5.636,7.204-2.863,4.841c-3.41,3.494-10.079,10.961-17.99,18.706   c-1.409,1.092-11.258,10.581-5.217,4.177c-21.523,21.749,3.362-2.495-2.657,4.259c23.877-24.07,37.361-38.711,52.261-54.076   l0.5-0.267l11.206-11.647c-9.403,9.271-9.501,8.25,2.729-3.589l-1.437,1.492c7.1-6.629,21.105-21.188,31.864-31.874l6.946-7.595   c5.388-5.351,8.348-7.992,10.444-9.686c1.066-0.861,1.834-1.425,2.732-2.083c0.876-0.645,1.75-1.239,2.844-2.003   c4.908-4.132,10.033-6.903,14.975-8.762c4.955-1.855,9.752-2.814,14.358-3.157c4.61-0.335,9.043-0.059,13.377,0.766   c4.331,0.835,8.571,2.231,12.736,4.312c1.814,1.06,5.276,3.16,8.676,6.142c3.428,2.94,6.729,6.751,8.966,10.188   c2.266,3.421,3.551,6.357,3.852,7.178c0.144,0.416,0.059,0.302-0.368-0.477c-0.427-0.778-1.182-2.233-2.56-4.383   c3.073,4.927,4.622,8.738,5.809,12.006c1.15,3.287,1.911,6.091,2.42,9.485c0.467,3.387,0.74,7.417-0.155,13.042   c-0.465,2.802-1.248,6-2.664,9.57c-1.422,3.56-3.47,7.515-6.584,11.561c0,0,1.501-2.186,2.728-4.525   c1.26-2.322,2.229-4.77,2.229-4.77c-1.954,4.425-4.676,8.81-8.131,12.765c-0.427,0.499-0.878,0.979-1.325,1.465l-1.339,1.376   c-0.85,0.86-1.705,1.726-2.563,2.596c-1.717,1.741-3.449,3.498-5.189,5.262c-6.956,7.063-14.032,14.249-20.691,21.012   c-13.324,13.522-25.009,25.327-30.878,30.93c8.273-10.097-32.025,30.17-37.345,33.703c1.438-1.029-7.849,8.393-9.102,9.865   c-2.155,1.944-5.669,5.256-9.106,9.062c9.888-9.529-5.898,7.753,12.303-11.169c-8.781,10.006-20.404,22.587-41.013,43.134   l-0.063-0.683l16.395-16.167c-1.92,1.369,6.481-6.99,9.79-10.552c-30.496,30.077,3.092-4.838-27.822,26.174   c-2.749,3.231-0.911,1.195-8.863,9.338c3.772-3.797,4.197-4.734-1.907,1.359l-5.559,6.154   c-11.434,10.191,17.492-18.302,7.831-9.514c11.663-12.249,32.214-33.113,27.881-29.73c-19.697,19.352-16.674,18.456-37.305,38.654   l-2.376,1.972c-3.521,3.659-5.49,5.86-7.045,7.663c-0.809,0.9-1.337,1.673-2.404,2.665c-1.001,0.904-2.215,1.722-3.859,2.329   c-0.325,0.001-1.264,0.297-3.15,0.369c-0.939,0.021-2.121-0.037-3.516-0.385c-1.384-0.354-3.004-0.997-4.587-2.226   c-2.139-1.521-3.698-3.687-4.494-6.032c-0.804-2.347-0.867-4.848-0.285-7.135c0.289-1.145,0.736-2.241,1.322-3.243   c0.286-0.507,0.622-0.979,0.969-1.438c0.183-0.221,0.358-0.45,0.554-0.658l0.517-0.56c1.222-1.298,2.424-2.574,3.618-3.842   c4.777-5.074,9.431-10.037,14.761-15.891c-7.344,7.54-12.629,12.878-16.901,17.13c-0.535,0.53-1.053,1.045-1.556,1.545   c-0.254,0.251-0.504,0.499-0.75,0.743c-0.331,0.332-0.643,0.676-0.936,1.028c-1.167,1.419-1.99,3.003-2.492,4.611   c-0.997,3.225-0.784,6.534,0.435,9.452c1.224,2.92,3.449,5.453,6.569,7.021c3.092,1.548,7.156,2.073,11.218,0.496   c1.009-0.391,2-0.926,2.943-1.591c0.931-0.626,1.902-1.608,2.416-2.133c1.247-1.255,2.581-2.596,4.017-4.04   c2.856-2.904,6.122-6.226,9.931-10.098c-1.165,1.242-3.384,3.533-6.069,6.299c-1.343,1.383-2.802,2.886-4.305,4.435   c-0.751,0.774-1.513,1.562-2.277,2.35l-1.146,1.186l-0.572,0.592c-0.234,0.232-0.534,0.536-0.818,0.779   c-2.315,2.068-5.3,3.272-8.149,3.521c-2.861,0.273-5.567-0.354-7.678-1.375c-2.129-1.019-3.656-2.37-4.675-3.475   c-1.024-1.112-1.58-1.979-1.83-2.239c0,0,0.188,0.066,0.377,0.133c0.188,0.061,0.377,0.121,0.377,0.121   c-2.734-4.328-2.928-10.131-0.317-14.725c0.63-1.135,1.471-2.228,2.347-3.117c0.63-0.649,1.263-1.303,1.9-1.959   c1.277-1.31,2.569-2.635,3.88-3.979c5.257-5.37,10.873-11.021,17.208-17.233l-7.449,7.869   c16.371-16.89,28.212-27.079,40.712-40.822c-4.668,4.603-8.418,8.375-11.223,11.293c8.394-8.727,19.17-19.429,28.538-28.669   l18.632-19.864c0.016,0.354,12.226-11.833,6.636-5.652c14.143-13.576,20.121-20.665,28.036-28.765   c14.588-13.795-12.117,12.47-12.993,14.376c19.727-19.38,40.294-40.261,50.991-51.628c-4.063,3.912-6.064,5.785-5.952,5.492   c0.709-0.474,8.558-8.383,12.953-12.772c0,0,0.174-0.204,0.435-0.509c0.291-0.339,0.517-0.623,0.787-0.983   c0.522-0.686,0.97-1.411,0.97-1.411c1.301-1.592,2.026-2.887,2.48-3.714c0.451-0.831,0.637-1.204,0.668-1.117   c0.02,0.143-0.477,2.229-2.558,5.2c2.534-3.18,4.09-7.573,4.161-12.025c0.11-4.468-1.213-8.854-3.29-12.445   c1.981,2.816,3.308,6.419,3.563,10.16c0.282,3.739-0.51,7.547-2.073,10.721c-0.777,1.591-1.73,3.034-2.785,4.291   c-0.262,0.317-0.533,0.618-0.807,0.911c-0.304,0.31-0.603,0.616-0.898,0.917c-0.664,0.666-1.309,1.313-1.93,1.935   c-2.481,2.495-4.581,4.631-6.092,6.232c3.105-3.133,5.824-5.877,8.268-8.343c2.124-2.087,3.511-4.183,4.544-6.318   c1.997-4.266,2.523-8.389,1.982-12.587c-0.289-2.102-0.889-4.237-1.929-6.392c-1.039-2.149-2.539-4.321-4.694-6.329   c-2.148-1.989-4.97-3.797-8.559-4.849c-3.563-1.039-7.948-1.303-12.529,0.099c-0.253-0.018,1.163-0.545,1.784-0.756   c0.308-0.114,0.404-0.181-0.038-0.124c-0.438,0.065-1.433,0.217-3.202,0.849c-2.039,0.765-3.512,1.64-4.599,2.386   c-1.083,0.755-1.79,1.384-2.263,1.844c-0.936,0.934-0.98,1.157-0.787,1.103c0.397-0.089,1.881-1.168,0.074,0.824   c2.271-2.379,4.62-3.835,6.904-4.816c2.277-0.967,4.443-1.412,6.443-1.557c4.01-0.251,7.387,0.563,10.604,2.216   c0,0-0.788-0.281-1.592-0.491c-0.802-0.22-1.616-0.361-1.616-0.361c-0.215-0.136-2.221-0.727-4.531-0.846   c-2.309-0.167-4.837,0.216-5.969,0.452c0,0-0.458,0.259-0.895,0.537c-0.438,0.279-0.854,0.575-0.854,0.575   c0.165-0.217-0.453-0.187-1.601,0.167c-1.141,0.359-2.803,1.084-4.555,2.337c-0.437,0.313-0.878,0.659-1.318,1.034   c-0.22,0.188-0.439,0.384-0.657,0.589c-0.254,0.243-0.512,0.49-0.772,0.739c-1.058,1.031-2.162,2.108-3.285,3.203   c-2.233,2.203-4.516,4.504-6.619,6.692c8.994-8.351,6.635-6.025,9.5-7.879c-11.59,12.547-14.088,13.147-27.107,27.181   c0.87-1.156,12.573-13.072,2.26-2.977c-8.466,8.428-6.994,7.648-12.549,13.423c6.011-6.75,4.098-5.386,10.575-12.74   c14.962-15.055,6.059-6.049,20.567-20.881l-12.729,12.105c12.656-12.776,8.824-9.67,9.73-10.859   c-22.092,21.339-15.805,16.927-29.874,30.802c-6.482,6.989,13.141-13.034,2.87-2.232c-13.119,13.012-2.738,3.221-17.242,18.046   l2.286-2.625c-4.703,4.263-8.864,8.966-14.014,14.19c-5.592,5.817,7.744-5.175-15.687,18.306c1.046-1.252,1.403-1.74,1.36-1.783   l19.777-25.986c-23.758,23.773-51.23,51.073-78.96,78.387c-7.089,5.875,19.143-20.144,17.185-18.732l12.677-12.429   c-0.447,0.961-26.22,26.379-14.429,15.497c21.981-22.351,32.335-32.113,52.833-53.672c-7.141,5.924-27.588,27.804-41.737,41.013   c5.784-5.704,10.566-10.62,15.187-15.415c-12.925,12.766-26.757,26.428-41.462,40.951l-3.136,3.431   c9.93-9.771,16.799-16.529,17.685-17.4c-13.113,13.006-23.792,24.358-24.214,25.671l2.336-2.305l-4.581,4.858   C134.37,316.49,131.278,319.525,128.203,322.543z M289.623,61.342c-1.035,0.458-1.834,0.856-2.408,1.186   C287.814,62.193,287.075,62.4,289.623,61.342z M282.781,241.425c8.751-8.668,17.539-17.372,26.24-25.992   c4.353-4.309,8.683-8.596,12.977-12.847c1.048-1.039,2.211-2.15,3.215-3.397c1.009-1.233,1.904-2.554,2.68-3.938   c1.548-2.771,2.596-5.8,3.098-8.897c-1.031,5.586-3.822,10.504-7.337,14.018c-3.505,3.349-6.692,6.305-9.518,8.955   c-5.637,5.265-9.713,9.011-11.242,10.266c-1.528,1.254-0.51,0.018,4.043-4.683c2.276-2.35,5.437-5.566,9.604-9.77   c1.042-1.05,2.146-2.163,3.315-3.339c1.161-1.194,2.449-2.375,3.581-3.762c2.289-2.772,4.224-6.364,5.157-10.627   c0,0,0.226-1.119,0.34-2.253c0.125-1.133,0.136-2.271,0.136-2.271c-0.117,2.262-0.547,4.936-1.588,7.714   c-1.028,2.774-2.673,5.646-4.987,8.178c-4.974,5.01-10.457,10.533-15.773,15.888c-4.151,4.497-12.927,14.002-20.628,22.344   c-3.834,4.186-7.401,8.08-9.991,10.908c-1.287,1.421-2.332,2.575-3.046,3.364c-0.709,0.792-1.083,1.224-1.032,1.199   c3.31-2.818,7.507-7.552,13.151-13.047L282.781,241.425z M268.925,252.336c-9.97,9.774-7.528,7.722-8.885,9.429   c3.452-3.497,6.899-6.988,10.307-10.44C268.991,252.594,268.281,253.179,268.925,252.336z M260.807,261.349   c1.114-1.105,2.068-2.043,2.587-2.516L260.807,261.349z M212.218,237.148c0.435-0.444,0.59-0.604,1.003-1.024   c-2.345,2.318-4.696,4.642-7.148,7.066C207.047,242.272,208.871,240.491,212.218,237.148z M232.685,217.541l2.021-2.664   c-2.186,2.162-4.417,4.368-6.699,6.625C228.902,220.898,229.811,220.242,232.685,217.541z M299.649,158.617   c1.273-0.376,3.385-0.746,5.85-0.676c2.462,0.051,5.25,0.58,7.755,1.535c2.515,0.939,4.716,2.287,6.294,3.457   c1.581,1.171,2.582,2.122,2.893,2.224c0.899,0.828-1.521-2.407-5.343-4.751c-4.217-2.596-9.579-4.073-15.206-3.623   c-0.187,0.11-1.298,0.258-3.094,0.71c2.705-0.529,5.021-0.477,6.327-0.317c1.313,0.175,1.64,0.359,0.541,0.458   c-3.439-0.426-6.002-0.034-7.982,0.488c-1.99,0.542-3.442,1.248-4.832,2.075c-1.383,0.844-2.725,1.813-4.321,3.257   c-0.807,0.717-1.606,1.575-2.674,2.671c-1.043,1.068-2.244,2.268-3.654,3.64c-1.63,1.95,1.594-1.139,5.508-4.979   c1.873-1.769,4.268-3.368,6.534-4.385C296.501,159.358,298.576,158.856,299.649,158.617z M201.274,442.033   c0.391-0.225,1.724-1.02,3.521-2.264c0,0-2.109,1.842-4.36,3.517c-2.237,1.692-4.606,3.208-4.606,3.208   c-8.628,5.125-17.333,7.974-25.896,9.53c-8.59,1.528-17.098,1.809-26.053,1.03c-4.158-0.658-7.276-1.527-9.844-2.377   c-2.567-0.86-4.586-1.718-6.528-2.598c3.817,1.413,7.496,2.434,10.593,3.133c6.134,1.139,11.219,1.405,15.399,1.419   c4.185-0.002,7.481-0.277,10.157-0.563c5.349-0.615,8.248-1.183,10.863-1.663c2.604-0.524,4.94-0.996,8.927-2.435   c1.986-0.734,4.384-1.722,7.336-3.254C193.731,447.183,197.243,445.104,201.274,442.033z M93.847,329.01   c-1.238,1.598-1.581,2.246-1.581,2.246c1.59-2.221,3.283-4.335,5.062-6.336c1.777-1.991,3.667-3.895,5.475-5.809   c3.648-3.805,7.206-7.516,10.666-11.124c6.956-7.182,13.52-13.96,19.641-20.281c12.285-12.6,22.876-23.293,31.313-31.699   c-3.59,2.942-18.95,17.802-26.258,24.843l5.989-6.728l4.26-3.68l10.702-11.374c-3.334,2.839-12.197,11.805-18.346,17.573   c-0.448,0.588-19.097,20.099-24.204,25.658l15.5-14.989c-4.22,4.014-24.358,24.321-32.283,32.436   c0.007,0.086,0.894-0.696,2.241-1.95c1.347-1.254,3.155-2.98,5.003-4.785c3.697-3.608,7.558-7.528,8.227-8.599   c1.919-1.37-14.01,14.564-3.641,4.783c-2.912,3.059-6.298,6.523-9.879,10.137c-1.78,1.816-3.66,3.622-5.433,5.554   c-1.775,1.928-3.468,3.95-5.039,6.022c-3.149,4.14-5.791,8.487-7.83,12.554c-2.047,4.065-3.503,7.841-4.486,10.813   c0,0-0.312,0.46-0.625,0.92c-0.307,0.467-0.613,0.933-0.613,0.933c-1.006,3.317-1.448,5.603-1.724,7.364   c-0.271,1.766-0.36,3.018-0.444,4.347c-0.072,1.328-0.149,2.735-0.263,4.834c-0.099,2.096-0.248,4.881-0.177,8.978   c-0.217-5.032-0.052-7.342-0.099-8.221c-0.015-0.88-0.144-0.333-0.264,0.349c-0.125,0.681-0.234,1.495-0.285,1.13   c-0.033-0.363-0.087-1.918,0.34-5.939c-0.402,2.554-0.549,2.57-0.79,3.97c-0.111,0.701-0.243,1.752-0.32,3.649   c-0.071,1.896-0.109,4.648,0.248,8.718c1.062,6.722,1.933,10.902,2.898,15.001c1.03,4.063,2.197,8.091,5.348,13.7   c1.835,3.874,0.669,1.889-0.017,0.804c-0.335-0.544-0.55-0.86-0.211-0.088c0.354,0.764,1.197,2.657,3.396,6.294   c2.669,4.08,4.971,6.834,6.73,8.806c1.771,1.966,3.019,3.146,3.882,3.902c1.74,1.497,1.938,1.323,2.577,1.521   c-3.161-3.17-5.432-5.83-7.3-8.121c-1.86-2.298-3.309-4.239-4.635-6.146c-1.322-1.909-2.526-3.785-3.758-6.037   c-1.228-2.253-2.493-4.883-3.759-8.353c0,0,0.687,1.707,1.888,4.181c1.196,2.476,2.952,5.695,4.958,8.744   c1.992,3.06,4.224,5.942,5.995,8.011c1.77,2.071,3.038,3.366,3.038,3.366c-3.419-4.106-5.655-7.359-7.477-10.124   c3.176,4.875,6.47,8.594,9.503,11.502c1.729,1.658,3.39,3.111,4.962,4.403c-6.059-5.421-10.822-11.522-13.94-16.583   c-3.14-5.063-4.76-9.004-5.157-10.209c0,0,0.298,0.477,0.596,0.954c0.304,0.472,0.608,0.943,0.608,0.943   c-1.105-2.633-2.521-6.099-3.655-9.484c-1.15-3.38-2.031-6.665-2.553-8.752c-1.451-7.088-1.87-14.363-1.548-20.183   c0.299-5.826,1.212-10.176,1.732-11.675c0,0-0.224,1.356-0.393,2.719c-0.174,1.362-0.296,2.728-0.296,2.728   c0.615-4.394,1.412-7.761,2.233-10.677c0.828-2.914,1.689-5.382,2.721-7.935c1.039-2.549,2.247-5.188,3.991-8.343   C88.045,337.033,90.332,333.354,93.847,329.01z M200.085,348.628c8.471-6.892,17.639-14.664,53.351-50.653l-2.767,2.876   c18.562-17.57,34.57-35.882,57.101-57.312c-10.369,10.964-9.821,10.362-20.916,22.819l11.22-11.667   c-2.74,3.601,8.452-8.037,16.869-16.414l-6.899,7.923c-5.188,4.893-18.306,17.906-17.807,17.639   c2.805-2.918-17.895,16.604-28.671,27.678c1.473-0.779,24.398-23.987,14.665-13.121c8.841-9.315,10.313-10.096,19.68-19.707   c-8.863,9.338-1.78,2.726-8.303,9.752l15.442-15.678c0.521-0.29-22.405,22.918-9.229,10.594   c6.053-6.415,22.928-22.835,22.854-23.506l0.497-0.268c11.744-11.583,4.603-5.659,19.137-19.767   c-0.02-0.356-2.88,2.245-7.972,7.414c-4.253,4.419-4.661,5.341-13.541,14.325c-4.295,3.712,10.81-10.737,4.116-5.03   c-3.326,2.835-23.367,23.792-17.389,16.705l11.721-11.561c-0.075-0.672,8.376-9.081,7.839-9.146   c3.49-3.628,7.02-7.016,10.546-10.447c1.763-1.715,3.524-3.441,5.279-5.213c0.861-0.867,1.793-1.82,2.656-2.818   c0.862-1.001,1.68-2.053,2.447-3.154c1.188-1.889,0.487-1.366,0.827-2.132c0.159-0.389,0.589-1.088,1.496-2.65   c0.887-1.569,2.319-3.99,3.884-8.075c1.353-3.13,2.852-8.091,3.183-14.079c0.36-5.965-0.537-12.918-3.068-19.367   c-2.467-6.474-6.547-12.311-10.985-16.602c-4.422-4.342-9.139-7.15-12.571-8.775c0,0-3.036-1.408-6.238-2.32   c-3.188-0.96-6.477-1.413-6.477-1.414c0.262,0.132,1.954,0.446,4.159,1.05c2.203,0.605,4.909,1.531,7.229,2.602   c2.329,1.05,4.278,2.193,5.183,2.791c0.9,0.608,0.813,0.582-1.054-0.409c0,0-1.101-0.658-2.827-1.5   c-1.727-0.841-4.094-1.832-6.539-2.584c-2.442-0.762-4.95-1.295-6.845-1.573c-1.896-0.283-3.171-0.374-3.171-0.374   s0.397-0.011,0.795-0.023c0.399-0.006,0.798-0.012,0.798-0.012c-6.76-0.91-13.812,0.056-19.646,2.017   c1.487-0.563,3.524-1.16,5.72-1.587c2.193-0.436,4.54-0.699,6.604-0.799c4.129-0.204,7.109,0.145,5.66-0.297   c-4.849-0.434-7.678-0.224-10.376,0.043c-2.691,0.329-5.312,0.75-9.56,2.243c1.841-0.686,3.47-1.157,3.208-1.171   c-4.811,1.261-8.162,2.903-10.593,4.292c-2.429,1.414-3.962,2.602-5.076,3.549c-2.202,1.93-2.827,2.828-4.535,4.582   c-3.29,3.52-4.011,4.443-3.327,3.903c0.345-0.272,1.05-0.912,1.98-1.783c0.928-0.862,2.078-1.998,3.416-3.127   c2.647-2.286,6.023-4.499,8.695-5.819c2.664-1.342,4.534-1.928,4.017-1.575c0,0-0.808,0.332-2.176,1.009   c-1.366,0.678-3.288,1.721-5.445,3.199c-4.439,2.832-9.086,8.112-14.042,13.019c-9.82,9.927-19.641,19.854-19.641,19.854   c3.247-3.499,6.518-7.021,5.085-5.908c-9.866,9.507-0.521-0.083-14.103,13.537c1.5-0.437-16.794,17.457-26.095,27.372   c-4.706,4.271-5.673,5.151,4.136-4.672c-1.471,0.782-14.517,14.092-19.233,18.746c-2.659,2.771-7.191,7.496-10.065,10.491   c4.103-3.759,2.641-1.865-5.721,6.792l-0.423,0.568c14.044-13.855,36.103-35.16,44.495-44.259l-2.301,2.643   c16.444-15.847,34.515-35.756,42.612-42.548c-0.429,0.945,3.304-3.185,3.395-2.53c0,0,2.899-3.045,5.799-6.09   c1.414-1.516,2.887-2.885,4.068-3.868c1.171-0.984,1.999-1.583,1.998-1.583c0,0-0.659,0.537-1.294,1.101s-1.246,1.148-1.247,1.148   c0,0,1.301-1.142,3.441-2.602c2.133-1.466,5.147-3.19,8.364-4.466c3.205-1.303,6.577-2.155,9.138-2.575   c2.562-0.428,4.295-0.514,4.295-0.513l-0.723,0.154c6.539-0.785,12.528-0.048,17.638,1.398c5.123,1.464,9.393,3.643,12.885,6.006   c0.081-0.083-0.046-0.271,0.274-0.118c0.313,0.164,1.108,0.622,2.887,2.037c3.517,2.912,5.757,5.612,7.528,8.132   c0.015,0.019,0.015,0.019,0.017,0.018l-0.002,0.002c2.004,2.9,3.328,5.544,4.472,8.45c1.117,2.916,2.092,6.11,2.77,10.349   c-0.001,0-0.254-1.634-0.893-4.026c-0.64-2.39-1.732-5.52-3.223-8.465c-1.469-2.957-3.313-5.708-4.845-7.648   c-1.531-1.943-2.688-3.123-2.688-3.123c-0.89-0.639-0.988-0.491,0.153,1.017c0.557,0.766,1.419,1.877,2.522,3.495   c1.097,1.62,2.439,3.752,3.799,6.6c-1.165-2.305-2.252-3.787-2.525-4.065c-0.304-0.263,0.293,0.61,1.776,3.406   c0.229,0.268,2.184,3.989,3.228,7.181c0.547,1.583,0.94,2.994,1.14,3.626c0.2,0.632,0.247,0.477-0.037-1.046   c1.528,5.933,1.947,13.235,0.142,20.8c-1.753,7.549-5.822,15.271-12.136,21.42c-12.956,12.75-27.016,26.71-40.314,40.533   c19.17-19.801-15.986,15.247,5.531-6.498c-15.54,14.657-12.557,13.427-28.017,28.75c-1.471,1.153,8.4-8.359,11.624-12.209   c-25.768,25.413-42.464,43.892-67.354,68.515l-1.403,0.714C210.601,337.913,205.446,343.165,200.085,348.628z M149.709,386.44   c-2.159-2.224-3.051-5.631-2.216-8.698c0.397-1.532,1.211-2.956,2.33-4.104c1.207-1.228,2.419-2.46,3.636-3.697   c-0.482,0.475-0.93,0.917-1.435,1.414l14.038-14.593c-8.931,8.662-15.104,14.078-2.97,1.591c-0.894,1.179,2.879-2.245-1.317,2.118   c8.458-8.043,26.758-25.942,21.518-21.744c-15.361,16.345-4.357,3.031-16.45,15.854c6.346-7.024,13.121-13.494,19.283-19.959   c-6.288,6.856,2.175-0.889,12.183-10.625c4.213-4.381,15.922-15.93,22.926-23.208c-2.864,2.227,3.171-4.173-8.544,7.382   c4.185-4.353,10.725-11.024,18.289-18.261c-2.879,2.988-7.97,8.158-7.5,7.919c5.068-4.482,10.647-10.088,13.859-13.049   c2.444-2.479,4.91-4.979,7.31-7.412c-0.749,0.693-1.41,1.282-1.9,1.682l7.896-8.458c-10.742,11.042-5.182,4.888-5.228,4.561   c0.08,0.665,7.06-6.963,10.776-10.704l-8.492,7.705c3.717-4.111,14.105-13.535,11.67-11.881   c-17.339,17.025-23.877,23.698-39.297,39.354l6.613-6.002c-17.314,17.748-11.337,10.288-30.994,29.974   c-7.898,8.457-29.563,29.603-29.409,30.567c1.148-1.318-2.039,1.619-6.323,5.761c-2.142,2.071-4.559,4.443-6.846,6.734   c-1.136,1.152-2.247,2.278-3.282,3.329c-0.512,0.531-1.004,1.043-1.473,1.529c-0.219,0.228-0.481,0.508-0.734,0.798   c-0.242,0.287-0.464,0.576-0.665,0.864c-0.854,1.289-1.679,3.095-1.932,5.232c-0.265,2.123,0.063,4.57,1.205,6.75   c1.118,2.184,3.021,4.031,5.273,5.067c2.244,1.063,4.772,1.273,6.952,0.819c2.197-0.441,4.016-1.544,5.271-2.722   c1.185-1.189,2.015-2.099,2.646-2.768c1.222-1.316,1.302-1.492-0.463,0.155c-0.777,0.766-1.517,1.546-2.397,2.393   c-0.907,0.826-1.985,1.521-3.174,2.007c-2.374,0.987-5.192,1.058-7.641,0.166c-2.464-0.87-4.476-2.686-5.611-4.75   c-1.158-2.07-1.441-4.327-1.177-6.127c0,0.001-0.135,1.109,0.173,2.733c0.294,1.613,1.206,3.701,2.752,5.262   c1.511,1.597,3.554,2.569,5.141,2.914c1.597,0.358,2.693,0.261,2.693,0.261s-0.717,0.017-1.764-0.167   c-1.044-0.185-2.402-0.639-3.584-1.39c-1.194-0.734-2.175-1.745-2.782-2.578c-0.612-0.835-0.896-1.462-0.896-1.462   c0.653,1.261,1.381,2.023,1.905,2.487c0.532,0.465,0.878,0.638,1.016,0.653C150.86,388.128,150.315,387.513,149.709,386.44z    M258.699,183.353c-0.132,0.127-0.304,0.294-0.464,0.449c0.175-0.174,0.345-0.342,0.509-0.505L258.699,183.353z" fill="#202020"/><path d="M375.508,266.764c3.269-3.523,11.686-11.899,9.768-10.529C385.78,256.335,370.319,271.285,375.508,266.764z   " fill="#202020"/><path d="M385.844,257.017c0.519-0.663-0.008-0.367,3.75-4.145l-10.297,10.45L385.844,257.017z" fill="#202020"/><path d="M398.43,248.551c2.563-2.787,4.659-5.061,7.168-7.684c1.276-1.32,2.647-2.739,4.222-4.367   c0.218-0.242,0.43-0.497,0.63-0.765l0.292-0.399l0.218-0.33c0.367-0.436,0.747-0.887,1.142-1.354c0.84-0.994,1.72-2.075,2.65-3.259   c0.899-0.734,0.615-0.114-0.391,1.299c-0.503,0.706-1.197,1.599-2.021,2.609c-0.207,0.249-0.421,0.506-0.641,0.77   c-0.158,0.174-0.311,0.398-0.484,0.676c-0.248,0.355-0.521,0.706-0.816,1.052l-0.467,0.506l-0.399,0.408   c-4.262,4.352-9.399,9.568-10.96,11.814c3.865-3.831,7.02-7.039,9.772-9.896c0.695-0.726,1.366-1.428,2.019-2.11   c0.407-0.438,0.778-0.892,1.104-1.363l0.123-0.175l0.074-0.118l0.145-0.234c0.109-0.147,0.157-0.205,0.308-0.393   c1.146-1.404,2.2-2.774,3.202-4.143c2.002-2.739,3.807-5.463,5.651-8.501c1.839-3.042,3.727-6.397,5.744-10.483   c-1.103,1.973-3.04,5.472-5.629,9.43c-2.575,3.965-5.829,8.363-9.21,12.312l-0.634,0.736c-0.182,0.203-0.34,0.389-0.494,0.643   c-0.367,0.536-0.869,1.144-1.353,1.629c-0.868,0.876-1.715,1.73-2.528,2.551c-1.612,1.656-3.094,3.178-4.359,4.479   C399.999,246.514,398.406,248.296,398.43,248.551z" fill="#202020"/><polygon fill="#202020" points="392.522,256.316 400.916,247.59 400.028,248.391 391.628,257.123  "/><path d="M200.967,434.63c-0.494,0.198-2.036,1.468-3.91,2.872c-1.866,1.414-4.08,2.943-5.686,3.919   C194.018,439.909,197.66,437.613,200.967,434.63z" fill="#202020"/><path d="M143.19,215.227c0,0-3.947,3.967-9.868,9.917c-0.656,0.581-1.556,0.982-2.585,1   c-1.026,0.021-2.077-0.342-2.89-1.12c-0.824-0.775-1.307-1.878-1.279-3.076c0.009-0.592,0.154-1.18,0.411-1.707   c0.128-0.265,0.285-0.516,0.47-0.751c0.093-0.118,0.195-0.23,0.3-0.342l0.756-0.761c16.268-16.379,32.535-32.757,32.535-32.757   c-9.367,9.42-18.374,18.479-28.674,28.838c-1.288,1.295-2.595,2.611-3.926,3.95l-0.5,0.503l-0.326,0.337   c-0.132,0.153-0.264,0.305-0.37,0.473c-0.223,0.33-0.398,0.691-0.516,1.079c-0.501,1.572,0.011,3.463,1.461,4.534   c1.346,1.083,3.612,1.135,5.054-0.11c0.088-0.081,0.181-0.157,0.266-0.245l0.56-0.561c0.416-0.419,0.834-0.841,1.255-1.266   c0.842-0.849,1.694-1.709,2.557-2.58C139.608,218.842,141.376,217.058,143.19,215.227z" fill="#202020"/><path d="M148.209,278.02c-17.314,17.747-24.707,25.933-42.469,43.896c23.952-23.026,30.301-31.747,50.497-50.995   L148.209,278.02z" fill="#202020"/><path d="M143.858,286.036c-3.338,2.473,13.02-14.034,10.158-11.806c-11.709,11.921-5.09,5.914-15.85,16.6   L143.858,286.036z" fill="#202020"/><path d="M72.049,370.639c0,0,0.094-1.974,0.293-3.943c0.187-1.971,0.481-3.933,0.481-3.933   s-0.269,1.573-0.472,3.154c-0.211,1.581-0.352,3.168-0.352,3.168L72.049,370.639z" fill="#202020"/><polygon fill="#202020" points="223.375,205.75 221.535,207.785 230.463,199.131  "/><path d="M219.698,209.822l1.838-2.037L219.698,209.822z" fill="#202020"/><path d="M72.298,360.339c0,0-0.674,2.906-1.117,5.856c-0.466,2.947-0.702,5.924-0.702,5.924   c0,0-0.038,1.479-0.02,2.953c0.011,1.476,0.083,2.947,0.083,2.947c0,0-0.052-4.452,0.412-8.882   C71.369,364.703,72.298,360.339,72.298,360.339z" fill="#202020"/><path d="M135.222,283.155l-6.929,7.206C129.668,288.932,139.516,279.441,135.222,283.155z" fill="#202020"/><path d="M277.085,152.471c0,0,1.913-1.851,4.076-3.401c2.142-1.579,4.503-2.83,4.503-2.83s-0.249,0.111-0.498,0.223   c-0.247,0.117-0.494,0.233-0.494,0.233c0,0-2.32,1.313-4.417,2.946c-2.117,1.606-3.979,3.504-3.979,3.503L277.085,152.471z" fill="#202020"/><path d="M189.354,226.637c-5.215,4.55,14.011-14.192,3.67-4.439C184.139,231.187,187.939,227.734,189.354,226.637z" fill="#202020"/><path d="M302.125,135.761c1.657-0.066,3.405-0.059,5.091,0.004C305.21,135.652,303.524,135.681,302.125,135.761z" fill="#202020"/><path d="M302.125,135.761c-5.352,0.176-10.67,1.303-14.068,2.723c3.181-1.027,5.408-1.5,7.467-1.894   C297.586,136.212,299.492,135.921,302.125,135.761z" fill="#202020"/><path d="M348.501,168.923c0,0-0.335-1.17-0.726-2.323c-0.397-1.151-0.851-2.282-0.851-2.282   c1.035,2.267,1.236,2.9,1.079,2.397c-0.178-0.493-0.786-2.093-1.795-4.076c-1.097-2.338-1.769-3.362-2.131-3.899   c-0.366-0.537-0.472-0.567-0.671-0.803c-0.581-0.85-1.193-1.667-1.885-2.531c0.962,1.251,1.764,2.425,2.412,3.441   c1.994,3.444,3.144,6.451,3.805,8.324C348.396,169.05,348.626,169.798,348.501,168.923z" fill="#202020"/><path d="M206.482,333.928c12.665-12.418,15.969-15.603,15.545-14.663c11.987-11.822,9.696-10.42,16.772-17.703   C225.379,315.083,222.506,317.718,206.482,333.928z" fill="#202020"/><path d="M238.8,301.562c1.503-1.517,2.938-2.965,4.682-4.724C241.514,298.791,240.072,300.255,238.8,301.562z" fill="#202020"/><path d="M290.846,133.35c0,0,2.893-0.94,5.897-1.493c2.996-0.59,6.064-0.781,6.064-0.781s-1.125,0.043-2.244,0.141   c-1.121,0.092-2.234,0.238-2.234,0.238s-1.914,0.329-3.786,0.808C292.666,132.724,290.846,133.351,290.846,133.35z" fill="#202020"/><path d="M187.739,352.411c2.342-2.31,6.059-6.049,7.978-7.791C196.128,343.69,185.403,354.715,187.739,352.411z" fill="#202020"/><path d="M241.17,309.102c1.431-1.114,9.361-9.234,12.688-12.44C249.14,301.314,244.845,304.657,241.17,309.102z" fill="#202020"/><path d="M155.917,384.171c0.657,0.116,1.517,0.04,2.093-0.1c0.57-0.134,0.919-0.226,0.568,0.162   c0.229-0.146,0.45-0.327,0.638-0.524c0.093-0.101,0.185-0.198,0.261-0.303c0.063-0.075,0.124-0.147,0.183-0.219   c0.088-0.103,0.173-0.201,0.255-0.298c0.654-0.769,1.095-1.336,1.055-1.403c-0.02-0.034-0.16,0.058-0.454,0.311   c-0.144,0.13-0.329,0.297-0.56,0.506c-0.212,0.201-0.467,0.442-0.769,0.728c-0.269,0.237-0.623,0.529-1.15,0.771   C157.515,384.041,156.797,384.246,155.917,384.171z" fill="#202020"/><polygon fill="#202020" points="218.204,331.977 220.082,330.274 228.499,321.525  "/><path d="M252.629,305.176c9.345-9.961-16.056,14.569,0.308-2.316c-21.768,21.123,2.081-1.208-13.789,14.562   C248.517,308.26,253.446,304.111,252.629,305.176z" fill="#202020"/><path d="M239.149,317.421c-1.354,1.338-2.821,2.787-4.413,4.36C236.497,320.04,237.92,318.635,239.149,317.421z" fill="#202020"/><path d="M189.265,331.273c-1.37,1.435-2.292,2.427-3.14,3.348C187.203,333.492,188.225,332.407,189.265,331.273z" fill="#202020"/><path d="M188.883,368.197l14.004-14.931c-9.356,9.972-33.686,34.265-31.71,33.21   c7.966-7.779,17.316-17.374,21.009-21.465L188.883,368.197z" fill="#202020"/><path d="M276.147,256.685l-6.068,6.434l7.858-7.751C275.632,257.534,279.337,253.152,276.147,256.685z" fill="#202020"/><path d="M279.456,253.868l-1.52,1.5C278.281,255.047,278.764,254.572,279.456,253.868z" fill="#202020"/><path d="M162.124,358.86c-4.707,4.642-8.434,8.394-12.615,12.739C151.365,369.918,163.092,358.352,162.124,358.86z" fill="#202020"/><polygon fill="#202020" points="319.493,211.999 309.255,222.395 320.479,211.103  "/><path d="M307.741,148.939c0,0-0.802-0.124-1.611-0.204c-0.808-0.086-1.621-0.126-1.621-0.126   s-0.979-0.019-2.44,0.087c-1.461,0.098-3.401,0.359-5.3,0.811c-1.901,0.444-3.749,1.085-5.098,1.65   c-1.352,0.559-2.214,1.017-2.214,1.017s0.754-0.334,1.522-0.626c0.767-0.298,1.549-0.548,1.549-0.548s0.896-0.366,2.285-0.786   c1.386-0.427,3.273-0.876,5.192-1.133c1.919-0.262,3.86-0.331,5.314-0.289C306.775,148.825,307.741,148.939,307.741,148.939z" fill="#202020"/><path d="M296.392,218.542c-7.044,6.945-12.093,12.821-10.175,11.079l13.543-13.579   c-3.809,3.084-3.752,3.772-11.705,11.542L296.392,218.542z" fill="#202020"/><path d="M238.02,387.017c-2.788,3.271-17.762,17.965-18.769,18.513c1.894-2.094,9.84-10.23,4.643-5.325   l-11.143,12.33c-15.981,15.24,11.085-12.646,18.585-20.566c-6.541,6.478-11.128,11.159-15.438,15.601   c-2.152,2.224-4.241,4.381-6.464,6.677c-1.114,1.146-2.262,2.327-3.468,3.568c-0.575,0.59-1.163,1.194-1.769,1.816   c-0.069,0.072-0.132,0.149-0.194,0.228c-0.03,0.04-0.064,0.077-0.091,0.119l-0.044,0.061c-0.012,0.014-0.027,0.034-0.076,0.118   l-0.247,0.418l-0.296,0.534c-0.195,0.358-0.391,0.72-0.588,1.084c-0.59,0.325-1.282,0.707-1.822,1.029   c-0.096,0.061-0.293,0.176-0.307,0.193l-0.109,0.085l-0.21,0.186c-0.268,0.264-0.54,0.531-0.817,0.804   c-0.354,0.354-0.724,0.706-1.106,1.059c-1.519,1.419-3.217,2.864-5.123,4.296c2.135-1.573,3.92-3.058,5.458-4.43   c0.39-0.337,0.75-0.682,1.108-1.009c0.166-0.151,0.33-0.301,0.491-0.448c0.067-0.057,0.135-0.11,0.204-0.159   c0.069-0.048,0.135-0.099,0.205-0.139l0.051-0.032l0.11-0.065l0.344-0.194c0.607-0.318,1.197-0.627,1.77-0.927   c0.56-0.983,1.425-2.459,1.411-2.268c0.313-0.281,0.611-0.549,0.9-0.808c0.144-0.031-0.062,0.264-0.447,0.724   c-0.064,0.102-0.146,0.229-0.243,0.383c-0.047,0.081-0.096,0.165-0.147,0.253c-0.103,0.188-0.209,0.382-0.32,0.582   c-0.248,0.467-0.513,0.966-0.793,1.493c-0.337,0.19-0.687,0.388-1.049,0.591c-0.355,0.202-0.778,0.438-1.021,0.594   c-0.191,0.114-0.17,0.114-0.212,0.146l-0.099,0.087c-0.066,0.059-0.132,0.122-0.198,0.19c-0.41,0.405-0.84,0.829-1.288,1.271   c-0.484,0.449-0.976,0.93-1.51,1.397c-2.112,1.901-4.646,3.893-7.471,5.754c-5.641,3.75-12.524,6.773-18.785,8.451   c2.736-0.69,4.37-1.211,5.188-1.446c0.819-0.233,0.826-0.175,0.255,0.094c-1.135,0.546-4.617,1.882-8.659,2.858   c-1.46,0.321-2.431,0.535-3.123,0.687c-0.951,0.185-1.852,0.34-2.783,0.484c0,0,0.533-0.07,1.067-0.141   c0.534-0.067,1.065-0.158,1.065-0.158c-0.142,0.08,0.343,0.116,1.895-0.061c7.424-1.452,13.734-3.814,19.101-6.525   c5.365-2.729,9.785-5.841,13.431-9.098c-1.49,1.071-1.525,0.939-0.556-0.018c0.485-0.478,1.203-1.184,2.103-2.071   c0.223-0.224,0.457-0.458,0.702-0.704c0.122-0.122,0.125-0.133,0.203-0.201c0.029-0.027,0.061-0.055,0.094-0.08l0.027-0.022   l0.161-0.096l0.335-0.198c0.607-0.334,1.234-0.68,1.879-1.035c0.29-0.531,0.586-1.075,0.888-1.63   c0.129-0.227,0.259-0.455,0.391-0.686c0.038-0.066,0.049-0.082,0.051-0.082l0.019-0.023c0.013-0.016,0.021-0.034,0.037-0.049   c0.052-0.064,0.108-0.128,0.17-0.191c0.235-0.235,0.474-0.475,0.716-0.717c1.019-1.014,2.093-2.083,3.199-3.183   c2.215-2.195,4.554-4.515,6.822-6.763c4.534-4.498,8.77-8.723,11.087-11.169l8.769-8.903l3.305-3.307   c0.739-0.59-0.108,0.443-5.014,5.618c4.073-4.341,18.148-18.322,16.635-17.245l32.005-32.025c1.024-0.969,2.056-1.932,2.843-2.62   c1.066-1.152,1.218-1.373,1.036-1.261c0,0,34.861-34.884,69.723-69.767c8.716-8.722,17.431-17.442,25.602-25.618   c4.085-4.088,8.034-8.04,11.779-11.787c1.808-1.798,3.89-3.885,5.642-5.889c1.793-2.019,3.438-4.048,4.942-6.052   c6.028-8.031,9.712-15.623,11.917-21.023c1.104-2.708,1.852-4.882,2.339-6.37c0.469-1.494,0.718-2.291,0.718-2.291   c-1.555,5.04-3.435,9.603-5.659,14.025c-2.233,4.419-4.807,8.71-7.969,13.109c2.188-3.43,2.538-4.291,2.07-3.61   c-0.486,0.669-1.896,2.82-3.65,5.163c-3.446,4.749-8.539,9.961-7.127,8.028c2.397-2.717,5.227-6.169,7.747-9.708   c2.532-3.531,4.751-7.14,6.305-9.894c0.416-1.112-0.478,0.299-1.51,1.804c-1.025,1.511-2.212,3.101-2.094,2.566   c-3.56,5.558-6.805,9.631-9.723,13.041c-1.444,1.689-2.9,3.262-4.188,4.63c-1.269,1.369-2.479,2.676-3.688,3.979   c-4.817,5.227-9.571,10.417-18.25,18.938c0.424-0.939,5.514-6.481-5.709,4.811l2.806-2.916   c-17.738,18.315-14.629,13.461-25.269,25.517l-0.074-0.671c-7.896,8.458-23.804,24.369-32.718,33.386l0.463-0.606   c-24.724,25.577-14.027,14.209-42.091,42.631l12.563-13.434c-9.923,9.563-11.646,12.232-18.689,19.179   c0.43-0.573-1.465,0.775,5.073-5.898l-33.605,34.932C226.757,397.976,236.588,388.132,238.02,387.017z" fill="#202020"/><path d="M193.169,429.844c-2.268,1.668-4.939,3.446-8.262,5.248C188.13,433.383,190.764,431.649,193.169,429.844z" fill="#202020"/><path d="M422.801,175.857c-0.001,0-0.487,3.724-1.293,7.392c-0.776,3.674-1.87,7.269-1.87,7.269   C421,186.072,422.103,181.326,422.801,175.857z" fill="#202020"/><path d="M120.761,434.624c1.989,1.252,2.631,1.62,2.385,1.557c-0.241-0.068-1.346-0.61-2.72-1.387   c-2.778-1.507-6.468-4.181-7.158-4.641c0,0,1.641,1.35,4.283,3.127c2.637,1.782,6.325,3.918,10.222,5.606   c3.885,1.717,7.952,2.976,11.043,3.714c3.095,0.733,5.196,1.031,5.196,1.031c-0.117-0.203,3.221,0.019,2.569-0.262   c0,0-1.706-0.181-4.237-0.644c-2.53-0.457-5.875-1.261-9.125-2.371c-3.256-1.091-6.406-2.483-8.697-3.66   C122.229,435.52,120.761,434.624,120.761,434.624z" fill="#202020"/><path d="M153.778,444.83c1.154-0.124,4.761-0.257,8.737-0.872c0-0.001-4.616,0.597-9.262,0.48   c-2.32-0.035-4.637-0.214-6.366-0.416c-1.729-0.197-2.875-0.391-2.875-0.391c0.046,0.079,0.575,0.256,2.047,0.508   C147.53,444.375,149.948,444.743,153.778,444.83z" fill="#202020"/><path d="M150.861,433.879c0,0,1.263,0.08,2.528,0.096c1.265,0.022,2.529-0.017,2.529-0.018   c0,0,1.914-0.078,3.811-0.307c1.901-0.208,3.775-0.568,3.775-0.568s-3.121,0.575-6.294,0.758   C154.04,434.054,150.861,433.879,150.861,433.879z" fill="#202020"/><path d="M218.08,394.762c-4.717,4.281-13.089,12.984-15.89,15.896C212.022,400.812,207.841,405.158,218.08,394.762z   " fill="#202020"/><polygon fill="#202020" points="203.588,404.588 212.948,394.98 212.021,395.822  "/><path d="M376.512,83.066c-2-1.196-3.985-2.287-6.094-3.341C373.255,81.171,375.054,82.214,376.512,83.066z" fill="#202020"/><path d="M418.488,188.835c1.23-4.082,1.831-6.875,2.21-8.576c0.369-1.706,0.504-2.329,0.522-2.159   c0.03,0.337-0.44,3.85-1.422,8.018c-0.95,4.175-2.488,8.964-3.628,12.043c-1.135,3.079-1.675,4.53-0.406,2.122   c-0.001,0,1.809-4.349,3.124-8.859c1.365-4.497,2.229-9.11,2.229-9.11l-0.139,1.604c-0.001,0,1.277-5.596,1.798-11.304   c0.598-5.7,0.435-11.431,0.436-11.431c-0.26,4.7-0.581,8.192-0.869,7.158c0.421-7.573,0.005-11.97-0.168-14.627   c-0.215-2.661-0.309-3.603-0.324-4.3c-0.031-0.695-0.002-1.144-0.192-2.801c-0.214-1.651-0.559-4.54-1.971-9.979   c0,0-0.568-2.064-1.628-5.095c-1.057-3.03-2.663-7.005-4.58-10.833c-1.902-3.835-4.106-7.513-5.892-10.179   c-1.779-2.672-3.088-4.366-3.088-4.366s0.433,0.542,0.865,1.083c0.425,0.548,0.851,1.097,0.851,1.097   c-1.673-2.352-2.509-3.318-3.163-4.061c0,0-1.095-1.434-3.171-3.804c-2.079-2.368-5.168-5.645-9.243-9.183   c-4.07-3.539-9.149-7.318-15.016-10.672c-5.854-3.366-12.491-6.288-19.386-8.374c-6.891-2.102-14.021-3.361-20.738-3.839   c-6.722-0.485-13.02-0.218-18.371,0.429c-5.355,0.635-9.752,1.631-12.794,2.427c-3.042,0.805-4.748,1.379-4.748,1.379   c-4.957,1.688-6.642,2.577-6.745,2.682c-0.096,0.128,1.433-0.4,3.141-0.918c1.706-0.524,3.594-1.02,4.148-1.072   c0.561-0.036-0.246,0.272-3.793,1.677c5.626-2.056,12.168-3.737,18.84-4.634c6.671-0.924,13.438-1.065,19.481-0.656   c12.134,0.783,21.16,3.819,22.23,3.74c-0.811-0.124-2.356-0.468,2.222,1.148c0,0,3.328,0.979,6.571,2.239   c3.253,1.233,6.405,2.735,6.405,2.734c0,0-2.915-1.6-5.95-2.968c-3.024-1.39-6.154-2.538-6.154-2.538   c3.356,1.029,8.51,2.974,14.122,6.015c5.62,3.015,11.649,7.158,16.94,11.864c5.306,4.683,9.878,9.898,13.195,14.461   c3.332,4.558,5.467,8.403,6.392,10.233c-3.234-5.589-5.736-8.771-7.598-11.08c-1.89-2.292-3.211-3.686-4.752-5.296   c-1.556-1.598-3.318-3.428-6.414-6.279c-3.122-2.81-7.54-6.759-15.127-11.503c0.645,0.488,2.298,1.682,2.921,2.24   c0.615,0.571,0.28,0.391-3.15-1.665c17.847,10.727,31.126,26.721,38.531,45.23C422.417,146.792,424.096,167.879,418.488,188.835z" fill="#202020"/><path d="M147.913,211.311l0.173-0.266C147.61,211.571,147.466,211.753,147.913,211.311z" fill="#202020"/><path d="M157.292,202.06l13.022-14.032l-21.049,21.131l-1.178,1.886c1.774-1.954,8.989-9.528,11.994-12.256   L157.292,202.06z" fill="#202020"/><path d="M185.715,172.016c-10.741,11.042-9.732,10.868-3.601,5.117c-9.808,10.195-5.725,4.829-12.172,12.156   c0.526,0.076,12.677-12.428,15.454-15.316L185.715,172.016z" fill="#202020"/><path d="M266.777,91.738c0,0-0.825,0.814-1.649,1.628c-0.804,0.833-1.606,1.665-1.606,1.665s2.061-1.962,4.25-3.78   c2.176-1.833,4.47-3.52,4.47-3.52c0,0-1.402,0.948-2.767,1.953C268.107,90.684,266.777,91.738,266.777,91.738z" fill="#202020"/><path d="M263.521,95.031c0,0-0.509,0.489-1.271,1.223c-0.712,0.703-1.662,1.64-2.611,2.577   c-1.885,1.861-3.769,3.722-3.769,3.722c0.646-0.39,1.284-0.777,2.594-1.912c0,0,1.235-1.383,2.472-2.766   c0.634-0.705,1.269-1.411,1.745-1.939C263.184,95.393,263.521,95.031,263.521,95.031z" fill="#202020"/><path d="M236.095,122.087c-3.19,3.151-6.719,6.639-11.014,10.882L236.095,122.087z" fill="#202020"/><path d="M244.767,113.627l-0.308,0.199l-8.364,8.261C239.197,119.061,241.979,116.347,244.767,113.627z" fill="#202020"/><path d="M255.869,102.552c-1.509,0.924-3.24,2.042-13.989,12.953l2.578-1.679L255.869,102.552z" fill="#202020"/><polygon fill="#202020" points="273.003,336.052 281.404,327.32 280.452,328.181 272.058,336.908  "/><path d="M322.694,286.895c2.051-2.183,3.606-3.838,5.021-5.342C325.516,283.816,323.79,285.638,322.694,286.895z" fill="#202020"/><path d="M357.438,248.158c10.369-9.781-13.51,14.288,5.278-4.24c1.918-1.371-6.476,7.728-15.396,16.377   c0.44-0.955,8.395-8.725,2.731-3.587c-5.536,6.133-7.958,8.148-5.537,6.504c-9.574,10.058-10.391,11.426-16.8,18.341   c11.694-12.037,37.007-36.553,51.568-52.109c7.834-8.768,2.162-4.37,1.522-5.078C379.396,225.458,357.803,246.902,357.438,248.158z   " fill="#202020"/><path d="M340.912,263.339c-4.696,4.63-6.094,6.082-8.898,8.999C333.016,271.797,337.156,267.117,340.912,263.339z" fill="#202020"/><path d="M413.024,143.032c-0.197-0.593-1.051-3.741-1.988-6.36c-0.922-2.626-1.856-4.735-1.521-3.515   c-0.001,0,1.593,4.155,2.7,8.467c1.156,4.299,1.82,8.709,1.821,8.709C413.424,146.198,413.219,144.732,413.024,143.032z" fill="#202020"/><path d="M414.894,158.098c0,0-0.122-1.952-0.343-3.893c-0.208-1.943-0.515-3.872-0.515-3.872   C414.301,152.267,414.633,154.661,414.894,158.098z" fill="#202020"/><path d="M412.908,142.184c0.038,0.282,0.072,0.534,0.115,0.848C413.11,143.27,413.128,143.218,412.908,142.184z" fill="#202020"/><path d="M204.892,152.955c-0.005-0.365-5.594,5.444-8.399,8.36C198.834,159.005,202.16,155.799,204.892,152.955z" fill="#202020"/><path d="M248.087,98.141l5.182-4.888C251.401,94.945,250.445,95.814,248.087,98.141z" fill="#202020"/><path d="M342.529,54.131c0.215-0.023,0.751,0,1.471,0.064C343.281,54.123,342.777,54.105,342.529,54.131z" fill="#202020"/><path d="M343.999,54.195c2.468,0.226,7.468,1.099,12.424,2.433c4.967,1.3,9.862,3.058,12.477,3.931l-0.688-0.161   c0,0,2.407,0.876,4.769,1.874c2.364,0.991,4.678,2.1,4.678,2.1c-4.287-2.171-11.167-5.1-17.849-7.003   C353.146,55.4,346.767,54.412,343.999,54.195z" fill="#202020"/></g></svg>