<?xml version="1.0" ?><!DOCTYPE svg  PUBLIC '-//W3C//DTD SVG 1.1//EN'  'http://www.w3.org/Graphics/SVG/1.1/DTD/svg11.dtd'><svg height="512px" style="shape-rendering:geometricPrecision; text-rendering:geometricPrecision; image-rendering:optimizeQuality; fill-rule:evenodd; clip-rule:evenodd" version="1.1" viewBox="0 0 512 512" width="512px" xml:space="preserve" xmlns="http://www.w3.org/2000/svg" xmlns:xlink="http://www.w3.org/1999/xlink"><defs><style type="text/css">
   <![CDATA[
    .fil2 {fill:#FEFEFE}
    .fil1 {fill:#0D6A97}
    .fil0 {fill:#52A9D4}
   ]]>
  </style></defs><g id="Layer_x0020_1"><g id="_307567716304"><path class="fil0" d="M16 257c0,-7 -2,-17 -14,-21 25,-9 28,-39 9,-55 23,-6 29,-22 18,-47 28,2 37,-12 29,-39 26,2 38,-11 34,-38 27,9 41,0 43,-27 25,12 40,6 47,-19 22,17 38,14 49,-11 6,12 14,17 26,17l0 241 -241 -1z"/><path class="fil1" d="M496 257c-1,-10 2,-17 14,-21 -25,-9 -28,-39 -9,-55 -23,-6 -29,-22 -18,-47 -28,2 -37,-12 -29,-39 -26,2 -38,-11 -34,-38 -27,9 -41,0 -43,-27 -25,12 -40,6 -47,-19 -22,17 -38,14 -49,-11 -6,12 -14,17 -26,17l0 241 241 -1z"/><path class="fil1" d="M16 257c1,6 -2,15 -14,19 25,9 28,39 9,55 23,6 29,22 18,47 28,-2 37,12 29,39 26,-2 38,11 34,38 27,-9 41,0 43,27 25,-12 40,-6 47,19 22,-17 38,-14 49,11 6,-12 14,-17 26,-17l0 -237 -241 -1z"/><path class="fil0" d="M496 257c-1,6 2,15 14,19 -25,9 -28,39 -9,55 -23,6 -29,22 -18,47 -28,-2 -37,12 -29,39 -26,-2 -38,11 -34,38 -27,-9 -41,0 -43,27 -25,-12 -40,-6 -47,19 -22,-17 -38,-14 -49,11 -6,-12 -14,-17 -26,-17l2 -237 239 -1z"/><path class="fil2" d="M405 116c-93,-127 -331,-76 -351,105 26,-155 247,-224 351,-105z"/><path class="fil2" d="M104 395c92,126 330,76 351,-105 -27,155 -248,224 -351,105z"/><path class="fil2" d="M316 267c28,0 47,-22 47,-50 0,-29 -23,-52 -52,-52 -25,0 -47,19 -50,44l-2 0c-4,-25 -25,-44 -51,-44 -28,0 -46,26 -46,54 0,28 19,48 47,48l0 0 0 0 0 24 -59 -24 0 72 59 -12 0 24 95 0 -36 -84 48 0c0,0 0,0 0,0zm-108 -36c-8,0 -14,-6 -14,-14 0,-8 6,-15 14,-15 8,0 15,7 15,15 0,8 -7,14 -15,14zm90 -14c0,-8 7,-15 15,-15 8,0 14,7 14,15 0,8 -6,14 -14,14 -8,0 -15,-6 -15,-14z"/></g></g></svg>