<?xml version="1.0" ?><!DOCTYPE svg  PUBLIC '-//W3C//DTD SVG 1.1//EN'  'http://www.w3.org/Graphics/SVG/1.1/DTD/svg11.dtd'><svg height="512px" style="shape-rendering:geometricPrecision; text-rendering:geometricPrecision; image-rendering:optimizeQuality; fill-rule:evenodd; clip-rule:evenodd" version="1.1" viewBox="0 0 512 512" width="512px" xml:space="preserve" xmlns="http://www.w3.org/2000/svg" xmlns:xlink="http://www.w3.org/1999/xlink"><defs><style type="text/css">
   <![CDATA[
    .fil2 {fill:#FEFEFE}
    .fil0 {fill:#6E917A}
    .fil1 {fill:#35423A}
   ]]>
  </style></defs><g id="Layer_x0020_1"><g id="_307567729584"><path class="fil0" d="M16 257c0,-7 -2,-17 -14,-21 25,-9 28,-39 9,-55 23,-6 29,-22 18,-47 28,2 37,-12 29,-39 26,2 38,-11 34,-38 27,9 41,0 43,-27 25,12 40,6 47,-19 22,17 38,14 49,-11 6,12 14,17 26,17l0 241 -241 -1z"/><path class="fil1" d="M496 257c-1,-10 2,-17 14,-21 -25,-9 -28,-39 -9,-55 -23,-6 -29,-22 -18,-47 -28,2 -37,-12 -29,-39 -26,2 -38,-11 -34,-38 -27,9 -41,0 -43,-27 -25,12 -40,6 -47,-19 -22,17 -38,14 -49,-11 -6,12 -14,17 -26,17l0 241 241 -1z"/><path class="fil1" d="M16 257c1,6 -2,15 -14,19 25,9 28,39 9,55 23,6 29,22 18,47 28,-2 37,12 29,39 26,-2 38,11 34,38 27,-9 41,0 43,27 25,-12 40,-6 47,19 22,-17 38,-14 49,11 6,-12 14,-17 26,-17l0 -237 -241 -1z"/><path class="fil0" d="M496 257c-1,6 2,15 14,19 -25,9 -28,39 -9,55 -23,6 -29,22 -18,47 -28,-2 -37,12 -29,39 -26,-2 -38,11 -34,38 -27,-9 -41,0 -43,27 -25,-12 -40,-6 -47,19 -22,-17 -38,-14 -49,11 -6,-12 -14,-17 -26,-17l2 -237 239 -1z"/><path class="fil2" d="M405 116c-93,-127 -331,-76 -351,105 26,-155 247,-224 351,-105z"/><path class="fil2" d="M104 395c92,126 330,76 351,-105 -27,155 -248,224 -351,105z"/><path class="fil2" d="M229 227c65,-21 119,22 119,22l-44 14 -13 -27c-12,-3 -26,-4 -41,-1l31 70 130 -43c0,0 -47,-84 -189,-57 0,0 -1,1 -2,1l-14 -32 -40 5 16 39c-86,40 -48,135 -48,135l131 -43 -36 -83zm-59 77c0,0 -13,-32 24,-59l19 45 -43 14z"/></g></g></svg>