<?xml version="1.0" ?><!DOCTYPE svg  PUBLIC '-//W3C//DTD SVG 1.1//EN'  'http://www.w3.org/Graphics/SVG/1.1/DTD/svg11.dtd'><svg height="512px" style="enable-background:new 0 0 512 512;" version="1.1" viewBox="0 0 512 512" width="512px" xml:space="preserve" xmlns="http://www.w3.org/2000/svg" xmlns:xlink="http://www.w3.org/1999/xlink"><g id="Chopper_x2C__helicopter_x2C__landing_x2C__military"><g><path d="M160.187,201.416l-0.628,5.536l3.318-3.049L160.187,201.416z M294.686,193.751    c0.344-0.344,0.688-1.313,0.759-1.863c0.486-0.483,1.448-0.554,2.215-0.969c12.078-4.687,18.64-7.25,29.689-11.592    c-0.759-0.415-1.597-0.838-2.356-1.182l-28.16,10.425c-1.174,0.494-2.349,0.909-3.602,1.384    c-5.447,2.484-6.067,4.354-11.178,1.934c-0.071-0.071-0.142-0.139-0.213-0.139c-1.234,5.454-7.796,5.181-13.313,7.59    c-1.87,0.617-3.812,1.253-5.667,1.874c-2.285,0.759-4.629,1.515-6.903,2.286c-2.705,0.819-5.315,1.713-8.009,2.54    c-3.045,1.043-6.083,2.005-9.191,2.978c-1.863,0.617-3.662,1.234-5.245,1.852l0.759,2.491    c26.232-8.282,10.702-3.726,37.559-12.146c0.422,0.139,0.767,0.202,1.11,0.273c2.544-1.033,5.035-2.076,7.594-3.038    c1.447,4.07,2.835,8.211,4.283,12.367c0,0.206,0.06,0.408,0.131,0.617c-1.512,0.621-2.967,1.238-4.485,1.855    c-0.202,1.668-0.415,3.318-0.617,4.979c-2.693,0.688-5.94,1.306-8.36,2.342c-0.486,0.202-1.032,0.344-1.519,0.482    c-2.765,1.803-5.596,5.731-6.692,8.432c-8.078,2.2-12.918,8.069-16.438,12.898c-2.341,3.322-2.757,5.121-4.283,8.918    c-0.546,0.486-1.377,1.519-1.927,1.994c-0.98,0.842-1.941,1.732-2.903,2.633c-14.637,14.292,14.364,11.171,22.369,9.178    c1.734-0.476,3.455-0.969,5.176-1.455c0.082,0.83,0.213,1.668,0.284,2.428l9.041-2.084l-1.309,4.361l-3.521,1.033l0.76,2.416    l1.93-0.625l-0.546,1.729l-9.393,2.906c-0.831-0.142-1.598-0.344-2.423-0.564l-2.559,0.767l1.941,0.76l-2.285,0.688l0.546,1.803    l57.104-17.687l-0.546-1.797l-7.735,2.426c0-0.486,0-1.182,0.07-1.598l15.116-4.685l4.635-1.38l0.139-0.067l1.582-0.486    l-0.131-0.494l0.067-0.056l-0.067-0.078h-0.071l-0.55-1.721l-7.459,2.285l-3.381-4.5c1.934-1.032,3.867-2.068,5.802-3.179    c0.83-0.344,1.305,0.344,2.064,0c1.661-0.819,3.247-1.721,4.908-2.615c-0.079-0.344-0.15-0.767-0.202-1.111    c4.141-2.338,8.281-4.627,12.352-6.901c0.688-1.38,1.306-2.686,1.923-4.01c0.564-1.163,1.182-2.267,1.739-3.381    c0.688-1.923,1.369-3.868,2.005-5.791c0.415-0.98,1.032-2.005,1.163-3.109c0.76-0.83,2.634-1.032,3.666-1.649    c0.688,0.052,2.63,1.721,3.247,2.2c2.967,2.136,5.862,4.208,8.757,6.284c0.415-0.135,0.831-0.273,1.257-0.415    c-3.808-2.896-7.541-5.869-11.267-8.776c3.938-1.579,7.886-3.108,11.884-4.687c2.552,1.579,5.103,3.176,7.661,4.829    c1.175,0.838,2.207,1.799,4.07,1.455c-3.311-2.214-6.558-4.421-9.809-6.628c-0.06,0-0.06-0.071-0.131-0.071l50.541-18.565    l13.533,13.867l7.25-4.552c-3.524-4.485-7.048-8.97-10.497-13.545c0.483-0.052,1.04-0.131,1.598-0.202    c3.037,3.247,6.063,6.498,9.102,9.808c1.253-1.234,2.491-2.409,3.732-3.595c-3.591-2.689-7.186-5.375-10.77-8.069    c1.175-1.047,2.35-2.143,3.584-3.176c0.071-0.273-6.629-1.324-7.388-1.448c-0.131-0.142-0.131-5.185-0.131-6.015v-18.086    l-6.359,1.104c-1.163,5.869-2.409,11.731-3.591,17.604c0,0.071,0,0.139,0,0.139c-1.998-2.417-4.07-4.826-6.139-7.246    c-0.273-0.071-2.559,3.868-2.896,4.343c2.765,2.076,5.51,4.16,8.282,6.153c0.407,0.475-1.175,5.304-1.377,6.146    c-23.626,6.7-47.229,13.321-70.777,20.013c-6.284-0.961-12.49-1.926-18.707-2.888c-12.711,1.994-22.228,3.303-35.084,5.933    c-1.508-4.351-2.963-8.765-4.414-13.182C289.646,195.543,292.134,194.653,294.686,193.751L294.686,193.751z M315.185,255.409    l-8.757,2.701l0.546-4.628c1.945-1.04,3.938-2.001,5.943-3.033C313.677,252.099,314.425,253.759,315.185,255.409L315.185,255.409z     M303.312,259.071l-15.528,4.827l-2.349-4.692c7.661-1.44,11.659-2.765,18.928-5.518L303.312,259.071z M284.473,264.942    l-7.807,2.409c0.214-1.65,0.486-3.247,0.688-4.829c1.104-0.617,2.219-1.306,3.322-1.941c0.131-0.071,0.201-0.071,0.272-0.071l0,0    c0.617,0.415,1.183,0.838,1.729,1.324L284.473,264.942z M276.049,270.115l26.989-8.353l-0.273,1.653l-8.079,2.487l-0.547,0.214    l-5.394,1.649l-0.273,0.063l-0.276,0.086l-12.146,3.797V270.115z M283.228,197.892L283.228,197.892    c1.175,3.666,2.338,7.321,3.52,10.983c-0.422,0.142-0.838,0.273-1.241,0.344c-1.175-3.591-2.278-7.246-3.453-10.912    C282.476,198.177,282.884,198.034,283.228,197.892L283.228,197.892z M285.637,197.204L285.637,197.204    c1.388,4.148,2.764,8.218,4.159,12.359c-0.636-0.415-1.253-0.89-1.874-1.305c-1.104-3.595-2.285-7.115-3.449-10.702    C284.877,197.417,285.292,197.346,285.637,197.204L285.637,197.204z M263.548,250.022L263.548,250.022h-0.273    c-9.334,1.59-16.36,2.147-18.851,0.831c5.379-10.972,11.937-18.857,21.129-19.474    C264.924,237.592,264.236,243.817,263.548,250.022L263.548,250.022z M277.841,229.453L277.841,229.453    c0,0.071,0.071,0.071,0.071,0.071l0.063,0.206v0.273v0.209l0.067,0.206v0.273l0.071,0.209v0.206l0.07,0.273v0.213l0.064,0.202    v0.273l0.07,0.202v0.221l0.067,0.273v0.213v0.202l0.071,0.273v0.213l0.071,0.273v0.206l0.063,0.209v0.273l0.071,0.206v0.209    l0.067,0.273v0.206l0.071,0.221v0.273l0.07,0.213v0.202v0.273l0.063,0.202v0.213l0.071,0.273v0.202l0.071,0.213v0.273l0.078,0.202    v0.213l0.061,0.273v0.206l0.063,0.209v0.284v0.209l0.078,0.273v0.206l0.063,0.209v0.277l0.079,0.202v0.202l0.071,0.284v0.202    l0.07,0.202v0.284l0.067,0.202v0.202l0.063,0.292v0.194v0.221l0.071,0.273v0.206l0.071,0.209v0.273l0.071,0.206l-0.214,0.071    h-0.201l-0.214,0.067l-0.202,0.071h-0.149l-0.205,0.063l-0.21,0.071h-0.206l-0.202,0.071l-0.209,0.067h-0.206l-0.142,0.071    l-0.202,0.063h-0.202l-0.213,0.071h-0.202l-0.213,0.071l-0.132,0.067h-0.213l-0.202,0.071l-0.221,0.063h-0.202l-0.205,0.071    l-0.139,0.071h-0.206l-0.209,0.071l-0.206,0.06h-0.209l-0.202,0.071l-0.206,0.071h-0.139l-0.205,0.071l-0.21,0.071h-0.205    l-0.21,0.067l-0.206,0.063h-0.131l-0.213,0.071h-0.202l-0.213,0.071l-0.202,0.079h-0.221l-0.202,0.052l-0.142,0.071h-0.202    l-0.202,0.078l-0.213,0.064h-0.202l-0.214,0.079l-0.131,0.071h-0.213l-0.202,0.052l-0.206,0.079h-0.209l-0.206,0.071l-0.138,0.071    H268.8l-0.21,0.071h-0.205l-0.202,0.071l-0.221,0.06h-0.202l-0.143,0.071l-0.201,0.071v-0.273l0.06-0.213l0.071-0.28v-0.266    l0.07-0.221v-0.273l0.071-0.202l0.071-0.277v-0.209l0.06-0.273v-0.277l0.071-0.209l0.071-0.273v-0.206l0.142-0.482v-0.277    l0.079-0.273v-0.221l0.135-0.475v-0.284l0.067-0.475l0.063-0.273l0.078-0.213l0.135-0.752v-0.209l0.071-0.284l0.139-0.961    l0.063-0.285l0.142-0.961l0.067-0.273l0.071-0.486l0.063-0.202v-0.273l0.071-0.221l0.139-0.76v-0.273l0.07-0.206l0.064-0.273    l0.07-0.486v-0.273l0.071-0.202l0.071-0.285v-0.202l0.067-0.273l0.063-0.221v-0.273l0.071-0.273v-0.213l0.071-0.273h0.138    l0.135-0.071L277.841,229.453z M285.161,239.04h-0.071l-0.272-4.414v-0.202l-0.071-0.142l-0.415-5.869l14.91-3.25l0.345,1.803    v0.071l0.213,1.092v0.213l1.729,10.01l-16.235,3.18L285.161,239.04z M269.144,290.693l0.345,0.415l-4.279,2.967l-1.59,1.174    l-0.071,0.345l-1.104,0.752l-0.071,0.564l0.143,0.21l-3.664,2.543c0.067,0.415,0.138,0.909,0.138,1.385l0,0l5.037,0.07    l-0.063,10.152h4.563h0.273c0.55,0,1.167,0,1.725,0c0,0,0,0,0.06,0l0,0l0,0l0.628-0.067v-2.563c0-1.316,0.696-2.487,1.729-3.108    v-0.617h1.653c0.139,0,0.202,0,0.345,0l0,0h1.11c0.143-0.071,0.202-0.142,0.202-0.344l0.688-6.214c0-0.07,0-0.213-0.06-0.276    c-0.071-0.067-0.214-0.139-0.284-0.139h0.07l0,0c0.143,0,0.345-0.135,0.345-0.344l0.415-3.797c0-0.071,0-0.202-0.071-0.273    c-0.071-0.07-0.202-0.149-0.273-0.149h0.071c0.202,0,0.345-0.123,0.345-0.344l0.344-3.304c0-0.149,0-0.213-0.071-0.291    c-0.07-0.053-0.209-0.131-0.272-0.131h0.063l0,0c0.209,0,0.352-0.143,0.352-0.345l0.131-1.245h1.036l0.078,1.245    c0.061,0.202,0.202,0.345,0.416,0.345h3.37h-3.3c-0.07,0-0.221,0.078-0.284,0.131c-0.078,0.078-0.142,0.142-0.142,0.291    l0.355,3.304c0,0.221,0.201,0.344,0.344,0.344l4.616,0.079l-4.545-0.079l0,0c-0.071,0-0.214,0.079-0.277,0.149    c-0.067,0.071-0.067,0.202-0.067,0.273l0.345,3.868c0.06,0.138,0.202,0.272,0.403,0.272l5.458,0.071l-5.387-0.071l0,0    c-0.131,0-0.202,0.071-0.272,0.139c-0.071,0.063-0.143,0.206-0.143,0.276l0.629,6.143c0,0.213,0.131,0.344,0.344,0.344    l7.997,0.071c0.071,0,0.214-0.071,0.281-0.142c0.071-0.061,0.071-0.131,0.071-0.273l0.063-2.144c0-0.205-0.202-0.344-0.416-0.344    h-0.89v-6.419h3.935l-0.07,6.419h-1.448c-0.131,0-0.202,0-0.272,0.071c-0.071,0.067-0.131,0.209-0.131,0.272v2.144    c0,0.213,0.201,0.415,0.403,0.415h4.011l0,0c0.131,0,0.201-0.071,0.272-0.142h0.071c0.071,0.07,0.131,0.142,0.202,0.142h0.89l0,0    c0.143,0,0.214-0.071,0.285-0.142c0.07,0.07,0.201,0.142,0.272,0.142h1.87v0.486h-0.415c0.966,0.476,1.725,1.377,1.998,2.491    c6.699-1.324,12.64-2.633,16.709-3.744c7.736-1.997,26.586-5.589,32.241-6.621c-8.622,10.982-37.908,43.497-35.618,56.137    l-150.042-0.494h-74.5l-0.071-0.475l-18.505-29.69h0.071c-0.688-3.654-1.305-10.286-1.448-12.366V294.49l12.906,0.071    l9.262,16.145l-8.641-0.067l0,0h0.636l0,0l0,0l8.828,0.067l5.102-4.829l8.705,0.07c0.071,0,0.281-0.07,0.415-0.201    c0.139-0.143,0.209-0.281,0.209-0.416v-7.938h-0.625v-4.137l0,0l0,0l0.071-3.049l0,0v-1.111l2.487,0.071v-1.238    c0-0.411-0.28-0.759-0.696-0.759h-3.445v-2.975l6.692,0.071v4.9h2.693l-0.071,8.226h-0.415l-0.06,7.725    c0,0.143,0.06,0.348,0.202,0.415c0.071,0.143,0.273,0.214,0.415,0.214h2.488l0,0c0.277,0,0.55-0.214,0.55-0.486    c1.234-6.355,3.038-12.569,3.108-18.999l0,0l0,0v-3.435l0,0v-1.253h1.171c0.071-0.688,0.277-1.306,0.55-1.923l-5.518-3.797    l0.139-0.213l-0.067-0.617l-1.175-0.767v-0.345l-1.661-1.104l-4.212-2.966l0.273-0.486l4.354,2.832l1.661,1.103l0.273-0.066    l2.278,1.597l1.04-0.149l0.202-0.344l0.213,0.131l0.202-0.273l1.927,1.324l0.142-0.284l0.273,0.213c0,0,0.423-0.564,0.636-0.909    c0.273-0.415,0.475-0.135,0.475-0.135s0,0,0.344,0.206c0.273,0.221,0.071,0.423,0.071,0.423l-0.486,0.688l0.486,0.344l0.071,0.345    l-0.213,0.344l0.759,0.55c0.688-0.344,1.459-0.55,2.218-0.55l0,0c2.832,0,5.102,2.147,5.304,4.9h0.973v8.289h2.001l0,0l0,0h0.621    l0.067-10.99h9.943l6.284,10.99l3.045,0.071c0.348,0,0.621-0.273,0.621-0.617v-8.017l0,0V248.99l0,0l0.475-4.556l6.355,2.349    l-6.486,2.207h4.624l4.141-1.377l3.453,1.235v0.142h1.455l0.064-3.662l0,0v-4.964v-2.903h11.529l8.768,0.071v29.546h1.04    l-0.131,17.26h0.961l0.202-22.99h3.726l-0.202,22.99h1.032l0.142-17.26h3.726l-0.142,17.26l3.18,0.071l-0.071,5.322    c0,0.345,0.28,0.617,0.617,0.617l16.164,0.071l0.486,5.103c0,0.344,0.273,0.546,0.617,0.546l6.427,0.071l2.349,5.395v3.037    l-87.214-0.273l0,0c-0.202,0-0.344,0.071-0.475,0.202l-5.042,6.359h1.59l4.201-5.327l98.818,0.277l0,0    c0.344,0,0.617-0.277,0.617-0.621l0.071-4.141h3.52v-0.067c0-3.737,3.038-6.835,6.763-6.835c1.994,0,3.797,0.962,5.031,2.409    l1.598-1.104l0.276,0.273l0.21-0.131l0.205,0.415l0.964,0.06l2.356-1.507h0.272l1.583-1.033L269.144,290.693z M159.285,209.836    l-0.546,4.971l3.793-2.622L159.285,209.836z M157.352,227.38l-0.558,4.758l5.323-2.48L157.352,227.38z M156.521,234.626    l-0.759,7.25l6.355-4.141L156.521,234.626z M158.391,217.853l-0.827,7.665l5.039-4.291L158.391,217.853z M184.075,229.25h-2.764    v6.763h2.764V229.25z M169.438,224.967l-0.479-7.193l-4.084,3.453L169.438,224.967z M169.924,231.723l-0.273-3.939l-4.01,1.874    L169.924,231.723z M163.497,236.844l5.738-3.797l-5.394-2.559l-6.277,2.962L163.497,236.844z M168.678,214.748l-0.344-4.77    l-3.168,2.207L168.678,214.748z M168.132,206.799l-0.426-5.383l-2.611,2.487L168.132,206.799z M166.4,200.593h-3.037h-1.033l0,0    h-0.83l2.48,2.271L166.4,200.593z M162.674,192.162c0.202,0.135,0.408,0.415,0.408,0.692v6.213h0.415h0.76v-6.213    c0-0.142,0.067-0.344,0.202-0.486c0.071-0.071,0.209-0.135,0.273-0.135c-0.273-0.138-0.475-0.415-0.475-0.688l0.067-5.252    c0-0.195,0.071-0.337,0.206-0.558c0.071,0,0.138-0.071,0.202-0.131c-0.064,0-0.131-0.071-0.202-0.142    c-0.135-0.142-0.206-0.344-0.206-0.546v-0.973h-1.242v0.973c0,0.202-0.063,0.404-0.206,0.546    c-0.067,0.071-0.139,0.142-0.202,0.142c0.063,0.06,0.135,0.06,0.202,0.131c0.142,0.142,0.206,0.363,0.206,0.558v5.181    C163.082,191.817,162.876,192.094,162.674,192.162L162.674,192.162z M163.98,204.936l-3.936,3.595l3.797,2.764l4.006-2.764    L163.98,204.936z M167.503,246.368l-1.246,0.416l1.246,0.486V246.368z M167.503,239.04v-2.338c0-0.202,0.064-0.416,0.202-0.546    c0.142-0.142,0.344-0.213,0.55-0.213h2.013l-0.142-1.661l-5.103,3.381L167.503,239.04z M163.913,228.835l5.046-2.357l-5.188-4.272    l-4.964,4.212L163.913,228.835z M163.707,220.265l4.627-3.939l-4.493-3.239l-4.829,3.311L163.707,220.265z M167.503,242.421    v-1.649l-3.939-2.207l-7.115,4.698l7.601,2.682l3.453-1.167V242.421z" style="fill:#262626;"/></g></g><g id="Layer_1"/></svg>