<?xml version="1.0" ?><!DOCTYPE svg  PUBLIC '-//W3C//DTD SVG 1.1//EN'  'http://www.w3.org/Graphics/SVG/1.1/DTD/svg11.dtd'><svg height="512px" style="enable-background:new 0 0 512 512;" version="1.1" viewBox="0 0 512 512" width="512px" xml:space="preserve" xmlns="http://www.w3.org/2000/svg" xmlns:xlink="http://www.w3.org/1999/xlink"><g id="army_x2C__jacket_x2C__safe_x2C__front_x2C__military"><g><path d="M371.052,407.964c5.798,0,10.496-4.688,10.496-10.489V250.752    c0-5.031-1.8-12.834-4.01-17.391c-12.637-26.177-22.235-78.034-22.235-118.969c0-5.66,0.625-10.358-5.105-10.358h-26.233    c0,20.439-14.918,104.051-62.968,109.718v5.6v20.559v10.769v0.071h82.229c3.801,0,6.838,3.108,6.838,6.834v7.255    c0,3.797-3.037,6.902-6.838,6.902h-82.229l0,0v26.106v0.07h82.229c3.801,0,6.838,3.098,6.838,6.823v7.25    c0,3.796-3.037,6.905-6.838,6.905h-82.229l0,0v26.113v0.06h82.229c3.801,0,6.838,3.03,6.838,6.823v7.269    c0,3.797-3.037,6.894-6.838,6.894h-82.229l0,0v26.106c0,1.175-0.419,2.286-1.039,3.176l16.776,12.625H371.052z M250.497,213.753    c-48.053-5.667-62.831-89.279-62.831-109.718h-26.233c-5.667,0-5.112,4.698-5.112,10.358c0,40.935-9.535,92.792-22.235,118.969    c-2.21,4.556-3.937,12.359-3.937,17.391v146.723c0,5.802,4.697,10.489,10.427,10.489h94.25l16.773-12.625    c-0.688-0.89-1.104-2.001-1.104-3.176v-26.106l0,0h-82.165c-3.793,0-6.899-3.097-6.899-6.894v-7.269    c0-3.793,3.106-6.823,6.899-6.823h82.165v-0.06v-26.113l0,0h-82.165c-3.793,0-6.899-3.109-6.899-6.905v-7.25    c0-3.726,3.106-6.823,6.899-6.823h82.165v-0.07v-26.106l0,0h-82.165c-3.793,0-6.899-3.105-6.899-6.902v-7.255    c0-3.726,3.106-6.834,6.899-6.834h82.165v-0.071v-10.769v-20.559V213.753z" style="fill-rule:evenodd;clip-rule:evenodd;fill:#262626;"/></g></g><g id="Layer_1"/></svg>