<?xml version="1.0" ?><!DOCTYPE svg  PUBLIC '-//W3C//DTD SVG 1.1//EN'  'http://www.w3.org/Graphics/SVG/1.1/DTD/svg11.dtd'><svg height="512px" style="enable-background:new 0 0 512 512;" version="1.1" viewBox="0 0 512 512" width="512px" xml:space="preserve" xmlns="http://www.w3.org/2000/svg" xmlns:xlink="http://www.w3.org/1999/xlink"><g id="tank_x2C__war_x2C__war_tank_x2C__weapon_x2C__military"><g><path d="M444.478,207.562v6.701l-110.541,3.314l-1.104,1.519h-7.8v3.314c0,0,8.147,2.966,8.147,7.107    l3.378,2.97c0,0,5.94-1.859,6.699,2.97l6.696,3.731c0,0-0.345-3.387,4.073-4.075c4.489-0.76,4.489,4.075,4.489,4.075h8.222v3.314    h3.729l-3.729,7.111c0,0,3.311,1.109,4.418,4.076h12.288c0,0,15.674,3.724,18.225,13.396h-5.521c0,0,3.592,6.139,2.689,13.186    h11.054c1.587,0,8.56,2.971,9.596,5.383c0-0.415,0.553-1.795,1.795-1.795c1.175,0,4.766,1.178,4.766,0c0-0.827,2.555,0,2.555,0    v0.973l2.619,0.407c0.352,1.171-2.002,3.595-2.002,3.595l-3.523,4.414c1.384,2.068,3.662,5.387,3.943,5.937    c0.344,0.83-1.037,1.803-2.01,0c-0.617-1.032-1.997-3.034-3.029-4.485l-7.32,9.255c0,0-0.345,0.276-0.835,0.763l-0.965,5.795    l-2.203-0.412v5.245l-1.938,0.897l-2.278,2.559l-1.036-0.901l-2.215,1.104l0.146,0.344l-5.458,2.907l-0.276-0.49l-1.171,0.628    l0.131,0.345l-5.518,2.895l-0.202-0.482l-2.218,1.107l0.209,0.411l-5.525,2.903l-0.276-0.554l-1.934,0.965l0.142,0.281    l-5.524,2.898l-0.206-0.415l-4.208,2.064l-2.903,1.59l-0.071-0.063l-2.214,1.1l0,0l-5.521,2.907l-0.482-0.901h-2.967v1.309h-6.213    v-1.309h-2.005v1.309h-6.214v-1.309h-2.005v1.309h-6.276v-1.309h-2.005v1.309h-6.214v-1.309h-2.005v1.309h-6.276v-1.309h-2.006    v1.309h-6.213v-1.309h-2.005v1.309h-6.217v-1.309h-2.069v1.309h-6.209v-1.309h-2.005v1.309h-6.218v-1.309h-2.001v1.309h-6.28    v-1.309h-2.002v1.309h-6.213v-1.309h-2.005v1.309h-6.217v-1.309h-2.069v1.309h-6.215v-1.309h-2v1.309h-6.215v-1.309h-2.003v1.309    h-6.286v-1.309h-1.996v1.309h-6.219v-1.309h-2v1.309h-6.286v-1.309h-2.003v1.309h-6.211v-1.309h-2.009v1.309h-6.209v-1.309h-2.001    v1.309h-6.285v-1.309h-2.005v1.309h-6.209v-1.309h-2.009v1.309h-6.277v-1.309h-2.005v1.309h-6.21v-1.309h-2.008v1.309h-6.211    v-1.309h-2v1.309h-6.285v-2.831l-1.797-1.171l-0.963,1.313L148,334.193l0.694-0.897l-1.801-1.107l-0.961,1.246l-4.904-3.797    l0.692-0.901l-1.801-1.171l-1.377,1.725l-4.904-3.868l1.042-1.306l-1.59-1.036l-1.107,1.381l-4.904-3.797l0.763-1.036    l-0.136-0.143c-1.315-0.341-2.415-0.76-3.178-1.175c-1.727-0.961-4.904-3.452-7.938-6.074l-4.629-3.034    c-2.697-0.071-6.905-0.21-8.493-0.83c-0.623,1.032-1.727,1.866-3.316,2.001c-0.14,0-0.277,0-0.413,0l0,0    c-1.382,0-2.482-0.479-3.245-1.313c-0.759-0.755-1.104-1.791-1.104-2.764c0-1.579,0.896-3.311,2.759-3.868    c0.626-0.202,1.178-0.27,1.726-0.27c1.244,0,2.282,0.482,3.042,1.242c0.688-0.973,1.863-1.661,3.658-1.934    c-0.899-1.101-1.519-1.863-1.519-1.863H93.107v-3.176H73.154v-19.126h-5.937v-11.533h3.934c0,0,0.825-2.412,3.041-2.412    c2.14,0,25.271,0,25.271,0v3.797h3.178h1.17l1.929-1.935h5.248h2.561l-5.177-9.666l3.659-4.485l-6.29-3.316l4.838-5.592    l-4.494-2.626v-8.146h8.573v-2.626h41.352v-2.97h5.177v2.626h7.805v2.211h10.085c0,0,1.1-4.077,7.457-4.077    c6.346,0,5.587,4.423,5.587,4.423v-5.598h8.909l-11.879-16.708l15.952-15.673c0,0-1.451-3.726,0.756-6.692    c2.282-2.972,7.111-5.598,3.385-5.179c-3.729,0.344-8.559,0-8.559,0v1.859h-11.535v-2.278h-26.445v-4.347l36.46-0.482h11.185    v-2.626h17.882l2-2.003h13.255v8.007h-5.592l-2.415,2.418h-10.218h-3.731h-6.692c0,0-6.7,7.253-2.97,10.567h70.701v-2.561h17.121    v2.561l11.528,6.348v-4.07h1.52c0,0,2.974-4.075,6.288-3.729c3.374,0.344,5.248,4.07,1.866,8.218l7.455,5.937h5.248v2.207    L444.478,207.562z M126.595,266.741c0.346-0.284,0.69-0.489,1.109-0.763H114.58v0.763H126.595z M215.873,333.296L215.873,333.296    v0.969h1.173C216.626,333.921,216.217,333.64,215.873,333.296L215.873,333.296z M233.545,333.984L233.545,333.984    c-0.136,0.071-0.273,0.139-0.348,0.28h0.348V333.984z M369.978,329.227L369.978,329.227l0.143,0.209l1.036-0.558l-0.482-0.965    C370.468,328.392,370.259,328.807,369.978,329.227L369.978,329.227z M398.77,319.003L398.77,319.003l-0.822-1.586v-0.901    c-0.348,0.07-0.7,0.142-0.973,0.205c-0.756,0.075-1.444,0-2.072-0.063l0.628,0.554l1.171,0.688l0.831,1.657L398.77,319.003z     M376.606,324.599L376.606,324.599l0.901,1.657l1.032-0.55l-0.826-1.661l1.036-0.557l1.451,1.245l1.175,0.764l0.823,1.653    l1.934-0.966l-0.756-1.451v-1.447l-0.139-1.725l0.966-0.554l0.83,1.657l1.1-0.55l-0.894-1.657l1.104-0.558l1.447,1.246    l1.111,0.759l0.822,1.519l2.207-1.104l-0.752-1.519l-0.07-1.519l-0.071-1.729l0.894-0.489l0.902,1.593l1.036-0.553l-0.831-1.59    l0.348-0.202c-2.898-0.898-4.766-2.761-4.766-2.761s-5.177,2.346-10.01,3.936c-1.179,0.411-3.729,0.894-7.182,1.451    c0.272,1.1,0.415,2.207,0.415,3.381c0,1.587-0.277,3.102-0.76,4.485l0.273-0.139l1.451,1.246l1.171,0.76l1.107,2.001l1.59-0.76    l-0.895-1.586v-1.455l-0.067-1.795L376.606,324.599z M369.495,333.506L369.495,333.506l-1.032-2.002v-0.07    c-0.621,0.62-1.246,1.241-1.938,1.799l0.691,1.377L369.495,333.506z M361.071,336.263L361.071,336.263l-0.206-0.345    c-0.344,0.071-0.688,0.139-1.104,0.139v0.206H361.071z M353.549,336.263L353.549,336.263v-0.752c-0.901-0.281-1.8-0.7-2.622-1.179    l0.617,1.036v0.895H353.549z M328.83,336.263L328.83,336.263v-0.962l0.692-1.316l0.688-1.586h1.036v1.866h1.241v-1.866h1.175    l0.688,1.795l0.692,1.175v0.895h2.005v-0.962l0.688-1.316l0.691-1.586h1.1v1.866h1.179v-1.866h1.175l0.688,1.795l0.755,1.175    v0.895h2.005v-0.962l0.692-1.316l0.688-1.586h1.036v1.866h1.171v-1.316c-3.034-2.552-4.896-6.348-4.896-10.628    c0-0.142,0-0.28,0-0.415c-4.003,0.21-7.673,0.415-10.77,0.415c0,5.182-2.836,9.666-7.044,12.079l0.617,0.969v0.895H328.83z     M320.549,336.191L320.549,336.191c-0.42,0-0.835,0-1.246,0.071h1.246V336.191z M319.303,336.263L319.303,336.263    c-0.276-0.071-0.486-0.071-0.76-0.071v0.071H319.303z M295.83,336.263L295.83,336.263v-0.962l0.685-1.316l0.695-1.586h1.1v1.866    h1.175v-1.866h1.175l0.692,1.795l0.688,1.175v0.895h2.069v-0.962l0.695-1.316l0.688-1.586h1.036v1.866h1.171v-1.866h1.245    l0.688,1.795l0.692,1.175v0.895h2.005v-0.962l0.344-0.691c-4.35-2.421-7.32-6.97-7.32-12.289c-1.522,0-3.101,0-4.766,0    c0,5.245-2.966,9.805-7.249,12.222l0.486,0.826v0.895H295.83z M287.607,336.191L287.607,336.191c-0.344,0-0.62,0-0.969,0.071    h0.969V336.191z M286.639,336.263L286.639,336.263c-0.344-0.071-0.688-0.071-1.032-0.071v0.071H286.639z M271.111,336.263    L271.111,336.263v-0.962l0.681-1.316l0.7-1.586h1.028v1.866h1.245v-1.866h1.179l0.688,1.795l0.691,1.175v0.895h2.002v-0.962    l0.482-0.901c-4.216-2.346-7.115-6.897-7.115-12.079c-1.036,0-2.136,0-3.172,0c0,3.936-1.661,7.526-4.351,10.078h0.139v1.866    h1.175v-1.866h1.238l0.691,1.795l0.692,1.175v0.895H271.111z M262.89,336.263L262.89,336.263v-0.962l0.695-1.316l0.135-0.408    c-0.901,0.688-1.863,1.234-2.97,1.653l0.07,0.139v0.895H262.89z M254.605,336.263L254.605,336.263v-0.071    c-0.692-0.06-1.311-0.135-2-0.273v0.345H254.605z M238.102,336.263L238.102,336.263v-0.962l0.694-1.316l0.688-1.586h1.107v1.866    h1.175v-1.866h1.24l0.694,1.795l0.688,1.175v0.895h2.003v-0.962l0.694-1.316l0.202-0.479c-3.451-2.552-5.664-6.633-5.664-11.186    c-0.825,0-1.725,0-2.621,0c0,0.132,0.069,0.27,0.069,0.416c0,3.931-1.588,7.526-4.148,10.077l0.49,1.38l0.692,1.175v0.895H238.102    z M229.887,335.989L229.887,335.989c-0.273,0.067-0.548,0.143-0.759,0.273h0.759V335.989z M221.121,336.263L221.121,336.263    c-0.48-0.206-0.967-0.345-1.522-0.55v0.55H221.121z M205.168,336.263L205.168,336.263v-0.962l0.688-1.316l0.692-1.586h1.034v1.866    h1.244v-1.866h1.178l0.688,1.795l0.685,1.175v0.895h2.009v-0.962l0.688-1.316l0.688-1.586h0.138    c-2.278-2.484-3.726-5.731-3.726-9.39c0-0.205,0-0.482,0-0.688c-0.896,0-1.859,0-2.83,0c0,0.132,0,0.27,0,0.416    c0.071,4.766-2.282,8.974-5.867,11.528l0.688,1.104v0.895H205.168z M188.668,336.263L188.668,336.263v-0.688    c-1.038-0.479-2.009-1.032-2.835-1.725l0.142,0.344l0.685,1.175v0.895H188.668z M180.383,336.263L180.383,336.263v-0.962    l0.692-1.316l0.756-1.586h1.042v1.866h1.169v-1.866h0.204c-2.272-2.484-3.726-5.731-3.726-9.39c0-0.205,0-0.482,0-0.688    c-0.825,0-1.659,0-2.415,0c0,0.132,0,0.27,0,0.416c0.071,3.726-1.382,7.11-3.729,9.662h0.277v1.866h1.175v-1.866h1.171    l0.692,1.795l0.688,1.175v0.895H180.383z M172.168,336.263L172.168,336.263v-0.962l0.688-1.316l0.137-0.273    c-0.892,0.688-1.792,1.246-2.833,1.729v0.823H172.168z" style="fill:#262626;"/></g></g><g id="Layer_1"/></svg>