<?xml version="1.0" ?><!DOCTYPE svg  PUBLIC '-//W3C//DTD SVG 1.1//EN'  'http://www.w3.org/Graphics/SVG/1.1/DTD/svg11.dtd'><svg enable-background="new 0 0 50 50" height="50px" version="1.1" viewBox="0 0 50 50" width="50px" xml:space="preserve" xmlns="http://www.w3.org/2000/svg" xmlns:xlink="http://www.w3.org/1999/xlink"><g id="Layer_13"/><g id="Layer_12"/><g id="Layer_11"/><g id="Layer_10"/><g id="Layer_9"/><g id="Layer_8"/><g id="Layer_7"/><g id="Layer_6"/><g id="Layer_5"/><g id="Layer_4"/><g id="Layer_3"><path clip-rule="evenodd" d="M18.315,18.101v-4.558h-2.506v4.558H18.315z M19.816,19.118v4.494h2.506v-4.494   H19.816z M25.108,14.395v4.558h2.506v-4.558H25.108z M30.406,17.273v4.605h2.507v-4.605H30.406z M33.74,25.217h-2.506v3.704h2.506   V25.217z M27.248,28.415v-4.901h-2.507v4.901H27.248z M15.23,25.925v-4.901h-2.507v4.901H15.23z M18.523,27.351v5.031h2.506v-5.031   H18.523z M15.415,35.595v-4.901h-2.507v4.901H15.415z M22.806,33.069v4.901h2.506v-4.901H22.806z M28.811,30.973v4.901h2.507   v-4.901H28.811z M35.583,31.557c0,7.4-7.611,12.685-14.604,9.789c-1.287-0.533-2.453-1.317-3.43-2.289l-1.762,1.772   c1.206,1.198,2.645,2.166,4.242,2.827c8.677,3.594,18.062-2.958,18.062-12.099V18.443c0-3.052-1.079-5.999-3.029-8.344   l-1.919,1.596c1.583,1.905,2.441,4.271,2.441,6.748V31.557z M43.444,31.557V18.443c0-5.074-2.075-9.685-5.417-13.027   c-7.221-7.222-18.835-7.221-26.056,0c-3.342,3.342-5.417,7.953-5.417,13.027v13.114c0,5.074,2.075,9.685,5.417,13.027   c7.22,7.221,18.836,7.221,26.056,0C41.369,41.242,43.444,36.631,43.444,31.557z M40.603,18.443v13.114   c0,4.289-1.757,8.19-4.584,11.018c-6.112,6.112-15.927,6.112-22.039,0c-2.828-2.828-4.584-6.729-4.584-11.018V18.443   c0-4.289,1.757-8.19,4.584-11.018c6.113-6.111,15.926-6.113,22.039,0C38.847,10.253,40.603,14.154,40.603,18.443z M26.261,9.236   c1.862,0,3.423-1.221,4.172-2.878L28.151,5.33c-0.34,0.753-1.023,1.4-1.89,1.4h-2.537c-0.876,0-1.56-0.653-1.899-1.416   l-2.282,1.018c0.743,1.669,2.31,2.904,4.181,2.904H26.261z" fill-rule="evenodd"/></g><g id="Layer_2"/></svg>