<?xml version="1.0" ?><!DOCTYPE svg  PUBLIC '-//W3C//DTD SVG 1.1//EN'  'http://www.w3.org/Graphics/SVG/1.1/DTD/svg11.dtd'><svg enable-background="new 0 0 50 50" height="50px" version="1.1" viewBox="0 0 50 50" width="50px" xml:space="preserve" xmlns="http://www.w3.org/2000/svg" xmlns:xlink="http://www.w3.org/1999/xlink"><g id="Layer_13"/><g id="Layer_12"/><g id="Layer_11"/><g id="Layer_10"/><g id="Layer_9"/><g id="Layer_8"/><g id="Layer_7"/><g id="Layer_6"/><g id="Layer_5"><path clip-rule="evenodd" d="M32.376,3.828c-0.891,3.29-2.231,6.152-6.036,6.357   C26.238,6.334,29.175,4.845,32.376,3.828 M27.801,16.623c3.309,2.889,6.024,6.376,7.203,10.671   c0.971,3.535,0.69,7.143-1.048,10.361c-1.557,2.885-4.456,5.164-7.265,7.373L25,46.372l-1.687-1.34   c-2.797-2.2-5.69-4.474-7.245-7.327c-1.757-3.221-2.048-6.835-1.081-10.38c1.176-4.316,3.892-7.799,7.212-10.703   C22.638,15.29,23.482,14.32,25,14.32C26.516,14.32,27.364,15.29,27.801,16.623z M19.139,30.843c0.119-2.44,1.052-4.215,2.185-6.278   l-2.154-1.183c-1.331,2.426-2.342,4.487-2.482,7.347c-0.235,4.808,2.055,7.388,5.331,10.418l1.664-1.799   C21,36.867,18.944,34.836,19.139,30.843z M37.684,26.564c-1.133-4.126-3.709-8.146-7.487-11.535   c-0.38-0.927-1.004-1.733-1.788-2.335C34.038,11.261,35.086,4.859,36.047,0C32.129,0.953,27.1,1.973,24.741,5.606l-0.995-2.691   l-2.616,0.96l2.367,6.402c0.005,0.488,0.082,0.973,0.09,1.435c-1.702,0.445-3.116,1.687-3.785,3.317   c-3.789,3.397-6.369,7.432-7.496,11.568c-1.154,4.228-0.796,8.557,1.321,12.438c1.837,3.37,4.951,5.819,7.964,8.187   c1.159,0.91,2.284,1.827,3.408,2.778c1.127-0.952,2.254-1.869,3.414-2.782c3.031-2.384,6.158-4.843,7.995-8.246   C38.499,35.1,38.842,30.782,37.684,26.564z" fill-rule="evenodd"/></g><g id="Layer_4"/><g id="Layer_3"/><g id="Layer_2"/></svg>