<?xml version="1.0" ?><svg height="16px" id="SVGRoot" version="1.1" viewBox="0 0 16 16" width="16px" xmlns="http://www.w3.org/2000/svg" xmlns:cc="http://creativecommons.org/ns#" xmlns:dc="http://purl.org/dc/elements/1.1/" xmlns:inkscape="http://www.inkscape.org/namespaces/inkscape" xmlns:rdf="http://www.w3.org/1999/02/22-rdf-syntax-ns#" xmlns:sodipodi="http://sodipodi.sourceforge.net/DTD/sodipodi-0.dtd" xmlns:svg="http://www.w3.org/2000/svg"><defs id="defs4128"/><g id="layer1"><path d="M 8.1484375 0.33398438 C 7.8568503 0.33216407 7.5610218 0.4421502 7.3300781 0.6640625 L 5.6464844 2.28125 L 3.28125 2.28125 C 2.658 2.28125 2.15625 2.7969375 2.15625 3.4375 L 2.15625 5.6347656 L 0.5703125 7.1582031 C 0.1084251 7.6020281 0.08574823 8.3220804 0.51757812 8.7714844 L 2.15625 10.476562 L 2.15625 12.8125 C 2.15625 13.453062 2.658 13.96875 3.28125 13.96875 L 5.5117188 13.96875 L 7.0566406 15.576172 C 7.4884701 16.025576 8.2080345 16.029691 8.6699219 15.585938 L 10.353516 13.96875 L 12.71875 13.96875 C 13.342 13.96875 13.84375 13.453062 13.84375 12.8125 L 13.84375 10.615234 L 15.429688 9.0917969 C 15.891574 8.6479719 15.914259 7.9279196 15.482422 7.4785156 L 13.84375 5.7734375 L 13.84375 3.4375 C 13.84375 2.7969375 13.342 2.28125 12.71875 2.28125 L 10.488281 2.28125 L 8.9433594 0.67382812 C 8.7274446 0.44912622 8.4400247 0.33580468 8.1484375 0.33398438 z M 7.4042969 4.2207031 L 8.6015625 4.2207031 L 11.578125 12.029297 L 10.480469 12.029297 L 9.7675781 10.027344 L 6.2480469 10.027344 L 5.5351562 12.029297 L 4.421875 12.029297 L 7.4042969 4.2207031 z M 8 5.2617188 L 6.5664062 9.1484375 L 9.4394531 9.1484375 L 8 5.2617188 z " id="rect4039" style="fill:#000000;stroke:none"/></g></svg>