<?xml version="1.0" ?><!DOCTYPE svg  PUBLIC '-//W3C//DTD SVG 1.1//EN'  'http://www.w3.org/Graphics/SVG/1.1/DTD/svg11.dtd'><svg height="8.4666mm" style="shape-rendering:geometricPrecision; text-rendering:geometricPrecision; image-rendering:optimizeQuality; fill-rule:evenodd; clip-rule:evenodd" version="1.1" viewBox="0 0 847 847" width="8.4666mm" xml:space="preserve" xmlns="http://www.w3.org/2000/svg" xmlns:xlink="http://www.w3.org/1999/xlink"><defs><style type="text/css">
   <![CDATA[
    .fil0 {fill:#3B77F7}
    .fil1 {fill:#FFF7F7}
   ]]>
  </style></defs><g id="Layer_x0020_1"><circle class="fil0" cx="423" cy="423" r="398"/><path class="fil1" d="M532 471l0 155c0,24 22,33 44,33 22,0 42,-9 42,-33l0 -405c0,-24 -21,-34 -42,-34 -22,0 -44,9 -44,34l0 155c-91,-53 -182,-106 -274,-158 -13,-8 -29,2 -29,17l0 377c0,16 18,25 31,16 91,-52 182,-105 272,-157z"/></g></svg>