<?xml version="1.0" ?><svg data-name="Layer 1" id="Layer_1" viewBox="0 0 128 128" xmlns="http://www.w3.org/2000/svg"><title/><path d="M98,0H30A30,30,0,0,0,0,30V98a30,30,0,0,0,30,30H98a30,30,0,0,0,30-30V30A30,30,0,0,0,98,0ZM80.42,64a1.27,1.27,0,0,1-.58,1.09l-15.57,10A1.27,1.27,0,1,1,62.89,73L76.73,64,57.9,52.83V78.51a1.27,1.27,0,1,1-2.54,0V50.6a1.27,1.27,0,0,1,1.92-1.09L79.8,62.91A1.27,1.27,0,0,1,80.42,64ZM64,95.25a31.25,31.25,0,1,1,0-62.49,1.27,1.27,0,1,1,0,2.54A28.7,28.7,0,1,0,92.7,64a28.39,28.39,0,0,0-3.18-13.14,29,29,0,0,0-8.48-10,1.27,1.27,0,1,1,1.51-2A31.25,31.25,0,0,1,64,95.25Z"/></svg>