<?xml version="1.0" ?><svg data-name="Layer 1" id="Layer_1" viewBox="0 0 128 128" xmlns="http://www.w3.org/2000/svg"><title/><path d="M87.75,46.8A7.8,7.8,0,1,0,80,39,7.81,7.81,0,0,0,87.75,46.8Z"/><path d="M39.35,56.4a7.8,7.8,0,1,0,7.8,7.8A7.81,7.81,0,0,0,39.35,56.4Z"/><path d="M98,0H30A30,30,0,0,0,0,30V98a30,30,0,0,0,30,30H98a30,30,0,0,0,30-30V30A30,30,0,0,0,98,0ZM88.75,101.5A12.5,12.5,0,0,1,76.25,89a12.65,12.65,0,0,1,.3-2.8L49,72a12.5,12.5,0,1,1,0-15.8l26.8-13.9a11.42,11.42,0,0,1-.5-3.3,12.5,12.5,0,1,1,2.5,7.6L51.25,60.4a12.33,12.33,0,0,1,0,7.6l27.2,13.9a12.5,12.5,0,1,1,10.3,19.6Z"/><path d="M88.75,81.2a7.8,7.8,0,1,0,7.8,7.8A7.81,7.81,0,0,0,88.75,81.2Z"/></svg>