<?xml version="1.0" ?><svg data-name="Layer 1" id="Layer_1" viewBox="0 0 128 128" xmlns="http://www.w3.org/2000/svg"><title/><polygon points="85.3 89.01 85.3 73.21 51.3 73.21 85.3 89.01"/><polygon points="85.3 39.01 51.3 54.81 85.3 54.81 85.3 39.01"/><path d="M98,0H30A30,30,0,0,0,0,30V98a30,30,0,0,0,30,30H98a30,30,0,0,0,30-30V30A30,30,0,0,0,98,0ZM40.8,55l45.7-21.3a2,2,0,0,1,2,.1,2.23,2.23,0,0,1,1,1.8v21.3A2.11,2.11,0,0,1,87.4,59H41.7a2.25,2.25,0,0,1-2.1-1.6A2.15,2.15,0,0,1,40.8,55Zm48.7,37.4a2.23,2.23,0,0,1-1,1.8,2,2,0,0,1-1.1.3,2.92,2.92,0,0,1-.9-.2L40.8,73.11a2.15,2.15,0,0,1,.9-4.1H87.4a2.05,2.05,0,0,1,2.1,2.1Zm9.9-26.3H28.6A2.18,2.18,0,0,1,26.5,64a2.11,2.11,0,0,1,2.1-2.1H99.4a2.18,2.18,0,0,1,2.1,2.1A2.11,2.11,0,0,1,99.4,66.11Z"/></svg>