<?xml version="1.0" ?><svg data-name="Layer 1" id="Layer_1" viewBox="0 0 128 128" xmlns="http://www.w3.org/2000/svg"><title/><path d="M36.45,40.14v34.6c.7,1.9,6,15.2,27.5,22.5,21.6-7.3,26.8-20.6,27.5-22.5V40.14L64,30.64Zm45,13.5a2.05,2.05,0,0,1,0,2.9l-17.6,17.6a2.2,2.2,0,0,1-1.5.6,2,2,0,0,1-1.5-.6L52,65.34a2.05,2.05,0,0,1,2.9-2.9l7.4,7.4,16.2-16.2A2.05,2.05,0,0,1,81.45,53.64Z"/><path d="M98,0H30A30,30,0,0,0,0,30V98a30,30,0,0,0,30,30H98a30,30,0,0,0,30-30V30A30,30,0,0,0,98,0ZM95.65,75a4.33,4.33,0,0,0-.1.5c-.2.7-5.1,17.4-31,25.9a1.85,1.85,0,0,1-1.2,0c-25.8-8.5-30.7-25.1-30.9-25.8a.75.75,0,0,1-.1-.5V38.74a2.18,2.18,0,0,1,1.4-2l29.6-10.2a2.86,2.86,0,0,1,1.3,0l29.5,10.2a2.26,2.26,0,0,1,1.5,1.9Z"/></svg>