<?xml version="1.0" ?><svg data-name="Layer 1" id="Layer_1" viewBox="0 0 128 128" xmlns="http://www.w3.org/2000/svg"><title/><path d="M45,30.7A14.3,14.3,0,0,0,30.7,45V83a14.27,14.27,0,0,0,4,9.8L92.8,34.6A14.18,14.18,0,0,0,83,30.7ZM58.9,50.4H51.4v7.5A2.18,2.18,0,0,1,49.3,60a2.11,2.11,0,0,1-2.1-2.1V50.4H39.7a2,2,0,0,1-2-2.1,2.11,2.11,0,0,1,2.1-2.1h7.5V38.7a2.18,2.18,0,0,1,2.1-2.1,2.11,2.11,0,0,1,2.1,2.1v7.5h7.4a2.1,2.1,0,1,1,0,4.2Z"/><path d="M89.2,77.4H70a2.1,2.1,0,0,0,0,4.2H89.2a2.18,2.18,0,0,0,2.1-2.1A2.11,2.11,0,0,0,89.2,77.4Z"/><path d="M98,0H30A30,30,0,0,0,0,30V98a30,30,0,0,0,30,30H98a30,30,0,0,0,30-30V30A30,30,0,0,0,98,0Zm3.5,83A18.52,18.52,0,0,1,83,101.5H45A18.52,18.52,0,0,1,26.5,83V45A18.52,18.52,0,0,1,45,26.5H83A18.52,18.52,0,0,1,101.5,45Z"/></svg>