<?xml version="1.0" ?><!DOCTYPE svg  PUBLIC '-//W3C//DTD SVG 1.1//EN'  'http://www.w3.org/Graphics/SVG/1.1/DTD/svg11.dtd'><svg height="512px" style="shape-rendering:geometricPrecision; text-rendering:geometricPrecision; image-rendering:optimizeQuality; fill-rule:evenodd; clip-rule:evenodd" version="1.1" viewBox="0 0 512 512" width="512px" xml:space="preserve" xmlns="http://www.w3.org/2000/svg" xmlns:xlink="http://www.w3.org/1999/xlink"><defs><style type="text/css">
   <![CDATA[
    .fil5 {fill:none}
    .fil2 {fill:#FEFEFE}
    .fil1 {fill:#EF4937}
    .fil0 {fill:#DC5C4B}
    .fil4 {fill:#EF4937}
    .fil3 {fill:#FEFEFE}
   ]]>
  </style><clipPath id="id0"><rect height="225" width="226" x="137" y="209"/></clipPath></defs><g id="Layer_x0020_1"><g id="_309023473280"><path class="fil0" d="M31 212c13,-2 19,-5 19,-5 137,-117 211,-180 211,-180 104,75 156,113 156,113 8,-2 12,-3 12,-3 -113,-82 -169,-123 -169,-123 -149,128 -229,198 -229,198z"/><path class="fil1" d="M262 0c12,0 22,10 22,22 0,12 -10,22 -22,22 -12,0 -22,-10 -22,-22 0,-12 10,-22 22,-22zm0 11c6,0 11,5 11,11 0,6 -5,11 -11,11 -6,0 -11,-5 -11,-11 0,-6 5,-11 11,-11z"/><circle class="fil2" cx="262" cy="22" r="11"/><rect class="fil1" height="18.125" rx="1" ry="1" transform="matrix(15.6685 -3.17591 2.95516 16.839 15.738 210.761)" width="27.2503"/><circle class="fil2" cx="420" cy="154" r="11"/><circle class="fil2" cx="48" cy="231" r="11"/><circle class="fil2" cx="98" cy="480" r="11"/><circle class="fil2" cx="468" cy="404" r="11"/><g style="clip-path:url(#id0)"><polygon class="fil3" points="250,216 262,216 272,217 282,221 292,224 301,228 310,233 318,239 325,246 332,253 339,262 344,271 348,280 352,290 354,300 357,311 357,321 357,332 354,343 352,353 348,363 344,372 339,380 332,388 325,397 318,404 310,410 301,414 292,419 282,422 272,426 262,427 250,427 239,427 229,426 218,422 209,419 199,414 191,410 183,404 175,397 168,388 162,380 156,372 153,363 149,353 146,343 144,332 144,321 144,311 146,300 149,290 153,280 156,271 162,262 168,253 175,246 183,239 191,233 199,228 209,224 218,221 229,217 239,216 "/><path class="fil4" d="M258 307l8 6 14 -6 0 -7 -1 -6 -2 -5 -3 -5 -3 -5 -5 -3 -4 -3 -6 -1 -6 -1 -6 1 -5 1 -6 3 -3 3 -4 5 -3 5 -1 5 -1 6 0 41 -2 3 -1 2 -2 1 -2 1 -4 0 -2 -1 -2 -2 -1 -2 0 -22 -22 0 0 11 0 11 1 5 1 6 3 5 4 5 4 3 6 3 4 1 6 1 7 -1 5 -1 6 -3 3 -3 4 -5 3 -5 2 -6 1 -5 0 -43 0 -3 2 -3 3 -1 2 -1 3 1 3 1 1 3 1 3 0 7 0 0zm36 14l0 22 0 3 -2 1 -2 1 -3 2 -3 -2 -2 -1 -2 -2 0 -2 0 -22 -14 8 -8 -8 0 22 0 5 2 6 3 5 3 5 5 3 5 3 6 1 5 1 6 -1 6 -1 5 -3 4 -3 4 -5 4 -5 1 -6 1 -5 0 -11 0 -11 -24 0z" id="1"/></g><rect class="fil5" height="223" width="224" x="138" y="210"/></g></g></svg>