<?xml version="1.0" ?><svg id="Layer_1" style="enable-background:new 0 0 100 100;" version="1.1" viewBox="0 0 100 100" xml:space="preserve" xmlns="http://www.w3.org/2000/svg" xmlns:xlink="http://www.w3.org/1999/xlink"><g><path d="M16.571,17.376c2.35,0,4.41-1.209,5.572-3.016c1.162,1.808,3.222,3.016,5.571,3.016c2.35,0,4.409-1.209,5.571-3.016   c1.162,1.808,3.222,3.016,5.571,3.016s4.41-1.209,5.572-3.016c1.162,1.808,3.222,3.016,5.571,3.016c2.35,0,4.409-1.209,5.571-3.016   c1.162,1.808,3.222,3.016,5.572,3.016s4.41-1.209,5.571-3.016c1.162,1.808,3.221,3.016,5.571,3.016c2.35,0,4.41-1.209,5.571-3.016   c1.162,1.808,3.222,3.016,5.572,3.016c3.623,0,6.571-2.865,6.571-6.387c0-0.552-0.448-1-1-1c-0.552,0-1,0.448-1,1   c0,2.419-2.051,4.387-4.571,4.387c-2.521,0-4.572-1.968-4.572-4.387c0-0.552-0.448-1-1-1c-0.552,0-1,0.448-1,1   c0,2.419-2.051,4.387-4.571,4.387c-2.521,0-4.571-1.968-4.571-4.387c0-0.552-0.448-1-1-1c-0.552,0-1,0.448-1,1   c0,2.419-2.051,4.387-4.571,4.387c-2.521,0-4.572-1.968-4.572-4.387c0-0.552-0.448-1-1-1c-0.552,0-1,0.448-1,1   c0,2.419-2.051,4.387-4.571,4.387c-2.521,0-4.571-1.968-4.571-4.387c0-0.552-0.448-1-1-1c-0.552,0-1,0.448-1,1   c0,2.419-2.051,4.387-4.572,4.387c-2.521,0-4.571-1.968-4.571-4.387c0-0.552-0.448-1-1-1c-0.552,0-1,0.448-1,1   c0,2.419-2.051,4.387-4.571,4.387c-2.521,0-4.571-1.968-4.571-4.387c0-0.552-0.448-1-1-1c-0.552,0-1,0.448-1,1   c0,2.419-2.051,4.387-4.572,4.387c-2.52,0-4.571-1.968-4.571-4.387c0-0.552-0.448-1-1-1c-0.552,0-1,0.448-1,1   C10,14.511,12.948,17.376,16.571,17.376z"/><path d="M89,20.365c-0.552,0-1,0.448-1,1c0,2.419-2.051,4.387-4.571,4.387c-2.521,0-4.572-1.968-4.572-4.387c0-0.552-0.448-1-1-1   c-0.552,0-1,0.448-1,1c0,2.419-2.051,4.387-4.571,4.387c-2.521,0-4.571-1.968-4.571-4.387c0-0.552-0.448-1-1-1   c-0.552,0-1,0.448-1,1c0,2.419-2.051,4.387-4.571,4.387c-2.521,0-4.572-1.968-4.572-4.387c0-0.552-0.448-1-1-1   c-0.552,0-1,0.448-1,1c0,2.419-2.051,4.387-4.571,4.387c-2.521,0-4.571-1.968-4.571-4.387c0-0.552-0.448-1-1-1   c-0.552,0-1,0.448-1,1c0,2.419-2.051,4.387-4.572,4.387c-2.521,0-4.571-1.968-4.571-4.387c0-0.552-0.448-1-1-1   c-0.552,0-1,0.448-1,1c0,2.419-2.051,4.387-4.571,4.387c-2.521,0-4.571-1.968-4.571-4.387c0-0.552-0.448-1-1-1   c-0.552,0-1,0.448-1,1c0,2.419-2.051,4.387-4.572,4.387c-2.52,0-4.571-1.968-4.571-4.387c0-0.552-0.448-1-1-1c-0.552,0-1,0.448-1,1   c0,3.522,2.948,6.387,6.571,6.387c2.35,0,4.41-1.209,5.572-3.016c1.162,1.808,3.222,3.016,5.571,3.016   c2.35,0,4.409-1.209,5.571-3.016c1.162,1.808,3.222,3.016,5.571,3.016s4.41-1.209,5.572-3.016c1.162,1.808,3.222,3.016,5.571,3.016   c2.35,0,4.409-1.209,5.571-3.016c1.162,1.808,3.222,3.016,5.572,3.016s4.41-1.209,5.571-3.016c1.162,1.808,3.221,3.016,5.571,3.016   c2.35,0,4.41-1.209,5.571-3.016c1.162,1.808,3.222,3.016,5.572,3.016c3.623,0,6.571-2.865,6.571-6.387   C90,20.813,89.552,20.365,89,20.365z"/><path d="M89,30.742c-0.552,0-1,0.448-1,1c0,2.419-2.051,4.387-4.571,4.387c-2.521,0-4.572-1.968-4.572-4.387c0-0.552-0.448-1-1-1   c-0.552,0-1,0.448-1,1c0,2.419-2.051,4.387-4.571,4.387c-2.521,0-4.571-1.968-4.571-4.387c0-0.552-0.448-1-1-1   c-0.552,0-1,0.448-1,1c0,2.419-2.051,4.387-4.571,4.387c-2.521,0-4.572-1.968-4.572-4.387c0-0.552-0.448-1-1-1   c-0.552,0-1,0.448-1,1c0,2.419-2.051,4.387-4.571,4.387c-2.521,0-4.571-1.968-4.571-4.387c0-0.552-0.448-1-1-1   c-0.552,0-1,0.448-1,1c0,2.419-2.051,4.387-4.572,4.387c-2.521,0-4.571-1.968-4.571-4.387c0-0.552-0.448-1-1-1   c-0.552,0-1,0.448-1,1c0,2.419-2.051,4.387-4.571,4.387c-2.521,0-4.571-1.968-4.571-4.387c0-0.552-0.448-1-1-1   c-0.552,0-1,0.448-1,1c0,2.419-2.051,4.387-4.572,4.387c-2.52,0-4.571-1.968-4.571-4.387c0-0.552-0.448-1-1-1c-0.552,0-1,0.448-1,1   c0,3.522,2.948,6.387,6.571,6.387c2.35,0,4.41-1.209,5.572-3.016c1.162,1.807,3.222,3.016,5.571,3.016   c2.35,0,4.409-1.209,5.571-3.016c1.162,1.808,3.222,3.016,5.571,3.016s4.41-1.209,5.572-3.016C45.59,36.92,47.65,38.129,50,38.129   c2.35,0,4.409-1.209,5.571-3.016c1.162,1.807,3.222,3.016,5.572,3.016s4.41-1.209,5.571-3.016c1.162,1.808,3.221,3.016,5.571,3.016   c2.35,0,4.41-1.209,5.571-3.016c1.162,1.807,3.222,3.016,5.572,3.016c3.623,0,6.571-2.865,6.571-6.387   C90,31.19,89.552,30.742,89,30.742z"/><path d="M89,41.118c-0.552,0-1,0.448-1,1c0,2.419-2.051,4.387-4.571,4.387c-2.521,0-4.572-1.968-4.572-4.387c0-0.552-0.448-1-1-1   c-0.552,0-1,0.448-1,1c0,2.419-2.051,4.387-4.571,4.387c-2.521,0-4.571-1.968-4.571-4.387c0-0.552-0.448-1-1-1   c-0.552,0-1,0.448-1,1c0,2.419-2.051,4.387-4.571,4.387c-2.521,0-4.572-1.968-4.572-4.387c0-0.552-0.448-1-1-1   c-0.552,0-1,0.448-1,1c0,2.419-2.051,4.387-4.571,4.387c-2.521,0-4.571-1.968-4.571-4.387c0-0.552-0.448-1-1-1   c-0.552,0-1,0.448-1,1c0,2.419-2.051,4.387-4.572,4.387c-2.521,0-4.571-1.968-4.571-4.387c0-0.552-0.448-1-1-1   c-0.552,0-1,0.448-1,1c0,2.419-2.051,4.387-4.571,4.387c-2.521,0-4.571-1.968-4.571-4.387c0-0.552-0.448-1-1-1   c-0.552,0-1,0.448-1,1c0,2.419-2.051,4.387-4.572,4.387c-2.52,0-4.571-1.968-4.571-4.387c0-0.552-0.448-1-1-1c-0.552,0-1,0.448-1,1   c0,3.522,2.948,6.387,6.571,6.387c2.35,0,4.41-1.209,5.572-3.016c1.162,1.808,3.222,3.016,5.571,3.016   c2.35,0,4.409-1.209,5.571-3.016c1.162,1.808,3.222,3.016,5.571,3.016s4.41-1.209,5.572-3.016c1.162,1.808,3.222,3.016,5.571,3.016   c2.35,0,4.409-1.209,5.571-3.016c1.162,1.808,3.222,3.016,5.572,3.016s4.41-1.209,5.571-3.016c1.162,1.808,3.221,3.016,5.571,3.016   c2.35,0,4.41-1.209,5.571-3.016c1.162,1.808,3.222,3.016,5.572,3.016c3.623,0,6.571-2.865,6.571-6.387   C90,41.566,89.552,41.118,89,41.118z"/><path d="M89,51.495c-0.552,0-1,0.448-1,1c0,2.419-2.051,4.387-4.571,4.387c-2.521,0-4.572-1.968-4.572-4.387c0-0.552-0.448-1-1-1   c-0.552,0-1,0.448-1,1c0,2.419-2.051,4.387-4.571,4.387c-2.521,0-4.571-1.968-4.571-4.387c0-0.552-0.448-1-1-1   c-0.552,0-1,0.448-1,1c0,2.419-2.051,4.387-4.571,4.387c-2.521,0-4.572-1.968-4.572-4.387c0-0.552-0.448-1-1-1   c-0.552,0-1,0.448-1,1c0,2.419-2.051,4.387-4.571,4.387c-2.521,0-4.571-1.968-4.571-4.387c0-0.552-0.448-1-1-1   c-0.552,0-1,0.448-1,1c0,2.419-2.051,4.387-4.572,4.387c-2.521,0-4.571-1.968-4.571-4.387c0-0.552-0.448-1-1-1   c-0.552,0-1,0.448-1,1c0,2.419-2.051,4.387-4.571,4.387c-2.521,0-4.571-1.968-4.571-4.387c0-0.552-0.448-1-1-1   c-0.552,0-1,0.448-1,1c0,2.419-2.051,4.387-4.572,4.387c-2.52,0-4.571-1.968-4.571-4.387c0-0.552-0.448-1-1-1c-0.552,0-1,0.448-1,1   c0,3.522,2.948,6.387,6.571,6.387c2.35,0,4.41-1.209,5.572-3.016c1.162,1.808,3.222,3.016,5.571,3.016   c2.35,0,4.409-1.209,5.571-3.016c1.162,1.807,3.222,3.016,5.571,3.016s4.41-1.209,5.572-3.016c1.162,1.808,3.222,3.016,5.571,3.016   c2.35,0,4.409-1.209,5.571-3.016c1.162,1.808,3.222,3.016,5.572,3.016s4.41-1.209,5.571-3.016c1.162,1.807,3.221,3.016,5.571,3.016   c2.35,0,4.41-1.209,5.571-3.016c1.162,1.808,3.222,3.016,5.572,3.016c3.623,0,6.571-2.865,6.571-6.387   C90,51.942,89.552,51.495,89,51.495z"/><path d="M89,61.871c-0.552,0-1,0.448-1,1c0,2.419-2.051,4.387-4.571,4.387c-2.521,0-4.572-1.968-4.572-4.387c0-0.552-0.448-1-1-1   c-0.552,0-1,0.448-1,1c0,2.419-2.051,4.387-4.571,4.387c-2.521,0-4.571-1.968-4.571-4.387c0-0.552-0.448-1-1-1   c-0.552,0-1,0.448-1,1c0,2.419-2.051,4.387-4.571,4.387c-2.521,0-4.572-1.968-4.572-4.387c0-0.552-0.448-1-1-1   c-0.552,0-1,0.448-1,1c0,2.419-2.051,4.387-4.571,4.387c-2.521,0-4.571-1.968-4.571-4.387c0-0.552-0.448-1-1-1   c-0.552,0-1,0.448-1,1c0,2.419-2.051,4.387-4.572,4.387c-2.521,0-4.571-1.968-4.571-4.387c0-0.552-0.448-1-1-1   c-0.552,0-1,0.448-1,1c0,2.419-2.051,4.387-4.571,4.387c-2.521,0-4.571-1.968-4.571-4.387c0-0.552-0.448-1-1-1   c-0.552,0-1,0.448-1,1c0,2.419-2.051,4.387-4.572,4.387c-2.52,0-4.571-1.968-4.571-4.387c0-0.552-0.448-1-1-1c-0.552,0-1,0.448-1,1   c0,3.522,2.948,6.387,6.571,6.387c2.35,0,4.41-1.209,5.572-3.016c1.162,1.808,3.222,3.016,5.571,3.016   c2.35,0,4.409-1.209,5.571-3.016c1.162,1.808,3.222,3.016,5.571,3.016s4.41-1.209,5.572-3.016c1.162,1.808,3.222,3.016,5.571,3.016   c2.35,0,4.409-1.209,5.571-3.016c1.162,1.808,3.222,3.016,5.572,3.016s4.41-1.209,5.571-3.016c1.162,1.808,3.221,3.016,5.571,3.016   c2.35,0,4.41-1.209,5.571-3.016c1.162,1.808,3.222,3.016,5.572,3.016c3.623,0,6.571-2.865,6.571-6.387   C90,62.319,89.552,61.871,89,61.871z"/><path d="M89,72.248c-0.552,0-1,0.448-1,1c0,2.419-2.051,4.387-4.571,4.387c-2.521,0-4.572-1.968-4.572-4.387c0-0.552-0.448-1-1-1   c-0.552,0-1,0.448-1,1c0,2.419-2.051,4.387-4.571,4.387c-2.521,0-4.571-1.968-4.571-4.387c0-0.552-0.448-1-1-1   c-0.552,0-1,0.448-1,1c0,2.419-2.051,4.387-4.571,4.387c-2.521,0-4.572-1.968-4.572-4.387c0-0.552-0.448-1-1-1   c-0.552,0-1,0.448-1,1c0,2.419-2.051,4.387-4.571,4.387c-2.521,0-4.571-1.968-4.571-4.387c0-0.552-0.448-1-1-1   c-0.552,0-1,0.448-1,1c0,2.419-2.051,4.387-4.572,4.387c-2.521,0-4.571-1.968-4.571-4.387c0-0.552-0.448-1-1-1   c-0.552,0-1,0.448-1,1c0,2.419-2.051,4.387-4.571,4.387c-2.521,0-4.571-1.968-4.571-4.387c0-0.552-0.448-1-1-1   c-0.552,0-1,0.448-1,1c0,2.419-2.051,4.387-4.572,4.387c-2.52,0-4.571-1.968-4.571-4.387c0-0.552-0.448-1-1-1c-0.552,0-1,0.448-1,1   c0,3.522,2.948,6.387,6.571,6.387c2.35,0,4.41-1.209,5.572-3.017c1.162,1.808,3.222,3.017,5.571,3.017   c2.35,0,4.409-1.209,5.571-3.016c1.162,1.808,3.222,3.016,5.571,3.016s4.41-1.209,5.572-3.017c1.162,1.808,3.222,3.017,5.571,3.017   c2.35,0,4.409-1.209,5.571-3.017c1.162,1.808,3.222,3.017,5.572,3.017s4.41-1.209,5.571-3.016c1.162,1.808,3.221,3.016,5.571,3.016   c2.35,0,4.41-1.209,5.571-3.017c1.162,1.808,3.222,3.017,5.572,3.017c3.623,0,6.571-2.865,6.571-6.387   C90,72.695,89.552,72.248,89,72.248z"/><path d="M89,82.624c-0.552,0-1,0.448-1,1c0,2.419-2.051,4.387-4.571,4.387c-2.521,0-4.572-1.968-4.572-4.387c0-0.552-0.448-1-1-1   c-0.552,0-1,0.448-1,1c0,2.419-2.051,4.387-4.571,4.387c-2.521,0-4.571-1.968-4.571-4.387c0-0.552-0.448-1-1-1   c-0.552,0-1,0.448-1,1c0,2.419-2.051,4.387-4.571,4.387c-2.521,0-4.572-1.968-4.572-4.387c0-0.552-0.448-1-1-1   c-0.552,0-1,0.448-1,1c0,2.419-2.051,4.387-4.571,4.387c-2.521,0-4.571-1.968-4.571-4.387c0-0.552-0.448-1-1-1   c-0.552,0-1,0.448-1,1c0,2.419-2.051,4.387-4.572,4.387c-2.521,0-4.571-1.968-4.571-4.387c0-0.552-0.448-1-1-1   c-0.552,0-1,0.448-1,1c0,2.419-2.051,4.387-4.571,4.387c-2.521,0-4.571-1.968-4.571-4.387c0-0.552-0.448-1-1-1   c-0.552,0-1,0.448-1,1c0,2.419-2.051,4.387-4.572,4.387c-2.52,0-4.571-1.968-4.571-4.387c0-0.552-0.448-1-1-1c-0.552,0-1,0.448-1,1   c0,3.522,2.948,6.387,6.571,6.387c2.35,0,4.41-1.209,5.572-3.016c1.162,1.808,3.222,3.016,5.571,3.016   c2.35,0,4.409-1.209,5.571-3.016c1.162,1.807,3.222,3.016,5.571,3.016s4.41-1.209,5.572-3.016c1.162,1.808,3.222,3.016,5.571,3.016   c2.35,0,4.409-1.209,5.571-3.016c1.162,1.808,3.222,3.016,5.572,3.016s4.41-1.209,5.571-3.016c1.162,1.807,3.221,3.016,5.571,3.016   c2.35,0,4.41-1.209,5.571-3.016c1.162,1.808,3.222,3.016,5.572,3.016c3.623,0,6.571-2.865,6.571-6.387   C90,83.072,89.552,82.624,89,82.624z"/></g></svg>