<?xml version="1.0" ?><svg id="Layer_1" style="enable-background:new 0 0 100 100;" version="1.1" viewBox="0 0 100 100" xml:space="preserve" xmlns="http://www.w3.org/2000/svg" xmlns:xlink="http://www.w3.org/1999/xlink"><path d="M61.393,55.541c-0.756-0.761-1.762-1.18-2.833-1.18c-0.725,0-1.414,0.207-2.023,0.568l-5.127-5.157l6.767-6.807  c0.441,0.264,0.925,0.464,1.449,0.573l7.81,1.613c0.312,0.064,0.625,0.096,0.938,0.096c1.331,0,2.622-0.573,3.519-1.6l16.592-19.019  c1.484-1.702,1.4-4.288-0.191-5.889l-7.432-7.475c-1.595-1.605-4.175-1.689-5.871-0.192L56.054,27.789  c-1.235,1.089-1.813,2.773-1.508,4.396l1.43,7.624c0.123,0.657,0.385,1.259,0.744,1.786L50,48.354l-6.72-6.759  c0.359-0.527,0.621-1.128,0.743-1.785l1.431-7.625c0.306-1.622-0.273-3.306-1.507-4.395L25.011,11.073  c-1.698-1.498-4.275-1.413-5.871,0.192l-7.432,7.475c-1.592,1.601-1.676,4.187-0.191,5.889l16.593,19.019  c0.896,1.026,2.187,1.599,3.518,1.599c0.311,0,0.626-0.032,0.937-0.096l7.81-1.613c0.524-0.108,1.008-0.309,1.449-0.573l6.767,6.807  l-5.127,5.157c-0.608-0.361-1.297-0.568-2.023-0.568c-1.071,0-2.077,0.419-2.833,1.18L11.171,83.139  c-1.558,1.567-1.558,4.116,0,5.682c0.756,0.761,1.761,1.18,2.831,1.18c0,0,0,0,0.001,0c1.07,0,2.076-0.419,2.832-1.18l27.437-27.598  c1.313-1.321,1.505-3.336,0.602-4.877L50,51.19l5.125,5.155c-0.903,1.54-0.711,3.555,0.602,4.877L83.165,88.82  c0.756,0.761,1.762,1.18,2.832,1.18c0.001,0,0.001,0,0.001,0c1.07,0,2.075-0.419,2.831-1.18c1.558-1.566,1.558-4.115,0-5.682  L61.393,55.541z M57.941,39.44l-1.431-7.625c-0.175-0.933,0.156-1.901,0.866-2.527l18.937-16.715  c0.903-0.799,2.278-0.752,3.129,0.102l7.432,7.475c0.854,0.86,0.899,2.25,0.102,3.164L70.385,42.332  c-0.633,0.724-1.606,1.055-2.545,0.86l-7.809-1.613c-0.127-0.026-0.25-0.062-0.37-0.106l15.946-16.039  c0.39-0.392,0.388-1.025-0.004-1.414c-0.392-0.39-1.024-0.388-1.414,0.004L58.174,40.132C58.069,39.916,57.987,39.685,57.941,39.44z   M39.97,41.579l-7.809,1.613c-0.937,0.193-1.912-0.135-2.544-0.859L13.024,23.314c-0.798-0.915-0.753-2.304,0.102-3.164l7.432-7.475  c0.851-0.856,2.226-0.9,3.129-0.103l18.938,16.716c0.709,0.625,1.04,1.593,0.865,2.526l-1.432,7.626  c-0.046,0.245-0.127,0.475-0.232,0.691L25.811,24.023c-0.39-0.392-1.022-0.394-1.414-0.004c-0.392,0.389-0.394,1.022-0.004,1.414  l15.946,16.039C40.22,41.516,40.097,41.552,39.97,41.579z M42.854,59.812L15.417,87.41C15.039,87.79,14.536,88,14.003,88  c-0.001,0-0.001,0-0.001,0c-0.533,0-1.035-0.21-1.413-0.589c0,0,0,0,0,0c-0.784-0.789-0.784-2.072,0-2.861l27.437-27.598  c0.378-0.38,0.881-0.59,1.415-0.59c0.533,0,1.036,0.209,1.414,0.589C43.638,57.74,43.638,59.024,42.854,59.812z M87.411,87.41  C87.411,87.41,87.411,87.41,87.411,87.41c-0.378,0.38-0.88,0.59-1.413,0.59c0,0,0,0-0.001,0c-0.533,0-1.036-0.21-1.414-0.59  L57.146,59.813c-0.783-0.789-0.783-2.073,0-2.862c0.378-0.38,0.881-0.59,1.414-0.59c0.534,0,1.037,0.209,1.415,0.59l27.437,27.598  C88.195,85.338,88.195,86.622,87.411,87.41z"/></svg>