<?xml version="1.0" ?><svg id="Layer_1" style="enable-background:new 0 0 100 100;" version="1.1" viewBox="0 0 100 100" xml:space="preserve" xmlns="http://www.w3.org/2000/svg" xmlns:xlink="http://www.w3.org/1999/xlink"><g><path d="M50,10.009c-22.051,0-39.991,17.94-39.991,39.991S27.949,89.991,50,89.991c22.051,0,39.991-17.94,39.991-39.991   S72.051,10.009,50,10.009z M28.741,20.375c3.043,0,5.52,2.476,5.52,5.519c0,3.044-2.476,5.52-5.52,5.52   c-3.043,0-5.52-2.476-5.52-5.52C23.222,22.851,25.698,20.375,28.741,20.375z M17.338,67.222c0-3.044,2.476-5.52,5.52-5.52   c3.044,0,5.52,2.476,5.52,5.52c0,3.043-2.476,5.52-5.52,5.52C19.814,72.741,17.338,70.265,17.338,67.222z M38.552,85.772   c-1.948,0-3.534-1.586-3.534-3.534c0-1.948,1.585-3.534,3.534-3.534c1.949,0,3.534,1.585,3.534,3.534   C42.086,84.187,40.501,85.772,38.552,85.772z M77.713,72.733c-1.949,0-3.534-1.585-3.534-3.534c0-1.948,1.585-3.534,3.534-3.534   c1.948,0,3.534,1.586,3.534,3.534C81.247,71.148,79.662,72.733,77.713,72.733z M77.713,63.666c-3.052,0-5.534,2.482-5.534,5.534   s2.482,5.534,5.534,5.534c0.414,0,0.817-0.049,1.206-0.136C71.945,82.784,61.572,87.991,50,87.991c-2.968,0-5.853-0.353-8.627-1   c1.622-0.966,2.714-2.732,2.714-4.752c0-3.051-2.482-5.534-5.534-5.534c-3.051,0-5.534,2.482-5.534,5.534   c0,0.671,0.126,1.312,0.346,1.909c-4.768-2.332-8.975-5.636-12.37-9.649c0.597,0.153,1.218,0.243,1.862,0.243   c4.146,0,7.52-3.373,7.52-7.52s-3.374-7.52-7.52-7.52c-3.668,0-6.725,2.641-7.384,6.119C13.256,61.001,12.009,55.645,12.009,50   c0-9.473,3.493-18.139,9.248-24.8c-0.021,0.229-0.035,0.46-0.035,0.694c0,4.147,3.373,7.52,7.52,7.52s7.52-3.373,7.52-7.52   c0-4.072-3.256-7.391-7.3-7.508c6.028-4.025,13.263-6.377,21.039-6.377c20.948,0,37.991,17.043,37.991,37.991   c0,6.695-1.747,12.987-4.8,18.455C82.826,65.756,80.512,63.666,77.713,63.666z"/><path d="M21.922,39.753c-3.051,0-5.534,2.483-5.534,5.534c0,3.051,2.482,5.534,5.534,5.534c3.052,0,5.534-2.482,5.534-5.534   C27.456,42.235,24.974,39.753,21.922,39.753z M21.922,48.82c-1.948,0-3.534-1.585-3.534-3.534c0-1.948,1.585-3.534,3.534-3.534   c1.949,0,3.534,1.586,3.534,3.534C25.456,47.235,23.871,48.82,21.922,48.82z"/><path d="M79.106,41.902c-3.052,0-5.534,2.482-5.534,5.534c0,3.051,2.482,5.534,5.534,5.534c3.051,0,5.534-2.482,5.534-5.534   C84.64,44.384,82.158,41.902,79.106,41.902z M79.106,50.969c-1.949,0-3.534-1.585-3.534-3.534c0-1.948,1.585-3.534,3.534-3.534   c1.948,0,3.534,1.585,3.534,3.534C82.64,49.384,81.055,50.969,79.106,50.969z"/><path d="M51.464,26.213c3.051,0,5.534-2.482,5.534-5.534c0-3.052-2.482-5.534-5.534-5.534c-3.051,0-5.534,2.482-5.534,5.534   C45.93,23.73,48.413,26.213,51.464,26.213z M51.464,17.145c1.948,0,3.534,1.585,3.534,3.534c0,1.948-1.585,3.534-3.534,3.534   c-1.948,0-3.534-1.586-3.534-3.534C47.93,18.73,49.516,17.145,51.464,17.145z"/><path d="M77.222,31.732c0-4.147-3.374-7.52-7.52-7.52c-4.146,0-7.52,3.373-7.52,7.52c0,0.705,0.104,1.384,0.287,2.032   c-3.354-2.479-7.485-3.964-11.966-3.964c-11.138,0-20.2,9.062-20.2,20.2s9.062,20.2,20.2,20.2c0.685,0,1.362-0.036,2.031-0.103   c-1.279,1.349-2.069,3.165-2.069,5.165c0,4.146,3.373,7.52,7.52,7.52s7.519-3.373,7.519-7.52c0-3.548-2.473-6.523-5.784-7.309   C66.23,64.596,70.702,57.817,70.702,50c0-4.113-1.242-7.939-3.362-11.134c0.744,0.247,1.536,0.386,2.362,0.386   C73.848,39.252,77.222,35.879,77.222,31.732z M63.503,75.262c0,3.044-2.476,5.52-5.52,5.52s-5.52-2.476-5.52-5.52   c0-3.043,2.476-5.52,5.52-5.52S63.503,72.219,63.503,75.262z M68.702,50c0,10.035-8.164,18.2-18.199,18.2   c-10.035,0-18.2-8.165-18.2-18.2s8.165-18.2,18.2-18.2C60.538,31.8,68.702,39.965,68.702,50z M64.182,31.732   c0-3.043,2.476-5.52,5.52-5.52c3.044,0,5.52,2.476,5.52,5.52c0,3.044-2.476,5.52-5.52,5.52   C66.658,37.252,64.182,34.776,64.182,31.732z"/></g></svg>