<?xml version="1.0" ?><svg id="Layer_1" style="enable-background:new 0 0 100 100;" version="1.1" viewBox="0 0 100 100" xml:space="preserve" xmlns="http://www.w3.org/2000/svg" xmlns:xlink="http://www.w3.org/1999/xlink"><g><path d="M50,29.749c-8.99,0-16.304,7.314-16.304,16.304c0,8.99,7.313,16.304,16.304,16.304c8.99,0,16.304-7.314,16.304-16.304   C66.304,37.062,58.99,29.749,50,29.749z M51,31.799c3.191,0.222,6.093,1.49,8.369,3.471l-6.633,6.633   c-0.52-0.344-1.105-0.597-1.736-0.726V31.799z M49,31.799v9.378c-0.631,0.129-1.216,0.382-1.736,0.726l-6.633-6.633   C42.907,33.289,45.809,32.021,49,31.799z M39.217,36.684l6.633,6.633c-0.344,0.52-0.597,1.105-0.726,1.736h-9.378   C35.969,41.862,37.237,38.96,39.217,36.684z M35.747,47.053h9.378c0.129,0.631,0.382,1.216,0.726,1.736l-6.633,6.633   C37.237,53.146,35.969,50.244,35.747,47.053z M49,60.306c-3.191-0.222-6.093-1.49-8.369-3.47l6.633-6.633   c0.52,0.344,1.105,0.596,1.736,0.726V60.306z M47.023,46.053c0-1.641,1.335-2.977,2.977-2.977c1.642,0,2.977,1.335,2.977,2.977   S51.642,49.029,50,49.029C48.358,49.029,47.023,47.694,47.023,46.053z M51,60.306v-9.378c0.631-0.129,1.216-0.382,1.736-0.726   l6.633,6.633C57.093,58.816,54.191,60.083,51,60.306z M60.783,55.421l-6.633-6.633c0.344-0.52,0.596-1.105,0.725-1.735h9.378   C64.031,50.244,62.763,53.145,60.783,55.421z M54.875,45.053c-0.129-0.631-0.382-1.216-0.726-1.736l6.633-6.633   c1.98,2.276,3.248,5.178,3.47,8.369H54.875z"/><path d="M74.237,45.053h-3.168c-0.239-5.068-2.264-9.664-5.469-13.186l2.245-2.245c0.391-0.39,0.391-1.023,0-1.414   c-0.391-0.391-1.023-0.391-1.414,0l-2.245,2.245c-3.522-3.205-8.118-5.23-13.186-5.469v-3.168c0-0.552-0.447-1-1-1   c-0.553,0-1,0.448-1,1v3.168c-5.068,0.239-9.664,2.263-13.186,5.469l-2.245-2.245c-0.391-0.391-1.023-0.391-1.414,0   c-0.391,0.39-0.391,1.024,0,1.414l2.244,2.245c-3.205,3.522-5.23,8.118-5.469,13.186h-3.167c-0.553,0-1,0.448-1,1   c0,0.552,0.447,1,1,1h3.167c0.239,5.068,2.263,9.665,5.469,13.187l-2.244,2.244c-0.391,0.391-0.391,1.024,0,1.414   c0.195,0.195,0.451,0.293,0.707,0.293c0.256,0,0.512-0.098,0.707-0.293l2.244-2.244c3.522,3.206,8.119,5.23,13.187,5.469v3.166   c0,0.552,0.447,1,1,1c0.553,0,1-0.448,1-1v-3.166c5.068-0.239,9.665-2.264,13.187-5.47l2.244,2.244   c0.195,0.195,0.451,0.293,0.707,0.293c0.256,0,0.512-0.098,0.707-0.293c0.391-0.391,0.391-1.023,0-1.414l-2.244-2.244   c3.205-3.522,5.229-8.119,5.468-13.187h3.168c0.553,0,1-0.448,1-1C75.237,45.5,74.79,45.053,74.237,45.053z M50,65.174   c-10.543,0-19.12-8.577-19.12-19.12S39.457,26.933,50,26.933s19.12,8.578,19.12,19.121S60.543,65.174,50,65.174z"/><path d="M89,88H54.047V76.25h26.537c0.553,0,1-0.448,1-1V16.782c0-0.552-0.447-1-1-1H54.047v-1.969   c0-2.103-1.711-3.813-3.813-3.813h-0.467c-2.102,0-3.813,1.71-3.813,3.813v1.969H19.416c-0.553,0-1,0.448-1,1V75.25   c0,0.552,0.447,1,1,1h26.537V88H11c-0.553,0-1,0.448-1,1s0.447,1,1,1h78c0.553,0,1-0.448,1-1S89.553,88,89,88z M47.953,13.813   c0-0.999,0.813-1.813,1.813-1.813h0.467c1,0,1.813,0.814,1.813,1.813v1.969h-4.094V13.813z M20.416,74.25V17.782h59.168V74.25   H20.416z M52.047,88h-4.094V76.25h4.094V88z"/></g></svg>