<?xml version="1.0" ?><svg id="Layer_1" style="enable-background:new 0 0 100 100;" version="1.1" viewBox="0 0 100 100" xml:space="preserve" xmlns="http://www.w3.org/2000/svg" xmlns:xlink="http://www.w3.org/1999/xlink"><path d="M50,77.974c15.425,0,27.974-12.549,27.974-27.974S65.425,22.026,50,22.026c-15.425,0-27.974,12.549-27.974,27.974  S34.575,77.974,50,77.974z M42.06,51c0.183,1.46,0.76,2.797,1.622,3.904l-12.73,12.73c-4.082-4.407-6.656-10.226-6.9-16.634H42.06z   M75.948,49H57.939c-0.183-1.46-0.76-2.796-1.622-3.904l12.73-12.73C73.13,36.773,75.704,42.592,75.948,49z M45.096,56.318  c1.108,0.861,2.444,1.438,3.904,1.621v18.009c-6.408-0.244-12.227-2.818-16.634-6.901L45.096,56.318z M51,57.939  c1.46-0.183,2.796-0.76,3.904-1.622l12.73,12.73C63.227,73.131,57.408,75.704,51,75.949V57.939z M50,56.009  c-3.314,0-6.009-2.695-6.009-6.009s2.695-6.009,6.009-6.009c3.313,0,6.009,2.695,6.009,6.009S53.313,56.009,50,56.009z   M54.904,43.682C53.796,42.82,52.46,42.244,51,42.061V24.051c6.408,0.244,12.227,2.818,16.634,6.9L54.904,43.682z M49,42.061  c-1.46,0.183-2.797,0.76-3.904,1.622l-12.73-12.73c4.407-4.083,10.226-6.656,16.634-6.901V42.061z M69.048,67.634l-12.73-12.73  c0.862-1.108,1.438-2.444,1.622-3.904h18.009C75.704,57.408,73.13,63.227,69.048,67.634z M30.952,32.366l12.73,12.73  C42.82,46.204,42.243,47.54,42.06,49H24.052C24.296,42.592,26.87,36.773,30.952,32.366z"/><path d="M11,51h5.649c0.25,8.448,3.651,16.115,9.07,21.867l-4.004,4.004c-0.391,0.391-0.391,1.023,0,1.414  c0.195,0.195,0.451,0.293,0.707,0.293c0.256,0,0.512-0.098,0.707-0.293l4.004-4.004c5.752,5.42,13.418,8.821,21.866,9.072v5.648  c0,0.552,0.447,1,1,1c0.553,0,1-0.448,1-1v-5.648c8.448-0.25,16.115-3.652,21.867-9.072l4.004,4.005  c0.195,0.195,0.451,0.293,0.707,0.293c0.256,0,0.512-0.098,0.707-0.293c0.391-0.39,0.391-1.023,0-1.414l-4.004-4.005  C79.7,67.114,83.1,59.448,83.351,51H89c0.553,0,1-0.448,1-1s-0.447-1-1-1h-5.649c-0.251-8.448-3.652-16.114-9.072-21.865  l4.005-4.006c0.391-0.391,0.391-1.023,0-1.414c-0.391-0.391-1.023-0.391-1.414,0l-4.005,4.006C67.113,20.302,59.447,16.901,51,16.65  V11c0-0.552-0.447-1-1-1c-0.553,0-1,0.448-1,1v5.651c-8.448,0.25-16.113,3.651-21.865,9.071l-4.005-4.006  c-0.391-0.391-1.024-0.391-1.414,0c-0.391,0.391-0.391,1.024,0,1.414l4.005,4.006C20.301,32.886,16.9,40.552,16.649,49H11  c-0.553,0-1,0.448-1,1S10.447,51,11,51z M50,18.625c17.301,0,31.376,14.075,31.376,31.376c0,17.301-14.075,31.376-31.376,31.376  c-17.301,0-31.376-14.075-31.376-31.376C18.624,32.7,32.699,18.625,50,18.625z"/></svg>