<?xml version="1.0" ?><svg id="Layer_1" style="enable-background:new 0 0 100 100;" version="1.1" viewBox="0 0 100 100" xml:space="preserve" xmlns="http://www.w3.org/2000/svg" xmlns:xlink="http://www.w3.org/1999/xlink"><g><path d="M33.135,46.14l1.51-1.51c0.85,7.655,7.353,13.63,15.231,13.63c7.878,0,14.38-5.974,15.231-13.628l1.508,1.507   c0.195,0.195,0.451,0.293,0.707,0.293c0.256,0,0.512-0.098,0.707-0.293c0.391-0.391,0.391-1.024,0-1.414l-3.265-3.264   c-0.375-0.375-1.039-0.375-1.414,0l-3.264,3.264c-0.391,0.391-0.391,1.024,0,1.414c0.391,0.391,1.024,0.391,1.414,0l1.6-1.6   c-0.76,6.266-5.877,11.195-12.226,11.67v-24.69h5.016c0.553,0,1-0.448,1-1c0-0.552-0.447-1-1-1h-5.016v-2.995   c1.964-0.456,3.436-2.211,3.436-4.311c0-2.446-1.99-4.436-4.436-4.436s-4.436,1.99-4.436,4.436c0,2.1,1.472,3.855,3.436,4.311   v2.995h-5.016c-0.553,0-1,0.448-1,1c0,0.552,0.447,1,1,1h5.016v24.69c-6.346-0.475-11.461-5.403-12.222-11.666l1.596,1.597   c0.195,0.195,0.451,0.293,0.707,0.293c0.256,0,0.512-0.098,0.707-0.293c0.391-0.39,0.391-1.023,0-1.414l-3.264-3.264   c-0.188-0.188-0.441-0.293-0.707-0.293c-0.266,0-0.52,0.105-0.707,0.293l-3.265,3.264c-0.391,0.39-0.391,1.023,0,1.414   C32.111,46.53,32.744,46.53,33.135,46.14z M47.439,22.213c0-1.343,1.093-2.436,2.436-2.436s2.436,1.093,2.436,2.436   s-1.093,2.435-2.436,2.435S47.439,23.556,47.439,22.213z"/><path d="M79.875,10h-59.75c-0.553,0-1,0.448-1,1v70.955v0.072V89c0,0.552,0.447,1,1,1c0.553,0,1-0.448,1-1v-5.973h57.742v5.797   c0,0.552,0.447,1,1,1c0.553,0,1-0.448,1-1v-6.758c0-0.014,0.008-0.025,0.008-0.039V11C80.875,10.448,80.428,10,79.875,10z    M78.875,81.027h-57.75V68.134h57.75V81.027z M78.875,66.134h-57.75V12h57.75V66.134z"/><path d="M35.945,75.991h29.369c0.553,0,1-0.448,1-1c0-0.552-0.447-1-1-1H35.945c-0.553,0-1,0.448-1,1   C34.945,75.544,35.393,75.991,35.945,75.991z"/></g></svg>