<?xml version="1.0" ?><svg id="Layer_1" style="enable-background:new 0 0 100 100;" version="1.1" viewBox="0 0 100 100" xml:space="preserve" xmlns="http://www.w3.org/2000/svg" xmlns:xlink="http://www.w3.org/1999/xlink"><path d="M17.934,33.615l1.415,9.408c0.05,0.327,0.258,0.609,0.556,0.752c0.298,0.143,0.647,0.13,0.935-0.036l26.39-15.275  l1.616,2.792L15.657,88.59c-0.277,0.478-0.113,1.09,0.364,1.366c0.158,0.091,0.33,0.135,0.5,0.135c0.346,0,0.681-0.179,0.866-0.499  L50,33.252l32.61,56.34c0.186,0.32,0.521,0.499,0.866,0.499c0.17,0,0.342-0.043,0.5-0.134c0.478-0.277,0.642-0.889,0.364-1.367  L51.155,31.256l1.617-2.792l26.39,15.275c0.285,0.166,0.635,0.179,0.935,0.036c0.298-0.144,0.506-0.425,0.556-0.752l1.415-9.408  l7.596-6.153c0.255-0.207,0.393-0.527,0.367-0.855c-0.025-0.328-0.211-0.622-0.496-0.787L62.278,10.044  c-0.48-0.277-1.09-0.114-1.366,0.364L50,29.26L39.088,10.408c-0.133-0.229-0.352-0.397-0.607-0.465  c-0.259-0.069-0.53-0.033-0.759,0.101L10.467,25.82c-0.285,0.165-0.471,0.459-0.496,0.787c-0.025,0.328,0.112,0.648,0.367,0.855  L17.934,33.615z M80.506,32.305c-0.193,0.157-0.322,0.381-0.359,0.628l-1.255,8.339l-11.877-6.875l8.368-14.458l11.891,6.883  L80.506,32.305z M62.142,12.275l11.51,6.663l-8.368,14.458l-11.51-6.663L62.142,12.275z M37.858,12.275l8.368,14.458l-11.511,6.663  l-8.368-14.458L37.858,12.275z M24.617,19.94l8.368,14.458l-11.877,6.875l-1.255-8.339c-0.037-0.247-0.166-0.471-0.359-0.628  l-6.768-5.482L24.617,19.94z"/></svg>