<?xml version="1.0" ?><svg id="Layer_1" style="enable-background:new 0 0 100 100;" version="1.1" viewBox="0 0 100 100" xml:space="preserve" xmlns="http://www.w3.org/2000/svg" xmlns:xlink="http://www.w3.org/1999/xlink"><path d="M89.35,10H77.206c-0.553,0-1,0.448-1,1c0,0.552,0.447,1,1,1h9.031L72.269,25.968h-8.771c-0.553,0-1,0.448-1,1  c0,0.552,0.447,1,1,1h6.771l-2.521,2.521h-8.769c-0.553,0-1,0.448-1,1c0,0.552,0.447,1,1,1h6.769l-8.998,8.998l-1.722-1.708  c-3.804-3.775-9.853-3.997-13.923-0.664L24.268,22.409c0.54-0.833,0.823-1.839,0.823-2.962c0-2.197-1.12-4.619-2.995-6.479  c-3.256-3.232-7.871-3.916-10.285-1.522c-0.956,0.948-1.461,2.245-1.461,3.748c0,2.197,1.12,4.619,2.995,6.479  c1.945,1.931,4.374,2.952,6.529,2.952c1.095,0,2.12-0.265,2.974-0.808l16.837,16.706c-1.528,1.839-2.361,4.126-2.361,6.541  c0,2.752,1.08,5.34,3.041,7.286l1.768,1.754l-13.82,13.82h-8.625c-0.553,0-1,0.448-1,1c0,0.552,0.447,1,1,1h6.625l-2.519,2.519  h-8.625c-0.553,0-1,0.448-1,1c0,0.552,0.447,1,1,1h6.625l-2.52,2.52H10.65c-0.553,0-1,0.448-1,1s0.447,1,1,1h6.624l-6.577,6.577  c-0.391,0.391-0.391,1.023,0,1.414c0.195,0.195,0.451,0.293,0.707,0.293c0.256,0,0.512-0.098,0.707-0.293l6.577-6.577v6.624  c0,0.552,0.447,1,1,1c0.553,0,1-0.448,1-1v-8.624l2.52-2.52v6.624c0,0.552,0.447,1,1,1c0.553,0,1-0.448,1-1v-8.624l2.519-2.519  v6.624c0,0.552,0.447,1,1,1c0.553,0,1-0.448,1-1v-8.624l13.826-13.826l1.104,1.095c2.021,2.006,4.676,3.008,7.331,3.008  c2.342,0,4.683-0.783,6.591-2.345l30.06,30.432c0.196,0.198,0.454,0.297,0.712,0.297c0.254,0,0.508-0.096,0.703-0.289  c0.393-0.388,0.396-1.021,0.008-1.414L59.998,57.863c1.529-1.839,2.361-4.127,2.361-6.542c0-2.752-1.08-5.34-3.041-7.285  l-1.149-1.14l8.847-8.847v6.479c0,0.552,0.447,1,1,1c0.553,0,1-0.448,1-1v-8.479l2.519-2.52v6.478c0,0.552,0.447,1,1,1  c0.553,0,1-0.448,1-1v-8.478L88.35,12.715v10.429c0,0.552,0.447,1,1,1c0.553,0,1-0.448,1-1V11C90.35,10.447,89.902,10,89.35,10z   M14.753,20.254c-1.505-1.493-2.403-3.384-2.403-5.06c0-0.669,0.151-1.616,0.869-2.329c0.587-0.582,1.414-0.859,2.347-0.859  c1.626,0,3.572,0.842,5.122,2.381c1.505,1.493,2.403,3.384,2.403,5.06c0,0.669-0.151,1.616-0.869,2.329  C20.611,23.373,17.193,22.675,14.753,20.254z M41.773,52.93c-1.579-1.567-2.449-3.651-2.449-5.866c0-2.215,0.87-4.298,2.449-5.865  c1.633-1.621,3.778-2.431,5.923-2.431c2.146,0,4.291,0.81,5.924,2.431l1.716,1.702L43.547,54.69L41.773,52.93z M57.91,45.456  c1.579,1.567,2.449,3.65,2.449,5.865c0,2.215-0.87,4.299-2.449,5.866c-3.268,3.241-8.58,3.24-11.846,0l-1.098-1.089L56.755,44.31  L57.91,45.456z"/></svg>