<?xml version="1.0" ?><!DOCTYPE svg  PUBLIC '-//W3C//DTD SVG 1.1//EN'  'http://www.w3.org/Graphics/SVG/1.1/DTD/svg11.dtd'><svg enable-background="new 0 0 512 512" id="Layer_1" version="1.1" viewBox="0 0 512 512" xml:space="preserve" xmlns="http://www.w3.org/2000/svg" xmlns:xlink="http://www.w3.org/1999/xlink"><g><path d="M259,507.2C120.4,507.9,6.7,392.7,9.9,252.1c3-134,114-245.1,252.4-243.4c136.6,1.6,249.4,115.4,245.8,255.9   C504.7,398.1,394.7,507.8,259,507.2z M477.8,258.1c-1-123.2-98.6-218-214.9-220.1C142.7,35.8,40.3,132.7,40.4,258.1   C40.5,381.6,139.2,476,255.3,478C375.3,480,476.8,383.4,477.8,258.1z"/><path d="M216.6,399.8c-10.2-0.3-18.3-4.2-24.4-11.6c-31.1-37.5-60.2-76.4-85.9-117.8c-2.3-3.7-4-8.2-4.4-12.5   c-0.8-8.1,5.7-13.9,13.6-12.2c5.1,1.1,10.1,3.4,14.5,6.2c21.6,14.2,42.9,28.7,64.3,43.1c1.8,1.2,3.6,2.4,5.5,3.5   c9.3,5.8,18.2,5.2,26.9-1.5c14.1-10.9,28.3-21.7,42.5-32.4c37.5-28,75.1-56,112.6-83.9c2.9-2.2,6-4.3,9.4-5.5   c4.3-1.6,6.9,0.9,6,5.4c-0.3,1.7-1.2,3.5-2.2,4.9c-48.9,68.9-98.5,137.2-153.4,201.6C235,395.1,226.6,399.6,216.6,399.8z"/></g></svg>