<?xml version="1.0" ?><!DOCTYPE svg  PUBLIC '-//W3C//DTD SVG 1.1//EN'  'http://www.w3.org/Graphics/SVG/1.1/DTD/svg11.dtd'><svg enable-background="new 0 0 512 512" id="Layer_1" version="1.1" viewBox="0 0 512 512" xml:space="preserve" xmlns="http://www.w3.org/2000/svg" xmlns:xlink="http://www.w3.org/1999/xlink"><g><path d="M258.7,507.2C120.3,507.8,6.5,392.6,9.9,251.8C13,117.9,124,7.2,262,8.7C398.7,10.2,511.8,124,508.1,264.9   C504.6,398.3,394.5,507.9,258.7,507.2z M477.8,258.1C476.9,135,379.3,40.1,263,38C142.7,35.8,40.3,132.7,40.4,258.1   C40.5,381.4,139.1,476,255.3,478C375.2,480,476.8,383.5,477.8,258.1z"/><path d="M237.1,258c0,43.1-34.6,77.8-77.7,77.9c-43,0.1-78.3-35.1-78.2-78.1c0.1-42.8,35.3-77.7,78.2-77.6   C202.5,180.2,237.1,214.9,237.1,258z"/><path d="M276.9,257.8c0.1-43,34.9-77.7,78-77.6c42.9,0,77.9,35,77.9,77.8c0,43.1-35.3,78.2-78.4,77.9   C311.3,335.7,276.9,300.9,276.9,257.8z"/></g></svg>