<?xml version="1.0" ?><!DOCTYPE svg  PUBLIC '-//W3C//DTD SVG 1.1//EN'  'http://www.w3.org/Graphics/SVG/1.1/DTD/svg11.dtd'><svg enable-background="new 0 0 512 512" id="Layer_1" version="1.1" viewBox="0 0 512 512" xml:space="preserve" xmlns="http://www.w3.org/2000/svg" xmlns:xlink="http://www.w3.org/1999/xlink"><g><path d="M258.7,507.2C120.3,507.7,6.5,392.6,9.9,251.8C13,117.9,124,7.2,262.1,8.7c136.7,1.5,249.5,115.3,246,255.7   C504.8,398,394.7,507.9,258.7,507.2z M40.2,258c1,123.1,98.7,217.9,215,220c119.9,2.1,222.3-94.3,222.5-219.7   C477.8,135,379.2,39.9,262.6,38C142.8,36,41.2,132.5,40.2,258z"/><path d="M265.4,215c-10.2,6.5-19.4,12.3-28.6,18.1c-0.3-0.2-0.5-0.4-0.8-0.7c1.9-3.4,3.8-6.8,5.7-10.1c5.7-9.8,11.8-19.4,17.1-29.3   c1.9-3.4,6.7-6,3.4-11.8c-1.5-2.6,0.2-7,0.6-11.2c1.4,0.2,3.4,0.6,5.1,0.8c-0.5,2.7-0.8,4.8-1.2,6.9c0.3,0.2,0.5,0.4,0.8,0.6   c2.9-4.4,5.8-8.8,8.8-13.4c5.2,4.6,2.9,14.9,11.8,15c-0.5,3.9-0.8,7.2-1.2,10.4c0.5,0.1,0.9,0.3,1.4,0.4c1.7-1.4,4.2-2.4,5-4.2   c2.4-5,4.3-1.8,7,0c-1.4,1-2.3,1.8-3.3,2.5c-6.7,5-6.1,10.7-2.8,17.7c3.9,8.2,6.7,16.9,9,26.1c-6.4-5.4-12.7-10.7-19.8-16.7   c-3.7,18.6-7.3,36.2-10.8,53.9c-0.4,0-0.7,0.1-1.1,0.1C269.6,252.1,267.6,234.1,265.4,215z"/><path d="M206.2,175.1c1-3.5,3.4-1.8,5.5-1.7c0.8,0.1,1.8-0.7,2.6-1.1l-0.2,0.1c1.8,0,3.7,0,6.3,0c5.1,13.1,10.6,26.9,16,40.8   c-0.2,0.2-0.5,0.4-0.7,0.6c-3.7-3.1-7.4-6.2-11.8-9.8c-1.7,7.7-3.5,14.8-4.8,21.9c-1.1,5.6-1.6,11.3-2.4,17   c-0.5,3.6-2.8,5.3-6.2,5.1c-3.2-0.2-5.5-1.8-5.5-5.2c0-3.5,2.4-4.9,5.6-5c1.3,0,2.6,0.3,4.2,0.5c0-1.6,0-3.1,0-5   c-1.8-0.5-3.7-1.1-5.5-1.6v0.2c-1.7-4.5-0.3-7.4,4.7-8.1c-0.7-6.7-1.3-13-2-20.1c-5.8,3.5-11.1,6.6-16.4,9.8   c-0.3-0.3-0.7-0.5-1-0.8c7.2-12,14.5-24.1,21.2-35.3c-3-0.4-5.8-0.9-8.7-1.3C206.8,175.7,206.5,175.4,206.2,175.1z"/><path d="M337.9,229.7c0.7,1.4,1.4,2.9,2.1,4.3c-0.2,0.4-0.4,0.9-0.6,1.3c-2.4-0.7-4.8-1.3-7.3-2c-3.3,6.2-3.5,12.3,4.1,17.1   c-5.3,1-9.2-1.5-11.9-7c1.3-0.2,2.5-0.5,4.2-0.8c-1-10.4-1.9-20.7-2.9-31.8c-5.7,3.3-10.8,6.2-15.9,9.2c-0.3-0.2-0.6-0.4-0.8-0.6   c7.8-12.8,15.6-25.5,23.9-39.3c6.1,15.1,11.8,29.4,17.8,44.4c-3.2-1.5-7.5-0.9-7-6.6c0.1-0.6-1.2-1.8-2-2c-1.6-0.5-3.4-0.7-5.4-1   c-0.3,0.8-0.7,1.7-0.8,2.1c2.9,2,5.6,3.8,8.2,5.5c-0.3,0.5-0.6,1.1-0.9,1.6c-2-0.9-4-1.9-6.6-3.1c-0.4,1.6-0.8,3.1-1.2,4.7   C335.9,227.1,336.9,228.4,337.9,229.7z"/><path d="M200.3,178.7c-0.4,0.7-0.6,1.8-1.2,2.2c-4.3,2.5-8.8,4.6-12.9,7.5c-1.3,0.9-1.5,3.5-2.9,5.1c-0.7,2-1.5,3.9-2.4,6.4   c2.6,2.1,1.8,4.2-1.9,5.7c1.3,1.6,3.2,2.9,3.5,4.4c0.2,1.1-1.9,2.6-2.5,3.4c1.5,1.8,3,3.5,4.4,5.2c-1.7,1.1-3.3,3.1-5,3.2   c-2.4,0-4.8-1.4-7.1-2.2c0.7-1.9,1.5-3.7,2.2-5.7c-6-3.1-6.2-4.2-0.8-7.8c-1.2-1.4-3.1-2.7-3.3-4.2s1.4-3.2,2.3-4.8   c0.5,0.5,1,1.1,1.5,1.6c-0.6-1.5-2-3.2-1.6-4.3c0.4-1.2,2.5-1.8,3.9-2.6c-0.3-0.3-0.6-0.7-0.8-1c1.1-1.2,2.3-2.4,3.4-3.7   c0.5-0.6,0.9-1.4,1.3-2.1c0.2-0.4,0.2-1.2,0.5-1.3c3.4-1.5,7.2-2.4,10.1-4.6c2.7-2,5.2-2.7,8.3-2.1   C199.5,177.6,199.9,178.2,200.3,178.7z"/><path d="M105.5,286.1c0.1,6.8-7,14.4-13.7,14.9c-4.9,0.4-8.4-2.7-8.5-7.6c-0.1-7,7.3-14.7,14.3-14.9   C102.3,278.4,105.4,281.3,105.5,286.1z"/><path d="M236.9,343.3c0.8-4.3,1.8-7.9,5.9-9.1c4.3-1.4,7.6,0.9,9.5,4.5c1.6,3,2.8,6.4,3.4,9.8c0.6,3.8-0.4,7.4-4.5,9   s-7.4-0.4-9.5-3.5C239.6,350.7,238.5,346.9,236.9,343.3z"/><path d="M315.4,370.1c0.1,6.2-3.7,8.7-8.2,5.9c-6.9-4.3-10.7-10.9-11.3-18.9c-0.1-1.8,1.1-4.5,2.6-5.3s4.4-0.4,5.9,0.6   C311,356.7,314.3,363.3,315.4,370.1z"/><path d="M285.5,362.9c-0.7,1.2-1.6,4.3-3.5,5.1c-1.9,0.8-5.3-0.1-7.1-1.5c-5.4-4.1-8.2-10-7.7-16.9c0.4-5.4,4.7-7.5,9.2-4.5   C282.2,348.9,284.9,354.7,285.5,362.9z"/><path d="M227.1,332.2c0.1,6.2-3.6,11-8.5,10.9c-5-0.1-9.2-5.4-9.2-11.7c0-5.9,3.7-10.7,8.3-10.8   C222.6,320.5,226.9,325.8,227.1,332.2z"/><path d="M278.1,135.9c5.7,0,9.9,4,9.9,9.5s-4.1,9.6-9.7,9.7c-5.8,0.1-10.4-4.3-10.3-9.8C268.1,140,272.6,135.9,278.1,135.9z"/><path d="M342.5,375.3c0,4.3-2.9,6.2-6.6,3.9c-7.3-4.4-11.7-11.2-13.1-19.5c-0.7-4.1,2-6.1,5.6-4.8   C334.4,357.1,342.6,368.9,342.5,375.3z"/><path d="M346,358.1c-0.1-3.7,2.2-5.5,5.4-3.7c8,4.5,13.4,11.3,15.5,20.3c0.9,3.8-1.7,5.6-5.4,4.2   C355.5,376.9,346.1,364.2,346,358.1z"/><path d="M116.7,294.2c0.1-5.8,4.7-11.6,10.4-13.2c5.2-1.4,8.9,1.6,8.6,7c-0.3,5.1-6,11.8-11,12.8   C119.6,301.9,116.6,299.4,116.7,294.2z"/><path d="M166.3,290c-0.1,5.9-7.2,12.8-13.1,12.7c-3.9-0.1-6.1-2.9-5.8-7.1c0.5-5.8,6.1-11.6,11.9-12.4   C163.5,282.6,166.4,285.4,166.3,290z"/><path d="M385.9,368.2c0.1,4.7-1.5,5.6-4.4,5c-6.1-1.3-16.2-13.3-16.3-19.4c-0.1-3.2,1.6-4.1,4.5-3.5   C375.8,351.5,385.8,363.5,385.9,368.2z"/><path d="M115.5,282.8c-3.8,0.1-6.5-2.6-6.6-6.6c-0.1-5.8,5.8-12.1,11.7-12.3c4.1-0.2,6.7,2.2,6.8,6.2   C127.7,276,121.4,282.7,115.5,282.8z"/><path d="M287.8,329.9c0.1-4.8,3.6-7,7.8-4.6c5.2,2.9,8.3,7.6,9.3,13.5c0.8,5-2.8,7.7-7.3,5.9C292.8,342.7,287.7,335,287.8,329.9z"/><path d="M280.7,332.5c-0.1,4.9-3.7,7.2-8.2,5.3c-4.5-1.9-8.5-8.4-8.4-13.3s3.7-7.3,8.1-5.3C276.8,321.1,280.9,327.6,280.7,332.5z"/><path d="M177.9,297c0-5.2,3.6-9.2,8.4-9.1c4.5,0.1,8,3.9,8.1,8.9c0,5.2-3.7,9.3-8.4,9.2C181.5,305.9,177.9,301.9,177.9,297z"/><path d="M256.2,322.3c-0.2,4.2-2.8,6.8-6.4,6.6c-5-0.4-9.9-6.5-9.7-12.1c0.1-4.1,2.7-6.9,6.3-6.8   C251.6,310.1,256.5,316.3,256.2,322.3z"/><path d="M233.1,309.7c0.1,4.6-2.9,8.2-6.9,8.1c-4.7-0.1-9.1-5.3-9.1-10.7c0-4.4,2.9-7.7,6.7-7.8C228.3,299.1,233,304.3,233.1,309.7   z"/><path d="M138.8,278.4c0.2-5,4.2-9.9,9.1-11.4c4.9-1.4,8.9,2.1,7.7,7.1c-1.2,4.8-4.1,8.3-8.8,10.2   C141.8,286.2,138.5,283.7,138.8,278.4z"/><path d="M356.7,264.9c1.9,2.3,3.9,4.6,6.5,7.7c-2.3,0.3-3.4,0.5-4.6,0.7c2,3.6,5,7.7-2,7.1c-0.2,2.3-0.3,4.4-0.4,6.5   c-2.1-0.7-4.3-1.2-6.3-2.1c-1.1-0.5-2-1.7-2.8-2.8c-2.4-3.5-1.7-5.1,2.9-6.4c-1.6-3.5-1.8-6.2,3.5-6c-1.1-1.8-2.2-3.5-3.8-6.2   c2.4,0,3.7,0,5.1,0C355.4,263.9,356.1,264.4,356.7,264.9z"/><path d="M327,343.6c-0.1,3.7-2.6,5.4-6,3.7c-6-3-9.5-8.2-10.9-14.6c-0.3-1.4,0.6-3.7,1.7-4.6c0.9-0.7,3.2-0.4,4.5,0.2   C321.4,330.4,327.1,338.9,327,343.6z"/><path d="M399.3,362.3c-1.1,0.3-2.9,1.4-3.9,0.9c-7.6-4-13.1-10.2-16.1-18.2c-1-2.5,0.4-4.2,3.4-3.7   C387.8,342.4,399.2,355.9,399.3,362.3z"/><path d="M347,343.5c0.1,3.7-2,5.3-5.4,3.6c-6-3-10.1-8-11.9-14.5c-0.4-1.4,0.3-3.8,1.3-4.7c0.8-0.7,3.2-0.4,4.5,0.2   C340.7,330.3,346.9,338.9,347,343.5z"/><path d="M175.4,287.7c-4.2,0.1-7.8-3.5-7.9-8c-0.1-4.5,3.2-8.2,7.5-8.3c4.3-0.1,7.9,3.4,8,7.9C183.1,283.7,179.6,287.5,175.4,287.7   z"/><path d="M141.7,252c3.6,0,5.6,1.9,5.6,5.4c0.1,4.6-6.6,10.4-11.7,10.4c-3.3,0-5.4-1.6-5.6-5C129.8,257.7,136.1,252,141.7,252z"/><path d="M363.2,339.2c0.2,4.3-1.7,5.6-4.7,4.4c-6.4-2.6-10.5-7.5-12.2-14.2c-0.7-3,0.9-4.8,4.3-4.2   C355.9,326.3,363.1,334.9,363.2,339.2z"/><path d="M408.9,352.5c-1,0.2-2.7,1.2-3.7,0.8c-7.1-3.6-11.9-9.3-14.9-16.6c-0.9-2.3,0.1-3.9,2.9-3.7   C397.7,333.4,409,346.5,408.9,352.5z"/><path d="M359,322c-0.1-3.2,1.7-4.1,4.5-3.3c4.6,1.3,11.8,10.2,12.1,15c0.2,3-1.3,3.9-4.1,3.3C366.6,336,359.1,327,359,322z"/><path d="M210,285.1c0.1,4.1-3.3,7.7-7.5,7.7c-4.2,0.1-7.6-3.4-7.5-7.6c0-4.1,3.1-7.2,7.2-7.4C206.4,277.7,209.9,280.9,210,285.1z"/><path d="M277,311.1c-1,0.7-2.8,2.8-4.8,3.1c-4.6,0.6-10.2-6-10-11.1c0.2-2.9,1.4-5.1,4.8-5.1C271.8,298,277.2,304,277,311.1z"/><path d="M252.8,306.8c-5,0-10-5.3-9.8-10c0.1-3.4,1.8-5.7,5.5-5.8c4.5-0.1,9.5,5.2,9.3,10C257.6,304.4,255.9,306.7,252.8,306.8z"/><path d="M296.8,315.5c-0.1,2.8-2.2,4.1-5.6,3.5c-4.8-0.9-10.1-7.8-9.6-12.5c0.3-2.9,1.8-4.5,5-4   C291.4,303.4,296.8,309.9,296.8,315.5z"/><path d="M343.2,298.3c6.1,0.2,15.6,11.5,14.4,16c-0.3,1-2.7,2.1-3.9,1.9c-4.9-1-11.9-9-12.3-14   C341.4,300.8,342.8,299.3,343.2,298.3z"/><path d="M238.4,291.6c-0.3,3-1.7,5.3-5.4,5.5c-4.4,0.2-8.9-4.3-9.1-8.9c-0.1-3.8,1.6-6,5.5-6.1C233.8,282,238.4,286.7,238.4,291.6z   "/><path d="M314.5,320c-1.1,0.5-2.9,2-4.6,1.9c-4.2-0.4-10.3-7.4-10.8-11.5c-0.3-3.4,2-5.4,5.3-4.7C308.7,306.6,314.6,314,314.5,320z"/><path d="M331.4,320.3c-0.7,0.4-2,1.7-3.3,1.8c-4.3,0.2-11.8-7.5-11.8-11.9c0-3.1,1.7-4.6,4.8-4C325.3,307,331.5,314.8,331.4,320.3z   "/><path d="M293.6,286.7c6,0,13.6,9.3,12.1,13.6c-0.4,1.2-2.7,2.5-4,2.4c-4.1-0.3-10.6-7.3-10.5-11.3   C291.4,289.6,293,287.9,293.6,286.7z"/><path d="M126.8,247.8c-0.8-0.9-3.2-2.5-3.6-4.5c-0.8-4,4.9-8.6,9.8-8.6c3,0,5.2,1.2,5.5,4.4C138.8,242.9,133.2,247.8,126.8,247.8z"/><path d="M412.1,338c-3.1-1.9-5.5-2.9-7.2-4.6c-3-3-5.8-6.4-8.3-9.8c-0.6-0.8-0.3-2.6,0.3-3.5c0.3-0.5,2.2-0.6,3.1-0.2   c6.2,3,10.9,7.6,13.6,13.9C413.9,334.7,412.8,336.2,412.1,338z"/><path d="M157.2,244.5c4.3-0.1,7.9,2.5,8,5.8s-3.3,6-7.7,6.1c-4.3,0.1-8-2.6-8-5.8C149.3,247.4,152.8,244.6,157.2,244.5z"/><path d="M191.8,263.3c4,0.1,7.3,3.3,7.1,6.7c-0.2,3.5-3.6,6.3-7.7,6c-4-0.2-6.6-2.3-6.8-6.4C184.2,266.1,187.8,263.2,191.8,263.3z"/><path d="M182.5,262c-4.1,0.1-7.6-2.8-7.6-6.2c-0.1-3.4,3-6.1,7-6.3c4.1-0.2,7.7,2.5,7.9,5.9C190,258.7,186.6,261.9,182.5,262z"/><path d="M163.6,270.4c-3.6-0.3-6-1.9-6-5.8c0-4,4-7.1,8.7-6.8c3.7,0.2,5.9,2.1,5.8,5.9C171.9,267.6,168,270.6,163.6,270.4z"/><path d="M274.9,291.7c-1.1,0.6-2.9,2.5-4.8,2.6c-4,0.2-9.8-5.9-8.9-9.6c0.4-1.8,3-4,4.8-4.2C269.9,279.9,275.1,286,274.9,291.7z"/><path d="M319.4,299.8c-0.2,2.4-1.7,4.5-4.3,2.6c-3.6-2.6-7-5.9-9.5-9.6c-1.9-2.9,0.7-5.8,3.9-5.1   C313.4,288.4,319.3,295.3,319.4,299.8z"/><path d="M278.2,284.8c6.1,0,12,6,11.9,10.6c-0.1,3.2-1.9,4-4.7,3.5c-3.9-0.7-9-5.7-9.2-9.6C276.2,287.6,277.7,285.9,278.2,284.8z"/><path d="M248.3,275c5.9-0.2,10,3.6,10,7.7c0,3.4-1.8,5.2-5.2,5.3c-4.2,0.2-8.6-3.7-8-7.7C245.4,278.1,247.5,276.2,248.3,275z"/><path d="M207,255.1c3.8,0.1,7,3,6.9,6.3s-3.4,6-7.2,6c-3.9-0.1-6.9-2.8-6.8-6.3C200,257.6,203.1,255,207,255.1z"/><path d="M344.6,318.2c-0.9,0.4-2.3,1.5-3.6,1.3c-4.2-0.5-11.1-8.1-11.1-12.2c0-1.1,1.9-3.1,2.9-3.1   C337.1,304.2,344.7,312.7,344.6,318.2z"/><path d="M149,241.1c-3.1-0.3-6.5-1.2-6.9-5.6c-0.3-3.1,3.2-5.7,7.4-5.7c4.1,0,7.5,2.5,7.5,5.6C157,238.6,153.7,241.1,149,241.1z"/><path d="M240.2,280.4c-5.9,0.1-10.2-3.6-10.3-7.4c-0.1-3.6,2-5.1,5.3-5.1c4.1,0,8.8,4,8.2,7.7C243,277.6,240.9,279.4,240.2,280.4z"/><path d="M386.8,327.8c-0.8,0.2-2.3,1.2-3.1,0.8c-6-2.9-10.5-7.5-12.9-13.7c-0.2-0.6,1.5-2.8,2.4-2.8   C377.1,312.2,387.1,323.3,386.8,327.8z"/><path d="M197.3,243.1c3.7,0.2,6.6,3.1,6.1,6.4c-0.6,4-3.4,5.5-7,5.4s-6.5-3.2-6.2-6.4C190.5,245.4,193.7,242.9,197.3,243.1z"/><path d="M144.2,227c-2.6-0.3-6-1.4-6-5.4s3.4-5.4,7-5.5c4.2-0.1,7.4,2.6,7.3,5.8C152.3,225.1,149.4,227.1,144.2,227z"/><path d="M128,218c2.7,2.1,4.7,3.7,6.7,5.3c-1.8,1.9-3.2,4.9-5.3,5.5c-2.7,0.8-5.9-0.2-8.8-1c-0.6-0.2-1.3-3.2-0.8-3.7   C122.1,222,124.8,220.4,128,218z"/><path d="M173.8,237.8c3.5,0.1,6.7,1.4,6.7,5.2c0,4.1-3.4,5.4-7.1,5.3c-3.7,0-7.1-1.3-7-5.4C166.7,238.8,170.1,237.7,173.8,237.8z"/><path d="M339.3,169.6c0,3.4-3,6.3-6.5,6s-5.9-2.1-5.9-5.9c0-3.8,2.2-5.7,5.8-5.9C336.5,163.6,339.3,166.1,339.3,169.6z"/><path d="M328.7,291.2c0.2,0.8,0.5,1.6,0.5,2.4c0.1,2.1,0,4.2,0,6.3c-2.1-0.6-4.6-0.8-6.2-2.1c-2.1-1.7-3.8-4.1-5-6.6   c-0.5-1.1,0-3.3,0.9-4.3c0.6-0.7,2.9-0.5,4,0.1c2.2,1.1,4,2.8,6,4.2C328.9,291.4,328.7,291.2,328.7,291.2z"/><path d="M168.9,225.7c1.2,1.3,3.9,3,4.7,5.3c0.9,2.4-4.1,5.4-7.9,4.8c-3-0.5-6.4-1.4-6-5.2C160.1,226.2,164,226.1,168.9,225.7z"/><path d="M328.7,291.2l0.2,0.2c-0.6-1.2-1.4-2.3-1.7-3.5c-0.6-3.3,1.3-5.5,4-3.8c3.4,2.1,6.5,5.3,8.6,8.7c1.6,2.7-0.9,4.8-3.9,3.4   C333.3,294.9,331.1,292.9,328.7,291.2z"/><path d="M377.9,303.2c6.5,0.2,13.8,7.6,14.2,14.1C386.3,318.1,378.3,310.3,377.9,303.2z"/><path d="M398.2,306.2c6.1-0.6,14.1,6.8,14.3,13.2C406.3,319.8,398.2,312.4,398.2,306.2z"/><path d="M368.9,309.9c-4.7-0.2-13.3-7.9-13.5-12.5c0-0.7,1.7-2.3,2.5-2.2C362.4,295.6,369.3,305.1,368.9,309.9z"/><path d="M188.6,244.6c-2.9-3-6-4.8-6.3-7c-0.5-3.8,3.1-5.1,6.5-5c3.2,0.1,6.6,1.4,6,5C194.4,239.8,191.4,241.5,188.6,244.6z"/><path d="M209.3,231.7c-1.8,1.8-3.4,4.6-5.6,5.2c-2,0.5-4.9-1-6.8-2.4c-0.7-0.5-0.5-4.1,0.3-4.6c2.1-1.2,4.8-2.3,7.1-2   c1.9,0.3,3.4,2.6,5.2,4C209.4,231.9,209.3,231.7,209.3,231.7z"/><path d="M375.4,301.5c-5.8,0.2-15-6.8-15.2-11.1c0-0.6,2.4-2.2,3-1.9C368.7,291.2,373,295,375.4,301.5z"/><path d="M395.1,305.4c-5.6,0.5-14.7-6.3-15.1-10.7c-0.1-0.6,2.3-2.3,2.8-2.1C388.4,295.2,392.7,299.1,395.1,305.4z"/><path d="M218.9,166.1c-1.5-2-3.9-3.9-4.2-6.1c-0.6-3.5,2.3-6,5.5-5.5c2.1,0.4,5.2,3.2,5.3,5.2s-2.7,4.3-4.3,6.4   C220.5,166.1,219.7,166.1,218.9,166.1z"/><path d="M162.6,226c-3.1-2.6-6.6-4.1-6.9-6.2c-0.6-3.8,3.5-4.9,6.3-4.5c2.5,0.4,4.7,2.7,7,4.1C167.2,221.4,165.4,223.2,162.6,226z"/><path d="M127.5,204.6c2.4,1.7,4.4,3.1,6.3,4.4c-1.9,1.7-3.6,4.3-5.8,4.8c-2.4,0.5-5.2-0.8-7.7-1.7c-0.4-0.1-0.7-2.6-0.2-3   C122.1,207.6,124.5,206.4,127.5,204.6z"/><path d="M182.2,234c-2.7-2.7-5.7-4.4-5.9-6.4c-0.3-3.7,3-4.7,6.3-4.6c3.1,0.1,6.2,1.3,5.7,4.7C187.9,229.7,184.9,231.3,182.2,234z"/><path d="M352.5,293c-4.8,0.3-13.5-6.1-13.9-10.3c-0.1-0.6,2.1-2.1,2.9-2C345.6,281.7,351.1,288,352.5,293z"/><path d="M160.6,215.6c-2.8-2.6-4.6-4.4-6.5-6.1c2.3-1.4,4.6-3.7,7-3.9c1.9-0.1,4,2.4,6,3.8C165.2,211.2,163.3,213,160.6,215.6z"/><path d="M172.3,184.3c-1-1.5-2.1-2.9-3.1-4.4c2.1-0.6,4.3-1.2,6.6-1.8c0.6-0.8,1.5-3,2.3-2.9c2.5,0.1,4.9,1.1,7.3,1.8   c0,0.7-0.1,1.4-0.1,2.1c-4.4,1.7-8.7,3.4-13.1,5.1C172.1,184.1,172.3,184.3,172.3,184.3z"/><path d="M214.3,172.4c-4.6-1.5-7.6-4.9-10.5-8.6c-1.3-1.7-3.8-2.4-6.4-4c4.1-2.4,6.6-2.2,8.2,1.6c0.2,0.5,0.2,1.2,0.5,1.4   c2.9,1.9,6,3.6,8.7,5.8c0.5,0.4-0.4,2.4-0.6,3.7C214.2,172.4,214.3,172.4,214.3,172.4z"/><path d="M144.3,204.1c2.8,2.2,4.8,3.7,6.8,5.3c-2.2,1.4-4.3,3.8-6.5,3.8s-4.5-2.3-6.7-3.6C139.7,208,141.6,206.4,144.3,204.1z"/><path d="M129.9,192.2c2.8,2,4.6,3.4,6.4,4.7c-1.8,1.4-3.4,3.4-5.5,3.9c-2.9,0.7-7.1,1.2-7.6-2.9C123,196.5,127.2,194.5,129.9,192.2   z"/><path d="M252.3,166.4c2.6-0.2,5.2-1.5,5.2,3.4c0.1,3.6,1.9,7.3,3,10.9c-3.8,1.7-5.3,0.9-5.9-2.9C254,174.1,253.1,170.4,252.3,166.4   z"/><path d="M135.8,182.4c2.5,2.2,4.2,3.8,6,5.4c-2.4,1.1-4.7,2.9-7.1,3c-1.9,0-3.8-2.2-5.7-3.4C131,185.9,133,184.5,135.8,182.4z"/><path d="M421.6,296.5c5.1-0.7,10.6,3.4,13,9.7C429.7,307.4,423.2,302.6,421.6,296.5z"/><path d="M409.7,303.2c-5.8,0.5-12.6-4.4-13.7-9.8C401.7,292.8,408.6,297.7,409.7,303.2z"/><path d="M146.1,203.8c-2.6-2.1-4.5-3.6-6.5-5.2c2-1.2,4-3.4,5.9-3.2c2.3,0.2,4.4,2.3,6.6,3.6C150.4,200.4,148.7,201.8,146.1,203.8z   "/><path d="M376.2,291.9c-6.1-0.4-11.5-5.7-11.9-11.1C369.4,280.7,374.7,285.5,376.2,291.9z"/><path d="M419.7,298.6c-5.5,0.6-11.9-4.6-12.6-10.2C412.4,288.2,418.1,292.8,419.7,298.6z"/><path d="M150.2,185.5c2.3,2,4.1,3.4,5.8,4.9c-2,1.1-4,3.3-5.9,3.1c-2.1-0.1-4.1-2.3-6.1-3.6C145.8,188.6,147.7,187.3,150.2,185.5z"/><path d="M240.4,168.4c-5.4,0.9-5.4,0.9-8.8-13.1c3.6-0.8,5.6-0.1,6.2,4C238.2,162.5,239.5,165.4,240.4,168.4z"/><path d="M185.4,164.6c4.9,2.3,9.8,4.5,14.7,6.8c-0.2,0.8-0.4,1.6-0.6,2.5c-2.4-0.2-4.8-0.5-7.2-0.7l0.2,0.1   c-0.9-2.5-2.6-3.7-5.3-4.2c-2.8-0.5-4.5-1.9-1.6-4.6L185.4,164.6z"/><path d="M397.3,280.2c2.7,2.9,5.3,5.8,8.4,9.3c-6.4,0.8-12-3.5-13.6-9.9c1.9,0.3,3.6,0.5,5.3,0.7L397.3,280.2z"/><path d="M161.9,205.3c-2.4-1.8-4.3-3.3-6.2-4.7c2-1.1,4-3.3,5.9-3.2c2.1,0.1,4.1,2.3,6.2,3.6C166,202.2,164.3,203.5,161.9,205.3z"/><path d="M164.2,197.8c-2.5-2.2-4.3-3.7-6.1-5.2c1.9-1,3.9-2.9,5.6-2.7c2.2,0.2,4.2,2.2,6.3,3.4   C168.3,194.6,166.6,195.9,164.2,197.8z"/><path d="M393.1,292.3c-6.1-0.2-11.1-3.8-13-8.9C385.2,282.5,390.9,286.2,393.1,292.3z"/><path d="M142.8,183.9c-2.5-1.8-4.4-3.2-6.4-4.7c1.7-0.9,3.6-2.7,5.2-2.6c2.1,0.2,4.1,1.9,6.2,3   C146.4,180.9,144.9,182.2,142.8,183.9z"/><path d="M365,273.2c5.5,0.3,9.5,3.6,11.3,8.8C371.8,282.7,367,279.1,365,273.2z"/><path d="M310,193.3c-2.2,1.4-4.1,2.6-6,3.7c-1,0.6-2.2,1.2-3.3,1c-0.8-0.1-1.4-1.3-2.1-2c0.8-0.7,1.6-1.4,2.4-2.1   c0.8-0.7,1.6-1.3,2.4-2C306.9,188.9,306.9,188.9,310,193.3z"/><path d="M155.7,187.4c-2.4-1.8-4-3.2-5.7-4.5c1.8-1,3.7-2.8,5.5-2.7c1.9,0.1,3.7,2,5.6,3.1C159.4,184.6,157.8,185.8,155.7,187.4z"/><path d="M377.8,272c5.5,0.3,9.6,3.7,10.9,8.7C383.8,281,379.6,277.7,377.8,272z"/><path d="M402.4,278.5c6.2,0.3,10.4,3.9,11.4,9.4C408.5,286.6,405.1,283.6,402.4,278.5z"/><path d="M397.4,280.3c-3-2.7-6-5.5-9-8.2c0.3-0.6,0.6-1.1,0.9-1.7c1.2,0.2,2.5,0.4,3.7,0.7c0.6,0.1,1.1,0.3,1.7,0.4   c1.4,1.7,2.9,3.4,4.3,5.2c2,2.5,0.7,3.3-1.8,3.6C397.3,280.2,397.4,280.3,397.4,280.3z"/><path d="M373.7,274.6c-3.4-2.8-6.8-5.5-10.6-8.6c4.7-2.6,10.6,1.8,11.6,7.4C374.4,273.8,374.1,274.2,373.7,274.6z"/><path d="M247.7,167c-8.3,1.1-5.7-6.7-10-10.2c4.5,0,7.5-1.2,7.3,3.9C244.9,162.7,246.7,164.7,247.7,167z"/><path d="M156.1,174c-3.3,3.6-6.5,2.5-9.5,0.4c-0.4-0.3-0.3-2.6,0.4-3.1C149.1,169.3,153.4,170.7,156.1,174z"/><path d="M172.1,184.1c0.3,1.2,0.7,2.5,1,3.7c-2.2,0.4-4.4,1.1-6.5,1c-1.1-0.1-2.2-1.6-3.3-2.5c0.9-0.8,1.7-2.2,2.6-2.3   c2.1-0.3,4.2,0.1,6.4,0.3L172.1,184.1z"/><path d="M356.7,264.9c-0.7-0.5-1.3-1-2-1.6c-1.6-1.9-3.2-3.9-4.8-5.8c5.8-0.5,8.5,2.6,11.2,7.4C359.2,264.9,358,264.9,356.7,264.9z   "/><path d="M363.2,257.1c5,0.4,8.2,2.9,10.7,8.2C368,264.3,364.9,261.6,363.2,257.1z"/><path d="M157,176.6c4.6-3,7.5-2.6,10.7,1.1C163.9,180.9,161.3,180.7,157,176.6z"/><path d="M377.4,262.6c3.1,2.6,6.2,5.2,9.2,7.8c-0.4,0.5-0.9,1-1.3,1.6c-4.6-0.7-7.4-3.7-9.6-7.5   C376.3,263.9,376.9,263.3,377.4,262.6z"/><path d="M339.1,248.9c3,2.5,5.9,5.1,8.9,7.6c-0.4,0.5-0.8,1-1.2,1.5c-4.5-0.7-7.2-3.6-9.2-7.3C338,250.2,338.6,249.6,339.1,248.9z"/><path d="M164.8,171.1c-3.5-0.1-7.4,0.5-9.1-5.1c2.7,0.4,5.5,0.5,8,1.3c0.7,0.2,0.6,2.6,0.9,3.9L164.8,171.1z"/><path d="M351.3,248.9c3.1,2.4,6.1,4.7,9.2,7.1c-0.5,0.7-1.1,1.5-1.6,2.2c-3.1-2.3-6.3-4.5-9.4-6.8   C350.1,250.6,350.7,249.7,351.3,248.9z"/><path d="M164.6,171.2c3.8-0.7,7.7-1.7,10.6,2.2c-4.3,2.9-7.7,2.1-10.5-2.3C164.8,171.1,164.6,171.2,164.6,171.2z"/><path d="M394.7,271.5c-0.6-0.1-1.1-0.3-1.7-0.4c-1.8-2.1-3.7-4.2-5.5-6.3c-0.3-0.3-0.2-0.9-0.4-1.4c3.7-0.2,9.2,3.8,9.3,6.9   C396.5,270.6,395.3,271.1,394.7,271.5z"/><path d="M346.3,251.8c-3-2.3-6.1-4.7-9.1-7C342.4,243.5,345.8,246.1,346.3,251.8z"/><path d="M349.7,235.8c-1.1,0.7-2.6,2.3-3.2,2c-2.1-1.1-3.9-2.8-6.4-4.8c5.6-2.7,7.6,0.4,9.8,3L349.7,235.8z"/><path d="M350.6,242.5c3,1.9,6,3.8,9.4,5.9c-4,2.4-7.9,0.3-10.3-4.6C349.9,243.3,350.2,242.9,350.6,242.5z"/><path d="M175,166.1c-4.3,2.4-6.9,1.8-9.8-3.5c4,0.7,7,1.2,10,1.7C175.2,164.9,175.1,165.5,175,166.1z"/><path d="M337.9,229.7c-1-1.3-2-2.7-3-4c3.6-3.1,6.3-1.9,8.2,4C341.2,229.7,339.5,229.7,337.9,229.7z"/><path d="M379.1,257.2c2,1.4,3.9,2.8,5.9,4.1c-5.5,2-8.9-0.2-11.1-5.7c2.1,0.7,3.7,1.2,5.3,1.8L379.1,257.2z"/><path d="M379.3,257.4c-2.6-1.8-5.2-3.6-7.8-5.4c0.8-0.9,1.6-1.9,2.4-2.8c3,2.1,6,4.1,9,6.2c-0.2,0.4-0.4,0.8-0.7,1.2   c-1.1,0.2-2.1,0.4-3.2,0.6C379.1,257.2,379.3,257.4,379.3,257.4z"/><path d="M200.3,178.7c-0.4-0.6-0.9-1.1-1.3-1.7c1-5.7,4.7-1.8,7.2-2c0.3,0.3,0.5,0.7,0.8,1C206.4,181,202.7,178.2,200.3,178.7z"/><path d="M360.5,239.5c-0.3-1-0.5-2.1-0.8-3.1c0.3-0.4,0.7-0.7,1-1.1c2.9,2,5.7,3.9,8.6,5.9c-0.3,0.6-0.6,1.2-1,1.8   C365.7,241.8,363.1,240.6,360.5,239.5L360.5,239.5z"/><path d="M370.1,257c-2.9-1.8-5.8-3.7-8.7-5.5c0.4-0.7,0.9-1.4,1.3-2.2c2.9,1.8,5.8,3.5,8.8,5.3C371.1,255.4,370.6,256.2,370.1,257z   "/><path d="M185.5,164.5c-0.9,0.2-2,0.9-2.7,0.6c-2-0.7-3.9-1.7-5.9-2.6c0.4-0.7,0.9-1.9,1.1-1.9c2.3,0.4,4.5,0.9,6.7,1.7   C185.1,162.5,185.2,163.7,185.5,164.5C185.4,164.6,185.5,164.5,185.5,164.5z"/><path d="M360.5,239.5c-2-0.2-4.1,0-6-0.6c-1.7-0.6-3.2-2-4.8-3l0.2,0.1c1.3-0.5,3.1-1.7,3.9-1.3   C356.2,235.9,358.3,237.8,360.5,239.5L360.5,239.5z"/><path d="M352.1,230c-1.3,0.6-2.9,2-3.9,1.7c-1.5-0.5-2.7-2.2-4-3.4c0.9-0.8,2.3-2.3,2.6-2.2c1.9,1.1,3.6,2.7,5.4,4L352.1,230z"/><path d="M182.9,172.1c-2.7-0.6-5.5-1.2-9.5-2.1c5.1-3.6,6.7-3.3,9.9,0.3C183.2,170.9,183.1,171.5,182.9,172.1z"/><path d="M192.2,173.1c-0.8,1-1.6,2.9-2.3,2.9c-2.3-0.1-4.5-1-6.8-1.6c0.2-0.9,0.3-1.8,0.5-2.6C186.5,172.3,189.4,172.8,192.2,173.1   C192.3,173.2,192.2,173.1,192.2,173.1z"/><path d="M313.8,200.1c-2.7,3.2-5.3,4.5-8.5-1c3.2-0.3,5.8-0.6,8.3-0.8C313.8,198.9,313.8,199.5,313.8,200.1z"/><path d="M192.6,164.4c-1.8-1.1-3.6-2.3-5.8-3.7c3.8-3.2,6.3-1.5,9.3,0.9C194.7,162.7,193.6,163.6,192.6,164.4L192.6,164.4z"/><path d="M192.5,164.5c3.4-0.9,6.7-1.7,9.2,2.6C197.6,169,194.7,168.1,192.5,164.5C192.6,164.4,192.5,164.5,192.5,164.5z"/><path d="M362.7,242.9c2.6,1.9,5.2,3.8,7.8,5.7c-0.4,0.6-0.9,1.2-1.3,1.9c-2.7-1.8-5.3-3.6-8-5.4   C361.7,244.4,362.2,243.7,362.7,242.9z"/><path d="M249.8,184.5c2.5,0.8,5,1.5,7.5,2.3c-0.2,0.8-0.5,1.6-0.7,2.5c-2.6-0.6-5.1-1.3-7.7-1.9   C249.3,186.4,249.5,185.5,249.8,184.5z"/><path d="M352.2,230.2c-0.5-2.4,0.4-3.9,2.7-2.7c1.5,0.7,2.4,2.7,3.6,4.1c-1,0.3-2.1,1-2.8,0.8c-1.3-0.4-2.5-1.5-3.7-2.3   C352.1,230,352.2,230.2,352.2,230.2z"/><path d="M200.6,168.3c2.5,0.6,5,1.2,7.5,1.7c-0.2,0.8-0.3,1.6-0.5,2.5c-2.6-0.5-5.2-1-7.8-1.5C200.1,170.1,200.4,169.2,200.6,168.3   z"/></g></svg>