<?xml version="1.0" ?><!DOCTYPE svg  PUBLIC '-//W3C//DTD SVG 1.1//EN'  'http://www.w3.org/Graphics/SVG/1.1/DTD/svg11.dtd'><svg enable-background="new 0 0 512 512" id="Layer_1" version="1.1" viewBox="0 0 512 512" xml:space="preserve" xmlns="http://www.w3.org/2000/svg" xmlns:xlink="http://www.w3.org/1999/xlink"><g><path d="M258.9,507.2C120.4,507.9,6.6,392.6,9.9,252C12.9,118,124,7,262.3,8.7c136.6,1.7,249.4,115.4,245.8,256   C504.7,398.2,394.7,507.8,258.9,507.2z M477.8,258.2c-0.9-123-98.4-218-214.8-220.2C142.8,35.8,40.3,132.5,40.3,258   c0,122.9,98.1,217.6,214.3,219.9C375,480.3,476.7,383.6,477.8,258.2z"/><path d="M389.1,328.8c0-4.6,0-8.5,0-13c-17.2,0-34.3,0-51.6,0c0-37.2,0-73.7,0-110.6c28.1,0,56,0,84.2,0c0,49.7,0,99.3,0,149.2   c-27.8,0-55.7,0-84.1,0c0-8.2,0-16.6,0-25.6C354.7,328.8,371.8,328.8,389.1,328.8z M389,289.4c0-19.7,0-38.9,0-58.2   c-6.5,0-12.5,0-18.8,0c0,19.5,0,38.7,0,58.2C376.5,289.4,382.6,289.4,389,289.4z"/><path d="M239.9,328.8c17.1,0,33.9,0,51.2,0c0-4.3,0-8.4,0-12.9c-16.9,0-33.9,0-51.2,0c0-37.2,0-73.9,0-110.8c27.9,0,55.6,0,83.8,0   c0,49.7,0,99.3,0,149.4c-27.8,0-55.5,0-83.7,0C239.9,346.2,239.9,337.9,239.9,328.8z M291.2,289.5c0-19.8,0-39,0-58.2   c-6.5,0-12.6,0-18.9,0c0,19.5,0,38.7,0,58.2C278.6,289.5,284.7,289.5,291.2,289.5z"/><path d="M96.1,315.5c0-37,0-73.4,0-110.4c17.2,0,34.2,0,51.8,0c0-15.5,0-30.3,0-45.6c11.1,0,21.7,0,32.6,0c0,52,0,103.8,0,156   C152.4,315.5,124.5,315.5,96.1,315.5z M147.7,289.5c0-19.8,0-39,0-58.2c-6.4,0-12.5,0-18.8,0c0,19.5,0,38.7,0,58.2   C135.3,289.5,141.4,289.5,147.7,289.5z"/><path d="M226,315.5c-10.8,0-21.2,0-31.8,0c0-36.9,0-73.4,0-110.3c10.6,0,21,0,31.8,0C226,241.8,226,278.4,226,315.5z"/><path d="M194.2,159.5c10.7,0,21.1,0,31.8,0c0,10.8,0,21.3,0,32.2c-10.7,0-21.1,0-31.8,0C194.2,180.8,194.2,170.3,194.2,159.5z"/></g></svg>