<?xml version="1.0" ?><!DOCTYPE svg  PUBLIC '-//W3C//DTD SVG 1.1//EN'  'http://www.w3.org/Graphics/SVG/1.1/DTD/svg11.dtd'><svg enable-background="new 0 0 512 512" id="Layer_1" version="1.1" viewBox="0 0 512 512" xml:space="preserve" xmlns="http://www.w3.org/2000/svg" xmlns:xlink="http://www.w3.org/1999/xlink"><g><path d="M258.7,507.2C120.3,507.8,6.5,392.6,9.9,251.8C13,117.9,124,7.2,262,8.7C398.7,10.2,511.8,124,508.1,264.9   C504.6,398.3,394.5,507.9,258.7,507.2z M40.2,257.9c0.9,122.6,97.8,218.2,214.3,219.9c123.6,1.8,222.8-95.5,223.1-219.5   C477.9,135.7,380,40.3,263.2,38C143.1,35.7,41.2,132.2,40.2,257.9z"/><path d="M256.9,378.6c-19.5-0.5-39.1,0.2-58.4-1.9c-33.7-3.6-61.2-29.6-68-62.2c-1-5-1.4-10.2-1.4-15.4   c-0.1-26.8,0.3-53.7-0.1-80.5c-0.7-40.8,28.9-71.1,64.5-78.5c7.1-1.5,14.5-2,21.8-2c17.3,0,34.7-0.6,51.9,1.1   c34.7,3.3,63.4,30.8,69.4,65c0.5,3.1,0.5,6.3,0.8,9.5c0.7,10.4,6.9,16.2,17.5,16.4c4.5,0,9-0.1,13.5,0c10.2,0.3,16.7,7,16.7,17.2   c0,16.7-0.3,33.3,0.1,50c0.9,41.1-29.1,71.5-64.4,78.5c-10.5,2.1-21.5,1.8-32.3,2.2c-10.5,0.3-21,0.1-31.5,0.1   C256.9,378.2,256.9,378.4,256.9,378.6z M257.3,316.1c16,0,32,0.1,48-0.1c8.3-0.1,14.7-6.5,14.6-14c-0.1-7.3-6.4-13.8-14.3-13.8   c-32-0.2-64-0.1-95.9,0c-5.9,0-10.6,2.9-13.2,8.4c-4.4,9,2.3,19.3,13,19.5C225.3,316.3,241.3,316.1,257.3,316.1z M233.8,230.6   c7.5,0,15,0.1,22.5,0c10.2-0.1,16.9-6.2,16.8-15.1c-0.1-8.6-6.9-14.5-16.8-14.6c-15.1-0.1-30.3-0.1-45.4,0   c-9.7,0-16.7,6.4-16.8,14.8c0,8.4,7,14.7,16.7,14.9C218.5,230.7,226.2,230.6,233.8,230.6z"/></g></svg>