<?xml version="1.0" ?><!DOCTYPE svg  PUBLIC '-//W3C//DTD SVG 1.1//EN'  'http://www.w3.org/Graphics/SVG/1.1/DTD/svg11.dtd'><svg enable-background="new 0 0 512 512" id="Layer_1" version="1.1" viewBox="0 0 512 512" xml:space="preserve" xmlns="http://www.w3.org/2000/svg" xmlns:xlink="http://www.w3.org/1999/xlink"><g><path d="M258.9,507.2C120.4,507.9,6.7,392.6,9.9,252C12.9,118.1,124,7,262.3,8.7c136.6,1.7,249.4,115.4,245.8,256   C504.7,398.1,394.7,507.8,258.9,507.2z M477.8,258.1c-1-123.5-99.1-218.2-215.4-220.1c-119.9-1.9-222.1,94.8-222,220.2   c0.1,123.6,99.2,218.1,215.4,219.8C375.4,479.7,476.8,383.3,477.8,258.1z"/><path d="M144.8,426.2c1.6-8.3,3.2-16.4,5-25.3c-13.3,0-26.3,0-40,0c0.8-4.4,1.4-8,2.1-11.5c7.8-36,15.7-71.9,23.5-107.9   c8.1-37.3,16.2-74.5,24.2-111.8c6.4-29.4,12.7-58.9,18.8-88.4c0.9-4.1,2.3-5.7,6.8-5.6c38.2,0.2,76.3-0.2,114.5,0.4   c19.8,0.3,39.6,2,58.6,8.7c27.1,9.6,46.6,27,52.6,55.8c4.5,21.5,11.6,42.5,10.4,65.3c-2.6,50.6-32.4,88.7-76.7,106.8   c-25.9,10.6-53,13.8-80.8,13.6c-2.5,0-5,0-7.5,0c-13.3,0-12.9,0.1-15.4,13.2c-5.3,27.8-11.2,55.5-16.7,83.3   c-0.5,2.7-1.5,3.9-4.5,3.9c-24-0.1-48-0.1-72-0.1C147,426.7,146.2,426.4,144.8,426.2z M121.9,390.7c21.6,0,42.6,0.1,63.5-0.1   c1.1,0,2.8-2,3.2-3.3c1.6-6.1,2.8-12.3,4.2-18.5c5.4-25.1,11-50.1,16.1-75.2c0.9-4.3,2.4-5.5,6.8-5.6c21.8-0.4,43.7-0.3,65.4-2.3   c26.5-2.5,51.6-10.3,73.8-25.5c40.6-27.7,53.7-66.5,47.9-110.6c-3.5-26.7-19.8-44.3-44.7-54c-13.2-5.1-27-8-41-8.3   c-42-0.8-83.9-1-125.9-1.2c-1.3,0-3.4,1.9-3.8,3.2c-1.5,5.4-2.5,11-3.7,16.5c-7.7,35.5-15.5,70.9-23.2,106.4   c-8.6,39.9-17.1,79.7-25.7,119.6C130.6,351.1,126.3,370.5,121.9,390.7z M215.7,416.9c0.4-2,0.9-3.7,1.2-5.5   c6-29.7,12-59.4,17.9-89.1c0.8-4.2,2.4-5.6,6.8-5.5c23.1,0.1,46.3,0.7,69.2-3.9c33.7-6.7,62.5-21.5,82.6-50.3   c13.5-19.4,18.4-41.3,18-64.6c-0.9,1.4-1.2,3-1.9,4.4c-4.5,10.2-7.8,21-13.8,30.3c-21.3,33.2-53.4,50.4-90.8,59.2   c-26.2,6.2-52.8,6.7-79.5,6.4c-8-0.1-6.8-1.8-8.7,7.2c-6.6,30.2-13.1,60.5-19.5,90.8c-0.7,3.5-2,4.6-5.6,4.6   c-9.3-0.2-18.7-0.1-28,0c-1.5,0-3.9,0.6-4.2,1.5c-1.4,4.7-2.2,9.5-3.3,14.7C176.7,416.9,196.1,416.9,215.7,416.9z"/><path d="M243.7,133.8c19.5,1.2,38.9,1.3,57.9,3.8c14.7,2,26.2,10.8,29.7,26.1c5.6,25-3.2,51.4-28.5,64.9   c-13.6,7.2-28.2,9.9-43.3,10.4c-12.6,0.4-25.3,0.1-38.5,0.1C228.5,204.1,235.9,169.8,243.7,133.8z"/></g></svg>