<?xml version="1.0" ?><!DOCTYPE svg  PUBLIC '-//W3C//DTD SVG 1.1//EN'  'http://www.w3.org/Graphics/SVG/1.1/DTD/svg11.dtd'><svg height="100%" style="fill-rule:evenodd;clip-rule:evenodd;stroke-linejoin:round;stroke-miterlimit:1.41421;" version="1.1" viewBox="0 0 101 126" width="100%" xml:space="preserve" xmlns="http://www.w3.org/2000/svg" xmlns:serif="http://www.serif.com/" xmlns:xlink="http://www.w3.org/1999/xlink"><path d="M79.891,69.848l0,-10.1c0,-13 -8.4,-24 -20,-27.8l0,-4.1c0,-4.4 -3.6,-8 -8,-8l-2,0c-4.4,0 -8,3.6 -8,8l0,4.1c-11.6,3.8 -20,14.9 -20,27.8l0,10.1l-2,0c-4.4,0 -8,3.6 -8,8l0,7c0,4.4 3.6,8 8,8l19.5,0l0,2.5c0,6.3 5.2,11.5 11.5,11.5c6.3,0 11.5,-5.2 11.5,-11.5l0,-2.5l19.5,0c4.4,0 8,-3.6 8,-8l0,-7c0,-4.4 -3.6,-8 -8,-8l-2,0Zm-30,-42l2,0l0,2.7l-2,0l0,-2.7Zm4.5,67.5c0,1.9 -1.6,3.5 -3.5,3.5c-1.9,0 -3.5,-1.6 -3.5,-3.5l0,-2.5l7,0l0,2.5Z" style="fill:#ffcb15;fill-rule:nonzero;"/><clipPath id="_clip1"><path clip-rule="nonzero" d="M79.891,69.848l0,-10.1c0,-13 -8.4,-24 -20,-27.8l0,-4.1c0,-4.4 -3.6,-8 -8,-8l-2,0c-4.4,0 -8,3.6 -8,8l0,4.1c-11.6,3.8 -20,14.9 -20,27.8l0,10.1l-2,0c-4.4,0 -8,3.6 -8,8l0,7c0,4.4 3.6,8 8,8l19.5,0l0,2.5c0,6.3 5.2,11.5 11.5,11.5c6.3,0 11.5,-5.2 11.5,-11.5l0,-2.5l19.5,0c4.4,0 8,-3.6 8,-8l0,-7c0,-4.4 -3.6,-8 -8,-8l-2,0Zm-30,-42l2,0l0,2.7l-2,0l0,-2.7Zm4.5,67.5c0,1.9 -1.6,3.5 -3.5,3.5c-1.9,0 -3.5,-1.6 -3.5,-3.5l0,-2.5l7,0l0,2.5Z"/></clipPath><g clip-path="url(#_clip1)"><rect height="50" style="fill:#020000;fill-opacity:0.25;" width="45" x="50.891" y="19.848"/><rect height="23" style="fill:#020000;fill-opacity:0.5;" width="41" x="50.891" y="69.848"/><rect height="23" style="fill:#020000;fill-opacity:0.25;" width="41" x="9.891" y="69.848"/><rect height="15.6" style="fill:#020000;fill-opacity:0.728184;" width="12.812" x="50.891" y="92.848"/><rect height="15.6" style="fill:#020000;fill-opacity:0.5;" width="12.813" x="38.079" y="92.848"/></g><path d="M37.015,36.548l-0.166,1.606c-4.617,2.979 -7.654,7.164 -10.636,11.392c1.872,-5.047 6.257,-10.29 10.802,-12.998Z" style="fill:#fff;fill-opacity:0.5;"/><path d="M15.964,73.548l0,15.977c-1.217,-1.206 -2,-3.054 -2,-5.116l0,-5.746c0,-2.062 0.783,-3.91 2,-5.115Z" style="fill:#fff;fill-opacity:0.25;"/></svg>