<?xml version="1.0" ?><!DOCTYPE svg  PUBLIC '-//W3C//DTD SVG 1.1//EN'  'http://www.w3.org/Graphics/SVG/1.1/DTD/svg11.dtd'><svg height="100%" style="fill-rule:evenodd;clip-rule:evenodd;stroke-linejoin:round;stroke-miterlimit:1.41421;" version="1.1" viewBox="0 0 101 125" width="100%" xml:space="preserve" xmlns="http://www.w3.org/2000/svg" xmlns:serif="http://www.serif.com/" xmlns:xlink="http://www.w3.org/1999/xlink"><path d="M82.944,38.349c-1.6,-3.3 -4.9,-5.3 -8.6,-5.3l-47.5,0c-3.7,0 -6.9,2 -8.6,5.3l-9.2,18.6c-0.3,0.6 -0.5,1.2 -0.5,1.8l0,25.2c0,4.4 3.6,8 8,8l68.2,0c4.4,0 8,-3.6 8,-8l0,-25.1c0,-0.7 -0.2,-1.3 -0.5,-1.8l-9.3,-18.7Z" style="fill:#ff6d0b;fill-rule:nonzero;"/><clipPath id="_clip1"><path clip-rule="nonzero" d="M82.944,38.349c-1.6,-3.3 -4.9,-5.3 -8.6,-5.3l-47.5,0c-3.7,0 -6.9,2 -8.6,5.3l-9.2,18.6c-0.3,0.6 -0.5,1.2 -0.5,1.8l0,25.2c0,4.4 3.6,8 8,8l68.2,0c4.4,0 8,-3.6 8,-8l0,-25.1c0,-0.7 -0.2,-1.3 -0.5,-1.8l-9.3,-18.7Z"/></clipPath><g clip-path="url(#_clip1)"><path d="M94.144,30.999l-87,0l0.5,26.675l87,0l-0.5,-26.675Z" style="fill:#c05208;"/></g><path d="M82.144,54.849l-6.4,-12.9c-0.3,-0.6 -0.8,-0.9 -1.4,-0.9l-47.5,0c-0.6,0 -1.1,0.4 -1.4,0.9l-6.4,12.9l15.3,0c1.9,0 3.5,1.3 3.9,3.2c0.2,1.1 2.5,10.4 12.4,10.4c10.2,0 12.3,-10 12.4,-10.4c0.394,-1.873 1.955,-3.163 3.9,-3.2l15.2,0Z" style="fill:#813706;"/><path d="M11.398,60.829l9.041,0l-6.315,2.074l-2.814,23.966l0.088,-26.04Z" style="fill:#fff;fill-opacity:0.5;"/><path d="M89.828,60.829l-9.04,0l6.315,2.074l2.756,6.966l-0.031,-9.04Z" style="fill:#fff;fill-opacity:0.5;"/></svg>