<?xml version="1.0" ?><!DOCTYPE svg  PUBLIC '-//W3C//DTD SVG 1.1//EN'  'http://www.w3.org/Graphics/SVG/1.1/DTD/svg11.dtd'><svg height="100%" style="fill-rule:evenodd;clip-rule:evenodd;stroke-linejoin:round;stroke-miterlimit:1.41421;" version="1.1" viewBox="0 0 101 125" width="100%" xml:space="preserve" xmlns="http://www.w3.org/2000/svg" xmlns:serif="http://www.serif.com/" xmlns:xlink="http://www.w3.org/1999/xlink"><g><path d="M9.491,49.149l0,35.7c0,5.2 4.2,9.4 9.4,9.4l64,0c5.2,0 9.4,-4.2 9.4,-9.4l0,-35.7c0,-5.2 -4.2,-9.4 -9.4,-9.4l-13.6,0l-1.3,-5c-0.6,-2.3 -2.7,-4 -5.2,-4l-23.8,0c-2.4,0 -4.5,1.6 -5.2,4l-1.3,5l-13.6,0c-5.2,0 -9.4,4.2 -9.4,9.4Z" style="fill:#404040;fill-rule:nonzero;"/><clipPath id="_clip1"><path clip-rule="nonzero" d="M9.491,49.149l0,35.7c0,5.2 4.2,9.4 9.4,9.4l64,0c5.2,0 9.4,-4.2 9.4,-9.4l0,-35.7c0,-5.2 -4.2,-9.4 -9.4,-9.4l-13.6,0l-1.3,-5c-0.6,-2.3 -2.7,-4 -5.2,-4l-23.8,0c-2.4,0 -4.5,1.6 -5.2,4l-1.3,5l-13.6,0c-5.2,0 -9.4,4.2 -9.4,9.4Z"/></clipPath><g clip-path="url(#_clip1)"><rect height="54.5" style="fill:#020000;fill-opacity:0.25;" width="41.4" x="50.891" y="39.749"/><rect height="21" style="fill:#020000;fill-opacity:0.5;" width="25" x="25.891" y="18.749"/><rect height="21" style="fill:#020000;fill-opacity:0.75;" width="25" x="50.891" y="18.749"/></g><circle cx="50.891" cy="65.649" r="18" style="fill:#212020;"/><clipPath id="_clip2"><circle cx="50.891" cy="65.649" r="18"/></clipPath><g clip-path="url(#_clip2)"><path d="M50.891,47.649c9.9,0 18,8.1 18,18c0,9.9 -8.1,18 -18,18l0,-36Z" style="fill:#020000;fill-opacity:0.75;"/></g></g><path d="M20.727,43.133c0,0 -1.05,0 -2.26,0c-2.175,0 -4.148,1.272 -5.047,3.252c-0.384,0.847 -0.693,1.527 -0.693,1.527l8,-4.779Z" style="fill:#fff;fill-opacity:0.5;fill-rule:nonzero;"/><path d="M18.031,89.328c-2.538,-0.009 -4.59,-2.068 -4.59,-4.606c0,-5.169 0,-12.854 0,-12.854c0,0 0.668,5.477 1.198,9.819c0.393,3.213 2.51,5.955 5.52,7.145c0.751,0.297 1.282,0.507 1.282,0.507c0,0 -1.625,-0.005 -3.41,-0.011Z" style="fill:#fff;fill-opacity:0.5;"/></svg>