<?xml version="1.0" ?><!DOCTYPE svg  PUBLIC '-//W3C//DTD SVG 1.1//EN'  'http://www.w3.org/Graphics/SVG/1.1/DTD/svg11.dtd'><svg height="100%" style="fill-rule:evenodd;clip-rule:evenodd;stroke-linejoin:round;stroke-miterlimit:1.41421;" version="1.1" viewBox="0 0 101 125" width="100%" xml:space="preserve" xmlns="http://www.w3.org/2000/svg" xmlns:serif="http://www.serif.com/" xmlns:xlink="http://www.w3.org/1999/xlink"><g><path d="M72.191,103.199c4.3,0 7.9,-3.4 8,-7.7l1.8,-55.2l5.6,0l0,-8l-19.1,0l0,-2.3c0,-4.5 -3.7,-8.2 -8.2,-8.2l-18.8,0c-4.5,0 -8.2,3.7 -8.2,8.2l0,2.3l-19.1,0l0,8l5.6,0l1.8,55.2c0.1,4.3 3.7,7.7 8,7.7l42.6,0Zm-30.9,-73.2c0,-0.1 0.1,-0.2 0.2,-0.2l18.8,0c0.1,0 0.2,0.1 0.2,0.2l0,2.3l-19.2,0l0,-2.3Z" style="fill:#ccc;fill-rule:nonzero;"/><clipPath id="_clip1"><path clip-rule="nonzero" d="M72.191,103.199c4.3,0 7.9,-3.4 8,-7.7l1.8,-55.2l5.6,0l0,-8l-19.1,0l0,-2.3c0,-4.5 -3.7,-8.2 -8.2,-8.2l-18.8,0c-4.5,0 -8.2,3.7 -8.2,8.2l0,2.3l-19.1,0l0,8l5.6,0l1.8,55.2c0.1,4.3 3.7,7.7 8,7.7l42.6,0Zm-30.9,-73.2c0,-0.1 0.1,-0.2 0.2,-0.2l18.8,0c0.1,0 0.2,0.1 0.2,0.2l0,2.3l-19.2,0l0,-2.3Z"/></clipPath><g clip-path="url(#_clip1)"><rect height="8.03" style="fill:#676666;fill-opacity:0.75;" width="36.7" x="50.891" y="32.299"/><rect height="62.87" style="fill:#9a9a9a;" width="36.7" x="50.891" y="40.329"/><rect height="8.03" style="fill:#9a9a9a;fill-opacity:0.5;" width="36.7" x="14.191" y="32.299"/><rect height="11" style="fill:#353333;" width="18" x="50.891" y="21.299"/><rect height="11" style="fill:#676666;fill-opacity:0.75;" width="18" x="32.891" y="21.299"/></g><rect height="29.9" style="fill:#676666;" width="8" x="46.891" y="52.499"/><rect height="29.9" style="fill:#020000;fill-opacity:0.5;" width="4" x="50.891" y="52.499"/><rect height="29.9" style="fill:#020000;fill-opacity:0.5;" width="8" x="34.891" y="52.499"/><rect height="29.9" style="fill:#353333;" width="8" x="58.891" y="52.499"/></g><path d="M15.731,38.369l0.079,-4.04l2.631,0l-2.71,4.04Z" style="fill:#fff;fill-opacity:0.25;fill-rule:nonzero;"/><path d="M24.441,88.685l-1.316,-45.041l2.631,0l-1.315,45.041Z" style="fill:#fff;fill-opacity:0.5;fill-rule:nonzero;"/><path d="M28.144,99.414c-2.047,-0.007 -3.703,-1.669 -3.703,-3.717c0,-1.699 0,-3.343 0,-3.343c0,0 0.382,1.163 0.774,2.359c0.534,1.624 1.762,2.927 3.351,3.556c1.423,0.563 2.922,1.156 2.922,1.156c0,0 -1.644,-0.006 -3.344,-0.011Z" style="fill:#fff;fill-opacity:0.5;"/></svg>