<?xml version="1.0" ?><svg id="icons" viewBox="0 0 480 480" xmlns="http://www.w3.org/2000/svg"><defs><style>.cls-1{fill:#64898d;}.cls-2{fill:#89adaf;}.cls-3{fill:#b16a1a;}.cls-4{fill:#fbb03b;}.cls-5{fill:#ffc578;}.cls-6{fill:#c98123;}.cls-7{fill:#66c8be;}.cls-8{fill:#ba0000;}</style></defs><title/><path class="cls-1" d="M299.67,175.47c-3.14-3.5-4.75-8.15-7.84-11.7a16.82,16.82,0,0,0-7.23-4.8c5.93-2.25,13.06,0,17.23,4.8,3.09,3.55,4.7,8.2,7.84,11.7a11.87,11.87,0,0,0,2.47,2.06l-.05.06C308.75,180.91,302.81,179,299.67,175.47Z"/><path class="cls-1" d="M258.59,238.71l.78.06-.72.06Z"/><path class="cls-1" d="M296.78,119.39c-5.94-2.74-11.55-6.32-17.84-8.13-.65-.19-1.32-.35-2-.49a24,24,0,0,1,12,.49c6.29,1.8,11.9,5.38,17.84,8.13a41.81,41.81,0,0,0,8.7,3C309.25,124,302.62,122.09,296.78,119.39Z"/><path class="cls-1" d="M323.28,204a133.89,133.89,0,0,0,15.17-85c-3.09-19.81-18-51.93-33.78-58,18.91-8.05,40,34,43.78,58A132.73,132.73,0,0,1,269,261.73l-1.75-3.87A134,134,0,0,0,323.28,204Z"/><path class="cls-2" d="M259.37,238.78a59.05,59.05,0,0,0,31-5.8c7.55-3.71,14.5-9.36,17.9-17.06s2.49-17.63-3.64-23.39c-8.29-7.79-24.19-7.36-27.8-18.15-2-6,1.85-13.13,7.79-15.4h0a16.82,16.82,0,0,1,7.23,4.8c3.09,3.55,4.7,8.2,7.84,11.7s9.07,5.43,12.41,2.12l.05-.06c3.2,2,7.35,2.63,9.95.06a9.9,9.9,0,0,0,2.37-5.24c2.69-13.51-4.75-28.39-17.18-34.35-9.22-4.42-19.88-4.07-30-5.19a15.87,15.87,0,0,1-6.61-1.8c-5.59-3.4-5.14-12.53-.27-16.9a15,15,0,0,1,6.59-3.35c.67.14,1.34.3,2,.49,6.29,1.8,11.9,5.38,17.84,8.13s12.48,4.61,18.7,3a21.57,21.57,0,0,0,10.3-.07c7.78-3,1-21.23-4.8-29.84-6.85-10.13-29.22-21.8-17.52-30.89.4-.22.81-.41,1.22-.58,15.75,6.08,30.69,38.2,33.78,58a132.63,132.63,0,0,1-71.18,138.83l-8.61-19Z"/><path class="cls-1" d="M180.33,175.47c3.14-3.5,4.75-8.15,7.84-11.7a16.82,16.82,0,0,1,7.23-4.8c-5.93-2.25-13.06,0-17.23,4.8-3.09,3.55-4.7,8.2-7.84,11.7a11.87,11.87,0,0,1-2.47,2.06l.05.06C171.25,180.91,177.19,179,180.33,175.47Z"/><path class="cls-1" d="M221.41,238.71l-.78.06.72.06Z"/><path class="cls-1" d="M183.22,119.39c5.94-2.74,11.55-6.32,17.84-8.13.65-.19,1.32-.35,2-.49a24,24,0,0,0-12,.49c-6.29,1.8-11.9,5.38-17.84,8.13a41.81,41.81,0,0,1-8.7,3C170.75,124,177.38,122.09,183.22,119.39Z"/><path class="cls-1" d="M156.72,204a133.89,133.89,0,0,1-15.17-85c3.09-19.81,18-51.93,33.78-58-18.91-8.05-40,34-43.78,58A132.73,132.73,0,0,0,211,261.73l1.75-3.87A134,134,0,0,1,156.72,204Z"/><path class="cls-2" d="M220.63,238.78a59.05,59.05,0,0,1-31-5.8c-7.55-3.71-14.5-9.36-17.9-17.06s-2.49-17.63,3.64-23.39c8.29-7.79,24.19-7.36,27.8-18.15,2-6-1.85-13.13-7.79-15.4h0a16.82,16.82,0,0,0-7.23,4.8c-3.09,3.55-4.7,8.2-7.84,11.7s-9.07,5.43-12.41,2.12l-.05-.06c-3.2,2-7.35,2.63-9.95.06a9.9,9.9,0,0,1-2.37-5.24c-2.69-13.51,4.75-28.39,17.18-34.35,9.22-4.42,19.88-4.07,30-5.19a15.87,15.87,0,0,0,6.61-1.8c5.59-3.4,5.14-12.53.27-16.9a15,15,0,0,0-6.59-3.35c-.67.14-1.34.3-2,.49-6.29,1.8-11.9,5.38-17.84,8.13s-12.48,4.61-18.7,3a21.57,21.57,0,0,1-10.3-.07c-7.78-3-1-21.23,4.8-29.84,6.85-10.13,29.22-21.8,17.52-30.89-.4-.22-.81-.41-1.22-.58-15.75,6.08-30.69,38.2-33.78,58a132.63,132.63,0,0,0,71.18,138.83l8.61-19Z"/><path class="cls-3" d="M302.81,270.34a44,44,0,0,0,27.8-.81c18.13-6.69,29.61-24.25,45-36a2.35,2.35,0,0,0,1.07-1.35,2.28,2.28,0,0,0-.92-1.81C366.27,221,353,216.1,339.78,215.09c-7.93-.61-16.2.17-23.21,3.93s-12.54,10.9-12.8,18.85"/><path class="cls-4" d="M302.81,263.63a33,33,0,0,0,20.83-.61c13.59-5,22.19-18.18,33.7-27a1.76,1.76,0,0,0,.8-1,1.71,1.71,0,0,0-.69-1.36c-7.09-7-17-10.7-26.94-11.46-5.94-.46-12.14.13-17.39,2.94s-9.4,8.17-9.6,14.13"/><path class="cls-3" d="M177.19,270.34a44,44,0,0,1-27.8-.81c-18.13-6.69-29.61-24.25-45-36a2.35,2.35,0,0,1-1.07-1.35,2.28,2.28,0,0,1,.92-1.81c9.46-9.34,22.69-14.28,35.94-15.29,7.93-.61,16.2.17,23.21,3.93s12.54,10.9,12.8,18.85"/><path class="cls-4" d="M177.19,263.63a33,33,0,0,1-20.83-.61c-13.59-5-22.19-18.18-33.7-27a1.76,1.76,0,0,1-.8-1,1.71,1.71,0,0,1,.69-1.36c7.09-7,17-10.7,26.94-11.46,5.94-.46,12.14.13,17.39,2.94s9.4,8.17,9.6,14.13"/><path class="cls-5" d="M166.76,284.55a86.56,86.56,0,0,1,79.89-86.3q-3.3-.25-6.66-.25a86.55,86.55,0,0,0-86.55,86.55c0,47.8,38.75,113.88,86.55,113.88q3.36,0,6.66-.25C202,394.78,166.76,330.11,166.76,284.55Z"/><path class="cls-4" d="M166.76,284.55c0,45.56,35.2,110.23,79.89,113.63,24-1.82,36.08-13.41,50.63-30.78L186.8,229.18A86.19,86.19,0,0,0,166.76,284.55Z"/><path class="cls-6" d="M246.66,198.25a86.38,86.38,0,0,0-59.86,30.92L297.29,367.4c12.58-15,29.27-61.72,29.27-82.85A86.56,86.56,0,0,0,246.66,198.25Z"/><path class="cls-1" d="M284.11,292.39c0,5.73-5.26-2.08-10.38-2.08-4.09,0-10.38,7.81-10.38,2.08a10.38,10.38,0,1,1,20.76,0Z"/><path class="cls-7" d="M216.65,292.39c0,5.73-5.26-2.08-10.38-2.08-4.09,0-10.38,7.81-10.38,2.08a10.38,10.38,0,1,1,20.76,0Z"/><path class="cls-5" d="M186.52,341.62C197.93,329.24,217.9,321,240.64,321c3,0,5.95.15,8.84.43,1.11.11,2.2.24,3.29.38a86.83,86.83,0,0,1,9.41,1.79l-9.41-11.79c-1.09-.14-2.18-.27-3.29-.38-2.89-.28-5.84-.43-8.84-.43-22.74,0-42.7,8.21-54.11,20.59a57.23,57.23,0,0,0-6.31,10.47,32.29,32.29,0,0,0-3,13.53,31.45,31.45,0,0,0,.41,5,33.12,33.12,0,0,1,2.61-8.54A57.23,57.23,0,0,1,186.52,341.62Z"/><path class="cls-3" d="M304.44,360.61a31.31,31.31,0,0,0,.42-5c0-21.74-22.43-39.84-52.09-43.78l9.41,11.79C284.87,329.23,301.67,343.44,304.44,360.61Z"/><path class="cls-4" d="M212.74,395.51a83.05,83.05,0,0,0,12.35,3.22l.14.17a91.43,91.43,0,0,0,15.41,1.3c23.25,0,43.62-8.58,54.89-21.43a41.07,41.07,0,0,0,5-7.06l-38.37-48.08a86.83,86.83,0,0,0-9.41-1.79c-1.09-.14-2.18-.27-3.29-.38-2.89-.28-5.84-.43-8.84-.43-22.74,0-42.7,8.21-54.11,20.59a57.23,57.23,0,0,0-6.31,10.47,33.12,33.12,0,0,0-2.61,8.54C180.07,375.94,193.71,388.9,212.74,395.51Z"/><path class="cls-6" d="M262.17,323.62l38.37,48.08a33.77,33.77,0,0,0,3.9-11.1C301.67,343.44,284.87,329.23,262.17,323.62Z"/><path class="cls-1" d="M240.53,380c-12.62,0-24.37-6.38-32.37-17.61a2.73,2.73,0,1,1,4.45-3.17c7.11,10,17.53,15.58,28.66,15.3,10.48-.24,20-5.78,26-15.2a2.73,2.73,0,0,1,4.6,3c-7.06,11-18.18,17.42-30.51,17.71Z"/><path class="cls-1" d="M240,380.13a2.73,2.73,0,0,1-2.73-2.73V337.69a2.73,2.73,0,1,1,5.47,0V377.4A2.73,2.73,0,0,1,240,380.13Z"/><ellipse class="cls-8" cx="240" cy="346.8" rx="19.41" ry="14.01"/></svg>