<?xml version="1.0" ?><svg id="icons" viewBox="0 0 480 480" xmlns="http://www.w3.org/2000/svg"><defs><style>.cls-1{fill:#7dd6ea;}.cls-2{fill:#97e9ff;}.cls-3{fill:#d2f5ff;}.cls-4{fill:#abe9ff;}.cls-5{fill:#fcdbd6;}.cls-6{fill:#fff;}.cls-7{fill:#ffc578;}.cls-8{fill:#fbb03b;}.cls-9{fill:#f9d0c7;}.cls-10{fill:#f4afa4;}.cls-11{fill:#b16a1a;}.cls-12{fill:#950000;}.cls-13{fill:#64898d;}.cls-14{fill:#66c8be;}</style></defs><title/><path class="cls-1" d="M360,290.44c-14-56.45-67.47-73-98.09-50.27C289,204,354.27,217.15,370,280.44c0,0,10,39.56,50,69.74,0,0-4.23,12.6-12.68,15.87a38.51,38.51,0,0,0,2.68-5.87C370,330,360,290.44,360,290.44Z"/><path class="cls-2" d="M261.91,240.17C292.53,217.41,346,234,360,290.44c0,0,10,39.56,50,69.74a38.51,38.51,0,0,1-2.68,5.87c-4.55,1.76-10.32.81-17.32-6.26,4,6,6,11.66,6.47,16.56.94,9.45-3.76,16.21-10.67,18-7.46,1.94-17.49-1.88-25.8-14.35,2,7.89,1.16,14.22-1.85,19.23a24.51,24.51,0,0,1-9.21,8.55c-19.57,11.08-59.87,8.76-98.94,1.77V280.44C250,263.39,254.56,250,261.91,240.17Z"/><path class="cls-3" d="M120,290.44c14-56.45,67.47-73,98.09-50.27C191,204,125.73,217.15,110,280.44c0,0-10,39.56-50,69.74,0,0,4.23,12.6,12.68,15.87A38.51,38.51,0,0,1,70,360.18C110,330,120,290.44,120,290.44Z"/><path class="cls-4" d="M218.09,240.17C187.47,217.41,134,234,120,290.44c0,0-10,39.56-50,69.74A38.51,38.51,0,0,0,72.68,366c4.55,1.76,10.32.81,17.32-6.26-4,6-6,11.66-6.47,16.56-.94,9.45,3.76,16.21,10.67,18,7.46,1.94,17.49-1.88,25.8-14.35-2,7.89-1.16,14.22,1.85,19.23a24.51,24.51,0,0,0,9.21,8.55c19.57,11.08,59.87,8.76,98.94,1.77V280.44C230,263.39,225.44,250,218.09,240.17Z"/><path class="cls-5" d="M240.7,60.55l1.05-.16c1.07-.14,2.16-.25,3.25-.33q-2.48-.19-5-.19s.05.27.17.76Z"/><path class="cls-6" d="M142,345A115,115,0,0,1,248.14,230.34q-4.38-.33-8.85-.34a115,115,0,0,0-115,115v75H142Z"/><path class="cls-3" d="M142,345v75H329.23L168.61,271.42A114.53,114.53,0,0,0,142,345Z"/><path class="cls-4" d="M248.14,230.34a114.77,114.77,0,0,0-79.53,41.09L329.2,420l25.1,0V345A115,115,0,0,0,248.14,230.34Z"/><path class="cls-6" d="M240.41,344.52a1.55,1.55,0,0,0-.34,1.51l3.18,10.27a1.55,1.55,0,0,0,1.14,1.05l10.48,2.38a1.55,1.55,0,0,0,1.48-.46l3.65-3.94-15.94-14.77Zm8.39,10.66-2.86-.65-.87-2.8,4.85-1.5Zm7.87-.81-2,2.15-2.86-.65,1.12-4.95Zm-12.51-5.6-.87-2.8,2-2.15,3.72,3.45Z"/><path class="cls-6" d="M257.86,366.79l-9.55-2.17-.06,0h-.06l-9.55-2.17-5.83-18.83,6.66-7.19,0,0-25-23.2a1.55,1.55,0,0,0,.08,2.19l4.07,3.77-9.42.36a1.55,1.55,0,0,0,.12,3.1l12.52-.48,3.61,3.35-9.42.36a1.55,1.55,0,1,0,.12,3.1l12.52-.48,7.5,6.95-6.25,6.75a1.55,1.55,0,0,0-.34,1.51l2.72,8.79-9.76,3-11.08-5.84a1.55,1.55,0,0,0-1.45,2.75l8.33,4.4-4.7,1.45-11.08-5.84a1.55,1.55,0,0,0-1.45,2.75l8.33,4.4-5.32,1.64a1.55,1.55,0,0,0,.92,3l5.32-1.64L206,370.8a1.55,1.55,0,1,0,2.75,1.45l5.84-11.08,4.7-1.45-4.4,8.33a1.55,1.55,0,1,0,2.75,1.45l5.84-11.08,9.76-3,2.72,8.79a1.55,1.55,0,0,0,1.14,1.05l9,2-2.27,10-10.6,6.67a1.55,1.55,0,1,0,1.65,2.63l8-5-1.09,4.8L231.12,393a1.55,1.55,0,1,0,1.65,2.63l8-5L239.51,396a1.55,1.55,0,1,0,3,.69l1.23-5.42,5,8a1.55,1.55,0,1,0,2.63-1.65L244.74,387l1.09-4.8,5,8a1.55,1.55,0,1,0,2.63-1.65l-6.67-10.6,2.27-10,9,2a1.55,1.55,0,0,0,1.48-.46l6.25-6.75,7.5,6.95.48,12.52a1.55,1.55,0,1,0,3.1-.12l-.36-9.42,3.61,3.35.48,12.52a1.55,1.55,0,1,0,3.1-.12l-.36-9.42,4.08,3.78a1.55,1.55,0,0,0,2.19-.08l-25-23.2Z"/><path class="cls-3" d="M244.07,340.57,260,355.34l3.65-3.94a1.55,1.55,0,0,0,.34-1.51l-3.18-10.27a1.55,1.55,0,0,0-1.14-1.05l-10.48-2.38a1.55,1.55,0,0,0-1.48.46Zm10.08,5.11,1.12-4.95,2.86.65.87,2.8Zm.92,3,4.85-1.5.87,2.8-2,2.15ZM251.12,345l-3.72-3.45,2-2.15,2.86.65Z"/><path class="cls-3" d="M271.26,352.33,268.36,343l0-.06s0,0,0-.06l-2.89-9.36-19.22-4.37-6.66,7.19,0,0-25-23.2a1.55,1.55,0,0,1,2.19-.08l4.07,3.77-.36-9.42a1.55,1.55,0,0,1,3.1-.12l.48,12.52,3.61,3.35-.36-9.42a1.55,1.55,0,1,1,3.1-.12l.48,12.52,7.5,6.95,6.25-6.75a1.55,1.55,0,0,1,1.48-.46l9,2,2.27-10-6.67-10.6a1.55,1.55,0,0,1,2.63-1.65l5,8,1.09-4.8-6.67-10.6a1.55,1.55,0,0,1,2.63-1.65l5,8,1.23-5.43a1.55,1.55,0,0,1,3,.69l-1.23,5.43,8-5a1.55,1.55,0,1,1,1.65,2.63l-10.6,6.67-1.09,4.8,8-5a1.55,1.55,0,1,1,1.65,2.63l-10.6,6.67-2.27,10,9,2a1.55,1.55,0,0,1,1.14,1.05l2.72,8.79,9.76-3,5.84-11.08a1.55,1.55,0,1,1,2.75,1.45l-4.4,8.33,4.7-1.45,5.84-11.08a1.55,1.55,0,1,1,2.75,1.45l-4.4,8.33L299,331.8a1.55,1.55,0,1,1,.92,3l-5.31,1.64,8.33,4.4a1.55,1.55,0,1,1-1.45,2.75l-11.08-5.84-4.7,1.45,8.33,4.4a1.55,1.55,0,1,1-1.45,2.75l-11.08-5.84-9.76,3,2.72,8.79a1.55,1.55,0,0,1-.34,1.51l-6.25,6.75,7.5,6.95,12.52-.48a1.55,1.55,0,1,1,.12,3.1l-9.42.36,3.61,3.35,12.52-.48a1.55,1.55,0,1,1,.12,3.1l-9.42.36,4.08,3.78a1.55,1.55,0,0,1,.08,2.19l-25-23.2Z"/><path class="cls-7" d="M180,72.13c0-6.25,30.54-11.4,70-12.16q-4.92-.09-10-.1c-44.18,0-80,5.49-80,12.26s35.82,12.26,80,12.26q5.08,0,10-.1C210.54,83.54,180,78.38,180,72.13Z"/><path class="cls-8" d="M260,59.87q-5.08,0-10,.1c-39.46.75-70,5.91-70,12.16s30.54,11.4,70,12.16q4.92.09,10,.1c44.18,0,80-5.49,80-12.26S304.18,59.87,260,59.87Zm-10,3.19c28.37.73,50,4.51,50,9.06s-21.63,8.33-50,9.06c-28.37-.73-50-4.51-50-9.06S221.63,63.8,250,63.07Z"/><path class="cls-7" d="M245.77,100.09q-2.86-.22-5.77-.22s-.07.33-.21.94C241.76,100.5,243.75,100.25,245.77,100.09Z"/><path class="cls-5" d="M176.49,174.94a75.07,75.07,0,0,1,69.29-74.84q-2.86-.22-5.77-.22A75.06,75.06,0,0,0,240,250q2.91,0,5.77-.22A75.07,75.07,0,0,1,176.49,174.94Z"/><path class="cls-9" d="M176.49,174.94a75.07,75.07,0,0,0,69.29,74.84,74.91,74.91,0,0,0,51.81-26.7L193.86,126.91A74.75,74.75,0,0,0,176.49,174.94Z"/><path class="cls-10" d="M245.77,100.09a74.91,74.91,0,0,0-51.91,26.82l103.72,96.17a75.06,75.06,0,0,0-51.81-123Z"/><path class="cls-7" d="M176.37,175.07c0-1.19,0-2.38.09-3.56,0-.4.06-.79.08-1.19,0-.78.1-1.55.17-2.32,0-.47.11-.94.16-1.41.08-.69.15-1.37.25-2.05.07-.5.16-1,.24-1.5s.21-1.28.32-1.91.21-1,.31-1.54.26-1.21.4-1.81.26-1,.39-1.56.3-1.16.47-1.73.31-1,.47-1.57.35-1.11.53-1.66.36-1.05.54-1.58.39-1.06.59-1.58.41-1.06.62-1.58.43-1,.65-1.5.46-1.06.71-1.59.46-.94.69-1.41.52-1.07.79-1.6.47-.86.7-1.29.59-1.1.91-1.65c.19-.33.4-.66.6-1q1.93-3.21,4.15-6.21c.23-.3.44-.61.67-.91.41-.53.83-1,1.25-1.57.22-.28.44-.56.66-.83l.14-.16c.63-.75,1.28-1.48,1.93-2.21l.43-.49a75.64,75.64,0,0,1,8-7.47l.44-.34c.79-.63,1.58-1.25,2.4-1.84l.82-.58c.7-.5,1.4-1,2.12-1.47l1-.66c.67-.43,1.33-.85,2-1.26l1.16-.67c.65-.37,1.31-.74,2-1.1l1.26-.66q1-.5,2-1l1.34-.62q1-.44,2-.85l1.41-.57c.66-.26,1.33-.51,2-.75l1.45-.51c.67-.23,1.36-.44,2-.65l1.47-.44c.7-.2,1.4-.38,2.11-.55l1.47-.37c.74-.17,1.48-.31,2.22-.46l1.42-.28,1.46-.23c.15-.61.21-.94.21-.94a75.2,75.2,0,0,0-75.2,75.2c0,2,.1,4,.25,5.92q6-2.18,11.34-4.75C176.39,175.85,176.37,175.47,176.37,175.07Z"/><path class="cls-8" d="M193.11,127.79c-.42.52-.85,1-1.25,1.57-.23.3-.45.61-.67.91q-2.23,3-4.15,6.21c-.2.33-.4.65-.6,1-.31.54-.61,1.1-.91,1.65s-.47.85-.7,1.29-.53,1.06-.79,1.6-.46.94-.69,1.41-.47,1.05-.71,1.59-.44,1-.65,1.5-.42,1.05-.62,1.58-.4,1.05-.59,1.58-.37,1-.54,1.58-.36,1.1-.53,1.66-.32,1-.47,1.57-.32,1.15-.47,1.73-.27,1-.39,1.56-.27,1.21-.4,1.81-.22,1-.31,1.54-.22,1.27-.32,1.91-.17,1-.24,1.5c-.1.68-.17,1.37-.25,2.05-.05.47-.11.94-.16,1.41-.07.77-.12,1.55-.17,2.32,0,.4-.06.79-.08,1.19-.05,1.18-.09,2.36-.09,3.56,0,.39,0,.78,0,1.17a117.86,117.86,0,0,0,38.8-29.42L193.78,127Z"/><path class="cls-11" d="M236.9,101.33c-.74.15-1.49.29-2.22.46l-1.47.37c-.71.18-1.41.36-2.11.55l-1.47.44c-.68.21-1.36.42-2,.65l-1.45.51c-.67.24-1.34.49-2,.75l-1.41.57q-1,.41-2,.85l-1.34.62q-1,.47-2,1l-1.26.66c-.66.36-1.32.72-2,1.1l-1.16.67c-.68.41-1.35.83-2,1.26l-1,.66c-.72.48-1.42,1-2.12,1.47l-.82.58c-.81.6-1.61,1.22-2.4,1.84l-.44.34a75.67,75.67,0,0,0-8,7.47l-.43.49c-.66.72-1.3,1.46-1.93,2.21l-.14.17,21.42,19.86c17.71-20.47,23.48-41.39,24.58-46-.49.08-1,.14-1.46.23Z"/><path class="cls-11" d="M245.78,100.09c-1.26.1-2.51.23-3.76.38l-1.22.18-.61.09c1.74,7.31,15.94,58.77,74.76,80.25.15-2,.24-3.93.24-5.93A75.21,75.21,0,0,0,245.78,100.09Z"/><path class="cls-12" d="M246,218.24a47.59,47.59,0,0,1-35.68-16,3,3,0,1,1,4.53-3.94,41.56,41.56,0,0,0,32.65,13.94c11.34-.41,21.44-5.43,27.69-13.77A3,3,0,1,1,280,202c-7.35,9.8-19.11,15.69-32.27,16.17Q246.87,218.24,246,218.24Z"/><path class="cls-13" d="M287.59,178.86c0,5.52-5.07-2-10-2-3.94,0-10,7.52-10,2a10,10,0,0,1,20,0Z"/><path class="cls-14" d="M222.59,178.86c0,5.52-5.07-2-10-2-3.94,0-10,7.52-10,2a10,10,0,0,1,20,0Z"/></svg>