<?xml version="1.0" ?><svg id="icons" viewBox="0 0 480 480" xmlns="http://www.w3.org/2000/svg"><defs><style>.cls-1{fill:#d2f5ff;}.cls-2{fill:#abe9ff;}.cls-3{fill:#97e9ff;}.cls-4{fill:#950000;}.cls-5{fill:#de0000;}.cls-6{fill:#b16a1a;}.cls-7{fill:#fbb03b;}.cls-8{fill:#66c8be;}.cls-9{fill:#64898d;}</style></defs><title/><path class="cls-1" d="M130,280A130,130,0,0,1,250,150.38q-5-.38-10-.38a130,130,0,0,0,0,260q5,0,10-.38A130,130,0,0,1,130,280Z"/><path class="cls-2" d="M130,280A130,130,0,0,0,250,409.62a129.74,129.74,0,0,0,89.73-46.23L160.09,196.83A129.46,129.46,0,0,0,130,280Z"/><path class="cls-3" d="M250,150.38a129.74,129.74,0,0,0-89.91,46.45L339.73,363.39a130,130,0,0,0-89.73-213Z"/><rect class="cls-4" height="120" width="160.47" x="159.53" y="70"/><path class="cls-5" d="M159.43,70h0a0,0,0,0,1,0,0V190a0,0,0,0,1,0,0h-19.9a0,0,0,0,1,0,0V89.9A19.9,19.9,0,0,1,159.43,70Z"/><path class="cls-5" d="M320.05,70h0A19.9,19.9,0,0,1,340,89.9V190a0,0,0,0,1,0,0h-19.9a0,0,0,0,1,0,0V70A0,0,0,0,1,320.05,70Z"/><rect class="cls-6" height="50" width="160" x="160" y="110"/><rect class="cls-7" height="50" width="20" x="140" y="110"/><rect class="cls-7" height="50" width="20.04" x="319.96" y="110"/><path class="cls-4" d="M110,190H372.66a0,0,0,0,1,0,0v0a10,10,0,0,1-10,10H120a10,10,0,0,1-10-10v0a0,0,0,0,1,0,0Z"/><circle class="cls-8" cx="180.09" cy="330" r="10"/><path class="cls-9" d="M330.09,260c0,11-10.14-4-20-4-7.88,0-20,15-20,4a20,20,0,0,1,40,0Z"/><circle class="cls-8" cx="200.09" cy="350" r="10"/><circle class="cls-8" cx="230.09" cy="360" r="10"/><circle class="cls-8" cx="260.09" cy="360" r="10"/><circle class="cls-8" cx="290.09" cy="350" r="10"/><path class="cls-6" d="M254.64,298a17.65,17.65,0,0,0,.72-5c0-11.61-10.68-18.74-22.21-17.07,0,0-120.52,7.07-120.52,24.74,0,1.84,1.37,3.4,3.8,4.73,20.44-13.82,116.72-19.47,116.72-19.47A17.68,17.68,0,0,1,254.64,298Z"/><path class="cls-7" d="M237.7,310.65A17.67,17.67,0,0,0,254.64,298a17.68,17.68,0,0,0-21.49-12s-96.28,5.65-116.72,19.47C137.33,316.81,237.7,310.65,237.7,310.65Z"/><path class="cls-8" d="M200.09,260c0,11-10.14-4-20-4-7.88,0-20,15-20,4a20,20,0,0,1,40,0Z"/><path class="cls-8" d="M300.09,330a10,10,0,0,0,13.66,9.3L300.54,327A10,10,0,0,0,300.09,330Z"/><path class="cls-9" d="M320.09,330a10,10,0,0,0-19.56-3l13.21,12.25A10,10,0,0,0,320.09,330Z"/></svg>