<?xml version="1.0" ?><svg height="400" id="svg" style="display: block;" version="1.1" width="400" xmlns="http://www.w3.org/2000/svg" xmlns:xlink="http://www.w3.org/1999/xlink"><g id="svgg"><path d="M119.518 218.262 L 117.383 220.508 119.629 218.373 C 121.716 216.389,122.054 216.016,121.764 216.016 C 121.703 216.016,120.692 217.026,119.518 218.262 " fill="#000000" fill-rule="evenodd" id="path0" stroke="none"/><path d="" fill="#2b2b2b" fill-rule="evenodd" id="path1" stroke="none"/><path d="M183.984 0.431 C 62.305 11.041,-21.365 124.099,4.528 242.920 C 28.109 351.129,136.334 419.395,245.117 394.678 C 324.704 376.595,386.522 309.646,398.005 229.102 C 399.677 217.374,399.805 215.289,399.805 199.805 C 399.805 184.320,399.677 182.236,398.005 170.508 C 383.293 67.309,287.750 -8.617,183.984 0.431 M211.523 16.806 C 325.729 24.372,405.210 132.229,378.328 243.164 C 356.077 334.989,267.228 394.795,173.242 381.212 C 83.640 368.263,16.406 290.496,16.406 199.805 C 16.406 94.321,106.474 9.848,211.523 16.806 M135.838 88.315 C 125.156 90.832,121.144 102.175,127.349 112.314 L 128.952 114.932 127.340 117.329 C 119.254 129.358,117.506 140.756,120.113 164.453 C 120.905 171.650,121.759 179.582,122.012 182.078 L 122.472 186.618 119.971 187.079 C 104.044 190.013,104.184 214.123,120.138 215.921 L 121.947 216.125 118.040 220.074 C 112.515 225.658,111.404 228.254,111.835 234.570 C 113.070 252.681,135.708 268.957,149.761 261.837 C 151.035 261.192,153.696 258.918,157.112 255.556 L 162.467 250.286 162.581 270.553 L 162.695 290.820 164.380 294.266 C 175.825 317.674,223.670 317.721,235.191 294.336 C 237.321 290.014,237.474 288.260,237.488 268.008 L 237.500 250.664 242.976 256.021 C 249.557 262.458,251.017 263.276,256.465 263.576 C 275.268 264.611,293.908 241.359,286.652 225.922 C 286.191 224.941,284.106 222.361,282.009 220.176 L 278.202 216.211 279.982 215.942 C 296.238 213.482,295.743 189.648,279.380 186.924 L 277.705 186.645 277.940 184.436 C 278.069 183.221,278.336 180.820,278.535 179.102 C 283.013 140.276,282.252 132.072,272.800 117.278 C 271.186 114.753,271.118 115.385,273.444 111.353 C 275.875 107.142,276.510 104.226,275.817 100.464 C 273.211 86.324,254.949 83.506,248.212 96.204 L 247.014 98.463 200.310 98.548 L 153.606 98.633 152.096 95.946 C 148.685 89.876,142.176 86.821,135.838 88.315 M246.808 112.307 C 259.437 116.296,269.122 131.285,269.144 146.875 C 269.149 149.837,265.343 189.048,265.017 189.400 C 264.944 189.478,263.338 188.981,261.446 188.296 C 256.719 186.583,243.178 183.595,240.140 183.594 C 239.981 183.594,238.948 181.792,237.844 179.590 C 231.878 167.689,221.468 154.142,213.895 148.424 L 211.843 146.875 199.943 146.875 C 188.210 146.875,188.026 146.887,186.868 147.754 C 178.963 153.672,170.273 164.802,163.674 177.463 C 160.702 183.166,160.410 183.581,159.250 183.755 C 151.354 184.942,143.012 186.846,138.437 188.505 C 136.999 189.026,135.699 189.453,135.547 189.453 C 135.396 189.453,135.161 188.091,135.025 186.426 C 134.889 184.761,134.335 179.180,133.794 174.023 C 130.755 145.049,130.725 143.637,132.988 135.861 C 136.537 123.666,145.429 114.110,155.434 111.739 C 156.205 111.556,176.383 111.389,200.273 111.367 L 243.710 111.328 246.808 112.307 M211.181 163.384 C 217.760 170.219,225.877 182.529,228.260 189.283 L 228.820 190.869 225.932 189.355 C 210.951 181.505,186.944 181.851,172.754 190.122 C 170.694 191.323,170.667 191.541,173.257 186.050 C 177.087 177.930,183.489 168.550,189.115 162.816 L 192.491 159.375 199.907 159.375 L 207.323 159.375 211.181 163.384 M134.375 220.893 C 148.700 224.700,159.356 242.652,153.124 252.478 C 145.631 264.292,122.502 253.746,118.165 236.539 C 115.328 225.283,123.007 217.871,134.375 220.893 M274.829 220.967 C 284.598 224.296,284.433 238.747,274.511 248.842 C 261.903 261.672,244.942 259.853,244.926 245.670 C 244.909 230.964,262.214 216.669,274.829 220.967 M210.588 261.703 C 236.036 268.277,237.931 292.534,213.651 300.905 C 191.934 308.392,166.195 296.022,169.032 279.461 C 171.386 265.716,192.009 256.903,210.588 261.703 " fill="#353535" fill-rule="evenodd" id="path2" stroke="none"/><path d="" fill="#404040" fill-rule="evenodd" id="path3" stroke="none"/><path d="" fill="#555555" fill-rule="evenodd" id="path4" stroke="none"/></g></svg>