<?xml version="1.0" ?><!DOCTYPE svg  PUBLIC '-//W3C//DTD SVG 1.1//EN'  'http://www.w3.org/Graphics/SVG/1.1/DTD/svg11.dtd'><svg height="512px" style="shape-rendering:geometricPrecision; text-rendering:geometricPrecision; image-rendering:optimizeQuality; fill-rule:evenodd; clip-rule:evenodd" version="1.1" viewBox="0 0 512 512" width="512px" xml:space="preserve" xmlns="http://www.w3.org/2000/svg" xmlns:xlink="http://www.w3.org/1999/xlink"><defs><style type="text/css">
   <![CDATA[
    .fil4 {fill:#FEFEFE}
    .fil2 {fill:#C23D38}
    .fil0 {fill:#EDD3C7}
    .fil1 {fill:#EF4937}
    .fil3 {fill:#F37C6B}
   ]]>
  </style></defs><g id="Layer_x0020_1"><g id="_345356040"><path class="fil0" d="M135 475c-71,-72 -48,-159 -23,-211 43,-97 62,-115 149,-263 99,151 295,363 97,483 -76,41 -150,38 -223,-8z"/><path class="fil1" d="M79 413c-35,-83 21,-190 174,-401 154,215 199,339 151,418 -72,100 -244,118 -326,-17z"/><path class="fil2" d="M368 468c74,-56 73,-147 -8,-292 38,182 -144,271 -290,176 -9,119 183,216 298,116z"/><path class="fil3" d="M253 12c-120,159 -181,273 -184,340 113,-50 174,-163 184,-340z"/><g><circle class="fil4" cx="247" cy="315" r="108"/><path class="fil1" d="M254 300l9 6 14 -6 0 -7c0,-16 -14,-30 -30,-30 -16,0 -30,14 -30,29l0 42c0,4 -3,7 -7,7 -4,0 -8,-2 -8,-5l0 -22 -23 0c0,0 0,22 0,22 0,16 14,29 30,29 17,0 30,-13 30,-29l0 -44c0,-4 4,-7 8,-7 4,0 8,3 8,7l0 7 0 0zm38 15l0 22c0,4 -4,6 -8,6 -4,0 -7,-3 -7,-7l0 -21 -14 7 -9 -7 0 22c0,16 14,29 30,29 17,0 30,-13 30,-29 0,0 0,-22 0,-22l-23 0z"/></g></g></g></svg>