<?xml version="1.0" ?><!DOCTYPE svg  PUBLIC '-//W3C//DTD SVG 1.1//EN'  'http://www.w3.org/Graphics/SVG/1.1/DTD/svg11.dtd'><svg height="512px" style="shape-rendering:geometricPrecision; text-rendering:geometricPrecision; image-rendering:optimizeQuality; fill-rule:evenodd; clip-rule:evenodd" version="1.1" viewBox="0 0 512 512" width="512px" xml:space="preserve" xmlns="http://www.w3.org/2000/svg" xmlns:xlink="http://www.w3.org/1999/xlink"><defs><style type="text/css">
   <![CDATA[
    .fil4 {fill:#FEFEFE}
    .fil2 {fill:#45718C}
    .fil1 {fill:#4B8BB2}
    .fil3 {fill:#80A9C4}
    .fil0 {fill:#D2DEE4}
   ]]>
  </style></defs><g id="Layer_x0020_1"><g id="_340033376"><path class="fil0" d="M135 475c-71,-72 -48,-159 -23,-211 43,-97 62,-115 149,-263 99,151 295,363 97,483 -76,41 -150,38 -223,-8z"/><path class="fil1" d="M79 413c-35,-83 21,-190 174,-401 154,215 199,339 151,418 -72,100 -244,118 -326,-17z"/><path class="fil2" d="M368 468c74,-56 73,-147 -8,-292 38,182 -144,271 -290,176 -9,119 183,216 298,116z"/><path class="fil3" d="M253 12c-120,159 -181,273 -184,340 113,-50 174,-163 184,-340z"/><path class="fil4" d="M323 223c-28,0 -50,18 -60,53 10,-5 29,-7 31,10 1,17 -25,62 -36,62 -11,0 -20,-50 -23,-73 -3,-23 -8,-48 -30,-48 -22,0 -49,34 -69,49l10 14c0,0 14,-11 19,-10 13,3 24,57 30,77 6,20 13,62 41,62 46,0 121,-113 121,-150 0,-24 -7,-44 -35,-44z"/></g></g></svg>