<?xml version="1.0" ?><!DOCTYPE svg  PUBLIC '-//W3C//DTD SVG 1.1//EN'  'http://www.w3.org/Graphics/SVG/1.1/DTD/svg11.dtd'><svg height="512px" style="shape-rendering:geometricPrecision; text-rendering:geometricPrecision; image-rendering:optimizeQuality; fill-rule:evenodd; clip-rule:evenodd" version="1.1" viewBox="0 0 512 512" width="512px" xml:space="preserve" xmlns="http://www.w3.org/2000/svg" xmlns:xlink="http://www.w3.org/1999/xlink"><defs><style type="text/css">
   <![CDATA[
    .fil4 {fill:#FEFEFE}
    .fil2 {fill:#C23D38}
    .fil0 {fill:#EDD3C7}
    .fil1 {fill:#EF4937}
    .fil3 {fill:#F37C6B}
   ]]>
  </style></defs><g id="Layer_x0020_1"><g id="_349759392"><path class="fil0" d="M135 475c-71,-72 -48,-159 -23,-211 43,-97 62,-115 149,-263 99,151 295,363 97,483 -76,41 -150,38 -223,-8z"/><path class="fil1" d="M79 413c-35,-83 21,-190 174,-401 154,215 199,339 151,418 -72,100 -244,118 -326,-17z"/><path class="fil2" d="M368 468c74,-56 73,-147 -8,-292 38,182 -144,271 -290,176 -9,119 183,216 298,116z"/><path class="fil3" d="M253 12c-120,159 -181,273 -184,340 113,-50 174,-163 184,-340z"/><g><g><path class="fil4" d="M122 357c-3,14 5,33 13,39l0 -65c-8,7 -11,16 -13,26zm223 -32c-5,0 -9,1 -13,2 -2,-34 -32,-62 -68,-62 -23,0 -52,9 -64,26l0 105 145 0c21,0 37,-16 37,-36 0,-20 -17,-36 -37,-36zm-171 71l13 0 0 -91 -13 0 0 91zm-26 0l13 0 0 -78 -13 0 0 78z"/></g></g></g></g></svg>