<?xml version="1.0" ?><!DOCTYPE svg  PUBLIC '-//W3C//DTD SVG 1.1//EN'  'http://www.w3.org/Graphics/SVG/1.1/DTD/svg11.dtd'><svg height="512px" style="shape-rendering:geometricPrecision; text-rendering:geometricPrecision; image-rendering:optimizeQuality; fill-rule:evenodd; clip-rule:evenodd" version="1.1" viewBox="0 0 512 512" width="512px" xml:space="preserve" xmlns="http://www.w3.org/2000/svg" xmlns:xlink="http://www.w3.org/1999/xlink"><defs><style type="text/css">
   <![CDATA[
    .fil4 {fill:#FEFEFE}
    .fil1 {fill:#1B8142}
    .fil2 {fill:#2BA85B}
    .fil3 {fill:#106945}
    .fil0 {fill:#E3EDDC}
   ]]>
  </style></defs><g id="Layer_x0020_1"><g id="_353584768"><path class="fil0" d="M135 475c-71,-72 -48,-159 -23,-211 43,-97 62,-115 149,-263 99,151 295,363 97,483 -76,41 -150,38 -223,-8z"/><path class="fil1" d="M79 413c-35,-83 21,-190 174,-401 154,215 199,339 151,418 -72,100 -244,118 -326,-17z"/><path class="fil2" d="M253 12c-120,159 -181,273 -184,340 113,-50 174,-163 184,-340z"/><path class="fil3" d="M368 468c74,-56 73,-147 -8,-292 38,182 -144,271 -290,176 -9,119 183,216 298,116z"/><path class="fil4" d="M346 413l-96 -220c-1,-2 -3,-3 -5,-3l0 0c-2,0 -4,1 -5,3l-95 220c-1,2 -1,4 0,5 1,1 3,2 4,2l81 0 0 -43 -29 -14 0 -14 29 14 0 -43 29 0 0 29 29 -14 0 14 -29 14 0 14 43 -29 0 14 -43 29 0 29 81 0c2,0 3,-1 4,-2 1,-1 1,-3 0,-5z"/></g></g></svg>