<?xml version="1.0" ?><!DOCTYPE svg  PUBLIC '-//W3C//DTD SVG 1.1//EN'  'http://www.w3.org/Graphics/SVG/1.1/DTD/svg11.dtd'><svg height="512px" style="shape-rendering:geometricPrecision; text-rendering:geometricPrecision; image-rendering:optimizeQuality; fill-rule:evenodd; clip-rule:evenodd" version="1.1" viewBox="0 0 512 512" width="512px" xml:space="preserve" xmlns="http://www.w3.org/2000/svg" xmlns:xlink="http://www.w3.org/1999/xlink"><defs><style type="text/css">
   <![CDATA[
    .fil4 {fill:#FEFEFE}
    .fil2 {fill:#BE663A}
    .fil0 {fill:#E0D3C9}
    .fil1 {fill:#EC7E3F}
    .fil3 {fill:#FAB073}
   ]]>
  </style></defs><g id="Layer_x0020_1"><g id="_351435832"><path class="fil0" d="M135 475c-71,-72 -48,-159 -23,-211 43,-97 62,-115 149,-263 99,151 295,363 97,483 -76,41 -150,38 -223,-8z"/><path class="fil1" d="M79 413c-35,-83 21,-190 174,-401 154,215 199,339 151,418 -72,100 -244,118 -326,-17z"/><path class="fil2" d="M368 468c74,-56 73,-147 -8,-292 38,182 -144,271 -290,176 -9,119 183,216 298,116z"/><path class="fil3" d="M253 12c-120,159 -181,273 -184,340 113,-50 174,-163 184,-340z"/><path class="fil4" d="M344 292l-8 0 0 0c0,0 -1,0 -2,0 -13,0 -15,-12 -15,-12l0 0c-2,-38 -30,-68 -69,-68l0 0 -32 0 0 0c-39,0 -71,31 -71,70 0,0 0,0 0,0l0 0 0 70 0 0c0,39 31,70 71,70l0 0 70 0 0 0c35,-1 70,-31 70,-70l0 0 0 -47c0,-7 -7,-14 -15,-14zm-129 -27c0,0 0,0 0,0l0 0 39 0 0 0c8,0 13,7 13,14 0,7 -5,13 -13,13l0 0 -39 0c0,0 0,0 0,0 -7,0 -14,-6 -14,-13 0,-7 8,-14 15,-14zm72 106l0 0 -72 0 0 0c0,0 0,0 0,0 -7,0 -14,-7 -14,-14 0,-7 7,-13 14,-13 0,0 0,0 0,0l0 0 73 0 0 0c8,0 12,6 12,13 0,7 -5,14 -13,14z"/></g></g></svg>