<?xml version="1.0" ?><!DOCTYPE svg  PUBLIC '-//W3C//DTD SVG 1.1//EN'  'http://www.w3.org/Graphics/SVG/1.1/DTD/svg11.dtd'><svg height="512px" style="shape-rendering:geometricPrecision; text-rendering:geometricPrecision; image-rendering:optimizeQuality; fill-rule:evenodd; clip-rule:evenodd" version="1.1" viewBox="0 0 512 512" width="512px" xml:space="preserve" xmlns="http://www.w3.org/2000/svg" xmlns:xlink="http://www.w3.org/1999/xlink"><defs><style type="text/css">
   <![CDATA[
    .fil4 {fill:#FEFEFE}
    .fil2 {fill:#354D80}
    .fil1 {fill:#3C619D}
    .fil3 {fill:#6E87BF}
    .fil0 {fill:#CAD1E4}
   ]]>
  </style></defs><g id="Layer_x0020_1"><g id="_339711952"><path class="fil0" d="M135 475c-71,-72 -48,-159 -23,-211 43,-97 62,-115 149,-263 99,151 295,363 97,483 -76,41 -150,38 -223,-8z"/><path class="fil1" d="M79 413c-35,-83 21,-190 174,-401 154,215 199,339 151,418 -72,100 -244,118 -326,-17z"/><path class="fil2" d="M368 468c74,-56 73,-147 -8,-292 38,182 -144,271 -290,176 -9,119 183,216 298,116z"/><path class="fil3" d="M253 12c-120,159 -181,273 -184,340 113,-50 174,-163 184,-340z"/><path class="fil4" d="M298 305l-44 0 0 118 -50 0 0 -118 -24 0 0 -39 24 0 0 -25c0,-34 15,-54 55,-54l46 0 0 42 -38 0c-11,0 -13,6 -13,17l0 21 50 0 -7 39z"/></g></g></svg>