<?xml version="1.0" ?><!DOCTYPE svg  PUBLIC '-//W3C//DTD SVG 1.1//EN'  'http://www.w3.org/Graphics/SVG/1.1/DTD/svg11.dtd'><svg height="512px" style="shape-rendering:geometricPrecision; text-rendering:geometricPrecision; image-rendering:optimizeQuality; fill-rule:evenodd; clip-rule:evenodd" version="1.1" viewBox="0 0 512 512" width="512px" xml:space="preserve" xmlns="http://www.w3.org/2000/svg" xmlns:xlink="http://www.w3.org/1999/xlink"><defs><style type="text/css">
   <![CDATA[
    .fil1 {fill:#FEFEFE}
    .fil2 {fill:#F58C81}
    .fil0 {fill:#DC5C4B}
    .fil3 {fill:#FEFEFE;fill-rule:nonzero}
   ]]>
  </style></defs><g id="Layer_x0020_1"><g id="_307571698016"><path class="fil0" d="M193 3c-26,11 -26,33 -52,45 -27,13 -48,13 -52,47 -1,15 0,30 -6,43 -6,12 -13,19 -18,31 -16,31 9,48 18,70 12,28 -1,58 23,74 28,18 39,9 61,38 18,24 28,30 67,21 36,-9 64,11 86,3 11,-5 18,-16 24,-23 9,-11 12,-16 26,-23 27,-14 48,-12 53,-47 1,-15 0,-29 6,-42 5,-13 13,-21 18,-31 16,-33 -8,-48 -18,-72 -11,-26 1,-57 -23,-73 -23,-16 -32,-5 -60,-38 -22,-26 -25,-32 -69,-21 -35,9 -62,-12 -84,-2z"/><path class="fil1" d="M241 27c-84,8 -156,83 -146,179 9,83 84,154 180,143 81,-10 151,-83 142,-177 -9,-84 -83,-153 -176,-145z"/><path class="fil0" d="M238 34c-79,9 -149,82 -136,175 11,79 83,146 175,133 78,-10 145,-83 133,-174 -10,-79 -82,-144 -172,-134z"/><path class="fil2" d="M93 474l66 2 53 36 44 -127 45 127 53 -36 65 -2 -46 -131c-13,7 -24,32 -43,42 -25,14 -48,-2 -73,-2 -30,0 -64,25 -98,-17 -6,-8 -10,-17 -20,-23l-46 131z"/><path class="fil1" d="M239 40c-76,9 -143,79 -131,168 11,76 80,140 168,128 75,-10 139,-80 128,-167 -10,-75 -79,-138 -165,-129z"/><path class="fil0" d="M235 59c-33,8 -59,17 -83,49 -34,45 -39,98 -8,150 16,25 45,48 75,57 94,28 185,-57 167,-149 -7,-39 -28,-63 -49,-81 -26,-22 -69,-34 -102,-26z"/><g><path class="fil1" d="M275 115c0,0 -38,0 -50,0 -23,0 -44,17 -44,37 0,20 15,36 38,36 2,0 3,0 5,0 -2,3 -3,6 -3,10 0,5 3,10 7,14 -3,0 -6,0 -9,0 -28,0 -49,18 -49,36 0,18 23,30 51,30 32,0 50,-18 50,-37 0,-14 -4,-23 -18,-32 -4,-4 -13,-12 -13,-16 0,-6 2,-8 10,-15 8,-6 14,-15 14,-26 0,-13 -6,-25 -16,-29l16 0 11 -8zm-18 123c1,2 1,4 1,5 0,15 -10,27 -37,27 -19,0 -33,-13 -33,-27 0,-15 17,-27 37,-27 4,0 8,1 12,2 11,8 18,12 20,20zm-31 -55c-13,0 -25,-14 -27,-31 -3,-17 6,-31 19,-30 13,0 26,14 28,31 2,17 -7,31 -20,30z"/><polygon class="fil3" points="322,113 322,188 314,188 314,113 "/><polygon class="fil3" points="280,147 356,147 356,154 280,154 "/></g></g></g></svg>