<?xml version="1.0" ?><!DOCTYPE svg  PUBLIC '-//W3C//DTD SVG 1.1//EN'  'http://www.w3.org/Graphics/SVG/1.1/DTD/svg11.dtd'><svg height="512px" style="shape-rendering:geometricPrecision; text-rendering:geometricPrecision; image-rendering:optimizeQuality; fill-rule:evenodd; clip-rule:evenodd" version="1.1" viewBox="0 0 512 512" width="512px" xml:space="preserve" xmlns="http://www.w3.org/2000/svg" xmlns:xlink="http://www.w3.org/1999/xlink"><defs><style type="text/css">
   <![CDATA[
    .fil1 {fill:#FEFEFE}
    .fil0 {fill:#5D924B}
   ]]>
  </style></defs><g id="Layer_x0020_1"><g id="_307562585536"><path class="fil0" d="M31 212c13,-2 19,-5 19,-5 137,-117 211,-180 211,-180 104,75 156,113 156,113 8,-2 12,-3 12,-3 -113,-82 -169,-123 -169,-123 -149,128 -229,198 -229,198z"/><path class="fil0" d="M262 0c12,0 22,10 22,22 0,12 -10,22 -22,22 -12,0 -22,-10 -22,-22 0,-12 10,-22 22,-22zm0 11c6,0 11,5 11,11 0,6 -5,11 -11,11 -6,0 -11,-5 -11,-11 0,-6 5,-11 11,-11z"/><circle class="fil1" cx="262" cy="22" r="11"/><rect class="fil0" height="18.125" rx="1" ry="1" transform="matrix(15.6685 -3.17591 2.95516 16.839 15.738 210.761)" width="27.2503"/><circle class="fil1" cx="420" cy="154" r="11"/><circle class="fil1" cx="48" cy="231" r="11"/><circle class="fil1" cx="98" cy="480" r="11"/><circle class="fil1" cx="468" cy="404" r="11"/><g><g><path class="fil1" d="M212 294c0,0 -2,-12 -2,-12l-7 -34 -37 55 35 -7c0,0 12,-2 11,-2zm101 -44c-5,-5 -24,-6 -33,-4 -9,2 -24,5 -24,5 0,0 -11,-10 -29,-8 -16,2 -11,7 -10,14l9 46 -46 10c0,0 -12,-1 -11,7 3,15 15,63 49,62 39,-2 43,-13 42,-15 -1,-9 -2,-19 -2,-19 0,0 18,14 35,10 17,-4 22,6 24,16 2,10 4,18 4,18 0,0 1,7 -9,9 -10,2 -18,3 -18,3 0,0 -7,1 -9,-6 -1,-8 3,-10 7,-11 4,-1 7,-1 7,-1l-3 -13c0,0 -32,2 -27,25 5,24 18,26 31,23 14,-3 22,-4 22,-4 0,0 34,-8 19,-83 -15,-75 -23,-79 -28,-84zm-27 73c0,0 1,-10 8,-12 8,-1 18,13 18,13 0,0 -17,-3 -26,-1z"/></g></g></g></g></svg>