<?xml version="1.0" ?><!DOCTYPE svg  PUBLIC '-//W3C//DTD SVG 1.0//EN'  'http://www.w3.org/TR/2001/REC-SVG-20010904/DTD/svg10.dtd'><svg height="128px" style="shape-rendering:geometricPrecision; text-rendering:geometricPrecision; image-rendering:optimizeQuality; fill-rule:evenodd; clip-rule:evenodd" version="1.0" viewBox="0 0 30175 47103" width="82px" xml:space="preserve" xmlns="http://www.w3.org/2000/svg" xmlns:xlink="http://www.w3.org/1999/xlink"><defs><style type="text/css">
   <![CDATA[
    .fil0 {fill:#E6C131}
   ]]>
  </style></defs><g id="Layer_x0020_1"><path class="fil0" d="M3680 0l22815 0c2024,0 3680,1656 3680,3680l0 43423 -9476 0 0 -8872 -11223 0 0 8872 -9476 0 0 -43423c0,-2024 1656,-3680 3680,-3680zm2208 8791l3312 0 0 -5427 -3312 0 0 5427zm7544 0l3312 0 0 -5427 -3312 0 0 5427zm7543 0l3312 0 0 -5427 -3312 0 0 5427zm3312 4232l-3312 0 0 5336 3312 0 0 -5336zm-7543 0l-3312 0 0 5336 3312 0 0 -5336zm-7544 0l-3312 0 0 5336 3312 0 0 -5336zm15087 9568l-3312 0 0 5428 3312 0 0 -5428zm-7543 0l-3312 0 0 5428 3312 0 0 -5428zm-7544 0l-3312 0 0 5428 3312 0 0 -5428z"/></g></svg>