<?xml version="1.0" ?><!DOCTYPE svg  PUBLIC '-//W3C//DTD SVG 1.0//EN'  'http://www.w3.org/TR/2001/REC-SVG-20010904/DTD/svg10.dtd'><svg height="128px" style="shape-rendering:geometricPrecision; text-rendering:geometricPrecision; image-rendering:optimizeQuality; fill-rule:evenodd; clip-rule:evenodd" version="1.0" viewBox="0 0 55506 88583" width="80px" xml:space="preserve" xmlns="http://www.w3.org/2000/svg" xmlns:xlink="http://www.w3.org/1999/xlink"><defs><style type="text/css">
   <![CDATA[
    .fil0 {fill:#E6C131}
   ]]>
  </style></defs><g id="Layer_x0020_1"><path class="fil0" d="M26433 0l3290 0c9372,0 17040,7668 17040,17040l0 5197 -6647 0 0 -5197c0,-5703 -4690,-10393 -10393,-10393l-3290 0c-5704,0 -10393,4690 -10393,10393l0 16434 -6648 0 0 -16434c0,-9372 7668,-17040 17041,-17040zm-18687 38232l40014 0c4260,0 7746,3486 7746,7746l0 34858c0,4261 -3486,7747 -7746,7747l-40014 0c-4260,0 -7746,-3486 -7746,-7747l0 -34858c0,-4260 3486,-7746 7746,-7746zm20007 16955c3822,0 6921,3098 6921,6920 0,2905 -1790,5390 -4326,6417l0 9847 -5190 0 0 -9847c-2536,-1027 -4325,-3512 -4325,-6417 0,-3822 3098,-6920 6920,-6920z"/></g></svg>