<?xml version="1.0" ?><!DOCTYPE svg  PUBLIC '-//W3C//DTD SVG 1.0//EN'  'http://www.w3.org/TR/2001/REC-SVG-20010904/DTD/svg10.dtd'><svg height="79px" style="shape-rendering:geometricPrecision; text-rendering:geometricPrecision; image-rendering:optimizeQuality; fill-rule:evenodd; clip-rule:evenodd" version="1.0" viewBox="0 0 95049 59034" width="128px" xml:space="preserve" xmlns="http://www.w3.org/2000/svg" xmlns:xlink="http://www.w3.org/1999/xlink"><defs><style type="text/css">
   <![CDATA[
    .fil0 {fill:#E6C131}
   ]]>
  </style></defs><g id="Layer_x0020_1"><path class="fil0" d="M7899 0l79251 0c4344,0 7899,3554 7899,7899l0 43236c0,4345 -3555,7899 -7899,7899l-79251 0c-4345,0 -7899,-3554 -7899,-7899l0 -43236c0,-4345 3554,-7899 7899,-7899zm-3258 8168l85767 0 0 12995 -85767 0 0 -12995zm5616 25943l18894 0 0 4456 -18894 0 0 -4456zm53372 -2320c1399,0 2717,344 3875,952 -1666,2009 -2668,4588 -2668,7402 0,2813 1002,5393 2668,7401 -1158,608 -2476,952 -3875,952 -4613,0 -8353,-3740 -8353,-8353 0,-4614 3740,-8354 8353,-8354zm12810 0c4613,0 8353,3740 8353,8354 0,4613 -3740,8353 -8353,8353 -4614,0 -8354,-3740 -8354,-8353 0,-4614 3740,-8354 8354,-8354zm-66182 11185l29865 0 0 4455 -29865 0 0 -4455z"/></g></svg>