<?xml version="1.0" ?><svg data-name="Layer 1" id="Layer_1" viewBox="0 0 128 128" xmlns="http://www.w3.org/2000/svg"><title/><path d="M64.19,47.81a2,2,0,0,0-1-1.75,2.08,2.08,0,0,0-1-.26,2,2,0,0,0-1,.32l-10.2,6.42a5.79,5.79,0,0,1-3,.89l-9.11.1a2,2,0,0,0-2,2V72.11a2,2,0,0,0,2,2h9a5.74,5.74,0,0,1,3.21,1l10.07,6.77A2,2,0,0,0,64.2,80.2h0Z"/><path d="M98,0H30A30,30,0,0,0,0,30V98a30,30,0,0,0,30,30H98a30,30,0,0,0,30-30V30A30,30,0,0,0,98,0ZM68,80.2A5.76,5.76,0,0,1,59,85L48.93,78.21a2,2,0,0,0-1.11-.34h-9a5.76,5.76,0,0,1-5.76-5.76V55.53a5.79,5.79,0,0,1,5.71-5.77l9.11-.09a2,2,0,0,0,1.06-.31l10.21-6.42A5.76,5.76,0,0,1,68,47.81Zm7.19-26.06a1.88,1.88,0,0,1,2.66,0L81.66,58A1.88,1.88,0,0,1,79,60.64L75.16,56.8A1.88,1.88,0,0,1,75.16,54.14ZM94.4,73.37a1.88,1.88,0,0,1-2.66,0l-7-7-7,7a1.88,1.88,0,0,1-2.66-2.66L91.73,54.14a1.88,1.88,0,0,1,2.66,2.66l-7,7,7,7A1.88,1.88,0,0,1,94.4,73.37Z"/></svg>