<?xml version="1.0" ?><svg data-name="Layer 1" id="Layer_1" viewBox="0 0 128 128" xmlns="http://www.w3.org/2000/svg"><title/><path d="M64.1,49.8A14.2,14.2,0,1,0,78.3,64,14.25,14.25,0,0,0,64.1,49.8Z"/><path d="M94.6,60A7.1,7.1,0,0,1,88,55.3a11.92,11.92,0,0,0-.8-2,7.18,7.18,0,0,1,1.4-8,2.84,2.84,0,0,0,0-4l-1.7-1.7a2.84,2.84,0,0,0-4,0,7,7,0,0,1-8,1.4,16.68,16.68,0,0,0-2-.8,7,7,0,0,1-4.7-6.6,2.8,2.8,0,0,0-2.8-2.8H63a2.8,2.8,0,0,0-2.8,2.8,7.1,7.1,0,0,1-4.7,6.6,11.92,11.92,0,0,0-2,.8,7.18,7.18,0,0,1-8-1.4,2.84,2.84,0,0,0-4,0l-1.7,1.7a2.84,2.84,0,0,0,0,4,7,7,0,0,1,1.4,8,16.67,16.67,0,0,0-.8,2A7.1,7.1,0,0,1,33.8,60,2.8,2.8,0,0,0,31,62.8v2.4A2.8,2.8,0,0,0,33.8,68a7.1,7.1,0,0,1,6.6,4.7,11.92,11.92,0,0,0,.8,2,7.18,7.18,0,0,1-1.4,8,2.84,2.84,0,0,0,0,4l1.7,1.7a2.84,2.84,0,0,0,4,0,6.88,6.88,0,0,1,5-2.1,8.19,8.19,0,0,1,3,.7,16.68,16.68,0,0,0,2,.8,7,7,0,0,1,4.7,6.6A2.8,2.8,0,0,0,63,97.2h2.4a2.8,2.8,0,0,0,2.8-2.8,7.1,7.1,0,0,1,4.7-6.6,11.92,11.92,0,0,0,2-.8,7.18,7.18,0,0,1,8,1.4,2.84,2.84,0,0,0,4,0l1.7-1.7a2.84,2.84,0,0,0,0-4,7,7,0,0,1-1.4-8,16.68,16.68,0,0,0,.8-2A7.1,7.1,0,0,1,94.6,68a2.8,2.8,0,0,0,2.8-2.8V62.8A2.8,2.8,0,0,0,94.6,60ZM64.1,82.5A18.5,18.5,0,1,1,82.6,64,18.52,18.52,0,0,1,64.1,82.5Z"/><path d="M98,0H30A30,30,0,0,0,0,30V98a30,30,0,0,0,30,30H98a30,30,0,0,0,30-30V30A30,30,0,0,0,98,0Zm3.6,65.2a7.13,7.13,0,0,1-7.1,7.1,2.9,2.9,0,0,0-2.6,1.9,22.9,22.9,0,0,1-1,2.3,2.88,2.88,0,0,0,.5,3.2,7,7,0,0,1,0,10l-1.7,1.7a7,7,0,0,1-10,0,2.88,2.88,0,0,0-3.2-.5,16,16,0,0,1-2.3,1,2.8,2.8,0,0,0-1.9,2.6,7.13,7.13,0,0,1-7.1,7.1H62.8a7.13,7.13,0,0,1-7.1-7.1,2.9,2.9,0,0,0-1.9-2.6,22.9,22.9,0,0,1-2.3-1,2.88,2.88,0,0,0-3.2.5,7,7,0,0,1-10,0l-1.7-1.7a7,7,0,0,1,0-10,2.88,2.88,0,0,0,.5-3.2,16,16,0,0,1-1-2.3,2.8,2.8,0,0,0-2.6-1.9,7.13,7.13,0,0,1-7.1-7.1V62.8a7.13,7.13,0,0,1,7.1-7.1,2.9,2.9,0,0,0,2.6-1.9,22.9,22.9,0,0,1,1-2.3,2.88,2.88,0,0,0-.5-3.2,7,7,0,0,1,0-10l1.7-1.7a7,7,0,0,1,10,0,2.88,2.88,0,0,0,3.2.5,16,16,0,0,1,2.3-1,2.8,2.8,0,0,0,1.9-2.6,7.13,7.13,0,0,1,7.1-7.1h2.4a7.13,7.13,0,0,1,7.1,7.1,2.9,2.9,0,0,0,1.9,2.6,22.9,22.9,0,0,1,2.3,1,2.88,2.88,0,0,0,3.2-.5,7,7,0,0,1,10,0l1.7,1.7a7,7,0,0,1,0,10,2.88,2.88,0,0,0-.5,3.2,16,16,0,0,1,1,2.3,2.8,2.8,0,0,0,2.6,1.9,7.13,7.13,0,0,1,7.1,7.1Z"/></svg>