<?xml version="1.0" ?><svg data-name="Layer 1" id="Layer_1" viewBox="0 0 128 128" xmlns="http://www.w3.org/2000/svg"><title/><path d="M63.18,46.05a2.07,2.07,0,0,0-1-.26,2,2,0,0,0-1.05.32L50.94,52.54a5.8,5.8,0,0,1-3,.89l-9.12.1a2,2,0,0,0-2,2V72.11a2,2,0,0,0,2,2h9a5.75,5.75,0,0,1,3.21,1L61.1,81.86a2,2,0,0,0,3.11-1.66h0V47.8A2,2,0,0,0,63.18,46.05Z"/><path d="M98,0H30A30,30,0,0,0,0,30V98a30,30,0,0,0,30,30H98a30,30,0,0,0,30-30V30A30,30,0,0,0,98,0ZM68,80.21A5.76,5.76,0,0,1,59,85L48.93,78.22a2,2,0,0,0-1.11-.34h-9a5.77,5.77,0,0,1-5.76-5.76V55.53a5.79,5.79,0,0,1,5.71-5.77l9.12-.09a2,2,0,0,0,1.06-.31l10.21-6.43A5.77,5.77,0,0,1,68,47.8ZM76,72.48a1.57,1.57,0,0,1-1.12-2.67,8.61,8.61,0,0,0-.08-12.21A1.57,1.57,0,1,1,77,55.37,11.74,11.74,0,0,1,77.17,72,1.57,1.57,0,0,1,76,72.48Zm5.46,5.46a1.57,1.57,0,0,1-1.11-2.68,16.35,16.35,0,0,0-.1-23.13,1.57,1.57,0,0,1,2.21-2.23,19.48,19.48,0,0,1,.11,27.57A1.57,1.57,0,0,1,81.51,77.94Zm5.83,4.26A1.57,1.57,0,0,1,85.11,80,23,23,0,0,0,85,47.42a1.57,1.57,0,1,1,2.21-2.23,26.17,26.17,0,0,1,.11,37Z"/></svg>