<?xml version="1.0" ?><svg data-name="Layer 1" id="Layer_1" viewBox="0 0 128 128" xmlns="http://www.w3.org/2000/svg"><title/><path d="M47,58.3A18.45,18.45,0,0,0,57.7,68.8a21.32,21.32,0,0,1,3.4-6.1,18.16,18.16,0,0,0-12-4.5A14.77,14.77,0,0,0,47,58.3Z"/><path d="M66.9,62.6a21.6,21.6,0,0,1,3.4,6.1A18.17,18.17,0,0,0,81,58.2c-.7,0-1.4-.1-2.1-.1A18.16,18.16,0,0,0,66.9,62.6Z"/><path d="M56.6,72.9A22.74,22.74,0,0,1,42.7,59.2,18.31,18.31,0,0,0,49,94.7a18.16,18.16,0,0,0,12-4.5,22.75,22.75,0,0,1-4.7-13.8A19.83,19.83,0,0,1,56.6,72.9Z"/><path d="M49.1,53.9A22.61,22.61,0,0,1,64,59.6a22.11,22.11,0,0,1,14.9-5.7,17.2,17.2,0,0,1,3.2.2,19.47,19.47,0,0,0,.2-2.5,18.3,18.3,0,1,0-36.6,0,10.55,10.55,0,0,0,.2,2.5C46.9,54,48,53.9,49.1,53.9Z"/><path d="M61.9,69.8c.7,0,1.4.1,2.1.1a14.77,14.77,0,0,0,2.1-.1,13.87,13.87,0,0,0-2.1-4A30.47,30.47,0,0,0,61.9,69.8Z"/><path d="M98,0H30A30,30,0,0,0,0,30V98a30,30,0,0,0,30,30H98a30,30,0,0,0,30-30V30A30,30,0,0,0,98,0ZM78.9,99A22.61,22.61,0,0,1,64,93.3,22.11,22.11,0,0,1,49.1,99a22.57,22.57,0,0,1-7.4-43.9,19.83,19.83,0,0,1-.3-3.5,22.6,22.6,0,1,1,45.2,0,19.83,19.83,0,0,1-.3,3.5A22.57,22.57,0,0,1,78.9,99Z"/><path d="M67.2,73.9c-1,.1-2.1.2-3.2.2a17.2,17.2,0,0,1-3.2-.2,19.49,19.49,0,0,0-.2,2.5A18.58,18.58,0,0,0,64,87a18.34,18.34,0,0,0,3.4-10.6A21.06,21.06,0,0,0,67.2,73.9Z"/><path d="M85.2,59.3A23,23,0,0,1,71.3,73a19.83,19.83,0,0,1,.3,3.5,22.14,22.14,0,0,1-4.7,13.8A18.29,18.29,0,0,0,97.2,76.5,18.35,18.35,0,0,0,85.2,59.3Z"/></svg>