<?xml version="1.0" ?><svg data-name="Layer 1" id="Layer_1" viewBox="0 0 128 128" xmlns="http://www.w3.org/2000/svg"><title/><path d="M98,0H30A30,30,0,0,0,0,30V98a30,30,0,0,0,30,30H98a30,30,0,0,0,30-30V30A30,30,0,0,0,98,0ZM79.1,98.11H52A19.11,19.11,0,0,1,33,79.05V37.51l-3.43,3.43A2.89,2.89,0,0,1,28,41.7a2.89,2.89,0,0,1-1.52-.76,2.32,2.32,0,0,1,0-3l7.24-7.62c.38-.38.76-.38,1.52-.38s1.14,0,1.52.38L44,37.51a2.16,2.16,0,0,1-3,3l-3.43-3.43V79.05A14.48,14.48,0,0,0,52,93.54H79.1a2.2,2.2,0,0,1,2.29,2.29A2.46,2.46,0,0,1,79.1,98.11Zm22.11-8L94,97.35a2.89,2.89,0,0,1-1.52.76,2.89,2.89,0,0,1-1.52-.76l-7.24-7.24a2.16,2.16,0,0,1,3-3l3.43,3.43V48.95A14.48,14.48,0,0,0,75.67,34.46H53.57a2.46,2.46,0,0,1-2.29-2.29,2.46,2.46,0,0,1,2.29-2.29H75.67A19.11,19.11,0,0,1,94.73,48.95V90.11l3.43-3.43a2.32,2.32,0,0,1,3,0C102.35,87.44,102.35,89,101.21,90.11Z"/></svg>