<?xml version="1.0" ?><svg id="icons" viewBox="0 0 480 480" xmlns="http://www.w3.org/2000/svg"><defs><style>.cls-1{fill:#de0000;}.cls-2{fill:#950000;}.cls-3{fill:#e0dfe6;}.cls-4{fill:#b16a1a;}.cls-5{fill:#e0b66d;}.cls-6{fill:#fff;}.cls-7{fill:#66c8be;}.cls-8{fill:#6b8968;}</style></defs><title/><path class="cls-1" d="M204.4,405.45c-45.26-17-59.09-74.29-26.57-110.06l14.38-15.81a68.41,68.41,0,0,0,17.79-46V150H190v83.55a68.41,68.41,0,0,1-17.79,46l-14.38,15.81c-32.52,35.77-18.69,93.07,26.57,110.06h0a68.29,68.29,0,0,0,34.07,3.63,68.4,68.4,0,0,1-14.07-3.63Z"/><path class="cls-2" d="M261.1,385.09,324.24,309A68.41,68.41,0,0,0,340,265.31V150H210v83.55a68.41,68.41,0,0,1-17.79,46l-14.38,15.81c-32.52,35.77-18.69,93.07,26.57,110.06h0a68.4,68.4,0,0,0,14.07,3.63A68.37,68.37,0,0,0,261.1,385.09Z"/><path class="cls-3" d="M170,80H360a20,20,0,0,0-20-20H190A20,20,0,0,0,170,80Z"/><path class="cls-4" d="M180.67,152.84l9.35,4.68a11.13,11.13,0,0,0,10,0l10-5a11.13,11.13,0,0,1,10,0l10,5a11.13,11.13,0,0,0,10,0l10-5a11.13,11.13,0,0,1,10,0l10,5a11.13,11.13,0,0,0,10,0l10-5a11.13,11.13,0,0,1,10,0l9.93,5a11.13,11.13,0,0,0,10,0L330,152.47a11.13,11.13,0,0,1,9.93,0h0A11.13,11.13,0,0,0,356,143.22L360,80H170l4.55,63.67A11.13,11.13,0,0,0,180.67,152.84Z"/><path class="cls-5" d="M170,80l.5,7.06a19.11,19.11,0,0,1,27,0,9.16,9.16,0,0,0,5.58,2.65q.92,0,1.84,0a9.05,9.05,0,0,0,5.51-2.61,19.11,19.11,0,0,1,27.07,0,9.12,9.12,0,0,0,12.89,0,19.11,19.11,0,0,1,27,0l.08.07A9.07,9.07,0,0,0,283,89.77q.91,0,1.82,0a9.07,9.07,0,0,0,5.54-2.62l.09-.09a19.11,19.11,0,0,1,27,0,9.11,9.11,0,0,0,12.95.06A19.1,19.1,0,0,1,343,81.56a9.19,9.19,0,0,1,1.94,0,19,19,0,0,1,12.55,5.54L359.44,89l.56-9h0c0-.15,0-.29,0-.44l-2.46-2.46a19.15,19.15,0,0,0-27.07,0,9.11,9.11,0,0,1-12.95-.06,19.11,19.11,0,0,0-27,0l-.09.09a9.12,9.12,0,0,1-12.89,0l-.08-.07a19.11,19.11,0,0,0-27,0,9.12,9.12,0,0,1-12.89,0,19.11,19.11,0,0,0-27.07,0,9.14,9.14,0,0,1-12.93,0,19.11,19.11,0,0,0-27,0l-.29.29A20.07,20.07,0,0,0,170,80Z"/><path class="cls-6" d="M357.52,87.1A19,19,0,0,0,345,81.56a9.19,9.19,0,0,0-1.94,0,19.1,19.1,0,0,0-12.58,5.58,9.11,9.11,0,0,1-12.95-.06,19.11,19.11,0,0,0-27,0l-.09.09a9.07,9.07,0,0,1-5.54,2.62q-.91,0-1.82,0a9.07,9.07,0,0,1-5.53-2.62l-.08-.07a19.11,19.11,0,0,0-27,0,9.12,9.12,0,0,1-12.89,0,19.11,19.11,0,0,0-27.07,0,9.05,9.05,0,0,1-5.51,2.61q-.92,0-1.84,0a9.16,9.16,0,0,1-5.58-2.65,19.11,19.11,0,0,0-27,0l.28,3.86.67,9.33,6.11-6.11a9.11,9.11,0,0,1,12.93,0,19.15,19.15,0,0,0,27.07,0,9.11,9.11,0,0,1,12.89,0,19.11,19.11,0,0,0,27,0,9.11,9.11,0,0,1,12.89,0l.08.08a19.13,19.13,0,0,0,27,0l.09-.09a9.11,9.11,0,0,1,12.95.06,19.11,19.11,0,0,0,27.07,0,9.12,9.12,0,0,1,12.89,0l8.16,8.16.59-9.41.24-3.9Z"/><path class="cls-7" d="M333.9,293.54a68.4,68.4,0,0,0,6.1-28.23v-18a7.89,7.89,0,1,1,0-12V210h-6.82a53.79,53.79,0,0,0-5.49.28,7.88,7.88,0,0,1-15.17,3.88,53.2,53.2,0,0,0-32.52,49v32.18a7.87,7.87,0,0,1,0,12v55L324.24,309q1.81-2.18,3.42-4.49a7.88,7.88,0,0,1,6.24-11Zm-29-60.07a7.89,7.89,0,1,1-7.89,7.89A7.89,7.89,0,0,1,304.89,233.47ZM282,271.36a7.89,7.89,0,1,1,7.89,7.89A7.89,7.89,0,0,1,282,271.36Zm7.89,67.89a7.89,7.89,0,1,1,7.89-7.89A7.89,7.89,0,0,1,289.89,339.25Zm15-30a7.89,7.89,0,1,1,7.89-7.89A7.89,7.89,0,0,1,304.89,309.25Zm15-30a7.89,7.89,0,1,1,7.89-7.89A7.89,7.89,0,0,1,319.89,279.25Z"/><circle class="cls-3" cx="304.89" cy="241.36" r="7.89"/><path class="cls-3" d="M327,241.36a7.88,7.88,0,0,0,13,6v-12a7.88,7.88,0,0,0-13,6Z"/><circle class="cls-3" cx="319.89" cy="271.36" r="7.89"/><path class="cls-3" d="M327,301.36a7.85,7.85,0,0,0,.66,3.14,68.38,68.38,0,0,0,6.24-11A7.88,7.88,0,0,0,327,301.36Z"/><circle class="cls-3" cx="304.89" cy="301.36" r="7.89"/><path class="cls-3" d="M282.77,301.36a7.86,7.86,0,0,0-2.77-6v12A7.86,7.86,0,0,0,282.77,301.36Z"/><circle class="cls-3" cx="289.89" cy="271.36" r="7.89"/><circle class="cls-3" cx="289.89" cy="331.36" r="7.89"/><path class="cls-3" d="M319.89,219.25a7.83,7.83,0,0,0,7.8-9,52.84,52.84,0,0,0-15.17,3.88A7.88,7.88,0,0,0,319.89,219.25Z"/><rect class="cls-5" height="5.86" transform="translate(-70.45 189.91) rotate(-45)" width="5.86" x="191.09" y="177.07"/><polygon class="cls-8" points="234.01 175.86 224.01 165.86 214.01 175.86 218.16 180 214.01 184.14 224.01 194.14 234.01 184.14 229.87 180 234.01 175.86"/><rect class="cls-4" height="5.86" transform="translate(-64.6 204.05) rotate(-45)" width="5.86" x="211.09" y="177.07"/><polygon class="cls-8" points="254.01 175.86 244.01 165.86 234.01 175.86 238.16 180 234.01 184.14 244.01 194.14 254.01 184.14 249.87 180 254.01 175.86"/><rect class="cls-4" height="5.86" transform="translate(-58.74 218.19) rotate(-45)" width="5.86" x="231.09" y="177.07"/><polygon class="cls-8" points="274.01 175.86 264.01 165.86 254.01 175.86 258.16 180 254.01 184.14 264.01 194.14 274.01 184.14 269.87 180 274.01 175.86"/><rect class="cls-4" height="5.86" transform="translate(-52.88 232.34) rotate(-45)" width="5.86" x="251.09" y="177.07"/><polygon class="cls-8" points="294.01 175.86 284.01 165.86 274.01 175.86 278.16 180 274.01 184.14 284.01 194.14 294.01 184.14 289.87 180 294.01 175.86"/><rect class="cls-4" height="5.86" transform="translate(-47.02 246.48) rotate(-45)" width="5.86" x="271.09" y="177.07"/><polygon class="cls-8" points="314.01 175.86 304.01 165.86 294.01 175.86 298.16 180 294.01 184.14 304.01 194.14 314.01 184.14 309.87 180 314.01 175.86"/><rect class="cls-4" height="5.86" transform="translate(-41.16 260.62) rotate(-45)" width="5.86" x="291.09" y="177.07"/><polygon class="cls-8" points="334.01 175.86 324.01 165.86 314.01 175.86 318.16 180 314.01 184.14 324.01 194.14 334.01 184.14 329.87 180 334.01 175.86"/><rect class="cls-4" height="5.86" transform="translate(-35.31 274.76) rotate(-45)" width="5.86" x="311.09" y="177.07"/><rect class="cls-4" height="5.86" transform="translate(-29.45 288.9) rotate(-45)" width="5.86" x="331.09" y="177.07"/><polygon class="cls-7" points="190 180.13 190 188.16 194.01 184.14 190 180.13"/><polygon class="cls-7" points="194.01 175.86 190 171.84 190 179.87 194.01 175.86"/><polygon class="cls-8" points="214.01 184.14 210 180.13 210 188.16 214.01 184.14"/><polygon class="cls-8" points="214.01 175.86 210 171.84 210 179.87 214.01 175.86"/><polygon class="cls-7" points="194.01 175.86 198.16 180 194.01 184.14 204.01 194.14 210 188.16 210 180.13 209.87 180 210 179.87 210 171.84 204.01 165.86 194.01 175.86"/><polygon class="cls-8" points="334.01 175.86 338.16 180 334.01 184.14 340 190.13 340 169.87 334.01 175.86"/></svg>