<?xml version="1.0" ?><svg id="icons" viewBox="0 0 480 480" xmlns="http://www.w3.org/2000/svg"><defs><style>.cls-1{fill:#de0000;}.cls-2{fill:#e6faff;}.cls-3{fill:#950000;}.cls-4{fill:#d2f5ff;}.cls-5{fill:#64898d;}.cls-6{fill:#66c8be;}.cls-7{fill:#ba0000;}</style></defs><title/><path class="cls-1" d="M295.34,91.21l40.73,1.31A88,88,0,0,0,295.34,91.21Z"/><path class="cls-2" d="M332.47,119.78l46.75,1.51a82.93,82.93,0,0,0-43.15-28.76l-40.73-1.31c-15.27,3-31.16,10-46.84,21.74a19.72,19.72,0,0,0-4,4l51.37,1.66C309.59,114.22,322.28,115.11,332.47,119.78Z"/><polygon class="cls-2" points="342.69 256.99 301.58 255.66 274.64 282.6 315.75 283.93 342.69 256.99"/><path class="cls-2" d="M386.13,203.63l-37.33-1.2a102.21,102.21,0,0,1-18.48,24.49l-2.23,2.23,40.26,1.3A134.88,134.88,0,0,0,386.13,203.63Z"/><polygon class="cls-2" points="289.23 310.45 248.12 309.13 221.61 335.64 262.71 336.96 289.23 310.45"/><path class="cls-2" d="M396.75,166.36a85.13,85.13,0,0,0-3.19-17.24l-38.23-1.23a49.76,49.76,0,0,1,.79,18.26,49.57,49.57,0,0,1,.44,9.15l38.8,1.25A93.76,93.76,0,0,0,396.75,166.36Z"/><polygon class="cls-2" points="236.19 363.48 195.09 362.16 168.57 388.68 209.67 390 236.19 363.48"/><path class="cls-1" d="M379.22,121.29l-46.75-1.51a40.91,40.91,0,0,1,22.87,28.11l38.23,1.23A83.18,83.18,0,0,0,379.22,121.29Z"/><path class="cls-1" d="M246.48,128.92h0a20,20,0,0,0,26,2,81.09,81.09,0,0,1,23.41-12.32l-51.37-1.66a19.7,19.7,0,0,0-2.65,4.85A20,20,0,0,0,246.48,128.92Z"/><path class="cls-1" d="M395.37,176.55l-38.8-1.25a64.19,64.19,0,0,1-7.76,27.12l37.33,1.2A105.48,105.48,0,0,0,395.37,176.55Z"/><path class="cls-1" d="M358.61,241.06q5.27-5.27,9.75-10.62l-40.26-1.3-26.52,26.52,41.1,1.32Z"/><polygon class="cls-1" points="315.75 283.93 274.64 282.6 248.12 309.13 289.23 310.45 315.75 283.93"/><polygon class="cls-1" points="262.71 336.96 221.61 335.64 195.09 362.16 236.19 363.48 262.71 336.96"/><path class="cls-1" d="M163.14,396.62A20,20,0,0,0,196,403.69L209.67,390l-41.1-1.32-.87.87A19.9,19.9,0,0,0,163.14,396.62Z"/><path class="cls-3" d="M244.52,116.94l-3.81-.12a20.09,20.09,0,0,0,1.16,5A19.7,19.7,0,0,1,244.52,116.94Z"/><path class="cls-4" d="M248.5,112.95c15.68-11.77,31.57-18.73,46.84-21.74l-33.76-1.09a135.22,135.22,0,0,0-13.07,8.69,19.82,19.82,0,0,0-7.79,18l3.81.12A19.72,19.72,0,0,1,248.5,112.95Z"/><path class="cls-4" d="M379.22,121.29l9.08.29a83,83,0,0,0-22.64-28.1l-29.6-1A82.93,82.93,0,0,1,379.22,121.29Z"/><path class="cls-4" d="M396.75,166.36a88.35,88.35,0,0,0-.31-17.15l-2.88-.09A85.13,85.13,0,0,1,396.75,166.36Z"/><path class="cls-4" d="M356.13,166.15a60.46,60.46,0,0,1-2,9.07l2.42.08A49.57,49.57,0,0,0,356.13,166.15Z"/><polygon class="cls-4" points="301.58 255.66 287.88 255.22 260.94 282.16 274.64 282.6 301.58 255.66"/><path class="cls-4" d="M330.33,226.92a102.21,102.21,0,0,0,18.48-24.49l-9-.29a116.42,116.42,0,0,1-9.44,10.64L314.4,228.7l13.7.44Z"/><path class="cls-4" d="M195.09,362.16l-13.7-.44-13.69,13.69a19.88,19.88,0,0,0-5.81,13.06l6.68.22Z"/><polygon class="cls-4" points="248.12 309.13 234.42 308.68 207.91 335.2 221.61 335.64 248.12 309.13"/><path class="cls-3" d="M393.56,149.12l2.88.09a84.08,84.08,0,0,0-8.14-27.63l-9.08-.29A83.18,83.18,0,0,1,393.56,149.12Z"/><path class="cls-3" d="M336.07,92.52l29.6,1c-26-20.76-65-26.16-104.09-3.36l33.76,1.09A88,88,0,0,1,336.07,92.52Z"/><path class="cls-3" d="M356.57,175.3l-2.42-.08a81.76,81.76,0,0,1-14.39,26.91l9,.29A64.19,64.19,0,0,0,356.57,175.3Z"/><polygon class="cls-3" points="328.1 229.14 314.4 228.7 287.88 255.22 301.58 255.66 328.1 229.14"/><polygon class="cls-3" points="274.64 282.6 260.94 282.16 234.42 308.68 248.12 309.13 274.64 282.6"/><polygon class="cls-3" points="221.61 335.64 207.91 335.2 181.39 361.72 195.09 362.16 221.61 335.64"/><path class="cls-3" d="M163.14,396.62a19.9,19.9,0,0,1,4.55-7.07l.87-.87-6.68-.22A20.1,20.1,0,0,0,163.14,396.62Z"/><rect class="cls-5" height="70" transform="translate(278.57 -105.55) rotate(45)" width="10" x="261.69" y="248.48"/><rect class="cls-6" height="70" transform="translate(268.96 706.66) rotate(-135)" width="30" x="265.83" y="262.63"/><rect class="cls-6" height="20" transform="translate(279.53 -143.22) rotate(45)" width="30" x="297.65" y="255.81"/><rect class="cls-5" height="20" transform="translate(265.39 -137.37) rotate(45)" width="10" x="293.51" y="241.66"/><path class="cls-1" d="M285,287.13l-3.77-45.19a15.87,15.87,0,0,0-2.82-3.82h0c-10.78-10.78-29.08-1.63-26.93,13.46l.34,2.38Z"/><path class="cls-1" d="M285,287.13l45.19,3.77a15.87,15.87,0,0,1,3.82,2.82h0c10.78,10.78,1.63,29.08-13.46,26.93l-2.38-.34Z"/><path class="cls-3" d="M285,287.13l-45.19-3.77a15.87,15.87,0,0,1-3.82-2.82h0c-10.78-10.78-1.63-29.08,13.46-26.93l2.38.34Z"/><path class="cls-3" d="M285,287.13l3.77,45.19a15.87,15.87,0,0,0,2.82,3.82h0c10.78,10.78,29.08,1.63,26.93-13.46l-.34-2.38Z"/><path class="cls-7" d="M302.21,304.37c19.53-19.53-10.58-49.63-30.11-30.11h0c-19.53,19.53,10.58,49.63,30.11,30.11Z"/></svg>