<?xml version="1.0" ?><svg id="icons" viewBox="0 0 480 480" xmlns="http://www.w3.org/2000/svg"><defs><style>.cls-1{fill:#950000;}.cls-2{fill:#e00000;}.cls-3{fill:#e0dfe6;}.cls-4{fill:#fff;}.cls-5{fill:#b16a1a;}.cls-6{fill:#003000;}.cls-7{fill:#004c00;}.cls-8{fill:#e0b66d;}.cls-9{fill:#de0000;}.cls-10{fill:#64898d;}.cls-11{fill:#66c8be;}</style></defs><title/><rect class="cls-1" height="300.2" width="180" x="90" y="119.8"/><rect class="cls-2" height="300.02" width="60" x="270" y="119.98"/><polygon class="cls-1" points="269.72 80 150 120 270 119.8 269.72 80"/><polygon class="cls-2" points="150 120 90 119.8 269.7 60 269.7 80 150 120"/><path class="cls-3" d="M260,120l-.15.15a13.93,13.93,0,0,1-19.71,0L240,120l-.15.15a13.93,13.93,0,0,1-19.71,0L220,120l-.15.15a13.93,13.93,0,0,1-19.71,0L200,120l-.22.22a13.93,13.93,0,0,1-19.64.07l-.29-.29h0a13.93,13.93,0,0,1-19.78.07L160,120l-.15.15a13.93,13.93,0,0,1-19.71,0L140,120l-.15.15a13.93,13.93,0,0,1-19.71,0L120,120l-.15.15a13.93,13.93,0,0,1-19.71,0L100,120Z"/><path class="cls-3" d="M100,120H90v4.14A14.1,14.1,0,0,0,100,120Z"/><path class="cls-4" d="M320,120h0a14.14,14.14,0,0,1-20,0h0a14.14,14.14,0,0,1-20,0h40Z"/><path class="cls-3" d="M260,120h0a14.1,14.1,0,0,0,10,4.14V120Z"/><path class="cls-4" d="M280,120H270v4.14A14.1,14.1,0,0,0,280,120Z"/><path class="cls-4" d="M320,120h0a14.1,14.1,0,0,0,10,4.14V120Z"/><rect class="cls-5" height="21.86" width="10" x="116.14" y="398.14"/><path class="cls-6" d="M115.76,387.7l-6.13,9.2a2.27,2.27,0,0,0,1.89,3.53h0L120,387.7Z"/><path class="cls-6" d="M111.51,400.43l-6.13,9.2a2.27,2.27,0,0,0,1.89,3.53h0l8.49-12.73Z"/><path class="cls-6" d="M117.88,378.16l-4,6a2.27,2.27,0,0,0,1.89,3.53h0l6.37-9.55h0A2.55,2.55,0,0,0,117.88,378.16Z"/><path class="cls-7" d="M130.38,396.9l-6.13-9.2h0a2.27,2.27,0,0,0,1.89-3.53l-4-6-6.37,9.55H120l-8.49,12.73h4.24l-8.49,12.73h25.46a2.27,2.27,0,0,0,1.89-3.53l-6.13-9.2h0A2.27,2.27,0,0,0,130.38,396.9Z"/><circle class="cls-8" cx="120.18" cy="393.95" r="0.95"/><circle class="cls-8" cx="127.43" cy="404.96" r="1.06"/><circle class="cls-1" cx="121.14" cy="408.14" r="0.75"/><circle class="cls-8" cx="122.22" cy="384.17" r="1.09"/><circle class="cls-1" cx="126.57" cy="395.95" r="0.86"/><circle class="cls-9" cx="120.18" cy="400.43" r="0.77"/><circle class="cls-9" cx="112.35" cy="409.73" r="0.84"/><rect class="cls-5" height="21.86" width="10" x="176.14" y="398.14"/><path class="cls-6" d="M175.76,387.7l-6.13,9.2a2.27,2.27,0,0,0,1.89,3.53h0L180,387.7Z"/><path class="cls-6" d="M171.51,400.43l-6.13,9.2a2.27,2.27,0,0,0,1.89,3.53h0l8.49-12.73Z"/><path class="cls-6" d="M177.88,378.16l-4,6a2.27,2.27,0,0,0,1.89,3.53h0l6.37-9.55h0A2.55,2.55,0,0,0,177.88,378.16Z"/><path class="cls-7" d="M190.38,396.9l-6.13-9.2h0a2.27,2.27,0,0,0,1.89-3.53l-4-6-6.37,9.55H180l-8.49,12.73h4.24l-8.49,12.73h25.46a2.27,2.27,0,0,0,1.89-3.53l-6.13-9.2h0A2.27,2.27,0,0,0,190.38,396.9Z"/><circle class="cls-8" cx="180.18" cy="393.95" r="0.95"/><circle class="cls-8" cx="187.43" cy="404.96" r="1.06"/><circle class="cls-1" cx="181.14" cy="408.14" r="0.75"/><circle class="cls-8" cx="182.22" cy="384.17" r="1.09"/><circle class="cls-1" cx="186.57" cy="395.95" r="0.86"/><circle class="cls-9" cx="180.18" cy="400.43" r="0.77"/><circle class="cls-9" cx="172.35" cy="409.73" r="0.84"/><rect class="cls-5" height="21.86" width="10" x="236.14" y="398.14"/><path class="cls-6" d="M235.76,387.7l-6.13,9.2a2.27,2.27,0,0,0,1.89,3.53h0L240,387.7Z"/><path class="cls-6" d="M231.51,400.43l-6.13,9.2a2.27,2.27,0,0,0,1.89,3.53h0l8.49-12.73Z"/><path class="cls-6" d="M237.88,378.16l-4,6a2.27,2.27,0,0,0,1.89,3.53h0l6.37-9.55h0A2.55,2.55,0,0,0,237.88,378.16Z"/><path class="cls-7" d="M250.38,396.9l-6.13-9.2h0a2.27,2.27,0,0,0,1.89-3.53l-4-6-6.37,9.55H240l-8.49,12.73h4.24l-8.49,12.73h25.46a2.27,2.27,0,0,0,1.89-3.53l-6.13-9.2h0A2.27,2.27,0,0,0,250.38,396.9Z"/><circle class="cls-8" cx="240.18" cy="393.95" r="0.95"/><circle class="cls-8" cx="247.43" cy="404.96" r="1.06"/><circle class="cls-1" cx="241.14" cy="408.14" r="0.75"/><circle class="cls-8" cx="242.22" cy="384.17" r="1.09"/><circle class="cls-1" cx="246.57" cy="395.95" r="0.86"/><circle class="cls-9" cx="240.18" cy="400.43" r="0.77"/><circle class="cls-9" cx="232.35" cy="409.73" r="0.84"/><rect class="cls-8" height="21.86" width="10" x="296.14" y="398.14"/><path class="cls-6" d="M295.76,387.7l-6.13,9.2a2.27,2.27,0,0,0,1.89,3.53h0L300,387.7Z"/><path class="cls-6" d="M291.51,400.43l-6.13,9.2a2.27,2.27,0,0,0,1.89,3.53h0l8.49-12.73Z"/><path class="cls-6" d="M297.88,378.16l-4,6a2.27,2.27,0,0,0,1.89,3.53h0l6.37-9.55h0A2.55,2.55,0,0,0,297.88,378.16Z"/><path class="cls-7" d="M310.38,396.9l-6.13-9.2h0a2.27,2.27,0,0,0,1.89-3.53l-4-6-6.37,9.55H300l-8.49,12.73h4.24l-8.49,12.73h25.46a2.27,2.27,0,0,0,1.89-3.53l-6.13-9.2h0A2.27,2.27,0,0,0,310.38,396.9Z"/><circle class="cls-5" cx="300.18" cy="393.95" r="0.95"/><circle class="cls-5" cx="307.43" cy="404.96" r="1.06"/><circle class="cls-9" cx="301.14" cy="408.14" r="0.75"/><circle class="cls-5" cx="302.22" cy="384.17" r="1.09"/><circle class="cls-9" cx="306.57" cy="395.95" r="0.86"/><circle class="cls-1" cx="300.18" cy="400.43" r="0.77"/><circle class="cls-1" cx="292.35" cy="409.73" r="0.84"/><circle class="cls-5" cx="127.43" cy="174.74" r="12.1"/><circle class="cls-10" cx="125" cy="330" r="15.76"/><circle class="cls-3" cx="246.57" cy="294.48" r="9.49"/><circle class="cls-5" cx="197.98" cy="350" r="9.49"/><circle class="cls-3" cx="183.31" cy="150" r="9.49"/><circle class="cls-5" cx="260" cy="177.82" r="4.75"/><circle class="cls-3" cx="179.42" cy="215.14" r="2.37"/><circle class="cls-10" cx="147.54" cy="270.51" r="4.75"/><circle class="cls-2" cx="150" cy="377.02" r="2.9"/><circle class="cls-8" cx="106.46" cy="140.51" r="2.9"/><circle class="cls-10" cx="207.47" cy="172.97" r="2.9"/><circle class="cls-2" cx="213.89" cy="227.44" r="4.75"/><circle class="cls-8" cx="307.43" cy="191.52" r="4.75"/><circle class="cls-3" cx="184.6" cy="297.07" r="4.75"/><circle class="cls-2" cx="135" cy="232.38" r="2.9"/><circle class="cls-5" cx="232.35" cy="332.63" r="2.9"/><circle class="cls-3" cx="260" cy="234.24" r="2.9"/><path class="cls-11" d="M304.24,250A15.76,15.76,0,0,0,330,262.19V237.81A15.76,15.76,0,0,0,304.24,250Z"/><path class="cls-8" d="M324.5,310a9.49,9.49,0,1,0,5.5,17.21V311.77A9.44,9.44,0,0,0,324.5,310Z"/><path class="cls-10" d="M269.71,135.25a4.75,4.75,0,0,0,0,9.49c.1,0,.2,0,.29,0v-9.43C269.9,135.28,269.81,135.25,269.71,135.25Z"/><path class="cls-11" d="M274.45,140a4.73,4.73,0,0,0-4.45-4.72v9.43A4.73,4.73,0,0,0,274.45,140Z"/><path class="cls-8" d="M94.75,257.39a4.73,4.73,0,0,0-4.45-4.72v9.43A4.73,4.73,0,0,0,94.75,257.39Z"/><path class="cls-8" d="M269.71,338.31a4.75,4.75,0,0,0,0,9.49c.1,0,.2,0,.29,0v-9.43C269.9,338.33,269.81,338.31,269.71,338.31Z"/><path class="cls-8" d="M274.45,343.05a4.73,4.73,0,0,0-4.45-4.72v9.43A4.73,4.73,0,0,0,274.45,343.05Z"/><path class="cls-8" d="M325.26,150a4.75,4.75,0,0,0,4.75,4.75v-9.49A4.75,4.75,0,0,0,325.26,150Z"/><polygon class="cls-8" points="163.89 199.62 162.48 198.21 163.89 199.62 162.48 198.21 163.89 199.62 161.63 198.77 160.64 200.97 159.64 198.77 157.39 199.62 158.8 198.21 157.39 199.62 158.8 198.21 157.39 199.62 158.24 197.36 156.04 196.37 158.24 195.37 157.39 193.11 158.8 194.53 157.39 193.11 158.8 194.53 157.39 193.11 159.64 193.96 160.64 191.77 161.63 193.96 163.89 193.11 162.48 194.53 163.89 193.11 162.48 194.53 163.89 193.11 163.04 195.37 165.24 196.37 163.04 197.36 163.89 199.62"/><polygon class="cls-3" points="189.38 251.64 190.81 254.53 194 255 191.69 257.25 192.24 260.43 189.38 258.93 186.52 260.43 187.07 257.25 184.76 255 187.95 254.53 189.38 251.64"/><polygon class="cls-11" points="296.73 224.37 295.32 222.96 296.73 224.37 295.32 222.96 296.73 224.37 294.48 223.52 293.48 225.72 292.49 223.52 290.23 224.37 291.64 222.96 290.23 224.37 291.64 222.96 290.23 224.37 291.08 222.11 288.88 221.12 291.08 220.12 290.23 217.86 291.64 219.28 290.23 217.86 291.64 219.28 290.23 217.86 292.49 218.71 293.48 216.52 294.48 218.71 296.73 217.86 295.32 219.28 296.73 217.86 295.32 219.28 296.73 217.86 295.88 220.12 298.08 221.12 295.88 222.11 296.73 224.37"/><polygon class="cls-8" points="156.91 341.37 158.34 344.26 161.53 344.73 159.22 346.98 159.77 350.16 156.91 348.66 154.05 350.16 154.6 346.98 152.29 344.73 155.48 344.26 156.91 341.37"/><polygon class="cls-3" points="101.6 201.88 100.18 200.47 101.6 201.88 100.18 200.47 101.6 201.88 99.34 201.03 98.34 203.23 97.35 201.03 95.09 201.88 96.51 200.47 95.09 201.88 96.51 200.47 95.09 201.88 95.94 199.62 93.75 198.63 95.94 197.63 95.09 195.38 96.51 196.79 95.09 195.38 96.51 196.79 95.09 195.38 97.35 196.22 98.34 194.03 99.34 196.22 101.6 195.38 100.18 196.79 101.6 195.38 100.18 196.79 101.6 195.38 100.75 197.63 102.94 198.63 100.75 199.62 101.6 201.88"/><polygon class="cls-3" points="240.39 135.51 241.82 138.4 245.01 138.87 242.7 141.12 243.25 144.3 240.39 142.8 237.53 144.3 238.08 141.12 235.77 138.87 238.96 138.4 240.39 135.51"/><polygon class="cls-3" points="295.61 297.73 294.19 296.32 295.61 297.73 294.19 296.32 295.61 297.73 293.35 296.88 292.35 299.08 291.36 296.88 289.1 297.73 290.51 296.32 289.1 297.73 290.51 296.32 289.1 297.73 289.95 295.47 287.75 294.48 289.95 293.48 289.1 291.23 290.51 292.64 289.1 291.23 290.51 292.64 289.1 291.23 291.36 292.07 292.35 289.88 293.35 292.07 295.61 291.23 294.19 292.64 295.61 291.23 294.19 292.64 295.61 291.23 294.75 293.48 296.95 294.48 294.75 295.47 295.61 297.73"/><polygon class="cls-3" points="299.42 139.9 300.85 142.8 304.04 143.26 301.73 145.51 302.27 148.7 299.42 147.19 296.56 148.7 297.11 145.51 294.8 143.26 297.99 142.8 299.42 139.9"/><polygon class="cls-8" points="297.66 356.98 296.66 355.98 297.66 356.98 296.66 355.98 297.66 356.98 296.07 356.38 295.37 357.92 294.67 356.38 293.07 356.98 294.07 355.98 293.07 356.98 294.07 355.98 293.07 356.98 293.67 355.39 292.13 354.68 293.67 353.98 293.07 352.39 294.07 353.39 293.07 352.39 294.07 353.39 293.07 352.39 294.67 352.99 295.37 351.44 296.07 352.99 297.66 352.39 296.66 353.39 297.66 352.39 296.66 353.39 297.66 352.39 297.06 353.98 298.61 354.69 297.06 355.39 297.66 356.98"/><polygon class="cls-8" points="287.27 169.87 288.28 171.91 290.52 172.24 288.9 173.82 289.28 176.06 287.27 175.01 285.26 176.06 285.64 173.82 284.01 172.24 286.26 171.91 287.27 169.87"/><polygon class="cls-3" points="242.29 206.93 241.29 205.94 242.29 206.93 241.29 205.94 242.29 206.93 240.7 206.34 240 207.88 239.3 206.34 237.71 206.93 238.71 205.94 237.71 206.93 238.71 205.94 237.71 206.93 238.31 205.34 236.76 204.64 238.31 203.94 237.71 202.35 238.71 203.35 237.71 202.35 238.71 203.35 237.71 202.35 239.3 202.95 240 201.4 240.7 202.95 242.29 202.35 241.29 203.35 242.29 202.35 241.29 203.35 242.29 202.35 241.69 203.94 243.24 204.64 241.69 205.34 242.29 206.93"/><polygon class="cls-11" points="136.51 145.32 135.51 144.33 136.51 145.32 135.51 144.33 136.51 145.32 134.92 144.72 134.22 146.27 133.52 144.72 131.93 145.32 132.92 144.33 131.93 145.32 132.92 144.33 131.93 145.32 132.53 143.73 130.98 143.03 132.53 142.33 131.93 140.74 132.92 141.74 131.93 140.74 132.92 141.74 131.93 140.74 133.52 141.34 134.22 139.79 134.92 141.34 136.51 140.74 135.51 141.74 136.51 140.74 135.51 141.74 136.51 140.74 135.91 142.33 137.46 143.03 135.91 143.73 136.51 145.32"/><polygon class="cls-11" points="98.34 362.31 99.35 364.35 101.6 364.68 99.97 366.26 100.36 368.5 98.34 367.45 96.33 368.5 96.72 366.26 95.09 364.68 97.34 364.35 98.34 362.31"/><polygon class="cls-11" points="231.53 262.45 230.53 261.45 231.53 262.45 230.53 261.45 231.53 262.45 229.94 261.85 229.24 263.39 228.54 261.85 226.95 262.45 227.94 261.45 226.95 262.45 227.94 261.45 226.95 262.45 227.55 260.86 226 260.15 227.55 259.45 226.95 257.86 227.94 258.86 226.95 257.86 227.94 258.86 226.95 257.86 228.54 258.46 229.24 256.92 229.94 258.46 231.53 257.86 230.53 258.86 231.53 257.86 230.53 258.86 231.53 257.86 230.93 259.45 232.48 260.15 230.93 260.86 231.53 262.45"/><polygon class="cls-3" points="126.37 290.44 127.38 292.48 129.63 292.81 128 294.4 128.39 296.64 126.37 295.58 124.36 296.64 124.75 294.4 123.12 292.81 125.37 292.48 126.37 290.44"/><path class="cls-3" d="M260,420l-.15-.15a13.93,13.93,0,0,0-19.71,0L240,420l-.15-.15a13.93,13.93,0,0,0-19.71,0L220,420l-.15-.15a13.93,13.93,0,0,0-19.71,0L200,420l-.22-.22a13.93,13.93,0,0,0-19.64-.07l-.29.29h0a13.93,13.93,0,0,0-19.78-.07L160,420l-.15-.15a13.93,13.93,0,0,0-19.71,0L140,420l-.15-.15a13.93,13.93,0,0,0-19.71,0L120,420l-.15-.15a13.93,13.93,0,0,0-19.71,0L100,420Z"/><path class="cls-3" d="M100,420H90v-4.14A14.1,14.1,0,0,1,100,420Z"/><path class="cls-4" d="M320,420h0a14.14,14.14,0,0,0-20,0h0a14.14,14.14,0,0,0-20,0h40Z"/><path class="cls-3" d="M260,420h0a14.1,14.1,0,0,1,10-4.14V420Z"/><path class="cls-4" d="M280,420H270v-4.14A14.1,14.1,0,0,1,280,420Z"/><path class="cls-4" d="M320,420h0a14.1,14.1,0,0,1,10-4.14V420Z"/></svg>