<?xml version="1.0" ?><svg id="icons" viewBox="0 0 480 480" xmlns="http://www.w3.org/2000/svg"><defs><style>.cls-1{fill:#d2f5ff;}.cls-2{fill:#abe9ff;}</style></defs><title/><path class="cls-1" d="M208,227.5a5,5,0,0,0-1.29,4.83l9,33.46a5,5,0,0,0,3.54,3.54l33.46,9A5,5,0,0,0,257.5,277l12.25-12.25-49.5-49.5Zm25.7,35.36-9.11-2.44-2.44-9.11,15.78-4.23Zm25.44-1.64-6.67,6.67-9.11-2.44,4.23-15.78Zm-39.58-19.57-2.44-9.11,6.67-6.67,11.55,11.55Z"/><path class="cls-1" d="M261.44,301.34,231,293.18l-.18-.07-.19,0-30.48-8.17-16.44-61.34L206,201.25l.15-.12-77.77-77.77a5,5,0,0,0,0,7.07L141,143.08H110.65a5,5,0,0,0,0,10H151l11.21,11.21H131.86a5,5,0,1,0,0,10h40.35l23.28,23.28-21,21a5,5,0,0,0-1.29,4.83L180.92,252l-31.81,8.52-34.95-20.18a5,5,0,0,0-5,8.66l26.29,15.18-15.32,4.1L85.19,248.1a5,5,0,0,0-5,8.66l26.29,15.18-17.32,4.64a5,5,0,0,0,2.59,9.66l17.32-4.64L93.89,307.89a5,5,0,1,0,8.66,5l20.18-34.95,15.32-4.1-15.18,26.29a5,5,0,1,0,8.66,5l20.18-34.95,31.81-8.52,7.67,28.63a5,5,0,0,0,3.54,3.54l28.63,7.67-8.52,31.81-34.95,20.18a5,5,0,1,0,5,8.66L211.16,347l-4.1,15.32-34.95,20.18a5,5,0,1,0,5,8.66l26.29-15.18-4.63,17.29a5,5,0,1,0,9.66,2.59l4.63-17.29,15.18,26.29a5,5,0,1,0,8.66-5l-20.18-34.95,4.1-15.32L236,375.84a5,5,0,1,0,8.66-5l-20.18-34.95L233,304.08l28.63,7.67a5,5,0,0,0,4.83-1.29l21-21,23.28,23.28v40.35a5,5,0,1,0,10,0V322.78L331.92,334v40.35a5,5,0,1,0,10,0V344l12.68,12.68a5,5,0,0,0,7.07,0l-77.78-77.78Z"/><path class="cls-2" d="M220.25,215.25l49.5,49.5L282,252.5a5,5,0,0,0,1.29-4.83l-9-33.46a5,5,0,0,0-3.54-3.54l-33.46-9A5,5,0,0,0,232.5,203Zm31.82,17.68,4.23-15.78,9.11,2.44,2.44,9.11Zm2.59,9.66,15.78-4.23,2.44,9.11-6.67,6.67Zm-12.25-12.25-11.55-11.55,6.67-6.67,9.11,2.44Z"/><path class="cls-2" d="M306.34,256.44,298.18,226c0-.06-.05-.12-.07-.18s0-.13,0-.19l-8.17-30.48-61.34-16.44L206.25,201s-.08.1-.12.15l-77.77-77.77a5,5,0,0,1,7.07,0L148.08,136V105.65a5,5,0,1,1,10,0V146l11.21,11.21V126.86a5,5,0,0,1,10,0v40.35l23.28,23.28,21-21a5,5,0,0,1,4.83-1.29L257,175.92l8.52-31.81-20.18-34.95a5,5,0,0,1,8.66-5l15.18,26.29,4.1-15.32L253.1,80.19a5,5,0,0,1,8.66-5l15.18,26.29,4.64-17.32a5,5,0,1,1,9.66,2.59l-4.64,17.32,26.29-15.18a5,5,0,1,1,5,8.66l-34.95,20.18L278.84,133l26.29-15.18a5,5,0,1,1,5,8.66L275.18,146.7l-8.52,31.81,28.63,7.67a5,5,0,0,1,3.54,3.54l7.67,28.63,31.81-8.52,20.18-34.95a5,5,0,1,1,8.66,5L352,206.16l15.32-4.1,20.18-34.95a5,5,0,1,1,8.66,5L380.94,198.4l17.29-4.63a5,5,0,1,1,2.59,9.66l-17.29,4.63,26.29,15.18a5,5,0,1,1-5,8.66l-34.95-20.18-15.32,4.1L380.84,231a5,5,0,1,1-5,8.66l-34.95-20.18L309.08,228l7.67,28.63a5,5,0,0,1-1.29,4.83l-21,21,23.28,23.28h40.35a5,5,0,1,1,0,10H327.78L339,326.92h40.35a5,5,0,1,1,0,10H349l12.68,12.68a5,5,0,0,1,0,7.07l-77.78-77.78Z"/></svg>