<?xml version="1.0" ?><svg enable-background="new 0 0 800 800" id="Layer_1" version="1.1" viewBox="0 0 800 800" xml:space="preserve" xmlns="http://www.w3.org/2000/svg" xmlns:xlink="http://www.w3.org/1999/xlink"><g><path d="M394.7,714.7c173.9,0,314.7-140.8,314.7-314.7S568.5,85.3,394.7,85.3c-92.8,0-176,40.5-233.6,104.5   c-1.1,1.1-2.1,2.1-3.2,3.2C108.8,248.5,80,321.1,80,400C80,573.9,220.8,714.7,394.7,714.7z M596.3,250.7   c30.9,41.6,49.1,92.8,49.1,148.3c0,58.7-20.3,113.1-54.4,155.7c-53.3-30.9-87.5-87.5-87.5-150.4   C503.5,340.3,539.7,280.5,596.3,250.7z M394.7,149.3c58.7,0,113.1,20.3,155.7,54.4c-68.3,42.7-112,118.4-112,201.6   c0,80,39.5,152.5,104.5,196.3c-41.6,30.9-92.8,49.1-148.3,49.1s-107.7-18.1-149.3-49.1c64-43.7,103.5-116.3,103.5-196.3   c0-82.1-43.7-157.9-110.9-200.5C281.6,169.6,336,149.3,394.7,149.3z M193.1,251.7c56.5,29.9,92.8,88.5,92.8,153.6   c0,62.9-34.1,119.5-87.5,150.4C164.3,513.1,144,458.7,144,400C144,344.5,162.1,293.3,193.1,251.7z"/></g></svg>