<?xml version="1.0" ?><svg enable-background="new 0 0 800 800" id="Layer_1" version="1.1" viewBox="0 0 800 800" xml:space="preserve" xmlns="http://www.w3.org/2000/svg" xmlns:xlink="http://www.w3.org/1999/xlink"><g><path d="M635.7,324.3L422.4,110.9c-12.8-12.8-33.1-12.8-44.8,0L94.9,393.6c-12.8,12.8-12.8,33.1,0,44.8c12.8,12.8,33.1,12.8,44.8,0   l20.3-20.3V640c0,18.1,13.9,32,32,32h421.3c18.1,0,32-13.9,32-32V423.5l14.9,14.9c6.4,6.4,14.9,9.6,22.4,9.6c8.5,0,16-3.2,22.4-9.6   c12.8-12.8,12.8-33.1,0-44.8L635.7,324.3L635.7,324.3z M581.3,608H474.7V448c0-18.1-13.9-32-32-32h-85.3c-18.1,0-32,13.9-32,32v160   H224V354.1l176-176l181.3,181.3V608z"/></g></svg>