<?xml version="1.0" ?><svg enable-background="new 0 0 800 800" id="Layer_1" version="1.1" viewBox="0 0 800 800" xml:space="preserve" xmlns="http://www.w3.org/2000/svg" xmlns:xlink="http://www.w3.org/1999/xlink"><g><path d="M650.7,400c0-135.5-109.9-245.3-245.3-245.3S160,264.5,160,400s109.9,245.3,245.3,245.3S650.7,535.5,650.7,400z    M405.3,581.3C305.1,581.3,224,500.3,224,400s81.1-181.3,181.3-181.3S586.7,299.7,586.7,400S505.6,581.3,405.3,581.3z"/><path d="M386.1,131.2l13.9-27.7l13.9,27.7c5.3,11.7,17.1,18.1,28.8,18.1c5.3,0,9.6-1.1,13.9-3.2c16-7.5,22.4-26.7,13.9-42.7   l-42.7-85.3C422.4,7.5,411.7,0,398.9,0c-11.7,0-23.5,6.4-28.8,18.1l-42.7,85.3c-7.5,16-1.1,35.2,13.9,42.7   C358.4,153.6,377.6,147.2,386.1,131.2z"/><path d="M413.9,668.8L400,696.5l-13.9-27.7c-7.5-16-26.7-22.4-42.7-13.9c-16,7.5-22.4,26.7-13.9,42.7l42.7,85.3   c5.3,10.7,16,18.1,28.8,18.1c11.7,0,23.5-6.4,28.8-18.1l42.7-85.3c7.5-16,1.1-35.2-13.9-42.7C441.6,646.4,422.4,652.8,413.9,668.8z   "/><path d="M146.1,456.5c7.5-16,1.1-35.2-13.9-42.7L104.5,400l27.7-13.9c16-7.5,22.4-26.7,13.9-42.7c-7.5-16-26.7-22.4-42.7-13.9   l-85.3,42.7C7.5,377.6,0,388.3,0,401.1c0,11.7,6.4,23.5,18.1,28.8l85.3,42.7c4.3,2.1,9.6,3.2,13.9,3.2   C129.1,474.7,140.8,468.3,146.1,456.5z"/><path d="M781.9,371.2l-85.3-42.7c-16-7.5-35.2-1.1-42.7,13.9c-7.5,16-1.1,35.2,13.9,42.7l27.7,13.9l-27.7,13.9   c-16,7.5-22.4,26.7-13.9,42.7c5.3,11.7,17.1,18.1,28.8,18.1c5.3,0,9.6-1.1,13.9-3.2l85.3-42.7c10.7-5.3,18.1-16,18.1-28.8   C800,388.3,793.6,376.5,781.9,371.2z"/><path d="M260.3,180.3c5.3-17.1-3.2-35.2-20.3-40.5l-90.7-29.9c-10.7-4.3-23.5-1.1-32,7.5s-11.7,21.3-7.5,33.1l29.9,90.7   c4.3,13.9,17.1,22.4,29.9,22.4c3.2,0,6.4,0,9.6-2.1c17.1-5.3,25.6-23.5,20.3-40.5l-9.6-29.9l29.9,9.6   C236.8,205.9,254.9,197.3,260.3,180.3z"/><path d="M660.3,560c-5.3-17.1-23.5-25.6-40.5-20.3s-25.6,23.5-20.3,40.5l9.6,29.9l-29.9-9.6c-17.1-5.3-35.2,3.2-40.5,20.3   c-5.3,17.1,3.2,35.2,20.3,40.5l90.7,29.9c3.2,1.1,6.4,2.1,9.6,2.1c8.5,0,17.1-3.2,22.4-9.6c8.5-8.5,11.7-21.3,7.5-33.1L660.3,560z"/><path d="M260.3,619.7c-5.3-17.1-23.5-25.6-40.5-20.3l-29.9,9.6l9.6-29.9c5.3-17.1-3.2-35.2-20.3-40.5s-35.2,3.2-40.5,20.3   l-29.9,90.7c-3.2,11.7,0,24.5,8.5,33.1c6.4,6.4,13.9,9.6,22.4,9.6c3.2,0,6.4-1.1,9.6-2.1l90.7-29.9   C257.1,654.9,266.7,636.8,260.3,619.7z"/><path d="M660.3,240l29.9-90.7c4.3-11.7,1.1-24.5-7.5-33.1s-21.3-11.7-33.1-7.5l-90.7,29.9c-17.1,5.3-25.6,23.5-20.3,40.5   c5.3,17.1,23.5,25.6,40.5,20.3l29.9-9.6l-9.6,29.9c-5.3,17.1,3.2,35.2,20.3,40.5c3.2,1.1,6.4,2.1,9.6,2.1   C643.2,262.4,656,253.9,660.3,240z"/></g></svg>