<?xml version="1.0" ?><svg enable-background="new 0 0 75 75" id="Layer_1" version="1.1" viewBox="0 0 75 75" xml:space="preserve" xmlns="http://www.w3.org/2000/svg" xmlns:xlink="http://www.w3.org/1999/xlink"><g><path d="M67.5,11.8h-61c-1.7,0-3,1.3-3,3V33h0c0,1.1,0.6,2.2,1.7,2.7c4.2,2.1,7.8,8.4,7.8,13.7c0,1.2,0.7,2.2,1.7,2.7l0,0l12.8,6.3   c0.3,0.2,0.5,0.3,0.8,0.4c0.3,0.1,0.6,0.3,0.8,0.4l19.3,9.5l0,0c0.4,0.2,0.9,0.3,1.3,0.3c0.4,0,0.9-0.1,1.3-0.3   c6.1-3,10.8-6.5,14.2-10.5c3.5-4.2,5.3-8.7,5.3-13.4v-30C70.5,13.1,69.2,11.8,67.5,11.8z M41.4,30.3c-0.7,0.5-1.1,1.4-1.2,2.2   c0,0.1,0,0.1,0,0.2c0,1.4-0.4,1.9-0.6,2c-0.1,0.1-0.5,0-1.1-0.2c-1.9-1-3.6-3.6-4.2-6.2c2.4-1.1,5.6-1.4,7.5-0.4   c0.5,0.3,0.8,0.6,0.8,0.7C42.7,28.8,42.5,29.4,41.4,30.3z M48.7,28c-0.2-2.3-1.7-4.4-4.1-5.6c-3.8-1.9-9.4-1.5-13.5,0.7l-11.3-5.4   h44.4c-0.6,2.2-1.7,4.4-3.5,6.5c-2.6,3.1-6.2,5.8-10.9,8.3l-1.7-0.9C48.5,30.5,48.8,29.3,48.7,28z M52.6,37.8   c4.2-2.2,7.8-4.8,10.6-7.5c-0.6,1.4-1.5,2.7-2.6,4c-2,2.4-4.7,4.6-7.9,6.6V37.8z M52.6,47.8c4.2-2.2,7.8-4.8,10.6-7.5   c-0.6,1.4-1.5,2.7-2.6,4c-2,2.4-4.7,4.6-7.9,6.6V47.8z M27,47.9c0-0.2,0-0.3,0-0.4c0.1,0,0.5,0,1.1,0.3c2.2,1.1,3.8,3.8,3.8,5.6   c0,0.2,0,0.3,0,0.4c-0.1,0-0.3,0-0.6-0.1l-0.9-0.5C28.4,52,27,49.5,27,47.9z M46.6,61.2l-9.3-4.6c0.5-0.9,0.7-2,0.7-3.2   c0-4.2-3.1-8.9-7.2-10.9c-1.3-0.6-2.6-1-3.8-1c-3.6,0-6,2.6-6,6.4c0,0.2,0,0.5,0,0.7l-2.2-1.1c-0.7-6.3-4.4-12.9-9.3-16.2V19.6   l18.9,9.1c0.7,4.7,3.7,9.3,7.5,11.2c1.2,0.6,2.4,0.9,3.6,0.9c1.2,0,2.3-0.3,3.3-0.9c1-0.6,1.9-1.6,2.4-2.7l1.4,0.7V61.2z    M52.6,60.9v-3.1c4.2-2.2,7.8-4.8,10.6-7.5c-0.6,1.4-1.5,2.7-2.6,4C58.6,56.7,55.9,58.9,52.6,60.9z"/><path d="M54,26.5c2.5,0,4.5-1.8,4.5-4s-2-4-4.5-4c-2.5,0-4.5,1.8-4.5,4S51.5,26.5,54,26.5z"/></g><path d="M-245.9-78.5c0.9-0.2-0.1-2.1-0.9-2.3c-0.6-0.1-1.7,0.9-1.6,1.5C-248.3-78.7-246.8-78.2-245.9-78.5z"/><path d="M-257.5-416.3C-257.5-416.3-257.5-416.3-257.5-416.3C-257.5-416.3-257.5-416.3-257.5-416.3c3.2,3.2,7.5,4.9,12,4.9  c9.4,0,17.1-7.7,17.1-17.1v-9.9c0-0.1,0-0.2,0-0.2c0-0.1,0-0.2,0-0.2V-458c0-1.7-1.3-3-3-3s-3,1.3-3,3v16.6h-3V-462c0-1.7-1.3-3-3-3  s-3,1.3-3,3v18.6h-3V-464c0-1.7-1.3-3-3-3s-3,1.3-3,3v21.6h-3V-461c0-1.7-1.3-3-3-3s-3,1.3-3,3v20.9c0,0.1,0,0.2,0,0.3  c0,0.1,0,0.2,0,0.3v10.6l-9-9c-1.2-1.2-3.1-1.2-4.2,0c-1.2,1.2-1.2,3.1,0,4.2L-257.5-416.3z"/><path d="M-167.5-413h9v8c0,1.1,0.6,2.1,1.5,2.6c0.5,0.3,1,0.4,1.5,0.4c0.5,0,1.1-0.1,1.6-0.4l18-11c0.9-0.5,1.4-1.5,1.4-2.6v-52  c0,0,0,0,0-0.1c0-0.2,0-0.4-0.1-0.6c0,0,0,0,0-0.1c0,0,0-0.1,0-0.1c-0.1-0.2-0.1-0.4-0.2-0.6c0,0,0-0.1-0.1-0.1  c-0.1-0.2-0.3-0.4-0.4-0.5c0,0-0.1-0.1-0.1-0.1c-0.2-0.2-0.3-0.3-0.5-0.4c0,0,0,0,0,0c0,0,0,0,0,0c-0.2-0.1-0.4-0.2-0.7-0.3  c0,0-0.1,0-0.1,0c-0.2,0-0.4-0.1-0.7-0.1h-30c-1.7,0-3,1.3-3,3v52C-170.5-414.3-169.2-413-167.5-413z M-152.5-455.3l12-7.3v45  l-12,7.3V-455.3z"/><path d="M-58-406c17.4,0,31.5-14.1,31.5-31.5c0-17.4-14.1-31.5-31.5-31.5s-31.5,14.1-31.5,31.5C-89.5-420.1-75.4-406-58-406z   M-58-463c14.1,0,25.5,11.4,25.5,25.5S-43.9-412-58-412s-25.5-11.4-25.5-25.5S-72.1-463-58-463z"/><path d="M-247.6-90c-17.9,0-32.5,14.6-32.5,32.5S-265.5-25-247.6-25c17.9,0,32.5-14.6,32.5-32.5S-229.7-90-247.6-90z M-221.1-57.5  c0,10.8-6.5,20.1-15.7,24.2c-1.2,0.3-2.9,0.3-6.5,0.3c-4-0.1-5,1.3-6,2c-1-0.1-2.1-0.2-3.1-0.4c-0.2-0.1-0.4-0.2-0.6-0.3  c-2.2-1.4-3.7-1.4-4.5-1.2c-9.7-3.9-16.6-13.5-16.6-24.6c0-3.9,0.8-7.5,2.3-10.8c1.6,5.9-2.3,6.2-2.3,10.8c0,3,2,8,5,12.6  c3.4,5.1,7.8,9.5,9.4,9.1c2.9-0.9-6.6-2.3-0.7-13.1c5.9-10.9-7.7-3.7-9.7-18.6c-0.7-5.4,3-3.8,5.7-7.8c2-3.1,6-3.8,5.5-6  c1.6-0.8,3.3-1.4,5.1-1.8c-1.9,1.7-3.6,3.1,0.3,2.3c4.3-0.9,6.5-1.7,6.8-3c2.4,0.1,4.6,0.4,6.8,1.1c-1.6-0.2-4.6-0.2-4.7,1.9  c-0.2,2.9-0.6,4-2,4.3c-1.4,0.3-1.7,0.7-1.7,1.3c0.1,1.8,1.8,2.2,4.6,0c2.8-2.2,3.6,0.7,5.8,1.2s1.9-2.2,3.7-1.5s4,4.6-1.6,4.2  c-5.6-0.3-8.4-1.9-12.5,0.2c-5.8,2.9-4.8,11.5,1.3,11.4c5,0,6.4,0.2,8,5.5c1.6,5.3-1.1,7.2,1.7,11.3c2.8,4.3,9.4-7.7,9.2-11.7  s5.2-5.9,2.2-10.6c-3-4.6,0.6-4.6,3.2-1.9C-221.7-64.1-221.1-60.9-221.1-57.5z"/><path d="M-58-218c16.3,0,29.5-13.2,29.5-29.5c0-16.3-13.2-29.5-29.5-29.5c-8.7,0-16.5,3.8-21.9,9.8c-0.1,0.1-0.2,0.2-0.3,0.3  c-4.6,5.2-7.3,12-7.3,19.4C-87.5-231.2-74.3-218-58-218z M-39.1-261.5c2.9,3.9,4.6,8.7,4.6,13.9c0,5.5-1.9,10.6-5.1,14.6  c-5-2.9-8.2-8.2-8.2-14.1C-47.8-253.1-44.4-258.7-39.1-261.5z M-58-271c5.5,0,10.6,1.9,14.6,5.1c-6.4,4-10.5,11.1-10.5,18.9  c0,7.5,3.7,14.3,9.8,18.4c-3.9,2.9-8.7,4.6-13.9,4.6c-5.2,0-10.1-1.7-14-4.6c6-4.1,9.7-10.9,9.7-18.4c0-7.7-4.1-14.8-10.4-18.8  C-68.6-269.1-63.5-271-58-271z M-76.9-261.4c5.3,2.8,8.7,8.3,8.7,14.4c0,5.9-3.2,11.2-8.2,14.1c-3.2-4-5.1-9.1-5.1-14.6  C-81.5-252.7-79.8-257.5-76.9-261.4z"/><path d="M-58-417.5c11,0,20-9,20-20c0-11-9-20-20-20c-11,0-20,9-20,20C-78-426.5-69-417.5-58-417.5z M-58-451.5c7.7,0,14,6.3,14,14  c0,7.7-6.3,14-14,14c-7.7,0-14-6.3-14-14C-72-445.2-65.7-451.5-58-451.5z"/><path d="M-58-429c4.7,0,8.5-3.8,8.5-8.5c0-4.7-3.8-8.5-8.5-8.5s-8.5,3.8-8.5,8.5C-66.5-432.8-62.7-429-58-429z M-58-440  c1.4,0,2.5,1.1,2.5,2.5c0,1.4-1.1,2.5-2.5,2.5s-2.5-1.1-2.5-2.5C-60.5-438.9-59.4-440-58-440z"/><path d="M27.5-451.7c-2.3,1.7-3.2,4.6-2.3,7.3c0.9,2.7,3.4,4.5,6.2,4.5c1.1,0,2.2-0.3,3.2-0.8v12.8h-9c-0.9,0-1.7,0.4-2.3,1.1  c-0.6,0.7-0.8,1.6-0.7,2.4l3,18c0.2,1.4,1.5,2.5,3,2.5h18c1.5,0,2.7-1.1,3-2.5l3-18c0.1-0.9-0.1-1.8-0.7-2.4  c-0.6-0.7-1.4-1.1-2.3-1.1h-9v-12.8c0.9,0.5,2,0.8,3.2,0.8c2.8,0,5.3-1.8,6.2-4.5c0.9-2.7-0.1-5.6-2.3-7.3c2.8,0,5.3-1.8,6.2-4.5  c0.9-2.7-0.1-5.6-2.4-7.3c-2.2-1.6-5.4-1.6-7.6,0c0.9-2.7-0.1-5.6-2.4-7.2c-2.2-1.6-5.4-1.6-7.6,0c-2.3,1.7-3.2,4.6-2.4,7.2  c-2.2-1.6-5.4-1.6-7.6,0c-2.3,1.7-3.2,4.6-2.4,7.3C22.2-453.6,24.7-451.8,27.5-451.7z M46-422l-2,12H31l-2-12H46z M33.7-456.2  c0.5-1.7,2.1-2.8,3.8-2.8c1.7,0,3.3,1.1,3.8,2.8c0,0,0,0,0,0c0,0,0,0,0,0c0.5,1.7,0,3.4-1.5,4.5c-1.4,1-3.3,1-4.7,0  C33.7-452.8,33.2-454.6,33.7-456.2z"/><path d="M98.5-151v9.8c0,1.7,1.3,3,3,3h4.1c1.2,3.5,4.6,6,8.5,6c3.7,0,6.9-2.2,8.3-5.4h20.5c1.4,3.2,4.6,5.4,8.3,5.4  c3.9,0,7.2-2.5,8.5-6h4.1c1.7,0,3-1.3,3-3v-9.8c0-2.3-0.9-4.4-2.5-6c0,0,0,0,0,0l0,0l0,0l-6.7-6.7c0,0,0,0,0,0l-5.7-5.7  c-2-2-4.7-3.1-7.5-3.1h-17.6c-4.1,0-7.9,2.4-9.6,6.2c0,0,0,0,0,0l-3.2,6.9H107C102.3-159.5,98.5-155.7,98.5-151z M114-138.3  c-1.6,0-3-1.3-3-3c0-1.6,1.3-3,3-3c1.6,0,3,1.3,3,3C117-139.6,115.7-138.3,114-138.3z M151-138.3c-1.6,0-3-1.3-3-3c0-1.6,1.3-3,3-3  c1.6,0,3,1.3,3,3C154-139.6,152.6-138.3,151-138.3z M137.1-166.5h7c1.2,0,2.4,0.5,3.3,1.4l5.7,5.7h-15.9V-166.5z M122.3-163.8  C122.3-163.8,122.3-163.8,122.3-163.8c0.8-1.6,2.4-2.7,4.2-2.7h4.6v7.1h-10.8L122.3-163.8z M115.6-153.5  C115.6-153.5,115.6-153.5,115.6-153.5C115.7-153.5,115.7-153.5,115.6-153.5h18.5h23.9c0.7,0,1.3,0.3,1.7,0.7l0,0  c0.5,0.5,0.7,1.1,0.7,1.7v6.8h-1.1c-1.2-3.5-4.6-6-8.5-6c-4.1,0-7.6,2.8-8.6,6.5h-19.7c-1.1-3.8-4.5-6.5-8.6-6.5  c-3.9,0-7.2,2.5-8.5,6h-1.1v-6.8c0-1.3,1.1-2.4,2.4-2.4H115.6z"/><path d="M116.5-452.5h9.4l-1.9,43.9c0,0.8,0.3,1.6,0.8,2.2c0.6,0.6,1.3,0.9,2.2,0.9h7c0,0,0,0,0,0c1.7,0,3-1.3,3-3  c0-0.2,0-0.3,0-0.5l-1.9-43.5h12.7c1.1,0,2.1-0.6,2.6-1.5c0.5-0.9,0.5-2.1,0-3c-4.1-7.1-11.7-11.5-19.9-11.5h-14c-1.7,0-3,1.3-3,3  v10C113.5-453.8,114.8-452.5,116.5-452.5z M119.5-462.5h11c4,0,7.9,1.5,10.9,4H132h-1.5H129h-9.5V-462.5z"/><path d="M-238-280.5h-21c-1.7,0-3,1.3-3,3v13.9c-4.6,3.9-7.5,9.6-7.5,16.1c0,6.4,2.9,12.2,7.5,16.1v13.9c0,1.7,1.3,3,3,3h21  c1.7,0,3-1.3,3-3v-13.9c4.6-3.9,7.5-9.6,7.5-16.1c0-6.4-2.9-12.2-7.5-16.1v-13.9C-235-279.2-236.3-280.5-238-280.5z M-233.5-247.5  c0,8.3-6.7,15-15,15s-15-6.7-15-15s6.7-15,15-15S-233.5-255.8-233.5-247.5z"/><path d="M-248.5-260.5c-1.7,0-3,1.3-3,3v8.8l-4.6,4.6c-1.2,1.2-1.2,3.1,0,4.2c0.6,0.6,1.4,0.9,2.1,0.9c0.8,0,1.5-0.3,2.1-0.9  l5.5-5.5c0.6-0.6,0.9-1.3,0.9-2.1v-10C-245.5-259.2-246.8-260.5-248.5-260.5z"/><path d="M-130.4-254.6l-20-20c-1.2-1.2-3.1-1.2-4.2,0l-26.5,26.5c-1.2,1.2-1.2,3.1,0,4.2c1.2,1.2,3.1,1.2,4.2,0l1.9-1.9v20.8  c0,1.7,1.3,3,3,3h39.5c1.7,0,3-1.3,3-3v-20.3l1.4,1.4c0.6,0.6,1.4,0.9,2.1,0.9c0.8,0,1.5-0.3,2.1-0.9c1.2-1.2,1.2-3.1,0-4.2  L-130.4-254.6C-130.4-254.6-130.4-254.6-130.4-254.6z M-135.5-228h-10v-15c0-1.7-1.3-3-3-3h-8c-1.7,0-3,1.3-3,3v15h-9.5v-23.8  l16.5-16.5l17,17V-228z"/><path d="M53.1-244L53.1-244c4.2-4.2,6.4-9.7,6.4-15.6c0-5.9-2.3-11.4-6.4-15.6c-4.2-4.2-9.7-6.4-15.6-6.4c-5.9,0-11.4,2.3-15.6,6.4  c-4.2,4.2-6.4,9.7-6.4,15.6c0,5.9,2.3,11.4,6.4,15.6c0,0,0,0,0,0c3,3,4.7,7,4.7,11.3c0,1.7,1.3,3,3,3l15.7,0c0.8,0,1.6-0.3,2.1-0.9  c0.6-0.6,0.9-1.3,0.9-2.1C48.4-236.9,50-240.9,53.1-244C53.1-244,53.1-244,53.1-244z M48.8-248.2c-3.4,3.4-5.6,7.8-6.2,12.6h-1.5  l3.8-18.3c0.3-1.6-0.7-3.2-2.3-3.6c-1.6-0.3-3.2,0.7-3.6,2.3l-1.7,8.2l-1.9-8.3c-0.4-1.6-2-2.6-3.6-2.2c-1.6,0.4-2.6,2-2.2,3.6  l4.2,18.2h-1.4c-0.6-4.7-2.8-9.1-6.2-12.6c0,0,0,0,0,0c-3-3-4.7-7-4.7-11.3c0-4.3,1.7-8.3,4.7-11.3c3-3,7-4.7,11.3-4.7  c4.3,0,8.3,1.7,11.3,4.7c3,3,4.7,7,4.7,11.3C53.5-255.2,51.8-251.2,48.8-248.2C48.8-248.2,48.8-248.2,48.8-248.2z"/><path d="M49-225c0-1.7-1.3-3-3-3H29c-1.7,0-3,1.3-3,3c0,1.7,1.3,3,3,3h17C47.7-222,49-223.4,49-225z"/><path d="M43.5-220.5H31c-1.7,0-3,1.3-3,3c0,1.7,1.3,3,3,3h12.5c1.7,0,3-1.3,3-3C46.5-219.2,45.2-220.5,43.5-220.5z"/><path d="M-42-309.5h2c1.7,0,3-1.3,3-3v-60c0-1.7-1.3-3-3-3h-2c-1.7,0-3,1.3-3,3v0.9l-37.5,13.8c-1.2,0.4-2,1.6-2,2.8s0.8,2.4,2,2.8  l37.5,13.8v25.9C-45-310.8-43.7-309.5-42-309.5z M-72.8-355l27.8-10.2v20.4L-72.8-355z"/><path d="M-247.5-320c17.4,0,31-7.4,31-16.9v-11.1c0-9.5-13.6-16.9-31-16.9c-17.4,0-31,7.4-31,16.9v11.1  C-278.5-327.4-264.9-320-247.5-320z M-264-328.9c-1.1-0.4-2.1-0.9-3-1.4c0-0.1,0-0.1,0-0.2v-4.3c1,0.4,2,0.8,3,1.2V-328.9z   M-222.5-336.9c0,5.2-10.3,10.9-25,10.9c-3.8,0-7.4-0.4-10.5-1.1v-5c3.3,0.6,6.8,1,10.5,1c10.4,0,19.4-2.6,25-6.8V-336.9z   M-247.5-359c14.7,0,25,5.8,25,10.9c0,5.2-10.3,10.9-25,10.9c-14.7,0-25-5.8-25-10.9C-272.5-353.2-262.2-359-247.5-359z"/><path d="M-171.6-339.9c0.6,0.6,1.3,0.9,2.1,0.9h13v27.5c0,1.7,1.3,3,3,3h5c1.7,0,3-1.3,3-3V-339h17c1.7,0,3-1.3,3-3v-24  c0-1.7-1.3-3-3-3h-17v-5c0-1.7-1.3-3-3-3h-5c-1.7,0-3,1.3-3,3v5h-13c-0.8,0-1.6,0.3-2.1,0.9l-12,12c-1.2,1.2-1.2,3.1,0,4.2  L-171.6-339.9z M-168.3-363h36.8v18h-36.8l-9-9L-168.3-363z"/><path d="M35-309.5c0.5,0.2,1,0.4,1.5,0.4s1-0.1,1.5-0.4c17.3-8.4,28-25.5,28-44.7c0-5.6-0.9-11.1-2.8-16.4c-0.4-1.2-1.5-2.1-2.7-2.3  l-23.4-3.8c-0.4-0.1-0.7-0.1-1.1,0l-23.4,3.8c-1.3,0.2-2.3,1.1-2.7,2.3C7.9-365.3,7-359.8,7-354.2C7-335,17.7-317.9,35-309.5z   M39.5-369.2l17.8,2.9c1.2,3.9,1.7,8,1.7,12.1c0,14.7-7.4,28-19.5,35.8V-369.2z M15.7-366.3l17.8-2.9v50.8  C21.4-326.2,14-339.5,14-354.2C14-358.3,14.6-362.4,15.7-366.3z"/><path d="M-246.5-118.5c4.8,0,8.7-3.9,8.7-8.7v-2.7h16.3c0.2,0,0.4,0,0.7-0.1c0.1,0,0.1,0,0.2-0.1c0.2,0,0.3-0.1,0.4-0.2  c0.1,0,0.1-0.1,0.2-0.1c0.1-0.1,0.2-0.1,0.4-0.2c0.1,0,0.1-0.1,0.2-0.2c0.1-0.1,0.2-0.2,0.3-0.4c0,0,0.1-0.1,0.1-0.1c0,0,0,0,0,0  c0.1-0.1,0.1-0.2,0.2-0.3c0-0.1,0.1-0.1,0.1-0.2c0-0.1,0.1-0.2,0.1-0.3c0-0.1,0.1-0.2,0.1-0.3c0-0.1,0-0.2,0-0.2c0-0.1,0-0.2,0-0.3  c0,0,0,0,0,0c0-0.1,0-0.1,0-0.2c0-0.1,0-0.2,0-0.3c0-0.1,0-0.2-0.1-0.3c0-0.1-0.1-0.2-0.1-0.3c0-0.1-0.1-0.2-0.1-0.3  c0-0.1-0.1-0.2-0.1-0.3c-0.1-0.1-0.1-0.2-0.2-0.2c-0.1-0.1-0.1-0.2-0.2-0.2c-0.1-0.1-0.2-0.1-0.2-0.2c-0.1,0-0.1-0.1-0.2-0.1  c-3.4-2.5-5.4-6.4-5.4-10.6v-8.1c0-9.1-5.7-16.8-13.7-19.9c0.7-1.2,1.1-2.7,1.1-4.2c0-4.8-3.9-8.7-8.7-8.7c-4.8,0-8.7,3.9-8.7,8.7  c0,1.5,0.4,2.9,1.1,4.2c-8,3.1-13.7,10.9-13.7,19.9v8.1c0,4.2-2,8.1-5.4,10.6c-0.1,0-0.1,0.1-0.2,0.1c-0.1,0.1-0.2,0.1-0.2,0.2  c-0.1,0.1-0.1,0.1-0.2,0.2c-0.1,0.1-0.1,0.2-0.2,0.2c-0.1,0.1-0.1,0.2-0.1,0.3c0,0.1-0.1,0.2-0.1,0.3c0,0.1-0.1,0.2-0.1,0.3  c0,0.1-0.1,0.2-0.1,0.3c0,0.1,0,0.2,0,0.3c0,0.1,0,0.1,0,0.2c0,0,0,0,0,0c0,0.1,0,0.2,0,0.3c0,0.1,0,0.2,0,0.2  c0,0.1,0.1,0.2,0.1,0.3c0,0.1,0.1,0.2,0.1,0.3c0,0.1,0.1,0.1,0.1,0.2c0.1,0.1,0.1,0.2,0.2,0.3c0,0,0,0,0,0c0,0.1,0.1,0.1,0.1,0.2  c0.1,0.1,0.1,0.2,0.2,0.2c0.1,0.1,0.1,0.1,0.2,0.2c0.1,0.1,0.2,0.1,0.2,0.2c0.1,0.1,0.2,0.1,0.3,0.1c0.1,0,0.2,0.1,0.3,0.1  c0.1,0,0.2,0.1,0.3,0.1c0.1,0,0.2,0.1,0.3,0.1c0.1,0,0.2,0,0.3,0c0.1,0,0.1,0,0.2,0h16.3v2.7C-255.2-122.4-251.3-118.5-246.5-118.5z   M-243.7-127.2c0,1.5-1.2,2.7-2.7,2.7c-1.5,0-2.7-1.2-2.7-2.7v-2.7h2.7h2.7V-127.2z M-246.5-181c1.5,0,2.7,1.2,2.7,2.7  c0,1.5-1.2,2.7-2.7,2.7c-1.5,0-2.7-1.2-2.7-2.7C-249.2-179.8-248-181-246.5-181z M-264.7-136c1.8-3,2.9-6.4,2.9-10v-8.1  c0-8.5,6.9-15.4,15.4-15.4c8.5,0,15.4,6.9,15.4,15.4v8.1c0,3.6,1,7,2.9,10h-18.2H-264.7z"/><path d="M-151.5-126.6c8.2,0,13.8-2.3,15.3-6.3c1.6-4.2,0.5-6.8-0.3-8.6c-0.6-1.3-0.7-1.7-0.2-2.9c0.5-1.3,1.2-1.9,3.7-1.9  c0.8,0,1.6,0.1,2.6,0.1c1,0.1,2,0.1,3,0.1c1.8,0,7.3,0,9.4-6.4c1.3-4.2,0.6-8.4-2.3-12.3c-5.7-7.9-19.1-13.4-32.6-13.4  c-19.3,0-35,11.1-35,24.8C-188-134.9-166.7-126.6-151.5-126.6z M-153-172c11.3,0,23.2,4.7,27.7,10.9c1.7,2.3,2.2,4.7,1.4,6.9  c-0.5,1.6-1.1,2.2-3.7,2.2c-0.8,0-1.6-0.1-2.5-0.1c-1-0.1-2-0.1-3-0.1c-1.7,0-6.9,0-9.2,5.6c-1.5,3.6-0.4,6,0.3,7.6  c0.6,1.4,0.9,2.1,0.2,4c-0.3,0.8-3.2,2.5-9.8,2.5c-12.6,0-30.5-6.4-30.5-20.7C-182-163.6-169-172-153-172z"/><path d="M-159.5-149.5c0,4.4,3.6,8,8,8c4.4,0,8-3.6,8-8c0-4.4-3.6-8-8-8C-155.9-157.5-159.5-153.9-159.5-149.5z M-151.5-151.5  c1.1,0,2,0.9,2,2c0,1.1-0.9,2-2,2c-1.1,0-2-0.9-2-2C-153.5-150.6-152.6-151.5-151.5-151.5z"/><path d="M-67.9-147.8c0.1,0,0.3,0,0.4,0c0.7,0.7,1.3,1.4,2,2c1,0.9,1.5,2.1,1.5,3.4v0.2c0,0.9-0.3,1.8-0.8,2.6l-7.6,10.8  c-0.6,0.9-0.7,2.1-0.2,3.1c0.5,1,1.5,1.6,2.7,1.6h24c1.1,0,2.1-0.6,2.7-1.6c0.5-1,0.4-2.2-0.2-3.1l-7.6-10.8  c-0.5-0.8-0.8-1.7-0.8-2.6v-0.2c0-1.3,0.5-2.5,1.5-3.4c0.7-0.6,1.4-1.3,2-2c0.1,0,0.3,0,0.5,0c15.6-2.5,26.1-10.7,26.1-20.2  c0-6.1-4.9-11-11-11c-1.1,0-2.1,0.2-3.1,0.5c-0.3-1.4-1.5-2.5-2.9-2.5h-38c-1.5,0-2.7,1.1-2.9,2.5c-1-0.3-2-0.5-3.1-0.5  c-6.1,0-11,4.9-11,11C-94-158.5-83.5-150.3-67.9-147.8z M-51.8-130h-12.4l4.3-6.1c1.3-1.8,1.9-3.9,1.9-6.1c0,2.2,0.7,4.3,1.9,6.1  L-51.8-130z M-36.6-171.4c0.9-1.1,2.3-1.7,3.7-1.7c2.8,0,5,2.2,5,5c0,5.2-6,10.2-15,12.9C-39.9-160.1-37.7-165.8-36.6-171.4z   M-42.2-175c-1,8.8-6,19-12.4,24.8c-2.2,2-3.5,4.8-3.5,7.8c0-3-1.3-5.8-3.5-7.8c-6.4-5.8-11.4-16-12.4-24.8H-42.2z M-83-173  c1.4,0,2.7,0.6,3.6,1.6c1,5.5,3.3,11.3,6.3,16.3c-8.9-2.7-15-7.7-15-12.9C-88-170.8-85.7-173-83-173z"/><path d="M14.5-119h45c6.1,0,11-4.9,11-11v-45c0-6.1-4.9-11-11-11h-45c-6.1,0-11,4.9-11,11v45C3.5-123.9,8.4-119,14.5-119z M9.5-175  c0-2.8,2.2-5,5-5h45c2.8,0,5,2.2,5,5v45c0,2.8-2.2,5-5,5h-45c-2.8,0-5-2.2-5-5V-175z"/><path d="M25.3-134.5c0.5,0.3,1.1,0.5,1.6,0.5h20.2c0.6,0,1.2-0.2,1.6-0.5c6.1-4,9.8-10.7,9.8-18s-3.7-14-9.8-18  c-0.5-0.3-1.1-0.5-1.6-0.5H26.9c-0.6,0-1.2,0.2-1.6,0.5c-6.1,4-9.8,10.7-9.8,18S19.2-138.5,25.3-134.5z M27.9-165h18.3  c4,2.9,6.4,7.5,6.4,12.5s-2.4,9.6-6.4,12.5H27.9c-4-2.9-6.4-7.5-6.4-12.5S23.9-162.1,27.9-165z"/><path d="M30.5-151c1.7,0,3-1.3,3-3v-5c0-1.7-1.3-3-3-3c-1.7,0-3,1.3-3,3v5C27.5-152.4,28.9-151,30.5-151z"/><path d="M43.5-151c1.7,0,3-1.3,3-3v-5c0-1.7-1.3-3-3-3c-1.7,0-3,1.3-3,3v5C40.5-152.4,41.9-151,43.5-151z"/><path d="M33.5-143h7v-3.5c0-1.9-1.6-3.5-3.5-3.5c-1.9,0-3.5,1.6-3.5,3.5V-143z"/><path d="M112-38h42.8c8,0,14.5-6.5,14.5-14.5c0-7-5-12.9-11.7-14.2c-1.3-7.8-8.1-13.8-16.3-13.8c-4.4,0-8.6,1.7-11.6,4.8  c-1.3-0.4-2.7-0.6-4-0.6c-5.1,0-9.7,2.9-12,7.4c-0.5-0.1-1.1-0.1-1.6-0.1c-8.6,0-15.5,7-15.5,15.5C96.4-45,103.4-38,112-38z   M112-63.1c0.9,0,1.8,0.1,2.6,0.4l3,0.9l0.8-3c0.9-3.3,3.8-5.6,7.2-5.6c1.2,0,2.4,0.3,3.5,0.9l2.3,1.2l1.5-2c2-2.7,5.1-4.2,8.4-4.2  c5.8,0,10.6,4.7,10.6,10.6v3h3c4.7,0,8.5,3.8,8.5,8.5s-3.8,8.5-8.5,8.5H112c-5.3,0-9.5-4.3-9.5-9.5C102.4-58.8,106.7-63.1,112-63.1z  "/><path d="M-217,33.3c-0.1-8.7-6.4-15.9-14.7-17.5c2.6-3.4,4.2-7.7,4.2-12.3c0-1.7-1.3-3-3-3c-5.7,0-10.8,2.3-14.5,6V6  c0-1.7-1.3-3-3-3s-3,1.3-3,3v12.4c-0.2-0.1-0.4-0.2-0.6-0.3c-2.8-1.7-6-2.6-9.3-2.6c-9.9,0-17.9,8-18.1,17.8c0,0.1,0,0.1,0,0.2l0,0  c0,0,0,0,0,0c0,0,0,0.1,0,0.1c0.1,21.5,9.7,38.3,22,38.3c2,0,4.1-0.5,6-1.4c1.9-0.9,4.2-0.9,6,0c1.9,0.9,3.9,1.4,6,1.4  c12.3,0,21.9-16.8,22-38.3c0,0,0-0.1,0-0.1c0,0,0,0,0,0c0,0,0,0,0,0C-217,33.4-217,33.4-217,33.3z M-233.9,6.9  c-1.3,5.3-5.4,9.4-10.7,10.7C-243.3,12.3-239.2,8.2-233.9,6.9z M-239,66c-1.1,0-2.3-0.3-3.4-0.8c-1.7-0.8-3.7-1.3-5.6-1.3  c-1.9,0-3.9,0.4-5.6,1.3c-1.1,0.5-2.3,0.8-3.4,0.8c-8.6,0-16-14.8-16-32.4c0,0,0-0.1,0-0.1c0-6.6,5.4-12,12.1-12  c2.2,0,4.3,0.6,6.2,1.7c4.1,2.4,9.4,2.4,13.4,0c1.9-1.1,4-1.7,6.2-1.7c6.6,0,12,5.4,12.1,12c0,0,0,0.1,0,0.1  C-223,51.2-230.4,66-239,66z"/><path d="M-261,24c-5.2,0-9.5,4.3-9.5,9.5c0,7.6,1.2,14.7,3.3,20.2c0.5,1.2,1.6,1.9,2.8,1.9c0.4,0,0.7-0.1,1.1-0.2  c1.5-0.6,2.3-2.3,1.7-3.9c-1.9-4.8-2.9-11.2-2.9-18c0-1.9,1.6-3.5,3.5-3.5c1.7,0,3-1.3,3-3C-258,25.3-259.3,24-261,24z"/><path d="M-125.5,2.1h-9.9c-1.7,0-3,1.3-3,3V7c0,1.7,1.3,3,3,3h3.6c-0.3,0.3-0.5,0.6-0.8,0.8c0,0,0,0,0,0c-3.8,3.8-5.6,7.9-7.6,12.2  c-2.5,5.4-5.2,11.5-12.7,19c-7.5,7.5-13.7,10.4-19.2,12.9c-4.4,2-8.5,3.9-12.3,7.7c-0.6,0.6-0.9,1.4-0.9,2.3c0,0.8,0.4,1.6,1.1,2.2  c4.1,3.4,9.7,5.2,16,5.2c0,0,0,0,0,0c11.1,0,24.5-5.6,31.8-13.3c5.4-5.2,10.1-13.8,12.2-22.5c2.2-9.2,1.3-17.4-2.5-23.4  c1.8-2.1,4.1-5.3,4.1-8.1C-122.5,3.4-123.8,2.1-125.5,2.1z M-140.5,54.7c0,0-0.1,0.1-0.1,0.1c-5.3,5.6-16.7,11.5-27.5,11.5  c-3.5,0-6.5-0.6-9.1-1.9c2.3-1.6,4.7-2.7,7.6-4.1c5.7-2.6,12.7-5.9,20.9-14.1c8.3-8.3,11.4-15.2,14-20.8c1.3-2.8,2.4-5.3,3.9-7.5  C-125.5,29-132.3,47-140.5,54.7z"/><path d="M-45.6,28.4c-0.6-2.8-1.7-5.1-3.2-6.9C-41.8,18.2-37,11.2-37,3c0-1.7-1.3-3-3-3c-5.7,0-10.8,2.3-14.5,6V4.5c0-1.7-1.3-3-3-3  s-3,1.3-3,3v13.4c-4.6,1.1-7.8,4.9-8.9,10.5c-0.9,4.7-1.7,6.6-4.5,9.5c-4,4.1-6.5,8.3-6.5,16c0,12.2,9.7,21,23,21s23-8.8,23-21  c0-7.8-2.5-11.9-6.5-16C-43.9,35.1-44.6,33.1-45.6,28.4z M-43.4,6.4c-1.3,5.3-5.4,9.4-10.7,10.7C-52.8,11.8-48.7,7.7-43.4,6.4z   M-57.5,69c-10,0-17-6.2-17-15c0-5.9,1.6-8.5,4.8-11.8c3.9-4,5-7.1,6.1-12.6c0.6-2.8,2.1-6.1,6.1-6.1s5.5,3.3,6.1,6.1  c1.1,5.5,2.2,8.6,6.1,12.6c3.3,3.4,4.8,6,4.8,11.8C-40.5,62.8-47.5,69-57.5,69z"/><path d="M109.5-314h45c6.1,0,11-4.9,11-11v-36c0-1.7-1.3-3-3-3H147v-1c0-5-4-9-9-9h-12c-5,0-9,4-9,9v1h-15.5c-1.7,0-3,1.3-3,3v36  C98.5-318.9,103.4-314,109.5-314z M123-365c0-1.7,1.3-3,3-3h12c1.7,0,3,1.3,3,3v1h-18V-365z M104.5-358h55v8c0,2.1-1.3,4-3.3,4.7  c0,0,0,0,0,0l-22.5,8l0,0c0,0,0,0,0,0c-1.1,0.4-2.3,0.4-3.3,0c0,0,0,0,0,0c0,0,0,0,0,0l-22.5-8c0,0,0,0,0,0c-2-0.7-3.3-2.6-3.3-4.7  V-358z M104.5-340.2c0.4,0.2,0.9,0.4,1.3,0.6c0,0,0,0,0,0l22.5,8l0,0l0,0l0,0l0,0c1.2,0.4,2.4,0.6,3.7,0.6s2.5-0.2,3.7-0.6  c0,0,0,0,0,0l0,0c0,0,0,0,0,0l0,0l22.5-8c0,0,0,0,0,0c0.5-0.2,0.9-0.4,1.3-0.6v15.2c0,2.8-2.2,5-5,5h-45c-2.8,0-5-2.2-5-5V-340.2z"/><path d="M54,26.5c2.5,0,4.5-1.8,4.5-4c0-2.2-2-4-4.5-4c-2.5,0-4.5,1.8-4.5,4C49.5,24.7,51.5,26.5,54,26.5z"/><path d="M162.5,67H160v-6.5v-9v-4c1.9-2,3-4.6,3-7.5v-4c0-1.7-1.3-3-3-3h-20.5v-6.4c0,0,0,0,0,0V21c0-1.3-0.8-2.4-1.9-2.8  c1.2-1.4,1.9-3.2,1.9-5.2c0-1.4-0.4-2.8-1.1-4l-4.3-7.5c-0.5-0.9-1.5-1.5-2.6-1.5c-1.1,0-2.1,0.6-2.6,1.5L124.6,9  c-0.7,1.2-1.1,2.6-1.1,4c0,2,0.7,3.8,1.9,5.2c-1.1,0.4-1.9,1.5-1.9,2.8v9.4c0,0,0,0,0,0V33H104c-1.7,0-3,1.3-3,3v4  c0,2.9,1.1,5.6,3,7.5v4v9V67h-2.5c-1.7,0-3,1.3-3,3c0,1.7,1.3,3,3,3h5.5h50h5.5c1.7,0,3-1.3,3-3C165.5,68.3,164.2,67,162.5,67z   M129.8,12l1.7-3l1.7,3c0.2,0.3,0.3,0.6,0.3,1c0,1.1-0.9,2-2,2s-2-0.9-2-2C129.5,12.6,129.6,12.3,129.8,12z M129.5,24h4v0.5l-4,1.6  V24z M129.5,32.5l4-1.6V33h-4V32.5z M154,57.5h-44v-3h44V57.5z M157,40c0,2.8-2.2,5-5,5c-1.1,0-2.2-0.4-3.1-1.1  c-0.5-0.4-1.2-0.7-1.9-0.7c-0.7,0-1.3,0.2-1.9,0.7c-1.8,1.4-4.4,1.4-6.2,0c-1.1-0.9-2.7-0.9-3.8,0c-1.8,1.4-4.4,1.4-6.2,0  c-1.1-0.9-2.7-0.9-3.8,0c-1.8,1.4-4.4,1.4-6.2,0c-1.1-0.9-2.7-0.9-3.8,0c-0.9,0.7-2,1.1-3.1,1.1c-2.8,0-5-2.2-5-5v-1h19.5h10H157V40  z"/><path d="M-166.8-144.6c-0.6-3.1-2.7-3.5-3.6-3.5c-0.2,0-0.4,0-0.6,0.1c-1.8,0.3-3.3,1.8-3.5,3.6c-0.3,1.6,0.5,3.1,1.9,3.8  c0.9,0.5,1.9,0.7,2.8,0.7c1.3,0,2.4-0.6,3-1.6C-166.4-142.4-166.4-143.5-166.8-144.6L-166.8-144.6z"/><path d="M-174.5-150.2c0.2-0.1,0.3-0.1,0.4-0.2c2.4-0.6,2.7-2.3,2.8-3.1c0.2-2.4-2-3.3-3-3.7l-0.1-0.1c-0.5-0.2-1-0.3-1.5-0.3  c-1.4,0-2.6,0.7-3.3,1.9c-0.7,1.2-0.8,2.7-0.1,4c0.6,1.2,1.7,1.9,3,1.9C-175.5-149.8-174.9-150.1-174.5-150.2z"/><path d="M-169.8-158.3c1,0,1.8-0.5,2.2-0.8c1.5-0.6,2.4-2,2.4-3.5c0-1.2-0.8-2.8-2.8-3.4c-1.8-0.5-3.8,0.3-4.8,1.9  c-0.7,1.2-0.7,2.7,0,4C-171.8-158.4-170.3-158.3-169.8-158.3z"/><path d="M-159.3-162.3c0.1,0,0.2,0,0.4,0c0.1,0,0.2,0,0.3,0c1.7,0,3.2-1.2,3.5-2.9c0.3-1.8-0.9-3.5-2.6-4.1  c-0.5-0.1-0.9-0.2-1.4-0.2c-1.7,0-3.6,1.2-3.7,3.8c0,0.9,0.3,1.7,0.9,2.4C-161-162.3-159.8-162.3-159.3-162.3z"/><path d="M-148.7-162.4c0.2,0,0.4,0,0.7-0.1c1.5,0,2.8-0.9,3.3-2.3c0.5-1.4,0-3-1.3-3.9c-0.7-0.5-1.5-0.8-2.3-0.8  c-1.9,0-3.5,1.4-3.7,3.4c-0.2,1.4,0.4,2.2,0.8,2.7C-150.8-163.1-150-162.4-148.7-162.4z"/><path d="M-138.8-159.7c0.4,0.2,0.9,0.3,1.4,0.3c1.4,0,2.7-1,3.1-2.4c0.5-1.7-0.3-3.6-1.8-4.5c-0.6-0.3-1.2-0.5-1.9-0.5  c-1.2,0-2.3,0.6-3,1.6c-0.6,0.9-0.8,2.2-0.4,3.2C-140.8-160.3-139.4-159.9-138.8-159.7z"/><path d="M122.2-212.9c3.1,0,6.6-0.9,10.3-3l17-9.8c0,0,0,0,0,0c0,0,0,0,0.1,0c5.8-3.7,8.9-9.9,8.9-18V-278c0-1.7-1.3-3-3-3h-24  c-1.7,0-3,1.3-3,3v29.5l-14.1,8.8c-8,5-8.6,13.7-5,19.6C111.8-216,116.4-212.9,122.2-212.9z M149.1-233.2c-0.6-1.3-1.2-2.9-1.7-4.6  c-0.5-1.5-0.4-2.3-0.2-2.5c0.2-0.2,0.8-0.6,2.4-0.6h2.8C151.9-237.7,150.8-235.2,149.1-233.2z M150.5-275h2v9h-2V-275z M142.5-275h2  v9h-2V-275z M134.5-275h2v9h-2V-275z M133.1-244.3c0.9-0.5,1.4-1.5,1.4-2.5V-260h18v13.2h-3c-4.2,0-6.2,1.7-7.2,3.1  c-1,1.4-1.9,3.9-0.6,7.9c0.8,2.4,1.7,4.7,2.5,6.3l-12.4,7.2l-11.3-14L133.1-244.3z M115.5-233l10.8,13.3c-5.5,1.9-9.8-0.2-11.8-3.5  C112.8-226,112.6-229.9,115.5-233z"/><path d="M72-40h-3.7l-4.4-17.2c0-0.1,0-0.1-0.1-0.2c0-0.1-0.1-0.2-0.1-0.2c0-0.1-0.1-0.2-0.1-0.3c0-0.1-0.1-0.1-0.1-0.2  c-0.1-0.1-0.1-0.2-0.2-0.3c0-0.1-0.1-0.1-0.1-0.2c-0.1-0.1-0.2-0.2-0.3-0.2c-0.1,0-0.1-0.1-0.2-0.1c0,0,0,0,0,0l-10.9-7.6L41.1-86.4  c-0.4-0.8-1.2-1.4-2.2-1.5c-0.9-0.1-1.9,0.1-2.5,0.8l-12.5,12c0,0,0,0,0,0c0,0,0,0,0,0c-0.1,0.1-0.2,0.2-0.3,0.4  c0,0-0.1,0.1-0.1,0.1c-0.1,0.2-0.2,0.4-0.3,0.6c0,0,0,0,0,0l-7.9,20.2L6.4-40H3c-1.7,0-3,1.3-3,3c0,1.7,1.3,3,3,3h63c0,0,0,0,0,0  c0,0,0,0,0,0h6c1.7,0,3-1.3,3-3C75-38.7,73.7-40,72-40z M37.7-80.1l9.1,17c0.2,0.4,0.5,0.8,0.9,1l3.2,2.2L45.6-60l-9,2.5l0.4-8.7  L30.3-73L37.7-80.1z M13.5-40l7-10.9c0.1-0.2,0.2-0.3,0.3-0.5l6.3-16.2l3.8,3.8l-0.6,14.3l16-4.5l12.3,0.4L62.1-40H13.5z"/><path d="M-34-57.5c0-12.7-10.3-23-23-23c-12.7,0-23,10.3-23,23c0,12.7,10.3,23,23,23C-44.3-34.5-34-44.8-34-57.5z M-57-40.5  c-9.4,0-17-7.6-17-17c0-9.4,7.6-17,17-17s17,7.6,17,17C-40-48.1-47.6-40.5-57-40.5z"/><path d="M-58.8-82.7l1.3-2.6l1.3,2.6c0.5,1.1,1.6,1.7,2.7,1.7c0.5,0,0.9-0.1,1.3-0.3c1.5-0.7,2.1-2.5,1.3-4l-4-8  c-0.5-1-1.5-1.7-2.7-1.7c-1.1,0-2.2,0.6-2.7,1.7l-4,8c-0.7,1.5-0.1,3.3,1.3,4C-61.4-80.6-59.6-81.2-58.8-82.7z"/><path d="M-56.2-32.3l-1.3,2.6l-1.3-2.6c-0.7-1.5-2.5-2.1-4-1.3c-1.5,0.7-2.1,2.5-1.3,4l4,8c0.5,1,1.5,1.7,2.7,1.7  c1.1,0,2.2-0.6,2.7-1.7l4-8c0.7-1.5,0.1-3.3-1.3-4C-53.6-34.4-55.4-33.8-56.2-32.3z"/><path d="M-81.3-52.2c0.7-1.5,0.1-3.3-1.3-4l-2.6-1.3l2.6-1.3c1.5-0.7,2.1-2.5,1.3-4c-0.7-1.5-2.5-2.1-4-1.3l-8,4  c-1,0.5-1.7,1.5-1.7,2.7c0,1.1,0.6,2.2,1.7,2.7l8,4c0.4,0.2,0.9,0.3,1.3,0.3C-82.9-50.5-81.8-51.1-81.3-52.2z"/><path d="M-21.7-60.2l-8-4c-1.5-0.7-3.3-0.1-4,1.3c-0.7,1.5-0.1,3.3,1.3,4l2.6,1.3l-2.6,1.3c-1.5,0.7-2.1,2.5-1.3,4  c0.5,1.1,1.6,1.7,2.7,1.7c0.5,0,0.9-0.1,1.3-0.3l8-4c1-0.5,1.7-1.5,1.7-2.7C-20-58.6-20.6-59.7-21.7-60.2z"/><path d="M-70.6-78.1c0.5-1.6-0.3-3.3-1.9-3.8l-8.5-2.8c-1.1-0.4-2.3-0.1-3.1,0.7c-0.8,0.8-1.1,2-0.7,3.1l2.8,8.5  c0.4,1.3,1.6,2.1,2.8,2.1c0.3,0,0.6,0,0.9-0.2c1.6-0.5,2.4-2.2,1.9-3.8l-0.9-2.8l2.8,0.9C-72.8-75.7-71.1-76.5-70.6-78.1z"/><path d="M-33.1-42.5c-0.5-1.6-2.2-2.4-3.8-1.9c-1.6,0.5-2.4,2.2-1.9,3.8l0.9,2.8l-2.8-0.9c-1.6-0.5-3.3,0.3-3.8,1.9  c-0.5,1.6,0.3,3.3,1.9,3.8l8.5,2.8c0.3,0.1,0.6,0.2,0.9,0.2c0.8,0,1.6-0.3,2.1-0.9c0.8-0.8,1.1-2,0.7-3.1L-33.1-42.5z"/><path d="M-70.6-36.9c-0.5-1.6-2.2-2.4-3.8-1.9l-2.8,0.9l0.9-2.8c0.5-1.6-0.3-3.3-1.9-3.8c-1.6-0.5-3.3,0.3-3.8,1.9l-2.8,8.5  c-0.4,1.1-0.1,2.3,0.7,3.1c0.6,0.6,1.3,0.9,2.1,0.9c0.3,0,0.6-0.1,0.9-0.2l8.5-2.8C-70.9-33.6-70-35.3-70.6-36.9z"/><path d="M-33.1-72.5l2.8-8.5c0.4-1.1,0.1-2.3-0.7-3.1c-0.8-0.8-2-1.1-3.1-0.7l-8.5,2.8c-1.6,0.5-2.4,2.2-1.9,3.8  c0.5,1.6,2.2,2.4,3.8,1.9l2.8-0.9l-0.9,2.8c-0.5,1.6,0.3,3.3,1.9,3.8c0.3,0.1,0.6,0.2,0.9,0.2C-34.7-70.4-33.5-71.2-33.1-72.5z"/><path d="M-228.5-45.9c1.4,0.5,5-7,3.4-6.3C-226.8-51.5-229.6-46.3-228.5-45.9z"/><path d="M-118-49c-14.6,0-31.2-13.4-31.2-18.9c0-0.3,0-0.4,0.4-0.7c0.4-0.2,1.3-0.6,3-0.7c0.5,0,0.9-0.1,1.4-0.1c1.7,0,3-1.3,3-3  c0-1.7-1.3-3-3-3c-0.7,0-1.3,0-1.9,0.1c-10.8,0.8-16.6,7.9-21.7,14.2c-5.2,6.5-9.8,12.1-19,12.1c-1.7,0-3,1.3-3,3c0,1.7,1.3,3,3,3  c12.1,0,18.2-7.6,23.7-14.3c2.7-3.4,5.3-6.5,8.3-8.7c1.4,6.4,9.6,12.5,12.3,14.3c8,5.5,17,8.7,24.7,8.7c1.7,0,3-1.3,3-3  C-115-47.7-116.3-49-118-49z"/></svg>