<?xml version="1.0" ?><!DOCTYPE svg  PUBLIC '-//W3C//DTD SVG 1.1//EN'  'http://www.w3.org/Graphics/SVG/1.1/DTD/svg11.dtd'><svg enable-background="new 0 0 32 32" version="1.1" viewBox="0 0 32 32" xml:space="preserve" xmlns="http://www.w3.org/2000/svg" xmlns:xlink="http://www.w3.org/1999/xlink"><g><g id="Guide"/><g id="Notification"/><g id="New_Notification"/><g id="Statistic"/><g id="Favorite"><circle cx="16" cy="16" fill="none" r="14" stroke="#000000" stroke-miterlimit="10"/><path d="M16.1,8.6l1.8,5.5c0,0,0.1,0.1,0.1,0.1h5.8c0.1,0,0.2,0.1,0.1,0.2     l-4.7,3.4c0,0-0.1,0.1,0,0.1l1.8,5.5c0,0.1-0.1,0.2-0.2,0.1l-4.7-3.4c0,0-0.1,0-0.1,0l-4.7,3.4c-0.1,0.1-0.2,0-0.2-0.1l1.8-5.5     c0,0,0-0.1,0-0.1l-4.7-3.4c-0.1-0.1,0-0.2,0.1-0.2H14c0,0,0.1,0,0.1-0.1l1.8-5.5C15.9,8.5,16.1,8.5,16.1,8.6z" fill="none" stroke="#1D1D1B" stroke-miterlimit="10"/></g><g id="Checkbox"/><g id="Writing"/><g id="Italic"/><g id="Underline"/><g id="Setting"/><g id="Power"/></g></svg>