<?xml version="1.0" ?><svg data-name="Layer 1" id="Layer_1" viewBox="0 0 73.84277 70.80615" xmlns="http://www.w3.org/2000/svg"><defs><style>.cls-1{fill:none;}</style></defs><title/><path class="cls-1" d="M33.18652,81.16553a.50537.50537,0,0,0-.44531.37011l-.50586,2.72657.08008.09619H68.50586l.08008-.09619-.50586-2.727a.50551.50551,0,0,0-.44531-.36963H33.18652Z" transform="translate(-13.48926 -15.05225)"/><path class="cls-1" d="M85.832,58.5V20.78369a4.23651,4.23651,0,0,0-4.23144-4.23144H19.2207a4.23651,4.23651,0,0,0-4.23144,4.23144V58.5ZM39.793,37.34424a2.707,2.707,0,0,1,2.7041-2.7041h.67871V27.0459a7.42041,7.42041,0,1,1,14.84082,0v7.59424h.67871a2.707,2.707,0,0,1,2.7041,2.7041V52.28418a2.707,2.707,0,0,1-2.7041,2.7041H42.49707a2.707,2.707,0,0,1-2.7041-2.7041Z" transform="translate(-13.48926 -15.05225)"/><path class="cls-1" d="M42.49707,53.48828H58.69531a1.20531,1.20531,0,0,0,1.2041-1.2041V37.34424a1.20531,1.20531,0,0,0-1.2041-1.2041H42.49707a1.20531,1.20531,0,0,0-1.2041,1.2041V52.28418A1.20531,1.20531,0,0,0,42.49707,53.48828Zm5.418-11.49316a2.68115,2.68115,0,0,1,5.3623,0,2.65414,2.65414,0,0,1-.70605,1.81054l.86035,5.05225a.74959.74959,0,0,1-.73926.876H48.5a.74959.74959,0,0,1-.73926-.876l.86035-5.05225A2.65414,2.65414,0,0,1,47.915,41.99512Z" transform="translate(-13.48926 -15.05225)"/><path class="cls-1" d="M50.59668,24.02588a3.02412,3.02412,0,0,0-3.02051,3.02v7.59424h6.04V27.0459A3.02328,3.02328,0,0,0,50.59668,24.02588Z" transform="translate(-13.48926 -15.05225)"/><path class="cls-1" d="M49.38867,48.23389h2.415l-.7793-4.57813a.74856.74856,0,0,1,.28516-.72265,1.18115,1.18115,0,1,0-1.42676,0,.74856.74856,0,0,1,.28516.72265Z" transform="translate(-13.48926 -15.05225)"/><path class="cls-1" d="M46.07617,27.0459a4.52,4.52,0,1,1,9.04,0v7.59424H56.5166V27.0459a5.92041,5.92041,0,1,0-11.84082,0v7.59424h1.40039Z" transform="translate(-13.48926 -15.05225)"/><polygon class="cls-1" points="28.262 64.613 45.581 64.613 42.758 52.651 31.084 52.651 28.262 64.613"/><path class="cls-1" d="M14.98926,60v1.97217a4.23609,4.23609,0,0,0,4.23144,4.231H81.60059A4.23609,4.23609,0,0,0,85.832,61.97217V60Zm35.4209,4.75781a1.65625,1.65625,0,1,1,1.65625-1.65625A1.65834,1.65834,0,0,1,50.41016,64.75781Z" transform="translate(-13.48926 -15.05225)"/><circle class="cls-1" cx="36.9209" cy="48.04932" r="0.65625"/><path d="M81.60059,15.05225H19.2207a5.73816,5.73816,0,0,0-5.73144,5.73144V61.97217a5.73774,5.73774,0,0,0,5.73144,5.731H43.03192L40.21027,79.66553H33.18652a2.003,2.003,0,0,0-1.91992,1.59619l-.50586,2.72656a1.55176,1.55176,0,0,0,1.55469,1.87012H68.50586a1.55162,1.55162,0,0,0,1.55469-1.86963l-.50586-2.72754a2.00306,2.00306,0,0,0-1.91992-1.5957H60.6109L57.78851,67.70312H81.60059A5.73774,5.73774,0,0,0,87.332,61.97217V20.78369A5.73816,5.73816,0,0,0,81.60059,15.05225Zm-62.37989,1.5H81.60059A4.23651,4.23651,0,0,1,85.832,20.78369V58.5H14.98926V20.78369A4.23651,4.23651,0,0,1,19.2207,16.55225ZM67.63477,81.16553a.50551.50551,0,0,1,.44531.36963l.50586,2.727-.08008.09619H32.31543l-.08008-.09619.50586-2.72657a.50537.50537,0,0,1,.44531-.37011H67.63477Zm-8.56446-1.5H41.751l2.82226-11.96241H56.24707ZM81.60059,66.20312H19.2207a4.23609,4.23609,0,0,1-4.23144-4.23095V60H85.832v1.97217A4.23609,4.23609,0,0,1,81.60059,66.20312Z" transform="translate(-13.48926 -15.05225)"/><path d="M50.41016,61.44531a1.65625,1.65625,0,1,0,1.65625,1.65625A1.65835,1.65835,0,0,0,50.41016,61.44531Zm0,2.3125a.65625.65625,0,1,1,.65625-.65625A.65673.65673,0,0,1,50.41016,63.75781Z" transform="translate(-13.48926 -15.05225)"/><path d="M47.92676,49.46777a.75019.75019,0,0,0,.57324.26612h4.19238a.74959.74959,0,0,0,.73926-.876l-.86035-5.05225a2.65414,2.65414,0,0,0,.70605-1.81054,2.68115,2.68115,0,0,0-5.3623,0,2.65414,2.65414,0,0,0,.70605,1.81054l-.86035,5.05225A.75006.75006,0,0,0,47.92676,49.46777Zm1.956-6.53466a1.18115,1.18115,0,1,1,1.42676,0,.74856.74856,0,0,0-.28516.72265l.7793,4.57813h-2.415l.7793-4.57813A.74856.74856,0,0,0,49.88281,42.93311Z" transform="translate(-13.48926 -15.05225)"/><path d="M42.49707,54.98828H58.69531a2.707,2.707,0,0,0,2.7041-2.7041V37.34424a2.707,2.707,0,0,0-2.7041-2.7041H58.0166V27.0459a7.42041,7.42041,0,1,0-14.84082,0v7.59424h-.67871a2.707,2.707,0,0,0-2.7041,2.7041V52.28418A2.707,2.707,0,0,0,42.49707,54.98828ZM44.67578,27.0459a5.92041,5.92041,0,1,1,11.84082,0v7.59424H55.11621V27.0459a4.52,4.52,0,1,0-9.04,0v7.59424H44.67578Zm8.94043,7.59424h-6.04V27.0459a3.02,3.02,0,1,1,6.04,0ZM41.293,37.34424a1.20531,1.20531,0,0,1,1.2041-1.2041H58.69531a1.20531,1.20531,0,0,1,1.2041,1.2041V52.28418a1.20531,1.20531,0,0,1-1.2041,1.2041H42.49707a1.20531,1.20531,0,0,1-1.2041-1.2041Z" transform="translate(-13.48926 -15.05225)"/></svg>