<?xml version="1.0" ?><svg data-name="Layer 1" id="Layer_1" viewBox="0 0 43.60254 72.40879" xmlns="http://www.w3.org/2000/svg"><defs><style>.cls-1{fill:none;}</style></defs><title/><path class="cls-1" d="M63.81445,42.54346V25.8208A13.23267,13.23267,0,0,0,49.92969,12.61865,13.41661,13.41661,0,0,0,37.37793,26.22607V31.398a.85856.85856,0,0,0,.85449.85742l2.86914.00977h.00293a.84606.84606,0,0,0,.84668-.84668V25.8208a8.67726,8.67726,0,0,1,2.74414-6.31348,8.5665,8.5665,0,0,1,6.49121-2.312,8.81513,8.81513,0,0,1,8.05469,8.9043V42.54346Z" transform="translate(-28.79492 -11.10342)"/><path class="cls-1" d="M52.58691,59.74268a3.29411,3.29411,0,1,0-3.98144-.001.75075.75075,0,0,1,.28418.72266L47.09473,71.00879l7.00293.00049L52.30273,60.46484A.74952.74952,0,0,1,52.58691,59.74268Z" transform="translate(-28.79492 -11.10342)"/><path class="cls-1" d="M67.55566,44.04346H33.63672a3.34545,3.34545,0,0,0-3.3418,3.34179V78.67041a3.34546,3.34546,0,0,0,3.3418,3.3418H67.55566a3.34546,3.34546,0,0,0,3.3418-3.3418V47.38525A3.34545,3.34545,0,0,0,67.55566,44.04346ZM55.55957,72.24268a.75184.75184,0,0,1-.57324.26611l-8.78028.00049a.74957.74957,0,0,1-.73925-.876l1.87207-10.99756a4.78715,4.78715,0,0,1,.26953-7.25928,4.82186,4.82186,0,0,1,4.10644-.918,4.79077,4.79077,0,0,1,2.13868,8.17675l1.87207,10.99756A.75008.75008,0,0,1,55.55957,72.24268Z" transform="translate(-28.79492 -11.10342)"/><path d="M55.2666,56.03076a4.73948,4.73948,0,0,0-3.55176-3.57226,4.82186,4.82186,0,0,0-4.10644.918,4.78715,4.78715,0,0,0-.26953,7.25928L45.4668,71.6333a.74957.74957,0,0,0,.73925.876l8.78028-.00049a.74958.74958,0,0,0,.73926-.876L53.85352,60.63525A4.78529,4.78529,0,0,0,55.2666,56.03076ZM54.09766,71.00928l-7.00293-.00049,1.79492-10.54443a.75075.75075,0,0,0-.28418-.72266,3.28658,3.28658,0,0,1-.06152-5.19287,3.33272,3.33272,0,0,1,2.83691-.62793,3.29135,3.29135,0,0,1,1.20605,5.82178.74952.74952,0,0,0-.28418.72216Z" transform="translate(-28.79492 -11.10342)"/><path d="M67.55566,42.54346H65.31445V25.8208a14.73258,14.73258,0,0,0-15.459-14.70019A14.91429,14.91429,0,0,0,35.87793,26.22607V31.398a2.36149,2.36149,0,0,0,2.34863,2.35742l2.86914.00977h.00977a2.34644,2.34644,0,0,0,2.3457-2.34668V25.8208A7.1706,7.1706,0,0,1,45.7207,20.603a7.08041,7.08041,0,0,1,5.36621-1.91065,7.31072,7.31072,0,0,1,6.6543,7.40723V42.54346H33.63672a4.84709,4.84709,0,0,0-4.8418,4.84179V78.67041a4.8471,4.8471,0,0,0,4.8418,4.8418H67.55566a4.84709,4.84709,0,0,0,4.8418-4.8418V47.38525A4.84709,4.84709,0,0,0,67.55566,42.54346ZM51.18652,17.19531a8.5665,8.5665,0,0,0-6.49121,2.312,8.67726,8.67726,0,0,0-2.74414,6.31348v5.59766a.84606.84606,0,0,1-.84668.84668h-.00293l-2.86914-.00977a.85856.85856,0,0,1-.85449-.85742V26.22607A13.41661,13.41661,0,0,1,49.92969,12.61865,13.23267,13.23267,0,0,1,63.81445,25.8208V42.54346H59.24121V26.09961A8.81513,8.81513,0,0,0,51.18652,17.19531Zm19.71094,61.4751a3.34546,3.34546,0,0,1-3.3418,3.3418H33.63672a3.34546,3.34546,0,0,1-3.3418-3.3418V47.38525a3.34545,3.34545,0,0,1,3.3418-3.34179H67.55566a3.34545,3.34545,0,0,1,3.3418,3.34179Z" transform="translate(-28.79492 -11.10342)"/></svg>