<?xml version="1.0" ?><svg data-name="Layer 1" id="Layer_1" viewBox="0 0 42.90716 77.41797" xmlns="http://www.w3.org/2000/svg"><defs><style>.cls-1{fill:none;}</style></defs><title/><path class="cls-1" d="M54.9834,47.75391a.95309.95309,0,0,0-.82861,1.06054l.33544,2.73731a.95146.95146,0,0,0,1.88868-.23242L56.04346,48.582A.95111.95111,0,0,0,54.9834,47.75391Z" transform="translate(-29.4375 -9.06641)"/><path class="cls-1" d="M68.06152,48.62793a12.87469,12.87469,0,1,0-25.5581,3.13281l2.68506,21.91309A12.87469,12.87469,0,1,0,70.74658,70.541ZM55.73291,53.86816a2.40338,2.40338,0,0,1-.2998.01856A2.45532,2.45532,0,0,1,53.001,51.7334l-.33545-2.73731a2.45175,2.45175,0,0,1,4.86718-.5957l.33545,2.73731A2.45391,2.45391,0,0,1,55.73291,53.86816Z" transform="translate(-29.4375 -9.06641)"/><path d="M72.23584,70.35938,69.55078,48.44629A14.3456,14.3456,0,0,0,54.2309,35.87415c-.566-2.52991-3.11719-11.27674-11.69477-13.6847C33.582,19.6748,30.9209,9.17285,30.895,9.06641L29.4375,9.4209c.11328.4668,2.8833,11.458,12.69336,14.21191,7.54449,2.11817,10.00842,9.9961,10.59857,12.43329A14.382,14.382,0,0,0,41.01416,51.94238l2.68506,21.91309A14.38018,14.38018,0,0,0,57.93848,86.48438a14.526,14.526,0,0,0,1.77734-.10938,14.37441,14.37441,0,0,0,12.52-16.01562Zm-4.12451,9.67675a12.87472,12.87472,0,0,1-22.92285-6.3623L42.50342,51.76074a12.87469,12.87469,0,1,1,25.5581-3.13281L70.74658,70.541A12.78965,12.78965,0,0,1,68.11133,80.03613Z" transform="translate(-29.4375 -9.06641)"/><path d="M57.53271,48.40039a2.45175,2.45175,0,0,0-4.86718.5957L53.001,51.7334a2.45532,2.45532,0,0,0,2.43213,2.15332,2.40338,2.40338,0,0,0,.2998-.01856,2.45391,2.45391,0,0,0,2.13525-2.73046Zm-1.98242,3.97949a.95363.95363,0,0,1-1.06006-.82812l-.33544-2.73731a.95146.95146,0,0,1,1.88867-.23242l.33545,2.73731A.95255.95255,0,0,1,55.55029,52.37988Z" transform="translate(-29.4375 -9.06641)"/></svg>