<?xml version="1.0" ?><svg data-name="Layer 1" id="Layer_1" viewBox="0 0 49.90527 81.85059" xmlns="http://www.w3.org/2000/svg"><defs><style>.cls-1{fill:#fff;}</style></defs><title/><path class="cls-1" d="M32.00525,62.56055h.62268v-.3877a1.98831,1.98831,0,0,1,.07-.49835A1.09655,1.09655,0,0,0,32.00525,62.56055Z" transform="translate(-24.36523 -8.50098)"/><path d="M69.23047,60.0957H55.78906V49.72656h3.65625a.74966.74966,0,0,0,.53028-1.28027l-8.72071-8.7207a.74972.74972,0,0,0-1.06054,0l-8.72071,8.7207a.74966.74966,0,0,0,.53028,1.28027h3.65527V60.0957H44.627V59.708a2.01553,2.01553,0,0,0-2.01269-2.0127h-4.919a2.01553,2.01553,0,0,0-2.01269,2.0127v.38769H33.08691a2.60811,2.60811,0,0,0-2.59649,2.46485h-.45819A2.60678,2.60678,0,0,0,27.442,64.96289h-.46448a2.61506,2.61506,0,0,0-2.61231,2.61133v20.166a2.61506,2.61506,0,0,0,2.61231,2.61133H63.12109a2.60678,2.60678,0,0,0,2.59021-2.40234h.46448a2.6083,2.6083,0,0,0,2.5965-2.46582h.45819a2.61506,2.61506,0,0,0,2.6123-2.61133V62.707A2.61506,2.61506,0,0,0,69.23047,60.0957Zm1.1123,22.77637a1.11341,1.11341,0,0,1-1.1123,1.11133h-.44336V65.17188a2.61485,2.61485,0,0,0-2.61133-2.61133H55.78906V61.5957H69.23047a1.11342,1.11342,0,0,1,1.1123,1.11133Zm-4.167,3.57715h-.44336v-18.875a2.61485,2.61485,0,0,0-2.61133-2.61133h-7.332v-.90234H66.17578a1.11321,1.11321,0,0,1,1.11133,1.11133v20.165A1.11341,1.11341,0,0,1,66.17578,86.44922Zm-3.05469,2.40234H26.97754a1.11342,1.11342,0,0,1-1.11231-1.11133v-20.166a1.11342,1.11342,0,0,1,1.11231-1.11133h3.3457a.7502.7502,0,0,0,.75-.75V64.57617a.5141.5141,0,0,1,.5127-.51367h4.91894a.5141.5141,0,0,1,.5127.51367v1.13672a.7502.7502,0,0,0,.75.75H63.12109a1.11321,1.11321,0,0,1,1.11133,1.11133v20.166A1.11321,1.11321,0,0,1,63.12109,88.85156ZM37.69531,59.19531h4.919a.51389.51389,0,0,1,.51269.5127V60.8457a.75019.75019,0,0,0,.75.75h1.78223v.96485H41.57227v-.3877a2.01553,2.01553,0,0,0-2.0127-2.01269h-2.377V59.708A.51389.51389,0,0,1,37.69531,59.19531Zm8.71387-10.96875H43.81445l6.91016-6.91015,6.91016,6.91015H55.03906a.7502.7502,0,0,0-.75.75V64.86914H47.15918V48.97656A.7502.7502,0,0,0,46.40918,48.22656Zm-7.8916,16.73633v-.38672a2.01573,2.01573,0,0,0-2.0127-2.01367h-2.377v-.38965a.51388.51388,0,0,1,.51269-.51269h4.919a.51388.51388,0,0,1,.5127.51269v1.1377a.75019.75019,0,0,0,.75.75h4.83691v.90234Zm-5.88965-2.79v.3877h-.62268a1.09655,1.09655,0,0,1,.69269-.886A1.98831,1.98831,0,0,0,32.62793,62.17285Zm-3.05469,2.40332v.38672h-.61a1.09778,1.09778,0,0,1,.65942-.81934A2.00622,2.00622,0,0,0,29.57324,64.57617Z" transform="translate(-24.36523 -8.50098)"/><path class="cls-1" d="M28.96326,64.96289h.61v-.38672a2.00622,2.00622,0,0,1,.04944-.43262A1.09778,1.09778,0,0,0,28.96326,64.96289Z" transform="translate(-24.36523 -8.50098)"/><path d="M66.76367,34.77539H37.35449a9.5141,9.5141,0,0,1-1.10156-18.96484A7.98571,7.98571,0,0,1,51.9707,14.60449a7.97375,7.97375,0,0,1,11.49707,5.66992,7.60377,7.60377,0,1,1,3.2959,14.501ZM44.21,10.001a6.49439,6.49439,0,0,0-6.4873,6.48632.76554.76554,0,0,1-.7168.76758,8.01393,8.01393,0,0,0,.34863,16.02051H66.76367a6.00684,6.00684,0,1,0,0-12.01367.84814.84814,0,0,1-.08691-.00488,5.749,5.749,0,0,0-3.42481.81836.75121.75121,0,0,1-1.16211-.60059,6.47155,6.47155,0,0,0-10.24121-5.041.75071.75071,0,0,1-1.18359-.542A6.44745,6.44745,0,0,0,44.21,10.001Z" transform="translate(-24.36523 -8.50098)"/></svg>