<?xml version="1.0" ?><svg data-name="Layer 1" id="Layer_1" viewBox="0 0 47.64355 74.5" xmlns="http://www.w3.org/2000/svg"><defs><style>.cls-1{fill:none;}</style></defs><title/><path class="cls-1" d="M58.51318,47.38721A11.04787,11.04787,0,0,0,56.1416,40.54l-1.70166,1.52734a8.78857,8.78857,0,0,1,0,10.63965l1.70166,1.52735A11.04789,11.04789,0,0,0,58.51318,47.38721Z" transform="translate(-24.38574 -12.75)"/><path class="cls-1" d="M48.20752,49.35889a1.97144,1.97144,0,1,0-1.97119-1.97168A1.97354,1.97354,0,0,0,48.20752,49.35889Z" transform="translate(-24.38574 -12.75)"/><path class="cls-1" d="M40.27344,54.23438,41.9751,52.707a8.78857,8.78857,0,0,1,0-10.63965L40.27344,40.54a11.072,11.072,0,0,0,0,13.69434Z" transform="translate(-24.38574 -12.75)"/><path class="cls-1" d="M70.45648,17.5332A4.00324,4.00324,0,0,0,66.52686,14.25H29.88867a4.00386,4.00386,0,0,0-3.93011,3.2832Z" transform="translate(-24.38574 -12.75)"/><path class="cls-1" d="M34.69434,59.84961l1.66162-1.564a16.67037,16.67037,0,0,1,0-21.79638l-1.66162-1.564a18.95128,18.95128,0,0,0,0,24.92432Z" transform="translate(-24.38574 -12.75)"/><path class="cls-1" d="M60.05908,58.28564l1.66162,1.564a18.95128,18.95128,0,0,0,0-24.92432l-1.66162,1.564a16.67037,16.67037,0,0,1,0,21.79638Z" transform="translate(-24.38574 -12.75)"/><circle class="cls-1" cx="23.82178" cy="68.62549" r="1.16162"/><path class="cls-1" d="M70.5293,75.74121V19.0332H25.88574v56.708ZM58.58105,35.93213,61.27393,33.397a.711.711,0,0,1,1.00293.03028,20.36816,20.36816,0,0,1,0,27.92041.70958.70958,0,0,1-1.00293.03027l-2.69288-2.53516a.70969.70969,0,0,1-.03027-1.00293,15.25127,15.25127,0,0,0,0-20.90478.71.71,0,0,1,.03027-1.00293Zm-5.64941,6.53564a.70836.70836,0,0,1,.0542-1.00146l2.75293-2.4707a.70992.70992,0,0,1,1.00146.05419,12.48481,12.48481,0,0,1,0,16.67481.70846.70846,0,0,1-1.00146.0542l-2.75293-2.4707a.70893.70893,0,0,1-.0542-1.002,7.369,7.369,0,0,0,0-9.83838Zm-4.72412,1.5293a3.39038,3.39038,0,1,1-3.39014,3.39014A3.39422,3.39422,0,0,1,48.20752,43.99707Zm-7.53125-5.00146,2.75293,2.4707a.70836.70836,0,0,1,.0542,1.00146,7.369,7.369,0,0,0,0,9.83838.70893.70893,0,0,1-.0542,1.002l-2.75293,2.4707a.70847.70847,0,0,1-1.00147-.0542,12.48627,12.48627,0,0,1,0-16.67481A.70819.70819,0,0,1,40.67627,38.99561ZM35.14111,33.397,37.834,35.93213a.71.71,0,0,1,.03028,1.00293,15.25127,15.25127,0,0,0,0,20.90478.70968.70968,0,0,1-.03028,1.00293l-2.69287,2.53516a.70958.70958,0,0,1-1.00293-.03027,20.36816,20.36816,0,0,1,0-27.92041A.711.711,0,0,1,35.14111,33.397Z" transform="translate(-24.38574 -12.75)"/><path class="cls-1" d="M25.88574,77.24121v4.50586A4.00771,4.00771,0,0,0,29.88867,85.75H66.52686a4.00729,4.00729,0,0,0,4.00244-4.00293V77.24121Zm22.32178,6.2959a2.16162,2.16162,0,1,1,2.16162-2.16162A2.1641,2.1641,0,0,1,48.20752,83.53711Z" transform="translate(-24.38574 -12.75)"/><path d="M66.52686,12.75H29.88867a5.50935,5.50935,0,0,0-5.50293,5.50293V81.74707A5.50935,5.50935,0,0,0,29.88867,87.25H66.52686a5.50893,5.50893,0,0,0,5.50244-5.50293V18.25293A5.50893,5.50893,0,0,0,66.52686,12.75Zm-36.63819,1.5H66.52686a4.00324,4.00324,0,0,1,3.92962,3.2832H25.95856A4.00386,4.00386,0,0,1,29.88867,14.25ZM70.5293,19.0332v56.708H25.88574V19.0332ZM66.52686,85.75H29.88867a4.00771,4.00771,0,0,1-4.00293-4.00293V77.24121H70.5293v4.50586A4.00729,4.00729,0,0,1,66.52686,85.75Z" transform="translate(-24.38574 -12.75)"/><path d="M48.20752,79.21387a2.16162,2.16162,0,1,0,2.16162,2.16162A2.1641,2.1641,0,0,0,48.20752,79.21387Zm0,3.32324a1.16162,1.16162,0,1,1,1.16162-1.16162A1.1628,1.1628,0,0,1,48.20752,82.53711Z" transform="translate(-24.38574 -12.75)"/><path d="M48.20752,50.77783a3.39038,3.39038,0,1,0-3.39014-3.39062A3.39432,3.39432,0,0,0,48.20752,50.77783Zm0-5.36181a1.97144,1.97144,0,1,1-1.97119,1.97119A1.97343,1.97343,0,0,1,48.20752,45.416Z" transform="translate(-24.38574 -12.75)"/><path d="M52.751,52.81836a.70925.70925,0,0,0,.23486.48975l2.75293,2.4707a.70846.70846,0,0,0,1.00146-.0542,12.48481,12.48481,0,0,0,0-16.67481.70992.70992,0,0,0-1.00146-.05419l-2.75293,2.4707a.70836.70836,0,0,0-.0542,1.00146,7.369,7.369,0,0,1,0,9.83838A.71227.71227,0,0,0,52.751,52.81836Zm3.48193-5.43115a8.76975,8.76975,0,0,0-1.793-5.31983L56.1416,40.54a11.07028,11.07028,0,0,1,0,13.69434L54.43994,52.707A8.76762,8.76762,0,0,0,56.23291,47.38721Z" transform="translate(-24.38574 -12.75)"/><path d="M62.6958,47.38721a15.19405,15.19405,0,0,1-4.145,10.45263.70969.70969,0,0,0,.03027,1.00293l2.69288,2.53516a.70958.70958,0,0,0,1.00293-.03027,20.36816,20.36816,0,0,0,0-27.92041.711.711,0,0,0-1.00293-.03028l-2.69288,2.53516a.71.71,0,0,0-.03027,1.00293A15.1889,15.1889,0,0,1,62.6958,47.38721Zm-.9751-12.46192a18.95128,18.95128,0,0,1,0,24.92432l-1.66162-1.564a16.67037,16.67037,0,0,0,0-21.79638Z" transform="translate(-24.38574 -12.75)"/><path d="M39.6748,55.72461a.70847.70847,0,0,0,1.00147.0542l2.75293-2.4707a.70893.70893,0,0,0,.0542-1.002,7.369,7.369,0,0,1,0-9.83838.70836.70836,0,0,0-.0542-1.00146l-2.75293-2.4707a.70819.70819,0,0,0-1.00147.05419,12.48627,12.48627,0,0,0,0,16.67481ZM40.27344,40.54l1.70166,1.52734a8.78857,8.78857,0,0,0,0,10.63965l-1.70166,1.52735a11.072,11.072,0,0,1,0-13.69434Z" transform="translate(-24.38574 -12.75)"/><path d="M34.13818,61.34766a.70958.70958,0,0,0,1.00293.03027L37.834,58.84277a.70968.70968,0,0,0,.03028-1.00293,15.25127,15.25127,0,0,1,0-20.90478.71.71,0,0,0-.03028-1.00293L35.14111,33.397a.711.711,0,0,0-1.00293.03028,20.36816,20.36816,0,0,0,0,27.92041Zm.55616-26.42237,1.66162,1.564a16.67037,16.67037,0,0,0,0,21.79638l-1.66162,1.564a18.95128,18.95128,0,0,1,0-24.92432Z" transform="translate(-24.38574 -12.75)"/></svg>