<?xml version="1.0" ?><!DOCTYPE svg  PUBLIC '-//W3C//DTD SVG 1.1//EN'  'http://www.w3.org/Graphics/SVG/1.1/DTD/svg11.dtd'><svg enable-background="new 0 0 58.6972 53.4804" id="mailbox-hearts" version="1.1" viewBox="0 0 58.6972 53.4804" xml:space="preserve" xmlns="http://www.w3.org/2000/svg" xmlns:xlink="http://www.w3.org/1999/xlink"><g><g><polygon fill="#FFA8A6" points="33.2216,8.4961 33.2216,1 44.4667,1 41.6552,4.749 44.4667,8.4961   "/><path d="M9.8935,30.4023l-0.0449-0.5391c-0.1123-1.121-0.8604-2.0312-1.8594-2.2597l-0.8848-0.2031l0.0899-0.9024    c0.1211-1.2012,1-2.0723,2.0879-2.0723c0.832,0,1.5839,0.4932,1.916,1.2559c0.3379-0.7754,1.0537-1.2559,1.8691-1.2559    c1.0967,0,1.9785,0.9014,2.0967,2.1446h-0.002c0.0176,0.1699,0.0069,0.4082-0.0722,0.7353    c-0.166,0.6758-0.5469,1.2891-1.1045,1.7764l-2.7871,2.4434L9.8935,30.4023z" fill="#FFA8A6"/><path d="M2.2353,32.7754c-0.5391-0.4727-0.9268-1.0411-1.1445-1.6631H0.6972l0.2148-1.21    c0.1114-1.1787,0.9512-2.3594,2.3467-2.3594c0.9317,0,1.7764,0.5528,2.1524,1.4082c0.3779-0.8691,1.1816-1.4082,2.0947-1.4082    c1.2314,0,2.2207,1.0098,2.3535,2.4014c0.0117,0.1533,0.0137,0.4307-0.083,0.8281c-0.1865,0.7588-0.6133,1.4483-1.2373,1.9951    l-3.1279,2.7422L2.2353,32.7754z" fill="#FBD0C4"/><path d="M8.0351,41.2353v-7.2109l-0.1953-0.6377L8.54,32.7675c0.3515-0.3095,0.6494-0.6855,0.8828-1.1201    l0.6094-1.126l1.166,1.0059l2.7871-2.4453c0.5566-0.4854,0.9375-1.1006,1.1045-1.7783c0.1045-0.4307,0.0801-0.6983,0.0703-0.7705    c-0.124-1.2188-1.0215-2.1075-2.0928-2.1075c-0.459,0-0.8877,0.1465-1.2402,0.4268l-0.6309,0.499l-0.6377-0.4912    c-0.3633-0.2793-0.8164-0.4346-1.2763-0.4346l-0.1387,0.0186l-1.1084,0.085v-3.4395c0-4.3916,3.5732-7.9648,7.9648-7.9648    c0.0684,0,0.4688,0.0234,0.4688,0.0234c0.7676,0.0449,1.5215,0.1992,2.2402,0.4609c0.2481,0.0899,0.4639,0.1817,0.6758,0.2793    c0.2637,0.1289,0.457,0.2315,0.6445,0.3418l0.1094,0.0664c0.166,0.1006,0.3359,0.2129,0.502,0.3321l0.0976,0.0722    c0.1807,0.1348,0.3301,0.2559,0.4746,0.3809l0.1026,0.0918c0.1748,0.1582,0.3066,0.2832,0.4326,0.4141l0.1133,0.125    c0.1484,0.164,0.2627,0.2949,0.3691,0.4277l0.125,0.166c0.1221,0.1641,0.2207,0.2988,0.3115,0.4375l0.1065,0.1758    c0.1152,0.1885,0.1972,0.3232,0.2705,0.4619c0.0371,0.0723,0.0703,0.1426,0.1035,0.2109    c0.1016,0.2139,0.1621,0.3399,0.2158,0.4707c0.0342,0.083,0.0645,0.167,0.0938,0.251l-0.9151,0.4971l0.9658-0.3584    c0.0401,0.1074,0.0782,0.2158,0.1124,0.3242c0.0292,0.0986,0.0527,0.1953,0.0761,0.291l0.042,0.1641    c0.0254,0.0976,0.0508,0.1943,0.0703,0.293c0.0244,0.121,0.042,0.246,0.0586,0.3681l0.0244,0.169    c0.0127,0.0781,0.0254,0.1543,0.0323,0.2353c0.0254,0.2588,0.04,0.5244,0.04,0.792v20.1455H8.0351z" fill="#CCCCCC"/><path d="M12.7236,17.4746c0,0.5683-0.4619,1.0293-1.0293,1.0293    c-0.5684,0-1.0303-0.461-1.0303-1.0293c0-0.5694,0.4619-1.0293,1.0303-1.0293C12.2617,16.4453,12.7236,16.9052,12.7236,17.4746z     M17.872,18.5039c0.5674,0,1.0293-0.461,1.0293-1.0293c0-0.5694-0.4619-1.0293-1.0293-1.0293    c-0.5684,0-1.0303,0.4599-1.0303,1.0293C16.8417,18.0429,17.3036,18.5039,17.872,18.5039z M14.7831,15.415    c0.5674,0,1.0293-0.4619,1.0293-1.0293c0-0.5693-0.4619-1.0303-1.0293-1.0303c-0.5683,0-1.0302,0.461-1.0302,1.0303    C13.7529,14.9531,14.2148,15.415,14.7831,15.415z M20.9609,15.415c0.1738,0,0.3291-0.0537,0.4746-0.1309    c-0.041-0.0361-0.0762-0.0703-0.1201-0.1103l-0.1026-0.0918c-0.1445-0.125-0.2939-0.2461-0.4746-0.3809l-0.0976-0.0722    c-0.1661-0.1192-0.336-0.2315-0.502-0.3321l-0.1094-0.0664c-0.0185-0.0117-0.041-0.0215-0.0605-0.0341    c-0.0117,0.0644-0.0381,0.123-0.0381,0.1894C19.9306,14.9531,20.3925,15.415,20.9609,15.415z M14.7831,19.5332    c-0.5683,0-1.0302,0.4609-1.0302,1.0293c0,0.5683,0.4619,1.0302,1.0302,1.0302c0.5674,0,1.0293-0.4619,1.0293-1.0302    C15.8124,19.9941,15.3505,19.5332,14.7831,19.5332z M20.9609,21.5927c0.5674,0,1.0293-0.4619,1.0293-1.0302    c0-0.5684-0.4619-1.0293-1.0293-1.0293c-0.5684,0-1.0303,0.4609-1.0303,1.0293C19.9306,21.1308,20.3925,21.5927,20.9609,21.5927z     M23.4462,18.2871c-0.0263-0.0742-0.0527-0.1504-0.083-0.2237c-0.0537-0.1308-0.1142-0.2568-0.2158-0.4707    c-0.0332-0.0683-0.0664-0.1386-0.1035-0.2109c-0.001-0.002-0.0029-0.0049-0.0039-0.0068    c-0.0039,0.0341-0.0205,0.0644-0.0205,0.0996C23.0195,17.8125,23.1943,18.0986,23.4462,18.2871z M11.6943,21.5927    c-0.5684,0-1.0303,0.46-1.0303,1.0303c0,0.5674,0.4619,1.0293,1.0303,1.0293c0.5674,0,1.0293-0.4619,1.0293-1.0293    C12.7236,22.0527,12.2617,21.5927,11.6943,21.5927z M17.872,23.6523c0.5674,0,1.0293-0.4619,1.0293-1.0293    c0-0.5703-0.4619-1.0303-1.0293-1.0303c-0.5684,0-1.0303,0.46-1.0303,1.0303C16.8417,23.1904,17.3036,23.6523,17.872,23.6523z     M15.8124,25.7109c0-0.5684-0.4619-1.0293-1.0293-1.0293c-0.1963,0-0.3701,0.0693-0.5254,0.1641    c0.4844,0.3759,0.8291,0.9726,0.9024,1.6875c0.0029,0.0224,0.0068,0.0703,0.0078,0.1289    C15.5449,26.5097,15.8124,26.1425,15.8124,25.7109z M20.9609,26.7402c0.5674,0,1.0293-0.4609,1.0293-1.0293    s-0.4619-1.0293-1.0293-1.0293c-0.5684,0-1.0303,0.4609-1.0303,1.0293S20.3925,26.7402,20.9609,26.7402z M23.0195,22.623    c0,0.5371,0.4179,0.9668,0.9443,1.0117v-2.0254C23.4374,21.6552,23.0195,22.0839,23.0195,22.623z M17.872,29.83    c0.5674,0,1.0293-0.4619,1.0293-1.0302c0-0.5694-0.4619-1.0293-1.0293-1.0293c-0.5684,0-1.0303,0.4599-1.0303,1.0293    C16.8417,29.3681,17.3036,29.83,17.872,29.83z M11.6943,36.0078c0.5674,0,1.0293-0.4629,1.0293-1.0303    c0-0.5693-0.4619-1.0303-1.0293-1.0303c-0.5684,0-1.0303,0.461-1.0303,1.0303C10.664,35.5449,11.1259,36.0078,11.6943,36.0078z     M17.872,36.0078c0.5674,0,1.0293-0.4629,1.0293-1.0303c0-0.5693-0.4619-1.0303-1.0293-1.0303    c-0.5684,0-1.0303,0.461-1.0303,1.0303C16.8417,35.5449,17.3036,36.0078,17.872,36.0078z M14.7831,32.9179    c0.5674,0,1.0293-0.4609,1.0293-1.0293c0-0.5683-0.4619-1.0293-1.0293-1.0293c-0.5683,0-1.0302,0.461-1.0302,1.0293    C13.7529,32.457,14.2148,32.9179,14.7831,32.9179z M20.9609,32.9179c0.5674,0,1.0293-0.4609,1.0293-1.0293    c0-0.5683-0.4619-1.0293-1.0293-1.0293c-0.5684,0-1.0303,0.461-1.0303,1.0293C19.9306,32.457,20.3925,32.9179,20.9609,32.9179z     M14.7831,39.0957c0.5674,0,1.0293-0.461,1.0293-1.0293c0-0.5694-0.4619-1.0293-1.0293-1.0293    c-0.5683,0-1.0302,0.4599-1.0302,1.0293C13.7529,38.6347,14.2148,39.0957,14.7831,39.0957z M20.9609,39.0957    c0.5674,0,1.0293-0.461,1.0293-1.0293c0-0.5694-0.4619-1.0293-1.0293-1.0293c-0.5684,0-1.0303,0.4599-1.0303,1.0293    C19.9306,38.6347,20.3925,39.0957,20.9609,39.0957z M23.0195,28.7998c0,0.5381,0.4179,0.9677,0.9443,1.0127v-2.0254    C23.4374,27.832,23.0195,28.2617,23.0195,28.7998z M23.0195,34.9775c0,0.5381,0.4179,0.9678,0.9443,1.0127v-2.0254    C23.4374,34.0097,23.0195,34.4384,23.0195,34.9775z M11.6943,39.0957c-0.5684,0-1.0303,0.4609-1.0303,1.0293    c0,0.5683,0.4619,1.0302,1.0303,1.0302c0.5674,0,1.0293-0.4619,1.0293-1.0302C12.7236,39.5566,12.2617,39.0957,11.6943,39.0957z     M17.872,41.1552c0.5674,0,1.0293-0.4619,1.0293-1.0302c0-0.5684-0.4619-1.0293-1.0293-1.0293    c-0.5684,0-1.0303,0.4609-1.0303,1.0293C16.8417,40.6933,17.3036,41.1552,17.872,41.1552z M23.0195,40.125    c0,0.539,0.4179,0.9677,0.9443,1.0136v-2.0254C23.4374,39.1582,23.0195,39.5859,23.0195,40.125z M9.6347,19.5332    c-0.5684,0-1.0293,0.4609-1.0293,1.0293c0,0.5683,0.4609,1.0302,1.0293,1.0302c0.5684,0,1.0293-0.4619,1.0293-1.0302    C10.664,19.9941,10.2031,19.5332,9.6347,19.5332z M9.6347,32.9179c0.5684,0,1.0293-0.4609,1.0293-1.0293    c0-0.5-0.3633-0.8964-0.8359-0.9902l-0.4053,0.749c-0.168,0.3115-0.3789,0.5821-0.6084,0.8311    C9.0009,32.7373,9.291,32.9179,9.6347,32.9179z M9.6347,39.0957c0.5684,0,1.0293-0.461,1.0293-1.0293    c0-0.5694-0.4609-1.0293-1.0293-1.0293c-0.5684,0-1.0293,0.4599-1.0293,1.0293C8.6054,38.6347,9.0663,39.0957,9.6347,39.0957z" fill="#43525B" opacity="0.3"/><rect fill="#CCCCCC" height="11.2451" width="7.497" x="29.5859" y="41.2353"/><path d="M23.9638,41.2353V21.0898c0-0.293-0.0186-0.581-0.0498-0.8672l-0.041-0.2646    c-0.0283-0.1934-0.0567-0.3877-0.0987-0.5791l-0.0761-0.2891c-0.0459-0.1777-0.0947-0.3525-0.1514-0.5234    c-0.0312-0.0928-0.0654-0.1836-0.0996-0.2735c-0.0703-0.1836-0.1377-0.3476-0.2129-0.5117    c-0.04-0.0879-0.083-0.1738-0.1269-0.2627c-0.085-0.167-0.1729-0.3271-0.2676-0.4853l-0.1416-0.2344    c-0.1065-0.165-0.2227-0.3262-0.3418-0.4844l-0.1319-0.1797c-0.1523-0.1894-0.3115-0.3691-0.4785-0.5429l-0.0742-0.0821    c-0.1846-0.1875-0.3896-0.3828-0.6064-0.5605l-2.208-1.8242h14.3642v12.2382V13.125h17.7901c3.6865,0,6.6855,3,6.6855,6.6855    v21.4248H23.9638z" fill="#C0DFCF"/></g><g><g><path d="M24.9638,42.2353H7.0351v-8.2109c0-0.5523,0.4473-1,1-1s1,0.4477,1,1v6.2109h13.9287V21.0898     c0-3.8403-3.124-6.9648-6.9639-6.9648c-3.8408,0-6.9648,3.1245-6.9648,6.9648v3.334c0,0.5522-0.4473,1-1,1s-1-0.4478-1-1v-3.334     c0-4.9434,4.0215-8.9648,8.9648-8.9648c4.9424,0,8.9639,4.0214,8.9639,8.9648V42.2353L24.9638,42.2353z" fill="#43525B"/></g><g><path d="M58.6972,42.2353H23.9638c-0.5527,0-1-0.4477-1-1c0-0.5522,0.4473-1,1-1h32.7334V19.8105     c0-3.1352-2.5508-5.6855-5.6855-5.6855H16.6201c-0.5713,0.0913-1.1514-0.3731-1.1514-0.9766v-1l1-0.0234h34.543     c4.2382,0,7.6855,3.4477,7.6855,7.6855V42.2353L58.6972,42.2353z" fill="#43525B"/></g><g><path d="M33.2216,26.3632c-0.5527,0-1-0.4477-1-1V3.8125c0-0.5523,0.4473-1,1-1s1,0.4477,1,1v21.5507     C34.2216,25.9155,33.7743,26.3632,33.2216,26.3632L33.2216,26.3632z" fill="#43525B"/></g><g><path d="M46.4687,9.4961H32.2216V0h14.2461l-3.5625,4.749L46.4687,9.4961L46.4687,9.4961z M34.2216,7.4961h8.2451     L40.4052,4.749L42.4677,2h-8.2461V7.4961L34.2216,7.4961z" fill="#43525B"/></g><g><path d="M38.0829,53.4804h-9.497V40.2353h9.497V53.4804L38.0829,53.4804z M30.5859,51.4804h5.497v-9.2451h-5.497     V51.4804L30.5859,51.4804z" fill="#43525B"/></g><g><g><path d="M36.1464,45.0488h-1.875c-0.5527,0-1-0.4478-1-1c0-0.5523,0.4473-1,1-1h1.875c0.5528,0,1,0.4477,1,1      C37.1464,44.601,36.6992,45.0488,36.1464,45.0488L36.1464,45.0488z" fill="#43525B"/></g><g><path d="M36.1464,47.8603h-1.875c-0.5527,0-1-0.4477-1-1c0-0.5522,0.4473-1,1-1h1.875c0.5528,0,1,0.4478,1,1      C37.1464,47.4126,36.6992,47.8603,36.1464,47.8603L36.1464,47.8603z" fill="#43525B"/></g><g><path d="M36.1464,50.6699h-1.875c-0.5527,0-1-0.4478-1-1c0-0.5523,0.4473-1,1-1h1.875c0.5528,0,1,0.4477,1,1      C37.1464,50.2221,36.6992,50.6699,36.1464,50.6699L36.1464,50.6699z" fill="#43525B"/></g></g></g><g><g><path d="M5.4111,36.4096c-0.209,0-0.418-0.0722-0.5869-0.2177l-3.1856-2.7422     c-0.7725-0.6802-1.2959-1.5293-1.5225-2.4624c-0.1709-0.7056-0.1093-1.1514-0.0859-1.271     C0.1865,28.0019,1.58,26.643,3.2587,26.643c0.8028,0,1.5596,0.2969,2.1416,0.8067c0.5684-0.5142,1.3057-0.8067,2.1055-0.8067     c1.6826,0,3.0762,1.3594,3.2422,3.1621c0.0107,0.0308,0.0722,0.4766-0.0987,1.1827c-0.2275,0.937-0.7529,1.7866-1.5185,2.457     l-3.126,2.7417C5.8349,36.3354,5.623,36.4096,5.4111,36.4096L5.4111,36.4096z M3.2587,28.4428     c-0.8574,0-1.3779,0.7691-1.4482,1.5288c-0.0078,0.0572-0.0283,0.2471,0.0556,0.5914c0.1387,0.5727,0.4688,1.1015,0.9541,1.5293     l2.585,2.225l2.5391-2.2265c0.4863-0.4253,0.8164-0.9531,0.955-1.5274c0.084-0.3447,0.0635-0.5346,0.0635-0.5366     c-0.0771-0.8154-0.5976-1.584-1.457-1.584c-0.5586,0-1.0332,0.3247-1.2695,0.8677c-0.1426,0.3281-0.4668,0.5401-0.8243,0.5405     H5.4111c-0.3575,0-0.6807-0.2109-0.8243-0.538C4.3544,28.7846,3.8329,28.4428,3.2587,28.4428L3.2587,28.4428z" fill="#43525B"/></g><g><path d="M11.1982,32.4272c-0.21,0-0.419-0.0727-0.5879-0.2187l-1.0518-0.9082     c-0.3769-0.3247-0.4179-0.8931-0.0937-1.2696c0.3271-0.3769,0.8955-0.417,1.2695-0.0927l0.459,0.3964l2.2002-1.9292     c0.416-0.3632,0.6992-0.8173,0.8223-1.3154c0.0673-0.2803,0.0517-0.4375,0.0517-0.439     c-0.0644-0.6855-0.4922-1.3252-1.2002-1.3252c-0.458,0-0.8486,0.2676-1.0439,0.7164c-0.1436,0.3276-0.4678,0.5395-0.8252,0.5395     h-0.001c-0.3584-0.0005-0.6816-0.2129-0.8242-0.5415c-0.1885-0.4341-0.6172-0.7144-1.0908-0.7144     c-0.7071,0-1.1358,0.6402-1.1934,1.2725c-0.0078,0.0557-0.0234,0.2114,0.0459,0.4937c0.1182,0.4829-0.1777,0.9697-0.6602,1.0879     c-0.4814,0.1157-0.9697-0.1768-1.0878-0.6602c-0.1592-0.6489-0.0997-1.0654-0.0772-1.1772     c0.1387-1.5665,1.4229-2.8165,2.9727-2.8165c0.7119,0,1.3818,0.2515,1.9072,0.6866c0.5156-0.4385,1.1699-0.6866,1.8779-0.6866     c1.5518,0,2.835,1.25,2.9863,2.9082c0.0088,0.0225,0.0665,0.4361-0.0888,1.0826c-0.2129,0.8623-0.6914,1.6367-1.3848,2.2431     l-2.7881,2.4444C11.622,32.353,11.4101,32.4272,11.1982,32.4272L11.1982,32.4272z" fill="#43525B"/></g></g></g></svg>