<?xml version="1.0" ?><!DOCTYPE svg  PUBLIC '-//W3C//DTD SVG 1.1//EN'  'http://www.w3.org/Graphics/SVG/1.1/DTD/svg11.dtd'><svg enable-background="new 0 0 60 47.121" id="heart-bulb-stars" version="1.1" viewBox="0 0 60 47.121" xml:space="preserve" xmlns="http://www.w3.org/2000/svg" xmlns:xlink="http://www.w3.org/1999/xlink"><g><g><rect fill="#969696" height="3.2226" width="6.4463" x="26.7842" y="42.8984"/><path d="M34.2305,47.121h-8.4463v-5.2226h8.4463V47.121L34.2305,47.121z M27.7842,45.121h4.4463v-1.2226h-4.4463    V45.121L27.7842,45.121z" fill="#434A54"/></g><g><rect fill="#C8C8C8" height="6.4473" width="12.8916" x="23.5615" y="36.4511"/><path d="M37.4531,43.8984H22.5615v-8.4473h14.8916V43.8984L37.4531,43.8984z M24.5615,41.8984h10.8916v-4.4473    H24.5615V41.8984L24.5615,41.8984z" fill="#43525B"/></g><g><path d="M14.8779,36.6816L14.8779,36.6816c-3.5561,0-6.4384-2.8828-6.4384-6.4375H8.439l0,0    C8.4385,33.7988,5.5562,36.6816,2,36.6816l0,0c3.5562,0,6.4385,2.8828,6.4385,6.4394H8.439    C8.439,39.5644,11.3218,36.6816,14.8779,36.6816z" fill="#C0DFCF"/><g><path d="M8.439,44.121L8.439,44.121L8.439,44.121c-0.5494,0-0.9947-0.4423-1-0.9897v-0.0005     c0-0.0005,0-0.001,0-0.0015l0,0v-0.0014c0,0,0,0,0-0.0005c0,0,0-0.0005,0-0.001v-0.0005c0-0.0005,0-0.0005,0-0.0005v-0.0009     c0-0.001,0-0.001,0-0.002V43.122c0-0.0005,0-0.0005,0-0.0005C7.4385,40.122,4.9985,37.6816,2,37.6816c-0.5522,0-1-0.4478-1-1     c0-0.5523,0.4478-1,1-1c2.9985,0,5.4385-2.4395,5.439-5.4375c0-0.5523,0.4477-1,1-1c0.5522,0,1,0.4477,1,1v0.0005h0.0005     c0,0.0176,0,0.0361,0,0.0542c0.0297,2.9731,2.458,5.3828,5.4384,5.3828c0.5523,0,1,0.4477,1,1c0,0.5522-0.4477,1-1,1     c-2.999,0-5.4389,2.4399-5.4389,5.4394C9.439,43.6733,8.9912,44.121,8.439,44.121L8.439,44.121z M5.7222,36.6816     c1.125,0.6528,2.0639,1.5923,2.7168,2.7173c0.6523-1.125,1.5918-2.0645,2.7168-2.7173c-1.125-0.6528-2.064-1.5918-2.7168-2.7163     C7.7861,35.0898,6.8472,36.0288,5.7222,36.6816L5.7222,36.6816z" fill="#43525B"/></g><path d="M10.6548,5.8339L10.6548,5.8339c-2.666,0-4.8272-2.1621-4.8272-4.8271l0,0l0,0    C5.8271,3.6728,3.6665,5.8339,1,5.8339l0,0c2.6665,0,4.8271,2.1612,4.8271,4.8272h0.0005    C5.8276,7.9951,7.9888,5.8339,10.6548,5.8339z" fill="#C0DFCF"/><g><path d="M5.8276,11.6611L5.8276,11.6611L5.8276,11.6611c-0.5468,0-0.9912-0.439-1-0.9839l0,0     c0-0.0005,0-0.001,0-0.0015l0,0c0,0,0-0.0009,0-0.0014l0,0v-0.0015c0,0,0,0,0-0.0005c0,0,0-0.0005,0-0.001v-0.0004     c0-0.001,0-0.0015,0-0.0015v-0.001c0,0,0-0.0005,0-0.001v-0.0005c0-0.0004,0-0.0004,0-0.0004v-0.001c0-0.001,0-0.002,0-0.002     V10.663c0-0.0004,0-0.0009,0-0.0009c0-0.0005,0-0.0005,0-0.0005C4.8271,8.5507,3.1104,6.8339,1,6.8339c-0.5522,0-1-0.4477-1-1     c0-0.5522,0.4478-1,1-1c2.1104,0,3.8271-1.7168,3.8276-3.8271c0-0.5523,0.4478-1,1-1l0,0c0.5523,0,1,0.4477,1,1     c0,2.1103,1.7168,3.8271,3.8272,3.8271c0.5522,0,1,0.4478,1,1c0,0.5523-0.4478,1-1,1c-2.1104,0-3.8272,1.7168-3.8272,3.8272     C6.8276,11.2133,6.3799,11.6611,5.8276,11.6611L5.8276,11.6611z M4.2607,5.8339c0.6167,0.418,1.149,0.9502,1.5669,1.5669     C6.2451,6.7841,6.7773,6.2519,7.394,5.8339C6.7778,5.4165,6.2451,4.8837,5.8276,4.2675C5.4097,4.8837,4.8774,5.416,4.2607,5.8339     L4.2607,5.8339z" fill="#43525B"/></g><path d="M59,28.9394L59,28.9394c-2.666,0-4.8271-2.1621-4.8271-4.8271l0,0l0,0    c0,2.665-2.1612,4.8271-4.8272,4.8271l0,0c2.666,0,4.8272,2.1602,4.8272,4.8262l0,0C54.1729,31.0996,56.334,28.9394,59,28.9394z" fill="#C0DFCF"/><g><path d="M54.1729,34.7656c-0.5523,0-1-0.4478-1-1c0-2.1099-1.7168-3.8262-3.8272-3.8262c-0.5522,0-1-0.4477-1-1     c0-0.5522,0.4478-1,1-1c2.1104,0,3.8272-1.7168,3.8272-3.8271c0-0.5523,0.4477-1,1-1c0.5522,0,1,0.4477,1,1     c0,2.1103,1.7167,3.8271,3.8271,3.8271c0.5522,0,1,0.4478,1,1c0,0.5523-0.4478,1-1,1c-2.1104,0-3.8271,1.7163-3.8271,3.8262     C55.1729,34.3178,54.7251,34.7656,54.1729,34.7656L54.1729,34.7656z M52.6064,28.9394c0.6163,0.4175,1.149,0.9497,1.5665,1.5659     c0.4174-0.6162,0.9501-1.1484,1.5664-1.5659c-0.6163-0.4175-1.149-0.9502-1.5664-1.5664     C53.7554,27.9892,53.2227,28.5219,52.6064,28.9394L52.6064,28.9394z" fill="#43525B"/></g></g><g><path d="M44.5107,15.5029C44.5107,7.4931,38.0176,1,30.0073,1c-8.0097,0-14.5034,6.4931-14.5034,14.5029    c0,3.624,1.332,6.9346,3.5293,9.4756c0,0,4.5283,5.0273,4.5283,11.4726h6.4458l0,0h6.4458c0-6.4453,4.5283-11.4726,4.5283-11.4726    C43.1797,22.4375,44.5107,19.1269,44.5107,15.5029z" fill="#FBD0C4"/><g><path d="M37.4531,37.4511H22.5615v-1c0-5.9677-4.2295-10.7568-4.2719-10.8042     c-2.4458-2.8281-3.7857-6.4253-3.7857-10.144C14.5039,6.9545,21.4585,0,30.0073,0c8.5489,0,15.5034,6.9545,15.5034,15.5029     c0,3.7197-1.3398,7.3174-3.7729,10.1299c-0.0552,0.0615-4.2847,4.8506-4.2847,10.8183V37.4511L37.4531,37.4511z M24.5283,35.4511     h10.958c0.4146-6.2563,4.5664-10.936,4.752-11.1421c2.1055-2.434,3.2724-5.5669,3.2724-8.8061     C43.5107,8.0576,37.4531,2,30.0073,2S16.5039,8.0576,16.5039,15.5029c0,3.2383,1.167,6.3711,3.2857,8.8213     C19.9624,24.5161,24.1138,29.1948,24.5283,35.4511L24.5283,35.4511z" fill="#43525B"/></g></g><g><path d="M28.0547,26.2275l-6.4649-6.459c0.004-0.0019,0.0069-0.0019,0.0098-0.0068    C20.6191,18.8486,20,17.5605,20,16.1123c0-2.7608,2.2363-4.9981,5-4.9981c2.7598,0,5,2.2373,5,4.9981    c0-2.7608,2.2363-4.9981,5-4.9981c2.7598,0,5,2.2373,5,4.9981c0,1.4482-0.627,2.7392-1.6074,3.6543l0.0137,0.0019l-6.461,6.459" fill="#F48886"/><g><path d="M28.0547,27.2275c-0.2559,0-0.5117-0.0977-0.707-0.2925l-6.4644-6.459     c-0.0317-0.0312-0.0605-0.0644-0.0869-0.0991C19.6367,19.2377,19,17.7299,19,16.1123c0-3.3072,2.6914-5.9981,6-5.9981     c2.0845,0,3.9243,1.0684,5,2.6856c1.0757-1.6172,2.9155-2.6856,5-2.6856c3.3086,0,6,2.6909,6,5.9981     c0,1.6142-0.6392,3.1235-1.8037,4.269c-0.0254,0.0332-0.0532,0.0645-0.083,0.0942l-6.461,6.459     c-0.3906,0.3906-1.0234,0.3906-1.414,0c-0.3906-0.3906-0.3906-1.0239,0-1.414l6.352-6.3501     c0.0352-0.0484,0.0752-0.0933,0.1201-0.1348C38.542,18.2592,39,17.2211,39,16.1123c0-2.2046-1.7944-3.9981-4-3.9981     c-2.2056,0-4,1.7935-4,3.9981c0,0.5522-0.4478,1-1,1c-0.5522,0-1-0.4478-1-1c0-2.2046-1.7944-3.9981-4-3.9981     c-2.2056,0-4,1.7935-4,3.9981c0,1.1123,0.4551,2.1484,1.2813,2.9174c0.0468,0.044,0.0883,0.0913,0.1254,0.1412l6.3545,6.3491     c0.3911,0.3906,0.3911,1.0234,0.001,1.4145C28.5669,27.1298,28.3105,27.2275,28.0547,27.2275L28.0547,27.2275z" fill="#43525B"/></g></g><g><rect fill="#FFFFFF" height="9.6679" width="3" x="28.5078" y="26.7832"/><g><path d="M32.5078,37.4511h-5V25.7832h5V37.4511L32.5078,37.4511z M29.5078,35.4511h1v-7.6679h-1V35.4511     L29.5078,35.4511z" fill="#43525B"/></g></g></g></svg>