<?xml version="1.0" ?><svg id="Layer_1" style="enable-background:new 0 0 242.9 242.9;" version="1.1" viewBox="0 0 242.9 242.9" xml:space="preserve" xmlns="http://www.w3.org/2000/svg" xmlns:xlink="http://www.w3.org/1999/xlink"><style type="text/css">
	.st0{fill:#C872AD;}
</style><path class="st0" d="M200.9,0H42C18.8,0,0,18.8,0,42v159c0,23.2,18.8,42,42,42h159c23.2,0,42-18.8,42-42V42  C242.9,18.8,224.1,0,200.9,0z M105.1,165.6H87.7V76.5h17.3V165.6z M146.2,152.3c2.5,0,4.6-0.4,6.5-1.3l1.5,13.6  c-1.7,0.8-6.1,1.9-11,1.9c-16.4,0-27.1-11.4-27.1-32.5c0-20,11.8-33.8,29.6-33.8c4.1,0,7.8,0.9,9.5,1.7l-2.2,13.6  c-1.5-0.5-3.6-1.2-6.5-1.2c-8.3,0-13.2,7.9-13.2,19.2C133.2,145.1,138.1,152.3,146.2,152.3z"/></svg>