<?xml version="1.0" ?><svg id="Layer_1" style="enable-background:new 0 0 242.9 242.9;" version="1.1" viewBox="0 0 242.9 242.9" xml:space="preserve" xmlns="http://www.w3.org/2000/svg" xmlns:xlink="http://www.w3.org/1999/xlink"><style type="text/css">
	.st0{fill:#F7941D;}
</style><path class="st0" d="M200.9,0H42C18.8,0,0,18.8,0,42v159c0,23.2,18.8,42,42,42h159c23.2,0,42-18.8,42-42V42  C242.9,18.8,224.1,0,200.9,0z M118,90.8H96v23.5h20.6v14.8H96v37.8H78.2V75.3H118V90.8z M141.2,167.6c-5.6,0-12.1-1.5-15.2-3.8  l3.3-13c2.6,1.6,7.5,3.5,12,3.5c4.6,0,7.2-2,7.2-6c0-3.4-1.9-5.6-7.7-9c-10.9-6.1-13.4-13-13.4-19.1c0-12,8.6-20.9,21.9-20.9  c5.6,0,9.9,1.4,13.4,3l-3.1,13c-2.6-1.5-5.7-2.7-9.2-2.7c-4.5,0-6.7,2.7-6.7,5.7s1.5,4.6,7.7,8.3c9.8,5.6,13.4,12.5,13.4,20.1  C164.7,160.3,154.9,167.6,141.2,167.6z"/></svg>