<?xml version="1.0" ?><svg id="Layer_1" style="enable-background:new 0 0 242.9 242.9;" version="1.1" viewBox="0 0 242.9 242.9" xml:space="preserve" xmlns="http://www.w3.org/2000/svg" xmlns:xlink="http://www.w3.org/1999/xlink"><style type="text/css">
	.st0{fill:#F37C2A;}
</style><path class="st0" d="M153.8,133.9c0,12.4-2.4,19.7-8.2,19.7c-2.1,0-4.5-1.3-5.9-5.9c-0.4-0.9-0.7-2.5-0.7-4.1v-18.1  c0-1.2,0.3-2.9,0.7-4c0.9-3.2,3.2-5.9,5.8-5.9C151.3,115.5,153.8,122.8,153.8,133.9z M242.9,42v159c0,23.2-18.8,42-42,42H42  c-23.2,0-42-18.8-42-42V42C0,18.8,18.8,0,42,0h159C224.1,0,242.9,18.8,242.9,42z M110.7,77.6H71.9v89.1h17.3v-36.8h20.1v-14.4H89.3  V92.6h21.4V77.6z M171,132.6c0-17.5-5.7-31.6-18.2-31.6c-6.2,0-10.3,2.9-13.5,7.5H139V75.2h-17.3v72.3c0,6.2-0.3,13.5-0.5,19.2h14.8  l0.9-7.7h0.4c3.4,6.5,7.3,8.7,12.7,8.7C162,167.7,171,155.2,171,132.6z"/></svg>