<?xml version="1.0" ?><svg id="Layer_1" style="enable-background:new 0 0 242.9 242.9;" version="1.1" viewBox="0 0 242.9 242.9" xml:space="preserve" xmlns="http://www.w3.org/2000/svg" xmlns:xlink="http://www.w3.org/1999/xlink"><style type="text/css">
	.st0{fill:#65C4B3;}
</style><path class="st0" d="M154.9,133.4c0,9.5-1.5,20.4-7,20.4c-6.2,0-7.9-9.3-7.9-20.4c0-8.9,1.3-20.1,7.7-20.1  C153.5,113.3,154.9,124.5,154.9,133.4z M242.9,42v159c0,23.2-18.8,42-42,42H42c-23.2,0-42-18.8-42-42V42C0,18.8,18.8,0,42,0h159  C224.1,0,242.9,18.8,242.9,42z M89.1,121.7c0-22.1,8.9-30.5,18.6-30.5c3.8,0,6.1,0.8,8.1,1.7l2.9-14.5c-1.7-1.2-6-2.4-12-2.4  c-17.3,0-36,13.1-36,46.7c0,25.3,10.8,44,33.6,44c6.1,0,11-0.9,13.5-2.1L116,150c-2.1,0.7-5.4,1.3-8.3,1.3  C97.1,151.3,89.1,143,89.1,121.7z M172.2,133.4c0-20.4-9.3-33.2-24.5-33.2c-12.8,0-25,10.3-25,33.6c0,21,9.3,33.2,24.7,33.2  C157.3,166.9,172.2,160.3,172.2,133.4z"/></svg>