<?xml version="1.0" ?><svg id="Layer_1" style="enable-background:new 0 0 242.9 242.9;" version="1.1" viewBox="0 0 242.9 242.9" xml:space="preserve" xmlns="http://www.w3.org/2000/svg" xmlns:xlink="http://www.w3.org/1999/xlink"><style type="text/css">
	.st0{fill:#50C7EB;}
</style><path class="st0" d="M200.9,0H42C18.8,0,0,18.8,0,42v159c0,23.2,18.8,42,42,42h159c23.2,0,42-18.8,42-42V42  C242.9,18.8,224.1,0,200.9,0z M125.8,125.6c-5.6,5.8-14.5,8.5-21.7,8.5c-1.2,0-2.4,0-3.4,0v33.2H83.4V79.4  c4.9-1.1,11.5-1.7,18.1-1.7c10.3,0,18.4,1.5,24.2,6.9c5.3,4.6,7.7,12,7.7,19.6C133.4,113.8,130.4,120.5,125.8,125.6z M159.5,167.2  h-17.3V75.7h17.3V167.2z M116.2,105.6c0,8.3-4,14.5-12.7,14.5c-1.1,0-2,0-2.8-0.3V92.4c1.1-0.4,2.6-0.7,4.2-0.7  C113,91.7,116.2,97.8,116.2,105.6z"/></svg>