<?xml version="1.0" ?><svg id="Layer_1" style="enable-background:new 0 0 242.9 242.9;" version="1.1" viewBox="0 0 242.9 242.9" xml:space="preserve" xmlns="http://www.w3.org/2000/svg" xmlns:xlink="http://www.w3.org/1999/xlink"><style type="text/css">
	.st0{fill:#59C1AA;}
</style><path class="st0" d="M97,113l2.9,18.6H87.2l3.3-18.5c0.9-5.2,2.2-14.4,3.2-20.4h0.4C94.9,98.7,96.1,107.6,97,113z M242.9,42v159  c0,23.2-18.8,42-42,42H42c-23.2,0-42-18.8-42-42V42C0,18.8,18.8,0,42,0h159C224.1,0,242.9,18.8,242.9,42z M122.1,165.5l-17.3-89.1  H84l-19.3,89.1h16.8l4-20.4h16l3.8,20.4H122.1z M178.2,165.5c-0.3-6.1-0.5-12.8-0.5-19.7v-45h-17.3v41.3c0,2.2-0.4,4.2-1.1,5.6  c-0.8,2.1-2.6,4.4-5.6,4.4c-4.9,0-6.5-5.4-6.5-13.9v-37.3h-17.5V140c0,17.5,5,26.6,17.3,26.6c6.6,0,11.9-3.6,14.9-7.9h0.3l0.9,6.9  H178.2z"/></svg>