<?xml version="1.0" ?><!DOCTYPE svg  PUBLIC '-//W3C//DTD SVG 1.1//EN'  'http://www.w3.org/Graphics/SVG/1.1/DTD/svg11.dtd'><svg enable-background="new 0 0 1010 1010" id="postcard" version="1.1" viewBox="0 0 1010 1010" xml:space="preserve" xmlns="http://www.w3.org/2000/svg" xmlns:xlink="http://www.w3.org/1999/xlink"><g id="postcard-label"><path d="M505,0C226.106,0,0,226.1157,0,504.9805C0,783.8945,226.106,1010,505,1010   c278.875,0,505-226.1055,505-505.0195C1010,226.1157,783.875,0,505,0z" fill="#F6BBBB"/></g><g id="postcard-postcard"><g><polyline fill="#F05354" points="768.1133,363.5996 735.6426,242.3999 283.313,363.5996   "/><polygon fill="#313233" points="285.9268,373.3545 280.6992,353.8452 742.7842,230.0312 777.8672,360.9863 758.3584,366.2139     728.502,254.7686 285.9268,373.3545   "/></g><g><rect fill="#FFFFFF" height="404" width="585.8003" x="212.1001" y="363.5996"/><path d="M808,777.7002H202V353.5h606V777.7002L808,777.7002z M222.2002,757.5h565.5996V373.7002H222.2002V757.5    L222.2002,757.5z" fill="#313233"/></g><g><path d="M242.4004,707h-30.3003C206.5176,707,202,711.5176,202,717.0996c0,5.583,4.5176,10.1006,10.1001,10.1006    h30.3003c5.582,0,10.0996-4.5176,10.0996-10.1006C252.5,711.5176,247.9824,707,242.4004,707z" fill="#313233"/><path d="M242.4004,656.5h-30.3003c-5.5825,0-10.1001,4.5176-10.1001,10.0996    c0,5.583,4.5176,10.1006,10.1001,10.1006h30.3003c5.582,0,10.0996-4.5176,10.0996-10.1006    C252.5,661.0176,247.9824,656.5,242.4004,656.5z" fill="#313233"/><path d="M242.4004,606h-30.3003C206.5176,606,202,610.5176,202,616.0996c0,5.583,4.5176,10.1006,10.1001,10.1006    h30.3003c5.582,0,10.0996-4.5176,10.0996-10.1006C252.5,610.5176,247.9824,606,242.4004,606z" fill="#313233"/><path d="M242.4004,555.5h-30.3003c-5.5825,0-10.1001,4.5176-10.1001,10.0996    c0,5.583,4.5176,10.1006,10.1001,10.1006h30.3003c5.582,0,10.0996-4.5176,10.0996-10.1006    C252.5,560.0176,247.9824,555.5,242.4004,555.5z" fill="#313233"/><path d="M242.4004,505h-30.3003C206.5176,505,202,509.5176,202,515.0996c0,5.583,4.5176,10.1006,10.1001,10.1006    h30.3003c5.582,0,10.0996-4.5176,10.0996-10.1006C252.5,509.5176,247.9824,505,242.4004,505z" fill="#313233"/><path d="M242.4004,454.5h-30.3003c-5.5825,0-10.1001,4.5176-10.1001,10.0996    c0,5.583,4.5176,10.1006,10.1001,10.1006h30.3003c5.582,0,10.0996-4.5176,10.0996-10.1006    C252.5,459.0176,247.9824,454.5,242.4004,454.5z" fill="#313233"/><path d="M212.1001,424.2002h30.3003c5.582,0,10.0996-4.5176,10.0996-10.1006    c0-5.582-4.5176-10.0996-10.0996-10.0996h-30.3003C206.5176,404,202,408.5176,202,414.0996    C202,419.6826,206.5176,424.2002,212.1001,424.2002z" fill="#313233"/></g><polygon fill="#313233" points="515.0996,707 494.9004,707 494.9004,424.2002 515.0996,424.2002 515.0996,707  "/><rect fill="#313233" height="20.1992" width="141.4004" x="606" y="646.4004"/><rect fill="#313233" height="20.2002" width="121.2002" x="626.2002" y="606"/><g><rect fill="#FED78F" height="80.7998" width="80.8008" x="666.5996" y="434.2998"/><path d="M757.5,525.2002h-101v-101h101V525.2002L757.5,525.2002z M676.7002,505h60.5996v-60.6001h-60.5996V505    L676.7002,505z" fill="#313233"/></g><g><path d="M401.4258,515.0605l11.54,9.962l30.6353-26.8677c5.8984-5.1289,10.2383-11.8755,12.102-19.4898    c1.3516-5.5629,0.7598-8.6601,0.7598-8.6601c-1.1441-12.4868-10.2774-22.9619-22.9619-22.9619    c-9.4092,0-16.9844,5.6421-20.5352,13.7695c-3.5312-8.1274-11.6289-13.7695-21.0283-13.7695    c-12.6846,0-21.8179,10.4751-22.9619,22.9619c0,0-0.6113,3.0972,0.7495,8.6601" fill="#FED78F"/><path d="M412.9658,535.1221c-2.3476,0-4.7051-0.8184-6.5986-2.4561l-11.5401-9.9609    c-4.2216-3.6406-4.6948-10.0215-1.0454-14.2432c3.6294-4.2314,10.021-4.6948,14.2427-1.0459l4.8921,4.2217l24.0269-21.0776    c4.5371-3.9454,7.6245-8.8868,8.9462-14.3018c0.7496-3.0576,0.5918-4.7544,0.5821-4.7739    c-0.6904-7.4073-5.3262-14.3408-12.9707-14.3408c-4.9512,0-9.1729,2.8798-11.2832,7.7128    c-1.6079,3.6788-5.2373,6.0557-9.252,6.0557h-0.0097c-4.0147,0-7.6543-2.3867-9.252-6.0752    c-2.0317-4.6758-6.6475-7.6933-11.7666-7.6933c-7.6445,0-12.2803,6.9335-12.9014,13.7788    c-0.0293,0.3354-0.0791,0.6606-0.1382,0.9863v-0.0103c0.0298,0-0.0297,1.628,0.6412,4.3697    c1.3217,5.415-1.9922,10.8794-7.417,12.2109c-5.3457,1.312-10.8794-1.9927-12.211-7.4175    c-1.5088-6.1938-1.2226-10.4648-0.9565-12.3193c1.8149-18.1485,15.9487-31.7988,32.9829-31.7988    c7.8018,0,15.1499,2.7319,20.9297,7.4663c5.6811-4.774,12.8716-7.4663,20.6338-7.4663c17.1426,0,31.3457,13.8183,33.0224,32.1445    c0.0987,0.2563,0.73,4.8232-1.0058,11.9639c-2.3281,9.5083-7.6148,18.0498-15.2881,24.7275l-30.606,26.8379    C417.7197,534.2842,415.3428,535.1221,412.9658,535.1221L412.9658,535.1221z" fill="#313233"/></g><g><path d="M349.4067,496.7344c-4.0044-9.0938-13.059-15.4658-23.6323-15.4658    c-14.2031,0-24.4512,11.7773-25.7627,25.7626c0,0-0.6709,3.4727,0.8482,9.7452c2.0908,8.5224,6.9926,16.0771,13.5717,21.8769    l34.9751,30.1221l34.3638-30.1221c6.5986-5.7998,11.481-13.3545,13.5718-21.8769c1.5288-6.2725,0.8481-9.7452,0.8481-9.7452    c-1.3017-13.9853-11.54-25.7626-25.7627-25.7626C361.8545,481.2686,353.3818,487.6406,349.4067,496.7344z" fill="#F05354"/><path d="M349.4067,578.876c-2.3471,0-4.6948-0.8194-6.5883-2.4463l-34.9756-30.1221    c-8.4922-7.4863-14.272-16.8369-16.7969-27.124c-1.8936-7.832-1.2031-12.7441-0.9473-14.0654    c1.7266-18.9375,17.1231-33.9493,35.6758-33.9493c8.8076,0,17.103,3.2354,23.5142,8.7979    c6.2632-5.6123,14.3706-8.7979,23.1391-8.7979c18.4639,0,33.7915,14.8443,35.7842,34.5806    c0.2861,1.9331,0.6113,6.5689-1.0556,13.4146c-2.5347,10.3359-8.3145,19.6865-16.7183,27.0742l-34.3735,30.1328    C354.1611,578.0371,351.7842,578.876,349.4067,578.876L349.4067,578.876z M325.7744,491.3691    c-9.291,0-14.9331,8.354-15.7021,16.6094c-0.0889,0.6211-0.3057,2.6729,0.6015,6.4209    c1.5288,6.2334,5.1387,12.0137,10.4356,16.6787l28.2383,24.3135l27.7651-24.333c5.2768-4.6357,8.8769-10.4063,10.4253-16.6885    c0.8974-3.709,0.6807-5.751,0.6807-5.7705c-0.8482-8.8765-6.4903-17.2305-15.7911-17.2305c-6.0459,0-11.1948,3.521-13.769,9.4092    c-1.6079,3.6792-5.2275,6.0459-9.2417,6.0557h-0.0103c-4.0044,0-7.6342-2.3667-9.2417-6.0259    C337.6396,495.0771,331.9883,491.3691,325.7744,491.3691L325.7744,491.3691z" fill="#313233"/></g><g><path d="M369.6953,644.4277c-3.9453-3.9453-10.3364-3.9453-14.2817,0l-16.3731,16.3633l-16.3633-16.3633    c-3.9453-3.9453-10.3364-3.9453-14.2817,0c-3.9453,3.9453-3.9453,10.3361,0,14.2813l16.3633,16.3633l-16.3633,16.3632    c-3.9453,3.9454-3.9453,10.337,0,14.2823c1.9727,1.9727,4.5566,2.959,7.1406,2.959c2.5845,0,5.1685-0.9864,7.1411-2.959    l16.3633-16.3633l16.3731,16.3633c1.9726,1.9727,4.5571,2.959,7.1411,2.959c2.584,0,5.168-0.9864,7.1406-2.959    c3.9453-3.9453,3.9453-10.3369,0-14.2823l-16.3628-16.3632l16.3628-16.3633C373.6406,654.7637,373.6406,648.373,369.6953,644.4277    z" fill="#313233"/><path d="M431.6963,675.0723l16.3633-16.3633c3.9453-3.9453,3.9453-10.336,0-14.2813    c-3.9453-3.9453-10.3369-3.9453-14.2823,0l-16.3632,16.3633l-16.3731-16.3633c-3.9453-3.9453-10.3369-3.9453-14.2822,0    c-3.9453,3.9453-3.9453,10.3361,0,14.2813l16.3633,16.3633l-16.3633,16.3632c-3.9453,3.9454-3.9453,10.337,0,14.2823    c1.9726,1.9727,4.5571,2.959,7.1416,2.959c2.584,0,5.168-0.9864,7.1406-2.959l16.3731-16.3633l16.3632,16.3633    c1.9727,1.9727,4.5567,2.959,7.1412,2.959c2.5839,0,5.1684-0.9864,7.1411-2.959c3.9453-3.9453,3.9453-10.3369,0-14.2823    L431.6963,675.0723z" fill="#313233"/></g></g></svg>