<?xml version="1.0" ?><!DOCTYPE svg  PUBLIC '-//W3C//DTD SVG 1.1//EN'  'http://www.w3.org/Graphics/SVG/1.1/DTD/svg11.dtd'><svg enable-background="new 0 0 1010 1010" id="cloud-hearts" version="1.1" viewBox="0 0 1010 1010" xml:space="preserve" xmlns="http://www.w3.org/2000/svg" xmlns:xlink="http://www.w3.org/1999/xlink"><g id="cloud-hearts-label"><path d="M505,0C226.106,0,0,226.1157,0,504.9805C0,783.8945,226.106,1010,505,1010   c278.875,0,505-226.1055,505-505.0195C1010,226.1157,783.875,0,505,0z" fill="#F6BBBB"/></g><g id="cloud-hearts-cloud-hearts"><g><path d="M378.7896,695.4297c-10.9385-9.6455-19.2432-21.6397-24.1255-34.7578l-0.2168-0.5821l-0.1387-0.6015    l-0.3745-0.7295l-0.148-0.7598l-0.5029-1.4005c-0.5527-1.5283-1.085-3.0478-1.46-4.6259    c-1.3413-5.504-1.8144-9.9424-1.9331-13.168l-0.769-0.877l1.0747-5.2773c2.3374-25.2598,20.6245-50.9336,50.9834-50.9336    c20.2197,0,38.5752,12.0234,46.7817,30.625c8.334-19.1641,25.3682-30.625,45.5386-30.625    c30.3989,0,48.7251,26.1172,51.1216,51.9199h-0.0098c0.2657,2.4268,0.5822,8.7686-1.7656,18.375    c-4.0342,16.4522-13.3252,31.4346-26.8975,43.3301l-67.997,59.6328L378.7896,695.4297z" fill="#F05354"/><path d="M551.417,649.083l-5.6621-2.8799l-0.9658-7.3584c0.0977-2.9785-0.1191-4.9717-0.2665-5.8886    c-2.7022-27.8936-22.587-49.129-47.3638-51.0323l-8.0977-0.6211l-1.5385-7.9804c-1.4107-7.3184-1.085-11.9639-0.9961-12.8321    l10.7412-0.0977l-10.6035-0.9766c2.0913-22.5879,18.3755-45.4502,45.4795-45.4502c18.0594,0,34.4033,10.7119,41.6337,27.2822    c7.4961-17.0937,22.6954-27.2822,40.6563-27.2822c27.0547,0,43.3789,23.2569,45.5381,46.249h-0.0098    c0.3252,2.9883,0.2764,8.709-1.5381,16.3233c-3.6601,14.7461-11.9453,28.081-23.998,38.6543l-60.6592,53.1728L551.417,649.083z" fill="#FED78F"/><path d="M339.0898,658.5615c-72.3867-7.8418-126.9897-68.7275-126.9897-141.6172    c0-72.5444,54.3369-133.3613,126.3882-141.4887c23.2178-72.0318,89.6865-120.4307,165.3974-120.4307    c95.8614,0,173.8506,77.9985,173.8506,173.8696c0,7.25-0.5527,14.8838-1.6777,23.3565c6.6387-1.085,12.2012-1.5879,17.5176-1.5879    c57.5322,0,104.3242,46.8013,104.3242,104.3437c0,57.5822-46.792,104.4327-104.3242,104.4327H583.9658l50.46-44.2471    c12.043-10.544,20.3379-23.9286,23.998-38.6543c2.041-8.5615,1.7755-14.1045,1.6367-15.6729l-0.0781-0.2559l-0.1191-1.1934    c-2.4258-26.3359-21.5313-45.4502-45.4297-45.4502c-12.7041,0-24.3428,5.2666-32.7559,14.8145l-7.8711,8.9463l-8.0097-8.8379    c-8.5899-9.4785-20.8604-14.9229-33.6533-14.9229c-23.7706,0-42.8853,18.9668-45.44,45.124    c-0.1084,0.7696-0.7397,5.0899,0.5425,12.6846l1.5684,9.3408l-9.1036,2.6426c-9.2714,2.7031-17.478,8.0684-23.7216,15.5156    l-8.0284,9.5967l-8.1865-9.459c-9.7353-11.2441-23.8003-17.6943-38.5952-17.6943c-26.6509,0-48.0933,21.3242-50.9731,50.6777    c-0.1187,0.8282-0.8189,5.503,0.5419,13.877l2.2393,13.789L339.0898,658.5615z" fill="#FFFFFF"/></g><path d="M693.5762,440.563c-2.0215,0-4.0635,0.0688-6.1846,0.1973c0.2959-4.0933,0.4443-8.0289,0.4443-11.8658   c0-101.4433-82.5263-183.9697-183.9502-183.9697c-77.9594,0-146.6572,48.4981-172.9331,121.3481   C256.998,377.7637,202,441.4312,202,516.9443c0,81.6581,64.4766,148.3438,145.1436,152.2198   c5.5478,12.5957,13.9365,24.1161,24.9589,33.831l69.2598,59.624c1.8936,1.627,4.2412,2.4454,6.5889,2.4454   c2.3769,0,4.7539-0.838,6.6572-2.5049l67.9873-59.623c13.1777-11.5205,22.4785-25.8125,27.7266-41.4658l16.8554,14.5391   c1.8946,1.6367,4.2422,2.455,6.5996,2.455c2.377,0,4.754-0.8378,6.6573-2.5048l7.9697-6.9834   c0.8877,0.2666,1.7852,0.5625,2.7715,0.5625h102.4004c63.0957,0,114.4238-51.378,114.4238-114.5323   C808,491.9014,756.6719,440.563,693.5762,440.563z M533.0313,649.6152c-3.5215,14.4297-11.7374,27.6172-23.7403,38.1319   l-61.3994,53.8427l-62.5234-53.8232c-9.8536-8.6797-16.9746-19.1748-21.2159-30.5762c-0.1923-0.8193-0.3994-1.5977-0.7793-2.3281   c-0.5771-1.7451-1.3017-3.4424-1.7358-5.2275c-2.3081-9.5469-1.5434-14.9424-1.5434-14.9424   c0.059-0.335,0.1083-0.6709,0.1376-1.0069c1.9336-20.8105,16.6202-41.8691,40.9478-41.8691   c16.2104,0,30.9409,9.6563,37.5298,24.5996c1.6123,3.6582,5.2373,6.0254,9.2422,6.0254c0,0,0.0146,0,0.0195,0   c4.0093-0.0098,7.6387-2.3867,9.2368-6.0654c6.7071-15.377,20.2691-24.5596,36.292-24.5596   c24.3823,0,39.0493,21.0488,41.0513,42.708C534.5605,634.584,535.3789,639.9785,533.0313,649.6152z M573.7275,654.9805   l-16.2158-13.9854c-0.8087-0.6904-1.7354-1.1045-2.6621-1.499c0.1572-4.0147-0.1387-6.7666-0.3359-8.0684   c-3.1465-32.6581-27.2617-57.5234-56.9951-59.6035c-1.3213-6.5898-0.9268-10.4551-0.9366-10.4551v0.0098   c0.0689-0.3457,0.1182-0.6914,0.1475-1.0361c1.6621-18.0303,14.3613-36.2774,35.4141-36.2774   c14.0459,0,26.749,8.335,32.3719,21.2256c1.6074,3.6797,5.2365,6.0664,9.251,6.0664c0,0,0,0,0.0107,0   c4.0137,0,7.6436-2.3672,9.2413-6.0469c5.8388-13.3046,17.5869-21.2451,31.415-21.2451c21.0283,0,33.7129,18.2471,35.4775,37.0469   c0,0.0391,0.6709,4.7734-1.3213,13.0889c-3.1367,12.6543-10.3369,24.2041-20.8212,33.3965L573.7275,654.9805z M693.5762,649.3389   h-82.7823l30.2901-26.5518c13.6015-11.9248,22.9814-27.0449,27.1338-43.8027c2.998-12.5069,1.8349-20.0625,1.6963-20.4961   c-2.9102-31.6514-26.246-54.6226-55.4805-54.6226c-15.9883,0-30.5664,6.8941-40.7461,18.7105   c-10.3555-11.6973-25.3877-18.7105-41.5439-18.7105c-29.1358,0-52.418,22.7847-55.4903,54.2378   c-0.311,2.002-0.7153,7.5654,0.7246,15.8213c-11.5449,3.2647-21.8076,9.9219-29.5503,19.3711   c-11.4614-13.5322-28.4262-21.6797-46.6484-21.6797c-32.021,0-57.6265,25.1318-61.0239,59.8115   c-0.3257,2.1006-0.7891,8.1172,0.7593,17.2111c-66.5923-6.835-118.7144-63.293-118.7144-131.6944   c0-67.3857,50.4805-123.9023,117.4224-131.4482c3.9399-0.4531,7.2592-3.166,8.477-6.9434   c21.877-67.8398,84.4795-113.4277,155.7861-113.4277c90.2979,0,163.75,73.4717,163.75,163.7695   c0,6.7764-0.5224,13.9766-1.5878,22.0249c-0.4141,3.1665,0.6806,6.3521,2.9785,8.5811c2.2881,2.2192,5.4736,3.2451,8.6601,2.7222   c6.1055-0.9961,11.1553-1.4595,15.8897-1.4595c51.9502,0,94.2236,42.2739,94.2236,94.2436   C787.7998,607.0254,745.5264,649.3389,693.5762,649.3389z" fill="#313233"/></g></svg>