<?xml version="1.0" ?><!DOCTYPE svg  PUBLIC '-//W3C//DTD SVG 1.1//EN'  'http://www.w3.org/Graphics/SVG/1.1/DTD/svg11.dtd'><svg enable-background="new 0 0 1010 1010" id="bunny" version="1.1" viewBox="0 0 1010 1010" xml:space="preserve" xmlns="http://www.w3.org/2000/svg" xmlns:xlink="http://www.w3.org/1999/xlink"><g id="bunny-label"><path d="M505,0C226.106,0,0,226.1157,0,504.9805C0,783.8945,226.106,1010,505,1010   c278.875,0,505-226.1055,505-505.0195C1010,226.1157,783.875,0,505,0z" fill="#F6BBBB"/></g><g id="bunny-bunny"><g><path d="M396.5234,471.9087c-34.6098-27.272-69.9502-52.5518-95.3086-80.8198    c-78.8569-87.9014-76.3125-142.4849-57.1777-158.4634c21.2261-17.7642,80.8003,6.8154,145.1089,99.313    c21.936,31.5625,36.5337,61.8037,50.7959,96.542" fill="#FED78F"/><path d="M613.4961,471.9087c34.6006-27.272,69.9111-52.5518,95.2891-80.8198    c78.8671-87.9014,76.3124-142.4849,57.1875-158.4634c-21.2354-17.7642-80.8096,6.8154-145.1182,99.313    c-21.9463,31.5625-36.544,61.8037-50.7959,96.542" fill="#FED78F"/><path d="M680.3594,646.7451c0-14.1045-2.4463-27.499-7.0323-39.9365c0,0-14.0654-36.04-31.3164-56.9902    c0,0-17.8427-23.208-25.3486-60.6788c-7.6738-42.4316-54.5537-75.1088-111.4155-75.2763v-0.0196c-0.0884,0-0.148,0-0.2368,0    c-0.0689,0-0.1475,0-0.2168,0v0.0196c-56.8521,0.1675-103.752,32.8447-111.4058,75.2763    c-7.5161,37.4708-25.3686,60.6788-25.3686,60.6788c-17.2608,20.9502-31.3155,56.9902-31.3155,56.9902    c-4.5669,12.4375-7.0527,25.832-7.0527,39.9365c0,85.3369,78.374,135.8272,175.1426,135.9951v0.0098    c0.0693,0,0.1479-0.0098,0.2168-0.0098c0.0888,0,0.1484,0.0098,0.2368,0.0098v-0.0098    C601.9961,782.5723,680.3594,732.082,680.3594,646.7451z" fill="#FFFFFF"/></g><g><g><path d="M396.5186,482.0088c-2.1895,0-4.3936-0.7051-6.2481-2.1651     c-6.6431-5.2373-13.3154-10.4008-19.9434-15.5297c-28.5644-22.0992-55.5454-42.979-76.6279-66.4786     c-65.167-72.643-72.3276-119.1635-70.7939-140.4335c1.0009-13.9219,6.209-25.4722,14.6572-32.5289     c7.624-6.3818,18.1875-8.8969,30.561-7.2202c37.1944,4.9859,85.5396,45.5537,129.3174,108.521     c24.5152,35.2759,39.4038,68.1748,51.8462,98.4698c2.1162,5.1635-0.3496,11.0615-5.5083,13.1826     c-5.1684,2.1103-11.0571-0.3457-13.1821-5.5088c-11.999-29.2349-26.335-60.9307-49.7456-94.6133     c-47.7974-68.7568-90.9595-96.7539-115.4107-100.0288c-4.5761-0.6216-10.9131-0.6509-14.9228,2.6977     c-4.2119,3.5162-6.8599,10.0801-7.4668,18.4834c-1.0449,14.5489,3.2549,55.9004,65.6797,125.4859     c19.8598,22.1382,46.1406,42.4712,73.9599,63.998c6.6729,5.1587,13.3897,10.3614,20.0869,15.6333     c4.379,3.4522,5.1338,9.8037,1.6817,14.1885C402.4663,480.687,399.5024,482.0088,396.5186,482.0088L396.5186,482.0088z" fill="#313233"/></g><g><path d="M414.9043,448.3848c-2.8018,0-5.583-1.1543-7.5801-3.418l-58.539-66.3599     c-3.6885-4.1821-3.2891-10.5688,0.8925-14.2573c4.1924-3.6938,10.5689-3.2944,14.2578,0.8926l58.5386,66.3603     c3.689,4.1817,3.2896,10.5684-0.893,14.2569C419.6582,447.5513,417.2764,448.3848,414.9043,448.3848L414.9043,448.3848z" fill="#313233"/></g><g><path d="M613.4961,482.0088c-2.9785,0-5.9375-1.3169-7.9297-3.8467c-3.4521-4.3848-2.7031-10.7314,1.6768-14.1836     c6.6767-5.2671,13.374-10.4551,20.0421-15.6035c27.8144-21.5366,54.0898-41.8799,73.9843-64.0327     c62.4248-69.5757,66.7246-110.9321,65.6797-125.4805c-0.6014-8.4087-3.2549-14.9726-7.457-18.4839     c-4.0039-3.3584-10.3262-3.3139-14.9326-2.7026c-24.461,3.2798-67.6123,31.2768-115.4102,100.0288     c-23.4258,33.6924-37.7568,65.3838-49.7412,94.6084c-2.1299,5.1631-8.0283,7.6191-13.1768,5.5137     c-5.1689-2.1211-7.6337-8.0191-5.5234-13.1778c12.4277-30.29,27.3213-63.1836,51.8613-98.4746     c43.7725-62.9624,92.1026-103.5302,129.3077-108.521c12.3486-1.6567,22.9413,0.8335,30.576,7.2251     c8.4424,7.0572,13.6505,18.6118,14.6465,32.5342c1.5293,21.2695-5.6318,67.7949-70.7988,140.4233     c-21.1074,23.5142-48.0928,44.3995-76.6572,66.5132c-6.6084,5.1138-13.2657,10.2676-19.8936,15.4903     C617.8955,481.2983,615.6855,482.0088,613.4961,482.0088L613.4961,482.0088z" fill="#313233"/></g><g><path d="M595.0918,448.3848c-2.3672,0-4.7549-0.8335-6.668-2.5254c-4.1816-3.6885-4.5859-10.0752-0.8974-14.2569     l58.5381-66.3603c3.6894-4.1919,10.0703-4.5816,14.2626-0.8926c4.1817,3.6885,4.5762,10.0752,0.8877,14.2573l-58.539,66.3599     C600.6738,447.2305,597.8926,448.3848,595.0918,448.3848L595.0918,448.3848z" fill="#313233"/></g><g><path d="M505.2466,792.8496c-109.3345,0-185.6958-60.0869-185.6958-146.1045     c0-14.9424,2.5791-29.5605,7.6689-43.418c0.6704-1.7265,14.9229-37.9834,33.002-59.9296l0,0     c-0.0098,0,16.3584-21.8272,23.2627-56.2452c8.5566-47.4668,60.9209-83.4091,121.7622-83.4091     c5.5776,0,10.1001,4.5224,10.1001,10.1005c0,5.5772-4.5225,10.0997-10.1001,10.0997c-51.2153,0-95.0327,28.8007-101.9224,66.9863     c-7.9199,39.5176-26.5122,64.0176-27.3013,65.0439c-16.2153,19.6963-29.7773,54.1592-29.9106,54.5038     c-4.1963,11.4414-6.3613,23.7022-6.3613,36.2676c0,74.1319,68.0566,125.9053,165.4956,125.9053     c5.5776,0,10.1001,4.5166,10.1001,10.0996C515.3467,788.332,510.8242,792.8496,505.2466,792.8496L505.2466,792.8496z" fill="#313233"/></g><g><path d="M504.793,792.8496c-5.5777,0-10.1001-4.5176-10.1001-10.0996c0-5.583,4.5224-10.0996,10.1001-10.0996     c97.4199,0,165.4668-51.7734,165.4668-125.9053c0-12.6543-2.1602-24.9053-6.412-36.4443     c-0.0684-0.1582-13.6407-34.6309-29.6387-54.0605c-0.9863-1.2929-19.5684-25.7929-27.4492-65.1181     c-6.9336-38.378-50.7471-67.1787-101.9668-67.1787c-5.5777,0-10.1001-4.5225-10.1001-10.0997     c0-5.5781,4.5224-10.1005,10.1001-10.1005c60.8369,0,113.2011,35.9423,121.8017,83.6015     c6.9337,34.5713,23.2578,56.1026,23.4248,56.3194c17.8633,21.6796,32.125,57.9365,32.7168,59.4755     c5.1485,13.9463,7.7227,28.5635,7.7227,43.6055C690.459,732.7627,614.1074,792.8496,504.793,792.8496L504.793,792.8496z" fill="#313233"/></g><g><path d="M454.9141,577.1299c-1.9131,5.2471-7.7032,7.9404-12.9405,6.0263     c-5.247-1.8837-7.9199-7.7031-6.0263-12.9306c1.9233-5.2471,7.7031-7.96,12.9306-6.0361     C454.125,566.083,456.8281,571.8926,454.9141,577.1299z" fill="#313233"/><path d="M445.4355,593.8682c-2.3623,0-4.6948-0.4141-6.9287-1.2237c-5.0058-1.7949-9.0547-5.4834-11.3427-10.3554     c-2.3033-4.9121-2.5596-10.4161-0.7149-15.5059c3.7481-10.2178,15.7412-15.8203,25.9155-12.0723     c5.0201,1.8145,9.0743,5.5235,11.3628,10.4161c2.2881,4.8916,2.5293,10.3955,0.6753,15.4648     C461.5078,588.542,453.8838,593.8682,445.4355,593.8682L445.4355,593.8682z" fill="#313233"/></g><g><path d="M555.0664,577.1299c1.9131,5.2373,7.7031,7.9404,12.9307,6.0263     c5.2568-1.8837,7.9697-7.6933,6.046-12.9306c-1.924-5.2471-7.7032-7.96-12.9503-6.0361     C555.8652,566.1035,553.1719,571.8926,555.0664,577.1299z" fill="#313233"/><path d="M564.5449,593.8682L564.5449,593.8682c-8.4434,0-16.0674-5.3262-18.9669-13.2764     c-3.7881-10.4746,1.6172-22.0742,12.043-25.8809c10.1885-3.748,22.1816,1.8546,25.9102,12.0332     c1.8544,5.0801,1.6181,10.5733-0.67,15.4854c-2.289,4.9014-6.3622,8.6103-11.4619,10.4355     C569.2402,593.4541,566.9023,593.8682,564.5449,593.8682L564.5449,593.8682z" fill="#313233"/></g><g><path d="M303.7695,743.9678c-4.0634,0-7.8955-2.4756-9.4345-6.5c-1.9922-5.2178,0.6167-11.0567,5.8242-13.0497     l101.8926-38.9796l-137.3262-22.3105c-5.5039-0.8974-9.2422-6.0849-8.3442-11.5986c0.8926-5.5039,6.0117-9.292,11.5894-8.3447     l174.3135,28.3271c4.5029,0.7305,7.9599,4.3994,8.4238,8.9365c0.4683,4.5469-2.1699,8.837-6.436,10.4747l-136.8926,52.374     C306.1909,743.75,304.9727,743.9678,303.7695,743.9678L303.7695,743.9678z" fill="#313233"/></g><g><path d="M706.2305,743.9678c-1.2032,0-2.4258-0.2178-3.6094-0.6709l-136.8926-52.374     c-4.2715-1.6377-6.9043-5.9278-6.4414-10.4747c0.4736-4.5371,3.9258-8.206,8.4238-8.9365l174.3233-28.3271     c5.5342-0.9473,10.6924,2.8408,11.5801,8.3447c0.9072,5.5137-2.8409,10.7012-8.3448,11.5986l-137.3164,22.3105l101.8877,38.9796     c5.208,1.993,7.8115,7.832,5.8195,13.0497C714.1211,741.4824,710.2949,743.9678,706.2305,743.9678L706.2305,743.9678z" fill="#313233"/></g></g><g><path d="M505,661.3135c0-13.0694-10.6128-23.662-23.6914-23.662c-13.0591,0-23.6719,10.5927-23.6719,23.662    c0,6.8447,2.9688,12.9796,7.6045,17.3193h-0.0693L505,718.4512l39.8086-39.8184c0,0-0.0293,0-0.0293-0.0293    c4.6348-4.3301,7.5742-10.4453,7.5742-17.29c0-13.0694-10.583-23.662-23.6719-23.662C515.6035,637.6514,505,648.2441,505,661.3135    z" fill="#F05354"/><path d="M505,727.5352c-2.4111,0-4.7197-0.9473-6.4258-2.6534l-39.8281-39.8173    c-0.1924-0.1973-0.375-0.3946-0.5474-0.6016c-6.1499-6.165-9.6508-14.5488-9.6508-23.1494    c0-18.0596,14.6962-32.7461,32.7607-32.7461c9.3057,0,17.7192,3.8857,23.6914,10.1299    c5.9668-6.2442,14.3809-10.1299,23.6816-10.1299c18.0596,0,32.7559,14.6865,32.7559,32.7461    c0,8.7979-3.4414,17.0039-9.7246,23.2275c-0.1484,0.1777-0.3066,0.3457-0.4736,0.5235l-39.8086,39.8076    C509.7246,726.5879,507.4121,727.5352,505,727.5352L505,727.5352z M472.2983,672.9121L505,705.5996l32.7656-32.7754    c0.2471-0.3066,0.5137-0.5918,0.8087-0.8584c3.0186-2.831,4.6953-6.6084,4.6953-10.6523c0-8.0293-6.5488-14.5781-14.5879-14.5781    c-8.038,0-14.5927,6.5488-14.5927,14.5781c0,5.0205-4.0684,9.0938-9.0889,9.0938s-9.0889-4.0732-9.0889-9.0938    c0-8.0293-6.5493-14.5781-14.6025-14.5781c-8.0386,0-14.583,6.5488-14.583,14.5781c0,4.0342,1.6816,7.831,4.7295,10.6816    C471.7607,672.2812,472.042,672.5869,472.2983,672.9121L472.2983,672.9121z" fill="#313233"/></g></g></svg>