<?xml version="1.0" ?><!DOCTYPE svg  PUBLIC '-//W3C//DTD SVG 1.1//EN'  'http://www.w3.org/Graphics/SVG/1.1/DTD/svg11.dtd'><svg enable-background="new 0 0 1010 1010" id="mail-bubble-xoxo" version="1.1" viewBox="0 0 1010 1010" xml:space="preserve" xmlns="http://www.w3.org/2000/svg" xmlns:xlink="http://www.w3.org/1999/xlink"><g id="mail-bubble-xoxo-label"><path d="M505,0C226.106,0,0,226.1157,0,504.9805C0,783.8945,226.106,1010,505,1010   c278.875,0,505-226.1055,505-505.0195C1010,226.1157,783.875,0,505,0z" fill="#F6BBBB"/></g><g id="mail-bubble-xoxo-mail-bubble-xoxo"><path d="M242.459,466.0942l215.2168,151.6431l-11.6582,8.2656c-60.314,42.7276-150.8687,117.1953-187.0078,147.2295   l-16.5508,13.7588V466.0942z" fill="#FED78F"/><path d="M242.3408,787.0508l21.5513-17.8731c39.4634-32.7363,137.5044-113.1113,195.1943-152.2695   c13.1084-8.8965,28.5347-13.5908,44.5821-13.5908c16.0278,0,31.3061,4.6748,44.1674,13.5224l219.8233,170.211H242.3408z" fill="#FED78F"/><polygon fill="#FED78F" points="548.0635,617.0176 767.6592,466.0991 767.6592,787.0508  "/><path d="M445.6826,499.0576l-1.0654-1.105H344.0806c-18.1783,0-33.545-15.3569-33.545-33.5351V256.4844   c0-18.1778,15.3667-33.5352,33.545-33.5352h321.9575c18.1777,0,33.5351,15.3574,33.5351,33.5352v128.3613l-0.0595,0.5469   l0.0595,1.0361v77.9888c0,18.1782-15.3574,33.5351-33.5351,33.5351H565.6396l-0.7988,0.7891l-0.2666,0.1626l-59.5146,66.1328   L445.6826,499.0576z M443.7886,497.0698l-26.2066-25.9502L443.7886,497.0698z" fill="#FFFFFF"/><path d="M242.459,466.0942v-14.0356l68.0766-66.5576v78.9165c0,18.1782,15.3667,33.5351,33.545,33.5351h100.6157   l60.3633,67.0845l60.373-67.0845h100.6055c18.1777,0,33.5351-15.3569,33.5351-33.5351v-78.9014l68.086,66.5425v14.0356   l-219.586,150.9136l-5.5039-3.1269c-11.8261-6.7168-25.3388-10.2676-39.0781-10.2676c-14.1543,0-28.0215,3.7578-40.1045,10.8691   l-5.6123,3.3145L242.459,466.0942z" fill="#F05354"/><g><g><path d="M767.6592,797.1504H242.459c-5.582,0-10.0996-4.5176-10.0996-10.0996V452.0586     c0-2.7173,1.0947-5.3213,3.0381-7.2197l67.4746-65.9659c3.9941-3.9008,10.4052-3.8168,14.2817,0.1582     c3.9058,3.9893,3.8272,10.3858-0.1577,14.2818l-64.4365,62.9966v320.6406h505V456.3096l-65.2559-63.7754     c-3.9844-3.9014-4.0635-10.2979-0.1572-14.2871c3.8857-3.98,10.2969-4.0537,14.2812-0.1631l68.294,66.75     c1.9424,1.9033,3.0381,4.5073,3.0381,7.2246v334.9922C777.7598,792.6328,773.2422,797.1504,767.6592,797.1504L767.6592,797.1504z     " fill="#313233"/></g><g><path d="M767.6494,797.1504c-2.1602,0-4.3301-0.6904-6.1748-2.1113L542.1152,625.1543     c-22.7441-15.6231-54.0205-15.7217-77.3574,0.1182c-74.083,50.2832-214.3882,168.3173-215.789,169.5009     c-4.2802,3.6094-10.6622,3.0274-14.2325-1.2129c-3.6001-4.2714-3.0478-10.6425,1.2129-14.2334     c1.4209-1.1933,142.5244-119.9072,217.4658-170.7822c30.1621-20.4668,70.6016-20.3476,100.6055,0.3155l219.8233,170.2001     c4.4082,3.4131,5.2177,9.7657,1.8046,14.1739C773.6563,795.8086,770.668,797.1504,767.6494,797.1504L767.6494,797.1504z" fill="#313233"/></g><g><path d="M456.4233,626.9492c-2.0122,0-4.0337-0.5918-5.809-1.8437L236.6396,474.3496     c-4.5566-3.2104-5.6513-9.5127-2.436-14.0747c3.2056-4.562,9.4985-5.6519,14.0747-2.436l213.9746,150.7548     c4.5567,3.2061,5.6514,9.5186,2.4361,14.0752C462.7261,625.46,459.5996,626.9492,456.4233,626.9492L456.4233,626.9492z" fill="#313233"/></g><g><path d="M548.3096,626.9492c-3.2158,0-6.3721-1.5283-8.334-4.3789c-3.1563-4.5967-1.9932-10.8887,2.6035-14.0449     l219.3594-150.7559c4.6064-3.1513,10.8799-1.9922,14.0459,2.604c3.1562,4.5962,1.9922,10.8843-2.6045,14.0454L554.0205,625.1738     C552.2754,626.377,550.2822,626.9492,548.3096,626.9492L548.3096,626.9492z" fill="#313233"/></g></g><g><path d="M505.0693,293.5557c0-14.8741-12.0727-26.9366-26.9663-26.9366c-14.874,0-26.937,12.0625-26.937,26.9366    c0,7.7968,3.3638,14.7705,8.6602,19.707l-0.0791,0.0098l45.3222,45.3071l45.3116-45.3071c0-0.0098-0.0391-0.0098-0.0391-0.0342    c5.2666-4.9219,8.6103-11.8858,8.6103-19.6826c0-14.8741-12.0429-26.9366-26.9365-26.9366    C517.1221,266.6191,505.0693,278.6816,505.0693,293.5557z" fill="#F05354"/><path d="M505.0693,368.6797c-2.5844,0-5.1684-0.9863-7.1411-2.959l-45.3218-45.3071    c-0.227-0.2222-0.4438-0.4585-0.6411-0.7007c-7.0424-7.0322-10.8989-16.2691-10.8989-26.1572    c0-20.4219,16.6094-37.0362,37.0366-37.0362c10.6128,0,20.1997,4.4825,26.9663,11.6485    c6.7559-7.166,16.3428-11.6485,26.9463-11.6485c20.4268,0,37.0371,16.6143,37.0371,37.0362    c0,9.9375-3.8769,19.2041-10.9589,26.2314c-0.1778,0.2168-0.375,0.4243-0.5723,0.6265L512.21,365.7207    C510.2373,367.6934,507.6533,368.6797,505.0693,368.6797L505.0693,368.6797z M467.7168,306.96l37.3525,37.3374l37.4405-37.441    c0.2861-0.3501,0.6015-0.6855,0.9375-0.996c3.4814-3.2598,5.4052-7.6294,5.4052-12.3047c0-9.2813-7.5556-16.8365-16.8369-16.8365    c-9.291,0-16.8467,7.5552-16.8467,16.8365c0,5.5781-4.5166,10.1001-10.0996,10.1001c-5.583,0-10.1001-4.522-10.1001-10.1001    c0-9.2813-7.5649-16.8365-16.8662-16.8365c-9.2817,0-16.8364,7.5552-16.8364,16.8365c0,4.6704,1.9326,9.0449,5.4443,12.3193    C467.0757,306.2153,467.4111,306.5752,467.7168,306.96L467.7168,306.96z" fill="#313233"/><path d="M505.0596,575.1377L505.0596,575.1377c-2.8604,0-5.5928-1.2129-7.5064-3.3438l-57.355-63.7412h-96.1176    c-23.6617,0-43.6451-19.9834-43.6451-43.6352V256.4844c0-23.6519,19.9834-43.6348,43.6451-43.6348h321.9575    c23.6514,0,43.6348,19.9829,43.6348,43.6348v207.9331c0,23.6518-19.9834,43.6352-43.6348,43.6352h-96.1084l-57.3643,63.7412    C510.6523,573.9248,507.9199,575.1377,505.0596,575.1377L505.0596,575.1377z M344.0806,233.0498    c-12.7036,0-23.4449,10.731-23.4449,23.4346v207.9331c0,12.7036,10.7413,23.435,23.4449,23.435h100.6157    c2.8603,0,5.5923,1.2129,7.5058,3.3438l52.8575,58.7412l52.8672-58.7412c1.913-2.1309,4.6454-3.3438,7.5058-3.3438h100.6055    c12.7041,0,23.4346-10.7314,23.4346-23.435V256.4844c0-12.7036-10.7305-23.4346-23.4346-23.4346H344.0806L344.0806,233.0498z" fill="#313233"/></g><g><g><g><path d="M375.752,449.8096c-2.5845,0-5.169-0.9864-7.1416-2.959c-3.9454-3.9453-3.9454-10.3364,0-14.2818      l41.3769-41.3813c3.9453-3.9453,10.3364-3.9453,14.2817,0c3.9454,3.9404,3.9454,10.3369,0,14.2822l-41.3764,41.3809      C380.9199,448.8232,378.3359,449.8096,375.752,449.8096L375.752,449.8096z" fill="#313233"/></g><g><path d="M417.1279,449.8096c-2.584,0-5.1679-0.9864-7.1406-2.959l-41.3769-41.3809      c-3.9454-3.9453-3.9454-10.3418,0-14.2822c3.9453-3.9453,10.3369-3.9453,14.2822,0l41.3764,41.3813      c3.9454,3.9454,3.9454,10.3365,0,14.2818C422.2964,448.8232,419.7124,449.8096,417.1279,449.8096L417.1279,449.8096z" fill="#313233"/></g></g><g><g><path d="M520.5742,449.8096c-2.584,0-5.1679-0.9864-7.1406-2.959c-3.9453-3.9453-3.9453-10.3364,0-14.2818      l41.376-41.3813c3.9453-3.9453,10.3369-3.9453,14.2822,0c3.9453,3.9404,3.9453,10.3369,0,14.2822l-41.377,41.3809      C525.7422,448.8232,523.1582,449.8096,520.5742,449.8096L520.5742,449.8096z" fill="#313233"/></g><g><path d="M561.9512,449.8096c-2.585,0-5.169-0.9864-7.1416-2.959l-41.376-41.3809      c-3.9453-3.9453-3.9453-10.3418,0-14.2822c3.9453-3.9453,10.3359-3.9453,14.2812,0l41.377,41.3813      c3.9453,3.9454,3.9453,10.3365,0,14.2818C567.1191,448.8232,564.5352,449.8096,561.9512,449.8096L561.9512,449.8096z" fill="#313233"/></g></g><g><path d="M468.8613,449.8096c-16.9751,0-30.7934-13.8086-30.7934-30.7832     c0-16.9844,13.8183-30.7979,30.7934-30.7979c16.9746,0,30.793,13.8135,30.793,30.7979     C499.6543,436.001,485.8359,449.8096,468.8613,449.8096L468.8613,449.8096z M468.8613,408.4287     c-5.8393,0-10.5937,4.7539-10.5937,10.5977c0,5.8344,4.7544,10.5835,10.5937,10.5835c5.8389,0,10.5928-4.7491,10.5928-10.5835     C479.4541,413.1826,474.7002,408.4287,468.8613,408.4287L468.8613,408.4287z" fill="#313233"/></g><g><path d="M613.6738,449.8096c-16.9745,0-30.7832-13.8086-30.7832-30.7832     c0-16.9844,13.8087-30.7979,30.7832-30.7979c16.9746,0,30.793,13.8135,30.793,30.7979     C644.4668,436.001,630.6484,449.8096,613.6738,449.8096L613.6738,449.8096z M613.6738,408.4287     c-5.8387,0-10.584,4.7539-10.584,10.5977c0,5.8344,4.7452,10.5835,10.584,10.5835c5.8389,0,10.5928-4.7491,10.5928-10.5835     C624.2666,413.1826,619.5127,408.4287,613.6738,408.4287L613.6738,408.4287z" fill="#313233"/></g></g></g></svg>