<?xml version="1.0" ?><!DOCTYPE svg  PUBLIC '-//W3C//DTD SVG 1.1//EN'  'http://www.w3.org/Graphics/SVG/1.1/DTD/svg11.dtd'><svg enable-background="new 0 0 1010 1010" id="heart-bulb" version="1.1" viewBox="0 0 1010 1010" xml:space="preserve" xmlns="http://www.w3.org/2000/svg" xmlns:xlink="http://www.w3.org/1999/xlink"><g id="heart-bulb-label"><path d="M505,0C226.106,0,0,226.1157,0,504.9805C0,783.8945,226.106,1010,505,1010   c278.875,0,505-226.1055,505-505.0195C1010,226.1157,783.875,0,505,0z" fill="#F6BBBB"/></g><g id="heart-bulb-heart-bulb"><g><path d="M552.1172,771.8311c0,26.0097-21.0977,47.1074-47.1172,47.1074    c-26.0244,0-47.1167-21.0977-47.1167-47.1074c0-26.0186,21.0923-47.1163,47.1167-47.1163    C531.0195,724.7148,552.1172,745.8125,552.1172,771.8311z" fill="#FFFFFF"/><path d="M505,829.0381c-31.5479,0-57.2168-25.6641-57.2168-57.207c0-31.5528,25.6689-57.2168,57.2168-57.2168    c31.543,0,57.2168,25.664,57.2168,57.2168C562.2168,803.374,536.543,829.0381,505,829.0381L505,829.0381z M505,734.8145    c-20.4121,0-37.0166,16.6093-37.0166,37.0166c0,20.4072,16.6045,37.0068,37.0166,37.0068    c20.417,0,37.0176-16.5996,37.0176-37.0068C542.0176,751.4238,525.417,734.8145,505,734.8145L505,734.8145z" fill="#313233"/><polyline fill="#FFFFFF" points="576.6963,639.8701 576.6963,779.6729 424.1758,779.6729 424.1758,639.8701   "/><path d="M576.6963,789.7725H424.1758c-5.5781,0-10.1006-4.5176-10.1006-10.0996V639.8701    c0-5.582,4.5225-10.0996,10.1006-10.0996c5.5771,0,10.0996,4.5176,10.0996,10.0996v129.7022h132.3203V639.8701    c0-5.582,4.5273-10.0996,10.1006-10.0996c5.5732,0,10.1006,4.5176,10.1006,10.0996v139.8028    C586.7969,785.2549,582.2695,789.7725,576.6963,789.7725L576.6963,789.7725z" fill="#313233"/><path d="M641.291,288.9746c-74.4287-74.4482-195.1304-74.4482-269.603,0    c-74.4776,74.418-75.9175,195.1646-1.44,269.6221c16.462,16.4326,28.5049,28.6631,53.9278,37.8359v56.1416h152.5205v-56.1416    c25.418-9.1728,43.5459-21.4033,59.9785-37.8359C711.1523,484.1392,715.7686,363.4224,641.291,288.9746z" fill="#FED78F"/><path d="M576.6963,662.6738H424.1758c-5.5781,0-10.1006-4.5166-10.1006-10.0996v-49.2275    c-22.8184-9.498-35.1133-21.7783-50.3418-36.9776c-38.4863-38.4863-59.1206-88.9272-58.7212-142.6723    c0.3945-53.5132,21.5366-103.8999,59.5347-141.8687c37.9243-37.9092,88.3408-58.79,141.957-58.79    c53.6221,0,104.0234,20.8808,141.9277,58.7949c37.7178,37.6978,57.7793,88.1978,56.5069,142.1895    c-1.253,53.2421-22.9717,103.5644-61.1221,141.7158c-16.9648,16.9648-34.7685,28.7607-57.0195,37.6582v49.1777    C586.7969,658.1572,582.2695,662.6738,576.6963,662.6738L576.6963,662.6738z M434.2754,642.4746h132.3203v-46.042    c0-4.2607,2.6738-8.0488,6.6777-9.499c22.4883-8.1172,39.8477-19.0654,56.2608-35.4775    c34.4619-34.462,54.0703-79.8877,55.2138-127.9122c1.1446-48.414-16.8261-93.6718-50.5976-127.4287    c-34.0879-34.0971-79.4199-52.8769-127.6465-52.8769c-48.2212,0-93.5625,18.7798-127.6748,52.8769    c-34.2207,34.1963-53.2617,79.5577-53.6221,127.7295c-0.3545,48.2959,18.1783,93.6123,52.1817,127.6114    c16.6396,16.6093,27.2275,27.1826,50.2143,35.4775c4.0044,1.4404,6.6724,5.2383,6.6724,9.499V642.4746L434.2754,642.4746z" fill="#313233"/><g><path d="M432.5986,703.7949h138.545c5.582,0,10.0995-4.5273,10.0995-10.1006     c0-5.5732-4.5176-10.1006-10.0995-10.1006h-138.545c-5.5776,0-10.0996,4.5274-10.0996,10.1006     C422.499,699.2676,427.021,703.7949,432.5986,703.7949z" fill="#313233"/><path d="M571.1436,727.1699h-138.545c-5.5776,0-10.0996,4.5274-10.0996,10.1006     c0,5.5723,4.522,10.0996,10.0996,10.0996h138.545c5.582,0,10.0995-4.5273,10.0995-10.0996     C581.2432,731.6973,576.7256,727.1699,571.1436,727.1699z" fill="#313233"/></g></g><g><path d="M505.7744,375.8896c-10.0264-22.8037-32.7217-38.7431-59.229-38.7431    c-35.5127,0-61.2016,29.4717-64.4614,64.5356c0,0-1.7559,8.6895,2.0517,24.4116c5.3013,21.3438,17.586,40.2227,34.043,54.7906    l87.5957,75.4243l86.0615-75.4243c16.502-14.5679,28.7813-33.4468,34.0293-54.7906c3.7383-15.7221,2.1006-24.4116,2.1006-24.4116    c-3.2842-35.0639-28.8896-64.5356-64.6143-64.5356C536.9668,337.1465,515.7314,353.0859,505.7744,375.8896z" fill="#F05354"/><path d="M505.7744,566.4082c-2.3476,0-4.6953-0.8086-6.5889-2.4453l-87.5957-75.4248    c-18.7793-16.6196-31.6264-37.3423-37.2587-60.0083c-3.7676-15.5786-2.7022-25.437-2.2686-28.1694    c4.1279-42.5059,35.3945-73.3135,74.4829-73.3135c23.4351,0,45.1489,10.9922,59.1206,29.042    c13.6758-18.2471,34.5654-29.042,57.6856-29.042c39.2656,0,70.6699,30.9902,74.665,73.6933    c0.0791,0.1778,1.7949,10.376-2.3281,27.691c-5.5928,22.7592-18.4444,43.4921-37.1651,60.0229l-86.0918,75.4492    C510.5283,565.5801,508.1514,566.4082,505.7744,566.4082L505.7744,566.4082z M391.9814,403.6797    c0.0049,0-1.1386,7.2002,1.9678,20.0371c4.6309,18.6216,15.3277,35.7988,30.9219,49.6074l80.8437,69.6094l79.4639-69.644    c15.5938-13.774,26.2861-30.9361,30.8818-49.6075c3.0674-12.9258,1.9727-20.1948,1.9532-20.2641    c-2.6826-28.3125-22.252-56.1714-54.6621-56.1714c-21.0088,0-39.5127,12.5263-48.3203,32.687    c-1.6075,3.6738-5.2325,6.0508-9.2422,6.0557h-0.0147c-4.0049,0-7.6343-2.3672-9.2471-6.0362    c-8.7334-19.8691-28.3515-32.7065-49.9819-32.7065c-32.3369,0-51.8462,27.854-54.4058,55.3725    c-0.0346,0.355-0.0839,0.71-0.1582,1.0655V403.6797L391.9814,403.6797z" fill="#313233"/></g><polygon fill="#313233" points="515.0996,650.4434 494.9004,650.4434 494.9004,559.3965 515.0996,559.3965 515.0996,650.4434  "/><path d="M427.5928,439.9863c-4.0337,0-7.8408-2.4316-9.4043-6.4111c-6.9834-17.7788-3.2256-37.0122,9.5722-49.001   c11.7915-11.0517,28.835-13.3598,44.4786-5.9971c5.0498,2.3721,7.2197,8.3887,4.8427,13.4336   c-2.3769,5.0503-8.4082,7.2105-13.4336,4.8433c-8.2363-3.8467-16.2744-2.9639-22.0791,2.4609   c-6.7216,6.2974-8.5166,16.8462-4.5815,26.8726c2.0415,5.1929-0.5181,11.0566-5.7056,13.0933   C430.0688,439.7593,428.8213,439.9863,427.5928,439.9863L427.5928,439.9863z" fill="#FFFFFF"/></g></svg>