<?xml version="1.0" ?><!DOCTYPE svg  PUBLIC '-//W3C//DTD SVG 1.1//EN'  'http://www.w3.org/Graphics/SVG/1.1/DTD/svg11.dtd'><svg height="512px" style="enable-background:new 0 0 512 512;" version="1.1" viewBox="0 0 512 512" width="512px" xml:space="preserve" xmlns="http://www.w3.org/2000/svg" xmlns:xlink="http://www.w3.org/1999/xlink"><g id="Gun_x2C__military_x2C__pistol_x2C__weapon_x2C__military"><g><path d="M136.461,183.891c0.404,2.817,1.234,5.375,2.267,7.25c1.032,3.24,2.764,5.245,5.458,6.486    c1.032,3.992,2.48,6.004,4.35,6.004h3.453c1.578,0,4.07,0.902,5.031,1.803c0.557,0.819,1.803,1.78,4.291,1.923    c0.894,1.305,2.136,2.076,3.666,2.218c13.037,0.475,25.609,5.241,29.608,8.413c0.142,0.138,0.284,0.138,0.344,0.209    c1.377,0.273,3.322,0.55,5.66,0.823c0.416,0.617,0.973,1.051,1.661,1.182c10.294,1.792,17.746,4.627,21.337,23.952    c3.318,18.238,15.053,27.347,36.797,28.876c12.094,0.404,20.851-0.497,31.904-1.668c5.043-0.55,10.77-1.167,17.473-1.653    c8.907-0.415,11.245,0.55,13.19,1.31c0.688,0.272,1.376,0.546,2.267,0.755c4.422,2.147,6.629,3.939,7.594,8.159    c1.04,4.414,17.675,70.142,17.813,70.759c0.135,0.423,0.486,0.688,0.842,0.688h1.65c0.131,0,0.617,0,1.316,0l0.411,1.731    c-2.902-0.752-5.667-1.31-7.245-1.31c-1.388,0-2.147,0.621-2.563,1.175c-1.455,1.855-0.546,5.309-0.415,5.724    c0.07,0.352,0.415,0.564,0.759,0.636c0.143,0,13.949,1.306,22.444,1.306h44.881c0.688,0,1.167-0.214,1.582-0.688    c0.76-0.98,0.617-2.563,0.415-3.389l-1.032-3.797h5.395l3.157,6.071c0.213,0.276,0.497,0.497,0.771,0.497h5.038    c0.479,0,0.895-0.363,0.895-0.842l0.071-3.311c0-0.139,0-0.28-0.071-0.404l-1.721-3.321c5.667,0.123,20.992,0.123,23.877-2.967    c2.42-1.525,3.258-5.596,2.704-12.366c-1.661-13.676-5.458-20.783-15.539-39.771c-2.622-4.893-5.596-10.425-9.119-17.188    c-5.993-11.528-9.659-21.133-10.904-28.513c-0.139-0.759-0.21-1.519-0.273-2.278c-0.28-2.835-0.142-5.181,0.408-7.321    c0.344-1.04,0.707-1.728,0.979-2.274c0.131-0.213,0.345-0.415,0.416-0.621c0.06-0.067,0.131-0.139,0.201-0.209    c0.273-0.344,0.202-0.902-0.142-1.186l-0.748-0.617c-0.143-0.071-0.284-0.131-0.435-0.131l-0.681-0.213    c3.513-5.031,7.594-8.413,17.188-11.458c5.323-2.076,7.594-5.458,6.842-10.01c-0.759-4.354-1.941-5.315-4.556-7.522    c-0.273-0.284-0.633-0.557-1.04-0.901c-3.169-2.765-8.906-8.017-9.314-8.36c-0.071-0.071-0.143-0.143-0.28-0.202    c-0.135-0.558-0.345-1.033-0.621-1.519l-8.907-15.116c0-0.067,0-0.067-0.07-0.139c-0.071-0.071-0.143-0.206-0.21-0.273    c0.28-1.324,1.104-2.693,1.515-3.18c2.076-2.076,3.251-4.836,3.251-7.803c0-1.519-0.344-2.966-0.961-4.354    c-0.071-0.273-0.284-0.486-0.558-0.557v-0.617c-0.071-0.344-0.202-0.618-0.475-0.76c-0.143-0.06-0.345-0.131-0.558-0.06    l-0.131-0.688c-0.071-0.292-0.284-0.565-0.569-0.636c-0.201-0.071-0.344-0.071-0.546,0l-0.28-0.617    c-0.063-0.277-0.344-0.486-0.688-0.55c-0.135,0-0.344,0.063-0.479,0.134l-0.345-0.621c-0.213-0.273-0.486-0.416-0.838-0.344    c-0.142,0-0.344,0.071-0.486,0.142l-0.407-0.557c-0.21-0.202-0.554-0.273-0.827-0.273c-0.205,0.071-0.344,0.142-0.479,0.273    l-0.554-0.404c-0.276-0.221-0.55-0.284-0.894-0.142c-0.143,0.071-0.292,0.142-0.423,0.344l-0.617-0.423    c-0.284-0.142-0.629-0.142-0.831,0c-0.142,0.079-0.201,0.221-0.272,0.281l-0.76-0.281c-0.272-0.063-0.621,0-0.842,0.221    c-0.067,0.06-0.201,0.202-0.201,0.273l-0.76-0.071c-0.273-0.071-0.546,0.071-0.76,0.273c-0.06,0.142-0.131,0.213-0.201,0.344    h-0.688c-0.273,0-0.547,0.206-0.688,0.486c-0.149,0.135-0.149,0.344-0.149,0.546l-0.617,0.071c-0.348,0.071-0.55,0.277-0.692,0.55    c-0.067,0.209-0.067,0.415,0,0.565l-0.617,0.266c-0.273,0.079-0.486,0.344-0.554,0.625c-0.063,0.213,0,0.415,0.067,0.558    l-0.617,0.404c-0.273,0.142-0.423,0.415-0.423,0.688c0,0.213,0.079,0.415,0.221,0.557l-0.493,0.479    c-0.143,0.079-0.273,0.221-0.345,0.422c-0.205,0.76-0.415,1.519-0.486,2.338c-2.338-2.267-5.236-7.316-5.925-9.172    c0-0.071,0-0.071,0-0.142c-0.292-0.423-0.565-0.838-0.838-1.171c-0.415-1.519-2.832-4.354-4.351-6.004    c-0.135-0.221-0.344-0.355-0.621-0.355h-1.447c-0.352,0-0.696,0.285-0.831,0.55l-0.969,2.559c-0.135,0.202-0.752,0.972-1.855,1.04    h-220.6l-1.799-2.559c-0.142-0.273-0.486-0.404-0.759-0.404l-3.939,0.404c-0.131,0-2.693,0.213-7.043,2.559h-2.058    c-0.221,0-0.434,0.071-0.636,0.277c-0.416,0.416-0.76,0.898-1.167,1.586c0,0.064-0.209,0.408-0.344,0.681l-0.209,0.363    c-0.071,0.131-0.206,0.344-0.273,0.546c-2.835,1.377-4.567,3.595-5.6,7.115c-1.104,1.998-1.923,4.83-2.338,8.073h-6.984    c-0.131-5.379-0.415-5.379-0.558-5.379H59.875c-1.306,0-2.128,5.173-2.128,10.208c0,5.046,0.823,10.22,2.128,10.22h68.903    c0.143,0,0.427,0,0.558-5.305H136.461z M414.014,171.382L414.014,171.382c-0.692,1.104-1.863,1.799-3.18,1.799    c-2.137,0-3.868-1.728-3.868-3.793c0.76-0.973,1.941-1.53,3.108-1.53C412.15,167.858,413.808,169.388,414.014,171.382    L414.014,171.382z M297.539,256.999L297.539,256.999c-0.554,0.554-0.908,1.032-1.11,1.598    c-11.327,8.624-27.749,8.138-42.457,6.477c-8.226-0.891-15.819-5.303-20.375-11.871c-4.908-11.114-3.311-22.018,4.141-29.132    c6.427-6.146,15.61-6.906,26.036-7.25c0.202,0,0.407-0.071,0.546-0.202c9.12,9.666,16.915,31.755-10.639,45.553    c-1.579,0.706-1.163,2.012-0.06,2.012c15.06,0,29.353-10.292,27.554-30.305c6.486-3.595,9.595-9.191,10.77-11.956    c1.649,1.115,3.18,2.42,4.485,3.797c5.667,6.153,6.691,14.929,6.901,21.965C302.096,250.509,300.154,253.546,297.539,256.999    L297.539,256.999z M347.051,158.05L347.051,158.05c19.942,0,33.203,0,33.547,0c0.071,0,0.202,0,0.344,0.071L347.051,158.05z" style="fill:#262626;"/></g></g><g id="Layer_1"/></svg>