<?xml version="1.0" ?><!DOCTYPE svg  PUBLIC '-//W3C//DTD SVG 1.1//EN'  'http://www.w3.org/Graphics/SVG/1.1/DTD/svg11.dtd'><svg height="512px" style="enable-background:new 0 0 512 512;" version="1.1" viewBox="0 0 512 512" width="512px" xml:space="preserve" xmlns="http://www.w3.org/2000/svg" xmlns:xlink="http://www.w3.org/1999/xlink"><g id="emergency_x2C__bomb_x2C__military_x2C__weapons_x2C__military"><g><path d="M342.906,224.169c-6.142-24.79-14.211-47.567-24.019-67.8    c-16.785-34.871-32.728-49.994-33.423-50.611c-1.175-1.096-2.693-1.721-4.283-1.721h-76.015c-3.453,0-6.288,2.824-6.288,6.344    c0,3.523,2.835,6.359,6.288,6.359h6.352v1.234c-28.859,5.869-50.612,31.489-50.612,62.081c0,14.222,4.695,27.412,12.704,38.05    c-2.278,0.404-4.212,1.994-4.972,4.272l-8.214,25.339c-0.625,1.93-0.281,4.006,0.898,5.656c0.827,1.186,2.072,2.005,3.456,2.42    c-0.969,4.415-1.803,8.697-2.42,12.845h-1.452c-3.523,0-6.348,2.824-6.348,6.349v25.335c0,3.453,2.824,6.285,6.348,6.285h1.452    c0.617,4.223,1.451,8.502,2.42,12.916c-1.384,0.415-2.559,1.238-3.393,2.413c-1.242,1.598-1.511,3.74-0.894,5.667l8.218,25.336    c0.898,2.559,3.311,4.354,6.007,4.354h2.001c1.178,2.895,2.413,5.869,3.658,8.835c0.688,1.59,1.38,3.108,2.069,4.698    c-0.961,0.476-1.725,1.242-2.278,2.215c-1.174,1.855-1.242,4.2-0.202,6.198l13.253,25.275c1.107,2.144,3.314,3.449,5.66,3.449    h6.288h3.382h25.889h17.469H277.8h3.452h6.355c2.35,0,4.485-1.306,5.581-3.449l13.258-25.275c1.051-1.998,0.979-4.343-0.131-6.198    c-0.558-0.973-1.377-1.739-2.286-2.215c0.696-1.59,1.384-3.108,2.072-4.698c1.246-2.966,2.491-5.94,3.595-8.835h2.005    c2.754,0,5.174-1.796,6.012-4.354l8.282-25.336c0.617-1.927,0.28-4.069-0.901-5.667c-0.831-1.175-2.065-1.998-3.375-2.413    c0.966-4.414,1.785-8.693,2.413-12.916h1.313c3.516,0,6.34-2.832,6.34-6.285v-25.335c0-3.524-2.824-6.349-6.34-6.349h-1.313    c-0.628-4.148-1.447-8.495-2.413-12.916c1.31-0.344,2.473-1.164,3.304-2.349c1.182-1.65,1.526-3.726,0.909-5.656l-8.219-25.339    c-0.901-2.622-3.311-4.343-6.075-4.343h-1.941c-1.104-2.903-2.349-5.869-3.595-8.847c-0.688-1.59-1.376-3.176-2.072-4.688    c0.909-0.564,1.669-1.324,2.215-2.214c1.104-1.863,1.253-4.283,0.202-6.217l-13.313-25.336c-1.04-2.065-3.247-3.389-5.596-3.389    h-6.285h-3.108h-3.317v-6.359h32.256c0.266,0.565,0.55,1.115,0.823,1.668c9.25,19.478,16.975,41.432,22.919,65.241    c7.388,29.892,12.022,62.911,13.672,98.055c0.143,3.382,2.978,5.996,6.288,5.996c0.139,0,0.21,0,0.345,0    c3.448-0.135,6.135-3.108,6.004-6.632C355.408,289.066,350.649,255.041,342.906,224.169L342.906,224.169z M173.539,180.055    c0-23.615,16.16-43.426,37.979-49.093v36.382H208.2h-3.034h-6.355c-2.346,0-4.485,1.324-5.593,3.389l-13.324,25.336    c-0.969,1.934-0.901,4.354,0.209,6.217c0.55,0.961,1.38,1.721,2.342,2.214c-0.408,0.819-0.756,1.65-1.1,2.473    C176.375,199.177,173.539,189.934,173.539,180.055L173.539,180.055z" style="fill-rule:evenodd;clip-rule:evenodd;fill:#262626;"/></g></g><g id="Layer_1"/></svg>