<?xml version="1.0" ?><svg style="enable-background:new 0 0 64 64;" version="1.1" viewBox="0 0 64 64" xml:space="preserve" xmlns="http://www.w3.org/2000/svg" xmlns:xlink="http://www.w3.org/1999/xlink"><style type="text/css">
	.st0{fill:#0072FF;}
</style><g id="GUIDES_64"/><g id="Layer_3"/><g id="Layer_2"><path class="st0" d="M44.1,42.6l-6.2,3.1c-1.5,0.8-2.4,2.3-2.4,4v1.3c0,2.8,2.3,5.1,5.1,5.1h6.5c4.3,0,7.2-4.4,5.5-8.3L37.5,11.7   c-2-4.9-9-4.9-11,0L11.3,47.7c-1.7,3.9,1.2,8.3,5.5,8.3h7.3c2.8,0,5.1-2.3,5.1-5.1v-4.4c0-1.5-0.7-2.8-1.9-3.6l-2.9-2.1   c-0.6-0.4-0.7-1.2-0.3-1.8v0c0.4-0.6,1.2-0.7,1.8-0.3l2.5,1.7c0.4,0.2,0.8,0,0.8-0.4v-5.2c0-1.7,1.4-3.1,3.1-3.1s3.1,1.4,3.1,3.1   v2.1c0,0.4,0.5,0.7,0.8,0.5l2.4-1.4c0.6-0.4,1.4-0.2,1.8,0.4c0.4,0.6,0.2,1.4-0.4,1.8l-3.9,2.4c-0.4,0.2-0.6,0.7-0.6,1.1v0.4   c0,1,1,1.6,1.9,1.2l5.5-2.8c0.6-0.3,1.4-0.1,1.7,0.6l0,0C45,41.5,44.7,42.3,44.1,42.6z"/></g></svg>