<?xml version="1.0" ?><svg style="enable-background:new 0 0 64 64;" version="1.1" viewBox="0 0 64 64" xml:space="preserve" xmlns="http://www.w3.org/2000/svg" xmlns:xlink="http://www.w3.org/1999/xlink"><style type="text/css">
	.st0{fill:#0072FF;}
</style><g id="GUIDES_64"/><g id="Layer_3"/><g id="Layer_2"><path class="st0" d="M7.7,11.3c0.1,0,0.1,0,0.2,0c0.1,0,0.1,0,0.2,0L7.7,11.3z"/><path class="st0" d="M4.1,16.1c0.5,3.6,1.4,9.1,3,14.9c1.7,6.1,3.9,11.4,6.4,15.8c3.3,5.8,7.4,10,12.1,12.6c0.6,0.3,1.3,0.5,2,0.5   c0.9,0,1.9-0.3,2.6-0.9c0.1-0.1,3.7-3.1,7.9-8.2c2.5-3,4.7-6.2,6.6-9.4c0.4-0.6,0.7-1.3,1.1-1.9c0.4-0.7,1.1-1.1,1.9-1   c1.8,0.2,2.1-0.1,4.2-0.2c2.5-0.1,4.4-2.4,4.1-4.9c-0.3-2-2.1-3.4-4-3.4c0,0,0,0,0,0c-4.2,0-8.5,0-12.2-2.5   c-0.3-0.2-0.6-0.5-0.9-0.7c-2.8-2.4-3.4-5.3-3.4-7.3c0-2.7,0.6-4.7,1.9-5.9c1.2-1.1,2.6-1.3,3.1-1.3c0,0,0,0,0,0   c0.1,0,1.5,0.1,2.6,1.6c0.6,0.9,1.3,2.6,1.1,5.7c-0.2,2.8,1.9,5.4,4.8,5.7c0.1,0,0.2,0,0.3,0c1.3,0.1,2.5-0.8,2.8-2.1   c0.4-2.1,0.5-4.1,0.4-5.9c-0.1-3.2-1-5.9-2.5-8.2c-2.1-3.1-5.4-5-8.9-5.2c-2.5-0.1-6.3,0.7-9.2,3.6c-2.1,2-4.5,5.6-4.4,11.9   c0,5.3,2.3,10.1,6.3,13.5c0.8,0.7,1.8,1.4,3,2.1c1,0.6,1.3,1.8,0.7,2.8c-1.8,3-3.7,5.5-5.3,7.5c-0.9,1.1-1.7,2-2.5,2.9   c-1.3,1.4-3.4,1.4-4.7,0c-4.8-5.2-7.8-13-9.6-19.4c-1.5-5.5-2.4-10.6-2.8-14c-0.3-2.2-2.2-3.8-4.4-3.7C5.5,11.5,3.7,13.7,4.1,16.1z   "/></g></svg>