<?xml version="1.0" ?><svg style="enable-background:new 0 0 64 64;" version="1.1" viewBox="0 0 64 64" xml:space="preserve" xmlns="http://www.w3.org/2000/svg" xmlns:xlink="http://www.w3.org/1999/xlink"><style type="text/css">
	.st0{fill:#0072FF;}
</style><g id="GUIDES_64"/><g id="Layer_3"/><g id="Layer_2"><path class="st0" d="M6.1,52.1h13.5c1.8,0,3.4-0.1,4.9-0.5c1.5-0.3,2.8-0.9,3.9-1.7c1-0.7,1.8-1.6,2.4-2.7c1-1.6,1.5-3.4,1.5-5.4   c0-2-0.5-3.6-1.3-5c-0.4-0.6-0.9-1.1-1.4-1.6c-0.9-0.8-1.1-2.2-0.3-3.1c0.1-0.1,0.2-0.2,0.3-0.3c1.1-1.3,1.6-2.9,1.6-5   c0-2-0.5-3.8-1.6-5.2c-1.8-2.4-4.7-3.6-9-3.6H6.1C5,18,4,18.9,4,20.1V50C4,51.2,5,52.1,6.1,52.1z M10.9,26c0-1.2,1-2.1,2.1-2.1h5.4   c1.7,0,3,0.2,4.1,0.5c1.2,0.5,1.9,1.6,1.9,3.2c0,1.4-0.5,2.4-1.4,3c-0.9,0.6-2.2,0.8-3.7,0.8H13c-1.2,0-2.1-1-2.1-2.1V26z    M10.9,39.2c0-1.2,1-2.1,2.1-2.1h6.4c1.5,0,2.6,0.2,3.5,0.6c1.5,0.7,2.2,1.9,2.2,3.7c0,2.1-0.8,3.5-2.3,4.3c-0.8,0.4-2,0.6-3.5,0.6   H13c-1.2,0-2.1-1-2.1-2.1V39.2z"/><path class="st0" d="M52.5,24.2c1.2,0,2.1-1,2.1-2.1c0-1.2-1-2.1-2.1-2.1H41.9c-1.2,0-2.1,1-2.1,2.1c0,1.2,1,2.1,2.1,2.1H52.5z"/><path class="st0" d="M47.3,26.2c-3.8,0-6.8,1.2-9.2,3.5c-2.3,2.3-3.5,5.7-3.5,10.1c0,4.7,1.3,8,3.9,10.1c2.6,2.1,5.6,3.1,9,3.1   c4.1,0,7.3-1.2,9.6-3.7c0.4-0.4,0.7-0.8,1-1.1c1.1-1.4,0.1-3.4-1.7-3.4h-0.8c-1.4,0-2.9,0.5-3.9,1.5c-0.1,0.1-0.2,0.2-0.3,0.2   c-1,0.8-2.2,1.2-3.7,1.2c-1.4,0-2.7-0.3-3.7-1c-1.3-0.8-2.2-2.1-2.5-3.9c-0.1-0.7,0.5-1.4,1.2-1.4l15.1,0c1.2,0,2.2-1,2.1-2.2   c0-1.1-0.1-2.1-0.2-2.8c-0.3-2-1-3.7-2-5.2c-1.2-1.7-2.6-2.9-4.4-3.7C51.5,26.6,49.5,26.2,47.3,26.2z M51.3,37h-8   c-1,0-1.7-1-1.3-1.9c0.3-0.8,0.7-1.5,1.3-2c0.9-1,2.3-1.4,4-1.4c1.6,0,2.9,0.5,4,1.4c0.7,0.6,1.1,1.3,1.4,2.2   C53,36.1,52.3,37,51.3,37z"/></g></svg>