<?xml version="1.0" ?><svg style="enable-background:new 0 0 64 64;" version="1.1" viewBox="0 0 64 64" xml:space="preserve" xmlns="http://www.w3.org/2000/svg" xmlns:xlink="http://www.w3.org/1999/xlink"><style type="text/css">
	.st0{fill:#0072FF;}
</style><g id="GUIDES_64"/><g id="Layer_3"/><g id="Layer_2"><path class="st0" d="M51.3,4H12.7C7.9,4,4,7.9,4,12.7v38.6c0,4.8,3.9,8.7,8.7,8.7h38.6c4.8,0,8.7-3.9,8.7-8.7V12.7   C60,7.9,56.1,4,51.3,4z M30,44.6c0,3-2.4,5.4-5.4,5.4h-5.2c-3,0-5.4-2.4-5.4-5.4V19.4c0-3,2.4-5.4,5.4-5.4h5.2c3,0,5.4,2.4,5.4,5.4   V44.6z M50,32.6c0,3-2.4,5.4-5.4,5.4h-5.2c-3,0-5.4-2.4-5.4-5.4V19.4c0-3,2.4-5.4,5.4-5.4h5.2c3,0,5.4,2.4,5.4,5.4V32.6z"/></g></svg>