<?xml version="1.0" ?><svg style="enable-background:new 0 0 64 64;" version="1.1" viewBox="0 0 64 64" xml:space="preserve" xmlns="http://www.w3.org/2000/svg" xmlns:xlink="http://www.w3.org/1999/xlink"><style type="text/css">
	.st0{fill:#0072FF;}
</style><g id="GUIDES_64"/><g id="Layer_3"/><g id="Layer_2"><path class="st0" d="M56,40v-1.6V26.1c0-1.2-0.9-2.1-2.1-2.1h-8.8c-1,0-1.9,0.8-1.9,1.9v10.7c0,1.9,1.5,3.4,3.4,3.4h3.5   c0.6,0,1.1,0.5,1.1,1.1v0.8c0,0.6-0.5,1.1-1.1,1.1h-4.5c-0.9,0-1.6,0.7-1.6,1.6v0.5c0,0.6,0.5,1.1,1.1,1.1h6.1h3.2h0   c0.9,0,1.6-0.7,1.6-1.6V40z M51.2,34.9c0,1-0.8,1.9-1.9,1.9h-0.3c-0.6,0-1.1-0.5-1.1-1.1v-6.7c0-1,0.8-1.9,1.9-1.9h0.3   c0.6,0,1.1,0.5,1.1,1.1V34.9z"/><path class="st0" d="M35.7,42.9h-4.1c-0.9,0-1.6,0.7-1.6,1.6v0.5c0,0.6,0.5,1.1,1.1,1.1h5.7H40c0.9,0,1.6-0.7,1.6-1.6V40v-1.6V26.1   c0-1.2-0.9-2.1-2.1-2.1h-8.8c-1,0-1.9,0.8-1.9,1.9v10.7c0,1.9,1.5,3.4,3.4,3.4h3.5c0.6,0,1.1,0.5,1.1,1.1v0.8   C36.8,42.5,36.3,42.9,35.7,42.9z M34.9,36.8h-0.3c-0.6,0-1.1-0.5-1.1-1.1v-6.7c0-1,0.8-1.9,1.9-1.9h0.3c0.6,0,1.1,0.5,1.1,1.1v6.7   C36.8,36,36,36.8,34.9,36.8z"/><path class="st0" d="M18.9,40c1,0,1.9-0.8,1.9-1.9V25.6V24v-5.3c0-0.6-0.5-1.1-1.1-1.1h-2.1c-0.9,0-1.6,0.7-1.6,1.6v3.7   c0,0.6-0.5,1.1-1.1,1.1H9.9c-1,0-1.9,0.8-1.9,1.9v11.3c0,1.6,1.3,2.9,2.9,2.9H18.9z M12.8,29.1c0-1,0.8-1.9,1.9-1.9h0.3   c0.6,0,1.1,0.5,1.1,1.1v6.7c0,1-0.8,1.9-1.9,1.9h-0.3c-0.6,0-1.1-0.5-1.1-1.1V29.1z"/><path class="st0" d="M22.4,38.9c0,0.6,0.5,1.1,1.1,1.1h2.1c0.9,0,1.6-0.7,1.6-1.6V25.1c0-0.6-0.5-1.1-1.1-1.1H24   c-0.9,0-1.6,0.7-1.6,1.6V38.9z"/><path class="st0" d="M25.6,20.8c0.9,0,1.6-0.7,1.6-1.6v-0.5c0-0.6-0.5-1.1-1.1-1.1H24c-0.9,0-1.6,0.7-1.6,1.6v0.5   c0,0.6,0.5,1.1,1.1,1.1H25.6z"/></g></svg>