<?xml version="1.0" ?><svg style="enable-background:new 0 0 64 64;" version="1.1" viewBox="0 0 64 64" xml:space="preserve" xmlns="http://www.w3.org/2000/svg" xmlns:xlink="http://www.w3.org/1999/xlink"><style type="text/css">
	.st0{fill:#0072FF;}
</style><g id="GUIDES_64"/><g id="Layer_3"/><g id="Layer_2"><path class="st0" d="M10.3,23.3l20.5,13.5c0.9,0.6,2,0.6,2.8,0L44,30.2c0.6-0.4,1.4,0,1.4,0.8v8.8c0,0.3-0.2,0.6-0.4,0.8l-11.6,7.7   c-0.8,0.6-1.9,0.6-2.8,0l-12.3-7.7c-0.9-0.6-2.1-0.5-2.9,0.1l-3.3,2.5c-1.4,1.1-1.3,3.2,0.1,4.2l18.3,12.1c0.9,0.6,2,0.6,2.9,0   l20.2-13.5c0.7-0.5,1.2-1.3,1.2-2.2V20.1c0-0.9-0.4-1.7-1.2-2.2L33.4,4.4c-0.9-0.6-2-0.6-2.9,0L10.3,17.9c-0.7,0.5-1.2,1.3-1.2,2.2   v1C9.2,22,9.6,22.8,10.3,23.3z M24.9,19.5l5.7-3.7c0.9-0.6,2-0.6,2.8,0l6.2,4.1c0.8,0.5,0.8,1.7,0,2.2L33.7,26   c-0.9,0.6-2,0.6-2.9,0l-6-4.2C24.1,21.2,24.1,20,24.9,19.5z"/></g></svg>