<?xml version="1.0" ?><svg enable-background="new 0 0 24 24" id="Layer_1" version="1.1" viewBox="0 0 24 24" xml:space="preserve" xmlns="http://www.w3.org/2000/svg" xmlns:xlink="http://www.w3.org/1999/xlink"><g><g id="XMLID_1399_"><path d="    M3.5,22.0000286c0-0.8284264,0.6715727-1.5,1.5-1.5L20.4999714,20.5L20.5,0.5000291L5,0.4999709    C4.1715736,0.4999677,3.5,1.1715389,3.5,1.9999652V22.0000286c0,0.8284283,0.6715727,1.5,1.5,1.5h15.4999714l-0.0000153-0.000021    c-0.6055431-0.9083328-0.6055374-2.0916786,0.0000134-3.0000057L20.4999714,20.5" fill="none" id="XMLID_1403_" stroke="#303C42" stroke-linecap="round" stroke-linejoin="round" stroke-miterlimit="10"/></g><polygon fill="none" points="   15,7.5000291 13,7.5000291 13,5.5000291 11,5.5000291 11,7.5000291 9,7.5000291 9,9.5000296 11,9.5000296 11,15.5000296    13,15.5000296 13,9.5000296 15,9.5000296  " stroke="#303C42" stroke-linecap="round" stroke-linejoin="round" stroke-miterlimit="10"/></g><g/><g/><g/><g/><g/><g/><g/><g/><g/><g/><g/><g/><g/><g/><g/></svg>