<?xml version="1.0" ?><svg enable-background="new 0 0 24 24" id="Layer_1" version="1.1" viewBox="0 0 24 24" xml:space="preserve" xmlns="http://www.w3.org/2000/svg" xmlns:xlink="http://www.w3.org/1999/xlink"><g><path d="   M5.8680277,13.155694C5.6296687,12.479476,5.5,11.7519932,5.5,10.9942255c0-3.5898514,2.9101496-10.5,6.5-10.5   s6.5,6.9101491,6.5,10.5c0,0.758441-0.1299,1.4865437-0.3686638,2.163271" fill="none" id="XMLID_17_" stroke="#303C42" stroke-linecap="round" stroke-linejoin="round" stroke-miterlimit="10"/><path d="M19.5,12.0057745   c0,4.1421366-3.3578644,7.500001-7.5,7.500001s-7.5-3.3578644-7.5-7.500001" fill="none" stroke="#303C42" stroke-linecap="round" stroke-linejoin="round" stroke-miterlimit="10"/><path d="   M18.4950199,11.0050306C19.1341553,11.2993727,19.5,11.641181,19.5,12.0057745c0,1.1045704-3.3578644,2-7.5,2s-7.5-0.8954296-7.5-2   c0-0.3645935,0.3658447-0.7064018,1.004981-1.0007439" fill="none" stroke="#303C42" stroke-linecap="round" stroke-linejoin="round" stroke-miterlimit="10"/><path d="   M7.4460502,17.9634037C9,19.0057755,9,21.5057755,6.5,22.5057755" fill="none" stroke="#303C42" stroke-linecap="round" stroke-linejoin="round" stroke-miterlimit="10"/><path d="M17.5,22.5057755   c0,0.5522842-2.4624338,1-5.5,1s-5.5-0.4477158-5.5-1" fill="none" stroke="#303C42" stroke-linecap="round" stroke-linejoin="round" stroke-miterlimit="10"/><path d="   M16.5539494,17.9634037C15,19.0057755,15,21.5057755,17.5,22.5057755" fill="none" stroke="#303C42" stroke-linecap="round" stroke-linejoin="round" stroke-miterlimit="10"/><g><path d="M5.5524292,10.1366816    c0.918396,0.2749634,1.260437,0.8575439,2.6938477,0.8575439c1.8735962,0,1.8735962-1,3.7471924-1    c1.8766479,0,1.8766479,1,3.7532959,1c1.4369507,0,1.7793579-0.5831909,2.7007446-0.8579712" fill="none" stroke="#303C42" stroke-linecap="round" stroke-miterlimit="10"/><path d="M17.8451538,7.3808827    C17.2906494,7.662621,16.829895,7.994225,15.7467651,7.994225c-1.8766479,0-1.8766479-1-3.7532959-1    c-1.8735962,0-1.8735962,1-3.7471924,1c-1.0794067,0-1.5396118-0.3305664-2.0918579-0.6119995" fill="none" stroke="#303C42" stroke-linecap="round" stroke-miterlimit="10"/></g></g><g/><g/><g/><g/><g/><g/><g/><g/><g/><g/><g/><g/><g/><g/><g/></svg>