<?xml version="1.0" ?><svg enable-background="new 0 0 24 24" id="Layer_1" version="1.1" viewBox="0 0 24 24" xml:space="preserve" xmlns="http://www.w3.org/2000/svg" xmlns:xlink="http://www.w3.org/1999/xlink"><g><polygon fill="none" points="11,19.5    13,19.5 12,20.5  " stroke="#303C42" stroke-linecap="round" stroke-linejoin="round" stroke-miterlimit="10"/><ellipse cx="10" cy="16.5" fill="none" rx="0.5" ry="1" stroke="#303C42" stroke-linecap="round" stroke-linejoin="round" stroke-miterlimit="10"/><ellipse cx="14" cy="16.5" fill="none" rx="0.5" ry="1" stroke="#303C42" stroke-linecap="round" stroke-linejoin="round" stroke-miterlimit="10"/><path d="   M15.5670776,12.5601196c2.0375977-2.8031616,2.9321289-7.0593262,2.9321289-7.0593262s-3.1870117,2.0828247-4.1916504,6.3747559   C14.7806396,12.045166,15.1904297,12.2862549,15.5670776,12.5601196z" fill="none" stroke="#303C42" stroke-linecap="round" stroke-linejoin="round" stroke-miterlimit="10"/><path d="   M16.6623535,13.6546631C20.1162109,9.78302,20.5,1.5,20.5,1.5s-6.4381104,2.7940063-7.3766479,10.0870361   C14.6977539,11.8223877,15.916748,12.5549316,16.6623535,13.6546631z" fill="none" stroke="#303C42" stroke-linecap="round" stroke-linejoin="round" stroke-miterlimit="10"/><path d="   M8.4329224,12.5601196C6.3953247,9.756958,5.5007935,5.5007935,5.5007935,5.5007935s3.1870117,2.0828247,4.1916504,6.3747559   C9.2193604,12.045166,8.8095703,12.2862549,8.4329224,12.5601196z" fill="none" stroke="#303C42" stroke-linecap="round" stroke-linejoin="round" stroke-miterlimit="10"/><path d="   M7.3376465,13.6546631C3.8837891,9.78302,3.5,1.5,3.5,1.5s6.4381104,2.7940063,7.3766479,10.0870361   C9.3022461,11.8223877,8.083252,12.5549316,7.3376465,13.6546631z" fill="none" stroke="#303C42" stroke-linecap="round" stroke-linejoin="round" stroke-miterlimit="10"/><path d="M6.5,16.5769234   C6.5,19.6144886,8.9624338,22.5,12,22.5s5.5-2.8855114,5.5-5.9230766S15.3846149,11.4999857,12,11.5S6.5,13.5393572,6.5,16.5769234   z" fill="none" stroke="#303C42" stroke-linecap="round" stroke-linejoin="round" stroke-miterlimit="10"/></g><g/><g/><g/><g/><g/><g/><g/><g/><g/><g/><g/><g/><g/><g/><g/></svg>