<?xml version="1.0" ?><svg enable-background="new 0 0 24 24" id="Layer_1" version="1.1" viewBox="0 0 24 24" xml:space="preserve" xmlns="http://www.w3.org/2000/svg" xmlns:xlink="http://www.w3.org/1999/xlink"><g><polyline fill="none" points="   18.0986328,6.0706177 16.7408447,5.5 14.3651123,6.5 11.9899902,5.5 9.6151733,6.5 7.242981,5.5 5.9039307,6.0652466  " stroke="#303C42" stroke-linecap="round" stroke-linejoin="round" stroke-miterlimit="10"/><polyline fill="none" points="   3.7508545,12.5268555 4.8740234,13 7.242981,12 9.6151733,13 11.9899902,12 14.3651123,13 16.7408447,12 19.1204224,13    20.2489624,12.5257568  " stroke="#303C42" stroke-linecap="round" stroke-linejoin="round" stroke-miterlimit="10"/><polyline fill="none" points="   4.7675781,19.4551392 4.8740234,19.5 7.242981,18.5 9.6151733,19.5 11.9899902,18.5 14.3651123,19.5 16.7408447,18.5    19.1204224,19.5 19.2342529,19.4521484  " stroke="#303C42" stroke-linecap="round" stroke-linejoin="round" stroke-miterlimit="10"/><polyline fill="none" points="   20.2489624,12.5257568 19.1204224,13 16.7408447,12 14.3651123,13 11.9899902,12 9.6151733,13 7.242981,12 4.8740234,13    3.7508545,12.5268555  " stroke="#303C42" stroke-linecap="round" stroke-linejoin="round" stroke-miterlimit="10"/><g><path d="M3.5,15.0042667    C3.5,10.0067759,7.3192191,0.5,12,0.5s8.5,9.5067759,8.5,14.5042667C20.5,19.696331,16.6944199,23.5,12,23.5    S3.5,19.696331,3.5,15.0042667z" fill="none" stroke="#303C42" stroke-linecap="round" stroke-linejoin="round" stroke-miterlimit="10"/></g><g><path d="M3.5,15.0042667    C3.5,10.0067759,7.3192191,0.5,12,0.5s8.5,9.5067759,8.5,14.5042667C20.5,19.696331,16.6944199,23.5,12,23.5    S3.5,19.696331,3.5,15.0042667z" fill="none" stroke="#303C42" stroke-linecap="round" stroke-linejoin="round" stroke-miterlimit="10"/></g></g><g/><g/><g/><g/><g/><g/><g/><g/><g/><g/><g/><g/><g/><g/><g/></svg>