<?xml version="1.0" ?><svg enable-background="new 0 0 24 24" id="Layer_1" version="1.1" viewBox="0 0 24 24" xml:space="preserve" xmlns="http://www.w3.org/2000/svg" xmlns:xlink="http://www.w3.org/1999/xlink"><g><ellipse cx="10" cy="6.75" fill="none" rx="0.5" ry="0.75" stroke="#303C42" stroke-linecap="round" stroke-linejoin="round" stroke-miterlimit="10"/><ellipse cx="14" cy="6.75" fill="none" rx="0.5" ry="0.75" stroke="#303C42" stroke-linecap="round" stroke-linejoin="round" stroke-miterlimit="10"/><polyline fill="none" points="11,9    12,10 13,9  " stroke="#303C42" stroke-linecap="round" stroke-linejoin="round" stroke-miterlimit="10"/><path d="M17.5,15.5l-4-4   l-5,4l-1.5-3l-3.4655762,1.7322388C3.5164795,14.4966431,3.5,14.7598267,3.5,15.0042725C3.5,19.6962891,7.305603,23.5,12,23.5   s8.5-3.8037109,8.5-8.4957275c0-0.6881714-0.0788574-1.4663696-0.2160034-2.2890015L17.5,15.5z" fill="none" stroke="#303C42" stroke-linecap="round" stroke-linejoin="round" stroke-miterlimit="10"/><path d="   M19.4962769,12.2469482C21.7590942,10.8711548,23.4992065,6.6055908,23.5,4.5   c-0.8952637,0.8952637-3.4547119,1.3927002-5.2897339,2.390625" fill="none" stroke="#303C42" stroke-linecap="round" stroke-linejoin="round" stroke-miterlimit="10"/><path d="M5.7897339,6.890625   C3.9547119,5.8927002,1.3952637,5.3952637,0.5,4.5c0.0007935,2.1055298,1.7407837,6.3709717,4.0036621,7.7468872" fill="none" stroke="#303C42" stroke-linecap="round" stroke-linejoin="round" stroke-miterlimit="10"/><path d="   M19.4259644,13.5735474C19.4992065,12.6967163,19.5,12,19.5,12C19.1878052,7.6949463,15.9868164,0.5,12,0.5   S4.8121948,7.6949463,4.5,12c0,0,0.0003662,0.7677612,0.0853271,1.7069702" fill="none" stroke="#303C42" stroke-linecap="round" stroke-linejoin="round" stroke-miterlimit="10"/></g><g/><g/><g/><g/><g/><g/><g/><g/><g/><g/><g/><g/><g/><g/><g/></svg>