<?xml version="1.0" ?><svg enable-background="new 0 0 24 24" id="Layer_1" version="1.1" viewBox="0 0 24 24" xml:space="preserve" xmlns="http://www.w3.org/2000/svg" xmlns:xlink="http://www.w3.org/1999/xlink"><path d="M22.5,12H22c0-3.7237549-2.1213379-7.1447754-5.4190674-8.8555908  c0.0239868-0.0808716,0.0492554-0.1627197,0.0723877-0.2357178c0.1821289-0.5786133,0.3706055-1.1762695,0.0649414-1.5932617  C16.6318359,1.1977539,16.4296875,1,16.0473633,1c-0.6702271,0-2.3200073,0.0032959-3.3244019,0.6939697  C12.5075684,1.5742188,12.2634888,1.5,12,1.5s-0.5075684,0.0742188-0.7229614,0.1939697  C10.272644,1.0032959,8.6228638,1,7.9526367,1C7.5703125,1,7.3681641,1.1977539,7.2817383,1.3154297  C6.9760742,1.7324219,7.1645508,2.3300781,7.3466797,2.9086914c0.0231323,0.072998,0.0484009,0.1548462,0.0723877,0.2357178  C4.1213379,4.8552246,2,8.2762451,2,12H1.5C1.2236328,12,1,12.2236328,1,12.5S1.2236328,13,1.5,13h1.0587769  c0.3572388,3.536438,2.5735474,6.6464233,5.8220825,8.1113281l-0.1796875,0.6025391  c-0.0913086,0.3056641-0.0341797,0.6279297,0.15625,0.8837891S8.840332,23,9.159668,23h5.6821289  c0.3193359,0,0.6118164-0.1464844,0.8022461-0.4023438s0.2475586-0.578125,0.15625-0.8842773l-0.1801758-0.6020508  C18.8681641,19.6468506,21.0840454,16.536499,21.4412231,13H22.5c0.2763672,0,0.5-0.2236328,0.5-0.5S22.7763672,12,22.5,12z M12.5,3  c0,0.2758789-0.2241211,0.5-0.5,0.5S11.5,3.2758789,11.5,3s0.2241211-0.5,0.5-0.5S12.5,2.7241211,12.5,3z M7.3947144,4.3010864  C7.3231812,4.8198853,7.2972412,5.3525391,7.597168,5.703125C7.7128906,5.8388672,7.9238281,6,8.2714844,6  c0.7325439,0,2.6784058-1.045105,3.4232788-1.5315552C11.793396,4.4888916,11.8953857,4.5,12,4.5  s0.206604-0.0111084,0.3052368-0.0315552C13.0501099,4.954895,14.9959717,6,15.7285156,6  c0.3476563,0,0.5585938-0.1611328,0.6743164-0.296875c0.2999268-0.3505859,0.2739868-0.8833008,0.2025146-1.4020386  C19.2947388,5.9144897,21,8.835144,21,12h-2.0698853c-0.2488403-1.9202271-1.4610596-3.9644775-2.8973999-3.9951172  c-0.206543-0.0043945-0.3432617,0.0864258-0.4360352,0.2373047c-0.0932617,0.1508789-0.0996094,0.3393555-0.0170898,0.4960938  C16.1234741,9.7683716,16.4299316,10.9136963,16.4797363,12h-0.9920654C15.3616943,9.6768188,13.8067627,7,12,7  s-3.3616943,2.6768188-3.4876709,5H7.5202637c0.0498047-1.0863037,0.3562622-2.2316284,0.9001465-3.2617188  C8.5029297,8.581543,8.496582,8.3930664,8.4033203,8.2421875C8.3100586,8.0908203,8.1708984,7.996582,7.9672852,8.0048828  C6.5309448,8.0355225,5.3187256,10.0797729,5.0698853,12H3C3,8.835144,4.7052612,5.9144897,7.3947144,4.3010864z" fill="#303C42"/><g/><g/><g/><g/><g/><g/><g/><g/><g/><g/><g/><g/><g/><g/><g/></svg>