<?xml version="1.0" ?><svg enable-background="new 0 0 24 24" id="Layer_1" version="1.1" viewBox="0 0 24 24" xml:space="preserve" xmlns="http://www.w3.org/2000/svg" xmlns:xlink="http://www.w3.org/1999/xlink"><path d="M15,0c-2.3432617,0-4.7128906,2.1690063-6.5948486,5.9852295L2.9262695,0.5063477  C2.6025391,0.1826172,2.1723633,0.0043945,1.7143555,0.0043945C0.769043,0.0043945,0,0.7734375,0,1.71875  c0,0.4580078,0.1782227,0.8881836,0.5019531,1.2119141l6.5092163,6.5092163C6.3724976,11.449707,6,13.4633179,6,15.0043945  C6,19.9643555,10.0375977,24,15,24s9-4.0356445,9-8.9956055C24,9.8681641,20.1992188,0,15,0z M11.5578003,10.1140747  C11.7706909,10.0464478,11.992981,10,12.2280273,10c1.1835938,0,2.0151367,0.7646484,2.2817383,2.0981445  c0.0236816,0.1185913,0.0968628,0.3623657,0.163269,0.5848999c-0.7869263,0.1900024-1.5896606,0.4557495-2.1276245,0.9282837  c-0.4801025,0.4215088-0.6887207,0.8405151-0.8573608,1.2202148C10.7458496,14.117981,10,13.062439,10,12.2226563  c0-0.2330322,0.0461426-0.4534302,0.1130981-0.6646118c0.0009766-0.0023804,0.0012817-0.0047607,0.0021973-0.0070801  c0.2188721-0.6824341,0.7543945-1.2169189,1.4382935-1.4356079C11.5549927,10.1148071,11.5563965,10.1146851,11.5578003,10.1140747z   M9.0856934,11.5100098C9.0332642,11.7400513,9,11.9770508,9,12.2226563c0,1.3964844,1.0473633,2.8735352,2.6679688,3.7641602  l0.0012817,0.0003052c0.5181274,0.284729,1.0632935,0.4910278,1.6212769,0.6134644  c1.6899414,0.3706055,2.8203125,0.4003906,3.1357422,0.4003906C16.4780273,17.0009766,16.5078125,17,16.5151367,17  c0.1704102-0.0053711,0.3261719-0.0966797,0.4135742-0.2431641c0.0878906-0.1459961,0.0947266-0.3266602,0.019043-0.4794922  c-0.0068359-0.0141602-0.7089844-1.4360352-1.2143555-3.34375c-0.0878906-0.331543-0.1713867-0.6738281-0.2431641-1.0317383  C15.1323242,10.1118164,13.8823242,9,12.2280273,9c-0.2472534,0-0.4857178,0.0337524-0.7171631,0.0865479L9.8967896,7.4724731  l0.0202026-0.0515747C11.4165039,4.125,13.4116211,1.9956055,15,1.9956055c3.4716797,0,7,8.3427734,7,13.0043945  c0,0.0142212-0.0020752,0.0279541-0.0021362,0.0421143c-0.7439575,0.3516235-1.3323364,0.8162231-1.8919067,1.2821045  c-1.0351563,0.8613281-2.0131836,1.675293-4.1201172,1.675293c-1.237793,0-2.652832-0.6557617-4.2915039-1.4145508  c-1.1199951-0.519165-2.355896-1.0881348-3.6904907-1.5092773C8.00354,15.0502319,8,15.0255127,8,15  c0-1.1029053,0.2269897-2.5084839,0.6174927-3.9581909L9.0856934,11.5100098z" fill="#303C42"/><g/><g/><g/><g/><g/><g/><g/><g/><g/><g/><g/><g/><g/><g/><g/></svg>