<?xml version="1.0" ?><svg enable-background="new 0 0 24 24" id="Layer_1" version="1.1" viewBox="0 0 24 24" xml:space="preserve" xmlns="http://www.w3.org/2000/svg" xmlns:xlink="http://www.w3.org/1999/xlink"><path d="M12,0C6.8007813,0,3,9.8681641,3,15.0043945C3,19.9643555,7.0375977,24,12,24s9-4.0356445,9-8.9956055  C21,9.8681641,17.1992188,0,12,0z M7.4649658,6.2493286l1.80896,0.7155151c0.1181641,0.046875,0.2495117,0.046875,0.3676758,0  l2.3476563-0.9272461l2.3476563,0.9272461C14.3959961,6.9882813,14.4580078,7,14.5205078,7s0.1245117-0.0117188,0.1835938-0.0351563  l1.8276978-0.7216187c0.9664307,1.8220825,1.7332764,3.9728394,2.1409912,5.9458618l-1.5985718-0.6519775  c-0.1210938-0.050293-0.2568359-0.0493164-0.3779297,0l-2.2592773,0.9228516l-2.2583008-0.9228516  c-0.1210938-0.0498047-0.2568359-0.0498047-0.3779297,0l-2.2583008,0.9228516l-2.2548828-0.9228516  c-0.1220703-0.0498047-0.2578125-0.0498047-0.3789063,0l-1.5806885,0.6477661  C5.7355347,10.21521,6.5007324,8.0687866,7.4649658,6.2493286z M12,22c-2.2977905,0-4.3342285-1.1171265-5.6112671-2.8310547  l0.3505249-0.1337891l2.4453125,0.9321289c0.1152344,0.0439453,0.2416992,0.0439453,0.355957,0l2.4482422-0.9321289  l2.4487276,0.9321289C14.4946289,19.9892578,14.5546875,20,14.6152344,20c0.0600586,0,0.1206055-0.0107422,0.1777344-0.0327148  l2.449707-0.9321289l0.3649902,0.1386108C16.3303833,20.8850098,14.2956543,22,12,22z" fill="#303C42"/><g/><g/><g/><g/><g/><g/><g/><g/><g/><g/><g/><g/><g/><g/><g/></svg>