<?xml version="1.0" ?><!DOCTYPE svg  PUBLIC '-//W3C//DTD SVG 1.1//EN'  'http://www.w3.org/Graphics/SVG/1.1/DTD/svg11.dtd'><svg height="100%" style="fill-rule:evenodd;clip-rule:evenodd;stroke-linejoin:round;stroke-miterlimit:1.41421;" version="1.1" viewBox="0 0 49 49" width="100%" xml:space="preserve" xmlns="http://www.w3.org/2000/svg" xmlns:serif="http://www.serif.com/" xmlns:xlink="http://www.w3.org/1999/xlink"><path d="M13.667,9.681c-1.656,0 -3,1.343 -3,3c0,1.657 1.344,3 3,3c3.257,0 8,0 8,0c0,0 0,14.562 0,21c0,1.657 1.344,3 3,3c1.657,0 3,-1.343 3,-3c0,-6.438 0,-21 0,-21c0,0 4.743,0 8,0c0.796,0 1.559,-0.316 2.122,-0.878c0.562,-0.563 0.878,-1.326 0.878,-2.122c0,-1.657 -1.343,-3 -3,-3c-5.382,0 -16.617,0 -22,0Z" style="fill:#00f674;fill-rule:nonzero;"/><rect height="48" style="fill:none;" width="48" x="0.667" y="0.681"/></svg>