<?xml version="1.0" ?><!DOCTYPE svg  PUBLIC '-//W3C//DTD SVG 1.1//EN'  'http://www.w3.org/Graphics/SVG/1.1/DTD/svg11.dtd'><svg height="100%" style="fill-rule:evenodd;clip-rule:evenodd;stroke-linejoin:round;stroke-miterlimit:1.41421;" version="1.1" viewBox="0 0 49 49" width="100%" xml:space="preserve" xmlns="http://www.w3.org/2000/svg" xmlns:serif="http://www.serif.com/" xmlns:xlink="http://www.w3.org/1999/xlink"><path d="M8.409,9.406c-1.657,0 -3,1.343 -3,3c0,0.796 0.316,1.559 0.879,2.121c0.562,0.563 1.326,0.879 2.121,0.879c2.946,0 7,0 7,0c0,0 0,14.562 0,21c0,1.657 1.343,3 3,3c1.657,0 3,-1.343 3,-3c0,-6.438 0,-21 0,-21c0,0 4.055,0 7,0c0.796,0 1.559,-0.316 2.121,-0.879c0.563,-0.562 0.879,-1.325 0.879,-2.121c0,-1.657 -1.343,-3 -3,-3c-5.004,0 -14.996,0 -20,0Zm35,13c0,-1.657 -1.343,-3 -3,-3c-3.329,0 -8.67,0 -12,0c-1.657,0 -3,1.343 -3,3c0,1.657 1.343,3 3,3c1.5,0 3,0 3,0c0,0 0,6.887 0,11c0,1.657 1.343,3 3,3c1.657,0 3,-1.343 3,-3c0,-4.113 0,-11 0,-11c0,0 1.5,0 3,0c1.657,0 3,-1.343 3,-3c0,0 0,0 0,0Z" style="fill:#00f674;fill-rule:nonzero;"/></svg>