<?xml version="1.0" ?><!DOCTYPE svg  PUBLIC '-//W3C//DTD SVG 1.1//EN'  'http://www.w3.org/Graphics/SVG/1.1/DTD/svg11.dtd'><svg height="100%" style="fill-rule:evenodd;clip-rule:evenodd;stroke-linejoin:round;stroke-miterlimit:1.41421;" version="1.1" viewBox="0 0 49 49" width="100%" xml:space="preserve" xmlns="http://www.w3.org/2000/svg" xmlns:serif="http://www.serif.com/" xmlns:xlink="http://www.w3.org/1999/xlink"><rect height="48" style="fill:none;" width="48" x="0.383" y="0.681"/><path d="M28.383,33.681l0,2c0,1.061 -0.422,2.079 -1.172,2.829c-0.75,0.75 -1.767,1.171 -2.828,1.171c0,0 0,0 0,0c-1.061,0 -2.079,-0.421 -2.829,-1.171c-0.75,-0.75 -1.171,-1.768 -1.171,-2.829l0,-2l8,0Zm-22,-6c0,1.105 0.895,2 2,2c6.301,0 25.698,0 32,0c1.104,0 2,-0.895 2,-2c0,-1.104 -0.896,-2 -2,-2c-6.302,0 -25.699,0 -32,0c-1.105,0 -2,0.896 -2,2c0,0 0,0 0,0Zm7,-18c-1.657,0 -3,1.343 -3,3c0,0.796 0.316,1.559 0.878,2.122c0.563,0.562 1.326,0.878 2.122,0.878c2.945,0 7,0 7,0l0,6l8,0l0,-6c0,0 4.054,0 7,0c0.795,0 1.558,-0.316 2.121,-0.878c0.563,-0.563 0.879,-1.326 0.879,-2.122c0,-1.657 -1.343,-3 -3,-3c-5.382,0 -16.618,0 -22,0Z" style="fill:#00f674;"/></svg>