<?xml version="1.0" ?><!DOCTYPE svg  PUBLIC '-//W3C//DTD SVG 1.1//EN'  'http://www.w3.org/Graphics/SVG/1.1/DTD/svg11.dtd'><svg height="100%" style="fill-rule:evenodd;clip-rule:evenodd;stroke-linejoin:round;stroke-miterlimit:1.41421;" version="1.1" viewBox="0 0 49 49" width="100%" xml:space="preserve" xmlns="http://www.w3.org/2000/svg" xmlns:serif="http://www.serif.com/" xmlns:xlink="http://www.w3.org/1999/xlink"><clipPath id="_clip1"><rect height="48" width="48" x="0.767" y="0.681"/></clipPath><g clip-path="url(#_clip1)"><rect height="48" style="fill:none;" width="48" x="0.767" y="0.681"/><path d="M0.767,44.681c0,-2.209 1.791,-4 4,-4c9.04,0 30.96,0 40,0c2.209,0 4,1.791 4,4c0,0 0,0 0,0c0,2.209 -1.791,4 -4,4c-9.04,0 -30.96,0 -40,0c-2.209,0 -4,-1.791 -4,-4c0,0 0,0 0,0Zm23.972,-38c-1.19,0 -2.258,0.729 -2.693,1.836c-1.879,4.781 -6.931,17.643 -9.177,23.36c-0.249,0.632 -0.168,1.346 0.214,1.907c0.383,0.561 1.018,0.897 1.697,0.897c0.021,0 0.041,0 0.062,0c0.857,0 1.624,-0.532 1.924,-1.335c0.66,-1.768 1.741,-4.665 1.741,-4.665l12.5,0c0,0 1.081,2.897 1.741,4.665c0.3,0.803 1.067,1.335 1.924,1.335c0.021,0 0.043,0 0.064,0c0.679,0 1.314,-0.335 1.696,-0.896c0.383,-0.561 0.464,-1.275 0.216,-1.907c-2.234,-5.696 -7.25,-18.488 -9.141,-23.31c-0.446,-1.138 -1.544,-1.887 -2.767,-1.887c0,0 0,0 -0.001,0Zm4.788,18l-4.76,-12.66l-4.76,12.66l9.52,0Z" style="fill:#00f674;"/></g></svg>