<?xml version="1.0" ?><svg height="64" viewBox="0 0 64 64" width="64" xmlns="http://www.w3.org/2000/svg"><defs><style>.cls-1{fill:none;stroke:#000;stroke-linejoin:round;stroke-width:2px;}</style></defs><title/><g data-name="4-Online Payment" id="_4-Online_Payment"><path class="cls-1" d="M5,1H3A2,2,0,0,0,1,3V45a2,2,0,0,0,2,2H61a2,2,0,0,0,2-2V3a2,2,0,0,0-2-2H59"/><polygon class="cls-1" points="44 59 42 59 39 47 25 47 22 59 20 59 18 63 46 63 44 59"/><line class="cls-1" x1="14" x2="50" y1="63" y2="63"/><circle class="cls-1" cx="32" cy="40" r="3"/><line class="cls-1" x1="22" x2="39" y1="59" y2="59"/><path class="cls-1" d="M56,33V2a1,1,0,0,0-1-1H9A1,1,0,0,0,8,2V33"/><line class="cls-1" x1="8" x2="56" y1="9" y2="9"/><line class="cls-1" x1="11" x2="13" y1="5" y2="5"/><line class="cls-1" x1="15" x2="17" y1="5" y2="5"/><line class="cls-1" x1="51" x2="53" y1="5" y2="5"/><line class="cls-1" x1="20" x2="20" y1="1" y2="10"/><line class="cls-1" x1="48" x2="48" y1="1" y2="10"/><rect class="cls-1" height="20" rx="1" ry="1" width="32" x="16" y="13"/><line class="cls-1" x1="1" x2="13" y1="33" y2="33"/><line class="cls-1" x1="51" x2="63" y1="33" y2="33"/><rect class="cls-1" height="4" rx="1" ry="1" width="6" x="20" y="17"/><circle class="cls-1" cx="42" cy="19" r="2"/><line class="cls-1" x1="19" x2="33" y1="25" y2="25"/><line class="cls-1" x1="19" x2="45" y1="29" y2="29"/><line class="cls-1" x1="35" x2="37" y1="25" y2="25"/><line class="cls-1" x1="39" x2="41" y1="25" y2="25"/><line class="cls-1" x1="43" x2="45" y1="25" y2="25"/></g></svg>