<?xml version="1.0" ?><svg height="64" viewBox="0 0 64 64" width="64" xmlns="http://www.w3.org/2000/svg"><defs><style>.cls-1{fill:none;stroke:#000;stroke-linejoin:round;stroke-width:2px;}</style></defs><title/><g data-name="2-Mobile Shopping" id="_2-Mobile_Shopping"><path class="cls-1" d="M9,23H5a4,4,0,0,0-4,4V59a4,4,0,0,0,4,4H32"/><path class="cls-1" d="M57,63h2a4,4,0,0,0,4-4V27a4,4,0,0,0-4-4H39"/><line class="cls-1" x1="9" x2="9" y1="63" y2="42"/><line class="cls-1" x1="55" x2="55" y1="33" y2="23"/><line class="cls-1" x1="5" x2="5" y1="39" y2="37"/><line class="cls-1" x1="5" x2="5" y1="41" y2="49"/><path class="cls-1" d="M39,33V9H9V38a1,1,0,0,0,1,1H26"/><path class="cls-1" d="M33,15V4a2,2,0,0,0-2-2H17a2,2,0,0,0-2,2V15"/><line class="cls-1" x1="9" x2="39" y1="15" y2="15"/><path class="cls-1" d="M23,30h4a1.959,1.959,0,0,1,2,2V53l2,2H57a1.959,1.959,0,0,0,2-2V36H29"/><path class="cls-1" d="M31,55v3a.979.979,0,0,0,1,1H59"/><circle class="cls-1" cx="37" cy="61" r="2"/><circle class="cls-1" cx="53" cy="61" r="2"/><line class="cls-1" x1="44" x2="44" y1="36" y2="55"/><line class="cls-1" x1="49" x2="49" y1="36" y2="55"/><line class="cls-1" x1="54" x2="54" y1="36" y2="55"/><line class="cls-1" x1="39" x2="39" y1="36" y2="55"/><line class="cls-1" x1="34" x2="34" y1="36" y2="55"/><line class="cls-1" x1="29" x2="59" y1="41" y2="41"/><line class="cls-1" x1="29" x2="59" y1="46" y2="46"/><line class="cls-1" x1="29" x2="59" y1="51" y2="51"/><polyline class="cls-1" points="17 19 13 19 13 23"/><rect class="cls-1" height="6" width="12" x="13" y="44"/><line class="cls-1" x1="12" x2="24" y1="54" y2="54"/><line class="cls-1" x1="12" x2="14" y1="58" y2="58"/><line class="cls-1" x1="16" x2="18" y1="58" y2="58"/></g></svg>