<?xml version="1.0" ?><svg height="64" viewBox="0 0 64 64" width="64" xmlns="http://www.w3.org/2000/svg"><defs><style>.cls-1{fill:none;stroke:#000;stroke-linejoin:round;stroke-width:2px;}</style></defs><title/><g data-name="21-Online Shopping" id="_21-Online_Shopping"><path class="cls-1" d="M56,63h5a2,2,0,0,0,2-2V3a2,2,0,0,0-2-2H3A2,2,0,0,0,1,3V61a2,2,0,0,0,2,2H30"/><line class="cls-1" x1="1" x2="63" y1="9" y2="9"/><line class="cls-1" x1="4" x2="6" y1="5" y2="5"/><line class="cls-1" x1="8" x2="10" y1="5" y2="5"/><line class="cls-1" x1="58" x2="60" y1="5" y2="5"/><path class="cls-1" d="M21,30h4a1.959,1.959,0,0,1,2,2V53l2,2H55a1.959,1.959,0,0,0,2-2V36H27"/><path class="cls-1" d="M29,55v3a.979.979,0,0,0,1,1H57"/><circle class="cls-1" cx="35" cy="61" r="2"/><circle class="cls-1" cx="51" cy="61" r="2"/><line class="cls-1" x1="42" x2="42" y1="36" y2="55"/><line class="cls-1" x1="47" x2="47" y1="36" y2="55"/><line class="cls-1" x1="52" x2="52" y1="36" y2="55"/><line class="cls-1" x1="37" x2="37" y1="36" y2="55"/><line class="cls-1" x1="32" x2="32" y1="36" y2="55"/><line class="cls-1" x1="27" x2="57" y1="41" y2="41"/><line class="cls-1" x1="27" x2="57" y1="46" y2="46"/><line class="cls-1" x1="27" x2="57" y1="51" y2="51"/><rect class="cls-1" height="4" width="50" x="7" y="21"/><polyline class="cls-1" points="7 25 7 29 11 29 11 25"/><polyline class="cls-1" points="53 25 53 29 57 29 57 25"/><line class="cls-1" x1="4" x2="60" y1="21" y2="21"/><polyline class="cls-1" points="24 46 7 46 7 42 24 42"/><polyline class="cls-1" points="7 46 7 50 11 50 11 46"/><line class="cls-1" x1="4" x2="7" y1="42" y2="42"/><rect class="cls-1" height="5" width="8" x="11" y="16"/><polyline class="cls-1" points="19 16 19 13 25 13 25 21"/><rect class="cls-1" height="5" width="8" x="9" y="37"/><polyline class="cls-1" points="17 37 17 34 23 34 23 42"/><rect class="cls-1" height="4" width="10" x="29" y="17"/><rect class="cls-1" height="4" width="10" x="43" y="17"/><polyline class="cls-1" points="37 16 37 13 43 13 43 17"/><path class="cls-1" d="M26,58c-2.5,0-2.5-2-5-2s-2.5,2-5,2-2.5-2-5-2"/><line class="cls-1" x1="7" x2="9" y1="56" y2="56"/></g></svg>