<?xml version="1.0" ?><svg height="64" viewBox="0 0 64 64" width="64" xmlns="http://www.w3.org/2000/svg"><defs><style>.cls-1{fill:none;stroke:#000;stroke-linejoin:round;stroke-width:2px;}</style></defs><title/><g data-name="6-Cloud Data Service" id="_6-Cloud_Data_Service"><path class="cls-1" d="M25,63H3a2,2,0,0,1-2-2V3A2,2,0,0,1,3,1H61a2,2,0,0,1,2,2V61a2,2,0,0,1-2,2H35"/><line class="cls-1" x1="1" x2="63" y1="9" y2="9"/><line class="cls-1" x1="4" x2="6" y1="5" y2="5"/><line class="cls-1" x1="8" x2="10" y1="5" y2="5"/><line class="cls-1" x1="58" x2="60" y1="5" y2="5"/><path class="cls-1" d="M47,42a7,7,0,1,0-3.035-13.3c.011-.234.035-.464.035-.7a14,14,0,0,0-28,0c0,.027,0,.052,0,.079A7,7,0,0,0,17,42"/><polyline class="cls-1" points="9 13 5 13 5 17"/><polyline class="cls-1" points="59 17 59 13 55 13"/><path class="cls-1" d="M31,32h8a.979.979,0,0,1,1,1v3"/><polyline class="cls-1" points="26 59 30 63 34 59"/><polyline class="cls-1" points="38 45 34 41 30 45"/><path class="cls-1" d="M34,41v9a1.959,1.959,0,0,0,2,2h8V37a1,1,0,0,0-1-1H31V31a1,1,0,0,0-1-1H21a1,1,0,0,0-1,1V52h8a1.959,1.959,0,0,1,2,2v9"/><line class="cls-1" x1="25" x2="31" y1="36" y2="36"/><path class="cls-1" d="M22,25a6,6,0,0,1,6-6"/><polyline class="cls-1" points="55 59 59 59 59 55"/><polyline class="cls-1" points="5 55 5 59 9 59"/></g></svg>