<?xml version="1.0" ?><svg height="64" viewBox="0 0 64 64" width="64" xmlns="http://www.w3.org/2000/svg"><defs><style>.cls-1{fill:none;stroke:#000;stroke-linejoin:round;stroke-width:2px;}</style></defs><title/><g data-name="12-Online Payment" id="_12-Online_Payment"><rect class="cls-1" height="62" rx="2" ry="2" width="62" x="1" y="1"/><line class="cls-1" x1="1" x2="63" y1="9" y2="9"/><line class="cls-1" x1="4" x2="6" y1="5" y2="5"/><line class="cls-1" x1="8" x2="10" y1="5" y2="5"/><line class="cls-1" x1="58" x2="60" y1="5" y2="5"/><polyline class="cls-1" points="43 13 5 13 5 59 59 59 59 13 51 13"/><path class="cls-1" d="M35,34V19a2,2,0,0,0-2-2H11a2,2,0,0,0-2,2V41a2,2,0,0,0,2,2H21"/><rect class="cls-1" height="10" width="10" x="17" y="17"/><line class="cls-1" x1="17" x2="27" y1="23" y2="23"/><rect class="cls-1" height="21" rx="1" ry="1" width="34" x="21" y="34"/><line class="cls-1" x1="12" x2="14" y1="35" y2="35"/><line class="cls-1" x1="16" x2="18" y1="35" y2="35"/><line class="cls-1" x1="12" x2="18" y1="39" y2="39"/><circle class="cls-1" cx="49" cy="40" r="2"/><path class="cls-1" d="M26.938,38h4.125A1.937,1.937,0,0,1,33,39.937v.125A1.938,1.938,0,0,1,31.063,42H26.938A1.938,1.938,0,0,1,25,40.062v-.125A1.938,1.938,0,0,1,26.938,38Z"/><line class="cls-1" x1="24" x2="52" y1="47" y2="47"/><line class="cls-1" x1="24" x2="26" y1="51" y2="51"/><line class="cls-1" x1="28" x2="30" y1="51" y2="51"/><line class="cls-1" x1="32" x2="34" y1="51" y2="51"/><line class="cls-1" x1="36" x2="52" y1="51" y2="51"/><path class="cls-1" d="M43,24v2a2,2,0,0,0,2,2h4a2,2,0,0,0,2-2V24a2,2,0,0,0-2-2H45a2,2,0,0,1-2-2V18a2,2,0,0,1,2-2h4a2,2,0,0,1,2,2v2"/><line class="cls-1" x1="47" x2="47" y1="16" y2="13"/><line class="cls-1" x1="47" x2="47" y1="31" y2="28"/><polyline class="cls-1" points="9 51 9 55 13 55"/></g></svg>