<?xml version="1.0" ?><svg id="Layer_1" style="enable-background:new 0 0 100 100;" version="1.1" viewBox="0 0 100 100" xml:space="preserve" xmlns="http://www.w3.org/2000/svg" xmlns:xlink="http://www.w3.org/1999/xlink"><path d="M70.87,42.5c-0.292,0-0.571,0.005-0.84,0.014c-1.621-1.909-3.469-3.575-5.497-4.992c-0.027-0.053-0.037-0.111-0.067-0.163  L52.727,17.025c-0.561-0.971-1.605-1.573-2.727-1.573s-2.166,0.603-2.727,1.573l-9.781,16.942  c-8.193,3.009-14.63,9.515-17.542,17.713c-0.104-0.001-0.226,0-0.31-0.001c-4.465,0.066-8.65,1.863-11.788,5.059  C4.724,59.927,3,64.146,3,68.62c0,8.783,7.146,15.93,15.93,15.93H81.07c8.783,0,15.93-7.146,15.93-15.93  C97,54.218,85.278,42.5,70.87,42.5z M50,20.304l10.264,17.777h-3.689c-1.104,0-2,0.896-2,2V66.97h-9.148V40.081c0-1.104-0.896-2-2-2  h-3.689l0.918-1.591c0.002-0.005,0.006-0.009,0.008-0.014L50,20.304z M81.07,80.55H18.93C12.352,80.55,7,75.198,7,68.62  c0-3.419,1.316-6.644,3.708-9.079c2.394-2.439,5.587-3.811,8.962-3.861c0.49,0,1.011,0.007,1.498,0.059  c0.961,0.104,1.856-0.496,2.13-1.422c1.883-6.373,6.188-11.694,11.879-14.898c0.059,0.377,0.161,0.748,0.357,1.088  c0.561,0.971,1.605,1.574,2.727,1.574h3.165v25.74c0,1.736,1.412,3.148,3.148,3.148h10.852c1.736,0,3.148-1.412,3.148-3.148v-25.74  h3.165c0.583,0,1.142-0.17,1.627-0.464c1.547,1.216,2.953,2.62,4.195,4.192c0.417,0.529,1.068,0.808,1.747,0.753  c0.472-0.042,0.982-0.063,1.563-0.063C83.072,46.5,93,56.423,93,68.62C93,75.198,87.648,80.55,81.07,80.55z"/></svg>