<?xml version="1.0" ?><svg id="Layer_1" style="enable-background:new 0 0 100 100;" version="1.1" viewBox="0 0 100 100" xml:space="preserve" xmlns="http://www.w3.org/2000/svg" xmlns:xlink="http://www.w3.org/1999/xlink"><path d="M9.058,24C5.717,24,3,26.713,3,30.048s2.717,6.048,6.058,6.048s6.058-2.713,6.058-6.048S12.398,24,9.058,24z M9.058,32.096  C7.923,32.096,7,31.177,7,30.048S7.923,28,9.058,28s2.058,0.919,2.058,2.048S10.192,32.096,9.058,32.096z"/><path d="M95,28.048H21.976c-1.104,0-2,0.896-2,2s0.896,2,2,2H95c1.104,0,2-0.896,2-2S96.104,28.048,95,28.048z"/><path d="M9.058,43.952C5.717,43.952,3,46.665,3,50s2.717,6.048,6.058,6.048s6.058-2.713,6.058-6.048S12.398,43.952,9.058,43.952z   M9.058,52.048C7.923,52.048,7,51.129,7,50s0.923-2.048,2.058-2.048s2.058,0.919,2.058,2.048S10.192,52.048,9.058,52.048z"/><path d="M95,48H21.976c-1.104,0-2,0.896-2,2s0.896,2,2,2H95c1.104,0,2-0.896,2-2S96.104,48,95,48z"/><path d="M9.058,63.904C5.717,63.904,3,66.617,3,69.952S5.717,76,9.058,76s6.058-2.713,6.058-6.048S12.398,63.904,9.058,63.904z   M9.058,72C7.923,72,7,71.081,7,69.952s0.923-2.048,2.058-2.048s2.058,0.919,2.058,2.048S10.192,72,9.058,72z"/><path d="M58.488,71.952c1.104,0,2-0.896,2-2s-0.896-2-2-2H21.976c-1.104,0-2,0.896-2,2s0.896,2,2,2H58.488z"/></svg>