<?xml version="1.0" ?><svg id="Message_And_Communication_Icons" style="enable-background:new 0 0 50 50;" version="1.1" viewBox="0 0 50 50" xml:space="preserve" xmlns="http://www.w3.org/2000/svg" xmlns:xlink="http://www.w3.org/1999/xlink"><g><g><g><g><path d="M34.2,4.8L33.4,9l8.6,1.5c0.3,0,0.4,0.3,0.4,0.6l-5.5,31c0,0.3-0.3,0.4-0.6,0.4      c0,0-5.9-1-6.5-1.1s-0.4,0.2-0.4,0.3c0.1,0.3,0.2,0.7,0.1,1.1c-0.2,1.1-1.3,1.9-2.4,1.7l-0.4,2.2l12.4,2.2L46.6,7L34.2,4.8z" style="fill:#4DE0F9;"/></g></g><g><g><g><path d="M38.6,47.8l-23.3-4.1l7.3-41.6l23.3,4.1L38.6,47.8z M16.7,42.7l21,3.7l6.9-39.2l-21-3.7       L16.7,42.7z" style="fill:#0D5FC3;"/></g></g><g><g><path d="M38.6,47.8l-23.3-4.1l7.3-41.6l23.3,4.1L38.6,47.8z M16.7,42.7l21,3.7l6.9-39.2l-21-3.7       L16.7,42.7z" style="fill:#0D5FC3;"/></g></g></g><g><g><g><rect height="1.2" style="fill:#0D5FC3;" transform="matrix(0.9848 0.1737 -0.1737 0.9848 1.8627 -6.0019)" width="5.1" x="32.7" y="7"/></g></g><g><g><rect height="1.2" style="fill:#0D5FC3;" transform="matrix(0.9848 0.1737 -0.1737 0.9848 1.6458 -5.1926)" width="1.6" x="29.7" y="6.2"/></g></g></g><g><g><path d="M27.6,43.9c-0.1,0-0.2,0-0.3,0c-0.4-0.1-0.8-0.3-1-0.6c-0.2-0.3-0.3-0.7-0.3-1.1      c0.1-0.8,0.9-1.4,1.8-1.2c0.8,0.1,1.4,0.9,1.2,1.8c-0.1,0.4-0.3,0.8-0.6,1C28.2,43.8,27.9,43.9,27.6,43.9z M27.5,42      c-0.2,0-0.3,0.1-0.3,0.3c0,0.1,0,0.2,0.1,0.2c0.1,0.1,0.1,0.1,0.2,0.1c0.1,0,0.2,0,0.2-0.1c0.1-0.1,0.1-0.1,0.1-0.2      C27.9,42.3,27.8,42.1,27.5,42C27.6,42,27.6,42,27.5,42z" style="fill:#0D5FC3;"/></g></g><g><g><rect height="28.2" style="fill:#0D5FC3;" transform="matrix(0.9847 0.1742 -0.1742 0.9847 4.403 -3.387)" width="1.2" x="20.9" y="9.3"/></g></g></g><g><g><rect height="1.2" style="fill:#0D5FC3;" width="11.2" x="5.3" y="41.8"/></g></g><g><g><rect height="1.2" style="fill:#0D5FC3;" width="7" x="10" y="39.4"/></g></g><g><g><rect height="1.2" style="fill:#0D5FC3;" width="3.4" x="13.9" y="36.9"/></g></g><g><g><rect height="1.2" style="fill:#0D5FC3;" width="1.9" x="11.6" y="33.5"/></g></g></g></svg>