<?xml version="1.0" ?><svg viewBox="0 0 512 512" xmlns="http://www.w3.org/2000/svg"><title/><g data-name="1" id="_1"><path d="M441.13,142h-372a15,15,0,0,1-15-15V63a15,15,0,0,1,15-15h372a15,15,0,0,1,15,15v64A15,15,0,0,1,441.13,142Zm-357-30h342V78h-342Z"/><path d="M411,393.13H99.32a15,15,0,0,1-15-15V127a15,15,0,0,1,15-15H411a15,15,0,0,1,15,15V378.13A15,15,0,0,1,411,393.13Zm-296.63-30H396V142H114.32Z"/><path d="M245.57,452A44.44,44.44,0,1,1,290,407.57,44.49,44.49,0,0,1,245.57,452Zm0-58.87A14.44,14.44,0,1,0,260,407.57,14.46,14.46,0,0,0,245.57,393.13Z"/><path d="M426,393.13H84.22a15,15,0,0,1,0-30H426a15,15,0,1,1,0,30Z"/><path d="M143,330a15,15,0,0,1-15-15V273a15,15,0,0,1,30,0v42A15,15,0,0,1,143,330Z"/><path d="M184.78,330a15,15,0,0,1-15-15V230a15,15,0,0,1,30,0v85A15,15,0,0,1,184.78,330Z"/><path d="M226.57,330a15,15,0,0,1-15-15V173a15,15,0,0,1,30,0V315A15,15,0,0,1,226.57,330Z"/><path d="M365,220H283a15,15,0,0,1,0-30h82a15,15,0,0,1,0,30Z"/><path d="M365,267.57H283a15,15,0,0,1,0-30h82a15,15,0,0,1,0,30Z"/><path d="M365,315.13H283a15,15,0,0,1,0-30h82a15,15,0,0,1,0,30Z"/></g></svg>