<?xml version="1.0" ?><svg viewBox="0 0 512 512" xmlns="http://www.w3.org/2000/svg"><title/><g data-name="1" id="_1"><path d="M148.38,450H69.13a15,15,0,0,1-15-15V355.75a15,15,0,0,1,15-15h79.25a15,15,0,0,1,15,15V435A15,15,0,0,1,148.38,450ZM84.13,420h49.25V370.75H84.13Z"/><path d="M294.76,450H215.51a15,15,0,0,1-15-15V355.75a15,15,0,0,1,15-15h79.25a15,15,0,0,1,15,15V435A15,15,0,0,1,294.76,450Zm-64.25-30h49.25V370.75H230.51Z"/><path d="M294.76,158H215.51a15,15,0,0,1-15-15V63.75a15,15,0,0,1,15-15h79.25a15,15,0,0,1,15,15V143A15,15,0,0,1,294.76,158Zm-64.25-30h49.25V78.75H230.51Z"/><path d="M441.13,450H361.88a15,15,0,0,1-15-15V355.75a15,15,0,0,1,15-15h79.25a15,15,0,0,1,15,15V435A15,15,0,0,1,441.13,450Zm-64.25-30h49.25V370.75H376.88Z"/><path d="M401.51,370.75a15,15,0,0,1-15-15V264H123.76v91.75a15,15,0,0,1-30,0V249a15,15,0,0,1,15-15H401.51a15,15,0,0,1,15,15V355.75A15,15,0,0,1,401.51,370.75Z"/><path d="M255.13,370.75a15,15,0,0,1-15-15V143a15,15,0,0,1,30,0V355.75A15,15,0,0,1,255.13,370.75Z"/></g></svg>