<?xml version="1.0" ?><svg viewBox="0 0 512 512" xmlns="http://www.w3.org/2000/svg"><title/><g data-name="1" id="_1"><path d="M405.21,450H124.26a15,15,0,0,1-15-15V164.16a15,15,0,0,1,15-15h281a15,15,0,0,1,15,15V435A15,15,0,0,1,405.21,450ZM139.26,420h251V179.16H139.26Z"/><path d="M317,218.28a15,15,0,0,1-15-15v-89.7a35.58,35.58,0,1,0-71.15,0v89.7a15,15,0,1,1-30,0v-89.7a65.58,65.58,0,1,1,131.15,0v89.7A15,15,0,0,1,317,218.28Z"/><path d="M311.56,391.22a15,15,0,0,1-7-1.73l-39.84-20.95-39.85,20.95a15,15,0,0,1-21.77-15.81l7.61-44.37L178.5,297.89a15,15,0,0,1,8.31-25.59l44.55-6.47,19.93-40.37a15,15,0,0,1,26.9,0l19.92,40.37,44.55,6.47A15,15,0,0,1,351,297.89l-32.24,31.42,7.61,44.37a15,15,0,0,1-14.79,17.54ZM264.74,336.6a15,15,0,0,1,7,1.72l19.92,10.48-3.8-22.19a15,15,0,0,1,4.31-13.28l16.12-15.71L286,294.38a15,15,0,0,1-11.29-8.2l-10-20.19-10,20.19a15,15,0,0,1-11.29,8.2l-22.28,3.24,16.12,15.71a15,15,0,0,1,4.32,13.28l-3.81,22.19,19.93-10.48A15,15,0,0,1,264.74,336.6Z"/></g></svg>