<?xml version="1.0" ?><svg viewBox="0 0 512 512" xmlns="http://www.w3.org/2000/svg"><title/><g data-name="1" id="_1"><path d="M441.13,391h-372a15,15,0,0,1-15-15V141a15,15,0,0,1,15-15h372a15,15,0,0,1,15,15V376A15,15,0,0,1,441.13,391Zm-357-30h342V156h-342Z"/><path d="M351.27,344H159a15,15,0,0,1-15-15,27.9,27.9,0,0,0-27.87-27.86,15,15,0,0,1-15-15V230.87a15,15,0,0,1,15-15A27.9,27.9,0,0,0,144,188a15,15,0,0,1,15-15H351.27a15,15,0,0,1,15,15,27.9,27.9,0,0,0,27.86,27.87,15,15,0,0,1,15,15v55.27a15,15,0,0,1-15,15A27.89,27.89,0,0,0,366.27,329,15,15,0,0,1,351.27,344ZM172,314H338.24a58.1,58.1,0,0,1,40.89-40.89V243.9A58.11,58.11,0,0,1,338.24,203H172a58.11,58.11,0,0,1-40.9,40.9v29.21A58.09,58.09,0,0,1,172,314Z"/><path d="M255.13,344c-33.5,0-59.74-37.55-59.74-85.5S221.63,173,255.13,173s59.75,37.56,59.75,85.5S288.64,344,255.13,344Zm0-141c-14.07,0-29.74,22.79-29.74,55.5S241.06,314,255.13,314s29.75-22.79,29.75-55.5S269.21,203,255.13,203Z"/></g></svg>