<?xml version="1.0" ?><svg viewBox="0 0 512 512" xmlns="http://www.w3.org/2000/svg"><title/><g data-name="1" id="_1"><path d="M257.71,450c-110.81,0-201-90.15-201-201s90.15-201,201-201,201,90.16,201,201S368.53,450,257.71,450Zm0-371.94c-94.27,0-171,76.7-171,171s76.69,171,171,171,171-76.7,171-171S352,78.06,257.71,78.06Z"/><path d="M257.71,377.79a72,72,0,0,1-71.87-71.88,15,15,0,0,1,30,0A41.88,41.88,0,1,0,257.71,264a71.88,71.88,0,1,1,71.88-71.88,15,15,0,1,1-30,0A41.88,41.88,0,1,0,257.71,234a71.88,71.88,0,0,1,0,143.76Z"/><path d="M257.71,405.09a15,15,0,0,1-15-15V108a15,15,0,0,1,30,0V390.09A15,15,0,0,1,257.71,405.09Z"/></g></svg>