<?xml version="1.0" ?><svg viewBox="0 0 512 512" xmlns="http://www.w3.org/2000/svg"><title/><g data-name="1" id="_1"><path d="M303.67,450a15,15,0,0,1-7.21-1.84L258,427.1l-38.46,21.06a15,15,0,0,1-14.41,0L166.67,427.1,128.2,448.16A15,15,0,0,1,106,435V63a15,15,0,0,1,15-15H395a15,15,0,0,1,15,15V435a15,15,0,0,1-22.2,13.16L349.33,427.1l-38.46,21.06A15,15,0,0,1,303.67,450ZM258,395a15,15,0,0,1,7.2,1.84l38.47,21.06,38.46-21.06a15,15,0,0,1,14.41,0L380,409.69V78H136V409.69l23.46-12.85a15,15,0,0,1,14.41,0l38.46,21.06,38.47-21.06A15,15,0,0,1,258,395Z"/><path d="M258,306a56.62,56.62,0,0,1-56.55-56.55,15,15,0,0,1,30,0A26.55,26.55,0,1,0,258,222.87a56.55,56.55,0,1,1,56.55-56.55,15,15,0,0,1-30,0A26.55,26.55,0,1,0,258,192.87,56.55,56.55,0,1,1,258,306Z"/><path d="M258,325.92a15,15,0,0,1-15-15V104.82a15,15,0,0,1,30,0v206.1A15,15,0,0,1,258,325.92Z"/><path d="M334,370H182a15,15,0,0,1,0-30H334a15,15,0,0,1,0,30Z"/></g></svg>