<?xml version="1.0" ?><svg viewBox="0 0 512 512" xmlns="http://www.w3.org/2000/svg"><title/><g data-name="1" id="_1"><path d="M406.89,450a14.89,14.89,0,0,1-6.81-1.64l-45.21-23-33.55,22.19a15,15,0,0,1-16.55,0L272.18,426l-32.57,21.54a15,15,0,0,1-16.55,0l-33.58-22.19-45.25,23.05A15,15,0,0,1,122.42,435V63a15,15,0,0,1,21.81-13.36l45.21,23L223,50.49a15,15,0,0,1,16.55,0L272.12,72,304.7,50.49a15,15,0,0,1,16.54,0l33.59,22.19,45.25-23.05A15,15,0,0,1,421.88,63V435a15,15,0,0,1-15,15ZM190.46,393a15,15,0,0,1,8.27,2.48L231.33,417l32.58-21.54a15,15,0,0,1,16.54,0L313,417l32.58-21.54a15,15,0,0,1,15.08-.86l31.19,15.9v-323l-31.22,15.91a15,15,0,0,1-15.08-.85L313,81,280.4,102.52a15,15,0,0,1-16.55,0L231.27,81l-32.58,21.54a15,15,0,0,1-15.08.86l-31.19-15.9v323l31.23-15.91A15,15,0,0,1,190.46,393Z"/><path d="M351,165.49H193.27a15,15,0,1,1,0-30H351a15,15,0,0,1,0,30Z"/><path d="M351,224.88H193.27a15,15,0,1,1,0-30H351a15,15,0,1,1,0,30Z"/><path d="M351,349H280.65a15,15,0,0,1,0-30H351a15,15,0,0,1,0,30Z"/></g></svg>