<?xml version="1.0" ?><svg viewBox="0 0 512 512" xmlns="http://www.w3.org/2000/svg"><defs><style>.cls-1{fill:none;stroke:#000;stroke-linecap:round;stroke-linejoin:round;stroke-width:30px;}</style></defs><title/><g data-name="1" id="_1"><path class="cls-1" d="M131.58,119V390.22a45.33,45.33,0,0,0,45.33,45.34h163.9a45.34,45.34,0,0,0,45.33-45.34V119"/><path class="cls-1" d="M131.58,175h-2.72a56,56,0,0,1-56-56h0a56,56,0,0,1,56-56h260a56,56,0,0,1,56,56h0a56,56,0,0,1-56,56h-2.72"/><line class="cls-1" x1="402.79" x2="114.93" y1="119" y2="119"/><polyline class="cls-1" points="206.75 289.39 258.86 341.5 310.97 289.39"/><line class="cls-1" x1="258.86" x2="258.86" y1="334.43" y2="213.06"/></g></svg>