<?xml version="1.0" ?><svg id="Слой_1" style="enable-background:new 0 0 200 200;" version="1.1" viewBox="0 0 200 200" xml:space="preserve" xmlns="http://www.w3.org/2000/svg" xmlns:xlink="http://www.w3.org/1999/xlink"><style type="text/css">
	.st0{fill:url(#SVGID_1_);}
	.st1{fill:url(#SVGID_2_);}
	.st2{fill:url(#SVGID_3_);}
	.st3{fill:url(#SVGID_4_);}
	.st4{fill:url(#SVGID_5_);}
	.st5{fill:url(#SVGID_6_);}
	.st6{fill:url(#SVGID_7_);}
	.st7{fill:url(#SVGID_8_);}
	.st8{fill:url(#SVGID_9_);}
	.st9{fill:url(#SVGID_10_);}
	.st10{fill:url(#SVGID_11_);}
</style><linearGradient gradientUnits="userSpaceOnUse" id="SVGID_1_" x1="166.1645" x2="175.8798" y1="116.431" y2="116.431"><stop offset="0" style="stop-color:#F7931E"/><stop offset="1" style="stop-color:#AF1259"/></linearGradient><circle class="st0" cx="171" cy="116.4" r="4.9"/><linearGradient gradientUnits="userSpaceOnUse" id="SVGID_2_" x1="39.0693" x2="60.9591" y1="38.6261" y2="38.6261"><stop offset="0" style="stop-color:#F7931E"/><stop offset="1" style="stop-color:#AF1259"/></linearGradient><circle class="st1" cx="50" cy="38.6" r="10.9"/><linearGradient gradientUnits="userSpaceOnUse" id="SVGID_3_" x1="22.0984" x2="30.6491" y1="38.6261" y2="38.6261"><stop offset="0" style="stop-color:#F7931E"/><stop offset="1" style="stop-color:#AF1259"/></linearGradient><circle class="st2" cx="26.4" cy="38.6" r="4.3"/><linearGradient gradientUnits="userSpaceOnUse" id="SVGID_4_" x1="24.2826" x2="39.3318" y1="139.6506" y2="139.6506"><stop offset="0" style="stop-color:#F7931E"/><stop offset="1" style="stop-color:#AF1259"/></linearGradient><circle class="st3" cx="31.8" cy="139.7" r="7.5"/><g><linearGradient gradientUnits="userSpaceOnUse" id="SVGID_5_" x1="54.8823" x2="87.75" y1="95.0438" y2="95.0438"><stop offset="0" style="stop-color:#F7931E"/><stop offset="1" style="stop-color:#AF1259"/></linearGradient><path class="st4" d="M66.8,89.3c-1.2-0.9-2.7-1.4-4.3-1.4c-4.2,0-7.6,3.6-7.6,8.1c0,2.5,1.1,4.8,2.8,6.3   C59.2,97.5,62.3,93,66.8,89.3z"/><linearGradient gradientUnits="userSpaceOnUse" id="SVGID_6_" x1="109.0951" x2="143.0096" y1="63.0552" y2="63.0552"><stop offset="0" style="stop-color:#F7931E"/><stop offset="1" style="stop-color:#AF1259"/></linearGradient><ellipse class="st5" cx="133.3" cy="63.1" rx="5.7" ry="6.1"/><linearGradient gradientUnits="userSpaceOnUse" id="SVGID_7_" x1="26.3738" x2="172.5905" y1="100.6491" y2="100.6491"><stop offset="0" style="stop-color:#F7931E"/><stop offset="1" style="stop-color:#AF1259"/></linearGradient><path class="st6" d="M172.4,78.3c2.3-27.8-17-53.2-44.4-58.5c-22.7-4.4-44.5,5.6-56.4,23.4c-5.2,7.8-12.4,14.1-20.9,18   c-12.4,5.6-21.7,17.2-23.8,31.7c-2.1,14.1,3.2,27.5,13,36.4c4.2,3.8,6.1,9.6,4.7,15c-0.5,1.8-0.8,3.7-0.9,5.7   c-1,15,9.3,28.7,24,31.8c9.4,2,18.5-0.6,25.4-6c4.8-3.9,11.2-4.8,16.9-2.5c3.6,1.4,7.5,2.3,11.5,2.6c19,1.3,36.3-11.8,40.2-30.4   c1.6-7.7,0.9-15.3-1.8-22.1c-2.2-5.7-1.4-12.2,2.2-17.1C167.8,98.4,171.6,88.9,172.4,78.3z M143.3,106.1c0.2,1.1,0.2,2.2,0.2,3.4   c0,8.5-4.6,16.4-13,22.3c-8.2,5.7-19,8.9-30.5,8.9c-11.5,0-22.3-3.2-30.5-8.9c-8.4-5.9-13-13.8-13-22.3c0-1.1,0.1-2.3,0.2-3.4   c-3.2-2.1-5.3-5.8-5.3-10.1c0-6.5,5-11.9,11.1-11.9c2.8,0,5.3,1.1,7.2,2.9c7.9-5.5,18.2-8.6,29.2-8.8l6.3-21.9   c0.3-0.9,1.2-1.5,2-1.3l17.6,4.2c1.4-3.5,4.7-6,8.5-6c5.1,0,9.2,4.4,9.2,9.8s-4.1,9.8-9.2,9.8c-5.1,0-9.2-4.4-9.2-9.8   c0,0,0-0.1,0-0.1l-16-3.8l-5.5,19.2c10.4,0.4,20.2,3.5,27.7,8.7c1.9-1.8,4.5-2.9,7.2-2.9c6.1,0,11.1,5.3,11.1,11.9   C148.6,100.3,146.5,104,143.3,106.1z"/><linearGradient gradientUnits="userSpaceOnUse" id="SVGID_8_" x1="109.7352" x2="148.2642" y1="95.0442" y2="95.0442"><stop offset="0" style="stop-color:#F7931E"/><stop offset="1" style="stop-color:#AF1259"/></linearGradient><path class="st7" d="M137.5,87.8c-1.6,0-3.1,0.5-4.3,1.4c4.5,3.8,7.6,8.2,9.1,13c1.7-1.5,2.8-3.7,2.8-6.3   C145.1,91.5,141.7,87.8,137.5,87.8z"/></g><linearGradient gradientUnits="userSpaceOnUse" id="SVGID_9_" x1="66.8779" x2="120.5195" y1="102.8033" y2="102.8033"><stop offset="0" style="stop-color:#F7931E"/><stop offset="1" style="stop-color:#AF1259"/></linearGradient><ellipse class="st8" cx="84.7" cy="102.8" rx="6.6" ry="7.1"/><linearGradient gradientUnits="userSpaceOnUse" id="SVGID_10_" x1="71.4721" x2="131.0256" y1="125.2473" y2="125.2473"><stop offset="0" style="stop-color:#F7931E"/><stop offset="1" style="stop-color:#AF1259"/></linearGradient><path class="st9" d="M115.6,124.4c-4,3.5-8.9,5.1-15.6,5.1c-6.7,0-11.7-1.6-15.6-5.1c-0.8-0.7-0.9-1.9-0.3-2.8  c0.6-0.8,1.8-1,2.6-0.3c3.3,2.9,7.4,4.2,13.3,4.2c5.9,0,10-1.3,13.3-4.2c0.8-0.7,1.9-0.6,2.6,0.3  C116.5,122.5,116.4,123.8,115.6,124.4z"/><linearGradient gradientUnits="userSpaceOnUse" id="SVGID_11_" x1="71.0407" x2="134.7879" y1="102.8033" y2="102.8033"><stop offset="0" style="stop-color:#F7931E"/><stop offset="1" style="stop-color:#AF1259"/></linearGradient><ellipse class="st10" cx="113.9" cy="102.8" rx="6.6" ry="7.1"/></svg>