<?xml version="1.0" ?><svg id="Слой_1" style="enable-background:new 0 0 200 200;" version="1.1" viewBox="0 0 200 200" xml:space="preserve" xmlns="http://www.w3.org/2000/svg" xmlns:xlink="http://www.w3.org/1999/xlink"><style type="text/css">
	.st0{fill:url(#SVGID_1_);}
	.st1{fill:url(#SVGID_2_);}
	.st2{fill:url(#SVGID_3_);}
	.st3{fill:url(#SVGID_4_);}
	.st4{fill:url(#SVGID_5_);}
	.st5{fill:url(#SVGID_6_);}
</style><g><linearGradient gradientUnits="userSpaceOnUse" id="SVGID_1_" x1="95.0081" x2="156.0082" y1="101" y2="101"><stop offset="0" style="stop-color:#F7931E"/><stop offset="1" style="stop-color:#AF1259"/></linearGradient><circle class="st0" cx="126.9" cy="101" r="14.9"/><linearGradient gradientUnits="userSpaceOnUse" id="SVGID_2_" x1="21.5001" x2="180.4367" y1="102" y2="102"><stop offset="0" style="stop-color:#F7931E"/><stop offset="1" style="stop-color:#AF1259"/></linearGradient><path class="st1" d="M143.1,58.2c-2.5-0.4-4.3-2.5-4.2-4.9c0,0,0-0.1,0-0.1c0-15.6-12.6-28.2-28.2-28.2c-8.2,0-15.6,3.5-20.8,9.1   c-4.3,4.7-11,6-16.8,3.4c-5.3-2.4-11.3-3.6-17.6-3.1C37.6,35.6,23.1,50,21.6,67.9c-0.7,8.7,1.7,16.9,6.1,23.5   c3.6,5.4,4.5,12.2,1.9,18.2c-2.9,6.8-4.4,14.3-4,22.2c1.3,25.5,22.2,46.2,47.7,47.2c19.1,0.8,36-9.3,45-24.5   c3.4-5.8,9.6-9.3,16.3-9c1.8,0.1,3.7,0,5.6-0.1c21.8-1.8,39.1-19.8,40.1-41.7C181.4,80.7,164.9,61.5,143.1,58.2z M73.1,122.5   c-11.9,0-21.6-9.6-21.6-21.5c0-11.9,9.7-21.5,21.6-21.5c11.9,0,21.6,9.6,21.6,21.5C94.6,112.9,85,122.5,73.1,122.5z M126.9,122.5   c-11.9,0-21.6-9.6-21.6-21.5c0-11.9,9.7-21.5,21.6-21.5s21.6,9.6,21.6,21.5C148.5,112.9,138.8,122.5,126.9,122.5z"/></g><linearGradient gradientUnits="userSpaceOnUse" id="SVGID_3_" x1="125" x2="141.6667" y1="159.4108" y2="159.4108"><stop offset="0" style="stop-color:#F7931E"/><stop offset="1" style="stop-color:#AF1259"/></linearGradient><circle class="st2" cx="133.3" cy="159.4" r="8.3"/><linearGradient gradientUnits="userSpaceOnUse" id="SVGID_4_" x1="152.6667" x2="160.3333" y1="167.7441" y2="167.7441"><stop offset="0" style="stop-color:#F7931E"/><stop offset="1" style="stop-color:#AF1259"/></linearGradient><circle class="st3" cx="156.5" cy="167.7" r="3.8"/><linearGradient gradientUnits="userSpaceOnUse" id="SVGID_5_" x1="146.3333" x2="159.6667" y1="47.6667" y2="47.6667"><stop offset="0" style="stop-color:#F7931E"/><stop offset="1" style="stop-color:#AF1259"/></linearGradient><circle class="st4" cx="153" cy="47.7" r="6.7"/><linearGradient gradientUnits="userSpaceOnUse" id="SVGID_6_" x1="73" x2="81" y1="27.6667" y2="27.6667"><stop offset="0" style="stop-color:#F7931E"/><stop offset="1" style="stop-color:#AF1259"/></linearGradient><circle class="st5" cx="77" cy="27.7" r="4"/></svg>