<?xml version="1.0" ?><svg id="Слой_1" style="enable-background:new 0 0 200 200;" version="1.1" viewBox="0 0 200 200" xml:space="preserve" xmlns="http://www.w3.org/2000/svg" xmlns:xlink="http://www.w3.org/1999/xlink"><style type="text/css">
	.st0{fill:url(#SVGID_1_);}
	.st1{fill:url(#SVGID_2_);}
	.st2{fill:url(#SVGID_3_);}
	.st3{fill:url(#SVGID_4_);}
	.st4{fill:url(#SVGID_5_);}
	.st5{fill:url(#SVGID_6_);}
	.st6{fill:url(#SVGID_7_);}
	.st7{fill:url(#SVGID_8_);}
</style><linearGradient gradientUnits="userSpaceOnUse" id="SVGID_1_" x1="114.3333" x2="129.711" y1="43.6621" y2="43.6621"><stop offset="0" style="stop-color:#F7931E"/><stop offset="1" style="stop-color:#AF1259"/></linearGradient><circle class="st0" cx="122" cy="43.7" r="7.7"/><linearGradient gradientUnits="userSpaceOnUse" id="SVGID_2_" x1="137.9617" x2="146.3716" y1="33.0765" y2="33.0765"><stop offset="0" style="stop-color:#F7931E"/><stop offset="1" style="stop-color:#AF1259"/></linearGradient><circle class="st1" cx="142.2" cy="33.1" r="4.2"/><linearGradient gradientUnits="userSpaceOnUse" id="SVGID_3_" x1="156.5659" x2="173.2325" y1="156.6667" y2="156.6667"><stop offset="0" style="stop-color:#F7931E"/><stop offset="1" style="stop-color:#AF1259"/></linearGradient><circle class="st2" cx="164.9" cy="156.7" r="8.3"/><linearGradient gradientUnits="userSpaceOnUse" id="SVGID_4_" x1="31.8549" x2="40.8118" y1="150.8118" y2="150.8118"><stop offset="0" style="stop-color:#F7931E"/><stop offset="1" style="stop-color:#AF1259"/></linearGradient><circle class="st3" cx="36.3" cy="150.8" r="4.5"/><g><linearGradient gradientUnits="userSpaceOnUse" id="SVGID_5_" x1="48.2996" x2="128.7276" y1="112.1313" y2="112.1313"><stop offset="0" style="stop-color:#F7931E"/><stop offset="1" style="stop-color:#AF1259"/></linearGradient><path class="st4" d="M88.2,106.8c-0.7-0.6-1.6-1.1-2.7-1.4s-2.4-0.5-3.9-0.5l-13.3-0.1v14.6l12.2,0.1c0.8,0,2.8-0.1,4.5-0.5   c0.7-0.2,2.1-0.7,3.1-1.6c0.4-0.4,1.1-1.4,1.6-2.6c0.4-1.2,0.5-2.6,0.5-3.1c0-1-0.2-1.9-0.5-2.7S88.9,107.4,88.2,106.8z"/><linearGradient gradientUnits="userSpaceOnUse" id="SVGID_6_" x1="53.2996" x2="131.6752" y1="89.1778" y2="89.1778"><stop offset="0" style="stop-color:#F7931E"/><stop offset="1" style="stop-color:#AF1259"/></linearGradient><path class="st5" d="M83.6,95.4c0.7-0.2,2-0.6,2.8-1.4c0.4-0.3,1.1-1.3,1.4-2.4c0.4-1.1,0.5-2.3,0.5-2.8c0-0.9-0.2-1.7-0.5-2.4   c-0.3-0.8-0.8-1.4-1.4-1.9s-1.5-1-2.4-1.3c-1-0.3-2.2-0.5-3.5-0.5l-12.2-0.1v13.2l11.2,0.1C80.2,95.8,82.1,95.7,83.6,95.4z"/><linearGradient gradientUnits="userSpaceOnUse" id="SVGID_7_" x1="92" x2="155.0035" y1="100.4174" y2="100.4174"><stop offset="0" style="stop-color:#F7931E"/><stop offset="1" style="stop-color:#AF1259"/></linearGradient><path class="st6" d="M132.8,98.5c-0.8-0.8-1.7-1.4-2.7-1.8s-2.2-0.7-3.5-0.7c-1.2,0-2.3,0.2-3.3,0.7c-1,0.5-1.9,1.1-2.6,1.9   s-1.4,1.7-1.8,2.8s-0.7,2.2-0.8,3.4h17.3c-0.1-1.3-0.3-2.4-0.8-3.5C134.2,100.2,133.6,99.3,132.8,98.5z"/><linearGradient gradientUnits="userSpaceOnUse" id="SVGID_8_" x1="13.9255" x2="184.4769" y1="103.6041" y2="103.6041"><stop offset="0" style="stop-color:#F7931E"/><stop offset="1" style="stop-color:#AF1259"/></linearGradient><path class="st7" d="M184.4,97.7c-1.5-21.7-19.1-39.1-40.7-40.4c-3.6-0.2-7.1,0-10.4,0.6c-13.6,2.5-27.4-1.3-38.3-9.7   C86,41.2,74.7,37.2,62.4,37.6C35.9,38.5,14.4,60.4,13.9,87c-0.3,18.8,9.8,35.3,24.9,44.2c5.2,3.1,9.2,8,11.1,13.8   c4.8,14.4,18.4,24.7,34.4,24.7c5,0,9.7-1,14.1-2.8c6.7-2.8,14.4-2.7,20.9,0.6c3.2,1.6,6.8,2.5,10.7,2.1c8.6-0.7,15.9-7.2,17.6-15.7   c0-0.1,0-0.2,0.1-0.4c1.1-5.8,5-10.5,10.4-12.8C174.4,133.6,185.7,116.9,184.4,97.7z M115.2,76.4h23.4v5.9h-23.4V76.4z    M102.6,115.7c-1.6,13.8-17.7,13.9-17.7,13.9H56V73.4l27,0.3c0,0,14.8-0.8,16.9,11c2,11.8-7.5,14.6-7.5,14.6   S104.2,101.9,102.6,115.7z M146.6,112.2l-28.9-0.3c0,0.3,0,8.4,6.6,10.3c7.7,2.2,11.1-4.2,11.4-5h10.1c-0.3,1.2-4.4,17.7-26.6,12.3   c-13.7-3.3-13-19.5-13-20.9c0-1.3,0.1-8.1,5.6-14.3s13.3-6.3,14.9-6.3s9.7,0,14.7,5.5C147.9,100.7,146.6,112.2,146.6,112.2z"/></g></svg>