<?xml version="1.0" ?><svg id="Слой_1" style="enable-background:new 0 0 200 200;" version="1.1" viewBox="0 0 200 200" xml:space="preserve" xmlns="http://www.w3.org/2000/svg" xmlns:xlink="http://www.w3.org/1999/xlink"><style type="text/css">
	.st0{fill:url(#SVGID_1_);}
	.st1{fill:url(#SVGID_2_);}
	.st2{fill:url(#SVGID_3_);}
	.st3{fill:url(#SVGID_4_);}
	.st4{fill:url(#SVGID_5_);}
</style><g><linearGradient gradientUnits="userSpaceOnUse" id="SVGID_1_" x1="16.8121" x2="177.3597" y1="97.9678" y2="97.9678"><stop offset="0" style="stop-color:#F7931E"/><stop offset="1" style="stop-color:#AF1259"/></linearGradient><path class="st0" d="M167.5,95.4c-0.4-0.6-0.9-1.2-1.3-1.8c-5.1-6.7-6.1-15.5-2.7-23.2c5.8-13.1,4.4-28.9-5.5-41   c-12.3-15-34.1-18.8-50.7-8.8c-6.9,4.2-12,10-15.2,16.7c-2.5,5.2-7.7,8.5-13.4,8.5c-3.1,0-6.2,0.9-8.9,2.8   c-3.4,2.4-5.6,5.9-6.3,9.7c-0.8,4.3-4.6,7.4-8.9,7.1c-8.4-0.5-17.1,2-24.4,7.8c-13.9,11.1-17.5,31.2-8.2,46.4   c7.3,12,20.4,18,33.2,17c7.7-0.6,14.8,4.1,17.8,11.2c1.9,4.4,4.3,8.6,7.4,12.5c17.2,21.8,48.7,27.1,72.1,12   C178.5,155.5,185.1,120.5,167.5,95.4z M140.9,85c-4.5,26.3-29.7,48.6-37.3,53.7c-7.6,5.1-14.5-2-17-7.4   c-2.9-6.2-11.5-39.5-13.7-42.3c-2.3-2.8-9,2.8-9,2.8l-3.3-4.5c0,0,13.7-17,24.2-19.1C95.9,66,95.9,85.9,98.5,96.9   c2.6,10.7,4.3,16.8,6.6,16.8c2.3,0,6.6-6,11.3-15.1c4.7-9.1-0.2-17.2-9.4-11.5C110.6,64.2,145.4,58.7,140.9,85z"/><linearGradient gradientUnits="userSpaceOnUse" id="SVGID_2_" x1="47.75" x2="57.25" y1="55.25" y2="55.25"><stop offset="0" style="stop-color:#F7931E"/><stop offset="1" style="stop-color:#AF1259"/></linearGradient><circle class="st1" cx="52.5" cy="55.3" r="4.8"/><linearGradient gradientUnits="userSpaceOnUse" id="SVGID_3_" x1="47.3584" x2="65.3916" y1="152.8545" y2="152.8545"><stop offset="0" style="stop-color:#F7931E"/><stop offset="1" style="stop-color:#AF1259"/></linearGradient><circle class="st2" cx="56.4" cy="152.9" r="9"/><linearGradient gradientUnits="userSpaceOnUse" id="SVGID_4_" x1="60.6667" x2="69.25" y1="171.5" y2="171.5"><stop offset="0" style="stop-color:#F7931E"/><stop offset="1" style="stop-color:#AF1259"/></linearGradient><circle class="st3" cx="65" cy="171.5" r="4.3"/><linearGradient gradientUnits="userSpaceOnUse" id="SVGID_5_" x1="32.625" x2="50.125" y1="36.6667" y2="36.6667"><stop offset="0" style="stop-color:#F7931E"/><stop offset="1" style="stop-color:#AF1259"/></linearGradient><circle class="st4" cx="41.4" cy="36.7" r="8.8"/></g></svg>