<?xml version="1.0" ?><svg id="Слой_1" style="enable-background:new 0 0 200 200;" version="1.1" viewBox="0 0 200 200" xml:space="preserve" xmlns="http://www.w3.org/2000/svg" xmlns:xlink="http://www.w3.org/1999/xlink"><style type="text/css">
	.st0{fill:url(#SVGID_1_);}
	.st1{fill:url(#SVGID_2_);}
	.st2{fill:url(#SVGID_3_);}
	.st3{fill:url(#SVGID_4_);}
	.st4{fill:url(#SVGID_5_);}
</style><g><linearGradient gradientUnits="userSpaceOnUse" id="SVGID_1_" x1="22.3112" x2="33.4448" y1="94.9009" y2="94.9009"><stop offset="0" style="stop-color:#F7931E"/><stop offset="1" style="stop-color:#AF1259"/></linearGradient><circle class="st0" cx="27.9" cy="94.9" r="5.6"/><linearGradient gradientUnits="userSpaceOnUse" id="SVGID_2_" x1="169.6439" x2="176.2147" y1="58.3315" y2="58.3315"><stop offset="0" style="stop-color:#F7931E"/><stop offset="1" style="stop-color:#AF1259"/></linearGradient><circle class="st1" cx="172.9" cy="58.3" r="3.3"/><linearGradient gradientUnits="userSpaceOnUse" id="SVGID_3_" x1="162.3425" x2="179.6057" y1="75.5049" y2="75.5049"><stop offset="0" style="stop-color:#F7931E"/><stop offset="1" style="stop-color:#AF1259"/></linearGradient><circle class="st2" cx="171" cy="75.5" r="8.6"/><g><linearGradient gradientUnits="userSpaceOnUse" id="SVGID_4_" x1="76.8519" x2="123.1479" y1="101.1573" y2="101.1573"><stop offset="0" style="stop-color:#F7931E"/><stop offset="1" style="stop-color:#AF1259"/></linearGradient><path class="st3" d="M95,93.9c-11.1-2.7-5-12.4,4-12.3c8.7,0.1,13.1,9.5,17.1,9c4-0.5,7.3-6.5,1.1-11.9    c-5.4-4.7-12.2-7.3-22.6-6.3c-8.2,0.8-16,6.1-16.9,16.6c-0.9,10.5,11.2,15.8,20.9,17.3c6.8,1,16,4.3,10.4,10.8    c-5.1,5.9-14.7,2.3-17.2,0.6c-2.5-1.6-5.4-7.4-10.1-7.1c-4.7,0.3-7.1,6.7-1.3,12.3c5.2,5,10.9,7.7,23.1,7.1    c12.2-0.6,23.1-11.6,18.8-21.9C117.9,97.7,106.1,96.6,95,93.9z"/><linearGradient gradientUnits="userSpaceOnUse" id="SVGID_5_" x1="20.3943" x2="177.7178" y1="102.2402" y2="102.2402"><stop offset="0" style="stop-color:#F7931E"/><stop offset="1" style="stop-color:#AF1259"/></linearGradient><path class="st4" d="M159.8,83.2L159.8,83.2c-4.5-4.3-6.1-10.7-4.2-16.5c3.7-11.7,0.9-25-8.6-34.1c-8.8-8.5-20.6-11.4-31.6-8.3    c-10.1,2.8-20.7,3.2-30.9,0.6c-13.7-3.6-29.3,0.7-40.3,11.2c-13.4,12.8-15.6,38.7-6,53c3.4,5.1,2.1,11.8-2.7,15.5    c-10,7.6-16.1,20-14.8,33.8c1.7,18.5,16.4,32.8,34.9,34.1c3,0.2,6,0.1,8.8-0.4c8.4-1.4,16.9-0.4,24.6,3.1    c19.5,8.9,53.6,10,71.7-8.2C183.8,143.7,183.3,106,159.8,83.2z M118.8,141.7c-4.4,0-8.6-1.3-12.1-3.5c-2.3,0.4-4.6,0.6-7,0.6    c-21.1,0-38.3-17.3-38.3-38.6c0-2.1,0.2-4.1,0.5-6.1c-2.3-3.6-3.7-8-3.7-12.6c0-12.8,10.2-23.2,22.8-23.2c4.6,0,8.9,1.4,12.5,3.8    c2-0.3,4.1-0.5,6.2-0.5c21.1,0,38.3,17.3,38.3,38.6c0,1.8-0.1,3.5-0.4,5.2c2.5,3.7,4,8.2,4,13.1    C141.7,131.3,131.4,141.7,118.8,141.7z"/></g></g></svg>