<?xml version="1.0" ?><!DOCTYPE svg  PUBLIC '-//W3C//DTD SVG 1.1 Tiny//EN'  'http://www.w3.org/Graphics/SVG/1.1/DTD/svg11-tiny.dtd'><svg baseProfile="tiny" height="110px" id="Layer_1" version="1.1" viewBox="0 0 110 110" width="110px" xml:space="preserve" xmlns="http://www.w3.org/2000/svg" xmlns:xlink="http://www.w3.org/1999/xlink"><g><polygon fill="#229B48" fill-rule="evenodd" points="0,110.611 0,110.611 110,110.611 110,110.611 110,0.611 110,0.611 0,0.611    0,0.611  "/><g><path d="M80.057,39.479c-3.772-5.117-9.381-5.827-11.413-5.913    c-4.985-0.499-9.721,2.948-12.247,2.951c-2.524,0.003-6.433-2.85-10.563-2.766c-5.434,0.086-10.436,3.17-13.229,8.036    c-5.627,9.802-1.409,24.3,4.1,32.237c2.692,3.88,5.901,8.247,10.111,8.083c4.054-0.164,5.582-2.626,10.479-2.633    s6.28,2.61,10.565,2.523c4.361-0.083,7.119-3.968,9.782-7.87c0.852-1.247,1.563-2.483,2.15-3.624    c-6.534-2.106-11.262-8.236-11.262-15.471C68.532,47.701,73.386,41.504,80.057,39.479z" fill="#FFFFFF" fill-rule="evenodd"/><path d="M65.411,28.328c2.236-2.707,3.739-6.468,3.328-10.217    c-3.218,0.132-7.115,2.145-9.427,4.849c-2.069,2.396-3.883,6.224-3.393,9.898C59.507,33.135,63.174,31.031,65.411,28.328z" fill="#FFFFFF" fill-rule="evenodd"/></g></g></svg>