<?xml version="1.0" ?><!DOCTYPE svg  PUBLIC '-//W3C//DTD SVG 1.1 Tiny//EN'  'http://www.w3.org/Graphics/SVG/1.1/DTD/svg11-tiny.dtd'><svg baseProfile="tiny" height="110px" id="Layer_1" version="1.1" viewBox="0 0 110 110" width="110px" xml:space="preserve" xmlns="http://www.w3.org/2000/svg" xmlns:xlink="http://www.w3.org/1999/xlink"><g><polygon fill="#EC2224" fill-rule="evenodd" points="0,110.611 0,110.611 110,110.611 110,110.611 110,0.609 110,0.609 0,0.609    0,0.609  "/><g><path d="M58.559,28.095c15.71,0,28.445,12.735,28.445,28.445c0,1.282-0.086,2.545-0.251,3.782    h-15.59h-4.422H45.954c0.463,6.559,5.929,11.735,12.605,11.735c4.634,0,8.686-2.495,10.884-6.216h16.003    c-3.854,11.142-14.436,19.144-26.888,19.144c-14.289,0-26.116-10.536-28.138-24.263c0.307-0.265,0.629-0.562,0.969-0.896    c5.892-5.821,15.422-21.111,15.422-21.111s-9.594,5.138-15.707,10.361C34.384,36.987,45.432,28.095,58.559,28.095L58.559,28.095z     M58.559,40.779c-6.676,0-12.142,5.177-12.605,11.734h25.209C70.701,45.956,65.235,40.779,58.559,40.779z" fill="#00B0CE" fill-rule="evenodd"/><g><path d="M41.815,43.363c15.763-15.763,34.024-23.058,40.788-16.294     c3.17,3.17,3.25,8.865,0.82,15.645c-0.34-0.61-0.703-1.208-1.086-1.79c2.216-5.363,2.475-9.658,0.275-11.858     c-5.027-5.026-20.986,2.782-35.646,17.442c-14.66,14.661-22.47,30.62-17.442,35.647c2.513,2.513,7.758,1.817,14.208-1.339     c1.002,0.614,2.045,1.167,3.124,1.654c-9.215,4.751-17.309,5.704-21.333,1.681C18.757,77.388,26.052,59.127,41.815,43.363     L41.815,43.363z M61.457,71.724c0.032-0.008,0.064-0.016,0.096-0.023C61.521,71.708,61.489,71.716,61.457,71.724L61.457,71.724z      M61.552,71.7c0.035-0.009,0.071-0.017,0.106-0.025c0.033-0.009,0.067-0.018,0.1-0.026c-0.033,0.009-0.067,0.018-0.1,0.026     L61.552,71.7L61.552,71.7z M61.853,71.624c0.034-0.01,0.068-0.019,0.102-0.028C61.92,71.605,61.886,71.614,61.853,71.624     L61.853,71.624z M62.047,71.569c0.042-0.012,0.083-0.024,0.125-0.036C62.131,71.545,62.089,71.558,62.047,71.569L62.047,71.569z      M62.243,71.512c0.04-0.013,0.08-0.024,0.119-0.037C62.323,71.487,62.283,71.499,62.243,71.512L62.243,71.512z M62.441,71.449     c0.038-0.012,0.075-0.024,0.112-0.036C62.516,71.425,62.479,71.438,62.441,71.449z" fill="#F3B521" fill-rule="evenodd"/></g><path d="M41.815,43.363c15.763-15.763,34.024-23.058,40.788-16.294    c0.942,0.942,1.612,2.108,2.023,3.46l-0.76,0.76c-0.246-0.881-0.66-1.629-1.255-2.224c-5.027-5.026-20.986,2.782-35.646,17.442    c-14.66,14.661-22.47,30.62-17.442,35.647c0.595,0.595,1.343,1.009,2.223,1.255l-2.765,2.765    c-1.351-0.412-2.517-1.081-3.459-2.023C18.757,77.388,26.052,59.127,41.815,43.363z" fill="#F5C34F" fill-rule="evenodd"/></g></g></svg>