<?xml version="1.0" ?><!DOCTYPE svg  PUBLIC '-//W3C//DTD SVG 1.1 Tiny//EN'  'http://www.w3.org/Graphics/SVG/1.1/DTD/svg11-tiny.dtd'><svg baseProfile="tiny" height="110px" id="Layer_1" version="1.1" viewBox="0 0 110 110" width="110px" xml:space="preserve" xmlns="http://www.w3.org/2000/svg" xmlns:xlink="http://www.w3.org/1999/xlink"><g><polygon fill="#ED2132" fill-rule="evenodd" points="0,110.612 0,110.612 110,110.612 110,110.612 110,0.608 110,0.608 0,0.608    0,0.608  "/><g><g><path d="M69.565,37.103c-1.736,1.171-3.531,2.217-5.234,3.448     c-2.351,1.698-6.396,4.87-4.071,8.106c1.27,1.768,3.081,4.268,2.867,6.561c-0.239,2.555-2.896,4.494-4.854,5.794     c-0.248,0.165-0.567,0.137-0.783-0.069c-0.215-0.205-0.258-0.523-0.104-0.779c0.708-1.179,1.369-2.127,1.278-3.565     c-0.001-0.016-0.001-0.028-0.001-0.044c0.005-0.884-1.685-2.896-2.206-3.658c-1.352-1.979-2.196-4.032-1.738-6.472     c0.004-0.021,0.009-0.037,0.014-0.058c1.71-5.985,8.862-8.874,14.313-10.392c0.3-0.084,0.61,0.06,0.74,0.343     C69.916,36.6,69.823,36.929,69.565,37.103L69.565,37.103z M53.485,42.946c3.094-2.729,6.073-5.2,8.391-8.675     c1.405-2.254,2.294-4.875,1.854-7.53c-0.192-1.163-0.801-2.807-1.714-3.615c-0.192-0.17-0.452-0.208-0.685-0.099     c-0.231,0.108-0.369,0.332-0.361,0.589c0.093,3.09,0.042,6.357-1.997,8.886c-4.591,5.353-17.215,9.932-11.397,18.848     c1.435,2.2,4.558,5.54,6.669,7.101c0.237,0.176,0.554,0.165,0.779-0.024c0.227-0.19,0.29-0.501,0.157-0.764     c-1.374-2.736-3.843-5.746-4.177-8.839C50.747,46.452,51.836,44.564,53.485,42.946z" fill="#F3B521" fill-rule="evenodd"/><path d="M52.531,88.206c-3.153-0.078-10.439,0.021-12.788-2.093     c-0.213-0.191-0.27-0.489-0.144-0.746c0.127-0.257,0.399-0.393,0.681-0.34c0.228,0.042,0.455,0.086,0.668,0.126     c8.929,1.469,29.852,1.014,37.347-4.035c0.193-0.13,0.425-0.145,0.633-0.04c0.209,0.104,0.335,0.298,0.347,0.531     c0.219,4.386-10.473,5.582-13.415,5.924c-2.82,0.327-5.672,0.524-8.509,0.63C55.831,88.22,54.048,88.312,52.531,88.206     L52.531,88.206z M36.476,80.313c0.228-1.248,3.923-1.565,4.859-1.686c0.284-0.036,0.501-0.249,0.543-0.532     c0.042-0.282-0.104-0.549-0.365-0.666c-2.422-1.085-9.462,0.724-10.628,3.161c-0.136,0.285-0.195,0.599-0.144,0.914     c0.268,1.612,3.306,2.203,4.597,2.449c2.78,0.529,5.764,0.739,8.589,0.885c2.727,0.141,5.462,0.201,8.192,0.212     c1.482,0.005,3.015,0.02,4.496-0.047c1.129-0.051,2.301-0.173,3.425-0.284c2.165-0.215,4.333-0.48,6.481-0.827     c2.06-0.331,9.656-1.457,9.972-4.147c0.097-0.824-0.452-1.497-1.052-1.987c-0.192-0.157-0.442-0.188-0.667-0.081     c-0.226,0.106-0.36,0.32-0.36,0.568c0,0.132,0,0.265,0,0.396c-0.159,1.2-4.826,2.1-5.704,2.255     c-4.268,0.758-8.883,1.008-13.214,1.1c-4.242,0.091-8.614,0.023-12.84-0.378C41.804,81.536,37.113,81.025,36.476,80.313     L36.476,80.313z M46.801,73.642c1.356,1.237,5.94,1.175,7.476,1.109c2.159-0.092,5.112-0.363,7.181-1.008     c0.178-0.055,0.352-0.034,0.511,0.062l3.118,1.866c0.21,0.126,0.323,0.346,0.304,0.59s-0.166,0.443-0.394,0.534     c-5.104,2.042-10.43,2.396-15.854,1.79c-1.494-0.166-3.167-0.578-4.436-1.415c-0.842-0.554-1.713-1.473-1.531-2.569     c0.225-1.354,1.824-1.849,2.99-1.999c0.209-0.027,0.4,0.042,0.543,0.196c0.143,0.155,0.197,0.352,0.153,0.558     C46.842,73.451,46.821,73.546,46.801,73.642L46.801,73.642z M45.224,66.689c0.187-0.208,0.214-0.501,0.071-0.74     c-0.143-0.24-0.413-0.354-0.685-0.291c-1.514,0.357-2.534,0.727-3.437,2.102c-0.016,0.025-0.028,0.047-0.041,0.074     c-0.539,1.126,0.855,2.081,1.683,2.564c4.963,2.895,18.169,1.145,23.565-0.523c0.231-0.071,0.393-0.253,0.434-0.492     c0.042-0.238-0.046-0.464-0.239-0.61c-0.822-0.623-1.771-1.038-2.585-1.656c-0.166-0.125-0.364-0.161-0.563-0.101     c-5.021,1.526-10.638,1.423-15.816,0.932c-0.445-0.043-2.612-0.263-2.75-0.653C44.831,67.164,45.149,66.773,45.224,66.689     L45.224,66.689z M69.724,58.542c2.077-0.88,3.918-1.305,6.133-0.535c2.199,0.766,3.491,2.375,3.391,4.753     c-0.215,5.014-5.87,7.181-9.974,8.245c-0.298,0.078-0.602-0.066-0.729-0.347c-0.129-0.28-0.04-0.604,0.213-0.779     c1.942-1.346,6.037-3.808,6.517-6.273c0.317-1.632,0.054-2.558-1.381-3.457c-1.056-0.662-2.704-0.446-3.898-0.398     c-0.307,0.012-0.572-0.192-0.639-0.491C69.288,58.959,69.441,58.661,69.724,58.542L69.724,58.542z M41.893,61.469     c0.883-0.742,4.871-1.665,5.755-1.87c0.181-0.041,0.319-0.146,0.409-0.308c0.065-0.118,0.091-0.243,0.076-0.37     c0.026-0.153,0.034-0.273-0.023-0.44c-0.082-0.241-0.287-0.401-0.541-0.423c-1.441-0.124-4.254,0.448-5.676,0.779     c-1.436,0.335-5.632,1.32-5.746,3.203c-0.032,0.522,0.247,0.969,0.621,1.307c2.003,2.115,11.835,1.75,14.595,1.647     c2.892-0.108,5.796-0.306,8.674-0.605c1.56-0.162,3.849-0.361,5.336-0.823c1.189-0.369,2.148-1.095,3.16-1.79     c0.241-0.166,0.335-0.466,0.232-0.74c-0.104-0.274-0.371-0.438-0.662-0.403c-4.409,0.516-8.779,1.034-13.212,1.352     c-2.928,0.21-5.989,0.38-8.922,0.237C45.327,62.188,42.707,62.021,41.893,61.469z" fill="#0A82A9" fill-rule="evenodd"/></g></g></g></svg>