<?xml version="1.0" ?><!DOCTYPE svg  PUBLIC '-//W3C//DTD SVG 1.1 Tiny//EN'  'http://www.w3.org/Graphics/SVG/1.1/DTD/svg11-tiny.dtd'><svg baseProfile="tiny" height="110px" id="Layer_1" version="1.1" viewBox="0 0 110 110" width="110px" xml:space="preserve" xmlns="http://www.w3.org/2000/svg" xmlns:xlink="http://www.w3.org/1999/xlink"><g><polygon fill="#A4CD39" fill-rule="evenodd" points="0.003,110.61 0.003,110.61 109.997,110.61 109.997,110.61 109.997,0.61    109.997,0.61 0.003,0.61 0.003,0.61  "/><g><path d="M32.731,82.577h47.055c1.387,0,2.519,1.132,2.519,2.519    c0,1.388-1.132,2.519-2.519,2.519H30.213c-1.387,0-2.518-1.131-2.518-2.519V73.261c0-1.387,1.131-2.518,2.518-2.518    c1.388,0,2.519,1.131,2.519,2.518V82.577L32.731,82.577z M68.147,27.576c-3.911-1.892-8.397-3.485-11.938-3.485    c-9.514,0-15.967,6.221-15.967,15.967c0,8.233,6.584,12.106,13.846,13.454c2.68,0.496,5.445,0.684,8.169,0.684    c4.163,0,7.789,2.503,7.789,6.896c0,1.864-1.247,3.578-2.636,4.71c-2.299,1.873-5.359,2.633-8.279,2.633    c-4.375,0-9.988-1.844-14.153-4.093v-7.742h-6.752v8.713v2.839v7.816h6.752v-4.123c4.542,1.979,9.737,3.342,14.153,3.342    c4.496,0,9.022-1.281,12.543-4.15c3-2.444,5.124-5.998,5.124-9.944c0-8.12-6.597-13.647-14.541-13.647    c-4.038,0-11.3-0.54-14.092-3.871c-0.854-1.02-1.171-2.198-1.171-3.515c0-5.975,3.404-9.215,9.215-9.215    c3.238,0,8.494,2.417,11.938,4.367v7.765h6.751v-8.71v-2.838v-7.82h-6.751V27.576z" fill="#3D3D3F" fill-rule="evenodd"/></g></g></svg>