<?xml version="1.0" ?><!DOCTYPE svg  PUBLIC '-//W3C//DTD SVG 1.1 Tiny//EN'  'http://www.w3.org/Graphics/SVG/1.1/DTD/svg11-tiny.dtd'><svg baseProfile="tiny" height="110px" id="Layer_1" version="1.1" viewBox="0 0 110 110" width="110px" xml:space="preserve" xmlns="http://www.w3.org/2000/svg" xmlns:xlink="http://www.w3.org/1999/xlink"><g><polygon fill="#346368" fill-rule="evenodd" points="0,110.611 0,110.611 110,110.611 110,110.611 110,0.609 110,0.609 0,0.609    0,0.609  "/><g><path d="M23.025,35.674c2.813-1.664,5.896-3.525,9.929-1.313    c2.681,1.471,4.35,4.998,2.932,9.195c-1.663,4.924-7.699,8.705-10.911,15.33c-3.345,6.898-2.258,15.229,1.831,20.563    c4.635,6.043,10.525,8.068,18.544,8.164c-0.054-0.043-0.137-0.164-0.172-0.115l-1.604-0.641c-1.68-0.609-2.951-1.393-4.264-2.486    c-1.555-1.295-2.864-2.791-3.994-5.025c-2.356-4.66-2.551-10.156-0.297-14.934c4.054-8.598,14.292-10.158,19.151-17.127    c10.66-15.283-6.764-29.883-22.176-20.953C28.877,28.139,24.124,32.111,23.025,35.674L23.025,35.674z M56.85,50.813    c0.936-0.643,11.448-4.738,12.716-7.178c0.46-0.885-0.247-5.67,2.892-8.813c1.539,0.816,2.619,4.012,3.089,6.352    c7.149,1.588,11.641,8.807,11.099,16.486c-10.368,3.83-12.491-4.121-25.547-6.344L56.85,50.813L56.85,50.813z M37.998,66.234    c0.435-1.908,2.132-3.91,3.198-4.871c7.083-6.383,17.898-2.686,21.948,2.447c6.916,8.766,3.06,16.689,3.058,18.248    c4.197,0.201,7.386,1.428,8.593,4.543c-1.746,0.791-20.177,1.102-23.279,0.971l1.429-0.723c7.861-3.41,10.358-12.281,6.13-19.176    c-3.103-5.059-10.688-7.541-16.52-4.74C39.541,64.381,39.182,65.436,37.998,66.234L37.998,66.234z M46.719,70.896    c2.433-0.756,4.608,0.945,5.135,2.764c0.762,2.629-0.89,4.66-2.783,5.211C43.915,80.373,41.137,72.631,46.719,70.896    L46.719,70.896z M45.864,65.732c5.812-1.311,10.293,2.719,11.176,7.27c1.096,5.652-2.738,10.064-7.139,11.006    c-5.705,1.223-10.31-2.689-11.254-7.193C37.43,71.008,41.345,66.752,45.864,65.732L45.864,65.732z M48.029,55.156    c0.208-0.27,0.038-0.115,0.336-0.338l0.262-0.164c0.126-0.068,0.428-0.166,0.599-0.225c0.476-0.164,0.813-0.271,1.26-0.383    c2.896-0.725,6.247-0.572,9.109-0.037c4.033,0.756,6.617,1.744,9.808,3.543c3.176,1.789,4.856,3.258,9.212,4.121    c4.219,0.836,7.798,0.359,8.39,4.775c-7.026-1.398-5.538,0.203-11.006,1.633c-1.545,0.404-4.817,0.645-5.915-0.342    C69.421,67.146,63.913,54.09,48.029,55.156z" fill="#FFFFFF" fill-rule="evenodd"/></g></g></svg>