<?xml version="1.0" ?><!DOCTYPE svg  PUBLIC '-//W3C//DTD SVG 1.1 Tiny//EN'  'http://www.w3.org/Graphics/SVG/1.1/DTD/svg11-tiny.dtd'><svg baseProfile="tiny" height="110px" id="Layer_1" version="1.1" viewBox="0 0 110 110" width="110px" xml:space="preserve" xmlns="http://www.w3.org/2000/svg" xmlns:xlink="http://www.w3.org/1999/xlink"><g><polygon fill="#DD1F26" fill-rule="evenodd" points="0,110.61 0,110.61 110,110.61 110,110.61 110,0.61 110,0.61 0,0.61 0,0.61     "/><g><g><path d="M25.713,31.828h33.262c-10.061,18.479-8.89,27-8.89,27H60.98     c-0.18,0.93-3.209,12.198-0.368,20.769H25.726L25.713,31.828z" fill="#3299BA" fill-rule="evenodd"/><path d="M84.287,79.597H59.959c-2.875-7.635,0.154-19.839,0.333-20.769H49.396     c0,0-0.321-10.371,8.891-27h26V79.597z" fill="#79BBD2" fill-rule="evenodd"/><path d="M61.811,87.614c-2.785-5.421-4.139-11.366-4.377-16.917     c-8.557,0.358-17.392-1.196-23.029-4.566l1.539-2.182c5.516,2.784,12.035,4.38,21.463,4.026c0.063-2.74,0.4-5.339,0.97-7.677     l-10.373-0.001c0.348-15.853,8.511-29.159,14.855-36.691l2.042,1.701c-5.264,6.466-12.787,17.662-14.072,32.264l10.934-0.001     c-0.888,3.248-1.576,6.595-1.609,10.192c6.131-0.753,9.381-1.542,13.93-3.838l1.539,2.183c-3.955,2.365-9.564,3.818-15.469,4.361     c0.158,5.257,1.362,10.526,4.11,15.964L61.811,87.614L61.811,87.614z M68.078,45.965v-7.068h-3.025v7.068H68.078L68.078,45.965z      M43.027,45.969v-7.069h-3.025v7.069H43.027z" fill="#3D3D3F" fill-rule="evenodd"/></g></g></g></svg>