<?xml version="1.0" ?><!DOCTYPE svg  PUBLIC '-//W3C//DTD SVG 1.1 Tiny//EN'  'http://www.w3.org/Graphics/SVG/1.1/DTD/svg11-tiny.dtd'><svg baseProfile="tiny" height="110px" id="Layer_1" version="1.1" viewBox="0 0 110 110" width="110px" xml:space="preserve" xmlns="http://www.w3.org/2000/svg" xmlns:xlink="http://www.w3.org/1999/xlink"><g><polygon fill="#E63793" fill-rule="evenodd" points="0.001,110.611 0.001,110.611 110.001,110.611 110.001,110.611 110.001,0.609    110.001,0.609 0.001,0.609 0.001,0.609  "/><g><path d="M87.005,55.612c0-17.676-14.33-32.006-32.006-32.006    c-17.666,0-31.99,14.318-32.002,31.983v24.767c0.008,4.011,3.262,7.258,7.275,7.258h24.74    C72.683,87.607,87.005,73.283,87.005,55.612z" fill="#0A82A9" fill-rule="evenodd"/><path d="M56.382,61.202v7.979c0,8.221-6.713,14.934-14.934,14.934    s-14.936-6.713-14.936-14.934c0-8.222,6.715-14.936,14.936-14.936h7.928v-7.978c0-8.222,6.713-14.935,14.936-14.935    c8.221,0,14.934,6.714,14.934,14.935s-6.713,14.935-14.934,14.935H56.382L56.382,61.202z M56.382,54.195h7.93    c4.359,0,7.928-3.567,7.928-7.928l0,0c0-4.36-3.568-7.928-7.928-7.928l0,0c-4.361,0-7.93,3.567-7.93,7.928V54.195L56.382,54.195z     M49.376,61.252h-7.928c-4.361,0-7.928,3.567-7.928,7.928v0.001c0,4.359,3.566,7.927,7.928,7.927l0,0    c4.359,0,7.928-3.567,7.928-7.927V61.252z" fill="#59ABC6" fill-rule="evenodd"/><g><path d="M49.376,61.202V46.214c0-8.295,6.725-15.02,15.02-15.02     c1.26,0,2.154,0.142,3.318,0.445c1.699,0.445,3.088,1.838,3.088,3.458c0,1.958-1.422,3.382-3.545,3.382     c-1.012,0-1.379-0.193-2.861-0.193c-4.373,0-7.92,3.542-7.928,7.916v6.889c0,0.617,0.502,1.117,1.119,1.117l5.209,0.001     c1.941,0,3.51,1.548,3.51,3.493c0,1.959-1.584,3.5-3.547,3.5H49.376z M49.376,61.202L49.376,61.202L49.376,61.202z" fill="#FFFFFF" fill-rule="evenodd"/></g><g><path d="M56.468,54.175v14.989c0,8.294-6.725,15.021-15.02,15.021     c-1.26,0-2.154-0.143-3.318-0.447c-1.699-0.444-3.088-1.838-3.088-3.457c0-1.958,1.422-3.383,3.547-3.383     c1.01,0,1.377,0.194,2.859,0.194c4.373,0,7.92-3.542,7.928-7.915v-6.89c0-0.617-0.502-1.118-1.119-1.118h-5.209     c-1.941,0-3.508-1.549-3.508-3.494c-0.002-1.958,1.584-3.5,3.545-3.5H56.468z M56.468,54.175L56.468,54.175L56.468,54.175z" fill="#FFFFFF" fill-rule="evenodd"/></g><g><path d="M49.376,61.202V46.214c0-8.295,6.725-15.02,15.02-15.02     c1.26,0,2.154,0.142,3.318,0.445c1.699,0.445,3.088,1.838,3.088,3.457c0,1.959-1.422,3.383-3.545,3.383     c-1.012,0-1.379-0.193-2.861-0.193c-4.373,0-7.92,3.542-7.928,7.916v6.889c0,0.291,0.111,0.557,0.295,0.756L49.376,61.202z      M49.376,61.202L49.376,61.202L49.376,61.202z" fill="#FFFFFF" fill-rule="evenodd"/></g></g></g></svg>