<?xml version="1.0" ?><!DOCTYPE svg  PUBLIC '-//W3C//DTD SVG 1.1 Tiny//EN'  'http://www.w3.org/Graphics/SVG/1.1/DTD/svg11-tiny.dtd'><svg baseProfile="tiny" height="110px" id="Layer_1" version="1.1" viewBox="0 0 110 110" width="110px" xml:space="preserve" xmlns="http://www.w3.org/2000/svg" xmlns:xlink="http://www.w3.org/1999/xlink"><g><polygon fill="#F3B521" fill-rule="evenodd" points="0,110.609 0,110.609 110,110.609 110,110.609 110,0.611 110,0.611 0,0.611    0,0.611  "/><g><g><path d="M81.869,76.706c-1.233-0.284-2.542-0.463-3.866-0.463     c-2.264,0-4.323,0.393-5.843,1.023c-0.165,0.084-0.285,0.259-0.285,0.459c0,0.071,0.02,0.146,0.047,0.207     c0.18,0.521-0.117,1.086-1.587,1.409c-2.179,0.479-3.558,2.728-4.344,3.476c-0.925,0.879-3.535,1.416-3.144,0.893     c0.307-0.408,1.484-1.685,2.198-3.065c0.64-1.232,1.209-1.581,1.993-2.759c0.229-0.347,1.121-1.559,1.381-2.516     c0.293-0.938,0.193-2.112,0.307-2.597c0.158-0.696,0.818-2.212,0.866-3.066c0.029-0.48-2.017,0.69-2.987,0.69     c-0.972,0-1.918-0.58-2.785-0.623c-1.074-0.051-1.764,0.83-2.737,0.676c-0.553-0.09-1.021-0.578-1.99-0.614     c-1.38-0.053-3.068,0.769-6.235,0.665c-3.117-0.102-5.995-3.938-6.389-4.549c-0.459-0.715-1.023-0.715-1.635-0.154     c-0.614,0.562-1.37,0.121-1.586-0.254c-0.408-0.717-1.503-2.811-3.194-3.245c-2.341-0.607-3.524,1.292-3.373,2.809     c0.158,1.536,1.15,1.968,1.61,2.785c0.459,0.817,0.696,1.345,1.561,1.708c0.613,0.254,0.844,0.635,0.66,1.139     c-0.161,0.438-0.799,0.537-1.22,0.559c-0.892,0.043-1.516-0.199-1.972-0.492c-0.53-0.338-0.961-0.809-1.424-1.604     c-0.535-0.881-1.381-1.264-2.36-1.264c-0.47,0-0.907,0.124-1.297,0.325c-1.542,0.8-3.374,1.274-5.347,1.274h-2.226     c-1.082-3.211-1.671-6.65-1.671-10.229c0-17.676,14.328-32.005,32.006-32.005c17.675,0,32.003,14.329,32.003,32.005     C87.004,65.723,85.118,71.695,81.869,76.706L81.869,76.706z M62.048,73.771c-0.018-0.016-0.041-0.025-0.066-0.025     c-0.028,0-0.055,0.013-0.076,0.033c-0.414,0.479-0.592,0.639-0.893,0.878c-0.723,0.582-1.545-0.073-2.074-0.386     c-1.178-0.688-2.121-0.252-2.353,0.281c-0.229,0.539,0.024,1.184,0.666,1.1c0.896-0.114,0.935,0.022,1.582,0.436     c1.209,0.764,2.089,0.348,2.536-0.012c0.377-0.301,0.587-0.557,0.781-0.919C62.499,74.47,62.214,73.931,62.048,73.771z" fill="#3D3D3F" fill-rule="evenodd"/><path d="M73.062,50.793c-0.317,1.065-0.767,2.422-2.767,3.45     c-0.292,0.148-0.403-0.095-0.271-0.326c0.758-1.284,0.89-1.605,1.111-2.114c0.308-0.741,0.469-1.795-0.143-3.997     c-1.203-4.332-3.716-10.12-5.54-12c-1.762-1.812-4.951-2.322-7.837-1.582c-1.064,0.271-3.141,1.354-6.995,0.485     c-6.673-1.503-7.659,1.837-8.042,3.292s-1.303,5.592-1.303,5.592c-0.306,1.683-0.707,4.61,9.65,6.586     c4.826,0.918,5.07,2.167,5.284,3.062c0.382,1.609,0.994,2.528,1.685,2.989c0.689,0.459,0,0.839-0.766,0.917     c-2.055,0.214-9.65-1.964-14.143-4.518c-3.677-2.247-3.738-4.27-2.896-5.987c-5.554-0.598-9.722,0.522-10.478,3.151     c-1.297,4.511,9.919,12.219,22.691,16.085c13.402,4.06,27.188,1.227,28.718-7.201C81.722,54.853,78.498,52.021,73.062,50.793     L73.062,50.793z M52.51,42.544c-3.696,0.267-4.081,0.666-4.772,1.404c-0.977,1.041-2.262-1.348-2.262-1.348     c-0.773-0.164-1.709-1.408-1.205-2.569c0.498-1.15,1.416-0.806,1.705-0.45c0.351,0.436,1.096,1.148,2.067,1.123     c0.969-0.022,2.09-0.228,3.651-0.228c1.581,0,2.646,0.591,2.707,1.096C54.453,42.007,54.272,42.416,52.51,42.544L52.51,42.544z      M56.394,36.436c-0.006,0-0.012,0-0.016,0c-0.059,0-0.104-0.042-0.104-0.097c0-0.037,0.023-0.072,0.058-0.086     c0.716-0.379,1.786-0.682,3.009-0.807c0.367-0.037,0.727-0.057,1.072-0.061c0.061,0,0.121,0,0.183,0.002     c2.05,0.047,3.694,0.863,3.67,1.822c-0.026,0.957-1.706,1.699-3.76,1.652c-0.663-0.016-1.286-0.111-1.822-0.268     c-0.065-0.016-0.11-0.068-0.11-0.132c0-0.065,0.045-0.12,0.11-0.136c1.281-0.295,2.144-0.779,2.083-1.238     c-0.08-0.605-1.754-0.934-3.738-0.736C56.81,36.376,56.599,36.405,56.394,36.436z" fill="#E02D2B" fill-rule="evenodd"/></g></g></g></svg>