<?xml version="1.0" ?><!DOCTYPE svg  PUBLIC '-//W3C//DTD SVG 1.1 Tiny//EN'  'http://www.w3.org/Graphics/SVG/1.1/DTD/svg11-tiny.dtd'><svg baseProfile="tiny" height="110px" id="Layer_1" version="1.1" viewBox="0 0 110 110" width="110px" xml:space="preserve" xmlns="http://www.w3.org/2000/svg" xmlns:xlink="http://www.w3.org/1999/xlink"><g><polygon fill="#F3B521" fill-rule="evenodd" points="0,110.61 0,110.61 110,110.61 110,110.61 110,0.61 110,0.61 0,0.61 0,0.61     "/><g><path d="M38.628,37.778l3.307-3.308l12.912,12.91l1.049-1.049l-12.91-12.91l3.307-3.309    L59.249,43.07c2.107,2.107,2.107,5.557,0,7.664l0,0c-2.107,2.107-5.557,2.107-7.664,0L38.628,37.778L38.628,37.778z     M64.175,45.807l3.309-3.307l-12.91-12.91l1.049-1.05l12.91,12.911l3.309-3.308L58.884,25.188c-2.107-2.108-5.557-2.108-7.664,0    l0,0c-2.107,2.107-2.107,5.557,0,7.664L64.175,45.807L64.175,45.807z M37.351,72.268l12.957-12.957    c2.107-2.107,2.107-5.557,0-7.664l0,0c-2.107-2.107-5.557-2.107-7.664,0L29.687,64.604l3.307,3.307L45.905,55l1.049,1.049    L34.044,68.96L37.351,72.268L37.351,72.268z M45.38,46.72l-3.307-3.308L29.161,56.323l-1.049-1.05l12.91-12.91l-3.307-3.308    L24.759,52.012c-2.107,2.107-2.107,5.557,0,7.664l0,0c2.107,2.107,5.557,2.107,7.666,0L45.38,46.72L45.38,46.72z M71.372,73.441    l-3.307,3.309L55.153,63.839l-1.049,1.05l12.91,12.91l-3.307,3.308L50.751,68.15c-2.107-2.107-2.107-5.557,0-7.664l0,0    c2.109-2.108,5.557-2.108,7.664,0L71.372,73.441L71.372,73.441z M45.825,65.413L58.78,78.369c2.107,2.107,2.107,5.557,0,7.664l0,0    c-2.107,2.107-5.557,2.107-7.664,0L38.161,73.077l3.307-3.308l12.91,12.91l1.051-1.049l-12.912-12.91L45.825,65.413L45.825,65.413    z M72.284,72.164l12.957-12.955c2.107-2.108,2.107-5.557,0-7.665l0,0c-2.107-2.107-5.557-2.107-7.664,0L64.62,64.5l3.309,3.308    l12.91-12.91l1.049,1.049l-12.91,12.911L72.284,72.164L72.284,72.164z M80.313,46.617l-3.307-3.308L64.095,56.221l-1.049-1.05    l12.91-12.911l-3.307-3.307L59.692,51.909c-2.107,2.107-2.107,5.557,0,7.665l0,0c2.109,2.107,5.557,2.107,7.666,0L80.313,46.617z" fill="#0A82A9" fill-rule="evenodd"/></g></g></svg>