<?xml version="1.0" ?><!DOCTYPE svg  PUBLIC '-//W3C//DTD SVG 1.1 Tiny//EN'  'http://www.w3.org/Graphics/SVG/1.1/DTD/svg11-tiny.dtd'><svg baseProfile="tiny" height="110px" id="Layer_1" version="1.1" viewBox="0 0 110 110" width="110px" xml:space="preserve" xmlns="http://www.w3.org/2000/svg" xmlns:xlink="http://www.w3.org/1999/xlink"><g><polygon fill="#832424" fill-rule="evenodd" points="-0.002,110.611 -0.002,110.611 110.002,110.611 110.002,110.611    110.002,0.609 110.002,0.609 -0.002,0.609 -0.002,0.609  "/><g><g><path d="M67.457,33.057h10.286v10.287l-4.696-4.695L58.9,52.795h-1.121v-1.121l14.146-14.146     L67.457,33.057L67.457,33.057z M61.709,52.795h16.034v-6.641l-4.696-4.697L61.709,52.795L61.709,52.795z M57.779,48.938     L68.957,37.76l-4.631-4.631h-6.547V48.938L57.779,48.938z M22.996,55.734l7.273-7.273v6.32h20.007l0.794,0.793l-0.794,0.793     H30.27v6.641L22.996,55.734z" fill="#AA4E9D" fill-rule="evenodd"/><path d="M58.93,55.574l0.793-0.793H79.73v-6.641l7.273,7.273l-7.273,7.273v-6.32H59.723     L58.93,55.574L58.93,55.574z M51.1,58.354h1.121v1.121L38.074,73.621l4.469,4.469H32.256V67.805l4.696,4.695L51.1,58.354     L51.1,58.354z M48.291,58.354H32.256v6.641l4.696,4.697L48.291,58.354L48.291,58.354z M40.883,73.621l4.469,4.469h6.869V62.283     L40.883,73.621z" fill="#0A82A9" fill-rule="evenodd"/><path d="M54.207,60.297L55,59.504l0.792,0.793v19.781h6.548l-7.5,7.5l-7.501-7.5h6.868     V60.297L54.207,60.297z M32.256,33.057h10.608l-4.631,4.631l13.987,13.986v1.121H51.1L37.113,38.809l-4.857,4.855V33.057     L32.256,33.057z M32.256,46.475v6.32h16.035L37.113,41.617L32.256,46.475L32.256,46.475z M40.883,37.598l11.338,11.34V33.129     h-6.869L40.883,37.598z" fill="#7DBA48" fill-rule="evenodd"/><path d="M54.207,50.922L55,51.717l0.792-0.795V31.143h6.548l-7.5-7.5l-7.501,7.5h6.868     V50.922L54.207,50.922z M57.779,58.354H58.9L72.887,72.34l4.856-4.855V78.09H67.137l4.629-4.629L57.779,59.475V58.354     L57.779,58.354z M77.743,64.674v-6.32H61.709l11.178,11.178L77.743,64.674L77.743,64.674z M57.779,62.283V78.09h6.547     l4.631-4.629L57.779,62.283z" fill="#F3B521" fill-rule="evenodd"/></g></g></g></svg>