<?xml version="1.0" ?><!DOCTYPE svg  PUBLIC '-//W3C//DTD SVG 1.1 Tiny//EN'  'http://www.w3.org/Graphics/SVG/1.1/DTD/svg11-tiny.dtd'><svg baseProfile="tiny" height="110px" id="Layer_1" version="1.1" viewBox="0 0 110 110" width="110px" xml:space="preserve" xmlns="http://www.w3.org/2000/svg" xmlns:xlink="http://www.w3.org/1999/xlink"><g><polygon fill="#346368" fill-rule="evenodd" points="0,110.609 0,110.609 110,110.609 110,110.609 110,0.611 110,0.611 0,0.611    0,0.611  "/><g><g><path d="M44.636,77.278c-4.535-3.314-7.968-8.049-9.643-13.549     c2.528-1.608,4.207-4.436,4.207-7.654s-1.679-6.045-4.207-7.653c1.738-5.71,5.372-10.595,10.167-13.923l5.385,9.326     c-3.64,2.844-5.98,7.273-5.98,12.25c0,4.744,2.126,8.99,5.478,11.84L44.636,77.278z" fill="#F5C34F" fill-rule="evenodd"/><path d="M86.276,57.977c-0.423,5.896-2.794,11.253-6.472,15.431     c-1.354-0.807-2.937-1.27-4.628-1.27c-5.006,0-9.064,4.059-9.064,9.064c0,0.141,0.004,0.281,0.011,0.422     c-1.934,0.453-3.949,0.694-6.021,0.694c-4.022,0-7.833-0.905-11.24-2.522l5.385-9.326c1.808,0.736,3.783,1.143,5.855,1.143     c7.937,0,14.482-5.951,15.42-13.636H86.276z" fill="#E02D2B" fill-rule="evenodd"/><path d="M60.102,29.833c2.073,0,4.091,0.241,6.025,0.695c0.265,4.77,4.215,8.555,9.05,8.555     c1.461,0,2.842-0.346,4.063-0.961c3.758,4.005,6.273,9.188,6.932,14.936H75.344c-1.404-7.136-7.694-12.519-15.242-12.519     c-1.843,0-3.609,0.321-5.25,0.91l-5.404-9.362C52.703,30.639,56.308,29.833,60.102,29.833z" fill="#F3B521" fill-rule="evenodd"/><circle cx="30.136" cy="56.075" fill="#F3B521" fill-rule="evenodd" r="6.412"/><circle cx="75.177" cy="81.202" fill="#F5C34F" fill-rule="evenodd" r="6.412"/><circle cx="75.177" cy="30.019" fill="#E02D2B" fill-rule="evenodd" r="6.412"/></g></g></g></svg>