<?xml version="1.0" ?><!DOCTYPE svg  PUBLIC '-//W3C//DTD SVG 1.1 Tiny//EN'  'http://www.w3.org/Graphics/SVG/1.1/DTD/svg11-tiny.dtd'><svg baseProfile="tiny" height="110px" id="Layer_1" version="1.1" viewBox="0 0 110 110" width="110px" xml:space="preserve" xmlns="http://www.w3.org/2000/svg" xmlns:xlink="http://www.w3.org/1999/xlink"><g><polygon fill="#B01F24" fill-rule="evenodd" points="0,110.61 0,110.61 110,110.61 110,110.61 110,0.61 110,0.61 0,0.61 0,0.61     "/><g><path d="M69.136,38.268l0.698,0.024c0.475,0.009,0.962,0.059,1.445,0.031    c0.25-0.015,0.479,0.001,0.725,0.007c0.497,0.01,0.978-0.057,1.466-0.045c0.964,0.022,3.486-0.282,4.499-0.517    c1.883-0.437,3.629-1.098,5.029-2.493c1.191-1.188,1.928-2.537,2.668-4.043c-0.144-0.248-0.398-0.469-0.559-0.626    c-0.781-0.762-1.568-1.475-2.396-2.156l-2.176-1.62c-0.13-0.08-0.18-0.115-0.313-0.189c-0.861-0.475-1.787-0.76-2.787-0.695    c-0.281,0.019-0.479-0.007-0.768,0.031c-0.54,0.07-0.993,0.127-1.544,0.215c-1.059,0.168-2.097,0.408-3.153,0.674    c-1.628,0.406-3.254,0.932-4.855,1.475c-1.084,0.366-2.204,0.723-3.282,1.154c-0.461,0.184-1.243,0.42-1.664,0.663    c0.098,0.324,0.372,0.731,0.572,1.079c0.135,0.234,0.124,0.306,0.249,0.529c0.103,0.182,0.214,0.365,0.318,0.547    c-0.345,0.163-1.761,0.412-2.299,0.566l-2.319,0.641c-1.562,0.444-3.15,0.953-4.741,1.547c-0.81,0.302-1.567,0.595-2.396,0.93    c-0.858,0.348-1.647,0.785-2.441,1.097c-0.223,0.088-0.401,0.232-0.616,0.326c-0.633,0.276-1.278,0.667-1.885,0.993    c-0.216,0.117-0.347,0.145-0.607,0.297l-1.938,1.067l-2.229,1.286c-0.569,0.344-1.104,0.69-1.48,0.99l-3.291,2.488    c-0.419,0.345-0.757,0.656-1.159,1.01c-0.917,0.806-2.403,2.277-3.15,3.22c-0.154,0.194-0.299,0.343-0.456,0.538    c-0.74,0.92-1.491,1.789-2.155,2.76c-0.644,0.941-1.277,1.861-1.87,2.835c-1.546,2.538-2.406,4.302-3.543,7.11l-0.813,2.459    c-0.071,0.244-0.075,0.416-0.141,0.655c-0.122,0.442-0.2,0.827-0.31,1.271c-0.156,0.63-0.337,1.945-0.376,2.575l-0.096,2.684    c-0.007,0.425,0.043,0.939,0.076,1.374c0.01,0.136,0.03,0.206,0.042,0.342c0.264,3.013,1.882,6.707,4.173,8.667    c0.552,0.473,1.104,0.949,1.733,1.301c0.215,0.119,0.394,0.241,0.597,0.359l2.793,1.167l1.002,0.204    c1.857,0.329,3.818,0.293,5.646-0.232c0.787-0.227,1.539-0.466,2.302-0.824c1.771-0.832,2.759-1.593,4.092-2.939    c0.209-0.213,0.339-0.386,0.498-0.594c0.562-0.73,1.034-1.547,1.346-2.414c0.298-0.828,0.496-1.754,0.501-2.641l-0.009-0.696    c-0.049-0.497-0.075-0.934-0.178-1.435c-0.273-1.342-0.942-2.709-1.886-3.717c-0.399-0.428-0.709-0.73-1.104-1.059    c-0.621-0.516-1.352-0.92-2.082-1.232c-0.941-0.403-1.954-0.578-2.97-0.627c-2.605-0.126-5.313,1.082-6.897,3.161    c-0.521,0.682-0.818,1.425-1.039,2.231c-0.573,2.089,0.437,4.623,2.356,5.689l0.913,0.416c0.309,0.121,0.598,0.162,0.937,0.203    c1.865,0.229,3.423-0.4,4.705-1.807c1.264-1.386,0.624-2.984-0.807-3.125c-1.633-0.16-1.839,1.916-3.511,1.392    c-1.274-0.399-1.56-1.971-0.414-3.167c0.358-0.375,0.783-0.633,1.296-0.865c1.258-0.57,2.633-0.539,3.855,0.037    c1.577,0.743,2.709,2.148,2.816,3.953c0.051,0.844-0.087,1.764-0.538,2.465c-0.816,1.268-1.523,1.765-2.861,2.537    c-0.557,0.321-1.083,0.536-1.611,0.709c-1.392,0.457-2.959,0.494-4.359,0.119c-0.938-0.251-1.741-0.628-2.562-1.164    c-1.71-1.12-3.106-3.29-3.294-5.376c-0.102-1.122,0.026-2.364,0.386-3.431c0.603-1.788,1.78-3.289,3.338-4.424    c0.957-0.699,2.245-1.397,3.32-1.75c1.388-0.453,2.346-0.557,3.737-0.631c0.978-0.053,1.928,0.061,2.895,0.171    c0.825,0.095,1.732,0.348,2.512,0.609c0.104,0.034,0.175,0.041,0.277,0.075c0.175,0.059,0.34,0.13,0.51,0.195l0.535,0.219    c1.471,0.625,2.898,1.486,4.001,2.699c0.176,0.193,0.301,0.324,0.462,0.492c0.455,0.475,0.356,0.282,1.731,0.199l3.649-0.295    c0.629,0.004-0.031-0.451-0.347-0.936c-1.076-1.65-2.119-3.14-2.192-5.178c-0.018-0.496,0.122-1.007,0.307-1.437    c0.741-1.726,1.832-2.472,3.486-3.427c0.84-0.484,1.905-0.75,2.641-0.854c0.817-0.116,1.648-0.188,2.468-0.085l1.425,0.229    c0.474,0.108,0.963,0.181,1.421,0.368l2.253,0.714c0.215,0.056,0.33,0.124,0.547,0.18c0.209,0.054,0.328,0.123,0.546,0.18    c0.728,0.19,1.28,0.44,2.054,0.35c1.095-0.129,2.413-0.208,3.462-0.347c0.405-0.055,2.309-0.156,2.52-0.278    c0.291-0.167-0.504-0.417-0.632-0.479c-0.285-0.139-0.564-0.267-0.844-0.425c-0.156-0.088-0.253-0.124-0.404-0.217    c-1.007-0.619-1.984-1.182-2.86-2.024c-1.037-0.998-2.216-2.488-2.22-4.038l0.105-0.6c0.15-0.473,0.242-0.661,0.608-1.059    c0.652-0.708,2.336-1.541,3.284-1.924c0.265-0.107,0.448-0.211,0.714-0.323c0.4-0.168,0.949-0.397,1.347-0.588    c2.719-1.304,5.393-3.063,7.516-5.116c0.466-0.451,0.907-0.884,1.331-1.361c0.532-0.602,1.18-1.451,1.634-2.139l0.46-0.736    c0.336-0.512,0.522-0.99,0.453-1.596c-0.046-0.395-0.204-1.459-0.514-1.79c-0.473,0.273-0.662,0.836-0.988,1.255l-0.729,0.928    c-1.504,1.683-2.652,2.822-4.923,3.486c-0.554,0.161-1.106,0.28-1.657,0.392c-0.293,0.06-0.52,0.127-0.806,0.169    c-1.081,0.162-2.138,0.359-3.227,0.455c-0.162,0.014-0.241,0.011-0.406,0.035l-1.994,0.17c-0.262-0.006-1.053-0.686-1.319-0.871    c-0.38-0.266-0.887-0.761-1.297-0.953L69.136,38.268L69.136,38.268z M79.037,35.634c-0.639,0.368-1.252,0.593-1.89,0.64    c-0.566,0.042-0.971,0.066-1.561-0.093c-1.342-0.362-2.102-0.957-2.883-2.31c-0.247-0.428-0.407-1.21-0.43-1.602    c-0.089-1.576,0.681-3.232,2.033-4.014c1.087-0.627,1.713-0.852,2.977-0.749c1.994,0.161,3.773,1.869,3.906,3.915    c0.009,0.133,0.02,0.271,0.025,0.402c0.034,0.754-0.36,1.955-0.826,2.554C80.058,34.801,79.63,35.291,79.037,35.634L79.037,35.634    z M77.43,31.768c-1.599,0.924-2.497-0.633-0.894-1.532c0.354-0.198,0.563-0.248,0.876-0.253    C78.535,29.967,78.435,31.188,77.43,31.768L77.43,31.768z M78.046,34.643c-1.477,0.852-3.923,0.036-4.379-2    c-0.688-3.063,2.943-5.1,5.188-3.111c0.884,0.782,1.223,1.918,0.922,3.031C79.483,33.65,79.005,34.088,78.046,34.643z" fill="#7DBA48" fill-rule="evenodd"/></g></g></svg>