<?xml version="1.0" ?><!DOCTYPE svg  PUBLIC '-//W3C//DTD SVG 1.1 Tiny//EN'  'http://www.w3.org/Graphics/SVG/1.1/DTD/svg11-tiny.dtd'><svg baseProfile="tiny" height="110px" id="Layer_1" version="1.1" viewBox="0 0 110 110" width="110px" xml:space="preserve" xmlns="http://www.w3.org/2000/svg" xmlns:xlink="http://www.w3.org/1999/xlink"><g><polygon fill="#346368" fill-rule="evenodd" points="0.001,110.61 0.001,110.61 110.001,110.61 110.001,110.61 110.001,0.61    110.001,0.61 0.001,0.61 0.001,0.61  "/><g><g><path d="M65.039,48.122l13.777,4.233c0.443,0.136,0.746,0.501,0.796,0.961     c0.052,0.461-0.164,0.883-0.566,1.112l-12.522,7.137l0.231,14.412c0.008,0.463-0.246,0.863-0.669,1.054     c-0.422,0.19-0.889,0.117-1.232-0.195l-10.657-9.704l-13.635,4.674c-0.438,0.15-0.897,0.032-1.21-0.31     c-0.311-0.343-0.385-0.811-0.194-1.232l5.936-13.136l-8.658-11.523c-0.278-0.37-0.308-0.843-0.079-1.245     c0.23-0.402,0.652-0.617,1.112-0.566l14.326,1.586l8.284-11.795c0.266-0.379,0.707-0.554,1.16-0.46s0.788,0.429,0.883,0.883     L65.039,48.122L65.039,48.122z M82.938,52.815h3.486c0.319,0,0.58,0.262,0.58,0.581l0,0c0,0.319-0.261,0.581-0.58,0.581h-3.486     c-0.32,0-0.582-0.262-0.582-0.581l0,0C82.355,53.077,82.617,52.815,82.938,52.815L82.938,52.815z M82.684,54.459l1.744,3.019     c0.159,0.277,0.063,0.635-0.213,0.794l0,0c-0.277,0.16-0.635,0.064-0.795-0.213l-1.742-3.019     c-0.16-0.277-0.064-0.635,0.213-0.794l0,0C82.167,54.086,82.524,54.182,82.684,54.459L82.684,54.459z M81.135,55.062     c0.16-0.277,0.063-0.635-0.213-0.794l0,0c-0.277-0.16-0.635-0.064-0.794,0.213l-1.743,3.019c-0.16,0.277-0.064,0.635,0.213,0.794     l0,0c0.277,0.16,0.633,0.064,0.793-0.213L81.135,55.062L81.135,55.062z M80.091,52.377c0.159,0.277,0.517,0.373,0.794,0.213l0,0     c0.276-0.16,0.373-0.517,0.213-0.794l-1.744-3.02c-0.16-0.276-0.517-0.372-0.793-0.212l0,0c-0.277,0.159-0.373,0.517-0.213,0.793     L80.091,52.377L80.091,52.377z M81.641,51.774l1.742-3.02c0.16-0.276,0.518-0.372,0.795-0.212l0,0     c0.276,0.159,0.372,0.517,0.213,0.793l-1.744,3.02c-0.16,0.277-0.517,0.373-0.793,0.213l0,0     C81.576,52.408,81.48,52.052,81.641,51.774z" fill="#F3B521" fill-rule="evenodd"/><path d="M32.083,40.767c0,0-11.708,17.045-1.378,30.475     c4.935,6.414,14.521,2.851,23.192-2.621l0.863,0.786c-5.372,3.727-11.538,7.04-17.771,8.378     C19.342,81.571,19.17,52.475,32.083,40.767z" fill="#0A82A9" fill-rule="evenodd"/></g></g></g></svg>