<?xml version="1.0" ?><svg viewBox="0 0 441.27 441.27" xmlns="http://www.w3.org/2000/svg"><title/><g data-name="Layer 2" id="Layer_2"><g data-name="donut, dessert, sugar, bakery, chocolate, food, meal, fast, restaurant, junk, fastfood" id="donut_dessert_sugar_bakery_chocolate_food_meal_fast_restaurant_junk_fastfood"><path d="M364.24,373.66a210.23,210.23,0,0,1-206,47.4,5.39,5.39,0,1,0-3.2,10.29,221,221,0,0,0,216.58-49.83,5.39,5.39,0,1,0-7.37-7.86Z"/><path d="M222.05,0h-1.44a217.94,217.94,0,0,0-96.32,22.17A5.39,5.39,0,1,0,129,31.86a207.87,207.87,0,0,1,93-21.08c115,.73,208.5,94.87,208.5,209.85a209.69,209.69,0,0,1-28.77,106.11c-8.12,13.81-24.26,20.57-39.27,16.43a56.45,56.45,0,0,1-26.38-16l-.13-.14a35.66,35.66,0,0,0-61.7,24.35v34.82A18.69,18.69,0,0,1,256,404.75a18.16,18.16,0,0,1-13.08-5.32,19.63,19.63,0,0,1-5.88-13.9V383a28.74,28.74,0,0,0-48.5-20.87L159,390c-2,1.86-4,3.63-6.16,5.28a39.8,39.8,0,0,1-45.82,1.83A209.75,209.75,0,0,1,64.73,80.29a5.39,5.39,0,1,0-8-7.21,220.51,220.51,0,0,0,44.5,333.1,50.53,50.53,0,0,0,58.25-2.36c2.41-1.86,4.76-3.87,7-6L196,369.92a18,18,0,0,1,30.31,13v2.57a30.45,30.45,0,0,0,9.11,21.6,28.83,28.83,0,0,0,20.29,8.4h.54A29.52,29.52,0,0,0,285,386.16V351.34a24.88,24.88,0,0,1,43-17l.12.13a67.33,67.33,0,0,0,31.41,19.1c19.7,5.42,40.84-3.36,51.42-21.37A220.66,220.66,0,0,0,222.05,0Z"/><path d="M91.44,41.87c-3.32,2.4-6.61,4.93-9.8,7.53a5.39,5.39,0,1,0,6.8,8.36c3-2.47,6.17-4.87,9.32-7.16a5.39,5.39,0,0,0-6.32-8.73Z"/><path d="M156.24,220.63a64.32,64.32,0,1,0,40.66-59.87,5.39,5.39,0,1,0,4,10,53.7,53.7,0,1,1-21.32,15.42,5.39,5.39,0,0,0-8.26-6.93A64.45,64.45,0,0,0,156.24,220.63Z"/><path d="M64.85,284.47a5.39,5.39,0,0,0,9.64-4.82L68,266.7a5.39,5.39,0,0,0-9.64,4.82Z"/><path d="M143.36,281.74a5.39,5.39,0,0,0-7.56-1l-11.48,8.81a5.39,5.39,0,1,0,6.56,8.55l11.48-8.81A5.4,5.4,0,0,0,143.36,281.74Z"/><path d="M128.44,339l-6.59,12.89a5.39,5.39,0,1,0,9.6,4.91L138,343.93a5.39,5.39,0,0,0-9.6-4.91Z"/><path d="M111.06,217.23a5.39,5.39,0,0,0,3,7l13.41,5.46a5.39,5.39,0,0,0,4.07-10l-13.41-5.46A5.39,5.39,0,0,0,111.06,217.23Z"/><path d="M143.84,153.19a5.39,5.39,0,0,0-7.39-1.88L124,158.7a5.39,5.39,0,1,0,5.51,9.27l12.44-7.4A5.38,5.38,0,0,0,143.84,153.19Z"/><path d="M69.12,192.44a5.39,5.39,0,0,0,2.47-10.18l-12.87-6.63a5.39,5.39,0,0,0-4.94,9.59l12.88,6.62A5.32,5.32,0,0,0,69.12,192.44Z"/><path d="M111.45,86.34a5.39,5.39,0,0,0-4.84,5.89L108,106.64a5.39,5.39,0,0,0,5.36,4.87l.53,0a5.39,5.39,0,0,0,4.84-5.89l-1.41-14.41A5.41,5.41,0,0,0,111.45,86.34Z"/><path d="M192.42,134.32a5.32,5.32,0,0,0,2.76.76,5.38,5.38,0,0,0,4.63-2.62L207.24,120A5.39,5.39,0,0,0,198,114.5l-7.43,12.43A5.39,5.39,0,0,0,192.42,134.32Z"/><path d="M180.63,51.06a5.39,5.39,0,0,0-7.75,7.49L183,69a5.39,5.39,0,0,0,7.75-7.5Z"/><path d="M274.94,53.67a5.39,5.39,0,0,0-5.3-5.48L255.17,48h-.1A5.39,5.39,0,0,0,255,58.72l14.48.25h.09A5.39,5.39,0,0,0,274.94,53.67Z"/><path d="M264.78,116.23l-11.93,8.2a5.39,5.39,0,1,0,6.1,8.88l11.93-8.19a5.39,5.39,0,0,0-6.1-8.89Z"/><path d="M341.32,86.44,328.37,80a5.39,5.39,0,1,0-4.82,9.64l12.95,6.48a5.3,5.3,0,0,0,2.41.57,5.39,5.39,0,0,0,2.41-10.21Z"/><path d="M338.08,136.61a5.39,5.39,0,0,0-7.54,1.12l-8.63,11.63a5.39,5.39,0,0,0,8.66,6.42l8.63-11.63A5.4,5.4,0,0,0,338.08,136.61Z"/><path d="M381.58,166.84a5.39,5.39,0,0,0-8.36,6.81l9.15,11.22a5.39,5.39,0,0,0,8.36-6.81Z"/><path d="M318.37,239.62a5.39,5.39,0,0,0,7.57-.86l9-11.32a5.39,5.39,0,0,0-8.43-6.72l-9,11.32A5.39,5.39,0,0,0,318.37,239.62Z"/><path d="M376.22,233.24a5.4,5.4,0,0,0,2.77,7.1l13.26,5.81a5.39,5.39,0,0,0,4.33-9.87l-13.26-5.81A5.38,5.38,0,0,0,376.22,233.24Z"/><path d="M344.3,297.54a5.36,5.36,0,0,0,3.54-1.32l10.91-9.52a5.39,5.39,0,1,0-7.08-8.12l-10.91,9.51a5.39,5.39,0,0,0,3.54,9.45Z"/><path d="M294.88,307.56h.31a5.4,5.4,0,0,0,5.07-5.7l-.83-14.45a5.39,5.39,0,0,0-10.76.62l.83,14.46A5.39,5.39,0,0,0,294.88,307.56Z"/><path d="M217,311.33a5.38,5.38,0,0,0-.72,7.59l9.23,11.16a5.39,5.39,0,0,0,8.3-6.88l-9.22-11.15A5.39,5.39,0,0,0,217,311.33Z"/></g></g></svg>