<?xml version="1.0" ?><svg viewBox="0 0 244.12 406.52" xmlns="http://www.w3.org/2000/svg"><title/><g data-name="Layer 2" id="Layer_2"><g data-name="icecream, dessert, cream, ice, ice-cream, food, meal, fast, restaurant, junk, fastfood" id="icecream_dessert_cream_ice_ice-cream_food_meal_fast_restaurant_junk_fastfood"><path d="M80.07,14.79a26.18,26.18,0,0,0-5.54,1.53,5.39,5.39,0,0,0,2,10.4,5.47,5.47,0,0,0,2-.39,14.68,14.68,0,0,1,3.22-.89,5.39,5.39,0,1,0-1.69-10.65Z"/><path d="M244.12,143.06a30.06,30.06,0,0,0-30-30h-2.6a30,30,0,0,0-23-49.28H180a39.23,39.23,0,0,0,9-9.16c7.14-10.24,9.12-23.65,5.88-39.88A18,18,0,0,0,182.73,1a18.53,18.53,0,0,0-18.46,4c-8.26,7.51-19.85,9.19-26.11,9.52H104.3a5.39,5.39,0,0,0,0,10.78h34.27c7.67-.39,22.16-2.5,33-12.33a7.86,7.86,0,0,1,7.83-1.73,7.25,7.25,0,0,1,4.94,5.62c2.64,13.24,1.24,23.88-4.15,31.61S165,61.25,151.3,63.49a3.93,3.93,0,0,0-.48.06,14.88,14.88,0,0,1-2.29.2,5.39,5.39,0,0,0,0,10.78h39.92a19.25,19.25,0,0,1,0,38.5H176.52a5.39,5.39,0,0,0,0,10.78h37.57a19.25,19.25,0,0,1,0,38.5H31a5.39,5.39,0,0,0-5.39,5.39v33a21.67,21.67,0,0,0,21.64,21.65H187.85L157.48,383.16a15.46,15.46,0,0,1-15.18,12.58H101.82a15.46,15.46,0,0,1-15.18-12.58L59.79,241a5.39,5.39,0,1,0-10.6,2L76.05,385.16a26.24,26.24,0,0,0,25.77,21.36H142.3a26.24,26.24,0,0,0,25.77-21.36l30.77-162.9a21.66,21.66,0,0,0,19.64-21.54V188.58a5.39,5.39,0,1,0-10.78,0v12.14a10.88,10.88,0,0,1-10.86,10.87H47.28a10.88,10.88,0,0,1-10.86-10.87V173.09H214.09A30.06,30.06,0,0,0,244.12,143.06Z"/><path d="M30,123.81H82A5.39,5.39,0,0,0,82,113H55.67a19.25,19.25,0,0,1,0-38.5h63.07a5.39,5.39,0,0,0,0-10.78H84.12c-9.32,0-16.91-8.63-16.91-19.25a21.48,21.48,0,0,1,.57-5,5.39,5.39,0,0,0-10.5-2.46,32.77,32.77,0,0,0-.85,7.41,31.42,31.42,0,0,0,6.46,19.25H55.67a30,30,0,0,0-23,49.28H30A30,30,0,0,0,2.82,155.78a5.4,5.4,0,0,0,4.89,3.11,5.47,5.47,0,0,0,2.28-.51,5.39,5.39,0,0,0,2.6-7.17,19.05,19.05,0,0,1-1.81-8.15A19.26,19.26,0,0,1,30,123.81Z"/><path d="M108.62,118.42a5.39,5.39,0,0,0,5.39,5.39h16.42a5.39,5.39,0,0,0,0-10.78H114A5.39,5.39,0,0,0,108.62,118.42Z"/><path d="M84.12,241.43H83.05a5.39,5.39,0,1,0,0,10.78h1.07a5.39,5.39,0,0,0,0-10.78Z"/><path d="M110.27,252.21a5.39,5.39,0,1,0,0-10.78h-1.06a5.39,5.39,0,1,0,0,10.78Z"/><path d="M84.87,270.41a5.39,5.39,0,0,0,5.39,5.39h1.06a5.39,5.39,0,0,0,0-10.78H90.26A5.39,5.39,0,0,0,84.87,270.41Z"/></g></g></svg>