<?xml version="1.0" ?><svg viewBox="0 0 284.8 408.95" xmlns="http://www.w3.org/2000/svg"><title/><g data-name="Layer 2" id="Layer_2"><g data-name="popcorn, snack, corn, pop, food, meal, fast, restaurant, junk, fastfood" id="popcorn_snack_corn_pop_food_meal_fast_restaurant_junk_fastfood"><path d="M90.75,10.76A25.27,25.27,0,0,0,86.1,25.6,5.39,5.39,0,0,0,91.49,31h0a5.39,5.39,0,0,0,5.35-5.42A14.63,14.63,0,0,1,125,19.74,5.39,5.39,0,1,0,135,15.56a25.43,25.43,0,0,0-44.2-4.8Z"/><path d="M141.63,36.43a5.4,5.4,0,0,0,4.92-3.17,27,27,0,0,1,1.93-3.54A26.68,26.68,0,0,1,155,22.8,5.35,5.35,0,0,0,157,19.62a11.21,11.21,0,0,1,9.83-8.78,11.23,11.23,0,0,1,8.24,2.47A11.34,11.34,0,0,1,178,17a5.42,5.42,0,0,0,2.78,2.56,27,27,0,0,1,4.5,2.33c.64.42,1.29.89,2,1.43a5.39,5.39,0,0,0,3.58,1.14,14.76,14.76,0,0,1,5.29.72,5.39,5.39,0,1,0,3.38-10.24,25.22,25.22,0,0,0-7.15-1.26l-1.24-.84a36.68,36.68,0,0,0-4.52-2.5A22,22,0,0,0,147,15.34a37.34,37.34,0,0,0-7.58,8.52,39.06,39.06,0,0,0-2.71,5A5.39,5.39,0,0,0,139.41,36,5.32,5.32,0,0,0,141.63,36.43Z"/><path d="M164.28,61.65a5.39,5.39,0,0,0,8.57-6.54,35.78,35.78,0,0,0-49.81-7,5.39,5.39,0,1,0,6.44,8.64,25,25,0,0,1,34.8,4.89Z"/><path d="M15.07,79.75A5.4,5.4,0,0,0,7.78,82a21.08,21.08,0,0,0-2.43,9.82,20.72,20.72,0,0,0,2.28,9.5,5.39,5.39,0,1,0,9.61-4.89A10.18,10.18,0,0,1,17.31,87,5.4,5.4,0,0,0,15.07,79.75Z"/><path d="M258.82,33.54a25.41,25.41,0,0,0-44-5.3l-1.38.54a37.64,37.64,0,0,0-4.62,2.32,21.59,21.59,0,0,0-7.06.86A22.1,22.1,0,0,0,190,40.36a5.39,5.39,0,0,0,8.8,6.23A11.23,11.23,0,0,1,209.47,42a5.4,5.4,0,0,0,3.69-.84,26.58,26.58,0,0,1,4.46-2.38,24.54,24.54,0,0,1,2.31-.84,5.39,5.39,0,0,0,3-2.3,14.64,14.64,0,0,1,26.9,10.06,5.43,5.43,0,0,0,.73,3.69,26.71,26.71,0,0,1,3.15,7.47,5.39,5.39,0,0,0,5.22,4.07,5.51,5.51,0,0,0,1.33-.17,5.39,5.39,0,0,0,3.9-6.54,37.76,37.76,0,0,0-3.44-8.79A25.15,25.15,0,0,0,258.82,33.54Z"/><path d="M18.9,47.53A37.44,37.44,0,0,0,30.36,84.62,21.77,21.77,0,0,0,32,88.85a5.39,5.39,0,1,0,9.56-5,11.23,11.23,0,0,1-1.08-3.19,5.33,5.33,0,0,0-1.95-3.25A26.61,26.61,0,1,1,78,43a26.06,26.06,0,0,1,1.86,3.74,5.39,5.39,0,0,0,10-4,37.62,37.62,0,0,0-2.61-5.24A37.38,37.38,0,0,0,18.9,47.53Z"/><path d="M118.61,85.37a26.77,26.77,0,0,1,3.94,13.19,5.39,5.39,0,1,0,10.78-.3,37.14,37.14,0,0,0-2.87-13.32c-.5-1.2-1.07-2.38-1.69-3.53A25.42,25.42,0,0,0,83,64.26c-.47.18-.93.36-1.38.55a37,37,0,0,0-4.63,2.31,21.4,21.4,0,0,0-7.06.87A22,22,0,0,0,54.94,95.3a21.71,21.71,0,0,0,5.1,8.88,5.39,5.39,0,1,0,7.85-7.38,11.22,11.22,0,0,1,5-18.47A11,11,0,0,1,77.56,78a5.41,5.41,0,0,0,3.69-.85,26.58,26.58,0,0,1,4.46-2.38c.71-.3,1.47-.57,2.3-.83a5.39,5.39,0,0,0,3-2.31,14.64,14.64,0,0,1,26.9,10.06A5.36,5.36,0,0,0,118.61,85.37Z"/><path d="M174.7,78.33a11,11,0,0,1,4.64-.34,5.41,5.41,0,0,0,3.69-.85,26.58,26.58,0,0,1,4.46-2.38c.72-.3,1.47-.57,2.31-.83a5.42,5.42,0,0,0,3-2.31,14.47,14.47,0,0,1,6.8-5.81,14.62,14.62,0,0,1,10.32-.36,5.39,5.39,0,0,0,3.44-10.22,25.42,25.42,0,0,0-28.6,9c-.47.18-.93.36-1.38.55a36.2,36.2,0,0,0-4.62,2.31,21.36,21.36,0,0,0-7.06.87A22,22,0,0,0,156.73,95.3a21.68,21.68,0,0,0,5.09,8.88,5.39,5.39,0,1,0,7.85-7.38,11.22,11.22,0,0,1,5-18.47Z"/><path d="M263.8,70.81a20.78,20.78,0,0,0-6.6,1.07,37.13,37.13,0,0,0-4.72-.85l-1.31-.12a24.19,24.19,0,0,0-36.42,29.75A5.39,5.39,0,0,0,224.47,96a13.41,13.41,0,0,1,21.06-15.78,5.45,5.45,0,0,0,3.5,1.38c.81,0,1.54.06,2.26.14a25.3,25.3,0,0,1,4.59,1,5.36,5.36,0,0,0,3.78-.22,10.08,10.08,0,0,1,4.14-.89,10.2,10.2,0,0,1,9.11,14.83,5.39,5.39,0,1,0,9.61,4.89,21,21,0,0,0-18.72-30.5Z"/><path d="M13.83,250.53a5.38,5.38,0,0,0,5-5.75l-.49-6.93a5.39,5.39,0,0,0-10.75.76l.49,6.93a5.39,5.39,0,0,0,5.37,5Z"/><path d="M266.38,391.9l18.37-259.79a18.69,18.69,0,0,0-18.66-20H18.7a18.69,18.69,0,0,0-18.65,20l5.46,77.28a5.39,5.39,0,0,0,10.76-.76L10.8,131.35a7.93,7.93,0,0,1,7.9-8.48H50l13.68,202a5.39,5.39,0,0,0,5.37,5l.37,0a5.38,5.38,0,0,0,5-5.74L60.83,122.87H104.4l1,28.36a5.4,5.4,0,0,0,5.39,5.2h.2a5.4,5.4,0,0,0,5.19-5.58l-1-28H169.6l-6.43,176a5.38,5.38,0,0,0,5.19,5.58h.2a5.4,5.4,0,0,0,5.39-5.19l6.44-176.36h85.7a7.93,7.93,0,0,1,7.91,8.48L258.28,353.53H236.84a5.39,5.39,0,1,0,0,10.78h20.68l-1.9,26.83a7.59,7.59,0,0,1-7.55,7H36.72a7.58,7.58,0,0,1-7.54-7l-1.9-26.83H213.4a5.37,5.37,0,0,0,1.06-.11c.11,0,.22-.07.33-.1a4.88,4.88,0,0,0,.65-.2c.14-.06.26-.13.39-.2a4.16,4.16,0,0,0,.51-.28,3.17,3.17,0,0,0,.36-.28,3.65,3.65,0,0,0,.43-.35c.11-.11.2-.22.31-.34s.24-.28.35-.43.16-.26.24-.4a4.45,4.45,0,0,0,.26-.48,3.61,3.61,0,0,0,.17-.46c.06-.17.12-.34.17-.52s.06-.33.08-.5,0-.25.06-.38l14.41-212.84a5.39,5.39,0,0,0-10.75-.73L208.36,353.53H172l.7-19.12a5.39,5.39,0,1,0-10.77-.39l-.72,19.51H123.62L117.4,183.36a5.39,5.39,0,1,0-10.77.39l6.21,169.78H26.51l-5.07-71.68a5.39,5.39,0,1,0-10.75.76L18.42,391.9A18.41,18.41,0,0,0,36.72,409H248.07A18.42,18.42,0,0,0,266.38,391.9Z"/></g></g></svg>