<?xml version="1.0" ?><!DOCTYPE svg  PUBLIC '-//W3C//DTD SVG 1.1//EN'  'http://www.w3.org/Graphics/SVG/1.1/DTD/svg11.dtd'><svg height="512px" style="enable-background:new 0 0 512 512;" version="1.1" viewBox="0 0 512 512" width="512px" xml:space="preserve" xmlns="http://www.w3.org/2000/svg" xmlns:xlink="http://www.w3.org/1999/xlink"><g id="Behance__x2C__logo__x2C__social__x2C__media"><g><g><path d="M124.062,22.179h263.569     c56.244,0,102.176,45.945,102.176,102.19v263.262c0,56.244-45.932,102.473-102.176,102.473H124.062     c-55.938,0-102.176-46.229-102.176-102.473V124.369C21.886,68.124,68.124,22.179,124.062,22.179L124.062,22.179z" style="fill-rule:evenodd;clip-rule:evenodd;fill:#C8DFEE;"/></g><g><path d="M400.572,255.998c0,79.804-64.781,144.587-144.586,144.587     c-79.796,0-144.582-64.783-144.582-144.587c0-79.808,64.786-144.584,144.582-144.584     C335.791,111.414,400.572,176.19,400.572,255.998L400.572,255.998z" style="fill-rule:evenodd;clip-rule:evenodd;fill:#FEFEFE;"/></g><g><path d="M405.588,255.998c0,82.742-66.857,149.887-149.602,149.887     c-82.741,0-149.879-67.145-149.879-149.887c0-82.751,67.138-149.891,149.879-149.891     C338.73,106.107,405.588,173.247,405.588,255.998L405.588,255.998z" style="fill-rule:evenodd;clip-rule:evenodd;fill:#0BA2D1;"/></g><g><path d="M222.712,246.575h-27.39v-22.087h27.39     c6.188,0,11.204,5.003,11.204,11.192C233.916,241.564,228.899,246.575,222.712,246.575L222.712,246.575z M261.283,279.554     c0-12.07-7.932-22.377-18.545-25.917c7.65-5.002,12.965-13.545,12.965-23.557c0-15.014-12.375-27.382-27.391-27.382h-54.784     v109.836h54.784C246.271,312.534,261.283,297.805,261.283,279.554L261.283,279.554z M288.674,273.957h60.365     c0-0.884,0-1.768,0-2.648c0-22.674-16.195-41.229-40.928-41.229c-25.031,0-41.229,18.555-41.229,41.229     s16.197,41.226,41.229,41.226c24.732,0,36.523-14.129,40.055-32.98h-22.098c-2.051,9.426-7.951,16.49-17.957,16.49     C297.521,296.044,289.564,286.325,288.674,273.957L288.674,273.957z M326.068,263.063H289.85     c1.182-9.721,8.543-16.488,18.262-16.488C317.527,246.575,324.609,253.343,326.068,263.063L326.068,263.063z M283.383,207.993     h49.182v16.495h-49.182V207.993z M195.322,263.063h27.39c6.188,0,16.501,2.655,16.501,14.14c0,6.18-4.71,13.248-10.9,13.248     h-32.99V263.063z" style="fill-rule:evenodd;clip-rule:evenodd;fill:#FEFEFE;"/></g><g><path d="M124.062,16h8.542h51.821h10.307c3.249,0,6.188,2.65,6.188,6.179l0,0     c0,3.247-2.938,5.896-6.188,5.896h-10.307h-51.821h-8.542c-26.216,0-50.357,10.894-67.725,28.272     C38.97,73.716,28.073,97.86,28.073,124.369v71.554c0.587-0.296,1.177-0.296,1.764-0.296h10.006c3.246,0,5.901,2.647,5.901,5.895     l0,0c0,3.53-2.655,6.179-5.901,6.179H29.837c-0.587,0-1.177,0-1.764-0.294v180.225c0,2.351,0,4.706,0.283,6.764     c0,0,0.304,0,0.587,0h167.556c-17.65-7.647-33.561-18.541-47.112-31.803c-23.841-24.145-39.747-55.948-43.279-91.576H68.124     c-3.242,0-5.903-2.648-5.903-6.19l0,0c0-3.235,2.661-5.884,5.903-5.884h37.093c0-1.178,0-2.06,0-2.943     c0-16.789,2.938-32.979,7.955-48.005H65.469c-3.248,0-5.883-2.941-5.883-6.179l0,0c0-3.247,2.635-6.188,5.883-6.188h51.229     c0.307,0,0.59,0,1.177,0.296c7.672-17.369,18.265-33.275,31.513-46.525c13.552-13.25,29.462-24.145,47.112-31.805h-67.138     c-3.229,0-5.887-2.646-5.887-6.179l0,0c0-3.247,2.658-5.894,5.887-5.894h126.625c41.535,0,79.211,16.79,106.301,43.877     c27.391,27.38,44.176,65.08,44.176,106.601c0,41.514-16.785,79.214-44.176,106.594c-27.09,27.097-64.766,44.174-106.301,44.174     c-1.765,0-3.525-0.294-5.01-0.294c-0.588,0-0.871,0.294-1.175,0.294H29.837c3.836,18.845,13.252,35.635,26.5,48.883     c17.367,17.371,41.509,28.268,67.725,28.268h13.842h19.432h61.849c3.528,0,6.188,2.658,6.188,6.188l0,0     c0,3.235-2.659,5.896-6.188,5.896h-61.849h-19.432h-13.842c-29.741,0-56.828-12.084-76.267-31.806     c-19.722-19.438-31.793-46.535-31.793-76.563V124.369c0-29.745,12.071-56.832,31.793-76.564C67.233,28.074,94.32,16,124.062,16     L124.062,16z M328.141,483.916h-9.719c-3.25,0-5.885,2.658-5.885,6.188l0,0c0,3.235,2.635,5.896,5.885,5.896h9.719     c3.246,0,5.881-2.661,5.881-5.896l0,0C334.021,486.574,331.387,483.916,328.141,483.916L328.141,483.916z M281.025,483.916     h-31.224c-3.225,0-5.887,2.658-5.887,6.188l0,0c0,3.235,2.662,5.896,5.887,5.896h31.224c3.535,0,6.189-2.661,6.189-5.896l0,0     C287.215,486.574,284.561,483.916,281.025,483.916L281.025,483.916z M357.885,483.916h-5.295c-3.25,0-5.904,2.658-5.904,6.188     l0,0c0,3.235,2.654,5.896,5.904,5.896h5.295h26.498h3.248c29.725,0,56.832-12.084,76.553-31.806     c19.439-19.438,31.814-46.535,31.814-76.563V124.369c0-29.745-12.375-56.832-31.814-76.564     C445.332,29.252,420.01,17.176,392.033,16c-0.287,0-0.588,0-0.873,0h-3.529H376.43H264.531c-3.248,0-5.887,2.65-5.887,6.179l0,0     c0,3.247,2.639,5.896,5.887,5.896H376.43h11.201c26.496,0,50.338,10.894,68.008,28.272     c17.367,17.369,28.268,41.514,28.268,68.022v263.262c0,26.499-10.9,50.641-28.268,68.018     c-17.67,17.371-41.512,28.268-68.008,28.268h-3.248H357.885z M223.606,16h15.016c3.222,0,5.884,2.65,5.884,6.179l0,0     c0,3.247-2.662,5.896-5.884,5.896h-15.016c-3.249,0-5.904-2.648-5.904-5.896l0,0C217.702,18.65,220.357,16,223.606,16L223.606,16     z M47.512,258.941H39.56c-3.248,0-5.887,2.648-5.887,5.884l0,0c0,3.542,2.639,6.19,5.887,6.19h7.952     c3.225,0,5.883-2.648,5.883-6.19l0,0C53.395,261.59,50.736,258.941,47.512,258.941L47.512,258.941z M99.026,105.521H81.659     c-3.229,0-6.188,2.646-6.188,5.894l0,0c0,3.532,2.959,6.179,6.188,6.179h17.367c3.553,0,6.19-2.646,6.19-6.179l0,0     C105.217,108.167,102.579,105.521,99.026,105.521L99.026,105.521z M353.766,354.06c25.02-25.035,40.619-59.783,40.619-98.062     c0-38.285-15.6-72.736-40.619-97.764c-25.035-25.028-59.488-40.642-97.779-40.642c-38.284,0-73.025,15.613-98.058,40.642     c-25.018,25.027-40.338,59.479-40.338,97.764c0,38.278,15.32,73.026,40.338,98.062c25.032,25.029,59.773,40.335,98.058,40.335     C294.277,394.395,328.73,379.089,353.766,354.06L353.766,354.06z" style="fill:#0BA2D1;"/></g></g></g><g id="Layer_1"/></svg>