<?xml version="1.0" ?><!DOCTYPE svg  PUBLIC '-//W3C//DTD SVG 1.1//EN'  'http://www.w3.org/Graphics/SVG/1.1/DTD/svg11.dtd'><svg height="512px" style="enable-background:new 0 0 512 512;" version="1.1" viewBox="0 0 512 512" width="512px" xml:space="preserve" xmlns="http://www.w3.org/2000/svg" xmlns:xlink="http://www.w3.org/1999/xlink"><g id="dropbox__x2C__google__x2C_social__x2C__media_x2C_"><g><g><path d="M124.062,22.19h263.569     c56.244,0,102.176,45.935,102.176,102.18v263.257c0,56.246-45.932,102.184-102.176,102.184H124.062     c-55.938,0-102.176-45.938-102.176-102.184V124.37C21.886,68.125,68.124,22.19,124.062,22.19L124.062,22.19z" style="fill-rule:evenodd;clip-rule:evenodd;fill:#C9D8EE;"/></g><g><path d="M400.572,256c0,79.798-64.781,144.585-144.586,144.585     c-79.796,0-144.582-64.787-144.582-144.585c0-79.799,64.786-144.589,144.582-144.589     C335.791,111.412,400.572,176.202,400.572,256L400.572,256z" style="fill-rule:evenodd;clip-rule:evenodd;fill:#FEFEFE;"/></g><g><path d="M405.588,256c0,82.74-66.857,149.888-149.602,149.888     c-82.741,0-149.879-67.148-149.879-149.888c0-82.755,67.138-149.893,149.879-149.893C338.73,106.108,405.588,173.246,405.588,256     L405.588,256z" style="fill-rule:evenodd;clip-rule:evenodd;fill:#4188C8;"/></g><g><path d="M314.887,241.571l38.293-30.625l-55.375-36.219     l-38.572,32.383l-38.875-32.383l-55.371,36.219l38.287,30.625l-38.287,30.619l55.371,36.23l38.875-32.395l38.572,32.395     l55.375-36.23L314.887,241.571z M314.887,304.287l-16.777,10.896l-38.877-32.391l-38.875,32.391l-16.493-10.896v12.072     l55.368,33.277l55.654-33.277V304.287z M259.232,207.11l55.654,34.461l-55.654,34.455l-55.959-34.455L259.232,207.11z" style="fill-rule:evenodd;clip-rule:evenodd;fill:#FEFEFE;"/></g><g><path d="M124.062,16.002h8.542h51.821h10.307c3.249,0,6.188,2.645,6.188,6.188l0,0     c0,3.235-2.938,5.883-6.188,5.883h-10.307h-51.821h-8.542c-26.216,0-50.357,10.897-67.725,28.274     C38.97,73.715,28.073,97.874,28.073,124.37v71.257c0.587,0,1.177,0,1.764,0h10.006c3.246,0,5.901,2.658,5.901,5.894l0,0     c0,3.528-2.655,6.188-5.901,6.188H29.837c-0.587,0-1.177,0-1.764-0.304v180.223c0,2.359,0,4.707,0.283,6.768c0,0,0.304,0,0.587,0     h167.556c-17.65-7.646-33.561-18.541-47.112-31.793c-23.841-24.154-39.747-55.951-43.279-91.59H68.124     c-3.242,0-5.903-2.646-5.903-6.176l0,0c0-3.246,2.661-5.895,5.903-5.895h37.093c0-1.178,0-2.061,0-2.941     c0-16.791,2.938-32.98,7.955-47.996H65.469c-3.248,0-5.883-2.956-5.883-6.188l0,0c0-3.238,2.635-6.19,5.883-6.19h51.229     c0.307,0,0.59,0,1.177,0.293c7.672-17.367,18.265-33.273,31.513-46.524c13.552-13.249,29.462-24.146,47.112-31.804h-67.138     c-3.229,0-5.887-2.647-5.887-6.18l0,0c0-3.246,2.658-5.891,5.887-5.891h126.625c41.535,0,79.211,16.787,106.301,43.874     c27.391,27.394,44.176,65.079,44.176,106.605c0,41.521-16.785,79.208-44.176,106.601c-27.09,27.088-64.766,44.172-106.301,44.172     c-1.765,0-3.525-0.295-5.01-0.295c-0.588,0-0.871,0.295-1.175,0.295H29.837c3.836,18.838,13.252,35.627,26.5,48.879     c17.367,17.375,41.509,28.271,67.725,28.271h13.842h19.432h61.849c3.528,0,6.188,2.648,6.188,5.887l0,0     c0,3.529-2.659,6.188-6.188,6.188h-61.849h-19.432h-13.842c-29.741,0-56.828-12.074-76.267-31.807     c-19.722-19.732-31.793-46.525-31.793-76.564V124.37c0-29.745,12.071-56.832,31.793-76.564     C67.233,28.073,94.32,16.002,124.062,16.002L124.062,16.002z M328.141,483.924h-9.719c-3.25,0-5.885,2.648-5.885,5.887l0,0     c0,3.529,2.635,6.188,5.885,6.188h9.719c3.246,0,5.881-2.658,5.881-6.188l0,0C334.021,486.572,331.387,483.924,328.141,483.924     L328.141,483.924z M281.025,483.924h-31.224c-3.225,0-5.887,2.648-5.887,5.887l0,0c0,3.529,2.662,6.188,5.887,6.188h31.224     c3.535,0,6.189-2.658,6.189-6.188l0,0C287.215,486.572,284.561,483.924,281.025,483.924L281.025,483.924z M357.885,483.924     h-5.295c-3.25,0-5.904,2.648-5.904,5.887l0,0c0,3.529,2.654,6.188,5.904,6.188h5.295h26.498h3.248     c29.725,0,56.832-12.074,76.553-31.807c19.439-19.732,31.814-46.525,31.814-76.564V124.37c0-29.745-12.375-56.832-31.814-76.564     c-18.852-18.555-44.174-30.629-72.15-31.803c-0.287,0-0.588,0-0.873,0h-3.529H376.43H264.531c-3.248,0-5.887,2.645-5.887,6.188     l0,0c0,3.235,2.639,5.883,5.887,5.883H376.43h11.201c26.496,0,50.338,10.897,68.008,28.274     c17.367,17.367,28.268,41.526,28.268,68.022v263.257c0,26.5-10.9,50.645-28.268,68.025     c-17.67,17.375-41.512,28.271-68.008,28.271h-3.248H357.885z M223.606,16.002h15.016c3.222,0,5.884,2.645,5.884,6.188l0,0     c0,3.235-2.662,5.883-5.884,5.883h-15.016c-3.249,0-5.904-2.648-5.904-5.883l0,0C217.702,18.647,220.357,16.002,223.606,16.002     L223.606,16.002z M47.512,258.941H39.56c-3.248,0-5.887,2.648-5.887,5.895l0,0c0,3.529,2.639,6.176,5.887,6.176h7.952     c3.225,0,5.883-2.646,5.883-6.176l0,0C53.395,261.59,50.736,258.941,47.512,258.941L47.512,258.941z M99.026,105.521H81.659     c-3.229,0-6.188,2.645-6.188,5.891l0,0c0,3.532,2.959,6.18,6.188,6.18h17.367c3.553,0,6.19-2.647,6.19-6.18l0,0     C105.217,108.166,102.579,105.521,99.026,105.521L99.026,105.521z M353.766,354.061c25.02-25.322,40.619-59.783,40.619-98.06     c0-38.291-15.6-72.742-40.619-97.768c-25.035-25.028-59.488-40.642-97.779-40.642c-38.284,0-73.025,15.613-98.058,40.642     c-25.018,25.025-40.338,59.477-40.338,97.768c0,38.277,15.32,72.738,40.338,98.06c25.032,25.025,59.773,40.334,98.058,40.334     C294.277,394.395,328.73,379.086,353.766,354.061L353.766,354.061z" style="fill:#4188C8;"/></g></g></g><g id="Layer_1"/></svg>