<?xml version="1.0" ?><!DOCTYPE svg  PUBLIC '-//W3C//DTD SVG 1.1//EN'  'http://www.w3.org/Graphics/SVG/1.1/DTD/svg11.dtd'><svg height="512px" style="enable-background:new 0 0 512 512;" version="1.1" viewBox="0 0 512 512" width="512px" xml:space="preserve" xmlns="http://www.w3.org/2000/svg" xmlns:xlink="http://www.w3.org/1999/xlink"><g id="evernote__x2C__icons__x2C__social__x2C__media"><g><g><path d="M124.369,22.19H387.92     c56.246,0,102.193,45.935,102.193,102.18v263.257c0,56.246-45.947,102.184-102.193,102.184H124.369     c-56.245,0-102.18-45.938-102.18-102.184V124.37C22.189,68.125,68.124,22.19,124.369,22.19L124.369,22.19z" style="fill-rule:evenodd;clip-rule:evenodd;fill:#BFCDAE;"/></g><g><path d="M400.586,256c0,79.798-64.777,144.585-144.586,144.585     c-79.803,0-144.296-64.787-144.296-144.585c0-79.799,64.493-144.589,144.296-144.589     C335.809,111.412,400.586,176.202,400.586,256L400.586,256z" style="fill-rule:evenodd;clip-rule:evenodd;fill:#FEFEFE;"/></g><g><path d="M405.889,256c0,82.74-67.139,149.888-149.889,149.888     c-82.744,0-149.589-67.148-149.589-149.888c0-82.755,66.845-149.893,149.589-149.893C338.75,106.108,405.889,173.246,405.889,256     L405.889,256z" style="fill-rule:evenodd;clip-rule:evenodd;fill:#619543;"/></g><g><path d="M298.699,260.115c-3.234-1.764-12.955-2.352-18.25-0.881     c-2.068-3.531,1.471-11.776,10.893-10.896C300.463,248.929,299.287,258.941,298.699,260.115L298.699,260.115z M207.71,209.181     c2.645-1.777,2.058-27.687,0-28.273c-1.768-0.587-27.98,27.684-27.98,28.273C179.729,209.475,205.355,210.946,207.71,209.181     L207.71,209.181z M321.666,216.83c0,0,2.953-25.909-20.611-27.38c-23.563-1.178-27.678-1.472-37.984-2.062     c-1.768-18.555-48.583-16.791-48.583-4.423c0,12.661,0.294,23.558-2.368,28.273c-2.352,4.416-13.248,2.059-25.909,2.355     c-7.364,0-10.013,5.894-10.894,8.538c-2.061,7.662,8.836,60.071,12.071,65.081c4.706,8.248,50.361,16.779,56.244,13.252     c5.891-3.826,6.484-18.555,7.658-18.555c1.178,0,2.648,8.541,6.474,9.719c10.604,3.832,24.449,5.6,30.332,8.836     c6.484,3.527,9.129,25.615,3.246,30.332c-4.129,2.941-11.188,1.176-19.436,1.176c-8.541,0-7.365-12.953-3.246-13.248     c3.539,0,8.539,0,8.539,0s0-10.602,0-12.965c-5.293,0.295-18.838-2.354-27.083,9.721c-3.836,5.596-3.249,24.742,5.297,31.508     c10.306,8.246,41.226,7.365,44.46,5.602C332.854,334.035,321.666,216.83,321.666,216.83L321.666,216.83z" style="fill-rule:evenodd;clip-rule:evenodd;fill:#FEFEFE;"/></g><g><path d="M124.369,16.002h8.542h51.828h10.31c3.235,0,5.884,2.645,5.884,6.188l0,0     c0,3.235-2.648,5.883-5.884,5.883h-10.31h-51.828h-8.542c-26.5,0-50.348,10.897-68.019,28.274     C38.979,73.715,28.377,97.874,28.377,124.37v71.257c0.297,0,0.884,0,1.471,0H39.86c3.528,0,6.177,2.658,6.177,5.894l0,0     c0,3.528-2.648,6.188-6.177,6.188H29.848c-0.587,0-1.174,0-1.471-0.304v180.223c0,2.359,0,4.707,0,6.768c0.297,0,0.59,0,0.59,0     H196.81c-17.667-7.646-33.86-18.541-47.108-31.793c-24.155-24.154-40.052-55.951-43.584-91.59H68.418     c-3.235,0-6.178-2.646-6.178-6.176l0,0c0-3.246,2.942-5.895,6.178-5.895h37.109c0-1.178,0-2.061,0-2.941     c0-16.791,2.651-32.98,7.944-47.996H65.77c-3.235,0-6.188-2.956-6.188-6.188l0,0c0-3.238,2.952-6.19,6.188-6.19h50.951     c0.587,0,0.881,0,1.174,0.293c7.651-17.367,18.545-33.273,31.807-46.524c13.248-13.249,29.441-24.146,47.108-31.804h-67.134     c-3.239,0-6.191-2.647-6.191-6.18l0,0c0-3.246,2.952-5.891,6.191-5.891H256c41.816,0,79.219,16.787,106.6,43.874     c27.383,27.394,44.174,65.079,44.174,106.605c0,41.521-16.791,79.208-44.174,106.601c-27.381,27.088-64.783,44.172-106.6,44.172     c-1.475,0-3.235-0.295-5.003-0.295c-0.294,0-0.588,0.295-0.881,0.295H30.145c3.825,18.838,13.244,35.627,26.206,48.879     c17.671,17.375,41.519,28.271,68.019,28.271h13.845h19.432h61.842c3.238,0,6.188,2.648,6.188,5.887l0,0     c0,3.529-2.949,6.188-6.188,6.188h-61.842h-19.432h-13.845c-29.735,0-56.832-12.074-76.564-31.807     c-19.428-19.732-31.803-46.525-31.803-76.564V124.37c0-29.745,12.375-56.832,31.803-76.564     C67.537,28.073,94.634,16.002,124.369,16.002L124.369,16.002z M328.15,483.924h-9.426c-3.234,0-6.189,2.648-6.189,5.887l0,0     c0,3.529,2.955,6.188,6.189,6.188h9.426c3.529,0,6.178-2.658,6.178-6.188l0,0C334.328,486.572,331.68,483.924,328.15,483.924     L328.15,483.924z M281.328,483.924h-31.212c-3.249,0-6.19,2.648-6.19,5.887l0,0c0,3.529,2.941,6.188,6.19,6.188h31.212     c3.236,0,6.178-2.658,6.178-6.188l0,0C287.506,486.572,284.564,483.924,281.328,483.924L281.328,483.924z M357.893,483.924h-5.01     c-3.238,0-6.18,2.648-6.18,5.887l0,0c0,3.529,2.941,6.188,6.18,6.188h5.01h26.793h3.234c29.746,0,56.836-12.074,76.275-31.807     c19.729-19.732,31.803-46.525,31.803-76.564V124.37c0-29.745-12.074-56.832-31.803-76.564     c-18.545-18.555-43.877-30.629-71.852-31.803c-0.293,0-0.881,0-1.174,0h-3.25h-11.186H264.836c-3.24,0-6.182,2.645-6.182,6.188     l0,0c0,3.235,2.941,5.883,6.182,5.883h111.898h11.186c26.217,0,50.365,10.897,67.729,28.274     c17.379,17.367,28.275,41.526,28.275,68.022v263.257c0,26.5-10.896,50.645-28.275,68.025     c-17.363,17.375-41.512,28.271-67.729,28.271h-3.234H357.893z M223.899,16.002h14.729c3.536,0,6.177,2.645,6.177,6.188l0,0     c0,3.235-2.641,5.883-6.177,5.883h-14.729c-3.234,0-6.177-2.648-6.177-5.883l0,0C217.723,18.647,220.665,16.002,223.899,16.002     L223.899,16.002z M47.512,258.941H39.86c-3.539,0-6.188,2.648-6.188,5.895l0,0c0,3.529,2.648,6.176,6.188,6.176h7.651     c3.539,0,6.188-2.646,6.188-6.176l0,0C53.699,261.59,51.051,258.941,47.512,258.941L47.512,258.941z M99.344,105.521H81.963     c-3.532,0-6.181,2.645-6.181,5.891l0,0c0,3.532,2.648,6.18,6.181,6.18h17.381c3.235,0,6.184-2.647,6.184-6.18l0,0     C105.527,108.166,102.579,105.521,99.344,105.521L99.344,105.521z M354.061,354.061c25.027-25.322,40.639-59.783,40.639-98.06     c0-38.291-15.611-72.742-40.639-97.768c-25.029-25.028-59.773-40.642-98.061-40.642c-38.277,0-72.731,15.613-97.768,40.642     c-25.028,25.025-40.631,59.477-40.631,97.768c0,38.277,15.603,72.738,40.631,98.06c25.036,25.025,59.49,40.334,97.768,40.334     C294.287,394.395,329.031,379.086,354.061,354.061L354.061,354.061z" style="fill:#619543;"/></g></g></g><g id="Layer_1"/></svg>