<?xml version="1.0" ?><!DOCTYPE svg  PUBLIC '-//W3C//DTD SVG 1.1//EN'  'http://www.w3.org/Graphics/SVG/1.1/DTD/svg11.dtd'><svg height="512px" style="enable-background:new 0 0 512 512;" version="1.1" viewBox="0 0 512 512" width="512px" xml:space="preserve" xmlns="http://www.w3.org/2000/svg" xmlns:xlink="http://www.w3.org/1999/xlink"><g id="dribbble__x2C__social__x2C__media_x2C__icons__x2C_"><g><g><path d="M124.37,22.189h263.257     c56.242,0,102.477,45.938,102.477,102.18v263.255c0,56.258-46.234,102.192-102.477,102.192H124.37     c-56.244,0-102.183-45.935-102.183-102.192V124.369C22.188,68.127,68.126,22.189,124.37,22.189L124.37,22.189z" style="fill-rule:evenodd;clip-rule:evenodd;fill:#FBD9E2;"/></g><g><path d="M400.582,255.996c0,79.816-64.783,144.593-144.582,144.593     c-79.8,0-144.588-64.776-144.588-144.593c0-79.799,64.788-144.585,144.588-144.585     C335.799,111.411,400.582,176.197,400.582,255.996L400.582,255.996z" style="fill-rule:evenodd;clip-rule:evenodd;fill:#FEFEFE;"/></g><g><path d="M405.879,255.996c0,82.755-67.139,149.893-149.879,149.893     c-82.753,0-149.893-67.138-149.893-149.893c0-82.744,67.14-149.879,149.893-149.879     C338.74,106.117,405.879,173.252,405.879,255.996L405.879,255.996z" style="fill-rule:evenodd;clip-rule:evenodd;fill:#F06FA5;"/></g><g><path d="M279.848,252.761c-0.586-1.474-0.881-2.938-1.467-4.119     c-1.178-2.952-2.652-5.6-3.83-8.245c-0.594-1.181-0.887-2.357-1.477-3.242c31.215-12.66,43.877-30.919,43.877-31.216     c9.719,11.781,16.199,26.797,17.67,42.997c0.293,2.062,0.293,4.119,0.293,6.18C333.738,255.115,306.938,249.229,279.848,252.761     L279.848,252.761z M300.17,321.37c-0.883-4.706-5.014-27.968-15.318-56.245c25.332-4.119,47.416,2.955,49.184,3.543     C330.506,290.458,317.83,309.589,300.17,321.37L300.17,321.37z M256,334.925c-18.264,0-35.042-6.188-48.596-16.787l0,0     c0,0-0.589-0.594-1.764-1.181c0.587,0.294,1.175,0.881,1.764,1.181c0.294-0.3,15.613-32.987,62.137-49.177     c0,0,0.293-0.293,0.588-0.293c10.9,28.851,15.615,52.999,16.789,60.069C277.496,332.557,266.893,334.925,256,334.925L256,334.925     z M197.4,308.712c-12.672-13.845-20.319-32.396-20.319-52.716c0-0.881,0-1.765,0-2.354c1.473,0,40.63,0.88,80.978-11.483     c2.354,4.423,4.705,9.129,6.482,13.541c-0.883,0.297-2.07,0.591-2.951,0.884C218.887,270.436,197.4,308.712,197.4,308.712     L197.4,308.712L197.4,308.712z M222.428,184.739c0.884,1.178,15.604,21.199,29.147,45.352     c-37.689,10.013-70.67,9.712-72.728,9.712C183.849,215.368,200.346,195.046,222.428,184.739L222.428,184.739z M237.149,179.433     L237.149,179.433c0,0,0,0-0.295,0H237.149L237.149,179.433z M256,177.078c20.025,0,38.277,7.367,52.125,19.731     c-0.293,0.297-11.486,17.385-41.232,28.568c-13.541-24.742-28.272-44.461-29.449-45.945     C243.339,177.962,249.518,177.078,256,177.078L256,177.078z M348.457,252.464c-0.295-4.999-0.881-10.009-2.055-15.013     c-1.182-5.896-2.945-11.776-5.297-17.377c-2.365-5.594-5.014-10.9-8.545-15.603c-3.236-5.014-7.068-9.72-11.188-13.853     c-4.129-4.115-8.838-7.938-13.541-11.187c-5.014-3.235-10.311-6.181-15.91-8.535c-5.59-2.361-11.484-4.123-17.371-5.304     c-5.891-1.467-12.373-2.058-18.551-2.058c-6.189,0-12.368,0.591-18.557,2.058c-5.886,1.181-11.777,2.942-17.367,5.304     c-5.603,2.354-10.896,5.3-15.615,8.535c-5.001,3.249-9.718,7.071-13.835,11.187c-4.119,4.133-7.953,8.839-11.191,13.853     c-3.234,4.702-6.188,10.009-8.544,15.603c-2.35,5.601-4.117,11.48-5.295,17.377c-1.176,4.707-1.772,9.42-1.772,14.133     c0,1.471-0.296,2.938-0.296,4.412c0,6.19,0.893,12.672,2.068,18.555c1.178,5.897,2.945,11.777,5.295,17.378     c2.356,5.59,5.31,10.893,8.544,15.606c3.238,5.006,7.072,9.716,11.191,13.835c4.117,4.133,8.834,7.951,13.835,11.187     c4.719,3.256,10.013,6.194,15.615,8.545c5.59,2.352,11.481,4.13,17.367,5.307c6.188,1.472,12.367,2.062,18.557,2.062     c6.178,0,12.66-0.59,18.551-2.062c5.887-1.177,11.781-2.955,17.371-5.307c5.6-2.351,10.896-5.289,15.91-8.545     c4.703-3.235,9.412-7.054,13.541-11.187c4.119-4.119,7.951-8.829,11.188-13.835c3.531-4.714,6.18-10.017,8.545-15.606     c2.352-5.601,4.115-11.48,5.297-17.378c1.467-5.883,2.055-12.364,2.055-18.555C348.457,254.818,348.457,253.642,348.457,252.464     L348.457,252.464z" style="fill-rule:evenodd;clip-rule:evenodd;fill:#FEFEFE;"/></g><g><path d="M124.37,16.006h8.539h51.819h10.309c3.247,0,5.896,2.651,5.896,6.184l0,0     c0,3.232-2.648,5.89-5.896,5.89h-10.309h-51.819h-8.539c-26.51,0-50.656,10.897-68.023,28.264     C38.97,73.721,28.071,97.866,28.071,124.369v71.267c0.59,0,1.179,0,1.768,0h10.013c3.235,0,6.189,2.646,6.189,5.88l0,0     c0,3.543-2.954,6.191-6.189,6.191H29.839c-0.589,0-1.178,0-1.768-0.294v180.211c0,2.364,0.297,4.723,0.297,6.78     c0.293,0,0.293,0,0.589,0h167.846c-17.955-7.657-33.864-18.558-47.407-31.81c-23.85-24.145-39.747-55.944-43.288-91.572H68.419     c-3.245,0-6.188-2.648-6.188-6.194l0,0c0-3.235,2.943-5.877,6.188-5.877h37.102c0-1.181,0-2.061,0-2.955     c0-16.78,2.646-32.98,7.658-48.289H65.77c-3.539,0-6.188-2.648-6.188-5.895l0,0c0-3.238,2.648-6.177,6.188-6.177h50.941     c0.587,0,0.88,0,1.174,0.294c7.661-17.381,18.555-33.274,31.511-46.525c13.543-13.245,29.452-24.148,47.407-31.807h-67.138     c-3.532,0-6.179-2.645-6.179-6.187l0,0c0-3.235,2.646-5.888,6.179-5.888H256c41.521,0,79.209,16.784,106.6,43.881     c27.09,27.384,44.174,65.076,44.174,106.592c0,41.522-17.084,79.219-44.174,106.599c-27.391,27.101-65.078,43.884-106.6,43.884     c-1.767,0-3.237,0-5.012,0c-0.296,0-0.589,0-1.178,0H30.133c3.836,19.139,13.26,35.922,26.214,49.177     c17.367,17.371,41.514,28.268,68.023,28.268h13.839h19.436h61.843c3.235,0,5.885,2.645,5.885,5.894l0,0     c0,3.529-2.649,6.178-5.885,6.178h-61.843h-19.436H124.37c-29.746,0-56.833-12.071-76.565-31.804     c-19.733-19.718-31.803-46.818-31.803-76.566V124.369c0-29.738,12.069-56.835,31.803-76.564     C67.537,28.08,94.624,16.006,124.37,16.006L124.37,16.006z M328.137,483.923h-9.412c-3.541,0-6.189,2.645-6.189,5.894l0,0     c0,3.529,2.648,6.178,6.189,6.178h9.412c3.25,0,6.191-2.648,6.191-6.178l0,0C334.328,486.567,331.387,483.923,328.137,483.923     L328.137,483.923z M281.322,483.923h-31.218c-3.53,0-6.179,2.645-6.179,5.894l0,0c0,3.529,2.648,6.178,6.179,6.178h31.218     c3.234,0,5.891-2.648,5.891-6.178l0,0C287.213,486.567,284.557,483.923,281.322,483.923L281.322,483.923z M357.883,483.923h-5     c-3.246,0-6.188,2.645-6.188,5.894l0,0c0,3.529,2.941,6.178,6.188,6.178h5h26.51h3.234c30.039,0,57.129-12.071,76.568-31.804     c19.729-19.718,31.803-46.818,31.803-76.566V124.369c0-29.738-12.074-56.835-31.803-76.564     c-18.559-18.544-43.877-30.625-71.859-31.799c-0.586,0-0.883,0-1.176,0h-3.533h-10.893H264.836c-3.539,0-6.189,2.651-6.189,6.184     l0,0c0,3.232,2.65,5.89,6.189,5.89h111.898h10.893c26.5,0,50.645,10.897,68.025,28.264     c17.375,17.377,28.271,41.522,28.271,68.025v263.255c0,26.513-10.896,50.654-28.271,68.031     c-17.381,17.371-41.525,28.268-68.025,28.268h-3.234H357.883z M223.899,16.006h14.721c3.247,0,6.188,2.651,6.188,6.184l0,0     c0,3.232-2.94,5.89-6.188,5.89h-14.721c-3.528,0-6.188-2.658-6.188-5.89l0,0C217.711,18.657,220.371,16.006,223.899,16.006     L223.899,16.006z M47.512,258.951h-7.66c-3.532,0-6.179,2.642-6.179,5.877l0,0c0,3.546,2.646,6.194,6.179,6.194h7.66     c3.235,0,6.179-2.648,6.179-6.194l0,0C53.69,261.593,50.747,258.951,47.512,258.951L47.512,258.951z M99.34,105.523H81.669     c-3.238,0-5.896,2.652-5.896,5.888l0,0c0,3.542,2.657,6.187,5.896,6.187H99.34c3.237,0,5.886-2.645,5.886-6.187l0,0     C105.226,108.176,102.577,105.523,99.34,105.523L99.34,105.523z M354.061,353.763c25.027-25.025,40.338-59.483,40.338-97.767     c0-38.276-15.311-72.728-40.338-97.757c-25.039-25.335-59.783-40.642-98.061-40.642c-38.289,0-72.74,15.307-97.769,40.642     c-25.025,25.029-40.641,59.48-40.641,97.757c0,38.283,15.615,72.741,40.641,97.767c25.028,25.333,59.479,40.642,97.769,40.642     C294.277,394.404,329.021,379.096,354.061,353.763L354.061,353.763z" style="fill:#F06FA5;"/></g></g></g><g id="Layer_1"/></svg>