<?xml version="1.0" ?><!DOCTYPE svg  PUBLIC '-//W3C//DTD SVG 1.1//EN'  'http://www.w3.org/Graphics/SVG/1.1/DTD/svg11.dtd'><svg height="512px" style="enable-background:new 0 0 512 512;" version="1.1" viewBox="0 0 512 512" width="512px" xml:space="preserve" xmlns="http://www.w3.org/2000/svg" xmlns:xlink="http://www.w3.org/1999/xlink"><g id="skype__x2C__social__x2C_media__x2C__icons"><g><g><path d="M124.369,22.19h263.257     c56.241,0,102.477,45.935,102.477,102.18v263.257c0,56.246-46.235,102.184-102.477,102.184H124.369     c-56.245,0-102.183-45.938-102.183-102.184V124.37C22.187,68.125,68.125,22.19,124.369,22.19L124.369,22.19z" style="fill-rule:evenodd;clip-rule:evenodd;fill:#D1EDF5;"/></g><g><path d="M400.58,256c0,79.798-64.782,144.585-144.582,144.585     S111.411,335.799,111.411,256c0-79.799,64.788-144.589,144.587-144.589S400.58,176.202,400.58,256L400.58,256z" style="fill-rule:evenodd;clip-rule:evenodd;fill:#FEFEFE;"/></g><g><path d="M405.877,256c0,82.74-67.138,149.888-149.878,149.888     c-82.753,0-149.892-67.148-149.892-149.888c0-82.755,67.139-149.893,149.892-149.893     C338.739,106.108,405.877,173.246,405.877,256L405.877,256z" style="fill-rule:evenodd;clip-rule:evenodd;fill:#30C4EE;"/></g><g><path d="M301.347,293.1c-4.123,5.303-9.72,9.719-17.378,12.66     c-7.357,3.246-16.193,4.717-26.206,4.717c-12.368,0-22.38-2.057-30.333-6.189c-5.884-3.236-10.6-7.352-14.132-12.365     c-3.53-5.002-5.305-10.012-5.305-15.016c0-2.941,1.186-5.598,3.541-7.951c2.352-2.063,5.296-3.238,8.837-3.238     c2.94,0,5.294,0.883,7.353,2.648c2.061,1.471,3.541,4.121,5.012,7.07c1.474,3.531,3.237,6.18,5.001,8.531     c1.473,2.072,3.836,4.129,7.071,5.307c2.941,1.471,7.061,2.355,12.072,2.355c7.071,0,12.954-1.471,17.077-4.416     c4.423-2.949,6.48-6.188,6.48-10.6c0-3.246-1.177-5.602-3.532-7.658c-2.058-2.355-5.303-3.826-8.832-5.004     c-3.829-1.178-9.132-2.361-15.604-3.836c-8.837-1.764-16.203-4.115-22.085-6.47c-6.189-2.658-11.204-6.187-14.731-10.603     c-1.179-1.472-2.061-2.952-2.942-4.717c-1.473-3.528-2.354-7.354-2.354-12.074c0-6.177,1.766-11.777,5.592-16.776     c3.834-4.717,9.424-8.542,16.493-11.19c7.063-2.658,15.308-3.832,24.733-3.832c7.66,0,14.428,0.88,19.73,2.654     c5.594,1.472,10.307,3.826,14.132,6.768c3.826,2.942,6.484,5.894,8.249,9.133c1.768,3.235,2.648,6.48,2.648,9.419     c0,2.945-1.175,5.593-3.529,7.955c-2.368,2.651-5.307,3.825-8.542,3.825c-3.238,0-5.6-0.88-7.364-2.352     c-1.768-1.474-3.238-3.538-5.003-6.777c-2.354-3.825-4.717-6.777-7.662-9.132c-2.941-2.059-7.657-3.235-14.13-3.235     c-6.187,0-10.896,1.177-14.731,3.532c-3.53,2.361-5.294,5.01-5.294,7.951c0,2.058,0.587,3.528,1.764,5.003     c1.177,1.481,2.942,2.658,5.012,3.836c2.353,0.881,4.708,1.765,6.767,2.645c0.589,0,0.882,0,1.471,0.294     c2.364,0.59,5.894,1.475,10.31,2.354c6.774,1.471,13.248,3.245,18.846,5.014c5.604,1.764,10.31,3.825,14.429,6.474     c4.129,2.655,7.071,5.891,9.422,9.716c2.355,4.129,3.532,9.133,3.532,14.729C307.229,281.322,305.169,287.51,301.347,293.1     L301.347,293.1z M340.517,271.012c1.175-5.883,2.055-11.777,2.055-17.957c0-2.068-0.293-4.126-0.293-6.188     c-3.246-43.29-39.755-77.154-84.516-77.154c-4.708,0-9.721,0.297-14.425,1.178c-7.66-4.706-16.497-7.354-26.215-7.354     c-27.086,0-48.878,21.486-48.878,48.293c0,8.836,2.351,17.367,6.766,24.438c-0.589,2.941-1.176,6.188-1.471,9.422     c-0.293,2.355-0.293,5.004-0.293,7.365c0,46.232,37.992,83.625,84.517,83.625c5.293,0,10.604-0.588,15.603-1.471     c6.774,3.531,14.729,5.6,23.271,5.6c27.087,0,48.88-21.492,48.88-48.299C345.517,284.861,343.752,277.496,340.517,271.012     L340.517,271.012z" style="fill-rule:evenodd;clip-rule:evenodd;fill:#FEFEFE;"/></g><g><path d="M124.369,16.002h8.539h51.82h10.308c3.248,0,5.896,2.645,5.896,6.188l0,0     c0,3.235-2.648,5.883-5.896,5.883h-10.308h-51.82h-8.539c-26.51,0-50.656,10.897-68.023,28.274     C38.968,73.715,28.07,97.874,28.07,124.37v71.257c0.59,0,1.179,0,1.768,0h10.013c3.235,0,6.189,2.658,6.189,5.894l0,0     c0,3.528-2.954,6.188-6.189,6.188H29.838c-0.589,0-1.178,0-1.768-0.304v180.223c0,2.359,0.297,4.707,0.297,6.768     c0.293,0,0.293,0,0.589,0h167.846c-17.956-7.646-33.864-18.541-47.407-31.793c-23.85-24.154-39.748-55.951-43.288-91.59H68.418     c-3.245,0-6.188-2.646-6.188-6.176l0,0c0-3.246,2.943-5.895,6.188-5.895h37.101c0-1.178,0-2.061,0-2.941     c0-16.791,2.647-32.98,7.658-47.996H65.768c-3.539,0-6.187-2.956-6.187-6.188l0,0c0-3.238,2.648-6.19,6.187-6.19h50.941     c0.587,0,0.88,0,1.174,0.293c7.662-17.367,18.555-33.273,31.511-46.524c13.543-13.249,29.452-24.146,47.407-31.804h-67.138     c-3.532,0-6.179-2.647-6.179-6.18l0,0c0-3.246,2.646-5.891,6.179-5.891h126.334c41.522,0,79.208,16.787,106.599,43.874     c27.09,27.394,44.174,65.079,44.174,106.605c0,41.521-17.084,79.208-44.174,106.601c-27.391,27.088-65.077,44.172-106.599,44.172     c-1.766,0-3.237-0.295-5.012-0.295c-0.295,0-0.588,0.295-1.177,0.295H30.131c3.836,18.838,13.26,35.627,26.214,48.879     c17.367,17.375,41.514,28.271,68.023,28.271h13.838h19.436h61.843c3.235,0,5.885,2.648,5.885,5.887l0,0     c0,3.529-2.65,6.188-5.885,6.188h-61.843h-19.436h-13.838c-29.747,0-56.833-12.074-76.565-31.807     c-19.734-19.732-31.803-46.525-31.803-76.564V124.37c0-29.745,12.069-56.832,31.803-76.564     C67.536,28.073,94.623,16.002,124.369,16.002L124.369,16.002z M328.136,483.924h-9.412c-3.542,0-6.19,2.648-6.19,5.887l0,0     c0,3.529,2.648,6.188,6.19,6.188h9.412c3.249,0,6.19-2.658,6.19-6.188l0,0C334.326,486.572,331.385,483.924,328.136,483.924     L328.136,483.924z M281.32,483.924h-31.217c-3.53,0-6.179,2.648-6.179,5.887l0,0c0,3.529,2.648,6.188,6.179,6.188h31.217     c3.235,0,5.891-2.658,5.891-6.188l0,0C287.211,486.572,284.556,483.924,281.32,483.924L281.32,483.924z M357.881,483.924h-5     c-3.245,0-6.187,2.648-6.187,5.887l0,0c0,3.529,2.941,6.188,6.187,6.188h5h26.51h3.235c30.038,0,57.128-12.074,76.567-31.807     c19.731-19.732,31.806-46.525,31.806-76.564V124.37c0-29.745-12.074-56.832-31.806-76.564     c-18.559-18.555-43.877-30.629-71.858-31.803c-0.587,0-0.884,0-1.177,0h-3.532h-10.894H264.834c-3.539,0-6.189,2.645-6.189,6.188     l0,0c0,3.235,2.65,5.883,6.189,5.883h111.898h10.894c26.499,0,50.645,10.897,68.025,28.274     c17.374,17.367,28.273,41.526,28.273,68.022v263.257c0,26.5-10.899,50.645-28.273,68.025     c-17.381,17.375-41.526,28.271-68.025,28.271h-3.235H357.881z M223.898,16.002h14.721c3.247,0,6.188,2.645,6.188,6.188l0,0     c0,3.235-2.94,5.883-6.188,5.883h-14.721c-3.528,0-6.188-2.648-6.188-5.883l0,0C217.71,18.647,220.37,16.002,223.898,16.002     L223.898,16.002z M47.51,258.941h-7.66c-3.532,0-6.179,2.648-6.179,5.895l0,0c0,3.529,2.646,6.176,6.179,6.176h7.66     c3.235,0,6.179-2.646,6.179-6.176l0,0C53.689,261.59,50.746,258.941,47.51,258.941L47.51,258.941z M99.339,105.521H81.668     c-3.239,0-5.896,2.645-5.896,5.891l0,0c0,3.532,2.657,6.18,5.896,6.18h17.671c3.237,0,5.885-2.647,5.885-6.18l0,0     C105.224,108.166,102.576,105.521,99.339,105.521L99.339,105.521z M354.059,354.061c25.028-25.322,40.338-59.783,40.338-98.06     c0-38.291-15.31-72.742-40.338-97.768c-25.039-25.028-59.783-40.642-98.06-40.642c-38.289,0-72.74,15.613-97.769,40.642     c-25.025,25.025-40.64,59.477-40.64,97.768c0,38.277,15.615,72.738,40.64,98.06c25.029,25.025,59.48,40.334,97.769,40.334     C294.275,394.395,329.02,379.086,354.059,354.061L354.059,354.061z" style="fill:#30C4EE;"/></g></g></g><g id="Layer_1"/></svg>