<?xml version="1.0" ?><!DOCTYPE svg  PUBLIC '-//W3C//DTD SVG 1.1//EN'  'http://www.w3.org/Graphics/SVG/1.1/DTD/svg11.dtd'><svg enable-background="new 0 0 64 64" height="64px" id="Layer_1" version="1.1" viewBox="0 0 64 64" width="64px" xml:space="preserve" xmlns="http://www.w3.org/2000/svg" xmlns:xlink="http://www.w3.org/1999/xlink"><g id="Dash_DASH"><g><g><g><g><g><g><g><g><g><circle cx="32" cy="32" fill="#FFFFFF" r="26.5"/></g></g></g><g><g><g><g><path d="M58,32c0-11.868-7.996-21.897-18.881-25.001C37.462,6.675,35.752,6.5,34,6.5             C19.365,6.5,7.5,18.365,7.5,33c0,7.773,3.348,14.765,8.679,19.612C20.565,55.987,26.051,58,32,58             C46.337,58,58,46.337,58,32z" fill="#FFE57F"/></g></g></g></g><g><g><g><path d="M42.852,7.825C50.99,12.349,56.5,21.029,56.5,31c0,14.635-11.865,26.5-26.5,26.5            c-3.868,0-7.539-0.836-10.852-2.325C22.955,57.291,27.336,58.5,32,58.5c14.635,0,26.5-11.865,26.5-26.5            C58.5,21.233,52.074,11.973,42.852,7.825z" fill="#FFD740"/></g></g></g><g><g><g><path d="M32,59C17.112,59,5,46.888,5,32S17.112,5,32,5s27,12.112,27,27S46.888,59,32,59z M32,6            C17.663,6,6,17.663,6,32s11.663,26,26,26s26-11.663,26-26S46.337,6,32,6z" fill="#37474F"/></g></g></g></g><g><g><g><g><circle cx="32" cy="32" fill="#FFD740" r="22.5"/></g></g></g><g><g><g><path d="M11.5,33c0-12.426,10.074-22.5,22.5-22.5c3.212,0,6.265,0.678,9.029,1.892            C39.77,10.554,36.009,9.5,32,9.5C19.574,9.5,9.5,19.574,9.5,32c0,9.214,5.541,17.129,13.471,20.608            C16.126,48.75,11.5,41.417,11.5,33z" fill="#FFCA28"/></g></g></g><g><g><g><path d="M41.029,11.392C47.874,15.25,52.5,22.583,52.5,31c0,12.426-10.074,22.5-22.5,22.5            c-3.212,0-6.265-0.678-9.029-1.892C24.23,53.446,27.991,54.5,32,54.5c12.426,0,22.5-10.074,22.5-22.5            C54.5,22.786,48.959,14.871,41.029,11.392z" fill="#FFE57F"/></g></g></g><g><g><g><path d="M32,55C19.317,55,9,44.683,9,32S19.317,9,32,9s23,10.317,23,23S44.683,55,32,55z M32,10            c-12.131,0-22,9.869-22,22s9.869,22,22,22s22-9.869,22-22S44.131,10,32,10z" fill="#37474F"/></g></g></g></g></g></g></g></g></g><g><g><g><g><g><path d="M47.712,25.665c-0.031-0.54-0.19-1.064-0.462-1.531c-0.24-0.481-0.669-0.719-1.17-0.911        C45.569,22.969,45.004,23,44.434,23H23.066l-1.531,5h19.36l-3.058,9H18.482l-1.531,5H38.42c0.64,0,1.272-0.502,1.873-0.723        c0.603-0.34,1.29-0.867,1.872-1.349c0.569-0.449,1.084-1.054,1.532-1.623c0.37-0.557,0.687-1.193,0.943-1.812l2.835-8.939        C47.734,26.969,47.816,26.297,47.712,25.665L47.712,25.665z" fill="#FFFFFF"/></g></g></g><g><g><g><path d="M39.992,41.605l0.128-0.048c0.506-0.292,1.17-0.679,1.727-1.14c0.51-0.402,0.997-0.899,1.458-1.484        c0.318-0.482,0.621-1.053,0.874-1.662l2.82-8.884c0.236-0.543,0.308-1.107,0.22-1.641c-0.032-0.511-0.169-0.963-0.401-1.362        c-0.229-0.457-0.583-0.817-0.917-0.945C45.494,24.24,44.952,24,44.434,24H23.437l-1.226,4h19.383l-3.397,10h-0.358H18.853        l-1.226,4H38.42C38.925,42,39.468,41.8,39.992,41.605z" fill="#FFE57F"/></g></g></g><g><g><g><path d="M38.42,42H16.275l1.837-6h19.367l2.718-8H20.859l1.837-6h21.737c0.729,0,1.416,0.3,1.869,0.525        c0.527,0.2,1.065,0.725,1.395,1.385c0.296,0.506,0.479,1.112,0.514,1.726c0.115,0.682,0.021,1.428-0.278,2.105l-2.815,8.873        c-0.293,0.71-0.625,1.337-1.004,1.905c-0.532,0.68-1.076,1.232-1.639,1.677c-0.61,0.506-1.32,0.919-1.936,1.267l-0.2,0.08        C39.76,41.758,39.104,42,38.42,42z M17.627,41H38.42c0.505,0,1.048-0.2,1.572-0.395l0.128-0.048        c0.506-0.292,1.17-0.679,1.727-1.14c0.51-0.402,0.997-0.899,1.458-1.484c0.318-0.482,0.621-1.053,0.874-1.662l2.82-8.884        c0.236-0.543,0.308-1.107,0.22-1.641c-0.032-0.511-0.169-0.963-0.401-1.362c-0.229-0.457-0.583-0.817-0.917-0.945        C45.494,23.24,44.952,23,44.434,23H23.437l-1.226,4h19.383l-3.397,10H18.853L17.627,41z" fill="#37474F"/></g></g></g></g><g><g><g><g><path d="M29.166,30H17.775l-1.532,5H27.75L29.166,30z" fill="#FFFFFF"/></g></g></g><g><g><g><polygon fill="#FFE57F" points="18.146,31 16.919,35 27.372,35 28.505,31       "/></g></g></g><g><g><g><path d="M28.128,35H15.567l1.838-6h12.422L28.128,35z M16.919,34h10.453l1.133-4H18.146L16.919,34z" fill="#37474F"/></g></g></g></g></g></g></svg>