<?xml version="1.0" ?><svg enable-background="new 0 0 100 100" id="Livello_1" version="1.1" viewBox="0 0 100 100" xml:space="preserve" xmlns="http://www.w3.org/2000/svg" xmlns:xlink="http://www.w3.org/1999/xlink"><path d="M78.142,15.358H21.858c-3.584,0-6.5,2.916-6.5,6.5v56.284c0,3.584,2.916,6.5,6.5,6.5h56.283c3.584,0,6.5-2.916,6.5-6.5  V21.858C84.642,18.274,81.726,15.358,78.142,15.358z M83.642,78.142c0,3.033-2.468,5.5-5.5,5.5H21.858c-3.032,0-5.5-2.467-5.5-5.5  V21.858c0-3.033,2.468-5.5,5.5-5.5h56.283c3.032,0,5.5,2.467,5.5,5.5V78.142z"/><path d="M60.817,62.755c-0.046-0.136-0.147-0.245-0.278-0.301c-0.132-0.056-0.281-0.053-0.41,0.009  c-0.75,0.357-2.225,0.67-3.287,0.698c-1.133,0.023-2.02-0.245-2.618-0.819c-0.823-0.789-1.014-2.041-1.028-2.943V46.442h8.181  c0.276,0,0.5-0.224,0.5-0.5v-6.544c0-0.276-0.224-0.5-0.5-0.5h-8.149V28.384c0-0.276-0.224-0.5-0.5-0.5h-6.333  c-0.355,0-0.755,0.288-0.808,0.769c-0.354,3.222-1.887,8.966-8.179,11.234c-0.198,0.071-0.33,0.259-0.33,0.47v5.584  c0,0.276,0.224,0.5,0.5,0.5h3.874v13.626c0,3.115,1.34,6.291,3.583,8.496c2.367,2.327,5.677,3.552,9.588,3.552  c0.107,0,0.215-0.001,0.323-0.003c3.188-0.056,6.949-1.367,7.891-2.751c0.088-0.129,0.11-0.292,0.061-0.441L60.817,62.755z   M54.928,71.113c-3.816,0.081-6.956-1.064-9.192-3.262c-2.057-2.021-3.284-4.931-3.284-7.783V45.942c0-0.276-0.224-0.5-0.5-0.5  h-3.874v-4.737c6.448-2.5,8.091-8.403,8.489-11.82h5.66v10.513c0,0.276,0.224,0.5,0.5,0.5h8.149v5.544h-8.181  c-0.276,0-0.5,0.224-0.5,0.5v13.465c0.025,1.579,0.487,2.844,1.337,3.658c0.799,0.765,1.928,1.13,3.336,1.097  c0.989-0.026,2.266-0.268,3.171-0.585l1.821,5.4C60.985,69.862,57.953,71.061,54.928,71.113z"/></svg>