<?xml version="1.0" ?><svg enable-background="new 0 0 100 100" id="Livello_1" version="1.1" viewBox="0 0 100 100" xml:space="preserve" xmlns="http://www.w3.org/2000/svg" xmlns:xlink="http://www.w3.org/1999/xlink"><path d="M21.858,84.642h56.283c3.584,0,6.5-2.916,6.5-6.5V21.858c0-3.584-2.916-6.5-6.5-6.5H21.858c-3.584,0-6.5,2.916-6.5,6.5  v56.283C15.358,81.726,18.274,84.642,21.858,84.642z M16.358,21.858c0-3.032,2.468-5.5,5.5-5.5h56.283c3.032,0,5.5,2.468,5.5,5.5  v56.283c0,3.032-2.468,5.5-5.5,5.5H21.858c-3.032,0-5.5-2.468-5.5-5.5V21.858z"/><path d="M43.017,69.217c0.112,0,0.226-0.001,0.338-0.003c5.204-0.089,10.07-2.269,13.35-5.98c3.382-3.827,4.611-8.525,3.871-14.786  c-0.029-0.252-0.242-0.441-0.496-0.441H42.747c-0.276,0-0.5,0.224-0.5,0.5v4.816c0,0.276,0.224,0.5,0.5,0.5h11.668l-0.001,0.008  c-0.046,0.328-0.084,0.608-0.147,0.881c-1.118,4.825-4.358,7.59-9.63,8.217c-5.502,0.654-9.889-1.412-12.684-5.978  c-2.955-4.828-2.826-9.845,0.374-14.508c3.007-4.379,7.39-6.155,13.011-5.289c2.146,0.332,4.215,1.369,6.322,3.171  c0.196,0.168,0.488,0.158,0.674-0.021l3.623-3.527c0.101-0.098,0.155-0.233,0.151-0.373c-0.004-0.141-0.067-0.272-0.173-0.364  c-0.188-0.162-0.364-0.318-0.533-0.468c-0.35-0.312-0.671-0.596-1.01-0.857c-4.349-3.359-9.291-4.572-14.688-3.611  c-7.558,1.349-12.835,5.793-15.261,12.852c-2.408,7.004-0.91,13.636,4.333,19.178C32.448,67.011,37.621,69.217,43.017,69.217z   M25.39,44.277c2.334-6.79,7.21-10.892,14.491-12.191c1.131-0.202,2.241-0.303,3.328-0.303c3.823,0,7.368,1.245,10.572,3.721  c0.322,0.248,0.625,0.519,0.957,0.813c0.044,0.039,0.089,0.079,0.134,0.119l-2.912,2.835c-2.135-1.747-4.255-2.765-6.47-3.106  c-6.041-0.929-10.745,0.988-13.987,5.711c-3.44,5.013-3.579,10.406-0.403,15.596c3.014,4.924,7.741,7.163,13.655,6.448  c5.653-0.672,9.279-3.778,10.486-8.983c0.069-0.3,0.113-0.607,0.163-0.968l0.083-0.569c0.022-0.145-0.02-0.291-0.114-0.402  s-0.233-0.175-0.38-0.175H43.247v-3.816h16.385c0.597,5.737-0.577,10.057-3.678,13.565c-3.094,3.502-7.692,5.559-12.616,5.643  c-5.233,0.073-10.279-2.013-13.834-5.771C24.462,57.114,23.078,51.003,25.39,44.277z"/><path d="M62.611,52.272h4.513v4.513c0,0.276,0.224,0.5,0.5,0.5h3.545c0.276,0,0.5-0.224,0.5-0.5v-4.513h4.513  c0.276,0,0.5-0.224,0.5-0.5v-3.545c0-0.276-0.224-0.5-0.5-0.5h-4.513v-4.513c0-0.276-0.224-0.5-0.5-0.5h-3.545  c-0.276,0-0.5,0.224-0.5,0.5v4.513h-4.513c-0.276,0-0.5,0.224-0.5,0.5v3.545C62.111,52.049,62.335,52.272,62.611,52.272z   M63.111,48.728h4.513c0.276,0,0.5-0.224,0.5-0.5v-4.513h2.545v4.513c0,0.276,0.224,0.5,0.5,0.5h4.513v2.545h-4.513  c-0.276,0-0.5,0.224-0.5,0.5v4.513h-2.545v-4.513c0-0.276-0.224-0.5-0.5-0.5h-4.513V48.728z"/></svg>