<?xml version="1.0" ?><svg enable-background="new 0 0 100 100" id="Livello_1" version="1.1" viewBox="0 0 100 100" xml:space="preserve" xmlns="http://www.w3.org/2000/svg" xmlns:xlink="http://www.w3.org/1999/xlink"><path d="M29.856,50.77c-1.517,0-2.75,1.233-2.75,2.75s1.233,2.75,2.75,2.75c1.516,0,2.749-1.233,2.749-2.75  S31.372,50.77,29.856,50.77z M29.856,55.27c-0.965,0-1.75-0.785-1.75-1.75s0.785-1.75,1.75-1.75s1.749,0.785,1.749,1.75  S30.821,55.27,29.856,55.27z"/><path d="M67.158,53.476c0,1.517,1.233,2.75,2.75,2.75c1.516,0,2.749-1.233,2.749-2.75s-1.233-2.75-2.749-2.75  C68.392,50.726,67.158,51.959,67.158,53.476z M69.908,51.726c0.965,0,1.749,0.785,1.749,1.75s-0.784,1.75-1.749,1.75  s-1.75-0.785-1.75-1.75S68.943,51.726,69.908,51.726z"/><path d="M30.087,39.535c-7.739,0-14.035,6.296-14.035,14.034c0,7.739,6.296,14.035,14.035,14.035s14.036-6.296,14.036-14.035  C44.123,45.831,37.826,39.535,30.087,39.535z M30.087,66.604c-7.188,0-13.035-5.848-13.035-13.035s5.848-13.034,13.035-13.034  c7.188,0,13.036,5.847,13.036,13.034S37.275,66.604,30.087,66.604z"/><path d="M55.872,53.475c0,7.739,6.296,14.036,14.035,14.036s14.036-6.297,14.036-14.036c0-7.738-6.297-14.034-14.036-14.034  S55.872,45.736,55.872,53.475z M82.943,53.475c0,7.188-5.848,13.036-13.036,13.036c-7.188,0-13.035-5.848-13.035-13.036  c0-7.188,5.848-13.034,13.035-13.034C77.096,40.44,82.943,46.287,82.943,53.475z"/><path d="M90,33.436H76.844c-7.18-4.787-16.703-7.421-26.839-7.421c-10.396,0-20.399,2.703-27.479,7.421H10  c-0.195,0-0.372,0.113-0.454,0.291c-0.082,0.177-0.053,0.386,0.074,0.534c1.827,2.138,3.379,5.185,3.828,7.495  c-2.471,3.469-3.775,7.549-3.775,11.812c0,11.258,9.158,20.417,20.414,20.417c5.968,0,11.567-2.575,15.459-7.088  c1.485,1.823,3.574,4.819,4.007,5.698c0.078,0.16,0.236,0.267,0.415,0.278c0.181,0.022,0.35-0.073,0.448-0.221  c0.026-0.039,2.452-3.658,4.062-5.728c3.888,4.494,9.479,7.06,15.436,7.06c11.257,0,20.414-9.159,20.414-20.417  c0-4.258-1.306-8.336-3.776-11.807c0.447-2.311,2-5.361,3.828-7.501c0.127-0.148,0.156-0.357,0.074-0.534  C90.372,33.549,90.195,33.436,90,33.436z M85.528,41.799c-0.022,0.133,0.01,0.269,0.089,0.377c2.428,3.336,3.711,7.275,3.711,11.393  c0,10.707-8.709,19.417-19.414,19.417c-5.861,0-11.351-2.611-15.059-7.165c-0.095-0.117-0.237-0.185-0.388-0.185  s-0.292,0.067-0.388,0.184c-1.237,1.517-3.172,4.327-4.045,5.611c-0.933-1.506-2.904-4.231-4.108-5.638  c-0.095-0.111-0.234-0.175-0.38-0.175c-0.002,0-0.004,0-0.007,0c-0.147,0.002-0.287,0.069-0.381,0.185  c-3.711,4.564-9.205,7.183-15.072,7.183c-10.705,0-19.414-8.71-19.414-19.417c0-4.123,1.283-8.064,3.71-11.399  c0.079-0.108,0.111-0.245,0.089-0.378c-0.375-2.21-1.741-5.106-3.432-7.355h11.638c0.1,0,0.196-0.029,0.279-0.085  c6.926-4.662,16.784-7.336,27.048-7.336c9.998,0,19.377,2.605,26.407,7.336c0.083,0.056,0.18,0.085,0.279,0.085H88.96  C87.268,36.687,85.901,39.587,85.528,41.799z"/></svg>