<?xml version="1.0" ?><svg enable-background="new 0 0 100 100" id="Livello_1" version="1.1" viewBox="0 0 100 100" xml:space="preserve" xmlns="http://www.w3.org/2000/svg" xmlns:xlink="http://www.w3.org/1999/xlink"><path d="M25.106,46.075h9.358c1.745,0,3.214-0.429,4.365-1.273c1.184-0.865,1.784-2.286,1.784-4.225  c0-1.063-0.194-1.956-0.581-2.658c-0.404-0.711-0.945-1.265-1.601-1.643c-0.656-0.396-1.379-0.659-2.198-0.801  c-0.747-0.146-1.556-0.216-2.474-0.216h-8.652c-0.276,0-0.5,0.224-0.5,0.5v9.815C24.606,45.852,24.83,46.075,25.106,46.075z   M25.606,36.26h8.152c0.853,0,1.6,0.064,2.293,0.2c0.705,0.121,1.314,0.341,1.871,0.678c0.508,0.292,0.925,0.722,1.236,1.27  c0.301,0.547,0.454,1.276,0.454,2.17c0,1.624-0.449,2.741-1.375,3.417c-0.977,0.718-2.247,1.081-3.774,1.081h-8.858V36.26z"/><path d="M40.285,52.867c-1.295-0.981-3.019-1.479-5.124-1.479H25.106c-0.276,0-0.5,0.224-0.5,0.5v11.565c0,0.276,0.224,0.5,0.5,0.5  h9.869c0.994,0,1.878-0.09,2.7-0.274c0.93-0.203,1.7-0.52,2.347-0.961c0.705-0.465,1.267-1.091,1.67-1.859  c0.405-0.765,0.611-1.759,0.611-2.957C42.303,55.593,41.625,53.899,40.285,52.867z M40.808,60.392  c-0.324,0.619-0.773,1.121-1.342,1.495c-0.546,0.373-1.201,0.64-2.006,0.815c-0.752,0.169-1.564,0.251-2.484,0.251h-9.369V52.388  h9.554c1.882,0,3.403,0.43,4.517,1.274c1.094,0.843,1.626,2.229,1.626,4.239C41.303,58.935,41.137,59.771,40.808,60.392z"/><path d="M44.632,47.656c1.45-0.841,2.6-1.874,3.427-3.08c1.013-1.49,1.526-3.365,1.526-5.573c0-2.031-0.34-3.763-1.012-5.148  c-0.687-1.403-1.666-2.546-2.911-3.398c-1.253-0.843-2.74-1.451-4.417-1.807c-1.691-0.366-3.518-0.544-5.585-0.544H15.858  c-0.276,0-0.5,0.224-0.5,0.5v42.002c0,0.276,0.224,0.5,0.5,0.5h20.358c1.922,0,3.812-0.243,5.616-0.724  c1.856-0.488,3.518-1.246,4.941-2.254c1.46-1.033,2.629-2.372,3.475-3.978c0.85-1.608,1.281-3.54,1.281-5.739  c0-2.724-0.668-5.087-1.987-7.024C48.4,49.717,46.752,48.465,44.632,47.656z M49.364,63.686c-0.772,1.466-1.838,2.687-3.169,3.628  c-1.324,0.938-2.878,1.646-4.618,2.104c-1.721,0.458-3.525,0.69-5.36,0.69H16.358V29.105h19.303c1.995,0,3.753,0.17,5.375,0.521  c1.553,0.329,2.922,0.888,4.065,1.657c1.098,0.751,1.964,1.764,2.574,3.008c0.604,1.247,0.911,2.832,0.911,4.711  c0,2.004-0.455,3.689-1.352,5.009c-0.917,1.338-2.292,2.446-4.087,3.295c-0.188,0.089-0.301,0.285-0.285,0.492  c0.017,0.208,0.161,0.383,0.36,0.44c2.443,0.702,4.292,1.952,5.494,3.713c1.22,1.792,1.813,3.906,1.813,6.461  C50.529,60.448,50.137,62.222,49.364,63.686z"/><path d="M74.18,47.001c-1.081-1.198-2.891-1.858-5.097-1.858c-1.43,0-2.593,0.241-3.556,0.738c-0.922,0.482-1.686,1.089-2.273,1.808  c-0.58,0.724-0.976,1.482-1.209,2.314c-0.225,0.773-0.359,1.484-0.401,2.111c-0.009,0.139,0.04,0.274,0.134,0.375  c0.094,0.101,0.227,0.158,0.365,0.158h13.591c0.141,0,0.275-0.06,0.37-0.163c0.095-0.104,0.141-0.243,0.128-0.384  C76.037,50.012,75.347,48.296,74.18,47.001C74.181,47.001,74.181,47.001,74.18,47.001z M62.7,51.647  c0.062-0.42,0.164-0.878,0.307-1.369c0.198-0.705,0.535-1.348,1.025-1.961c0.499-0.609,1.158-1.131,1.958-1.549  c0.804-0.415,1.845-0.626,3.094-0.626c1.918,0,3.465,0.543,4.354,1.528c0.917,1.02,1.5,2.354,1.734,3.977H62.7z"/><path d="M81.238,44.573c-1.287-1.752-2.94-3.157-4.914-4.178c-1.983-1.035-4.334-1.561-6.99-1.561c-2.375,0-4.576,0.431-6.541,1.279  c-1.951,0.845-3.664,2.023-5.089,3.502c-1.397,1.445-2.504,3.217-3.293,5.268c-0.767,2.024-1.155,4.225-1.155,6.538  c0,2.404,0.378,4.644,1.123,6.657c0.746,2.005,1.82,3.766,3.197,5.24c1.425,1.481,3.089,2.59,5.087,3.389  c1.996,0.787,4.24,1.187,6.671,1.187c3.538,0,6.592-0.824,9.077-2.446c2.52-1.62,4.413-4.351,5.628-8.115  c0.049-0.151,0.023-0.318-0.071-0.447c-0.094-0.13-0.245-0.206-0.404-0.206h-7.356c-0.22,0-0.415,0.145-0.479,0.355  c-0.255,0.843-0.941,1.661-2.039,2.431c-1.131,0.786-2.502,1.185-4.077,1.185c-2.202,0-3.902-0.569-5.052-1.693  c0,0,0-0.001-0.001-0.001c-1.078-1.049-1.803-2.989-1.905-5.044h21.433c0.263,0,0.481-0.204,0.499-0.467  c0.16-2.405-0.04-4.736-0.596-6.928C83.422,48.281,82.495,46.281,81.238,44.573z M83.616,56.912H62.143c-0.276,0-0.5,0.224-0.5,0.5  c0,2.529,0.851,4.929,2.22,6.261c1.344,1.312,3.278,1.978,5.75,1.978c1.782,0,3.346-0.459,4.649-1.365  c1.142-0.801,1.913-1.676,2.296-2.605h6.308c-1.151,3.238-2.79,5.508-5,6.929c-2.322,1.517-5.193,2.286-8.533,2.286  c-2.305,0-4.426-0.376-6.302-1.115c-1.862-0.745-3.411-1.776-4.731-3.148c-1.299-1.391-2.276-2.994-2.985-4.9  c-0.704-1.901-1.061-4.023-1.061-6.309c0-2.192,0.367-4.272,1.09-6.182c0.75-1.949,1.757-3.562,3.078-4.93  c1.333-1.383,2.938-2.486,4.767-3.278c1.839-0.795,3.906-1.197,6.144-1.197c2.492,0,4.688,0.487,6.529,1.448  c1.837,0.949,3.374,2.256,4.569,3.882c1.181,1.604,2.053,3.489,2.591,5.6C83.517,52.711,83.716,54.777,83.616,56.912z"/><path d="M60.435,30.923c-0.276,0-0.5,0.224-0.5,0.5v4.145c0,0.276,0.224,0.5,0.5,0.5H77.46c0.276,0,0.5-0.224,0.5-0.5v-4.145  c0-0.276-0.224-0.5-0.5-0.5H60.435z M76.96,35.067H60.935v-3.145H76.96V35.067z"/></svg>