<?xml version="1.0" ?><svg height="58px" version="1.1" viewBox="0 0 58 58" width="58px" xmlns="http://www.w3.org/2000/svg" xmlns:xlink="http://www.w3.org/1999/xlink"><title/><desc/><defs/><g fill="none" fill-rule="evenodd" id="Page-1" stroke="none" stroke-width="1"><g fill-rule="nonzero" id="020---Star"><ellipse cx="29" cy="29" fill="#F0C419" id="Oval" rx="29" ry="28.875"/><path d="M29,54.875 C14.7258624,54.8062083 3.20367241,43.1910968 3.24953355,28.9168671 C3.29539468,14.6426374 14.8919815,3.1018034 29.1662665,3.12473387 C43.4405514,3.14766433 54.9999997,14.7256966 55,29 C54.9494092,43.3181773 43.3182549,54.8934126 29,54.875 Z M29,5.125 C15.8304243,5.19376862 5.20363798,15.9134441 5.24948467,29.0831195 C5.29533136,42.2527949 15.9964946,52.898223 29.1662298,52.8752983 C42.3359651,52.8523737 53.0000025,42.1697552 53,29 C52.950323,15.7860145 42.2140648,5.10567421 29,5.125 Z" fill="#E57E25" id="Shape"/><path d="M29.98674,15.62886 L33.13174,22.35049 C33.2857403,22.680262 33.5941262,22.9114529 33.95385,22.96681 L41.07343,24.058 C41.4778416,24.1211106 41.8132348,24.4046145 41.942804,24.7928715 C42.0723731,25.1811285 41.9744588,25.6092358 41.689,25.90257 L36.4694,31.26916 C36.2276818,31.5179354 36.1180356,31.866473 36.17379,32.20883 L37.39643,39.728 C37.464724,40.1404235 37.291276,40.5555973 36.9498872,40.7968667 C36.6084984,41.0381361 36.1592403,41.0630471 35.79327,40.861 L29.52735,37.38634 C29.1993341,37.2043545 28.8006659,37.2043545 28.47265,37.38634 L22.20673,40.861 C21.8407597,41.0630471 21.3915016,41.0381361 21.0501128,40.7968667 C20.708724,40.5555973 20.535276,40.1404235 20.60357,39.728 L21.82621,32.20888 C21.8819644,31.866523 21.7723182,31.5179854 21.5306,31.26921 L16.311,25.90259 C16.0255412,25.6092558 15.9276269,25.1811485 16.057196,24.7928915 C16.1867652,24.4046345 16.5221584,24.1211306 16.92657,24.05802 L24.04612,22.96681 C24.4058438,22.9114529 24.7142297,22.680262 24.86823,22.35049 L28.01323,15.62886 C28.1919367,15.24524 28.5767824,14.9999629 28.999985,14.9999629 C29.4231876,14.9999629 29.8080333,15.24524 29.98674,15.62886 Z" fill="#E57E25" id="Shape"/></g></g></svg>