<?xml version="1.0" ?><svg height="58px" version="1.1" viewBox="0 0 58 58" width="58px" xmlns="http://www.w3.org/2000/svg" xmlns:xlink="http://www.w3.org/1999/xlink"><title/><desc/><defs/><g fill="none" fill-rule="evenodd" id="Page-1" stroke="none" stroke-width="1"><g fill-rule="nonzero" id="002---fast-forward"><ellipse cx="29" cy="29" fill="#67B9CC" id="Oval" rx="29" ry="28.875"/><path d="M29,54.875 C14.7258624,54.8062083 3.20367241,43.1910968 3.24953355,28.9168671 C3.29539468,14.6426374 14.8919815,3.1018034 29.1662665,3.12473387 C43.4405514,3.14766433 54.9999997,14.7256966 55,29 C54.9492389,43.3181062 43.3181845,54.893242 29,54.875 Z M29,5.125 C15.8304243,5.19376862 5.20363798,15.9134441 5.24948467,29.0831195 C5.29533136,42.2527949 15.9964946,52.898223 29.1662298,52.8752983 C42.3359651,52.8523737 53.0000025,42.1697552 53,29 C52.950323,15.7860145 42.2140648,5.10567421 29,5.125 Z" fill="#2980BA" id="Shape"/><path d="M28,31.95 L20.09,37.43 C19.8757803,37.5754048 19.598675,37.5902895 19.370112,37.4686688 C19.141549,37.3470481 18.9990824,37.108905 19,36.85 L19,21.15 C18.9990824,20.891095 19.141549,20.6529519 19.370112,20.5313312 C19.598675,20.4097105 19.8757803,20.4245952 20.09,20.57 L28,26.05" fill="#285680" id="Shape"/><path d="M28,21.15481 L28,36.84519 C27.9999901,37.1061563 28.1448534,37.345555 28.3760371,37.4666231 C28.6072209,37.5876911 28.8865031,37.5704121 29.101,37.42177 L40.41355,29.58309 C40.6047997,29.4505651 40.7189025,29.2326785 40.7189025,29 C40.7189025,28.7673215 40.6047997,28.5494349 40.41355,28.41691 L29.101,20.57823 C28.8865031,20.4295879 28.6072209,20.4123089 28.3760371,20.5333769 C28.1448534,20.654445 27.9999901,20.8938437 28,21.15481 Z" fill="#2980BA" id="Shape"/></g></g></svg>