<?xml version="1.0" ?><svg height="58px" version="1.1" viewBox="0 0 58 58" width="58px" xmlns="http://www.w3.org/2000/svg" xmlns:xlink="http://www.w3.org/1999/xlink"><title/><desc/><defs/><g fill="none" fill-rule="evenodd" id="Page-1" stroke="none" stroke-width="1"><g fill-rule="nonzero" id="013---Playlist"><ellipse cx="29" cy="29" fill="#65DDB9" id="Oval" rx="29" ry="28.875"/><path d="M29,54.875 C14.7258624,54.8062083 3.20367241,43.1910968 3.24953355,28.9168671 C3.29539468,14.6426374 14.8919815,3.1018034 29.1662665,3.12473387 C43.4405514,3.14766433 54.9999997,14.7256966 55,29 C54.9492389,43.3181062 43.3181845,54.893242 29,54.875 Z M29,5.125 C15.8304243,5.19376862 5.20363798,15.9134441 5.24948467,29.0831195 C5.29533136,42.2527949 15.9964946,52.898223 29.1662298,52.8752983 C42.3359651,52.8523737 53.0000025,42.1697552 53,29 C52.950323,15.7860145 42.2140648,5.10567421 29,5.125 Z" fill="#24AE5F" id="Shape"/><path d="M14,19.90933 L14,30.09067 C13.9907072,30.4212904 14.1677322,30.7291581 14.4581482,30.8874448 C14.7485643,31.0457315 15.1032384,31.0276581 15.37606,30.84067 L22.61565,25.75 C22.8569589,25.5763745 22.9999918,25.2972507 22.9999918,24.99997 C22.9999918,24.7026893 22.8569589,24.4235655 22.61565,24.24994 L15.37606,19.1593 C15.1032339,18.9723083 14.7485528,18.9542373 14.4581344,19.1125317 C14.167716,19.270826 13.9906955,19.5787043 14,19.90933 Z" fill="#24AE5F" id="Shape"/><rect fill="#24AE5F" height="4" id="Rectangle-path" rx="2" width="17" x="27" y="19.05478"/><rect fill="#24AE5F" height="4" id="Rectangle-path" rx="2" width="17" x="27" y="27.05478"/><rect fill="#24AE5F" height="4" id="Rectangle-path" rx="2" width="30" x="14" y="35.05478"/></g></g></svg>