<?xml version="1.0" ?><svg height="58px" version="1.1" viewBox="0 0 58 58" width="58px" xmlns="http://www.w3.org/2000/svg" xmlns:xlink="http://www.w3.org/1999/xlink"><title/><desc/><defs/><g fill="none" fill-rule="evenodd" id="Page-1" stroke="none" stroke-width="1"><g fill-rule="nonzero" id="012---Settings"><ellipse cx="29" cy="29" fill="#2C3E50" id="Oval" rx="29" ry="28.875"/><path d="M29,54.875 C14.7258624,54.8062083 3.20367241,43.1910968 3.24953355,28.9168671 C3.29539468,14.6426374 14.8919815,3.1018034 29.1662665,3.12473387 C43.4405514,3.14766433 54.9999997,14.7256966 55,29 C54.9492389,43.3181062 43.3181845,54.893242 29,54.875 Z M29,5.125 C15.8304243,5.19376862 5.20363798,15.9134441 5.24948467,29.0831195 C5.29533136,42.2527949 15.9964946,52.898223 29.1662298,52.8752983 C42.3359651,52.8523737 53.0000025,42.1697552 53,29 C52.950323,15.7860145 42.2140648,5.10567421 29,5.125 Z" fill="#A5A5A4" id="Shape"/><path d="M19,43 C18.4477153,43 18,42.5522847 18,42 L18,26 C18,25.4477153 18.4477153,25 19,25 C19.5522847,25 20,25.4477153 20,26 L20,42 C20,42.5522847 19.5522847,43 19,43 Z" fill="#A5A5A4" id="Shape"/><path d="M19,23 C18.4477153,23 18,22.5522847 18,22 L18,16 C18,15.4477153 18.4477153,15 19,15 C19.5522847,15 20,15.4477153 20,16 L20,22 C20,22.5522847 19.5522847,23 19,23 Z" fill="#A5A5A4" id="Shape"/><path d="M22.0000001,27 L16,27 C14.3431458,27 13.0000001,25.6568542 13.0000001,24 C13.0000001,22.3431458 14.3431458,21 16,21 L22.0000001,21 C23.6568543,21 25.0000001,22.3431458 25.0000001,24 C25.0000001,25.6568542 23.6568543,27 22.0000001,27 Z M16,23 C15.4477153,23 15,23.4477153 15,24 C15,24.5522847 15.4477153,25 16,25 L22,25 C22.5522847,25 23,24.5522847 23,24 C23,23.4477153 22.5522847,23 22,23 L16,23 Z" fill="#A5A5A4" id="Shape"/><path d="M39,43 C38.4477153,43 38,42.5522847 38,42 L38,26 C38,25.4477153 38.4477153,25 39,25 C39.5522847,25 40,25.4477153 40,26 L40,42 C40,42.5522847 39.5522847,43 39,43 Z" fill="#A5A5A4" id="Shape"/><path d="M39,23 C38.4477153,23 38,22.5522847 38,22 L38,16 C38,15.4477153 38.4477153,15 39,15 C39.5522847,15 40,15.4477153 40,16 L40,22 C40,22.5522847 39.5522847,23 39,23 Z" fill="#A5A5A4" id="Shape"/><path d="M42.0000001,27 L36,27 C34.3431458,27 33.0000001,25.6568542 33.0000001,24 C33.0000001,22.3431458 34.3431458,21 36,21 L42.0000001,21 C43.6568543,21 45.0000001,22.3431458 45.0000001,24 C45.0000001,25.6568542 43.6568543,27 42.0000001,27 Z M36,23 C35.4477153,23 35,23.4477153 35,24 C35,24.5522847 35.4477153,25 36,25 L42,25 C42.5522847,25 43,24.5522847 43,24 C43,23.4477153 42.5522847,23 42,23 L36,23 Z" fill="#A5A5A4" id="Shape"/><path d="M29,43 C28.4477153,43 28,42.5522847 28,42 L28,36 C28,35.4477153 28.4477153,35 29,35 C29.5522847,35 30,35.4477153 30,36 L30,42 C30,42.5522847 29.5522847,43 29,43 Z" fill="#A5A5A4" id="Shape"/><path d="M29,33 C28.4477153,33 28,32.5522847 28,32 L28,16 C28,15.4477153 28.4477153,15 29,15 C29.5522847,15 30,15.4477153 30,16 L30,32 C30,32.5522847 29.5522847,33 29,33 Z" fill="#A5A5A4" id="Shape"/><path d="M32,37 L26,37 C24.3431458,37 23,35.6568542 23,34 C23,32.3431458 24.3431458,31 26,31 L32,31 C33.6568542,31 35,32.3431458 35,34 C35,35.6568542 33.6568542,37 32,37 Z M26,33 C25.4477153,33 25,33.4477153 25,34 C25,34.5522847 25.4477153,35 26,35 L32,35 C32.5522847,35 33,34.5522847 33,34 C33,33.4477153 32.5522847,33 32,33 L26,33 Z" fill="#A5A5A4" id="Shape"/></g></g></svg>