<?xml version="1.0" ?><svg height="58px" version="1.1" viewBox="0 0 58 58" width="58px" xmlns="http://www.w3.org/2000/svg" xmlns:xlink="http://www.w3.org/1999/xlink"><title/><desc/><defs/><g fill="none" fill-rule="evenodd" id="Page-1" stroke="none" stroke-width="1"><g fill-rule="nonzero" id="011---Share"><ellipse cx="29" cy="29" fill="#65DDB9" id="Oval" rx="29" ry="28.875"/><path d="M29,54.875 C14.7258624,54.8062083 3.20367241,43.1910968 3.24953355,28.9168671 C3.29539468,14.6426374 14.8919815,3.1018034 29.1662665,3.12473387 C43.4405514,3.14766433 54.9999997,14.7256966 55,29 C54.9492389,43.3181062 43.3181845,54.893242 29,54.875 Z M29,5.125 C15.8304243,5.19376862 5.20363798,15.9134441 5.24948467,29.0831195 C5.29533136,42.2527949 15.9964946,52.898223 29.1662298,52.8752983 C42.3359651,52.8523737 53.0000025,42.1697552 53,29 C52.950323,15.7860145 42.2140648,5.10567421 29,5.125 Z" fill="#46B29D" id="Shape"/><path d="M30,22 C27.2385763,22 25,19.7614237 25,17 C25,14.2385763 27.2385763,12 30,12 C32.7614237,12 35,14.2385763 35,17 C34.9967599,19.7600805 32.7600805,21.9967599 30,22 Z M30,14 C28.3431458,14 27,15.3431458 27,17 C27,18.6568542 28.3431458,20 30,20 C31.6568542,20 33,18.6568542 33,17 C32.9981923,15.3438951 31.6561049,14.0018077 30,14 Z" fill="#46B29D" id="Shape"/><path d="M20,35 C16.6862915,35 14,32.3137085 14,29 C14,25.6862915 16.6862915,23 20,23 C23.3137085,23 26,25.6862915 26,29 C25.9963791,32.3122075 23.3122075,34.9963791 20,35 Z M20,25 C17.790861,25 16,26.790861 16,29 C16,31.209139 17.790861,33 20,33 C22.209139,33 24,31.209139 24,29 C23.9974761,26.7919073 22.2080927,25.0025239 20,25 Z" fill="#46B29D" id="Shape"/><path d="M37,46 C33.1340068,46 30,42.8659932 30,39 C30,35.1340068 33.1340068,32 37,32 C40.8659932,32 44,35.1340068 44,39 C43.9956629,42.8641953 40.8641953,45.9956629 37,46 Z M37,34 C34.9776888,34 33.1545073,35.2182109 32.3806023,37.0865828 C31.6066973,38.9549548 32.0344761,41.1055439 33.4644661,42.5355339 C34.8944561,43.9655239 37.0450452,44.3933027 38.9134172,43.6193977 C40.7817891,42.8454927 42,41.0223112 42,39 C41.9967599,36.2399195 39.7600805,34.0032401 37,34 Z" fill="#46B29D" id="Shape"/><path d="M23.19971,26.16016 C22.8117291,26.1600934 22.4588022,25.935615 22.2942625,25.5842521 C22.1297229,25.2328892 22.1832701,24.8180631 22.43164,24.52 L26.67139,19.42967 C26.9000989,19.1550917 27.2579204,19.0233857 27.6100667,19.0841643 C27.9622129,19.1449429 28.2551844,19.3889724 28.3786217,19.7243293 C28.502059,20.0596862 28.4372089,20.4354217 28.2085,20.71 L23.96875,25.80033 C23.7787145,26.0287281 23.4968278,26.1606215 23.19971,26.16016 Z" fill="#46B29D" id="Shape"/><path d="M31.8291,36.96 C31.6508489,36.9600234 31.4758437,36.9123107 31.32227,36.82182 L23.80227,32.39164 C23.493461,32.2106614 23.3048863,31.8784737 23.3077751,31.520552 C23.310664,31.1626304 23.5045761,30.8335298 23.8162661,30.6575594 C24.1279561,30.481589 24.5099159,30.4855705 24.81787,30.668 L32.33787,35.09817 C32.7267276,35.3271702 32.9140463,35.7882238 32.7950902,36.2235406 C32.676134,36.6588575 32.2803771,36.9605778 31.8291,36.96 Z" fill="#46B29D" id="Shape"/></g></g></svg>