<?xml version="1.0" ?><svg id="Layer_1_1_" style="enable-background:new 0 0 64 64;" version="1.1" viewBox="0 0 64 64" xml:space="preserve" xmlns="http://www.w3.org/2000/svg" xmlns:xlink="http://www.w3.org/1999/xlink"><g><g><circle cx="32" cy="42" r="10" style="fill:#00F4CB;"/></g><g><g><path d="M62,63H50c-0.553,0-1-0.447-1-1v-3.465l-2.555-1.703C46.167,56.646,46,56.334,46,56     s0.167-0.646,0.445-0.832L49,53.465V50c0-0.553,0.447-1,1-1h12c0.553,0,1,0.447,1,1v12C63,62.553,62.553,63,62,63z M50,54h0.01     H50z" style="fill:#00F4CB;"/></g></g><g><g><path d="M14,39H2c-0.553,0-1-0.447-1-1V26c0-0.553,0.447-1,1-1h12c0.553,0,1,0.447,1,1v3.465l2.555,1.703     C17.833,31.354,18,31.666,18,32s-0.167,0.646-0.445,0.832L15,34.535V38C15,38.553,14.553,39,14,39z" style="fill:#00F4CB;"/></g></g><g><path d="M41,23H23c-2.206,0-4,1.794-4,4v32c0,2.206,1.794,4,4,4h18c2.206,0,4-1.794,4-4V27C45,24.794,43.206,23,41,23z M21,31h22    v22H21V31z M23,25h18c1.103,0,2,0.897,2,2v2H21v-2C21,25.897,21.897,25,23,25z M41,61H23c-1.103,0-2-0.897-2-2v-4h22v4    C43,60.103,42.103,61,41,61z"/><path d="M36,57h-8c-0.552,0-1,0.447-1,1s0.448,1,1,1h8c0.552,0,1-0.447,1-1S36.552,57,36,57z"/><path d="M34.893,41.747C35.575,41.029,36,40.066,36,39c0-2.206-1.794-4-4-4s-4,1.794-4,4c0,1.066,0.425,2.029,1.107,2.747    C27.257,42.77,26,44.74,26,47v1c0,0.553,0.448,1,1,1h10c0.552,0,1-0.447,1-1v-1C38,44.74,36.743,42.77,34.893,41.747z M30,39    c0-1.103,0.897-2,2-2s2,0.897,2,2s-0.897,2-2,2S30,40.103,30,39z M28,47c0-2.206,1.794-4,4-4s4,1.794,4,4H28z"/><circle cx="58" cy="56" r="1"/><circle cx="54" cy="56" r="1"/><circle cx="6" cy="32" r="1"/><circle cx="10" cy="32" r="1"/><path d="M23,21h18c0.321,0,0.624-0.154,0.811-0.415c0.188-0.261,0.239-0.597,0.138-0.901l-1.266-3.798    c-0.566-1.698-2.008-2.971-3.763-3.321L35,12.181v-0.18c0-0.008-0.004-0.015-0.005-0.023C36.205,11.065,37,9.629,37,8V6    c0-2.757-2.243-5-5-5s-5,2.243-5,5v2c0,1.629,0.795,3.064,2.004,3.978c0,0.008-0.005,0.015-0.005,0.023v0.18l-1.919,0.384    c-1.755,0.351-3.197,1.623-3.763,3.321l-1.266,3.798c-0.102,0.305-0.05,0.641,0.138,0.901C22.376,20.846,22.679,21,23,21z     M31,12.899C31.323,12.965,31.658,13,32,13c0.342,0,0.676-0.035,1-0.101l0,0.1C33,13,33,13,33,13.001c0,0.551-0.449,0.999-1,0.999    c-0.551,0-1-0.448-1-1c0,0,0,0,0,0s0,0,0-0.001L31,12.899z M29,6c0-1.654,1.346-3,3-3s3,1.346,3,3v2c0,1.654-1.346,3-3,3    s-3-1.346-3-3V6z M25.215,16.519c0.339-1.02,1.205-1.782,2.258-1.993l1.766-0.353C29.696,15.245,30.761,16,32,16    s2.304-0.755,2.761-1.828l1.767,0.353c1.053,0.211,1.918,0.974,2.257,1.993L39.612,19H24.388L25.215,16.519z"/><path d="M62.949,19.684l-1.266-3.798c-0.566-1.698-2.008-2.971-3.763-3.321L56,12.181v-0.18c0-0.008-0.004-0.015-0.005-0.023    C57.205,11.065,58,9.629,58,8V6c0-2.757-2.243-5-5-5s-5,2.243-5,5v2c0,1.629,0.795,3.064,2.004,3.978    c0,0.008-0.005,0.015-0.005,0.023v0.18l-1.919,0.384c-1.755,0.351-3.197,1.623-3.763,3.321l-1.266,3.798    c-0.102,0.305-0.05,0.641,0.138,0.901C43.376,20.846,43.679,21,44,21h18c0.321,0,0.624-0.154,0.811-0.415    C62.999,20.324,63.05,19.988,62.949,19.684z M52,12.899C52.323,12.965,52.658,13,53,13c0.342,0,0.676-0.035,1-0.101l0,0.1    C54,13,54,13,54,13.001c0,0.551-0.449,0.999-1,0.999c-0.551,0-1-0.448-1-1c0,0,0,0,0,0s0,0,0-0.001L52,12.899z M50,6    c0-1.654,1.346-3,3-3s3,1.346,3,3v2c0,1.654-1.346,3-3,3s-3-1.346-3-3V6z M45.388,19l0.827-2.481    c0.339-1.02,1.205-1.782,2.258-1.993l1.766-0.353C50.696,15.245,51.761,16,53,16s2.304-0.755,2.761-1.828l1.767,0.353    c1.053,0.211,1.918,0.974,2.257,1.993L60.612,19H45.388z"/><path d="M20.811,20.585c0.188-0.261,0.239-0.597,0.138-0.901l-1.266-3.798c-0.566-1.698-2.008-2.971-3.763-3.321L14,12.181v-0.18    c0-0.008-0.004-0.015-0.005-0.023C15.205,11.065,16,9.629,16,8V6c0-2.757-2.243-5-5-5S6,3.243,6,6v2    c0,1.629,0.795,3.064,2.004,3.978C8.004,11.986,8,11.993,8,12.001v0.18l-1.919,0.384c-1.755,0.351-3.197,1.623-3.763,3.321    l-1.266,3.798c-0.102,0.305-0.05,0.641,0.138,0.901C1.376,20.846,1.679,21,2,21h18C20.321,21,20.624,20.846,20.811,20.585z     M10,12.899C10.323,12.965,10.658,13,11,13c0.342,0,0.676-0.035,1-0.101l0,0.1C12,13,12,13,12,13.001c0,0.551-0.449,0.999-1,0.999    c-0.551,0-1-0.448-1-1c0,0,0,0,0,0s0,0,0-0.001L10,12.899z M8,6c0-1.654,1.346-3,3-3s3,1.346,3,3v2c0,1.654-1.346,3-3,3    S8,9.654,8,8V6z M3.388,19l0.827-2.481c0.339-1.02,1.205-1.782,2.258-1.993l1.766-0.353C8.696,15.245,9.761,16,11,16    s2.304-0.755,2.761-1.828l1.767,0.353c1.053,0.211,1.918,0.974,2.257,1.993L18.612,19H3.388z"/></g></g></svg>