<?xml version="1.0" ?><svg id="Layer_1_1_" style="enable-background:new 0 0 64 64;" version="1.1" viewBox="0 0 64 64" xml:space="preserve" xmlns="http://www.w3.org/2000/svg" xmlns:xlink="http://www.w3.org/1999/xlink"><g><g><path d="M62,53h-1V19c0-2.757-2.243-5-5-5h-5c-0.553,0-1,0.447-1,1s0.447,1,1,1h5c1.654,0,3,1.346,3,3v34H40H24H5V19    c0-1.654,1.346-3,3-3h5c0.553,0,1-0.447,1-1s-0.447-1-1-1H8c-2.757,0-5,2.243-5,5v34H2c-0.553,0-1,0.447-1,1v4    c0,2.757,2.243,5,5,5h52c2.757,0,5-2.243,5-5v-4C63,53.447,62.553,53,62,53z M25,55h14v1c0,0.552-0.448,1-1,1H26    c-0.552,0-1-0.448-1-1V55z M61,58c0,1.654-1.346,3-3,3H6c-1.654,0-3-1.346-3-3v-3h20v1c0,1.654,1.346,3,3,3h12    c1.654,0,3-1.346,3-3v-1h20V58z"/><path d="M9,18c-1.103,0-2,0.897-2,2v30c0,0.553,0.447,1,1,1s1-0.447,1-1V20h5c0.553,0,1-0.447,1-1s-0.447-1-1-1H9z"/><path d="M56,51c0.553,0,1-0.447,1-1V20c0-1.103-0.897-2-2-2h-4c-0.553,0-1,0.447-1,1s0.447,1,1,1h4v30C55,50.553,55.447,51,56,51z    "/></g><g><g><path d="M50,51H14c-0.553,0-1-0.447-1-1V2c0-0.553,0.447-1,1-1h36c0.553,0,1,0.447,1,1v48     C51,50.553,50.553,51,50,51z" style="fill:#00F4CB;"/></g></g><path d="M34.545,8.383C34.26,8.2,33.903,8.17,33.594,8.308l-4.346,1.932c-2.958,1.315-6.101,1.982-9.341,1.982H18   c-0.553,0-1,0.447-1,1v6c0,0.553,0.447,1,1,1h1.907c3.238,0,6.381,0.667,9.341,1.982l4.346,1.932   c0.13,0.058,0.269,0.086,0.406,0.086c0.19,0,0.38-0.055,0.545-0.161c0.284-0.185,0.455-0.5,0.455-0.839v-14   C35,8.883,34.829,8.567,34.545,8.383z M19,18.222v-4h0.907c0.305,0,0.607-0.013,0.91-0.023v4.047   c-0.303-0.011-0.606-0.023-0.91-0.023H19z M33,21.683l-2.939-1.307c-2.323-1.032-4.75-1.691-7.243-1.981v-4.347   c2.495-0.29,4.922-0.949,7.243-1.981L33,10.761V21.683z"/><g><path d="M37.121,19.343c-0.256,0-0.513-0.098-0.708-0.294c-0.39-0.391-0.39-1.023,0.002-1.414C36.792,17.258,37,16.756,37,16.222    s-0.208-1.036-0.586-1.414c-0.391-0.391-0.391-1.023,0-1.414s1.023-0.391,1.414,0C38.584,14.149,39,15.153,39,16.222    c0,1.069-0.416,2.074-1.173,2.829C37.633,19.245,37.377,19.343,37.121,19.343z"/></g><g><path d="M39.949,22.172c-0.256,0-0.512-0.098-0.707-0.293c-0.391-0.391-0.391-1.023,0-1.414C40.376,19.331,41,17.824,41,16.222    s-0.624-3.109-1.757-4.242c-0.391-0.391-0.391-1.023,0-1.414s1.023-0.391,1.414,0C42.168,12.076,43,14.085,43,16.222    s-0.832,4.146-2.344,5.657C40.461,22.074,40.205,22.172,39.949,22.172z"/></g><g><path d="M42.778,25c-0.256,0-0.512-0.098-0.707-0.293c-0.391-0.391-0.391-1.023,0-1.414C43.96,21.404,45,18.893,45,16.222    c0-2.67-1.04-5.182-2.929-7.071c-0.391-0.391-0.391-1.023,0-1.414s1.023-0.391,1.414,0C45.752,10.004,47,13.018,47,16.222    c0,3.205-1.248,6.219-3.515,8.485C43.29,24.902,43.034,25,42.778,25z"/></g><g><path d="M46,47H30c-0.553,0-1-0.447-1-1V30c0-0.553,0.447-1,1-1h16c0.553,0,1,0.447,1,1v16C47,46.553,46.553,47,46,47z M31,45h14    V31H31V45z"/></g><g><path d="M42,35h-8c-0.553,0-1-0.447-1-1s0.447-1,1-1h8c0.553,0,1,0.447,1,1S42.553,35,42,35z"/></g><g><path d="M42,43h-8c-0.553,0-1-0.447-1-1s0.447-1,1-1h8c0.553,0,1,0.447,1,1S42.553,43,42,43z"/></g><g><circle cx="38" cy="38" r="1"/></g><g><circle cx="34" cy="38" r="1"/></g><g><circle cx="42" cy="38" r="1"/></g><g><path d="M26,33h-8c-0.553,0-1-0.447-1-1s0.447-1,1-1h8c0.553,0,1,0.447,1,1S26.553,33,26,33z"/></g><g><path d="M26,37h-8c-0.553,0-1-0.447-1-1s0.447-1,1-1h8c0.553,0,1,0.447,1,1S26.553,37,26,37z"/></g><g><path d="M26,41h-8c-0.553,0-1-0.447-1-1s0.447-1,1-1h8c0.553,0,1,0.447,1,1S26.553,41,26,41z"/></g><g><path d="M26,45h-8c-0.553,0-1-0.447-1-1s0.447-1,1-1h8c0.553,0,1,0.447,1,1S26.553,45,26,45z"/></g></g></svg>