<?xml version="1.0" ?><svg viewBox="0 0 64 64" xmlns="http://www.w3.org/2000/svg"><defs><style>.a{fill:none;stroke:#000;stroke-linecap:round;stroke-linejoin:round;stroke-width:2px;}</style></defs><title/><path class="a" d="M48.51,11.23a23,23,0,0,0-33,0c-8.81,9.08-8.33,23.69.62,32.64L31.29,59.06a1,1,0,0,0,1.41,0L47.9,43.87C56.84,34.92,57.32,20.31,48.51,11.23Z"/><path class="a" d="M42.81,19.69a7.64,7.64,0,0,0-10.81,0h0a7.64,7.64,0,0,0-10.81,0c-3,3-2.15,8.35.19,11.86s8.16,8,10,9.33a1,1,0,0,0,1.17,0c1.86-1.37,7.67-5.79,10-9.33S45.79,22.68,42.81,19.69Z"/></svg>