<?xml version="1.0" ?><svg viewBox="0 0 64 64" xmlns="http://www.w3.org/2000/svg"><defs><style>.a{fill:none;stroke:#000;stroke-linecap:round;stroke-linejoin:round;stroke-width:2px;}</style></defs><title/><path class="a" d="M35,34H32V16A12,12,0,0,1,44,4h4A12,12,0,0,1,60,16V34H57.17"/><circle class="a" cx="19" cy="18" r="11"/><circle class="a" cx="46" cy="18" r="11"/><path class="a" d="M27,32a4,4,0,0,1,3.49,4.41l-2.11,19a4,4,0,0,1-4,3.56H13.58a4,4,0,0,1-4-3.56l-2.11-19A4,4,0,0,1,11.16,32a1.56,1.56,0,0,1,.31,0H26.53A3.91,3.91,0,0,1,27,32Z"/><polyline class="a" points="14.86 32 16.67 37.04 19.17 44 21.61 37.12 23.42 32"/><polyline class="a" points="11.17 32.17 11 38 14 38 14 46 18.5 50.5"/><polyline class="a" points="27 32.17 26.92 38 24.08 38 23.92 45.92 19.58 50"/><line class="a" x1="18.92" x2="19" y1="58.75" y2="50.83"/><path class="a" d="M38,52l0,0-.86-4L35,38.18l-.39-1.78A4,4,0,0,1,38.53,32H53.47a4,4,0,0,1,3.94,4.4L57.06,38,54.91,48"/><polyline class="a" points="54.9 48 54.04 52 54 52"/><polygon class="a" points="54 52 54.33 53 57 59 35 59 37.9 52.22 38 52 54 52"/><polyline class="a" points="37.5 48 54.9 48 54.91 48"/><line class="a" x1="35.83" x2="57" y1="38" y2="38"/></svg>