<?xml version="1.0" ?><svg height="32px" id="Layer_20" style="enable-background:new 0 0 32 32;" version="1.0" viewBox="0 0 32 32" width="32px" xml:space="preserve" xmlns="http://www.w3.org/2000/svg" xmlns:xlink="http://www.w3.org/1999/xlink"><style type="text/css">
	.Drop_x0020_Shadow{fill:none;}
	.Round_x0020_Corners_x0020_2_x0020_pt{fill:#FFFFFF;stroke:#231F20;stroke-miterlimit:10;}
	.Live_x0020_Reflect_x0020_X{fill:none;}
	.Bevel_x0020_Soft{fill:url(#SVGID_1_);}
	.Dusk{fill:#FFFFFF;}
	.Foliage_GS{fill:#FFDD00;}
	.Pompadour_GS{fill-rule:evenodd;clip-rule:evenodd;fill:#44ADE2;}
	.st0{fill:#595A59;}
	.st1{fill:#2C2C2C;}
	.st2{fill:#FFFFFF;}
</style><linearGradient gradientUnits="userSpaceOnUse" id="SVGID_1_" x1="0" x2="0.7071" y1="-141" y2="-140.2929"><stop offset="0" style="stop-color:#DEDFE3"/><stop offset="0.1783" style="stop-color:#DADBDF"/><stop offset="0.3611" style="stop-color:#CECFD3"/><stop offset="0.546" style="stop-color:#B9BCBF"/><stop offset="0.7324" style="stop-color:#9CA0A2"/><stop offset="0.9181" style="stop-color:#787D7E"/><stop offset="1" style="stop-color:#656B6C"/></linearGradient><g id="XMLID_282_"><path class="st0" d="M27.3,31.6H4.7c-2.4,0-4.3-1.9-4.3-4.3V4.7c0-2.4,1.9-4.3,4.3-4.3h22.5c2.4,0,4.3,1.9,4.3,4.3   v22.5C31.6,29.7,29.7,31.6,27.3,31.6z" id="XMLID_90_"/><polygon class="st1" id="XMLID_89_" points="31.6,31.7 0.4,31.7 0.4,23.9 31.6,23.8  "/><g id="_x37_NZp5s.tif"><g id="XMLID_1229_"><path class="st2" d="M15.9,4.1c0.4,0,0.8,0,1.3,0c0.1,0,0.1,0,0.2,0c1.2,0.1,2.4,0.3,3.5,0.7     c2.1,0.8,3.8,2,5.3,3.7c1.3,1.5,2.2,3.3,2.7,5.2c0.2,0.7,0.3,1.4,0.3,2.1c0,0.7,0,1.3,0,2c0,0.1,0,0.1,0,0.2     c-0.1,1.2-0.3,2.3-0.7,3.3c-0.8,2.2-2.2,4.1-4,5.6c-1.6,1.3-3.5,2.2-5.5,2.5c-0.6,0.1-1.2,0.1-1.7,0.2c-0.4,0-0.7,0-1.1,0     c-0.2-0.1-0.5,0-0.7-0.1c-1-0.1-2-0.3-3-0.7c-2.1-0.8-3.9-2-5.4-3.7c-1.5-1.7-2.4-3.7-2.8-5.9c-0.1-0.6-0.2-1.1-0.2-1.7     c0-0.5,0-1.1,0-1.6c0-0.1,0-0.1,0-0.2c0-0.7,0.1-1.4,0.3-2.1c0.9-3.4,2.8-6.1,5.8-8c1.4-0.9,2.9-1.4,4.5-1.7     C15,4.1,15.4,4.1,15.9,4.1z M13.7,23.7C13.7,23.7,13.7,23.7,13.7,23.7c0.1,0,0.1-0.1,0.1-0.1c0.7-2.2,1.4-4.4,2.2-6.6     c0.2-0.5,0.2-0.9,0-1.4c-0.5-1.3-0.9-2.5-1.4-3.8c-0.1-0.4-0.2-0.4-0.6-0.4c-0.3,0-0.5,0-0.8-0.1c-0.3-0.1-0.4-0.3-0.4-0.5     c0-0.3,0.3-0.5,0.5-0.4c0.6,0.1,1.2,0.1,1.7,0.1c1.4,0.1,2.8,0,4.2-0.1c0.2,0,0.4,0,0.5,0.2c0.1,0.2,0.1,0.4,0,0.5     c-0.1,0.2-0.3,0.2-0.5,0.3c-0.3,0-0.6,0-0.9,0.1c-0.3,0-0.3,0.1-0.2,0.3c0.3,0.8,0.5,1.5,0.8,2.3c1,3.1,2.1,6.2,3.1,9.3     c0,0.1,0,0.2,0.1,0.3c0-0.1,0.1-0.2,0.1-0.3c0.4-1.4,0.8-2.9,1.3-4.3c0.3-0.8,0.5-1.7,0.5-2.6c0-1-0.2-1.9-0.6-2.8     c-0.3-0.7-0.8-1.3-1.1-2c-0.3-0.6-0.4-1.2-0.3-1.8c0.2-0.8,0.9-1.5,1.7-1.5c0.1,0,0.2,0,0.2,0c0-0.1-0.1-0.1-0.1-0.2     c-2.4-2-5.1-2.9-8.1-2.7c-1.5,0.1-2.8,0.5-4.1,1.1c-1.8,0.9-3.3,2.1-4.4,3.8c0,0.1-0.1,0.1-0.1,0.2c0,0.1,0.1,0,0.2,0     c1.1,0,2.3,0,3.4-0.1c0.2,0,0.4,0,0.5,0.2c0.1,0.2,0.1,0.3,0.1,0.5c-0.1,0.2-0.3,0.3-0.5,0.3c-0.3,0-0.6,0.1-0.9,0.1     c-0.2,0-0.2,0.1-0.2,0.3c0.2,0.7,0.5,1.4,0.7,2.1c0.9,2.8,1.9,5.6,2.8,8.4C13.3,22.8,13.5,23.2,13.7,23.7z M16.7,18.1     C16.7,18.1,16.7,18.1,16.7,18.1c-0.1,0.1-0.1,0.2-0.2,0.4c-0.7,2-1.4,3.9-2,5.9c-0.4,1.1-0.8,2.2-1.2,3.4c0,0.1,0,0.2,0.1,0.3     c0.7,0.2,1.3,0.3,2,0.4c0.8,0.1,1.5,0,2.3,0c0.8-0.1,1.5-0.3,2.2-0.5c0.2,0,0.2-0.1,0.1-0.3c-0.2-0.5-0.4-1.1-0.6-1.6     c-0.7-2-1.5-4.1-2.2-6.1C17.2,19.3,17,18.7,16.7,18.1z M6.1,12.3C6.1,12.3,6.1,12.3,6.1,12.3c-1.2,2.7-1.3,5.4-0.4,8.1     c1,3,2.9,5.2,5.7,6.7C9.7,22.2,7.9,17.3,6.1,12.3z M22.3,26.6C22.3,26.6,22.3,26.6,22.3,26.6c2.4-1.4,4-3.4,4.9-6     c1-3.1,0.8-6.1-0.6-9c-0.1,0.1-0.1,0.1,0,0.2c0.1,1,0,2-0.2,3c-0.2,0.9-0.5,1.7-0.8,2.6c-0.7,2.2-1.5,4.3-2.2,6.5     C22.9,24.7,22.6,25.7,22.3,26.6z" id="XMLID_1248_"/></g></g></g></svg>