<?xml version="1.0" ?><svg height="32px" id="Layer_13" style="enable-background:new 0 0 32 32;" version="1.0" viewBox="0 0 32 32" width="32px" xml:space="preserve" xmlns="http://www.w3.org/2000/svg" xmlns:xlink="http://www.w3.org/1999/xlink"><style type="text/css">
	.Drop_x0020_Shadow{fill:none;}
	.Round_x0020_Corners_x0020_2_x0020_pt{fill:#FFFFFF;stroke:#231F20;stroke-miterlimit:10;}
	.Live_x0020_Reflect_x0020_X{fill:none;}
	.Bevel_x0020_Soft{fill:url(#SVGID_1_);}
	.Dusk{fill:#FFFFFF;}
	.Foliage_GS{fill:#FFDD00;}
	.Pompadour_GS{fill-rule:evenodd;clip-rule:evenodd;fill:#44ADE2;}
	.st0{fill:#79C8AF;}
	.st1{fill:#317D61;}
	.st2{fill:#FFFFFF;}
</style><linearGradient gradientUnits="userSpaceOnUse" id="SVGID_1_" x1="-235" x2="-234.2929" y1="-47" y2="-46.2929"><stop offset="0" style="stop-color:#DEDFE3"/><stop offset="0.1783" style="stop-color:#DADBDF"/><stop offset="0.3611" style="stop-color:#CECFD3"/><stop offset="0.546" style="stop-color:#B9BCBF"/><stop offset="0.7324" style="stop-color:#9CA0A2"/><stop offset="0.9181" style="stop-color:#787D7E"/><stop offset="1" style="stop-color:#656B6C"/></linearGradient><g id="XMLID_276_"><path class="st0" d="M27.3,31.4H5c-2.4,0-4.3-1.9-4.3-4.3V4.8c0-2.4,1.9-4.3,4.3-4.3h22.3c2.4,0,4.3,1.9,4.3,4.3   v22.3C31.5,29.5,29.6,31.4,27.3,31.4z" id="XMLID_78_"/><polygon class="st1" id="XMLID_77_" points="31.5,31.4 0.7,31.4 0.7,23.8 31.5,23.6  "/><g id="XMLID_756_"><path class="st2" d="M4.7,8.5c0.7,0,1.3,0,2,0c0.1,0,0.2,0.1,0.2,0.2c0.1,1.2,0.3,2.4,0.5,3.6    c0.3,1.6,0.7,3.1,1.2,4.7c0.5,1.4,1,2.8,1.7,4.2c0.5,1.1,1.1,2.1,1.8,3c0.4,0.6,0.9,1.3,1.4,1.9c0.1,0.1,0.1,0.1,0.2,0    c0.6-0.6,1.1-1.2,1.6-1.9c1-1.3,1.8-2.6,2.6-4.1c0-0.1,0-0.1-0.1-0.2c-0.6-0.3-1.2-0.8-1.8-1.3c-1.1-1.1-1.9-2.4-2.3-3.9    c-0.3-0.9-0.4-1.9-0.5-2.9c-0.1-1.3,0.1-2.6,0.6-3.7c0.8-1.8,2.1-2.9,4-3.3c1.2-0.2,2.3-0.2,3.5,0.2c1.4,0.5,2.4,1.4,2.9,2.7    c0.3,0.8,0.5,1.6,0.6,2.4c0.1,1.6-0.1,3.1-0.6,4.6c-0.1,0.2-0.1,0.4-0.2,0.5c0,0.1-0.1,0.1-0.1,0.1c-1,0.2-1.9,0.1-2.8-0.4    c-0.3-0.2-0.5-0.4-0.7-0.7c-0.1-0.1-0.1-0.2,0-0.3c0.2-0.6,0.3-1.2,0.4-1.8c0.1-0.8,0.1-1.5-0.1-2.3c-0.1-0.5-0.3-0.9-0.8-1.1    c-0.6-0.4-1.4-0.2-1.9,0.3c-0.4,0.4-0.5,1-0.6,1.5c-0.2,1.3,0,2.6,0.5,3.8c0.7,1.5,1.8,2.5,3.4,3c0.8,0.3,1.7,0.3,2.6,0.2    c0.3,0,0.6-0.1,0.9-0.1c0.1,0,0.1,0,0.1,0.1c0,0.9,0,1.9,0,2.8c0,0.1,0,0.2-0.1,0.2c-0.7,0.1-1.4,0.3-2.2,0.3c-0.2,0-0.4,0-0.6,0    c-0.1,0-0.1,0-0.2,0.1c-0.3,0.7-0.7,1.4-1.1,2c-0.4,0.7-0.8,1.3-1.3,1.9c-0.9,1.2-1.8,2.3-2.9,3.4c-0.6,0.6-1.2,1.1-1.8,1.6    c-0.8,0.6-1.7,0.6-2.6,0.1c-0.6-0.4-1.2-0.9-1.7-1.4c-1.2-1.1-2.1-2.4-3-3.8c-0.9-1.5-1.7-3.2-2.3-4.9c-0.5-1.2-0.9-2.5-1.2-3.7    c-0.4-1.5-0.7-3-1-4.5c-0.2-1-0.3-2-0.5-3c0-0.2,0-0.2,0.2-0.2C3.3,8.5,4,8.5,4.7,8.5z" id="XMLID_765_"/></g></g></svg>