<?xml version="1.0" ?><svg height="32px" id="Layer_19" style="enable-background:new 0 0 32 32;" version="1.0" viewBox="0 0 32 32" width="32px" xml:space="preserve" xmlns="http://www.w3.org/2000/svg" xmlns:xlink="http://www.w3.org/1999/xlink"><style type="text/css">
	.Drop_x0020_Shadow{fill:none;}
	.Round_x0020_Corners_x0020_2_x0020_pt{fill:#FFFFFF;stroke:#231F20;stroke-miterlimit:10;}
	.Live_x0020_Reflect_x0020_X{fill:none;}
	.Bevel_x0020_Soft{fill:url(#SVGID_1_);}
	.Dusk{fill:#FFFFFF;}
	.Foliage_GS{fill:#FFDD00;}
	.Pompadour_GS{fill-rule:evenodd;clip-rule:evenodd;fill:#44ADE2;}
	.st0{fill:#A7539F;}
	.st1{fill:#7C2879;}
	.st2{fill:#FFFFFF;}
</style><linearGradient gradientUnits="userSpaceOnUse" id="SVGID_1_" x1="-235" x2="-234.2929" y1="-94" y2="-93.2929"><stop offset="0" style="stop-color:#DEDFE3"/><stop offset="0.1783" style="stop-color:#DADBDF"/><stop offset="0.3611" style="stop-color:#CECFD3"/><stop offset="0.546" style="stop-color:#B9BCBF"/><stop offset="0.7324" style="stop-color:#9CA0A2"/><stop offset="0.9181" style="stop-color:#787D7E"/><stop offset="1" style="stop-color:#656B6C"/></linearGradient><g id="XMLID_283_"><path class="st0" d="M27.3,31.7H4.7c-2.4,0-4.4-1.9-4.4-4.4V4.6c0-2.4,1.9-4.4,4.4-4.4h22.7c2.4,0,4.4,1.9,4.4,4.4   v22.7C31.7,29.7,29.7,31.7,27.3,31.7z" id="XMLID_92_"/><polygon class="st1" id="XMLID_91_" points="31.7,31.7 0.3,31.7 0.3,23.9 31.7,23.8  "/><g id="XMLID_683_"><g id="share-alt"><path class="st2" d="M24.4,13.4c-0.8,0-1.5,0.3-2.1,0.8L15,10c0.1-0.2,0.1-0.5,0.1-0.7c0-1.8-1.3-3.1-3.1-3.1     S9,7.5,9,9.2s1.3,3.1,3.1,3.1c0.8,0,1.5-0.3,2.1-0.8l7.3,4.2c-0.1,0.2-0.1,0.5-0.1,0.7c0,0.2,0,0.5,0.1,0.7l-7.3,4.3     c-0.5-0.5-1.2-0.8-2.1-0.8c-1.7,0-3,1.3-3,3c0,1.7,1.3,3,3,3s3-1.3,3-3c0-0.2,0-0.4-0.1-0.7l7.3-4.3c0.5,0.5,1.2,0.8,2.1,0.8     c1.8,0,3.1-1.3,3.1-3.1C27.4,14.6,26.2,13.4,24.4,13.4z" id="XMLID_681_"/></g></g></g></svg>