<?xml version="1.0" ?><svg height="32px" id="Layer_24" style="enable-background:new 0 0 32 32;" version="1.0" viewBox="0 0 32 32" width="32px" xml:space="preserve" xmlns="http://www.w3.org/2000/svg" xmlns:xlink="http://www.w3.org/1999/xlink"><style type="text/css">
	.Drop_x0020_Shadow{fill:none;}
	.Round_x0020_Corners_x0020_2_x0020_pt{fill:#FFFFFF;stroke:#231F20;stroke-miterlimit:10;}
	.Live_x0020_Reflect_x0020_X{fill:none;}
	.Bevel_x0020_Soft{fill:url(#SVGID_1_);}
	.Dusk{fill:#FFFFFF;}
	.Foliage_GS{fill:#FFDD00;}
	.Pompadour_GS{fill-rule:evenodd;clip-rule:evenodd;fill:#44ADE2;}
	.st0{fill:#ED2924;}
	.st1{fill:#BE2126;}
	.st2{fill:#FFFFFF;}
</style><linearGradient gradientUnits="userSpaceOnUse" id="SVGID_1_" x1="-188" x2="-187.2929" y1="-141" y2="-140.2929"><stop offset="0" style="stop-color:#DEDFE3"/><stop offset="0.1783" style="stop-color:#DADBDF"/><stop offset="0.3611" style="stop-color:#CECFD3"/><stop offset="0.546" style="stop-color:#B9BCBF"/><stop offset="0.7324" style="stop-color:#9CA0A2"/><stop offset="0.9181" style="stop-color:#787D7E"/><stop offset="1" style="stop-color:#656B6C"/></linearGradient><g id="XMLID_288_"><path class="st0" d="M27.3,31.5H4.7c-2.4,0-4.3-1.9-4.3-4.3V4.7c0-2.4,1.9-4.3,4.3-4.3h22.6c2.4,0,4.3,1.9,4.3,4.3   v22.6C31.6,29.6,29.7,31.5,27.3,31.5z" id="XMLID_109_"/><polygon class="st1" id="XMLID_108_" points="31.6,31.8 0.4,31.8 0.4,24 31.6,23.9  "/><g id="XMLID_596_"><path class="st2" d="M20.3,5.5C20.9,6,21.5,6.5,22,7.2c2.5,3.4,2.9,7.1,1.2,11.2c-0.8,1.9-2.1,3.3-3.6,4.6    c-2.4,2-5.1,3.5-8,4.7c-2,0.9-4.1,1.7-6.3,2.3c-0.6,0.2-1.1,0.4-1.6,0c-0.4-0.3-0.6-0.9-0.7-1.4c-0.3-1.3-0.4-2.7-0.5-4.1    c-0.2-2.7-0.3-5.5,0-8.2c0.2-1.9,0.5-3.9,1.3-5.7C5.2,7.2,7.6,4.9,11,3.8c2.2-0.7,4.4-0.6,6.5,0.1c0.3,0.1,0.7,0.3,1,0.4    C19.2,4.8,19.8,5.1,20.3,5.5z M17.5,8.1c-3.3-2-7.5-1-9.7,2.5c-2.2,3.4-1.4,7.8,2,9.9c3.3,2.1,7.6,0.9,9.7-2.5    C21.6,14.4,20.7,10.2,17.5,8.1z" id="XMLID_617_"/><circle class="st2" cx="13.6" cy="14.4" id="XMLID_701_" r="4.2"/></g></g></svg>