<?xml version="1.0" ?><svg enable-background="new 0 0 515.91 728.5" height="512" id="Layer_1" version="1.1" viewBox="0 0 512.00003 512" width="512" xml:space="preserve" xmlns="http://www.w3.org/2000/svg" xmlns:cc="http://creativecommons.org/ns#" xmlns:dc="http://purl.org/dc/elements/1.1/" xmlns:inkscape="http://www.inkscape.org/namespaces/inkscape" xmlns:rdf="http://www.w3.org/1999/02/22-rdf-syntax-ns#" xmlns:sodipodi="http://sodipodi.sourceforge.net/DTD/sodipodi-0.dtd" xmlns:svg="http://www.w3.org/2000/svg" xmlns:xlink="http://www.w3.org/1999/xlink"><defs id="defs7"><filter color-interpolation-filters="sRGB" id="filter3442"><feGaussianBlur id="feGaussianBlur3444" stdDeviation="2.3432203"/></filter><linearGradient gradientTransform="translate(-322.85714,-811.42857)" gradientUnits="userSpaceOnUse" id="linearGradient3380" x1="447.5928" x2="413.88904" xlink:href="#linearGradient3374" y1="883.36084" y2="910.63495"/><linearGradient id="linearGradient3374"><stop id="stop3376" offset="0" style="stop-color:#ffffff;stop-opacity:0.43727598"/><stop id="stop3378" offset="1" style="stop-color:#ffffff;stop-opacity:0"/></linearGradient><filter color-interpolation-filters="sRGB" id="filter3478"><feGaussianBlur id="feGaussianBlur3480" stdDeviation="3.4723602"/></filter></defs><g id="g7199" transform="translate(1.5e-5,0)"><g id="g6983" style="fill:#167947;fill-opacity:1"><path d="M 0,0 0,512 512,512 512,0 0,0 z" id="path5060" style="fill:#167947;fill-opacity:1;fill-rule:nonzero;stroke:none"/><g id="g3372" style="fill:#167947;fill-opacity:1" transform="matrix(15.99685,0,0,15.99685,-5338.7915,-6028.4756)"><g id="g3368" style="fill:#167947;fill-opacity:1" transform="translate(0.44642857,-0.04464286)"><path d="m 355.84375,380.40625 c -0.0699,0.0404 -0.0811,0.0614 -0.0625,0.0312 -0.67912,1.14393 -0.69662,2.65289 -1,4 a 0.4982215,0.4982215 0 0 1 0,0.0312 c -0.005,0.0197 0.005,0.0429 0,0.0625 -0.14726,1.44619 -0.62399,2.92107 -0.28125,4.3125 a 0.4982215,0.4982215 0 0 1 0.0312,0.0937 c 0.003,0.0101 -0.003,0.0212 0,0.0312 0.005,0.008 -0.005,0.0237 0,0.0312 0.006,0.009 0.0253,-0.008 0.0312,0 0.0731,0.10058 0.16238,0.1759 0.21875,0.1875 0.0403,0.008 0.11021,0.004 0.25,-0.0937 0.15127,-0.1053 0.23683,-0.31627 0.28125,-0.59375 a 0.4982215,0.4982215 0 0 1 0.0625,-0.0937 0.4982215,0.4982215 0 0 1 0,-0.0312 0.4982215,0.4982215 0 0 1 0.0312,-0.0937 0.4982215,0.4982215 0 0 1 0.0312,-0.0312 c 0.59834,-2.38691 1.00327,-4.89182 0.84375,-7.34375 -0.0204,-0.12189 -0.0428,-0.2068 -0.15625,-0.34375 -0.0753,-0.0907 -0.13704,-0.14279 -0.15625,-0.15625 -0.0192,-0.0135 0.007,-0.004 -0.0625,0 a 0.4982215,0.4982215 0 0 1 -0.0312,0 c -0.0257,0.003 -0.0158,-6.1e-4 -0.0312,0 z" id="path3366" style="fill:#167947;fill-opacity:1;stroke:none"/><path d="m 361.84375,381.84375 c -1.03636,0.50365 -1.56686,1.70537 -2.28125,2.6875 a 0.46681363,0.46681363 0 0 1 -0.0312,0.0937 0.46681363,0.46681363 0 0 1 -0.0312,0.0625 c -0.90569,1.60511 -2.06123,3.20738 -2.1875,5.0625 -7.1e-4,0.0105 6.5e-4,0.0208 0,0.0312 0.0138,0.27995 0.17412,0.43198 0.34375,0.46875 0.16658,0.036 0.47447,-0.0594 0.59375,-0.25 a 0.46681363,0.46681363 0 0 1 0.0312,-0.0312 0.46681363,0.46681363 0 0 1 0,-0.0312 0.46681363,0.46681363 0 0 1 0,-0.0312 c 1.646,-2.26173 2.88416,-4.92489 3.90625,-7.53125 a 0.46681363,0.46681363 0 0 1 0,-0.0312 c 0.0707,-0.17113 0.0941,-0.21493 0.0312,-0.34375 -0.0185,-0.0381 -0.21237,-0.16871 -0.3125,-0.15625 -0.0163,0.007 -0.0465,-0.008 -0.0625,0 z" id="path3364" style="fill:#167947;fill-opacity:1;stroke:none" transform="translate(-0.49107143,-0.26785714)"/></g><path d="m 345.66985,382.2774 c -0.16726,0.0311 -0.4161,0.1809 -0.59375,0.25 -0.62832,0.23837 -0.975,0.77698 -1.125,1.40625 -0.15274,0.64382 -0.10183,1.36084 0,2.09375 0.10181,0.73145 0.24752,1.48649 0.40625,2.0625 0.13645,0.49836 0.23415,0.7408 0.28125,0.90625 l 0,0.125 c 0,0.0545 -0.0261,0.05 -0.0625,0.0937 -0.02,0.0109 0.02,0.0625 0,0.0625 -0.0453,0.0346 -0.0999,0.0625 -0.15625,0.0625 -0.11101,0.007 -0.19778,-0.0334 -0.3125,-0.0625 -0.0782,-0.0181 -0.17995,-0.0807 -0.15625,-0.0625 -0.0363,-0.0218 -0.1013,-0.0243 -0.125,-0.0625 0,0.0146 0.0219,0.0143 0,-0.0312 -0.0254,-0.0473 -0.0537,-0.1664 -0.0937,-0.25 -0.0891,-0.18946 -0.15908,-0.40895 -0.28125,-0.6875 -0.24381,-0.55472 -0.55754,-1.23609 -0.90625,-1.875 -0.34999,-0.64145 -0.76223,-1.22354 -1.21875,-1.625 -0.22817,-0.20054 -0.50982,-0.40155 -0.78125,-0.46875 -0.26199,-0.0655 -0.57287,-0.01 -0.84375,0.125 -0.69997,0.38836 -1.09619,1.02422 -1.25,1.6875 -0.15456,0.67346 -0.0815,1.44899 0.0312,2.125 0.11454,0.67454 0.29189,1.23077 0.40625,1.6875 0.049,0.19254 0.1087,0.37235 0.125,0.46875 0,0.0955 -0.0389,0.3448 -0.0625,0.4375 -0.11818,0.40928 -0.40559,1.09375 -0.40625,1.09375 0,0 -5.45294,14.48293 6.25,13.46875 0.0964,-0.007 0.31535,-0.0625 0.40625,-0.0625 2.29827,-0.46272 4.47308,-1.15769 6.40625,-1.9375 0.3798,-0.182 0.87805,-0.36282 1.4375,-0.625 1.11885,-0.52418 2.52451,-1.19587 3.875,-1.9375 1.35103,-0.74219 2.60454,-1.533 3.5625,-2.375 0.9596,-0.84327 1.65997,-1.76731 1.53125,-2.6875 -0.20364,-1.48345 -1.18879,-2.58587 -2.5,-3.4375 -1.31613,-0.85473 -2.95728,-1.44464 -4.59375,-1.875 -1.63576,-0.43018 -3.2241,-0.78002 -4.4375,-0.96875 -0.60652,-0.0945 -1.1749,-0.122 -1.53125,-0.1875 -0.10544,-0.0181 -0.16175,-0.0443 -0.21875,-0.0625 -0.0307,-0.004 -0.0334,-0.0131 -0.0625,-0.0312 -0.0363,-0.0218 -0.1031,-0.0243 -0.125,-0.0625 -0.02,-0.0363 0,-0.0832 0,-0.125 0,-0.0163 -1.7e-4,-0.0407 0,-0.0625 l 0,-0.90625 c -0.02,-0.748 -0.064,-1.73553 -0.21875,-2.65625 -0.15637,-0.92455 -0.39754,-1.80879 -0.90625,-2.40625 -0.30235,-0.35545 -0.73038,-0.5887 -1.25,-0.625 -0.15636,-0.0182 -0.3311,-0.0309 -0.5,0 z" id="path3302" style="fill:#167947;fill-opacity:1;stroke:none"/></g></g><g id="g3290" style="fill:#ffffff;fill-opacity:1" transform="matrix(8.9505021,0.08875577,0.08875577,-8.9505021,-2951.3615,4079.2883)"><path d="m 338.27729,422.52161 c -0.75786,0.59779 -1.26178,1.53388 -1.40415,2.73496 -0.17037,3.43048 -0.13472,6.86166 0.14636,10.2079 0.2409,2.55767 1.86605,3.57461 3.87755,3.74378 1.98826,0.082 3.7868,-1.1138 4.1193,-3.65056 0.13418,-3.20569 0.13318,-6.45072 -0.0737,-9.7048 -0.31286,-3.52782 -1.69877,-3.75651 -3.72632,-4.01365 -1.16151,-0.16456 -2.17755,0.0893 -2.93906,0.68237 z m 2.23678,1.44679 c 0.13016,-0.062 0.28673,-0.0878 0.46917,-0.0698 1.28565,0.15018 1.17558,3.3878 1.06963,6.56607 -0.0305,4.2932 0.15112,6.69668 -1.07006,6.69571 -1.47844,-0.008 -1.39071,-2.46342 -1.3173,-6.6327 0.0606,-3.8218 -0.096,-6.12531 0.84854,-6.55944" id="path66" style="fill:#ffffff;fill-opacity:1;fill-rule:evenodd;stroke:none"/><path d="m 351.07859,433.75209 2.46225,0.0262 -0.0498,3.18561 c -0.18398,1.51372 -1.59916,2.67506 -3.80917,2.71121 -2.54442,-0.0726 -3.82116,-1.50018 -3.87869,-4.35817 -0.0417,-2.55796 0.98938,-3.8903 3.12537,-5.44404 3.2571,-2.49552 2.8126,-5.25928 1.03016,-5.39654 -1.40774,0.0903 -1.41387,1.77435 -1.51865,3.73001 l -2.61637,0.0308 0.0838,-3.87425 c 0.13785,-1.16886 2.28584,-2.57662 4.63348,-2.56105 2.07465,0.12133 3.74756,2.21823 3.65754,4.46668 -0.19913,1.62511 -0.0204,3.82681 -3.25455,6.1563 -3.5554,1.95669 -2.7424,4.60006 -1.39493,4.70252 1.61312,-0.0882 1.54632,-1.2598 1.52921,-3.37777" id="path68" style="fill:#ffffff;fill-opacity:1;fill-rule:evenodd;stroke:none"/><path d="m 360.22695,443.90626 0.97254,-0.12367 -6.87317,-26.14065 -1.10236,0.0175 7.00298,26.24689" id="path70" style="fill:#ffffff;fill-opacity:1;fill-rule:evenodd;stroke:none"/><path d="m 363.60884,433.79412 -2.86795,-0.23886 -0.10483,2.77486 c 0.0475,2.30016 2.21232,4.02742 4.48848,3.94784 2.57853,-0.15661 3.56974,-1.20468 3.9171,-3.24366 0.28334,-1.99094 -0.74521,-4.16862 -2.95385,-6.57567 -1.82309,-2.09002 -2.54556,-3.72846 -2.81719,-5.30271 l 5.20191,0.15966 -0.0843,-3.09173 -7.91375,-0.25566 -0.0468,3.59302 c 0.0389,1.34039 1.04444,3.48627 2.76052,5.50032 2.87537,3.0219 3.854,6.14742 1.63549,6.23874 -1.00009,-0.10923 -1.50808,-0.85094 -1.21446,-3.5061" id="path72" style="fill:#ffffff;fill-opacity:1;fill-rule:evenodd;stroke:none"/><path d="m 341.35904,413.70019 c 4.67182,-3.50765 10.3435,-4.79247 15.72133,-4.03206 5.37216,0.75957 10.45444,3.56131 13.95909,8.22906 3.51667,4.68374 4.80229,10.3649 4.04151,15.75048 -0.76176,5.38757 -3.57031,10.48248 -8.24126,13.98955 -4.68537,3.51786 -10.36748,4.80042 -15.75569,4.03287 -5.39021,-0.76857 -10.49008,-3.58711 -14.00794,-8.27246 -3.50586,-4.66935 -4.77804,-10.3343 -4.00307,-15.70928 0.77538,-5.37782 3.5991,-10.4691 8.28603,-13.98816 z m -0.67724,-0.90205 c -4.93246,3.70338 -7.90665,9.06395 -8.72205,14.72817 -0.81702,5.66543 0.52292,11.63215 4.21429,16.54861 3.70337,4.93246 9.07191,7.90065 14.74936,8.70864 5.67722,0.80943 11.66112,-0.54091 16.5936,-4.2443 4.91804,-3.69258 7.87582,-9.05835 8.67882,-14.73578 0.80083,-5.67202 -0.5519,-11.65409 -4.25349,-16.58416 -3.69018,-4.91488 -9.04412,-7.86525 -14.70616,-8.66608 -5.66484,-0.8012 -11.63632,0.5523 -16.55437,4.2449" id="path74" style="fill:#ffffff;fill-opacity:1;fill-rule:nonzero;stroke:none"/></g></g></svg>