<?xml version="1.0" ?><svg enable-background="new 0 0 515.91 728.5" height="512" id="Layer_1" version="1.1" viewBox="0 0 512.00003 512" width="512" xml:space="preserve" xmlns="http://www.w3.org/2000/svg" xmlns:cc="http://creativecommons.org/ns#" xmlns:dc="http://purl.org/dc/elements/1.1/" xmlns:inkscape="http://www.inkscape.org/namespaces/inkscape" xmlns:rdf="http://www.w3.org/1999/02/22-rdf-syntax-ns#" xmlns:sodipodi="http://sodipodi.sourceforge.net/DTD/sodipodi-0.dtd" xmlns:svg="http://www.w3.org/2000/svg" xmlns:xlink="http://www.w3.org/1999/xlink"><defs id="defs7"><filter color-interpolation-filters="sRGB" id="filter3442"><feGaussianBlur id="feGaussianBlur3444" stdDeviation="2.3432203"/></filter><linearGradient gradientTransform="translate(-322.85714,-811.42857)" gradientUnits="userSpaceOnUse" id="linearGradient3380" x1="447.5928" x2="413.88904" xlink:href="#linearGradient3374" y1="883.36084" y2="910.63495"/><linearGradient id="linearGradient3374"><stop id="stop3376" offset="0" style="stop-color:#ffffff;stop-opacity:0.43727598"/><stop id="stop3378" offset="1" style="stop-color:#ffffff;stop-opacity:0"/></linearGradient><filter color-interpolation-filters="sRGB" id="filter3478"><feGaussianBlur id="feGaussianBlur3480" stdDeviation="3.4723602"/></filter></defs><g id="g6983" style="fill:#ee7314;fill-opacity:1" transform="translate(1.5e-5,0)"><path d="M 0,0 0,512 512,512 512,0 0,0 z" id="path5060" style="fill:#ee7314;fill-opacity:1;fill-rule:nonzero;stroke:none"/><g id="g3372" style="fill:#ee7314;fill-opacity:1" transform="matrix(15.99685,0,0,15.99685,-5338.7915,-6028.4756)"><g id="g3368" style="fill:#ee7314;fill-opacity:1" transform="translate(0.44642857,-0.04464286)"><path d="m 355.84375,380.40625 c -0.0699,0.0404 -0.0811,0.0614 -0.0625,0.0312 -0.67912,1.14393 -0.69662,2.65289 -1,4 a 0.4982215,0.4982215 0 0 1 0,0.0312 c -0.005,0.0197 0.005,0.0429 0,0.0625 -0.14726,1.44619 -0.62399,2.92107 -0.28125,4.3125 a 0.4982215,0.4982215 0 0 1 0.0312,0.0937 c 0.003,0.0101 -0.003,0.0212 0,0.0312 0.005,0.008 -0.005,0.0237 0,0.0312 0.006,0.009 0.0253,-0.008 0.0312,0 0.0731,0.10058 0.16238,0.1759 0.21875,0.1875 0.0403,0.008 0.11021,0.004 0.25,-0.0937 0.15127,-0.1053 0.23683,-0.31627 0.28125,-0.59375 a 0.4982215,0.4982215 0 0 1 0.0625,-0.0937 0.4982215,0.4982215 0 0 1 0,-0.0312 0.4982215,0.4982215 0 0 1 0.0312,-0.0937 0.4982215,0.4982215 0 0 1 0.0312,-0.0312 c 0.59834,-2.38691 1.00327,-4.89182 0.84375,-7.34375 -0.0204,-0.12189 -0.0428,-0.2068 -0.15625,-0.34375 -0.0753,-0.0907 -0.13704,-0.14279 -0.15625,-0.15625 -0.0192,-0.0135 0.007,-0.004 -0.0625,0 a 0.4982215,0.4982215 0 0 1 -0.0312,0 c -0.0257,0.003 -0.0158,-6.1e-4 -0.0312,0 z" id="path3366" style="fill:#ee7314;fill-opacity:1;stroke:none"/><path d="m 361.84375,381.84375 c -1.03636,0.50365 -1.56686,1.70537 -2.28125,2.6875 a 0.46681363,0.46681363 0 0 1 -0.0312,0.0937 0.46681363,0.46681363 0 0 1 -0.0312,0.0625 c -0.90569,1.60511 -2.06123,3.20738 -2.1875,5.0625 -7.1e-4,0.0105 6.5e-4,0.0208 0,0.0312 0.0138,0.27995 0.17412,0.43198 0.34375,0.46875 0.16658,0.036 0.47447,-0.0594 0.59375,-0.25 a 0.46681363,0.46681363 0 0 1 0.0312,-0.0312 0.46681363,0.46681363 0 0 1 0,-0.0312 0.46681363,0.46681363 0 0 1 0,-0.0312 c 1.646,-2.26173 2.88416,-4.92489 3.90625,-7.53125 a 0.46681363,0.46681363 0 0 1 0,-0.0312 c 0.0707,-0.17113 0.0941,-0.21493 0.0312,-0.34375 -0.0185,-0.0381 -0.21237,-0.16871 -0.3125,-0.15625 -0.0163,0.007 -0.0465,-0.008 -0.0625,0 z" id="path3364" style="fill:#ee7314;fill-opacity:1;stroke:none" transform="translate(-0.49107143,-0.26785714)"/></g><path d="m 345.66985,382.2774 c -0.16726,0.0311 -0.4161,0.1809 -0.59375,0.25 -0.62832,0.23837 -0.975,0.77698 -1.125,1.40625 -0.15274,0.64382 -0.10183,1.36084 0,2.09375 0.10181,0.73145 0.24752,1.48649 0.40625,2.0625 0.13645,0.49836 0.23415,0.7408 0.28125,0.90625 l 0,0.125 c 0,0.0545 -0.0261,0.05 -0.0625,0.0937 -0.02,0.0109 0.02,0.0625 0,0.0625 -0.0453,0.0346 -0.0999,0.0625 -0.15625,0.0625 -0.11101,0.007 -0.19778,-0.0334 -0.3125,-0.0625 -0.0782,-0.0181 -0.17995,-0.0807 -0.15625,-0.0625 -0.0363,-0.0218 -0.1013,-0.0243 -0.125,-0.0625 0,0.0146 0.0219,0.0143 0,-0.0312 -0.0254,-0.0473 -0.0537,-0.1664 -0.0937,-0.25 -0.0891,-0.18946 -0.15908,-0.40895 -0.28125,-0.6875 -0.24381,-0.55472 -0.55754,-1.23609 -0.90625,-1.875 -0.34999,-0.64145 -0.76223,-1.22354 -1.21875,-1.625 -0.22817,-0.20054 -0.50982,-0.40155 -0.78125,-0.46875 -0.26199,-0.0655 -0.57287,-0.01 -0.84375,0.125 -0.69997,0.38836 -1.09619,1.02422 -1.25,1.6875 -0.15456,0.67346 -0.0815,1.44899 0.0312,2.125 0.11454,0.67454 0.29189,1.23077 0.40625,1.6875 0.049,0.19254 0.1087,0.37235 0.125,0.46875 0,0.0955 -0.0389,0.3448 -0.0625,0.4375 -0.11818,0.40928 -0.40559,1.09375 -0.40625,1.09375 0,0 -5.45294,14.48293 6.25,13.46875 0.0964,-0.007 0.31535,-0.0625 0.40625,-0.0625 2.29827,-0.46272 4.47308,-1.15769 6.40625,-1.9375 0.3798,-0.182 0.87805,-0.36282 1.4375,-0.625 1.11885,-0.52418 2.52451,-1.19587 3.875,-1.9375 1.35103,-0.74219 2.60454,-1.533 3.5625,-2.375 0.9596,-0.84327 1.65997,-1.76731 1.53125,-2.6875 -0.20364,-1.48345 -1.18879,-2.58587 -2.5,-3.4375 -1.31613,-0.85473 -2.95728,-1.44464 -4.59375,-1.875 -1.63576,-0.43018 -3.2241,-0.78002 -4.4375,-0.96875 -0.60652,-0.0945 -1.1749,-0.122 -1.53125,-0.1875 -0.10544,-0.0181 -0.16175,-0.0443 -0.21875,-0.0625 -0.0307,-0.004 -0.0334,-0.0131 -0.0625,-0.0312 -0.0363,-0.0218 -0.1031,-0.0243 -0.125,-0.0625 -0.02,-0.0363 0,-0.0832 0,-0.125 0,-0.0163 -1.7e-4,-0.0407 0,-0.0625 l 0,-0.90625 c -0.02,-0.748 -0.064,-1.73553 -0.21875,-2.65625 -0.15637,-0.92455 -0.39754,-1.80879 -0.90625,-2.40625 -0.30235,-0.35545 -0.73038,-0.5887 -1.25,-0.625 -0.15636,-0.0182 -0.3311,-0.0309 -0.5,0 z" id="path3302" style="fill:#ee7314;fill-opacity:1;stroke:none"/></g></g><g id="g7322" style="fill:#ffffff;fill-opacity:1" transform="matrix(1.7383187,0,0,1.7383187,-345.08388,-1083.9147)"><path d="m 390.5425,758.69965 c 0.21876,-1.19544 3.11359,-8.38614 3.11359,-8.38614 3.58643,-8.07842 1.307,-13.86841 1.307,-13.86841 -2.11439,-7.84647 -8.18544,-13.97997 -8.18544,-13.97997 0.2944,0.21875 2.14115,5.12984 2.14115,5.12984 4.25553,11.75406 -7.15502,18.49869 -7.15502,18.49869 -2.93962,1.94038 -7.73937,6.5662 -7.73937,6.5662 -6.73124,6.57958 -4.69711,14.64454 -4.69711,14.64454 l 0.26764,0.12026 c 8.00702,1.96722 15.52781,5.15661 22.36165,9.34527 -4.52764,-8.80998 -1.41405,-18.07046 -1.41405,-18.07046" id="path212" style="fill:#ffffff;fill-opacity:1;fill-rule:nonzero;stroke:none"/><path d="m 413.94618,796.79919 c -0.7494,-9.68871 5.45101,-16.95524 5.45101,-16.95524 0.63789,-1.03482 5.99523,-6.61519 5.99523,-6.61519 6.34762,-6.16481 6.40561,-12.38753 6.40561,-12.38753 0.97244,-8.06946 -2.37757,-16.02295 -2.37757,-16.02295 0.18307,0.30797 0.0671,5.55815 0.0671,5.56261 -0.43269,12.48551 -13.53386,14.49291 -13.53386,14.49291 -3.46153,0.70919 -9.64411,3.21173 -9.64411,3.21173 -8.06054,3.33656 -9.60841,10.65662 -9.78238,11.70489 6.64203,4.74622 12.51235,10.48718 17.41916,17.00877" id="path214" style="fill:#ffffff;fill-opacity:1;fill-rule:nonzero;stroke:none"/><path d="m 460.83693,780.74634 c 0.0625,0.36578 -2.01625,5.20121 -2.01625,5.20121 -5.03613,11.4284 -17.9366,8.41298 -17.9366,8.41298 -3.47491,-0.61558 -10.14371,-0.59778 -10.14371,-0.59332 -9.41214,0.10706 -13.51156,7.33791 -13.51156,7.33791 l 0.49515,1.19994 c 4.09495,6.55285 7.25315,13.73459 9.29616,21.38028 2.7835,-9.55042 11.49977,-14.14048 11.50869,-14.14048 0.9769,-0.70037 8.0204,-3.92102 8.0204,-3.92102 8.18101,-3.3589 10.54074,-9.10435 10.54074,-9.10435 3.88976,-7.1416 3.74702,-15.77315 3.74702,-15.77315" id="path216" style="fill:#ffffff;fill-opacity:1;fill-rule:nonzero;stroke:none"/><path d="m 363.36862,766.17448 c -7.13718,-6.50821 -7.65908,-15.97834 -7.65908,-15.97834 -0.26764,-1.18655 -0.23624,-8.92146 -0.22768,-8.92146 0.33438,-8.83225 -3.9299,-13.37328 -3.9299,-13.37328 -4.85328,-6.51713 -12.78,-9.96527 -12.78,-9.96527 0.36132,0.0981 3.90314,3.98789 3.90314,3.98789 8.2925,9.32293 0.20056,19.82349 0.20056,19.82349 -2.01179,2.89948 -4.75514,8.97054 -4.75514,8.97054 -3.59981,8.12745 0.55313,14.58213 1.01258,15.278 4.04143,-0.59774 8.19883,-0.88322 12.4053,-0.83861 4.03696,0.0403 7.98471,0.38362 11.82986,1.01704" id="path218" style="fill:#ffffff;fill-opacity:1;fill-rule:nonzero;stroke:none"/><path d="m 320.17042,755.03297 c -0.65572,-1.00813 -3.53736,-8.18991 -3.53736,-8.18991 -2.96638,-8.32822 -8.60475,-10.95556 -8.60475,-10.95556 -6.95428,-4.22877 -15.57688,-4.49199 -15.57688,-4.49199 0.37025,-0.0357 5.09862,2.25271 5.09862,2.25271 11.18752,5.57145 7.57878,18.32468 7.57878,18.32468 -0.78508,3.43473 -1.07503,10.10356 -1.07503,10.10356 -0.3433,9.38981 6.70002,13.83716 6.70002,13.83716 l 0.33437,-0.11598 c 6.83831,-3.9834 14.35018,-6.96763 22.2992,-8.73412 -9.15788,-3.34555 -13.21715,-12.03055 -13.21715,-12.03055" id="path220" style="fill:#ffffff;fill-opacity:1;fill-rule:nonzero;stroke:none"/><path d="m 305.99468,779.01961 c -9.70209,0.2498 -16.65191,-6.28071 -16.65191,-6.28071 -0.99028,-0.69142 -6.30748,-6.30748 -6.30748,-6.30748 -5.83909,-6.63757 -12.07074,-6.98551 -12.07074,-6.98551 -8.01147,-1.36498 -16.10324,1.58802 -16.10324,1.58802 0.32117,-0.16522 5.55361,0.20092 5.56253,0.20092 12.44545,1.04381 13.80597,14.22081 13.80597,14.22081 0.53529,3.48829 2.74331,9.78685 2.74331,9.78685 3.1627,8.85455 11.33922,10.37566 11.33922,10.37566 l 0.16487,-0.13811 c 4.97817,-6.3387 10.88864,-11.89677 17.51729,-16.4601" id="path222" style="fill:#ffffff;fill-opacity:1;fill-rule:nonzero;stroke:none"/><path d="m 267.11715,800.88925 c -1.18209,-0.27228 -8.20774,-3.51505 -8.20774,-3.51505 -7.87766,-4.02804 -13.78813,-2.04748 -13.78813,-2.04748 -7.94902,1.69062 -14.39032,7.4405 -14.39032,7.4405 0.24088,-0.28084 5.25028,-1.8735 5.25028,-1.8735 11.95477,-3.6355 18.08827,8.11407 18.08827,8.11407 1.77983,3.03776 6.16473,8.07838 6.16473,8.06946 6.20488,7.06134 14.3814,5.45994 14.3814,5.45994 l 0.2052,-0.40593 c 2.2259,-7.72153 5.61606,-14.93899 9.94297,-21.50073 -8.8724,3.73363 -17.64666,0.25872 -17.64666,0.25872" id="path224" style="fill:#ffffff;fill-opacity:1;fill-rule:nonzero;stroke:none"/></g></svg>