<?xml version="1.0" ?><svg enable-background="new 0 0 515.91 728.5" height="512" id="Layer_1" version="1.1" viewBox="0 0 512.00003 512" width="512" xml:space="preserve" xmlns="http://www.w3.org/2000/svg" xmlns:cc="http://creativecommons.org/ns#" xmlns:dc="http://purl.org/dc/elements/1.1/" xmlns:inkscape="http://www.inkscape.org/namespaces/inkscape" xmlns:rdf="http://www.w3.org/1999/02/22-rdf-syntax-ns#" xmlns:sodipodi="http://sodipodi.sourceforge.net/DTD/sodipodi-0.dtd" xmlns:svg="http://www.w3.org/2000/svg" xmlns:xlink="http://www.w3.org/1999/xlink"><defs id="defs7"><filter color-interpolation-filters="sRGB" id="filter3442"><feGaussianBlur id="feGaussianBlur3444" stdDeviation="2.3432203"/></filter><linearGradient gradientTransform="translate(-322.85714,-811.42857)" gradientUnits="userSpaceOnUse" id="linearGradient3380" x1="447.5928" x2="413.88904" xlink:href="#linearGradient3374" y1="883.36084" y2="910.63495"/><linearGradient id="linearGradient3374"><stop id="stop3376" offset="0" style="stop-color:#ffffff;stop-opacity:0.43727598"/><stop id="stop3378" offset="1" style="stop-color:#ffffff;stop-opacity:0"/></linearGradient><filter color-interpolation-filters="sRGB" id="filter3478"><feGaussianBlur id="feGaussianBlur3480" stdDeviation="3.4723602"/></filter><linearGradient gradientTransform="translate(-322.85714,-811.42857)" gradientUnits="userSpaceOnUse" id="linearGradient3025" x1="447.5928" x2="413.88904" xlink:href="#linearGradient3374" y1="883.36084" y2="910.63495"/></defs><path d="m 1.5e-5,0 0,512 511.999995,0 0,-512 L 1.5e-5,0 z" id="path5060" style="fill:#0044aa;fill-opacity:1;fill-rule:nonzero;stroke:none"/><g id="g3368" transform="matrix(15.99685,0,0,15.99685,-5331.65,-6029.1897)"><path d="m 355.84375,380.40625 c -0.24707,0.22542 -0.35664,0.67014 -0.48139,1.01016 -0.29417,0.99606 -0.36612,2.04009 -0.58111,3.05224 -0.11912,1.45206 -0.63312,2.91637 -0.28125,4.375 0.0184,0.4066 0.60479,0.43401 0.71184,0.0176 0.0816,-0.33362 0.244,-0.61031 0.30829,-0.94766 0.5515,-2.28823 0.91205,-4.64845 0.76092,-7.00733 -0.0393,-0.19379 -0.19455,-0.54211 -0.4373,-0.5 z" id="path3366" style="fill:#ffffff;fill-opacity:1;stroke:none"/><path d="m 361.35268,381.57589 c -1.00468,0.50496 -1.50364,1.57149 -2.11685,2.45373 -0.23255,0.33783 -0.39178,0.72226 -0.62015,1.06767 -0.80498,1.36728 -1.69563,2.78897 -1.79415,4.416 -0.0369,0.57064 0.79304,0.61036 0.9687,0.15635 0.24801,-0.41269 0.5618,-0.80965 0.81355,-1.23065 1.25815,-1.99035 2.23327,-4.14408 3.0927,-6.3318 0.16523,-0.29373 -0.0172,-0.54523 -0.3438,-0.5313 z" id="path3364" style="fill:#ffffff;fill-opacity:1;stroke:none"/></g><path d="m 190.83724,86.758626 c -24.52179,4.588352 -32.84057,31.522504 -28.30886,53.426144 1.79082,19.07832 6.86252,37.75744 11.81211,56.0523 -15.91291,12.44854 -18.39585,-20.15987 -25.61475,-29.48905 -9.41915,-18.73796 -19.25381,-40.64729 -39.87156,-48.9955 -22.609958,-2.30083 -36.589552,23.87456 -34.899489,43.80171 -1.494178,20.88336 10.726377,40.37263 9.403713,60.67772 -18.936008,49.61943 -32.614146,103.81656 -24.078865,157.13154 4.727451,32.35813 27.035386,62.68196 59.514631,71.22262 39.16299,12.28918 80.12009,1.75814 117.97463,-9.99462 56.6613,-17.63782 110.55556,-43.70793 161.23798,-74.42401 21.16936,-14.75049 46.87285,-30.20504 54.09851,-56.67343 2.1563,-31.43446 -24.46322,-55.7223 -50.04138,-69.37219 -41.59664,-21.89345 -88.47426,-30.7437 -134.24183,-39.38568 -9.85803,-3.84294 -28.7923,5.99698 -30.9939,-13.9137 -0.62133,-29.08935 -0.35709,-60.29788 -15.1397,-86.27363 -6.29113,-10.527604 -18.95942,-15.41506 -30.85124,-13.790224 z" id="path3302" style="fill:#ffffff;fill-opacity:1;stroke:none"/></svg>