<?xml version="1.0" ?><svg enable-background="new 0 0 515.91 728.5" height="512" id="Layer_1" version="1.1" viewBox="0 0 512.00003 512" width="512" xml:space="preserve" xmlns="http://www.w3.org/2000/svg" xmlns:cc="http://creativecommons.org/ns#" xmlns:dc="http://purl.org/dc/elements/1.1/" xmlns:inkscape="http://www.inkscape.org/namespaces/inkscape" xmlns:rdf="http://www.w3.org/1999/02/22-rdf-syntax-ns#" xmlns:sodipodi="http://sodipodi.sourceforge.net/DTD/sodipodi-0.dtd" xmlns:svg="http://www.w3.org/2000/svg" xmlns:xlink="http://www.w3.org/1999/xlink"><defs id="defs7"><filter color-interpolation-filters="sRGB" id="filter3442"><feGaussianBlur id="feGaussianBlur3444" stdDeviation="2.3432203"/></filter><linearGradient gradientTransform="translate(-322.85714,-811.42857)" gradientUnits="userSpaceOnUse" id="linearGradient3380" x1="447.5928" x2="413.88904" xlink:href="#linearGradient3374" y1="883.36084" y2="910.63495"/><linearGradient id="linearGradient3374"><stop id="stop3376" offset="0" style="stop-color:#ffffff;stop-opacity:0.43727598"/><stop id="stop3378" offset="1" style="stop-color:#ffffff;stop-opacity:0"/></linearGradient><filter color-interpolation-filters="sRGB" id="filter3478"><feGaussianBlur id="feGaussianBlur3480" stdDeviation="3.4723602"/></filter></defs><g id="g6983" style="fill:#8b8d8a;fill-opacity:1;stroke:none" transform="translate(1.5e-5,0)"><path d="M 0,0 0,512 512,512 512,0 0,0 z" id="path5060" style="fill:#8b8d8a;fill-opacity:1;fill-rule:nonzero;stroke:none"/><g id="g3372" style="fill:#8b8d8a;fill-opacity:1;stroke:none" transform="matrix(15.99685,0,0,15.99685,-5338.7915,-6028.4756)"><g id="g3368" style="fill:#8b8d8a;fill-opacity:1;stroke:none" transform="translate(0.44642857,-0.04464286)"><path d="m 355.84375,380.40625 c -0.0699,0.0404 -0.0811,0.0614 -0.0625,0.0312 -0.67912,1.14393 -0.69662,2.65289 -1,4 a 0.4982215,0.4982215 0 0 1 0,0.0312 c -0.005,0.0197 0.005,0.0429 0,0.0625 -0.14726,1.44619 -0.62399,2.92107 -0.28125,4.3125 a 0.4982215,0.4982215 0 0 1 0.0312,0.0937 c 0.003,0.0101 -0.003,0.0212 0,0.0312 0.005,0.008 -0.005,0.0237 0,0.0312 0.006,0.009 0.0253,-0.008 0.0312,0 0.0731,0.10058 0.16238,0.1759 0.21875,0.1875 0.0403,0.008 0.11021,0.004 0.25,-0.0937 0.15127,-0.1053 0.23683,-0.31627 0.28125,-0.59375 a 0.4982215,0.4982215 0 0 1 0.0625,-0.0937 0.4982215,0.4982215 0 0 1 0,-0.0312 0.4982215,0.4982215 0 0 1 0.0312,-0.0937 0.4982215,0.4982215 0 0 1 0.0312,-0.0312 c 0.59834,-2.38691 1.00327,-4.89182 0.84375,-7.34375 -0.0204,-0.12189 -0.0428,-0.2068 -0.15625,-0.34375 -0.0753,-0.0907 -0.13704,-0.14279 -0.15625,-0.15625 -0.0192,-0.0135 0.007,-0.004 -0.0625,0 a 0.4982215,0.4982215 0 0 1 -0.0312,0 c -0.0257,0.003 -0.0158,-6.1e-4 -0.0312,0 z" id="path3366" style="fill:#8b8d8a;fill-opacity:1;stroke:none"/><path d="m 361.84375,381.84375 c -1.03636,0.50365 -1.56686,1.70537 -2.28125,2.6875 a 0.46681363,0.46681363 0 0 1 -0.0312,0.0937 0.46681363,0.46681363 0 0 1 -0.0312,0.0625 c -0.90569,1.60511 -2.06123,3.20738 -2.1875,5.0625 -7.1e-4,0.0105 6.5e-4,0.0208 0,0.0312 0.0138,0.27995 0.17412,0.43198 0.34375,0.46875 0.16658,0.036 0.47447,-0.0594 0.59375,-0.25 a 0.46681363,0.46681363 0 0 1 0.0312,-0.0312 0.46681363,0.46681363 0 0 1 0,-0.0312 0.46681363,0.46681363 0 0 1 0,-0.0312 c 1.646,-2.26173 2.88416,-4.92489 3.90625,-7.53125 a 0.46681363,0.46681363 0 0 1 0,-0.0312 c 0.0707,-0.17113 0.0941,-0.21493 0.0312,-0.34375 -0.0185,-0.0381 -0.21237,-0.16871 -0.3125,-0.15625 -0.0163,0.007 -0.0465,-0.008 -0.0625,0 z" id="path3364" style="fill:#8b8d8a;fill-opacity:1;stroke:none" transform="translate(-0.49107143,-0.26785714)"/></g><path d="m 345.66985,382.2774 c -0.16726,0.0311 -0.4161,0.1809 -0.59375,0.25 -0.62832,0.23837 -0.975,0.77698 -1.125,1.40625 -0.15274,0.64382 -0.10183,1.36084 0,2.09375 0.10181,0.73145 0.24752,1.48649 0.40625,2.0625 0.13645,0.49836 0.23415,0.7408 0.28125,0.90625 l 0,0.125 c 0,0.0545 -0.0261,0.05 -0.0625,0.0937 -0.02,0.0109 0.02,0.0625 0,0.0625 -0.0453,0.0346 -0.0999,0.0625 -0.15625,0.0625 -0.11101,0.007 -0.19778,-0.0334 -0.3125,-0.0625 -0.0782,-0.0181 -0.17995,-0.0807 -0.15625,-0.0625 -0.0363,-0.0218 -0.1013,-0.0243 -0.125,-0.0625 0,0.0146 0.0219,0.0143 0,-0.0312 -0.0254,-0.0473 -0.0537,-0.1664 -0.0937,-0.25 -0.0891,-0.18946 -0.15908,-0.40895 -0.28125,-0.6875 -0.24381,-0.55472 -0.55754,-1.23609 -0.90625,-1.875 -0.34999,-0.64145 -0.76223,-1.22354 -1.21875,-1.625 -0.22817,-0.20054 -0.50982,-0.40155 -0.78125,-0.46875 -0.26199,-0.0655 -0.57287,-0.01 -0.84375,0.125 -0.69997,0.38836 -1.09619,1.02422 -1.25,1.6875 -0.15456,0.67346 -0.0815,1.44899 0.0312,2.125 0.11454,0.67454 0.29189,1.23077 0.40625,1.6875 0.049,0.19254 0.1087,0.37235 0.125,0.46875 0,0.0955 -0.0389,0.3448 -0.0625,0.4375 -0.11818,0.40928 -0.40559,1.09375 -0.40625,1.09375 0,0 -5.45294,14.48293 6.25,13.46875 0.0964,-0.007 0.31535,-0.0625 0.40625,-0.0625 2.29827,-0.46272 4.47308,-1.15769 6.40625,-1.9375 0.3798,-0.182 0.87805,-0.36282 1.4375,-0.625 1.11885,-0.52418 2.52451,-1.19587 3.875,-1.9375 1.35103,-0.74219 2.60454,-1.533 3.5625,-2.375 0.9596,-0.84327 1.65997,-1.76731 1.53125,-2.6875 -0.20364,-1.48345 -1.18879,-2.58587 -2.5,-3.4375 -1.31613,-0.85473 -2.95728,-1.44464 -4.59375,-1.875 -1.63576,-0.43018 -3.2241,-0.78002 -4.4375,-0.96875 -0.60652,-0.0945 -1.1749,-0.122 -1.53125,-0.1875 -0.10544,-0.0181 -0.16175,-0.0443 -0.21875,-0.0625 -0.0307,-0.004 -0.0334,-0.0131 -0.0625,-0.0312 -0.0363,-0.0218 -0.1031,-0.0243 -0.125,-0.0625 -0.02,-0.0363 0,-0.0832 0,-0.125 0,-0.0163 -1.7e-4,-0.0407 0,-0.0625 l 0,-0.90625 c -0.02,-0.748 -0.064,-1.73553 -0.21875,-2.65625 -0.15637,-0.92455 -0.39754,-1.80879 -0.90625,-2.40625 -0.30235,-0.35545 -0.73038,-0.5887 -1.25,-0.625 -0.15636,-0.0182 -0.3311,-0.0309 -0.5,0 z" id="path3302" style="fill:#8b8d8a;fill-opacity:1;stroke:none"/></g></g><g id="g21948" transform="matrix(0.51850802,0,0,0.51850802,-256.01047,-378.9836)"><path d="m 1131.5938,1471.375 c -4.0512,4.5544 -9.9954,7.7314 -15.1563,10.75 -2.2827,1.772 -6.5429,2.6584 -8.1563,4.25 10.8037,8.441 22.9237,15.4543 34.9376,22.5625 l 19.5624,0 c 13.5761,-8.7845 17.9688,-19.5625 17.9688,-19.5625 l 23.5625,0 c 21.5619,-12.3782 11.5625,-17.1562 11.5625,-17.1562 0,0 -33.9316,7.9791 -76.6562,6.7812 0,0 -4.437,-2.3494 -7.625,-7.625 z" id="path14891" style="fill:#ffffff;fill-opacity:1;fill-rule:evenodd;stroke:none"/><path d="m 1050.1319,1487.7838 c 0,0 9.1838,3.1944 8.7845,8.7846 0,0 -1.1979,11.9789 -17.569,20.7634 0,0 -27.1522,13.1767 -28.3501,17.569 0,0 -3.9929,11.5796 10.781,9.5831 0,0 17.5691,-6.7881 23.5585,-6.7881 0,0 10.3817,7.986 25.1556,7.5867 0,0 13.1768,-9.1838 17.9684,-7.9859 0,0 13.1767,8.3852 20.3641,7.1873 0,0 17.569,-7.9859 19.9647,-7.5866 0,0 13.5761,10.781 24.3571,10.781 l 12.3782,-0.3993 c 11.9789,-1.9965 7.1873,-11.9789 7.1873,-11.9789 l -69.0782,-42.3254 c -5.5901,-4.7916 -2.3958,-11.1803 -2.3958,-11.1803 13.5761,-4.7915 25.9543,-15.9718 25.9543,-15.9718 0.7986,-4.7916 -0.1411,-11.9588 -0.1411,-11.9588" id="path13918" style="fill:#ffffff;fill-opacity:1;fill-rule:evenodd;stroke:none"/><path d="m 762.28125,1472.2188 c 0,0 -9.99949,4.778 11.5625,17.1562 l 23.5625,0 c 0,0 4.39269,10.778 17.96875,19.5625 l 18.34375,0 c 6.88624,-4.0858 13.76179,-8.1812 20.46875,-12.4687 4.24789,-3.8197 10.90504,-4.6931 14.0625,-9.625 -6.18547,-4.5563 -14.67191,-7.8014 -20.71875,-13.375 -0.59652,-0.3288 -1.13148,-0.6759 -1.625,-1.0626 -3.10733,4.5526 -6.96875,6.5938 -6.96875,6.5938 -42.72468,1.1979 -76.65625,-6.7812 -76.65625,-6.7812 z" id="path13920" style="fill:#ffffff;fill-opacity:1;fill-rule:evenodd;stroke:none"/><path d="m 926.77716,1487.7834 c 0,0 -9.1838,3.1944 -8.7845,8.7845 0,0 1.19787,11.9789 17.56901,20.7634 0,0 27.15216,13.1768 28.35004,17.569 0,0 3.99294,11.5796 -10.781,9.5831 0,0 -17.56904,-6.788 -23.55848,-6.788 0,0 -10.3817,7.9859 -25.15564,7.5866 0,0 -13.17678,-9.1838 -17.96834,-7.9859 0,0 -13.17674,8.3852 -20.36408,7.1873 0,0 -17.56901,-7.9859 -19.96479,-7.5866 0,0 -13.57607,10.781 -24.35707,10.781 l -12.37818,-0.3993 c -11.97888,-1.9965 -7.18733,-11.9789 -7.18733,-11.9789 l 69.07822,-42.3254 c 5.59015,-4.7915 2.39578,-11.1802 2.39578,-11.1802 -13.57606,-4.7916 -25.95426,-15.9719 -25.95426,-15.9719 -0.79858,-4.7915 0.19962,-11.3799 0.19962,-11.3799" id="path12947" style="fill:#ffffff;fill-opacity:1;fill-rule:evenodd;stroke:none"/><path d="m 1300.5,1039.7812 c -2.4256,0.023 -5.4128,0.9415 -9.1562,3.1876 0,0 -32.7408,20.7683 -80.6563,63.0937 0,0 -50.4296,48.2753 -86.3125,53.7813 0.7809,0.6964 1.5713,1.3869 2.375,2.0624 9.8246,6.9718 19.5186,16.3187 31.9375,17.6563 5.9944,1.5043 4.8677,-7.1875 9.7813,-8.4375 28.149,-1.3531 56.5622,-0.687 84.8124,-0.8438 0.5622,0.01 1.1254,-0.01 1.6876,0 l 52.3437,-96.9687 3.1875,-16.7813 c 0,0 0.511,-16.8488 -10,-16.75 z" id="path2172" style="fill:#ffffff;fill-opacity:1;fill-rule:evenodd;stroke:none"/><path d="m 676.40625,1039.7812 c -10.51096,-0.099 -9.96875,16.75 -9.96875,16.75 l 3.1875,16.7813 52.34375,97 66.09375,0 c 7.8494,0.1344 18.9785,-2.5476 23.375,6.0313 0.12605,4.8815 5.88272,2.5776 8.96875,2.75 11.21656,-4.5594 21.45424,-11.3702 30.40625,-19.5626 -35.74906,-6.7506 -84.5625,-53.4687 -84.5625,-53.4687 -47.91552,-42.3254 -80.65625,-63.0937 -80.65625,-63.0937 -3.7434,-2.2461 -6.76189,-3.1647 -9.1875,-3.1876 z" id="path2170" style="fill:#ffffff;fill-opacity:1;fill-rule:evenodd;stroke:none"/><path d="m 987.46875,901.59375 c 0,0 -79.82313,0.0367 -89.40625,84.6875 l 0,68.31255 c 0.0607,56.6646 -22.51243,105.8729 -75.75,130.6562 l -11.34375,-0.094 c -4.79155,-0.7983 -3.95845,-8.8437 -8.75,-8.8437 l -182.09375,0 c 0.39929,1.9965 -16.78125,1.625 -16.78125,1.625 0,0 -3.59366,5.1773 0,13.5625 0,0 20.80408,31.935 104.65625,62.2812 0,0 77.37895,31.5879 97.34375,88.6876 14.74267,34.2663 19.84122,85.8989 34.34375,103.875 0.0257,0.016 0.0954,0.1674 0.125,0.1874 23.58866,23.6685 55.96542,34.5276 88.09375,40.4688 0,0 33.3749,-0.06 59.5625,-7.3125 26.18755,7.2525 59.56245,7.3125 59.56245,7.3125 32.1287,-5.9412 64.5052,-16.8003 88.0938,-40.4688 0.029,-0.019 0.068,-0.1724 0.094,-0.1874 14.5022,-17.9761 19.601,-69.6087 34.3437,-103.875 19.9651,-57.0999 97.3437,-88.6876 97.3437,-88.6876 83.8524,-30.3462 104.6876,-62.2812 104.6876,-62.2812 3.5933,-8.3853 0,-13.5625 0,-13.5625 0,0 -17.1805,0.3715 -16.7813,-1.625 l -182.125,0 c -4.7915,0 -3.9584,8.0455 -8.75,8.8437 l -11.3437,0.094 c -53.2379,-24.7831 -75.7795,-73.9916 -75.7188,-130.6562 l 0,-68.31255 c -9.5831,-84.65077 -89.40625,-84.6875 -89.40625,-84.6875 z m -28.53125,60.1875 c 0,0 23.16342,1.68709 29.375,25.96875 l 0,20.5625 c 0.0936,0 0.18783,0 0.28125,0 l 0,-20.5625 c 6.21158,-24.28167 29.34375,-25.96875 29.34375,-25.96875 0,0 24.8509,-0.0223 31.0625,29.90625 l 0,26 c 0,0 -1.4167,5.66 -4.25,9.9687 2.9129,0.092 5.7962,0.3638 8.5,1.4063 8.156,1.1221 12.7863,10.6968 8.9688,17.875 -3.7985,5.2459 -8.2735,9.8085 -13.1876,13.9063 l 0,21.8124 c 0,0 25.9197,71.174 30.4376,98.8438 l 0,16.875 c 0,0 32.2528,45.7567 39.5937,100.5312 l 0,72.8438 c -6.1117,55.1335 -53.1516,73.7137 -102.2813,85.2812 l -27.68745,0 -29.5625,0 c -49.12946,-11.5675 -96.13826,-30.1477 -102.25,-85.2812 l 0,-72.8438 c 7.34096,-54.7745 39.5625,-100.5312 39.5625,-100.5312 l 0,-16.875 c 4.51753,-27.6698 30.4375,-98.8438 30.4375,-98.8438 l 0,-21.375 c -7.28197,-5.7884 -17.08315,-13.0665 -14.78125,-23.5312 2.9212,-7.7133 11.66116,-9.9271 19.46875,-10.3125 -2.73385,-4.2777 -4.09375,-9.75 -4.09375,-9.75 l 0,-26 c 6.21158,-29.92856 31.0625,-29.90625 31.0625,-29.90625 z" id="path2161" style="fill:#ffffff;fill-opacity:1;fill-rule:evenodd;stroke:none"/><path d="m 856.16389,1197.2474 c 0,0 -33.31671,55.3396 -37.26954,107.291 l 0,56.469 c 0,0 3.95283,40.6577 11.29381,66.0687" id="path2197" style="fill:#ffffff;fill-opacity:1;stroke:none"/><path d="m 1120.4387,1197.2466 c 0,0 33.3168,55.3397 37.2696,107.2911 l 0,56.469 c 0.847,3.6705 -5.6469,40.6577 -12.9879,66.0687" id="path2199" style="fill:#ffffff;fill-opacity:1;stroke:none"/><path d="m 958.375,980.96875 c 0,0 -19.75658,2.83403 -18.0625,21.46875 0.39419,0.1295 -2.72872,12.9845 2.65625,24.4375 3.10053,-1.3432 5.80143,-3.9437 8.625,-5.9375 8.63226,-4.6298 17.20283,-10.6978 27,-12.25 0.0838,-4.4122 -0.84982,-9.55301 -1.03125,-12.46875 -3.74071,-14.96287 -19.1875,-15.25 -19.1875,-15.25 z" id="path3186" style="fill:#ffffff;fill-opacity:1;fill-rule:evenodd;stroke:none"/><path d="m 978.71875,1014.3125 c 0,0 -22.04997,7.8937 -33.34375,19.1875 -71.08952,-3.3696 16.18404,44.3017 35.5625,51.9062 l 13.65625,0 c 19.37845,-7.6045 106.74565,-55.2757 35.65625,-51.9062 -11.2938,-11.2938 -33.34375,-19.1875 -33.34375,-19.1875 l -18.1875,0 z m -2.6875,3.4375 c 0.93779,-0.056 1.92899,0.2459 2.78125,0.9062 1.70456,1.3207 2.15548,3.6023 1,5.0938 -1.15547,1.4915 -3.48298,1.633 -5.1875,0.3125 -1.70456,-1.3206 -2.15547,-3.6024 -1,-5.0937 0.57774,-0.7459 1.46846,-1.1628 2.40625,-1.2188 z m 23.99995,0 c 0.938,0.056 1.7973,0.4729 2.375,1.2188 1.1556,1.4913 0.7048,3.7732 -1,5.0937 -1.70445,1.3206 -4.03194,1.179 -5.18745,-0.3125 -1.15548,-1.4914 -0.70456,-3.7731 1,-5.0938 0.85228,-0.6602 1.87475,-0.9623 2.81245,-0.9062 z" id="path2205" style="fill:#ffffff;fill-opacity:1;fill-rule:evenodd;stroke:none"/><path d="m 927.29037,1044.2327 c 0,0 24.35253,22.354 59.76754,23.4048 28.94339,-1.9554 42.56349,-11.3679 60.77199,-23.4048" id="path4159" style="fill:#ffffff;fill-opacity:1;stroke:none"/><path d="m 1020.0312,980.96875 c 0,0 -15.4468,0.28714 -19.1874,15.25 -0.1927,3.09639 -1.23004,8.70385 -1.00005,13.28125 11.37085,3.1273 21.80185,9.4329 31.12505,16.625 1.4408,0.5852 2.9466,0.9166 4.5,1.125 5.1427,-11.5186 2.2356,-24.6846 2.625,-24.8125 1.694,-18.63472 -18.0626,-21.46875 -18.0626,-21.46875 z" id="path26553" style="fill:#ffffff;fill-opacity:1;fill-rule:evenodd;stroke:none"/><path d="m 849.26533,1452.2259 c 36.79887,27.5681 82.70272,32.3631 82.70272,32.3631 l -20.76341,8.7845 -21.56199,-12.3782 -41.12749,-21.7616 c -0.79858,-5.9894 0.75017,-7.0078 0.75017,-7.0078 z" id="path2200" style="fill:#ffffff;fill-opacity:1;fill-rule:evenodd;stroke:none"/><path d="m 1127.4281,1451.4503 c -36.7989,27.5681 -82.7733,33.1395 -82.7733,33.1395 l 20.7634,8.7846 21.562,-12.3782 41.1275,-21.7617 c 0.7985,-5.9894 -0.6796,-7.7842 -0.6796,-7.7842 z" id="path3173" style="fill:#ffffff;fill-opacity:1;fill-rule:evenodd;stroke:none"/></g></svg>