<?xml version="1.0" ?><svg enable-background="new 0 0 515.91 728.5" height="512" id="Layer_1" version="1.1" viewBox="0 0 512.00003 512" width="512" xml:space="preserve" xmlns="http://www.w3.org/2000/svg" xmlns:cc="http://creativecommons.org/ns#" xmlns:dc="http://purl.org/dc/elements/1.1/" xmlns:inkscape="http://www.inkscape.org/namespaces/inkscape" xmlns:rdf="http://www.w3.org/1999/02/22-rdf-syntax-ns#" xmlns:sodipodi="http://sodipodi.sourceforge.net/DTD/sodipodi-0.dtd" xmlns:svg="http://www.w3.org/2000/svg" xmlns:xlink="http://www.w3.org/1999/xlink"><defs id="defs7"><filter color-interpolation-filters="sRGB" id="filter3442"><feGaussianBlur id="feGaussianBlur3444" stdDeviation="2.3432203"/></filter><linearGradient gradientTransform="translate(-322.85714,-811.42857)" gradientUnits="userSpaceOnUse" id="linearGradient3380" x1="447.5928" x2="413.88904" xlink:href="#linearGradient3374" y1="883.36084" y2="910.63495"/><linearGradient id="linearGradient3374"><stop id="stop3376" offset="0" style="stop-color:#ffffff;stop-opacity:0.43727598"/><stop id="stop3378" offset="1" style="stop-color:#ffffff;stop-opacity:0"/></linearGradient><filter color-interpolation-filters="sRGB" id="filter3478"><feGaussianBlur id="feGaussianBlur3480" stdDeviation="3.4723602"/></filter></defs><g id="g6983" style="fill:#a00002;fill-opacity:1;stroke:none" transform="translate(1.5e-5,0)"><path d="M 0,0 0,512 512,512 512,0 0,0 z" id="path5060" style="fill:#a00002;fill-opacity:1;fill-rule:nonzero;stroke:none"/><g id="g3372" style="fill:#a00002;fill-opacity:1;stroke:none" transform="matrix(15.99685,0,0,15.99685,-5338.7915,-6028.4756)"><g id="g3368" style="fill:#a00002;fill-opacity:1;stroke:none" transform="translate(0.44642857,-0.04464286)"><path d="m 355.84375,380.40625 c -0.0699,0.0404 -0.0811,0.0614 -0.0625,0.0312 -0.67912,1.14393 -0.69662,2.65289 -1,4 a 0.4982215,0.4982215 0 0 1 0,0.0312 c -0.005,0.0197 0.005,0.0429 0,0.0625 -0.14726,1.44619 -0.62399,2.92107 -0.28125,4.3125 a 0.4982215,0.4982215 0 0 1 0.0312,0.0937 c 0.003,0.0101 -0.003,0.0212 0,0.0312 0.005,0.008 -0.005,0.0237 0,0.0312 0.006,0.009 0.0253,-0.008 0.0312,0 0.0731,0.10058 0.16238,0.1759 0.21875,0.1875 0.0403,0.008 0.11021,0.004 0.25,-0.0937 0.15127,-0.1053 0.23683,-0.31627 0.28125,-0.59375 a 0.4982215,0.4982215 0 0 1 0.0625,-0.0937 0.4982215,0.4982215 0 0 1 0,-0.0312 0.4982215,0.4982215 0 0 1 0.0312,-0.0937 0.4982215,0.4982215 0 0 1 0.0312,-0.0312 c 0.59834,-2.38691 1.00327,-4.89182 0.84375,-7.34375 -0.0204,-0.12189 -0.0428,-0.2068 -0.15625,-0.34375 -0.0753,-0.0907 -0.13704,-0.14279 -0.15625,-0.15625 -0.0192,-0.0135 0.007,-0.004 -0.0625,0 a 0.4982215,0.4982215 0 0 1 -0.0312,0 c -0.0257,0.003 -0.0158,-6.1e-4 -0.0312,0 z" id="path3366" style="fill:#a00002;fill-opacity:1;stroke:none"/><path d="m 361.84375,381.84375 c -1.03636,0.50365 -1.56686,1.70537 -2.28125,2.6875 a 0.46681363,0.46681363 0 0 1 -0.0312,0.0937 0.46681363,0.46681363 0 0 1 -0.0312,0.0625 c -0.90569,1.60511 -2.06123,3.20738 -2.1875,5.0625 -7.1e-4,0.0105 6.5e-4,0.0208 0,0.0312 0.0138,0.27995 0.17412,0.43198 0.34375,0.46875 0.16658,0.036 0.47447,-0.0594 0.59375,-0.25 a 0.46681363,0.46681363 0 0 1 0.0312,-0.0312 0.46681363,0.46681363 0 0 1 0,-0.0312 0.46681363,0.46681363 0 0 1 0,-0.0312 c 1.646,-2.26173 2.88416,-4.92489 3.90625,-7.53125 a 0.46681363,0.46681363 0 0 1 0,-0.0312 c 0.0707,-0.17113 0.0941,-0.21493 0.0312,-0.34375 -0.0185,-0.0381 -0.21237,-0.16871 -0.3125,-0.15625 -0.0163,0.007 -0.0465,-0.008 -0.0625,0 z" id="path3364" style="fill:#a00002;fill-opacity:1;stroke:none" transform="translate(-0.49107143,-0.26785714)"/></g><path d="m 345.66985,382.2774 c -0.16726,0.0311 -0.4161,0.1809 -0.59375,0.25 -0.62832,0.23837 -0.975,0.77698 -1.125,1.40625 -0.15274,0.64382 -0.10183,1.36084 0,2.09375 0.10181,0.73145 0.24752,1.48649 0.40625,2.0625 0.13645,0.49836 0.23415,0.7408 0.28125,0.90625 l 0,0.125 c 0,0.0545 -0.0261,0.05 -0.0625,0.0937 -0.02,0.0109 0.02,0.0625 0,0.0625 -0.0453,0.0346 -0.0999,0.0625 -0.15625,0.0625 -0.11101,0.007 -0.19778,-0.0334 -0.3125,-0.0625 -0.0782,-0.0181 -0.17995,-0.0807 -0.15625,-0.0625 -0.0363,-0.0218 -0.1013,-0.0243 -0.125,-0.0625 0,0.0146 0.0219,0.0143 0,-0.0312 -0.0254,-0.0473 -0.0537,-0.1664 -0.0937,-0.25 -0.0891,-0.18946 -0.15908,-0.40895 -0.28125,-0.6875 -0.24381,-0.55472 -0.55754,-1.23609 -0.90625,-1.875 -0.34999,-0.64145 -0.76223,-1.22354 -1.21875,-1.625 -0.22817,-0.20054 -0.50982,-0.40155 -0.78125,-0.46875 -0.26199,-0.0655 -0.57287,-0.01 -0.84375,0.125 -0.69997,0.38836 -1.09619,1.02422 -1.25,1.6875 -0.15456,0.67346 -0.0815,1.44899 0.0312,2.125 0.11454,0.67454 0.29189,1.23077 0.40625,1.6875 0.049,0.19254 0.1087,0.37235 0.125,0.46875 0,0.0955 -0.0389,0.3448 -0.0625,0.4375 -0.11818,0.40928 -0.40559,1.09375 -0.40625,1.09375 0,0 -5.45294,14.48293 6.25,13.46875 0.0964,-0.007 0.31535,-0.0625 0.40625,-0.0625 2.29827,-0.46272 4.47308,-1.15769 6.40625,-1.9375 0.3798,-0.182 0.87805,-0.36282 1.4375,-0.625 1.11885,-0.52418 2.52451,-1.19587 3.875,-1.9375 1.35103,-0.74219 2.60454,-1.533 3.5625,-2.375 0.9596,-0.84327 1.65997,-1.76731 1.53125,-2.6875 -0.20364,-1.48345 -1.18879,-2.58587 -2.5,-3.4375 -1.31613,-0.85473 -2.95728,-1.44464 -4.59375,-1.875 -1.63576,-0.43018 -3.2241,-0.78002 -4.4375,-0.96875 -0.60652,-0.0945 -1.1749,-0.122 -1.53125,-0.1875 -0.10544,-0.0181 -0.16175,-0.0443 -0.21875,-0.0625 -0.0307,-0.004 -0.0334,-0.0131 -0.0625,-0.0312 -0.0363,-0.0218 -0.1031,-0.0243 -0.125,-0.0625 -0.02,-0.0363 0,-0.0832 0,-0.125 0,-0.0163 -1.7e-4,-0.0407 0,-0.0625 l 0,-0.90625 c -0.02,-0.748 -0.064,-1.73553 -0.21875,-2.65625 -0.15637,-0.92455 -0.39754,-1.80879 -0.90625,-2.40625 -0.30235,-0.35545 -0.73038,-0.5887 -1.25,-0.625 -0.15636,-0.0182 -0.3311,-0.0309 -0.5,0 z" id="path3302" style="fill:#a00002;fill-opacity:1;stroke:none"/></g></g><path d="m 236.68517,56.004711 c -23.28819,0.41617 -44.81751,28.234972 -44.81751,28.234972 -35.49379,-29.292642 -35.27126,39.304777 -35.27126,39.304777 -33.01925,15.239 -24.47038,69.28781 -24.47038,69.28781 l 10.30806,2.2857 c -8.27585,16.2113 -12.95222,34.5108 -12.95222,53.8706 0,5.7155 0.4241,11.3022 1.21001,16.8065 -17.4644,2.9585 -51.073846,10.7126 -45.265486,25.8148 l -3.09245,6.2296 c 0,0 -15.576221,6.2314 -12.459181,16.3583 1.86924,6.0729 16.857691,18.2481 28.593442,27.0698 -4.27978,1.68961 -17.82067,7.80591 -14.476061,16.98571 3.95596,10.8513 54.363636,40.0669 54.363636,40.0669 l -24.69443,-37.5571 c 0,0 44.28738,-5.2176 59.87609,-19.4059 1.97294,1.6213 3.97541,3.2074 6.05034,4.7058 -8.58022,4.08 -14.23054,9.4673 -11.563,16.4032 l -3.13709,6.2296 c 0,0 -15.57622,6.2315 -12.45939,16.3584 3.11714,10.1269 42.84576,37.3778 42.84546,37.3778 l -19.4955,-35.0474 c 0,0 22.02456,-3.0486 37.24321,-10.9354 -1.59844,21.7865 16.03146,48.4722 45.2658,65.2991 28.32213,16.3018 59.11416,18.4308 77.3995,7.35 -9.0894,-1.3729 -19.05865,-4.8131 -28.68299,-10.3529 -25.66577,-14.7727 -39.55215,-38.8121 -31.01376,-53.6464 8.50987,-14.7848 36.11966,-14.849 61.71365,-0.2241 -7.7249,-9.9978 -18.36971,-19.3234 -31.28262,-26.756 -0.50865,-0.2928 -1.01348,-0.5677 -1.52365,-0.8516 7.29463,-3.4952 14.17079,-7.7068 20.57107,-12.504 1.5477,7.1083 4.249,14.4772 8.2016,21.6468 5.2204,9.4695 11.8514,17.2971 19.0025,23.0363 -10.2696,-18.7672 -9.9008,-38.7956 0.9411,-44.7727 10.8784,-5.99711 28.1674,4.4391 38.543,23.2602 3.8911,7.0579 6.2517,14.3159 7.1261,20.9298 5.7086,-9.0399 6.8974,-22.4791 3.3613,-36.7503 5.991,-3.7902 36.32891,-23.32831 39.43931,-32.49271 3.4373,-10.1268 -13.759,-16.3583 -13.759,-16.3583 l -3.40621,-6.2296 c 3.24321,-7.6452 -4.6838,-13.4069 -15.7757,-17.6133 5.9919,-4.5787 11.1159,-9.151 12.0561,-11.9214 2.5,-7.372 -10.0392,-11.8765 -10.0392,-11.8765 l -2.465,-4.5266 c 4.6357,-10.9268 -21.9979,-16.5544 -36.078,-18.7337 -8.2469,-58.5584 -59.39514,-103.70751 -120.96209,-103.70751 -29.56026,0 -56.72228,10.3916 -77.8929,27.6971 3.95435,-11.2387 6.72277,-20.3919 6.72277,-20.3919 14.63652,3.2216 29.26567,-35.49536 29.26567,-35.49536 12.68555,2.79214 61.98269,-12.952247 61.98269,-12.952247 0,0 16.27314,16.844297 24.15644,4.25767 7.88492,-12.58377 24.15654,0.22408 24.15654,0.22408 -37.59856,-52.262673 -47.90974,-14.6553 -47.90974,-14.6553 l -10.4423,-8.425661 C 253.75813,59.285161 245.10837,55.854191 236.68517,56.004711 z m 0.35839,5.557361 c 16.179,-0.50694 22.09512,14.83492 22.09512,14.83458 -7.42334,4.746981 -56.60427,3.495751 -56.60427,3.495751 14.75454,-13.475041 26.03475,-18.064771 34.50915,-18.330331 z m -55.34941,22.677611 c 3.54053,-0.11028 6.05025,1.21007 6.05025,1.21007 l -17.92699,27.159307 c -4.32785,4.6961 -1.85563,10.021 0.89646,13.6245 2.15072,1.715 3.85326,3.3114 3.94387,4.1681 0,0 -2.03301,-1.6665 -3.94387,-4.1681 -3.99929,-3.1892 -9.59077,-6.7674 -9.59077,-6.7674 3.37716,-29.611487 13.81189,-35.015897 20.57105,-35.226477 z m -24.42552,45.534477 c -7.92774,7.0285 -2.42012,47.28181 -2.42012,47.28231 l -17.7476,8.0672 c -2.52171,-35.64411 20.16772,-55.34951 20.16772,-55.34951 z m 94.38564,15.238 c 58.57085,0 105.76889,46.56271 105.76919,103.97641 0,0.829 -0.026,1.6404 -0.044,2.4648 -28.7471,42.5014 -105.25454,15.9007 -149.69027,-15.3274 -42.16749,-29.6344 -57.95616,2.4389 -61.84802,13.0866 -1e-4,-0.076 0,-0.1487 0,-0.224 0,-57.4137 47.24295,-103.97641 105.8141,-103.97641 z m -12.81797,67.13641 57.32153,43.7418 c 12.77676,-21.6814 -57.32153,-43.7418 -57.32153,-43.7418 z m 96.22316,3.5405 c -9.9363,-0.3179 -13.75912,41.0529 -13.75912,41.0529 l 17.03072,-39.4843 c -1.1613,-1.0162 -2.2437,-1.5356 -3.2716,-1.5686 z m 37.5569,19.5853 c 20.0863,-0.081 32.9408,14.1175 32.9408,14.1175 l -0.3137,7.0812 c -6.5635,0 -38.1396,-13.0419 -38.1396,-13.0419 l -0.9412,-7.6638 c 2.2269,-0.3455 4.3757,-0.4847 6.4537,-0.493 z m -180.70385,22.4087 c 7.55616,-0.1877 18.24074,7.1707 18.24074,7.1707 93.88516,37.442 143.59491,1.2998 143.59491,1.2998 -13.8069,34.8576 -149.11302,28.4066 -157.39885,27.1145 -8.28563,-1.2922 -15.16553,-19.3936 -11.02483,-31.0137 1.16506,-3.2681 3.63134,-4.4978 6.58803,-4.5713 z m 218.30565,1.3445 c 0,0 14.4013,3.6805 6.2744,6.2297 l -6.2744,-6.2297 z m -37.1089,2.5098 c 12.1861,5.5386 29.3108,7.6638 29.3108,7.6638 l -4.1682,6.8122 c -9.8405,-2.6274 -19.7143,-4.2543 -26.4422,-5.1988 0.5696,-3.0491 0.9693,-6.1527 1.2996,-9.2772 z m -242.73103,8.3361 c 2.58914,0.012 5.24751,0.2424 8.02239,0.7171 l -1.16537,10.4872 c 0,0 -39.328315,17.927 -47.506406,17.927 l -0.40354,-9.7254 c 0,0 16.025216,-19.5164 41.052926,-19.4059 z m 244.97213,5.4228 c 27.6047,-0.1104 45.2654,19.4059 45.2654,19.4059 l -0.448,9.7255 c -9.0218,0 -52.3917,-17.8822 -52.3917,-17.8822 l -1.2997,-10.5321 c 3.0605,-0.4747 6.0182,-0.7057 8.874,-0.7171 z m -26.3528,11.0699 c -15.438,19.8613 -112.80442,50.2374 -115.1808,51.4057 -2.37637,1.1682 -17.79245,-5.8497 -17.79245,-14.0279 0,-8.1782 8.29117,-14.0279 8.29117,-14.0279 20.18617,10.5148 124.68208,-23.3499 124.68208,-23.3499 z m -208.66986,12.1904 c 1.65346,3.586 3.52249,7.0541 5.51257,10.4424 -22.0035,4.2711 -47.967704,12.1415 -42.08354,25.053 l -0.40344,0.6723 -10.128665,-18.1959 c 0,0 34.735005,-4.8103 47.103075,-17.9718 z m 221.48756,2.3753 c 0.099,0.1464 0.165,0.3034 0.2691,0.4482 -0.1377,-0.053 -0.2658,-0.1273 -0.4034,-0.1793 0.044,-0.09 0.09,-0.1788 0.1348,-0.2689 z m -278.315956,1.5686 -7.798341,8.5601 c -10.12695,-3.5049 7.798341,-8.5601 7.798341,-8.5601 z m 343.570166,5.4677 c 0,0 19.7292,5.0552 8.5603,8.5602 l -8.5603,-8.5602 z m -266.30485,2.7787 c 3.28615,0.013 6.69606,0.2533 10.21824,0.7619 l -1.47899,11.294 c 0,0 -49.8976,19.18181 -60.27963,19.18181 l -0.49283,-10.44241 c 0,0 20.26508,-20.914 52.03321,-20.7953 z m 173.75704,0.044 c -6.8086,17.9112 10.1286,65.97111 10.1286,65.97111 0,0 -8.8038,-12.5214 -15.3274,-34.33 -6.5238,-21.80871 5.1988,-31.64111 5.1988,-31.64111 z m 45.4448,2.2856 c 16.2647,6.3875 36.3468,8.8739 36.3468,8.8739 l -14.207,28.14541 c -1.611,-5.802 -3.9343,-11.68981 -7.1261,-17.47881 -4.2251,-7.6646 -9.406,-14.2573 -15.0137,-19.5405 z m -167.03449,27.6523 c 2.58903,0.012 5.2475,0.2425 8.02228,0.71711 l -1.16537,10.5321 c 0,0 -39.32822,17.8823 -47.50631,17.8823 l -0.35869,-9.7255 c 0,0 15.98006,-19.51631 41.00809,-19.40601 z m 174.16039,1.38951 c 0.3716,-0.019 0.7337,-0.01 1.1204,0 1.4282,0.026 2.9388,0.2548 4.5267,0.7619 6.4001,14.4177 4.2576,28.0108 4.2576,28.0108 0,0 -2.828,-12.0495 -8.2016,-18.1511 -5.3738,-6.1012 -10.3975,-7.7533 -10.3975,-7.7533 -0.6706,0.5098 3.1209,-2.5756 8.6944,-2.8683 z m -285.8006,3.6302 -9.859776,9.1427 c -12.85385,-3.7572 9.859776,-9.1427 9.859776,-9.1427 z m 183.75135,17.0306 c 0.53002,-0.014 1.07717,-0.021 1.65819,0 18.60457,0.689 23.43957,9.6806 23.43957,9.6806 0,0 -15.17057,-3.4733 -23.43957,-0.7172 -8.26849,2.7563 -11.02483,7.5742 -11.02483,7.5742 0.66729,1.3351 -7.06302,-16.0742 9.36664,-16.5376 z m -66.55373,3.4509 c 9.79406,38.496 90.93441,86.8561 90.93441,86.8561 0,0 -27.94419,-5.737 -62.9236,-29.4898 -34.97931,-23.7528 -28.01081,-57.3663 -28.01081,-57.3663 z m -52.43654,7.1708 -7.79814,8.5602 c -10.12705,-3.505 7.79814,-8.5602 7.79814,-8.5602 z" id="outline" style="color:#000000;fill:#ffffff;fill-opacity:1;stroke:none;stroke-width:7;marker:none;visibility:visible;display:inline;overflow:visible;enable-background:accumulate"/></svg>