<?xml version="1.0" ?><!DOCTYPE svg  PUBLIC '-//W3C//DTD SVG 1.1//EN'  'http://www.w3.org/Graphics/SVG/1.1/DTD/svg11.dtd'><svg enable-background="new 0 0 1000 1000" height="1000px" id="Layer_1" version="1.1" viewBox="0 0 1000 1000" width="1000px" xml:space="preserve" xmlns="http://www.w3.org/2000/svg" xmlns:xlink="http://www.w3.org/1999/xlink"><g><g><g><path d="M290.892,560.693c-5.564,0-10.823-3.109-13.415-8.294c-0.13-0.26-0.259-0.512-0.393-0.766     c-0.916-1.739-1.481-3.643-1.664-5.601c-0.738-7.932-1.112-16.071-1.112-24.193c0-32.477,5.919-64.001,17.594-93.696     c11.308-28.745,27.502-54.571,48.133-76.762c20.711-22.275,44.849-39.772,71.742-52.005     c27.94-12.712,57.623-19.158,88.224-19.158c8.284,0,15,6.716,15,15v0.456c0,8.284-6.716,15-15,15     c-107.673,0-195.271,94.728-195.271,211.165c0,7.202,0.342,14.467,1.017,21.608c0.109,0.731,0.166,1.48,0.166,2.243     c0,7.98-6.232,14.506-14.096,14.974C291.508,560.684,291.199,560.693,290.892,560.693z"/></g><g><g><path d="M293.729,725.972h-8.842c-22.454,0-40.723-18.269-40.723-40.723V572.776c0-22.454,18.269-40.723,40.723-40.723h8.842      c22.454,0,40.723,18.269,40.723,40.723v112.473C334.451,707.703,316.183,725.972,293.729,725.972z M284.887,562.054      c-5.912,0-10.723,4.811-10.723,10.723v112.473c0,5.912,4.811,10.723,10.723,10.723h8.842c5.912,0,10.723-4.811,10.723-10.723      V572.776c0-5.912-4.811-10.723-10.723-10.723H284.887z"/></g><g><g><path d="M219.01,672.626c-8.284,0-15-6.716-15-15v-57.227c0-8.284,6.716-15,15-15s15,6.716,15,15v57.227       C234.01,665.91,227.294,672.626,219.01,672.626z"/></g></g></g></g><g><path d="M709.108,560.693c-1.379,0-2.775-0.191-4.156-0.589c-6.948-2.003-11.479-8.679-10.773-15.876    c0.725-7.392,1.092-14.924,1.092-22.389c0-116.437-87.598-211.165-195.271-211.165c-8.284,0-15-6.716-15-15v-0.456    c0-8.284,6.716-15,15-15c30.602,0,60.284,6.446,88.225,19.158c26.895,12.234,51.032,29.73,71.742,52.003    c20.633,22.195,36.826,48.021,48.131,76.761c11.676,29.697,17.595,61.221,17.595,93.698c0,8.122-0.374,16.262-1.112,24.193    c-0.183,1.958-0.748,3.861-1.664,5.601c-0.134,0.254-0.263,0.506-0.393,0.766C719.932,557.583,714.672,560.693,709.108,560.693z"/></g><g><g><path d="M715.113,725.972h-8.842c-22.454,0-40.723-18.269-40.723-40.723V572.776c0-22.454,18.269-40.723,40.723-40.723h8.842     c22.454,0,40.723,18.269,40.723,40.723v112.473C755.836,707.703,737.567,725.972,715.113,725.972z M706.271,562.054     c-5.912,0-10.723,4.811-10.723,10.723v112.473c0,5.912,4.811,10.723,10.723,10.723h8.842c5.912,0,10.723-4.811,10.723-10.723     V572.776c0-5.912-4.811-10.723-10.723-10.723H706.271z"/></g><g><g><path d="M780.99,672.626c-8.284,0-15-6.716-15-15v-57.227c0-8.284,6.716-15,15-15s15,6.716,15,15v57.227      C795.99,665.91,789.274,672.626,780.99,672.626z"/></g></g></g></g><g><g><path d="M502.064,892.094c-52.506,0-103.45-10.287-151.419-30.575c-46.324-19.595-87.923-47.642-123.643-83.361    c-35.72-35.718-63.766-77.316-83.359-123.643c-20.288-47.969-30.575-98.913-30.575-151.419    c0-52.507,10.287-103.453,30.575-151.422c19.592-46.322,47.638-87.921,83.359-123.642c35.721-35.722,77.32-63.768,123.643-83.359    c47.969-20.289,98.913-30.576,151.419-30.576c52.508,0,103.452,10.287,151.42,30.576c0.579,0.245,1.146,0.493,1.711,0.74    l0.903,0.394c3.85,1.665,6.827,4.865,8.21,8.825c1.382,3.96,1.043,8.318-0.935,12.017l-0.525,0.982    c-3.679,6.882-12.022,9.792-19.183,6.694c-44.835-19.395-92.477-29.228-141.602-29.228    c-197.399,0-357.996,160.598-357.996,357.999c0,197.4,160.597,357.998,357.996,357.998c154.191,0,290.68-98.346,339.633-244.721    c2.046-6.117,7.774-10.242,14.226-10.242h1.139c4.82,0,9.348,2.317,12.167,6.228s3.588,8.938,2.064,13.511    c-3.217,9.665-6.853,19.302-10.804,28.646c-19.595,46.326-47.641,87.926-83.36,123.643c-35.72,35.72-77.319,63.767-123.644,83.361    C605.517,881.807,554.572,892.094,502.064,892.094z"/></g><g><path d="M743.569,234.082c-3.457,0-6.918-1.19-9.726-3.581c-15.768-13.43-32.811-25.571-50.655-36.086    c-6.93-4.083-9.405-12.906-5.611-19.998l0.554-1.035c1.926-3.6,5.235-6.26,9.165-7.365c3.932-1.104,8.142-0.561,11.661,1.508    c19.447,11.428,38.031,24.664,55.233,39.341c3.277,2.796,5.194,6.866,5.263,11.173c0.068,4.308-1.719,8.436-4.905,11.335    l-0.885,0.805C750.807,232.776,747.189,234.082,743.569,234.082z"/></g><g><path d="M871.932,462.164h-1.055c-7.419,0-13.724-5.424-14.832-12.76c-9.162-60.667-34.154-118.401-72.275-166.96    c-4.859-6.19-4.108-15.083,1.72-20.371l0.896-0.813c3.083-2.797,7.199-4.187,11.337-3.838c4.147,0.349,7.964,2.406,10.536,5.679    c21.22,27.002,38.793,56.802,52.231,88.574c12.65,29.91,21.491,61.29,26.277,93.27c0.646,4.317-0.621,8.703-3.471,12.01    S876.298,462.164,871.932,462.164z"/></g></g></svg>