<?xml version="1.0" ?><!DOCTYPE svg  PUBLIC '-//W3C//DTD SVG 1.1//EN'  'http://www.w3.org/Graphics/SVG/1.1/DTD/svg11.dtd'><svg enable-background="new 0 0 1000 1000" height="1000px" id="Layer_1" version="1.1" viewBox="0 0 1000 1000" width="1000px" xml:space="preserve" xmlns="http://www.w3.org/2000/svg" xmlns:xlink="http://www.w3.org/1999/xlink"><g><path d="M498.794,693.941c2.32,1.34,4.91,2.01,7.5,2.01s5.18-0.67,7.5-2.01l313.41-180.949c4.641-2.68,7.5-7.631,7.5-12.99   s-2.859-10.311-7.5-12.99l-313.41-180.95c-4.641-2.68-10.359-2.68-15,0s-7.5,7.631-7.5,12.99v68.129l-140.5-81.119   c-4.641-2.68-10.359-2.68-15,0s-7.5,7.631-7.5,12.99v361.899c0,5.359,2.859,10.311,7.5,12.99c2.32,1.34,4.91,2.01,7.5,2.01   s5.18-0.67,7.5-2.01l140.5-81.119v68.129C491.294,686.311,494.153,691.262,498.794,693.941z M521.294,345.033l268.41,154.969   l-268.41,154.969v-68.129V413.161V345.033z M358.294,654.971V345.033l133,76.788v156.36L358.294,654.971z"/><path d="M857.063,603.034h-1.139c-6.451,0-12.18,4.125-14.226,10.242c-48.952,146.375-185.44,244.721-339.633,244.721   c-197.4,0-357.998-160.598-357.998-357.998s160.598-357.998,357.998-357.998c49.127,0,96.769,9.834,141.602,29.229   c7.163,3.1,15.507,0.187,19.186-6.697l0.525-0.983c1.977-3.698,2.314-8.056,0.932-12.016c-1.383-3.959-4.36-7.159-8.21-8.822   l-0.895-0.391c-0.57-0.25-1.142-0.499-1.719-0.744c-47.968-20.288-98.913-30.575-151.421-30.575s-103.452,10.287-151.419,30.575   c-46.325,19.594-87.925,47.64-123.644,83.36c-35.719,35.719-63.766,77.318-83.36,123.643   c-20.288,47.968-30.575,98.912-30.575,151.42c0,52.506,10.287,103.451,30.576,151.421c19.594,46.323,47.641,87.923,83.359,123.642   c35.719,35.721,77.318,63.767,123.643,83.36c47.968,20.288,98.912,30.575,151.42,30.575s103.453-10.287,151.42-30.575   c46.323-19.593,87.924-47.639,123.645-83.36c35.72-35.718,63.766-77.317,83.361-123.644c3.958-9.36,7.593-18.999,10.804-28.647   c1.522-4.573,0.754-9.6-2.066-13.51C866.409,605.351,861.883,603.034,857.063,603.034z"/><path d="M683.189,191.318c17.844,10.515,34.887,22.656,50.657,36.087c2.807,2.391,6.268,3.58,9.725,3.58   c3.62,0,7.237-1.306,10.094-3.903l0.885-0.805c3.187-2.898,4.974-7.027,4.905-11.335s-1.985-8.378-5.263-11.174   c-17.207-14.679-35.79-27.914-55.233-39.34c-3.518-2.067-7.724-2.61-11.652-1.51c-3.929,1.103-7.237,3.758-9.166,7.353   l-0.555,1.034C673.781,178.399,676.254,187.232,683.189,191.318z"/><path d="M886.769,441.848c-4.787-31.983-13.628-63.364-26.278-93.27c-13.439-31.773-31.014-61.574-52.231-88.574   c-2.573-3.273-6.391-5.331-10.54-5.679c-4.145-0.343-8.257,1.045-11.34,3.844l-0.895,0.813c-5.822,5.289-6.57,14.179-1.713,20.366   c38.12,48.559,63.112,106.293,72.275,166.961c1.108,7.336,7.413,12.76,14.832,12.76h1.055c4.366,0,8.515-1.902,11.364-5.21   S887.415,446.166,886.769,441.848z"/></g></svg>