<?xml version="1.0" ?><!DOCTYPE svg  PUBLIC '-//W3C//DTD SVG 1.1//EN'  'http://www.w3.org/Graphics/SVG/1.1/DTD/svg11.dtd'><svg enable-background="new 0 0 512 512" id="Layer_1" version="1.1" viewBox="0 0 512 512" xml:space="preserve" xmlns="http://www.w3.org/2000/svg" xmlns:xlink="http://www.w3.org/1999/xlink"><circle cx="256" cy="256" fill="#F4B70A" id="ellipse" r="256"/><g id="logo" transform="translate(12.000000, 12.000000)"><path d="M384,363.2c0,11.4-9.3,20.8-20.7,20.8H244c-86.8,0-155.1-79-137.1-168.9   c11.1-55.3,55.1-98.4,110.6-108.6C304,90.5,379.7,154,383.8,237h0.2V363.2L384,363.2z" fill="#FFFFFF" id="XMLID_12_"/><path d="M308.8,313.3c0,0,5.2,3.1,5.2-4.1v-66.5c-0.6-38.1-31.7-68.8-70-68.8   c-38.7,0-70,31.3-70,70s31.3,70,70,70c17.7,0,34-6.6,46.3-17.5L308.8,313.3z" fill="#F4B70A" id="Combined-Shape"/></g></svg>