<?xml version="1.0" ?><!DOCTYPE svg  PUBLIC '-//W3C//DTD SVG 1.1//EN'  'http://www.w3.org/Graphics/SVG/1.1/DTD/svg11.dtd'><svg enable-background="new 0 0 512 512" id="Layer_1" version="1.1" viewBox="0 0 512 512" xml:space="preserve" xmlns="http://www.w3.org/2000/svg" xmlns:xlink="http://www.w3.org/1999/xlink"><circle cx="256" cy="256" fill="#61CB2B" id="ellipse" r="256"/><path d="M259.1,319.4c-0.1,9.2-7.5,16.6-16.5,16.6c-9.2,0-16.4-7.2-16.6-16.4h-0.2v-83.2h0.2v-0.4  c0-9.2,7.4-16.7,16.5-16.7s16.5,7.5,16.5,16.8v0.6h0.2v83H259L259.1,319.4L259.1,319.4z M407.6,254.2c10,0,18.4,8.2,18.4,18.4  c0,10.1-8.4,18.3-18.4,18.3c-10.2,0-18.6-8.2-18.6-18.4c0-10.2,8.2-18.4,18.4-18.4L407.6,254.2L407.6,254.2z M379.8,310  c1.6,2.6,2.6,5.8,2.6,9.1c0,9.4-7.4,16.8-16.6,16.8c-6.2,0-11.6-3.4-14.4-8.4L324,290.9l-8.4,7.8v21.8h-0.2  c-0.5,8.7-7.6,15.6-16.3,15.6c-9,0-16.3-7.4-16.3-16.5v-0.3h-0.2v-126h0.4v-0.6c0-9.2,7.3-16.7,16.4-16.7c9,0,16.3,7.5,16.3,16.7  v0.9h0.2l0.1,61.3l30.8-30.1c3.1-3.4,7.5-5.4,12.4-5.4c9.2,0,16.6,7.6,16.6,16.8c0,4.6-1.8,8.6-4.6,11.6l0.2,0.2l-21.6,21.4  l30.4,40.8l-0.2,0.2L379.8,310L379.8,310z M203.2,310c1.6,2.6,2.6,5.8,2.6,9.1c0,9.4-7.4,16.8-16.6,16.8c-6.2,0-11.6-3.4-14.4-8.4  l-27.4-36.6l-8.4,7.8v21.7h-0.2c-0.5,8.7-7.6,15.6-16.3,15.6c-9,0-16.3-7.4-16.3-16.5v-0.4H106v-126h0.4c-0.1-0.2-0.1-0.4-0.1-0.6  c0-9.2,7.3-16.7,16.4-16.7c9,0,16.3,7.5,16.3,16.7v0.9h0.2l0.1,61.3l30.8-30.1c3.1-3.4,7.5-5.4,12.4-5.4c9.2,0,16.6,7.6,16.6,16.8  c0,4.4-1.7,8.6-4.6,11.6l0.2,0.2l-21.7,21.4l30.3,40.8l-0.2,0.2L203.2,310L203.2,310z" fill="#FFFFFF" id="logo"/></svg>