<?xml version="1.0" ?><!DOCTYPE svg  PUBLIC '-//W3C//DTD SVG 1.1//EN'  'http://www.w3.org/Graphics/SVG/1.1/DTD/svg11.dtd'><svg enable-background="new 0 0 512 512" id="Layer_1" version="1.1" viewBox="0 0 512 512" xml:space="preserve" xmlns="http://www.w3.org/2000/svg" xmlns:xlink="http://www.w3.org/1999/xlink"><circle cx="256" cy="256" fill="#00A0EE" id="ellipse" r="256"/><path d="M401.6,163.3c-4.9-11.5-11.5-23-19.7-31.2c-11.5-11.5-26.3-19.7-41-26.3  c-16.4-6.6-34.5-9.8-52.5-9.8c-48.9,0-97.7,0-146.6,0v320c0.1,0,0.1,0,0.1,0c26.3,0,56.2,0,84.1,0c8.2,0,14.8-4.9,14.8-14.8  c0-18.1,0-37.7,0-57.4c0-3.3,0-3.3,3.3-3.3c9.8,0,21.3,0,31.2,0c13.1,0,26.3-1.6,39.4-4.9c19.7-4.9,37.7-13.1,54.2-26.3  c14.8-11.5,26.3-27.9,32.8-45.9c4.9-13.1,8.2-27.9,8.2-42.7C411.4,201,408.2,181.3,401.6,163.3z" fill="#FFFFFF" id="logo"/></svg>