<?xml version="1.0" ?><!DOCTYPE svg  PUBLIC '-//W3C//DTD SVG 1.1//EN'  'http://www.w3.org/Graphics/SVG/1.1/DTD/svg11.dtd'><svg height="6.82666in" style="shape-rendering:geometricPrecision; text-rendering:geometricPrecision; image-rendering:optimizeQuality; fill-rule:evenodd; clip-rule:evenodd" viewBox="0 0 6.82666 6.82666" width="6.82666in" xml:space="preserve" xmlns="http://www.w3.org/2000/svg" xmlns:xlink="http://www.w3.org/1999/xlink"><defs><style type="text/css">
   <![CDATA[
    .fil0 {fill:#6A1B9A}
    .fil1 {fill:#FFFFFE}
   ]]>
  </style></defs><g id="Layer_x0020_1"><rect class="fil0" height="6.82667" rx="1.65565" ry="1.65565" width="6.82667"/><path class="fil1" d="M1.25706 1.78925l4.31254 0c0.222059,0 0.403732,0.181669 0.403732,0.403728l0 2.44071c0,0.222059 -0.181673,0.403728 -0.403732,0.403728l-4.31254 0c-0.222051,0 -0.403724,-0.181669 -0.403724,-0.403728l0 -2.44071c0,-0.222059 0.181673,-0.403728 0.403724,-0.403728zm0.208705 1.97871l0 -0.564248 0.146843 0 0 0.0602874c0.0202244,-0.0254803 0.038874,-0.042685 0.0558189,-0.0516181 0.0227205,-0.0120827 0.0480709,-0.018126 0.0757835,-0.018126 0.0546378,0 0.0968031,0.0208858 0.126744,0.0627835 0.029815,0.0418976 0.0447913,0.0937795 0.0447913,0.155378 0,0.0681693 -0.0162874,0.120181 -0.0488622,0.156035 -0.0325748,0.0358583 -0.0736811,0.0537205 -0.123461,0.0537205 -0.0241693,0 -0.0461024,-0.0040748 -0.0659331,-0.0122165 -0.0199646,-0.00827559 -0.0376929,-0.0203583 -0.0533268,-0.0365118l0 0.194516 -0.158398 0zm0.157217 -0.358433c0,0.0325709 0.00682677,0.0566102 0.0203583,0.0723701 0.0135276,0.0157598 0.0307362,0.0236417 0.0514843,0.0236417 0.018126,0 0.0333622,-0.00748819 0.0457087,-0.0225906 0.0122126,-0.0151024 0.0183858,-0.0407165 0.0183858,-0.0768346 0,-0.0333622 -0.00643307,-0.0577913 -0.0191732,-0.0734213 -0.0128701,-0.0156299 -0.0283701,-0.0233819 -0.0468898,-0.0233819 -0.0199646,0 -0.0365118,0.00788189 -0.0499094,0.0236457 -0.0132677,0.0157598 -0.0199646,0.0412402 -0.0199646,0.0765709zm0.348717 -0.000129921c0,-0.0625236 0.0210157,-0.114004 0.0630433,-0.154461 0.0420315,-0.0404528 0.0987677,-0.0606811 0.17022,-0.0606811 0.0818268,0 0.143559,0.0237756 0.185327,0.0713189 0.0334882,0.0383543 0.0503031,0.0855079 0.0503031,0.141457 0,0.0630433 -0.020752,0.114531 -0.0623858,0.154854 -0.0416378,0.040189 -0.0992992,0.0602874 -0.17285,0.0602874 -0.0655433,0 -0.118602,-0.016685 -0.159055,-0.0501772 -0.0497795,-0.0413701 -0.0746024,-0.0956181 -0.0746024,-0.162598zm0.156823 -0.00026378c0,0.0366457 0.00735433,0.0637008 0.0220669,0.0811693 0.0147087,0.0174724 0.0330984,0.0262677 0.0554252,0.0262677 0.0224567,0 0.0408465,-0.00866535 0.0552953,-0.025874 0.0144449,-0.0172087 0.0216732,-0.0449173 0.0216732,-0.0830079 0,-0.0355906 -0.00722835,-0.0619961 -0.0218031,-0.0794646 -0.0145827,-0.0173346 -0.0325748,-0.0260039 -0.0541142,-0.0260039 -0.0227244,0 -0.0415039,0.00879921 -0.0563465,0.0264016 -0.0148425,0.0177283 -0.0221969,0.0445236 -0.0221969,0.0805118zm0.360142 0.0901024l0.155248 -0.014189c0.00643701,0.0183898 0.0153701,0.0315236 0.0269252,0.0394055 0.0115591,0.00788189 0.0269252,0.0118228 0.0462323,0.0118228 0.0210157,0 0.0372992,-0.0044685 0.0488583,-0.0135315 0.00906299,-0.00656693 0.0135315,-0.0149685 0.0135315,-0.0249567 0,-0.0112913 -0.00590945,-0.0200906 -0.0177323,-0.0262638 -0.00840551,-0.00433858 -0.0308661,-0.00972047 -0.067248,-0.0161575 -0.054378,-0.00945276 -0.0920709,-0.0182559 -0.11335,-0.0264016 -0.0211417,-0.00801181 -0.038874,-0.0217992 -0.0534567,-0.0409764 -0.0144488,-0.0193071 -0.0216693,-0.0412441 -0.0216693,-0.065937 0,-0.0269213 0.00775197,-0.0501732 0.0233819,-0.0696102 0.015626,-0.0195669 0.0371693,-0.0341457 0.0646181,-0.0437362 0.0274488,-0.00958661 0.0642244,-0.0144488 0.110327,-0.0144488 0.0485984,0 0.0845866,0.00367717 0.107701,0.0111654 0.023248,0.00748425 0.0425551,0.0190472 0.0580551,0.0346732 0.0154961,0.0157638 0.0283661,0.0369094 0.0386102,0.0637047l-0.148154 0.0141811c-0.00380709,-0.013 -0.0102441,-0.0225866 -0.0191732,-0.0287598 -0.0122165,-0.00814567 -0.0270591,-0.0122165 -0.0445236,-0.0122165 -0.0176024,0 -0.0304724,0.00315354 -0.0384882,0.00945669 -0.00800787,0.00630315 -0.0120827,0.0139213 -0.0120827,0.0228504 0,0.0101181 0.00512205,0.0176024 0.0152362,0.0227244 0.0101142,0.00525197 0.0324449,0.00985039 0.0667244,0.0139213 0.0521417,0.00590945 0.0907559,0.014189 0.11624,0.0246929 0.0253465,0.0105079 0.0447835,0.0254803 0.0581811,0.0450512 0.0135276,0.0195709 0.0202283,0.0409803 0.0202283,0.0643583 0,0.0236417 -0.00709055,0.046626 -0.0214094,0.0689567 -0.014189,0.0223268 -0.0366457,0.0400591 -0.067248,0.0533228 -0.0306024,0.0132638 -0.0723701,0.0198346 -0.125169,0.0198346 -0.0746024,0 -0.127799,-0.0106417 -0.159449,-0.0320512 -0.0316535,-0.0212756 -0.0520157,-0.0516142 -0.0609449,-0.0908858zm0.698083 -0.450768l0 0.155244 0.0859016 0 0 0.115055 -0.0859016 0 0 0.14474c0,0.0173386 0.00170866,0.0288976 0.00499213,0.0345433 0.00512598,0.00866929 0.014189,0.0130039 0.0270591,0.0130039 0.0115591,0 0.0277126,-0.00327953 0.0485984,-0.00998425l0.0115551 0.108358c-0.0387441,0.00853937 -0.0748661,0.0127441 -0.108488,0.0127441 -0.0390079,0 -0.0677756,-0.00499213 -0.0862913,-0.0149724 -0.0183898,-0.00998425 -0.0320472,-0.0252205 -0.0409803,-0.0455787 -0.00879921,-0.0203583 -0.0132638,-0.0534567 -0.0132638,-0.0990315l0 -0.143823 -0.0575276 0 0 -0.115055 0.0575276 0 0 -0.0749961 0.156819 -0.080248zm0.614551 0.398756l-0.314429 0c0.00288976,0.0250866 0.00958661,0.0438661 0.0204882,0.0562126 0.0151024,0.0177323 0.034937,0.0265315 0.0593701,0.0265315 0.0154961,0 0.0302047,-0.00380709 0.0439961,-0.0114252 0.00853937,-0.00485827 0.0177283,-0.0133976 0.0274528,-0.0256102l0.154457 0.0141811c-0.0236417,0.0409803 -0.0521417,0.0705315 -0.0855039,0.0882638 -0.0333622,0.0178622 -0.0812992,0.0267953 -0.143689,0.0267953 -0.0542441,0 -0.0967992,-0.00762205 -0.127929,-0.0229882 -0.0309961,-0.0152362 -0.0567362,-0.0395354 -0.0772283,-0.0727598 -0.0203583,-0.0333622 -0.0306024,-0.0725039 -0.0306024,-0.117421 0,-0.0639646 0.0204921,-0.115846 0.0614685,-0.155382 0.0408465,-0.0395315 0.0974567,-0.0593661 0.169563,-0.0593661 0.0585787,0 0.104681,0.00893307 0.138567,0.0266654 0.0338858,0.0177283 0.0597598,0.0433425 0.0774921,0.0770984 0.0177323,0.033622 0.0265276,0.0774921 0.0265276,0.131472l0 0.0177323zm-0.159185 -0.0748661c-0.00301969,-0.0304724 -0.0112953,-0.0522756 -0.0245591,-0.0654055 -0.0132638,-0.0131378 -0.0306024,-0.0197047 -0.0522756,-0.0197047 -0.0249528,0 -0.0449213,0.00998031 -0.0598898,0.029815 -0.00945669,0.0123465 -0.0155,0.0307362 -0.018126,0.0552953l0.15485 0zm0.231693 0.395602l0 -0.564248 0.146843 0 0 0.0602874c0.0202244,-0.0254803 0.038874,-0.042685 0.0558189,-0.0516181 0.0227205,-0.0120827 0.0480709,-0.018126 0.0757835,-0.018126 0.0546378,0 0.0967992,0.0208858 0.126744,0.0627835 0.029815,0.0418976 0.0447913,0.0937795 0.0447913,0.155378 0,0.0681693 -0.0162913,0.120181 -0.0488622,0.156035 -0.0325748,0.0358583 -0.0736811,0.0537205 -0.123461,0.0537205 -0.0241693,0 -0.0461024,-0.0040748 -0.0659331,-0.0122165 -0.0199646,-0.00827559 -0.0376969,-0.0203583 -0.0533268,-0.0365118l0 0.194516 -0.158398 0zm0.157217 -0.358433c0,0.0325709 0.00682677,0.0566102 0.0203543,0.0723701 0.0135315,0.0157598 0.0307362,0.0236417 0.0514882,0.0236417 0.018126,0 0.0333622,-0.00748819 0.0457087,-0.0225906 0.0122126,-0.0151024 0.0183858,-0.0407165 0.0183858,-0.0768346 0,-0.0333622 -0.00643307,-0.0577913 -0.0191732,-0.0734213 -0.0128701,-0.0156299 -0.028374,-0.0233819 -0.0468937,-0.0233819 -0.0199606,0 -0.0365079,0.00788189 -0.0499094,0.0236457 -0.0132638,0.0157598 -0.0199606,0.0412402 -0.0199606,0.0765709zm0.511051 -0.0734213l-0.149728 -0.0157598c0.00564961,-0.0262717 0.0137913,-0.0468898 0.0244331,-0.0618622 0.0106339,-0.0151063 0.0258701,-0.0281063 0.0459685,-0.0391417 0.014315,-0.00800787 0.0340197,-0.0141811 0.0591024,-0.0185197 0.0250866,-0.00433071 0.0522756,-0.00656693 0.081563,-0.00656693 0.0468898,0 0.0844567,0.00262992 0.112957,0.00788189 0.0283701,0.00525197 0.0521457,0.0162874 0.0710551,0.0329646 0.0133976,0.0115591 0.0239055,0.0279764 0.0315236,0.049122 0.00775197,0.0211496 0.0115591,0.041378 0.0115591,0.060685l0 0.180724c0,0.019311 0.0011811,0.0344134 0.00367717,0.045315 0.00236614,0.0109016 0.00774803,0.0248228 0.0158898,0.0417677l-0.146705 0c-0.00591339,-0.0105079 -0.00972441,-0.0183898 -0.0115591,-0.0239055 -0.0017126,-0.00551575 -0.00354724,-0.0140551 -0.00538976,-0.0257402 -0.0204882,0.0196969 -0.0408465,0.033748 -0.0612047,0.0421575 -0.0277126,0.0112953 -0.0598898,0.0169449 -0.0965354,0.0169449 -0.0487283,0 -0.0857677,-0.0112953 -0.110984,-0.0340197 -0.0253504,-0.0225906 -0.0379567,-0.0505669 -0.0379567,-0.0836614 0,-0.0311339 0.00906299,-0.0567441 0.0273189,-0.0768386 0.0182559,-0.0200945 0.051878,-0.0350709 0.10087,-0.0447874 0.0587087,-0.0118228 0.0967992,-0.0200945 0.114268,-0.0249567 0.0174685,-0.00472441 0.0359882,-0.0108976 0.0554252,-0.0186496 0,-0.0193071 -0.00393701,-0.0327047 -0.0119528,-0.0404528 -0.00787795,-0.00775197 -0.0218031,-0.0115591 -0.0417638,-0.0115591 -0.0256102,0 -0.0447913,0.0040748 -0.0576614,0.0123465 -0.00998031,0.00656693 -0.0179961,0.0186496 -0.0241693,0.0365118zm0.135547 0.0819606c-0.0215394,0.00774803 -0.044,0.0145748 -0.0675118,0.0206181 -0.0317835,0.00853937 -0.0520079,0.0169449 -0.0604134,0.0252165 -0.00879921,0.00853937 -0.0131339,0.0182559 -0.0131339,0.0291614 0,0.0124764 0.00433465,0.0227205 0.0128701,0.0306024 0.00866929,0.00787795 0.0212795,0.0118228 0.0379567,0.0118228 0.0174724,0 0.0337559,-0.00433858 0.0488622,-0.012874 0.0149724,-0.00853543 0.0256102,-0.0189134 0.0319134,-0.0312598 0.00630709,-0.0123465 0.00945669,-0.0283701 0.00945669,-0.0480709l0 -0.0252165zm0.201748 -0.214354l0.165224 0 0.0841929 0.272272 0.0777559 -0.272272 0.154327 0 -0.161815 0.43724c-0.0183898,0.0496496 -0.0372992,0.0831417 -0.0564764,0.100476 -0.027189,0.024563 -0.0685591,0.0367756 -0.124248,0.0367756 -0.0225945,0 -0.0573976,-0.00314961 -0.104551,-0.00919291l-0.0123465 -0.109406c0.0225906,0.00709055 0.0476772,0.0106378 0.0753898,0.0106378 0.0185197,0 0.0334921,-0.00420472 0.0449213,-0.0126102 0.0114252,-0.00827559 0.0210157,-0.0232441 0.0290236,-0.0447874l-0.171398 -0.409134z"/></g></svg>