<?xml version="1.0" ?><svg height="64" viewBox="0 0 64 64" width="64" xmlns="http://www.w3.org/2000/svg"><defs><style>.cls-1{fill:none;stroke:#000;stroke-linejoin:round;stroke-width:2px;}</style></defs><title/><g data-name="7-SEO Solution" id="_7-SEO_Solution"><rect class="cls-1" height="62" rx="2" ry="2" width="62" x="1" y="1"/><line class="cls-1" x1="1" x2="63" y1="9" y2="9"/><line class="cls-1" x1="4" x2="6" y1="5" y2="5"/><line class="cls-1" x1="8" x2="10" y1="5" y2="5"/><line class="cls-1" x1="58" x2="60" y1="5" y2="5"/><path class="cls-1" d="M47,22a1,1,0,0,0,1,1h8l-9-9Z"/><path class="cls-1" d="M56,63V23l-9-9H9a1,1,0,0,0-1,1V63"/><path class="cls-1" d="M24,35V32a2,2,0,0,0-2-2H16a2,2,0,0,0-2,2v4a2,2,0,0,0,2,2h6a2,2,0,0,1,2,2v4a2,2,0,0,1-2,2H20a.979.979,0,0,0-1,1v9"/><path class="cls-1" d="M14,41v3a2,2,0,0,0,2,2"/><path class="cls-1" d="M37,30H29V46h4a.979.979,0,0,1,1,1v6"/><line class="cls-1" x1="29" x2="37" y1="38" y2="38"/><path class="cls-1" d="M43,46a2,2,0,0,1-2-2V32a2,2,0,0,1,2-2h5a2,2,0,0,1,2,2V44a2,2,0,0,1-2,2H47a.979.979,0,0,0-1,1v8"/><line class="cls-1" x1="19" x2="19" y1="58" y2="60"/><line class="cls-1" x1="34" x2="34" y1="55" y2="57"/><line class="cls-1" x1="46" x2="46" y1="57" y2="59"/><rect class="cls-1" height="4" width="4" x="13" y="19"/><line class="cls-1" x1="20" x2="31" y1="19" y2="19"/><line class="cls-1" x1="20" x2="22" y1="23" y2="23"/><line class="cls-1" x1="24" x2="26" y1="23" y2="23"/></g></svg>