<?xml version="1.0" ?><svg height="64" viewBox="0 0 64 64" width="64" xmlns="http://www.w3.org/2000/svg"><defs><style>.cls-1{fill:none;stroke:#000;stroke-linejoin:round;stroke-width:2px;}</style></defs><title/><g data-name="19-Online Tutorial" id="_19-Online_Tutorial"><rect class="cls-1" height="46" rx="2" ry="2" width="62" x="1" y="1"/><polygon class="cls-1" points="44 59 42 59 39 47 25 47 22 59 20 59 18 63 46 63 44 59"/><line class="cls-1" x1="14" x2="50" y1="63" y2="63"/><circle class="cls-1" cx="32" cy="40" r="3"/><line class="cls-1" x1="22" x2="39" y1="59" y2="59"/><line class="cls-1" x1="1" x2="63" y1="33" y2="33"/><path class="cls-1" d="M14,6c-4,0-5,4-5,4v1.97C9,15.947,11.239,19,14,19s5-3.053,5-7.03V10S18,6,14,6Z"/><path class="cls-1" d="M23,33V25a4,4,0,0,0-4-4,2.938,2.938,0,0,1-3-3"/><path class="cls-1" d="M12,18a2.938,2.938,0,0,1-3,3,4,4,0,0,0-4,4v8"/><line class="cls-1" x1="9" x2="9" y1="26" y2="33"/><line class="cls-1" x1="19" x2="19" y1="26" y2="33"/><path class="cls-1" d="M57,5H29a2,2,0,0,0-2,2V23a2,2,0,0,0,2,2h9v4l4-4H57a2,2,0,0,0,2-2V7A2,2,0,0,0,57,5Z"/><line class="cls-1" x1="30" x2="56" y1="19" y2="19"/><line class="cls-1" x1="36" x2="36" y1="22" y2="16"/><polygon class="cls-1" points="41 15 41 9 47 12 41 15"/><polyline class="cls-1" points="34 9 31 9 31 12"/><line class="cls-1" x1="35" x2="33" y1="29" y2="29"/><line class="cls-1" x1="31" x2="29" y1="29" y2="29"/></g></svg>