<?xml version="1.0" ?><svg id="Layer_1" style="enable-background:new 0 0 30 30;" version="1.1" viewBox="0 0 30 30" xml:space="preserve" xmlns="http://www.w3.org/2000/svg" xmlns:xlink="http://www.w3.org/1999/xlink"><style type="text/css">
	.st0{fill:#DAEFEE;}
	.st1{fill:#77C4D3;}
	.st2{fill:#97C2F7;}
</style><g><path class="st0" d="M8.276,26.904l16.958,0.116c0,0-0.52,2.384-5.145,2.384h-9.563C10.526,29.404,7.776,28.529,8.276,26.904z"/><path class="st1" d="M25.233,12.863c0,0-0.469,3.625-4.281,2.813l-0.531,0.119l-3.358,2.975c0,0-1.111,0.219-2.205-1.375   c0,0-1,2.25-3.406,0.969c0,0-3.938-1.156-4,1.063l0.219,7.125l0.156,0.469h17.125h0.281V12.863z"/><path class="st2" d="M21.108,15.195l-3.888,3.337c-0.417,0.358-1.052,0.31-1.41-0.107l-3.09-3.6   c-0.358-0.417-0.31-1.052,0.107-1.41l3.888-3.337c0.417-0.358,1.052-0.31,1.41,0.107l3.09,3.6   C21.573,14.202,21.525,14.837,21.108,15.195z"/><g><path d="M25.587,11.304v-6.85c0-0.221-0.18-0.4-0.4-0.4H9.853L9.478,2.142C9.449,1.998,9.344,1.881,9.205,1.837l-4.57-1.431    L4.395,1.17l4.343,1.36l0.299,1.524H7.623c-0.221,0-0.4,0.179-0.4,0.4v14.908c0,0.026-0.006,0.044-0.005,0.071    c0,0.007,0.004,0.013,0.005,0.02v6.488c0,0.361,0.069,0.703,0.167,1.032c0.004,0.062,0.023,0.118,0.053,0.169    c0.5,1.422,1.842,2.451,3.433,2.451h11.06c2.014,0,3.652-1.639,3.652-3.652V12.306C25.62,11.828,25.599,11.457,25.587,11.304z     M24.786,4.854v6.449c0,0.004-0.001,0.007-0.001,0.011c0,0,0.001,0.012,0.001,0.013v0.904c-0.054,0.812-0.279,1.968-1.092,2.636    c-0.508,0.417-1.212,0.572-2.066,0.515c0.472-0.517,0.512-1.308,0.042-1.85l-3.085-3.556c-0.244-0.282-0.584-0.451-0.958-0.478    c-0.382-0.023-0.736,0.094-1.016,0.338l-4.018,3.484c-0.282,0.244-0.451,0.585-0.478,0.959c-0.026,0.374,0.094,0.735,0.338,1.016    l1.79,2.063c-0.149,0.514-0.35,1.013-1.606,0.879L10.01,4.854H24.786z M20.063,15.091c-0.154-0.047-0.331-0.114-0.523-0.187    c-0.901-0.34-2.262-0.851-3.456-0.251c-0.645,0.325-1.155,0.948-1.531,1.839l-1.492-1.721c-0.104-0.12-0.156-0.275-0.144-0.436    c0.011-0.161,0.084-0.307,0.204-0.411l4.018-3.484c0.108-0.095,0.246-0.146,0.391-0.146c0.015,0,0.029,0,0.044,0.001    c0.16,0.011,0.307,0.084,0.411,0.204l3.085,3.556c0.217,0.25,0.189,0.629-0.061,0.846h0.001l-0.373,0.324    C20.444,15.181,20.266,15.154,20.063,15.091z M19.889,15.873l-2.898,2.514c-0.121,0.104-0.281,0.154-0.437,0.145    c-0.16-0.012-0.307-0.084-0.411-0.204l-0.994-1.146c0.313-0.915,0.742-1.536,1.293-1.813c0.883-0.444,1.998-0.023,2.814,0.285    c0.21,0.079,0.401,0.151,0.569,0.203C19.848,15.863,19.868,15.866,19.889,15.873z M9.195,4.854l2.6,13.235l-0.153-0.035    c-0.943-0.223-2.617-0.609-3.619-0.098V4.854H9.195z M21.935,28.793h-11.06c-1.058,0-1.973-0.586-2.466-1.444H24.4    C23.907,28.207,22.993,28.793,21.935,28.793z M24.786,25.941c0,0.208-0.026,0.411-0.068,0.606H8.091    c-0.043-0.196-0.068-0.398-0.068-0.606v-6.656c0.013-0.315,0.128-0.464,0.223-0.543c0.63-0.521,2.44-0.094,3.212,0.089    l0.307,0.071c0.073,0.016,0.126,0.017,0.195,0.03l1.008,5.13l0.785-0.154l-0.956-4.868c1.293,0.06,1.803-0.468,2.046-0.993    l0.697,0.803c0.244,0.282,0.584,0.452,0.958,0.479c0.034,0.003,0.068,0.004,0.103,0.004c0.337,0,0.658-0.119,0.914-0.342    l3.33-2.889c1.409,0.259,2.539,0.056,3.362-0.62c0.229-0.189,0.419-0.406,0.58-0.637V25.941z"/><path d="M17.722,11.408c-0.394-0.015-0.776,0.122-1.066,0.389l-1.257,1.156c-0.163,0.149-0.173,0.403-0.023,0.565    c0.079,0.085,0.187,0.129,0.294,0.129c0.097,0,0.194-0.035,0.271-0.105l1.256-1.156c0.135-0.123,0.309-0.184,0.491-0.179    c0.184,0.007,0.353,0.085,0.476,0.219c0.148,0.162,0.403,0.172,0.564,0.023c0.163-0.149,0.174-0.403,0.023-0.565    C18.484,11.593,18.118,11.424,17.722,11.408z"/></g></g></svg>