<?xml version="1.0" ?><svg id="Layer_1" style="enable-background:new 0 0 30 30;" version="1.1" viewBox="0 0 30 30" xml:space="preserve" xmlns="http://www.w3.org/2000/svg" xmlns:xlink="http://www.w3.org/1999/xlink"><style type="text/css">
	.st0{fill:#97C2F7;}
	.st1{fill:#A14F4C;}
	.st2{fill:#DF4D60;}
	.st3{fill:#F78A68;}
	.st4{fill:#A3875E;}
	.st5{fill:#77C4D3;}
</style><g><ellipse class="st0" cx="27.112" cy="20.442" rx="2.601" ry="1.504" transform="matrix(0.446 -0.8951 0.8951 0.446 -3.2756 35.5925)"/><path class="st1" d="M8.003,9.16c0,0-2.313-4.042-3.938,3.583c0,0-0.125,5.458-2.667,4.708c0,0-1.667-1.417,0.167-2.833l0.5,0.833   l0.167,0.667l0.333-0.25l0.292-1.625L3.733,9.41c0,0,0.375-2.292,1.792-2.792c0,0,2.917-0.5,3.125,1.375L8.003,9.16z"/><path class="st2" d="M1.774,19.484c0,0,4.875,5.003,13.208,5.215l-0.09,1.337c0,0-6.66,1.535-13.869-5.233L1.774,19.484z"/><path class="st3" d="M7.483,10.493c0,0,4.167,3.333,9.417,3.75l-0.292,1.875c0,0-7.75-2.083-9.958-4.167L7.483,10.493z"/><path class="st4" d="M12.844,8.296l-0.361-4.844c0,0,0.594-1.625,1.906,0l-0.25,4.125l1.219-1.063V2.858   c0,0-1.344-3.625-3.375-1.031c0,0-0.582,0.438-0.416,4.063l0.197,2.719l0.719,0.344L12.844,8.296z"/><path class="st4" d="M9.524,7.243l7.958,3.046l-0.583,3.954c0,0-8.25-2.125-9.417-3.75L9.524,7.243z"/><path class="st0" d="M6.649,11.952c0,0,6.25,4.125,9.958,3.917l-0.458,3.676l-0.64,0.641l-1.217,2.075l0.69,1.643v0.795   c0,0-9.125,0.025-12.917-5.215L6.649,11.952z"/><path class="st5" d="M14.983,20.37l7.577-2.668l-0.326,2.557l-7.001,3.644C15.233,23.903,13.295,21.726,14.983,20.37z"/><path class="st5" d="M13.274,8.368l2.958-2.083c0,0,3.292,2.625,0.875,3.792L13.274,8.368z"/><path class="st5" d="M27.912,17.733c0,0-3.71-2.936-5.335,1.126c-0.063,0.218-0.075,2.615,2.447,3.401   C25.023,22.26,27.007,17.765,27.912,17.733z"/><path d="M11.567,10.284c-0.002,0.317,0.282,0.577,0.633,0.581c0.002,0,0.005,0,0.007,0c0.354,0,0.633-0.249,0.637-0.569   c0,0,0,0,0,0c0.002-0.318-0.282-0.578-0.633-0.582C11.86,9.711,11.57,9.966,11.567,10.284z"/><path d="M23.702,21.986l1.826,1.094c0.001,0.001,0.002,0.002,0.003,0.003c0.002,0.001,0.003,0.001,0.005,0.002l0.102,0.061   c0.039,0.024,0.082,0.028,0.125,0.035c0.012,0.003,0.024,0.007,0.036,0.01c0.006,0,0.012,0.005,0.019,0.005   c0.003,0,0.005-0.002,0.007-0.002c0.075,0.016,0.151,0.029,0.231,0.029c0.789,0,1.799-0.781,2.562-2.054   c0.421-0.701,0.691-1.441,0.764-2.084c0.065-0.582-0.044-1.038-0.3-1.333c-0.029-0.056-0.068-0.108-0.126-0.142l-0.104-0.062   c-0.001-0.001-0.001-0.001-0.002-0.002c-0.001-0.001-0.002-0.001-0.003-0.001l-1.826-1.095c-1.293-0.777-2.914-0.528-3.937,0.496   l-6.615,2.419l0.888-5.061c0-0.001,0.001-0.001,0.001-0.002c0-0.001,0-0.002,0-0.003l0.716-4.082   c0.003-0.018-0.009-0.034-0.009-0.052c0.508-1.616,0.001-3.352-1.315-4.432c-0.006-0.01-0.001-0.023-0.008-0.032   c-0.02-0.026-0.053-0.027-0.078-0.046c-0.001-0.001-0.003-0.003-0.004-0.004c-0.001-0.001-0.003,0-0.004-0.001   c-0.072-0.052-0.146-0.073-0.232-0.063c-0.022,0.001-0.038,0.01-0.06,0.015c-0.038,0.011-0.079,0.004-0.113,0.029l-0.714,0.534   c0.135-0.996,0.245-2.234,0.288-2.947c0.037-0.614-0.28-1.394-0.789-1.939c-0.402-0.431-0.884-0.671-1.337-0.675   c-0.567-0.041-1.092,0.148-1.517,0.541c-0.685,0.633-1.003,1.683-1.009,2.409l0.163,3.789L9.701,6.715   c-0.157-0.06-0.333,0-0.422,0.143L8.944,7.396c-0.408-0.656-1.055-1.11-1.836-1.247C6.01,5.956,4.889,6.437,4.1,7.435   c-1.237,1.564-1.542,6.639-1.551,7.811c-0.002,0.301-0.227,0.498-0.239,0.531c-0.001-0.001-0.074-0.114-0.011-0.508   c0.067-0.42-0.231-0.857-0.652-0.953c-0.37-0.084-0.855,0.097-1.085,0.869c-0.381,1.28-0.077,1.935,0.245,2.258   c0.249,0.25,0.585,0.38,0.961,0.38c0.168,0,0.345-0.026,0.526-0.079c0.11-0.032,0.208-0.094,0.312-0.143l-1.877,3.022   c-0.102,0.164-0.052,0.38,0.113,0.481c0.003,0.002,0.006,0.001,0.009,0.003c1.457,1.565,3.818,3.048,6.506,4.074   c2.288,0.873,4.625,1.347,6.583,1.347c0.354,0,0.697-0.016,1.024-0.047c0.163-0.016,0.283-0.143,0.306-0.298   c0-0.003,0.003-0.004,0.004-0.006l0.375-2.135l6.62-3.935C22.487,20.865,22.973,21.55,23.702,21.986z M15.265,23.587   c-0.582-0.836-0.687-2.146,0.048-2.913l7.068-2.585c-0.201,0.463-0.299,0.95-0.276,1.432L15.265,23.587z M28.651,19.161   c-0.062,0.545-0.299,1.185-0.668,1.803c-0.791,1.32-1.78,1.866-2.125,1.673l-0.004-0.003c-0.335-0.206-0.317-1.342,0.474-2.663   c0.687-1.146,1.526-1.713,1.958-1.713c0.066,0,0.122,0.014,0.167,0.04l0.003,0.002c0.046,0.028,0.083,0.076,0.115,0.136   c-0.047-0.056-0.116-0.093-0.194-0.1c-0.157-0.013-0.296,0.104-0.309,0.261c-0.013,0.157,0.104,0.296,0.261,0.309   c0.157,0.013,0.296-0.104,0.309-0.261c0.006-0.076-0.02-0.146-0.065-0.202C28.655,18.601,28.686,18.853,28.651,19.161z    M26.626,17.203l0.931,0.558c-0.623,0.304-1.287,0.947-1.828,1.851c-0.542,0.903-0.796,1.793-0.771,2.486l-0.932-0.558   c-0.576-0.346-0.984-0.897-1.148-1.555c-0.165-0.657-0.065-1.337,0.279-1.913c0.089-0.149,0.192-0.284,0.305-0.408   c0.001,0,0.001-0.001,0.001-0.002C24.259,16.798,25.578,16.578,26.626,17.203z M14.986,20.047   c-0.047,0.017-0.088,0.044-0.122,0.078c0,0-0.001,0-0.001,0.001c-1.155,1.121-0.91,3.064,0.03,4.129l-0.013,0.072   c-1.96,0.066-4.314-0.372-6.692-1.279c-2.362-0.902-4.485-2.183-5.885-3.536l4.484-7.219c1.357,1.013,3.015,1.917,4.845,2.616   c1.578,0.602,3.187,1.011,4.689,1.208l-0.645,3.679L14.986,20.047z M7.54,11.08c1.316,0.946,2.897,1.792,4.618,2.449   c1.477,0.564,2.992,0.96,4.411,1.17l-0.128,0.728c-1.457-0.188-3.023-0.585-4.56-1.172c-1.792-0.684-3.411-1.568-4.725-2.557   L7.54,11.08z M17.442,9.837l-3.624-1.384l2.569-1.924C17.306,7.361,17.709,8.636,17.442,9.837z M13.676,7.685L13.027,8.17   l-0.167-4.33c0.003-0.303,0.297-0.808,0.471-0.808c0.091-0.001,0.254,0.085,0.424,0.273C13.924,3.493,14,3.678,14.001,3.724   l-0.326,3.95C13.675,7.677,13.676,7.681,13.676,7.685z M12.623,1.809c0.288-0.267,0.615-0.381,1.015-0.355   c0.28,0.002,0.583,0.164,0.853,0.453c0.375,0.401,0.628,0.999,0.602,1.42c-0.053,0.889-0.212,2.595-0.391,3.59l-0.279,0.209   l0.277-3.371c0.002-0.279-0.157-0.623-0.425-0.919c-0.287-0.317-0.628-0.5-0.936-0.503c-0.002,0-0.005,0-0.008,0   c-0.717,0-1.165,0.97-1.17,1.518l0.211,5.474c0,0.011,0.011,0.017,0.013,0.028c0.006,0.141,0.096,0.27,0.238,0.317   c0.365,0.12,0.608,0.387,0.605,0.666c-0.001,0.177-0.098,0.347-0.271,0.48c-0.197,0.15-0.428,0.24-0.758,0.233   c-0.285-0.002-0.56-0.092-0.753-0.247c-0.171-0.137-0.265-0.309-0.263-0.485c0.002-0.288,0.261-0.554,0.644-0.664   c0.113-0.032,0.192-0.119,0.228-0.223c0.002-0.006,0.004-0.012,0.006-0.019c0.009-0.029,0.014-0.058,0.014-0.09   C12.075,9.311,12.08,9.3,12.08,9.288l-0.241-5.596C11.843,3.241,12.059,2.331,12.623,1.809z M9.686,7.625l1.646,0.629   c0.001,0,0.002,0,0.003,0l0.036,0.843c-0.53,0.245-0.884,0.698-0.889,1.214c-0.003,0.391,0.189,0.77,0.527,1.04   c0.318,0.253,0.739,0.395,1.184,0.399c0.006,0,0.013,0,0.019,0c0.438,0,0.853-0.134,1.17-0.378   c0.349-0.267,0.542-0.633,0.546-1.029c0.005-0.521-0.334-0.975-0.864-1.23l-0.008-0.201l4.244,1.621l-0.61,3.477   c-1.375-0.202-2.845-0.586-4.282-1.135c-1.682-0.642-3.224-1.468-4.498-2.39L9.686,7.625z M2.062,17.224   c-0.329,0.097-0.619,0.052-0.794-0.123c-0.262-0.264-0.288-0.833-0.07-1.564c0.086-0.289,0.199-0.403,0.259-0.386   c0.062,0.014,0.125,0.102,0.116,0.159c-0.093,0.576,0,0.971,0.278,1.174c0.197,0.146,0.463,0.157,0.711,0.033   c0.38-0.19,0.648-0.648,0.652-1.113c0.015-1.915,0.454-6.185,1.399-7.382C5.25,7.217,6.103,6.839,6.952,6.991   c0.7,0.123,1.252,0.594,1.524,1.256L8.204,8.685c-0.258-0.494-0.663-0.84-1.17-0.932C6.168,7.593,5.28,8.152,4.66,9.243   c-0.499,0.878-0.723,2.447-0.96,4.107c-0.123,0.857-0.249,1.742-0.414,2.502C3.124,16.6,2.555,17.08,2.062,17.224z M4.393,13.45   c0.218-1.523,0.443-3.098,0.876-3.861c0.459-0.807,1.082-1.244,1.64-1.148c0.412,0.075,0.712,0.447,0.83,0.992l-1.329,2.14   l-0.001,0.001c-0.001,0.001,0,0.002-0.001,0.002l-2.307,3.714C4.208,14.691,4.304,14.07,4.393,13.45z M7.572,24.679   c-2.526-0.964-4.736-2.335-6.13-3.782l0.484-0.779c1.478,1.393,3.589,2.657,6.013,3.583c2.3,0.878,4.6,1.348,6.564,1.348   c0.086,0,0.168-0.006,0.253-0.008l-0.159,0.909C12.603,26.088,10.065,25.631,7.572,24.679z"/><ellipse cx="26.696" cy="20.651" rx="0.286" ry="0.286" transform="matrix(0.0824 -0.9966 0.9966 0.0824 3.9163 45.5544)"/><ellipse cx="26.75" cy="19.99" rx="0.286" ry="0.286" transform="matrix(0.0824 -0.9966 0.9966 0.0824 4.6245 45.0028)"/><ellipse cx="27.256" cy="19.258" rx="0.286" ry="0.286" transform="matrix(0.0824 -0.9966 0.9966 0.0824 5.8175 44.8344)"/><ellipse cx="27.76" cy="18.859" rx="0.286" ry="0.286" transform="matrix(0.0823 -0.9966 0.9966 0.0823 6.6812 44.9733)"/><ellipse cx="28.198" cy="19.591" rx="0.286" ry="0.286" transform="matrix(0.0823 -0.9966 0.9966 0.0823 6.3529 46.0814)"/><ellipse cx="27.446" cy="19.899" rx="0.286" ry="0.286" transform="matrix(0.0823 -0.9966 0.9966 0.0823 5.3564 45.6145)"/><ellipse cx="27.878" cy="20.37" rx="0.286" ry="0.286" transform="matrix(0.0823 -0.9966 0.9966 0.0823 5.2832 46.4777)"/><ellipse cx="27.339" cy="21.189" rx="0.286" ry="0.286" transform="matrix(0.0824 -0.9966 0.9966 0.0824 3.9701 46.6898)"/><ellipse cx="26.754" cy="21.853" rx="0.286" ry="0.286" transform="matrix(0.0824 -0.9966 0.9966 0.0824 2.7713 46.716)"/><ellipse cx="26.013" cy="21.974" rx="0.286" ry="0.286" transform="matrix(0.0824 -0.9966 0.9966 0.0824 1.9705 46.0878)"/><ellipse cx="26.165" cy="21.181" rx="0.286" ry="0.286" transform="matrix(0.0823 -0.9966 0.9966 0.0823 2.9037 45.5144)"/><path class="st5" d="M25.296,23.923c-0.182-0.065-0.382,0.033-0.446,0.214l-0.313,0.891c-0.064,0.183,0.031,0.382,0.214,0.446   c0.038,0.014,0.078,0.02,0.116,0.02c0.145,0,0.279-0.09,0.33-0.233l0.313-0.891C25.574,24.187,25.479,23.988,25.296,23.923z"/><path class="st5" d="M29.381,25.047c-0.181-0.063-0.382,0.033-0.446,0.214l-0.313,0.891c-0.064,0.183,0.031,0.382,0.214,0.446   c0.038,0.014,0.078,0.02,0.116,0.02c0.145,0,0.279-0.09,0.33-0.233l0.313-0.891C29.659,25.311,29.564,25.112,29.381,25.047z"/><path class="st5" d="M26.152,27.834c-0.181-0.063-0.382,0.033-0.446,0.214l-0.313,0.891c-0.064,0.183,0.031,0.382,0.214,0.446   c0.038,0.014,0.078,0.02,0.116,0.02c0.145,0,0.279-0.09,0.33-0.233l0.313-0.891C26.431,28.097,26.335,27.898,26.152,27.834z"/><path class="st5" d="M26.969,25.493c-0.181-0.063-0.382,0.032-0.446,0.214l-0.313,0.891c-0.064,0.183,0.031,0.382,0.214,0.446   c0.038,0.014,0.078,0.02,0.116,0.02c0.145,0,0.279-0.09,0.33-0.233l0.313-0.891C27.247,25.756,27.151,25.557,26.969,25.493z"/><path class="st5" d="M23.847,27.311l-0.513,0.793c-0.104,0.163-0.059,0.38,0.104,0.484c0.06,0.038,0.125,0.056,0.19,0.056   c0.114,0,0.227-0.056,0.294-0.159l0.513-0.793c0.104-0.163,0.059-0.38-0.104-0.484C24.168,27.103,23.952,27.148,23.847,27.311z"/><path class="st5" d="M27.905,24.815l0.313-0.891c0.064-0.183-0.031-0.382-0.214-0.446c-0.182-0.065-0.382,0.033-0.446,0.214   l-0.313,0.891c-0.064,0.183,0.031,0.382,0.214,0.446c0.038,0.014,0.078,0.02,0.116,0.02C27.72,25.048,27.855,24.959,27.905,24.815z   "/><path class="st5" d="M28.471,27.834c-0.182-0.063-0.382,0.033-0.446,0.214l-0.313,0.891c-0.064,0.183,0.031,0.382,0.214,0.446   c0.038,0.014,0.078,0.02,0.116,0.02c0.145,0,0.279-0.09,0.33-0.233l0.313-0.891C28.749,28.097,28.653,27.898,28.471,27.834z"/></g></svg>