<?xml version="1.0" ?><svg id="Layer_1" style="enable-background:new 0 0 30 30;" version="1.1" viewBox="0 0 30 30" xml:space="preserve" xmlns="http://www.w3.org/2000/svg" xmlns:xlink="http://www.w3.org/1999/xlink"><path d="M29.398,26.844c-0.14-0.175-0.392-0.201-0.562-0.063c-0.488,0.389-0.935,0.549-1.314,0.483  c-0.339-0.061-0.635-0.297-0.895-0.594c-0.004-0.005-0.009-0.009-0.014-0.014c-0.269-0.312-0.497-0.69-0.688-1.008  c-0.112-0.186-0.213-0.352-0.305-0.48c-0.512-0.72-1.14-1.095-1.866-1.113c-0.935-0.002-1.807,0.586-2.399,1.103  c-0.093-0.637-0.36-1.425-0.828-2.441l-0.205-0.45c-1.035-2.28-2.104-4.636-5.196-3.839c-0.62,0.161-1.092,0.485-1.426,0.948  c-0.299-1.114,0.3-2.556,1.819-4.312c0.735-0.849,1.19-1.66,1.444-2.435c0.021-0.011,0.046-0.007,0.066-0.023l1.457-1.16  c0.301,0.064,0.604,0.104,0.904,0.104c2.313,0,4.471-1.676,4.562-1.748c4.329-3.024,4.041-8.582,4.026-8.817  c-0.011-0.172-0.13-0.318-0.297-0.362c-0.166-0.042-0.342,0.023-0.437,0.167c-0.017,0.025-1.694,2.542-4.26,3.184  c-2.887,0.722-4.242,2.938-4.588,4.134c-0.283,0.984-0.482,2.559-0.511,2.793l-0.688,0.547c0.121-1.617-0.586-3.062-1.441-4.346  c0.709-1.854-0.598-3.77-0.643-3.832C13.29,0.265,9.085,0.498,8.91,0.509C8.739,0.521,8.594,0.64,8.549,0.806  s0.022,0.342,0.166,0.437c0.017,0.011,1.628,1.099,1.82,2.746c0.239,2.048,1.801,2.997,2.685,3.235  c0.586,0.158,1.481,0.272,1.866,0.316c1.151,1.727,1.74,3.332,1.025,5.117c-0.036-0.017-0.071-0.034-0.112-0.04l-1.714-0.242  c-0.142-0.186-1.113-1.443-1.858-2.148C11.522,9.371,9.23,8.149,6.377,8.99C3.849,9.738,1.118,8.421,1.09,8.408  C0.934,8.331,0.749,8.363,0.629,8.486c-0.121,0.123-0.15,0.309-0.072,0.462c0.107,0.21,2.678,5.146,7.92,5.553  c0.052,0.007,0.482,0.063,1.105,0.063c1.214,0,3.15-0.224,4.457-1.417l1.705,0.241c-0.219,0.374-0.49,0.756-0.831,1.151  c-1.463,1.692-2.147,3.168-2.085,4.423c-0.379,0.405-1.472,1.724-1.493,3.492c-0.015,1.302,0.555,2.535,1.694,3.667  c1.589,1.579,3.155,2.03,4.426,2.03c1.686,0,2.854-0.794,2.874-0.808c0.028-0.019,0.046-0.046,0.067-0.07  c0.183-0.099,0.351-0.213,0.495-0.354c0.121,0.396,0.325,0.839,0.631,1.338c0.075,0.123,0.207,0.191,0.341,0.191  c0.071,0,0.144-0.02,0.209-0.06c0.188-0.115,0.247-0.361,0.132-0.55c-0.674-1.102-0.68-1.63-0.609-1.824  c0.515-0.504,1.369-1.158,2.139-1.164c0.468,0.012,0.871,0.267,1.234,0.776c0.082,0.115,0.171,0.265,0.271,0.431  c0.179,0.296,0.398,0.654,0.664,0.986c-0.023,0.365-0.053,1.29,0.159,2.148c0.046,0.183,0.209,0.305,0.389,0.305  c0.031,0,0.063-0.004,0.096-0.012c0.215-0.054,0.346-0.271,0.293-0.484c-0.103-0.414-0.138-0.855-0.147-1.225  c0.208,0.13,0.436,0.228,0.687,0.274c0.105,0.019,0.212,0.028,0.319,0.028c0.525,0,1.074-0.226,1.635-0.674  C29.508,27.268,29.536,27.016,29.398,26.844z M19.165,8.328c0.298-1.031,1.478-2.946,4.012-3.58c1.794-0.449,3.168-1.671,3.964-2.55  c-0.154,1.729-0.832,4.979-3.667,6.96c-0.024,0.019-2.066,1.587-4.105,1.583l1.553-1.236l2.27-0.387  c0.218-0.037,0.364-0.244,0.327-0.462c-0.037-0.217-0.24-0.368-0.462-0.327l-0.837,0.143l1.834-1.459  c0.173-0.138,0.201-0.389,0.063-0.562c-0.137-0.174-0.391-0.202-0.562-0.064l-1.947,1.549l0.16-0.443  c0.075-0.208-0.032-0.437-0.24-0.512c-0.21-0.076-0.438,0.033-0.512,0.241l-0.6,1.664l-1.622,1.291  C18.881,9.602,19.012,8.858,19.165,8.328z M11.33,3.895c-0.128-1.101-0.738-1.972-1.28-2.545c1.273,0.131,3.338,0.62,4.394,2.356  c0.012,0.017,1.095,1.59,0.617,3.024c-0.411-0.05-1.156-0.151-1.633-0.28C12.738,6.265,11.52,5.518,11.33,3.895z M8.563,13.706  c-3.423-0.266-5.655-2.723-6.667-4.135c1.131,0.354,2.935,0.71,4.708,0.187c2.505-0.738,4.494,0.312,5.273,1.05  c0.401,0.379,0.89,0.954,1.258,1.404l-2.053-0.29l-1.361-1.13c-0.17-0.141-0.421-0.118-0.563,0.052  c-0.141,0.17-0.118,0.422,0.052,0.563l0.363,0.301l-2.464-0.348c-0.219-0.039-0.421,0.121-0.452,0.34s0.122,0.421,0.34,0.452  l2.319,0.327l-0.793,0.302c-0.207,0.079-0.311,0.31-0.232,0.516c0.061,0.16,0.213,0.258,0.374,0.258  c0.047,0,0.095-0.008,0.142-0.026l2.151-0.818l1.968,0.278C11.169,14.034,8.611,13.711,8.563,13.706z M12.134,22.471  c0.011-1.066,0.514-1.963,0.909-2.507c0.059,0.136,0.141,0.265,0.222,0.394c-0.218,0.924-0.094,2.11,0.394,3.557  c0.555,1.643,1.969,2.835,3.344,3.425c-1.005-0.107-2.188-0.571-3.411-1.787C12.614,24.582,12.124,23.545,12.134,22.471z   M19.158,26.907c-1.113,0.338-3.954-0.915-4.742-3.248c-0.544-1.61-0.61-2.87-0.192-3.643c0.224-0.415,0.585-0.682,1.102-0.815  c0.346-0.09,0.658-0.133,0.942-0.133c1.629,0,2.361,1.402,3.325,3.527l0.207,0.453c0.708,1.54,0.94,2.539,0.71,3.055  C20.343,26.479,19.888,26.683,19.158,26.907z"/></svg>