<?xml version="1.0" ?><svg id="Layer_1" style="enable-background:new 0 0 30 30;" version="1.1" viewBox="0 0 30 30" xml:space="preserve" xmlns="http://www.w3.org/2000/svg" xmlns:xlink="http://www.w3.org/1999/xlink"><style type="text/css">
	.st0{fill:none;stroke:#000000;stroke-miterlimit:10;}
	.st1{fill:none;stroke:#000000;stroke-width:0.8;stroke-linecap:round;stroke-linejoin:round;stroke-miterlimit:10;}
</style><g><path class="st0" d="M19.612,27.617"/><g><g><path class="st1" d="M15.168,28.15c0,0,0.212-0.93,0.229-1.248c0.003-0.064-0.007-0.129-0.007-0.194v-4.263     c0-1.21,0.86-2.2,1.911-2.2h3.703c1.051,0,1.911,0.99,1.911,2.2c0,0-0.107,3.205,0,4.263c0.037,0.368,0.295,1.442,0.295,1.442"/><path class="st1" d="M16.763,20.455c0.192,1.52,0.304,3.334,0.304,5.283c0,0.783-0.018,1.543-0.052,2.272"/><path class="st1" d="M18.408,20.244c0.192,1.601,0.304,3.512,0.304,5.565c0,0.824-0.018,1.626-0.052,2.394"/><path class="st1" d="M20.408,20.244c-0.192,1.626-0.304,3.568-0.304,5.653c0,0.837,0.018,1.652,0.052,2.432"/><path class="st1" d="M21.663,20.584c-0.192,1.533-0.304,3.362-0.304,5.328c0,0.789,0.018,1.556,0.052,2.291"/><line class="st1" x1="18.979" x2="18.979" y1="20.004" y2="17.305"/><polyline class="st1" points="19.714,5.663 19.714,17.079 18.244,17.079 18.244,5.663    "/><path class="st1" d="M22.419,1.482v0.817c0,1.85-1.514,3.363-3.363,3.363h0c-1.85,0-3.363-1.514-3.363-3.363V1.482L22.419,1.482z     "/></g><rect class="st1" height="0.849" width="2.322" x="17.895" y="1.057"/></g><path class="st1" d="M6.791,24.983v-3.519c0-1.124,0.786-2.044,1.746-2.044h3.383c0.96,0,1.746,0.92,1.746,2.044   c0,0-0.079,2.411-0.024,3.61l0.024,1.036l-3.438,2.833l-3.431-2.845L6.791,24.983z"/><g><line class="st1" x1="10.342" x2="10.342" y1="19.419" y2="16.836"/><polyline class="st1" points="11.049,5.695 11.049,16.62 9.634,16.62 9.634,5.695   "/><path class="st1" d="M13.656,1.694v0.782c0,1.77-1.458,3.219-3.24,3.219h0c-1.782,0-3.24-1.448-3.24-3.219V1.693L13.656,1.694z"/><rect class="st1" height="0.813" width="2.237" x="9.297" y="1.287"/></g></g></svg>