<?xml version="1.0" ?><!DOCTYPE svg  PUBLIC '-//W3C//DTD SVG 1.1//EN'  'http://www.w3.org/Graphics/SVG/1.1/DTD/svg11.dtd'><svg enable-background="new 0 0 1000 1000" id="Layer_1" version="1.1" viewBox="0 0 1000 1000" xml:space="preserve" xmlns="http://www.w3.org/2000/svg" xmlns:xlink="http://www.w3.org/1999/xlink"><g><g><g><path d="M500,789c-77.2,0-149.8-30.1-204.4-84.6C241.1,649.8,211,577.2,211,500s30.1-149.8,84.6-204.4      C350.2,241.1,422.8,211,500,211s149.8,30.1,204.4,84.6C758.9,350.2,789,422.8,789,500s-30.1,149.8-84.6,204.4      C649.8,758.9,577.2,789,500,789z M500,251c-137.3,0-249,111.7-249,249s111.7,249,249,249s249-111.7,249-249S637.3,251,500,251z"/></g><g><rect height="40" transform="matrix(0.9656 -0.2602 0.2602 0.9656 -90.8339 113.8552)" width="76.9" x="346.2" y="380"/></g><g><rect height="76.9" transform="matrix(0.2602 -0.9655 0.9655 0.2602 69.0368 890.1058)" width="40" x="595.4" y="361.6"/></g><g><path d="M593.8,682.6c-12,0-24.9-5.5-38.4-11.3c-16.8-7.2-35.9-15.3-55.5-15.3c-19.6,0-38.6,8.2-55.5,15.3      c-20.4,8.7-39.7,17-56.4,6c-14.8-9.7-16.5-28.3-16.5-41.3c0-70.8,57.6-128.3,128.3-128.3S628.3,565.3,628.3,636      c0,13.1-1.7,31.6-16.5,41.3C606.1,681.1,600.1,682.6,593.8,682.6z M500,616c27.7,0,51.8,10.3,71.2,18.6      c5.4,2.3,12.1,5.2,16.9,6.8c0.1-1.4,0.2-3.2,0.2-5.3c0-48.7-39.6-88.3-88.3-88.3s-88.3,39.6-88.3,88.3c0,2.2,0.1,3.9,0.2,5.3      c4.9-1.6,11.6-4.5,16.9-6.8C448.2,626.3,472.3,616,500,616z"/></g></g></g></svg>