<?xml version="1.0" ?><!DOCTYPE svg  PUBLIC '-//W3C//DTD SVG 1.1//EN'  'http://www.w3.org/Graphics/SVG/1.1/DTD/svg11.dtd'><svg enable-background="new 0 0 66 66" id="Layer_1" version="1.1" viewBox="0 0 66 66" xml:space="preserve" xmlns="http://www.w3.org/2000/svg" xmlns:xlink="http://www.w3.org/1999/xlink"><g><g><rect fill="#EBF0F3" height="64" width="64" x="1" y="1"/><rect fill="#D5D6DB" height="8" width="64" x="1" y="57"/></g><g><path d="M28.2,29.1c7.9-2.3,14.5,2.4,14.5,2.4l-5.5,1.5L35.7,30c-1.5-0.3-3.2-0.4-5-0.1l3.7,7.5l16-4.6    c0,0-5.8-9.1-23.2-6.2c-0.1,0-0.2,0-0.3,0.1l-1.7-3.4l-5,0.6l2,4.2c-10.5,4.3-5.9,14.6-5.9,14.6L32.6,38L28.2,29.1z M20.9,37.4    c0,0-1.5-3.4,3-6.3l2.4,4.9L20.9,37.4z" fill="#2F4859" id="da"/></g></g></svg>