<?xml version="1.0" ?><!DOCTYPE svg  PUBLIC '-//W3C//DTD SVG 1.1//EN'  'http://www.w3.org/Graphics/SVG/1.1/DTD/svg11.dtd'><svg enable-background="new 0 0 66 66" id="Layer_1" version="1.1" viewBox="0 0 66 66" xml:space="preserve" xmlns="http://www.w3.org/2000/svg" xmlns:xlink="http://www.w3.org/1999/xlink"><g><g><rect fill="#FCD462" height="64" width="64" x="1" y="1"/><rect fill="#F6C358" height="8" width="64" x="1" y="57"/></g><path d="M45.8,15.5c0,0-26.2,0-26.2,0c-2.2,0-4.1,1.9-4.1,4.1l0,0c0,0,0,26.9,0,26.9   c0,2.3,1.8,4.1,4.1,4.1c0,0,26.8,0,26.8,0c2.2-0.1,4.1-1.9,4.1-4.1c0,0,0-26.8,0-26.8C50.5,17.4,48,15.6,45.8,15.5z M33,26.6   c3.5,0,6.4,2.9,6.4,6.4c0,3.5-2.9,6.4-6.4,6.4c-3.5,0-6.4-2.9-6.4-6.4C26.6,29.5,29.5,26.6,33,26.6z M45.8,43.5   c0,1.3-1,2.3-2.3,2.3H33H22.5c-1.3,0-2.3-1-2.3-2.3V30.1h2.8C22.7,31,22.5,32,22.5,33c0,5.8,4.7,10.5,10.5,10.5S43.5,38.8,43.5,33   c0-1-0.2-2-0.4-2.9h2.8V43.5z M45.8,21.3v3.5h0c0,0.6-0.5,1.1-1.1,1.1v0h-3.5c-0.6,0-1.1-0.5-1.2-1.1h0v-3.5h0c0,0,0,0,0,0   c0-0.6,0.5-1.2,1.2-1.2h3.5v0C45.3,20.2,45.8,20.7,45.8,21.3C45.8,21.3,45.8,21.3,45.8,21.3L45.8,21.3z" fill="#DC8744" id="camera"/></g></svg>