<?xml version="1.0" ?><!DOCTYPE svg  PUBLIC '-//W3C//DTD SVG 1.1//EN'  'http://www.w3.org/Graphics/SVG/1.1/DTD/svg11.dtd'><svg enable-background="new 0 0 66 66" id="Layer_1" version="1.1" viewBox="0 0 66 66" xml:space="preserve" xmlns="http://www.w3.org/2000/svg" xmlns:xlink="http://www.w3.org/1999/xlink"><g><g><rect fill="#64798A" height="64" width="64" x="1" y="1"/><rect fill="#3A556A" height="8" width="64" x="1" y="57"/></g><g><path d="M50.2,24.4l-2.7-2.7c-0.2-0.2-0.5-0.3-0.8-0.3c-0.3,0-0.6,0.1-0.8,0.3L32.8,34.7L27,29    c-0.2-0.2-0.5-0.3-0.8-0.3c-0.3,0-0.6,0.1-0.8,0.3l-2.7,2.7c-0.5,0.4-0.5,1.2,0,1.6l9.2,9.3c0.2,0.2,0.4,0.3,0.7,0.3    c0,0,0.1,0,0.1,0c0,0,0,0,0,0h0c0.3,0,0.6-0.1,0.8-0.3L50.2,26C50.6,25.6,50.6,24.9,50.2,24.4z" fill="#FFFFFF"/><path d="M49.1,30l-14,14.1c-0.6,0.6-1.4,0.9-2.3,0.9h-0.6l-0.1-0.1c-0.6-0.1-1.1-0.4-1.5-0.9l-9.2-9.3    c-0.6-0.6-0.9-1.4-0.9-2.3c0-0.9,0.3-1.7,0.9-2.3l2.7-2.7c0.6-0.6,1.4-0.9,2.3-0.9c0.8,0,1.7,0.3,2.3,0.9l4.3,4.3l9.1-9.1l-6-6    c-1.6-1.6-4.2-1.6-5.8,0L16.7,30.1c-1.6,1.6-1.6,4.2,0,5.8L30,49.3c1.6,1.6,4.2,1.6,5.8,0l13.3-13.3C50.8,34.3,50.8,31.7,49.1,30    L49.1,30z" fill="#FFFFFF" id="WTF_1_"/></g></g></svg>