<?xml version="1.0" ?><!DOCTYPE svg  PUBLIC '-//W3C//DTD SVG 1.1//EN'  'http://www.w3.org/Graphics/SVG/1.1/DTD/svg11.dtd'><svg enable-background="new 0 0 66 66" id="Layer_1" version="1.1" viewBox="0 0 66 66" xml:space="preserve" xmlns="http://www.w3.org/2000/svg" xmlns:xlink="http://www.w3.org/1999/xlink"><g><g><rect fill="#64798A" height="64" width="64" x="1" y="1"/><rect fill="#3A556A" height="8" width="64" x="1" y="57"/></g><g><path d="M33,15.5c-9.7,0-17.5,7.8-17.5,17.5c0,3.3,0.9,6.4,2.5,9l-2.5,5l5.8-1c3.1,2.8,7.2,4.5,11.7,4.5    c9.7,0,17.5-7.8,17.5-17.5C50.5,23.3,42.7,15.5,33,15.5z M34.2,41.2h-7V24.8h7c6,0,8.2,3.3,8.2,8.2C42.3,37.9,40.2,41.2,34.2,41.2    z" fill="#FFFFFF"/><path d="M34.2,28.3h-3.5v9.3h3.5c2.8,0,4.7-1.9,4.7-4.7C38.8,30.3,36.9,28.3,34.2,28.3z" fill="#FFFFFF"/></g></g></svg>