<?xml version="1.0" ?><!DOCTYPE svg  PUBLIC '-//W3C//DTD SVG 1.1//EN'  'http://www.w3.org/Graphics/SVG/1.1/DTD/svg11.dtd'><svg enable-background="new 0 0 66 66" id="Layer_1" version="1.1" viewBox="0 0 66 66" xml:space="preserve" xmlns="http://www.w3.org/2000/svg" xmlns:xlink="http://www.w3.org/1999/xlink"><g><g><rect fill="#64798A" height="64" width="64" x="1" y="1"/><rect fill="#3A556A" height="8" width="64" x="1" y="57"/></g><g><path d="M46.6,21.3c-0.3-1.4-1.6-2.1-2.3-2.3c-0.8-0.3-1.4-0.9-3.5-1.2c-1.7-0.2-4.6,1.1-5.8,1.2    c-0.1-1-0.4-2.6-1.2-2.9c-2-0.8-5.2-0.6-6-0.4c-0.6,0.2-1.4,0.5-1.8,1.1c-0.3,0.4-0.4,0.9-0.4,1.5c0,0.4,0,1.3,0,2.1    c0,0.8,0,1.5,0,1.5c0,0.7-0.4,1.7-1.1,1.7h-3.5c-0.7,0-2.3,0-2.6,0.6c-0.4,0.6,0.8,11.1,1.7,13c0.4,0.8,0.6,1.1,1.3,1.4    c1.6,0.7,4.8,1.1,6.6,1.3c1.2,0,3.5,0,4.1-1.1c0.6-1.7,0.6-3.2,0.6-4.2c0-0.1,0.2-0.1,0.2,0c0,0.8,0,3.5,2.1,4.2    c0.8,0.3,7-1.2,7,4.7c0,2.4-0.9,3.5-3.5,3.5c-2.1,0-3.5-0.7-3.5-2.3c0-1.4,1.3-1.2,2.3-1.2c0.4,0,0-0.3,0-1.2c0-0.8,0.5-1.2,0-1.2    c-3.5-0.1-4.7,0-4.7,4.7c0,3.9,0.9,4.7,5.8,4.7c3.9,0,5.4,0.2,7-4.7c0.3-1,1.9-4.4,2.3-9.3C48,33.4,47,23.7,46.6,21.3L46.6,21.3z     M37.2,31.8c0.1-1,0.9-2.4,2.3-2.3c1.6,0.1,2.3,1.2,2.3,2.3C40.7,30.7,37.2,31.8,37.2,31.8z M20.7,22.3L20.7,22.3h3.3    c0.2,0,0.3-0.2,0.3-0.3c0,0,0-2.8,0-3.6v0c0-0.6,0.1-1.2,0.4-1.7l0.1-0.2c0,0,0,0,0,0l-6.4,6.3c0,0,0,0,0,0    c0.1-0.1,0.3-0.2,0.3-0.2C19.3,22.4,19.9,22.3,20.7,22.3L20.7,22.3z" fill="#FFFFFF" id="elephant_1_"/></g></g></svg>