<?xml version="1.0" ?><!DOCTYPE svg  PUBLIC '-//W3C//DTD SVG 1.1//EN'  'http://www.w3.org/Graphics/SVG/1.1/DTD/svg11.dtd'><svg enable-background="new 0 0 66 66" id="Layer_1" version="1.1" viewBox="0 0 66 66" xml:space="preserve" xmlns="http://www.w3.org/2000/svg" xmlns:xlink="http://www.w3.org/1999/xlink"><g><g><rect fill="#44C4A1" height="64" width="64" x="1" y="1"/><rect fill="#3EA69B" height="8" width="64" x="1" y="57"/></g><g><polygon fill="#FFFFFF" id="y_2_" points="40.6,29.4 42.7,29.4 45.6,35.3 48.7,29.4 50.5,29.4 45.1,40 43.1,40 44.7,37.1   "/><path d="M41.6,35.2c0-1.2,0-2.3,0-3c0-0.9,0-3-3.8-3.2c0,0-3.6-0.3-4,2.4h1.9c0,0,0.1-1.2,2-1.2    c1.8,0,2.1,0.9,2.1,2c0,0-1.5,0-2,0c-0.9,0-4.1,0.1-4.4,2.1c-0.4,2.3,1.7,3.1,3.4,3.1c1.6,0,2.6-0.5,3.3-1.4l0.1,1.1l1.6,0    C41.6,37.1,41.6,36.5,41.6,35.2z M37,36.2c0,0-1.8,0-1.9-1.4c-0.1-1.5,2.7-1.4,2.7-1.4l2,0C39.8,33.4,40.1,36.3,37,36.2z" fill="#FFFFFF" id="a_2_"/><path d="M29.2,29.1c-2.2,0-3.1,1.3-3.1,1.3V26h-1.8l0,9.3c0,0,0,1.1-0.1,1.8H26l0.1-1    c0,0,0.8,1.3,3.1,1.3c2.3,0,4.2-1.4,4.2-4.1C33.5,30.6,31.4,29.1,29.2,29.1z M28.8,36.2c-2.8,0-2.7-2.9-2.7-2.9s-0.1-2.9,2.7-2.9    c2.8-0.1,2.7,3,2.7,3S31.6,36.1,28.8,36.2z" fill="#FFFFFF" id="b_2_"/><path d="M20,29.1c-4.4,0-4.5,3.4-4.5,4.3c0,0-0.2,4,4.4,4c4,0,4.2-2.5,4.2-2.5l-1.8,0    c0,0-0.4,1.4-2.3,1.3c-2.5,0-2.6-2.5-2.6-2.5h7.1C24.3,33.7,24.9,29.1,20,29.1z M17.3,32.5c0,0,0.1-2.2,2.6-2.2    c2.5,0,2.5,2.2,2.5,2.2H17.3z" fill="#FFFFFF" id="e_2_"/></g></g></svg>