<?xml version="1.0" ?><!DOCTYPE svg  PUBLIC '-//W3C//DTD SVG 1.1//EN'  'http://www.w3.org/Graphics/SVG/1.1/DTD/svg11.dtd'><svg height="512px" style="enable-background:new 0 0 512 512;" version="1.1" viewBox="0 0 512 512" width="512px" xml:space="preserve" xmlns="http://www.w3.org/2000/svg" xmlns:xlink="http://www.w3.org/1999/xlink"><g id="drive__x2C__google__x2C__social"><g><g><g><path d="M117.984,374.923      c0.287-0.459-62.887-38.535-62.545-39.083c0.068-0.109,42.623,23.272,42.623,23.272l-46.785-29.234      c0,0,37.229,20.07,37.242,20.049c0.023-0.037-40.571-25.352-40.571-25.352c0.043-0.068,34.564,18.299,34.564,18.299      s-37.391-22.617-37.055-23.154l29.508,14.749c0,0-33.322-20.308-33.091-20.678c0,0,28.548,15.726,29.001,15.001      c0,0-31.677-18.913-31.281-19.547l26.7,12.547c0.551-0.883-28.085-17.55-28.085-17.55c0.364-0.581,24.031,11.145,24.031,11.145      s-26.625-16.612-26.613-16.63l23.26,10.828L33.225,293.55c0.363-0.582,23.688,11.448,23.688,11.448      c0.243-0.39-24.794-15.236-24.679-15.421c0.367-0.588,23.199,11.45,23.223,11.411c0.169-0.271-24.038-15.021-24.038-15.021      c0.059-0.094,21.794,10.559,22.204,9.902l-24.005-15c0.297-0.477,20.99,10.447,21.405,9.783      c0.085-0.135-22.28-13.922-22.28-13.922s20.308,8.302,20.314,8.291l-20-12.497c0,0,19.546,8.7,19.887,8.155      c0.431-0.689-21.253-12.604-20.949-13.09c0.305-0.488,19.113,7.678,19.459,7.123l-19.724-12.325      c0.177-0.282,18.537,6.995,18.537,6.995l-19.682-12.298c0,0,17.299,7.758,17.62,7.244c0.26-0.416-17.89-11.119-17.863-11.162      c0,0,18.064,8.28,18.328,7.858c0.063-0.1-18.34-10.78-18.034-11.269c0,0,17.229,6.232,17.472,5.844      c0,0-18.582-10.733-18.188-11.365c0.141-0.225,17.709,7.242,17.709,7.242c0.224-0.359-17.047-10.193-16.841-10.523      c0.267-0.428,16.522,6.444,16.702,6.156c0.357-0.571-16.864-9.958-16.603-10.375c0.157-0.251,17.06,7.298,17.217,7.047      c0.361-0.578-17.307-10.251-17.054-10.656l16.508,5.9c0,0-17.105-9.949-16.773-10.481l16.722,6.532      c0,0-16.328-9.466-15.997-9.996c0.168-0.269,17.415,6.352,17.415,6.352c0.025-0.041-16.206-9.64-15.987-9.99      c0.135-0.216,15.753,5.225,15.753,5.225s-16.144-9.93-16.073-10.043c0.039-0.062,16.994,7.326,17.219,6.966l-14.952-9.343      c0,0,15.264,5.235,15.282,5.206l-15.028-9.391c0.018-0.029,15.083,6.676,15.232,6.438c0.331-0.528-15.559-9.39-15.41-9.629      c0,0,17.288,6.349,17.611,5.832c0.044-0.071-15.076-9.161-14.959-9.348c0.201-0.322,15.199,4.93,15.219,4.898      c0.182-0.291-15.245-9.397-15.187-9.49c0.081-0.13,16.105,5.2,16.105,5.2c0.291-0.466-14.625-9.139-14.625-9.139      s16.603,6.425,16.934,5.895l-14.728-9.203c0,0,15.149,5.109,15.384,4.733c0.263-0.42-14.771-9.23-14.771-9.23l15.641,6.511      l-14.245-8.901l16.193,6.543c0.126-0.202-14.215-8.883-14.215-8.883s14.797,4.361,14.817,4.328c0,0-12.941-7.838-12.829-8.017      l15.117,4.453c0.303-0.484-14.468-8.478-14.215-8.883c0,0,15.203,5.391,15.26,5.299c0,0-13.822-8.572-13.793-8.619      c0.123-0.196,16.201,5.07,16.201,5.07s-13.929-8.333-13.762-8.6c0.203-0.325,16.197,5.048,16.197,5.048      c0.083-0.133-14.575-8.731-14.405-9.001c0.104-0.167,15.032,5.316,15.326,4.847c0.159-0.255-13.77-8.604-13.77-8.604      s15.134,6.155,15.227,6.005c0,0-12.825-7.573-12.627-7.89c0,0,14.084,5.004,14.23,4.771c0,0-13.044-7.8-12.886-8.052      l14.645,5.273l-13.108-8.191c0,0,15.625,5.931,15.854,5.564c0,0-13.326-7.901-13.135-8.208      c0.021-0.034,14.949,6.366,14.991,6.299c0.061-0.098-13.553-8.426-13.534-8.457c0,0,14.358,6.132,14.524,5.866      c0.24-0.384-13.088-8.178-13.088-8.178l14.123,5.491l-13.094-8.183l16.149,5.573c0.258-0.413-12.087-7.553-12.087-7.553      c0.25-0.401,15.067,5.599,15.067,5.599l-13.92-8.698l14.294,5.58l-12.749-7.966l15.289,4.801      c0.092-0.147-13.099-8.186-13.099-8.186s14.97,6.489,15.121,6.248c0.106-0.171-12.731-7.955-12.731-7.955l14.592,5.378      c0.032-0.05-11.694-7.307-11.694-7.307c0.141-0.225,13.937,5.672,14.106,5.402c0.248-0.396-13.046-8.152-13.046-8.152      c0.303-0.484,15.502,5.12,15.502,5.12c0.03-0.047-13.227-8.265-13.227-8.265c0.033-0.053,16.435,5.76,16.565,5.551      c0.043-0.069-13.374-7.796-13.122-8.2c0.154-0.246,15.087,5.999,15.239,5.756c0.282-0.451-12.216-7.634-12.216-7.634      c0.089-0.144,15.734,4.88,15.734,4.88c0.018-0.029-12.461-7.787-12.461-7.787s15.788,6.031,16.091,5.544      c0.028-0.044-14.292-8.93-14.292-8.93s17.137,6.611,17.396,6.197c0.18-0.288-13.662-8.537-13.662-8.537      c0.085-0.137,15.586,6.105,15.586,6.105l-12.691-7.931c0.101-0.162,15.122,5.232,15.122,5.232s-12.483-7.475-12.337-7.709      c0.206-0.329,16.116,4.884,16.116,4.884s-14.076-8.573-13.976-8.733c0.009-0.015,16.38,6.081,16.38,6.081l-12.863-8.038      c0,0,16.603,5.896,16.866,5.474c0.229-0.366-13.593-8.494-13.593-8.494c0.209-0.334,16.659,5.665,16.659,5.665      s-12.236-7.391-12.122-7.575c0,0,15.595,6.04,15.76,5.775c0.175-0.281-13.119-8.198-13.119-8.198      c0.022-0.036,17.357,6.657,17.357,6.657c0.021-0.032-13.728-8.578-13.728-8.578c0.001-0.002,15.738,5.523,15.839,5.361      c0,0-13.158-8.119-13.111-8.193c0.296-0.474,17.678,6.88,17.832,6.633c0.071-0.113-13.403-8.375-13.403-8.375      c0.183-0.292,16.9,5.504,16.948,5.426c0.224-0.358-13.469-8.371-13.449-8.404c0.119-0.19,15.783,7.032,15.908,6.833      c0,0-14.104-8.595-14.006-8.752c0.006-0.01,17.235,7.202,17.235,7.202l-13.45-8.404l16.42,6.442      c0.301-0.482-14.28-8.923-14.28-8.923c0.167-0.267,19.175,8.004,19.185,7.987c0.127-0.204-14.566-8.954-14.5-9.06      c0.134-0.214,17.716,7.231,17.748,7.182c0.106-0.17-14.537-8.675-14.353-8.969c0.189-0.303,17.588,7.477,17.799,7.139      l-14.908-9.315c0.176-0.283,19.372,7.34,19.405,7.288c0,0-14.402-8.969-14.389-8.991c0.09-0.144,17.989,7.88,18.32,7.351      c0.122-0.195-15.567-9.728-15.567-9.728s18.81,8.756,19.055,8.364c0.233-0.373-15.099-9.435-15.099-9.435      c0.024-0.039,17.761,7.798,17.761,7.798c0.185-0.296-14.566-9.103-14.566-9.103l19.521,7.764      c0.304-0.487-15.645-9.776-15.645-9.776l20.452,7.592l-15.809-9.878l18.567,8.101c0.259-0.414-14.998-9.372-14.998-9.372      c0.245-0.393,21.11,8.792,21.11,8.792c0.334-0.535-16.806-9.712-16.451-10.28c0,0,19.859,8.239,19.889,8.19      c0.368-0.589-15.753-9.843-15.753-9.843l22.016,9.333c0.238-0.381-18.141-11.231-18.094-11.306      c0.063-0.102,20.57,9.46,20.663,9.313c0,0-15.708-9.433-15.536-9.708l21.271,9.575c0.339-0.542-17.698-10.438-17.419-10.885      c0.374-0.598,21.405,9.844,21.405,9.844c0.037-0.058-18.437-10.946-18.178-11.359c0.107-0.171,22.197,9.869,22.197,9.869      l-17.019-10.634c0.266-0.425,20.998,9.711,20.998,9.711c0.226-0.361-18.168-10.513-17.791-11.117      c0.13-0.208,23.757,11.701,24.104,11.146c0.138-0.22-19.96-12.472-19.96-12.472c0.421-0.674,23.286,11.396,23.286,11.396      c0.255-0.408-19.024-11.342-18.779-11.734c0.182-0.291,25.152,11.415,25.393,11.029c0,0-20.65-12.192-20.33-12.704      c0,0,27.23,12.914,27.655,12.233c0,0-21.317-12.405-20.905-13.063c0.245-0.393,27.716,13.541,28.132,12.876      c0.235-0.377-21.272-13.292-21.272-13.292S267.122,57,267.554,56.31c0.022-0.038-22.297-13.317-22.021-13.76l26.365,13.404      c0,0-21.938-13.093-21.662-13.536c0.514-0.823,27.804,13.775,27.804,13.775c0.514-0.823-24.05-15.028-24.05-15.028l33.76,16.128      c0.08-0.128-25.954-15.542-25.65-16.028c0.637-1.02,33.269,16.798,33.269,16.798s-27.43-16.38-27.089-16.927      c0.646-1.033,37.523,18.332,37.523,18.332c0.627-1.003-29.732-18.579-29.732-18.579c0.017-0.026,36.384,20.939,37.112,19.774      c0.32-0.514-31.159-19.47-31.159-19.47l39.81,20.971c0.002-0.003-33.242-20.772-33.242-20.772s46.072,24.807,46.313,24.421      c0.226-0.361-39.54-22.814-38.688-24.176c0,0,53.012,30.1,53.343,29.57c0.86-1.377-46.352-28.028-45.932-28.701      c0.67-1.073,66.124,38.162,66.124,38.162c0.929-1.486-59.097-36.927-59.097-36.927" style="fill:none;stroke:#231F20;stroke-width:2;stroke-linecap:round;stroke-linejoin:round;"/><path d="M133.96,403.17      c0.291-0.465-25.909-15.439-25.572-15.979c0.95-1.521,58.859,31.746,58.859,31.746c0.549-0.879-86.928-53.516-86.567-54.094      c0,0,97.554,60.066,98.534,58.498c0.778-1.244-106.059-66.272-106.059-66.272s122.314,72.817,122.939,71.817      c1.971-3.153-132.605-82.86-132.605-82.86c2.931-4.69,143.271,85.184,143.271,85.184S54.609,341.034,56.811,337.511      c0,0,157.837,100.905,160.728,96.278c0,0-49.783-30.589-49.55-30.962l58.661,32.854c0.337-0.538-42.935-25.533-42.353-26.465      c0,0,48.666,28.539,49.345,27.452c0.632-1.012-38.127-23.824-38.127-23.824l44.597,24.617c0,0-35.019-20.738-34.505-21.562      c0,0,42.86,23.495,43.38,22.664c0.311-0.498-32.259-19.373-31.906-19.938c0.009-0.015,38.004,20.546,38.004,20.546      s-31.235-18.488-30.773-19.229c0.544-0.87,38.07,20.487,38.413,19.939c0.122-0.195-28.877-17.239-28.516-17.818l36.696,18.061      c0.05-0.08-27.615-16.571-27.307-17.063c0,0,35.285,17.025,35.309,16.985c0,0-24.991-15.417-24.901-15.56      c0,0,31.759,16.843,32.336,15.918c0,0-25.861-15.661-25.638-16.02c0.415-0.665,30.543,15.019,30.543,15.019      c0.452-0.724-22.62-13.935-22.53-14.078c0.471-0.753,28.985,14.445,28.985,14.445c0.177-0.282-24.82-14.611-24.416-15.257      c0,0,29.894,14.608,30.389,13.815c0.247-0.396-21.784-13.612-21.784-13.612c0.573-0.919,28.01,14.701,28.592,13.771      c0.398-0.638-22.871-13.217-22.388-13.989c0.266-0.426,27.642,12.596,27.82,12.31l-20.401-12.748      c0.079-0.127,26.495,12.68,26.71,12.336c0.381-0.61-20.461-12.605-20.38-12.735c0,0,24.244,12.211,24.468,11.853      c0,0-20.228-12.101-19.985-12.488c0.101-0.161,23.808,11.533,24.062,11.126c0.438-0.701-20.084-12.549-20.084-12.549      c0.301-0.481,26.45,12.596,26.938,11.814c0.361-0.578-20.409-12.489-20.29-12.679c0.06-0.095,24.425,10.672,24.578,10.427      l-18.043-11.274l24.983,10.442c0.234-0.376-18.738-11.709-18.738-11.709c0.443-0.71,22.896,10.215,22.896,10.215      s-18.639-11.633-18.633-11.643l22.983,9.257c0.327-0.523-18.381-11.078-18.197-11.371c0.16-0.257,24.09,10.059,24.09,10.059      c0.28-0.449-17.924-11.2-17.924-11.2c0.176-0.281,20.51,9.067,20.51,9.067s-16.262-9.922-16.154-10.095l19.979,8.434      l-16.497-10.309c0,0,18.999,9.416,19.329,8.887c0,0-16.271-9.562-15.999-9.997c0.288-0.462,20.661,9.171,20.808,8.937      l-17.848-11.152c0,0,21.617,9.547,21.902,9.091c0.321-0.514-17.547-10.965-17.547-10.965c0.067-0.106,20.48,9.394,20.48,9.394      c0.341-0.545-16.557-10.346-16.557-10.346c0.029-0.047,19.369,7.749,19.591,7.395c0.293-0.469-15.752-9.842-15.752-9.842      s20.411,8.502,20.574,8.24c0,0-16.923-10.325-16.811-10.505l18.711,8.091c0.166-0.266-14.84-9.272-14.84-9.272      s18.956,8.921,19.269,8.42l-16.285-10.177c0.272-0.436,19.145,8.051,19.145,8.051s-16.578-9.794-16.324-10.2      c0,0,18.731,8.466,18.92,8.164c0,0-16.951-9.974-16.674-10.419l20.874,8.063c0.008-0.013-16.655-10.407-16.655-10.407      c0.113-0.182,18.965,7.819,18.997,7.768l-16.394-10.243c0.108-0.174,18.429,7.925,18.723,7.454c0,0-15.261-8.793-14.927-9.327      c0,0,18.114,7.278,18.341,6.916l-14.704-9.188l16.977,7.33c0,0-15.508-9.069-15.229-9.516c0,0,17.91,7.013,18.155,6.62      c0.156-0.25-15.423-9.597-15.405-9.626c0.093-0.148,18.608,6.927,18.608,6.927s-15.371-9.378-15.27-9.541l18.228,8.241      c0.004-0.008-16.301-10.169-16.293-10.182c0.09-0.143,18.292,7.572,18.292,7.572s-14.449-8.905-14.394-8.994      c0,0,16.384,6.385,16.682,5.909c0,0-15.219-9.325-15.136-9.457c0,0,17.251,7.122,17.509,6.71c0,0-14.801-8.858-14.626-9.14      c0.015-0.023,17.459,7.912,17.642,7.619c0.224-0.358-15.428-9.641-15.428-9.641c0.128-0.204,16.651,5.896,16.651,5.896      c0.323-0.518-14.665-9.164-14.665-9.164c0.037-0.06,17.524,6.887,17.625,6.726c0.052-0.083-14.971-9.354-14.971-9.354      c0.194-0.311,17.248,7.198,17.571,6.682c0.279-0.446-14.393-8.993-14.393-8.993s15.848,6.703,16.049,6.382l-15.148-9.466      c0.326-0.522,17.826,7.394,17.936,7.219c0,0-16.419-9.719-16.176-10.107l17.892,6.146c0.102-0.162-14.708-8.932-14.592-9.117      c0,0,16.052,6.14,16.076,6.101c0,0-13.62-7.962-13.373-8.357c0,0,16.557,6.607,16.886,6.081      c0.069-0.112-15.059-8.874-14.818-9.26c0.182-0.29,15.44,4.942,15.44,4.942c0.189-0.304-13.741-8.586-13.741-8.586      s15.532,6.365,15.582,6.285l-15.037-9.396c0.116-0.187,17.227,5.701,17.227,5.701s-14.492-8.326-14.164-8.851      c0.138-0.22,15.964,4.92,15.964,4.92c0.203-0.325-13.81-8.629-13.81-8.629c0.13-0.208,15.077,6.199,15.077,6.199      s-14.457-8.783-14.345-8.963c0,0,15.934,6.055,16.032,5.897c0.019-0.029-14.022-8.122-13.735-8.582      c0,0,16.038,6.136,16.117,6.009c0.236-0.378-14.657-9.158-14.657-9.158c0.179-0.286,16.061,5.352,16.061,5.352      c0.147-0.236-14.041-8.773-14.041-8.773c0.271-0.434,14.634,5.97,14.854,5.616c0.231-0.37-15.303-9.033-15.064-9.414      c0,0,17.329,6.159,17.488,5.905c0.072-0.115-14.889-8.909-14.712-9.193l16.856,6.038c0.034-0.055-16.203-9.603-15.968-9.979      c0.105-0.169,15.989,6.005,15.989,6.005s-14.254-8.343-14-8.748l14.527,5.884c0.243-0.389-14.132-8.831-14.132-8.831      c0.292-0.467,16.248,6.573,16.248,6.573s-16.428-10.116-16.361-10.224c0.064-0.103,17.315,7.575,17.422,7.405l-15.217-9.51      c0,0,15.775,6.816,16.02,6.425c0.053-0.083-16.143-9.482-15.871-9.917c0.318-0.51,16.675,6.761,16.675,6.761      c0.175-0.279-15.785-9.863-15.785-9.863c0.22-0.352,15.483,6.858,15.671,6.558l-15.415-9.633      c0.11-0.176,17.679,7.653,17.708,7.605c0.179-0.286-17.183-10.03-16.865-10.539c0,0,16.782,7.939,17.029,7.546      c0.184-0.294-16.353-10.218-16.353-10.218l16.327,5.177c0.101-0.161-14.816-8.539-14.492-9.057      c0.082-0.131,15.453,5.621,15.453,5.621c0.292-0.468-16.413-10.255-16.413-10.255c0.095-0.151,18.268,7.171,18.268,7.171      s-17.948-10.519-17.635-11.02l17.119,6.135c0,0-15.627-9.392-15.459-9.66l15.813,4.908l-15.057-9.408      c0,0,15.973,6.372,16.157,6.075l-16.57-10.354c0.116-0.187,17.046,7.1,17.046,7.1l-16.219-10.134      c0.266-0.424,16.176,5.895,16.176,5.895l-16.678-10.422c0,0,17.481,6.372,17.572,6.226c0.109-0.175-17.889-11.178-17.889-11.178      c0.023-0.037,17.484,8.256,17.764,7.808l-16.825-10.514c0,0,17.177,7.457,17.254,7.333c0.135-0.215-17.426-10.889-17.426-10.889      c0.117-0.189,16.833,6.754,16.997,6.492c0.251-0.401-17.204-10.75-17.204-10.75s17.063,7.99,17.37,7.499      c0.267-0.426-18.834-11.769-18.834-11.769s18.069,7.819,18.141,7.705c0.061-0.096-18.787-11.329-18.603-11.624      c0.346-0.554,18.713,8.217,19.027,7.713l-19.282-12.049c0.252-0.404,18.519,7.251,18.563,7.181l-18.531-11.58l18.182,8.007      c0.178-0.284-18.618-11.634-18.618-11.634s17.663,7.438,17.856,7.129c0,0-19.054-10.995-18.645-11.65      c0,0,18.348,8.095,18.635,7.635c0.029-0.047-21.078-12.19-20.638-12.896c0,0,19.235,9.515,19.571,8.977      c0.367-0.588-19.946-12.463-19.946-12.463l20.11,8.432c0,0-21.454-13.148-21.338-13.333c0.208-0.333,19.118,7.818,19.118,7.818      l-21.141-13.21l19.861,8.782c0,0-21.837-13.134-21.607-13.502c0.099-0.157,20.205,10.042,20.62,9.379      c0.363-0.582-21.957-13.72-21.957-13.72l20.772,9.219c0.189-0.303-23.052-14.404-23.052-14.404l22.394,10.845      c0.127-0.203-24.694-15.431-24.694-15.431l23.094,10.519l-25.549-15.965l23.233,9.914c0.356-0.57-26.566-16.6-26.566-16.6      l23.871,10.658l-27.279-17.046c0.056-0.089,25.663,11.824,25.663,11.824s-31.015-19.178-30.924-19.324      c0.496-0.793,28.427,13.653,28.438,13.637c0,0-34.008-19.971-33.433-20.891c0.614-0.984,30.538,15.416,30.576,15.354      c0,0-35.57-21.388-35.193-21.991c0.648-1.038,31.079,17.124,31.571,16.336l-38.319-23.945l35.606,19.09      c0.082-0.131-42.716-26.573-42.663-26.659c0,0,38.012,19.799,38.176,19.538c0,0-56.86-35.106-56.669-35.411      c0.68-1.088,51.36,27.845,51.36,27.845c1.707-2.732-126.906-79.3-126.906-79.3l121.827,72.346L329.87,47.926l105.292,62.226      c0.516-0.826-95.977-57.933-95.06-59.399c0,0,84.513,51.121,85.506,49.532c0.062-0.099-72.061-45.028-72.061-45.028      s54.369,30.949,54.87,30.148l-33.883-21.173" style="fill:none;stroke:#231F20;stroke-width:2;stroke-linecap:round;stroke-linejoin:round;"/><path d="M185.862,332.677      c0.008-0.012-0.298-0.166-0.289-0.181c0.126-0.201,8.839,0.49,8.839,0.49c0.043-0.069-7.49-4.617-7.462-4.662      c0,0,11.998,4.669,12.108,4.493c0.075-0.121-9.992-6.244-9.992-6.244s18.346,6.651,18.432,6.514      c0.237-0.38-15.945-9.964-15.945-9.964c0.411-0.657,21.536,9.116,21.536,9.116s-20.059-11.855-19.754-12.344      c0,0,26.503,13.429,26.963,12.692c0,0-25.674-15.772-25.553-15.967l32.025,16.212c0.239-0.383-30.32-18.027-29.908-18.688      c0,0,34.819,19.443,35.299,18.676c0.564-0.902-33.923-21.198-33.923-21.198l38.908,21.062c0,0-37.5-22.209-36.95-23.089      c0,0,44.083,24.293,44.619,23.438c0.414-0.663-43.249-25.98-42.779-26.731c0.012-0.02,48.193,26.913,48.193,26.913      s-47.749-28.275-47.047-29.398c0.782-1.25,54.019,30.788,54.512,30c0.218-0.349-52.369-31.288-51.724-32.32l59.962,32.599      c0.106-0.17-59.066-35.459-58.415-36.501c0,0,66.819,36.781,66.867,36.704c0,0-64.024-39.514-63.803-39.868      c0,0,70.896,42.975,72.227,40.846c0,0-71.845-43.499-71.218-44.502c1.085-1.737,77.226,44.189,77.226,44.189      c1.41-2.258-74.647-46.022-74.367-46.47c1.379-2.207,82.17,47.679,82.17,47.679c0.603-0.964-83.205-48.922-81.825-51.13      c0,0,88.21,53.354,89.742,50.903c0.949-1.519-86.854-54.272-86.854-54.272c2.003-3.206,93.707,58.978,95.737,55.729      c1.684-2.694-96.054-55.481-94.014-58.747c1.029-1.646,101.519,59.902,102.211,58.795l-96.348-60.205      c0.328-0.525,104.477,62.912,105.368,61.487c1.795-2.873-98.478-60.685-98.095-61.297c0,0,103.326,63.349,104.324,61.752      c0,0-99.955-59.867-98.79-61.731c0.447-0.716,100.668,61.513,101.799,59.703c2.096-3.355-96.626-60.379-96.626-60.379      c1.18-1.889,98.181,60.593,100.096,57.529c1.66-2.658-92.123-56.354-91.579-57.225c0.239-0.383,92.131,54.001,92.744,53.021      l-84.004-52.491l87.822,49.707c0.978-1.563-78.881-49.29-78.881-49.29c1.646-2.634,80.701,46.337,80.701,46.337      s-74.301-46.376-74.277-46.414l75.88,42.31c1.214-1.943-68.735-41.435-68.054-42.524c0.502-0.804,71.357,39.595,71.357,39.595      c0.964-1.541-61.862-38.655-61.862-38.655c0.564-0.903,62.659,35.405,62.659,35.405s-55.959-34.197-55.613-34.751l57.519,31.891      l-51.129-31.949c0,0,51.617,31.149,52.555,29.649c0,0-47.553-28.043-46.801-29.245c0.723-1.157,49.555,27.718,49.922,27.129      l-43.636-27.267c0,0,45.162,25.01,45.784,24.014c0.695-1.113-37.501-23.434-37.501-23.434      c0.132-0.21,39.165,21.069,39.165,21.069c0.653-1.046-32.171-20.103-32.171-20.103c0.052-0.082,33.066,16.688,33.458,16.061      c0.459-0.735-25.247-15.776-25.247-15.776s28.204,13.522,28.436,13.152c0,0-20.296-12.382-20.16-12.598l20.947,9.489      c0.152-0.242-13.389-8.366-13.389-8.366s16.433,7.245,16.701,6.815l-10.012-6.256c0.154-0.247,11.302,3.149,11.302,3.149      s-4.358-2.573-4.291-2.682" style="fill:none;stroke:#231F20;stroke-width:2;stroke-linecap:round;stroke-linejoin:round;"/><path d="M171.989,326.2      c0.012-0.02-0.73-0.425-0.716-0.447c0.064-0.103,3.546-2.817,3.546-2.817c0.066-0.105-11.057-6.813-11.013-6.882      c0,0,12.044,4.699,12.155,4.522c0.116-0.186-15.554-9.72-15.554-9.72s18.203,6.561,18.288,6.425      c0.369-0.591-24.783-15.486-24.783-15.486c0.491-0.785,25.422,11.544,25.422,11.544s-32.264-19.092-31.784-19.86      c0,0,33.499,18.087,34.088,17.145c0,0-40.713-25.015-40.522-25.32l42.441,22.719c0.377-0.603-48.148-28.635-47.497-29.679      c0,0,48.164,28.21,48.836,27.134c0.811-1.298-49.077-30.666-49.077-30.666l50.167,28.097c0,0-48.928-28.991-48.217-30.129      c0,0,49.954,28.126,50.563,27.151c0.47-0.753-49.267-29.6-48.734-30.452c0.013-0.021,50.172,28.149,50.172,28.149      s-49.765-29.47-49.034-30.64c0.735-1.177,50.915,28.783,51.378,28.041c0.205-0.327-49.222-29.405-48.614-30.377l50.717,26.822      c0.089-0.144-49.749-29.865-49.2-30.743c0,0,51.216,27.005,51.252,26.947c0,0-48.387-29.861-48.218-30.131      c0,0,50.143,29.118,51.074,27.628c0,0-50.531-30.596-50.091-31.3c0.705-1.127,50.727,27.631,50.727,27.631      c0.921-1.475-48.077-29.635-47.894-29.928c0.843-1.35,50.852,28.109,50.852,28.109c0.37-0.593-51.376-30.217-50.528-31.574      c0,0,50.745,28.461,51.61,27.076c0.539-0.861-48.753-30.464-48.753-30.464c1.073-1.717,50.972,30.175,52.059,28.435      c0.896-1.435-51.216-29.587-50.13-31.325c0.505-0.809,50.915,27.497,51.254,26.953l-48.755-30.466      c0.158-0.253,51.277,28.643,51.706,27.955c0.91-1.456-49.651-30.593-49.457-30.904c0,0,50.416,29.133,50.896,28.366      c0,0-49.905-29.881-49.319-30.818c0.219-0.35,50.035,28.586,50.587,27.702c1.084-1.735-49.915-31.19-49.915-31.19      c0.617-0.987,52.285,29.88,53.285,28.279c0.913-1.461-50.845-31.106-50.546-31.585c0.13-0.208,51.279,27.856,51.614,27.321      l-48.824-30.509l52.54,27.662c0.619-0.99-49.85-31.15-49.85-31.15c1.04-1.664,51.59,28.145,51.59,28.145      s-50.129-31.289-50.114-31.314l51.646,27.167c0.894-1.43-50.518-30.452-50.017-31.254c0.371-0.593,53.252,28.281,53.252,28.281      c0.781-1.25-50.109-31.312-50.109-31.312c0.456-0.729,50.856,28.029,50.856,28.029s-48.879-29.868-48.576-30.354l50.413,27.45      l-49.175-30.728c0,0,49.643,29.834,50.544,28.393c0,0-49.631-29.271-48.848-30.524c0.753-1.205,51.512,28.975,51.895,28.362      l-50.942-31.833c0,0,52.283,29.687,53.007,28.527c0.946-1.514-50.852-31.776-50.852-31.776      c0.178-0.285,52.455,29.373,52.455,29.373c1.01-1.617-49.999-31.242-49.999-31.242c0.081-0.128,50.586,28.124,51.198,27.145      c0.883-1.413-49.448-30.898-49.448-30.898s52.111,28.926,52.552,28.221c0,0-50.948-31.078-50.607-31.623l51.33,28.474      c0.507-0.812-48.817-30.505-48.817-30.505s51.176,30.333,52.063,28.913l-50.446-31.522c0.78-1.248,52.028,28.598,52.028,28.598      s-51.285-30.301-50.5-31.556c0,0,49.613,28.507,50.136,27.671c0,0-49.918-29.337-49.084-30.671l43.325,22.091      c0.021-0.033-40.672-25.415-40.672-25.415c0.216-0.345,34.77,17.759,34.831,17.662l-33.367-20.85      c0.163-0.261,26.952,13.58,27.394,12.873c0,0-25.317-14.617-24.776-15.482c0,0,18.708,7.667,18.942,7.292l-16.434-10.269      l12.042,4.247c0,0-11.257-6.578-11.052-6.906c0,0,4.518-1.761,4.581-1.862c0.032-0.05-2.972-1.848-2.968-1.854" style="fill:none;stroke:#231F20;stroke-width:2;stroke-linecap:round;stroke-linejoin:round;"/><path d="M307.459,267.472      c0.022-0.036-0.633-0.337-0.606-0.379c0.149-0.239,10.435,1.487,10.435,1.487c0.104-0.166-17.041-10.496-16.973-10.605      c0,0,21.946,11.109,22.157,10.772c0.183-0.292-24.647-15.402-24.647-15.402s33.797,16.483,33.962,16.22      c0.58-0.928-38.979-24.357-38.979-24.357c0.901-1.442,45.329,23.984,45.329,23.984s-50.805-30.086-50.059-31.28      c0,0,57.031,33.759,58.055,32.12c0,0-63.486-39.009-63.189-39.484l70.388,40.183c0.588-0.939-75.271-44.776-74.255-46.4      c0,0,79.175,48.58,80.293,46.791c1.387-2.219-84.242-52.64-84.242-52.64l89.848,52.892c0,0-94.361-55.956-93.01-58.119      c0,0,100.299,61.003,101.545,59.009c1.021-1.633-108.02-64.924-106.862-66.775c0.027-0.044,108.811,64.792,108.811,64.792      s-114.644-67.918-112.973-70.593c1.603-2.564,108.979,66.283,109.989,64.666c0.475-0.759-115.356-68.955-113.951-71.204      l109.488,63.547c0.21-0.336-117.319-70.445-116.032-72.504c0,0,111.156,64.558,111.237,64.429      c0,0-117.272-72.386-116.871-73.029c0,0,111.821,70.301,113.939,66.911c0,0-121.505-73.562-120.444-75.262      c1.636-2.618,115.502,68.108,115.502,68.108c2.251-3.602-120.216-74.127-119.771-74.841      c1.985-3.176,117.535,69.776,117.535,69.776c0.913-1.461-125.708-73.898-123.617-77.244c0,0,115.357,71.392,117.372,68.167      c1.243-1.99-114.2-71.36-114.2-71.36c2.343-3.75,109.33,69.508,111.705,65.707c1.897-3.036-108.213-62.503-105.914-66.183      c1.004-1.607,99.176,58.401,99.852,57.32l-92.568-57.843c0.276-0.442,88.325,52.508,89.076,51.307      c1.516-2.426-83.06-51.182-82.736-51.7c0,0,78.323,47.18,79.076,45.975c0,0-75.156-45.01-74.278-46.415      c0.304-0.486,68.979,40.906,69.748,39.675c1.42-2.272-65.413-40.875-65.413-40.875c0.714-1.141,60.183,35.165,61.34,33.312      c0.973-1.555-54.106-33.102-53.788-33.611c0.118-0.191,47.024,25.133,47.33,24.644l-39.709-24.813l35.379,16.937      c0.344-0.551-27.624-17.262-27.624-17.262c0.444-0.712,22.993,10.277,22.993,10.277s-17.515-10.932-17.509-10.941l11.063,1.81      c0.082-0.132-4.48-2.697-4.434-2.771" style="fill:none;stroke:#231F20;stroke-width:2;stroke-linecap:round;stroke-linejoin:round;"/></g><g><path d="M117.984,374.923      c0.287-0.459-62.887-38.535-62.545-39.083c0.068-0.109,42.623,23.272,42.623,23.272l-46.785-29.234      c0,0,37.229,20.07,37.242,20.049c0.023-0.037-40.571-25.352-40.571-25.352c0.043-0.068,34.564,18.299,34.564,18.299      s-37.391-22.617-37.055-23.154l29.508,14.749c0,0-33.322-20.308-33.091-20.678c0,0,28.548,15.726,29.001,15.001      c0,0-31.677-18.913-31.281-19.547l26.7,12.547c0.551-0.883-28.085-17.55-28.085-17.55c0.364-0.581,24.031,11.145,24.031,11.145      s-26.625-16.612-26.613-16.63l23.26,10.828L33.225,293.55c0.363-0.582,23.688,11.448,23.688,11.448      c0.243-0.39-24.794-15.236-24.679-15.421c0.367-0.588,23.199,11.45,23.223,11.411c0.169-0.271-24.038-15.021-24.038-15.021      c0.059-0.094,21.794,10.559,22.204,9.902l-24.005-15c0.297-0.477,20.99,10.447,21.405,9.783      c0.085-0.135-22.28-13.922-22.28-13.922s20.308,8.302,20.314,8.291l-20-12.497c0,0,19.546,8.7,19.887,8.155      c0.431-0.689-21.253-12.604-20.949-13.09c0.305-0.488,19.113,7.678,19.459,7.123l-19.724-12.325      c0.177-0.282,18.537,6.995,18.537,6.995l-19.682-12.298c0,0,17.299,7.758,17.62,7.244c0.26-0.416-17.89-11.119-17.863-11.162      c0,0,18.064,8.28,18.328,7.858c0.063-0.1-18.34-10.78-18.034-11.269c0,0,17.229,6.232,17.472,5.844      c0,0-18.582-10.733-18.188-11.365c0.141-0.225,17.709,7.242,17.709,7.242c0.224-0.359-17.047-10.193-16.841-10.523      c0.267-0.428,16.522,6.444,16.702,6.156c0.357-0.571-16.864-9.958-16.603-10.375c0.157-0.251,17.06,7.298,17.217,7.047      c0.361-0.578-17.307-10.251-17.054-10.656l16.508,5.9c0,0-17.105-9.949-16.773-10.481l16.722,6.532      c0,0-16.328-9.466-15.997-9.996c0.168-0.269,17.415,6.352,17.415,6.352c0.025-0.041-16.206-9.64-15.987-9.99      c0.135-0.216,15.753,5.225,15.753,5.225s-16.144-9.93-16.073-10.043c0.039-0.062,16.994,7.326,17.219,6.966l-14.952-9.343      c0,0,15.264,5.235,15.282,5.206l-15.028-9.391c0.018-0.029,15.083,6.676,15.232,6.438c0.331-0.528-15.559-9.39-15.41-9.629      c0,0,17.288,6.349,17.611,5.832c0.044-0.071-15.076-9.161-14.959-9.348c0.201-0.322,15.199,4.93,15.219,4.898      c0.182-0.291-15.245-9.397-15.187-9.49c0.081-0.13,16.105,5.2,16.105,5.2c0.291-0.466-14.625-9.139-14.625-9.139      s16.603,6.425,16.934,5.895l-14.728-9.203c0,0,15.149,5.109,15.384,4.733c0.263-0.42-14.771-9.23-14.771-9.23l15.641,6.511      l-14.245-8.901l16.193,6.543c0.126-0.202-14.215-8.883-14.215-8.883s14.797,4.361,14.817,4.328c0,0-12.941-7.838-12.829-8.017      l15.117,4.453c0.303-0.484-14.468-8.478-14.215-8.883c0,0,15.203,5.391,15.26,5.299c0,0-13.822-8.572-13.793-8.619      c0.123-0.196,16.201,5.07,16.201,5.07s-13.929-8.333-13.762-8.6c0.203-0.325,16.197,5.048,16.197,5.048      c0.083-0.133-14.575-8.731-14.405-9.001c0.104-0.167,15.032,5.316,15.326,4.847c0.159-0.255-13.77-8.604-13.77-8.604      s15.134,6.155,15.227,6.005c0,0-12.825-7.573-12.627-7.89c0,0,14.084,5.004,14.23,4.771c0,0-13.044-7.8-12.886-8.052      l14.645,5.273l-13.108-8.191c0,0,15.625,5.931,15.854,5.564c0,0-13.326-7.901-13.135-8.208      c0.021-0.034,14.949,6.366,14.991,6.299c0.061-0.098-13.553-8.426-13.534-8.457c0,0,14.358,6.132,14.524,5.866      c0.24-0.384-13.088-8.178-13.088-8.178l14.123,5.491l-13.094-8.183l16.149,5.573c0.258-0.413-12.087-7.553-12.087-7.553      c0.25-0.401,15.067,5.599,15.067,5.599l-13.92-8.698l14.294,5.58l-12.749-7.966l15.289,4.801      c0.092-0.147-13.099-8.186-13.099-8.186s14.97,6.489,15.121,6.248c0.106-0.171-12.731-7.955-12.731-7.955l14.592,5.378      c0.032-0.05-11.694-7.307-11.694-7.307c0.141-0.225,13.937,5.672,14.106,5.402c0.248-0.396-13.046-8.152-13.046-8.152      c0.303-0.484,15.502,5.12,15.502,5.12c0.03-0.047-13.227-8.265-13.227-8.265c0.033-0.053,16.435,5.76,16.565,5.551      c0.043-0.069-13.374-7.796-13.122-8.2c0.154-0.246,15.087,5.999,15.239,5.756c0.282-0.451-12.216-7.634-12.216-7.634      c0.089-0.144,15.734,4.88,15.734,4.88c0.018-0.029-12.461-7.787-12.461-7.787s15.788,6.031,16.091,5.544      c0.028-0.044-14.292-8.93-14.292-8.93s17.137,6.611,17.396,6.197c0.18-0.288-13.662-8.537-13.662-8.537      c0.085-0.137,15.586,6.105,15.586,6.105l-12.691-7.931c0.101-0.162,15.122,5.232,15.122,5.232s-12.483-7.475-12.337-7.709      c0.206-0.329,16.116,4.884,16.116,4.884s-14.076-8.573-13.976-8.733c0.009-0.015,16.38,6.081,16.38,6.081l-12.863-8.038      c0,0,16.603,5.896,16.866,5.474c0.229-0.366-13.593-8.494-13.593-8.494c0.209-0.334,16.659,5.665,16.659,5.665      s-12.236-7.391-12.122-7.575c0,0,15.595,6.04,15.76,5.775c0.175-0.281-13.119-8.198-13.119-8.198      c0.022-0.036,17.357,6.657,17.357,6.657c0.021-0.032-13.728-8.578-13.728-8.578c0.001-0.002,15.738,5.523,15.839,5.361      c0,0-13.158-8.119-13.111-8.193c0.296-0.474,17.678,6.88,17.832,6.633c0.071-0.113-13.403-8.375-13.403-8.375      c0.183-0.292,16.9,5.504,16.948,5.426c0.224-0.358-13.469-8.371-13.449-8.404c0.119-0.19,15.783,7.032,15.908,6.833      c0,0-14.104-8.595-14.006-8.752c0.006-0.01,17.235,7.202,17.235,7.202l-13.45-8.404l16.42,6.442      c0.301-0.482-14.28-8.923-14.28-8.923c0.167-0.267,19.175,8.004,19.185,7.987c0.127-0.204-14.566-8.954-14.5-9.06      c0.134-0.214,17.716,7.231,17.748,7.182c0.106-0.17-14.537-8.675-14.353-8.969c0.189-0.303,17.588,7.477,17.799,7.139      l-14.908-9.315c0.176-0.283,19.372,7.34,19.405,7.288c0,0-14.402-8.969-14.389-8.991c0.09-0.144,17.989,7.88,18.32,7.351      c0.122-0.195-15.567-9.728-15.567-9.728s18.81,8.756,19.055,8.364c0.233-0.373-15.099-9.435-15.099-9.435      c0.024-0.039,17.761,7.798,17.761,7.798c0.185-0.296-14.566-9.103-14.566-9.103l19.521,7.764      c0.304-0.487-15.645-9.776-15.645-9.776l20.452,7.592l-15.809-9.878l18.567,8.101c0.259-0.414-14.998-9.372-14.998-9.372      c0.245-0.393,21.11,8.792,21.11,8.792c0.334-0.535-16.806-9.712-16.451-10.28c0,0,19.859,8.239,19.889,8.19      c0.368-0.589-15.753-9.843-15.753-9.843l22.016,9.333c0.238-0.381-18.141-11.231-18.094-11.306      c0.063-0.102,20.57,9.46,20.663,9.313c0,0-15.708-9.433-15.536-9.708l21.271,9.575c0.339-0.542-17.698-10.438-17.419-10.885      c0.374-0.598,21.405,9.844,21.405,9.844c0.037-0.058-18.437-10.946-18.178-11.359c0.107-0.171,22.197,9.869,22.197,9.869      l-17.019-10.634c0.266-0.425,20.998,9.711,20.998,9.711c0.226-0.361-18.168-10.513-17.791-11.117      c0.13-0.208,23.757,11.701,24.104,11.146c0.138-0.22-19.96-12.472-19.96-12.472c0.421-0.674,23.286,11.396,23.286,11.396      c0.255-0.408-19.024-11.342-18.779-11.734c0.182-0.291,25.152,11.415,25.393,11.029c0,0-20.65-12.192-20.33-12.704      c0,0,27.23,12.914,27.655,12.233c0,0-21.317-12.405-20.905-13.063c0.245-0.393,27.716,13.541,28.132,12.876      c0.235-0.377-21.272-13.292-21.272-13.292S267.122,57,267.554,56.31c0.022-0.038-22.297-13.317-22.021-13.76l26.365,13.404      c0,0-21.938-13.093-21.662-13.536c0.514-0.823,27.804,13.775,27.804,13.775c0.514-0.823-24.05-15.028-24.05-15.028l33.76,16.128      c0.08-0.128-25.954-15.542-25.65-16.028c0.637-1.02,33.269,16.798,33.269,16.798s-27.43-16.38-27.089-16.927      c0.646-1.033,37.523,18.332,37.523,18.332c0.627-1.003-29.732-18.579-29.732-18.579c0.017-0.026,36.384,20.939,37.112,19.774      c0.32-0.514-31.159-19.47-31.159-19.47l39.81,20.971c0.002-0.003-33.242-20.772-33.242-20.772s46.072,24.807,46.313,24.421      c0.226-0.361-39.54-22.814-38.688-24.176c0,0,53.012,30.1,53.343,29.57c0.86-1.377-46.352-28.028-45.932-28.701      c0.67-1.073,66.124,38.162,66.124,38.162c0.929-1.486-59.097-36.927-59.097-36.927" style="fill:none;stroke:#262626;stroke-width:2;stroke-linecap:round;stroke-linejoin:round;"/><path d="M133.96,403.17      c0.291-0.465-25.909-15.439-25.572-15.979c0.95-1.521,58.859,31.746,58.859,31.746c0.549-0.879-86.928-53.516-86.567-54.094      c0,0,97.554,60.066,98.534,58.498c0.778-1.244-106.059-66.272-106.059-66.272s122.314,72.817,122.939,71.817      c1.971-3.153-132.605-82.86-132.605-82.86c2.931-4.69,143.271,85.184,143.271,85.184S54.609,341.034,56.811,337.511      c0,0,157.837,100.905,160.728,96.278c0,0-49.783-30.589-49.55-30.962l58.661,32.854c0.337-0.538-42.935-25.533-42.353-26.465      c0,0,48.666,28.539,49.345,27.452c0.632-1.012-38.127-23.824-38.127-23.824l44.597,24.617c0,0-35.019-20.738-34.505-21.562      c0,0,42.86,23.495,43.38,22.664c0.311-0.498-32.259-19.373-31.906-19.938c0.009-0.015,38.004,20.546,38.004,20.546      s-31.235-18.488-30.773-19.229c0.544-0.87,38.07,20.487,38.413,19.939c0.122-0.195-28.877-17.239-28.516-17.818l36.696,18.061      c0.05-0.08-27.615-16.571-27.307-17.063c0,0,35.285,17.025,35.309,16.985c0,0-24.991-15.417-24.901-15.56      c0,0,31.759,16.843,32.336,15.918c0,0-25.861-15.661-25.638-16.02c0.415-0.665,30.543,15.019,30.543,15.019      c0.452-0.724-22.62-13.935-22.53-14.078c0.471-0.753,28.985,14.445,28.985,14.445c0.177-0.282-24.82-14.611-24.416-15.257      c0,0,29.894,14.608,30.389,13.815c0.247-0.396-21.784-13.612-21.784-13.612c0.573-0.919,28.01,14.701,28.592,13.771      c0.398-0.638-22.871-13.217-22.388-13.989c0.266-0.426,27.642,12.596,27.82,12.31l-20.401-12.748      c0.079-0.127,26.495,12.68,26.71,12.336c0.381-0.61-20.461-12.605-20.38-12.735c0,0,24.244,12.211,24.468,11.853      c0,0-20.228-12.101-19.985-12.488c0.101-0.161,23.808,11.533,24.062,11.126c0.438-0.701-20.084-12.549-20.084-12.549      c0.301-0.481,26.45,12.596,26.938,11.814c0.361-0.578-20.409-12.489-20.29-12.679c0.06-0.095,24.425,10.672,24.578,10.427      l-18.043-11.274l24.983,10.442c0.234-0.376-18.738-11.709-18.738-11.709c0.443-0.71,22.896,10.215,22.896,10.215      s-18.639-11.633-18.633-11.643l22.983,9.257c0.327-0.523-18.381-11.078-18.197-11.371c0.16-0.257,24.09,10.059,24.09,10.059      c0.28-0.449-17.924-11.2-17.924-11.2c0.176-0.281,20.51,9.067,20.51,9.067s-16.262-9.922-16.154-10.095l19.979,8.434      l-16.497-10.309c0,0,18.999,9.416,19.329,8.887c0,0-16.271-9.562-15.999-9.997c0.288-0.462,20.661,9.171,20.808,8.937      l-17.848-11.152c0,0,21.617,9.547,21.902,9.091c0.321-0.514-17.547-10.965-17.547-10.965c0.067-0.106,20.48,9.394,20.48,9.394      c0.341-0.545-16.557-10.346-16.557-10.346c0.029-0.047,19.369,7.749,19.591,7.395c0.293-0.469-15.752-9.842-15.752-9.842      s20.411,8.502,20.574,8.24c0,0-16.923-10.325-16.811-10.505l18.711,8.091c0.166-0.266-14.84-9.272-14.84-9.272      s18.956,8.921,19.269,8.42l-16.285-10.177c0.272-0.436,19.145,8.051,19.145,8.051s-16.578-9.794-16.324-10.2      c0,0,18.731,8.466,18.92,8.164c0,0-16.951-9.974-16.674-10.419l20.874,8.063c0.008-0.013-16.655-10.407-16.655-10.407      c0.113-0.182,18.965,7.819,18.997,7.768l-16.394-10.243c0.108-0.174,18.429,7.925,18.723,7.454c0,0-15.261-8.793-14.927-9.327      c0,0,18.114,7.278,18.341,6.916l-14.704-9.188l16.977,7.33c0,0-15.508-9.069-15.229-9.516c0,0,17.91,7.013,18.155,6.62      c0.156-0.25-15.423-9.597-15.405-9.626c0.093-0.148,18.608,6.927,18.608,6.927s-15.371-9.378-15.27-9.541l18.228,8.241      c0.004-0.008-16.301-10.169-16.293-10.182c0.09-0.143,18.292,7.572,18.292,7.572s-14.449-8.905-14.394-8.994      c0,0,16.384,6.385,16.682,5.909c0,0-15.219-9.325-15.136-9.457c0,0,17.251,7.122,17.509,6.71c0,0-14.801-8.858-14.626-9.14      c0.015-0.023,17.459,7.912,17.642,7.619c0.224-0.358-15.428-9.641-15.428-9.641c0.128-0.204,16.651,5.896,16.651,5.896      c0.323-0.518-14.665-9.164-14.665-9.164c0.037-0.06,17.524,6.887,17.625,6.726c0.052-0.083-14.971-9.354-14.971-9.354      c0.194-0.311,17.248,7.198,17.571,6.682c0.279-0.446-14.393-8.993-14.393-8.993s15.848,6.703,16.049,6.382l-15.148-9.466      c0.326-0.522,17.826,7.394,17.936,7.219c0,0-16.419-9.719-16.176-10.107l17.892,6.146c0.102-0.162-14.708-8.932-14.592-9.117      c0,0,16.052,6.14,16.076,6.101c0,0-13.62-7.962-13.373-8.357c0,0,16.557,6.607,16.886,6.081      c0.069-0.112-15.059-8.874-14.818-9.26c0.182-0.29,15.44,4.942,15.44,4.942c0.189-0.304-13.741-8.586-13.741-8.586      s15.532,6.365,15.582,6.285l-15.037-9.396c0.116-0.187,17.227,5.701,17.227,5.701s-14.492-8.326-14.164-8.851      c0.138-0.22,15.964,4.92,15.964,4.92c0.203-0.325-13.81-8.629-13.81-8.629c0.13-0.208,15.077,6.199,15.077,6.199      s-14.457-8.783-14.345-8.963c0,0,15.934,6.055,16.032,5.897c0.019-0.029-14.022-8.122-13.735-8.582      c0,0,16.038,6.136,16.117,6.009c0.236-0.378-14.657-9.158-14.657-9.158c0.179-0.286,16.061,5.352,16.061,5.352      c0.147-0.236-14.041-8.773-14.041-8.773c0.271-0.434,14.634,5.97,14.854,5.616c0.231-0.37-15.303-9.033-15.064-9.414      c0,0,17.329,6.159,17.488,5.905c0.072-0.115-14.889-8.909-14.712-9.193l16.856,6.038c0.034-0.055-16.203-9.603-15.968-9.979      c0.105-0.169,15.989,6.005,15.989,6.005s-14.254-8.343-14-8.748l14.527,5.884c0.243-0.389-14.132-8.831-14.132-8.831      c0.292-0.467,16.248,6.573,16.248,6.573s-16.428-10.116-16.361-10.224c0.064-0.103,17.315,7.575,17.422,7.405l-15.217-9.51      c0,0,15.775,6.816,16.02,6.425c0.053-0.083-16.143-9.482-15.871-9.917c0.318-0.51,16.675,6.761,16.675,6.761      c0.175-0.279-15.785-9.863-15.785-9.863c0.22-0.352,15.483,6.858,15.671,6.558l-15.415-9.633      c0.11-0.176,17.679,7.653,17.708,7.605c0.179-0.286-17.183-10.03-16.865-10.539c0,0,16.782,7.939,17.029,7.546      c0.184-0.294-16.353-10.218-16.353-10.218l16.327,5.177c0.101-0.161-14.816-8.539-14.492-9.057      c0.082-0.131,15.453,5.621,15.453,5.621c0.292-0.468-16.413-10.255-16.413-10.255c0.095-0.151,18.268,7.171,18.268,7.171      s-17.948-10.519-17.635-11.02l17.119,6.135c0,0-15.627-9.392-15.459-9.66l15.813,4.908l-15.057-9.408      c0,0,15.973,6.372,16.157,6.075l-16.57-10.354c0.116-0.187,17.046,7.1,17.046,7.1l-16.219-10.134      c0.266-0.424,16.176,5.895,16.176,5.895l-16.678-10.422c0,0,17.481,6.372,17.572,6.226c0.109-0.175-17.889-11.178-17.889-11.178      c0.023-0.037,17.484,8.256,17.764,7.808l-16.825-10.514c0,0,17.177,7.457,17.254,7.333c0.135-0.215-17.426-10.889-17.426-10.889      c0.117-0.189,16.833,6.754,16.997,6.492c0.251-0.401-17.204-10.75-17.204-10.75s17.063,7.99,17.37,7.499      c0.267-0.426-18.834-11.769-18.834-11.769s18.069,7.819,18.141,7.705c0.061-0.096-18.787-11.329-18.603-11.624      c0.346-0.554,18.713,8.217,19.027,7.713l-19.282-12.049c0.252-0.404,18.519,7.251,18.563,7.181l-18.531-11.58l18.182,8.007      c0.178-0.284-18.618-11.634-18.618-11.634s17.663,7.438,17.856,7.129c0,0-19.054-10.995-18.645-11.65      c0,0,18.348,8.095,18.635,7.635c0.029-0.047-21.078-12.19-20.638-12.896c0,0,19.235,9.515,19.571,8.977      c0.367-0.588-19.946-12.463-19.946-12.463l20.11,8.432c0,0-21.454-13.148-21.338-13.333c0.208-0.333,19.118,7.818,19.118,7.818      l-21.141-13.21l19.861,8.782c0,0-21.837-13.134-21.607-13.502c0.099-0.157,20.205,10.042,20.62,9.379      c0.363-0.582-21.957-13.72-21.957-13.72l20.772,9.219c0.189-0.303-23.052-14.404-23.052-14.404l22.394,10.845      c0.127-0.203-24.694-15.431-24.694-15.431l23.094,10.519l-25.549-15.965l23.233,9.914c0.356-0.57-26.566-16.6-26.566-16.6      l23.871,10.658l-27.279-17.046c0.056-0.089,25.663,11.824,25.663,11.824s-31.015-19.178-30.924-19.324      c0.496-0.793,28.427,13.653,28.438,13.637c0,0-34.008-19.971-33.433-20.891c0.614-0.984,30.538,15.416,30.576,15.354      c0,0-35.57-21.388-35.193-21.991c0.648-1.038,31.079,17.124,31.571,16.336l-38.319-23.945l35.606,19.09      c0.082-0.131-42.716-26.573-42.663-26.659c0,0,38.012,19.799,38.176,19.538c0,0-56.86-35.106-56.669-35.411      c0.68-1.088,51.36,27.845,51.36,27.845c1.707-2.732-126.906-79.3-126.906-79.3l121.827,72.346L329.87,47.926l105.292,62.226      c0.516-0.826-95.977-57.933-95.06-59.399c0,0,84.513,51.121,85.506,49.532c0.062-0.099-72.061-45.028-72.061-45.028      s54.369,30.949,54.87,30.148l-33.883-21.173" style="fill:none;stroke:#262626;stroke-width:2;stroke-linecap:round;stroke-linejoin:round;"/><path d="M185.862,332.677      c0.008-0.012-0.298-0.166-0.289-0.181c0.126-0.201,8.839,0.49,8.839,0.49c0.043-0.069-7.49-4.617-7.462-4.662      c0,0,11.998,4.669,12.108,4.493c0.075-0.121-9.992-6.244-9.992-6.244s18.346,6.651,18.432,6.514      c0.237-0.38-15.945-9.964-15.945-9.964c0.411-0.657,21.536,9.116,21.536,9.116s-20.059-11.855-19.754-12.344      c0,0,26.503,13.429,26.963,12.692c0,0-25.674-15.772-25.553-15.967l32.025,16.212c0.239-0.383-30.32-18.027-29.908-18.688      c0,0,34.819,19.443,35.299,18.676c0.564-0.902-33.923-21.198-33.923-21.198l38.908,21.062c0,0-37.5-22.209-36.95-23.089      c0,0,44.083,24.293,44.619,23.438c0.414-0.663-43.249-25.98-42.779-26.731c0.012-0.02,48.193,26.913,48.193,26.913      s-47.749-28.275-47.047-29.398c0.782-1.25,54.019,30.788,54.512,30c0.218-0.349-52.369-31.288-51.724-32.32l59.962,32.599      c0.106-0.17-59.066-35.459-58.415-36.501c0,0,66.819,36.781,66.867,36.704c0,0-64.024-39.514-63.803-39.868      c0,0,70.896,42.975,72.227,40.846c0,0-71.845-43.499-71.218-44.502c1.085-1.737,77.226,44.189,77.226,44.189      c1.41-2.258-74.647-46.022-74.367-46.47c1.379-2.207,82.17,47.679,82.17,47.679c0.603-0.964-83.205-48.922-81.825-51.13      c0,0,88.21,53.354,89.742,50.903c0.949-1.519-86.854-54.272-86.854-54.272c2.003-3.206,93.707,58.978,95.737,55.729      c1.684-2.694-96.054-55.481-94.014-58.747c1.029-1.646,101.519,59.902,102.211,58.795l-96.348-60.205      c0.328-0.525,104.477,62.912,105.368,61.487c1.795-2.873-98.478-60.685-98.095-61.297c0,0,103.326,63.349,104.324,61.752      c0,0-99.955-59.867-98.79-61.731c0.447-0.716,100.668,61.513,101.799,59.703c2.096-3.355-96.626-60.379-96.626-60.379      c1.18-1.889,98.181,60.593,100.096,57.529c1.66-2.658-92.123-56.354-91.579-57.225c0.239-0.383,92.131,54.001,92.744,53.021      l-84.004-52.491l87.822,49.707c0.978-1.563-78.881-49.29-78.881-49.29c1.646-2.634,80.701,46.337,80.701,46.337      s-74.301-46.376-74.277-46.414l75.88,42.31c1.214-1.943-68.735-41.435-68.054-42.524c0.502-0.804,71.357,39.595,71.357,39.595      c0.964-1.541-61.862-38.655-61.862-38.655c0.564-0.903,62.659,35.405,62.659,35.405s-55.959-34.197-55.613-34.751l57.519,31.891      l-51.129-31.949c0,0,51.617,31.149,52.555,29.649c0,0-47.553-28.043-46.801-29.245c0.723-1.157,49.555,27.718,49.922,27.129      l-43.636-27.267c0,0,45.162,25.01,45.784,24.014c0.695-1.113-37.501-23.434-37.501-23.434      c0.132-0.21,39.165,21.069,39.165,21.069c0.653-1.046-32.171-20.103-32.171-20.103c0.052-0.082,33.066,16.688,33.458,16.061      c0.459-0.735-25.247-15.776-25.247-15.776s28.204,13.522,28.436,13.152c0,0-20.296-12.382-20.16-12.598l20.947,9.489      c0.152-0.242-13.389-8.366-13.389-8.366s16.433,7.245,16.701,6.815l-10.012-6.256c0.154-0.247,11.302,3.149,11.302,3.149      s-4.358-2.573-4.291-2.682" style="fill:none;stroke:#262626;stroke-width:2;stroke-linecap:round;stroke-linejoin:round;"/><path d="M171.989,326.2      c0.012-0.02-0.73-0.425-0.716-0.447c0.064-0.103,3.546-2.817,3.546-2.817c0.066-0.105-11.057-6.813-11.013-6.882      c0,0,12.044,4.699,12.155,4.522c0.116-0.186-15.554-9.72-15.554-9.72s18.203,6.561,18.288,6.425      c0.369-0.591-24.783-15.486-24.783-15.486c0.491-0.785,25.422,11.544,25.422,11.544s-32.264-19.092-31.784-19.86      c0,0,33.499,18.087,34.088,17.145c0,0-40.713-25.015-40.522-25.32l42.441,22.719c0.377-0.603-48.148-28.635-47.497-29.679      c0,0,48.164,28.21,48.836,27.134c0.811-1.298-49.077-30.666-49.077-30.666l50.167,28.097c0,0-48.928-28.991-48.217-30.129      c0,0,49.954,28.126,50.563,27.151c0.47-0.753-49.267-29.6-48.734-30.452c0.013-0.021,50.172,28.149,50.172,28.149      s-49.765-29.47-49.034-30.64c0.735-1.177,50.915,28.783,51.378,28.041c0.205-0.327-49.222-29.405-48.614-30.377l50.717,26.822      c0.089-0.144-49.749-29.865-49.2-30.743c0,0,51.216,27.005,51.252,26.947c0,0-48.387-29.861-48.218-30.131      c0,0,50.143,29.118,51.074,27.628c0,0-50.531-30.596-50.091-31.3c0.705-1.127,50.727,27.631,50.727,27.631      c0.921-1.475-48.077-29.635-47.894-29.928c0.843-1.35,50.852,28.109,50.852,28.109c0.37-0.593-51.376-30.217-50.528-31.574      c0,0,50.745,28.461,51.61,27.076c0.539-0.861-48.753-30.464-48.753-30.464c1.073-1.717,50.972,30.175,52.059,28.435      c0.896-1.435-51.216-29.587-50.13-31.325c0.505-0.809,50.915,27.497,51.254,26.953l-48.755-30.466      c0.158-0.253,51.277,28.643,51.706,27.955c0.91-1.456-49.651-30.593-49.457-30.904c0,0,50.416,29.133,50.896,28.366      c0,0-49.905-29.881-49.319-30.818c0.219-0.35,50.035,28.586,50.587,27.702c1.084-1.735-49.915-31.19-49.915-31.19      c0.617-0.987,52.285,29.88,53.285,28.279c0.913-1.461-50.845-31.106-50.546-31.585c0.13-0.208,51.279,27.856,51.614,27.321      l-48.824-30.509l52.54,27.662c0.619-0.99-49.85-31.15-49.85-31.15c1.04-1.664,51.59,28.145,51.59,28.145      s-50.129-31.289-50.114-31.314l51.646,27.167c0.894-1.43-50.518-30.452-50.017-31.254c0.371-0.593,53.252,28.281,53.252,28.281      c0.781-1.25-50.109-31.312-50.109-31.312c0.456-0.729,50.856,28.029,50.856,28.029s-48.879-29.868-48.576-30.354l50.413,27.45      l-49.175-30.728c0,0,49.643,29.834,50.544,28.393c0,0-49.631-29.271-48.848-30.524c0.753-1.205,51.512,28.975,51.895,28.362      l-50.942-31.833c0,0,52.283,29.687,53.007,28.527c0.946-1.514-50.852-31.776-50.852-31.776      c0.178-0.285,52.455,29.373,52.455,29.373c1.01-1.617-49.999-31.242-49.999-31.242c0.081-0.128,50.586,28.124,51.198,27.145      c0.883-1.413-49.448-30.898-49.448-30.898s52.111,28.926,52.552,28.221c0,0-50.948-31.078-50.607-31.623l51.33,28.474      c0.507-0.812-48.817-30.505-48.817-30.505s51.176,30.333,52.063,28.913l-50.446-31.522c0.78-1.248,52.028,28.598,52.028,28.598      s-51.285-30.301-50.5-31.556c0,0,49.613,28.507,50.136,27.671c0,0-49.918-29.337-49.084-30.671l43.325,22.091      c0.021-0.033-40.672-25.415-40.672-25.415c0.216-0.345,34.77,17.759,34.831,17.662l-33.367-20.85      c0.163-0.261,26.952,13.58,27.394,12.873c0,0-25.317-14.617-24.776-15.482c0,0,18.708,7.667,18.942,7.292l-16.434-10.269      l12.042,4.247c0,0-11.257-6.578-11.052-6.906c0,0,4.518-1.761,4.581-1.862c0.032-0.05-2.972-1.848-2.968-1.854" style="fill:none;stroke:#262626;stroke-width:2;stroke-linecap:round;stroke-linejoin:round;"/><path d="M307.459,267.472      c0.022-0.036-0.633-0.337-0.606-0.379c0.149-0.239,10.435,1.487,10.435,1.487c0.104-0.166-17.041-10.496-16.973-10.605      c0,0,21.946,11.109,22.157,10.772c0.183-0.292-24.647-15.402-24.647-15.402s33.797,16.483,33.962,16.22      c0.58-0.928-38.979-24.357-38.979-24.357c0.901-1.442,45.329,23.984,45.329,23.984s-50.805-30.086-50.059-31.28      c0,0,57.031,33.759,58.055,32.12c0,0-63.486-39.009-63.189-39.484l70.388,40.183c0.588-0.939-75.271-44.776-74.255-46.4      c0,0,79.175,48.58,80.293,46.791c1.387-2.219-84.242-52.64-84.242-52.64l89.848,52.892c0,0-94.361-55.956-93.01-58.119      c0,0,100.299,61.003,101.545,59.009c1.021-1.633-108.02-64.924-106.862-66.775c0.027-0.044,108.811,64.792,108.811,64.792      s-114.644-67.918-112.973-70.593c1.603-2.564,108.979,66.283,109.989,64.666c0.475-0.759-115.356-68.955-113.951-71.204      l109.488,63.547c0.21-0.336-117.319-70.445-116.032-72.504c0,0,111.156,64.558,111.237,64.429      c0,0-117.272-72.386-116.871-73.029c0,0,111.821,70.301,113.939,66.911c0,0-121.505-73.562-120.444-75.262      c1.636-2.618,115.502,68.108,115.502,68.108c2.251-3.602-120.216-74.127-119.771-74.841      c1.985-3.176,117.535,69.776,117.535,69.776c0.913-1.461-125.708-73.898-123.617-77.244c0,0,115.357,71.392,117.372,68.167      c1.243-1.99-114.2-71.36-114.2-71.36c2.343-3.75,109.33,69.508,111.705,65.707c1.897-3.036-108.213-62.503-105.914-66.183      c1.004-1.607,99.176,58.401,99.852,57.32l-92.568-57.843c0.276-0.442,88.325,52.508,89.076,51.307      c1.516-2.426-83.06-51.182-82.736-51.7c0,0,78.323,47.18,79.076,45.975c0,0-75.156-45.01-74.278-46.415      c0.304-0.486,68.979,40.906,69.748,39.675c1.42-2.272-65.413-40.875-65.413-40.875c0.714-1.141,60.183,35.165,61.34,33.312      c0.973-1.555-54.106-33.102-53.788-33.611c0.118-0.191,47.024,25.133,47.33,24.644l-39.709-24.813l35.379,16.937      c0.344-0.551-27.624-17.262-27.624-17.262c0.444-0.712,22.993,10.277,22.993,10.277s-17.515-10.932-17.509-10.941l11.063,1.81      c0.082-0.132-4.48-2.697-4.434-2.771" style="fill:none;stroke:#262626;stroke-width:2;stroke-linecap:round;stroke-linejoin:round;"/></g></g></g></g><g id="Layer_1"/></svg>