<?xml version="1.0" ?><!DOCTYPE svg  PUBLIC '-//W3C//DTD SVG 1.1//EN'  'http://www.w3.org/Graphics/SVG/1.1/DTD/svg11.dtd'><svg height="512px" style="enable-background:new 0 0 512 512;" version="1.1" viewBox="0 0 512 512" width="512px" xml:space="preserve" xmlns="http://www.w3.org/2000/svg" xmlns:xlink="http://www.w3.org/1999/xlink"><g id="edge__x2C__internet__x2C__browser__x2C_"><g><g><g><path d="M118.578,375.286      c0.619-0.991-64.025-39.373-63.74-39.829c0.276-0.442,39.872,20.239,39.872,20.239c0.892-1.428-44.789-26.67-44.197-27.617      l31.206,14.611c0.158-0.253-36.472-22.79-36.472-22.79c0.244-0.391,30.011,15.109,30.265,14.704c0,0-33.048-20.2-32.846-20.524      l27.491,13.825c0.64-1.022-30.165-17.496-29.557-18.469c0.229-0.368,25.336,11.773,25.336,11.773      c0.122-0.195-29.097-18.182-29.097-18.182c0.248-0.396,25.797,12.043,25.867,11.932c0.487-0.78-26.631-16.386-26.516-16.569      c0,0,22.119,10.866,22.368,10.468l-25.567-15.976l24.59,12.076c0.03-0.048-24.782-15.322-24.708-15.439      c0.346-0.554,21.195,8.891,21.195,8.891c0.271-0.434-22.936-13.942-22.761-14.223c0,0,21.356,10.987,21.677,10.474      c0.243-0.389-23.569-14.453-23.446-14.65c0.214-0.343,20.413,8.569,20.489,8.447l-21.209-13.253c0,0,19.731,9.671,20.012,9.221      c0.424-0.68-19.656-12.133-19.589-12.24l18.605,8.055c0,0-20.559-12.388-20.353-12.717c0,0,19.207,8.861,19.536,8.335      c0,0-19.475-12.063-19.427-12.14c0,0,18.671,7.529,18.981,7.033c0,0-20.734-12.632-20.588-12.865c0,0,18.546,8.884,18.891,8.331      c0,0-18.334-10.6-17.949-11.216c0,0,18.047,8.058,18.354,7.566c0,0-19.724-11.909-19.537-12.208l18.672,7.93      c0,0-19.148-11.111-18.765-11.726c0.306-0.49,17.571,6.112,17.66,5.971c0.125-0.2-16.756-10.47-16.756-10.47      c0.335-0.537,17.316,6.192,17.333,6.165c0.296-0.474-17.591-10.453-17.349-10.841c0.276-0.441,17.765,6.775,17.765,6.775      s-17.866-10.693-17.654-11.031l16.73,5.622c0,0-16.521-10.165-16.45-10.279c0.117-0.188,17.486,7.375,17.486,7.375      c0.142-0.228-17.026-10.181-16.82-10.51c0.301-0.482,16.374,7.105,16.702,6.579l-15.043-9.4      c0.14-0.225,15.208,6.215,15.32,6.036c0.305-0.487-16.127-9.82-16.012-10.005l16.559,7.068      c0.249-0.398-14.892-9.084-14.792-9.243l15.494,5.994c0.143-0.229-16.223-9.421-15.901-9.936      c0.081-0.129,16.508,7.029,16.743,6.653c0.315-0.505-15.499-9.685-15.499-9.685c0.08-0.128,15.452,5.366,15.452,5.366      c0.101-0.161-13.779-8.603-13.776-8.608c0.194-0.311,15.223,4.334,15.223,4.334l-15.479-9.672      c0.138-0.22,16.312,6.715,16.589,6.271l-15.19-9.492l15.671,5.66c0,0-13.353-8.085-13.236-8.271      c0.177-0.282,15.667,4.943,15.667,4.943s-14.66-9.051-14.611-9.129c0,0,14.938,4.878,15.088,4.637      c0.045-0.071-13.625-8.514-13.625-8.514s14.885,4.714,14.903,4.685c0.139-0.222-13.505-8.439-13.505-8.439      c0.207-0.331,14.241,5.406,14.439,5.089c0,0-13.457-8.128-13.331-8.33c0.207-0.33,16.032,5.665,16.189,5.414      c0.29-0.464-14.711-8.822-14.545-9.089l15.397,6.39l-14.272-8.918l14.617,5.407c0.17-0.272-13.463-7.748-13.165-8.227      c0.021-0.034,16.056,5.364,16.056,5.364c0.169-0.271-13.713-8.147-13.523-8.45l14.927,5.41      c0.144-0.23-13.305-7.673-13.017-8.134c0.062-0.1,14.47,4.193,14.47,4.193s-12.505-7.81-12.503-7.813      c0,0,15.128,5.683,15.297,5.412c0,0-13.296-8.041-13.176-8.233c0,0,14.443,4.563,14.707,4.14      c0.219-0.351-13.666-8.539-13.666-8.539s15.332,5.783,15.478,5.55c0.076-0.122-14.061-8.14-13.771-8.605      c0.256-0.41,16.622,6.543,16.622,6.543c0.218-0.349-14.374-8.982-14.374-8.982l15.303,4.708      c0.284-0.454-11.785-7.364-11.785-7.364l14.226,4.639l-12.071-7.543c0.218-0.348,14.104,5.543,14.104,5.543l-12.822-8.012      c0.078-0.125,14.99,5.171,15.092,5.008c0.03-0.048-13.655-8.441-13.614-8.507c0.041-0.066,15.269,4.9,15.269,4.9l-11.862-7.412      l14.994,6.222l-13.729-8.579c0.253-0.405,16.366,5.81,16.593,5.446c0.069-0.11-13.297-8.309-13.297-8.309      c0.034-0.054,14.725,4.954,14.725,4.954c0.064-0.103-13.479-8.422-13.479-8.422c0.078-0.125,15.183,6.351,15.429,5.957      c0.171-0.274-12.807-7.809-12.72-7.948l15.841,4.943c0,0-12.299-7.077-12.026-7.514c0.046-0.074,15.685,5.359,15.685,5.359      s-13.337-7.928-13.154-8.22c0,0,14.206,5.847,14.468,5.428l-12.257-7.659c0.183-0.293,13.914,6.102,14.175,5.684      c0,0-13.146-7.629-12.882-8.05l16.052,5.008c0.118-0.19-12.414-7.259-12.19-7.617c0,0,16.148,6.053,16.442,5.584      c0.044-0.071-14.287-8.928-14.287-8.928c0.256-0.409,16.683,6.892,16.913,6.524c0.066-0.106-14.811-8.66-14.543-9.087      l16.947,6.499c0,0-14.128-8.705-14.073-8.793c0.084-0.135,17.554,5.905,17.568,5.883c0.221-0.354-13.019-7.846-12.889-8.054      l15.258,4.988c0.214-0.343-13.288-8.303-13.288-8.303l15.933,6.399c0.032-0.051-12.759-7.858-12.708-7.94      c0.141-0.226,15.3,6.467,15.3,6.467c0.268-0.428-12.976-8.063-12.956-8.096c0.002-0.003,15.445,6.067,15.445,6.067      l-12.192-7.619c0.2-0.319,16.013,5.69,16.013,5.69c0.096-0.153-14.11-8.817-14.11-8.817c0.077-0.124,16.286,6.921,16.286,6.921      l-13.582-8.487c0,0,17.252,7.304,17.323,7.19c0.299-0.478-14.139-8.292-13.895-8.683c0.252-0.403,16.385,7.055,16.558,6.778      c0.076-0.122-13.907-8.69-13.907-8.69c0.191-0.307,16.373,7.064,16.381,7.052l-14.152-8.843l18.745,6.845      c0.06-0.095-15.328-9.259-15.185-9.488c0.305-0.487,17.551,6.817,17.551,6.817s-13.149-7.765-12.946-8.089      c0.055-0.087,16.765,5.596,16.765,5.596s-13.629-7.812-13.312-8.318c0,0,16.938,7.973,17.158,7.621      c0,0-14.989-8.794-14.731-9.206l16.512,7.02c0.151-0.242-13.407-8.378-13.407-8.378s18.612,7.051,18.702,6.907      c0,0-14.451-8.361-14.15-8.842c0,0,19.059,7.409,19.292,7.036c0,0-15.626-9.314-15.424-9.638      c0.095-0.151,19.586,8.193,19.939,7.629l-15.956-9.97c0.126-0.202,20.361,8.18,20.459,8.022      c0.144-0.23-16.803-10.078-16.613-10.381c0.045-0.072,21.162,8.195,21.194,8.144c0,0-15.233-9.424-15.19-9.492      c0,0,19.925,7.822,20.094,7.551c0.191-0.306-16.439-10.272-16.439-10.272l20.823,8.813c0.262-0.419-16.474-10.24-16.45-10.279      c0.399-0.639,21.667,9.062,21.677,9.046c0.306-0.489-17.167-10.727-17.167-10.727c0.431-0.689,21.857,9.125,21.894,9.067      c0.156-0.25-16.331-10.095-16.282-10.174c0.352-0.562,21.486,8.883,21.486,8.883s-17.729-10.769-17.59-10.992l22.4,10.006      c0.377-0.604-18.219-11.384-18.219-11.384s20.675,10.163,20.997,9.648l-16.045-10.026c0.418-0.67,20.719,9.035,20.719,9.035      s-17.032-10.537-16.984-10.613c0.057-0.091,21.609,9.646,21.609,9.646c0.212-0.341-17.446-10.417-17.228-10.765      c0,0,23.046,9.837,23.218,9.562l-17.608-11.002c0.115-0.183,24.072,10.839,24.168,10.687l-18.359-11.472      c0.233-0.374,22.247,11.458,22.688,10.75l-18.885-11.801c0,0,26.145,12.229,26.567,11.553l-21.156-13.219l25.637,11.971      c0.448-0.716-19.586-11.752-19.368-12.102c0.033-0.052,27.933,12.721,28.087,12.475c0,0-22.841-13.468-22.479-14.047      c0,0,27.854,13.641,27.991,13.422c0,0-21.807-12.53-21.314-13.319c0.273-0.437,28.988,14.277,29.449,13.54      c0.341-0.546-24.137-14.748-23.986-14.988c0.314-0.503,30.172,14.96,30.172,14.96c0.082-0.131-25.033-14.459-24.502-15.31      c0.002-0.003,30.168,16.375,30.544,15.772c0.09-0.143-24.655-15.406-24.655-15.406s32.808,16.771,33.156,16.213      c0.065-0.105-26.931-15.944-26.533-16.58c0.149-0.239,34.491,17.984,34.491,17.984c0.544-0.871-28.615-17.881-28.615-17.881      c0.109-0.174,37.627,19.51,37.627,19.51c0.239-0.383-31.954-18.842-31.448-19.651c0.154-0.247,41.211,22.398,41.629,21.73      c0.602-0.962-34.437-19.833-33.68-21.045c0,0,45.018,25.474,45.46,24.766l-39.547-24.712      c0.384-0.614,59.151,32.134,59.163,32.115c0,0-50.341-29.946-49.662-31.032" style="fill:none;stroke:#231F20;stroke-width:2;stroke-linecap:round;stroke-linejoin:round;"/><path d="M134.275,403.278      c0.436-0.698-26.95-16.144-26.637-16.646l55.099,30.206L83.762,367.49l98.303,56.688c1.225-1.96-110.936-69.32-110.936-69.32      l123.366,73.299c2.542-4.067-130.263-81.397-130.263-81.397c2.798-4.477,140.657,83.888,140.657,83.888      c2.481-3.971-147.675-92.277-147.675-92.277c1.004-1.606,161.152,95.607,161.152,95.607      c0.169-0.271-48.937-30.579-48.937-30.579s58.146,33.792,58.755,32.817c0.29-0.463-42.94-24.843-42.046-26.273l51.837,27.252      c0.485-0.775-37.017-21.835-36.434-22.767l47.243,24.563c0.171-0.273-34.155-19.961-33.534-20.954l39.039,21.073      c0.353-0.564-32.153-19.142-31.726-19.825c0.51-0.815,37.114,20.454,37.31,20.142l-29.979-18.732l38.647,19.702      c0.546-0.874-29.161-17.894-29.013-18.129c0.316-0.507,35.64,17.707,35.64,17.707c0.483-0.774-27.059-15.719-26.524-16.574      L282,439.998c0.53-0.848-25.738-15.035-25.267-15.789c0.004-0.006,30.519,16.393,31.062,15.523      c0.315-0.504-24.396-15.245-24.396-15.245c0.646-1.032,31.225,15.652,31.225,15.652c0.09-0.144-25.146-15.713-25.146-15.713      l30.576,14.431c0.148-0.238-22.57-14.103-22.57-14.103c0.107-0.172,27.594,14.997,28.018,14.319c0,0-23.64-14.648-23.585-14.737      c0.007-0.011,29.229,14.058,29.243,14.034l-21.575-13.481l27.98,12.419c0.422-0.675-20.844-12.893-20.785-12.988      c0.377-0.602,24.828,12.44,24.828,12.44s-21.385-13.076-21.256-13.282l24.196,11.639c0,0-19.891-12.009-19.701-12.311      l26.76,11.691c0,0-20.004-11.652-19.623-12.262c0,0,23.35,11.219,23.701,10.656l-18.996-11.87l24.7,10.562      c0.028-0.046-19.349-11.239-18.966-11.852l23.74,10.66c0,0-19.375-11.194-18.965-11.851l24.949,10.716      c0.305-0.488-19.216-11.919-19.176-11.982c0,0,22.719,9.63,22.914,9.318c0.065-0.105-17.475-10.92-17.475-10.92      c0.354-0.566,21.601,9.506,21.811,9.17c0.162-0.259-16.785-10.489-16.785-10.489c0.272-0.436,21.348,9.328,21.772,8.648      c0.249-0.397-16.293-10.182-16.293-10.182s20.746,9.386,20.961,9.042c0,0-17.267-10.196-17-10.623l20.562,8.052      c0.219-0.35-16.073-9.756-15.943-9.963c0.149-0.239,19.727,9.116,19.782,9.027c0.008-0.012-16.359-10.223-16.359-10.223      s20.288,8.684,20.631,8.135c0.257-0.412-17.399-10.872-17.399-10.872c0.098-0.155,20.059,9.218,20.059,9.218      c0.085-0.136-17.031-10.642-17.031-10.642c0.03-0.048,21.051,9.065,21.051,9.065s-16.888-10.019-16.647-10.402      c0.395-0.632,20.623,7.913,20.623,7.913c0.063-0.101-15.937-9.958-15.937-9.958c0.265-0.424,18.227,8.017,18.227,8.017      l-16.505-10.313c0.012-0.019,20.389,8.759,20.389,8.759c0.007-0.011-16.458-9.821-16.25-10.154      c0.342-0.547,18.187,7.961,18.187,7.961l-15.612-9.756c0.267-0.427,18.293,8.762,18.564,8.327c0,0-16.676-9.745-16.372-10.23      c0.21-0.337,19.146,8.14,19.146,8.14c0.078-0.125-15.197-9.497-15.197-9.497c0.062-0.099,17.819,7.601,18.129,7.105      c0.228-0.364-15.269-8.952-15.004-9.376c0.27-0.432,18.936,6.951,18.936,6.951c0.253-0.403-15.674-9.254-15.431-9.643      c0.04-0.063,17.513,7.595,17.513,7.595c0.131-0.21-15.397-9.621-15.397-9.621c0.164-0.262,17.788,7.593,17.788,7.593      c0.315-0.505-15.866-9.824-15.825-9.889c0.273-0.438,18.835,7.544,18.835,7.544c0.049-0.079-15.241-8.907-14.965-9.351      l17.836,6.778l-15.124-9.45c0,0,17.882,7.259,18.005,7.062l-15.245-9.526l16.553,6.549l-14.148-8.841l17.284,6.382      c0.146-0.234-15.113-8.9-14.869-9.291c0.133-0.212,17.387,6.448,17.674,5.989c0,0-14.314-8.608-14.163-8.851l16.551,7.142      c0.1-0.159-14.768-9.185-14.748-9.216c0,0,17.804,6.635,17.889,6.499c0.296-0.473-14.758-9.222-14.758-9.222      c0.083-0.133,15.913,6.73,15.913,6.73c0.003-0.005-13.905-8.688-13.905-8.688s16.446,6.514,16.662,6.169      c0,0-15.452-9.557-15.408-9.628c0.269-0.43,16.396,7.178,16.396,7.178c0.022-0.036-14.012-8.756-14.012-8.756      c0.02-0.032,16.174,6.507,16.292,6.317l-14.27-8.916c0.188-0.3,15.833,6.084,15.85,6.058c0,0-13.952-8.059-13.656-8.533      c0,0,14.798,6.226,14.947,5.987l-13.898-8.686l17.043,6.108c0.182-0.29-14.411-9.005-14.411-9.005c0.161-0.258,17.42,6,17.42,6      c0.207-0.332-15.319-9.573-15.319-9.573s15.974,5.098,16.002,5.054c0,0-14.145-8.716-14.09-8.805c0,0,15.717,6.438,15.723,6.429      c0,0-13.781-8.501-13.731-8.581c0.107-0.172,15.397,6.121,15.536,5.897l-14.198-8.872c0,0,16.621,5.999,16.764,5.771      l-15.169-9.479c0.199-0.318,15.474,6.435,15.603,6.228c0.21-0.335-13.464-8.413-13.464-8.413l16.007,5.791      c0.277-0.444-15.771-9.504-15.613-9.756c0,0,16.822,7.293,16.959,7.074c0.33-0.527-15.915-9.378-15.66-9.785l16.562,6.439      c0.142-0.229-14.24-8.898-14.24-8.898c0.016-0.026,16.815,6.419,16.815,6.419l-16.157-10.097l17.121,7.104l-14.954-9.344      c0.078-0.124,15.758,4.678,15.758,4.678l-14.4-8.999l15.635,6.436l-14.766-9.227c0.024-0.039,15.789,7.088,15.986,6.771      c0.022-0.034-15.921-9.688-15.804-9.875c0,0,17.223,7.081,17.395,6.806c0,0-16.617-9.759-16.336-10.208      c0,0,17.348,6.415,17.447,6.255c0.118-0.189-14.852-9.28-14.852-9.28c0.127-0.202,15.804,4.994,15.804,4.994l-15.933-9.956      c0,0,16.974,5.949,17.015,5.885c0,0-14.592-8.957-14.52-9.073l16.444,6.02c0,0-16.116-10.02-16.094-10.056      c0.109-0.175,16.864,7.262,16.864,7.262c0.158-0.252-15.787-9.729-15.726-9.827l15.337,5.947c0,0-15.129-8.79-14.83-9.267      c0.287-0.461,15.485,6.546,15.485,6.546c0.198-0.317-16.485-9.522-16.136-10.083c0.099-0.157,16.284,6.611,16.445,6.354      c0.188-0.302-14.67-9.167-14.67-9.167s15.189,4.597,15.296,4.426c0,0-16.063-9.748-15.933-9.956l16.834,6.534      c0.002-0.003-15.672-9.678-15.62-9.761c0.319-0.511,16.47,5.273,16.47,5.273c0.037-0.06-16.675-10.42-16.675-10.42      c0.256-0.41,17.158,7.177,17.258,7.019c0.302-0.483-15.933-9.573-15.76-9.849l15.475,5.15l-16.602-10.374      c0,0,17.93,7.284,18.11,6.995c0.244-0.391-17.936-10.431-17.586-10.989l17.813,7.966c0,0-17.399-10.136-17.068-10.666      c0.268-0.427,16.167,6.458,16.167,6.458c0.338-0.541-16.604-10.375-16.604-10.375s16.212,6.061,16.385,5.784l-17.44-10.897      c0.171-0.274,18.304,7.242,18.35,7.167c0.204-0.326-17.627-10.479-17.387-10.864c0.311-0.497,17.443,6.838,17.701,6.424      c0.389-0.622-18.451-11.53-18.451-11.53l17.54,7.273c0.273-0.438-18.052-10.403-17.658-11.034l18.48,7.357      c0.322-0.515-20.144-12.201-19.97-12.479c0.033-0.054,17.912,7.087,18.172,6.671l-18.492-11.555c0,0,18.671,7.654,18.691,7.621      c0,0-19.692-11.531-19.345-12.087c0.293-0.469,18.326,8.312,18.433,8.142c0.421-0.673-20.012-11.842-19.714-12.319      c0,0,18.504,7.109,18.824,6.597l-21.063-13.162c0.176-0.28,19.181,7.342,19.321,7.118c0.279-0.447-21.444-12.677-21.119-13.196      l20.631,9.049c0.41-0.658-22.206-13.876-22.206-13.876l21.567,10.311c0,0-22.713-13.545-22.423-14.011l21.846,10.567      c0.175-0.28-23.197-14.495-23.197-14.495c0.406-0.649,21.814,8.86,21.814,8.86l-24.633-15.392      c0.047-0.074,23.025,10.371,23.025,10.371c0.311-0.497-26.199-16.371-26.199-16.371s24.83,12,24.891,11.905      c0.542-0.869-28.229-16.582-27.754-17.342c0.426-0.68,23.852,9.966,23.852,9.966c0.087-0.139-27.092-16.929-27.092-16.929      l25.688,12.21c0.593-0.949-30.301-18.934-30.301-18.934c0.337-0.54,27.146,12.833,27.146,12.833      c0.652-1.043-30.475-19.043-30.475-19.043c0.136-0.218,27.666,12.542,27.666,12.542l-35.367-22.1      c0.186-0.296,31.413,15.17,31.523,14.993c0.655-1.048-40.266-23.787-39.648-24.775c0.691-1.107,34.935,17.604,34.935,17.604      l-46.818-29.255c0.296-0.473,43.081,23.362,43.081,23.362c0.093-0.149-139.596-87.229-139.596-87.229l134.123,79.642      L321.98,46.014c1.309-2.094,116.321,75.1,118.847,71.058c0.134-0.213-112.303-66.277-110.551-69.08      c1.562-2.5,103.84,63.62,104.708,62.229c0,0-95.894-57.746-94.916-59.311c1.395-2.232,84.472,48.316,84.472,48.316      c0.845-1.353-70.518-43.593-70.306-43.932l51.321,28.077c0.627-1.004-29.338-17.244-28.849-18.027" style="fill:none;stroke:#231F20;stroke-width:2;stroke-linecap:round;stroke-linejoin:round;"/><path d="M341.429,188.03      c0,0-53.74-31.961-53.013-33.125c0.79-1.264,42.541,22.449,42.541,22.449c0.004-0.006-12.925-7.922-12.855-8.033" style="fill:none;stroke:#231F20;stroke-width:2;stroke-linecap:round;stroke-linejoin:round;"/><path d="M308.186,164.375      c0,0-17.899-10.423-17.557-10.971c0,0,21.143,8.875,21.151,8.861c0.217-0.346-16.317-10.196-16.317-10.196      c0.345-0.551,21.038,9.784,21.038,9.784c0.352-0.562-17.074-10.528-17.011-10.629c0.134-0.214,20.558,9.083,20.558,9.083      c0.207-0.333-16.31-9.38-15.945-9.963c0,0,23.759,10.375,23.991,10.002l-18.033-11.268l25.046,11.485      c0.146-0.234-19.164-11.976-19.164-11.976" style="fill:none;stroke:#231F20;stroke-width:2;stroke-linecap:round;stroke-linejoin:round;"/><path d="M159.535,228.65      l-1.468-0.918c0.021-0.033,3.912-1.412,3.935-1.447l-2.423-1.515c0.039-0.062,3.339-1.126,3.339-1.126l-1.315-0.822l5.282-0.041      l-4.019-2.512c0,0,5.873,0.312,5.945,0.197l-4.05-2.531c0.099-0.159,5.857,0.583,5.857,0.583      c0.037-0.059-4.648-2.704-4.558-2.848c0.098-0.157,7.739,1.716,7.739,1.716c0.048-0.078-6.039-3.773-6.039-3.773      c0.045-0.072,9.898,1.342,9.959,1.244c0.085-0.136-8.648-5.404-8.648-5.404c0.18-0.289,10.711,2.037,10.711,2.037l-7.125-4.453      l10.473,3.338c0.119-0.191-9.095-5.683-9.095-5.683s11.849,2.577,11.879,2.529l-9.758-6.097      c0.224-0.358,13.097,4.103,13.097,4.103c0.068-0.109-9.88-6.059-9.829-6.142l14.052,5.085l-11.65-7.28l13.418,4.718      c0.147-0.235-12.355-7.721-12.355-7.721c0.292-0.468,15.097,6.154,15.342,5.763c0.163-0.261-11.961-6.902-11.704-7.313      l15.601,6.254c0.192-0.307-12.847-8.027-12.847-8.027c0.156-0.249,15.504,6.131,15.754,5.732      c0.213-0.341-13.016-8.022-12.966-8.102c0.001-0.001,17.308,6.89,17.308,6.89l-15.517-9.696      c0.042-0.067,18.634,8.064,18.983,7.506c0,0-14.563-8.942-14.491-9.055l18.636,6.583c0.2-0.319-15.219-8.911-14.95-9.342" style="fill:none;stroke:#231F20;stroke-width:2;stroke-linecap:round;stroke-linejoin:round;"/><path d="M225.744,229.556      l-29.818-18.633c0.588-0.94,29.267,15.586,29.605,15.044c0,0-26.52-15.427-26.005-16.25c0.212-0.34,27.351,12.208,27.487,11.99      c0,0-24.877-14.354-24.342-15.21c0,0,26.824,12.698,27.266,11.992c0,0-24.633-14.65-24.299-15.184      c0,0,25.223,12.546,25.652,11.859c0,0-23.748-14.618-23.648-14.777c0.396-0.633,25.737,11.971,25.737,11.971      c0.132-0.212-21.955-13.302-21.768-13.602l25.585,11.081c0,0-23.187-13.777-22.867-14.289      c0.316-0.507,24.435,10.78,24.435,10.78l-22.204-13.875c0.225-0.36,25.257,11.582,25.257,11.582s-22.362-13.196-22.013-13.755      c0.098-0.157,26.345,12.166,26.345,12.166c0.473-0.756-39.669-24.788-39.669-24.788c0.842-1.347,44.353,22.722,44.353,22.722      c0.201-0.321-39.727-24.825-39.727-24.825l44.491,23.629l-40.15-25.089c0.161-0.258,46.758,24.304,46.785,24.26      c0,0-43.754-26.051-43.175-26.979c0.905-1.449,48.175,25.762,48.175,25.762c0.13-0.207-44.313-27.689-44.313-27.689      s50.933,29.976,51.827,28.544c0,0-48.668-28.947-48.01-30c0,0,57.452,31.812,57.703,31.41c0,0-52.533-32.179-52.242-32.645" style="fill:none;stroke:#231F20;stroke-width:2;stroke-linecap:round;stroke-linejoin:round;"/><path d="M240.016,281.843      c0.251-0.402-66.578-41.603-66.578-41.603s56.128,32.121,57.105,30.557c0.41-0.655-54.329-33.948-54.329-33.948      c0.185-0.296,50.328,28.052,51.065,26.872c0,0-50.333-30.599-49.95-31.212c0.886-1.417,48.315,25.564,48.315,25.564      c0.353-0.564-45.047-28.148-45.047-28.148s43.785,24.587,44.707,23.113c0,0-43.019-25.74-42.506-26.561      c0.635-1.017,50.8,26.597,50.8,26.597c0.243-0.388-47.267-29.51-47.255-29.528l55.326,30.002l-53.956-33.715l58.986,32.86      c0.693-1.109-56.903-35.557-56.903-35.557l64.354,36.468l-62.122-38.818c0.708-1.133,65.975,39.366,66.606,38.357      c0.757-1.211-64.264-39.972-64.181-40.104c0.239-0.383,72.054,39.93,72.054,39.93s-38.078-22.411-37.457-23.405      c0,0,44.342,24.846,44.972,23.838c0.479-0.769-37.881-23.259-37.696-23.555c0.848-1.356,43.568,23.829,43.897,23.301      c0.844-1.349-37.262-23.284-37.262-23.284c0.401-0.642,45.985,23.717,45.985,23.717s-38.731-24.068-38.671-24.165      c0,0,45.185,26.158,45.985,24.878c0.495-0.792-38.853-23.566-38.533-24.078c0,0,44.505,25.224,44.995,24.439      c0.354-0.567-39.068-24.412-39.068-24.412s45.505,24.472,45.699,24.162c0.433-0.693-40.15-25.089-40.15-25.089      s48.16,27.638,49.131,26.083c0,0-42.277-24.835-41.566-25.974c0.061-0.096,46.282,25.685,46.282,25.685      c0.47-0.752-41.307-24.395-40.67-25.414c0,0,49.443,27.345,50.123,26.258c0,0-42.263-25.473-41.842-26.146      c0,0,47.964,27.358,48.647,26.264c0.475-0.759-42.344-24.446-41.439-25.894c0.422-0.674,51.459,26.984,51.459,26.984      s-43.885-25.937-43.218-27.005l51.691,27.667l-46.951-29.338c0,0,51.166,28.362,51.823,27.311      c1.147-1.836-54.146-33.835-54.146-33.835c0.039-0.064,54.671,29.653,54.877,29.324c0.941-1.506-58.438-33.958-57.289-35.798      l57.036,30.62c1.044-1.671-129.917-81.182-129.917-81.182c1.751-2.802,131.354,78.273,131.354,78.273      c1.89-3.024-128.337-77.285-127.03-79.377l127.069,74.901c1.766-2.826-123.549-75.608-122.833-76.754      c0,0,119.303,76.824,121.745,72.916c0,0-119.496-70.377-117.567-73.464c0,0,115.341,72.978,117.375,69.724      c0,0-112.671-69.423-112.229-70.129c0,0,109.96,68.49,111.739,65.644c0.046-0.074-109.277-64.884-107.75-67.329      c0,0,108.405,64.717,108.571,64.451c1.223-1.956-103.539-64.698-103.539-64.698s101.723,59.615,102.164,58.909      c0.611-0.978-94.487-59.042-94.487-59.042c0.29-0.464,91.302,52.113,91.302,52.113c0.383-0.612-85.422-52.032-84.817-53      c0.848-1.356,82.232,47.24,82.232,47.24c0.085-0.137-77.101-48.178-77.101-48.178c0.551-0.88,77.544,45.572,78.57,43.929      l-72.577-45.352c0.77-1.231,73.773,41.084,73.773,41.084c0.042-0.067-13.996-8.746-13.996-8.746      c0.171-0.273,14.725,5.29,14.725,5.29c0.152-0.244-14.226-8.889-14.226-8.889s15.708,5.333,15.763,5.246l-13.843-8.65      c0.063-0.101,15.18,5.479,15.2,5.447c0,0-16.35-9.945-16.228-10.14l16.978,6.668c0,0-15.459-9.355-15.323-9.574      c0,0,15.227,6.076,15.483,5.664c0.287-0.459-17.289-10.531-17.167-10.727c0.102-0.162,17.937,8.394,18.179,8.007      c0.108-0.175-44.99-28.113-44.99-28.113c0.357-0.571,44.671,24.673,44.747,24.55c0,0-41.052-25.462-40.967-25.599      c0,0,38.175,20.729,38.85,19.648c0,0-30.417-18.746-30.3-18.933l27.588,12.518l-18.665-11.663" style="fill:none;stroke:#231F20;stroke-width:2;stroke-linecap:round;stroke-linejoin:round;"/><path d="M166.377,315.793      c0.166-0.265-17.879-11.003-17.803-11.125c0.097-0.155,14.981,4.686,14.981,4.686c0.285-0.456-14.065-8.368-13.876-8.671      l12.717,3.06c0.059-0.094-12.928-8.078-12.928-8.078c0.111-0.178,14.432,5.066,14.547,4.882c0,0-13.351-8.156-13.268-8.29      l13.173,4.879c0.287-0.459-12.658-7.304-12.386-7.739c0.119-0.191,13.801,4.566,13.801,4.566      c0.06-0.096-14.295-8.933-14.295-8.933c0.151-0.242,16.264,6.025,16.306,5.957c0.26-0.417-13.942-8.576-13.881-8.674      c0,0,13.669,5.363,13.818,5.126l-14.441-9.024l16.856,7.243c0.018-0.029-14.942-9.238-14.898-9.31      c0.249-0.397,15.645,5.423,15.645,5.423c0.175-0.279-14.444-8.774-14.332-8.955c0,0,15.841,7.347,16.074,6.973      c0.165-0.263-16.125-9.892-16.042-10.024c0.173-0.276,16.714,6.225,16.775,6.127l-14.85-9.279" style="fill:none;stroke:#231F20;stroke-width:2;stroke-linecap:round;stroke-linejoin:round;"/><path d="M165.264,329.139      c0.16-0.256-9.535-5.702-9.419-5.887l20.217,8.409l-24.877-15.544l33.049,15.912c0.385-0.616-34.425-21.511-34.425-21.511      l40.068,21.248c0.791-1.266-40.002-24.995-40.002-24.995c0.858-1.373,44.272,23.659,44.272,23.659      c0.292-0.468-16.708-10.44-16.708-10.44c0.135-0.217,23.43,9.549,23.43,9.549c0.056-0.089-16.094-10.057-16.094-10.057      s21.006,9.697,21.216,9.361c0.108-0.173-15.959-9.231-15.626-9.765l20.011,7.363c0.204-0.326-15.552-9.171-15.306-9.564      l21.495,8.475c0.078-0.125-15.964-9.339-15.678-9.797l18.08,7.978c0.167-0.269-15.339-9.133-15.136-9.458      c0.24-0.384,18.115,8.352,18.207,8.205l-14.916-9.321l27.882,12.977c0.888-1.421-47.071-28.881-46.832-29.264      c0.536-0.857,59.1,32.367,59.1,32.367c1.184-1.895-66.953-38.931-65.646-41.021l75.237,42.768      c1.629-2.606-80.38-47.003-78.932-49.321c0.011-0.018,84.755,52.545,86.315,50.048c1.132-1.812-89.22-55.75-89.22-55.75      c2.077-3.324,97.048,56.783,97.048,56.783c0.413-0.661-112.479-70.284-112.479-70.284l118.59,69.429      c0.748-1.197-116.35-72.703-116.35-72.703c0.484-0.775,120.021,76.065,121.935,73.005c0,0-121.366-75.189-121.074-75.655      c0.031-0.05,126.629,75.033,126.694,74.929l-123.643-77.261l129.622,75.932c2.507-4.011-127.773-79.057-127.421-79.622      c2.076-3.322,131.271,78.954,131.271,78.954s-131.449-80.365-130.652-81.641l133.061,79.665c0,0-132.839-80.316-131.629-82.251      l137.967,81.182c0,0-137.642-80.299-135.076-84.405c0,0,136.315,85.881,138.498,82.389l-51.96-32.469l56.748,30.588      c0.069-0.11-47.977-27.89-47.038-29.393l51.076,27.741c0,0-45.648-26.38-44.685-27.922l49.684,26.172      c0.699-1.119-43.455-26.95-43.363-27.097c0,0,45.754,24.501,46.162,23.847c0.149-0.239-40.688-25.426-40.688-25.426      c0.745-1.193,43.626,23.783,44.068,23.076c0.363-0.582-39.529-24.7-39.529-24.7c0.568-0.91,42.648,23.668,43.536,22.247      c0.562-0.898-38.766-24.224-38.766-24.224s41.975,23.178,42.426,22.455c0,0-40.106-23.71-39.499-24.683l41.925,21.4      c0.504-0.808-39.07-23.748-38.771-24.227c0.327-0.523,41.615,22.94,41.736,22.746c0.017-0.026-39.496-24.681-39.496-24.681      s41.637,22.898,42.372,21.722c0.614-0.983-41.025-25.635-41.025-25.635c0.216-0.346,42.789,23.42,42.789,23.42      c0.206-0.33-41.153-25.715-41.153-25.715c0.065-0.104,43.902,23.345,43.902,23.345s-39.436-23.397-38.876-24.293      c0.825-1.32,41.227,20.788,41.227,20.788c0.124-0.199-31.984-19.985-31.984-19.985c0.497-0.796,33.124,17.325,33.124,17.325      l-28.264-17.661c0.018-0.028,30.781,15.253,30.781,15.253c0.01-0.016-23.217-13.855-22.924-14.324      c0.448-0.719,23.502,11.282,23.502,11.282l-17.469-10.916c0.277-0.443,18.984,9.218,19.267,8.766c0,0-13.946-8.152-13.693-8.557      c0.161-0.259,14.973,5.531,14.973,5.531c0.038-0.062-7.074-4.42-7.074-4.42c0.026-0.042,8.161,1.172,8.294,0.96      c0.022-0.037-0.639-0.342-0.613-0.383" style="fill:none;stroke:#231F20;stroke-width:2;stroke-linecap:round;stroke-linejoin:round;"/></g><g><path d="M118.578,375.286      c0.619-0.991-64.025-39.373-63.74-39.829c0.276-0.442,39.872,20.239,39.872,20.239c0.892-1.428-44.789-26.67-44.197-27.617      l31.206,14.611c0.158-0.253-36.472-22.79-36.472-22.79c0.244-0.391,30.011,15.109,30.265,14.704c0,0-33.048-20.2-32.846-20.524      l27.491,13.825c0.64-1.022-30.165-17.496-29.557-18.469c0.229-0.368,25.336,11.773,25.336,11.773      c0.122-0.195-29.097-18.182-29.097-18.182c0.248-0.396,25.797,12.043,25.867,11.932c0.487-0.78-26.631-16.386-26.516-16.569      c0,0,22.119,10.866,22.368,10.468l-25.567-15.976l24.59,12.076c0.03-0.048-24.782-15.322-24.708-15.439      c0.346-0.554,21.195,8.891,21.195,8.891c0.271-0.434-22.936-13.942-22.761-14.223c0,0,21.356,10.987,21.677,10.474      c0.243-0.389-23.569-14.453-23.446-14.65c0.214-0.343,20.413,8.569,20.489,8.447l-21.209-13.253c0,0,19.731,9.671,20.012,9.221      c0.424-0.68-19.656-12.133-19.589-12.24l18.605,8.055c0,0-20.559-12.388-20.353-12.717c0,0,19.207,8.861,19.536,8.335      c0,0-19.475-12.063-19.427-12.14c0,0,18.671,7.529,18.981,7.033c0,0-20.734-12.632-20.588-12.865c0,0,18.546,8.884,18.891,8.331      c0,0-18.334-10.6-17.949-11.216c0,0,18.047,8.058,18.354,7.566c0,0-19.724-11.909-19.537-12.208l18.672,7.93      c0,0-19.148-11.111-18.765-11.726c0.306-0.49,17.571,6.112,17.66,5.971c0.125-0.2-16.756-10.47-16.756-10.47      c0.335-0.537,17.316,6.192,17.333,6.165c0.296-0.474-17.591-10.453-17.349-10.841c0.276-0.441,17.765,6.775,17.765,6.775      s-17.866-10.693-17.654-11.031l16.73,5.622c0,0-16.521-10.165-16.45-10.279c0.117-0.188,17.486,7.375,17.486,7.375      c0.142-0.228-17.026-10.181-16.82-10.51c0.301-0.482,16.374,7.105,16.702,6.579l-15.043-9.4      c0.14-0.225,15.208,6.215,15.32,6.036c0.305-0.487-16.127-9.82-16.012-10.005l16.559,7.068      c0.249-0.398-14.892-9.084-14.792-9.243l15.494,5.994c0.143-0.229-16.223-9.421-15.901-9.936      c0.081-0.129,16.508,7.029,16.743,6.653c0.315-0.505-15.499-9.685-15.499-9.685c0.08-0.128,15.452,5.366,15.452,5.366      c0.101-0.161-13.779-8.603-13.776-8.608c0.194-0.311,15.223,4.334,15.223,4.334l-15.479-9.672      c0.138-0.22,16.312,6.715,16.589,6.271l-15.19-9.492l15.671,5.66c0,0-13.353-8.085-13.236-8.271      c0.177-0.282,15.667,4.943,15.667,4.943s-14.66-9.051-14.611-9.129c0,0,14.938,4.878,15.088,4.637      c0.045-0.071-13.625-8.514-13.625-8.514s14.885,4.714,14.903,4.685c0.139-0.222-13.505-8.439-13.505-8.439      c0.207-0.331,14.241,5.406,14.439,5.089c0,0-13.457-8.128-13.331-8.33c0.207-0.33,16.032,5.665,16.189,5.414      c0.29-0.464-14.711-8.822-14.545-9.089l15.397,6.39l-14.272-8.918l14.617,5.407c0.17-0.272-13.463-7.748-13.165-8.227      c0.021-0.034,16.056,5.364,16.056,5.364c0.169-0.271-13.713-8.147-13.523-8.45l14.927,5.41      c0.144-0.23-13.305-7.673-13.017-8.134c0.062-0.1,14.47,4.193,14.47,4.193s-12.505-7.81-12.503-7.813      c0,0,15.128,5.683,15.297,5.412c0,0-13.296-8.041-13.176-8.233c0,0,14.443,4.563,14.707,4.14      c0.219-0.351-13.666-8.539-13.666-8.539s15.332,5.783,15.478,5.55c0.076-0.122-14.061-8.14-13.771-8.605      c0.256-0.41,16.622,6.543,16.622,6.543c0.218-0.349-14.374-8.982-14.374-8.982l15.303,4.708      c0.284-0.454-11.785-7.364-11.785-7.364l14.226,4.639l-12.071-7.543c0.218-0.348,14.104,5.543,14.104,5.543l-12.822-8.012      c0.078-0.125,14.99,5.171,15.092,5.008c0.03-0.048-13.655-8.441-13.614-8.507c0.041-0.066,15.269,4.9,15.269,4.9l-11.862-7.412      l14.994,6.222l-13.729-8.579c0.253-0.405,16.366,5.81,16.593,5.446c0.069-0.11-13.297-8.309-13.297-8.309      c0.034-0.054,14.725,4.954,14.725,4.954c0.064-0.103-13.479-8.422-13.479-8.422c0.078-0.125,15.183,6.351,15.429,5.957      c0.171-0.274-12.807-7.809-12.72-7.948l15.841,4.943c0,0-12.299-7.077-12.026-7.514c0.046-0.074,15.685,5.359,15.685,5.359      s-13.337-7.928-13.154-8.22c0,0,14.206,5.847,14.468,5.428l-12.257-7.659c0.183-0.293,13.914,6.102,14.175,5.684      c0,0-13.146-7.629-12.882-8.05l16.052,5.008c0.118-0.19-12.414-7.259-12.19-7.617c0,0,16.148,6.053,16.442,5.584      c0.044-0.071-14.287-8.928-14.287-8.928c0.256-0.409,16.683,6.892,16.913,6.524c0.066-0.106-14.811-8.66-14.543-9.087      l16.947,6.499c0,0-14.128-8.705-14.073-8.793c0.084-0.135,17.554,5.905,17.568,5.883c0.221-0.354-13.019-7.846-12.889-8.054      l15.258,4.988c0.214-0.343-13.288-8.303-13.288-8.303l15.933,6.399c0.032-0.051-12.759-7.858-12.708-7.94      c0.141-0.226,15.3,6.467,15.3,6.467c0.268-0.428-12.976-8.063-12.956-8.096c0.002-0.003,15.445,6.067,15.445,6.067      l-12.192-7.619c0.2-0.319,16.013,5.69,16.013,5.69c0.096-0.153-14.11-8.817-14.11-8.817c0.077-0.124,16.286,6.921,16.286,6.921      l-13.582-8.487c0,0,17.252,7.304,17.323,7.19c0.299-0.478-14.139-8.292-13.895-8.683c0.252-0.403,16.385,7.055,16.558,6.778      c0.076-0.122-13.907-8.69-13.907-8.69c0.191-0.307,16.373,7.064,16.381,7.052l-14.152-8.843l18.745,6.845      c0.06-0.095-15.328-9.259-15.185-9.488c0.305-0.487,17.551,6.817,17.551,6.817s-13.149-7.765-12.946-8.089      c0.055-0.087,16.765,5.596,16.765,5.596s-13.629-7.812-13.312-8.318c0,0,16.938,7.973,17.158,7.621      c0,0-14.989-8.794-14.731-9.206l16.512,7.02c0.151-0.242-13.407-8.378-13.407-8.378s18.612,7.051,18.702,6.907      c0,0-14.451-8.361-14.15-8.842c0,0,19.059,7.409,19.292,7.036c0,0-15.626-9.314-15.424-9.638      c0.095-0.151,19.586,8.193,19.939,7.629l-15.956-9.97c0.126-0.202,20.361,8.18,20.459,8.022      c0.144-0.23-16.803-10.078-16.613-10.381c0.045-0.072,21.162,8.195,21.194,8.144c0,0-15.233-9.424-15.19-9.492      c0,0,19.925,7.822,20.094,7.551c0.191-0.306-16.439-10.272-16.439-10.272l20.823,8.813c0.262-0.419-16.474-10.24-16.45-10.279      c0.399-0.639,21.667,9.062,21.677,9.046c0.306-0.489-17.167-10.727-17.167-10.727c0.431-0.689,21.857,9.125,21.894,9.067      c0.156-0.25-16.331-10.095-16.282-10.174c0.352-0.562,21.486,8.883,21.486,8.883s-17.729-10.769-17.59-10.992l22.4,10.006      c0.377-0.604-18.219-11.384-18.219-11.384s20.675,10.163,20.997,9.648l-16.045-10.026c0.418-0.67,20.719,9.035,20.719,9.035      s-17.032-10.537-16.984-10.613c0.057-0.091,21.609,9.646,21.609,9.646c0.212-0.341-17.446-10.417-17.228-10.765      c0,0,23.046,9.837,23.218,9.562l-17.608-11.002c0.115-0.183,24.072,10.839,24.168,10.687l-18.359-11.472      c0.233-0.374,22.247,11.458,22.688,10.75l-18.885-11.801c0,0,26.145,12.229,26.567,11.553l-21.156-13.219l25.637,11.971      c0.448-0.716-19.586-11.752-19.368-12.102c0.033-0.052,27.933,12.721,28.087,12.475c0,0-22.841-13.468-22.479-14.047      c0,0,27.854,13.641,27.991,13.422c0,0-21.807-12.53-21.314-13.319c0.273-0.437,28.988,14.277,29.449,13.54      c0.341-0.546-24.137-14.748-23.986-14.988c0.314-0.503,30.172,14.96,30.172,14.96c0.082-0.131-25.033-14.459-24.502-15.31      c0.002-0.003,30.168,16.375,30.544,15.772c0.09-0.143-24.655-15.406-24.655-15.406s32.808,16.771,33.156,16.213      c0.065-0.105-26.931-15.944-26.533-16.58c0.149-0.239,34.491,17.984,34.491,17.984c0.544-0.871-28.615-17.881-28.615-17.881      c0.109-0.174,37.627,19.51,37.627,19.51c0.239-0.383-31.954-18.842-31.448-19.651c0.154-0.247,41.211,22.398,41.629,21.73      c0.602-0.962-34.437-19.833-33.68-21.045c0,0,45.018,25.474,45.46,24.766l-39.547-24.712      c0.384-0.614,59.151,32.134,59.163,32.115c0,0-50.341-29.946-49.662-31.032" style="fill:none;stroke:#262626;stroke-width:2;stroke-linecap:round;stroke-linejoin:round;"/><path d="M134.275,403.278      c0.436-0.698-26.95-16.144-26.637-16.646l55.099,30.206L83.762,367.49l98.303,56.688c1.225-1.96-110.936-69.32-110.936-69.32      l123.366,73.299c2.542-4.067-130.263-81.397-130.263-81.397c2.798-4.477,140.657,83.888,140.657,83.888      c2.481-3.971-147.675-92.277-147.675-92.277c1.004-1.606,161.152,95.607,161.152,95.607      c0.169-0.271-48.937-30.579-48.937-30.579s58.146,33.792,58.755,32.817c0.29-0.463-42.94-24.843-42.046-26.273l51.837,27.252      c0.485-0.775-37.017-21.835-36.434-22.767l47.243,24.563c0.171-0.273-34.155-19.961-33.534-20.954l39.039,21.073      c0.353-0.564-32.153-19.142-31.726-19.825c0.51-0.815,37.114,20.454,37.31,20.142l-29.979-18.732l38.647,19.702      c0.546-0.874-29.161-17.894-29.013-18.129c0.316-0.507,35.64,17.707,35.64,17.707c0.483-0.774-27.059-15.719-26.524-16.574      L282,439.998c0.53-0.848-25.738-15.035-25.267-15.789c0.004-0.006,30.519,16.393,31.062,15.523      c0.315-0.504-24.396-15.245-24.396-15.245c0.646-1.032,31.225,15.652,31.225,15.652c0.09-0.144-25.146-15.713-25.146-15.713      l30.576,14.431c0.148-0.238-22.57-14.103-22.57-14.103c0.107-0.172,27.594,14.997,28.018,14.319c0,0-23.64-14.648-23.585-14.737      c0.007-0.011,29.229,14.058,29.243,14.034l-21.575-13.481l27.98,12.419c0.422-0.675-20.844-12.893-20.785-12.988      c0.377-0.602,24.828,12.44,24.828,12.44s-21.385-13.076-21.256-13.282l24.196,11.639c0,0-19.891-12.009-19.701-12.311      l26.76,11.691c0,0-20.004-11.652-19.623-12.262c0,0,23.35,11.219,23.701,10.656l-18.996-11.87l24.7,10.562      c0.028-0.046-19.349-11.239-18.966-11.852l23.74,10.66c0,0-19.375-11.194-18.965-11.851l24.949,10.716      c0.305-0.488-19.216-11.919-19.176-11.982c0,0,22.719,9.63,22.914,9.318c0.065-0.105-17.475-10.92-17.475-10.92      c0.354-0.566,21.601,9.506,21.811,9.17c0.162-0.259-16.785-10.489-16.785-10.489c0.272-0.436,21.348,9.328,21.772,8.648      c0.249-0.397-16.293-10.182-16.293-10.182s20.746,9.386,20.961,9.042c0,0-17.267-10.196-17-10.623l20.562,8.052      c0.219-0.35-16.073-9.756-15.943-9.963c0.149-0.239,19.727,9.116,19.782,9.027c0.008-0.012-16.359-10.223-16.359-10.223      s20.288,8.684,20.631,8.135c0.257-0.412-17.399-10.872-17.399-10.872c0.098-0.155,20.059,9.218,20.059,9.218      c0.085-0.136-17.031-10.642-17.031-10.642c0.03-0.048,21.051,9.065,21.051,9.065s-16.888-10.019-16.647-10.402      c0.395-0.632,20.623,7.913,20.623,7.913c0.063-0.101-15.937-9.958-15.937-9.958c0.265-0.424,18.227,8.017,18.227,8.017      l-16.505-10.313c0.012-0.019,20.389,8.759,20.389,8.759c0.007-0.011-16.458-9.821-16.25-10.154      c0.342-0.547,18.187,7.961,18.187,7.961l-15.612-9.756c0.267-0.427,18.293,8.762,18.564,8.327c0,0-16.676-9.745-16.372-10.23      c0.21-0.337,19.146,8.14,19.146,8.14c0.078-0.125-15.197-9.497-15.197-9.497c0.062-0.099,17.819,7.601,18.129,7.105      c0.228-0.364-15.269-8.952-15.004-9.376c0.27-0.432,18.936,6.951,18.936,6.951c0.253-0.403-15.674-9.254-15.431-9.643      c0.04-0.063,17.513,7.595,17.513,7.595c0.131-0.21-15.397-9.621-15.397-9.621c0.164-0.262,17.788,7.593,17.788,7.593      c0.315-0.505-15.866-9.824-15.825-9.889c0.273-0.438,18.835,7.544,18.835,7.544c0.049-0.079-15.241-8.907-14.965-9.351      l17.836,6.778l-15.124-9.45c0,0,17.882,7.259,18.005,7.062l-15.245-9.526l16.553,6.549l-14.148-8.841l17.284,6.382      c0.146-0.234-15.113-8.9-14.869-9.291c0.133-0.212,17.387,6.448,17.674,5.989c0,0-14.314-8.608-14.163-8.851l16.551,7.142      c0.1-0.159-14.768-9.185-14.748-9.216c0,0,17.804,6.635,17.889,6.499c0.296-0.473-14.758-9.222-14.758-9.222      c0.083-0.133,15.913,6.73,15.913,6.73c0.003-0.005-13.905-8.688-13.905-8.688s16.446,6.514,16.662,6.169      c0,0-15.452-9.557-15.408-9.628c0.269-0.43,16.396,7.178,16.396,7.178c0.022-0.036-14.012-8.756-14.012-8.756      c0.02-0.032,16.174,6.507,16.292,6.317l-14.27-8.916c0.188-0.3,15.833,6.084,15.85,6.058c0,0-13.952-8.059-13.656-8.533      c0,0,14.798,6.226,14.947,5.987l-13.898-8.686l17.043,6.108c0.182-0.29-14.411-9.005-14.411-9.005c0.161-0.258,17.42,6,17.42,6      c0.207-0.332-15.319-9.573-15.319-9.573s15.974,5.098,16.002,5.054c0,0-14.145-8.716-14.09-8.805c0,0,15.717,6.438,15.723,6.429      c0,0-13.781-8.501-13.731-8.581c0.107-0.172,15.397,6.121,15.536,5.897l-14.198-8.872c0,0,16.621,5.999,16.764,5.771      l-15.169-9.479c0.199-0.318,15.474,6.435,15.603,6.228c0.21-0.335-13.464-8.413-13.464-8.413l16.007,5.791      c0.277-0.444-15.771-9.504-15.613-9.756c0,0,16.822,7.293,16.959,7.074c0.33-0.527-15.915-9.378-15.66-9.785l16.562,6.439      c0.142-0.229-14.24-8.898-14.24-8.898c0.016-0.026,16.815,6.419,16.815,6.419l-16.157-10.097l17.121,7.104l-14.954-9.344      c0.078-0.124,15.758,4.678,15.758,4.678l-14.4-8.999l15.635,6.436l-14.766-9.227c0.024-0.039,15.789,7.088,15.986,6.771      c0.022-0.034-15.921-9.688-15.804-9.875c0,0,17.223,7.081,17.395,6.806c0,0-16.617-9.759-16.336-10.208      c0,0,17.348,6.415,17.447,6.255c0.118-0.189-14.852-9.28-14.852-9.28c0.127-0.202,15.804,4.994,15.804,4.994l-15.933-9.956      c0,0,16.974,5.949,17.015,5.885c0,0-14.592-8.957-14.52-9.073l16.444,6.02c0,0-16.116-10.02-16.094-10.056      c0.109-0.175,16.864,7.262,16.864,7.262c0.158-0.252-15.787-9.729-15.726-9.827l15.337,5.947c0,0-15.129-8.79-14.83-9.267      c0.287-0.461,15.485,6.546,15.485,6.546c0.198-0.317-16.485-9.522-16.136-10.083c0.099-0.157,16.284,6.611,16.445,6.354      c0.188-0.302-14.67-9.167-14.67-9.167s15.189,4.597,15.296,4.426c0,0-16.063-9.748-15.933-9.956l16.834,6.534      c0.002-0.003-15.672-9.678-15.62-9.761c0.319-0.511,16.47,5.273,16.47,5.273c0.037-0.06-16.675-10.42-16.675-10.42      c0.256-0.41,17.158,7.177,17.258,7.019c0.302-0.483-15.933-9.573-15.76-9.849l15.475,5.15l-16.602-10.374      c0,0,17.93,7.284,18.11,6.995c0.244-0.391-17.936-10.431-17.586-10.989l17.813,7.966c0,0-17.399-10.136-17.068-10.666      c0.268-0.427,16.167,6.458,16.167,6.458c0.338-0.541-16.604-10.375-16.604-10.375s16.212,6.061,16.385,5.784l-17.44-10.897      c0.171-0.274,18.304,7.242,18.35,7.167c0.204-0.326-17.627-10.479-17.387-10.864c0.311-0.497,17.443,6.838,17.701,6.424      c0.389-0.622-18.451-11.53-18.451-11.53l17.54,7.273c0.273-0.438-18.052-10.403-17.658-11.034l18.48,7.357      c0.322-0.515-20.144-12.201-19.97-12.479c0.033-0.054,17.912,7.087,18.172,6.671l-18.492-11.555c0,0,18.671,7.654,18.691,7.621      c0,0-19.692-11.531-19.345-12.087c0.293-0.469,18.326,8.312,18.433,8.142c0.421-0.673-20.012-11.842-19.714-12.319      c0,0,18.504,7.109,18.824,6.597l-21.063-13.162c0.176-0.28,19.181,7.342,19.321,7.118c0.279-0.447-21.444-12.677-21.119-13.196      l20.631,9.049c0.41-0.658-22.206-13.876-22.206-13.876l21.567,10.311c0,0-22.713-13.545-22.423-14.011l21.846,10.567      c0.175-0.28-23.197-14.495-23.197-14.495c0.406-0.649,21.814,8.86,21.814,8.86l-24.633-15.392      c0.047-0.074,23.025,10.371,23.025,10.371c0.311-0.497-26.199-16.371-26.199-16.371s24.83,12,24.891,11.905      c0.542-0.869-28.229-16.582-27.754-17.342c0.426-0.68,23.852,9.966,23.852,9.966c0.087-0.139-27.092-16.929-27.092-16.929      l25.688,12.21c0.593-0.949-30.301-18.934-30.301-18.934c0.337-0.54,27.146,12.833,27.146,12.833      c0.652-1.043-30.475-19.043-30.475-19.043c0.136-0.218,27.666,12.542,27.666,12.542l-35.367-22.1      c0.186-0.296,31.413,15.17,31.523,14.993c0.655-1.048-40.266-23.787-39.648-24.775c0.691-1.107,34.935,17.604,34.935,17.604      l-46.818-29.255c0.296-0.473,43.081,23.362,43.081,23.362c0.093-0.149-139.596-87.229-139.596-87.229l134.123,79.642      L321.98,46.014c1.309-2.094,116.321,75.1,118.847,71.058c0.134-0.213-112.303-66.277-110.551-69.08      c1.562-2.5,103.84,63.62,104.708,62.229c0,0-95.894-57.746-94.916-59.311c1.395-2.232,84.472,48.316,84.472,48.316      c0.845-1.353-70.518-43.593-70.306-43.932l51.321,28.077c0.627-1.004-29.338-17.244-28.849-18.027" style="fill:none;stroke:#262626;stroke-width:2;stroke-linecap:round;stroke-linejoin:round;"/><path d="M342.253,188.546      c0.904-1.447-55.002-33.586-54.649-34.149c0.197-0.316,47.603,26.609,47.603,26.609l-23.191-14.492" style="fill:none;stroke:#262626;stroke-width:2;stroke-linecap:round;stroke-linejoin:round;"/><path d="M307.313,163.831      c0,0-16.028-9.514-15.802-9.875c0.378-0.605,21.41,8.571,21.41,8.571c0.005-0.007-16.822-10.312-16.732-10.456      c0,0,20.054,9.864,20.434,9.257c0.239-0.383-17.165-10.091-16.88-10.547c0.354-0.566,21.592,9.693,21.764,9.417      c0,0-16.354-10.086-16.295-10.182c0,0,23.558,10.72,23.708,10.478l-17.348-10.84l22.015,10.625      c0.157-0.251-18.73-11.705-18.73-11.705" style="fill:none;stroke:#262626;stroke-width:2;stroke-linecap:round;stroke-linejoin:round;"/><path d="M159.312,228.511      c0,0-1.037-0.639-1.033-0.645c0,0,2.979-2.492,2.98-2.495c0.021-0.034-1.303-0.814-1.303-0.814      c0.067-0.107,4.503-0.548,4.503-0.548c0.058-0.093-3.076-1.899-3.066-1.916c0.028-0.045,4.702-0.823,4.702-0.823      c0.048-0.078-3.015-1.697-2.931-1.832c0,0,7.612-0.08,7.681-0.19l-5.687-3.554l8.077,0.881c0.048-0.077-5.69-3.556-5.69-3.556      c0.011-0.018,9.045,2.474,9.17,2.273c0.14-0.223-8.284-5.176-8.284-5.176l10.903,3.465c0,0-9.011-5.584-8.99-5.617l11.658,2.174      l-8.91-5.568c0,0,12.911,4.2,13.078,3.933c0.132-0.21-10.525-6.577-10.525-6.577c0.112-0.18,13.753,4.161,13.915,3.902      c0,0-11.223-6.872-11.16-6.974c0.093-0.148,14.207,4.959,14.239,4.908l-10.686-6.677c0.191-0.305,14.94,4.795,14.94,4.795      l-12.864-8.038l15.937,4.844c0.272-0.436-11.762-6.747-11.491-7.18c0.208-0.333,14.747,5.931,14.983,5.553l-12.247-7.653      l16.568,5.889c0,0-13.641-8.411-13.59-8.492c0.068-0.109,17.551,6.013,17.586,5.956l-13.253-8.281l18.382,6.846l-14.727-9.202      c0,0,17.105,7.382,17.329,7.025c0.179-0.286-14.46-9.036-14.46-9.036" style="fill:none;stroke:#262626;stroke-width:2;stroke-linecap:round;stroke-linejoin:round;"/><path d="M224.873,229.012      l-28.064-17.537c0.161-0.258,29.315,14.799,29.489,14.521l-27.964-17.474c0.339-0.542,27.54,13.996,27.54,13.996l-24.622-15.385      l27.456,13.814l-25.35-15.84c0,0,25.899,13.45,26.252,12.886l-23.506-14.688c0.461-0.737,24.552,12.265,24.552,12.265      c0.154-0.247-22.889-13.46-22.51-14.066c0.345-0.553,25.057,12.538,25.057,12.538c0.174-0.278-22.767-14.227-22.767-14.227      c0.127-0.203,25.712,11.473,25.886,11.195c0.248-0.397-23.683-14.798-23.683-14.798c0.455-0.728,25.217,11.101,25.217,11.101      l-21.065-13.163l24.163,11.893c0.284-0.455-22.439-14.022-22.439-14.022s25.062,10.917,25.129,10.81l-38.385-23.985      c0.773-1.238,41.998,22.162,41.998,22.162c0.233-0.374-37.836-23.25-37.66-23.532l42.528,22.879l-39.332-24.577l42.119,22.651      c0.47-0.752-40.205-25.123-40.205-25.123c0.909-1.455,44.079,25.415,44.841,24.195c0.521-0.833-41.302-23.981-40.481-25.295      l46.374,25.484c0.616-0.987-42.893-26.802-42.893-26.802c0.516-0.826,48.02,27.733,48.847,26.41      c0.703-1.126-45.495-28.062-45.33-28.325c0.004-0.006,53.567,29.547,53.567,29.547l-50.981-31.856      c0.143-0.229,59.441,36.276,60.631,34.372c0,0-56.438-34.668-56.17-35.099" style="fill:none;stroke:#262626;stroke-width:2;stroke-linecap:round;stroke-linejoin:round;"/><path d="M224.452,255.367      l-43.807-27.374c0.923-1.478,45.196,25.969,45.727,25.119c0,0-43.371-25.262-42.545-26.585      c0.406-0.649,50.43,26.903,50.689,26.488c0,0-49.167-28.418-48.131-30.076c0,0,56.05,32.113,57.009,30.578      c0,0-55.281-32.874-54.531-34.075c0,0,59.445,35.314,60.497,33.632c0,0-59.062-36.354-58.814-36.751      c1.043-1.669,65.268,36.672,65.268,36.672c0.362-0.579-62.026-37.62-61.514-38.438l70.439,39.109      c0,0-38.413-22.822-37.882-23.671c0.587-0.94,43.872,22.925,43.872,22.925l-37.469-23.414      c0.407-0.651,44.407,23.548,44.407,23.548s-37.817-22.343-37.238-23.269c0.173-0.277,45.231,23.968,45.231,23.968      c0.468-0.749-39.267-24.537-39.267-24.537c0.911-1.458,47.866,24.916,47.866,24.916c0.2-0.32-39.62-24.757-39.62-24.757      l47.036,25.219l-39.55-24.713c0.167-0.267,48.353,25.303,48.381,25.258c0,0-41.621-24.783-41.071-25.664      c0.889-1.422,47.264,25.191,47.264,25.191c0.118-0.188-40.303-25.184-40.303-25.184s47.39,27.62,48.22,26.291      c0,0-42.235-25.123-41.665-26.035c0,0,49.378,26.685,49.593,26.342c0,0-41.07-25.155-40.842-25.521      c0.778-1.247,45.754,25.398,45.754,25.398l-41.34-25.832c0.561-0.897,48.122,26.86,48.122,26.86l-43.295-27.053l52.302,27.824      c0,0-43.913-26.471-43.478-27.168c0.751-1.202,52.728,27.886,52.728,27.886l-51.795-32.365l53.395,29.76      c0.312-0.499-55.572-34.725-55.572-34.725s54.695,30.512,54.797,30.35c0,0-57.254-33.364-56.17-35.099      c0.233-0.373,55.881,30.484,55.881,30.484s-67.38-39.361-66.147-41.333c0.991-1.585,67.022,37.409,67.022,37.409      l-125.668-78.526l125.601,74.532c0.22-0.351-122.702-76.673-122.702-76.673c0.299-0.478,121.908,71.793,121.908,71.793      L247.4,161.82c0.252-0.404,114.204,71.473,116.2,68.278c1.604-2.566-112.967-66.979-111.344-69.576      c0.065-0.104,109.038,68.921,110.824,66.063c2.159-3.455-106.825-66.751-106.825-66.751l107.136,62.315      c0,0-102.721-62.045-101.758-63.585l99.302,56.975c0,0-93.063-56.606-92.368-57.718c1.889-3.022,92.041,54.337,92.041,54.337      c0.481-0.771-85.994-53.735-85.994-53.735l81.682,46.228c0,0-77.652-45.787-76.423-47.754l77.321,44.711l-73.699-46.052      l75.382,42.073c0.323-0.517-14.438-8.652-14.271-8.918c0,0,14.752,5.837,14.804,5.754l-13.979-8.735l15.007,5.793      c0.146-0.233-14.143-8.837-14.143-8.837c0.082-0.131,16.069,6.323,16.185,6.138c0,0-15.603-9.45-15.468-9.666      c0.165-0.264,15.761,6.731,15.761,6.731s-15.135-9.259-15.046-9.402c0,0,14.77,5.694,14.914,5.464      c0,0-15.294-9.016-15.051-9.405c0.263-0.419,15.567,5.607,15.682,5.424c0.083-0.133-17.551-10.967-17.551-10.967      c0.296-0.475,18.238,8.675,18.459,8.322c0.343-0.549-44.188-27.302-44.048-27.524c0.639-1.023,43.008,23.38,43.281,22.942      c0.8-1.28-36.56-22.845-36.56-22.845c0.244-0.391,36.023,18.531,36.023,18.531c0.554-0.887-30.158-18.106-29.826-18.637      l27.09,12.13l-18.314-11.444" style="fill:none;stroke:#262626;stroke-width:2;stroke-linecap:round;stroke-linejoin:round;"/><path d="M240.016,281.843      c0.251-0.402-66.578-41.603-66.578-41.603s56.128,32.121,57.105,30.557c0.41-0.655-54.329-33.948-54.329-33.948      c0.185-0.296,50.328,28.052,51.065,26.872c0,0-50.333-30.599-49.95-31.212c0.886-1.417,48.315,25.564,48.315,25.564      c0.353-0.564-45.047-28.148-45.047-28.148s44.084,26.217,45.024,24.712c0,0-1.512-0.938-1.509-0.943" style="fill:none;stroke:#262626;stroke-width:2;stroke-linecap:round;stroke-linejoin:round;"/><path d="M166.377,315.793      c0.166-0.265-17.879-11.003-17.803-11.125c0.097-0.155,14.981,4.686,14.981,4.686c0.285-0.456-14.065-8.368-13.876-8.671      l12.717,3.06c0.059-0.094-12.928-8.078-12.928-8.078c0.111-0.178,14.432,5.066,14.547,4.882c0,0-13.351-8.156-13.268-8.29      l13.173,4.879c0.287-0.459-12.658-7.304-12.386-7.739c0.119-0.191,13.801,4.566,13.801,4.566      c0.06-0.096-14.295-8.933-14.295-8.933c0.151-0.242,16.264,6.025,16.306,5.957c0.26-0.417-13.942-8.576-13.881-8.674      c0,0,13.669,5.363,13.818,5.126l-14.441-9.024l16.856,7.243c0.018-0.029-14.942-9.238-14.898-9.31      c0.249-0.397,15.645,5.423,15.645,5.423c0.175-0.279-14.444-8.774-14.332-8.955c0,0,15.841,7.347,16.074,6.973      c0.165-0.263-16.125-9.892-16.042-10.024c0.173-0.276,16.714,6.225,16.775,6.127l-14.85-9.279" style="fill:none;stroke:#262626;stroke-width:2;stroke-linecap:round;stroke-linejoin:round;"/><path d="M165.264,329.139      c0.16-0.256-9.535-5.702-9.419-5.887l20.217,8.409l-24.877-15.544l33.049,15.912c0.385-0.616-34.425-21.511-34.425-21.511      l40.068,21.248c0.791-1.266-40.002-24.995-40.002-24.995c0.858-1.373,44.272,23.659,44.272,23.659      c0.292-0.468-16.708-10.44-16.708-10.44c0.135-0.217,23.43,9.549,23.43,9.549c0.056-0.089-16.094-10.057-16.094-10.057      s21.006,9.697,21.216,9.361c0.108-0.173-15.959-9.231-15.626-9.765l20.011,7.363c0.204-0.326-15.552-9.171-15.306-9.564      l21.495,8.475c0.078-0.125-15.964-9.339-15.678-9.797l18.08,7.978c0.167-0.269-15.339-9.133-15.136-9.458      c0.24-0.384,18.115,8.352,18.207,8.205l-14.916-9.321l27.882,12.977c0.888-1.421-47.071-28.881-46.832-29.264      c0.536-0.857,59.1,32.367,59.1,32.367c1.184-1.895-66.953-38.931-65.646-41.021l75.237,42.768      c1.629-2.606-80.38-47.003-78.932-49.321c0.011-0.018,84.755,52.545,86.315,50.048c1.132-1.812-89.22-55.75-89.22-55.75      c2.077-3.324,97.048,56.783,97.048,56.783c0.413-0.661-112.479-70.284-112.479-70.284l118.59,69.429      c0.748-1.197-116.35-72.703-116.35-72.703c0.484-0.775,120.021,76.065,121.935,73.005c0,0-121.366-75.189-121.074-75.655      c0.031-0.05,126.629,75.033,126.694,74.929l-123.643-77.261l129.622,75.932c2.507-4.011-127.773-79.057-127.421-79.622      c2.076-3.322,131.271,78.954,131.271,78.954s-131.449-80.365-130.652-81.641l133.061,79.665c0,0-132.839-80.316-131.629-82.251      l137.967,81.182c0,0-137.642-80.299-135.076-84.405c0,0,136.315,85.881,138.498,82.389l-51.96-32.469l56.748,30.588      c0.069-0.11-47.977-27.89-47.038-29.393l51.076,27.741c0,0-45.648-26.38-44.685-27.922l49.684,26.172      c0.699-1.119-43.455-26.95-43.363-27.097c0,0,45.754,24.501,46.162,23.847c0.149-0.239-40.688-25.426-40.688-25.426      c0.745-1.193,43.626,23.783,44.068,23.076c0.363-0.582-39.529-24.7-39.529-24.7c0.568-0.91,42.648,23.668,43.536,22.247      c0.562-0.898-38.766-24.224-38.766-24.224s41.975,23.178,42.426,22.455c0,0-40.106-23.71-39.499-24.683l41.925,21.4      c0.504-0.808-39.07-23.748-38.771-24.227c0.327-0.523,41.615,22.94,41.736,22.746c0.017-0.026-39.496-24.681-39.496-24.681      s41.637,22.898,42.372,21.722c0.614-0.983-41.025-25.635-41.025-25.635c0.216-0.346,42.789,23.42,42.789,23.42      c0.206-0.33-41.153-25.715-41.153-25.715c0.065-0.104,43.902,23.345,43.902,23.345s-39.436-23.397-38.876-24.293      c0.825-1.32,41.227,20.788,41.227,20.788c0.124-0.199-31.984-19.985-31.984-19.985c0.497-0.796,33.124,17.325,33.124,17.325      l-28.264-17.661c0.018-0.028,30.781,15.253,30.781,15.253c0.01-0.016-23.217-13.855-22.924-14.324      c0.448-0.719,23.502,11.282,23.502,11.282l-17.469-10.916c0.277-0.443,18.984,9.218,19.267,8.766c0,0-13.946-8.152-13.693-8.557      c0.161-0.259,14.973,5.531,14.973,5.531c0.038-0.062-7.074-4.42-7.074-4.42c0.026-0.042,8.161,1.172,8.294,0.96      c0.022-0.037-0.639-0.342-0.613-0.383" style="fill:none;stroke:#262626;stroke-width:2;stroke-linecap:round;stroke-linejoin:round;"/></g></g></g></g><g id="Layer_1"/></svg>