<?xml version="1.0" ?><!DOCTYPE svg  PUBLIC '-//W3C//DTD SVG 1.1//EN'  'http://www.w3.org/Graphics/SVG/1.1/DTD/svg11.dtd'><svg height="512px" style="enable-background:new 0 0 512 512;" version="1.1" viewBox="0 0 512 512" width="512px" xml:space="preserve" xmlns="http://www.w3.org/2000/svg" xmlns:xlink="http://www.w3.org/1999/xlink"><g id="pintrest__x2C__social__x2C__media__x2C__icon"><g><g><g><path d="M117.338,374.444      c1.108-1.772-62.007-38.231-61.775-38.602l39.787,20.336c0.35-0.561-44.266-27.66-44.266-27.66      c0.644-1.03,35.06,18.602,35.06,18.602l-39.135-24.454l31.241,15.799c0,0-34.975-20.242-34.25-21.402      c0.219-0.35,29.125,14.664,29.183,14.573c0,0-33.151-19.156-32.45-20.277c0,0,25.609,11.197,25.694,11.061      c0.613-0.981-28.487-17.801-28.487-17.801c0.381-0.609,26.657,13.569,26.657,13.569s-28.248-16.345-27.661-17.284      c0.206-0.329,23.466,9.75,23.466,9.75c0.214-0.343-25.72-16.071-25.72-16.071l22.137,8.784c0,0-24.056-14.949-24.019-15.009      l20.45,7.684c0.009-0.014-22.494-14.056-22.494-14.056c0.309-0.494,20.024,7.413,20.024,7.413      c0.229-0.365-22.063-12.729-21.588-13.489c0.169-0.271,20.11,8.425,20.254,8.194c0.134-0.214-21.14-12.982-21.038-13.146      c0.128-0.204,18.585,7.61,18.894,7.117l-19.871-12.417c0.225-0.359,18.562,7.09,18.562,7.09      c0.246-0.394-19.96-11.948-19.725-12.325c0,0,18.663,7.923,18.789,7.721c0,0-19.122-11.332-18.845-11.775      c0.202-0.323,17.744,7.387,17.981,7.007c0,0-18.659-11.383-18.535-11.582l19.557,7.677c0,0-19.928-11.833-19.649-12.278      c0,0,17.755,7.664,17.967,7.324c0.341-0.546-16.659-9.646-16.316-10.195c0.04-0.064,16.373,5.631,16.373,5.631      s-16.369-10.084-16.304-10.188c0.28-0.448,15.934,5.638,16.239,5.149c0.187-0.298-16.99-10.617-16.99-10.617      c0.093-0.148,17.764,7.535,17.813,7.456c0.366-0.586-16.463-10.185-16.417-10.258l15.797,6.778      c0.042-0.068-15.435-9.645-15.435-9.645s15.632,6.102,15.897,5.679l-15.859-9.91c0.123-0.197,15.867,6.822,15.867,6.822      s-16.653-9.932-16.44-10.273c0.132-0.212,17.541,8.372,17.867,7.85c0.002-0.003-15.931-9.955-15.931-9.955      c0.142-0.226,15.218,5.624,15.486,5.195l-14.74-9.21c0,0,15.93,5.413,16.202,4.979L31.51,210.35      c0.237-0.38,16.09,5.96,16.094,5.954c0.143-0.229-16.664-9.749-16.365-10.226l16.372,5.11c0,0-15.328-9.438-15.265-9.539      c0,0,16.955,6.285,17.204,5.886c0,0-14.9-9.289-14.89-9.304c0,0,15.526,7.195,15.783,6.783      c0.079-0.126-15.328-9.354-15.227-9.515l16.422,5.819c0,0-15.61-9.388-15.445-9.651c0.291-0.466,15.563,5.73,15.826,5.31      c0.168-0.27-14.25-8.904-14.25-8.904l16.148,5.8c0.251-0.402-14.608-8.932-14.52-9.073c0.229-0.367,15.488,6.262,15.488,6.262      s-14.635-8.624-14.401-8.999c0.188-0.301,15.776,5.012,15.846,4.9c0.29-0.463-14.697-9.184-14.697-9.184      c0.052-0.083,15.15,5.801,15.195,5.729l-12.967-8.102c0.161-0.257,15.786,5.369,15.786,5.369      c0.119-0.19-14.93-9.255-14.896-9.308c0.111-0.178,16.528,5.448,16.528,5.448c0.038-0.06-14.355-8.97-14.355-8.97      c0.224-0.359,14.894,5.935,14.894,5.935s-13.567-7.889-13.302-8.313c0.224-0.359,16.128,5.116,16.159,5.066      c0,0-14.702-8.574-14.427-9.015c0.223-0.357,15.251,5.735,15.501,5.335c0.095-0.152-13.478-8.216-13.386-8.364l16.382,6.626      l-14.856-9.283c0.017-0.027,16.322,6.753,16.322,6.753c0.057-0.091-14.279-8.409-14.048-8.778      c0.22-0.352,14.167,5.976,14.438,5.543c0,0-12.988-8.09-12.977-8.109c0.207-0.331,14.105,5.744,14.105,5.744      c0.293-0.47-12.958-7.915-12.876-8.046c0,0,15.446,5.033,15.646,4.713l-13.068-8.166c0,0,15.721,6.772,16.021,6.292      c0.096-0.153-14.004-8.241-13.775-8.608l14.36,5.463c0,0-12.231-7.522-12.177-7.609l14.335,5.214      c0.023-0.038-12.43-7.43-12.279-7.672c0,0,14.571,4.306,14.574,4.301c0.077-0.123-12.479-7.439-12.317-7.697      c0.249-0.399,14.313,5.936,14.356,5.865c0.104-0.165-13.473-8.418-13.473-8.418l16.159,5.012l-13.161-8.224l15.637,5.186      l-12.113-7.569c0.029-0.047,15.052,5.522,15.263,5.184c0.21-0.335-12.412-7.534-12.313-7.693c0,0,15.216,5.163,15.367,4.921      c0.166-0.265-12.6-7.874-12.6-7.874s14.869,5.782,15.135,5.357c0,0-14.34-8.413-14.094-8.807c0,0,17.009,6.466,17.144,6.25      c0.093-0.148-13.099-7.685-12.874-8.044c0.155-0.248,14.521,5.078,14.521,5.078c0.183-0.293-12.45-7.338-12.251-7.655      c0,0,14.533,6.545,14.794,6.127l-12.594-7.87l14.674,5.677c0.015-0.024-12.914-8.07-12.914-8.07s15.838,6.243,15.85,6.225      l-12.908-8.066c0,0,15.78,5.618,16.027,5.223c0,0-13.228-7.918-13.072-8.168c0.207-0.331,14.883,5.751,15.146,5.329      l-12.989-8.117c0,0,16.323,5.495,16.522,5.176c0,0-13.303-7.668-13.013-8.132l16.333,6.942c0.273-0.438-14.483-9.05-14.483-9.05      s16.808,6.864,17.038,6.497c0.07-0.113-12.955-7.672-12.765-7.976c0,0,16.179,6.298,16.464,5.841l-14.386-8.989      c0.042-0.066,17.561,6.258,17.561,6.258l-12.86-8.036c0,0,16.591,5.596,16.67,5.469c0.064-0.103-13.326-8.327-13.326-8.327      c0.234-0.374,17.318,6.43,17.323,6.422c0.191-0.307-14.824-9.263-14.824-9.263c0.322-0.515,17.431,7.066,17.431,7.066      l-14.4-8.999c0.283-0.453,17.944,7.377,18,7.287c0,0-13.298-8.26-13.276-8.296c0.302-0.483,17.054,6.672,17.274,6.32      c0.188-0.301-14.541-9.086-14.541-9.086l16.595,6.394c0.011-0.017-13.59-8.492-13.59-8.492s17.644,8.292,17.889,7.9      c0,0-15.391-9.339-15.266-9.539c0.133-0.213,17.137,7.348,17.137,7.348s-13.878-8.506-13.804-8.625      c0,0,16.784,7.365,17.079,6.894l-13.883-8.675c0,0,17.243,7.719,17.338,7.565c0.061-0.098-14.433-8.841-14.353-8.969      c0,0,17.524,7.815,17.759,7.439c0.153-0.245-14.214-8.882-14.214-8.882c0.028-0.045,18.031,7.649,18.381,7.089      c0.152-0.243-14.598-9.102-14.589-9.116c0.218-0.348,19.89,7.483,19.89,7.483l-15.713-9.819l18.814,8.418      c0,0-15.638-9.479-15.506-9.689l18.431,8.302c0,0-16.249-9.926-16.146-10.089l19.096,8.567l-14.577-9.108      c0.139-0.222,19.94,7.324,19.94,7.324l-14.872-9.292c0,0,19.4,8.506,19.592,8.198c0.328-0.524-16.493-9.718-16.229-10.141      l20.586,8.627c0.022-0.036-15.995-9.995-15.995-9.995s19.931,8.837,20.125,8.528l-15.625-9.763c0,0,19.763,8.291,19.83,8.184      l-15.746-9.839c0.331-0.53,19.393,9.806,19.744,9.244c0.3-0.479-17.149-10.061-16.855-10.532l20.86,9.147      c0.046-0.074-16.875-10.544-16.875-10.544c0.268-0.429,21.542,10.012,21.542,10.012c0.102-0.164-16.546-10.339-16.546-10.339      c0.103-0.164,21.01,9.264,21.01,9.264l-17.808-11.127c0.334-0.534,23.48,10.581,23.78,10.101      c0.262-0.42-17.598-10.212-17.246-10.776c0,0,23.06,10.43,23.466,9.781c0.195-0.312-19.308-11.722-19.154-11.969      c0.292-0.466,24.911,12.555,25.1,12.251c0.133-0.214-19.479-11.952-19.38-12.11c0.319-0.51,24.417,12.158,24.708,11.692      c0.202-0.323-21.359-12.943-21.178-13.233c0.411-0.658,25.917,13.024,26.116,12.707l-21.582-13.486      c0.434-0.694,27.802,13.477,27.912,13.301l-21.825-13.637c0,0,27.549,13.626,27.994,12.914l-21.34-13.335l29.988,13.673      c0.346-0.552-22.75-14.216-22.75-14.216l32.072,14.878c0,0-26.368-15.395-25.883-16.173c0.535-0.855,30.706,16.959,31.28,16.04      c0,0-24.699-15.22-24.604-15.374c0,0,30.645,16.487,30.908,16.065l-26.425-16.512c0,0,35.234,18.756,35.522,18.294      c0.46-0.735-28.672-17.917-28.672-17.917c0.383-0.612,37.5,19.342,37.5,19.342s-32.337-19.551-32.043-20.022      c0.72-1.152,44.714,22.977,44.714,22.977l-36.102-22.559c0,0,47.788,26.842,47.948,26.584c0,0-40.758-23.692-39.96-24.97      c0.626-1.001,55.365,30.726,55.365,30.726l-48.031-30.014" style="fill:none;stroke:#231F20;stroke-width:2;stroke-linecap:round;stroke-linejoin:round;"/><path d="M134.466,403.392      c0,0-28.057-16.887-27.767-17.351c0.515-0.824,55.25,30.816,55.415,30.553c1.607-2.571-78.729-46.053-77.317-48.313      c1.31-2.096,91.386,53.946,91.386,53.946L75.244,359.153c1.576-2.521,111.718,69.301,112.974,67.29      c1.734-2.775-120.356-75.206-120.356-75.206c0.608-0.973,131.521,79.533,132.269,78.337L60.477,342.308      c0,0,149.068,91.03,149.873,89.743c1.217-1.948-60.813-35.423-59.655-37.276l72.698,40.554l-45.388-28.361      c0.974-1.558,55.296,30.13,55.296,30.13l-39.165-24.473c0,0,48.456,25.69,48.458,25.688c0,0-36.142-21.217-35.527-22.199      c0,0,42.224,23.27,42.649,22.588c0.002-0.003-31.308-19.529-31.293-19.554c0.021-0.034,38.188,20.784,38.188,20.784      s-32.089-19.327-31.764-19.849c0.777-1.244,38.762,19.669,38.762,19.669l-28.89-18.052l35.459,18.313      c0,0-27.192-15.987-26.742-16.709c0.096-0.153,35.018,16.696,35.018,16.696c0.097-0.155-26.837-15.577-26.301-16.435      c0.178-0.286,33.4,17.371,33.641,16.986c0.364-0.583-25.263-15.306-25.047-15.65c0.256-0.409,28.065,15.57,28.646,14.642      c0.405-0.648-24.393-15.243-24.393-15.243c0.002-0.004,31.032,15.771,31.032,15.771c0.423-0.676-23.989-14.991-23.989-14.991      c0.31-0.496,26.965,14.269,27.237,13.832c0.376-0.602-23.604-14.148-23.333-14.581l31.104,14.334      c0,0-22.234-13.438-22.03-13.766c0,0,28.844,13.783,29.185,13.237c0,0-22.36-13.189-22.009-13.752      c0.003-0.006,25.917,11.988,25.917,11.988l-19.465-12.163c0.024-0.04,25.665,11.666,25.665,11.666      c0.099-0.159-21.254-13.281-21.254-13.281s25.23,12.369,25.705,11.61c0,0-19.921-11.993-19.717-12.32      c0,0,25.241,12.529,25.444,12.205c0.398-0.639-20.66-12.91-20.66-12.91l25.74,11.755c0.288-0.461-20.454-12.681-20.408-12.753      c0,0,25.281,10.855,25.361,10.728c0,0-18.201-11.288-18.163-11.35c0.09-0.145,22.658,9.541,22.658,9.541l-18.271-11.417      c0.249-0.399,21.87,10.952,22.13,10.536c0.07-0.113-18.546-11.589-18.546-11.589s22.079,11.043,22.481,10.399      c0.2-0.321-19.086-11.479-18.885-11.8l22.517,10.66l-18.093-11.305c0.058-0.093,21.001,9.043,21.001,9.043      c0.002-0.003-17.447-10.902-17.447-10.902c0.157-0.252,22.934,9.333,23,9.227c0.068-0.109-16.657-10.409-16.657-10.409      l20.698,9.151c0,0-17.986-11.075-17.913-11.192c0.145-0.232,20.861,9.566,21.189,9.041c0.012-0.02-16.095-9.967-16.055-10.031      c0,0,20.1,8.874,20.27,8.602c0,0-16.65-9.73-16.348-10.215l19.109,7.478l-16.632-10.393c0.178-0.284,21.709,8.759,21.709,8.759      c0.364-0.584-16.052-9.466-15.798-9.872c0.214-0.342,17.961,8.06,17.961,8.06c0.314-0.503-15.412-9.631-15.412-9.631      c0.194-0.313,19.117,8.439,19.117,8.439c0.119-0.19-16.827-10.515-16.827-10.515c0.046-0.073,20.356,7.549,20.356,7.549      c0.155-0.249-15.872-9.918-15.872-9.918l18.907,8.18c0.345-0.552-15.743-9.838-15.743-9.838      c0.005-0.009,18.329,7.194,18.329,7.194c0.023-0.037-16.218-9.394-15.886-9.926c0,0,19.41,7.617,19.678,7.189      c0,0-15.879-9.571-15.722-9.824c0,0,19.711,8.359,19.812,8.198l-16.36-10.223c0.368-0.59,18.398,7.595,18.398,7.595      s-15.112-8.773-14.812-9.255c0,0,17.521,6.756,17.7,6.468l-14.962-9.349c0,0,18.123,8.506,18.35,8.144l-15.377-9.608      c0,0,16.509,7.503,16.696,7.202l-15.451-9.654c0.04-0.063,17.982,7.891,18.028,7.816c0.109-0.176-15.364-9.601-15.364-9.601      c0.14-0.225,18.577,7.34,18.577,7.34c0.052-0.083-15.342-9.586-15.342-9.586c0.271-0.435,16.881,5.746,16.881,5.746      c0.2-0.32-13.54-8.461-13.54-8.461l16.611,6.859c0.127-0.204-15.783-9.862-15.783-9.862c0.102-0.162,19.318,7.374,19.517,7.056      c0.32-0.511-15.938-9.895-15.91-9.941c0.077-0.122,16.986,6.272,16.986,6.272l-13.516-8.445      c0.079-0.127,16.214,7.177,16.378,6.915c0.167-0.269-14.528-8.858-14.429-9.017c0.143-0.229,15.169,6.606,15.279,6.431      l-13.582-8.486c0.162-0.262,16.674,6.769,16.981,6.276c0,0-14.678-8.501-14.376-8.983c0,0,15.756,6.564,16.026,6.131      c0.051-0.08-13.948-8.716-13.948-8.716c0.04-0.065,15.441,5.981,15.693,5.578c0.258-0.413-13.667-8.42-13.613-8.507      c0.145-0.229,15.484,6.698,15.627,6.469c0.024-0.038-15.341-9.586-15.341-9.586c0.343-0.549,18.682,6.541,18.682,6.541      c0.066-0.105-15.265-9.203-15.114-9.445c0.039-0.062,16.86,6.782,16.914,6.695c0,0-15.861-9.301-15.587-9.74      c0,0,17.351,7.422,17.419,7.313c0.184-0.293-16.017-10.009-16.017-10.009c0.268-0.428,17.355,7.402,17.355,7.402      c0.313-0.501-16.024-10.014-16.024-10.014l17.758,7.23l-15.934-9.956c0.279-0.447,16.486,6.882,16.486,6.882l-14.638-9.146      c0.135-0.216,16.638,6.283,16.638,6.283c0.251-0.402-15.307-9.331-15.201-9.499c0,0,17.377,7.673,17.493,7.487l-15.253-9.53      c0.016-0.026,16.573,6.278,16.833,5.863c0.302-0.483-14.718-8.845-14.56-9.098c0.292-0.468,15.185,5.256,15.323,5.034      c0.106-0.171-15.421-8.951-15.113-9.443c0.165-0.264,16.46,7.172,16.46,7.172c0.256-0.41-14.116-8.182-13.829-8.642      c0.229-0.365,15.146,5.68,15.146,5.68l-15.242-9.524c0.091-0.147,15.985,7.137,16.249,6.715      c0.133-0.213-13.668-8.541-13.668-8.541s15.679,5.224,15.701,5.187c0.201-0.321-15.207-8.936-14.953-9.343      c0,0,16.033,6.102,16.272,5.719l-15.581-9.735l16.313,7.001c0,0-15.308-9.131-15.112-9.443c0,0,16.64,7.716,16.841,7.395      l-15.187-9.489c0.045-0.071,16.118,6.758,16.173,6.67c0,0-16.531-10.21-16.477-10.297c0,0,17.424,6.776,17.696,6.341      l-15.102-9.437c0.265-0.423,15.874,6.89,15.921,6.813c0,0-16.068-9.645-15.891-9.929l16.533,5.554l-16.304-10.188      c0,0,16.585,6.978,16.749,6.715c0,0-15.998-9.919-15.963-9.976c0.149-0.239,16.644,6.832,16.761,6.645      c0,0-15.075-8.785-14.79-9.241l15.318,5.413c0.261-0.418-15.44-9.648-15.44-9.648l17.376,7.364      c0.271-0.434-15.745-9.698-15.683-9.799c0.079-0.126,15.122,4.527,15.122,4.527c0.347-0.555-15.444-9.651-15.444-9.651      l16.383,5.673c0.06-0.095-15.883-9.368-15.633-9.769c0,0,16.341,6.876,16.365,6.838c0.163-0.261-15.295-9.557-15.295-9.557      c0.188-0.301,16.15,6.282,16.247,6.128c0,0-16.307-9.65-16.064-10.038l16.949,6.053l-16.63-10.391      c0.244-0.391,17.086,5.768,17.086,5.768s-17.728-10.896-17.646-11.027c0.354-0.565,17.844,7.747,17.941,7.59      c0,0-18.175-11.074-18.048-11.277c0.035-0.056,16.765,6.648,16.862,6.491c0.309-0.494-16.955-9.951-16.665-10.414l17.58,7.767      c0,0-17.582-10.498-17.362-10.849l16.966,5.621c0.091-0.145-17.399-10.537-17.249-10.778c0.212-0.34,17.876,6.809,18.228,6.247      c0,0-19.394-11.944-19.315-12.069c0.141-0.225,18.8,7.77,19.124,7.252l-19.979-12.483l19.714,7.936l-20.249-12.653      c0.228-0.365,19.088,7.34,19.146,7.248l-18.818-11.759c0.017-0.027,18.727,8.457,18.817,8.311      c0.337-0.539-20.44-12.773-20.44-12.773s18.56,7.445,18.887,6.922c0.33-0.528-19.228-11.458-18.978-11.859      c0,0,18.235,7.733,18.39,7.485l-19.536-12.208c0.341-0.545,19.697,8.852,19.748,8.771c0.112-0.18-21.481-13.423-21.481-13.423      c0.233-0.375,19.703,8.022,19.703,8.022s-20.822-12.917-20.779-12.984c0.264-0.421,19.35,7.366,19.422,7.251      c0,0-22.154-13.372-21.942-13.711c0.212-0.338,19.691,8.002,19.857,7.736c0.052-0.083-23.344-14.299-23.215-14.506      c0.185-0.296,21.749,10.485,22.071,9.969c0,0-23.408-13.681-22.983-14.362c0.196-0.313,21.601,8.526,21.601,8.526      c0.563-0.901-24.601-15.372-24.601-15.372c0.07-0.113,22.508,10.603,22.508,10.603l-26.073-16.292      c0.362-0.58,23.978,11.313,24.291,10.812c0,0-28.236-16.898-27.901-17.434c0.51-0.815,25.625,12.705,25.625,12.705      s-28.653-17.672-28.549-17.839c0.211-0.338,26.304,13.237,26.78,12.476c0.205-0.329-32.268-18.777-31.645-19.774      c0.162-0.259,29.682,15.25,29.682,15.25s-35.614-21.088-35.09-21.927c0.117-0.188,30.652,15.225,31.095,14.518      c0.495-0.792-40.287-23.392-39.485-24.673c0,0,33.623,17.346,34.054,16.658c0,0-44.972-26.794-44.384-27.734      c0.285-0.457,40.001,20.351,40.001,20.351L312.93,44.235c1.588-2.542,131.971,77.693,131.971,77.693L324.816,46.892      c2.183-3.493,112.972,71.408,114.795,68.49c0.026-0.042-106.404-66.18-106.266-66.402c1.919-3.07,99.179,58.718,99.179,58.718      l-89.752-56.083c0,0,79.781,48.254,80.677,46.822c0,0-69.921-40.427-68.453-42.774c0.584-0.936,47.696,25.857,47.843,25.623      c0,0-21.839-12.543-21.343-13.337" style="fill:none;stroke:#231F20;stroke-width:2;stroke-linecap:round;stroke-linejoin:round;"/><path d="M185.355,254.716      c0.055-0.087-9.041-5.649-9.041-5.649c0.136-0.217,18.134,8.026,18.134,8.026s-25.546-15.708-25.432-15.891      c0,0,28.17,14.468,28.382,14.13c0.412-0.659-30.376-18.981-30.376-18.981c0.06-0.095,30.832,14.854,30.899,14.747      c0.656-1.05-34.056-21.281-34.056-21.281c0.49-0.785,35.891,17.946,35.891,17.946c0.195-0.313-37.361-22.83-37.129-23.201      c0.2-0.32,37.249,18.226,37.249,18.226l-38.492-24.052c0,0,36.386,20.223,36.946,19.326      c0.441-0.707-36.797-22.994-36.797-22.994l31.1,15.662c0.216-0.345-30.054-18.778-30.054-18.779      c0.439-0.703,26.604,12.789,26.604,12.789s-27.148-16.106-26.762-16.723c0.525-0.84,26.249,12.195,26.622,11.598      c0.026-0.042-25.313-15.817-25.313-15.817c0.143-0.229,24.325,10.913,24.6,10.472c0.119-0.19-24.1-15.059-24.1-15.059      l24.432,10.988c0,0-23.039-14.156-22.931-14.329c0.388-0.62,22.928,10.241,23.004,10.119c0,0-22.103-13.286-21.866-13.663      l22.643,10.99l-21.203-13.249c0,0,22.68,10.511,22.827,10.276l-21.206-13.251c0.394-0.629,23.177,10.48,23.196,10.45      c0.051-0.081-21.567-13.253-21.467-13.414l23.113,10.181c0.048-0.077-21.852-12.771-21.455-13.406      c0.402-0.643,21.108,10.769,21.463,10.201l-19.485-12.176c0.078-0.125,21.644,10.59,21.941,10.114l-21.094-13.181      c0.308-0.493,22.632,9.146,22.632,9.146s-19.565-11.988-19.459-12.159c0.336-0.538,21.982,9,21.982,9      c0.208-0.333-19.13-11.14-18.764-11.725c0.401-0.642,22.863,9.505,22.863,9.505l-20.078-12.546c0,0,21.419,10.233,21.736,9.725      c0,0-19.641-11.846-19.449-12.153c0.329-0.526,21.762,9.587,21.762,9.587c0.271-0.433-18.782-11.736-18.782-11.736      c0.29-0.464,22.62,10.725,22.62,10.725c0.296-0.474-19.413-12.131-19.413-12.131c0.051-0.081,20.113,9.677,20.254,9.451      c0.214-0.342-18.707-11.575-18.655-11.657c0.305-0.488,22.899,10.671,23.096,10.356c0,0-19.635-12.187-19.598-12.246      c0,0,22.189,11.182,22.603,10.521c0.407-0.652-19.744-12.338-19.744-12.338c0.127-0.203,22.985,10.544,22.985,10.544      c0.021-0.032-19.384-12.112-19.384-12.112c0.265-0.424,23.042,11.468,23.311,11.038c0.43-0.688-20.584-12.498-20.42-12.76      l22.945,11.138c0.33-0.527-19.78-12.092-19.66-12.285c0.319-0.511,25.63,10.856,25.63,10.856l-22.105-13.813      c0.048-0.076,26.115,13.374,26.613,12.576c0.393-0.628-22.414-13.314-22.103-13.812l27.256,12.558      c0.156-0.25-22.769-13.522-22.452-14.029c0.575-0.92,27.931,14.391,28.462,13.541c0,0-24.438-14.557-24.117-15.07      c0.54-0.864,29.949,14.758,29.949,14.758c0.524-0.838-24.667-14.804-24.393-15.243l31.21,15.693l-27.336-17.082      c0.292-0.468,36.542,17.803,36.542,17.803l-30.615-19.131c0.021-0.035,38.028,21.145,38.371,20.596l-33.721-21.071" style="fill:none;stroke:#231F20;stroke-width:2;stroke-linecap:round;stroke-linejoin:round;"/><path d="M253.739,258.744      c0.393-0.629-34.722-21.697-34.722-21.697l29.661,13.557l-28.443-17.773c0,0,27.465,14.743,27.931,13.998      c0.608-0.974-30.193-18.161-29.876-18.669c0,0,29.932,15.835,30.504,14.919c0.092-0.147-31.619-19.584-31.541-19.709      c0.351-0.562,33.54,15.825,33.54,15.825c0.05-0.08-34.218-20.311-33.736-21.081c0.075-0.121,33.885,17.339,33.942,17.248      c0.771-1.234-34.914-21.817-34.914-21.817c0.067-0.107,37.363,19.923,37.363,19.923c0.037-0.06-37.595-23.166-37.448-23.4      c0.031-0.05,38.142,21.154,38.412,20.721l-36.474-22.791c0.276-0.441,37.601,20.115,37.601,20.115l-37.949-23.713l38.496,20.05      c0.025-0.041-37.249-23.275-37.249-23.275s39.227,19.664,39.295,19.555L221.3,197.715c0,0,36.064,19.587,36.704,18.565      l-34.326-21.45c0,0,35.098,19.337,35.465,18.75l-34.595-21.617l35.562,18.387c0.701-1.122-31.625-19.5-31.508-19.688      c0,0,32.387,16.724,32.607,16.372c0.442-0.707-30.83-17.885-30.21-18.877c0.441-0.706,29.932,16.122,30.153,15.767      c0.623-0.997-26.811-16.753-26.811-16.753s28.47,14.994,28.715,14.602l-26.291-16.428c0,0,24.057,11.18,24.4,10.629      l-17.601-10.999c0,0,14.036,5.257,14.298,4.836c0.109-0.175-8.032-5.019-8.032-5.019" style="fill:none;stroke:#231F20;stroke-width:2;stroke-linecap:round;stroke-linejoin:round;"/><path d="M254.155,281.174      c0.181-0.29-9.105-5.605-9.067-5.666l23.64,10.246c0.413-0.661-52.322-32.695-52.322-32.695      c1.081-1.73,57.972,32.918,57.972,32.918l-58.054-36.276l63.339,35.856c0,0-63.559-36.832-62.262-38.906      c0.526-0.842,67.967,39.112,68.104,38.895c0,0-69.264-40.029-67.803-42.368c0,0,73.417,41.453,73.675,41.041      c1.521-2.435-72.18-45.103-72.18-45.103c1.141-1.826,77.328,45.232,77.328,45.232s-30.987-17.932-30.344-18.961      c0.321-0.515,35.729,17.412,35.729,17.412c0.222-0.354-26.612-16.629-26.612-16.629l31.528,14.653      c0,0-24.953-15.507-24.915-15.568l28.899,12.964c0.009-0.015-24.058-15.032-24.058-15.032      c0.449-0.719,28.342,12.608,28.342,12.608c0.254-0.406-24.607-14.201-24.079-15.046c0.238-0.383,27.801,13.364,28.005,13.038      c0.155-0.249-24.642-15.134-24.522-15.323c0.188-0.303,26.744,13.037,27.2,12.308l-24.24-15.146      c0.34-0.543,27.268,12.529,27.268,12.529c0.313-0.502-25.524-15.279-25.223-15.761c0,0,27.387,13.517,27.576,13.213      c0,0-25.395-15.057-25.029-15.641c0.317-0.509,27.155,13.572,27.528,12.974c0,0-25.935-15.825-25.764-16.099l29.739,14.04      c0,0-28.058-16.646-27.659-17.283c0.001-0.002,28.138,14.45,28.484,13.896c0.513-0.82-25.834-14.996-25.318-15.821      c0.07-0.114,27.704,12.711,27.704,12.711s-26.113-16.094-26.013-16.255c0.511-0.817,27.784,13.602,28.341,12.711      c0.304-0.487-27.868-17.414-27.868-17.414c0.161-0.258,29.979,15.25,30.064,15.112c0.613-0.981-27.975-17.309-27.897-17.432      l28.389,14.646c0.072-0.116-27.55-17.215-27.55-17.215s28.763,14.85,29.271,14.036l-28.842-18.022      c0.237-0.38,29.583,15.394,29.583,15.394s-30.367-18.111-29.979-18.733c0.245-0.393,31.429,17.668,32.033,16.702      c0.004-0.007-30.02-18.758-30.02-18.758c0.291-0.465,29.767,15.345,30.318,14.463l-29.832-18.641      c0,0,31.125,15.546,31.683,14.653L317.354,210.2c0.498-0.798,32.244,16.063,32.252,16.05      c0.299-0.479-33.868-19.772-33.243-20.772l33.052,15.532c0,0-33.266-20.482-33.129-20.701c0,0,34.073,17.6,34.6,16.757      c0,0-34.174-21.306-34.152-21.341c0,0,34.08,19.526,34.669,18.584c0.188-0.3-35.995-21.958-35.756-22.342l36.013,18.061      c0,0-38.59-23.188-38.174-23.854c0.729-1.167,36.729,19.839,37.389,18.784c0.479-0.767-41.242-25.771-41.242-25.771      l41.629,21.722c1.7-2.72-99.017-60.543-98.419-61.5c1.56-2.496,97.866,57.737,97.866,57.737s-94.551-55.732-93.046-58.142      c1.198-1.918,91.135,52.934,91.579,52.223c1.709-2.735-84.674-52.91-84.674-52.91c0.307-0.491,82.073,48.111,82.34,47.685      l-75.322-47.067c0.815-1.304,73.71,41.566,73.71,41.566c0.55-0.879-66.411-41.156-66.257-41.402      c0.447-0.716,61.426,33.503,61.426,33.503c0.134-0.216-50.511-31.563-50.511-31.563c0.703-1.125,44.043,24.149,44.043,24.149      s-35.092-20.447-34.427-21.512" style="fill:none;stroke:#231F20;stroke-width:2;stroke-linecap:round;stroke-linejoin:round;"/><path d="M205.811,340.666      c0,0-2.58-1.565-2.559-1.6c0.042-0.066,5.06-0.884,5.073-0.905c0.116-0.185-4.592-2.644-4.491-2.806      c0.086-0.138,6.895,1.151,6.895,1.151l-7.615-4.759c0.122-0.195,9.711,2.982,9.809,2.826c0.147-0.235-10.333-6.457-10.333-6.457      c0.047-0.075,11.466,2.979,11.524,2.887l-11.956-7.472c0,0,13.598,4.738,13.665,4.632c0.304-0.487-14.294-8.288-14.005-8.751      l17.817,6.26l-17.885-11.176c0.336-0.538,20.177,8.186,20.177,8.186l-19.556-12.22c0,0,21.371,8.763,21.371,8.762      c0,0-21.955-12.89-21.582-13.486c0,0,22.398,10.421,22.617,10.071c0.002-0.002-21.283-13.275-21.272-13.293      c0.013-0.02,23.603,11.671,23.603,11.671s-24.146-14.546-23.902-14.937c0.48-0.77,24.602,10.821,24.602,10.821l-23.789-14.865      l25.168,11.883c0,0-23.995-14.103-23.595-14.743c0.067-0.107,25.025,10.453,25.025,10.453      c0.092-0.147-25.522-14.814-25.013-15.63c0.143-0.229,26.972,13.247,27.165,12.939c0.362-0.58-25.133-15.227-24.918-15.57      c0.216-0.346,23.903,12.77,24.394,11.985c0.416-0.667-25.07-15.666-25.07-15.666c0.002-0.004,27.341,13.463,27.341,13.463      c0.447-0.716-25.423-15.887-25.423-15.887c0.283-0.453,24.724,12.815,24.973,12.417c0.41-0.656-25.771-15.447-25.476-15.92      l27.5,12.083c0,0-25.268-15.274-25.037-15.645c0,0,26.552,12.287,26.864,11.788c0,0-26.31-15.52-25.896-16.182      c0.003-0.006,25.496,11.725,25.496,11.725l-23.948-14.964c0.025-0.04,25.861,11.789,25.861,11.789      c0.124-0.198-26.374-16.479-26.374-16.479s26.088,12.942,26.58,12.156c0,0-25.637-15.439-25.375-15.857" style="fill:none;stroke:#231F20;stroke-width:2;stroke-linecap:round;stroke-linejoin:round;"/></g><g><path d="M117.338,374.444      c1.108-1.772-62.007-38.231-61.775-38.602l39.787,20.336c0.35-0.561-44.266-27.66-44.266-27.66      c0.644-1.03,35.06,18.602,35.06,18.602l-39.135-24.454l31.241,15.799c0,0-34.975-20.242-34.25-21.402      c0.219-0.35,29.125,14.664,29.183,14.573c0,0-33.151-19.156-32.45-20.277c0,0,25.609,11.197,25.694,11.061      c0.613-0.981-28.487-17.801-28.487-17.801c0.381-0.609,26.657,13.569,26.657,13.569s-28.248-16.345-27.661-17.284      c0.206-0.329,23.466,9.75,23.466,9.75c0.214-0.343-25.72-16.071-25.72-16.071l22.137,8.784c0,0-24.056-14.949-24.019-15.009      l20.45,7.684c0.009-0.014-22.494-14.056-22.494-14.056c0.309-0.494,20.024,7.413,20.024,7.413      c0.229-0.365-22.063-12.729-21.588-13.489c0.169-0.271,20.11,8.425,20.254,8.194c0.134-0.214-21.14-12.982-21.038-13.146      c0.128-0.204,18.585,7.61,18.894,7.117l-19.871-12.417c0.225-0.359,18.562,7.09,18.562,7.09      c0.246-0.394-19.96-11.948-19.725-12.325c0,0,18.663,7.923,18.789,7.721c0,0-19.122-11.332-18.845-11.775      c0.202-0.323,17.744,7.387,17.981,7.007c0,0-18.659-11.383-18.535-11.582l19.557,7.677c0,0-19.928-11.833-19.649-12.278      c0,0,17.755,7.664,17.967,7.324c0.341-0.546-16.659-9.646-16.316-10.195c0.04-0.064,16.373,5.631,16.373,5.631      s-16.369-10.084-16.304-10.188c0.28-0.448,15.934,5.638,16.239,5.149c0.187-0.298-16.99-10.617-16.99-10.617      c0.093-0.148,17.764,7.535,17.813,7.456c0.366-0.586-16.463-10.185-16.417-10.258l15.797,6.778      c0.042-0.068-15.435-9.645-15.435-9.645s15.632,6.102,15.897,5.679l-15.859-9.91c0.123-0.197,15.867,6.822,15.867,6.822      s-16.653-9.932-16.44-10.273c0.132-0.212,17.541,8.372,17.867,7.85c0.002-0.003-15.931-9.955-15.931-9.955      c0.142-0.226,15.218,5.624,15.486,5.195l-14.74-9.21c0,0,15.93,5.413,16.202,4.979L31.51,210.35      c0.237-0.38,16.09,5.96,16.094,5.954c0.143-0.229-16.664-9.749-16.365-10.226l16.372,5.11c0,0-15.328-9.438-15.265-9.539      c0,0,16.955,6.285,17.204,5.886c0,0-14.9-9.289-14.89-9.304c0,0,15.526,7.195,15.783,6.783      c0.079-0.126-15.328-9.354-15.227-9.515l16.422,5.819c0,0-15.61-9.388-15.445-9.651c0.291-0.466,15.563,5.73,15.826,5.31      c0.168-0.27-14.25-8.904-14.25-8.904l16.148,5.8c0.251-0.402-14.608-8.932-14.52-9.073c0.229-0.367,15.488,6.262,15.488,6.262      s-14.635-8.624-14.401-8.999c0.188-0.301,15.776,5.012,15.846,4.9c0.29-0.463-14.697-9.184-14.697-9.184      c0.052-0.083,15.15,5.801,15.195,5.729l-12.967-8.102c0.161-0.257,15.786,5.369,15.786,5.369      c0.119-0.19-14.93-9.255-14.896-9.308c0.111-0.178,16.528,5.448,16.528,5.448c0.038-0.06-14.355-8.97-14.355-8.97      c0.224-0.359,14.894,5.935,14.894,5.935s-13.567-7.889-13.302-8.313c0.224-0.359,16.128,5.116,16.159,5.066      c0,0-14.702-8.574-14.427-9.015c0.223-0.357,15.251,5.735,15.501,5.335c0.095-0.152-13.478-8.216-13.386-8.364l16.382,6.626      l-14.856-9.283c0.017-0.027,16.322,6.753,16.322,6.753c0.057-0.091-14.279-8.409-14.048-8.778      c0.22-0.352,14.167,5.976,14.438,5.543c0,0-12.988-8.09-12.977-8.109c0.207-0.331,14.105,5.744,14.105,5.744      c0.293-0.47-12.958-7.915-12.876-8.046c0,0,15.446,5.033,15.646,4.713l-13.068-8.166c0,0,15.721,6.772,16.021,6.292      c0.096-0.153-14.004-8.241-13.775-8.608l14.36,5.463c0,0-12.231-7.522-12.177-7.609l14.335,5.214      c0.023-0.038-12.43-7.43-12.279-7.672c0,0,14.571,4.306,14.574,4.301c0.077-0.123-12.479-7.439-12.317-7.697      c0.249-0.399,14.313,5.936,14.356,5.865c0.104-0.165-13.473-8.418-13.473-8.418l16.159,5.012l-13.161-8.224l15.637,5.186      l-12.113-7.569c0.029-0.047,15.052,5.522,15.263,5.184c0.21-0.335-12.412-7.534-12.313-7.693c0,0,15.216,5.163,15.367,4.921      c0.166-0.265-12.6-7.874-12.6-7.874s14.869,5.782,15.135,5.357c0,0-14.34-8.413-14.094-8.807c0,0,17.009,6.466,17.144,6.25      c0.093-0.148-13.099-7.685-12.874-8.044c0.155-0.248,14.521,5.078,14.521,5.078c0.183-0.293-12.45-7.338-12.251-7.655      c0,0,14.533,6.545,14.794,6.127l-12.594-7.87l14.674,5.677c0.015-0.024-12.914-8.07-12.914-8.07s15.838,6.243,15.85,6.225      l-12.908-8.066c0,0,15.78,5.618,16.027,5.223c0,0-13.228-7.918-13.072-8.168c0.207-0.331,14.883,5.751,15.146,5.329      l-12.989-8.117c0,0,16.323,5.495,16.522,5.176c0,0-13.303-7.668-13.013-8.132l16.333,6.942c0.273-0.438-14.483-9.05-14.483-9.05      s16.808,6.864,17.038,6.497c0.07-0.113-12.955-7.672-12.765-7.976c0,0,16.179,6.298,16.464,5.841l-14.386-8.989      c0.042-0.066,17.561,6.258,17.561,6.258l-12.86-8.036c0,0,16.591,5.596,16.67,5.469c0.064-0.103-13.326-8.327-13.326-8.327      c0.234-0.374,17.318,6.43,17.323,6.422c0.191-0.307-14.824-9.263-14.824-9.263c0.322-0.515,17.431,7.066,17.431,7.066      l-14.4-8.999c0.283-0.453,17.944,7.377,18,7.287c0,0-13.298-8.26-13.276-8.296c0.302-0.483,17.054,6.672,17.274,6.32      c0.188-0.301-14.541-9.086-14.541-9.086l16.595,6.394c0.011-0.017-13.59-8.492-13.59-8.492s17.644,8.292,17.889,7.9      c0,0-15.391-9.339-15.266-9.539c0.133-0.213,17.137,7.348,17.137,7.348s-13.878-8.506-13.804-8.625      c0,0,16.784,7.365,17.079,6.894l-13.883-8.675c0,0,17.243,7.719,17.338,7.565c0.061-0.098-14.433-8.841-14.353-8.969      c0,0,17.524,7.815,17.759,7.439c0.153-0.245-14.214-8.882-14.214-8.882c0.028-0.045,18.031,7.649,18.381,7.089      c0.152-0.243-14.598-9.102-14.589-9.116c0.218-0.348,19.89,7.483,19.89,7.483l-15.713-9.819l18.814,8.418      c0,0-15.638-9.479-15.506-9.689l18.431,8.302c0,0-16.249-9.926-16.146-10.089l19.096,8.567l-14.577-9.108      c0.139-0.222,19.94,7.324,19.94,7.324l-14.872-9.292c0,0,19.4,8.506,19.592,8.198c0.328-0.524-16.493-9.718-16.229-10.141      l20.586,8.627c0.022-0.036-15.995-9.995-15.995-9.995s19.931,8.837,20.125,8.528l-15.625-9.763c0,0,19.763,8.291,19.83,8.184      l-15.746-9.839c0.331-0.53,19.393,9.806,19.744,9.244c0.3-0.479-17.149-10.061-16.855-10.532l20.86,9.147      c0.046-0.074-16.875-10.544-16.875-10.544c0.268-0.429,21.542,10.012,21.542,10.012c0.102-0.164-16.546-10.339-16.546-10.339      c0.103-0.164,21.01,9.264,21.01,9.264l-17.808-11.127c0.334-0.534,23.48,10.581,23.78,10.101      c0.262-0.42-17.598-10.212-17.246-10.776c0,0,23.06,10.43,23.466,9.781c0.195-0.312-19.308-11.722-19.154-11.969      c0.292-0.466,24.911,12.555,25.1,12.251c0.133-0.214-19.479-11.952-19.38-12.11c0.319-0.51,24.417,12.158,24.708,11.692      c0.202-0.323-21.359-12.943-21.178-13.233c0.411-0.658,25.917,13.024,26.116,12.707l-21.582-13.486      c0.434-0.694,27.802,13.477,27.912,13.301l-21.825-13.637c0,0,27.549,13.626,27.994,12.914l-21.34-13.335l29.988,13.673      c0.346-0.552-22.75-14.216-22.75-14.216l32.072,14.878c0,0-26.368-15.395-25.883-16.173c0.535-0.855,30.706,16.959,31.28,16.04      c0,0-24.699-15.22-24.604-15.374c0,0,30.645,16.487,30.908,16.065l-26.425-16.512c0,0,35.234,18.756,35.522,18.294      c0.46-0.735-28.672-17.917-28.672-17.917c0.383-0.612,37.5,19.342,37.5,19.342s-32.337-19.551-32.043-20.022      c0.72-1.152,44.714,22.977,44.714,22.977l-36.102-22.559c0,0,47.788,26.842,47.948,26.584c0,0-40.758-23.692-39.96-24.97      c0.626-1.001,55.365,30.726,55.365,30.726l-48.031-30.014" style="fill:none;stroke:#262626;stroke-width:2;stroke-linecap:round;stroke-linejoin:round;"/><path d="M134.466,403.392      c0,0-28.057-16.887-27.767-17.351c0.515-0.824,55.25,30.816,55.415,30.553c1.607-2.571-78.729-46.053-77.317-48.313      c1.31-2.096,91.386,53.946,91.386,53.946L75.244,359.153c1.576-2.521,111.718,69.301,112.974,67.29      c1.734-2.775-120.356-75.206-120.356-75.206c0.608-0.973,131.521,79.533,132.269,78.337L60.477,342.308      c0,0,149.068,91.03,149.873,89.743c1.217-1.948-60.813-35.423-59.655-37.276l72.698,40.554l-45.388-28.361      c0.974-1.558,55.296,30.13,55.296,30.13l-39.165-24.473c0,0,48.456,25.69,48.458,25.688c0,0-36.142-21.217-35.527-22.199      c0,0,42.224,23.27,42.649,22.588c0.002-0.003-31.308-19.529-31.293-19.554c0.021-0.034,38.188,20.784,38.188,20.784      s-32.089-19.327-31.764-19.849c0.777-1.244,38.762,19.669,38.762,19.669l-28.89-18.052l35.459,18.313      c0,0-27.192-15.987-26.742-16.709c0.096-0.153,35.018,16.696,35.018,16.696c0.097-0.155-26.837-15.577-26.301-16.435      c0.178-0.286,33.4,17.371,33.641,16.986c0.364-0.583-25.263-15.306-25.047-15.65c0.256-0.409,28.065,15.57,28.646,14.642      c0.405-0.648-24.393-15.243-24.393-15.243c0.002-0.004,31.032,15.771,31.032,15.771c0.423-0.676-23.989-14.991-23.989-14.991      c0.31-0.496,26.965,14.269,27.237,13.832c0.376-0.602-23.604-14.148-23.333-14.581l31.104,14.334      c0,0-22.234-13.438-22.03-13.766c0,0,28.844,13.783,29.185,13.237c0,0-22.36-13.189-22.009-13.752      c0.003-0.006,25.917,11.988,25.917,11.988l-19.465-12.163c0.024-0.04,25.665,11.666,25.665,11.666      c0.099-0.159-21.254-13.281-21.254-13.281s25.23,12.369,25.705,11.61c0,0-19.921-11.993-19.717-12.32      c0,0,25.241,12.529,25.444,12.205c0.398-0.639-20.66-12.91-20.66-12.91l25.74,11.755c0.288-0.461-20.454-12.681-20.408-12.753      c0,0,25.281,10.855,25.361,10.728c0,0-18.201-11.288-18.163-11.35c0.09-0.145,22.658,9.541,22.658,9.541l-18.271-11.417      c0.249-0.399,21.87,10.952,22.13,10.536c0.07-0.113-18.546-11.589-18.546-11.589s22.079,11.043,22.481,10.399      c0.2-0.321-19.086-11.479-18.885-11.8l22.517,10.66l-18.093-11.305c0.058-0.093,21.001,9.043,21.001,9.043      c0.002-0.003-17.447-10.902-17.447-10.902c0.157-0.252,22.934,9.333,23,9.227c0.068-0.109-16.657-10.409-16.657-10.409      l20.698,9.151c0,0-17.986-11.075-17.913-11.192c0.145-0.232,20.861,9.566,21.189,9.041c0.012-0.02-16.095-9.967-16.055-10.031      c0,0,20.1,8.874,20.27,8.602c0,0-16.65-9.73-16.348-10.215l19.109,7.478l-16.632-10.393c0.178-0.284,21.709,8.759,21.709,8.759      c0.364-0.584-16.052-9.466-15.798-9.872c0.214-0.342,17.961,8.06,17.961,8.06c0.314-0.503-15.412-9.631-15.412-9.631      c0.194-0.313,19.117,8.439,19.117,8.439c0.119-0.19-16.827-10.515-16.827-10.515c0.046-0.073,20.356,7.549,20.356,7.549      c0.155-0.249-15.872-9.918-15.872-9.918l18.907,8.18c0.345-0.552-15.743-9.838-15.743-9.838      c0.005-0.009,18.329,7.194,18.329,7.194c0.023-0.037-16.218-9.394-15.886-9.926c0,0,19.41,7.617,19.678,7.189      c0,0-15.879-9.571-15.722-9.824c0,0,19.711,8.359,19.812,8.198l-16.36-10.223c0.368-0.59,18.398,7.595,18.398,7.595      s-15.112-8.773-14.812-9.255c0,0,17.521,6.756,17.7,6.468l-14.962-9.349c0,0,18.123,8.506,18.35,8.144l-15.377-9.608      c0,0,16.509,7.503,16.696,7.202l-15.451-9.654c0.04-0.063,17.982,7.891,18.028,7.816c0.109-0.176-15.364-9.601-15.364-9.601      c0.14-0.225,18.577,7.34,18.577,7.34c0.052-0.083-15.342-9.586-15.342-9.586c0.271-0.435,16.881,5.746,16.881,5.746      c0.2-0.32-13.54-8.461-13.54-8.461l16.611,6.859c0.127-0.204-15.783-9.862-15.783-9.862c0.102-0.162,19.318,7.374,19.517,7.056      c0.32-0.511-15.938-9.895-15.91-9.941c0.077-0.122,16.986,6.272,16.986,6.272l-13.516-8.445      c0.079-0.127,16.214,7.177,16.378,6.915c0.167-0.269-14.528-8.858-14.429-9.017c0.143-0.229,15.169,6.606,15.279,6.431      l-13.582-8.486c0.162-0.262,16.674,6.769,16.981,6.276c0,0-14.678-8.501-14.376-8.983c0,0,15.756,6.564,16.026,6.131      c0.051-0.08-13.948-8.716-13.948-8.716c0.04-0.065,15.441,5.981,15.693,5.578c0.258-0.413-13.667-8.42-13.613-8.507      c0.145-0.229,15.484,6.698,15.627,6.469c0.024-0.038-15.341-9.586-15.341-9.586c0.343-0.549,18.682,6.541,18.682,6.541      c0.066-0.105-15.265-9.203-15.114-9.445c0.039-0.062,16.86,6.782,16.914,6.695c0,0-15.861-9.301-15.587-9.74      c0,0,17.351,7.422,17.419,7.313c0.184-0.293-16.017-10.009-16.017-10.009c0.268-0.428,17.355,7.402,17.355,7.402      c0.313-0.501-16.024-10.014-16.024-10.014l17.758,7.23l-15.934-9.956c0.279-0.447,16.486,6.882,16.486,6.882l-14.638-9.146      c0.135-0.216,16.638,6.283,16.638,6.283c0.251-0.402-15.307-9.331-15.201-9.499c0,0,17.377,7.673,17.493,7.487l-15.253-9.53      c0.016-0.026,16.573,6.278,16.833,5.863c0.302-0.483-14.718-8.845-14.56-9.098c0.292-0.468,15.185,5.256,15.323,5.034      c0.106-0.171-15.421-8.951-15.113-9.443c0.165-0.264,16.46,7.172,16.46,7.172c0.256-0.41-14.116-8.182-13.829-8.642      c0.229-0.365,15.146,5.68,15.146,5.68l-15.242-9.524c0.091-0.147,15.985,7.137,16.249,6.715      c0.133-0.213-13.668-8.541-13.668-8.541s15.679,5.224,15.701,5.187c0.201-0.321-15.207-8.936-14.953-9.343      c0,0,16.033,6.102,16.272,5.719l-15.581-9.735l16.313,7.001c0,0-15.308-9.131-15.112-9.443c0,0,16.64,7.716,16.841,7.395      l-15.187-9.489c0.045-0.071,16.118,6.758,16.173,6.67c0,0-16.531-10.21-16.477-10.297c0,0,17.424,6.776,17.696,6.341      l-15.102-9.437c0.265-0.423,15.874,6.89,15.921,6.813c0,0-16.068-9.645-15.891-9.929l16.533,5.554l-16.304-10.188      c0,0,16.585,6.978,16.749,6.715c0,0-15.998-9.919-15.963-9.976c0.149-0.239,16.644,6.832,16.761,6.645      c0,0-15.075-8.785-14.79-9.241l15.318,5.413c0.261-0.418-15.44-9.648-15.44-9.648l17.376,7.364      c0.271-0.434-15.745-9.698-15.683-9.799c0.079-0.126,15.122,4.527,15.122,4.527c0.347-0.555-15.444-9.651-15.444-9.651      l16.383,5.673c0.06-0.095-15.883-9.368-15.633-9.769c0,0,16.341,6.876,16.365,6.838c0.163-0.261-15.295-9.557-15.295-9.557      c0.188-0.301,16.15,6.282,16.247,6.128c0,0-16.307-9.65-16.064-10.038l16.949,6.053l-16.63-10.391      c0.244-0.391,17.086,5.768,17.086,5.768s-17.728-10.896-17.646-11.027c0.354-0.565,17.844,7.747,17.941,7.59      c0,0-18.175-11.074-18.048-11.277c0.035-0.056,16.765,6.648,16.862,6.491c0.309-0.494-16.955-9.951-16.665-10.414l17.58,7.767      c0,0-17.582-10.498-17.362-10.849l16.966,5.621c0.091-0.145-17.399-10.537-17.249-10.778c0.212-0.34,17.876,6.809,18.228,6.247      c0,0-19.394-11.944-19.315-12.069c0.141-0.225,18.8,7.77,19.124,7.252l-19.979-12.483l19.714,7.936l-20.249-12.653      c0.228-0.365,19.088,7.34,19.146,7.248l-18.818-11.759c0.017-0.027,18.727,8.457,18.817,8.311      c0.337-0.539-20.44-12.773-20.44-12.773s18.56,7.445,18.887,6.922c0.33-0.528-19.228-11.458-18.978-11.859      c0,0,18.235,7.733,18.39,7.485l-19.536-12.208c0.341-0.545,19.697,8.852,19.748,8.771c0.112-0.18-21.481-13.423-21.481-13.423      c0.233-0.375,19.703,8.022,19.703,8.022s-20.822-12.917-20.779-12.984c0.264-0.421,19.35,7.366,19.422,7.251      c0,0-22.154-13.372-21.942-13.711c0.212-0.338,19.691,8.002,19.857,7.736c0.052-0.083-23.344-14.299-23.215-14.506      c0.185-0.296,21.749,10.485,22.071,9.969c0,0-23.408-13.681-22.983-14.362c0.196-0.313,21.601,8.526,21.601,8.526      c0.563-0.901-24.601-15.372-24.601-15.372c0.07-0.113,22.508,10.603,22.508,10.603l-26.073-16.292      c0.362-0.58,23.978,11.313,24.291,10.812c0,0-28.236-16.898-27.901-17.434c0.51-0.815,25.625,12.705,25.625,12.705      s-28.653-17.672-28.549-17.839c0.211-0.338,26.304,13.237,26.78,12.476c0.205-0.329-32.268-18.777-31.645-19.774      c0.162-0.259,29.682,15.25,29.682,15.25s-35.614-21.088-35.09-21.927c0.117-0.188,30.652,15.225,31.095,14.518      c0.495-0.792-40.287-23.392-39.485-24.673c0,0,33.623,17.346,34.054,16.658c0,0-44.972-26.794-44.384-27.734      c0.285-0.457,40.001,20.351,40.001,20.351L312.93,44.235c1.588-2.542,131.971,77.693,131.971,77.693L324.816,46.892      c2.183-3.493,112.972,71.408,114.795,68.49c0.026-0.042-106.404-66.18-106.266-66.402c1.919-3.07,99.179,58.718,99.179,58.718      l-89.752-56.083c0,0,79.781,48.254,80.677,46.822c0,0-69.921-40.427-68.453-42.774c0.584-0.936,47.696,25.857,47.843,25.623      c0,0-21.839-12.543-21.343-13.337" style="fill:none;stroke:#262626;stroke-width:2;stroke-linecap:round;stroke-linejoin:round;"/><path d="M185.355,254.716      c0.055-0.087-9.041-5.649-9.041-5.649c0.136-0.217,18.134,8.026,18.134,8.026s-25.546-15.708-25.432-15.891      c0,0,28.17,14.468,28.382,14.13c0.412-0.659-30.376-18.981-30.376-18.981c0.06-0.095,30.832,14.854,30.899,14.747      c0.656-1.05-34.056-21.281-34.056-21.281c0.49-0.785,35.891,17.946,35.891,17.946c0.195-0.313-37.361-22.83-37.129-23.201      c0.2-0.32,37.249,18.226,37.249,18.226l-38.492-24.052c0,0,36.386,20.223,36.946,19.326      c0.441-0.707-36.797-22.994-36.797-22.994l31.1,15.662c0.216-0.345-30.054-18.778-30.054-18.779      c0.439-0.703,26.604,12.789,26.604,12.789s-27.148-16.106-26.762-16.723c0.525-0.84,26.249,12.195,26.622,11.598      c0.026-0.042-25.313-15.817-25.313-15.817c0.143-0.229,24.325,10.913,24.6,10.472c0.119-0.19-24.1-15.059-24.1-15.059      l24.432,10.988c0,0-23.039-14.156-22.931-14.329c0.388-0.62,22.928,10.241,23.004,10.119c0,0-22.103-13.286-21.866-13.663      l22.643,10.99l-21.203-13.249c0,0,22.68,10.511,22.827,10.276l-21.206-13.251c0.394-0.629,23.177,10.48,23.196,10.45      c0.051-0.081-21.567-13.253-21.467-13.414l23.113,10.181c0.048-0.077-21.852-12.771-21.455-13.406      c0.402-0.643,21.108,10.769,21.463,10.201l-19.485-12.176c0.078-0.125,21.644,10.59,21.941,10.114l-21.094-13.181      c0.308-0.493,22.632,9.146,22.632,9.146s-19.565-11.988-19.459-12.159c0.336-0.538,21.982,9,21.982,9      c0.208-0.333-19.13-11.14-18.764-11.725c0.401-0.642,22.863,9.505,22.863,9.505l-20.078-12.546c0,0,21.419,10.233,21.736,9.725      c0,0-19.641-11.846-19.449-12.153c0.329-0.526,21.762,9.587,21.762,9.587c0.271-0.433-18.782-11.736-18.782-11.736      c0.29-0.464,22.62,10.725,22.62,10.725c0.296-0.474-19.413-12.131-19.413-12.131c0.051-0.081,20.113,9.677,20.254,9.451      c0.214-0.342-18.707-11.575-18.655-11.657c0.305-0.488,22.899,10.671,23.096,10.356c0,0-19.635-12.187-19.598-12.246      c0,0,22.189,11.182,22.603,10.521c0.407-0.652-19.744-12.338-19.744-12.338c0.127-0.203,22.985,10.544,22.985,10.544      c0.021-0.032-19.384-12.112-19.384-12.112c0.265-0.424,23.042,11.468,23.311,11.038c0.43-0.688-20.584-12.498-20.42-12.76      l22.945,11.138c0.33-0.527-19.78-12.092-19.66-12.285c0.319-0.511,25.63,10.856,25.63,10.856l-22.105-13.813      c0.048-0.076,26.115,13.374,26.613,12.576c0.393-0.628-22.414-13.314-22.103-13.812l27.256,12.558      c0.156-0.25-22.769-13.522-22.452-14.029c0.575-0.92,27.931,14.391,28.462,13.541c0,0-24.438-14.557-24.117-15.07      c0.54-0.864,29.949,14.758,29.949,14.758c0.524-0.838-24.667-14.804-24.393-15.243l31.21,15.693l-27.336-17.082      c0.292-0.468,36.542,17.803,36.542,17.803l-30.615-19.131c0.021-0.035,38.028,21.145,38.371,20.596l-33.721-21.071" style="fill:none;stroke:#262626;stroke-width:2;stroke-linecap:round;stroke-linejoin:round;"/><path d="M253.739,258.744      c0.393-0.629-34.722-21.697-34.722-21.697l29.661,13.557l-28.443-17.773c0,0,27.465,14.743,27.931,13.998      c0.608-0.974-30.193-18.161-29.876-18.669c0,0,29.932,15.835,30.504,14.919c0.092-0.147-31.619-19.584-31.541-19.709      c0.351-0.562,33.54,15.825,33.54,15.825c0.05-0.08-34.218-20.311-33.736-21.081c0.075-0.121,33.885,17.339,33.942,17.248      c0.771-1.234-34.914-21.817-34.914-21.817c0.067-0.107,37.363,19.923,37.363,19.923c0.037-0.06-37.595-23.166-37.448-23.4      c0.031-0.05,38.142,21.154,38.412,20.721l-36.474-22.791c0.276-0.441,37.601,20.115,37.601,20.115l-37.949-23.713l38.496,20.05      c0.025-0.041-37.249-23.275-37.249-23.275s39.227,19.664,39.295,19.555L221.3,197.715c0,0,36.064,19.587,36.704,18.565      l-34.326-21.45c0,0,35.098,19.337,35.465,18.75l-34.595-21.617l35.562,18.387c0.701-1.122-31.625-19.5-31.508-19.688      c0,0,32.387,16.724,32.607,16.372c0.442-0.707-30.83-17.885-30.21-18.877c0.441-0.706,29.932,16.122,30.153,15.767      c0.623-0.997-26.811-16.753-26.811-16.753s28.47,14.994,28.715,14.602l-26.291-16.428c0,0,24.057,11.18,24.4,10.629      l-17.601-10.999c0,0,14.036,5.257,14.298,4.836c0.109-0.175-8.032-5.019-8.032-5.019" style="fill:none;stroke:#262626;stroke-width:2;stroke-linecap:round;stroke-linejoin:round;"/><path d="M254.155,281.174      c0.181-0.29-9.105-5.605-9.067-5.666l23.64,10.246c0.413-0.661-52.322-32.695-52.322-32.695      c1.081-1.73,57.972,32.918,57.972,32.918l-58.054-36.276l63.339,35.856c0,0-63.559-36.832-62.262-38.906      c0.526-0.842,67.967,39.112,68.104,38.895c0,0-69.264-40.029-67.803-42.368c0,0,73.417,41.453,73.675,41.041      c1.521-2.435-72.18-45.103-72.18-45.103c1.141-1.826,77.328,45.232,77.328,45.232s-30.987-17.932-30.344-18.961      c0.321-0.515,35.729,17.412,35.729,17.412c0.222-0.354-26.612-16.629-26.612-16.629l31.528,14.653      c0,0-24.953-15.507-24.915-15.568l28.899,12.964c0.009-0.015-24.058-15.032-24.058-15.032      c0.449-0.719,28.342,12.608,28.342,12.608c0.254-0.406-24.607-14.201-24.079-15.046c0.238-0.383,27.801,13.364,28.005,13.038      c0.155-0.249-24.642-15.134-24.522-15.323c0.188-0.303,26.744,13.037,27.2,12.308l-24.24-15.146      c0.34-0.543,27.268,12.529,27.268,12.529c0.313-0.502-25.524-15.279-25.223-15.761c0,0,27.387,13.517,27.576,13.213      c0,0-25.395-15.057-25.029-15.641c0.317-0.509,27.155,13.572,27.528,12.974c0,0-25.935-15.825-25.764-16.099l29.739,14.04      c0,0-28.058-16.646-27.659-17.283c0.001-0.002,28.138,14.45,28.484,13.896c0.513-0.82-25.834-14.996-25.318-15.821      c0.07-0.114,27.704,12.711,27.704,12.711s-26.113-16.094-26.013-16.255c0.511-0.817,27.784,13.602,28.341,12.711      c0.304-0.487-27.868-17.414-27.868-17.414c0.161-0.258,29.979,15.25,30.064,15.112c0.613-0.981-27.975-17.309-27.897-17.432      l28.389,14.646c0.072-0.116-27.55-17.215-27.55-17.215s28.763,14.85,29.271,14.036l-28.842-18.022      c0.237-0.38,29.583,15.394,29.583,15.394s-30.367-18.111-29.979-18.733c0.245-0.393,31.429,17.668,32.033,16.702      c0.004-0.007-30.02-18.758-30.02-18.758c0.291-0.465,29.767,15.345,30.318,14.463l-29.832-18.641      c0,0,31.125,15.546,31.683,14.653L317.354,210.2c0.498-0.798,32.244,16.063,32.252,16.05      c0.299-0.479-33.868-19.772-33.243-20.772l33.052,15.532c0,0-33.266-20.482-33.129-20.701c0,0,34.073,17.6,34.6,16.757      c0,0-34.174-21.306-34.152-21.341c0,0,34.08,19.526,34.669,18.584c0.188-0.3-35.995-21.958-35.756-22.342l36.013,18.061      c0,0-38.59-23.188-38.174-23.854c0.729-1.167,36.729,19.839,37.389,18.784c0.479-0.767-41.242-25.771-41.242-25.771      l41.629,21.722c1.7-2.72-99.017-60.543-98.419-61.5c1.56-2.496,97.866,57.737,97.866,57.737s-94.551-55.732-93.046-58.142      c1.198-1.918,91.135,52.934,91.579,52.223c1.709-2.735-84.674-52.91-84.674-52.91c0.307-0.491,82.073,48.111,82.34,47.685      l-75.322-47.067c0.815-1.304,73.71,41.566,73.71,41.566c0.55-0.879-66.411-41.156-66.257-41.402      c0.447-0.716,61.426,33.503,61.426,33.503c0.134-0.216-50.511-31.563-50.511-31.563c0.703-1.125,44.043,24.149,44.043,24.149      s-35.092-20.447-34.427-21.512" style="fill:none;stroke:#262626;stroke-width:2;stroke-linecap:round;stroke-linejoin:round;"/><path d="M205.811,340.666      c0,0-2.58-1.565-2.559-1.6c0.042-0.066,5.06-0.884,5.073-0.905c0.116-0.185-4.592-2.644-4.491-2.806      c0.086-0.138,6.895,1.151,6.895,1.151l-7.615-4.759c0.122-0.195,9.711,2.982,9.809,2.826c0.147-0.235-10.333-6.457-10.333-6.457      c0.047-0.075,11.466,2.979,11.524,2.887l-11.956-7.472c0,0,13.598,4.738,13.665,4.632c0.304-0.487-14.294-8.288-14.005-8.751      l17.817,6.26l-17.885-11.176c0.336-0.538,20.177,8.186,20.177,8.186l-19.556-12.22c0,0,21.371,8.763,21.371,8.762      c0,0-21.955-12.89-21.582-13.486c0,0,22.398,10.421,22.617,10.071c0.002-0.002-21.283-13.275-21.272-13.293      c0.013-0.02,23.603,11.671,23.603,11.671s-24.146-14.546-23.902-14.937c0.48-0.77,24.602,10.821,24.602,10.821l-23.789-14.865      l25.168,11.883c0,0-23.995-14.103-23.595-14.743c0.067-0.107,25.025,10.453,25.025,10.453      c0.092-0.147-25.522-14.814-25.013-15.63c0.143-0.229,26.972,13.247,27.165,12.939c0.362-0.58-25.133-15.227-24.918-15.57      c0.216-0.346,23.903,12.77,24.394,11.985c0.416-0.667-25.07-15.666-25.07-15.666c0.002-0.004,27.341,13.463,27.341,13.463      c0.447-0.716-25.423-15.887-25.423-15.887c0.283-0.453,24.724,12.815,24.973,12.417c0.41-0.656-25.771-15.447-25.476-15.92      l27.5,12.083c0,0-25.268-15.274-25.037-15.645c0,0,26.552,12.287,26.864,11.788c0,0-26.31-15.52-25.896-16.182      c0.003-0.006,25.496,11.725,25.496,11.725l-23.948-14.964c0.025-0.04,25.861,11.789,25.861,11.789      c0.124-0.198-26.374-16.479-26.374-16.479s26.088,12.942,26.58,12.156c0,0-25.637-15.439-25.375-15.857" style="fill:none;stroke:#262626;stroke-width:2;stroke-linecap:round;stroke-linejoin:round;"/></g></g></g></g><g id="Layer_1"/></svg>