<?xml version="1.0" ?><!DOCTYPE svg  PUBLIC '-//W3C//DTD SVG 1.1//EN'  'http://www.w3.org/Graphics/SVG/1.1/DTD/svg11.dtd'><svg height="512px" style="enable-background:new 0 0 512 512;" version="1.1" viewBox="0 0 512 512" width="512px" xml:space="preserve" xmlns="http://www.w3.org/2000/svg" xmlns:xlink="http://www.w3.org/1999/xlink"><g id="google__x2C__plus__x2C__icons__x2C__social__x2C_media"><g><g><g><path d="M118.498,375.239      c0,0-64.43-38.681-63.721-39.816l40.617,21.125c0.704-1.127-44.596-27.866-44.596-27.866      c0.629-1.006,32.572,15.486,32.668,15.332c0,0-39.066-22.593-38.249-23.9c0,0,30.044,15.877,30.4,15.308      c0,0-32.206-19.79-32.055-20.03c0,0,28.348,14.844,28.579,14.474c0.408-0.653-32.203-20.122-32.203-20.122      c0.395-0.632,26.455,11.73,26.455,11.73L37.503,303.42c0,0,23.209,9.883,23.415,9.555l-26.417-16.507      c0.072-0.114,23.176,9.509,23.224,9.432c0,0-25.689-15.173-25.294-15.805c0.081-0.13,22.316,10.766,22.316,10.766l-23.014-14.38      c0,0,21.835,10.102,22.023,9.801c0.184-0.294-24.365-14.609-24.088-15.052c0,0,22.34,11.241,22.667,10.719      c0.359-0.574-21.955-13.719-21.955-13.719s18.636,7.233,18.876,6.849l-20.492-12.805c0.229-0.365,19.075,7.812,19.075,7.812      s-20.618-12.493-20.442-12.774c0.054-0.086,19.076,7.345,19.076,7.345s-19.392-11.144-18.954-11.844      c0,0,17.378,7.803,17.68,7.319c0.247-0.396-17.89-11.18-17.89-11.18s18.176,8.561,18.512,8.023      c0.266-0.426-19.396-11.633-19.177-11.983c0,0,17.304,7.053,17.459,6.804l-16.944-10.588c0.054-0.086,16.324,5.862,16.324,5.862      l-16.604-10.375c0.344-0.55,17.214,7.496,17.214,7.496c0.331-0.529-18.521-10.893-18.215-11.382      c0.205-0.327,17.289,5.647,17.289,5.647c0.158-0.252-17.226-10.341-17.036-10.646c0.299-0.478,16.991,6.624,17.233,6.235      c0.299-0.479-16.262-10.162-16.262-10.162s16.526,7.532,16.849,7.016l-16.904-10.563c0,0,16.479,6.236,16.498,6.205      c0,0-16.389-9.483-16.048-10.028l17.297,6.257l-16.206-10.126l16.811,6.004c0,0-16.048-9.925-16.002-9.999l16.659,6.104      c0.024-0.039-16.744-10.185-16.619-10.385l15.96,5.411c0.194-0.311-14.875-9.294-14.875-9.294l16.536,5.661      c0.299-0.479-15.322-9.574-15.322-9.574l15.906,6.179c0,0-15.2-8.899-14.931-9.33c0.08-0.127,15.751,6.824,15.876,6.624      c0,0-15.523-9.23-15.312-9.568c0.246-0.394,16.439,7.145,16.683,6.755c0.305-0.488-14.551-9.092-14.551-9.092      c0.07-0.112,15.85,5.072,15.85,5.072c0.307-0.491-15.744-9.14-15.431-9.642c0.188-0.301,14.807,6.05,15.01,5.724      c0.155-0.248-14.05-8.779-14.05-8.779s15.792,5.452,15.978,5.153c0.266-0.426-14.246-8.765-14.184-8.863      c0.059-0.093,15.401,6.244,15.401,6.244c0.107-0.171-14.11-8.817-14.11-8.817s14.344,5.472,14.499,5.224      c0.167-0.267-14.149-8.703-14.087-8.803c0,0,16.467,5.848,16.766,5.37c0.249-0.397-13.523-8.211-13.416-8.383      c0.159-0.254,13.835,4.936,13.835,4.936c0.01-0.015-13.253-8.281-13.253-8.281c0.147-0.236,16.381,5.48,16.381,5.48      c0.035-0.057-14.577-8.461-14.286-8.927c0.008-0.013,15.494,5.682,15.494,5.682s-13.746-8.298-13.615-8.508l14.606,5.427      c0.081-0.129-13.866-8.287-13.696-8.559c0,0,15.136,6.203,15.172,6.145l-12.791-7.993c0.219-0.35,15.135,5.358,15.135,5.358      c0.118-0.189-14.741-8.833-14.571-9.105c0,0,14.505,6.038,14.558,5.954L54.09,157.43c0,0,14.408,5.068,14.551,4.839      l-12.829-8.016c0.064-0.103,16.119,5.417,16.208,5.273l-14.323-8.95c0.026-0.042,14.925,5.378,15.163,4.997      c0.293-0.468-12.613-7.59-12.482-7.8c0.275-0.44,16.396,5.324,16.492,5.172c0.197-0.315-14.042-8.774-14.042-8.774      s15.317,6.232,15.597,5.784c0.119-0.19-13.197-8.246-13.197-8.246l15.574,5.971c0.164-0.261-13.446-8.401-13.445-8.401      c0,0,14.202,5.256,14.346,5.024c0.082-0.13-13.036-8.041-12.989-8.116c0.043-0.069,15.631,5.552,15.631,5.552      c0.001-0.002-13.755-8.082-13.524-8.451l16.175,5.409l-13.43-8.392c0.023-0.038,14.77,6.021,15.043,5.583      c0.059-0.094-13.266-7.782-13.038-8.147l15.074,5.908c0,0-11.991-7.066-11.799-7.373c0,0,14.309,5.733,14.396,5.594      c0.081-0.129-13.524-8.287-13.45-8.405c0.217-0.348,14.867,5.717,14.867,5.717c0.078-0.125-11.992-7.493-11.992-7.493      s15.077,5.673,15.218,5.447l-13.284-8.301c0.053-0.085,15.782,5.092,15.782,5.092c0.028-0.045-13.078-8.172-13.078-8.172      c0.192-0.308,15.826,6.861,15.848,6.825c0.11-0.175-14.25-8.716-14.166-8.852c0.3-0.479,15.101,6.474,15.226,6.272      c0.028-0.045-12.22-7.135-11.995-7.495l16.164,5.241c0,0-14.084-8.717-14.046-8.777c0.02-0.031,16.563,6.388,16.563,6.388      c0.108-0.173-13.541-8.461-13.541-8.461s15.495,7.06,15.706,6.722l-13.05-8.154c0.215-0.345,15.009,5.996,15.191,5.704      c0,0-13.931-8.275-13.738-8.584c0,0,16.707,6.843,16.717,6.827c0.034-0.054-14.049-8.145-13.764-8.601      c0.033-0.053,15.499,6.25,15.499,6.25l-13.519-8.448c0,0,16.13,7.194,16.33,6.874c0.086-0.138-13.811-8.63-13.811-8.63      s17.236,6.59,17.569,6.057c0.012-0.019-13.391-8.275-13.349-8.342l16.916,5.644c0.109-0.175-12.914-8.069-12.914-8.069      c0.137-0.219,16.907,5.892,16.999,5.744c0,0-14.398-8.909-14.359-8.972c0,0,16.691,7.489,16.978,7.029      c0.301-0.482-13.492-8.431-13.492-8.431c0.192-0.308,15.582,6.044,15.582,6.044l-13.136-8.208c0.031-0.05,17.48,6.368,17.71,6      l-13.55-8.467c0,0,17.622,5.975,17.679,5.883c0.192-0.308-13.228-8.265-13.228-8.265c0.107-0.171,18.229,6.74,18.229,6.74      c0.156-0.249-15.182-9.486-15.182-9.486s16.852,7.395,17.112,6.978l-13.001-8.125c0,0,16.16,7.117,16.309,6.879      c0.189-0.302-14.497-9.059-14.497-9.059c0.178-0.285,17.061,7.358,17.303,6.972c0.1-0.159-14.228-8.657-14.123-8.825      c0.196-0.314,18.17,8.257,18.17,8.257s-14.64-8.771-14.47-9.042l18.207,7.261c0.002-0.004-15.212-9.262-15.103-9.437      l17.703,6.876c0.268-0.429-14.445-9.026-14.445-9.026s20.065,8.491,20.434,7.901c0.063-0.101-15.301-9.197-15.137-9.458      l19.462,7.333l-15.351-9.592c0.106-0.17,18.48,8.238,18.48,8.238l-14.77-9.229c0,0,19.024,8.563,19.159,8.347      c0,0-16.843-10.016-16.615-10.382c0.341-0.546,20.708,8.674,20.89,8.384c0.07-0.112-16.433-10.268-16.433-10.268      s18.909,9.18,19.196,8.72c0.257-0.411-15.607-9.752-15.607-9.752c0.182-0.292,21.471,8.92,21.663,8.614      c0.09-0.145-17.688-10.244-17.325-10.826c0.436-0.698,22.042,9.827,22.042,9.827c0.23-0.369-17.132-10.173-16.893-10.556      c0,0,21.637,9.704,21.84,9.379c0.076-0.122-16.795-10.494-16.795-10.494s21.069,8.742,21.195,8.54      c0.026-0.042-17.545-10.587-17.376-10.858c0.063-0.101,21.904,10.039,21.904,10.039c0.167-0.268-17.999-11.247-17.999-11.247      s22.633,11.109,22.982,10.55l-18.688-11.677c0,0,22.629,10.68,22.708,10.554l-17.586-10.989      c0.061-0.097,22.823,10.71,22.973,10.471c0.063-0.101-19.3-11.901-19.229-12.015c0,0,23.271,11.383,23.722,10.662      c0.264-0.422-18.256-11.408-18.256-11.408c0.235-0.376,23.67,10.929,23.67,10.929c0.357-0.571-18.625-11.639-18.625-11.639      c0.15-0.241,23.251,11.255,23.251,11.255l-18.972-11.855l24.855,12.214c0.406-0.649-21.542-13.461-21.542-13.461l27.791,13.18      c0.427-0.684-22.75-14.216-22.75-14.216l27.543,13.259c0.328-0.526-21.97-12.891-21.594-13.493c0,0,29.529,13.951,29.808,13.503      l-22.035-13.769c0.294-0.471,30.157,14.117,30.157,14.117l-24.685-15.425c0.16-0.257,30.203,16.662,30.697,15.871      l-24.081-15.048c0.106-0.17,34.239,16.383,34.239,16.383c0.413-0.661-28.339-16.883-27.968-17.477      c0,0,35.532,19.095,35.865,18.563c0.43-0.687-29.613-17.674-29.24-18.271c0.449-0.72,38.496,21.427,39.308,20.128      c0,0-31.372-19.264-31.219-19.508c0.057-0.091,44.947,24.433,45.445,23.636c0.688-1.102-37.896-22.811-37.505-23.436      c0,0,50.087,28.049,50.541,27.323c0.215-0.344-42.813-25.921-42.438-26.519l57.976,33.161      c0.537-0.858-51.186-31.984-51.186-31.984" style="fill:none;stroke:#231F20;stroke-width:2;stroke-linecap:round;stroke-linejoin:round;"/><path d="M134.189,403.229      c0,0-27.132-15.847-26.635-16.644c0.263-0.421,52.724,29.143,52.724,29.143s-75.834-45.65-75.054-46.899      c1.492-2.388,94.348,56.698,95.55,54.773c0.369-0.59-110.309-66.838-109.37-68.341c2.316-3.707,121.348,72.557,121.348,72.557      L65.892,348.546c0,0,136.415,84.901,138.075,82.243c1.321-2.113-145.141-90.693-145.141-90.693      c1.95-3.12,155.036,93.164,155.036,93.164s-56.236-33.134-55.335-34.577c0,0,64.732,38.169,65.837,36.401      c0.686-1.098-42.823-25.93-42.45-26.526c0.616-0.986,52.124,30.071,53.063,28.568c0.282-0.451-39.057-23.58-38.686-24.174      l47.516,24.845c0.03-0.047-33.919-21.194-33.919-21.194l44.768,22.924c0.242-0.387-32.524-19.05-31.952-19.966      c0.401-0.642,37.766,20.461,37.948,20.168l-28.901-18.06c0.387-0.62,36.643,18.134,36.766,17.937      c0.289-0.463-27.323-16.063-26.869-16.79l32.875,17.279l-26.332-16.454l31.311,16.437l-25.173-15.729      c0,0,31.103,16.95,31.668,16.044l-25.498-15.933l32.67,15.718l-24.384-15.236l27.622,14.075      c0.246-0.395-22.526-13.973-22.479-14.047c0.404-0.647,27.45,13.528,27.45,13.528l-21.279-13.296l27.839,13.633l-21.952-13.717      c0,0,27.904,13.511,28.457,12.626c0.471-0.752-21.574-13.481-21.574-13.481c0.354-0.566,27.745,12.395,27.8,12.307      c0,0-21.036-12.273-20.645-12.9c0,0,26.393,12.734,26.857,11.991l-20.709-12.94c0,0,25.643,11.863,25.707,11.761l-19.416-12.132      c0.296-0.475,24.279,10.892,24.672,10.263c0.404-0.646-18.798-11.019-18.472-11.542c0.297-0.475,22.713,11.595,23.069,11.023      l-20.176-12.607c0.266-0.426,24.013,10.829,24.358,10.276c0.234-0.375-18.201-11.373-18.201-11.373      c0.134-0.214,23.375,10.572,23.375,10.572c0.244-0.392-18.153-10.558-17.801-11.123l21.113,9.332      c0.258-0.413-17.625-10.424-17.36-10.848c0.211-0.338,22.966,9.94,22.966,9.94c0.31-0.494-18.354-11.47-18.354-11.47      c0.27-0.433,21.753,9.628,21.753,9.628s-18.289-11.019-18.104-11.313l21.918,9.024c0.268-0.429-16.813-9.665-16.435-10.27      c0,0,20.214,9.667,20.415,9.346l-16.494-10.307l20.947,8.108l-17.382-10.861c0.026-0.043,21.034,8.643,21.142,8.472      c0.029-0.048-15.507-9.67-15.498-9.684c0,0,19.632,8.662,19.821,8.358c0.158-0.253-17.569-10.979-17.569-10.979      c0.267-0.427,20.278,9.375,20.278,9.375l-17.423-10.888c0.094-0.15,20.268,8.717,20.302,8.661l-16.203-10.124      c0.269-0.43,20.65,8.4,20.65,8.4c0.184-0.294-17.315-10.068-16.978-10.608c0.234-0.375,18.413,8.775,18.706,8.307      c0.115-0.184-14.786-9.239-14.786-9.239l17.681,7.372c0.259-0.414-14.516-9.07-14.516-9.07c0.089-0.143,18.275,7.376,18.448,7.1      c0,0-16.851-9.902-16.568-10.353c0.197-0.315,18.961,9.179,19.219,8.766c0,0-15.082-9.372-15.059-9.409      c0.232-0.373,16.873,7.199,16.932,7.106l-15.447-9.653c0,0,17.79,7.77,18.029,7.388l-14.897-9.309      c0,0,18.552,7.412,18.774,7.057c0,0-14.595-9.105-14.588-9.116c0.275-0.44,16.705,6.913,17.033,6.388      c0.042-0.067-14.953-8.813-14.715-9.194c0.016-0.025,18.925,7.604,19.211,7.145c0.136-0.217-16.473-10.293-16.473-10.293      l19.076,7.275l-15.674-9.794c0.021-0.033,17.623,7.111,17.623,7.111s-14.791-9.112-14.732-9.206      c0.016-0.024,18.069,7.006,18.069,7.006c0.211-0.339-14.926-8.953-14.758-9.222c0.101-0.161,16.487,6.366,16.487,6.366      c0.205-0.328-14.484-8.492-14.233-8.895c0.137-0.219,17.992,6.614,17.992,6.614c0.013-0.02-15.859-9.91-15.859-9.91      c0.192-0.309,17.732,6.353,17.743,6.335c0.244-0.392-14.529-8.799-14.403-9.001c0.154-0.247,16.149,6.851,16.299,6.61      c0.284-0.453-14.486-9.052-14.486-9.052l17.454,6.308c0,0-14.119-8.371-13.916-8.695c0.153-0.246,15.519,5.842,15.566,5.766      c0,0-14.436-8.955-14.406-9.002l16.614,6.574c0.178-0.285-13.981-8.737-13.981-8.737c0.31-0.496,15.568,6.899,15.862,6.429      c0,0-14.52-8.812-14.402-8.999c0,0,16.956,5.739,17.022,5.634c0.085-0.136-14.668-8.655-14.439-9.022l16.543,7.081      c0.181-0.29-15.186-9.489-15.186-9.489c0.09-0.144,17.407,6.283,17.537,6.075c0.08-0.13-14.229-8.892-14.229-8.892      c0.237-0.379,17.102,5.632,17.102,5.632l-15.075-9.42c0,0,17.138,6.29,17.339,5.969l-14.798-9.246      c0,0,15.378,5.744,15.672,5.272l-14.426-9.015c0.258-0.412,16.097,5.431,16.097,5.431c0.192-0.309-13.423-8.388-13.423-8.388      s15.076,5.964,15.219,5.734c0.17-0.271-14.4-8.292-14.083-8.8c0,0,15.141,6.515,15.345,6.188      c0.02-0.032-14.636-8.445-14.321-8.948c0.132-0.212,16.949,6.183,16.967,6.153c0.078-0.125-14.816-9.259-14.816-9.259      s16.856,5.814,16.92,5.711l-15.287-9.553c0.194-0.311,15.736,5.315,15.736,5.315c0.158-0.253-14.821-9.262-14.821-9.262      c0.071-0.115,16.106,6.476,16.106,6.476l-15.284-9.551c0,0,16.642,7.084,16.743,6.922c0,0-14.706-9.076-14.655-9.157      c0.036-0.06,15.773,6.927,15.882,6.752c0.075-0.12-15.438-9.646-15.438-9.646s15.444,6.62,15.474,6.574l-14.215-8.882      l16.378,6.721c0.168-0.268-15.548-9.715-15.548-9.715c0.146-0.233,15.844,5.82,16.062,5.472      c0.107-0.173-15.233-9.437-15.196-9.496c0.288-0.461,16.791,7.007,16.791,7.007c0.093-0.148-16.376-10.065-16.301-10.186      c0.127-0.203,16.48,5.205,16.48,5.205c0.24-0.385-14.153-8.692-14.085-8.802c0.256-0.409,15.299,6.395,15.299,6.395      l-15.216-9.508c0.094-0.15,15.503,5.658,15.803,5.178l-14.782-9.237c0.257-0.409,16.803,6.117,16.854,6.036      c0.299-0.479-15.515-9.695-15.515-9.695c0.093-0.148,15.794,4.956,15.885,4.812c0.26-0.417-15.315-9.563-15.312-9.568      c0.066-0.106,15.581,6.566,15.611,6.519c0.113-0.183-15.167-8.751-14.84-9.273c0.042-0.067,15.1,5.815,15.112,5.795      c0.205-0.328-15.359-8.977-15.081-9.423c0.023-0.037,17.092,7.241,17.092,7.241c0.304-0.487-16.547-9.89-16.345-10.213      c0,0,15.968,6.738,16.045,6.614c0,0-16.258-9.565-15.991-9.993c0.284-0.454,15.701,6.745,15.701,6.745l-16.292-10.181      c0,0,17.796,7.321,18.133,6.781c0,0-17.278-10.611-17.194-10.745c0,0,17.399,6.178,17.49,6.031      c0.133-0.212-16.645-10.401-16.645-10.401c0.277-0.444,16.452,6.399,16.631,6.114c0.104-0.167-17.027-10.232-16.844-10.525      l16.676,6.461c0.251-0.402-16.853-9.807-16.527-10.328c0.278-0.444,16.042,6.088,16.267,5.728l-17.464-10.913      c0,0,17.295,6.961,17.475,6.674c0.385-0.616-17.227-10.57-17.14-10.709c0.306-0.49,16.64,7.615,16.812,7.34      c0.353-0.563-17.235-10.77-17.235-10.77c0.094-0.151,17.762,7.817,18.021,7.404c0,0-18.854-10.991-18.498-11.559      c0.279-0.447,17.914,7.403,18.072,7.149c0.394-0.63-18.686-11.673-18.684-11.675l17.921,7.896c0,0-18.31-10.578-17.922-11.199      c0,0,17.326,6.927,17.596,6.496c0,0-18.831-11.603-18.757-11.721c0.059-0.095,19.456,7.779,19.456,7.779l-20.571-12.854      c0.142-0.228,19.578,7.487,19.578,7.487c0.203-0.327-20.297-11.937-19.962-12.474l19.11,7.452c0,0-22.345-13.253-22.026-13.764      l21.185,8.225c0,0-22.598-13.624-22.374-13.981l20.074,9.012c0.082-0.131-21.927-13.701-21.927-13.701      c0.11-0.176,21.43,10.003,21.43,10.003l-21.759-13.597c0,0,19.784,7.9,20.002,7.55c0.518-0.828-22.591-14.116-22.591-14.116      c0.421-0.673,21.887,10.018,21.887,10.018c0.034-0.055-25.231-15.767-25.231-15.767l24.192,11.534      c0.241-0.387-25.957-15.032-25.424-15.886c0.105-0.169,22.224,10.1,22.518,9.629c0.565-0.903-26.481-16.548-26.481-16.548      c0.301-0.482,23.47,9.821,23.47,9.821l-27.46-17.159c0,0,24.242,10.431,24.259,10.404c0.285-0.457-29.197-18.245-29.197-18.245      c0.387-0.619,27.776,14.238,27.776,14.238s-32.483-19.865-32.288-20.176c0,0,29.58,15.154,29.724,14.925l-34.774-21.729      c0.61-0.977,30.389,14.343,30.389,14.343l-40.559-25.344c0.505-0.809,37.744,20.292,37.744,20.292      c0.213-0.342-46.913-29.314-46.913-29.314l40.632,20.44c1.897-3.035-134.188-83.85-134.188-83.85      c0.862-1.379,129.302,77.143,129.302,77.143c1.354-2.168-122.987-70.999-120.357-75.208      c1.699-2.719,115.103,68.514,115.103,68.514c0.859-1.375-107.37-67.092-107.37-67.092s99.235,58.813,99.565,58.285      c0.91-1.457-88.285-55.167-88.285-55.167c0.188-0.3,73.968,43.881,74.987,42.25L362.2,58.66" style="fill:none;stroke:#231F20;stroke-width:2;stroke-linecap:round;stroke-linejoin:round;"/><path d="M212.126,253.285      c0,0-0.234-0.138-0.23-0.144c0.132-0.211,8.3,0.48,8.3,0.48c0.023-0.038-8.224-4.845-8.091-5.056l12.386,4.631l-12.039-7.522      l17.875,7.062c0.259-0.415-18.007-11.252-18.007-11.252s26.993,12.283,27.114,12.089c0.458-0.734-27.118-16.945-27.118-16.945      c0.606-0.97,32.729,16.685,32.729,16.685l-33.554-20.966c0.366-0.585,38.035,20.624,38.101,20.518      c0,0-38.564-22.524-37.857-23.656" style="fill:none;stroke:#231F20;stroke-width:2;stroke-linecap:round;stroke-linejoin:round;"/><path d="M179.637,268.791      c0,0-46.705-28.046-46.194-28.865l37.674,19.286c0.575-0.92-36.313-22.691-36.313-22.691      c0.649-1.04,33.589,16.129,33.689,15.969c0,0-34.296-19.837-33.58-20.983c0,0,30.809,16.376,31.174,15.792      c0,0-29.31-18.008-29.171-18.229c0,0,29.743,15.743,29.985,15.354c0.383-0.613-30.23-18.89-30.23-18.89      c0.453-0.725,30.102,14.009,30.102,14.009l-28.256-17.657c0,0,27.875,12.897,28.124,12.499l-26.841-16.772      c0.089-0.144,28.561,12.899,28.621,12.804c0,0-26.898-15.887-26.484-16.549c0.098-0.156,26.597,13.44,26.597,13.44      l-24.76-15.472c0,0,27.14,13.526,27.377,13.147c0.201-0.323-26.652-15.978-26.349-16.464c0,0,27.71,14.782,28.12,14.127      c0.404-0.647-24.76-15.472-24.76-15.472s25.899,11.999,26.242,11.451l-24.126-15.076c0.324-0.518,26.479,12.438,26.479,12.438      s-24.887-15.081-24.676-15.419c0.08-0.128,27.608,12.676,27.608,12.676s-24.714-14.217-24.163-15.099      c0,0,25.83,13.437,26.291,12.7c0.318-0.51-23.597-14.745-23.597-14.745s27.111,14.539,27.625,13.717      c0.357-0.571-25.996-15.592-25.703-16.061c0,0,27.765,13.817,28.023,13.405l-24.325-15.2      c0.097-0.155,28.113,13.228,28.113,13.228l-25.058-15.658c0.6-0.96,29.167,14.965,29.167,14.965      c0.504-0.807-28.089-16.515-27.623-17.261c0.403-0.646,32.501,15.153,32.501,15.153c0.256-0.411-28.386-17.049-28.077-17.544      c0.619-0.99,33.565,17.56,34.068,16.755c0.53-0.848-29.482-18.422-29.482-18.422s34.297,19.473,34.996,18.355l-31.96-19.971      c0,0,38.507,20.063,38.555,19.988c0,0-35.297-20.455-34.578-21.607l48.304,25.631l-43.03-26.888l54.285,29.422      c0,0-49.224-30.445-49.083-30.671l52.126,28.265c0.072-0.115-48.109-29.236-47.738-29.83l49.373,26.29      c0.546-0.875-43.324-27.072-43.324-27.072l47.345,24.913c0.791-1.266-40.61-25.376-40.61-25.376l42.956,23.082      c0,0-37.619-22.045-36.962-23.096c0.207-0.332,39.071,21.843,39.397,21.321c0,0-34.382-20.438-33.912-21.19      c0.571-0.914,36.379,20.319,36.943,19.415c0.586-0.937-28.346-17.712-28.346-17.712c0.147-0.235,31.677,14.962,31.677,14.962      c0.365-0.585-18.619-10.804-18.246-11.401" style="fill:none;stroke:#231F20;stroke-width:2;stroke-linecap:round;stroke-linejoin:round;"/><path d="M172.421,298.062      c0,0-14.911-8.699-14.633-9.144c0.14-0.225,28.769,14.172,28.769,14.172s-40.126-24.143-39.708-24.812      c0.793-1.27,51.117,28.432,51.756,27.408c0.195-0.313-58.114-35.205-57.616-36.003c1.231-1.971,65.18,37.46,65.18,37.46      l-66.572-41.599c0,0,72.102,42.949,72.969,41.561c0.689-1.104-75.603-47.242-75.603-47.242      c1.014-1.622,81.384,47.143,81.384,47.143s-83.987-49.489-82.643-51.641c0,0,87.038,52.981,88.536,50.584      c1.411-2.258-89.717-54.357-88.951-55.583c1.128-1.806,93.877,57.898,95.597,55.146c0.713-1.141-98.156-59.245-97.217-60.748      l101.95,58.86c0.04-0.063-45-28.119-45-28.119l51.664,27.232c0.282-0.45-37.827-22.153-37.16-23.22      c0.429-0.688,40.317,22.085,40.513,21.771l-33.141-20.708c0.391-0.626,36.928,18.313,37.052,18.114      c0.324-0.518-30.716-18.063-30.208-18.876l33.729,17.813l-29.224-18.261l31.787,16.734l-27.949-17.465      c0,0,31.075,16.932,31.641,16.026l-28.161-17.597l31.682,15.101l-27.042-16.897l27.981,14.3      c0.274-0.44-25.295-15.689-25.243-15.773c0.404-0.646,27.428,13.516,27.428,13.516l-24.262-15.161l28.035,13.757l-25.222-15.761      c0,0,27.326,13.122,27.867,12.257c0.553-0.885-25.446-15.9-25.446-15.9c0.356-0.569,27.935,12.515,27.99,12.426      c0,0-25.895-15.112-25.415-15.881c0,0,27.453,13.442,27.938,12.666l-26.276-16.419c0,0,27.983,13.34,28.054,13.228      l-26.131-16.328c0.332-0.531,26.974,12.68,27.413,11.977c1.35-2.159-65.73-38.646-64.64-40.392      c0.891-1.425,65.445,39.883,66.515,38.171l-62.655-39.151c0.722-1.155,61.973,35.863,62.909,34.365      c0.686-1.096-54.735-34.202-54.735-34.202c0.336-0.539,56.505,31.274,56.505,31.274c0.655-1.049-50.169-29.245-49.224-30.759      l49.321,26.959c0.627-1.002-44.357-26.288-43.714-27.316c0.433-0.694,45.474,24.005,45.474,24.005      c0.654-1.047-38.69-24.177-38.69-24.177c0.494-0.791,38.508,20.097,38.508,20.097s-33.105-19.942-32.771-20.478l32.295,15.509      c0.384-0.615-24.634-14.19-24.093-15.055c0,0,24.516,12.457,24.763,12.062l-18.824-11.763l18.438,6.541l-11.661-7.287      c0.013-0.02,10.168,1.901,10.217,1.823c0.005-0.008-1.488-0.927-1.487-0.929" style="fill:none;stroke:#231F20;stroke-width:2;stroke-linecap:round;stroke-linejoin:round;"/><path d="M350.286,229.94      c0,0-17.464-10.736-17.385-10.863c0.311-0.496,18.333,6.75,18.333,6.75c0.052-0.083-18.235-10.754-17.948-11.215l17.597,7.886      l-17.14-10.71l16.908,6.458c0.244-0.391-16.904-10.563-16.904-10.563s18.552,6.92,18.634,6.79      c0.2-0.32-11.698-7.309-11.698-7.309c0.198-0.316,11.48,3.408,11.48,3.408l-5.575-3.484" style="fill:none;stroke:#231F20;stroke-width:2;stroke-linecap:round;stroke-linejoin:round;"/><path d="M305.973,246.83      c0,0-2.218-1.357-2.204-1.378l9.197,1.492c0.146-0.233-8.721-5.449-8.721-5.449c0.34-0.545,18.409,6.54,18.462,6.455      c0,0-19.999-11.58-19.587-12.239c0,0,24.383,12.183,24.668,11.726c0,0-23.556-14.468-23.442-14.648" style="fill:none;stroke:#231F20;stroke-width:2;stroke-linecap:round;stroke-linejoin:round;"/><path d="M331.729,271.803      c0,0-0.463-0.247-0.443-0.277c0.028-0.046,6.625,0.337,6.625,0.337s-6.691-4.007-6.613-4.133      c0.226-0.36,15.661,5.257,15.842,4.968c0.057-0.09-15.876-9.606-15.734-9.833c0.331-0.529,18.401,8.229,18.401,8.229      l-17.31-10.816c0,0,16.796,6.878,16.983,6.577c0.162-0.26-17.498-10.935-17.498-10.935c0.207-0.332,17.744,7.375,17.744,7.375      s-17.947-10.568-17.657-11.033c0,0,16.779,6.336,17.044,5.911c0.721-1.153-45.094-27.306-44.702-27.933      c0.526-0.842,44.781,25.178,45.584,23.894c0.326-0.522-45.214-27.295-44.783-27.984l45.168,23.379      c0.032-0.052-37.058-23.156-37.058-23.156l47.311,24.513c0.29-0.465-38.981-22.83-38.295-23.929      c0.474-0.757,44.274,24.602,44.49,24.256l-37.371-23.352c0.488-0.782,45.686,23.854,45.841,23.606      c0.45-0.722-43.289-25.476-42.581-26.608l44.539,24.568l-44.148-27.587l44.147,24.457l-25.74-16.083      c0,0,26.226,13.696,26.698,12.939l-22.721-14.198l22.994,9.671l-14.325-8.951l13.205,5.066c0.09-0.145-7.427-4.603-7.409-4.63      c0.099-0.158,7.42,1.013,7.42,1.013l-0.414-0.259" style="fill:none;stroke:#231F20;stroke-width:2;stroke-linecap:round;stroke-linejoin:round;"/></g><g><path d="M118.498,375.239      c0,0-64.43-38.681-63.721-39.816l40.617,21.125c0.704-1.127-44.596-27.866-44.596-27.866      c0.629-1.006,32.572,15.486,32.668,15.332c0,0-39.066-22.593-38.249-23.9c0,0,30.044,15.877,30.4,15.308      c0,0-32.206-19.79-32.055-20.03c0,0,28.348,14.844,28.579,14.474c0.408-0.653-32.203-20.122-32.203-20.122      c0.395-0.632,26.455,11.73,26.455,11.73L37.503,303.42c0,0,23.209,9.883,23.415,9.555l-26.417-16.507      c0.072-0.114,23.176,9.509,23.224,9.432c0,0-25.689-15.173-25.294-15.805c0.081-0.13,22.316,10.766,22.316,10.766l-23.014-14.38      c0,0,21.835,10.102,22.023,9.801c0.184-0.294-24.365-14.609-24.088-15.052c0,0,22.34,11.241,22.667,10.719      c0.359-0.574-21.955-13.719-21.955-13.719s18.636,7.233,18.876,6.849l-20.492-12.805c0.229-0.365,19.075,7.812,19.075,7.812      s-20.618-12.493-20.442-12.774c0.054-0.086,19.076,7.345,19.076,7.345s-19.392-11.144-18.954-11.844      c0,0,17.378,7.803,17.68,7.319c0.247-0.396-17.89-11.18-17.89-11.18s18.176,8.561,18.512,8.023      c0.266-0.426-19.396-11.633-19.177-11.983c0,0,17.304,7.053,17.459,6.804l-16.944-10.588c0.054-0.086,16.324,5.862,16.324,5.862      l-16.604-10.375c0.344-0.55,17.214,7.496,17.214,7.496c0.331-0.529-18.521-10.893-18.215-11.382      c0.205-0.327,17.289,5.647,17.289,5.647c0.158-0.252-17.226-10.341-17.036-10.646c0.299-0.478,16.991,6.624,17.233,6.235      c0.299-0.479-16.262-10.162-16.262-10.162s16.526,7.532,16.849,7.016l-16.904-10.563c0,0,16.479,6.236,16.498,6.205      c0,0-16.389-9.483-16.048-10.028l17.297,6.257l-16.206-10.126l16.811,6.004c0,0-16.048-9.925-16.002-9.999l16.659,6.104      c0.024-0.039-16.744-10.185-16.619-10.385l15.96,5.411c0.194-0.311-14.875-9.294-14.875-9.294l16.536,5.661      c0.299-0.479-15.322-9.574-15.322-9.574l15.906,6.179c0,0-15.2-8.899-14.931-9.33c0.08-0.127,15.751,6.824,15.876,6.624      c0,0-15.523-9.23-15.312-9.568c0.246-0.394,16.439,7.145,16.683,6.755c0.305-0.488-14.551-9.092-14.551-9.092      c0.07-0.112,15.85,5.072,15.85,5.072c0.307-0.491-15.744-9.14-15.431-9.642c0.188-0.301,14.807,6.05,15.01,5.724      c0.155-0.248-14.05-8.779-14.05-8.779s15.792,5.452,15.978,5.153c0.266-0.426-14.246-8.765-14.184-8.863      c0.059-0.093,15.401,6.244,15.401,6.244c0.107-0.171-14.11-8.817-14.11-8.817s14.344,5.472,14.499,5.224      c0.167-0.267-14.149-8.703-14.087-8.803c0,0,16.467,5.848,16.766,5.37c0.249-0.397-13.523-8.211-13.416-8.383      c0.159-0.254,13.835,4.936,13.835,4.936c0.01-0.015-13.253-8.281-13.253-8.281c0.147-0.236,16.381,5.48,16.381,5.48      c0.035-0.057-14.577-8.461-14.286-8.927c0.008-0.013,15.494,5.682,15.494,5.682s-13.746-8.298-13.615-8.508l14.606,5.427      c0.081-0.129-13.866-8.287-13.696-8.559c0,0,15.136,6.203,15.172,6.145l-12.791-7.993c0.219-0.35,15.135,5.358,15.135,5.358      c0.118-0.189-14.741-8.833-14.571-9.105c0,0,14.505,6.038,14.558,5.954L54.09,157.43c0,0,14.408,5.068,14.551,4.839      l-12.829-8.016c0.064-0.103,16.119,5.417,16.208,5.273l-14.323-8.95c0.026-0.042,14.925,5.378,15.163,4.997      c0.293-0.468-12.613-7.59-12.482-7.8c0.275-0.44,16.396,5.324,16.492,5.172c0.197-0.315-14.042-8.774-14.042-8.774      s15.317,6.232,15.597,5.784c0.119-0.19-13.197-8.246-13.197-8.246l15.574,5.971c0.164-0.261-13.446-8.401-13.445-8.401      c0,0,14.202,5.256,14.346,5.024c0.082-0.13-13.036-8.041-12.989-8.116c0.043-0.069,15.631,5.552,15.631,5.552      c0.001-0.002-13.755-8.082-13.524-8.451l16.175,5.409l-13.43-8.392c0.023-0.038,14.77,6.021,15.043,5.583      c0.059-0.094-13.266-7.782-13.038-8.147l15.074,5.908c0,0-11.991-7.066-11.799-7.373c0,0,14.309,5.733,14.396,5.594      c0.081-0.129-13.524-8.287-13.45-8.405c0.217-0.348,14.867,5.717,14.867,5.717c0.078-0.125-11.992-7.493-11.992-7.493      s15.077,5.673,15.218,5.447l-13.284-8.301c0.053-0.085,15.782,5.092,15.782,5.092c0.028-0.045-13.078-8.172-13.078-8.172      c0.192-0.308,15.826,6.861,15.848,6.825c0.11-0.175-14.25-8.716-14.166-8.852c0.3-0.479,15.101,6.474,15.226,6.272      c0.028-0.045-12.22-7.135-11.995-7.495l16.164,5.241c0,0-14.084-8.717-14.046-8.777c0.02-0.031,16.563,6.388,16.563,6.388      c0.108-0.173-13.541-8.461-13.541-8.461s15.495,7.06,15.706,6.722l-13.05-8.154c0.215-0.345,15.009,5.996,15.191,5.704      c0,0-13.931-8.275-13.738-8.584c0,0,16.707,6.843,16.717,6.827c0.034-0.054-14.049-8.145-13.764-8.601      c0.033-0.053,15.499,6.25,15.499,6.25l-13.519-8.448c0,0,16.13,7.194,16.33,6.874c0.086-0.138-13.811-8.63-13.811-8.63      s17.236,6.59,17.569,6.057c0.012-0.019-13.391-8.275-13.349-8.342l16.916,5.644c0.109-0.175-12.914-8.069-12.914-8.069      c0.137-0.219,16.907,5.892,16.999,5.744c0,0-14.398-8.909-14.359-8.972c0,0,16.691,7.489,16.978,7.029      c0.301-0.482-13.492-8.431-13.492-8.431c0.192-0.308,15.582,6.044,15.582,6.044l-13.136-8.208c0.031-0.05,17.48,6.368,17.71,6      l-13.55-8.467c0,0,17.622,5.975,17.679,5.883c0.192-0.308-13.228-8.265-13.228-8.265c0.107-0.171,18.229,6.74,18.229,6.74      c0.156-0.249-15.182-9.486-15.182-9.486s16.852,7.395,17.112,6.978l-13.001-8.125c0,0,16.16,7.117,16.309,6.879      c0.189-0.302-14.497-9.059-14.497-9.059c0.178-0.285,17.061,7.358,17.303,6.972c0.1-0.159-14.228-8.657-14.123-8.825      c0.196-0.314,18.17,8.257,18.17,8.257s-14.64-8.771-14.47-9.042l18.207,7.261c0.002-0.004-15.212-9.262-15.103-9.437      l17.703,6.876c0.268-0.429-14.445-9.026-14.445-9.026s20.065,8.491,20.434,7.901c0.063-0.101-15.301-9.197-15.137-9.458      l19.462,7.333l-15.351-9.592c0.106-0.17,18.48,8.238,18.48,8.238l-14.77-9.229c0,0,19.024,8.563,19.159,8.347      c0,0-16.843-10.016-16.615-10.382c0.341-0.546,20.708,8.674,20.89,8.384c0.07-0.112-16.433-10.268-16.433-10.268      s18.909,9.18,19.196,8.72c0.257-0.411-15.607-9.752-15.607-9.752c0.182-0.292,21.471,8.92,21.663,8.614      c0.09-0.145-17.688-10.244-17.325-10.826c0.436-0.698,22.042,9.827,22.042,9.827c0.23-0.369-17.132-10.173-16.893-10.556      c0,0,21.637,9.704,21.84,9.379c0.076-0.122-16.795-10.494-16.795-10.494s21.069,8.742,21.195,8.54      c0.026-0.042-17.545-10.587-17.376-10.858c0.063-0.101,21.904,10.039,21.904,10.039c0.167-0.268-17.999-11.247-17.999-11.247      s22.633,11.109,22.982,10.55l-18.688-11.677c0,0,22.629,10.68,22.708,10.554l-17.586-10.989      c0.061-0.097,22.823,10.71,22.973,10.471c0.063-0.101-19.3-11.901-19.229-12.015c0,0,23.271,11.383,23.722,10.662      c0.264-0.422-18.256-11.408-18.256-11.408c0.235-0.376,23.67,10.929,23.67,10.929c0.357-0.571-18.625-11.639-18.625-11.639      c0.15-0.241,23.251,11.255,23.251,11.255l-18.972-11.855l24.855,12.214c0.406-0.649-21.542-13.461-21.542-13.461l27.791,13.18      c0.427-0.684-22.75-14.216-22.75-14.216l27.543,13.259c0.328-0.526-21.97-12.891-21.594-13.493c0,0,29.529,13.951,29.808,13.503      l-22.035-13.769c0.294-0.471,30.157,14.117,30.157,14.117l-24.685-15.425c0.16-0.257,30.203,16.662,30.697,15.871      l-24.081-15.048c0.106-0.17,34.239,16.383,34.239,16.383c0.413-0.661-28.339-16.883-27.968-17.477      c0,0,35.532,19.095,35.865,18.563c0.43-0.687-29.613-17.674-29.24-18.271c0.449-0.72,38.496,21.427,39.308,20.128      c0,0-31.372-19.264-31.219-19.508c0.057-0.091,44.947,24.433,45.445,23.636c0.688-1.102-37.896-22.811-37.505-23.436      c0,0,50.087,28.049,50.541,27.323c0.215-0.344-42.813-25.921-42.438-26.519l57.976,33.161      c0.537-0.858-51.186-31.984-51.186-31.984" style="fill:none;stroke:#262626;stroke-width:2;stroke-linecap:round;stroke-linejoin:round;"/><path d="M134.189,403.229      c0,0-27.132-15.847-26.635-16.644c0.263-0.421,52.724,29.143,52.724,29.143s-75.834-45.65-75.054-46.899      c1.492-2.388,94.348,56.698,95.55,54.773c0.369-0.59-110.309-66.838-109.37-68.341c2.316-3.707,121.348,72.557,121.348,72.557      L65.892,348.546c0,0,136.415,84.901,138.075,82.243c1.321-2.113-145.141-90.693-145.141-90.693      c1.95-3.12,155.036,93.164,155.036,93.164s-56.236-33.134-55.335-34.577c0,0,64.732,38.169,65.837,36.401      c0.686-1.098-42.823-25.93-42.45-26.526c0.616-0.986,52.124,30.071,53.063,28.568c0.282-0.451-39.057-23.58-38.686-24.174      l47.516,24.845c0.03-0.047-33.919-21.194-33.919-21.194l44.768,22.924c0.242-0.387-32.524-19.05-31.952-19.966      c0.401-0.642,37.766,20.461,37.948,20.168l-28.901-18.06c0.387-0.62,36.643,18.134,36.766,17.937      c0.289-0.463-27.323-16.063-26.869-16.79l32.875,17.279l-26.332-16.454l31.311,16.437l-25.173-15.729      c0,0,31.103,16.95,31.668,16.044l-25.498-15.933l32.67,15.718l-24.384-15.236l27.622,14.075      c0.246-0.395-22.526-13.973-22.479-14.047c0.404-0.647,27.45,13.528,27.45,13.528l-21.279-13.296l27.839,13.633l-21.952-13.717      c0,0,27.904,13.511,28.457,12.626c0.471-0.752-21.574-13.481-21.574-13.481c0.354-0.566,27.745,12.395,27.8,12.307      c0,0-21.036-12.273-20.645-12.9c0,0,26.393,12.734,26.857,11.991l-20.709-12.94c0,0,25.643,11.863,25.707,11.761l-19.416-12.132      c0.296-0.475,24.279,10.892,24.672,10.263c0.404-0.646-18.798-11.019-18.472-11.542c0.297-0.475,22.713,11.595,23.069,11.023      l-20.176-12.607c0.266-0.426,24.013,10.829,24.358,10.276c0.234-0.375-18.201-11.373-18.201-11.373      c0.134-0.214,23.375,10.572,23.375,10.572c0.244-0.392-18.153-10.558-17.801-11.123l21.113,9.332      c0.258-0.413-17.625-10.424-17.36-10.848c0.211-0.338,22.966,9.94,22.966,9.94c0.31-0.494-18.354-11.47-18.354-11.47      c0.27-0.433,21.753,9.628,21.753,9.628s-18.289-11.019-18.104-11.313l21.918,9.024c0.268-0.429-16.813-9.665-16.435-10.27      c0,0,20.214,9.667,20.415,9.346l-16.494-10.307l20.947,8.108l-17.382-10.861c0.026-0.043,21.034,8.643,21.142,8.472      c0.029-0.048-15.507-9.67-15.498-9.684c0,0,19.632,8.662,19.821,8.358c0.158-0.253-17.569-10.979-17.569-10.979      c0.267-0.427,20.278,9.375,20.278,9.375l-17.423-10.888c0.094-0.15,20.268,8.717,20.302,8.661l-16.203-10.124      c0.269-0.43,20.65,8.4,20.65,8.4c0.184-0.294-17.315-10.068-16.978-10.608c0.234-0.375,18.413,8.775,18.706,8.307      c0.115-0.184-14.786-9.239-14.786-9.239l17.681,7.372c0.259-0.414-14.516-9.07-14.516-9.07c0.089-0.143,18.275,7.376,18.448,7.1      c0,0-16.851-9.902-16.568-10.353c0.197-0.315,18.961,9.179,19.219,8.766c0,0-15.082-9.372-15.059-9.409      c0.232-0.373,16.873,7.199,16.932,7.106l-15.447-9.653c0,0,17.79,7.77,18.029,7.388l-14.897-9.309      c0,0,18.552,7.412,18.774,7.057c0,0-14.595-9.105-14.588-9.116c0.275-0.44,16.705,6.913,17.033,6.388      c0.042-0.067-14.953-8.813-14.715-9.194c0.016-0.025,18.925,7.604,19.211,7.145c0.136-0.217-16.473-10.293-16.473-10.293      l19.076,7.275l-15.674-9.794c0.021-0.033,17.623,7.111,17.623,7.111s-14.791-9.112-14.732-9.206      c0.016-0.024,18.069,7.006,18.069,7.006c0.211-0.339-14.926-8.953-14.758-9.222c0.101-0.161,16.487,6.366,16.487,6.366      c0.205-0.328-14.484-8.492-14.233-8.895c0.137-0.219,17.992,6.614,17.992,6.614c0.013-0.02-15.859-9.91-15.859-9.91      c0.192-0.309,17.732,6.353,17.743,6.335c0.244-0.392-14.529-8.799-14.403-9.001c0.154-0.247,16.149,6.851,16.299,6.61      c0.284-0.453-14.486-9.052-14.486-9.052l17.454,6.308c0,0-14.119-8.371-13.916-8.695c0.153-0.246,15.519,5.842,15.566,5.766      c0,0-14.436-8.955-14.406-9.002l16.614,6.574c0.178-0.285-13.981-8.737-13.981-8.737c0.31-0.496,15.568,6.899,15.862,6.429      c0,0-14.52-8.812-14.402-8.999c0,0,16.956,5.739,17.022,5.634c0.085-0.136-14.668-8.655-14.439-9.022l16.543,7.081      c0.181-0.29-15.186-9.489-15.186-9.489c0.09-0.144,17.407,6.283,17.537,6.075c0.08-0.13-14.229-8.892-14.229-8.892      c0.237-0.379,17.102,5.632,17.102,5.632l-15.075-9.42c0,0,17.138,6.29,17.339,5.969l-14.798-9.246      c0,0,15.378,5.744,15.672,5.272l-14.426-9.015c0.258-0.412,16.097,5.431,16.097,5.431c0.192-0.309-13.423-8.388-13.423-8.388      s15.076,5.964,15.219,5.734c0.17-0.271-14.4-8.292-14.083-8.8c0,0,15.141,6.515,15.345,6.188      c0.02-0.032-14.636-8.445-14.321-8.948c0.132-0.212,16.949,6.183,16.967,6.153c0.078-0.125-14.816-9.259-14.816-9.259      s16.856,5.814,16.92,5.711l-15.287-9.553c0.194-0.311,15.736,5.315,15.736,5.315c0.158-0.253-14.821-9.262-14.821-9.262      c0.071-0.115,16.106,6.476,16.106,6.476l-15.284-9.551c0,0,16.642,7.084,16.743,6.922c0,0-14.706-9.076-14.655-9.157      c0.036-0.06,15.773,6.927,15.882,6.752c0.075-0.12-15.438-9.646-15.438-9.646s15.444,6.62,15.474,6.574l-14.215-8.882      l16.378,6.721c0.168-0.268-15.548-9.715-15.548-9.715c0.146-0.233,15.844,5.82,16.062,5.472      c0.107-0.173-15.233-9.437-15.196-9.496c0.288-0.461,16.791,7.007,16.791,7.007c0.093-0.148-16.376-10.065-16.301-10.186      c0.127-0.203,16.48,5.205,16.48,5.205c0.24-0.385-14.153-8.692-14.085-8.802c0.256-0.409,15.299,6.395,15.299,6.395      l-15.216-9.508c0.094-0.15,15.503,5.658,15.803,5.178l-14.782-9.237c0.257-0.409,16.803,6.117,16.854,6.036      c0.299-0.479-15.515-9.695-15.515-9.695c0.093-0.148,15.794,4.956,15.885,4.812c0.26-0.417-15.315-9.563-15.312-9.568      c0.066-0.106,15.581,6.566,15.611,6.519c0.113-0.183-15.167-8.751-14.84-9.273c0.042-0.067,15.1,5.815,15.112,5.795      c0.205-0.328-15.359-8.977-15.081-9.423c0.023-0.037,17.092,7.241,17.092,7.241c0.304-0.487-16.547-9.89-16.345-10.213      c0,0,15.968,6.738,16.045,6.614c0,0-16.258-9.565-15.991-9.993c0.284-0.454,15.701,6.745,15.701,6.745l-16.292-10.181      c0,0,17.796,7.321,18.133,6.781c0,0-17.278-10.611-17.194-10.745c0,0,17.399,6.178,17.49,6.031      c0.133-0.212-16.645-10.401-16.645-10.401c0.277-0.444,16.452,6.399,16.631,6.114c0.104-0.167-17.027-10.232-16.844-10.525      l16.676,6.461c0.251-0.402-16.853-9.807-16.527-10.328c0.278-0.444,16.042,6.088,16.267,5.728l-17.464-10.913      c0,0,17.295,6.961,17.475,6.674c0.385-0.616-17.227-10.57-17.14-10.709c0.306-0.49,16.64,7.615,16.812,7.34      c0.353-0.563-17.235-10.77-17.235-10.77c0.094-0.151,17.762,7.817,18.021,7.404c0,0-18.854-10.991-18.498-11.559      c0.279-0.447,17.914,7.403,18.072,7.149c0.394-0.63-18.686-11.673-18.684-11.675l17.921,7.896c0,0-18.31-10.578-17.922-11.199      c0,0,17.326,6.927,17.596,6.496c0,0-18.831-11.603-18.757-11.721c0.059-0.095,19.456,7.779,19.456,7.779l-20.571-12.854      c0.142-0.228,19.578,7.487,19.578,7.487c0.203-0.327-20.297-11.937-19.962-12.474l19.11,7.452c0,0-22.345-13.253-22.026-13.764      l21.185,8.225c0,0-22.598-13.624-22.374-13.981l20.074,9.012c0.082-0.131-21.927-13.701-21.927-13.701      c0.11-0.176,21.43,10.003,21.43,10.003l-21.759-13.597c0,0,19.784,7.9,20.002,7.55c0.518-0.828-22.591-14.116-22.591-14.116      c0.421-0.673,21.887,10.018,21.887,10.018c0.034-0.055-25.231-15.767-25.231-15.767l24.192,11.534      c0.241-0.387-25.957-15.032-25.424-15.886c0.105-0.169,22.224,10.1,22.518,9.629c0.565-0.903-26.481-16.548-26.481-16.548      c0.301-0.482,23.47,9.821,23.47,9.821l-27.46-17.159c0,0,24.242,10.431,24.259,10.404c0.285-0.457-29.197-18.245-29.197-18.245      c0.387-0.619,27.776,14.238,27.776,14.238s-32.483-19.865-32.288-20.176c0,0,29.58,15.154,29.724,14.925l-34.774-21.729      c0.61-0.977,30.389,14.343,30.389,14.343l-40.559-25.344c0.505-0.809,37.744,20.292,37.744,20.292      c0.213-0.342-46.913-29.314-46.913-29.314l40.632,20.44c1.897-3.035-134.188-83.85-134.188-83.85      c0.862-1.379,129.302,77.143,129.302,77.143c1.354-2.168-122.987-70.999-120.357-75.208      c1.699-2.719,115.103,68.514,115.103,68.514c0.859-1.375-107.37-67.092-107.37-67.092s99.235,58.813,99.565,58.285      c0.91-1.457-88.285-55.167-88.285-55.167c0.188-0.3,73.968,43.881,74.987,42.25L362.2,58.66" style="fill:none;stroke:#262626;stroke-width:2;stroke-linecap:round;stroke-linejoin:round;"/><path d="M212.126,253.285      c0,0-0.234-0.138-0.23-0.144c0.132-0.211,8.3,0.48,8.3,0.48c0.023-0.038-8.224-4.845-8.091-5.056l12.386,4.631l-12.039-7.522      l17.875,7.062c0.259-0.415-18.007-11.252-18.007-11.252s26.993,12.283,27.114,12.089c0.458-0.734-27.118-16.945-27.118-16.945      c0.606-0.97,32.729,16.685,32.729,16.685l-33.554-20.966c0.366-0.585,38.035,20.624,38.101,20.518      c0,0-38.564-22.524-37.857-23.656" style="fill:none;stroke:#262626;stroke-width:2;stroke-linecap:round;stroke-linejoin:round;"/><path d="M179.637,268.791      c0,0-46.705-28.046-46.194-28.865l37.674,19.286c0.575-0.92-36.313-22.691-36.313-22.691      c0.649-1.04,33.589,16.129,33.689,15.969c0,0-34.296-19.837-33.58-20.983c0,0,30.809,16.376,31.174,15.792      c0,0-29.31-18.008-29.171-18.229c0,0,29.743,15.743,29.985,15.354c0.383-0.613-30.23-18.89-30.23-18.89      c0.453-0.725,30.102,14.009,30.102,14.009l-28.256-17.657c0,0,27.875,12.897,28.124,12.499l-26.841-16.772      c0.089-0.144,28.561,12.899,28.621,12.804c0,0-26.898-15.887-26.484-16.549c0.098-0.156,26.597,13.44,26.597,13.44      l-24.76-15.472c0,0,27.14,13.526,27.377,13.147c0.201-0.323-26.652-15.978-26.349-16.464c0,0,27.71,14.782,28.12,14.127      c0.404-0.647-24.76-15.472-24.76-15.472s25.899,11.999,26.242,11.451l-24.126-15.076c0.324-0.518,26.479,12.438,26.479,12.438      s-24.887-15.081-24.676-15.419c0.08-0.128,27.608,12.676,27.608,12.676s-24.714-14.217-24.163-15.099      c0,0,25.83,13.437,26.291,12.7c0.318-0.51-23.597-14.745-23.597-14.745s27.111,14.539,27.625,13.717      c0.357-0.571-25.996-15.592-25.703-16.061c0,0,27.765,13.817,28.023,13.405l-24.325-15.2      c0.097-0.155,28.113,13.228,28.113,13.228l-25.058-15.658c0.6-0.96,29.167,14.965,29.167,14.965      c0.504-0.807-28.089-16.515-27.623-17.261c0.403-0.646,32.501,15.153,32.501,15.153c0.256-0.411-28.386-17.049-28.077-17.544      c0.619-0.99,33.565,17.56,34.068,16.755c0.53-0.848-29.482-18.422-29.482-18.422s34.297,19.473,34.996,18.355l-31.96-19.971      c0,0,38.507,20.063,38.555,19.988c0,0-35.297-20.455-34.578-21.607l48.304,25.631l-43.03-26.888l54.285,29.422      c0,0-49.224-30.445-49.083-30.671l52.126,28.265c0.072-0.115-48.109-29.236-47.738-29.83l49.373,26.29      c0.546-0.875-43.324-27.072-43.324-27.072l47.345,24.913c0.791-1.266-40.61-25.376-40.61-25.376l42.956,23.082      c0,0-37.619-22.045-36.962-23.096c0.207-0.332,39.071,21.843,39.397,21.321c0,0-34.382-20.438-33.912-21.19      c0.571-0.914,36.379,20.319,36.943,19.415c0.586-0.937-28.346-17.712-28.346-17.712c0.147-0.235,31.677,14.962,31.677,14.962      c0.365-0.585-18.619-10.804-18.246-11.401" style="fill:none;stroke:#262626;stroke-width:2;stroke-linecap:round;stroke-linejoin:round;"/><path d="M172.421,298.062      c0,0-14.911-8.699-14.633-9.144c0.14-0.225,28.769,14.172,28.769,14.172s-40.126-24.143-39.708-24.812      c0.793-1.27,51.117,28.432,51.756,27.408c0.195-0.313-58.114-35.205-57.616-36.003c1.231-1.971,65.18,37.46,65.18,37.46      l-66.572-41.599c0,0,72.102,42.949,72.969,41.561c0.689-1.104-75.603-47.242-75.603-47.242      c1.014-1.622,81.384,47.143,81.384,47.143s-83.987-49.489-82.643-51.641c0,0,87.038,52.981,88.536,50.584      c1.411-2.258-89.717-54.357-88.951-55.583c1.128-1.806,93.877,57.898,95.597,55.146c0.713-1.141-98.156-59.245-97.217-60.748      l101.95,58.86c0.04-0.063-45-28.119-45-28.119l51.664,27.232c0.282-0.45-37.827-22.153-37.16-23.22      c0.429-0.688,40.317,22.085,40.513,21.771l-33.141-20.708c0.391-0.626,36.928,18.313,37.052,18.114      c0.324-0.518-30.716-18.063-30.208-18.876l33.729,17.813l-29.224-18.261l31.787,16.734l-27.949-17.465      c0,0,31.075,16.932,31.641,16.026l-28.161-17.597l31.682,15.101l-27.042-16.897l27.981,14.3      c0.274-0.44-25.295-15.689-25.243-15.773c0.404-0.646,27.428,13.516,27.428,13.516l-24.262-15.161l28.035,13.757l-25.222-15.761      c0,0,27.326,13.122,27.867,12.257c0.553-0.885-25.446-15.9-25.446-15.9c0.356-0.569,27.935,12.515,27.99,12.426      c0,0-25.895-15.112-25.415-15.881c0,0,27.453,13.442,27.938,12.666l-26.276-16.419c0,0,27.983,13.34,28.054,13.228      l-26.131-16.328c0.332-0.531,26.974,12.68,27.413,11.977c1.35-2.159-65.73-38.646-64.64-40.392      c0.891-1.425,65.445,39.883,66.515,38.171l-62.655-39.151c0.722-1.155,61.973,35.863,62.909,34.365      c0.686-1.096-54.735-34.202-54.735-34.202c0.336-0.539,56.505,31.274,56.505,31.274c0.655-1.049-50.169-29.245-49.224-30.759      l49.321,26.959c0.627-1.002-44.357-26.288-43.714-27.316c0.433-0.694,45.474,24.005,45.474,24.005      c0.654-1.047-38.69-24.177-38.69-24.177c0.494-0.791,38.508,20.097,38.508,20.097s-33.105-19.942-32.771-20.478l32.295,15.509      c0.384-0.615-24.634-14.19-24.093-15.055c0,0,24.516,12.457,24.763,12.062l-18.824-11.763l18.438,6.541l-11.661-7.287      c0.013-0.02,10.168,1.901,10.217,1.823c0.005-0.008-1.488-0.927-1.487-0.929" style="fill:none;stroke:#262626;stroke-width:2;stroke-linecap:round;stroke-linejoin:round;"/><path d="M350.286,229.94      c0,0-17.464-10.736-17.385-10.863c0.311-0.496,18.333,6.75,18.333,6.75c0.052-0.083-18.235-10.754-17.948-11.215l17.597,7.886      l-17.14-10.71l16.908,6.458c0.244-0.391-16.904-10.563-16.904-10.563s18.552,6.92,18.634,6.79      c0.2-0.32-11.698-7.309-11.698-7.309c0.198-0.316,11.48,3.408,11.48,3.408l-5.575-3.484" style="fill:none;stroke:#262626;stroke-width:2;stroke-linecap:round;stroke-linejoin:round;"/><path d="M305.973,246.83      c0,0-2.218-1.357-2.204-1.378l9.197,1.492c0.146-0.233-8.721-5.449-8.721-5.449c0.34-0.545,18.409,6.54,18.462,6.455      c0,0-19.999-11.58-19.587-12.239c0,0,24.383,12.183,24.668,11.726c0,0-23.556-14.468-23.442-14.648" style="fill:none;stroke:#262626;stroke-width:2;stroke-linecap:round;stroke-linejoin:round;"/><path d="M331.729,271.803      c0,0-0.463-0.247-0.443-0.277c0.028-0.046,6.625,0.337,6.625,0.337s-6.691-4.007-6.613-4.133      c0.226-0.36,15.661,5.257,15.842,4.968c0.057-0.09-15.876-9.606-15.734-9.833c0.331-0.529,18.401,8.229,18.401,8.229      l-17.31-10.816c0,0,16.796,6.878,16.983,6.577c0.162-0.26-17.498-10.935-17.498-10.935c0.207-0.332,17.744,7.375,17.744,7.375      s-17.947-10.568-17.657-11.033c0,0,16.779,6.336,17.044,5.911c0.721-1.153-45.094-27.306-44.702-27.933      c0.526-0.842,44.781,25.178,45.584,23.894c0.326-0.522-45.214-27.295-44.783-27.984l45.168,23.379      c0.032-0.052-37.058-23.156-37.058-23.156l47.311,24.513c0.29-0.465-38.981-22.83-38.295-23.929      c0.474-0.757,44.274,24.602,44.49,24.256l-37.371-23.352c0.488-0.782,45.686,23.854,45.841,23.606      c0.45-0.722-43.289-25.476-42.581-26.608l44.539,24.568l-44.148-27.587l44.147,24.457l-25.74-16.083      c0,0,26.226,13.696,26.698,12.939l-22.721-14.198l22.994,9.671l-14.325-8.951l13.205,5.066c0.09-0.145-7.427-4.603-7.409-4.63      c0.099-0.158,7.42,1.013,7.42,1.013l-0.414-0.259" style="fill:none;stroke:#262626;stroke-width:2;stroke-linecap:round;stroke-linejoin:round;"/></g></g></g></g><g id="Layer_1"/></svg>