<?xml version="1.0" ?><!DOCTYPE svg  PUBLIC '-//W3C//DTD SVG 1.1//EN'  'http://www.w3.org/Graphics/SVG/1.1/DTD/svg11.dtd'><svg height="512px" style="enable-background:new 0 0 512 512;" version="1.1" viewBox="0 0 512 512" width="512px" xml:space="preserve" xmlns="http://www.w3.org/2000/svg" xmlns:xlink="http://www.w3.org/1999/xlink"><g id="blogger_x2C__icon__x2C__social__x2C_media_x2C__icon_x2C_"><g><g><g><path d="M117.866,374.784      l-62.041-38.767l42.158,22.53c0.068-0.11-47.257-29.529-47.257-29.529l33.188,15.78c0.336-0.537-37.946-22.172-37.254-23.279      l28.918,12.935c0.61-0.977-33.299-19.396-32.664-20.411c0.248-0.396,24.374,11.116,24.835,10.378l-28.337-17.707      c0.161-0.259,24.706,12.482,25.18,11.723c0,0-28.321-16.902-27.964-17.474c0.159-0.255,24.68,11.331,24.68,11.331      c0.122-0.195-26.765-15.457-26.195-16.368c0,0,22.827,11.14,23.202,10.54c0.18-0.288-24.899-15.107-24.696-15.433l21.899,9.272      c0.421-0.673-23.674-14.793-23.674-14.793c0.005-0.009,20.553,8.171,20.587,8.116c0,0-23.319-14.418-23.25-14.528      c0.043-0.069,20.472,7.697,20.472,7.697s-21.427-12.975-21.241-13.272c0.266-0.426,18.881,7.863,19.188,7.374      c0,0-20.221-11.948-19.912-12.442c0,0,20.394,9.002,20.418,8.963c0.318-0.51-20.809-12.521-20.592-12.868      c0.32-0.513,19.054,7.818,19.336,7.366c0.02-0.031-19.586-12.239-19.586-12.239l18.537,7.363      c0.347-0.555-18.73-11.704-18.73-11.704l17.072,7.234c0,0-18.466-11.288-18.353-11.469c0.196-0.313,18.54,7.224,18.54,7.224      l-18.328-11.453c0,0,17.243,6.126,17.471,5.761c0.239-0.382-17.16-10.723-17.16-10.723l18.049,6.203l-18.036-11.27l17.965,7.811      l-17.27-10.792l17.2,7.182l-16.214-10.131c0,0,15.892,5.6,16.15,5.186c0.143-0.228-16.239-9.769-16.069-10.041l15.867,5.766      c0.05-0.081-15.989-9.746-15.879-9.922l16.795,6.625c0,0-16.2-9.593-15.962-9.974l16.561,5.168c0,0-15.332-9.238-15.178-9.484      c0,0,16.076,6.059,16.2,5.86c0.293-0.469-15.865-9.914-15.865-9.914l15.91,5.44l-14.155-8.845      c0.252-0.403,15.672,5.184,15.672,5.184c0.077-0.123-14.26-8.814-14.216-8.883l14.479,5.78c0,0-13.667-8.378-13.595-8.495      l14.516,5.652c0.224-0.358-14.643-9.15-14.643-9.15c0.193-0.309,15.241,6.221,15.241,6.221l-14.391-8.992l15.546,6.195      c0,0-15.054-8.703-14.738-9.209c0.309-0.493,15.849,5.632,15.849,5.632c0.133-0.214-14.63-9.142-14.63-9.142      s16.303,7.448,16.621,6.938c0,0-15.66-9.196-15.396-9.62c0.275-0.439,15.082,5.939,15.294,5.599l-13.515-8.445      c0.18-0.288,15.912,6.792,16.083,6.518c0,0-13.983-8.503-13.878-8.672c0.029-0.046,13.813,5.11,13.877,5.007      c0,0-13.283-7.684-13.006-8.127c0.258-0.413,15.393,6.002,15.626,5.628c0.19-0.304-14.58-9.071-14.562-9.099      c0,0,16.392,5.543,16.466,5.425c0,0-13.86-8.505-13.79-8.617c0.021-0.034,14.653,6.217,14.936,5.765l-14.828-9.266      c0,0,15.779,5.816,15.998,5.466l-13.035-8.145c0.072-0.116,14.537,4.569,14.537,4.569c0.125-0.201-12.635-7.896-12.635-7.896      l14.859,4.36c0.133-0.212-13.54-8.461-13.54-8.461l16.052,5.734l-12.925-8.077c0,0,14.313,5.905,14.328,5.881l-12.575-7.858      c0,0,14.486,5.043,14.74,4.637c0,0-13.211-7.87-13.038-8.147c0.029-0.047,14.937,5.986,14.937,5.986      c0.178-0.285-13.029-8.142-13.029-8.142c0.234-0.376,13.559,5.156,13.559,5.156l-12.228-7.641l14.967,4.328l-12.177-7.608      c0,0,15.134,6.083,15.18,6.01l-14.391-8.992c0.204-0.326,16.183,5.996,16.183,5.996l-12.878-8.047c0,0,14.085,4.945,14.25,4.681      c0.189-0.303-12.563-7.851-12.563-7.851c0.046-0.075,15.423,5.64,15.583,5.383l-12.868-8.041l14.874,5.976      c0.274-0.439-13.507-8.44-13.507-8.44l16.894,5.753c0,0-13.071-8.164-13.069-8.167c0.172-0.275,14.299,5.776,14.48,5.487      l-12.986-8.114c0.194-0.31,15.053,6.885,15.309,6.476c0.258-0.412-13.562-8.475-13.562-8.475      c0.269-0.43,15.627,6.607,15.627,6.607s-14.161-8.62-14.058-8.785c0,0,15.157,6.446,15.354,6.131      c0.138-0.22-12.591-7.868-12.591-7.868s15.809,6.483,15.837,6.437l-14.356-8.971l15.3,5.93      c0.004-0.007-12.172-7.606-12.172-7.606s16.307,5.252,16.373,5.147c0.182-0.292-13.533-8.457-13.533-8.457      s16.242,6.964,16.269,6.921l-14.603-9.125c0,0,16.327,7.011,16.401,6.894c0.091-0.146-13.523-8.45-13.523-8.45      s15.941,6.645,16.068,6.441c0,0-14.572-8.49-14.295-8.933c0.304-0.487,16.238,6.259,16.433,5.946l-12.552-7.843      c0,0,15.468,5.896,15.539,5.783c0,0-12.749-7.803-12.675-7.92c0,0,15.179,5.804,15.201,5.769l-13.133-8.207      c0,0,15.777,7.066,15.92,6.837c0.158-0.253-13.519-8.214-13.414-8.382c0,0,15.996,6.179,16.196,5.859      c0.015-0.023-13.807-8.628-13.807-8.628s17.162,6.882,17.489,6.359l-13.287-8.303c0.114-0.183,18.235,6.405,18.235,6.405      c0.16-0.255-14.82-8.646-14.543-9.088c0.124-0.198,15.969,6.954,16.204,6.578c0,0-13.496-7.77-13.198-8.247      c0,0,17.291,6.463,17.592,5.981l-13.622-8.512l17.762,6.749l-13.769-8.603c0.18-0.289,16.041,6.002,16.344,5.518      c0.146-0.234-13.138-8.044-13.063-8.163l17.571,7.463c0.238-0.381-14.552-8.484-14.278-8.922      c0.341-0.545,18.035,6.969,18.035,6.969s-15.03-9.343-15.008-9.378c0.317-0.507,17.46,6.947,17.738,6.503      c0.086-0.138-13.932-8.425-13.806-8.627c0.108-0.174,17.222,6.947,17.24,6.917c0.219-0.35-13.91-8.438-13.795-8.621      c0.15-0.241,19.016,7.529,19.315,7.05c0,0-15.089-8.999-14.896-9.308c0.076-0.122,18.1,7.696,18.215,7.511      c0,0-14.571-8.892-14.476-9.045l18.349,8.258l-15.754-9.845l19.993,8.198l-16.17-10.104c0.383-0.613,19.229,8.363,19.229,8.363      s-15.97-9.617-15.808-9.877l20.157,7.608l-15.103-9.437c0,0,19.874,9.428,20.274,8.787c0.252-0.402-17.15-10.717-17.15-10.717      l19.784,8.848c0,0-15.609-9.308-15.409-9.629c0,0,19.706,9.384,19.962,8.975c0.138-0.221-16.103-9.382-15.797-9.872      c0.323-0.516,18.121,8.108,18.121,8.108c0.184-0.295-15.373-9.606-15.373-9.606l19.576,8.921l-16.2-10.124l19.449,9.086      c0,0-15.757-9.25-15.489-9.679l22.23,8.861c0.034-0.055-17.201-10.749-17.201-10.749l22.063,9.493      c0,0-18.585-11.201-18.399-11.498c0,0,24.226,10.848,24.31,10.713l-18.887-11.802c0.44-0.704,24.538,10.322,24.538,10.322      c0.247-0.395-17.498-10.934-17.498-10.934c0.386-0.618,24.643,10.837,24.643,10.837c0.14-0.225-19.681-12.255-19.662-12.286      c0,0,22.4,10.908,22.503,10.743c0,0-19.565-12.022-19.474-12.168c0.213-0.342,26.542,12.046,26.542,12.046      s-20.614-12.444-20.417-12.759c0.258-0.413,26.629,13.325,26.915,12.867c0,0-21.264-13.245-21.245-13.275      c0.378-0.605,26.801,12.206,26.801,12.206l-20.661-12.91c0,0,27.342,12.931,27.383,12.866c0,0-22.824-13.707-22.575-14.106      c0,0,30.702,15.437,31.276,14.518l-22.94-14.335l30.944,14.89L262.378,41.67c0,0,30.799,16.268,30.873,16.148      c0,0-26.734-15.56-26.22-16.384c0.44-0.705,34.951,16.875,34.951,16.875c0.539-0.863-27.977-17.151-27.828-17.389      c0.534-0.855,37.307,19.562,37.307,19.562L280.86,41.362l38.086,20.445c0.259-0.415-32.295-20.18-32.295-20.18      s45.403,24.147,45.713,23.652c0,0-37.604-22.869-37.322-23.321l49.298,27.061c0.503-0.805-41.165-25.723-41.165-25.723      l58.121,33.033c1.149-1.839-51.814-32.377-51.814-32.377" style="fill:none;stroke:#231F20;stroke-width:2;stroke-linecap:round;stroke-linejoin:round;"/><path d="M135.006,403.739      l-28.013-17.505c0.652-1.043,52.185,29.248,52.185,29.248c1.025-1.642-72.716-45.438-72.716-45.438l93.169,53.409      c1.657-2.652-106.49-65.398-105.976-66.222c0,0,120.462,72.993,121.557,71.241c0.3-0.479-132.518-82.807-132.518-82.807      c1.067-1.707,141.581,84.799,141.581,84.799L57.495,338.748c0.551-0.881,160.945,95.523,160.945,95.523      s-49.656-30.495-49.417-30.879c1.141-1.826,58.489,32.794,58.489,32.794l-43.083-26.922l50.455,28.061      c0,0-38.375-23.806-38.297-23.931l46.339,24.999c0.761-1.218-35.661-22.2-35.624-22.26c0.292-0.467,41.625,23.634,42.227,22.67      c0,0-32.963-19.931-32.664-20.41c0,0,38.44,22.225,39.014,21.306c0.193-0.309-31.975-19.98-31.975-19.98      s39.807,20.762,40.073,20.335c0.313-0.501-29.74-18.584-29.74-18.584c0.456-0.729,36.992,18.707,37.292,18.228      c0.376-0.602-25.671-16.041-25.671-16.041c0.244-0.391,31.982,17.855,32.495,17.035l-26.493-16.555l32.451,16.042      l-25.306-15.813l31.594,15.156c0.38-0.608-24.089-15.053-24.089-15.053c0.512-0.818,29.358,15.302,29.537,15.016      c0.272-0.435-23.1-13.382-22.626-14.139c0.015-0.023,28.144,13.873,28.471,13.35c0.24-0.385-22.29-13.929-22.29-13.929      c0.135-0.216,26.849,13.322,26.849,13.322c0.056-0.088-22.253-13.905-22.253-13.905s26.891,14.167,27.241,13.606      c0.07-0.112-20.885-12.784-20.765-12.975c0,0,25.047,12.414,25.434,11.795l-19.524-12.2c0,0,25.438,12.682,25.818,12.072      c0.228-0.363-20.694-12.604-20.548-12.839l25.872,11.818c0.074-0.119-20.499-11.825-20.057-12.532      c0.319-0.512,23.811,11.153,24.146,10.616c0.189-0.304-18.748-11.671-18.729-11.703l24.105,10.992      c0.034-0.056-20.075-12.545-20.075-12.545c0.214-0.342,26.165,11.447,26.165,11.447s-19.776-11.755-19.506-12.188l23.689,10.829      l-19.408-12.128c0.287-0.46,22.513,10.27,22.513,10.27s-18.681-10.95-18.356-11.47l23.178,10.564      c0.387-0.618-19.342-11.607-19.127-11.951c0,0,22.439,10.644,22.758,10.134l-17.975-11.232c0,0,22.174,10.099,22.419,9.706      c0,0-18.483-11.274-18.36-11.473c0.463-0.74,23.136,10.467,23.239,10.301c0.11-0.177-17.771-11.105-17.771-11.105      s20.511,9.808,20.72,9.474c0,0-18.751-10.936-18.4-11.498c0.124-0.198,21.021,10.368,21.285,9.944      c0.229-0.366-17.342-10.273-17.089-10.678l20.552,8.237l-15.594-9.744l20.623,7.771c0.2-0.319-15.858-9.909-15.858-9.909      c0.139-0.223,20.454,8.076,20.454,8.076c0.276-0.441-17.655-11.032-17.655-11.032c0.382-0.611,21.246,8.365,21.255,8.353      l-16.76-10.473l19.026,8.398c0,0-16.544-9.643-16.231-10.143c0,0,18.591,8.926,18.84,8.528      c0.316-0.508-15.854-9.906-15.854-9.906s18.68,8.6,18.707,8.554c0.221-0.353-16.055-10.032-16.055-10.032      s19.114,7.812,19.244,7.604c0.06-0.095-15.422-9.222-15.235-9.521c0,0,18.745,7.623,18.839,7.473      c0,0-16.317-9.998-16.229-10.141c0.069-0.11,19.938,7.535,19.986,7.456c0,0-15.45-9.535-15.396-9.621      c0,0,18.325,8.079,18.38,7.991l-16.31-10.191c0.09-0.144,19.07,7.943,19.07,7.943l-15.224-9.514      c0.018-0.027,17.21,7.025,17.21,7.025c0.004-0.006-15.475-9.67-15.475-9.67l19.173,7.03c0.237-0.381-15.74-9.776-15.714-9.818      c0,0,18.806,7.15,18.968,6.89c0.12-0.191-15.64-9.368-15.458-9.658l17.785,7.113l-15.845-9.901c0,0,18.245,7.873,18.508,7.452      l-15.895-9.932c0.072-0.116,18.34,6.904,18.377,6.845c0.227-0.362-14.97-9.354-14.97-9.354      c0.269-0.431,17.286,6.393,17.286,6.393c0.07-0.112-13.987-8.738-13.986-8.739l16.291,7.104l-15.01-9.38l16.425,6.495      c0.276-0.443-13.531-8.456-13.531-8.456s17.223,7.013,17.389,6.748l-15.721-9.823c0,0,16.989,7.955,17.287,7.478l-15.627-9.765      c0.265-0.423,17.451,6.388,17.535,6.255l-15.182-9.486l16.77,6.783c0.208-0.333-13.993-8.743-13.993-8.743      c0.2-0.32,16.675,6.78,16.675,6.78s-15.508-9.563-15.45-9.654c0.262-0.42,16.62,7.236,16.62,7.236      c0.054-0.087-14.693-8.54-14.404-9.001c0,0,16.181,7.198,16.29,7.022l-14.583-9.112c0.243-0.39,15.715,5.673,15.715,5.673      c0.187-0.299-14.41-8.506-14.186-8.864c0,0,16.303,5.774,16.47,5.509c0.037-0.061-14.899-9.311-14.899-9.311      s16.801,6.665,17.073,6.229c0.146-0.233-13.956-8.721-13.956-8.721c0.231-0.37,16.573,5.876,16.573,5.876      c0.102-0.163-14.52-9.072-14.52-9.072c0.26-0.415,15.302,5.67,15.302,5.67c0.143-0.228-15.154-9.47-15.154-9.47l17.423,6.039      l-14.124-8.826l16.885,5.378l-15.319-9.572c0,0,15.066,6.132,15.323,5.721c0.053-0.085-14.265-8.353-14.013-8.756      c0,0,16.657,7.438,16.798,7.215l-15.883-9.924c0.053-0.086,17.28,6.412,17.533,6.008l-15.669-9.791l17.255,5.634      c0.198-0.317-15.689-9.313-15.469-9.666c0.029-0.048,15.932,5.002,16.025,4.852c0,0-14.588-8.438-14.283-8.926      c0,0,15.715,5.411,15.9,5.114l-14.426-9.014c0.227-0.362,15.889,5.372,15.913,5.334c0.098-0.157-14.982-9.044-14.84-9.272      c0,0,15.642,6.693,15.733,6.546l-15.896-9.933c0,0,17.038,6.953,17.158,6.762l-16.255-10.158l16.909,6.66l-14.855-9.283      c0.027-0.044,15.536,6.375,15.536,6.375l-15.728-9.827l16.921,7.297c0.26-0.417-15.285-9.438-15.234-9.52      c0,0,16.188,5.939,16.468,5.489c0.353-0.563-16.784-10.487-16.784-10.487c0.194-0.312,16.393,7.25,16.71,6.741l-15.381-9.611      c0.042-0.067,16.114,6.953,16.114,6.953s-15.883-9.841-15.846-9.901c0.242-0.387,15.812,6.099,15.812,6.099      c0.316-0.507-15.508-9.69-15.508-9.69l17.387,6.092c0.113-0.181-16.005-10.001-16.005-10.001s15.843,5.734,15.949,5.563      l-16.989-10.616l18.461,6.747c0,0-17.209-10.019-16.879-10.546c0.098-0.157,16.94,7.458,17.098,7.207      c0.18-0.289-16.74-10.459-16.74-10.459c0.254-0.405,16.913,7.022,16.913,7.022c0.058-0.092-16.938-10.583-16.938-10.583      s17.201,5.675,17.225,5.637c0,0-18.002-10.624-17.721-11.074c0,0,18.213,6.667,18.307,6.517l-19.11-11.942      c0.28-0.449,18.048,8.197,18.238,7.893c0.247-0.396-18.357-11.037-18.162-11.349c0.304-0.487,18.826,8.116,18.826,8.116      c0.376-0.602-18.758-11.707-18.752-11.717c0.105-0.168,18.508,7.458,18.774,7.033c0,0-20.055-11.914-19.777-12.358l18.301,8.286      l-18.504-11.563c0.212-0.34,18.001,7.87,18.146,7.637l-17.391-10.867c0.221-0.353,17.101,6.729,17.101,6.729      c0.295-0.472-17.761-11.099-17.761-11.099c0.081-0.131,17.208,7.929,17.521,7.428c0,0-18.292-10.98-18.09-11.304      c0,0,18.632,8.865,18.848,8.519l-20.645-12.901c0.089-0.143,20.127,7.733,20.127,7.733c0.169-0.27-20.827-12.543-20.615-12.882      l20.017,9.324c0.025-0.04-22.22-13.68-22.128-13.827l20.49,9.368c0,0-21.317-13.32-21.317-13.32l21.089,10.072      c0.385-0.615-21.408-13.377-21.408-13.377c0.135-0.215,19.001,7.093,19.001,7.093l-21.07-13.167l20.602,9.263      c0.125-0.201-23.193-13.618-22.8-14.247c0.272-0.437,22.009,10.336,22.038,10.289c0,0-24.29-15.029-24.223-15.136      c0,0,23.211,11.878,23.542,11.349l-24.986-15.613l22.724,9.203c0.124-0.199-26.161-15.166-25.63-16.015l23.463,10.421      c0.437-0.698-27.49-17.178-27.49-17.178l24.433,11.929c0.154-0.247-27.456-17.156-27.456-17.156l24.687,10.764      c0.051-0.081-29.693-18.555-29.693-18.555c0.473-0.757,27.421,12.308,27.421,12.308c0.566-0.905-33.782-21.11-33.782-21.11      s29.619,16.225,30.107,15.442c0.322-0.516-36.837-21.251-36.043-22.522l33.927,17.369c0.239-0.383-41.598-25.993-41.598-25.993      s36.337,18.876,36.472,18.66c0.729-1.167-48.072-30.039-48.072-30.039s43.46,24.342,44.026,23.436      c2.744-4.392-136.325-81.784-134.797-84.23c1.58-2.528,129.826,77.143,129.826,77.143s-122.335-71.338-120.04-75.01      c1.053-1.685,112.847,68.278,113.462,67.292c0.333-0.532-104.991-63.72-104.144-65.076l98.002,58.008l-87.569-54.72      c0.046-0.074,75.265,42.979,75.265,42.979c0.532-0.851-61.231-38.262-61.231-38.262c0.431-0.689,44.09,24.283,44.09,24.283      s-22.854-14.199-22.816-14.258" style="fill:none;stroke:#231F20;stroke-width:2;stroke-linecap:round;stroke-linejoin:round;"/><path d="M327.081,215.467      c1.765-2.825-104.828-62.902-103.659-64.773c1.129-1.807,99.731,61.708,101.576,58.757c1.882-3.012-94.888-59.292-94.888-59.292      c0.708-1.133,93.725,56.569,94.235,55.751c0,0-90.107-56.143-90.034-56.26c1.487-2.38,88.46,51.465,88.478,51.437      c0.563-0.901-81.77-51.096-81.77-51.096c1.394-2.23,80.852,48.978,81.882,47.329c0.369-0.592-78.056-46.825-77.18-48.227      c1.022-1.636,75.782,46.05,77.023,44.064l-70.411-43.997c0,0,68.761,39.569,69.375,38.585l-61.934-38.701      c0.938-1.501,58.217,31.44,58.217,31.44c0.3-0.479-52.095-30.297-51.081-31.919c0.356-0.571,46.381,25.782,46.381,25.782      c0.392-0.626-39.048-24.4-39.048-24.4s29.062,15.132,29.607,14.259l-15.06-9.411" style="fill:none;stroke:#231F20;stroke-width:2;stroke-linecap:round;stroke-linejoin:round;"/><path d="M207.957,214.082      c0,0-51.454-30.141-50.55-31.587l46.879,25.03c0,0-44.733-27.521-44.54-27.832c0.13-0.208,43.989,23.819,44.635,22.784      c0.087-0.139-41.75-26.088-41.75-26.088c0.284-0.455,43.901,25.708,44.668,24.48c0,0-42.135-26.229-42.09-26.301      c0.589-0.942,42.888,23.843,43.577,22.741c0.042-0.066-42.257-24.619-41.454-25.903c0.456-0.729,45.913,25.407,46.729,24.1      c0,0-44.307-25.696-43.413-27.127c0,0,48.663,27.769,49.467,26.483c0.722-1.155-47.144-28.99-46.933-29.327      c0,0,53.469,29.103,53.532,29.002c0,0-49.443-29.344-48.746-30.46l56.413,30.383c0.721-1.153-54.438-32.471-53.744-33.583      l58.855,33.118l-54.965-34.346c1.14-1.825,62.705,34.188,62.705,34.188c0.034-0.055-59.881-34.869-58.735-36.702      c0.208-0.333,65.2,36.218,65.2,36.218c0.247-0.395-60.465-37.783-60.465-37.783" style="fill:none;stroke:#231F20;stroke-width:2;stroke-linecap:round;stroke-linejoin:round;"/><path d="M207.021,276.363      l-56.087-35.047l55.143,30.645c0.082-0.131-55.966-34.972-55.966-34.972l55.876,29.956c0.493-0.788-56.239-32.88-55.223-34.506      l58.969,31.712c1.089-1.742-59.899-34.908-58.766-36.721c0.654-1.048,61.186,35.8,62.403,33.853l-62.674-39.164      c0.462-0.74,67.945,41.474,69.306,39.296c0,0-70.818-42.268-69.926-43.695c0.519-0.83,76.688,43.829,76.688,43.829      c0.354-0.565-78.038-45.087-76.386-47.73c0,0,81.166,49.88,82.568,47.636c0.593-0.949-83.134-50.459-82.465-51.53l89.5,51.513      c1.579-2.526-89.499-55.925-89.499-55.925c0.028-0.045,96.423,55.886,96.595,55.61c0,0-97.579-60.321-97.286-60.791      c0.24-0.383,104.966,60.496,104.966,60.496s-104.311-63.203-103.422-64.625c1.656-2.651,108.665,67.527,110.57,64.477      c0,0-110.777-65.606-109.153-68.207c0,0,116.838,69.545,116.988,69.306c1.797-2.876-116.629-70.153-115.405-72.113      c2.213-3.542,121.269,75.406,123.221,72.281c0.12-0.191-121.11-75.678-121.11-75.678l127.97,75.744      c1.281-2.05-70.561-44.091-70.561-44.091l75.215,43.565c0,0-70.171-42.907-69.749-43.583c0.892-1.427,78.749,44.94,78.749,44.94      l-71.841-44.891" style="fill:none;stroke:#231F20;stroke-width:2;stroke-linecap:round;stroke-linejoin:round;"/><path d="M184.121,321.469      l-13.931-8.705c0.322-0.516,26.443,13.162,26.443,13.162c0.494-0.79-35.2-21.995-35.2-21.995l46.497,24.245      c0.792-1.269-50.49-31.002-50.244-31.396c0,0,58.457,32.973,58.979,32.138c0.142-0.228-63.286-39.545-63.286-39.545      c0.508-0.813,68.189,38.938,68.189,38.938l-69.035-43.138c0.266-0.425,78.747,44.161,78.747,44.161      s-79.294-48.699-78.912-49.311c1.68-2.688,85.348,49.578,85.348,49.578l-85.956-53.712l91.665,53.812      c0,0-91.424-56.718-91.24-57.013l97.786,57.146c2.12-3.392-98.75-61.476-98.646-61.641      c0.737-1.181,102.88,63.958,104.402,61.521c0,0-105.595-63.853-104.637-65.385c0,0,108.657,68.518,110.317,65.861      c0.675-1.08-110.606-69.115-110.606-69.115s117.633,70.613,118.448,69.309c1.258-2.015-118.606-74.113-118.606-74.113      c1.609-2.575,125.419,75.649,126.477,73.957c1.732-2.773-125.369-78.339-125.369-78.339      c1.03-1.647,130.432,83.042,132.593,79.583l-132.923-83.06l139.707,83.063l-140.438-87.755l147.506,87.586      c1.261-2.02-80.976-50.599-80.976-50.599c1.549-2.479,86.059,51.538,86.6,50.672c0.92-1.472-81.237-47.199-79.636-49.762      c0.046-0.075,84.188,50.438,85.209,48.803c0.831-1.329-78.997-49.362-78.997-49.362c0.434-0.693,83.134,48.493,83.134,48.493      c0.193-0.309-78.174-48.849-78.174-48.849s81.517,49.971,82.617,48.21c0.248-0.396-76.198-46.683-75.779-47.353      c0,0,78.146,47.541,79.407,45.521l-72.534-45.324c0,0,76.626,46.483,77.823,44.568c0.78-1.25-72.025-43.881-71.52-44.69      l75.501,42.831c0.249-0.398-69.665-40.254-68.191-42.61c0.984-1.576,69.837,41.47,70.872,39.813      c0.616-0.985-63.914-39.792-63.849-39.897l67.699,38.232c0.108-0.173-61.735-38.577-61.735-38.577      c0.563-0.902,65.99,36.333,65.99,36.333s-57.745-34.307-56.946-35.584l59.52,33.219l-53.052-33.15      c0.724-1.157,54.448,30.225,54.448,30.225s-49.725-29.17-48.87-30.537l52.033,28.597c0.995-1.592-48.714-29.212-48.162-30.096      c0,0,49.043,28.171,49.768,27.012l-46.478-29.043c0,0,48.252,27.086,48.808,26.196c0,0-47.821-29.161-47.497-29.68      c1.038-1.663,49.979,27.528,50.213,27.155c0.303-0.483-48.792-30.489-48.792-30.489s49.207,28.435,49.729,27.601      c0,0-54.284-31.59-53.237-33.267c0.329-0.526,53.604,31.7,54.306,30.579c1.655-2.649-127.233-75.446-125.409-78.365      l126.067,74.17l-118.349-73.953l120.076,69.917c1.327-2.123-111.957-69.958-111.957-69.958      c0.83-1.328,113.427,66.172,113.427,66.172c1.75-2.801-107.437-67.134-107.437-67.134      c2.076-3.323,107.305,62.219,107.348,62.149l-100.88-63.036l100.612,59.378c0,0-99.701-58.172-97.847-61.142      c0,0,96.712,60.239,98.083,58.045c1.86-2.977-95.719-59.812-95.719-59.812s96.126,57.275,96.281,57.027      c1.281-2.051-94.637-59.136-94.637-59.136s94.008,55.854,94.696,54.752c0.344-0.55-93.935-56.296-92.855-58.023      c0,0,93.025,54.948,93.528,54.143c0,0-95.02-58.211-94.497-59.048c0.353-0.564,94.572,54.625,94.825,54.221      c0,0-164.978-101.864-164.427-102.745c0,0,164.635,100.548,165.16,99.709L201.742,152.73      c0.823-1.316,162.038,97.279,162.038,97.279l-156.294-97.663c0.172-0.276,155.915,93.698,155.915,93.698      c0.04-0.064-151.947-94.947-151.947-94.947L364.1,241.53c2.215-3.543-145.884-90.616-145.64-91.006      c0,0,144.517,88.383,145.883,86.196c0.208-0.333-27.159-16.271-26.845-16.775l26.71,12.69l-19.693-12.306      c0,0,17.475,7.366,17.726,6.964l-9.992-6.244" style="fill:none;stroke:#231F20;stroke-width:2;stroke-linecap:round;stroke-linejoin:round;"/></g><g><path d="M117.866,374.784      l-62.041-38.767l42.158,22.53c0.068-0.11-47.257-29.529-47.257-29.529l33.188,15.78c0.336-0.537-37.946-22.172-37.254-23.279      l28.918,12.935c0.61-0.977-33.299-19.396-32.664-20.411c0.248-0.396,24.374,11.116,24.835,10.378l-28.337-17.707      c0.161-0.259,24.706,12.482,25.18,11.723c0,0-28.321-16.902-27.964-17.474c0.159-0.255,24.68,11.331,24.68,11.331      c0.122-0.195-26.765-15.457-26.195-16.368c0,0,22.827,11.14,23.202,10.54c0.18-0.288-24.899-15.107-24.696-15.433l21.899,9.272      c0.421-0.673-23.674-14.793-23.674-14.793c0.005-0.009,20.553,8.171,20.587,8.116c0,0-23.319-14.418-23.25-14.528      c0.043-0.069,20.472,7.697,20.472,7.697s-21.427-12.975-21.241-13.272c0.266-0.426,18.881,7.863,19.188,7.374      c0,0-20.221-11.948-19.912-12.442c0,0,20.394,9.002,20.418,8.963c0.318-0.51-20.809-12.521-20.592-12.868      c0.32-0.513,19.054,7.818,19.336,7.366c0.02-0.031-19.586-12.239-19.586-12.239l18.537,7.363      c0.347-0.555-18.73-11.704-18.73-11.704l17.072,7.234c0,0-18.466-11.288-18.353-11.469c0.196-0.313,18.54,7.224,18.54,7.224      l-18.328-11.453c0,0,17.243,6.126,17.471,5.761c0.239-0.382-17.16-10.723-17.16-10.723l18.049,6.203l-18.036-11.27l17.965,7.811      l-17.27-10.792l17.2,7.182l-16.214-10.131c0,0,15.892,5.6,16.15,5.186c0.143-0.228-16.239-9.769-16.069-10.041l15.867,5.766      c0.05-0.081-15.989-9.746-15.879-9.922l16.795,6.625c0,0-16.2-9.593-15.962-9.974l16.561,5.168c0,0-15.332-9.238-15.178-9.484      c0,0,16.076,6.059,16.2,5.86c0.293-0.469-15.865-9.914-15.865-9.914l15.91,5.44l-14.155-8.845      c0.252-0.403,15.672,5.184,15.672,5.184c0.077-0.123-14.26-8.814-14.216-8.883l14.479,5.78c0,0-13.667-8.378-13.595-8.495      l14.516,5.652c0.224-0.358-14.643-9.15-14.643-9.15c0.193-0.309,15.241,6.221,15.241,6.221l-14.391-8.992l15.546,6.195      c0,0-15.054-8.703-14.738-9.209c0.309-0.493,15.849,5.632,15.849,5.632c0.133-0.214-14.63-9.142-14.63-9.142      s16.303,7.448,16.621,6.938c0,0-15.66-9.196-15.396-9.62c0.275-0.439,15.082,5.939,15.294,5.599l-13.515-8.445      c0.18-0.288,15.912,6.792,16.083,6.518c0,0-13.983-8.503-13.878-8.672c0.029-0.046,13.813,5.11,13.877,5.007      c0,0-13.283-7.684-13.006-8.127c0.258-0.413,15.393,6.002,15.626,5.628c0.19-0.304-14.58-9.071-14.562-9.099      c0,0,16.392,5.543,16.466,5.425c0,0-13.86-8.505-13.79-8.617c0.021-0.034,14.653,6.217,14.936,5.765l-14.828-9.266      c0,0,15.779,5.816,15.998,5.466l-13.035-8.145c0.072-0.116,14.537,4.569,14.537,4.569c0.125-0.201-12.635-7.896-12.635-7.896      l14.859,4.36c0.133-0.212-13.54-8.461-13.54-8.461l16.052,5.734l-12.925-8.077c0,0,14.313,5.905,14.328,5.881l-12.575-7.858      c0,0,14.486,5.043,14.74,4.637c0,0-13.211-7.87-13.038-8.147c0.029-0.047,14.937,5.986,14.937,5.986      c0.178-0.285-13.029-8.142-13.029-8.142c0.234-0.376,13.559,5.156,13.559,5.156l-12.228-7.641l14.967,4.328l-12.177-7.608      c0,0,15.134,6.083,15.18,6.01l-14.391-8.992c0.204-0.326,16.183,5.996,16.183,5.996l-12.878-8.047c0,0,14.085,4.945,14.25,4.681      c0.189-0.303-12.563-7.851-12.563-7.851c0.046-0.075,15.423,5.64,15.583,5.383l-12.868-8.041l14.874,5.976      c0.274-0.439-13.507-8.44-13.507-8.44l16.894,5.753c0,0-13.071-8.164-13.069-8.167c0.172-0.275,14.299,5.776,14.48,5.487      l-12.986-8.114c0.194-0.31,15.053,6.885,15.309,6.476c0.258-0.412-13.562-8.475-13.562-8.475      c0.269-0.43,15.627,6.607,15.627,6.607s-14.161-8.62-14.058-8.785c0,0,15.157,6.446,15.354,6.131      c0.138-0.22-12.591-7.868-12.591-7.868s15.809,6.483,15.837,6.437l-14.356-8.971l15.3,5.93      c0.004-0.007-12.172-7.606-12.172-7.606s16.307,5.252,16.373,5.147c0.182-0.292-13.533-8.457-13.533-8.457      s16.242,6.964,16.269,6.921l-14.603-9.125c0,0,16.327,7.011,16.401,6.894c0.091-0.146-13.523-8.45-13.523-8.45      s15.941,6.645,16.068,6.441c0,0-14.572-8.49-14.295-8.933c0.304-0.487,16.238,6.259,16.433,5.946l-12.552-7.843      c0,0,15.468,5.896,15.539,5.783c0,0-12.749-7.803-12.675-7.92c0,0,15.179,5.804,15.201,5.769l-13.133-8.207      c0,0,15.777,7.066,15.92,6.837c0.158-0.253-13.519-8.214-13.414-8.382c0,0,15.996,6.179,16.196,5.859      c0.015-0.023-13.807-8.628-13.807-8.628s17.162,6.882,17.489,6.359l-13.287-8.303c0.114-0.183,18.235,6.405,18.235,6.405      c0.16-0.255-14.82-8.646-14.543-9.088c0.124-0.198,15.969,6.954,16.204,6.578c0,0-13.496-7.77-13.198-8.247      c0,0,17.291,6.463,17.592,5.981l-13.622-8.512l17.762,6.749l-13.769-8.603c0.18-0.289,16.041,6.002,16.344,5.518      c0.146-0.234-13.138-8.044-13.063-8.163l17.571,7.463c0.238-0.381-14.552-8.484-14.278-8.922      c0.341-0.545,18.035,6.969,18.035,6.969s-15.03-9.343-15.008-9.378c0.317-0.507,17.46,6.947,17.738,6.503      c0.086-0.138-13.932-8.425-13.806-8.627c0.108-0.174,17.222,6.947,17.24,6.917c0.219-0.35-13.91-8.438-13.795-8.621      c0.15-0.241,19.016,7.529,19.315,7.05c0,0-15.089-8.999-14.896-9.308c0.076-0.122,18.1,7.696,18.215,7.511      c0,0-14.571-8.892-14.476-9.045l18.349,8.258l-15.754-9.845l19.993,8.198l-16.17-10.104c0.383-0.613,19.229,8.363,19.229,8.363      s-15.97-9.617-15.808-9.877l20.157,7.608l-15.103-9.437c0,0,19.874,9.428,20.274,8.787c0.252-0.402-17.15-10.717-17.15-10.717      l19.784,8.848c0,0-15.609-9.308-15.409-9.629c0,0,19.706,9.384,19.962,8.975c0.138-0.221-16.103-9.382-15.797-9.872      c0.323-0.516,18.121,8.108,18.121,8.108c0.184-0.295-15.373-9.606-15.373-9.606l19.576,8.921l-16.2-10.124l19.449,9.086      c0,0-15.757-9.25-15.489-9.679l22.23,8.861c0.034-0.055-17.201-10.749-17.201-10.749l22.063,9.493      c0,0-18.585-11.201-18.399-11.498c0,0,24.226,10.848,24.31,10.713l-18.887-11.802c0.44-0.704,24.538,10.322,24.538,10.322      c0.247-0.395-17.498-10.934-17.498-10.934c0.386-0.618,24.643,10.837,24.643,10.837c0.14-0.225-19.681-12.255-19.662-12.286      c0,0,22.4,10.908,22.503,10.743c0,0-19.565-12.022-19.474-12.168c0.213-0.342,26.542,12.046,26.542,12.046      s-20.614-12.444-20.417-12.759c0.258-0.413,26.629,13.325,26.915,12.867c0,0-21.264-13.245-21.245-13.275      c0.378-0.605,26.801,12.206,26.801,12.206l-20.661-12.91c0,0,27.342,12.931,27.383,12.866c0,0-22.824-13.707-22.575-14.106      c0,0,30.702,15.437,31.276,14.518l-22.94-14.335l30.944,14.89L262.378,41.67c0,0,30.799,16.268,30.873,16.148      c0,0-26.734-15.56-26.22-16.384c0.44-0.705,34.951,16.875,34.951,16.875c0.539-0.863-27.977-17.151-27.828-17.389      c0.534-0.855,37.307,19.562,37.307,19.562L280.86,41.362l38.086,20.445c0.259-0.415-32.295-20.18-32.295-20.18      s45.403,24.147,45.713,23.652c0,0-37.604-22.869-37.322-23.321l49.298,27.061c0.503-0.805-41.165-25.723-41.165-25.723      l58.121,33.033c1.149-1.839-51.814-32.377-51.814-32.377" style="fill:none;stroke:#262626;stroke-width:2;stroke-linecap:round;stroke-linejoin:round;"/><path d="M135.006,403.739      l-28.013-17.505c0.652-1.043,52.185,29.248,52.185,29.248c1.025-1.642-72.716-45.438-72.716-45.438l93.169,53.409      c1.657-2.652-106.49-65.398-105.976-66.222c0,0,120.462,72.993,121.557,71.241c0.3-0.479-132.518-82.807-132.518-82.807      c1.067-1.707,141.581,84.799,141.581,84.799L57.495,338.748c0.551-0.881,160.945,95.523,160.945,95.523      s-49.656-30.495-49.417-30.879c1.141-1.826,58.489,32.794,58.489,32.794l-43.083-26.922l50.455,28.061      c0,0-38.375-23.806-38.297-23.931l46.339,24.999c0.761-1.218-35.661-22.2-35.624-22.26c0.292-0.467,41.625,23.634,42.227,22.67      c0,0-32.963-19.931-32.664-20.41c0,0,38.44,22.225,39.014,21.306c0.193-0.309-31.975-19.98-31.975-19.98      s39.807,20.762,40.073,20.335c0.313-0.501-29.74-18.584-29.74-18.584c0.456-0.729,36.992,18.707,37.292,18.228      c0.376-0.602-25.671-16.041-25.671-16.041c0.244-0.391,31.982,17.855,32.495,17.035l-26.493-16.555l32.451,16.042      l-25.306-15.813l31.594,15.156c0.38-0.608-24.089-15.053-24.089-15.053c0.512-0.818,29.358,15.302,29.537,15.016      c0.272-0.435-23.1-13.382-22.626-14.139c0.015-0.023,28.144,13.873,28.471,13.35c0.24-0.385-22.29-13.929-22.29-13.929      c0.135-0.216,26.849,13.322,26.849,13.322c0.056-0.088-22.253-13.905-22.253-13.905s26.891,14.167,27.241,13.606      c0.07-0.112-20.885-12.784-20.765-12.975c0,0,25.047,12.414,25.434,11.795l-19.524-12.2c0,0,25.438,12.682,25.818,12.072      c0.228-0.363-20.694-12.604-20.548-12.839l25.872,11.818c0.074-0.119-20.499-11.825-20.057-12.532      c0.319-0.512,23.811,11.153,24.146,10.616c0.189-0.304-18.748-11.671-18.729-11.703l24.105,10.992      c0.034-0.056-20.075-12.545-20.075-12.545c0.214-0.342,26.165,11.447,26.165,11.447s-19.776-11.755-19.506-12.188l23.689,10.829      l-19.408-12.128c0.287-0.46,22.513,10.27,22.513,10.27s-18.681-10.95-18.356-11.47l23.178,10.564      c0.387-0.618-19.342-11.607-19.127-11.951c0,0,22.439,10.644,22.758,10.134l-17.975-11.232c0,0,22.174,10.099,22.419,9.706      c0,0-18.483-11.274-18.36-11.473c0.463-0.74,23.136,10.467,23.239,10.301c0.11-0.177-17.771-11.105-17.771-11.105      s20.511,9.808,20.72,9.474c0,0-18.751-10.936-18.4-11.498c0.124-0.198,21.021,10.368,21.285,9.944      c0.229-0.366-17.342-10.273-17.089-10.678l20.552,8.237l-15.594-9.744l20.623,7.771c0.2-0.319-15.858-9.909-15.858-9.909      c0.139-0.223,20.454,8.076,20.454,8.076c0.276-0.441-17.655-11.032-17.655-11.032c0.382-0.611,21.246,8.365,21.255,8.353      l-16.76-10.473l19.026,8.398c0,0-16.544-9.643-16.231-10.143c0,0,18.591,8.926,18.84,8.528      c0.316-0.508-15.854-9.906-15.854-9.906s18.68,8.6,18.707,8.554c0.221-0.353-16.055-10.032-16.055-10.032      s19.114,7.812,19.244,7.604c0.06-0.095-15.422-9.222-15.235-9.521c0,0,18.745,7.623,18.839,7.473      c0,0-16.317-9.998-16.229-10.141c0.069-0.11,19.938,7.535,19.986,7.456c0,0-15.45-9.535-15.396-9.621      c0,0,18.325,8.079,18.38,7.991l-16.31-10.191c0.09-0.144,19.07,7.943,19.07,7.943l-15.224-9.514      c0.018-0.027,17.21,7.025,17.21,7.025c0.004-0.006-15.475-9.67-15.475-9.67l19.173,7.03c0.237-0.381-15.74-9.776-15.714-9.818      c0,0,18.806,7.15,18.968,6.89c0.12-0.191-15.64-9.368-15.458-9.658l17.785,7.113l-15.845-9.901c0,0,18.245,7.873,18.508,7.452      l-15.895-9.932c0.072-0.116,18.34,6.904,18.377,6.845c0.227-0.362-14.97-9.354-14.97-9.354      c0.269-0.431,17.286,6.393,17.286,6.393c0.07-0.112-13.987-8.738-13.986-8.739l16.291,7.104l-15.01-9.38l16.425,6.495      c0.276-0.443-13.531-8.456-13.531-8.456s17.223,7.013,17.389,6.748l-15.721-9.823c0,0,16.989,7.955,17.287,7.478l-15.627-9.765      c0.265-0.423,17.451,6.388,17.535,6.255l-15.182-9.486l16.77,6.783c0.208-0.333-13.993-8.743-13.993-8.743      c0.2-0.32,16.675,6.78,16.675,6.78s-15.508-9.563-15.45-9.654c0.262-0.42,16.62,7.236,16.62,7.236      c0.054-0.087-14.693-8.54-14.404-9.001c0,0,16.181,7.198,16.29,7.022l-14.583-9.112c0.243-0.39,15.715,5.673,15.715,5.673      c0.187-0.299-14.41-8.506-14.186-8.864c0,0,16.303,5.774,16.47,5.509c0.037-0.061-14.899-9.311-14.899-9.311      s16.801,6.665,17.073,6.229c0.146-0.233-13.956-8.721-13.956-8.721c0.231-0.37,16.573,5.876,16.573,5.876      c0.102-0.163-14.52-9.072-14.52-9.072c0.26-0.415,15.302,5.67,15.302,5.67c0.143-0.228-15.154-9.47-15.154-9.47l17.423,6.039      l-14.124-8.826l16.885,5.378l-15.319-9.572c0,0,15.066,6.132,15.323,5.721c0.053-0.085-14.265-8.353-14.013-8.756      c0,0,16.657,7.438,16.798,7.215l-15.883-9.924c0.053-0.086,17.28,6.412,17.533,6.008l-15.669-9.791l17.255,5.634      c0.198-0.317-15.689-9.313-15.469-9.666c0.029-0.048,15.932,5.002,16.025,4.852c0,0-14.588-8.438-14.283-8.926      c0,0,15.715,5.411,15.9,5.114l-14.426-9.014c0.227-0.362,15.889,5.372,15.913,5.334c0.098-0.157-14.982-9.044-14.84-9.272      c0,0,15.642,6.693,15.733,6.546l-15.896-9.933c0,0,17.038,6.953,17.158,6.762l-16.255-10.158l16.909,6.66l-14.855-9.283      c0.027-0.044,15.536,6.375,15.536,6.375l-15.728-9.827l16.921,7.297c0.26-0.417-15.285-9.438-15.234-9.52      c0,0,16.188,5.939,16.468,5.489c0.353-0.563-16.784-10.487-16.784-10.487c0.194-0.312,16.393,7.25,16.71,6.741l-15.381-9.611      c0.042-0.067,16.114,6.953,16.114,6.953s-15.883-9.841-15.846-9.901c0.242-0.387,15.812,6.099,15.812,6.099      c0.316-0.507-15.508-9.69-15.508-9.69l17.387,6.092c0.113-0.181-16.005-10.001-16.005-10.001s15.843,5.734,15.949,5.563      l-16.989-10.616l18.461,6.747c0,0-17.209-10.019-16.879-10.546c0.098-0.157,16.94,7.458,17.098,7.207      c0.18-0.289-16.74-10.459-16.74-10.459c0.254-0.405,16.913,7.022,16.913,7.022c0.058-0.092-16.938-10.583-16.938-10.583      s17.201,5.675,17.225,5.637c0,0-18.002-10.624-17.721-11.074c0,0,18.213,6.667,18.307,6.517l-19.11-11.942      c0.28-0.449,18.048,8.197,18.238,7.893c0.247-0.396-18.357-11.037-18.162-11.349c0.304-0.487,18.826,8.116,18.826,8.116      c0.376-0.602-18.758-11.707-18.752-11.717c0.105-0.168,18.508,7.458,18.774,7.033c0,0-20.055-11.914-19.777-12.358l18.301,8.286      l-18.504-11.563c0.212-0.34,18.001,7.87,18.146,7.637l-17.391-10.867c0.221-0.353,17.101,6.729,17.101,6.729      c0.295-0.472-17.761-11.099-17.761-11.099c0.081-0.131,17.208,7.929,17.521,7.428c0,0-18.292-10.98-18.09-11.304      c0,0,18.632,8.865,18.848,8.519l-20.645-12.901c0.089-0.143,20.127,7.733,20.127,7.733c0.169-0.27-20.827-12.543-20.615-12.882      l20.017,9.324c0.025-0.04-22.22-13.68-22.128-13.827l20.49,9.368c0,0-21.317-13.32-21.317-13.32l21.089,10.072      c0.385-0.615-21.408-13.377-21.408-13.377c0.135-0.215,19.001,7.093,19.001,7.093l-21.07-13.167l20.602,9.263      c0.125-0.201-23.193-13.618-22.8-14.247c0.272-0.437,22.009,10.336,22.038,10.289c0,0-24.29-15.029-24.223-15.136      c0,0,23.211,11.878,23.542,11.349l-24.986-15.613l22.724,9.203c0.124-0.199-26.161-15.166-25.63-16.015l23.463,10.421      c0.437-0.698-27.49-17.178-27.49-17.178l24.433,11.929c0.154-0.247-27.456-17.156-27.456-17.156l24.687,10.764      c0.051-0.081-29.693-18.555-29.693-18.555c0.473-0.757,27.421,12.308,27.421,12.308c0.566-0.905-33.782-21.11-33.782-21.11      s29.619,16.225,30.107,15.442c0.322-0.516-36.837-21.251-36.043-22.522l33.927,17.369c0.239-0.383-41.598-25.993-41.598-25.993      s36.337,18.876,36.472,18.66c0.729-1.167-48.072-30.039-48.072-30.039s43.46,24.342,44.026,23.436      c2.744-4.392-136.325-81.784-134.797-84.23c1.58-2.528,129.826,77.143,129.826,77.143s-122.335-71.338-120.04-75.01      c1.053-1.685,112.847,68.278,113.462,67.292c0.333-0.532-104.991-63.72-104.144-65.076l98.002,58.008l-87.569-54.72      c0.046-0.074,75.265,42.979,75.265,42.979c0.532-0.851-61.231-38.262-61.231-38.262c0.431-0.689,44.09,24.283,44.09,24.283      s-22.854-14.199-22.816-14.258" style="fill:none;stroke:#262626;stroke-width:2;stroke-linecap:round;stroke-linejoin:round;"/><path d="M327.081,215.467      c1.765-2.825-104.828-62.902-103.659-64.773c1.129-1.807,99.731,61.708,101.576,58.757c1.882-3.012-94.888-59.292-94.888-59.292      c0.708-1.133,93.725,56.569,94.235,55.751c0,0-90.107-56.143-90.034-56.26c1.487-2.38,88.46,51.465,88.478,51.437      c0.563-0.901-81.77-51.096-81.77-51.096c1.394-2.23,80.852,48.978,81.882,47.329c0.369-0.592-78.056-46.825-77.18-48.227      c1.022-1.636,75.782,46.05,77.023,44.064l-70.411-43.997c0,0,68.761,39.569,69.375,38.585l-61.934-38.701      c0.938-1.501,58.217,31.44,58.217,31.44c0.3-0.479-52.095-30.297-51.081-31.919c0.356-0.571,46.381,25.782,46.381,25.782      c0.392-0.626-39.048-24.4-39.048-24.4s29.062,15.132,29.607,14.259l-15.06-9.411" style="fill:none;stroke:#262626;stroke-width:2;stroke-linecap:round;stroke-linejoin:round;"/><path d="M207.957,214.082      c0,0-51.454-30.141-50.55-31.587l46.879,25.03c0,0-44.733-27.521-44.54-27.832c0.13-0.208,43.989,23.819,44.635,22.784      c0.087-0.139-41.75-26.088-41.75-26.088c0.284-0.455,43.901,25.708,44.668,24.48c0,0-42.135-26.229-42.09-26.301      c0.589-0.942,42.888,23.843,43.577,22.741c0.042-0.066-42.257-24.619-41.454-25.903c0.456-0.729,45.913,25.407,46.729,24.1      c0,0-44.307-25.696-43.413-27.127c0,0,48.663,27.769,49.467,26.483c0.722-1.155-47.144-28.99-46.933-29.327      c0,0,53.469,29.103,53.532,29.002c0,0-49.443-29.344-48.746-30.46l56.413,30.383c0.721-1.153-54.438-32.471-53.744-33.583      l58.855,33.118l-54.965-34.346c1.14-1.825,62.705,34.188,62.705,34.188c0.034-0.055-59.881-34.869-58.735-36.702      c0.208-0.333,65.2,36.218,65.2,36.218c0.247-0.395-60.465-37.783-60.465-37.783" style="fill:none;stroke:#262626;stroke-width:2;stroke-linecap:round;stroke-linejoin:round;"/><path d="M207.021,276.363      l-56.087-35.047l55.143,30.645c0.082-0.131-55.966-34.972-55.966-34.972l55.876,29.956c0.493-0.788-56.239-32.88-55.223-34.506      l58.969,31.712c1.089-1.742-59.899-34.908-58.766-36.721c0.654-1.048,61.186,35.8,62.403,33.853l-62.674-39.164      c0.462-0.74,67.945,41.474,69.306,39.296c0,0-70.818-42.268-69.926-43.695c0.519-0.83,76.688,43.829,76.688,43.829      c0.354-0.565-78.038-45.087-76.386-47.73c0,0,81.166,49.88,82.568,47.636c0.593-0.949-83.134-50.459-82.465-51.53l89.5,51.513      c1.579-2.526-89.499-55.925-89.499-55.925c0.028-0.045,96.423,55.886,96.595,55.61c0,0-97.579-60.321-97.286-60.791      c0.24-0.383,104.966,60.496,104.966,60.496s-104.311-63.203-103.422-64.625c1.656-2.651,108.665,67.527,110.57,64.477      c0,0-110.777-65.606-109.153-68.207c0,0,116.838,69.545,116.988,69.306c1.797-2.876-116.629-70.153-115.405-72.113      c2.213-3.542,121.269,75.406,123.221,72.281c0.12-0.191-121.11-75.678-121.11-75.678l127.97,75.744      c1.281-2.05-70.561-44.091-70.561-44.091l75.215,43.565c0,0-70.171-42.907-69.749-43.583c0.892-1.427,78.749,44.94,78.749,44.94      l-71.841-44.891" style="fill:none;stroke:#262626;stroke-width:2;stroke-linecap:round;stroke-linejoin:round;"/><path d="M184.121,321.469      l-13.931-8.705c0.322-0.516,26.443,13.162,26.443,13.162c0.494-0.79-35.2-21.995-35.2-21.995l46.497,24.245      c0.792-1.269-50.49-31.002-50.244-31.396c0,0,58.457,32.973,58.979,32.138c0.142-0.228-63.286-39.545-63.286-39.545      c0.508-0.813,68.189,38.938,68.189,38.938l-69.035-43.138c0.266-0.425,78.747,44.161,78.747,44.161      s-79.294-48.699-78.912-49.311c1.68-2.688,85.348,49.578,85.348,49.578l-85.956-53.712l91.665,53.812      c0,0-91.424-56.718-91.24-57.013l97.786,57.146c2.12-3.392-98.75-61.476-98.646-61.641      c0.737-1.181,102.88,63.958,104.402,61.521c0,0-105.595-63.853-104.637-65.385c0,0,108.657,68.518,110.317,65.861      c0.675-1.08-110.606-69.115-110.606-69.115s117.633,70.613,118.448,69.309c1.258-2.015-118.606-74.113-118.606-74.113      c1.609-2.575,125.419,75.649,126.477,73.957c1.732-2.773-125.369-78.339-125.369-78.339      c1.03-1.647,130.432,83.042,132.593,79.583l-132.923-83.06l139.707,83.063l-140.438-87.755l147.506,87.586      c1.261-2.02-80.976-50.599-80.976-50.599c1.549-2.479,86.059,51.538,86.6,50.672c0.92-1.472-81.237-47.199-79.636-49.762      c0.046-0.075,84.188,50.438,85.209,48.803c0.831-1.329-78.997-49.362-78.997-49.362c0.434-0.693,83.134,48.493,83.134,48.493      c0.193-0.309-78.174-48.849-78.174-48.849s81.517,49.971,82.617,48.21c0.248-0.396-76.198-46.683-75.779-47.353      c0,0,78.146,47.541,79.407,45.521l-72.534-45.324c0,0,76.626,46.483,77.823,44.568c0.78-1.25-72.025-43.881-71.52-44.69      l75.501,42.831c0.249-0.398-69.665-40.254-68.191-42.61c0.984-1.576,69.837,41.47,70.872,39.813      c0.616-0.985-63.914-39.792-63.849-39.897l67.699,38.232c0.108-0.173-61.735-38.577-61.735-38.577      c0.563-0.902,65.99,36.333,65.99,36.333s-57.745-34.307-56.946-35.584l59.52,33.219l-53.052-33.15      c0.724-1.157,54.448,30.225,54.448,30.225s-49.725-29.17-48.87-30.537l52.033,28.597c0.995-1.592-48.714-29.212-48.162-30.096      c0,0,49.043,28.171,49.768,27.012l-46.478-29.043c0,0,48.252,27.086,48.808,26.196c0,0-47.821-29.161-47.497-29.68      c1.038-1.663,49.979,27.528,50.213,27.155c0.303-0.483-48.792-30.489-48.792-30.489s49.207,28.435,49.729,27.601      c0,0-54.284-31.59-53.237-33.267c0.329-0.526,53.604,31.7,54.306,30.579c1.655-2.649-127.233-75.446-125.409-78.365      l126.067,74.17l-118.349-73.953l120.076,69.917c1.327-2.123-111.957-69.958-111.957-69.958      c0.83-1.328,113.427,66.172,113.427,66.172c1.75-2.801-107.437-67.134-107.437-67.134      c2.076-3.323,107.305,62.219,107.348,62.149l-100.88-63.036l100.612,59.378c0,0-99.701-58.172-97.847-61.142      c0,0,96.712,60.239,98.083,58.045c1.86-2.977-95.719-59.812-95.719-59.812s96.126,57.275,96.281,57.027      c1.281-2.051-94.637-59.136-94.637-59.136s94.008,55.854,94.696,54.752c0.344-0.55-93.935-56.296-92.855-58.023      c0,0,93.025,54.948,93.528,54.143c0,0-95.02-58.211-94.497-59.048c0.353-0.564,94.572,54.625,94.825,54.221      c0,0-164.978-101.864-164.427-102.745c0,0,164.635,100.548,165.16,99.709L201.742,152.73      c0.823-1.316,162.038,97.279,162.038,97.279l-156.294-97.663c0.172-0.276,155.915,93.698,155.915,93.698      c0.04-0.064-151.947-94.947-151.947-94.947L364.1,241.53c2.215-3.543-145.884-90.616-145.64-91.006      c0,0,144.517,88.383,145.883,86.196c0.208-0.333-27.159-16.271-26.845-16.775l26.71,12.69l-19.693-12.306      c0,0,17.475,7.366,17.726,6.964l-9.992-6.244" style="fill:none;stroke:#262626;stroke-width:2;stroke-linecap:round;stroke-linejoin:round;"/></g></g></g></g><g id="Layer_1"/></svg>