<?xml version="1.0" ?><!DOCTYPE svg  PUBLIC '-//W3C//DTD SVG 1.1//EN'  'http://www.w3.org/Graphics/SVG/1.1/DTD/svg11.dtd'><svg height="512px" style="enable-background:new 0 0 512 512;" version="1.1" viewBox="0 0 512 512" width="512px" xml:space="preserve" xmlns="http://www.w3.org/2000/svg" xmlns:xlink="http://www.w3.org/1999/xlink"><g id="dropbox__x2C__google__x2C_social__x2C__media_x2C_"><g><g><g><path d="M118.868,375.408      c0,0-63.846-38.095-63.036-39.39l41.803,22.185c0,0-46.915-29.196-46.861-29.282l36.889,19.575      c0.005-0.008-39.596-24.742-39.596-24.742c0.327-0.524,29.138,14.04,29.372,13.665c0.417-0.668-33.626-19.876-33.116-20.693      l27.995,13.211c0.444-0.71-31.322-19.572-31.322-19.572l25.961,11.449l-29.598-18.494c0.262-0.419,23.511,9.615,23.511,9.615      c0.528-0.846-26.43-16.495-26.421-16.51l23.328,9.574l-24.656-15.407c0.154-0.246,21.078,8.015,21.078,8.015      c0.483-0.773-22.564-14.1-22.564-14.1l20.451,9.254c0,0-22.337-13.108-21.956-13.72c0.257-0.411,20.969,9.474,21.186,9.126      l-22.615-14.131c0.29-0.464,19.352,8.016,19.739,7.396c0,0-19.956-11.515-19.526-12.201c0.273-0.438,18.91,8.214,18.945,8.158      c0.22-0.353-20.033-11.683-19.658-12.284c0.196-0.313,17.729,7.127,18.01,6.678c0,0-18.701-11.321-18.537-11.584      c0.256-0.409,17.086,6.231,17.086,6.231s-18.232-10.487-17.825-11.138c0.328-0.524,17.242,5.977,17.242,5.977l-18.409-11.503      c0.02-0.033,18.528,8.595,18.605,8.472l-17.229-10.766c0.328-0.524,17.39,6.692,17.447,6.601      c0.002-0.003-18.978-11.593-18.858-11.784c0,0,18.254,6.782,18.358,6.616c0,0-18.084-10.55-17.747-11.09l16.789,5.972      c0,0-16.48-9.701-16.212-10.13l16.64,6.234c0.01-0.017-15.961-9.974-15.961-9.974c0.051-0.082,16.8,7.943,17.104,7.458      c0.201-0.32-18.204-10.696-17.899-11.185c0,0,17.006,6.345,17.022,6.319l-16.1-10.06l16.66,5.289l-14.703-9.187      c0,0,14.856,5.897,14.897,5.831c0.231-0.371-15.614-9.757-15.614-9.757l15.932,6.279c0.314-0.503-13.981-8.244-13.76-8.598      c0.166-0.266,15.939,6.326,15.939,6.326l-16.092-10.055c0.03-0.048,15.587,6.536,15.704,6.35      c0.148-0.237-14.961-9.349-14.961-9.349l16.282,7.062l-15.989-9.991c0.252-0.404,15.587,6.184,15.811,5.827      c0,0-14.136-8.634-14.046-8.777c0.28-0.448,15.823,5.65,15.823,5.65l-14.398-8.997c0.086-0.137,15.682,6.034,15.682,6.034      l-14.682-9.174c0,0,15.118,5.642,15.394,5.201l-15.02-9.385c0.079-0.126,15.791,6.261,16.082,5.794c0,0-14.289-8.9-14.276-8.92      l15.957,5.965c0.241-0.386-15.208-8.88-14.928-9.328l16.763,5.938l-14.519-9.072c0,0,14.509,5.947,14.651,5.72      c0,0-14.153-8.754-14.113-8.819c0,0,15.646,6.636,15.853,6.305c0,0-13.853-8.14-13.621-8.511      c0.145-0.232,14.948,5.679,14.948,5.679s-13.41-8.301-13.374-8.357l14.283,5.478c0,0-13.138-7.917-13.006-8.127      c0.026-0.042,15.393,4.777,15.393,4.777l-12.985-8.114c0,0,14.092,5.642,14.304,5.302c0.296-0.475-12.944-7.812-12.82-8.011      c0.16-0.256,14.977,4.902,14.977,4.902s-14.131-8.691-14.069-8.791c0.194-0.311,15.686,5.508,15.686,5.508      s-13.405-8.224-13.337-8.334l14.882,4.373c0.115-0.184-12.175-7.188-11.986-7.49c0.154-0.247,13.968,5.333,14.063,5.181      l-12.614-7.882c0,0,14.704,5.313,14.934,4.944c0.218-0.349-12.851-8.03-12.851-8.03s14.958,4.792,15.098,4.568      c0,0-12.734-7.769-12.649-7.904c0,0,14.926,6.125,15.002,6.002c0,0-14.826-8.767-14.602-9.125      c0.061-0.097,15.66,5.153,15.9,4.768l-11.684-7.301c0,0,14.248,5.608,14.268,5.575c0.071-0.114-13.793-8.619-13.793-8.619      l17.189,5.639l-13.252-8.281c0,0,15.031,4.701,15.124,4.553c0.292-0.468-12.85-7.474-12.601-7.874l14.699,5.63      c0,0-12.914-8.067-12.913-8.069c0.121-0.193,14.527,5.91,14.527,5.91c0.25-0.399-13.291-8.305-13.291-8.305      c0.098-0.157,15.462,6.406,15.668,6.078c0,0-12.313-7.443-12.2-7.624c0.14-0.223,15.893,5.471,16.014,5.277      c0.038-0.06-13.756-8.296-13.622-8.512l15.844,4.822l-13.161-8.224l15.427,5.004c0,0-11.868-7.148-11.748-7.341      c0.014-0.022,15.373,6.505,15.566,6.196c0.115-0.184-13.514-8.444-13.514-8.444c0.238-0.381,15.018,5.518,15.018,5.518      c0.282-0.452-13.737-8.584-13.737-8.584c0.103-0.165,16.6,6.753,16.6,6.753c0.015-0.023-13.391-8.368-13.391-8.368      c0.263-0.422,15.798,6.016,15.961,5.755c0.211-0.337-12.434-7.77-12.434-7.77l16.131,5.664c0.296-0.475-14.67-9.167-14.67-9.167      l16.742,6.932c0.175-0.281-13.218-8.259-13.218-8.259l15.814,5.052c0.071-0.112-12.047-7.298-11.944-7.463l14.18,5.601      l-12.69-7.93l16.38,6.277c0.057-0.09-14.259-8.91-14.259-8.91c0.004-0.007,16.446,7.136,16.624,6.851      c0,0-13.979-8.708-13.967-8.728c0.325-0.521,17.271,7.718,17.271,7.718s-14.983-8.792-14.727-9.202      c0.24-0.384,17.186,5.807,17.186,5.807s-13.367-8.08-13.244-8.276l17.493,7.028c0.237-0.378-14.466-9.039-14.466-9.039      c0.013-0.02,17.14,5.771,17.14,5.771c0.263-0.42-12.788-7.991-12.788-7.991l17.322,6.729c0.225-0.36-14.484-9.051-14.484-9.051      s18.781,7.365,19.122,6.821c0,0-15.229-9.349-15.154-9.469c0.318-0.509,17.238,6.713,17.361,6.515c0,0-13.92-8.195-13.694-8.557      c0.284-0.455,17.851,7.705,17.851,7.705l-14.471-9.042c0.275-0.439,17.983,6.953,18.219,6.576      c0.096-0.154-15.066-9.415-15.066-9.415c0.056-0.09,18.191,8.265,18.424,7.892c0.314-0.503-13.942-8.712-13.942-8.712      c0.015-0.024,18.037,6.474,18.037,6.474c0.124-0.198-13.609-8.504-13.609-8.504l16.916,6.863      c0.121-0.193-14.066-8.315-13.853-8.656c0,0,18.387,7.82,18.57,7.526c0.176-0.281-15.192-9.453-15.174-9.482      c0,0,17.699,7.898,17.84,7.672c0,0-14.834-8.532-14.503-9.063c0.207-0.331,19.275,7.064,19.275,7.064      c0.168-0.27-15.22-9.511-15.22-9.511s19.869,8.149,20.121,7.746l-15.512-9.693c0.231-0.37,21.41,8.65,21.41,8.65L178.075,58.08      l21.205,9.453l-17.14-10.71c0,0,21.008,8.23,21.063,8.142c0.339-0.542-15.341-9.051-15.101-9.436      c0.258-0.412,20.143,8.555,20.26,8.367l-16.607-10.377c0.18-0.289,22.642,9.94,22.642,9.94L195.755,51.81      c0.437-0.699,22.754,10.199,23.079,9.679c0,0-17.2-9.921-16.828-10.516c0,0,21.565,9.469,21.765,9.149L205.95,48.987      c0.355-0.569,23.379,10.496,23.577,10.179c0.154-0.246-18.095-11.164-18.031-11.267c0.011-0.019,24.719,11.215,24.719,11.215      c0.195-0.313-19.026-11.851-19.009-11.878c0.348-0.557,24.852,11.13,24.852,11.13c0.201-0.322-20.712-12.23-20.392-12.743      c0,0,24.339,11.654,24.585,11.261c0,0-19.924-11.559-19.523-12.199c0,0,25.87,13.002,26.065,12.689      c0.224-0.358-21.882-13.319-21.723-13.574c0,0,28.368,12.908,28.421,12.823c0.367-0.588-20.999-13.068-20.976-13.106      c0.229-0.366,27.001,12.667,27.066,12.561l-20.794-12.994c0.313-0.5,27.318,13.525,27.331,13.506      c0.142-0.227-24.386-14.139-23.893-14.929c0.427-0.683,32.259,15.312,32.259,15.312L256.25,41.829      c0.189-0.303,29.478,15.104,29.478,15.104L261.046,41.51l31.78,16.314c0,0-27.345-16.258-26.973-16.854      c0,0,35.62,17.897,35.897,17.454c0,0-28.58-16.658-28.04-17.521c0.294-0.471,37.629,19.482,37.71,19.352      c0.181-0.289-30.333-18.954-30.333-18.954c0.554-0.887,39.979,21.089,39.979,21.089c0.08-0.129-33.969-21.226-33.969-21.226      l42.882,23.201c0.362-0.58-36.228-21.069-35.522-22.197l53.229,28.279l-44.328-27.699L369.9,80.721l-58.361-36.469" style="fill:none;stroke:#231F20;stroke-width:2;stroke-linecap:round;stroke-linejoin:round;"/><path d="M134.295,403.297      c0,0-27.837-16.195-27.298-17.059c0.021-0.032,52.752,29.478,52.752,29.478c0.445-0.711-75.075-43.605-73.589-45.983      c1.504-2.406,87.388,51.28,87.388,51.28c0.678-1.085-100.069-58.408-98.216-61.373c0.152-0.243,113.031,66.359,113.031,66.359      L65.943,349.504l138.061,81.336c1.475-2.36-145.76-91.081-145.76-91.081l154.278,92.72c0,0-55.722-32.47-54.666-34.159      l66.283,36.678c0.379-0.606-43.284-25.347-42.52-26.569c0.198-0.316,53.042,28.633,53.042,28.633      c0.624-0.999-38.968-22.495-38.135-23.829l47.198,24.791c0,0-34.449-20.618-34.041-21.271c0,0,42.399,22.553,42.702,22.068      l-30.499-19.058c0,0,38.501,19.911,38.531,19.863c0.214-0.342-30.536-17.688-29.911-18.689c0,0,39.162,20.366,39.577,19.701      c0.536-0.856-28.002-17.497-28.002-17.497s35.33,17.807,35.64,17.312c0.232-0.373-27.059-16.908-27.059-16.908      c0.049-0.078,30.961,17.397,31.491,16.549c0,0-24.902-14.605-24.473-15.293l31.934,15.494      c0.457-0.732-25.587-15.146-25.208-15.752c0.514-0.823,29.799,14.793,29.799,14.793s-24.132-14.224-23.747-14.839      c0.221-0.354,29.719,15.466,30.281,14.566c0.227-0.362-22.513-13.895-22.436-14.02c0,0,28.058,14.02,28.091,13.966      l-23.576-14.731c0.045-0.072,27.687,14.797,28.015,14.271l-23.045-14.4c0.552-0.883,28.191,14.136,28.658,13.388l-21.057-13.158      c0,0,26.455,12.349,26.686,11.98c0.129-0.208-20.309-12.69-20.309-12.69c0.273-0.438,24.646,11.77,25.039,11.139      c0.294-0.469-20.484-12.114-20.177-12.607c0,0,26.451,12.146,26.511,12.05l-19.617-12.259c0,0,23.702,11.584,23.87,11.315      c0.294-0.472-20.966-12.208-20.565-12.85c0.096-0.152,23.93,11.505,24.399,10.753c0,0-18.254-11.371-18.238-11.396      c0.435-0.694,22.754,10.524,23.032,10.079l-18.783-11.737l22.604,11.018c0,0-17.93-10.288-17.519-10.946      c0,0,22.881,10.493,23.317,9.795c0.076-0.123-18.923-11.314-18.693-11.681c0.062-0.099,21.126,9.438,21.126,9.438      s-17.825-10.963-17.746-11.089l22.317,9.225c0,0-16.876-10.455-16.836-10.521c0,0,20.935,10.393,21.126,10.086      c0,0-18.389-10.825-18.089-11.304l21.631,9.05c0.105-0.169-17.577-10.664-17.434-10.895l21.604,9.88      c0.195-0.312-18.525-11.409-18.45-11.529c0.287-0.46,20.736,9.334,20.979,8.947l-15.689-9.805c0,0,20.766,8.729,20.948,8.437      c0.315-0.505-17.116-9.906-16.762-10.474c0.009-0.016,19.362,8.604,19.587,8.243c0.058-0.092-16.565-9.631-16.241-10.148      l19.2,7.521c0.013-0.021-15.167-9.478-15.167-9.478l19.238,7.627l-15.665-9.789c0.262-0.419,20.208,8.217,20.208,8.217      s-17.431-10.295-17.163-10.725c0.222-0.354,19.543,9.088,19.543,9.088c0.312-0.498-17.202-10.749-17.202-10.749      c0.291-0.467,19.723,8.877,19.723,8.877l-15.895-9.932l18.488,8.009c0.255-0.406-16.77-10.479-16.77-10.479      c0.186-0.297,18.248,8.301,18.575,7.777c0.257-0.411-15.229-8.771-14.894-9.307l19.442,7.119c0,0-15.852-9.493-15.667-9.789      l17.731,7.854c0.011-0.018-15.45-9.654-15.45-9.654l19.464,7.034c0.084-0.135-16.558-9.918-16.364-10.227      c0,0,18.659,7.506,18.936,7.063c0.049-0.079-15.117-9.446-15.117-9.446c0.045-0.071,17.579,6.682,17.612,6.628      c0.108-0.173-14.42-8.618-14.243-8.9l16.894,7.247l-14.369-8.979c0.307-0.491,17.017,7.511,17.218,7.189      c0.022-0.038-14.726-9.201-14.726-9.201c0.056-0.089,16.397,6.908,16.397,6.908c0.193-0.31-15.114-9.231-15.019-9.384      l16.611,6.985c0,0-13.901-8.627-13.874-8.669c0.056-0.09,16.477,6.022,16.781,5.535l-13.657-8.534      c0.027-0.044,15.85,7.063,16.061,6.724c0,0-14.461-8.795-14.353-8.969c0.187-0.299,16.903,6.307,16.903,6.307      c0.212-0.34-15.37-9.604-15.37-9.604s18.364,7.623,18.553,7.322c0,0-14.972-9.193-14.899-9.311c0,0,15.96,5.296,16.09,5.089      c0.131-0.21-14.057-8.391-13.88-8.673c0.313-0.501,16.255,5.914,16.37,5.73c0.31-0.496-14.26-8.887-14.249-8.904      c0.202-0.322,16.478,5.673,16.589,5.496l-13.127-8.202c0,0,16.169,6.537,16.232,6.435c0.187-0.299-14.726-8.725-14.512-9.068      c0.027-0.042,16.188,6.729,16.188,6.729s-16.24-9.492-15.945-9.964l17.71,7.251c0.175-0.279-14.649-8.564-14.385-8.988      l16.718,5.326c0.031-0.049-15.691-9.09-15.369-9.604l16.521,6.602c0.265-0.424-14.33-8.955-14.33-8.955      s15.982,5.741,16.037,5.653l-14.546-9.089l17.252,5.793c0.209-0.336-15.653-9.527-15.539-9.71      c0.188-0.301,15.378,7.024,15.665,6.565l-13.468-8.415c0.132-0.212,16.626,5.751,16.824,5.434      c0.044-0.071-15.246-9.526-15.246-9.526l16.428,6.791c0.086-0.138-15.739-9.835-15.739-9.835      c0.065-0.105,17.393,6.077,17.393,6.077s-15.087-9.022-14.905-9.314c0.172-0.274,16.318,6.555,16.318,6.555l-15.857-9.909      l17.105,6.826c0,0-15.643-9.451-15.497-9.684c0,0,16.444,6.333,16.657,5.992c0.013-0.021-14.979-9.36-14.979-9.36      c0.096-0.153,16.129,5.832,16.129,5.832c0.244-0.392-15.141-9.461-15.141-9.461s16.055,6.558,16.056,6.555      c0,0-15.669-9.697-15.627-9.765l16.921,6.326c0,0-15.646-9.098-15.342-9.586c0.064-0.102,15.621,7.215,15.924,6.729      c0,0-14.611-8.543-14.348-8.965l15.152,5.002c0.14-0.223-14.523-8.847-14.42-9.012c0.153-0.245,16.809,5.434,16.809,5.434      c0.065-0.104-16.543-10.337-16.543-10.337l17.254,6.508l-15.568-9.729c0.21-0.337,15.499,5.971,15.666,5.703      c0,0-15.807-9.721-15.736-9.833l16.516,5.313c0.156-0.251-16.067-9.271-15.723-9.824c0.213-0.341,17.603,7.031,17.603,7.031      l-15.848-9.903c0.236-0.379,16.242,6.349,16.242,6.349s-16.686-9.776-16.394-10.243c0,0,16.977,6.075,17.167,5.771      c0.348-0.557-16.84-10.522-16.84-10.522c0.152-0.243,16.917,6.058,16.917,6.058c0.125-0.2-16.041-10.014-16.036-10.021      l16.574,6.038c0.307-0.49-16.751-10.467-16.751-10.467s17.707,7.16,17.827,6.968c0,0-16.813-9.679-16.442-10.274      c0,0,16.089,5.864,16.125,5.807c0,0-17.438-10.57-17.291-10.804c0.095-0.151,17.854,7.124,18.082,6.759      c0.332-0.531-18.121-11.323-18.121-11.323c0.313-0.502,18.493,7.12,18.493,7.12s-18.066-10.939-17.909-11.191      c0,0,17.695,7.563,18.005,7.066c0.325-0.521-19.309-11.509-19.059-11.909c0.09-0.144,19.095,6.783,19.095,6.783      c0.369-0.592-18.402-11.499-18.402-11.499c0.323-0.517,16.735,7.617,17.07,7.082l-17.028-10.641c0,0,16.463,5.73,16.491,5.685      c0.026-0.042-17.253-10.53-17.141-10.71c0,0,18.019,7.39,18.24,7.036c0.26-0.417-20.31-11.991-19.995-12.494      c0.369-0.59,19.236,7.891,19.566,7.363l-20.658-12.908l19.721,8.873l-20.162-12.599c0.095-0.15,18.554,8.26,18.554,8.26      l-19.299-12.059c0,0,19.531,7.26,19.557,7.219c0,0-21.151-12.547-20.851-13.029c0.069-0.11,19.858,7.26,19.858,7.26      c0.258-0.413-21.591-13.304-21.507-13.439c0.104-0.167,19.423,8.2,19.622,7.882l-21.815-13.631c0,0,21.306,9.669,21.499,9.359      c0.002-0.003-23.628-13.681-23.141-14.46c0.427-0.683,20.919,10.273,21.297,9.67c0,0-24.604-14.45-24.188-15.114l23.21,10.776      l-24.836-15.519l21.686,8.89c0,0-25.511-15.691-25.398-15.871c0,0,25.174,12.403,25.175,12.403      c0.13-0.208-27.799-17.371-27.799-17.371s24.294,11.235,24.764,10.483c0.563-0.901-30.169-17.586-29.601-18.497      c0.208-0.333,25.476,11.958,25.805,11.431c0,0-31.316-19.197-31.149-19.464l28.66,13.364c0,0-35.079-21.064-34.694-21.68      c0,0,32.309,17.538,32.528,17.186c0.157-0.251-37.281-23.296-37.281-23.296s31.987,15.65,32.04,15.564l-41.886-26.173      c0.593-0.948,38.159,20,38.159,20l-50.76-31.719c0,0,45.376,24.007,45.532,23.758L318.62,45.366      c0,0,122.929,77.484,124.947,74.255c0,0-116.534-70.317-115.41-72.116c0,0,103.467,62.26,104.601,60.445l-91.069-56.907      l83.061,48.254c0.04-0.064-69.992-43.243-69.771-43.597c0,0,55.848,33.332,56.587,32.148c0,0-41.136-24.19-40.455-25.279" style="fill:none;stroke:#231F20;stroke-width:2;stroke-linecap:round;stroke-linejoin:round;"/><path d="M306.593,294.706      c0,0-3.982-2.319-3.906-2.44c0.002-0.004,7.212,1.021,7.212,1.021c0.167-0.267-28.326-16.457-27.768-17.351      c0.498-0.798,29.864,15.335,29.864,15.335c0.38-0.608-56.018-32.688-54.978-34.354c0.078-0.124,58.604,32.35,58.604,32.35      l-56.445-35.271l61.939,33.77c0.577-0.924-57.282-35.794-57.282-35.794l59.325,33.387c0,0-56.696-33.038-55.622-34.757      l60.123,32.829c0.489-0.782-56.341-33.011-55.354-34.589c0.226-0.361,60.107,33.047,60.107,33.047      c0.925-1.479-57.902-33.433-56.667-35.409l60.233,32.937c0,0-57.014-34.134-56.344-35.207c0,0,59.731,33.671,60.164,32.979      l-55.436-34.64c0,0,59.536,33.095,59.583,33.019c0.406-0.648-58.083-33.652-56.896-35.552c0,0,61.65,34.98,62.317,33.912      c1.086-1.736-56.923-35.569-56.923-35.569s60.362,33.966,60.904,33.1c0.497-0.796-57.417-35.878-57.417-35.878      c0.095-0.151,58.679,35.82,59.705,34.178c0,0-56.69-33.314-55.742-34.831l60.429,33.298      c1.051-1.682-58.372-34.536-57.501-35.931c1.061-1.696,59.879,33.59,59.879,33.59s-57.699-34.025-56.787-35.485      c0.459-0.735,59.894,35.669,61.062,33.8c0.557-0.891-56.553-34.912-56.361-35.218c0,0,60.179,34.18,60.252,34.063      l-57.977-36.228c0.101-0.161,60.303,36.082,61.038,34.906l-58.035-36.264c1.229-1.966,60.68,35.714,61.721,34.048      l-56.538-35.329c0,0,49.845,27.449,50.293,26.731c0.291-0.465-46.297-28.93-46.297-28.93c0.24-0.385,21.84,9.909,22.187,9.355      c0.278-0.446-19.494-11.527-19.2-11.998" style="fill:none;stroke:#231F20;stroke-width:2;stroke-linecap:round;stroke-linejoin:round;"/><path d="M304.469,300.784      c0,0-53.254-31.774-52.579-32.854l26.871,12.854c0,0-24.477-15.232-24.448-15.277" style="fill:none;stroke:#231F20;stroke-width:2;stroke-linecap:round;stroke-linejoin:round;"/><path d="M187.976,304.344      c0,0-4.624-2.693-4.536-2.834c0.013-0.021,32.884,17.063,32.884,17.063c0.198-0.316-33.47-19.444-32.81-20.502      c1.227-1.963,71.544,41.379,71.544,41.379c0.496-0.794-73.229-42.737-71.872-44.91c0.103-0.163,76.568,43.575,76.568,43.575      L183.06,290.19l82.329,46.51c0.597-0.955-59.183-36.981-59.183-36.981l61.33,34.64c0,0-59.246-34.526-58.125-36.32      l62.761,34.477c0.517-0.828-59.675-34.968-58.632-36.638c0.239-0.382,63.512,35.175,63.512,35.175      c0.99-1.584-62.002-35.801-60.68-37.917l64.379,35.527c0,0-61.851-37.031-61.124-38.194c0,0,64.606,36.798,65.075,36.048      l-60.97-38.098c0,0,65.165,36.62,65.216,36.538c0.449-0.72-64.414-37.32-63.098-39.428c0,0,67.865,39.018,68.602,37.839      c1.217-1.948-63.886-39.921-63.886-39.921s67.405,38.512,68.012,37.541c0.564-0.903-65.212-40.749-65.212-40.749      c0.107-0.172,66.428,40.971,67.593,39.106c0,0-65.163-38.3-64.076-40.039l68.893,38.588c1.218-1.949-67.61-40-66.6-41.616      c1.228-1.965,69.09,39.346,69.09,39.346s-67.61-39.873-66.543-41.58c0.537-0.858,69.583,42.156,70.946,39.976      c0.659-1.055-67.091-41.419-66.865-41.782c0,0,70.774,40.832,70.862,40.692l-69.096-43.176      c0.119-0.19,71.378,43.31,72.251,41.914l-69.708-43.56c1.471-2.354,72.282,43.42,73.528,41.426l-11.853-7.407      c0,0,15.867,5.516,16,5.304c0.078-0.125-11.967-7.478-11.967-7.478c0.14-0.224,13.249,4.219,13.45,3.897      c0.155-0.248-10.59-6.257-10.428-6.517c0,0,11.608,2.792,11.633,2.753l-6.53-4.08c0,0,6.667,0.66,6.71,0.592      c0.057-0.09-4.653-2.735-4.576-2.859c0.016-0.024,4.049-1.083,4.124-1.204c0,0-0.09-0.056-0.09-0.057" style="fill:none;stroke:#231F20;stroke-width:2;stroke-linecap:round;stroke-linejoin:round;"/><path d="M135.632,257.572      c0,0-3.585-2.088-3.517-2.197c0.01-0.017,27.133,13.469,27.133,13.469c0.146-0.235-24.951-14.497-24.459-15.284      c0.896-1.433,52.628,29.56,52.628,29.56c0.35-0.559-51.431-30.01-50.475-31.54c0.092-0.148,69.44,39.121,69.44,39.121      l-66.384-41.481l71.179,39.543c0.679-1.086-67.271-42.035-67.271-42.035l68.792,39.302c0,0-66.912-39-65.648-41.021      l69.479,38.674c0.575-0.92-66.589-39.025-65.428-40.884c0.262-0.418,69.541,38.942,69.541,38.942      c1.089-1.742-68.239-39.403-66.784-41.731l69.685,38.843c0,0-67.297-40.293-66.506-41.558c0,0,69.171,39.726,69.673,38.922      l-65.615-41.001c0,0,69.09,39.082,69.145,38.994c0.479-0.766-68.469-39.67-67.069-41.91c0,0,70.976,41.039,71.748,39.804      c1.278-2.045-67.083-41.918-67.083-41.918s69.702,39.995,70.331,38.989c0.585-0.937-67.605-42.244-67.605-42.244      c0.11-0.177,68.233,42.171,69.431,40.255c0,0-67.084-39.43-65.966-41.22l69.992,39.275c1.24-1.983-68.802-40.705-67.774-42.35      c1.237-1.979,69.585,39.655,69.585,39.655s-68.179-40.209-67.103-41.931c0.535-0.855,69.375,42.017,70.733,39.843      c0.616-0.985-62.655-38.679-62.443-39.019c0,0,65.723,37.661,65.803,37.532l-42.349-26.463      c0.073-0.117,44.395,25.701,44.931,24.843l-16.486-10.302" style="fill:none;stroke:#231F20;stroke-width:2;stroke-linecap:round;stroke-linejoin:round;"/><path d="M137.22,193.097      c0,0-7.633-4.443-7.486-4.678c0.021-0.033,53.091,29.689,53.091,29.689c0.303-0.484-51.195-29.738-50.183-31.358      c0.887-1.42,52.141,29.255,52.141,29.255c0.345-0.552-50.708-29.589-49.765-31.097c0.071-0.113,53.214,28.982,53.214,28.982      l-49.871-31.163l55.16,29.533c0.513-0.821-50.919-31.818-50.919-31.818l52.81,29.314c0,0-50.375-29.348-49.418-30.879      l53.721,28.828c0.437-0.7-50.235-29.426-49.353-30.838c0.201-0.322,53.917,29.179,53.917,29.179      c0.831-1.329-51.967-30.004-50.858-31.78l54.229,29.185c0,0-51.34-30.735-50.736-31.703c0,0,53.975,29.978,54.364,29.355      l-50.026-31.259c0,0,53.934,29.583,53.976,29.516c0.369-0.59-52.724-30.547-51.646-32.272c0,0,56.199,31.437,56.805,30.467      c0.988-1.581-51.813-32.376-51.813-32.376s55.094,30.564,55.586,29.776c0.455-0.727-52.502-32.807-52.502-32.807      c0.086-0.138,53.723,32.525,54.66,31.024c0,0-51.837-30.457-50.967-31.848l55.467,30.199      c0.967-1.547-53.727-31.789-52.925-33.071c0.974-1.559,55.144,30.63,55.144,30.63s-53.225-31.386-52.384-32.733      c0.424-0.678,55.399,32.659,56.477,30.934c0.516-0.825-52.33-32.303-52.152-32.588c0,0,55.825,31.448,55.893,31.339      l-53.927-33.698c0.093-0.149,56.169,33.385,56.852,32.292l-54.129-33.824c1.145-1.832,56.658,33.042,57.627,31.49      l-52.835-33.015c0,0,56.142,31.514,56.648,30.703c0.333-0.532-53.059-33.154-53.059-33.154      c0.637-1.021,55.141,31.99,56.059,30.521c0.766-1.226-54.269-32.117-53.462-33.407" style="fill:none;stroke:#231F20;stroke-width:2;stroke-linecap:round;stroke-linejoin:round;"/><path d="M261.935,179.933      c0,0-5.524-3.217-5.418-3.386c0.018-0.029,46.232,25.403,46.232,25.403c0.262-0.42-44.355-25.767-43.479-27.169      c1.241-1.986,72.399,41.914,72.399,41.914c0.485-0.776-71.497-41.726-70.172-43.848c0.099-0.156,73.418,41.606,73.418,41.606      l-70.265-43.906l75.317,42.13c0.72-1.151-71.298-44.552-71.298-44.552l73.013,41.939c0,0-71.127-41.46-69.785-43.606      l73.863,41.414c0.612-0.98-70.941-41.581-69.706-43.558c0.278-0.446,74.056,41.764,74.056,41.764      c1.161-1.857-72.748-42.008-71.197-44.489l74.344,41.755c0,0-71.905-43.054-71.062-44.404c0,0,73.937,42.783,74.475,41.922      l-70.316-43.938c0,0,74.046,42.187,74.104,42.093c0.513-0.822-73.431-42.546-71.931-44.947c0,0,76.05,44.335,76.878,43.01      c1.374-2.198-72.095-45.05-72.095-45.05s74.932,43.37,75.608,42.287c0.63-1.009-72.768-45.47-72.768-45.47      c0.119-0.19,73.469,45.652,74.76,43.585c0,0-72.426-42.575-71.221-44.504l75.486,42.708      c1.339-2.142-74.274-43.942-73.164-45.718c1.339-2.143,75.181,43.152,75.181,43.152s-73.771-43.509-72.608-45.371      c0.579-0.927,75,45.784,76.473,43.429c0.712-1.141-72.606-44.824-72.361-45.216" style="fill:none;stroke:#231F20;stroke-width:2;stroke-linecap:round;stroke-linejoin:round;"/></g><g><path d="M118.868,375.408      c0,0-63.846-38.095-63.036-39.39l41.803,22.185c0,0-46.915-29.196-46.861-29.282l36.889,19.575      c0.005-0.008-39.596-24.742-39.596-24.742c0.327-0.524,29.138,14.04,29.372,13.665c0.417-0.668-33.626-19.876-33.116-20.693      l27.995,13.211c0.444-0.71-31.322-19.572-31.322-19.572l25.961,11.449l-29.598-18.494c0.262-0.419,23.511,9.615,23.511,9.615      c0.528-0.846-26.43-16.495-26.421-16.51l23.328,9.574l-24.656-15.407c0.154-0.246,21.078,8.015,21.078,8.015      c0.483-0.773-22.564-14.1-22.564-14.1l20.451,9.254c0,0-22.337-13.108-21.956-13.72c0.257-0.411,20.969,9.474,21.186,9.126      l-22.615-14.131c0.29-0.464,19.352,8.016,19.739,7.396c0,0-19.956-11.515-19.526-12.201c0.273-0.438,18.91,8.214,18.945,8.158      c0.22-0.353-20.033-11.683-19.658-12.284c0.196-0.313,17.729,7.127,18.01,6.678c0,0-18.701-11.321-18.537-11.584      c0.256-0.409,17.086,6.231,17.086,6.231s-18.232-10.487-17.825-11.138c0.328-0.524,17.242,5.977,17.242,5.977l-18.409-11.503      c0.02-0.033,18.528,8.595,18.605,8.472l-17.229-10.766c0.328-0.524,17.39,6.692,17.447,6.601      c0.002-0.003-18.978-11.593-18.858-11.784c0,0,18.254,6.782,18.358,6.616c0,0-18.084-10.55-17.747-11.09l16.789,5.972      c0,0-16.48-9.701-16.212-10.13l16.64,6.234c0.01-0.017-15.961-9.974-15.961-9.974c0.051-0.082,16.8,7.943,17.104,7.458      c0.201-0.32-18.204-10.696-17.899-11.185c0,0,17.006,6.345,17.022,6.319l-16.1-10.06l16.66,5.289l-14.703-9.187      c0,0,14.856,5.897,14.897,5.831c0.231-0.371-15.614-9.757-15.614-9.757l15.932,6.279c0.314-0.503-13.981-8.244-13.76-8.598      c0.166-0.266,15.939,6.326,15.939,6.326l-16.092-10.055c0.03-0.048,15.587,6.536,15.704,6.35      c0.148-0.237-14.961-9.349-14.961-9.349l16.282,7.062l-15.989-9.991c0.252-0.404,15.587,6.184,15.811,5.827      c0,0-14.136-8.634-14.046-8.777c0.28-0.448,15.823,5.65,15.823,5.65l-14.398-8.997c0.086-0.137,15.682,6.034,15.682,6.034      l-14.682-9.174c0,0,15.118,5.642,15.394,5.201l-15.02-9.385c0.079-0.126,15.791,6.261,16.082,5.794c0,0-14.289-8.9-14.276-8.92      l15.957,5.965c0.241-0.386-15.208-8.88-14.928-9.328l16.763,5.938l-14.519-9.072c0,0,14.509,5.947,14.651,5.72      c0,0-14.153-8.754-14.113-8.819c0,0,15.646,6.636,15.853,6.305c0,0-13.853-8.14-13.621-8.511      c0.145-0.232,14.948,5.679,14.948,5.679s-13.41-8.301-13.374-8.357l14.283,5.478c0,0-13.138-7.917-13.006-8.127      c0.026-0.042,15.393,4.777,15.393,4.777l-12.985-8.114c0,0,14.092,5.642,14.304,5.302c0.296-0.475-12.944-7.812-12.82-8.011      c0.16-0.256,14.977,4.902,14.977,4.902s-14.131-8.691-14.069-8.791c0.194-0.311,15.686,5.508,15.686,5.508      s-13.405-8.224-13.337-8.334l14.882,4.373c0.115-0.184-12.175-7.188-11.986-7.49c0.154-0.247,13.968,5.333,14.063,5.181      l-12.614-7.882c0,0,14.704,5.313,14.934,4.944c0.218-0.349-12.851-8.03-12.851-8.03s14.958,4.792,15.098,4.568      c0,0-12.734-7.769-12.649-7.904c0,0,14.926,6.125,15.002,6.002c0,0-14.826-8.767-14.602-9.125      c0.061-0.097,15.66,5.153,15.9,4.768l-11.684-7.301c0,0,14.248,5.608,14.268,5.575c0.071-0.114-13.793-8.619-13.793-8.619      l17.189,5.639l-13.252-8.281c0,0,15.031,4.701,15.124,4.553c0.292-0.468-12.85-7.474-12.601-7.874l14.699,5.63      c0,0-12.914-8.067-12.913-8.069c0.121-0.193,14.527,5.91,14.527,5.91c0.25-0.399-13.291-8.305-13.291-8.305      c0.098-0.157,15.462,6.406,15.668,6.078c0,0-12.313-7.443-12.2-7.624c0.14-0.223,15.893,5.471,16.014,5.277      c0.038-0.06-13.756-8.296-13.622-8.512l15.844,4.822l-13.161-8.224l15.427,5.004c0,0-11.868-7.148-11.748-7.341      c0.014-0.022,15.373,6.505,15.566,6.196c0.115-0.184-13.514-8.444-13.514-8.444c0.238-0.381,15.018,5.518,15.018,5.518      c0.282-0.452-13.737-8.584-13.737-8.584c0.103-0.165,16.6,6.753,16.6,6.753c0.015-0.023-13.391-8.368-13.391-8.368      c0.263-0.422,15.798,6.016,15.961,5.755c0.211-0.337-12.434-7.77-12.434-7.77l16.131,5.664c0.296-0.475-14.67-9.167-14.67-9.167      l16.742,6.932c0.175-0.281-13.218-8.259-13.218-8.259l15.814,5.052c0.071-0.112-12.047-7.298-11.944-7.463l14.18,5.601      l-12.69-7.93l16.38,6.277c0.057-0.09-14.259-8.91-14.259-8.91c0.004-0.007,16.446,7.136,16.624,6.851      c0,0-13.979-8.708-13.967-8.728c0.325-0.521,17.271,7.718,17.271,7.718s-14.983-8.792-14.727-9.202      c0.24-0.384,17.186,5.807,17.186,5.807s-13.367-8.08-13.244-8.276l17.493,7.028c0.237-0.378-14.466-9.039-14.466-9.039      c0.013-0.02,17.14,5.771,17.14,5.771c0.263-0.42-12.788-7.991-12.788-7.991l17.322,6.729c0.225-0.36-14.484-9.051-14.484-9.051      s18.781,7.365,19.122,6.821c0,0-15.229-9.349-15.154-9.469c0.318-0.509,17.238,6.713,17.361,6.515c0,0-13.92-8.195-13.694-8.557      c0.284-0.455,17.851,7.705,17.851,7.705l-14.471-9.042c0.275-0.439,17.983,6.953,18.219,6.576      c0.096-0.154-15.066-9.415-15.066-9.415c0.056-0.09,18.191,8.265,18.424,7.892c0.314-0.503-13.942-8.712-13.942-8.712      c0.015-0.024,18.037,6.474,18.037,6.474c0.124-0.198-13.609-8.504-13.609-8.504l16.916,6.863      c0.121-0.193-14.066-8.315-13.853-8.656c0,0,18.387,7.82,18.57,7.526c0.176-0.281-15.192-9.453-15.174-9.482      c0,0,17.699,7.898,17.84,7.672c0,0-14.834-8.532-14.503-9.063c0.207-0.331,19.275,7.064,19.275,7.064      c0.168-0.27-15.22-9.511-15.22-9.511s19.869,8.149,20.121,7.746l-15.512-9.693c0.231-0.37,21.41,8.65,21.41,8.65L178.075,58.08      l21.205,9.453l-17.14-10.71c0,0,21.008,8.23,21.063,8.142c0.339-0.542-15.341-9.051-15.101-9.436      c0.258-0.412,20.143,8.555,20.26,8.367l-16.607-10.377c0.18-0.289,22.642,9.94,22.642,9.94L195.755,51.81      c0.437-0.699,22.754,10.199,23.079,9.679c0,0-17.2-9.921-16.828-10.516c0,0,21.565,9.469,21.765,9.149L205.95,48.987      c0.355-0.569,23.379,10.496,23.577,10.179c0.154-0.246-18.095-11.164-18.031-11.267c0.011-0.019,24.719,11.215,24.719,11.215      c0.195-0.313-19.026-11.851-19.009-11.878c0.348-0.557,24.852,11.13,24.852,11.13c0.201-0.322-20.712-12.23-20.392-12.743      c0,0,24.339,11.654,24.585,11.261c0,0-19.924-11.559-19.523-12.199c0,0,25.87,13.002,26.065,12.689      c0.224-0.358-21.882-13.319-21.723-13.574c0,0,28.368,12.908,28.421,12.823c0.367-0.588-20.999-13.068-20.976-13.106      c0.229-0.366,27.001,12.667,27.066,12.561l-20.794-12.994c0.313-0.5,27.318,13.525,27.331,13.506      c0.142-0.227-24.386-14.139-23.893-14.929c0.427-0.683,32.259,15.312,32.259,15.312L256.25,41.829      c0.189-0.303,29.478,15.104,29.478,15.104L261.046,41.51l31.78,16.314c0,0-27.345-16.258-26.973-16.854      c0,0,35.62,17.897,35.897,17.454c0,0-28.58-16.658-28.04-17.521c0.294-0.471,37.629,19.482,37.71,19.352      c0.181-0.289-30.333-18.954-30.333-18.954c0.554-0.887,39.979,21.089,39.979,21.089c0.08-0.129-33.969-21.226-33.969-21.226      l42.882,23.201c0.362-0.58-36.228-21.069-35.522-22.197l53.229,28.279l-44.328-27.699L369.9,80.721l-58.361-36.469" style="fill:none;stroke:#262626;stroke-width:2;stroke-linecap:round;stroke-linejoin:round;"/><path d="M134.295,403.297      c0,0-27.837-16.195-27.298-17.059c0.021-0.032,52.752,29.478,52.752,29.478c0.445-0.711-75.075-43.605-73.589-45.983      c1.504-2.406,87.388,51.28,87.388,51.28c0.678-1.085-100.069-58.408-98.216-61.373c0.152-0.243,113.031,66.359,113.031,66.359      L65.943,349.504l138.061,81.336c1.475-2.36-145.76-91.081-145.76-91.081l154.278,92.72c0,0-55.722-32.47-54.666-34.159      l66.283,36.678c0.379-0.606-43.284-25.347-42.52-26.569c0.198-0.316,53.042,28.633,53.042,28.633      c0.624-0.999-38.968-22.495-38.135-23.829l47.198,24.791c0,0-34.449-20.618-34.041-21.271c0,0,42.399,22.553,42.702,22.068      l-30.499-19.058c0,0,38.501,19.911,38.531,19.863c0.214-0.342-30.536-17.688-29.911-18.689c0,0,39.162,20.366,39.577,19.701      c0.536-0.856-28.002-17.497-28.002-17.497s35.33,17.807,35.64,17.312c0.232-0.373-27.059-16.908-27.059-16.908      c0.049-0.078,30.961,17.397,31.491,16.549c0,0-24.902-14.605-24.473-15.293l31.934,15.494      c0.457-0.732-25.587-15.146-25.208-15.752c0.514-0.823,29.799,14.793,29.799,14.793s-24.132-14.224-23.747-14.839      c0.221-0.354,29.719,15.466,30.281,14.566c0.227-0.362-22.513-13.895-22.436-14.02c0,0,28.058,14.02,28.091,13.966      l-23.576-14.731c0.045-0.072,27.687,14.797,28.015,14.271l-23.045-14.4c0.552-0.883,28.191,14.136,28.658,13.388l-21.057-13.158      c0,0,26.455,12.349,26.686,11.98c0.129-0.208-20.309-12.69-20.309-12.69c0.273-0.438,24.646,11.77,25.039,11.139      c0.294-0.469-20.484-12.114-20.177-12.607c0,0,26.451,12.146,26.511,12.05l-19.617-12.259c0,0,23.702,11.584,23.87,11.315      c0.294-0.472-20.966-12.208-20.565-12.85c0.096-0.152,23.93,11.505,24.399,10.753c0,0-18.254-11.371-18.238-11.396      c0.435-0.694,22.754,10.524,23.032,10.079l-18.783-11.737l22.604,11.018c0,0-17.93-10.288-17.519-10.946      c0,0,22.881,10.493,23.317,9.795c0.076-0.123-18.923-11.314-18.693-11.681c0.062-0.099,21.126,9.438,21.126,9.438      s-17.825-10.963-17.746-11.089l22.317,9.225c0,0-16.876-10.455-16.836-10.521c0,0,20.935,10.393,21.126,10.086      c0,0-18.389-10.825-18.089-11.304l21.631,9.05c0.105-0.169-17.577-10.664-17.434-10.895l21.604,9.88      c0.195-0.312-18.525-11.409-18.45-11.529c0.287-0.46,20.736,9.334,20.979,8.947l-15.689-9.805c0,0,20.766,8.729,20.948,8.437      c0.315-0.505-17.116-9.906-16.762-10.474c0.009-0.016,19.362,8.604,19.587,8.243c0.058-0.092-16.565-9.631-16.241-10.148      l19.2,7.521c0.013-0.021-15.167-9.478-15.167-9.478l19.238,7.627l-15.665-9.789c0.262-0.419,20.208,8.217,20.208,8.217      s-17.431-10.295-17.163-10.725c0.222-0.354,19.543,9.088,19.543,9.088c0.312-0.498-17.202-10.749-17.202-10.749      c0.291-0.467,19.723,8.877,19.723,8.877l-15.895-9.932l18.488,8.009c0.255-0.406-16.77-10.479-16.77-10.479      c0.186-0.297,18.248,8.301,18.575,7.777c0.257-0.411-15.229-8.771-14.894-9.307l19.442,7.119c0,0-15.852-9.493-15.667-9.789      l17.731,7.854c0.011-0.018-15.45-9.654-15.45-9.654l19.464,7.034c0.084-0.135-16.558-9.918-16.364-10.227      c0,0,18.659,7.506,18.936,7.063c0.049-0.079-15.117-9.446-15.117-9.446c0.045-0.071,17.579,6.682,17.612,6.628      c0.108-0.173-14.42-8.618-14.243-8.9l16.894,7.247l-14.369-8.979c0.307-0.491,17.017,7.511,17.218,7.189      c0.022-0.038-14.726-9.201-14.726-9.201c0.056-0.089,16.397,6.908,16.397,6.908c0.193-0.31-15.114-9.231-15.019-9.384      l16.611,6.985c0,0-13.901-8.627-13.874-8.669c0.056-0.09,16.477,6.022,16.781,5.535l-13.657-8.534      c0.027-0.044,15.85,7.063,16.061,6.724c0,0-14.461-8.795-14.353-8.969c0.187-0.299,16.903,6.307,16.903,6.307      c0.212-0.34-15.37-9.604-15.37-9.604s18.364,7.623,18.553,7.322c0,0-14.972-9.193-14.899-9.311c0,0,15.96,5.296,16.09,5.089      c0.131-0.21-14.057-8.391-13.88-8.673c0.313-0.501,16.255,5.914,16.37,5.73c0.31-0.496-14.26-8.887-14.249-8.904      c0.202-0.322,16.478,5.673,16.589,5.496l-13.127-8.202c0,0,16.169,6.537,16.232,6.435c0.187-0.299-14.726-8.725-14.512-9.068      c0.027-0.042,16.188,6.729,16.188,6.729s-16.24-9.492-15.945-9.964l17.71,7.251c0.175-0.279-14.649-8.564-14.385-8.988      l16.718,5.326c0.031-0.049-15.691-9.09-15.369-9.604l16.521,6.602c0.265-0.424-14.33-8.955-14.33-8.955      s15.982,5.741,16.037,5.653l-14.546-9.089l17.252,5.793c0.209-0.336-15.653-9.527-15.539-9.71      c0.188-0.301,15.378,7.024,15.665,6.565l-13.468-8.415c0.132-0.212,16.626,5.751,16.824,5.434      c0.044-0.071-15.246-9.526-15.246-9.526l16.428,6.791c0.086-0.138-15.739-9.835-15.739-9.835      c0.065-0.105,17.393,6.077,17.393,6.077s-15.087-9.022-14.905-9.314c0.172-0.274,16.318,6.555,16.318,6.555l-15.857-9.909      l17.105,6.826c0,0-15.643-9.451-15.497-9.684c0,0,16.444,6.333,16.657,5.992c0.013-0.021-14.979-9.36-14.979-9.36      c0.096-0.153,16.129,5.832,16.129,5.832c0.244-0.392-15.141-9.461-15.141-9.461s16.055,6.558,16.056,6.555      c0,0-15.669-9.697-15.627-9.765l16.921,6.326c0,0-15.646-9.098-15.342-9.586c0.064-0.102,15.621,7.215,15.924,6.729      c0,0-14.611-8.543-14.348-8.965l15.152,5.002c0.14-0.223-14.523-8.847-14.42-9.012c0.153-0.245,16.809,5.434,16.809,5.434      c0.065-0.104-16.543-10.337-16.543-10.337l17.254,6.508l-15.568-9.729c0.21-0.337,15.499,5.971,15.666,5.703      c0,0-15.807-9.721-15.736-9.833l16.516,5.313c0.156-0.251-16.067-9.271-15.723-9.824c0.213-0.341,17.603,7.031,17.603,7.031      l-15.848-9.903c0.236-0.379,16.242,6.349,16.242,6.349s-16.686-9.776-16.394-10.243c0,0,16.977,6.075,17.167,5.771      c0.348-0.557-16.84-10.522-16.84-10.522c0.152-0.243,16.917,6.058,16.917,6.058c0.125-0.2-16.041-10.014-16.036-10.021      l16.574,6.038c0.307-0.49-16.751-10.467-16.751-10.467s17.707,7.16,17.827,6.968c0,0-16.813-9.679-16.442-10.274      c0,0,16.089,5.864,16.125,5.807c0,0-17.438-10.57-17.291-10.804c0.095-0.151,17.854,7.124,18.082,6.759      c0.332-0.531-18.121-11.323-18.121-11.323c0.313-0.502,18.493,7.12,18.493,7.12s-18.066-10.939-17.909-11.191      c0,0,17.695,7.563,18.005,7.066c0.325-0.521-19.309-11.509-19.059-11.909c0.09-0.144,19.095,6.783,19.095,6.783      c0.369-0.592-18.402-11.499-18.402-11.499c0.323-0.517,16.735,7.617,17.07,7.082l-17.028-10.641c0,0,16.463,5.73,16.491,5.685      c0.026-0.042-17.253-10.53-17.141-10.71c0,0,18.019,7.39,18.24,7.036c0.26-0.417-20.31-11.991-19.995-12.494      c0.369-0.59,19.236,7.891,19.566,7.363l-20.658-12.908l19.721,8.873l-20.162-12.599c0.095-0.15,18.554,8.26,18.554,8.26      l-19.299-12.059c0,0,19.531,7.26,19.557,7.219c0,0-21.151-12.547-20.851-13.029c0.069-0.11,19.858,7.26,19.858,7.26      c0.258-0.413-21.591-13.304-21.507-13.439c0.104-0.167,19.423,8.2,19.622,7.882l-21.815-13.631c0,0,21.306,9.669,21.499,9.359      c0.002-0.003-23.628-13.681-23.141-14.46c0.427-0.683,20.919,10.273,21.297,9.67c0,0-24.604-14.45-24.188-15.114l23.21,10.776      l-24.836-15.519l21.686,8.89c0,0-25.511-15.691-25.398-15.871c0,0,25.174,12.403,25.175,12.403      c0.13-0.208-27.799-17.371-27.799-17.371s24.294,11.235,24.764,10.483c0.563-0.901-30.169-17.586-29.601-18.497      c0.208-0.333,25.476,11.958,25.805,11.431c0,0-31.316-19.197-31.149-19.464l28.66,13.364c0,0-35.079-21.064-34.694-21.68      c0,0,32.309,17.538,32.528,17.186c0.157-0.251-37.281-23.296-37.281-23.296s31.987,15.65,32.04,15.564l-41.886-26.173      c0.593-0.948,38.159,20,38.159,20l-50.76-31.719c0,0,45.376,24.007,45.532,23.758L318.62,45.366      c0,0,122.929,77.484,124.947,74.255c0,0-116.534-70.317-115.41-72.116c0,0,103.467,62.26,104.601,60.445l-91.069-56.907      l83.061,48.254c0.04-0.064-69.992-43.243-69.771-43.597c0,0,55.848,33.332,56.587,32.148c0,0-41.136-24.19-40.455-25.279" style="fill:none;stroke:#262626;stroke-width:2;stroke-linecap:round;stroke-linejoin:round;"/><path d="M306.593,294.706      c0,0-3.982-2.319-3.906-2.44c0.002-0.004,7.212,1.021,7.212,1.021c0.167-0.267-28.326-16.457-27.768-17.351      c0.498-0.798,29.864,15.335,29.864,15.335c0.38-0.608-56.018-32.688-54.978-34.354c0.078-0.124,58.604,32.35,58.604,32.35      l-56.445-35.271l61.939,33.77c0.577-0.924-57.282-35.794-57.282-35.794l59.325,33.387c0,0-56.696-33.038-55.622-34.757      l60.123,32.829c0.489-0.782-56.341-33.011-55.354-34.589c0.226-0.361,60.107,33.047,60.107,33.047      c0.925-1.479-57.902-33.433-56.667-35.409l60.233,32.937c0,0-57.014-34.134-56.344-35.207c0,0,59.731,33.671,60.164,32.979      l-55.436-34.64c0,0,59.536,33.095,59.583,33.019c0.406-0.648-58.083-33.652-56.896-35.552c0,0,61.65,34.98,62.317,33.912      c1.086-1.736-56.923-35.569-56.923-35.569s60.362,33.966,60.904,33.1c0.497-0.796-57.417-35.878-57.417-35.878      c0.095-0.151,58.679,35.82,59.705,34.178c0,0-56.69-33.314-55.742-34.831l60.429,33.298      c1.051-1.682-58.372-34.536-57.501-35.931c1.061-1.696,59.879,33.59,59.879,33.59s-57.699-34.025-56.787-35.485      c0.459-0.735,59.894,35.669,61.062,33.8c0.557-0.891-56.553-34.912-56.361-35.218c0,0,60.179,34.18,60.252,34.063      l-57.977-36.228c0.101-0.161,60.303,36.082,61.038,34.906l-58.035-36.264c1.229-1.966,60.68,35.714,61.721,34.048      l-56.538-35.329c0,0,49.845,27.449,50.293,26.731c0.291-0.465-46.297-28.93-46.297-28.93c0.24-0.385,21.84,9.909,22.187,9.355      c0.278-0.446-19.494-11.527-19.2-11.998" style="fill:none;stroke:#262626;stroke-width:2;stroke-linecap:round;stroke-linejoin:round;"/><path d="M304.469,300.784      c0,0-53.254-31.774-52.579-32.854l26.871,12.854c0,0-24.477-15.232-24.448-15.277" style="fill:none;stroke:#262626;stroke-width:2;stroke-linecap:round;stroke-linejoin:round;"/><path d="M187.976,304.344      c0,0-4.624-2.693-4.536-2.834c0.013-0.021,32.884,17.063,32.884,17.063c0.198-0.316-33.47-19.444-32.81-20.502      c1.227-1.963,71.544,41.379,71.544,41.379c0.496-0.794-73.229-42.737-71.872-44.91c0.103-0.163,76.568,43.575,76.568,43.575      L183.06,290.19l82.329,46.51c0.597-0.955-59.183-36.981-59.183-36.981l61.33,34.64c0,0-59.246-34.526-58.125-36.32      l62.761,34.477c0.517-0.828-59.675-34.968-58.632-36.638c0.239-0.382,63.512,35.175,63.512,35.175      c0.99-1.584-62.002-35.801-60.68-37.917l64.379,35.527c0,0-61.851-37.031-61.124-38.194c0,0,64.606,36.798,65.075,36.048      l-60.97-38.098c0,0,65.165,36.62,65.216,36.538c0.449-0.72-64.414-37.32-63.098-39.428c0,0,67.865,39.018,68.602,37.839      c1.217-1.948-63.886-39.921-63.886-39.921s67.405,38.512,68.012,37.541c0.564-0.903-65.212-40.749-65.212-40.749      c0.107-0.172,66.428,40.971,67.593,39.106c0,0-65.163-38.3-64.076-40.039l68.893,38.588c1.218-1.949-67.61-40-66.6-41.616      c1.228-1.965,69.09,39.346,69.09,39.346s-67.61-39.873-66.543-41.58c0.537-0.858,69.583,42.156,70.946,39.976      c0.659-1.055-67.091-41.419-66.865-41.782c0,0,70.774,40.832,70.862,40.692l-69.096-43.176      c0.119-0.19,71.378,43.31,72.251,41.914l-69.708-43.56c1.471-2.354,72.282,43.42,73.528,41.426l-11.853-7.407      c0,0,15.867,5.516,16,5.304c0.078-0.125-11.967-7.478-11.967-7.478c0.14-0.224,13.249,4.219,13.45,3.897      c0.155-0.248-10.59-6.257-10.428-6.517c0,0,11.608,2.792,11.633,2.753l-6.53-4.08c0,0,6.667,0.66,6.71,0.592      c0.057-0.09-4.653-2.735-4.576-2.859c0.016-0.024,4.049-1.083,4.124-1.204c0,0-0.09-0.056-0.09-0.057" style="fill:none;stroke:#262626;stroke-width:2;stroke-linecap:round;stroke-linejoin:round;"/><path d="M135.632,257.572      c0,0-3.585-2.088-3.517-2.197c0.01-0.017,27.133,13.469,27.133,13.469c0.146-0.235-24.951-14.497-24.459-15.284      c0.896-1.433,52.628,29.56,52.628,29.56c0.35-0.559-51.431-30.01-50.475-31.54c0.092-0.148,69.44,39.121,69.44,39.121      l-66.384-41.481l71.179,39.543c0.679-1.086-67.271-42.035-67.271-42.035l68.792,39.302c0,0-66.912-39-65.648-41.021      l69.479,38.674c0.575-0.92-66.589-39.025-65.428-40.884c0.262-0.418,69.541,38.942,69.541,38.942      c1.089-1.742-68.239-39.403-66.784-41.731l69.685,38.843c0,0-67.297-40.293-66.506-41.558c0,0,69.171,39.726,69.673,38.922      l-65.615-41.001c0,0,69.09,39.082,69.145,38.994c0.479-0.766-68.469-39.67-67.069-41.91c0,0,70.976,41.039,71.748,39.804      c1.278-2.045-67.083-41.918-67.083-41.918s69.702,39.995,70.331,38.989c0.585-0.937-67.605-42.244-67.605-42.244      c0.11-0.177,68.233,42.171,69.431,40.255c0,0-67.084-39.43-65.966-41.22l69.992,39.275c1.24-1.983-68.802-40.705-67.774-42.35      c1.237-1.979,69.585,39.655,69.585,39.655s-68.179-40.209-67.103-41.931c0.535-0.855,69.375,42.017,70.733,39.843      c0.616-0.985-62.655-38.679-62.443-39.019c0,0,65.723,37.661,65.803,37.532l-42.349-26.463      c0.073-0.117,44.395,25.701,44.931,24.843l-16.486-10.302" style="fill:none;stroke:#262626;stroke-width:2;stroke-linecap:round;stroke-linejoin:round;"/><path d="M137.22,193.097      c0,0-7.633-4.443-7.486-4.678c0.021-0.033,53.091,29.689,53.091,29.689c0.303-0.484-51.195-29.738-50.183-31.358      c0.887-1.42,52.141,29.255,52.141,29.255c0.345-0.552-50.708-29.589-49.765-31.097c0.071-0.113,53.214,28.982,53.214,28.982      l-49.871-31.163l55.16,29.533c0.513-0.821-50.919-31.818-50.919-31.818l52.81,29.314c0,0-50.375-29.348-49.418-30.879      l53.721,28.828c0.437-0.7-50.235-29.426-49.353-30.838c0.201-0.322,53.917,29.179,53.917,29.179      c0.831-1.329-51.967-30.004-50.858-31.78l54.229,29.185c0,0-51.34-30.735-50.736-31.703c0,0,53.975,29.978,54.364,29.355      l-50.026-31.259c0,0,53.934,29.583,53.976,29.516c0.369-0.59-52.724-30.547-51.646-32.272c0,0,56.199,31.437,56.805,30.467      c0.988-1.581-51.813-32.376-51.813-32.376s55.094,30.564,55.586,29.776c0.455-0.727-52.502-32.807-52.502-32.807      c0.086-0.138,53.723,32.525,54.66,31.024c0,0-51.837-30.457-50.967-31.848l55.467,30.199      c0.967-1.547-53.727-31.789-52.925-33.071c0.974-1.559,55.144,30.63,55.144,30.63s-53.225-31.386-52.384-32.733      c0.424-0.678,55.399,32.659,56.477,30.934c0.516-0.825-52.33-32.303-52.152-32.588c0,0,55.825,31.448,55.893,31.339      l-53.927-33.698c0.093-0.149,56.169,33.385,56.852,32.292l-54.129-33.824c1.145-1.832,56.658,33.042,57.627,31.49      l-52.835-33.015c0,0,56.142,31.514,56.648,30.703c0.333-0.532-53.059-33.154-53.059-33.154      c0.637-1.021,55.141,31.99,56.059,30.521c0.766-1.226-54.269-32.117-53.462-33.407" style="fill:none;stroke:#262626;stroke-width:2;stroke-linecap:round;stroke-linejoin:round;"/><path d="M261.935,179.933      c0,0-5.524-3.217-5.418-3.386c0.018-0.029,46.232,25.403,46.232,25.403c0.262-0.42-44.355-25.767-43.479-27.169      c1.241-1.986,72.399,41.914,72.399,41.914c0.485-0.776-71.497-41.726-70.172-43.848c0.099-0.156,73.418,41.606,73.418,41.606      l-70.265-43.906l75.317,42.13c0.72-1.151-71.298-44.552-71.298-44.552l73.013,41.939c0,0-71.127-41.46-69.785-43.606      l73.863,41.414c0.612-0.98-70.941-41.581-69.706-43.558c0.278-0.446,74.056,41.764,74.056,41.764      c1.161-1.857-72.748-42.008-71.197-44.489l74.344,41.755c0,0-71.905-43.054-71.062-44.404c0,0,73.937,42.783,74.475,41.922      l-70.316-43.938c0,0,74.046,42.187,74.104,42.093c0.513-0.822-73.431-42.546-71.931-44.947c0,0,76.05,44.335,76.878,43.01      c1.374-2.198-72.095-45.05-72.095-45.05s74.932,43.37,75.608,42.287c0.63-1.009-72.768-45.47-72.768-45.47      c0.119-0.19,73.469,45.652,74.76,43.585c0,0-72.426-42.575-71.221-44.504l75.486,42.708      c1.339-2.142-74.274-43.942-73.164-45.718c1.339-2.143,75.181,43.152,75.181,43.152s-73.771-43.509-72.608-45.371      c0.579-0.927,75,45.784,76.473,43.429c0.712-1.141-72.606-44.824-72.361-45.216" style="fill:none;stroke:#262626;stroke-width:2;stroke-linecap:round;stroke-linejoin:round;"/></g></g></g></g><g id="Layer_1"/></svg>