<?xml version="1.0" ?><!DOCTYPE svg  PUBLIC '-//W3C//DTD SVG 1.1//EN'  'http://www.w3.org/Graphics/SVG/1.1/DTD/svg11.dtd'><svg height="512px" style="enable-background:new 0 0 512 512;" version="1.1" viewBox="0 0 512 512" width="512px" xml:space="preserve" xmlns="http://www.w3.org/2000/svg" xmlns:xlink="http://www.w3.org/1999/xlink"><g id="flicker__x2C__icon_x2C__social__x2C__media"><g><g><g><path d="M117.396,374.506      l-61.833-38.638c0.73-1.168,40.529,21.08,40.529,21.08c0.023-0.037-45.072-28.164-45.072-28.164      c0.1-0.16,35.723,20.24,36.268,19.369l-40.46-25.283l32.178,16.628c0,0-34.536-20.952-34.253-21.404      c0.244-0.39,27.893,12.804,27.893,12.804l-31.176-19.481c0.383-0.613,24.412,11.199,24.682,10.766l-28.746-17.963      c0.474-0.758,25.952,13.047,26.22,12.617l-26.96-16.847l22.687,9.777c0.212-0.339-25.98-16.234-25.98-16.234      c0.142-0.227,22.001,9.038,22.001,9.038l-23.668-14.79l22.033,9.45c0.241-0.386-23.777-14.857-23.777-14.857      s21.719,9.975,21.746,9.932c0,0-22.489-13.028-22.029-13.765c0,0,20.39,7.722,20.401,7.703      c0.145-0.231-21.75-13.591-21.75-13.591c0.302-0.484,19,7.617,19.116,7.431l-18.828-11.766l18.799,8.188      c0.085-0.137-20.36-12.196-20.124-12.575c0.313-0.501,17.957,7.714,18.262,7.225l-17.898-11.184      c0.048-0.076,18.119,6.96,18.119,6.96s-18.848-11.733-18.828-11.765c0,0,18.212,8.321,18.537,7.801      c0.125-0.199-19.078-11.562-18.916-11.82c0.065-0.104,17.191,7.099,17.191,7.099s-16.847-10.354-16.769-10.479      c0.008-0.013,17.087,7.396,17.087,7.396s-17.317-10.228-17.051-10.654c0,0,17.218,8.131,17.551,7.598      c0.305-0.489-18.18-11.295-18.151-11.342c0.285-0.456,17.187,6.171,17.264,6.048c0,0-16.539-10.138-16.45-10.279      c0.179-0.287,16.896,7.166,16.896,7.166c0.288-0.461-16.988-10.16-16.783-10.487c0.083-0.132,15.962,5.36,15.962,5.36      l-15.182-9.486c0,0,15.324,6.13,15.548,5.773c0.111-0.179-15.606-9.211-15.363-9.6c0.159-0.254,15.995,5.049,15.995,5.049      s-16.483-9.831-16.272-10.168l17.31,6.348c0.176-0.281-15.93-9.268-15.622-9.761c0.163-0.262,15.45,6.501,15.45,6.501      s-15.303-8.819-14.969-9.354c0.082-0.131,15.904,6.955,16.174,6.522c0.113-0.181-15.699-9.81-15.699-9.81      c0.148-0.238,16.497,5.316,16.497,5.316s-16.041-9.483-15.798-9.872c0,0,16.832,5.817,16.961,5.61      c0.106-0.169-14.849-9.032-14.738-9.209c0.301-0.481,15.558,5.749,15.82,5.329c0.325-0.52-15.081-9.005-14.893-9.307      c0.213-0.341,15.49,6.514,15.624,6.3l-14.733-9.207c0.288-0.46,15.935,5.171,16.087,4.928l-14.454-9.032      c0.156-0.249,14.686,4.615,14.686,4.615s-12.909-7.512-12.66-7.911l14.087,5.654c0,0-13.219-8.115-13.154-8.22      c0.006-0.01,13.961,5.199,13.961,5.199c0.307-0.491-14.382-8.657-14.234-8.894c0.061-0.098,16.783,6.378,16.783,6.378      l-14.034-8.77c0.039-0.063,15.236,5.121,15.366,4.914l-14.016-8.758c0.276-0.441,14.152,5.434,14.159,5.423      c0.181-0.29-12.826-7.876-12.764-7.976c0.005-0.008,14.384,4.966,14.433,4.887c0.179-0.286-12.322-7.364-12.171-7.605      c0,0,13.87,4.677,13.938,4.569c0.17-0.273-13.562-8.178-13.429-8.391c0,0,15.33,5.517,15.429,5.358l-12.723-7.951      c0,0,14.747,6.024,14.864,5.836l-13.374-8.356c0.055-0.088,14.172,4.464,14.436,4.041L53.379,157.2      c0.273-0.437,14.46,6.179,14.642,5.888l-11.891-7.43c0,0,13.614,4.809,13.72,4.64l-13.164-8.226c0,0,14.846,5.904,15.088,5.516      c0.056-0.088-13.419-8.385-13.419-8.385l15.33,5.809l-12.544-7.838l15.391,5.038c0.174-0.278-13.654-8.054-13.439-8.398      l15.231,5.674l-12.587-7.865c0,0,13.594,4.976,13.611,4.949c0.283-0.453-13.171-8.063-13.096-8.183l16.147,5.575      c0.154-0.245-12.421-7.235-12.185-7.614c0.171-0.274,14.887,4.852,14.968,4.722l-13.28-8.299      c0.136-0.217,15.003,4.893,15.146,4.665l-12.978-8.109c0.209-0.334,16.619,6.597,16.948,6.069      c0.284-0.455-13.309-7.761-13.06-8.16c0.064-0.103,14.916,5.367,14.916,5.367l-13.91-8.692c0,0,16.514,5.911,16.798,5.456      c0,0-13.515-8.207-13.408-8.378c0.236-0.377,15.348,6.11,15.348,6.11c0.027-0.042-13.1-8.186-13.1-8.186l15.622,6.622      l-12.89-8.055c0.178-0.286,15.693,5.609,15.693,5.609c0.006-0.01-13.452-8.405-13.452-8.405l14.463,5.569      c0.206-0.33-13.322-8.325-13.322-8.325c0.044-0.071,17.276,6.597,17.276,6.597c0.214-0.343-14.235-8.896-14.235-8.896      s16.199,5.943,16.358,5.688c0,0-12.599-7.844-12.585-7.864c0.239-0.383,14.979,6.276,14.979,6.276s-12.985-7.502-12.71-7.942      c0.195-0.313,15.625,6.314,15.751,6.113c0.077-0.123-13.431-8.393-13.431-8.393c0.222-0.354,15.33,5.442,15.456,5.24      l-12.974-8.107c0,0,16.536,6.03,16.756,5.677l-12.696-7.933c0,0,15.939,6.085,15.996,5.995      c0.006-0.009-12.804-8.001-12.804-8.001s14.4,6.033,14.515,5.851l-13.524-8.451l15.951,6.231c0,0-12.361-7.535-12.276-7.671      c0,0,16.063,5.607,16.093,5.559l-12.241-7.649c0,0,15.941,5.15,16.083,4.922l-13.201-8.249l16.431,6.375l-13.903-8.688      l17.629,6.736c0.18-0.289-13.172-8.231-13.172-8.231c0.028-0.045,17.008,7.123,17.118,6.947l-14.85-9.279      c0,0,16.586,7.051,16.677,6.906l-13.573-8.481c0.111-0.178,18.079,6.381,18.079,6.381c0.096-0.154-14.413-9-14.41-9.004      c0.243-0.388,17.575,8.351,17.917,7.801c0.013-0.02-15.348-9.591-15.348-9.591s18.885,8.074,19.139,7.667      c0.095-0.151-14.946-9.339-14.946-9.339c0.042-0.067,18.344,7.801,18.344,7.801c0.313-0.501-15.266-9.539-15.266-9.539      c0.142-0.226,18.709,7.587,18.732,7.551c0.117-0.188-14.552-9.093-14.552-9.093c0.16-0.255,17.675,7.158,17.675,7.158      l-13.789-8.617c0,0,18.595,7.396,18.912,6.888l-15.066-9.415l19.759,7.915l-15.504-9.688c0.078-0.125,19.754,7.536,19.754,7.536      c0.295-0.472-16.145-10.088-16.145-10.088l20.479,8.318c0,0-15.901-9.443-15.679-9.797c0.137-0.219,19.714,9.227,19.714,9.227      c0.112-0.179-15.855-9.907-15.855-9.907s20.378,8.034,20.487,7.86l-15.888-9.927c0.185-0.296,19.503,8.757,19.503,8.757      c0.357-0.571-15.981-9.695-15.85-9.904c0.341-0.546,21.041,9.803,21.444,9.157c0,0-17.83-10.639-17.604-11      c0.258-0.413,21,9.462,21,9.462c0.379-0.606-17.335-10.833-17.335-10.833c0.201-0.321,20.167,9.369,20.167,9.369      s-17.012-10.122-16.784-10.488l22.913,9.872l-17.089-10.678l22.331,9.066c0,0-18.092-10.593-17.772-11.105      c0,0,22.924,11.425,23.091,11.158c0.054-0.086-18.849-11.693-18.811-11.755c0,0,24.108,10.185,24.185,10.062      c0,0-18.595-11.06-18.343-11.462l23.881,11.473c0.152-0.244-19.725-12.325-19.725-12.325l25.015,11.297      c0.432-0.691-19.41-12.129-19.41-12.129l25.216,11.444l-19.947-12.464c0.365-0.584,26.527,12.815,26.527,12.815      c0.462-0.739-21.054-13.156-21.054-13.156c0.262-0.42,25.317,12.3,25.317,12.3c0.343-0.549-21.987-13.739-21.987-13.739      c0.461-0.738,27.797,14.517,28.166,13.926c0.236-0.377-23.18-14.484-23.18-14.484c0.36-0.576,28.387,15.094,28.753,14.509      c0.161-0.258-24.088-15.052-24.088-15.052l31.343,15.641c0,0-25.933-15.339-25.544-15.961l32.905,15.899      c0,0-24.877-15.436-24.828-15.515c0,0,32.75,17.07,33,16.67c0,0-27.327-16.138-26.905-16.813l36.696,18.203l-29.962-18.723      c0,0,41.234,22.234,41.95,21.089c0,0-32.84-20.264-32.725-20.449c0.353-0.564,39.586,23.01,40.191,22.042      c0.016-0.025-35.692-20.811-35.022-21.884l48.485,26.039c0.799-1.279-40.156-24.637-39.952-24.964      c0.117-0.188,59.342,33.309,59.463,33.115c0.273-0.437-51.953-30.916-51.257-32.029" style="fill:none;stroke:#231F20;stroke-width:2;stroke-linecap:round;stroke-linejoin:round;"/><path d="M134.734,403.622      l-27.982-17.485c0,0,53.996,30.487,54.239,30.098c1.004-1.606-76.745-45.018-75.425-47.131l88.532,52.177      c0,0-100.604-58.251-98.531-61.569c0,0,117.499,68.493,117.613,68.31L65.47,348.218c0.823-1.316,135.98,81.814,135.98,81.814      l-142.175-88.84c2.009-3.215,149.185,94.207,151.232,90.93l-59.797-37.365c0,0,67.964,41.847,69.226,39.827      c0,0-48.323-29.815-48.152-30.089c0.095-0.152,56.044,32.593,56.71,31.528c0,0-42.683-24.733-41.812-26.127l51.621,28.001      c0,0-37.259-22.271-36.805-22.998l42.517,23.282c0.346-0.555-34.314-21.441-34.314-21.441      c0.51-0.816,42.535,22.822,42.535,22.822s-33.278-20.112-32.971-20.603l41.253,20.642c0,0-30.322-17.863-29.834-18.643      c0,0,35.484,19.568,35.962,18.802c0,0-27.97-17.307-27.893-17.43l35.749,18.104c0,0-27.611-16.038-27.065-16.912      c0,0,33.673,18.183,34.278,17.216c0.396-0.634-26.14-16.334-26.14-16.334l31.109,16.047      c0.377-0.604-24.928-15.577-24.928-15.577l32.522,15.339l-24.938-15.583c0.46-0.737,30.743,14.159,30.743,14.159l-21.486-13.427      c0.576-0.921,27.905,13.689,27.921,13.664c0.29-0.464-23.058-13.388-22.6-14.122c0.352-0.562,26.16,13.645,26.461,13.164      c0,0-21.589-12.512-21.149-13.215c0.314-0.504,25.781,12.962,25.781,12.962c0.049-0.077-21.263-13.286-21.263-13.286      c0.514-0.82,27.446,12.481,27.446,12.481c0.405-0.648-21.146-12.803-20.961-13.099c0.008-0.012,26.4,11.685,26.4,11.685      L306,422.703c0.325-0.52,26.261,11.865,26.261,11.865s-19.615-12.211-19.595-12.244c0,0,22.98,10.924,23.16,10.636      c0.128-0.205-19.076-11.921-19.076-11.921c0.183-0.293,25.414,11.414,25.701,10.953c0.422-0.674-19.071-11.917-19.071-11.917      s24.098,10.548,24.204,10.377c0,0-20.168-11.882-19.844-12.4c0.027-0.043,24.122,10.177,24.122,10.177      c0.032-0.052-17.623-11.012-17.623-11.012l20.769,9.457l-17.691-11.055c0.025-0.04,22.395,10.461,22.395,10.461      c0.262-0.419-17.842-11.001-17.775-11.107l21.691,10.118c0.295-0.473-18.766-11.727-18.766-11.727l21.623,9.348      c0.069-0.111-17.76-11.098-17.76-11.098l21.538,9.131c0,0-16.672-9.736-16.365-10.226c0.425-0.681,21.664,9.067,21.664,9.067      c0.251-0.401-17.891-10.663-17.658-11.034c0.016-0.025,20.267,9.479,20.542,9.039c0,0-16.976-10.375-16.871-10.542      c0.388-0.62,21.809,8.52,21.809,8.52s-17.785-11.048-17.756-11.095c0.183-0.292,21.516,8.91,21.793,8.467      c0.047-0.074-17.077-10.221-16.875-10.544c0.077-0.123,19.45,8.796,19.45,8.796s-16.553-9.641-16.237-10.146l19.551,8.043      c0.286-0.457-15.355-8.92-15.052-9.405l18.488,7.745l-16.489-10.305l19.885,7.56c0,0-15.026-8.853-14.785-9.239      c0,0,17.966,7.74,18.282,7.233c0,0-15.185-9.284-15.093-9.431l18.134,6.383c0.224-0.357-14.347-8.719-14.235-8.896l16.946,6.997      l-15.722-9.824c0,0,18.426,8.432,18.695,7.999c0.261-0.418-15.469-9.666-15.469-9.666c0.148-0.237,17.83,7.808,17.83,7.808      s-15.377-9.264-15.222-9.512c0,0,18.885,8.159,19.178,7.69l-15.866-9.914l17.871,7.886c0.141-0.227-16.041-10.023-16.041-10.023      l17.686,6.534l-14.884-9.3l17.888,6.809c0,0-14.207-8.504-14.039-8.772c0.043-0.069,17.604,7.447,17.604,7.447      s-16.438-9.638-16.153-10.094c0,0,18.389,7.144,18.65,6.726c0.185-0.296-14.5-9.061-14.5-9.061s16.478,6.264,16.771,5.794      c0.08-0.128-14.455-8.908-14.399-8.997c0.279-0.447,16.57,5.815,16.578,5.803l-14.444-9.026      c0.253-0.404,16.19,7.202,16.446,6.792c0.252-0.403-13.761-8.002-13.492-8.432l16.217,5.622c0,0-15.271-8.845-14.958-9.346      c0.181-0.289,17.142,8.262,17.459,7.755c0,0-15.577-9.409-15.432-9.643c0.229-0.365,17.188,5.717,17.188,5.717      s-14.279-8.811-14.229-8.892c0,0,16.848,7.655,17.072,7.296l-15.997-9.996l18.122,6.948c0.066-0.104-14.49-9.055-14.49-9.055      c0.178-0.285,16.754,5.358,16.754,5.358c0.279-0.446-15.891-9.209-15.567-9.727c0.358-0.573,18.366,7.083,18.366,7.083      l-15.304-9.563c0.1-0.16,16.251,6.84,16.251,6.84c0.201-0.321-15.547-9.716-15.547-9.716c0.282-0.453,16.651,5.893,16.651,5.893      s-14.391-8.337-14.096-8.809c0.238-0.382,16.461,6.313,16.728,5.885c0.315-0.504-14.988-8.937-14.796-9.245      c0.172-0.274,16.947,6.665,17.239,6.197c0.082-0.132-14.979-9.359-14.979-9.359c0.239-0.384,16.139,5.325,16.139,5.325      l-15.194-9.494c0.281-0.45,18.143,6.218,18.143,6.218l-15.508-9.69l16.231,6.983c0.036-0.057-15.438-9.646-15.438-9.646      c0.175-0.279,16.907,7.234,16.907,7.234l-15.866-9.914l17.117,7.488c0.043-0.069-15.138-8.82-14.851-9.279l15.264,4.451      c0,0-14.474-8.686-14.313-8.943c0.224-0.358,16.52,7.03,16.555,6.974c0.203-0.325-16.122-10.074-16.122-10.074      c0.292-0.466,16.071,6.276,16.37,5.798c0.195-0.313-14.083-8.199-13.813-8.631c0.187-0.3,15.545,5.49,15.545,5.49l-15.474-9.669      l16.908,7.139l-15.358-9.597c0,0,16.833,6.501,17.134,6.021c0,0-16.267-9.554-15.992-9.993c0,0,16.296,5.188,16.377,5.059      c0.05-0.08-15.22-8.803-14.902-9.312l15.162,5.854c0,0-14.378-8.937-14.356-8.971c0,0,14.869,6.729,15.129,6.314      c0,0-15.826-9.225-15.527-9.703c0,0,17.145,6.705,17.381,6.328c0,0-16.752-10.027-16.554-10.345c0,0,17.491,6.544,17.684,6.236      c0,0-16.437-9.869-16.257-10.158c0.054-0.086,17.386,7.595,17.399,7.572l-16.427-10.265c0.024-0.038,15.741,6.584,15.741,6.584      c0.214-0.342-15.265-9.205-15.115-9.445l16.994,5.683c0,0-17.581-10.944-17.563-10.975l18.171,7.09      c0.137-0.218-16.872-9.971-16.615-10.382c0.135-0.216,15.84,6.79,16.067,6.427l-15.663-9.787      c0.293-0.471,15.688,6.039,15.835,5.804c0,0-15.583-9.688-15.561-9.724l16.605,6.971l-16.727-10.452      c0.225-0.359,17.249,6.338,17.309,6.243c0.302-0.483-17.499-10.567-17.334-10.832c0.169-0.271,16.183,6.962,16.274,6.816      l-16.861-10.536c0.114-0.183,18.536,6.495,18.536,6.495c0.286-0.458-18.452-11.53-18.452-11.53s17.313,6.231,17.518,5.904      c0,0-18.01-10.934-17.866-11.164c0.196-0.313,18.176,7.117,18.176,7.117s-18.031-10.963-17.895-11.182      c0,0,16.732,7.646,17.04,7.154l-17.905-11.188c0.075-0.12,17.598,8.031,17.698,7.871c0.258-0.413-17.628-10.622-17.452-10.904      c0,0,18.465,7.088,18.584,6.897c0,0-19.402-11.824-19.268-12.04c0.08-0.129,17.945,6.466,18.046,6.305      c0,0-19.513-11.767-19.321-12.073l18.166,8.057l-19.336-12.083l20.346,9.646c0.247-0.396-20.535-12.832-20.535-12.832      c0.012-0.02,18.649,7.829,18.649,7.829s-20.515-12.404-20.328-12.702c0.295-0.472,19.825,7.652,19.825,7.652      c0.43-0.687-21.592-13.492-21.592-13.492c0.107-0.171,20.866,9.051,20.866,9.051c0.478-0.765-21.705-13.563-21.705-13.563      l19.823,7.66c0,0-22.919-13.607-22.599-14.121c0.36-0.576,21.68,9.369,21.68,9.369c0.286-0.457-22.985-13.464-22.581-14.11      c0.331-0.53,21.666,9.206,21.84,8.928c0.534-0.854-24.109-15.064-24.109-15.064s20.913,9.269,21.211,8.792      c0.468-0.749-24.365-15.225-24.365-15.225c0.413-0.661,22.777,9.59,22.997,9.238c0.567-0.909-27.611-17.253-27.611-17.253      c0.514-0.82,24.863,12.526,24.928,12.421c0.219-0.35-27.09-16.928-27.09-16.928l25.149,10.96l-30.921-19.322l27.908,13.345      c0,0-33.053-19.204-32.401-20.247c0.056-0.089,28.426,12.988,28.514,12.847c0.447-0.715-36.398-21.647-35.905-22.436      c0.154-0.246,31.224,14.655,31.224,14.655s-42.429-24.519-41.532-25.952c0.552-0.884,38.665,22.379,39.318,21.333      c0.13-0.207-50.647-31.648-50.647-31.648c0.865-1.384,45.91,25.118,45.91,25.118S312.148,47.229,314.049,44.188      c0.135-0.217,131.139,77.825,131.139,77.825s-122.301-70.968-119.85-74.891l114.531,68.083c0,0-106.785-64.754-105.899-66.173      l97.57,57.286L344.932,52.2c1.153-1.845,76.109,43.588,76.109,43.588c1.107-1.772-61.716-37.978-61.452-38.4      c0.684-1.095,44.274,24.591,44.289,24.569l-22.653-14.155" style="fill:none;stroke:#231F20;stroke-width:2;stroke-linecap:round;stroke-linejoin:round;"/><path d="M166.88,278.923      l-12.463-7.788c0,0,24.334,11.646,24.44,11.478c0.423-0.677-31.98-18.746-31.424-19.636l37.41,20.231      c0,0-41.285-23.88-40.423-25.259c0,0,50.305,26.356,50.353,26.28l-51.898-32.43c0.331-0.529,55.468,31.504,55.468,31.504      l-57.174-35.726c0.799-1.279,60.293,35.919,61.108,34.615l-61.412-38.374c0,0,65.395,40.132,66.608,38.191      c0,0-66.114-40.793-65.88-41.167c0.118-0.188,68.811,40.917,69.633,39.602c0,0-71.286-41.301-69.828-43.633l74.757,42.458      c0,0-73.652-44.031-72.757-45.463l74.822,43.469c0.75-1.199-74.655-46.65-74.655-46.65c0.961-1.537,78.776,45.468,78.776,45.468      s-78.206-47.249-77.478-48.413l80.345,45.069c0,0-79.958-47.113-78.677-49.163c0,0,79.862,48.69,80.967,46.924      c0,0-79.078-48.939-78.865-49.281l82.459,47.292c0,0-81.532-47.379-79.929-49.944c0,0,81.288,49.935,82.791,47.53      c1.218-1.95-80.276-50.162-80.276-50.162l81.957,47.82c1.191-1.906-79.515-49.687-79.515-49.687l81.961,46.23l-79.455-49.649      c1.25-2,80.099,45.001,80.099,45.001l-75.198-46.989c1.659-2.656,77.563,44.787,77.609,44.712      c0.957-1.531-76.375-44.361-74.863-46.779c1.033-1.653,74.351,45.053,75.233,43.64c0,0-73.458-42.679-72.01-44.997      c0.921-1.474,73.061,42.506,73.061,42.506c0.157-0.251-70.09-43.797-70.09-43.797c1.384-2.214,70.979,39.683,70.979,39.683      c1.271-2.035-66.827-40.47-66.248-41.396c0.02-0.032,65.823,36.319,65.823,36.319l-61.017-38.128      c0.782-1.251,60.756,33.42,60.756,33.42s-54.323-33.82-54.267-33.91c0,0,51.886,29.523,52.308,28.848      c0.31-0.497-47.454-29.652-47.454-29.652c0.335-0.536,44.969,24.164,45.495,23.322c0.795-1.273-36.263-22.66-36.263-22.66      s28.701,13.473,28.83,13.267c0,0-17.867-10.529-17.582-10.986" style="fill:none;stroke:#231F20;stroke-width:2;stroke-linecap:round;stroke-linejoin:round;"/><path d="M297.988,281.239      l-12.844-8.025c0,0,25.03,12.09,25.14,11.915c0.444-0.71-33.575-19.682-32.992-20.616l39.123,21.303      c0,0-43.408-25.111-42.504-26.56c0,0,52.487,27.726,52.537,27.646l-54.685-34.17c0.348-0.556,58.167,33.191,58.167,33.191      l-60.149-37.585c0.839-1.342,63.144,37.787,63.998,36.419l-64.571-40.348c0,0,68.406,42.142,69.676,40.108      c0,0-69.57-42.927-69.325-43.319c0.124-0.197,72.091,43.056,72.953,41.677c0,0-75.049-43.481-73.515-45.937l78.29,44.666      c0,0-77.402-46.274-76.462-47.779l78.383,45.694c0.787-1.26-78.48-49.04-78.48-49.04c1.007-1.61,82.448,47.762,82.448,47.762      s-82.115-49.61-81.351-50.833l83.986,47.345c0,0-83.957-49.469-82.611-51.622c0,0,83.559,51.117,84.715,49.267      c0,0-83.024-51.382-82.801-51.74l86.184,49.619c0,0-85.525-49.701-83.844-52.391c0,0,84.916,52.354,86.487,49.839      c1.275-2.042-84.087-52.542-84.087-52.542l85.579,50.083c1.247-1.996-83.287-52.043-83.287-52.043l85.433,48.4l-83.097-51.924      c1.304-2.085,83.432,47.083,83.432,47.083l-78.68-49.165c1.73-2.77,80.814,46.822,80.862,46.745      c0.999-1.598-79.799-46.351-78.22-48.877c1.075-1.722,77.424,47.057,78.344,45.585c0,0-76.711-44.57-75.199-46.989      c0.96-1.536,76.055,44.376,76.055,44.376c0.163-0.262-73.171-45.723-73.171-45.723c1.44-2.306,73.84,41.471,73.84,41.471      c1.328-2.125-69.799-42.269-69.193-43.237c0.021-0.033,68.351,37.898,68.351,37.898l-63.598-39.74      c0.812-1.298,62.937,34.783,62.937,34.783s-56.501-35.176-56.442-35.269c0,0,53.616,30.636,54.052,29.939      c0.321-0.514-49.094-30.678-49.094-30.678c0.342-0.546,45.743,24.669,46.279,23.812c0.811-1.298-36.986-23.111-36.986-23.111      s28.622,13.422,28.75,13.217c0,0-16.73-9.861-16.464-10.288" style="fill:none;stroke:#231F20;stroke-width:2;stroke-linecap:round;stroke-linejoin:round;"/></g><g><path d="M117.396,374.506      l-61.833-38.638c0.73-1.168,40.529,21.08,40.529,21.08c0.023-0.037-45.072-28.164-45.072-28.164      c0.1-0.16,35.723,20.24,36.268,19.369l-40.46-25.283l32.178,16.628c0,0-34.536-20.952-34.253-21.404      c0.244-0.39,27.893,12.804,27.893,12.804l-31.176-19.481c0.383-0.613,24.412,11.199,24.682,10.766l-28.746-17.963      c0.474-0.758,25.952,13.047,26.22,12.617l-26.96-16.847l22.687,9.777c0.212-0.339-25.98-16.234-25.98-16.234      c0.142-0.227,22.001,9.038,22.001,9.038l-23.668-14.79l22.033,9.45c0.241-0.386-23.777-14.857-23.777-14.857      s21.719,9.975,21.746,9.932c0,0-22.489-13.028-22.029-13.765c0,0,20.39,7.722,20.401,7.703      c0.145-0.231-21.75-13.591-21.75-13.591c0.302-0.484,19,7.617,19.116,7.431l-18.828-11.766l18.799,8.188      c0.085-0.137-20.36-12.196-20.124-12.575c0.313-0.501,17.957,7.714,18.262,7.225l-17.898-11.184      c0.048-0.076,18.119,6.96,18.119,6.96s-18.848-11.733-18.828-11.765c0,0,18.212,8.321,18.537,7.801      c0.125-0.199-19.078-11.562-18.916-11.82c0.065-0.104,17.191,7.099,17.191,7.099s-16.847-10.354-16.769-10.479      c0.008-0.013,17.087,7.396,17.087,7.396s-17.317-10.228-17.051-10.654c0,0,17.218,8.131,17.551,7.598      c0.305-0.489-18.18-11.295-18.151-11.342c0.285-0.456,17.187,6.171,17.264,6.048c0,0-16.539-10.138-16.45-10.279      c0.179-0.287,16.896,7.166,16.896,7.166c0.288-0.461-16.988-10.16-16.783-10.487c0.083-0.132,15.962,5.36,15.962,5.36      l-15.182-9.486c0,0,15.324,6.13,15.548,5.773c0.111-0.179-15.606-9.211-15.363-9.6c0.159-0.254,15.995,5.049,15.995,5.049      s-16.483-9.831-16.272-10.168l17.31,6.348c0.176-0.281-15.93-9.268-15.622-9.761c0.163-0.262,15.45,6.501,15.45,6.501      s-15.303-8.819-14.969-9.354c0.082-0.131,15.904,6.955,16.174,6.522c0.113-0.181-15.699-9.81-15.699-9.81      c0.148-0.238,16.497,5.316,16.497,5.316s-16.041-9.483-15.798-9.872c0,0,16.832,5.817,16.961,5.61      c0.106-0.169-14.849-9.032-14.738-9.209c0.301-0.481,15.558,5.749,15.82,5.329c0.325-0.52-15.081-9.005-14.893-9.307      c0.213-0.341,15.49,6.514,15.624,6.3l-14.733-9.207c0.288-0.46,15.935,5.171,16.087,4.928l-14.454-9.032      c0.156-0.249,14.686,4.615,14.686,4.615s-12.909-7.512-12.66-7.911l14.087,5.654c0,0-13.219-8.115-13.154-8.22      c0.006-0.01,13.961,5.199,13.961,5.199c0.307-0.491-14.382-8.657-14.234-8.894c0.061-0.098,16.783,6.378,16.783,6.378      l-14.034-8.77c0.039-0.063,15.236,5.121,15.366,4.914l-14.016-8.758c0.276-0.441,14.152,5.434,14.159,5.423      c0.181-0.29-12.826-7.876-12.764-7.976c0.005-0.008,14.384,4.966,14.433,4.887c0.179-0.286-12.322-7.364-12.171-7.605      c0,0,13.87,4.677,13.938,4.569c0.17-0.273-13.562-8.178-13.429-8.391c0,0,15.33,5.517,15.429,5.358l-12.723-7.951      c0,0,14.747,6.024,14.864,5.836l-13.374-8.356c0.055-0.088,14.172,4.464,14.436,4.041L53.379,157.2      c0.273-0.437,14.46,6.179,14.642,5.888l-11.891-7.43c0,0,13.614,4.809,13.72,4.64l-13.164-8.226c0,0,14.846,5.904,15.088,5.516      c0.056-0.088-13.419-8.385-13.419-8.385l15.33,5.809l-12.544-7.838l15.391,5.038c0.174-0.278-13.654-8.054-13.439-8.398      l15.231,5.674l-12.587-7.865c0,0,13.594,4.976,13.611,4.949c0.283-0.453-13.171-8.063-13.096-8.183l16.147,5.575      c0.154-0.245-12.421-7.235-12.185-7.614c0.171-0.274,14.887,4.852,14.968,4.722l-13.28-8.299      c0.136-0.217,15.003,4.893,15.146,4.665l-12.978-8.109c0.209-0.334,16.619,6.597,16.948,6.069      c0.284-0.455-13.309-7.761-13.06-8.16c0.064-0.103,14.916,5.367,14.916,5.367l-13.91-8.692c0,0,16.514,5.911,16.798,5.456      c0,0-13.515-8.207-13.408-8.378c0.236-0.377,15.348,6.11,15.348,6.11c0.027-0.042-13.1-8.186-13.1-8.186l15.622,6.622      l-12.89-8.055c0.178-0.286,15.693,5.609,15.693,5.609c0.006-0.01-13.452-8.405-13.452-8.405l14.463,5.569      c0.206-0.33-13.322-8.325-13.322-8.325c0.044-0.071,17.276,6.597,17.276,6.597c0.214-0.343-14.235-8.896-14.235-8.896      s16.199,5.943,16.358,5.688c0,0-12.599-7.844-12.585-7.864c0.239-0.383,14.979,6.276,14.979,6.276s-12.985-7.502-12.71-7.942      c0.195-0.313,15.625,6.314,15.751,6.113c0.077-0.123-13.431-8.393-13.431-8.393c0.222-0.354,15.33,5.442,15.456,5.24      l-12.974-8.107c0,0,16.536,6.03,16.756,5.677l-12.696-7.933c0,0,15.939,6.085,15.996,5.995      c0.006-0.009-12.804-8.001-12.804-8.001s14.4,6.033,14.515,5.851l-13.524-8.451l15.951,6.231c0,0-12.361-7.535-12.276-7.671      c0,0,16.063,5.607,16.093,5.559l-12.241-7.649c0,0,15.941,5.15,16.083,4.922l-13.201-8.249l16.431,6.375l-13.903-8.688      l17.629,6.736c0.18-0.289-13.172-8.231-13.172-8.231c0.028-0.045,17.008,7.123,17.118,6.947l-14.85-9.279      c0,0,16.586,7.051,16.677,6.906l-13.573-8.481c0.111-0.178,18.079,6.381,18.079,6.381c0.096-0.154-14.413-9-14.41-9.004      c0.243-0.388,17.575,8.351,17.917,7.801c0.013-0.02-15.348-9.591-15.348-9.591s18.885,8.074,19.139,7.667      c0.095-0.151-14.946-9.339-14.946-9.339c0.042-0.067,18.344,7.801,18.344,7.801c0.313-0.501-15.266-9.539-15.266-9.539      c0.142-0.226,18.709,7.587,18.732,7.551c0.117-0.188-14.552-9.093-14.552-9.093c0.16-0.255,17.675,7.158,17.675,7.158      l-13.789-8.617c0,0,18.595,7.396,18.912,6.888l-15.066-9.415l19.759,7.915l-15.504-9.688c0.078-0.125,19.754,7.536,19.754,7.536      c0.295-0.472-16.145-10.088-16.145-10.088l20.479,8.318c0,0-15.901-9.443-15.679-9.797c0.137-0.219,19.714,9.227,19.714,9.227      c0.112-0.179-15.855-9.907-15.855-9.907s20.378,8.034,20.487,7.86l-15.888-9.927c0.185-0.296,19.503,8.757,19.503,8.757      c0.357-0.571-15.981-9.695-15.85-9.904c0.341-0.546,21.041,9.803,21.444,9.157c0,0-17.83-10.639-17.604-11      c0.258-0.413,21,9.462,21,9.462c0.379-0.606-17.335-10.833-17.335-10.833c0.201-0.321,20.167,9.369,20.167,9.369      s-17.012-10.122-16.784-10.488l22.913,9.872l-17.089-10.678l22.331,9.066c0,0-18.092-10.593-17.772-11.105      c0,0,22.924,11.425,23.091,11.158c0.054-0.086-18.849-11.693-18.811-11.755c0,0,24.108,10.185,24.185,10.062      c0,0-18.595-11.06-18.343-11.462l23.881,11.473c0.152-0.244-19.725-12.325-19.725-12.325l25.015,11.297      c0.432-0.691-19.41-12.129-19.41-12.129l25.216,11.444l-19.947-12.464c0.365-0.584,26.527,12.815,26.527,12.815      c0.462-0.739-21.054-13.156-21.054-13.156c0.262-0.42,25.317,12.3,25.317,12.3c0.343-0.549-21.987-13.739-21.987-13.739      c0.461-0.738,27.797,14.517,28.166,13.926c0.236-0.377-23.18-14.484-23.18-14.484c0.36-0.576,28.387,15.094,28.753,14.509      c0.161-0.258-24.088-15.052-24.088-15.052l31.343,15.641c0,0-25.933-15.339-25.544-15.961l32.905,15.899      c0,0-24.877-15.436-24.828-15.515c0,0,32.75,17.07,33,16.67c0,0-27.327-16.138-26.905-16.813l36.696,18.203l-29.962-18.723      c0,0,41.234,22.234,41.95,21.089c0,0-32.84-20.264-32.725-20.449c0.353-0.564,39.586,23.01,40.191,22.042      c0.016-0.025-35.692-20.811-35.022-21.884l48.485,26.039c0.799-1.279-40.156-24.637-39.952-24.964      c0.117-0.188,59.342,33.309,59.463,33.115c0.273-0.437-51.953-30.916-51.257-32.029" style="fill:none;stroke:#262626;stroke-width:2;stroke-linecap:round;stroke-linejoin:round;"/><path d="M134.734,403.622      l-27.982-17.485c0,0,53.996,30.487,54.239,30.098c1.004-1.606-76.745-45.018-75.425-47.131l88.532,52.177      c0,0-100.604-58.251-98.531-61.569c0,0,117.499,68.493,117.613,68.31L65.47,348.218c0.823-1.316,135.98,81.814,135.98,81.814      l-142.175-88.84c2.009-3.215,149.185,94.207,151.232,90.93l-59.797-37.365c0,0,67.964,41.847,69.226,39.827      c0,0-48.323-29.815-48.152-30.089c0.095-0.152,56.044,32.593,56.71,31.528c0,0-42.683-24.733-41.812-26.127l51.621,28.001      c0,0-37.259-22.271-36.805-22.998l42.517,23.282c0.346-0.555-34.314-21.441-34.314-21.441      c0.51-0.816,42.535,22.822,42.535,22.822s-33.278-20.112-32.971-20.603l41.253,20.642c0,0-30.322-17.863-29.834-18.643      c0,0,35.484,19.568,35.962,18.802c0,0-27.97-17.307-27.893-17.43l35.749,18.104c0,0-27.611-16.038-27.065-16.912      c0,0,33.673,18.183,34.278,17.216c0.396-0.634-26.14-16.334-26.14-16.334l31.109,16.047      c0.377-0.604-24.928-15.577-24.928-15.577l32.522,15.339l-24.938-15.583c0.46-0.737,30.743,14.159,30.743,14.159l-21.486-13.427      c0.576-0.921,27.905,13.689,27.921,13.664c0.29-0.464-23.058-13.388-22.6-14.122c0.352-0.562,26.16,13.645,26.461,13.164      c0,0-21.589-12.512-21.149-13.215c0.314-0.504,25.781,12.962,25.781,12.962c0.049-0.077-21.263-13.286-21.263-13.286      c0.514-0.82,27.446,12.481,27.446,12.481c0.405-0.648-21.146-12.803-20.961-13.099c0.008-0.012,26.4,11.685,26.4,11.685      L306,422.703c0.325-0.52,26.261,11.865,26.261,11.865s-19.615-12.211-19.595-12.244c0,0,22.98,10.924,23.16,10.636      c0.128-0.205-19.076-11.921-19.076-11.921c0.183-0.293,25.414,11.414,25.701,10.953c0.422-0.674-19.071-11.917-19.071-11.917      s24.098,10.548,24.204,10.377c0,0-20.168-11.882-19.844-12.4c0.027-0.043,24.122,10.177,24.122,10.177      c0.032-0.052-17.623-11.012-17.623-11.012l20.769,9.457l-17.691-11.055c0.025-0.04,22.395,10.461,22.395,10.461      c0.262-0.419-17.842-11.001-17.775-11.107l21.691,10.118c0.295-0.473-18.766-11.727-18.766-11.727l21.623,9.348      c0.069-0.111-17.76-11.098-17.76-11.098l21.538,9.131c0,0-16.672-9.736-16.365-10.226c0.425-0.681,21.664,9.067,21.664,9.067      c0.251-0.401-17.891-10.663-17.658-11.034c0.016-0.025,20.267,9.479,20.542,9.039c0,0-16.976-10.375-16.871-10.542      c0.388-0.62,21.809,8.52,21.809,8.52s-17.785-11.048-17.756-11.095c0.183-0.292,21.516,8.91,21.793,8.467      c0.047-0.074-17.077-10.221-16.875-10.544c0.077-0.123,19.45,8.796,19.45,8.796s-16.553-9.641-16.237-10.146l19.551,8.043      c0.286-0.457-15.355-8.92-15.052-9.405l18.488,7.745l-16.489-10.305l19.885,7.56c0,0-15.026-8.853-14.785-9.239      c0,0,17.966,7.74,18.282,7.233c0,0-15.185-9.284-15.093-9.431l18.134,6.383c0.224-0.357-14.347-8.719-14.235-8.896l16.946,6.997      l-15.722-9.824c0,0,18.426,8.432,18.695,7.999c0.261-0.418-15.469-9.666-15.469-9.666c0.148-0.237,17.83,7.808,17.83,7.808      s-15.377-9.264-15.222-9.512c0,0,18.885,8.159,19.178,7.69l-15.866-9.914l17.871,7.886c0.141-0.227-16.041-10.023-16.041-10.023      l17.686,6.534l-14.884-9.3l17.888,6.809c0,0-14.207-8.504-14.039-8.772c0.043-0.069,17.604,7.447,17.604,7.447      s-16.438-9.638-16.153-10.094c0,0,18.389,7.144,18.65,6.726c0.185-0.296-14.5-9.061-14.5-9.061s16.478,6.264,16.771,5.794      c0.08-0.128-14.455-8.908-14.399-8.997c0.279-0.447,16.57,5.815,16.578,5.803l-14.444-9.026      c0.253-0.404,16.19,7.202,16.446,6.792c0.252-0.403-13.761-8.002-13.492-8.432l16.217,5.622c0,0-15.271-8.845-14.958-9.346      c0.181-0.289,17.142,8.262,17.459,7.755c0,0-15.577-9.409-15.432-9.643c0.229-0.365,17.188,5.717,17.188,5.717      s-14.279-8.811-14.229-8.892c0,0,16.848,7.655,17.072,7.296l-15.997-9.996l18.122,6.948c0.066-0.104-14.49-9.055-14.49-9.055      c0.178-0.285,16.754,5.358,16.754,5.358c0.279-0.446-15.891-9.209-15.567-9.727c0.358-0.573,18.366,7.083,18.366,7.083      l-15.304-9.563c0.1-0.16,16.251,6.84,16.251,6.84c0.201-0.321-15.547-9.716-15.547-9.716c0.282-0.453,16.651,5.893,16.651,5.893      s-14.391-8.337-14.096-8.809c0.238-0.382,16.461,6.313,16.728,5.885c0.315-0.504-14.988-8.937-14.796-9.245      c0.172-0.274,16.947,6.665,17.239,6.197c0.082-0.132-14.979-9.359-14.979-9.359c0.239-0.384,16.139,5.325,16.139,5.325      l-15.194-9.494c0.281-0.45,18.143,6.218,18.143,6.218l-15.508-9.69l16.231,6.983c0.036-0.057-15.438-9.646-15.438-9.646      c0.175-0.279,16.907,7.234,16.907,7.234l-15.866-9.914l17.117,7.488c0.043-0.069-15.138-8.82-14.851-9.279l15.264,4.451      c0,0-14.474-8.686-14.313-8.943c0.224-0.358,16.52,7.03,16.555,6.974c0.203-0.325-16.122-10.074-16.122-10.074      c0.292-0.466,16.071,6.276,16.37,5.798c0.195-0.313-14.083-8.199-13.813-8.631c0.187-0.3,15.545,5.49,15.545,5.49l-15.474-9.669      l16.908,7.139l-15.358-9.597c0,0,16.833,6.501,17.134,6.021c0,0-16.267-9.554-15.992-9.993c0,0,16.296,5.188,16.377,5.059      c0.05-0.08-15.22-8.803-14.902-9.312l15.162,5.854c0,0-14.378-8.937-14.356-8.971c0,0,14.869,6.729,15.129,6.314      c0,0-15.826-9.225-15.527-9.703c0,0,17.145,6.705,17.381,6.328c0,0-16.752-10.027-16.554-10.345c0,0,17.491,6.544,17.684,6.236      c0,0-16.437-9.869-16.257-10.158c0.054-0.086,17.386,7.595,17.399,7.572l-16.427-10.265c0.024-0.038,15.741,6.584,15.741,6.584      c0.214-0.342-15.265-9.205-15.115-9.445l16.994,5.683c0,0-17.581-10.944-17.563-10.975l18.171,7.09      c0.137-0.218-16.872-9.971-16.615-10.382c0.135-0.216,15.84,6.79,16.067,6.427l-15.663-9.787      c0.293-0.471,15.688,6.039,15.835,5.804c0,0-15.583-9.688-15.561-9.724l16.605,6.971l-16.727-10.452      c0.225-0.359,17.249,6.338,17.309,6.243c0.302-0.483-17.499-10.567-17.334-10.832c0.169-0.271,16.183,6.962,16.274,6.816      l-16.861-10.536c0.114-0.183,18.536,6.495,18.536,6.495c0.286-0.458-18.452-11.53-18.452-11.53s17.313,6.231,17.518,5.904      c0,0-18.01-10.934-17.866-11.164c0.196-0.313,18.176,7.117,18.176,7.117s-18.031-10.963-17.895-11.182      c0,0,16.732,7.646,17.04,7.154l-17.905-11.188c0.075-0.12,17.598,8.031,17.698,7.871c0.258-0.413-17.628-10.622-17.452-10.904      c0,0,18.465,7.088,18.584,6.897c0,0-19.402-11.824-19.268-12.04c0.08-0.129,17.945,6.466,18.046,6.305      c0,0-19.513-11.767-19.321-12.073l18.166,8.057l-19.336-12.083l20.346,9.646c0.247-0.396-20.535-12.832-20.535-12.832      c0.012-0.02,18.649,7.829,18.649,7.829s-20.515-12.404-20.328-12.702c0.295-0.472,19.825,7.652,19.825,7.652      c0.43-0.687-21.592-13.492-21.592-13.492c0.107-0.171,20.866,9.051,20.866,9.051c0.478-0.765-21.705-13.563-21.705-13.563      l19.823,7.66c0,0-22.919-13.607-22.599-14.121c0.36-0.576,21.68,9.369,21.68,9.369c0.286-0.457-22.985-13.464-22.581-14.11      c0.331-0.53,21.666,9.206,21.84,8.928c0.534-0.854-24.109-15.064-24.109-15.064s20.913,9.269,21.211,8.792      c0.468-0.749-24.365-15.225-24.365-15.225c0.413-0.661,22.777,9.59,22.997,9.238c0.567-0.909-27.611-17.253-27.611-17.253      c0.514-0.82,24.863,12.526,24.928,12.421c0.219-0.35-27.09-16.928-27.09-16.928l25.149,10.96l-30.921-19.322l27.908,13.345      c0,0-33.053-19.204-32.401-20.247c0.056-0.089,28.426,12.988,28.514,12.847c0.447-0.715-36.398-21.647-35.905-22.436      c0.154-0.246,31.224,14.655,31.224,14.655s-42.429-24.519-41.532-25.952c0.552-0.884,38.665,22.379,39.318,21.333      c0.13-0.207-50.647-31.648-50.647-31.648c0.865-1.384,45.91,25.118,45.91,25.118S312.148,47.229,314.049,44.188      c0.135-0.217,131.139,77.825,131.139,77.825s-122.301-70.968-119.85-74.891l114.531,68.083c0,0-106.785-64.754-105.899-66.173      l97.57,57.286L344.932,52.2c1.153-1.845,76.109,43.588,76.109,43.588c1.107-1.772-61.716-37.978-61.452-38.4      c0.684-1.095,44.274,24.591,44.289,24.569l-22.653-14.155" style="fill:none;stroke:#262626;stroke-width:2;stroke-linecap:round;stroke-linejoin:round;"/><path d="M166.88,278.923      l-12.463-7.788c0,0,24.334,11.646,24.44,11.478c0.423-0.677-31.98-18.746-31.424-19.636l37.41,20.231      c0,0-41.285-23.88-40.423-25.259c0,0,50.305,26.356,50.353,26.28l-51.898-32.43c0.331-0.529,55.468,31.504,55.468,31.504      l-57.174-35.726c0.799-1.279,60.293,35.919,61.108,34.615l-61.412-38.374c0,0,65.395,40.132,66.608,38.191      c0,0-66.114-40.793-65.88-41.167c0.118-0.188,68.811,40.917,69.633,39.602c0,0-71.286-41.301-69.828-43.633l74.757,42.458      c0,0-73.652-44.031-72.757-45.463l74.822,43.469c0.75-1.199-74.655-46.65-74.655-46.65c0.961-1.537,78.776,45.468,78.776,45.468      s-78.206-47.249-77.478-48.413l80.345,45.069c0,0-79.958-47.113-78.677-49.163c0,0,79.862,48.69,80.967,46.924      c0,0-79.078-48.939-78.865-49.281l82.459,47.292c0,0-81.532-47.379-79.929-49.944c0,0,81.288,49.935,82.791,47.53      c1.218-1.95-80.276-50.162-80.276-50.162l81.957,47.82c1.191-1.906-79.515-49.687-79.515-49.687l81.961,46.23l-79.455-49.649      c1.25-2,80.099,45.001,80.099,45.001l-75.198-46.989c1.659-2.656,77.563,44.787,77.609,44.712      c0.957-1.531-76.375-44.361-74.863-46.779c1.033-1.653,74.351,45.053,75.233,43.64c0,0-73.458-42.679-72.01-44.997      c0.921-1.474,73.061,42.506,73.061,42.506c0.157-0.251-70.09-43.797-70.09-43.797c1.384-2.214,70.979,39.683,70.979,39.683      c1.271-2.035-66.827-40.47-66.248-41.396c0.02-0.032,65.823,36.319,65.823,36.319l-61.017-38.128      c0.782-1.251,60.756,33.42,60.756,33.42s-54.323-33.82-54.267-33.91c0,0,51.886,29.523,52.308,28.848      c0.31-0.497-47.454-29.652-47.454-29.652c0.335-0.536,44.969,24.164,45.495,23.322c0.795-1.273-36.263-22.66-36.263-22.66      s28.701,13.473,28.83,13.267c0,0-17.867-10.529-17.582-10.986" style="fill:none;stroke:#262626;stroke-width:2;stroke-linecap:round;stroke-linejoin:round;"/><path d="M297.988,281.239      l-12.844-8.025c0,0,25.03,12.09,25.14,11.915c0.444-0.71-33.575-19.682-32.992-20.616l39.123,21.303      c0,0-43.408-25.111-42.504-26.56c0,0,52.487,27.726,52.537,27.646l-54.685-34.17c0.348-0.556,58.167,33.191,58.167,33.191      l-60.149-37.585c0.839-1.342,63.144,37.787,63.998,36.419l-64.571-40.348c0,0,68.406,42.142,69.676,40.108      c0,0-69.57-42.927-69.325-43.319c0.124-0.197,72.091,43.056,72.953,41.677c0,0-75.049-43.481-73.515-45.937l78.29,44.666      c0,0-77.402-46.274-76.462-47.779l78.383,45.694c0.787-1.26-78.48-49.04-78.48-49.04c1.007-1.61,82.448,47.762,82.448,47.762      s-82.115-49.61-81.351-50.833l83.986,47.345c0,0-83.957-49.469-82.611-51.622c0,0,83.559,51.117,84.715,49.267      c0,0-83.024-51.382-82.801-51.74l86.184,49.619c0,0-85.525-49.701-83.844-52.391c0,0,84.916,52.354,86.487,49.839      c1.275-2.042-84.087-52.542-84.087-52.542l85.579,50.083c1.247-1.996-83.287-52.043-83.287-52.043l85.433,48.4l-83.097-51.924      c1.304-2.085,83.432,47.083,83.432,47.083l-78.68-49.165c1.73-2.77,80.814,46.822,80.862,46.745      c0.999-1.598-79.799-46.351-78.22-48.877c1.075-1.722,77.424,47.057,78.344,45.585c0,0-76.711-44.57-75.199-46.989      c0.96-1.536,76.055,44.376,76.055,44.376c0.163-0.262-73.171-45.723-73.171-45.723c1.44-2.306,73.84,41.471,73.84,41.471      c1.328-2.125-69.799-42.269-69.193-43.237c0.021-0.033,68.351,37.898,68.351,37.898l-63.598-39.74      c0.812-1.298,62.937,34.783,62.937,34.783s-56.501-35.176-56.442-35.269c0,0,53.616,30.636,54.052,29.939      c0.321-0.514-49.094-30.678-49.094-30.678c0.342-0.546,45.743,24.669,46.279,23.812c0.811-1.298-36.986-23.111-36.986-23.111      s28.622,13.422,28.75,13.217c0,0-16.73-9.861-16.464-10.288" style="fill:none;stroke:#262626;stroke-width:2;stroke-linecap:round;stroke-linejoin:round;"/></g></g></g></g><g id="Layer_1"/></svg>