<?xml version="1.0" ?><!DOCTYPE svg  PUBLIC '-//W3C//DTD SVG 1.1//EN'  'http://www.w3.org/Graphics/SVG/1.1/DTD/svg11.dtd'><svg height="512px" style="enable-background:new 0 0 512 512;" version="1.1" viewBox="0 0 512 512" width="512px" xml:space="preserve" xmlns="http://www.w3.org/2000/svg" xmlns:xlink="http://www.w3.org/1999/xlink"><g id="vimeo__x2C__social__x2C__media_x2C__icon_x2C_"><g><g><path d="M431.023,34.501c-116.684-4.667-233.367-9.335-350.05-14.002     C47.779,19.11,21.39,45.469,22.402,79.002c3.398,117.816,6.797,235.631,10.195,353.447C33.61,465.983,60,492.404,91.168,491.094     c109.887-4.396,219.773-8.791,329.66-13.187c31.168-1.312,57.562-27.67,58.574-58.503     c3.398-108.753,6.797-217.506,10.195-326.259C490.61,62.312,464.216,35.89,431.023,34.501z M408.354,188.795     c-19.522,92.712-114.57,174.161-142.456,193.701c-28.157,19.181-53.848-6.263-63.378-26.026     c-10.694-22.208-44.478-145.526-53.347-156.093c-8.741-10.399-34.152,9.914-34.129,9.944c-4.25-5.591-8.508-11.193-12.775-16.807     c-0.111-0.148,51.26-62.691,91.516-69.387c42.581-7.144,42.729,65.6,52.896,105.967c9.798,39.063,16.261,61.2,24.735,61.16     c8.479-0.041,24.696-21.774,42.801-54.639c18.21-32.779-0.299-62.119-35.599-41.809     C292.671,111.346,427.787,96.036,408.354,188.795z" style="fill:none;"/><g><g><g><path d="M405.749,188.249c0.202,0.704,1.058,0.499,1.222-1.251l-1.074-1.458L405.749,188.249z" style="fill:#373737;"/><path d="M409.844,176.917c-0.505-2.148-1.57-4.512-2.829-3.233c1.189,2.046,0.665,2.496,1.951,4.811        c0.018,1.78-0.765,3.006-1.206,2.649c0.239,0.659-0.641,2.641,0,3.705c0.714-1.04,1.124-2.303,1.363-3.685        c0.238-1.382,0.119-2.902-0.146-4.439C409.328,176.096,409.614,176.749,409.844,176.917z" style="fill:#373737;"/><path d="M284.449,171.227l0.667-0.948C284.896,170.517,284.672,170.845,284.449,171.227z" style="fill:#373737;"/><path d="M312.243,234.819c0.353-0.744,0.396-1.108,0.309-1.201        C312.275,234.335,312.057,234.928,312.243,234.819z" style="fill:#373737;"/><path d="M301.916,249.936c0.229-0.318,0.422-0.586,0.631-0.876        C302.231,249.35,301.96,249.669,301.916,249.936z" style="fill:#373737;"/><path d="M284.449,171.227c0,0-0.44,0.604-0.855,1.225c-0.404,0.628-0.808,1.257-0.808,1.257        C283.105,174.085,283.673,172.448,284.449,171.227z" style="fill:#373737;"/><path d="M404.055,154.412c0.234,0.508,0.496,0.91,0.784,1.268c-0.2-0.421-0.385-0.829-0.562-1.255        C404.202,154.426,404.138,154.426,404.055,154.412z" style="fill:#373737;"/><path d="M316.936,135.486c0,0,0.192-0.119,0.386-0.238c0.196-0.113,0.393-0.225,0.393-0.225        c0.156-0.261,0.282-0.542,0.387-0.836c0,0-0.295,0.322-0.589,0.643C317.214,135.145,316.936,135.486,316.936,135.486z" style="fill:#373737;"/><path d="M352.3,122.959c-0.858,0.071-1.001,1.227-1.25,1.758c0.406-0.522,0.999-0.836,1.728-1.016        C352.766,123.488,352.625,123.241,352.3,122.959z" style="fill:#373737;"/><path d="M404.692,145.28l0.668,0.835C405.18,145.901,404.906,145.523,404.692,145.28z" style="fill:#373737;"/><path d="M295.9,152.337c-0.167-0.065-0.368-0.063-0.533-0.015        C295.473,152.417,295.664,152.407,295.9,152.337z" style="fill:#373737;"/><path d="M390.356,226.842c0.063,0.059,0.125,0.041,0.185,0.078        C390.52,226.684,390.471,226.593,390.356,226.842z" style="fill:#373737;"/><path d="M408.638,188.862l-0.077,0.585c0.193,0.109,0.382,0.221,0.584,0.269L408.638,188.862z" style="fill:#373737;"/><path d="M282.128,276.309c0.047-0.041,0.063-0.056,0.108-0.095        C282.672,275.479,282.39,275.868,282.128,276.309z" style="fill:#373737;"/><path d="M115.192,172.116c3.176-1.854-3.062,5.05,1.433,1.979        C115.958,174.152,118.739,169.396,115.192,172.116z" style="fill:#373737;"/><path d="M403.871,153.548c-0.185-0.417-0.368-0.842-0.533-1.276        C403.542,152.869,403.705,153.26,403.871,153.548z" style="fill:#373737;"/><path d="M116.625,174.096c0.003,0.003,0.007,0.006,0.007,0.006l0.458-0.32        C116.897,173.911,116.789,173.985,116.625,174.096z" style="fill:#373737;"/><path d="M253.636,237.982c-0.152,0.204-0.222,0.54-0.281,0.888        C253.46,238.816,253.553,238.607,253.636,237.982z" style="fill:#373737;"/><path d="M271.202,288.025c-0.001,0.039-0.458-0.271-0.467-0.288c0.09,0.102,0.176,0.175,0.25,0.2        C271.061,287.973,271.135,288.035,271.202,288.025z" style="fill:#373737;"/><path d="M245.724,209.259c-0.052-0.778,0.059-1.066-0.271-2.085c-0.04,0.106-0.063,0.209-0.08,0.341        C245.591,207.866,245.744,208.36,245.724,209.259z" style="fill:#373737;"/><path d="M240.261,178.368c-0.051,0.182-0.072,0.41-0.109,0.615c0.08,0.303,0.172,0.657,0.254,0.97        L240.261,178.368z" style="fill:#373737;"/><path d="M340.339,305.664c0.681-0.313,1.222-0.413,1.7-0.443        C341.117,305.072,343.838,301.418,340.339,305.664z" style="fill:#373737;"/><path d="M404.644,154.181c-0.313-0.069-0.552-0.243-0.772-0.633c0.132,0.305,0.295,0.583,0.406,0.876        C404.461,154.448,404.615,154.413,404.644,154.181z" style="fill:#373737;"/><path d="M236.766,209.527l-0.679-4.951C236.209,205.965,236.465,207.771,236.766,209.527z" style="fill:#373737;"/><path d="M194.076,319.062l0.477,1.043C194.443,319.679,194.289,319.305,194.076,319.062z" style="fill:#373737;"/><path d="M233.44,190.102c0.236-0.936,0.299-1.895,0.278-2.872c-0.122-0.186-0.237-0.4-0.389-0.511        L233.44,190.102z" style="fill:#373737;"/><path d="M342.055,305.221c-0.011,0.005-0.016,0-0.016,0S342.044,305.226,342.055,305.221z" style="fill:#373737;"/><path d="M359.681,277.982c-2.721,3.78-0.091,2.628,0.025,3.932c-2.941,4.779-2.409,1.447-4.137,2.532        c-1.764,3.016-2.263,5.998-3.934,8.006c-0.312,0.004-0.693,0.349-0.569-0.306c-0.682,1.806-2.319,4.008-4.063,6.223        c-1.745,2.215-3.483,4.531-4.304,6.656c-0.308,0.161-0.507,0.205-0.645,0.195c1.02-0.059,1.667,0.34,1.986,0.792        c-1.347,1.63-1.826,3.601-3.077,3.584c0.859-0.972,0.632-1.306,0.793-1.964l-1.11,1.962c-2.345,0.62,1.587-2.617,0.8-3.278        c-1.224,1.783-2.41,3.838-3.639,5.699c-1.236,1.853-2.473,3.546-3.712,4.658c-1.471-0.385,4.758-6.104,0.94-3.593        c0,0,0.94-0.873,1.881-1.746c0.947-0.868,1.858-1.769,1.858-1.769c-4.143,1.578,2.113-2.264-1.938-1.027        c-2.323,2.412-3.452,3.908-4.549,5.434c-1.095,1.527-2.225,3.026-4.626,5.359c-0.456,1.622,1.161,0.385,0.702,2.01        c-2.708,3.988-4.67,4.733-6.301,5.329c-1.643,0.592-3.025,0.973-4.819,4.099c-0.62,1.917,0.144,3.666-4.05,6.54l0.117-2.286        c-4.709,4.467-1.056,4.213-6.68,8.211c0.452-1.277,3.32-3.919,2.486-3.365c-4.015,2.193-1.636,2.792-4.079,5.154l-1.449-0.504        c-4.861,4.913-9.833,10.777-15.474,15.994c0.058-0.584,0.77-1.763-0.856-0.906c-6.839,6.829-15.934,13.156-23.821,17.771        c0,0-0.134,0.187-0.335,0.467c-0.051,0.07-0.105,0.146-0.163,0.226l-0.044,0.062l-0.022,0.031l-0.006,0.008        c0.092-0.061-0.205,0.137,0.204-0.136l-0.001,0.001l-0.001,0.002l-0.003,0.004l-0.013,0.016l-0.104,0.125        c-0.141,0.171-0.291,0.354-0.441,0.535c-0.602,0.729-1.203,1.458-1.203,1.458c-0.371,0.24-0.726,0.271-0.932,0.197        c-0.208-0.069-0.268-0.249,0-0.518c-2.876,1.029,0.242,0.71-0.842,1.817c-0.749,0.482-1.434,0.552-1.727,0.453        c-0.306-0.106-0.286-0.42,0.163-0.815c-2.308,1.704-6.028,3.545-10.121,4.168c-4.074,0.606-8.375-0.086-11.06-1.64        c0,0,0.303,0.025,0.611,0.005c0.305-0.012,0.61-0.023,0.61-0.023c-1.095-0.374-1.963-0.655-2.779-0.698        c-0.796-0.118-1.515-0.106-2.231-0.109c-0.706-0.036-1.403-0.105-2.158-0.338c-0.74-0.267-1.537-0.71-2.388-1.525        c0,0,0.214,0.069,0.428,0.139c0.218,0.059,0.436,0.117,0.436,0.117c-4.515-2.83-9-6.409-12.678-10.409        c-3.655-4.006-6.515-8.371-7.799-12.373c-1.135-0.24-2.306-2.691-3.233-5.062c-0.55-1.296-0.93-2.418-1.435-3.284        c-0.49-0.843-1.016-1.468-1.633-1.412c-1.176-6.481-0.153-4.862-2.402-13.79c-0.691-2.353-2.563-3.001-3.759-5.814        l1.147-0.457l-2.516-3.526l0.719-2.549l-1.177-2.625c0.28,1.106,0.215,2.475-0.176,2.42        c-1.907-4.082-2.503-10.643-1.934-10.938l-4.175-9.78c0.544,0.075,1.236,1.717,1.958,2.959        c-2.891-5.016,0.932-1.368-1.718-5.965c-0.059,0.746-0.813-0.138-1.085-0.176c-0.06-2.688-1.805-8.302-3.398-12.364        l1.061,0.545c-2.13-7.568-5.312-15.706-7.941-24.14c0.57,3.143-1.053,2.887-1.963,0.459l0.934-1.378        c-1.27-1.354,0.338,2.728-1.629-0.252c-0.845-3.192,0.749-2.561,1.721-0.88l-1.637-3.691c0.301-0.342,0.779,0.494,1.327,0.579        c-1.265-1.327-0.842-7.004-2.906-8.845l0.301-0.333c-2.686-8.429-4.354-12.11-6.696-18.943        c-1.112,0.223-1.78-2.534-3.33-4.278c-1.393-5.136-2.489-11.002-4.988-17.051c-2.282-4.067-1.396-0.887-2.808-2.538        c0.428-0.352-0.099-2.053-0.477-3.32c-0.408-1.278-0.74-2.177,0.498-0.644c-0.271-0.487-0.529-0.951-0.777-1.397        c-0.275-0.464-0.431-0.823-0.821-1.355c-0.342-0.491-0.682-0.957-1.017-1.4l-0.031-0.042l-0.016-0.021l-0.008-0.01        l-0.253-0.28l-0.05-0.049l-0.1-0.098l-0.198-0.192c-0.131-0.127-0.261-0.252-0.389-0.376        c-0.082-0.075-0.087-0.095-0.231-0.213l-0.388-0.315c-0.26-0.206-0.523-0.405-0.788-0.594        c-0.556-0.421-1.003-0.623-1.48-0.867l-0.711-0.345c-0.239-0.095-0.48-0.173-0.722-0.256        c-0.481-0.151-0.975-0.344-1.455-0.416c-1.96-0.446-3.905-0.419-5.962-0.092c-2.061,0.335-4.242,1.001-6.69,2.074        c1.232,0.012,2.526-0.167,1.982,0.357c-1.775,0.697-4.19,1.049-4.135,0.501l0.424-0.291c-3.094,1.747-6.404,3.376-9.767,5.094        c-1.68,0.856-3.371,1.726-5.033,2.629c-0.832,0.452-1.656,0.911-2.469,1.387c-0.407,0.243-0.813,0.485-1.216,0.725        l-0.61,0.382l-0.315,0.204l-0.176,0.12l-0.044,0.03l-0.021,0.015l-0.072,0.058c-0.143,0.121-0.294,0.262-0.45,0.429        c-0.31,0.333-0.642,0.785-0.9,1.364c-0.26,0.575-0.424,1.278-0.43,1.956c-0.015,1.395,0.531,2.417,0.928,2.974        c2.63-1.973,5.26-3.945,7.854-5.892c-2.464-4.012-4.931-7.615-7.71-9.855l0.376,0.321l-6.303-6.452l-0.054-0.078l-0.013-0.019        l-0.006-0.009c0.339,1.02-0.761-2.286,0.76,2.286l0.001-0.002l0.004-0.005l0.028-0.036c0.038-0.048,0.074-0.094,0.108-0.138        c0.075,0.188,0.088,0.55,0.055,0.789c-0.033,0.261-0.108,0.486-0.19,0.665c-0.042,0.089-0.085,0.168-0.128,0.237        c-0.032,0.057-0.118,0.168-0.069,0.115c0.161-0.141,0.249-0.184,0.286-0.159c0.038,0.025,0.026,0.119-0.012,0.25        c-0.01,0.032-0.021,0.067-0.033,0.105c0,0.005-0.014,0.028-0.001,0.019l0.06-0.06l0.121-0.137        c0.161-0.197,0.314-0.464,0.414-0.769c0.101-0.304,0.145-0.638,0.135-0.939l-0.005-0.112        c-0.003-0.017-0.005,0.012-0.008,0.015l-0.015,0.055l-0.024,0.105l-0.001,0.006l0,0.001c0.197,0.595-1.721-5.176-0.908-2.733        l0.001,0l0.003,0.002l0.014,0.008l0.029,0.016l0.055,0.029c0.037,0.018,0.072,0.034,0.104,0.049        c0.066,0.027,0.125,0.044,0.173,0.047c0.096,0.005,0.151-0.048,0.141-0.189c-0.005-0.071-0.027-0.165-0.069-0.284        l-0.004-0.011l-0.002-0.006c2.044,6.148,0.567,1.704,1.024,3.075l0.001-0.001l0.002-0.002l0.021-0.019l0.043-0.041        c0.029-0.027,0.061-0.057,0.093-0.088c0.016,0.005,0.033-0.078,0.049-0.001c0.016,0.079,0.03,0.162,0.04,0.249        c0.021,0.174,0.029,0.365,0.018,0.57c-0.088,0.638-0.38,1.253-0.734,1.668l-0.066,0.077c-0.001-0.001,0.007-0.014,0.011-0.02        l0.026-0.046l0.053-0.093l0.105-0.185c0.145-0.244,0.288-0.484,0.429-0.722c0.299-0.477,0.591-0.936,0.897-1.379        c0.607-0.887,1.225-1.707,1.847-2.476c1.242-1.538,2.499-2.871,3.738-4.145c2.487-2.546,4.912-4.85,7.217-8.083        c3.198-1.146,6.908-5.014,10.845-9.055c3.922-4.046,8.096-8.25,11.798-10.19l-0.82-0.227c1.138-1.906,2.203-1.346,3.483-2.226        c-0.523-0.281-2.152,0.992-1.405-0.151c3.261-3.057,6.766-5.943,10.458-8.616c3.676-2.696,7.545-5.174,11.522-7.404        c1.975-1.148,4.011-2.15,6.027-3.179c2.048-0.939,4.08-1.909,6.147-2.704c4.113-1.644,8.252-2.99,12.288-3.836        c1.468-0.265,2.356-0.65,3.009-1.108c0.081-0.06,0.159-0.117,0.234-0.173l0.055-0.043l0.014-0.011l0.007-0.005        c0.277-0.039-0.375,0.051-0.308,0.042l0.002-0.001l0.004-0.003l0.032-0.02l0.125-0.08c0.164-0.107,0.315-0.217,0.459-0.328        c0.287-0.231,0.549-0.442,0.824-0.663c0.55-0.431,1.161-0.821,2.18-1.059c0.429-0.062,0.915-0.051,1.527,0.008        c0.614,0.088,1.3,0.112,2.181,0.497c0,0-0.133,0.065-0.332,0.164c-0.195,0.104-0.464,0.208-0.696,0.393        c-0.456,0.332-0.911,0.664-0.911,0.664l0.937-0.144c0.317-0.048,0.674-0.001,1.012-0.005c0.682,0.03,1.391,0.003,2.072,0.089        l2.019,0.395c0.678,0.135,1.293,0.452,1.95,0.667c2.551,1.053,4.902,2.718,6.95,4.863c2.019,2.19,3.814,4.697,5.443,7.385        c1.581,2.729,3.127,5.516,4.587,8.393c-0.566-0.595-0.941-0.463-1.396-1.616c0.045,1.442,0.994,3.69,1.873,5.693        c0.944,1.956,1.852,3.637,2.249,3.535c0.521,1.959-0.537,0.657-0.546,1.956c0.108,1.401,0.87,2.976,1.538,4.427        c0.638,1.465,1.192,2.794,0.91,3.623c-0.09,0.28-0.495-0.682-0.692-1.154c0.935,1.62,1.805,8.263,2.508,6.32        c0.551,4.956,2.391,9.252,2.475,13.304c1.686,2.349,0.902,8.576,2.765,9.104c-1.841-0.057,0.03,8.972,1.422,12.006        c-0.721-0.967-0.085,2.848-1.045,1.738c0.656,3.617,1.606,6.887,2.407,6.084c-0.452,3.536,0.654,6.838,1.669,9.763        c1.01,2.926,1.952,5.51,1.062,7.656c3.602,10.3,6.747,19.889,9.929,29.212c-1.867,0.167-3.149-10.406-4.833-9.5        c1.581,4.405,3.141,7.797,4.606,11.202c1.478,3.407,2.821,6.822,4.233,11.318c0.614,2.382-1.222-1.03-1.773-1.715        c1.942,4.37,3.552,8.701,5.948,12.944c0.625,1.062,1.279,2.115,2.097,3.158c0.782,1.037,1.761,2.078,2.992,3.021        c1.22,0.931,2.859,1.805,4.8,2.038c0.48,0.037,0.963,0.055,1.438,0.053l0.309-0.014l0.006-0.001l0.013-0.002l0.023-0.004        l0.049-0.008l0.096-0.016l0.192-0.032l0.385-0.065c0.406-0.079,0.942-0.21,1.393-0.345c0.259-0.069,0.418-0.143,0.585-0.215        l0.505-0.222c0.014,0.084-0.263,0.276-0.693,0.508c-0.244,0.117-0.631,0.244-1.001,0.357c-0.192,0.054-0.391,0.108-0.59,0.163        l-0.374,0.095l0.152-0.018c0.048-0.005,0.094-0.008,0.216-0.029c0.204-0.036,0.411-0.072,0.619-0.109l0.624-0.13        c0.218-0.047,0.417-0.097,0.547-0.144c0.596-0.191,1.202-0.386,1.616-0.61c0.906-0.428,1.35-0.859,1.057-1.157        c0.052,0.019-1.729,1.112-1.77,1.096c-0.985,0.035-0.94-0.306-0.435-0.8c0.497-0.505,1.349-1.241,2.157-2.048        c1.593-1.634,3.06-3.566,2.956-3.909c-0.314,1.824,1.415,0.574,2.939-0.614c1.502-1.175,2.91-2.237,2.372,0.469        c0.702-0.927,1.352-2.234,0.778-2.411c1.223-1.114,1.81-1.311,1.157,0.371c1.873-2.432,2.201-3.401,2.565-4.265        c0.355-0.866,0.716-1.631,2.357-3.757c0.305,0.257-0.229,1.215-0.213,1.941c1.075-2.646,2.079-5.269,4.928-8.77        c0.041,0.359,0.597,0.107-0.179,1.208c4.338-6.456,5.599-12.055,10.577-18.865c0.202,3.021,1.96-2.167,3.466-1.8l1.899-4.15        l-1.539,1.213c2.015-3.427,2.79-7.008,4.86-9.75l-0.893,2.874c0,0,0.855-1.688,1.712-3.375c0.396-0.835,0.793-1.67,1.09-2.296        c0.149-0.313,0.272-0.574,0.359-0.757c0.084-0.197,0.133-0.309,0.133-0.309c0,0-0.146,0.246-0.377,0.56        c-0.229,0.323-0.534,0.754-0.839,1.185c-0.628,0.881-1.255,1.763-1.255,1.763c0.653-2.027,0.134-2.093-0.114-2.306        c-0.279-0.211-0.289-0.425,1.042-2.727c-0.158,0.528,0.265-0.382,0.938-1.623c0.657-1.248,1.469-2.853,2.249-3.701        c0,0-0.004,0.013-0.001,0.014c0.086-1.037,0.195-2.066,0.385-3.19c0.137-1.142,0.51-2.33,0.953-3.762        c0.625-0.672,1.488,0.966,1.902,0.53c-0.387-1.129-0.003-3.521,0.09-6.032c0.017-0.626,0.033-1.257,0.05-1.87        c-0.03-0.617-0.071-1.216-0.13-1.774c-0.086-1.115-0.406-2.071-0.765-2.676c0.369,0.817,1.156,0.829,1.295,0.529        c0,0-0.282-0.412-0.565-0.824c-0.141-0.201-0.282-0.401-0.388-0.552c-0.115-0.148-0.192-0.246-0.192-0.246        c0.045-1.944,0.152-2.276,0.816-2.063c-0.514-2.972-0.918-2.373-1.21-1.959c-0.154,0.208-0.299,0.373-0.45,0.059        c-0.083-0.156-0.14-0.437-0.253-0.884c-0.12-0.446-0.259-1.065-0.432-1.925c0.246,0.493,0.309,0.19,0.809,1.238        c-0.823-3.445-2.661-6.556-5.032-8.997c-2.376-2.461-5.229-4.246-8.221-5.622c-0.329-0.505-0.154-0.669,0.297-0.65        c0.446,0.026,1.132,0.318,1.815,0.589c0.694,0.25,1.313,0.64,1.71,0.754c0.391,0.123,0.546,0.021,0.19-0.561        c-2.254-1.243-4.772-2.063-7.299-2.352l-0.944-0.132l-0.944-0.044c-0.629-0.02-1.257-0.056-1.88-0.052        c-1.238,0.092-2.479,0.095-3.674,0.323c-4.822,0.698-9.186,2.294-13.268,3.815l1.575-0.443        c-0.159,1.119-1.489,1.425-3.19,1.897c-1.735,0.392-3.854,0.952-5.584,2.052c1.066,0.741,2.132,1.483,3.178,2.21        c0.046-0.389,0.063-0.779,0.046-1.17c-0.039,1.028,0.908,1.5,0.727,1.196c0.361-1.345,0.597-2.725,0.883-4.149        c0.319-1.416,0.52-2.919,0.885-4.479c0.604-3.153,1.472-6.645,2.903-10.675l0.06,1.179c1.718-2.833,4.06-7.65,6.226-10.474        c0.083-1.193,1.337-2.819-0.028-2.245c4.389-3.677,7.366-7.815,10.664-11.76c3.268-3.902,6.858-7.573,11.629-9.278        c-0.955,0.672-1.97,2.008-1.224,1.465c0,0,0.399-0.328,0.999-0.821c0.605-0.485,1.438-1.099,2.263-1.73        c0.815-0.643,1.688-1.203,2.32-1.661c0.64-0.447,1.065-0.745,1.065-0.745c-1.035-0.454-1.213,0.087-3.098,0.399        c0.308-0.51,0.917-1.17,1.677-1.841c0.762-0.667,1.705-1.294,2.62-1.818c-3.019,2.425,0.749,1.238,2.418,0.976        c-0.373-0.126-0.024-0.658-0.279-0.85c2.322-0.279,2.269-0.765,2.392-1.406c0.121-0.622,0.386-1.482,3.39-2.18l-0.102,0.571        c1.96-1.123,3.676-2.495,6.041-3.171c0.654,0.341,0.125,0.654-0.545,0.99c-0.667,0.345-1.465,0.748-1.38,1.182        c3.102-1.253,5.729-4.156,9.037-3.888c-1.338,0.626-3.328,1.245-4.622,1.944c3.565,0.219,3.825-0.152,6.262-0.58l-0.24,0.034        c0,0,0.351-0.062,0.883-0.118c0.53-0.063,1.236-0.146,1.943-0.229c0.703-0.096,1.414-0.132,1.942-0.179        c0.529-0.042,0.882-0.069,0.882-0.069l-1.476-0.078c1.798-1.758,3.955-2.233,6.286-2.479c1.17-0.132,2.386-0.219,3.666-0.364        c1.279-0.188,2.619-0.385,4.065-0.873c-5.557,1.829-0.894,1.016-1.317,2.236c1.445,0.275,3.585,0.74,2.963,1.06        c1.32-0.478,2.41-0.199,3.614,0.024c0.606,0.097,1.236,0.232,1.956,0.264c0.72,0.035,1.532-0.054,2.494-0.239        c0.104,0.403,2.746,0.504,1.977,1.374c3.324,0.412-0.629-0.839-0.282-1.248c2.704-0.15,5.678,1.002,8.662,2.505        c3.016,1.513,5.99,3.321,9.525,4.716c1.438,0.747,2.522,1.445,3.558,1.967c0.961,0.603,1.87,1.043,2.696,1.569        c0.807,0.543,1.695,1.021,2.531,1.765c0.431,0.36,0.885,0.757,1.372,1.208c0.462,0.47,0.931,1.013,1.452,1.623        c0.345,1.057-0.209,0.876-0.829,0.46c-0.623-0.418-1.314-1.078-1.314-1.078c0.354,0.774,0.71,1.473,1.08,2.124        c0.327,0.679,0.663,1.314,1.028,1.927c0.388,0.601,0.687,1.244,1.079,1.86c0.195,0.31,0.393,0.624,0.594,0.944        c0.189,0.329,0.382,0.663,0.579,1.006c-0.554-0.459-0.568,0.271-0.621,1.298c0.537,1.112,0.929,1.419,1.372,1.819        c0.399,0.412,0.85,0.939,0.963,2.641c-0.563-0.444-1.396-0.964-2.202-1.935c0.662,1.29,1.216,2.638,1.853,3.998        c0.531,1.389,1.128,2.807,1.457,4.327c-0.581,0.892-1.219-1.71-1.907-2.644c0.985,3.237,1.593,8.669,2.596,9.761        c0,0,0.089-0.564,0.179-1.129c0.092-0.566,0.167-1.135,0.167-1.135c0.078,1.285-0.882,0.682-1.139-0.231        c-0.533-1.451-0.479-2.509-0.324-3.246c0.155-0.734,0.507-1.154,0.69-1.262c0,0,0.133,0.542,0.266,1.084        c0.147,0.541,0.227,1.094,0.226,1.094c0.552-0.622,0.688-1.498,0.634-2.531c-0.031-0.516-0.103-1.071-0.231-1.647        c-0.151-0.571-0.34-1.167-0.548-1.771c-0.378-1.22-0.999-2.437-1.498-3.63c-0.537-1.183-1.083-2.305-1.412-3.361        c0,0,0.14,0.071,0.348,0.179c0.202,0.114,0.471,0.265,0.74,0.417c0.543,0.317,1.086,0.634,1.086,0.634        s-0.174-0.251-0.436-0.629c-0.261-0.375-0.596-0.876-0.991-1.345c-0.755-0.932-1.51-1.863-1.51-1.863        c-0.046-1.032,0.524-2.104,1.693-0.123c-0.674-3.376-1.745-2.384-2.391-5.298c-0.038-0.349,0.102-0.268,0.307-0.046        c-0.001,0-0.512-0.652-1.095-1.247c-0.563-0.602-1.124-1.204-1.124-1.204c0.646,0.325,0.639-1.146,1.598,0.68        c-1.25-2.784-3.189-4.404-4.693-5.62c-0.793-0.58-1.502-1.062-2.051-1.565c-0.557-0.497-1.007-0.955-1.235-1.564l0.451,0.239        c-1.669-1.244-2.685-1.682-3.216-1.89c-0.545-0.189-0.672-0.059-0.765,0.129c-0.178,0.387-0.235,0.927-3.098,0.003        c0,0-0.107-0.3-0.3-0.716c-0.196-0.426-0.458-0.995-0.72-1.564c-0.53-1.17-1.176-2.272-1.176-2.272l-1.245,0.77        c-0.728-0.422-2.247-1.084-1.78-1.432c-3.211-0.365,0.296,0.687-1.658,0.766c-0.835-0.603-1.937-1.069-3.104-1.471        c-1.185-0.343-2.421-0.689-3.586-0.897c-1.157-0.249-2.217-0.477-3.034-0.733c-0.813-0.273-1.378-0.634-1.537-1.151        c-1.543,0.705,3.672,1.303-0.628,1.298c-0.463-1.089-1.722-1.203-3.278-1.071c-0.779,0.068-1.631,0.139-2.512,0.169        c-0.882,0.04-1.792-0.01-2.704-0.272c1.125-1.053,4.649-0.392,0.952-1.45c-0.57,0.433-1.298,0.632-2.124,0.711        c-0.825,0.08-1.754-0.038-2.714-0.104c-1.92-0.201-3.995-0.463-5.539-0.121c0.011,0.734-1.646,1.087-3.926,1.495        c-2.273,0.427-5.193,0.921-7.633,1.853c0.095-0.287-2.325,0.132-5.339,0.913c-3.026,0.744-6.583,1.995-8.934,2.729l0.034-0.28        c-0.14,0.857-1.356,1.769-2.935,2.681c-1.555,0.962-3.464,1.958-4.954,3.007c-0.312-0.829,0.078-1.467,1.644-2.771        c0,0-0.762,0.412-1.514,0.842c-0.754,0.427-1.508,0.854-1.508,0.854c-0.473,0.812-1.256,1.595-3.059,2.911l0.146-1.388        c-3.896,2.555-6.936,6.23-11.825,9.585c0.213,0.484,1.569,0.251,2.333,0.488c0.382,0.115,0.616,0.342,0.497,0.815        c-0.125,0.467-0.592,1.191-1.572,2.347c-0.538-0.257-1.355-0.792-0.325-2.051c-0.339,0.415-1.066,1.606-2.001,2.155        l1.169-2.35c-2.227,1.522-0.521,1.484-2.073,2.916c-0.523-0.594-1.509,0.713-1.74,0.057c0.339-0.439,1.542-1.097,1.922-1.884        c-0.919,0.787-1.959,1.635-2.932,2.307c-0.946,0.698-1.799,1.247-2.354,1.405c0.485,0.152,0.767,0.7-0.314,2.103        c-2.896,3.552-1.774,0.56-3.76,2.437c-0.129,0.615-0.756,1.419-1.239,2.168c-0.454,0.771-0.766,1.48-0.306,1.852        c-0.775,1.096-1.38,0.984-1.939,1.242c-0.432,1.156-1.931,3.516-2.856,5.474c-0.976,1.93-1.403,3.407-0.255,2.501l0.353-0.5        c-0.031,0.112-0.091,0.231-0.132,0.367c0.009-0.018,0,0,0.009-0.018l-0.009,0.018c-1.329,3.666-3.036,7.244-4.625,10.928        c-0.813,1.834-1.503,3.718-2.142,5.602c-0.553,1.904-1.099,3.802-1.301,5.72l-0.385-0.089        c-0.07,0.756-0.163,1.535-0.271,2.347l-0.566,4.243l3.415-2.262c3.213-2.129,7.007-3.784,9.246-5.31        c1.251-0.396,3.114-0.236,2.716,0.384c0.766-0.271,1.362-0.492,1.896-0.699c0.533-0.217,1.009-0.379,1.541-0.482        c0.53-0.116,1.112-0.219,1.854-0.284c0.742,0.01,1.649-0.018,2.798,0.133c-1.583,0.39-1.287,0.575-1.162,0.603        c0.127,0.061,0.11-0.039-2.05,0.145c1.028-0.071,1.851,0.034,2.572,0.049c0.721,0.054,1.33,0.18,1.953,0.209        c1.244,0.123,2.467,0.129,4.655,0.101c-0.415,0.155-0.458,0.368-0.271,0.568c0.181,0.22,0.569,0.486,1.061,0.724        c0.506,0.211,1.052,0.528,1.603,0.775c0.568,0.216,1.057,0.515,1.473,0.664c0,0-0.114-0.121-0.286-0.302        c-0.178-0.173-0.391-0.455-0.66-0.652c-0.529-0.44-1.059-0.88-1.059-0.88c1.976,0.626,3.434,1.757,4.731,2.997        c0,0-0.398,0.075-0.785,0.17c-0.395,0.121-0.79,0.241-0.79,0.241c1.116,1.443,2.179,2.659,3.171,3.993        c0.957,1.338,1.98,2.675,2.697,4.194c1.531,2.956,2.27,6.417,0.776,9.487c0.376,1.109,0.664,0.003,0.819-1.157        c0.223-1.157,0.313-2.369,0.929-1.396c-0.043,0.984-0.176,1.978-0.431,2.916c-0.293,0.94-0.556,1.823-0.939,2.606        c-0.369,0.769-0.702,1.461-0.976,2.031c-0.303,0.559-0.515,0.996-0.575,1.288c-0.408,1.242-0.688,2.162-0.741,2.968        c-0.052,0.806-0.032,1.47,0.015,2.159c0.106,1.365,0.16,2.863-1.194,5.364c0.711-0.44,2.239-0.649,0.742,3.575        c-2.115,3.698-4.135,3.477-3.267,1.128c0.432-0.912,0.79-1.273,0.913-1.161c0.522-1.312,0.999-2.886-0.106-1.72l0.169,0.703        c-0.35,0.406-0.775,1.032-1.22,1.718c-0.11,0.172-0.223,0.348-0.335,0.524l-0.042,0.066l-0.011,0.017l-0.006,0.008        c0.076-0.141,0.021-0.038,0.037-0.069l-0.001,0.002l-0.003,0.004l-0.021,0.033l-0.088,0.13l-0.173,0.259        c-0.232,0.345-0.462,0.685-0.676,1.002c-0.866,1.266-1.563,2.132-1.574,1.354c-1.151,2.964,0.022,1.56,1.376-0.363        c-3.212,4.335-4.13,7.276-7.331,11.773c0.669-0.617,1.56-1.028,1.111-0.28c-4.66,6.618-1.053,3.516-3.754,8.293        c-2.271,2.247-0.857-1.852-3.302,3.105c-2.239,2.542-1.439-0.095-1.047-1.413c-1.931,4.694-5.639,7.399-7.403,9.563        l1.182-2.333c-0.695,1.404-1.445,2.425-2.202,3.464l1.635-0.64c-1.017,1.148-1.797,2.164-2.092,1.91        c-0.439,1.63,1.999-0.019,0.79,2.989c-1.596,1.341-3.467,5.188-4.891,4.882c4.37-4.588-1.385-0.249,1.809-4.515        c-0.516,0.904-1.309,1.877-2.397,2.904c-0.251,0.079-0.063-0.329,0.143-0.683c-2.339,1.9-2.527,2.576-2.639,3.432        c-0.058,0.419-0.09,0.887-0.388,1.489c-0.292,0.611-0.842,1.399-1.937,2.377c0.063-1.003-1.885-0.11-2.459,0.51        c0.845-0.672,1.248-0.623,1.272-0.175c0.025,0.447-0.337,1.313-1.014,2.133c-1.596,0.76-2.24,1.119-2.677,1.431        c-0.056,0.044-0.109,0.086-0.161,0.128l-0.049,0.072c-0.045,0.053-0.043,0.12-0.14,0.185        c-0.199,0.053-0.405,0.101-0.631,0.138l-0.085,0.014l-0.043,0.007l-0.011,0.001l-0.006,0.001        c-0.053,0.002,0.452-0.019,0.238-0.01l0,0H271.4l-0.008-0.001l-0.061-0.004c-0.041-0.003-0.084-0.007-0.13-0.01        c0,0,0.05,0.014,0.129,0.05l0.064,0.032l0.004,0.002l0.003,0.001c0.209-0.008-0.285,0.013-0.233,0.011h0.001h0.001h0.003        h0.026l0.052,0.002l0.108,0.002c0.146,0.003,0.304,0.007,0.46,0.011c0.203,0.008,0.211-0.006,0.258-0.007        c0.045-0.003,0.09,0,0.129,0.006c0.058,0.026,0.208-0.022,0.196-0.016c-0.117,0.244-0.135,0.337-0.284,0.496        c-0.02,0.079-0.237,0.135-0.452,0.184c-0.105,0.023-0.216,0.048-0.33,0.072l-0.086,0.018l-0.011,0.002l-0.006,0.001        l-0.003,0.001h-0.001c-0.158,0.007,0.214-0.009,0.175-0.007h-0.011l-0.023,0.002l-0.094,0.007        c-0.508,0.072-1.212-0.091-2.16-0.695c0.102-0.29,0.54-0.009,0.871,0.081c0.336,0.164,0.559,0.165,0.355-0.022        c-0.54,0.053-1.133-0.205-1.603-0.77c-0.485-0.521-0.867-1.269-1.217-2.07c-0.697-1.632-1.248-3.525-2.531-5.266        c-0.391-1.983,1.125-0.726,0.729-2.423c-1.354-1.996-1.592-3.335-1.811-4.68c-0.214-1.356-0.417-2.731-1.585-5.065        c-0.432,1.705-0.141,1.909-2.156-1.297c0,0,0.809,1.997,1.663,3.954c0.846,1.965,1.755,3.864,1.756,3.863        c0,0-0.802-1.137-1.592-2.304c-0.775-1.184-1.551-2.367-1.551-2.367c0.811,2.469,2.381,4.927,2.792,6.397        c-1.661-2.13-1.347-1.985-1.642-0.544c0.078-3.779-3.177-6.354-3.484-10.613l2.295-0.579        c-0.801-6.174-4.273-10.198-5.783-18.176l0.272,2.617c-1.189-0.806-1.411-4.795-2.433-7.24c0.827,0.038,0.69-1.62,0.891-2.827        c-0.537,0.278-1.414-5.754-3.12-6.085l0.126-3.768c-0.552-3.158-1.493-4.823-2.438-6.483c-0.948-1.655-1.895-3.302-2.347-6.41        c1.199,1.691,1.198-1.192,2.609,2.785c-0.409-2.034-0.591-3.913-1.141-3.842c0.253-1.28-2.085-5.518-1.671-7.552        c-0.492-0.813-1.356-0.958-1.69-3.294c0.115-0.281,0.387-0.056,0.387-0.056c-0.387,0.056-1.141-3.558-1.658-1.376        c1.361-6.808-3.196-17.839-2.259-23.806c-1.142-4.494-2.586-9.898-3.708-13.971c0.296,0.204,0.385-0.084,0.502,0.712        c-0.351-2.921-1.15-3.646-1.959-4.452c-0.816-0.809-1.585-1.709-2.205-4.975c0.199-3.628,1.715,3.156,1.542,0.993        c1.083-0.817,0.461-2.75-0.612-5.016c-0.519-1.136-1.094-2.364-1.632-3.589c-0.526-1.228-0.881-2.484-1.041-3.68l0.605,0.957        c-0.347-1.778-1.397-3.686-2.89-5.685c-0.362-0.5-0.734-1.016-1.116-1.543c-0.405-0.516-0.82-1.044-1.245-1.583        c-0.423-0.538-0.799-1.113-1.24-1.673c-0.442-0.56-0.874-1.14-1.287-1.749c0,0,0.353,0.095,0.335-0.207        c-0.827-0.643-1.863-1.406-2.94-2.28c-1.022-0.917-2.323-1.762-3.538-2.712c-2.598-1.724-5.449-3.426-8.157-4.178        c2-0.274,2.613,0.507,2.026-0.86c-1.252-0.443-1.231,0.017-1.519,0.365c-0.143,0.175-0.361,0.324-0.832,0.33        c-0.235,0.003-0.533-0.029-0.916-0.112c-0.386-0.071-0.882-0.118-1.481-0.248c-1.347-1.101-4.897-1.939-5.352-3.115        c0,0,1.235,0.141,2.469,0.281c1.243,0.087,2.454,0.441,2.454,0.441c-1.07-1.105-2.765-1.188-4.406-1.264        c-0.819-0.04-1.703,0.149-2.497,0.207c-0.803,0.083-1.563,0.131-2.242,0.083l0.283-0.626c-1.802,0.19-2.991,0.509-4.075,0.792        l-0.05,0.014l-0.024,0.007l-0.006,0.001l-0.191,0.028l-0.013,0.005l-0.102,0.038l-0.2,0.075        c-0.132,0.051-0.261,0.102-0.387,0.151c-0.251,0.104-0.493,0.203-0.729,0.3c-0.466,0.203-0.909,0.396-1.355,0.592        c-0.896,0.366-1.767,0.818-2.88,1.279c-0.558,0.228-1.176,0.458-1.885,0.694c-0.702,0.253-1.474,0.559-2.376,0.856        l0.893,0.185c-1.684,1.417-2.551,1.483-3.438,1.584c-0.882,0.087-1.827,0.101-3.457,1.457l-1.783-0.9        c-2.393,1.429-7.783,5.68-11.653,8.498c1.635-2.497,6.304-5.803,9.184-8.033c-1.213,0.615-3.255,1.707-5.054,2.868        c-1.781,1.188-3.382,2.354-3.754,3.077c0.822-0.72,1.832-1.711,2.876-2.049c-0.559,0.685-1.191,1.362-1.891,2.041        c-0.684,0.702-1.438,1.402-2.265,2.101c-0.833,0.689-1.722,1.401-2.667,2.137c-0.947,0.735-1.991,1.437-3.064,2.203        c-0.471-1.509-3.469,0.272-6.763,2.66c-3.328,2.348-6.94,5.276-9.188,5.596c-6.498,6.886-14.386,11.921-22.009,19.815        c4.412-1.071-2.197,2.313,0.019,3.553c-1.657,1.92-2.352,2.588-2.625,2.64c0,0-1.588,1.138-3.176,2.275        c-1.579,1.156-3.159,2.313-3.159,2.313c-1.764,0.86,1.25-2.139,0.692-2.339c-3.934,3.966-2.353,1.012-5.335,3.312        c1.159,0.027-0.38,2.274-2.737,4.457l3.827-2.607c-2.12,3.333-3.598,4.269-5.103,5.229c-0.75,0.478-1.502,0.967-2.331,1.782        c-0.208,0.209-0.422,0.438-0.642,0.693l-0.083,0.096l-0.157,0.197l-0.223,0.307c-0.292,0.423-0.56,0.906-0.77,1.422        c-0.211,0.515-0.362,1.06-0.451,1.585l-0.056,0.39c-0.015,0.139-0.025,0.07-0.038,0.115l-0.073,0.11l-0.019,0.028        l-0.004,0.007L96.8,193.47c2.228,6.703,0.619,1.86,1.117,3.356l0.011,0.014l0.045,0.053l0.091,0.106l0.191,0.217        c0.133,0.145,0.271,0.294,0.415,0.449c0.292,0.307,0.614,0.628,0.971,0.965l-2.097-1.488        c2.771,2.895,8.875,11.703,12.801,13.621c0.202,0.732,0.232,1.877-0.969,0.589c0.493,0.691,1.012,1.383,1.563,2.088        l4.111-3.125c0.548-0.407,1.234-0.672,1.984-0.56c0.745,0.099,1.524,0.641,2.014,1.508c0.248,0.428,0.427,0.919,0.542,1.426        c-0.095,0.399-0.37,0.658-0.554,0.911c-0.205,0.243-0.406,0.436-0.593,0.594c-0.131,0.109-0.035,0.029-0.063,0.052        l0.003-0.003l0.056-0.046l0.119-0.1l0.287-0.235l0.608-0.495c0.416-0.337,0.834-0.676,1.255-1.018        c0.854-0.684,1.717-1.375,2.582-2.066c1.742-1.375,3.52-2.721,5.302-3.909c3.538-2.385,7.21-4.128,10.103-4.241        c0,0-0.109,0.177-0.218,0.355c-0.107,0.186-0.215,0.372-0.215,0.372c0.681-0.263,1.238-0.694,1.85-0.961        c0.311-0.147,0.639-0.268,0.982-0.291c0.174-0.018,0.356-0.022,0.547-0.009c0.181,0.03,0.364,0.086,0.556,0.16        c-0.088,0.247-0.469,0.596,0.062,0.631c0.316-0.124,1.034-0.307,1.781-0.314c0.173,0.017,0.353,0.035,0.533,0.053l0.471,0.164        c0.133,0.056,0.127,0.087,0.206,0.114c-0.006-0.077,0.31,0.318,0.456,0.522c0,0-0.118-0.06-0.294-0.151        c-0.089-0.045-0.192-0.098-0.302-0.155c-0.047,0.029-0.097,0.06-0.147,0.09c-0.09,0.061-0.156,0.117-0.197,0.153        c-0.017,0.04-0.141,0.048-0.123,0.05c0.064,0.035,0.056,0.058,0.047,0.072c-0.003,0.016-0.005,0.025-0.003,0.029        c0.002,0.004,0.008,0.003,0.019-0.002c0.004,0.001,0.001-0.009,0.013,0.001l0.069,0.078l0.137,0.154        c0.185,0.203,0.367,0.403,0.546,0.601l0.068,0.073l0.004,0.004c-0.116-0.127,0.266,0.292-0.258-0.285l0.002,0.006l0.006,0.011        l0.011,0.022l0.046,0.087l0.096,0.166c0.067,0.107,0.139,0.209,0.217,0.306c0.075,0.083,0.192,0.333,0.289,0.486        c0.203,0.351,0.411,0.688,0.625,1.017c0.421,0.729,0.853,1.469,1.298,2.154c0.435,0.715,0.868,1.433,1.313,2.123        c1.759,2.8,3.539,5.509,5.04,9.072c-1.651,0.58,0.226,7.573,1.094,11.106l-0.276-0.04        c3.221,10.235,7.108,16.896,10.792,26.215c0.059,6.486,5.532,20.296,7.474,30.153c-0.149-1.553,1.384-0.171,2.08,1.472        c0.355,2.344,3.093,5.822,1.441,5.947l-0.219-0.807c-0.988,2.156,0.85,6.633,1.934,10.236l2.201-0.039        c-0.003,10.325,8.864,24.25,7.976,30.219c1.245,2.098,2.196,4.903,3.458,6.973l-1.112,0.247        c0.949,3.185,1.679,5.576,2.579,8.134c0.441,1.277,0.965,2.606,1.548,4.09c0.642,1.527,1.408,3.348,2.299,5.097l-1.418-1.177        c0.228,0.526,0.481,0.982,0.755,1.385c0.071,0.1,0.141,0.197,0.209,0.292l0.107,0.14l0.054,0.067l0.027,0.034l0.014,0.017        l0.007,0.008c-0.012-0.025,0.108,0.231,0.059,0.124l0.002,0.002l0.003,0.005c0.164,0.189,0.33,0.367,0.499,0.534        c0.676,0.667,1.384,1.17,2.118,1.623c1.451,0.922,2.873,1.724,4.08,3.553c0,0-0.178,0.509-0.355,1.018        c-0.17,0.513-0.339,1.025-0.339,1.025c2.364,3.516,4.69,7.126,7.525,10.384c2.82,3.244,6.111,6.194,10.063,8.047        c-0.262,0.124-0.756,0.377-1.93-0.426c1.6,1.28,4.774,3.798,7.821,5.3c1.523,0.739,2.933,1.306,3.952,1.446        c1.007,0.165,1.561-0.01,1.412-0.693c-0.114,0.373,0.376,0.748,1.258,1.117c0.868,0.396,2.161,0.689,3.607,0.93        c2.919,0.454,6.492,0.264,8.87-0.11c0,0-0.186,0.285-0.371,0.571c-0.191,0.273-0.383,0.548-0.383,0.548        c2.081-0.746,3.075-1.238,4.261-1.729c1.18-0.458,2.56-0.829,5.14-1.718c1.282-0.21,1.349,0.549-0.411,0.745        c1.087-0.155,1.832-0.348,2.391-0.586c0.55-0.266,0.932-0.545,1.336-0.833c0.825-0.559,1.677-1.19,4.154-2.043        c0,0-0.09,0.098-0.224,0.244c-0.137,0.136-0.319,0.316-0.502,0.497c-0.371,0.363-0.743,0.728-0.743,0.728        c2.063-0.838,2.955-1.532,3.559-2.042c0.628-0.542,0.855-1.057,1.594-2.019c0.245-0.222,0.534-0.449,0.855-0.678        c0.349-0.244,0.721-0.504,1.105-0.772c0.725-0.493,1.527-0.97,2.307-1.373c1.536-0.828,2.984-1.367,3.536-1.15        c0.091-0.826,1.393-2.875,3.513-4.147c0.496,0.094-0.06,0.836-0.35,1.199c5.972-3.728,7.269-7.486,11.627-9.728        c0.313,0.218,0.672,0.158,1.049-0.014c-4.238,3.566-7.763,6.312-7.482,5.991c0.642,0.802,4.238-1.907,2.365,1.459        c2.338-2.88,5.948-8.125,9.546-10.625c0.225-0.063,0.446-0.125,0.67-0.109l-0.266,0.382c0.833-0.579,1.448-1.247,1.966-1.943        c1.153-0.798,1.898-1.294,2.908-2.171c0.968,0.305,4.119-3.111,5.797-4.587c-0.896-0.702,1.377-2.541-1.27-1.376        c0.315-0.182-0.22,0.382-1.282,1.416c-0.225,0.25-0.505,0.528-0.623,0.726c0.011-0.052,0.026-0.113,0.046-0.175        c-1.058,1.011-2.446,2.321-4.063,3.768c0.944-1.591,1.979-3.179,4.214-4.382c0.355-1.305,0.778-2.696,1.063-3.429        c3.281-0.92,8.149-4.336,9.393-4.229c4.509-5.141,11.118-11.614,12.563-16.145c1.133-1.587,1.961-1.195,2.699-1.491        c-0.613,0.956-1.541,1.905-1.745,2.548c1.139-1.588,3.059-3.713,4.648-5.643c1.586-1.934,2.786-3.718,2.557-4.549        c3.77-3.148-0.838,2.938,3.49-2.172l-0.273,0.97c2.65-2.048,4.648-4.283,6.396-6.55c1.721-2.292,3.125-4.677,4.587-7.058        c1.447-2.395,2.879-4.848,4.708-7.259c1.813-2.425,3.922-4.888,6.775-7.301c-0.769,0.686-1.147,1.031-1.471,1.044        c5.574-6.206,10.423-13.319,14.949-20.573l1.727-2.699l1.677-2.725c1.119-1.813,2.261-3.603,3.418-5.372        c2.205-3.606,4.639-7.026,7.054-10.4c2.646-3.895,2.102-4.775,2.755-7.651l1.535-0.342l0.992-4.972        c1.065-3.322,2.971-5.712,4.935-8.373c0.938-1.349,1.85-2.782,2.65-4.424c0.776-1.652,1.522-3.478,1.826-5.725l-1.161,0.756        c1.263-2.891,3.138-9.461,3.77-8.68c-0.036-0.357-0.469-1.26,0.323-2.287l0.629,0.114c0,0,0.359-1.921,0.719-3.843        c0.391-1.903,0.63-3.858,0.63-3.858c2.084-5.67,2.191,1.607,4.681-6.921c0.506-3.193,0.322-9.359-0.367-8.278        c-0.33,1.26-1.148,3.145-1.788,3.095l0.358-2.946c-1.688-0.949-3.023-3.594-5.955,3.153c0,0-0.014,1.292-0.026,2.585        c0.006,1.313-0.073,2.539-0.072,2.54l-1.312,1.291c0,0,0.27-0.987,0.54-1.974c0.143-0.484,0.258-1.001,0.342-1.394        c0.087-0.388,0.144-0.647,0.144-0.647c-0.676,1.094-0.963,1.995-1.065,2.852c-0.097,0.864-0.006,1.693,0.015,2.556        c-0.572,0.251-1.084,0.816-1.521,1.69c0,0,0.098,1.274,0.194,2.549c0.04,1.287,0.08,2.575,0.08,2.575        c-0.881,0.329-0.685-2.502-2.102,0.449c0.061,2.415,2.248-1.562,1.561,2.191c-1.57,1.979-1.96,1.095-2.214,3.958        c-0.604,0.197-0.64-0.446-0.5-1.559c-0.289,2.519-2.094,6.187-1.617,7.75c-0.899,0.973-1.669,2.915-2.383,4.518        c-0.71,1.603-1.369,2.857-2.128,2.391c0.036,0.439-0.06,1.585-0.31,2.875c-0.271,1.281-0.664,2.719-1.119,3.768        c-0.065-2.331-1.006-0.415-2.121,1.831c-1.078,2.265-2.536,4.774-3.272,3.783c0.129,1.783-0.906,4.378-2.292,7.129        c-1.423,2.733-3.006,5.711-3.957,8.324c0.026-0.338,0.07-1.008,0.4-1.374c-1.713,2.565-2.662,3.041-3.979,4.55        c0.569,0.572,0.322,1.938-0.145,3.498c-0.498,1.543-1.21,3.282-1.499,4.639c-3.304,2.383-0.32-2.928-2.187-2.698        c1.177,0.514-2.439,6.213-0.87,5.707c-2.397,1.888-1.772,1.821-3.683,2.333c1.342,1.512-1.218,2.416-1.573,5.081        c-3.217,2.865-2.128-0.175-4.297,3.915C357.891,281.707,359.681,277.982,359.681,277.982z M288.354,360.806        c-0.007-0.008-0.012-0.014-0.015-0.017c0.699-0.639,1.295-1.184,1.675-1.531C289.668,359.58,289.188,360.027,288.354,360.806z         M281.326,366.798c0.891-0.687,1.966-1.584,3.095-2.543c0.499,0.089,0.488,0.619-0.238,1.203        C284.403,364.934,282.592,366.168,281.326,366.798z M301.311,359.767c-0.987,1.124-1.515,1.283-1.819,1.249        c0.515-0.478,1.095-1.059,1.837-1.843c0.003-0.061,0.037-0.155,0.036-0.22C301.404,359.208,301.42,359.466,301.311,359.767z" style="fill:#373737;"/><path d="M302.288,356.877c0.142-0.162,0.196-0.277,0.396-0.473c-0.289,0.131-0.561,0.263-0.822,0.409        c-0.052,0.211-0.104,0.426-0.15,0.614C301.905,357.242,302.107,357.049,302.288,356.877z" style="fill:#373737;"/><path d="M285.23,170.113l-0.114,0.166c0.116-0.127,0.226-0.243,0.335-0.298        C285.342,170.074,285.311,170.057,285.23,170.113z" style="fill:#373737;"/><polygon points="197.792,328.704 197.527,328.805 198.018,329.494       " style="fill:#373737;"/><path d="M323.764,137.53c0.131,0.043,0.345,0.048,0.715-0.044        C324.419,137.432,324.121,137.471,323.764,137.53z" style="fill:#373737;"/><path d="M343.957,130.142l3.047-0.268C345.681,129.937,344.719,130.03,343.957,130.142z" style="fill:#373737;"/><path d="M360.282,128.51c0.201-0.201,0.259-0.351,0.31-0.487c-0.013-0.003-0.022-0.003-0.032-0.008        L360.282,128.51z" style="fill:#373737;"/><path d="M272.331,295.512c-0.114,0.015-0.227,0.029-0.336,0.043l-0.16,0.028l-0.04,0.008l-0.019,0.004        l-0.01,0.002l-0.339,0.015l-0.146,0.005c-1.479,0.033-1.715-0.047-1.312,0.02c0.205,0.015,0.574,0.033,1.027,0.03        c0.113-0.002,0.231-0.005,0.354-0.007l0.417-0.017l0.049-0.011l0.099-0.022C272.05,295.577,272.189,295.545,272.331,295.512z" style="fill:#373737;"/><path d="M320.085,227.775c-0.095,0.901-0.252,1.773-0.466,2.684        C320.245,229.109,320.694,228.037,320.085,227.775z" style="fill:#373737;"/><path d="M236.839,210.07c0.009,0.009,0.01-0.001,0.021,0.006c-0.033-0.19-0.062-0.359-0.094-0.549        L236.839,210.07z" style="fill:#373737;"/><path d="M318.016,234.04c0.815-1.271,1.356-2.445,1.604-3.581        C319.137,231.573,318.363,232.83,318.016,234.04z" style="fill:#373737;"/><path d="M406.646,168.271l0.007,0.772c0.073-0.016,0.137,0.028,0.187,0.084L406.646,168.271z" style="fill:#373737;"/><path d="M406.839,169.127l0.144,0.861C406.978,169.591,406.967,169.246,406.839,169.127z" style="fill:#373737;"/><path d="M407.288,171.811l-0.306-1.823C406.986,170.619,406.961,171.396,407.288,171.811z" style="fill:#373737;"/><path d="M401.548,148.104l-0.472,0.002C401.214,148.173,401.369,148.18,401.548,148.104z" style="fill:#373737;"/><path d="M397.838,143.014c0.421,0.626,0.866,1.475,1.31,2.39c0.41,0.943,0.956,1.854,1.553,2.7        l0.376,0.001c-0.255-0.134-0.47-0.479-0.678-0.936c-0.238-0.437-0.471-0.987-0.716-1.554c-0.231-0.577-0.52-1.138-0.844-1.596        C398.523,143.555,398.19,143.182,397.838,143.014z" style="fill:#373737;"/><path d="M376.328,125.1c0,0,0.357,0.099,0.894,0.246c0.529,0.175,1.234,0.407,1.938,0.64        c0.708,0.219,1.399,0.489,1.915,0.697c0.518,0.203,0.862,0.338,0.862,0.338c-0.835-0.733-1.992-1.73,0.651-0.967        c-1.701-0.913-2.503-1.268-2.835-1.313c-0.331-0.062-0.191,0.139-0.073,0.369C379.912,125.593,380.076,126.104,376.328,125.1z        " style="fill:#373737;"/><path d="M358.103,123.026c3.18-0.347-0.063-0.644,0.088-0.884        C356.171,122.66,355.706,122.789,358.103,123.026z" style="fill:#373737;"/><path d="M292.818,191.639l-0.028,1.06C294.855,192.05,292.722,192.307,292.818,191.639z" style="fill:#373737;"/><path d="M317.021,192.256c0,0-0.37-0.573-0.739-1.146c-0.193-0.291-0.386-0.581-0.53-0.798        c-0.163-0.201-0.272-0.335-0.272-0.335s-0.4-0.012-0.801-0.023c-0.391-0.002-0.781-0.004-0.781-0.004s0.203,0.13,0.508,0.326        c0.298,0.206,0.731,0.44,1.104,0.75C316.266,191.641,317.021,192.256,317.021,192.256z" style="fill:#373737;"/><path d="M316.447,207.79l-0.27-0.849c0,0,0.214,0.819,0.427,1.638c0.182,0.834,0.317,1.695,0.317,1.695        s-0.099-0.629-0.197-1.259c-0.035-0.317-0.139-0.614-0.186-0.845C316.484,207.942,316.447,207.79,316.447,207.79z" style="fill:#373737;"/><path d="M242.297,183.695l-1.107,0.94C241.708,186.181,243.164,186.264,242.297,183.695z" style="fill:#373737;"/><path d="M183.863,123.707c-0.6-0.123-1.586-0.049-2.598,0.201c-1.003,0.265-1.996,0.766-2.656,1.367        c1.03-0.369,2.069-0.688,3.013-0.898C182.564,124.163,183.365,123.968,183.863,123.707z" style="fill:#373737;"/><polygon points="180.629,308.276 179.665,306.613 181.062,309.881       " style="fill:#373737;"/></g></g></g><g><g><g><path d="M431.135,31.842c-0.919,0.309-0.46,1.087,2.12,1.111c0,0,0.485-0.3,0.97-0.6        c0.492-0.28,0.984-0.56,0.984-0.56s-1.021-0.035-2.041,0.003C432.151,31.819,431.135,31.842,431.135,31.842z" style="fill:#373737;"/><path d="M447.65,37.198c1.517,0.1,3.155,0.281,4.289,0.129c1.116-0.116,1.704-0.49,1.003-1.444        c-1.665,0.059-2.604-0.083-3.587-0.195c-0.991-0.068-2.011-0.174-3.755,0.144c-2.486-0.528-4.235-1.425-3.717-1.827        c-0.941,0.116-3.903-1.028-5.387-0.349c3.179,1.43,7.155,2.234,11.595,2.757C448.902,36.969,447.923,37.026,447.65,37.198z" style="fill:#373737;"/><path d="M482.43,263.121l0.207-1.573C482.536,261.977,482.472,262.517,482.43,263.121z" style="fill:#373737;"/><path d="M476.961,414.866c0.004-1.157-0.111-1.643-0.229-1.706        C476.785,414.236,476.838,415.119,476.961,414.866z" style="fill:#373737;"/><path d="M470.984,438.622c0.234-0.464,0.432-0.854,0.644-1.276        C471.301,437.801,471.024,438.276,470.984,438.622z" style="fill:#373737;"/><path d="M482.43,263.121l-0.542,4.042C482.311,267.461,482.272,265.095,482.43,263.121z" style="fill:#373737;"/><path d="M478.196,53.219c-0.626-0.646-1.243-1.091-1.826-1.475c0.545,0.493,1.08,0.966,1.578,1.507        C478.027,53.232,478.096,53.217,478.196,53.219z" style="fill:#373737;"/><path d="M483.448,196.185l0.036-1.234c-0.139-0.367-0.311-0.712-0.506-1.04L483.448,196.185z" style="fill:#373737;"/><path d="M484.85,144.834c-0.085,1.159,1.025,1.598,1.503,2.058c-0.442-0.67-0.636-1.535-0.691-2.556        C485.448,144.311,485.188,144.454,484.85,144.834z" style="fill:#373737;"/><path d="M481.365,65.373c0,0-0.209-0.288-0.418-0.575c-0.204-0.29-0.429-0.566-0.428-0.567        C480.763,64.514,481.095,65.036,481.365,65.373z" style="fill:#373737;"/><path d="M482.057,232.927c-0.17,0.082-0.322,0.261-0.417,0.455        C481.781,233.386,481.921,233.207,482.057,232.927z" style="fill:#373737;"/><path d="M371.734,26.847c-0.044,0.079,0.014,0.132-0.003,0.201        C372.034,26.946,372.129,26.87,371.734,26.847z" style="fill:#373737;"/><path d="M431.012,34.792l-0.828,0.027c-0.095,0.209-0.195,0.414-0.203,0.622L431.012,34.792z" style="fill:#373737;"/><path d="M439.763,467.968c0.081-0.024,0.109-0.033,0.186-0.056        C440.941,467.349,440.359,467.621,439.763,467.968z" style="fill:#373737;"/><path d="M37.988,440.008c-0.144,2.35-0.756,0.574-1.321-0.974c-0.302-0.775-0.528-1.459-0.737-1.526        c-0.197-0.063-0.414,0.486-0.404,2.306c0.185-0.364,0.806,1.187,1.476,2.026C37.664,442.688,38.14,442.872,37.988,440.008z" style="fill:#373737;"/><path d="M479.005,54.378c0.5,0.534,0.949,1.132,1.408,1.72C479.815,55.28,479.395,54.74,479.005,54.378        z" style="fill:#373737;"/><path d="M35.525,439.813c-0.004,0-0.009,0.001-0.009,0.001l0.005,0.749        C35.523,440.253,35.524,440.078,35.525,439.813z" style="fill:#373737;"/><path d="M333.192,476.604c0.232,0.189,0.674,0.322,1.134,0.447        C334.285,476.938,334.026,476.807,333.192,476.604z" style="fill:#373737;"/><path d="M414.633,474.947l-2.02-0.07C413.415,474.947,414.063,474.957,414.633,474.947z" style="fill:#373737;"/><path d="M291.006,479.879c-1.1-0.042-1.477-0.182-2.966,0.029c0.14,0.051,0.279,0.086,0.46,0.118        C289.034,479.851,289.752,479.751,291.006,479.879z" style="fill:#373737;"/><path d="M247.028,481.646c0.237,0.076,0.547,0.128,0.821,0.193c0.435-0.036,0.943-0.078,1.392-0.116        L247.028,481.646z" style="fill:#373737;"/><path d="M238.063,22.042c0.951,0.354,1.537,0.727,1.991,1.091        C239.408,22.307,245.88,22.28,238.063,22.042z" style="fill:#373737;"/><path d="M477.738,53.656c0.39,0.015,0.755,0.223,1.267,0.722c-0.364-0.389-0.716-0.763-1.057-1.127        C477.734,53.26,477.598,53.344,477.738,53.656z" style="fill:#373737;"/><path d="M289.572,488.813l-6.995,0.114C284.535,488.958,287.078,488.914,289.572,488.813z" style="fill:#373737;"/><path d="M19.718,144.677l-0.181-1.602C19.53,143.695,19.578,144.263,19.718,144.677z" style="fill:#373737;"/><path d="M261.85,489.923c-1.264-0.347-2.594-0.523-3.966-0.619c-0.285,0.099-0.612,0.185-0.8,0.322        L261.85,489.923z" style="fill:#373737;"/><path d="M240.068,23.146c-0.014-0.005-0.013-0.012-0.013-0.012S240.054,23.14,240.068,23.146z" style="fill:#373737;"/><path d="M286.198,22.317c-6.657-0.298-3.186,1.32-4.632,2.112c-7.963,0.101-3.634-1.235-6.309-2.098        c-4.978,0.192-8.837,1.395-12.535,1.189c-0.266-0.254-0.982-0.372-0.126-0.642c-5.293,0.964-15.574-0.565-21.746,0.665        c-0.449-0.149-0.673-0.282-0.783-0.398c0.961,0.779,1.082,1.537,0.859,2.063c-2.986-0.094-5.576,0.711-6.661-0.299        c1.829,0.102,1.995-0.282,2.865-0.549l-3.144,0.295c-2.76-1.5,4.288-0.31,4.33-1.337c-6.117,0.208-13.27,1.072-17.927,0.493        c-0.922-1.396,10.945-0.02,4.757-1.476l7.21,0.808c-5.44-2.362,4.387,0.326-0.598-2.168c-9.499-0.774-10.67,0.266-20.146-0.51        c-2.167,0.669,0.661,1.145-1.505,1.813c-13.544,0.816-10.483-3.838-20.474-2.427c-2.604,0.802-3.668,2.479-10.693,1.289        l2.469-1.438c-9.206-0.52-5.348,1.996-14.954,0.578c1.739-0.535,7.261-0.219,5.874-0.457        c-6.202-1.462-4.455,0.693-9.261,0.501l-0.94-1.399c-9.817-0.178-20.659,0.371-31.532,0.185        c0.617-0.38,2.496-0.731-0.028-1.249c-13.728,0.131-29.239-1.335-42.421-2.67l-5.095,0.971        c-1.173-0.061-2.157-0.617-0.878-0.793c-0.321-0.038-0.603-0.07-0.85-0.099c-0.296-0.018-0.55-0.034-0.768-0.047        c-0.364-0.015-0.606-0.007-0.759,0.019c-0.306,0.051-0.258,0.173-0.126,0.325c0.263,0.304,0.859,0.726-0.384,0.938        c-1.419-0.007-2.556-0.104-2.958-0.319c-0.415-0.208-0.173-0.496,0.875-0.706c-2.609,0.303-5.503,0.776-8.67,1.509        c-3.151,0.755-6.494,1.763-9.754,3.007c-6.539,2.482-12.602,6.012-17.024,8.692c0,0,0.345-0.376,0.691-0.753        c0.34-0.386,0.714-0.73,0.714-0.73c-1.697,1.093-2.902,2.131-3.789,3.163c-0.449,0.51-0.842,0.993-1.192,1.472        c-0.327,0.498-0.637,0.97-0.945,1.438c-1.214,1.88-2.297,3.646-5.024,6.127c0,0,0.175-0.31,0.349-0.619        c0.188-0.3,0.377-0.6,0.377-0.6c-5.767,6.407-9.846,14.776-11.989,23.015c-1.095,4.124-1.75,8.218-2.142,12.093        c-0.077,0.97-0.191,1.926-0.252,2.867c-0.059,0.943-0.116,1.869-0.172,2.776c-0.1,1.72-0.224,3.346-0.403,4.899        c1.759,2.3-0.291,16.044,2.096,17.018c-0.902,9.276-1.399,6.642-1.809,19.683c-0.008,3.48,1.622,5.141,1.992,9.432        l-1.23,0.141l1.462,5.797l-1.385,3.148l0.433,4.023c0.026-1.608,0.455-3.429,0.817-3.196        c0.739,6.282-0.416,15.378-1.043,15.552l1.472,14.869c-0.505-0.316-0.748-2.806-1.121-4.77        c1.487,7.917-1.256,1.482,0.106,8.738c0.251-0.985,0.75,0.506,1.003,0.665c-0.64,3.654-0.408,11.925,0.083,18.035        l-0.884-1.149c0.103,11.056,1.08,23.286,1.422,35.69c0.268-4.461,1.77-3.48,2.016,0.153l-1.261,1.492        c0.874,2.325,0.384-3.813,1.507,0.98c-0.017,4.638-1.391,3.158-1.891,0.509l0.614,5.62c-0.38,0.342-0.623-0.974-1.129-1.303        c0.876,2.289-1.026,9.762,0.475,13.057l-0.378,0.328c0.347,12.399,0.957,18.011,1.314,28.109        c1.13,0.165,0.994,4.121,1.99,7.104c-0.144,7.433-0.79,15.696-0.437,24.639c0.74,6.268,1.004,1.807,1.754,4.613        c-1.01,0.493-0.657,9.421-1.525,4.81c0.476,10.729,0.599,13.705,1.822,27.254c0.378-1.484,0.512-3.146,0.886-2.298        c0.24,2.459-0.268,5.618-0.77,5.279l-0.124-0.648c1.974,15.194-1.972,35.255,0.513,47.327l-0.125-0.677l1.476,12.551        c-0.01,5.794-0.87-3.45-1.38,0.853c1.05,6.762,1.142,12.125,1.155,17.19c0.006,2.533-0.007,4.991,0.069,7.514l0.015,0.474        l0.031,0.591l0.067,0.955c0.05,0.645,0.098,1.274,0.174,1.949c0.218,1.423,0.401,2.946,0.792,4.373        c-0.451,2.392-0.179,5.672,0.682,9.346c0.871,3.671,2.424,7.701,4.459,11.587c2.027,3.894,4.526,7.632,7.063,10.955        c2.536,3.329,5.087,6.26,7.137,8.785l-0.051-1.031c2.881,1.702,2.695,2.952,4.538,4.602c0.054-0.657-2.417-2.713-0.57-1.752        c5.511,4.199,11.76,7.599,18.485,9.955c6.691,2.387,14.046,3.479,21.186,3.381c13.288-0.083,26.663,0.018,39.779-0.186        c9.591-0.193,5.291-3.897,17.441-2.683l-3.377,1.457c19.278-2.356,39.551-1.527,58.43-3.628        c-1.116,0.35-1.132,0.746-2.98,0.815c4.037,0.8,14.79-0.544,14.827-1.331c2.952-0.028,0.711,0.682,2.543,1.007        c4.035,0.405,10.021-1.627,12.191-0.759c0.369,0.143-1.115,0.356-1.846,0.46c2.595-0.568,12.184-0.369,9.636-1.375        c7.128,0.243,13.576-1.037,19.27-0.607c3.646-1.386,12.188,0.109,13.293-1.688c-0.437,1.829,12.517,0.961,16.976-0.07        c-1.481,0.607,3.93,0.41,2.199,1.238c5.126-0.23,9.813-0.755,8.881-1.647c9.532,1.785,18.918-2.501,24.349,0.059        c15.193-1.581,29.263-2.802,42.946-3.774c-0.423,1.823-15.138,0.786-14.476,2.655c12.97-1.263,20.405-3.11,33.312-3.19        c3.349,0.112-1.862,0.857-2.978,1.211c12.956-1.262,25.116-0.841,36.632-2.284c-0.025,0.169-1.266,0.402-2.438,0.587        c1.139-0.075,2.465-0.062,3.471-0.131c0.252-0.018,0.483-0.04,0.687-0.069c0.051-0.009,0.1-0.017,0.147-0.024l0.069-0.014        l0.033-0.007l0.009-0.002l0.119-0.007l0.004-0.001l0.017-0.004c0.086-0.021,0.164-0.046,0.233-0.071        c0.276-0.105,0.407-0.248,0.329-0.448c0,0-0.137,0.023-0.344,0.059c-0.052,0.008-0.107,0.018-0.166,0.027l-0.092,0.016        l-0.127,0.009l-0.023,0.004l-0.049,0.007c-0.129,0.018-0.268,0.037-0.405,0.057c-0.553,0.077-1.105,0.155-1.105,0.155        c-0.921-0.261-0.822-0.569-0.15-0.896c0.336-0.163,0.814-0.33,1.382-0.498l0.216-0.063l0.056-0.017l0.027-0.008l0.015-0.004        c0.141-0.008,0.041-0.002,0.073-0.005l0.003-0.001l0.007-0.002l0.112-0.034c0.15-0.045,0.306-0.092,0.465-0.139        c0.317-0.089,0.65-0.182,0.991-0.277c1.334-0.332,2.937-0.825,4.115-1.185c1.176-0.417,2.009-0.768,2.084-0.937        c-1.755,1.478,1.167,1.196,3.832,0.787c2.624-0.445,5.078-0.832,2.326,1.469c1.531-0.536,3.301-1.586,2.783-1.976        c1.148-0.27,1.909-0.446,2.143-0.342c0.229,0.096-0.061,0.487-1.108,1.169c2.028-0.838,3.327-1.48,4.235-2.045        c0.913-0.557,1.479-0.937,1.998-1.354c1.043-0.816,2.049-1.45,5.409-3.395c0.089,0.179-0.184,0.503-0.539,0.888        c-0.364,0.368-0.817,0.787-1.064,1.188c0.793-0.633,1.559-1.297,2.347-1.992c0.79-0.675,1.611-1.377,2.497-2.134        c1.776-1.479,3.805-3.114,6.386-5.123c-0.146,0.435,0.65,0.188-0.857,1.448c4.317-3.676,7.25-7.589,9.906-11.699        c1.29-2.091,2.582-4.197,3.821-6.505c1.269-2.29,2.571-4.726,3.919-7.468c0.083,2.003,0.618,1.112,1.351-0.319        c0.698-1.44,1.522-3.419,2.31-3.512c0,0,0.103-0.413,0.256-1.032c0.152-0.619,0.367-1.439,0.516-2.276        c0.159-0.835,0.337-1.661,0.436-2.289c0.093-0.628,0.153-1.048,0.153-1.048s-0.319,0.62-0.639,1.24        c-0.348,0.604-0.694,1.21-0.694,1.21c1.576-5.646,0.88-11.042,1.473-15.756c0,0,0.121,1.034,0.243,2.069        c0.114,1.054,0.193,2.164,0.193,2.164s0.021-0.686,0.055-1.713c0.005-0.977,0.01-2.279,0.016-3.581        c0.011-2.6,0.021-5.199,0.021-5.199l-0.75,5.862c-0.594-5.633-1.907,0.542-1.261-6.825c0.106,1.505,0.192-5.545,1.162-8.407        c0,0-0.001,0.019,0.003,0.019c-0.39-2.757-0.802-5.594-0.303-9.683c0.51-1.05,1.623,0.909,1.963,0.227        c-1.162-2.745,0.06-12.996-1.163-16.464c0.277,1.151,1.059,1.235,1.229,0.864l-0.942-2.302        c0.404-2.559,0.573-2.93,1.186-2.493c0.427-7.718-1.971,2.396-0.868-6.748c0.06,0.723,0.222,0.383,0.329,1.888        c0.713-9.196-0.087-17.813,0.676-26.259c1.58-2.448,0.137,7.405,1.493,4.587c0.109-12.209-1.012-25.32-0.288-37.115        l-0.234,2.196c-2.069-1.704,1.322-8.76,0.509-14.764c0.111,1.469,1.117,1.954,0.894,1.553        c0.594-8.076-0.005-16.547-0.289-28.819l0.498,1.535c0.635-4.751,0.672-12.541,1.081-17.679        c-0.496-1.544-0.315-4.486-1.164-2.722c3.598-15.773-0.717-30.325,2.308-44.326c-0.047,1.684,0.351,4.028,0.396,2.689        l-0.128-12.01c-0.953,0.92-0.608,1.556-1.406,4.051c-0.5-1.535-0.819-4.934-0.726-7.906c0.443,5.413,1.484,0,2.072-2.313        c-0.295,0.381-0.582-0.427-0.876-0.239c1.839-6.214-1.826-1.108-0.452-9.628l0.472,0.469        c-0.148-3.209-0.697-6.178-0.451-9.628c1.114-1.398,0.393,3.423,1.266,3.671c0.09-4.851-1.726-9.631-0.523-13.988        c0.233,2.069,0.146,5.032,0.377,7.101c1.403-4.74,1.103-5.305,1.413-8.849l-0.04,0.348l0.825-8.192l-0.405,2.081        c-2.597-6.156-0.123-12.373-1.693-20.604c1.479,7.998,0.959,1.343,2.151,1.991c0.4-2.076,0.877-5.239,1.189-4.324        c-0.856-3.893,0.97-6.425-0.287-11.923c0.397-0.231,0.167-4.132,1.119-3.229c-0.15-5.032-0.716,1.167-1.191,0.729        c-0.546-3.892,0-8.43,0.498-13.393c0.248-2.482,0.484-5.07,0.566-7.738l0.014-0.501l0.006-0.584l-0.019-1.011        c-0.028-0.69-0.029-1.325-0.114-2.072c-0.161-1.489-0.382-2.981-0.791-4.392c-0.949-4.969-2.292-7.696-3.585-10.237        c-1.329-2.532-2.748-4.882-5.081-8.673c-0.448-1.463,0.17-1.115,0.882-0.351c0.699,0.767,1.513,1.93,1.513,1.93        c-1.668-4.713-3.855-7.916-7.091-11.302c0.843,0.54,0.499-0.422-0.102-1.813c-1.287-1.412-1.967-1.656-2.712-2.027        c-0.742-0.378-1.476-0.94-3.087-2.842c0.901,0.279,2.219,0.499,3.803,1.565c-3.408-3.048-7.267-5.394-11.258-7.678        c-0.64-1.256,2.898,0.713,4.45,1.441c-2.161-1.526-5.061-3.352-7.744-4.587c-2.66-1.279-5.057-2.009-6.003-1.849        c0,0,0.705,0.438,1.409,0.875c0.698,0.446,1.373,0.926,1.373,0.926c-1.671-0.822-0.441-1.277,0.895-0.794        c4.358,1.401,5.319,3.652,5.302,4.073c0,0-0.716-0.392-1.433-0.785c-0.707-0.404-1.445-0.75-1.445-0.75        c0.842,1.833,3.56,3.448,6.6,5.456c3.046,1.97,6.419,4.383,8.515,6.929c0,0-0.757-0.238-1.514-0.475        c-0.766-0.203-1.531-0.407-1.531-0.407s0.346,0.238,0.865,0.595c0.515,0.364,1.173,0.882,1.851,1.394        c0.688,0.503,1.316,1.065,1.811,1.474c0.49,0.414,0.817,0.69,0.817,0.69c0.263,0.696,0.317,1.392,0.074,1.588        c-0.262,0.211-0.772-0.104-1.856-1.249c0.558,1.01,0.955,1.729,1.339,2.255c0.374,0.532,0.73,0.872,1.027,1.231        c0.59,0.714,1.233,1.334,1.783,3.272c0.09,0.443-0.077,0.313-0.331,0.003c0,0,0.164,0.224,0.41,0.559        c0.248,0.335,0.58,0.782,0.876,1.251c0.307,0.465,0.613,0.931,0.844,1.28c0.233,0.349,0.378,0.588,0.378,0.587        c-0.695-0.626-0.727,1.153-1.727-1.346c1.367,3.692,2.736,6.49,3.756,8.859c0.483,1.185,0.913,2.241,1.153,3.206        c0.217,0.969,0.323,1.829,0.141,2.61c0,0-0.053-0.156-0.105-0.313c-0.06-0.154-0.12-0.309-0.12-0.309        c0.313,1.324,0.553,2.333,0.734,3.1c0.155,0.775,0.289,1.306,0.409,1.666c0.239,0.72,0.424,0.754,0.627,0.698        c0.385-0.096,0.97-0.635,1.816,3.635c0,0-0.19,0.353-0.476,0.881c-0.291,0.532-0.652,1.232-1.06,1.923        c-0.798,1.389-1.595,2.778-1.595,2.778l1.187,1.139c-0.08,1.154-0.243,3.436-0.718,2.999c0.701,4.324,0.554-0.717,1.265,1.803        c-1.285,5.524,0.041,15.345-1.943,16.537c0.866,2.024,0.883-5.294,1.343,0.662c-2.146,1.627,0.144,6.873-0.975,11.92        c-1.031-1.593-0.309-6.387-1.432-1.334c1.729,3.121-0.709,9.876-0.493,14.171c1.446,0.247,0.314,9.335,0.574,16.537        c-0.474-0.469-1.221,13.502-1.955,20.173l-0.237-0.205c1.428,1.339,0.935,8.229,1.082,13.262        c-0.874-0.225-1.191-1.139-1.5-3.872l-0.141,4.72c0.436,1.129,0.638,2.609,0.71,5.678l-1.06-1.222        c-0.137,6.286,0.896,12.695-0.089,20.759c1.01,0.486,3.051-6.341,3.468,2.229c-0.563,0.299-1.52,0.586-1.677-1.659        c0.051,0.736,0.378,2.629,0.096,4.099l-0.824-3.446c-0.524,3.67,0.718,1.951,0.539,4.893c-0.788-0.084-0.632,2.161-1.245,1.72        c-0.053-0.755,0.407-2.559,0.133-3.696c-0.246,3.316-0.84,7.315-1.479,8.622c0.458-0.275,1.063,0.033,1.09,2.467        c-0.139,6.286-1.018,2.122-1.537,5.773c0.5,1.54-0.193,5.531,0.983,5.674c-0.063,1.839-0.624,2.161-0.967,2.862        c0.42,3.269-0.325,15.196,1.045,11.57l0.108-0.832c0.011,0.157,0.022,0.341,0.035,0.534c0.001-0.027,0,0,0.001-0.027        l-0.001,0.027c0.841,10.696-1.36,22.124-1.187,32.717l-0.394-0.03c0.254,6.33-0.173,14.062,0.536,18.598        c-0.06,1.866-0.859,4.385-1.304,3.572c0.146,4.834,0.572,5.39-0.297,12.341c-0.538-4.874-0.664,1.655-0.35-4.987        c-0.536,6.259-1.213,7.661-0.346,14.429c-0.939-2.325-1.42,4.68-1.211,7.671l0.861-4.372c0.042,3.357-0.139,6.286-0.318,9.26        l-1.279-1.651c-2.02,12.783,2.03,23.231-0.984,32.916c0.824,3.424,0.873-6.951,1.866-3.881        c-0.363,5.897-2.465,11.989-2.526,13.837c-0.99,8.063,1.707,7.606,0.939,16.054c0.507-1.068,1.806-2.052,2.055,4.288        c-0.359,5.902-2.217,7.198-2.48,3.457c0.004-1.418,0.176-2.097,0.335-2.032c-0.113-1.913-0.238-4.424-0.825-2.101l0.45,0.78        c-0.288,1.458-0.482,4.22-0.695,6.375c-0.097,1.107-0.242,1.921-0.382,2.425c-0.142,0.493-0.292,0.619-0.461,0.169        c0.116,2.065,0.176,2.529,0.42,2.091c0.243-0.438,0.475-1.792,0.682-3.338c-0.476,3.536-0.915,6.253-1.465,8.99        c-0.568,2.725-1.265,5.489-2.827,8.794c0.646-0.983,1.548-1.811,1.136-0.716c-1.095,2.481-1.837,3.952-2.253,4.94        c-0.399,0.995-0.531,1.478-0.565,1.891c-0.091,0.814,0.204,1.345-1.695,4.585c-1.482,1.576-1.621,1.006-1.858,0.883        c-0.247-0.129-0.503,0.202-2.529,3.317c-3.238,3.189-1.544-0.07-0.777-1.661c-1.639,2.897-3.903,5.085-6.066,6.748        c-1.063,0.858-2.169,1.523-3.128,2.181c-1.01,0.596-1.882,1.183-2.661,1.687c0,0,0.158-0.145,0.396-0.361        c0.228-0.229,0.531-0.532,0.834-0.837c0.303-0.302,0.604-0.604,0.831-0.832c0.23-0.223,0.369-0.387,0.369-0.387        c-0.705,0.74-1.407,1.348-2.076,1.928c-0.699,0.542-1.382,1.036-2.068,1.538l2.141-0.388        c-1.721,1.094-3.177,2.002-3.355,1.656c-0.695,0.837-0.156,0.952,0.194,1.228c0.344,0.272,0.523,0.739-1.102,2.198        c-0.652,0.271-1.438,0.665-2.266,1.115c-0.816,0.472-1.707,0.938-2.554,1.364c-0.839,0.445-1.673,0.766-2.361,0.968        c-0.689,0.201-1.248,0.248-1.589,0.03c4.097-1.46,3.697-1.764,3.177-1.913c-0.538-0.19-1.211-0.35,1.938-2.049        c-1.152,0.773-2.678,1.523-4.61,2.145c-0.332-0.011,0.162-0.354,0.636-0.636c-3.905,1.045-4.662,1.548-5.435,2.331        c-0.384,0.39-0.772,0.809-1.591,1.242c-0.408,0.221-0.919,0.464-1.59,0.701c-0.677,0.211-1.511,0.438-2.552,0.655        c0.923-0.896-2.195-0.959-3.434-0.671c1.586-0.187,2.081-0.024,1.724,0.42c-0.169,0.207-0.552,0.489-1.062,0.742        c-0.507,0.246-1.163,0.5-1.915,0.729c-0.718,0.004-1.354,0.007-1.924,0.011c-0.291,0.01-0.564,0.02-0.823,0.028        c-0.222,0.014-0.432,0.025-0.629,0.037c-0.92,0.049-1.626,0.144-2.244,0.251c-1.236,0.213-2.122,0.474-3.656,0.503l3.513,0.12        c-1.159,0.756-4.093,0.78-8.169,1.167c-0.371-0.538,3.694-0.527,2.227-0.713c-4.485,1.428-10.3-0.882-16.59,0.212        c-2.949-0.364-0.338-1.322-2.923-1.545c-7.053,1.204-7.715-0.665-15.136,0.394c2.184,0.867,2.551,0.619-2.658,1.759        l12.221-1.161l-7.804,1.701c3.696-0.135,7.776-0.912,9.997-0.838c-3.715,0.928-3.339,0.675-1.538,1.396        c-5.114-1.229-9.994,1.234-15.88,0.502l0.085-2.368c-8.832-0.7-15.569,1.837-27.006,1.7l3.685,0.263        c-1.494,1-7.043,0.413-10.723,0.941c0.312-0.804-2.011-0.997-3.607-1.426c0.216,0.578-8.356,0.28-9.33,1.898l-5.136-0.836        c-9.233-0.057-10.429,2.669-19.299,2.755c2.635-0.964-1.414-1.362,4.495-2.214c-2.958,0.111-5.623,0.073-5.647,0.622        c-1.748-0.426-8.16,1.391-10.909,0.75c-1.233,0.396-1.608,1.239-4.932,1.307c-0.368-0.146-0.001-0.391-0.001-0.391        c0.001,0.391-5.179,0.738-2.241,1.496c-9.21-2.098-25.46,1.197-33.478-0.6c-6.445,0.523-14.212,1.088-20.07,1.38        c0.367-0.251,0.002-0.395,1.115-0.356c-8.113-0.41-4.88,2.464-14.111,2.013c-4.751-1.087,4.856-0.885,1.907-1.251        c-1.379-2.546-11.087,0.798-17.338-0.47l1.493-0.213c-4.767-0.692-11.506,1.445-19.245,1.569c0,0,0.367-0.244,0.03-0.395        c-5.234,1.536-15.226,2.374-22.649,3.04c2.275-1.108,3.358-0.673,1.904-1.648c-3.328,0.279,1.043,1.618-5.599,2.174        c-2.187-0.47-7.007-0.764-7.688-1.84l6.275-0.311c-3.271-1.298-8.123,0.373-11.439,0.258l0.397-0.64        c-9.612,0.587-9.682,2.162-20.027,2.464l1.087,0.429c-5.587,1.781-4.772-0.686-10.361,0.696l-1.769-1.51        c-3.712,0.53-12.998,2.048-19.671,2.612c3.741-1.321,11.539-2.232,16.354-3.121c-3.696,0.136-12.555,0.618-14.449,1.474        c1.484-0.211,3.344-0.673,4.826-0.488c-2.243,0.709-4.849,1.28-7.816,1.698c-2.87,0.405-6.158,0.437-9.713-0.115        c0.833-1.43-3.672-2.167-8.652-4.012c-2.481-0.941-5.075-2.143-7.2-3.46c-2.103-1.355-3.751-2.762-4.412-3.969        c-5.291-2.948-9.619-7.416-13.114-12.603c-3.51-5.212-6.152-11.212-8.22-17.916c-0.421,2.747-0.726,1.786-1.204,0.274        c-0.495-1.493-0.967-3.545-2.074-2.834c-0.463-1.646-0.69-2.81-0.835-3.588c-0.107-0.785-0.118-1.191-0.062-1.354        c0,0-0.003-0.65-0.007-1.625c0.021-0.478,0.044-1.034,0.069-1.631c0.025-0.594,0.041-1.205,0.108-1.898        c0.055-0.674,0.11-1.348,0.162-1.979c0.065-0.601,0.125-1.161,0.177-1.642c0.108-1.009,0.18-1.681,0.18-1.681        c0.319-1.281,0.479-0.444,0.625,0.67c0.073,0.557,0.144,1.184,0.229,1.649c0.042,0.233,0.089,0.426,0.142,0.55l0.02,0.043        l0.01,0.02l0.005,0.009l0.001,0.002h0c-0.002-0.052,0.005,0.117-0.004-0.116l0,0.001l0.003,0.005        c0.015,0.021,0.029,0.038,0.044,0.05c0.03,0.022,0.062,0.025,0.095,0.003c0.003-0.44,0.006-0.837,0.008-1.194        c0.01-0.395,0.019-0.746,0.026-1.061c0.024-0.63,0.062-1.11,0.108-1.486c0.095-0.751,0.229-1.079,0.38-1.326        c0.303-0.493,0.673-0.661,0.924-3.232c-0.844,1.076-1.33-2.656-1.124-7.079l-0.948,6.248        c-1.613-10.783,1.782-9.412,0.179-20.283l0.869,3.428c-0.616-5.583-0.58-20.647-2.703-26.077        c0.254-0.999,0.885-2.325,1.132,0.133c-0.091-13.385-2.949-29.715-2.039-40.144l0.626,0.996        c-0.245-2.49-1.248-4.312-0.736-7.453c0.251,0.153,0.625,0.987,0.627-0.169c-0.244-1.315-1.239-6.599-0.985-9.916l0.754,2.807        c0.407-13.068-2.215-19.976-2.941-30.904c1.761-0.023,2.037-10.306,2.174-15.438l0.254,0.172        c-0.22-15.199-2.203-25.765-3.3-39.814c1.659-8.789-0.053-29.605,0.613-43.673c-0.257,2.156-1.381-0.309-1.63-2.799        c0.262-3.304-1.484-9.07,0.145-8.594l0.003,1.175c1.512-2.527,0.896-9.286,0.787-14.571l-2.137-0.811        c2.672-13.914-2.173-36.192,0.36-43.817c-0.625-3.32-0.738-7.453-1.36-10.745l1.138,0.146        c0.022-9.251,0.032-13.87-0.568-25.289l0.876,2.307c-0.114-6.447-3.499-8.043-3.737-13.986c0,0,0.41-0.462,0.819-0.923        c0.421-0.428,0.842-0.856,0.842-0.856c-0.084-2.613,0.214-5.222,0.6-7.794c0.463-2.565,1.082-5.088,1.853-7.549        c1.569-4.926,3.602-9.574,5.715-14.292c0.124,0.28,0.36,0.791-0.433,2.239c1.219-2.08,4.041-5.781,6.654-8.541        c1.283-1.405,2.468-2.616,3.134-3.551c0.702-0.891,0.879-1.527,0.165-1.678c0.552,0.535,2.528-1.213,5.187-3.252        c2.627-2.075,6.013-4.402,8.546-5.758l-0.376,1.369c0.474-0.399,0.891-0.75,1.268-1.067c0.393-0.3,0.743-0.568,1.07-0.818        c0.662-0.497,1.235-0.931,1.903-1.287c1.328-0.737,2.935-1.486,6.271-2.306c1.623-0.164,1.539,0.615-0.602,0.736        c0.672-0.054,1.232-0.132,1.719-0.205c0.489-0.056,0.901-0.127,1.264-0.21c0.729-0.155,1.26-0.397,1.842-0.564        c0.58-0.183,1.201-0.369,2.09-0.509c0.896-0.112,1.985-0.157,3.652-0.027c0,0-0.161,0.042-0.401,0.105        c-0.238,0.065-0.526,0.173-0.825,0.271c-0.585,0.2-1.17,0.399-1.17,0.399c0.667-0.021,1.244-0.04,1.749-0.056        c0.545-0.007,1.013-0.013,1.422-0.018c0.413-0.012,0.766-0.032,1.08-0.06c0.157-0.017,0.304-0.032,0.443-0.047        c0.07-0.01,0.138-0.019,0.204-0.028l0.049-0.008l0.024-0.003l0.006-0.001l0.003,0c-0.145-0.004-0.039-0.001-0.071-0.002h0.002        l0.012-0.002l0.096-0.013c1.019-0.148,1.715-0.423,3.332-0.774c3.672-0.301,11.017,0.722,11.833,1.763        c0.809-0.583,4.024-1.277,7.438-0.849c0.448,0.399-0.809,0.585-1.441,0.675c9.69,1.147,14.505-0.717,21.146,0.645        c0.123,0.374,0.551,0.576,1.102,0.709c-7.721-0.335-13.936-0.646-13.351-0.703c-0.041,1.026,6.188,1.457,1.17,2.676        c5.038-0.573,13.666-1.913,19.727-1.187c0.29,0.111,0.574,0.22,0.788,0.387l-0.633,0.09c1.399,0.159,2.659,0.113,3.849-0.012        c1.933,0.246,3.162,0.42,5.022,0.509c0.686,0.879,7.135,0.745,10.242,0.911c-0.212-1.134,3.853-0.791,0.075-1.871        c0.492,0.099-0.592,0.11-2.662,0.075c-0.469,0.014-1.02,0.009-1.33,0.063c0.061-0.029,0.135-0.061,0.215-0.09        c-2.042-0.062-4.707-0.142-7.734-0.234c2.48-0.473,5.067-0.85,8.481-0.089c1.625-0.658,3.411-1.331,4.415-1.639        c4.192,1.737,12.362,2.912,13.465,3.924c9.521-0.25,22.389,0.479,28.443-1.393c2.711-0.163,3.08,0.729,4.075,1.102        c-1.567,0.149-3.418,0.043-4.274,0.313c5.418-0.326,16.002,0.429,17.35-0.994c6.778,0.938-3.878,1.204,5.481,1.337l-1.279,0.4        c18.298,3.092,30.052-2.567,50.322,1.273c-1.405-0.242-2.107-0.356-2.387-0.615c23.194,2.264,47.958,0.665,70.814,3.698        c6.503,0.687,7.247-0.227,11.256-0.783l1.363,1.263l6.86-1.12c9.688-0.634,16.591,3.63,28.884,2.19l-1.545-0.876        c4.382,0.33,13.917,0.077,13.146,0.982c0.455-0.13,1.474-0.788,3.171-0.295l0.108,0.637l10.818-0.651        c8.336,0.791-1.407,2.455,10.78,3.065c4.54-0.062,12.977-1.322,11.293-1.813c-1.828-0.104-4.657-0.58-4.77-1.219l4.158-0.163        c0.827-1.831,4.09-3.609-6.033-5.316l-7.135,0.854l-2.247-0.994l5.968,0.182c-3.35-0.985-5.525-0.32-7.949,0.1        c-0.549-0.502-1.531-0.878-2.932-1.113l-7.031,1.499c-0.814-0.762,3.18-1.32-1.477-1.909        c-3.293,0.695,3.063,1.757-2.356,2.084c-3.359-0.982-2.341-1.631-6.351-1.068c-0.54-0.501,0.316-0.773,1.901-0.92        c-3.567,0.433-9.387-0.132-11.256,0.784c-3.493-1.186-11.974-0.208-11.555-1.955c-1.131,0.377-6.296,1.133-9.555,1.076        c6.031-1.871-12.179-0.611-10.515-2.809c-4.479,1.72-15.932,0.206-23.769,0.946c0.441-0.133,1.312-0.404,1.995-0.28        c-4.382-0.333-5.634-0.956-8.439-1.426c-0.627,1.543-7.474,1.628-11.193,2.447c-5.318-1.727,3.338-1.708,1.709-3.227        c0.22,1.28-9.396,0.893-7.608,2.023c-4.076-1.099-3.526-0.595-5.594-1.978c-0.798,1.93-3.842,0.178-7.301,1.245        c-5.914-1.203-1.459-1.896-8.021-1.561C280.355,22.779,286.198,22.317,286.198,22.317z M130.564,19.484        c0-0.011,0-0.019,0-0.022c1.34,0.027,2.483,0.05,3.212,0.065C133.107,19.517,132.18,19.505,130.564,19.484z M117.495,18.979        c1.589,0.107,3.57,0.194,5.666,0.271c0.443,0.407-0.068,0.786-1.383,0.713C122.503,19.732,119.431,19.384,117.495,18.979z         M144.824,27.87c-2.074,0.076-2.758-0.172-3.033-0.414c0.978,0.02,2.121,0.027,3.623,0.01c0.062-0.04,0.187-0.083,0.249-0.128        C145.457,27.545,145.224,27.737,144.824,27.87z" style="fill:#373737;"/><path d="M148.602,26.545c0.299-0.013,0.466-0.054,0.856-0.048c-0.417-0.116-0.818-0.217-1.223-0.302        c-0.257,0.111-0.519,0.224-0.748,0.323C147.863,26.527,148.253,26.537,148.602,26.545z" style="fill:#373737;"/><path d="M482.671,261.273l-0.034,0.274c0.052-0.228,0.103-0.438,0.178-0.572        C482.754,261.157,482.719,261.156,482.671,261.273z" style="fill:#373737;"/><polygon points="18.745,130.133 19.027,130.107 18.747,128.972       " style="fill:#373737;"/><path d="M488.777,189.4c0.104-0.135,0.215-0.402,0.318-0.936        C489.02,188.503,488.904,188.908,488.777,189.4z" style="fill:#373737;"/><path d="M490.002,158.31l0.537-4.386C490.252,155.82,490.101,157.202,490.002,158.31z" style="fill:#373737;"/><path d="M491.306,134.416c-0.188-0.309-0.333-0.4-0.466-0.483c-0.005,0.019-0.008,0.032-0.011,0.046        L491.306,134.416z" style="fill:#373737;"/><path d="M416.579,482.398c-0.32,0.019-0.637,0.046-0.92,0.088        C413.504,482.79,414.973,482.646,416.579,482.398z" style="fill:#373737;"/><path d="M481.656,401.413c0.166,1.209,0.33,2.398,0.417,3.654        C482.223,403.057,482.294,401.493,481.656,401.413z" style="fill:#373737;"/><path d="M290.339,488.803c0.014-0.008-0.001-0.01,0.013-0.02c-0.271,0.011-0.509,0.02-0.779,0.03        L290.339,488.803z" style="fill:#373737;"/><path d="M481.89,410.328c0.286-2.007,0.291-3.691,0.184-5.261        C481.947,406.717,481.771,408.657,481.89,410.328z" style="fill:#373737;"/><path d="M460.725,39.178l-1.054-0.609c-0.018,0.075-0.109,0.095-0.212,0.092L460.725,39.178z" style="fill:#373737;"/><path d="M459.459,38.661c0,0-0.313-0.127-0.627-0.255c-0.311-0.132-0.63-0.245-0.63-0.246        C458.758,38.43,459.229,38.685,459.459,38.661z" style="fill:#373737;"/><path d="M455.525,37.214l2.677,0.946C457.319,37.74,456.234,37.191,455.525,37.214z" style="fill:#373737;"/><path d="M484.333,62.229l0.541,0.122C484.697,62.212,484.518,62.163,484.333,62.229z" style="fill:#373737;"/><path d="M488.912,71.277c-0.368-1.166-0.83-2.63-1.329-4.21c-0.296-0.774-0.617-1.574-0.978-2.363        c-0.365-0.786-0.82-1.532-1.295-2.244l-0.437-0.11c0.657,0.538,1.415,2.287,2.062,4.156        C487.599,68.371,488.195,70.321,488.912,71.277z" style="fill:#373737;"/><path d="M487.071,112.048l0.577-8.049c-0.479,1.395-1.119,3.229-1.109-0.438        C484.926,113.68,487.575,101.495,487.071,112.048z" style="fill:#373737;"/><path d="M485.66,137.022c-0.066-4.336-0.632,0.031-0.871-0.206        C485.1,139.576,485.18,140.244,485.66,137.022z" style="fill:#373737;"/><path d="M480.013,317.636l-1.01-0.468C479.045,320.512,479.398,317.213,480.013,317.636z" style="fill:#373737;"/><polygon points="484.219,352.326 484.956,349.098 484.067,347.523       " style="fill:#373737;"/><polygon points="476.297,372.495 476.196,371.032 476.394,376.612       " style="fill:#373737;"/><path d="M254.811,480.339l1.059,1.22C258.117,481.242,258.533,479.808,254.811,480.339z" style="fill:#373737;"/><path d="M123.95,486.857c-1.451-0.572-5.149-0.83-7.395-0.12        C119.503,486.706,122.458,487.08,123.95,486.857z" style="fill:#373737;"/><polygon points="29.848,164.576 30.346,167.197 29.851,162.244       " style="fill:#373737;"/></g></g></g></g></g></g><g id="Layer_1"/></svg>