<?xml version="1.0" ?><!DOCTYPE svg  PUBLIC '-//W3C//DTD SVG 1.1//EN'  'http://www.w3.org/Graphics/SVG/1.1/DTD/svg11.dtd'><svg height="512px" style="enable-background:new 0 0 512 512;" version="1.1" viewBox="0 0 512 512" width="512px" xml:space="preserve" xmlns="http://www.w3.org/2000/svg" xmlns:xlink="http://www.w3.org/1999/xlink"><g id="apple_._mac__x2C_iphone_x2C__logo"><g><g><g><path d="M118.009,374.9      c0.604-0.967-63.366-36.741-62.083-38.794c0,0,38.312,20.55,38.899,19.61L50.198,327.83c0,0,32.79,15.845,32.902,15.665      c0,0-38.688-23.491-38.38-23.983c0.576-0.921,30.777,15.507,30.777,15.507c0.037-0.059-32.073-20.041-32.073-20.041      c0.358-0.573,26.533,12.953,26.596,12.853c0.594-0.951-30.435-19.018-30.435-19.018c0.449-0.719,25.73,11.113,25.73,11.113      c0.439-0.703-29.323-17.309-28.867-18.038c0,0,23.646,9.923,23.761,9.74c0.36-0.576-26.292-15.999-26.099-16.308      c0,0,22.379,9.162,22.461,9.03c0.157-0.251-24.878-15.546-24.878-15.546c0.371-0.593,22.612,10.915,22.718,10.746      c0.239-0.383-23.297-14.559-23.297-14.559c0.238-0.38,22.38,10.432,22.38,10.432c0.066-0.106-22.502-14.061-22.502-14.061      s20.634,9.752,20.798,9.488l-21.818-13.633l19.471,8.049c0.057-0.091-20.6-12.872-20.6-12.872      c0.027-0.044,18.783,8.549,18.998,8.204c0.011-0.017-20.802-12.117-20.406-12.751c0.204-0.326,20.076,8.601,20.343,8.174      c0.202-0.323-20.98-12.437-20.677-12.921c0.331-0.529,18.345,7.199,18.345,7.199c0.428-0.685-19.854-11.753-19.561-12.223      l18.585,6.777c0,0-18.313-11.059-18.14-11.335c0,0,18.125,8.757,18.43,8.27c0.014-0.023-18.868-11.194-18.6-11.623      c0.172-0.276,18.826,8.093,18.826,8.093c0.282-0.452-18.438-11.522-18.438-11.522l18.055,7.596      c0.163-0.261-18.889-11.796-18.886-11.801c0.25-0.399,17.96,7.785,18.012,7.702c0.296-0.473-18.315-10.825-18.037-11.271      c0,0,17.503,7.107,17.51,7.094c0.215-0.343-17.132-10.174-16.894-10.556c0.016-0.026,17.124,6.191,17.124,6.191l-16.822-10.512      c0.1-0.16,16.95,6.459,17.104,6.213c0.118-0.189-17.137-9.943-16.793-10.494c0.1-0.16,17.187,6.474,17.295,6.302      c0,0-15.615-9.162-15.347-9.59c0,0,16.471,7.207,16.514,7.138l-16.053-10.031l15.281,6.201l-15.009-9.378      c0,0,15.971,5.78,16.121,5.54c0,0-15.783-9.502-15.621-9.761c0,0,16.8,6.301,16.868,6.191c0.156-0.25-15.12-9.448-15.12-9.448      l15.652,5.945c0.105-0.167-16.081-9.527-15.846-9.902c0,0,16.681,6.526,16.867,6.229c0,0-15.174-8.872-14.9-9.31l14.656,5.238      l-13.458-8.41c0,0,15.548,5.336,15.746,5.02c0.191-0.306-15.747-9.503-15.596-9.746c0,0,15.734,5.992,15.942,5.66      c0.224-0.359-14.688-8.679-14.464-9.038c0,0,14.843,5.544,14.928,5.409c0.282-0.451-13.322-8.324-13.322-8.324l15.174,4.959      l-13.772-8.606c0.11-0.176,16.138,5.114,16.138,5.114c0.265-0.424-14.836-8.651-14.558-9.097l14.967,5.746      c0.1-0.16-14.524-8.749-14.377-8.984c0.176-0.281,15.395,5.272,15.395,5.272c0.276-0.441-13.554-8.469-13.554-8.469      c0.237-0.381,16.069,6.62,16.153,6.485c0.193-0.308-13.848-8.607-13.827-8.64c0.007-0.012,14.284,5.397,14.536,4.995      l-13.932-8.706c0.196-0.313,16.104,6.907,16.104,6.907l-14.033-8.769c0,0,14.654,6.482,14.882,6.117      c0,0-13.602-8.477-13.592-8.493c0.285-0.456,14.779,4.604,14.779,4.604c0.062-0.099-13.118-7.793-12.937-8.084      c0.157-0.25,14.941,4.289,14.941,4.289s-12.553-7.374-12.341-7.712c0.029-0.047,14.425,6.271,14.626,5.949      c0.191-0.306-14.37-8.854-14.313-8.944l15.53,5.646c0.033-0.052-12.53-7.485-12.375-7.733c0.145-0.231,13.932,4.786,13.97,4.724      c0.03-0.048-12.792-7.994-12.792-7.994s15.288,5.388,15.477,5.085c0.164-0.263-12.091-7.555-12.091-7.555l15.159,4.388      c0,0-13.053-7.74-12.865-8.04c0.137-0.22,14.447,4.579,14.447,4.579c0.249-0.397-12.442-7.774-12.442-7.774      c0.145-0.232,15.365,5.372,15.635,4.94c0,0-13.798-8.451-13.721-8.574c0,0,15.058,4.97,15.231,4.692      c0.207-0.332-12.591-7.765-12.544-7.838c0.245-0.393,15.476,5.611,15.515,5.548L73.744,130.8      c0.168-0.269,15.203,4.499,15.203,4.499c0.07-0.113-13.024-8.139-13.024-8.139c0.103-0.166,16.287,7.009,16.441,6.762      l-14.437-9.021c0.256-0.411,17.09,5.942,17.199,5.768c0,0-12.976-7.647-12.769-7.979c0.159-0.255,13.975,5.477,13.975,5.477      l-12.283-7.675c0,0,16.109,5.572,16.417,5.08c0.054-0.087-14.195-8.87-14.195-8.87c0.035-0.056,16.411,5.699,16.411,5.699      c0.262-0.419-13.575-8.483-13.575-8.483s15.802,7.319,16.125,6.802c0.005-0.008-13.354-8.345-13.354-8.345l16.545,5.948      c0.024-0.039-13.51-8.442-13.51-8.442c0.261-0.418,15.757,6.108,15.934,5.826l-13.033-8.144      c0.088-0.142,16.102,4.885,16.102,4.885L100,103.753c0.102-0.163,16.803,6.361,16.803,6.361      c0.149-0.238-12.628-7.891-12.628-7.891c0.198-0.316,15.151,5.317,15.151,5.317c0.108-0.173-12.68-7.589-12.529-7.829      c0.282-0.453,15.995,7.012,16.178,6.719c0.081-0.129-14.165-8.852-14.165-8.852l16.688,5.385      c0.054-0.086-13.482-8.262-13.409-8.379c0.283-0.454,15.791,7.002,16.019,6.637c0.043-0.069-13.021-8.137-13.021-8.137      c0.179-0.287,16.149,7.191,16.366,6.844c0.171-0.273-13.906-8.53-13.834-8.645l17.125,5.85      c0.251-0.402-13.426-7.84-13.179-8.235c0.194-0.311,16.486,6.275,16.486,6.275c0.053-0.085-14.353-8.622-14.197-8.871      c0,0,16.246,7.017,16.475,6.651c0.222-0.356-12.881-8.049-12.881-8.049s17.002,7.363,17.314,6.864      c0.268-0.429-13.868-8.57-13.825-8.639c0.314-0.503,16.788,5.626,16.788,5.626s-13.963-8.622-13.917-8.696      c0.287-0.458,17.826,6.116,17.826,6.116s-12.978-7.413-12.665-7.914c0.045-0.072,16.11,6.735,16.11,6.735      c0.206-0.33-13.91-8.406-13.782-8.612c0.073-0.116,17.247,6.244,17.419,5.968c0,0-13.602-8.146-13.443-8.4l16.529,6.938      l-13.679-8.548c0,0,17.763,7.544,17.904,7.318c0.247-0.395-14.659-8.731-14.466-9.04c0.04-0.064,18.548,7.076,18.629,6.947      l-14.186-8.864c0,0,19.413,7.359,19.526,7.178c0,0-14.795-9.224-14.786-9.239c0.213-0.341,17.788,8.125,18.043,7.717      c0.319-0.511-15.135-9.458-15.135-9.458l19.229,7.379l-14.708-9.19l18.46,8.076l-14.99-9.366      c0.039-0.063,18.97,7.169,19.021,7.088c0.138-0.22-14.506-8.505-14.254-8.907c0.264-0.422,18.417,8.729,18.776,8.154      l-15.714-9.819c0.206-0.329,19.499,8.091,19.499,8.091c0.039-0.062-14.814-9.257-14.814-9.257      c0.36-0.576,19.568,8.508,19.568,8.508L186.4,54.832l22.011,9.287c0.05-0.08-17.338-10.834-17.338-10.834      s20.807,9.984,20.854,9.908c0.066-0.105-17.234-10.769-17.234-10.769c0.082-0.131,22.195,9.011,22.195,9.011      c0.302-0.483-16.582-10.362-16.582-10.362c0.294-0.471,21.742,10.884,21.979,10.504c0.15-0.24-18.117-10.529-17.761-11.098      c0.086-0.139,21.661,9.827,21.661,9.827l-17.8-11.123c0,0,24.176,10.558,24.289,10.377l-18.536-11.583      c0.306-0.489,21.789,10.545,21.842,10.46c0.301-0.482-18.199-10.622-17.862-11.161c0.377-0.604,22.417,10.382,22.417,10.382      l-18.251-11.404l24.655,11.676l-21.196-13.245l24.25,11.983c0.001-0.001-19.873-12.417-19.873-12.417      c0.397-0.636,26.28,11.917,26.28,11.917c0.142-0.227-20.651-12.846-20.625-12.888c0.209-0.334,26.959,13.476,26.959,13.476      l-21.449-13.403c0.382-0.611,27.982,12.771,28.096,12.586l-22.188-13.865l29.256,14.776      c0.197-0.316-24.531-15.028-24.396-15.244l30.051,14.639c0.271-0.433-24.4-14.371-24.006-15.001c0,0,32.385,15.7,32.419,15.645      c0.101-0.16-25.101-15.125-24.849-15.527c0.676-1.083,35.763,17.218,35.763,17.218c0.2-0.321-28.211-17.628-28.211-17.628      s34.28,18.817,34.58,18.338c0.24-0.383-29.162-17.555-28.862-18.035l37.582,20.107c0.648-1.037-32.938-19.234-32.332-20.204      c0,0,43.072,23.395,43.519,22.68c0.155-0.248-35.871-22.415-35.871-22.415c0.825-1.321,46.191,26.655,46.79,25.697      c0.345-0.551-40.246-25.148-40.246-25.148c0.649-1.04,56.103,31.058,56.103,31.058c0.712-1.139-48.002-29.995-48.002-29.995" style="fill:none;stroke:#231F20;stroke-width:2;stroke-linecap:round;stroke-linejoin:round;"/><path d="M133.437,402.788      c0.428-0.686-26.493-16.555-26.493-16.555c0.748-1.197,54.693,32.536,55.864,30.662c0.108-0.173-79.703-48.952-79.321-49.564      c0,0,96.943,58.687,98.228,56.632L70.676,354.579c1.097-1.756,121.024,73.354,121.489,72.608c0,0-130.157-77.207-128.304-80.173      c1.549-2.479,141.377,85.86,142.248,84.468c2.247-3.595-148.087-92.535-148.087-92.535      c2.416-3.866,157.512,94.548,157.512,94.548c0.764-1.222-52.959-32.159-52.54-32.83c0.223-0.356,62.441,36.02,63.237,34.745      c0.105-0.168-41.185-25.735-41.185-25.735c0.23-0.368,49.884,28.851,50.87,27.272c0,0-36.698-21.358-35.991-22.489      c0.328-0.525,45.727,24.158,46.043,23.653c0.468-0.749-33.742-20.565-33.508-20.938c0.754-1.208,42.922,23.229,43.395,22.473      c0.081-0.129-31.826-19.887-31.826-19.887c0.646-1.033,37.522,19.839,37.522,19.839c0.302-0.482-28.506-17.813-28.506-17.813      c0.04-0.063,35.326,17.863,35.326,17.863s-26.915-16.795-26.905-16.812c0.602-0.963,34.7,18.183,35.349,17.145l-25.688-16.052      c0.017-0.027,31.304,17.465,31.751,16.75c0.031-0.051-26.199-16.371-26.199-16.371l32.581,16.079      c0,0-25.104-15.184-24.877-15.545l29.32,14.455c0.446-0.714-23.172-14.479-23.172-14.479l30.001,14.299      c0.477-0.762-23.54-14.71-23.54-14.71c0.635-1.017,31.122,14.367,31.122,14.367c0.278-0.444-22.397-13.995-22.397-13.995      c0.424-0.677,26.72,12.509,26.72,12.509s-20.26-12.389-20.139-12.584l26.135,12.776l-22.031-13.767l26.559,12.218      c0.374-0.598-20.831-12.74-20.706-12.939c0.229-0.365,25.257,12.117,25.257,12.117l-20.412-12.755      c0.025-0.04,26.161,12.295,26.44,11.849c0.15-0.242-19.878-12.421-19.878-12.421l26.086,11.193      c0.354-0.568-20.86-12.927-20.812-13.005c0.415-0.665,24.722,12.328,25.205,11.554c0,0-20.237-11.724-19.823-12.387      c0.141-0.226,23.057,11.104,23.363,10.613c0,0-18.145-10.847-17.924-11.2c0,0,21.236,9.939,21.54,9.454      c0,0-18.412-11.253-18.299-11.435c0,0,22.264,11.162,22.618,10.596c0.082-0.132-18.516-11.569-18.516-11.569      c0.025-0.04,22.58,9.622,22.58,9.622l-17.383-10.861l23.302,9.582c0,0-17.725-10.51-17.471-10.916      c0.195-0.313,21.444,8.72,21.553,8.547c0,0-16.893-10.282-16.77-10.479l20.037,9.12c0,0-16.902-9.713-16.521-10.323      l20.221,9.132l-17.675-11.045l21.095,9.354c0.045-0.072-17.918-11.195-17.918-11.195s21.767,8.773,21.921,8.526      c0,0-17.194-10.728-17.188-10.739c0,0,20.459,9.064,20.778,8.553c0,0-16.282-9.773-16.103-10.062      c0.01-0.017,19.063,7.999,19.393,7.471l-15.395-9.619c0.266-0.426,20.686,7.785,20.686,7.785s-17.253-10.555-17.151-10.717      c0.35-0.561,19.556,7.861,19.556,7.861c0.295-0.472-16.137-9.523-15.886-9.926c0,0,19.697,9.065,19.932,8.69      c0.152-0.243-16.472-10.164-16.414-10.257c0,0,19.316,8.851,19.614,8.373c0.275-0.44-16.79-10.491-16.79-10.491l18.764,8.634      c0,0-16.05-9.506-15.814-9.882c0.346-0.553,18.079,7.917,18.359,7.468l-15.447-9.652l17.28,7.137      c0.24-0.385-14.616-9.133-14.616-9.133c0.124-0.198,18.183,8.398,18.475,7.931c0.099-0.156-16.102-10.061-16.102-10.061      c0.177-0.283,17.88,7.713,17.88,7.713c0.267-0.427-16.138-10.084-16.138-10.084c0.189-0.303,19.572,7.922,19.607,7.865      l-15.078-9.422c0,0,17.877,7.268,17.964,7.129c0,0-15.48-9.663-15.476-9.67c0.093-0.148,17.165,6.246,17.409,5.855      c0.275-0.439-14.362-8.975-14.362-8.975s18.322,7.204,18.649,6.68c0.309-0.493-15.404-9.626-15.404-9.626l17.8,6.298      c0.097-0.155-15.296-8.922-15.01-9.38c0,0,16.347,7.168,16.378,7.117c0.247-0.394-15.189-8.868-14.909-9.316      c0,0,16.777,6.842,17.029,6.44c0.266-0.427-13.878-8.672-13.878-8.672c0.311-0.498,16.459,5.527,16.459,5.527      c0.297-0.477-14.589-8.927-14.504-9.063c0.154-0.247,17.037,6.239,17.124,6.1l-14.853-9.281c0,0,16.943,7.305,17.003,7.21      c0.097-0.154-13.89-8.28-13.711-8.566l15.738,6.343c0.062-0.098-14.288-8.928-14.288-8.928l16.984,6.014      c0.008-0.012-15.336-9.559-15.325-9.576c0,0,17.341,6.285,17.447,6.114l-14.922-9.325c0.272-0.436,16.584,7.339,16.776,7.03      c0.063-0.103-14.39-8.991-14.39-8.991c0.144-0.23,15.969,6.069,15.969,6.069c0.077-0.122-14.21-8.542-14.058-8.785      c0,0,16.633,6.578,16.861,6.212l-15.729-9.828c0,0,17.073,7.134,17.263,6.83c0.174-0.277-15.489-8.988-15.179-9.484      c0.117-0.188,15.591,6.297,15.591,6.297c0.101-0.162-14.005-8.752-14.005-8.752c0.264-0.422,17.571,5.991,17.571,5.991      l-15.515-9.695c0.207-0.332,16.218,6.588,16.218,6.588c0.222-0.355-14.394-8.994-14.394-8.994      c0.091-0.146,15.671,5.326,15.914,4.937c0.233-0.374-14.214-8.882-14.214-8.882c0.088-0.141,16.492,5.928,16.543,5.846      c0.03-0.048-15.674-9.795-15.674-9.795c0.153-0.245,16.098,6.737,16.098,6.737l-13.932-8.705      c0.125-0.2,15.762,5.447,15.78,5.417c0.314-0.502-15.256-9.151-15.085-9.426c0.132-0.211,16.415,5.892,16.638,5.536      c0.107-0.173-15.11-9.442-15.11-9.442s15.994,6.501,16.043,6.423c0,0-13.913-8.613-13.877-8.671      c0.171-0.272,15.585,6.305,15.585,6.305c0.019-0.029-14.378-8.984-14.378-8.984s14.906,4.813,15.138,4.442l-14.574-9.106      c0,0,16.059,7.365,16.375,6.859c0,0-15.125-8.788-14.826-9.265c0.099-0.159,15.975,7.336,16.243,6.906      c0.162-0.26-15.702-9.365-15.501-9.687l16.26,5.474l-14.979-9.36c0.132-0.21,16.401,5.077,16.401,5.077      c0.008-0.013-16.807-9.884-16.528-10.328c0,0,17.1,8.198,17.419,7.688l-15.468-9.665l16.153,5.924      c0.049-0.079-16.303-9.734-16.1-10.06c0.276-0.442,16.445,7.688,16.757,7.188l-16.614-10.382l16.331,5.72      c0.309-0.494-15.968-9.368-15.694-9.807c0.166-0.266,17.594,6.461,17.861,6.032c0,0-15.973-9.904-15.938-9.96      c0,0,15.123,5.151,15.17,5.076c0.155-0.248-16.355-9.938-16.229-10.141c0,0,17.765,6.23,17.79,6.189l-15.67-9.791      c0.187-0.299,15.008,6.585,15.265,6.173c0.29-0.464-16.592-10.367-16.592-10.367c0.215-0.345,17.785,6.968,17.995,6.633      l-16.215-10.132c0.21-0.336,16.046,5.12,16.085,5.058c0,0-17.203-10.501-17.091-10.68c0.276-0.443,17.769,6.658,17.769,6.658      c0.091-0.146-16.9-9.873-16.592-10.367l16.047,6.572c0,0-17.377-10.002-16.992-10.618c0.033-0.053,17.683,6.51,17.688,6.502      c0,0-18.212-10.891-17.992-11.243c0.173-0.276,18.006,6.913,18.342,6.375c0,0-17.864-11.12-17.845-11.151      c0,0,16.741,6.595,16.938,6.281c0,0-18.967-11.033-18.6-11.622c0.135-0.215,18.209,7.225,18.209,7.225      s-17.568-10.164-17.202-10.75c0,0,17.241,7.885,17.477,7.51c0.13-0.208-18.809-11.444-18.67-11.666l17.527,7.068      c0.253-0.406-17.765-11.101-17.765-11.101l17.178,5.739l-19.433-12.143c0,0,18.951,8.343,19.089,8.122      c0,0-20.282-12.524-20.215-12.632c0.246-0.393,20.801,9.511,20.801,9.511c0.139-0.223-20.662-12.818-20.621-12.885l19.439,7.346      c0.442-0.708-21.649-13.528-21.649-13.528c0.08-0.129,19.698,9.43,19.82,9.236c0.116-0.186-21.233-13.045-21.134-13.206      c0,0,20.816,8.771,20.965,8.532c0.409-0.654-23.229-14.515-23.229-14.515l20.853,8.362l-22.216-13.882      c0,0,21.135,10.465,21.375,10.081c0,0-23.692-14.377-23.501-14.685c0.104-0.166,22.297,9.29,22.297,9.29      s-25.87-15.578-25.606-16c0.039-0.062,23.383,11.048,23.597,10.706c0,0-26.485-15.265-25.907-16.189      c0,0,23.74,12.519,24.098,11.948c0.415-0.665-27.94-17.459-27.94-17.459s25.795,11.77,25.872,11.646l-30.002-18.747      c0,0,27.438,13.544,27.448,13.527c0.493-0.79-30.986-18.764-30.718-19.194c0.431-0.689,27.729,13.759,28.145,13.092      c0.64-1.022-34.11-19.973-33.508-20.938l29.506,13.717c0.015-0.023-38.276-23.918-38.276-23.918      c0.142-0.226,33.473,17.537,33.683,17.201c0.505-0.809-42.632-25.865-42.284-26.422c0.017-0.027,36.657,19.677,37.359,18.554      c0,0-58.798-34.446-57.767-36.096c0,0,53.319,29.746,53.386,29.64c2.673-4.277-128.486-80.287-128.486-80.287      c1.028-1.645,122.237,71.426,122.237,71.426c2.178-3.485-111.803-65.604-109.89-68.667c0,0,101.595,61.556,102.249,60.509      l-91.063-56.902l81.548,47.17c0,0-69.431-41.528-68.596-42.863c0.64-1.024,48.832,26.253,48.832,26.253      c0.38-0.609-23.562-14.723-23.562-14.723" style="fill:none;stroke:#231F20;stroke-width:2;stroke-linecap:round;stroke-linejoin:round;"/><path d="M255.652,184.907      c0.016-0.024-0.247-0.154-0.247-0.154c0.083-0.133,6.967,0.398,7.098,0.189c0.01-0.016-6.945-4.261-6.91-4.317      c0,0,12.285,3.252,12.429,3.02l-12.079-7.547c0.13-0.209,15.493,6.498,15.548,6.409c0,0-15.452-9.155-15.227-9.515      c0.213-0.34,20.865,8.885,20.984,8.694c0.284-0.455-18.682-11.674-18.682-11.674c0.312-0.5,21.663,9.661,21.663,9.661      c0.304-0.486-21.071-12.796-20.904-13.063c0.081-0.13,23.889,10.803,24.179,10.338c0.057-0.089-21.117-13.196-21.117-13.196      c0.105-0.169,23.859,11.405,24.313,10.679c0,0-22.64-13.151-22.192-13.867c0.171-0.272,24.634,10.641,24.798,10.378      c0.333-0.532-23.865-14.545-23.7-14.81c0.464-0.743,27.064,12.915,27.354,12.45c0.062-0.099-24.244-15.15-24.244-15.15      c0.433-0.693,25.643,12.416,25.643,12.416c0.238-0.382-22.341-13.96-22.341-13.96c0.026-0.042,24.036,10.81,24.036,10.81      s-21.532-13.436-21.523-13.449c0.4-0.642,23.684,10.816,24.116,10.125l-20.147-12.59c0.012-0.019,22.139,11.436,22.45,10.938      c0.024-0.039-20.129-12.578-20.129-12.578l21.417,9.103c0,0-17.539-10.607-17.381-10.861l17.118,6.831      c0.271-0.436-13.757-8.596-13.757-8.596l15.124,5.002c0.223-0.357-11.186-6.989-11.186-6.989      c0.23-0.37,12.189,2.537,12.189,2.537c0.065-0.104-5.163-3.226-5.163-3.226c0.064-0.103,4.47-0.414,4.47-0.414      s-0.426-0.256-0.421-0.263" style="fill:none;stroke:#231F20;stroke-width:2;stroke-linecap:round;stroke-linejoin:round;"/><path d="M212.901,338.438      c0.166-0.266-9.786-6.116-9.786-6.116c0.256-0.41,19.794,9.018,20.196,8.375c0.042-0.066-30.667-18.833-30.519-19.07      c0,0,36.234,18.927,36.698,18.186l-44.542-27.833c0.428-0.685,48.006,27.095,48.187,26.805c0,0-53.346-31.638-52.583-32.858      c0.626-1.001,58.22,32.744,58.571,32.182c0.938-1.503-61.843-38.644-61.843-38.644c0.987-1.579,65.293,36.923,65.293,36.923      c1.002-1.604-69.464-42.183-68.915-43.063c0.261-0.418,72.673,42.712,73.604,41.223c0.19-0.304-75.568-47.221-75.568-47.221      c0.374-0.598,79.792,48.906,81.392,46.346c0,0-85.332-49.749-83.727-52.318c0.668-1.07,90.979,53.164,91.622,52.134      c1.326-2.123-95.998-58.516-95.337-59.573c1.918-3.069,106.15,64.36,107.353,62.438c0.276-0.443-108.436-67.758-108.436-67.758      c2.19-3.506,123.739,73.713,123.739,73.713c1.264-2.022-123.667-77.275-123.667-77.275c0.153-0.245,131.99,78.268,131.99,78.268      s-133.197-83.122-133.147-83.2c2.498-3.998,137.743,87.119,140.437,82.811l-140.797-87.98      c0.08-0.128,143.175,91.08,145.289,87.696c0.176-0.283-145.754-91.078-145.754-91.078l149.554,89.172      c0,0-150.609-91.102-149.256-93.266l151.069,90.533c2.808-4.492-151.216-94.491-151.216-94.491l154.925,92.36      c3.167-5.068-155.174-96.964-155.174-96.964c3.429-5.487,159.133,94.358,159.133,94.358      c1.944-3.111-157.228-98.247-157.228-98.247c2.652-4.245,158.576,94.901,158.576,94.901s-158.183-96.879-157.3-98.292      l160.759,96.898L165.791,228.093l162.304,97.041c2.885-4.617-162.108-99.155-161.146-100.695      c1.551-2.482,163.185,98.304,163.185,98.304l-161.906-101.17c0.166-0.265,163.161,101.392,165.009,98.436      c1.23-1.969-162.536-101.563-162.536-101.563l165.429,98.265c2.938-4.702-164.453-101.863-164.049-102.51      c2.899-4.639,162.517,104.865,165.892,99.464c0,0-166.927-96.499-163.417-102.114c1.054-1.687,162.142,102.43,164.432,98.764      c0,0-163.204-97.789-161.32-100.804c0,0,160.008,101.413,162.451,97.504c0,0-162.341-99.255-161.358-100.828      c0,0,160.83,102.989,163.54,98.653c0.72-1.151-160.998-100.602-160.998-100.602c0.193-0.31,162.243,96.894,162.243,96.894      L184.808,201.94l161.672,96.046c0,0-159.451-94.651-157.21-98.236c1.553-2.485,157.386,95.332,158.243,93.96      c0,0-155.521-94.772-154.438-96.503l138,82.832c0,0-137.771-79.496-134.808-84.237l130.018,77.74l-127.513-79.678      l124.307,73.848c0.316-0.508-120.985-75.6-120.985-75.6s117.208,70.058,118.102,68.628c0,0-112.407-70.133-112.359-70.209      c0,0,109.301,67.941,111.131,65.012c0,0-106.159-63.807-105.022-65.625c0.06-0.096,102.039,63.362,103.949,60.307l-97.396-60.86      c1.369-2.191,98.703,56.537,98.703,56.537s-90.343-55.226-89.792-56.108c1.71-2.737,89.269,51.423,89.269,51.423      c1.398-2.238-78.174-46.198-76.983-48.104c0,0,77.898,47.095,78.878,45.526c0.626-1.002-67.431-41.607-67.193-41.987      c0,0,67.428,40.701,68.53,38.938c1.048-1.677-61.985-38.733-61.985-38.733l62.705,36.093c0,0-59.319-35.153-58.459-36.529      c1.19-1.905,58.642,34.79,59.608,33.243l-55.383-34.607l56.273,31.502c0.814-1.304-52.531-32.825-52.531-32.825      c0.392-0.627,54.693,32.626,55.621,31.143c0.321-0.515-52.098-32.554-52.098-32.554c0.555-0.887,53.348,29.877,53.348,29.877      c0.845-1.351-50.349-31.461-50.349-31.461c0.546-0.874,53.418,29.215,53.519,29.055l-47.2-29.494      c0,0,49.803,27.592,50.058,27.184c0,0-45.474-28.386-45.461-28.407c0.271-0.433,46.963,25.908,47.675,24.767      c0.75-1.199-41.196-25.743-41.196-25.743s45.47,25.359,46.332,23.978c0.763-1.221-38.091-23.802-38.091-23.802l38.85,19.45      c0.182-0.291-29.131-17.004-28.592-17.867" style="fill:none;stroke:#231F20;stroke-width:2;stroke-linecap:round;stroke-linejoin:round;"/></g><g><path d="M118.009,374.9      c0.604-0.967-63.366-36.741-62.083-38.794c0,0,38.312,20.55,38.899,19.61L50.198,327.83c0,0,32.79,15.845,32.902,15.665      c0,0-38.688-23.491-38.38-23.983c0.576-0.921,30.777,15.507,30.777,15.507c0.037-0.059-32.073-20.041-32.073-20.041      c0.358-0.573,26.533,12.953,26.596,12.853c0.594-0.951-30.435-19.018-30.435-19.018c0.449-0.719,25.73,11.113,25.73,11.113      c0.439-0.703-29.323-17.309-28.867-18.038c0,0,23.646,9.923,23.761,9.74c0.36-0.576-26.292-15.999-26.099-16.308      c0,0,22.379,9.162,22.461,9.03c0.157-0.251-24.878-15.546-24.878-15.546c0.371-0.593,22.612,10.915,22.718,10.746      c0.239-0.383-23.297-14.559-23.297-14.559c0.238-0.38,22.38,10.432,22.38,10.432c0.066-0.106-22.502-14.061-22.502-14.061      s20.634,9.752,20.798,9.488l-21.818-13.633l19.471,8.049c0.057-0.091-20.6-12.872-20.6-12.872      c0.027-0.044,18.783,8.549,18.998,8.204c0.011-0.017-20.802-12.117-20.406-12.751c0.204-0.326,20.076,8.601,20.343,8.174      c0.202-0.323-20.98-12.437-20.677-12.921c0.331-0.529,18.345,7.199,18.345,7.199c0.428-0.685-19.854-11.753-19.561-12.223      l18.585,6.777c0,0-18.313-11.059-18.14-11.335c0,0,18.125,8.757,18.43,8.27c0.014-0.023-18.868-11.194-18.6-11.623      c0.172-0.276,18.826,8.093,18.826,8.093c0.282-0.452-18.438-11.522-18.438-11.522l18.055,7.596      c0.163-0.261-18.889-11.796-18.886-11.801c0.25-0.399,17.96,7.785,18.012,7.702c0.296-0.473-18.315-10.825-18.037-11.271      c0,0,17.503,7.107,17.51,7.094c0.215-0.343-17.132-10.174-16.894-10.556c0.016-0.026,17.124,6.191,17.124,6.191l-16.822-10.512      c0.1-0.16,16.95,6.459,17.104,6.213c0.118-0.189-17.137-9.943-16.793-10.494c0.1-0.16,17.187,6.474,17.295,6.302      c0,0-15.615-9.162-15.347-9.59c0,0,16.471,7.207,16.514,7.138l-16.053-10.031l15.281,6.201l-15.009-9.378      c0,0,15.971,5.78,16.121,5.54c0,0-15.783-9.502-15.621-9.761c0,0,16.8,6.301,16.868,6.191c0.156-0.25-15.12-9.448-15.12-9.448      l15.652,5.945c0.105-0.167-16.081-9.527-15.846-9.902c0,0,16.681,6.526,16.867,6.229c0,0-15.174-8.872-14.9-9.31l14.656,5.238      l-13.458-8.41c0,0,15.548,5.336,15.746,5.02c0.191-0.306-15.747-9.503-15.596-9.746c0,0,15.734,5.992,15.942,5.66      c0.224-0.359-14.688-8.679-14.464-9.038c0,0,14.843,5.544,14.928,5.409c0.282-0.451-13.322-8.324-13.322-8.324l15.174,4.959      l-13.772-8.606c0.11-0.176,16.138,5.114,16.138,5.114c0.265-0.424-14.836-8.651-14.558-9.097l14.967,5.746      c0.1-0.16-14.524-8.749-14.377-8.984c0.176-0.281,15.395,5.272,15.395,5.272c0.276-0.441-13.554-8.469-13.554-8.469      c0.237-0.381,16.069,6.62,16.153,6.485c0.193-0.308-13.848-8.607-13.827-8.64c0.007-0.012,14.284,5.397,14.536,4.995      l-13.932-8.706c0.196-0.313,16.104,6.907,16.104,6.907l-14.033-8.769c0,0,14.654,6.482,14.882,6.117      c0,0-13.602-8.477-13.592-8.493c0.285-0.456,14.779,4.604,14.779,4.604c0.062-0.099-13.118-7.793-12.937-8.084      c0.157-0.25,14.941,4.289,14.941,4.289s-12.553-7.374-12.341-7.712c0.029-0.047,14.425,6.271,14.626,5.949      c0.191-0.306-14.37-8.854-14.313-8.944l15.53,5.646c0.033-0.052-12.53-7.485-12.375-7.733c0.145-0.231,13.932,4.786,13.97,4.724      c0.03-0.048-12.792-7.994-12.792-7.994s15.288,5.388,15.477,5.085c0.164-0.263-12.091-7.555-12.091-7.555l15.159,4.388      c0,0-13.053-7.74-12.865-8.04c0.137-0.22,14.447,4.579,14.447,4.579c0.249-0.397-12.442-7.774-12.442-7.774      c0.145-0.232,15.365,5.372,15.635,4.94c0,0-13.798-8.451-13.721-8.574c0,0,15.058,4.97,15.231,4.692      c0.207-0.332-12.591-7.765-12.544-7.838c0.245-0.393,15.476,5.611,15.515,5.548L73.744,130.8      c0.168-0.269,15.203,4.499,15.203,4.499c0.07-0.113-13.024-8.139-13.024-8.139c0.103-0.166,16.287,7.009,16.441,6.762      l-14.437-9.021c0.256-0.411,17.09,5.942,17.199,5.768c0,0-12.976-7.647-12.769-7.979c0.159-0.255,13.975,5.477,13.975,5.477      l-12.283-7.675c0,0,16.109,5.572,16.417,5.08c0.054-0.087-14.195-8.87-14.195-8.87c0.035-0.056,16.411,5.699,16.411,5.699      c0.262-0.419-13.575-8.483-13.575-8.483s15.802,7.319,16.125,6.802c0.005-0.008-13.354-8.345-13.354-8.345l16.545,5.948      c0.024-0.039-13.51-8.442-13.51-8.442c0.261-0.418,15.757,6.108,15.934,5.826l-13.033-8.144      c0.088-0.142,16.102,4.885,16.102,4.885L100,103.753c0.102-0.163,16.803,6.361,16.803,6.361      c0.149-0.238-12.628-7.891-12.628-7.891c0.198-0.316,15.151,5.317,15.151,5.317c0.108-0.173-12.68-7.589-12.529-7.829      c0.282-0.453,15.995,7.012,16.178,6.719c0.081-0.129-14.165-8.852-14.165-8.852l16.688,5.385      c0.054-0.086-13.482-8.262-13.409-8.379c0.283-0.454,15.791,7.002,16.019,6.637c0.043-0.069-13.021-8.137-13.021-8.137      c0.179-0.287,16.149,7.191,16.366,6.844c0.171-0.273-13.906-8.53-13.834-8.645l17.125,5.85      c0.251-0.402-13.426-7.84-13.179-8.235c0.194-0.311,16.486,6.275,16.486,6.275c0.053-0.085-14.353-8.622-14.197-8.871      c0,0,16.246,7.017,16.475,6.651c0.222-0.356-12.881-8.049-12.881-8.049s17.002,7.363,17.314,6.864      c0.268-0.429-13.868-8.57-13.825-8.639c0.314-0.503,16.788,5.626,16.788,5.626s-13.963-8.622-13.917-8.696      c0.287-0.458,17.826,6.116,17.826,6.116s-12.978-7.413-12.665-7.914c0.045-0.072,16.11,6.735,16.11,6.735      c0.206-0.33-13.91-8.406-13.782-8.612c0.073-0.116,17.247,6.244,17.419,5.968c0,0-13.602-8.146-13.443-8.4l16.529,6.938      l-13.679-8.548c0,0,17.763,7.544,17.904,7.318c0.247-0.395-14.659-8.731-14.466-9.04c0.04-0.064,18.548,7.076,18.629,6.947      l-14.186-8.864c0,0,19.413,7.359,19.526,7.178c0,0-14.795-9.224-14.786-9.239c0.213-0.341,17.788,8.125,18.043,7.717      c0.319-0.511-15.135-9.458-15.135-9.458l19.229,7.379l-14.708-9.19l18.46,8.076l-14.99-9.366      c0.039-0.063,18.97,7.169,19.021,7.088c0.138-0.22-14.506-8.505-14.254-8.907c0.264-0.422,18.417,8.729,18.776,8.154      l-15.714-9.819c0.206-0.329,19.499,8.091,19.499,8.091c0.039-0.062-14.814-9.257-14.814-9.257      c0.36-0.576,19.568,8.508,19.568,8.508L186.4,54.832l22.011,9.287c0.05-0.08-17.338-10.834-17.338-10.834      s20.807,9.984,20.854,9.908c0.066-0.105-17.234-10.769-17.234-10.769c0.082-0.131,22.195,9.011,22.195,9.011      c0.302-0.483-16.582-10.362-16.582-10.362c0.294-0.471,21.742,10.884,21.979,10.504c0.15-0.24-18.117-10.529-17.761-11.098      c0.086-0.139,21.661,9.827,21.661,9.827l-17.8-11.123c0,0,24.176,10.558,24.289,10.377l-18.536-11.583      c0.306-0.489,21.789,10.545,21.842,10.46c0.301-0.482-18.199-10.622-17.862-11.161c0.377-0.604,22.417,10.382,22.417,10.382      l-18.251-11.404l24.655,11.676l-21.196-13.245l24.25,11.983c0.001-0.001-19.873-12.417-19.873-12.417      c0.397-0.636,26.28,11.917,26.28,11.917c0.142-0.227-20.651-12.846-20.625-12.888c0.209-0.334,26.959,13.476,26.959,13.476      l-21.449-13.403c0.382-0.611,27.982,12.771,28.096,12.586l-22.188-13.865l29.256,14.776      c0.197-0.316-24.531-15.028-24.396-15.244l30.051,14.639c0.271-0.433-24.4-14.371-24.006-15.001c0,0,32.385,15.7,32.419,15.645      c0.101-0.16-25.101-15.125-24.849-15.527c0.676-1.083,35.763,17.218,35.763,17.218c0.2-0.321-28.211-17.628-28.211-17.628      s34.28,18.817,34.58,18.338c0.24-0.383-29.162-17.555-28.862-18.035l37.582,20.107c0.648-1.037-32.938-19.234-32.332-20.204      c0,0,43.072,23.395,43.519,22.68c0.155-0.248-35.871-22.415-35.871-22.415c0.825-1.321,46.191,26.655,46.79,25.697      c0.345-0.551-40.246-25.148-40.246-25.148c0.649-1.04,56.103,31.058,56.103,31.058c0.712-1.139-48.002-29.995-48.002-29.995" style="fill:none;stroke:#262626;stroke-width:2;stroke-linecap:round;stroke-linejoin:round;"/><path d="M133.437,402.788      c0.428-0.686-26.493-16.555-26.493-16.555c0.748-1.197,54.693,32.536,55.864,30.662c0.108-0.173-79.703-48.952-79.321-49.564      c0,0,96.943,58.687,98.228,56.632L70.676,354.579c1.097-1.756,121.024,73.354,121.489,72.608c0,0-130.157-77.207-128.304-80.173      c1.549-2.479,141.377,85.86,142.248,84.468c2.247-3.595-148.087-92.535-148.087-92.535      c2.416-3.866,157.512,94.548,157.512,94.548c0.764-1.222-52.959-32.159-52.54-32.83c0.223-0.356,62.441,36.02,63.237,34.745      c0.105-0.168-41.185-25.735-41.185-25.735c0.23-0.368,49.884,28.851,50.87,27.272c0,0-36.698-21.358-35.991-22.489      c0.328-0.525,45.727,24.158,46.043,23.653c0.468-0.749-33.742-20.565-33.508-20.938c0.754-1.208,42.922,23.229,43.395,22.473      c0.081-0.129-31.826-19.887-31.826-19.887c0.646-1.033,37.522,19.839,37.522,19.839c0.302-0.482-28.506-17.813-28.506-17.813      c0.04-0.063,35.326,17.863,35.326,17.863s-26.915-16.795-26.905-16.812c0.602-0.963,34.7,18.183,35.349,17.145l-25.688-16.052      c0.017-0.027,31.304,17.465,31.751,16.75c0.031-0.051-26.199-16.371-26.199-16.371l32.581,16.079      c0,0-25.104-15.184-24.877-15.545l29.32,14.455c0.446-0.714-23.172-14.479-23.172-14.479l30.001,14.299      c0.477-0.762-23.54-14.71-23.54-14.71c0.635-1.017,31.122,14.367,31.122,14.367c0.278-0.444-22.397-13.995-22.397-13.995      c0.424-0.677,26.72,12.509,26.72,12.509s-20.26-12.389-20.139-12.584l26.135,12.776l-22.031-13.767l26.559,12.218      c0.374-0.598-20.831-12.74-20.706-12.939c0.229-0.365,25.257,12.117,25.257,12.117l-20.412-12.755      c0.025-0.04,26.161,12.295,26.44,11.849c0.15-0.242-19.878-12.421-19.878-12.421l26.086,11.193      c0.354-0.568-20.86-12.927-20.812-13.005c0.415-0.665,24.722,12.328,25.205,11.554c0,0-20.237-11.724-19.823-12.387      c0.141-0.226,23.057,11.104,23.363,10.613c0,0-18.145-10.847-17.924-11.2c0,0,21.236,9.939,21.54,9.454      c0,0-18.412-11.253-18.299-11.435c0,0,22.264,11.162,22.618,10.596c0.082-0.132-18.516-11.569-18.516-11.569      c0.025-0.04,22.58,9.622,22.58,9.622l-17.383-10.861l23.302,9.582c0,0-17.725-10.51-17.471-10.916      c0.195-0.313,21.444,8.72,21.553,8.547c0,0-16.893-10.282-16.77-10.479l20.037,9.12c0,0-16.902-9.713-16.521-10.323      l20.221,9.132l-17.675-11.045l21.095,9.354c0.045-0.072-17.918-11.195-17.918-11.195s21.767,8.773,21.921,8.526      c0,0-17.194-10.728-17.188-10.739c0,0,20.459,9.064,20.778,8.553c0,0-16.282-9.773-16.103-10.062      c0.01-0.017,19.063,7.999,19.393,7.471l-15.395-9.619c0.266-0.426,20.686,7.785,20.686,7.785s-17.253-10.555-17.151-10.717      c0.35-0.561,19.556,7.861,19.556,7.861c0.295-0.472-16.137-9.523-15.886-9.926c0,0,19.697,9.065,19.932,8.69      c0.152-0.243-16.472-10.164-16.414-10.257c0,0,19.316,8.851,19.614,8.373c0.275-0.44-16.79-10.491-16.79-10.491l18.764,8.634      c0,0-16.05-9.506-15.814-9.882c0.346-0.553,18.079,7.917,18.359,7.468l-15.447-9.652l17.28,7.137      c0.24-0.385-14.616-9.133-14.616-9.133c0.124-0.198,18.183,8.398,18.475,7.931c0.099-0.156-16.102-10.061-16.102-10.061      c0.177-0.283,17.88,7.713,17.88,7.713c0.267-0.427-16.138-10.084-16.138-10.084c0.189-0.303,19.572,7.922,19.607,7.865      l-15.078-9.422c0,0,17.877,7.268,17.964,7.129c0,0-15.48-9.663-15.476-9.67c0.093-0.148,17.165,6.246,17.409,5.855      c0.275-0.439-14.362-8.975-14.362-8.975s18.322,7.204,18.649,6.68c0.309-0.493-15.404-9.626-15.404-9.626l17.8,6.298      c0.097-0.155-15.296-8.922-15.01-9.38c0,0,16.347,7.168,16.378,7.117c0.247-0.394-15.189-8.868-14.909-9.316      c0,0,16.777,6.842,17.029,6.44c0.266-0.427-13.878-8.672-13.878-8.672c0.311-0.498,16.459,5.527,16.459,5.527      c0.297-0.477-14.589-8.927-14.504-9.063c0.154-0.247,17.037,6.239,17.124,6.1l-14.853-9.281c0,0,16.943,7.305,17.003,7.21      c0.097-0.154-13.89-8.28-13.711-8.566l15.738,6.343c0.062-0.098-14.288-8.928-14.288-8.928l16.984,6.014      c0.008-0.012-15.336-9.559-15.325-9.576c0,0,17.341,6.285,17.447,6.114l-14.922-9.325c0.272-0.436,16.584,7.339,16.776,7.03      c0.063-0.103-14.39-8.991-14.39-8.991c0.144-0.23,15.969,6.069,15.969,6.069c0.077-0.122-14.21-8.542-14.058-8.785      c0,0,16.633,6.578,16.861,6.212l-15.729-9.828c0,0,17.073,7.134,17.263,6.83c0.174-0.277-15.489-8.988-15.179-9.484      c0.117-0.188,15.591,6.297,15.591,6.297c0.101-0.162-14.005-8.752-14.005-8.752c0.264-0.422,17.571,5.991,17.571,5.991      l-15.515-9.695c0.207-0.332,16.218,6.588,16.218,6.588c0.222-0.355-14.394-8.994-14.394-8.994      c0.091-0.146,15.671,5.326,15.914,4.937c0.233-0.374-14.214-8.882-14.214-8.882c0.088-0.141,16.492,5.928,16.543,5.846      c0.03-0.048-15.674-9.795-15.674-9.795c0.153-0.245,16.098,6.737,16.098,6.737l-13.932-8.705      c0.125-0.2,15.762,5.447,15.78,5.417c0.314-0.502-15.256-9.151-15.085-9.426c0.132-0.211,16.415,5.892,16.638,5.536      c0.107-0.173-15.11-9.442-15.11-9.442s15.994,6.501,16.043,6.423c0,0-13.913-8.613-13.877-8.671      c0.171-0.272,15.585,6.305,15.585,6.305c0.019-0.029-14.378-8.984-14.378-8.984s14.906,4.813,15.138,4.442l-14.574-9.106      c0,0,16.059,7.365,16.375,6.859c0,0-15.125-8.788-14.826-9.265c0.099-0.159,15.975,7.336,16.243,6.906      c0.162-0.26-15.702-9.365-15.501-9.687l16.26,5.474l-14.979-9.36c0.132-0.21,16.401,5.077,16.401,5.077      c0.008-0.013-16.807-9.884-16.528-10.328c0,0,17.1,8.198,17.419,7.688l-15.468-9.665l16.153,5.924      c0.049-0.079-16.303-9.734-16.1-10.06c0.276-0.442,16.445,7.688,16.757,7.188l-16.614-10.382l16.331,5.72      c0.309-0.494-15.968-9.368-15.694-9.807c0.166-0.266,17.594,6.461,17.861,6.032c0,0-15.973-9.904-15.938-9.96      c0,0,15.123,5.151,15.17,5.076c0.155-0.248-16.355-9.938-16.229-10.141c0,0,17.765,6.23,17.79,6.189l-15.67-9.791      c0.187-0.299,15.008,6.585,15.265,6.173c0.29-0.464-16.592-10.367-16.592-10.367c0.215-0.345,17.785,6.968,17.995,6.633      l-16.215-10.132c0.21-0.336,16.046,5.12,16.085,5.058c0,0-17.203-10.501-17.091-10.68c0.276-0.443,17.769,6.658,17.769,6.658      c0.091-0.146-16.9-9.873-16.592-10.367l16.047,6.572c0,0-17.377-10.002-16.992-10.618c0.033-0.053,17.683,6.51,17.688,6.502      c0,0-18.212-10.891-17.992-11.243c0.173-0.276,18.006,6.913,18.342,6.375c0,0-17.864-11.12-17.845-11.151      c0,0,16.741,6.595,16.938,6.281c0,0-18.967-11.033-18.6-11.622c0.135-0.215,18.209,7.225,18.209,7.225      s-17.568-10.164-17.202-10.75c0,0,17.241,7.885,17.477,7.51c0.13-0.208-18.809-11.444-18.67-11.666l17.527,7.068      c0.253-0.406-17.765-11.101-17.765-11.101l17.178,5.739l-19.433-12.143c0,0,18.951,8.343,19.089,8.122      c0,0-20.282-12.524-20.215-12.632c0.246-0.393,20.801,9.511,20.801,9.511c0.139-0.223-20.662-12.818-20.621-12.885l19.439,7.346      c0.442-0.708-21.649-13.528-21.649-13.528c0.08-0.129,19.698,9.43,19.82,9.236c0.116-0.186-21.233-13.045-21.134-13.206      c0,0,20.816,8.771,20.965,8.532c0.409-0.654-23.229-14.515-23.229-14.515l20.853,8.362l-22.216-13.882      c0,0,21.135,10.465,21.375,10.081c0,0-23.692-14.377-23.501-14.685c0.104-0.166,22.297,9.29,22.297,9.29      s-25.87-15.578-25.606-16c0.039-0.062,23.383,11.048,23.597,10.706c0,0-26.485-15.265-25.907-16.189      c0,0,23.74,12.519,24.098,11.948c0.415-0.665-27.94-17.459-27.94-17.459s25.795,11.77,25.872,11.646l-30.002-18.747      c0,0,27.438,13.544,27.448,13.527c0.493-0.79-30.986-18.764-30.718-19.194c0.431-0.689,27.729,13.759,28.145,13.092      c0.64-1.022-34.11-19.973-33.508-20.938l29.506,13.717c0.015-0.023-38.276-23.918-38.276-23.918      c0.142-0.226,33.473,17.537,33.683,17.201c0.505-0.809-42.632-25.865-42.284-26.422c0.017-0.027,36.657,19.677,37.359,18.554      c0,0-58.798-34.446-57.767-36.096c0,0,53.319,29.746,53.386,29.64c2.673-4.277-128.486-80.287-128.486-80.287      c1.028-1.645,122.237,71.426,122.237,71.426c2.178-3.485-111.803-65.604-109.89-68.667c0,0,101.595,61.556,102.249,60.509      l-91.063-56.902l81.548,47.17c0,0-69.431-41.528-68.596-42.863c0.64-1.024,48.832,26.253,48.832,26.253      c0.38-0.609-23.562-14.723-23.562-14.723" style="fill:none;stroke:#262626;stroke-width:2;stroke-linecap:round;stroke-linejoin:round;"/><path d="M255.652,184.907      c0.016-0.024-0.247-0.154-0.247-0.154c0.083-0.133,6.967,0.398,7.098,0.189c0.01-0.016-6.945-4.261-6.91-4.317      c0,0,12.285,3.252,12.429,3.02l-12.079-7.547c0.13-0.209,15.493,6.498,15.548,6.409c0,0-15.452-9.155-15.227-9.515      c0.213-0.34,20.865,8.885,20.984,8.694c0.284-0.455-18.682-11.674-18.682-11.674c0.312-0.5,21.663,9.661,21.663,9.661      c0.304-0.486-21.071-12.796-20.904-13.063c0.081-0.13,23.889,10.803,24.179,10.338c0.057-0.089-21.117-13.196-21.117-13.196      c0.105-0.169,23.859,11.405,24.313,10.679c0,0-22.64-13.151-22.192-13.867c0.171-0.272,24.634,10.641,24.798,10.378      c0.333-0.532-23.865-14.545-23.7-14.81c0.464-0.743,27.064,12.915,27.354,12.45c0.062-0.099-24.244-15.15-24.244-15.15      c0.433-0.693,25.643,12.416,25.643,12.416c0.238-0.382-22.341-13.96-22.341-13.96c0.026-0.042,24.036,10.81,24.036,10.81      s-21.532-13.436-21.523-13.449c0.4-0.642,23.684,10.816,24.116,10.125l-20.147-12.59c0.012-0.019,22.139,11.436,22.45,10.938      c0.024-0.039-20.129-12.578-20.129-12.578l21.417,9.103c0,0-17.539-10.607-17.381-10.861l17.118,6.831      c0.271-0.436-13.757-8.596-13.757-8.596l15.124,5.002c0.223-0.357-11.186-6.989-11.186-6.989      c0.23-0.37,12.189,2.537,12.189,2.537c0.065-0.104-5.163-3.226-5.163-3.226c0.064-0.103,4.47-0.414,4.47-0.414      s-0.426-0.256-0.421-0.263" style="fill:none;stroke:#262626;stroke-width:2;stroke-linecap:round;stroke-linejoin:round;"/><path d="M212.901,338.438      c0.166-0.266-9.786-6.116-9.786-6.116c0.256-0.41,19.794,9.018,20.196,8.375c0.042-0.066-30.667-18.833-30.519-19.07      c0,0,36.234,18.927,36.698,18.186l-44.542-27.833c0.428-0.685,48.006,27.095,48.187,26.805c0,0-53.346-31.638-52.583-32.858      c0.626-1.001,58.22,32.744,58.571,32.182c0.938-1.503-61.843-38.644-61.843-38.644c0.987-1.579,65.293,36.923,65.293,36.923      c1.002-1.604-69.464-42.183-68.915-43.063c0.261-0.418,72.673,42.712,73.604,41.223c0.19-0.304-75.568-47.221-75.568-47.221      c0.374-0.598,79.792,48.906,81.392,46.346c0,0-85.332-49.749-83.727-52.318c0.668-1.07,90.979,53.164,91.622,52.134      c1.326-2.123-95.998-58.516-95.337-59.573c1.918-3.069,106.15,64.36,107.353,62.438c0.276-0.443-108.436-67.758-108.436-67.758      c2.19-3.506,123.739,73.713,123.739,73.713c1.264-2.022-123.667-77.275-123.667-77.275c0.153-0.245,131.99,78.268,131.99,78.268      s-133.197-83.122-133.147-83.2c2.498-3.998,137.743,87.119,140.437,82.811l-140.797-87.98      c0.08-0.128,143.175,91.08,145.289,87.696c0.176-0.283-145.754-91.078-145.754-91.078l149.554,89.172      c0,0-150.609-91.102-149.256-93.266l151.069,90.533c2.808-4.492-151.216-94.491-151.216-94.491l154.925,92.36      c3.167-5.068-155.174-96.964-155.174-96.964c3.429-5.487,159.133,94.358,159.133,94.358      c1.944-3.111-157.228-98.247-157.228-98.247c2.652-4.245,158.576,94.901,158.576,94.901s-158.183-96.879-157.3-98.292      l160.759,96.898L165.791,228.093l162.304,97.041c2.885-4.617-162.108-99.155-161.146-100.695      c1.551-2.482,163.185,98.304,163.185,98.304l-161.906-101.17c0.166-0.265,163.161,101.392,165.009,98.436      c1.23-1.969-162.536-101.563-162.536-101.563l165.429,98.265c2.938-4.702-164.453-101.863-164.049-102.51      c2.899-4.639,162.517,104.865,165.892,99.464c0,0-166.927-96.499-163.417-102.114c1.054-1.687,162.142,102.43,164.432,98.764      c0,0-163.204-97.789-161.32-100.804c0,0,160.008,101.413,162.451,97.504c0,0-162.341-99.255-161.358-100.828      c0,0,160.83,102.989,163.54,98.653c0.72-1.151-160.998-100.602-160.998-100.602c0.193-0.31,162.243,96.894,162.243,96.894      L184.808,201.94l161.672,96.046c0,0-159.451-94.651-157.21-98.236c1.553-2.485,157.386,95.332,158.243,93.96      c0,0-155.521-94.772-154.438-96.503l138,82.832c0,0-137.771-79.496-134.808-84.237l130.018,77.74l-127.513-79.678      l124.307,73.848c0.316-0.508-120.985-75.6-120.985-75.6s117.208,70.058,118.102,68.628c0,0-112.407-70.133-112.359-70.209      c0,0,109.301,67.941,111.131,65.012c0,0-106.159-63.807-105.022-65.625c0.06-0.096,102.039,63.362,103.949,60.307l-97.396-60.86      c1.369-2.191,98.703,56.537,98.703,56.537s-90.343-55.226-89.792-56.108c1.71-2.737,89.269,51.423,89.269,51.423      c1.398-2.238-78.174-46.198-76.983-48.104c0,0,77.898,47.095,78.878,45.526c0.626-1.002-67.431-41.607-67.193-41.987      c0,0,67.428,40.701,68.53,38.938c1.048-1.677-61.985-38.733-61.985-38.733l62.705,36.093c0,0-59.319-35.153-58.459-36.529      c1.19-1.905,58.642,34.79,59.608,33.243l-55.383-34.607l56.273,31.502c0.814-1.304-52.531-32.825-52.531-32.825      c0.392-0.627,54.693,32.626,55.621,31.143c0.321-0.515-52.098-32.554-52.098-32.554c0.555-0.887,53.348,29.877,53.348,29.877      c0.845-1.351-50.349-31.461-50.349-31.461c0.546-0.874,53.418,29.215,53.519,29.055l-47.2-29.494      c0,0,49.803,27.592,50.058,27.184c0,0-45.474-28.386-45.461-28.407c0.271-0.433,46.963,25.908,47.675,24.767      c0.75-1.199-41.196-25.743-41.196-25.743s45.47,25.359,46.332,23.978c0.763-1.221-38.091-23.802-38.091-23.802l38.85,19.45      c0.182-0.291-29.131-17.004-28.592-17.867" style="fill:none;stroke:#262626;stroke-width:2;stroke-linecap:round;stroke-linejoin:round;"/></g></g></g></g><g id="Layer_1"/></svg>