<?xml version="1.0" ?><!DOCTYPE svg  PUBLIC '-//W3C//DTD SVG 1.1//EN'  'http://www.w3.org/Graphics/SVG/1.1/DTD/svg11.dtd'><svg height="512px" style="enable-background:new 0 0 512 512;" version="1.1" viewBox="0 0 512 512" width="512px" xml:space="preserve" xmlns="http://www.w3.org/2000/svg" xmlns:xlink="http://www.w3.org/1999/xlink"><g id="chrome__x2C__google__x2C__browser__x2C__social__x2C_"><g><g><g><path d="M117.923,374.908      c0.325-0.521-62.941-38.155-62.413-39c0,0,40.179,22.683,40.82,21.656l-45.576-28.479c0.047-0.075,33.981,16.756,34.035,16.67      c0.771-1.234-38.182-22.749-37.684-23.548c0,0,30.911,15.991,30.93,15.961l-34.058-21.281c0,0,28.833,15.71,29.266,15.019      l-31.718-19.819c0,0,25.225,12.548,25.73,11.737c0.361-0.577-27.881-17.347-27.847-17.4      c0.132-0.212,24.915,11.543,24.918,11.538c0.244-0.391-28.077-17.545-28.077-17.545s23.751,12.317,24.214,11.578      c0,0-26.325-16.305-26.26-16.409l23.056,9.699l-23.904-14.938c0.294-0.47,20.18,8.021,20.387,7.69      c0.084-0.135-23.009-14.378-23.009-14.378l20.756,9.178l-21.218-13.259l20.424,8.589c0.271-0.435-22.382-13.986-22.382-13.986      c0.102-0.163,19.777,8.954,20.112,8.418c0.375-0.6-20.493-11.785-20.034-12.519l19.653,8.579c0,0-20.513-11.948-20.122-12.574      c0,0,18.278,7.625,18.469,7.319c0.307-0.491-19.773-12.356-19.773-12.356s18.99,7.258,19.243,6.853      c0.021-0.033-18.69-11.425-18.576-11.607c0,0,17.985,7.47,18.237,7.068c0.049-0.079-19.144-11.963-19.144-11.963l18.272,7.119      c0.112-0.179-19.196-11.096-18.792-11.742c0,0,17.965,8.027,18.005,7.963l-16.662-10.412l16.488,5.242      c0,0-17.401-10.098-17.053-10.656l16.893,7.16c0.068-0.109-17.643-10.337-17.333-10.832c0.176-0.281,17.147,7.323,17.345,7.006      l-16.454-10.282c0.195-0.313,17.394,6.804,17.394,6.804c0.006-0.01-17.69-10.367-17.381-10.861l17.379,5.954      c0,0-16.881-10.346-16.791-10.492c0.306-0.49,16.368,5.884,16.392,5.846l-15.951-9.968l16.727,5.94      c0,0-15.212-9.426-15.176-9.483c0.218-0.349,15.656,5.632,15.818,5.373l-15.651-9.78c0,0,16.526,7.612,16.764,7.231      c0,0-15.896-9.625-15.757-9.847c0.014-0.023,15.403,6.455,15.703,5.975c0.238-0.382-14.113-8.819-14.113-8.819l14.731,5.871      l-14.992-9.368c0.315-0.504,16.693,6.62,16.917,6.261c0.218-0.349-14.283-8.925-14.283-8.925s13.917,6.017,14.164,5.621      c0.289-0.462-14.548-8.753-14.397-8.997c0.259-0.414,15.964,5.718,15.985,5.685c0,0-13.596-8.304-13.51-8.442l14.313,3.786      l-13.08-8.173c0.113-0.182,15.382,6.453,15.382,6.453l-13.985-8.739c0.081-0.13,13.918,5.256,13.918,5.256      s-14.191-8.773-14.149-8.841c0.241-0.385,16.367,6.561,16.367,6.561s-15.401-9.476-15.334-9.582l15.73,5.06      c0,0-13.466-8.366-13.444-8.401l15.765,5.784c0.04-0.063-14.736-9.2-14.732-9.206c0.193-0.31,16.787,6.545,16.906,6.354      c0.206-0.329-14.567-9.102-14.567-9.102c0.146-0.233,14.435,5.354,14.435,5.354l-13.158-8.222      c0.181-0.288,14.18,6.063,14.362,5.771l-11.937-7.459l14.747,4.721c0,0-13.21-8.059-13.122-8.2      c0.129-0.207,14.12,5.746,14.12,5.746s-13.293-7.923-13.121-8.199c0,0,13.653,5.517,13.73,5.394      c0.08-0.127-12.284-7.356-12.14-7.586l13.892,4.892c0.268-0.428-12.362-7.725-12.362-7.725l14.401,5.213      c0.161-0.258-13.315-8.32-13.315-8.32c0.125-0.201,16.011,5.179,16.011,5.179s-13.259-8.008-13.135-8.208      c0.066-0.106,14.884,5.144,14.884,5.144c0.249-0.397-12.696-7.933-12.696-7.933l15.732,5.438c0,0-13.587-8.142-13.431-8.392      c0.124-0.198,13.857,5.301,13.857,5.301c0.199-0.318-13.262-7.692-12.995-8.12c0,0,16.091,5.223,16.096,5.215l-12.792-7.993      c0.304-0.485,15.567,6.027,15.634,5.92c0.125-0.201-13.397-8.372-13.397-8.372c0.105-0.169,14.383,5.999,14.597,5.655      l-12.954-8.094l14.884,4.553c0.229-0.366-12.533-7.831-12.533-7.831s14.793,6.111,14.798,6.104c0,0-13.233-7.642-12.951-8.093      l14.506,5.411l-11.837-7.396c0.301-0.482,15.675,5.256,15.682,5.244c0.279-0.446-12.636-7.896-12.636-7.896l13.684,5.371      l-13.071-8.168c0.121-0.193,15.5,6.454,15.617,6.267c0,0-13.098-8.149-13.082-8.175c0.295-0.472,14.884,5.552,14.935,5.471      c0.064-0.102-12.133-7.582-12.133-7.582s16.439,5.748,16.663,5.39c0.271-0.433-13.989-8.742-13.989-8.742      s17.332,5.921,17.437,5.753l-14.449-9.029c0.22-0.353,16.438,6.71,16.673,6.333c0.185-0.295-14.161-8.263-13.897-8.685      l15.829,5.987l-12.762-7.975l16.094,5.455c0.108-0.173-13.025-8.139-13.025-8.139l16.26,6.216c0,0-12.994-8.01-12.945-8.089      l15.349,5.364c0.183-0.292-12.278-7.195-12.063-7.539c0.018-0.029,15.747,4.654,15.747,4.654      c0.029-0.047-12.718-7.947-12.718-7.947c0.231-0.369,16.153,5.442,16.153,5.442c0.189-0.303-12.661-7.912-12.661-7.912      s15.611,6.53,15.637,6.489c0.113-0.18-13.294-8.307-13.294-8.307c0.139-0.223,16.986,7.272,17.165,6.986      c0.048-0.077-15.026-9.389-15.026-9.389c0.31-0.496,16.864,6.414,16.864,6.414s-13.772-8.592-13.766-8.602      c0.173-0.277,17.147,6.68,17.147,6.68s-13.798-8.314-13.66-8.536c0.035-0.056,16.333,6.509,16.333,6.509l-12.434-7.77      l17.076,5.937c0.03-0.049-13.258-8.285-13.258-8.285c0.161-0.258,17.047,6.292,17.047,6.292s-14.296-8.778-14.227-8.89      c0.124-0.197,18.41,7.165,18.677,6.737l-15.059-9.41c0.17-0.273,17,7.494,17.279,7.045L144.8,74.254      c0,0,17.098,7.804,17.181,7.67l-14.331-8.955c0.22-0.351,17.963,8.077,18.305,7.53c0.01-0.016-15.053-9.406-15.053-9.406      c0.153-0.245,19.266,7.317,19.301,7.26l-14.472-9.043c0,0,17.866,6.595,18.098,6.225c0.251-0.403-13.963-8.599-13.907-8.69      l18.761,7.183L163.917,64.8c0.333-0.531,17.726,8.236,17.898,7.96c0.184-0.294-15.615-9.699-15.589-9.741      c0,0,20.539,8.492,20.728,8.19c0.169-0.271-15.445-9.651-15.445-9.651l18.24,8.275c0.322-0.515-15.121-9.113-14.97-9.354      c0.155-0.249,18.776,7.885,19.033,7.474l-14.703-9.188l20.894,8.274c0.279-0.447-16.756-10.133-16.605-10.376l20.152,8.321      c0.151-0.242-15.832-9.893-15.832-9.893c0-0.001,20.784,9.402,20.784,9.402c0.191-0.306-17.383-10.862-17.383-10.862      c0.016-0.026,20.833,9.52,20.833,9.52c0.358-0.573-16.648-10.403-16.648-10.403c0.162-0.259,20.317,9.243,20.317,9.243      c0.194-0.311-16.126-10.077-16.126-10.077c0.201-0.322,21.78,9.743,21.78,9.743s-18.888-10.932-18.497-11.558      c0.363-0.581,22.771,10.175,22.771,10.175c0.232-0.372-17.1-10.685-17.1-10.685c0.423-0.677,21.224,9.748,21.224,9.748      S211.61,48.408,211.771,48.15l23.879,10.838L215.82,46.597c0.216-0.346,25.772,11.93,26.113,11.386l-20.097-12.558      c0.385-0.617,25.822,12.656,26.119,12.182c0.136-0.219-21.475-12.532-21.076-13.17c0.333-0.534,25.826,12.818,26.244,12.149      l-20.339-12.709c0.021-0.033,27.242,13.017,27.242,13.017s-22.086-12.862-21.665-13.538l27.911,12.502      c0.253-0.405-21.532-12.792-21.234-13.269c0,0,28.815,14.107,29.185,13.515c0,0-22.682-13.697-22.468-14.039l29.872,14.169      c0.102-0.163-23.646-14.775-23.646-14.775c0.14-0.224,32.091,16.217,32.382,15.751l-26.501-16.56      c0,0,35.347,17.941,35.599,17.539c0.483-0.773-27.471-16.349-27.104-16.937c0.437-0.699,36.42,19.083,36.838,18.415      c0.598-0.957-30.393-17.985-29.94-18.709c0.102-0.163,38.686,20.371,38.686,20.371c0.557-0.89-32.4-20.246-32.4-20.246      c0.545-0.872,42.518,22.93,42.518,22.93c0.251-0.402-35.35-22.089-35.35-22.089s50.027,27.164,50.383,26.595l-40.555-25.341      l61.848,34.745c1.083-1.733-54.417-34.003-54.417-34.003" style="fill:none;stroke:#231F20;stroke-width:2;stroke-linecap:round;stroke-linejoin:round;"/><path d="M133.61,402.893      c0.309-0.493-25.879-15.237-25.459-15.908c0.742-1.188,51.229,28.612,51.229,28.612s-73.417-45.065-73.052-45.648      c0,0,90.978,54.685,92.004,53.042L72.827,357.063c0,0,119.044,74.141,121.211,70.672c2.012-3.221-132.003-78.428-130.18-81.346      c0,0,138.671,88.686,141.347,84.403L56.698,337.995l156.682,94.654c0.613-0.98-53.711-33.563-53.711-33.563      c1.171-1.874,63.275,36.935,63.766,36.148l-45.511-28.438l56.156,29.906c0.067-0.108-38.229-23.888-38.229-23.888l47.041,25.141      c0,0-34.894-20.624-34.363-21.473l41.66,22.017c0.105-0.168-31.027-19.388-31.027-19.388l39.122,20.553      c0.248-0.397-30.537-17.957-30.032-18.766c0.418-0.669,36.994,18.851,36.994,18.851s-29.553-17.3-29.029-18.14l34.671,18.36      c0.436-0.698-27.845-17.399-27.845-17.399l35.584,17.86c0.431-0.689-25.896-16.182-25.896-16.182      c0.04-0.064,31.224,16.039,31.568,15.487l-23.728-14.826c0,0,30.396,16.186,31.022,15.183      c0.499-0.797-25.313-15.817-25.313-15.817c0.129-0.206,30.431,15.608,30.431,15.608s-24.831-15.08-24.636-15.394      c0.228-0.362,29.292,14.72,29.292,14.72c0.071-0.115-23.663-14.052-23.333-14.58c0.091-0.145,28.412,14.473,28.641,14.107      c0.273-0.438-22.102-13.666-22.036-13.771c0.212-0.34,29.186,13.177,29.186,13.177c0.219-0.351-21.449-13.403-21.449-13.403      s25.579,12.936,25.975,12.303c0.203-0.325-21.935-13.229-21.72-13.572c0.507-0.811,27.587,12.717,27.851,12.294l-20.195-12.619      c0.16-0.256,24.926,11.311,24.926,11.311c0.019-0.03-19.033-11.894-19.033-11.894s22.492,11.26,22.758,10.835      c0.335-0.537-19.143-11.961-19.143-11.961s22.357,11.604,22.771,10.94c0.055-0.087-18.857-11.201-18.596-11.62      c0,0,24.504,11.119,24.934,10.43c0,0-18.818-11.048-18.499-11.56c0,0,22.983,11.163,23.336,10.599l-18.725-11.701l22.604,9.569      c0.357-0.571-17.684-11.051-17.684-11.051c0.282-0.451,22.519,10.34,22.859,9.796c0.077-0.123-17.641-10.862-17.568-10.978      c0,0,20.758,9.142,20.836,9.018c0,0-16.451-9.511-16.105-10.063l20.602,9.687c0.165-0.264-18.028-10.986-17.902-11.188      c0.31-0.495,21.479,9.488,21.479,9.488s-17.595-10.134-17.208-10.753l20.69,9.422c0.152-0.244-16.921-10.573-16.921-10.573      c0.079-0.127,21.473,8.351,21.473,8.351c0.256-0.41-17.85-11.153-17.85-11.153s19.809,8.985,19.995,8.688l-15.851-9.905      l21.533,8.433c0.254-0.406-17.469-10.916-17.469-10.916c0.407-0.65,20.779,8.642,20.943,8.379      c0.104-0.167-16.267-10.165-16.267-10.165s19.421,9.409,19.741,8.896c0.06-0.096-17.261-10.785-17.261-10.785l21.324,8.508      c0.12-0.191-17.096-10.164-16.862-10.537c0,0,19.121,8.108,19.142,8.074l-15.293-9.556c0,0,18.103,7.453,18.343,7.069      c0.078-0.125-16.157-9.972-16.101-10.062l18.436,8.409l-15.942-9.962c0,0,19.74,9.3,20.114,8.7      c0.26-0.415-15.518-9.696-15.518-9.696l17.531,7.142c0,0-15.769-9.174-15.463-9.662c0.001-0.003,17.619,7.702,17.754,7.486      l-15.711-9.817c0.134-0.214,17.736,8.384,17.957,8.031c0,0-14.407-8.782-14.308-8.94l18.37,7.313l-15.563-9.725      c0.196-0.314,17.044,6.313,17.044,6.313c0.283-0.453-15.137-8.961-14.913-9.318c0.208-0.333,18.721,7.744,18.784,7.643      c0.013-0.021-15.793-9.868-15.793-9.868l18.438,6.604l-14.742-9.212c0,0,16.087,6.799,16.133,6.726l-14.365-8.976l17.34,7.7      c0,0-15.291-9.084-15.079-9.423c0,0,17.061,7.397,17.349,6.938l-14.404-9.001c0.247-0.396,16.073,7.023,16.164,6.878      c0.186-0.298-14.561-9.099-14.561-9.099s15.951,6.944,16.261,6.448c0.189-0.303-15.016-8.641-14.683-9.175      c0.307-0.49,17.825,7.438,17.825,7.438c0.001-0.001-15.901-9.348-15.637-9.771c0.213-0.341,16.591,6.479,16.591,6.479      l-13.895-8.683c0.293-0.469,16.372,6.604,16.529,6.353c0.261-0.417-13.818-8.63-13.816-8.633l15.183,6.074      c0,0-14.796-8.533-14.476-9.046l16.581,6.69c0,0-14.438-8.429-14.171-8.854c0.092-0.147,16.424,6.982,16.469,6.91      c0.121-0.193-14.548-8.832-14.432-9.018c0.094-0.15,16.439,7.791,16.716,7.35l-15.032-9.394      c0.305-0.487,15.624,5.841,15.624,5.841c0.264-0.422-14.057-8.783-14.057-8.783c0.232-0.372,15.753,6.451,15.753,6.451      c0.14-0.224-13.858-8.033-13.577-8.484l16.946,5.848c0.105-0.17-15.866-9.764-15.799-9.872l17.857,6.4      c0.252-0.402-14.975-9.357-14.975-9.357c0.198-0.317,15.838,6.674,16.146,6.18c0.037-0.06-15.414-9.632-15.414-9.632      c0.248-0.396,16.476,7.536,16.685,7.202c0.183-0.293-14.67-9.167-14.67-9.167s16.697,5.657,16.854,5.407      c0,0-14.791-8.702-14.548-9.09l16.889,6.309c0.244-0.392-16.186-10.114-16.186-10.114l16.309,6.075      c0.172-0.275-14.248-8.555-14.092-8.806c0.082-0.131,16.875,6.848,16.875,6.848c0.258-0.413-16.04-10.023-16.04-10.023      c0.145-0.23,17.03,7.124,17.068,7.063c0.313-0.502-16.009-10.003-16.009-10.003l17.896,6.996l-15.863-9.912      c0.207-0.331,16.214,6.454,16.436,6.101c0,0-14.948-8.629-14.628-9.141c0.013-0.021,16.734,6.01,16.825,5.866l-15.019-9.385      c0,0,14.811,5.194,14.841,5.145c0.24-0.385-13.978-8.734-13.978-8.734c0.262-0.419,15.646,5.209,15.656,5.193      c0,0-14.623-8.729-14.439-9.023c0.252-0.403,15.384,6.535,15.384,6.535c0.191-0.308-14.463-8.78-14.347-8.965l16.598,5.705      l-16.18-10.109l17.123,6.411c0.301-0.482-17.153-10.132-16.89-10.555c0,0,16.423,7.136,16.639,6.791      c0,0-15.273-9.153-15.098-9.435c0.138-0.221,16.449,6.825,16.449,6.825c0.31-0.495-15.284-9.085-15.074-9.42l16.258,6.799      c0.082-0.131-16.14-9.335-15.803-9.875c0.231-0.37,16.34,7.162,16.477,6.943c0,0-17.141-10.133-16.881-10.548      c0,0,16.444,5.979,16.558,5.798l-16.183-10.112c0,0,17.724,7.836,17.905,7.545c0.06-0.095-16.294-9.879-16.158-10.097      c0.057-0.091,16.322,7.282,16.617,6.813l-15.95-9.967c0.13-0.208,16.777,5.727,16.777,5.727      c0.32-0.513-17.248-10.777-17.248-10.777c0.312-0.498,17.434,6.889,17.702,6.459c0.023-0.037-16.974-10.607-16.974-10.607      l16.083,6.771c0.357-0.572-16.91-10.06-16.683-10.424l17.059,7.428c0.153-0.246-16.211-10.129-16.211-10.129l17.711,7.018      c0,0-18.422-10.868-18.133-11.331c0,0,16.659,7.911,16.983,7.392c0.214-0.343-16.814-10.04-16.604-10.375l17.497,6.657      c0.067-0.107-17.54-10.39-17.283-10.8l16.594,6.594c0,0-16.933-10.38-16.843-10.524l17.883,7.951      c0.32-0.513-19.237-11.156-18.849-11.778l18.618,8.188c0.352-0.561-17.903-10.502-17.596-10.995      c0.196-0.314,17.18,7.877,17.298,7.688c0.126-0.201-18.522-10.724-18.141-11.335c0,0,17.071,7.753,17.359,7.292      c0.393-0.629-17.113-10.694-17.113-10.694l17.851,6.844l-19.236-12.02c0,0,18.674,8.534,19.008,7.999      c0.409-0.655-19.896-12.139-19.764-12.35c0.351-0.563,18.435,8.39,18.435,8.39s-20.172-11.902-19.856-12.407l19.732,9.172      l-19.931-12.454c0,0,19.496,8.374,19.581,8.238l-21.412-13.379c0.309-0.493,20.755,9.973,20.914,9.717      c0.081-0.129-20.517-12.82-20.517-12.82c0.184-0.294,18.65,7.316,18.65,7.316c0.32-0.513-19.954-12.469-19.954-12.469      s19.271,9.087,19.656,8.471c0.016-0.025-23.042-13.391-22.589-14.115c0,0,21.459,10.469,21.81,9.906      c0.328-0.524-23.645-14.664-23.595-14.744l22.533,10.819l-23.41-14.628l21.706,9.61c0.085-0.136-24.042-15.023-24.042-15.023      s22.048,9.819,22.324,9.376c0.267-0.426-25.76-15.633-25.552-15.966c0,0,23.492,11.702,23.935,10.994      c0.58-0.928-26.541-15.806-26.19-16.366l23.824,10.711l-27.247-17.025c0.287-0.458,25.358,12.636,25.358,12.636      s-28.62-17.625-28.504-17.811l26.137,11.378c0.261-0.417-31.729-19.292-31.488-19.676c0.545-0.872,28.61,14.852,28.824,14.51      c0.304-0.487-34.447-20.099-33.807-21.125c0.493-0.789,29.251,14.497,29.804,13.613l-39.201-24.495      c0,0,33.091,16.832,33.504,16.171l-46.242-28.896c0.216-0.344,42.454,24.705,43.325,23.311      c0.777-1.244-64.78-40.479-64.78-40.479l58.891,32.539L322.335,46.339c2.376-3.802,117.074,73.636,118.867,70.767      c1.065-1.705-111.613-66.474-110.144-68.826c2.025-3.24,99.281,57.094,99.281,57.094s-84.822-52.468-84.582-52.853      c0.169-0.27,68.81,38.027,68.892,37.896c0.849-1.357-48.072-28.406-47.339-29.581" style="fill:none;stroke:#231F20;stroke-width:2;stroke-linecap:round;stroke-linejoin:round;"/><path d="M191.12,227.155      c0.018-0.029-1.21-0.701-1.185-0.741c0.062-0.099,4.877-0.352,4.877-0.352s-10.307-6.332-10.258-6.41      c0,0,11.482,2.983,11.598,2.798L178.21,211.24c0,0,18.318,7.055,18.624,6.567c0.398-0.637-24.917-14.767-24.556-15.344      c0,0,25.861,13.295,26.335,12.536L165.2,194.12l34.596,18.367c0.45-0.72-39.279-24.544-39.279-24.544      c0.768-1.229,42.046,23.294,42.368,22.778l-47.826-29.885l49.905,26c0.091-0.146-51.795-32.366-51.795-32.366l54.332,29.697      c0,0-52.109-30.809-51.322-32.069l53.478,29.401c0.169-0.271-50.724-31.696-50.724-31.696l54.23,29.993      c0.426-0.681-52.694-31.001-51.829-32.386c0.624-0.998,54.393,29.724,54.393,29.724s-53.663-31.413-52.71-32.938l55.402,31.313      c0.833-1.334-53.208-33.248-53.208-33.248l57.402,31.493c0.869-1.39-52.985-33.109-52.985-33.109      c0.072-0.115,55.232,31.664,55.856,30.665l-52.723-32.945c0,0,56.471,33.743,57.666,31.832      c1.127-1.803-56.205-35.121-56.205-35.121c0.26-0.416,59.856,33.995,59.856,33.995s-57.441-34.868-56.981-35.605      c0.479-0.768,60.405,34.162,60.405,34.162c0.178-0.284-58.32-34.625-57.503-35.932c0.202-0.323,61.492,35.768,62.001,34.953      c0.708-1.133-58.252-36.023-58.083-36.294c0.492-0.787,64.944,35.521,64.944,35.521c0.609-0.976-60.544-37.833-60.544-37.833      s64.521,38.693,65.556,37.036c0.6-0.96-64.127-38.665-63.495-39.676c1.378-2.206,71.71,41.301,72.43,40.15l-67.219-42.003      c0.493-0.789,73.612,41.734,73.612,41.734c0.065-0.104-69.484-43.418-69.484-43.418s73.783,44.743,74.692,43.288      c1.228-1.964-72.189-45.109-72.189-45.109s75.794,47.335,77.261,44.989c0.207-0.332-75-44.65-74.005-46.243      c0,0,81.344,49.049,82.858,46.625c0,0-78.808-46.354-77.509-48.433c0,0,83.211,51.008,84.558,48.853l-80.48-50.289      l87.027,49.825c1.598-2.557-82.403-51.491-82.403-51.491c1.184-1.895,88.941,54.261,90.367,51.979      c0.36-0.576-85.286-52.544-84.949-53.083c0,0,90.389,53.274,90.746,52.703c0,0-87.394-50.889-85.722-53.565l92.553,54.646      c0.821-1.315-89.92-54.793-89.293-55.796c1.461-2.339,95.749,55.897,95.749,55.897s-92.585-53.429-90.597-56.611l96.647,56.885      c0.805-1.288-91.844-57.39-91.844-57.39c0.398-0.638,100.429,57.688,100.429,57.688c1.395-2.232-94.762-59.213-94.762-59.213      s99.124,60.337,100.114,58.752l-94.07-58.781l104.124,60.04c1.44-2.305-96.809-60.493-96.809-60.493      c2.177-3.482,103.628,62.003,104.507,60.596c0.605-0.968-96.074-60.034-96.074-60.034s98.686,62.066,100.411,59.304      c0.338-0.541-94.571-59.095-94.571-59.095l91.141,52.134c0.585-0.935-81.836-48.603-80.697-50.425      c0,0,74.152,42.64,74.238,42.503l-64.115-40.064c0,0,52.939,30.348,53.686,29.153c0.196-0.314-40.968-25.285-40.827-25.511" style="fill:none;stroke:#231F20;stroke-width:2;stroke-linecap:round;stroke-linejoin:round;"/><path d="M232.923,276.826      c0.134-0.214-10.225-5.984-10.043-6.275c0.316-0.505,22.543,10.688,22.543,10.688s-31.322-19.229-31.168-19.477      c0,0,39.824,21.41,40.261,20.71l-44.448-27.774c0,0,50.37,28.395,51.265,26.963c0.821-1.313-52.97-31.443-52.226-32.635      c0,0,56.49,33.762,57.56,32.048l-59.522-37.194l63.053,36.149c0.719-1.15-63.118-39.441-63.118-39.441      c1.256-2.01,67.784,39.832,68.311,38.989l-68.021-42.504l72.311,40c0.126-0.202-71.505-44.681-71.505-44.681l75.213,42.745      c0,0-74.798-44.234-73.672-46.036l76.413,43.733c0.247-0.396-74.781-46.729-74.781-46.729l78.484,45.148      c0.631-1.01-78.396-46.131-77.112-48.186c0.919-1.471,79.33,45.307,79.33,45.307s-79.892-46.768-78.474-49.037l80.554,47.031      c1.235-1.978-78.852-49.272-78.852-49.272l81.869,46.781c1.275-2.041-78.136-48.825-78.136-48.825      c0.104-0.165,78.361,46.717,79.256,45.287l-76.463-47.779c0,0,77.458,47.876,79.11,45.23      c1.566-2.506-77.863-48.654-77.863-48.654c0.346-0.554,79.326,46.163,79.326,46.163s-77.199-46.858-76.579-47.852      c0.617-0.987,77.226,44.672,77.226,44.672c0.229-0.367-75.261-44.682-74.207-46.37c0.246-0.394,74.531,44.162,75.151,43.17      c0.864-1.383-71.225-44.047-71.018-44.377c0.548-0.878,72.219,40.066,72.219,40.066c0.677-1.082-67.24-42.016-67.24-42.016      s65.86,39.58,66.918,37.887c0.605-0.97-64.759-39.045-64.121-40.067c1.204-1.926,62.899,35.592,63.527,34.587l-56.908-35.56      c0.368-0.59,55.423,30.368,55.423,30.368c0.046-0.074-49.461-30.906-49.461-30.906s47.17,27.369,47.745,26.449      c0.742-1.188-43.325-27.073-43.325-27.073s39.956,23.37,40.716,22.154c0.1-0.159-35.167-20.919-34.692-21.678      c0,0,25.853,12.018,26.308,11.288c0,0-12.067-7.076-11.858-7.41" style="fill:none;stroke:#231F20;stroke-width:2;stroke-linecap:round;stroke-linejoin:round;"/><path d="M212.427,279.533      c0.442-0.708-85.67-51.935-84.952-53.084c0,0,73.207,44.54,74.396,42.637l-74.042-46.267      c0.098-0.157,68.991,38.763,69.104,38.583c1.357-2.173-68.076-40.584-67.198-41.99c0,0,62.416,35.724,62.456,35.66      l-61.924-38.695c0,0,57.058,34.334,57.934,32.933l-57.146-35.708c0,0,49.949,29.179,50.986,27.52      c0.617-0.987-49.106-30.558-49.049-30.649c0.245-0.393,44.87,24.018,44.875,24.008c0.387-0.619-44.566-27.848-44.566-27.848      s38.086,21.934,38.844,20.72c0,0-38.045-23.565-37.952-23.715l31.659,15.075l-28.903-18.061      c0.307-0.491,20.971,8.534,21.186,8.189c0.074-0.118-20.058-12.534-20.058-12.534l14.184,5.071l-12.047-7.528l6.782,0.064      c0.065-0.105-5.657-3.535-5.657-3.535" style="fill:none;stroke:#231F20;stroke-width:2;stroke-linecap:round;stroke-linejoin:round;"/><path d="M189.692,335.248      c0.227-0.363-18.599-10.935-18.29-11.429c0.533-0.853,37.15,19.814,37.15,19.814s-53.086-32.588-52.823-33.008      c0,0,66.076,38.486,66.816,37.303l-75.839-47.39c0,0,85.763,51.971,87.313,49.489c1.438-2.302-93.916-55.785-92.612-57.871      c0,0,95.549,59.866,97.383,56.932l-102.206-63.865l103.467,61.402c1.199-1.92-105.704-66.052-105.704-66.052      c2.017-3.228,107.847,65.575,108.692,64.223l-110.888-69.291l112.611,65.184c0.203-0.324-114.929-71.816-114.929-71.816      l116.955,68.829c0,0-119.669-70.782-117.874-73.656l119.306,70.536c0.393-0.629-120.007-74.989-120.007-74.989l122.696,72.775      c1.008-1.612-125.561-73.896-123.51-77.177c1.46-2.337,124.953,73.814,124.953,73.814s-128.838-75.419-126.552-79.078      l128.191,76.798c2.013-3.222-128.422-80.247-128.422-80.247l131.076,77.529c2.112-3.379-129.809-81.114-129.809-81.114      c0.172-0.275,129.436,79.959,130.926,77.574l-130.741-81.696c0,0,130.837,83.827,133.656,79.315      c2.727-4.363-134.931-84.314-134.931-84.314c0.602-0.963,136.768,82.055,136.768,82.055s-137.28-83.315-136.171-85.089      c1.107-1.772,137.46,82.311,137.46,82.311c0.422-0.676-138.732-82.361-136.787-85.474      c0.458-0.734,137.517,84.711,138.672,82.862c0.354-0.567-28.822-17.822-28.737-17.957c0.231-0.371,31.6,14.684,31.6,14.684      c0.194-0.311-19.015-11.882-19.015-11.882s20.037,9.271,20.342,8.783c0.134-0.214-14.546-8.774-14.405-9.001      c0.291-0.465,16.485,5.529,16.636,5.286l-8.112-5.068c0.058-0.093,9.707,1.802,9.707,1.802c0.005-0.008-3.641-2.275-3.641-2.275      " style="fill:none;stroke:#231F20;stroke-width:2;stroke-linecap:round;stroke-linejoin:round;"/><path d="M256.584,352.602      c0.028-0.045-0.805-0.416-0.766-0.479c0.092-0.147,7.223,1.115,7.223,1.115s-7.554-4.643-7.519-4.699      c0,0,14.318,4.825,14.464,4.59l-12.495-7.808c0,0,18.431,7.13,18.737,6.638c0.256-0.408-15.428-9.125-15.196-9.496      c0,0,20.235,9.537,20.601,8.953l-19.943-12.462l23.97,11.727c0.258-0.412-22.229-13.891-22.229-13.891      c0.499-0.798,27.778,14.126,27.987,13.792l-26.142-16.335l31.594,14.558c0.052-0.082-29.087-18.176-29.087-18.176l33.873,16.913      c0,0-31.851-18.823-31.366-19.6l35.257,18.015c0.111-0.178-32.979-20.606-32.979-20.606l37.843,19.754      c0.298-0.477-36.677-21.572-36.071-22.54c0.451-0.723,39.802,20.605,39.802,20.605s-39.563-23.159-38.859-24.283l42.075,22.987      c0.633-1.015-40.455-25.279-40.455-25.279l45.195,23.864c0.687-1.1-41.775-26.104-41.775-26.104      c0.057-0.091,44.1,24.419,44.594,23.628l-42.422-26.509c0,0,46.037,26.717,47.004,25.17c0.932-1.49-46.6-29.119-46.6-29.119      c0.215-0.343,49.639,27.611,49.639,27.611s-48.103-29.202-47.718-29.817c0.396-0.635,50.178,27.77,50.178,27.77      c0.148-0.238-48.964-29.071-48.279-30.168c0.167-0.266,50.98,29.001,51.4,28.329c0.595-0.952-48.832-30.197-48.689-30.424      c0.397-0.637,52.896,27.992,52.896,27.992c0.507-0.811-50.217-31.38-50.217-31.38s51.74,30.239,52.565,28.919      c0.49-0.784-52.435-31.615-51.918-32.441c1.042-1.668,54.719,30.292,55.263,29.422l-52.111-32.563      c0.363-0.58,54.542,29.817,54.542,29.817c0.049-0.079-52.179-32.604-52.179-32.604s53.55,31.533,54.204,30.484      c0.909-1.455-53.277-33.291-53.277-33.291s54.047,32.792,55.084,31.132c0.15-0.241-54.082-32.188-53.359-33.344      c0,0,56.068,32.181,57.101,30.53c0,0-55.341-32.543-54.425-34.009c0,0,56.28,33.19,57.182,31.747l-55.238-34.517l56.767,30.916      c1.07-1.712-54.896-34.303-54.896-34.303c0.749-1.198,56.96,33.111,57.862,31.668c0.233-0.374-55.01-33.889-54.792-34.237      c0,0,55.68,31.273,55.896,30.927c0,0-54.48-31.692-53.424-33.384l56.392,32.05c0.51-0.816-55.859-34.038-55.471-34.661      c0.861-1.378,57.074,31.73,57.074,31.73s-56.39-32.532-55.174-34.477l56.76,31.96c0.487-0.78-55.371-34.6-55.371-34.6      c0.225-0.359,57.464,30.841,57.464,30.841c0.84-1.344-57.294-35.802-57.294-35.802s56.861,32.975,57.422,32.076l-56.155-35.09      l59.265,32.009c0.876-1.401-59.075-36.915-59.075-36.915c1.232-1.973,59.553,33.614,60.051,32.816      c0.374-0.599-59.277-37.041-59.277-37.041s59.865,36.276,60.902,34.617c0.219-0.351-61.426-38.383-61.426-38.383l62.907,34.491      c0.454-0.728-63.745-37.862-62.859-39.279c0,0,62.967,35.623,63.04,35.505l-63.141-39.455c0,0,62.761,36.803,63.65,35.38      c0.318-0.511-66.517-41.056-66.288-41.422l66.922,38.707l-68.433-42.761c0,0,68.999,42.324,70.382,40.111      c1.169-1.871-71.558-44.715-71.558-44.715l71.262,40.717c0,0-78.029-45.482-76.557-47.838      c0.006-0.011,76.109,45.335,76.731,44.34L300.407,200.3c0.669-1.07,83.856,51.67,84.962,49.9c0,0-83.04-50.712-82.512-51.559      l83.98,48.311l-77.422-48.378c0.945-1.512,76.018,43.164,76.018,43.164c1.273-2.038-70.623-41.893-69.617-43.501      c0.834-1.335,70.529,40.544,70.785,40.136c0.054-0.086-63.733-39.825-63.733-39.825l62.884,34.377l-54.025-33.758      c0,0,52.775,29.978,52.935,29.722l-47.549-29.711l48.193,26.98c0,0-43.128-25.636-42.537-26.581      c0,0,40.964,23.312,41.691,22.148l-34.364-21.473c0.532-0.852,33.256,17.991,33.45,17.68      c0.352-0.562-28.164-17.599-28.164-17.599s26.087,13.754,26.611,12.916c0.264-0.422-21.137-12.174-20.673-12.917      c0.355-0.569,20.462,9.086,20.462,9.086c0.001-0.002-14.032-8.251-13.8-8.623c0.134-0.215,10.862,2.898,10.862,2.898      l-3.43-2.143" style="fill:none;stroke:#231F20;stroke-width:2;stroke-linecap:round;stroke-linejoin:round;"/></g><g><path d="M117.923,374.908      c0.325-0.521-62.941-38.155-62.413-39c0,0,40.179,22.683,40.82,21.656l-45.576-28.479c0.047-0.075,33.981,16.756,34.035,16.67      c0.771-1.234-38.182-22.749-37.684-23.548c0,0,30.911,15.991,30.93,15.961l-34.058-21.281c0,0,28.833,15.71,29.266,15.019      l-31.718-19.819c0,0,25.225,12.548,25.73,11.737c0.361-0.577-27.881-17.347-27.847-17.4      c0.132-0.212,24.915,11.543,24.918,11.538c0.244-0.391-28.077-17.545-28.077-17.545s23.751,12.317,24.214,11.578      c0,0-26.325-16.305-26.26-16.409l23.056,9.699l-23.904-14.938c0.294-0.47,20.18,8.021,20.387,7.69      c0.084-0.135-23.009-14.378-23.009-14.378l20.756,9.178l-21.218-13.259l20.424,8.589c0.271-0.435-22.382-13.986-22.382-13.986      c0.102-0.163,19.777,8.954,20.112,8.418c0.375-0.6-20.493-11.785-20.034-12.519l19.653,8.579c0,0-20.513-11.948-20.122-12.574      c0,0,18.278,7.625,18.469,7.319c0.307-0.491-19.773-12.356-19.773-12.356s18.99,7.258,19.243,6.853      c0.021-0.033-18.69-11.425-18.576-11.607c0,0,17.985,7.47,18.237,7.068c0.049-0.079-19.144-11.963-19.144-11.963l18.272,7.119      c0.112-0.179-19.196-11.096-18.792-11.742c0,0,17.965,8.027,18.005,7.963l-16.662-10.412l16.488,5.242      c0,0-17.401-10.098-17.053-10.656l16.893,7.16c0.068-0.109-17.643-10.337-17.333-10.832c0.176-0.281,17.147,7.323,17.345,7.006      l-16.454-10.282c0.195-0.313,17.394,6.804,17.394,6.804c0.006-0.01-17.69-10.367-17.381-10.861l17.379,5.954      c0,0-16.881-10.346-16.791-10.492c0.306-0.49,16.368,5.884,16.392,5.846l-15.951-9.968l16.727,5.94      c0,0-15.212-9.426-15.176-9.483c0.218-0.349,15.656,5.632,15.818,5.373l-15.651-9.78c0,0,16.526,7.612,16.764,7.231      c0,0-15.896-9.625-15.757-9.847c0.014-0.023,15.403,6.455,15.703,5.975c0.238-0.382-14.113-8.819-14.113-8.819l14.731,5.871      l-14.992-9.368c0.315-0.504,16.693,6.62,16.917,6.261c0.218-0.349-14.283-8.925-14.283-8.925s13.917,6.017,14.164,5.621      c0.289-0.462-14.548-8.753-14.397-8.997c0.259-0.414,15.964,5.718,15.985,5.685c0,0-13.596-8.304-13.51-8.442l14.313,3.786      l-13.08-8.173c0.113-0.182,15.382,6.453,15.382,6.453l-13.985-8.739c0.081-0.13,13.918,5.256,13.918,5.256      s-14.191-8.773-14.149-8.841c0.241-0.385,16.367,6.561,16.367,6.561s-15.401-9.476-15.334-9.582l15.73,5.06      c0,0-13.466-8.366-13.444-8.401l15.765,5.784c0.04-0.063-14.736-9.2-14.732-9.206c0.193-0.31,16.787,6.545,16.906,6.354      c0.206-0.329-14.567-9.102-14.567-9.102c0.146-0.233,14.435,5.354,14.435,5.354l-13.158-8.222      c0.181-0.288,14.18,6.063,14.362,5.771l-11.937-7.459l14.747,4.721c0,0-13.21-8.059-13.122-8.2      c0.129-0.207,14.12,5.746,14.12,5.746s-13.293-7.923-13.121-8.199c0,0,13.653,5.517,13.73,5.394      c0.08-0.127-12.284-7.356-12.14-7.586l13.892,4.892c0.268-0.428-12.362-7.725-12.362-7.725l14.401,5.213      c0.161-0.258-13.315-8.32-13.315-8.32c0.125-0.201,16.011,5.179,16.011,5.179s-13.259-8.008-13.135-8.208      c0.066-0.106,14.884,5.144,14.884,5.144c0.249-0.397-12.696-7.933-12.696-7.933l15.732,5.438c0,0-13.587-8.142-13.431-8.392      c0.124-0.198,13.857,5.301,13.857,5.301c0.199-0.318-13.262-7.692-12.995-8.12c0,0,16.091,5.223,16.096,5.215l-12.792-7.993      c0.304-0.485,15.567,6.027,15.634,5.92c0.125-0.201-13.397-8.372-13.397-8.372c0.105-0.169,14.383,5.999,14.597,5.655      l-12.954-8.094l14.884,4.553c0.229-0.366-12.533-7.831-12.533-7.831s14.793,6.111,14.798,6.104c0,0-13.233-7.642-12.951-8.093      l14.506,5.411l-11.837-7.396c0.301-0.482,15.675,5.256,15.682,5.244c0.279-0.446-12.636-7.896-12.636-7.896l13.684,5.371      l-13.071-8.168c0.121-0.193,15.5,6.454,15.617,6.267c0,0-13.098-8.149-13.082-8.175c0.295-0.472,14.884,5.552,14.935,5.471      c0.064-0.102-12.133-7.582-12.133-7.582s16.439,5.748,16.663,5.39c0.271-0.433-13.989-8.742-13.989-8.742      s17.332,5.921,17.437,5.753l-14.449-9.029c0.22-0.353,16.438,6.71,16.673,6.333c0.185-0.295-14.161-8.263-13.897-8.685      l15.829,5.987l-12.762-7.975l16.094,5.455c0.108-0.173-13.025-8.139-13.025-8.139l16.26,6.216c0,0-12.994-8.01-12.945-8.089      l15.349,5.364c0.183-0.292-12.278-7.195-12.063-7.539c0.018-0.029,15.747,4.654,15.747,4.654      c0.029-0.047-12.718-7.947-12.718-7.947c0.231-0.369,16.153,5.442,16.153,5.442c0.189-0.303-12.661-7.912-12.661-7.912      s15.611,6.53,15.637,6.489c0.113-0.18-13.294-8.307-13.294-8.307c0.139-0.223,16.986,7.272,17.165,6.986      c0.048-0.077-15.026-9.389-15.026-9.389c0.31-0.496,16.864,6.414,16.864,6.414s-13.772-8.592-13.766-8.602      c0.173-0.277,17.147,6.68,17.147,6.68s-13.798-8.314-13.66-8.536c0.035-0.056,16.333,6.509,16.333,6.509l-12.434-7.77      l17.076,5.937c0.03-0.049-13.258-8.285-13.258-8.285c0.161-0.258,17.047,6.292,17.047,6.292s-14.296-8.778-14.227-8.89      c0.124-0.197,18.41,7.165,18.677,6.737l-15.059-9.41c0.17-0.273,17,7.494,17.279,7.045L144.8,74.254      c0,0,17.098,7.804,17.181,7.67l-14.331-8.955c0.22-0.351,17.963,8.077,18.305,7.53c0.01-0.016-15.053-9.406-15.053-9.406      c0.153-0.245,19.266,7.317,19.301,7.26l-14.472-9.043c0,0,17.866,6.595,18.098,6.225c0.251-0.403-13.963-8.599-13.907-8.69      l18.761,7.183L163.917,64.8c0.333-0.531,17.726,8.236,17.898,7.96c0.184-0.294-15.615-9.699-15.589-9.741      c0,0,20.539,8.492,20.728,8.19c0.169-0.271-15.445-9.651-15.445-9.651l18.24,8.275c0.322-0.515-15.121-9.113-14.97-9.354      c0.155-0.249,18.776,7.885,19.033,7.474l-14.703-9.188l20.894,8.274c0.279-0.447-16.756-10.133-16.605-10.376l20.152,8.321      c0.151-0.242-15.832-9.893-15.832-9.893c0-0.001,20.784,9.402,20.784,9.402c0.191-0.306-17.383-10.862-17.383-10.862      c0.016-0.026,20.833,9.52,20.833,9.52c0.358-0.573-16.648-10.403-16.648-10.403c0.162-0.259,20.317,9.243,20.317,9.243      c0.194-0.311-16.126-10.077-16.126-10.077c0.201-0.322,21.78,9.743,21.78,9.743s-18.888-10.932-18.497-11.558      c0.363-0.581,22.771,10.175,22.771,10.175c0.232-0.372-17.1-10.685-17.1-10.685c0.423-0.677,21.224,9.748,21.224,9.748      S211.61,48.408,211.771,48.15l23.879,10.838L215.82,46.597c0.216-0.346,25.772,11.93,26.113,11.386l-20.097-12.558      c0.385-0.617,25.822,12.656,26.119,12.182c0.136-0.219-21.475-12.532-21.076-13.17c0.333-0.534,25.826,12.818,26.244,12.149      l-20.339-12.709c0.021-0.033,27.242,13.017,27.242,13.017s-22.086-12.862-21.665-13.538l27.911,12.502      c0.253-0.405-21.532-12.792-21.234-13.269c0,0,28.815,14.107,29.185,13.515c0,0-22.682-13.697-22.468-14.039l29.872,14.169      c0.102-0.163-23.646-14.775-23.646-14.775c0.14-0.224,32.091,16.217,32.382,15.751l-26.501-16.56      c0,0,35.347,17.941,35.599,17.539c0.483-0.773-27.471-16.349-27.104-16.937c0.437-0.699,36.42,19.083,36.838,18.415      c0.598-0.957-30.393-17.985-29.94-18.709c0.102-0.163,38.686,20.371,38.686,20.371c0.557-0.89-32.4-20.246-32.4-20.246      c0.545-0.872,42.518,22.93,42.518,22.93c0.251-0.402-35.35-22.089-35.35-22.089s50.027,27.164,50.383,26.595l-40.555-25.341      l61.848,34.745c1.083-1.733-54.417-34.003-54.417-34.003" style="fill:none;stroke:#262626;stroke-width:2;stroke-linecap:round;stroke-linejoin:round;"/><path d="M133.61,402.893      c0.309-0.493-25.879-15.237-25.459-15.908c0.742-1.188,51.229,28.612,51.229,28.612s-73.417-45.065-73.052-45.648      c0,0,90.978,54.685,92.004,53.042L72.827,357.063c0,0,119.044,74.141,121.211,70.672c2.012-3.221-132.003-78.428-130.18-81.346      c0,0,138.671,88.686,141.347,84.403L56.698,337.995l156.682,94.654c0.613-0.98-53.711-33.563-53.711-33.563      c1.171-1.874,63.275,36.935,63.766,36.148l-45.511-28.438l56.156,29.906c0.067-0.108-38.229-23.888-38.229-23.888l47.041,25.141      c0,0-34.894-20.624-34.363-21.473l41.66,22.017c0.105-0.168-31.027-19.388-31.027-19.388l39.122,20.553      c0.248-0.397-30.537-17.957-30.032-18.766c0.418-0.669,36.994,18.851,36.994,18.851s-29.553-17.3-29.029-18.14l34.671,18.36      c0.436-0.698-27.845-17.399-27.845-17.399l35.584,17.86c0.431-0.689-25.896-16.182-25.896-16.182      c0.04-0.064,31.224,16.039,31.568,15.487l-23.728-14.826c0,0,30.396,16.186,31.022,15.183      c0.499-0.797-25.313-15.817-25.313-15.817c0.129-0.206,30.431,15.608,30.431,15.608s-24.831-15.08-24.636-15.394      c0.228-0.362,29.292,14.72,29.292,14.72c0.071-0.115-23.663-14.052-23.333-14.58c0.091-0.145,28.412,14.473,28.641,14.107      c0.273-0.438-22.102-13.666-22.036-13.771c0.212-0.34,29.186,13.177,29.186,13.177c0.219-0.351-21.449-13.403-21.449-13.403      s25.579,12.936,25.975,12.303c0.203-0.325-21.935-13.229-21.72-13.572c0.507-0.811,27.587,12.717,27.851,12.294l-20.195-12.619      c0.16-0.256,24.926,11.311,24.926,11.311c0.019-0.03-19.033-11.894-19.033-11.894s22.492,11.26,22.758,10.835      c0.335-0.537-19.143-11.961-19.143-11.961s22.357,11.604,22.771,10.94c0.055-0.087-18.857-11.201-18.596-11.62      c0,0,24.504,11.119,24.934,10.43c0,0-18.818-11.048-18.499-11.56c0,0,22.983,11.163,23.336,10.599l-18.725-11.701l22.604,9.569      c0.357-0.571-17.684-11.051-17.684-11.051c0.282-0.451,22.519,10.34,22.859,9.796c0.077-0.123-17.641-10.862-17.568-10.978      c0,0,20.758,9.142,20.836,9.018c0,0-16.451-9.511-16.105-10.063l20.602,9.687c0.165-0.264-18.028-10.986-17.902-11.188      c0.31-0.495,21.479,9.488,21.479,9.488s-17.595-10.134-17.208-10.753l20.69,9.422c0.152-0.244-16.921-10.573-16.921-10.573      c0.079-0.127,21.473,8.351,21.473,8.351c0.256-0.41-17.85-11.153-17.85-11.153s19.809,8.985,19.995,8.688l-15.851-9.905      l21.533,8.433c0.254-0.406-17.469-10.916-17.469-10.916c0.407-0.65,20.779,8.642,20.943,8.379      c0.104-0.167-16.267-10.165-16.267-10.165s19.421,9.409,19.741,8.896c0.06-0.096-17.261-10.785-17.261-10.785l21.324,8.508      c0.12-0.191-17.096-10.164-16.862-10.537c0,0,19.121,8.108,19.142,8.074l-15.293-9.556c0,0,18.103,7.453,18.343,7.069      c0.078-0.125-16.157-9.972-16.101-10.062l18.436,8.409l-15.942-9.962c0,0,19.74,9.3,20.114,8.7      c0.26-0.415-15.518-9.696-15.518-9.696l17.531,7.142c0,0-15.769-9.174-15.463-9.662c0.001-0.003,17.619,7.702,17.754,7.486      l-15.711-9.817c0.134-0.214,17.736,8.384,17.957,8.031c0,0-14.407-8.782-14.308-8.94l18.37,7.313l-15.563-9.725      c0.196-0.314,17.044,6.313,17.044,6.313c0.283-0.453-15.137-8.961-14.913-9.318c0.208-0.333,18.721,7.744,18.784,7.643      c0.013-0.021-15.793-9.868-15.793-9.868l18.438,6.604l-14.742-9.212c0,0,16.087,6.799,16.133,6.726l-14.365-8.976l17.34,7.7      c0,0-15.291-9.084-15.079-9.423c0,0,17.061,7.397,17.349,6.938l-14.404-9.001c0.247-0.396,16.073,7.023,16.164,6.878      c0.186-0.298-14.561-9.099-14.561-9.099s15.951,6.944,16.261,6.448c0.189-0.303-15.016-8.641-14.683-9.175      c0.307-0.49,17.825,7.438,17.825,7.438c0.001-0.001-15.901-9.348-15.637-9.771c0.213-0.341,16.591,6.479,16.591,6.479      l-13.895-8.683c0.293-0.469,16.372,6.604,16.529,6.353c0.261-0.417-13.818-8.63-13.816-8.633l15.183,6.074      c0,0-14.796-8.533-14.476-9.046l16.581,6.69c0,0-14.438-8.429-14.171-8.854c0.092-0.147,16.424,6.982,16.469,6.91      c0.121-0.193-14.548-8.832-14.432-9.018c0.094-0.15,16.439,7.791,16.716,7.35l-15.032-9.394      c0.305-0.487,15.624,5.841,15.624,5.841c0.264-0.422-14.057-8.783-14.057-8.783c0.232-0.372,15.753,6.451,15.753,6.451      c0.14-0.224-13.858-8.033-13.577-8.484l16.946,5.848c0.105-0.17-15.866-9.764-15.799-9.872l17.857,6.4      c0.252-0.402-14.975-9.357-14.975-9.357c0.198-0.317,15.838,6.674,16.146,6.18c0.037-0.06-15.414-9.632-15.414-9.632      c0.248-0.396,16.476,7.536,16.685,7.202c0.183-0.293-14.67-9.167-14.67-9.167s16.697,5.657,16.854,5.407      c0,0-14.791-8.702-14.548-9.09l16.889,6.309c0.244-0.392-16.186-10.114-16.186-10.114l16.309,6.075      c0.172-0.275-14.248-8.555-14.092-8.806c0.082-0.131,16.875,6.848,16.875,6.848c0.258-0.413-16.04-10.023-16.04-10.023      c0.145-0.23,17.03,7.124,17.068,7.063c0.313-0.502-16.009-10.003-16.009-10.003l17.896,6.996l-15.863-9.912      c0.207-0.331,16.214,6.454,16.436,6.101c0,0-14.948-8.629-14.628-9.141c0.013-0.021,16.734,6.01,16.825,5.866l-15.019-9.385      c0,0,14.811,5.194,14.841,5.145c0.24-0.385-13.978-8.734-13.978-8.734c0.262-0.419,15.646,5.209,15.656,5.193      c0,0-14.623-8.729-14.439-9.023c0.252-0.403,15.384,6.535,15.384,6.535c0.191-0.308-14.463-8.78-14.347-8.965l16.598,5.705      l-16.18-10.109l17.123,6.411c0.301-0.482-17.153-10.132-16.89-10.555c0,0,16.423,7.136,16.639,6.791      c0,0-15.273-9.153-15.098-9.435c0.138-0.221,16.449,6.825,16.449,6.825c0.31-0.495-15.284-9.085-15.074-9.42l16.258,6.799      c0.082-0.131-16.14-9.335-15.803-9.875c0.231-0.37,16.34,7.162,16.477,6.943c0,0-17.141-10.133-16.881-10.548      c0,0,16.444,5.979,16.558,5.798l-16.183-10.112c0,0,17.724,7.836,17.905,7.545c0.06-0.095-16.294-9.879-16.158-10.097      c0.057-0.091,16.322,7.282,16.617,6.813l-15.95-9.967c0.13-0.208,16.777,5.727,16.777,5.727      c0.32-0.513-17.248-10.777-17.248-10.777c0.312-0.498,17.434,6.889,17.702,6.459c0.023-0.037-16.974-10.607-16.974-10.607      l16.083,6.771c0.357-0.572-16.91-10.06-16.683-10.424l17.059,7.428c0.153-0.246-16.211-10.129-16.211-10.129l17.711,7.018      c0,0-18.422-10.868-18.133-11.331c0,0,16.659,7.911,16.983,7.392c0.214-0.343-16.814-10.04-16.604-10.375l17.497,6.657      c0.067-0.107-17.54-10.39-17.283-10.8l16.594,6.594c0,0-16.933-10.38-16.843-10.524l17.883,7.951      c0.32-0.513-19.237-11.156-18.849-11.778l18.618,8.188c0.352-0.561-17.903-10.502-17.596-10.995      c0.196-0.314,17.18,7.877,17.298,7.688c0.126-0.201-18.522-10.724-18.141-11.335c0,0,17.071,7.753,17.359,7.292      c0.393-0.629-17.113-10.694-17.113-10.694l17.851,6.844l-19.236-12.02c0,0,18.674,8.534,19.008,7.999      c0.409-0.655-19.896-12.139-19.764-12.35c0.351-0.563,18.435,8.39,18.435,8.39s-20.172-11.902-19.856-12.407l19.732,9.172      l-19.931-12.454c0,0,19.496,8.374,19.581,8.238l-21.412-13.379c0.309-0.493,20.755,9.973,20.914,9.717      c0.081-0.129-20.517-12.82-20.517-12.82c0.184-0.294,18.65,7.316,18.65,7.316c0.32-0.513-19.954-12.469-19.954-12.469      s19.271,9.087,19.656,8.471c0.016-0.025-23.042-13.391-22.589-14.115c0,0,21.459,10.469,21.81,9.906      c0.328-0.524-23.645-14.664-23.595-14.744l22.533,10.819l-23.41-14.628l21.706,9.61c0.085-0.136-24.042-15.023-24.042-15.023      s22.048,9.819,22.324,9.376c0.267-0.426-25.76-15.633-25.552-15.966c0,0,23.492,11.702,23.935,10.994      c0.58-0.928-26.541-15.806-26.19-16.366l23.824,10.711l-27.247-17.025c0.287-0.458,25.358,12.636,25.358,12.636      s-28.62-17.625-28.504-17.811l26.137,11.378c0.261-0.417-31.729-19.292-31.488-19.676c0.545-0.872,28.61,14.852,28.824,14.51      c0.304-0.487-34.447-20.099-33.807-21.125c0.493-0.789,29.251,14.497,29.804,13.613l-39.201-24.495      c0,0,33.091,16.832,33.504,16.171l-46.242-28.896c0.216-0.344,42.454,24.705,43.325,23.311      c0.777-1.244-64.78-40.479-64.78-40.479l58.891,32.539L322.335,46.339c2.376-3.802,117.074,73.636,118.867,70.767      c1.065-1.705-111.613-66.474-110.144-68.826c2.025-3.24,99.281,57.094,99.281,57.094s-84.822-52.468-84.582-52.853      c0.169-0.27,68.81,38.027,68.892,37.896c0.849-1.357-48.072-28.406-47.339-29.581" style="fill:none;stroke:#262626;stroke-width:2;stroke-linecap:round;stroke-linejoin:round;"/><path d="M191.12,227.155      c0.018-0.029-1.21-0.701-1.185-0.741c0.062-0.099,4.877-0.352,4.877-0.352s-10.307-6.332-10.258-6.41      c0,0,11.482,2.983,11.598,2.798L178.21,211.24c0,0,18.318,7.055,18.624,6.567c0.398-0.637-24.917-14.767-24.556-15.344      c0,0,25.861,13.295,26.335,12.536L165.2,194.12l34.596,18.367c0.45-0.72-39.279-24.544-39.279-24.544      c0.768-1.229,42.046,23.294,42.368,22.778l-47.826-29.885l49.905,26c0.091-0.146-51.795-32.366-51.795-32.366l54.332,29.697      c0,0-52.109-30.809-51.322-32.069l53.478,29.401c0.169-0.271-50.724-31.696-50.724-31.696l54.23,29.993      c0.426-0.681-52.694-31.001-51.829-32.386c0.624-0.998,54.393,29.724,54.393,29.724s-53.663-31.413-52.71-32.938l55.402,31.313      c0.833-1.334-53.208-33.248-53.208-33.248l57.402,31.493c0.869-1.39-52.985-33.109-52.985-33.109      c0.072-0.115,55.232,31.664,55.856,30.665l-52.723-32.945c0,0,56.471,33.743,57.666,31.832      c1.127-1.803-56.205-35.121-56.205-35.121c0.26-0.416,59.856,33.995,59.856,33.995s-57.441-34.868-56.981-35.605      c0.479-0.768,60.405,34.162,60.405,34.162c0.178-0.284-58.32-34.625-57.503-35.932c0.202-0.323,61.492,35.768,62.001,34.953      c0.708-1.133-58.252-36.023-58.083-36.294c0.492-0.787,64.944,35.521,64.944,35.521c0.609-0.976-60.544-37.833-60.544-37.833      s64.521,38.693,65.556,37.036c0.6-0.96-64.127-38.665-63.495-39.676c1.378-2.206,71.71,41.301,72.43,40.15l-67.219-42.003      c0.493-0.789,73.612,41.734,73.612,41.734c0.065-0.104-69.484-43.418-69.484-43.418s73.783,44.743,74.692,43.288      c1.228-1.964-72.189-45.109-72.189-45.109s75.794,47.335,77.261,44.989c0.207-0.332-75-44.65-74.005-46.243      c0,0,81.344,49.049,82.858,46.625c0,0-78.808-46.354-77.509-48.433c0,0,83.211,51.008,84.558,48.853l-80.48-50.289      l87.027,49.825c1.598-2.557-82.403-51.491-82.403-51.491c1.184-1.895,88.941,54.261,90.367,51.979      c0.36-0.576-85.286-52.544-84.949-53.083c0,0,90.389,53.274,90.746,52.703c0,0-87.394-50.889-85.722-53.565l92.553,54.646      c0.821-1.315-89.92-54.793-89.293-55.796c1.461-2.339,95.749,55.897,95.749,55.897s-92.585-53.429-90.597-56.611l96.647,56.885      c0.805-1.288-91.844-57.39-91.844-57.39c0.398-0.638,100.429,57.688,100.429,57.688c1.395-2.232-94.762-59.213-94.762-59.213      s99.124,60.337,100.114,58.752l-94.07-58.781l104.124,60.04c1.44-2.305-96.809-60.493-96.809-60.493      c2.177-3.482,103.628,62.003,104.507,60.596c0.605-0.968-96.074-60.034-96.074-60.034s98.686,62.066,100.411,59.304      c0.338-0.541-94.571-59.095-94.571-59.095l91.141,52.134c0.585-0.935-81.836-48.603-80.697-50.425      c0,0,74.152,42.64,74.238,42.503l-64.115-40.064c0,0,52.939,30.348,53.686,29.153c0.196-0.314-40.968-25.285-40.827-25.511" style="fill:none;stroke:#262626;stroke-width:2;stroke-linecap:round;stroke-linejoin:round;"/><path d="M232.923,276.826      c0.134-0.214-10.225-5.984-10.043-6.275c0.316-0.505,22.543,10.688,22.543,10.688s-31.322-19.229-31.168-19.477      c0,0,39.824,21.41,40.261,20.71l-44.448-27.774c0,0,50.37,28.395,51.265,26.963c0.821-1.313-52.97-31.443-52.226-32.635      c0,0,56.49,33.762,57.56,32.048l-59.522-37.194l63.053,36.149c0.719-1.15-63.118-39.441-63.118-39.441      c1.256-2.01,67.784,39.832,68.311,38.989l-68.021-42.504l72.311,40c0.126-0.202-71.505-44.681-71.505-44.681l75.213,42.745      c0,0-74.798-44.234-73.672-46.036l76.413,43.733c0.247-0.396-74.781-46.729-74.781-46.729l78.484,45.148      c0.631-1.01-78.396-46.131-77.112-48.186c0.919-1.471,79.33,45.307,79.33,45.307s-79.892-46.768-78.474-49.037l80.554,47.031      c1.235-1.978-78.852-49.272-78.852-49.272l81.869,46.781c1.275-2.041-78.136-48.825-78.136-48.825      c0.104-0.165,78.361,46.717,79.256,45.287l-76.463-47.779c0,0,77.458,47.876,79.11,45.23      c1.566-2.506-77.863-48.654-77.863-48.654c0.346-0.554,79.326,46.163,79.326,46.163s-77.199-46.858-76.579-47.852      c0.617-0.987,77.226,44.672,77.226,44.672c0.229-0.367-75.261-44.682-74.207-46.37c0.246-0.394,74.531,44.162,75.151,43.17      c0.864-1.383-71.225-44.047-71.018-44.377c0.548-0.878,72.219,40.066,72.219,40.066c0.677-1.082-67.24-42.016-67.24-42.016      s65.86,39.58,66.918,37.887c0.605-0.97-64.759-39.045-64.121-40.067c1.204-1.926,62.899,35.592,63.527,34.587l-56.908-35.56      c0.368-0.59,55.423,30.368,55.423,30.368c0.046-0.074-49.461-30.906-49.461-30.906s47.17,27.369,47.745,26.449      c0.742-1.188-43.325-27.073-43.325-27.073s39.956,23.37,40.716,22.154c0.1-0.159-35.167-20.919-34.692-21.678      c0,0,25.853,12.018,26.308,11.288c0,0-12.067-7.076-11.858-7.41" style="fill:none;stroke:#262626;stroke-width:2;stroke-linecap:round;stroke-linejoin:round;"/><path d="M212.427,279.533      c0.442-0.708-85.67-51.935-84.952-53.084c0,0,73.207,44.54,74.396,42.637l-74.042-46.267      c0.098-0.157,68.991,38.763,69.104,38.583c1.357-2.173-68.076-40.584-67.198-41.99c0,0,62.416,35.724,62.456,35.66      l-61.924-38.695c0,0,57.058,34.334,57.934,32.933l-57.146-35.708c0,0,49.949,29.179,50.986,27.52      c0.617-0.987-49.106-30.558-49.049-30.649c0.245-0.393,44.87,24.018,44.875,24.008c0.387-0.619-44.566-27.848-44.566-27.848      s38.086,21.934,38.844,20.72c0,0-38.045-23.565-37.952-23.715l31.659,15.075l-28.903-18.061      c0.307-0.491,20.971,8.534,21.186,8.189c0.074-0.118-20.058-12.534-20.058-12.534l14.184,5.071l-12.047-7.528l6.782,0.064      c0.065-0.105-5.657-3.535-5.657-3.535" style="fill:none;stroke:#262626;stroke-width:2;stroke-linecap:round;stroke-linejoin:round;"/><path d="M189.692,335.248      c0.227-0.363-18.599-10.935-18.29-11.429c0.533-0.853,37.15,19.814,37.15,19.814s-53.086-32.588-52.823-33.008      c0,0,66.076,38.486,66.816,37.303l-75.839-47.39c0,0,85.763,51.971,87.313,49.489c1.438-2.302-93.916-55.785-92.612-57.871      c0,0,95.549,59.866,97.383,56.932l-102.206-63.865l103.467,61.402c1.199-1.92-105.704-66.052-105.704-66.052      c2.017-3.228,107.847,65.575,108.692,64.223l-110.888-69.291l112.611,65.184c0.203-0.324-114.929-71.816-114.929-71.816      l116.955,68.829c0,0-119.669-70.782-117.874-73.656l119.306,70.536c0.393-0.629-120.007-74.989-120.007-74.989l122.696,72.775      c1.008-1.612-125.561-73.896-123.51-77.177c1.46-2.337,124.953,73.814,124.953,73.814s-128.838-75.419-126.552-79.078      l128.191,76.798c2.013-3.222-128.422-80.247-128.422-80.247l131.076,77.529c2.112-3.379-129.809-81.114-129.809-81.114      c0.172-0.275,129.436,79.959,130.926,77.574l-130.741-81.696c0,0,130.837,83.827,133.656,79.315      c2.727-4.363-134.931-84.314-134.931-84.314c0.602-0.963,136.768,82.055,136.768,82.055s-137.28-83.315-136.171-85.089      c1.107-1.772,137.46,82.311,137.46,82.311c0.422-0.676-138.732-82.361-136.787-85.474      c0.458-0.734,137.517,84.711,138.672,82.862c0.354-0.567-28.822-17.822-28.737-17.957c0.231-0.371,31.6,14.684,31.6,14.684      c0.194-0.311-19.015-11.882-19.015-11.882s20.037,9.271,20.342,8.783c0.134-0.214-14.546-8.774-14.405-9.001      c0.291-0.465,16.485,5.529,16.636,5.286l-8.112-5.068c0.058-0.093,9.707,1.802,9.707,1.802c0.005-0.008-3.641-2.275-3.641-2.275      " style="fill:none;stroke:#262626;stroke-width:2;stroke-linecap:round;stroke-linejoin:round;"/><path d="M256.584,352.602      c0.028-0.045-0.805-0.416-0.766-0.479c0.092-0.147,7.223,1.115,7.223,1.115s-7.554-4.643-7.519-4.699      c0,0,14.318,4.825,14.464,4.59l-12.495-7.808c0,0,18.431,7.13,18.737,6.638c0.256-0.408-15.428-9.125-15.196-9.496      c0,0,20.235,9.537,20.601,8.953l-19.943-12.462l23.97,11.727c0.258-0.412-22.229-13.891-22.229-13.891      c0.499-0.798,27.778,14.126,27.987,13.792l-26.142-16.335l31.594,14.558c0.052-0.082-29.087-18.176-29.087-18.176l33.873,16.913      c0,0-31.851-18.823-31.366-19.6l35.257,18.015c0.111-0.178-32.979-20.606-32.979-20.606l37.843,19.754      c0.298-0.477-36.677-21.572-36.071-22.54c0.451-0.723,39.802,20.605,39.802,20.605s-39.563-23.159-38.859-24.283l42.075,22.987      c0.633-1.015-40.455-25.279-40.455-25.279l45.195,23.864c0.687-1.1-41.775-26.104-41.775-26.104      c0.057-0.091,44.1,24.419,44.594,23.628l-42.422-26.509c0,0,46.037,26.717,47.004,25.17c0.932-1.49-46.6-29.119-46.6-29.119      c0.215-0.343,49.639,27.611,49.639,27.611s-48.103-29.202-47.718-29.817c0.396-0.635,50.178,27.77,50.178,27.77      c0.148-0.238-48.964-29.071-48.279-30.168c0.167-0.266,50.98,29.001,51.4,28.329c0.595-0.952-48.832-30.197-48.689-30.424      c0.397-0.637,52.896,27.992,52.896,27.992c0.507-0.811-50.217-31.38-50.217-31.38s51.74,30.239,52.565,28.919      c0.49-0.784-52.435-31.615-51.918-32.441c1.042-1.668,54.719,30.292,55.263,29.422l-52.111-32.563      c0.363-0.58,54.542,29.817,54.542,29.817c0.049-0.079-52.179-32.604-52.179-32.604s53.55,31.533,54.204,30.484      c0.909-1.455-53.277-33.291-53.277-33.291s54.047,32.792,55.084,31.132c0.15-0.241-54.082-32.188-53.359-33.344      c0,0,56.068,32.181,57.101,30.53c0,0-55.341-32.543-54.425-34.009c0,0,56.28,33.19,57.182,31.747l-55.238-34.517l56.767,30.916      c1.07-1.712-54.896-34.303-54.896-34.303c0.749-1.198,56.96,33.111,57.862,31.668c0.233-0.374-55.01-33.889-54.792-34.237      c0,0,55.68,31.273,55.896,30.927c0,0-54.48-31.692-53.424-33.384l56.392,32.05c0.51-0.816-55.859-34.038-55.471-34.661      c0.861-1.378,57.074,31.73,57.074,31.73s-56.39-32.532-55.174-34.477l56.76,31.96c0.487-0.78-55.371-34.6-55.371-34.6      c0.225-0.359,57.464,30.841,57.464,30.841c0.84-1.344-57.294-35.802-57.294-35.802s56.861,32.975,57.422,32.076l-56.155-35.09      l59.265,32.009c0.876-1.401-59.075-36.915-59.075-36.915c1.232-1.973,59.553,33.614,60.051,32.816      c0.374-0.599-59.277-37.041-59.277-37.041s59.865,36.276,60.902,34.617c0.219-0.351-61.426-38.383-61.426-38.383l62.907,34.491      c0.454-0.728-63.745-37.862-62.859-39.279c0,0,62.967,35.623,63.04,35.505l-63.141-39.455c0,0,62.761,36.803,63.65,35.38      c0.318-0.511-66.517-41.056-66.288-41.422l66.922,38.707l-68.433-42.761c0,0,68.999,42.324,70.382,40.111      c1.169-1.871-71.558-44.715-71.558-44.715l71.262,40.717c0,0-78.029-45.482-76.557-47.838      c0.006-0.011,76.109,45.335,76.731,44.34L300.407,200.3c0.669-1.07,83.856,51.67,84.962,49.9c0,0-83.04-50.712-82.512-51.559      l83.98,48.311l-77.422-48.378c0.945-1.512,76.018,43.164,76.018,43.164c1.273-2.038-70.623-41.893-69.617-43.501      c0.834-1.335,70.529,40.544,70.785,40.136c0.054-0.086-63.733-39.825-63.733-39.825l62.884,34.377l-54.025-33.758      c0,0,52.775,29.978,52.935,29.722l-47.549-29.711l48.193,26.98c0,0-43.128-25.636-42.537-26.581      c0,0,40.964,23.312,41.691,22.148l-34.364-21.473c0.532-0.852,33.256,17.991,33.45,17.68      c0.352-0.562-28.164-17.599-28.164-17.599s26.087,13.754,26.611,12.916c0.264-0.422-21.137-12.174-20.673-12.917      c0.355-0.569,20.462,9.086,20.462,9.086c0.001-0.002-14.032-8.251-13.8-8.623c0.134-0.215,10.862,2.898,10.862,2.898      l-3.43-2.143" style="fill:none;stroke:#262626;stroke-width:2;stroke-linecap:round;stroke-linejoin:round;"/></g></g></g></g><g id="Layer_1"/></svg>