<?xml version="1.0" ?><!DOCTYPE svg  PUBLIC '-//W3C//DTD SVG 1.1//EN'  'http://www.w3.org/Graphics/SVG/1.1/DTD/svg11.dtd'><svg height="512px" style="enable-background:new 0 0 512 512;" version="1.1" viewBox="0 0 512 512" width="512px" xml:space="preserve" xmlns="http://www.w3.org/2000/svg" xmlns:xlink="http://www.w3.org/1999/xlink"><g id="digg__x2C__social__x2C__media__x2C__icons_x2C_"><g><g><g><path d="M117.75,374.727      l-61.797-38.614l42.382,23.022c0,0-48.093-27.921-47.135-29.454c0,0,37.14,19.878,37.232,19.729l-41.133-25.702l33.767,17.475      c0.332-0.532-37.117-23.193-37.117-23.193c0.312-0.498,29.842,13.858,29.842,13.858c0.654-1.047-33.557-20.969-33.557-20.969      l29.223,15.051c0.088-0.142-31.207-18.865-30.921-19.322l25.294,10.64c0,0-27.763-16.492-27.378-17.108l23.13,9.576      c0,0-26.363-15.863-26.089-16.302l22.363,10.048c0,0-23.995-14.799-23.907-14.939l22.247,10.483      c0.468-0.748-23.457-14.658-23.457-14.658s21.271,10.529,21.455,10.234c0.406-0.649-21.705-13.563-21.705-13.563      c0.247-0.396,21.134,9.443,21.134,9.443c0.313-0.501-22.437-14.021-22.437-14.021c0.15-0.24,20.813,8.253,20.813,8.253      c0.111-0.178-21.088-13.008-21.012-13.13c0,0,19.894,9.276,19.903,9.262c0,0-21.337-12.944-21.162-13.224      c0,0,18.951,8.441,19.055,8.274l-18.965-11.851l18.686,8.48c0,0-19.627-12.209-19.602-12.249      c0.157-0.252,18.224,7.693,18.271,7.617c0,0-18.511-11.342-18.41-11.504c0.007-0.012,18.471,6.951,18.548,6.828l-19.72-12.322      c0.179-0.286,17.794,8.248,18.015,7.895c0.336-0.537-18.143-11.337-18.143-11.337c0.377-0.603,18.924,7.507,19.054,7.299      c0.032-0.051-17.428-10.593-17.294-10.807c0.099-0.159,16.01,5.133,16.052,5.066c0,0-17.021-10.636-17.021-10.636      s17.575,7.993,17.819,7.602l-16.983-10.612c0.301-0.481,17.542,7.231,17.542,7.231s-18.409-10.786-18.086-11.302      c0.269-0.431,17.707,6.894,17.707,6.894c0.228-0.365-16.221-9.609-15.984-9.988c0.1-0.16,16.037,5.957,16.037,5.957      c0.196-0.313-15.703-9.813-15.703-9.813c0.259-0.414,15.617,5.706,15.617,5.706c0.268-0.428-15.399-9.009-15.123-9.45      l16.564,6.35l-15.58-9.735c0.092-0.147,16.264,5.794,16.364,5.634l-16.382-10.236c0.18-0.289,16.944,7.186,16.944,7.186      l-16.104-10.063l15.744,5.104l-15.232-9.519c0,0,15.827,6.836,16.14,6.336l-14.236-8.896c0.238-0.381,15.898,7.11,16.087,6.807      c0.302-0.484-15.666-9.344-15.465-9.664c0.21-0.336,16.589,5.726,16.589,5.726l-15.263-9.537      c0.01-0.016,15.652,5.374,15.743,5.229c0.233-0.373-14.05-8.779-14.05-8.779l15.182,4.893c0,0-15.096-8.806-14.814-9.257      c0.186-0.298,15.984,6.568,15.984,6.568c0.18-0.289-13.507-8.384-13.481-8.425c0,0,14.44,5.393,14.464,5.354      c0.094-0.15-13.395-8.37-13.395-8.37l14.545,4.883c0.232-0.371-13.629-7.948-13.374-8.357c0.225-0.36,15.324,5.538,15.613,5.074      c0,0-14.602-8.455-14.301-8.936l14.734,6.094c0,0-13.323-8.046-13.198-8.247c0,0,14.039,5.535,14.301,5.116l-13.099-8.186      c0.17-0.273,14.149,5.604,14.149,5.604c0.118-0.188-13.768-8.18-13.578-8.484c0.256-0.41,15.419,6.223,15.576,5.972      l-12.491-7.805c0.096-0.154,14.161,4.991,14.167,4.981c0.261-0.417-12.758-7.441-12.52-7.823      c0.278-0.444,15.599,4.774,15.599,4.774l-13.397-8.372c0.077-0.123,14.545,6.032,14.573,5.987l-13.329-8.329l14.513,5.29      c0.252-0.403-12.921-7.688-12.747-7.966c0.228-0.365,15.137,4.694,15.137,4.694s-14.107-8.531-13.979-8.735      c0,0,14.928,5.437,15.19,5.018c0,0-12.124-7.057-11.891-7.43c0,0,13.816,4.614,13.95,4.4c0,0-12.404-7.126-12.124-7.576      c0.166-0.265,15.059,5.624,15.059,5.624c0.033-0.053-12.95-8.092-12.95-8.092c0.101-0.162,14.666,4.322,14.666,4.322      c0.07-0.112-13.24-8.273-13.24-8.273c0.046-0.074,15.913,6.684,15.913,6.684c0.021-0.034-12.821-8.011-12.821-8.011      c0.059-0.094,14.3,4.928,14.483,4.636c0.265-0.423-12.625-7.889-12.625-7.889c0.066-0.106,14.833,5.686,14.9,5.577      c0.157-0.251-12.349-7.666-12.327-7.702c0.268-0.428,14.46,4.453,14.492,4.402c0.178-0.285-13.09-8.18-13.09-8.18l16.715,6.372      l-13.653-8.531c0,0,15.652,6.397,15.875,6.042l-13.86-8.661c0.11-0.176,14.48,5.809,14.48,5.809      c0.115-0.185-13.164-7.924-13.028-8.141c0.133-0.212,15.795,5.732,16.063,5.303c0,0-12.567-7.498-12.408-7.753l15.356,5.507      l-12.315-7.695c0.025-0.041,15.354,5.414,15.354,5.414l-13.544-8.463c0.167-0.268,16.091,6.484,16.091,6.484      c0.014-0.022-12.934-8.064-12.926-8.077c0,0,15.769,5.715,15.85,5.587c0,0-13.488-8.287-13.425-8.389      c0.021-0.033,16.463,6,16.611,5.764c0,0-13.291-7.77-13.05-8.155c0.217-0.347,14.811,6.121,14.816,6.113      c0.189-0.302-14.316-8.945-14.316-8.945c0.134-0.215,16.761,7.495,16.82,7.4c0,0-14.539-8.507-14.279-8.923      c0.279-0.446,16.306,5.601,16.306,5.601s-12.688-7.852-12.654-7.907c0,0,16.254,6.142,16.346,5.996      c0.032-0.051-12.72-7.948-12.72-7.948c0.237-0.379,15.913,5.94,15.913,5.94l-13.449-8.404l14.938,6.26l-12.887-8.053      l17.682,6.173c0,0-14.866-8.686-14.595-9.12l17.66,6.786c0.258-0.413-13.206-8.252-13.206-8.252      c0.109-0.175,16.182,5.459,16.263,5.331c0.103-0.165-12.608-7.878-12.608-7.878s15.334,6.801,15.497,6.542l-13.792-8.618      c0.266-0.426,17.492,6.564,17.583,6.419c0.116-0.187-13.765-8.602-13.765-8.602s16.688,7.268,16.976,6.806l-14.5-9.061      l17.068,6.718l-13.419-8.386c0,0,16.679,6.784,16.727,6.707c0.31-0.496-13.51-8.442-13.51-8.442      c0.096-0.153,16.512,7.069,16.582,6.958c0,0-14.113-8.506-13.972-8.731c0.28-0.448,18.441,6.988,18.441,6.988      s-15.316-9.45-15.262-9.537l20.311,7.769c0,0-16.188-9.51-15.916-9.945c0.368-0.589,18.456,8.342,18.456,8.342      c0.246-0.393-15.437-9.646-15.437-9.646c0.338-0.541,18.966,7.962,19.215,7.564c0.127-0.204-15.072-9.418-15.072-9.418      c0.145-0.231,19.188,7.83,19.347,7.576c0.319-0.51-14.631-8.891-14.518-9.072c0.311-0.498,18.64,8.153,18.752,7.973      c0.045-0.073-15.734-9.832-15.734-9.832l18.832,7.555c0,0-14.983-9.117-14.873-9.293c0.13-0.208,20.191,8.825,20.227,8.769      c0.328-0.524-15.702-9.812-15.702-9.812c0.228-0.363,18.289,7.766,18.289,7.766c0.115-0.183-15.876-9.92-15.876-9.92      c0.162-0.258,20.528,9.533,20.528,9.533s-17.664-10.277-17.322-10.824l20.931,9.796c0.053-0.084-17.358-10.694-17.29-10.804      l20.748,9.183c0.343-0.549-17.006-10.626-17.006-10.626c0.062-0.1,20.72,9.438,21.03,8.941c0,0-16.133-9.597-15.916-9.945      c0.352-0.563,20.381,8.987,20.381,8.987c0.053-0.085-17.317-10.612-17.223-10.762c0.41-0.657,23.683,9.894,23.683,9.894      c0.066-0.106-17.695-10.758-17.561-10.973c0,0,22.083,9.75,22.28,9.435c0.311-0.498-18.492-11.001-18.243-11.4l22.799,11.063      c0.101-0.162-18.554-11.594-18.554-11.594c0.222-0.355,22.777,11.216,22.976,10.898c0.383-0.613-18.544-11.587-18.544-11.587      c0.259-0.415,24.696,10.996,24.696,10.996c0.293-0.47-19.969-12.478-19.969-12.478c0.299-0.479,24.827,11.972,25.046,11.621      c0.045-0.072-20.282-12.098-20.023-12.512c0,0,25.684,11.293,25.838,11.046c0.054-0.087-19.333-11.761-19.189-11.99      c0.005-0.008,25.556,12.5,25.556,12.5c0.411-0.657-21.365-13.141-21.271-13.292c0.025-0.04,27.505,12.134,27.505,12.134      c0.214-0.342-21.654-12.563-21.219-13.259l27.92,13.567l-22.118-13.821c0.506-0.81,30.079,13.848,30.079,13.848      c0.062-0.099-23.041-14.398-23.041-14.398s28.637,14.626,28.764,14.423c0.067-0.108-24.263-14.178-23.821-14.885      c0.275-0.44,31.131,15.522,31.131,15.522c0.372-0.595-25.055-14.892-24.711-15.441l32.243,16.215      c0,0-27.951-16.504-27.52-17.196c0.383-0.612,35.314,19.278,35.733,18.608c0.452-0.724-29.275-17.528-28.932-18.078      c0,0,37.797,20.043,38.04,19.654c0.351-0.562-30.918-18.486-30.543-19.085c0,0,43.035,22.507,43.182,22.272      c0.088-0.141-36.122-21.42-35.604-22.248c0.842-1.349,50.751,28.051,51.299,27.174c0,0-43.202-25.821-42.675-26.666      l66.509,36.994c0.455-0.729-56.587-33.51-55.756-34.84" style="fill:none;stroke:#231F20;stroke-width:2;stroke-linecap:round;stroke-linejoin:round;"/><path d="M135.075,403.837      l-27.949-17.464c0.286-0.457,59.319,31.935,59.319,31.935L80.399,364.54c0,0,98.235,60.678,99.44,58.75      c0.603-0.965-109.585-64.725-107.899-67.423c0,0,118.441,73.303,119.564,71.506c0,0-127.2-77.771-126.431-79.003      c1.067-1.708,136.466,81.955,136.466,81.955c2.313-3.701-142.332-87.414-141.646-88.511l153.09,91.417      c0.123-0.197-58.44-36.323-58.353-36.463c0.624-0.998,69.57,38.644,69.57,38.644l-44.771-27.977      c0.028-0.045,53.507,30.834,54.31,29.549c0.364-0.582-39.434-24.25-39.258-24.531l47.075,25.945c0,0-36.433-21.214-35.735-22.33      c0.138-0.221,42.684,23.165,43.134,22.444c0.633-1.014-31.807-19.739-31.746-19.837c0.287-0.458,38.791,20.966,38.791,20.966      l-31.101-19.435c0,0,37.141,20.3,37.566,19.621c0,0-29.507-18.381-29.482-18.422l35.606,18.34      c0.091-0.146-28.008-16.235-27.439-17.146c0,0,35.167,18.188,35.195,18.142c0,0-27.738-16.326-27.286-17.05      c0,0,31.504,16.448,31.688,16.154c0.24-0.384-24.921-15.573-24.921-15.573c0.601-0.962,32.467,15.939,32.467,15.939      c0.441-0.707-24.797-15.495-24.797-15.495c0.47-0.752,30.888,15.485,31.422,14.632c0.22-0.352-23.548-14.714-23.548-14.714      c0.353-0.564,30.138,14.927,30.201,14.825c0.446-0.714-24.514-14.313-24.062-15.036c0,0,28.045,14.817,28.564,13.985      l-21.419-13.383c0.057-0.09,27.669,12.681,27.669,12.681c0.315-0.505-21.625-13.513-21.625-13.513      c0.036-0.057,26.158,12.973,26.158,12.973c0.122-0.194-21.806-12.665-21.374-13.355c0,0,27.743,13.259,28.073,12.73      l-20.749-12.966c0.308-0.492,24.891,11.625,24.891,11.625l-19.899-12.435c0,0,24.739,11.16,24.952,10.819      c0.021-0.036-19.841-12.38-19.832-12.393l26.234,11.315c0,0-20.281-11.853-19.913-12.443c0.007-0.009,24.83,10.824,24.83,10.824      l-18.109-11.316c0.142-0.227,21.77,10.129,21.77,10.129l-18.511-11.566c0.042-0.066,22.402,11.12,22.809,10.472      c0,0-18.384-11.183-18.246-11.402l21.964,9.673l-17.689-11.054c0.151-0.242,20.804,9.88,20.875,9.766l-16.482-10.3      c0.282-0.452,21.672,8.793,21.672,8.793s-17.967-10.789-17.771-11.104l21.627,9.565l-18.136-11.333      c0,0,21.188,10.213,21.555,9.627c0.2-0.321-17.021-10.636-17.021-10.636c0.193-0.31,20.887,8.535,20.887,8.535l-17-10.623      c0.093-0.148,19.98,10.228,20.368,9.608c0,0-17.033-9.849-16.676-10.42c0,0,20.045,8.168,20.336,7.703l-15.2-9.498l19.14,7.234      c0,0-16.075-9.866-15.995-9.995c0,0,21.569,8.855,21.738,8.585l-17.109-10.69c0.361-0.578,19.489,9.443,19.747,9.03      l-16.499-10.311c0.334-0.534,19.615,8.096,19.952,7.557l-15.502-9.688c0,0,18.02,6.958,18.13,6.782l-15.885-9.926      c0,0,18.171,8.31,18.216,8.237c0.048-0.077-15.862-9.912-15.862-9.912c0.301-0.48,18.983,8.729,18.983,8.729      c0.266-0.426-16.54-10.335-16.54-10.335s19.303,7.888,19.498,7.576c0.184-0.294-14.708-9.191-14.708-9.191l16.844,7.253      c0,0-15.322-9.382-15.236-9.521c0.316-0.506,17.948,7.204,18.232,6.75c0.225-0.359-15.232-9.518-15.232-9.518l18.443,7.364      c0.085-0.136-14.917-9.321-14.917-9.321c0.338-0.541,17.757,6.82,17.757,6.82c0.024-0.038-14.141-8.334-13.915-8.695      l17.341,6.424c0.225-0.359-14.951-9.343-14.951-9.343c0.2-0.32,18.187,6.759,18.292,6.589l-15.047-9.402      c0,0,17.022,7.368,17.254,6.999c0.149-0.239-16.01-9.596-15.826-9.89c0.213-0.341,17.123,8.322,17.463,7.779      c0.09-0.144-15.489-9.673-15.486-9.678c0.275-0.441,17.541,7.648,17.541,7.648l-15.484-9.676      c0.213-0.34,17.639,6.996,17.704,6.892l-14.058-8.784c0.125-0.2,17.321,6.017,17.328,6.006      c0.107-0.172-14.426-8.987-14.414-9.007l16.253,7.067l-15.744-9.838c0.205-0.328,17.031,6.335,17.031,6.335      c0.046-0.073-13.946-8.715-13.946-8.715l16.621,7.088c0.313-0.499-15.092-9.141-14.961-9.349c0,0,15.627,6.893,15.897,6.461      c0.183-0.292-14.416-9.008-14.416-9.008s16.764,5.878,16.905,5.651l-13.485-8.427c0.175-0.279,16.726,6.845,16.726,6.845      s-14.634-8.933-14.539-9.085c0.304-0.485,16.427,5.888,16.427,5.888l-14.594-9.119c0,0,15.376,5.558,15.566,5.253l-14.251-8.904      c0,0,16.401,7.033,16.585,6.741c0,0-14.902-9.181-14.843-9.275c0.056-0.088,16.195,7.427,16.482,6.968l-14.401-8.999      c0.153-0.245,15.116,6.456,15.257,6.231l-14.599-9.122l16.985,7.539c0,0-15.313-9.157-15.128-9.454      c0.082-0.132,15.778,6.634,15.939,6.377c0,0-15.5-9.301-15.327-9.577l17.781,6.955c0,0-16.614-9.666-16.292-10.181      c0.006-0.01,16.997,7.022,16.997,7.022l-15.414-9.632c0,0,17.312,7.495,17.574,7.074l-15.563-9.725      c0,0,16.799,6.342,17.104,5.853l-15.676-9.796c0.278-0.445,16.115,6.528,16.199,6.395c0.012-0.019-13.839-8.647-13.839-8.647      l15.054,4.425c0.112-0.179-15.192-9.054-14.994-9.37l16.045,6.413c0,0-14.693-8.48-14.378-8.984      c0.288-0.463,15.809,5.395,15.809,5.395c0.066-0.106-13.919-8.697-13.919-8.697c0.148-0.238,15.23,5.947,15.23,5.947      c0.113-0.18-14.503-9.063-14.503-9.063s16.353,7.087,16.565,6.747c0,0-16.638-9.729-16.338-10.209c0,0,16.479,7.716,16.7,7.363      c0.069-0.11-14.643-9.058-14.602-9.124c0.02-0.03,15.984,4.984,15.984,4.984l-16.041-10.023      c0.016-0.025,17.113,5.777,17.113,5.777c0.242-0.388-15.678-9.796-15.678-9.796s15.985,6.611,16.144,6.358l-14.943-9.337      l15.438,5.963c0.308-0.493-15.206-9.501-15.206-9.501l17.124,7.437c0,0-16.502-10.248-16.474-10.294      c0.054-0.086,17.232,6.391,17.352,6.2c0,0-16.395-9.454-16.039-10.021c0.231-0.371,15.677,6.398,15.737,6.303l-15.116-9.445      l16.204,5.394c0.343-0.549-16.574-10.141-16.478-10.296c0.027-0.044,17.276,5.87,17.375,5.712c0,0-17.397-10.7-17.32-10.823      l17.337,7.194c0.157-0.252-17.229-10.317-17.028-10.64c0.092-0.146,17.511,8.064,17.846,7.527c0,0-17.608-10.356-17.317-10.821      c0,0,17.309,5.941,17.41,5.78c0.223-0.358-17.189-10.741-17.189-10.741s17.316,7.408,17.362,7.335      c0.152-0.244-17.332-10.831-17.332-10.831l18.42,6.713c0.049-0.079-18.696-11.683-18.696-11.683s18.001,8.836,18.311,8.34      l-17.734-11.081c0,0,18.04,6.418,18.162,6.222l-18.722-11.699c0.029-0.046,17.216,6.438,17.408,6.13      c0,0-18.153-10.935-17.97-11.229l18.764,7.276c0,0-18.942-11.387-18.74-11.71l18.517,7.477l-19.195-11.995      c0.135-0.215,18.765,8.309,18.765,8.309c0.293-0.469-20.265-12.663-20.265-12.663s19.728,9.419,19.921,9.111      c0,0-20.489-12.55-20.376-12.732c0.291-0.464,20.077,9.63,20.24,9.368c0.386-0.617-19.985-12.488-19.985-12.488      s18.555,7.741,18.859,7.253l-20.396-12.745l18.775,8.271l-19.347-12.089c0,0,19.413,7.792,19.559,7.558      c0.375-0.601-21.559-13.472-21.559-13.472c0.054-0.086,19.684,8.587,20.021,8.049c0,0-21.683-13.376-21.605-13.5      c0.248-0.398,20.246,8.554,20.347,8.394l-22.199-13.871c0.154-0.246,21.411,10.409,21.723,9.911      c0.215-0.345-24.532-14.206-24.027-15.014l21.985,9.797c0.322-0.516-25.04-15.351-24.907-15.564l23.628,10.961l-26.271-16.416      l24.659,10.798c0.406-0.65-27.141-16.886-27.108-16.939c0.308-0.492,23.146,9.729,23.16,9.708c0,0-28.316-16.381-27.727-17.325      c0.156-0.249,24.804,12.036,25.24,11.338c0.618-0.99-29.769-18.267-29.618-18.507c0.118-0.19,28.034,14.67,28.244,14.333      c0,0-33.439-20.085-33.076-20.668c0.438-0.702,29.691,14.344,29.691,14.344c0.555-0.889-35.221-21.896-35.17-21.977      c0,0,32.07,17.056,32.509,16.354c0,0-39.142-23.925-38.901-24.309c0,0,33.172,17.997,33.825,16.952      c0.859-1.375-46.261-28.907-46.261-28.907c0.5-0.802,41.158,22.372,41.548,21.748c1.491-2.387-136.74-85.445-136.74-85.445      s128.148,80.246,130.273,76.846c0,0-120.773-72.637-119.502-74.672c0.578-0.924,112.986,72.4,115.316,68.672      c0.676-1.081-107.235-67.008-107.235-67.008c1.449-2.319,96.398,55.59,96.398,55.59l-81.003-50.616      c0.534-0.855,67.584,37.866,67.584,37.866c0.736-1.179-49.429-30.886-49.429-30.886" style="fill:none;stroke:#231F20;stroke-width:2;stroke-linecap:round;stroke-linejoin:round;"/><path d="M203.41,281.626      l-2.053-1.282c0.035-0.057,8.203-0.008,8.203-0.008l-8.415-5.259c0,0,13.666,5.497,13.82,5.25      c0.081-0.128-13.696-8.06-13.472-8.418c0,0,19.434,9.324,19.607,9.046c0,0-20.14-12.318-20.02-12.51      c0.194-0.311,25.906,12.869,25.906,12.869c0.415-0.663-25.722-15.8-25.599-15.996l27.705,13.067      c0.059-0.094-27.927-17.358-27.885-17.425c0.237-0.38,27.583,12.406,27.583,12.406l-27.554-17.217      c0.014-0.022,27.123,13.437,27.517,12.807c0.257-0.411-27.938-17.183-27.815-17.381l28.266,14.191      c0,0-27.831-16.203-27.297-17.057c0.081-0.129,25.716,12.147,25.979,11.725c0.532-0.852-26.539-16.469-26.487-16.551      c0.198-0.318,27.265,13.764,27.265,13.764l-27.34-17.084c0,0,26.696,13.496,26.996,13.015c0,0-27.503-17.132-27.479-17.17      l26.822,12.852c0.09-0.144-27.507-15.945-26.949-16.839c0,0,28.383,13.936,28.406,13.899c0,0-28.392-16.71-27.928-17.452      c0,0,26.309,13.131,26.461,12.887c0.256-0.409-26.672-16.667-26.672-16.667c0.506-0.811,27.607,12.903,27.607,12.903      c0.491-0.786-27.575-17.23-27.575-17.23c0.397-0.635,26.361,12.472,26.812,11.751c0.255-0.408-27.362-17.098-27.362-17.098      c0.329-0.527,28.221,13.719,28.28,13.625c0.535-0.856-29.266-17.079-28.723-17.948c0,0,27.382,14.375,27.889,13.564      l-26.623-16.636c0.054-0.086,26.768,12.118,26.768,12.118c0.386-0.617-26.518-16.57-26.518-16.57      c0.036-0.058,26.63,13.267,26.63,13.267c0.134-0.215-24.125-14.013-23.648-14.777c0,0,24.095,10.877,24.378,10.423      l-16.442-10.274c0.188-0.301,15.71,5.888,15.71,5.888l-9.919-6.198c0,0,8.527,1.578,8.595,1.468      c0.004-0.007-3.597-2.245-3.596-2.247" style="fill:none;stroke:#231F20;stroke-width:2;stroke-linecap:round;stroke-linejoin:round;"/><path d="M146.692,266.871      l-28.698-17.933l28.034,14.057c0,0-29.528-17.138-28.938-18.083c0,0,29.299,14.933,29.372,14.818l-29.768-18.602l29.779,14.983      c0.267-0.428-30-18.746-30-18.746c0.313-0.502,30.091,14.014,30.091,14.014c0.592-0.947-30.461-19.035-30.461-19.035      l30.171,15.643c0.085-0.136-30.26-18.293-29.983-18.735l29.567,13.31c0,0-29.386-17.458-28.979-18.108l28.721,13.069      c0,0-29.877-17.978-29.566-18.475l28.422,13.833c0,0-28.79-17.757-28.685-17.924l28.995,14.699      c0.575-0.92-28.932-18.079-28.932-18.079s28.614,15.268,28.866,14.864c0.501-0.802-27.099-16.933-27.099-16.933      c0.382-0.612,31.939,16.195,31.939,16.195c0.392-0.627-28.095-17.556-28.095-17.556c0.264-0.421,35.273,17.288,35.273,17.288      c0.147-0.236-28.052-17.303-27.951-17.465" style="fill:none;stroke:#231F20;stroke-width:2;stroke-linecap:round;stroke-linejoin:round;"/><path d="M120.486,285.401      l-1.88-1.175c0.032-0.051,7.447-0.479,7.447-0.479l-7.786-4.864c0,0,12.638,4.825,12.779,4.599      c0.075-0.12-12.736-7.491-12.526-7.827c0,0,18.11,8.47,18.271,8.211c0,0-18.886-11.552-18.773-11.73      c0.177-0.284,23.788,11.546,23.788,11.546c0.381-0.61-23.686-14.55-23.573-14.73l29.831,14.396      c0.063-0.101-30.175-18.755-30.13-18.827c0.323-0.517,36.916,18.238,36.916,18.238l-37.022-23.134      c0.022-0.035,42.958,23.878,43.597,22.855c0.409-0.653-44.214-27.19-44.018-27.505l49.7,27.585c0,0-49.779-28.989-48.828-30.511      c0.175-0.281,53.734,30.341,54.306,29.425c0.412-0.659-20.319-12.608-20.28-12.672c0.189-0.302,25.991,12.968,25.991,12.968      l-21.22-13.26c0,0,26.386,13.295,26.683,12.82c0,0-23.461-14.614-23.441-14.647l29.201,14.339      c0.089-0.144-27.389-15.876-26.833-16.768c0,0,30.218,15.087,30.243,15.048c0,0-29.442-17.328-28.961-18.098      c0,0,27.291,13.759,27.449,13.505c0.265-0.424-27.707-17.313-27.707-17.313c0.525-0.841,28.589,13.517,28.589,13.517      c0.509-0.815-28.612-17.879-28.612-17.879c0.413-0.66,27.321,13.109,27.789,12.361c0.264-0.423-28.401-17.748-28.401-17.748      c0.341-0.545,29.209,14.342,29.271,14.244c0.555-0.889-30.328-17.697-29.765-18.599c0,0,28.358,15.027,28.883,14.186      l-27.666-17.288c0.056-0.09,27.755,12.734,27.755,12.734c0.416-0.666-28.682-17.922-28.682-17.922      c0.039-0.063,28.753,14.595,28.753,14.595c0.164-0.261-29.35-17.051-28.771-17.978c0,0,29.095,14.143,29.442,13.586      l-60.276-37.665c0.764-1.222,59.496,33.249,59.496,33.249c0-0.001-54.182-33.857-54.182-33.857s53.141,29.493,53.618,28.731      c0.053-0.085-47.928-29.905-47.908-29.937l48.342,25.13c0,0-41.828-24.436-41.063-25.659      c0.01-0.016,40.795,20.799,40.795,20.799l-33.242-20.772c0.219-0.351,33.062,17.186,33.062,17.186l-30.284-18.923      c0.056-0.09,29.973,16.177,30.525,15.293c0,0-29.088-17.698-28.874-18.042l28.379,13.681l-28.584-17.861      c0.209-0.335,28.263,14.6,28.361,14.442l-27.595-17.243c0.372-0.596,28.058,12.783,28.058,12.783s-29.546-17.745-29.224-18.261      l29.217,14.309l-29.839-18.646c0,0,29.01,15.422,29.521,14.605c0.336-0.539-28.938-18.082-28.938-18.082      c0.272-0.435,28.646,13.383,28.646,13.383l-29.196-18.244c0.139-0.222,29.118,16.355,29.693,15.436      c0,0-29.527-17.091-28.916-18.069c0,0,27.658,13.191,28.068,12.535l-24.34-15.209l24.187,10.388c0,0-18.641-11.442-18.549-11.59      c0,0,19.81,7.722,19.963,7.476l-12.558-7.847c0.2-0.32,11.256,4.043,11.4,3.813l-6.008-3.754" style="fill:none;stroke:#231F20;stroke-width:2;stroke-linecap:round;stroke-linejoin:round;"/><path d="M354.216,270.042      c0.523-0.837-28.913-16.955-28.413-17.754c0.498-0.797,28.402,13.836,28.402,13.836c0.275-0.44-28.063-17.466-28.032-17.517      l27.544,13.527l-26.639-16.646c0.273-0.438,27.186,13.991,27.656,13.237c0,0-29.401-17.511-29.015-18.13      c0.376-0.601,27.774,13.218,27.774,13.218l-26.66-16.659l28.057,13.233c0.104-0.165-29.358-17.261-28.871-18.041      c0,0,28.279,15.393,28.775,14.601c0.092-0.148-27.171-16.978-27.171-16.978l27.102,13.689      c0.229-0.367-28.528-16.786-28.062-17.534c0.19-0.305,26.887,13.591,27.413,12.748l-26.811-16.753l27.413,12.678      c0.562-0.899-26.803-16.749-26.803-16.749s26.72,14.747,27.225,13.939c0,0-27.778-16.923-27.583-17.236      c0.016-0.025,27.014,13.21,27.014,13.21s-27.063-16.879-27.05-16.902l28.406,14.275c0.204-0.327-28.488-17.802-28.488-17.802      c0.286-0.458,35.972,17.866,35.976,17.858c0.005-0.006-35.851-22.4-35.85-22.401" style="fill:none;stroke:#231F20;stroke-width:2;stroke-linecap:round;stroke-linejoin:round;"/><path d="M325.528,284.106      l-0.242-0.151l6.105,0.354c0,0-6.441-3.729-6.308-3.942c0,0,13.249,4.813,13.28,4.763l-13.433-8.393l20.152,8.967      c0.177-0.283-20.124-12.574-20.124-12.574c0.305-0.488,29.27,13.501,29.27,13.501c0.568-0.91-29.311-18.315-29.311-18.315      l35.091,18.717c0.099-0.158-35.002-21.158-34.682-21.672" style="fill:none;stroke:#231F20;stroke-width:2;stroke-linecap:round;stroke-linejoin:round;"/><path d="M326.993,318.131      l-2.887-1.803c0.048-0.075,10.993,1.736,10.993,1.736l-11.079-6.923c0,0,17.294,7.862,17.492,7.544      c0.1-0.159-17.284-10.18-17.005-10.626c0,0,23.878,12.196,24.095,11.85c0,0-24.522-14.997-24.376-15.231      c0.231-0.371,30.781,15.916,30.781,15.916c0.492-0.788-30.483-18.724-30.338-18.957l38.618,19.887      c0.08-0.129-38.127-23.698-38.07-23.789c0.418-0.669,47.23,24.684,47.23,24.684l-38.903-24.309      c0.024-0.04,46.765,26.387,47.463,25.271c0.367-0.589-39.836-24.499-39.658-24.782l46.911,25.843      c0,0-40.215-23.418-39.446-24.648c0.135-0.216,41.654,22.496,42.094,21.794c0.679-1.086-34.151-21.194-34.086-21.299      c0.263-0.42,35.624,18.987,35.624,18.987l-29.769-18.602c0,0,29.303,15.193,29.634,14.663c0,0-27.412-17.076-27.389-17.114      l26.944,12.93c0.089-0.142-27.111-15.716-26.56-16.597c0,0,28.204,13.824,28.228,13.787c0,0-28.783-16.939-28.313-17.691      c0,0,26.889,13.502,27.045,13.252c0.621-0.994-66.366-41.47-66.366-41.47c1.287-2.06,67.539,37.854,67.539,37.854      c1.193-1.91-67.327-42.07-67.327-42.07c1.033-1.655,65.663,38.64,66.837,36.762c0.618-0.99-67.183-41.98-67.183-41.98      c0.823-1.316,68.174,38.882,68.321,38.645c0.609-0.975-33.186-19.361-32.567-20.351c0,0,31.36,17.033,31.944,16.098      l-27.155-16.969c0.056-0.089,27.553,12.609,27.553,12.609c0.396-0.634-27.247-17.026-27.247-17.026      c0.037-0.061,27.543,13.838,27.543,13.838c0.155-0.248-27.885-16.199-27.334-17.08c0,0,27.993,13.424,28.327,12.89      l-27.461-17.159c0.335-0.536,26.942,12.907,26.942,12.907c0-0.001-26.924-16.824-26.924-16.824s26.448,12.263,26.677,11.896      c0.031-0.05-27.52-17.171-27.509-17.189l28.282,12.594c0,0-28.488-16.646-27.969-17.477      c0.007-0.011,28.013,12.813,28.013,12.813l-26.686-16.675c0.176-0.282,26.737,13.233,26.737,13.233l-27.327-17.076      c0.051-0.081,27.321,14.405,27.821,13.604c0,0-27.638-16.815-27.434-17.142l27.21,12.95l-27.171-16.979      c0.2-0.32,27.072,13.847,27.166,13.696l-64.46-40.279c0.899-1.439,65.24,36.017,65.24,36.017s-58.639-35.223-58.002-36.243      l58.259,32.455l-51.892-32.426c0,0,50.913,30.013,51.83,28.545c0.515-0.823-44.448-27.774-44.448-27.774      c0.432-0.69,44.458,23.264,44.458,23.264l-37.011-23.127c0.178-0.284,36.979,21.627,37.715,20.449      c0,0-32.084-18.574-31.421-19.634c0,0,30.453,15.036,30.907,14.309l-21.294-13.306l21.457,8.681c0,0-14.065-8.631-13.994-8.744      c0,0,15.144,4.721,15.259,4.537l-5.924-3.702" style="fill:none;stroke:#231F20;stroke-width:2;stroke-linecap:round;stroke-linejoin:round;"/><path d="M202.625,191.663      l-2.477-1.548c0.037-0.059,8.656,0.276,8.656,0.276l-8.907-5.566c0,0,13.9,5.649,14.057,5.397      c0.081-0.13-13.938-8.202-13.709-8.567c0,0,19.43,9.323,19.604,9.044c0,0-20.137-12.315-20.017-12.508      c0.188-0.301,25.22,12.441,25.22,12.441c0.404-0.646-25.032-15.375-24.912-15.567l28.518,13.575      c0.06-0.095-28.313-17.599-28.271-17.666c0.241-0.385,27.969,12.647,27.969,12.647l-25.84-16.146      c0.013-0.021,25.435,12.325,25.803,11.736c0.186-0.297-20.306-12.49-20.217-12.633l20.667,9.443c0,0-14.791-8.606-14.505-9.063      c0.038-0.06,12.755,3.737,12.878,3.539c0.15-0.239-6.651-4.125-6.638-4.147" style="fill:none;stroke:#231F20;stroke-width:2;stroke-linecap:round;stroke-linejoin:round;"/><path d="M270.838,265.669      c0.506-0.808-27.946-16.39-27.464-17.161c0.483-0.774,27.626,13.351,27.626,13.351c0.268-0.429-27.393-17.048-27.361-17.098      l26.79,13.056l-25.984-16.237c0.265-0.425,26.435,13.491,26.892,12.76c0,0-28.737-17.116-28.359-17.721      c0.365-0.584,27.005,12.738,27.005,12.738l-26.003-16.249l27.283,12.75c0.101-0.161-28.688-16.869-28.213-17.629      c0,0,27.543,14.902,28.024,14.132c0.091-0.145-26.512-16.566-26.512-16.566l26.354,13.223      c0.225-0.359-27.858-16.392-27.402-17.123c0.185-0.296,26.124,13.079,26.634,12.261l-26.15-16.34l26.632,12.189      c0.548-0.877-26.142-16.335-26.142-16.335s25.99,14.258,26.479,13.474c0,0-27.11-16.518-26.92-16.822      c0.015-0.025,26,12.576,26,12.576s-26.149-16.308-26.134-16.331l29.925,15.224c0.221-0.354-30.876-19.293-30.876-19.293      c0.307-0.492,38.459,19.504,38.465,19.496c0.003-0.006-33.812-21.125-33.811-21.127" style="fill:none;stroke:#231F20;stroke-width:2;stroke-linecap:round;stroke-linejoin:round;"/><path d="M243.985,280.768      l-0.307-0.192l5.835,0.186c0,0-6.217-3.599-6.088-3.804c0,0,12.424,4.291,12.453,4.245l-12.7-7.937l18.794,8.119      c0.166-0.265-18.865-11.787-18.865-11.787c0.282-0.451,27.149,12.176,27.149,12.176c0.528-0.846-27.318-17.071-27.318-17.071      l32.521,17.111c0.091-0.146-32.497-19.644-32.199-20.12" style="fill:none;stroke:#231F20;stroke-width:2;stroke-linecap:round;stroke-linejoin:round;"/><path d="M244.799,313.87      l-2.303-1.438c0.04-0.064,9.472,0.786,9.472,0.786l-8.756-5.472c0,0,14.386,5.966,14.549,5.705      c0.084-0.134-14.388-8.469-14.153-8.844c0,0,20.473,9.996,20.656,9.701c0,0-21.15-12.937-21.025-13.138      c0.201-0.322,26.824,13.443,26.824,13.443c0.429-0.687-26.597-16.337-26.47-16.541l33.805,16.879      c0.071-0.113-33.813-21.017-33.762-21.097c0.369-0.591,41.963,21.393,41.963,21.393l-33.897-21.182      c0.021-0.034,40.978,22.572,41.586,21.599c0.32-0.512-34.704-21.343-34.55-21.589l41.113,22.219      c0,0-34.945-20.347-34.275-21.418c0.129-0.207,40.223,21.567,40.646,20.891c0.667-1.067-33.528-20.808-33.464-20.91      c0.272-0.437,36.969,19.826,36.969,19.826l-31.46-19.658c0,0,31.865,16.863,32.228,16.285c0,0-28.237-17.591-28.213-17.63      l27.663,13.378c0.086-0.139-26.475-15.345-25.936-16.207c0,0,27.476,13.368,27.498,13.333c0,0-27.858-16.396-27.404-17.124      c0,0,25.888,12.862,26.037,12.622c0.621-0.994-66.395-41.488-66.395-41.488c1.285-2.056,67.45,37.8,67.45,37.8      c1.194-1.911-67.355-42.089-67.355-42.089c1.033-1.653,65.559,38.569,66.729,36.694c0.357-0.571-38.575-24.104-38.575-24.104      c0.469-0.749,39.521,20.836,39.605,20.701c0.621-0.994-33.852-19.749-33.221-20.759c0,0,31.897,17.393,32.492,16.44      l-27.543-17.21c0.057-0.091,27.815,12.771,27.815,12.771c0.388-0.62-26.673-16.667-26.673-16.667      c0.036-0.059,26.877,13.422,26.877,13.422c0.151-0.242-27.2-15.801-26.663-16.661c0,0,27.202,12.907,27.525,12.39      l-26.788-16.739c0.324-0.52,26.163,12.42,26.163,12.42c0-0.001-26.25-16.403-26.25-16.403s25.652,11.749,25.874,11.395      c0.029-0.048-26.845-16.75-26.834-16.767l27.469,12.087c0,0-27.799-16.243-27.292-17.054c0.007-0.01,27.21,12.311,27.21,12.311      l-26.009-16.252c0.17-0.272,25.966,12.752,25.966,12.752l-26.65-16.653c0.05-0.08,26.557,13.894,27.042,13.116      c0,0-26.954-16.399-26.755-16.718l26.421,12.458L285,224.143c0.196-0.314,26.588,13.541,26.681,13.393l-57.725-36.071      c0.802-1.283,58.376,31.729,58.376,31.729s-52.463-31.513-51.892-32.426l52.042,28.571l-46.303-28.933      c0,0,45.323,26.29,46.137,24.988c0.456-0.729-39.364-24.597-39.364-24.597c0.379-0.606,39.251,20.009,39.251,20.009      l-32.389-20.238c0.154-0.247,32.367,18.534,33.009,17.507c0,0-27.751-16.061-27.176-16.981c0,0,26.14,12.19,26.526,11.571      l-17.769-11.103l17.802,6.399c0,0-11.205-6.875-11.147-6.966c0,0,11.628,2.917,11.715,2.777l-3.979-2.487" style="fill:none;stroke:#231F20;stroke-width:2;stroke-linecap:round;stroke-linejoin:round;"/></g><g><path d="M117.75,374.727      l-61.797-38.614l42.382,23.022c0,0-48.093-27.921-47.135-29.454c0,0,37.14,19.878,37.232,19.729l-41.133-25.702l33.767,17.475      c0.332-0.532-37.117-23.193-37.117-23.193c0.312-0.498,29.842,13.858,29.842,13.858c0.654-1.047-33.557-20.969-33.557-20.969      l29.223,15.051c0.088-0.142-31.207-18.865-30.921-19.322l25.294,10.64c0,0-27.763-16.492-27.378-17.108l23.13,9.576      c0,0-26.363-15.863-26.089-16.302l22.363,10.048c0,0-23.995-14.799-23.907-14.939l22.247,10.483      c0.468-0.748-23.457-14.658-23.457-14.658s21.271,10.529,21.455,10.234c0.406-0.649-21.705-13.563-21.705-13.563      c0.247-0.396,21.134,9.443,21.134,9.443c0.313-0.501-22.437-14.021-22.437-14.021c0.15-0.24,20.813,8.253,20.813,8.253      c0.111-0.178-21.088-13.008-21.012-13.13c0,0,19.894,9.276,19.903,9.262c0,0-21.337-12.944-21.162-13.224      c0,0,18.951,8.441,19.055,8.274l-18.965-11.851l18.686,8.48c0,0-19.627-12.209-19.602-12.249      c0.157-0.252,18.224,7.693,18.271,7.617c0,0-18.511-11.342-18.41-11.504c0.007-0.012,18.471,6.951,18.548,6.828l-19.72-12.322      c0.179-0.286,17.794,8.248,18.015,7.895c0.336-0.537-18.143-11.337-18.143-11.337c0.377-0.603,18.924,7.507,19.054,7.299      c0.032-0.051-17.428-10.593-17.294-10.807c0.099-0.159,16.01,5.133,16.052,5.066c0,0-17.021-10.636-17.021-10.636      s17.575,7.993,17.819,7.602l-16.983-10.612c0.301-0.481,17.542,7.231,17.542,7.231s-18.409-10.786-18.086-11.302      c0.269-0.431,17.707,6.894,17.707,6.894c0.228-0.365-16.221-9.609-15.984-9.988c0.1-0.16,16.037,5.957,16.037,5.957      c0.196-0.313-15.703-9.813-15.703-9.813c0.259-0.414,15.617,5.706,15.617,5.706c0.268-0.428-15.399-9.009-15.123-9.45      l16.564,6.35l-15.58-9.735c0.092-0.147,16.264,5.794,16.364,5.634l-16.382-10.236c0.18-0.289,16.944,7.186,16.944,7.186      l-16.104-10.063l15.744,5.104l-15.232-9.519c0,0,15.827,6.836,16.14,6.336l-14.236-8.896c0.238-0.381,15.898,7.11,16.087,6.807      c0.302-0.484-15.666-9.344-15.465-9.664c0.21-0.336,16.589,5.726,16.589,5.726l-15.263-9.537      c0.01-0.016,15.652,5.374,15.743,5.229c0.233-0.373-14.05-8.779-14.05-8.779l15.182,4.893c0,0-15.096-8.806-14.814-9.257      c0.186-0.298,15.984,6.568,15.984,6.568c0.18-0.289-13.507-8.384-13.481-8.425c0,0,14.44,5.393,14.464,5.354      c0.094-0.15-13.395-8.37-13.395-8.37l14.545,4.883c0.232-0.371-13.629-7.948-13.374-8.357c0.225-0.36,15.324,5.538,15.613,5.074      c0,0-14.602-8.455-14.301-8.936l14.734,6.094c0,0-13.323-8.046-13.198-8.247c0,0,14.039,5.535,14.301,5.116l-13.099-8.186      c0.17-0.273,14.149,5.604,14.149,5.604c0.118-0.188-13.768-8.18-13.578-8.484c0.256-0.41,15.419,6.223,15.576,5.972      l-12.491-7.805c0.096-0.154,14.161,4.991,14.167,4.981c0.261-0.417-12.758-7.441-12.52-7.823      c0.278-0.444,15.599,4.774,15.599,4.774l-13.397-8.372c0.077-0.123,14.545,6.032,14.573,5.987l-13.329-8.329l14.513,5.29      c0.252-0.403-12.921-7.688-12.747-7.966c0.228-0.365,15.137,4.694,15.137,4.694s-14.107-8.531-13.979-8.735      c0,0,14.928,5.437,15.19,5.018c0,0-12.124-7.057-11.891-7.43c0,0,13.816,4.614,13.95,4.4c0,0-12.404-7.126-12.124-7.576      c0.166-0.265,15.059,5.624,15.059,5.624c0.033-0.053-12.95-8.092-12.95-8.092c0.101-0.162,14.666,4.322,14.666,4.322      c0.07-0.112-13.24-8.273-13.24-8.273c0.046-0.074,15.913,6.684,15.913,6.684c0.021-0.034-12.821-8.011-12.821-8.011      c0.059-0.094,14.3,4.928,14.483,4.636c0.265-0.423-12.625-7.889-12.625-7.889c0.066-0.106,14.833,5.686,14.9,5.577      c0.157-0.251-12.349-7.666-12.327-7.702c0.268-0.428,14.46,4.453,14.492,4.402c0.178-0.285-13.09-8.18-13.09-8.18l16.715,6.372      l-13.653-8.531c0,0,15.652,6.397,15.875,6.042l-13.86-8.661c0.11-0.176,14.48,5.809,14.48,5.809      c0.115-0.185-13.164-7.924-13.028-8.141c0.133-0.212,15.795,5.732,16.063,5.303c0,0-12.567-7.498-12.408-7.753l15.356,5.507      l-12.315-7.695c0.025-0.041,15.354,5.414,15.354,5.414l-13.544-8.463c0.167-0.268,16.091,6.484,16.091,6.484      c0.014-0.022-12.934-8.064-12.926-8.077c0,0,15.769,5.715,15.85,5.587c0,0-13.488-8.287-13.425-8.389      c0.021-0.033,16.463,6,16.611,5.764c0,0-13.291-7.77-13.05-8.155c0.217-0.347,14.811,6.121,14.816,6.113      c0.189-0.302-14.316-8.945-14.316-8.945c0.134-0.215,16.761,7.495,16.82,7.4c0,0-14.539-8.507-14.279-8.923      c0.279-0.446,16.306,5.601,16.306,5.601s-12.688-7.852-12.654-7.907c0,0,16.254,6.142,16.346,5.996      c0.032-0.051-12.72-7.948-12.72-7.948c0.237-0.379,15.913,5.94,15.913,5.94l-13.449-8.404l14.938,6.26l-12.887-8.053      l17.682,6.173c0,0-14.866-8.686-14.595-9.12l17.66,6.786c0.258-0.413-13.206-8.252-13.206-8.252      c0.109-0.175,16.182,5.459,16.263,5.331c0.103-0.165-12.608-7.878-12.608-7.878s15.334,6.801,15.497,6.542l-13.792-8.618      c0.266-0.426,17.492,6.564,17.583,6.419c0.116-0.187-13.765-8.602-13.765-8.602s16.688,7.268,16.976,6.806l-14.5-9.061      l17.068,6.718l-13.419-8.386c0,0,16.679,6.784,16.727,6.707c0.31-0.496-13.51-8.442-13.51-8.442      c0.096-0.153,16.512,7.069,16.582,6.958c0,0-14.113-8.506-13.972-8.731c0.28-0.448,18.441,6.988,18.441,6.988      s-15.316-9.45-15.262-9.537l20.311,7.769c0,0-16.188-9.51-15.916-9.945c0.368-0.589,18.456,8.342,18.456,8.342      c0.246-0.393-15.437-9.646-15.437-9.646c0.338-0.541,18.966,7.962,19.215,7.564c0.127-0.204-15.072-9.418-15.072-9.418      c0.145-0.231,19.188,7.83,19.347,7.576c0.319-0.51-14.631-8.891-14.518-9.072c0.311-0.498,18.64,8.153,18.752,7.973      c0.045-0.073-15.734-9.832-15.734-9.832l18.832,7.555c0,0-14.983-9.117-14.873-9.293c0.13-0.208,20.191,8.825,20.227,8.769      c0.328-0.524-15.702-9.812-15.702-9.812c0.228-0.363,18.289,7.766,18.289,7.766c0.115-0.183-15.876-9.92-15.876-9.92      c0.162-0.258,20.528,9.533,20.528,9.533s-17.664-10.277-17.322-10.824l20.931,9.796c0.053-0.084-17.358-10.694-17.29-10.804      l20.748,9.183c0.343-0.549-17.006-10.626-17.006-10.626c0.062-0.1,20.72,9.438,21.03,8.941c0,0-16.133-9.597-15.916-9.945      c0.352-0.563,20.381,8.987,20.381,8.987c0.053-0.085-17.317-10.612-17.223-10.762c0.41-0.657,23.683,9.894,23.683,9.894      c0.066-0.106-17.695-10.758-17.561-10.973c0,0,22.083,9.75,22.28,9.435c0.311-0.498-18.492-11.001-18.243-11.4l22.799,11.063      c0.101-0.162-18.554-11.594-18.554-11.594c0.222-0.355,22.777,11.216,22.976,10.898c0.383-0.613-18.544-11.587-18.544-11.587      c0.259-0.415,24.696,10.996,24.696,10.996c0.293-0.47-19.969-12.478-19.969-12.478c0.299-0.479,24.827,11.972,25.046,11.621      c0.045-0.072-20.282-12.098-20.023-12.512c0,0,25.684,11.293,25.838,11.046c0.054-0.087-19.333-11.761-19.189-11.99      c0.005-0.008,25.556,12.5,25.556,12.5c0.411-0.657-21.365-13.141-21.271-13.292c0.025-0.04,27.505,12.134,27.505,12.134      c0.214-0.342-21.654-12.563-21.219-13.259l27.92,13.567l-22.118-13.821c0.506-0.81,30.079,13.848,30.079,13.848      c0.062-0.099-23.041-14.398-23.041-14.398s28.637,14.626,28.764,14.423c0.067-0.108-24.263-14.178-23.821-14.885      c0.275-0.44,31.131,15.522,31.131,15.522c0.372-0.595-25.055-14.892-24.711-15.441l32.243,16.215      c0,0-27.951-16.504-27.52-17.196c0.383-0.612,35.314,19.278,35.733,18.608c0.452-0.724-29.275-17.528-28.932-18.078      c0,0,37.797,20.043,38.04,19.654c0.351-0.562-30.918-18.486-30.543-19.085c0,0,43.035,22.507,43.182,22.272      c0.088-0.141-36.122-21.42-35.604-22.248c0.842-1.349,50.751,28.051,51.299,27.174c0,0-43.202-25.821-42.675-26.666      l66.509,36.994c0.455-0.729-56.587-33.51-55.756-34.84" style="fill:none;stroke:#262626;stroke-width:2;stroke-linecap:round;stroke-linejoin:round;"/><path d="M135.075,403.837      l-27.949-17.464c0.286-0.457,59.319,31.935,59.319,31.935L80.399,364.54c0,0,98.235,60.678,99.44,58.75      c0.603-0.965-109.585-64.725-107.899-67.423c0,0,118.441,73.303,119.564,71.506c0,0-127.2-77.771-126.431-79.003      c1.067-1.708,136.466,81.955,136.466,81.955c2.313-3.701-142.332-87.414-141.646-88.511l153.09,91.417      c0.123-0.197-58.44-36.323-58.353-36.463c0.624-0.998,69.57,38.644,69.57,38.644l-44.771-27.977      c0.028-0.045,53.507,30.834,54.31,29.549c0.364-0.582-39.434-24.25-39.258-24.531l47.075,25.945c0,0-36.433-21.214-35.735-22.33      c0.138-0.221,42.684,23.165,43.134,22.444c0.633-1.014-31.807-19.739-31.746-19.837c0.287-0.458,38.791,20.966,38.791,20.966      l-31.101-19.435c0,0,37.141,20.3,37.566,19.621c0,0-29.507-18.381-29.482-18.422l35.606,18.34      c0.091-0.146-28.008-16.235-27.439-17.146c0,0,35.167,18.188,35.195,18.142c0,0-27.738-16.326-27.286-17.05      c0,0,31.504,16.448,31.688,16.154c0.24-0.384-24.921-15.573-24.921-15.573c0.601-0.962,32.467,15.939,32.467,15.939      c0.441-0.707-24.797-15.495-24.797-15.495c0.47-0.752,30.888,15.485,31.422,14.632c0.22-0.352-23.548-14.714-23.548-14.714      c0.353-0.564,30.138,14.927,30.201,14.825c0.446-0.714-24.514-14.313-24.062-15.036c0,0,28.045,14.817,28.564,13.985      l-21.419-13.383c0.057-0.09,27.669,12.681,27.669,12.681c0.315-0.505-21.625-13.513-21.625-13.513      c0.036-0.057,26.158,12.973,26.158,12.973c0.122-0.194-21.806-12.665-21.374-13.355c0,0,27.743,13.259,28.073,12.73      l-20.749-12.966c0.308-0.492,24.891,11.625,24.891,11.625l-19.899-12.435c0,0,24.739,11.16,24.952,10.819      c0.021-0.036-19.841-12.38-19.832-12.393l26.234,11.315c0,0-20.281-11.853-19.913-12.443c0.007-0.009,24.83,10.824,24.83,10.824      l-18.109-11.316c0.142-0.227,21.77,10.129,21.77,10.129l-18.511-11.566c0.042-0.066,22.402,11.12,22.809,10.472      c0,0-18.384-11.183-18.246-11.402l21.964,9.673l-17.689-11.054c0.151-0.242,20.804,9.88,20.875,9.766l-16.482-10.3      c0.282-0.452,21.672,8.793,21.672,8.793s-17.967-10.789-17.771-11.104l21.627,9.565l-18.136-11.333      c0,0,21.188,10.213,21.555,9.627c0.2-0.321-17.021-10.636-17.021-10.636c0.193-0.31,20.887,8.535,20.887,8.535l-17-10.623      c0.093-0.148,19.98,10.228,20.368,9.608c0,0-17.033-9.849-16.676-10.42c0,0,20.045,8.168,20.336,7.703l-15.2-9.498l19.14,7.234      c0,0-16.075-9.866-15.995-9.995c0,0,21.569,8.855,21.738,8.585l-17.109-10.69c0.361-0.578,19.489,9.443,19.747,9.03      l-16.499-10.311c0.334-0.534,19.615,8.096,19.952,7.557l-15.502-9.688c0,0,18.02,6.958,18.13,6.782l-15.885-9.926      c0,0,18.171,8.31,18.216,8.237c0.048-0.077-15.862-9.912-15.862-9.912c0.301-0.48,18.983,8.729,18.983,8.729      c0.266-0.426-16.54-10.335-16.54-10.335s19.303,7.888,19.498,7.576c0.184-0.294-14.708-9.191-14.708-9.191l16.844,7.253      c0,0-15.322-9.382-15.236-9.521c0.316-0.506,17.948,7.204,18.232,6.75c0.225-0.359-15.232-9.518-15.232-9.518l18.443,7.364      c0.085-0.136-14.917-9.321-14.917-9.321c0.338-0.541,17.757,6.82,17.757,6.82c0.024-0.038-14.141-8.334-13.915-8.695      l17.341,6.424c0.225-0.359-14.951-9.343-14.951-9.343c0.2-0.32,18.187,6.759,18.292,6.589l-15.047-9.402      c0,0,17.022,7.368,17.254,6.999c0.149-0.239-16.01-9.596-15.826-9.89c0.213-0.341,17.123,8.322,17.463,7.779      c0.09-0.144-15.489-9.673-15.486-9.678c0.275-0.441,17.541,7.648,17.541,7.648l-15.484-9.676      c0.213-0.34,17.639,6.996,17.704,6.892l-14.058-8.784c0.125-0.2,17.321,6.017,17.328,6.006      c0.107-0.172-14.426-8.987-14.414-9.007l16.253,7.067l-15.744-9.838c0.205-0.328,17.031,6.335,17.031,6.335      c0.046-0.073-13.946-8.715-13.946-8.715l16.621,7.088c0.313-0.499-15.092-9.141-14.961-9.349c0,0,15.627,6.893,15.897,6.461      c0.183-0.292-14.416-9.008-14.416-9.008s16.764,5.878,16.905,5.651l-13.485-8.427c0.175-0.279,16.726,6.845,16.726,6.845      s-14.634-8.933-14.539-9.085c0.304-0.485,16.427,5.888,16.427,5.888l-14.594-9.119c0,0,15.376,5.558,15.566,5.253l-14.251-8.904      c0,0,16.401,7.033,16.585,6.741c0,0-14.902-9.181-14.843-9.275c0.056-0.088,16.195,7.427,16.482,6.968l-14.401-8.999      c0.153-0.245,15.116,6.456,15.257,6.231l-14.599-9.122l16.985,7.539c0,0-15.313-9.157-15.128-9.454      c0.082-0.132,15.778,6.634,15.939,6.377c0,0-15.5-9.301-15.327-9.577l17.781,6.955c0,0-16.614-9.666-16.292-10.181      c0.006-0.01,16.997,7.022,16.997,7.022l-15.414-9.632c0,0,17.312,7.495,17.574,7.074l-15.563-9.725      c0,0,16.799,6.342,17.104,5.853l-15.676-9.796c0.278-0.445,16.115,6.528,16.199,6.395c0.012-0.019-13.839-8.647-13.839-8.647      l15.054,4.425c0.112-0.179-15.192-9.054-14.994-9.37l16.045,6.413c0,0-14.693-8.48-14.378-8.984      c0.288-0.463,15.809,5.395,15.809,5.395c0.066-0.106-13.919-8.697-13.919-8.697c0.148-0.238,15.23,5.947,15.23,5.947      c0.113-0.18-14.503-9.063-14.503-9.063s16.353,7.087,16.565,6.747c0,0-16.638-9.729-16.338-10.209c0,0,16.479,7.716,16.7,7.363      c0.069-0.11-14.643-9.058-14.602-9.124c0.02-0.03,15.984,4.984,15.984,4.984l-16.041-10.023      c0.016-0.025,17.113,5.777,17.113,5.777c0.242-0.388-15.678-9.796-15.678-9.796s15.985,6.611,16.144,6.358l-14.943-9.337      l15.438,5.963c0.308-0.493-15.206-9.501-15.206-9.501l17.124,7.437c0,0-16.502-10.248-16.474-10.294      c0.054-0.086,17.232,6.391,17.352,6.2c0,0-16.395-9.454-16.039-10.021c0.231-0.371,15.677,6.398,15.737,6.303l-15.116-9.445      l16.204,5.394c0.343-0.549-16.574-10.141-16.478-10.296c0.027-0.044,17.276,5.87,17.375,5.712c0,0-17.397-10.7-17.32-10.823      l17.337,7.194c0.157-0.252-17.229-10.317-17.028-10.64c0.092-0.146,17.511,8.064,17.846,7.527c0,0-17.608-10.356-17.317-10.821      c0,0,17.309,5.941,17.41,5.78c0.223-0.358-17.189-10.741-17.189-10.741s17.316,7.408,17.362,7.335      c0.152-0.244-17.332-10.831-17.332-10.831l18.42,6.713c0.049-0.079-18.696-11.683-18.696-11.683s18.001,8.836,18.311,8.34      l-17.734-11.081c0,0,18.04,6.418,18.162,6.222l-18.722-11.699c0.029-0.046,17.216,6.438,17.408,6.13      c0,0-18.153-10.935-17.97-11.229l18.764,7.276c0,0-18.942-11.387-18.74-11.71l18.517,7.477l-19.195-11.995      c0.135-0.215,18.765,8.309,18.765,8.309c0.293-0.469-20.265-12.663-20.265-12.663s19.728,9.419,19.921,9.111      c0,0-20.489-12.55-20.376-12.732c0.291-0.464,20.077,9.63,20.24,9.368c0.386-0.617-19.985-12.488-19.985-12.488      s18.555,7.741,18.859,7.253l-20.396-12.745l18.775,8.271l-19.347-12.089c0,0,19.413,7.792,19.559,7.558      c0.375-0.601-21.559-13.472-21.559-13.472c0.054-0.086,19.684,8.587,20.021,8.049c0,0-21.683-13.376-21.605-13.5      c0.248-0.398,20.246,8.554,20.347,8.394l-22.199-13.871c0.154-0.246,21.411,10.409,21.723,9.911      c0.215-0.345-24.532-14.206-24.027-15.014l21.985,9.797c0.322-0.516-25.04-15.351-24.907-15.564l23.628,10.961l-26.271-16.416      l24.659,10.798c0.406-0.65-27.141-16.886-27.108-16.939c0.308-0.492,23.146,9.729,23.16,9.708c0,0-28.316-16.381-27.727-17.325      c0.156-0.249,24.804,12.036,25.24,11.338c0.618-0.99-29.769-18.267-29.618-18.507c0.118-0.19,28.034,14.67,28.244,14.333      c0,0-33.439-20.085-33.076-20.668c0.438-0.702,29.691,14.344,29.691,14.344c0.555-0.889-35.221-21.896-35.17-21.977      c0,0,32.07,17.056,32.509,16.354c0,0-39.142-23.925-38.901-24.309c0,0,33.172,17.997,33.825,16.952      c0.859-1.375-46.261-28.907-46.261-28.907c0.5-0.802,41.158,22.372,41.548,21.748c1.491-2.387-136.74-85.445-136.74-85.445      s128.148,80.246,130.273,76.846c0,0-120.773-72.637-119.502-74.672c0.578-0.924,112.986,72.4,115.316,68.672      c0.676-1.081-107.235-67.008-107.235-67.008c1.449-2.319,96.398,55.59,96.398,55.59l-81.003-50.616      c0.534-0.855,67.584,37.866,67.584,37.866c0.736-1.179-49.429-30.886-49.429-30.886" style="fill:none;stroke:#262626;stroke-width:2;stroke-linecap:round;stroke-linejoin:round;"/><path d="M203.41,281.626      l-2.053-1.282c0.035-0.057,8.203-0.008,8.203-0.008l-8.415-5.259c0,0,13.666,5.497,13.82,5.25      c0.081-0.128-13.696-8.06-13.472-8.418c0,0,19.434,9.324,19.607,9.046c0,0-20.14-12.318-20.02-12.51      c0.194-0.311,25.906,12.869,25.906,12.869c0.415-0.663-25.722-15.8-25.599-15.996l27.705,13.067      c0.059-0.094-27.927-17.358-27.885-17.425c0.237-0.38,27.583,12.406,27.583,12.406l-27.554-17.217      c0.014-0.022,27.123,13.437,27.517,12.807c0.257-0.411-27.938-17.183-27.815-17.381l28.266,14.191      c0,0-27.831-16.203-27.297-17.057c0.081-0.129,25.716,12.147,25.979,11.725c0.532-0.852-26.539-16.469-26.487-16.551      c0.198-0.318,27.265,13.764,27.265,13.764l-27.34-17.084c0,0,26.696,13.496,26.996,13.015c0,0-27.503-17.132-27.479-17.17      l26.822,12.852c0.09-0.144-27.507-15.945-26.949-16.839c0,0,28.383,13.936,28.406,13.899c0,0-28.392-16.71-27.928-17.452      c0,0,26.309,13.131,26.461,12.887c0.256-0.409-26.672-16.667-26.672-16.667c0.506-0.811,27.607,12.903,27.607,12.903      c0.491-0.786-27.575-17.23-27.575-17.23c0.397-0.635,26.361,12.472,26.812,11.751c0.255-0.408-27.362-17.098-27.362-17.098      c0.329-0.527,28.221,13.719,28.28,13.625c0.535-0.856-29.266-17.079-28.723-17.948c0,0,27.382,14.375,27.889,13.564      l-26.623-16.636c0.054-0.086,26.768,12.118,26.768,12.118c0.386-0.617-26.518-16.57-26.518-16.57      c0.036-0.058,26.63,13.267,26.63,13.267c0.134-0.215-24.125-14.013-23.648-14.777c0,0,24.095,10.877,24.378,10.423      l-16.442-10.274c0.188-0.301,15.71,5.888,15.71,5.888l-9.919-6.198c0,0,8.527,1.578,8.595,1.468      c0.004-0.007-3.597-2.245-3.596-2.247" style="fill:none;stroke:#262626;stroke-width:2;stroke-linecap:round;stroke-linejoin:round;"/><path d="M146.692,266.871      l-28.698-17.933l28.034,14.057c0,0-29.528-17.138-28.938-18.083c0,0,29.299,14.933,29.372,14.818l-29.768-18.602l29.779,14.983      c0.267-0.428-30-18.746-30-18.746c0.313-0.502,30.091,14.014,30.091,14.014c0.592-0.947-30.461-19.035-30.461-19.035      l30.171,15.643c0.085-0.136-30.26-18.293-29.983-18.735l29.567,13.31c0,0-29.386-17.458-28.979-18.108l28.721,13.069      c0,0-29.877-17.978-29.566-18.475l28.422,13.833c0,0-28.79-17.757-28.685-17.924l28.995,14.699      c0.575-0.92-28.932-18.079-28.932-18.079s28.614,15.268,28.866,14.864c0.501-0.802-27.099-16.933-27.099-16.933      c0.382-0.612,31.939,16.195,31.939,16.195c0.392-0.627-28.095-17.556-28.095-17.556c0.264-0.421,35.273,17.288,35.273,17.288      c0.147-0.236-28.052-17.303-27.951-17.465" style="fill:none;stroke:#262626;stroke-width:2;stroke-linecap:round;stroke-linejoin:round;"/><path d="M120.486,285.401      l-1.88-1.175c0.032-0.051,7.447-0.479,7.447-0.479l-7.786-4.864c0,0,12.638,4.825,12.779,4.599      c0.075-0.12-12.736-7.491-12.526-7.827c0,0,18.11,8.47,18.271,8.211c0,0-18.886-11.552-18.773-11.73      c0.177-0.284,23.788,11.546,23.788,11.546c0.381-0.61-23.686-14.55-23.573-14.73l29.831,14.396      c0.063-0.101-30.175-18.755-30.13-18.827c0.323-0.517,36.916,18.238,36.916,18.238l-37.022-23.134      c0.022-0.035,42.958,23.878,43.597,22.855c0.409-0.653-44.214-27.19-44.018-27.505l49.7,27.585c0,0-49.779-28.989-48.828-30.511      c0.175-0.281,53.734,30.341,54.306,29.425c0.412-0.659-20.319-12.608-20.28-12.672c0.189-0.302,25.991,12.968,25.991,12.968      l-21.22-13.26c0,0,26.386,13.295,26.683,12.82c0,0-23.461-14.614-23.441-14.647l29.201,14.339      c0.089-0.144-27.389-15.876-26.833-16.768c0,0,30.218,15.087,30.243,15.048c0,0-29.442-17.328-28.961-18.098      c0,0,27.291,13.759,27.449,13.505c0.265-0.424-27.707-17.313-27.707-17.313c0.525-0.841,28.589,13.517,28.589,13.517      c0.509-0.815-28.612-17.879-28.612-17.879c0.413-0.66,27.321,13.109,27.789,12.361c0.264-0.423-28.401-17.748-28.401-17.748      c0.341-0.545,29.209,14.342,29.271,14.244c0.555-0.889-30.328-17.697-29.765-18.599c0,0,28.358,15.027,28.883,14.186      l-27.666-17.288c0.056-0.09,27.755,12.734,27.755,12.734c0.416-0.666-28.682-17.922-28.682-17.922      c0.039-0.063,28.753,14.595,28.753,14.595c0.164-0.261-29.35-17.051-28.771-17.978c0,0,29.095,14.143,29.442,13.586      l-60.276-37.665c0.764-1.222,59.496,33.249,59.496,33.249c0-0.001-54.182-33.857-54.182-33.857s53.141,29.493,53.618,28.731      c0.053-0.085-47.928-29.905-47.908-29.937l48.342,25.13c0,0-41.828-24.436-41.063-25.659      c0.01-0.016,40.795,20.799,40.795,20.799l-33.242-20.772c0.219-0.351,33.062,17.186,33.062,17.186l-30.284-18.923      c0.056-0.09,29.973,16.177,30.525,15.293c0,0-29.088-17.698-28.874-18.042l28.379,13.681l-28.584-17.861      c0.209-0.335,28.263,14.6,28.361,14.442l-27.595-17.243c0.372-0.596,28.058,12.783,28.058,12.783s-29.546-17.745-29.224-18.261      l29.217,14.309l-29.839-18.646c0,0,29.01,15.422,29.521,14.605c0.336-0.539-28.938-18.082-28.938-18.082      c0.272-0.435,28.646,13.383,28.646,13.383l-29.196-18.244c0.139-0.222,29.118,16.355,29.693,15.436      c0,0-29.527-17.091-28.916-18.069c0,0,27.658,13.191,28.068,12.535l-24.34-15.209l24.187,10.388c0,0-18.641-11.442-18.549-11.59      c0,0,19.81,7.722,19.963,7.476l-12.558-7.847c0.2-0.32,11.256,4.043,11.4,3.813l-6.008-3.754" style="fill:none;stroke:#262626;stroke-width:2;stroke-linecap:round;stroke-linejoin:round;"/><path d="M354.216,270.042      c0.523-0.837-28.913-16.955-28.413-17.754c0.498-0.797,28.402,13.836,28.402,13.836c0.275-0.44-28.063-17.466-28.032-17.517      l27.544,13.527l-26.639-16.646c0.273-0.438,27.186,13.991,27.656,13.237c0,0-29.401-17.511-29.015-18.13      c0.376-0.601,27.774,13.218,27.774,13.218l-26.66-16.659l28.057,13.233c0.104-0.165-29.358-17.261-28.871-18.041      c0,0,28.279,15.393,28.775,14.601c0.092-0.148-27.171-16.978-27.171-16.978l27.102,13.689      c0.229-0.367-28.528-16.786-28.062-17.534c0.19-0.305,26.887,13.591,27.413,12.748l-26.811-16.753l27.413,12.678      c0.562-0.899-26.803-16.749-26.803-16.749s26.72,14.747,27.225,13.939c0,0-27.778-16.923-27.583-17.236      c0.016-0.025,27.014,13.21,27.014,13.21s-27.063-16.879-27.05-16.902l28.406,14.275c0.204-0.327-28.488-17.802-28.488-17.802      c0.286-0.458,35.972,17.866,35.976,17.858c0.005-0.006-35.851-22.4-35.85-22.401" style="fill:none;stroke:#262626;stroke-width:2;stroke-linecap:round;stroke-linejoin:round;"/><path d="M325.528,284.106      l-0.242-0.151l6.105,0.354c0,0-6.441-3.729-6.308-3.942c0,0,13.249,4.813,13.28,4.763l-13.433-8.393l20.152,8.967      c0.177-0.283-20.124-12.574-20.124-12.574c0.305-0.488,29.27,13.501,29.27,13.501c0.568-0.91-29.311-18.315-29.311-18.315      l35.091,18.717c0.099-0.158-35.002-21.158-34.682-21.672" style="fill:none;stroke:#262626;stroke-width:2;stroke-linecap:round;stroke-linejoin:round;"/><path d="M326.993,318.131      l-2.887-1.803c0.048-0.075,10.993,1.736,10.993,1.736l-11.079-6.923c0,0,17.294,7.862,17.492,7.544      c0.1-0.159-17.284-10.18-17.005-10.626c0,0,23.878,12.196,24.095,11.85c0,0-24.522-14.997-24.376-15.231      c0.231-0.371,30.781,15.916,30.781,15.916c0.492-0.788-30.483-18.724-30.338-18.957l38.618,19.887      c0.08-0.129-38.127-23.698-38.07-23.789c0.418-0.669,47.23,24.684,47.23,24.684l-38.903-24.309      c0.024-0.04,46.765,26.387,47.463,25.271c0.367-0.589-39.836-24.499-39.658-24.782l46.911,25.843      c0,0-40.215-23.418-39.446-24.648c0.135-0.216,41.654,22.496,42.094,21.794c0.679-1.086-34.151-21.194-34.086-21.299      c0.263-0.42,35.624,18.987,35.624,18.987l-29.769-18.602c0,0,29.303,15.193,29.634,14.663c0,0-27.412-17.076-27.389-17.114      l26.944,12.93c0.089-0.142-27.111-15.716-26.56-16.597c0,0,28.204,13.824,28.228,13.787c0,0-28.783-16.939-28.313-17.691      c0,0,26.889,13.502,27.045,13.252c0.621-0.994-66.366-41.47-66.366-41.47c1.287-2.06,67.539,37.854,67.539,37.854      c1.193-1.91-67.327-42.07-67.327-42.07c1.033-1.655,65.663,38.64,66.837,36.762c0.618-0.99-67.183-41.98-67.183-41.98      c0.823-1.316,68.174,38.882,68.321,38.645c0.609-0.975-33.186-19.361-32.567-20.351c0,0,31.36,17.033,31.944,16.098      l-27.155-16.969c0.056-0.089,27.553,12.609,27.553,12.609c0.396-0.634-27.247-17.026-27.247-17.026      c0.037-0.061,27.543,13.838,27.543,13.838c0.155-0.248-27.885-16.199-27.334-17.08c0,0,27.993,13.424,28.327,12.89      l-27.461-17.159c0.335-0.536,26.942,12.907,26.942,12.907c0-0.001-26.924-16.824-26.924-16.824s26.448,12.263,26.677,11.896      c0.031-0.05-27.52-17.171-27.509-17.189l28.282,12.594c0,0-28.488-16.646-27.969-17.477      c0.007-0.011,28.013,12.813,28.013,12.813l-26.686-16.675c0.176-0.282,26.737,13.233,26.737,13.233l-27.327-17.076      c0.051-0.081,27.321,14.405,27.821,13.604c0,0-27.638-16.815-27.434-17.142l27.21,12.95l-27.171-16.979      c0.2-0.32,27.072,13.847,27.166,13.696l-64.46-40.279c0.899-1.439,65.24,36.017,65.24,36.017s-58.639-35.223-58.002-36.243      l58.259,32.455l-51.892-32.426c0,0,50.913,30.013,51.83,28.545c0.515-0.823-44.448-27.774-44.448-27.774      c0.432-0.69,44.458,23.264,44.458,23.264l-37.011-23.127c0.178-0.284,36.979,21.627,37.715,20.449      c0,0-32.084-18.574-31.421-19.634c0,0,30.453,15.036,30.907,14.309l-21.294-13.306l21.457,8.681c0,0-14.065-8.631-13.994-8.744      c0,0,15.144,4.721,15.259,4.537l-5.924-3.702" style="fill:none;stroke:#262626;stroke-width:2;stroke-linecap:round;stroke-linejoin:round;"/><path d="M202.625,191.663      l-2.477-1.548c0.037-0.059,8.656,0.276,8.656,0.276l-8.907-5.566c0,0,13.9,5.649,14.057,5.397      c0.081-0.13-13.938-8.202-13.709-8.567c0,0,19.43,9.323,19.604,9.044c0,0-20.137-12.315-20.017-12.508      c0.188-0.301,25.22,12.441,25.22,12.441c0.404-0.646-25.032-15.375-24.912-15.567l28.518,13.575      c0.06-0.095-28.313-17.599-28.271-17.666c0.241-0.385,27.969,12.647,27.969,12.647l-25.84-16.146      c0.013-0.021,25.435,12.325,25.803,11.736c0.186-0.297-20.306-12.49-20.217-12.633l20.667,9.443c0,0-14.791-8.606-14.505-9.063      c0.038-0.06,12.755,3.737,12.878,3.539c0.15-0.239-6.651-4.125-6.638-4.147" style="fill:none;stroke:#262626;stroke-width:2;stroke-linecap:round;stroke-linejoin:round;"/><path d="M270.838,265.669      c0.506-0.808-27.946-16.39-27.464-17.161c0.483-0.774,27.626,13.351,27.626,13.351c0.268-0.429-27.393-17.048-27.361-17.098      l26.79,13.056l-25.984-16.237c0.265-0.425,26.435,13.491,26.892,12.76c0,0-28.737-17.116-28.359-17.721      c0.365-0.584,27.005,12.738,27.005,12.738l-26.003-16.249l27.283,12.75c0.101-0.161-28.688-16.869-28.213-17.629      c0,0,27.543,14.902,28.024,14.132c0.091-0.145-26.512-16.566-26.512-16.566l26.354,13.223      c0.225-0.359-27.858-16.392-27.402-17.123c0.185-0.296,26.124,13.079,26.634,12.261l-26.15-16.34l26.632,12.189      c0.548-0.877-26.142-16.335-26.142-16.335s25.99,14.258,26.479,13.474c0,0-27.11-16.518-26.92-16.822      c0.015-0.025,26,12.576,26,12.576s-26.149-16.308-26.134-16.331l29.925,15.224c0.221-0.354-30.876-19.293-30.876-19.293      c0.307-0.492,38.459,19.504,38.465,19.496c0.003-0.006-33.812-21.125-33.811-21.127" style="fill:none;stroke:#262626;stroke-width:2;stroke-linecap:round;stroke-linejoin:round;"/><path d="M243.985,280.768      l-0.307-0.192l5.835,0.186c0,0-6.217-3.599-6.088-3.804c0,0,12.424,4.291,12.453,4.245l-12.7-7.937l18.794,8.119      c0.166-0.265-18.865-11.787-18.865-11.787c0.282-0.451,27.149,12.176,27.149,12.176c0.528-0.846-27.318-17.071-27.318-17.071      l32.521,17.111c0.091-0.146-32.497-19.644-32.199-20.12" style="fill:none;stroke:#262626;stroke-width:2;stroke-linecap:round;stroke-linejoin:round;"/><path d="M244.799,313.87      l-2.303-1.438c0.04-0.064,9.472,0.786,9.472,0.786l-8.756-5.472c0,0,14.386,5.966,14.549,5.705      c0.084-0.134-14.388-8.469-14.153-8.844c0,0,20.473,9.996,20.656,9.701c0,0-21.15-12.937-21.025-13.138      c0.201-0.322,26.824,13.443,26.824,13.443c0.429-0.687-26.597-16.337-26.47-16.541l33.805,16.879      c0.071-0.113-33.813-21.017-33.762-21.097c0.369-0.591,41.963,21.393,41.963,21.393l-33.897-21.182      c0.021-0.034,40.978,22.572,41.586,21.599c0.32-0.512-34.704-21.343-34.55-21.589l41.113,22.219      c0,0-34.945-20.347-34.275-21.418c0.129-0.207,40.223,21.567,40.646,20.891c0.667-1.067-33.528-20.808-33.464-20.91      c0.272-0.437,36.969,19.826,36.969,19.826l-31.46-19.658c0,0,31.865,16.863,32.228,16.285c0,0-28.237-17.591-28.213-17.63      l27.663,13.378c0.086-0.139-26.475-15.345-25.936-16.207c0,0,27.476,13.368,27.498,13.333c0,0-27.858-16.396-27.404-17.124      c0,0,25.888,12.862,26.037,12.622c0.621-0.994-66.395-41.488-66.395-41.488c1.285-2.056,67.45,37.8,67.45,37.8      c1.194-1.911-67.355-42.089-67.355-42.089c1.033-1.653,65.559,38.569,66.729,36.694c0.357-0.571-38.575-24.104-38.575-24.104      c0.469-0.749,39.521,20.836,39.605,20.701c0.621-0.994-33.852-19.749-33.221-20.759c0,0,31.897,17.393,32.492,16.44      l-27.543-17.21c0.057-0.091,27.815,12.771,27.815,12.771c0.388-0.62-26.673-16.667-26.673-16.667      c0.036-0.059,26.877,13.422,26.877,13.422c0.151-0.242-27.2-15.801-26.663-16.661c0,0,27.202,12.907,27.525,12.39      l-26.788-16.739c0.324-0.52,26.163,12.42,26.163,12.42c0-0.001-26.25-16.403-26.25-16.403s25.652,11.749,25.874,11.395      c0.029-0.048-26.845-16.75-26.834-16.767l27.469,12.087c0,0-27.799-16.243-27.292-17.054c0.007-0.01,27.21,12.311,27.21,12.311      l-26.009-16.252c0.17-0.272,25.966,12.752,25.966,12.752l-26.65-16.653c0.05-0.08,26.557,13.894,27.042,13.116      c0,0-26.954-16.399-26.755-16.718l26.421,12.458L285,224.143c0.196-0.314,26.588,13.541,26.681,13.393l-57.725-36.071      c0.802-1.283,58.376,31.729,58.376,31.729s-52.463-31.513-51.892-32.426l52.042,28.571l-46.303-28.933      c0,0,45.323,26.29,46.137,24.988c0.456-0.729-39.364-24.597-39.364-24.597c0.379-0.606,39.251,20.009,39.251,20.009      l-32.389-20.238c0.154-0.247,32.367,18.534,33.009,17.507c0,0-27.751-16.061-27.176-16.981c0,0,26.14,12.19,26.526,11.571      l-17.769-11.103l17.802,6.399c0,0-11.205-6.875-11.147-6.966c0,0,11.628,2.917,11.715,2.777l-3.979-2.487" style="fill:none;stroke:#262626;stroke-width:2;stroke-linecap:round;stroke-linejoin:round;"/></g></g></g></g><g id="Layer_1"/></svg>