<?xml version="1.0" ?><!DOCTYPE svg  PUBLIC '-//W3C//DTD SVG 1.1//EN'  'http://www.w3.org/Graphics/SVG/1.1/DTD/svg11.dtd'><svg height="512px" style="enable-background:new 0 0 512 512;" version="1.1" viewBox="0 0 512 512" width="512px" xml:space="preserve" xmlns="http://www.w3.org/2000/svg" xmlns:xlink="http://www.w3.org/1999/xlink"><g id="whatsapp__x2C__icons__x2C__logo__x2C__social__x2C__media"><g><g><g><path d="M117.675,374.772      l-61.54-38.454c0.601-0.963,37.577,18.319,37.577,18.319l-43.636-27.267c0,0,31.597,15.373,31.727,15.166      c0.305-0.488-36.478-22.794-36.478-22.794c0.015-0.024,29.472,15.712,29.942,14.96c0,0-32.05-19.888-31.987-19.988      c0,0,25.104,11.021,25.298,10.711c0.583-0.934-29.333-17.997-29.184-18.236c0.18-0.287,23.204,9.646,23.334,9.438      c0.291-0.464-27.149-16.608-26.989-16.864c0.068-0.109,24.782,11.379,24.782,11.379c0.384-0.613-25.821-15.447-25.513-15.941      l20.738,8.153c0,0-23.637-14.167-23.366-14.601c0,0,21.229,8.776,21.408,8.491l-22.883-14.299      c0.241-0.386,21.363,9.744,21.363,9.744l-22.762-14.224l21.123,9.233c0.311-0.498-22.182-13.236-21.901-13.686      c0,0,19.186,8.341,19.321,8.124c0.432-0.691-20.018-11.648-19.631-12.267c0.25-0.399,19.686,7.298,19.686,7.298      c0.403-0.644-21.856-12.845-21.491-13.429c0.346-0.554,19.404,7.529,19.586,7.238c0.079-0.126-19.967-12.477-19.967-12.477      c0.358-0.574,19.253,7.533,19.253,7.533s-19.582-12.078-19.511-12.191l17.884,6.017l-16.775-10.482      c0,0,17.631,6.335,17.751,6.143c0.021-0.033-18.194-10.981-18.021-11.26c0.271-0.433,16.535,5.972,16.535,5.972      c0.387-0.619-16.625-10.389-16.625-10.389c0.051-0.082,16.256,5.773,16.256,5.773l-15.812-9.88l17.283,7.034L26.601,231.62      l17.724,5.907c0.058-0.092-16.037-10.021-16.037-10.021c0.031-0.049,15.781,6.027,16.09,5.532l-16.275-10.17      c0.134-0.215,17.211,6.023,17.219,6.011c0.234-0.375-16.206-10.126-16.206-10.126s16.308,6.486,16.383,6.367      c0.127-0.204-15.561-9.723-15.561-9.723c0.314-0.503,16.174,6.381,16.323,6.142l-16.139-10.085l16.045,6.809      c0,0-14.647-8.755-14.468-9.041c0.189-0.303,15.551,5.977,15.551,5.977s-14.819-8.864-14.641-9.149      c0.043-0.069,15.842,6.068,16.125,5.614c0.317-0.507-14.684-9.176-14.684-9.176l14.362,5.9c0.286-0.458-14.484-9.05-14.484-9.05      s15.583,5.254,15.715,5.043c0.033-0.053-15.049-9.404-15.049-9.404s16.362,5.664,16.484,5.467c0,0-15.231-9.141-15.062-9.412      c0.076-0.122,17.115,6.478,17.115,6.478s-14.411-8.97-14.395-8.995c0.004-0.007,15.646,5.408,15.646,5.408      c0.021-0.034-15.056-9.408-15.056-9.408c0.17-0.273,15.434,6.071,15.612,5.786l-14.579-9.11l15.801,6.272      c0.15-0.241-14.366-8.968-14.362-8.975c0.007-0.011,15.363,6.076,15.483,5.883c0.076-0.121-13.348-7.967-13.18-8.236      c0.054-0.086,15.257,6.401,15.373,6.217l-14.572-9.106c0.036-0.058,14.486,5.985,14.486,5.985l-13.557-8.471      c0.045-0.072,14.803,6.069,15.056,5.664l-13.752-8.593c0,0,15.549,5.75,15.854,5.261c0.193-0.308-12.911-8.067-12.911-8.067      c0.015-0.023,13.94,5.398,13.94,5.398l-13.775-8.607c0.223-0.356,15.602,6.907,15.809,6.577c0,0-13.312-8.103-13.215-8.258      c0,0,13.786,5.127,13.903,4.94c0,0-13.237-8.083-13.152-8.218c0,0,16.414,6.316,16.634,5.964      c0.1-0.161-14.342-8.939-14.332-8.955c0.264-0.423,15.036,4.549,15.084,4.473L58.911,150.8      c0.078-0.124,15.035,5.366,15.119,5.231c0.197-0.315-13.556-7.868-13.285-8.301c0.221-0.353,14.964,4.576,15.055,4.432      l-13.538-8.459c0.146-0.233,16.168,5.155,16.168,5.155c0.225-0.361-12.336-7.709-12.336-7.709      c0.002-0.003,14.468,5.789,14.468,5.789l-12.606-7.877c0.16-0.256,14.274,4.313,14.507,3.94c0.231-0.37-13.296-8.279-13.283-8.3      c0.021-0.034,16.037,6.392,16.114,6.268c0,0-14.152-8.539-14.015-8.758l17.18,5.577c0.075-0.121-12.834-8.02-12.834-8.02      c0.088-0.142,13.818,5.233,13.818,5.233s-12.192-7.559-12.165-7.602c0.088-0.141,14.935,5.339,14.935,5.339      s-13.142-7.772-12.944-8.088c0,0,15.405,6.599,15.705,6.117c0.157-0.251-13.088-7.891-12.959-8.098      c0.003-0.006,14.348,5.283,14.348,5.283c0.067-0.108-12.197-7.622-12.197-7.622s15.096,4.778,15.233,4.559l-11.88-7.423      c0,0,14.541,4.369,14.635,4.218c0.041-0.065-12.904-8.064-12.904-8.064s16.307,6.936,16.436,6.729      c0.275-0.44-13.539-8.46-13.539-8.46c0.071-0.114,16.677,6.006,16.729,5.923l-14.126-8.827l14.875,6.215l-12.995-8.12      c0.019-0.03,16.537,6.494,16.659,6.299c0,0-12.936-7.725-12.774-7.982c0,0,16.072,5.966,16.233,5.709      c0.197-0.315-13.894-8.682-13.894-8.682s14.813,6.078,15.102,5.617c0,0-12.346-7.472-12.237-7.646l15.441,5.634      c0,0-12.313-7.501-12.227-7.64c0.25-0.399,15.328,5.991,15.328,5.991s-12.886-7.569-12.669-7.917      c0.278-0.446,14.896,5.31,14.896,5.31l-12.591-7.868l16.696,6.183c0.032-0.052-13.146-8.214-13.146-8.214      c0.113-0.182,16.403,6.029,16.433,5.981l-13.713-8.569c0.19-0.304,16.788,7.023,16.854,6.917      c0.128-0.206-13.754-8.3-13.622-8.512c0.086-0.137,15.309,6.152,15.336,6.108c0.261-0.417-13.33-8.329-13.33-8.329l16.538,7.067      c0.12-0.191-13.695-8.558-13.695-8.558c0.142-0.228,17.213,5.795,17.213,5.795c0.08-0.127-13.635-8.52-13.635-8.52      c0.115-0.184,16.55,6.776,16.709,6.521c0.035-0.055-13.479-8.422-13.479-8.422c0.125-0.2,17.796,6.652,18.085,6.189      c0.162-0.26-12.986-8.114-12.986-8.114c0.308-0.493,15.939,6.144,15.939,6.144l-12.928-8.078c0,0,16.246,6.769,16.541,6.297      c0.323-0.517-13.446-7.883-13.213-8.256c0.334-0.534,17.427,6.383,17.583,6.132l-12.99-8.117c0,0,17.591,7.109,17.595,7.103      c0.32-0.513-14.76-9.223-14.76-9.223c0.365-0.584,19.013,7.653,19.013,7.653c0.247-0.395-14.875-8.836-14.669-9.166      c0,0,18.103,7.681,18.469,7.094c0,0-14.979-8.78-14.718-9.197c0,0,19.079,7.177,19.131,7.094      c0.129-0.207-14.692-9.181-14.692-9.181l19.46,7.98c0,0-15.845-9.423-15.63-9.767c0,0,17.55,8.275,17.86,7.779      c0.088-0.141-14.853-8.807-14.64-9.148l19.911,8.431c0.185-0.295-15.329-9.579-15.329-9.579      c0.083-0.132,19.604,8.689,19.957,8.125c0,0-16.193-9.745-16.025-10.014l19.27,8.257l-15.188-9.491l18.946,8.646      c0,0-16.919-10.33-16.81-10.504c0.337-0.54,22.679,9.316,22.679,9.316l-16.467-10.29l21.5,9.577l-17.905-11.188l21.888,10.082      c0,0-18.156-10.582-17.813-11.131c0,0,22.345,9.913,22.421,9.79c0,0-18.68-11.291-18.509-11.565      c0,0,22.738,10.599,23.096,10.026c0.33-0.528-16.521-10.324-16.521-10.324s23.015,10.822,23.474,10.088      c0,0-19.843-11.687-19.522-12.199c0,0,25.241,11.62,25.356,11.437c0,0-19.999-12.245-19.885-12.426      c0,0,24.62,12.011,24.911,11.545l-18.869-11.791c0.104-0.167,22.984,12.046,23.417,11.354c0,0-19.898-12.314-19.844-12.4      c0,0,24.587,13.029,24.994,12.378c0,0-21.107-12.948-20.999-13.122c0.059-0.093,26.707,12.847,27.011,12.362      c0.353-0.564-20.954-12.512-20.693-12.93c0.381-0.61,29.248,13.578,29.248,13.578s-23.315-13.467-22.82-14.259      c0,0,30.007,14.069,30.148,13.844c0.061-0.097-23.53-14.455-23.418-14.633l32.11,15.717c0,0-25.561-15.546-25.369-15.853      c0,0,31.847,16.533,32.242,15.899c0,0-25.978-16.211-25.968-16.227c0.518-0.829,32.913,17.415,32.913,17.415      c0.594-0.95-28.424-17.761-28.424-17.761c0.634-1.015,37.151,19.894,37.729,18.968c0.407-0.651-29.023-18.108-29.011-18.128      c0.779-1.247,38.381,21.887,39.062,20.798c0.009-0.014-33.858-20.822-33.708-21.063c0.459-0.735,42.817,23.296,42.817,23.296      c0.412-0.659-37.547-22.201-36.98-23.108l50.08,26.84l-41.171-25.726c1.137-1.819,68.181,38.181,68.262,38.05l-58.173-36.351" style="fill:none;stroke:#231F20;stroke-width:2;stroke-linecap:round;stroke-linejoin:round;"/><path d="M133.705,402.954      l-26.403-16.498L165.4,418.05c0.023-0.036-84.097-50.237-83.057-51.9c0,0,99.877,61.004,101.271,58.772      c1.696-2.715-114.044-68.329-112.726-70.439l122.391,73.146c0,0-132.495-77.037-129.909-81.176      c0,0,138.511,86.622,140.173,83.963c2.262-3.619-147.625-88.157-145.787-91.098c0.778-1.245,154.861,95.433,156.083,93.478      c0.521-0.834-52.829-33.011-52.829-33.011c0.99-1.584,63.008,35.846,63.117,35.67c0.16-0.256-44.552-27.839-44.552-27.839      s52.51,28.783,52.638,28.578c0.065-0.104-38.143-23.405-37.95-23.714c0.633-1.013,47.35,26.318,47.872,25.483      c0,0-35.568-21.776-35.366-22.099c0.813-1.301,44.773,23.281,44.773,23.281l-31.964-19.974      c0.667-1.066,38.278,21.059,38.819,20.191c0,0-29.833-18.516-29.777-18.606l37.707,19.521      c0.058-0.091-28.92-18.071-28.92-18.071s34.704,17.543,34.711,17.531c0.49-0.784-26.514-16.567-26.514-16.567      c0.289-0.462,32.842,17.718,33.179,17.18l-26.739-16.708l33.434,16.379c0.456-0.729-24.299-15.184-24.299-15.184      c0.592-0.946,30.129,14.638,30.129,14.638s-24.67-14.585-24.297-15.183l31.374,15.576c0.493-0.788-24.193-15.117-24.193-15.117      l28.015,13.859c0.435-0.694-21.834-13.643-21.834-13.643L309.043,438c0.098-0.156-21.576-13.482-21.576-13.482      c0.546-0.874,26.265,13.703,26.74,12.942c0.104-0.165-21.385-13.01-21.227-13.264c0,0,26.296,13.646,26.651,13.076      c0.192-0.308-21.475-12.459-21.043-13.149c0.253-0.405,24.731,12.788,25.186,12.061l-20.832-13.018      c0.078-0.125,26.038,11.423,26.083,11.352c0.307-0.491-20.311-12.691-20.311-12.691c0.419-0.67,25.331,11.356,25.331,11.356      l-18.488-11.553l25.067,10.592c0,0-19.206-11.765-19.1-11.935c0,0,22.576,11.194,23,10.516c0.172-0.275-18.083-11.3-18.083-11.3      s20.824,9.993,20.911,9.854c0,0-18.31-11.125-18.168-11.353l22.708,10.538c0.284-0.456-18.829-11.507-18.713-11.693      l22.798,10.521c0.142-0.227-18.291-11.41-18.282-11.424l21.102,9.863c0.175-0.28-16.729-10.453-16.729-10.453      c0.322-0.516,20.977,9.396,20.977,9.396l-17.409-10.879c0,0,21.827,9.047,21.975,8.812c0.348-0.558-17.82-10.632-17.595-10.994      c0.186-0.296,20.255,9.919,20.629,9.319c0.356-0.569-17.513-10.192-17.175-10.732c0.409-0.654,20.45,9.113,20.545,8.961      c0.269-0.429-16.311-10.192-16.311-10.192c0.193-0.31,20.741,9.052,20.894,8.807c0.215-0.343-16.612-10.31-16.581-10.361      c0.334-0.533,18.392,8.239,18.392,8.239s-15.361-9.473-15.305-9.563c0.166-0.266,20.153,8.165,20.153,8.165      c0.122-0.195-15.942-9.804-15.871-9.918c0.075-0.121,19.277,9.001,19.644,8.415c0.027-0.044-17.742-10.666-17.553-10.969      c0.129-0.206,20.559,8.852,20.782,8.493l-16.333-10.206c0.155-0.25,19.946,8.76,20.224,8.316c0,0-17.361-10.753-17.318-10.821      c0.272-0.437,19.313,8.578,19.561,8.183c0.224-0.357-15.109-9.441-15.109-9.441l18.425,8.304c0,0-16.202-9.366-15.861-9.911      l17.546,7.843l-15.904-9.938l20.674,7.754c0.002-0.004-16.866-10.278-16.749-10.466c0,0,18.075,8.256,18.172,8.103      c0.275-0.44-15.923-9.949-15.923-9.949c0.345-0.551,19.051,9.139,19.434,8.526c0,0-15.545-9.667-15.523-9.7      c0.232-0.373,16.15,7.047,16.235,6.911l-14.23-8.893c0.244-0.39,18.993,7.409,18.993,7.409s-16.109-9.942-16.054-10.031      c0.113-0.181,16.417,7.651,16.678,7.232c0.205-0.328-14.297-8.934-14.297-8.934s17.505,7.917,17.731,7.553      c0.292-0.466-14.896-8.897-14.712-9.192c0.324-0.519,16.834,6.721,16.834,6.721c0.032-0.052-15.569-9.729-15.569-9.729      s18.258,8.643,18.564,8.15c0.098-0.156-15.549-9.404-15.408-9.629c0.334-0.535,17.302,7.466,17.352,7.387      c0.176-0.281-15.269-8.955-15.005-9.376c0.229-0.366,16.527,6.578,16.527,6.578c0.009-0.014-14.948-8.596-14.613-9.132      c0,0,18.116,7.145,18.39,6.707c0.11-0.176-15.449-9.354-15.314-9.569c0,0,17.121,7.201,17.454,6.667      c0.321-0.514-14.968-9.354-14.968-9.354c0.179-0.287,15.85,7.185,16.009,6.931c0.016-0.024-14.018-8.759-14.018-8.759      s16.819,6.754,17.086,6.328l-15.864-9.914c0.349-0.558,17.923,7.425,17.923,7.425l-14.992-9.367l17.472,6.208      c0.011-0.018-15.251-9.486-15.231-9.518c0.194-0.313,17.42,6.164,17.42,6.164c0.03-0.047-15.341-9.414-15.264-9.538      c0.319-0.512,17.529,7.035,17.703,6.756c0,0-15.585-9.519-15.485-9.677c0.256-0.411,16.028,6.802,16.028,6.802      c0.017-0.025-13.467-8.416-13.467-8.416l15.749,6.716c0,0-15.368-9.359-15.259-9.535l18.018,6.406      c0.009-0.015-15.495-8.953-15.167-9.478c0.18-0.288,15.406,5.884,15.406,5.884c0.058-0.093-14.761-8.691-14.521-9.074      l16.248,6.189l-13.304-8.313l16.094,6.812c0.019-0.028-15.59-9.741-15.59-9.741c0.097-0.155,17.532,6.729,17.532,6.729      c0.306-0.489-15.373-9.607-15.373-9.607s15.871,7.008,16.005,6.794c0.177-0.283-15.408-9.528-15.363-9.601      c0.032-0.053,17.44,6.589,17.44,6.589c0.331-0.53-15.878-9.483-15.681-9.799l16.251,6.93c0.333-0.534-14.588-8.813-14.452-9.03      c0,0,16.437,6.233,16.617,5.944l-15.638-9.771l17.179,6.664c0.036-0.059-15.521-9.699-15.521-9.699      c0.293-0.469,16.514,6.857,16.514,6.857c0.13-0.207-14.816-9.259-14.816-9.259l15.609,6.023      c0.338-0.54-14.314-8.944-14.314-8.944c0.16-0.258,15.745,6.03,15.745,6.03c0.07-0.112-14.395-8.994-14.395-8.994l15.947,5.452      c0,0-15.628-9.02-15.293-9.556c0,0,16.507,7.485,16.682,7.206c0.069-0.111-15.308-9.528-15.291-9.555      c0.217-0.347,14.842,5.569,14.842,5.569l-14.363-8.976l16.406,5.425c0.287-0.459-16.13-9.827-16.017-10.009      c0.341-0.545,17.079,7.541,17.319,7.155c0.104-0.165-16.352-10.213-16.35-10.217l16.394,5.572l-14.517-9.07l16,5.672      l-15.104-9.438l15.436,5.506c0,0-16.205-9.729-16.026-10.015c0.042-0.066,16.697,6.884,16.959,6.466      c0.224-0.358-16.312-9.765-16.119-10.072c0,0,17.396,6.975,17.579,6.681c0.287-0.459-15.701-9.812-15.701-9.812      c0.254-0.407,15.417,5.167,15.417,5.167s-15.98-9.481-15.754-9.845l17.558,6.138c0,0-16.72-9.789-16.425-10.263      c0,0,16.499,6.84,16.822,6.323c0.254-0.406-16.548-10.34-16.548-10.34s16.042,7.078,16.196,6.832      c0.088-0.142-16.459-10.014-16.337-10.209c0.302-0.483,16.602,6.85,16.794,6.541c0.216-0.344-17.183-10.737-17.183-10.737      l18.229,6.388l-17.582-10.987c0.126-0.201,17.858,7.814,18.121,7.393c0.225-0.359-18.275-11.153-18.155-11.345      c0.087-0.139,17.761,7.077,18.035,6.639l-17.186-10.739c0.039-0.063,15.904,6.147,16.125,5.794l-18.027-11.265      c0.009-0.014,18.33,6.911,18.33,6.911c0.177-0.283-17.45-10.904-17.45-10.904c0.131-0.21,17.791,7.24,17.791,7.24      c0.38-0.608-19.067-11.914-19.067-11.914s19.11,8.734,19.241,8.525c0.304-0.487-19.946-11.929-19.706-12.313l19.257,8.028      c0.422-0.674-20.069-11.922-19.791-12.367c0,0,18.334,8.556,18.457,8.358c0.375-0.601-18.725-11.701-18.725-11.701      s18.715,9.264,19.1,8.647c0.095-0.152-19.592-12.199-19.572-12.23l18.249,6.624c0.098-0.155-18.986-11.539-18.841-11.772      c0.203-0.324,19.208,8.066,19.208,8.066c0.279-0.447-21.721-13.573-21.721-13.573c0.049-0.078,19.89,8.774,20.101,8.438      c0.044-0.071-20.575-12.107-20.238-12.646c0,0,18.594,7.962,18.918,7.443c0,0-21.613-12.709-21.256-13.282      c0.185-0.295,20.764,10.076,20.896,9.864c0.142-0.227-21.799-13.621-21.799-13.621l20.092,8.094l-23.054-14.406l21.119,8.293      c0.113-0.181-24.335-14.615-24.069-15.041l22.475,9.881l-24.223-15.136c0.385-0.616,23.053,10.888,23.519,10.143      c0.332-0.532-27.108-16.938-27.108-16.938l24.682,11.602L443.767,151.6c0.421-0.672,25.713,11.569,25.713,11.569      c0.224-0.358-29.479-18.28-29.415-18.381c0.464-0.742,26.839,13.297,26.839,13.297s-32.236-19.571-31.979-19.983      c0.525-0.841,28.972,14.745,29.441,13.994c0,0-35.73-22.18-35.664-22.286c0.099-0.157,31.506,14.626,31.506,14.626      s-39.864-23.573-39.264-24.535l34.537,17.42c0,0-47.661-27.997-46.859-29.28l41.642,21.764l-135.66-84.77      c0,0,128.46,79.489,130.254,76.619L325.291,46.942c2.072-3.316,111.055,64.95,111.055,64.95s-100.213-58.764-98.48-61.538      c1.404-2.247,91.527,53.816,91.586,53.724l-81.686-51.042l70.089,40.304l-55.479-34.668" style="fill:none;stroke:#231F20;stroke-width:2;stroke-linecap:round;stroke-linejoin:round;"/><path d="M247.198,248.828      l-44.641-27.895c0.5-0.8,31.581,14.573,31.581,14.573l-32.007-20c0,0,28.831,13.617,28.948,13.43      c0.242-0.387-28.792-17.991-28.792-17.991c0.017-0.026,30.405,16.329,30.892,15.552c0,0-29.091-18.05-29.033-18.142      c0,0,31.932,15.414,32.182,15.013c0.612-0.979-30.838-18.922-30.682-19.172c0.259-0.414,32.653,15.678,32.84,15.378      c0.332-0.531-31.157-19.063-30.974-19.355c0.093-0.149,33.394,16.76,33.394,16.76c0.444-0.71-30.003-17.952-29.645-18.524      l24.938,10.779c0,0-22.654-13.577-22.394-13.993c0,0,19.619,7.736,19.782,7.476l-14.391-8.993      c0.13-0.208,12.032,3.913,12.032,3.913l-6.685-4.177" style="fill:none;stroke:#231F20;stroke-width:2;stroke-linecap:round;stroke-linejoin:round;"/><path d="M251.748,273.203      l-16.089-10.054l36.91,18.354c0.015-0.023-53.461-31.932-52.798-32.992c0,0,65.048,38.137,65.947,36.699      c1.116-1.785-74.895-44.871-74.028-46.258l78.991,46.026c0,0-86.038-50.024-84.358-52.712c0,0,88.135,53.783,89.185,52.102      c1.427-2.282-93.026-55.551-91.867-57.405c0.476-0.762,95.52,57.299,96.268,56.102c0.955-1.53-97.686-61.041-97.686-61.041      c1.625-2.601,102.446,60.646,102.626,60.358c0.114-0.183-31.812-19.879-31.812-19.879s34.066,17.155,34.148,17.025      c0.052-0.084-30.561-18.75-30.405-18.999c0.446-0.715,33.924,17.586,34.292,16.997c0,0-32.105-19.656-31.924-19.948      c0.623-0.997,34.771,17.032,34.771,17.032l-31.089-19.426c0.54-0.864,31.31,16.475,31.748,15.773c0,0-29.936-18.58-29.879-18.67      l31.522,15.657c0.056-0.09-28.457-17.782-28.457-17.782s27.57,13.082,27.576,13.073c0.205-0.328-10.508-6.565-10.508-6.565" style="fill:none;stroke:#231F20;stroke-width:2;stroke-linecap:round;stroke-linejoin:round;"/><path d="M169.548,316.927      l-14.559-9.098c0.252-0.403,16.721,5.287,16.721,5.287l-15.317-9.571c0,0,15.748,5.318,15.809,5.221      c0.126-0.202-14.844-9.276-14.844-9.276c0.008-0.013,15.573,6.511,15.812,6.129c0,0-13.851-8.59-13.822-8.637      c0,0,15.213,4.66,15.326,4.48c0.295-0.472-14.351-8.8-14.275-8.92c0.113-0.182,15.197,4.537,15.279,4.405      c0.198-0.317-18.289-11.186-18.18-11.36c0.056-0.09,20.741,8.854,20.741,8.854c0.357-0.57-24.003-14.357-23.716-14.818      l23.707,10.009c0,0-28.379-17.015-28.056-17.531c0,0,28.488,13.459,28.732,13.068l-31.185-19.486      c0.299-0.479,26.18,12.754,26.18,12.754l-28.024-17.512l23.975,11.016c0.356-0.571-25.427-15.172-25.105-15.688      c0,0,21.065,9.547,21.214,9.308c0.472-0.756-22.01-12.814-21.588-13.49c0.262-0.418,20.563,7.847,20.563,7.847      c0.418-0.67-22.691-13.334-22.311-13.941c0.353-0.564,19.747,7.752,19.933,7.455c0.08-0.127-20.155-12.594-20.155-12.594      c0.362-0.58,19.422,7.639,19.422,7.639s-19.3-11.904-19.23-12.016l17.703,5.904l-16.09-10.054c0,0,17.301,6.122,17.418,5.935      c0.02-0.031-17.361-10.479-17.194-10.744c0.262-0.419,16.085,5.691,16.085,5.691c0.365-0.584-15.656-9.783-15.656-9.783      c0.05-0.08,15.917,5.562,15.917,5.562l-14.855-9.283l16.75,6.701l-16.798-10.496l17.528,5.784      c0.054-0.085-14.965-9.351-14.965-9.351c0.03-0.048,15.496,5.835,15.799,5.35l-15.292-9.556      c0.133-0.213,17.08,5.941,17.087,5.929c0.219-0.35-15.115-9.445-15.115-9.445s16.084,6.344,16.157,6.227      c0.121-0.193-14.688-9.178-14.688-9.178c0.313-0.501,16.081,6.321,16.229,6.083l-15.142-9.462l15.762,6.632      c0,0-13.718-8.198-13.55-8.467c0.19-0.304,15.583,5.997,15.583,5.997s-14.078-8.419-13.908-8.691      c0.044-0.071,16.099,6.24,16.387,5.778c0.3-0.48-13.88-8.673-13.88-8.673l14.359,5.898c0.274-0.439-13.861-8.661-13.861-8.661      s16.221,5.666,16.359,5.445c0.032-0.051-14.507-9.065-14.507-9.065s17.115,6.148,17.244,5.942c0,0-14.819-8.894-14.654-9.157      c0.08-0.128,17.94,6.994,17.94,6.994s-14.122-8.791-14.107-8.815c0.005-0.008,16.669,6.047,16.669,6.047      c0.021-0.033-14.925-9.326-14.925-9.326c0.184-0.294,16.494,6.763,16.686,6.457l-14.53-9.079l16.976,7.005      c0.152-0.243-14.544-9.079-14.54-9.085c0.007-0.012,16.756,6.974,16.888,6.761c0.078-0.124-13.636-8.141-13.465-8.414      c0.06-0.096,16.733,7.349,16.86,7.146l-14.934-9.332c0.041-0.064,15.938,6.891,15.938,6.891l-14.12-8.823      c0.052-0.083,16.806,7.404,17.096,6.939l-14.586-9.114c0,0,18.069,7.446,18.429,6.87c0.206-0.33-13.875-8.67-13.875-8.67      c0.017-0.027,16.288,6.866,16.288,6.866l-14.974-9.357c0.263-0.421,18.222,8.627,18.465,8.237c0,0-14.774-8.993-14.667-9.165      c0,0,16.837,7.097,16.982,6.864c0,0-14.958-9.134-14.862-9.287c0,0,20.158,8.777,20.432,8.338      c0.115-0.184-16.309-10.164-16.297-10.183c0.352-0.563,19.54,7.4,19.604,7.297l-14.625-9.139      c0.104-0.167,19.738,8.369,19.851,8.188c0.238-0.382-16.451-9.55-16.123-10.075c0.314-0.502,20.7,8.244,20.828,8.039      l-17.024-10.638c0.212-0.338,22.812,9.306,22.812,9.306c0.295-0.472-16.513-10.318-16.513-10.318      c0.003-0.005,20.792,9.741,20.792,9.741l-17.32-10.823c0.265-0.424,22.677,9.902,23.062,9.286      c0.327-0.523-18.894-11.764-18.875-11.794c0.034-0.054,24.722,11.922,24.846,11.724c0,0-20.75-12.513-20.546-12.839      l28.365,12.566c0.12-0.192-20.74-12.959-20.74-12.959c0.169-0.271,25.333,12.428,25.333,12.428s-21.335-13.231-21.29-13.303      c0.179-0.287,28.949,14.096,28.949,14.096s-24.373-14.427-24.012-15.004c0,0,31.465,17.397,32.109,16.368      c0.314-0.503-26.651-16.078-26.392-16.492c0.009-0.014,34.661,17.977,34.661,17.977c0.154-0.248-29.413-18.379-29.413-18.379      S305.54,164.943,306,164.207l-39.564-24.723" style="fill:none;stroke:#231F20;stroke-width:2;stroke-linecap:round;stroke-linejoin:round;"/><path d="M142.294,341.51      l-0.037-0.022l5.26-1.424c0.001-0.001-3.807-2.264-3.755-2.346c0,0,8.831,1.247,8.938,1.075      c0.115-0.185-7.473-4.471-7.383-4.613l10.085,2.97c0,0-10.426-6.06-10.222-6.387c0,0,13.912,5.405,14.064,5.161      c0.203-0.324-13.098-7.816-12.933-8.081c0.078-0.125,16.927,6.797,17.049,6.601c0.158-0.253-15.376-9.608-15.376-9.608      c0.31-0.495,20.716,9.252,20.75,9.196c0.069-0.11-19.13-11.953-19.13-11.953s22.385,9.79,22.438,9.707      c0.038-0.061-21.646-13.277-21.534-13.456c0.348-0.557,26.782,12.943,27.069,12.484c0,0-26.344-16.129-26.194-16.368      c0.565-0.904,31.696,15.111,31.696,15.111l-29.51-18.44c0.568-0.909,32.867,17.5,33.329,16.761c0,0-16.919-10.499-16.887-10.552      l22.127,9.786c0.034-0.055-17.452-10.905-17.452-10.905s20.881,8.898,20.885,8.893c0.312-0.5-16.521-10.324-16.521-10.324      c0.181-0.29,21.078,10.088,21.289,9.75l-17.753-11.093l28.968,13.588c0.433-0.693-23.052-14.404-23.052-14.404      c0.726-1.161,36.615,18.69,36.615,18.69s-33.991-20.098-33.478-20.919l45.191,24.21c0.824-1.319-40.125-25.072-40.125-25.072      l46.704,25.538c0.82-1.313-42.339-26.456-42.339-26.456l51.991,27.602c0.2-0.319-45.022-28.133-45.022-28.133      c1.087-1.739,50.845,30.112,51.792,28.597c0.161-0.257-33.563-20.424-33.317-20.818c0,0,39.497,22.313,40.041,21.442      c0.266-0.426-29.879-17.339-29.281-18.296c0.351-0.562,33.736,18.806,34.367,17.797l-26.702-16.686      c0.1-0.16,32.883,15.728,32.939,15.637c0.364-0.583-24.095-15.057-24.095-15.057c0.5-0.799,29.889,14.205,29.889,14.205      l-21.114-13.194l28.083,12.476c0,0-20.711-12.686-20.596-12.869c0,0,24.346,12.379,24.805,11.644      c0.18-0.288-18.961-11.848-18.961-11.848s21.786,10.603,21.877,10.457c0,0-18.848-11.452-18.701-11.687l23.343,10.936      c0.288-0.461-19.056-11.645-18.938-11.834l23.037,10.671c0.14-0.226-18.222-11.367-18.213-11.381l20.995,9.797      c0.172-0.275-16.455-10.282-16.455-10.282c0.315-0.503,20.543,9.126,20.543,9.126l-16.957-10.596c0,0,21.216,8.654,21.358,8.427      c0.336-0.539-17.214-10.271-16.995-10.62c0.177-0.282,19.35,9.313,19.707,8.743c0.34-0.545-16.737-9.74-16.415-10.257      c0.39-0.623,19.534,8.53,19.625,8.385c0.257-0.41-15.547-9.715-15.547-9.715c0.182-0.29,19.553,8.288,19.696,8.059      c0.203-0.325-15.72-9.756-15.689-9.805c0.31-0.495,17.168,7.476,17.168,7.476s-14.443-8.906-14.39-8.991      c0.154-0.247,18.788,7.311,18.788,7.311c0.115-0.185-14.982-9.212-14.915-9.32c0.069-0.111,17.912,8.087,18.25,7.545      c0.026-0.041-16.857-10.135-16.678-10.422c0.118-0.19,19.057,7.874,19.263,7.544l-15.347-9.59      c0.144-0.229,18.444,7.771,18.699,7.363c0,0-16.493-10.216-16.452-10.281c0.249-0.398,17.815,7.598,18.042,7.235      c0.211-0.339-14.228-8.891-14.228-8.891l16.987,7.405c0,0-15.292-8.84-14.97-9.354l16.229,7.02l-15.168-9.478l18.941,6.671      c0.002-0.003-16.166-9.852-16.054-10.031c0,0,16.759,7.417,16.848,7.275c0.264-0.422-15.24-9.523-15.24-9.523      c0.318-0.51,17.709,8.237,18.063,7.671c0,0-15.004-9.331-14.983-9.363c0.214-0.342,14.937,6.273,15.014,6.148l-13.8-8.623      c0.225-0.359,17.578,6.524,17.578,6.524s-15.731-9.71-15.678-9.796c0.104-0.168,15.304,6.913,15.547,6.525      c0.201-0.322-14.027-8.766-14.027-8.766s16.454,7.228,16.667,6.888c0.289-0.464-14.794-8.837-14.611-9.13      c0.302-0.483,15.756,6.047,15.756,6.047c0.032-0.051-15.58-9.735-15.58-9.735s17.315,8.018,17.606,7.552      c0.098-0.156-15.58-9.422-15.439-9.647c0.317-0.509,16.496,6.957,16.543,6.881c0.181-0.289-15.68-9.196-15.409-9.628      c0.219-0.35,15.813,6.131,15.813,6.131c0.009-0.014-15.415-8.865-15.07-9.417c0,0,17.118,6.484,17.375,6.074      c0.115-0.185-16.191-9.805-16.051-10.03c0,0,16.539,6.81,16.86,6.296c0.343-0.55-15.997-9.997-15.997-9.997      c0.18-0.287,15.863,7.193,16.021,6.938c0.018-0.027-15.268-9.54-15.268-9.54s16.555,6.579,16.816,6.16l-17.389-10.866      c0.351-0.562,18.019,7.484,18.019,7.484l-16.898-10.559l17.652,6.321c0.013-0.021-17.604-10.951-17.582-10.986      c0.199-0.318,17.723,6.353,17.723,6.353c0.035-0.057-18.148-11.138-18.058-11.284c0.339-0.542,18.497,7.662,18.682,7.367      c0,0-19.158-11.699-19.036-11.895c0.291-0.466,18.004,8.035,18.004,8.035c0.02-0.031-17.357-10.846-17.357-10.846l18.085,8.175      c0,0-19.855-12.093-19.714-12.318l19.878,7.567c0.012-0.019-21.137-12.212-20.689-12.928c0.225-0.359,18.919,8.078,18.919,8.078      c0.083-0.132-21.444-12.637-21.102-13.186l20.369,8.766l-21.138-13.208l21.8,10.377c0.029-0.046-24.832-15.517-24.832-15.517      c0.135-0.214,23.755,10.617,23.755,10.617c0.539-0.862-27.029-16.89-27.029-16.89s24.899,12.832,25.115,12.486      c0.342-0.547-29.726-18.381-29.639-18.521c0.054-0.086,27.946,13.154,27.946,13.154c0.775-1.241-36.601-21.847-36.141-22.583      l33.573,17.753c2.13-3.409-97.598-59.063-96.733-60.445c0,0,92.887,56.076,93.999,54.296l-86.546-54.08l82.515,47.491      c0.174-0.278-73.958-46.214-73.958-46.214c1.304-2.087,69.041,39.679,69.041,39.679c0.511-0.817-60.283-37.669-60.283-37.669      l52.245,28.917c0.918-1.469-40.916-25.567-40.916-25.567" style="fill:none;stroke:#231F20;stroke-width:2;stroke-linecap:round;stroke-linejoin:round;"/></g><g><path d="M117.675,374.772      l-61.54-38.454c0.601-0.963,37.577,18.319,37.577,18.319l-43.636-27.267c0,0,31.597,15.373,31.727,15.166      c0.305-0.488-36.478-22.794-36.478-22.794c0.015-0.024,29.472,15.712,29.942,14.96c0,0-32.05-19.888-31.987-19.988      c0,0,25.104,11.021,25.298,10.711c0.583-0.934-29.333-17.997-29.184-18.236c0.18-0.287,23.204,9.646,23.334,9.438      c0.291-0.464-27.149-16.608-26.989-16.864c0.068-0.109,24.782,11.379,24.782,11.379c0.384-0.613-25.821-15.447-25.513-15.941      l20.738,8.153c0,0-23.637-14.167-23.366-14.601c0,0,21.229,8.776,21.408,8.491l-22.883-14.299      c0.241-0.386,21.363,9.744,21.363,9.744l-22.762-14.224l21.123,9.233c0.311-0.498-22.182-13.236-21.901-13.686      c0,0,19.186,8.341,19.321,8.124c0.432-0.691-20.018-11.648-19.631-12.267c0.25-0.399,19.686,7.298,19.686,7.298      c0.403-0.644-21.856-12.845-21.491-13.429c0.346-0.554,19.404,7.529,19.586,7.238c0.079-0.126-19.967-12.477-19.967-12.477      c0.358-0.574,19.253,7.533,19.253,7.533s-19.582-12.078-19.511-12.191l17.884,6.017l-16.775-10.482      c0,0,17.631,6.335,17.751,6.143c0.021-0.033-18.194-10.981-18.021-11.26c0.271-0.433,16.535,5.972,16.535,5.972      c0.387-0.619-16.625-10.389-16.625-10.389c0.051-0.082,16.256,5.773,16.256,5.773l-15.812-9.88l17.283,7.034L26.601,231.62      l17.724,5.907c0.058-0.092-16.037-10.021-16.037-10.021c0.031-0.049,15.781,6.027,16.09,5.532l-16.275-10.17      c0.134-0.215,17.211,6.023,17.219,6.011c0.234-0.375-16.206-10.126-16.206-10.126s16.308,6.486,16.383,6.367      c0.127-0.204-15.561-9.723-15.561-9.723c0.314-0.503,16.174,6.381,16.323,6.142l-16.139-10.085l16.045,6.809      c0,0-14.647-8.755-14.468-9.041c0.189-0.303,15.551,5.977,15.551,5.977s-14.819-8.864-14.641-9.149      c0.043-0.069,15.842,6.068,16.125,5.614c0.317-0.507-14.684-9.176-14.684-9.176l14.362,5.9c0.286-0.458-14.484-9.05-14.484-9.05      s15.583,5.254,15.715,5.043c0.033-0.053-15.049-9.404-15.049-9.404s16.362,5.664,16.484,5.467c0,0-15.231-9.141-15.062-9.412      c0.076-0.122,17.115,6.478,17.115,6.478s-14.411-8.97-14.395-8.995c0.004-0.007,15.646,5.408,15.646,5.408      c0.021-0.034-15.056-9.408-15.056-9.408c0.17-0.273,15.434,6.071,15.612,5.786l-14.579-9.11l15.801,6.272      c0.15-0.241-14.366-8.968-14.362-8.975c0.007-0.011,15.363,6.076,15.483,5.883c0.076-0.121-13.348-7.967-13.18-8.236      c0.054-0.086,15.257,6.401,15.373,6.217l-14.572-9.106c0.036-0.058,14.486,5.985,14.486,5.985l-13.557-8.471      c0.045-0.072,14.803,6.069,15.056,5.664l-13.752-8.593c0,0,15.549,5.75,15.854,5.261c0.193-0.308-12.911-8.067-12.911-8.067      c0.015-0.023,13.94,5.398,13.94,5.398l-13.775-8.607c0.223-0.356,15.602,6.907,15.809,6.577c0,0-13.312-8.103-13.215-8.258      c0,0,13.786,5.127,13.903,4.94c0,0-13.237-8.083-13.152-8.218c0,0,16.414,6.316,16.634,5.964      c0.1-0.161-14.342-8.939-14.332-8.955c0.264-0.423,15.036,4.549,15.084,4.473L58.911,150.8      c0.078-0.124,15.035,5.366,15.119,5.231c0.197-0.315-13.556-7.868-13.285-8.301c0.221-0.353,14.964,4.576,15.055,4.432      l-13.538-8.459c0.146-0.233,16.168,5.155,16.168,5.155c0.225-0.361-12.336-7.709-12.336-7.709      c0.002-0.003,14.468,5.789,14.468,5.789l-12.606-7.877c0.16-0.256,14.274,4.313,14.507,3.94c0.231-0.37-13.296-8.279-13.283-8.3      c0.021-0.034,16.037,6.392,16.114,6.268c0,0-14.152-8.539-14.015-8.758l17.18,5.577c0.075-0.121-12.834-8.02-12.834-8.02      c0.088-0.142,13.818,5.233,13.818,5.233s-12.192-7.559-12.165-7.602c0.088-0.141,14.935,5.339,14.935,5.339      s-13.142-7.772-12.944-8.088c0,0,15.405,6.599,15.705,6.117c0.157-0.251-13.088-7.891-12.959-8.098      c0.003-0.006,14.348,5.283,14.348,5.283c0.067-0.108-12.197-7.622-12.197-7.622s15.096,4.778,15.233,4.559l-11.88-7.423      c0,0,14.541,4.369,14.635,4.218c0.041-0.065-12.904-8.064-12.904-8.064s16.307,6.936,16.436,6.729      c0.275-0.44-13.539-8.46-13.539-8.46c0.071-0.114,16.677,6.006,16.729,5.923l-14.126-8.827l14.875,6.215l-12.995-8.12      c0.019-0.03,16.537,6.494,16.659,6.299c0,0-12.936-7.725-12.774-7.982c0,0,16.072,5.966,16.233,5.709      c0.197-0.315-13.894-8.682-13.894-8.682s14.813,6.078,15.102,5.617c0,0-12.346-7.472-12.237-7.646l15.441,5.634      c0,0-12.313-7.501-12.227-7.64c0.25-0.399,15.328,5.991,15.328,5.991s-12.886-7.569-12.669-7.917      c0.278-0.446,14.896,5.31,14.896,5.31l-12.591-7.868l16.696,6.183c0.032-0.052-13.146-8.214-13.146-8.214      c0.113-0.182,16.403,6.029,16.433,5.981l-13.713-8.569c0.19-0.304,16.788,7.023,16.854,6.917      c0.128-0.206-13.754-8.3-13.622-8.512c0.086-0.137,15.309,6.152,15.336,6.108c0.261-0.417-13.33-8.329-13.33-8.329l16.538,7.067      c0.12-0.191-13.695-8.558-13.695-8.558c0.142-0.228,17.213,5.795,17.213,5.795c0.08-0.127-13.635-8.52-13.635-8.52      c0.115-0.184,16.55,6.776,16.709,6.521c0.035-0.055-13.479-8.422-13.479-8.422c0.125-0.2,17.796,6.652,18.085,6.189      c0.162-0.26-12.986-8.114-12.986-8.114c0.308-0.493,15.939,6.144,15.939,6.144l-12.928-8.078c0,0,16.246,6.769,16.541,6.297      c0.323-0.517-13.446-7.883-13.213-8.256c0.334-0.534,17.427,6.383,17.583,6.132l-12.99-8.117c0,0,17.591,7.109,17.595,7.103      c0.32-0.513-14.76-9.223-14.76-9.223c0.365-0.584,19.013,7.653,19.013,7.653c0.247-0.395-14.875-8.836-14.669-9.166      c0,0,18.103,7.681,18.469,7.094c0,0-14.979-8.78-14.718-9.197c0,0,19.079,7.177,19.131,7.094      c0.129-0.207-14.692-9.181-14.692-9.181l19.46,7.98c0,0-15.845-9.423-15.63-9.767c0,0,17.55,8.275,17.86,7.779      c0.088-0.141-14.853-8.807-14.64-9.148l19.911,8.431c0.185-0.295-15.329-9.579-15.329-9.579      c0.083-0.132,19.604,8.689,19.957,8.125c0,0-16.193-9.745-16.025-10.014l19.27,8.257l-15.188-9.491l18.946,8.646      c0,0-16.919-10.33-16.81-10.504c0.337-0.54,22.679,9.316,22.679,9.316l-16.467-10.29l21.5,9.577l-17.905-11.188l21.888,10.082      c0,0-18.156-10.582-17.813-11.131c0,0,22.345,9.913,22.421,9.79c0,0-18.68-11.291-18.509-11.565      c0,0,22.738,10.599,23.096,10.026c0.33-0.528-16.521-10.324-16.521-10.324s23.015,10.822,23.474,10.088      c0,0-19.843-11.687-19.522-12.199c0,0,25.241,11.62,25.356,11.437c0,0-19.999-12.245-19.885-12.426      c0,0,24.62,12.011,24.911,11.545l-18.869-11.791c0.104-0.167,22.984,12.046,23.417,11.354c0,0-19.898-12.314-19.844-12.4      c0,0,24.587,13.029,24.994,12.378c0,0-21.107-12.948-20.999-13.122c0.059-0.093,26.707,12.847,27.011,12.362      c0.353-0.564-20.954-12.512-20.693-12.93c0.381-0.61,29.248,13.578,29.248,13.578s-23.315-13.467-22.82-14.259      c0,0,30.007,14.069,30.148,13.844c0.061-0.097-23.53-14.455-23.418-14.633l32.11,15.717c0,0-25.561-15.546-25.369-15.853      c0,0,31.847,16.533,32.242,15.899c0,0-25.978-16.211-25.968-16.227c0.518-0.829,32.913,17.415,32.913,17.415      c0.594-0.95-28.424-17.761-28.424-17.761c0.634-1.015,37.151,19.894,37.729,18.968c0.407-0.651-29.023-18.108-29.011-18.128      c0.779-1.247,38.381,21.887,39.062,20.798c0.009-0.014-33.858-20.822-33.708-21.063c0.459-0.735,42.817,23.296,42.817,23.296      c0.412-0.659-37.547-22.201-36.98-23.108l50.08,26.84l-41.171-25.726c1.137-1.819,68.181,38.181,68.262,38.05l-58.173-36.351" style="fill:none;stroke:#262626;stroke-width:2;stroke-linecap:round;stroke-linejoin:round;"/><path d="M133.705,402.954      l-26.403-16.498L165.4,418.05c0.023-0.036-84.097-50.237-83.057-51.9c0,0,99.877,61.004,101.271,58.772      c1.696-2.715-114.044-68.329-112.726-70.439l122.391,73.146c0,0-132.495-77.037-129.909-81.176      c0,0,138.511,86.622,140.173,83.963c2.262-3.619-147.625-88.157-145.787-91.098c0.778-1.245,154.861,95.433,156.083,93.478      c0.521-0.834-52.829-33.011-52.829-33.011c0.99-1.584,63.008,35.846,63.117,35.67c0.16-0.256-44.552-27.839-44.552-27.839      s52.51,28.783,52.638,28.578c0.065-0.104-38.143-23.405-37.95-23.714c0.633-1.013,47.35,26.318,47.872,25.483      c0,0-35.568-21.776-35.366-22.099c0.813-1.301,44.773,23.281,44.773,23.281l-31.964-19.974      c0.667-1.066,38.278,21.059,38.819,20.191c0,0-29.833-18.516-29.777-18.606l37.707,19.521      c0.058-0.091-28.92-18.071-28.92-18.071s34.704,17.543,34.711,17.531c0.49-0.784-26.514-16.567-26.514-16.567      c0.289-0.462,32.842,17.718,33.179,17.18l-26.739-16.708l33.434,16.379c0.456-0.729-24.299-15.184-24.299-15.184      c0.592-0.946,30.129,14.638,30.129,14.638s-24.67-14.585-24.297-15.183l31.374,15.576c0.493-0.788-24.193-15.117-24.193-15.117      l28.015,13.859c0.435-0.694-21.834-13.643-21.834-13.643L309.043,438c0.098-0.156-21.576-13.482-21.576-13.482      c0.546-0.874,26.265,13.703,26.74,12.942c0.104-0.165-21.385-13.01-21.227-13.264c0,0,26.296,13.646,26.651,13.076      c0.192-0.308-21.475-12.459-21.043-13.149c0.253-0.405,24.731,12.788,25.186,12.061l-20.832-13.018      c0.078-0.125,26.038,11.423,26.083,11.352c0.307-0.491-20.311-12.691-20.311-12.691c0.419-0.67,25.331,11.356,25.331,11.356      l-18.488-11.553l25.067,10.592c0,0-19.206-11.765-19.1-11.935c0,0,22.576,11.194,23,10.516c0.172-0.275-18.083-11.3-18.083-11.3      s20.824,9.993,20.911,9.854c0,0-18.31-11.125-18.168-11.353l22.708,10.538c0.284-0.456-18.829-11.507-18.713-11.693      l22.798,10.521c0.142-0.227-18.291-11.41-18.282-11.424l21.102,9.863c0.175-0.28-16.729-10.453-16.729-10.453      c0.322-0.516,20.977,9.396,20.977,9.396l-17.409-10.879c0,0,21.827,9.047,21.975,8.812c0.348-0.558-17.82-10.632-17.595-10.994      c0.186-0.296,20.255,9.919,20.629,9.319c0.356-0.569-17.513-10.192-17.175-10.732c0.409-0.654,20.45,9.113,20.545,8.961      c0.269-0.429-16.311-10.192-16.311-10.192c0.193-0.31,20.741,9.052,20.894,8.807c0.215-0.343-16.612-10.31-16.581-10.361      c0.334-0.533,18.392,8.239,18.392,8.239s-15.361-9.473-15.305-9.563c0.166-0.266,20.153,8.165,20.153,8.165      c0.122-0.195-15.942-9.804-15.871-9.918c0.075-0.121,19.277,9.001,19.644,8.415c0.027-0.044-17.742-10.666-17.553-10.969      c0.129-0.206,20.559,8.852,20.782,8.493l-16.333-10.206c0.155-0.25,19.946,8.76,20.224,8.316c0,0-17.361-10.753-17.318-10.821      c0.272-0.437,19.313,8.578,19.561,8.183c0.224-0.357-15.109-9.441-15.109-9.441l18.425,8.304c0,0-16.202-9.366-15.861-9.911      l17.546,7.843l-15.904-9.938l20.674,7.754c0.002-0.004-16.866-10.278-16.749-10.466c0,0,18.075,8.256,18.172,8.103      c0.275-0.44-15.923-9.949-15.923-9.949c0.345-0.551,19.051,9.139,19.434,8.526c0,0-15.545-9.667-15.523-9.7      c0.232-0.373,16.15,7.047,16.235,6.911l-14.23-8.893c0.244-0.39,18.993,7.409,18.993,7.409s-16.109-9.942-16.054-10.031      c0.113-0.181,16.417,7.651,16.678,7.232c0.205-0.328-14.297-8.934-14.297-8.934s17.505,7.917,17.731,7.553      c0.292-0.466-14.896-8.897-14.712-9.192c0.324-0.519,16.834,6.721,16.834,6.721c0.032-0.052-15.569-9.729-15.569-9.729      s18.258,8.643,18.564,8.15c0.098-0.156-15.549-9.404-15.408-9.629c0.334-0.535,17.302,7.466,17.352,7.387      c0.176-0.281-15.269-8.955-15.005-9.376c0.229-0.366,16.527,6.578,16.527,6.578c0.009-0.014-14.948-8.596-14.613-9.132      c0,0,18.116,7.145,18.39,6.707c0.11-0.176-15.449-9.354-15.314-9.569c0,0,17.121,7.201,17.454,6.667      c0.321-0.514-14.968-9.354-14.968-9.354c0.179-0.287,15.85,7.185,16.009,6.931c0.016-0.024-14.018-8.759-14.018-8.759      s16.819,6.754,17.086,6.328l-15.864-9.914c0.349-0.558,17.923,7.425,17.923,7.425l-14.992-9.367l17.472,6.208      c0.011-0.018-15.251-9.486-15.231-9.518c0.194-0.313,17.42,6.164,17.42,6.164c0.03-0.047-15.341-9.414-15.264-9.538      c0.319-0.512,17.529,7.035,17.703,6.756c0,0-15.585-9.519-15.485-9.677c0.256-0.411,16.028,6.802,16.028,6.802      c0.017-0.025-13.467-8.416-13.467-8.416l15.749,6.716c0,0-15.368-9.359-15.259-9.535l18.018,6.406      c0.009-0.015-15.495-8.953-15.167-9.478c0.18-0.288,15.406,5.884,15.406,5.884c0.058-0.093-14.761-8.691-14.521-9.074      l16.248,6.189l-13.304-8.313l16.094,6.812c0.019-0.028-15.59-9.741-15.59-9.741c0.097-0.155,17.532,6.729,17.532,6.729      c0.306-0.489-15.373-9.607-15.373-9.607s15.871,7.008,16.005,6.794c0.177-0.283-15.408-9.528-15.363-9.601      c0.032-0.053,17.44,6.589,17.44,6.589c0.331-0.53-15.878-9.483-15.681-9.799l16.251,6.93c0.333-0.534-14.588-8.813-14.452-9.03      c0,0,16.437,6.233,16.617,5.944l-15.638-9.771l17.179,6.664c0.036-0.059-15.521-9.699-15.521-9.699      c0.293-0.469,16.514,6.857,16.514,6.857c0.13-0.207-14.816-9.259-14.816-9.259l15.609,6.023      c0.338-0.54-14.314-8.944-14.314-8.944c0.16-0.258,15.745,6.03,15.745,6.03c0.07-0.112-14.395-8.994-14.395-8.994l15.947,5.452      c0,0-15.628-9.02-15.293-9.556c0,0,16.507,7.485,16.682,7.206c0.069-0.111-15.308-9.528-15.291-9.555      c0.217-0.347,14.842,5.569,14.842,5.569l-14.363-8.976l16.406,5.425c0.287-0.459-16.13-9.827-16.017-10.009      c0.341-0.545,17.079,7.541,17.319,7.155c0.104-0.165-16.352-10.213-16.35-10.217l16.394,5.572l-14.517-9.07l16,5.672      l-15.104-9.438l15.436,5.506c0,0-16.205-9.729-16.026-10.015c0.042-0.066,16.697,6.884,16.959,6.466      c0.224-0.358-16.312-9.765-16.119-10.072c0,0,17.396,6.975,17.579,6.681c0.287-0.459-15.701-9.812-15.701-9.812      c0.254-0.407,15.417,5.167,15.417,5.167s-15.98-9.481-15.754-9.845l17.558,6.138c0,0-16.72-9.789-16.425-10.263      c0,0,16.499,6.84,16.822,6.323c0.254-0.406-16.548-10.34-16.548-10.34s16.042,7.078,16.196,6.832      c0.088-0.142-16.459-10.014-16.337-10.209c0.302-0.483,16.602,6.85,16.794,6.541c0.216-0.344-17.183-10.737-17.183-10.737      l18.229,6.388l-17.582-10.987c0.126-0.201,17.858,7.814,18.121,7.393c0.225-0.359-18.275-11.153-18.155-11.345      c0.087-0.139,17.761,7.077,18.035,6.639l-17.186-10.739c0.039-0.063,15.904,6.147,16.125,5.794l-18.027-11.265      c0.009-0.014,18.33,6.911,18.33,6.911c0.177-0.283-17.45-10.904-17.45-10.904c0.131-0.21,17.791,7.24,17.791,7.24      c0.38-0.608-19.067-11.914-19.067-11.914s19.11,8.734,19.241,8.525c0.304-0.487-19.946-11.929-19.706-12.313l19.257,8.028      c0.422-0.674-20.069-11.922-19.791-12.367c0,0,18.334,8.556,18.457,8.358c0.375-0.601-18.725-11.701-18.725-11.701      s18.715,9.264,19.1,8.647c0.095-0.152-19.592-12.199-19.572-12.23l18.249,6.624c0.098-0.155-18.986-11.539-18.841-11.772      c0.203-0.324,19.208,8.066,19.208,8.066c0.279-0.447-21.721-13.573-21.721-13.573c0.049-0.078,19.89,8.774,20.101,8.438      c0.044-0.071-20.575-12.107-20.238-12.646c0,0,18.594,7.962,18.918,7.443c0,0-21.613-12.709-21.256-13.282      c0.185-0.295,20.764,10.076,20.896,9.864c0.142-0.227-21.799-13.621-21.799-13.621l20.092,8.094l-23.054-14.406l21.119,8.293      c0.113-0.181-24.335-14.615-24.069-15.041l22.475,9.881l-24.223-15.136c0.385-0.616,23.053,10.888,23.519,10.143      c0.332-0.532-27.108-16.938-27.108-16.938l24.682,11.602L443.767,151.6c0.421-0.672,25.713,11.569,25.713,11.569      c0.224-0.358-29.479-18.28-29.415-18.381c0.464-0.742,26.839,13.297,26.839,13.297s-32.236-19.571-31.979-19.983      c0.525-0.841,28.972,14.745,29.441,13.994c0,0-35.73-22.18-35.664-22.286c0.099-0.157,31.506,14.626,31.506,14.626      s-39.864-23.573-39.264-24.535l34.537,17.42c0,0-47.661-27.997-46.859-29.28l41.642,21.764l-135.66-84.77      c0,0,128.46,79.489,130.254,76.619L325.291,46.942c2.072-3.316,111.055,64.95,111.055,64.95s-100.213-58.764-98.48-61.538      c1.404-2.247,91.527,53.816,91.586,53.724l-81.686-51.042l70.089,40.304l-55.479-34.668" style="fill:none;stroke:#262626;stroke-width:2;stroke-linecap:round;stroke-linejoin:round;"/><path d="M247.198,248.828      l-44.641-27.895c0.5-0.8,31.581,14.573,31.581,14.573l-32.007-20c0,0,28.831,13.617,28.948,13.43      c0.242-0.387-28.792-17.991-28.792-17.991c0.017-0.026,30.405,16.329,30.892,15.552c0,0-29.091-18.05-29.033-18.142      c0,0,31.932,15.414,32.182,15.013c0.612-0.979-30.838-18.922-30.682-19.172c0.259-0.414,32.653,15.678,32.84,15.378      c0.332-0.531-31.157-19.063-30.974-19.355c0.093-0.149,33.394,16.76,33.394,16.76c0.444-0.71-30.003-17.952-29.645-18.524      l24.938,10.779c0,0-22.654-13.577-22.394-13.993c0,0,19.619,7.736,19.782,7.476l-14.391-8.993      c0.13-0.208,12.032,3.913,12.032,3.913l-6.685-4.177" style="fill:none;stroke:#262626;stroke-width:2;stroke-linecap:round;stroke-linejoin:round;"/><path d="M251.748,273.203      l-16.089-10.054l36.91,18.354c0.015-0.023-53.461-31.932-52.798-32.992c0,0,65.048,38.137,65.947,36.699      c1.116-1.785-74.895-44.871-74.028-46.258l78.991,46.026c0,0-86.038-50.024-84.358-52.712c0,0,88.135,53.783,89.185,52.102      c1.427-2.282-93.026-55.551-91.867-57.405c0.476-0.762,95.52,57.299,96.268,56.102c0.955-1.53-97.686-61.041-97.686-61.041      c1.625-2.601,102.446,60.646,102.626,60.358c0.114-0.183-31.812-19.879-31.812-19.879s34.066,17.155,34.148,17.025      c0.052-0.084-30.561-18.75-30.405-18.999c0.446-0.715,33.924,17.586,34.292,16.997c0,0-32.105-19.656-31.924-19.948      c0.623-0.997,34.771,17.032,34.771,17.032l-31.089-19.426c0.54-0.864,31.31,16.475,31.748,15.773c0,0-29.936-18.58-29.879-18.67      l31.522,15.657c0.056-0.09-28.457-17.782-28.457-17.782s27.57,13.082,27.576,13.073c0.205-0.328-10.508-6.565-10.508-6.565" style="fill:none;stroke:#262626;stroke-width:2;stroke-linecap:round;stroke-linejoin:round;"/><path d="M169.548,316.927      l-14.559-9.098c0.252-0.403,16.721,5.287,16.721,5.287l-15.317-9.571c0,0,15.748,5.318,15.809,5.221      c0.126-0.202-14.844-9.276-14.844-9.276c0.008-0.013,15.573,6.511,15.812,6.129c0,0-13.851-8.59-13.822-8.637      c0,0,15.213,4.66,15.326,4.48c0.295-0.472-14.351-8.8-14.275-8.92c0.113-0.182,15.197,4.537,15.279,4.405      c0.198-0.317-18.289-11.186-18.18-11.36c0.056-0.09,20.741,8.854,20.741,8.854c0.357-0.57-24.003-14.357-23.716-14.818      l23.707,10.009c0,0-28.379-17.015-28.056-17.531c0,0,28.488,13.459,28.732,13.068l-31.185-19.486      c0.299-0.479,26.18,12.754,26.18,12.754l-28.024-17.512l23.975,11.016c0.356-0.571-25.427-15.172-25.105-15.688      c0,0,21.065,9.547,21.214,9.308c0.472-0.756-22.01-12.814-21.588-13.49c0.262-0.418,20.563,7.847,20.563,7.847      c0.418-0.67-22.691-13.334-22.311-13.941c0.353-0.564,19.747,7.752,19.933,7.455c0.08-0.127-20.155-12.594-20.155-12.594      c0.362-0.58,19.422,7.639,19.422,7.639s-19.3-11.904-19.23-12.016l17.703,5.904l-16.09-10.054c0,0,17.301,6.122,17.418,5.935      c0.02-0.031-17.361-10.479-17.194-10.744c0.262-0.419,16.085,5.691,16.085,5.691c0.365-0.584-15.656-9.783-15.656-9.783      c0.05-0.08,15.917,5.562,15.917,5.562l-14.855-9.283l16.75,6.701l-16.798-10.496l17.528,5.784      c0.054-0.085-14.965-9.351-14.965-9.351c0.03-0.048,15.496,5.835,15.799,5.35l-15.292-9.556      c0.133-0.213,17.08,5.941,17.087,5.929c0.219-0.35-15.115-9.445-15.115-9.445s16.084,6.344,16.157,6.227      c0.121-0.193-14.688-9.178-14.688-9.178c0.313-0.501,16.081,6.321,16.229,6.083l-15.142-9.462l15.762,6.632      c0,0-13.718-8.198-13.55-8.467c0.19-0.304,15.583,5.997,15.583,5.997s-14.078-8.419-13.908-8.691      c0.044-0.071,16.099,6.24,16.387,5.778c0.3-0.48-13.88-8.673-13.88-8.673l14.359,5.898c0.274-0.439-13.861-8.661-13.861-8.661      s16.221,5.666,16.359,5.445c0.032-0.051-14.507-9.065-14.507-9.065s17.115,6.148,17.244,5.942c0,0-14.819-8.894-14.654-9.157      c0.08-0.128,17.94,6.994,17.94,6.994s-14.122-8.791-14.107-8.815c0.005-0.008,16.669,6.047,16.669,6.047      c0.021-0.033-14.925-9.326-14.925-9.326c0.184-0.294,16.494,6.763,16.686,6.457l-14.53-9.079l16.976,7.005      c0.152-0.243-14.544-9.079-14.54-9.085c0.007-0.012,16.756,6.974,16.888,6.761c0.078-0.124-13.636-8.141-13.465-8.414      c0.06-0.096,16.733,7.349,16.86,7.146l-14.934-9.332c0.041-0.064,15.938,6.891,15.938,6.891l-14.12-8.823      c0.052-0.083,16.806,7.404,17.096,6.939l-14.586-9.114c0,0,18.069,7.446,18.429,6.87c0.206-0.33-13.875-8.67-13.875-8.67      c0.017-0.027,16.288,6.866,16.288,6.866l-14.974-9.357c0.263-0.421,18.222,8.627,18.465,8.237c0,0-14.774-8.993-14.667-9.165      c0,0,16.837,7.097,16.982,6.864c0,0-14.958-9.134-14.862-9.287c0,0,20.158,8.777,20.432,8.338      c0.115-0.184-16.309-10.164-16.297-10.183c0.352-0.563,19.54,7.4,19.604,7.297l-14.625-9.139      c0.104-0.167,19.738,8.369,19.851,8.188c0.238-0.382-16.451-9.55-16.123-10.075c0.314-0.502,20.7,8.244,20.828,8.039      l-17.024-10.638c0.212-0.338,22.812,9.306,22.812,9.306c0.295-0.472-16.513-10.318-16.513-10.318      c0.003-0.005,20.792,9.741,20.792,9.741l-17.32-10.823c0.265-0.424,22.677,9.902,23.062,9.286      c0.327-0.523-18.894-11.764-18.875-11.794c0.034-0.054,24.722,11.922,24.846,11.724c0,0-20.75-12.513-20.546-12.839      l28.365,12.566c0.12-0.192-20.74-12.959-20.74-12.959c0.169-0.271,25.333,12.428,25.333,12.428s-21.335-13.231-21.29-13.303      c0.179-0.287,28.949,14.096,28.949,14.096s-24.373-14.427-24.012-15.004c0,0,31.465,17.397,32.109,16.368      c0.314-0.503-26.651-16.078-26.392-16.492c0.009-0.014,34.661,17.977,34.661,17.977c0.154-0.248-29.413-18.379-29.413-18.379      S305.54,164.943,306,164.207l-39.564-24.723" style="fill:none;stroke:#262626;stroke-width:2;stroke-linecap:round;stroke-linejoin:round;"/><path d="M142.294,341.51      l-0.037-0.022l5.26-1.424c0.001-0.001-3.807-2.264-3.755-2.346c0,0,8.831,1.247,8.938,1.075      c0.115-0.185-7.473-4.471-7.383-4.613l10.085,2.97c0,0-10.426-6.06-10.222-6.387c0,0,13.912,5.405,14.064,5.161      c0.203-0.324-13.098-7.816-12.933-8.081c0.078-0.125,16.927,6.797,17.049,6.601c0.158-0.253-15.376-9.608-15.376-9.608      c0.31-0.495,20.716,9.252,20.75,9.196c0.069-0.11-19.13-11.953-19.13-11.953s22.385,9.79,22.438,9.707      c0.038-0.061-21.646-13.277-21.534-13.456c0.348-0.557,26.782,12.943,27.069,12.484c0,0-26.344-16.129-26.194-16.368      c0.565-0.904,31.696,15.111,31.696,15.111l-29.51-18.44c0.568-0.909,32.867,17.5,33.329,16.761c0,0-16.919-10.499-16.887-10.552      l22.127,9.786c0.034-0.055-17.452-10.905-17.452-10.905s20.881,8.898,20.885,8.893c0.312-0.5-16.521-10.324-16.521-10.324      c0.181-0.29,21.078,10.088,21.289,9.75l-17.753-11.093l28.968,13.588c0.433-0.693-23.052-14.404-23.052-14.404      c0.726-1.161,36.615,18.69,36.615,18.69s-33.991-20.098-33.478-20.919l45.191,24.21c0.824-1.319-40.125-25.072-40.125-25.072      l46.704,25.538c0.82-1.313-42.339-26.456-42.339-26.456l51.991,27.602c0.2-0.319-45.022-28.133-45.022-28.133      c1.087-1.739,50.845,30.112,51.792,28.597c0.161-0.257-33.563-20.424-33.317-20.818c0,0,39.497,22.313,40.041,21.442      c0.266-0.426-29.879-17.339-29.281-18.296c0.351-0.562,33.736,18.806,34.367,17.797l-26.702-16.686      c0.1-0.16,32.883,15.728,32.939,15.637c0.364-0.583-24.095-15.057-24.095-15.057c0.5-0.799,29.889,14.205,29.889,14.205      l-21.114-13.194l28.083,12.476c0,0-20.711-12.686-20.596-12.869c0,0,24.346,12.379,24.805,11.644      c0.18-0.288-18.961-11.848-18.961-11.848s21.786,10.603,21.877,10.457c0,0-18.848-11.452-18.701-11.687l23.343,10.936      c0.288-0.461-19.056-11.645-18.938-11.834l23.037,10.671c0.14-0.226-18.222-11.367-18.213-11.381l20.995,9.797      c0.172-0.275-16.455-10.282-16.455-10.282c0.315-0.503,20.543,9.126,20.543,9.126l-16.957-10.596c0,0,21.216,8.654,21.358,8.427      c0.336-0.539-17.214-10.271-16.995-10.62c0.177-0.282,19.35,9.313,19.707,8.743c0.34-0.545-16.737-9.74-16.415-10.257      c0.39-0.623,19.534,8.53,19.625,8.385c0.257-0.41-15.547-9.715-15.547-9.715c0.182-0.29,19.553,8.288,19.696,8.059      c0.203-0.325-15.72-9.756-15.689-9.805c0.31-0.495,17.168,7.476,17.168,7.476s-14.443-8.906-14.39-8.991      c0.154-0.247,18.788,7.311,18.788,7.311c0.115-0.185-14.982-9.212-14.915-9.32c0.069-0.111,17.912,8.087,18.25,7.545      c0.026-0.041-16.857-10.135-16.678-10.422c0.118-0.19,19.057,7.874,19.263,7.544l-15.347-9.59      c0.144-0.229,18.444,7.771,18.699,7.363c0,0-16.493-10.216-16.452-10.281c0.249-0.398,17.815,7.598,18.042,7.235      c0.211-0.339-14.228-8.891-14.228-8.891l16.987,7.405c0,0-15.292-8.84-14.97-9.354l16.229,7.02l-15.168-9.478l18.941,6.671      c0.002-0.003-16.166-9.852-16.054-10.031c0,0,16.759,7.417,16.848,7.275c0.264-0.422-15.24-9.523-15.24-9.523      c0.318-0.51,17.709,8.237,18.063,7.671c0,0-15.004-9.331-14.983-9.363c0.214-0.342,14.937,6.273,15.014,6.148l-13.8-8.623      c0.225-0.359,17.578,6.524,17.578,6.524s-15.731-9.71-15.678-9.796c0.104-0.168,15.304,6.913,15.547,6.525      c0.201-0.322-14.027-8.766-14.027-8.766s16.454,7.228,16.667,6.888c0.289-0.464-14.794-8.837-14.611-9.13      c0.302-0.483,15.756,6.047,15.756,6.047c0.032-0.051-15.58-9.735-15.58-9.735s17.315,8.018,17.606,7.552      c0.098-0.156-15.58-9.422-15.439-9.647c0.317-0.509,16.496,6.957,16.543,6.881c0.181-0.289-15.68-9.196-15.409-9.628      c0.219-0.35,15.813,6.131,15.813,6.131c0.009-0.014-15.415-8.865-15.07-9.417c0,0,17.118,6.484,17.375,6.074      c0.115-0.185-16.191-9.805-16.051-10.03c0,0,16.539,6.81,16.86,6.296c0.343-0.55-15.997-9.997-15.997-9.997      c0.18-0.287,15.863,7.193,16.021,6.938c0.018-0.027-15.268-9.54-15.268-9.54s16.555,6.579,16.816,6.16l-17.389-10.866      c0.351-0.562,18.019,7.484,18.019,7.484l-16.898-10.559l17.652,6.321c0.013-0.021-17.604-10.951-17.582-10.986      c0.199-0.318,17.723,6.353,17.723,6.353c0.035-0.057-18.148-11.138-18.058-11.284c0.339-0.542,18.497,7.662,18.682,7.367      c0,0-19.158-11.699-19.036-11.895c0.291-0.466,18.004,8.035,18.004,8.035c0.02-0.031-17.357-10.846-17.357-10.846l18.085,8.175      c0,0-19.855-12.093-19.714-12.318l19.878,7.567c0.012-0.019-21.137-12.212-20.689-12.928c0.225-0.359,18.919,8.078,18.919,8.078      c0.083-0.132-21.444-12.637-21.102-13.186l20.369,8.766l-21.138-13.208l21.8,10.377c0.029-0.046-24.832-15.517-24.832-15.517      c0.135-0.214,23.755,10.617,23.755,10.617c0.539-0.862-27.029-16.89-27.029-16.89s24.899,12.832,25.115,12.486      c0.342-0.547-29.726-18.381-29.639-18.521c0.054-0.086,27.946,13.154,27.946,13.154c0.775-1.241-36.601-21.847-36.141-22.583      l33.573,17.753c2.13-3.409-97.598-59.063-96.733-60.445c0,0,92.887,56.076,93.999,54.296l-86.546-54.08l82.515,47.491      c0.174-0.278-73.958-46.214-73.958-46.214c1.304-2.087,69.041,39.679,69.041,39.679c0.511-0.817-60.283-37.669-60.283-37.669      l52.245,28.917c0.918-1.469-40.916-25.567-40.916-25.567" style="fill:none;stroke:#262626;stroke-width:2;stroke-linecap:round;stroke-linejoin:round;"/></g></g></g></g><g id="Layer_1"/></svg>