<?xml version="1.0" ?><!DOCTYPE svg  PUBLIC '-//W3C//DTD SVG 1.1//EN'  'http://www.w3.org/Graphics/SVG/1.1/DTD/svg11.dtd'><svg height="512px" style="enable-background:new 0 0 512 512;" version="1.1" viewBox="0 0 512 512" width="512px" xml:space="preserve" xmlns="http://www.w3.org/2000/svg" xmlns:xlink="http://www.w3.org/1999/xlink"><g id="apple_x2C__mac_x2C__iphone_x2C__apple"><g><g><path d="M431.023,34.501c-116.684-4.667-233.367-9.335-350.05-14.002     C47.779,19.11,21.39,45.471,22.402,79.002c3.398,117.816,6.797,235.631,10.195,353.447c1.013,33.53,27.402,59.955,58.571,58.645     c109.887-4.396,219.773-8.791,329.66-13.187c31.171-1.312,57.562-27.673,58.574-58.503     c3.398-108.753,6.797-217.506,10.195-326.259C490.61,62.313,464.22,35.89,431.023,34.501z M271.748,126.93     c11.042-12.591,29.717-21.609,45.098-21.78c1.811,17.696-5.524,35.281-16.194,47.882c-10.679,12.576-28.052,22.345-45.067,20.756     C253.304,156.174,261.877,138.12,271.748,126.93z M355.713,368.717c-12.538,18.497-25.432,37.078-45.427,37.967     c-19.655,0.896-25.932-11.34-48.482-10.817c-22.529,0.523-29.531,12.468-48.133,13.705c-19.291,1.302-34.17-19.382-46.806-37.982     c-21.783-32.042-40.111-87.704-29.707-132.887c1.924-8.244,4.791-16.109,8.787-23.4c12.828-23.558,36.379-38.079,62.075-38.079     c19.566-0.053,38.054,13.878,49.963,14.009c11.927,0.123,34.376-15.862,57.961-13.122c9.866,0.554,37.584,4.593,54.941,30.438     c-0.993,0.632-16.161,9.166-25.641,26.757c-4.378,8.124-7.548,18.172-7.54,30.209c-0.051,45.569,38.735,60.175,39.168,60.346     C376.5,326.918,370.246,347.347,355.713,368.717z" style="fill:none;"/><g><g><g><path d="M353.512,367.22c0.035,0.557,0.834,0.794,1.348-0.307l-0.645-1.451L353.512,367.22z" style="fill:#373737;"/><path d="M359.929,361.727c0.252-1.521,0.026-3.539-1.454-3.355c0.425,1.873-0.268,1.844,0.228,3.921        c-0.521,1.102-1.493,1.549-1.795,1.116c0.057,0.541-1.247,1.412-0.899,2.413c1.699-0.757,2.82-2.438,3.217-4.628        C359.713,360.969,359.775,361.513,359.929,361.727z" style="fill:#373737;"/><path d="M339.638,263.082l-0.182,0.739C339.55,263.62,339.605,263.366,339.638,263.082z" style="fill:#373737;"/><path d="M368.596,201.262c0.405,0.418,0.666,0.52,0.778,0.466        C368.952,201.373,368.599,201.09,368.596,201.262z" style="fill:#373737;"/><path d="M360.272,190.97c0.197,0.208,0.364,0.384,0.544,0.573        C360.666,191.257,360.477,191.011,360.272,190.97z" style="fill:#373737;"/><path d="M339.638,263.082l0.478-1.881C339.684,261.038,339.764,262.156,339.638,263.082z" style="fill:#373737;"/><path d="M364.908,345.994c-0.124,0.389-0.166,0.742-0.162,1.089c0.1-0.321,0.202-0.629,0.32-0.94        C365.01,346.095,364.961,346.054,364.908,345.994z" style="fill:#373737;"/><path d="M346.568,293.254l0.257,0.508c0.21,0.084,0.443,0.143,0.692,0.182L346.568,293.254z" style="fill:#373737;"/><path d="M360.867,311.928c-0.358-0.398-1.255,0.303-1.744,0.52c0.543-0.129,0.983-0.019,1.393,0.238        C360.664,312.532,360.78,312.294,360.867,311.928z" style="fill:#373737;"/><path d="M371.387,342.925l-0.151,0.705C371.268,343.443,371.355,343.144,371.387,342.925z" style="fill:#373737;"/><path d="M341.786,277.053c0.155-0.066,0.291-0.174,0.366-0.278        C342.014,276.797,341.89,276.903,341.786,277.053z" style="fill:#373737;"/><path d="M334.499,388.085c0.046,0.068,0.102,0.084,0.147,0.136        C334.658,388.047,334.629,387.963,334.499,388.085z" style="fill:#373737;"/><path d="M355.953,368.88l-0.175,0.365c0.152,0.154,0.3,0.309,0.472,0.426L355.953,368.88z" style="fill:#373737;"/><path d="M339.758,177.647c0.041,0.026,0.056,0.035,0.095,0.06        C340.504,177.82,340.152,177.709,339.758,177.647z" style="fill:#373737;"/><path d="M142.06,212.729c0.519-0.388,0.725-0.331,0.786-0.068c0.03,0.132,0.024,0.315,0.003,0.52        l-0.019,0.158l-0.011,0.081l-0.005,0.041l0,0.001c-0.023,0.042,0.052-0.092-0.053,0.094v0.003l0,0.005l-0.001,0.011        l-0.002,0.022l-0.035,0.349c-0.089,0.928-0.083,1.698,1.235,0.311c-0.067,0.012-0.119-0.039-0.16-0.132v0        c-0.008,0.013,0.067-0.119,0.035-0.063l0-0.001l-0.001-0.002l-0.001-0.004l-0.003-0.009l-0.007-0.019l-0.013-0.04        c-0.007-0.027-0.014-0.058-0.022-0.09c-0.011-0.063-0.023-0.135-0.037-0.213c-0.045-0.309-0.075-0.705-0.152-1.032        C143.439,211.995,143.095,211.611,142.06,212.729z" style="fill:#373737;"/><path d="M365.326,345.494c0.137-0.3,0.282-0.603,0.44-0.898        C365.531,344.988,365.393,345.263,365.326,345.494z" style="fill:#373737;"/><path d="M143.957,214.258c0.004,0.002,0.009,0.005,0.009,0.005s0.004-0.004,0.011-0.012l0.013-0.015        l0.002-0.002l0.034-0.059l0.004-0.004l0.009-0.009c0.026-0.025,0.061-0.059,0.096-0.092c0.07-0.067,0.139-0.133,0.139-0.133        c-0.059,0.054-0.105,0.096-0.15,0.137l-0.066,0.06l-0.034,0.031l-0.004,0.004l-0.001,0.001l0,0l-0.033,0.058l-0.002,0.002        l-0.009,0.009L143.957,214.258z" style="fill:#373737;"/><path d="M284.525,177.924c0.17,0.152,0.419,0.218,0.683,0.288        C285.154,178.107,284.987,178.01,284.525,177.924z" style="fill:#373737;"/><path d="M325.432,176.06l-0.974-0.33C324.837,175.903,325.151,175.996,325.432,176.06z" style="fill:#373737;"/><path d="M265.854,186.409c-0.508,0.069-0.723-0.002-1.329,0.325c0.075,0.038,0.146,0.061,0.236,0.078        C264.954,186.594,265.25,186.417,265.854,186.409z" style="fill:#373737;"/><path d="M247.272,185.315c0.072,0.119,0.185,0.23,0.277,0.346c0.199,0.054,0.43,0.117,0.635,0.173        L247.272,185.315z" style="fill:#373737;"/><path d="M281.06,393.998c0.373,0.464,0.552,0.896,0.665,1.301        C281.649,394.426,284.916,395.262,281.06,393.998z" style="fill:#373737;"/><path d="M365.48,346.263c-0.2-0.234-0.244-0.455-0.154-0.769c-0.097,0.22-0.181,0.437-0.26,0.648        C365.188,346.271,365.324,346.352,365.48,346.263z" style="fill:#373737;"/><path d="M267.658,195.15c0,0-0.207,0.066-0.563,0.142c-0.349,0.079-0.813,0.183-1.277,0.288        c-0.934,0.208-1.834,0.414-1.901,0.406c0.618-0.073,1.15-0.198,1.805-0.337C266.348,195.501,267.04,195.349,267.658,195.15z" style="fill:#373737;"/><path d="M160.18,351.064l0.47,0.611C160.537,351.405,160.385,351.182,160.18,351.064z" style="fill:#373737;"/><path d="M251.458,195.967c-0.571-0.563-1.204-0.974-1.877-1.315c-0.175,0.042-0.373,0.066-0.507,0.159        L251.458,195.967z" style="fill:#373737;"/><path d="M281.727,395.313c-0.005-0.007-0.002-0.014-0.002-0.014S281.722,395.306,281.727,395.313z" style="fill:#373737;"/><path d="M302.589,399.849c-1.33-0.195-1.715-0.006-1.872,0.468c-0.157,0.447-0.059,1.068-0.451,1.411        c-1.742-0.177-2.066-0.582-2.058-1.021c0.007-0.436,0.321-0.931-0.121-1.462c-0.533-0.064-1.057-0.048-1.576-0.03        c-0.521,0.003-1.033,0.034-1.526,0.058c-0.982,0.063-1.921,0.028-2.71-0.32c-0.029-0.273-0.305-0.479,0.173-0.616        c-0.668,0.053-1.44-0.103-2.275-0.365c-0.823-0.256-1.709-0.608-2.641-0.966c-0.912-0.358-1.864-0.705-2.816-0.939        c-0.936-0.243-1.857-0.373-2.725-0.272c-0.175-0.199-0.244-0.355-0.264-0.479c0.235,0.865,0.049,1.597-0.225,2.068        c-0.705-0.232-1.429-0.237-2-0.32c-0.582-0.057-1.012-0.196-1.144-0.738c0.867,0.285,1.06-0.073,1.563-0.228l-1.634-0.047        c-0.983-1.729,2.22,0.131,2.52-0.798c-3.139-0.553-6.887-0.326-9.151-0.995c-0.146-0.698,1.266-0.636,2.332-0.507        c1.058,0.141,1.805,0.23,0.343-0.718c0,0,0.892,0.334,1.783,0.669c0.896,0.313,1.747,0.718,1.747,0.718        c-2.209-2.872,2.178,0.789,0.223-2.166c-1.198-0.443-2.194-0.627-3.035-0.79c-0.843-0.166-1.567-0.193-2.289-0.212        c-0.721-0.025-1.438-0.05-2.284-0.138c-0.848-0.073-1.827-0.135-3.082-0.345c-1.176,0.661,0.289,1.144-0.867,1.808        c-1.749,0.245-2.933,0.239-3.851-0.015c-0.229-0.06-0.44-0.13-0.638-0.209c-0.1-0.043-0.194-0.084-0.287-0.124l-0.018-0.008        l-0.009-0.004l-0.004-0.002c-0.055,0.001,0.12-0.006-0.124,0.004l-0.002-0.001l-0.033-0.015l-0.064-0.029l-0.126-0.06        c-0.332-0.164-0.624-0.351-0.902-0.534c-0.557-0.368-1.059-0.726-1.715-0.861c-0.328-0.067-0.695-0.079-1.127-0.01        c-0.442,0.075-1.043,0.284-1.688,0.585c-1.326,1.096-1.602,2.753-5.298,2.583l0.929-1.745        c-2.418,0.361-2.949,1.136-3.527,1.731c-0.579,0.619-1.198,1.062-3.706,1.364c0.324-0.423,1.18-0.835,1.861-1.134        c0.696-0.264,1.215-0.42,0.837-0.416c-1.756-0.174-2.232,0.285-2.58,0.764c-0.339,0.511-0.553,1.091-1.699,1.518l-0.948-1.094        c-2.37,0.979-4.643,2.322-6.886,3.686c-2.227,1.355-4.439,2.779-6.71,3.869c0.102-0.484,0.717-1.214-0.521-1.133        c-2.753,1.547-5.847,2.581-8.968,3.004c-0.781,0.074-1.561,0.148-2.336,0.223c-0.779-0.004-1.554-0.008-2.319-0.012        l-0.568-0.008l-0.141-0.003h-0.018h-0.004c-0.156,0.008,0.208-0.011,0.168-0.009l-0.01-0.001l-0.04-0.003l-0.08-0.006        l-0.318-0.026c-0.423-0.035-0.844-0.07-1.261-0.104c-0.345-0.056-0.585-0.132-0.874-0.189l-0.409-0.088l-0.462-0.127        c0,0-0.518,0.239-1.035,0.479c-0.543,0.202-1.085,0.403-1.085,0.403c-0.471-0.082-0.74-0.705-0.207-0.803        c-1.865-0.914-0.265,0.7-1.349,0.912c-1.209-0.239-1.327-1.106-0.513-1.211c-1.872-0.021-4.632-0.582-7.23-1.867        c-2.591-1.279-4.962-3.188-6.168-5.094l0.862,0.288c-2.173-2.543-4.504-0.801-5.992-3.893l0.58,0.299        c-4.855-5.717-10.775-11.964-12.726-17.824c-1.015,0.028-1.962-1.652-2.919-3.234c-0.479-0.792-0.964-1.555-1.468-2.067        c-0.252-0.256-0.509-0.447-0.773-0.547c-0.066-0.024-0.132-0.044-0.199-0.057l-0.101-0.015l-0.051-0.004l-0.025-0.001h-0.003        h-0.001c0.02,0.031-0.046-0.068,0.043,0.068h-0.006h-0.013c-0.136-0.004-0.273,0.02-0.415,0.072        c-0.72-2.199-0.818-3.086-1.08-4.139c-0.131-0.527-0.303-1.096-0.614-1.89c-0.162-0.391-0.349-0.844-0.572-1.383        c-0.2-0.525-0.44-1.128-0.731-1.83c-0.705-1.44-2.459-1.316-3.686-2.945l1.051-0.646c0,0-0.155-0.106-0.388-0.267        c-0.234-0.16-0.547-0.375-0.844-0.608c-0.604-0.461-1.208-0.921-1.208-0.921l0.624-1.995l-1.159-1.542        c0.285,0.705,0.253,1.686-0.115,1.749c-0.929-1.201-1.608-2.906-1.917-4.375c-0.291-1.481-0.289-2.687-0.019-2.854        c0,0-0.982-1.483-1.964-2.968c-1.013-1.474-1.902-3.017-1.901-3.017c0.522-0.056,1.112,0.978,1.791,1.693        c-2.633-2.951,0.92-1.142-1.473-3.855c-0.079,0.535-0.772,0.056-1.033,0.079c0.011-0.938-0.358-2.309-0.907-3.762        c-0.533-1.46-1.164-3.04-1.825-4.34l0.99,0.223c-0.804-2.48-1.891-5.005-2.837-7.672c-0.983-2.651-2.087-5.359-2.811-8.199        c0.181,2.133-1.359,2.091-1.96,0.455l1.069-1.021c-1.076-0.858,0.01,1.875-1.554-0.07c-0.448-2.171,1.033-1.814,1.778-0.718        l-1.151-2.451c0.335-0.249,0.701,0.301,1.224,0.328c-0.526-0.423-0.556-1.605-0.582-2.839        c-0.026-1.235-0.135-2.502-0.996-3.106l0.344-0.233c-1.379-5.664-2.131-8.204-3.089-12.865        c-1.158,0.09-1.146-1.794-2.231-3.08c-0.051-1.771,0.015-3.648,0.014-5.598c0.044-1.954,0.129-3.985-0.095-6.077        c-0.788-2.913-1.017-0.8-1.788-2.094c0.934-0.281,0.774-4.472,1.551-2.325c-0.216-5.03-0.492-6.41-0.962-12.816        c-0.45,0.672-0.666,1.449-0.997,1.028c-0.119-1.177,0.542-2.632,1.027-2.433l0.092,0.313c-0.142-0.905-0.237-1.849-0.172-2.8        c0.08-0.95,0.231-1.917,0.428-2.889c0.417-1.939,0.918-3.914,1.568-5.79c0.697-1.867,1.36-3.671,1.782-5.379        c0.105-0.427,0.196-0.849,0.268-1.264c0.032-0.208,0.063-0.415,0.094-0.619l0.01-0.077l0.005-0.038l0.002-0.02l0.001-0.009        c0.039-0.156-0.052,0.207-0.042,0.168l0.001-0.005l0.03-0.158l0.055-0.314c0.135-0.834,0.181-1.643,0.112-2.421l0.018,0.345        c0,0,0.122-1.544,0.244-3.088c0.046-0.798,0.161-1.475,0.229-2.021c0.072-0.539,0.12-0.898,0.12-0.898        c1.009-2.438,0.236,1.712,1.459,0.065c0.038-0.78,0.119-1.514,0.231-2.206c0.105-0.693,0.254-1.344,0.486-1.956        c0.428-1.227,0.932-2.319,1.436-3.368c0.474-1.066,1.063-2.031,1.583-3.061c0.515-1.034,0.961-2.132,1.284-3.418l0.206-0.105        l0.05-0.028c0.015-0.025-0.119,0.212-0.061,0.111l0.003-0.002l0.007-0.003l0.014-0.007l0.027-0.014l0.108-0.06        c0.144-0.082,0.286-0.171,0.426-0.269c0.28-0.195,0.552-0.42,0.819-0.672c0.533-0.504,1.04-1.114,1.531-1.799        c0.448-0.646,0.926-1.334,1.423-2.049c0.46-0.688,0.909-1.42,1.356-2.169c0.976-1.481,2.029-3.049,3.127-4.377        c1.173-1.271,2.317-2.412,3.581-3.001l-0.729-0.28c0.466-1.443,1.461-0.874,2.275-1.452c-0.483-0.298-1.494,0.582-1.165-0.29        c3.81-4.388,8.816-7.913,14.22-10.457c5.416-2.563,11.198-4.156,16.845-5.185c2.045-0.454,2.466-1.368,3.072-2.242        c0.304-0.425,0.658-0.812,1.293-1.049c0.318-0.115,0.705-0.206,1.19-0.221c0.488,0.007,1.074,0.072,1.777,0.211l-1.364,1.471        c2.078-0.61,4.238-1.094,6.438-1.192l1.65-0.11l0.207-0.012l0.104-0.005l0.026-0.001l0.006,0c0.045,0-0.374-0.007-0.193-0.004        l0.014,0l0.056,0.001l0.447,0.012l0.894,0.029l1.787,0.074l0.447,0.021l0.373,0.053l0.743,0.104        c0.995,0.144,1.952,0.228,3.045,0.473c1.062,0.215,2.121,0.364,3.187,0.633c2.129,0.439,4.267,0.93,6.45,1.299        c-0.591,0.125-0.729,0.472-1.531,0.231c0.725,0.713,2.316,1.305,3.782,1.587c1.468,0.334,2.809,0.387,2.966,0.027        c1.264,0.58,0.043,0.774,0.695,1.459c1.537,1.214,4.902,0.66,5.491,1.94c0.101,0.211-0.62,0.082-0.974,0.016        c1.317,0.04,5.443,2.375,4.725,0.878c3.055,1.821,6.489,2.027,9.159,3.521c1.152-0.339,2.619,0.278,4.167,0.606        c1.448,0.422,3.015,0.464,3.37-0.365c-0.049,0.223,0.027,0.422,0.209,0.597c0.091,0.087,0.208,0.169,0.348,0.245        c0.07,0.038,0.146,0.074,0.229,0.109l0.015,0.007l0.008,0.003l0.004,0.002c0.149-0.003-0.33,0.009,0.334-0.008l0.002,0        l0.026,0.009l0.052,0.018l0.11,0.033c0.619,0.16,1.389,0.233,2.384,0.148c0.591-0.085,1.205-0.202,1.811-0.342        c0.301-0.076,0.601-0.151,0.897-0.226c0.302-0.079,0.585-0.165,0.797-0.262c0.925-0.375,1.729-0.782,2.245-1.143        c-0.314,0.364,0.241,0.374,0.758,0.387c0.511,0.011,1.02,0.049,0.699,0.552c2.566-0.833,4.626-1.971,3.895-2.689        c5.178,0.419,8.066-4.922,11.406-3.173c6.427-3.425,12.522-5.925,18.705-7.328c0.021,0.931-1.666,1.196-3.288,1.606        c-1.622,0.427-3.179,0.846-2.814,1.734c1.389-0.497,2.624-1.038,3.793-1.528c1.183-0.446,2.29-0.864,3.396-1.281        c1.119-0.358,2.256-0.618,3.481-0.844c0.613-0.13,1.246-0.165,1.907-0.174c0.662-0.014,1.354-0.004,2.082,0.035        c1.497,0.213-0.86,0.801-1.341,1.118c0.715-0.106,1.428-0.189,2.138-0.254c0.701-0.002,1.398,0.022,2.09,0.05l1.033,0.052        l0.514,0.03l0.709,0.051c0.735,0.058,1.517,0.105,2.199,0.177c1.362,0.149,2.704,0.297,4.028,0.442        c1.349,0.147,2.691,0.259,4.043,0.291c-0.049,0.162-0.645,0.207-1.202,0.256c1.041,0.123,2.309,0.779,2.378-0.059        l-1.045-0.008c-0.695-0.767,0.441-1.147,1.841-1.398c1.401-0.282,3.02-0.278,3.203-0.573        c-1.195,0.892,0.075,1.392,1.172,1.923c1.09,0.589,1.986,1.202,0.2,2.181c0.694,0.063,1.638-0.039,1.66-0.608        c0.933,0.472,1.127,0.871-0.054,1.144c0.925,0.169,1.551,0.25,2.021,0.289c0.473,0.028,0.798-0.008,1.109-0.033        c0.613-0.034,1.205-0.103,2.768,0.601c-0.172,0.368-0.848,0.2-1.358,0.521c0.94-0.039,1.871-0.012,2.902,0.172        c0.515,0.096,1.05,0.24,1.613,0.453c0.547,0.244,1.118,0.565,1.72,0.978c-0.265,0.13-0.114,0.563-0.869,0.157        c1.097,0.563,2.201,0.929,3.245,1.341c1.038,0.421,2.074,0.79,3.12,1.193c1.058,0.384,2.023,0.954,3.049,1.564        c0.506,0.314,1.013,0.659,1.519,1.044c0.489,0.406,0.953,0.883,1.426,1.394c-2.328,0.299,1.068,1.636,0.301,2.938        c0,0,0.156,0.094,0.391,0.235c0.241,0.133,0.536,0.343,0.828,0.557c0.591,0.424,1.182,0.848,1.182,0.848l-0.334-1.343        c0.904,0.905,1.951,1.558,2.939,2.233c0.966,0.691,1.785,1.485,2.341,2.473l-1.714-1.036c0,0,0.841,0.86,1.681,1.72        c0.423,0.431,0.845,0.862,1.161,1.186c0.3,0.339,0.485,0.576,0.485,0.576c0.058-0.038-1.316-2.461-1.316-2.461        c1.155,0.742,1.479,0.395,1.751,0.213c0.136-0.09,0.261-0.137,0.478,0.022c0.227,0.151,0.518,0.531,0.948,1.314        c-0.548-0.489,1.563,2.166,1.646,3.763c0,0-0.005-0.007-0.009-0.005c0.141,0.095,0.281,0.191,0.428,0.291        c0.146-0.691,0.29-1.382,0.445-2.126c-0.747,0.931-1.698,1.932-3.32,2.66c-0.706-0.089-0.589-1.604-1.053-1.667        c-0.211,0.902-1.486,1.908-2.739,3.011c-1.264,1.088-2.492,2.29-2.703,3.335c0.222-0.604-0.259-1.217-0.509-1.218        c0,0-0.049,0.377-0.098,0.755c-0.043,0.378-0.085,0.757-0.085,0.757c-1.163,0.606-1.413,0.619-1.678,0.018        c-2.941,2.516,2.162,0.529-1.682,3.087c0.199-0.306-0.031-0.294,0.398-0.922c-3.608,2.919-5.578,6.874-8.408,9.978        c-1.962,0.137,1.892-3.215,0.031-2.819c-1.735,2.584-3.225,5.463-4.419,8.414l-0.471,1.089l-0.26,0.597l-0.201,0.532        c-0.271,0.708-0.55,1.408-0.841,2.095c-0.57,1.398-1.148,2.869-1.813,4.197c0,0,0.134-0.244,0.288-0.483        c0.149-0.24,0.299-0.479,0.299-0.479c0.791,0.791,0.161,1.683-0.673,2.826c-0.415,0.571-0.923,1.19-1.269,1.886        c-0.338,0.698-0.575,1.452-0.549,2.236c0.058-0.742-0.852-1.261-0.683-1c-1.497,3.837-1.677,8.285-1.456,14.395l-0.471-0.797        c-0.402,1.167-0.469,2.745-0.573,4.346c-0.021,0.4-0.043,0.803-0.064,1.2l-0.008,0.149l-0.003,0.212v0.285        c0,0.188,0,0.376-0.001,0.562c-0.004,0.74-0.02,1.444-0.066,2.068c0.283,0.364,0.406,0.899,0.565,1.241        c0.173,0.352,0.36,0.486,0.722,0.029c-1.292,4.063-0.394,7.91,0.847,11.379c1.29,3.504,2.758,6.654,2.863,10.404        c-0.301-0.789-1.154-1.731-0.92-1.096c0,0,0.162,0.346,0.405,0.863c0.23,0.521,0.58,1.199,0.948,1.867        c0.359,0.668,0.72,1.337,0.989,1.838c0.292,0.489,0.487,0.815,0.487,0.815c0.618-0.824,0.139-0.947,0.308-2.391        c0.774,0.48,1.892,1.769,2.541,3.055c-1.709-2.083-1.347,0.696-1.213,1.977c0.153-0.306,0.624-0.108,0.828-0.333        c0.046,1.753,0.521,1.648,1.11,1.61c0.587-0.025,1.306,0,1.958,2.057l-0.526,0.075c0.515,0.607,1.135,1.1,1.721,1.625        c0.588,0.524,1.116,1.1,1.589,1.796c-0.435,1.209-1.41-1.026-2.167-0.621c0.699,0.985,1.871,1.591,2.845,2.274        c1.006,0.662,1.891,1.346,2.194,2.511c-0.881-0.567-1.842-1.665-2.7-2.28c0.242,1.321,0.523,1.969,0.82,2.492        c0.301,0.523,0.662,0.891,1.199,1.607l-0.098-0.147c0,0,0.601,0.854,1.202,1.706c0.633,0.834,1.266,1.668,1.266,1.668        l-0.509-0.988c2.054,0.103,3.238,1.021,4.486,2.109c1.245,1.071,2.563,2.317,4.717,2.767c-4.142-0.988-1.13,0.409-2.092,1.195        c0.625,0.904,1.709,2.155,1.143,2.159c2.147,0.322,2.283,2.537,5.409,2.761c-0.096,0.402,1.789,1.088,0.927,1.716        c2.402,0.979-0.206-0.887,0.236-1.208c2.218,0.42,4.119,2.063,6.702,3.479c-0.557-1.22-1.114-2.439-1.687-3.693        c-0.5,1.065-0.978,2.083-1.329,3.176c-0.338,1.102-0.629,2.262-0.657,3.542c-0.436,2.282-0.526,3.72-0.555,5.144        c-0.044,1.419-0.059,2.817-0.678,4.907c-1.173,1.067-0.806-1.657-0.806-1.657c-1.498,1.89-2.111,3.522-2.64,5.71        c-0.104-0.545-0.572-0.259-1.268,0.145c-0.7,1.608,0.742,1.679-0.822,3.495c-0.207-0.553-0.598-1.322-0.608-2.269        c-0.627,1.985-0.84,4.178-1.588,6.218c-0.88,0.168-0.255-1.608-0.334-2.498c-0.827,2.271-2.496,5.71-1.916,6.913l1.099-1.161        c-0.39,0.795-1.026-0.063-0.879-0.723c0.278-2.204,1.792-2.408,2.196-2.326l-0.536,1.454c1.37-0.142,2.122-1.509,2.556-3.242        c0.465-1.72,0.768-3.713,1.522-5.059l0.909,1.888c0,0,0.051-0.863,0.101-1.727c0.023-0.43,0.047-0.859,0.064-1.182        c0.007-0.326,0.011-0.543,0.011-0.543c0.67-0.427,1.706-0.458,1.292,1.051c1.672-1.687,0.283-2.048,1.914-3.414        c0.218-0.134,0.251-0.014,0.229,0.192l0.455-2.192c0.143,0.53,1.228,0.14,0.447,1.271c1.281-1.59,1.572-3.206,1.814-4.49        c0.236-1.29,0.389-2.271,1.256-2.728l-0.029,0.343c1.424-5.311-0.944-0.948-0.848-5.244c0,0,0.937-0.392,1.874-0.782        c0.939-0.407,1.879-0.813,1.879-0.813l-0.98-0.899c0.151-0.36,0.41-0.968,0.682-1.154l0.292-0.201l-0.942-1.223        c-0.1-0.13-0.11-0.252-0.001-0.364c-2.167,0.001,0.125,0.634-1.27,0.902c-1.008-1.033-2.696-1.723-4.103-2.459        c-1.401-0.732-2.499-1.493-2.242-2.479c-1.305,0.298,1.812,1.933-0.963,1.005c0.424-2.182-2.99-1.463-4.416-3.713        c1.232-0.409,2.755,1.329,1.358-0.822c-1.104,0.3-2.019-0.463-2.794-1.475c-0.804-0.985-1.464-2.203-2.341-2.721        c-0.516,0.512-1.433-0.12-2.559-1.141c-0.537-0.535-1.148-1.145-1.775-1.77c-0.605-0.646-1.259-1.277-1.915-1.837        c0.269-0.092-0.669-1.404-1.734-3.119c-0.543-0.851-1.129-1.793-1.626-2.726c-0.527-0.91-0.964-1.81-1.261-2.54l0.255-0.054        c-1.569,0.292-3.058-2.638-4.335-4.65c0.833-0.31,1.325-0.079,2.242,0.854l-0.982-1.941c-0.326-0.127-0.623-0.317-0.937-0.628        c-0.294-0.32-0.6-0.763-0.963-1.388l1.226,0.064c-1.245-2.566-3.401-5.002-3.69-8.851c-1.054,0.011-1.992,3.772-3.673-0.111        c0.499-0.284,1.384-0.648,1.864,0.333c-0.156-0.32-0.752-1.107-0.695-1.85l1.303,1.362c-0.016-1.787-1.002-0.698-1.215-2.096        c0.777-0.14,0.355-1.134,1.008-1.062c0.149,0.328-0.112,1.262,0.339,1.704c-0.211-1.556-0.066-3.498,0.395-4.188        c-0.42,0.205-1.056,0.178-1.306-0.943c-0.452-2.919,0.801-1.129,0.984-2.854c-0.598-0.636-0.179-2.489-1.362-2.478        c-0.058-0.856,0.464-1.01,0.778-1.365c-0.14-0.391-0.231-1.045-0.309-1.779c-0.034-0.367-0.071-0.754-0.108-1.138        c-0.019-0.192-0.036-0.383-0.055-0.57l-0.028-0.278l-0.015-0.136l-0.004-0.034l-0.002-0.017l-0.001-0.009v-0.004l-0.001-0.002        c0.002,0.133,0.001,0.035,0.001,0.064l-0.004-0.064c-0.083-1.36-0.273-2.342-0.929-1.496l-0.096,0.393        c-0.022-0.074-0.021-0.161-0.044-0.253c0,0.014,0,0,0,0.014v-0.014c-0.557-2.541-0.15-5.192,0.447-7.746        c0.355-1.271,0.655-2.542,1.022-3.778c0.389-1.232,0.646-2.473,0.871-3.703l0.378,0.113c0.223-1.471,0.57-3.097,1.039-4.575        c0.214-0.746,0.4-1.478,0.544-2.162c0.172-0.666,0.284-1.296,0.304-1.874c0.351-0.817,1.484-1.586,1.751-1.03        c0.394-1.11,0.521-1.774,0.813-2.5c0.072-0.182,0.156-0.367,0.256-0.564l0.079-0.15c-0.018,0.034,0.047-0.074,0.068-0.106        c0.065-0.098,0.135-0.201,0.207-0.31c0.301-0.43,0.699-0.931,1.247-1.557c-0.536,2.31,0.918-0.368-0.721,2.26        c0.879-1.182,1.532-1.829,2.044-2.587c0.546-0.74,0.969-1.573,1.376-3.194c0.228,1.431,2.303-1.04,2.889-2.311        c0,0-0.45,0.291-0.893,0.595c-0.445,0.305-0.892,0.609-0.892,0.609c0.777-1.364,1.714-2.375,2.652-3.395l0.566,1.42        c2.443-1.769,3.709-4.111,5.107-6.26c1.367-2.146,2.93-4.011,5.516-4.375c0.326-0.839-0.416-0.492-1.167-0.099        c-0.75,0.389-1.541,0.785-1.348-0.087c2.254-1.68,5.684-1.808,6.36-2.25c0.99-0.43,1.554-0.884,1.948-1.37        c0.196-0.244,0.35-0.498,0.497-0.753l0.213-0.39c0.102-0.147,0.204-0.296,0.309-0.449l2.755-4.013l-1.725-0.913        c-0.854-0.453-1.723-1.045-2.614-2.619c-0.051,0.731-0.792,1.864-2.975-0.355c-1.726-2.298-0.843-4.02,0.694-2.839        c0.502,0.518,0.612,0.875,0.467,0.954c0.775,0.608,1.641,1.553,1.355,0.263l-0.603-0.019        c-0.583-1.437-3.367-4.545-2.147-4.334c-1.848-1.429-1.209-0.203-0.289,1.229c-0.973-1.725-2.112-2.748-3.211-3.81        c-0.555-0.527-1.117-1.05-1.7-1.638c-0.619-0.547-1.271-1.146-1.963-1.877c0.321,0.61,0.4,1.404-0.076,0.998        c-2.033-2.1-2.683-2.325-3.215-2.284c-0.523,0.023-0.916,0.263-2.546-0.779c-0.687-0.938-0.287-1.182-0.148-1.41        c0.126-0.208,0.034-0.501-1.826-1.267c-1.8-1.686,0.221-1.345,1.275-1.147c-0.908-0.292-1.701-0.691-2.416-1.149        c-0.709-0.467-1.348-0.975-1.959-1.439c-1.206-0.958-2.19-1.969-3.103-2.521c0,0,0.479,0.13,0.955,0.275        c0.479,0.144,0.956,0.288,0.956,0.288c-1.14-0.357-1.988-0.799-2.885-1.186l0.603,1.316c-0.962-0.618-1.839-1.02-1.657-1.371        c-1.315,0.088,0.147,1.799-2.27,1.641c-1.167-1.069-4.359-1.154-4.402-2.542c4.231,2.085-0.057-1.379,3.77-0.123        c-0.783-0.141-1.662-0.486-2.671-1.052c-0.112-0.194,0.239-0.188,0.557-0.143c-0.969-0.69-1.63-0.951-2.119-1.024        c-0.489-0.075-0.812,0.043-1.146,0.194c-0.336,0.15-0.685,0.332-1.226,0.385c-0.538,0.043-1.271-0.023-2.396-0.324        c0.769-0.526-0.693-1.585-1.48-1.642c1.837,0.52,0.561,1.368-1.221,1.471c-2.778-1.192-3.232-0.32-4.738-0.647        c0,0,0.422,0.143,0.845,0.286c0.423,0.137,0.839,0.298,0.839,0.297c-0.726,0.575-2.143,0.207-4.188,0.104        c-0.087-0.589,1.89-0.077,1.21-0.438c-1.225,0.422-2.42-0.066-3.782-0.617c-0.688-0.26-1.417-0.541-2.173-0.717        c-0.358-0.076-0.724-0.128-1.097-0.142c-0.187-0.007-0.375-0.004-0.565,0.01l-0.288,0.03l-0.036,0.005l-0.018,0.003h-0.003        c0.279,0.027,0.076,0.008,0.138,0.014l-0.005,0l-0.01,0.001l-0.078,0.011l-0.156,0.026c-1.47-0.587-0.005-1.338-1.338-1.759        c-1.916,0.351-2.91-0.034-3.949-0.238c-1.033-0.24-2.13-0.521-4.085-0.071c0.594,0.438,0.934,0.629,0.788,0.804        c-0.072,0.092-0.266,0.178-0.605,0.318c-0.334,0.15-0.813,0.366-1.468,0.66c0.001,0,1.538-0.366,3.13-0.52        c0.795-0.099,1.59-0.198,2.187-0.272c0.599-0.072,1-0.114,1-0.114s-0.26,0.081-0.645,0.22        c-0.381,0.137-0.891,0.319-1.399,0.502c-0.996,0.367-1.992,0.733-1.992,0.733c1.872-0.001,3.978-0.743,5.123-0.432        c-0.981,0.318-1.406,0.436-1.486,0.585c-0.079,0.144,0.193,0.255,0.626,0.692c-1.251-0.757-2.542-0.479-3.838-0.2        c-1.311,0.244-2.597,0.793-4.104,0.426l-0.167-2.358c-0.582-0.072-1.148-0.105-1.695-0.077        c-0.54,0.048-1.067,0.135-1.586,0.25c-1.036,0.236-2.053,0.548-3.075,0.94c-1.016,0.413-2.062,0.849-3.211,1.226        c-1.154,0.365-2.365,0.782-3.793,1.008l1.882-0.095c-0.491,1.107-3.364,1.049-4.985,2.002c-0.077-0.805-1.26-0.729-2.17-0.955        c0.275,0.517-3.945,1.312-3.88,2.972l-2.701-0.108c-4.372,1.183-3.987,3.934-8.082,5.163c0.904-1.249-1.103-1.088,1.349-2.669        c-1.338,0.506-2.56,0.781-2.396,1.307c-0.467-0.101-1.293,0.5-2.18,1.042c-0.884,0.532-1.85,1.065-2.558,0.896        c-0.441,0.478-0.399,1.322-1.902,1.662c-0.199-0.112-0.087-0.381-0.087-0.381c0.022,0.096-0.104,0.214-0.281,0.348        c-0.173,0.125-0.38,0.237-0.559,0.372c-0.35,0.262-0.578,0.563,0.14,0.873c-0.563-0.208-1.129-0.333-1.704-0.386        c-0.616-0.09-1.336-0.176-2.042-0.187l-0.269-0.005l-0.136-0.001h-0.067c-0.035,0.001,0.287-0.007,0.149-0.004l-0.004,0        l-0.008-0.001l-0.015-0.002l-0.03-0.005l-0.48-0.069c-0.321-0.042-0.647-0.074-0.975-0.099        c-0.648-0.01-1.352-0.205-2.033-0.286c-2.75-0.49-5.534-1.311-6.909-2.978c-2.936-0.804-6.495-2.039-9.156-3.068        c0.259-0.148,0.158-0.36,0.626-0.079c-3.365-2.174-3.088,1.166-6.955-1.228c-1.704-2.008,2.491,0.203,1.319-0.756        c0.179-1.321-1.148-1.729-2.797-2.111c-1.687-0.338-3.647-0.686-4.932-1.835l0.771,0.074        c-1.025-0.747-2.474-1.009-4.185-1.064c-0.849-0.042-1.743-0.071-2.657-0.16c-0.932-0.044-1.884-0.14-2.843-0.37        c0,0,0.229-0.19,0.09-0.383c-0.363,0.103-0.75,0.175-1.177,0.249c-0.438,0.087-0.901,0.159-1.382,0.219        c-0.949,0.138-2.019,0.152-3.014,0.272c-0.997,0.121-2.025,0.21-3.031,0.283c-1.137,0.124-2.05,0.273-2.989,0.392        c1.106-1.056,1.666-0.597,0.929-1.605c-1.664,0.205,0.52,1.642-2.732,2.046c-1.091-0.481-3.508-0.688-3.969-1.755l3.154-0.394        c-0.865-0.626-1.908-0.504-2.924-0.236c-0.505,0.148-1.012,0.297-1.494,0.439c-0.48,0.144-0.934,0.287-1.357,0.293        l0.115-0.653c-2.407,0.554-3.565,1.125-4.705,1.869c-0.575,0.351-1.157,0.695-1.91,1.022c-0.752,0.331-1.684,0.61-2.913,1.011        l0.644,0.287c-1.106,1.177-1.713,1.145-2.36,1.072c-0.635-0.06-1.332-0.231-2.416,0.855l-1.363-1.154        c-0.795,0.554-2.217,1.432-3.671,2.604c-0.738,0.563-1.512,1.14-2.276,1.682c-0.768,0.535-1.472,1.139-2.158,1.598        c0.521-0.976,1.562-2.096,2.783-3.071c1.209-0.996,2.499-2.039,3.528-2.781c-0.893,0.312-2.319,1.05-3.601,1.813        c-0.641,0.381-1.244,0.771-1.716,1.136c-0.461,0.386-0.786,0.758-0.905,1.046c0.291-0.251,0.594-0.583,0.926-0.863        c0.342-0.261,0.708-0.478,1.099-0.532c-0.771,1.022-1.674,2.107-2.81,3.098c-0.563,0.503-1.193,0.969-1.856,1.461        c-0.648,0.515-1.351,1.02-2.112,1.514c-0.566-1.45-2.733-0.333-5.029,1.359c-0.582,0.412-1.185,0.838-1.779,1.259        c-0.572,0.449-1.146,0.882-1.708,1.259c-1.116,0.764-2.219,1.274-3.107,1.332c-0.987,1.389-2.104,2.61-3.248,3.827        c-1.093,1.262-2.297,2.443-3.497,3.685c-1.142,1.294-2.361,2.556-3.529,3.986c-0.569,0.741-1.138,1.503-1.699,2.293        c-0.542,0.78-1.167,1.628-1.569,2.414c3.374-1.044-1.028,1.885,1.31,2.734c-0.367,0.778-0.641,1.303-0.851,1.64        c-0.105,0.168-0.194,0.29-0.27,0.373c-0.038,0.041-0.072,0.073-0.104,0.096c-0.017,0.011-0.032,0.02-0.046,0.028l-0.002,0.001        l-0.032,0.057h0l0,0l-0.001,0l-0.005,0.003l-0.01,0.005l-0.02,0.008l-3.707,4.144c-1.221,0.854,0.275-1.757-0.291-1.854        c-1.931,3.476-1.722,1.028-3.353,3.208c1.008-0.147,0.621,1.773-0.552,3.746l2.257-2.513        c-0.432,2.803-1.406,3.652-2.273,4.646c-0.871,0.976-1.768,2.019-2.047,4.912l-0.168-1.938        c-0.111,0.724-0.433,1.772-0.697,2.877c-0.235,1.082-0.512,2.3-0.743,3.529c-0.115,0.615-0.219,1.231-0.3,1.835l-0.057,0.45        l-0.003,0.028l-0.001,0.007l-0.043,0.181l-0.001,0.015l-0.003,0.059l-0.005,0.118l-0.009,0.233        c-0.01,0.31-0.013,0.613-0.008,0.908c0.019,1.181,0.167,2.225,0.521,2.995c-0.369,0.433-1.15,0.963-1.092-0.296        c-0.379,1.652-0.642,3.429-0.781,5.235c-0.042,1.817-0.015,3.659-0.008,5.442c-0.086,3.566,0.186,6.897-0.553,9.467        l-0.575-0.528c0.119,1.261,1.03,2.2,0.362,3.748c-0.243-0.083-0.578-0.511-0.633,0.068c0.218,0.669,1.111,3.307,0.795,4.956        l-0.701-1.399c-0.756,6.582,2.105,9.909,2.923,15.212c-1.754,0.162-1.658,5.301-1.604,7.885l-0.258-0.052        c0.153,1.899,0.617,3.598,1.026,5.223c0.435,1.619,0.927,3.144,1.444,4.64c1.105,2.975,2.417,5.805,3.519,9.101        c-0.385,2.316,0.424,5.9,1.404,9.774c0.569,1.912,1.19,3.896,1.74,5.835c0.275,0.971,0.532,1.931,0.756,2.866        c0.257,0.924,0.487,1.822,0.663,2.685c-0.07-1.106,1.352-0.301,1.944,0.789c0.232,1.654,2.701,3.767,1.107,4.111l-0.174-0.555        c-1.099,1.742,0.663,4.676,1.614,7.119l2.108-0.434c-0.021,0.935,0.074,1.896,0.295,2.853c0.24,0.948,0.578,1.903,0.977,2.854        c0.814,1.895,1.813,3.796,2.892,5.547c2.197,3.495,4.143,6.587,3.97,8.91c1.301,1.195,2.34,3,3.619,4.154l-1,0.531        c1.072,2.028,1.902,3.449,2.845,5.007c0.241,0.384,0.486,0.773,0.742,1.18c0.13,0.201,0.264,0.407,0.4,0.617        c0.095,0.14,0.191,0.282,0.289,0.426l0.227,0.321c0.614,0.868,1.32,1.825,2.167,2.939l-1.312-0.482        c1.734,2.647,4.946,1.426,6.68,3.751l-0.865,1.698c3.23,4.455,5.563,9.939,10.49,13.133c-0.245,0.096-0.721,0.298-1.388-0.35        c0.864,1.024,2.419,3.151,3.969,4.693c1.559,1.539,3.058,2.472,3.469,1.278c-0.493,0.579,0.592,1.635,2.211,2.67        c1.603,1.052,3.785,1.99,5.28,2.591l-1.032,0.648c1.542,0.158,2.353,0.147,3.237,0.276c0.44,0.064,0.889,0.171,1.439,0.353        c0.568,0.156,1.229,0.402,2.11,0.707c0.747,0.487,0.343,1.137-0.623,0.381c1.238,0.881,1.885,0.886,2.6,0.862        c0.714-0.003,1.464,0.011,3.11,0.804l-1.505,0.281c1.476,0.529,2.22,0.584,2.786,0.538c0.565-0.045,0.999-0.301,1.89-0.56        c0.486-0.014,1.084,0.007,1.714,0.094c0.619,0.104,1.313,0.208,1.972,0.354c0.687,0.163,1.229,0.311,1.649,0.497        c0.427,0.189,0.736,0.414,0.848,0.663c0.022-0.04,0.049-0.08,0.081-0.12l0.024-0.031l0.003-0.004l0.001-0.001        c0.049-0.002-0.109,0.006,0.11-0.006h0l0.001-0.002l0.007-0.009l0.013-0.017l0.058-0.066c0.082-0.089,0.18-0.181,0.293-0.272        c0.226-0.183,0.509-0.364,0.833-0.521c0.65-0.318,1.465-0.528,2.35-0.49c0.291,0.345-0.309,0.67-0.619,0.81        c2.55,0.025,4.36-0.685,5.88-1.401c0.384-0.168,0.757-0.33,1.125-0.491c0.36-0.174,0.718-0.332,1.084-0.466        c0.728-0.278,1.517-0.416,2.395-0.474c0.192,0.321,0.464,0.415,0.768,0.416c-3.711,1.399-6.938,2.017-6.648,1.881        c0.206,1.01,3.526,0.339,1.277,2.385c0.616-0.365,1.34-0.79,2.09-1.284c0.741-0.513,1.531-1.054,2.337-1.561        c1.577-1.064,3.197-2.027,4.685-2.43c0.176,0.032,0.349,0.063,0.516,0.164l-0.246,0.232c0.703-0.187,1.234-0.534,1.69-0.937        c0.936-0.246,1.568-0.393,2.382-0.76c0.337,0.312,1.169,0.05,2.088-0.365c0.905-0.401,1.883-0.941,2.558-1.227        c-0.57-0.985,1.25-1.564-0.762-1.711c0.246-0.025-0.199,0.238-1.073,0.688c-0.188,0.123-0.419,0.246-0.524,0.367        c0.013-0.04,0.03-0.087,0.05-0.132c-0.882,0.433-2.035,0.997-3.344,1.638c0.83-1.014,1.771-2,3.515-2.103        c0.391-0.97,0.853-2.009,1.15-2.506c2.509,0.593,6.326,0.043,7.109,0.864c0.479-0.238,0.985-0.473,1.51-0.706        c0.526-0.224,1.079-0.4,1.633-0.604c0.558-0.189,1.115-0.415,1.684-0.585c0.569-0.164,1.136-0.335,1.69-0.517        c1.119-0.398,2.147-0.681,3.083-1.093c0.467-0.203,0.908-0.429,1.316-0.68c0.433-0.232,0.842-0.476,1.186-0.762        c1.291-0.345,1.536,0.521,2.043,0.824c-0.743,0.254-1.641,0.272-2.031,0.598c0.645-0.172,1.45-0.298,2.304-0.414l0.322-0.043        l0.162-0.021l0.081-0.01l0.041-0.006l0.021-0.003h0.005l0.003-0.001c-0.046,0.002,0.105-0.004-0.102,0.004h0.01l0.622-0.041        c0.416-0.032,0.831-0.064,1.231-0.096c0.801-0.07,1.549-0.193,2.139-0.351c0.586-0.136,1.021-0.356,1.199-0.712        c3.086,0.932-1.857,1.189,2.434,1.343c0,0-0.156,0.09-0.312,0.179c-0.155,0.101-0.312,0.2-0.312,0.2        c0.999,0.415,1.935,0.755,2.857,0.952c0.923,0.201,1.804,0.422,2.699,0.506c0.896,0.072,1.773,0.217,2.674,0.265        c0.899,0.043,1.803,0.142,2.721,0.233c0.92,0.078,1.852,0.217,2.792,0.408c0.941,0.177,1.896,0.434,2.858,0.774        c1.925,0.68,3.879,1.718,5.97,3.345c-0.591-0.427-0.878-0.642-0.921-0.923c5.056,2.786,11.4,4.16,17.509,3.845l2.167-0.087        l0.068-0.002l0.102-0.003l0.018-0.003l0.036-0.004l0.144-0.019l0.286-0.035l0.573-0.071l1.144-0.137        c1.533-0.112,3.018-0.483,4.515-0.769c0.757-0.115,1.484-0.328,2.213-0.535c0.731-0.2,1.467-0.39,2.208-0.568        c0.723-0.228,1.443-0.455,2.161-0.683c0.714-0.238,1.483-0.39,2.18-0.663c1.575-0.653,2.346-1.23,2.857-1.856        c0.485-0.662,0.75-1.347,1.368-2.207l1.295,0.574c0,0,0.129-0.194,0.321-0.486c0.174-0.306,0.406-0.712,0.639-1.119        c0.447-0.806,0.895-1.612,0.895-1.612c0.797-0.925,1.604-1.673,2.563-2.255c0.961-0.579,1.959-1.098,2.961-1.688        c1.011-0.582,2.05-1.219,2.939-2.119c0.903-0.889,1.756-1.976,2.329-3.463l-1.119,0.077c0.737-0.789,1.766-2.163,2.59-3.28        c0.833-1.111,1.552-1.915,1.813-1.489c0.013-0.269-0.229-1.063,0.6-1.486l0.545,0.326c0,0,0.564-1.224,1.129-2.447        c0.569-1.217,1.094-2.451,1.093-2.451c2.717-3.066,1.707,1.987,5.204-2.853c1.064-1.966,2.004-6.209,1.198-5.769        c-0.524,0.715-1.599,1.65-2.16,1.349l0.857-1.846c-1.335-1.35-2.043-3.699-5.891-0.355l-0.99,3.449l-1.364,0.385l1.575-2.381        c-1.622,0.848-1.578,2.124-1.817,3.357c-0.551-0.054-1.1,0.139-1.632,0.581c0,0-0.117,0.935-0.234,1.869        c-0.127,0.931-0.255,1.86-0.255,1.86c-0.824-0.11-0.293-2.04-1.926-0.502c-0.252,1.735,2.197-0.229,1.11,2.163        c-1.636,0.799-1.907-0.015-2.48,1.915c-0.541-0.085-0.538-0.588-0.253-1.3c-0.281,0.83-0.906,1.742-1.435,2.6        c-0.544,0.836-0.986,1.63-0.879,2.278c-0.919,0.319-1.775,1.41-2.574,2.252c-0.789,0.853-1.492,1.477-2.087,0.804        c-0.052,0.62-0.966,3.035-2.031,4.086c0.271-1.675-0.773-0.767-1.989,0.281c-0.599,0.546-1.29,1.048-1.87,1.299        c-0.58,0.254-1.048,0.245-1.265-0.307c-0.128,1.386-1.446,2.513-2.965,3.674c-0.791,0.506-1.634,1.017-2.431,1.567        c-0.821,0.483-1.612,0.96-2.271,1.558c0.114-0.217,0.324-0.648,0.628-0.68c-0.878,0.317-1.488,0.404-2.046,0.338        c-0.55-0.038-1.021-0.127-1.614-0.115c0.125,0.779-0.456,1.53-1.307,2.085c-0.883,0.581-1.916,1.261-2.646,1.741        c-1.281-0.634-0.942-1.13-0.472-1.631c0.485-0.487,1.105-1.026,0.655-1.69c0.34,1.229-3.654,1.639-2.856,2.622l-0.042-0.017        l-0.001-0.001c-0.13,0.003,0.174-0.005,0.143-0.004l-0.003-0.001l-0.006-0.003l-0.012-0.005l-0.022-0.011l-0.089-0.04        c-0.058-0.026-0.114-0.051-0.168-0.075c-0.108-0.047-0.208-0.09-0.301-0.129c-0.186-0.075-0.343-0.139-0.479-0.193        c-0.271-0.104-0.455-0.172-0.61-0.25c-0.309-0.157-0.498-0.361-1.015-1.007c-0.084,0.49-0.242,0.757-0.458,0.899        c-0.107,0.071-0.229,0.112-0.364,0.135c-0.116,0.013-0.235,0.003-0.367-0.011c-0.528-0.059-1.162-0.218-1.919,0.33        c-2.393-1.275-0.387-1.886-3.209-1.732c-0.581-0.448-0.228-0.696,0.25-0.837C301.978,399.939,302.589,399.849,302.589,399.849        z M228.351,402.767c-0.004-0.01-0.007-0.017-0.009-0.021c0.565-0.272,1.047-0.505,1.355-0.653        C229.417,402.233,229.028,402.428,228.351,402.767z M222.722,404.879c0.7-0.193,1.565-0.44,2.467-0.78        c0.331,0.281,0.259,0.763-0.329,0.934C225.086,404.687,223.659,404.915,222.722,404.879z M237.981,406.961        c-0.838,0.568-1.234,0.51-1.457,0.359c0.419-0.218,0.903-0.486,1.527-0.863c0.009-0.051,0.042-0.119,0.048-0.174        C238.106,406.517,238.091,406.746,237.981,406.961z" style="fill:#373737;"/><path d="M238.97,404.886c0.119-0.081,0.17-0.157,0.334-0.242c-0.223-0.007-0.433-0.005-0.638,0.013        c-0.059,0.16-0.118,0.322-0.171,0.465C238.656,405.042,238.822,404.96,238.97,404.886z" style="fill:#373737;"/><path d="M339.427,263.95l0.029-0.129c-0.048,0.106-0.096,0.205-0.169,0.269        C339.345,264.005,339.38,264.006,339.427,263.95z" style="fill:#373737;"/><polygon points="163.868,356.863 163.625,357.009 164.105,357.345       " style="fill:#373737;"/><path d="M343.534,298.554c-0.052,0.106-0.075,0.274-0.019,0.552        C343.57,299.052,343.56,298.823,343.534,298.554z" style="fill:#373737;"/><path d="M352.405,311.367c0,0,0.303,0.476,0.604,0.95c0.297,0.482,0.625,0.938,0.625,0.938        C353.113,312.422,352.743,311.814,352.405,311.367z" style="fill:#373737;"/><path d="M360.896,319.918c0.242-0.064,0.367-0.156,0.481-0.241c-0.005-0.008-0.011-0.013-0.013-0.021        L360.896,319.918z" style="fill:#373737;"/><path d="M324.817,183.594c-0.146-0.02-0.291-0.032-0.425-0.025        C323.38,183.607,324.056,183.643,324.817,183.594z" style="fill:#373737;"/><path d="M369.195,209.104c-0.504-0.342-0.997-0.676-1.447-1.075        C368.236,208.84,368.649,209.44,369.195,209.104z" style="fill:#373737;"/><path d="M268.043,195.045c0.004-0.009-0.003-0.009,0.001-0.021c-0.134,0.043-0.252,0.082-0.386,0.125        L268.043,195.045z" style="fill:#373737;"/><path d="M366.306,206.028c0.381,0.899,0.882,1.501,1.442,2.001        C367.352,207.362,366.902,206.554,366.306,206.028z" style="fill:#373737;"/><path d="M360.082,354.897l-0.311,0.452c0.069,0.029,0.105,0.088,0.125,0.146L360.082,354.897z" style="fill:#373737;"/><path d="M359.896,355.496l-0.184,0.595C359.85,355.848,359.962,355.633,359.896,355.496z" style="fill:#373737;"/><path d="M359.327,357.348l0.386-1.257C359.492,356.475,359.192,356.934,359.327,357.348z" style="fill:#373737;"/><path d="M367.384,341.726l-0.3-0.327C367.122,341.52,367.216,341.629,367.384,341.726z" style="fill:#373737;"/><path d="M369.143,337.495c-0.479,0.984-1.91,2.151-2.295,3.641l0.236,0.263        C366.81,340.498,369.409,338.744,369.143,337.495z" style="fill:#373737;"/><path d="M372.65,321.713c0,0,0.794,0.521,1.602,1.018c0.808,0.5,1.632,0.962,1.632,0.962        c-0.422-0.675-0.929-1.553,0.631-0.948c-1.824-1.553-1.696-1.273-1.679-0.819C374.866,322.352,374.801,322.954,372.65,321.713        z" style="fill:#373737;"/><path d="M363.274,314.706c1.696,1.104,0.372-0.511,0.613-0.633        C362.653,313.592,362.338,313.467,363.274,314.706z" style="fill:#373737;"/><path d="M346.395,238.728l0.818,0.649C347.811,237.867,346.866,239.185,346.395,238.728z" style="fill:#373737;"/><path d="M351.18,221.869c0.001,0-0.388,0.205-0.764,0.426c-0.381,0.219-0.762,0.439-0.762,0.439        l0.242,1.194c0,0,0.318-0.516,0.637-1.031C350.85,222.379,351.181,221.869,351.18,221.869z" style="fill:#373737;"/><path d="M363.197,219.953l-0.395,0.55c0,0,0.409-0.491,0.818-0.982        c0.404-0.499,0.834-0.974,0.833-0.975c0,0-0.327,0.338-0.635,0.698C363.509,219.599,363.197,219.953,363.197,219.953z" style="fill:#373737;"/><path d="M251.001,185.58l0.055,1.347c0.531,0.067,0.938-0.266,1.003-0.591        C252.125,186.012,251.862,185.676,251.001,185.58z" style="fill:#373737;"/><path d="M187.787,177.274c-0.86-0.384-2.793-0.183-3.685,0.76        C185.557,177.65,187.115,177.662,187.787,177.274z" style="fill:#373737;"/><path d="M147.338,346.354c0,0-0.235-0.253-0.47-0.506c-0.225-0.258-0.449-0.517-0.449-0.517        c0,0,0.312,0.536,0.662,1.056c0.341,0.521,0.682,1.044,0.682,1.044L147.338,346.354z" style="fill:#373737;"/></g></g></g><g><g><g><path d="M273.744,128.691c-0.186-0.309-0.815-0.779-0.886-0.455l0.867,1.026L273.744,128.691z" style="fill:#373737;"/><path d="M270.616,128.599c0.268,0.679,0.893,1.687,1.978,2.286c-0.771-1.058-0.311-0.782-1.239-2.03        c0.072-0.325,0.655-0.118,0.995,0.235c-0.192-0.299,0.51-0.154-0.02-0.817c-1.02-0.379-1.375-0.021-1.049,0.905        C270.986,129.075,270.788,128.774,270.616,128.599z" style="fill:#373737;"/><path d="M255.306,153.681l0.207-0.145C255.413,153.564,255.348,153.616,255.306,153.681z" style="fill:#373737;"/><path d="M252.855,172.295c-0.045-0.142-0.181-0.191-0.302-0.189        C252.653,172.234,252.744,172.338,252.855,172.295z" style="fill:#373737;"/><path d="M256.699,177.893c-0.07-0.045-0.13-0.067-0.195-0.1        C256.572,177.919,256.646,177.99,256.699,177.893z" style="fill:#373737;"/><path d="M255.306,153.681l-0.519,0.38C255.197,154.204,255.155,153.893,255.306,153.681z" style="fill:#373737;"/><path d="M270.732,133.643c0.003-0.117-0.051-0.255-0.137-0.41c-0.001,0.098-0.006,0.189-0.023,0.275        C270.627,133.554,270.673,133.593,270.732,133.643z" style="fill:#373737;"/><path d="M256.941,145.518l0.056-0.143c-0.122-0.099-0.275-0.207-0.45-0.322L256.941,145.518z" style="fill:#373737;"/><path d="M259.413,139.633c-0.11,0.106,0.868,0.661,1.281,0.932c-0.376-0.281-0.523-0.475-0.543-0.625        C259.962,139.839,259.726,139.739,259.413,139.633z" style="fill:#373737;"/><path d="M266.25,132.1l-0.026-0.232C266.237,131.932,266.229,132.021,266.25,132.1z" style="fill:#373737;"/><path d="M255.121,149.727c-0.162-0.042-0.309-0.066-0.402-0.071        C254.854,149.701,254.988,149.721,255.121,149.727z" style="fill:#373737;"/><path d="M280.267,125.87c-0.055-0.062-0.087-0.097-0.134-0.149        C280.184,125.826,280.229,125.893,280.267,125.87z" style="fill:#373737;"/><path d="M271.535,126.732l0.022-0.113c-0.152-0.152-0.3-0.299-0.446-0.444L271.535,126.732z" style="fill:#373737;"/><path d="M263.014,179.27c-0.013-0.012-0.018-0.011-0.029-0.019        C262.827,179.396,262.92,179.364,263.014,179.27z" style="fill:#373737;"/><path d="M308.961,149.768c-1.174-0.059-0.507-1.557-1.944-1.42        C307.431,148.52,307.989,150.039,308.961,149.768z" style="fill:#373737;"/><path d="M270.526,133.68c-0.035,0.072-0.073,0.144-0.128,0.203        C270.49,133.814,270.53,133.753,270.526,133.68z" style="fill:#373737;"/><path d="M307.017,148.348c-0.004-0.003-0.009-0.006-0.009-0.006l-0.14,0.019        C306.93,148.355,306.965,148.352,307.017,148.348z" style="fill:#373737;"/><path d="M276.89,175.466c-0.095-0.176-0.199-0.297-0.303-0.411        C276.631,175.162,276.709,175.282,276.89,175.466z" style="fill:#373737;"/><path d="M266.367,176.581l0.276,0.104C266.527,176.601,266.44,176.581,266.367,176.581z" style="fill:#373737;"/><path d="M281.249,171.914c0.162,0.021,0.272,0.141,0.378-0.073c-0.04-0.044-0.073-0.073-0.111-0.1        C281.521,171.908,281.469,172.011,281.249,171.914z" style="fill:#373737;"/><path d="M286.12,169.32c-0.069-0.059-0.135-0.095-0.202-0.144c-0.037,0.044-0.081,0.096-0.119,0.141        L286.12,169.32z" style="fill:#373737;"/><path d="M292.05,117.02c-0.246-0.231-0.47-0.502-0.681-0.78        C291.816,116.907,291.326,117.509,292.05,117.02z" style="fill:#373737;"/><path d="M270.22,133.273c0.213,0.191,0.302,0.309,0.307,0.407c0.022-0.054,0.036-0.113,0.046-0.171        C270.446,133.398,270.32,133.302,270.22,133.273z" style="fill:#373737;"/><path d="M277.624,163.82c0,0,0.189-0.04,0.378-0.08c0.187-0.049,0.372-0.099,0.372-0.099        C278.142,163.648,277.869,163.714,277.624,163.82z" style="fill:#373737;"/><path d="M312.408,114.038l-0.125-0.184C312.254,113.92,312.283,113.984,312.408,114.038z" style="fill:#373737;"/><path d="M280.281,162.456c0.31,0.285,0.551,0.422,0.755,0.48c-0.016-0.093-0.02-0.174-0.065-0.298        L280.281,162.456z" style="fill:#373737;"/><path d="M291.362,116.23c0.004,0.006,0.007,0.009,0.007,0.009S291.366,116.236,291.362,116.23z" style="fill:#373737;"/><path d="M288.349,121.138c0.628-0.359-0.491-1.401-0.815-2.2c0.531-0.833,0.928,0.701,1.578,1.182        c0.248-0.621-0.098-2.016,0.3-2.166c0.15,0.194,0.266,0.231,0.339,0.54c-0.083-1.305,1.472-0.906,1.358-2.542        c0.107,0.089,0.189,0.186,0.254,0.277c-0.451-0.595-0.828-1.246-1.063-1.727c0.284-0.2,0.132-1.123,0.7-0.334        c-0.203,0.072-0.035,0.424,0.02,0.734l0.124-0.535c0.939,1.079-0.212,0.648,0.276,1.553c0.396-0.71,0.603-2.106,1.263-2.003        c0.708,1.164-0.904,0.976,0.277,1.729l-0.968-0.088c1.55,1.614-0.507,0.09,1.066,1.861c1.109-0.125,0.73-1.151,1.842-1.276        c-0.114-0.783-0.56-0.974-0.669-1.755c0.833-1.867,2.519,2.608,2.769,0.506c-0.104-0.936-0.688-2.595,0.417-2.048l0.345,1.516        c1.003-0.236-0.293-2.259,1.105-1.705c0.041,0.633-0.566,0.774-0.354,0.886c1.097,0.868,0.135-0.992,0.643-1.195l0.593,1.228        c0.922-0.618,1.749-1.885,2.836-2.54c0.058,0.407-0.006,0.879,0.389,1.184c1.249-1.08,3.165-0.787,4.726-0.283l0.276-1.27        c0.13-0.016,0.346,0.464,0.259,0.718c0.638,0.308-0.129-0.734,0.04-1.248c0.301-0.155,0.552,0.563,0.426,0.955        c0.379-0.597,0.98-1.224,1.652-1.606c0.67-0.387,1.408-0.472,2.005,0.11l-0.157,0.368c0.844,0.386,0.646-2.493,1.527-1.491        l-0.127,0.224c1.112,0.18,2.239-0.091,3.285-0.022c-1.192-1.065-2.386-2.13-3.546-3.166c-0.042,0.681-0.256,1.33-0.906,1.896        c1.716,0.165-0.633,1.771,1.697,1.813c-1.161,1.058-1.585,0.771-2.356,2.169c-0.096,0.368,1.452,0.593,1.68,1.083        l-1.233-0.034l1.26,0.697l-1.49,0.264l0.294,0.457c0.08-0.169,0.571-0.34,0.925-0.293c0.534,0.743-0.957,1.636-1.604,1.583        l0.858,1.729c-0.488-0.097-0.627-0.388-0.919-0.636c1.156,1.007-1.307,0-0.246,0.922c0.288-0.069,0.723,0.151,0.967,0.203        c-0.762,0.303-0.948,1.176-0.738,1.891l-0.818-0.266c-0.377,1.136-0.06,2.549-0.375,3.872c0.49-0.381,1.902,0.053,1.951,0.489        l-1.303-0.146c0.728,0.446,0.571-0.3,1.412,0.46c-0.26,0.477-1.513-0.02-1.862-0.403c0,0,0.076,0.178,0.152,0.356        c0.067,0.178,0.136,0.355,0.136,0.355c-0.388-0.062-0.547-0.252-1.019-0.41c0.715,0.452-1.546,0.676-0.286,1.393l-0.383-0.071        c-0.349,1.291-0.131,1.999-0.418,3.07c1.06,0.379,0.686,0.712,1.438,1.333c-0.593,0.682-1.787,1.211-2.042,2.169        c0.268,0.86,0.81,0.546,1.313,1.095c-0.954-0.331-1.271,0.615-1.74-0.142c-0.335,1.154-0.414,1.467-0.297,3.206        c0.456,0.033,0.701-0.062,0.976,0.175c0.028,0.326-0.673,0.389-1.098,0.139l-0.063-0.111c0.303,1.101-0.802,1.682-1.83,2.192        c-1.052,0.508-1.99,0.971-1.392,2.095l-0.055-0.119c0,0,0.077,0.448,0.126,0.887c0.054,0.445,0.106,0.889,0.106,0.889        c-0.492,0.462-0.455-0.73-1.248-0.65c0.334,1.085-0.033,1.576-0.445,1.981c-0.431,0.397-0.895,0.719-0.774,1.558        c-1.518-0.448-1.933,0.272-2.32,1.089c-0.38,0.816-0.659,1.794-1.835,1.681l0.606,0.383c0.337,0.692-0.574,0.061-0.854,0.146        c0.452,0.32,0.727,0.119,0.898,0.522c-0.141,0.343-0.316,0.663-0.521,0.962c-0.103,0.149-0.212,0.294-0.328,0.434        l-0.179,0.207c-0.073,0.085,0.099-0.113,0.08-0.092l-0.001,0.001l-0.004,0.003l-0.006,0.006l-0.013,0.013l-0.026,0.026        l-0.052,0.051l-0.106,0.102c-0.57,0.537-1.229,1.006-1.922,1.446c-0.354,0.241-0.689,0.394-1.025,0.547l-1.004,0.459        l-0.966,0.462c-0.33,0.158-0.668,0.323-0.979,0.5c-0.879,0.544,2.033,3.129-0.085,2.764l-0.592-1.249        c-0.263,1.292-1.142,1.959-1.991,2.618c-0.891,0.618-1.787,1.189-2.241,2.36c-0.07-0.317-0.3-0.647-0.134-0.763        c-0.9-0.521-1.36,0.856-0.935,1.523c-0.321,0.106-0.457-0.548-0.842-0.77c-0.668-0.236-0.249,1.64-0.958,0.965        c-0.115-0.11-0.063-0.332-0.038-0.438c0.016,0.557-1.193,0.576-0.38,1.387c-0.939-0.057-1.039,1.191-1.901,0.941        c0.237,1.277-1.461,0.091-0.756,1.7c-0.801-1.632-1.861-0.653-1.947,0.316c-0.089-0.56-0.634-0.335-0.785-1.098        c-0.489,0.249-0.811,0.764-0.34,1.571c-0.917-0.772-1.198-0.165-1.483,0.36c-0.289,0.495-0.576,0.909-1.352-0.279        c-1.159,1.536-2.449,2.597-3.787,3.471c-0.447-1.751,1.546-0.681,0.912-2.466c-0.547,0.558-0.908,1.292-1.334,1.851        c-0.427,0.542-0.913,0.949-1.655,0.909c-0.411-0.151,0.024-0.812,0.066-1.14c-1.2,1.109-2.663,0.371-3.737,1.58        c-0.021-0.167,0.086-0.373,0.19-0.531c-0.234,0.102-0.599-0.161-0.459,0.641l0.207-0.258c0.583,1.131-0.656,2.592-0.649,3.21        c0.155-2.379-1.354-0.455-0.98-3.479c-0.143,0.171-0.308,0.579-0.22,1.121c-0.259-0.134-0.359-0.445-0.177-1.092        c-0.829,0.525-0.456,1.396-1.27,1.417c-0.02-0.397,0.134-0.554,0.186-1.021c-0.348,0.782-0.737,1.566-1.441,1.25        c0.035-0.24-0.052-0.55,0.151-0.549c-0.581,0.074-1.075,0.609-1.607,1.025c-0.526,0.378-1.096,0.646-1.736,0.239        c0.485-1.702-0.412-0.589-0.369-2.082l-0.713,0.411l0.211,0.735c-0.099-0.009-0.198,0.011-0.298,0.05        c0.91,0.878,1.82,1.756,2.701,2.606c-0.265-0.464-0.997-0.851-0.631-1.34l0.653,0.396l-0.387-1.124l-0.504,0.707        c-0.825-0.567-1.875,0.241-1.54-0.651c0.17,0.165-0.043-0.653,0.809-1.031c0,0,0,0.002,0.004,0.002        c-0.48-0.288-0.987-0.602-0.625-1.092c0.475-0.135,1.652,0.05,1.969-0.039c-1.253-0.272-0.374-1.444-1.712-1.847        c0.315,0.136,1.1,0.148,1.258,0.108l-1.019-0.271c0.336-0.29,0.498-0.327,1.12-0.267c0.23-0.867-1.908,0.231-1.039-0.796        c0.078,0.086,0.231,0.052,0.377,0.229c0.497-1.021-0.585-2.077,0.048-3.007c1.528-0.137,0.27,0.867,1.569,0.657        c-0.097-1.348-1.515-3.041-0.882-4.328l-0.208,0.221c-2.058-0.546,1.209-0.817,0.343-1.663        c0.125,0.197,1.118,0.441,0.894,0.352c0.467-0.833-0.1-1.92-0.438-3.472l0.488,0.305c0.579-0.414,0.64-1.314,1.046-1.809        c-0.474-0.318-0.291-0.62-1.11-0.647c1.741-0.438,1.58-1.361,1.427-2.315c-0.167-0.945-0.424-1.947,1.09-2.231        c-0.067,0.182,0.271,0.596,0.332,0.456l0.052-1.454c-0.897-0.247-0.587-0.044-1.366-0.04        c-0.441-0.367-0.683-0.898-0.549-1.226c0.324,0.824,1.375,0.558,1.95,0.513c-0.278-0.068-0.531-0.274-0.806-0.365        c1.793-0.03-1.672-0.847-0.255-1.338l0.422,0.244c-0.069-0.439-0.507-1.021-0.207-1.335c1.042,0.293,0.283,0.573,1.075,0.958        c0.178-0.528-1.363-1.872-0.182-1.887c0.167,0.349,0.024,0.666,0.19,1.01c1.371,0.028,1.107-0.161,1.46-0.446l-0.042,0.024        c0,0,0.227-0.151,0.453-0.303c0.235-0.145,0.471-0.29,0.471-0.29l-0.415,0.06c-2.165-1.876,0.204-1.492-0.966-3.198        c1.091,1.647,0.811,0.608,1.844,1.248c0.407-0.054,0.904-0.194,1.156,0.061c-0.654-0.864,1.031-0.256,0.094-1.498        c0.354,0.17,0.27-0.389,1.067,0.188c0.02-0.645-0.653-0.225-1.055-0.509c-0.354-0.718,0.261-0.973,0.837-1.287        c0.595-0.307,1.16-0.663,0.733-1.696c-0.043-1.342-1.021-2.25-0.942-3.489c0.717,0.064,1.001,1.046,1.001,1.046        c0.799-0.138,0.952-0.54,0.897-1.239c0.213,0.287,0.512,0.364,0.958,0.49c0.16-0.404-0.988-1.076-0.181-1.181        c0.289,0.336,0.773,0.849,1.003,1.267c0.01-0.602-0.273-1.429-0.234-2.057c0.622,0.307,0.627,0.876,0.872,1.286        c0.104-0.637,0.417-1.553-0.311-2.372l-0.53,0.06c0.09-0.204,0.79,0.488,0.85,0.733c0.361,0.914-0.729,0.339-1.06,0.124        l0.029-0.449c-2.04-1.09-0.642,1.416-1.172,1.931l-1.161-1.241l0.67,1.449c-0.445-0.119-1.271-0.562-1.254-1.019        c-0.986-0.023,0.203,0.741-0.819,0.603c-0.147-0.039-0.199-0.104-0.226-0.182l0.096,0.727        c-0.227-0.286-1.02-0.592-0.629-0.731c-1.371,0.265,0.142,1.998-1.104,1.614l-0.041-0.125c-0.26,1.45,0.95,0.783,1.621,2.394        l-2.92-1.027l0.967,0.755c-0.111,0.094-0.339,0.279-0.729-0.018c0.45,0.881,0.497,0.199,1.021,0.868        c-1.29,0.008-0.467,1.843-2.231,1.007c0.688,0.666,0.943-0.198,1.147,0.738c-1.919-0.848-0.115,0.878-1.225,0.958        c-0.863-0.68-0.087-0.931-1.222-0.841c1.434,1.198-0.912,0.884-0.851,1.522c1.288,0.688-0.007,1.274,0.078,2.288        c-0.415-0.263-1.416,1.151-2.246,1.692l-0.213-0.12c1.282,0.737,0.712,1.402,0.762,2.084c-0.806-0.356-1.084-0.59-1.319-1.054        l-0.216,0.545c0.384,0.306,0.545,0.567,0.559,0.977l-0.964-0.542c-0.255,0.75,0.627,1.917-0.385,2.609        c0.95,0.386,2.939,0.241,3.249,1.421c-0.535-0.149-1.441-0.426-1.565-0.756c0.039,0.108,0.329,0.449,0.047,0.538l-0.741-0.698        c-0.536,0.288,0.656,0.479,0.456,0.784c-0.744-0.264-0.621,0.067-1.197-0.184c-0.041-0.112,0.414-0.19,0.167-0.422        c-0.269,0.337-0.877,0.653-1.5,0.624c0.438,0.107,1.009,0.334,1.008,0.647c-0.169,0.758-0.981-0.037-1.499,0.28        c0.469,0.345-0.217,0.66,0.91,1.013c-0.07,0.215-0.61,0.099-0.942,0.094c0.385,0.537-0.392,1.856,0.948,1.75l0.109-0.076        c0.019,0.025,0.013,0.046,0.032,0.076c0.001-0.003,0,0,0.001-0.003l-0.001,0.003c0.817,1.544-1.303,2.465-1.08,3.859        l-0.386-0.08c0.306,0.854-0.042,1.76,0.701,2.436c-0.041,0.221-0.807,0.417-1.254,0.251c0.187,0.634,0.646,0.757-0.106,1.528        c-0.615-0.686-0.631,0.131-0.43-0.679c-0.428,0.729-1.079,0.851-0.102,1.802c-0.973-0.394-1.335,0.468-1.077,0.873        l0.784-0.486c0.094,0.43-0.031,0.786-0.127,1.155l-1.317-0.304c-0.851,0.77-0.202,1.578,0.317,2.282        c0.504,0.713,0.916,1.329-0.417,1.962c0.938,0.429,0.64-0.892,1.735-0.498c-0.167,0.724-2.062,1.547-2.061,1.797        c-0.704,1.09,1.93,0.894,1.533,1.984c0.459-0.173,1.714-0.371,2.229,0.356c-0.111,0.72-1.901,1.081-2.323,0.641        c-0.057-0.176,0.085-0.276,0.247-0.282c-0.194-0.225-0.426-0.531-0.912-0.19l0.482,0.06c-0.449,0.412-0.302,1.457-1.099,1.294        c0.505,0.532,0.797,0.158,1.003-0.288c-0.299,0.524-0.266,0.911-0.206,1.294l0.516,3.302l2.894-0.012        c0.389-0.002,0.781-0.029,1.272,0.227c-0.146-0.27-0.253-0.834-0.096-0.821c1.439,0.665,0.696-0.865,1.674-1.022        c0.536,0.748-0.244,1.725,0.768,1.152c0.609,0.475,0.128,1.257-0.133,1.649c0.938-0.937,1.766,0.558,2.334,0.71l-0.495,0.396        c0.299-0.236,0.546-0.236,0.8-0.24l-0.326-0.941c0.299,0.157,0.548,0.154,0.562,0.548c0.267-0.63-0.301-1.57,0.231-2.437        c0.411,0.491,1.087-0.617,1.322,0.636c-1.222-0.306,0.238,1.248-0.772,1.554c0.188-0.17,0.43-0.188,0.736-0.051        c0.056,0.136-0.021,0.264-0.095,0.344c1.28,1.002,0.417-1.474,1.6-1.567c-0.071,0.721,0.437,1.308,0.618,1.137        c-0.493,0.037-0.37-1.152-0.01-1.736c0.83,0.473,0.751-0.532,1.146-0.523l-0.478-0.181c0.044-0.727,0.419-0.699,0.884-1.008        c0.136,0.538-0.396,0.456-0.176,0.665c0.343-1.327,1.506,1.047,2.151,0.078c0.468,0.401,0.312,1.308,0.705,1.55        c0.694-1.118,1.198,0.708,1.977-0.269c-0.509-0.856-0.487-0.621-0.07-1.684l-1.365,1.029l0.649-1.589        c-0.452,0.098-0.816,0.82-1.127,0.729c0.289-0.872,0.288-0.628-0.101-1.348c0.943,1.242,1.003-1.107,1.938-0.343l0.592,2.288        c1.408,0.744,1.585-1.747,3.142-1.601l-0.574-0.248c-0.113-0.956,0.812-0.381,1.12-0.908c0.224,0.76,0.593,0.924,0.952,1.314        c-0.227-0.541,1.024-0.337,0.575-1.854l0.982,0.735c1.273-0.024,0.36-2.583,1.453-2.777c0.049,0.921,0.74,1.221,0.305,2.094        c0.345-0.148,0.714-0.157,0.492-0.658c0.41,0.357,0.492-1.392,1.121-0.854c-0.009-0.382-0.316-1.133,0.074-1.264        c0.11,0.123,0.171,0.352,0.171,0.352c-0.17-0.352,0.331-0.772-0.375-1.39c1.041,0.846,1.729,0.435,2.365,0.002        c0.648-0.421,1.207-0.93,2.167-0.265c0.557-0.647,1.266-1.335,1.838-1.783c0.088,0.225,0.21,0.333,0.051,0.34        c1.238,0.058-0.72-2.243,0.657-2.177c1.193,0.738-0.114,0.906,0.454,1.108c1.58,2.058,0.96-1.038,2.442-0.262l-0.063,0.237        c0.999,0.358,0.591-1.664,1.466-2.084c0,0,0.102,0.21,0.234,0.315c-0.259-1.429,0.389-2.569,0.854-3.42        c0.434,0.96,0.023,0.678,0.818,1.361c0.224-0.374-1.149-1.203-0.715-1.936c0.559,0.258,1.334,0.259,2.112,1.028l-0.56,0.55        c1.245,0.834,0.745-0.697,1.207-0.79l0.374,0.502c0.768-0.973-0.288-2.137,0.728-2.912l-0.423-0.252        c-0.58-1.594,1.03,0.213,0.712-1.103l1.275,0.957c0.06-0.615,0.08-2.222,0.378-3.004c0.603,1.112,0.313,2.218,0.38,3.15        c0.339-0.331,1.078-1.246,0.634-1.93c0.004,0.232,0.113,0.664-0.197,0.635c-0.498-1.246-0.527-2.171,0.094-2.81        c1.088,1.078,1.613,0.781,2.141,0.353l0.099-0.082l0.05-0.041l0.013-0.01l0.068-0.075l0.025-0.023l0.204-0.18        c0.14-0.116,0.29-0.221,0.458-0.296c0.338-0.15,0.752-0.18,1.32,0.063c0.164-1.961,2.38-2.279,3.382-3.954        c-2.327-0.813,0.259-0.501-1.815-1.803c0.115-0.448,0.24-0.561,0.394-0.504l1.956-0.287c0.773,0.126,0.214,0.647,0.693,0.917        c0.707-0.713,1.096,0.229,2.011,0.034c-0.805-0.361-0.869-0.969-0.293-1.272l-1.365,0.068        c-0.391-1.851,2.362,0.077,1.994-1.789l0.429,0.774c0.007-0.829,1.363-2.3-0.028-3.854c0.308,0.027,0.977,0.201,0.979,0.561        c0.554-0.671,0.538-1.758,0.56-2.746c0.029-0.987,0.149-1.85,0.967-2.192l0.489,0.37c-0.026-0.365-0.797-0.973-0.09-1.084        c0.217,0.12,0.492,0.363,0.584,0.242c-0.119-0.241-0.618-1.194-0.131-1.436l0.473,0.596c1.418-1.217-0.539-2.988-0.431-4.378        c1.648,0.63,2.658-0.399,3.12-0.944l0.229,0.103c0.412-0.899,0.333-1.808,0.123-2.715c-0.239-0.92-0.6-1.837-0.698-2.777        c1.085-0.28,1.502-1.159,1.81-2.15c0.32-0.991,0.56-2.08,1.217-2.89c-0.36,0.219-1.344-0.286-1.466-0.625        c0.422-0.359-1.018-1.327,0.566-1.015l-0.055,0.143c1.616-0.07,1.359-1.008,1.46-1.687l-2.084-0.373        c1.61-0.683,1.494-1.896,1.237-2.972c-0.266-1.087-0.58-2.036,0.82-2.48c-0.496-0.447-0.49-0.979-1.025-1.408l1.133,0.033        c0.269-1.201,0.443-1.819,0.104-3.301l0.83,0.271c0.014-0.868-3.335-0.893-3.452-1.621l1.669-0.354        c-0.041-0.465,0.072-0.945,0.191-1.431l0.664-2.727l-5.405-1.506c-1.008-0.281-2.074-0.58-2.99,0.505        c0.006-0.248,0.013-0.737,0.251-0.817c-0.701-0.034-2.825-0.858-2.306,1.405c-0.191-1.493-1.538,0.002-2.17,0.819        l-0.055-1.121c-0.426,1.519-0.373,1.905-1.183,2.446c-0.234-0.106-0.349-0.845-0.017-0.614        c-0.811-0.441-0.348,1.11-1.293,0.717l0.166-0.769c-0.729,0.08-0.597,0.441-0.803,1.341c-0.338,0.538-1.386,0.033-1.741-0.918        c0.052,0.625-0.133,1.492-0.609,1.333c-0.153-0.353-0.064-0.624-0.019-0.757c-1.377-0.394-1.372,1.744-2.477,0.924        c-0.124-0.348-0.231-0.509-0.331-0.597c0.94-0.245,1.708-0.402,1.659-0.304c-0.272-0.991-1.097-0.941-0.87-2.483        c-0.423,0.938-0.981,2.819-1.844,2.613c-0.065-0.083-0.13-0.164-0.205-0.305l0.039-0.135c-0.2-0.04-0.322,0.103-0.409,0.316        c-0.286-0.081-0.475-0.147-0.703-0.084c-0.362-0.775-1.018-0.135-1.406-0.045c0.412,1.047-0.132,1.044,0.639,1.76        c-0.086-0.054,0.023-0.15,0.253-0.278c0.044-0.05,0.104-0.088,0.117-0.164c0.003,0.03,0.006,0.066,0.009,0.102        c0.23-0.114,0.537-0.247,0.891-0.387c-0.108,0.642-0.246,1.197-0.859,0.749c0.055,0.746,0.105,1.514,0.112,1.88        c-1.027-1.313-2.281-1.701-2.774-2.553c-0.444,0.517-1.062,0.875-1.551,1.383c-0.482,0.521-0.825,1.208-0.727,2.32        c-0.188,0.384-0.597-0.394-0.849-0.644c0.088-0.273,0.311-0.339,0.282-0.66c-0.388,0.774-1.732,1.015-1.228,2.417        c-1.035-0.218-0.173-1.437-1.097-0.694l-0.061-0.476c-1.548-0.529-1.981,0.736-2.406,1.939        c-0.426,1.23-0.854,2.367-2.719,1.689c0.247,0.072,0.366,0.104,0.523,0.298c-1.559,0.175-2.664,1.227-3.751,2.229        c-1.083,1.027-2.201,1.922-3.955,1.982c-0.904,0.162-0.394,0.959-0.327,1.815l-0.897-0.833c0,0,0.056,0.401,0.111,0.802        c0.063,0.405,0.127,0.81,0.127,0.81c-0.204,1.544-3.521-0.926-3.365,1.587l0.699,0.456c-0.505,0.27-0.908,1.537-1.508,0.815        c0.064,0.145,0.474,0.717,0.017,0.569l-0.466-0.428c0,0-0.048,0.422-0.096,0.844c-0.039,0.418-0.05,0.838-0.05,0.838        c-1.013,0.417-1.731-1.823-2.812-0.843c-0.189,0.561,0.3,2.378,0.748,2.518c0.171-0.138,0.667-0.14,1.143,0.28l-0.096,0.585        c1.303,1.334,2.441,2.911,4.22,2.909l-0.259-1.394l0.847,0.416l-0.442,0.559c0.897,0.284,0.521-0.415,0.338-0.977        c0.397,0.278,0.725,0.419,0.97,0.418c0,0-0.185-0.455-0.369-0.909c-0.187-0.444-0.373-0.888-0.373-0.888        c0.595,0.44,0.818,1.213,1.463,1.156c-0.348-0.808-1.43-0.892-1.398-1.67c0.879,0.332,1.286,0.896,1.082,0.092        c0.382,0.298,0.532,0.578,0.563,0.839c-0.139-0.662,0.535-0.849-0.003-1.705c0.963,0.5,0.789-1.086,1.938,0.254        c-0.189-0.393-0.392-1.488-0.159-1.785c0.872,2.035,1.109-0.793,2.417,1.065c-0.831-1.774,0.842-1.724,0.882-3.095        c0.052,0.15,0.161,0.453,0.043,0.422c0.482-0.172,0.928,0.192,1.393,0.302c-0.88-1.296-0.463-2.026-0.675-3.059        c1.368,0.888,0.76,1.714,1.76,2.788c-0.764-1.016,0.114-1.629-0.653-2.384c0.908,0.505,0.584,0.144,1.506,1.083        c-1.031-1.669,0.155-0.523-0.184-1.725c1.095,0.45,1.147,1.446,1.437,0.557C288.51,120.214,288.349,121.138,288.349,121.138z         M302.471,110.677c0.003,0.01,0.006,0.018,0.007,0.021c-0.136,0.075-0.251,0.139-0.325,0.179        C302.219,110.836,302.311,110.778,302.471,110.677z M303.887,110.238c-0.187,0.008-0.404,0.063-0.631,0.136        c-0.164-0.357-0.227-0.755-0.075-0.777C303.178,109.867,303.582,109.984,303.887,110.238z M298.322,103.847        c0.198-0.236,0.354-0.057,0.463,0.149c-0.111,0.059-0.236,0.142-0.391,0.277c0.005,0.04,0.012,0.097,0.017,0.14        C298.363,104.202,298.324,104.003,298.322,103.847z" style="fill:#373737;"/><path d="M298.37,105.39c-0.027,0.035-0.031,0.087-0.073,0.112c0.083,0.076,0.159,0.139,0.23,0.188        c-0.011-0.124-0.021-0.247-0.031-0.362C298.453,105.349,298.409,105.371,298.37,105.39z" style="fill:#373737;"/><path d="M255.546,153.511l-0.034,0.026c0.051-0.015,0.101-0.029,0.174-0.026        C255.627,153.518,255.594,153.509,255.546,153.511z" style="fill:#373737;"/><polygon points="311.937,112.428 312.22,112.437 311.979,112.304       " style="fill:#373737;"/><path d="M261.983,146.7c0.098,0.023,0.203,0.035,0.307,0.011        C262.22,146.687,262.108,146.69,261.983,146.7z" style="fill:#373737;"/><path d="M263.682,143.54l0.573-0.281C263.957,143.354,263.794,143.452,263.682,143.54z" style="fill:#373737;"/><path d="M265.426,141.355c-0.158-0.124-0.284-0.203-0.399-0.275l-0.01,0L265.426,141.355z" style="fill:#373737;"/><path d="M265.028,169.179c0.033-0.012,0.064-0.032,0.09-0.067        C265.314,168.855,265.172,168.968,265.028,169.179z" style="fill:#373737;"/><path d="M256.97,170.361c0.212,0.126,0.428,0.249,0.566,0.382        C257.602,170.51,257.604,170.334,256.97,170.361z" style="fill:#373737;"/><path d="M277.541,163.836c0.003,0.008,0.003,0.008,0.007,0.018c0.024-0.016,0.05-0.022,0.076-0.034        L277.541,163.836z" style="fill:#373737;"/><path d="M257.571,171.337c0.202-0.244,0.138-0.428-0.035-0.594        C257.479,170.933,257.384,171.162,257.571,171.337z" style="fill:#373737;"/><path d="M272.274,131.791l0.115-0.074c-0.059-0.044-0.102-0.088-0.132-0.125L272.274,131.791z" style="fill:#373737;"/><path d="M272.258,131.592l-0.016-0.197C272.201,131.447,272.174,131.499,272.258,131.592z" style="fill:#373737;"/><path d="M272.207,130.975l0.035,0.42C272.309,131.313,272.415,131.231,272.207,130.975z" style="fill:#373737;"/><path d="M269.72,134.362l0.311,0.269C269.974,134.563,269.875,134.477,269.72,134.362z" style="fill:#373737;"/><path d="M269.188,135.326c0.229-0.163,1.093-0.042,1.089-0.482l-0.246-0.213        C270.432,135.114,268.765,134.733,269.188,135.326z" style="fill:#373737;"/><path d="M262.407,136.658l0.773-0.685c-0.458-0.077-1.075-0.177-0.937-0.623        C260.501,135.774,263.206,135.628,262.407,136.658z" style="fill:#373737;"/><path d="M260.364,139.035c0.068-0.569-0.561-0.291-0.765-0.43        C259.791,139.094,259.844,139.211,260.364,139.035z" style="fill:#373737;"/><path d="M253.235,160.14l-1.003-0.205C252.308,160.374,252.623,159.997,253.235,160.14z" style="fill:#373737;"/><polygon points="258.061,164.791 258.712,164.474 257.786,164.228       " style="fill:#373737;"/><path d="M250.659,166.944l-0.138-0.193c0,0,0.085,0.183,0.169,0.366        c0.096,0.182,0.191,0.365,0.191,0.365s-0.058-0.134-0.117-0.269C250.703,167.079,250.659,166.944,250.659,166.944z" style="fill:#373737;"/><path d="M285.767,170.685l-0.729-1.033C284.906,169.993,285.543,171.261,285.767,170.685z" style="fill:#373737;"/><path d="M298.199,159.865c0.566,0.347,1.188,0.287,0.96-0.36        C298.83,159.712,298.228,159.629,298.199,159.865z" style="fill:#373737;"/><polygon points="321.698,117.287 322.08,117.674 321.802,116.995       " style="fill:#373737;"/></g></g></g><g><g><g><path d="M431.135,31.842c-0.919,0.309-0.46,1.087,2.12,1.111c0,0,0.485-0.3,0.97-0.6        c0.492-0.28,0.984-0.56,0.984-0.56s-1.021-0.035-2.041,0.003C432.151,31.819,431.135,31.842,431.135,31.842z" style="fill:#373737;"/><path d="M447.65,37.197c1.517,0.1,3.155,0.281,4.289,0.129c1.116-0.116,1.704-0.49,1.003-1.444        c-1.665,0.059-2.604-0.083-3.587-0.195c-0.991-0.068-2.011-0.174-3.755,0.144c-2.486-0.527-4.235-1.425-3.717-1.826        c-0.941,0.116-3.903-1.028-5.387-0.349c3.179,1.43,7.155,2.234,11.595,2.756C448.902,36.968,447.923,37.026,447.65,37.197z" style="fill:#373737;"/><path d="M482.43,263.121l0.207-1.573C482.536,261.977,482.472,262.516,482.43,263.121z" style="fill:#373737;"/><path d="M476.961,414.865c0.004-1.156-0.111-1.643-0.229-1.706        C476.785,414.235,476.838,415.119,476.961,414.865z" style="fill:#373737;"/><path d="M470.984,438.622c0.234-0.464,0.432-0.855,0.644-1.277        C471.301,437.8,471.024,438.275,470.984,438.622z" style="fill:#373737;"/><path d="M482.43,263.121l-0.542,4.041C482.311,267.46,482.272,265.095,482.43,263.121z" style="fill:#373737;"/><path d="M478.196,53.219c-0.626-0.646-1.243-1.091-1.826-1.475c0.545,0.493,1.08,0.965,1.578,1.507        C478.028,53.232,478.096,53.217,478.196,53.219z" style="fill:#373737;"/><path d="M483.448,196.184l0.036-1.234c-0.139-0.367-0.311-0.712-0.506-1.04L483.448,196.184z" style="fill:#373737;"/><path d="M484.85,144.833c-0.085,1.159,1.025,1.598,1.503,2.058c-0.442-0.67-0.636-1.535-0.691-2.556        C485.448,144.311,485.188,144.454,484.85,144.833z" style="fill:#373737;"/><path d="M481.366,65.373c0,0-0.21-0.288-0.419-0.575c-0.204-0.29-0.429-0.566-0.428-0.567        C480.763,64.513,481.095,65.036,481.366,65.373z" style="fill:#373737;"/><path d="M482.057,232.926c-0.17,0.082-0.321,0.261-0.417,0.456        C481.781,233.386,481.921,233.207,482.057,232.926z" style="fill:#373737;"/><path d="M371.734,26.847c-0.044,0.079,0.014,0.132-0.003,0.201        C372.034,26.946,372.129,26.87,371.734,26.847z" style="fill:#373737;"/><path d="M431.012,34.792l-0.828,0.027c-0.095,0.209-0.195,0.414-0.203,0.622L431.012,34.792z" style="fill:#373737;"/><path d="M439.764,467.968c0.08-0.024,0.108-0.033,0.186-0.057        C440.941,467.349,440.359,467.621,439.764,467.968z" style="fill:#373737;"/><path d="M37.988,440.008c-0.144,2.35-0.756,0.573-1.321-0.974c-0.302-0.775-0.528-1.459-0.737-1.526        c-0.197-0.063-0.414,0.486-0.404,2.306c0.185-0.364,0.806,1.187,1.476,2.026C37.664,442.688,38.14,442.872,37.988,440.008z" style="fill:#373737;"/><path d="M479.005,54.377c0.501,0.534,0.949,1.132,1.408,1.72        C479.815,55.279,479.395,54.739,479.005,54.377z" style="fill:#373737;"/><path d="M35.526,439.813c-0.005,0-0.01,0.001-0.01,0.001l0.005,0.749        C35.523,440.253,35.524,440.078,35.526,439.813z" style="fill:#373737;"/><path d="M333.192,476.604c0.233,0.189,0.675,0.322,1.134,0.447        C334.285,476.938,334.027,476.807,333.192,476.604z" style="fill:#373737;"/><path d="M414.633,474.947l-2.019-0.07C413.416,474.947,414.063,474.957,414.633,474.947z" style="fill:#373737;"/><path d="M291.007,479.879c-1.1-0.042-1.478-0.182-2.966,0.029c0.14,0.051,0.279,0.085,0.459,0.118        C289.035,479.851,289.752,479.751,291.007,479.879z" style="fill:#373737;"/><path d="M247.029,481.646c0.237,0.076,0.547,0.128,0.821,0.193c0.435-0.036,0.943-0.078,1.392-0.116        L247.029,481.646z" style="fill:#373737;"/><path d="M238.064,22.042c0.95,0.354,1.537,0.727,1.991,1.091        C239.408,22.307,245.88,22.28,238.064,22.042z" style="fill:#373737;"/><path d="M477.738,53.655c0.39,0.015,0.755,0.223,1.267,0.722c-0.364-0.389-0.715-0.763-1.057-1.127        C477.734,53.259,477.599,53.343,477.738,53.655z" style="fill:#373737;"/><path d="M289.573,488.813l-6.995,0.114C284.536,488.958,287.078,488.914,289.573,488.813z" style="fill:#373737;"/><path d="M19.718,144.677l-0.181-1.602C19.53,143.696,19.578,144.264,19.718,144.677z" style="fill:#373737;"/><path d="M261.85,489.923c-1.263-0.347-2.593-0.523-3.965-0.619c-0.285,0.099-0.613,0.185-0.8,0.322        L261.85,489.923z" style="fill:#373737;"/><path d="M240.068,23.146c-0.013-0.005-0.013-0.012-0.013-0.012S240.055,23.14,240.068,23.146z" style="fill:#373737;"/><path d="M286.198,22.317c-6.657-0.298-3.186,1.32-4.632,2.112c-7.963,0.101-3.634-1.235-6.309-2.098        c-4.978,0.192-8.837,1.395-12.535,1.189c-0.266-0.254-0.981-0.372-0.126-0.642c-5.293,0.964-15.574-0.565-21.746,0.665        c-0.449-0.149-0.673-0.282-0.783-0.398c0.961,0.779,1.082,1.537,0.859,2.063c-2.986-0.094-5.576,0.711-6.661-0.299        c1.829,0.102,1.996-0.282,2.865-0.549l-3.144,0.295c-2.76-1.5,4.289-0.31,4.33-1.337c-6.117,0.208-13.27,1.072-17.927,0.493        c-0.922-1.396,10.945-0.02,4.757-1.476l7.21,0.808c-5.44-2.362,4.387,0.326-0.598-2.168c-9.499-0.774-10.67,0.266-20.146-0.51        c-2.167,0.669,0.662,1.145-1.505,1.813c-13.544,0.816-10.483-3.838-20.474-2.427c-2.604,0.802-3.668,2.479-10.693,1.289        l2.469-1.438c-9.206-0.52-5.348,1.996-14.954,0.578c1.739-0.535,7.261-0.219,5.874-0.457        c-6.201-1.462-4.455,0.693-9.261,0.501l-0.94-1.399c-9.816-0.178-20.659,0.371-31.532,0.185        c0.617-0.38,2.496-0.731-0.028-1.249c-13.729,0.131-29.239-1.335-42.422-2.67l-5.095,0.971        c-1.173-0.061-2.157-0.617-0.877-0.793c-0.321-0.038-0.603-0.07-0.85-0.099c-0.296-0.018-0.551-0.034-0.769-0.047        c-0.364-0.015-0.606-0.007-0.759,0.019c-0.306,0.051-0.258,0.173-0.126,0.325c0.263,0.304,0.858,0.726-0.384,0.938        c-1.418-0.007-2.556-0.104-2.958-0.319c-0.415-0.208-0.172-0.496,0.875-0.706c-2.609,0.303-5.503,0.776-8.67,1.509        c-3.15,0.755-6.494,1.763-9.754,3.007c-6.538,2.482-12.601,6.012-17.024,8.692c0,0,0.346-0.376,0.691-0.752        c0.34-0.386,0.714-0.731,0.714-0.73c-1.697,1.093-2.902,2.131-3.789,3.163c-0.449,0.51-0.842,0.993-1.192,1.472        c-0.327,0.498-0.638,0.97-0.945,1.438c-1.214,1.881-2.297,3.646-5.024,6.128c0,0,0.174-0.31,0.349-0.619        c0.188-0.3,0.377-0.6,0.377-0.6c-5.767,6.407-9.847,14.776-11.989,23.015c-1.095,4.124-1.75,8.218-2.142,12.093        c-0.077,0.97-0.191,1.926-0.252,2.866c-0.059,0.943-0.116,1.869-0.172,2.776c-0.1,1.72-0.224,3.346-0.403,4.9        c1.759,2.3-0.291,16.044,2.096,17.018c-0.902,9.277-1.399,6.642-1.809,19.683c-0.008,3.48,1.622,5.141,1.992,9.432        l-1.23,0.141l1.462,5.797l-1.385,3.148l0.433,4.023c0.026-1.607,0.455-3.429,0.817-3.196        c0.739,6.282-0.416,15.378-1.043,15.552l1.472,14.869c-0.505-0.316-0.748-2.807-1.121-4.77        c1.487,7.918-1.256,1.482,0.106,8.738c0.251-0.985,0.75,0.506,1.003,0.664c-0.64,3.655-0.408,11.925,0.083,18.036l-0.884-1.15        c0.103,11.057,1.08,23.286,1.422,35.69c0.268-4.461,1.77-3.48,2.016,0.153l-1.261,1.492c0.874,2.325,0.384-3.813,1.507,0.98        c-0.017,4.637-1.391,3.157-1.891,0.509l0.614,5.62c-0.38,0.341-0.623-0.974-1.129-1.304c0.876,2.289-1.026,9.763,0.475,13.057        l-0.378,0.328c0.347,12.399,0.957,18.01,1.314,28.109c1.13,0.165,0.994,4.121,1.99,7.104        c-0.144,7.433-0.79,15.696-0.437,24.639c0.74,6.268,1.004,1.807,1.754,4.613c-1.01,0.493-0.657,9.421-1.525,4.81        c0.476,10.729,0.599,13.705,1.822,27.254c0.378-1.484,0.512-3.146,0.886-2.298c0.24,2.459-0.268,5.618-0.77,5.279        l-0.124-0.648c1.974,15.194-1.972,35.255,0.513,47.327l-0.125-0.676l1.476,12.55c-0.01,5.794-0.87-3.45-1.38,0.853        c1.05,6.762,1.142,12.125,1.155,17.19c0.006,2.533-0.007,4.991,0.069,7.514l0.015,0.474l0.031,0.591l0.067,0.955        c0.05,0.645,0.098,1.274,0.174,1.949c0.218,1.423,0.401,2.946,0.792,4.373c-0.451,2.393-0.179,5.672,0.682,9.346        c0.871,3.671,2.424,7.701,4.459,11.587c2.027,3.894,4.526,7.632,7.063,10.954c2.536,3.329,5.088,6.26,7.137,8.786        l-0.051-1.031c2.881,1.702,2.695,2.951,4.538,4.601c0.055-0.657-2.417-2.712-0.57-1.751c5.511,4.198,11.76,7.598,18.485,9.955        c6.691,2.387,14.046,3.479,21.186,3.381c13.288-0.083,26.663,0.018,39.778-0.186c9.591-0.193,5.291-3.897,17.441-2.684        l-3.377,1.458c19.278-2.356,39.551-1.527,58.43-3.628c-1.116,0.35-1.132,0.746-2.98,0.815c4.037,0.8,14.79-0.545,14.827-1.331        c2.952-0.028,0.711,0.682,2.543,1.007c4.035,0.405,10.021-1.627,12.191-0.759c0.369,0.143-1.116,0.356-1.846,0.46        c2.595-0.568,12.184-0.369,9.636-1.375c7.128,0.243,13.576-1.037,19.27-0.607c3.646-1.386,12.188,0.109,13.292-1.688        c-0.437,1.829,12.518,0.961,16.977-0.07c-1.481,0.607,3.93,0.41,2.199,1.237c5.125-0.229,9.812-0.754,8.881-1.646        c9.532,1.785,18.918-2.501,24.348,0.059c15.194-1.581,29.263-2.802,42.947-3.774c-0.423,1.823-15.139,0.786-14.476,2.655        c12.97-1.263,20.405-3.11,33.312-3.19c3.349,0.112-1.862,0.857-2.978,1.211c12.955-1.262,25.115-0.841,36.631-2.284        c-0.025,0.169-1.265,0.402-2.438,0.587c1.138-0.075,2.465-0.062,3.471-0.131c0.251-0.018,0.482-0.04,0.687-0.07        c0.051-0.008,0.1-0.016,0.146-0.023l0.07-0.014l0.033-0.007l0.009-0.002l0.119-0.007l0.004-0.001l0.017-0.004        c0.086-0.021,0.164-0.046,0.233-0.071c0.275-0.105,0.407-0.248,0.329-0.448c0,0-0.138,0.023-0.344,0.058        c-0.052,0.009-0.107,0.019-0.167,0.028l-0.091,0.016l-0.151,0.013l-0.048,0.007c-0.13,0.018-0.268,0.037-0.405,0.057        c-0.553,0.077-1.105,0.155-1.105,0.155c-0.921-0.261-0.822-0.569-0.151-0.896c0.336-0.163,0.815-0.33,1.382-0.498l0.217-0.063        l0.056-0.017l0.027-0.008l0.007-0.002l0.004-0.001c0.032-0.002-0.067,0.003,0.073-0.005l0.014-0.004l0.112-0.034        c0.15-0.045,0.306-0.092,0.465-0.139c0.317-0.089,0.65-0.182,0.99-0.277c1.335-0.332,2.937-0.825,4.116-1.185        c1.176-0.417,2.009-0.768,2.084-0.937c-1.755,1.478,1.167,1.196,3.832,0.787c2.624-0.445,5.078-0.833,2.326,1.469        c1.531-0.536,3.301-1.586,2.783-1.976c1.148-0.27,1.909-0.446,2.143-0.342c0.229,0.096-0.062,0.487-1.108,1.168        c2.028-0.837,3.327-1.479,4.235-2.045c0.912-0.556,1.479-0.936,1.997-1.353c1.044-0.816,2.049-1.451,5.409-3.395        c0.089,0.179-0.184,0.503-0.539,0.887c-0.364,0.369-0.816,0.788-1.063,1.188c0.793-0.633,1.559-1.298,2.346-1.992        c0.79-0.675,1.612-1.378,2.497-2.134c1.776-1.479,3.806-3.114,6.387-5.123c-0.146,0.435,0.65,0.188-0.857,1.448        c4.316-3.676,7.25-7.59,9.906-11.699c1.289-2.092,2.581-4.197,3.821-6.506c1.268-2.289,2.571-4.726,3.919-7.468        c0.082,2.003,0.617,1.113,1.35-0.319c0.698-1.439,1.522-3.419,2.31-3.512c0,0,0.103-0.413,0.256-1.032        s0.367-1.438,0.516-2.276c0.159-0.834,0.337-1.661,0.437-2.288c0.092-0.629,0.152-1.048,0.152-1.048s-0.319,0.62-0.639,1.24        c-0.348,0.604-0.694,1.209-0.694,1.209c1.576-5.645,0.88-11.042,1.473-15.756c0,0,0.121,1.035,0.243,2.069        c0.115,1.054,0.193,2.164,0.193,2.164s0.021-0.685,0.055-1.713c0.005-0.977,0.01-2.278,0.016-3.581        c0.011-2.6,0.021-5.199,0.021-5.199l-0.75,5.863c-0.594-5.634-1.907,0.542-1.261-6.825c0.106,1.504,0.192-5.545,1.162-8.407        c0,0-0.001,0.019,0.003,0.019c-0.39-2.758-0.802-5.595-0.303-9.684c0.51-1.049,1.623,0.909,1.963,0.227        c-1.162-2.745,0.06-12.996-1.163-16.464c0.277,1.152,1.059,1.236,1.229,0.865l-0.942-2.303        c0.405-2.558,0.573-2.93,1.186-2.492c0.427-7.719-1.971,2.395-0.868-6.749c0.06,0.723,0.222,0.384,0.329,1.889        c0.713-9.197-0.087-17.813,0.676-26.26c1.58-2.448,0.137,7.405,1.493,4.588c0.109-12.21-1.012-25.32-0.288-37.116        l-0.234,2.196c-2.069-1.703,1.322-8.76,0.509-14.763c0.111,1.468,1.117,1.954,0.894,1.552        c0.594-8.075-0.005-16.547-0.289-28.819l0.498,1.535c0.635-4.75,0.672-12.54,1.081-17.679        c-0.496-1.544-0.315-4.486-1.164-2.723c3.598-15.773-0.717-30.325,2.308-44.325c-0.047,1.684,0.351,4.028,0.396,2.689        l-0.128-12.01c-0.953,0.921-0.608,1.556-1.406,4.052c-0.5-1.536-0.819-4.934-0.726-7.906c0.443,5.413,1.484,0,2.073-2.313        c-0.296,0.381-0.583-0.427-0.877-0.239c1.839-6.214-1.826-1.108-0.452-9.628l0.472,0.469        c-0.148-3.209-0.697-6.179-0.451-9.628c1.114-1.398,0.393,3.423,1.266,3.671c0.09-4.85-1.726-9.631-0.523-13.987        c0.233,2.069,0.146,5.032,0.377,7.101c1.403-4.74,1.103-5.305,1.413-8.849l-0.04,0.348l0.825-8.192l-0.405,2.081        c-2.597-6.156-0.123-12.373-1.693-20.604c1.479,7.998,0.959,1.343,2.151,1.991c0.4-2.076,0.877-5.239,1.189-4.324        c-0.856-3.893,0.971-6.425-0.287-11.923c0.397-0.231,0.167-4.132,1.119-3.229c-0.15-5.032-0.716,1.167-1.191,0.729        c-0.546-3.892,0-8.43,0.498-13.393c0.248-2.482,0.484-5.07,0.566-7.738l0.014-0.501l0.006-0.584l-0.019-1.011        c-0.028-0.69-0.029-1.325-0.114-2.072c-0.161-1.489-0.382-2.981-0.791-4.392c-0.95-4.969-2.292-7.696-3.585-10.237        c-1.329-2.532-2.748-4.882-5.081-8.673c-0.448-1.463,0.17-1.115,0.882-0.351c0.699,0.767,1.513,1.93,1.513,1.93        c-1.668-4.713-3.855-7.916-7.091-11.302c0.844,0.54,0.499-0.422-0.102-1.813c-1.287-1.412-1.966-1.656-2.712-2.027        c-0.742-0.379-1.476-0.94-3.087-2.842c0.901,0.279,2.219,0.499,3.803,1.565c-3.408-3.048-7.267-5.395-11.257-7.678        c-0.64-1.256,2.897,0.714,4.449,1.441c-2.161-1.525-5.061-3.352-7.743-4.587c-2.661-1.279-5.058-2.009-6.003-1.849        c0,0,0.704,0.438,1.408,0.875c0.698,0.446,1.373,0.926,1.373,0.926c-1.671-0.822-0.441-1.277,0.895-0.794        c4.358,1.401,5.319,3.652,5.302,4.073c0,0-0.716-0.392-1.432-0.785c-0.708-0.404-1.446-0.75-1.446-0.75        c0.842,1.833,3.56,3.448,6.6,5.456c3.046,1.97,6.419,4.383,8.515,6.928c0,0-0.757-0.237-1.513-0.475        c-0.767-0.204-1.532-0.407-1.532-0.407s0.346,0.238,0.865,0.595c0.516,0.363,1.173,0.882,1.851,1.393        c0.688,0.503,1.316,1.066,1.811,1.475c0.491,0.414,0.817,0.69,0.817,0.69c0.263,0.696,0.317,1.392,0.074,1.588        c-0.262,0.211-0.772-0.104-1.856-1.249c0.558,1.01,0.955,1.729,1.339,2.255c0.374,0.532,0.73,0.872,1.027,1.231        c0.59,0.715,1.233,1.335,1.783,3.272c0.09,0.443-0.077,0.313-0.33,0.003c0,0,0.163,0.224,0.409,0.559        c0.248,0.335,0.58,0.782,0.877,1.251c0.306,0.465,0.612,0.931,0.843,1.28c0.233,0.349,0.378,0.588,0.378,0.587        c-0.695-0.626-0.727,1.153-1.727-1.346c1.367,3.692,2.736,6.49,3.756,8.859c0.483,1.185,0.913,2.242,1.153,3.206        c0.217,0.969,0.322,1.829,0.141,2.61c0,0-0.053-0.156-0.105-0.313c-0.06-0.155-0.12-0.31-0.12-0.31        c0.313,1.324,0.553,2.333,0.734,3.1c0.155,0.775,0.289,1.306,0.409,1.666c0.239,0.72,0.424,0.754,0.626,0.698        c0.386-0.096,0.971-0.635,1.817,3.635c0,0-0.19,0.353-0.476,0.881c-0.291,0.532-0.652,1.232-1.06,1.923        c-0.798,1.389-1.595,2.778-1.595,2.778l1.187,1.139c-0.08,1.154-0.243,3.436-0.718,2.999c0.701,4.324,0.554-0.717,1.265,1.803        c-1.285,5.524,0.041,15.345-1.943,16.537c0.866,2.024,0.883-5.294,1.343,0.662c-2.146,1.627,0.144,6.873-0.975,11.92        c-1.031-1.593-0.309-6.387-1.432-1.334c1.729,3.121-0.708,9.876-0.493,14.171c1.446,0.247,0.314,9.334,0.574,16.537        c-0.474-0.469-1.221,13.501-1.954,20.173l-0.238-0.205c1.428,1.339,0.935,8.229,1.082,13.261        c-0.874-0.225-1.191-1.139-1.5-3.871l-0.141,4.72c0.436,1.129,0.638,2.609,0.71,5.679l-1.06-1.222        c-0.136,6.286,0.896,12.695-0.089,20.759c1.01,0.486,3.051-6.341,3.468,2.229c-0.563,0.299-1.52,0.586-1.677-1.659        c0.051,0.736,0.378,2.629,0.096,4.099l-0.824-3.446c-0.524,3.67,0.718,1.951,0.539,4.893c-0.788-0.084-0.632,2.161-1.245,1.72        c-0.053-0.755,0.407-2.559,0.133-3.697c-0.246,3.316-0.84,7.315-1.479,8.622c0.458-0.275,1.063,0.033,1.09,2.468        c-0.139,6.286-1.018,2.122-1.537,5.773c0.5,1.54-0.193,5.531,0.983,5.673c-0.063,1.839-0.624,2.162-0.967,2.862        c0.42,3.269-0.325,15.196,1.045,11.571l0.108-0.832c0.011,0.156,0.022,0.34,0.035,0.533c0.001-0.027,0,0,0.001-0.027        l-0.001,0.027c0.841,10.696-1.36,22.124-1.187,32.717l-0.394-0.03c0.254,6.33-0.173,14.063,0.536,18.598        c-0.06,1.866-0.859,4.386-1.304,3.572c0.146,4.835,0.572,5.39-0.297,12.342c-0.538-4.875-0.664,1.654-0.35-4.988        c-0.536,6.26-1.213,7.662-0.346,14.429c-0.939-2.325-1.42,4.68-1.211,7.671l0.861-4.371c0.042,3.357-0.139,6.285-0.318,9.26        l-1.279-1.651c-2.02,12.783,2.03,23.23-0.984,32.916c0.824,3.423,0.873-6.952,1.866-3.881        c-0.363,5.897-2.465,11.988-2.526,13.837c-0.99,8.063,1.707,7.605,0.939,16.053c0.507-1.067,1.806-2.051,2.056,4.288        c-0.36,5.902-2.218,7.199-2.481,3.458c0.004-1.419,0.176-2.098,0.335-2.033c-0.113-1.913-0.238-4.424-0.825-2.101l0.45,0.78        c-0.288,1.458-0.482,4.22-0.695,6.375c-0.097,1.108-0.242,1.921-0.382,2.425c-0.142,0.494-0.292,0.62-0.461,0.169        c0.116,2.066,0.176,2.53,0.421,2.091c0.243-0.438,0.474-1.791,0.681-3.337c-0.476,3.536-0.915,6.252-1.464,8.989        c-0.569,2.725-1.266,5.489-2.828,8.794c0.646-0.982,1.548-1.811,1.136-0.716c-1.095,2.482-1.837,3.953-2.253,4.94        c-0.398,0.996-0.531,1.479-0.564,1.892c-0.091,0.814,0.203,1.344-1.696,4.585c-1.482,1.575-1.621,1.005-1.858,0.883        c-0.247-0.13-0.503,0.201-2.529,3.316c-3.237,3.189-1.543-0.07-0.777-1.661c-1.639,2.897-3.902,5.086-6.066,6.749        c-1.063,0.857-2.169,1.522-3.127,2.18c-1.011,0.596-1.882,1.184-2.662,1.688c0,0,0.158-0.145,0.396-0.361        c0.228-0.229,0.531-0.532,0.835-0.837c0.302-0.303,0.604-0.605,0.831-0.832c0.229-0.223,0.368-0.387,0.368-0.387        c-0.704,0.739-1.406,1.348-2.076,1.928c-0.699,0.541-1.382,1.036-2.067,1.538l2.141-0.388        c-1.722,1.094-3.177,2.001-3.355,1.656c-0.695,0.837-0.157,0.952,0.194,1.227c0.343,0.273,0.523,0.739-1.102,2.199        c-0.653,0.271-1.438,0.665-2.267,1.115c-0.816,0.472-1.706,0.938-2.554,1.363c-0.838,0.446-1.672,0.767-2.36,0.969        c-0.69,0.2-1.248,0.248-1.59,0.03c4.098-1.46,3.698-1.764,3.178-1.913c-0.538-0.191-1.211-0.35,1.938-2.049        c-1.152,0.773-2.679,1.523-4.61,2.144c-0.332-0.01,0.162-0.354,0.636-0.635c-3.906,1.045-4.663,1.548-5.436,2.331        c-0.383,0.39-0.772,0.809-1.59,1.242c-0.408,0.221-0.919,0.464-1.591,0.701c-0.677,0.211-1.51,0.438-2.552,0.655        c0.924-0.896-2.194-0.959-3.434-0.671c1.587-0.187,2.082-0.024,1.725,0.42c-0.169,0.207-0.552,0.489-1.062,0.742        c-0.507,0.246-1.163,0.5-1.915,0.729c-0.719,0.004-1.355,0.007-1.925,0.011c-0.29,0.01-0.563,0.02-0.822,0.028        c-0.223,0.014-0.432,0.025-0.63,0.037c-0.919,0.049-1.625,0.144-2.243,0.251c-1.236,0.213-2.122,0.474-3.657,0.503l3.514,0.12        c-1.159,0.756-4.093,0.78-8.17,1.167c-0.37-0.538,3.695-0.527,2.227-0.713c-4.484,1.428-10.3-0.882-16.589,0.212        c-2.949-0.364-0.338-1.322-2.923-1.545c-7.053,1.204-7.715-0.665-15.136,0.394c2.184,0.867,2.551,0.619-2.658,1.759        l12.221-1.161l-7.804,1.701c3.696-0.135,7.775-0.912,9.997-0.838c-3.715,0.928-3.34,0.675-1.538,1.396        c-5.115-1.229-9.995,1.234-15.88,0.502l0.085-2.368c-8.833-0.7-15.569,1.837-27.006,1.7l3.685,0.263        c-1.494,1-7.043,0.413-10.724,0.941c0.313-0.804-2.01-0.997-3.607-1.426c0.217,0.578-8.356,0.28-9.329,1.898l-5.136-0.836        c-9.234-0.057-10.43,2.669-19.299,2.755c2.634-0.964-1.414-1.362,4.495-2.214c-2.958,0.111-5.623,0.073-5.647,0.622        c-1.748-0.426-8.161,1.391-10.91,0.75c-1.233,0.396-1.608,1.239-4.931,1.307c-0.368-0.146-0.002-0.391-0.002-0.391        c0.002,0.391-5.179,0.738-2.241,1.496c-9.209-2.098-25.459,1.197-33.477-0.6c-6.446,0.523-14.212,1.088-20.07,1.38        c0.367-0.251,0.003-0.395,1.116-0.356c-8.113-0.41-4.88,2.464-14.111,2.013c-4.751-1.087,4.856-0.885,1.906-1.251        c-1.378-2.546-11.087,0.798-17.338-0.47l1.494-0.213c-4.768-0.693-11.507,1.445-19.245,1.569c0,0,0.367-0.244,0.03-0.395        c-5.234,1.536-15.226,2.374-22.649,3.04c2.275-1.108,3.358-0.673,1.904-1.648c-3.328,0.279,1.043,1.618-5.599,2.173        c-2.187-0.469-7.007-0.763-7.688-1.839l6.275-0.311c-3.271-1.298-8.124,0.373-11.439,0.258l0.397-0.64        c-9.612,0.587-9.682,2.162-20.026,2.464l1.087,0.429c-5.587,1.781-4.771-0.686-10.36,0.696l-1.769-1.51        c-3.713,0.53-12.998,2.048-19.672,2.612c3.741-1.321,11.54-2.232,16.354-3.121c-3.696,0.136-12.555,0.618-14.449,1.474        c1.484-0.211,3.344-0.673,4.826-0.488c-2.243,0.709-4.849,1.28-7.816,1.698c-2.871,0.405-6.158,0.437-9.713-0.115        c0.833-1.43-3.672-2.167-8.652-4.012c-2.481-0.942-5.075-2.143-7.2-3.46c-2.103-1.355-3.751-2.763-4.412-3.97        c-5.291-2.947-9.619-7.415-13.114-12.602c-3.51-5.212-6.152-11.212-8.22-17.917c-0.421,2.748-0.726,1.787-1.204,0.275        c-0.495-1.493-0.968-3.545-2.074-2.834c-0.463-1.646-0.69-2.81-0.835-3.588c-0.107-0.785-0.118-1.191-0.063-1.354        c0,0-0.003-0.65-0.007-1.625c0.021-0.478,0.044-1.034,0.069-1.631c0.025-0.594,0.041-1.205,0.108-1.898        c0.055-0.674,0.11-1.348,0.162-1.979c0.065-0.601,0.125-1.161,0.177-1.642c0.108-1.009,0.18-1.681,0.18-1.681        c0.319-1.281,0.479-0.444,0.625,0.67c0.073,0.558,0.144,1.184,0.229,1.649c0.042,0.233,0.089,0.426,0.142,0.55l0.02,0.043        l0.01,0.02l0.005,0.009l0.001,0.002h0c-0.002-0.052,0.005,0.117-0.004-0.116l0,0.001l0.003,0.005        c0.015,0.021,0.029,0.038,0.044,0.05c0.03,0.022,0.062,0.025,0.095,0.003c0.003-0.44,0.006-0.837,0.008-1.194        c0.01-0.395,0.019-0.746,0.026-1.061c0.024-0.63,0.062-1.11,0.108-1.486c0.095-0.751,0.229-1.079,0.38-1.325        c0.303-0.494,0.673-0.662,0.924-3.233c-0.844,1.076-1.33-2.656-1.124-7.079l-0.948,6.248        c-1.613-10.783,1.782-9.412,0.179-20.283l0.869,3.428c-0.616-5.583-0.58-20.647-2.703-26.077        c0.254-0.999,0.885-2.325,1.132,0.133c-0.091-13.385-2.949-29.715-2.039-40.144l0.626,0.996        c-0.245-2.49-1.248-4.312-0.736-7.453c0.251,0.154,0.625,0.988,0.627-0.169c-0.244-1.315-1.239-6.599-0.985-9.916l0.754,2.807        c0.407-13.068-2.215-19.976-2.941-30.904c1.761-0.023,2.037-10.306,2.174-15.438l0.254,0.172        c-0.22-15.199-2.203-25.765-3.3-39.814c1.659-8.789-0.053-29.605,0.613-43.673c-0.257,2.156-1.381-0.309-1.63-2.799        c0.262-3.304-1.484-9.07,0.145-8.594l0.003,1.175c1.512-2.527,0.896-9.286,0.787-14.571l-2.137-0.811        c2.672-13.914-2.173-36.192,0.36-43.817c-0.625-3.32-0.738-7.453-1.36-10.745l1.138,0.146        c0.022-9.251,0.032-13.87-0.568-25.289l0.876,2.307c-0.114-6.447-3.499-8.043-3.737-13.986c0,0,0.41-0.461,0.819-0.923        c0.421-0.428,0.842-0.856,0.842-0.856c-0.084-2.613,0.214-5.222,0.6-7.795c0.463-2.564,1.082-5.087,1.853-7.549        c1.569-4.925,3.602-9.573,5.715-14.291c0.124,0.28,0.361,0.791-0.433,2.239c1.219-2.08,4.041-5.781,6.655-8.54        c1.283-1.405,2.468-2.616,3.134-3.551c0.702-0.892,0.879-1.527,0.165-1.678c0.553,0.535,2.529-1.213,5.188-3.252        c2.627-2.075,6.013-4.401,8.545-5.758l-0.376,1.369c0.475-0.399,0.892-0.75,1.268-1.067c0.393-0.3,0.744-0.568,1.07-0.818        c0.662-0.497,1.235-0.931,1.904-1.287c1.328-0.737,2.935-1.486,6.271-2.306c1.623-0.165,1.538,0.614-0.602,0.736        c0.672-0.054,1.232-0.132,1.719-0.205c0.49-0.056,0.901-0.127,1.265-0.21c0.728-0.155,1.26-0.397,1.842-0.564        c0.58-0.183,1.2-0.369,2.089-0.509c0.897-0.112,1.985-0.157,3.652-0.027c0,0-0.161,0.042-0.401,0.105        c-0.238,0.065-0.527,0.173-0.825,0.271c-0.585,0.2-1.171,0.399-1.171,0.399c0.667-0.021,1.244-0.04,1.749-0.056        c0.546-0.007,1.014-0.013,1.422-0.018c0.413-0.012,0.766-0.032,1.08-0.06c0.157-0.017,0.304-0.032,0.443-0.047        c0.07-0.01,0.137-0.019,0.204-0.028l0.049-0.008l0.024-0.003l0.006-0.001l0.003,0c-0.145-0.004-0.039-0.001-0.071-0.002h0.001        l0.012-0.002l0.096-0.013c1.019-0.148,1.715-0.423,3.332-0.774c3.672-0.301,11.017,0.722,11.834,1.763        c0.809-0.583,4.023-1.277,7.438-0.849c0.448,0.399-0.809,0.585-1.442,0.675c9.691,1.147,14.505-0.717,21.146,0.645        c0.123,0.374,0.551,0.576,1.102,0.709c-7.721-0.335-13.936-0.646-13.351-0.703c-0.041,1.026,6.188,1.457,1.17,2.676        c5.038-0.573,13.667-1.913,19.727-1.187c0.29,0.111,0.575,0.22,0.789,0.387l-0.633,0.09c1.399,0.159,2.659,0.113,3.849-0.012        c1.933,0.246,3.161,0.42,5.022,0.509c0.686,0.879,7.135,0.745,10.242,0.911c-0.212-1.134,3.853-0.791,0.075-1.871        c0.492,0.099-0.592,0.11-2.662,0.075c-0.469,0.014-1.02,0.009-1.33,0.063c0.061-0.029,0.136-0.061,0.215-0.09        c-2.042-0.062-4.707-0.142-7.734-0.234c2.48-0.473,5.067-0.85,8.481-0.089c1.625-0.658,3.411-1.331,4.415-1.639        c4.192,1.737,12.362,2.912,13.465,3.924c9.521-0.25,22.389,0.479,28.443-1.393c2.711-0.163,3.08,0.729,4.076,1.102        c-1.568,0.149-3.419,0.043-4.275,0.313c5.419-0.326,16.002,0.429,17.35-0.994c6.778,0.938-3.878,1.204,5.481,1.337l-1.279,0.4        c18.298,3.092,30.052-2.567,50.322,1.273c-1.404-0.242-2.107-0.356-2.387-0.615c23.194,2.264,47.958,0.665,70.814,3.698        c6.503,0.687,7.247-0.227,11.256-0.783l1.363,1.263l6.86-1.12c9.688-0.634,16.591,3.63,28.884,2.19l-1.545-0.876        c4.382,0.33,13.917,0.077,13.146,0.982c0.455-0.13,1.474-0.788,3.171-0.295l0.108,0.637l10.818-0.651        c8.336,0.791-1.407,2.455,10.78,3.065c4.54-0.062,12.977-1.322,11.293-1.813c-1.828-0.104-4.657-0.58-4.77-1.219l4.158-0.163        c0.827-1.831,4.09-3.609-6.033-5.316l-7.135,0.854l-2.247-0.994l5.968,0.182c-3.35-0.985-5.525-0.32-7.949,0.1        c-0.549-0.502-1.531-0.878-2.932-1.113l-7.031,1.499c-0.814-0.762,3.18-1.32-1.477-1.909        c-3.293,0.695,3.063,1.757-2.356,2.084c-3.359-0.982-2.341-1.631-6.351-1.068c-0.54-0.501,0.316-0.773,1.901-0.92        c-3.567,0.433-9.387-0.132-11.256,0.784c-3.493-1.186-11.974-0.208-11.555-1.955c-1.131,0.377-6.296,1.133-9.555,1.076        c6.031-1.871-12.179-0.611-10.515-2.809c-4.479,1.72-15.932,0.206-23.769,0.946c0.441-0.133,1.312-0.404,1.995-0.28        c-4.382-0.333-5.634-0.956-8.439-1.426c-0.627,1.543-7.473,1.628-11.193,2.447c-5.318-1.727,3.338-1.708,1.709-3.227        c0.22,1.28-9.396,0.893-7.608,2.023c-4.076-1.099-3.526-0.595-5.593-1.978c-0.799,1.93-3.843,0.178-7.302,1.245        c-5.913-1.203-1.458-1.896-8.021-1.561C280.356,22.779,286.198,22.317,286.198,22.317z M130.564,19.484        c0-0.011,0-0.019,0.001-0.022c1.34,0.027,2.482,0.05,3.212,0.065C133.107,19.517,132.18,19.505,130.564,19.484z         M117.495,18.979c1.589,0.107,3.57,0.194,5.666,0.271c0.443,0.407-0.068,0.786-1.383,0.713        C122.503,19.732,119.431,19.384,117.495,18.979z M144.824,27.87c-2.075,0.076-2.758-0.172-3.033-0.414        c0.978,0.02,2.121,0.027,3.623,0.01c0.062-0.04,0.187-0.083,0.249-0.128C145.457,27.545,145.224,27.737,144.824,27.87z" style="fill:#373737;"/><path d="M148.602,26.545c0.299-0.013,0.466-0.054,0.856-0.048c-0.418-0.116-0.818-0.217-1.224-0.302        c-0.257,0.111-0.519,0.224-0.748,0.323C147.863,26.527,148.253,26.537,148.602,26.545z" style="fill:#373737;"/><path d="M482.671,261.273l-0.034,0.274c0.052-0.229,0.103-0.438,0.178-0.573        C482.754,261.156,482.719,261.155,482.671,261.273z" style="fill:#373737;"/><polygon points="18.745,130.134 19.027,130.107 18.747,128.972       " style="fill:#373737;"/><path d="M488.778,189.4c0.103-0.135,0.214-0.402,0.317-0.936        C489.02,188.503,488.904,188.908,488.778,189.4z" style="fill:#373737;"/><path d="M490.002,158.309l0.537-4.386C490.252,155.819,490.101,157.201,490.002,158.309z" style="fill:#373737;"/><path d="M491.306,134.416c-0.188-0.309-0.333-0.4-0.466-0.483c-0.005,0.019-0.008,0.032-0.011,0.046        L491.306,134.416z" style="fill:#373737;"/><path d="M416.58,482.398c-0.321,0.019-0.637,0.046-0.92,0.088        C413.505,482.79,414.973,482.646,416.58,482.398z" style="fill:#373737;"/><path d="M481.656,401.413c0.166,1.208,0.33,2.397,0.417,3.653        C482.223,403.056,482.294,401.492,481.656,401.413z" style="fill:#373737;"/><path d="M290.34,488.803c0.013-0.008-0.001-0.01,0.013-0.021c-0.271,0.012-0.509,0.021-0.779,0.031        L290.34,488.803z" style="fill:#373737;"/><path d="M481.89,410.327c0.286-2.007,0.291-3.691,0.184-5.261        C481.947,406.716,481.771,408.657,481.89,410.327z" style="fill:#373737;"/><path d="M460.725,39.178l-1.054-0.609c-0.017,0.075-0.109,0.095-0.212,0.092L460.725,39.178z" style="fill:#373737;"/><path d="M459.459,38.661c0,0-0.313-0.127-0.627-0.255c-0.311-0.132-0.63-0.245-0.63-0.246        C458.758,38.43,459.229,38.685,459.459,38.661z" style="fill:#373737;"/><path d="M455.525,37.213l2.677,0.946C457.319,37.74,456.234,37.191,455.525,37.213z" style="fill:#373737;"/><path d="M484.334,62.228l0.54,0.122C484.697,62.212,484.518,62.162,484.334,62.228z" style="fill:#373737;"/><path d="M488.912,71.277c-0.368-1.166-0.83-2.63-1.329-4.21c-0.296-0.774-0.617-1.574-0.978-2.363        c-0.365-0.786-0.82-1.532-1.294-2.244l-0.438-0.11c0.657,0.538,1.415,2.287,2.062,4.156        C487.599,68.37,488.195,70.321,488.912,71.277z" style="fill:#373737;"/><path d="M487.071,112.048l0.577-8.049c-0.478,1.395-1.119,3.229-1.109-0.438        C484.926,113.68,487.575,101.495,487.071,112.048z" style="fill:#373737;"/><path d="M485.66,137.021c-0.066-4.336-0.632,0.031-0.871-0.206        C485.1,139.575,485.18,140.243,485.66,137.021z" style="fill:#373737;"/><path d="M480.013,317.635l-1.01-0.467C479.045,320.512,479.398,317.212,480.013,317.635z" style="fill:#373737;"/><polygon points="484.219,352.325 484.956,349.098 484.067,347.522       " style="fill:#373737;"/><polygon points="476.297,372.495 476.196,371.031 476.394,376.611       " style="fill:#373737;"/><path d="M254.812,480.339l1.06,1.22C258.118,481.242,258.533,479.808,254.812,480.339z" style="fill:#373737;"/><path d="M123.951,486.857c-1.451-0.572-5.149-0.83-7.395-0.12        C119.504,486.706,122.458,487.08,123.951,486.857z" style="fill:#373737;"/><polygon points="29.848,164.576 30.346,167.197 29.851,162.244       " style="fill:#373737;"/></g></g></g></g></g></g><g id="Layer_1"/></svg>