<?xml version="1.0" ?><!DOCTYPE svg  PUBLIC '-//W3C//DTD SVG 1.1//EN'  'http://www.w3.org/Graphics/SVG/1.1/DTD/svg11.dtd'><svg height="512px" style="enable-background:new 0 0 512 512;" version="1.1" viewBox="0 0 512 512" width="512px" xml:space="preserve" xmlns="http://www.w3.org/2000/svg" xmlns:xlink="http://www.w3.org/1999/xlink"><g id="media__x2C__social__x2C__web__x2C__network__x2C___google__x2C__plus__x2C_"><g><g><path d="M470.74,150.093v253.934l-90.695,91.609H107.019     c-36.174,0-65.758-29.949-65.758-66.486V150.093H470.74z" style="fill-rule:evenodd;clip-rule:evenodd;fill:#E52B33;"/><path d="M107.019,61.848H133.9v22.967     c0,15.037,12.123,27.275,27.011,27.275c14.883,0,27.068-12.238,27.068-27.275V61.848h136.044v22.967     c0,15.037,12.178,27.275,27.064,27.275c14.885,0,27.074-12.238,27.074-27.275V61.848h26.82c36.174,0,65.758,29.876,65.758,66.417     v15.233H41.26v-15.233C41.26,91.724,70.845,61.848,107.019,61.848L107.019,61.848z" style="fill-rule:evenodd;clip-rule:evenodd;fill:#E5E6E7;"/><path d="M351.088,16.363L351.088,16.363     c12.246,0,22.303,10.153,22.303,22.518v45.934c0,12.374-10.057,22.518-22.303,22.518l0,0c-12.303,0-22.291-10.145-22.291-22.518     V38.881C328.797,26.517,338.785,16.363,351.088,16.363L351.088,16.363z M160.911,16.363L160.911,16.363     c12.309,0,22.295,10.153,22.295,22.518v45.934c0,12.374-9.986,22.518-22.295,22.518l0,0c-12.25,0-22.3-10.145-22.3-22.518V38.881     C138.611,26.517,148.661,16.363,160.911,16.363L160.911,16.363z" style="fill-rule:evenodd;clip-rule:evenodd;fill:#E52B33;"/><path d="M470.74,404.027h-53.828     c-20.287,0-36.867,16.747-36.867,37.238v54.371L470.74,404.027z" style="fill-rule:evenodd;clip-rule:evenodd;fill:#57585A;"/></g><g><g><path d="M376.133,296.798c-2.152,0-3.988,0-6.129,0      c0-0.621,0-0.916,0-1.242c0-1.537,0-2.78,0-4.01c0-7.73,0-15.159,0-22.589c0-1.236-1.527-3.395-2.143-3.395      c-7.049-0.308-14.391-0.308-21.744-0.308c0,8.967,0,17.62,0,26.291c0,1.544,0,3.395,0,4.944c-11.023,0-21.436,0-32.465,0      c0,2.479-0.305,4.016,0,5.565c0,5.874,0.309,11.445,0.611,17.023c5.824,0.302,11.639,0.603,17.158,0.603c4.896,0,9.791,0,15,0      c0,10.83,0,21.045,0,30.94c7.965,0,15.311,0,23.582,0c0-10.203,0-20.424,0-30.94c11.023,0,21.441,0,31.854,0      c0-5.873,0-11.752,0-17.318c0-1.857,0-3.708,0-5.565C393.279,296.798,384.699,296.798,376.133,296.798L376.133,296.798z       M283.941,294.019c-20.201,0.313-40.417,0-60.937,0c-5.514,0-11.334,0-17.15,0.313c-1.226,0-3.06,1.224-3.06,1.845      c-0.307,11.457-0.307,22.583-0.307,34.655c16.841,0,33.073,0,49.612,0c-0.618,2.158-0.92,4.016-1.533,5.559      c-7.653,21.968-30.933,32.792-56.044,28.775c-30.933-4.963-50.229-32.797-44.718-62.803c0.927-4.323,2.152-8.345,3.986-12.06      c10.109-21.962,35.523-35.262,60.64-29.698c9.187,1.857,16.84,5.88,23.273,11.445c9.182-8.659,17.764-17.323,27.256-26.283      c-0.609-0.621-1.525-0.929-2.141-1.857c-22.056-17.632-47.164-24.44-75.339-19.8c-40.433,6.5-69.824,37.116-76.255,73.309      c-2.761,15.153-1.536,31.556,4.901,47.323c15.302,38.352,55.122,61.555,97.69,57.226c20.823-2.152,39.506-9.582,53.897-24.44      c21.445-21.961,26.949-48.553,23.58-77.63C290.686,294.94,288.539,294.019,283.941,294.019L283.941,294.019z" style="fill-rule:evenodd;clip-rule:evenodd;fill:#E52B33;"/></g><g><path d="M376.133,296.798c-2.152,0-3.988,0-6.129,0c0-0.621,0-0.916,0-1.242c0-1.537,0-2.78,0-4.01      c0-7.73,0-15.159,0-22.589c0-1.236-1.527-3.395-2.143-3.395c-7.049-0.308-14.391-0.308-21.744-0.308c0,8.967,0,17.62,0,26.291      c0,1.544,0,3.395,0,4.944c-11.023,0-21.436,0-32.465,0c0,2.479-0.305,4.016,0,5.565c0,5.874,0.309,11.445,0.611,17.023      c5.824,0.302,11.639,0.603,17.158,0.603c4.896,0,9.791,0,15,0c0,10.83,0,21.045,0,30.94c7.965,0,15.311,0,23.582,0      c0-10.203,0-20.424,0-30.94c11.023,0,21.441,0,31.854,0c0-5.873,0-11.752,0-17.318c0-1.857,0-3.708,0-5.565      C393.279,296.798,384.699,296.798,376.133,296.798L376.133,296.798z M283.941,294.019c-20.201,0.313-40.417,0-60.937,0      c-5.514,0-11.334,0-17.15,0.313c-1.226,0-3.06,1.224-3.06,1.845c-0.307,11.457-0.307,22.583-0.307,34.655      c16.841,0,33.073,0,49.612,0c-0.618,2.158-0.92,4.016-1.533,5.559c-7.653,21.968-30.933,32.792-56.044,28.775      c-30.933-4.963-50.229-32.797-44.718-62.803c0.927-4.323,2.152-8.345,3.986-12.06c10.109-21.962,35.523-35.262,60.64-29.698      c9.187,1.857,16.84,5.88,23.273,11.445c9.182-8.659,17.764-17.323,27.256-26.283c-0.609-0.621-1.525-0.929-2.141-1.857      c-22.056-17.632-47.164-24.44-75.339-19.8c-40.433,6.5-69.824,37.116-76.255,73.309c-2.761,15.153-1.536,31.556,4.901,47.323      c15.302,38.352,55.122,61.555,97.69,57.226c20.823-2.152,39.506-9.582,53.897-24.44c21.445-21.961,26.949-48.553,23.58-77.63      C290.686,294.94,288.539,294.019,283.941,294.019L283.941,294.019z" style="fill:#FFFFFF;"/></g></g></g></g><g id="Layer_1"/></svg>