<?xml version="1.0" ?><!DOCTYPE svg  PUBLIC '-//W3C//DTD SVG 1.1//EN'  'http://www.w3.org/Graphics/SVG/1.1/DTD/svg11.dtd'><svg height="512px" style="enable-background:new 0 0 512 512;" version="1.1" viewBox="0 0 512 512" width="512px" xml:space="preserve" xmlns="http://www.w3.org/2000/svg" xmlns:xlink="http://www.w3.org/1999/xlink"><g id="media__x2C__social__x2C__web__x2C__network__x2C___snapchat__x2C_"><g><g><path d="M470.392,149.365l0.763,253.944l-90.422,91.867     l-273.027,0.818c-36.174,0.107-65.847-29.738-65.958-66.281L40.914,150.65L470.392,149.365z" style="fill-rule:evenodd;clip-rule:evenodd;fill:#F9B924;"/><path d="M106.404,62.219l26.882-0.082l0.07,22.961     c0.046,15.037,12.204,27.244,27.091,27.2c14.883-0.044,27.031-12.325,26.988-27.361l-0.067-22.961l136.034-0.407l0.068,22.96     c0.049,15.037,12.275,27.244,27.158,27.2c14.889-0.045,27.035-12.325,26.991-27.361l-0.067-22.96l26.813-0.08     c36.181-0.109,65.854,29.681,65.958,66.221l0.049,15.224l-429.48,1.286l-0.046-15.224C40.739,92.293,70.23,62.327,106.404,62.219     L106.404,62.219z" style="fill-rule:evenodd;clip-rule:evenodd;fill:#E5E6E7;"/><path d="M350.346,16.005L350.346,16.005     c12.244-0.035,22.33,10.084,22.367,22.449l0.135,45.928c0.037,12.374-9.987,22.553-22.231,22.59l0,0     c-12.313,0.037-22.33-10.083-22.367-22.457l-0.136-45.928C328.077,26.224,338.033,16.042,350.346,16.005L350.346,16.005z      M160.161,16.576L160.161,16.576c12.309-0.037,22.327,10.083,22.364,22.447l0.138,45.928c0.037,12.374-9.919,22.553-22.229,22.59     l0,0c-12.251,0.037-22.33-10.083-22.367-22.456l-0.139-45.928C137.893,26.792,147.91,16.613,160.161,16.576L160.161,16.576z" style="fill-rule:evenodd;clip-rule:evenodd;fill:#F9B924;"/><path d="M471.154,403.309l-53.824,0.16     c-20.294,0.061-36.825,16.856-36.764,37.348l0.166,54.359L471.154,403.309z" style="fill-rule:evenodd;clip-rule:evenodd;fill:#57585A;"/></g><g><g><g><path d="M378.506,368.211v-0.068       c-0.062-0.058-0.129-0.058-0.19-0.119c-0.062,0-0.062,0-0.062,0l0,0c-2.939-1.759-5.812-1.999-7.62-2.62       c-0.062-0.07-0.122-0.07-0.122-0.07c-12.43-3.739-23.186-11.906-31.199-21.836c-4.514-5.593-8.271-11.574-10.787-18.05       c0,0,0,0,0-0.067c-0.947-2.771-1.015-5.852,0.412-7.688c0,0,0-0.062,0.062-0.062c2.171-3.094,6.285-5.064,10.714-6.651       c0,0,0,0,0.061,0c4.797-1.657,10.104-3.493,14.453-7.223c0.062-0.062,0.062-0.062,0.062-0.062       c0.688-0.64,1.494-1.399,2.115-2.593c0.123-0.316,0.252-0.633,0.369-1.015c0.308-1.073,0.308-2.45-0.32-3.649v-0.071       c-1.261-2.444-3.438-3.696-5.067-4.637h-0.067c-2.682-1.507-5.929-1.624-8.665-0.732l0,0h-0.068       c-2.988,0.886-5.418,1.907-7.662,2.227c-0.068,0-0.123,0.003-0.191,0.003c-3.179,0.581-6.297,0.708-8.738-0.163       c-0.056-0.313-0.062-1.012-0.191-1.829h0.063c-0.197-5.104,0.221-10.399,0.332-15.817c0-0.062,0-0.062,0-0.062       c0.159-8.321,0.51-16.825-0.763-25.396c0-0.062-0.068-0.12-0.068-0.12c-2.785-14.494-12.435-26.94-24.679-35.214       c-8.881-6.025-19.435-9.33-30.172-10.252l0,0c-3.684-0.302-7.238-0.421-10.854-0.409c-14.473,0.172-29.438,3.876-41.139,12.795       c-8.779,6.637-15.679,15.482-20.018,25.333c0,0,0,0,0,0.059c-4.087,10.098-3.681,20.868-3.088,30.879l0,0       c0.335,6.996,1.163,13.801,0.495,20.298c-0.059,0.256-0.059,0.313-0.059,0.443c-3.244,0.568-6.859,0.39-10.356-0.286h-0.064       c-2.435-0.375-4.993-1.311-7.927-2.061c0-0.059-0.064-0.059-0.123-0.059c-2.813-0.624-5.618,0.203-7.736,1.723       c0,0-0.065,0-0.127,0c0.004,0.062-0.058,0.062-0.126,0.132c-1.679,1.076-4.046,2.961-4.157,6.122c-0.062,0.188,0,0.375,0,0.56       c0,0.071,0,0.071,0,0.071c0.382,1.885,1.636,3.269,2.697,4.142c1.063,0.95,2.125,1.51,2.752,1.956       c0,0.062,0.055,0.062,0.123,0.119c5.313,3.389,11.119,4.887,16.245,6.76l0,0c3.493,1.436,6.556,3.76,7.257,6.656       c0.882,3.718-0.729,7.943-2.835,12.042l0,0c-5.643,10.923-14.099,20.399-24.499,27.358c-5.482,3.615-11.65,6.34-18.074,8.063       c-0.126,0-0.188,0-0.246,0.067c-1.371,0.507-4.489,0.83-6.482,3.668c-0.122,0.188-0.245,0.443-0.307,0.631       c-0.615,1.894,0.138,3.847,1.073,4.917c0.879,1.002,1.872,1.63,2.755,2.069c0.003,0.067,0.064,0.067,0.126,0.067       c5.431,3.004,11.365,4.246,16.737,5.615c0.064,0,0.064,0,0.064,0c3.933,0.806,7.549,1.297,10.424,2.487       c0.185,0.188,0.504,1.132,1.129,2.712c1.008,2.891,1.457,6.295,2.592,9.825c0.313,0.94,1.188,1.752,2.245,1.937       c2.438,0.505,3.804-0.255,3.991-0.316c0.129,0,0.255,0,0.316,0c9.044-1.544,18.087-2.955,26.39-0.966l0,0       c8.739,2.181,16.307,7.952,24.87,12.845c0,0.059,0,0.059,0,0.059l0,0c5.686,3.388,12.247,6.771,19.797,6.937v0.059h0.064       c5.675,0.305,11.289-0.093,16.781-0.483h0.062c4.68-0.396,9.225-1.925,13.216-4.388c0.062,0,0.123-0.067,0.123-0.067       c8.967-4.938,16.931-10.895,25.664-14.628l0,0c2.865-1.023,6.359-0.968,10.289-1.232c0.062-0.003,0.123-0.003,0.123-0.003       c7.232-0.207,14.477,0.145,21.647,1.008c0.258,0.059,0.504,0.059,0.756,0c0.929-0.129,1.993-0.704,2.491-1.337       c0.498-0.628,0.621-1.064,0.744-1.448c0.185-0.757,0.369-1.073-0.006-0.502c0.123-0.129,0.252-0.316,0.313-0.571       c1.298-4.164,1.974-7.946,4.09-10.283c0.996-0.889,2.613-1.334,4.483-1.341c0.123,0,0.245,0,0.437-0.003       c6.242-0.707,11.851-2.866,17.207-4.772c0.062,0,0.123,0,0.123-0.059c1.993-0.83,4.987-1.777,6.974-4.498       c0,0,0.062,0,0.062-0.059l0,0C381.698,372.737,380.88,369.592,378.506,368.211L378.506,368.211z" style="fill-rule:evenodd;clip-rule:evenodd;fill:#F9B924;"/></g></g><g><g><path d="M378.506,368.211v-0.068c-0.062-0.058-0.129-0.058-0.19-0.119c-0.062,0-0.062,0-0.062,0l0,0       c-2.939-1.759-5.812-1.999-7.62-2.62c-0.062-0.07-0.122-0.07-0.122-0.07c-12.43-3.739-23.186-11.906-31.199-21.836       c-4.514-5.593-8.271-11.574-10.787-18.05c0,0,0,0,0-0.067c-0.947-2.771-1.015-5.852,0.412-7.688c0,0,0-0.062,0.062-0.062       c2.171-3.094,6.285-5.064,10.714-6.651c0,0,0,0,0.061,0c4.797-1.657,10.104-3.493,14.453-7.223       c0.062-0.062,0.062-0.062,0.062-0.062c0.688-0.64,1.494-1.399,2.115-2.593c0.123-0.316,0.252-0.633,0.369-1.015       c0.308-1.073,0.308-2.45-0.32-3.649v-0.071c-1.261-2.444-3.438-3.696-5.067-4.637h-0.067c-2.682-1.507-5.929-1.624-8.665-0.732       l0,0h-0.068c-2.988,0.886-5.418,1.907-7.662,2.227c-0.068,0-0.123,0.003-0.191,0.003c-3.179,0.581-6.297,0.708-8.738-0.163       c-0.056-0.313-0.062-1.012-0.191-1.829h0.063c-0.197-5.104,0.221-10.399,0.332-15.817c0-0.062,0-0.062,0-0.062       c0.159-8.321,0.51-16.825-0.763-25.396c0-0.062-0.068-0.12-0.068-0.12c-2.785-14.494-12.435-26.94-24.679-35.214       c-8.881-6.025-19.435-9.33-30.172-10.252l0,0c-3.684-0.302-7.238-0.421-10.854-0.409c-14.473,0.172-29.438,3.876-41.139,12.795       c-8.779,6.637-15.679,15.482-20.018,25.333c0,0,0,0,0,0.059c-4.087,10.098-3.681,20.868-3.088,30.879l0,0       c0.335,6.996,1.163,13.801,0.495,20.298c-0.059,0.256-0.059,0.313-0.059,0.443c-3.244,0.568-6.859,0.39-10.356-0.286h-0.064       c-2.435-0.375-4.993-1.311-7.927-2.061c0-0.059-0.064-0.059-0.123-0.059c-2.813-0.624-5.618,0.203-7.736,1.723       c0,0-0.065,0-0.127,0c0.004,0.062-0.058,0.062-0.126,0.132c-1.679,1.076-4.046,2.961-4.157,6.122c-0.062,0.188,0,0.375,0,0.56       c0,0.071,0,0.071,0,0.071c0.382,1.885,1.636,3.269,2.697,4.142c1.063,0.95,2.125,1.51,2.752,1.956       c0,0.062,0.055,0.062,0.123,0.119c5.313,3.389,11.119,4.887,16.245,6.76l0,0c3.493,1.436,6.556,3.76,7.257,6.656       c0.882,3.718-0.729,7.943-2.835,12.042l0,0c-5.643,10.923-14.099,20.399-24.499,27.358c-5.482,3.615-11.65,6.34-18.074,8.063       c-0.126,0-0.188,0-0.246,0.067c-1.371,0.507-4.489,0.83-6.482,3.668c-0.122,0.188-0.245,0.443-0.307,0.631       c-0.615,1.894,0.138,3.847,1.073,4.917c0.879,1.002,1.872,1.63,2.755,2.069c0.003,0.067,0.064,0.067,0.126,0.067       c5.431,3.004,11.365,4.246,16.737,5.615c0.064,0,0.064,0,0.064,0c3.933,0.806,7.549,1.297,10.424,2.487       c0.185,0.188,0.504,1.132,1.129,2.712c1.008,2.891,1.457,6.295,2.592,9.825c0.313,0.94,1.188,1.752,2.245,1.937       c2.438,0.505,3.804-0.255,3.991-0.316c0.129,0,0.255,0,0.316,0c9.044-1.544,18.087-2.955,26.39-0.966l0,0       c8.739,2.181,16.307,7.952,24.87,12.845c0,0.059,0,0.059,0,0.059l0,0c5.686,3.388,12.247,6.771,19.797,6.937v0.059h0.064       c5.675,0.305,11.289-0.093,16.781-0.483h0.062c4.68-0.396,9.225-1.925,13.216-4.388c0.062,0,0.123-0.067,0.123-0.067       c8.967-4.938,16.931-10.895,25.664-14.628l0,0c2.865-1.023,6.359-0.968,10.289-1.232c0.062-0.003,0.123-0.003,0.123-0.003       c7.232-0.207,14.477,0.145,21.647,1.008c0.258,0.059,0.504,0.059,0.756,0c0.929-0.129,1.993-0.704,2.491-1.337       c0.498-0.628,0.621-1.064,0.744-1.448c0.185-0.757,0.369-1.073-0.006-0.502c0.123-0.129,0.252-0.316,0.313-0.571       c1.298-4.164,1.974-7.946,4.09-10.283c0.996-0.889,2.613-1.334,4.483-1.341c0.123,0,0.245,0,0.437-0.003       c6.242-0.707,11.851-2.866,17.207-4.772c0.062,0,0.123,0,0.123-0.059c1.993-0.83,4.987-1.777,6.974-4.498       c0,0,0.062,0,0.062-0.059l0,0C381.698,372.737,380.88,369.592,378.506,368.211L378.506,368.211z" style="fill:#FFFFFF;"/></g></g></g></g></g><g id="Layer_1"/></svg>