<?xml version="1.0" ?><!DOCTYPE svg  PUBLIC '-//W3C//DTD SVG 1.1//EN'  'http://www.w3.org/Graphics/SVG/1.1/DTD/svg11.dtd'><svg height="512px" style="enable-background:new 0 0 512 512;" version="1.1" viewBox="0 0 512 512" width="512px" xml:space="preserve" xmlns="http://www.w3.org/2000/svg" xmlns:xlink="http://www.w3.org/1999/xlink"><g id="media__x2C__social__x2C__web__x2C__network__x2C___pintrest__x2C_"><g><g><path d="M470.742,150.089v253.943l-90.698,91.6H107.017     c-36.174,0-65.759-29.938-65.759-66.478V150.089H470.742z" style="fill-rule:evenodd;clip-rule:evenodd;fill:#E52B33;"/><path d="M107.017,61.854h26.881v22.957     c0,15.037,12.125,27.284,27.011,27.284c14.883,0,27.068-12.247,27.068-27.284V61.854h136.041v22.957     c0,15.037,12.189,27.284,27.072,27.284c14.889,0,27.072-12.247,27.072-27.284V61.854h26.813c36.18,0,65.767,29.876,65.767,66.416     v15.224H41.258V128.27C41.258,91.729,70.843,61.854,107.017,61.854L107.017,61.854z" style="fill-rule:evenodd;clip-rule:evenodd;fill:#E5E6E7;"/><path d="M351.09,16.368L351.09,16.368     c12.25,0,22.3,10.154,22.3,22.519v45.924c0,12.374-10.05,22.527-22.3,22.527l0,0c-12.306,0-22.294-10.153-22.294-22.527V38.887     C328.796,26.522,338.784,16.368,351.09,16.368L351.09,16.368z M160.908,16.368L160.908,16.368     c12.309,0,22.297,10.154,22.297,22.519v45.924c0,12.374-9.988,22.527-22.297,22.527l0,0c-12.251,0-22.3-10.153-22.3-22.527     V38.887C138.608,26.522,148.657,16.368,160.908,16.368L160.908,16.368z" style="fill-rule:evenodd;clip-rule:evenodd;fill:#E52B33;"/><path d="M470.742,404.032h-53.824     c-20.294,0-36.874,16.749-36.874,37.24v54.359L470.742,404.032z" style="fill-rule:evenodd;clip-rule:evenodd;fill:#57585A;"/></g><g><g><path d="M261.172,207.478c-61.285,0-92.324,41.195-92.324,75.361      c0,6.427,0.797,12.459,2.387,18.084c3.778,12.865,11.54,23.317,24.07,28.142c2.992,1.003,5.578,0,6.568-3.022      c0.603-2.202,1.992-7.426,2.589-9.641c0.793-3.02,0.6-4.222-1.786-6.832c-3.192-3.413-5.572-7.438-7.168-12.46      c-0.99-3.216-1.391-7.035-1.391-11.257c0-30.348,24.274-57.678,63.468-57.678c34.626,0,53.721,19.698,53.721,46.223      c0,7.838-0.787,15.276-2.38,22.306c-5.375,24.114-19.495,41.808-38.603,41.808c-13.532,0-23.477-10.461-20.297-23.114      c1.796-7.436,4.582-14.874,6.765-22.106c2.585-7.838,4.584-15.07,4.584-20.9c0-9.846-5.576-18.09-17.313-18.09      c-13.93,0-24.874,13.462-24.874,31.355c0,3.22,0.194,6.427,0.794,9.047c1.196,6.221,3.183,10.043,3.183,10.043      s-14.124,55.871-16.513,65.708c-4.979,19.505-0.8,43.419-0.394,45.836c0.199,1.401,2.187,1.802,2.982,0.799      c1.393-1.599,17.706-20.501,23.277-39.587c1.596-5.43,9.151-33.163,9.151-33.163c4.578,8.034,17.707,15.07,31.637,15.07      c33.634,0,58.694-23.511,66.659-57.883c1.992-7.632,2.988-16.073,2.988-24.923C342.953,240.838,310.519,207.478,261.172,207.478      L261.172,207.478z" style="fill-rule:evenodd;clip-rule:evenodd;fill:#E52B33;"/></g><g><path d="M261.172,207.478c-61.285,0-92.324,41.195-92.324,75.361c0,6.427,0.797,12.459,2.387,18.084      c3.778,12.865,11.54,23.317,24.07,28.142c2.992,1.003,5.578,0,6.568-3.022c0.603-2.202,1.992-7.426,2.589-9.641      c0.793-3.02,0.6-4.222-1.786-6.832c-3.192-3.413-5.572-7.438-7.168-12.46c-0.99-3.216-1.391-7.035-1.391-11.257      c0-30.348,24.274-57.678,63.468-57.678c34.626,0,53.721,19.698,53.721,46.223c0,7.838-0.787,15.276-2.38,22.306      c-5.375,24.114-19.495,41.808-38.603,41.808c-13.532,0-23.477-10.461-20.297-23.114c1.796-7.436,4.582-14.874,6.765-22.106      c2.585-7.838,4.584-15.07,4.584-20.9c0-9.846-5.576-18.09-17.313-18.09c-13.93,0-24.874,13.462-24.874,31.355      c0,3.22,0.194,6.427,0.794,9.047c1.196,6.221,3.183,10.043,3.183,10.043s-14.124,55.871-16.513,65.708      c-4.979,19.505-0.8,43.419-0.394,45.836c0.199,1.401,2.187,1.802,2.982,0.799c1.393-1.599,17.706-20.501,23.277-39.587      c1.596-5.43,9.151-33.163,9.151-33.163c4.578,8.034,17.707,15.07,31.637,15.07c33.634,0,58.694-23.511,66.659-57.883      c1.992-7.632,2.988-16.073,2.988-24.923C342.953,240.838,310.519,207.478,261.172,207.478L261.172,207.478z" style="fill:#FFFFFF;"/></g></g></g></g><g id="Layer_1"/></svg>