<?xml version="1.0" ?><!DOCTYPE svg  PUBLIC '-//W3C//DTD SVG 1.1//EN'  'http://www.w3.org/Graphics/SVG/1.1/DTD/svg11.dtd'><svg height="512px" style="enable-background:new 0 0 512 512;" version="1.1" viewBox="0 0 512 512" width="512px" xml:space="preserve" xmlns="http://www.w3.org/2000/svg" xmlns:xlink="http://www.w3.org/1999/xlink"><g id="media__x2C__social__x2C__web__x2C__network__x2C__whatsapp__x2C_"><g><g><path d="M470.742,150.093v253.936l-90.698,91.606H107.017     c-36.174,0-65.759-29.943-65.759-66.486V150.093H470.742z" style="fill-rule:evenodd;clip-rule:evenodd;fill:#20B07F;"/><path d="M107.017,61.848h26.881v22.97     c0,15.036,12.125,27.271,27.011,27.271c14.883,0,27.068-12.235,27.068-27.271v-22.97h136.047v22.97     c0,15.036,12.184,27.271,27.066,27.271c14.889,0,27.072-12.235,27.072-27.271v-22.97h26.819     c36.174,0,65.761,29.879,65.761,66.419v15.23H41.258v-15.23C41.258,91.727,70.843,61.848,107.017,61.848L107.017,61.848z" style="fill-rule:evenodd;clip-rule:evenodd;fill:#E5E6E7;"/><path d="M351.09,16.365L351.09,16.365     c12.25,0,22.3,10.15,22.3,22.515v45.938c0,12.37-10.05,22.515-22.3,22.515l0,0c-12.306,0-22.294-10.145-22.294-22.515V38.88     C328.796,26.516,338.784,16.365,351.09,16.365L351.09,16.365z M160.908,16.365L160.908,16.365     c12.309,0,22.297,10.15,22.297,22.515v45.938c0,12.37-9.988,22.515-22.297,22.515l0,0c-12.251,0-22.3-10.145-22.3-22.515V38.88     C138.608,26.516,148.657,16.365,160.908,16.365L160.908,16.365z" style="fill-rule:evenodd;clip-rule:evenodd;fill:#20B07F;"/><path d="M470.742,404.028h-53.824     c-20.294,0-36.874,16.747-36.874,37.238v54.368L470.742,404.028z" style="fill-rule:evenodd;clip-rule:evenodd;fill:#57585A;"/></g><g><g><path d="M257.788,395.987c-18.105,0-35.218-5.233-49.344-14.279      l-34.428,10.654l11.144-31.945c-10.744-14.28-17.112-31.759-17.112-50.454c0-2.808,0.2-5.624,0.4-8.432      c4.378-43.621,42.781-77.778,89.34-77.778c47.159,0,85.965,35.169,89.538,79.387c0.196,2.201,0.399,4.415,0.399,6.823      C347.726,357.397,307.333,395.987,257.788,395.987L257.788,395.987z M306.736,330.464c-2.583-1.209-15.516-7.232-17.908-8.035      c-2.387-0.809-4.176-1.411-5.769,1.202c-1.796,2.417-6.765,8.235-8.358,9.853c-1.593,1.607-2.982,1.805-5.769,0.605      c-2.589-1.208-10.945-3.822-20.893-12.469c-7.761-6.627-13.136-14.864-14.522-17.281c-1.594-2.614-0.206-4.016,0.99-5.225      c1.195-1.006,2.589-2.811,3.979-4.419c0.399-0.405,0.6-0.806,0.996-1.208c0.6-0.806,0.996-1.812,1.59-3.011      c0.996-1.608,0.399-3.022-0.193-4.222c-0.6-1.411-5.975-13.665-7.961-18.687c-2.193-5.027-4.379-4.229-5.972-4.229      c-1.59,0-3.18-0.196-4.973-0.196s-4.572,0.603-6.965,3.217c-2.393,2.407-9.157,8.44-9.157,20.9c0,2.816,0.406,5.826,1.199,8.44      c2.783,8.841,8.357,16.278,9.348,17.478c1.396,1.608,18.109,27.743,44.773,37.792c26.66,10.052,26.66,6.826,31.438,6.427      c4.778-0.4,15.517-6.23,17.705-12.061c2.196-5.827,2.196-10.849,1.391-11.854C311.109,332.472,309.319,331.866,306.736,330.464      L306.736,330.464z M364.638,307.358c-1.599-55.473-48.75-99.884-106.85-99.884c-57.306,0-104.066,43.405-106.652,97.866      c0,1.611,0,3.023,0,4.622c0,19.292,5.572,37.382,15.319,52.861l-19.298,54.863l59.101-18.093      c15.319,8.044,32.828,12.663,51.53,12.663c59.096,0,106.85-45.814,106.85-102.295      C364.638,308.967,364.638,308.157,364.638,307.358L364.638,307.358z" style="fill-rule:evenodd;clip-rule:evenodd;fill:#20B07F;"/></g><g><path d="M257.788,395.987c-18.105,0-35.218-5.233-49.344-14.279l-34.428,10.654l11.144-31.945      c-10.744-14.28-17.112-31.759-17.112-50.454c0-2.808,0.2-5.624,0.4-8.432c4.378-43.621,42.781-77.778,89.34-77.778      c47.159,0,85.965,35.169,89.538,79.387c0.196,2.201,0.399,4.415,0.399,6.823C347.726,357.397,307.333,395.987,257.788,395.987      L257.788,395.987z M306.736,330.464c-2.583-1.209-15.516-7.232-17.908-8.035c-2.387-0.809-4.176-1.411-5.769,1.202      c-1.796,2.417-6.765,8.235-8.358,9.853c-1.593,1.607-2.982,1.805-5.769,0.605c-2.589-1.208-10.945-3.822-20.893-12.469      c-7.761-6.627-13.136-14.864-14.522-17.281c-1.594-2.614-0.206-4.016,0.99-5.225c1.195-1.006,2.589-2.811,3.979-4.419      c0.399-0.405,0.6-0.806,0.996-1.208c0.6-0.806,0.996-1.812,1.59-3.011c0.996-1.608,0.399-3.022-0.193-4.222      c-0.6-1.411-5.975-13.665-7.961-18.687c-2.193-5.027-4.379-4.229-5.972-4.229c-1.59,0-3.18-0.196-4.973-0.196      s-4.572,0.603-6.965,3.217c-2.393,2.407-9.157,8.44-9.157,20.9c0,2.816,0.406,5.826,1.199,8.44      c2.783,8.841,8.357,16.278,9.348,17.478c1.396,1.608,18.109,27.743,44.773,37.792c26.66,10.052,26.66,6.826,31.438,6.427      c4.778-0.4,15.517-6.23,17.705-12.061c2.196-5.827,2.196-10.849,1.391-11.854C311.109,332.472,309.319,331.866,306.736,330.464      L306.736,330.464z M364.638,307.358c-1.599-55.473-48.75-99.884-106.85-99.884c-57.306,0-104.066,43.405-106.652,97.866      c0,1.611,0,3.023,0,4.622c0,19.292,5.572,37.382,15.319,52.861l-19.298,54.863l59.101-18.093      c15.319,8.044,32.828,12.663,51.53,12.663c59.096,0,106.85-45.814,106.85-102.295      C364.638,308.967,364.638,308.157,364.638,307.358L364.638,307.358z" style="fill:#FFFFFF;"/></g></g></g></g><g id="Layer_1"/></svg>