<?xml version="1.0" ?><svg id="Layer_1" style="enable-background:new 0 0 64 64;" version="1.1" viewBox="0 0 64 64" xml:space="preserve" xmlns="http://www.w3.org/2000/svg" xmlns:xlink="http://www.w3.org/1999/xlink"><style type="text/css">
	.st0{fill:none;stroke:#000000;stroke-width:2;stroke-linejoin:round;stroke-miterlimit:10;}
</style><path d="M32,4C16.561,4,4,16.561,4,32s12.561,28,28,28s28-12.561,28-28S47.439,4,32,4z M32,58C17.664,58,6,46.336,6,32  S17.664,6,32,6s26,11.664,26,26S46.336,58,32,58z"/><path d="M32,39c-1.126,0-11,0.14-11,5h2c0-2.042,5.371-2.998,9-3c3.63,0.002,9,0.958,9,3h2C43,39.14,33.126,39,32,39z"/><polygon points="25.293,28.707 26.707,27.293 23.914,24.5 26.707,21.707 25.293,20.293 22.5,23.086 19.707,20.293 18.293,21.707   21.086,24.5 18.293,27.293 19.707,28.707 22.5,25.914 "/><polygon points="44.293,20.293 41.5,23.086 38.707,20.293 37.293,21.707 40.086,24.5 37.293,27.293 38.707,28.707 41.5,25.914   44.293,28.707 45.707,27.293 42.914,24.5 45.707,21.707 "/></svg>