<?xml version="1.0" ?><svg id="Layer_1" style="enable-background:new 0 0 64 64;" version="1.1" viewBox="0 0 64 64" xml:space="preserve" xmlns="http://www.w3.org/2000/svg" xmlns:xlink="http://www.w3.org/1999/xlink"><style type="text/css">
	.st0{fill:none;stroke:#000000;stroke-width:2;stroke-linejoin:round;stroke-miterlimit:10;}
</style><circle class="st0" cx="32" cy="32" r="27"/><path d="M43,40h-2c0,2.042-5.371,2.998-9,3c-3.629-0.002-9-0.958-9-3h-2c0,4.86,9.874,5,11,5S43,44.86,43,40z"/><path d="M51.294,31.051C52.528,29.463,54,26.778,54,23c0-0.552-0.447-1-1-1H11c-0.553,0-1,0.448-1,1  c0,3.778,1.472,6.463,2.706,8.052C13.67,32.29,15.114,33,16.67,33H26c1.296,0,3.109-0.673,4.388-3.877C30.66,28.441,31.293,28,32,28  s1.34,0.441,1.612,1.123C34.891,32.327,36.704,33,38,33h9.33C48.886,33,50.33,32.29,51.294,31.051z M47.33,31H38  c-1.292,0-2.14-1.641-2.53-2.619C34.892,26.935,33.529,26,32,26s-2.892,0.935-3.47,2.381C28.14,29.359,27.292,31,26,31h-9.33  c-0.934,0-1.804-0.429-2.386-1.176c-0.93-1.197-2.021-3.137-2.243-5.824h39.918c-0.223,2.687-1.313,4.626-2.243,5.823  C49.134,30.571,48.264,31,47.33,31z"/></svg>