<?xml version="1.0" ?><svg id="Layer_1" style="enable-background:new 0 0 64 64;" version="1.1" viewBox="0 0 64 64" xml:space="preserve" xmlns="http://www.w3.org/2000/svg" xmlns:xlink="http://www.w3.org/1999/xlink"><style type="text/css">
	.st0{fill:none;stroke:#000000;stroke-width:2;stroke-linejoin:round;stroke-miterlimit:10;}
</style><path d="M32,4C16.561,4,4,16.561,4,32s12.561,28,28,28s28-12.561,28-28S47.439,4,32,4z M32,58C17.664,58,6,46.336,6,32  S17.664,6,32,6s26,11.664,26,26S46.336,58,32,58z"/><path d="M26.5,25c0-2.206-1.794-4-4-4s-4,1.794-4,4s1.794,4,4,4S26.5,27.206,26.5,25z M22.5,27c-1.103,0-2-0.897-2-2s0.897-2,2-2  s2,0.897,2,2S23.603,27,22.5,27z"/><path d="M41.5,21c-2.206,0-4,1.794-4,4s1.794,4,4,4s4-1.794,4-4S43.706,21,41.5,21z M41.5,27c-1.103,0-2-0.897-2-2s0.897-2,2-2  s2,0.897,2,2S42.603,27,41.5,27z"/><polygon points="37.293,35.293 32,40.586 26.707,35.293 25.293,36.707 30.586,42 25.293,47.293 26.707,48.707 32,43.414   37.293,48.707 38.707,47.293 33.414,42 38.707,36.707 "/></svg>