<?xml version="1.0" ?><svg id="Layer_1" style="enable-background:new 0 0 64 64;" version="1.1" viewBox="0 0 64 64" xml:space="preserve" xmlns="http://www.w3.org/2000/svg" xmlns:xlink="http://www.w3.org/1999/xlink"><style type="text/css">
	.st0{fill:none;stroke:#000000;stroke-width:2;stroke-linejoin:round;stroke-miterlimit:10;}
</style><path d="M22.25,25c0,2.206,1.794,4,4,4s4-1.794,4-4s-1.794-4-4-4c-0.171,0-0.334,0.03-0.5,0.051V21h-10v2h7.056  C22.462,23.591,22.25,24.268,22.25,25z M28.25,25c0,1.103-0.897,2-2,2s-2-0.897-2-2s0.897-2,2-2S28.25,23.897,28.25,25z"/><path d="M45.75,21.051V21h-10v2h6.056c-0.344,0.591-0.556,1.268-0.556,2c0,2.206,1.794,4,4,4s4-1.794,4-4  C49.25,22.966,47.718,21.3,45.75,21.051z M45.25,27c-1.103,0-2-0.897-2-2s0.897-2,2-2s2,0.897,2,2S46.353,27,45.25,27z"/><path d="M32,39c-1.126,0-11,0.14-11,5h2c0-2.042,5.371-2.998,9-3c3.629,0.002,9,0.958,9,3h2C43,39.14,33.126,39,32,39z"/><path d="M32,4C16.561,4,4,16.561,4,32s12.561,28,28,28s28-12.561,28-28S47.439,4,32,4z M32,58C17.663,58,6,46.336,6,32  S17.663,6,32,6s26,11.664,26,26S46.337,58,32,58z"/></svg>