<?xml version="1.0" ?><svg id="Layer_1" style="enable-background:new 0 0 64 64;" version="1.1" viewBox="0 0 64 64" xml:space="preserve" xmlns="http://www.w3.org/2000/svg" xmlns:xlink="http://www.w3.org/1999/xlink"><style type="text/css">
	.st0{fill:none;stroke:#000000;stroke-width:2;stroke-linejoin:round;stroke-miterlimit:10;}
</style><path d="M21.5,24c1.654,0,3,1.346,3,3h2c0-2.757-2.243-5-5-5s-5,2.243-5,5h2C18.5,25.346,19.846,24,21.5,24z"/><path d="M40.5,24c1.654,0,3,1.346,3,3h2c0-2.757-2.243-5-5-5s-5,2.243-5,5h2C37.5,25.346,38.846,24,40.5,24z"/><path d="M31,60c15.439,0,28-12.561,28-28S46.439,4,31,4S3,16.561,3,32S15.561,60,31,60z M31,6c14.337,0,26,11.664,26,26  S45.337,58,31,58S5,46.336,5,32S16.663,6,31,6z"/><path d="M21,43h16v2.5c0,1.93,1.57,3.5,3.5,3.5s3.5-1.57,3.5-3.5V42c0-0.552-0.447-1-1-1H21V43z M39,43h3v2.5  c0,0.827-0.673,1.5-1.5,1.5S39,46.327,39,45.5V43z"/></svg>