<?xml version="1.0" ?><svg id="Layer_1" style="enable-background:new 0 0 64 64;" version="1.1" viewBox="0 0 64 64" xml:space="preserve" xmlns="http://www.w3.org/2000/svg" xmlns:xlink="http://www.w3.org/1999/xlink"><style type="text/css">
	.st0{fill:none;stroke:#000000;stroke-width:2;stroke-linejoin:round;stroke-miterlimit:10;}
</style><path d="M32,43c-3.63-0.002-9-0.958-9-3h-2c0,4.86,9.874,5,11,5s11-0.14,11-5h-2C41,42.042,35.629,42.998,32,43z"/><path d="M41.5,21c-2.206,0-4,1.794-4,4s1.794,4,4,4s4-1.794,4-4S43.706,21,41.5,21z M41.5,27c-1.103,0-2-0.897-2-2s0.897-2,2-2  s2,0.897,2,2S42.603,27,41.5,27z"/><path d="M32,4C16.561,4,4,16.561,4,32s12.561,28,28,28s28-12.561,28-28S47.439,4,32,4z M32,58C17.664,58,6,46.336,6,32  S17.664,6,32,6s26,11.664,26,26S46.336,58,32,58z"/><path d="M26,25c0-0.4-0.238-0.762-0.606-0.919l-7-3l-0.788,1.838L22.461,25l-4.855,2.081l0.788,1.838l7-3  C25.762,25.762,26,25.4,26,25z"/></svg>