<?xml version="1.0" ?><svg enable-background="new 0 0 515.91 728.5" height="512" id="Layer_1" version="1.1" viewBox="0 0 512.00003 512" width="512" xml:space="preserve" xmlns="http://www.w3.org/2000/svg" xmlns:cc="http://creativecommons.org/ns#" xmlns:dc="http://purl.org/dc/elements/1.1/" xmlns:inkscape="http://www.inkscape.org/namespaces/inkscape" xmlns:rdf="http://www.w3.org/1999/02/22-rdf-syntax-ns#" xmlns:sodipodi="http://sodipodi.sourceforge.net/DTD/sodipodi-0.dtd" xmlns:svg="http://www.w3.org/2000/svg"><defs id="defs7"/><g id="g3001" transform="translate(15.99411,26.358258)"><path d="m 224.82283,131.98819 c -18.60236,3.93307 -35.3622,12.93307 -48.68503,25.51182 6.66141,3.01181 14.20866,5.59842 22.46456,7.68897 1.20473,-2.69291 2.51575,-5.27953 3.86221,-7.72441 6.09448,-11.01968 13.67716,-19.87795 22.35826,-25.47638 z m 42.23622,0 c 8.68111,5.59843 16.29922,14.4567 22.35827,25.47638 1.38189,2.44488 2.65748,5.0315 3.89764,7.72441 8.22047,-2.09055 15.76772,-4.67716 22.42913,-7.68897 -13.32283,-12.57875 -30.04724,-21.57875 -48.68504,-25.51182 z m -25.22834,1.98426 c -12.04725,1.80708 -23.38583,11.55118 -32.17323,27.42519 -0.99213,1.80709 -1.94882,3.68504 -2.87008,5.63386 10.84252,2.16142 22.67717,3.47244 35.04331,3.68504 z m 8.22047,0 0,36.74409 c 12.40158,-0.2126 24.20079,-1.52362 35.04331,-3.68504 -0.92126,-1.94882 -1.87795,-3.82677 -2.87008,-5.63386 -8.7874,-15.87401 -20.12599,-25.61811 -32.17323,-27.42519 z m -79.97244,29.76378 c -15.23622,17.0433 -24.83858,39.25984 -25.79528,63.70866 l 41.20867,0 c 0.42519,-20.12599 3.9685,-38.83465 9.92126,-54.60236 -9.3189,-2.40945 -17.82284,-5.4567 -25.33465,-9.1063 z m 151.72441,0 c -7.47638,3.6496 -16.01575,6.69685 -25.33465,9.1063 5.95276,15.76771 9.49607,34.47637 9.92126,54.60236 l 41.2441,0 c -0.99213,-24.44882 -10.55906,-46.66536 -25.83071,-63.70866 z m -118.31102,11.01968 c -5.74016,14.95276 -9.35434,33.05906 -9.77953,52.68898 l 48.11811,0 0,-48.50788 c -13.53543,-0.24803 -26.46851,-1.70078 -38.33858,-4.1811 z m 84.89763,0 c -11.87008,2.48032 -24.76771,3.93307 -38.33858,4.1811 l 0,48.50788 48.11811,0 c -0.4252,-19.62992 -4.00394,-37.73622 -9.77953,-52.68898 z m -144.1063,60.87402 c 0.9567,24.44882 10.55906,46.70079 25.79528,63.7441 7.51181,-3.61418 16.05118,-6.69685 25.33465,-9.1063 -5.95276,-15.80315 -9.49607,-34.47638 -9.92126,-54.6378 z m 49.42914,0 c 0.42519,19.66535 4.00394,37.77165 9.77953,52.72441 11.87007,-2.48031 24.76771,-3.93307 38.33858,-4.1811 l 0,-48.54331 z m 56.33858,0 0,48.54331 c 13.57087,0.2126 26.4685,1.70079 38.33858,4.1811 5.77559,-14.95276 9.35433,-33.09449 9.77953,-52.72441 z m 56.33858,0 c -0.42519,20.16142 -3.9685,38.83465 -9.88582,54.6378 9.28346,2.40945 17.7874,5.49212 25.29921,9.1063 15.27165,-17.04331 24.83858,-39.29528 25.83071,-63.7441 z m -64.55905,56.76378 c -12.36614,0.2126 -24.20079,1.52362 -35.04331,3.68504 0.92126,1.94882 1.87795,3.82677 2.87008,5.63386 8.7874,15.87401 20.12598,25.61811 32.17323,27.4252 z m 8.22047,0 0,36.7441 c 12.04724,-1.80709 23.38583,-11.55119 32.17323,-27.4252 0.99213,-1.80709 1.94882,-3.68504 2.87008,-5.63386 -10.84252,-2.16142 -22.64173,-3.47244 -35.04331,-3.68504 z m -51.44882,5.52756 c -8.2559,2.05512 -15.80315,4.67717 -22.46456,7.65354 13.35826,12.57874 30.08267,21.61418 48.68503,25.54725 -8.6811,-5.59843 -16.26378,-14.4567 -22.35826,-25.47638 -1.34646,-2.48032 -2.65748,-5.0315 -3.86221,-7.72441 z m 94.7126,0 c -1.24016,2.69291 -2.51575,5.24409 -3.89764,7.72441 -6.05905,11.01968 -13.67716,19.87795 -22.35827,25.47638 18.60237,-3.93307 35.36221,-12.96851 48.68504,-25.54725 -6.66141,-2.97637 -14.20866,-5.59842 -22.42913,-7.65354 z" id="path3003" style="fill:#1b8e99;fill-opacity:1;fill-rule:nonzero;stroke:none"/><path d="M 177.51968,47.51575 C 112.96063,71.681105 64.27559,128.97638 52.370079,198.4252 c 2.870078,0.88583 5.740157,1.59449 8.681102,2.12599 0.425197,-5.95276 2.267717,-11.76378 5.385827,-16.86614 10.452756,-19.09843 39.118112,-23.63386 55.381892,-9.56693 5.06693,-1.1693 9.56693,-3.50788 13.92519,-6.16536 11.30315,-19.59449 27.67323,-35.85827 47.37402,-47.01969 -1.91339,-2.12598 -3.43701,-4.60629 -4.42913,-7.40551 -1.91339,-21.933069 -1.38189,-43.97244 -1.1693,-66.01181 z m 137.05512,0.106299 c -0.0354,16.901575 -0.46063,33.803151 -0.14173,50.704726 1.48819,7.830705 -0.67323,16.476375 -5.74016,22.570865 20.55118,11.58662 37.45276,28.77166 48.79134,49.5 2.76378,-3.04724 6.27165,-5.38582 10.38189,-6.51968 20.69291,-1.24016 41.38583,-0.95669 62.07874,-0.77953 C 410.0315,109.94882 367.68898,67.570868 314.5748,47.622049 z M 121.14567,255.54332 c -3.08268,4.88976 -6.59055,9.49606 -10.48819,13.71259 -13.003937,14.59843 -31.074803,23.563 -50.173228,26.71654 19.240157,55.09843 62.503938,99.17717 117.035428,119.62205 l 0,-40.7126 c -0.81496,-3.57874 3.61418,-4.32283 6.16536,-3.57874 -2.97638,-2.37401 -5.2441,-5.52756 -6.55512,-9.1063 -3.04724,-7.29921 -0.95669,-15.37795 3.89764,-21.25984 -30.75591,-18.17717 -53.00788,-48.93307 -59.88189,-85.3937 z m 236.30315,37.24015 c -21.47244,39.33071 -63.17717,65.79922 -111.50788,65.79922 -8.18503,0 -16.19291,-0.77953 -23.95275,-2.23228 -0.5315,5.74015 -3.22441,11.33858 -7.65354,15.02362 8.64566,-0.24803 17.32677,0.0709 25.97244,-0.0709 6.16535,0.70866 13.71259,-2.16142 18.74409,2.65748 5.1378,-2.62204 10.87795,-4.64173 16.83071,-4.5 16.79527,-1.66535 32.91732,10.16929 37.66535,26.00788 1.34646,6.44882 2.01969,12.9685 2.33859,19.52362 52.44094,-20.12599 94.21653,-62.18504 113.98819,-114.80315 -16.26378,-0.0709 -32.52756,-0.49607 -48.79134,-0.14174 -8.43307,1.55906 -17.68111,-1.24015 -23.63386,-7.26378 z" id="path3005" style="fill:#37484a;fill-opacity:1;fill-rule:nonzero;stroke:none"/><path d="m 141.94488,187.54725 c -5.24409,2.30315 -10.84252,3.89764 -16.72441,4.57087 5.98819,-3.57874 10.62992,-9.3189 12.79134,-16.08662 -5.63386,3.33071 -11.87008,5.74016 -18.49606,7.05118 -5.31496,-5.63386 -12.86221,-9.17716 -21.259845,-9.17716 -16.086614,0 -29.125984,13.03937 -29.125984,29.12598 0,2.26772 0.248032,4.5 0.779528,6.62599 -24.200788,-1.20473 -45.673229,-12.82677 -60.0236222,-30.43701 -2.480315,4.2874 -3.9330709,9.28346 -3.9330709,14.63386 0,10.09842 5.1377951,18.99212 12.9685041,24.20079 -4.783465,-0.14174 -9.2834647,-1.45276 -13.2165356,-3.61418 l 0,0.35433 c 0,14.10237 10.0629926,25.86615 23.3858266,28.52363 -2.444882,0.67322 -5.031496,1.02755 -7.688976,1.02755 -1.877953,0 -3.68504,-0.17716 -5.492126,-0.53149 3.720472,11.58661 14.492126,19.98425 27.212598,20.23228 -9.992126,7.79528 -22.535433,12.47244 -36.1771651,12.47244 -2.3385827,0 -4.6417323,-0.14173 -6.9448819,-0.38976 12.862205,8.22047 28.169291,13.0748 44.645669,13.0748 53.53937,0 82.842521,-44.3622 82.842521,-82.84252 0,-1.27559 -0.0354,-2.51575 -0.1063,-3.7559 5.70472,-4.11024 10.62992,-9.24804 14.52756,-15.09449 l 0.0354,0.0354 z" id="path3007" style="fill:#1b8e99;fill-opacity:1;fill-rule:nonzero;stroke:none"/><path d="m 199.06299,340.90159 c -9.1063,0 -15.02362,5.95275 -15.02362,13.78346 0,7.65354 5.74016,13.78347 14.66929,13.78347 l 0.17717,0 c 9.24803,0 15.02362,-6.12993 15.02362,-13.78347 -0.17717,-7.83071 -5.77559,-13.78346 -14.84646,-13.78346 z m 78.23622,36.63779 c -14.06693,0 -20.37401,7.72441 -23.91732,13.18111 l 0,-11.30315 -26.53937,0 c 0.35433,7.47637 0,79.83071 0,79.83071 l 26.53937,0 0,-44.61024 c 0,-2.37402 0.17716,-4.74803 0.88583,-6.44882 1.91338,-4.78346 6.27165,-9.70866 13.6063,-9.70866 9.60236,0 13.46456,7.33464 13.46456,18.07087 l 0,42.69685 26.50394,0 0,-45.77953 c 0,-24.51969 -13.0748,-35.92914 -30.54331,-35.92914 z m -91.70079,1.87796 0,79.83071 26.57481,0 0,-79.83071 -26.57481,0 z" id="path3009" style="fill:#1b8e99;fill-opacity:1;fill-rule:nonzero;stroke:none"/><path d="m 200.65748,0.03543307 c -8.39764,0 -15.12992,6.73228373 -15.12992,15.09448893 l 0,90.602368 c 0,8.3622 6.73228,15.09449 15.12992,15.09449 l 90.60236,0 c 8.36221,0 15.09449,-6.73229 15.09449,-15.09449 l 0,-90.602368 c 0,-8.3622052 -6.73228,-15.09448893 -15.09449,-15.09448893 l -90.60236,0 z m 35.64567,13.21653593 25.54724,0 -7.937,4.429134 -7.68898,0 c 2.83464,2.374016 8.7874,7.334646 8.7874,16.72441 0,9.177166 -5.20866,13.535433 -10.41732,17.610237 -1.59449,1.594488 -3.47244,3.330709 -3.47244,6.059055 0,2.728347 1.87795,4.216536 3.22441,5.314961 l 4.46456,3.472441 c 5.4567,4.570866 10.41733,8.822835 10.41733,17.362205 0,11.622048 -11.26772,23.421258 -32.59843,23.421258 -17.96457,0 -26.6811,-8.574801 -26.6811,-17.751966 0,-4.429134 2.26772,-10.771654 9.56693,-15.094489 7.68897,-4.712598 18.1063,-5.314961 23.66929,-5.704724 -1.73622,-2.232284 -3.72047,-4.570867 -3.72047,-8.397639 0,-2.125984 0.63779,-3.366141 1.27559,-4.85433 -1.38189,0.141732 -2.76378,0.248031 -4.00394,0.248031 -13.11024,0 -20.55118,-9.779528 -20.55118,-19.452756 0,-5.704725 2.58661,-12.011812 7.93701,-16.582678 7.05118,-5.811024 15.48425,-6.80315 22.1811,-6.80315 z m 40.32283,3.507874 8.04331,0 c 0.17717,0 0.3189,0.141732 0.3189,0.318898 l 0,12.826772 12.82677,0 c 0.17717,0 0.3189,0.141732 0.3189,0.283464 l 0,8.043308 c 0,0.177165 -0.14173,0.318897 -0.3189,0.318897 l -12.82677,0 0,12.826772 c 0,0.177166 -0.14173,0.318898 -0.3189,0.318898 l -8.04331,0 c -0.17716,0 -0.28346,-0.141732 -0.28346,-0.318898 l 0,-12.826772 -12.86221,0 c -0.17716,0 -0.31889,-0.141732 -0.31889,-0.318897 l 0,-8.043308 c 0,-0.141732 0.14173,-0.283464 0.31889,-0.283464 l 12.86221,0 0,-12.826772 c 0,-0.177166 0.1063,-0.318898 0.28346,-0.318898 z m -48.15354,0.566929 c -3.22441,0 -6.69685,1.629922 -8.6811,4.074804 -2.09055,2.622047 -2.69292,5.952756 -2.69292,9.177165 0,8.291339 4.8189,22.039371 15.48426,22.039371 3.08267,0 6.44882,-1.488189 8.43307,-3.472441 2.83464,-2.834646 3.11811,-6.80315 3.11811,-9.035433 0,-8.893702 -5.3504,-22.783466 -15.66142,-22.783466 z m 6.09449,55.24016 c -1.13386,0 -7.83071,0.248031 -13.03937,1.984252 -2.72835,0.992126 -10.66536,3.968504 -10.66536,12.755906 0,8.787401 8.57481,15.09449 21.82678,15.09449 11.90551,0 18.24803,-5.669293 18.24803,-13.35827 0,-6.307087 -4.11024,-9.673229 -13.53544,-16.334646 -0.99212,-0.141732 -1.59448,-0.141732 -2.83464,-0.141732 z" id="path3011" style="fill:#1b8e99;fill-opacity:1;fill-rule:nonzero;stroke:none"/><path d="m 374.27953,171.14174 c -8.36221,0 -15.09449,6.73228 -15.09449,15.12992 l 0,90.60237 c 0,8.3622 6.73228,15.09448 15.09449,15.09448 l 90.63779,0 c 8.36221,0 15.09449,-6.73228 15.09449,-15.09448 l 0,-90.60237 c 0,-8.39764 -6.73228,-15.12992 -15.09449,-15.12992 l -90.63779,0 z m 56.55118,14.59842 0,0 c 5.95275,0 11.05512,0.4252 12.57874,0.6378 l 0,14.56299 -8.64567,0 c -6.76772,0 -8.07874,3.22441 -8.07874,7.93701 l 0,10.41732 16.15748,0 -2.12599,16.26378 -14.03149,0 0,41.81103 -16.83071,0 0,-41.81103 -14.06693,0 0,-16.29921 14.06693,0 0,-12.01181 c 0,-13.9252 8.53937,-21.50788 20.97638,-21.50788 z" id="path3013" style="fill:#1b8e99;fill-opacity:1;fill-rule:nonzero;stroke:none"/></g></svg>