<?xml version="1.0" ?><!DOCTYPE svg  PUBLIC '-//W3C//DTD SVG 1.1//EN'  'http://www.w3.org/Graphics/SVG/1.1/DTD/svg11.dtd'><svg enable-background="new 0 0 1024 1024" height="1024px" id="Layer_1" version="1.1" viewBox="0 0 1024 1024" width="1024px" xml:space="preserve" xmlns="http://www.w3.org/2000/svg" xmlns:xlink="http://www.w3.org/1999/xlink"><g><g><path clip-rule="evenodd" d="M52.003,0c19.515,1.918,39.045,3.694,58.542,5.774     c142.711,15.231,276.747,58.07,400.229,130.962c236.779,139.77,395.268,341.672,473.681,605.538     c26.238,88.289,38.445,178.829,39.535,270.893c0.031,2.66-0.023,5.325-0.141,7.985c-0.025,0.584-0.488,1.15-0.959,2.184     c-64.694,0-129.564,0-196.16,0c0-5.634,0.1-11.173-0.014-16.71c-7.14-348.286-232.698-655.783-562.785-767.322     C178.324,210.375,90.31,196.211,0,195.963C0,130.642,0,65.321,0,0C17.333,0,34.669,0,52.003,0z" fill-rule="evenodd"/><path clip-rule="evenodd" d="M0,347.936c193.078,1.801,356.982,72.407,490.353,211.428     C593.68,667.069,653.198,796.522,671.451,944.646c3.166,25.699,3.875,51.704,5.782,78.419c-66.714,0-131.832,0-197.633,0     c-1.081-15.981-1.842-32.193-3.324-48.341c-19.229-209.588-183.59-387.722-390.873-422.708C57.28,547.271,28.484,546.508,0,543.9     C0,478.578,0,413.258,0,347.936z" fill-rule="evenodd"/><path clip-rule="evenodd" d="M0,871.841c1.488-6.059,2.895-12.138,4.474-18.169     c17.709-67.682,83.879-110.339,154.533-99.652c66.867,10.116,116.872,71.996,113.582,140.549     c-3.27,68.139-57.761,124.807-124.145,129.107c-73.067,4.734-134.679-42.87-146.56-113.194c-0.381-2.258-1.245-4.434-1.885-6.646     C0,893.17,0,882.504,0,871.841z" fill-rule="evenodd"/></g></g></svg>