<?xml version="1.0" ?><!DOCTYPE svg  PUBLIC '-//W3C//DTD SVG 1.1//EN'  'http://www.w3.org/Graphics/SVG/1.1/DTD/svg11.dtd'><svg enable-background="new 0 0 1024 1024" height="1024px" id="Layer_1" version="1.1" viewBox="0 0 1024 1024" width="1024px" xml:space="preserve" xmlns="http://www.w3.org/2000/svg" xmlns:xlink="http://www.w3.org/1999/xlink"><g><g><path clip-rule="evenodd" d="M512.417,557.694c-1.139,17.192-1.988,34.411-3.48,51.572     c-2.872,33.042-11.675,64.7-24.042,95.309c-8.905,22.038-26.51,30.941-53.098,26.963c-36.697-5.494-73.643-10.104-109.815-18.119     c-44.069-9.771-87.493-22.497-131.094-34.32c-19.497-5.286-34.547-17.522-40.896-36.493     c-12.116-36.198-25.063-72.503-32.5-109.797c-12.929-64.829-22.567-130.345-32.153-195.782     c-2.484-16.953-1.144-34.875,1.07-52.011c3.563-27.591,20.245-45.779,46.829-53.312c12.862-3.644,26.559-5.511,39.941-5.888     c30.169-0.85,60.375-0.248,90.567-0.286c30.272-0.039,44.542-14.441,44.607-45.091c0.063-29.445,0.006-58.892,0.018-88.34     c0.021-51.123,21.721-78.285,72.354-87.178c51.402-9.029,102.417-5.332,152.792,8.595c29.404,8.125,46.793,27.85,54.9,56.025     c2.666,9.261,6.545,10.784,15.205,10.382c81.75-3.792,162.193,6.286,241.648,24.742c45.033,10.459,69.09,37.778,74.594,83.505     c15.717,130.577,24.799,261.769,17.676,393.076c-5.998,110.521-19.371,220.707-57.422,325.896     c-7.705,21.298-18.295,41.831-29.775,61.413c-17.037,29.062-43.471,45.989-76.955,50.153     c-60.607,7.531-121.354,7.495-181.531-3.177c-50.363-8.935-73.41-33.707-81.41-84.784c-5.065-32.341-4.826-64.917,2.497-97.008     c9.472-41.495,31.343-62.784,73.354-67.861c26-3.143,52.492-2.228,78.764-3.081c6.342-0.207,9.818,2.048,7.289,9.101     c-5.898,16.439-7.109,33.191-3.391,50.303c1.984,9.133-1.846,12.316-11.1,12.375c-13.471,0.084-27.16,0.343-40.33,2.813     c-15.162,2.845-22.432,12.111-23.541,27.622c-0.602,8.396-0.016,17.102,1.562,25.378c2.785,14.585,12.76,23.331,27.021,25.1     c36.615,4.553,73.355,5.096,109.795-1.73c19.732-3.696,31.443-16.598,34.102-36.248c5.551-41.032,4.957-81.993-6.811-122.009     c-10.021-34.081-30.203-49.117-65.154-53.456c-34.508-4.28-69.049-9.015-103.139-15.763     c-45.773-9.062-67.725-34.171-73.16-80.639c-1.863-15.939-2.336-32.045-3.447-48.071     C513.979,557.612,513.197,557.653,512.417,557.694z M792.545,497.932c-0.859-26.012-2.58-50.458-25.75-65.098     c-17.805-11.253-37.877-12.155-56.104-0.784c-18.943,11.822-23.609,31.76-26.557,53.302     C721.682,480.865,756.605,485.413,792.545,497.932z" fill-rule="evenodd"/><path clip-rule="evenodd" d="M288.187,32.145c-10.965,21.438-12.209,44.389-11.473,67.728     c0.864,27.453,1.482,54.917,2.019,82.378c0.261,13.379-2.054,15.661-15.268,15.722c-19.326,0.091-38.653-0.123-57.978,0.07     c-17.375,0.17-34.949-0.788-52.062,1.521c-16.57,2.236-32.665,8.005-42.334,10.505C166.094,153.104,225.67,91.398,285.247,29.695     C286.227,30.51,287.207,31.328,288.187,32.145z" fill-rule="evenodd"/></g></g></svg>