<?xml version="1.0" ?><!DOCTYPE svg  PUBLIC '-//W3C//DTD SVG 1.1//EN'  'http://www.w3.org/Graphics/SVG/1.1/DTD/svg11.dtd'><svg enable-background="new 0 0 1024 1024" height="1024px" id="Layer_1" version="1.1" viewBox="0 0 1024 1024" width="1024px" xml:space="preserve" xmlns="http://www.w3.org/2000/svg" xmlns:xlink="http://www.w3.org/1999/xlink"><g><g><path clip-rule="evenodd" d="M302.35,735.364c223.256,0,445.138,0,668.473,0     c-2.212,4.859-3.667,8.706-5.629,12.272C879.075,904.161,747.987,997.6,570.68,1019.796     c-87.865,10.998-175.354,0.902-257.889-36.011c-7.662-3.427-10.731-7.066-10.681-15.878c0.423-73.661,0.239-147.327,0.239-220.99     C302.35,743.185,302.35,739.45,302.35,735.364z" fill-rule="evenodd"/><path clip-rule="evenodd" d="M472.36,232.686C320.964,370.29,170.623,506.937,18.732,644.99     C-9.808,539.469-5.79,437.037,31.154,336.431C77.032,211.489,160.77,119.373,278.471,56.706     C343.016,115.289,407.154,173.502,472.36,232.686z" fill-rule="evenodd"/><path clip-rule="evenodd" d="M995.244,680.165c-72.692,0-144.689,0-217.528,0c0-200.954,0-401.641,0-604.354     c88.713,55.146,155.216,128.766,198.443,222.619C1033.447,422.804,1038.622,550.219,995.244,680.165z" fill-rule="evenodd"/><path clip-rule="evenodd" d="M331.942,32.35c27.703-7.652,52.352-15.84,77.602-21.194     C513.569-10.902,614.55,0.08,712.457,41.178c6.77,2.839,11.076,5.562,11.043,14.617c-0.416,107.428-0.268,214.859-0.279,322.289     c-0.002,1.902-0.157,3.805-0.387,9.083C592.312,268.689,463.501,151.767,331.942,32.35z" fill-rule="evenodd"/><path clip-rule="evenodd" d="M247.75,510.874c0,146.075,0,290.75,0,436.752     c-3.112-1.439-5.801-2.322-8.109-3.8C149.63,886.224,82.973,808.69,40.529,710.465c-2.477-5.735-3.283-9.735,2.405-14.866     c66.321-59.822,132.319-120.002,198.432-180.058C242.96,514.091,244.854,512.974,247.75,510.874z" fill-rule="evenodd"/></g></g></svg>