<?xml version="1.0" ?><!DOCTYPE svg  PUBLIC '-//W3C//DTD SVG 1.1//EN'  'http://www.w3.org/Graphics/SVG/1.1/DTD/svg11.dtd'><svg enable-background="new 0 0 1024 1024" height="1024px" id="Layer_1" version="1.1" viewBox="0 0 1024 1024" width="1024px" xml:space="preserve" xmlns="http://www.w3.org/2000/svg" xmlns:xlink="http://www.w3.org/1999/xlink"><g><path d="M0,879.775c0-17.333,0-34.664,0-51.998c0.584-2.568,1.484-5.112,1.708-7.714c4.542-52.77,16.758-103.913,35.571-153.208    c52.277-136.979,130.914-257.142,234.233-361.147c23.378-23.534,47.33-46.5,71.017-69.725c-0.739-0.862-1.478-1.722-2.217-2.583    c-44.407,22.157-85.184,49.831-123.131,81.918c-37.803,31.963-71.449,67.977-103.412,105.787c0.042-3.393,0.708-6.268,1.486-9.113    c24.667-90.014,72.658-165.335,143.644-225.794C354.407,104.851,464.81,67.468,590.335,75.385    c4.401,0.278,9.13-1.085,13.387-2.588c35.438-12.501,70.291-26.958,106.304-37.467c56.691-16.546,114.707-24.759,173.864-15.388    c29.717,4.707,56.183,15.83,75.342,40.819c21.935,28.61,31.846,61.144,33.212,96.592c1.866,48.437-10.288,94.329-25.826,139.621    c-1.433,4.175-1.812,10.206,0.16,13.835c33.276,61.222,53.001,126.382,56.544,196c1.382,27.131,0.227,54.395,0.227,83.02    c-220.152,0-438.302,0-656.948,0c0.627,38.056,8.123,72.974,27.244,104.45c79.739,131.264,269.576,132.288,351.509,1.979    c3.777-6.009,7.565-8.543,14.887-8.516c76.702,0.295,153.404,0.184,230.106,0.184c3.199,0,6.399,0,10.834,0    c-1.661,4.676-2.791,8.078-4.071,11.423c-90.897,237.558-366.003,375.289-632.392,257.147c-8.902-3.95-15.806-3.933-25.047-0.279    c-36.154,14.282-72.298,29.074-109.509,40.088c-42.935,12.706-87.385,16.881-131.148,3.259    C51.81,984.874,15.94,957.55,4.81,906.035C2.932,897.344,1.59,888.534,0,879.775z M756.806,466.933    c-4.863-68.299-37.518-119.69-94.328-154c-67.402-40.706-137.388-40.082-204.145,1.766    c-55.177,34.589-86.991,85.303-91.434,152.234C497.321,466.933,626.463,466.933,756.806,466.933z M322.75,934.235    c-94.582-58.157-159.818-137.955-199.199-239.91c-11.768,24.08-22.61,47.629-31.975,71.75    c-13.939,35.909-23.433,72.818-21.609,111.918c2.578,55.326,41.273,93.956,96.599,95.946    C221.534,975.916,270.959,956.13,322.75,934.235z M733.525,107.625c90.953,37.471,161.357,95.691,215.077,176.521    c13.816-37.594,24.282-73.358,23.141-111.153c-1.907-63.184-40.069-99.477-103.321-99.296    C821.812,73.831,779.008,89.41,733.525,107.625z"/></g></svg>