<?xml version="1.0" ?><!DOCTYPE svg  PUBLIC '-//W3C//DTD SVG 1.1//EN'  'http://www.w3.org/Graphics/SVG/1.1/DTD/svg11.dtd'><svg enable-background="new 0 0 1024 1024" height="1024px" id="Layer_1" version="1.1" viewBox="0 0 1024 1024" width="1024px" xml:space="preserve" xmlns="http://www.w3.org/2000/svg" xmlns:xlink="http://www.w3.org/1999/xlink"><g><path clip-rule="evenodd" d="M489.028,894.348c-53.209,0-106.421,0.177-159.629-0.033    C164.679,893.662,26.873,773.905,3.324,611.116C-23.062,428.712,110.749,257.094,294.042,239.15    c22.879-2.238,46.171,0.002,69.229-0.925c5.685-0.231,12.21-3.597,16.634-7.475c44.217-38.789,93.64-68.132,150.188-85.227    c227.256-68.699,462.764,84.375,491.074,319.295c24.412,202.59-111.439,387.606-312.01,423.869    c-23.424,4.236-47.605,5.431-71.475,5.847c-49.539,0.866-99.102,0.262-148.654,0.262    C489.029,894.646,489.029,894.495,489.028,894.348z M516.32,324.143c2.473-1.458,5.6-3.283,8.711-5.141    c83.592-49.897,189.756-40.774,263.33,22.636c73.303,63.177,97.754,167.337,60.371,257.158    c-60.641,145.697-249.74,185.251-363.604,75.52c-46.476-44.788-91.434-91.146-137.194-136.676    c-16.05-15.974-35.528-16.918-49.649-2.848c-14.17,14.115-13.314,33.658,2.577,49.591c45.299,45.418,90.086,91.37,136.252,135.895    c66.857,64.472,147.545,92.054,239.565,80.805c162.592-19.874,274.932-167.313,252.793-329.206    c-30.021-219.522-287.521-326.366-464.069-192.539c-3.386,2.567-6.573,5.397-9.879,8.128    C476.087,299.873,495.44,311.546,516.32,324.143z M431.33,803.207c-16.362-14.912-31.247-25.889-42.833-39.637    c-17.778-21.098-38.1-32.676-66.153-27.414c-0.781,0.146-1.62-0.012-2.432-0.04c-97.095-3.561-175.117-96.749-160.236-192.508    c10.792-69.443,49.669-118.041,116.361-139.937c66.61-21.867,126.573-6.012,176.852,43.332    c30.996,30.42,61.379,61.462,92.278,91.979c14.371,14.196,34.627,14.375,47.91,1.115c13.289-13.269,13.152-33.429-1.113-47.832    c-32.852-33.162-65.236-66.838-99.239-98.786c-56.505-53.087-124.068-73.575-200.674-61.942    C185.533,347.713,100.931,439.042,92.792,542.879c-9.95,126.938,73.34,221.847,168.19,249.874    C316.056,809.026,372.207,799.509,431.33,803.207z" fill-rule="evenodd"/></g></svg>