<?xml version="1.0" ?><!DOCTYPE svg  PUBLIC '-//W3C//DTD SVG 1.1//EN'  'http://www.w3.org/Graphics/SVG/1.1/DTD/svg11.dtd'><svg enable-background="new 0 0 1024 1024" height="1024px" id="Layer_1" version="1.1" viewBox="0 0 1024 1024" width="1024px" xml:space="preserve" xmlns="http://www.w3.org/2000/svg" xmlns:xlink="http://www.w3.org/1999/xlink"><g><g><path clip-rule="evenodd" d="M1024,0c0,159.609,0,319.218,0,479.437c-181.489,0-362.251,0-543.506,0     c0-132.902,0-265.454,0-399.327c17.325-2.633,34.922-5.376,52.542-7.972c93.879-13.841,187.76-27.651,281.643-41.459     c64.896-9.542,129.8-19.053,194.69-28.625c2.915-0.431,5.755-1.358,8.63-2.054C1019.999,0,1022,0,1024,0z" fill-rule="evenodd"/><path clip-rule="evenodd" d="M0,150.015c34.917-4.948,69.852-9.782,104.749-14.869     c84.634-12.334,169.25-24.786,253.873-37.194c18.737-2.748,37.473-5.502,56.837-8.347c0,130.212,0,259.683,0,390.443     c-138.564,0-277.011,0-415.458,0C0,370.037,0,260.025,0,150.015z" fill-rule="evenodd"/><path clip-rule="evenodd" d="M0,544.055c138.209,0,276.417,0,415.313,0c0,130.277,0,259.98,0,390.384     c-30.752-4.504-61.013-8.932-91.273-13.363c-84.296-12.342-168.586-24.718-252.889-37.009     c-23.698-3.455-47.434-6.658-71.151-9.979C0,764.077,0,654.066,0,544.055z" fill-rule="evenodd"/><path clip-rule="evenodd" d="M1023.277,1024c-181.239-26.661-361.952-53.245-542.909-79.862     c0-133.37,0-265.943,0-399.3c180.736,0,361.461,0,542.909,0C1023.277,703.983,1023.277,863.412,1023.277,1024z" fill-rule="evenodd"/></g></g></svg>