<?xml version="1.0" ?><!DOCTYPE svg  PUBLIC '-//W3C//DTD SVG 1.1//EN'  'http://www.w3.org/Graphics/SVG/1.1/DTD/svg11.dtd'><svg enable-background="new 0 0 1024 1024" height="1024px" id="Layer_1" version="1.1" viewBox="0 0 1024 1024" width="1024px" xml:space="preserve" xmlns="http://www.w3.org/2000/svg" xmlns:xlink="http://www.w3.org/1999/xlink"><g><g><path clip-rule="evenodd" d="M0,245.978c3.464-1.775,7.121-3.254,10.364-5.366     c97.457-63.445,194.915-126.887,292.196-190.6c6.393-4.186,10.148-4.148,16.085,0.991     c62.006,53.695,124.319,107.037,186.56,160.463c2.746,2.355,5.613,4.571,9.101,7.402c19.348-16.193,38.476-32.17,57.569-48.19     c47.253-39.647,94.598-79.187,141.602-119.127c6.425-5.46,10.758-5.666,17.851-1.101c94.143,60.58,188.505,120.82,282.81,181.15     c2.786,1.781,5.523,3.64,9.863,6.51c-66.23,55.266-131.815,109.993-198.052,165.267     c66.141,56.76,131.835,113.135,198.048,169.958c-3.854,2.468-6.868,4.503-9.98,6.375     c-95.959,57.613-191.979,115.13-287.79,172.991c-6.797,4.106-10.963,4.081-17.339-0.866     c-61.102-47.408-122.51-94.42-183.835-141.542c-3.417-2.626-6.862-5.217-10.939-8.316     c-23.607,18.108-47.093,36.108-70.564,54.129c-41.248,31.671-82.635,63.162-123.58,95.216c-6.987,5.471-11.72,5.254-19.046,0.882     C203.665,694.166,106.208,636.465,8.78,578.716c-2.812-1.668-5.849-2.96-8.78-4.427c0-0.667,0-1.335,0-2.002     c1.976-1.091,4.125-1.953,5.904-3.305c67.365-51.221,134.699-102.485,202.021-153.763c1.757-1.34,3.349-2.895,5.773-5.011     c-12.227-9.331-23.799-18.21-35.42-27.027C118.858,338.105,59.426,293.046,0,247.979C0,247.312,0,246.644,0,245.978z      M807.287,396.98c-2.108-1.48-3.631-2.733-5.316-3.703c-93.787-53.93-187.63-107.767-281.286-161.927     c-5.631-3.258-9.048-1.398-13.402,1.237c-93.989,56.899-188.005,113.752-282.004,170.635c-2.073,1.253-4.001,2.749-6.517,4.49     c1.979,1.437,2.986,2.258,4.076,2.946c94.345,59.513,188.742,118.947,282.941,178.692c5.94,3.769,9.437,1.808,14.107-1.298     c93.198-61.93,186.457-123.768,279.696-185.637C802.033,400.79,804.393,399.026,807.287,396.98z" fill-rule="evenodd"/><path clip-rule="evenodd" d="M716.062,792.492c33.315-19.971,65.827-39.46,100.232-60.082     c0,16.708,0.344,31.794-0.332,46.832c-0.115,2.561-4.264,5.444-7.118,7.303c-86.295,56.138-172.662,112.162-259.017,168.206     c-10.896,7.074-21.577,14.527-32.821,21.001c-2.853,1.643-8.491,1.707-11.152-0.061     c-95.741-63.615-191.299-127.511-286.763-191.544c-2.646-1.775-5.541-5.424-5.674-8.321c-0.604-13.265-0.266-26.573-0.266-42.006     c33.812,20.01,66.045,39.086,99.087,58.645c12.272-9.397,24.656-18.852,37.011-28.341     c52.338-40.203,104.758-80.299,156.882-120.778c6.139-4.767,9.879-4.737,16.01,0.012     c60.594,46.965,121.455,93.577,182.249,140.286C708.076,786.477,711.801,789.263,716.062,792.492z" fill-rule="evenodd"/></g></g></svg>