<?xml version="1.0" ?><!DOCTYPE svg  PUBLIC '-//W3C//DTD SVG 1.1//EN'  'http://www.w3.org/Graphics/SVG/1.1/DTD/svg11.dtd'><svg height="512px" style="enable-background:new 0 0 512 512;" version="1.1" viewBox="0 0 512 512" width="512px" xml:space="preserve" xmlns="http://www.w3.org/2000/svg" xmlns:xlink="http://www.w3.org/1999/xlink"><g id="file__x2C__dmg__x2C__apple__x2C__exe__x2C_"><g id="Layer_27"><g><g><path d="M428.136,454.447H83.865c-2.773,0-5.022-2.246-5.022-5.021V24.188c0-2.775,2.249-5.021,5.022-5.021h344.271      c2.774,0,5.021,2.246,5.021,5.021v425.238C433.156,452.201,430.91,454.447,428.136,454.447z M88.886,444.404h334.228V29.209      H88.886V444.404z"/></g><g><path d="M387.789,179.667H124.215c-9.218,0-16.721-7.549-16.721-16.831V70.552c0-9.282,7.502-16.836,16.721-16.836h263.574      c9.217,0,16.716,7.554,16.716,16.836v92.285C404.505,172.119,397.006,179.667,387.789,179.667z M124.215,63.757      c-3.684,0-6.678,3.047-6.678,6.794v92.285c0,3.742,2.994,6.789,6.678,6.789h263.574c3.677,0,6.674-3.047,6.674-6.789V70.552      c0-3.748-2.997-6.794-6.674-6.794H124.215z"/></g><g><path d="M167.19,149.546h-12.278v-10.778h12.278V149.546z M179.474,149.546V88.124h20.906c7.454,0,13.593,2.362,18.417,7.231      c4.825,4.729,7.308,10.929,7.308,18.458v10.188c0,7.529-2.483,13.734-7.308,18.458c-4.824,4.724-10.963,7.086-18.417,7.086      H179.474z M191.752,97.718v42.375h8.038c4.387,0,7.75-1.476,10.234-4.427c2.488-2.951,3.802-6.939,3.802-11.664v-10.334      c0-4.729-1.314-8.567-3.802-11.519c-2.483-2.951-5.847-4.431-10.234-4.431H191.752z M251.542,88.124l15.498,45.327h0.291      l15.643-45.327h15.936v61.422h-12.137v-18.307l1.173-27.17h-0.293l-16.372,45.478h-8.188l-16.228-45.332l-0.146,0.151      l1.169,26.874v18.307h-12.278V88.124H251.542z M357.089,141.13c-1.9,2.507-4.679,4.573-8.477,6.496      c-3.804,1.919-8.773,2.806-14.62,2.806c-7.453,0-13.447-2.363-18.126-6.94c-4.679-4.725-7.167-10.778-7.167-18.161v-12.848      c0-7.383,2.342-13.583,6.876-18.161c4.526-4.724,10.379-7.085,17.54-7.085c7.308,0,13.009,1.918,16.958,5.464      c3.947,3.687,5.992,8.416,5.992,14.469v0.146h-11.548c-0.146-3.249-1.168-5.757-3.072-7.676c-1.898-1.923-4.526-2.81-8.037-2.81      c-3.803,0-6.724,1.48-9.066,4.286c-2.336,2.951-3.358,6.643-3.358,11.22v12.848c0,4.725,1.168,8.562,3.504,11.367      c2.343,2.952,5.556,4.427,9.505,4.427c2.927,0,5.117-0.292,6.869-0.886c1.759-0.589,3.072-1.325,3.947-2.21v-11.222h-10.816      v-8.566h23.097V141.13z"/></g><g><path d="M390.855,474.084H121.29c-2.773,0-5.022-2.246-5.022-5.021s2.249-5.021,5.022-5.021h269.565      c2.776,0,5.021,2.246,5.021,5.021S393.632,474.084,390.855,474.084z"/></g><g><path d="M366.884,492.834H145.116c-2.772,0-5.021-2.246-5.021-5.021s2.249-5.021,5.021-5.021h221.768      c2.775,0,5.021,2.246,5.021,5.021S369.659,492.834,366.884,492.834z"/></g><g><path d="M364.254,404.539H147.458c-7.121,0-12.918-5.832-12.918-12.994v-69.693c0-4.729,0.469-11.996,0.907-16.438      c0.065-0.65,0.257-1.285,0.564-1.863l44.33-83.407c1.206-6.29,7.083-11.246,13.603-11.246h127.186      c6.486,0,12.33,5.066,13.478,11.483l41.308,83.294c0.271,0.545,0.438,1.133,0.499,1.738c0.469,4.779,0.755,12.111,0.755,16.438      v69.693C377.168,398.707,371.37,404.539,364.254,404.539z M145.345,307.379c-0.39,4.285-0.763,10.539-0.763,14.473v69.693      c0,1.57,1.342,2.949,2.875,2.949h216.796c1.526,0,2.872-1.379,2.872-2.949v-69.693c0-3.736-0.237-10.127-0.62-14.549      l-41.251-83.18c-0.269-0.544-0.438-1.133-0.5-1.737c-0.182-1.803-1.904-3.445-3.626-3.445H193.943      c-1.733,0-3.604,1.642-3.775,3.314c-0.065,0.649-0.257,1.274-0.562,1.848L145.345,307.379z M342.62,382.686H168.947      c-7.04,0-12.771-5.826-12.771-12.994v-31.895c0-7.162,5.731-12.988,12.771-12.988H342.62c7.115,0,12.912,5.826,12.912,12.988      v31.895C355.532,376.859,349.735,382.686,342.62,382.686z M168.947,334.852c-1.505,0-2.729,1.318-2.729,2.945v31.895      c0,1.627,1.224,2.951,2.729,2.951H342.62c1.606,0,2.87-1.293,2.87-2.951v-31.895c0-1.652-1.264-2.945-2.87-2.945H168.947z"/></g><g><path d="M271.427,345.775h-86.544c-4.386,0-7.896,3.545-7.896,7.971      c0,4.428,3.51,7.975,7.896,7.975h86.544c4.381,0,7.891-3.547,7.891-7.975C279.317,349.32,275.808,345.775,271.427,345.775      L271.427,345.775z M299.931,361.721c-4.386,0-7.896-3.547-7.896-7.975c0-4.426,3.511-7.971,7.896-7.971      c4.242,0,7.746,3.545,7.746,7.971C307.677,358.174,304.173,361.721,299.931,361.721L299.931,361.721z M326.83,361.721      c-4.387,0-7.896-3.547-7.896-7.975c0-4.426,3.51-7.971,7.896-7.971c4.24,0,7.747,3.545,7.747,7.971      C334.577,358.174,331.07,361.721,326.83,361.721L326.83,361.721z" style="fill-rule:evenodd;clip-rule:evenodd;"/></g></g></g></g><g id="Layer_1"/></svg>