<?xml version="1.0" ?><!DOCTYPE svg  PUBLIC '-//W3C//DTD SVG 1.1//EN'  'http://www.w3.org/Graphics/SVG/1.1/DTD/svg11.dtd'><svg height="512px" style="enable-background:new 0 0 512 512;" version="1.1" viewBox="0 0 512 512" width="512px" xml:space="preserve" xmlns="http://www.w3.org/2000/svg" xmlns:xlink="http://www.w3.org/1999/xlink"><g id="file__x2C__zip__x2C__archive__x2C_"><g id="Layer_39"><g><g><path d="M428.136,454.371H83.865c-2.773,0-5.022-2.246-5.022-5.021V24.263c0-2.775,2.249-5.021,5.022-5.021h344.271      c2.774,0,5.021,2.246,5.021,5.021V449.35C433.156,452.125,430.91,454.371,428.136,454.371z M88.886,444.33h334.228V29.284      H88.886V444.33z"/></g><g><path d="M387.789,179.592H124.215c-9.218,0-16.721-7.55-16.721-16.831v-92.28c0-9.282,7.502-16.836,16.721-16.836h263.574      c9.217,0,16.716,7.554,16.716,16.836v92.28C404.505,172.042,397.006,179.592,387.789,179.592z M124.215,63.687      c-3.684,0-6.678,3.047-6.678,6.794v92.28c0,3.741,2.994,6.788,6.678,6.788h263.574c3.677,0,6.674-3.047,6.674-6.788v-92.28      c0-3.747-2.997-6.794-6.674-6.794H124.215z"/></g><g><path d="M194.824,149.621h-12.284v-10.929h12.284V149.621z M219.381,140.021h29.82v9.6h-44.586v-6.497l28.949-45.478h-28.803      v-9.599h43.71v6.205L219.381,140.021z M270.545,149.621h-12.279V88.047h12.279V149.621z M294.815,127.32v22.301h-12.133V88.047      h24.265c7.016,0,12.425,1.919,16.519,5.464c3.948,3.54,5.993,8.269,5.993,14.177c0,5.902-2.045,10.626-5.993,14.172      c-4.094,3.545-9.503,5.459-16.519,5.459H294.815z M294.815,117.726h12.132c3.363,0,5.993-0.887,7.745-2.805      c1.758-1.773,2.635-4.281,2.635-7.086c0-2.957-0.877-5.464-2.635-7.384c-1.752-1.918-4.382-2.805-7.745-2.805h-12.132V117.726z"/></g><g><path d="M390.855,474.008H121.29c-2.773,0-5.022-2.246-5.022-5.021s2.249-5.021,5.022-5.021h269.565      c2.776,0,5.021,2.246,5.021,5.021S393.632,474.008,390.855,474.008z"/></g><g><path d="M366.884,492.758H145.116c-2.772,0-5.021-2.246-5.021-5.021s2.249-5.02,5.021-5.02h221.768      c2.775,0,5.021,2.244,5.021,5.02S369.659,492.758,366.884,492.758z"/></g><g><path d="M276.538,211.189h-44.732c-2.772,0-5.021-2.246-5.021-5.021c0-2.774,2.249-5.021,5.021-5.021h44.732      c2.771,0,5.021,2.247,5.021,5.021C281.559,208.943,279.309,211.189,276.538,211.189z"/></g><g><path d="M276.538,236.291h-44.732c-2.772,0-5.021-2.247-5.021-5.021c0-2.775,2.249-5.022,5.021-5.022h44.732      c2.771,0,5.021,2.247,5.021,5.022C281.559,234.044,279.309,236.291,276.538,236.291z"/></g><g><path d="M254.172,341.861c-2.772,0-5.021-2.246-5.021-5.021V174.571c0-2.775,2.249-5.021,5.021-5.021s5.021,2.246,5.021,5.021      V336.84C259.192,339.615,256.944,341.861,254.172,341.861z"/></g><g><path d="M276.538,261.391h-44.732c-2.772,0-5.021-2.246-5.021-5.021s2.249-5.021,5.021-5.021h44.732      c2.771,0,5.021,2.246,5.021,5.021S279.309,261.391,276.538,261.391z"/></g><g><path d="M276.538,286.492h-44.732c-2.772,0-5.021-2.246-5.021-5.021s2.249-5.02,5.021-5.02h44.732      c2.771,0,5.021,2.244,5.021,5.02S279.309,286.492,276.538,286.492z"/></g><g><path d="M276.538,311.592h-44.732c-2.772,0-5.021-2.244-5.021-5.021c0-2.773,2.249-5.02,5.021-5.02h44.732      c2.771,0,5.021,2.246,5.021,5.02C281.559,309.348,279.309,311.592,276.538,311.592z"/></g><g><path d="M254.172,432.664c-10.496,0-20.934-4.703-27.919-12.586c-6.146-6.928-8.954-15.521-7.907-24.188l6.865-59.625      c0.292-2.533,2.438-4.447,4.988-4.447h47.951c2.547,0,4.693,1.914,4.984,4.447l6.87,59.648      c1.043,8.643-1.768,17.236-7.917,24.164C275.103,427.961,264.662,432.664,254.172,432.664z M234.674,341.861l-6.358,55.201      c-0.701,5.803,1.236,11.605,5.449,16.354c5.112,5.768,12.739,9.207,20.407,9.207c7.665,0,15.295-3.439,20.407-9.201      c4.215-4.754,6.148-10.557,5.454-16.332l-6.356-55.229H234.674z"/></g><g><path d="M254.172,413.617c-5.792,0-11.699-2.74-15.416-7.146c-3.174-3.762-4.49-8.34-3.71-12.893l1.748-10.602      c0.4-2.428,2.496-4.205,4.954-4.205h24.708c2.434,0,4.512,1.742,4.945,4.139l1.894,10.633c0.726,4.73-0.665,9.328-3.897,13.084      C265.64,411.004,259.945,413.617,254.172,413.617z M246.008,388.814l-1.06,6.428c-0.353,2.063,0.611,3.725,1.483,4.758      c1.833,2.17,4.87,3.576,7.741,3.576c2.8,0,5.79-1.371,7.609-3.49c0.917-1.063,1.934-2.775,1.612-4.906l-1.138-6.365H246.008z"/></g></g></g></g><g id="Layer_1"/></svg>