<?xml version="1.0" ?><!DOCTYPE svg  PUBLIC '-//W3C//DTD SVG 1.1//EN'  'http://www.w3.org/Graphics/SVG/1.1/DTD/svg11.dtd'><svg height="512px" style="enable-background:new 0 0 512 512;" version="1.1" viewBox="0 0 512 512" width="512px" xml:space="preserve" xmlns="http://www.w3.org/2000/svg" xmlns:xlink="http://www.w3.org/1999/xlink"><g id="file__x2C__pptx__x2C_"><g id="Layer_9"><g><g><path d="M428.136,454.367H83.865c-2.773,0-5.022-2.248-5.022-5.018V24.258c0-2.771,2.249-5.016,5.022-5.016h344.271      c2.774,0,5.021,2.246,5.021,5.016V449.35C433.156,452.119,430.91,454.367,428.136,454.367z M88.886,444.324h334.228V29.284      H88.886V444.324z"/></g><g><path d="M387.789,179.586H124.215c-9.218,0-16.721-7.549-16.721-16.831V70.471c0-9.277,7.502-16.831,16.721-16.831h263.574      c9.217,0,16.716,7.554,16.716,16.831v92.285C404.505,172.037,397.006,179.586,387.789,179.586z M124.215,63.682      c-3.684,0-6.678,3.047-6.678,6.789v92.285c0,3.747,2.994,6.789,6.678,6.789h263.574c3.677,0,6.674-3.042,6.674-6.789V70.471      c0-3.742-2.997-6.789-6.674-6.789H124.215z"/></g><g><path d="M151.699,149.616h-12.138v-10.923h12.138V149.616z M176.255,127.32v22.295h-12.132V88.047h24.119      c7.021,0,12.576,1.914,16.519,5.459c4.095,3.545,5.993,8.27,5.993,14.171c0,5.913-1.898,10.637-5.993,14.178      c-3.943,3.545-9.498,5.464-16.519,5.464H176.255z M176.255,117.721h11.986c3.51,0,5.993-0.887,7.751-2.8      c1.752-1.773,2.629-4.286,2.629-7.091c0-2.951-0.877-5.459-2.629-7.383c-1.758-1.919-4.241-2.805-7.751-2.805h-11.986V117.721z       M231.952,127.32v22.295h-12.133V88.047h24.271c7.016,0,12.424,1.914,16.518,5.459c3.943,3.545,5.994,8.27,5.994,14.171      c0,5.913-2.051,10.637-5.994,14.178c-4.094,3.545-9.502,5.464-16.518,5.464H231.952z M231.952,117.721h12.138      c3.359,0,5.993-0.887,7.746-2.8c1.752-1.773,2.634-4.286,2.634-7.091c0-2.951-0.881-5.459-2.634-7.383      c-1.752-1.919-4.387-2.805-7.746-2.805h-12.138V117.721z M317.619,97.642h-17.25v51.974h-12.132V97.642h-17.25v-9.594h46.632      V97.642z M345.831,109.895l11.402-21.847h14.184l-17.98,30.56l19.148,31.008h-14.767l-11.84-22.149l-11.694,22.149h-14.329      l18.568-31.008l-17.979-30.56h14.032L345.831,109.895z"/></g><g><path d="M390.855,474.008H121.29c-2.773,0-5.022-2.252-5.022-5.025c0-2.771,2.249-5.018,5.022-5.018h269.565      c2.776,0,5.021,2.246,5.021,5.018C395.877,471.756,393.632,474.008,390.855,474.008z"/></g><g><path d="M366.884,492.758H145.116c-2.772,0-5.021-2.252-5.021-5.021s2.249-5.02,5.021-5.02h221.768      c2.775,0,5.021,2.25,5.021,5.02S369.659,492.758,366.884,492.758z"/></g><g><path d="M197.74,417.311c-0.831,0-1.674-0.213-2.449-0.646c-2.42-1.359-3.279-4.416-1.924-6.834l26.168-46.656      c1.36-2.422,4.422-3.283,6.834-1.924c2.42,1.355,3.279,4.418,1.924,6.834l-26.168,46.656      C201.203,416.383,199.498,417.311,197.74,417.311z M314.26,417.311c-1.758,0-3.465-0.928-4.382-2.57l-26.169-46.656      c-1.35-2.416-0.492-5.479,1.924-6.834c2.418-1.359,5.479-0.498,6.841,1.924l26.158,46.656c1.358,2.418,0.493,5.475-1.924,6.834      C315.932,417.098,315.091,417.311,314.26,417.311z"/></g><g><path d="M256.075,238.058c-2.772,0-5.021-2.246-5.021-5.021v-16.091c0-2.775,2.249-5.027,5.021-5.027      c2.772,0,5.021,2.252,5.021,5.027v16.091C261.097,235.812,258.848,238.058,256.075,238.058z"/></g><g><path d="M377.556,370.652H134.444c-2.772,0-5.021-2.25-5.021-5.025v-132.59c0-2.775,2.249-5.021,5.021-5.021h243.112      c2.771,0,5.021,2.246,5.021,5.021v132.59C382.577,368.402,380.326,370.652,377.556,370.652z M139.465,360.611h233.07V238.058      h-233.07V360.611z"/></g><g><path d="M345.687,336.986c-2.77,0-5.021-2.252-5.021-5.021v-64.082c0-2.77,2.251-5.021,5.021-5.021s5.021,2.252,5.021,5.021      v64.082C350.707,334.734,348.456,336.986,345.687,336.986z"/></g><g><path d="M321.567,336.986c-2.775,0-5.021-2.252-5.021-5.021v-37.652c0-2.77,2.246-5.021,5.021-5.021      c2.774,0,5.021,2.252,5.021,5.021v37.652C326.589,334.734,324.342,336.986,321.567,336.986z"/></g><g><path d="M297.297,336.986c-2.769,0-5.02-2.252-5.02-5.021v-18.756c0-2.77,2.251-5.016,5.02-5.016      c2.77,0,5.021,2.246,5.021,5.016v18.756C302.318,334.734,300.066,336.986,297.297,336.986z"/></g><g><path d="M239.848,272.904h-73.972c-2.773,0-5.021-2.25-5.021-5.021c0-2.77,2.249-5.021,5.021-5.021h73.972      c2.773,0,5.021,2.252,5.021,5.021C244.87,270.654,242.621,272.904,239.848,272.904z"/></g><g><path d="M211.046,304.945h-45.17c-2.773,0-5.021-2.252-5.021-5.021s2.249-5.021,5.021-5.021h45.17      c2.772,0,5.021,2.252,5.021,5.021S213.818,304.945,211.046,304.945z"/></g><g><path d="M257.243,336.986h-91.367c-2.773,0-5.021-2.252-5.021-5.021c0-2.771,2.249-5.021,5.021-5.021h91.367      c2.772,0,5.022,2.25,5.022,5.021C262.266,334.734,260.016,336.986,257.243,336.986z"/></g></g></g></g><g id="Layer_1"/></svg>