<?xml version="1.0" ?><!DOCTYPE svg  PUBLIC '-//W3C//DTD SVG 1.1//EN'  'http://www.w3.org/Graphics/SVG/1.1/DTD/svg11.dtd'><svg height="512px" style="enable-background:new 0 0 512 512;" version="1.1" viewBox="0 0 512 512" width="512px" xml:space="preserve" xmlns="http://www.w3.org/2000/svg" xmlns:xlink="http://www.w3.org/1999/xlink"><g id="file__x2C__xlsx__x2C__xls__x2C__sheet__x2C_"><g id="Layer_15"><g><g><path d="M428.136,454.297H83.865c-2.773,0-5.022-2.246-5.022-5.021V24.188c0-2.775,2.249-5.021,5.022-5.021h344.271      c2.774,0,5.021,2.246,5.021,5.021v425.088C433.156,452.051,430.91,454.297,428.136,454.297z M88.886,444.254h334.228V29.209      H88.886V444.254z"/></g><g><path d="M387.789,179.522H124.215c-9.218,0-16.721-7.555-16.721-16.836V70.4c0-9.282,7.502-16.831,16.721-16.831h263.574      c9.217,0,16.716,7.549,16.716,16.831v92.286C404.505,171.967,397.006,179.522,387.789,179.522z M124.215,63.611      c-3.684,0-6.678,3.047-6.678,6.789v92.286c0,3.746,2.994,6.793,6.678,6.793h263.574c3.677,0,6.674-3.047,6.674-6.793V70.4      c0-3.742-2.997-6.789-6.674-6.789H124.215z"/></g><g><path d="M154.327,149.541h-12.132v-10.777h12.132V149.541z M188.096,109.825l11.402-21.707h14.328l-18.125,30.419l19.148,31.003      h-14.762l-11.699-22.145l-11.84,22.145h-14.177l18.417-31.003l-17.98-30.419h14.031L188.096,109.825z M233.417,139.946h27.045      v9.594h-39.328V88.118h12.283V139.946z M300.369,133.45c0-2.363-0.875-4.282-2.487-5.611c-1.752-1.476-4.674-2.805-8.768-4.135      c-7.309-2.07-12.717-4.578-16.374-7.529c-3.802-2.805-5.555-6.794-5.555-11.815c0-5.021,2.044-9.15,6.286-12.399      c4.239-3.102,9.648-4.729,16.372-4.729c6.577,0,12.132,1.772,16.227,5.318c4.24,3.541,6.285,7.973,6.14,13.286v0.297h-11.841      c0-2.805-1.021-5.167-2.926-6.793c-1.753-1.768-4.527-2.654-7.892-2.654c-3.219,0-5.7,0.735-7.604,2.216      c-1.753,1.475-2.63,3.248-2.63,5.61c0,1.919,1.023,3.692,2.927,5.017c1.898,1.33,5.111,2.659,9.79,4.135      c6.728,1.919,11.842,4.432,15.352,7.529c3.363,3.103,5.116,7.091,5.116,12.259c0,5.167-2.045,9.301-6.139,12.398      c-4.095,2.957-9.504,4.578-16.227,4.578c-6.724,0-12.426-1.767-17.396-5.167c-4.97-3.541-7.312-8.27-7.161-14.615v-0.151h11.986      c0,3.691,1.022,6.351,3.214,7.977c2.194,1.768,5.408,2.508,9.357,2.508c3.217,0,5.847-0.589,7.599-1.919      C299.494,137.584,300.369,135.812,300.369,133.45L300.369,133.45z M343.203,109.825l11.402-21.707h14.177l-17.979,30.419      l19.007,31.003h-14.767l-11.693-22.145l-11.694,22.145h-14.328l18.563-31.003l-18.126-30.419h14.183L343.203,109.825z"/></g><g><path d="M390.855,473.934H121.29c-2.773,0-5.022-2.248-5.022-5.021c0-2.775,2.249-5.021,5.022-5.021h269.565      c2.776,0,5.021,2.246,5.021,5.021C395.877,471.686,393.632,473.934,390.855,473.934z"/></g><g><path d="M366.884,492.834H145.116c-2.772,0-5.021-2.246-5.021-5.021s2.249-5.021,5.021-5.021h221.768      c2.775,0,5.021,2.246,5.021,5.021S369.659,492.834,366.884,492.834z"/></g><g><path d="M395.243,305.318H116.757c-2.773,0-5.021-2.248-5.021-5.021v-44.002c0-2.775,2.249-5.021,5.021-5.021h278.486      c2.77,0,5.021,2.246,5.021,5.021v44.002C400.264,303.07,398.013,305.318,395.243,305.318z M121.778,295.275h268.444v-33.959      H121.778V295.275z"/></g><g><path d="M395.243,349.168H116.757c-2.773,0-5.021-2.246-5.021-5.02v-43.852c0-2.773,2.249-5.021,5.021-5.021h278.486      c2.77,0,5.021,2.248,5.021,5.021v43.852C400.264,346.922,398.013,349.168,395.243,349.168z M121.778,339.127h268.444v-33.809      H121.778V339.127z"/></g><g><path d="M395.243,393.172H116.757c-2.773,0-5.021-2.248-5.021-5.021v-44.002c0-2.775,2.249-5.021,5.021-5.021h278.486      c2.77,0,5.021,2.246,5.021,5.021v44.002C400.264,390.924,398.013,393.172,395.243,393.172z M121.778,383.129h268.444v-33.961      H121.778V383.129z"/></g><g><path d="M309.581,393.172H202.424c-2.772,0-5.021-2.248-5.021-5.021V256.294c0-2.775,2.249-5.021,5.021-5.021h107.157      c2.774,0,5.021,2.246,5.021,5.021V388.15C314.603,390.924,312.355,393.172,309.581,393.172z M207.445,383.129h97.115V261.316      h-97.115V383.129z"/></g></g></g></g><g id="Layer_1"/></svg>