<?xml version="1.0" ?><svg data-name="Layer 1" id="Layer_1" viewBox="0 0 32 32" xmlns="http://www.w3.org/2000/svg"><defs><style>.cls-1{fill:#f43b33;}</style></defs><title/><path class="cls-1" d="M21.65,7.19H22a9.41,9.41,0,0,0-11.39,0H21.65Z"/><path class="cls-1" d="M10.86,25.3h-.3a9.41,9.41,0,0,0,11.39,0H10.86Z"/><path class="cls-1" d="M6.17,16.25a11.25,11.25,0,0,1,4.39-9,5.85,5.85,0,0,0-5.27,6v6a5.85,5.85,0,0,0,5.27,6A11.23,11.23,0,0,1,6.17,16.25Z"/><path class="cls-1" d="M22.66,20.29A10.31,10.31,0,0,1,21,18.84a3.66,3.66,0,0,1-.78-2c0-.28.8-.61,1.2-1l.08-.08a.61.61,0,0,0-.19-.93l-.2,0a1.27,1.27,0,0,0-.42,0,.55.55,0,0,1-.65-.57c0-.67,0-1.31,0-1.94A3.73,3.73,0,0,0,18.2,9a3.83,3.83,0,0,0-5.79,3.75c0,.5,0,1,0,1.55a.55.55,0,0,1-.64.56.9.9,0,0,0-.28,0l-.16,0a.59.59,0,0,0-.21,1l.06,0c1.3.67,1.54,1.19.62,2.42a14.11,14.11,0,0,1-2,1.95.6.6,0,0,0,0,.94l1.7,1.15a.42.42,0,0,0,.18.08,5.3,5.3,0,0,1,2.22.59c1.82,1.31,2.77,1.36,4.54,0a3.43,3.43,0,0,1,1.61-.46,1.67,1.67,0,0,1,.54,0,.53.53,0,0,0,.61-.43c.15-.61.71-.7,1.21-.82A.6.6,0,0,0,22.66,20.29Z"/><path class="cls-1" d="M22,7.2a11.25,11.25,0,0,1,4.39,9.05,11.23,11.23,0,0,1-4.39,9,5.86,5.86,0,0,0,5.27-6v-6A5.86,5.86,0,0,0,22,7.2Z"/></svg>