<?xml version="1.0" ?><svg data-name="Layer 1" id="Layer_1" viewBox="0 0 32 32" xmlns="http://www.w3.org/2000/svg"><defs><style>.cls-1{fill:#f43b33;}</style></defs><title/><path class="cls-1" d="M21.73,8c.22,0,.44,0,.66,0A9.42,9.42,0,0,0,10.91,8c.22,0,.44,0,.66,0Z"/><path class="cls-1" d="M11.57,26.07a4.87,4.87,0,0,1-.66,0,9.42,9.42,0,0,0,11.48,0,4.87,4.87,0,0,1-.66,0Z"/><path class="cls-1" d="M22.39,8a11.25,11.25,0,0,1,4.35,9,11.24,11.24,0,0,1-4.35,9,6.24,6.24,0,0,0,5.22-6.35V14.35A6.24,6.24,0,0,0,22.39,8Z"/><path class="cls-1" d="M16.65,10.44A6.56,6.56,0,0,0,10.07,17a6.45,6.45,0,0,0,1.47,4.11l-1,2.52,2.57-1.14a6.55,6.55,0,1,0,3.56-12ZM20.57,20l-.43.42-.52.52a.31.31,0,0,1-.42,0l-6.57-6.52a.31.31,0,0,1,0-.42l.52-.52.43-.42a.38.38,0,0,1,.54,0l1.74,1.72a.38.38,0,0,1,0,.54.38.38,0,0,0,0,.54l1.89,1.88a.4.4,0,0,0,.54,0,.38.38,0,0,1,.54,0l1.74,1.72A.38.38,0,0,1,20.57,20Z"/><path class="cls-1" d="M6.56,17a11.25,11.25,0,0,1,4.35-9,6.24,6.24,0,0,0-5.22,6.35v5.33A6.24,6.24,0,0,0,10.91,26,11.24,11.24,0,0,1,6.56,17Z"/></svg>