<?xml version="1.0" ?><!DOCTYPE svg  PUBLIC '-//W3C//DTD SVG 1.1//EN'  'http://www.w3.org/Graphics/SVG/1.1/DTD/svg11.dtd'><svg style="enable-background:new 0 0 200 200;" version="1.1" viewBox="0 0 200 200" xml:space="preserve" xmlns="http://www.w3.org/2000/svg" xmlns:xlink="http://www.w3.org/1999/xlink"><style type="text/css">
	.st0{fill:#0087BC;}
	.st1{fill:#F2F2F2;}
	.st2{fill:#B3B3B3;}
	.st3{fill:#F2F2F2;stroke:#B3B3B3;stroke-width:3;stroke-miterlimit:10;}
	.st4{opacity:0.3;fill:#FFFFFF;}
	.st5{opacity:0.2;fill:#F2F2F2;}
	.st6{fill:#E84236;}
	.st7{fill:#FFFFFF;stroke:#B3B3B3;stroke-width:3;stroke-miterlimit:10;}
	.st8{fill:#5C337F;}
	.st9{fill:#6988B7;}
	.st10{fill:#FFFFFF;stroke:#B3B3B3;stroke-width:2;stroke-linecap:round;stroke-linejoin:round;stroke-miterlimit:10;}
	.st11{fill:#0067E3;}
	.st12{fill:#FFF200;}
	.st13{fill:#FFFFFF;stroke:#000000;stroke-width:5;stroke-miterlimit:10;}
	.st14{opacity:0.66;fill:#FFFFFF;}
	.st15{fill:#17CB2D;}
	.st16{fill:#FFFFFF;}
	.st17{fill:#9E0A03;}
	.st18{opacity:0.15;fill:#FFFFFF;}
	.st19{fill:#CCCCCC;stroke:#B3B3B3;stroke-width:3;stroke-miterlimit:10;}
	.st20{fill:#E6E6E6;stroke:#B3B3B3;stroke-width:3;stroke-miterlimit:10;}
	.st21{fill:#FF233D;}
	.st22{fill:#F73E26;}
	.st23{fill:#F2F2F2;stroke:#000000;stroke-width:4;stroke-linecap:round;stroke-linejoin:round;stroke-miterlimit:10;}
	.st24{fill:#F2F2F2;stroke:#000000;stroke-width:4;stroke-miterlimit:10;}
	.st25{stroke:#000000;stroke-width:4;stroke-miterlimit:10;}
	.st26{fill:none;stroke:#000000;stroke-width:4;stroke-linecap:round;stroke-linejoin:round;stroke-miterlimit:10;}
	.st27{fill:url(#SVGID_1_);}
	.st28{fill:#B22483;}
	.st29{opacity:0.32;fill:#FFFFFF;}
	.st30{fill:#12A0CC;}
	.st31{fill:#F2F2F2;stroke:#BDCCD4;stroke-width:3;stroke-miterlimit:10;}
	.st32{fill:#FF1E13;}
	.st33{fill:#F2F2F2;stroke:#CCCCCC;stroke-width:3;stroke-miterlimit:10;}
	.st34{fill:#FF1E13;stroke:#CCCCCC;stroke-width:3;stroke-miterlimit:10;}
	.st35{fill:#1F41CC;}
	.st36{opacity:0.2;fill:#F2F2F2;stroke:#000000;stroke-width:0.5;stroke-miterlimit:10;}
	.st37{opacity:0.3;fill:#FFFFFF;stroke:#000000;stroke-width:0.5;stroke-miterlimit:10;}
</style><g><g id="Artboard_16"/><g id="Linked_In"><g id="In"/><g id="Bubble_13_"/></g><g id="Google_Plus"><g id="Icon_3_"/><g id="Bubble_12_"/></g><g id="Twitch"><g id="Twitch_1_"/><g id="Bubble_11_"/></g><g id="Discord"><g id="Controller"/><g id="Bubble_10_"/></g><g id="Behance"><g id="BE"/><g id="Bubble_9_"/></g><g id="SnapChat"><g id="Snap_Icon"/><g id="Ghost"/><g id="Dots"/><g id="Bubble_8_"/></g><g id="WhatsApp"><g id="Icon_2_"/><g id="Bubble_7_"/></g><g id="Flipboard"><g id="Bubble_6_"/><g id="Icon_1_"/></g><g id="Pinterest"><g id="Bubble_5_"/><g id="Icon"/></g><g id="Reddit"><g id="Reddit_Icon"/><g id="Bubble_1_"/></g><g id="Tumblr"><g id="Layer_21"/><g id="Bubble"/></g><g id="Instagram"><g id="Layer_20"/><g id="Bubble_4_"/></g><g id="Twitter"><g><circle class="st30" cx="100" cy="100" r="100"/></g><g id="Twitter_Bird"/><path class="st31" d="M166,65.5c-0.4-1-0.5-2.2-4.1-1.1l-5.3,2.7c2.6-2.4,6.2-6,6.7-8.2c0.1-0.2-0.2-1-0.2-1c-0.6-0.8-1-2-4.2,0     l-6.9,3.8c-1.2-1.9-2.6-3.6-4.1-5.1c-0.1-0.1-0.2-0.2-0.2-0.2c-4.6-4.2-10.7-6.8-17.4-6.8c-14.2,0-25.8,11.5-25.8,25.8     c0,1.4,0.1,2.8,0.3,4.2C60,62.1,56.2,54.3,48.6,51c0,0-13.4,18.5,11.4,32.6c-4.4-2.3-11.2-5.7-12.6-5.7c0,0-8.8,19.7,24,31.2     c1.4,0.5-12.7-3.3-12.8-1.8c-1.4,20.7,10.9,22.2,19.9,21.2c-6,5.2-18.8,8.1-26.7,9.7c-1.4,0.3-4.3,0.7-4.3,0.7     c-0.5,0.1-4.1,0.6-4.5,0.8c-1.5,0.8-0.8,2.3-0.1,2.9c12.2,10.4,40,10.7,56.4,7.8c31.7-5.6,58.2-29,58.2-64.8     c0-4.2-0.4-7.8-1.1-11c3-2,8.5-6,9.7-8.2C166.1,66.3,166,65.5,166,65.5z"/><g id="Bubble_3_"><path class="st5" d="M100,5C47.5,5,5,47.5,5,100s42.5,95,95,95s95-42.5,95-95S152.5,5,100,5z M100,190c-49.7,0-90-40.3-90-90      s40.3-90,90-90s90,40.3,90,90S149.7,190,100,190z"/><ellipse class="st4" cx="55.3" cy="56.4" rx="29" ry="19" transform="matrix(0.653 -0.7573 0.7573 0.653 -23.551 61.485)"/><ellipse class="st4" cx="31" cy="102" rx="11" ry="12"/></g></g><g id="YouTube"><g id="YouTube_Button"/><g id="Bubble_2_"/></g><g id="Facebook_Icon"><g id="Facebook"/></g></g></svg>