<?xml version="1.0" ?><svg viewBox="0 0 400.61 272.03" xmlns="http://www.w3.org/2000/svg"><defs><style>.cls-1{fill:#fbfcf2;}.cls-2{fill:#2e576d;}.cls-3{fill:none;stroke:#2e576d;stroke-miterlimit:10;stroke-width:2px;}.cls-4{opacity:0.15;}.cls-5{fill:#3f5a7c;}.cls-6{fill:#fff;}.cls-7{fill:#274b5b;}.cls-8{opacity:0.5;}.cls-9{fill:#dd9e1f;}.cls-10{opacity:0.2;}</style></defs><title/><g data-name="Layer 2" id="Layer_2"><g data-name="Layer 1" id="Layer_1-2"><path class="cls-1" d="M184.87,43.94c-20.52-.35-39.75-8.28-57.63-16.88-23.68-11.39-48.18-25-76.51-24.29C37.56,3.09,24.2,7,14.86,14.88,4.54,23.62,0,36.43,0,48.83-.09,77.72,20.71,102.63,24.1,131c3,24.65-8.84,49.38-2.47,73.84,9.43,36.16,48.79,55.93,88.68,63,33,5.86,77.59,8.8,103.38-13.43,13.09-11.28,23.55-28.66,42.17-28.82,14.62-.12,25.48,10.91,38.19,17.07,21.84,10.58,51.13,5.83,69.91-8.4,29.64-22.46,26.75-53.82,23.37-84.94a153.77,153.77,0,0,1,3.82-53.65c4.32-17.47,13.58-34.54,7.37-52.64C388.15,12.77,340.71-.52,307.48,0c-25.16.4-49.62,7.21-71.57,17.44-20.87,9.73-40,21.52-65.1,21"/><circle class="cls-2" cx="25.11" cy="48.39" r="4.5"/><circle class="cls-3" cx="20.11" cy="209.39" r="4.5"/><path class="cls-2" d="M14.11,75.89v8a1.5,1.5,0,0,0,3,0v-8a1.5,1.5,0,0,0-3,0Z"/><path class="cls-2" d="M19.61,78.39h-8a1.5,1.5,0,0,0,0,3h8a1.5,1.5,0,0,0,0-3Z"/><circle class="cls-3" cx="380.11" cy="33.39" r="4.5"/><circle class="cls-2" cx="384.11" cy="187.39" r="4.5"/><path class="cls-2" d="M369.11,199.89v8a1.5,1.5,0,0,0,3,0v-8a1.5,1.5,0,0,0-3,0Z"/><path class="cls-2" d="M374.61,202.39h-8a1.5,1.5,0,0,0,0,3h8a1.5,1.5,0,0,0,0-3Z"/><g class="cls-4"><rect class="cls-5" height="198" rx="12" ry="12" width="297" x="40.61" y="40.89"/></g><rect class="cls-6" height="198" rx="12" ry="12" width="297" x="52.61" y="29.89"/><path class="cls-7" d="M114.39,80.6a13.39,13.39,0,0,0-4.59-2A12.55,12.55,0,0,0,113,75.92a10.2,10.2,0,0,0,1.48-4.48c.08-1.07.26-5.57-3.22-8.17-2.69-2-5.77-2.8-9.91-3.06V51.13H95.81v9H91.58v-9H86v9H75.1v5.82h3.21c.88,0,2.43.1,3.09.84s.78,1.14.78,2.59,0,22.63,0,23.17a2.28,2.28,0,0,1-.57,1.67c-.47.45-.93.55-2.05.55H76.24l-1.14,6.73H86v9h5.55v-9h4.23v9h5.55v-9.1c1.44-.08,2.77-.19,3.56-.3a18.37,18.37,0,0,0,8.51-3c3.35-2.36,4.1-6,4.18-9.76S116.29,82,114.39,80.6ZM91.58,66.44s1.76-.16,3.5-.13a17.53,17.53,0,0,1,5.55.79,4.83,4.83,0,0,1,3.68,4.48,4.39,4.39,0,0,1-2.39,4.27,13.44,13.44,0,0,1-5.73,1.41c-2,.08-4.62,0-4.62,0ZM104,93.21a17.51,17.51,0,0,1-6.28,1.52c-2.47.18-6.15.1-6.15.1v-12s3.53-.18,6.28,0a17.66,17.66,0,0,1,6.1,1.41,5,5,0,0,1,.05,9Z" data-name="BTC alt" id="BTC_alt"/><path class="cls-2" d="M55.61,139.9v-72c0-8.58-.61-17.41,0-26,.54-7.59,6.57-9,12.74-9h58.6c3.86,0,3.87-6,0-6H70c-5.05,0-9.94-.24-14.27,3-8.48,6.28-6.11,19.64-6.11,28.86V139.9c0,3.86,6,3.87,6,0Z"/><path class="cls-2" d="M55.61,158.89v-8c0-3.86-6-3.87-6,0v8c0,3.86,6,3.87,6,0Z"/><path class="cls-2" d="M264.95,224.89h-198a26.71,26.71,0,0,1-3.18-.09c-7.19-.86-8.12-7.12-8.12-12.94V182.23c0-3.86-6-3.87-6,0v27c0,3.64-.4,7.68.72,11.2a15.34,15.34,0,0,0,14.29,10.42c10.08.42,20.27,0,30.36,0h170c3.86,0,3.87-6,0-6Z"/><path class="cls-2" d="M158.95,32.89H324.19c5.58,0,15.39-1.72,19.77,2.66,3.12,3.12,2.66,7.2,2.66,11.18V212.55c0,6-1.65,11.85-9,12.35-14.83,1-30.06,0-44.93,0h-5.07c-3.86,0-3.87,6,0,6H334c8.59,0,17-3.18,18.44-12.9a59.82,59.82,0,0,0,.18-8.47V53.43c0-3.61.1-7.24,0-10.86-.24-8.66-6.19-15.3-15-15.68-24.33-1-48.91,0-73.28,0H158.95c-3.86,0-3.87,6,0,6Z"/><g class="cls-8"><rect class="cls-9" height="83" rx="6.81" ry="6.81" width="24" x="165.61" y="118.89"/><rect class="cls-9" height="114" rx="6.81" ry="6.81" width="24" x="220.11" y="87.89"/><rect class="cls-9" height="141" rx="6.81" ry="6.81" width="24" x="274.61" y="60.89"/></g><g class="cls-10"><path class="cls-5" d="M81.61,157.14h42c2.9,0,2.9-4.5,0-4.5h-42c-2.9,0-2.9,4.5,0,4.5Z"/></g><g class="cls-10"><path class="cls-5" d="M81.61,171.14h33c2.9,0,2.9-4.5,0-4.5h-33c-2.9,0-2.9,4.5,0,4.5Z"/></g><g class="cls-10"><path class="cls-5" d="M81.61,185.14h25c2.9,0,2.9-4.5,0-4.5h-25c-2.9,0-2.9,4.5,0,4.5Z"/></g><g class="cls-10"><path class="cls-5" d="M81.61,199.14h36c2.9,0,2.9-4.5,0-4.5h-36c-2.9,0-2.9,4.5,0,4.5Z"/></g></g></g></svg>