<?xml version="1.0" ?><svg viewBox="0 0 320.89 262.65" xmlns="http://www.w3.org/2000/svg"><defs><style>.cls-1{fill:#fbfcf2;}.cls-2,.cls-8{opacity:0.15;}.cls-3,.cls-8{fill:#3f5a7c;}.cls-4{fill:#fff;}.cls-5{fill:#2e576d;}.cls-6{fill:none;stroke:#2e576d;stroke-miterlimit:10;stroke-width:2px;}.cls-7{opacity:0.2;}.cls-9{fill:#a9ea9c;}.cls-10{fill:#91cd86;}.cls-11{fill:#426572;}</style></defs><title/><g data-name="Layer 2" id="Layer_2"><g data-name="Layer 1" id="Layer_1-2"><path class="cls-1" d="M148.08,75.95c-16.44-.28-31.84-6.63-46.16-13.52-19-9.12-38.6-20-61.28-19.46-10.55.26-21.25,3.37-28.74,9.7C3.64,59.67,0,69.94,0,79.86-.07,103,16.59,123,19.31,145.66c2.36,19.75-7.08,39.55-2,59.15,7.55,29,39.08,44.8,71,50.47,26.42,4.69,62.15,7.05,82.81-10.76,10.49-9,18.87-23,33.78-23.08,11.71-.1,20.41,8.74,30.59,13.67,17.5,8.48,41,4.67,56-6.73,23.74-18,21.43-43.11,18.72-68a123.17,123.17,0,0,1,3.06-43c3.46-14,10.88-27.66,5.9-42.16C310.91,51,272.91,40.34,246.29,40.76c-20.15.32-39.75,5.77-57.33,14-16.72,7.79-32,17.23-52.15,16.86"/><g class="cls-2"><rect class="cls-3" height="198" rx="12" ry="12" width="142" x="75.61" y="64.65"/></g><rect class="cls-4" height="198" rx="12" ry="12" width="142" x="86.61" y="55.65"/><rect class="cls-5" height="3.46" width="32.98" x="228.45" y="122.1"/><circle class="cls-5" cx="267.85" cy="123.83" r="7.16"/><rect class="cls-5" height="3.46" width="67.46" x="230.25" y="139.16"/><circle class="cls-5" cx="303.24" cy="140.9" r="7.16"/><rect class="cls-5" height="3.46" width="55.8" x="228.45" y="156.23"/><circle class="cls-5" cx="289.34" cy="157.96" r="7.16"/><rect class="cls-5" height="3.46" width="67.22" x="232.04" y="173.29"/><circle class="cls-5" cx="303.24" cy="175.02" r="7.16"/><circle class="cls-5" cx="37.11" cy="61.15" r="4.5"/><circle class="cls-6" cx="52.11" cy="208.15" r="4.5"/><path class="cls-5" d="M26.11,88.65v8a1.5,1.5,0,0,0,3,0v-8a1.5,1.5,0,0,0-3,0Z"/><path class="cls-5" d="M31.61,91.15h-8a1.5,1.5,0,0,0,0,3h8a1.5,1.5,0,0,0,0-3Z"/><circle class="cls-6" cx="255.11" cy="70.15" r="4.5"/><circle class="cls-5" cx="259.11" cy="224.15" r="4.5"/><path class="cls-5" d="M244.11,236.65v8a1.5,1.5,0,0,0,3,0v-8a1.5,1.5,0,0,0-3,0Z"/><path class="cls-5" d="M249.61,239.15h-8a1.5,1.5,0,0,0,0,3h8a1.5,1.5,0,0,0,0-3Z"/><path class="cls-5" d="M216.61,250.65H103.2c-2.24,0-4.79.26-7-.34-8.15-2.26-6.62-11.65-6.62-18.09V82.44c0-4.88-.34-9.89,0-14.76.75-10.87,12.16-9,19.78-9h37.77c22.76,0,45.61-.58,68.36,0,5.49.14,9.69,3.2,10.09,9.07.1,1.46,0,3,0,4.42V98.48c0,47.27,1,94.65,0,141.91-.11,5.43-3.07,9.93-9,10.25-3.84.21-3.86,6.21,0,6,8.45-.46,14.66-6.59,15-15.07.06-1.58,0-3.18,0-4.77V119.1c0-17.1.72-34.37,0-51.45a15.35,15.35,0,0,0-15-15c-2.27-.09-4.57,0-6.85,0h-35.8c-24.66,0-49.34-.27-74,0C90,52.76,83.7,59.55,83.61,69.29c-.06,7.66,0,15.32,0,23,0,49.4-.6,98.83,0,148.23.12,10,7.13,16.07,16.82,16.15,9.89.08,19.78,0,29.67,0h86.51C220.48,256.65,220.48,250.65,216.61,250.65Z"/><g class="cls-7"><path class="cls-3" d="M108.61,182.9h102c2.9,0,2.9-4.5,0-4.5h-102c-2.9,0-2.9,4.5,0,4.5Z"/></g><g class="cls-7"><path class="cls-3" d="M108.61,196.9h80.14c2.9,0,2.9-4.5,0-4.5H108.61c-2.9,0-2.9,4.5,0,4.5Z"/></g><g class="cls-7"><path class="cls-3" d="M108.61,210.9h60.71c2.9,0,2.9-4.5,0-4.5H108.61c-2.9,0-2.9,4.5,0,4.5Z"/></g><g class="cls-7"><path class="cls-3" d="M108.61,224.9H196c2.9,0,2.9-4.5,0-4.5H108.61c-2.9,0-2.9,4.5,0,4.5Z"/></g><path class="cls-8" d="M125.89,168.71s63.72-31.86,63.72-79.66V25.33L125.89,9.4,62.17,25.33V89.05C62.17,136.85,125.89,168.71,125.89,168.71Z"/><path class="cls-9" d="M115.89,162.71s63.72-31.86,63.72-79.66V19.33L115.89,3.4,52.17,19.33V83.05C52.17,130.85,115.89,162.71,115.89,162.71Z"/><path class="cls-10" d="M179.61,56.45V83.09c0,47.8-63.73,79.66-63.73,79.66S52.17,130.88,52.17,83.09V56.45c0,47.8,63.72,79.66,63.72,79.66S179.61,104.25,179.61,56.45Z"/><path class="cls-11" d="M117.4,164.81c19.53-9.81,38.19-24.78,51-42.45,8.61-11.84,14.06-25.56,14.17-40.3.08-10.29,0-20.58,0-30.86V18.84a3.05,3.05,0,0,0-2.2-2.89L124.07,1.87c-2.35-.59-4.92-1.6-7.34-1.83-2-.2-4.12.61-6.1,1.1L77.94,9.31,51.37,16a3,3,0,0,0-2.2,2.89q0,30.9,0,61.79c0,29.54,19.93,52.66,42.4,69.61a150.65,150.65,0,0,0,22.81,14.56c3.44,1.73,6.48-3.45,3-5.18-18.9-9.49-37.3-23.94-49.55-41.22C60,107.35,55.2,95,55.17,81.31c0-10.53,0-21.07,0-31.6V18.84L53,21.74,108.65,7.82c2.32-.58,5.77-.78,7.87-2-.52.29-2.05-.47-.51.18a27.75,27.75,0,0,0,4.08,1l32.63,8.16,26.1,6.52-2.2-2.89V79.38c0,28.43-18.71,50.34-40.57,66.55a149.47,149.47,0,0,1-21.67,13.71C110.92,161.37,114,166.54,117.4,164.81Z"/><path class="cls-4" d="M146.7,72.23A22.53,22.53,0,0,0,139,68.84s3.84-2.25,5.41-4.49a17.17,17.17,0,0,0,2.49-7.53c.13-1.81.44-9.38-5.42-13.74-4.53-3.37-9.71-4.71-16.68-5.15V22.65h-9.34v15.1h-7.12V22.65H99v15.1H80.6v9.79H86c1.47,0,4.09.17,5.21,1.42s1.31,1.92,1.31,4.36,0,38.07,0,39a3.84,3.84,0,0,1-1,2.82c-.79.75-1.57.92-3.45.92H82.52L80.6,107.37H99v15.06h9.34V107.37h7.12v15.06h9.34V107.12c2.42-.14,4.67-.33,6-.5,2.66-.35,8.69-1.06,14.32-5s6.9-10.17,7-16.42S149.89,74.65,146.7,72.23ZM108.32,48.41s3-.26,5.89-.22a29.5,29.5,0,0,1,9.35,1.32c3.84,1.19,6.11,4.1,6.2,7.53a7.39,7.39,0,0,1-4,7.18,22.61,22.61,0,0,1-9.65,2.38c-3.41.13-7.77,0-7.77,0Zm20.92,45c-2.14,1.19-6.42,2.25-10.57,2.55s-10.35.18-10.35.18V76s5.94-.31,10.57,0a29.71,29.71,0,0,1,10.26,2.38,7.92,7.92,0,0,1,4.8,7.44C134,90.41,131.37,92.26,129.24,93.45Z" data-name="BTC alt" id="BTC_alt"/></g></g></svg>