<?xml version="1.0" ?><svg height="512" id="SVGRoot" version="1.1" viewBox="0 0 512 512" width="512" xmlns="http://www.w3.org/2000/svg" xmlns:cc="http://creativecommons.org/ns#" xmlns:dc="http://purl.org/dc/elements/1.1/" xmlns:inkscape="http://www.inkscape.org/namespaces/inkscape" xmlns:rdf="http://www.w3.org/1999/02/22-rdf-syntax-ns#" xmlns:sodipodi="http://sodipodi.sourceforge.net/DTD/sodipodi-0.dtd" xmlns:svg="http://www.w3.org/2000/svg"><defs id="defs1839"/><g id="layer1" transform="translate(0,480)"><path d="" id="path3773" style="fill:#000000"/><path d="" id="path3771" style="fill:#000000"/><path d="" id="path3790" style="fill:#000000"/><path d="" id="path3788" style="fill:#000000"/><path d="" id="path3786" style="fill:#000000"/><path d="" id="path3805" style="fill:#000000;stroke-width:1"/><path d="" id="path3822" style="fill:#000000;stroke-width:1"/><path d="" id="path3820" style="fill:#000000;stroke-width:1"/><path d="" id="path3818" style="fill:#000000;stroke-width:1"/><path d="m 72,-436 v 16 h 8 64 8 216 c 31.16238,0 56,24.83762 56,56 v 248 72 h 16 v -72 -248 c 0,-39.74962 -32.25038,-72 -72,-72 H 152 144 80 Z m 0,32 v 40 280 c 0,39.749616 32.25038,72 72,72 H 336 440 V -28 H 424 400 336 144 c -31.16238,0 -56,-24.837616 -56,-56 v -280 -40 z" id="path8211" style="color:#000000;font-style:normal;font-variant:normal;font-weight:normal;font-stretch:normal;font-size:medium;line-height:normal;font-family:sans-serif;font-variant-ligatures:normal;font-variant-position:normal;font-variant-caps:normal;font-variant-numeric:normal;font-variant-alternates:normal;font-feature-settings:normal;text-indent:0;text-align:start;text-decoration:none;text-decoration-line:none;text-decoration-style:solid;text-decoration-color:#000000;letter-spacing:normal;word-spacing:normal;text-transform:none;writing-mode:lr-tb;direction:ltr;text-orientation:mixed;dominant-baseline:auto;baseline-shift:baseline;text-anchor:start;white-space:normal;shape-padding:0;clip-rule:nonzero;display:inline;overflow:visible;visibility:visible;opacity:1;isolation:auto;mix-blend-mode:normal;color-interpolation:sRGB;color-interpolation-filters:linearRGB;solid-color:#000000;solid-opacity:1;vector-effect:none;fill:#808080;fill-opacity:1;fill-rule:nonzero;stroke:none;stroke-width:1;stroke-linecap:butt;stroke-linejoin:round;stroke-miterlimit:4;stroke-dasharray:none;stroke-dashoffset:0;stroke-opacity:1;paint-order:fill markers stroke;color-rendering:auto;image-rendering:auto;shape-rendering:auto;text-rendering:auto;enable-background:accumulate"/><path d="m 244.92146,-118.55704 c -1.05536,-0.0352 -4.8976,-0.1568 -8.53844,-0.26944 -18.96161,-0.58912 -37.44939,-2.05346 -59.48126,-4.7112 -2.9355,-0.35408 -9.67816,-1.27216 -14.19875,-1.9333 -6.59296,-0.96411 -11.25293,-2.5455 -16.26838,-5.5208 -8.96924,-5.32076 -15.78675,-14.32726 -18.53196,-24.48224 -1.37214,-5.07576 -3.5021,-19.93835 -4.61961,-32.235 -1.18477,-13.03668 -1.52837,-21.18943 -1.52837,-36.26437 0,-14.28034 0.3092,-22.21205 1.33512,-34.2497 1.03922,-12.19353 3.23924,-28.06291 4.67647,-33.73254 3.73744,-14.74365 15.72912,-26.49821 30.35412,-29.75393 4.33694,-0.96544 21.20594,-3.18552 33.65168,-4.42877 41.99512,-4.19507 79.30637,-4.43171 120.30565,-0.76304 14.99056,1.34144 36.36569,4.00199 41.7104,5.19179 15.05405,3.35123 27.15662,15.60617 30.60744,30.99276 0.62688,2.79493 1.86126,10.36048 2.60072,15.93919 3.68193,27.77752 4.24867,58.12749 1.62769,87.16454 -1.12384,12.4509 -3.46041,28.31392 -4.86116,33.0025 -4.21109,14.09545 -15.49909,24.87723 -29.61884,28.29054 -2.93884,0.7104 -13.77928,2.20914 -26.33251,3.64047 -16.97955,1.93601 -34.15625,3.22672 -51.42251,3.86401 -5.19733,0.19184 -27.87162,0.37808 -31.4675,0.25856 z m 31.85126,-19.44467 c 13.0144,-0.56 25.41469,-1.38704 36.16845,-2.41242 14.38427,-1.37152 33.81528,-3.82838 37.28526,-4.71435 7.1384,-1.82258 13.04256,-7.64587 15.15986,-14.95221 0.50336,-1.73686 1.72534,-8.91888 2.51358,-14.7727 2.30456,-17.11474 3.34384,-34.94941 3.11402,-53.4372 -0.1584,-12.68213 -0.6632,-22.14639 -1.76829,-33.09845 -0.99968,-9.90795 -2.75126,-22.04085 -3.74878,-25.96675 -1.8534,-7.29435 -7.66512,-13.31538 -14.8442,-15.37869 -3.5696,-1.02592 -22.64852,-3.44189 -39.3424,-4.9819 -41.02934,-3.78495 -80.22736,-3.41508 -122.2244,1.15328 -9.76585,1.06224 -24.52075,3.03854 -27.0284,3.62011 -7.07097,1.63987 -13.10181,7.33072 -15.36579,14.49955 -1.08368,3.43142 -3.00266,16.36251 -4.1288,27.82187 -1.21819,12.39607 -1.63257,21.74037 -1.62946,36.74408 0.003,12.84432 0.13216,16.92043 0.86877,27.34219 1.03401,14.63004 3.45187,32.68877 4.99665,37.3197 1.86118,5.57938 5.88092,10.13022 11.20326,12.68347 3.10789,1.49088 3.72638,1.62203 14.7744,3.13235 7.46517,1.02048 14.90096,1.88541 23.12094,2.68932 7.5776,0.74112 13.63619,1.23648 22.44938,1.83577 5.6648,0.38528 15.83097,0.83888 25.3275,1.13008 4.08714,0.1248 28.64114,-0.0656 33.09845,-0.25728 z m -59.19346,-85.97168 v -47.96867 l 47.87284,23.93619 c 26.33004,13.16489 47.87281,23.9795 47.87281,24.03248 0,0.0528 -21.54277,10.86757 -47.87281,24.03246 l -47.87284,23.93619 z" id="path2035" style="fill:#808080;fill-opacity:1;stroke-width:1"/></g></svg>