<?xml version="1.0" ?><svg viewBox="0 0 437.77 233.11" xmlns="http://www.w3.org/2000/svg"><title/><g data-name="Layer 2" id="Layer_2"><g data-name="sushi, salmon, fish, rice, japan, food, meal, fast, restaurant, junk, fastfood" id="sushi_salmon_fish_rice_japan_food_meal_fast_restaurant_junk_fastfood"><path d="M388.23,186.93a5.39,5.39,0,0,0-7.14,2.65,56.25,56.25,0,0,1-51,32.75H107.69A56,56,0,0,1,56,188.08a5.39,5.39,0,1,0-9.92,4.21,66.76,66.76,0,0,0,61.59,40.82H330.08a67,67,0,0,0,60.81-39A5.38,5.38,0,0,0,388.23,186.93Z"/><path d="M64.21,41.64q-2.34,1.5-4.59,3a5.39,5.39,0,1,0,6,9q2.16-1.44,4.39-2.86a5.39,5.39,0,1,0-5.78-9.1Z"/><path d="M426.34,88.59a175.43,175.43,0,0,0-16.61-18.42,5.3,5.3,0,0,0-.83-.81c-16.53-15.88-43-36-81.2-50.53l-.45-.17C298.15,7.68,262.29,0,218.89,0c-39.25,0-75.64,6.29-108.51,18.7l-.14.05q-10.56,4-20.63,8.81a5.39,5.39,0,1,0,4.67,9.72Q101,34,108,31.2c2.85,14.86,11.36,51.55,30,79.79a5.39,5.39,0,1,0,9-5.94c-18.25-27.62-26.42-65.18-28.76-77.75,29.06-10.41,61-15.93,95.25-16.45V59.52a5.39,5.39,0,0,0,10.78,0V10.82c37.65.58,69.2,7.14,95.25,16.47-.67,3.65-1.83,9.37-3.57,16.32a5.39,5.39,0,1,0,10.45,2.62c1.54-6.1,2.63-11.26,3.36-15C361.48,44.15,384.16,61,399.08,74.89a187.09,187.09,0,0,1-12.39,21.67,5.38,5.38,0,1,0,9,6,197.07,197.07,0,0,0,11.5-19.66,158.4,158.4,0,0,1,10.65,12.32c10.76,13.93,12.18,32.51,3.62,47.34a39.2,39.2,0,0,1-18,16.29A44.51,44.51,0,0,1,361.3,156,269,269,0,0,0,289,124.81c11.41-12.38,21.2-29.7,29.18-51.66a5.39,5.39,0,1,0-10.13-3.68c-8.51,23.42-19,41-31.27,52.36a251.52,251.52,0,0,0-52.53-6.16V98.6a5.39,5.39,0,0,0-10.78,0v17.07c-15.6,0-60.78,2.36-110.73,26A76.79,76.79,0,0,1,82.8,131a5.39,5.39,0,1,0-6.34,8.72A93.17,93.17,0,0,0,90.15,148Q83.34,151.7,76.47,156a44.51,44.51,0,0,1-42.15,2.86,39.25,39.25,0,0,1-18-16.29C7.79,127.69,9.21,109.1,20,95.18A161.82,161.82,0,0,1,30.6,82.85a188.31,188.31,0,0,0,26,38.62,5.39,5.39,0,0,0,8.07-7.16,179.54,179.54,0,0,1-26-39.47q3-2.84,6.51-5.81a5.39,5.39,0,0,0-7-8.2c-3.61,3.09-6.89,6.1-9.86,9l0,0A180.07,180.07,0,0,0,11.43,88.59C-2,106-3.74,129.27,7,147.9a49.76,49.76,0,0,0,22.8,20.7,54.53,54.53,0,0,0,22.81,5,56,56,0,0,0,29.54-8.48c67.33-41.79,135.74-38.6,136.43-38.56a5.8,5.8,0,0,0,.59,0c.69,0,69.1-3.23,136.43,38.56A55.28,55.28,0,0,0,408,168.6a49.76,49.76,0,0,0,22.8-20.7C441.52,129.27,439.78,106,426.34,88.59Z"/><path d="M358.14,140.77a5.35,5.35,0,0,0,3.17-1,111.74,111.74,0,0,0,9.76-8,5.39,5.39,0,1,0-7.27-8A102.23,102.23,0,0,1,355,131a5.39,5.39,0,0,0,3.17,9.75Z"/><path d="M122.4,168.16a5.31,5.31,0,0,0,2-.38l1.35-.53a5.39,5.39,0,0,0-4-10l-1.35.53a5.39,5.39,0,0,0,2,10.41Z"/><path d="M113.54,202.22a5.4,5.4,0,0,0,5,3.42,5.3,5.3,0,0,0,2-.38l1.35-.53a5.39,5.39,0,1,0-3.95-10l-1.35.53A5.39,5.39,0,0,0,113.54,202.22Z"/><path d="M157.36,190.36a5.23,5.23,0,0,0,2-.38l1.35-.53a5.39,5.39,0,1,0-4-10l-1.35.53a5.39,5.39,0,0,0,2,10.41Z"/></g></g></svg>