<?xml version="1.0" ?><svg viewBox="0 0 355.82 439.7" xmlns="http://www.w3.org/2000/svg"><title/><g data-name="Layer 2" id="Layer_2"><g data-name="meatballs, beef, meat, meatball, ball, food, meal, fast, restaurant, junk, fastfood" id="meatballs_beef_meat_meatball_ball_food_meal_fast_restaurant_junk_fastfood"><path d="M161,128.36a87.12,87.12,0,0,0-54.37,116.75,5.37,5.37,0,0,0,5,3.31,5.3,5.3,0,0,0,2.08-.42,5.38,5.38,0,0,0,2.89-7.05,75.89,75.89,0,0,1-5.9-29.46,77.55,77.55,0,0,1,2-17.4,18.68,18.68,0,0,0,4.18,3.18l.25.14a40.41,40.41,0,0,0,19.44,4.78,13,13,0,0,1,12.94,12.94v14.29a24.58,24.58,0,0,0,49.16,0v-3a5.39,5.39,0,0,0-10.78,0v3a13.8,13.8,0,0,1-27.6,0V215.13a23.75,23.75,0,0,0-23.74-23.72A29.57,29.57,0,0,1,122.3,188l-.18-.1a8.19,8.19,0,0,1-3.24-10.75,6.67,6.67,0,0,0,.29-.74,75.92,75.92,0,0,1,45.06-37.72A5.39,5.39,0,1,0,161,128.36Z"/><path d="M20.15,334.36a5.38,5.38,0,0,0,10,3.64c9.41-11.48,20.64-11.65,21.18-11.65h3.74A10.82,10.82,0,0,1,65.9,337.16v.52A20.15,20.15,0,0,0,84.43,358c.44,0,.89,0,1.33,0a19.64,19.64,0,0,0,13.54-5.36,19.93,19.93,0,0,0,6.28-14.48V304.23a19.51,19.51,0,0,1,7.1-15.27,52.55,52.55,0,0,1,16.45-8.79,75.55,75.55,0,0,1,11,4.61,4.46,4.46,0,0,0,.72.56q3.19,2,6.54,3.7a76.28,76.28,0,0,1,34.21,63.59,5.29,5.29,0,0,0,.1,1.06,87.17,87.17,0,0,0,87.05,86H333.1a5.39,5.39,0,0,0,0-10.78H310.66a86.94,86.94,0,0,0,43.09-95.1l0-.14a87,87,0,0,0-99.54-66.88,86.79,86.79,0,0,0,15.16-83.51c-.11-.39-.23-.77-.36-1.15,0-.06-.06-.11-.08-.17a87.26,87.26,0,0,0-76.52-57.37V14l66.44,32.4L207.25,71.58a5.39,5.39,0,0,0,2.37,10.23,5.43,5.43,0,0,0,2.36-.55l61.49-30a5.39,5.39,0,0,0,0-9.69L189.35.55,189.23.5c-.18-.08-.38-.14-.57-.21a4,4,0,0,0-.46-.14c-.16,0-.33,0-.49-.08L187.12,0H187c-.11,0-.22,0-.33,0s-.4,0-.6.06-.32.08-.48.12a5.16,5.16,0,0,0-.52.16,3.82,3.82,0,0,0-.46.21,4.31,4.31,0,0,0-.47.26,3.6,3.6,0,0,0-.4.28,4.58,4.58,0,0,0-.42.35c-.13.11-.23.24-.35.36s-.23.27-.33.42a4.9,4.9,0,0,0-.31.48c0,.1-.13.19-.18.3l0,.12c-.08.18-.14.37-.2.55s-.11.32-.15.48-.05.32-.07.49a3.8,3.8,0,0,0-.06.59s0,.08,0,.13V147.45a5.39,5.39,0,0,0,10.78,0v-12a76.43,76.43,0,0,1,66.56,50.76,14.39,14.39,0,0,1-17.15,18.3l-1.33,5.23,1.16-5.27A15.92,15.92,0,0,1,230,188.87v-.33a21.05,21.05,0,0,0-21.45-21c-11.4.2-20.67,9.88-20.67,21.57v16a5.39,5.39,0,0,0,10.78,0v-16a10.61,10.61,0,0,1,10.08-10.8,10.3,10.3,0,0,1,10.48,10.28v.33a26.7,26.7,0,0,0,19.68,26l.24.06a24.88,24.88,0,0,0,24.06-6.85c.05,1.14.09,2.27.09,3.42a76.28,76.28,0,0,1-34.86,64c-2.22,1.16-4.37,2.42-6.47,3.76a76.16,76.16,0,0,1-69.24.39,86.91,86.91,0,0,0-21.92-10.28l-.26-.07a86.57,86.57,0,0,0-25.23-3.74A87.47,87.47,0,0,0,20.15,334.36Zm248.6,94.56a76.26,76.26,0,0,1-41.44-140.3q3.33-1.74,6.48-3.77a75.39,75.39,0,0,1,11.13-4.68A52.72,52.72,0,0,1,261.38,289a19.5,19.5,0,0,1,7.09,15.27v33.95a19.93,19.93,0,0,0,6.28,14.48A19.66,19.66,0,0,0,288.29,358c.45,0,.89,0,1.34,0a20.15,20.15,0,0,0,18.53-20.3v-.52A10.81,10.81,0,0,1,319,326.35h3.79c.47,0,11.45.17,20.8,11.25a76.31,76.31,0,0,1-74.8,91.32Zm68.62-109.61a35.52,35.52,0,0,0-14.67-3.74H319a21.61,21.61,0,0,0-21.58,21.59v.52a9.35,9.35,0,0,1-8.45,9.54,9.07,9.07,0,0,1-9.68-9V304.23a30.26,30.26,0,0,0-11.08-23.64,57.43,57.43,0,0,0-5.6-4c2-.16,4.1-.27,6.18-.27A76.39,76.39,0,0,1,337.37,319.31Zm-135.82-22A86.89,86.89,0,0,0,187,322.58a87.13,87.13,0,0,0-14.5-25.23,86.55,86.55,0,0,0,29,0Zm-96.25-21c2.09,0,4.14.11,6.18.27a57.43,57.43,0,0,0-5.6,4A30.26,30.26,0,0,0,94.8,304.23v33.95a9.07,9.07,0,0,1-9.68,9,9.35,9.35,0,0,1-8.44-9.54v-.52a21.61,21.61,0,0,0-21.59-21.59H51.44a35.35,35.35,0,0,0-14.75,3.74A76.76,76.76,0,0,1,105.3,276.34Z"/><path d="M18.46,358.93a87.17,87.17,0,0,0,45.06,70h-18a5.39,5.39,0,0,0,0,10.78H161a5.39,5.39,0,0,0,0-10.78H147.25a87,87,0,0,0,24.67-20.22,5.39,5.39,0,1,0-8.24-6.94,76.3,76.3,0,0,1-134.47-43.6,5.39,5.39,0,1,0-10.75.77Z"/><path d="M165.82,151.19h-1.18a5.39,5.39,0,0,0,0,10.78h1.18a5.39,5.39,0,0,0,0-10.78Z"/><path d="M164.66,178a5.39,5.39,0,0,0,5.39,5.39h1.18a5.39,5.39,0,1,0,0-10.78h-1.18A5.39,5.39,0,0,0,164.66,178Z"/><path d="M147.73,167.57a5.39,5.39,0,1,0,0,10.78h1.18a5.39,5.39,0,0,0,0-10.78Z"/><path d="M80.71,298.56h.43a5.39,5.39,0,0,0,0-10.78h-.43a5.39,5.39,0,1,0,0,10.78Z"/><path d="M64.56,307.79H65A5.39,5.39,0,0,0,65,297h-.43a5.39,5.39,0,1,0,0,10.78Z"/><path d="M296.3,304.15h.85a5.39,5.39,0,1,0,0-10.78h-.85a5.39,5.39,0,1,0,0,10.78Z"/><path d="M13.55,428.92H5.39a5.39,5.39,0,1,0,0,10.78h8.16a5.39,5.39,0,1,0,0-10.78Z"/><path d="M191.83,439.7a5.39,5.39,0,0,0,0-10.78h-4a5.39,5.39,0,0,0,0,10.78Z"/></g></g></svg>