<?xml version="1.0" ?><svg style="enable-background:new 0 0 48 48;" version="1.1" viewBox="0 0 48 48" xml:space="preserve" xmlns="http://www.w3.org/2000/svg" xmlns:xlink="http://www.w3.org/1999/xlink"><g id="Icons"><g><path d="M28.08505,24.04835v-5.691c0-2.25-1.83-4.09-4.08-4.09c-2.26,0-4.09,1.84-4.09,4.09v5.691     M18.16505,24.04835v-5.691c0-3.22,2.62-5.84,5.83-5.84c3.22,0,5.84,2.62,5.84,5.84v5.691" style="fill:#F4F4F4;"/><path d="M30.40295,35.48265h-12.8058c-1.324,0-2.3973-1.0733-2.3973-2.3973v-8.9472    c0-1.324,1.0733-2.3973,2.3973-2.3973h12.8058c1.3239,0,2.3972,1.0733,2.3972,2.3973v8.9472    C32.80015,34.40935,31.72685,35.48265,30.40295,35.48265z" style="fill:#FFE291;"/><path d="M31.66965,25.54185h-15.3393v-1.7288c0-0.46,0.3729-0.8328,0.8328-0.8328h13.6737    c0.4599,0,0.8328,0.3728,0.8328,0.8328V25.54185z" style="fill:#FCEABE;"/></g></g></svg>