<?xml version="1.0" ?><svg style="enable-background:new 0 0 48 48;" version="1.1" viewBox="0 0 48 48" xml:space="preserve" xmlns="http://www.w3.org/2000/svg" xmlns:xlink="http://www.w3.org/1999/xlink"><g id="Icons"><g><g><path d="M37.33494,18.77299h-2.9844v-2.9834c0-0.1933-0.1563-0.3501-0.3496-0.3501     c-0.1934,0-0.3496,0.1568-0.3496,0.3501v2.9834h-2.9834c-0.1934,0-0.3496,0.1568-0.3496,0.3501     c0,0.1934,0.1562,0.3501,0.3496,0.3501h2.9834v2.9839c0,0.1934,0.1562,0.3501,0.3496,0.3501     c0.1933,0,0.3496-0.1567,0.3496-0.3501v-2.9839h2.9844c0.1933,0,0.3496-0.1567,0.3496-0.3501     C37.68454,18.92979,37.52824,18.77299,37.33494,18.77299z" style="fill:#B7B7B7;"/></g><g><path d="M23.56314,26.06089c0.0481,0.8113,0.0481,1.6516,0.3558,2.4147     c0.327,0.8403,1.279,1.1784,2.0386,1.5744c0.4905,0.2608,1.0001,0.5119,1.4905,0.7727c0.0577,0.0289,0.1058,0.0579,0.1635,0.0869     c1.0097,0.5312,2.1925,1.0528,3.0195,1.8545c0.0385,0.0386,0.0769,0.0772,0.1058,0.1159c0.6134,0.7116,0.862,1.5245,0.934,1.8224     c0.0102,0.042-0.0232,0.0804-0.0664,0.0804h-5.9738h-2.4714h-12.7847c-0.0369,0-0.0661-0.0302-0.0576-0.0662     c0.0674-0.2854,0.314-1.1134,0.9375-1.8366c0.0288-0.0387,0.0673-0.0773,0.0962-0.1159     c0.8269-0.8017,2.0194-1.3233,3.0194-1.8545c0.5482-0.2898,1.1059-0.5699,1.6636-0.8596     c0.7597-0.396,1.7502-0.7341,2.0771-1.5744c0.3078-0.7631,0.3078-1.6034,0.3558-2.4147" style="fill:#5F83CF;"/><g><path d="M18.46654,26.06089h-1.8078l0.4423-0.5385c0,0-2.0194-0.4039-2.0194-0.5578      c0-0.1632,0.6996-1.0642,0.702-1.0674c0.1111-0.143-0.2999-1.0359-0.3483-1.1877c-0.909-2.8497-0.2685-7.065,2.6656-8.5765      c0.5202-0.268,1.0977-0.4097,1.6831-0.4097c1.3109-0.6381,2.7963-0.7398,4.0483,0.0852      c1.1482,0.7566,1.8923,2.0256,2.3815,3.2805c0.4412,1.1315,0.7615,2.3412,0.7589,3.563      c-0.0025,1.149-0.4636,2.1488-0.7267,3.2452c0,0,0.702,0.904,0.702,1.0674c0,0.1539-2.0194,0.5578-2.0194,0.5578l0.452,0.5385      h-1.8175" style="fill:#5F83CF;"/></g></g></g></g></svg>