<?xml version="1.0" ?><svg style="enable-background:new 0 0 48 48;" version="1.1" viewBox="0 0 48 48" xml:space="preserve" xmlns="http://www.w3.org/2000/svg" xmlns:xlink="http://www.w3.org/1999/xlink"><g id="Icons"><g><g><path d="M23.99,12.465c-3.21,0-5.83,2.62-5.83,5.84v4.3227h1.75V18.305c0-2.25,1.83-4.09,4.09-4.09     c2.25,0,4.08,1.84,4.08,4.09v4.3227h1.75V18.305C29.83,15.085,27.21,12.465,23.99,12.465z" style="fill:#F4F4F4;"/><path d="M24,18.915c-4.59,0-8.31,3.72-8.31,8.31s3.72,8.31,8.31,8.31s8.31-3.72,8.31-8.31     C32.31,22.6351,28.59,18.915,24,18.915z" style="fill:#FFE291;"/><path d="M23.9956,29.4786L23.9956,29.4786c-0.389,0-0.7073-0.3183-0.7073-0.7073V25.67     c0-0.3891,0.3183-0.7074,0.7073-0.7074l0,0c0.389,0,0.7073,0.3183,0.7073,0.7074v3.1013     C24.7029,29.1603,24.3846,29.4786,23.9956,29.4786z" style="fill:#D6B563;"/></g><path d="M19.1329,21.8554c0,0-3.5413,2.4537-2.1248,7.8922c0,0-0.86-4.1991,2.6307-7.2345    c0,0,0.7083-0.5312,0.4554-0.8094C19.8412,21.4254,19.4364,21.6056,19.1329,21.8554z" style="fill:#FCEABE;"/></g></g></svg>