<?xml version="1.0" ?><!DOCTYPE svg  PUBLIC '-//W3C//DTD SVG 1.1//EN'  'http://www.w3.org/Graphics/SVG/1.1/DTD/svg11.dtd'><svg height="512px" style="shape-rendering:geometricPrecision; text-rendering:geometricPrecision; image-rendering:optimizeQuality; fill-rule:evenodd; clip-rule:evenodd" version="1.1" viewBox="0 0 512 512" width="512px" xml:space="preserve" xmlns="http://www.w3.org/2000/svg" xmlns:xlink="http://www.w3.org/1999/xlink"><defs><style type="text/css">
   <![CDATA[
    .fil4 {fill:#FEFEFE}
    .fil3 {fill:#2A2929}
    .fil1 {fill:#4A4848}
    .fil2 {fill:#818081}
    .fil0 {fill:#D6D6D6}
   ]]>
  </style></defs><g id="Layer_x0020_1"><g id="_348375896"><path class="fil0" d="M135 475c-71,-72 -48,-159 -23,-211 43,-97 62,-115 149,-263 99,151 295,363 97,483 -76,41 -150,38 -223,-8z"/><path class="fil1" d="M79 413c-35,-83 21,-190 174,-401 154,215 199,339 151,418 -72,100 -244,118 -326,-17z"/><path class="fil2" d="M253 12c-120,159 -181,273 -184,340 113,-50 174,-163 184,-340z"/><path class="fil3" d="M368 468c74,-56 73,-147 -8,-292 38,182 -144,271 -290,176 -9,119 183,216 298,116z"/><path class="fil4" d="M356 331c0,60 -49,109 -109,109 -60,0 -109,-49 -109,-109 0,-60 49,-109 109,-109 60,0 109,49 109,109zm-107 8l29 77c0,0 0,1 1,1 -10,3 -20,5 -31,5 -9,0 -18,-1 -26,-4l28 -79zm92 -8c0,34 -19,63 -46,79l29 -80c5,-13 7,-23 7,-33 0,-3 0,-6 -1,-9 7,13 11,28 11,44zm-187 0c0,-13 3,-26 8,-37l45 119c-31,-15 -53,-46 -53,-82zm15 -50c17,-25 45,-41 78,-41 24,0 46,9 63,24 0,0 -1,0 -1,0 -9,0 -16,8 -16,16 0,8 4,14 9,21 4,6 8,14 8,25 0,8 -3,17 -7,29l-9 30 -34 -98c6,0 11,-1 11,-1 5,-1 4,-8 -1,-8 0,0 -15,1 -25,1 -9,0 -25,-1 -25,-1 -5,0 -6,7 -1,8 0,0 5,1 10,1l15 39 -20 60 -34 -99c6,0 11,-1 11,-1 5,-1 4,-8 -1,-8 0,0 -15,1 -25,1 -2,0 -4,0 -6,0z"/></g></g></svg>