<?xml version="1.0" ?><!DOCTYPE svg  PUBLIC '-//W3C//DTD SVG 1.1//EN'  'http://www.w3.org/Graphics/SVG/1.1/DTD/svg11.dtd'><svg height="512px" style="shape-rendering:geometricPrecision; text-rendering:geometricPrecision; image-rendering:optimizeQuality; fill-rule:evenodd; clip-rule:evenodd" version="1.1" viewBox="0 0 512 512" width="512px" xml:space="preserve" xmlns="http://www.w3.org/2000/svg" xmlns:xlink="http://www.w3.org/1999/xlink"><defs><style type="text/css">
   <![CDATA[
    .fil4 {fill:#FEFEFE}
    .fil3 {fill:#52A9D4}
    .fil2 {fill:#0D6A97}
    .fil1 {fill:#158AC4}
    .fil0 {fill:#C8DAE1}
   ]]>
  </style></defs><g id="Layer_x0020_1"><g id="_352360048"><path class="fil0" d="M135 475c-71,-72 -48,-159 -23,-211 43,-97 62,-115 149,-263 99,151 295,363 97,483 -76,41 -150,38 -223,-8z"/><path class="fil1" d="M79 413c-35,-83 21,-190 174,-401 154,215 199,339 151,418 -72,100 -244,118 -326,-17z"/><path class="fil2" d="M368 468c74,-56 73,-147 -8,-292 38,182 -144,271 -290,176 -9,119 183,216 298,116z"/><path class="fil3" d="M253 12c-120,159 -181,273 -184,340 113,-50 174,-163 184,-340z"/><path class="fil4" d="M311 334c29,0 48,-22 48,-51 0,-29 -23,-52 -52,-52 -26,0 -48,19 -51,45l-2 0c-4,-25 -25,-45 -51,-45 -29,0 -47,26 -47,55 0,29 19,48 48,49l0 0 0 0 0 24 -60 -24 0 73 60 -12 0 24 95 0 -36 -85 48 0c0,0 0,0 0,0zm-108 -36c-8,0 -15,-7 -15,-15 0,-8 7,-15 15,-15 8,0 15,7 15,15 0,8 -7,15 -15,15zm91 -15c0,-8 7,-15 15,-15 8,0 15,7 15,15 0,8 -7,15 -15,15 -8,0 -15,-7 -15,-15z"/></g></g></svg>