<?xml version="1.0" ?><!DOCTYPE svg  PUBLIC '-//W3C//DTD SVG 1.1//EN'  'http://www.w3.org/Graphics/SVG/1.1/DTD/svg11.dtd'><svg height="512px" style="shape-rendering:geometricPrecision; text-rendering:geometricPrecision; image-rendering:optimizeQuality; fill-rule:evenodd; clip-rule:evenodd" version="1.1" viewBox="0 0 512 512" width="512px" xml:space="preserve" xmlns="http://www.w3.org/2000/svg" xmlns:xlink="http://www.w3.org/1999/xlink"><defs><style type="text/css">
   <![CDATA[
    .fil4 {fill:#FEFEFE}
    .fil2 {fill:#3D89BD}
    .fil1 {fill:#64AEE0}
    .fil3 {fill:#83C0E9}
    .fil0 {fill:#D5E2EB}
   ]]>
  </style></defs><g id="Layer_x0020_1"><g id="_344139624"><path class="fil0" d="M135 475c-71,-72 -48,-159 -23,-211 43,-97 62,-115 149,-263 99,151 295,363 97,483 -76,41 -150,38 -223,-8z"/><path class="fil1" d="M79 413c-35,-83 21,-190 174,-401 154,215 199,339 151,418 -72,100 -244,118 -326,-17z"/><path class="fil2" d="M368 468c74,-56 73,-147 -8,-292 38,182 -144,271 -290,176 -9,119 183,216 298,116z"/><path class="fil3" d="M253 12c-120,159 -181,273 -184,340 113,-50 174,-163 184,-340z"/><path class="fil4" d="M338 301c0,2 0,4 -1,6 -8,56 -60,115 -137,104 -24,-3 -45,-14 -61,-29 3,1 7,2 10,2 20,3 39,-1 55,-11 -18,-3 -32,-18 -35,-35 2,1 5,2 8,2 4,1 8,1 11,0 -19,-7 -31,-26 -28,-47 0,0 0,0 0,-1 5,4 11,7 18,8 -10,-9 -16,-23 -13,-38 1,-8 4,-15 9,-21 17,29 45,50 80,57 0,-3 0,-7 0,-10 3,-24 25,-40 48,-37 12,2 22,9 29,18 10,-1 19,-3 28,-6 -5,10 -12,17 -22,21 9,0 17,-1 25,-3 -7,8 -15,14 -24,19z"/></g></g></svg>