<?xml version="1.0" ?><!DOCTYPE svg  PUBLIC '-//W3C//DTD SVG 1.1//EN'  'http://www.w3.org/Graphics/SVG/1.1/DTD/svg11.dtd'><svg height="512px" style="shape-rendering:geometricPrecision; text-rendering:geometricPrecision; image-rendering:optimizeQuality; fill-rule:evenodd; clip-rule:evenodd" version="1.1" viewBox="0 0 512 512" width="512px" xml:space="preserve" xmlns="http://www.w3.org/2000/svg" xmlns:xlink="http://www.w3.org/1999/xlink"><defs><style type="text/css">
   <![CDATA[
    .fil4 {fill:#FEFEFE}
    .fil0 {fill:#EBCBD8}
    .fil2 {fill:#AE3D69}
    .fil1 {fill:#E6568E}
    .fil3 {fill:#EC78A7}
   ]]>
  </style></defs><g id="Layer_x0020_1"><g id="_347087752"><path class="fil0" d="M135 475c-71,-72 -48,-159 -23,-211 43,-97 62,-115 149,-263 99,151 295,363 97,483 -76,41 -150,38 -223,-8z"/><path class="fil1" d="M79 413c-35,-83 21,-190 174,-401 154,215 199,339 151,418 -72,100 -244,118 -326,-17z"/><path class="fil2" d="M368 468c74,-56 73,-147 -8,-292 38,182 -144,271 -290,176 -9,119 183,216 298,116z"/><path class="fil3" d="M253 12c-120,159 -181,273 -184,340 113,-50 174,-163 184,-340z"/><path class="fil4" d="M251 423c-58,0 -105,-47 -105,-105 0,-58 47,-105 105,-105 58,0 105,47 105,105 0,58 -47,105 -105,105zm89 -91c-3,-1 -28,-8 -56,-4 12,32 17,59 17,64 20,-14 35,-35 39,-60zm-54 69c-1,-8 -7,-35 -19,-68 0,0 0,0 -1,0 -51,18 -69,53 -71,56 15,12 34,19 55,19 12,0 24,-3 35,-7zm-102 -23c2,-3 27,-44 73,-59 1,0 2,-1 4,-1 -2,-5 -5,-10 -7,-15 -45,13 -89,13 -93,13 0,1 0,2 0,3 0,23 9,44 23,60zm-21 -79c4,0 41,0 83,-11 -15,-27 -31,-49 -33,-52 -25,12 -44,35 -50,63zm67 -69c2,3 19,26 34,53 32,-12 46,-30 47,-33 -16,-14 -37,-23 -60,-23 -7,0 -14,1 -21,3zm91 31c-2,3 -17,22 -50,35 2,4 4,9 6,13 1,2 1,3 2,5 30,-4 60,2 63,3 0,-21 -8,-41 -20,-56z"/></g></g></svg>