<?xml version="1.0" ?><!DOCTYPE svg  PUBLIC '-//W3C//DTD SVG 1.1//EN'  'http://www.w3.org/Graphics/SVG/1.1/DTD/svg11.dtd'><svg height="512px" style="shape-rendering:geometricPrecision; text-rendering:geometricPrecision; image-rendering:optimizeQuality; fill-rule:evenodd; clip-rule:evenodd" version="1.1" viewBox="0 0 512 512" width="512px" xml:space="preserve" xmlns="http://www.w3.org/2000/svg" xmlns:xlink="http://www.w3.org/1999/xlink"><defs><style type="text/css">
   <![CDATA[
    .fil4 {fill:#FEFEFE}
    .fil3 {fill:#2F4C66}
    .fil1 {fill:#3B6080}
    .fil2 {fill:#6784A2}
    .fil0 {fill:#E3EDDC}
   ]]>
  </style></defs><g id="Layer_x0020_1"><g id="_353596072"><path class="fil0" d="M135 475c-71,-72 -48,-159 -23,-211 43,-97 62,-115 149,-263 99,151 295,363 97,483 -76,41 -150,38 -223,-8z"/><path class="fil1" d="M79 413c-35,-83 21,-190 174,-401 154,215 199,339 151,418 -72,100 -244,118 -326,-17z"/><path class="fil2" d="M253 12c-120,159 -181,273 -184,340 113,-50 174,-163 184,-340z"/><path class="fil3" d="M368 468c74,-56 73,-147 -8,-292 38,182 -144,271 -290,176 -9,119 183,216 298,116z"/><path class="fil4" d="M316 258c5,2 9,5 12,9 6,8 8,20 5,34 -3,14 -9,26 -18,35 -2,2 -3,3 -5,5 -10,8 -22,12 -36,12l-2 0 -41 0 -12 54 -24 0 2 -8 8 0 12 -54 34 0c32,0 59,-20 66,-54 8,-38 -19,-56 -43,-56l-80 0 -36 164 27 0 -4 20 47 0 12 -54 34 0c32,0 59,-20 66,-54 6,-28 -7,-45 -24,-52zm-43 32c-2,11 -12,19 -22,22l6 -24 17 0c0,1 0,2 -1,3zm-39 -22l23 0c7,0 12,3 15,8l-24 0 -8 36 -16 0 10 -45z"/></g></g></svg>