<?xml version="1.0" ?><!DOCTYPE svg  PUBLIC '-//W3C//DTD SVG 1.1//EN'  'http://www.w3.org/Graphics/SVG/1.1/DTD/svg11.dtd'><svg height="7.11111in" style="shape-rendering:geometricPrecision; text-rendering:geometricPrecision; image-rendering:optimizeQuality; fill-rule:evenodd; clip-rule:evenodd" version="1.1" viewBox="0 0 7111 7111" width="7.11111in" xml:space="preserve" xmlns="http://www.w3.org/2000/svg" xmlns:xlink="http://www.w3.org/1999/xlink"><defs><style type="text/css">
   <![CDATA[
    .fil4 {fill:#FEFEFE}
    .fil3 {fill:#FAB073}
    .fil1 {fill:#EC7E3F}
    .fil0 {fill:#E0D3C9}
    .fil2 {fill:#BE663A}
   ]]>
  </style></defs><g id="Layer_x0020_1"><g id="_616732486240"><path class="fil0" d="M1869 6597c-982,-1000 -662,-2212 -325,-2937 591,-1354 861,-1591 2073,-3660 1380,2104 4099,5041 1352,6713 -1052,567 -2085,528 -3100,-116z"/><path class="fil1" d="M1100 5734c-487,-1150 296,-2632 2419,-5566 2133,2983 2764,4706 2103,5799 -993,1388 -3386,1637 -4522,-233z"/><path class="fil2" d="M5106 6499c1029,-780 1014,-2037 -113,-4052 531,2533 -2000,3767 -4028,2442 -123,1653 2539,3005 4141,1610z"/><path class="fil3" d="M3519 168c-1660,2214 -2511,3788 -2554,4721 1565,-695 2416,-2268 2554,-4721z"/><path class="fil4" d="M4426 3341l-1809 0c-247,0 -449,203 -449,450l0 1808c0,247 202,450 449,450l1809 0c247,0 449,-203 449,-450l0 -1808c0,-247 -202,-450 -449,-450zm-1392 1185l974 0c19,53 29,110 29,169 0,284 -231,516 -516,516 -284,0 -515,-232 -515,-516 0,-59 10,-116 28,-169zm1503 0l0 677 0 338c0,93 -77,169 -170,169l-1692 0c-93,0 -169,-76 -169,-169l0 -338 0 -677 0 0 265 0c-12,54 -19,111 -19,169 0,424 345,769 769,769 425,0 770,-345 770,-769 0,-58 -7,-115 -19,-169l265 0 0 0zm0 -592c0,46 -38,84 -85,84l-169 0c-47,0 -85,-38 -85,-84l0 -170c0,-46 38,-84 85,-84l169 0c47,0 85,38 85,84l0 170z"/></g></g></svg>