<?xml version="1.0" ?><!DOCTYPE svg  PUBLIC '-//W3C//DTD SVG 1.1//EN'  'http://www.w3.org/Graphics/SVG/1.1/DTD/svg11.dtd'><svg height="512px" style="shape-rendering:geometricPrecision; text-rendering:geometricPrecision; image-rendering:optimizeQuality; fill-rule:evenodd; clip-rule:evenodd" version="1.1" viewBox="0 0 512 512" width="512px" xml:space="preserve" xmlns="http://www.w3.org/2000/svg" xmlns:xlink="http://www.w3.org/1999/xlink"><defs><style type="text/css">
   <![CDATA[
    .fil1 {fill:#FEFEFE}
    .fil2 {fill:#AFD485}
    .fil0 {fill:#5D924B}
   ]]>
  </style></defs><g id="Layer_x0020_1"><g id="_307609906144"><path class="fil0" d="M193 3c-26,11 -26,33 -52,45 -27,13 -48,13 -52,47 -1,15 0,30 -6,43 -6,12 -13,19 -18,31 -16,31 9,48 18,70 12,28 -1,58 23,74 28,18 39,9 61,38 18,24 28,30 67,21 36,-9 64,11 86,3 11,-5 18,-16 24,-23 9,-11 12,-16 26,-23 27,-14 48,-12 53,-47 1,-15 0,-29 6,-42 5,-13 13,-21 18,-31 16,-33 -8,-48 -18,-72 -11,-26 1,-57 -23,-73 -23,-16 -32,-5 -60,-38 -22,-26 -25,-32 -69,-21 -35,9 -62,-12 -84,-2z"/><path class="fil1" d="M241 27c-84,8 -156,83 -146,179 9,83 84,154 180,143 81,-10 151,-83 142,-177 -9,-84 -83,-153 -176,-145z"/><path class="fil0" d="M238 34c-79,9 -149,82 -136,175 11,79 83,146 175,133 78,-10 145,-83 133,-174 -10,-79 -82,-144 -172,-134z"/><path class="fil2" d="M93 474l66 2 53 36 44 -127 45 127 53 -36 65 -2 -46 -131c-13,7 -24,32 -43,42 -25,14 -48,-2 -73,-2 -30,0 -64,25 -98,-17 -6,-8 -10,-17 -20,-23l-46 131z"/><path class="fil1" d="M239 40c-76,9 -143,79 -131,168 11,76 80,140 168,128 75,-10 139,-80 128,-167 -10,-75 -79,-138 -165,-129z"/><path class="fil0" d="M235 59c-33,8 -59,17 -83,49 -34,45 -39,98 -8,150 16,25 45,48 75,57 94,28 185,-57 167,-149 -7,-39 -28,-63 -49,-81 -26,-22 -69,-34 -102,-26z"/><g><path class="fil1" d="M178 145c-22,29 -23,68 -5,98 16,-44 37,-92 63,-136 -24,10 -47,23 -58,38z"/><path class="fil1" d="M335 107c-54,38 -101,99 -138,161 -2,-2 27,13 45,13 24,0 48,-11 64,-31 32,-42 30,-156 29,-143z"/></g></g></g></svg>