<?xml version="1.0" ?><!DOCTYPE svg  PUBLIC '-//W3C//DTD SVG 1.1//EN'  'http://www.w3.org/Graphics/SVG/1.1/DTD/svg11.dtd'><svg enable-background="new 0 0 96 96" height="96px" version="1.1" viewBox="0 0 96 96" width="96px" xml:space="preserve" xmlns="http://www.w3.org/2000/svg" xmlns:xlink="http://www.w3.org/1999/xlink"><g id="Слой_1"/><g id="Слой_2"><path d="M22.688,16.156c2.148,0,3.896-1.749,3.896-3.896s-1.747-3.895-3.896-3.895   c-2.147,0-3.895,1.747-3.895,3.895S20.54,16.156,22.688,16.156z" fill="#3185FC"/><path d="M7.68,58.688c1.548,0,2.806-1.259,2.806-2.807s-1.258-2.807-2.806-2.807c-1.547,0-2.806,1.259-2.806,2.807   S6.133,58.688,7.68,58.688z" fill="#3185FC"/><path d="M75.522,32.401c1.547,0,2.807-1.259,2.807-2.806c0-1.548-1.26-2.806-2.807-2.806   c-1.548,0-2.807,1.258-2.807,2.806C72.716,31.142,73.975,32.401,75.522,32.401z" fill="#3185FC"/><path d="M86.104,56.12c0,1.548,1.259,2.807,2.807,2.807s2.807-1.259,2.807-2.807s-1.259-2.807-2.807-2.807   S86.104,54.572,86.104,56.12z" fill="#3185FC"/><path d="M5.45,74.237l0.389,4.116c0.432-0.041,10.153-0.985,23.803-4.396v10.141c0,1.143,0.925,2.068,2.067,2.068   h28.049h12.291V82.03H61.826V62.707c11.372-5.328,21.105-11.661,28.914-18.861l-2.804-3.041   c-7.094,6.54-15.879,12.351-26.11,17.319V42.679c0-0.696-0.351-1.346-0.932-1.728l-9.544-6.273   c5.626-3.015,7.854-10.007,4.948-15.729c-1.52-2.997-4.258-5.207-7.508-6.065c-0.659-0.174-1.359-0.013-1.875,0.43   c-0.516,0.443-0.781,1.111-0.709,1.788c0.212,1.99-0.845,3.935-2.635,4.842c-4.095,2.087-5.734,7.115-3.653,11.208   c0.477,0.94,1.123,1.747,1.875,2.423l-11.22,7.376c-0.582,0.382-0.932,1.032-0.932,1.728v27.01   C15.777,73.225,5.556,74.227,5.45,74.237z M57.689,63.222L33.777,81.473V70.431L57.689,52.18V63.222z M39.865,82.03l17.824-13.604   V82.03H39.865z M45.446,23.631c2.307-1.17,3.958-3.278,4.613-5.697c1.072,0.722,1.957,1.711,2.554,2.887   c1.911,3.767,0.404,8.387-3.36,10.299c-0.325,0.165-0.664,0.278-1.01,0.354c0.387-0.912,1.009-1.715,1.872-2.271l-2.24-3.476   c-1.692,1.09-2.937,2.673-3.616,4.494c-0.255-0.278-0.477-0.593-0.653-0.941C42.557,27.216,43.383,24.682,45.446,23.631z    M45.733,35.935l8.382,5.51c-2.771,0.326-5.569,0.51-8.371,0.51v4.135c4.008,0,8.012-0.336,11.945-0.964v1.852L33.777,65.227   V54.185l5.697-4.349l-2.508-3.288l-3.189,2.433v-5.187L45.733,35.935z" fill="#3185FC"/></g></svg>