<?xml version="1.0" ?><!DOCTYPE svg  PUBLIC '-//W3C//DTD SVG 1.1//EN'  'http://www.w3.org/Graphics/SVG/1.1/DTD/svg11.dtd'><svg enable-background="new 0 0 96 96" height="96px" version="1.1" viewBox="0 0 96 96" width="96px" xml:space="preserve" xmlns="http://www.w3.org/2000/svg" xmlns:xlink="http://www.w3.org/1999/xlink"><g id="Слой_1"/><g id="Слой_2"><path d="M23.438,14.093c2.148,0,3.896-1.747,3.896-3.895c0-2.147-1.747-3.895-3.896-3.895   c-2.147,0-3.895,1.747-3.895,3.895C19.542,12.346,21.29,14.093,23.438,14.093z" fill="#3185FC"/><path d="M76.272,30.339c1.547,0,2.807-1.258,2.807-2.806c0-1.548-1.26-2.806-2.807-2.806   c-1.548,0-2.807,1.258-2.807,2.806C73.466,29.081,74.725,30.339,76.272,30.339z" fill="#3185FC"/><path d="M89.659,56.867c1.548,0,2.808-1.259,2.808-2.807s-1.26-2.807-2.808-2.807c-1.547,0-2.807,1.259-2.807,2.807   S88.112,56.867,89.659,56.867z" fill="#3185FC"/><path d="M11.744,71.114v12.984c0,1.142,0.925,2.067,2.067,2.067h39.306h22.688h15.069V82.03H77.873V48.964   c0-1.143-0.926-2.067-2.068-2.067H56.671c-0.034-0.068-0.04-0.142-0.083-0.207l-6-9.154c0.791,0.475,1.595,1.095,2.378,1.946   c3.293,3.575,6.159,4.474,8.208,4.474c1.984,0,3.203-0.844,3.303-0.916l-2.342-3.406c-0.094,0.052-2.259,1.246-6.127-2.954   c-0.589-0.64-1.188-1.167-1.793-1.646c1.755,0.315,3.691,1.048,5.694,2.5c2.268,1.643,4.46,2.748,6.517,3.286l1.044-4.001   c-1.557-0.407-3.284-1.293-5.135-2.633c-3.943-2.859-7.739-3.59-10.814-3.481c1.848-1.314,4.185-2.382,6.525-2.382   c3.6,0,5.239-2.257,5.239-4.355c0-2.47-2.247-5.025-6.007-5.025c-1.341,0-2.771,0.324-4.252,0.963   c-4.423,1.91-6.756,5.948-7.962,9.204L38.27,18.745c-0.301-0.458-0.772-0.78-1.31-0.892c-0.536-0.111-1.098-0.002-1.556,0.298   l-6.257,4.118c-0.785,0.458-1.187,1.39-0.961,2.289c0.065,0.258,0.177,0.497,0.328,0.706l0.174,0.266L11.165,37   c-0.42,0.235-0.751,0.612-0.925,1.072c-0.234,0.619-0.159,1.313,0.204,1.867l13.501,20.599H11.921   c-1.142,0-2.067,0.926-2.067,2.067v6.45C9.854,70.137,10.686,71.025,11.744,71.114z M38.205,66.986v-2.313h12.844V82.03H38.205   V71.123h9.004v-4.137H38.205z M34.07,82.03H15.879V71.123H34.07V82.03z M42.405,38.92l2.899-1.9l6.693,10.21   c-0.022,0.014-0.042,0.027-0.063,0.042L49.1,49.136L42.405,38.92z M44.281,49.328l-15.91,10.417l-5.33-8.131l15.905-10.427   L44.281,49.328z M66.006,51.032l-10.82,8.258v-8.258H66.006z M55.186,77.201l18.551-14.159v7.501L58.688,82.03h-3.503V77.201z    M65.507,82.03l8.229-6.281v6.281H65.507z M73.736,57.837L55.186,71.996v-7.502l17.638-13.462h0.913V57.837z M54.665,23.703   c0.96-0.415,1.839-0.625,2.613-0.625c1.058,0,1.537,0.395,1.694,0.564c0.149,0.161,0.178,0.29,0.19,0.29l0.002-0.001   c-0.042,0.054-0.354,0.255-1.119,0.255c-2.162,0-4.3,0.596-6.238,1.531C52.595,24.896,53.538,24.189,54.665,23.703z M32.681,27.855   c0.459-0.301,0.78-0.771,0.892-1.308c0.112-0.537,0.006-1.096-0.295-1.555l-0.225-0.343l2.894-1.904l7.09,10.816l-2.899,1.9   l-2.604-3.974l-3.458,2.266l2.605,3.975L20.774,48.155l-5.735-8.75L32.681,27.855z M46.548,52.787l0.226,0.345   c0.078,0.118,0.17,0.23,0.271,0.332c0.694,0.693,1.781,0.805,2.598,0.265l1.406-0.924v7.732H34.71L46.548,52.787z M13.989,64.673   H34.07v2.313H13.989V64.673z" fill="#3185FC"/></g></svg>