<?xml version="1.0" ?><!DOCTYPE svg  PUBLIC '-//W3C//DTD SVG 1.1//EN'  'http://www.w3.org/Graphics/SVG/1.1/DTD/svg11.dtd'><svg enable-background="new 0 0 96 96" height="96px" version="1.1" viewBox="0 0 96 96" width="96px" xml:space="preserve" xmlns="http://www.w3.org/2000/svg" xmlns:xlink="http://www.w3.org/1999/xlink"><g id="Слой_1"/><g id="Слой_2"><path d="M22.392,12.387c2.148,0,3.896-1.749,3.896-3.896s-1.748-3.895-3.896-3.895   c-2.147,0-3.895,1.747-3.895,3.895S20.245,12.387,22.392,12.387z" fill="#3185FC"/><path d="M7.385,54.919c1.548,0,2.806-1.26,2.806-2.807c0-1.548-1.258-2.807-2.806-2.807   c-1.547,0-2.806,1.259-2.806,2.807C4.579,53.659,5.837,54.919,7.385,54.919z" fill="#3185FC"/><path d="M75.228,25.678c1.548,0,2.808-1.258,2.808-2.806c0-1.548-1.26-2.806-2.808-2.806   c-1.547,0-2.807,1.258-2.807,2.806C72.421,24.419,73.681,25.678,75.228,25.678z" fill="#3185FC"/><path d="M88.615,52.204c1.548,0,2.807-1.259,2.807-2.807c0-1.547-1.259-2.806-2.807-2.806   c-1.547,0-2.807,1.258-2.807,2.806C85.809,50.945,87.068,52.204,88.615,52.204z" fill="#3185FC"/><path d="M11.196,61.09l45.157,24.982c0.309,0.172,0.653,0.26,1.001,0.26h23.634v-4.137H60.861l13.588-24.562   c0.309-0.557,0.343-1.226,0.094-1.812l-1.778-4.172l4.561-17.539c0.288-1.105-0.375-2.234-1.479-2.522L62.75,28.184l-1.047-2.457   c-0.372-0.873-1.301-1.381-2.226-1.231l-6.778,1.074l-19.546-5.083c-1.108-0.289-2.234,0.375-2.522,1.48l-1.924,7.398L27.16,29.61   c-0.629,0.1-1.178,0.484-1.487,1.042L10.388,58.28C9.835,59.28,10.197,60.538,11.196,61.09z M34.113,25.01l38.69,10.062   l-5.035,19.365l-23.728-0.626L31.674,34.387L34.113,25.01z M27.607,35.699L49.03,69.351l3.488-2.222l-5.799-9.111l22.464,0.593   L56.547,81.454l-41.54-22.98L16.376,56l8.621,4.767l2.002-3.617l-8.621-4.77L27.607,35.699z" fill="#3185FC"/><polygon fill="#3185FC" points="43.782,45.67 47.736,44.56 46.721,48.539 50.729,49.561 51.743,45.583 54.681,48.449 57.568,45.49    54.63,42.623 58.582,41.513 57.463,37.533 53.513,38.643 54.526,34.664 50.52,33.643 49.506,37.622 46.565,34.753 43.677,37.713    46.615,40.58 42.664,41.689  "/></g></svg>