<?xml version="1.0" ?><!DOCTYPE svg  PUBLIC '-//W3C//DTD SVG 1.1//EN'  'http://www.w3.org/Graphics/SVG/1.1/DTD/svg11.dtd'><svg enable-background="new 0 0 1024 1024" height="1024px" id="Layer_1" version="1.1" viewBox="0 0 1024 1024" width="1024px" xml:space="preserve" xmlns="http://www.w3.org/2000/svg" xmlns:xlink="http://www.w3.org/1999/xlink"><g><g><path d="M146.901,249.004V964c0,33,27,60,60,60h613.857c33,0,60-27,60-60V60c0-33-27-60-60-60H395.906" fill="#E74C3C"/><g><path d="M146.901,249.004h189.005c33,0,60-27,60-60V0" fill="#C0392B"/></g></g></g><g><path d="M81.83,670.833h65.071V585l-70.946,88.375h0.012C77.167,671.805,79.198,670.833,81.83,670.833z" fill="#262626"/><path d="M945.83,670.833h-65.071V585l70.946,88.375h-0.012C950.493,671.805,948.462,670.833,945.83,670.833z" fill="#262626"/><path d="M884.273,861.471c-1.934,5.149-8.015,9.362-13.515,9.362H156.901c-5.5,0-11.582-4.213-13.514-9.362   L75.344,680.195c-1.933-5.149,0.986-9.362,6.486-9.362h864c5.5,0,8.419,4.213,6.486,9.362L884.273,861.471z" fill="#C0392B"/></g><g><path d="M336.722,818.323c0-5.013,1.484-8.881,4.454-11.606c2.97-2.724,7.287-4.087,12.955-4.087   c5.395,0,9.535,1.363,12.424,4.087c2.888,2.726,4.332,6.594,4.332,11.606c0,4.903-1.485,8.732-4.455,11.483   c-2.971,2.751-7.069,4.127-12.301,4.127c-5.395,0-9.645-1.362-12.75-4.086C338.274,827.123,336.722,823.282,336.722,818.323z" fill="#FFFFFF"/><path d="M422.787,831.891h-31.794V712.396h70.617v25.909h-38.823v22.804h35.799v25.909h-35.799V831.891z" fill="#FFFFFF"/><path d="M481.227,831.891V712.396h32.285v93.421h46.017v26.073H481.227z" fill="#FFFFFF"/><path d="M651.968,831.891l-5.885-22.395h-38.822l-6.049,22.395h-35.473l38.988-119.984H647.8l39.479,119.984   H651.968z M639.382,783.014l-5.148-19.616c-1.199-4.358-2.658-9.998-4.373-16.918c-1.717-6.92-2.848-11.879-3.393-14.876   c-0.49,2.779-1.459,7.356-2.902,13.731s-4.645,18.936-9.604,37.679H639.382z" fill="#FFFFFF"/></g><g><g><path d="M729.983,369.821c0,8.25-9,15-20,15H314.852c-11,0-20-6.75-20-15s9-15,20-15h395.132    C720.983,354.821,729.983,361.571,729.983,369.821z" fill="#FFFFFF"/></g><g><path d="M729.148,459.821c0,8.25-9,15-20,15H314.017c-11,0-20-6.75-20-15s9-15,20-15h395.132    C720.148,444.821,729.148,451.571,729.148,459.821z" fill="#FFFFFF"/></g><g><path d="M729.983,550.016c0,8.25-9,15-20,15H314.852c-11,0-20-6.75-20-15s9-15,20-15h395.132    C720.983,535.016,729.983,541.766,729.983,550.016z" fill="#FFFFFF"/></g></g></svg>