<?xml version="1.0" ?><!DOCTYPE svg  PUBLIC '-//W3C//DTD SVG 1.1//EN'  'http://www.w3.org/Graphics/SVG/1.1/DTD/svg11.dtd'><svg enable-background="new 0 0 32 32" height="32px" version="1.1" viewBox="0 0 32 32" width="32px" xml:space="preserve" xmlns="http://www.w3.org/2000/svg" xmlns:xlink="http://www.w3.org/1999/xlink"><g id="Dash_DASH_1_"><g><g><g><g><path d="M16,30c-3.739,0-7.255-1.456-9.899-4.101S2,19.739,2,16s1.456-7.255,4.101-9.899       c0.195-0.195,0.512-0.195,0.707,0s0.195,0.512,0,0.707C4.353,9.264,3,12.527,3,16s1.353,6.736,3.808,9.192       C9.264,27.647,12.527,29,16,29s6.736-1.353,9.192-3.808C27.647,22.736,29,19.473,29,16s-1.353-6.736-3.808-9.192       c-4.403-4.402-11.33-5.066-16.474-1.58C8.49,5.381,8.18,5.322,8.024,5.094C7.87,4.865,7.93,4.555,8.158,4.399       c5.54-3.755,13.002-3.038,17.741,1.701C28.544,8.745,30,12.261,30,16s-1.456,7.255-4.101,9.899S19.739,30,16,30z" fill="#263238"/></g><g><path d="M16,27C9.935,27,5,22.065,5,16S9.935,5,16,5s11,4.935,11,11S22.065,27,16,27z M16,6       C10.486,6,6,10.486,6,16s4.486,10,10,10s10-4.486,10-10S21.514,6,16,6z" fill="#263238"/></g></g></g></g><g id="Dash_DASH"><g><g><path d="M18.796,21H9.399c-0.158,0-0.308-0.075-0.402-0.203c-0.094-0.127-0.122-0.292-0.076-0.443l0.613-2      C9.599,18.144,9.793,18,10.013,18h8.313l1.359-4h-7.993c-0.158,0-0.308-0.075-0.402-0.203c-0.094-0.127-0.122-0.292-0.076-0.443      l0.612-2C11.891,11.144,12.085,11,12.305,11h9.499c0.353,0,0.68,0.137,0.952,0.271c0.243,0.09,0.517,0.357,0.687,0.698      c0.142,0.242,0.231,0.544,0.253,0.872c0.054,0.318,0.003,0.698-0.151,1.052l-1.392,4.395c-0.147,0.361-0.313,0.678-0.495,0.954      c-0.278,0.356-0.552,0.635-0.838,0.86c-0.306,0.253-0.677,0.468-0.922,0.61c-0.025,0.015-0.114,0.05-0.142,0.06      C19.469,20.879,19.143,21,18.796,21z M10.076,20h8.72c0.167,0,0.403-0.088,0.613-0.166c0.217-0.12,0.531-0.303,0.781-0.51      c0.233-0.185,0.451-0.406,0.656-0.667c0.122-0.189,0.258-0.448,0.367-0.713l1.396-4.402c0.097-0.229,0.122-0.411,0.093-0.59      c-0.017-0.221-0.061-0.372-0.14-0.509c-0.084-0.167-0.174-0.243-0.204-0.257C22.213,12.118,21.972,12,21.804,12h-9.129l-0.307,1      h8.016c0.161,0,0.313,0.078,0.406,0.209s0.119,0.299,0.067,0.452l-1.699,5C19.089,18.863,18.898,19,18.685,19h-8.302L10.076,20z      " fill="#263238"/></g><g><path d="M8.786,17.031c-0.057,0-0.114-0.01-0.17-0.03c-0.26-0.094-0.395-0.38-0.3-0.64l0.373-1.031      C8.761,15.132,8.948,15,9.159,15H14.5c0.276,0,0.5,0.224,0.5,0.5S14.776,16,14.5,16H9.51l-0.254,0.701      C9.183,16.905,8.99,17.031,8.786,17.031z" fill="#263238"/></g></g></g><g><path d="M16,16" fill="#263238" stroke="#455A64" stroke-linecap="round" stroke-linejoin="round" stroke-miterlimit="10"/></g></g></svg>