<?xml version="1.0" ?><svg height="60px" version="1.1" viewBox="0 0 54 60" width="54px" xmlns="http://www.w3.org/2000/svg" xmlns:xlink="http://www.w3.org/1999/xlink"><title/><desc/><defs/><g fill="none" fill-rule="evenodd" id="Page-1" stroke="none" stroke-linecap="round" stroke-linejoin="round" stroke-width="1"><g id="017---Snow-Globe" stroke="#000000"><path d="M40.84,49 C50.6479052,42.8328303 55.1918302,30.9202854 51.9826785,19.7878853 C48.7735267,8.65548523 38.5857234,0.98967515 27,0.98967515 C15.4142766,0.98967515 5.22647327,8.65548523 2.01732154,19.7878853 C-1.19183019,30.9202854 3.3520948,42.8328303 13.16,49" id="Shape" stroke-width="2"/><path d="M10,49 L44,49 C46.209139,49 48,50.790861 48,53 L48,59 L6,59 L6,53 C6,50.790861 7.790861,49 10,49 Z" id="Shape" stroke-width="2"/><rect height="4" id="Rectangle-path" rx="2" width="24" x="15" y="52"/><path d="M49.52,40 L4.48,40" id="Shape" stroke-width="2"/><rect height="15" id="Rectangle-path" stroke-width="2" width="20" x="17" y="25"/><polygon id="Shape" points="40 25 14 25 14 22 27 15 40 22" stroke-width="2"/><path d="M26,32 L28,32 C29.1045695,32 30,32.8954305 30,34 L30,40 L24,40 L24,34 C24,32.8954305 24.8954305,32 26,32 Z" id="Shape"/><path d="M17,33.09 C16.6701305,33.0294081 16.3353875,32.9992812 16,33 C12.6873771,33.0026194 10.0026194,35.6873771 10,39 C9.99928124,39.3353875 10.0294081,39.6701305 10.09,40" id="Shape"/><path d="M43.91,40 C43.9705919,39.6701305 44.0007188,39.3353875 44,39 C43.9973806,35.6873771 41.3126229,33.0026194 38,33 C37.6646125,32.9992812 37.3298695,33.0294081 37,33.09" id="Shape"/><polyline id="Shape" points="32 17.69 32 14 36 14 36 19.85"/><rect height="2" id="Rectangle-path" rx="1" width="6" x="31" y="12"/><circle cx="18" cy="9" id="Oval" r="2"/><circle cx="29" cy="8" id="Oval" r="1"/><circle cx="43" cy="16" id="Oval" r="2"/><circle cx="8.5" cy="23.5" id="Oval" r="2.5"/><circle cx="12.5" cy="15.5" id="Oval" r="1.5"/><circle cx="46" cy="29" id="Oval" r="2"/><circle cx="6.5" cy="32.5" id="Oval" r="1.5"/></g></g></svg>