<?xml version="1.0" ?><svg height="60px" version="1.1" viewBox="0 0 60 60" width="60px" xmlns="http://www.w3.org/2000/svg" xmlns:xlink="http://www.w3.org/1999/xlink"><title/><desc/><defs/><g fill="none" fill-rule="evenodd" id="Page-1" stroke="none" stroke-linejoin="round" stroke-width="1"><g id="027---Reindeer" stroke="#000000"><path d="M18,34.18 L18,25 C17.9994162,22.8780892 18.8420835,20.8429187 20.3425011,19.3425011 C21.8429187,17.8420835 23.8780892,16.9994162 26,17 L34,17 C36.1219108,16.9994162 38.1570813,17.8420835 39.6574989,19.3425011 C41.1579165,20.8429187 42.0005838,22.8780892 42,25 L42,34.18" id="Shape" stroke-linecap="round" stroke-width="2"/><path d="M38.56339,33.0609 C41.0239003,33.6763954 43.380232,34.6512623 45.55639,35.95406 C47.4083234,37.0423186 49.013867,38.503595 50.27117,40.24519 C52.5763284,43.3691901 52.5763284,47.6308099 50.27117,50.75481 C49.013867,52.496405 47.4083234,53.9576814 45.55639,55.04594 C43.380232,56.3487377 41.0239003,57.3236046 38.56339,57.9391 C32.9420851,59.3536332 27.0579149,59.3536332 21.43661,57.9391 C18.9760997,57.3236046 16.619768,56.3487377 14.44361,55.04594 C12.5916766,53.9576814 10.986133,52.496405 9.72883,50.75481 C7.42367156,47.6308099 7.42367156,43.3691901 9.72883,40.24519 C10.986133,38.503595 12.5916766,37.0423186 14.44361,35.95406 C16.619768,34.6512623 18.9760997,33.6763954 21.43661,33.0609" id="Shape" stroke-linecap="round" stroke-width="2"/><ellipse cx="30" cy="40" id="Oval" rx="7" ry="4" stroke-linecap="round" stroke-width="2"/><ellipse cx="25" cy="26.5" id="Oval" rx="3" ry="3.5" stroke-linecap="round"/><ellipse cx="35" cy="26.5" id="Oval" rx="3" ry="3.5" stroke-linecap="round"/><path d="M25,7 C29,10 30,17 30,17 C30,17 30,12 34,10" id="Shape" stroke-linecap="round" stroke-width="2"/><circle cx="25" cy="27" id="Oval" r="1" stroke-linecap="round"/><circle cx="35" cy="27" id="Oval" r="1" stroke-linecap="round"/><ellipse cx="31.7" cy="39.5" id="Oval" rx="1.5" ry="1" stroke-linecap="round"/><path d="M23,41 C23,41 13,39 10,51" id="Shape" stroke-linecap="round"/><path d="M37,41 C37,41 47,39 50,51" id="Shape" stroke-linecap="round"/><path d="M25,20 C24.232065,20.0726427 23.5188752,20.4292376 23,21" id="Shape" stroke-linecap="round" stroke-width="2"/><path d="M35,20 C35.767935,20.0726427 36.4811248,20.4292376 37,21" id="Shape" stroke-linecap="round" stroke-width="2"/><path d="M38.88,18.6616 L40.66,15.30132 C41.0163918,14.6469582 41.7049206,14.2428072 42.45,14.25063 L56.87,14.25063 C57.8490292,14.2889684 58.7192638,13.6315731 58.95,12.67935 C59.1004931,11.7329663 58.5211723,10.8230679 57.6,10.559 C57.2197043,10.4298321 56.9655236,10.0708481 56.97,9.66924 L56.97,2.996 C56.9682862,1.91215202 56.1041247,1.02660541 55.0206423,0.998402369 C53.93716,0.970199324 53.0280984,1.80958893 52.97,2.89188 L52.97,9.51784 C52.9408105,10.0487971 52.5017589,10.4643747 51.97,10.4643747 C51.4382411,10.4643747 50.9991895,10.0487971 50.97,9.51784 L50.97,2.996 C50.9682862,1.91215202 50.1041247,1.02660541 49.0206423,0.998402369 C47.93716,0.970199324 47.0280984,1.80958893 46.97,2.89188 L46.97,9.51784 C46.9408105,10.0487971 46.5017589,10.4643747 45.97,10.4643747 C45.4382411,10.4643747 44.9991895,10.0487971 44.97,9.51784 L44.97,2.996 C44.9682862,1.91215202 44.1041247,1.02660541 43.0206423,0.998402369 C41.93716,0.970199324 41.0280984,1.80958893 40.97,2.89188 L40.97,9.95325 C40.9711301,10.3463444 40.7218203,10.69652 40.35,10.82409 C38.9486015,11.3071179 37.7809078,12.3008752 37.08,13.607 L35.23,17.09981 C35.22,17.12821 35.2,17.14714 35.2,17.17553" id="Shape" stroke-width="2"/><path d="M24.75,17.185 C24.74,17.1566 24.72,17.12821 24.71,17.09981 L22.87,13.607 C22.1690863,12.3008865 21.0013934,11.3071406 19.6,10.82412 C19.2234635,10.7010499 18.969079,10.3494178 18.97,9.95328 L18.97,2.89192 C18.95117,2.31834234 18.6823844,1.78170151 18.2343227,1.42311176 C17.786261,1.06452202 17.2037624,0.919868834 16.64,1.02719 C15.6750132,1.18365517 14.9669461,2.0184155 14.97,2.996 L14.97,9.5178 C14.9408105,10.0487571 14.5017589,10.4643347 13.97,10.4643347 C13.4382411,10.4643347 12.9991895,10.0487571 12.97,9.5178 L12.97,2.89192 C12.95117,2.31834234 12.6823844,1.78170151 12.2343227,1.42311176 C11.786261,1.06452202 11.2037624,0.919868834 10.64,1.02719 C9.67501325,1.18365517 8.96694607,2.0184155 8.97,2.996 L8.97,9.5178 C8.94081049,10.0487571 8.50175886,10.4643347 7.97,10.4643347 C7.43824114,10.4643347 6.99918951,10.0487571 6.97,9.5178 L6.97,2.89192 C6.95116997,2.31834234 6.68238437,1.78170151 6.23432266,1.42311176 C5.78626096,1.06452202 5.20376242,0.919868834 4.64,1.02719 C3.67501325,1.18365517 2.96694607,2.0184155 2.97,2.996 L2.97,9.66929 C2.97873292,10.0691218 2.72811612,10.4287812 2.35,10.55905 C1.42616001,10.8195067 0.845126391,11.7320738 1,12.67935 C1.2279871,13.6333742 2.09998972,14.2921051 3.08,14.25063 L17.5,14.25063 C18.2450794,14.2428072 18.9336082,14.6469582 19.29,15.30132 L21.08,18.69" id="Shape" stroke-width="2"/><ellipse cx="30" cy="52.5" id="Oval" rx="5" ry="3.5" stroke-linecap="round" stroke-width="2"/></g></g></svg>