<?xml version="1.0" ?><svg height="60px" version="1.1" viewBox="0 0 56 60" width="56px" xmlns="http://www.w3.org/2000/svg" xmlns:xlink="http://www.w3.org/1999/xlink"><title/><desc/><defs/><g fill="none" fill-rule="evenodd" id="Page-1" stroke="none" stroke-linejoin="round" stroke-width="1"><g id="028---Snowman" stroke="#000000" transform="translate(0.000000, 1.000000)"><path d="M28,58 C11,58 12,50.84 12,42 C11.9942438,37.1627808 14.182522,32.5839466 17.95,29.55 C18.0050333,29.5056667 18.0605167,29.4615833 18.11645,29.41775 C18.6976745,28.951008 19.1128404,28.3092321 19.30028,27.58775 C19.5101282,26.5741202 20.0824636,25.671824 20.91,25.05 C22.7862342,26.9382101 25.3381524,28.000008 28.00003,28.000008 C30.6619076,28.000008 33.2138258,26.9382101 35.09006,25.05 C35.9175774,25.6718259 36.4898976,26.5741134 36.69974,27.58773 C36.8871796,28.3092121 37.3023455,28.950988 37.88357,29.41773 C37.9394967,29.4615567 37.99498,29.50564 38.05002,29.54998 C41.817496,32.5839349 44.0057671,37.1627772 44,42 C44,50.84 45,58 28,58 Z" id="Shape" stroke-width="2"/><path d="M20.91,25.05 C17.5127511,21.6354587 17.033501,16.2838321 19.77,12.32" id="Shape" stroke-linecap="round" stroke-width="2"/><path d="M36.23,12.32 C38.966499,16.2838321 38.4872489,21.6354587 35.09,25.05" id="Shape" stroke-linecap="round" stroke-width="2"/><circle cx="28" cy="37" id="Oval" r="2"/><circle cx="28" cy="44" id="Oval" r="2"/><circle cx="28" cy="51" id="Oval" r="2"/><path d="M22,8.34 C18.41,8.77 16,9.58 16,10.5 C16,11.22 17.45,11.86 19.77,12.32 C22.4866107,12.7990723 25.2415999,13.0267021 28,13 C30.7584001,13.0267021 33.5133893,12.7990723 36.23,12.32 C38.55,11.86 40,11.22 40,10.5 C40,9.58 37.59,8.77 34,8.34" id="Shape" stroke-linecap="round" stroke-width="2"/><path d="M22,9 L22,2 C22.0032293,0.896770878 22.8967709,0.00322927335 24,0 L32,0 C33.1032291,0.00322927335 33.9967707,0.896770878 34,2 L34,9" id="Shape" stroke-linecap="round" stroke-width="2"/><path d="M38.05,29.55 C34.9646733,31.2127625 31.5044042,32.0563107 28,32 C24.4955958,32.0563107 21.0353267,31.2127625 17.95,29.55" id="Shape" stroke-linecap="round" stroke-width="2"/><path d="M18.4,15.21 L18.39,15.21" id="Shape" stroke-linecap="round" stroke-width="2"/><path d="M34,32 C34,32 38,36 36,43 L41,43 C41,43 43,38 37,30" id="Shape" stroke-linecap="round"/><path d="M36.53,40 L32.68,40 C33.5507095,37.2405422 33.4196823,34.2623299 32.31,31.59" id="Shape" stroke-linecap="round"/><circle cx="24.5" cy="17.5" id="Oval" r="1.5" stroke-linecap="round"/><circle cx="31.5" cy="17.5" id="Oval" r="1.5" stroke-linecap="round"/><path d="M30,21.5 C30,22.60457 28,25 28,25 C28,25 26,22.60457 26,21.5 C26,20.3954305 26.8954305,19.5 28,19.5 C29.1045695,19.5 30,20.3954305 30,21.5 Z" id="Shape" stroke-linecap="round"/><path d="M22,5 L34,5" id="Shape"/><path d="M22,7 L34,7" id="Shape"/><path d="M4,16 L4,26.17 C4.00025564,26.7029094 4.21253479,27.2138185 4.59,27.59 L9,32 L13.12,36.12" id="Shape" stroke-linecap="round" stroke-width="2"/><path d="M4,21 L0.79289,17.79289 C0.605356463,17.6053548 0.500000945,17.3510037 0.5,17.08579 L0.5,14" id="Shape" stroke-linecap="round"/><path d="M4,20 L8,16" id="Shape" stroke-linecap="round"/><path d="M9,32 L9,27" id="Shape" stroke-linecap="round"/><path d="M52,16 L52,26.17 C51.9997444,26.7029094 51.7874652,27.2138185 51.41,27.59 L47,32 L42.88,36.12" id="Shape" stroke-linecap="round" stroke-width="2"/><path d="M52,21 L55.20711,17.79289 C55.3946435,17.6053548 55.4999991,17.3510037 55.5,17.08579 L55.5,14" id="Shape" stroke-linecap="round"/><path d="M52,20 L48,16" id="Shape" stroke-linecap="round"/><path d="M47,32 L47,27" id="Shape" stroke-linecap="round"/></g></g></svg>