<?xml version="1.0" ?><svg height="60px" version="1.1" viewBox="0 0 49 60" width="49px" xmlns="http://www.w3.org/2000/svg" xmlns:xlink="http://www.w3.org/1999/xlink"><title/><desc/><defs/><g fill="none" fill-rule="evenodd" id="Page-1" stroke="none" stroke-linecap="round" stroke-linejoin="round" stroke-width="1"><g id="015---Stocking" stroke="#000000" transform="translate(1.000000, 0.000000)"><path d="M40.96,12.57 C40.778288,13.4059887 40.3897638,14.1830372 39.83,14.83 C39.0776646,15.5776327 38.0606411,15.9980982 37,16 L15,16 C12.790861,16 11,14.209139 11,12 C11,9.790861 12.790861,8 15,8 L37,8 C37.3066349,8.00024132 37.6121395,8.03717046 37.91,8.11 C39.3598432,8.44332628 40.502077,9.55854778 40.87,11" id="Shape" stroke-width="2"/><path d="M15,16 L15,40 C15,41.1045695 14.1045695,42 13,42 L9,42 C4.30557963,42 0.5,45.8055796 0.5,50.5 L0.5,50.5 C0.5,55.1944204 4.30557963,59 9,59 L29,59 C33.418278,59 37,55.418278 37,51 L37,16 L15,16 Z" id="Shape" stroke-width="2"/><path d="M7.25,58.82 C11.1840517,57.9912918 13.9999815,54.520388 13.9999815,50.5 C13.9999815,46.479612 11.1840517,43.0087082 7.25,42.18" id="Shape" stroke-width="2"/><path d="M37,47.2 C33.7103932,46.5323252 30.3051262,47.5580634 27.9315948,49.9315948 C25.5580634,52.3051262 24.5323252,55.7103932 25.2,59" id="Shape" stroke-width="2"/><polygon id="Shape" points="25.954 20.871 28.087 25.193 32.856 25.886 29.405 29.25 30.22 34 25.954 31.757 21.688 34 22.503 29.25 19.051 25.886 23.821 25.193" stroke-width="2"/><path d="M37,33 L31.35,27.35" id="Shape"/><path d="M25.59,21.59 L20,16" id="Shape"/><path d="M37,38 L29.64,30.64" id="Shape"/><path d="M23.94,24.94 L15,16" id="Shape"/><path d="M23,3.69 L23,2 C22.9983854,1.44838544 22.5516146,1.00161464 22,1 L16,1 C15.4483854,1.00161464 15.0016146,1.44838544 15,2 L15,8 L22.09,8" id="Shape" stroke-width="2"/><path d="M19,1 L19,8" id="Shape"/><path d="M33.99,6.81 C33.8831503,3.53921438 31.1737034,0.958092908 27.9015838,1.00994468 C24.6294642,1.06179645 22.0031608,3.7274711 22,7 C21.9992812,7.3353875 22.0294081,7.67013046 22.09,8" id="Shape" stroke-width="2"/><circle cx="29" cy="6" id="Oval" r="2"/><path d="M33.23,8 L33.99,6.81 L35.96,3.75 C37.646081,1.12498437 41.0637156,0.232053477 43.8183452,1.69683752 C46.5729747,3.16162157 47.7435892,6.49437025 46.51,9.36 C46.3826747,9.66940263 46.2287651,9.96718421 46.05,10.25 L44.42,12.77 C44.0356695,13.3796083 43.3504491,13.7322341 42.631003,13.6906476 C41.9115569,13.6490611 41.2715305,13.2198314 40.96,12.57 C40.8784699,12.4270366 40.8210351,12.2716246 40.79,12.11 C40.7066396,11.7402054 40.7344728,11.354019 40.87,11 C40.9147769,10.8586185 40.9787041,10.7240349 41.06,10.6 L42.68,8.08 C43.0670497,7.47977424 43.1041302,6.71855341 42.7772507,6.08355086 C42.4503711,5.44854831 41.8092893,5.03642428 41.0958894,5.00267574 C40.3824894,4.9689272 39.7053652,5.31869135 39.32,5.92 L37.91,8.11" id="Shape" stroke-width="2"/></g></g></svg>