<?xml version="1.0" ?><svg height="60px" version="1.1" viewBox="0 0 54 60" width="54px" xmlns="http://www.w3.org/2000/svg" xmlns:xlink="http://www.w3.org/1999/xlink"><title/><desc/><defs/><g fill="none" fill-rule="evenodd" id="Page-1" stroke="none" stroke-linecap="round" stroke-linejoin="round" stroke-width="1"><g id="030---Holly" stroke="#000000" transform="translate(1.000000, 1.000000)"><path d="M31.8,24.07 C33.0426002,22.3087195 34.5742106,20.7703471 36.33,19.52 C29.44,16.07 35.19,6.89 35.19,6.89 C27.15,6.89 26,0 26,0 C26,0 24.85,6.89 16.81,6.89 C16.81,6.89 22.56,16.07 15.67,19.52 C17.7659293,21.0179107 19.5351525,22.9266303 20.87,25.13" id="Shape" stroke-width="2"/><polyline id="Shape" points="26 30.1 26 29 26 27 26 8"/><path d="M23,10 C23,10 26,11.01354 26,14" id="Shape"/><path d="M23,17 C23,17 26,18.01354 26,21" id="Shape"/><path d="M29,10 C29,10 26,11.01354 26,14" id="Shape"/><path d="M29,17 C29,17 26,18.01354 26,21" id="Shape"/><path d="M24.26,39.18 C21.56,43.95 22.74,49.88 22.74,49.88 C15.44,47.45 13,58 13,58 C7.53,52.53 2.05,56.09 1.65,56.36" id="Shape" stroke-width="2"/><path d="M1.63,56.38 L1.65,56.36 C1.92,55.96 5.48,50.48 0.01,45.01 C0.01,45.01 10.56,42.57 8.13,35.27 C8.13,35.27 13.99,36.44 18.75,33.8" id="Shape" stroke-width="2"/><path d="M22.09,35.92 L7.29,50.72" id="Shape"/><path d="M10.8263,51.42653 C10.8263,51.42653 9.42166,48.58853 11.53341,46.47678" id="Shape"/><path d="M15.77605,46.47678 C15.77605,46.47678 14.37141,43.63878 16.48315,41.52703" id="Shape"/><path d="M6.58366,47.18388 C6.58366,47.18388 9.42166,48.58852 11.53341,46.47678" id="Shape"/><path d="M11.53341,42.23414 C11.53341,42.23414 14.37141,43.63878 16.48315,41.52703" id="Shape"/><path d="M50.37,56.38 L50.35,56.36 C50.08,55.96 46.52,50.48 51.99,45.01 C51.99,45.01 41.44,42.57 43.87,35.27 C43.87,35.27 37.75,36.49 32.95,33.61 L32.94,33.61" id="Shape" stroke-width="2"/><path d="M31.25,32.37 C31.2500579,32.3673305 31.2490229,32.3647532 31.2471349,32.3628651 C31.2452468,32.3609771 31.2426695,32.3599421 31.24,32.36" id="Shape" stroke-width="2"/><path d="M50.35,56.36 C49.95,56.09 44.47,52.53 39,58 C39,58 36.56,47.45 29.26,49.88 C29.8400536,46.505258 29.4409709,43.0349741 28.11,39.88" id="Shape" stroke-width="2"/><path d="M44.71,50.72 L31.39,37.4" id="Shape"/><path d="M41.1737,51.42653 C41.1737,51.42653 42.57834,48.58853 40.46659,46.47678" id="Shape"/><path d="M36.224,46.47678 C36.224,46.47678 37.62864,43.63878 35.5169,41.52703" id="Shape"/><path d="M45.41634,47.18388 C45.41634,47.18388 42.57834,48.58852 40.46659,46.47678" id="Shape"/><path d="M40.46659,42.23414 C40.46659,42.23414 37.62859,43.63878 35.51685,41.52703" id="Shape"/><path d="M26.26,27.39 C26.1850434,27.2525632 26.0980353,27.122051 26,27 C25.0547443,25.7421502 23.5734333,25.0014947 22,25 C21.6194391,24.9970483 21.2399486,25.0407065 20.87,25.13 C18.3943277,25.7041453 16.7432596,28.0441713 17.0323293,30.5690545 C17.321399,33.0939377 19.4586232,35.0002484 22,35" id="Shape" stroke-width="2"/><path d="M26.12,30.08 C26.0395152,29.7256578 25.9992606,29.3633671 26,29 C25.9993168,28.452827 26.0871166,27.9091436 26.26,27.39 C26.9523224,25.362513 28.8575682,23.9999005 31,24 C31.2682781,23.9980361 31.5361397,24.021474 31.8,24.07 C33.9993505,24.4265672 35.6974228,26.1953015 35.964075,28.4073547 C36.2307271,30.6194079 35.0016144,32.7409999 32.95,33.61 L32.94,33.61 C32.5998082,33.7538777 32.2441088,33.857903 31.88,33.92" id="Shape" stroke-width="2"/><circle cx="27" cy="35" id="Oval" r="5" stroke-width="2"/><circle cx="27.5" cy="34.5" id="Oval" r="1.5"/><circle cx="31.5" cy="27.5" id="Oval" r="1.5"/><circle cx="21.5" cy="28.5" id="Oval" r="1.5"/></g></g></svg>