<?xml version="1.0" ?><!DOCTYPE svg  PUBLIC '-//W3C//DTD SVG 1.1//EN'  'http://www.w3.org/Graphics/SVG/1.1/DTD/svg11.dtd'><svg height="511px" id="Layer_1" style="enable-background:new 0 0 511 511;" version="1.1" viewBox="0 0 511 511" width="511px" xml:space="preserve" xmlns="http://www.w3.org/2000/svg" xmlns:xlink="http://www.w3.org/1999/xlink"><path d="M511,431c0,44.183-35.817,80-80,80H80c-44.183,0-80-35.817-80-80V104L104,0h327  c44.183,0,80,35.818,80,80V431z" style="fill:#01C26E;"/><path d="M257.327,511l-0.69-244.152l-91.252-12.137c0,0-62.384,46.141-62.384,93.872  c0,20.684,0,101.829,0,101.829s0,20.684,14,28.637V511H257.327z" style="fill:#F3D8B4;"/><path d="M0,104h69.334C88.4,104,104,88.666,104,69.6V0L0,104z" style="fill:#01FF91;"/><polygon points="0,159.734 0,104 55.467,104 " style="opacity:0.2;fill:#5D5D5D;"/><path d="M389,403.67c0,18.408-14.923,33.33-33.331,33.33H200.331C181.923,437,167,422.078,167,403.67V64.33  C167,45.922,181.923,31,200.331,31h155.339C374.077,31,389,45.922,389,64.33V403.67z" style="fill:#F2F2F2;"/><path d="M355.669,432H200.331C181.923,432,167,417.078,167,398.67v5c0,18.408,14.923,33.33,33.331,33.33  h155.339C374.077,437,389,422.078,389,403.67v-5C389,417.078,374.077,432,355.669,432z" style="fill:#E0E0E0;"/><path d="M355.669,31H200.331C181.923,31,167,45.922,167,64.33v5C167,50.922,181.923,36,200.331,36h155.339  C374.077,36,389,50.922,389,69.33v-5C389,45.922,374.077,31,355.669,31z" style="fill:#FFFFFF;"/><rect height="324" style="fill:#22303D;" width="222" x="167" y="75"/><rect height="302" style="fill:#355FA7;" width="200" x="178" y="86"/><rect height="12" style="fill:#D6D6D6;" width="123" x="216" y="51"/><rect height="11" style="fill:#D6D6D6;" width="123" x="216" y="410"/><path d="M361.798,65.919c-4.901,0-8.888-3.987-8.888-8.888s3.987-8.889,8.888-8.889s8.888,3.988,8.888,8.889  S366.699,65.919,361.798,65.919z" style="fill:#2D3E50;"/><path d="M361.798,61.059c-2.22,0-4.027-1.807-4.027-4.027s1.807-4.027,4.027-4.027  c2.221,0,4.027,1.807,4.027,4.027S364.019,61.059,361.798,61.059z" style="fill:#F2F2F2;"/><circle cx="189.22" cy="57.031" r="5.555" style="fill:#2D3E50;"/><circle cx="203.664" cy="57.031" r="5.555" style="fill:#2D3E50;"/><path d="M224.909,197.432l-59.665,57.279l-24.661,38.977l13.156,17.83l-33.044,111.047L178,481l37.712,7.955  c-0.837-55.688-15.464-58.432-15.464-58.432s11.851-20.687,11.851-85.918c0-24.002-5.812-41.848-13.148-54.838l18.004-19.945  C216.955,269.822,270.255,198.226,224.909,197.432z" style="fill:#F3D8B4;"/><path d="M193.718,227.374l12.098,7.446c20.255-0.381,24.663-26.253,24.663-26.253l-10.876-6.044  L193.718,227.374z" style="fill:#FFF1DE;"/><path d="M257.5,437H207c0,0,9.32,26.334,50.327,26.334L257.5,437z" style="opacity:0.2;fill:#5D5D5D;"/><path d="M258,264v-55h-13v-30h13v-8.374c0-2.185-1.025-11.793,5.564-19.39  c4.924-5.678,12.206-8.236,22.027-8.236H311v30h-20v6h20.253l-5.259,30H291v55H258z" style="opacity:0.2;fill:#5D5D5D;"/><path d="M288.874,167.058h3.283h13.133v-19.698h-9.85h-3.283h-6.566c-26.265,0-22.981,22.981-22.981,22.981  v2.921v10.212h-13.132v19.698h13.132v55.813h22.981v-55.813h16.211l3.488-19.698h-19.699v-13.133  C285.591,170.341,285.591,167.058,288.874,167.058z" style="fill:#F2F2F2;"/><polygon points="378,86 178.11,86 378,285.902 " style="opacity:0.1;fill:#FFFFFF;"/><g/><g/><g/><g/><g/><g/><g/><g/><g/><g/><g/><g/><g/><g/><g/></svg>