<?xml version="1.0" ?><!DOCTYPE svg  PUBLIC '-//W3C//DTD SVG 1.1//EN'  'http://www.w3.org/Graphics/SVG/1.1/DTD/svg11.dtd'><svg enable-background="new 0 0 52.248 57" id="flask-hearts" version="1.1" viewBox="0 0 52.248 57" xml:space="preserve" xmlns="http://www.w3.org/2000/svg" xmlns:xlink="http://www.w3.org/1999/xlink"><g><path d="M26.124,19.2734c0-7.2124,5.8438-13.0586,13.0635-13.0586c7.2099,0,13.0605,5.8462,13.0605,13.0586   c0,3.7842-1.6338,7.1553-4.1963,9.545l0.0342,0.0058l-21.9619,21.96l-21.9697-21.96c0.0097-0.0058,0.0176-0.0058,0.0254-0.0161   C1.6181,26.4233,0,23.0576,0,19.2734C0,12.061,5.8447,6.2148,13.0635,6.2148C20.2734,6.2148,26.124,12.061,26.124,19.2734z" fill="#C0DFCF"/><g><polyline fill="#FFFFFF" points="19.3408,22.8022 19.3408,33.9082 9.1103,56 43.1377,56 32.832,33.9082 32.832,22.8022   "/><polyline fill="#CCCCCC" points="19.3408,22.8022 19.3408,28.1021 32.832,28.1021 32.832,22.8022   "/><polyline fill="#FBD0C4" points="16.499,40.123 9.1103,56 43.1377,56 35.7929,40.123   "/><path d="M31.8056,45.4297c1.0469,0,1.8907,0.8457,1.8907,1.8935c0,1.044-0.8438,1.8926-1.8907,1.8926    c-1.0488,0-1.8964-0.8486-1.8964-1.8926C29.9092,46.2754,30.7568,45.4297,31.8056,45.4297z" fill="#FFA8A6"/><circle cx="24.2314" cy="51.1099" fill="#FFA8A6" r="1.8941"/><path d="M20.4453,41.6436c1.0478,0,1.8935,0.8466,1.8935,1.8935c0,1.044-0.8457,1.8926-1.8935,1.8926    c-1.0488,0-1.8936-0.8486-1.8936-1.8926C18.5517,42.4902,19.3965,41.6436,20.4453,41.6436z" fill="#FFA8A6"/></g><g><g><path d="M43.1377,57H9.1103c-0.3427,0-0.6621-0.1758-0.8457-0.4653c-0.1826-0.2901-0.2051-0.6538-0.0576-0.9634     l10.1338-21.3511V22.0493c0-0.5522,0.4473-1,1-1s1,0.4478,1,1v12.396c0,0.1484-0.0332,0.2949-0.0967,0.4287L10.6924,55h30.8662     l-9.5117-20.1274c-0.0625-0.1338-0.0958-0.2793-0.0958-0.4273v-12.396c0-0.5522,0.4473-1,1-1h2.918c0.5528,0,1,0.4478,1,1     c0,0.5523-0.4472,1-1,1h-1.918v11.1714L44.042,55.5728c0.1465,0.3095,0.124,0.6728-0.0596,0.9624     C43.7988,56.8247,43.4804,57,43.1377,57L43.1377,57z" fill="#43525B"/></g><g><path d="M32.5937,23.0493H16.4238c-0.5527,0-1-0.4477-1-1c0-0.5522,0.4473-1,1-1h16.1699c0.5528,0,1,0.4478,1,1     C33.5937,22.6016,33.1465,23.0493,32.5937,23.0493L32.5937,23.0493z" fill="#43525B"/></g><g><path d="M32.9258,35.6621H19.3672c-0.5528,0-1-0.4477-1-1c0-0.5522,0.4472-1,1-1h13.5586c0.5527,0,1,0.4478,1,1     C33.9258,35.2144,33.4785,35.6621,32.9258,35.6621L32.9258,35.6621z" fill="#43525B"/></g><g><polygon fill="#43525B" points="24.0722,31.9131 19.0234,31.9131 19.0234,29.9131 24.0722,29.9131 24.0722,31.9131    "/></g><g><polygon fill="#43525B" points="24.0722,29.0728 19.0234,29.0728 19.0234,27.0728 24.0722,27.0728 24.0722,29.0728    "/></g><g><polygon fill="#43525B" points="24.0722,26.2344 19.0234,26.2344 19.0234,24.2344 24.0722,24.2344 24.0722,26.2344    "/></g></g><g><path d="M26.3789,10.0029c-0.459-1.0527-1.5108-1.7876-2.7315-1.7876c-1.6425,0-2.8291,1.3594-2.9785,2.979    c0,0-0.081,0.4014,0.0967,1.1255c0.2422,0.9883,0.8076,1.8614,1.5703,2.5313l4.043,3.4819l3.9756-3.4819    c0.7627-0.6699,1.3281-1.543,1.5703-2.5313c0.1748-0.7241,0.0976-1.1255,0.0976-1.1255c-0.1504-1.6196-1.3359-2.979-2.9804-2.979    C27.8213,8.2153,26.8388,8.9502,26.3789,10.0029z" fill="#FFA8A6"/><g><path d="M26.3789,19.333c-0.2324,0-0.4649-0.0806-0.6524-0.2422l-4.0429-3.4819     c-0.9541-0.8379-1.6045-1.8906-1.8897-3.0513c-0.1885-0.7705-0.1494-1.2842-0.1172-1.4936     c0.2207-2.1968,1.9219-3.8487,3.9707-3.8487c1.0313,0,1.9981,0.3975,2.7217,1.0747c0.708-0.6831,1.6494-1.0747,2.6729-1.0747     c2.0615,0,3.7705,1.6709,3.9765,3.8868c0.0059,0.0058,0.0928,0.5629-0.122,1.4526c-0.2852,1.1636-0.9356,2.2163-1.8819,3.0478     l-3.9765,3.4829C26.8496,19.2505,26.6142,19.333,26.3789,19.333L26.3789,19.333z M21.6494,11.3901     c0.0019,0-0.0205,0.2525,0.0869,0.6914c0.1865,0.7608,0.6221,1.4585,1.2598,2.0181l3.3769,2.9087l3.3223-2.9097     c0.6367-0.5586,1.0723-1.2563,1.2578-2.0166c0.1133-0.4673,0.082-0.727,0.082-0.7295c-0.1035-1.0952-0.8164-2.1372-1.9931-2.1372     c-0.7686,0-1.4219,0.4444-1.7471,1.188c-0.1592,0.3643-0.5186,0.5996-0.916,0.5996l0,0c-0.3985,0-0.7578-0.2358-0.917-0.6001     c-0.3145-0.7216-1.0264-1.1875-1.8145-1.1875c-1.1767,0-1.8877,1.042-1.9824,2.0708c-0.0039,0.0352-0.0088,0.0699-0.0156,0.1045     C21.6494,11.3901,21.6494,11.3901,21.6494,11.3901L21.6494,11.3901z" fill="#43525B"/></g></g><g><path d="M35.7373,2.438C35.3681,1.5918,34.5254,1,33.542,1c-1.3213,0-2.2725,1.0923-2.3936,2.3945    c0,0-0.0625,0.3247,0.0811,0.9053c0.1924,0.7915,0.6465,1.4946,1.2597,2.0332l3.2481,2.7988l3.1924-2.7998    c0.6142-0.5376,1.0683-1.2407,1.2636-2.0322c0.1407-0.5806,0.0772-0.9053,0.0772-0.9053C40.1504,2.0923,39.1992,1,37.8779,1    C36.8955,1,36.1074,1.5918,35.7373,2.438z" fill="#FFA8A6"/><g><path d="M35.7373,10.1318c-0.2324,0-0.4649-0.0805-0.6524-0.2426l-3.248-2.7989     c-0.7998-0.7016-1.3428-1.5825-1.5791-2.5542c-0.1817-0.7329-0.1162-1.2036-0.0918-1.3305C30.3281,1.4194,31.7851,0,33.542,0     c0.8164,0,1.5849,0.292,2.1855,0.7969C36.3144,0.2886,37.0664,0,37.8779,0c1.7471,0,3.1973,1.4028,3.3848,3.2686     C41.29,3.4551,41.3203,3.894,41.165,4.5352c-0.2412,0.977-0.7861,1.8569-1.5771,2.5493l-3.1914,2.7993     C36.208,10.0488,35.9726,10.1318,35.7373,10.1318L35.7373,10.1318z M33.542,2c-0.8272,0-1.3291,0.748-1.3975,1.4873     c-0.0078,0.0586-0.0264,0.2417,0.0557,0.5723c0.1396,0.5742,0.4677,1.0991,0.9492,1.5219l2.582,2.2251l2.5391-2.2265     c0.4814-0.4214,0.8105-0.9468,0.9521-1.52c0.0791-0.3272,0.0606-0.5108,0.0596-0.5127C39.207,2.7476,38.7051,2,37.8779,2     c-0.5371,0-0.9951,0.3135-1.2246,0.8389c-0.1592,0.3637-0.5186,0.5991-0.916,0.5991c0,0,0,0-0.001,0     c-0.3975,0-0.7568-0.2359-0.916-0.6001C34.5986,2.3291,34.0967,2,33.542,2L33.542,2z" fill="#43525B"/></g></g></g></svg>