<?xml version="1.0" ?><!DOCTYPE svg  PUBLIC '-//W3C//DTD SVG 1.1//EN'  'http://www.w3.org/Graphics/SVG/1.1/DTD/svg11.dtd'><svg enable-background="new 0 0 48.9936 54.7847" id="heart-leaves" version="1.1" viewBox="0 0 48.9936 54.7847" xml:space="preserve" xmlns="http://www.w3.org/2000/svg" xmlns:xlink="http://www.w3.org/1999/xlink"><g><g><path clip-rule="evenodd" d="M24.4979,23.2456c-2.3584-5.8891-11.294-7.7236-17.2031-5.0542    c-7.6036,3.4331-7.8799,12.5874-3.1915,18.1187c3.4131,4.0527,8.6582,7.0088,13.0967,10.1093    c3.1358,2.1914,6.0225,3.8604,7.2979,7.3653c1.249-3.5049,4.1621-5.1739,7.2705-7.3653    c4.4385-3.1005,9.7119-6.0566,13.125-10.1093c4.6875-5.5313,4.4111-14.6856-3.2197-18.1187    C35.7917,15.522,26.8572,17.3565,24.4979,23.2456z" fill="#FFFFFF" fill-rule="evenodd"/><g><path d="M24.4979,54.7847c-0.4199,0-0.7959-0.2627-0.9395-0.6582c-1.0302-2.8301-3.3017-4.3902-5.9316-6.1963     l-1-0.6909c-1.002-0.7002-2.0449-1.3926-3.0986-2.0923c-3.668-2.4341-7.46-4.9512-10.1895-8.1929     c-2.7725-3.2705-3.9385-7.7759-3.041-11.7558c0.8008-3.5503,3.1396-6.3624,6.5859-7.9185     c1.8633-0.8418,4.044-1.2871,6.3047-1.2871c4.918,0,9.1387,1.9692,11.3096,5.146c2.1709-3.1768,6.3877-5.146,11.2998-5.146     c2.2578,0,4.4326,0.4453,6.289,1.2881c3.4561,1.5547,5.8038,4.3686,6.6075,7.9218c0.9004,3.9771-0.2637,8.481-3.0381,11.754     c-2.7168,3.2265-6.5039,5.7348-10.166,8.1606c-1.0723,0.7095-2.1328,1.4121-3.1494,2.1221     c-0.3555,0.2509-0.7129,0.498-1.0655,0.7412c-2.5957,1.7929-4.8379,3.3418-5.8349,6.1396     c-0.1416,0.3975-0.5176,0.6631-0.9395,0.6646C24.4997,54.7847,24.4989,54.7847,24.4979,54.7847L24.4979,54.7847z      M13.1882,17.9927c-1.9785,0-3.875,0.3838-5.4814,1.1098c-3.667,1.6558-4.9922,4.4678-5.458,6.5357     c-0.7627,3.3799,0.2402,7.2212,2.6171,10.0254c2.5479,3.0244,6.2178,5.4609,9.7676,7.8169     c1.0674,0.709,2.124,1.4101,3.1387,2.1191l0.9873,0.6821c2.2129,1.5201,4.3291,2.9732,5.7334,5.2198     c1.3779-2.2188,3.4639-3.6597,5.6455-5.1665c0.3477-0.2398,0.6992-0.4829,1.0537-0.7329     c1.0332-0.7217,2.1074-1.4331,3.1934-2.1524c3.5439-2.3476,7.209-4.7754,9.7431-7.7837     c2.378-2.8061,3.3789-6.6455,2.6153-10.0219c-0.4688-2.0699-1.7989-4.8843-5.4805-6.5406     c-1.6016-0.727-3.4912-1.1108-5.4658-1.1108c-4.041,0-8.8145,1.7392-10.3711,5.625c-0.1524,0.3794-0.5195,0.6279-0.9287,0.6279     l0,0c-0.4092,0-0.7764-0.249-0.9287-0.6284C22.0134,19.7319,17.2341,17.9927,13.1882,17.9927L13.1882,17.9927z" fill="#43525B"/></g></g><g><path d="M24.4969,21.8613c-0.5527,0-1-0.4477-1-1V3.0493c0-0.5522,0.4473-1,1-1c0.5527,0,1,0.4478,1,1v17.812    C25.4969,21.4136,25.0495,21.8613,24.4969,21.8613L24.4969,21.8613z" fill="#43525B"/></g><g id="heart-leaves-leaves_1_"><path d="M35.4724,1.5991c2.8047-0.4384,5.0439-0.478,5.1377-0.4799c0.1631-0.0015,0.3183,0.0742,0.416,0.205    c0.0977,0.1299,0.1289,0.3003,0.0801,0.4561c-0.0283,0.0908-0.6924,2.2285-1.8975,4.8003    c-1.6338,3.4829-3.3994,5.9546-5.25,7.3423c-2.3848,1.7905-4.7705,1.6338-6.3525,1.1875    c-1.6905-0.4771-2.8184-1.3682-2.8653-1.4063c-0.0332-0.0264-0.0634-0.0581-0.0898-0.0928    c-0.0264-0.0346-0.0469-0.0717-0.0625-0.1113c-0.0234-0.0561-0.5645-1.3877-0.5498-3.1435    c0.0137-1.6441,0.5303-3.9781,2.916-5.7681C28.8034,3.2007,31.6687,2.1948,35.4724,1.5991z" fill="#C0DFCF"/><g><path d="M30.1921,16.2832c-0.7724,0-1.5576-0.1108-2.334-0.3301c-1.915-0.5405-3.1718-1.5498-3.2246-1.5927     c-0.0879-0.0699-0.1767-0.1612-0.2549-0.2632c-0.0879-0.1201-0.1504-0.2324-0.1963-0.3491     c-0.0195-0.0455-0.6367-1.5474-0.6201-3.5196c0.0166-1.8706,0.6055-4.5263,3.3174-6.5595     c1.9805-1.4873,4.9961-2.5562,8.9619-3.1773C38.5407,0.0693,40.7039,0.0078,41.1101,0h0.001c0.5048,0,0.956,0.2266,1.2402,0.6065     c0.2891,0.3847,0.3769,0.8916,0.2324,1.3525c-0.0742,0.2378-0.7539,2.3852-1.9463,4.9263     c-1.706,3.6367-3.5742,6.2334-5.5547,7.7177C33.5974,15.7178,31.9519,16.2832,30.1921,16.2832L30.1921,16.2832z M25.9919,12.8804     c0.2969,0.2124,1.1904,0.8042,2.4092,1.1479c1.9414,0.5469,3.8447,0.2041,5.4814-1.0249     c1.7159-1.2866,3.3789-3.6303,4.9444-6.9677c0.791-1.6875,1.3437-3.1836,1.6289-4.0103     c-0.8721,0.043-2.4697,0.1553-4.3057,0.4419c-3.6387,0.5703-6.3535,1.5127-8.0703,2.8013     c-2.0576,1.5434-2.5049,3.5586-2.5176,4.977C25.5515,11.5151,25.8729,12.544,25.9919,12.8804L25.9919,12.8804z" fill="#43525B"/></g><g><path d="M25.8493,14.5786c-0.292,0-0.581-0.1269-0.7783-0.3711c-0.3476-0.4292-0.2812-1.0591,0.1485-1.4062     l10.0673-8.1465c0.4288-0.3486,1.0596-0.2803,1.4063,0.1484c0.3476,0.4292,0.2812,1.0591-0.1484,1.4063L26.4773,14.356     C26.2927,14.5059,26.07,14.5786,25.8493,14.5786L25.8493,14.5786z" fill="#43525B"/></g></g><g id="heart-leaves-leaves"><path d="M14.0652,5.521c-2.5235-0.3945-4.5391-0.4292-4.6231-0.4311C9.2956,5.0879,9.157,5.1553,9.0691,5.273    C8.9812,5.3911,8.9519,5.5444,8.9949,5.6846c0.0254,0.0815,0.6231,2.0049,1.7081,4.3203    c1.4697,3.1343,3.0595,5.3579,4.7255,6.6074c2.1465,1.6118,4.293,1.4697,5.7178,1.0698c1.5205-0.4301,2.5361-1.2324,2.5772-1.2661    c0.0312-0.0244,0.0586-0.0527,0.082-0.0844c0.0234-0.0298,0.041-0.0635,0.0566-0.0992c0.0215-0.0503,0.5078-1.249,0.4942-2.8296    c-0.0117-1.4795-0.4766-3.5805-2.625-5.1914C20.0681,6.9629,17.489,6.0567,14.0652,5.521z" fill="#C0DFCF"/><g><path d="M19.5691,19.0645L19.5691,19.0645c-1.6065,0-3.1084-0.5157-4.4629-1.5328     c-1.794-1.3452-3.4864-3.6948-5.0303-6.9824C8.9323,8.1074,8.322,6.1069,8.3161,6.0879     C8.1814,5.6582,8.2663,5.1685,8.5476,4.7935c0.2724-0.3653,0.7099-0.584,1.168-0.584c0.4052,0.0083,2.3701,0.0669,4.7841,0.4443     c3.586,0.5601,6.3145,1.5283,8.1114,2.8779c2.4726,1.855,3.0097,4.2774,3.0244,5.982c0.0156,1.8545-0.5762,3.2329-0.5821,3.2461     c-0.0205,0.0581-0.0761,0.1606-0.1494,0.2651c-0.0996,0.1333-0.1875,0.2222-0.2851,0.2984l0,0c0,0-1.1543,0.9409-2.9219,1.4409     C20.988,18.9634,20.2722,19.0645,19.5691,19.0645L19.5691,19.0645z M10.4743,6.2398c0.2637,0.7563,0.7393,2.0234,1.4121,3.4609     c1.4034,2.9868,2.8907,5.084,4.42,6.231c1.0019,0.7519,2.0986,1.1328,3.2627,1.1328l0,0c0.5205,0,1.0537-0.0757,1.584-0.2251     c1.0625-0.3003,1.8388-0.8062,2.1113-1c0.1191-0.3428,0.3808-1.2198,0.3711-2.3081c-0.0157-1.8238-0.7647-3.3042-2.2256-4.4004     c-1.5313-1.1509-3.96-1.9922-7.2188-2.5015C12.6394,6.3872,11.2899,6.2837,10.4743,6.2398L10.4743,6.2398z" fill="#43525B"/></g><g><path d="M23.4773,17.5298c-0.2207,0-0.4424-0.0728-0.628-0.2227l-9.0615-7.331     c-0.4297-0.3472-0.4961-0.9771-0.1484-1.4063c0.3467-0.4287,0.9756-0.4965,1.4062-0.1484l9.0616,7.3311     c0.4296,0.3471,0.496,0.977,0.1484,1.4062C24.0583,17.4028,23.7693,17.5298,23.4773,17.5298L23.4773,17.5298z" fill="#43525B"/></g><g><g><path d="M21.8015,14.8804" fill="none"/></g><g><path d="M17.8309,15.231" fill="none"/></g></g></g><g><path d="M24.4969,30.9907c0-3.1757,2.5723-5.7485,5.75-5.7485c3.1738,0,5.75,2.5728,5.75,5.7485    c0,1.666-0.7197,3.1514-1.8486,4.2032l0.0166,0.0019l-9.668,9.667l-9.6699-9.667c0.0039-0.0019,0.0068-0.0019,0.0107-0.0068    c-1.1279-1.0508-1.8408-2.5323-1.8408-4.1983c0-3.1757,2.5723-5.7485,5.751-5.7485    C21.9226,25.2422,24.4969,27.815,24.4969,30.9907z" fill="#FFA8A6"/><g><path d="M24.4969,45.8628c-0.2559,0-0.5117-0.0977-0.707-0.293l-9.67-9.667     c-0.0322-0.0317-0.0615-0.0654-0.0888-0.101c-1.3135-1.2842-2.0342-2.9859-2.0342-4.8111c0-3.7212,3.0283-6.7485,6.751-6.7485     c2.4277,0,4.5595,1.2881,5.749,3.2168c1.1895-1.9287,3.3223-3.2168,5.75-3.2168c3.7217,0,6.75,3.0273,6.75,6.7485     c0,1.8203-0.7217,3.521-2.0352,4.8091c-0.0273,0.0361-0.0576,0.0703-0.0898,0.103l-9.668,9.667     C25.0085,45.7651,24.7527,45.8628,24.4969,45.8628L24.4969,45.8628z M15.6472,34.6025l8.8496,8.8462l8.8418-8.8408     c0.0371-0.0522,0.0801-0.1011,0.1279-0.1455c0.9864-0.9194,1.5303-2.1523,1.5303-3.4717c0-2.6181-2.1309-4.7485-4.75-4.7485     c-2.6191,0-4.75,2.1304-4.75,4.7485c0,0.5523-0.4473,1-1,1c-0.5527,0-1-0.4477-1-1c0-2.6181-2.1309-4.7485-4.749-4.7485     c-2.6201,0-4.751,2.1304-4.751,4.7485c0,1.3208,0.541,2.5518,1.5225,3.4668C15.5671,34.502,15.6101,34.5508,15.6472,34.6025     L15.6472,34.6025z" fill="#43525B"/></g></g></g></svg>