<?xml version="1.0" ?><svg id="Arrow-15" style="enable-background:new 0 0 32 19.707;" version="1.1" viewBox="0 0 32 19.707" xml:space="preserve" xmlns="http://www.w3.org/2000/svg" xmlns:xlink="http://www.w3.org/1999/xlink"><path d="M29,0H6v2h23c0.909,0,0.995,0.995,1,1.293v8c0,0.192-0.028,0.447-0.163,0.566c-0.176,0.156-0.549,0.164-0.692,0.151  C29.097,12.004,29.048,12,29,12H3.414l4.293-4.293L6.293,6.293l-6,6c-0.391,0.391-0.391,1.023,0,1.414l6,6l1.414-1.414L3.414,14  h25.529c0.073,0.007,0.181,0.015,0.314,0.015c0.471,0,1.254-0.095,1.884-0.639C31.533,13.037,32,12.401,32,11.293v-8  C32,1.97,31.201,0,29,0z"/></svg>