<?xml version="1.0" ?><svg id="Square-Arrow-13" style="enable-background:new 0 0 32 32;" version="1.1" viewBox="0 0 32 32" xml:space="preserve" xmlns="http://www.w3.org/2000/svg" xmlns:xlink="http://www.w3.org/1999/xlink"><g><path d="M30,0H2C0.897,0,0,0.897,0,2v28c0,1.103,0.897,2,2,2h28c1.103,0,2-0.897,2-2V2C32,0.897,31.103,0,30,0z M30,30L2,30.001V2   h28V30z"/><path d="M15.977,17.732l-1.363-1.464l-4.295,4C10.115,20.458,10,20.723,10,21s0.115,0.542,0.318,0.732l4.295,4l1.363-1.464   L13.541,22H24c0.553,0,1-0.448,1-1v-3h-2v2h-9.459L15.977,17.732z"/><path d="M10,12h8.587l-2.294,2.292l1.414,1.415l4.002-4c0.188-0.188,0.293-0.442,0.293-0.708s-0.105-0.52-0.293-0.708l-4.002-4   l-1.414,1.415L18.587,10H9c-0.552,0-1,0.448-1,1v3h2V12z"/></g></svg>