<?xml version="1.0" ?><svg style="enable-background:new 0 0 32 32;" version="1.1" viewBox="0 0 32 32" xml:space="preserve" xmlns="http://www.w3.org/2000/svg" xmlns:xlink="http://www.w3.org/1999/xlink"><style type="text/css">
	.st0{fill:#FF2A68;}
</style><g id="Layer_1"><g id="XMLID_65_"/></g><g id="Layer_2"><g id="XMLID_528_"><path class="st0" d="M17,7C11,7,6.5,11.5,6.5,17v1.2v2.3c0,1.7,1.3,3,3,3h0H10c1.4,0,2.7-1.1,2.7-2.5c0-1.5-1.2-2.5-2.7-2.5H9.5    v-1c0-3.9,3.3-7,7.5-7s7.5,3.2,7.5,7v1H24c-1.4,0-2.7,1.1-2.7,2.5c0,1.5,1.2,2.5,2.7,2.5h0.5h0c1.7,0,3-1.3,3-3v-2.3V17    C27.5,11.5,23,7,17,7z"/></g><g id="XMLID_22_"><path d="M16,30.5C8,30.5,1.5,24,1.5,16S8,1.5,16,1.5S30.5,8,30.5,16S24,30.5,16,30.5z M16,2.5    C8.6,2.5,2.5,8.6,2.5,16c0,7.4,6.1,13.5,13.5,13.5c7.4,0,13.5-6.1,13.5-13.5C29.5,8.6,23.4,2.5,16,2.5z" id="XMLID_6_"/></g><g id="XMLID_115_"><path d="M23.5,23H23c-0.9,0-1.7-0.3-2.3-0.9c-0.5-0.6-0.8-1.3-0.8-2.1c0-1.6,1.4-3,3.2-3v-0.5    c0-1.1-0.3-2.1-0.8-3.1c-0.1-0.2,0-0.5,0.2-0.7c0.2-0.1,0.5,0,0.7,0.2c0.6,1.1,0.9,2.3,0.9,3.6v1c0,0.3-0.2,0.5-0.5,0.5H23    c-1.2,0-2.2,0.9-2.2,2c0,0.5,0.2,1,0.5,1.4c0.4,0.4,1,0.6,1.6,0.6h0.5c1.4,0,2.5-1.1,2.5-2.5V16c0-5.3-4.4-9.5-10-9.5    c-2.2,0-4.2,0.6-5.9,1.8C9.9,8.4,9.6,8.4,9.4,8.2C9.2,7.9,9.3,7.6,9.5,7.5c1.9-1.3,4.1-2,6.5-2c6.2,0,11,4.6,11,10.5v3.5    C27,21.4,25.4,23,23.5,23z" id="XMLID_5_"/></g><g id="XMLID_1_"><path d="M9,23H8.5C6.6,23,5,21.4,5,19.5V16c0-2,0.6-4,1.7-5.7c0.2-0.2,0.5-0.3,0.7-0.1c0.2,0.2,0.3,0.5,0.1,0.7    C6.5,12.4,6,14.2,6,16v3.5C6,20.9,7.1,22,8.5,22H9c1.2,0,2.2-0.9,2.2-2c0-0.5-0.2-1-0.5-1.4C10.2,18.2,9.6,18,9,18H8.5    C8.2,18,8,17.8,8,17.5v-1c0-4.2,3.5-7.5,8-7.5c1.9,0,3.7,0.6,5.1,1.7c0.2,0.2,0.3,0.5,0.1,0.7s-0.5,0.3-0.7,0.1    c-1.3-1-2.8-1.5-4.5-1.5c-3.9,0-7,2.9-7,6.5V17c0.9,0,1.7,0.3,2.3,0.9c0.5,0.6,0.8,1.3,0.8,2.1C12.2,21.7,10.7,23,9,23z" id="XMLID_4_"/></g><g id="XMLID_120_"><path d="M7.7,10.1c-0.1,0-0.2,0-0.3-0.1C7.2,9.9,7.2,9.5,7.4,9.3c0,0,0.4-0.5,0.9-0.9c0.2-0.2,0.5-0.2,0.7,0.1    C9.1,8.7,9.1,9,8.9,9.2C8.5,9.5,8.1,9.9,8.1,9.9C8,10.1,7.9,10.1,7.7,10.1z" id="XMLID_3_"/></g></g></svg>