<?xml version="1.0" ?><svg height="60px" version="1.1" viewBox="0 0 60 60" width="60px" xmlns="http://www.w3.org/2000/svg" xmlns:xlink="http://www.w3.org/1999/xlink"><title/><desc/><defs/><g fill="none" fill-rule="evenodd" id="Page-1" stroke="none" stroke-width="1"><g id="003---Bauble" transform="translate(0.000000, 1.000000)"><g fill-rule="nonzero" id="Colour" transform="translate(1.000000, 1.000000)"><path d="M52.14084,13.73373 L55.60192,10.27265 C56.4154199,9.45437055 56.4154199,8.13273945 55.60192,7.31446 L49.68554,1.39808 C48.8672606,0.584580064 47.5456294,0.584580064 46.72735,1.39808 L43.26627,4.85916 L52.14084,13.73373 Z" fill="#FFE100" id="Shape"/><ellipse cx="30.23868" cy="28.76132" fill="#FFB600" id="Oval" rx="26.23868" ry="28.23868"/><ellipse cx="26.23868" cy="28.76132" fill="#FFFFFF" id="Oval" rx="26.23868" ry="28.23868"/><ellipse cx="28.23868" cy="28.76132" fill="#FFE100" id="Oval" rx="25.23868" ry="28.23868"/><path d="M36.17,20.83 L36.16,20.84" fill="#63D3FD" id="Shape"/><path d="M36.16,36.57 C35.92,36.45995 31.58,34.49 28.29,39.95995 C25.01,34.48995 20.67,36.45995 20.43,36.57 C20.54,36.32995 22.51,31.99 17.04,28.70995 C22.51,25.41995 20.54,21.07995 20.43,20.83995 C20.67,20.94995 25.01,22.91995 28.29,17.45995 C31.58,22.91995 35.92,20.95 36.16,20.83995 C36.05,21.07995 34.08,25.41995 39.54,28.70995 C34.08,31.99 36.05,36.33 36.16,36.57 Z" fill="#63D3FD" id="Shape"/><path d="M36.17,20.83 L36.16,20.84" fill="#63D3FD" id="Shape"/><path d="M20.43,36.57 L20.42,36.58" fill="#63D3FD" id="Shape"/><path d="M20.43,36.57 L20.42,36.58" fill="#63D3FD" id="Shape"/><path d="M20.43,20.84 L20.42,20.83" fill="#63D3FD" id="Shape"/><path d="M20.43,20.84 L20.42,20.83" fill="#63D3FD" id="Shape"/><path d="M36.17,36.58 L36.16,36.57" fill="#63D3FD" id="Shape"/><path d="M36.17,36.58 L36.16,36.57" fill="#63D3FD" id="Shape"/></g><g id="Outline"><path d="M53.14084,14.73373 L56.60192,11.27265 C57.4154199,10.4543706 57.4154199,9.13273945 56.60192,8.31446 L50.68554,2.39808 C49.8672606,1.58458006 48.5456294,1.58458006 47.72735,2.39808 L44.26627,5.85916" id="Shape" stroke="#000000" stroke-linecap="round" stroke-linejoin="round" stroke-width="2"/><circle cx="55.86237" cy="3.13763" id="Oval" r="3.13763" stroke="#000000" stroke-linecap="round" stroke-linejoin="round" stroke-width="2"/><path d="M43.43503,15.56497 L29.23868,29.76132" id="Shape" stroke="#000000" stroke-linecap="round" stroke-linejoin="round"/><path d="M40.6066,14.15076 L40.6066,18.3934" id="Shape" stroke="#000000" stroke-linecap="round" stroke-linejoin="round"/><path d="M44.84924,18.3934 L40.6066,18.3934" id="Shape" stroke="#000000" stroke-linecap="round" stroke-linejoin="round"/><path d="M15.15076,43.84924 L29.3471,29.6529" id="Shape" stroke="#000000" stroke-linecap="round" stroke-linejoin="round"/><path d="M13.73654,41.02082 L17.97918,41.02081" id="Shape" stroke="#000000" stroke-linecap="round" stroke-linejoin="round"/><path d="M17.97918,45.26346 L17.97919,41.02082" id="Shape" stroke="#000000" stroke-linecap="round" stroke-linejoin="round"/><path d="M29.29289,9.70711 L29.29289,29.78377" id="Shape" stroke="#000000" stroke-linecap="round" stroke-linejoin="round"/><path d="M26.29289,10.70711 L29.29289,13.70711" id="Shape" stroke="#000000" stroke-linecap="round" stroke-linejoin="round"/><path d="M32.29289,10.70711 L29.29289,13.70711" id="Shape" stroke="#000000" stroke-linecap="round" stroke-linejoin="round"/><path d="M29.29289,49.70711 L29.29289,29.63044" id="Shape" stroke="#000000" stroke-linecap="round" stroke-linejoin="round"/><path d="M26.29289,48.70711 L29.29289,45.70711" id="Shape" stroke="#000000" stroke-linecap="round" stroke-linejoin="round"/><path d="M32.29289,48.70711 L29.29289,45.70711" id="Shape" stroke="#000000" stroke-linecap="round" stroke-linejoin="round"/><path d="M15.15076,15.56497 L29.3471,29.76132" id="Shape" stroke="#000000" stroke-linecap="round" stroke-linejoin="round"/><path d="M13.73654,18.3934 L17.97918,18.3934" id="Shape" stroke="#000000" stroke-linecap="round" stroke-linejoin="round"/><path d="M17.97918,14.15076 L17.97919,18.3934" id="Shape" stroke="#000000" stroke-linecap="round" stroke-linejoin="round"/><path d="M43.43503,43.84924 L29.23868,29.6529" id="Shape" stroke="#000000" stroke-linecap="round" stroke-linejoin="round"/><path d="M40.6066,45.26346 L40.6066,41.02082" id="Shape" stroke="#000000" stroke-linecap="round" stroke-linejoin="round"/><path d="M44.84924,41.02082 L40.6066,41.02081" id="Shape" stroke="#000000" stroke-linecap="round" stroke-linejoin="round"/><path d="M9.29289,29.70711 L29.36956,29.70711" id="Shape" stroke="#000000" stroke-linecap="round" stroke-linejoin="round"/><path d="M10.29289,32.70711 L13.29289,29.70711" id="Shape" stroke="#000000" stroke-linecap="round" stroke-linejoin="round"/><path d="M10.29289,26.70711 L13.29289,29.70711" id="Shape" stroke="#000000" stroke-linecap="round" stroke-linejoin="round"/><path d="M49.29289,29.70711 L29.21623,29.70711" id="Shape" stroke="#000000" stroke-linecap="round" stroke-linejoin="round"/><path d="M48.29289,32.70711 L45.29289,29.70711" id="Shape" stroke="#000000" stroke-linecap="round" stroke-linejoin="round"/><path d="M48.29289,26.70711 L45.29289,29.70711" id="Shape" stroke="#000000" stroke-linecap="round" stroke-linejoin="round"/><path d="M37.17,21.83 L37.16,21.84" id="Shape" stroke="#000000" stroke-linecap="round" stroke-linejoin="round"/><path d="M37.16,37.57 C36.92,37.45995 32.58,35.49 29.29,40.95995 C26.01,35.48995 21.67,37.45995 21.43,37.57 C21.54,37.32995 23.51,32.99 18.04,29.70995 C23.51,26.41995 21.54,22.07995 21.43,21.83995 C21.67,21.94995 26.01,23.91995 29.29,18.45995 C32.58,23.91995 36.92,21.95 37.16,21.83995 C37.05,22.07995 35.08,26.41995 40.54,29.70995 C35.08,32.99 37.05,37.33 37.16,37.57 Z" id="Shape" stroke="#000000" stroke-linecap="round" stroke-linejoin="round"/><path d="M37.17,21.83 L37.16,21.84" id="Shape" stroke="#000000" stroke-linecap="round" stroke-linejoin="round"/><path d="M21.43,37.57 L21.42,37.58" id="Shape" stroke="#000000" stroke-linecap="round" stroke-linejoin="round"/><path d="M21.43,37.57 L21.42,37.58" id="Shape" stroke="#000000" stroke-linecap="round" stroke-linejoin="round"/><path d="M21.43,21.84 L21.42,21.83" id="Shape" stroke="#000000" stroke-linecap="round" stroke-linejoin="round"/><path d="M21.43,21.84 L21.42,21.83" id="Shape" stroke="#000000" stroke-linecap="round" stroke-linejoin="round"/><path d="M37.17,37.58 L37.16,37.57" id="Shape" stroke="#000000" stroke-linecap="round" stroke-linejoin="round"/><path d="M37.17,37.58 L37.16,37.57" id="Shape" stroke="#000000" stroke-linecap="round" stroke-linejoin="round"/><path d="M1.32,34 C3.54722027,48.6463256 16.7162781,59.0801606 31.4837981,57.8987554 C46.251318,56.7173502 57.5940806,44.3225636 57.4644569,29.5084298 C57.3348332,14.6942959 45.7769152,2.49989023 30.9909834,1.57707773 C16.2050516,0.654265241 3.22058817,11.3169436 1.25,26" id="Shape" stroke="#000000" stroke-linecap="round" stroke-linejoin="round" stroke-width="2"/><circle cx="1" cy="30" fill="#000000" fill-rule="nonzero" id="Oval" r="1"/></g></g></g></svg>