<?xml version="1.0" ?><svg style="enable-background:new 0 0 48 48.00004;" version="1.1" viewBox="0 0 48 48.00004" xml:space="preserve" xmlns="http://www.w3.org/2000/svg" xmlns:xlink="http://www.w3.org/1999/xlink"><g id="Padding__x26__Artboard"/><g id="Icons"><g><path d="M34.95239,10.17312H13.04761c-1.58496,0-2.87451,1.28955-2.87451,2.87451v21.90479    c0,1.58496,1.28955,2.87451,2.87451,2.87451h21.90479c1.58496,0,2.87451-1.28955,2.87451-2.87451V13.04763    C37.8269,11.46267,36.53735,10.17312,34.95239,10.17312z M12.90015,30.1653v-1.59326c0-0.19336,0.15674-0.3501,0.3501-0.3501    s0.3501,0.15674,0.3501,0.3501v1.59326c0,0.19336-0.15674,0.3501-0.3501,0.3501S12.90015,30.35866,12.90015,30.1653z     M13.25024,15.45974c0.19336,0,0.3501,0.15674,0.3501,0.3501v9.80469c0,0.19336-0.15674,0.3501-0.3501,0.3501    s-0.3501-0.15674-0.3501-0.3501v-9.80469C12.90015,15.61648,13.05688,15.45974,13.25024,15.45974z M30.86792,25.54372    c-1.09717,1.88965-2.6792,2.95508-4.70215,3.16602c-1.33057,0.14014-2.42334-0.18848-3.25244-0.97559    c-0.06836,0.26367-0.13281,0.52881-0.19775,0.79346c-0.34961,1.42969-0.71094,2.9082-1.64746,4.20605l-0.80371,1.34375    c-0.00684,0.01123-0.01416,0.02197-0.02246,0.03223c-0.13574,0.17773-0.33643,0.2749-0.54785,0.2749    c-0.07568,0-0.15332-0.0127-0.22949-0.03857c-0.2876-0.09814-0.47266-0.35791-0.47119-0.66162l0.0459-1.69873l-0.00195-0.14209    c-0.00293-0.12598-0.00488-0.25049,0.00537-0.37354c0.01514-0.17725,0.02539-0.35547,0.03564-0.53369    c0.02686-0.4502,0.0542-0.91553,0.1543-1.37109c0.29932-1.35645,0.61963-2.7085,0.93994-4.06006    c0.17188-0.7251,0.34375-1.44971,0.51221-2.17529c0.01514-0.06592,0.00977-0.13867-0.01514-0.21045    c-0.33643-0.96143-0.39746-1.85645-0.18701-2.7373c0.24463-1.03027,0.74756-1.71973,1.53711-2.10693    c0.64697-0.31689,1.33887-0.31055,1.89844,0.01807c0.54053,0.31738,0.87158,0.8916,0.9082,1.57568    c0.02441,0.46582-0.0376,0.99121-0.18945,1.60645c-0.12012,0.48633-0.26221,0.96729-0.40479,1.44775    c-0.13086,0.44336-0.26221,0.88672-0.37549,1.33496c-0.19043,0.75244,0.24854,1.52295,0.97852,1.71729    c0.63916,0.17139,1.24072,0.03076,1.84082-0.43018c0.44482-0.34082,0.81885-0.8252,1.11182-1.43945    c0.63721-1.33301,0.89062-2.78564,0.75391-4.31738c-0.12939-1.44775-0.85059-2.47021-2.14502-3.03906    c-0.43945-0.19287-0.95605-0.32764-1.53516-0.3999c-1.35889-0.17188-2.57959,0.07764-3.62793,0.73682    c-1.43018,0.89844-2.22461,2.24951-2.36182,4.0166c-0.04785,0.6123-0.04443,1.38574,0.41064,1.93848    c0.27051,0.32764,0.4292,0.67285,0.47168,1.02539c0.05664,0.47314-0.10645,0.90625-0.25,1.28857    c-0.09082,0.2417-0.23682,0.40527-0.43311,0.48633c-0.20996,0.08643-0.45361,0.06592-0.72559-0.05811    c-0.77539-0.35498-1.37646-0.93262-1.78564-1.71777c-0.59619-1.14404-0.79981-2.40771-0.60449-3.75586    c0.34033-2.34814,1.58789-4.18701,3.70801-5.46533c1.15625-0.69678,2.46875-1.08936,4.01367-1.2002    c2.03271-0.14648,3.74219,0.25439,5.23535,1.22363c1.87695,1.21777,2.93652,2.88574,3.1499,4.95801    C32.27417,21.88991,31.87231,23.81374,30.86792,25.54372z" style="fill:#303030;"/></g></g></svg>