<?xml version="1.0" ?><svg style="enable-background:new 0 0 48 48;" version="1.1" viewBox="0 0 48 48" xml:space="preserve" xmlns="http://www.w3.org/2000/svg" xmlns:xlink="http://www.w3.org/1999/xlink"><g id="Padding__x26__Artboard"/><g id="Icons"><g><circle cx="23.96815" cy="37.56822" r="0.64536" style="fill:none;"/><path d="M20.72009,11.17114h3.72314c0.19336,0,0.3501-0.15674,0.3501-0.3501s-0.15674-0.3501-0.3501-0.3501    h-3.72314c-0.19336,0-0.3501,0.15674-0.3501,0.3501S20.52673,11.17114,20.72009,11.17114z" style="fill:none;"/><path d="M20.70935,13.97437c-0.12988-0.14453-0.35059-0.15576-0.49414-0.02637l-2.87012,2.58203    c-0.14404,0.12939-0.15576,0.35059-0.02637,0.49414c0.06934,0.07715,0.16455,0.11621,0.26025,0.11621    c0.0835,0,0.16699-0.02979,0.23389-0.08984l2.87012-2.58203C20.82703,14.33911,20.83875,14.11792,20.70935,13.97437z" style="fill:none;"/><ellipse cx="26.851" cy="10.82112" rx="0.36533" ry="0.3287" style="fill:none;"/><path d="M21.23962,15.26538c-0.12988-0.14404-0.35059-0.15527-0.49414-0.02637l-1.78857,1.60938    c-0.14404,0.12939-0.15576,0.35059-0.02637,0.49414c0.06934,0.07715,0.16455,0.11621,0.26025,0.11621    c0.0835,0,0.16699-0.02979,0.23389-0.08984l1.78857-1.60938C21.3573,15.63013,21.36902,15.40894,21.23962,15.26538z" style="fill:none;"/><polygon points="32.94714,12.6828 32.94714,12.74121 33.01086,12.70813   " style="fill:none;"/><path d="M32.24695,12.40454h0.7002v-1.34131c0-1.35938-1.10645-2.46582-2.46582-2.46582H17.45496    c-1.35938,0-2.46582,1.10645-2.46582,2.46582v1.34131h0.7002H32.24695z M26.85101,10.49243    c0.20178,0,0.3653,0.14716,0.3653,0.32867c0,0.18158-0.16351,0.32874-0.3653,0.32874s-0.36536-0.14716-0.36536-0.32874    C26.48566,10.63959,26.64923,10.49243,26.85101,10.49243z M20.72009,10.47095h3.72314c0.19336,0,0.3501,0.15674,0.3501,0.3501    s-0.15674,0.3501-0.3501,0.3501h-3.72314c-0.19336,0-0.3501-0.15674-0.3501-0.3501S20.52673,10.47095,20.72009,10.47095z" style="fill:#303030;"/><path d="M15.68933,36.52466h-0.7002v0.41211c0,1.35938,1.10645,2.46582,2.46582,2.46582h13.02637    c1.35938,0,2.46582-1.10645,2.46582-2.46582v-0.41211h-0.7002H15.68933z M23.96814,38.21356    c-0.35638,0-0.64532-0.28894-0.64532-0.64532c0-0.35645,0.28894-0.64539,0.64532-0.64539    c0.35645,0,0.64539,0.28894,0.64539,0.64539C24.61353,37.92462,24.32458,38.21356,23.96814,38.21356z" style="fill:#303030;"/><path d="M15.68933,13.10474h-0.7002v22.71973h0.7002h16.55762h0.7002V13.10474h-0.7002H15.68933z     M17.57898,17.14038c-0.0957,0-0.19092-0.03906-0.26025-0.11621c-0.12939-0.14355-0.11768-0.36475,0.02637-0.49414    l2.87012-2.58203c0.14355-0.12939,0.36426-0.11816,0.49414,0.02637c0.12939,0.14355,0.11768,0.36475-0.02637,0.49414    l-2.87012,2.58203C17.74597,17.1106,17.66248,17.14038,17.57898,17.14038z M19.1908,17.45874    c-0.0957,0-0.19092-0.03906-0.26025-0.11621c-0.12939-0.14355-0.11768-0.36475,0.02637-0.49414l1.78857-1.60938    c0.14355-0.12891,0.36426-0.11768,0.49414,0.02637c0.12939,0.14355,0.11768,0.36475-0.02637,0.49414l-1.78857,1.60938    C19.35779,17.42896,19.27429,17.45874,19.1908,17.45874z M27.40216,25.17389c-0.51306,0.88397-1.25964,1.44293-2.29846,1.55139    c-0.68988,0.07202-1.29407-0.10059-1.73969-0.67682c-0.00928,0.00146-0.0108,0.00171-0.02014,0.00323    c-0.27881,0.96387-0.39441,1.97955-1.01019,2.83325l-0.42523,0.70905c-0.10443,0.13654-0.32251,0.06213-0.32172-0.10974    l0.02393-0.8761c0-0.08722-0.0061-0.17261,0.00104-0.2569c0.02734-0.32178,0.02588-0.65051,0.09491-0.96344    c0.23792-1.07928,0.50208-2.15271,0.75201-3.22937c0.01624-0.0697,0.01025-0.14252-0.01343-0.21014    c-0.15094-0.43121-0.198-0.86993-0.09167-1.31641c0.0993-0.41718,0.29718-0.77319,0.7002-0.97083    c0.57129-0.28015,1.15961,0.04266,1.19336,0.67255c0.01379,0.25793-0.03064,0.52661-0.09314,0.7793    c-0.11963,0.48413-0.28186,0.9577-0.40417,1.4411c-0.12189,0.48157,0.15631,0.98175,0.63629,1.1098    c0.41638,0.11108,0.78308-0.00275,1.11102-0.25427c0.27454-0.21051,0.48047-0.49945,0.62964-0.81158    c0.35309-0.73883,0.47968-1.52496,0.40759-2.33191c-0.07117-0.79663-0.47607-1.39813-1.21918-1.72467    c-0.2641-0.11603-0.55859-0.18524-0.84607-0.22125c-0.70734-0.0885-1.38678,0.02332-1.99908,0.40808    c-0.8161,0.51288-1.23456,1.2699-1.30853,2.22113c-0.03125,0.40149-0.00708,0.81732,0.25397,1.13397    c0.24176,0.29327,0.25708,0.56866,0.12799,0.8902c-0.0094,0.0235-0.01294,0.04926-0.01965,0.07385    c-0.06097,0.22192-0.1687,0.27289-0.3786,0.17682c-0.37451-0.17133-0.65131-0.44696-0.84003-0.80902    c-0.30151-0.57843-0.38696-1.20044-0.2948-1.83649c0.17285-1.19269,0.81049-2.08496,1.83594-2.70306    c0.61359-0.36987,1.28931-0.54559,1.99915-0.59644c0.92889-0.06647,1.81018,0.09167,2.60156,0.60516    c0.88446,0.57397,1.4422,1.38062,1.55066,2.43591C28.10077,23.32422,27.91431,24.29144,27.40216,25.17389z" style="fill:#303030;"/></g></g></svg>