<?xml version="1.0" ?><svg style="enable-background:new 0 0 48 48;" version="1.1" viewBox="0 0 48 48" xml:space="preserve" xmlns="http://www.w3.org/2000/svg" xmlns:xlink="http://www.w3.org/1999/xlink"><g id="Padding__x26__Artboard"/><g id="Icons"><g><circle cx="23.99846" cy="24.00049" r="3.99695" style="fill:#303030;"/><path d="M35.55059,22.31201l-4.99267-8.00781c-0.44971-0.72168-1.22607-1.15234-2.07617-1.15234h-8.96631    c-0.8501,0-1.62646,0.43066-2.07617,1.15234L12.45,22.30713c-0.47998,0.76953-0.49609,1.73535-0.0415,2.52148l5.09473,8.79883    c0.43506,0.75293,1.24658,1.2207,2.11719,1.2207h8.81006c0.87451,0,1.68799-0.4707,2.12305-1.22949l5.04346-8.79395    C36.0457,24.0415,36.02813,23.07861,35.55059,22.31201z M23.99834,28.69678c-2.58984,0-4.69678-2.10645-4.69678-4.69629    s2.10693-4.69629,4.69678-4.69629s4.69727,2.10645,4.69727,4.69629S26.58819,28.69678,23.99834,28.69678z M15.15899,22.354    l0.49219-0.79004c0.10107-0.16309,0.31787-0.21387,0.48193-0.11133c0.16406,0.10156,0.21436,0.31836,0.11182,0.48242    l-0.49219,0.79004c-0.06592,0.10645-0.18018,0.16406-0.29736,0.16406c-0.06299,0-0.12695-0.0166-0.18457-0.05273    C15.10674,22.73486,15.05645,22.51807,15.15899,22.354z M16.82647,20.70752c-0.06299,0-0.12695-0.0166-0.18457-0.05273    c-0.16406-0.10254-0.21436-0.31836-0.11182-0.48242l2.23828-3.58984c0.10254-0.16309,0.31836-0.21289,0.48193-0.11133    c0.16406,0.10254,0.21436,0.31836,0.11182,0.48242l-2.23828,3.58984C17.05742,20.6499,16.94366,20.70752,16.82647,20.70752z" style="fill:#303030;"/></g></g></svg>