<?xml version="1.0" ?><svg style="enable-background:new 0 0 48 48;" version="1.1" viewBox="0 0 48 48" xml:space="preserve" xmlns="http://www.w3.org/2000/svg" xmlns:xlink="http://www.w3.org/1999/xlink"><g id="Padding__x26__Artboard"/><g id="Icons"><g><path d="M35.03491,13.04028H12.97485c-0.95947,0-1.73975,0.78027-1.73975,1.73975v15.45996    c0,0.9541,0.77588,1.72949,1.72998,1.72949h6.61182l-0.74805,2.54199c-0.04297,0.14551,0.01318,0.30273,0.13916,0.3877    c0.05957,0.04102,0.12842,0.06055,0.19678,0.06055c0.07617,0,0.15234-0.02441,0.21533-0.07324l3.59424-2.80566    c0.09131-0.07129,0.20508-0.11133,0.31982-0.11133h11.74072c0.9541,0,1.72998-0.77539,1.72998-1.72949V14.77026    C36.76489,13.81616,35.98901,13.04028,35.03491,13.04028z M28.30298,22.77661h-3.95312v3.95264    c0,0.19336-0.15674,0.34961-0.3501,0.34961s-0.3501-0.15625-0.3501-0.34961v-3.95264h-3.95264    c-0.19336,0-0.3501-0.15674-0.3501-0.3501s0.15674-0.3501,0.3501-0.3501h3.95264v-3.95312c0-0.19336,0.15674-0.3501,0.3501-0.3501    s0.3501,0.15674,0.3501,0.3501v3.95312h3.95312c0.19336,0,0.3501,0.15674,0.3501,0.3501S28.49634,22.77661,28.30298,22.77661z     M13.61255,23.65015c0.19336,0,0.3501,0.15674,0.3501,0.3501v0.91406c0,0.19336-0.15674,0.3501-0.3501,0.3501    s-0.3501-0.15674-0.3501-0.3501v-0.91406C13.26245,23.80688,13.41919,23.65015,13.61255,23.65015z M13.26245,22.42651v-3.95996    c0-0.19336,0.15674-0.3501,0.3501-0.3501s0.3501,0.15674,0.3501,0.3501v3.95996c0,0.19336-0.15674,0.3501-0.3501,0.3501    S13.26245,22.61987,13.26245,22.42651z" style="fill:#303030;"/></g></g></svg>