<?xml version="1.0" ?><svg style="enable-background:new 0 0 48 48;" version="1.1" viewBox="0 0 48 48" xml:space="preserve" xmlns="http://www.w3.org/2000/svg" xmlns:xlink="http://www.w3.org/1999/xlink"><g id="Padding__x26__Artboard"/><g id="Icons"><g><path d="M23.99487,8.30493c-8.65137,0-15.68994,7.04297-15.68994,15.7002    c0,6.37061,3.80225,12.05957,9.68652,14.49316c0.01654,0.00677,0.03375,0.00568,0.05066,0.00983    c0.01813,0.00458,0.03412,0.01398,0.05334,0.01556c0.00635,0.00073,0.01178-0.00208,0.01807-0.00171    c0.01703,0.00055,0.0329-0.00281,0.04968-0.0047c0.03278-0.00299,0.06427-0.00708,0.09369-0.01892    c0.0025-0.00104,0.00452-0.00281,0.00702-0.00391c0.03845-0.0166,0.07306-0.03845,0.10278-0.06763    c0.00592-0.00568,0.0097-0.01331,0.01526-0.01941c0.02344-0.02667,0.04443-0.0545,0.0592-0.08771    c0.00189-0.00409,0.00555-0.00665,0.00732-0.01086c0.00653-0.01581,0.00537-0.03217,0.00946-0.04822    c0.00476-0.01892,0.01428-0.03571,0.01593-0.05579l0.01172-0.13721c0.08398-0.98926,0.16357-1.92285,0.37939-2.86523    c0.23047-1.0083,0.46777-2.01514,0.70605-3.02197l0.78271-3.29932c0.21289-0.89551,0.42529-1.79053,0.62988-2.67578    c0.05469-0.20654,0.0415-0.43408-0.03711-0.65332c-0.32666-0.9585-0.38867-1.83105-0.19092-2.66504    c0.22803-0.94482,0.65479-1.5415,1.34375-1.87793c0.49951-0.24561,1.02246-0.24854,1.43311-0.00684    c0.38867,0.22852,0.62646,0.65527,0.65283,1.17188c0.02393,0.44043-0.03516,0.93115-0.18994,1.58691    c-0.12891,0.51953-0.28223,1.03418-0.43555,1.54883c-0.15674,0.52539-0.31348,1.05078-0.44385,1.57812    c-0.32031,1.24707,0.41162,2.51904,1.62646,2.83447c0.95166,0.26221,1.84424,0.0625,2.72803-0.61133    c0.60156-0.46973,1.09326-1.10449,1.46045-1.88525c0.78174-1.63428,1.09229-3.40186,0.92285-5.25293    c-0.17529-1.89453-1.16357-3.29102-2.85791-4.03809c-0.55566-0.24365-1.20703-0.41406-1.93799-0.50684    c-1.70898-0.21045-3.24658,0.10547-4.56787,0.93994c-1.82617,1.13916-2.84033,2.85498-3.01416,5.10303    c-0.05713,0.83008-0.03662,1.88867,0.6377,2.70459c0.44043,0.54248,0.39551,1.03613,0.14795,1.81348    c-0.02246,0.06982-0.04736,0.14893-0.0791,0.19238c-0.00146-0.00049-0.06201,0.01904-0.24365-0.06592    c-0.72998-0.3291-1.27441-0.85303-1.6626-1.60107c-0.59668-1.15674-0.80029-2.42871-0.60498-3.77881    c0.35498-2.41797,1.6416-4.30908,3.8252-5.62109c1.20117-0.72607,2.57275-1.13525,4.19336-1.25049    c2.12305-0.14844,3.90137,0.26611,5.43555,1.26514c1.91064,1.23389,2.99121,2.92676,3.21191,5.03125    c0.21875,2.17139-0.20312,4.18652-1.25537,5.98926c-1.10693,1.91553-2.6958,2.99121-4.72363,3.19727    c-1.50781,0.16406-2.64307-0.27539-3.4668-1.33691c-0.10059-0.12842-0.32959-0.16064-0.47607-0.08643    c-0.08545,0.04395-0.14893,0.12061-0.17627,0.21289c-0.1582,0.53955-0.33887,1.27734-0.5415,2.10791    c-0.50488,2.0708-1.19727,4.90723-2.02832,6.40039c-0.00696,0.01245-0.0072,0.02625-0.01251,0.03912    c-0.00592,0.0144-0.01617,0.02594-0.0202,0.04144c-0.00238,0.00897,0.00006,0.0177-0.00159,0.02667    c-0.00446,0.02393-0.00482,0.04688-0.00421,0.07086c0.00049,0.02185,0.00098,0.04285,0.00543,0.0639    c0.0047,0.0224,0.013,0.04254,0.02197,0.0636c0.00873,0.02045,0.01721,0.03986,0.0296,0.05829    c0.01215,0.01813,0.02716,0.03326,0.04279,0.04901c0.01685,0.01715,0.03375,0.03271,0.05414,0.0462    c0.00745,0.00494,0.0119,0.01257,0.01984,0.01697c0.00977,0.00543,0.02057,0.0036,0.03058,0.008    c0.01715,0.00769,0.03125,0.01971,0.04999,0.02472c1.35352,0.35938,2.73633,0.5415,4.10986,0.5415    c8.65723,0,15.7002-7.03857,15.7002-15.68994C39.69507,15.3479,32.6521,8.30493,23.99487,8.30493z M15.46948,14.77808    c-0.09814,0-0.1958-0.0415-0.26514-0.12158c-0.12598-0.14648-0.10986-0.36768,0.03662-0.49365    c1.46484-1.26123,3.27637-2.22119,5.23926-2.77539c0.18896-0.04932,0.38037,0.05615,0.43213,0.2417    c0.05225,0.18604-0.05566,0.37939-0.2417,0.43213c-1.86523,0.52686-3.58496,1.43701-4.97266,2.63184    C15.63159,14.75024,15.55054,14.77808,15.46948,14.77808z M21.95581,11.76587c-0.021,0.00342-0.0415,0.00537-0.06201,0.00537    c-0.1665,0-0.31396-0.11914-0.34424-0.28857c-0.03369-0.19043,0.09326-0.37207,0.2832-0.40625    c0.55225-0.09814,1.10986-0.16211,1.65771-0.18945c0.18945-0.0127,0.35791,0.13916,0.36719,0.33203    c0.00977,0.19336-0.13916,0.35742-0.33203,0.36719C23.00708,11.61206,22.47876,11.67261,21.95581,11.76587z" style="fill:#303030;"/></g></g></svg>