<?xml version="1.0" ?><svg viewBox="0 0 48 48" xmlns="http://www.w3.org/2000/svg" xmlns:xlink="http://www.w3.org/1999/xlink"><defs><style>.cls-1{fill:url(#linear-gradient);}.cls-2{fill:url(#linear-gradient-2);}.cls-3{fill:url(#linear-gradient-3);}.cls-4{fill:#fff;stroke:#fff;stroke-miterlimit:10;stroke-width:0.5px;}</style><linearGradient gradientUnits="userSpaceOnUse" id="linear-gradient" x1="7.37" x2="40.47" y1="14.76" y2="14.76"><stop offset="0" stop-color="#4d4d4d"/><stop offset="0.18" stop-color="gray"/><stop offset="1" stop-color="#4d4d4d"/></linearGradient><linearGradient gradientUnits="userSpaceOnUse" id="linear-gradient-2" x1="23.85" x2="23.85" y1="17.01" y2="36.28"><stop offset="0" stop-color="#68efff"/><stop offset="1" stop-color="#18c7ee"/></linearGradient><linearGradient gradientUnits="userSpaceOnUse" id="linear-gradient-3" x1="23.85" x2="23.85" y1="19.11" y2="36.7"><stop offset="0" stop-color="#00e3ff"/><stop offset="1" stop-color="#00afd6"/></linearGradient></defs><title/><g id="icons"><g data-name="Layer 3" id="Layer_3"><path class="cls-1" d="M39.06,22.6,26.37,9.92a3.47,3.47,0,0,0-4.9,0L8.79,22.6,7.37,21.19,20.06,8.51a5.47,5.47,0,0,1,7.73,0L40.47,21.19Z"/><rect class="cls-2" height="23" rx="4.18" ry="4.18" width="40" x="3.85" y="18.09"/><rect class="cls-3" height="21" rx="3.82" ry="3.82" width="37.57" x="5.07" y="20.09"/><path class="cls-4" d="M14,32.83H16.7a1,1,0,0,1,.62.17.54.54,0,0,1,.21.45.61.61,0,0,1-.17.43.66.66,0,0,1-.51.18H13a.78.78,0,0,1-.6-.22.66.66,0,0,1-.22-.5,1.19,1.19,0,0,1,.14-.5,1.8,1.8,0,0,1,.3-.48c.46-.48.88-.89,1.25-1.23a8.59,8.59,0,0,1,.79-.67,4.46,4.46,0,0,0,.71-.6,2.44,2.44,0,0,0,.43-.63,1.45,1.45,0,0,0,.15-.62,1.12,1.12,0,0,0-.16-.6,1.1,1.1,0,0,0-.43-.4,1.25,1.25,0,0,0-1.66.45,1.87,1.87,0,0,0-.18.42,1.8,1.8,0,0,1-.27.54.56.56,0,0,1-.45.19A.57.57,0,0,1,12.4,29a.64.64,0,0,1-.17-.46,1.91,1.91,0,0,1,.16-.75,2.19,2.19,0,0,1,.48-.7,2.22,2.22,0,0,1,.81-.52,3.08,3.08,0,0,1,1.15-.19,3.25,3.25,0,0,1,1.35.25,2,2,0,0,1,.64.46,2.2,2.2,0,0,1,.43.67,2.09,2.09,0,0,1,.15.79,2.23,2.23,0,0,1-.32,1.17,3.61,3.61,0,0,1-.65.82c-.22.2-.59.51-1.11.94a7.45,7.45,0,0,0-1.07,1A2.37,2.37,0,0,0,14,32.83Z"/><path class="cls-4" d="M21.65,33.4v-1h-2.6a1.06,1.06,0,0,1-.74-.23.76.76,0,0,1-.25-.6.45.45,0,0,1,0-.2.9.9,0,0,1,.11-.22l.15-.21.19-.26,2.75-3.67a5.29,5.29,0,0,1,.44-.53.6.6,0,0,1,.42-.16c.52,0,.79.3.79.9v4h.22a1.6,1.6,0,0,1,.64.11.47.47,0,0,1,.24.48.48.48,0,0,1-.2.44,1,1,0,0,1-.59.14H23v1a.83.83,0,0,1-.18.59.65.65,0,0,1-.94,0A.85.85,0,0,1,21.65,33.4Zm-2.23-2.13h2.23v-3Z"/><path class="cls-4" d="M28,33.6l-1-1.51L26,33.6a3.47,3.47,0,0,1-.39.45.61.61,0,0,1-.4.14.67.67,0,0,1-.46-.17.49.49,0,0,1-.19-.39,1.28,1.28,0,0,1,.29-.63l1.28-1.84L25,29.63a1.16,1.16,0,0,1-.29-.66.51.51,0,0,1,.18-.38.67.67,0,0,1,.46-.16.64.64,0,0,1,.41.14,3.16,3.16,0,0,1,.38.44L27,30.27,27.91,29a2.63,2.63,0,0,1,.39-.44.59.59,0,0,1,.4-.14.69.69,0,0,1,.47.16.49.49,0,0,1,.18.38.67.67,0,0,1-.07.31,2.29,2.29,0,0,1-.23.35l-1.14,1.53L29.19,33a1.32,1.32,0,0,1,.3.64.51.51,0,0,1-.18.39.74.74,0,0,1-.47.16.64.64,0,0,1-.41-.14A2.4,2.4,0,0,1,28,33.6Z"/><path class="cls-4" d="M31.43,26.53h3.46a1.33,1.33,0,0,1,.72.15.62.62,0,0,1,.22.52,1.1,1.1,0,0,1-.26.57l-.6.79a9.31,9.31,0,0,0-.69,1.08,8.76,8.76,0,0,0-.65,1.57c-.08.27-.14.5-.18.68s-.07.41-.11.7-.08.51-.11.66a1.39,1.39,0,0,1-.31.73.69.69,0,0,1-.53.21.67.67,0,0,1-.51-.22,1,1,0,0,1-.19-.65,4.14,4.14,0,0,1,.14-.9,10,10,0,0,1,.46-1.37,12.12,12.12,0,0,1,.79-1.63,12,12,0,0,1,1.13-1.67H31.43a1.06,1.06,0,0,1-.65-.16.59.59,0,0,1-.22-.5.46.46,0,0,1,.23-.46A1.62,1.62,0,0,1,31.43,26.53Z"/></g></g></svg>