<?xml version="1.0" ?><svg viewBox="0 0 37.37 92.4" xmlns="http://www.w3.org/2000/svg"><defs><style>.cls-1,.cls-2,.cls-4{fill:none;stroke:#373535;stroke-miterlimit:10;}.cls-1,.cls-2{stroke-linecap:round;}.cls-2{stroke-dasharray:0 1.96;}.cls-3{fill:#373535;}</style></defs><title/><g data-name="Layer 2" id="Layer_2"><g data-name="Layer 1" id="Layer_1-2"><line class="cls-1" x1="35.07" x2="35.07" y1="63.17" y2="67.67"/><path class="cls-1" d="M2.3,48.21V24.36a2,2,0,0,1,2-2H33.07a2,2,0,0,1,2,2V60"/><line class="cls-1" x1="2.3" x2="2.3" y1="57.17" y2="53.33"/><polyline class="cls-1" points="35.07 73.02 35.07 87.46 2.3 87.46 2.3 61"/><path class="cls-1" d="M29.43,91.9h5.21a2.22,2.22,0,0,0,2.22-2.22h0a2.22,2.22,0,0,0-2.22-2.22H2.72A2.22,2.22,0,0,0,.5,89.68h0A2.22,2.22,0,0,0,2.72,91.9H18"/><line class="cls-1" x1="21.21" x2="24.35" y1="91.9" y2="91.9"/><rect class="cls-1" height="25.9" rx="3.68" ry="3.68" width="21.5" x="7.93" y="26.69"/><line class="cls-1" x1="11.01" x2="11.01" y1="31.32" y2="31.32"/><line class="cls-2" x1="12.97" x2="25.7" y1="31.32" y2="31.32"/><line class="cls-1" x1="26.68" x2="26.68" y1="31.32" y2="31.32"/><line class="cls-1" x1="11.01" x2="11.01" y1="34.59" y2="34.59"/><line class="cls-2" x1="12.97" x2="25.7" y1="34.59" y2="34.59"/><line class="cls-1" x1="26.68" x2="26.68" y1="34.59" y2="34.59"/><line class="cls-1" x1="11.01" x2="11.01" y1="37.86" y2="37.86"/><line class="cls-2" x1="12.97" x2="25.7" y1="37.86" y2="37.86"/><line class="cls-1" x1="26.68" x2="26.68" y1="37.86" y2="37.86"/><line class="cls-1" x1="11.01" x2="11.01" y1="41.13" y2="41.13"/><line class="cls-2" x1="12.97" x2="25.7" y1="41.13" y2="41.13"/><line class="cls-1" x1="26.68" x2="26.68" y1="41.13" y2="41.13"/><line class="cls-1" x1="11.01" x2="11.01" y1="44.39" y2="44.39"/><line class="cls-2" x1="12.97" x2="25.7" y1="44.39" y2="44.39"/><line class="cls-1" x1="26.68" x2="26.68" y1="44.39" y2="44.39"/><line class="cls-1" x1="11.01" x2="11.01" y1="47.66" y2="47.66"/><line class="cls-2" x1="12.97" x2="25.7" y1="47.66" y2="47.66"/><line class="cls-1" x1="26.68" x2="26.68" y1="47.66" y2="47.66"/><rect class="cls-1" height="4.39" rx="1.02" ry="1.02" width="4.39" x="7.93" y="57.8"/><rect class="cls-1" height="4.39" rx="1.02" ry="1.02" width="4.39" x="16.82" y="57.8"/><rect class="cls-1" height="4.39" rx="1.02" ry="1.02" width="4.39" x="25.04" y="57.8"/><rect class="cls-1" height="4.39" rx="1.02" ry="1.02" width="4.39" x="7.93" y="64.31"/><rect class="cls-1" height="4.39" rx="1.02" ry="1.02" width="4.39" x="16.82" y="64.31"/><rect class="cls-1" height="4.39" rx="1.02" ry="1.02" width="4.39" x="25.04" y="64.31"/><rect class="cls-1" height="4.39" rx="1.02" ry="1.02" width="4.39" x="7.93" y="70.82"/><rect class="cls-1" height="4.39" rx="1.02" ry="1.02" width="4.39" x="16.82" y="70.82"/><rect class="cls-1" height="4.39" rx="1.02" ry="1.02" width="4.39" x="25.04" y="70.82"/><rect class="cls-3" height="4.39" rx="1.02" ry="1.02" width="4.39" x="7.93" y="77.33"/><rect class="cls-1" height="4.39" rx="1.02" ry="1.02" width="4.39" x="16.82" y="77.33"/><rect class="cls-3" height="4.39" rx="1.02" ry="1.02" width="4.39" x="25.04" y="77.33"/><path class="cls-4" d="M32.18,16.17v6.19H28.35V2.42A1.92,1.92,0,0,1,30.26.5h0a1.92,1.92,0,0,1,1.92,1.92V16.17"/></g></g></svg>