<?xml version="1.0" ?><svg id="Layer_1" style="enable-background:new 0 0 100 100;" version="1.1" viewBox="0 0 100 100" xml:space="preserve" xmlns="http://www.w3.org/2000/svg" xmlns:xlink="http://www.w3.org/1999/xlink"><path d="M50,97c25.916,0,47-21.084,47-47S75.916,3,50,3S3,24.084,3,50S24.084,97,50,97z M50,7c23.71,0,43,19.29,43,43  S73.71,93,50,93S7,73.71,7,50S26.29,7,50,7z"/><path d="M37.828,74.855c0.433,0,0.868-0.14,1.234-0.427l43.646-34.26c0.868-0.682,1.02-1.939,0.338-2.808L74.06,25.91  c-0.327-0.417-0.808-0.688-1.334-0.751c-0.533-0.063-1.058,0.085-1.475,0.413L40.17,49.969l-9.724-11.515  c-0.36-0.426-0.881-0.682-1.438-0.708c-0.555-0.032-1.1,0.183-1.496,0.575L17.121,48.577c-0.743,0.733-0.797,1.916-0.123,2.714  l19.301,22.855C36.694,74.613,37.259,74.855,37.828,74.855z M28.784,42.686l9.574,11.338c0.697,0.823,1.916,0.948,2.764,0.283  l31.025-24.354l6.519,8.304L38.11,70.09L21.248,50.124L28.784,42.686z"/></svg>