<?xml version="1.0" ?><svg id="Layer_1" style="enable-background:new 0 0 100 100;" version="1.1" viewBox="0 0 100 100" xml:space="preserve" xmlns="http://www.w3.org/2000/svg" xmlns:xlink="http://www.w3.org/1999/xlink"><path d="M58.177,4.479H41.823c-2.057,0-3.73,1.673-3.73,3.73v39.81h-5.785c-1.349,0-2.557,0.697-3.231,1.865s-0.674,2.563,0,3.73  L46.769,84.26c0.675,1.167,1.882,1.865,3.231,1.865s2.556-0.697,3.231-1.865l17.692-30.645c0.674-1.168,0.674-2.563,0-3.73  s-1.882-1.865-3.231-1.865h-5.785V8.209C61.908,6.152,60.234,4.479,58.177,4.479z M67.226,52.02L50,81.856L32.774,52.02h7.318  c1.104,0,2-0.896,2-2V8.479h15.815V50.02c0,1.104,0.896,2,2,2H67.226z"/><path d="M21.5,52c1.104,0,2-0.896,2-2s-0.896-2-2-2H5.393c-1.104,0-2,0.896-2,2v45c0,1.104,0.896,2,2,2h89.214c1.104,0,2-0.896,2-2  V50c0-1.104-0.896-2-2-2H78.5c-1.104,0-2,0.896-2,2s0.896,2,2,2h14.107v41H7.393V52H21.5z"/></svg>