<?xml version="1.0" ?><svg id="Layer_1" style="enable-background:new 0 0 100 100;" version="1.1" viewBox="0 0 100 100" xml:space="preserve" xmlns="http://www.w3.org/2000/svg" xmlns:xlink="http://www.w3.org/1999/xlink"><path d="M20,56c0-12.725,8.072-24.103,20.087-28.312c0.818-0.287,1.358-1.067,1.338-1.933l-0.165-7.301  c-0.014-0.62-0.314-1.198-0.813-1.565c-0.499-0.367-1.14-0.482-1.735-0.313C21.218,21.569,9,37.781,9,56  c0,11.321,4.748,22.247,13.026,29.976c7.679,7.168,17.505,11.026,27.937,11.025c0.973,0,1.952-0.033,2.933-0.101  c20.586-1.415,36.941-18.031,38.043-38.65c1.035-19.347-11.229-36.504-29.825-41.723c-0.604-0.168-1.25-0.046-1.749,0.332  c-0.499,0.378-0.792,0.968-0.792,1.594V25.8c0,0.85,0.537,1.606,1.339,1.888C71.928,31.897,80,43.275,80,56  c0,16.542-13.458,30-30,30S20,72.542,20,56z M84,56c0-13.943-8.552-26.46-21.426-31.586v-3.225  c15.344,5.496,25.257,20.282,24.371,36.848C85.95,76.641,71.194,91.633,52.622,92.91c-10.398,0.715-20.291-2.786-27.865-9.858  C17.285,76.077,13,66.217,13,56c0-15.563,9.878-29.504,24.322-34.771l0.072,3.197C24.539,29.561,16,42.068,16,56  c0,18.748,15.252,34,34,34S84,74.748,84,56z"/><path d="M53.5,3h-7c-1.104,0-2,0.896-2,2v51c0,1.104,0.896,2,2,2h7c1.104,0,2-0.896,2-2V5C55.5,3.896,54.604,3,53.5,3z M51.5,54h-3  V7h3V54z"/></svg>