<?xml version="1.0" ?><svg id="Layer_1" style="enable-background:new 0 0 100 100;" version="1.1" viewBox="0 0 100 100" xml:space="preserve" xmlns="http://www.w3.org/2000/svg" xmlns:xlink="http://www.w3.org/1999/xlink"><path d="M96.414,36.12c-0.78-0.781-2.048-0.781-2.828,0L82.534,47.172L71.482,36.12c-0.78-0.781-2.048-0.781-2.828,0  c-0.781,0.781-0.781,2.047,0,2.828L79.706,50L68.654,61.052c-0.781,0.781-0.781,2.047,0,2.828c0.39,0.391,0.902,0.586,1.414,0.586  s1.024-0.195,1.414-0.586l11.052-11.052L93.586,63.88c0.39,0.391,0.902,0.586,1.414,0.586s1.024-0.195,1.414-0.586  c0.781-0.781,0.781-2.047,0-2.828L85.362,50l11.052-11.052C97.195,38.167,97.195,36.901,96.414,36.12z"/><path d="M11.803,58.803h4.932c0.003,0,0.006-0.001,0.009-0.001c0.004,0,0.007,0.001,0.011,0.001  c0.16-0.015,16.74-0.033,33.206,11.216c0.339,0.231,0.733,0.349,1.128,0.349c0.32,0,0.641-0.077,0.934-0.231  c0.656-0.346,1.066-1.027,1.066-1.769V31.632c0-0.742-0.411-1.422-1.066-1.769c-0.655-0.346-1.45-0.301-2.062,0.117  c-16.396,11.202-33.03,11.21-33.208,11.216c-0.003,0-0.006,0.001-0.01,0.001c-0.003,0-0.005-0.001-0.008-0.001h-4.932  C6.949,41.197,3,45.146,3,50S6.949,58.803,11.803,58.803z M49.089,64.701c-13.133-7.968-25.587-9.526-30.354-9.827v-9.747  c4.768-0.301,17.223-1.86,30.354-9.827V64.701z M11.803,45.197h2.932v9.605h-2.932C9.154,54.803,7,52.648,7,50  S9.154,45.197,11.803,45.197z"/></svg>