<?xml version="1.0" ?><svg id="Layer_1" style="enable-background:new 0 0 100 100;" version="1.1" viewBox="0 0 100 100" xml:space="preserve" xmlns="http://www.w3.org/2000/svg" xmlns:xlink="http://www.w3.org/1999/xlink"><path d="M86.258,34.712c-0.78-0.781-2.048-0.781-2.828,0l-4.066,4.066l-4.066-4.066c-0.78-0.781-2.048-0.781-2.828,0  c-0.781,0.781-0.781,2.047,0,2.828l4.066,4.066l-4.066,4.066c-0.781,0.781-0.781,2.047,0,2.828c0.39,0.391,0.902,0.586,1.414,0.586  s1.024-0.195,1.414-0.586l4.066-4.066L83.43,48.5c0.39,0.391,0.902,0.586,1.414,0.586s1.024-0.195,1.414-0.586  c0.781-0.781,0.781-2.047,0-2.828l-4.066-4.066l4.066-4.066C87.04,36.759,87.04,35.493,86.258,34.712z"/><path d="M9.058,24C5.717,24,3,26.713,3,30.048s2.717,6.048,6.058,6.048s6.058-2.713,6.058-6.048S12.398,24,9.058,24z M9.058,32.096  C7.923,32.096,7,31.177,7,30.048S7.923,28,9.058,28s2.058,0.919,2.058,2.048S10.192,32.096,9.058,32.096z"/><path d="M97,30.05c0-1.104-0.896-2-2-2h-4.416C87.535,25.522,83.625,24,79.364,24s-8.171,1.522-11.22,4.05H21.98  c-1.104,0-2,0.896-2,2s0.896,2,2,2h42.618c-1.789,2.755-2.84,6.033-2.84,9.556c0,2.257,0.442,4.409,1.22,6.395H21.98  c-1.104,0-2,0.896-2,2s0.896,2,2,2h43.206c3.207,4.363,8.36,7.212,14.178,7.212c9.708,0,17.606-7.898,17.606-17.606  c0-3.523-1.051-6.8-2.84-9.556H95C96.104,32.05,97,31.154,97,30.05z M79.364,55.212c-7.502,0-13.606-6.104-13.606-13.606  C65.758,34.104,71.862,28,79.364,28S92.97,34.104,92.97,41.605C92.97,49.108,86.867,55.212,79.364,55.212z"/><path d="M9.058,43.952C5.717,43.952,3,46.665,3,50s2.717,6.048,6.058,6.048s6.058-2.713,6.058-6.048S12.398,43.952,9.058,43.952z   M9.058,52.048C7.923,52.048,7,51.129,7,50s0.923-2.048,2.058-2.048s2.058,0.919,2.058,2.048S10.192,52.048,9.058,52.048z"/><path d="M9.058,63.904C5.717,63.904,3,66.617,3,69.952S5.717,76,9.058,76s6.058-2.713,6.058-6.048S12.398,63.904,9.058,63.904z   M9.058,72C7.923,72,7,71.081,7,69.952s0.923-2.048,2.058-2.048s2.058,0.919,2.058,2.048S10.192,72,9.058,72z"/><path d="M58.488,67.952H21.976c-1.104,0-2,0.896-2,2s0.896,2,2,2h36.512c1.104,0,2-0.896,2-2S59.593,67.952,58.488,67.952z"/></svg>