<?xml version="1.0" ?><svg id="Layer_1" style="enable-background:new 0 0 100 100;" version="1.1" viewBox="0 0 100 100" xml:space="preserve" xmlns="http://www.w3.org/2000/svg" xmlns:xlink="http://www.w3.org/1999/xlink"><path d="M70.627,81.928c3.063,0,5.554-2.492,5.554-5.554V64.996c0-14.394-11.71-26.104-26.104-26.104h-0.152  c-14.395,0-26.104,11.71-26.104,26.104v11.377c0,3.063,2.491,5.554,5.554,5.554H70.627z M27.819,76.374V64.996  c0-12.188,9.916-22.104,22.104-22.104h0.152c12.188,0,22.104,9.916,22.104,22.104v11.377c0,0.857-0.697,1.554-1.554,1.554H29.373  C28.517,77.928,27.819,77.23,27.819,76.374z"/><path d="M95.737,54.286C90.848,33.554,72.204,18.072,50,18.072S9.152,33.554,4.263,54.286c-0.023,0.079-0.043,0.159-0.056,0.242  C3.426,57.921,3,61.447,3,65.072c0,1.104,0.896,2,2,2h9.054c3.553,0,6.616-2.659,7.125-6.185C23.233,46.672,35.623,35.952,50,35.952  s26.767,10.72,28.821,24.936c0.509,3.526,3.572,6.185,7.125,6.185H95c1.104,0,2-0.896,2-2c0-3.626-0.426-7.152-1.207-10.544  C95.78,54.445,95.76,54.366,95.737,54.286z M14.054,63.072H7.046c0.098-2.121,0.35-4.201,0.746-6.232h10.133  c-0.293,1.136-0.534,2.294-0.704,3.476C16.989,61.913,15.657,63.072,14.054,63.072z M50,31.952  c-13.714,0-25.836,8.581-30.769,20.889H8.773C14.055,35.07,30.537,22.072,50,22.072S85.945,35.07,91.227,52.84H80.769  C75.836,40.532,63.714,31.952,50,31.952z M85.946,63.072c-1.578,0-2.939-1.185-3.166-2.757c-0.171-1.182-0.412-2.339-0.704-3.475  h10.132c0.395,2.031,0.648,4.111,0.746,6.232H85.946z"/><path d="M50,71.229c6.444,0,11.688-5.243,11.688-11.687S56.444,47.855,50,47.855s-11.688,5.243-11.688,11.687  S43.556,71.229,50,71.229z M50,51.855c4.239,0,7.688,3.448,7.688,7.687S54.239,67.229,50,67.229s-7.688-3.448-7.688-7.687  S45.761,51.855,50,51.855z"/></svg>