<?xml version="1.0" ?><svg id="Layer_1" style="enable-background:new 0 0 100 100;" version="1.1" viewBox="0 0 100 100" xml:space="preserve" xmlns="http://www.w3.org/2000/svg" xmlns:xlink="http://www.w3.org/1999/xlink"><path d="M59.48,2.989H40.52c-2.209,0-4.006,1.797-4.006,4.007v46.473h-7.025c-1.449,0-2.746,0.749-3.47,2.003  c-0.724,1.255-0.724,2.752,0,4.006L46.53,95.007c0.724,1.254,2.021,2.003,3.47,2.003s2.746-0.749,3.47-2.003l20.512-35.528  c0.725-1.254,0.725-2.752,0-4.007c-0.724-1.254-2.021-2.003-3.47-2.003h-7.025V6.996C63.487,4.787,61.689,2.989,59.48,2.989z   M70.518,57.479L49.994,93.007L29.476,57.47l0.012,0h9.025c1.104,0,2-0.896,2-2l0.006-48.48l18.967,0.007v48.473  c0,1.104,0.896,2,2,2L70.518,57.479z"/></svg>