<?xml version="1.0" ?><svg id="Layer_1" style="enable-background:new 0 0 100 100;" version="1.1" viewBox="0 0 100 100" xml:space="preserve" xmlns="http://www.w3.org/2000/svg" xmlns:xlink="http://www.w3.org/1999/xlink"><path d="M79.394,3c-0.001,0-0.002,0-0.003,0c0,0-0.001,0-0.001,0H26.5c-6.403,0-11.785,4.735-12.811,10.885  C8.25,14.236,3,16.179,3,20c0,3.777,5.129,5.72,10.5,6.103v7.793C8.129,34.28,3,36.223,3,40s5.129,5.72,10.5,6.103v7.793  C8.129,54.28,3,56.223,3,60s5.129,5.72,10.5,6.103v7.793C8.129,74.28,3,76.223,3,80c0,3.821,5.25,5.764,10.689,6.115  C14.715,92.265,20.097,97,26.5,97H84c7.168,0,13-5.832,13-13V20.61c0,0,0-0.001,0-0.001c0-0.001,0-0.002,0-0.003  C97,10.898,89.102,3,79.394,3z M93,20.606c0,7.502-6.104,13.606-13.606,13.606c-2.832,0-5.464-0.872-7.644-2.358  c-0.006-0.004-0.011-0.009-0.017-0.013c-3.585-2.453-5.945-6.572-5.945-11.235C65.788,13.104,71.892,7,79.394,7S93,13.104,93,20.606  z M70.62,39.89c0,3.778-2.198,6.97-4.8,6.97c-2.602,0-4.8-3.192-4.8-6.97c0-3.772,2.198-6.96,4.8-6.96  c0.459,0,0.902,0.111,1.326,0.297c0.603,0.586,1.252,1.122,1.934,1.617C70.054,36.17,70.62,37.99,70.62,39.89z M7.031,20  c0.45-0.688,3.339-2.179,8.469-2.179s8.019,1.491,8.469,2.179c-0.45,0.688-3.339,2.179-8.469,2.179S7.481,20.688,7.031,20z   M7.031,40c0.45-0.688,3.339-2.179,8.469-2.179s8.019,1.491,8.469,2.179c-0.45,0.688-3.339,2.179-8.469,2.179S7.481,40.688,7.031,40  z M7.031,60c0.45-0.688,3.339-2.179,8.469-2.179s8.019,1.491,8.469,2.179c-0.45,0.688-3.339,2.179-8.469,2.179  S7.481,60.688,7.031,60z M7.031,80c0.45-0.688,3.339-2.179,8.469-2.179s8.019,1.491,8.469,2.179  c-0.45,0.688-3.339,2.179-8.469,2.179S7.481,80.688,7.031,80z M93,84c0,4.962-4.038,9-9,9H26.5c-4.214,0-7.793-2.962-8.747-6.912  C23.031,85.662,28,83.717,28,80c0-3.777-5.129-5.72-10.5-6.103v-7.793C22.871,65.72,28,63.777,28,60s-5.129-5.72-10.5-6.103v-7.793  C22.871,45.72,28,43.777,28,40s-5.129-5.72-10.5-6.103v-7.793C22.871,25.72,28,23.777,28,20c0-3.717-4.969-5.662-10.247-6.088  C18.707,9.962,22.286,7,26.5,7h41.735c-3.933,3.232-6.447,8.13-6.447,13.606c0,3.105,0.815,6.021,2.232,8.556  c-3.992,1.038-7,5.452-7,10.728c0,6.049,3.948,10.97,8.8,10.97c4.853,0,8.8-4.921,8.8-10.97c0-0.822-0.079-1.627-0.219-2.41  c1.585,0.47,3.258,0.732,4.992,0.732c5.476,0,10.374-2.514,13.606-6.447V84z"/><path d="M75.328,13.712c-0.78-0.781-2.048-0.781-2.828,0c-0.781,0.781-0.781,2.047,0,2.828l4.066,4.066L72.5,24.672  c-0.781,0.781-0.781,2.047,0,2.828c0.39,0.391,0.902,0.586,1.414,0.586s1.024-0.195,1.414-0.586l4.066-4.066L83.46,27.5  c0.39,0.391,0.902,0.586,1.414,0.586s1.024-0.195,1.414-0.586c0.781-0.781,0.781-2.047,0-2.828l-4.066-4.066l4.066-4.066  c0.781-0.781,0.781-2.047,0-2.828c-0.78-0.781-2.048-0.781-2.828,0l-4.066,4.066L75.328,13.712z"/><path d="M44.955,54.079c4.851,0,8.798-4.919,8.798-10.966s-3.947-10.967-8.798-10.967s-8.798,4.92-8.798,10.967  S40.104,54.079,44.955,54.079z M44.955,36.146c2.601,0,4.798,3.19,4.798,6.967s-2.197,6.966-4.798,6.966s-4.798-3.19-4.798-6.966  S42.354,36.146,44.955,36.146z"/><path d="M76.269,48.483c-0.452-0.371-1.044-0.527-1.62-0.422c-0.576,0.103-1.078,0.452-1.374,0.956  c-1.759,2.995-4.546,4.783-7.456,4.783c-2.955,0-5.767-1.839-7.522-4.92c-0.289-0.507-0.786-0.863-1.359-0.974  c-0.574-0.112-1.166,0.035-1.624,0.398c-2.152,1.711-3.84,3.927-4.922,6.428c-1.576,1.453-3.476,2.285-5.438,2.285  c-2.956,0-5.769-1.837-7.526-4.916c-0.289-0.507-0.785-0.862-1.358-0.972c-0.571-0.111-1.166,0.035-1.623,0.398  c-4.013,3.188-6.314,7.951-6.314,13.069v4.476c0,1.104,0.896,2,2,2H59.5c1.104,0,2-0.896,2-2V67.85H80.37c1.104,0,2-0.896,2-2v-4.47  C82.37,56.365,80.146,51.665,76.269,48.483z M57.5,67.073H32.133v-2.476c0-3.16,1.155-6.143,3.223-8.451  c2.486,3.087,5.939,4.871,9.598,4.871c3.078,0,6.022-1.279,8.363-3.53c0.081-0.068,0.157-0.141,0.227-0.221  c0.302-0.303,0.596-0.618,0.875-0.954c1.977,2.286,3.079,5.209,3.079,8.285V67.073z M78.37,63.85H61.458  c-0.138-3.112-1.131-6.071-2.847-8.598c2.119,1.631,4.608,2.548,7.209,2.548c3.587,0,6.993-1.724,9.47-4.707  c1.978,2.285,3.081,5.208,3.081,8.287V63.85z"/></svg>