<?xml version="1.0" ?><svg id="Layer_1" style="enable-background:new 0 0 100 100;" version="1.1" viewBox="0 0 100 100" xml:space="preserve" xmlns="http://www.w3.org/2000/svg" xmlns:xlink="http://www.w3.org/1999/xlink"><path d="M95,35.448h-4V30.5c0-1.104-0.896-2-2-2H36.365l2.101-9.047c0.138-0.594-0.003-1.219-0.382-1.697S37.128,17,36.518,17  H22.635c-0.975,0-1.808,0.703-1.972,1.665L18.99,28.5H5c-1.104,0-2,0.896-2,2v39c0,1.104,0.896,2,2,2h24.578l0.822,9.669  c0.083,0.972,0.854,1.742,1.826,1.824C32.283,82.998,32.339,83,32.395,83c0.905,0,1.707-0.612,1.936-1.502l2.571-9.998H89  c1.104,0,2-0.896,2-2v-4.948h4c1.104,0,2-0.896,2-2V37.448C97,36.343,96.104,35.448,95,35.448z M34,21l-3.316,14.278  c-0.138,0.594,0.003,1.219,0.382,1.697s0.956,0.756,1.566,0.756h8.822L33.388,69.1l-1.941-22.826  c-0.088-1.035-0.954-1.831-1.993-1.831h-9.119l1.111-6.527c0.003-0.013,0.004-0.026,0.007-0.039l1.186-6.968  c0.001-0.005,0.002-0.011,0.003-0.016L24.324,21H34z M45.13,39.5H80v21H39.73L45.13,39.5z M16.438,47.733  c0.38,0.45,0.939,0.71,1.528,0.71h9.651L28.643,60.5H14v-21h3.118l-1.124,6.608C15.896,46.688,16.058,47.283,16.438,47.733z M7,67.5  v-35h11.31l-0.51,3H12c-1.104,0-2,0.896-2,2v25c0,1.104,0.896,2,2,2h16.983l0.255,3H7z M87,67.5H37.93l0.771-3H82  c1.104,0,2-0.896,2-2v-25c0-1.104-0.896-2-2-2H46.009c-0.042-0.357-0.168-0.703-0.394-0.995c-0.379-0.488-0.962-0.774-1.581-0.774  H35.15l0.286-1.23H87v4.948v25.104V67.5z M93,60.552h-2V39.448h2V60.552z"/></svg>