<?xml version="1.0" ?><svg id="Layer_1" style="enable-background:new 0 0 100 100;" version="1.1" viewBox="0 0 100 100" xml:space="preserve" xmlns="http://www.w3.org/2000/svg" xmlns:xlink="http://www.w3.org/1999/xlink"><path d="M73.982,40.521L53.47,4.994C52.746,3.739,51.449,2.989,50,2.989s-2.746,0.75-3.47,2.003L26.019,40.521  c-0.725,1.254-0.725,2.752-0.001,4.007c0.725,1.254,2.021,2.003,3.47,2.003h7.025v46.473c0,2.209,1.798,4.007,4.007,4.007H59.48  c2.209,0,4.007-1.797,4.007-4.007V46.531h7.025c1.448,0,2.745-0.749,3.47-2.003C74.706,43.272,74.706,41.775,73.982,40.521z   M61.487,42.531c-1.104,0-2,0.896-2,2l-0.007,48.48l-18.968-0.007V44.531c0-1.104-0.896-2-2-2l-9.03-0.01L50.005,6.993l20.52,35.538  L61.487,42.531z"/></svg>