<?xml version="1.0" ?><svg id="Layer_1" style="enable-background:new 0 0 100 100;" version="1.1" viewBox="0 0 100 100" xml:space="preserve" xmlns="http://www.w3.org/2000/svg" xmlns:xlink="http://www.w3.org/1999/xlink"><path d="M44.955,54.079c4.852,0,8.798-4.919,8.798-10.966s-3.946-10.967-8.798-10.967s-8.799,4.92-8.799,10.967  S40.104,54.079,44.955,54.079z M44.955,36.146c2.601,0,4.798,3.19,4.798,6.967s-2.197,6.966-4.798,6.966  c-2.602,0-4.799-3.19-4.799-6.966S42.354,36.146,44.955,36.146z"/><path d="M65.822,50.86c4.852,0,8.798-4.92,8.798-10.967s-3.946-10.967-8.798-10.967s-8.798,4.92-8.798,10.967  S60.971,50.86,65.822,50.86z M65.822,32.927c2.601,0,4.798,3.19,4.798,6.967s-2.197,6.967-4.798,6.967s-4.798-3.19-4.798-6.967  S63.222,32.927,65.822,32.927z"/><path d="M76.269,48.483c-0.453-0.371-1.048-0.525-1.619-0.422c-0.576,0.103-1.078,0.452-1.374,0.956  c-1.759,2.995-4.546,4.783-7.455,4.783c-2.955,0-5.768-1.839-7.523-4.92c-0.289-0.507-0.785-0.863-1.358-0.974  c-0.574-0.11-1.167,0.035-1.623,0.398c-2.152,1.71-3.84,3.926-4.922,6.427c-1.576,1.453-3.476,2.285-5.439,2.285  c-2.956,0-5.77-1.837-7.526-4.916c-0.29-0.507-0.786-0.862-1.359-0.972c-0.57-0.111-1.166,0.035-1.622,0.398  c-4.013,3.188-6.314,7.952-6.314,13.069v4.476c0,1.104,0.896,2,2,2h29.366c1.104,0,2-0.896,2-2V67.85H80.37c1.104,0,2-0.896,2-2  v-4.47C82.37,56.364,80.146,51.664,76.269,48.483z M57.499,67.073H32.133v-2.476c0-3.159,1.154-6.142,3.224-8.45  c2.485,3.086,5.939,4.871,9.599,4.871c3.085,0,6.033-1.284,8.378-3.543c0.073-0.063,0.143-0.129,0.207-0.202  c0.304-0.305,0.6-0.622,0.881-0.96c1.976,2.286,3.078,5.209,3.078,8.285V67.073z M78.37,63.85H61.458  c-0.138-3.112-1.131-6.071-2.846-8.598C60.73,56.883,63.22,57.8,65.82,57.8c3.587,0,6.992-1.723,9.469-4.708  c1.979,2.285,3.081,5.208,3.081,8.288V63.85z"/><path d="M84,3H26.5c-6.403,0-11.786,4.735-12.811,10.885C8.25,14.236,3,16.179,3,20c0,3.777,5.129,5.72,10.5,6.103v7.793  C8.129,34.28,3,36.223,3,40s5.129,5.72,10.5,6.103v7.793C8.129,54.28,3,56.223,3,60s5.129,5.72,10.5,6.103v7.793  C8.129,74.28,3,76.223,3,80c0,3.821,5.25,5.764,10.689,6.115C14.714,92.265,20.097,97,26.5,97H84c7.168,0,13-5.832,13-13V16  C97,8.832,91.168,3,84,3z M7.031,20c0.45-0.688,3.339-2.179,8.469-2.179s8.019,1.491,8.469,2.179  c-0.45,0.688-3.339,2.179-8.469,2.179S7.481,20.688,7.031,20z M7.031,40c0.45-0.688,3.339-2.179,8.469-2.179  s8.019,1.491,8.469,2.179c-0.45,0.688-3.339,2.179-8.469,2.179S7.481,40.688,7.031,40z M7.031,60  c0.45-0.688,3.339-2.179,8.469-2.179s8.019,1.491,8.469,2.179c-0.45,0.688-3.339,2.179-8.469,2.179S7.481,60.688,7.031,60z   M7.031,80c0.45-0.688,3.339-2.179,8.469-2.179s8.019,1.491,8.469,2.179c-0.45,0.688-3.339,2.179-8.469,2.179S7.481,80.688,7.031,80  z M93,84c0,4.962-4.037,9-9,9H26.5c-4.214,0-7.793-2.962-8.747-6.912C23.031,85.662,28,83.717,28,80c0-3.777-5.129-5.72-10.5-6.103  v-7.793C22.871,65.72,28,63.777,28,60s-5.129-5.72-10.5-6.103v-7.793C22.871,45.72,28,43.777,28,40s-5.129-5.72-10.5-6.103v-7.793  C22.871,25.72,28,23.777,28,20c0-3.717-4.969-5.662-10.247-6.088C18.707,9.962,22.286,7,26.5,7H84c4.963,0,9,4.038,9,9V84z"/></svg>