<?xml version="1.0" ?><!DOCTYPE svg  PUBLIC '-//W3C//DTD SVG 1.1//EN'  'http://www.w3.org/Graphics/SVG/1.1/DTD/svg11.dtd'><svg height="512px" style="shape-rendering:geometricPrecision; text-rendering:geometricPrecision; image-rendering:optimizeQuality; fill-rule:evenodd; clip-rule:evenodd" version="1.1" viewBox="0 0 512 512" width="512px" xml:space="preserve" xmlns="http://www.w3.org/2000/svg" xmlns:xlink="http://www.w3.org/1999/xlink"><defs><style type="text/css">
   <![CDATA[
    .fil1 {fill:#FEFEFE}
    .fil0 {fill:#35423A}
   ]]>
  </style></defs><g id="Layer_x0020_1"><g id="_307571672544"><path class="fil0" d="M31 212c13,-2 19,-5 19,-5 137,-117 211,-180 211,-180 104,75 156,113 156,113 8,-2 12,-3 12,-3 -113,-82 -169,-123 -169,-123 -149,128 -229,198 -229,198z"/><path class="fil0" d="M262 0c12,0 22,10 22,22 0,12 -10,22 -22,22 -12,0 -22,-10 -22,-22 0,-12 10,-22 22,-22zm0 11c6,0 11,5 11,11 0,6 -5,11 -11,11 -6,0 -11,-5 -11,-11 0,-6 5,-11 11,-11z"/><circle class="fil1" cx="262" cy="22" r="11"/><rect class="fil0" height="18.125" rx="1" ry="1" transform="matrix(15.6685 -3.17591 2.95516 16.839 15.738 210.761)" width="27.2503"/><circle class="fil1" cx="420" cy="154" r="11"/><circle class="fil1" cx="48" cy="231" r="11"/><circle class="fil1" cx="98" cy="480" r="11"/><circle class="fil1" cx="468" cy="404" r="11"/><path class="fil1" d="M230 300c65,-21 120,22 120,22l-45 14 -13 -27c-12,-3 -26,-3 -41,-1l31 71 132 -43c0,0 -48,-86 -191,-58 -1,0 -1,0 -2,1l-14 -32 -41 5 17 39c-87,40 -49,136 -49,136l133 -43 -37 -84zm-60 77c0,0 -13,-32 24,-59l20 46 -44 13z"/></g></g></svg>