<?xml version="1.0" ?><!DOCTYPE svg  PUBLIC '-//W3C//DTD SVG 1.1//EN'  'http://www.w3.org/Graphics/SVG/1.1/DTD/svg11.dtd'><svg height="512px" style="shape-rendering:geometricPrecision; text-rendering:geometricPrecision; image-rendering:optimizeQuality; fill-rule:evenodd; clip-rule:evenodd" version="1.1" viewBox="0 0 512 512" width="512px" xml:space="preserve" xmlns="http://www.w3.org/2000/svg" xmlns:xlink="http://www.w3.org/1999/xlink"><defs><style type="text/css">
   <![CDATA[
    .fil1 {fill:#FEFEFE}
    .fil0 {fill:#BE4171}
   ]]>
  </style></defs><g id="Layer_x0020_1"><g id="_307557606992"><path class="fil0" d="M31 212c13,-2 19,-5 19,-5 137,-117 211,-180 211,-180 104,75 156,113 156,113 8,-2 12,-3 12,-3 -113,-82 -169,-123 -169,-123 -149,128 -229,198 -229,198z"/><path class="fil0" d="M262 0c12,0 22,10 22,22 0,12 -10,22 -22,22 -12,0 -22,-10 -22,-22 0,-12 10,-22 22,-22zm0 11c6,0 11,5 11,11 0,6 -5,11 -11,11 -6,0 -11,-5 -11,-11 0,-6 5,-11 11,-11z"/><circle class="fil1" cx="262" cy="22" r="11"/><rect class="fil0" height="18.125" rx="1" ry="1" transform="matrix(15.6685 -3.17591 2.95516 16.839 15.738 210.761)" width="27.2503"/><circle class="fil1" cx="420" cy="154" r="11"/><circle class="fil1" cx="48" cy="231" r="11"/><circle class="fil1" cx="98" cy="480" r="11"/><circle class="fil1" cx="468" cy="404" r="11"/><path class="fil1" d="M266 424c-57,6 -108,-35 -114,-92 -6,-56 35,-107 92,-113 57,-6 108,35 114,91 6,57 -36,108 -92,114zm77 -98c-3,0 -28,-5 -55,2 15,31 22,56 24,61 18,-15 30,-38 31,-63zm-45 73c-2,-8 -10,-34 -26,-65 0,0 0,0 -1,0 -47,23 -61,59 -63,62 16,11 36,15 56,13 12,-1 24,-5 34,-10zm-102 -12c2,-3 21,-46 65,-65 1,-1 2,-1 3,-2 -2,-5 -5,-9 -8,-14 -43,18 -85,22 -89,22 0,1 0,2 0,3 2,22 13,42 29,56zm-29 -74c4,-1 40,-4 80,-20 -17,-24 -35,-44 -38,-47 -23,14 -39,39 -42,67zm58 -75c3,3 21,23 38,48 30,-15 42,-34 43,-36 -17,-13 -38,-19 -60,-16 -7,0 -14,2 -21,4zm92 21c-2,2 -14,23 -45,40 2,4 5,8 7,12 1,1 1,3 2,4 29,-7 59,-4 62,-4 -3,-20 -12,-39 -26,-52z"/></g></g></svg>