<?xml version="1.0" ?><!DOCTYPE svg  PUBLIC '-//W3C//DTD SVG 1.1//EN'  'http://www.w3.org/Graphics/SVG/1.1/DTD/svg11.dtd'><svg enable-background="new 0 0 48 48" height="48px" id="Layer_4" version="1.1" viewBox="0 0 48 48" width="48px" xml:space="preserve" xmlns="http://www.w3.org/2000/svg" xmlns:xlink="http://www.w3.org/1999/xlink"><g><path d="M18.777,23.575l10.638-10.639c0,0,2.166-2.229,5.16-0.063s0.7,5.16,0,5.925   c0.573,0.7,4.65,4.777,4.65,4.777s4.731-3.376,3.131-10.702c0-0.001,0-0.002-0.002-0.003c3.149-0.43,5.576-3.122,5.576-6.389   c0-3.565-2.889-6.455-6.454-6.455c-3.225,0-5.893,2.369-6.37,5.461l-0.004-0.001c0,0-5.433-2.615-11.866,4.011   c-6.434,6.625-9.048,9.398-9.048,9.398L18.777,23.575z" fill="#241F20"/><path d="M4.806,12.698l0,0.003c0,0-1.891,5.587,3.014,10.556s10.604,10.48,10.604,10.48l4.558-4.557l-10.62-11.103   c-0.598-0.625-0.854-1.457-0.885-1.562c-0.224-1.063-0.246-2.796,1.504-3.962c2.676-1.784,5.414,0.765,5.414,0.765l2.07-2.107   l0.032,0.005l1.115-1.173l0.002-0.002l1.367-1.438c0,0-3.266-4.489-10.105-3.264c-0.001,0-0.001,0.001-0.002,0.001   C12.334,2.321,9.7,0.026,6.525,0.026c-3.565,0-6.456,2.89-6.456,6.455C0.069,9.451,2.077,11.945,4.806,12.698z" fill="#241F20"/><path d="M42.479,35.148c0-0.001,0-0.002,0-0.003c1.597-3.974-2.043-9.214-2.043-9.214L29.033,14.529l-4.905,4.714   c0,0,7.42,7.326,10.447,10.416c3.025,3.089,0,5.956,0,5.956c-2.994,2.293-5.574-0.553-5.574-0.553l-4.873,4.757   c5.758,5.44,11.012,3.005,11.024,3c0.604,2.941,3.205,5.154,6.324,5.154c3.565,0,6.454-2.891,6.454-6.456   C47.931,38.294,45.566,35.63,42.479,35.148z" fill="#241F20"/><path d="M28.714,24.722c0,0-9.002,9.003-10.404,10.341s-3.907,2.229-5.691,0.53   c-2.973-3.143,0.297-6.072,0.297-6.072l-2.045-2.073l0.007-0.007l-1.018-1.019l-0.022-0.023L8.16,24.722   c0,0-4.842,3.992-3.355,10.575c0,0.002,0.001,0.003,0.001,0.005c-2.729,0.753-4.736,3.247-4.736,6.216   c0,3.565,2.891,6.456,6.456,6.456c3.044,0,5.588-2.11,6.27-4.946l0.004,0.001c0,0,5.34,1.866,9.757-2.636   c4.418-4.502,10.83-11,10.83-11L28.714,24.722z" fill="#241F20"/></g></svg>