<?xml version="1.0" ?><!DOCTYPE svg  PUBLIC '-//W3C//DTD SVG 1.1//EN'  'http://www.w3.org/Graphics/SVG/1.1/DTD/svg11.dtd'><svg enable-background="new 0 0 48 48" height="48px" id="Layer_4" version="1.1" viewBox="0 0 48 48" width="48px" xml:space="preserve" xmlns="http://www.w3.org/2000/svg" xmlns:xlink="http://www.w3.org/1999/xlink"><g><path d="M26.46,20.8h-2.142H15v4.852h9.71c-0.787,4.658-4.829,8.207-9.71,8.207c-5.446,0-9.859-4.412-9.859-9.86   c0-5.444,4.413-9.859,9.859-9.859c2.447,0,4.676,0.903,6.398,2.381l-0.001-0.016l3.616-3.581C22.36,10.517,18.864,9.03,15,9.03   C6.733,9.03,0.031,15.734,0.031,24c0,8.266,6.702,14.971,14.969,14.971S29.97,32.266,29.97,24c0-1.099-0.126-2.168-0.352-3.199   H26.46z" fill="#241F20"/><polygon fill="#241F20" points="47.969,20.664 42.996,20.664 42.996,15.688 39.658,15.688 39.658,20.664 34.685,20.664 34.685,24    39.658,24 39.658,28.973 42.996,28.973 42.996,24 47.969,24  "/></g></svg>