<?xml version="1.0" ?><!DOCTYPE svg  PUBLIC '-//W3C//DTD SVG 1.1//EN'  'http://www.w3.org/Graphics/SVG/1.1/DTD/svg11.dtd'><svg height="8.4666mm" style="shape-rendering:geometricPrecision; text-rendering:geometricPrecision; image-rendering:optimizeQuality; fill-rule:evenodd; clip-rule:evenodd" version="1.1" viewBox="0 0 847 847" width="8.4666mm" xml:space="preserve" xmlns="http://www.w3.org/2000/svg" xmlns:xlink="http://www.w3.org/1999/xlink"><defs><style type="text/css">
   <![CDATA[
    .fil0 {fill:black;fill-rule:nonzero;fill-opacity:0.501961}
   ]]>
  </style></defs><g id="Layer_x0020_1"><path class="fil0" d="M204 270l0 -4c0,-14 7,-26 17,-35 10,-8 23,-14 38,-14l18 0 0 -154c0,-9 8,-17 17,-17l259 0c9,0 16,8 16,17l0 154 19 0c14,0 28,6 37,14 11,9 18,21 18,35l0 4 86 0c20,0 39,8 52,22 13,13 22,31 22,52l0 257c0,10 -8,17 -17,17l-140 0c-9,0 -17,-7 -17,-17l0 -109 -412 0 0 109c0,10 -7,17 -17,17l-139 0c-9,0 -17,-7 -17,-17l0 -257c0,-21 8,-39 22,-52 13,-14 31,-22 52,-22l86 0zm34 -4l0 4 39 0 0 -19 -18 0c-7,0 -12,2 -16,6 -3,2 -5,6 -5,9zm350 -15l-19 0 0 19 40 0 0 -4c0,-3 -2,-7 -5,-9 -4,-4 -10,-6 -16,-6zm-277 -171l0 190 225 0 0 -190 -225 0zm-80 700l36 -259c1,-9 8,-15 16,-15l272 0c9,0 17,7 17,16l36 259c1,9 -6,18 -15,19l-2 0 -343 0c-9,0 -17,-7 -17,-16 0,-2 0,-3 0,-4zm67 -240l-31 227 305 0 -31 -227 -243 0zm471 44l0 -240c0,-11 -5,-21 -12,-28 -7,-8 -17,-12 -28,-12l-611 0c-11,0 -21,4 -28,12 -8,7 -12,17 -12,28l0 240 105 0 0 -108c0,-10 8,-17 17,-17l446 0c10,0 17,7 17,17l0 108 106 0z"/></g></svg>