<?xml version="1.0" ?><!DOCTYPE svg  PUBLIC '-//W3C//DTD SVG 1.1//EN'  'http://www.w3.org/Graphics/SVG/1.1/DTD/svg11.dtd'><svg height="8.4666mm" style="shape-rendering:geometricPrecision; text-rendering:geometricPrecision; image-rendering:optimizeQuality; fill-rule:evenodd; clip-rule:evenodd" version="1.1" viewBox="0 0 847 847" width="8.4666mm" xml:space="preserve" xmlns="http://www.w3.org/2000/svg" xmlns:xlink="http://www.w3.org/1999/xlink"><defs><style type="text/css">
   <![CDATA[
    .fil0 {fill:black;fill-rule:nonzero;fill-opacity:0.501961}
   ]]>
  </style></defs><g id="Layer_x0020_1"><path class="fil0" d="M207 345c0,9 -7,17 -17,17 -9,0 -17,-8 -17,-17l0 -245c0,-9 8,-17 17,-17l466 0c10,0 17,8 17,17l0 245c0,9 -7,17 -17,17 -9,0 -17,-8 -17,-17l0 -228 -432 0 0 228zm43 91c9,0 18,4 24,10 6,6 10,15 10,24 0,10 -4,18 -10,24 -6,6 -15,10 -24,10 -10,0 -18,-4 -24,-10 -7,-6 -10,-14 -10,-24 0,-9 3,-18 10,-24 6,-6 14,-10 24,-10zm0 34c-1,0 -1,1 0,0l0 0zm-90 -34c9,0 18,4 24,10 6,6 10,15 10,24 0,10 -4,18 -10,24 -6,6 -15,10 -24,10 -10,0 -18,-4 -24,-10l-2 -1c-5,-6 -8,-14 -8,-23 0,-9 3,-18 10,-24 6,-6 14,-10 24,-10zm0 34l-1 0c0,1 1,1 1,0zm62 98l400 0c21,0 40,9 54,22 14,14 23,33 23,54 0,21 -9,40 -23,54 -14,13 -33,22 -54,22l-400 0c-21,0 -40,-9 -54,-22 -14,-14 -23,-33 -23,-54 0,-21 9,-40 23,-54 14,-13 33,-22 54,-22zm400 34l-400 0c-12,0 -23,5 -30,12 -8,8 -13,18 -13,30 0,12 5,22 13,30 7,7 18,12 30,12l400 0c12,0 23,-5 30,-12 8,-8 13,-18 13,-30 0,-12 -5,-22 -13,-30 -7,-7 -18,-12 -30,-12zm-497 -236l597 0c23,0 44,10 59,26 16,15 25,36 25,60l0 226c0,24 -9,45 -25,60 -15,16 -36,25 -59,25l-597 0c-23,0 -45,-9 -60,-25 -15,-15 -24,-36 -24,-60l0 -226c0,-24 9,-45 24,-60 15,-16 37,-26 60,-26zm597 34l-597 0c-14,0 -27,6 -36,15 -9,10 -14,23 -14,37l0 226c0,14 5,27 14,37 9,9 22,15 36,15l597 0c14,0 26,-6 35,-15 9,-10 15,-23 15,-37l0 -226c0,-14 -6,-27 -15,-37 -9,-9 -21,-15 -35,-15z"/></g></svg>