<?xml version="1.0" ?><!DOCTYPE svg  PUBLIC '-//W3C//DTD SVG 1.1//EN'  'http://www.w3.org/Graphics/SVG/1.1/DTD/svg11.dtd'><svg height="8.4666mm" style="shape-rendering:geometricPrecision; text-rendering:geometricPrecision; image-rendering:optimizeQuality; fill-rule:evenodd; clip-rule:evenodd" version="1.1" viewBox="0 0 847 847" width="8.4666mm" xml:space="preserve" xmlns="http://www.w3.org/2000/svg" xmlns:xlink="http://www.w3.org/1999/xlink"><defs><style type="text/css">
   <![CDATA[
    .fil0 {fill:black;fill-rule:nonzero;fill-opacity:0.501961}
   ]]>
  </style></defs><g id="Layer_x0020_1"><path class="fil0" d="M276 412l0 -351c0,-10 8,-17 17,-17l363 0c9,0 17,7 17,17l0 351 29 0c21,0 39,8 53,22 14,13 22,32 22,52l0 203c0,20 -8,39 -22,52 -14,14 -32,22 -53,22l-458 0c-3,4 -7,9 -11,12 -17,17 -40,28 -66,28l-3 0c-26,0 -49,-11 -67,-28 -17,-17 -28,-40 -28,-66l0 -244c0,-25 11,-49 28,-66 18,-17 41,-27 67,-27l3 0c26,0 49,10 66,27 4,4 8,8 11,13l32 0zm34 -334l0 334 329 0 0 -334 -329 0zm-89 360l-1 -1c-3,-5 -6,-10 -10,-14 -11,-11 -27,-17 -43,-17l-3 0c-17,0 -32,6 -43,17 -11,11 -18,26 -18,42l0 244c0,17 7,32 18,42 11,11 26,18 43,18l3 0c16,0 32,-7 43,-18 11,-10 17,-25 17,-42l0 -244c0,-9 -2,-19 -6,-27zm481 8l-443 0c2,6 2,13 2,19l0 244c0,7 0,14 -2,20l443 0c11,0 22,-5 29,-12 8,-7 12,-17 12,-28l0 -203c0,-11 -4,-21 -12,-28 -7,-8 -18,-12 -29,-12z"/></g></svg>