<?xml version="1.0" ?><!DOCTYPE svg  PUBLIC '-//W3C//DTD SVG 1.1//EN'  'http://www.w3.org/Graphics/SVG/1.1/DTD/svg11.dtd'><svg height="8.4666mm" style="shape-rendering:geometricPrecision; text-rendering:geometricPrecision; image-rendering:optimizeQuality; fill-rule:evenodd; clip-rule:evenodd" version="1.1" viewBox="0 0 847 847" width="8.4666mm" xml:space="preserve" xmlns="http://www.w3.org/2000/svg" xmlns:xlink="http://www.w3.org/1999/xlink"><defs><style type="text/css">
   <![CDATA[
    .fil0 {fill:black;fill-rule:nonzero;fill-opacity:0.501961}
   ]]>
  </style></defs><g id="Layer_x0020_1"><path class="fil0" d="M190 663l-35 0c-31,0 -59,-12 -79,-33 -20,-21 -33,-49 -33,-80l0 -156c0,-32 13,-60 33,-80 20,-21 48,-34 79,-34l537 0c30,0 58,13 79,34 20,20 32,48 32,80l0 156c0,31 -12,59 -32,80 -21,21 -49,33 -79,33l-36 0 0 114c0,9 -7,17 -17,17l-432 0c-9,0 -17,-8 -17,-17l0 -114zm-35 -33l35 0 0 -128c0,-9 8,-17 17,-17l432 0c10,0 17,8 17,17l0 128 36 0c21,0 40,-9 54,-24 15,-14 23,-34 23,-56l0 -156c0,-22 -8,-42 -23,-57 -14,-14 -33,-23 -54,-23l-537 0c-21,0 -41,9 -55,23 -14,15 -23,35 -23,57l0 156c0,22 9,42 23,56 14,15 34,24 55,24zm468 130l0 -241 -399 0 0 241 399 0zm7 -496l-413 0c-9,0 -17,-8 -17,-17l0 -177c0,-10 7,-17 17,-17l304 0c6,0 11,3 14,7l108 125c2,3 4,7 4,11l0 51c0,9 -8,17 -17,17zm-396 -34l379 0 0 -28 -100 -115 -279 0 0 143z"/></g></svg>