<?xml version="1.0" ?><svg height="64px" id="SVGRoot" version="1.1" viewBox="0 0 64 64" width="64px" xmlns="http://www.w3.org/2000/svg" xmlns:cc="http://creativecommons.org/ns#" xmlns:dc="http://purl.org/dc/elements/1.1/" xmlns:inkscape="http://www.inkscape.org/namespaces/inkscape" xmlns:rdf="http://www.w3.org/1999/02/22-rdf-syntax-ns#" xmlns:sodipodi="http://sodipodi.sourceforge.net/DTD/sodipodi-0.dtd" xmlns:svg="http://www.w3.org/2000/svg"><title id="title7560"/><defs id="defs7542"/><g id="layer1"><path d="m 16.277344,44.083984 -0.554688,0.832032 c 0.513675,0.34245 1.269189,0.540115 2.298828,0.732422 1.02964,0.192306 2.315576,0.348697 3.779297,0.474609 C 24.728224,46.37487 28.363506,46.5 32,46.5 c 3.636494,0 7.271776,-0.12513 10.199219,-0.376953 1.463721,-0.125912 2.749657,-0.282303 3.779297,-0.474609 1.029639,-0.192307 1.785153,-0.389972 2.298828,-0.732422 l -0.554688,-0.832032 c -0.236325,0.15755 -0.949561,0.397384 -1.927734,0.580078 -0.978173,0.182695 -2.239112,0.338803 -3.681641,0.462891 C 39.228224,45.37513 35.613506,45.5 32,45.5 28.386494,45.5 24.771776,45.37513 21.886719,45.126953 20.44419,45.002865 19.183251,44.846757 18.205078,44.664062 17.226905,44.481368 16.513669,44.241534 16.277344,44.083984 Z" id="path1971" style="color:#000000;font-style:normal;font-variant:normal;font-weight:normal;font-stretch:normal;font-size:medium;line-height:normal;font-family:sans-serif;font-variant-ligatures:normal;font-variant-position:normal;font-variant-caps:normal;font-variant-numeric:normal;font-variant-alternates:normal;font-feature-settings:normal;text-indent:0;text-align:start;text-decoration:none;text-decoration-line:none;text-decoration-style:solid;text-decoration-color:#000000;letter-spacing:normal;word-spacing:normal;text-transform:none;writing-mode:lr-tb;direction:ltr;text-orientation:mixed;dominant-baseline:auto;baseline-shift:baseline;text-anchor:start;white-space:normal;shape-padding:0;clip-rule:nonzero;display:inline;overflow:visible;visibility:visible;opacity:1;isolation:auto;mix-blend-mode:normal;color-interpolation:sRGB;color-interpolation-filters:linearRGB;solid-color:#000000;solid-opacity:1;vector-effect:none;fill:#000000;fill-opacity:1;fill-rule:nonzero;stroke:none;stroke-width:0.99999994px;stroke-linecap:butt;stroke-linejoin:miter;stroke-miterlimit:4;stroke-dasharray:none;stroke-dashoffset:0;stroke-opacity:1;color-rendering:auto;image-rendering:auto;shape-rendering:auto;text-rendering:auto;enable-background:accumulate"/><path d="m 16.277344,32.083984 -0.554688,0.832032 c 0.513675,0.34245 1.269189,0.540115 2.298828,0.732422 1.02964,0.192306 2.315576,0.348697 3.779297,0.474609 C 24.728224,34.37487 28.363506,34.5 32,34.5 c 3.636494,0 7.271776,-0.12513 10.199219,-0.376953 1.463721,-0.125912 2.749657,-0.282303 3.779297,-0.474609 1.029639,-0.192307 1.785153,-0.389972 2.298828,-0.732422 l -0.554688,-0.832032 c -0.236325,0.15755 -0.949561,0.397384 -1.927734,0.580078 -0.978173,0.182695 -2.239112,0.338803 -3.681641,0.462891 C 39.228224,33.37513 35.613506,33.5 32,33.5 28.386494,33.5 24.771776,33.37513 21.886719,33.126953 20.44419,33.002865 19.183251,32.846757 18.205078,32.664062 17.226905,32.481368 16.513669,32.241534 16.277344,32.083984 Z" id="path1969" style="color:#000000;font-style:normal;font-variant:normal;font-weight:normal;font-stretch:normal;font-size:medium;line-height:normal;font-family:sans-serif;font-variant-ligatures:normal;font-variant-position:normal;font-variant-caps:normal;font-variant-numeric:normal;font-variant-alternates:normal;font-feature-settings:normal;text-indent:0;text-align:start;text-decoration:none;text-decoration-line:none;text-decoration-style:solid;text-decoration-color:#000000;letter-spacing:normal;word-spacing:normal;text-transform:none;writing-mode:lr-tb;direction:ltr;text-orientation:mixed;dominant-baseline:auto;baseline-shift:baseline;text-anchor:start;white-space:normal;shape-padding:0;clip-rule:nonzero;display:inline;overflow:visible;visibility:visible;opacity:1;isolation:auto;mix-blend-mode:normal;color-interpolation:sRGB;color-interpolation-filters:linearRGB;solid-color:#000000;solid-opacity:1;vector-effect:none;fill:#000000;fill-opacity:1;fill-rule:nonzero;stroke:none;stroke-width:0.99999994px;stroke-linecap:butt;stroke-linejoin:miter;stroke-miterlimit:4;stroke-dasharray:none;stroke-dashoffset:0;stroke-opacity:1;color-rendering:auto;image-rendering:auto;shape-rendering:auto;text-rendering:auto;enable-background:accumulate"/><path d="M 32,8 C 28.641255,8 25.601377,8.4492807 23.357422,9.1972656 22.235444,9.5712581 21.309597,10.017415 20.632812,10.550781 19.956028,11.084148 19.5,11.74505 19.5,12.5 c 0,0.75495 0.456028,1.415852 1.132812,1.949219 0.676785,0.533366 1.602632,0.979523 2.72461,1.353515 C 25.601377,16.550719 28.641255,17 32,17 c 3.358745,0 6.398623,-0.449281 8.642578,-1.197266 1.121978,-0.373992 2.047825,-0.820149 2.72461,-1.353515 C 44.043972,13.915852 44.5,13.25495 44.5,12.5 44.5,11.74505 44.043972,11.084148 43.367188,10.550781 42.690403,10.017415 41.764556,9.5712581 40.642578,9.1972656 38.398623,8.4492807 35.358745,8 32,8 Z m 0,1 c 3.268672,0 6.228934,0.4467542 8.328125,1.146484 1.049595,0.349865 1.882241,0.765713 2.419922,1.189454 C 43.285728,11.759678 43.5,12.15038 43.5,12.5 c 0,0.34962 -0.214272,0.740322 -0.751953,1.164062 -0.537681,0.423741 -1.370327,0.839589 -2.419922,1.189454 C 38.228934,15.553246 35.268672,16 32,16 28.731328,16 25.771066,15.553246 23.671875,14.853516 22.62228,14.503651 21.789634,14.087803 21.251953,13.664062 20.714272,13.240322 20.5,12.84962 20.5,12.5 c 0,-0.34962 0.214272,-0.740322 0.751953,-1.164062 0.537681,-0.423741 1.370327,-0.839589 2.419922,-1.189454 C 25.771066,9.4467542 28.731328,9 32,9 Z" id="path1915" style="color:#000000;font-style:normal;font-variant:normal;font-weight:normal;font-stretch:normal;font-size:medium;line-height:normal;font-family:sans-serif;font-variant-ligatures:normal;font-variant-position:normal;font-variant-caps:normal;font-variant-numeric:normal;font-variant-alternates:normal;font-feature-settings:normal;text-indent:0;text-align:start;text-decoration:none;text-decoration-line:none;text-decoration-style:solid;text-decoration-color:#000000;letter-spacing:normal;word-spacing:normal;text-transform:none;writing-mode:lr-tb;direction:ltr;text-orientation:mixed;dominant-baseline:auto;baseline-shift:baseline;text-anchor:start;white-space:normal;shape-padding:0;clip-rule:nonzero;display:inline;overflow:visible;visibility:visible;opacity:1;isolation:auto;mix-blend-mode:normal;color-interpolation:sRGB;color-interpolation-filters:linearRGB;solid-color:#000000;solid-opacity:1;vector-effect:none;fill:#000000;fill-opacity:1;fill-rule:nonzero;stroke:none;stroke-width:0.99999994;stroke-linecap:butt;stroke-linejoin:miter;stroke-miterlimit:4;stroke-dasharray:none;stroke-dashoffset:0;stroke-opacity:1;color-rendering:auto;image-rendering:auto;shape-rendering:auto;text-rendering:auto;enable-background:accumulate"/><path d="m 19.503906,20.5 c 7.88e-4,0.754128 0.452711,1.414364 1.128906,1.947266 0.676785,0.533366 1.600679,0.983429 2.722657,1.357422 2.243954,0.747984 5.285786,1.197265 8.644531,1.197265 3.358745,0 6.400578,-0.449281 8.644529,-1.197265 1.12198,-0.373992 2.047828,-0.824056 2.724613,-1.357422 0.676195,-0.532903 1.128117,-1.193138 1.128903,-1.947266 h -0.996091 c -7.56e-4,0.349157 -0.217171,0.741066 -0.753906,1.164062 -0.537683,0.423741 -1.370328,0.839589 -2.419922,1.189454 -2.099191,0.69973 -5.059455,1.144531 -8.328126,1.144531 -3.268672,0 -6.226981,-0.444801 -8.326172,-1.144531 C 22.624233,22.503651 21.789634,22.087803 21.251953,21.664062 20.715217,21.241067 20.500756,20.849157 20.5,20.5 Z" id="ellipse1917" style="color:#000000;font-style:normal;font-variant:normal;font-weight:normal;font-stretch:normal;font-size:medium;line-height:normal;font-family:sans-serif;font-variant-ligatures:normal;font-variant-position:normal;font-variant-caps:normal;font-variant-numeric:normal;font-variant-alternates:normal;font-feature-settings:normal;text-indent:0;text-align:start;text-decoration:none;text-decoration-line:none;text-decoration-style:solid;text-decoration-color:#000000;letter-spacing:normal;word-spacing:normal;text-transform:none;writing-mode:lr-tb;direction:ltr;text-orientation:mixed;dominant-baseline:auto;baseline-shift:baseline;text-anchor:start;white-space:normal;shape-padding:0;clip-rule:nonzero;display:inline;overflow:visible;visibility:visible;opacity:1;isolation:auto;mix-blend-mode:normal;color-interpolation:sRGB;color-interpolation-filters:linearRGB;solid-color:#000000;solid-opacity:1;vector-effect:none;fill:#000000;fill-opacity:1;fill-rule:nonzero;stroke:none;stroke-width:0.99999994;stroke-linecap:butt;stroke-linejoin:miter;stroke-miterlimit:4;stroke-dasharray:none;stroke-dashoffset:0;stroke-opacity:1;color-rendering:auto;image-rendering:auto;shape-rendering:auto;text-rendering:auto;enable-background:accumulate"/><path d="m 19.5,12.5 v 8 h 1 v -8 z" id="path1919" style="color:#000000;font-style:normal;font-variant:normal;font-weight:normal;font-stretch:normal;font-size:medium;line-height:normal;font-family:sans-serif;font-variant-ligatures:normal;font-variant-position:normal;font-variant-caps:normal;font-variant-numeric:normal;font-variant-alternates:normal;font-feature-settings:normal;text-indent:0;text-align:start;text-decoration:none;text-decoration-line:none;text-decoration-style:solid;text-decoration-color:#000000;letter-spacing:normal;word-spacing:normal;text-transform:none;writing-mode:lr-tb;direction:ltr;text-orientation:mixed;dominant-baseline:auto;baseline-shift:baseline;text-anchor:start;white-space:normal;shape-padding:0;clip-rule:nonzero;display:inline;overflow:visible;visibility:visible;opacity:1;isolation:auto;mix-blend-mode:normal;color-interpolation:sRGB;color-interpolation-filters:linearRGB;solid-color:#000000;solid-opacity:1;vector-effect:none;fill:#000000;fill-opacity:1;fill-rule:nonzero;stroke:none;stroke-width:0.99999994px;stroke-linecap:butt;stroke-linejoin:miter;stroke-miterlimit:4;stroke-dasharray:none;stroke-dashoffset:0;stroke-opacity:1;color-rendering:auto;image-rendering:auto;shape-rendering:auto;text-rendering:auto;enable-background:accumulate"/><path d="m 43.5,12.5 v 8 h 1 v -8 z" id="path1921" style="color:#000000;font-style:normal;font-variant:normal;font-weight:normal;font-stretch:normal;font-size:medium;line-height:normal;font-family:sans-serif;font-variant-ligatures:normal;font-variant-position:normal;font-variant-caps:normal;font-variant-numeric:normal;font-variant-alternates:normal;font-feature-settings:normal;text-indent:0;text-align:start;text-decoration:none;text-decoration-line:none;text-decoration-style:solid;text-decoration-color:#000000;letter-spacing:normal;word-spacing:normal;text-transform:none;writing-mode:lr-tb;direction:ltr;text-orientation:mixed;dominant-baseline:auto;baseline-shift:baseline;text-anchor:start;white-space:normal;shape-padding:0;clip-rule:nonzero;display:inline;overflow:visible;visibility:visible;opacity:1;isolation:auto;mix-blend-mode:normal;color-interpolation:sRGB;color-interpolation-filters:linearRGB;solid-color:#000000;solid-opacity:1;vector-effect:none;fill:#000000;fill-opacity:1;fill-rule:nonzero;stroke:none;stroke-width:0.99999994px;stroke-linecap:butt;stroke-linejoin:miter;stroke-miterlimit:4;stroke-dasharray:none;stroke-dashoffset:0;stroke-opacity:1;color-rendering:auto;image-rendering:auto;shape-rendering:auto;text-rendering:auto;enable-background:accumulate"/><path d="m 21.878906,22.015625 c -2.057067,0.514267 -3.644033,1.292471 -4.732422,2.380859 C 16.058096,25.484873 15.5,26.888889 15.5,28.5 v 24.166016 l 0.09961,0.134765 c 0.479,0.638667 1.289443,1.088831 2.337891,1.480469 1.048448,0.391638 2.34863,0.707409 3.822266,0.960938 C 24.707038,55.749245 28.352011,56 32,56 c 3.647989,0 7.292962,-0.250755 10.240234,-0.757812 1.473636,-0.253529 2.773818,-0.5693 3.822266,-0.960938 1.048448,-0.391638 1.858891,-0.841802 2.337891,-1.480469 L 48.5,52.666016 V 28.5 c 0,-1.611111 -0.558096,-3.015127 -1.646484,-4.103516 -1.088389,-1.088388 -2.675356,-1.866592 -4.732422,-2.380859 l -0.242188,0.96875 c 1.942933,0.485733 3.355967,1.207529 4.267578,2.119141 C 47.058096,26.015127 47.5,27.111112 47.5,28.5 v 23.759766 c -0.295156,0.348228 -0.880336,0.744537 -1.789062,1.083984 -0.959365,0.358362 -2.206058,0.667591 -3.638672,0.914062 C 39.207038,54.750755 35.602011,55 32,55 28.397989,55 24.792962,54.750755 21.927734,54.257812 20.49512,54.011341 19.248427,53.702112 18.289062,53.34375 17.380336,53.004303 16.795156,52.607994 16.5,52.259766 V 28.5 c 0,-1.388888 0.441904,-2.484873 1.353516,-3.396484 0.911611,-0.911612 2.324645,-1.633408 4.267578,-2.119141 z" id="path1928" style="color:#000000;font-style:normal;font-variant:normal;font-weight:normal;font-stretch:normal;font-size:medium;line-height:normal;font-family:sans-serif;font-variant-ligatures:normal;font-variant-position:normal;font-variant-caps:normal;font-variant-numeric:normal;font-variant-alternates:normal;font-feature-settings:normal;text-indent:0;text-align:start;text-decoration:none;text-decoration-line:none;text-decoration-style:solid;text-decoration-color:#000000;letter-spacing:normal;word-spacing:normal;text-transform:none;writing-mode:lr-tb;direction:ltr;text-orientation:mixed;dominant-baseline:auto;baseline-shift:baseline;text-anchor:start;white-space:normal;shape-padding:0;clip-rule:nonzero;display:inline;overflow:visible;visibility:visible;opacity:1;isolation:auto;mix-blend-mode:normal;color-interpolation:sRGB;color-interpolation-filters:linearRGB;solid-color:#000000;solid-opacity:1;vector-effect:none;fill:#000000;fill-opacity:1;fill-rule:nonzero;stroke:none;stroke-width:0.99999994px;stroke-linecap:butt;stroke-linejoin:miter;stroke-miterlimit:4;stroke-dasharray:none;stroke-dashoffset:0;stroke-opacity:1;color-rendering:auto;image-rendering:auto;shape-rendering:auto;text-rendering:auto;enable-background:accumulate"/><path d="m 16.277344,30.083984 -0.554688,0.832032 c 0.513675,0.34245 1.269189,0.540115 2.298828,0.732422 1.029639,0.192306 2.315576,0.348697 3.779297,0.474609 C 24.728224,32.37487 28.363506,32.5 32,32.5 c 3.636494,0 7.271776,-0.12513 10.199219,-0.376953 1.463721,-0.125912 2.749658,-0.282303 3.779297,-0.474609 1.029639,-0.192307 1.785153,-0.389972 2.298828,-0.732422 l -0.554688,-0.832032 c -0.236325,0.15755 -0.949561,0.397385 -1.927734,0.580078 -0.978174,0.182694 -2.239112,0.338803 -3.681641,0.462891 C 39.228224,31.37513 35.613506,31.5 32,31.5 28.386494,31.5 24.771776,31.37513 21.886719,31.126953 20.44419,31.002865 19.183252,30.846756 18.205078,30.664062 17.226905,30.481369 16.513669,30.241534 16.277344,30.083984 Z" id="path1930" style="color:#000000;font-style:normal;font-variant:normal;font-weight:normal;font-stretch:normal;font-size:medium;line-height:normal;font-family:sans-serif;font-variant-ligatures:normal;font-variant-position:normal;font-variant-caps:normal;font-variant-numeric:normal;font-variant-alternates:normal;font-feature-settings:normal;text-indent:0;text-align:start;text-decoration:none;text-decoration-line:none;text-decoration-style:solid;text-decoration-color:#000000;letter-spacing:normal;word-spacing:normal;text-transform:none;writing-mode:lr-tb;direction:ltr;text-orientation:mixed;dominant-baseline:auto;baseline-shift:baseline;text-anchor:start;white-space:normal;shape-padding:0;clip-rule:nonzero;display:inline;overflow:visible;visibility:visible;opacity:1;isolation:auto;mix-blend-mode:normal;color-interpolation:sRGB;color-interpolation-filters:linearRGB;solid-color:#000000;solid-opacity:1;vector-effect:none;fill:#000000;fill-opacity:1;fill-rule:nonzero;stroke:none;stroke-width:0.99999994px;stroke-linecap:butt;stroke-linejoin:miter;stroke-miterlimit:4;stroke-dasharray:none;stroke-dashoffset:0;stroke-opacity:1;color-rendering:auto;image-rendering:auto;shape-rendering:auto;text-rendering:auto;enable-background:accumulate"/><path d="m 16.277344,46.083984 -0.554688,0.832032 c 0.513675,0.34245 1.269189,0.540115 2.298828,0.732422 1.029639,0.192306 2.315576,0.348697 3.779297,0.474609 C 24.728224,48.37487 28.363506,48.5 32,48.5 c 3.636494,0 7.271776,-0.12513 10.199219,-0.376953 1.463721,-0.125912 2.749658,-0.282303 3.779297,-0.474609 1.029639,-0.192307 1.785153,-0.389972 2.298828,-0.732422 l -0.554688,-0.832032 c -0.236325,0.15755 -0.949561,0.397385 -1.927734,0.580078 -0.978174,0.182694 -2.239112,0.338803 -3.681641,0.462891 C 39.228224,47.37513 35.613506,47.5 32,47.5 28.386494,47.5 24.771776,47.37513 21.886719,47.126953 20.44419,47.002865 19.183252,46.846756 18.205078,46.664062 17.226905,46.481369 16.513669,46.241534 16.277344,46.083984 Z" id="path1934" style="color:#000000;font-style:normal;font-variant:normal;font-weight:normal;font-stretch:normal;font-size:medium;line-height:normal;font-family:sans-serif;font-variant-ligatures:normal;font-variant-position:normal;font-variant-caps:normal;font-variant-numeric:normal;font-variant-alternates:normal;font-feature-settings:normal;text-indent:0;text-align:start;text-decoration:none;text-decoration-line:none;text-decoration-style:solid;text-decoration-color:#000000;letter-spacing:normal;word-spacing:normal;text-transform:none;writing-mode:lr-tb;direction:ltr;text-orientation:mixed;dominant-baseline:auto;baseline-shift:baseline;text-anchor:start;white-space:normal;shape-padding:0;clip-rule:nonzero;display:inline;overflow:visible;visibility:visible;opacity:1;isolation:auto;mix-blend-mode:normal;color-interpolation:sRGB;color-interpolation-filters:linearRGB;solid-color:#000000;solid-opacity:1;vector-effect:none;fill:#000000;fill-opacity:1;fill-rule:nonzero;stroke:none;stroke-width:0.99999994px;stroke-linecap:butt;stroke-linejoin:miter;stroke-miterlimit:4;stroke-dasharray:none;stroke-dashoffset:0;stroke-opacity:1;color-rendering:auto;image-rendering:auto;shape-rendering:auto;text-rendering:auto;enable-background:accumulate"/><path d="m 32,10.25 c -1.966774,0 -3.745507,0.196142 -5.070312,0.527344 -0.662403,0.1656 -1.211858,0.361361 -1.634766,0.611328 C 24.872014,11.638639 24.5,11.988155 24.5,12.5 c 0,0.511845 0.372014,0.861361 0.794922,1.111328 0.422908,0.249967 0.972363,0.445728 1.634766,0.611328 C 28.254493,14.553858 30.033226,14.75 32,14.75 c 1.966774,0 3.745507,-0.196142 5.070312,-0.527344 0.662403,-0.1656 1.211858,-0.361361 1.634766,-0.611328 C 39.127986,13.361361 39.5,13.011845 39.5,12.5 39.5,11.988155 39.127986,11.638639 38.705078,11.388672 38.28217,11.138705 37.732715,10.942944 37.070312,10.777344 35.745507,10.446142 33.966774,10.25 32,10.25 Z m 0,1 c 1.899219,0 3.619429,0.195873 4.828125,0.498047 0.604348,0.151087 1.081657,0.333186 1.367187,0.501953 C 38.480843,12.418767 38.5,12.528595 38.5,12.5 c 0,-0.02859 -0.01916,0.08123 -0.304688,0.25 -0.28553,0.168767 -0.762839,0.350866 -1.367187,0.501953 C 35.619429,13.554127 33.899219,13.75 32,13.75 30.100781,13.75 28.380571,13.554127 27.171875,13.251953 26.567527,13.100866 26.090218,12.918767 25.804688,12.75 25.519157,12.581233 25.5,12.471405 25.5,12.5 c 0,0.02859 0.01916,-0.08123 0.304688,-0.25 0.28553,-0.168767 0.762839,-0.350866 1.367187,-0.501953 C 28.380571,11.445873 30.100781,11.25 32,11.25 Z" id="path1959" style="color:#000000;font-style:normal;font-variant:normal;font-weight:normal;font-stretch:normal;font-size:medium;line-height:normal;font-family:sans-serif;font-variant-ligatures:normal;font-variant-position:normal;font-variant-caps:normal;font-variant-numeric:normal;font-variant-alternates:normal;font-feature-settings:normal;text-indent:0;text-align:start;text-decoration:none;text-decoration-line:none;text-decoration-style:solid;text-decoration-color:#000000;letter-spacing:normal;word-spacing:normal;text-transform:none;writing-mode:lr-tb;direction:ltr;text-orientation:mixed;dominant-baseline:auto;baseline-shift:baseline;text-anchor:start;white-space:normal;shape-padding:0;clip-rule:nonzero;display:inline;overflow:visible;visibility:visible;opacity:1;isolation:auto;mix-blend-mode:normal;color-interpolation:sRGB;color-interpolation-filters:linearRGB;solid-color:#000000;solid-opacity:1;vector-effect:none;fill:#000000;fill-opacity:1;fill-rule:nonzero;stroke:none;stroke-width:0.99999994;stroke-linecap:butt;stroke-linejoin:miter;stroke-miterlimit:4;stroke-dasharray:none;stroke-dashoffset:0;stroke-opacity:1;color-rendering:auto;image-rendering:auto;shape-rendering:auto;text-rendering:auto;enable-background:accumulate"/></g></svg>