<?xml version="1.0" ?><!DOCTYPE svg  PUBLIC '-//W3C//DTD SVG 1.1//EN'  'http://www.w3.org/Graphics/SVG/1.1/DTD/svg11.dtd'><svg height="100%" style="fill-rule:evenodd;clip-rule:evenodd;stroke-linejoin:round;stroke-miterlimit:1.41421;" version="1.1" viewBox="0 0 49 49" width="100%" xml:space="preserve" xmlns="http://www.w3.org/2000/svg" xmlns:serif="http://www.serif.com/" xmlns:xlink="http://www.w3.org/1999/xlink"><path d="M10.155,6.681c-1.058,0 -2.074,0.421 -2.822,1.169c-0.749,0.749 -1.169,1.764 -1.169,2.823c0,6.926 0,21.091 0,28.016c0,1.059 0.42,2.074 1.169,2.823c0.748,0.749 1.764,1.169 2.822,1.169c6.926,0 21.091,0 28.017,0c1.059,0 2.074,-0.42 2.823,-1.169c0.748,-0.749 1.169,-1.764 1.169,-2.823c0,-6.925 0,-21.09 0,-28.016c0,-1.059 -0.421,-2.074 -1.169,-2.823c-0.749,-0.748 -1.764,-1.169 -2.823,-1.169c-6.926,0 -21.091,0 -28.017,0Zm12.009,32l-12,0l0,-12l12,0l0,12Zm0,-16l-12,0l0,-12l12,0l0,12Zm16,16l-12,0l0,-12l12,0l0,12Zm0,-16l-12,0l0,-12l12,0l0,12Z" style="fill:#008bf6;fill-rule:nonzero;"/><rect height="48" style="fill:none;" width="48" x="0.164" y="0.681"/></svg>