<?xml version="1.0" ?><!DOCTYPE svg  PUBLIC '-//W3C//DTD SVG 1.1//EN'  'http://www.w3.org/Graphics/SVG/1.1/DTD/svg11.dtd'><svg height="100%" style="fill-rule:evenodd;clip-rule:evenodd;stroke-linejoin:round;stroke-miterlimit:1.41421;" version="1.1" viewBox="0 0 49 49" width="100%" xml:space="preserve" xmlns="http://www.w3.org/2000/svg" xmlns:serif="http://www.serif.com/" xmlns:xlink="http://www.w3.org/1999/xlink"><g><path d="M10.568,6.681c-2.209,0 -4,1.791 -4,4.001c0,6.926 0,21.073 0,27.999c0,2.209 1.791,4 4,4c6.926,0 21.073,0 27.999,0c2.21,0 4.001,-1.791 4.001,-4c0,-6.926 0,-21.073 0,-27.999c0,-2.21 -1.791,-4.001 -4.001,-4.001c-6.926,0 -21.073,0 -27.999,0Zm28,32l-28,0l0,-28l28,0l0,28Z" style="fill:#008bf6;fill-rule:nonzero;"/><path d="M26.568,16.681c0,-1.104 -0.896,-2 -2,-2c-1.105,0 -2,0.896 -2,2c0,1.105 0.895,2 2,2c1.104,0 2,-0.895 2,-2c0,0 0,0 0,0Zm0,8c0,-1.104 -0.896,-2 -2,-2c-1.105,0 -2,0.896 -2,2c0,1.105 0.895,2 2,2c1.104,0 2,-0.895 2,-2c0,0 0,0 0,0Zm8,0c0,-1.104 -0.896,-2 -2,-2c-1.105,0 -2,0.896 -2,2c0,1.105 0.895,2 2,2c1.104,0 2,-0.895 2,-2c0,0 0,0 0,0Zm-8,8c0,-1.104 -0.896,-2 -2,-2c-1.105,0 -2,0.896 -2,2c0,1.105 0.895,2 2,2c1.104,0 2,-0.895 2,-2c0,0 0,0 0,0Zm-8,-8c0,-1.104 -0.896,-2 -2,-2c-1.105,0 -2,0.896 -2,2c0,1.105 0.895,2 2,2c1.104,0 2,-0.895 2,-2c0,0 0,0 0,0Z" style="fill:#d9d9d9;fill-rule:nonzero;"/></g></svg>