<?xml version="1.0" ?><!DOCTYPE svg  PUBLIC '-//W3C//DTD SVG 1.1//EN'  'http://www.w3.org/Graphics/SVG/1.1/DTD/svg11.dtd'><svg id="Layer_1" style="enable-background:new 0 0 512 512;" version="1.1" viewBox="0 0 512 512" xml:space="preserve" xmlns="http://www.w3.org/2000/svg" xmlns:xlink="http://www.w3.org/1999/xlink"><style type="text/css">
	.st0{fill:url(#SVGID_1_);}
	.st1{fill:url(#SVGID_2_);}
	.st2{fill:none;stroke:url(#SVGID_3_);stroke-width:1.5;stroke-miterlimit:10;}
	.st3{fill:#FFFFFF;}
	.st4{fill:none;stroke:url(#SVGID_4_);stroke-width:2;stroke-miterlimit:10;}
</style><linearGradient gradientUnits="userSpaceOnUse" id="SVGID_1_" x1="219.3368" x2="292.6632" y1="463.9274" y2="48.0726"><stop offset="5.596740e-002" style="stop-color:#E6BE68"/><stop offset="9.628294e-002" style="stop-color:#EFAF49"/><stop offset="0.1384" style="stop-color:#F6A230"/><stop offset="0.1826" style="stop-color:#FB9A1F"/><stop offset="0.23" style="stop-color:#FE9514"/><stop offset="0.2859" style="stop-color:#FF9311"/><stop offset="0.5899" style="stop-color:#F0A122"/><stop offset="0.8146" style="stop-color:#F6BF1B"/><stop offset="0.8753" style="stop-color:#F0C041"/><stop offset="0.9544" style="stop-color:#EAC16E"/><stop offset="0.9944" style="stop-color:#E7C17F"/></linearGradient><circle class="st0" cx="256" cy="256" r="211.1"/><g><linearGradient gradientUnits="userSpaceOnUse" id="SVGID_2_" x1="59.782" x2="452.218" y1="256" y2="256"><stop offset="5.056200e-002" style="stop-color:#E6BE83"/><stop offset="6.283368e-002" style="stop-color:#E7BA78"/><stop offset="0.1022" style="stop-color:#EAAF58"/><stop offset="0.1432" style="stop-color:#EDA73F"/><stop offset="0.186" style="stop-color:#EFA12E"/><stop offset="0.2318" style="stop-color:#F09D23"/><stop offset="0.2859" style="stop-color:#F09C20"/><stop offset="0.5899" style="stop-color:#F0D877"/><stop offset="0.8146" style="stop-color:#F6CE7E"/><stop offset="0.9944" style="stop-color:#E7C17F"/></linearGradient><circle class="st1" cx="256" cy="256" r="196.2"/><linearGradient gradientUnits="userSpaceOnUse" id="SVGID_3_" x1="256" x2="256" y1="452.968" y2="59.032"><stop offset="5.056200e-002" style="stop-color:#FFDF15"/><stop offset="0.2697" style="stop-color:#DB8B0E"/><stop offset="0.5575" style="stop-color:#FF9200"/><stop offset="0.8146" style="stop-color:#F7E3B1"/><stop offset="0.8883" style="stop-color:#F0D37C"/><stop offset="0.9589" style="stop-color:#E9C64F"/><stop offset="0.9944" style="stop-color:#E7C13E"/></linearGradient><circle class="st2" cx="256" cy="256" r="196.2"/></g><g id="Shape_1_1_"><g><path class="st3" d="M300.7,220.4c-14.7,0-25.6,6.3-32.3,13.5v-7.7c0-1.6-1.4-3-3-3h-35.2c-1.6,0-3,1.4-3,3v118c0,1.6,1.4,3,3,3    h36.7c1.6,0,3-1.4,3-3v-58.4c0-19.7,5.3-27.4,19.1-27.4c14.9,0,16.2,12.3,16.2,28.4v57.4c0,1.6,1.4,3,3,3h36.7    c1.3,0,2.3-0.7,2.7-1.8v-75.2C346.1,244.2,337.7,220.4,300.7,220.4z M207.3,223.4h-36.8c-1.6,0-3,1.4-3,3v118c0,1.6,1.4,3,3,3    h36.8c1.6,0,3-1.4,3-3V226.2C210.2,224.6,208.9,223.4,207.3,223.4z M188.9,164.7L188.9,164.7c-13.4,0-24.3,10.8-24.3,24.2    s10.8,24.2,24.3,24.2c13.4,0,24.2-10.8,24.2-24.2C213.2,175.5,202.2,164.7,188.9,164.7z"/></g><g><linearGradient gradientTransform="matrix(0.498 0 0 -0.498 64.752 320.25)" gradientUnits="userSpaceOnUse" id="SVGID_4_" x1="200.8799" x2="567.2927" y1="129.0039" y2="129.0039"><stop offset="5.056200e-002" style="stop-color:#FFDF15"/><stop offset="0.2697" style="stop-color:#DB8B0E"/><stop offset="0.5575" style="stop-color:#FF9200"/><stop offset="0.8146" style="stop-color:#F7E3B1"/><stop offset="0.8883" style="stop-color:#F0D37C"/><stop offset="0.9589" style="stop-color:#E9C64F"/><stop offset="0.9944" style="stop-color:#E7C13E"/></linearGradient><path class="st4" d="M300.7,220.4c-14.7,0-25.6,6.3-32.3,13.5v-7.7c0-1.6-1.4-3-3-3h-35.2c-1.6,0-3,1.4-3,3v118c0,1.6,1.4,3,3,3    h36.7c1.6,0,3-1.4,3-3v-58.4c0-19.7,5.3-27.4,19.1-27.4c14.9,0,16.2,12.3,16.2,28.4v57.4c0,1.6,1.4,3,3,3h36.7    c1.3,0,2.3-0.7,2.7-1.8v-75.2C346.1,244.2,337.7,220.4,300.7,220.4z M207.3,223.4h-36.8c-1.6,0-3,1.4-3,3v118c0,1.6,1.4,3,3,3    h36.8c1.6,0,3-1.4,3-3V226.2C210.2,224.6,208.9,223.4,207.3,223.4z M188.9,164.7L188.9,164.7c-13.4,0-24.3,10.8-24.3,24.2    s10.8,24.2,24.3,24.2c13.4,0,24.2-10.8,24.2-24.2C213.2,175.5,202.2,164.7,188.9,164.7z"/></g></g></svg>