<?xml version="1.0" ?><!DOCTYPE svg  PUBLIC '-//W3C//DTD SVG 1.1//EN'  'http://www.w3.org/Graphics/SVG/1.1/DTD/svg11.dtd'><svg id="Layer_1" style="enable-background:new 0 0 512 512;" version="1.1" viewBox="0 0 512 512" xml:space="preserve" xmlns="http://www.w3.org/2000/svg" xmlns:xlink="http://www.w3.org/1999/xlink"><style type="text/css">
	.st0{fill:url(#SVGID_1_);}
	.st1{fill:url(#SVGID_2_);}
	.st2{fill:none;stroke:url(#SVGID_3_);stroke-width:1.5;stroke-miterlimit:10;}
	.st3{opacity:0.93;}
	.st4{fill:#FFFFFF;}
	.st5{fill:none;stroke:url(#SVGID_4_);stroke-width:2;}
</style><linearGradient gradientUnits="userSpaceOnUse" id="SVGID_1_" x1="219.3368" x2="292.6632" y1="463.9274" y2="48.0726"><stop offset="5.596740e-002" style="stop-color:#E6BE68"/><stop offset="9.628294e-002" style="stop-color:#EFAF49"/><stop offset="0.1384" style="stop-color:#F6A230"/><stop offset="0.1826" style="stop-color:#FB9A1F"/><stop offset="0.23" style="stop-color:#FE9514"/><stop offset="0.2859" style="stop-color:#FF9311"/><stop offset="0.5899" style="stop-color:#F0A122"/><stop offset="0.8146" style="stop-color:#F6BF1B"/><stop offset="0.8753" style="stop-color:#F0C041"/><stop offset="0.9544" style="stop-color:#EAC16E"/><stop offset="0.9944" style="stop-color:#E7C17F"/></linearGradient><circle class="st0" cx="256" cy="256" r="211.1"/><g><linearGradient gradientUnits="userSpaceOnUse" id="SVGID_2_" x1="59.782" x2="452.218" y1="256" y2="256"><stop offset="5.056200e-002" style="stop-color:#E6BE83"/><stop offset="6.283368e-002" style="stop-color:#E7BA78"/><stop offset="0.1022" style="stop-color:#EAAF58"/><stop offset="0.1432" style="stop-color:#EDA73F"/><stop offset="0.186" style="stop-color:#EFA12E"/><stop offset="0.2318" style="stop-color:#F09D23"/><stop offset="0.2859" style="stop-color:#F09C20"/><stop offset="0.5899" style="stop-color:#F0D877"/><stop offset="0.8146" style="stop-color:#F6CE7E"/><stop offset="0.9944" style="stop-color:#E7C17F"/></linearGradient><circle class="st1" cx="256" cy="256" r="196.2"/><linearGradient gradientUnits="userSpaceOnUse" id="SVGID_3_" x1="256" x2="256" y1="452.968" y2="59.032"><stop offset="5.056200e-002" style="stop-color:#FFDF15"/><stop offset="0.2697" style="stop-color:#DB8B0E"/><stop offset="0.5575" style="stop-color:#FF9200"/><stop offset="0.8146" style="stop-color:#F7E3B1"/><stop offset="0.8883" style="stop-color:#F0D37C"/><stop offset="0.9589" style="stop-color:#E9C64F"/><stop offset="0.9944" style="stop-color:#E7C13E"/></linearGradient><circle class="st2" cx="256" cy="256" r="196.2"/></g><g class="st3"><g><path class="st4" d="M201.9,263.4H227v103.4c0,2.1,1.7,3.7,3.7,3.7h42.6c2.1,0,3.7-1.7,3.7-3.7V263.9h28.8c1.9,0,3.5-1.4,3.7-3.3    l4.4-38c0.1-1.1-0.2-2.1-0.9-2.9c-0.7-0.8-1.7-1.2-2.8-1.2h-33.2v-23.9c0-7.2,3.9-10.8,11.5-10.8h21.7c2,0,3.7-1.7,3.7-3.7v-34.9    c0-2.1-1.7-3.7-3.7-3.7h-29.9c-0.2,0-0.7,0-1.4,0c-5.2,0-23.3,1-37.5,14.1c-15.8,14.5-13.6,31.9-13.1,35v27.9h-26.4    c-2.1,0-3.7,1.7-3.7,3.7v37.6C198.2,261.7,199.8,263.4,201.9,263.4L201.9,263.4z"/></g><g><linearGradient gradientTransform="matrix(0.498 0 0 -0.498 64.752 320.25)" gradientUnits="userSpaceOnUse" id="SVGID_4_" x1="268.9377" x2="499.2154" y1="129.0039" y2="129.0039"><stop offset="5.056200e-002" style="stop-color:#FFDF15"/><stop offset="0.2697" style="stop-color:#DB8B0E"/><stop offset="0.5575" style="stop-color:#FF9200"/><stop offset="0.8146" style="stop-color:#F7E3B1"/><stop offset="0.8883" style="stop-color:#F0D37C"/><stop offset="0.9589" style="stop-color:#E9C64F"/><stop offset="0.9944" style="stop-color:#E7C13E"/></linearGradient><path class="st5" d="M201.9,263.4H227v103.4c0,2.1,1.7,3.7,3.7,3.7h42.6c2.1,0,3.7-1.7,3.7-3.7V263.9h28.8c1.9,0,3.5-1.4,3.7-3.3    l4.4-38c0.1-1.1-0.2-2.1-0.9-2.9c-0.7-0.8-1.7-1.2-2.8-1.2h-33.2v-23.9c0-7.2,3.9-10.8,11.5-10.8h21.7c2,0,3.7-1.7,3.7-3.7v-34.9    c0-2.1-1.7-3.7-3.7-3.7h-29.9c-0.2,0-0.7,0-1.4,0c-5.2,0-23.3,1-37.5,14.1c-15.8,14.5-13.6,31.9-13.1,35v27.9h-26.4    c-2.1,0-3.7,1.7-3.7,3.7v37.6C198.2,261.7,199.8,263.4,201.9,263.4L201.9,263.4z"/></g></g></svg>