<?xml version="1.0" ?><!DOCTYPE svg  PUBLIC '-//W3C//DTD SVG 1.1//EN'  'http://www.w3.org/Graphics/SVG/1.1/DTD/svg11.dtd'><svg id="Layer_1" style="enable-background:new 0 0 512 512;" version="1.1" viewBox="0 0 512 512" xml:space="preserve" xmlns="http://www.w3.org/2000/svg" xmlns:xlink="http://www.w3.org/1999/xlink"><style type="text/css">
	.st0{fill:url(#SVGID_1_);}
	.st1{fill:url(#SVGID_2_);}
	.st2{fill:none;stroke:url(#SVGID_3_);stroke-width:1.5;stroke-miterlimit:10;}
	.st3{fill:#FFFFFF;}
	.st4{fill:none;stroke:url(#SVGID_4_);stroke-width:2;stroke-miterlimit:10;}
</style><linearGradient gradientUnits="userSpaceOnUse" id="SVGID_1_" x1="219.3368" x2="292.6632" y1="463.9274" y2="48.0726"><stop offset="5.596740e-002" style="stop-color:#E6BE68"/><stop offset="9.628294e-002" style="stop-color:#EFAF49"/><stop offset="0.1384" style="stop-color:#F6A230"/><stop offset="0.1826" style="stop-color:#FB9A1F"/><stop offset="0.23" style="stop-color:#FE9514"/><stop offset="0.2859" style="stop-color:#FF9311"/><stop offset="0.5899" style="stop-color:#F0A122"/><stop offset="0.8146" style="stop-color:#F6BF1B"/><stop offset="0.8753" style="stop-color:#F0C041"/><stop offset="0.9544" style="stop-color:#EAC16E"/><stop offset="0.9944" style="stop-color:#E7C17F"/></linearGradient><circle class="st0" cx="256" cy="256" r="211.1"/><g><linearGradient gradientUnits="userSpaceOnUse" id="SVGID_2_" x1="59.782" x2="452.218" y1="256" y2="256"><stop offset="5.056200e-002" style="stop-color:#E6BE83"/><stop offset="6.283368e-002" style="stop-color:#E7BA78"/><stop offset="0.1022" style="stop-color:#EAAF58"/><stop offset="0.1432" style="stop-color:#EDA73F"/><stop offset="0.186" style="stop-color:#EFA12E"/><stop offset="0.2318" style="stop-color:#F09D23"/><stop offset="0.2859" style="stop-color:#F09C20"/><stop offset="0.5899" style="stop-color:#F0D877"/><stop offset="0.8146" style="stop-color:#F6CE7E"/><stop offset="0.9944" style="stop-color:#E7C17F"/></linearGradient><circle class="st1" cx="256" cy="256" r="196.2"/><linearGradient gradientUnits="userSpaceOnUse" id="SVGID_3_" x1="256" x2="256" y1="452.968" y2="59.032"><stop offset="5.056200e-002" style="stop-color:#FFDF15"/><stop offset="0.2697" style="stop-color:#DB8B0E"/><stop offset="0.5575" style="stop-color:#FF9200"/><stop offset="0.8146" style="stop-color:#F7E3B1"/><stop offset="0.8883" style="stop-color:#F0D37C"/><stop offset="0.9589" style="stop-color:#E9C64F"/><stop offset="0.9944" style="stop-color:#E7C13E"/></linearGradient><circle class="st2" cx="256" cy="256" r="196.2"/></g><g id="Shape_1"><g><path class="st3" d="M343.8,350.9c2.1-1.1,4.1-2.2,5.8-3.2c4-2.2,6.7-5.2,7.6-8.5v-4.9c-0.8-2.8-2.9-5.2-5.9-6.5    c-7-2.9-9.9-6.6-9.7-12.3c0.3-6.6-3.4-11.4-5.2-13.3c1.1-4.1,4.2-18.3,0-30.6c-4.5-13.2-18.3-33.3-32.6-53.1    c-5.8-8.1-6.1-17-6.4-27.2c-0.3-9.8-0.6-20.8-6.1-33.1c-5.9-13.4-17.8-21.1-32.6-21.1c-8.8,0-17.8,2.7-24.8,7.5    c-14.2,9.8-12.3,31.2-11.1,45.4c0.2,1.9,0.3,3.8,0.4,5.3c0.8,13.9,0.1,21.2-0.9,23.4c-0.6,1.5-3.8,5.6-7.1,10    c-3.4,4.5-7.3,9.7-10.5,14.4c-3.8,5.8-6.9,14.5-9.9,23.1c-2.2,6.2-4.2,12.1-6.2,15.6c-3.8,6.8-2.8,13.1-2.1,16    c-1.4,1-3.5,3-5.3,6.7c-2.1,4.5-6.4,6.9-15.3,8.7c-4.1,0.8-6.9,2.6-8.4,5.1c-2.2,3.7-1,8.4,0.1,11.6c1.6,4.7,0.6,7.7-1.2,13.1    c-0.4,1.2-0.9,2.7-1.4,4.2c-0.7,2.5-0.5,4.7,0.8,6.7c3.4,5.2,13.2,7,23.3,8.2c6,0.7,12.7,3.1,19.1,5.5c6.3,2.3,12.8,4.7,18.7,5.4    c0.9,0.1,1.8,0.2,2.6,0.2c8.9,0,12.9-5.9,14.2-8.3c3.2-0.7,14.2-2.7,25.6-3c11.3-0.3,22.3,1.9,25.4,2.6c1,1.9,3.6,6.1,7.7,8.4    c2.3,1.2,5.4,1.9,8.6,1.9c0,0,0,0,0,0c3.4,0,10-0.8,15.2-6.3C321.5,363,334.4,356,343.8,350.9z M265.6,171.6    c5.1,0,9.3,5.3,9.3,11.8c0,2.7-0.7,5.3-2,7.4c0.3-1.1,0.5-2.3,0.5-3.5c0-5.5-3.5-9.7-7.9-9.7c-4.3,0-7.8,4.4-7.8,9.7    c0,0.4,0,0.7,0.1,1.1c-0.2-0.1-0.5-0.2-0.7-0.3c-0.5-1.5-0.7-3.1-0.7-4.7C256.3,176.9,260.5,171.6,265.6,171.6z M249.8,195.3    c2,0.3,6.8,2.3,10.3,3.7c1.6,0.6,3,1.2,4,1.6c3.1,1.1,4.7,2.4,4.9,3c-0.1,0.3-0.2,0.5-2,1.4c-0.9,0.5-2,1-3.3,1.9l-0.9,0.6    c-3.7,2.2-12.3,7.4-14.6,7.8c-1.6,0.2-2.6-0.4-4.8-1.9c-0.5-0.3-1-0.7-1.6-1.1c-4-2.6-6.5-5.5-6.8-6.6c1.3-1,4.5-3.5,6.2-5    c3.3-3.1,6.7-5.2,8.4-5.2C249.7,195.3,249.7,195.3,249.8,195.3z M236.7,173.8c3.8,0,7,5.1,7,11.1c0,0.8-0.1,1.5-0.2,2.3    c-0.2,0.1-0.5,0.2-0.7,0.3c0-0.5-0.1-1-0.2-1.5c-0.8-4.7-3.9-8-7.3-8c-0.3,0-0.5,0-0.8,0.1c-2,0.3-3.7,1.9-4.5,4.1    C230.8,177.3,233.5,173.8,236.7,173.8z M225.2,354.9c-0.8,3.8-5.1,6.9-6.2,7.6c-0.4,0.1-0.8,0.1-1.4,0.1c-5.9,0-17.6-4.9-23.9-7.6    l-0.9-0.4c-3.5-1.5-9.3-2.4-14.8-3.3c-4.4-0.7-10.5-1.7-11.5-2.6c-0.8-0.9,0.1-3.9,1-6.5c0.6-1.9,1.2-3.8,1.6-5.9    c0.5-3.2-0.1-5.9-0.5-8c-0.4-1.8-0.7-3.2-0.4-4.6c0.2-1,5.3-2.1,7.4-2.6c3-0.7,6.2-1.3,8.2-2.6c2.8-1.7,4.3-4.8,5.6-7.5    c1-2,1.9-4,3.1-4.7c0.1,0,0.2-0.1,0.4-0.1c2.2,0,6.8,4.6,9.5,8.8c0.7,1,1.9,3.1,3.4,5.6c4.3,7.2,10.3,17.2,13.3,20.5    C221.8,344.2,226.3,350,225.2,354.9z M289.5,304.3c-1,4.8-1.1,20-1.1,23.4c-2,2.6-12.3,14.7-27,16.9c-6,0.9-11.6,1.3-16.7,1.3    c-4.3,0-7.1-0.3-8.2-0.5l-7.4-8.5c2.9-1.4,5.8-4.5,5.1-10c-0.7-4.6-6.6-9.2-13.5-14.6c-5.7-4.4-12.1-9.3-13.8-13.5    c-3.6-8.6-0.8-23.8,4.2-31.6c2.5-3.9,4.5-9.8,6.5-15.6c2.1-6.2,4.3-12.6,6.7-15.4c3.9-4.4,7.4-12.9,8.1-19.6    c3.6,3.5,9.2,7.9,14.4,7.9c0.8,0,1.6-0.1,2.3-0.3c3.6-1,8.8-4,13.8-7c4.4-2.5,9.7-5.6,11.8-5.9c3.5,5,23.6,49.6,25.7,63.9    c1.6,11.3-0.1,20.7-1,24.4c-0.7-0.1-1.5-0.2-2.4-0.2C291.3,299.4,289.9,302.4,289.5,304.3z M302.3,363c-3.8-1.2-6.9-6.6-5.2-14.4    c1.8-7.9,3.8-18.7,3.5-25.1c-0.1-1.4-0.2-3-0.3-4.5c-0.2-2.8-0.6-7.1-0.2-8.3c0.1,0,0.1-0.1,0.2-0.1c0,3.6,0.8,10.9,6.6,13.4    c1.7,0.8,3.7,1.1,5.9,1.1c5.8,0,12.3-2.8,14.9-5.5c1.6-1.6,2.9-3.5,3.8-5c0.2,0.6,0.3,1.4,0.3,2.3c-0.3,5.4,2.3,12.5,7.2,15.1    l0.7,0.4c1.8,0.9,6.5,3.4,6.5,4.6c0,0,0,0.1-0.3,0.4c-1.2,1.1-5.3,3.2-9.3,5.2c-7.1,3.6-15.1,7.7-18.7,11.5    c-5.1,5.4-10.8,8.9-14.3,8.9C303,363.2,302.6,363.1,302.3,363z"/></g><g><linearGradient gradientUnits="userSpaceOnUse" id="SVGID_4_" x1="154.4238" x2="357.5761" y1="256" y2="256"><stop offset="5.056200e-002" style="stop-color:#FFDF15"/><stop offset="0.2697" style="stop-color:#DB8B0E"/><stop offset="0.5575" style="stop-color:#FF9200"/><stop offset="0.8146" style="stop-color:#F7E3B1"/><stop offset="0.8883" style="stop-color:#F0D37C"/><stop offset="0.9589" style="stop-color:#E9C64F"/><stop offset="0.9944" style="stop-color:#E7C13E"/></linearGradient><path class="st4" d="M343.8,350.9c2.1-1.1,4.1-2.2,5.8-3.2c4-2.2,6.7-5.2,7.6-8.5v-4.9c-0.8-2.8-2.9-5.2-5.9-6.5    c-7-2.9-9.9-6.6-9.7-12.3c0.3-6.6-3.4-11.4-5.2-13.3c1.1-4.1,4.2-18.3,0-30.6c-4.5-13.2-18.3-33.3-32.6-53.1    c-5.8-8.1-6.1-17-6.4-27.2c-0.3-9.8-0.6-20.8-6.1-33.1c-5.9-13.4-17.8-21.1-32.6-21.1c-8.8,0-17.8,2.7-24.8,7.5    c-14.2,9.8-12.3,31.2-11.1,45.4c0.2,1.9,0.3,3.8,0.4,5.3c0.8,13.9,0.1,21.2-0.9,23.4c-0.6,1.5-3.8,5.6-7.1,10    c-3.4,4.5-7.3,9.7-10.5,14.4c-3.8,5.8-6.9,14.5-9.9,23.1c-2.2,6.2-4.2,12.1-6.2,15.6c-3.8,6.8-2.8,13.1-2.1,16    c-1.4,1-3.5,3-5.3,6.7c-2.1,4.5-6.4,6.9-15.3,8.7c-4.1,0.8-6.9,2.6-8.4,5.1c-2.2,3.7-1,8.4,0.1,11.6c1.6,4.7,0.6,7.7-1.2,13.1    c-0.4,1.2-0.9,2.7-1.4,4.2c-0.7,2.5-0.5,4.7,0.8,6.7c3.4,5.2,13.2,7,23.3,8.2c6,0.7,12.7,3.1,19.1,5.5c6.3,2.3,12.8,4.7,18.7,5.4    c0.9,0.1,1.8,0.2,2.6,0.2c8.9,0,12.9-5.9,14.2-8.3c3.2-0.7,14.2-2.7,25.6-3c11.3-0.3,22.3,1.9,25.4,2.6c1,1.9,3.6,6.1,7.7,8.4    c2.3,1.2,5.4,1.9,8.6,1.9c0,0,0,0,0,0c3.4,0,10-0.8,15.2-6.3C321.5,363,334.4,356,343.8,350.9z M265.6,171.6    c5.1,0,9.3,5.3,9.3,11.8c0,2.7-0.7,5.3-2,7.4c0.3-1.1,0.5-2.3,0.5-3.5c0-5.5-3.5-9.7-7.9-9.7c-4.3,0-7.8,4.4-7.8,9.7    c0,0.4,0,0.7,0.1,1.1c-0.2-0.1-0.5-0.2-0.7-0.3c-0.5-1.5-0.7-3.1-0.7-4.7C256.3,176.9,260.5,171.6,265.6,171.6z M249.8,195.3    c2,0.3,6.8,2.3,10.3,3.7c1.6,0.6,3,1.2,4,1.6c3.1,1.1,4.7,2.4,4.9,3c-0.1,0.3-0.2,0.5-2,1.4c-0.9,0.5-2,1-3.3,1.9l-0.9,0.6    c-3.7,2.2-12.3,7.4-14.6,7.8c-1.6,0.2-2.6-0.4-4.8-1.9c-0.5-0.3-1-0.7-1.6-1.1c-4-2.6-6.5-5.5-6.8-6.6c1.3-1,4.5-3.5,6.2-5    c3.3-3.1,6.7-5.2,8.4-5.2C249.7,195.3,249.7,195.3,249.8,195.3z M236.7,173.8c3.8,0,7,5.1,7,11.1c0,0.8-0.1,1.5-0.2,2.3    c-0.2,0.1-0.5,0.2-0.7,0.3c0-0.5-0.1-1-0.2-1.5c-0.8-4.7-3.9-8-7.3-8c-0.3,0-0.5,0-0.8,0.1c-2,0.3-3.7,1.9-4.5,4.1    C230.8,177.3,233.5,173.8,236.7,173.8z M225.2,354.9c-0.8,3.8-5.1,6.9-6.2,7.6c-0.4,0.1-0.8,0.1-1.4,0.1c-5.9,0-17.6-4.9-23.9-7.6    l-0.9-0.4c-3.5-1.5-9.3-2.4-14.8-3.3c-4.4-0.7-10.5-1.7-11.5-2.6c-0.8-0.9,0.1-3.9,1-6.5c0.6-1.9,1.2-3.8,1.6-5.9    c0.5-3.2-0.1-5.9-0.5-8c-0.4-1.8-0.7-3.2-0.4-4.6c0.2-1,5.3-2.1,7.4-2.6c3-0.7,6.2-1.3,8.2-2.6c2.8-1.7,4.3-4.8,5.6-7.5    c1-2,1.9-4,3.1-4.7c0.1,0,0.2-0.1,0.4-0.1c2.2,0,6.8,4.6,9.5,8.8c0.7,1,1.9,3.1,3.4,5.6c4.3,7.2,10.3,17.2,13.3,20.5    C221.8,344.2,226.3,350,225.2,354.9z M289.5,304.3c-1,4.8-1.1,20-1.1,23.4c-2,2.6-12.3,14.7-27,16.9c-6,0.9-11.6,1.3-16.7,1.3    c-4.3,0-7.1-0.3-8.2-0.5l-7.4-8.5c2.9-1.4,5.8-4.5,5.1-10c-0.7-4.6-6.6-9.2-13.5-14.6c-5.7-4.4-12.1-9.3-13.8-13.5    c-3.6-8.6-0.8-23.8,4.2-31.6c2.5-3.9,4.5-9.8,6.5-15.6c2.1-6.2,4.3-12.6,6.7-15.4c3.9-4.4,7.4-12.9,8.1-19.6    c3.6,3.5,9.2,7.9,14.4,7.9c0.8,0,1.6-0.1,2.3-0.3c3.6-1,8.8-4,13.8-7c4.4-2.5,9.7-5.6,11.8-5.9c3.5,5,23.6,49.6,25.7,63.9    c1.6,11.3-0.1,20.7-1,24.4c-0.7-0.1-1.5-0.2-2.4-0.2C291.3,299.4,289.9,302.4,289.5,304.3z M302.3,363c-3.8-1.2-6.9-6.6-5.2-14.4    c1.8-7.9,3.8-18.7,3.5-25.1c-0.1-1.4-0.2-3-0.3-4.5c-0.2-2.8-0.6-7.1-0.2-8.3c0.1,0,0.1-0.1,0.2-0.1c0,3.6,0.8,10.9,6.6,13.4    c1.7,0.8,3.7,1.1,5.9,1.1c5.8,0,12.3-2.8,14.9-5.5c1.6-1.6,2.9-3.5,3.8-5c0.2,0.6,0.3,1.4,0.3,2.3c-0.3,5.4,2.3,12.5,7.2,15.1    l0.7,0.4c1.8,0.9,6.5,3.4,6.5,4.6c0,0,0,0.1-0.3,0.4c-1.2,1.1-5.3,3.2-9.3,5.2c-7.1,3.6-15.1,7.7-18.7,11.5    c-5.1,5.4-10.8,8.9-14.3,8.9C303,363.2,302.6,363.1,302.3,363z"/></g></g></svg>