<?xml version="1.0" ?><!DOCTYPE svg  PUBLIC '-//W3C//DTD SVG 1.1//EN'  'http://www.w3.org/Graphics/SVG/1.1/DTD/svg11.dtd'><svg id="Layer_1" style="enable-background:new 0 0 512 512;" version="1.1" viewBox="0 0 512 512" xml:space="preserve" xmlns="http://www.w3.org/2000/svg" xmlns:xlink="http://www.w3.org/1999/xlink"><style type="text/css">
	.st0{fill:url(#SVGID_1_);}
	.st1{fill:url(#SVGID_2_);}
	.st2{fill:none;stroke:url(#SVGID_3_);stroke-width:1.5;stroke-miterlimit:10;}
	.st3{opacity:0.93;}
	.st4{fill:#FFFFFF;}
	.st5{fill:none;stroke:url(#SVGID_4_);stroke-width:2;stroke-miterlimit:10;}
</style><linearGradient gradientUnits="userSpaceOnUse" id="SVGID_1_" x1="219.3368" x2="292.6632" y1="463.9274" y2="48.0726"><stop offset="5.596740e-002" style="stop-color:#E6BE68"/><stop offset="9.628294e-002" style="stop-color:#EFAF49"/><stop offset="0.1384" style="stop-color:#F6A230"/><stop offset="0.1826" style="stop-color:#FB9A1F"/><stop offset="0.23" style="stop-color:#FE9514"/><stop offset="0.2859" style="stop-color:#FF9311"/><stop offset="0.5899" style="stop-color:#F0A122"/><stop offset="0.8146" style="stop-color:#F6BF1B"/><stop offset="0.8753" style="stop-color:#F0C041"/><stop offset="0.9544" style="stop-color:#EAC16E"/><stop offset="0.9944" style="stop-color:#E7C17F"/></linearGradient><circle class="st0" cx="256" cy="256" r="211.1"/><g><linearGradient gradientUnits="userSpaceOnUse" id="SVGID_2_" x1="59.782" x2="452.218" y1="256" y2="256"><stop offset="5.056200e-002" style="stop-color:#E6BE83"/><stop offset="6.283368e-002" style="stop-color:#E7BA78"/><stop offset="0.1022" style="stop-color:#EAAF58"/><stop offset="0.1432" style="stop-color:#EDA73F"/><stop offset="0.186" style="stop-color:#EFA12E"/><stop offset="0.2318" style="stop-color:#F09D23"/><stop offset="0.2859" style="stop-color:#F09C20"/><stop offset="0.5899" style="stop-color:#F0D877"/><stop offset="0.8146" style="stop-color:#F6CE7E"/><stop offset="0.9944" style="stop-color:#E7C17F"/></linearGradient><circle class="st1" cx="256" cy="256" r="196.2"/><linearGradient gradientUnits="userSpaceOnUse" id="SVGID_3_" x1="256" x2="256" y1="452.968" y2="59.032"><stop offset="5.056200e-002" style="stop-color:#FFDF15"/><stop offset="0.2697" style="stop-color:#DB8B0E"/><stop offset="0.5575" style="stop-color:#FF9200"/><stop offset="0.8146" style="stop-color:#F7E3B1"/><stop offset="0.8883" style="stop-color:#F0D37C"/><stop offset="0.9589" style="stop-color:#E9C64F"/><stop offset="0.9944" style="stop-color:#E7C13E"/></linearGradient><circle class="st2" cx="256" cy="256" r="196.2"/></g><g class="st3" id="Shape_1"><g><path class="st4" d="M303.4,152.9h-94.7c-30.7,0-55.7,25-55.7,55.7v94.7c0,30.7,25,55.7,55.7,55.7h94.7c30.7,0,55.7-25,55.7-55.7    v-94.7C359,177.9,334,152.9,303.4,152.9z M342.4,303.4c0,21.5-17.6,39-39,39h-94.7c-21.5,0-39-17.6-39-39v-94.7    c0-21.5,17.6-39,39-39h94.7c21.5,0,39,17.6,39,39V303.4z M289.1,222.8c-7.1-7.1-16-11.6-25.9-13.1c-4.5-0.7-9-0.7-13.5,0    c-12.2,1.9-23,8.3-30.3,18.2c-7.3,9.9-10.4,22.1-8.6,34.3c1.9,12.2,8.3,23,18.2,30.3c8.1,6,17.6,9.2,27.5,9.2    c2.3,0,4.6-0.2,6.9-0.5c12.2-1.9,23-8.3,30.3-18.2c7.3-9.9,10.4-22.1,8.6-34.3C300.6,238.8,296.1,229.9,289.1,222.8z M260.7,284.8    c-7.9,1.2-15.6-0.8-21.9-5.5s-10.5-11.6-11.7-19.4c-1.2-7.9,0.8-15.6,5.5-21.9c4.7-6.3,11.6-10.5,19.4-11.7    c1.4-0.2,2.8-0.3,4.4-0.3c1.4,0,2.9,0.1,4.4,0.3c13,2,23,11.9,25,25C288,267.3,276.8,282.4,260.7,284.8z M308.1,195.5    c-2.2,0-4.4,0.9-5.9,2.4c-1.5,1.5-2.4,3.7-2.4,5.9c0,2.2,0.9,4.4,2.4,5.9c1.5,1.5,3.7,2.4,5.9,2.4c2.2,0,4.4-0.9,5.9-2.4    c1.5-1.5,2.4-3.7,2.4-5.9c0-2.2-0.9-4.4-2.4-5.9C312.4,196.4,310.2,195.5,308.1,195.5z"/></g><g><linearGradient gradientTransform="matrix(0.498 0 0 -0.498 64.752 320.25)" gradientUnits="userSpaceOnUse" id="SVGID_4_" x1="178.082" x2="589.6925" y1="129.0039" y2="129.0039"><stop offset="5.056200e-002" style="stop-color:#FFDF15"/><stop offset="0.2697" style="stop-color:#DB8B0E"/><stop offset="0.5575" style="stop-color:#FF9200"/><stop offset="0.8146" style="stop-color:#F7E3B1"/><stop offset="0.8883" style="stop-color:#F0D37C"/><stop offset="0.9589" style="stop-color:#E9C64F"/><stop offset="0.9944" style="stop-color:#E7C13E"/></linearGradient><path class="st5" d="M303.4,152.9h-94.7c-30.7,0-55.7,25-55.7,55.7v94.7c0,30.7,25,55.7,55.7,55.7h94.7c30.7,0,55.7-25,55.7-55.7    v-94.7C359,177.9,334,152.9,303.4,152.9z M342.4,303.4c0,21.5-17.6,39-39,39h-94.7c-21.5,0-39-17.6-39-39v-94.7    c0-21.5,17.6-39,39-39h94.7c21.5,0,39,17.6,39,39V303.4z M289.1,222.8c-7.1-7.1-16-11.6-25.9-13.1c-4.5-0.7-9-0.7-13.5,0    c-12.2,1.9-23,8.3-30.3,18.2c-7.3,9.9-10.4,22.1-8.6,34.3c1.9,12.2,8.3,23,18.2,30.3c8.1,6,17.6,9.2,27.5,9.2    c2.3,0,4.6-0.2,6.9-0.5c12.2-1.9,23-8.3,30.3-18.2c7.3-9.9,10.4-22.1,8.6-34.3C300.6,238.8,296.1,229.9,289.1,222.8z M260.7,284.8    c-7.9,1.2-15.6-0.8-21.9-5.5s-10.5-11.6-11.7-19.4c-1.2-7.9,0.8-15.6,5.5-21.9c4.7-6.3,11.6-10.5,19.4-11.7    c1.4-0.2,2.8-0.3,4.4-0.3c1.4,0,2.9,0.1,4.4,0.3c13,2,23,11.9,25,25C288,267.3,276.8,282.4,260.7,284.8z M308.1,195.5    c-2.2,0-4.4,0.9-5.9,2.4c-1.5,1.5-2.4,3.7-2.4,5.9c0,2.2,0.9,4.4,2.4,5.9c1.5,1.5,3.7,2.4,5.9,2.4c2.2,0,4.4-0.9,5.9-2.4    c1.5-1.5,2.4-3.7,2.4-5.9c0-2.2-0.9-4.4-2.4-5.9C312.4,196.4,310.2,195.5,308.1,195.5z"/></g></g></svg>