<?xml version="1.0" ?><svg enable-background="new 0 0 32 32" id="Layer_1" version="1.1" viewBox="0 0 32 32" xml:space="preserve" xmlns="http://www.w3.org/2000/svg" xmlns:xlink="http://www.w3.org/1999/xlink"><g id="Outline_Filled_copy"><g><polygon fill="#FF00FF" points="24.359,2.038 24.359,7.641 29.962,7.641   "/><polygon fill="#FFFFFF" points="24.772,1.625 1.625,1.625 1.625,30.375 30.375,30.375 30.375,7.228   "/><g><polygon fill="#999999" points="24.359,2.038 24.359,7.641 29.962,7.641    "/><path d="M24.358,2.625l5.017,5.017v21.733H2.625V2.625H24.358 M24.772,1.625H1.625v28.75h28.75V7.228L24.772,1.625L24.772,1.625z     "/></g><path d="M22.359,4.623v4.019v1h1h4.015v17.731H4.623V4.623H22.359 M23.359,3.623H3.623v24.75h24.75V8.641h-5.015    L23.359,3.623L23.359,3.623z" fill="#E0E0E0"/></g><path d="M20.939,22.879h2.814c0-8.069-6.564-14.638-14.632-14.638v2.807C15.636,11.047,20.939,16.356,20.939,22.879z M11.07,22.884   c1.079,0,1.951-0.867,1.951-1.942c0-1.069-0.872-1.945-1.951-1.945c-1.075,0-1.948,0.877-1.948,1.945   C9.121,22.017,9.995,22.884,11.07,22.884z M15.965,22.88L15.965,22.88h2.818c0-5.329-4.335-9.664-9.662-9.664v2.806   c1.827,0,3.545,0.714,4.838,2.009C15.252,19.321,15.965,21.046,15.965,22.88z"/></g></svg>