<?xml version="1.0" ?><svg enable-background="new 0 0 32 32" id="Layer_1" version="1.1" viewBox="0 0 32 32" xml:space="preserve" xmlns="http://www.w3.org/2000/svg" xmlns:xlink="http://www.w3.org/1999/xlink"><g id="Outline_Filled"><g><polygon fill="#FF00FF" points="24.359,2.038 24.359,7.641 29.962,7.641   "/><polygon fill="#FFFFFF" points="24.772,1.625 1.625,1.625 1.625,30.375 30.375,30.375 30.375,7.228   "/><g><polygon fill="#999999" points="24.359,2.038 24.359,7.641 29.962,7.641    "/><path d="M24.358,2.625l5.017,5.017v21.733H2.625V2.625H24.358 M24.772,1.625H1.625v28.75h28.75V7.228L24.772,1.625L24.772,1.625z     "/></g><polygon points="3.623,28.372 28.373,28.372 28.373,8.641 23.359,8.641 23.359,3.623 3.623,3.623   "/></g><path d="M16.7,22.205c-2.517,0.134-3.695-0.435-4.775-1.467c-1.205-1.154-0.721-2.469,0.261-2.536   c0.981-0.067,1.571,1.134,2.094,1.469c0.523,0.333,2.513,1.092,3.565-0.135c1.144-1.334-0.761-2.024-2.159-2.233   c-1.995-0.301-4.514-1.401-4.318-3.57c0.196-2.167,1.806-3.278,3.499-3.435c2.159-0.2,3.565,0.333,4.677,1.301   c1.285,1.118,0.59,2.367-0.229,2.468c-0.816,0.1-1.732-1.838-3.531-1.868c-1.855-0.03-3.108,1.968-0.818,2.535   c2.29,0.567,4.743,0.8,5.626,2.935C21.476,19.803,19.219,22.071,16.7,22.205z M23.798,17.126c0.048-0.355,0.075-0.717,0.075-1.084   c0-4.411-3.543-7.988-7.914-7.988c-0.435,0-0.86,0.037-1.275,0.106c-0.743-0.491-1.628-0.778-2.58-0.778   c-2.609,0-4.722,2.145-4.722,4.792c0,0.963,0.279,1.858,0.76,2.609c-0.065,0.411-0.098,0.831-0.098,1.259   c0,4.412,3.542,7.988,7.913,7.988c0.494,0,0.974-0.049,1.441-0.134c0.725,0.456,1.58,0.722,2.497,0.722   c2.609,0,4.722-2.145,4.722-4.792C24.618,18.825,24.316,17.895,23.798,17.126z" fill="#FFFFFF"/></g></svg>