<?xml version="1.0" ?><svg enable-background="new 0 0 32 32" id="Outline_Color" version="1.1" viewBox="0 0 32 32" xml:space="preserve" xmlns="http://www.w3.org/2000/svg" xmlns:xlink="http://www.w3.org/1999/xlink"><g><g><path d="M4,31.5c-1.93,0-3.5-1.57-3.5-3.5V4c0-1.93,1.57-3.5,3.5-3.5h24c1.93,0,3.5,1.57,3.5,3.5v24    c0,1.93-1.57,3.5-3.5,3.5H4z" fill="#FFFFFF"/><path d="M28,1c1.654,0,3,1.346,3,3v24c0,1.654-1.346,3-3,3H4c-1.654,0-3-1.346-3-3V4c0-1.654,1.346-3,3-3H28 M28,0H4    C1.8,0,0,1.8,0,4v24c0,2.2,1.8,4,4,4h24c2.2,0,4-1.8,4-4V4C32,1.8,30.2,0,28,0L28,0z"/></g><path d="M27.437,29.438H4.562c-1.1,0-2-0.9-2-2V4.562c0-1.1,0.9-2,2-2h22.875c1.1,0,2,0.9,2,2v22.875   C29.437,28.538,28.538,29.438,27.437,29.438z"/><path d="M18.65,10.585c0-1.367,2.747-2.075,2.747,0.237c-0.008,1.269-0.182,2.44-0.462,3.513h2.857   C24.009,13.04,24,11.761,24,10.254c0-4.245-8-4.952-8,0.426c0,3.776,1.817,5.763,3.718,6.81C18.135,20.532,16,22.19,16,22.19   c-5.975-4.764-5.397-12.831-5.397-12.831H8c0.049,10.898,5.929,14.718,6.653,15.285c0.722,0.567,0.867,0.52,1.735,0.472   c0.866-0.047,2.841-1.982,5.251-5.659c0.232-0.357,0.441-0.697,0.631-1.028c1.009,0.221,1.73,0.226,1.73,0.226v-2.312   C18.939,15.869,18.65,11.625,18.65,10.585z" fill="#FFFFFF"/></g></svg>