<?xml version="1.0" ?><svg enable-background="new 0 0 32 32" id="Outline_Color" version="1.1" viewBox="0 0 32 32" xml:space="preserve" xmlns="http://www.w3.org/2000/svg" xmlns:xlink="http://www.w3.org/1999/xlink"><g><g><g><path d="M4,31.5c-1.93,0-3.5-1.57-3.5-3.5V4c0-1.93,1.57-3.5,3.5-3.5h24c1.93,0,3.5,1.57,3.5,3.5v24     c0,1.93-1.57,3.5-3.5,3.5H4z" fill="#FFFFFF"/><path d="M28,1c1.654,0,3,1.346,3,3v24c0,1.654-1.346,3-3,3H4c-1.654,0-3-1.346-3-3V4c0-1.654,1.346-3,3-3H28 M28,0H4     C1.8,0,0,1.8,0,4v24c0,2.2,1.8,4,4,4h24c2.2,0,4-1.8,4-4V4C32,1.8,30.2,0,28,0L28,0z"/></g><path d="M27.438,29.438H4.563c-1.1,0-2-0.9-2-2V4.562c0-1.1,0.9-2,2-2h22.875c1.1,0,2,0.9,2,2v22.875    C29.438,28.538,28.538,29.438,27.438,29.438z"/></g><g><path d="M14.289,15.596c0,0,1.678-0.128,1.678-2.136c0-2.007-1.138-2.996-2.878-2.996l-5.961-0.009v11.09h6.099    c0,0,3.05,0.096,3.05-3.327C16.277,18.218,16.501,15.596,14.289,15.596z M9.346,12.118h3.05c0,0,1.044,0.017,1.044,1.37    c0,1.402-1.044,1.402-1.044,1.402h-3.05V12.118z M12.673,19.881H9.346v-3.327h3.327c0,0,1.663,0.017,1.663,1.663    C14.337,19.864,12.913,19.881,12.673,19.881z" fill="#FFFFFF"/><path d="M20.99,13.227c-4.166,0-4.159,4.159-4.159,4.159s-0.277,4.159,4.159,4.159c0,0,3.881,0,3.881-3.327h-2.218    c0,0,0,1.663-1.663,1.663c0,0-1.663,0-1.663-2.218c0,0,4.436,0,5.545,0C24.872,16.554,24.872,13.227,20.99,13.227z M19.327,16.554    c0,0-0.037-1.663,1.663-1.663c1.7,0,1.663,1.663,1.663,1.663H19.327z" fill="#FFFFFF"/><rect fill="#FFFFFF" height="1.109" width="4.436" x="18.772" y="11.564"/></g></g></svg>