<?xml version="1.0" ?><svg enable-background="new 0 0 32 32" version="1.1" viewBox="0 0 32 32" xml:space="preserve" xmlns="http://www.w3.org/2000/svg" xmlns:xlink="http://www.w3.org/1999/xlink"><g id="GLYPH"><g><g><polygon points="29.935,13.935 18.065,2.065 17.958,3.604 28.395,14.043    "/></g><g><polygon points="2.065,18.065 13.937,29.937 14.044,28.395 3.607,17.957    "/></g></g><g><g><g><path d="M30.403,14.403l-2.2,0.155L17.442,3.798l0.154-2.201L16,0L0,16l1.596,1.596l2.202-0.155L14.56,28.202l-0.155,2.203      L16,32l16-16L30.403,14.403z M16.402,21.224c-1.044,0-2.029-0.261-2.895-0.712l-3.393,1.543l0.949-3.799      c-0.593-0.961-0.949-2.101-0.949-3.324c0-3.466,2.812-6.279,6.288-6.279c3.464,0,6.276,2.813,6.276,6.279      C22.678,18.411,19.866,21.224,16.402,21.224z"/></g></g><g><g><path d="M16.402,9.912c-2.776,0-5.031,2.244-5.031,5.021c0,1.258,0.463,2.41,1.222,3.288l-0.688,1.745l1.53-0.973      c0.83,0.617,1.851,0.973,2.966,0.973c2.776,0,5.018-2.255,5.018-5.033C21.42,12.155,19.178,9.912,16.402,9.912z M19.581,17.034      c-0.047,0.249-0.641,0.784-1.104,0.89c-0.996,0.226-2.408-0.57-3.322-1.413c-0.914-0.831-1.827-2.172-1.696-3.181      c0.059-0.463,0.546-1.104,0.783-1.187c0.107-0.024,0.261-0.024,0.403-0.024c0.166,0.012,0.308,0.024,0.356,0.119l0.534,1.389      c0.036,0.107-0.047,0.226-0.154,0.356c-0.154,0.178-0.178,0.19-0.32,0.38c-0.071,0.095-0.024,0.214,0,0.261      c0.154,0.368,0.51,0.784,0.831,1.08c0.332,0.297,0.771,0.617,1.151,0.748c0.024,0,0.166,0.059,0.273,0.036      c0.095-0.012,0.154-0.083,0.237-0.19c0.154-0.19,0.214-0.261,0.344-0.439c0.107-0.131,0.213-0.178,0.32-0.119l1.21,0.558      c0.095,0.047,0.131,0.166,0.143,0.332C19.593,16.773,19.605,16.927,19.581,17.034z"/></g></g></g></g></svg>