<?xml version="1.0" ?><svg id="Icons" viewBox="0 0 48 48" xmlns="http://www.w3.org/2000/svg"><defs><style>.cls-1{fill:#ffe500;}.cls-2{fill:#ebcb00;}.cls-3{fill:#fff48c;}.cls-4{fill:#45413c;opacity:0.15;}.cls-5{fill:none;stroke:#45413c;stroke-linecap:round;stroke-linejoin:round;}.cls-6{fill:#ffaa54;}</style></defs><title/><g data-name="&lt;Group&gt;" id="_Group_"><circle class="cls-1" cx="24" cy="21.5" data-name="&lt;Ellipse&gt;" id="_Ellipse_" r="20"/><path class="cls-2" d="M24,1.5a20,20,0,1,0,20,20A20,20,0,0,0,24,1.5Zm0,37A18.25,18.25,0,1,1,42.25,20.25,18.25,18.25,0,0,1,24,38.5Z" data-name="&lt;Compound Path&gt;" id="_Compound_Path_"/><ellipse class="cls-3" cx="24" cy="5.5" data-name="&lt;Ellipse&gt;" id="_Ellipse_2" rx="6" ry="1.5"/><ellipse class="cls-4" cx="24" cy="45.5" data-name="&lt;Ellipse&gt;" id="_Ellipse_3" rx="16" ry="1.5"/><circle class="cls-5" cx="24" cy="21.5" data-name="&lt;Ellipse&gt;" id="_Ellipse_4" r="20"/><path class="cls-6" d="M38.5,26.5c0,.83-1.12,1.5-2.5,1.5s-2.5-.67-2.5-1.5S34.62,25,36,25,38.5,25.67,38.5,26.5Z" data-name="&lt;Path&gt;" id="_Path_"/><path class="cls-6" d="M9.5,26.5c0,.83,1.12,1.5,2.5,1.5s2.5-.67,2.5-1.5S13.38,25,12,25,9.5,25.67,9.5,26.5Z" data-name="&lt;Path&gt;" id="_Path_2"/><path class="cls-1" d="M15.63,42.78a7.59,7.59,0,0,0,10.73,0l6.13-6.13A1.75,1.75,0,0,0,30,34.18l2.12-2.12a1.75,1.75,0,1,0-2.47-2.48l.71-.71a1.75,1.75,0,1,0-2.48-2.47l-1.41,1.41A1.75,1.75,0,1,0,24,25.34l-5.83,5.83-.45-3.67a1.63,1.63,0,0,0-3,.25L13.24,32.2A10.16,10.16,0,0,0,15.63,42.78Z" data-name="&lt;Path&gt;" id="_Path_3"/><path class="cls-2" d="M32.18,33.93l-5.82,5.81a7.57,7.57,0,0,1-10.73,0,10.18,10.18,0,0,1-2.86-5.66,10.14,10.14,0,0,0,2.86,8.7,7.59,7.59,0,0,0,10.73,0l6.13-6.13a1.75,1.75,0,0,0,0-2.47A1.79,1.79,0,0,0,32.18,33.93Z"/><line class="cls-5" data-name="&lt;Path&gt;" id="_Path_4" x1="26.65" x2="22.41" y1="27.64" y2="31.88"/><line class="cls-5" data-name="&lt;Path&gt;" id="_Path_5" x1="29.84" x2="24.89" y1="29.4" y2="34.35"/><line class="cls-5" data-name="&lt;Path&gt;" id="_Path_6" x1="30.19" x2="27.36" y1="34" y2="36.83"/><path class="cls-5" d="M32.5,19.5s.17-2,2-2,2,2,2,2" data-name="&lt;Path&gt;" id="_Path_7"/><path class="cls-5" d="M11.5,19.5s.17-2,2-2,2,2,2,2" data-name="&lt;Path&gt;" id="_Path_8"/><path class="cls-5" d="M15.63,42.78a7.59,7.59,0,0,0,10.73,0l6.13-6.13A1.75,1.75,0,0,0,30,34.18l2.12-2.12a1.75,1.75,0,1,0-2.47-2.48l.71-.71a1.75,1.75,0,1,0-2.48-2.47l-1.41,1.41A1.75,1.75,0,1,0,24,25.34l-5.83,5.83-.45-3.67a1.63,1.63,0,0,0-3,.25L13.24,32.2A10.16,10.16,0,0,0,15.63,42.78Z" data-name="&lt;Path&gt;" id="_Path_9"/></g></svg>