<?xml version="1.0" ?><svg data-name="Layer 1" id="Layer_1" viewBox="0 0 100 100" xmlns="http://www.w3.org/2000/svg"><defs><style>.cls-1{fill:#1a1818;}</style></defs><title/><path class="cls-1" d="M50,9.65A40.35,40.35,0,1,0,90.35,50,40.39,40.39,0,0,0,50,9.65Zm0,70.7A30.35,30.35,0,1,1,80.35,50,30.39,30.39,0,0,1,50,80.35Z"/><circle class="cls-1" cx="61.02" cy="39.33" r="5.5"/><circle class="cls-1" cx="38.98" cy="39.33" r="5.5"/><path class="cls-1" d="M34.65,53.67A15,15,0,0,0,35,56.84l.18.76a15.82,15.82,0,0,0,.7,2c.09.23.2.45.31.68s.16.34.25.5c.18.35.38.68.58,1l.41.61.45.61.48.59.51.56c.17.19.35.36.53.54a15.32,15.32,0,0,0,21.24,0c.18-.18.36-.35.53-.54l.51-.56.48-.59.45-.61.41-.61c.2-.33.4-.66.58-1,.09-.16.17-.33.25-.5s.21-.45.31-.68a15.82,15.82,0,0,0,.7-2l.18-.76a15,15,0,0,0,.33-3.17ZM50,67a13.26,13.26,0,0,1-9.08-3.57,15.3,15.3,0,0,1,18.16,0A13.27,13.27,0,0,1,50,67Z"/></svg>