<?xml version="1.0" ?><svg baseProfile="tiny" id="Layer_1" overflow="scroll" version="1.1" viewBox="0 0 24 24" xml:space="preserve" xmlns="http://www.w3.org/2000/svg" xmlns:xlink="http://www.w3.org/1999/xlink"><path d="M12,0.5C5.7021484,0.5,0.578125,5.6591797,0.578125,12c0,1.9658203,0.5083008,3.9042969,1.4736328,5.6279297  l-1.2753906,4.6748047c-0.0673828,0.2460938-0.0043945,0.5107422,0.1669922,0.7001953  c0.171875,0.1894531,0.4272461,0.28125,0.6801758,0.2373047l5.394043-0.8994141C8.5864258,23.1103516,10.2612305,23.5,12,23.5  c6.2978516,0,11.421875-5.1591797,11.421875-11.5S18.2978516,0.5,12,0.5z M12,22  c-1.5800781,0-3.1010742-0.3720703-4.5200195-1.1054688c-0.1069336-0.0556641-0.2250977-0.0839844-0.3442383-0.0839844  c-0.0410156,0-0.0825195,0.0029297-0.1235352,0.0097656l-4.4804688,0.7470703l1.0493164-3.8466797  c0.0537109-0.1962891,0.0249023-0.40625-0.0795898-0.5820313C2.5703125,15.5791016,2.078125,13.8027344,2.078125,12  C2.078125,6.4863281,6.5292969,2,12,2s9.921875,4.4863281,9.921875,10S17.4707031,22,12,22z" fill="#1D1D1D"/><path d="M16.4868164,11.3154297c-0.2700195-0.2666016-0.6943359-0.2890625-0.9902344-0.0546875l-0.9375,0.7382813  l-2.6318359-2.6328125l0.6943359-0.9648438c0.2163086-0.3007813,0.1811523-0.7128906-0.0820313-0.9726563L9.9086914,4.8378906  c-0.2768555-0.2734375-0.71875-0.2871094-1.0141602-0.0351563C8.8540039,4.8369141,8.4580078,5.1650391,8.043457,5.5078125  C7.5424805,5.9228516,7.0166016,6.3613281,6.9960938,6.3808594c-0.5541992,0.5458984-0.847168,1.2509766-0.847168,2.0400391  c0,1.9873047,1.8432617,4.21875,3.3891602,5.7412109c2.2485352,2.2138672,4.2446289,3.34375,5.8310547,3.34375  c0.7822266,0,1.4648438-0.2753906,2.0288086-0.8300781c0.0522461-0.0498047,0.0522461-0.0498047,1.0161133-1.2871094  c0.2739258-0.3515625,0.5092773-0.6533203,0.515625-0.6630859c0.2680664-0.2988281,0.2543945-0.7548828-0.03125-1.0361328  L16.4868164,11.3154297z M17.230957,14.4667969c-0.3945313,0.5058594-0.8681641,1.1142578-0.875,1.1298828  c-1.4941406,1.4707031-4.7910156-1.5439453-5.7651367-2.5029297c-1.8696289-1.8408203-2.9418945-3.5439453-2.9418945-4.6728516  c0-0.3935547,0.1269531-0.703125,0.362793-0.9375c0.0478516-0.0400391,0.5297852-0.4394531,0.9887695-0.8203125  c0.1166992-0.0966797,0.2319336-0.1923828,0.3388672-0.28125l1.6894531,1.6640625l-0.6918945,0.9609375  c-0.2148438,0.2988281-0.1816406,0.7089844,0.0786133,0.96875l3.5541992,3.5546875  c0.2685547,0.2675781,0.6958008,0.2939453,0.9941406,0.0585938l0.9414063-0.7412109l1.4643555,1.4414063  C17.324707,14.3466797,17.2783203,14.40625,17.230957,14.4667969z" fill="#1D1D1D"/></svg>