<?xml version="1.0" ?><svg baseProfile="tiny" id="Layer_1" overflow="scroll" version="1.1" viewBox="0 0 24 24" xml:space="preserve" xmlns="http://www.w3.org/2000/svg" xmlns:xlink="http://www.w3.org/1999/xlink"><path d="M9.5927734,19.4853516c0.8583984,0,1.7705078-0.1318359,2.7060547-0.4667969  c4.4726563-1.6005859,6.453125-4.7900391,6.4316406-7.2421875C18.7236328,10.9628906,18.7841797,9.9257813,18.8125,9.5  l1.5253906-2.2802734c0.1542969-0.2304688,0.1689453-0.5273438,0.0380859-0.7714844s-0.3847656-0.3955078-0.6611328-0.3955078  c-0.0009766,0-0.0019531,0-0.0029297,0l-2.0517578,0.0087891c-0.4833984-0.5302734-1.6123047-1.4140625-3.5712891-1.1630859  c-1.8984375,0.2490234-2.9873047,1.5507813-2.9873047,3.5712891c0,0.1435547,0.0039063,0.2841797,0.0107422,0.4160156  c-0.8691406-0.1269531-2.0244141-0.3691406-2.6621094-0.7626953C7.3115234,7.421875,6.1210938,5.9648438,6.109375,5.9501953  C5.9345703,5.7353516,5.6552734,5.6367188,5.3837891,5.6865234C5.1113281,5.7402344,4.890625,5.9384766,4.8095703,6.2041016  c-0.0185547,0.0615234-1.7597656,6.0039063,3.3564453,9.0224609C7.90625,15.6650391,7.4404297,16.21875,6.7089844,16.3007813  c-1.4912109,0.1640625-2.1816406-0.0546875-2.1826172-0.0546875c-0.3496094-0.1298828-0.7392578,0.0117188-0.9199219,0.3388672  c-0.1796875,0.3251953-0.0947266,0.7333984,0.2011719,0.9589844C3.9365234,17.6425781,6.3925781,19.4853516,9.5927734,19.4853516z   M9.8574219,15.1191406c0.1083984-0.3525391-0.0566406-0.7314453-0.3876953-0.8935547  c-3.2460938-1.5839844-3.5888672-4.4521484-3.4619141-6.1738281c0.4746094,0.4677734,1.0595703,0.9814453,1.6552734,1.3486328  c1.3808594,0.8505859,3.9423828,1.0625,4.2294922,1.0839844c0.2324219,0.0126953,0.4541016-0.0722656,0.609375-0.2421875  s0.2236328-0.4013672,0.1865234-0.6279297c-0.0009766-0.0058594-0.0869141-0.53125-0.0869141-1.1445313  c0-1.2890625,0.5185547-1.9316406,1.6816406-2.0830078c1.6904297-0.2285156,2.3505859,0.7773438,2.3730469,0.8115234  C16.7919922,7.4238281,17.0361328,7.5625,17.2998047,7.5625c0.0009766,0,0.0019531,0,0.0029297,0l1.0039063-0.0039063  l-0.8515625,1.2734375c-0.0722656,0.1074219-0.1152344,0.2324219-0.125,0.3613281  c-0.0039063,0.0605469-0.109375,1.4882813-0.0996094,2.5966797c0.0166016,1.9208984-1.6582031,4.4638672-5.4375,5.8164063  c-1.5654297,0.5585938-3.0859375,0.4111328-4.3125,0.0576172C9.2265625,17.1132813,9.8300781,15.2080078,9.8574219,15.1191406z" fill="#1D1D1D"/><path d="M22.75,0.5166016H1.25c-0.4140625,0-0.75,0.3359375-0.75,0.75v21.4667969  c0,0.4140625,0.3359375,0.75,0.75,0.75h21.5c0.4140625,0,0.75-0.3359375,0.75-0.75V1.2666016  C23.5,0.8525391,23.1640625,0.5166016,22.75,0.5166016z M22,21.9833984H2V2.0166016h20V21.9833984z" fill="#1D1D1D"/></svg>