<?xml version="1.0" ?><svg baseProfile="tiny" id="Layer_1" overflow="scroll" version="1.1" viewBox="0 0 24 24" xml:space="preserve" xmlns="http://www.w3.org/2000/svg" xmlns:xlink="http://www.w3.org/1999/xlink"><path d="M6.25,12.75H5.5V7.5c0-0.4140625-0.3359375-0.75-0.75-0.75S4,7.0859375,4,7.5v6  c0,0.4140625,0.3359375,0.75,0.75,0.75h1.5C6.6640625,14.25,7,13.9140625,7,13.5S6.6640625,12.75,6.25,12.75z" fill="#1D1D1D"/><path d="M9.25,6.75C8.8359375,6.75,8.5,7.0859375,8.5,7.5v6c0,0.4140625,0.3359375,0.75,0.75,0.75  S10,13.9140625,10,13.5v-6C10,7.0859375,9.6640625,6.75,9.25,6.75z" fill="#1D1D1D"/><path d="M14.75,6.75C14.3359375,6.75,14,7.0859375,14,7.5v2.25l-1.0576172-2.5380859  c-0.1376953-0.3310547-0.4887695-0.5185547-0.8393555-0.4472656C11.7524414,6.8349609,11.5,7.1425781,11.5,7.5v6  c0,0.4140625,0.3359375,0.75,0.75,0.75S13,13.9140625,13,13.5v-2.25l1.0576172,2.5380859  C14.1757813,14.0722656,14.4516602,14.25,14.7495117,14.25c0.0488281,0,0.0981445-0.0048828,0.1474609-0.0146484  C15.2475586,14.1650391,15.5,13.8574219,15.5,13.5v-6C15.5,7.0859375,15.1640625,6.75,14.75,6.75z" fill="#1D1D1D"/><path d="M19.25,8.25C19.6640625,8.25,20,7.9140625,20,7.5s-0.3359375-0.75-0.75-0.75h-1.5  C17.3359375,6.75,17,7.0859375,17,7.5v6c0,0.4140625,0.3359375,0.75,0.75,0.75h1.5c0.4140625,0,0.75-0.3359375,0.75-0.75  s-0.3359375-0.75-0.75-0.75H18.5v-1.5h0.25c0.4140625,0,0.75-0.3359375,0.75-0.75s-0.3359375-0.75-0.75-0.75H18.5v-1.5H19.25z" fill="#1D1D1D"/><path d="M12,0.5566406c-7.2011719,0-11.5,3.7167969-11.5,9.9433594c0,8.3769531,4.9599609,9.6064453,10.25,9.8886719  V23c0,0.2871094,0.1640625,0.5488281,0.4223633,0.6748047C11.2763672,23.7255859,11.3881836,23.75,11.5,23.75  c0.1650391,0,0.3286133-0.0546875,0.4633789-0.1601563l5.5463867-4.3574219  c0.5698242-0.2587891,1.1079102-0.4433594,1.6289063-0.6210938C21.9243164,17.6572266,23.5,16.8105469,23.5,10.5  C23.5,1.5869141,16.9370117,0.5566406,12,0.5566406z M18.652832,17.1914063  c-0.5541992,0.1904297-1.1821289,0.4052734-1.8520508,0.7158203c-0.0527344,0.0244141-0.1025391,0.0546875-0.1479492,0.0908203  L12.25,21.4570313V19.671875c0-0.4023438-0.3178711-0.7333984-0.7207031-0.7490234C6.1303711,18.7099609,2,17.9550781,2,10.5  c0-7.6210938,6.9931641-8.4433594,10-8.4433594c7.0092773,0,10,2.5253906,10,8.4433594  C22,16.0458984,20.8813477,16.4287109,18.652832,17.1914063z" fill="#1D1D1D"/></svg>