<?xml version="1.0" ?><svg viewBox="0 0 64.38 62.54" xmlns="http://www.w3.org/2000/svg"><defs><style>.cls-1{fill:none;stroke:#373535;stroke-linecap:round;stroke-miterlimit:10;}</style></defs><title/><g data-name="Layer 2" id="Layer_2"><g data-name="Layer 1" id="Layer_1-2"><path class="cls-1" d="M.5,44.57v-4a4.05,4.05,0,0,1,4.05-4.05H59.83a4.05,4.05,0,0,1,4.05,4.05v4.86"/><path class="cls-1" d="M63.88,55.74V58A4.05,4.05,0,0,1,59.83,62H4.55A4.05,4.05,0,0,1,.5,58v-8.7"/><line class="cls-1" x1="63.88" x2="63.88" y1="49.73" y2="53.51"/><line class="cls-1" x1="57.3" x2="57.3" y1="12.91" y2="16.48"/><path class="cls-1" d="M21.36.5H53.24A4.05,4.05,0,0,1,57.3,4.55v5.91"/><line class="cls-1" x1="14.9" x2="18.13" y1="0.5" y2="0.5"/><path class="cls-1" d="M57.3,21.83V36.38H7.08V4.55A4.05,4.05,0,0,1,11.14.5"/><rect class="cls-1" height="28.53" rx="3.11" ry="3.11" width="42.16" x="11.11" y="4.18"/><line class="cls-1" x1="7.08" x2="7.08" y1="60.05" y2="62.04"/><line class="cls-1" x1="7.08" x2="7.08" y1="48.86" y2="56.49"/><line class="cls-1" x1="10.99" x2="10.99" y1="52.67" y2="62.04"/><line class="cls-1" x1="10.99" x2="10.99" y1="48.86" y2="50.6"/><line class="cls-1" x1="14.9" x2="14.9" y1="56.49" y2="62.04"/><line class="cls-1" x1="14.9" x2="14.9" y1="48.86" y2="54.01"/><line class="cls-1" x1="18.81" x2="18.81" y1="60.05" y2="62.04"/><line class="cls-1" x1="18.81" x2="18.81" y1="48.86" y2="56.49"/><circle class="cls-1" cx="9.04" cy="43.03" r="1.95"/><line class="cls-1" x1="40.37" x2="57.3" y1="49.28" y2="49.28"/><line class="cls-1" x1="54.24" x2="57.3" y1="52.67" y2="52.67"/><line class="cls-1" x1="40.37" x2="51.27" y1="52.67" y2="52.67"/><line class="cls-1" x1="34.23" x2="39.18" y1="9.35" y2="9.35"/><line class="cls-1" x1="14.9" x2="30.27" y1="9.35" y2="9.35"/><line class="cls-1" x1="25.52" x2="39.18" y1="12.91" y2="12.91"/><line class="cls-1" x1="14.9" x2="21.36" y1="12.91" y2="12.91"/><line class="cls-1" x1="14.9" x2="34.23" y1="16.48" y2="16.48"/><line class="cls-1" x1="14.9" x2="27.89" y1="20.04" y2="20.04"/></g></g></svg>