<?xml version="1.0" ?><svg viewBox="0 0 78.61 55.21" xmlns="http://www.w3.org/2000/svg"><defs><style>.cls-1{fill:none;stroke:#373535;stroke-linecap:round;stroke-miterlimit:10;}</style></defs><title/><g data-name="Layer 2" id="Layer_2"><g data-name="Layer 1" id="Layer_1-2"><path class="cls-1" d="M69.68,54.71h4.08a4.35,4.35,0,0,0,4.35-4.35V29.18a.53.53,0,0,0-.53-.53H60"/><line class="cls-1" x1="62.39" x2="65.68" y1="54.71" y2="54.71"/><path class="cls-1" d="M23.3,54.71h7.59a2.66,2.66,0,0,0,2.38-1.47L36.4,47a3.25,3.25,0,0,1,5.81,0l3.12,6.24a2.66,2.66,0,0,0,2.38,1.47H60"/><line class="cls-1" x1="14.8" x2="18.61" y1="54.71" y2="54.71"/><path class="cls-1" d="M43.8,28.65H1a.53.53,0,0,0-.53.53V50.35a4.35,4.35,0,0,0,4.35,4.35h7.33"/><line class="cls-1" x1="53.93" x2="47.43" y1="28.65" y2="28.65"/><line class="cls-1" x1="19.97" x2="11.51" y1="16.32" y2="28.65"/><line class="cls-1" x1="23.3" x2="21.75" y1="11.47" y2="13.73"/><path class="cls-1" d="M15.74,8l4.7-6.37A2.79,2.79,0,0,1,22.68.5h6.46a2.79,2.79,0,0,1,2.79,2.79V4.91a2.79,2.79,0,0,1-2.79,2.79H27.36a2.79,2.79,0,0,0-2.3,1.21"/><line class="cls-1" x1="9.95" x2="13.81" y1="15.85" y2="10.62"/><line class="cls-1" x1="0.5" x2="8.43" y1="28.65" y2="17.9"/><line class="cls-1" x1="64.03" x2="67.1" y1="24.18" y2="28.65"/><path class="cls-1" d="M65.68,11.81,58.16,1.63A2.79,2.79,0,0,0,55.92.5H49.46a2.79,2.79,0,0,0-2.79,2.79V4.91a2.79,2.79,0,0,0,2.79,2.79h1.79a2.79,2.79,0,0,1,2.3,1.21l8.85,12.89"/><line class="cls-1" x1="69.47" x2="67.1" y1="16.95" y2="13.73"/><line class="cls-1" x1="78.11" x2="71.89" y1="28.65" y2="20.22"/><line class="cls-1" x1="18.62" x2="20.68" y1="35.19" y2="35.19"/><path class="cls-1" d="M13.81,48.16H9.58a2.86,2.86,0,0,1-2.86-2.86V38.06a2.86,2.86,0,0,1,2.86-2.86h6.16"/><path class="cls-1" d="M25.18,35.19h2.47a2.86,2.86,0,0,1,2.86,2.86v7.24a2.86,2.86,0,0,1-2.86,2.86H15.74"/><line class="cls-1" x1="57.18" x2="59.99" y1="35.19" y2="35.19"/><path class="cls-1" d="M66.3,48.16H51a2.86,2.86,0,0,1-2.86-2.86V38.06A2.86,2.86,0,0,1,51,35.19h3.72"/><path class="cls-1" d="M71.89,45.29A2.86,2.86,0,0,1,69,48.16"/><path class="cls-1" d="M64,35.19h5a2.86,2.86,0,0,1,2.86,2.86v5.44"/></g></g></svg>