<?xml version="1.0" ?><svg id="Message_And_Communication_Icons" style="enable-background:new 0 0 50 50;" version="1.1" viewBox="0 0 50 50" xml:space="preserve" xmlns="http://www.w3.org/2000/svg" xmlns:xlink="http://www.w3.org/1999/xlink"><g><g><g><g><path d="M32.8,6.2l-0.7,4l11.7,2.1c0.2,0,0.4,0.3,0.4,0.5l-5.1,28.9c0,0.2-0.3,0.4-0.5,0.4      c0,0-9.2-1.6-9.8-1.7s-0.4,0.2-0.3,0.3c0.1,0.3,0.2,0.7,0.1,1c-0.2,1.1-1.2,1.8-2.3,1.6l-0.4,2l15.3,2.7l6.9-39.1L32.8,6.2z" style="fill:#4DE0F9;"/></g></g><g><g><path d="M40.7,47.1l-29.3-5.2L18.3,3l29.3,5.2L40.7,47.1z M12.8,41l26.9,4.7l6.4-36.6L19.2,4.4L12.8,41z" style="fill:#0D5FC3;"/></g></g><g><g><g><rect height="1.2" style="fill:#0D5FC3;" transform="matrix(0.9848 0.1737 -0.1737 0.9848 1.9841 -5.4995)" width="3.8" x="30.5" y="8"/></g></g></g><g><g><path d="M26.6,42.8c-0.1,0-0.2,0-0.3,0c-0.8-0.1-1.3-0.9-1.2-1.7c0.1-0.8,0.9-1.3,1.7-1.2      c0.8,0.1,1.3,0.9,1.2,1.7l0,0C27.9,42.3,27.3,42.8,26.6,42.8z M26.6,41c-0.1,0-0.2,0.1-0.3,0.2c0,0.1,0.1,0.3,0.2,0.3      c0.1,0,0.3-0.1,0.3-0.2v0C26.9,41.2,26.8,41.1,26.6,41C26.6,41,26.6,41,26.6,41z" style="fill:#0D5FC3;"/></g></g><g><g><rect height="26.4" style="fill:#0D5FC3;" transform="matrix(0.9847 0.1742 -0.1742 0.9847 4.2573 -2.6754)" width="1.2" x="16.8" y="9.7"/></g></g></g><g><g><rect height="1.2" style="fill:#0D5FC3;" width="10.5" x="1.6" y="40.8"/></g></g><g><g><rect height="1.2" style="fill:#0D5FC3;" width="6.5" x="6" y="38.4"/></g></g><g><g><rect height="1.2" style="fill:#0D5FC3;" width="3.2" x="9.7" y="36.1"/></g></g><g><g><rect height="1.2" style="fill:#0D5FC3;" width="1.8" x="7.5" y="32.9"/></g></g></g></svg>