<?xml version="1.0" ?><svg enable-background="new 0 0 52 52" id="Layer_1" version="1.1" viewBox="0 0 52 52" xml:space="preserve" xmlns="http://www.w3.org/2000/svg" xmlns:xlink="http://www.w3.org/1999/xlink"><g><g><path d="M32.9419556,23.1282349c0-1.9008789-0.7246094-3.6938477-2.0410156-5.0488281    c-1.3144531-1.3364258-3.0566406-2.074707-4.9003906-2.074707c-3.8271484,0-6.9404297,3.1958008-6.9404297,7.1235352v1.461731    h13.8818359V23.1282349z"/></g><g><path d="M2,2v8.0046997h48V2H2z M11.0005493,8.0046997h-4v-2h4V8.0046997z M21.0005493,8.0046997h-4v-2h4    V8.0046997z M45.0005493,8.0046997h-9v-2h9V8.0046997z" fill="#3A92CC"/></g><g><path d="M26,30c-2.1300049,0-3.8699951,1.7299805-3.8699951,3.8699951c0,1.1699829,0.539978,2.2699585,1.4400024,3v3.7299805    h4.8699951v-3.7299805c0.8900146-0.7300415,1.4299927-1.8300171,1.4299927-3C29.8699951,31.7299805,28.1300049,30,26,30z"/></g><g><path d="M2,50h48V12.0046997H2V50z M17.0601196,24.5899658v-1.461731c0-5.0307617,4.0107422-9.1235352,8.9404297-9.1235352    c2.3847656,0,4.6328125,0.9506836,6.3300781,2.6767578c1.6855469,1.7348633,2.6113281,4.0224609,2.6113281,6.4467773v1.461731    h4.2980347V46H12.8099976l-0.0499878-21.4100342H17.0601196z"/></g></g></svg>