<?xml version="1.0" ?><svg enable-background="new 0 0 52 52" id="Layer_1" version="1.1" viewBox="0 0 52 52" xml:space="preserve" xmlns="http://www.w3.org/2000/svg" xmlns:xlink="http://www.w3.org/1999/xlink"><g><path d="M26,4C13.8600464,4,4,13.8599854,4,26c0,12.1300049,9.8600464,22,22,22c12.1300049,0,22-9.8699951,22-22   C48,13.8599854,38.1300049,4,26,4z M34.3300171,32.5100098c-1.2999878,2.7800293-3.6499634,5.0200195-6.9899902,6.6599731   l-0.6799927,0.3400269l-0.5-0.5599976c-0.2200317-0.25-4.7299805-5.3499756-3.25-10.9799805   c-1.3300171,0.9599609-2.7700195,2.789978-2.5599976,6.1699829c0.0100098,0.2199707,0.0299683,0.4400024,0.0599976,0.6699829   l0.0100098,0.1199951v4.6300049l-2.8200073-2.4299927c-3.2399902-3.3200073-4.7700195-6.8699951-4.5-10.3300171   c0.3099976-3.8899536,2.8499756-7.6399536,7.539978-11.1399536c0.5100098-0.4700317,3.5400391-2.9500122,11.0900269-2.9500122   h1.7299805l-0.8599854,1.5c-0.0400391,0.0700073-3.5800171,6.3499756,0.1300049,10.5   C34.9200439,27.1500244,35.5,30,34.3300171,32.5100098z"/></g></svg>