<?xml version="1.0" ?><svg enable-background="new 0 0 52 52" id="Layer_1" version="1.1" viewBox="0 0 52 52" xml:space="preserve" xmlns="http://www.w3.org/2000/svg" xmlns:xlink="http://www.w3.org/1999/xlink"><g><g><path d="M21.9989624,14.0064087V4.0002441h27v-2h-29v12.0045166L14,13.9997559v4.6199951L2,14.6397705V39.40979l12-3.9900513    v4.5800171l6.9971313,0.008667c-0.0490112-0.4731445-0.0772705-0.9525146-0.0772705-1.4388428    c0-3.1660156,1.1289063-6.296875,3.1210938-8.7148438v-3.4072266c0-5.7607422,4.4296875-10.4472656,9.875-10.4472656    s9.875,4.6865234,9.875,10.4472656v3.4072266c1.9970703,2.4179688,3.1289063,5.5498047,3.1289063,8.7148438    c0,0.4933472-0.0298462,0.9793091-0.0802612,1.4590454L50,40.0297852v-26L21.9989624,14.0064087z"/></g><g><path d="M41.7909546,26.4475098c0-4.6582031-3.5322266-8.4472656-7.875-8.4472656    s-7.875,3.7890625-7.875,8.4472656v4.1594238c-1.9874268,2.1243286-3.1209717,4.9937134-3.1209717,7.9628296    c0,6.2999878,4.9299927,11.4299927,11,11.4299927c6.0599976,0,11-5.1300049,11-11.4299927    c0-2.9725952-1.1450806-5.8452759-3.1290283-7.961792V26.4475098z M36.1699829,40.0197754v3.4599609h-4.5v-3.4599609    c-0.789978-0.6700439-1.25-1.6900024-1.25-2.7600098c0-1.9899902,1.5700073-3.6099854,3.5-3.6099854s3.5,1.6199951,3.5,3.6099854    C37.4199829,38.3297729,36.9499512,39.3497314,36.1699829,40.0197754z M39.7909546,28.9006348    c-0.0093994-0.0068359-0.0188599-0.0128784-0.0282593-0.0188599c-0.0009766-0.0006104-0.00177-0.0014038-0.0027466-0.0020142    c-2.3612671-1.553833-5.2926636-2.0270386-8.020813-1.472229c-1.2930298,0.2623901-2.545166,0.7348633-3.6630249,1.4696655    c-0.0117188,0.0078125-0.0234375,0.015625-0.0351563,0.0234375v-2.453125c0-3.5546875,2.6357422-6.4472656,5.875-6.4472656    s5.875,2.8925781,5.875,6.4472656V28.9006348z" fill="#3A92CC"/></g></g></svg>