<?xml version="1.0" ?><svg enable-background="new 0 0 52 52" id="Layer_1" version="1.1" viewBox="0 0 52 52" xml:space="preserve" xmlns="http://www.w3.org/2000/svg" xmlns:xlink="http://www.w3.org/1999/xlink"><g><path d="M46.6579857,32.2900085L32.7079735,19.769989   c-2.6500244-2.3800049-4.9400024-5.4400024-6.9899902-9.3499756c-0.5100098-0.9699707-1.1699829-1.8699951-1.960022-2.6500244   c-2.0800171-2.0799561-4.8499756-3.2299805-7.8099985-3.2299805c-0.3999634,0-0.7999878,0.0300293-1.1799927,0.0700073   c-0.1799927,0.0100098-0.3599854,0.039978-0.6199951,0.0800171l0.0020142,0.0182495l-0.9508057-0.1554565l-0.5683594,2.5141602   l-2.4755859-1.1660156l-0.0927734,3.387207L7.5097308,8.1460876l0.5576167,3.7568359l-3.7871089,0.9804688l0.4059448,1.4462891   l-0.0281982,0.0003052l-0.0300293,0.3400269c-0.2099609,3.25,1.0599976,6.6699829,3.3099976,8.9199829   c0.7900386,0.7800293,1.6799922,1.4400024,2.6600337,1.9500122c3.8999634,2.0499878,6.9500132,4.3300171,9.329957,6.9799805   l12.3900146,13.8099976c0.6400146,0.710022,1.5700073,1.1300049,2.5400391,1.1300049   c0.9199829,0,1.789978-0.3599854,2.4499512-1.0199585l9.460022-9.460022c0.6300049-0.6300049,0.9799805-1.5,0.9500122-2.3900146   C47.6979637,33.7000427,47.3179588,32.8800354,46.6579857,32.2900085z M19.4579735,18.269989   c-1.3300171,1.6199951-3.2800293,2.5500488-5.3400278,2.5500488c-1.7999878,0-3.4799805-0.6900024-4.75-1.960022   c-0.7805786-0.7806396-1.5867915-1.8030396-2.1191401-2.8009644L6.7568011,14.308197l3.5527339-0.9199219l-0.2861328-1.9267578   l1.9570313,0.8754883l0.0908203-3.3227539l1.9599609,0.9238281l0.703125-3.1079102l1.3181772,0.2154541   c0.2202148,0.0919189,0.4418335,0.1973877,0.6654663,0.3244019c0.5599976,0.3200073,1.1499634,0.75,1.75,1.289978   C21.3279686,11.230011,21.7579613,15.4500427,19.4579735,18.269989z M35.5644188,40.4878845l-1.7734375-6.2304688   l-3.7519531,1.7075195l-1.7431641-8.4404297l1.9589844-0.4042969L31.4902,33.1065369l3.5878906-1.6323242l2.4101563,8.4658203   L35.5644188,40.4878845z" fill="#3A92CC"/></g></svg>