<?xml version="1.0" ?><svg enable-background="new 0 0 52 52" id="Layer_1" version="1.1" viewBox="0 0 52 52" xml:space="preserve" xmlns="http://www.w3.org/2000/svg" xmlns:xlink="http://www.w3.org/1999/xlink"><g><g><polygon points="48.4050903,2 3.2740479,2 25.9968262,18.7584839   "/></g><g><path d="M25.9968262,21.2457886L2,3.5461426V34h16.9863281l-0.0236816-5.9998169h4.7421875    c0.3369141-5.5717773,4.8242188-9.9980469,10.2919922-9.9980469c2.7714844,0,5.3769531,1.1259766,7.3369141,3.1699219    c1.7675781,1.8647461,2.8007813,4.265625,2.9550781,6.828125h4.7109375V34H50V3.3039551L25.9968262,21.2457886z"/></g><g><path d="M42.3093262,28.6744995c0-2.2993164-0.8574219-4.4707031-2.4189453-6.1181641    c-1.5791016-1.6469727-3.671875-2.5541992-5.8935547-2.5541992c-4.5839844,0-8.3125,3.890625-8.3125,8.6723633V30h-4.7143555    l0.0800171,20H47V30h-4.6906738V28.6744995z M36.6199951,42.5900269V46.75h-5.25v-4.1599731    C30.3599854,41.8000488,29.75,40.5599976,29.75,39.25c0-2.3399658,1.8999634-4.25,4.25-4.25c2.3399658,0,4.25,1.9100342,4.25,4.25    C38.25,40.5599976,37.6400146,41.8000488,36.6199951,42.5900269z M40.3093262,30h-12.625v-1.3255005    c0-3.6791992,2.8320313-6.6723633,6.3125-6.6723633c1.6708984,0,3.2519531,0.6884766,4.4462891,1.934082    c1.203125,1.2700195,1.8662109,2.953125,1.8662109,4.7382813V30z" fill="#3A92CC"/></g></g></svg>