<?xml version="1.0" ?><svg enable-background="new 0 0 52 52" id="Layer_1" version="1.1" viewBox="0 0 52 52" xml:space="preserve" xmlns="http://www.w3.org/2000/svg" xmlns:xlink="http://www.w3.org/1999/xlink"><g><g><path d="M28.7800293,21.7116089c-1.7300415,0-3.1400146,1.4099731-3.1400146,3.1399536    c0,1.7399902,1.4099731,3.1500244,3.1400146,3.1500244c1.7299805,0,3.1399536-1.4100342,3.1399536-3.1500244    C31.9199829,23.121582,30.5100098,21.7116089,28.7800293,21.7116089z" fill="#3A92CC"/></g><g><path d="M37.4100342,22.0015869c-0.3099976,0-0.4400024-0.2299805-0.4800415-0.3200073    c-0.039978-0.0999756-0.0999756-0.3400269,0.1100464-0.5599976c0.9799805-0.9799805,0.9799805-2.5800171,0-3.5599976    l-0.6800537-0.6799927c-0.9499512-0.9500122-2.6099854-0.9500122-3.5599976,0    c-0.1999512,0.2000122-0.5299683,0.1900024-0.7199707,0c-0.1099854-0.0900269-0.1600342-0.2200317-0.1600342-0.3699951    c0-1.3900146-1.1299438-2.5100098-2.5099487-2.5100098h-0.9700317c-1.3900146,0-2.5200195,1.1199951-2.5200195,2.5100098    c0,0.3800049-0.3199463,0.5199585-0.5199585,0.5199585c-0.1400146,0-0.25-0.0499878-0.3599854-0.1499634    c-0.9500122-0.9500122-2.6000366-0.9500122-3.5500488,0l-0.6900024,0.6799927    c-0.9799805,0.9799805-0.9799805,2.5800171,0,3.5599976c0.2200317,0.2199707,0.1500244,0.460022,0.1100464,0.5599976    c-0.0400391,0.0900269-0.1600342,0.3200073-0.4700317,0.3200073c-1.3900146,0-2.5200195,1.1199951-2.5200195,2.5100098v0.9699707    c0,1.3900146,1.1300049,2.5200195,2.5200195,2.5200195c0.3099976,0,0.4299927,0.2199707,0.4700317,0.3099976    c0.039978,0.0999756,0.1099854,0.3499756-0.1100464,0.5700073c-0.9799805,0.9799805-0.9799805,2.5700073,0,3.5499878    l0.6900024,0.6900024c0.9500122,0.9500122,2.6000366,0.9500122,3.5500488,0    c0.1099854-0.0999756,0.2199707-0.1599731,0.3599854-0.1599731c0.2000122,0,0.5199585,0.1399536,0.5199585,0.5199585    c0,1.3900146,1.1300049,2.5200195,2.5200195,2.5200195h0.9700317c1.3800049,0,2.5099487-1.1300049,2.5099487-2.5200195    c0-0.3800049,0.3300171-0.5199585,0.5300293-0.5199585c0.1300049,0,0.25,0.0599976,0.3499756,0.1599731    c0.9500122,0.9500122,2.6100464,0.9500122,3.5599976,0l0.6800537-0.6900024c0.9799805-0.9799805,0.9799805-2.5700073,0-3.5499878    c-0.2200317-0.2200317-0.1500244-0.4700317-0.1100464-0.5700073c0.0400391-0.0900269,0.1700439-0.3099976,0.4800415-0.3099976    c1.3800049,0,2.5099487-1.1300049,2.5099487-2.5200195v-0.9699707    C39.9199829,23.121582,38.7900391,22.0015869,37.4100342,22.0015869z" fill="none"/></g><g><path d="M46.6799927,6.0015869H10.9226685v37.9968262h-2V6.0015869H5.3200073C3.4899902,6.0015869,2,7.4915771,2,9.3215942    v31.3599854c0,1.8300171,1.4899902,3.3200073,3.3200073,3.3200073h2.5869751    c-0.5445557,0.0089111-0.984314,0.4501343-0.984314,0.9968262c0,0.5522461,0.4477539,1,1,1h4c0.5522461,0,1-0.4477539,1-1    c0-0.5466919-0.4397583-0.987915-0.984314-0.9968262h27.9686279c-0.5445557,0.0089111-0.984314,0.4501343-0.984314,0.9968262    c0,0.5522461,0.4477539,1,1,1h4c0.5522461,0,1-0.4477539,1-1c0-0.5466919-0.4397583-0.987915-0.984314-0.9968262h2.7416382    C48.5100098,44.0015869,50,42.5115967,50,40.6815796V9.3215942C50,7.4915771,48.5100098,6.0015869,46.6799927,6.0015869z     M39.9199829,25.4815674c0,1.3900146-1.1299438,2.5200195-2.5099487,2.5200195    c-0.3099976,0-0.4400024,0.2199707-0.4800415,0.3099976c-0.039978,0.0999756-0.1099854,0.3499756,0.1100464,0.5700073    c0.9799805,0.9799805,0.9799805,2.5700073,0,3.5499878l-0.6800537,0.6900024    c-0.9499512,0.9500122-2.6099854,0.9500122-3.5599976,0c-0.0999756-0.0999756-0.2199707-0.1599731-0.3499756-0.1599731    c-0.2000122,0-0.5300293,0.1399536-0.5300293,0.5199585c0,1.3900146-1.1299438,2.5200195-2.5099487,2.5200195h-0.9700317    c-1.3900146,0-2.5200195-1.1300049-2.5200195-2.5200195c0-0.3800049-0.3199463-0.5199585-0.5199585-0.5199585    c-0.1400146,0-0.25,0.0599976-0.3599854,0.1599731c-0.9500122,0.9500122-2.6000366,0.9500122-3.5500488,0l-0.6900024-0.6900024    c-0.9799805-0.9799805-0.9799805-2.5700073,0-3.5499878c0.2200317-0.2200317,0.1500244-0.4700317,0.1100464-0.5700073    c-0.0400391-0.0900269-0.1600342-0.3099976-0.4700317-0.3099976c-1.3900146,0-2.5200195-1.1300049-2.5200195-2.5200195v-0.9699707    c0-1.3900146,1.1300049-2.5100098,2.5200195-2.5100098c0.3099976,0,0.4299927-0.2299805,0.4700317-0.3200073    c0.039978-0.0999756,0.1099854-0.3400269-0.1100464-0.5599976c-0.9799805-0.9799805-0.9799805-2.5800171,0-3.5599976    l0.6900024-0.6799927c0.9500122-0.9500122,2.6000366-0.9500122,3.5500488,0    c0.1099854,0.0999756,0.2199707,0.1499634,0.3599854,0.1499634c0.2000122,0,0.5199585-0.1399536,0.5199585-0.5199585    c0-1.3900146,1.1300049-2.5100098,2.5200195-2.5100098h0.9700317c1.3800049,0,2.5099487,1.1199951,2.5099487,2.5100098    c0,0.1499634,0.0500488,0.2799683,0.1600342,0.3699951c0.1900024,0.1900024,0.5200195,0.2000122,0.7199707,0    c0.9500122-0.9500122,2.6100464-0.9500122,3.5599976,0l0.6800537,0.6799927c0.9799805,0.9799805,0.9799805,2.5800171,0,3.5599976    c-0.210022,0.2199707-0.1500244,0.460022-0.1100464,0.5599976c0.0400391,0.0900269,0.1700439,0.3200073,0.4800415,0.3200073    c1.3800049,0,2.5099487,1.1199951,2.5099487,2.5100098V25.4815674z"/></g></g></svg>