<?xml version="1.0" ?><svg enable-background="new 0 0 52 52" id="Layer_1" version="1.1" viewBox="0 0 52 52" xml:space="preserve" xmlns="http://www.w3.org/2000/svg" xmlns:xlink="http://www.w3.org/1999/xlink"><g><path d="M46,22c-1.5939331,0-2.9579468,0.9431763-3.6009521,2.2905884l-7.6390381-3.180603l0.9373779-8.1404419   C35.7990723,12.9772949,35.8963623,13,36,13c2.2000122,0,4-1.789978,4-4c0-2.2000122-1.7999878-4-4-4c-2.2099609,0-4,1.7999878-4,4   c0,0.9217529,0.3239746,1.7598267,0.8473511,2.4360962l-6.9873047,4.8239136l-6.8075562-4.7063599   C19.6347046,10.8592529,20,9.9766235,20,9c0-2.2000122-1.7999878-4-4-4c-2.2099609,0-4,1.7999878-4,4c0,2.210022,1.7900391,4,4,4   c0.012207,0,0.0234985-0.003479,0.0357056-0.0036011l0.9343262,8.1135864l-7.4203491,3.0895386   C8.8863525,22.9022827,7.5498657,22,6,22c-2.2099609,0-4,1.7999878-4,4c0,2.210022,1.7900391,4,4,4   c1.5479736,0,2.8829346-0.8953857,3.5471191-2.1905518l7.4229126,3.0905762l-0.9499512,8.2492065   C15.6922607,39.0616455,15.3544312,39,15,39c-2.2099609,0-4,1.7999878-4,4c0,2.210022,1.7900391,4,4,4c2.2000122,0,4-1.789978,4-4   c0-0.7838745-0.2365112-1.5118408-0.630249-2.1308594c0.1149292-0.0446777,0.2267456-0.0981445,0.3302612-0.1691284   l7.1600342-4.960022l7.1699829,4.960022c0.1712036,0.118103,0.3623047,0.1901855,0.5601196,0.2385254   C33.2232056,41.5431519,33,42.2442017,33,43c0,2.210022,1.7900391,4,4,4c2.2000122,0,4-1.789978,4-4c0-2.2000122-1.7999878-4-4-4   c-0.4539795,0-0.8828125,0.0924072-1.2894897,0.2321777c-0.0016479-0.0275879,0.0024414-0.0543823-0.0004883-0.0821533   l-0.9500122-8.25l7.6416016-3.1816406C43.0455933,29.0640259,44.40802,30,46,30c2.2000122,0,4-1.789978,4-4   C50,23.7999878,48.2000122,22,46,22z"/></g></svg>