<?xml version="1.0" ?><svg enable-background="new 0 0 52 52" id="Layer_1" version="1.1" viewBox="0 0 52 52" xml:space="preserve" xmlns="http://www.w3.org/2000/svg" xmlns:xlink="http://www.w3.org/1999/xlink"><g><g><path d="M40.7246094,35.8107491l-7.4932861-7.867857l6.6427002-11.9568481    c0.2685547-0.4829102,0.0947266-1.0917969-0.3886719-1.3598633c-0.4814453-0.269043-1.0917969-0.09375-1.359375,0.3881836    l-10,17.9999981c-0.2685547,0.4829102-0.0947266,1.0917969,0.3886719,1.3598633    c0.1533203,0.0854492,0.3203125,0.1259766,0.484375,0.1259766c0.3515625,0,0.6923828-0.1855469,0.875-0.5141602    l2.3395386-4.2111797l7.0618286,7.414793C39.4726563,37.3961983,39.7363281,37.5002022,40,37.5002022    c0.2480469,0,0.4960938-0.0913086,0.6894531-0.2758789C41.0898438,36.8434639,41.1054688,36.2106514,40.7246094,35.8107491z" fill="#3A92CC"/></g><g><path d="M23.4853516,17.6261806c-0.4824219-0.2685547-1.0917969-0.09375-1.359375,0.3881836l-2.3395386,4.2111816    l-7.0618286-7.4147949c-0.3828125-0.4013672-1.015625-0.4155273-1.4140625-0.034668    c-0.4003906,0.3808594-0.4160156,1.0136719-0.0351563,1.4135742l7.4932861,7.8678589l-6.6427002,11.9568462    c-0.2685547,0.4829102-0.0947266,1.0917969,0.3886719,1.3598633c0.1533203,0.0854492,0.3203125,0.1259766,0.484375,0.1259766    c0.3515625,0,0.6923828-0.1855469,0.875-0.5141602l10-17.9999981    C24.1425781,18.5031338,23.96875,17.8942471,23.4853516,17.6261806z" fill="#3A92CC"/></g><g><path d="M31.4853516,20.6261806c-0.4814453-0.2685547-1.0908203-0.09375-1.359375,0.3881836l-6,10.800293    c-0.2685547,0.4829082-0.0947266,1.091795,0.3886719,1.3598614c0.1533203,0.0854492,0.3203125,0.1259766,0.484375,0.1259766    c0.3515625,0,0.6923828-0.1855469,0.875-0.5141602l6-10.8002911C32.1425781,21.5031338,31.96875,20.8942471,31.4853516,20.6261806    z"/></g><g><path d="M26.7714844,20.6261806c-0.4814453-0.2685547-1.0917969-0.09375-1.359375,0.3881836l-6,10.800293    c-0.2685547,0.4829082-0.0947266,1.091795,0.3886719,1.3598614c0.1533203,0.0854492,0.3203125,0.1259766,0.484375,0.1259766    c0.3515625,0,0.6923828-0.1855469,0.875-0.5141602l6-10.8002911    C27.4287109,21.5031338,27.2548828,20.8942471,26.7714844,20.6261806z"/></g></g></svg>