<?xml version="1.0" ?><svg enable-background="new 0 0 52 52" id="Layer_1" version="1.1" viewBox="0 0 52 52" xml:space="preserve" xmlns="http://www.w3.org/2000/svg" xmlns:xlink="http://www.w3.org/1999/xlink"><g><g><path d="M2,12.0004883V50h48V12.0004883H2z M29,31v5h-6v-5c-1.25-0.9400024-2-2.4199829-2-4c0-2.7600098,2.2400513-5,5-5    c2.75,0,5,2.2399902,5,5C31,28.5800171,30.2400513,30.0599976,29,31z"/></g><g><path d="M50,10.0004883V2H2v8.0004883H50z M35.9953003,6.0004883h9v2h-9V6.0004883z M26.9953003,6.0004883h4v2h-4    V6.0004883z M16.9953003,6.0004883h4v2h-4V6.0004883z M6.9953003,6.0004883h4v2h-4V6.0004883z" fill="#3A92CC"/></g></g></svg>