<?xml version="1.0" ?><svg enable-background="new 0 0 52 52" id="Layer_1" version="1.1" viewBox="0 0 52 52" xml:space="preserve" xmlns="http://www.w3.org/2000/svg" xmlns:xlink="http://www.w3.org/1999/xlink"><g><g><path d="M16,16v34h21V16v-2H16V16z M29.8200073,39h-7.6400146l0.5199585-4.5    C21.3299561,33.5100098,20.5,31.9500122,20.5,30.289978C20.5,27.3800049,22.9699707,25,26,25    c3.0299683,0,5.5,2.3800049,5.5,5.289978c0,1.6600342-0.8300171,3.2200317-2.2000122,4.210022L29.8200073,39z" fill="#3A92CC"/></g><g><polygon points="41,14 41,2 11,2 11,14 2,14 2,50 14,50 14,16 14,14 13,14 13,4 39,4 39,14 39,16 39,50 50,50 50,14   "/></g></g></svg>