<?xml version="1.0" ?><!DOCTYPE svg  PUBLIC '-//W3C//DTD SVG 1.1//EN'  'http://www.w3.org/Graphics/SVG/1.1/DTD/svg11.dtd'><svg height="512px" style="enable-background:new 0 0 512 512;" version="1.1" viewBox="0 0 512 512" width="512px" xml:space="preserve" xmlns="http://www.w3.org/2000/svg" xmlns:xlink="http://www.w3.org/1999/xlink"><g id="file__x2C__type__x2C__document__x2C__format__x2C__computer__x2C___html__x2C__web__x2C_"><g><g><polygon points="111.079,26.534 353.083,26.534 424.609,98.776      424.609,448.809 111.079,448.809    " style="fill-rule:evenodd;clip-rule:evenodd;fill:#FFFFFF;"/><path d="M424.609,455.668h-313.53c-3.791,0-6.86-3.068-6.86-6.859V26.534c0-3.79,3.069-6.86,6.86-6.86     h242.004c1.836,0,3.589,0.729,4.873,2.033l71.526,72.242c1.276,1.285,1.982,3.02,1.982,4.827v350.033     C431.465,452.6,428.4,455.668,424.609,455.668z M117.939,441.949h299.806V101.598L350.22,33.394H117.939V441.949z" style="fill:#5D84C3;"/></g><g><rect height="105.6" style="fill-rule:evenodd;clip-rule:evenodd;fill:#5D84C3;" width="313.526" x="133.99" y="178.681"/></g><g><path d="M188.864,259.393H177.81v-9.818h11.054V259.393z M244.936,259.393h-11.054v-23.272h-22.645v23.272     h-11.054v-55.961h11.054v24.081h22.645v-24.081h11.054V259.393z M293.68,212.044h-15.711v47.348H266.91v-47.348h-15.582v-8.613     h42.352V212.044z M314.457,203.432l14.123,41.301h0.129l14.252-41.301h14.519v55.961h-11.05v-16.678l1.064-24.751h-0.266     l-14.784,41.429h-7.461l-14.784-41.296h-0.267l1.064,24.618v16.678h-11.059v-55.961H314.457z M379.055,250.786h24.641v8.607     h-35.828v-55.961h11.188V250.786z" style="fill:#FFFFFF;"/></g><g><path d="M267.498,147.424c-14.004,0-26.182-5.08-32.574-13.591c-2.276-3.028-1.666-7.328,1.362-9.604     c3.029-2.285,7.328-1.666,9.608,1.363c3.758,5.006,12.037,8.113,21.603,8.113c0.009,0,0.018,0,0.027,0     c9.682-0.005,18.629-3.263,22.264-8.108c2.275-3.033,6.58-3.648,9.608-1.372c3.028,2.271,3.644,6.571,1.376,9.604     c-6.286,8.379-19.023,13.591-33.239,13.596C267.516,147.424,267.507,147.424,267.498,147.424z" style="fill:#5D84C3;"/></g><g><path d="M147.976,234.239c-0.023,0-0.05,0-0.078,0c-41.719-0.455-66.452-11.357-73.508-32.4     c-9.196-27.435,17.069-62.67,32.496-74.592c3-2.308,7.31-1.762,9.622,1.234c2.317,2.997,1.767,7.305-1.234,9.623     c-12.88,9.953-34.391,39.929-27.871,59.371c6.222,18.57,36.415,22.778,60.647,23.044c3.791,0.041,6.828,3.147,6.787,6.933     C154.794,231.215,151.729,234.239,147.976,234.239z" style="fill:#5D84C3;"/></g><g><polygon points="353.083,98.776 424.609,98.776 353.083,26.534         " style="fill-rule:evenodd;clip-rule:evenodd;fill:#D6E3F4;"/><path d="M424.609,105.636h-71.526c-3.79,0-6.854-3.07-6.854-6.86V26.534c0-2.781,1.67-5.286,4.248-6.346     c2.579-1.051,5.525-0.455,7.479,1.519l71.526,72.242c1.946,1.969,2.524,4.914,1.46,7.47     C429.877,103.975,427.381,105.636,424.609,105.636z M359.948,91.916h48.216l-48.216-48.703V91.916z" style="fill:#5D84C3;"/></g><g><path d="M243.349,494.326c-0.367,0-0.734-0.027-1.106-0.086l-22.507-3.635     c-3.322-0.537-5.768-3.404-5.768-6.773v-35.023c0-3.789,3.069-6.859,6.86-6.859c3.79,0,6.86,3.07,6.86,6.859v29.184l16.744,2.701     c3.74,0.607,6.282,4.127,5.681,7.865C249.566,491.932,246.652,494.326,243.349,494.326z" style="fill:#5D84C3;"/></g><g><path d="M329.25,494.326c-0.357,0-0.725-0.027-1.101-0.086l-22.512-3.635     c-3.322-0.537-5.763-3.404-5.763-6.773v-35.023c0-3.789,3.074-6.859,6.864-6.859s6.854,3.07,6.854,6.859v29.184l16.749,2.701     c3.735,0.607,6.276,4.127,5.671,7.865C335.473,491.932,332.563,494.326,329.25,494.326z" style="fill:#5D84C3;"/></g><g><path d="M294.882,66.215c6.259-1.744,13.188,0.945,16.51,6.865     c4.13,6.993,1.734,16.143-5.322,20.18c-7.058,4.167-15.987,1.744-19.979-5.382c-3.194-5.648-2.396-12.375,1.468-17.083     c1.331,1.881,3.727,2.418,5.727,1.34C295.276,70.928,296.075,68.234,294.882,66.215L294.882,66.215z" style="fill-rule:evenodd;clip-rule:evenodd;fill:#5D84C3;"/></g><g><path d="M232.818,66.215c6.259-1.744,13.183,0.945,16.647,6.865     c3.997,6.993,1.597,16.143-5.46,20.18c-6.924,4.167-15.982,1.744-19.979-5.382c-3.198-5.648-2.4-12.375,1.463-17.083     c1.331,1.881,3.864,2.418,5.727,1.34C233.35,70.928,234.016,68.234,232.818,66.215L232.818,66.215z" style="fill-rule:evenodd;clip-rule:evenodd;fill:#5D84C3;"/></g><g><path d="M302.738,405.488c-1.817,0-3.625-0.715-4.975-2.139c-2.606-2.748-2.496-7.088,0.248-9.695     l32.331-30.684l-32.341-30.807c-2.734-2.615-2.845-6.961-0.229-9.701c2.615-2.748,6.956-2.84,9.699-0.238l37.517,35.75     c0.064,0.059,0.128,0.123,0.192,0.184c0.542,0.545,0.964,1.16,1.285,1.816v0.004l0,0c0.468,0.959,0.697,2.006,0.688,3.053     c0,0,0,0,0,0.004l0,0c0,0.99-0.229,1.982-0.661,2.895c-0.33,0.693-0.78,1.336-1.349,1.904c-0.056,0.057-0.11,0.105-0.165,0.156     l-37.517,35.613C306.133,404.865,304.436,405.488,302.738,405.488z M242.541,405.488c-1.698,0-3.396-0.623-4.726-1.885     l-37.521-35.613c-0.055-0.051-0.11-0.1-0.161-0.156c-0.569-0.568-1.019-1.211-1.349-1.904c-0.436-0.912-0.656-1.904-0.666-2.895     l0,0c0-0.004,0-0.004,0-0.004c-0.009-1.047,0.22-2.094,0.688-3.053l0,0c0,0,0-0.004,0.004-0.004     c0.316-0.656,0.748-1.271,1.29-1.816c0.06-0.064,0.124-0.125,0.188-0.184l37.516-35.75c2.739-2.602,7.084-2.51,9.7,0.238     c2.616,2.74,2.51,7.086-0.234,9.701l-32.336,30.807l32.327,30.684c2.749,2.607,2.863,6.947,0.252,9.695     C246.166,404.773,244.354,405.488,242.541,405.488z" style="fill:#5D84C3;"/></g></g></g><g id="Layer_1"/></svg>