<?xml version="1.0" ?><!DOCTYPE svg  PUBLIC '-//W3C//DTD SVG 1.1//EN'  'http://www.w3.org/Graphics/SVG/1.1/DTD/svg11.dtd'><svg height="512px" style="enable-background:new 0 0 512 512;" version="1.1" viewBox="0 0 512 512" width="512px" xml:space="preserve" xmlns="http://www.w3.org/2000/svg" xmlns:xlink="http://www.w3.org/1999/xlink"><g id="file__x2C__type__x2C__document__x2C__format__x2C__computer__x2C___psd__x2C__photoshop__x2C_"><g><g><polygon points="111.074,26.469 353.079,26.469 424.601,98.844      424.601,448.877 111.074,448.877    " style="fill-rule:evenodd;clip-rule:evenodd;fill:#FFFFFF;"/><path d="M424.601,455.738H111.074c-3.79,0-6.86-3.07-6.86-6.861V26.469c0-3.79,3.07-6.86,6.86-6.86     h242.005c1.831,0,3.593,0.734,4.877,2.038l71.526,72.375c1.267,1.285,1.982,3.02,1.982,4.823v350.033     C431.465,452.668,428.391,455.738,424.601,455.738z M117.934,442.018h299.812V101.662l-67.534-68.333H117.934V442.018z" style="fill:#5D84C3;"/></g><g><rect height="105.601" style="fill-rule:evenodd;clip-rule:evenodd;fill:#5D84C3;" width="313.529" x="133.982" y="178.616"/></g><g><path d="M219.357,259.467H208.17v-9.958h11.187V259.467z M241.733,239.153v20.314h-11.054v-56.095h21.977     c6.392,0,11.453,1.744,15.048,4.974c3.73,3.23,5.46,7.535,5.46,12.917s-1.729,9.687-5.46,12.912     c-3.595,3.363-8.656,4.979-15.048,4.979H241.733z M241.733,230.407h10.923c3.196,0,5.46-0.808,7.059-2.556     c1.598-1.61,2.398-3.9,2.398-6.456c0-2.688-0.801-4.979-2.398-6.727c-1.599-1.748-3.863-2.556-7.059-2.556h-10.923V230.407z      M311.392,244.801c0-2.152-0.798-3.9-2.267-5.111c-1.597-1.345-4.258-2.556-7.993-3.768c-6.653-1.881-11.581-4.166-14.913-6.859     c-3.464-2.556-5.065-6.19-5.065-10.76c0-4.708,1.867-8.342,5.731-11.302c3.858-2.959,8.787-4.304,14.917-4.304     c5.992,0,11.054,1.615,14.784,4.841c3.863,3.23,5.727,7.269,5.594,12.109l-0.133,0.271h-10.655c0-2.56-0.936-4.708-2.666-6.323     c-1.729-1.482-4.125-2.29-7.19-2.29c-2.932,0-5.193,0.674-6.929,2.019c-1.597,1.345-2.395,2.96-2.395,4.979     c0,1.881,0.931,3.497,2.661,4.708c1.734,1.211,4.662,2.423,8.925,3.768c6.126,1.748,10.788,4.033,13.985,6.86     c3.061,2.827,4.662,6.456,4.662,11.031c0,4.841-1.867,8.608-5.593,11.435c-3.73,2.69-8.659,4.17-14.784,4.17     c-6.131,0-11.325-1.615-15.85-4.844c-4.528-3.093-6.662-7.53-6.524-13.184v-0.133h10.921c0,3.226,0.927,5.648,2.927,7.264     c2.001,1.615,4.796,2.285,8.526,2.285c2.927,0,5.327-0.537,6.924-1.882C310.594,248.569,311.392,246.954,311.392,244.801     L311.392,244.801z M330.838,259.467v-56.095h19.043c6.795,0,12.389,2.285,16.785,6.589c4.396,4.442,6.524,9.957,6.524,16.817     v9.282c0,6.86-2.129,12.509-6.524,16.813c-4.396,4.305-9.99,6.594-16.785,6.594H330.838z M342.025,212.113v38.608h7.323     c3.996,0,7.062-1.344,9.323-4.033c2.268-2.694,3.465-6.323,3.465-10.627v-9.282c0-4.442-1.197-7.938-3.465-10.627     c-2.262-2.693-5.327-4.038-9.323-4.038H342.025z" style="fill:#FFFFFF;"/></g><g><path d="M267.424,147.414c-0.027,0-0.06,0-0.092,0c-13.951-0.023-26.076-5.13-32.432-13.665     c-2.264-3.038-1.636-7.337,1.404-9.6c3.038-2.267,7.335-1.633,9.599,1.404c3.728,5.001,11.949,8.122,21.447,8.136     c0.028,0,0.051,0,0.073,0c9.719,0,18.703-3.272,22.365-8.154c2.267-3.038,6.57-3.647,9.6-1.372     c3.032,2.271,3.647,6.571,1.376,9.604C294.451,142.188,281.681,147.414,267.424,147.414z" style="fill:#5D84C3;"/></g><g><path d="M147.971,234.174c-0.023,0-0.046,0-0.069,0c-41.671-0.399-66.396-11.242-73.49-32.226     c-9.243-27.338,17.012-62.734,32.446-74.756c2.99-2.322,7.303-1.79,9.629,1.198c2.328,2.991,1.792,7.3-1.195,9.631     c-13.264,10.329-34.527,39.879-27.88,59.532c6.256,18.506,36.419,22.667,60.624,22.901c3.788,0.037,6.83,3.139,6.793,6.924     C154.791,231.146,151.729,234.174,147.971,234.174z" style="fill:#5D84C3;"/></g><g><polygon points="353.079,98.844 424.601,98.844 353.079,26.469         " style="fill-rule:evenodd;clip-rule:evenodd;fill:#D6E3F4;"/><path d="M424.601,105.704h-71.521c-3.79,0-6.86-3.07-6.86-6.86V26.469c0-2.781,1.68-5.291,4.254-6.346     c2.574-1.065,5.529-0.455,7.483,1.523l71.526,72.375c1.946,1.969,2.515,4.915,1.45,7.466     C429.868,104.043,427.372,105.704,424.601,105.704z M359.938,91.984h48.239l-48.239-48.813V91.984z" style="fill:#5D84C3;"/></g><g><path d="M243.341,494.395c-0.376,0-0.757-0.027-1.143-0.092l-22.509-3.766     c-3.306-0.557-5.727-3.414-5.727-6.77v-34.891c0-3.789,3.07-6.859,6.86-6.859c3.791,0,6.86,3.07,6.86,6.859v29.082l16.783,2.809     c3.737,0.629,6.259,4.162,5.632,7.9C249.538,492.023,246.631,494.395,243.341,494.395z" style="fill:#5D84C3;"/></g><g><path d="M329.25,494.395c-0.376,0-0.762-0.027-1.146-0.092l-22.507-3.766     c-3.309-0.557-5.727-3.414-5.727-6.77v-34.891c0-3.789,3.069-6.859,6.859-6.859s6.86,3.07,6.86,6.859v29.082l16.78,2.809     c3.739,0.629,6.259,4.162,5.635,7.9C335.445,492.023,332.536,494.395,329.25,494.395z" style="fill:#5D84C3;"/></g><g><path d="M294.873,66.155c6.259-1.753,13.188,0.941,16.519,6.86     c4.13,7.131,1.73,16.143-5.332,20.313c-7.057,4.033-15.978,1.615-19.979-5.515c-3.193-5.516-2.396-12.38,1.469-16.95     c1.331,1.748,3.726,2.422,5.727,1.211C295.276,70.863,296.075,68.307,294.873,66.155L294.873,66.155z" style="fill-rule:evenodd;clip-rule:evenodd;fill:#5D84C3;"/></g><g><path d="M232.811,66.155c6.259-1.753,13.185,0.941,16.649,6.86     c3.994,7.131,1.597,16.143-5.462,20.313c-6.924,4.033-15.982,1.615-19.979-5.515c-3.196-5.516-2.397-12.38,1.466-16.95     c1.331,1.748,3.861,2.422,5.727,1.211C233.343,70.863,234.008,68.307,232.811,66.155L232.811,66.155z" style="fill-rule:evenodd;clip-rule:evenodd;fill:#5D84C3;"/></g><g><path d="M148.767,301.168     c46.085-0.537,129.459,55.291,179.805,77.082l-5.594,11.84C274.5,364.127,177.404,337.762,148.767,301.168L148.767,301.168z" style="fill-rule:evenodd;clip-rule:evenodd;fill:#FFFFFF;"/><path d="M322.978,396.949c-1.119,0-2.234-0.271-3.239-0.813c-15.981-8.559-37.521-17.23-60.318-26.406     c-47.159-18.979-95.922-38.604-116.057-64.338c-1.608-2.051-1.911-4.84-0.782-7.193c1.129-2.355,3.497-3.859,6.105-3.893     l0.743-0.004c33.524,0,83.752,26.816,128.062,50.479c19.768,10.555,38.443,20.52,53.806,27.174     c1.707,0.738,3.038,2.139,3.693,3.877c0.656,1.74,0.578,3.666-0.215,5.35l-5.594,11.84c-0.803,1.697-2.271,2.992-4.052,3.584     C324.428,396.834,323.703,396.949,322.978,396.949z M169.032,310.785c23.184,17.105,61.164,32.395,95.511,46.215     c10.163,4.094,20.079,8.086,29.422,12.031c-7.397-3.854-15.078-7.951-22.934-12.145     C236.529,338.463,198.321,318.063,169.032,310.785z" style="fill:#5D84C3;"/></g><g><path d="M398.23,413.766c-19.846,15.738-33.3,10.898-42.89,5.787     c-7.589-4.172-13.449-13.857-15.849-22.199l5.992-12.779C383.18,378.926,370.263,405.291,398.23,413.766L398.23,413.766z" style="fill-rule:evenodd;clip-rule:evenodd;fill:#D6E3F4;"/><path d="M372.456,431.344c-8.488,0-15.33-3.068-20.341-5.74c-10.219-5.611-16.726-17.697-19.212-26.355     c-0.459-1.598-0.326-3.305,0.381-4.809l5.992-12.779c0.973-2.078,2.923-3.533,5.194-3.873c3.813-0.568,7.346-0.857,10.494-0.857     c17.578,0,23.636,9.117,28.499,16.445c3.905,5.877,7.273,10.953,16.753,13.824c2.446,0.738,4.276,2.777,4.754,5.281     c0.478,2.51-0.478,5.076-2.478,6.658C392.141,427.354,382.317,431.344,372.456,431.344z M346.856,397.811     c2.524,6.92,7.163,13.188,11.788,15.73c3.754,1.996,8.393,4.08,13.812,4.08c3.79,0,7.709-0.982,11.829-2.979     c-5.955-4.203-9.337-9.293-12.251-13.68c-4.414-6.652-6.851-10.314-17.069-10.314c-1.496,0-3.12,0.088-4.873,0.262     L346.856,397.811z" style="fill:#5D84C3;"/></g></g></g><g id="Layer_1"/></svg>