<?xml version="1.0" ?><!DOCTYPE svg  PUBLIC '-//W3C//DTD SVG 1.1//EN'  'http://www.w3.org/Graphics/SVG/1.1/DTD/svg11.dtd'><svg height="512px" style="enable-background:new 0 0 512 512;" version="1.1" viewBox="0 0 512 512" width="512px" xml:space="preserve" xmlns="http://www.w3.org/2000/svg" xmlns:xlink="http://www.w3.org/1999/xlink"><g id="file__x2C__type__x2C__document__x2C__format__x2C__computer__x2C___xls__x2C__excel__x2C_"><g><g><polygon points="111.071,26.534 353.079,26.534 424.601,98.776      424.601,448.809 111.071,448.809    " style="fill-rule:evenodd;clip-rule:evenodd;fill:#FFFFFF;"/><path d="M424.601,455.668H111.071c-3.79,0-6.859-3.068-6.859-6.859V26.534c0-3.79,3.069-6.86,6.859-6.86     h242.008c1.831,0,3.583,0.729,4.877,2.033l71.522,72.242c1.271,1.285,1.986,3.02,1.986,4.827v350.033     C431.465,452.6,428.391,455.668,424.601,455.668z M117.932,441.949h299.813V101.598L350.22,33.394H117.932V441.949z" style="fill:#5D84C3;"/></g><g><rect height="105.6" style="fill-rule:evenodd;clip-rule:evenodd;fill:#5D84C3;" width="313.532" x="133.98" y="178.681"/></g><g><path d="M224.283,259.398h-11.187v-9.824h11.187V259.398z M255.051,223.346l10.391-19.915h12.916     l-16.381,27.715l17.313,28.252h-13.453l-10.652-20.181l-10.655,20.181h-13.055l16.916-28.252l-16.514-27.715h12.919     L255.051,223.346z M296.203,250.786h24.641v8.613h-35.689v-55.967h11.049V250.786z M357.209,244.866     c0-2.147-0.666-3.9-2.263-5.245c-1.468-1.211-4.13-2.556-7.86-3.63c-6.658-2.019-11.586-4.171-15.051-6.864     c-3.331-2.689-5.061-6.323-5.061-10.893c0-4.575,2-8.342,5.859-11.168c3.863-2.955,8.792-4.438,14.784-4.438     c6.126,0,11.054,1.611,14.918,4.979c3.863,3.226,5.727,7.264,5.593,12.105l-0.133,0.138h-10.787c0-2.561-0.799-4.58-2.529-6.19     c-1.734-1.615-4.129-2.29-7.194-2.29s-5.327,0.542-6.929,1.886c-1.597,1.344-2.396,3.092-2.396,5.111     c0,1.886,0.799,3.364,2.533,4.575c1.729,1.212,4.79,2.556,9.058,3.9c6.121,1.749,10.783,3.9,13.849,6.727     c3.198,2.827,4.795,6.589,4.795,11.164c0,4.841-1.863,8.613-5.594,11.302c-3.863,2.827-8.792,4.17-14.917,4.17     c-5.993,0-11.32-1.615-15.716-4.712c-4.529-3.092-6.791-7.529-6.663-13.178l0.138-0.271h10.788c0,3.363,1.064,5.786,3.061,7.396     c2,1.482,4.8,2.29,8.393,2.29c3.061,0,5.327-0.675,6.924-1.886C356.41,248.638,357.209,246.885,357.209,244.866L357.209,244.866z     " style="fill:#FFFFFF;"/></g><g><path d="M267.498,147.424c-14.012,0-26.189-5.08-32.584-13.591c-2.275-3.028-1.666-7.328,1.365-9.604     c3.028-2.285,7.328-1.666,9.606,1.363c3.76,5.006,12.038,8.113,21.612,8.113c0.004,0,0.009,0,0.018,0     c9.691-0.005,18.639-3.263,22.269-8.108c2.276-3.038,6.575-3.644,9.604-1.372c3.032,2.271,3.647,6.571,1.376,9.604     c-6.286,8.379-19.02,13.591-33.239,13.596C267.516,147.424,267.507,147.424,267.498,147.424z" style="fill:#5D84C3;"/></g><g><path d="M147.968,234.239c-0.025,0-0.051,0-0.076,0c-41.685-0.45-66.413-11.32-73.493-32.308     c-9.211-27.307,17.035-62.661,32.457-74.669c2.992-2.327,7.303-1.785,9.627,1.198c2.329,2.991,1.792,7.3-1.198,9.631     c-13.25,10.315-34.506,39.829-27.885,59.454c6.245,18.515,36.424,22.713,60.638,22.975c3.79,0.041,6.828,3.143,6.787,6.933     C154.784,231.215,151.722,234.239,147.968,234.239z" style="fill:#5D84C3;"/></g><g><polygon points="353.079,98.776 424.601,98.776 353.079,26.534         " style="fill-rule:evenodd;clip-rule:evenodd;fill:#D6E3F4;"/><path d="M424.601,105.636h-71.521c-3.79,0-6.86-3.07-6.86-6.86V26.534c0-2.781,1.68-5.286,4.249-6.346     c2.579-1.051,5.534-0.455,7.488,1.519l71.522,72.242c1.95,1.969,2.519,4.914,1.454,7.47     C429.868,103.975,427.372,105.636,424.601,105.636z M359.938,91.916h48.217l-48.217-48.703V91.916z" style="fill:#5D84C3;"/></g><g><path d="M243.339,494.326c-0.365,0-0.732-0.027-1.104-0.086l-22.509-3.635     c-3.322-0.537-5.765-3.404-5.765-6.773v-35.023c0-3.789,3.069-6.859,6.859-6.859c3.791,0,6.86,3.07,6.86,6.859v29.184     l16.743,2.701c3.74,0.607,6.282,4.127,5.679,7.865C249.559,491.932,246.645,494.326,243.339,494.326z" style="fill:#5D84C3;"/></g><g><path d="M329.25,494.326c-0.367,0-0.733-0.027-1.105-0.086l-22.507-3.635     c-3.322-0.537-5.768-3.404-5.768-6.773v-35.023c0-3.789,3.069-6.859,6.859-6.859s6.86,3.07,6.86,6.859v29.184l16.743,2.701     c3.74,0.607,6.282,4.127,5.681,7.865C335.468,491.932,332.555,494.326,329.25,494.326z" style="fill:#5D84C3;"/></g><g><path d="M294.873,66.22c6.259-1.749,13.188,0.94,16.519,6.86     c4.13,7.13,1.73,16.143-5.332,20.18c-7.057,4.167-15.978,1.749-19.979-5.382c-3.193-5.515-2.396-12.375,1.469-16.95     c1.331,1.748,3.726,2.29,5.727,1.211C295.276,70.928,296.075,68.234,294.873,66.22L294.873,66.22z" style="fill-rule:evenodd;clip-rule:evenodd;fill:#5D84C3;"/></g><g><path d="M232.808,66.22c6.259-1.749,13.185,0.94,16.65,6.86     c3.994,7.13,1.597,16.143-5.463,20.18c-6.924,4.167-15.982,1.749-19.979-5.382c-3.196-5.515-2.397-12.375,1.466-16.95     c1.331,1.748,3.861,2.29,5.727,1.211C233.34,70.928,234.006,68.234,232.808,66.22L232.808,66.22z" style="fill-rule:evenodd;clip-rule:evenodd;fill:#5D84C3;"/></g><g><polygon points="213.096,360.695 213.096,372.805 394.638,372.805      394.638,360.695 394.638,340.785 213.096,340.785    " style="fill-rule:evenodd;clip-rule:evenodd;fill:#D6E3F4;"/></g><g><path d="M394.638,347.645H141.04c-3.791,0-6.86-3.068-6.86-6.859v-32.02c0-3.789,3.069-6.859,6.86-6.859     h253.598c3.79,0,6.854,3.07,6.854,6.859v32.02C401.492,344.576,398.428,347.645,394.638,347.645z M147.899,333.926h239.873     v-18.299H147.899V333.926z" style="fill:#5D84C3;"/></g><g><path d="M394.638,379.664H141.04c-3.791,0-6.86-3.07-6.86-6.859v-32.02c0-3.789,3.069-6.859,6.86-6.859     h253.598c3.79,0,6.854,3.07,6.854,6.859v32.02C401.492,376.594,398.428,379.664,394.638,379.664z M147.899,365.945h239.873     v-18.301H147.899V365.945z" style="fill:#5D84C3;"/></g><g><path d="M394.638,411.678H141.04c-3.791,0-6.86-3.068-6.86-6.859v-32.014c0-3.791,3.069-6.859,6.86-6.859     h253.598c3.79,0,6.854,3.068,6.854,6.859v32.014C401.492,408.609,398.428,411.678,394.638,411.678z M147.899,397.959h239.873     v-18.295H147.899V397.959z" style="fill:#5D84C3;"/></g><g><path d="M322.579,411.678H213.096c-3.79,0-6.86-3.068-6.86-6.859v-96.053c0-3.789,3.07-6.859,6.86-6.859     h109.483c3.79,0,6.859,3.07,6.859,6.859v96.053C329.438,408.609,326.369,411.678,322.579,411.678z M219.956,397.959h95.763     v-82.332h-95.763V397.959z" style="fill:#5D84C3;"/></g></g></g><g id="Layer_1"/></svg>