<?xml version="1.0" ?><svg id="Layer_1" style="enable-background:new 0 0 512 512;" version="1.1" viewBox="0 0 512 512" xml:space="preserve" xmlns="http://www.w3.org/2000/svg" xmlns:xlink="http://www.w3.org/1999/xlink"><style type="text/css">
	.st0{fill:#F9F96E;stroke:#231F20;stroke-width:10;stroke-linecap:round;stroke-linejoin:round;stroke-miterlimit:10;}
	.st1{fill:#D7F3F7;stroke:#231F20;stroke-width:10;stroke-miterlimit:10;}
	.st2{opacity:0.61;fill:#C0DFE2;}
	.st3{fill:#91EAFF;stroke:#231F20;stroke-width:10;stroke-miterlimit:10;}
	.st4{fill:none;stroke:#231F20;stroke-width:10;stroke-miterlimit:10;}
	.st5{fill:none;stroke:#231F20;stroke-width:10;stroke-linecap:round;stroke-linejoin:round;stroke-miterlimit:10;}
</style><g id="XMLID_242_"><path class="st0" d="M437.4,388.8H74.8V84c0-41.7,33.8-75.5,75.5-75.5h211.6c41.7,0,75.5,33.8,75.5,75.5V388.8z" id="XMLID_209_"/><path class="st0" d="M432.6,445.8H79.7c-15.5,0-28-12.5-28-28v-40.9c0-17.6,14.2-31.8,31.8-31.8h345.4   c17.6,0,31.8,14.2,31.8,31.8v40.9C460.6,433.3,448.1,445.8,432.6,445.8z" id="XMLID_210_"/><path class="st1" d="M218.1,217.2H121c-12.4,0-22.4-10-22.4-22.4V102c0-12.4,10-22.4,22.4-22.4h97.2   c12.4,0,22.4,10,22.4,22.4v92.7C240.6,207.1,230.5,217.2,218.1,217.2z" id="XMLID_211_"/><path class="st2" d="M215.1,84.8c11.4,0,20.5,5.1,20.5,16.5l-0.8,90.4c0,11.4-9.2,20.6-22.4,20.6h-90.9   c-9.6,0-18.2-6.7-18.2-18.1L215.1,84.8z" id="XMLID_473_"/><path class="st1" d="M389.3,217.2h-97.2c-12.4,0-22.4-10-22.4-22.4V102c0-12.4,10-22.4,22.4-22.4h97.2   c12.4,0,22.4,10,22.4,22.4v92.7C411.8,207.1,401.7,217.2,389.3,217.2z" id="XMLID_241_"/><path class="st2" d="M386.3,84.8c11.4,0,20.5,5.1,20.5,16.5l-0.8,90.4c0,11.4-9.2,20.6-22.4,20.6h-90.9   c-9.6,0-18.1-6.7-18.1-18.1L386.3,84.8z" id="XMLID_228_"/><line class="st3" id="XMLID_214_" x1="77.1" x2="435.2" y1="265.5" y2="265.5"/><path class="st4" d="M330.2,327.6H182.1c-8.9,0-16.2-7.3-16.2-16.2v-13c0-8.9,7.3-16.2,16.2-16.2h148.1   c8.9,0,16.2,7.3,16.2,16.2v13C346.4,320.4,339.1,327.6,330.2,327.6z" id="XMLID_212_"/><line class="st0" id="XMLID_216_" x1="205.8" x2="205.8" y1="286" y2="324.4"/><line class="st0" id="XMLID_223_" x1="240.6" x2="240.6" y1="286" y2="324.4"/><line class="st0" id="XMLID_224_" x1="273.9" x2="273.9" y1="285.7" y2="324.2"/><line class="st0" id="XMLID_225_" x1="310.1" x2="310.1" y1="285.7" y2="324.2"/><path class="st1" d="M143.7,421.4L143.7,421.4c-14.2,0-25.9-11.7-25.9-25.9c0-14.2,11.7-25.9,25.9-25.9h0   c14.2,0,25.9,11.7,25.9,25.9C169.6,409.7,157.9,421.4,143.7,421.4z" id="XMLID_215_"/><path class="st2" d="M141.1,400.1c-4.1,2.4-8.3,4.7-12.7,6.5c-0.2,0.1-0.4,0.2-0.6,0.3c-0.2,0.1-0.8,0.4-0.9,0.7   c-0.1,0.3,0.3,0.6,0.5,0.8c0.5,0.5,1,1,1.5,1.5c1.1,1,2.3,1.8,3.5,2.5c3.5,2.1,7.6,3.5,11.8,3.5c11.7,0,20.3-9.7,20.3-21.5   c0-2.6-0.6-4.4-1.5-6.8C155.3,392.1,148.7,395.7,141.1,400.1z" id="XMLID_477_"/><path class="st1" d="M381.9,421.4L381.9,421.4c-14.2,0-25.9-11.7-25.9-25.9c0-14.2,11.7-25.9,25.9-25.9h0   c14.2,0,25.9,11.7,25.9,25.9C407.8,409.7,396.1,421.4,381.9,421.4z" id="XMLID_249_"/><path class="st2" d="M379.3,400.1c-4.1,2.4-8.3,4.7-12.7,6.5c-0.2,0.1-0.4,0.2-0.6,0.3c-0.2,0.1-0.8,0.4-0.9,0.7   c-0.1,0.3,0.3,0.6,0.5,0.8c0.5,0.5,1,1,1.5,1.5c1.1,1,2.3,1.8,3.5,2.5c3.5,2.1,7.6,3.5,11.8,3.5c11.7,0,20.3-9.7,20.3-21.5   c0-2.6-0.6-4.4-1.5-6.8C393.6,392.1,387,395.7,379.3,400.1z" id="XMLID_227_"/><rect class="st0" height="72" id="XMLID_226_" width="34" x="17.6" y="98.8"/><path class="st5" d="M34.6,175.7l2.1,15.1c0.7,4.7,4.2,8.5,8.8,9.6l23.4,5.4" id="XMLID_237_"/><rect class="st0" height="72" id="XMLID_243_" width="34" x="460.3" y="105.2"/><path class="st5" d="M477.4,182.1l-2.1,15.1c-0.7,4.7-4.2,8.5-8.8,9.6l-23.4,5.4" id="XMLID_239_"/><path class="st1" d="M145.7,503.5h-16c-11.1,0-20.1-9-20.1-20.1v-37.6h56.2v37.6   C165.9,494.5,156.8,503.5,145.7,503.5z" id="XMLID_238_"/><path class="st1" d="M389.9,503.5h-16c-11.1,0-20.1-9-20.1-20.1v-37.6H410v37.6C410,494.5,401,503.5,389.9,503.5z" id="XMLID_245_"/></g></svg>