<?xml version="1.0" ?><svg id="Layer_1" style="enable-background:new 0 0 512 512;" version="1.1" viewBox="0 0 512 512" xml:space="preserve" xmlns="http://www.w3.org/2000/svg" xmlns:xlink="http://www.w3.org/1999/xlink"><style type="text/css">
	.st0{fill:#D7F3F7;}
	.st1{opacity:0.61;fill:#C0DFE2;}
	.st2{fill:none;stroke:#231F20;stroke-width:10;stroke-miterlimit:10;}
	.st3{fill:#F9F96E;stroke:#231F20;stroke-width:10;stroke-linecap:round;stroke-linejoin:round;stroke-miterlimit:10;}
	.st4{fill:#D7F3F7;stroke:#231F20;stroke-width:10;stroke-linecap:round;stroke-miterlimit:10;}
</style><g id="XMLID_3_"><path class="st0" d="M436,438.1H76c-13.3,0-24-10.7-24-24V32.5c0-13.3,10.7-24,24-24h360c13.3,0,24,10.7,24,24   v381.6C460,427.4,449.3,438.1,436,438.1z" id="XMLID_260_"/><path class="st1" d="M436,8.5c13.3,0,24,10.7,24,24v381.6c0,13.3-10.7,24-24,24H76c-13.3,0-24-10.7-24-24" id="XMLID_2_"/><path class="st2" d="M436,438.1H76c-13.3,0-24-10.7-24-24V32.5c0-13.3,10.7-24,24-24h360c13.3,0,24,10.7,24,24v381.6   C460,427.4,449.3,438.1,436,438.1z" id="XMLID_1_"/><path class="st3" d="M221,362.3c0-29.8-24.2-54-54-54s-54,24.2-54,54c0,19.9,10.8,37.3,26.8,46.6v94.6l27.2-15.2   l27.2,15.2v-94.6C210.2,399.6,221,382.2,221,362.3z" id="XMLID_264_"/><line class="st4" id="XMLID_262_" x1="146.7" x2="374.7" y1="131.1" y2="131.1"/><line class="st4" id="XMLID_263_" x1="146.7" x2="374.7" y1="194.7" y2="194.7"/><line class="st4" id="XMLID_265_" x1="146.7" x2="374.7" y1="258.5" y2="258.5"/></g></svg>