<?xml version="1.0" ?><svg id="Layer_1" style="enable-background:new 0 0 512 512;" version="1.1" viewBox="0 0 512 512" xml:space="preserve" xmlns="http://www.w3.org/2000/svg" xmlns:xlink="http://www.w3.org/1999/xlink"><style type="text/css">
	.st0{fill:#F9F96E;stroke:#231F20;stroke-width:10;stroke-linecap:round;stroke-linejoin:round;stroke-miterlimit:10;}
	.st1{fill:#D7F3F7;stroke:#231F20;stroke-width:10;stroke-miterlimit:10;}
	.st2{fill:none;stroke:#231F20;stroke-width:10;stroke-miterlimit:10;}
	.st3{fill:none;stroke:#231F20;stroke-width:10;stroke-linecap:round;stroke-miterlimit:10;}
	.st4{fill:#D7F3F7;stroke:#231F20;stroke-width:10;stroke-linecap:round;stroke-linejoin:round;stroke-miterlimit:10;}
</style><g id="XMLID_1_"><g id="XMLID_235_"><path class="st0" d="M380.2,503.5H131.8c-28.3,0-51.3-23-51.3-51.3V194.5h350.9v257.7    C431.4,480.5,408.5,503.5,380.2,503.5z" id="XMLID_229_"/><path class="st1" d="M395.8,236.8c-94.4,27.7-182.4,24.2-277.4,0.4c-18-4.5-39.7-9.8-52.4-22.7    c-10.8-11-17.1-25.4-17.1-40v-34.4c0-50.4,46-91.2,102.7-91.2h209c56.7,0,102.7,40.8,102.7,91.2c0,0,0,34.4,0,34.4    c0,29.7-24.1,47.6-53.3,57.8C405.3,233.9,400.6,235.4,395.8,236.8z" id="XMLID_230_"/><path class="st2" d="M327.7,48.9H187.4V34c0-14.1,11.4-25.5,25.5-25.5h89.3c14.1,0,25.5,11.4,25.5,25.5V48.9z" id="XMLID_231_"/><line class="st3" id="XMLID_233_" x1="178" x2="178" y1="189.7" y2="322.8"/><line class="st3" id="XMLID_234_" x1="341" x2="341" y1="189.7" y2="322.8"/><path class="st1" d="M298.1,460.6h-84.7c-28.9,0-52.4-23.5-52.4-52.4v-21.4c0-6,4.9-10.8,10.8-10.8h167.8    c6,0,10.8,4.9,10.8,10.8v21.4C350.5,437.2,327,460.6,298.1,460.6z" id="XMLID_232_"/></g><rect class="st4" height="57.7" id="XMLID_217_" width="41.1" x="156.6" y="279.2"/><rect class="st4" height="57.7" id="XMLID_482_" width="41.1" x="320.4" y="279.2"/></g></svg>