<?xml version="1.0" ?><svg id="Layer_1" style="enable-background:new 0 0 512 512;" version="1.1" viewBox="0 0 512 512" xml:space="preserve" xmlns="http://www.w3.org/2000/svg" xmlns:xlink="http://www.w3.org/1999/xlink"><style type="text/css">
	.st0{fill:#D7F3F7;stroke:#231F20;stroke-width:10;stroke-miterlimit:10;}
	.st1{opacity:0.61;fill:#C0DFE2;}
	.st2{fill:#F9F96E;stroke:#231F20;stroke-width:10;stroke-miterlimit:10;}
	.st3{fill:#F9F96E;stroke:#231F20;stroke-width:10;stroke-linecap:round;stroke-linejoin:round;stroke-miterlimit:10;}
</style><g id="XMLID_359_"><path class="st0" d="M411.1,502.4l-308.6,1.1c-11.9,0-21.5-9.6-21.6-21.4L79.4,31.1c0-11.9,9.6-21.5,21.4-21.6   l308.6-1.1c11.9,0,21.5,9.6,21.6,21.4l1.6,450.9C432.6,492.7,423,502.4,411.1,502.4z" id="XMLID_347_"/><path class="st1" d="M423.4,18.5l1.6,457.6c0,12.1-9.1,21.9-20.5,21.9L104,499c-11.4,0-19.6-12.7-18.5-27.7" id="XMLID_348_"/><rect class="st2" height="491.2" id="XMLID_357_" transform="matrix(1 -3.472944e-003 3.472944e-003 1 -0.8942 0.516)" width="60.2" x="118" y="12.1"/><polygon class="st3" id="XMLID_358_" points="389.7,169 363.1,141.8 336.7,169.1 336.1,11.5 389.2,11.3  "/></g></svg>