<?xml version="1.0" ?><svg id="Layer_1" style="enable-background:new 0 0 512 512;" version="1.1" viewBox="0 0 512 512" xml:space="preserve" xmlns="http://www.w3.org/2000/svg" xmlns:xlink="http://www.w3.org/1999/xlink"><style type="text/css">
	.st0{fill:#D7F3F7;stroke:#231F20;stroke-width:10;stroke-linecap:round;stroke-linejoin:round;stroke-miterlimit:10;}
	.st1{fill:#F9F96E;stroke:#231F20;stroke-width:10;stroke-miterlimit:10;}
	.st2{fill:#D7F3F7;}
	.st3{fill:#D7F3F7;stroke:#231F20;stroke-width:10;stroke-miterlimit:10;}
	.st4{fill:#BFDFE2;}
	.st5{fill:none;stroke:#231F20;stroke-width:10;stroke-miterlimit:10;}
</style><g id="XMLID_2_"><g id="XMLID_105_"><polygon class="st0" id="XMLID_181_" points="185.9,500.2 130.8,498.2 179.7,372.9 224,390.2   "/><polygon class="st0" id="XMLID_180_" points="365.4,501.1 312.2,503.5 279.4,387.3 324.7,372.9   "/><path class="st1" d="M447.7,394.1H64.3c-16.1,0-29.1-13-29.1-29.1V85c0-16.1,13-29.1,29.1-29.1h383.4    c16.1,0,29.1,13,29.1,29.1v280C476.9,381.1,463.8,394.1,447.7,394.1z" id="XMLID_179_"/><path class="st2" d="M65.7,355.6V94.4c0-4.4,3.5-7.9,7.9-7.9h364.7c4.4,0,7.9,3.5,7.9,7.9v261.3    c0,4.4-3.5,7.9-7.9,7.9H73.6C69.3,363.6,65.7,360,65.7,355.6z" id="XMLID_176_"/><path class="st3" d="M277.1,8.5h-32.7c-9.1,0-16.5,7.4-16.5,16.5v30.9h65.7V25C293.6,15.9,286.2,8.5,277.1,8.5z" id="XMLID_175_"/></g><path class="st4" d="M438.4,86.4c4.4,0,7.9,3.5,7.9,7.9v261.3c0,4.4-3.5,7.9-7.9,7.9H73.6c-4.4,0-7.9-3.5-7.9-7.9" id="XMLID_15_"/><path class="st5" d="M65.7,355.6V94.4c0-4.4,3.5-7.9,7.9-7.9h364.7c4.4,0,7.9,3.5,7.9,7.9v261.3   c0,4.4-3.5,7.9-7.9,7.9H73.6C69.3,363.6,65.7,360,65.7,355.6z" id="XMLID_12_"/></g></svg>