<?xml version="1.0" ?><svg id="Layer_1" style="enable-background:new 0 0 512 512;" version="1.1" viewBox="0 0 512 512" xml:space="preserve" xmlns="http://www.w3.org/2000/svg" xmlns:xlink="http://www.w3.org/1999/xlink"><g id="XMLID_19627_"><g id="XMLID_3048_"><path d="M419.9,479c-4,0-7.9-2.5-13.1-7.7c-47.4-46.7-95-94.7-141-141.2c-19.2-19.4-39.1-39.5-58.7-59.2    c-1.8-1.8-3.6-3.8-5.5-5.9c-6.2-7-13.3-14.8-21.1-15.8c-7.6-1-16.2,1.8-24.6,4.5c-3.3,1-6.3,2-9.4,2.8    c-13.7,3.5-27.5,4.3-41.1,2.4c-24.3-3.3-47.3-14.8-64.7-32.2c-21.4-21.4-33.2-49.9-33.2-80.2c0-30.3,11.8-58.8,33.2-80.2    C62.1,44.8,90.6,33,120.9,33c30.3,0,58.8,11.8,80.2,33.2c26.4,26.4,38.3,65.7,31,102.4c-0.5,2.4-0.9,4.5-1.4,6.5    c-3,14.1-4,18.3,8,30.6c23.8,23.8,48.8,47.3,73,70.1c28.1,26.4,57.2,53.8,84.7,81.9c4.8-6.4,9.8-12.1,15.2-17.6    c6-6.1,12.5-12.7,19.4-18.8c0.7-0.6,1.4-1.3,2.2-1.9c7.4-6.7,16.6-15,27.2-15c0.1,0,0.1,0,0.2,0h0c6.8,0.1,14.1,3.4,21.5,9.9    c11.2,9.9,25.7,24.7,21.7,38.7c-1.5,5.2-5.7,9.6-9.4,13.5c-1.4,1.4-2.6,2.8-3.7,4.1c-4.4,5.4-9.2,10.6-13.7,15.6l-1.7,1.9    c-8,8.8-16.3,17.6-24.7,26c1.4,1.2,3.5,3,5,4.2c6.6,5.4,8.4,7.1,9,8.8c2.5,7.9-3.8,16.2-8,21.6l-0.7,0.9    c-7.2,9.5-16.4,17.3-24.4,23.8C427,477,423.4,479,419.9,479z M177.3,243c1.3,0,2.6,0.1,3.9,0.2c10,1.3,17.9,10,24.8,17.8    c1.8,2.1,3.6,4,5.2,5.7c19.6,19.7,39.5,39.8,58.7,59.2c46,46.5,93.6,94.5,141,141.2c7.6,7.5,9.3,7.7,16.8,1.6    c7.8-6.3,16.6-13.8,23.4-22.8l0.7-0.9c3.4-4.4,8.4-11,7.1-15.9c-0.9-1.1-4.6-4.2-7.1-6.2c-6.9-5.7-8.2-6.9-8.3-8.8    c0-0.9,0.3-1.8,0.9-2.4c9-9,17.8-18.3,26.4-27.7l1.7-1.9c4.5-5,9.2-10.2,13.6-15.4c1.2-1.5,2.6-2.9,4-4.4c3.4-3.5,6.8-7.2,7.9-11    c3.4-12-14.1-27.4-19.9-32.5c-4.3-3.8-10.9-8.4-17.6-8.4c0,0-0.1,0-0.1,0c-8.3,0-16.6,7.5-23.2,13.5c-0.8,0.7-1.5,1.3-2.2,2    c-6.8,6-13.1,12.5-19.1,18.5c-6,6.1-11.4,12.6-16.7,19.8c-0.5,0.7-1.3,1.2-2.2,1.2c-0.9,0.1-1.7-0.3-2.4-0.9    c-28.2-28.9-58.1-57-87-84.2c-24.2-22.8-49.2-46.3-73.2-70.2c-14.2-14.6-12.8-21.3-9.6-36.1c0.4-2,0.9-4.1,1.3-6.4    c6.9-34.8-4.4-71.9-29.4-97c-41.9-41.9-110.1-41.9-152,0C3,112.4,3,180.6,44.9,222.5c16.5,16.5,38.2,27.3,61.3,30.5    c12.9,1.8,25.9,1,38.9-2.3c2.8-0.7,5.8-1.7,9-2.7C161.4,245.6,169.5,243,177.3,243z" id="XMLID_19348_"/></g><g id="XMLID_2230_"><path d="M119.7,211.8c-17.3,0-33.6-6.7-45.9-19c-25.3-25.3-25.3-66.4,0-91.7c12.2-12.2,28.5-19,45.9-19    s33.6,6.7,45.9,19l0,0c25.3,25.3,25.3,66.4,0,91.7C153.3,205.1,137,211.8,119.7,211.8z M119.7,88.1c-15.1,0-30.1,5.7-41.6,17.2    c-22.9,22.9-22.9,60.3,0,83.2c22.9,22.9,60.3,22.9,83.2,0c22.9-22.9,22.9-60.3,0-83.2l0,0C149.9,93.9,134.8,88.1,119.7,88.1z" id="XMLID_19345_"/></g></g></svg>