<?xml version="1.0" ?><!DOCTYPE svg  PUBLIC '-//W3C//DTD SVG 1.1//EN'  'http://www.w3.org/Graphics/SVG/1.1/DTD/svg11.dtd'><svg height="512px" style="enable-background:new 0 0 512 512;" version="1.1" viewBox="0 0 512 512" width="512px" xml:space="preserve" xmlns="http://www.w3.org/2000/svg" xmlns:xlink="http://www.w3.org/1999/xlink"><g id="christmas_sale__x2C__shopping__x2C__shopping_bag__x2C_snow_flakes__x2C_"><g><g><path d="M447.002,500.725c-0.006,0-0.014,0-0.02,0H65.501c-1.25,0-2.444-0.521-3.296-1.437     s-1.283-2.145-1.192-3.392l3.602-49.258l1.838-28.147c6.513-99.753,13.249-202.902,20.389-304.063     c0.09-1.276,0.719-2.453,1.729-3.237c1.01-0.785,2.307-1.101,3.565-0.873c51.54,9.371,105.353,14.123,159.944,14.123     c54.622,0,111.463-4.756,168.948-14.137c1.25-0.203,2.531,0.129,3.524,0.918c0.993,0.789,1.606,1.96,1.69,3.226l25.202,381.051     c0.038,0.236,0.058,0.479,0.058,0.726C451.502,498.71,449.487,500.725,447.002,500.725z M70.342,491.725h371.833l-24.587-371.751     c-56.295,8.938-111.954,13.468-165.508,13.468c-53.387,0-106.051-4.502-156.613-13.385     C88.459,219.59,81.839,320.98,75.434,419.077l-1.841,28.183L70.342,491.725z" style="fill:#221F20;"/></g><g><path d="M445.181,451.467H69.103c-2.485,0-4.5-2.015-4.5-4.5s2.015-4.5,4.5-4.5h376.078     c2.485,0,4.5,2.015,4.5,4.5S447.666,451.467,445.181,451.467z" style="fill:#221F20;"/></g><g><path d="M174.241,195.532c-12.09,0-21.926-9.827-21.926-21.906c0-12.09,9.836-21.926,21.926-21.926     c12.091,0,21.927,9.836,21.927,21.926C196.168,185.706,186.332,195.532,174.241,195.532z M174.241,160.7     c-7.127,0-12.926,5.799-12.926,12.926c0,7.116,5.798,12.906,12.926,12.906c7.128,0,12.927-5.79,12.927-12.906     C187.168,166.499,181.369,160.7,174.241,160.7z" style="fill:#221F20;"/></g><g><path d="M338.842,195.532c-12.079,0-21.906-9.827-21.906-21.906c0-12.09,9.827-21.926,21.906-21.926     c12.09,0,21.926,9.836,21.926,21.926C360.768,185.706,350.932,195.532,338.842,195.532z M338.842,160.7     c-7.116,0-12.906,5.799-12.906,12.926c0,7.116,5.79,12.906,12.906,12.906c7.127,0,12.926-5.79,12.926-12.906     C351.768,166.499,345.969,160.7,338.842,160.7z" style="fill:#221F20;"/></g><g><path d="M338.842,160.7c-2.485,0-4.5-2.015-4.5-4.5V94.917c0-40.908-33.281-74.189-74.188-74.189h-6.002     c-40.919,0-74.21,33.281-74.21,74.189V156.2c0,2.485-2.015,4.5-4.5,4.5s-4.5-2.015-4.5-4.5V94.917     c0-45.871,37.328-83.189,83.21-83.189h6.002c45.87,0,83.188,37.318,83.188,83.189V156.2     C343.342,158.686,341.327,160.7,338.842,160.7z" style="fill:#221F20;"/></g><g><path d="M256.551,433.44c-2.485,0-4.5-2.015-4.5-4.5V182.029c0-2.485,2.015-4.5,4.5-4.5     c2.485,0,4.5,2.015,4.5,4.5V428.94C261.051,431.426,259.036,433.44,256.551,433.44z" style="fill:#221F20;"/></g><g><path d="M380.297,309.675H132.786c-2.485,0-4.5-2.015-4.5-4.5s2.015-4.5,4.5-4.5h247.511     c2.485,0,4.5,2.015,4.5,4.5S382.782,309.675,380.297,309.675z" style="fill:#221F20;"/></g><g><path d="M343.663,397.387c-1.151,0-2.303-0.439-3.182-1.318L165.658,221.244     c-1.757-1.757-1.757-4.607,0-6.364c1.758-1.757,4.607-1.756,6.364,0l174.823,174.826c1.758,1.757,1.758,4.606,0,6.363     C345.967,396.947,344.814,397.387,343.663,397.387z" style="fill:#221F20;"/></g><g><path d="M168.84,397.387c-1.152,0-2.303-0.439-3.182-1.318c-1.757-1.757-1.757-4.606,0-6.363     l174.824-174.826c1.756-1.757,4.607-1.757,6.363,0c1.758,1.757,1.758,4.607,0,6.364L172.022,396.068     C171.143,396.947,169.992,397.387,168.84,397.387z" style="fill:#221F20;"/></g><g><path d="M227.721,281.444h-19.228c-2.485,0-4.5-2.015-4.5-4.5s2.015-4.5,4.5-4.5h14.728v-14.727     c0-2.485,2.015-4.5,4.5-4.5s4.5,2.015,4.5,4.5v19.227C232.221,279.43,230.207,281.444,227.721,281.444z" style="fill:#221F20;"/></g><g><path d="M256.551,268.84c-1.119,0-2.239-0.415-3.11-1.248l-13.825-13.225     c-1.796-1.718-1.859-4.567-0.141-6.363c1.719-1.796,4.566-1.859,6.363-0.141l10.642,10.18l10.091-10.107     c1.756-1.759,4.604-1.761,6.364-0.005c1.759,1.756,1.761,4.605,0.005,6.364l-13.204,13.226     C258.858,268.398,257.705,268.84,256.551,268.84z" style="fill:#221F20;"/></g><g><path d="M305.21,280.243h-19.228c-2.485,0-4.5-2.015-4.5-4.5v-19.226c0-2.485,2.015-4.5,4.5-4.5     s4.5,2.015,4.5,4.5v14.726h14.728c2.485,0,4.5,2.015,4.5,4.5S307.695,280.243,305.21,280.243z" style="fill:#221F20;"/></g><g><path d="M309.412,323.5c-1.187,0-2.371-0.466-3.255-1.392l-13.205-13.825     c-1.689-1.769-1.657-4.562,0.072-6.29l13.205-13.205c1.756-1.758,4.607-1.758,6.363,0c1.758,1.757,1.758,4.606,0,6.363     l-10.095,10.096l10.167,10.645c1.717,1.798,1.651,4.646-0.146,6.362C311.647,323.087,310.528,323.5,309.412,323.5z" style="fill:#221F20;"/></g><g><path d="M285.381,355.932c-2.485,0-4.5-2.015-4.5-4.5v-18.606c0-2.485,2.015-4.5,4.5-4.5h18.629     c2.485,0,4.5,2.015,4.5,4.5s-2.015,4.5-4.5,4.5h-14.129v14.106C289.881,353.917,287.866,355.932,285.381,355.932z" style="fill:#221F20;"/></g><g><path d="M243.927,361.354c-1.185,0-2.368-0.465-3.252-1.39c-1.718-1.796-1.655-4.645,0.141-6.362     l13.826-13.226c1.769-1.691,4.566-1.659,6.295,0.072l13.203,13.226c1.756,1.759,1.754,4.608-0.005,6.364     c-1.76,1.756-4.608,1.753-6.364-0.005l-10.091-10.108l-10.643,10.181C246.165,360.939,245.045,361.354,243.927,361.354z" style="fill:#221F20;"/></g><g><path d="M228.921,356.531c-2.485,0-4.5-2.015-4.5-4.5v-14.105h-14.126c-2.485,0-4.5-2.015-4.5-4.5     s2.015-4.5,4.5-4.5h18.626c2.485,0,4.5,2.015,4.5,4.5v18.605C233.421,354.517,231.407,356.531,228.921,356.531z" style="fill:#221F20;"/></g><g><path d="M203.671,323.5c-1.152,0-2.303-0.439-3.182-1.318c-1.757-1.757-1.757-4.606,0-6.363l10.041-10.041     l-10.039-10.022c-1.758-1.756-1.761-4.605-0.005-6.364c1.756-1.757,4.605-1.76,6.364-0.005l13.225,13.204     c0.845,0.844,1.32,1.988,1.32,3.183s-0.474,2.34-1.318,3.184l-13.225,13.226C205.975,323.061,204.823,323.5,203.671,323.5z" style="fill:#221F20;"/></g></g></g><g id="Layer_1"/></svg>