<?xml version="1.0" ?><!DOCTYPE svg  PUBLIC '-//W3C//DTD SVG 1.1//EN'  'http://www.w3.org/Graphics/SVG/1.1/DTD/svg11.dtd'><svg height="512px" style="enable-background:new 0 0 512 512;" version="1.1" viewBox="0 0 512 512" width="512px" xml:space="preserve" xmlns="http://www.w3.org/2000/svg" xmlns:xlink="http://www.w3.org/1999/xlink"><g id="cookie__x2C__christmas_cookie__x2C__food__x2C_"><g><g><path d="M211.453,101.818c-9.359,0-16.417-7.058-16.417-16.417c0-8.882,7.211-15.84,16.417-15.84     c8.888,0,16.396,7.254,16.396,15.84C227.85,94.454,220.494,101.818,211.453,101.818z M211.453,78.561     c-4.229,0-7.417,2.941-7.417,6.84c0,4.297,3.119,7.417,7.417,7.417c3.572,0,7.396-2.98,7.396-7.417     C218.85,81.821,215.324,78.561,211.453,78.561z" style="fill:#221F20;"/></g><g><path d="M301.04,101.818c-9.052,0-16.415-7.364-16.415-16.417c0-8.586,7.518-15.84,16.415-15.84     c8.889,0,16.397,7.254,16.397,15.84C317.438,94.454,310.082,101.818,301.04,101.818z M301.04,78.561     c-3.881,0-7.415,3.26-7.415,6.84c0,4.437,3.834,7.417,7.415,7.417c3.572,0,7.397-2.98,7.397-7.417     C308.438,81.821,304.911,78.561,301.04,78.561z" style="fill:#221F20;"/></g><g><path d="M252.555,152.563c-16.468,0-33.139-9.435-33.139-27.466c0-2.485,2.015-4.5,4.5-4.5     s4.5,2.015,4.5,4.5c0,12.688,12.513,18.466,24.139,18.466c11.626,0,24.139-5.779,24.139-18.466c0-2.485,2.015-4.5,4.5-4.5     s4.5,2.015,4.5,4.5C285.693,143.128,269.022,152.563,252.555,152.563z" style="fill:#221F20;"/></g><g><path d="M345.912,500.726c-21.941,0.001-42.035-10.835-53.752-28.988l-17.003-26.072     c-0.085-0.131-0.163-0.266-0.234-0.404l-18.676-36.419l-18.675,36.419c-0.071,0.139-0.15,0.273-0.235,0.404l-17.015,26.09     c-11.716,18.135-31.814,28.971-53.752,28.971c-12.274,0-24.255-3.478-34.647-10.055c-14.201-9.17-23.985-23.493-27.583-40.354     c-3.595-16.845-0.53-33.928,8.628-48.104l34.39-53.237l-2.073-51.846l-56.187-12.84c-29.283-6.859-47.579-35.996-40.809-64.955     c5.644-24.134,27.59-41.651,52.182-41.651c4.103,0,8.216,0.486,12.225,1.446l36.619,8.199l31.705-11.951     c-14.949-17.808-23.412-40.932-23.412-64.455c0-54.697,44.25-99.197,98.64-99.197c54.379,0,98.621,44.5,98.621,99.197     c0,23.533-8.456,46.657-23.394,64.455l31.698,11.948l36.11-8.208c4.052-0.949,8.229-1.434,12.383-1.434     c25.188,0,46.784,17.127,52.521,41.65c3.292,14.038,0.825,28.548-6.945,40.854c-7.729,12.239-19.74,20.797-33.82,24.095     l-56.21,12.846l-2.072,51.846l34.371,53.239c9.159,14.175,12.227,31.257,8.638,48.1c-3.594,16.863-13.374,31.188-27.539,40.334     C370.174,497.248,358.188,500.725,345.912,500.726z M282.824,440.945l16.887,25.894c10.063,15.591,27.329,24.888,46.2,24.887     c10.571-0.001,20.893-2.996,29.85-8.66c12.104-7.816,20.492-20.122,23.583-34.626c3.09-14.498,0.463-29.18-7.395-41.342     l-35.146-54.438c-0.503-0.778-0.753-1.693-0.716-2.62l2.267-56.71c0.081-2.03,1.513-3.755,3.493-4.207l59.543-13.606     c11.742-2.751,21.78-9.902,28.239-20.132c6.473-10.25,8.53-22.324,5.793-33.997c-4.779-20.433-22.773-34.703-43.758-34.703     c-3.465,0-6.95,0.405-10.359,1.204l-37.458,8.515c-0.858,0.195-1.758,0.134-2.584-0.177l-39.13-14.75     c-1.418-0.535-2.472-1.747-2.804-3.226s0.103-3.025,1.156-4.114c16.13-16.675,25.381-39.716,25.381-63.213     c0-49.735-40.204-90.197-89.621-90.197c-49.428,0-89.64,40.462-89.64,90.197c0,23.484,9.258,46.524,25.4,63.213     c1.054,1.089,1.488,2.635,1.156,4.114c-0.332,1.479-1.385,2.691-2.803,3.226l-39.129,14.75c-0.822,0.309-1.714,0.372-2.571,0.18     l-37.995-8.508c-3.387-0.81-6.795-1.213-10.194-1.213c-20.456,0-38.716,14.594-43.418,34.7     c-5.641,24.128,9.645,48.414,34.074,54.137l59.519,13.602c1.981,0.452,3.413,2.177,3.494,4.207l2.267,56.71     c0.037,0.927-0.213,1.843-0.717,2.621l-35.164,54.436c-7.857,12.161-10.48,26.843-7.386,41.341     c3.095,14.505,11.487,26.811,23.629,34.65c8.916,5.643,19.232,8.638,29.8,8.638c18.869,0,36.142-9.298,46.203-24.871     l16.897-25.909l22.573-44.02c0.771-1.502,2.316-2.446,4.004-2.446s3.234,0.944,4.004,2.446L282.824,440.945z" style="fill:#221F20;"/></g><g><path d="M256.247,243.574c-10.974,0-19.249-8.271-19.249-19.239c0-10.794,8.455-19.25,19.249-19.25     c10.434,0,19.25,8.815,19.25,19.25C275.496,235.124,267.041,243.574,256.247,243.574z M256.247,214.086     c-5.747,0-10.249,4.502-10.249,10.25c0,6.028,4.214,10.239,10.249,10.239c5.748,0,10.25-4.498,10.25-10.239     C266.496,218.875,261.707,214.086,256.247,214.086z" style="fill:#221F20;"/></g><g><path d="M256.247,310.482c-10.794,0-19.249-8.451-19.249-19.239s8.455-19.239,19.249-19.239     c10.434,0,19.25,8.811,19.25,19.239S266.681,310.482,256.247,310.482z M256.247,281.004c-5.747,0-10.249,4.498-10.249,10.239     s4.502,10.239,10.249,10.239c5.46,0,10.25-4.785,10.25-10.239S261.707,281.004,256.247,281.004z" style="fill:#221F20;"/></g><g><path d="M127.526,292.912c-0.695,0-1.401-0.162-2.061-0.503c-20.976-10.833-31.049-21.379-30.796-32.241     c0.279-11.959,13.41-18.119,13.969-18.375c0.252-0.116,0.515-0.208,0.784-0.275c0.165-0.045,5.006-1.405,7.087-6.103     c2.013-4.545,0.905-11.198-3.203-19.239c-6.232-12.218-7.713-21.818-4.401-28.537c3.007-6.1,8.654-7.306,9.288-7.423l1.639,8.85     l0.108-0.022c-0.205,0.05-2.033,0.548-3.033,2.723c-1.053,2.292-1.879,7.979,4.415,20.317     c5.505,10.775,6.629,19.909,3.339,27.146c-3.406,7.493-10.434,10.204-12.49,10.854c-1.343,0.702-8.395,4.659-8.505,10.321     c-0.077,3.926,3.19,12.264,25.929,24.008c2.208,1.141,3.074,3.854,1.933,6.063C130.729,292.023,129.156,292.912,127.526,292.912z     " style="fill:#221F20;"/></g><g><path d="M385.527,292.912c-0.688,0-1.388-0.159-2.043-0.493c-21.171-10.815-31.105-20.945-30.372-30.969     c0.812-11.094,14.143-15.917,15.66-16.431c0.106-0.036,0.214-0.068,0.322-0.096c0.148-0.042,4.679-1.355,6.659-5.876     c2.003-4.573,0.857-11.307-3.314-19.474c-6.258-12.269-7.718-21.811-4.339-28.363c3.074-5.961,8.768-6.962,9.407-7.057     l1.316,8.903l0.109-0.018c-0.196,0.04-1.946,0.449-2.898,2.427c-1.05,2.18-1.872,7.68,4.421,20.017     c5.566,10.898,6.73,20.105,3.459,27.363c-3.499,7.76-10.869,10.292-12.335,10.727c-2.444,0.864-9.188,4.185-9.493,8.549     c-0.188,2.688,1.918,10.24,25.491,22.282c2.214,1.131,3.091,3.842,1.961,6.055C388.743,292.016,387.164,292.912,385.527,292.912z     " style="fill:#221F20;"/></g><g><path d="M221.089,466.989c-0.123,0-0.246-0.005-0.371-0.015c-2.471-0.202-4.313-2.364-4.121-4.834     c0.011-0.152,0.642-10.087-5.563-17.155c-3.966-4.518-10.018-7.038-17.985-7.491c-29.728-1.682-36.9-7.754-38.391-9.575     c-0.761-0.931-1.119-2.127-0.992-3.323c0.456-4.458,0.214-16.919-6.302-20.894c-5.691-3.468-16.496-0.385-30.429,8.688     c-2.082,1.357-4.87,0.768-6.227-1.314c-1.356-2.083-0.767-4.871,1.315-6.227c17.755-11.563,30.858-14.445,40.053-8.814     c10.108,6.189,10.859,20.692,10.699,26.774c2.932,1.509,11.159,4.589,30.783,5.698c10.517,0.599,18.698,4.175,24.316,10.629     c8.704,9.998,7.739,23.163,7.694,23.719C225.377,465.208,223.408,466.989,221.089,466.989z" style="fill:#221F20;"/></g><g><path d="M285.72,458.482c-2.214,0-4.144-1.635-4.452-3.89c-2.874-20.953,0.071-33.908,9.005-39.604     c9.892-6.308,23.333-0.391,28.854,2.573c2.697-2.153,9.001-8.505,18.204-25.796c4.986-9.185,11.636-15,19.78-17.319     c12.596-3.582,23.943,2.771,24.421,3.043c2.158,1.232,2.909,3.981,1.677,6.14c-1.229,2.153-3.971,2.903-6.125,1.685     c-0.188-0.104-8.728-4.754-17.585-2.188c-5.696,1.647-10.487,5.988-14.24,12.902c-13.975,26.257-22.54,30.437-24.832,31.092     c-1.245,0.354-2.583,0.157-3.672-0.543c-3.878-2.479-15.339-8.032-21.653-3.992c-5.418,3.466-7.164,14.399-4.917,30.785     c0.338,2.462-1.385,4.731-3.847,5.069C286.13,458.468,285.924,458.482,285.72,458.482z" style="fill:#221F20;"/></g></g></g><g id="Layer_1"/></svg>