<?xml version="1.0" ?><!DOCTYPE svg  PUBLIC '-//W3C//DTD SVG 1.1//EN'  'http://www.w3.org/Graphics/SVG/1.1/DTD/svg11.dtd'><svg height="512px" style="enable-background:new 0 0 512 512;" version="1.1" viewBox="0 0 512 512" width="512px" xml:space="preserve" xmlns="http://www.w3.org/2000/svg" xmlns:xlink="http://www.w3.org/1999/xlink"><g id="cap__x2C__hat__x2C__winters_hat__x2C__cloths__x2C_"><g><g><path d="M54.487,365.851c-0.643,0-1.296-0.139-1.916-0.431c-2.248-1.06-3.211-3.741-2.151-5.989     c25.045-53.123,59.334-85.95,99.161-94.933c36.968-8.338,77.664,4.595,117.685,37.398c1.922,1.576,2.203,4.411,0.628,6.333     c-1.574,1.921-4.409,2.204-6.333,0.628c-37.797-30.981-75.834-43.282-110-35.58c-37.022,8.35-69.181,39.468-93,89.991     C57.792,364.896,56.175,365.851,54.487,365.851z" style="fill:#221F20;"/></g><g><path d="M40.508,409.688c-15.861,0-28.766-12.688-28.766-28.284c0-16.121,12.635-28.75,28.766-28.75     c16.121,0,28.75,12.629,28.75,28.75C69.258,397,56.361,409.688,40.508,409.688z M40.508,361.654     c-11.083,0-19.766,8.675-19.766,19.75c0,10.634,8.867,19.284,19.766,19.284c10.89,0,19.75-8.65,19.75-19.284     C60.258,370.329,51.583,361.654,40.508,361.654z" style="fill:#221F20;"/></g><g><path d="M17.177,378.448c-0.047,0-0.094-0.001-0.142-0.002c-2.484-0.077-4.436-2.153-4.359-4.638     c2.307-74.462,26.243-139.95,69.22-189.382c39.215-45.104,91.806-73.588,148.087-80.203     c52.644-6.187,105.262,7.725,148.166,39.175c47.765,35.013,83.166,90.939,102.377,161.732c0.651,2.398-0.766,4.871-3.164,5.521     c-2.395,0.654-4.87-0.765-5.521-3.164c-43.215-159.246-156.732-204.211-240.807-194.326     c-97.296,11.437-204.313,97.967-209.362,260.926C21.597,376.524,19.598,378.448,17.177,378.448z" style="fill:#221F20;"/></g><g><path d="M205.633,274.894c-1.556,0-3.068-0.808-3.901-2.251l-52.245-90.499     c-1.243-2.152-0.505-4.905,1.647-6.147c2.155-1.243,4.905-0.505,6.147,1.647l52.245,90.499c1.243,2.152,0.505,4.904-1.647,6.147     C207.17,274.699,206.396,274.894,205.633,274.894z" style="fill:#221F20;"/></g><g><path d="M469.177,364.451H264.412c-17.361,0-32.027-14.667-32.027-32.028     c0-17.395,14.367-31.546,32.027-31.546h204.765c17.403,0,31.563,14.151,31.563,31.546     C500.739,350.083,486.58,364.451,469.177,364.451z M264.412,309.877c-12.482,0-23.027,10.325-23.027,22.546     c0,12.482,10.545,23.028,23.027,23.028h204.765c12.23,0,22.563-10.546,22.563-23.028c0-12.432-10.121-22.546-22.563-22.546     H264.412z" style="fill:#221F20;"/></g><g><path d="M363.757,179.733c-1.115,0-2.232-0.412-3.104-1.243c-27.846-26.539-62.437-39.43-102.74-38.305     c-30.327,0.843-52.707,9.737-52.929,9.827c-2.303,0.931-4.926-0.183-5.857-2.486c-0.931-2.303,0.179-4.924,2.481-5.857     c0.959-0.388,23.854-9.526,55.722-10.472c29.537-0.879,72.505,5.488,109.532,40.777c1.799,1.714,1.867,4.563,0.153,6.362     C366.131,179.266,364.945,179.733,363.757,179.733z" style="fill:#221F20;"/></g></g></g><g id="Layer_1"/></svg>