<?xml version="1.0" ?><svg id="Layer_1" style="enable-background:new 0 0 250 250;" version="1.0" viewBox="0 0 250 250" xml:space="preserve" xmlns="http://www.w3.org/2000/svg" xmlns:xlink="http://www.w3.org/1999/xlink"><style type="text/css">
	.st0{fill-rule:evenodd;clip-rule:evenodd;fill:none;stroke:#000000;stroke-width:6;stroke-linecap:round;stroke-linejoin:round;}
	.st1{fill:none;stroke:#000000;stroke-width:6;stroke-linecap:round;stroke-linejoin:round;stroke-miterlimit:10;}
	.st2{fill:none;stroke:#ED1C24;stroke-miterlimit:10;}
	.st3{fill:none;stroke:#000000;stroke-width:2;stroke-linecap:round;stroke-linejoin:round;stroke-miterlimit:10;}
	.st4{stroke:#000000;stroke-width:3;stroke-linecap:round;stroke-linejoin:round;stroke-miterlimit:10;}
	.st5{stroke:#000000;stroke-width:6;stroke-linecap:round;stroke-linejoin:round;stroke-miterlimit:10;}
</style><path d="M231.4,69.5c-0.6-0.6-1.4-0.9-2.2-0.9c0,0,0,0,0,0l-53.1,0.7l-80.4-7.4c-1.5-0.1-2.8,0.8-3.2,2.2l-3.8,13.9L61.7,64.5  c-1.2-0.6-2.7-0.3-3.6,0.8l-8,9.5l-19.6-7.6c-0.9-0.3-1.9-0.2-2.7,0.2c-0.8,0.5-1.3,1.3-1.4,2.3c0,0.4-4,40-8.5,59.7  c-0.2,0.8,0,1.6,0.4,2.3c5,7.7,7.5,22.4,7.6,22.5c0.2,1.4,1.4,2.4,2.8,2.5l2.4,0.2c8.5,0.6,16.9,1.2,25.4,1.7c1.6,0.1,2.4,0.6,3.5,2  c4.9,6.7,10,13.4,14.9,19.8c2.7,3.5,5.3,7,8,10.5c1.5,2,4.3,5.7,9.2,5.7c0.6,0,1.2,0,1.8-0.2c5.9-1,7.7-5.9,8.6-8.2  c1.5-3.9,3-7.7,4.5-11.6c3.1-8.1,6.4-16.6,9.5-24.9c0.1-0.3,0.2-0.5,0.3-0.6c0.1,0,0.4,0,0.9,0c8.3,0.8,16.7,1.6,24.8,2.3  c7,0.6,14.1,1.3,21.1,2c1,0.1,2,0.2,3,0.3c6.8,0.6,13.2,1.2,19.1,4.1c3.5,1.7,6.5,2.1,9.2,1.1c2.8-1.1,5-3.6,6.7-7.7  c10.3-25.1,19.6-47.8,28.9-70.6c1-2.3,1.6-4.8,1.8-7.2c0.1-0.8,0.1-1.6,0.2-2.4l0.1-1.3C232.3,70.9,232,70.1,231.4,69.5z M226,75  c-0.1,1.8-0.6,3.6-1.3,5.4c-9.3,22.8-18.6,45.5-28.9,70.6c-1,2.4-2.1,3.9-3.2,4.3c-1,0.4-2.5,0.1-4.4-0.8c-7-3.4-14.2-4.1-21.2-4.7  c-1-0.1-1.9-0.2-2.9-0.3c-7-0.7-14.1-1.3-21.1-2c-8.1-0.7-16.5-1.5-24.8-2.3c-2.6-0.3-5.8,0-7.4,4.5c-3.1,8.3-6.3,16.7-9.5,24.8  c-1.5,3.9-3,7.7-4.5,11.6c-1.2,3.1-2.1,4.1-4,4.4c-2,0.3-3.1-0.4-5.3-3.2c-2.7-3.5-5.3-7.1-8-10.6c-4.9-6.5-10-13.1-14.9-19.8  c-2.1-2.8-4.6-4.2-7.9-4.4c-8.5-0.5-16.9-1.1-25.4-1.7l-0.1,0c-0.9-4.5-3.3-14.5-7.3-21.4c3.7-16.7,6.9-45,8-55.3l17.9,6.9  c1.2,0.5,2.6,0.1,3.4-0.9l7.9-9.3l28.2,13.9c0.8,0.4,1.7,0.4,2.6,0c0.8-0.4,1.4-1.1,1.7-1.9l4.1-15l78.1,7.2c0.1,0,0.2,0,0.3,0  l50-0.6C226.1,74.7,226,74.8,226,75z"/></svg>