<?xml version="1.0" ?><svg id="Layer_1" style="enable-background:new 0 0 250 250;" version="1.0" viewBox="0 0 250 250" xml:space="preserve" xmlns="http://www.w3.org/2000/svg" xmlns:xlink="http://www.w3.org/1999/xlink"><style type="text/css">
	.st0{fill-rule:evenodd;clip-rule:evenodd;fill:none;stroke:#000000;stroke-width:6;stroke-linecap:round;stroke-linejoin:round;}
	.st1{fill:none;stroke:#000000;stroke-width:6;stroke-linecap:round;stroke-linejoin:round;stroke-miterlimit:10;}
	.st2{fill:none;stroke:#ED1C24;stroke-miterlimit:10;}
	.st3{fill:none;stroke:#000000;stroke-width:2;stroke-linecap:round;stroke-linejoin:round;stroke-miterlimit:10;}
	.st4{stroke:#000000;stroke-width:3;stroke-linecap:round;stroke-linejoin:round;stroke-miterlimit:10;}
	.st5{stroke:#000000;stroke-width:6;stroke-linecap:round;stroke-linejoin:round;stroke-miterlimit:10;}
</style><path d="M233.5,130c-0.5-1.3-1.9-2.2-3.3-1.9l-1.9,0.3c-1.4,0.2-2.4,0-3.6-0.7c-18.3-11.1-37-22.4-53.2-32.1  c-1.3-0.8-2.9-1.7-4.8-1.9c-4.9-0.7-9.9-1.3-14.7-1.9c-3.8-0.5-7.6-0.9-11.3-1.4c-0.1,0-0.2-0.1-0.3-0.2  c-10.3-10.9-21.3-22.6-32.3-34.5c-0.2-0.2-0.5-0.9-0.5-1.3c-0.1-14.3-0.1-28.6-0.1-43.3c0-0.9-0.4-1.7-1.1-2.3  c-0.7-0.6-1.6-0.8-2.5-0.6c-8.8,1.8-20.4,11-20.8,11.4c-0.1,0-0.1,0.1-0.2,0.1c-1.2,1.1-11.9,11.3-15,17.9  c-2.3,4.8-5.5,9.1-6.5,10.5c-2.1,1.1-9.3,5-14.8,9c-6.2,4.6-7.4,21.9-7.6,28.7c-0.5,0.7-0.7,1.6-0.5,2.5c1.7,6.6-0.5,13-1.2,14.7  c-1.8,1.9-9.2,9.7-12.4,13.8c-3.5,4.6-2.4,10.8-1.7,13.6l-4.1,7c-0.1,0.2-0.2,0.4-0.3,0.6c-0.2,0.6-4.9,16.1-1.1,31.7  c3.8,15.3,15.4,31.9,15.9,32.6c0.2,0.3,0.4,0.5,0.7,0.7c0.1,0.1,11.2,8,21,20.6C66.8,238.4,77.8,242,85.7,242c1.1,0,2.2-0.1,3.2-0.2  c5.7-0.7,13.3-4.4,17.4-17.6c1.5-1.3,9.2-2.8,16.8-3.1l48.3,0.8c0,0,0,0,0.1,0c1.1,0,2.2-0.7,2.7-1.7c0.5-1.1,0.4-2.3-0.4-3.2  c-9.4-11.4-19.7-25.6-20.3-28.7c0.1-3.4-0.8-8.3-1.4-11.5l8.3-1.9c0.3-0.1,0.5-0.1,0.7-0.3l24.9-13.1c0.1,0,0.1-0.1,0.2-0.1l46-27.9  C233.4,132.8,234,131.3,233.5,130z"/></svg>