<?xml version="1.0" ?><svg id="Layer_1" style="enable-background:new 0 0 250 250;" version="1.0" viewBox="0 0 250 250" xml:space="preserve" xmlns="http://www.w3.org/2000/svg" xmlns:xlink="http://www.w3.org/1999/xlink"><style type="text/css">
	.st0{fill-rule:evenodd;clip-rule:evenodd;fill:none;stroke:#000000;stroke-width:6;stroke-linecap:round;stroke-linejoin:round;}
	.st1{fill:none;stroke:#000000;stroke-width:6;stroke-linecap:round;stroke-linejoin:round;stroke-miterlimit:10;}
	.st2{fill:none;stroke:#ED1C24;stroke-miterlimit:10;}
	.st3{fill:none;stroke:#000000;stroke-width:2;stroke-linecap:round;stroke-linejoin:round;stroke-miterlimit:10;}
	.st4{stroke:#000000;stroke-width:3;stroke-linecap:round;stroke-linejoin:round;stroke-miterlimit:10;}
	.st5{stroke:#000000;stroke-width:6;stroke-linecap:round;stroke-linejoin:round;stroke-miterlimit:10;}
</style><path d="M213.4,209.8c-1.7-3.1-4.7-6.1-8.1-9.5c-6.2-6.1-13.1-13.1-13.1-21.5c0-5.9,3.3-12,10.1-18.6c6.5-6.3,10.6-13.7,12.4-21.7  c2-9.3-1.9-19-10-24.8c-13.9-9.8-20.9-18.9-18.6-24.3c4.5-10.8,4-41.6,3.3-59c0-0.8-0.4-1.6-1-2.1c-0.6-0.5-1.4-0.8-2.2-0.8  c-33.2,2.4-35.2,9-35.9,11.2c-3.4,11.4-10.6,25.3-25.3,27.2c-18.4,2.3-37.2-8.3-54.5-30.6c-5.4-7-11.5-13.9-18.2-20.5  c-0.6-0.6-1.4-0.9-2.3-0.9c-0.9,0.1-1.6,0.5-2.2,1.1c-4.6,5.9-10.5,14.5-12.1,22.3c-1.8,8.9,4,28.4,9.2,43.3  c1.2,3.6,0.7,7.5-1.6,10.5l-6,8.1c-2.9,4-3.6,9.2-1.7,13.8l10.6,26.4l-9.4,4.7c-0.9,0.4-1.5,1.3-1.6,2.3c-0.1,1,0.2,2,1,2.6  c5.8,5.2,19.8,18.9,25.3,33.9c0.4,1,1.2,1.7,2.2,1.9c1,0.2,2.1-0.2,2.8-0.9c2.4-2.7,4.5-4.7,5.4-5.6c12.3-3.9,24.8-6.1,27.1-4.7  c2,2.2,6.8,5.8,12.9,10.2c7.4,5.5,16.7,12.2,21,17c1.4,1.6,3,4.1,4.8,7.3c0.4,0.7,1,1.2,1.7,1.4c0.8,0.3,1.5,0.5,1.9,0.6l19.9,18.2  c1.1,1,2.6,1,3.8,0.2c9.2-6.7,17.6-9.6,20-8.4c5.8,2.9,14.9,8.3,16.8,9.5l5.2,5.5c0.6,0.6,1.4,0.9,2.2,0.9c0.2,0,0.4,0,0.6-0.1  c1-0.2,1.8-0.9,2.2-1.8C216,224,216.6,215.7,213.4,209.8z"/></svg>