<?xml version="1.0" ?><svg id="Layer_1" style="enable-background:new 0 0 250 250;" version="1.0" viewBox="0 0 250 250" xml:space="preserve" xmlns="http://www.w3.org/2000/svg" xmlns:xlink="http://www.w3.org/1999/xlink"><style type="text/css">
	.st0{fill-rule:evenodd;clip-rule:evenodd;fill:none;stroke:#000000;stroke-width:6;stroke-linecap:round;stroke-linejoin:round;}
	.st1{fill:none;stroke:#000000;stroke-width:6;stroke-linecap:round;stroke-linejoin:round;stroke-miterlimit:10;}
	.st2{fill:none;stroke:#ED1C24;stroke-miterlimit:10;}
	.st3{fill:none;stroke:#000000;stroke-width:2;stroke-linecap:round;stroke-linejoin:round;stroke-miterlimit:10;}
	.st4{stroke:#000000;stroke-width:3;stroke-linecap:round;stroke-linejoin:round;stroke-miterlimit:10;}
	.st5{stroke:#000000;stroke-width:6;stroke-linecap:round;stroke-linejoin:round;stroke-miterlimit:10;}
</style><path d="M233.5,130c-0.5-1.3-1.9-2.2-3.3-1.9l-1.9,0.3c-1.4,0.2-2.4,0-3.6-0.7c-18.1-11-36.2-21.9-53.2-32.1  c-1.3-0.8-2.9-1.7-4.8-1.9c-4.9-0.7-9.9-1.3-14.7-1.9c-3.8-0.5-7.6-1-11.3-1.4c-0.1,0-0.2-0.1-0.3-0.2  c-10.3-10.9-21.3-22.7-32.3-34.5c-0.2-0.2-0.5-0.9-0.5-1.3c-0.1-14.3-0.1-28.6-0.1-43.3c0-0.9-0.4-1.7-1.1-2.3  c-0.7-0.6-1.6-0.8-2.5-0.6c-8.8,1.8-20.4,11-20.8,11.4c-0.1,0-0.1,0.1-0.2,0.1c-1.2,1.1-11.9,11.3-15,17.9  c-2.3,4.8-5.5,9.1-6.5,10.5c-2.1,1.1-9.3,5-14.8,9c-6.2,4.6-7.4,21.9-7.6,28.7c-0.5,0.7-0.7,1.6-0.5,2.5c1.7,6.6-0.5,13-1.2,14.7  c-1.8,1.9-9.2,9.7-12.4,13.8c-3.5,4.6-2.4,10.8-1.7,13.6l-4.1,7c-0.1,0.2-0.2,0.4-0.3,0.6c-0.2,0.6-4.9,16.1-1.1,31.7  c3.8,15.3,15.4,31.9,15.9,32.6c0.2,0.3,0.4,0.5,0.7,0.7c0.1,0.1,11.2,8,21,20.6C66.8,238.4,77.8,242,85.7,242c1.1,0,2.2-0.1,3.2-0.2  c5.7-0.7,13.3-4.4,17.4-17.6c1.5-1.3,9.2-2.8,16.8-3.1l48.3,0.8c0,0,0,0,0.1,0c1.1,0,2.2-0.7,2.7-1.7c0.5-1.1,0.4-2.3-0.4-3.2  c-9.4-11.4-19.7-25.6-20.3-28.7c0.1-3.4-0.8-8.3-1.4-11.5l8.3-1.9c0.3-0.1,0.5-0.1,0.7-0.3l24.9-13.1c0.1,0,0.1-0.1,0.2-0.1l46-27.9  C233.4,132.8,234,131.3,233.5,130z M183.2,156.3l-24.4,12.9l-10.8,2.5c-0.8,0.2-1.5,0.7-1.9,1.4c-0.4,0.7-0.5,1.5-0.4,2.3  c0.6,2.4,2.1,9.3,1.9,12.8c-0.2,4.4,9.6,17.6,17.6,27.6l-42-0.7c-0.1,0-0.1,0-0.2,0c-9.3,0.4-20.8,2-22.3,7.1  c-1.7,5.7-5.3,12.8-12.5,13.7c-9.4,1.2-19.1-4.3-28.1-16c-9.3-12-19.5-19.8-21.8-21.5c-1.8-2.6-11.5-17.2-14.7-30.1  c-3.1-12.8,0.3-26,0.9-28.2l4.6-7.8c0.5-0.8,0.5-1.7,0.2-2.5c-0.6-1.6-1.7-6.7,0.4-9.4c3.4-4.4,12.3-13.7,12.4-13.8  c0.2-0.2,0.4-0.5,0.6-0.9c0.2-0.4,3.6-8.1,2.1-17c0.1-0.3,0.2-0.7,0.2-1.1c0.1-10.7,2.1-23.7,5.2-26c5.9-4.4,14.4-8.8,14.5-8.8  c0.4-0.2,0.7-0.4,0.9-0.8c0.2-0.2,4.6-5.7,7.7-12.2c2.2-4.7,10.5-13,13.6-16c0.9-0.7,8.1-6.3,14.6-9c0,13.2,0,26.2,0.1,39.2  c0,1.9,0.8,4,2.1,5.4c10.9,11.8,22,23.6,32.3,34.5c1,1.1,2.4,1.8,3.8,2c3.8,0.5,7.6,1,11.5,1.5c4.8,0.6,9.8,1.2,14.6,1.9  c0.8,0.1,1.8,0.7,2.5,1.1c17,10.2,35,21.1,53.1,32.1c0.1,0.1,0.2,0.1,0.2,0.1L183.2,156.3z"/></svg>