<?xml version="1.0" ?><svg id="Layer_1" style="enable-background:new 0 0 250 250;" version="1.0" viewBox="0 0 250 250" xml:space="preserve" xmlns="http://www.w3.org/2000/svg" xmlns:xlink="http://www.w3.org/1999/xlink"><style type="text/css">
	.st0{fill-rule:evenodd;clip-rule:evenodd;fill:none;stroke:#000000;stroke-width:6;stroke-linecap:round;stroke-linejoin:round;}
	.st1{fill:none;stroke:#000000;stroke-width:6;stroke-linecap:round;stroke-linejoin:round;stroke-miterlimit:10;}
	.st2{fill:none;stroke:#ED1C24;stroke-miterlimit:10;}
	.st3{fill:none;stroke:#000000;stroke-width:2;stroke-linecap:round;stroke-linejoin:round;stroke-miterlimit:10;}
	.st4{stroke:#000000;stroke-width:3;stroke-linecap:round;stroke-linejoin:round;stroke-miterlimit:10;}
	.st5{stroke:#000000;stroke-width:6;stroke-linecap:round;stroke-linejoin:round;stroke-miterlimit:10;}
</style><path d="M231.4,69.5c-0.6-0.6-1.4-0.9-2.2-0.9c0,0,0,0,0,0l-53.1,0.7l-80.4-7.4c-1.5-0.1-2.8,0.8-3.2,2.2l-3.8,13.9L61.7,64.5  c-1.2-0.6-2.7-0.3-3.6,0.8l-8,9.5l-19.6-7.6c-0.9-0.3-1.9-0.2-2.7,0.2c-0.8,0.5-1.3,1.3-1.4,2.3c0,0.4-4,40-8.5,59.7  c-0.2,0.8,0,1.6,0.4,2.3c5,7.7,7.5,22.4,7.6,22.5c0.2,1.4,1.4,2.4,2.8,2.5l2.4,0.2c8.5,0.6,16.9,1.2,25.4,1.7c1.6,0.1,2.4,0.6,3.5,2  c4.9,6.7,10,13.4,14.9,19.8c2.7,3.5,5.3,7,8,10.5c1.5,2,4.3,5.7,9.2,5.7c0.6,0,1.2,0,1.8-0.2c5.9-1,7.7-5.9,8.6-8.2  c1.5-3.9,3-7.7,4.5-11.6c3.1-8.1,6.4-16.6,9.5-24.9c0.1-0.3,0.2-0.5,0.3-0.6c0.1,0,0.4,0,0.9,0c8.3,0.8,16.7,1.6,24.8,2.3  c7,0.6,14.1,1.3,21.1,2c1,0.1,2,0.2,3,0.3c6.8,0.6,13.2,1.2,19.1,4.1c3.5,1.7,6.5,2.1,9.2,1.1c2.8-1.1,5-3.6,6.7-7.7  c10.3-25.1,19.6-47.8,28.9-70.6c1-2.3,1.6-4.8,1.8-7.2c0.1-0.8,0.1-1.6,0.2-2.4l0.1-1.3C232.3,70.9,232,70.1,231.4,69.5z"/></svg>