<?xml version="1.0" ?><!DOCTYPE svg  PUBLIC '-//W3C//DTD SVG 1.1//EN'  'http://www.w3.org/Graphics/SVG/1.1/DTD/svg11.dtd'><svg enable-background="new 0 0 32 32" version="1.1" viewBox="0 0 32 32" xml:space="preserve" xmlns="http://www.w3.org/2000/svg" xmlns:xlink="http://www.w3.org/1999/xlink"><g><g id="Guide"/><g id="Basket_Add"/><g id="Schedule"/><g id="Clipboard"/><g id="Align_Left"/><g id="Align_Right"/><g id="Align_Center_1_"/><g id="Justify"/><g id="Document"/><g id="New_Document"><path d="M20.7,1.9l-13.6,0c-0.6,0-1,0.4-1,1l0,26.1c0,0.6,0.4,1,1,1l17.8,0     c0.6,0,1-0.4,1-1l0-21.9L20.7,1.9z" fill="none" stroke="#000000" stroke-miterlimit="10"/><g><path d="M16,19.5L16,19.5c-0.3,0-0.5-0.2-0.5-0.5l0-6.1c0-0.3,0.2-0.5,0.5-0.5l0.1,0c0.3,0,0.5,0.2,0.5,0.5      l0,6.1C16.5,19.3,16.3,19.5,16,19.5z" fill="#0E0111"/><path d="M12.5,16L12.5,16c0-0.3,0.2-0.5,0.5-0.5l6.1,0c0.3,0,0.5,0.2,0.5,0.5l0,0.1c0,0.3-0.2,0.5-0.5,0.5      l-6.1,0C12.7,16.5,12.5,16.2,12.5,16z" fill="#0E0111"/></g></g><g id="Cart"/></g></svg>