<?xml version="1.0" ?><svg id="Layer_1" style="enable-background:new 0 0 242.9 242.9;" version="1.1" viewBox="0 0 242.9 242.9" xml:space="preserve" xmlns="http://www.w3.org/2000/svg" xmlns:xlink="http://www.w3.org/1999/xlink"><style type="text/css">
	.st0{fill:#EE458C;}
</style><path class="st0" d="M242.9,0v120h-23.1v43.5h-0.4c-2.1-5-7-8.7-14.6-8.7c-14.8,0-28,14.8-28,45.1c0,19.9,5.7,37.2,17.9,43H162  V123.2h-23.4v119.7H0V0H242.9z M219.1,218.1c0.5-1.2,0.7-3.2,0.7-5.4v-23c0-1.6,0-3.4-0.2-5.2c-0.9-5.4-3.7-10.2-8.4-10.2  c-8.2,0-11.2,12-11.2,26.1c0,16.6,4.5,25.3,11.1,25.3C213.9,225.8,217.3,224.2,219.1,218.1z M222.1,233.7c-2,3.8-5.4,7.2-9.7,9.2  h11.2l-1.2-9.2H222.1z"/></svg>