<?xml version="1.0" ?><svg id="Layer_1" style="enable-background:new 0 0 242.9 242.9;" version="1.1" viewBox="0 0 242.9 242.9" xml:space="preserve" xmlns="http://www.w3.org/2000/svg" xmlns:xlink="http://www.w3.org/1999/xlink"><style type="text/css">
	.st0{fill:#C972AE;}
</style><path class="st0" d="M242.9,0v157.2c-2.6-1-7-1.9-11.8-1.9c-24.1,0-40,18.7-40,45.7c0,22.6,9.1,36.9,23.8,41.9h-38.6V123.6h-23.4  v119.3H0V0H242.9z M232.1,174.4c-11.2,0-17.8,10.7-17.8,25.9c0,15.9,6.6,25.5,17.5,25.5c3.4,0,6.2-0.5,8.7-1.8l2,18.4  c-0.3,0.2-0.8,0.3-1.3,0.5h1.7v-79.2l-2,12.3C238.9,175.3,236.1,174.4,232.1,174.4z"/></svg>