<?xml version="1.0" ?><svg id="Layer_1" style="enable-background:new 0 0 242.9 242.9;" version="1.1" viewBox="0 0 242.9 242.9" xml:space="preserve" xmlns="http://www.w3.org/2000/svg" xmlns:xlink="http://www.w3.org/1999/xlink"><style type="text/css">
	.st0{fill:#50C8EC;}
</style><path class="st0" d="M167.2,179.4c-1.4,0-2.7,0-3.7-0.4v-37.1c1.4-0.5,3.6-0.9,5.7-0.9c10.9,0,15.2,8.2,15.2,18.7  C184.4,171,179,179.4,167.2,179.4z M0,0v242.9h140.1V124.4c6.6-1.4,15.5-2.3,24.4-2.3c13.9,0,24.8,2,32.7,9.3  c7.1,6.2,10.3,16.2,10.3,26.4c0,13-3.9,22.1-10.2,28.9c-7.5,7.9-19.6,11.4-29.3,11.4c-1.6,0-3.2,0-4.6,0v44.8h56V119.4h23.4V0H0z"/></svg>