<?xml version="1.0" ?><svg id="Layer_1" style="enable-background:new 0 0 242.9 242.9;" version="1.1" viewBox="0 0 242.9 242.9" xml:space="preserve" xmlns="http://www.w3.org/2000/svg" xmlns:xlink="http://www.w3.org/1999/xlink"><style type="text/css">
	.st0{fill:#CDDD4C;}
</style><path class="st0" d="M141.3,201.4l2.1,41.5H83.5l1.9-41.2c0.7-12,1.4-27.1,1.8-40.1h0.5c1.8,13,5,28,7.3,37.7l10,42.3h16.6l10.3-43  c2.3-9.3,5.5-24.1,7.7-36.9h0.5C139.9,174.4,140.8,189.9,141.3,201.4z M0,0v242.9h63.4l8.7-119.7h24.6l9.6,43.5  c3.4,15.2,6.4,28.6,8.6,42.1h0.4c1.8-13.4,4.5-26.9,7.7-42.1l9.5-43.5H157l7.3,119.7h27.7c-9.3-4.4-13.3-15.8-13.3-33.9v-52.8h23.6  v50.3c0,11.4,2.1,18.7,8.7,18.7c3.9,0,6.4-3,7.5-5.9c0.9-1.8,1.4-4.5,1.4-7.5v-55.7h23.1V0H0z M222.1,234.2  c-2.5,3.6-6.1,6.8-10.6,8.7h12.1l-1.2-8.7H222.1z"/></svg>