<?xml version="1.0" ?><svg id="Layer_1" style="enable-background:new 0 0 242.9 242.9;" version="1.1" viewBox="0 0 242.9 242.9" xml:space="preserve" xmlns="http://www.w3.org/2000/svg" xmlns:xlink="http://www.w3.org/1999/xlink"><style type="text/css">
	.st0{fill:#5EC7CE;}
</style><path class="st0" d="M219.2,146c0.5,1.8,0.9,4.1,0.9,6.4v23.4c0,2.3-0.4,5-1.1,7c-1.8,4.6-4.8,6.2-7.9,6.2  c-6.6,0-11.2-8.2-11.2-24.4c0-14.3,3.4-25.7,11.8-25.7C215.7,138.8,218.2,142.2,219.2,146z M215.3,242.6h27.9v-39.3  c-0.6,15.5-4,24.5-10.4,30.6C228.4,238.1,222.7,241.1,215.3,242.6z M243.2-0.3v121h-19.3l-1.2,8.7h-0.4c-3.4-6.6-9.1-10.2-16.1-10.2  c-16.2,0-29.4,16.8-29.4,45.9c0,20.9,7.7,42.3,27.3,42.3c6.6,0,12.7-3.2,15.7-8.7h0.4v5.4c0,13.4-4.6,21.2-16.4,21.2  c-6.8,0-12.3-1.8-16.8-3.7l-4.3,18c3.2,1.4,6.7,2.4,10.5,3.1H0.3V-0.3H243.2z M168.4,172.6c0-12.7-5.9-24.8-21.8-34.4  c-13-7.9-16.6-11.6-16.6-18.7c0-6.4,4.8-12.5,14.8-12.5c6.8,0,12,2,15.3,4.1l3.7-20.2c-3.6-2.1-11.1-4.3-18.9-4.3  c-25.2,0-38,16.1-38,35.3c0,10.9,6.2,23.6,22.7,33.5c10.2,6.6,15.5,10.9,15.5,19.6c0,7.9-5.4,13.6-16.4,13.6c-6.8,0-15-2-19.8-4.6  l-3.4,20.2c3.9,2.3,13.4,4.8,23,4.8C152.1,209,168.4,194.5,168.4,172.6z"/></svg>