<?xml version="1.0" ?><!DOCTYPE svg  PUBLIC '-//W3C//DTD SVG 1.1//EN'  'http://www.w3.org/Graphics/SVG/1.1/DTD/svg11.dtd'><svg height="512px" style="enable-background:new 0 0 512 512;" version="1.1" viewBox="0 0 512 512" width="512px" xml:space="preserve" xmlns="http://www.w3.org/2000/svg" xmlns:xlink="http://www.w3.org/1999/xlink"><g id="Communication_x2C__media_x2C__message_x2C__network_x2C__rss_x2C__rss_feed_x2C_"><g><path d="M285.942,18.084    c131.412,16.93,224.161,137.483,206.982,268.902c-17.185,131.42-137.489,223.922-268.907,206.732    C92.591,476.533-0.158,356.229,17.026,224.817C34.217,93.396,154.516,0.896,285.942,18.084L285.942,18.084z" style="fill-rule:evenodd;clip-rule:evenodd;fill:#F58020;"/><path d="M445.407,109.821    c37.147,48.781,56.104,111.457,47.518,177.165c-5.563,43.471-22.747,82.648-47.518,114.994H64.539    C27.385,353.199,8.434,290.52,17.026,224.817c5.819-43.471,22.742-82.644,47.513-114.996H445.407z" style="fill-rule:evenodd;clip-rule:evenodd;fill:#D27328;"/><path d="M210.371,278.395c-39.431-4.801-46.755,55.094-7.328,59.891    C242.466,343.092,249.8,283.193,210.371,278.395L210.371,278.395z" style="fill-rule:evenodd;clip-rule:evenodd;fill:#FFFFFF;"/><path d="M186.109,226.583c52.314,12.133,91.995,63.182,94.521,120.551    l39.423,8.592c-0.503-79.354-55.853-150.118-132.938-169.835L186.109,226.583z" style="fill-rule:evenodd;clip-rule:evenodd;fill:#FFFFFF;"/><path d="M185.853,160.875    c92.755,10.359,170.595,109.682,158.464,202.186l41.95,3.533c14.412-117.012-76.828-233.52-193.84-247.42L185.853,160.875z" style="fill-rule:evenodd;clip-rule:evenodd;fill:#FFFFFF;"/></g></g><g id="Layer_1"/></svg>