<?xml version="1.0" ?><!DOCTYPE svg  PUBLIC '-//W3C//DTD SVG 1.1//EN'  'http://www.w3.org/Graphics/SVG/1.1/DTD/svg11.dtd'><svg height="512px" style="enable-background:new 0 0 512 512;" version="1.1" viewBox="0 0 512 512" width="512px" xml:space="preserve" xmlns="http://www.w3.org/2000/svg" xmlns:xlink="http://www.w3.org/1999/xlink"><g id="android_x2C__media_x2C__scial_x2C__green"><path d="M442.766,116.205L281.717,23.219c-8.076-4.658-17.064-7.046-26.085-7.206v-0.008   c-0.015,0-0.021,0.008-0.033,0.008c-0.011,0-0.025-0.008-0.036-0.008v0.008c-9.018,0.16-18.006,2.548-26.089,7.206l-161.05,92.985   c-16.724,9.652-27.03,27.498-27.03,46.817v185.957c0,19.32,10.306,37.172,27.03,46.816l161.05,92.994   c8.083,4.658,17.064,7.045,26.089,7.205l0,0c0.011,0,0.025,0,0.036,0c0.012,0,0.019,0,0.033,0l0,0   c9.013-0.16,18.009-2.541,26.085-7.205l161.049-92.979c16.729-9.66,27.039-27.506,27.039-46.824V163.03   C469.805,143.709,459.494,125.857,442.766,116.205z" style="fill:#4C9944;"/><path d="M164.607,210.796c-6.754,0-12.227,5.41-12.227,12.164v59.055c0,6.695,5.473,12.223,12.227,12.223   c6.75,0,12.193-5.527,12.193-12.223V222.96C176.8,216.207,171.357,210.796,164.607,210.796z" style="fill:#FFFFFF;"/><path d="M356.178,210.796c-6.725,0-12.193,5.41-12.193,12.164v59.055c0,6.695,5.469,12.223,12.193,12.223   c6.762,0,12.252-5.527,12.252-12.223V222.96C368.43,216.207,362.939,210.796,356.178,210.796z" style="fill:#FFFFFF;"/><path d="M187.763,210.796c0,0.168,0,0.277,0,0.452v108.939c0,10.105,8.211,18.305,18.313,18.305h19.587   v31.033c0,6.695,5.473,12.223,12.223,12.223c6.758,0,12.223-5.527,12.223-12.223v-31.033h20.845v31.033   c0,6.695,5.477,12.223,12.193,12.223c6.762,0,12.223-5.527,12.223-12.223v-31.033h19.598c10.127,0,18.328-8.199,18.328-18.305   V211.249c0-0.175-0.029-0.284-0.059-0.452H187.763z" style="fill:#FFFFFF;"/><path d="M296.041,136.62l13.057-24.328l-2.674-1.453l-13.084,24.336c-9.857-5.023-21.021-7.871-32.85-7.871   c-11.214,0-21.824,2.57-31.283,7.141l-12.697-23.605l-2.706,1.453l12.64,23.496c-22.573,12.164-37.979,35.887-38.173,63.29h144.497   C332.594,172.288,317.814,148.959,296.041,136.62z M223.292,171.229c-3.771,0-6.896-3.125-6.896-6.87   c0-3.79,3.125-6.915,6.896-6.915c3.794,0,6.894,3.125,6.894,6.915C230.186,168.104,227.086,171.229,223.292,171.229z    M296.545,171.229c-3.797,0-6.842-3.125-6.842-6.87c0-3.79,3.045-6.915,6.842-6.915c3.818,0,6.871,3.125,6.871,6.915   C303.416,168.104,300.363,171.229,296.545,171.229z" style="fill:#FFFFFF;"/></g><g id="Layer_1"/></svg>