<?xml version="1.0" ?><!DOCTYPE svg  PUBLIC '-//W3C//DTD SVG 1.1//EN'  'http://www.w3.org/Graphics/SVG/1.1/DTD/svg11.dtd'><svg height="512px" style="enable-background:new 0 0 512 512;" version="1.1" viewBox="0 0 512 512" width="512px" xml:space="preserve" xmlns="http://www.w3.org/2000/svg" xmlns:xlink="http://www.w3.org/1999/xlink"><g id="Viber_x2C__social_x2C__media"><g><path d="M442.771,116.212L281.715,23.219c-8.076-4.658-17.057-7.046-26.085-7.206v-0.008    c-0.015,0-0.021,0-0.029,0c-0.015,0-0.029,0-0.044,0v0.008c-9.01,0.16-18.005,2.548-26.081,7.206l-161.05,92.979    c-16.728,9.659-27.03,27.505-27.03,46.824v185.957c0,19.32,10.302,37.172,27.03,46.816l161.05,92.994    c8.076,4.658,17.064,7.045,26.081,7.205l0,0c0.015,0,0.029,0,0.044,0c0.008,0,0.015,0,0.029,0l0,0    c9.013-0.16,18.009-2.541,26.085-7.205l161.057-92.979c16.721-9.66,27.031-27.506,27.031-46.824V163.022    C469.803,143.709,459.492,125.857,442.771,116.212z" style="fill:#54205E;"/><path d="M269.111,146.287c52.717,7.952,77.047,32.565,83.793,84.64c0.029,0.395,0.059,0.781,0.088,1.198    c0.248,4.717-0.744,10.857,5.666,10.967c5.607,0.139,5.885-3.987,5.754-8.091c-0.059-1.284-0.117-2.569-0.117-3.68    c0.613-49.059-43.035-94.548-93.68-96.22c-3.826,0.525-11.752-2.57-12.256,5.805C258.082,146.565,264.73,145.644,269.111,146.287z    " style="fill:#FFFFFF;"/><path d="M327.115,226.94c0.35,3.68,1.184,7.054,6.879,6.221c2.963-0.416,3.912-2.146,4.176-4.242    c0.277-2.124-0.131-4.607,0.117-6.418c0.248-30.418-26.314-58.105-58.881-61.925c-5.082-0.584-11.754-2.957-12.953,3.936    c-1.227,7.251,6.236,6.528,10.996,7.558c32.596,7.178,43.957,18.787,49.316,50.454    C326.955,223.866,327.014,225.428,327.115,226.94z" style="fill:#FFFFFF;"/><path d="M282.416,185.467c-3.404,0.059-6.719,0.423-7.975,3.965c-1.84,5.301,2.059,6.586,6.076,7.199    c13.375,2.096,20.371,9.82,21.715,22.883c0.174,1.672,0.773,3.177,1.795,4.294c1.051,1.227,2.527,1.956,4.367,1.759    c1.123-0.168,1.986-0.503,2.658-0.949c2.336-1.591,2.627-4.797,2.482-7.893C313.783,202.071,296.814,185.081,282.416,185.467z" style="fill:#FFFFFF;"/><path d="M350.014,288.164c-6.586-5.191-13.625-9.879-20.576-14.654    c-13.814-9.514-26.432-10.266-36.742,5.053c-5.813,8.594-13.902,8.959-22.387,5.191c-23.324-10.383-41.41-26.373-51.96-49.644    c-1.621-3.687-2.688-7.17-2.877-10.521c-0.358-6.082,2.146-11.58,9.243-16.297c5.747-3.855,11.603-8.426,11.128-16.83    c-0.584-10.989-27.819-47.657-38.537-51.542c-4.41-1.592-8.879-1.475-13.392,0c-25.146,8.324-35.58,28.607-25.592,52.601    c5.549,13.34,11.857,25.928,18.947,37.786c31.032,51.819,76.688,89.495,135.403,114.276c4.133,1.73,8.676,2.432,10.996,3.066    c16.4,0.146,35.662-15.377,41.24-30.746C370.268,301.08,358.936,295.188,350.014,288.164z" style="fill:#FFFFFF;"/></g></g><g id="Layer_1"/></svg>