<?xml version="1.0" ?><!DOCTYPE svg  PUBLIC '-//W3C//DTD SVG 1.1//EN'  'http://www.w3.org/Graphics/SVG/1.1/DTD/svg11.dtd'><svg height="512px" style="enable-background:new 0 0 512 512;" version="1.1" viewBox="0 0 512 512" width="512px" xml:space="preserve" xmlns="http://www.w3.org/2000/svg" xmlns:xlink="http://www.w3.org/1999/xlink"><g id="Pinterest_x2C__social_x2C__social_media"><g><path d="M442.771,116.207L281.715,23.214c-8.076-4.658-17.057-7.046-26.085-7.206V16    c-0.015,0-0.021,0.008-0.029,0.008c-0.015,0-0.029-0.008-0.044-0.008v0.008c-9.01,0.16-18.005,2.548-26.081,7.206l-161.05,92.979    c-16.728,9.667-27.03,27.505-27.03,46.825v185.959c0,19.32,10.302,37.165,27.03,46.817l161.05,92.993    c8.076,4.658,17.064,7.038,26.081,7.199V496c0.015,0,0.029-0.014,0.044-0.014c0.008,0,0.015,0.014,0.029,0.014v-0.014    c9.013-0.146,18.009-2.541,26.085-7.199l161.057-92.993c16.721-9.652,27.031-27.497,27.031-46.817V163.018    C469.803,143.704,459.492,125.853,442.771,116.207z" style="fill:#EDEDED;"/><path d="M269.418,139.44c-68.288,0.015-102.75,47.387-102.75,86.889    c0,7.309,0.891,14.354,2.68,20.86c4.067,14.8,12.836,26.771,26.76,32.276c3.315,1.314,6.279,0.059,7.229-3.476    c0.643-2.438,2.205-8.587,2.899-11.171c0.979-3.487,0.62-4.699-2.037-7.751c-3.49-3.95-6.163-8.638-7.813-14.377    c-1.088-3.804-1.708-8.046-1.708-12.887c0-35.15,27.184-66.642,70.785-66.642c38.611,0,59.814,22.825,59.814,53.302    c0,8.995-0.906,17.647-2.643,25.687c-6.002,27.881-21.789,48.281-42.891,48.281c-15.07,0-26.347-12.019-22.719-26.797    c2.066-8.4,5.023-17.104,7.59-25.311c2.789-8.995,5.082-17.385,5.082-24.052c0-11.375-6.305-20.86-19.367-20.86    c-15.377,0-27.738,15.378-27.738,35.982c0,3.877,0.416,7.382,1,10.397c1.344,7.199,3.578,11.653,3.578,11.653    s-15.713,64.454-18.474,75.757c-5.476,22.519-0.839,50.089-0.452,52.878c0.248,1.65,2.453,2.045,3.461,0.789    c1.401-1.782,19.699-23.657,25.928-45.504c1.752-6.206,10.127-38.245,10.127-38.245c4.965,9.229,19.585,17.334,35.109,17.334    c37.619,0,65.408-27.06,74.404-66.558c2.088-9.01,3.154-18.655,3.154-28.768C360.426,177.868,324.281,139.44,269.418,139.44z" id="XMLID_72_" style="fill:#AC1F23;"/></g></g><g id="Layer_1"/></svg>