<?xml version="1.0" ?><!DOCTYPE svg  PUBLIC '-//W3C//DTD SVG 1.1//EN'  'http://www.w3.org/Graphics/SVG/1.1/DTD/svg11.dtd'><svg height="512px" style="enable-background:new 0 0 512 512;" version="1.1" viewBox="0 0 512 512" width="512px" xml:space="preserve" xmlns="http://www.w3.org/2000/svg" xmlns:xlink="http://www.w3.org/1999/xlink"><g id="lastfm_x2C__last_x2C__fm_x2C__logo_x2C_"><g><path d="M442.771,116.212L281.715,23.219c-8.076-4.666-17.057-7.053-26.085-7.206v-0.008    c-0.015,0-0.021,0-0.029,0c-0.015,0-0.029,0-0.044,0v0.008c-9.01,0.153-18.005,2.541-26.081,7.206l-161.05,92.979    c-16.728,9.659-27.03,27.505-27.03,46.824v185.957c0,19.32,10.302,37.164,27.03,46.816l161.05,92.994    c8.076,4.658,17.064,7.045,26.081,7.205l0,0c0.015,0,0.029,0,0.044,0c0.008,0,0.015,0,0.029,0l0,0    c9.013-0.16,18.009-2.547,26.085-7.205l161.057-92.986c16.721-9.66,27.031-27.498,27.031-46.816V163.022    C469.803,143.709,459.492,125.857,442.771,116.212z" style="fill:#F15A52;"/><path d="M344.449,242.281c-19.889-5.914-26.986-9.236-26.986-15.771c0-10.967,15.859-15.093,17.641-15.37    c10.105-1.481,26.621,2.621,30.871,15.99l27.059-8.178c-8.469-26.898-37.719-38.814-62.137-35.193    c-24.984,3.688-41.004,21.767-41.004,42.751c0,28.221,26.461,36.34,46.277,42.254c20.867,6.25,28.301,9.82,28.301,17.473    c0,6.469-5.199,11.164-15.377,13.836c-20.27,5.33-47.389-1.533-54.777-13.895c-4.365-7.25-8.162-17.305-12.236-27.965    c-12.049-31.638-28.626-74.951-76.204-74.951c-24.811,0-66.444,10.127-66.444,77.857c0,28.045,20.372,64.793,65.583,64.793    c37.938,0,44.524-13.836,46.044-16.326l-12.398-24.219c-0.307,0.445-11.828,15.822-33.646,15.822    c-35.617,0-37.209-39.654-37.209-40.07c0-35.194,11.391-50.177,38.07-50.177c25.979,0,36.522,22.577,49.644,56.953    c4.49,11.777,8.757,22.941,14.322,32.266c11.711,19.59,39.006,26.68,64.43,26.68c7.725,0,15.318-0.928,22.211-2.738    c22.736-6.053,36.332-18.473,36.332-37.865C392.814,256.708,364.879,248.421,344.449,242.281z" style="fill:#FFFFFF;"/></g></g><g id="Layer_1"/></svg>