<?xml version="1.0" ?><svg data-name="Layer 1" id="Layer_1" viewBox="0 0 128 128" xmlns="http://www.w3.org/2000/svg"><defs><style>.cls-1{fill:#627a83;}.cls-2{fill:#062b31;}</style></defs><title/><rect class="cls-1" height="90" rx="26" ry="26" width="90" x="17.92" y="18.06"/><path class="cls-2" d="M81.92,22.06a22,22,0,0,1,22,22v38a22,22,0,0,1-22,22h-38a22,22,0,0,1-22-22v-38a22,22,0,0,1,22-22h38m0-8h-38a30.09,30.09,0,0,0-30,30v38a30.09,30.09,0,0,0,30,30h38a30.09,30.09,0,0,0,30-30v-38a30.09,30.09,0,0,0-30-30Z"/><circle class="cls-1" cx="89.06" cy="36.79" r="1.73"/><path class="cls-2" d="M89.06,31.05a5.73,5.73,0,1,0,5.73,5.73,5.73,5.73,0,0,0-5.73-5.73Z"/><path class="cls-1" d="M63.19,84.88A21.68,21.68,0,1,1,84.87,63.2,21.7,21.7,0,0,1,63.19,84.88Z"/><path class="cls-2" d="M63.19,45.53A17.68,17.68,0,1,1,45.51,63.2,17.7,17.7,0,0,1,63.19,45.53m0-8A25.68,25.68,0,1,0,88.87,63.2,25.68,25.68,0,0,0,63.19,37.53Z"/></svg>