<?xml version="1.0" ?><svg height="48" viewBox="0 0 48 48" width="48" xmlns="http://www.w3.org/2000/svg"><defs><style>.cls-1{fill:#d0d7df;}.cls-2{fill:#f1f2f2;}.cls-3{fill:#a263e5;}.cls-4{fill:none;stroke:#474c54;stroke-linecap:round;stroke-linejoin:round;stroke-width:2px;}</style></defs><title/><g data-name="28-Twitch" id="_28-Twitch"><g data-name="&lt;Group&gt;" id="_Group_"><rect class="cls-1" height="11" rx="1" ry="1" width="6" x="27" y="15"/><rect class="cls-1" height="11" rx="1" ry="1" width="6" x="15" y="15"/><path class="cls-2" d="M41,9V27l-5,5H27l-5,5V32H7V12l3-3ZM33,25V16a1,1,0,0,0-1-1H28a1,1,0,0,0-1,1v9a1,1,0,0,0,1,1h4A1,1,0,0,0,33,25ZM21,25V16a1,1,0,0,0-1-1H16a1,1,0,0,0-1,1v9a1,1,0,0,0,1,1h4A1,1,0,0,0,21,25Z"/><path class="cls-3" d="M47,3V28L36,39H28l-5,6H17V39H1V8L6,3ZM41,27V9H10L7,12V32H22v5l5-5h9Z"/><polygon class="cls-4" points="1 39 1 8 6 3 47 3 47 28 36 39 28 39 23 45 17 45 17 39 1 39"/><polygon class="cls-4" points="7 12 10 9 41 9 41 27 36 32 27 32 22 37 22 32 7 32 7 12"/><rect class="cls-4" height="11" rx="1" ry="1" width="6" x="15" y="15"/><rect class="cls-4" height="11" rx="1" ry="1" width="6" x="27" y="15"/></g></g></svg>