<?xml version="1.0" ?><svg height="48" viewBox="0 0 48 48" width="48" xmlns="http://www.w3.org/2000/svg"><defs><style>.cls-1{fill:#f1f2f2;}.cls-2{fill:#fa5c66;}.cls-3{fill:none;stroke:#474c54;stroke-linecap:round;stroke-linejoin:round;stroke-width:2px;}</style></defs><title/><g data-name="8-Youtube" id="_8-Youtube"><g data-name="&lt;Group&gt;" id="_Group_"><polygon class="cls-1" points="28 24 20 28 20 20 28 24"/><path class="cls-2" d="M47,14V34a6,6,0,0,1-6,6H7a6,6,0,0,1-6-6V14A6,6,0,0,1,7,8H41A6,6,0,0,1,47,14ZM20,28l8-4-8-4Z"/><rect class="cls-3" height="32" rx="6" ry="6" width="46" x="1" y="8"/><polygon class="cls-3" points="20 28 20 20 28 24 20 28"/></g></g></svg>