<?xml version="1.0" ?><svg height="48" viewBox="0 0 48 48" width="48" xmlns="http://www.w3.org/2000/svg"><defs><style>.cls-1{fill:#fa5c66;}.cls-2{fill:#f1f2f2;}.cls-3{fill:none;stroke:#474c54;stroke-linecap:round;stroke-linejoin:round;stroke-width:2px;}</style></defs><title/><g data-name="21-Gmail" id="_21-Gmail"><g data-name="&lt;Group&gt;" id="_Group_"><path class="cls-1" d="M6,37v3H4a3,3,0,0,1-3-3V11A3,3,0,0,1,4,8H7L24,23,41,8h3a3,3,0,0,1,3,3V37a3,3,0,0,1-3,3H42V13L24,29,6,13Z"/><polygon class="cls-2" points="42 36 42 40 6 40 6 39.97 6 37 6 13 24 29 42 13 42 36"/><polygon class="cls-2" points="41 8 24 23 7 8 41 8"/><path class="cls-3" d="M7,8H4a3,3,0,0,0-3,3V37a3,3,0,0,0,3,3H44a3,3,0,0,0,3-3V11a3,3,0,0,0-3-3H7Z"/><polyline class="cls-3" points="6 36 6 13 24 29 42 13 42 36"/><polyline class="cls-3" points="11 12 24 23 37 12"/></g></g></svg>