<?xml version="1.0" ?><svg height="48" viewBox="0 0 48 48" width="48" xmlns="http://www.w3.org/2000/svg"><defs><style>.cls-1{fill:none;stroke:#000;stroke-linecap:round;stroke-linejoin:round;stroke-width:2px;}</style></defs><title/><g data-name="16-Reddit" id="_16-Reddit"><circle class="cls-1" cx="42" cy="5" r="4"/><path class="cls-1" d="M24,15a31.5,31.5,0,0,0-9.909,1.558A7,7,0,1,0,2.841,24.72,11.922,11.922,0,0,0,1,31c0,8.837,10.3,16,23,16s23-7.163,23-16a11.922,11.922,0,0,0-1.841-6.28,6.995,6.995,0,1,0-11.25-8.162,30.425,30.425,0,0,0-5.848-1.309"/><path class="cls-1" d="M24,15S25,5,38,5"/><circle class="cls-1" cx="16" cy="26" r="4"/><circle class="cls-1" cx="32" cy="26" r="4"/><path class="cls-1" d="M16,35s1,5,8,5,8-5,8-5"/><path class="cls-1" d="M5,20a3,3,0,0,1,3-3"/><path class="cls-1" d="M40,17a3,3,0,0,1,3,3"/></g></svg>