<?xml version="1.0" ?><svg height="48" viewBox="0 0 48 48" width="48" xmlns="http://www.w3.org/2000/svg"><defs><style>.cls-1{fill:#35dc86;}.cls-2{fill:none;stroke:#474c54;stroke-linecap:round;stroke-linejoin:round;stroke-width:2px;}</style></defs><title/><g data-name="7-Line" id="_7-Line"><g data-name="&lt;Group&gt;" id="_Group_"><path class="cls-1" d="M24,1C36.7,1,47,9.95,47,21c0,15-20,26-20,26V40.83A26.87,26.87,0,0,1,24,41C11.3,41,1,32.05,1,21S11.3,1,24,1Z"/><path class="cls-2" d="M47,21C47,9.95,36.7,1,24,1S1,9.95,1,21,11.3,41,24,41a26.87,26.87,0,0,0,3-.17V47S47,36,47,21Z"/></g><polyline class="cls-2" points="38 16 33 16 33 26 38 26"/><line class="cls-2" x1="33" x2="38" y1="21" y2="21"/><polyline class="cls-2" points="10 16 10 26 15 26"/><line class="cls-2" x1="19" x2="19" y1="16" y2="26"/><polyline class="cls-2" points="23 26 23 16 29 26 29 16"/></g></svg>