<?xml version="1.0" ?><svg height="48" viewBox="0 0 48 48" width="48" xmlns="http://www.w3.org/2000/svg"><defs><style>.cls-1{fill:#f1f2f2;}.cls-2{fill:#fa5c66;}.cls-3{fill:#e93d5b;}</style></defs><title/><g data-name="13-Opera" id="_13-Opera"><g data-name="&lt;Group&gt;" id="_Group_"><ellipse class="cls-1" cx="24" cy="24" rx="10" ry="17"/><path class="cls-2" d="M24,1C36.15,1,46,11.3,46,24S36.15,47,24,47,2,36.7,2,24,11.85,1,24,1ZM34,24c0-9.39-4.48-17-10-17S14,14.61,14,24s4.48,17,10,17S34,33.39,34,24Z"/><path class="cls-3" d="M24,42c-6.168,0-11-7.907-11-18S17.832,6,24,6s11,7.907,11,18S30.168,42,24,42ZM24,8c-4.878,0-9,7.327-9,16s4.122,16,9,16,9-7.327,9-16S28.878,8,24,8Z"/></g></g></svg>