<?xml version="1.0" ?><svg height="48" viewBox="0 0 48 48" width="48" xmlns="http://www.w3.org/2000/svg"><defs><style>.cls-1{fill:#d0d7df;}.cls-2{fill:#49aaee;}.cls-3{fill:#fa5c66;}.cls-4{fill:#f1f2f2;}.cls-5{fill:#a4b0c0;}</style></defs><title/><g data-name="10-Safari" id="_10-Safari"><circle class="cls-1" cx="24" cy="24" r="23"/><circle class="cls-2" cx="24" cy="24" r="18"/><g data-name="&lt;Group&gt;" id="_Group_"><polygon class="cls-3" points="30.36 17.64 26.12 26.12 21.88 21.88 30.36 17.64"/><polygon class="cls-4" points="26.12 26.12 17.64 30.36 21.88 21.88 26.12 26.12"/><path class="cls-5" d="M24,43A19.021,19.021,0,0,1,5,24a1,1,0,0,1,2,0A17,17,0,1,0,24,7a1,1,0,0,1,0-2,19,19,0,0,1,0,38Z"/></g></g></svg>