<?xml version="1.0" ?><svg height="48" viewBox="0 0 48 48" width="48" xmlns="http://www.w3.org/2000/svg"><defs><style>.cls-1{fill:#f1f2f2;}.cls-2{fill:#fa5c66;}.cls-3{fill:#fed049;}.cls-4{fill:#f6b445;}</style></defs><title/><g data-name="22-Yahoo" id="_22-Yahoo"><g data-name="&lt;Group&gt;" id="_Group_"><circle class="cls-1" cx="32" cy="15" r="3"/><circle class="cls-1" cx="16" cy="15" r="3"/><path class="cls-1" d="M35,26v3c0,.34-.02.67-.05,1H13.05c-.03-.33-.05-.66-.05-1V26Z"/><path class="cls-2" d="M31,30h3.95a11,11,0,0,1-21.9,0H31Z"/><path class="cls-3" d="M34.95,30c.03-.33.05-.66.05-1V26H13v3c0,.34.02.67.05,1a11,11,0,0,0,21.9,0ZM24,1A23,23,0,1,1,1,24,23,23,0,0,1,24,1ZM35,15a3,3,0,1,0-3,3A3,3,0,0,0,35,15ZM19,15a3,3,0,1,0-3,3A3,3,0,0,0,19,15Z"/><path class="cls-4" d="M16,19a4,4,0,1,1,4-4A4,4,0,0,1,16,19Zm0-6a2,2,0,1,0,2,2A2,2,0,0,0,16,13Z"/><path class="cls-4" d="M32,19a4,4,0,1,1,4-4A4,4,0,0,1,32,19Zm0-6a2,2,0,1,0,2,2A2,2,0,0,0,32,13Z"/></g></g></svg>