<?xml version="1.0" ?><svg viewBox="0 0 64 64" xmlns="http://www.w3.org/2000/svg"><defs><style>.cls-1{fill:none;stroke:#000;stroke-linecap:round;stroke-linejoin:round;stroke-width:2px;}</style></defs><title/><g data-name="Layer 6" id="Layer_6"><path class="cls-1" d="M50.47,17.15V46.23a4.64,4.64,0,0,1-4.62,4.63H17.27a4.64,4.64,0,0,1-4.62-4.62V17.15a4.64,4.64,0,0,1,4.62-4.62H45.85"/><circle cx="50.52" cy="13.82" r="1"/><path class="cls-1" d="M37.41,22.14A11.24,11.24,0,0,1,43.25,32a11,11,0,0,1-.2,2.09,11.25,11.25,0,0,1-8.29,8.82,20.8,20.8,0,0,0,.52-4.63,21,21,0,0,0-.9-6.07,20.3,20.3,0,0,0-1.52-3.66,20.78,20.78,0,0,0-5.68-6.71A11.1,11.1,0,0,1,32,20.75"/><path class="cls-1" d="M37.41,22.14a11.34,11.34,0,0,1-4.55,6.41,20.78,20.78,0,0,0-5.68-6.71A11.1,11.1,0,0,1,32,20.75"/><path class="cls-1" d="M21.12,29.11a11.28,11.28,0,0,1,4-6,10.57,10.57,0,0,1,2.06-1.27,20.78,20.78,0,0,1,5.68,6.71,11.21,11.21,0,0,1-6.33,1.95h0"/><path class="cls-1" d="M26.51,30.5h0a11.21,11.21,0,0,0,6.33-1.95,20.3,20.3,0,0,1,1.52,3.66,11.26,11.26,0,0,0-8.9,8.95A11.22,11.22,0,0,1,20.75,32a11.44,11.44,0,0,1,.37-2.89"/><path class="cls-1" d="M35.28,38.28a20.8,20.8,0,0,1-.52,4.63,9.58,9.58,0,0,1-1.7.28l-.46,0-.6,0a11.14,11.14,0,0,1-6.52-2.09,11.26,11.26,0,0,1,8.9-8.95A21,21,0,0,1,35.28,38.28Z"/><path class="cls-1" d="M43.05,34.09a11.25,11.25,0,0,1-8.29,8.82,20.8,20.8,0,0,0,.52-4.63,21,21,0,0,0-.9-6.07A10.82,10.82,0,0,1,36.53,32,11.14,11.14,0,0,1,43.05,34.09Z"/></g></svg>