<?xml version="1.0" ?><!DOCTYPE svg  PUBLIC '-//W3C//DTD SVG 1.1//EN'  'http://www.w3.org/Graphics/SVG/1.1/DTD/svg11.dtd'><svg height="512px" style="enable-background:new 0 0 512 512;" version="1.1" viewBox="0 0 512 512" width="512px" xml:space="preserve" xmlns="http://www.w3.org/2000/svg" xmlns:xlink="http://www.w3.org/1999/xlink"><g id="army_x2C__military_x2C__war_x2C__weapon__x2C_navy_x2C__aviation_x2C___ship__x2C_"><g><path d="M341.93,232.905h-19.122v33.094h-4.155v-23.254H299.62v23.183h-4.425v-47.342v-14.958v-10.522    h-49.501v10.522h-2.023v-10.522h-18.393v10.522v14.958v47.27h-5.828v-5.393v-5.818v-8.033h-46.384v-9.416h6.791v-6.845v-6.79    h-6.791h-18.762v-17.926h-6.836h-17.728h-6.791v6.781v4.371v6.773h-11.215v-32.389h-4.156v32.389h-1.034h-6.862v6.79v6.845h6.862    v9.416v3.473v15.771H16.567v0.216v29.771l23.601,24.986h436.314C482.635,286.83,496,266.071,496,266.071    c-84.384,0-126.045,0-154.07-0.072V232.905z M381.63,252.513c-1.511-0.918-3.04-1.871-4.569-2.789l0.485-1.169h0.091l3.039,1.529    l-3.13-7.896l1.764-0.549c1.636,3.049,3.382,6.089,5.036,9.129c2.555-0.198,5.109-0.486,7.627-0.755    c5.379-0.486,10.722-0.972,16.046-1.458c-0.144-0.549-0.216-1.098-0.342-1.727c1.313-1.386,4.551-0.972,6.907-1.386    c1.044-0.144,2.375,0.073,2.915-0.558c-10.38-0.413-20.004-0.413-30.383-0.485c-0.072-0.207-0.144-0.477-0.216-0.756    c6.242,0.072,12.466,0.072,18.69,0.126c3.058,0.082,6.098,0.082,9.155,0.082c0.271-0.136,0.54-0.271,0.81-0.423    c0.486-0.126,1.044-0.208,1.511-0.271c0.306-0.207,0.576-0.413,0.846-0.63c0.145,0,0.27,0,0.414,0    c0.342,0,0.611,0.081,0.989,0.081c0.27,0.136,0.611,0.342,0.881,0.477c0.414,0,0.846-0.071,1.26-0.071    c0.414,0.206,0.827,0.414,1.224,0.629c1.115,0,2.248,0,3.273,0c8.239,0,16.478,0,24.716,0c0.054,0.279,0.054,0.549,0.127,0.756    c-9.211-0.072-18.475-0.126-27.703-0.207c-0.107,0.135-0.342,0.279-0.539,0.352l-2.501,0.144l0.558,2.482    c16.208-1.376,18.546,13.365,5.811,13.581c0.072,0.396,0.216,0.818,0.288,1.313c1.996,0,3.939,0,5.882-0.072    c3.256-1.664,4.155-0.216-0.144,1.098l-17.935-0.126c-0.198-0.702-0.342-1.188-0.54-1.745c-3.543-1.169-5.9-2.339-9.21-4.012    c-0.054-0.144-0.126-2.015-0.126-2.284c-1.745-0.891-3.472-1.727-5.198-2.627c-5.145,0-10.182,0.063-15.29,0.063    c1.637,0.972,3.363,1.943,5.036,2.914c-0.197,0.342-0.342,0.611-0.485,0.971c-1.583-0.907-3.094-1.735-4.623-2.635    c-0.504,1.385-0.918,2.771-1.385,4.146c-0.414,0.081-0.828,0.081-1.26,0.152C381.521,256.092,381.558,254.303,381.63,252.513    L381.63,252.513z M20.642,253.466c-1.592-0.953-3.121-1.871-4.642-2.771l0.567-1.169l0,0l3.049,1.457l-3.049-7.825l1.663-0.549    c1.655,3.031,3.373,6.09,5.118,9.13c2.482-0.198,5.046-0.486,7.601-0.756c5.333-0.495,10.676-0.971,16.01-1.457    c-0.072-0.62-0.217-1.178-0.298-1.727c1.26-1.395,4.507-0.972,6.863-1.395c1.034-0.135,2.365,0.081,2.905-0.611    c-10.38-0.423-19.994-0.423-30.374-0.423c-0.072-0.279-0.144-0.486-0.225-0.756c6.224,0.072,12.475,0.072,18.69,0.126    c3.049,0,6.106,0.081,9.155,0.081c0.271-0.135,0.54-0.278,0.81-0.495c0.495-0.054,1.053-0.135,1.521-0.206    c0.297-0.198,0.566-0.405,0.837-0.621c0.152,0,0.27,0,0.422,0c0.342,0,0.612,0,0.953,0.081c0.297,0.135,0.648,0.271,0.99,0.477    c0.342-0.071,0.755-0.071,1.178-0.071c0.423,0.206,0.81,0.413,1.232,0.629c1.106,0,2.213,0,3.346,0c8.212,0,16.45,0,24.689,0    c0,0.207,0,0.477,0.072,0.756c-9.202-0.072-18.421-0.144-27.622-0.207c-0.197,0.135-0.413,0.207-0.611,0.352l-2.438,0.125    l0.495,2.501c16.207-1.386,18.617,13.365,5.801,13.563c0.153,0.414,0.225,0.837,0.297,1.26c1.997,0,3.939,0,5.954,0    c3.247-1.674,4.084-0.288-0.225,1.025l-17.926-0.136c-0.197-0.691-0.27-1.105-0.539-1.663c-3.473-1.17-5.9-2.356-9.147-4.084    c-0.153-0.144-0.198-1.942-0.198-2.284c-1.745-0.828-3.472-1.727-5.189-2.555c-5.063,0-10.182,0-15.326,0    c1.754,1.035,3.4,2.006,5.073,2.977c-0.153,0.343-0.352,0.622-0.495,0.963c-1.52-0.898-3.104-1.727-4.623-2.626    c-0.495,1.385-0.908,2.77-1.403,4.146c-0.396,0.081-0.81,0.081-1.178,0.081C20.497,257.063,20.569,255.273,20.642,253.466    L20.642,253.466z" style="fill:#010101;"/></g></g><g id="Layer_1"/></svg>