<?xml version="1.0" ?><!DOCTYPE svg  PUBLIC '-//W3C//DTD SVG 1.1//EN'  'http://www.w3.org/Graphics/SVG/1.1/DTD/svg11.dtd'><svg height="512px" style="enable-background:new 0 0 512 512;" version="1.1" viewBox="0 0 512 512" width="512px" xml:space="preserve" xmlns="http://www.w3.org/2000/svg" xmlns:xlink="http://www.w3.org/1999/xlink"><g id="army_x2C__military_x2C__war_x2C__weapon__x2C_navy_x2C__aviation_x2C___pistol__x2C__magzine__x2C_"><g><path d="M395.194,311.836l-0.081-0.143c-3.518-12.674-15.488-31.363-21.245-40.367    c-1.52-2.348-2.824-4.496-3.049-4.91c-0.197-0.486-0.494-0.9-0.836-1.25h0.071c2.294,0,3.967-0.693,4.65-1.791    c0.494-0.764,0.494-1.734,0.072-2.635h-0.072c-9.759-17.449-11.782-21.452-9.219-30.249c2.158-7.411,14.679-8.921,19.4-9.551    c0.81-0.072,1.448-0.145,1.799-0.216c1.178-0.342,2.141-1.376,2.481-2.762c0.486-1.87-0.269-3.877-2.14-5.478    c-2.285-1.996-5.064-2.42-6.989-2.42c-0.836,0-1.475,0.081-1.673,0.081c-0.27,0.054-0.558,0.054-0.755,0.127    c-0.963-0.756-2.905-1.584-7.133-2.069c-6.719-0.827-8.509-7.348-8.58-8.239c0-0.278-0.081-0.422-0.198-0.558    c-0.225-3.605-0.765-7.06-1.601-10.244c0.881-4.784,7.896-8.661,11.827-10.802c1.601-0.827,2.365-1.313,2.636-1.655    c0.342-0.359,0.342-0.836,0.144-1.259c-0.494-1.098-2.356-1.996-4.155-1.996c-1.034,0-2.482,0.341-3.661,1.654    c-2.932,3.13-7.015,3.606-9.156,3.606c-0.683,0-1.178-0.081-1.52-0.081c-0.27-0.611-0.54-1.16-0.837-1.708l-0.197-0.424h-0.908    c-1.646-3.265-2.978-5.207-2.978-5.207h-10.649c0-0.198,0.072-0.891-0.566-1.718c-0.198-0.279-0.54-0.621-1.106-0.972    c-1.987-1.241-1.987-2.284-1.987-2.284h-2.015c-0.153,1.313-1.26,2.212-1.26,2.212c-0.54,0.279-0.962,0.621-1.304,1.044    c-0.566,0.765-0.908,1.52-0.963,1.718h-10.253h-41.68v1.053h-42.002h-9.229h-42.642c0,0-29.825,0-48.227,0    c-2.086-0.352-2.923-1.8-4.452-2.771c-0.468-0.279-0.954-0.495-1.565-0.621c-1.115-0.27-2.222,0.072-3.202,0.621    c-1.646,0.971-2.905,2.419-3.094,2.771c-0.99,0-1.601,0-1.826,0c-1.106,0-1.79,1.52-2.212,3.184c-1.718,0-2.626,1.395-3.049,2.555    h-0.27c-0.962,0.278-1.646,3.12-1.646,6.574c0,3.265,0.612,5.954,1.52,6.449v0.549c0,0,2.069,5.675,1.574,12.249h0.081    c0,0.217,0,0.343,0,0.486c-0.62,6.781,1.178,8.167,1.178,8.167h1.179c0.126,2.697,0.611,4.435,2.41,4.435    c2.087,0,35.662,0,49.577,0v1.447c0,0,0.962,2.429,3.399,2.429c2.401,0,42.417,0,46.995,0c1.646,0,3.121,0.144,4.425,0.414    c1.79,0.342,3.463,1.043,4.992,1.942c0.198,0.135,0.414,0.27,0.612,0.413c3.472,2.285,5.882,6.09,5.882,11.495    c0,11.621,6.583,19.374,16.396,19.374h24.716c7.771,0,15.794,0.701,21.325,8.798c5.954,8.65,23.115,69.219,23.34,69.848    l0.144,0.684h1.035c-0.909,0.27-2.285,0.693-4.228,0.9c-0.962,0.287-1.304,2.086,0.485,2.086c1.574,0,5.046-0.846,7.061-1.115    l0.423,0.898l58.283-9.137l0.342-0.477c1.798-0.072,3.741-0.424,5.036-2.016C396.103,322.898,396.372,319.229,395.194,311.836z     M121.625,208.061c0,0.071,0,0.216,0,0.27l-0.072-4.426h-0.072l-0.081-3.741h0.081v0.972h0.144    C121.625,203.563,121.625,206.117,121.625,208.061z M270.111,249.596h-13.5c-2.851,0-6.242-1.727-8.581-4.362    c-2.581-2.978-3.741-6.791-3.274-10.658v-0.071c0.423-6.225,6.719-11.693,10.254-11.693h15.919    c1.179,1.584,4.227,6.575,4.029,13.842C274.662,244.612,271.641,247.994,270.111,249.596z M288.091,299.721h-12.098    c-0.837-0.764-1.673-1.467-2.438-2.023c-0.126-0.055-0.197-0.125-0.342-0.125H140.171c0.072,0,0.072-0.072,0.072-0.145    c1.718-3.041,3.66-6.574,4.155-8.445c0.198-0.766,0.072-1.449-0.342-2.006c-1.034-1.385-3.813-1.457-4.353-1.457h-0.225    l-0.072,0.207c-0.072,0.07-4.282,11.701-6.224,19.031l-10.182,39.188c-0.072,0.424-0.198,0.9,0.072,1.188    c0.351,0.477,1.106,0.549,2.635,0.549c0.342,0,0.612-0.152,0.954-0.342c10.181,0,149.673,0.063,150.978,0.063    c0.638,0,1.105-0.215,1.447-0.557c0.369,0,0.567,0,0.765,0c1.106,0,1.476-0.342,1.817-1.656c0,0,3.939-14.822,5.271-19.877    c1.376-5.055,1.106-7.402,0.27-8.166l-0.081-0.207c1.188-4.498,2.707-10.244,3.131-11.693    C290.941,300.756,289.494,299.721,288.091,299.721z M189.792,319.652c0,0.207,0,0.422,0,0.621c0,0.07-0.045,0.145-0.045,0.197    c0,0.215-0.072,0.342-0.153,0.559v0.07c-0.072,0.217-0.144,0.414-0.189,0.559c0,0.072-0.081,0.125-0.081,0.125    c-0.072,0.217-0.216,0.361-0.288,0.559c-0.126,0.215-0.279,0.359-0.423,0.557c0,0-0.045,0-0.045,0.072    c-0.297,0.289-0.639,0.631-1.061,0.836c-0.198,0.137-0.396,0.271-0.612,0.342c-0.423,0.207-0.891,0.352-1.376,0.424    c-0.225,0-0.423,0-0.621,0c-2.779,0-4.991-2.23-4.991-4.92c0-2.77,2.212-4.982,4.991-4.982c0.198,0,0.396,0.063,0.621,0.063    c0.684,0.072,1.295,0.287,1.861,0.629c0.198,0.135,0.351,0.207,0.495,0.342h0.054c0.288,0.271,0.639,0.559,0.828,0.9    c0,0,0.081,0,0.081,0.072c0.072,0.135,0.198,0.27,0.27,0.414l0.072,0.07c0.225,0.342,0.342,0.684,0.495,1.098    c0,0.072,0,0.072,0,0.145c0.072,0.143,0.072,0.277,0.072,0.486c0.045,0,0.045,0.07,0.045,0.135    C189.792,319.229,189.792,319.445,189.792,319.652z M201.998,334.053c0,0.053,0,0.053,0,0.135    c-0.081,0.135-0.081,0.342-0.153,0.477c0,0.072,0,0.072,0,0.143c-0.072,0.217-0.126,0.352-0.198,0.559    c-0.072,0.207-0.216,0.342-0.296,0.557l-0.045,0.055c-0.073,0.152-0.225,0.359-0.297,0.494c-0.045,0-0.045,0-0.045,0    c-0.297,0.352-0.567,0.631-0.908,0.9c0,0,0,0-0.081,0c-0.117,0.135-0.27,0.279-0.486,0.342c-0.548,0.352-1.16,0.549-1.799,0.629    c-0.198,0-0.423,0-0.611,0c-2.708,0-4.92-2.213-4.92-4.92c0-2.77,2.212-4.982,4.92-4.982c0.188,0,0.414,0.063,0.611,0.063    c1.034,0.154,1.943,0.549,2.707,1.25c0.145,0.145,0.27,0.27,0.414,0.424c0.27,0.27,0.495,0.621,0.621,0.961c0,0,0,0,0.072,0    c0.072,0.145,0.144,0.279,0.216,0.486c0,0,0,0.063,0,0.145c0.054,0.125,0.054,0.197,0.126,0.342c0,0.072,0,0.143,0.072,0.207    c0,0.135,0,0.207,0.081,0.342c0,0.08,0,0.135,0,0.207c0,0.143,0.072,0.35,0.072,0.557S201.998,333.836,201.998,334.053z     M221.911,319.652c0,0.207,0,0.422-0.045,0.621c0,0.07,0,0.07,0,0.145c0,0.205-0.072,0.34-0.072,0.475    c-0.081,0.072-0.081,0.072-0.081,0.137c-0.072,0.205-0.144,0.412-0.198,0.557c0,0.072,0,0.072-0.072,0.072    c0,0.207-0.144,0.342-0.216,0.486c0,0.063-0.081,0.063-0.081,0.143c-0.045,0.127-0.189,0.27-0.27,0.414c0,0-0.072,0-0.072,0.055    c-0.117,0.143-0.27,0.287-0.396,0.422c0,0.082-0.072,0.082-0.072,0.082c-0.144,0.125-0.27,0.197-0.341,0.342    c-0.073,0-0.145,0.053-0.145,0.053c-0.692,0.494-1.457,0.773-2.293,0.918c-0.198,0-0.341,0-0.54,0c-2.779,0-4.992-2.23-4.992-4.92    c0-2.15,1.376-3.949,3.247-4.633c0.144-0.08,0.297-0.152,0.414-0.152c0,0,0,0,0.081,0c0.072-0.063,0.198-0.063,0.342-0.063    c0-0.072,0.072-0.072,0.144-0.072c0.054,0,0.198,0,0.27,0c0.153-0.063,0.279-0.063,0.495-0.063c0.198,0,0.342,0.063,0.54,0.063    c0.495,0.072,0.989,0.207,1.376,0.342c0.152,0.072,0.225,0.145,0.351,0.215c0.072,0,0.144,0.072,0.144,0.072    c0.072,0.055,0.144,0.055,0.225,0.135c0.045,0,0.117,0.072,0.198,0.072c0.072,0.064,0.072,0.135,0.145,0.135    c0.072,0.072,0.125,0.135,0.197,0.135c0.072,0.072,0.144,0.137,0.216,0.279c0.054,0,0.126,0.072,0.126,0.145    c0.072,0,0.153,0.072,0.225,0.125c0,0.082,0.045,0.154,0.045,0.154c0.072,0.063,0.152,0.135,0.224,0.27l0.072,0.072    c0.045,0.133,0.126,0.207,0.198,0.35c0,0.055,0.072,0.055,0.072,0.127c0.072,0.08,0.072,0.215,0.144,0.287    c0,0,0,0.063,0.054,0.135c0,0.063,0.072,0.207,0.144,0.352c0,0,0,0,0,0.072c0,0.125,0.081,0.27,0.081,0.395    c0.072,0,0.072,0.08,0.072,0.154c0,0.063,0,0.205,0,0.27c0.045,0.08,0.045,0.135,0.045,0.135    C221.911,319.303,221.911,319.518,221.911,319.652z M229.808,338.342h-0.054c-0.216,0-0.369,0-0.558,0    c-2.779,0-5.001-2.213-5.001-4.92c0-2.285,1.601-4.217,3.697-4.766c0.045,0,0.045,0,0.045,0c0.144-0.072,0.224-0.072,0.341-0.072    c0.081-0.082,0.153-0.082,0.153-0.082c0.144,0,0.216,0,0.27,0c0.144,0,0.296-0.063,0.495-0.063c0.189,0,0.414,0.063,0.558,0.063    c2.492,0.279,4.354,2.365,4.354,4.92C234.107,335.922,232.246,337.992,229.808,338.342z M252.923,323.385    c-0.396,0.422-0.962,0.693-1.448,0.898c-0.396,0.145-0.765,0.217-1.16,0.289c-0.216,0-0.414,0-0.639,0    c-0.468,0-1.034-0.072-1.52-0.217c-0.198-0.072-0.351-0.143-0.468-0.207l-0.072-0.07c-0.152-0.072-0.297-0.135-0.422-0.207    c-0.072,0-0.072,0-0.072-0.064c-0.153-0.08-0.342-0.152-0.495-0.277c-1.106-0.9-1.871-2.295-1.871-3.877    c0-2.77,2.212-4.982,4.92-4.982c0.225,0,0.422,0.063,0.639,0.063c0.81,0.072,1.502,0.342,2.14,0.836c0.072,0,0.072,0,0.072,0    c0.126,0.064,0.27,0.207,0.396,0.27c0,0.072,0.072,0.072,0.072,0.137c0.153,0.07,0.225,0.143,0.296,0.287    c0.055,0,0.055,0.072,0.126,0.072c0.072,0.135,0.144,0.207,0.27,0.342v0.063c0.639,0.836,0.98,1.807,0.98,2.914    C254.668,321.172,253.984,322.486,252.923,323.385z M266.847,333.422c0,0.135,0,0.289,0,0.486c0,0,0,0.072-0.072,0.145    c0,0.053,0,0.205,0,0.27c0,0.072-0.055,0.143-0.055,0.143c0,0.137,0,0.199-0.071,0.342c0,0,0,0.072,0,0.145    c-0.072,0.125-0.153,0.279-0.153,0.342c-0.072,0.072-0.072,0.135-0.072,0.207c-0.045,0.072-0.116,0.135-0.116,0.207    c-0.081,0.072-0.081,0.145-0.153,0.215c0,0.055-0.071,0.055-0.071,0.127c-0.072,0.08-0.072,0.143-0.126,0.217    c-0.072,0.07-0.072,0.07-0.072,0.135c-0.225,0.277-0.494,0.494-0.692,0.701c0,0.063,0,0.063-0.072,0.063    c-0.071,0.072-0.144,0.125-0.216,0.207c-0.054,0-0.054,0-0.054,0c-0.684,0.549-1.448,0.836-2.356,0.971c-0.198,0-0.351,0-0.567,0    c-2.752,0-4.974-2.213-4.974-4.92c0-2.77,2.222-4.982,4.974-4.982c0.217,0,0.369,0.063,0.567,0.063    c1.034,0.154,1.942,0.549,2.626,1.18c0.153,0.143,0.271,0.215,0.423,0.34c0,0,0,0,0,0.082c0.117,0.072,0.198,0.207,0.27,0.342    c0.072,0,0.072,0,0.072,0.08c0.072,0.055,0.126,0.199,0.198,0.342c0.071,0,0.071,0,0.071,0.055    c0.072,0.072,0.153,0.215,0.225,0.359c0,0,0,0.064,0.045,0.135c0,0.064,0.072,0.207,0.153,0.27c0,0.082,0,0.154,0,0.207    c0.072,0.072,0.072,0.217,0.144,0.359c0,0,0,0.064,0,0.137c0.055,0.135,0.055,0.207,0.055,0.35c0,0.055,0.072,0.127,0.072,0.127    C266.847,333.08,266.847,333.215,266.847,333.422z" style="fill:#010101;"/></g></g><g id="Layer_1"/></svg>