<?xml version="1.0" ?><!DOCTYPE svg  PUBLIC '-//W3C//DTD SVG 1.1//EN'  'http://www.w3.org/Graphics/SVG/1.1/DTD/svg11.dtd'><svg height="512px" style="enable-background:new 0 0 512 512;" version="1.1" viewBox="0 0 512 512" width="512px" xml:space="preserve" xmlns="http://www.w3.org/2000/svg" xmlns:xlink="http://www.w3.org/1999/xlink"><g id="army_x2C__military_x2C__war_x2C__weapon__x2C_navy_x2C__aviation_x2C__gun_x2C__machine__x2C_"><g><path d="M165.057,247.768h9.354v-2.284h0.135c0.063-0.135,0.063-0.206,0.063-0.278    c0-1.034-0.692-1.871-1.448-1.871h0.414v-1.169h0.477c0.288,0,0.558-0.549,0.558-1.179c0-0.684-0.27-1.241-0.558-1.241h-7.259    c-0.279,0-0.485,0.558-0.485,1.241c0,0.63,0.207,1.179,0.485,1.179h0.486v1.169h-59.326v-1.169h0.341    c0.289,0,0.558-0.549,0.558-1.179c0-0.684-0.269-1.241-0.558-1.241h-7.267c-0.27,0-0.477,0.558-0.477,1.241    c0,0.63,0.207,1.179,0.477,1.179h0.558v1.169h-0.63c-0.692,0-1.304,0.702-1.375,1.601c-0.072,0.136-0.072,0.207-0.072,0.271    c0,0.072,0,0.144,0.072,0.278c0.207,1.313,0.764,2.284,1.375,2.284h9.552v-2.284h0.423v5.325l6.017,2.636    c-0.621-0.622-1.313-1.323-1.313-1.323l1.313,1.323c2.698,2.706,1.385,8.104,1.385,12.812    c-1.385,16.747-2.006,26.155,0.621,42.903l1.187,0.287v3.04c0,0.756,3.103,1.385,6.845,1.385c3.813,0,6.854-0.629,6.854-1.385    v-3.184c0.207-0.063,0.414-0.063,0.558-0.144c2.698-9.337,2.006-22.145,2.006-32.875c-1.313-16.742-4.632-23.462,6.089-25.476    v-5.325h1.664v2.284h9.417v-2.284h1.655v2.284h7.618v-2.284h2.212V247.768z" style="fill:#010101;"/><path d="M462.995,207.474c-6.638,0-65.981,0-88.736,0h-8.868v-2.761c0-1.79-1.098-3.391-2.699-4.012    c0-1.322,0-4.578,0-6.17c0-0.818-0.27-1.305-1.115-1.592v-0.827c0-1.458-1.169-2.636-2.626-2.636    c-1.439,0-2.555,1.178-2.555,2.636v0.485c-0.684,0-1.385,0-2.158,0c0-0.485-0.414-0.972-0.972-0.972    c-0.396,0-0.756,0.342-0.899,0.692c-0.342-1.664-1.583-5.873-5.036-5.873c-4.354,0-7.556,0-12.179,0    c-4.659,0-6.098,2.627-6.098,6.638h-1.116c0,0,0-0.765,0-2.086c0-1.17,0-2.689,0-4.426c-0.071-3.813-3.111-6.925-6.979-6.925    c-3.886,0-5.756,0-5.756,0c0-0.198,0-0.343,0-0.549c0-1.521-0.899-2.078-0.899-2.078c-6.926,1.106-13.635,5.685-13.635,5.685    l1.385,3.111h1.241l1.673,5.182l-2.015,2.086h-1.385h-8.096v-0.899v-1.24l-3.382-2.213v-1.26h-10.883v1.188h-2.626v-1.188h-10.937    v1.188h-2.641v-1.188h-10.927v1.188h-2.563v-1.188h-10.937v1.188h-0.836v-5.685h22.845h4.083l5.887-2.698h4.155    c0.271,0.423,0.63,0.692,0.899,0.692h3.328c1.385,0,2.555-5.055,2.555-11.27c0-6.18-1.17-11.233-2.555-11.233h-3.328    c-0.27,0-0.629,0.206-0.899,0.701h-4.155h-0.684v-4.362v-6.161v-0.27l-1.385-2.995h-7.901v3.185l-1.241-3.185h-25.202l-1.52,3.185    v0.08c0-1.799-1.178-3.265-2.555-3.265c-1.394,0-2.572,1.466-2.572,3.265v2.285h-15.227v2.419v3.059h-0.891v2.761h-1.394    c-0.414-1.592-0.899-2.555-1.448-2.555h-3.319c-0.494,0-0.917,0.692-1.322,1.854h-2.15c-0.765-2.482-1.655-4.002-2.761-4.002    h-5.342c-2.276,0-4.083,6.916-4.083,15.505c0,8.581,1.808,15.578,4.083,15.578h5.342c0.836,0,1.592-0.971,2.285-2.572h2.626    v-1.529c0.405,1.26,0.828,1.943,1.322,1.943h3.319c0.413,0,0.765-0.549,1.106-1.448h1.736v1.034h0.891v4.497h-0.828v1.188h-3.462    v-1.043h-10.029v1.043h-3.957v3.525v0.972l-13.915,1.448h-21.182h-19.382h-4.632c-0.629-2.42-3.399-4.29-6.79-4.29    c-3.382,0-6.161,1.87-6.71,4.29h-26.65l-1.736,0.972H90.99h-9.687h-7.546v-6.503c2.213-7.682,0-15.92,0-15.92    c-4.578-0.693-7.825,0-7.825,0c-5.055,6.439-3.939,15.92-3.939,15.92v6.503h0.279c0,0-3.049,5.684-0.279,12.601v5.612    c0,0-0.216,0.558-0.486,1.583H39.633c-0.909,0-1.601,2.284-1.601,5.189c0,2.915,0.692,5.19,1.601,5.19h21.73    c0.144,0.764,0.341,1.528,0.629,2.284h6.638c0.414,6.313,2.015,11.566,5.963,11.566c9.75,0,21.451,0,21.451,0h41.05h42.849    c10.316,0,14.535,0,14.535,0c0-0.27,0-0.485,0-0.773c2.078,0.288,5.262,0.971,7.69,2.995l-1.053,10.172l-1.511,1.17l-0.351,1.321    l1.52,0.549c-0.477,2.771-0.818,4.641-0.818,4.641s-7.762,45.957-36.004,94.976c0,0-0.755,1.241,1.25,2.419    c1.934,1.106,12.799,8.032,15.092,9.211c2.285,1.106,3.805-0.837,3.805-0.837c28.251-49.019,35.995-94.907,35.995-94.907    l2.554-5.464l-1.313-0.477l0.558-2.572l2.969,0.971v-0.063c0.081,0.063,0.152,0.063,0.152,0.135l-0.152,0.621l3.399,0.549    c1.106,0.206,2.078,0.359,2.492,0.422c0.558,4.007,1.736,11.355,2.365,12.102c0.899,0.972,1.304-0.404,1.304-0.404l-0.621-11.418    h5.541h1.448h1.25c1.106,1.029,2.212,2.631,2.977,4.843c2.078,5.954,4.776,13.708,6.503,17.503    c1.736,3.814,4.983,5.396,14.25,5.396c9.282,0,9.912,0,15.165,0c5.27,0,4.568-4.137,10.595-4.497    c2.141-0.135,3.67,0.145,4.713,0.558c6.926,15.443,14.318,34.682,18.744,45.276c5.685-3.453,10.253-5.054,16.063-9.407    c5.127-3.399,10.325-6.584,15.452-10.047v-3.391c-7.339-9.201-36.408-50.74-25.903-60.706c3.399-1.241,6.655-1.736,8.526-1.871    c3.526-0.271,4.768-2.842,4.983-3.391c3.724,0,11.351,0,13.49,0c0.612,0,1.242-0.063,1.8-0.135h1.043v-0.217    c0.899-0.341,1.583-0.89,1.871-1.924v0.684h4.083c0,0.846,1.115,1.457,2.555,1.457c1.457,0,2.626-0.611,2.626-1.457h7.411    c3.13,0,2.843-2.843,2.843-2.843v-8.095h-4.642v-1.583h4.371c5.954,0,7.321,3.454,11.765,6.152    c4.426,2.636,61.736,44.094,69.417,49.14c7.771,4.983,16.622,7.556,19.122,2.087c2.555-5.396-5.396-33.921,1.583-67.488    C475.516,207.276,471.306,207.474,462.995,207.474z M76.464,207.896h-1.736v-0.477l1.736-0.072    C76.464,207.474,76.464,207.69,76.464,207.896z M292.356,282.311l-10.522,6.431c0,0-13.15,0-18.83,0    c-5.666,0-7.878-1.169-9.749-6.431c-1.871-5.333-3.256-9.21-4.785-14.957c-0.279-0.972-0.342-1.8-0.207-2.415h3.525    c0,0,7.338,0,16.14,0c12.321,10.375-1.458,21.104,1.241,21.249c2.698,0.126,5.882-2.429,7.753-6.368    c1.87-3.957,1.115-11.495,1.115-12.745c0-1.241,1.097-2.136,1.097-2.136c0.702,0,1.386,0,2.015,0    c1.583,0.688,3.04,1.371,4.282,2.631c2.015,2.761,4.442,7.474,7.141,13.077L292.356,282.311z M309.932,184.575    c-0.882,0-1.655-0.765-1.655-1.664s0.773-1.593,1.655-1.593c0.918,0,1.673,0.693,1.673,1.593S310.85,184.575,309.932,184.575z     M446.32,254.91c0,0.899,0,2.761-0.288,3.525c-0.342-0.072-1.169-0.359-2.627-1.313c-10.108-7.213-30.67-21.478-30.886-21.604    l-0.054-0.072c-4.228-2.771-5.001-4.704-4.839-5.325c0.197-0.629,1.655-1.385,3.454-1.385h29.969c1.24,0,3.885,0,4.568,0.486    c0.216,0.27,0.702,1.097,0.702,4.361V254.91z" style="fill:#010101;"/></g></g><g id="Layer_1"/></svg>