<?xml version="1.0" ?><!DOCTYPE svg  PUBLIC '-//W3C//DTD SVG 1.1//EN'  'http://www.w3.org/Graphics/SVG/1.1/DTD/svg11.dtd'><svg height="512px" style="enable-background:new 0 0 512 512;" version="1.1" viewBox="0 0 512 512" width="512px" xml:space="preserve" xmlns="http://www.w3.org/2000/svg" xmlns:xlink="http://www.w3.org/1999/xlink"><g id="army_x2C__military_x2C__war_x2C__weapon__x2C_navy_x2C__aviation_x2C___fire__x2C__gun__x2C_pistol__x2C_"><g><path d="M96.546,178.348c0,3.337,0.422,9.705,2.024,9.705h14.112c0,1.034,0,2.006,0,2.833    c0,0.207,0,0.414,0,0.62c0,0.136,0,0.352,0,0.495c0,0.477,0,0.9,0,1.241c0,2.627,0,3.742,1.529,4.425    c0.144,0.072,0.342,0.136,0.639,0.288c0,0,0,13.491,0,18.897c0,5.324,2.482,6.215,8.284,6.215c5.829,0,24.941,0,24.941,0    s21.172,0,35.086,0c13.968,0,13.968,1.871,16.55,4.713c3.103,6.026,6.646,20.633,8.517,27.621    c1.862,6.917,2.483,15.304,7.942,16.275c21.389,4.011,64.375-0.145,64.375-0.145l9.912-3.039c0.684-0.145,1.304-0.271,1.987-0.271    l0,0c0.72-0.081,1.458-0.144,2.168-0.081c0.413,0,0.882,0.081,1.305,0.135c4.38,0.701,7.896,3.05,9.416,3.679    c2.069,0.972,14.679,39.593,18.124,53.507c3.544,13.986,2.365,25.886,2.365,25.886s0.216,0.216,0.756,0.629    c-0.271,1.106-0.953,3.796-2.06,5.955c-0.639,0.898,0.836,5.261,13.203,5.882c12.394,0.62,59.389,0,63.077,0    c0.692,0,1.231-0.145,1.727-0.413l0.071,0.269c7.204-1.178,8.365-0.269,9.688-7.267c0.423-17.862-7.816-43.955-15.857-64.992    c-4.775-12.682-9.542-23.538-12.25-29.775c-0.198-0.486-0.414-1.044-0.611-1.529c-5.9-15.434,3.588-23.188,15.074-27.685    c11.854-4.641,14.903-2.554,13.303-10.451c-1.673-7.96-4.012-16.333-4.012-16.333v-1.106l-1.322-4.362    c-0.764-2.555-1.87-6.026-2.977-9.768c0,0,10.864-7.402,11.755-11.136c0.837-5-6.422-7.267-8.437-5.27    c-0.962,0.971-1.799,1.87-2.365,2.5l0,0l-5.379-1.736l-0.494-1.52c-1.034-3.184-1.719-5.541-1.997-6.242    c-0.144-0.477-0.216-0.972-0.359-1.367c-0.396-1.601-0.738-2.788-2.636-3.337c0,0-0.054,0-0.126,0    c-0.072-0.063-0.144-0.063-0.27-0.063c-0.144-0.072-0.297-0.072-0.494-0.072l0,0c-0.414-0.063-0.828-0.135-1.377-0.135    c-0.072,0-0.144,0-0.216,0c-0.198,0-0.351,0-0.495,0c-0.045,0-0.045,0-0.125,0c-2.213,0-4.426,0-6.297,0c-1.447,0-2.626,0-3.462,0    v-1.241h10.028l3.472-1.106v-11.765h-2.087l-5.459,2.141c-1.035,0-2.024,0-2.636,0c-1.799,0-3.318,3.104-3.318,3.104    s-1.448,0-3.589,0c-6.665,0-20.291,0-22.729,0c-3.247,0-3.247,0.971-3.247,3.265v-0.899c0,0-1.861,0-2.779,0    c-0.953,0-1.79,0.477-1.79,1.799c0,1.313,0,4.704,0,4.704H277.37h-0.071h-0.908h-2.483l-39.857,0.972l0.54-0.972h-94.413    l-5.333-13.365c0,0-8.661,0.62-12.394,1.106c-3.742,0.413-3.517,12.259-3.517,12.259h-1.871l-0.495,0.207h-0.072v0.063    l-3.813,2.149v4.219H98.57C96.969,168.661,96.546,174.966,96.546,178.348L96.546,178.348z M217.762,226.539L217.762,226.539    c0.567,0.341,1.106,0.765,1.673,1.241h0.423h20.336l0,0h14.067l0,0v-3.526h4.695c0,0,0,0.837,0,3.526    c0,2.636,1.727,4.299,1.727,4.299c2.086,2.213,3.265,5.676,3.049,13.563c-0.692,12.735-15.712,15.155-15.712,15.155    c-2.141,0.549-0.963,2.222,4.641,2.015c1.799,0.063,4.353-0.072,7.753-0.765c15.016-3.462,15.016-21.945,13.226-23.816    c-1.744-1.871-2.096-9.552-2.096-9.552c-3.391-3.04,1.529-3.112,1.529-3.112v-1.313h5.405l0,0c0,2.15,1.188,3.526,3.049,3.526    c0.081,0,0.126,0,0.198,0c1.376,0,0.153,0,3.544,0c1.52,0.837,3.318,1.87,5.262,3.13c2.635,3.454,4.551,9.75,4.011,18.474    c-0.225,3.112-1.034,5.667-2.293,7.825c-7.321,12.669-29.974,9.35-36.953,8.243c-8.095-1.263-9.614,1.655-13.356,1.655    c-3.732,0-7.546,0-12.889,0c-5.405,0-9.345-0.701-11.063-6.103c-2.438-7.537-5.829-16.954-7.546-24.771    C208.687,228.473,217.762,226.602,217.762,226.539L217.762,226.539z" style="fill:#010101;"/></g></g><g id="Layer_1"/></svg>