<?xml version="1.0" ?><!DOCTYPE svg  PUBLIC '-//W3C//DTD SVG 1.1//EN'  'http://www.w3.org/Graphics/SVG/1.1/DTD/svg11.dtd'><svg height="512px" style="enable-background:new 0 0 512 512;" version="1.1" viewBox="0 0 512 512" width="512px" xml:space="preserve" xmlns="http://www.w3.org/2000/svg" xmlns:xlink="http://www.w3.org/1999/xlink"><g id="army_x2C__military_x2C__war_x2C__weapon__x2C_navy_x2C__aviation_x2C__tank__x2C__army__x2C_"><g><path d="M102.432,255.092l0.135,3.266l0.972-0.082l-0.081-0.684h1.322l0.072,1.035l10.586-0.352    l1.394-1.313l-0.288-7.394h-0.414l-0.063-1.601h0.953l-0.063-1.115h0.899l-0.476-13.348l-0.909,0.054l-0.135-3.237l1.736-0.072    v-79.186h0.971v79.186l1.655-0.072l0.135,3.382l-0.819,0.081l0.477,12.943h0.764l0.072,0.827h0.611l0.072,2.078l-0.684,0.08    l0.063,2.41l3.669-0.125v1.169l1.727-0.072l-0.135-2.626l2.285-0.072l0.063,2.555l1.106,0.972l1.736-0.054l0.485-0.423    l34.476-1.179l-0.063-3.453h1.79l2.905,2.688l0.072,1.313l5.126-0.207l-0.072-2.006l3.814-0.135l-0.153-4.569l2.078-2.213    l2.915-0.081l0.063,0.909l7.609-0.279v0.693l2.23-0.072l-0.072-1.439h-0.629l-0.063-1.321l-2.707,0.134v-1.105l-1.925,0.063    l-0.072-2.428l1.79-0.055l-0.063-2.572l1.592-0.063l0.072,1.87l7.474-0.278v-1.529l8.851-0.342l-0.054-1.241l0.684-0.765    c0,0,1.457-1.106,1.664-1.321c0.279-0.198,1.942-0.073,1.942-0.073l0.072,1.188l16.324-1.871c0,0,0.495-0.559,1.395-0.612    c0.404,0.271,0.207,0.899,0.207,0.899s8.724-0.899,9.201-0.846c0.414,0.073,0.414,1.116,0.414,1.116l23.816-2.914l-0.144-0.621    l2.914-0.351l0.827-0.827l0.072,2.698l-3.454,0.629c-0.081-0.413-23.952,2.824-23.952,2.824l-0.216,1.26l-3.049,0.485v1.942    l-3.948,1.313l-1.52,0.27l-0.063,1.241l-6.233,0.207l-0.27-0.477l-1.26,0.343l-8.715,0.341l-5.819,5.612l0.216,2.843l4.767,3.525    l9.633-0.342l4.56-5.54l16.055-0.549l0.288,8.086l38.972,1.043l4.642-3.185l4.901-0.278l0.072,1.871l-4.209,0.153l-4.507,3.111    l1.035,1.366l5.189-0.684l0.135,1.387l9.975-1.314l-0.136-0.755l9.346-1.25l0.342,2.347l8.167-1.097l-0.27-1.942l9.758-1.322    l0.271,2.015l14.399-1.943v-0.206l1.529-0.216l-0.135-1.169l3.525-0.414l3.948-3.121l20.831-2.762l0.144,0.972l1.934-0.216    l0.135,1.188l1.179-0.217l3.526-0.413l0.152,1.313l2.554-0.343l0.136,1.179l61.817-8.104l-0.405-2.978l7.951-1.043l0.342,2.636    l4.578-3.382c0,0,2.419-1.044,2.617,0.404c2.015-0.278,6.997-0.899,7.762-0.962c0.765-0.145,1.242,1.105,1.448,2.904    c0.288,1.79,0.899,6.639,0.972,7.268c0.072,0.692-0.207,1.593-1.313,1.736c-1.178,0.206-7.689,1.025-7.689,1.025    s-0.414,0.898-1.655,0.971c-0.693,0.072-2.42-0.755-3.805-1.52l0.063,0.62l-3.454,0.423l0.063,0.621l-2.77,0.341l-0.072-0.611    l-1.925,0.271l0.054,0.62l-63.337,8.319l0.153,0.953l-2.501,0.359l0.072,0.748l-3.463,0.494v0.414l-1.179,0.135l0.072,0.549    l-1.943,0.277l0.145,0.973l-20.84,2.762h-4.362l-3.517,0.422v-0.352l-1.602,0.217l-0.206-1.385l-14.399,1.861l0.278,1.809    l-9.759,1.24l-0.288-1.727l-16.747,2.213l0.216,1.385l-10.739,1.385l0.207,1.385l-6.161,0.756l-1.448,2.158l16.405,15.713h43.406    l5.874,2.824l10.811,13.789l-9.282,0.342l0.972,2.553l1.583-0.412l0.359,1.727l-1.601,0.629c0,0,0.701,2.088,1.043,4.506h1.871    l-0.071,2.078l-1.871,0.207c0,0-0.135,3.111-0.478,4.084l1.377,0.549l-0.765,2.213l-1.313-0.199c0,0-1.178,2.762-1.727,3.652    l1.376,0.846l-1.106,1.654l-1.241-0.684c0,0-0.837,1.449-1.592,1.996l1.241,2.357l-0.351,0.207l0.081,0.135l-0.837,0.359v-0.072    l-0.549,0.271l-0.98-1.664c0,0-0.962,0.619-2.689,1.25l0.072,0.898l0.477,1.035l-1.313,0.701l-0.827,0.342l0,0l-0.972-2.078    c-0.972,0.27-2.078,0.486-3.328,0.684l0.144,2.086l0.486,1.045l-1.322,0.611l-0.756,0.422h-0.063l-1.26-2.689l0,0l-0.477-1.053    c-0.899,0.082-1.735,0.082-2.707,0.082l0.287,4.281l0.478,1.115l-1.304,0.611l-0.774,0.414h-0.063l-1.251-2.689l0,0l-1.52-3.266    l-1.727,0.9l0.342,5.684l0.494,1.107l-1.331,0.629l-0.765,0.342l-0.063,0.063l-1.241-2.697l0,0l-1.521-3.256l-1.735,0.836    l0.342,5.748l0.494,1.098l-1.313,0.629l-0.764,0.342h-0.072l-1.241-2.627l0,0l-1.528-3.256l-1.736,0.838l0.351,5.746l0.485,1.098    l-1.313,0.629l-0.765,0.342l0,0l-1.313-2.689l0,0l-0.342-0.764c-0.764,1.105-1.601,2.068-2.635,2.906l0.063,1.24l0.558,1.043    l-1.304,0.629l-0.765,0.404h-0.072l-0.899-1.797c-1.043,0.484-2.149,0.898-3.337,1.115l0.081,1.313l0.549,1.098l-1.583,0.773    v0.197h-0.495h-0.063l0,0h-0.351v-0.621l-0.963-2.004l0.963-0.479v-0.08c-0.198,0.08-0.414,0.08-0.692,0.08    c-0.837,0-1.664-0.152-2.482-0.277l-0.908,2.211v1.17h-1.323h-0.818h-0.207v-2.969h0.207v-1.385    c-0.836-0.422-1.601-0.826-2.284-1.385l-1.799,4.568v1.17h-1.529h-0.836l0,0v-2.969l0,0v-3.525h-1.925l-2.149,5.324v1.17h-1.529    h-0.828l0,0v-2.969l0,0v-3.525h-0.549c-0.629,0.549-1.313,1.025-2.015,1.449l-1.528,3.875v1.17h-1.448h-0.899l0,0v-2.969l0,0    v-0.494c-0.972,0.207-1.934,0.359-2.978,0.359c-0.134,0-0.207,0-0.341,0l-0.765,1.934v1.17h-1.448h-0.899l0,0v-2.969l0,0v-0.629    c-0.972-0.27-1.871-0.629-2.708-1.025l-1.375,3.453v1.17h-1.467h-0.891l0,0v-2.969l0,0v-3.525h-1.942l-2.141,5.324v1.17h-1.448    h-0.917l0,0v-2.969l0,0v-3.525h-1.925l-2.159,5.324v1.17h-1.448h-0.899l0,0v-2.969l0,0v-0.971    c-1.043,0.414-2.15,0.629-3.256,0.756l-0.827,2.014v1.17h-1.385h-0.828h-0.135v-2.969h0.135v-0.287    c-1.043-0.125-2.015-0.395-2.977-0.756l-1.116,2.842v1.17h-1.511h-0.836l0,0v-2.969l0,0v-3.047    c-0.207-0.137-0.422-0.352-0.629-0.479h-1.313l-2.14,5.324v1.17h-1.521h-0.828l0,0v-2.969l0,0v-3.525h-1.943l-2.149,5.324v1.17    h-1.457h-0.891l0,0v-2.969l0,0v-2.006c-0.971,0.549-2.005,1.035-3.111,1.324l-0.972,2.48v1.17h-1.457h-0.908l0,0v-2.969l0,0    v-0.135c-0.135,0-0.198,0-0.342,0c-0.971,0-1.933-0.152-2.842-0.359l-0.899,2.293v1.17h-1.448h-0.899l0,0v-2.969l0,0v-1.654    c-0.755-0.422-1.448-0.9-2.15-1.393l-1.934,4.846v1.17h-1.457h-0.899l0,0v-2.969l0,0v-3.525h-1.934l-2.149,5.324v1.17h-1.448h-0.9    l0,0v-2.969l0,0v-3.525h-0.629c-0.548,0.479-1.241,0.971-1.871,1.367l-1.583,3.957v1.17h-1.601h-0.764h-0.054v-3.463    c-0.971,0.207-1.942,0.359-2.914,0.359c-0.135,0-0.27,0-0.423,0l-0.765,1.934v1.17h-1.376h-0.89h-0.081v-2.969h0.081v-0.629    c-0.899-0.207-1.871-0.629-2.708-1.025l-1.394,3.453v1.17h-1.448h-0.899l0,0v-2.969l0,0v-3.525h-1.934l-2.087,5.324v1.17h-1.511    h-0.836h-0.063v-2.969h0.063v-3.525h-2.006l-2.078,5.324v1.17h-1.52h-0.828h-0.072v-2.969h0.072v-1.186    c-1.043,0.422-2.149,0.691-3.256,0.898l-0.836,2.086v1.17h-1.52h-0.827h-0.081v-2.969h0.081v-0.215    c-1.116-0.127-2.087-0.342-3.058-0.684l-1.025,2.697v1.17h-1.529h-0.836l0,0v-2.969l0,0v-2.625    c-0.405-0.289-0.746-0.631-1.169-0.9h-0.836l-2.078,5.324v1.17h-1.521h-0.828l0,0v-2.969l0,0v-3.525h-2.005l-2.078,5.324v1.17    h-1.52H143.4l0,0v-2.969l0,0v-2.006c-0.962,0.549-2.005,1.035-3.112,1.324l-0.972,2.48v1.17h-1.169h-0.909h-0.27v-2.969h0.27    v-0.215c-0.207,0.08-0.342,0.08-0.558,0.08c-0.89,0-1.79-0.152-2.626-0.277l-0.9,2.211v1.17h-1.448h-0.899l0,0v-2.969l0,0v-1.527    c-0.765-0.414-1.529-0.9-2.213-1.387l-1.879,4.713v1.17h-1.457h-0.891l0,0v-2.969l0,0v-3.525h-1.934l-2.15,5.324v1.17h-1.457    h-0.899l0,0v-2.969l0,0v-3.525h-0.279c-0.692,0.611-1.52,1.17-2.348,1.656l-1.466,3.668v1.17h-1.448h-0.899l0,0v-2.969l0,0v-0.412    c-0.836,0.125-1.736,0.277-2.707,0.277c-0.189,0-0.342,0-0.54-0.08l-0.836,2.014v1.17h-2.356v-2.969h0.756l0.153-0.494    c-1.106-0.188-2.078-0.611-3.049-1.105l-1.313,1.943l-0.27,1.186l-2.366-0.557l0.702-2.914l0.477,0.135l0.351-1.305    c-0.692-0.629-1.322-1.26-1.934-1.943l-2.851,3.869l-0.27,1.186l-1.187-0.342l-0.819-0.215l0,0l-0.288-0.072l0.765-2.842    l0.288,0.072l0.891-3.463l-1.943-0.477l-3.319,4.631l-0.342,1.18l-2.285-0.631l0.765-2.896l0,0l0.891-3.398l-1.862-0.469    l-3.4,4.623l-0.342,1.115l-1.035-0.287l0,0h-0.135l-1.106-0.27l0.747-2.914l0.494,0.143l0.972-3.463l-1.871-0.549l-3.525,4.498    l-0.36,1.178l-1.376-0.422l-0.836-0.27h-0.072l0.908-2.834l0,0l0.9-2.977c-1.043,0.27-2.006,0.557-3.112,0.684l-0.971,1.24v0.775    c0,0.412-0.207,0.826-0.558,0.826h-0.621h-0.072l-0.351,1.17l-1.376-0.406l0,0l-0.549-0.205l-0.351-0.072l0.198-0.486h-0.063    c-0.342,0-0.621-0.414-0.621-0.826v-1.936c-0.693-0.08-1.376-0.152-2.078-0.277l-0.972,1.24l-0.351,1.098l-2.284-0.611    l0.764-2.627c-0.198-0.072-0.405-0.152-0.692-0.287l-0.891,1.654c-0.216,0.359-0.63,0.559-0.899,0.359l-2.771-1.602    c-0.279-0.125-0.36-0.549-0.072-0.971l0.827-1.52c-1.592-1.107-3.04-2.482-4.281-4.084l-1.394,0.836    c-0.342,0.217-0.765,0.217-0.971-0.07l-1.592-2.771c-0.144-0.277,0-0.684,0.414-0.898l1.25-0.756    c-0.909-1.809-1.52-3.742-1.808-5.82h-1.161c-0.495,0-0.836-0.277-0.836-0.547v-3.186c0-0.35,0.342-0.629,0.836-0.629h0.954    c0.153-2.141,0.629-4.219,1.394-6.16l-0.629-0.352c-0.414-0.197-0.558-0.621-0.414-0.891l1.592-2.77    c0.135-0.279,0.629-0.342,0.971-0.135l0.486,0.27c1.25-1.799,2.761-3.391,4.497-4.768l-0.135-0.287    c-0.288-0.342-0.207-0.828,0.072-0.973l2.554-1.52l-17.719,3.525l-1.52-0.746l17.242-13.158c0,0-0.702-1.943-1.529-4.426    l37.173-23.951l-0.342-10.326c-0.917,0-0.917,0-0.917,0l-0.135-3.803L102.432,255.092z M454.906,240.827l0.765,5.478    c0.765,0.351,1.664,0.702,2.006,0.765c0.63,0.072,0.899-0.558,0.837-1.313c-0.145-0.765-0.567-4.929-0.702-5.882    c-0.072-0.909-0.818-0.63-1.376-0.288C456.147,239.802,455.536,240.359,454.906,240.827L454.906,240.827z M461.896,246.512    L461.896,246.512c0,0,5.468-0.899,5.738-0.972c0.287,0,0.287-0.684,0-2.896c-0.271-2.213-0.478-4.507-1.241-4.426    c-0.756,0.054-5.469,0.684-5.469,0.684L461.896,246.512z M75.503,305.496h-0.081l-3.112,0.611c0.351,0,0.558,0.35,0.558,0.773    v0.125c0.971,0.154,1.871,0.289,2.77,0.496L75.503,305.496z M338.539,341.418L338.539,341.418l1.179-0.557v-0.406    c-0.477,0.064-0.972,0.135-1.521,0.199L338.539,341.418z M332.72,344.117L332.72,344.117l1.188-0.486l-0.216-2.824    c-0.891,0-1.79-0.082-2.626-0.217L332.72,344.117z M315.352,352.428L315.352,352.428l1.115-0.559l-0.278-4.488    c-0.288,1.377-0.765,2.617-1.457,3.797L315.352,352.428z M316.467,344.602L316.467,344.602c0,0.838-0.071,1.656-0.206,2.502    l2.977-1.457l1.925,4.01l1.106-0.557l-0.27-4.713l3.049-1.449l1.934,3.949l1.106-0.559l-0.271-4.703l2.42-1.17    c-6.296-1.043-9.21-4.092-9.21-4.092h-7.402C315.424,338.648,316.467,341.49,316.467,344.602L316.467,344.602z M298.523,357.967    L298.523,357.967h1.106l0.288-0.629c-0.495-0.053-0.899-0.27-1.395-0.414V357.967z M285.653,353.543L285.653,353.543v4.424h1.313    l1.736-4.424h3.391v4.424h1.322l1.313-3.326c-1.736-1.459-3.049-3.328-3.813-5.469h-3.112c-0.62,1.664-1.52,3.111-2.707,4.371    H285.653z M279.285,357.967L279.285,357.967h1.25l0.558-1.457c-0.629,0.271-1.178,0.559-1.808,0.693V357.967z M272.854,357.967    L272.854,357.967h1.241l0.072-0.215c-0.495-0.072-0.908-0.127-1.313-0.197V357.967z M266.405,357.967L266.405,357.967h1.26    l0.827-2.158c-0.765-0.396-1.457-0.953-2.087-1.582V357.967z M259.983,353.543L259.983,353.543v4.424h1.241l1.727-4.424h2.771    c-2.212-2.365-3.525-5.469-3.525-8.941c0-1.033,0.135-2.006,0.342-2.977h-1.529c0.216,0.971,0.352,1.943,0.352,2.977    c0,3.473-1.377,6.576-3.535,8.941H259.983z M253.535,357.967L253.535,357.967h1.259l1.025-2.625    c-0.683,0.467-1.448,0.971-2.284,1.313V357.967z M247.167,357.967L247.167,357.967h1.178l0.063-0.135c-0.063,0-0.207,0-0.27,0    c-0.342,0-0.629-0.08-0.971-0.08V357.967z M240.736,357.967L240.736,357.967h1.313l0.558-1.385    c-0.702-0.27-1.259-0.621-1.871-1.043V357.967z M227.919,357.967L227.919,357.967h1.25l1.727-4.424h3.4v4.424h1.313l1.736-4.424    h1.034c-1.034-1.188-1.871-2.5-2.491-3.949h-3.391c-0.972,2.348-2.572,4.354-4.578,5.818V357.967z M221.488,357.967    L221.488,357.967h1.241l0.144-0.412c-0.486,0.07-0.899,0.125-1.385,0.197V357.967z M215.048,357.967L215.048,357.967h1.242    l0.287-0.682c-0.557-0.154-1.034-0.361-1.529-0.576V357.967z M202.178,353.543L202.178,353.543v4.424h1.241l1.736-4.424h3.454    v4.424h1.25l1.448-3.678c-2.626-2.42-4.209-5.873-4.209-9.688c0-1.385,0.207-2.697,0.548-3.947h-3.184    c0.342,1.25,0.549,2.563,0.549,3.947c0,3.473-1.313,6.576-3.463,8.941H202.178z M195.594,357.967L195.594,357.967h1.394    l0.549-1.457c-0.621,0.271-1.25,0.559-1.943,0.775V357.967z M189.298,357.967L189.298,357.967h1.178l0.063-0.215    c-0.414-0.072-0.818-0.127-1.241-0.197V357.967z M182.858,357.967L182.858,357.967h1.25l0.828-2.076    c-0.765-0.479-1.449-1.035-2.078-1.602V357.967z M176.427,353.543L176.427,353.543v4.424h1.242l1.799-4.424h2.626    c-1.035-1.188-1.871-2.5-2.482-3.949h-3.391c-0.629,1.449-1.457,2.762-2.563,3.949H176.427z M169.987,357.967L169.987,357.967    h1.241l1.385-3.398c-0.828,0.691-1.655,1.322-2.626,1.799V357.967z M163.547,357.967L163.547,357.967h1.25l0.054-0.215    c-0.27,0-0.54,0.08-0.891,0.08c-0.135,0-0.27,0-0.414-0.08V357.967z M157.107,357.967L157.107,357.967h1.259l0.477-1.186    c-0.558-0.271-1.178-0.549-1.736-0.891V357.967z M144.237,357.967L144.237,357.967h1.313l1.718-4.424h3.4v4.424h1.25l1.799-4.424    h0.549c-2.213-2.365-3.526-5.469-3.526-8.941c0-1.105,0.135-2.139,0.414-3.184h-1.655c0.27,1.045,0.405,2.078,0.405,3.184    c0,4.498-2.213,8.445-5.667,10.811V357.967z M138.148,357.967L138.148,357.967h0.962l0.144-0.412    c-0.351,0.07-0.765,0.125-1.106,0.197V357.967z M131.708,357.967L131.708,357.967h1.242l0.207-0.629    c-0.477-0.135-0.962-0.342-1.448-0.557V357.967z M118.828,353.543L118.828,353.543v4.424h1.241l1.736-4.424h3.454v4.424h1.259    l1.376-3.525c-1.448-1.26-2.555-2.842-3.319-4.658h-3.607c-0.612,1.395-1.376,2.645-2.419,3.76H118.828z M112.388,357.967    L112.388,357.967h1.241l0.495-1.313c-0.558,0.27-1.106,0.477-1.736,0.684V357.967z M107.199,357.967L107.199,357.967l0.135-0.287    c-0.198,0-0.342,0-0.558-0.055l-0.054,0.342H107.199z M101.73,356.51L101.73,356.51l0.414-0.549    c-0.342-0.152-0.612-0.35-0.899-0.549l-0.279,0.955L101.73,356.51z M86.709,332.621L86.709,332.621l-5.396-1.996    c-0.072,0.279-0.207,0.621-0.279,0.891l4.92,2.914C86.224,333.809,86.503,333.252,86.709,332.621L86.709,332.621z M78.534,335.121    L78.534,335.121c-0.27,0.279-0.54,0.549-0.818,0.756l2.896,4.984c1.106-0.828,2.158-1.727,2.977-2.771L78.534,335.121z     M68.505,316.359L68.505,316.359v-5.818c-1.592,0.207-3.184,0.701-4.641,1.313l2.905,5.055    C67.327,316.639,67.948,316.504,68.505,316.359L68.505,316.359z M72.868,310.541L72.868,310.541v5.748    c0.629,0.143,1.241,0.35,1.871,0.557l1.313-2.285l-0.207-3.398C74.873,310.893,73.902,310.686,72.868,310.541L72.868,310.541z     M83.04,351.654L83.04,351.654l0.755,0.215l2.779-3.877l3.328,0.9l-1.115,4.289l1.242,0.289l2.77-3.814l3.319,0.828l-1.106,4.299    l0.971,0.207l2.078-2.779c-1.52-2.141-2.419-4.768-2.419-7.609c0-2.824,0.899-5.467,2.347-7.607l-8.032-3.059    c-0.27,0.764-0.612,1.465-0.971,2.213l1.187,0.701c0.342,0.215,0.549,0.621,0.414,0.898l-1.601,2.771    c-0.198,0.287-0.612,0.287-1.025,0.07l-1.25-0.754c-1.25,1.582-2.698,2.895-4.362,4.074l0.836,1.447    c0.198,0.422,0.198,0.846-0.072,0.971l-0.836,0.486l2.015,0.629L83.04,351.654z M76.879,349.863L76.879,349.863l1.179,0.342    l1.798-2.275c-0.135-0.072-0.351-0.207-0.414-0.359l-0.909-1.582c-0.197,0.063-0.404,0.143-0.611,0.215L76.879,349.863z     M76.744,342.938L76.744,342.938l-2.905-5.045c-0.279,0.072-0.629,0.127-0.971,0.197v5.82    C74.244,343.703,75.557,343.434,76.744,342.938L76.744,342.938z M67.885,343.775L67.885,343.775l0.621-0.756v-4.93    c-0.27-0.07-0.621-0.125-0.899-0.197l-2.914,4.982C65.735,343.289,66.77,343.631,67.885,343.775L67.885,343.775z M60.887,340.807    L60.887,340.807l2.842-5c-0.279-0.207-0.486-0.477-0.755-0.686l-5.055,2.898C58.738,339.061,59.781,340.033,60.887,340.807    L60.887,340.807z M55.554,334.357L55.554,334.357l4.992-2.904c-0.207-0.342-0.342-0.756-0.414-1.18H54.24    C54.519,331.723,54.942,333.035,55.554,334.357L55.554,334.357z M53.971,325.912L53.971,325.912h5.81    c0-0.486,0.135-0.971,0.279-1.457l-5.118-2.969C54.447,322.936,54.105,324.383,53.971,325.912L53.971,325.912z M56.948,317.674    L56.948,317.674l4.974,2.842c0.36-0.486,0.765-0.898,1.179-1.313l-2.968-5.055C58.944,315.191,57.838,316.359,56.948,317.674    L56.948,317.674z M62.002,308.68L62.002,308.68l0.126,0.143c1.943-0.898,4.165-1.527,6.377-1.816v-0.125h0.072l-7.061,1.385    C61.715,308.328,61.858,308.473,62.002,308.68L62.002,308.68z M57.919,338.02c0.819,1.041,1.862,2.014,2.968,2.787l2.842-5    l-0.755-0.686L57.919,338.02z M68.505,343.02v-4.93l-0.899-0.197l-2.914,4.982c1.043,0.414,2.078,0.756,3.193,0.9L68.505,343.02z     M76.744,342.938l-2.905-5.045c-0.279,0.072-0.629,0.127-0.971,0.197v5.82C74.244,343.703,75.557,343.434,76.744,342.938    L76.744,342.938z M83.589,338.09l-5.055-2.969c-0.27,0.279-0.54,0.549-0.818,0.756l2.896,4.984    C81.718,340.033,82.77,339.135,83.589,338.09L83.589,338.09z M86.709,332.621l-5.396-1.996c-0.072,0.279-0.207,0.621-0.279,0.891    l4.92,2.914C86.224,333.809,86.503,333.252,86.709,332.621L86.709,332.621z M72.868,310.541v5.748    c0.629,0.143,1.241,0.35,1.871,0.557l1.313-2.285l-0.207-3.398C74.873,310.893,73.902,310.686,72.868,310.541L72.868,310.541z     M63.864,311.854l2.905,5.055c0.558-0.27,1.178-0.404,1.736-0.549v-5.818C66.914,310.748,65.322,311.242,63.864,311.854    L63.864,311.854z M56.948,317.674l4.974,2.842c0.36-0.486,0.765-0.898,1.179-1.313l-2.968-5.055    C58.944,315.191,57.838,316.359,56.948,317.674L56.948,317.674z M53.971,325.912h5.81c0-0.486,0.135-0.971,0.279-1.457    l-5.118-2.969C54.447,322.936,54.105,324.383,53.971,325.912L53.971,325.912z M55.554,334.357l4.992-2.904    c-0.207-0.342-0.342-0.756-0.414-1.18H54.24C54.519,331.723,54.942,333.035,55.554,334.357L55.554,334.357z" style="fill:#010101;"/></g></g><g id="Layer_1"/></svg>