<?xml version="1.0" ?><svg id="Layer_1" style="enable-background:new 0 0 256 256;" version="1.1" viewBox="0 0 256 256" xml:space="preserve" xmlns="http://www.w3.org/2000/svg" xmlns:xlink="http://www.w3.org/1999/xlink"><style type="text/css">
	.st0{fill:none;stroke:#000000;stroke-width:8;stroke-linejoin:round;stroke-miterlimit:10;}
	.st1{fill:none;stroke:#000000;stroke-width:8;stroke-miterlimit:10;}
	.st2{fill:none;stroke:#000000;stroke-width:8;stroke-miterlimit:10;stroke-dasharray:16,16;}
	.st3{fill:none;stroke:#000000;stroke-width:8;stroke-linecap:round;stroke-linejoin:round;stroke-miterlimit:10;}
</style><g><line class="st1" x1="8" x2="24" y1="195" y2="195"/><line class="st1" x1="16" x2="16" y1="194" y2="61"/><line class="st1" x1="232" x2="248" y1="195" y2="195"/><line class="st1" x1="240" x2="240" y1="194" y2="61"/><rect class="st1" height="87.667" width="224" x="16" y="61.292"/><g><line class="st1" x1="16" x2="60.417" y1="105.125" y2="60.708"/><line class="st1" x1="16.083" x2="104.167" y1="149.042" y2="60.958"/><line class="st1" x1="61.083" x2="149.167" y1="149.042" y2="60.958"/><line class="st1" x1="106.083" x2="194.167" y1="149.042" y2="60.958"/><line class="st1" x1="151.083" x2="239.167" y1="149.042" y2="60.958"/><line class="st1" x1="196.083" x2="240" y1="149.042" y2="105.125"/></g><g><line class="st1" x1="240" x2="195.583" y1="105.125" y2="60.708"/><line class="st1" x1="239.917" x2="151.833" y1="149.042" y2="60.958"/><line class="st1" x1="194.917" x2="106.833" y1="149.042" y2="60.958"/><line class="st1" x1="149.917" x2="61.833" y1="149.042" y2="60.958"/><line class="st1" x1="104.917" x2="16.833" y1="149.042" y2="60.958"/><line class="st1" x1="59.917" x2="16" y1="149.042" y2="105.125"/></g></g></svg>