<?xml version="1.0" ?><svg viewBox="0 0 25 25" xmlns="http://www.w3.org/2000/svg"><defs><style>.cls-1{fill:#1fb6ff;}.cls-2{fill:#039be4;}.cls-3{fill:none;}.cls-4{fill:#fff;}</style></defs><title/><g data-name="Layer 2" id="Layer_2"><g data-name="Layer 1 copy" id="Layer_1_copy"><g data-name="Marvel icon" id="Marvel_icon"><g data-name="ads manager" id="ads_manager"><rect class="cls-1" height="13.72" rx="2" ry="2" width="13.72" x="5.64" y="5.64"/><path class="cls-2" d="M17.36,6.24a1.4,1.4,0,0,1,1.4,1.4v9.72a1.4,1.4,0,0,1-1.4,1.4H7.64a1.4,1.4,0,0,1-1.4-1.4V7.64a1.4,1.4,0,0,1,1.4-1.4h9.72m0-.6H7.64a2,2,0,0,0-2,2v9.72a2,2,0,0,0,2,2h9.72a2,2,0,0,0,2-2V7.64a2,2,0,0,0-2-2Z"/></g><rect class="cls-3" height="25" width="25"/><path class="cls-4" d="M15.86,13.1a17,17,0,0,0-7,.87c-.36.16-.39.37-.33.48a.31.31,0,0,0,.41,0,14.86,14.86,0,0,1,7-1.16.12.12,0,1,0,0-.23Zm.87-1c-.15.16-.36.29-.43.23s0-.25,0-.25c.34-.22,1-.78,1-1.21s-.36-.52-.74-.15a2.77,2.77,0,0,0-.65,1.16,1.35,1.35,0,0,1-.8.44c-.15,0-.19-.1-.17-.24.24,0,.91-.19.91-.74a.35.35,0,0,0-.11-.24A.34.34,0,0,0,15.5,11a1.15,1.15,0,0,0-.88.74l-.15,0a1.84,1.84,0,0,0,.12-.33c0-.23-.05-.37-.24-.35a.35.35,0,0,0-.29.35.66.66,0,0,0,.06.35c-.08.25-.42.57-.53.56s0-.46.13-.8a.63.63,0,0,0,.15-.23.14.14,0,0,0-.05-.18.35.35,0,0,0-.44.18,1.54,1.54,0,0,0-.12.25c-.09.11-.24.25-.29.24s.15-.32.12-.47a.24.24,0,0,0-.26-.2c-.19,0-.44.38-.44.38a.68.68,0,0,0,.05-.2c0-.13-.26-.19-.39,0a3.64,3.64,0,0,0-.19.72c-.05.11-.26.44-.43.45s0-.58.05-.61a.86.86,0,0,0,.15-.45.17.17,0,0,0-.06-.13.16.16,0,0,0-.14,0,.31.31,0,0,0-.2.15.26.26,0,0,0-.25-.09c-.55.06-.91,1-.87,1.46,0,.24.15.39.36.36s.44-.38.44-.38.05.29.31.25a1,1,0,0,0,.49-.34.16.16,0,0,0,0,0c0,.24.36.22.4,0,.12-.91.43-1.29.52-1.29s-.2.43,0,.59.33,0,.51-.12a1.53,1.53,0,0,0-.05.35c0,.25.08.46.33.45s.69-.42.92-.81a.65.65,0,0,0,.2.08,1,1,0,0,0,0,.28.41.41,0,0,0,.47.4,1.59,1.59,0,0,0,.84-.42.08.08,0,0,1,0,0c0,.15,0,.41.22.42a1.32,1.32,0,0,0,.87-.48c.18-.11,0-.27-.12-.14ZM17,10.84a0,0,0,0,1,0,0c0,.25-.65.8-.65.8s.42-.84.61-.84Zm-1.57.53a.08.08,0,0,1,.06,0,.06.06,0,0,1,0,.06c0,.15-.2.25-.42.25C15.17,11.54,15.3,11.37,15.39,11.37Zm-4.33.4c0,.15-.29.84-.44.84s.09-1,.4-1c.06,0,.06,0,0,.12ZM8.71,12c.18,0-.15.91-.1,1.31s.49.29.46,0c-.05-.39.22-1.62.49-1.62s-.22.85-.13,1.38c.05.35.53.24.48,0-.15-.69.34-1.37.28-1.86,0-.2-.15-.32-.29-.32-.45,0-.82.9-.82.9s0-.51-.32-.53c-.53,0-1.07,1.28-1.06,2.46a.23.23,0,1,0,.46,0c0-.53.29-1.8.56-1.8Z"/></g></g></g></svg>