<?xml version="1.0" ?><svg id="Layer_1" style="enable-background:new 0 0 64 64;" version="1.1" viewBox="0 0 64 64" xml:space="preserve" xmlns="http://www.w3.org/2000/svg" xmlns:xlink="http://www.w3.org/1999/xlink"><style type="text/css">
	.st0{fill:#1379C2;}
	.st1{fill:#358DCC;}
	.st2{fill-rule:evenodd;clip-rule:evenodd;fill:#3FB754;}
	.st3{fill-rule:evenodd;clip-rule:evenodd;fill:#CCCCCC;}
	.st4{fill:#5D5E61;}
	.st5{fill:#924F34;}
	.st6{fill:#E6E6E6;}
	.st7{fill:#0F8C7E;}
	.st8{fill-rule:evenodd;clip-rule:evenodd;fill:#E6E6E6;}
	.st9{fill-rule:evenodd;clip-rule:evenodd;fill:#E6E6E6;stroke:#000000;stroke-width:0.4799;stroke-miterlimit:2.6131;}
	.st10{fill:#823B1F;}
	.st11{fill:#FFC810;}
	.st12{fill-rule:evenodd;clip-rule:evenodd;fill:#924F34;}
	.st13{fill:#E04538;}
	.st14{fill-rule:evenodd;clip-rule:evenodd;}
	.st15{fill-rule:evenodd;clip-rule:evenodd;fill:#FFC810;}
	.st16{fill-rule:evenodd;clip-rule:evenodd;fill:#E4E7E9;}
	.st17{fill:#3FB754;}
	.st18{fill-rule:evenodd;clip-rule:evenodd;fill:#5D5E61;}
	.st19{fill:#C92B1C;}
	.st20{fill:#666666;}
	.st21{fill:#FFD95E;}
	.st22{fill:#4D4D4D;}
	.st23{fill-rule:evenodd;clip-rule:evenodd;fill:#0F8C7E;}
	.st24{fill:#999999;}
	.st25{fill:#CCCCCC;}
	.st26{fill-rule:evenodd;clip-rule:evenodd;fill:#358DCC;}
	.st27{fill-rule:evenodd;clip-rule:evenodd;fill:#823B1F;}
</style><g><path class="st19" d="M34.7,11.8C35,19.7,51.2,44.1,58.5,49v-5.1c0-1.2,1-2.2,2.2-2.2c1.2,0,2.3,1,2.3,2.2v8.5c0,1.1-0.8,2-1.8,2.2   v0h-0.5H39c-1.1,0-1.9-0.7-2.2-1.7l-4.7-14l-5,14.2c-0.3,0.9-1.2,1.5-2.1,1.5v0H3.2c-1.2,0-2.2-1-2.2-2.2v-8.5c0-1.2,1-2.2,2.2-2.2   c1.2,0,2.2,1,2.2,2.2v5.4c7.4-4.5,24.3-29.9,24.3-37.6c0-1.2,1-2.2,2.2-2.2v0h0.5c1.2,0,2.2,1,2.2,2.2L34.7,11.8L34.7,11.8z"/><path class="st13" d="M32.2,38.9l-5,14.2c-0.3,0.9-1.2,1.5-2.1,1.5v0H3.2c-1.2,0-2.2-1-2.2-2.2v-8.5c0-1.2,1-2.2,2.2-2.2   c1.2,0,2.3,1,2.3,2.2v5.4c7.4-4.5,24.3-29.9,24.3-37.6c0-1.2,1-2.2,2.2-2.2v0h0L32.2,38.9L32.2,38.9z"/><path d="M35.7,11.8c0.3,8,15.5,29.6,21.9,35.2v-3.1c0-1.8,1.4-3.2,3.2-3.2c1.8,0,3.2,1.4,3.2,3.2v8.5c0,1.9-1.4,3.2-3.2,3.2H39   c-1.5,0-2.8-1-3.1-2.4l-3.8-11.3l-4.1,11.5c-0.5,1.4-1.7,2.1-3,2.1H3.2c-1.8,0-3.2-1.4-3.2-3.2v-8.5c0-1.8,1.4-3.2,3.2-3.2   c1.8,0,3.2,1.4,3.2,3.2v3.5c6.4-5.3,22.3-27.9,22.3-35.7c0-1.8,1.4-3.2,3.2-3.2h0.5c1.8,0,3.2,1.4,3.2,3.2l0,0L35.7,11.8L35.7,11.8   z M33.7,11.8c0-0.7-0.4-1.3-1.1-1.4H32c-0.7,0-1.3,0.6-1.3,1.3c0,8.4-17.5,34.1-24.8,38.4L4.5,51v-1.7v-5.4c0-0.7-0.6-1.3-1.3-1.3   c-0.7,0-1.3,0.6-1.3,1.3v8.5c0,0.7,0.6,1.3,1.3,1.3c7.3,0,14.6,0,21.8,0c0.5,0,1-0.3,1.2-0.8l5-14.2l1.8,0l4.7,14l0,0.1   c0.1,0.6,0.7,1,1.2,1h21.7c0.7,0,1.3-0.6,1.3-1.3v-8.5c0-0.7-0.6-1.3-1.3-1.3c-0.7,0-1.3,0.6-1.3,1.3V49v1.8l-1.5-1   C51,45.1,33.7,20.1,33.7,11.8L33.7,11.8z"/></g></svg>