<?xml version="1.0" ?><svg height="400" id="svg" style="display: block;" version="1.1" width="400" xmlns="http://www.w3.org/2000/svg" xmlns:xlink="http://www.w3.org/1999/xlink"><g id="svgg"><path d="" fill="#000000" fill-rule="evenodd" id="path0" stroke="none"/><path d="" fill="#2b2b2b" fill-rule="evenodd" id="path1" stroke="none"/><path d="M183.984 0.431 C 62.305 11.041,-21.365 124.099,4.528 242.920 C 28.108 351.125,136.337 419.394,245.117 394.678 C 324.708 376.594,386.522 309.650,398.005 229.102 C 399.677 217.374,399.805 215.289,399.805 199.805 C 399.805 184.320,399.677 182.236,398.005 170.508 C 383.293 67.309,287.750 -8.617,183.984 0.431 M211.523 16.806 C 325.729 24.372,405.210 132.229,378.328 243.164 C 356.077 334.990,267.230 394.795,173.242 381.212 C 75.172 367.040,5.497 275.743,17.805 177.539 C 29.894 81.085,115.065 10.417,211.523 16.806 M218.079 90.137 C 217.631 90.942,216.891 92.832,216.434 94.336 C 215.303 98.061,208.399 116.134,206.436 120.508 C 206.147 121.152,204.117 126.074,201.926 131.445 C 199.735 136.816,196.842 143.848,195.498 147.070 C 194.154 150.293,192.321 155.479,191.425 158.594 C 189.679 164.665,184.930 180.368,184.505 181.474 C 184.243 182.157,190.704 182.118,198.359 181.389 L 200.820 181.155 207.938 172.316 C 211.852 167.454,215.559 162.813,216.174 162.003 C 217.421 160.361,217.192 162.737,218.934 133.398 C 219.266 127.813,219.620 122.188,219.721 120.898 C 220.725 108.071,221.531 90.452,221.152 89.619 C 220.474 88.132,219.062 88.370,218.079 90.137 M233.033 102.179 C 232.055 103.157,231.597 104.200,230.043 108.984 C 229.240 111.455,227.975 115.059,227.231 116.992 L 225.878 120.508 225.040 134.766 C 224.580 142.607,224.125 149.902,224.031 150.977 C 223.936 152.051,223.746 155.127,223.609 157.813 C 223.370 162.502,223.313 162.756,222.158 164.223 L 220.956 165.751 226.377 165.479 C 229.359 165.329,231.843 165.163,231.897 165.109 C 231.951 165.055,232.533 156.052,233.192 145.103 C 233.851 134.154,234.565 122.471,234.780 119.141 C 235.712 104.695,235.729 103.192,234.961 102.344 C 234.108 101.401,233.834 101.378,233.033 102.179 M288.639 168.113 C 288.550 168.192,286.016 168.376,283.008 168.522 C 280.000 168.667,265.083 169.477,249.858 170.321 L 222.177 171.856 211.392 179.971 L 200.608 188.086 192.589 188.529 C 185.666 188.912,183.930 189.144,179.883 190.227 C 175.487 191.404,150.149 198.315,148.793 198.707 C 148.331 198.840,147.953 198.284,147.314 196.531 C 137.583 169.844,90.450 173.390,80.126 201.586 C 69.513 230.570,107.979 251.277,135.065 231.161 C 149.952 220.106,165.967 212.124,177.248 210.139 C 180.709 209.530,180.679 209.502,180.069 212.775 C 177.919 224.317,170.167 239.964,159.441 254.414 C 145.626 273.025,149.563 299.972,167.421 309.026 C 171.389 311.038,172.567 311.167,181.638 310.581 C 189.239 310.089,190.323 309.763,195.277 306.469 C 215.247 293.193,217.914 259.765,200.060 246.529 C 197.511 244.639,192.901 242.188,191.895 242.188 C 191.209 242.187,191.072 242.804,194.723 229.483 C 196.547 222.828,198.326 216.328,198.676 215.039 C 199.026 213.750,199.545 211.904,199.830 210.938 C 200.115 209.971,200.536 208.446,200.767 207.549 C 201.298 205.483,201.715 205.334,223.633 199.405 C 232.200 197.087,234.074 196.481,238.701 194.535 C 259.095 185.957,276.991 178.737,284.180 176.187 C 291.530 173.580,295.482 169.914,292.604 168.373 C 291.891 167.992,288.991 167.801,288.639 168.113 M292.969 181.873 L 284.570 182.389 274.414 186.452 C 264.800 190.297,248.765 196.861,247.070 197.645 C 246.641 197.844,243.916 199.007,241.016 200.231 C 236.005 202.345,234.297 202.885,223.242 205.849 C 219.407 206.877,209.820 209.552,206.937 210.398 C 206.519 210.521,206.036 211.376,205.682 212.623 C 205.080 214.745,204.987 215.086,201.117 229.472 C 199.791 234.402,198.865 238.489,199.060 238.555 C 200.045 238.887,204.194 241.921,205.901 243.557 C 206.968 244.579,207.931 245.324,208.043 245.212 C 208.236 245.020,212.601 229.361,214.447 222.240 L 215.315 218.894 217.521 218.273 C 218.734 217.931,221.924 217.016,224.609 216.240 C 227.295 215.464,233.799 213.668,239.063 212.248 C 244.326 210.828,249.248 209.358,250.000 208.981 C 250.752 208.604,253.828 207.292,256.836 206.065 C 259.844 204.839,262.832 203.601,263.477 203.314 C 264.121 203.027,266.143 202.177,267.969 201.425 C 269.795 200.674,272.959 199.361,275.000 198.509 C 281.388 195.841,295.368 190.369,298.633 189.258 C 303.993 187.434,307.422 185.019,307.422 183.067 C 307.422 181.030,307.095 181.003,292.969 181.873 M123.828 195.672 C 133.459 199.002,135.505 207.612,128.441 215.081 C 120.362 223.623,105.715 225.182,98.211 218.297 C 86.680 207.716,106.931 189.831,123.828 195.672 M111.719 201.320 C 99.171 204.967,97.312 215.680,109.112 216.347 L 111.793 216.499 113.612 214.768 C 116.916 211.621,120.830 209.445,125.084 208.389 C 126.797 207.963,127.050 204.798,125.481 203.419 C 122.835 201.095,116.054 200.060,111.719 201.320 M168.945 218.784 C 160.563 221.900,143.748 231.545,138.672 236.150 C 135.482 239.044,125.903 243.167,119.531 244.388 C 115.958 245.073,108.294 245.297,104.492 244.828 L 102.148 244.539 103.106 245.345 C 114.104 254.603,135.289 254.394,148.438 244.898 C 151.281 242.845,160.082 236.925,163.318 234.888 C 165.767 233.348,165.985 233.084,167.712 229.557 C 170.508 223.846,172.901 217.496,172.217 217.600 C 172.136 217.613,170.664 218.145,168.945 218.784 M187.319 258.073 C 192.656 259.892,196.125 266.965,195.586 274.929 C 194.372 292.857,176.250 302.418,169.611 288.632 C 162.818 274.528,174.821 253.815,187.319 258.073 M217.326 264.100 C 218.166 269.721,218.394 272.833,218.180 275.781 C 216.594 297.684,201.585 315.691,184.180 316.573 C 181.602 316.704,178.356 316.920,176.967 317.054 L 174.442 317.296 175.795 318.456 C 178.028 320.370,180.895 322.084,183.779 323.231 L 186.503 324.314 194.499 323.837 C 201.331 323.430,202.789 323.231,204.520 322.465 C 224.899 313.452,232.807 283.740,219.710 265.386 C 217.390 262.135,217.001 261.925,217.326 264.100 M180.838 264.786 C 172.353 270.230,171.140 289.063,179.275 289.063 C 181.345 289.063,181.881 288.464,182.994 284.910 C 183.977 281.772,186.887 276.759,188.612 275.232 C 190.344 273.700,189.350 267.595,186.956 265.056 C 185.254 263.252,183.359 263.169,180.838 264.786 " fill="#353535" fill-rule="evenodd" id="path2" stroke="none"/><path d="" fill="#404040" fill-rule="evenodd" id="path3" stroke="none"/><path d="" fill="#555555" fill-rule="evenodd" id="path4" stroke="none"/></g></svg>