<?xml version="1.0" ?><svg data-name="Layer 45" height="24" id="Layer_45" viewBox="0 0 24 24" width="24" xmlns="http://www.w3.org/2000/svg"><title/><path d="M6.86462,10.507V6.66162a5.68939,5.68939,0,0,0-3.54572,9.33807A6.28483,6.28483,0,0,0,6.86462,10.507Zm.77728,3.23767A7.88108,7.88108,0,0,1,4.56757,17.09a5.67451,5.67451,0,0,0,6.1568.00488A7.88174,7.88174,0,0,1,7.64191,13.74469Zm.77728-7.08563v3.848a6.28489,6.28489,0,0,0,3.557,5.49811,5.68947,5.68947,0,0,0-3.557-9.34607Z" style="fill:#4c9ae8"/><path d="M15.51465,10.507V6.66162a5.68938,5.68938,0,0,0-3.54578,9.33807A6.28489,6.28489,0,0,0,15.51465,10.507Zm1.5545-3.848v3.848a6.28512,6.28512,0,0,0,3.557,5.49811,5.68941,5.68941,0,0,0-3.557-9.34607Zm-.77722,7.08563A7.88084,7.88084,0,0,1,13.21753,17.09a5.67461,5.67461,0,0,0,6.15686.00488A7.88136,7.88136,0,0,1,16.29193,13.74469Z" style="fill:#4c9ae8"/><path d="M13.35,12.3a5.65081,5.65081,0,0,0-1.37524-3.69446,5.66774,5.66774,0,0,0-.00586,7.39417l.019-.01093A5.67052,5.67052,0,0,0,13.35,12.3Z" style="fill:#fa6d62"/></svg>