<?xml version="1.0" ?><!DOCTYPE svg  PUBLIC '-//W3C//DTD SVG 1.1//EN'  'http://www.w3.org/Graphics/SVG/1.1/DTD/svg11.dtd'><svg height="100%" style="fill-rule:evenodd;clip-rule:evenodd;stroke-linejoin:round;stroke-miterlimit:1.41421;" version="1.1" viewBox="0 0 101 126" width="100%" xml:space="preserve" xmlns="http://www.w3.org/2000/svg" xmlns:serif="http://www.serif.com/" xmlns:xlink="http://www.w3.org/1999/xlink"><path d="M50.473,24.851c-21.233,0 -38.5,17.266 -38.5,38.5c0,21.233 17.267,38.5 38.5,38.5c21.234,0 38.5,-17.267 38.5,-38.5c0,-21.234 -17.266,-38.5 -38.5,-38.5Z" style="fill:#eaff18;"/><g><path d="M27.609,81.419c6.345,-6.858 14.33,-10.606 22.864,-10.606c8.534,0 16.52,3.748 22.864,10.606c-1.505,1.946 -3.207,3.733 -5.075,5.332c-5.052,-5.561 -11.284,-8.568 -17.789,-8.568c-6.505,0 -12.736,3.007 -17.788,8.568c-1.868,-1.599 -3.57,-3.386 -5.076,-5.332Z"/><path d="M25.573,81.251l5.5,5.8" style="fill-rule:nonzero;"/><path d="M50.473,69.8c8.2,0 14.925,-6.726 14.925,-14.925c0,-8.199 -6.725,-14.924 -14.925,-14.924c-8.199,0 -14.924,6.725 -14.924,14.924c0,8.199 6.725,14.925 14.924,14.925Zm0,-22.479c4.146,0 7.555,3.408 7.555,7.554c0,4.146 -3.409,7.554 -7.555,7.554c-4.145,0 -7.554,-3.408 -7.554,-7.554c0,-4.146 3.409,-7.554 7.554,-7.554Z" style="fill-rule:nonzero;"/></g></svg>