<?xml version="1.0" ?><!DOCTYPE svg  PUBLIC '-//W3C//DTD SVG 1.1//EN'  'http://www.w3.org/Graphics/SVG/1.1/DTD/svg11.dtd'><svg enable-background="new 0 0 39.837 38.763" height="38.763px" id="Layer_1" version="1.1" viewBox="0 0 39.837 38.763" width="39.837px" xml:space="preserve" xmlns="http://www.w3.org/2000/svg" xmlns:xlink="http://www.w3.org/1999/xlink"><g><g><path d="M20.68,15.569c-0.275,0-0.54-0.152-0.671-0.415c-0.185-0.371-0.035-0.821,0.335-1.006l1.496-0.744    c1.067-0.53,2.135-1.06,3.195-1.604c3.268-1.68,6.533-3.366,9.837-5.073l3.237-1.671l-1.466-3.232L19.385,12.107    c-0.354,0.21-0.816,0.096-1.028-0.261c-0.212-0.356-0.095-0.816,0.261-1.028L36.596,0.105C36.778-0.003,37-0.03,37.204,0.034    c0.204,0.064,0.37,0.211,0.458,0.406l2.107,4.646c0.165,0.364,0.016,0.793-0.339,0.976l-3.87,1.999    c-3.306,1.707-6.571,3.394-9.841,5.074c-1.066,0.547-2.14,1.08-3.213,1.613l-1.492,0.743    C20.907,15.544,20.792,15.569,20.68,15.569z"/></g><g><path d="M1.544,30.004c-0.404,0-0.737-0.321-0.749-0.728c-0.012-0.414,0.313-0.759,0.728-0.771l22.827-0.672    c0.426-0.025,0.76,0.314,0.771,0.728c0.012,0.414-0.313,0.759-0.728,0.771L1.567,30.004C1.56,30.004,1.552,30.004,1.544,30.004z"/></g><g><path d="M13.019,38.763c-1.705,0-3.419-0.019-5.12-0.078c-1.316-0.047-2.705-0.467-3.714-1.124    c-3.758-2.449-4.993-5.989-3.671-10.524c1.292-4.428,2.734-8.937,4.41-13.786c0.316-0.914,1.525-2.043,2.611-2.128    c2.562-0.203,5.168-0.27,7.688-0.334c0.916-0.023,1.831-0.047,2.746-0.077c0.128-0.005,0.252,0.024,0.36,0.079    c0.359-0.181,0.801-0.043,0.995,0.314c0.446,0.824,0.924,1.636,1.403,2.449c1.075,1.826,2.186,3.713,2.929,5.735    c1.604,4.376,3.04,9.079,1.472,14.224c-1.149,3.772-2.9,5.186-6.457,5.213l-1.462,0.013C15.829,38.75,14.427,38.763,13.019,38.763    z M18.204,12.183c-0.059,0.017-0.122,0.027-0.186,0.029c-0.918,0.03-1.837,0.054-2.756,0.077c-2.5,0.064-5.086,0.13-7.609,0.33    c-0.367,0.029-1.147,0.647-1.311,1.123c-1.668,4.825-3.103,9.312-4.388,13.716c-1.147,3.933-0.178,6.744,3.049,8.847    c0.778,0.507,1.908,0.844,2.948,0.881c3.073,0.108,6.21,0.08,9.244,0.052l1.463-0.013c2.896-0.022,4.071-0.992,5.034-4.15    c1.432-4.7,0.071-9.132-1.445-13.269c-0.696-1.894-1.772-3.723-2.813-5.491C19.018,13.607,18.601,12.898,18.204,12.183z"/></g></g></svg>