<?xml version="1.0" ?><!DOCTYPE svg  PUBLIC '-//W3C//DTD SVG 1.1//EN'  'http://www.w3.org/Graphics/SVG/1.1/DTD/svg11.dtd'><svg enable-background="new 0 0 35.779 40.92" height="40.92px" id="Layer_1" version="1.1" viewBox="0 0 35.779 40.92" width="35.779px" xml:space="preserve" xmlns="http://www.w3.org/2000/svg" xmlns:xlink="http://www.w3.org/1999/xlink"><g><g><path d="M26.561,40.271c-0.414,0-0.75-0.336-0.75-0.75V28.182c-0.058-0.006-0.115-0.019-0.172-0.04    c-5.154-1.831-7.482-5.485-6.921-10.861c0.185-1.78,0.136-3.64,0.088-5.439c-0.022-0.845-0.044-1.69-0.044-2.533V1.252    c0-0.414,0.336-0.75,0.75-0.75h14.045c0.398,0,0.727,0.311,0.749,0.708l0.203,3.645c0.181,3.231,0.354,6.34,0.515,9.451    c0.02,0.378-0.014,0.75-0.046,1.11c-0.045,0.511-0.088,0.994,0.042,1.312c1.045,2.544,1.011,4.94-0.099,6.926    c-1.295,2.319-4.048,4.027-7.61,4.743v11.124C27.311,39.935,26.975,40.271,26.561,40.271z M20.262,2.002V9.31    c0,0.83,0.022,1.661,0.044,2.493c0.048,1.847,0.099,3.757-0.096,5.634c-0.494,4.727,1.391,7.679,5.931,9.292    c0.159,0.056,0.286,0.16,0.373,0.29c3.375-0.568,5.96-2.059,7.098-4.096c0.892-1.596,0.898-3.488,0.021-5.626    c-0.269-0.656-0.205-1.377-0.148-2.014c0.029-0.322,0.056-0.627,0.042-0.899c-0.161-3.108-0.334-6.216-0.515-9.445l-0.164-2.937    H20.262z"/></g><g><path d="M7.153,28.385c-0.116,0-0.231-0.027-0.336-0.079l-0.388-0.19c-0.393-0.19-0.89-0.431-1.374-0.697    c-3.172-1.737-4.56-4.015-4.498-7.383c0.051-2.765-0.118-5.594-0.281-8.33C0.164,9.829,0.048,7.887,0.003,5.97    c-0.029-1.221,0.151-2.4,0.343-3.647c0.083-0.545,0.168-1.097,0.235-1.661C0.625,0.284,0.945,0,1.326,0h13.487    c0.414,0,0.75,0.336,0.75,0.75v7.598c0.197,0.13,0.329,0.352,0.335,0.605c0.034,1.289,0.11,2.583,0.186,3.876    c0.173,2.948,0.352,5.996,0.018,8.969c-0.319,2.832-2.125,6.273-8.915,6.585C7.176,28.384,7.165,28.385,7.153,28.385z M1.984,1.5    C1.935,1.854,1.882,2.204,1.829,2.55C1.647,3.73,1.476,4.845,1.503,5.935c0.044,1.89,0.159,3.818,0.271,5.683    c0.165,2.765,0.335,5.624,0.283,8.446c-0.051,2.778,1.061,4.584,3.719,6.04c0.461,0.252,0.934,0.481,1.307,0.662l0.226,0.11    c4.544-0.252,6.934-1.97,7.304-5.245c0.319-2.845,0.144-5.829-0.025-8.713c-0.072-1.218-0.143-2.436-0.18-3.649    c-0.207-0.133-0.344-0.366-0.344-0.63V1.5H1.984z"/></g><g><path d="M7.762,25.837c-0.357,0-0.674-0.257-0.738-0.621c-0.071-0.408,0.202-0.796,0.61-0.868c1.88-0.328,2.925-0.8,3.06-2.35    c0.197-2.276,0.348-4.599,0.494-6.845c0.062-0.958,0.125-1.917,0.19-2.875c0.028-0.414,0.397-0.734,0.799-0.697    c0.414,0.028,0.726,0.386,0.697,0.799c-0.065,0.957-0.128,1.913-0.19,2.87c-0.146,2.254-0.298,4.584-0.497,6.877    c-0.261,2.993-2.886,3.451-4.296,3.697C7.849,25.833,7.805,25.837,7.762,25.837z"/></g><g><path d="M26.561,25.502c-0.404,0-0.737-0.321-0.749-0.728c-0.013-0.414,0.313-0.76,0.727-0.772    c1.517-0.046,2.663-0.505,3.404-1.367c1.055-1.225,0.989-2.858,0.912-3.503c-0.17-1.438-0.328-2.876-0.484-4.315l-0.19-1.733    c-0.045-0.412,0.251-0.782,0.663-0.828c0.418-0.044,0.782,0.251,0.828,0.663l0.19,1.736c0.156,1.434,0.313,2.868,0.482,4.3    c0.213,1.78-0.248,3.479-1.264,4.66c-1.027,1.193-2.54,1.828-4.496,1.887C26.576,25.502,26.568,25.502,26.561,25.502z"/></g><g><path d="M33.612,9.388c-0.006,0-0.013,0-0.019,0L20.165,9.052c-0.414-0.011-0.742-0.354-0.731-0.769    c0.01-0.415,0.334-0.746,0.769-0.731L33.63,7.888c0.414,0.01,0.742,0.354,0.731,0.769C34.351,9.064,34.017,9.388,33.612,9.388z"/></g><g><path d="M14.477,9.388c-0.006,0-0.013,0-0.02,0L1.366,9.052c-0.414-0.011-0.741-0.355-0.73-0.769    c0.01-0.415,0.388-0.765,0.769-0.73l13.091,0.335c0.414,0.011,0.741,0.355,0.731,0.769C15.215,9.064,14.882,9.388,14.477,9.388z"/></g><g><path d="M7.427,39.6c-0.414,0-0.75-0.336-0.75-0.75V28.107c0-0.414,0.336-0.75,0.75-0.75s0.75,0.336,0.75,0.75V38.85    C8.177,39.264,7.841,39.6,7.427,39.6z"/></g><g><path d="M25.367,40.92c-0.977,0-1.949-0.098-2.892-0.192c-0.447-0.045-0.895-0.09-1.342-0.125    c-0.413-0.032-0.722-0.392-0.69-0.805c0.032-0.413,0.393-0.729,0.805-0.69c0.459,0.035,0.917,0.081,1.376,0.127    c1.008,0.101,1.964,0.199,2.918,0.183c2.136-0.026,4.31-0.118,6.412-0.206c0.878-0.037,1.757-0.073,2.635-0.106    c0.432-0.04,0.762,0.308,0.777,0.722c0.015,0.414-0.308,0.762-0.722,0.777c-0.876,0.032-1.752,0.069-2.628,0.106    c-2.113,0.088-4.298,0.18-6.455,0.207C25.498,40.92,25.433,40.92,25.367,40.92z"/></g><g><path d="M14.476,40.271H1.049c-0.414,0-0.75-0.336-0.75-0.75s0.336-0.75,0.75-0.75h13.427c0.414,0,0.75,0.336,0.75,0.75    S14.89,40.271,14.476,40.271z"/></g></g></svg>