<?xml version="1.0" ?><!DOCTYPE svg  PUBLIC '-//W3C//DTD SVG 1.1//EN'  'http://www.w3.org/Graphics/SVG/1.1/DTD/svg11.dtd'><svg enable-background="new 0 0 40.417 39.363" height="39.363px" id="Layer_1" version="1.1" viewBox="0 0 40.417 39.363" width="40.417px" xml:space="preserve" xmlns="http://www.w3.org/2000/svg" xmlns:xlink="http://www.w3.org/1999/xlink"><g><g><path d="M8.775,38.368c-1.011,0-2.032-0.003-3.074-0.005l-3.189-0.005c-0.391,0-0.715-0.299-0.747-0.688    c-0.113-1.366-0.216-2.737-0.317-4.108c-0.228-3.052-0.463-6.208-0.823-9.291c-0.427-3.666,1.242-6.496,2.856-9.233    c0.799-1.353,1.557-2.638,2.071-4.01c-0.411-0.465-0.837-0.916-1.261-1.365c-2.247-2.38-4.57-4.842-4.264-8.969    C0.058,0.288,0.438-0.017,0.811,0l17.776,0.843c0.235,0.011,0.451,0.131,0.584,0.325c0.132,0.194,0.167,0.438,0.092,0.661    c-0.158,0.475-0.293,0.934-0.423,1.375c-0.297,1.009-0.576,1.962-1.053,2.841c-0.432,0.803-1.064,1.455-1.676,2.085    c-0.246,0.252-0.491,0.505-0.721,0.766c-1.425,1.615-1.519,2.831-0.348,4.486c1.028,1.455,1.763,3.112,2.3,4.322    c0.188,0.425,0.354,0.801,0.505,1.102c0.052,0.104,0.079,0.219,0.079,0.335v17.456c0,0.294-0.169,0.548-0.414,0.671    c-0.091,0.182-0.255,0.326-0.465,0.387c-0.231,0.066-0.462,0.149-0.692,0.232c-0.584,0.209-1.188,0.426-1.851,0.438    C12.598,38.359,10.707,38.368,8.775,38.368z M3.203,36.859l2.501,0.004c3.027,0.005,5.885,0.013,8.774-0.036    c0.414-0.008,0.879-0.174,1.371-0.351c0.192-0.069,0.385-0.138,0.577-0.199V19.316c-0.138-0.287-0.289-0.627-0.455-1.003    c-0.54-1.216-1.211-2.73-2.153-4.063c-1.563-2.21-1.422-4.226,0.446-6.343c0.244-0.279,0.507-0.55,0.77-0.82    c0.565-0.582,1.1-1.132,1.434-1.753c0.401-0.741,0.647-1.58,0.934-2.551c0.047-0.16,0.095-0.323,0.144-0.487L1.502,1.535    c0.053,3.044,1.916,5.018,3.88,7.099c0.539,0.571,1.081,1.146,1.594,1.747c0.17,0.2,0.224,0.475,0.14,0.725    c-0.56,1.673-1.466,3.209-2.343,4.695c-1.557,2.64-3.027,5.133-2.658,8.297c0.363,3.115,0.6,6.286,0.828,9.354    C3.027,34.588,3.112,35.725,3.203,36.859z"/></g><g><path d="M34.296,34.329c-0.386,0-0.714-0.296-0.746-0.688c-0.035-0.412,0.271-0.775,0.685-0.81    c3.808-0.321,4.683-1.248,4.683-4.959v-3.446H27.659l0.333,3.029c0.046,0.412-0.252,0.782-0.663,0.827    c-0.415,0.048-0.782-0.252-0.827-0.664l-0.425-3.86c-0.023-0.212,0.044-0.424,0.187-0.583s0.346-0.25,0.559-0.25h12.845    c0.414,0,0.75,0.336,0.75,0.75v4.196c0,4.5-1.472,6.068-6.058,6.454C34.339,34.328,34.317,34.329,34.296,34.329z"/></g><g><path d="M26.34,39.363c-0.724,0-1.419-0.127-2.063-0.392c-2.924-1.199-4.485-5.585-3.797-10.665    c0.047-0.347,0.328-0.615,0.677-0.646l6.023-0.535c0.079-0.007,0.159-0.002,0.235,0.016c0.076-0.018,0.154-0.023,0.238-0.016    l6.041,0.566c0.385,0.036,0.68,0.359,0.68,0.747c0,0.3-0.004,0.594-0.007,0.884c-0.009,0.636-0.017,1.25,0.019,1.862    c0.034,0.612,0.112,1.222,0.196,1.867l0.101,0.809c0.021,0.187-0.027,0.374-0.138,0.526C32.291,37.505,29.109,39.363,26.34,39.363    z M21.897,29.101c-0.405,4.085,0.797,7.601,2.949,8.483c2.376,0.978,5.908-0.669,8.311-3.842l-0.063-0.499    c-0.083-0.644-0.168-1.309-0.206-1.974c-0.037-0.654-0.029-1.291-0.021-1.965c0-0.061,0.001-0.122,0.002-0.183l-5.356-0.502    c-0.033-0.003-0.066-0.008-0.098-0.016c-0.034,0.008-0.068,0.013-0.103,0.016L21.897,29.101z"/></g></g></svg>