<?xml version="1.0" ?><!DOCTYPE svg  PUBLIC '-//W3C//DTD SVG 1.1//EN'  'http://www.w3.org/Graphics/SVG/1.1/DTD/svg11.dtd'><svg enable-background="new 0 0 39.443 39.817" height="39.817px" id="Layer_1" version="1.1" viewBox="0 0 39.443 39.817" width="39.443px" xml:space="preserve" xmlns="http://www.w3.org/2000/svg" xmlns:xlink="http://www.w3.org/1999/xlink"><g><g><path d="M23.616,39.817c-3.624,0-7.177-0.017-10.747-0.077c-1.964-0.032-3.895-0.326-5.938-0.637    c-0.944-0.144-1.912-0.291-2.915-0.417c-0.213-0.026-0.404-0.143-0.525-0.319c-0.121-0.176-0.161-0.396-0.11-0.604l1.301-5.28    c0.083-0.335,0.383-0.571,0.729-0.571h14.858c0.261,0,0.491,0.133,0.625,0.336h4.487l-0.9-20.655H4.922    c-0.397,0-0.726-0.31-0.749-0.707c-0.044-0.76-0.1-1.496-0.154-2.213C3.88,6.858,3.75,5.145,3.838,3.424    c0.056-1.111,1.477-2.427,2.537-2.635c2.334-0.459,4.746-0.707,7.17-0.737C20.63-0.034,27.784,0.004,34.704,0.04    c0.852,0.005,1.677,0.137,2.405,0.254c0.29,0.046,0.565,0.091,0.819,0.123c0.367,0.045,0.646,0.353,0.657,0.723l0.236,8.228    c0.236,8.115,0.46,15.781,0.618,23.615c0.03,1.458-0.178,2.902-0.38,4.299c-0.089,0.619-0.178,1.232-0.244,1.838    c-0.041,0.381-0.362,0.669-0.745,0.669c-2.534,0-5.012,0.007-7.45,0.015C28.243,39.811,25.915,39.817,23.616,39.817z     M5.037,37.308c0.722,0.1,1.427,0.207,2.119,0.312c1.993,0.303,3.875,0.589,5.738,0.62c5.819,0.098,11.602,0.082,17.723,0.063    c2.226-0.007,4.484-0.013,6.789-0.015c0.052-0.405,0.111-0.812,0.17-1.222c0.193-1.336,0.393-2.718,0.364-4.054    c-0.157-7.828-0.381-15.49-0.617-23.602l-0.219-7.599C37.028,1.8,36.95,1.788,36.872,1.775c-0.676-0.108-1.44-0.231-2.177-0.235    c-6.913-0.036-14.063-0.075-21.133,0.012C11.23,1.581,8.909,1.819,6.664,2.261c-0.518,0.102-1.3,0.935-1.328,1.24    C5.253,5.126,5.38,6.793,5.514,8.558c0.039,0.502,0.077,1.013,0.112,1.534h19.571c0.401,0,0.731,0.316,0.749,0.717l0.966,22.155    c0.009,0.205-0.065,0.404-0.207,0.551c-0.142,0.148-0.338,0.231-0.542,0.231h-5.561c-0.261,0-0.491-0.133-0.625-0.336H5.997    L5.037,37.308z"/></g><g><path d="M20.267,33.075c-0.107,0-0.218-0.023-0.321-0.073c-0.374-0.178-0.533-0.626-0.354-1c1.942-4.077,3.62-8.488,2.872-13.193    H7.294c-0.33,4.824,0.459,8.478,2.529,11.775c0.221,0.351,0.115,0.813-0.236,1.034c-0.35,0.221-0.813,0.113-1.033-0.236    c-2.321-3.696-3.18-7.95-2.7-13.389c0.034-0.387,0.358-0.684,0.747-0.684h16.488c0.356,0,0.664,0.251,0.735,0.601    c1.086,5.363-0.742,10.252-2.88,14.738C20.816,32.917,20.547,33.075,20.267,33.075z"/></g><g><path d="M7.176,28.376c-0.053,0-0.106-0.005-0.16-0.017c-3.254-0.706-5.464-2.662-6.955-6.157    c-0.089-0.208-0.079-0.445,0.026-0.646c0.106-0.2,0.297-0.341,0.519-0.385l5.084-0.995c0.396-0.083,0.8,0.185,0.88,0.592    c0.079,0.407-0.186,0.801-0.593,0.88L1.833,22.46c1.27,2.509,2.994,3.89,5.501,4.433c0.404,0.088,0.661,0.487,0.574,0.892    C7.832,28.136,7.521,28.376,7.176,28.376z"/></g></g></svg>