<?xml version="1.0" ?><!DOCTYPE svg  PUBLIC '-//W3C//DTD SVG 1.1//EN'  'http://www.w3.org/Graphics/SVG/1.1/DTD/svg11.dtd'><svg enable-background="new 0 0 34.59 39.055" height="39.055px" id="Layer_1" version="1.1" viewBox="0 0 34.59 39.055" width="34.59px" xml:space="preserve" xmlns="http://www.w3.org/2000/svg" xmlns:xlink="http://www.w3.org/1999/xlink"><g><g><path d="M13.343,39.055c-1.832,0-3.68-0.035-5.509-0.167c-3.132-0.226-4.738-1.681-4.774-4.325    c-0.027-1.927-0.174-3.909-0.316-5.826c-0.271-3.64-0.55-7.403-0.033-11.036c0.353-2.482-0.495-3.846-1.778-5.912    c-0.266-0.428-0.545-0.878-0.83-1.363C-0.033,10.194-0.034,9.907,0.1,9.674C0.233,9.44,0.481,9.297,0.75,9.297    c0.952,0,1.862-0.007,2.746-0.015c0.317-0.003,0.631-0.005,0.942-0.008C4.362,7.75,4.697,6.574,5.434,5.777    c0.706-0.762,1.752-1.155,3.111-1.17c0.921-0.009,1.843-0.03,2.765-0.05c2.971-0.064,6.044-0.132,9.052,0.168    c3.759,0.375,4.479,2.566,4.422,4.339c-0.106,3.293-0.083,6.653-0.061,9.901c0.009,1.391,0.019,2.782,0.019,4.172l-0.006,3.602    c-0.008,2.888-0.016,5.875,0.024,8.808c0.016,1.18-0.258,2.037-0.84,2.619s-1.439,0.872-2.622,0.844    c-1.558-0.02-3.118-0.001-4.678,0.018C15.54,39.042,14.444,39.055,13.343,39.055z M2.079,10.792    c0.042,0.069,0.085,0.137,0.127,0.205c1.352,2.175,2.419,3.893,1.99,6.915c-0.495,3.472-0.221,7.154,0.043,10.714    c0.144,1.939,0.292,3.944,0.32,5.917c0.025,1.853,1.005,2.679,3.382,2.85c2.865,0.206,5.813,0.17,8.663,0.137    c1.571-0.018,3.145-0.038,4.714-0.018c0.751,0.009,1.261-0.123,1.542-0.404c0.281-0.281,0.412-0.784,0.401-1.539    c-0.04-2.945-0.032-5.938-0.024-8.832l0.006-3.598c0-1.387-0.01-2.774-0.019-4.162c-0.017-2.464-0.034-4.992,0.004-7.512    c-1.401-0.065-2.801-0.134-4.201-0.203c-3.332-0.163-6.778-0.332-10.166-0.45c-1.735-0.061-3.493-0.047-5.354-0.031    C3.04,10.786,2.564,10.79,2.079,10.792z M5.94,9.269c1.004,0,1.99,0.011,2.974,0.045c3.398,0.119,6.849,0.288,10.187,0.451    c1.386,0.068,2.772,0.136,4.158,0.2c0.008-0.316,0.017-0.632,0.027-0.948c0.055-1.717-0.892-2.581-3.072-2.798    c-2.917-0.291-5.943-0.225-8.871-0.161c-0.928,0.021-1.856,0.041-2.782,0.05c-0.93,0.01-1.611,0.242-2.025,0.688    C6.072,7.296,5.872,8.127,5.94,9.269z"/></g><g><path d="M24.665,33.624c-0.401,0-0.734-0.317-0.749-0.722c-0.016-0.414,0.308-0.762,0.721-0.778    c3.048-0.115,5.426-1.164,6.878-3.033c1.516-1.953,1.955-4.662,1.269-7.834c-1.047-4.843-4.368-5.938-8.277-6.784    c-0.405-0.087-0.662-0.487-0.574-0.892c0.087-0.405,0.483-0.664,0.892-0.574c4.094,0.886,8.193,2.228,9.426,7.933    c0.771,3.568,0.221,6.79-1.55,9.071c-1.732,2.232-4.501,3.481-8.006,3.613C24.684,33.624,24.674,33.624,24.665,33.624z"/></g><g><path d="M3.852,27.582c-0.408,0-0.742-0.327-0.75-0.737c-0.007-0.415,0.323-0.756,0.737-0.763l19.47-0.336    c0.429-0.02,0.756,0.323,0.763,0.737s-0.323,0.756-0.737,0.763l-19.47,0.336C3.861,27.582,3.856,27.582,3.852,27.582z"/></g><g><path d="M14.259,23.553c-0.007,0-0.014,0-0.021,0c-0.414-0.011-0.741-0.356-0.729-0.77l0.336-12.085    c0.011-0.414,0.36-0.753,0.771-0.729c0.414,0.011,0.74,0.356,0.729,0.771l-0.336,12.084    C14.997,23.231,14.664,23.553,14.259,23.553z"/></g><g><path d="M15.938,5.426c-0.414,0-0.75-0.336-0.75-0.75v-2.7c-0.942-0.288-2.038-0.595-2.239-0.449    c-0.258,0.188-0.276,1.904-0.289,3.157c-0.004,0.414-0.369,0.766-0.758,0.742c-0.414-0.004-0.747-0.344-0.742-0.758    c0.025-2.4,0.039-3.722,0.906-4.354c0.848-0.619,2.07-0.237,4.095,0.393c0.313,0.098,0.527,0.388,0.527,0.716v3.253    C16.688,5.09,16.352,5.426,15.938,5.426z"/></g><g><path d="M20.301,24.224c-0.007,0-0.014,0-0.02,0L7.525,23.888c-0.414-0.011-0.741-0.355-0.73-0.769    c0.01-0.415,0.361-0.76,0.769-0.73l12.756,0.335c0.414,0.011,0.741,0.355,0.73,0.769C21.04,23.901,20.706,24.224,20.301,24.224z"/></g></g></svg>