<?xml version="1.0" ?><!DOCTYPE svg  PUBLIC '-//W3C//DTD SVG 1.1//EN'  'http://www.w3.org/Graphics/SVG/1.1/DTD/svg11.dtd'><svg enable-background="new 0 0 35.181 40.045" height="40.045px" id="Layer_1" version="1.1" viewBox="0 0 35.181 40.045" width="35.181px" xml:space="preserve" xmlns="http://www.w3.org/2000/svg" xmlns:xlink="http://www.w3.org/1999/xlink"><g><g><path d="M16.727,40.045c-2.557,0-5.133-0.279-7.702-1.149c-0.346-0.116-0.557-0.465-0.501-0.825l4.6-29.679    c0.037-0.24,0.188-0.448,0.406-0.556l3.739-1.869c0.37-0.186,0.821-0.035,1.006,0.336c0.186,0.37,0.035,0.821-0.336,1.006    l-2.821,1.41c0.808,0.16,1.618,0.356,2.408,0.547c2.354,0.57,4.576,1.108,6.63,0.76c3.624-0.612,6.78-0.89,10.403-0.262    c0.381,0.066,0.649,0.411,0.62,0.796l-0.111,1.441c-0.091,1.186-0.177,2.305-0.269,3.424l-0.034,0.428    c-0.321,3.962-0.653,8.06-3.086,11.692c-1.647,2.46-3.172,4.738-2.369,7.792c0.255,0.973-0.257,2.012-0.631,2.771    c-0.113,0.23-0.218,0.437-0.273,0.604c-0.096,0.289-0.358,0.492-0.663,0.512c-1.382,0.091-2.774,0.229-4.122,0.364    C21.353,39.815,19.048,40.045,16.727,40.045z M10.104,37.667c4.392,1.325,8.757,0.889,13.367,0.429    c1.21-0.12,2.458-0.245,3.71-0.336c0.047-0.1,0.099-0.204,0.151-0.313c0.27-0.547,0.639-1.295,0.525-1.727    c-0.975-3.707,0.813-6.377,2.541-8.959c2.248-3.356,2.551-7.083,2.87-11.027l0.035-0.43c0.091-1.117,0.177-2.233,0.268-3.417    l0.058-0.752c-3.138-0.453-5.889-0.193-9.225,0.37c-2.357,0.396-4.836-0.202-7.233-0.782c-0.923-0.224-1.876-0.454-2.797-0.619    L10.104,37.667z"/></g><g><path d="M28.347,31.556c-0.348,0-0.66-0.243-0.733-0.598l-4.029-19.47c-0.084-0.406,0.177-0.802,0.582-0.886    c0.408-0.083,0.803,0.176,0.887,0.583l4.029,19.469c0.084,0.406-0.177,0.803-0.582,0.887    C28.448,31.551,28.397,31.556,28.347,31.556z"/></g><g><path d="M10.22,30.214c-0.098,0-0.197-0.019-0.293-0.06c-4.237-1.796-4.555-5.68-4.425-8.445c0.164-3.493-0.704-5.907-2.813-7.829    c-0.598-0.543-1.041-1.183-1.602-1.993c-0.272-0.394-0.574-0.83-0.937-1.313c-0.159-0.212-0.194-0.494-0.092-0.739    c0.104-0.245,0.328-0.418,0.591-0.454l4.033-0.55c0.25-0.033,0.505,0.062,0.67,0.255C5.519,9.28,5.574,9.544,5.502,9.788    l-0.083,0.277l7.323,6.761c0.305,0.281,0.323,0.755,0.042,1.06s-0.755,0.322-1.06,0.042L4.058,10.85    c-0.114-0.105-0.19-0.242-0.224-0.388L2.089,10.7c0.079,0.114,0.156,0.226,0.231,0.334c0.506,0.731,0.906,1.309,1.378,1.737    C6.136,14.991,7.185,17.854,7,21.78c-0.176,3.733,0.908,5.89,3.513,6.994c0.381,0.162,0.56,0.602,0.397,0.983    C10.789,30.042,10.512,30.214,10.22,30.214z"/></g><g><path d="M23.313,10.744c-0.001,0-0.001,0-0.002,0c-0.414-0.001-0.749-0.337-0.748-0.752c0.005-2.027-0.815-2.144-2.671-2.212    c-0.734-0.027-1.494-0.055-2.16-0.319c-0.168-0.066-0.306-0.191-0.389-0.352l-2.032-3.909c-0.156-0.3-0.092-0.668,0.157-0.898    l2.288-2.104c0.187-0.172,0.448-0.237,0.695-0.173c3.814,0.989,3.395,3.493,3.088,5.322c-0.062,0.371-0.121,0.725-0.149,1.058    c1.354,0.239,2.68,0.988,2.673,3.592C24.062,10.409,23.726,10.744,23.313,10.744z M18.531,6.144    c0.384,0.096,0.861,0.116,1.364,0.135c0.033-0.396,0.1-0.793,0.165-1.181c0.283-1.694,0.477-2.846-1.601-3.511l-1.554,1.43    L18.531,6.144z"/></g></g></svg>