<?xml version="1.0" ?><!DOCTYPE svg  PUBLIC '-//W3C//DTD SVG 1.1//EN'  'http://www.w3.org/Graphics/SVG/1.1/DTD/svg11.dtd'><svg enable-background="new 0 0 37.854 39.724" height="39.724px" id="Layer_1" version="1.1" viewBox="0 0 37.854 39.724" width="37.854px" xml:space="preserve" xmlns="http://www.w3.org/2000/svg" xmlns:xlink="http://www.w3.org/1999/xlink"><g><g><path d="M7.539,39.724c-1.195,0-2.099-0.228-2.758-0.695c-0.821-0.583-1.242-1.511-1.252-2.758    c-0.042-4.84-0.035-9.599-0.027-14.2l0.005-4.813c0-0.216,0.094-0.422,0.256-0.564l5.456-4.776    c0.058-0.05,0.123-0.092,0.193-0.123l3.554-1.557c0.204-0.09,0.442-0.083,0.643,0.02l4.48,2.294    c0.136,0.069,0.247,0.178,0.318,0.313c1.834,3.408,1.833,3.41,7.412,0.535c0.252-0.13,0.554-0.106,0.782,0.058l1.927,1.388    c0.253,0.182,0.359,0.491,0.294,0.776c0.023,0.101,0.025,0.208,0.004,0.317c-0.038,0.188-0.088,0.377-0.138,0.566    c-0.091,0.342-0.176,0.665-0.166,0.936c0.094,2.498,0.203,4.998,0.313,7.497c0.116,2.648,0.232,5.295,0.329,7.944    c0.052,1.397,0.037,2.811,0.024,4.177c-0.007,0.632-0.013,1.264-0.013,1.894c0,0.414-0.336,0.75-0.75,0.75l-6.072-0.006    c-5.094-0.009-9.907-0.015-14.733,0.029C7.593,39.724,7.566,39.724,7.539,39.724z M5.007,17.598l-0.005,4.474    c-0.008,4.598-0.015,9.353,0.027,14.186c0.008,0.998,0.357,1.36,0.62,1.547c0.402,0.285,1.037,0.432,1.958,0.419    c4.833-0.044,9.65-0.037,14.748-0.029l5.323,0.005c0.002-0.386,0.006-0.771,0.01-1.157c0.013-1.35,0.026-2.745-0.022-4.107    c-0.098-2.645-0.214-5.289-0.33-7.933c-0.109-2.502-0.219-5.005-0.313-7.508c-0.018-0.494,0.105-0.961,0.215-1.374    c0.026-0.101,0.053-0.201,0.077-0.302l-1.218-0.877c-5.57,2.851-6.657,2.943-8.899-1.162l-3.957-2.026l-3.121,1.368L5.007,17.598z    "/></g><g><path d="M3.921,16.873c-0.146,0-0.293-0.042-0.422-0.131c-2.226-1.521-3.401-3.187-3.493-4.95    c-0.088-1.667,0.795-3.299,2.623-4.853c0.223-0.189,0.538-0.232,0.802-0.108l1.983,0.925c0.059-0.072,0.133-0.134,0.219-0.182    l5.003-2.744c0.114-0.063,0.251-0.08,0.37-0.092l2.654-3.524c0.221-0.292,0.621-0.383,0.942-0.216l3.181,1.638    c0.185-0.11,0.361-0.218,0.531-0.323c0.6-0.367,1.166-0.714,1.784-0.963c0.313-0.126,0.646-0.286,0.983-0.447    c1.21-0.579,2.459-1.178,3.525-0.768c1.926,0.743,2.911,2.792,2.573,5.348c-0.088,0.677-0.067,1.401-0.044,2.239    c0.004,0.127,0.007,0.256,0.011,0.388l2.981-0.935c0.266-0.083,0.553-0.013,0.751,0.181c2.901,2.857,1.7,5.822,0.544,7.804    c-0.208,0.357-0.667,0.479-1.025,0.27c-0.357-0.209-0.479-0.668-0.27-1.026c1.381-2.368,1.391-4.086,0.003-5.658l-3.495,1.096    c-0.231,0.072-0.476,0.03-0.669-0.111c-0.192-0.141-0.306-0.366-0.306-0.604c0-0.49-0.013-0.94-0.024-1.362    c-0.025-0.902-0.048-1.681,0.056-2.477c0.19-1.438-0.137-3.178-1.625-3.752c-0.455-0.175-1.546,0.342-2.339,0.721    C21.362,2.432,21,2.604,20.66,2.741c-0.503,0.203-0.994,0.503-1.562,0.852c-0.287,0.176-0.59,0.361-0.919,0.55    c-0.221,0.126-0.492,0.132-0.717,0.016l-2.984-1.537l-2.795,3.711c-0.176,0.233-0.472,0.345-0.758,0.282    c-0.088-0.019-0.17-0.053-0.242-0.099L6.866,8.609L6.903,8.75c0.074,0.281-0.021,0.58-0.245,0.767    C6.435,9.702,6.121,9.743,5.86,9.62L3.243,8.399c-1.211,1.127-1.796,2.24-1.74,3.314c0.067,1.271,1.023,2.546,2.842,3.79    c0.343,0.234,0.43,0.7,0.196,1.042C4.396,16.759,4.16,16.873,3.921,16.873z"/></g><g><path d="M30.71,34.331c-0.269,0-0.537,0-0.807,0l-0.806-0.001c-0.414,0-0.75-0.336-0.75-0.75s0.336-0.75,0.75-0.75l0.808,0.001    c0.739,0,1.474,0.001,2.209-0.004c3.193-0.017,4.055-0.699,4.189-3.321c0.195-3.762-0.203-7.636-0.666-11.605    c-0.056-0.476-1.029-1.483-1.669-1.607c-1.211-0.233-2.487-0.184-3.837-0.134c-0.57,0.021-1.14,0.043-1.706,0.043    c-0.414,0-0.75-0.336-0.75-0.75s0.336-0.75,0.75-0.75c0.547,0,1.099-0.021,1.649-0.042c1.376-0.053,2.798-0.106,4.179,0.16    c1.145,0.222,2.726,1.635,2.874,2.906c0.47,4.036,0.875,7.979,0.674,11.857c-0.202,3.926-2.323,4.726-5.679,4.743    C31.652,34.33,31.181,34.331,30.71,34.331z"/></g><g><path d="M22.853,37.326c-0.065,0-0.132-0.009-0.197-0.026l-0.795-0.213c-0.253-0.068-0.452-0.263-0.525-0.514    c-0.102-0.347-0.228-0.691-0.354-1.037c-0.303-0.831-0.614-1.689-0.644-2.606c-0.123-3.953-0.118-7.921,0.014-11.795    c0.027-0.774,0.506-1.438,0.928-2.024c0.161-0.225,0.324-0.448,0.453-0.674c0.168-0.294,0.503-0.432,0.819-0.359    c0.291-0.067,0.597,0.042,0.778,0.294c0.16,0.225,0.364,0.448,0.566,0.671c0.537,0.594,1.146,1.268,1.176,2.089    c0.153,4.22,0.155,8.641,0.007,13.14c-0.028,0.801-0.587,1.466-1.079,2.053c-0.187,0.222-0.374,0.442-0.522,0.666    C23.336,37.204,23.1,37.326,22.853,37.326z M22.599,19.844c-0.033,0.048-0.068,0.095-0.103,0.143    c-0.312,0.433-0.634,0.881-0.645,1.199c-0.132,3.841-0.137,7.776-0.014,11.697c0.021,0.677,0.279,1.388,0.553,2.14    c0.076,0.208,0.151,0.416,0.223,0.625c0.078-0.096,0.157-0.191,0.238-0.287c0.319-0.381,0.718-0.855,0.728-1.139    c0.148-4.463,0.146-8.849-0.005-13.033c-0.011-0.276-0.443-0.754-0.791-1.139C22.722,19.981,22.66,19.913,22.599,19.844z"/></g><g><path d="M15.541,36.537c-0.313,0-0.602-0.194-0.711-0.487c-0.12-0.319-0.27-0.638-0.417-0.957    c-0.367-0.786-0.746-1.601-0.779-2.494c-0.139-3.654-0.137-7.511,0.004-11.465c0.03-0.774,0.508-1.438,0.93-2.024    c0.161-0.224,0.323-0.447,0.452-0.673c0.168-0.294,0.502-0.431,0.819-0.359c0.057-0.013,0.118-0.013,0.176-0.019    c0.813,0.009,1.411,0.223,1.827,0.655c0.637,0.659,0.615,1.571,0.597,2.376c-0.003,0.135-0.006,0.27-0.006,0.402    c0.002,0.924,0.009,1.848,0.017,2.772c0.021,2.621,0.042,5.332-0.069,8c-0.038,0.951-0.395,1.834-0.739,2.688    c-0.143,0.353-0.285,0.705-0.401,1.06c-0.101,0.307-0.386,0.515-0.708,0.517l-0.983,0.008    C15.545,36.537,15.543,36.537,15.541,36.537z M16.083,19.561c-0.096,0.142-0.196,0.283-0.298,0.424    c-0.313,0.434-0.636,0.883-0.648,1.203c-0.14,3.916-0.141,7.736-0.005,11.354c0.022,0.592,0.323,1.235,0.641,1.918    c0.082,0.176,0.163,0.352,0.241,0.527c0.076-0.199,0.155-0.397,0.235-0.596c0.311-0.77,0.604-1.497,0.633-2.188    c0.109-2.633,0.088-5.324,0.067-7.927c-0.008-0.927-0.015-1.854-0.017-2.78c0-0.145,0.003-0.292,0.007-0.44    c0.012-0.512,0.024-1.092-0.176-1.299C16.654,19.643,16.414,19.575,16.083,19.561z"/></g><g><path d="M9.707,37.508c-0.217,0-0.43-0.095-0.575-0.27c-0.203-0.242-0.454-0.479-0.703-0.716    c-0.678-0.646-1.379-1.313-1.473-2.204c-0.301-2.817-0.441-5.691-0.577-8.47c-0.06-1.213-0.119-2.426-0.191-3.638    c-0.067-1.157-0.194-3.311,2.195-4.112c0.136-0.046,0.275-0.05,0.406-0.02c0.103-0.023,0.213-0.026,0.319-0.003    c2.643,0.545,2.627,2.855,2.618,4.096c-0.009,1.379-0.006,2.76-0.003,4.14c0.004,1.754,0.007,3.509-0.013,5.262    c-0.012,1.085-0.079,2.179-0.144,3.237c-0.03,0.504-0.061,1.008-0.086,1.512c-0.014,0.278-0.181,0.526-0.434,0.644l-1.026,0.473    C9.92,37.485,9.813,37.508,9.707,37.508z M8.797,19.542c-0.958,0.341-1.208,0.935-1.111,2.58c0.072,1.216,0.132,2.435,0.191,3.653    c0.135,2.758,0.274,5.61,0.571,8.385c0.036,0.344,0.556,0.839,1.015,1.275c0.142,0.135,0.285,0.272,0.425,0.413l0.119-0.055    c0.021-0.358,0.042-0.717,0.063-1.075c0.063-1.039,0.129-2.114,0.141-3.163c0.02-1.746,0.016-3.494,0.013-5.242    c-0.003-1.385-0.006-2.769,0.003-4.153c0.012-1.637-0.184-2.362-1.421-2.617C8.803,19.543,8.8,19.542,8.797,19.542z"/></g></g></svg>