<?xml version="1.0" ?><svg enable-background="new 0 0 24 24" id="Layer_1" version="1.1" viewBox="0 0 24 24" xml:space="preserve" xmlns="http://www.w3.org/2000/svg" xmlns:xlink="http://www.w3.org/1999/xlink"><g><g><path d="    M3.7608643,17.0674572c0.3864746,0.2296143,0.7982788,0.4440918,1.5668335,0.4440918c1.6657104,0,1.6657104-1,3.3314209-1    c1.6659546,0,1.6659546,1,3.3319092,1c1.6663818,0,1.6663818-1,3.3327637-1c1.6690063,0,1.6690063,1,3.3380737,1    c0.7752075,0,1.1886597-0.2167969,1.5782471-0.4478149" fill="none" stroke="#303C42" stroke-linecap="round" stroke-linejoin="round" stroke-miterlimit="10"/><path d="    M18.3192139,6.5390158c-1.3076782,0.1351929-1.4455566,0.9725342-2.9783325,0.9725342c-1.6659546,0-1.6659546-1-3.3319092-1    c-1.6663818,0-1.6663818,1-3.3327637,1c-1.539856,0-1.6749268-0.8416138-2.9949951-0.9733887" fill="none" stroke="#303C42" stroke-linecap="round" stroke-linejoin="round" stroke-miterlimit="10"/></g><circle cx="6" cy="12.0115499" fill="none" r="0.5" stroke="#303C42" stroke-linecap="round" stroke-linejoin="round" stroke-miterlimit="10"/><circle cx="12" cy="12.0115499" fill="none" r="0.5" stroke="#303C42" stroke-linecap="round" stroke-linejoin="round" stroke-miterlimit="10"/><circle cx="18" cy="12.0115499" fill="none" r="0.5" stroke="#303C42" stroke-linecap="round" stroke-linejoin="round" stroke-miterlimit="10"/><g><path d="M3.5,15.0042667    C3.5,10.0067759,7.3192191,0.5,12,0.5s8.5,9.5067759,8.5,14.5042667C20.5,19.696331,16.6944199,23.5,12,23.5    S3.5,19.696331,3.5,15.0042667z" fill="none" stroke="#303C42" stroke-linecap="round" stroke-linejoin="round" stroke-miterlimit="10"/></g><g><path d="M3.5,15.0042667    C3.5,10.0067759,7.3192191,0.5,12,0.5s8.5,9.5067759,8.5,14.5042667C20.5,19.696331,16.6944199,23.5,12,23.5    S3.5,19.696331,3.5,15.0042667z" fill="none" stroke="#303C42" stroke-linecap="round" stroke-linejoin="round" stroke-miterlimit="10"/></g></g><g/><g/><g/><g/><g/><g/><g/><g/><g/><g/><g/><g/><g/><g/><g/></svg>