<?xml version="1.0" ?><svg enable-background="new 0 0 24 24" id="Layer_1" version="1.1" viewBox="0 0 24 24" xml:space="preserve" xmlns="http://www.w3.org/2000/svg" xmlns:xlink="http://www.w3.org/1999/xlink"><g><g><polyline fill="none" points="    4.5081177,9.4988346 7,8.5042667 8,9.5037031 12.5,5.5042663 16,10.0042992 19.4949951,9.5092716   " stroke="#303C42" stroke-linecap="round" stroke-linejoin="round" stroke-miterlimit="10"/><polyline fill="none" points="    20.2841187,12.7201481 17.5,15.5042667 13.5,12.5042667 8.5,15.5042667 7,12.5042667 3.5385132,14.1452579   " stroke="#303C42" stroke-linecap="round" stroke-linejoin="round" stroke-miterlimit="10"/></g><ellipse cx="10.5" cy="9.2542667" fill="#303C42" rx="0.5" ry="0.75"/><ellipse cx="13.5" cy="9.2542667" fill="#303C42" rx="0.5" ry="0.75"/><polyline fill="none" points="   11.5,11.0042667 12,11.5042667 12.5,11.0042667  " stroke="#303C42" stroke-linecap="round" stroke-linejoin="round" stroke-miterlimit="10"/><g><path d="M3.5,15.0042667    C3.5,10.0067759,7.3192191,0.5,12,0.5s8.5,9.5067759,8.5,14.5042667C20.5,19.696331,16.6944199,23.5,12,23.5    S3.5,19.696331,3.5,15.0042667z" fill="none" stroke="#303C42" stroke-linecap="round" stroke-linejoin="round" stroke-miterlimit="10"/></g></g><g/><g/><g/><g/><g/><g/><g/><g/><g/><g/><g/><g/><g/><g/><g/></svg>