<?xml version="1.0" ?><svg enable-background="new 0 0 24 24" id="Layer_1" version="1.1" viewBox="0 0 24 24" xml:space="preserve" xmlns="http://www.w3.org/2000/svg" xmlns:xlink="http://www.w3.org/1999/xlink"><g><path d="M1.5,12.4999981   c0,3.4972124,1.2288601,5.3615799,3.2170248,7.518692c0.2825565,0.3065681,0.6875305,0.4813118,1.1044497,0.4813118h12.3570518   c0.4169178,0,0.8218918-0.1747437,1.1044483-0.4813118C21.2711391,17.861578,22.5,15.9972105,22.5,12.4999981" fill="none" stroke="#303C42" stroke-linecap="round" stroke-linejoin="round" stroke-miterlimit="10"/><path d="   M17.4101563,12.4999981C17.4630127,12.1685162,17.5,11.822691,17.5,11.4444561c0-3.5899048-2.4624634-7.944458-5.5-7.944458   s-5.5,4.3545532-5.5,7.944458c0,0.3782349,0.0369873,0.7240601,0.0898438,1.055542" fill="none" stroke="#303C42" stroke-linecap="round" stroke-linejoin="round" stroke-miterlimit="10"/><path d="M8.192627,6.0100689   c-0.8651733-0.418335-1.7641602-0.5860596-2.6234741-0.3752441C3.1966553,6.216917,1.8613892,9.4447613,1.8728027,12.4999981" fill="none" stroke="#303C42" stroke-linecap="round" stroke-linejoin="round" stroke-miterlimit="10"/><path d="   M22.4198494,12.429554c0.40938-3.2475662-0.7822075-7.0548639-3.3277473-7.7994289   c-1.1901855-0.3481445-2.4902344,0.0346069-3.6829224,0.8352051" fill="none" stroke="#303C42" stroke-linecap="round" stroke-linejoin="round" stroke-miterlimit="10"/><line fill="none" stroke="#303C42" stroke-linecap="round" stroke-linejoin="round" stroke-miterlimit="10" x1="0.5" x2="23.5" y1="12.4999981" y2="12.4999981"/></g><g/><g/><g/><g/><g/><g/><g/><g/><g/><g/><g/><g/><g/><g/><g/></svg>