<?xml version="1.0" ?><svg enable-background="new 0 0 24 24" id="Layer_1" version="1.1" viewBox="0 0 24 24" xml:space="preserve" xmlns="http://www.w3.org/2000/svg" xmlns:xlink="http://www.w3.org/1999/xlink"><g><g id="XMLID_1313_"><path d="    M1.5,9.5V21c0,0.8284264,0.6715729,1.5,1.5,1.5h18c0.8284264,0,1.5-0.6715736,1.5-1.5V9.5" fill="none" id="XMLID_1317_" stroke="#303C42" stroke-linecap="round" stroke-linejoin="round" stroke-miterlimit="10"/><g id="XMLID_1314_"><path d="     M4.5,7.1573486C2.8200073,8.4769897,1.5,9.5,1.5,9.5c0.7285767,0.5621948,7.3294067,5.6911011,9.4718018,7.5879517     C11.2440186,17.3289185,11.5889282,17.5,11.9842529,17.5c0.3954468,0,0.7559814-0.1710205,1.0281982-0.4120483     C15.1549683,15.1912231,21.7714233,10.0621948,22.5,9.5c0,0-1.3200684-1.0229492-3-2.3425903" fill="none" id="XMLID_1315_" stroke="#303C42" stroke-linecap="round" stroke-linejoin="round" stroke-miterlimit="10"/></g></g><g id="XMLID_1311_"><path d="M19.5,11.8508301    V5.5l-4-4H6C5.1715727,1.5,4.5,2.1715729,4.5,3v8.8303223" fill="none" stroke="#303C42" stroke-linecap="round" stroke-linejoin="round" stroke-miterlimit="10"/></g><path d="M15.5,10   c0,2.485281-1.5670033,3.5-3.5,3.5S8.5,12.485281,8.5,10s1.5670033-5.5,3.5-5.5S15.5,7.5147185,15.5,10z" fill="none" stroke="#303C42" stroke-linecap="round" stroke-linejoin="round" stroke-miterlimit="10"/><path d="   M15.4960327,9.8960571C15.1682739,10.1757202,14.890686,10.5,14.2480469,10.5c-1.1259766,0-1.1259766-1-2.2519531-1   c-1.1241455,0-1.1241455,1-2.2483521,1c-0.6402588,0-0.9174805-0.3230591-1.2438354-0.602356" fill="none" stroke="#303C42" stroke-linecap="round" stroke-linejoin="round" stroke-miterlimit="10"/><path d="M15.5,1.5V4   c0,0.8284273,0.6715736,1.5,1.5,1.5h2.5" fill="none" stroke="#303C42" stroke-linecap="round" stroke-linejoin="round" stroke-miterlimit="10"/><line fill="none" stroke="#303C42" stroke-linecap="round" stroke-linejoin="round" stroke-miterlimit="10" x1="15.5" x2="19.5" y1="19.5" y2="19.5"/></g><g/><g/><g/><g/><g/><g/><g/><g/><g/><g/><g/><g/><g/><g/><g/></svg>