<?xml version="1.0" ?><svg enable-background="new 0 0 24 24" id="Layer_1" version="1.1" viewBox="0 0 24 24" xml:space="preserve" xmlns="http://www.w3.org/2000/svg" xmlns:xlink="http://www.w3.org/1999/xlink"><g><path d="M10.849678,10.5097656C11.0801468,10.2949219,11.3945999,10,11.9932327,10   s0.9140625,0.2944336,1.1435547,0.5092773C13.3281937,10.6879883,13.4043655,10.75,13.599678,10.75   c0.1491089,0,0.2399292-0.055481,0.3544312-0.1516113C13.7880325,9.0266724,12.8615189,7.5,11.9961624,7.5   c-0.866333,0-1.7930298,1.5274658-1.9581909,3.0994873C10.1513748,10.6949463,10.2418289,10.75,10.3897171,10.75   C10.5830765,10.75,10.6592484,10.6884766,10.849678,10.5097656z" fill="#303C42"/><path d="M23.0000687,10.7244873c-0.0042114-0.0820313-0.0305786-0.1619263-0.0739136-0.2332764   c-0.0053101-0.008728-0.0817871-0.1080933-0.1262817-0.1413574L21.0000687,9l-0.0002441-2.5   c0-0.1031494-0.0280762-0.2359619-0.1470947-0.354126l-4.9987793-4.9987793   c-0.0610352-0.0612183-0.1348877-0.1011963-0.2197266-0.1283569C15.6128006,1.0130005,15.5496292,1,15.4998245,1h-10.5   c-1.1030273,0-2,0.8969727-2,2l0.0002441,6L1.200264,10.3498535c-0.0444946,0.0332642-0.1209717,0.1326294-0.1262817,0.1413574   c-0.043335,0.0713501-0.0697021,0.1512451-0.0739136,0.2332764C0.9995804,10.7335205,0.9998245,21,0.9998245,21   c0,1.1030273,0.8969727,2,2,2h18c1.1030273,0,2-0.8969727,2-2C22.9998245,21,23.0005569,10.7335205,23.0000687,10.7244873z    M15.9998245,2.7070313L19.2927933,6h-2.2929688c-0.5512695,0-1-0.4487305-1-1V2.7070313z M9.0191727,10.8067627   C9.1220779,8.7354736,10.3726273,6.5,11.9961624,6.5c1.5991821,0,2.8341064,2.1708984,2.9690552,4.2155762   c0.0050049,0.0283813,0.0241089,0.0518188,0.0241089,0.0812988c0.000061,0.0371094-0.007019,0.0690308-0.0077515,0.1055908   c0.0009766,0.0292358,0.0072632,0.059082,0.0077515,0.0882568l-0.0142212,0.0002441   C14.9020462,12.8759155,13.7810135,14,11.9961624,14c-1.8082886,0-2.9393921-1.1517334-2.9870605-3.0076904l-0.0061035-0.0001221   c0.0001831-0.0122681,0.0029297-0.0248413,0.0032349-0.0371704c-0.0004883-0.02771-0.0061646-0.052002-0.0061646-0.0800171   C9.0000687,10.8518677,9.0160599,10.8302002,9.0191727,10.8067627z M19.5000687,20h-4c-0.2763672,0-0.5-0.2236328-0.5-0.5   s0.2236328-0.5,0.5-0.5h4c0.2763672,0,0.5,0.2236328,0.5,0.5S19.7764359,20,19.5000687,20z M12.681221,17.9631348   c-0.1206055,0.1069336-0.3720703,0.2866211-0.6967773,0.2866211c-0.2373047,0-0.4663086-0.0961914-0.6811523-0.2866211   c-1.9336548-1.7119141-7.303833-5.9040527-8.979248-7.206604l0.8383789-0.6287842   c0.0118408,0.0112915,0.0174561,0.0273438,0.0305176,0.0375366c1.8701172,1.4560547,6.4394531,5.0327148,8.4726563,6.7871094   c0.09375,0.0810547,0.2104492,0.121582,0.3266602,0.121582s0.2324219-0.0405273,0.3266602-0.1210938   c2.034668-1.7539063,6.6137695-5.3310547,8.487793-6.7875977c0.0131836-0.0101929,0.0187378-0.0264282,0.0307007-0.0377808   l0.8381958,0.6286621C19.9949417,12.0604858,14.6000443,16.2644653,12.681221,17.9631348z" fill="#303C42"/></g><g/><g/><g/><g/><g/><g/><g/><g/><g/><g/><g/><g/><g/><g/><g/></svg>