<?xml version="1.0" ?><svg enable-background="new 0 0 24 24" id="Layer_1" version="1.1" viewBox="0 0 24 24" xml:space="preserve" xmlns="http://www.w3.org/2000/svg" xmlns:xlink="http://www.w3.org/1999/xlink"><g><path d="M23.5,12h-23C0.2236328,12,0,12.2236328,0,12.5S0.2236328,13,0.5,13h0.5217285   c0.1105347,3.2290039,1.2627563,5.1182861,3.3278809,7.3579102C4.7265625,20.7661133,5.2626953,21,5.8212891,21h12.3574219   c0.5585938,0,1.0947266-0.2338867,1.4716797-0.6425781C21.7155151,18.1182861,22.8677368,16.2290039,22.9782715,13H23.5   c0.2763672,0,0.5-0.2236328,0.5-0.5S23.7763672,12,23.5,12z" fill="#303C42"/><path d="M18.9580078,10.5439453C18.9804688,10.8022461,19.1972656,11,19.4560547,11h3.0214844   c0.1376953,0,0.2695313-0.0571289,0.3642578-0.1572266c0.0947266-0.1005859,0.1435547-0.2358398,0.1347656-0.3735352   c-0.1972656-3.230957-1.6669922-5.7114258-3.7441406-6.3193359C18.5859375,3.9609375,17.890625,3.953125,17.1669922,4.125   c-0.1621094,0.0380859-0.2949219,0.1552734-0.3535156,0.3120117s-0.0341797,0.3320313,0.0634766,0.4672852   C18.0224609,6.487793,18.78125,8.543457,18.9580078,10.5439453z" fill="#303C42"/><path d="M6.1874924,10.8334961C6.2832031,10.9394531,6.4179688,11,6.5605469,11h10.8789063   c0.1425781,0,0.2773438-0.0605469,0.3730392-0.1665039c0.0947342-0.105957,0.1396561-0.2475586,0.1240311-0.3886719   C17.5361328,6.8496094,15.0546875,3,12,3s-5.5361328,3.8496094-5.9365234,7.4448242   C6.0478516,10.5859375,6.0927734,10.7275391,6.1874924,10.8334961z" fill="#303C42"/><path d="M2.0595703,11h2.5078125c0.2587891,0,0.4755859-0.1977539,0.4980469-0.4560547   C5.2109375,8.8896484,5.734375,7.2084961,6.5371094,5.8105469C6.6289063,5.6503906,6.625,5.4526367,6.5273438,5.2958984   c-0.0976563-0.15625-0.2753906-0.2456055-0.4589844-0.2329102C5.8613281,5.0776367,5.6542969,5.0991211,5.4501953,5.1489258   c-1.9003906,0.4663086-3.3515625,2.4321289-3.8818359,5.2587891c-0.0273438,0.1459961,0.0117188,0.296875,0.1064453,0.4116211   C1.7695313,10.9335938,1.9111328,11,2.0595703,11z" fill="#303C42"/></g><g/><g/><g/><g/><g/><g/><g/><g/><g/><g/><g/><g/><g/><g/><g/></svg>