<?xml version="1.0" ?><svg enable-background="new 0 0 24 24" id="Layer_1" version="1.1" viewBox="0 0 24 24" xml:space="preserve" xmlns="http://www.w3.org/2000/svg" xmlns:xlink="http://www.w3.org/1999/xlink"><g><path d="M23,9.496582c-0.0009766-0.15625-0.0751953-0.3027344-0.2001953-0.3964844L21,7.7502441V6.5   c0-0.1328125-0.0527344-0.2597656-0.1464844-0.3535156l-5-5C15.7597656,1.0527344,15.6328125,1,15.5,1H5   C3.8969727,1,3,1.8969727,3,3v4.7502441L1.2001953,9.1000977C1.0751953,9.1938477,1.0009766,9.340332,1,9.496582   C1,9.4978027,1.0007935,9.4987793,1.0007935,9.5H1V21c0,1.1030273,0.8969727,2,2,2h18c1.1030273,0,2-0.8969727,2-2V9.5h-0.0007935   C22.9992065,9.4987793,23,9.4978027,23,9.496582z" fill="#303C42"/><path d="M21.675293,9.5063477C21.4923096,9.6483765,21.2595825,9.8293457,21,10.0314941V8.9998169   L21.675293,9.5063477z" fill="#FFA726"/><path d="M16,2.7070312L19.2929688,6H17c-0.5512695,0-1-0.4487305-1-1V2.7070312z" fill="#FFE082"/><path d="M5,2h10v3c0,1.1030273,0.8969727,2,2,2h3v3.8117676   c-2.3214111,1.8151855-5.8462524,4.5982056-7.3188477,5.9016113C12.5605469,16.8203125,12.309082,17,11.984375,17   c-0.2373047,0-0.4663086-0.0961914-0.6811523-0.2866211C9.8207397,15.4006958,6.3129883,12.6265259,4,10.8148804V3   C4,2.4487305,4.4487305,2,5,2z" fill="#FFECB3"/><path d="M3,8.9998779v1.0333252C2.7401123,9.8305054,2.5073242,9.649231,2.3242188,9.5068359L3,8.9998779z" fill="#FFA726"/><path d="M21,22H3c-0.5512695,0-1-0.4487305-1-1V10.520874   c2.0854492,1.623291,6.9103394,5.4091797,8.6401367,6.9415283C11.0375977,17.8139648,11.5024414,18,11.984375,18   c0.4853516,0,0.9682617-0.190918,1.3598633-0.5375977C15.1419067,15.8705444,20.0624943,12.0264282,22,10.5205688V21   C22,21.5512695,21.5512695,22,21,22z" fill="#FFCA28"/><linearGradient gradientUnits="userSpaceOnUse" id="SVGID_1_" x1="7.0002594" x2="22.4465485" y1="5.5207977" y2="20.9670868"><stop offset="0" style="stop-color:#000000;stop-opacity:0.1"/><stop offset="1" style="stop-color:#000000;stop-opacity:0"/></linearGradient><path d="M21.0001831,22c0.5512695,0,1-0.4487305,1-1V10.5205688   c-1.9375,1.5058594-6.8580933,5.3499756-8.6557617,6.9418335C12.9528198,17.809082,12.4699097,18,11.9845581,18   c-0.4819336,0-0.9467773-0.1860352-1.3442383-0.5375977c-1.7297974-1.5323486-6.5546875-5.3182373-8.6401367-6.9415283   L13.4793091,22H21.0001831z" fill="url(#SVGID_1_)"/><linearGradient gradientUnits="userSpaceOnUse" id="SVGID_2_" x1="16.5779724" x2="20.9506531" y1="5.4884338" y2="9.8611145"><stop offset="0" style="stop-color:#000000;stop-opacity:0.1"/><stop offset="1" style="stop-color:#000000;stop-opacity:0"/></linearGradient><path d="M15.6227417,6.4436646l4.3721313,4.3721313   C19.996521,10.8145142,19.9983521,10.8130493,20,10.8117676V7h-3C16.4653931,7,15.9818726,6.786377,15.6227417,6.4436646z" fill="url(#SVGID_2_)"/><path d="M12,4c-2.2529297,0-4,3.2255859-4,6c0,2.5048828,1.4951172,4,4,4s4-1.4951172,4-4   C16,7.2255859,14.2529297,4,12,4z" fill="#303C42"/><path d="M12,5c1.5106201,0,2.8601685,2.5310059,2.9874268,4.6754761   C14.7650757,9.8708496,14.5922241,10,14.2480469,10C13.875,10,13.7075195,9.8510742,13.4541016,9.6259766   C13.1567383,9.3618164,12.7490234,9,11.9960938,9c-0.7519531,0-1.1591797,0.3618164-1.4560547,0.6264648   C10.2866211,9.8515625,10.1196289,10,9.7475586,10c-0.342041,0-0.5139771-0.128479-0.7350464-0.3227539   C9.1390991,7.5324707,10.4889526,5,12,5z" fill="#FAFAFA"/><path d="M12,13c-0.9807129,0-2.5425415-0.298645-2.9171753-2.1229858   C9.272522,10.9465332,9.4828491,11,9.7475586,11c0.7524414,0,1.159668-0.3623047,1.4570312-0.6264648   C11.4575195,10.1484375,11.6245117,10,11.9960938,10c0.3730469,0,0.5405273,0.1489258,0.7939453,0.3740234   C13.0874023,10.6381836,13.4951172,11,14.2480469,11c0.2667236,0,0.4784546-0.0540771,0.6692505-0.1243286   C14.5431519,12.7010498,12.980957,13,12,13z" fill="#D32F2F"/><path d="M14.3812866,9.9865112c0.2556152-0.0308838,0.4160767-0.144043,0.6061401-0.3110352   c-0.0623169-1.0505981-0.4191895-2.1923218-0.9434814-3.0853882C14.3267822,7.3346558,14.5,8.1688232,14.5,9   C14.5,9.3646851,14.4522095,9.6864014,14.3812866,9.9865112z" opacity="0.1"/><path d="M13.9489136,10.9639893C13.4549561,11.6403198,12.6384277,12,11.5,12   c-1.0658569,0-1.8485107-0.3164673-2.350647-0.9105835C9.6027832,12.7111206,11.0616455,13,12,13   c0.980957,0,2.5431519-0.2989502,2.9172974-2.1243286C14.7265015,10.9459229,14.5147705,11,14.2480469,11   C14.1362305,11,14.0462646,10.9784546,13.9489136,10.9639893z" opacity="0.1"/><linearGradient gradientUnits="userSpaceOnUse" id="SVGID_3_" x1="0.4695985" x2="24.1314735" y1="7.9831495" y2="19.0168629"><stop offset="0" style="stop-color:#FFFFFF;stop-opacity:0.2"/><stop offset="1" style="stop-color:#FFFFFF;stop-opacity:0"/></linearGradient><path d="M23,9.496582c-0.0009766-0.15625-0.0751953-0.3027344-0.2001953-0.3964844L21,7.7502441V6.5   c0-0.1328125-0.0527344-0.2597656-0.1464844-0.3535156l-5-5C15.7597656,1.0527344,15.6328125,1,15.5,1H5   C3.8969727,1,3,1.8969727,3,3v4.7502441L1.2001953,9.1000977C1.0751953,9.1938477,1.0009766,9.340332,1,9.496582   C1,9.4978027,1.0007935,9.4987793,1.0007935,9.5H1V21c0,1.1030273,0.8969727,2,2,2h18c1.1030273,0,2-0.8969727,2-2V9.5h-0.0007935   C22.9992065,9.4987793,23,9.4978027,23,9.496582z" fill="url(#SVGID_3_)"/></g><g/><g/><g/><g/><g/><g/><g/><g/><g/><g/><g/><g/><g/><g/><g/></svg>