<?xml version="1.0" ?><svg enable-background="new 0 0 24 24" id="Layer_1" version="1.1" viewBox="0 0 24 24" xml:space="preserve" xmlns="http://www.w3.org/2000/svg" xmlns:xlink="http://www.w3.org/1999/xlink"><g><path d="M18.9082031,13.4733305c-0.0461426,0.0141592-0.2408447,0.0748854-0.4940186,0.1693001   c1.2120972-2.2196455,2.2283325-4.604991,2.5809326-7.070714c0.0390625-0.2734203-0.1513672-0.5268221-0.4248047-0.5658822   c-0.2714844-0.041501-0.5253906,0.1503811-0.5654297,0.4242897c-0.0227661,0.1592302-0.0679932,0.3166909-0.0965576,0.4755554   c-0.1000977-0.2025628-0.1812134-0.3492818-0.2022705-0.386694c-0.1044922-0.1835823-0.3076172-0.2836733-0.5195312-0.2475429   c-0.2070312,0.0351539-0.3710938,0.1972528-0.4082031,0.4042711c-0.0214844,0.1205974-0.2080078,1.1967006-0.0820312,1.9417696   v0.0004883c0.0379028,0.2184315,0.1307373,0.7506847,0.4853516,0.9935894   c-1.1312256,3.1052084-3.0775757,6.0437412-4.7236328,8.5272865c-0.6546021,0.9868755-1.2548218,1.9014893-1.7577515,2.7476254   c0.307373-2.3911419,0.9411011-5.2038288,1.6434326-8.0131578c0.017395,0.0012817,0.0355835,0.0104971,0.0527954,0.0104971   c0.4394531,0,0.8134766-0.4111061,0.9648438-0.5775995c0.5097656-0.5590467,0.9345703-1.5653296,0.9814453-1.6781149   c0.0810547-0.1948118,0.0302734-0.4189186-0.125-0.5609999c-0.1572266-0.1420803-0.3857422-0.1703987-0.5703125-0.0722609   c-0.0560303,0.0295391-0.3406982,0.182972-0.6721802,0.4003038c0.0789795-0.3054609,0.1585083-0.614768,0.2366333-0.9158955   c0.8496094-3.2771344,1.5830078-6.1075196,1.7851562-7.922833c0.0302734-0.2743965-0.1669922-0.521451-0.4414062-0.5522107   c-0.2832031-0.031248-0.5224609,0.1669815-0.5527344,0.4418662c-0.0574341,0.5177891-0.1692505,1.1499507-0.3129883,1.8507116   c-0.1144409-0.2362518-0.2097168-0.4081769-0.2329102-0.449434c-0.1035156-0.1835821-0.3085938-0.2841616-0.5195417-0.2475429   c-0.2079973,0.0356424-0.3710833,0.197253-0.4081926,0.4047594c-0.0214844,0.1201096-0.2070312,1.1962125-0.0810547,1.941282   c0.0712891,0.4213595,0.1757812,0.6894088,0.3388672,0.8685966c0.0640869,0.0703692,0.1628418,0.1349401,0.2817993,0.1840701   c-0.253418,1.0237994-0.5357056,2.1143665-0.8247681,3.2297735c-0.725647,2.7982836-1.4973145,5.798152-2.0396118,8.5521879   c-0.4832764-5.0700493-1.465271-10.0290833-2.2198486-13.3509521c0.0136719-0.0062861,0.0311279-0.0107412,0.0436401-0.017333   c0.2148438-0.1118093,0.4052734-0.3271275,0.6171875-0.6981974c0.3759766-0.656208,0.5722656-1.7303579,0.59375-1.8504674   c0.0371094-0.2075062-0.0605469-0.4159889-0.2441406-0.5209627c-0.1826267-0.1049738-0.4121094-0.0834907-0.5722656,0.0532192   c-0.0687866,0.0586511-0.5406494,0.4663398-0.9331665,0.9403085c-0.2995605-1.2159866-0.5-1.9400003-0.5082397-1.9695394   c-0.0742188-0.265608-0.3505859-0.4252658-0.6162109-0.3466575c-0.265625,0.074214-0.4208984,0.3505635-0.3466797,0.6161715   c0.0176392,0.0624959,0.8946533,3.2254405,1.763916,7.6637554c-0.0095825-0.0092163-0.0244141-0.0236197-0.029541-0.0285015   C9.6005859,8.1260157,9.3730469,8.093792,9.1845703,8.1875353c-0.1884766,0.0947208-0.296875,0.2973442-0.2714844,0.5068035   C8.9277344,8.8154249,9.0654297,9.8993397,9.40625,10.5745897c0.1138916,0.226243,0.4165649,0.8244715,0.9418335,0.8386917   c0.5195312,3.1003265,0.9586182,6.5452356,1.1015015,9.8826075c-0.5567017-0.8397293-1.2650757-1.7243767-2.0316162-2.6803093   c-1.2502441-1.5581894-2.6682129-3.3460388-3.7619019-5.3825903C5.6746826,13.2166328,5.703064,13.203145,5.71875,13.1867275   c0.1669922-0.1747932,0.2783203-0.440402,0.359375-0.8593206c0.1455078-0.7421398-0.0136719-1.8226366-0.0322266-1.9432344   c-0.0322266-0.2084827-0.1914062-0.3739996-0.3984375-0.4145241c-0.209971-0.0424776-0.4169922,0.0541954-0.5253906,0.2343597   c-0.0372314,0.0624962-0.2481079,0.4233742-0.4432983,0.8601742c-0.3061523-0.840888-0.5521851-1.7137575-0.6836548-2.6339865   c-0.0400391-0.2734203-0.296875-0.4638376-0.5654297-0.4242887C3.15625,8.0449667,2.9658203,8.2983685,3.0048828,8.5717888   c0.3673706,2.5702085,1.4572754,4.8010225,2.7363281,6.7697077c-0.1590576-0.0509605-0.2780762-0.0849552-0.3125-0.0943546   c-0.2050781-0.0541954-0.4208984,0.02246-0.5410156,0.1953001c-0.1210938,0.1723528-0.1210938,0.402318,0,0.5746708   c0.0703125,0.1000919,0.7050781,0.9891949,1.3222656,1.4237366c0.3505859,0.2455902,0.6142578,0.3598404,0.8564453,0.3705826   c0.0107422,0.0004883,0.0224609,0.0004883,0.0351562,0.0004883c0.0940552,0,0.2410278-0.001709,0.3721313-0.0461407   c0.3947144,0.5095501,0.7874756,1.0060387,1.1640015,1.4752483c1.3544922,1.6883678,2.5244141,3.1462822,2.8818359,4.3962021   C11.5810547,23.8520603,11.7763672,24,12,24s0.4189453-0.1479397,0.4804688-0.3627701   c0.3544922-1.2406425,1.4931641-2.957819,2.8105469-4.9459724c0.5535278-0.8350296,1.1403198-1.721386,1.7200928-2.6480236   c0.0541382,0.0119629,0.1080322,0.0217266,0.1539307,0.0285625c0.0390625,0.0058594,0.078125,0.0087891,0.1181641,0.0087891   c0.2558594,0,0.5332031-0.1230392,0.8994141-0.3940182c0.6074219-0.4501667,1.21875-1.355382,1.2861328-1.4574261   c0.1171875-0.1752815,0.1113281-0.4052477-0.0146484-0.5746708C19.3291016,13.4850483,19.1113281,13.4122992,18.9082031,13.4733305   z" fill="#303C42"/><linearGradient gradientUnits="userSpaceOnUse" id="SVGID_1_" x1="3.4348743" x2="19.2040157" y1="7.4574189" y2="14.8106899"><stop offset="0" style="stop-color:#FFFFFF;stop-opacity:0.2"/><stop offset="1" style="stop-color:#FFFFFF;stop-opacity:0"/></linearGradient><path d="M18.9082031,13.4733305c-0.0461426,0.0141592-0.2408447,0.0748854-0.4940186,0.1693001   c1.2120972-2.2196455,2.2283325-4.604991,2.5809326-7.070714c0.0390625-0.2734203-0.1513672-0.5268221-0.4248047-0.5658822   c-0.2714844-0.041501-0.5253906,0.1503811-0.5654297,0.4242897c-0.0227661,0.1592302-0.0679932,0.3166909-0.0965576,0.4755554   c-0.1000977-0.2025628-0.1812134-0.3492818-0.2022705-0.386694c-0.1044922-0.1835823-0.3076172-0.2836733-0.5195312-0.2475429   c-0.2070312,0.0351539-0.3710938,0.1972528-0.4082031,0.4042711c-0.0214844,0.1205974-0.2080078,1.1967006-0.0820312,1.9417696   v0.0004883c0.0379028,0.2184315,0.1307373,0.7506847,0.4853516,0.9935894   c-1.1312256,3.1052084-3.0775757,6.0437412-4.7236328,8.5272865c-0.6546021,0.9868755-1.2548218,1.9014893-1.7577515,2.7476254   c0.307373-2.3911419,0.9411011-5.2038288,1.6434326-8.0131578c0.017395,0.0012817,0.0355835,0.0104971,0.0527954,0.0104971   c0.4394531,0,0.8134766-0.4111061,0.9648438-0.5775995c0.5097656-0.5590467,0.9345703-1.5653296,0.9814453-1.6781149   c0.0810547-0.1948118,0.0302734-0.4189186-0.125-0.5609999c-0.1572266-0.1420803-0.3857422-0.1703987-0.5703125-0.0722609   c-0.0560303,0.0295391-0.3406982,0.182972-0.6721802,0.4003038c0.0789795-0.3054609,0.1585083-0.614768,0.2366333-0.9158955   c0.8496094-3.2771344,1.5830078-6.1075196,1.7851562-7.922833c0.0302734-0.2743965-0.1669922-0.521451-0.4414062-0.5522107   c-0.2832031-0.031248-0.5224609,0.1669815-0.5527344,0.4418662c-0.0574341,0.5177891-0.1692505,1.1499507-0.3129883,1.8507116   c-0.1144409-0.2362518-0.2097168-0.4081769-0.2329102-0.449434c-0.1035156-0.1835821-0.3085938-0.2841616-0.5195417-0.2475429   c-0.2079973,0.0356424-0.3710833,0.197253-0.4081926,0.4047594c-0.0214844,0.1201096-0.2070312,1.1962125-0.0810547,1.941282   c0.0712891,0.4213595,0.1757812,0.6894088,0.3388672,0.8685966c0.0640869,0.0703692,0.1628418,0.1349401,0.2817993,0.1840701   c-0.253418,1.0237994-0.5357056,2.1143665-0.8247681,3.2297735c-0.725647,2.7982836-1.4973145,5.798152-2.0396118,8.5521879   c-0.4832764-5.0700493-1.465271-10.0290833-2.2198486-13.3509521c0.0136719-0.0062861,0.0311279-0.0107412,0.0436401-0.017333   c0.2148438-0.1118093,0.4052734-0.3271275,0.6171875-0.6981974c0.3759766-0.656208,0.5722656-1.7303579,0.59375-1.8504674   c0.0371094-0.2075062-0.0605469-0.4159889-0.2441406-0.5209627c-0.1826267-0.1049738-0.4121094-0.0834907-0.5722656,0.0532192   c-0.0687866,0.0586511-0.5406494,0.4663398-0.9331665,0.9403085c-0.2995605-1.2159866-0.5-1.9400003-0.5082397-1.9695394   c-0.0742188-0.265608-0.3505859-0.4252658-0.6162109-0.3466575c-0.265625,0.074214-0.4208984,0.3505635-0.3466797,0.6161715   c0.0176392,0.0624959,0.8946533,3.2254405,1.763916,7.6637554c-0.0095825-0.0092163-0.0244141-0.0236197-0.029541-0.0285015   C9.6005859,8.1260157,9.3730469,8.093792,9.1845703,8.1875353c-0.1884766,0.0947208-0.296875,0.2973442-0.2714844,0.5068035   C8.9277344,8.8154249,9.0654297,9.8993397,9.40625,10.5745897c0.1138916,0.226243,0.4165649,0.8244715,0.9418335,0.8386917   c0.5195312,3.1003265,0.9586182,6.5452356,1.1015015,9.8826075c-0.5567017-0.8397293-1.2650757-1.7243767-2.0316162-2.6803093   c-1.2502441-1.5581894-2.6682129-3.3460388-3.7619019-5.3825903C5.6746826,13.2166328,5.703064,13.203145,5.71875,13.1867275   c0.1669922-0.1747932,0.2783203-0.440402,0.359375-0.8593206c0.1455078-0.7421398-0.0136719-1.8226366-0.0322266-1.9432344   c-0.0322266-0.2084827-0.1914062-0.3739996-0.3984375-0.4145241c-0.209971-0.0424776-0.4169922,0.0541954-0.5253906,0.2343597   c-0.0372314,0.0624962-0.2481079,0.4233742-0.4432983,0.8601742c-0.3061523-0.840888-0.5521851-1.7137575-0.6836548-2.6339865   c-0.0400391-0.2734203-0.296875-0.4638376-0.5654297-0.4242887C3.15625,8.0449667,2.9658203,8.2983685,3.0048828,8.5717888   c0.3673706,2.5702085,1.4572754,4.8010225,2.7363281,6.7697077c-0.1590576-0.0509605-0.2780762-0.0849552-0.3125-0.0943546   c-0.2050781-0.0541954-0.4208984,0.02246-0.5410156,0.1953001c-0.1210938,0.1723528-0.1210938,0.402318,0,0.5746708   c0.0703125,0.1000919,0.7050781,0.9891949,1.3222656,1.4237366c0.3505859,0.2455902,0.6142578,0.3598404,0.8564453,0.3705826   c0.0107422,0.0004883,0.0224609,0.0004883,0.0351562,0.0004883c0.0940552,0,0.2410278-0.001709,0.3721313-0.0461407   c0.3947144,0.5095501,0.7874756,1.0060387,1.1640015,1.4752483c1.3544922,1.6883678,2.5244141,3.1462822,2.8818359,4.3962021   C11.5810547,23.8520603,11.7763672,24,12,24s0.4189453-0.1479397,0.4804688-0.3627701   c0.3544922-1.2406425,1.4931641-2.957819,2.8105469-4.9459724c0.5535278-0.8350296,1.1403198-1.721386,1.7200928-2.6480236   c0.0541382,0.0119629,0.1080322,0.0217266,0.1539307,0.0285625c0.0390625,0.0058594,0.078125,0.0087891,0.1181641,0.0087891   c0.2558594,0,0.5332031-0.1230392,0.8994141-0.3940182c0.6074219-0.4501667,1.21875-1.355382,1.2861328-1.4574261   c0.1171875-0.1752815,0.1113281-0.4052477-0.0146484-0.5746708C19.3291016,13.4850483,19.1113281,13.4122992,18.9082031,13.4733305   z" fill="url(#SVGID_1_)"/></g><g/><g/><g/><g/><g/><g/><g/><g/><g/><g/><g/><g/><g/><g/><g/></svg>