<?xml version="1.0" ?><svg enable-background="new 0 0 24 24" id="Layer_1" version="1.1" viewBox="0 0 24 24" xml:space="preserve" xmlns="http://www.w3.org/2000/svg" xmlns:xlink="http://www.w3.org/1999/xlink"><g><path d="M23.7478504,17.0660896c-1.0820312-0.6186523-2.0996094-2.0175781-3.2773438-3.6376953   c-0.3388672-0.4648438-0.6875-0.9453125-1.0546875-1.4282227c0.3671875-0.4829102,0.7158203-0.9633789,1.0546875-1.4282227   c1.1777344-1.6201172,2.1953125-3.0190434,3.2773438-3.6376958c0.2402344-0.1367188,0.3232422-0.4423828,0.1865234-0.6821289   c-0.1386719-0.2416992-0.4453125-0.3227539-0.6826172-0.1860352c-1.2685547,0.7250977-2.3447266,2.2045903-3.5908203,3.9174809   c-0.2880859,0.3964844-0.5810547,0.7993164-0.8818359,1.2006836C16.623827,8.509449,13.8455076,6.0001712,9.4998045,6.0001712   c-6.0761719,0-9.5,5.0590825-9.5,6.0000005s3.4238281,6,9.5,6c4.3457031,0,7.1240225-2.5092773,9.2792959-5.184082   c0.3007812,0.4013672,0.59375,0.8041992,0.8818359,1.2006836c1.2460938,1.7128906,2.3222656,3.1923828,3.5908203,3.9174805   c0.078125,0.0449219,0.1630859,0.065918,0.2480469,0.065918c0.1728516,0,0.3417969-0.090332,0.4345703-0.2519531   C24.0710926,17.5084724,23.9880848,17.2028084,23.7478504,17.0660896z M9.4998045,17.0001717   c-5.4121099,0-8.2060547-4.2832031-8.4863281-5c0.2802734-0.7167969,3.0742188-5.0000005,8.4863281-5.0000005   c4.0351562,0,6.5761709,2.3710942,8.6533194,5.0000005C16.0759754,14.6290779,13.5349607,17.0001717,9.4998045,17.0001717z" fill="#303C42"/><linearGradient gradientUnits="userSpaceOnUse" id="SVGID_1_" x1="2.6758237" x2="24.6103573" y1="6.0743608" y2="16.3026028"><stop offset="0" style="stop-color:#FFFFFF;stop-opacity:0.2"/><stop offset="1" style="stop-color:#FFFFFF;stop-opacity:0"/></linearGradient><path d="M23.7478504,17.0660896c-1.0820312-0.6186523-2.0996094-2.0175781-3.2773438-3.6376953   c-0.3388672-0.4648438-0.6875-0.9453125-1.0546875-1.4282227c0.3671875-0.4829102,0.7158203-0.9633789,1.0546875-1.4282227   c1.1777344-1.6201172,2.1953125-3.0190434,3.2773438-3.6376958c0.2402344-0.1367188,0.3232422-0.4423828,0.1865234-0.6821289   c-0.1386719-0.2416992-0.4453125-0.3227539-0.6826172-0.1860352c-1.2685547,0.7250977-2.3447266,2.2045903-3.5908203,3.9174809   c-0.2880859,0.3964844-0.5810547,0.7993164-0.8818359,1.2006836C16.623827,8.509449,13.8455076,6.0001712,9.4998045,6.0001712   c-6.0761719,0-9.5,5.0590825-9.5,6.0000005s3.4238281,6,9.5,6c4.3457031,0,7.1240225-2.5092773,9.2792959-5.184082   c0.3007812,0.4013672,0.59375,0.8041992,0.8818359,1.2006836c1.2460938,1.7128906,2.3222656,3.1923828,3.5908203,3.9174805   c0.078125,0.0449219,0.1630859,0.065918,0.2480469,0.065918c0.1728516,0,0.3417969-0.090332,0.4345703-0.2519531   C24.0710926,17.5084724,23.9880848,17.2028084,23.7478504,17.0660896z M9.4998045,17.0001717   c-5.4121099,0-8.2060547-4.2832031-8.4863281-5c0.2802734-0.7167969,3.0742188-5.0000005,8.4863281-5.0000005   c4.0351562,0,6.5761709,2.3710942,8.6533194,5.0000005C16.0759754,14.6290779,13.5349607,17.0001717,9.4998045,17.0001717z" fill="url(#SVGID_1_)"/></g><g/><g/><g/><g/><g/><g/><g/><g/><g/><g/><g/><g/><g/><g/><g/></svg>