<?xml version="1.0" ?><svg enable-background="new 0 0 24 24" id="Layer_1" version="1.1" viewBox="0 0 24 24" xml:space="preserve" xmlns="http://www.w3.org/2000/svg" xmlns:xlink="http://www.w3.org/1999/xlink"><g><path d="M23.8741283,7.6679688l-4-4.5C19.7794018,3.0610352,19.642683,3,19.5001049,3h-4.500001V2   c0-1.1030273-0.8974609-2-2-2h-2c-1.1025391,0-2,0.8969727-2,2v1h-8.5C0.3155339,3,0.1465886,3.1015625,0.0596746,3.2641602   c-0.0878906,0.1625977-0.078125,0.3598633,0.0244141,0.5131836L2.8995183,8l-2.8154297,4.2226562   c-0.1025391,0.1533203-0.1123047,0.3505859-0.0244141,0.5131836C0.1465886,12.8984375,0.3155339,13,0.5001042,13h8.5v7h-1   c-1.1025386,0-1.9999995,0.8969727-1.9999995,2v1.5c0,0.2763672,0.2236328,0.5,0.5,0.5h11c0.2763672,0,0.5-0.2236328,0.5-0.5V22   c0-1.1030273-0.8974609-2-2-2h-1.000001v-7h4.500001c0.1425781,0,0.2792969-0.0610352,0.3740234-0.1679688l4-4.5   C24.0420971,8.1425781,24.0420971,7.8574219,23.8741283,7.6679688z" fill="#303C42"/><path d="M10.000104,2c0-0.5512695,0.4482422-1,1-1h2c0.5517578,0,1,0.4487305,1,1v1h-4V2z" fill="#D58347"/><path d="M12.0989809,2h1.401123c0.1861572,0,0.350708,0.0646362,0.5,0.1532593V2   c0-0.5512695-0.4482422-1-1-1h-2c-0.5517578,0-1,0.4487305-1,1v1h0.6183472C10.8556337,2.4141235,11.4280214,2,12.0989809,2z" fill="#FFFFFF" opacity="0.2"/><path d="M17.0001049,22v1h-10v-1c0-0.5512695,0.4482422-1,0.9999995-1h8.000001   C16.5518627,21,17.0001049,21.4487305,17.0001049,22z" fill="#D58347"/><path d="M16.5001049,21.1536255V21.5c0,0.5522461-0.4476929,1-1.000001,1h-8.5V23h10v-1   C17.0001049,21.6346436,16.7935009,21.328186,16.5001049,21.1536255z" opacity="0.1"/><rect fill="#D58347" height="7" width="4" x="10.000104" y="13"/><rect fill="#FFFFFF" height="7" opacity="0.2" width="1" x="10.000104" y="13"/><rect height="7" opacity="0.1" width="1" x="13.000104" y="13"/><path d="M19.2754955,12H1.4346745l2.4814453-3.7226562c0.1123049-0.1679688,0.1123049-0.3867188,0-0.5546875   L1.4346745,4h17.8408203l3.5556641,4L19.2754955,12z" fill="#EFAB7B"/><path d="M22.2211742,7.3137817l-2.5595093,2.8793945C19.2054272,10.7063599,18.5515575,11,17.864912,11H2.1012394   l-0.6665649,1h17.8408203l3.5556641-4L22.2211742,7.3137817z" opacity="0.1"/><path d="M14.6788149,5.1787109c-0.5984497-0.2194214-1.2739868-0.0448608-1.9373779,0.4532471   C12.366559,5.2468262,11.9188051,5,11.4229555,5C10.0362368,5,9.000104,6.8774414,9.000104,8.5556641   C9.000104,10.0634766,9.9288149,11,11.4229555,11c0.4189453,0,0.7876587-0.0808105,1.1096802-0.2200317   c0.0269165,0.0111694,0.0515747,0.0219727,0.0856323,0.0344849c0.3447266,0.1254883,0.6757812,0.1865234,0.9873047,0.1865234   c0.9609375,0,1.7373047-0.581543,2.1279297-1.6503906c0.2636719-0.7202148,0.336915-1.6088867,0.1953125-2.3769531   C15.758893,6.0493164,15.3155336,5.4116211,14.6788149,5.1787109z" fill="#303C42"/><path d="M10.000104,8.5556641C10.000104,7.3374023,10.7452211,6,11.4229555,6   s1.4228516,1.3374023,1.4228516,2.5556641C12.8458071,9.5141602,12.3672915,10,11.4229555,10   S10.000104,9.5141602,10.000104,8.5556641z" fill="#EE3124"/><path d="M10.1544008,9.0556641C10.1544008,7.8374023,10.899518,6.5,11.5772524,6.5   c0.4304199,0,0.8863525,0.5407104,1.1630249,1.2463989C12.5144472,6.8123169,11.9506655,6,11.4229555,6   c-0.6777344,0-1.4228516,1.3374023-1.4228516,2.5556641c0,0.3375854,0.0808716,0.5949707,0.1990356,0.8146973   C10.184247,9.2654419,10.1544008,9.175354,10.1544008,9.0556641z" fill="#FFFFFF" opacity="0.2"/><path d="M14.7940493,9.0073242c-0.2609863,0.7140503-0.7072754,1.0383301-1.3204346,0.9834595   c0.2416992-0.385376,0.3721924-0.8701172,0.3721924-1.4351196c0-0.7252808-0.2020874-1.4795532-0.5338135-2.1116943   c0.3883667-0.2963867,0.7598267-0.4225464,1.0230713-0.3258057c0.2822266,0.1030273,0.5097656,0.4902344,0.6103516,1.0361328   C15.055768,7.7543945,14.9991274,8.4472656,14.7940493,9.0073242z" fill="#EE3124"/><path d="M14.3343935,6.6213989c0.2822266,0.1030273,0.5097656,0.4902344,0.6103516,1.0361328   c0.0234985,0.1278076,0.0355835,0.2611694,0.0441284,0.3952637c0.0214233-0.3042603,0.0092163-0.6119385-0.043457-0.8984985   c-0.1005859-0.5458984-0.328125-0.9331055-0.6103516-1.0361328c-0.2632446-0.0967407-0.6347046,0.0294189-1.0230713,0.3258057   c0.0649414,0.1237183,0.1203613,0.2553101,0.1748047,0.387207C13.8095522,6.6253052,14.1114321,6.5394897,14.3343935,6.6213989z" fill="#FFFFFF" opacity="0.2"/><linearGradient gradientUnits="userSpaceOnUse" id="SVGID_1_" x1="-1.5267386" x2="21.0036221" y1="6.6641622" y2="17.1702423"><stop offset="0" style="stop-color:#FFFFFF;stop-opacity:0.2"/><stop offset="1" style="stop-color:#FFFFFF;stop-opacity:0"/></linearGradient><path d="M23.8741283,7.6679688l-4-4.5C19.7794018,3.0610352,19.642683,3,19.5001049,3h-4.500001V2   c0-1.1030273-0.8974609-2-2-2h-2c-1.1025391,0-2,0.8969727-2,2v1h-8.5C0.3155339,3,0.1465886,3.1015625,0.0596746,3.2641602   c-0.0878906,0.1625977-0.078125,0.3598633,0.0244141,0.5131836L2.8995183,8l-2.8154297,4.2226562   c-0.1025391,0.1533203-0.1123047,0.3505859-0.0244141,0.5131836C0.1465886,12.8984375,0.3155339,13,0.5001042,13h8.5v7h-1   c-1.1025386,0-1.9999995,0.8969727-1.9999995,2v1.5c0,0.2763672,0.2236328,0.5,0.5,0.5h11c0.2763672,0,0.5-0.2236328,0.5-0.5V22   c0-1.1030273-0.8974609-2-2-2h-1.000001v-7h4.500001c0.1425781,0,0.2792969-0.0610352,0.3740234-0.1679688l4-4.5   C24.0420971,8.1425781,24.0420971,7.8574219,23.8741283,7.6679688z" fill="url(#SVGID_1_)"/></g><g/><g/><g/><g/><g/><g/><g/><g/><g/><g/><g/><g/><g/><g/><g/></svg>