<?xml version="1.0" ?><svg enable-background="new 0 0 24 24" id="Layer_1" version="1.1" viewBox="0 0 24 24" xml:space="preserve" xmlns="http://www.w3.org/2000/svg" xmlns:xlink="http://www.w3.org/1999/xlink"><g><path d="M17.6855469,22.0366039c-0.9873047-0.3948269-1.6030273-1.0902882-1.6894531-1.9087372   c-0.0727539-0.6861877,0.2480469-1.3577347,0.8364258-1.7525616l-0.0054321-0.0081139   C18.7504883,16.9055023,20,14.601635,20,12.0058565c0-0.4978647-0.3536987-0.9305763-1.0131226-1.2972183   C18.8493042,6.8787212,15.9467773,0,12,0S5.1506958,6.8787212,5.0131226,10.7086382   C4.3536987,11.0752802,4,11.5079918,4,12.0058565c0,2.5957785,1.2495117,4.8996458,3.1729126,6.3613348l-0.0054321,0.0081139   c0.5883789,0.3948269,0.9091797,1.0663738,0.8364258,1.7525616c-0.0864258,0.818449-0.7021484,1.5139103-1.6894531,1.9087372   C6.1245117,22.1127377,6,22.2962418,6,22.5007324C6,23.8540745,10.1958008,24,12,24s6-0.1459255,6-1.4992676   C18,22.2962418,17.8754883,22.1127377,17.6855469,22.0366039z" fill="#303C42"/><path d="M6.2825928,12.7748413C6.1046753,12.2006836,6,11.6071167,6,11   c0-0.038147,0.005188-0.0823975,0.0059204-0.12146c0.0420532,0.0218506,0.0843506,0.0418091,0.1268921,0.0643311   C6.6254883,11.2041016,7.184082,11.5,8.2460938,11.5s1.6186523-0.296875,2.109375-0.559082   C10.7988281,10.7045898,11.1821289,10.5,11.9936523,10.5c0.8134766,0,1.1967773,0.2045898,1.6411133,0.4414062   C14.1264648,11.203125,14.6835938,11.5,15.746582,11.5c1.0644531,0,1.6240234-0.2958984,2.1176758-0.5571289   c0.043457-0.0230713,0.086792-0.043457,0.1297607-0.0657959C17.994751,10.916626,18,10.9613647,18,11   c0,0.607666-0.1046143,1.2012329-0.2827148,1.7748413C16.5709229,13.1583862,14.6727295,13.5117188,12,13.5117188   C9.3272095,13.5117188,7.4289551,13.1584473,6.2825928,12.7748413z" fill="#E82C2A"/><path d="M6.4678955,8.1121826C6.8922729,8.3172607,7.4127808,8.5,8.2460938,8.5   c1.0620117,0,1.6186523-0.296875,2.109375-0.559082C10.7988281,7.7045898,11.1821289,7.5,11.9936523,7.5   c0.8134766,0,1.1967773,0.2045898,1.6411133,0.4414062C14.1264648,8.203125,14.6835938,8.5,15.746582,8.5   c0.8377686,0,1.359436-0.1838379,1.7850342-0.3897095c0.1671753,0.5963135,0.2890625,1.1705933,0.3676758,1.7061157   c-0.1792603,0.0777588-0.3461304,0.159729-0.5028076,0.2426758C16.9492188,10.2954102,16.5624943,10.5,15.746582,10.5   c-0.8134766,0-1.1972656-0.2045898-1.6411133-0.4414062C13.6137695,9.796875,13.0566406,9.5,11.9936523,9.5   c-1.0620117,0-1.6181641,0.296875-2.1088867,0.559082C9.4414062,10.2954102,9.0581055,10.5,8.2460938,10.5   c-0.8134766,0-1.1987305-0.2041016-1.6450195-0.440918C6.4450073,9.9766235,6.2789307,9.8950195,6.1005859,9.8174438   C6.1790771,9.2822266,6.3009033,8.7081909,6.4678955,8.1121826z" fill="#FFFFFF"/><path d="M12,1c2.1965942,0,4.1843872,3.1160889,5.2286987,6.1430664   C16.8449097,7.3409424,16.4603271,7.5,15.746582,7.5c-0.8134766,0-1.1972656-0.2045898-1.6411133-0.4414062   C13.6137695,6.796875,13.0566406,6.5,11.9936523,6.5c-1.0620117,0-1.6181641,0.296875-2.1088867,0.559082   C9.4414062,7.2954102,9.0581055,7.5,8.2460938,7.5C7.536438,7.5,7.1526489,7.3417969,6.770752,7.1447144   C7.8148804,4.1171875,9.8029785,1,12,1z" fill="#E82C2A"/><path d="M5.1361084,13.3793945C6.6325684,14.1495361,9.3823853,14.5117188,12,14.5117188   s5.3674316-0.3621826,6.8638916-1.1323242C18.2258911,16.5864868,15.3917236,19.0117188,12,19.0117188   S5.7741089,16.5864868,5.1361084,13.3793945z" fill="#FAFAFA"/><path d="M17.560791,13.8707275c-1.1707764,2.2322998-3.5060425,3.7615967-6.1968994,3.7615967   c-2.5366211,0-4.7607422-1.3569946-5.9881592-3.3825684C6.3120117,17.013855,8.9237061,19.0117188,12,19.0117188   c3.3917236,0,6.2258911-2.4252319,6.8638916-5.6323242C18.49823,13.5675659,18.0558472,13.7305908,17.560791,13.8707275z" opacity="0.1"/><path d="M12,23.0117188c-2.2324219,0-3.7543945-0.2290039-4.5175781-0.4448242   c0.8764648-0.5673828,1.4165039-1.3833008,1.5161133-2.3242188c0.0299072-0.2839966,0.0095825-0.5640259-0.043396-0.8364258   C9.8945312,19.7945557,10.9220581,20.0117188,12,20.0117188s2.1054688-0.2171631,3.0448608-0.6054688   c-0.0529785,0.2723999-0.0733032,0.5524292-0.043396,0.8364258c0.0996094,0.940918,0.6396484,1.7568359,1.5161133,2.3242188   C15.7543945,22.7827148,14.2324219,23.0117188,12,23.0117188z" fill="#FAFAFA"/><path d="M10.0068359,20.2426758c0.0118408-0.1692505-0.0078125-0.3328247-0.0172119-0.4984741   c-0.3536987-0.0925903-0.7012939-0.2002563-1.0344849-0.3379517c0.0529785,0.2723999,0.0733032,0.5524292,0.043396,0.8364258   c-0.0996094,0.940918-0.6396484,1.7568359-1.5161133,2.3242188C8.2456055,22.7827148,9.7675781,23.0117188,12,23.0117188   c-1.4824829,0-2.4931641-0.2290039-3-0.4448242C9.5820312,21.9995117,9.9406738,21.1835938,10.0068359,20.2426758z" fill="#FFFFFF" opacity="0.2"/><path d="M15.0014648,20.2426758c-0.0299072-0.2839966-0.0095825-0.5640259,0.043396-0.8364258   c-0.3331909,0.1376953-0.6807861,0.2453613-1.0344849,0.3379517c-0.0093994,0.1656494-0.0290527,0.3292236-0.0172119,0.4984741   c0.0357237,0.5080357,0.1567135,0.9796295,0.3520956,1.3953362c0.250906,0.533844-0.0421524,1.1677799-0.6254654,1.2554607   C13.2451277,22.9648228,12.6708727,23.0117188,12,23.0117188c2.2324219,0,3.7543945-0.2290039,4.5175781-0.4448242   C15.6411133,21.9995117,15.1010742,21.1835938,15.0014648,20.2426758z" opacity="0.1"/><linearGradient gradientUnits="userSpaceOnUse" id="SVGID_1_" x1="4.5493584" x2="20.731802" y1="9.2357578" y2="16.7817554"><stop offset="0" style="stop-color:#FFFFFF;stop-opacity:0.2"/><stop offset="1" style="stop-color:#FFFFFF;stop-opacity:0"/></linearGradient><path d="M17.6855469,22.0366039c-0.9873047-0.3948269-1.6030273-1.0902882-1.6894531-1.9087372   c-0.0727539-0.6861877,0.2480469-1.3577347,0.8364258-1.7525616l-0.0054321-0.0081139   C18.7504883,16.9055023,20,14.601635,20,12.0058565c0-0.4978647-0.3536987-0.9305763-1.0131226-1.2972183   C18.8493042,6.8787212,15.9467773,0,12,0S5.1506958,6.8787212,5.0131226,10.7086382   C4.3536987,11.0752802,4,11.5079918,4,12.0058565c0,2.5957785,1.2495117,4.8996458,3.1729126,6.3613348l-0.0054321,0.0081139   c0.5883789,0.3948269,0.9091797,1.0663738,0.8364258,1.7525616c-0.0864258,0.818449-0.7021484,1.5139103-1.6894531,1.9087372   C6.1245117,22.1127377,6,22.2962418,6,22.5007324C6,23.8540745,10.1958008,24,12,24s6-0.1459255,6-1.4992676   C18,22.2962418,17.8754883,22.1127377,17.6855469,22.0366039z" fill="url(#SVGID_1_)"/></g><g/><g/><g/><g/><g/><g/><g/><g/><g/><g/><g/><g/><g/><g/><g/></svg>