<?xml version="1.0" ?><svg height="48" id="svg8" version="1.1" viewBox="0 0 12.7 12.7" width="48" xmlns="http://www.w3.org/2000/svg" xmlns:cc="http://creativecommons.org/ns#" xmlns:dc="http://purl.org/dc/elements/1.1/" xmlns:inkscape="http://www.inkscape.org/namespaces/inkscape" xmlns:rdf="http://www.w3.org/1999/02/22-rdf-syntax-ns#" xmlns:sodipodi="http://sodipodi.sourceforge.net/DTD/sodipodi-0.dtd" xmlns:svg="http://www.w3.org/2000/svg"><defs id="defs2"/><g id="layer1" transform="translate(0,-284.3)"><g id="g6013" style="stroke-width:3.77952766" transform="matrix(0.26458333,0,0,0.26458333,119.66664,164.20121)"><g id="g5972-1-9-8-5-2" style="stroke-width:4.5353384" transform="matrix(0.72170282,0.41667533,-0.41667533,0.72170282,-523.43526,341.8366)"><g id="g5965-4-5-5-4-2" style="stroke-width:4.5353384" transform="translate(3.2577775,2.2756658)"><path d="m 178.95208,54.672739 a 11.059017,15.663023 0 0 0 -8.84907,15.32981 11.059017,15.663023 0 0 0 4.24212,12.32586 v 24.502901 c 0,0.91536 0.73673,1.65209 1.65209,1.65209 h 1.30225 c 0.91535,0 1.65261,-0.73673 1.65261,-1.65209 V 85.348379 67.471959 Z" id="path5457-5-9-0-9-7-6" style="opacity:1;vector-effect:none;fill:#bababa;fill-opacity:1;stroke:none;stroke-width:4.5353384;stroke-linecap:round;stroke-linejoin:round;stroke-miterlimit:4;stroke-dasharray:none;stroke-dashoffset:180.83624268;stroke-opacity:1;paint-order:normal"/><path d="m 172.27539,66.726562 a 0.50005,0.50005 0 0 0 -0.4668,0.427735 c 0,0 -1.2935,7.675439 2.48633,12.365234 a 0.50009463,0.50009463 0 1 0 0.7793,-0.626953 c -3.36391,-4.173745 -2.27735,-11.582031 -2.27734,-11.582031 a 0.50005,0.50005 0 0 0 -0.52149,-0.583985 z" id="path5896-2-4-7-6-1" style="color:#000000;font-style:normal;font-variant:normal;font-weight:normal;font-stretch:normal;font-size:medium;line-height:normal;font-family:sans-serif;font-variant-ligatures:normal;font-variant-position:normal;font-variant-caps:normal;font-variant-numeric:normal;font-variant-alternates:normal;font-feature-settings:normal;text-indent:0;text-align:start;text-decoration:none;text-decoration-line:none;text-decoration-style:solid;text-decoration-color:#000000;letter-spacing:normal;word-spacing:normal;text-transform:none;writing-mode:lr-tb;direction:ltr;text-orientation:mixed;dominant-baseline:auto;baseline-shift:baseline;text-anchor:start;white-space:normal;shape-padding:0;clip-rule:nonzero;display:inline;overflow:visible;visibility:visible;opacity:1;isolation:auto;mix-blend-mode:normal;color-interpolation:sRGB;color-interpolation-filters:linearRGB;solid-color:#000000;solid-opacity:1;vector-effect:none;fill:#d2d2d2;fill-opacity:1;fill-rule:evenodd;stroke:none;stroke-width:4.5353384;stroke-linecap:round;stroke-linejoin:miter;stroke-miterlimit:4;stroke-dasharray:none;stroke-dashoffset:0;stroke-opacity:1;color-rendering:auto;image-rendering:auto;shape-rendering:auto;text-rendering:auto;enable-background:accumulate"/><path d="m 176,82.798828 a 0.50005,0.50005 0 0 0 -0.49219,0.507813 v 22.621089 a 0.50005,0.50005 0 1 0 1,0 V 83.306641 A 0.50005,0.50005 0 0 0 176,82.798828 Z" id="path5898-0-8-5-5-0" style="color:#000000;font-style:normal;font-variant:normal;font-weight:normal;font-stretch:normal;font-size:medium;line-height:normal;font-family:sans-serif;font-variant-ligatures:normal;font-variant-position:normal;font-variant-caps:normal;font-variant-numeric:normal;font-variant-alternates:normal;font-feature-settings:normal;text-indent:0;text-align:start;text-decoration:none;text-decoration-line:none;text-decoration-style:solid;text-decoration-color:#000000;letter-spacing:normal;word-spacing:normal;text-transform:none;writing-mode:lr-tb;direction:ltr;text-orientation:mixed;dominant-baseline:auto;baseline-shift:baseline;text-anchor:start;white-space:normal;shape-padding:0;clip-rule:nonzero;display:inline;overflow:visible;visibility:visible;opacity:1;isolation:auto;mix-blend-mode:normal;color-interpolation:sRGB;color-interpolation-filters:linearRGB;solid-color:#000000;solid-opacity:1;vector-effect:none;fill:#d2d2d2;fill-opacity:1;fill-rule:evenodd;stroke:none;stroke-width:4.5353384;stroke-linecap:round;stroke-linejoin:miter;stroke-miterlimit:4;stroke-dasharray:none;stroke-dashoffset:0;stroke-opacity:1;color-rendering:auto;image-rendering:auto;shape-rendering:auto;text-rendering:auto;enable-background:accumulate"/></g><path d="m 182.19451,56.448611 a 0.50004994,0.50004994 0 0 0 -0.12305,0.0195 c -5.45201,1.57482 -9.20501,8.20759 -9.21094,15.81055 0.002,4.83629 1.54999,9.39703 4.24219,12.48047 v 24.347649 c 0,1.18365 0.9687,2.15235 2.15235,2.15235 h 1.30273 c 1.18365,0 2.15234,-0.96851 2.15234,-2.15235 V 87.624361 69.747411 56.948581 a 0.50004994,0.50004994 0 0 0 -0.51562,-0.5 z m -0.48438,1.33789 v 11.96094 17.87695 21.482419 c 0,0.64689 -0.50527,1.15235 -1.15234,1.15235 h -1.30273 c -0.64706,0 -1.15235,-0.50527 -1.15235,-1.15235 V 84.604861 a 0.50004994,0.50004994 0 0 0 -0.12891,-0.33594 c -2.571,-2.85051 -4.11167,-7.28488 -4.11328,-11.99023 0.005,-6.92722 3.35345,-12.73674 7.84961,-14.49219 z" id="path5457-5-7-6-7-3-6-6" style="color:#000000;font-style:normal;font-variant:normal;font-weight:normal;font-stretch:normal;font-size:medium;line-height:normal;font-family:sans-serif;font-variant-ligatures:normal;font-variant-position:normal;font-variant-caps:normal;font-variant-numeric:normal;font-variant-alternates:normal;font-feature-settings:normal;text-indent:0;text-align:start;text-decoration:none;text-decoration-line:none;text-decoration-style:solid;text-decoration-color:#000000;letter-spacing:normal;word-spacing:normal;text-transform:none;writing-mode:lr-tb;direction:ltr;text-orientation:mixed;dominant-baseline:auto;baseline-shift:baseline;text-anchor:start;white-space:normal;shape-padding:0;clip-rule:nonzero;display:inline;overflow:visible;visibility:visible;opacity:1;isolation:auto;mix-blend-mode:normal;color-interpolation:sRGB;color-interpolation-filters:linearRGB;solid-color:#000000;solid-opacity:1;vector-effect:none;fill:#666666;fill-opacity:1;fill-rule:nonzero;stroke:none;stroke-width:4.5353384;stroke-linecap:round;stroke-linejoin:round;stroke-miterlimit:4;stroke-dasharray:none;stroke-dashoffset:180.83624268;stroke-opacity:1;paint-order:normal;color-rendering:auto;image-rendering:auto;shape-rendering:auto;text-rendering:auto;enable-background:accumulate"/></g></g></g></svg>