<?xml version="1.0" ?><svg id="Слой_1" style="enable-background:new 0 0 512 512;" version="1.1" viewBox="0 0 512 512" xml:space="preserve" xmlns="http://www.w3.org/2000/svg" xmlns:xlink="http://www.w3.org/1999/xlink"><style type="text/css">
	.st0{fill:#F2F7FF;}
	.st1{fill:#5C4A43;}
	.st2{fill:#FFFFFF;}
	.st3{fill:#BEB7B4;}
	.st4{fill:#FDDCCE;}
</style><g><g><path class="st0" d="M462.8,330.8c0,6.7-2.7,12.8-7.1,17.2c-4.4,4.4-10.4,7.1-17.1,7.1h-23.3c-5.1,0-9.1,3.9-9.1,8.8v45.4    c0,11.5-9.7,20.9-21.7,20.9H199.5c-12,0-21.7-9.3-21.7-20.9v-42.6c0-6.4-5.4-11.6-12-11.6h-23.3c-13.3,0-24.2-10.9-24.2-24.3    c0-6.7,2.7-12.8,7.1-17.2c0.3-0.3,0.6-0.6,1-0.9c7.2-6.5,9.8-16.3,6.2-25.2c-8.8-21.7-12.5-47.6-12.5-70.7    C120,129.6,196.4,59,290.5,59S461,129.6,461,216.8c0,23.1-3.7,49-12.5,70.7c-3.6,8.8-1,18.7,6.2,25.2    C459.6,317.1,462.8,323.6,462.8,330.8z"/></g><g><g><path class="st1" d="M428.5,329.7c-0.2,7.6-4.3,14.5-11.2,17.8c-3.9,1.8-7.8,1.9-11.9,1.9c-7.3,0-14.9-0.6-22.2,0.1     c-10.2,1-14.3,9.3-14.3,18.5c0,8.4,0,16.7,0,25.1c0,6.4,0.2,12.9,0,19.3c-0.2,9.4-7.8,15.9-17,16.1c-7.6,0.2-15.3,0-23,0     c-35,0-70.1,0-105.1,0c-15.7,0-31.5,0-47.2,0c-6.6,0-13.3,0.3-19.9,0c-10.1-0.5-16.1-8.3-16.1-17.9c0-7.8,0-15.7,0-23.5     c0-6.4,0.2-12.9,0-19.4c-0.4-11.5-9.5-18.2-20.4-18.3c-7.5-0.1-15.1,0.1-22.6,0C85.1,349.1,75.5,338,78,325.7     c1.6-7.7,8.1-11.4,12-17.8c3.7-6.1,5-13.5,3.8-20.5c-1.4-7.7-5.3-15.2-7.4-22.8c-2.2-8.2-3.9-16.6-5-25     c-3.7-27.5-2.4-55.2,7.2-81.5c8.4-23.2,22.8-44.1,40.8-61c39-36.7,93.9-52.7,146.7-46.5c51,6.1,99.3,34.5,126.9,78.2     c13.3,21,21.5,45.1,23.2,69.9c1.1,15.6,0.1,31.6-2.5,47c-1.4,8.3-3.3,16.6-5.8,24.7c-2.3,7.3-6.2,14.4-6.2,22.2     c0,6.6,2.4,13.1,6.5,18.3c2.2,2.8,5,4.9,7,7.8C427.4,322.1,428.3,325.7,428.5,329.7c0.2,7.7,12.2,7.7,12,0     c-0.2-7.9-2.9-15.2-8.2-21.2c-4.9-5.6-9.8-10.4-8.4-18.6c0.7-3.9,2.7-7.6,3.9-11.4c1.4-4.1,2.7-8.2,3.7-12.4     c2.2-8.5,3.8-17,4.9-25.7c3.8-28.8,2.5-58-7.5-85.5c-18.3-50.4-60.4-88.9-110.6-106.6C265.3,29.7,204.4,35,155.5,63.1     c-46.1,26.5-79.7,72.7-86.6,125.8c-4.1,31.8,0.2,66.1,11.7,96c2.7,7,2.2,14.1-3.1,19.9c-5.4,5.8-9.9,11.2-11.3,19.3     c-2.4,14.1,4.9,28.4,18,34.4c8.5,3.8,18.1,2.8,27.2,2.8c6.1,0,16.5-1.9,17,6.8c0.8,14.6-0.3,29.4,0,44c0.3,12.4,8,23.1,19.9,26.9     c4.1,1.3,8.3,1.4,12.5,1.4c11.6,0,23.2,0,34.9,0c37.6,0,75.3,0,112.9,0c12.6,0,25.3,0,37.9,0c2.1,0,4.2,0.1,6.2,0     c13.8-0.5,26.1-10.5,27.9-24.5c0.8-6.2,0.3-12.8,0.3-19.1c0-9.1,0-18.1,0-27.2c0-1.7-0.4-3.8,0.1-5.5c0.9-3.5,4.8-2.8,7.6-2.8     c8.1,0,16.5,0.7,24.5-0.3c15.9-2.1,27-15.6,27.5-31.3C440.7,321.9,428.7,322,428.5,329.7z"/></g></g><g><g><g><path class="st1" d="M195.2,449.6c0-10.1,0-20.3,0-30.4c0-7.7-12-7.7-12,0c0,10.1,0,20.3,0,30.4      C183.2,457.3,195.2,457.3,195.2,449.6L195.2,449.6z"/></g></g><g><g><path class="st1" d="M234.7,449.6c0-10.1,0-20.3,0-30.4c0-7.7-12-7.7-12,0c0,10.1,0,20.3,0,30.4      C222.7,457.3,234.7,457.3,234.7,449.6L234.7,449.6z"/></g></g><g><g><path class="st1" d="M278.8,449.6c0-10.1,0-20.3,0-30.4c0-7.7-12-7.7-12,0c0,10.1,0,20.3,0,30.4      C266.8,457.3,278.8,457.3,278.8,449.6L278.8,449.6z"/></g></g><g><g><path class="st1" d="M322.9,449.6c0-10.1,0-20.3,0-30.4c0-7.7-12-7.7-12,0c0,10.1,0,20.3,0,30.4      C310.9,457.3,322.9,457.3,322.9,449.6L322.9,449.6z"/></g></g></g><g><g><g><circle class="st1" cx="193.5" cy="280.2" r="27.4"/><g><path class="st1" d="M214.8,280.2c-0.3,11.7-9.5,21.4-21.4,21.4c-11.7,0-21.4-9.7-21.4-21.4c0-11.7,9.7-21.4,21.4-21.4       C205.3,258.8,214.6,268.5,214.8,280.2c0.2,7.7,12.2,7.7,12,0c-0.3-14.1-8.8-26.4-22-31.4c-13-4.8-28.3-0.6-37.1,10.1       c-8.7,10.7-10.1,26.1-3.1,38.1c7.1,12.2,21.3,18.4,35.1,15.9c15.8-2.9,26.7-17,27.1-32.8C227,272.4,215,272.4,214.8,280.2z"/></g></g><g><path class="st1" d="M339.5,280.2c0,15.1-12.3,27.4-27.4,27.4c-15.1,0-27.4-12.3-27.4-27.4H339.5z"/><g><path class="st1" d="M333.5,280.2c-0.3,11.6-9.5,21.4-21.4,21.4c-11.9,0-21.1-9.7-21.4-21.4c-2,2-4,4-6,6c18.3,0,36.5,0,54.8,0       c7.7,0,7.7-12,0-12c-18.3,0-36.5,0-54.8,0c-3.2,0-6.1,2.7-6,6c0.4,18.2,14.9,33.4,33.4,33.4c18.5,0,32.9-15.2,33.4-33.4       C345.7,272.4,333.7,272.4,333.5,280.2z"/></g></g></g><g><path class="st1" d="M252.8,345.6L252.8,345.6c10.4,0,16.6-11.7,10.7-20.3L253,310c-0.1-0.2-0.3-0.2-0.5,0l-10.5,15.3     C236.2,333.9,242.4,345.6,252.8,345.6z"/><g><path class="st1" d="M252.8,351.6c10.7,0,19.6-9.4,18.9-20.1c-0.4-7.5-6.1-13.8-10.2-19.7c-1.5-2.2-3.2-5.6-5.5-7      c-4.3-2.6-7.7,0.7-9.9,4c-3.7,5.4-8.7,11-11.1,17.1C230.2,338.6,239.9,351,252.8,351.6c7.7,0.4,7.7-11.6,0-12      c-3.6-0.2-6.6-2.7-7-6.3c-0.2-2.7,1.3-4.7,2.7-6.7c3.1-4.5,6.2-9,9.2-13.5c-1.7,1-3.5,2-5.2,3c0.2,0,0.3,0,0.5,0      c-1.7-1-3.5-2-5.2-3c3.1,4.6,6.3,9.1,9.4,13.7c1.4,2.1,2.8,4.1,2.5,6.8c-0.5,3.4-3.5,6-6.9,6      C245.1,339.6,245.1,351.6,252.8,351.6z"/></g></g><g><g><path class="st1" d="M234.5,386.2c7.6,0,15.2,0.1,22.8,0c10.5-0.1,19.5-3.9,29-7.7c7.1-2.8,4-14.4-3.2-11.6      c-8.6,3.4-16.8,7.2-26.2,7.3c-7.5,0-15,0-22.4,0C226.7,374.2,226.7,386.2,234.5,386.2L234.5,386.2z"/></g></g><g><g><path class="st1" d="M164.8,222c16,0,31.9,0,47.9,0c7.7,0,7.7-12,0-12c-16,0-31.9,0-47.9,0C157.1,210,157.1,222,164.8,222      L164.8,222z"/></g></g><g><g><path class="st1" d="M296.5,258.8c16,0,31.9,0,47.9,0c7.7,0,7.7-12,0-12c-16,0-31.9,0-47.9,0      C288.8,246.8,288.8,258.8,296.5,258.8L296.5,258.8z"/></g></g><g><g><circle class="st2" cx="196.5" cy="280.2" r="13.2"/></g><g><circle class="st2" cx="174" cy="280.9" r="5.9"/></g></g><g><path class="st3" d="M252.8,336.9L252.8,336.9c5.3,0,8.4-5.9,5.4-10.3l-5.3-7.8c-0.1-0.1-0.2-0.1-0.2,0l-5.3,7.8     C244.3,330.9,247.5,336.9,252.8,336.9z"/></g></g><g><ellipse class="st4" cx="320.2" cy="337.2" rx="17.7" ry="13.1"/></g><g><ellipse class="st4" cx="185.3" cy="337.2" rx="17.7" ry="13.1"/></g></g></svg>