<?xml version="1.0" ?><svg id="Слой_1" style="enable-background:new 0 0 512 512;" version="1.1" viewBox="0 0 512 512" xml:space="preserve" xmlns="http://www.w3.org/2000/svg" xmlns:xlink="http://www.w3.org/1999/xlink"><style type="text/css">
	.st0{fill:#FFF3EA;}
	.st1{fill:#5C4A43;}
	.st2{fill:#FFFFFF;}
	.st3{fill:#BEB7B4;}
	.st4{fill:#FDDCCE;}
</style><g><g><g><path class="st0" d="M464.6,334.8c0,6.7-2.7,12.7-7.1,17.1c-4.4,4.4-10.4,7.1-17,7.1h-23.2c-5,0-9.1,3.9-9.1,8.8V413     c0,11.5-9.6,20.7-21.6,20.7H202.8c-11.9,0-21.6-9.3-21.6-20.7v-42.4c0-6.4-5.4-11.5-12-11.5H146c-13.2,0-24.1-10.9-24.1-24.2     c0-6.7,2.7-12.7,7.1-17.1c0.3-0.3,0.6-0.6,1-0.9c7.2-6.5,9.8-16.3,6.2-25.1c-8.8-21.6-12.4-47.4-12.4-70.3     c0-86.7,75.9-157,169.5-157s169.5,70.3,169.5,157c0,23-3.7,48.8-12.4,70.3c-3.6,8.8-1,18.6,6.2,25     C461.5,321.3,464.6,327.7,464.6,334.8z"/></g><g><g><path class="st1" d="M426,332.9c-0.2,7.5-4.3,14.4-11.2,17.6c-3.8,1.8-7.7,1.8-11.8,1.8c-7.1,0-14.4-0.4-21.5,0      c-10.3,0.7-14.9,8.8-14.9,18.2c0,8.2,0,16.5,0,24.7c0,6.5,0.2,13,0,19.5c-0.2,9.4-7.6,16-16.8,16.2c-7.5,0.2-15,0-22.5,0      c-35.1,0-70.1,0-105.2,0c-15.5,0-31,0-46.5,0c-6.7,0-13.4,0.3-20.1,0c-10.1-0.5-16-8.3-16-17.8c0-7.9,0-15.9,0-23.8      c0-6.3,0.3-12.6,0-18.8c-0.5-11.5-9.7-18.2-20.6-18.2c-7.4,0-14.8,0.1-22.2,0c-12.4-0.2-22.1-11.8-19-24.2      c1.8-7.5,8.5-11.2,12.2-17.6c3.4-6,4.6-13,3.4-19.8c-1.3-7.7-5.3-15.1-7.3-22.7c-2.2-8.2-3.9-16.5-5-24.9      c-3.7-27.4-2.3-55.1,7.2-81.3c8.4-23,22.6-43.6,40.4-60.4c38.8-36.5,93.5-52.5,146-46.2c50.7,6.1,98.8,34.4,126.2,77.9      c13.2,21,21.4,45.1,23,69.9c1,15.3,0,31-2.5,46.1c-1.4,8.3-3.3,16.5-5.8,24.5c-2.2,7.2-6.2,14.3-6.2,22.1      c0,6.9,2.6,13.5,6.9,18.8c2,2.5,4.7,4.5,6.5,7.2C424.9,325.4,425.8,329,426,332.9c0.2,7.7,12.2,7.7,12,0      c-0.2-7.8-2.9-15.2-8.1-21.1c-4.9-5.5-9.7-10.3-8.4-18.4c0.6-3.6,2.4-7.1,3.6-10.5c1.5-4.3,2.8-8.7,4-13.1      c2.2-8.4,3.7-17,4.9-25.6c3.8-28.5,2.5-57.4-7.3-84.6c-18.1-50.2-59.9-88.6-109.8-106.3c-53-18.8-114-13.4-162.8,14.7      c-45.6,26.3-78.8,72.1-85.7,124.7c-4.1,31.3-0.1,65.5,11.3,94.9c2.7,7,2.9,13.9-2.3,20c-5.1,6.1-10,10.8-11.7,19      c-2.8,14,4.3,28.6,17.2,34.7c8.5,4,18,3.1,27.2,3.1c6,0,16.8-2.1,17.3,6.6c0.9,14.5-0.3,29.3,0,43.8c0.3,12.4,8,23,19.8,26.8      c4.1,1.3,8.3,1.4,12.5,1.4c11.6,0,23.1,0,34.7,0c37.5,0,75,0,112.5,0c12.5,0,25.1,0,37.6,0c2.4,0,4.9,0.1,7.3-0.1      c13.6-1.1,25-11.3,26.5-25.1c0.6-6.1,0.2-12.5,0.2-18.6c0-9,0-17.9,0-26.9c0-1.6-0.4-4,0.1-5.6c1.1-3.1,5.2-2.4,7.8-2.4      c8.1,0,16.7,0.8,24.8-0.4c15.4-2.3,26.1-15.8,26.6-31.1C438.2,325.2,426.2,325.2,426,332.9z"/></g></g><g><g><path class="st1" d="M229.4,383.6c0-3.2,0-6.4,0-9.6c0-3.1-2.8-6.1-6-6c-3.3,0.1-6,2.6-6,6c0,3.2,0,6.4,0,9.6c0,3.1,2.8,6.1,6,6      C226.6,389.5,229.4,387,229.4,383.6L229.4,383.6z"/></g></g><g><g><path class="st1" d="M247.6,383.6c0-3.2,0-6.4,0-9.6c0-3.1-2.8-6.1-6-6c-3.3,0.1-6,2.6-6,6c0,3.2,0,6.4,0,9.6c0,3.1,2.8,6.1,6,6      C244.9,389.4,247.6,386.9,247.6,383.6L247.6,383.6z"/></g></g><g><g><path class="st1" d="M265.7,383.6c0-3.2,0-6.4,0-9.6c0-3.1-2.8-6.1-6-6c-3.3,0.1-6,2.6-6,6c0,3.2,0,6.4,0,9.6c0,3.1,2.8,6.1,6,6      C262.9,389.4,265.7,386.9,265.7,383.6L265.7,383.6z"/></g></g><g><g><path class="st1" d="M283.9,383.6c0-3.2,0-6.4,0-9.6c0-3.1-2.8-6.1-6-6c-3.3,0.1-6,2.6-6,6c0,3.2,0,6.4,0,9.6c0,3.1,2.8,6.1,6,6      C281.2,389.4,283.9,386.9,283.9,383.6L283.9,383.6z"/></g></g><g><path class="st1" d="M251.5,342.5L251.5,342.5c10.4,0,16.5-11.6,10.6-20.2l-10.4-15.2c-0.1-0.2-0.3-0.2-0.5,0l-10.4,15.2     C235,330.9,241.2,342.5,251.5,342.5z"/><g><path class="st1" d="M251.5,348.5c10.7,0,19.5-9.3,18.9-20c-0.4-7.5-6.1-13.7-10.2-19.6c-1.5-2.2-3.1-5.6-5.5-7      c-4.3-2.6-7.6,0.7-9.9,3.9c-3.7,5.4-8.6,10.9-11,17C229,335.5,238.7,347.9,251.5,348.5c7.7,0.4,7.7-11.6,0-12      c-3.5-0.2-6.6-2.6-6.9-6.3c-0.2-2.6,1.3-4.6,2.7-6.7c3.1-4.5,6.1-8.9,9.2-13.4c-1.7,1-3.5,2-5.2,3c0.2,0,0.3,0,0.5,0      c-1.7-1-3.5-2-5.2-3c3.1,4.6,6.3,9.1,9.4,13.7c1.4,2.1,2.8,4.1,2.4,6.7c-0.5,3.4-3.4,6-6.9,6      C243.8,336.5,243.8,348.5,251.5,348.5z"/></g></g><g><g><path class="st1" d="M202.8,217.9c-12-3.4-24-6.7-35.9-10.1c-7.4-2.1-10.6,9.5-3.2,11.6c12,3.4,24,6.7,35.9,10.1      C207.1,231.6,210.3,220,202.8,217.9L202.8,217.9z"/></g></g><g><g><path class="st1" d="M302.9,229.5c12-3.4,24-6.7,35.9-10.1c7.4-2.1,4.3-13.7-3.2-11.6c-12,3.4-24,6.7-35.9,10.1      C292.3,220,295.4,231.6,302.9,229.5L302.9,229.5z"/></g></g><g><path class="st1" d="M224.4,277.4c0,15-12.2,27.2-27.2,27.2s-27.2-12.2-27.2-27.2c0-15,8.4-19.7,27.2-27.2     C211.1,244.6,224.4,262.4,224.4,277.4z"/><g><path class="st1" d="M218.4,277.4c-0.3,12.6-11.2,22.8-24,21.1c-11.9-1.6-20-13.1-18.2-24.8c1.5-10,12.9-13.9,21.1-17.1      c5.9-2.3,10.3-1.1,14.5,3.7C215.9,265,218.2,271.2,218.4,277.4c0.2,7.7,12.2,7.7,12,0c-0.3-13.5-8.3-29.3-22.1-33.4      c-7.4-2.2-13.9,0.8-20.6,3.7c-5.6,2.4-11.3,5.2-15.8,9.4c-9.1,8.6-9.9,23-5,34c5.9,13.2,20.1,21.1,34.4,19.3      c16.7-2.1,28.7-16.3,29.1-32.9C230.6,269.7,218.6,269.7,218.4,277.4z"/></g></g><g><path class="st1" d="M278.7,277.4c0,15,12.2,27.2,27.2,27.2c15,0,27.2-12.2,27.2-27.2c0-15-8.4-19.7-27.2-27.2     C291.9,244.6,278.7,262.4,278.7,277.4z"/><g><path class="st1" d="M272.7,277.4c0.4,14.5,9.5,27.4,23.5,31.8c14,4.3,29.4-1.5,37.5-13.5c6.7-10.1,7.9-25.4,0.4-35.3      c-3.5-4.7-8.6-7.9-13.8-10.4c-6.1-3-13.4-7-20.4-6.8C283.2,243.7,273,262.6,272.7,277.4c-0.2,7.7,11.8,7.7,12,0      c0.2-6.2,2.5-12.4,6.6-17.1c4.2-4.8,8.6-6.1,14.5-3.7c8.2,3.3,19.6,7.1,21.1,17.1c1.8,11.8-6.3,23.2-18.2,24.8      c-12.8,1.7-23.7-8.5-24-21.1C284.5,269.7,272.5,269.7,272.7,277.4z"/></g></g><g><g><g><path class="st1" d="M194,448c0-10.1,0-20.2,0-30.3c0-7.7-12-7.7-12,0c0,10.1,0,20.2,0,30.3C182,455.7,194,455.7,194,448       L194,448z"/></g></g><g><g><path class="st1" d="M233.3,448c0-10.1,0-20.2,0-30.3c0-7.7-12-7.7-12,0c0,10.1,0,20.2,0,30.3       C221.3,455.7,233.3,455.7,233.3,448L233.3,448z"/></g></g><g><g><path class="st1" d="M277.2,448c0-10.1,0-20.2,0-30.3c0-7.7-12-7.7-12,0c0,10.1,0,20.2,0,30.3       C265.2,455.7,277.2,455.7,277.2,448L277.2,448z"/></g></g><g><g><path class="st1" d="M321.1,448c0-10.1,0-20.2,0-30.3c0-7.7-12-7.7-12,0c0,10.1,0,20.2,0,30.3       C309.1,455.7,321.1,455.7,321.1,448L321.1,448z"/></g></g></g><g><g><circle class="st2" cx="199.2" cy="277.6" r="13.1"/></g><g><circle class="st2" cx="176.8" cy="278.4" r="5.8"/></g></g><g><g><circle class="st2" cx="308.9" cy="278.4" r="13.1"/></g><g><circle class="st2" cx="286.4" cy="279.2" r="5.8"/></g></g><g><path class="st3" d="M251.5,333.8L251.5,333.8c5.3,0,8.4-5.9,5.4-10.3l-5.3-7.7c-0.1-0.1-0.2-0.1-0.2,0l-5.3,7.7     C243.1,327.9,246.2,333.8,251.5,333.8z"/></g></g><g><ellipse class="st4" cx="333.2" cy="335.6" rx="17.6" ry="13.1"/></g><g><ellipse class="st4" cx="169.9" cy="333.3" rx="17.6" ry="13.1"/></g></g></svg>