<?xml version="1.0" ?><svg height="40px" version="1.1" viewBox="0 0 40 40" width="40px" xmlns="http://www.w3.org/2000/svg" xmlns:xlink="http://www.w3.org/1999/xlink"><title/><desc/><defs/><g fill="none" fill-rule="evenodd" id="Iconfinder" stroke="none" stroke-width="1"><g id="Dribbble" stroke-width="4"><path d="M23.5,36 C30.4035594,36 36,30.4035594 36,23.5 C36,16.5964406 30.4035594,11 23.5,11 C20.771488,11 18.2471594,11.8742135 16.1918322,13.3578228 C14.5952785,14.5102728 13.28172,16.030432 12.3752804,17.7941767 C11.4961707,19.5047433 11,21.4444282 11,23.5 C11,30.4035594 16.5964406,36 23.5,36 Z" fill="#7AB0EF" id="Oval-6" opacity="0.300000012" stroke="#7AB0EF"/><path d="M9.00525713,15.5805419 C8.35824172,17.0903774 8,18.7533528 8,20.5 C8,27.4035594 13.5964406,33 20.5,33 C27.4035594,33 33,27.4035594 33,20.5 C33,13.5964406 27.4035594,8 20.5,8 C17.771488,8 15.2471594,8.87421352 13.1918322,10.3578228" id="Oval-6" stroke="#113E73" stroke-linecap="round"/><path d="M33.4941497,20 C26.1722295,21.1286385 21.1885959,22.7781705 18.543249,24.9485958 C15.897902,27.1190212 14.2569162,29.1712375 13.6202916,31.1052446" id="Path-3" stroke="#113E73"/><path d="M7.67672771,20 C14.3271926,19.586716 18.8692894,18.5510718 21.3030179,16.8930672 C23.7367464,15.2350627 25.8568489,13.5261834 27.6633255,11.7664292" id="Path-4" stroke="#113E73"/><path d="M17.7464889,9.3927036 C21.2296058,15.4088735 23.6071748,20.1403335 24.8791961,23.5870837 C26.1512173,27.0338339 26.5415473,29.8024505 26.0501861,31.8929335" id="Path-5" stroke="#113E73"/></g></g></svg>