<?xml version="1.0" ?><svg height="40px" version="1.1" viewBox="0 0 40 40" width="40px" xmlns="http://www.w3.org/2000/svg" xmlns:xlink="http://www.w3.org/1999/xlink"><title/><desc/><defs/><g fill="none" fill-rule="evenodd" id="Iconfinder" stroke="none" stroke-width="1"><g id="Dropbox"><g fill="#7AB0EF" id="Group-17" opacity="0.300000012" stroke="#7AB0EF" stroke-linecap="round" stroke-width="4" transform="translate(9.000000, 11.000000)"><polygon id="Path-35" points="8 21.3658919 14 18 20.0575904 21.3658919 14.0330515 24.6882657" stroke-linejoin="round"/><path d="M0.241313426,13.2011049 L5.53350177,10 L11.5580406,13.6492334 L5.77478595,16.8385454 C5.62457906,16.9213806 5.44239451,16.9214349 5.29213821,16.8386895 L0.258899585,14.066908 C0.017010309,13.9337007 -0.0710938262,13.6296248 0.0621134913,13.3877355 C0.104437447,13.3108801 0.166240003,13.2465148 0.241313426,13.2011049 Z" id="Path-35"/><path d="M0.241313426,3.11664164 L0.726258975,2.8233109 L5.27453963,0.0721761441 C5.43373491,-0.0241168706 5.63323086,-0.0240544775 5.79236587,0.0723380961 L6.86746454,0.723555734 L11.5580406,3.5647702 L5.53350177,6.88714406 L0.258899585,3.98244478 C0.017010309,3.84923746 -0.0710938262,3.54516159 0.0621134913,3.30327232 C0.104437447,3.22641684 0.166240003,3.16205157 0.241313426,3.11664164 Z" id="Path-35"/><path d="M17,13.6492334 L23.0330515,10 L28.3180517,13.201274 C28.5542429,13.3443416 28.6297344,13.6517916 28.4866667,13.8879828 C28.4413172,13.9628505 28.3771081,14.0245014 28.3004594,14.0667711 L23.2743357,16.8385454 C23.1241288,16.9213806 22.9419443,16.9214349 22.791688,16.8386895 L17,13.6492334 Z" id="Path-35"/><path d="M17,3.64923341 L22.7740894,0.156639351 C22.9332847,0.0603463367 23.1327806,0.0604087298 23.2919156,0.156801303 L28.3180517,3.20127397 C28.5542429,3.34434162 28.6297344,3.65179162 28.4866667,3.88798277 C28.4413172,3.96285051 28.3771081,4.02450137 28.3004594,4.06677111 L23.0330515,6.97160727 L17,3.64923341 Z" id="Path-35"/></g><path d="M20.03237,30.4046774 L21.9279899,29.3592932 L20.0046567,28.2905957 L18.1166809,29.3497161 L20.03237,30.4046774 Z M13.0214896,27.6216105 L19.0214896,24.2557187 C19.626753,23.9161768 20.3647713,23.9146765 20.9714102,24.2517545 L27.0290006,27.6176464 C28.4029618,28.3810861 28.3998026,30.3581879 27.0234086,31.1172328 L20.9988697,34.4396067 C20.3980422,34.7709472 19.669304,34.7711647 19.0682788,34.4401829 L13.0352273,31.117809 C11.6611087,30.3610882 11.6533602,28.3891065 13.0214896,27.6216105 Z" fill="#113E73" fill-rule="nonzero" id="Path-35"/><path d="M9.49857008,21.5680146 L11.53237,22.6880189 L13.5632483,21.5680433 L11.5323203,20.3378528 L9.49857008,21.5680146 Z M11.5337827,15.6621472 L21.5519324,21.7304235 L12.7401539,26.5898864 C11.9891195,27.004062 11.0781967,27.0043339 10.3269152,26.5906066 L5.2936766,23.8188251 C4.08423022,23.1527885 3.64370954,21.6324092 4.30974613,20.4229628 C4.52136591,20.0386854 4.83037869,19.7168591 5.20574581,19.4898094 L11.5337827,15.6621472 Z" fill="#113E73" fill-rule="nonzero" id="Path-35"/><path d="M11.8308267,10.5186666 C10.8860621,9.94639595 10.5840961,8.71659594 11.1563667,7.77183135 C11.7286373,6.82706675 12.9584373,6.52510072 13.9032019,7.09737133 L21.5519324,11.7304235 L11.533733,17.2551956 L5.2936766,13.8188251 C4.08423022,13.1527885 3.64370954,11.6324092 4.30974613,10.4229628 C4.52136591,10.0386854 4.83037869,9.71685908 5.20574581,9.48980943 L5.69069136,9.19647868 C6.63581372,8.62479914 7.86542461,8.92753437 8.43710415,9.87265673 C8.67554708,10.2668597 8.76187185,10.7105538 8.71291429,11.1353576 L11.53237,12.6880189 L13.5632483,11.5680433 L11.8308267,10.5186666 Z" fill="#113E73" fill-rule="nonzero" id="Path-35"/><path d="M28.53237,22.6880189 L30.5632483,21.5680433 L28.5323203,20.3378528 L26.4985701,21.5680146 L28.53237,22.6880189 Z M28.5337827,15.6621472 L34.8542393,19.4906264 C36.0351951,20.2059646 36.4126526,21.7432146 35.6973144,22.9241704 C35.4705668,23.2985091 35.1495212,23.6067634 34.7662776,23.8181121 L29.7401539,26.5898864 C28.9891195,27.004062 28.0781967,27.0043339 27.3269152,26.5906066 L18.5014299,21.7304522 L28.5337827,15.6621472 Z" fill="#113E73" fill-rule="nonzero" id="Path-35"/><path d="M28.53237,12.6880189 L30.5632483,11.5680433 L28.5323203,10.3378528 L26.4985701,11.5680146 L28.53237,12.6880189 Z M27.238972,6.44534393 C28.0349484,5.96387885 29.0324282,5.96419082 29.8281032,6.44615369 L34.8542393,9.49062635 C36.0351951,10.2059646 36.4126526,11.7432146 35.6973144,12.9241704 C35.4705668,13.2985091 35.1495212,13.6067634 34.7662776,13.8181121 L28.533733,17.2551956 L18.5014299,11.7304522 L27.238972,6.44534393 Z" fill="#113E73" fill-rule="nonzero" id="Path-35"/></g></g></svg>