<?xml version="1.0" ?><!DOCTYPE svg  PUBLIC '-//W3C//DTD SVG 1.1//EN'  'http://www.w3.org/Graphics/SVG/1.1/DTD/svg11.dtd'><svg height="6.82666in" style="shape-rendering:geometricPrecision; text-rendering:geometricPrecision; image-rendering:optimizeQuality; fill-rule:evenodd; clip-rule:evenodd" viewBox="0 0 6.82666 6.82666" width="6.82666in" xml:space="preserve" xmlns="http://www.w3.org/2000/svg" xmlns:xlink="http://www.w3.org/1999/xlink"><defs><style type="text/css">
   <![CDATA[
    .fil1 {fill:#004DA0}
    .fil0 {fill:#8D6E63}
    .fil2 {fill:#FFC107}
   ]]>
  </style></defs><g id="Layer_x0020_1"><path class="fil0" d="M5.79596 6.66846c0.123547,-0.0240906 0.232598,-0.0549567 0.328213,-0.096 0.0977047,-0.0344724 0.188437,-0.0887874 0.269102,-0.178035 0.102177,-0.103059 0.175862,-0.238449 0.224713,-0.418236 0.253268,-0.932126 0.282984,-4.01662 0.0506575,-4.94449 -0.0240591,-0.123622 -0.0548858,-0.232748 -0.0958858,-0.328425 -0.0343622,-0.0977165 -0.0886339,-0.188437 -0.177646,-0.269146 -0.103146,-0.10252 -0.23874,-0.176433 -0.418925,-0.22539 -0.932598,-0.253291 -4.01682,-0.283126 -4.94484,-0.0505709 -0.123362,0.0240276 -0.23226,0.0548071 -0.327791,0.0957126 -0.0979488,0.0343819 -0.188898,0.0887756 -0.269756,0.178075 -0.10235,0.103102 -0.176142,0.238598 -0.225059,0.418591 -0.253276,0.932858 -0.283157,4.0163 -0.0506457,4.94461 0.0241339,0.12398 0.0550787,0.233374 0.0962598,0.329248 0.0344409,0.0974961 0.0886378,0.188047 0.177626,0.268559 0.103102,0.102327 0.238579,0.176122 0.418547,0.225028 0.931783,0.25328 4.0182,0.283028 4.94543,0.0504724z"/><path class="fil1" d="M1.25706 1.78925l4.31254 0c0.222059,0 0.403732,0.181669 0.403732,0.403728l0 2.44071c0,0.222059 -0.181673,0.403728 -0.403732,0.403728l-4.31254 0c-0.222051,0 -0.403724,-0.181669 -0.403724,-0.403728l0 -2.44071c0,-0.222059 0.181673,-0.403728 0.403724,-0.403728z"/><path class="fil2" d="M1.25706 1.86924c-0.177898,0 -0.323728,0.145835 -0.323728,0.323732l0 2.44071c0,0.177898 0.145831,0.323732 0.323728,0.323732l4.31254 0c0.177902,0 0.323736,-0.145827 0.323736,-0.323732l0 -2.44071c0,-0.177906 -0.145835,-0.323732 -0.323736,-0.323732l-4.31254 0z"/><path class="fil1" d="M1.86688 3.56845c0.0325748,-0.0358543 0.0488622,-0.0878661 0.0488622,-0.156035 0,-0.0615984 -0.0149764,-0.11348 -0.0447913,-0.155378 -0.0299409,-0.0418976 -0.0721063,-0.0627835 -0.126744,-0.0627835 -0.0277126,0 -0.053063,0.00604331 -0.0757835,0.018126 -0.0169449,0.00893307 -0.0355945,0.0261378 -0.0558189,0.0516181l0 -0.0602874 -0.146843 0 0 0.564248 0.158398 0 0 -0.194516c0.0156339,0.0161535 0.0333622,0.0282362 0.0533268,0.0365118 0.0198307,0.00814173 0.0417638,0.0122165 0.0659331,0.0122165 0.0497795,0 0.0908858,-0.0178622 0.123461,-0.0537205zm-0.107965 -0.162339c0,0.0361181 -0.00617323,0.0617323 -0.0183858,0.0768346 -0.0123465,0.0151024 -0.0275827,0.0225906 -0.0457087,0.0225906 -0.020748,0 -0.0379567,-0.00788189 -0.0514843,-0.0236417 -0.0135315,-0.0157598 -0.0203583,-0.0397992 -0.0203583,-0.0723701 0,-0.0353307 0.00669685,-0.060811 0.0199646,-0.0765709 0.0133976,-0.0157638 0.0299449,-0.0236457 0.0499094,-0.0236457 0.0185197,0 0.0340197,0.00775197 0.0468898,0.0233819 0.0127402,0.0156299 0.0191732,0.0400591 0.0191732,0.0734213z"/><path class="fil1" d="M2.44059 3.40703c0,-0.0559488 -0.016815,-0.103102 -0.0503031,-0.141457 -0.0417677,-0.0475433 -0.1035,-0.0713189 -0.185327,-0.0713189 -0.0714528,0 -0.128189,0.0202283 -0.17022,0.0606811 -0.0420276,0.0404567 -0.0630433,0.091937 -0.0630433,0.154461 0,0.0669803 0.0248228,0.121228 0.0746024,0.162598 0.0404528,0.0334921 0.0935118,0.0501772 0.159055,0.0501772 0.0735512,0 0.131213,-0.0200984 0.17285,-0.0602874 0.0416339,-0.0403228 0.0623858,-0.091811 0.0623858,-0.154854zm-0.179413 -0.0788071c0.0145748,0.0174685 0.0218031,0.043874 0.0218031,0.0794646 0,0.0380906 -0.00722835,0.0657992 -0.0216732,0.0830079 -0.0144488,0.0172087 -0.0328386,0.025874 -0.0552953,0.025874 -0.0223268,0 -0.0407165,-0.00879528 -0.0554252,-0.0262677 -0.0147126,-0.0174685 -0.0220669,-0.0445236 -0.0220669,-0.0811693 0,-0.0359882 0.00735433,-0.0627835 0.0221969,-0.0805118 0.0148425,-0.0176024 0.033622,-0.0264016 0.0563465,-0.0264016 0.0215394,0 0.0395315,0.00866929 0.0541142,0.0260039z"/><path class="fil1" d="M2.87008 3.24009c-0.0155,-0.015626 -0.0348071,-0.027189 -0.0580551,-0.0346732 -0.0231142,-0.00748819 -0.0591024,-0.0111654 -0.107701,-0.0111654 -0.0461024,0 -0.082878,0.0048622 -0.110327,0.0144488 -0.0274488,0.00959055 -0.0489921,0.0241693 -0.0646181,0.0437362 -0.0156299,0.019437 -0.0233819,0.042689 -0.0233819,0.0696102 0,0.0246929 0.00722047,0.0466299 0.0216693,0.065937 0.0145827,0.0191772 0.032315,0.0329646 0.0534567,0.0409764 0.0212795,0.00814567 0.0589724,0.0169488 0.11335,0.0264016 0.0363819,0.00643701 0.0588425,0.0118189 0.067248,0.0161575 0.0118228,0.00617323 0.0177323,0.0149724 0.0177323,0.0262638 0,0.00998819 -0.0044685,0.0183898 -0.0135315,0.0249567 -0.0115591,0.00906299 -0.0278425,0.0135315 -0.0488583,0.0135315 -0.0193071,0 -0.0346732,-0.00394094 -0.0462323,-0.0118228 -0.0115551,-0.00788189 -0.0204882,-0.0210157 -0.0269252,-0.0394055l-0.155248 0.014189c0.00892913,0.0392717 0.0292913,0.0696102 0.0609449,0.0908858 0.0316496,0.0214094 0.0848465,0.0320512 0.159449,0.0320512 0.0527992,0 0.0945669,-0.00657087 0.125169,-0.0198346 0.0306024,-0.0132638 0.0530591,-0.0309961 0.067248,-0.0533228 0.0143189,-0.0223307 0.0214094,-0.045315 0.0214094,-0.0689567 0,-0.023378 -0.00670079,-0.0447874 -0.0202283,-0.0643583 -0.0133976,-0.0195709 -0.0328346,-0.0345433 -0.0581811,-0.0450512 -0.0254843,-0.0105039 -0.0640984,-0.0187835 -0.11624,-0.0246929 -0.0342795,-0.00407087 -0.0566102,-0.00866929 -0.0667244,-0.0139213 -0.0101142,-0.00512205 -0.0152362,-0.0126063 -0.0152362,-0.0227244 0,-0.00892913 0.0040748,-0.0165472 0.0120827,-0.0228504 0.00801575,-0.00630315 0.0208858,-0.00945669 0.0384882,-0.00945669 0.0174646,0 0.0323071,0.00407087 0.0445236,0.0122165 0.00892913,0.00617323 0.0153661,0.0157598 0.0191732,0.0287598l0.148154 -0.0141811c-0.0102441,-0.0267953 -0.0231142,-0.0479409 -0.0386102,-0.0637047z"/><path class="fil1" d="M3.27264 3.31876l0 -0.115055 -0.0859016 0 0 -0.155244 -0.156819 0.080248 0 0.0749961 -0.0575276 0 0 0.115055 0.0575276 0 0 0.143823c0,0.0455748 0.00446457,0.0786732 0.0132638,0.0990315 0.00893307,0.0203583 0.0225906,0.0355945 0.0409803,0.0455787 0.0185157,0.00998031 0.0472835,0.0149724 0.0862913,0.0149724 0.033622,0 0.0697441,-0.00420472 0.108488,-0.0127441l-0.0115551 -0.108358c-0.0208858,0.00670472 -0.0370394,0.00998425 -0.0485984,0.00998425 -0.0128701,0 -0.0219331,-0.00433465 -0.0270591,-0.0130039 -0.00328346,-0.00564567 -0.00499213,-0.0172047 -0.00499213,-0.0345433l0 -0.14474 0.0859016 0z"/><path class="fil1" d="M3.80129 3.42949c0,-0.0539803 -0.00879528,-0.0978504 -0.0265276,-0.131472 -0.0177323,-0.0337559 -0.0436063,-0.0593701 -0.0774921,-0.0770984 -0.0338858,-0.0177323 -0.0799882,-0.0266654 -0.138567,-0.0266654 -0.0721063,0 -0.128717,0.0198346 -0.169563,0.0593661 -0.0409764,0.0395354 -0.0614685,0.0914173 -0.0614685,0.155382 0,0.0449173 0.0102441,0.0840591 0.0306024,0.117421 0.0204921,0.0332244 0.0462323,0.0575236 0.0772283,0.0727598 0.0311299,0.0153661 0.073685,0.0229882 0.127929,0.0229882 0.0623898,0 0.110327,-0.00893307 0.143689,-0.0267953 0.0333622,-0.0177323 0.0618622,-0.0472835 0.0855039,-0.0882638l-0.154457 -0.0141811c-0.00972441,0.0122126 -0.0189134,0.020752 -0.0274528,0.0256102 -0.0137913,0.00761811 -0.0285,0.0114252 -0.0439961,0.0114252 -0.0244331,0 -0.0442677,-0.00879921 -0.0593701,-0.0265315 -0.0109016,-0.0123465 -0.0175984,-0.031126 -0.0204882,-0.0562126l0.314429 0 0 -0.0177323zm-0.183744 -0.122539c0.0132638,0.0131299 0.0215394,0.0349331 0.0245591,0.0654055l-0.15485 0c0.00262598,-0.0245591 0.00866929,-0.0429488 0.018126,-0.0552953 0.0149685,-0.0198346 0.034937,-0.029815 0.0598898,-0.029815 0.0216732,0 0.0390118,0.00656693 0.0522756,0.0197047z"/><path class="fil1" d="M4.32378 3.41241c0,-0.0615984 -0.0149764,-0.11348 -0.0447913,-0.155378 -0.0299449,-0.0418976 -0.0721063,-0.0627835 -0.126744,-0.0627835 -0.0277126,0 -0.053063,0.00604331 -0.0757835,0.018126 -0.0169449,0.00893307 -0.0355945,0.0261378 -0.0558189,0.0516181l0 -0.0602874 -0.146843 0 0 0.564248 0.158398 0 0 -0.194516c0.0156299,0.0161535 0.0333622,0.0282362 0.0533268,0.0365118 0.0198307,0.00814173 0.0417638,0.0122165 0.0659331,0.0122165 0.0497795,0 0.0908858,-0.0178622 0.123461,-0.0537205 0.0325709,-0.0358543 0.0488622,-0.0878661 0.0488622,-0.156035zm-0.222894 -0.103106c0.0185197,0 0.0340236,0.00775197 0.0468937,0.0233819 0.0127402,0.0156299 0.0191732,0.0400591 0.0191732,0.0734213 0,0.0361181 -0.00617323,0.0617323 -0.0183858,0.0768346 -0.0123465,0.0151024 -0.0275827,0.0225906 -0.0457087,0.0225906 -0.020752,0 -0.0379567,-0.00788189 -0.0514882,-0.0236417 -0.0135276,-0.0157598 -0.0203543,-0.0397992 -0.0203543,-0.0723701 0,-0.0353307 0.00669685,-0.060811 0.0199606,-0.0765709 0.0134016,-0.0157638 0.0299488,-0.0236457 0.0499094,-0.0236457z"/><path class="fil1" d="M4.8305 3.34491c0,-0.0193071 -0.00380709,-0.0395354 -0.0115591,-0.060685 -0.00761811,-0.0211457 -0.018126,-0.037563 -0.0315236,-0.049122 -0.0189094,-0.0166772 -0.042685,-0.0277126 -0.0710551,-0.0329646 -0.0285,-0.00525197 -0.0660669,-0.00788189 -0.112957,-0.00788189 -0.0292874,0 -0.0564764,0.00223622 -0.081563,0.00656693 -0.0250827,0.00433858 -0.0447874,0.0105118 -0.0591024,0.0185197 -0.0200984,0.0110354 -0.0353346,0.0240354 -0.0459685,0.0391417 -0.0106417,0.0149724 -0.0187835,0.0355906 -0.0244331,0.0618622l0.149728 0.0157598c0.00617323,-0.0178622 0.014189,-0.0299449 0.0241693,-0.0365118 0.0128701,-0.00827165 0.0320512,-0.0123465 0.0576614,-0.0123465 0.0199606,0 0.0338858,0.00380709 0.0417638,0.0115591 0.00801575,0.00774803 0.0119528,0.0211457 0.0119528,0.0404528 -0.019437,0.00775197 -0.0379567,0.0139252 -0.0554252,0.0186496 -0.0174685,0.0048622 -0.0555591,0.0131339 -0.114268,0.0249567 -0.0489921,0.00971654 -0.0826142,0.0246929 -0.10087,0.0447874 -0.0182559,0.0200945 -0.0273189,0.0457047 -0.0273189,0.0768386 0,0.0330945 0.0126063,0.0610709 0.0379567,0.0836614 0.0252165,0.0227244 0.0622559,0.0340197 0.110984,0.0340197 0.0366457,0 0.0688228,-0.00564961 0.0965354,-0.0169449 0.0203583,-0.00840945 0.0407165,-0.0224606 0.0612047,-0.0421575 0.00184252,0.011685 0.00367717,0.0202244 0.00538976,0.0257402 0.00183465,0.00551575 0.00564567,0.0133976 0.0115591,0.0239055l0.146705 0c-0.00814173,-0.0169449 -0.0135236,-0.0308661 -0.0158898,-0.0417677 -0.00249606,-0.0109016 -0.00367717,-0.0260039 -0.00367717,-0.045315l0 -0.180724zm-0.220398 0.0937756c0.0235118,-0.00604331 0.0459724,-0.0128701 0.0675118,-0.0206181l0 0.0252165c0,0.0197008 -0.00314961,0.0357244 -0.00945669,0.0480709 -0.00630315,0.0123465 -0.0169409,0.0227244 -0.0319134,0.0312598 -0.0151063,0.00853543 -0.0313898,0.012874 -0.0488622,0.012874 -0.0166772,0 -0.0292874,-0.00394488 -0.0379567,-0.0118228 -0.00853543,-0.00788189 -0.0128701,-0.018126 -0.0128701,-0.0306024 0,-0.0109055 0.00433465,-0.020622 0.0131339,-0.0291614 0.00840551,-0.00827165 0.0286299,-0.0166772 0.0604134,-0.0252165z"/><path class="fil1" d="M5.19905 3.64095l0.161815 -0.43724 -0.154327 0 -0.0777559 0.272272 -0.0841929 -0.272272 -0.165224 0 0.171398 0.409134c-0.00800787,0.0215433 -0.0175984,0.0365118 -0.0290236,0.0447874 -0.0114291,0.00840551 -0.0264016,0.0126102 -0.0449213,0.0126102 -0.0277126,0 -0.0527992,-0.00354724 -0.0753898,-0.0106378l0.0123465 0.109406c0.0471535,0.00604331 0.0819567,0.00919291 0.104551,0.00919291 0.055689,0 0.0970591,-0.0122126 0.124248,-0.0367756 0.0191772,-0.0173346 0.0380866,-0.0508268 0.0564764,-0.100476z"/></g></svg>