<?xml version="1.0" ?><!DOCTYPE svg  PUBLIC '-//W3C//DTD SVG 1.1//EN'  'http://www.w3.org/Graphics/SVG/1.1/DTD/svg11.dtd'><svg enable-background="new 0 0 100 100" height="100px" id="Layer_1" version="1.1" viewBox="0 0 100 100" width="100px" xml:space="preserve" xmlns="http://www.w3.org/2000/svg" xmlns:xlink="http://www.w3.org/1999/xlink"><g><path d="M49.61,3.658c-25.377,0-46.022,20.646-46.022,46.022c0,25.376,20.646,46.021,46.022,46.021s46.022-20.645,46.022-46.021   C95.633,24.304,74.987,3.658,49.61,3.658z M49.61,93.702c-24.274,0-44.022-19.748-44.022-44.021   c0-24.274,19.749-44.022,44.022-44.022s44.022,19.749,44.022,44.022C93.633,73.954,73.884,93.702,49.61,93.702z"/><path d="M75.045,35.682c-0.022-0.319-0.196-0.608-0.467-0.777l-14.219-8.899c-0.368-0.231-0.843-0.197-1.175,0.083l-9.148,7.713   l-9.149-7.713c-0.333-0.28-0.808-0.314-1.175-0.083l-14.218,8.899c-0.271,0.169-0.444,0.458-0.467,0.777   c-0.022,0.318,0.109,0.629,0.353,0.835l8.886,7.491L25.38,51.5c-0.244,0.206-0.375,0.517-0.353,0.835   c0.022,0.318,0.196,0.607,0.467,0.777l14.217,8.899c0.163,0.102,0.347,0.152,0.531,0.152c0.23,0,0.459-0.08,0.645-0.235l9.15-7.713   l9.149,7.713c0.185,0.156,0.414,0.235,0.645,0.235c0.184,0,0.368-0.05,0.531-0.152l14.218-8.899   c0.271-0.169,0.444-0.458,0.467-0.777c0.022-0.319-0.109-0.629-0.353-0.835l-8.886-7.492l8.886-7.491   C74.937,36.311,75.068,36,75.045,35.682z M27.718,35.872l12.438-7.784l8.188,6.903l-12.437,7.784L27.718,35.872z M40.154,59.929   l-12.437-7.784l8.187-6.902l12.438,7.784L40.154,59.929z M37.703,44.009l12.333-7.719l12.333,7.719l-12.333,7.718L37.703,44.009z    M72.354,52.145l-12.437,7.784l-8.188-6.903l12.438-7.784L72.354,52.145z M64.167,42.774L51.729,34.99l8.187-6.903l12.438,7.784   L64.167,42.774z"/><path d="M64.522,59.934c-0.552,0-1,0.448-1,1v2.181l-13.347,8.22l-13.346-8.22v-2.007c0-0.552-0.448-1-1-1s-1,0.448-1,1v2.566   c0,0.347,0.18,0.669,0.476,0.852l14.346,8.836c0.161,0.099,0.343,0.148,0.524,0.148s0.364-0.049,0.524-0.148l14.347-8.836   c0.295-0.182,0.476-0.504,0.476-0.852v-2.74C65.522,60.381,65.074,59.934,64.522,59.934z"/></g></svg>