<?xml version="1.0" ?><!DOCTYPE svg  PUBLIC '-//W3C//DTD SVG 1.1//EN'  'http://www.w3.org/Graphics/SVG/1.1/DTD/svg11.dtd'><svg enable-background="new 0 0 100 100" height="100px" id="Layer_1" version="1.1" viewBox="0 0 100 100" width="100px" xml:space="preserve" xmlns="http://www.w3.org/2000/svg" xmlns:xlink="http://www.w3.org/1999/xlink"><g><path d="M49.62,95.806c25.353,0,45.978-20.625,45.978-45.978S74.973,3.852,49.62,3.852S3.643,24.477,3.643,49.829   S24.268,95.806,49.62,95.806z M49.62,5.852c24.249,0,43.978,19.728,43.978,43.977c0,24.25-19.729,43.978-43.978,43.978   S5.643,74.078,5.643,49.829C5.643,25.58,25.371,5.852,49.62,5.852z"/><path d="M25.75,43.537c0.326,0.421,0.927,0.512,1.363,0.207c2.479-1.735,3.258-2.122,3.485-2.208   c0.519,0.065,2.024,0.88,3.853,7.458l4.127,15.121c2.196,5.873,5.037,8.85,8.445,8.85c5.154,0,11.146-4.532,18.313-13.851   c6.869-8.838,10.325-15.667,10.566-20.876c0.179-3.962-0.612-6.922-2.353-8.797c-1.411-1.521-3.428-2.33-5.992-2.405   c-7.531-0.244-12.659,4.013-15.29,12.629c-0.114,0.372-0.001,0.776,0.288,1.037c0.29,0.26,0.705,0.33,1.062,0.174   c1.163-0.499,2.296-0.752,3.365-0.752c0.91,0,1.563,0.212,1.939,0.629c0.451,0.5,0.613,1.382,0.482,2.637   c-0.138,1.585-1.237,4.015-3.267,7.221c-2.865,4.522-3.901,4.574-3.944,4.574c-0.013,0-1.291-0.19-2.791-7.01   c-0.37-1.464-1.055-5.351-2.034-11.553c-0.941-5.963-3.49-8.986-7.573-8.986c-0.263,0-0.533,0.013-0.805,0.04   c-1.909,0.176-4.554,1.747-8.103,4.817c-2.347,2.127-4.836,4.348-7.398,6.601c-0.397,0.349-0.454,0.946-0.13,1.364L25.75,43.537z    M32.216,33.99c3.937-3.405,5.958-4.23,6.964-4.323c0.21-0.021,0.416-0.031,0.617-0.031c1.099,0,4.445,0,5.599,7.298   c1.002,6.35,1.68,10.187,2.062,11.701c1.317,5.993,2.734,8.55,4.737,8.55c1.504,0,3.189-1.646,5.634-5.503   c2.234-3.528,3.401-6.184,3.567-8.101c0.191-1.825-0.141-3.226-0.986-4.166c-0.772-0.856-1.925-1.291-3.426-1.291   c-0.708,0-1.431,0.085-2.164,0.255c2.404-6.289,6.391-9.354,12.141-9.354c0.176,0,0.354,0.003,0.536,0.009   c2.039,0.06,3.54,0.638,4.588,1.767c1.361,1.467,1.975,3.939,1.82,7.345c-0.218,4.715-3.632,11.357-10.151,19.744   c-6.673,8.676-12.302,13.075-16.73,13.075c-2.487,0-4.698-2.541-6.544-7.463l-4.1-15.038c-1.694-6.094-3.555-8.933-5.854-8.933   c-0.443,0-1.051,0.163-3.776,2.031l-1.231-1.588C27.839,37.928,30.093,35.914,32.216,33.99z"/></g></svg>