<?xml version="1.0" ?><!DOCTYPE svg  PUBLIC '-//W3C//DTD SVG 1.1//EN'  'http://www.w3.org/Graphics/SVG/1.1/DTD/svg11.dtd'><svg enable-background="new 0 0 100 100" height="100px" id="Layer_1" version="1.1" viewBox="0 0 100 100" width="100px" xml:space="preserve" xmlns="http://www.w3.org/2000/svg" xmlns:xlink="http://www.w3.org/1999/xlink"><g><path d="M50,96.022c25.376,0,46.021-20.646,46.021-46.022S75.376,3.978,50,3.978C24.623,3.978,3.978,24.623,3.978,50   S24.623,96.022,50,96.022z M50,5.978c24.273,0,44.021,19.749,44.021,44.022S74.273,94.022,50,94.022   C25.726,94.022,5.978,74.274,5.978,50S25.726,5.978,50,5.978z"/><path d="M27.24,50.912c10.823,0.11,19.719,9.004,19.829,19.826c0.006,0.548,0.452,0.99,1,0.99h9.095c0.007,0,0.015,0,0.02,0   c0.553,0,1-0.448,1-1c0-0.072-0.007-0.142-0.021-0.21c-0.229-16.827-14.05-30.582-30.905-30.704c-0.002,0-0.005,0-0.007,0   c-0.264,0-0.518,0.104-0.704,0.291c-0.189,0.188-0.296,0.443-0.296,0.709v9.099C26.25,50.46,26.691,50.906,27.24,50.912z    M28.25,41.838c15.041,0.629,27.264,12.852,27.89,27.889h-7.103c-0.618-11.122-9.663-20.167-20.787-20.783V41.838z"/><path d="M27.245,35.445c9.396,0.042,18.229,3.722,24.87,10.363C58.77,52.464,62.45,61.315,62.479,70.73   c0.002,0.551,0.449,0.997,1,0.997h9.098c0.008,0,0.016,0,0.02,0c0.553,0,1-0.448,1-1c0-0.07-0.007-0.138-0.021-0.204   c-0.166-25.392-20.904-46.087-46.321-46.178c-0.002,0-0.003,0-0.004,0c-0.265,0-0.519,0.105-0.706,0.292   c-0.188,0.188-0.294,0.443-0.294,0.708v9.1C26.25,34.996,26.695,35.443,27.245,35.445z M28.25,26.36   c23.596,0.611,42.732,19.772,43.312,43.367h-7.1c-0.278-9.575-4.138-18.537-10.934-25.333   c-6.781-6.781-15.726-10.641-25.279-10.932V26.36z"/><path d="M33.393,71.728c3.938,0,7.143-3.202,7.143-7.139c0-3.939-3.204-7.144-7.143-7.144s-7.143,3.205-7.143,7.144   C26.25,68.525,29.454,71.728,33.393,71.728z M33.393,59.445c2.836,0,5.143,2.308,5.143,5.144c0,2.833-2.307,5.139-5.143,5.139   s-5.143-2.305-5.143-5.139C28.25,61.753,30.557,59.445,33.393,59.445z"/></g></svg>