<?xml version="1.0" ?><!DOCTYPE svg  PUBLIC '-//W3C//DTD SVG 1.1//EN'  'http://www.w3.org/Graphics/SVG/1.1/DTD/svg11.dtd'><svg enable-background="new 0 0 100 100" height="100px" id="Layer_1" version="1.1" viewBox="0 0 100 100" width="100px" xml:space="preserve" xmlns="http://www.w3.org/2000/svg" xmlns:xlink="http://www.w3.org/1999/xlink"><g><path d="M50.452,3.51C25.075,3.51,4.43,24.156,4.43,49.533s20.646,46.022,46.022,46.022c25.376,0,46.021-20.646,46.021-46.022   S75.829,3.51,50.452,3.51z M50.452,93.555c-24.274,0-44.022-19.749-44.022-44.022S26.178,5.51,50.452,5.51   c24.273,0,44.021,19.749,44.021,44.022S74.726,93.555,50.452,93.555z"/><path d="M63.718,43.278c5.305,0,9.621-4.315,9.621-9.62s-4.316-9.62-9.621-9.62s-9.621,4.315-9.621,9.62   c0,0.062,0.001,0.124,0.002,0.186L38.64,41.725c-1.647-1.216-3.647-1.879-5.702-1.879c-5.306,0-9.623,4.316-9.623,9.621   s4.317,9.621,9.623,9.621c1.856,0,3.64-0.528,5.196-1.534l15.963,8.139c0.075,5.242,4.362,9.483,9.62,9.483   c5.305,0,9.621-4.316,9.621-9.622c0-5.304-4.316-9.619-9.621-9.619c-2.156,0-4.236,0.726-5.929,2.056l-15.265-7.784   c0.022-0.257,0.034-0.502,0.034-0.739c0-0.051,0-0.102-0.001-0.152l15.484-7.896C59.684,42.622,61.675,43.278,63.718,43.278z    M41.066,47.83c-0.362,0.184-0.576,0.569-0.542,0.974c0.018,0.219,0.034,0.439,0.034,0.664c0,0.352-0.032,0.72-0.1,1.16   c-0.066,0.427,0.149,0.848,0.534,1.043l16.48,8.403c0.368,0.189,0.819,0.129,1.127-0.151c1.41-1.282,3.227-1.988,5.118-1.988   c4.202,0,7.621,3.418,7.621,7.619c0,4.203-3.419,7.622-7.621,7.622s-7.621-3.419-7.621-7.622c0-0.081,0.006-0.161,0.012-0.24   l0.01-0.171c0.02-0.394-0.193-0.763-0.544-0.942l-17.063-8.7c-0.143-0.073-0.299-0.109-0.454-0.109   c-0.21,0-0.419,0.066-0.595,0.196c-1.325,0.981-2.89,1.5-4.523,1.5c-4.203,0-7.623-3.419-7.623-7.621s3.42-7.621,7.623-7.621   c1.805,0,3.558,0.647,4.935,1.822c0.307,0.263,0.743,0.314,1.103,0.13l16.614-8.471c0.363-0.185,0.578-0.572,0.542-0.978   c-0.02-0.229-0.036-0.459-0.036-0.692c0-4.202,3.419-7.62,7.621-7.62s7.621,3.418,7.621,7.62s-3.419,7.62-7.621,7.62   c-1.796,0-3.542-0.641-4.917-1.804c-0.309-0.26-0.742-0.312-1.1-0.127L41.066,47.83z"/></g></svg>