<?xml version="1.0" ?><!DOCTYPE svg  PUBLIC '-//W3C//DTD SVG 1.1//EN'  'http://www.w3.org/Graphics/SVG/1.1/DTD/svg11.dtd'><svg enable-background="new 0 0 100 100" height="100px" id="Layer_1" version="1.1" viewBox="0 0 100 100" width="100px" xml:space="preserve" xmlns="http://www.w3.org/2000/svg" xmlns:xlink="http://www.w3.org/1999/xlink"><g><path d="M49.978,95.985c25.352,0,45.977-20.625,45.977-45.978S75.33,4.03,49.978,4.03C24.625,4.03,4,24.656,4,50.008   S24.625,95.985,49.978,95.985z M49.978,6.03c24.249,0,43.977,19.728,43.977,43.978S74.227,93.985,49.978,93.985   C25.729,93.985,6,74.257,6,50.008S25.729,6.03,49.978,6.03z"/><path d="M60.543,53.91c0.17,0.118,0.369,0.177,0.569,0.177c0.172,0,0.345-0.044,0.5-0.133c0.303-0.173,0.494-0.492,0.503-0.842   c0.009-0.349-0.165-0.678-0.458-0.867l-0.007-0.004c-0.335-0.215-0.769-0.21-1.099,0.011c-0.275,0.184-0.439,0.494-0.442,0.825   C60.107,53.408,60.271,53.721,60.543,53.91z"/><path d="M49.413,59.387c3.458,0,7.247-3.951,8.714-5.65c0.325-0.375,0.325-0.933,0-1.308c-1.469-1.698-5.259-5.646-8.714-5.646   c-2.132,0-3.66,0.757-4.67,2.314c-0.893,1.374-1.089,2.95-1.089,3.467c0,0.786,0,2.626,0.765,4.192   C44.97,57.886,46.087,59.387,49.413,59.387z M46.42,50.187c0.639-0.984,1.534-1.404,2.993-1.404c1.639,0,4.182,1.666,6.617,4.301   c-2.434,2.636-4.977,4.303-6.617,4.303c-2.461,0-2.94-0.981-3.197-1.509c-0.562-1.151-0.562-2.667-0.562-3.34   C45.654,52.305,45.79,51.155,46.42,50.187z"/><path d="M28.826,65.71l0.265,0.002c4.265,0,8.219-2.251,10.416-5.773c1.941,3.413,5.431,5.282,9.907,5.282   c4.64,0,8.813-3.165,11.698-6.118c2.886,2.954,7.061,6.118,11.699,6.118c4.74,0,8.375-2.097,10.236-5.905   c1.356-2.776,1.356-5.665,1.356-6.778c0-1.69-0.533-4.317-2.029-6.618c-2.083-3.206-5.479-4.971-9.565-4.971   c-4.638,0-8.812,3.165-11.698,6.118c-2.884-2.954-7.058-6.118-11.698-6.118c-4.086,0-7.483,1.766-9.564,4.972   c-0.152,0.235-0.297,0.477-0.435,0.725c-1.857-2.911-4.904-4.539-8.627-4.539c-1.846,0-3.375,0.354-4.731,1.118l0.675-3.836h11.903   c0.552,0,1-0.448,1-1V33.23c0-0.552-0.448-1-1-1H21.396c-0.484,0-0.899,0.348-0.984,0.825L17.37,50.118   c-0.052,0.291,0.028,0.59,0.218,0.817s0.471,0.358,0.767,0.358h5.643c0.322,0,0.625-0.155,0.812-0.417   c1.101-1.534,2.086-2.052,3.905-2.052c2.994,0,4.334,2.398,4.334,4.776c0,2.4-1.519,4.951-4.334,4.951   c-2.258,0-3.82-1.433-4.077-3.739c-0.056-0.506-0.484-0.89-0.994-0.89h-6.262c-0.269,0-0.526,0.108-0.714,0.3   s-0.291,0.452-0.286,0.72C16.537,62.381,22.754,65.71,28.826,65.71z M22.805,55.923c0.671,2.803,2.952,4.628,5.91,4.628   c3.965,0,6.334-3.534,6.334-6.951c0-3.99-2.605-6.776-6.334-6.776c-2.315,0-3.818,0.7-5.216,2.469h-3.951l2.685-15.063h15.402   v3.159H25.892c-0.485,0-0.901,0.349-0.985,0.827l-1.234,7.011c-0.057,0.321,0.047,0.65,0.278,0.88l0.088,0.088   c0.391,0.391,1.023,0.391,1.414,0c1.484-1.483,3.029-2.088,5.333-2.088c3.623,0,6.45,1.905,7.756,5.226   c0.153,0.389,0.528,0.61,0.951,0.634c0.418-0.009,0.787-0.277,0.924-0.672c0.286-0.823,0.659-1.592,1.108-2.285   c1.7-2.619,4.501-4.061,7.887-4.061c4.553,0,8.822,3.916,10.96,6.249c0.189,0.207,0.457,0.324,0.737,0.324s0.547-0.118,0.737-0.324   c2.615-2.851,6.64-6.249,10.962-6.249c3.385,0,6.187,1.442,7.888,4.061c1.257,1.935,1.706,4.125,1.706,5.554   c0,0.961,0,3.514-1.153,5.874c-1.507,3.084-4.505,4.783-8.44,4.783c-4.322,0-8.347-3.398-10.962-6.249   c-0.379-0.413-1.095-0.413-1.474,0c-2.139,2.334-6.408,6.249-10.964,6.249c-3.933,0-6.929-1.699-8.436-4.783   c-0.174-0.356-0.332-0.741-0.468-1.144c-0.135-0.398-0.504-0.669-0.924-0.679c-0.008,0-0.016,0-0.023,0   c-0.411,0-0.781,0.252-0.932,0.636c-1.51,3.865-5.342,6.462-9.537,6.462l-0.243-0.002c-4.486,0-9.727-2.063-10.396-7.787H22.805z"/><path d="M72.81,59.387c3.326,0,4.444-1.501,4.995-2.631c0.765-1.567,0.765-3.407,0.765-4.218c0-0.491-0.195-2.066-1.087-3.441   c-1.012-1.558-2.541-2.314-4.673-2.314c-3.452,0-7.244,3.949-8.714,5.646c-0.325,0.376-0.326,0.933,0,1.309   C65.565,55.437,69.356,59.387,72.81,59.387z M72.81,48.783c1.46,0,2.356,0.42,2.996,1.403c0.628,0.969,0.764,2.119,0.764,2.377   c0,0.647,0,2.164-0.562,3.315c-0.257,0.527-0.736,1.508-3.198,1.508c-1.637,0-4.181-1.667-6.617-4.303   C68.629,50.449,71.173,48.783,72.81,48.783z"/></g></svg>