<?xml version="1.0" ?><svg id="Layer_1" style="enable-background:new 0 0 50 50;" version="1.1" viewBox="0 0 50 50" xml:space="preserve" xmlns="http://www.w3.org/2000/svg" xmlns:xlink="http://www.w3.org/1999/xlink"><style type="text/css">
	.st0{fill:#414042;}
</style><g><path class="st0" d="M41.6,23.9c0,0,0.4-6.8-4.3-10.9l-1.4,2.8c0,0,3.3,4.2,3.7,8.3L41.6,23.9z"/><path class="st0" d="M46,33.3l0.3-2c-5.2-0.9-9.8-0.9-14-0.3c0.1-0.4,0.3-0.7,0.4-1c1.4-2.5,0.4-3.6-0.7-5.1   c-1.1-1.5-3.5-5.4-3.5-5.4s5.3-4.8,6-5.4c0.7-0.6,2-2,0.3-3.1c-1.6-1.1-6.2-2-9.3-8l-2.5,1c0,0,2,5.9,7.8,8.5c0,0-4.9,4.1-5.6,5.3   s-1.1,1.7,0,3.6s4.1,6.5,4.1,6.5s-0.7,1.6-1.4,3.9c-1.8,0.4-3.5,1-5.1,1.6c1.8-2.5,3.7-6.8,3.7-6.8l-2.2-2   c-1.8,1.4-5.6,6.6-6.8,8.3l-8.7-4l-1.2,1c0,0,5.1,2.5,11.2,5.4C10.5,39.5,6.2,45.4,6.1,45.5l1.6,1.2c0,0,3.2-4.5,9.5-8.3   c1.1-0.7,2.4-1.4,3.9-2.1c8.3,4,17.5,8.3,17.6,8.2c0.2-0.2,1.6-1,1.6-1L30.7,39c0.1-1.2,0.5-3.7,1-5.8C35.9,32.5,40.6,32.4,46,33.3   z M26.8,37.2l-3.7-1.7c1.3-0.5,2.7-1,4.3-1.4C27.1,35,26.9,36.1,26.8,37.2z"/><ellipse class="st0" cx="38.4" cy="8.4" rx="2.5" ry="2.7"/></g></svg>