<?xml version="1.0" ?><svg id="Layer_1" style="enable-background:new 0 0 50 50;" version="1.1" viewBox="0 0 50 50" xml:space="preserve" xmlns="http://www.w3.org/2000/svg" xmlns:xlink="http://www.w3.org/1999/xlink"><style type="text/css">
	.st0{fill:#414042;}
</style><g><path class="st0" d="M46.3,33.1l0.3-1.5c-3.2-0.6-6.2-0.8-9-0.8L43.5,16c0,0-4.5,2.2-5.8-4.7l-2.1,3.2c0,0,1.5,4,5.2,3.8l-5.2,12.7   c-1.3,0.1-2.5,0.2-3.7,0.4c0.3-0.5,0.6-0.9,0.9-1.3c0,0,1.8-1.6,0-4.2c-1.8-2.6-4.4-6.6-4.4-6.6s3.1-4.1,6.7-6.9c0,0,2.9-2.1,0-3.4   S24.7,6.1,24,7.1c0,0-1.9,1.6,2.3,3.9L12.9,21.5l0.6,1.6l16.1-12.8l1.6,0.6c0,0-4.8,4.2-6.2,6.4c-1.4,2.1-0.2,3.3,0.4,4.2   s4.1,6.3,4.1,6.3s-1.2,1.7-2.3,4.4c0,0,0,0-0.1,0l-3.3-1l2.9-4.7l-2.2-2.2L19.9,30L8.5,26.4L8,27.8l16.8,5.3   c-1.9,0.7-3.7,1.4-5.4,2.3l-6.4-2.1l-0.4,1.2l5.2,1.7c-7.5,4.2-11.6,9.4-11.7,9.5l1.2,0.9c0.1-0.1,4.4-5.6,12.4-9.8l24.2,7.9   l1.6-0.9l-15.9-5.1l0,0c0,0,0.2-1.7,0.9-3.8l8.7,2.7l1.8-1.2l-9.9-3c0.1-0.2,0.1-0.4,0.2-0.5C35.7,32.2,40.7,32.1,46.3,33.1z    M21.4,36.1c1.6-0.7,3.3-1.4,5.2-2c-0.3,1-0.6,2.2-0.9,3.4l0,0L21.4,36.1z"/><ellipse class="st0" cx="40.1" cy="7.8" rx="2.7" ry="2.9"/></g></svg>