<?xml version="1.0" ?><svg id="Layer_1" style="enable-background:new 0 0 50 50;" version="1.1" viewBox="0 0 50 50" xml:space="preserve" xmlns="http://www.w3.org/2000/svg" xmlns:xlink="http://www.w3.org/1999/xlink"><style type="text/css">
	.st0{fill:#414042;}
</style><g><path class="st0" d="M29.1,13.9l-15.7,9.6c0.8-1.2,6.1-9.1,18.7-16c0,0,2.5-0.7,2.5-2.4c0-1.7-3-2-5-2.2c-2-0.2-6.2,0.2-12,3.1   l0.7,2.2c0,0,4.2-2.6,10.4-2.5c0,0-10.9,5.2-18.2,16.2l0.8,3l-9.1,5.6L3,31.6l26.2-16.1V13.9z"/><path class="st0" d="M46.7,43.6l1.2-1.3c0,0-6-0.4-12-0.8c0.3-1.1,1.2-4.4,1.7-5.5c0.5-1.3,0.8-2,0-2.7s-4-3.1-4-3.1l-0.8,2.5   l2.1,2.1c0,0-1.7,2.8-2.5,6.5C27.9,41,24,40.7,24,40.7l6.3-7c0,0,1.7-5.4,7.3-8.5c0,0,1.8-0.7,2-2s-1.6-1.8-3.5-2.2   c-1.9-0.4-7.8-1.4-12,4.9l-11.2,1.7l-0.5,1.7l14.1-2.5c0,0,2.8-4,7.7-3.1c0,0-4.8,3.3-6.5,8l-8.2,9l1,2.3l-10.1-2.9l-0.2,1.4   l25,7.2l1.5-1l-15-4.3l1.2-1.3L46.7,43.6z"/><ellipse class="st0" cx="42.4" cy="21.2" rx="2.1" ry="2.3"/><ellipse class="st0" cx="37.8" cy="3.6" rx="2.1" ry="2.3"/></g></svg>