<?xml version="1.0" ?><svg id="Layer_1" style="enable-background:new 0 0 50 50;" version="1.1" viewBox="0 0 50 50" xml:space="preserve" xmlns="http://www.w3.org/2000/svg" xmlns:xlink="http://www.w3.org/1999/xlink"><style type="text/css">
	.st0{fill:#414042;}
</style><g><path class="st0" d="M22.9,41.7l-4.7-8.1c2.1-1.8,4.9-7.1,4.9-7.1L20.4,25c-1.3,0.9-3.5,3.7-4.3,4.8l-1.9-3.3   c4.4-2.4,6.6-5.7,6.6-5.7s0.3,0.4,3.4,4.5c3.1,4,4,0,4,0c2.6-8-2-14.7-2-14.7c6.9-2,10.4-6.4,10.4-6.4l-2-1.8   c-2.5,2.4-6.8,4.8-10.8,5.5c-4,0.6-1.1,3.5-1.1,3.5C25.9,16.1,25,20,25,20s-1.7-2.6-2.1-3.2c-0.4-0.6-2.1-3-4.3,0.2   c-2,2.9-5.6,5.5-6.4,6.1l-1.5-2.5c3.8-4.1,9.8-7.7,9.8-7.7l-0.8-3.3c-3.6,1.4-8.8,7.2-10.2,8.9l-2.1-3.5H5.5l15.7,26.8H22.9z"/><path class="st0" d="M45.2,39.2c-11.5,11.4-24.8,5.5-25.4,5.2C3.9,37.7,4.6,22.2,4.7,21.5l-2-0.1C2.7,21.6,1.8,39,19,46.2   c0.1,0,4.2,1.9,9.8,1.9c5.2,0,11.8-1.5,17.8-7.5L45.2,39.2z"/><circle class="st0" cx="19.5" cy="5.3" r="2.9"/></g></svg>