<?xml version="1.0" ?><!DOCTYPE svg  PUBLIC '-//W3C//DTD SVG 1.1//EN'  'http://www.w3.org/Graphics/SVG/1.1/DTD/svg11.dtd'><svg height="8.4666mm" style="shape-rendering:geometricPrecision; text-rendering:geometricPrecision; image-rendering:optimizeQuality; fill-rule:evenodd; clip-rule:evenodd" version="1.1" viewBox="0 0 847 847" width="8.4666mm" xml:space="preserve" xmlns="http://www.w3.org/2000/svg" xmlns:xlink="http://www.w3.org/1999/xlink"><defs><style type="text/css">
   <![CDATA[
    .fil0 {fill:black;fill-rule:nonzero;fill-opacity:0.501961}
   ]]>
  </style></defs><g id="Layer_x0020_1"><path class="fil0" d="M606 621l0 -121c0,-20 -8,-38 -21,-51 -12,-13 -30,-21 -49,-21l-225 0c-19,0 -37,8 -50,21 -12,13 -20,31 -20,51l0 121c0,9 -8,17 -17,17l-77 0c-30,0 -56,-13 -76,-32 -19,-20 -31,-47 -31,-77l0 -236c0,-29 12,-56 31,-76 20,-20 46,-32 76,-32l156 0 0 -43c0,-22 9,-43 22,-57 15,-15 34,-24 56,-24l85 0c22,0 41,9 55,24 14,14 23,35 23,57l0 43 156 0c29,0 56,12 75,32 20,20 32,47 32,76l0 236c0,30 -12,57 -32,77 -19,19 -46,32 -75,32l-77 0c-9,0 -17,-8 -17,-17zm34 -121l0 104 60 0c20,0 38,-9 51,-22 14,-13 22,-32 22,-53l0 -236c0,-20 -8,-39 -22,-52 -13,-14 -31,-22 -51,-22l-553 0c-20,0 -38,8 -52,22 -13,13 -21,32 -21,52l0 236c0,21 8,40 21,53 14,13 32,22 52,22l60 0 0 -104c0,-29 11,-55 30,-75 19,-19 45,-31 74,-31l225 0c28,0 55,12 73,31 19,20 31,46 31,75zm-303 -315l173 0 0 -43c0,-14 -5,-26 -13,-34 -8,-8 -19,-14 -31,-14l-85 0c-12,0 -23,6 -31,14 -8,9 -13,20 -13,34l0 43zm44 291l85 0c22,0 41,10 55,24l1 1c13,15 22,35 22,56l0 148c0,22 -9,42 -23,57l-1 1c-14,14 -33,23 -54,23l-85 0c-22,0 -41,-9 -56,-24 -13,-15 -22,-35 -22,-57l0 -148c0,-22 9,-42 22,-57 15,-14 34,-24 56,-24zm85 34l-85 0c-12,0 -23,5 -31,14 -8,8 -13,20 -13,33l0 148c0,13 5,25 13,34 8,8 19,13 31,13l85 0c12,0 22,-5 30,-13l1 0c8,-9 13,-21 13,-34l0 -148c0,-12 -5,-24 -12,-33l-1 0c-8,-9 -19,-14 -31,-14z"/></g></svg>