<?xml version="1.0" ?><!DOCTYPE svg  PUBLIC '-//W3C//DTD SVG 1.1//EN'  'http://www.w3.org/Graphics/SVG/1.1/DTD/svg11.dtd'><svg height="8.4666mm" style="shape-rendering:geometricPrecision; text-rendering:geometricPrecision; image-rendering:optimizeQuality; fill-rule:evenodd; clip-rule:evenodd" version="1.1" viewBox="0 0 847 847" width="8.4666mm" xml:space="preserve" xmlns="http://www.w3.org/2000/svg" xmlns:xlink="http://www.w3.org/1999/xlink"><defs><style type="text/css">
   <![CDATA[
    .fil0 {fill:black;fill-rule:nonzero;fill-opacity:0.501961}
   ]]>
  </style></defs><g id="Layer_x0020_1"><path class="fil0" d="M196 624l-75 1c-21,0 -40,-9 -54,-23 -14,-14 -23,-34 -23,-55l0 -175c0,-22 9,-41 23,-55 14,-14 33,-23 55,-23l74 0 0 -193c0,-9 8,-17 17,-17l420 0c9,0 17,8 17,17l0 193 75 0c21,0 41,9 55,23l0 0c14,14 23,34 23,55l0 174c0,22 -9,41 -23,56 -14,14 -34,23 -55,23l-75 0 0 121c0,9 -8,16 -17,16l-420 0c-9,0 -17,-7 -17,-16l0 -122zm-74 -33l74 -1 0 -35c0,-9 8,-17 17,-17l420 0c9,0 17,8 17,17l0 36 75 0c12,0 23,-5 31,-13 8,-8 13,-19 13,-32l0 -174c0,-12 -5,-23 -13,-31 -8,-8 -19,-13 -31,-13l-603 0c-12,0 -23,5 -31,13 -8,8 -13,19 -13,31l0 175c0,12 5,23 13,31 8,8 18,13 30,13l1 0zm108 -297l386 0 0 -176 -386 0 0 176zm386 435l0 -157 -386 0 0 157 386 0z"/></g></svg>