<?xml version="1.0" ?><!DOCTYPE svg  PUBLIC '-//W3C//DTD SVG 1.1//EN'  'http://www.w3.org/Graphics/SVG/1.1/DTD/svg11.dtd'><svg height="8.4666mm" style="shape-rendering:geometricPrecision; text-rendering:geometricPrecision; image-rendering:optimizeQuality; fill-rule:evenodd; clip-rule:evenodd" version="1.1" viewBox="0 0 847 847" width="8.4666mm" xml:space="preserve" xmlns="http://www.w3.org/2000/svg" xmlns:xlink="http://www.w3.org/1999/xlink"><defs><style type="text/css">
   <![CDATA[
    .fil0 {fill:black;fill-rule:nonzero;fill-opacity:0.501961}
   ]]>
  </style></defs><g id="Layer_x0020_1"><path class="fil0" d="M680 313c12,0 23,5 31,13 8,9 13,20 13,32 0,12 -5,24 -13,32 -8,8 -19,13 -31,13 -13,0 -24,-5 -32,-13 -8,-8 -13,-20 -13,-32 0,-12 5,-23 13,-32 8,-8 19,-13 32,-13zm7 37c-2,-2 -4,-3 -7,-3 -3,0 -6,1 -8,3 -2,2 -3,5 -3,8 0,3 1,6 3,8 2,2 5,3 8,3 3,0 5,-1 7,-3 2,-2 3,-5 3,-8 0,-3 -1,-6 -3,-8zm-31 103l0 128 36 0c21,0 40,-9 54,-23 15,-15 23,-34 23,-56l0 -157c0,-22 -8,-42 -23,-56 -14,-15 -33,-23 -54,-23l-537 0c-21,0 -41,8 -55,23 -14,14 -23,34 -23,56l0 157c0,22 9,41 23,56 14,14 34,23 55,23l35 0 0 -128c0,-9 8,-17 17,-17l432 0c10,0 17,8 17,17zm0 162l0 113c0,10 -7,17 -17,17l-432 0c-9,0 -17,-7 -17,-17l0 -113 -35 0c-31,0 -59,-13 -79,-33 -20,-21 -33,-49 -33,-80l0 -157c0,-31 13,-59 33,-80 20,-21 48,-33 79,-33l537 0c30,0 58,12 79,33 20,21 32,49 32,80l0 157c0,31 -12,59 -32,80 -21,20 -49,33 -79,33l-36 0zm-33 97l0 -242 -399 0 0 242 399 0zm-399 -509c0,10 -7,17 -17,17 -9,0 -17,-7 -17,-17l0 -85c0,-9 8,-17 17,-17l432 0c10,0 17,8 17,17l0 85c0,10 -7,17 -17,17 -9,0 -16,-7 -16,-17l0 -68 -399 0 0 68z"/></g></svg>