<?xml version="1.0" ?><!DOCTYPE svg  PUBLIC '-//W3C//DTD SVG 1.1//EN'  'http://www.w3.org/Graphics/SVG/1.1/DTD/svg11.dtd'><svg height="8.4666mm" style="shape-rendering:geometricPrecision; text-rendering:geometricPrecision; image-rendering:optimizeQuality; fill-rule:evenodd; clip-rule:evenodd" version="1.1" viewBox="0 0 847 847" width="8.4666mm" xml:space="preserve" xmlns="http://www.w3.org/2000/svg" xmlns:xlink="http://www.w3.org/1999/xlink"><defs><style type="text/css">
   <![CDATA[
    .fil0 {fill:black;fill-rule:nonzero;fill-opacity:0.501961}
   ]]>
  </style></defs><g id="Layer_x0020_1"><path class="fil0" d="M231 580l-88 0c-8,0 -15,-4 -20,-9 -6,-5 -10,-12 -10,-20l0 -165c0,-8 4,-15 10,-20 5,-5 12,-8 20,-8l45 0 0 -61c0,-10 7,-17 16,-17l27 0 0 -92c0,-8 3,-16 9,-21 5,-5 12,-9 20,-9l326 0c8,0 16,4 21,9 6,5 9,13 9,21l0 92 26 0c10,0 17,7 17,17l0 61 44 0c8,0 16,3 21,8l1 1c5,5 8,12 8,19l0 165c0,8 -3,15 -9,20 -5,5 -13,9 -21,9l-87 0 0 79c0,8 -4,16 -9,21 -5,5 -13,8 -21,8l-326 0c-8,0 -15,-3 -20,-8 -6,-5 -9,-13 -9,-21l0 -79zm-84 -34l84 0 0 -18c0,-2 0,-4 0,-5 2,-6 5,-12 10,-17l0 0c5,-5 12,-8 19,-8l326 0c8,0 15,3 20,8 4,5 7,11 9,17 1,2 1,3 1,5l0 18 83 0 0 -155 -552 0 0 155zm74 -188l10 0 0 -45 -10 0 0 45zm44 0l317 0 0 -166 -317 0 0 166zm351 0l9 0 0 -45 -9 0 0 45zm-34 296l0 -122 -317 0 0 122 317 0z"/></g></svg>