<?xml version="1.0" ?><!DOCTYPE svg  PUBLIC '-//W3C//DTD SVG 1.1//EN'  'http://www.w3.org/Graphics/SVG/1.1/DTD/svg11.dtd'><svg height="8.4666mm" style="shape-rendering:geometricPrecision; text-rendering:geometricPrecision; image-rendering:optimizeQuality; fill-rule:evenodd; clip-rule:evenodd" version="1.1" viewBox="0 0 847 847" width="8.4666mm" xml:space="preserve" xmlns="http://www.w3.org/2000/svg" xmlns:xlink="http://www.w3.org/1999/xlink"><defs><style type="text/css">
   <![CDATA[
    .fil0 {fill:black;fill-rule:nonzero;fill-opacity:0.501961}
   ]]>
  </style></defs><g id="Layer_x0020_1"><path class="fil0" d="M596 367c-9,0 -16,-8 -16,-17 0,-9 7,-17 16,-17l74 0c9,0 17,8 17,17 0,9 -8,17 -17,17l-74 0zm1 -151l0 -72c0,-8 -4,-17 -11,-22 -7,-7 -17,-11 -28,-11l-269 0c-11,0 -21,4 -29,11 -6,5 -11,14 -11,22l0 72 348 0zm34 -72l0 72 80 0c25,0 48,10 65,27l1 1c16,16 26,39 26,64l0 217c0,26 -10,49 -27,65 -17,17 -40,28 -65,28l-47 0 0 71c0,22 -10,42 -25,57 -15,14 -35,23 -58,23l-315 0c-23,0 -44,-9 -59,-23 -15,-15 -24,-35 -24,-57l0 -71 -47 0c-26,0 -49,-11 -65,-28 -17,-16 -27,-39 -27,-65l0 -217c0,-26 10,-49 27,-65 16,-17 39,-27 65,-27l80 0 0 -72c0,-19 8,-36 22,-48 13,-11 31,-19 51,-19l269 0c19,0 38,8 51,19 13,12 22,29 22,48zm-331 502c-9,0 -17,-7 -17,-16 0,-10 8,-17 17,-17l246 0c10,0 17,7 17,17 0,9 -7,16 -17,16l-246 0zm0 -65c-9,0 -17,-8 -17,-17 0,-10 8,-17 17,-17l246 0c10,0 17,7 17,17 0,9 -7,17 -17,17l-246 0zm-34 -157l315 0c23,0 43,9 58,23 15,15 25,35 25,58l0 79 47 0c16,0 31,-7 41,-17 11,-11 17,-26 17,-42l0 -217c0,-16 -6,-30 -16,-41l-1 -1c-10,-10 -25,-17 -41,-17l-575 0c-16,0 -31,7 -42,17 -10,11 -17,26 -17,42l0 217c0,16 7,31 17,42 11,10 26,17 42,17l47 0 0 -79c0,-23 9,-43 24,-58 15,-14 36,-23 59,-23zm315 34l-315 0c-14,0 -26,5 -35,14 -9,8 -14,20 -14,33l0 184c0,13 5,24 14,33 9,8 21,13 35,13l315 0c14,0 26,-5 35,-13 9,-9 14,-20 14,-33l0 -184c0,-13 -5,-25 -14,-33 -9,-9 -21,-14 -35,-14z"/></g></svg>