<?xml version="1.0" ?><svg data-name="Livello 1" height="48" id="Livello_1" viewBox="0 0 48 48" width="48" xmlns="http://www.w3.org/2000/svg"><defs><style>.cls-1{fill:#51ba65;}.cls-2{fill:#459e54;}.cls-3{fill:#f2f2f3;}</style></defs><title/><g id="Spotify"><circle class="cls-1" cx="24" cy="24" r="24"/><path class="cls-2" d="M24,0c-.35,0-.7.012-1.043.026C34.663.573,44,11.1,44,24S34.663,47.427,22.957,47.974C23.3,47.988,23.65,48,24,48A24,24,0,0,0,24,0Z"/><path class="cls-3" d="M34.541,21.036a1.984,1.984,0,0,1-.96-.247,28.963,28.963,0,0,0-23.473-2.057,2,2,0,1,1-1.3-3.781,32.951,32.951,0,0,1,26.7,2.332,2,2,0,0,1-.964,3.753Z"/><path class="cls-3" d="M31.9,28.065a1.49,1.49,0,0,1-.76-.207,22.865,22.865,0,0,0-19.523-1.767,1.5,1.5,0,0,1-1.05-2.811,25.916,25.916,0,0,1,22.1,1.992,1.5,1.5,0,0,1-.762,2.793Z"/><path class="cls-3" d="M29.834,34.845A1.487,1.487,0,0,1,29,34.59a16.911,16.911,0,0,0-16.163-1.529,1.5,1.5,0,1,1-1.2-2.75,19.594,19.594,0,0,1,7.889-1.655A19.961,19.961,0,0,1,30.672,32.1a1.5,1.5,0,0,1-.838,2.745Z"/></g></svg>