<?xml version="1.0" ?><svg data-name="Livello 1" height="48" id="Livello_1" viewBox="0 0 48 48" width="48" xmlns="http://www.w3.org/2000/svg"><defs><style>.cls-1{fill:#d8d8d8;}.cls-2{fill:#bcbcbc;}.cls-3{fill:#a09f9f;}</style></defs><title/><g id="Impostazioni"><path class="cls-1" d="M37.234,7.855a18.564,18.564,0,0,0-5.508-2.937V2a2,2,0,0,0-2-2H18.274a2,2,0,0,0-2,2V4.918a18.552,18.552,0,0,0-5.508,2.937h0L10.681,7.8a1.82,1.82,0,0,0-1-.261l0-.007H5.549l-.023.016h0a1.9,1.9,0,0,0-1.453.984L.256,15.464a2.053,2.053,0,0,0,.7,2.732l2.422,1.465a20.52,20.52,0,0,0,0,8.678L.955,29.8a2.053,2.053,0,0,0-.7,2.732l3.817,6.928a1.9,1.9,0,0,0,1.434.98h0l-.011.02,4.168,0v0a1.818,1.818,0,0,0,1.017-.261l.085-.052h0a18.554,18.554,0,0,0,5.508,2.938V46a2,2,0,0,0,2,2H29.726a2,2,0,0,0,2-2V43.082a18.567,18.567,0,0,0,5.508-2.938l.085.052a1.815,1.815,0,0,0,.9.258h0v.009h4.02l0-.009a1.884,1.884,0,0,0,1.681-.991l3.817-6.928a2.06,2.06,0,0,0,.249-1.151h0a2.059,2.059,0,0,0-.08-.428c-.012-.04-.028-.078-.042-.117a2.031,2.031,0,0,0-.126-.287c-.023-.043-.047-.084-.073-.125a2.114,2.114,0,0,0-.187-.245c-.03-.034-.057-.069-.09-.1a1.87,1.87,0,0,0-.35-.278l-2.422-1.465a20.52,20.52,0,0,0,0-8.678L47.045,18.2a1.883,1.883,0,0,0,.348-.275c.031-.03.056-.063.084-.095a1.956,1.956,0,0,0,.193-.252c.023-.036.044-.072.064-.109a1.936,1.936,0,0,0,.137-.3c.011-.031.023-.061.033-.092a2.073,2.073,0,0,0-.16-1.6L43.927,8.536a1.893,1.893,0,0,0-1.572-.994v0H38.222l0,.007h0a1.822,1.822,0,0,0-.9.258ZM6.157,7.6c-.027-.007-.054-.014-.081-.019C6.1,7.583,6.129,7.59,6.157,7.6ZM24,31.712a8.095,8.095,0,0,1,0-15.424,8.095,8.095,0,0,1,0,15.424Z"/><path class="cls-2" d="M27.726,2V4.918a18.872,18.872,0,0,1,7.16,4.358l2.348-1.421a18.564,18.564,0,0,0-5.508-2.937V2a2,2,0,0,0-2-2h-4A2,2,0,0,1,27.726,2Z"/><path class="cls-2" d="M47.045,29.8l-2.422-1.465a20.52,20.52,0,0,0,0-8.678L47.045,18.2a2.053,2.053,0,0,0,.7-2.732L43.927,8.536a1.893,1.893,0,0,0-1.572-.994v0H38.222l0,.007a1.883,1.883,0,0,1,1.7.99l3.817,6.928a2.053,2.053,0,0,1-.7,2.732l-2.422,1.465a20.52,20.52,0,0,1,0,8.678L43.045,29.8a2.053,2.053,0,0,1,.7,2.732l-2.863,5.2h0l-.954,1.733a1.882,1.882,0,0,1-1.7.99v.009h4.02l0-.009a1.884,1.884,0,0,0,1.681-.991l3.817-6.928A2.053,2.053,0,0,0,47.045,29.8Z"/><path class="cls-2" d="M34.885,38.724a18.86,18.86,0,0,1-7.159,4.358V46a2,2,0,0,1-2,2h4a2,2,0,0,0,2-2V43.082a18.567,18.567,0,0,0,5.508-2.938Z"/><path class="cls-2" d="M18.365,24A7.955,7.955,0,0,1,24,16.288,7.28,7.28,0,0,0,22,16a7.833,7.833,0,0,0-7.635,8A7.833,7.833,0,0,0,22,32a7.28,7.28,0,0,0,2-.288A7.955,7.955,0,0,1,18.365,24Z"/><path class="cls-2" d="M6.681,7.8,9.114,9.276a19.885,19.885,0,0,1,1.652-1.42h0L10.681,7.8a1.82,1.82,0,0,0-1-.261l0-.007H5.549l-.023.016A1.826,1.826,0,0,1,6.681,7.8Z"/><path class="cls-2" d="M9.115,38.724,6.681,40.2a1.821,1.821,0,0,1-1.174.248l-.011.02,4.168,0v0a1.818,1.818,0,0,0,1.017-.261l.085-.052h0A19.71,19.71,0,0,1,9.115,38.724Z"/><path class="cls-3" d="M47.989,16.643h-4a2.006,2.006,0,0,1-.944,1.553l-2.422,1.465h4L47.045,18.2A2.006,2.006,0,0,0,47.989,16.643Z"/><path class="cls-3" d="M34.885,38.724a18.86,18.86,0,0,1-7.159,4.358h4a18.567,18.567,0,0,0,5.508-2.938Z"/><path class="cls-3" d="M43.045,29.8a2.008,2.008,0,0,1,.948,1.581h4a2.008,2.008,0,0,0-.948-1.581l-2.422-1.465h-4Z"/><path class="cls-3" d="M37.234,7.855a18.564,18.564,0,0,0-5.508-2.937h-4a18.872,18.872,0,0,1,7.16,4.358Z"/></g></svg>