<?xml version="1.0" ?><svg id="Layer_1" style="enable-background:new 0 0 100 100;" version="1.1" viewBox="0 0 100 100" xml:space="preserve" xmlns="http://www.w3.org/2000/svg" xmlns:xlink="http://www.w3.org/1999/xlink"><g><path d="M50,10c-19.344,0-35.082,15.738-35.082,35.082v29.076C14.918,82.893,22.025,90,30.761,90   c8.735,0,15.842-7.107,15.842-15.842v-8.521c0-4.389-2.04-8.581-5.456-11.215c-3.709-2.86-5.818-7.362-5.642-12.044   c0.279-7.398,6.525-13.648,13.923-13.932c3.992-0.166,7.761,1.283,10.628,4.042c2.868,2.761,4.448,6.473,4.448,10.452   c0,4.577-2.096,8.79-5.751,11.558c-3.354,2.541-5.356,6.705-5.356,11.143v8.518C53.397,82.893,60.504,90,69.24,90   c8.735,0,15.842-7.107,15.842-15.842V45.082C85.082,25.738,69.344,10,50,10z M16.918,45.082c0-0.876,0.045-1.741,0.112-2.601   h16.476c-0.038,1.414,0.11,2.81,0.423,4.161h-17.01V45.082z M30.76,88c-7.405,0-13.453-5.849-13.808-13.168h27.617   C44.213,82.151,38.165,88,30.76,88z M44.603,72.832H16.918v-4.161h27.685V72.832z M39.927,56.005   c2.928,2.258,4.676,5.858,4.676,9.631v1.035H16.918V48.642h17.609C35.59,51.518,37.439,54.088,39.927,56.005z M45.9,26.965   c-6.331,1.635-11.224,6.96-12.213,13.516H17.245c2.06-14.733,13.854-26.379,28.655-28.218V26.965z M52.061,26.576   c-0.677-0.084-1.36-0.141-2.054-0.141c-0.218,0-0.436,0.004-0.654,0.013c-0.49,0.019-0.974,0.065-1.453,0.126v-14.5   C48.595,12.03,49.294,12,50,12c0.693,0,1.379,0.028,2.061,0.071V26.576z M61.444,31.046c-2.101-2.023-4.636-3.403-7.383-4.094   V12.258c14.819,1.823,26.633,13.478,28.694,28.223H66.304C65.774,36.899,64.107,33.61,61.444,31.046z M69.24,88   c-7.405,0-13.453-5.849-13.808-13.168h27.617C82.692,82.151,76.645,88,69.24,88z M83.082,72.832H55.397v-4.161h27.685V72.832z    M83.082,66.671H55.397V65.64c0-3.814,1.706-7.384,4.563-9.548c2.583-1.956,4.479-4.548,5.547-7.477   c0.047,0.007,0.088,0.028,0.137,0.028h17.438V66.671z M83.082,46.642H66.086c0.273-1.199,0.419-2.438,0.419-3.703   c0-0.154-0.019-0.305-0.023-0.458H82.97c0.067,0.859,0.112,1.724,0.112,2.601V46.642z"/><path d="M75.808,36.813c0.128,0.436,0.526,0.719,0.959,0.719c0.093,0,0.188-0.013,0.282-0.041c0.53-0.155,0.833-0.711,0.678-1.241   c-2.223-7.583-7.562-13.97-14.647-17.522c-0.496-0.248-1.095-0.047-1.342,0.446c-0.247,0.494-0.048,1.095,0.446,1.342   C68.774,23.821,73.74,29.761,75.808,36.813z"/><path d="M77.625,63.893c0.552,0,1-0.448,1-1V52.5c0-0.552-0.448-1-1-1c-0.552,0-1,0.448-1,1v10.393   C76.625,63.445,77.073,63.893,77.625,63.893z"/></g></svg>