<?xml version="1.0" ?><svg id="Layer_1" style="enable-background:new 0 0 100 100;" version="1.1" viewBox="0 0 100 100" xml:space="preserve" xmlns="http://www.w3.org/2000/svg" xmlns:xlink="http://www.w3.org/1999/xlink"><g><path d="M88.631,46.405L53.595,11.369c-1.982-1.982-5.208-1.982-7.19,0L11.369,46.405c-1.983,1.982-1.983,5.208,0,7.19   l35.036,35.036c0.991,0.991,2.293,1.487,3.595,1.487c1.302,0,2.604-0.496,3.595-1.487l35.036-35.036   C90.614,51.613,90.614,48.387,88.631,46.405z M87.217,52.181L52.181,87.217c-1.203,1.202-3.159,1.202-4.362,0L12.783,52.181   c-1.203-1.203-1.203-3.16,0-4.362l35.036-35.036c0.602-0.601,1.391-0.902,2.181-0.902s1.58,0.301,2.181,0.902l35.036,35.036   C88.42,49.021,88.42,50.979,87.217,52.181z"/><path d="M34.92,67.48c-0.391-0.391-1.023-0.391-1.414,0c-0.391,0.391-0.391,1.023,0,1.414l2.134,2.134   c0.195,0.195,0.451,0.293,0.707,0.293c0.256,0,0.512-0.098,0.707-0.293c0.391-0.391,0.391-1.023,0-1.414L34.92,67.48z"/><path d="M23.102,41.51l-2.134,2.134c-0.391,0.391-0.391,1.023,0,1.414c0.195,0.195,0.451,0.293,0.707,0.293   c0.256,0,0.512-0.098,0.707-0.293l2.134-2.134c0.391-0.391,0.391-1.023,0-1.414C24.125,41.119,23.492,41.119,23.102,41.51z"/><path d="M28.518,61.079c-0.391-0.391-1.024-0.391-1.414,0c-0.391,0.391-0.391,1.023,0,1.414l2.134,2.134   c0.195,0.195,0.451,0.293,0.707,0.293c0.256,0,0.512-0.098,0.707-0.293c0.391-0.391,0.391-1.023,0-1.414L28.518,61.079z"/><path d="M29.503,35.108l-2.134,2.134c-0.391,0.391-0.391,1.023,0,1.414c0.195,0.195,0.451,0.293,0.707,0.293   c0.256,0,0.512-0.098,0.707-0.293l2.134-2.134c0.391-0.391,0.391-1.023,0-1.414C30.526,34.718,29.894,34.718,29.503,35.108z"/><path d="M34.477,32.548c0.256,0,0.512-0.098,0.707-0.293l2.134-2.134c0.391-0.391,0.391-1.023,0-1.414   c-0.391-0.391-1.024-0.391-1.414,0l-2.134,2.134c-0.391,0.391-0.391,1.024,0,1.414C33.966,32.45,34.222,32.548,34.477,32.548z"/><path d="M22.117,54.677c-0.391-0.391-1.023-0.391-1.414,0c-0.391,0.391-0.391,1.023,0,1.414l2.134,2.134   c0.195,0.195,0.451,0.293,0.707,0.293c0.256,0,0.512-0.098,0.707-0.293c0.391-0.391,0.391-1.023,0-1.414L22.117,54.677z"/><path d="M18.114,49.325c0.391-0.391,0.391-1.023,0-1.414c-0.391-0.391-1.023-0.391-1.414,0l-0.531,0.531   c-0.417,0.416-0.646,0.969-0.646,1.558s0.229,1.142,0.646,1.558l0.266,0.266c0.195,0.195,0.451,0.293,0.707,0.293   c0.256,0,0.512-0.098,0.707-0.293c0.391-0.391,0.391-1.023,0-1.414l-0.266-0.266c-0.049-0.049-0.06-0.105-0.06-0.144   s0.01-0.094,0.06-0.144L18.114,49.325z"/><path d="M67.557,32.168c-0.391-0.391-1.023-0.391-1.414,0c-0.391,0.391-0.391,1.023,0,1.414l2.134,2.134   c0.195,0.195,0.451,0.293,0.707,0.293c0.256,0,0.512-0.098,0.707-0.293c0.391-0.391,0.391-1.023,0-1.414L67.557,32.168z"/><path d="M40.879,26.146c0.256,0,0.512-0.098,0.707-0.293l2.134-2.134c0.391-0.391,0.391-1.023,0-1.414   c-0.391-0.391-1.023-0.391-1.414,0l-2.134,2.134c-0.391,0.391-0.391,1.023,0,1.414C40.367,26.049,40.623,26.146,40.879,26.146z"/><path d="M80.824,51.737l-2.134,2.134c-0.391,0.391-0.391,1.023,0,1.414c0.195,0.195,0.451,0.293,0.707,0.293   c0.256,0,0.512-0.098,0.707-0.293l2.134-2.134c0.391-0.391,0.391-1.024,0-1.414C81.847,51.346,81.214,51.346,80.824,51.737z"/><path d="M47.723,80.283c-0.391-0.391-1.023-0.391-1.414,0c-0.391,0.391-0.391,1.023,0,1.414l2.143,2.143   c0.194,0.194,0.447,0.291,0.7,0.291c0.256,0,0.513-0.099,0.709-0.295c0.39-0.391,0.386-1.028-0.005-1.419L47.723,80.283z"/><path d="M61.619,70.941l-2.134,2.134c-0.391,0.391-0.391,1.023,0,1.414c0.195,0.195,0.451,0.293,0.707,0.293   c0.256,0,0.512-0.098,0.707-0.293l2.134-2.134c0.391-0.391,0.391-1.023,0-1.414S62.01,70.551,61.619,70.941z"/><path d="M41.321,73.882c-0.391-0.391-1.023-0.391-1.414,0c-0.391,0.391-0.391,1.023,0,1.414l2.134,2.134   c0.195,0.195,0.451,0.293,0.707,0.293c0.256,0,0.512-0.098,0.707-0.293c0.391-0.391,0.391-1.023,0-1.414L41.321,73.882z"/><path d="M74.422,58.138l-2.134,2.134c-0.391,0.391-0.391,1.023,0,1.414c0.195,0.195,0.451,0.293,0.707,0.293   c0.256,0,0.512-0.098,0.707-0.293l2.134-2.134c0.391-0.391,0.391-1.023,0-1.414C75.446,57.748,74.813,57.748,74.422,58.138z"/><path d="M73.958,38.569c-0.391-0.391-1.023-0.391-1.414,0c-0.391,0.391-0.391,1.023,0,1.414l2.134,2.134   c0.195,0.195,0.451,0.293,0.707,0.293c0.256,0,0.512-0.098,0.707-0.293c0.391-0.391,0.391-1.023,0-1.414L73.958,38.569z"/><path d="M55.218,77.343l-2.134,2.134c-0.391,0.391-0.391,1.023,0,1.414c0.195,0.195,0.451,0.293,0.707,0.293   c0.256,0,0.512-0.098,0.707-0.293l2.134-2.134c0.391-0.391,0.391-1.023,0-1.414C56.241,76.952,55.608,76.952,55.218,77.343z"/><path d="M68.02,64.54l-2.134,2.134c-0.391,0.391-0.391,1.024,0,1.414c0.195,0.195,0.451,0.293,0.707,0.293   c0.256,0,0.512-0.098,0.707-0.293l2.134-2.134c0.391-0.391,0.391-1.023,0-1.414C69.044,64.149,68.411,64.149,68.02,64.54z"/><path d="M80.359,44.971c-0.391-0.391-1.024-0.391-1.414,0c-0.391,0.391-0.391,1.023,0,1.414l2.134,2.134   c0.195,0.195,0.451,0.293,0.707,0.293c0.256,0,0.512-0.098,0.707-0.293c0.391-0.391,0.391-1.024,0-1.414L80.359,44.971z"/><path d="M55.474,22.913c0.195,0.195,0.451,0.293,0.707,0.293c0.256,0,0.512-0.098,0.707-0.293c0.391-0.391,0.391-1.023,0-1.414   l-2.134-2.134c-0.391-0.391-1.023-0.391-1.414,0c-0.391,0.391-0.391,1.024,0,1.414L55.474,22.913z"/><path d="M61.875,29.315c0.195,0.195,0.451,0.293,0.707,0.293c0.256,0,0.512-0.098,0.707-0.293c0.391-0.391,0.391-1.024,0-1.414   l-2.134-2.134c-0.391-0.391-1.024-0.391-1.414,0s-0.391,1.023,0,1.414L61.875,29.315z"/><path d="M47.28,19.745c0.256,0,0.512-0.098,0.707-0.293l1.923-1.908c0.49-0.254,0.682-0.858,0.428-1.348   c-0.253-0.49-0.857-0.679-1.348-0.428c-0.203,0.105-0.387,0.24-0.548,0.401l-1.869,1.869c-0.391,0.391-0.391,1.023,0,1.414   C46.769,19.647,47.024,19.745,47.28,19.745z"/><path d="M66.942,56.014c0.391-0.39,0.391-1.023,0-1.414l-3.061-3.061c-0.375-0.375-1.039-0.375-1.414,0L59.407,54.6   c-0.391,0.391-0.391,1.024,0,1.414c0.391,0.391,1.023,0.391,1.414,0l1.365-1.365c-0.785,5.734-5.482,10.23-11.311,10.697V42.323   h4.64c0.552,0,1-0.448,1-1c0-0.552-0.448-1-1-1h-4.64v-2.7c1.844-0.452,3.221-2.108,3.221-4.089c0-2.328-1.894-4.221-4.221-4.221   c-2.328,0-4.221,1.894-4.221,4.221c0,1.981,1.377,3.637,3.221,4.089v2.7h-4.64c-0.552,0-1,0.448-1,1c0,0.552,0.448,1,1,1h4.64   v23.023c-5.827-0.468-10.523-4.962-11.308-10.695l1.363,1.363c0.195,0.195,0.451,0.293,0.707,0.293   c0.256,0,0.512-0.098,0.707-0.293c0.391-0.39,0.391-1.023,0-1.414l-3.061-3.061c-0.375-0.375-1.039-0.375-1.414,0L32.808,54.6   c-0.391,0.391-0.391,1.024,0,1.414c0.391,0.391,1.023,0.391,1.414,0l1.329-1.329c0.858,7.149,6.949,12.712,14.325,12.712   c7.375,0,13.466-5.562,14.325-12.71l1.327,1.327c0.195,0.195,0.451,0.293,0.707,0.293C66.491,56.307,66.747,56.209,66.942,56.014z    M49.875,35.755c-1.225,0-2.221-0.997-2.221-2.222c0-1.225,0.997-2.221,2.221-2.221c1.225,0,2.221,0.997,2.221,2.221   C52.096,34.759,51.1,35.755,49.875,35.755z"/></g></svg>