<?xml version="1.0" ?><svg id="Layer_1" style="enable-background:new 0 0 100 100;" version="1.1" viewBox="0 0 100 100" xml:space="preserve" xmlns="http://www.w3.org/2000/svg" xmlns:xlink="http://www.w3.org/1999/xlink"><g><path d="M76.963,10H23.037c-1.904,0-3.454,1.549-3.454,3.454v73.093c0,1.904,1.549,3.454,3.454,3.454h53.926   c1.904,0,3.454-1.549,3.454-3.454V13.454C80.416,11.549,78.867,10,76.963,10z M36.25,12h27.5v3.514h-27.5V12z M36.25,17.514h27.5   v1.307c0,1.386-1.127,2.513-2.513,2.513H38.763c-1.386,0-2.513-1.127-2.513-2.513V17.514z M38.763,23.333h22.474   c2.489,0,4.513-2.024,4.513-4.513v-1.307h6.75V81.82h-45V17.514h6.75v1.307C34.25,21.309,36.274,23.333,38.763,23.333z    M78.416,86.546c0,0.802-0.652,1.454-1.454,1.454H23.037c-0.802,0-1.454-0.652-1.454-1.454V13.454c0-0.802,0.652-1.454,1.454-1.454   H34.25v3.514H26.5c-0.552,0-1,0.448-1,1V82.82c0,0.552,0.448,1,1,1h47c0.552,0,1-0.448,1-1V16.514c0-0.552-0.448-1-1-1h-7.75V12   h11.213c0.802,0,1.454,0.652,1.454,1.454V86.546z"/><path d="M36.713,57.257c-2.29,0-4.152,1.862-4.152,4.151s1.862,4.151,4.152,4.151c2.289,0,4.151-1.862,4.151-4.151   S39.002,57.257,36.713,57.257z M36.713,63.56c-1.186,0-2.152-0.965-2.152-2.151s0.965-2.151,2.152-2.151   c1.186,0,2.151,0.965,2.151,2.151S37.899,63.56,36.713,63.56z"/><path d="M66.105,60.409h-20.5c-0.552,0-1,0.448-1,1c0,0.552,0.448,1,1,1h20.5c0.552,0,1-0.448,1-1   C67.105,60.856,66.658,60.409,66.105,60.409z"/><path d="M36.713,67.741c-2.29,0-4.152,1.862-4.152,4.152c0,2.289,1.862,4.151,4.152,4.151c2.289,0,4.151-1.862,4.151-4.151   C40.864,69.604,39.002,67.741,36.713,67.741z M36.713,74.044c-1.186,0-2.152-0.965-2.152-2.151c0-1.187,0.965-2.152,2.152-2.152   c1.186,0,2.151,0.965,2.151,2.152C38.864,73.079,37.899,74.044,36.713,74.044z"/><path d="M66.105,70.893h-20.5c-0.552,0-1,0.448-1,1c0,0.552,0.448,1,1,1h20.5c0.552,0,1-0.448,1-1   C67.105,71.341,66.658,70.893,66.105,70.893z"/><path d="M32.562,31.873c-0.004,0.249-0.066,5.589,2.396,8.434c-2.462,2.844-2.401,8.185-2.396,8.434   c0.009,0.505,0.393,0.924,0.895,0.977c0.219,0.023,0.434,0.034,0.644,0.034c4.213,0,6.657-4.482,7.748-7.189   c5.027,6.777,13.099,7.147,13.497,7.161c0.02,0,0.04,0,0.06,0c10.03,0,12.545-9.068,12.569-9.16   c0.049-0.188,0.043-0.386-0.017-0.57c-3.26-9.859-11.832-9.194-12.685-9.1c-0.721,0.033-8.52,0.548-13.423,7.158   c-1.146-2.842-3.772-7.631-8.392-7.155C32.955,30.949,32.57,31.368,32.562,31.873z M55.386,32.89   c0.033-0.001,0.071-0.005,0.104-0.009c0.306-0.043,7.521-0.941,10.466,7.44c-0.465,1.36-2.958,7.403-10.52,7.403   c-0.017,0-0.034,0-0.05,0c-0.084-0.003-8.3-0.406-12.652-7.417C47.086,33.296,55.302,32.893,55.386,32.89z M40.528,40.307   c-0.397,1.285-2.335,6.913-5.941,7.408c0.119-1.985,0.676-5.311,2.422-6.604c0.254-0.188,0.405-0.487,0.405-0.804   c0-0.317-0.15-0.615-0.405-0.804c-1.741-1.289-2.299-4.618-2.421-6.604C38.193,33.396,40.131,39.022,40.528,40.307z"/><path d="M57.442,40.134c0.552,0,1-0.448,1-1c0-0.456,0.371-0.827,0.827-0.827c0.456,0,0.827,0.371,0.827,0.827c0,0.552,0.448,1,1,1   c0.552,0,1-0.448,1-1c0-1.559-1.268-2.827-2.827-2.827c-1.559,0-2.827,1.268-2.827,2.827C56.442,39.686,56.89,40.134,57.442,40.134   z"/></g></svg>