<?xml version="1.0" ?><svg id="Layer_1" style="enable-background:new 0 0 100 100;" version="1.1" viewBox="0 0 100 100" xml:space="preserve" xmlns="http://www.w3.org/2000/svg" xmlns:xlink="http://www.w3.org/1999/xlink"><g><path d="M71.625,38.356v-7.19c0-3.485-2.835-6.32-6.32-6.32h-7.157c-2.477-0.923-5.155-1.43-7.949-1.43   c-2.752,0-5.392,0.49-7.837,1.386c-0.005,0-0.008-0.003-0.013-0.003h-7.204c-3.485,0-6.32,2.835-6.32,6.32v7.104   c-0.942,2.499-1.461,5.203-1.461,8.027c0,2.739,0.486,5.366,1.374,7.801c-0.001,0.016-0.009,0.029-0.009,0.044V61.3   c0,3.485,2.835,6.32,6.32,6.32h7.113c2.502,0.944,5.209,1.464,8.037,1.464c2.824,0,5.527-0.519,8.026-1.46h7.122   c3.485,0,6.32-2.835,6.32-6.32v-7.264c0-0.002-0.001-0.004-0.001-0.006c0.884-2.431,1.368-5.052,1.368-7.784   C73.034,43.477,72.535,40.817,71.625,38.356z M65.305,26.846c2.382,0,4.32,1.938,4.32,4.32v3.101   c-1.863-3.009-4.404-5.553-7.409-7.421H65.305z M68.477,36.264l-6.211,3.472c-1.261-2.327-3.176-4.249-5.495-5.52l3.471-6.209   C63.707,29.922,66.572,32.792,68.477,36.264z M61.915,46.25c0,6.46-5.256,11.716-11.716,11.716c-6.46,0-11.716-5.256-11.716-11.716   c0-6.46,5.256-11.716,11.716-11.716C56.659,34.535,61.915,39.791,61.915,46.25z M50.199,25.416c2.928,0,5.714,0.613,8.244,1.708   l-3.506,6.271c-1.479-0.547-3.071-0.861-4.738-0.861c-1.667,0-3.259,0.314-4.739,0.861l-3.506-6.271   C44.485,26.029,47.271,25.416,50.199,25.416z M43.627,34.216c-2.3,1.261-4.201,3.162-5.462,5.463l-6.209-3.471   c1.905-3.446,4.755-6.296,8.201-8.201L43.627,34.216z M30.825,31.119c0-2.382,1.938-4.32,4.32-4.32h3.109   c-3.01,1.855-5.556,4.389-7.429,7.386V31.119z M29.365,46.25c0-2.928,0.614-5.714,1.709-8.244l6.271,3.506   c-0.547,1.479-0.861,3.071-0.861,4.738c0,1.61,0.293,3.15,0.806,4.587l-6.285,3.514C29.949,51.86,29.365,49.122,29.365,46.25z    M35.049,65.621c-2.382,0-4.32-1.938-4.32-4.32v-3.134c1.855,3.02,4.394,5.575,7.399,7.454H35.049z M31.875,56.156l6.217-3.476   c1.259,2.361,3.184,4.313,5.528,5.599l-3.471,6.209C36.659,62.558,33.777,59.661,31.875,56.156z M50.199,67.085   c-2.932,0-5.721-0.615-8.254-1.713l3.506-6.27c1.482,0.55,3.077,0.865,4.748,0.865s3.266-0.315,4.748-0.865l3.505,6.271   C55.92,66.47,53.131,67.085,50.199,67.085z M56.779,58.279c2.362-1.298,4.298-3.272,5.556-5.659l6.217,3.476   c-1.902,3.532-4.795,6.451-8.302,8.392L56.779,58.279z M69.667,61.305c0,2.382-1.938,4.32-4.32,4.32h-3.083   c3.006-1.879,5.547-4.434,7.404-7.456V61.305z M69.417,54.288l-6.285-3.514c0.498-1.419,0.783-2.937,0.783-4.524   c0-1.644-0.306-3.214-0.838-4.676l6.277-3.509c1.078,2.514,1.68,5.28,1.68,8.185C71.034,49.098,70.456,51.813,69.417,54.288z"/><path d="M89,88H54.047V76.25h26.537c0.552,0,1-0.448,1-1V16.782c0-0.552-0.448-1-1-1H54.047v-1.969c0-2.103-1.71-3.813-3.813-3.813   h-0.468c-2.102,0-3.813,1.71-3.813,3.813v1.969H19.416c-0.552,0-1,0.448-1,1V75.25c0,0.552,0.448,1,1,1h26.537V88H11   c-0.552,0-1,0.448-1,1s0.448,1,1,1h78c0.552,0,1-0.448,1-1S89.552,88,89,88z M47.953,13.813c0-0.999,0.814-1.813,1.813-1.813h0.468   c1,0,1.813,0.814,1.813,1.813v1.969h-4.094V13.813z M20.416,74.25V17.782h59.167V74.25H20.416z M52.047,88h-4.094V76.25h4.094V88z"/></g></svg>