<?xml version="1.0" ?><svg id="Layer_1" style="enable-background:new 0 0 100 100;" version="1.1" viewBox="0 0 100 100" xml:space="preserve" xmlns="http://www.w3.org/2000/svg" xmlns:xlink="http://www.w3.org/1999/xlink"><g><path d="M58.477,50.243H58.1v-1.729c0.067,0.001,0.136,0.004,0.202,0.004c7.825,0,11.668-3.672,11.834-3.835   c0.238-0.234,0.345-0.573,0.282-0.901c-0.063-0.329-0.285-0.604-0.594-0.734c-3.48-1.467-5.009-7.628-5.024-7.691   c-0.004-0.016-0.016-0.028-0.021-0.044c0.362-1.316,0.563-2.692,0.563-4.107c0-3.484-1.199-6.862-3.364-9.59l2.392-7.667   c0.155-0.498-0.1-1.033-0.584-1.227C48.631,6.67,35.55,12.49,35.001,12.741c-0.493,0.225-0.718,0.802-0.505,1.301l3.244,7.624   c-2.14,2.721-3.324,6.078-3.324,9.539c0,1.427,0.205,2.814,0.573,4.14c-0.001,0.004-0.005,0.007-0.006,0.012   c-0.415,1.725-2.126,6.468-5.024,7.69c-0.309,0.13-0.531,0.406-0.594,0.734c-0.062,0.329,0.044,0.667,0.282,0.901   c0.166,0.163,4.008,3.835,11.835,3.835c0.11,0,0.224-0.005,0.335-0.006v1.732h-0.289c-10.432,0-19.245,10.175-19.245,22.219V89   c0,0.552,0.447,1,1,1h53.434c0.553,0,1-0.448,1-1V72.456C77.717,60.415,68.906,50.243,58.477,50.243z M67.641,44.073   c-1.527,0.978-4.702,2.46-9.541,2.425v-2.199c2.382-1.49,4.292-3.589,5.551-6.051C64.386,40.105,65.663,42.588,67.641,44.073z    M36.736,14.2c3.083-1.137,13.626-4.323,25.446,0.047l-1.966,6.3c-4.154-1.317-7.849-1.769-10.963-1.769   c-4.819,0-8.25,1.083-9.84,1.714L36.736,14.2z M58.168,22.03c-7.056,2.987-13.564,1.185-16.733-0.107   C44.394,21.015,50.343,19.895,58.168,22.03z M39.144,23.094c2.655,1.354,11.649,5.122,21.469-0.001   c1.766,2.333,2.729,5.183,2.729,8.112c0,5.823-3.719,10.96-9.197,12.766c-4.535,1.204-8.454,0.023-8.477,0.017   c-5.534-1.822-9.253-6.959-9.253-12.782C36.416,28.277,37.38,25.427,39.144,23.094z M56.1,45.349v5.331l-0.215,0.13   c-3.631,2.201-8.151,2.212-11.796,0.029l-0.272-0.163v-5.256c0.404,0.172,0.817,0.331,1.24,0.47   c0.119,0.038,2.028,0.621,4.798,0.621c1.433,0,3.096-0.156,4.859-0.625C55.19,45.73,55.649,45.546,56.1,45.349z M32.149,44.068   c1.965-1.479,3.238-3.942,3.974-5.795c1.286,2.502,3.248,4.627,5.694,6.118v2.108C36.927,46.568,33.703,45.055,32.149,44.068z    M24.283,88V72.462c0-7.632,4.054-14.582,9.681-17.995C35.46,55.101,48.556,61.44,48.722,88H24.283z M36.19,53.336   c1.698-0.697,3.493-1.093,5.338-1.093h1.012l0.521,0.312c2.131,1.276,4.517,1.915,6.901,1.915c2.408,0,4.815-0.65,6.959-1.949   l0.458-0.277h1.098c1.796,0,3.545,0.371,5.202,1.032c-3.411,1.897-11.22,7.912-13.8,23.953   C47.328,61.365,39.658,55.303,36.19,53.336z M75.717,88h-24.68c0.175-28.005,14.735-33.532,14.903-33.591   c5.676,3.39,9.778,10.372,9.778,18.047V88z"/><path d="M69.491,76.192c0,3.008-2.2,5.506-5.075,5.985v-8.802h1.97c0.553,0,1-0.448,1-1s-0.447-1-1-1h-1.97V69.06   c1.552-0.439,2.699-1.853,2.699-3.544c0-2.039-1.659-3.699-3.699-3.699c-2.039,0-3.698,1.659-3.698,3.699   c0,1.691,1.147,3.104,2.698,3.544v2.315h-1.969c-0.553,0-1,0.448-1,1s0.447,1,1,1h1.969v8.802c-2.874-0.48-5.073-2.977-5.073-5.985   c0-0.552-0.447-1-1-1c-0.553,0-1,0.448-1,1c0,4.452,3.622,8.074,8.074,8.074c4.452,0,8.074-3.622,8.074-8.074c0-0.552-0.447-1-1-1   C69.938,75.192,69.491,75.64,69.491,76.192z M63.416,67.215c-0.937,0-1.698-0.762-1.698-1.699s0.762-1.699,1.698-1.699   c0.936,0,1.699,0.762,1.699,1.699S64.352,67.215,63.416,67.215z"/></g></svg>