<?xml version="1.0" ?><svg viewBox="0 0 64 64" xmlns="http://www.w3.org/2000/svg"><defs><style>.cls-1{fill:none;stroke:#000;stroke-miterlimit:10;stroke-width:2px;}</style></defs><title/><g data-name="Layer 2" id="Layer_2"><rect class="cls-1" height="36.26" rx="0.66" ry="0.66" width="12.72" x="4" y="22.81"/><path class="cls-1" d="M60,36V58a1.07,1.07,0,0,1-1.07,1.07H48.34A1.07,1.07,0,0,1,47.27,58V37.57a7,7,0,0,0-2.11-5.11,5.42,5.42,0,0,0-3.74-1.62,5.8,5.8,0,0,0-2.61.64,6.9,6.9,0,0,0-3.68,6.21V58a1.07,1.07,0,0,1-1.07,1.07H23.49A1.07,1.07,0,0,1,22.43,58V23.88a1.07,1.07,0,0,1,1.07-1.07H34.07a1.07,1.07,0,0,1,1.07,1.07V27c2.13-1.82,5.09-4,12.14-4A12.85,12.85,0,0,1,60,36Z"/><circle class="cls-1" cx="10.36" cy="11.28" r="6.36"/></g></svg>