<?xml version="1.0" ?><!DOCTYPE svg  PUBLIC '-//W3C//DTD SVG 1.1//EN'  'http://www.w3.org/Graphics/SVG/1.1/DTD/svg11.dtd'><svg enable-background="new 0 0 1024 1024" height="1024px" id="Layer_1" version="1.1" viewBox="0 0 1024 1024" width="1024px" xml:space="preserve" xmlns="http://www.w3.org/2000/svg" xmlns:xlink="http://www.w3.org/1999/xlink"><g><g><path clip-rule="evenodd" d="M1023.904,641.642c-4.646,0.252-7.942,0.57-11.24,0.588     c-92.633,0.544-185.269,0.947-277.899,1.753c-8.89,0.077-14.004-2.229-18.703-10.395     C608.655,446.959,500.889,260.537,393.21,74.065c-1.833-3.171-3.442-6.475-5.732-10.804c4.686-0.276,7.981-0.623,11.279-0.641     c93.393-0.494,186.786-0.843,280.179-1.619c8.013-0.067,11.925,2.773,15.768,9.442     c107.707,186.893,215.632,373.659,323.506,560.456C1020.038,634.069,1021.643,637.362,1023.904,641.642z" fill-rule="evenodd"/><path clip-rule="evenodd" d="M150.58,933.592c-2.423-3.821-4.311-6.6-5.998-9.495     C97.377,843.206,50.25,762.267,2.888,681.467c-3.436-5.86-4.063-10.289-0.477-16.484     C111.827,475.964,221.047,286.832,330.31,97.724c0.753-1.305,1.666-2.52,3.234-4.869c2.093,3.076,4.014,5.562,5.583,8.254     c47.421,81.204,94.75,162.465,142.316,243.584c3.449,5.884,3.976,10.332,0.403,16.503     C372.443,550.223,263.233,739.362,153.981,928.477C153.228,929.781,152.314,930.993,150.58,933.592z" fill-rule="evenodd"/><path clip-rule="evenodd" d="M1024,700.851c-1.994,3.912-3.069,6.26-4.347,8.491     c-46.866,81.912-93.811,163.776-140.498,245.786c-3.231,5.676-6.647,7.879-13.28,7.872c-218.247-0.182-436.493-0.15-654.74-0.164     c-1.861,0-3.723-0.195-6.915-0.375c1.74-3.567,2.989-6.546,4.581-9.328c46.445-81.278,92.989-162.5,139.276-243.869     c3.563-6.268,7.247-9.097,14.923-9.088c217.107,0.24,434.215,0.191,651.324,0.209C1016.938,700.385,1019.554,700.63,1024,700.851     z" fill-rule="evenodd"/></g></g></svg>