<?xml version="1.0" ?><!DOCTYPE svg  PUBLIC '-//W3C//DTD SVG 1.1//EN'  'http://www.w3.org/Graphics/SVG/1.1/DTD/svg11.dtd'><svg enable-background="new 0 0 1024 1024" height="1024px" id="Layer_1" version="1.1" viewBox="0 0 1024 1024" width="1024px" xml:space="preserve" xmlns="http://www.w3.org/2000/svg" xmlns:xlink="http://www.w3.org/1999/xlink"><g><g><path clip-rule="evenodd" d="M0,489.84c1.92-9.367,3.68-18.771,5.784-28.098     c23.545-104.4,117.226-176.193,226.5-173.641c103.38,2.414,193.984,81.048,212.006,183.997     c21.83,124.704-60.675,240.434-186.113,261.06C135.519,753.325,16.495,663.759,1.863,540.334     c-0.263-2.22-1.227-4.354-1.863-6.527C0,519.151,0,504.496,0,489.84z" fill-rule="evenodd"/><path clip-rule="evenodd" d="M1024,511.586c0.109,123.405-100.102,223.851-223.538,224.06     c-123.975,0.209-224.574-100.235-224.449-224.113C576.134,388.078,676.429,287.994,800.017,288     C923.549,288.004,1023.889,388.167,1024,511.586z" fill-rule="evenodd"/></g></g></svg>