<?xml version="1.0" ?><!DOCTYPE svg  PUBLIC '-//W3C//DTD SVG 1.1//EN'  'http://www.w3.org/Graphics/SVG/1.1/DTD/svg11.dtd'><svg enable-background="new 0 0 1024 1024" height="1024px" id="Layer_1" version="1.1" viewBox="0 0 1024 1024" width="1024px" xml:space="preserve" xmlns="http://www.w3.org/2000/svg" xmlns:xlink="http://www.w3.org/1999/xlink"><g><path clip-rule="evenodd" d="M568.303,491.218c-2.425,5.267-5.325,10.37-7.204,15.824    c-46.652,135.409-93.173,270.86-139.791,406.281c-5.264,15.294-11.203,30.356-16.358,45.684    c-2.883,8.573-7.8,12.768-17.177,12.029c-7.042-0.553-14.254-0.65-21.241,0.226c-11.043,1.386-16.612-3.286-20.208-13.49    c-16.691-47.358-33.761-94.581-50.928-141.769C223.844,619.34,152.221,422.697,80.584,226.064    c-5.842-16.035-6.775-16.49-24.198-17.003c-10.451-0.309-20.993-0.034-31.319-1.368C9.846,205.725-0.15,194.235,0.001,180.547    c0.149-13.407,9.764-24.073,24.499-26.745c3.948-0.716,8.062-0.661,12.102-0.714c58.752-0.771,117.513-1.133,176.254-2.404    c25.631-0.556,51.214-3.081,76.834-4.406c4.934-0.255,11.429-0.843,14.577,1.824c5.22,4.416,9.838,10.866,11.894,17.35    c2.415,7.624-2.859,14.334-9.884,16.78c-9.721,3.382-20.021,5.494-30.246,6.934c-12.61,1.777-25.396,2.307-39.509,3.493    c10.886,32.58,21.285,63.729,31.703,94.871c10.475,31.318,20.958,62.63,31.454,93.939c10.604,31.634,21.247,63.257,31.836,94.895    c10.483,31.321,20.875,62.677,31.393,93.988c10.512,31.302,20.854,62.665,31.783,93.822    c10.772,30.716,18.845,62.493,32.493,92.112c1.416-0.1,2.834-0.2,4.251-0.299c1.941-4.774,4.15-9.458,5.782-14.332    c33.08-98.745,65.648-197.667,99.514-296.141c6.404-18.621,7.2-34.6,0.017-53.318c-23.543-61.339-45.51-123.29-67.423-185.241    c-3.808-10.766-10.103-14.778-20.638-15.442c-13.128-0.827-26.276-1.911-39.289-3.773c-14.976-2.145-21.867-10.149-20.689-22.419    c1.142-11.892,9.917-18.972,24.645-18.386c21.922,0.871,43.82,3.777,65.712,3.63c61.408-0.414,122.808-1.933,184.212-3.055    c8.775-0.163,17.552-0.856,26.321-0.746c12.626,0.158,19.717,6.765,20.939,18.788c1.104,10.854-5.921,20.012-18.001,21.78    c-13.006,1.907-26.17,2.734-39.264,4.054c-6.972,0.701-13.938,1.447-22.176,2.306c62.845,187.042,125.321,372.989,187.799,558.934    c1.199-0.146,2.396-0.293,3.596-0.441c1.321-2.588,3.049-5.048,3.902-7.779c26.008-83.308,53.118-166.296,77.523-250.071    c22.96-78.821,12.519-154.121-30.669-224.652c-14.427-23.562-28.157-47.662-40.429-72.396    c-19.651-39.607-18.668-78.2,10.746-113.469c36.534-43.808,110.64-41.199,147.783,4.971c18.701,23.243,26.18,50.82,29.472,79.554    c10.027,87.536-4.343,171.583-33.694,254.362c-61.943,174.685-121.94,350.06-182.811,525.125    c-8.044,23.137-8.248,23.067-32.18,22.749c-21.006-0.276-23.756-1.804-31.116-21.781    c-51.967-141.029-103.763-282.122-155.644-423.182c-4.241-11.533-8.716-22.975-13.084-34.459    C570.965,491.177,569.635,491.196,568.303,491.218z" fill-rule="evenodd"/></g></svg>