<?xml version="1.0" ?><!DOCTYPE svg  PUBLIC '-//W3C//DTD SVG 1.1//EN'  'http://www.w3.org/Graphics/SVG/1.1/DTD/svg11.dtd'><svg enable-background="new 0 0 1024 1024" height="1024px" id="Layer_1" version="1.1" viewBox="0 0 1024 1024" width="1024px" xml:space="preserve" xmlns="http://www.w3.org/2000/svg" xmlns:xlink="http://www.w3.org/1999/xlink"><g><g><path clip-rule="evenodd" d="M690.686,763.014c4.171-19.382,8.404-39.036,12.632-58.692     c7.709-35.85,15.542-71.674,23-107.574c1.258-6.07,2.967-9.35,10.093-9.282c48.183,0.446,96.372,0.269,144.548,0.874     c9.436,0.119,19.002,2.111,28.225,4.391c28.317,6.989,51.378,21.201,59.071,51.293c8.03,31.4,1.138,60.126-21.609,83.767     c-22.451,23.33-51.932,33.08-82.848,34.361c-56.5,2.339-113.125,1.704-169.698,2.27     C693.41,764.427,692.72,763.873,690.686,763.014z" fill-rule="evenodd"/><path clip-rule="evenodd" d="M311.172,871.735c12.296-56.91,24.275-112.875,36.778-168.727     c0.667-2.977,5.737-7.088,8.777-7.104c48.92-0.251,97.846-0.103,146.764,0.451c8.294,0.094,16.675,2.022,24.823,3.927     c31.181,7.288,55.903,23.174,61.863,56.701c6.355,35.751-4.153,66.762-34.376,88.985c-24.621,18.111-53.409,24.876-83.109,25.467     C419.249,872.498,365.771,871.735,311.172,871.735z" fill-rule="evenodd"/><path clip-rule="evenodd" d="M742.231,488.333c8.442-39.126,16.374-75.988,24.353-112.838     c4.122-19.033,8.721-37.974,12.275-57.109c1.289-6.933,4.278-8.438,10.655-8.399c45.875,0.273,91.788-0.846,137.605,0.837     c18.293,0.672,37.551,4.552,54.317,11.755c47.231,20.294,56.896,84.333,20.197,125.029c-21.2,23.51-49.354,34.727-79.422,36.354     C862.774,487.177,803.158,487.049,742.231,488.333z" fill-rule="evenodd"/><path clip-rule="evenodd" d="M0,596.922c13.283-61.3,25.886-119.465,38.577-178.038     c3.468-0.244,6.455-0.64,9.44-0.642c43.241-0.018,86.488-0.424,129.716,0.28c14.412,0.236,29.17,1.812,43.098,5.394     c62.837,16.155,82.176,85.882,37.327,133.278c-19.294,20.388-44.1,31.879-71.177,33.438     C125.277,594.185,63.414,594.963,0,596.922z" fill-rule="evenodd"/><path clip-rule="evenodd" d="M362.83,596.457c13.128-60.782,25.691-118.958,38.373-177.676     c3.745-0.202,7.114-0.541,10.483-0.543c42.854-0.025,85.711-0.373,128.557,0.229c13.663,0.191,27.562,1.742,40.879,4.766     c28.355,6.432,51.871,20.587,59.856,50.528c8.465,31.736,1.365,60.881-21.718,84.872c-20.04,20.832-46.245,31.401-73.947,32.899     C485.079,594.788,424.68,594.977,362.83,596.457z" fill-rule="evenodd"/><path clip-rule="evenodd" d="M49.223,327.931c12.292-56.935,24.285-112.91,36.699-168.794     c0.643-2.891,4.889-7.143,7.434-7.127c53.479,0.329,106.956,1.134,160.429,2.027c4.137,0.07,8.293,1.299,12.369,2.29     c31.013,7.545,55.955,23.048,62.15,56.571c6.441,34.854-3.673,65.283-32.477,87.616c-24.879,19.288-54.526,26.274-84.914,27.042     C157.471,328.902,103.972,327.931,49.223,327.931z" fill-rule="evenodd"/><path clip-rule="evenodd" d="M412.045,327.164c12.216-56.36,24.253-112.322,36.72-168.187     c0.637-2.853,4.984-6.993,7.581-6.977c53.47,0.34,106.936,1.156,160.401,2.036c3.756,0.063,7.523,1.221,11.232,2.088     c31.539,7.379,56.833,22.976,62.989,57.04c6.471,35.82-4.321,66.719-34.491,88.91c-22.571,16.604-48.891,24.198-76.288,24.754     C524.473,327.956,468.718,327.164,412.045,327.164z" fill-rule="evenodd"/></g></g></svg>