<?xml version="1.0" ?><!DOCTYPE svg  PUBLIC '-//W3C//DTD SVG 1.1//EN'  'http://www.w3.org/Graphics/SVG/1.1/DTD/svg11.dtd'><svg enable-background="new 0 0 1024 1024" height="1024px" id="Layer_1" version="1.1" viewBox="0 0 1024 1024" width="1024px" xml:space="preserve" xmlns="http://www.w3.org/2000/svg" xmlns:xlink="http://www.w3.org/1999/xlink"><g><path clip-rule="evenodd" d="M101.165,0c4.053,1.225,7.276,2.098,10.435,3.167    c70.37,23.792,140.733,47.609,211.099,71.417c12.198,4.127,14.368,7.596,14.415,23.622c0.251,85.125,0.349,170.253,0.738,255.38    c0.563,123.228,1.326,246.454,2.028,369.682c0.017,2.983,0.3,5.965,0.548,10.59c108.22-56.947,215.384-113.34,324.414-170.714    c-4.531-2.324-7.594-4.054-10.783-5.507c-43.002-19.591-85.947-39.308-129.096-58.575c-9.658-4.313-16.023-10.553-20.457-20.252    c-30.341-66.381-61.107-132.564-91.71-198.824c-1.703-3.689-3.169-7.487-5.622-13.316c10.838,3.091,19.931,5.515,28.922,8.275    c158.06,48.537,316.079,97.199,474.214,145.478c9.711,2.965,12.607,7.604,12.566,17.46c-0.311,75.513-0.176,151.029,0.125,226.546    c0.035,8.703-2.102,14.459-10.15,19.245c-187.645,111.527-375.207,223.197-562.47,335.364c-12.035,7.21-20.01,6.422-31.048-1.452    c-68.106-48.577-136.627-96.57-205.278-144.372c-9.136-6.361-13.062-13.521-13.054-24.688c0.21-279.411,0.165-558.82,0.165-838.23    C101.165,7.233,101.165,4.173,101.165,0z" fill-rule="evenodd"/></g></svg>