<?xml version="1.0" ?><svg id="Layer_1" style="enable-background:new 0 0 512 512;" version="1.1" viewBox="0 0 512 512" xml:space="preserve" xmlns="http://www.w3.org/2000/svg" xmlns:xlink="http://www.w3.org/1999/xlink"><g id="XMLID_3044_"><polygon id="XMLID_3063_" points="339.7,6 339.7,112.8 448.3,112.8  "/><polygon id="XMLID_3880_" points="128.5,318.5 116.9,353.5 140.2,353.5 128.8,318.5  "/><path d="M367.6,338.6c0-49.1-39.8-88.9-88.9-88.9h-215v177.8h215C327.8,427.5,367.6,387.7,367.6,338.6z    M151,386.6l-6.8-20.7h-31.4l-6.8,20.7H90.7l31-88.7h14.1l30.6,88.7H151z M244,356.3c0,9.9-3.2,17.6-9.7,23.2   c-6.5,5.6-14.8,8.4-25.1,8.4c-10.1,0-18.3-2.8-24.6-8.4c-6.3-5.6-9.5-13.3-9.5-23.2v-58.4h14.8v58.4c0,6.3,1.8,11.2,5.3,14.6   c3.5,3.4,8.2,5.1,14,5.1c6,0,10.8-1.7,14.5-5.1c3.7-3.4,5.5-8.3,5.5-14.6v-58.4H244V356.3z M254,297.9h69.2v11.9h-27.4v76.8H281   v-76.8h-27V297.9z" id="XMLID_4152_"/><path d="M327.7,6.3H81v231.3h197.7c55.6,0,100.9,45.3,100.9,100.9c0,55.6-45.3,100.9-100.9,100.9H81V506h366.6   l0.6-381.2H327.7V6.3z" id="XMLID_4213_"/></g></svg>