<?xml version="1.0" ?><svg id="Layer_1" style="enable-background:new 0 0 512 512;" version="1.1" viewBox="0 0 512 512" xml:space="preserve" xmlns="http://www.w3.org/2000/svg" xmlns:xlink="http://www.w3.org/1999/xlink"><g id="XMLID_3045_"><polygon id="XMLID_3048_" points="339.7,6 339.7,112.8 448.3,112.8  "/><path d="M203,309.8c-6.4,0-11.5,2.3-15.2,7c-3.7,4.7-5.6,10.7-5.6,18v15.9c0,7.4,1.9,13.4,5.6,18.1   c3.7,4.7,8.8,7.1,15.2,7.1c6.7,0,12-2.3,15.8-7c3.9-4.7,5.8-10.7,5.8-18.1v-15.9c0-7.3-1.9-13.3-5.8-18   C214.9,312.2,209.7,309.8,203,309.8z" id="XMLID_3053_"/><path d="M117,310.8h-14.3v64.1H117c7,0,12.6-2.4,16.7-7.1c4.1-4.7,6.2-10.8,6.2-18.3v-13.4   c0-7.4-2.1-13.4-6.2-18.2C129.6,313.2,124,310.8,117,310.8z" id="XMLID_3122_"/><path d="M367.6,338.6L367.6,338.6c0-49.1-39.8-88.9-88.9-88.9h-215v177.8h215   C327.8,427.5,367.6,387.7,367.6,338.6z M154.5,349.5c0,10.9-3.5,19.8-10.4,26.7c-6.9,6.9-16,10.3-27.1,10.3H88.1v-87.5H117   c11.1,0,20.1,3.5,27.1,10.4c6.9,6.9,10.4,15.8,10.4,26.7V349.5z M239.2,350.7c0,10.7-3.4,19.6-10.1,26.6   c-6.7,7-15.4,10.5-26.2,10.5c-10.5,0-19-3.5-25.5-10.5c-6.6-7-9.9-15.9-9.9-26.6v-15.7c0-10.7,3.3-19.5,9.8-26.6   c6.5-7,15.1-10.6,25.6-10.6c10.7,0,19.4,3.5,26.1,10.6c6.7,7.1,10.1,15.9,10.1,26.6V350.7z M261.6,377.5   c-6.3-6.9-9.5-15.7-9.5-26.3v-16.6c0-10.7,3.1-19.4,9.4-26.3s14.4-10.4,24.5-10.4c10.3,0,18.4,2.6,24.3,7.9   c5.9,5.2,8.8,12.4,8.6,21.6l-0.1,0.4h-14.1c0-5.8-1.6-10.3-4.7-13.4c-3.2-3.1-7.8-4.7-13.9-4.7c-5.9,0-10.6,2.4-14.1,7.1   c-3.5,4.7-5.2,10.6-5.2,17.8v16.8c0,7.3,1.8,13.2,5.3,17.9c3.5,4.7,8.3,7.1,14.4,7.1c6,0,10.5-1.6,13.6-4.7   c3.1-3.1,4.7-7.6,4.7-13.5h14.1l0.1,0.4c0.2,8.8-2.7,15.9-8.6,21.4c-5.9,5.4-13.8,8.1-23.9,8.1   C276.2,387.8,267.9,384.4,261.6,377.5z" id="XMLID_3483_"/><path d="M327.7,6.3H81v231.3h197.7c55.6,0,100.9,45.3,100.9,100.9s-45.3,100.9-100.9,100.9H81V506h366.7   l0.6-381.2H327.7V6.3z" id="XMLID_3860_"/></g></svg>