<?xml version="1.0" ?><svg id="Layer_1" style="enable-background:new 0 0 512 512;" version="1.1" viewBox="0 0 512 512" xml:space="preserve" xmlns="http://www.w3.org/2000/svg" xmlns:xlink="http://www.w3.org/1999/xlink"><g id="XMLID_3472_"><polygon id="XMLID_3475_" points="339.7,6 339.7,112.8 448.3,112.8  "/><path d="M132.6,334.3c2.4-2,3.6-4.7,3.6-8.3c0-4-1.3-6.9-3.8-8.8c-2.5-1.9-6.2-2.9-11-2.9h-12.9v23h14.3   C126.9,337.2,130.2,336.2,132.6,334.3z" id="XMLID_3481_"/><path d="M126.9,347.2h-0.7h-17.7v25.7h18c4.6,0,8.2-1.1,10.7-3.2c2.5-2.1,3.7-5.2,3.7-9.1c0-4-1.2-7.2-3.7-9.6   C134.8,348.6,131.4,347.3,126.9,347.2z" id="XMLID_3485_"/><path d="M367.6,338.6L367.6,338.6c0-49.1-39.8-88.9-88.9-88.9h-215v177.8h215   C327.8,427.5,367.6,387.7,367.6,338.6z M146.9,377.7c-4.9,3.9-11.7,5.9-20.3,5.9H95.2v-80h26.2c8.8,0,15.7,1.8,20.7,5.5   c5,3.6,7.5,9.1,7.5,16.3c0,3.5-1,6.7-3,9.5c-2,2.8-4.8,5-8.3,6.4c5.1,0.8,9.1,3.1,11.8,6.6c2.8,3.6,4.1,7.8,4.1,12.6   C154.2,368.1,151.8,373.8,146.9,377.7z M247.8,383.5h-13.4v-57.5l-0.3-0.1l-22,57.5h-9.2l-22.4-58.6l-0.3,0.1v58.5h-13.4v-80h17.5   l23,61.5h0.3l23.1-61.5h17V383.5z M278,383.5h-13.4v-80h30.7c8.8,0,15.7,2.3,20.7,6.8c5,4.6,7.5,10.6,7.5,18c0,7.5-2.5,13.5-7.5,18   c-5,4.5-11.9,6.8-20.7,6.8H278V383.5z" id="XMLID_3859_"/><path d="M306.5,338.5c2.5-2.6,3.7-6,3.7-10.1s-1.2-7.5-3.7-10.2c-2.5-2.7-6.2-4.1-11.2-4.1H278v28.2h17.3   C300.3,342.5,304,341.2,306.5,338.5z" id="XMLID_3875_"/><path d="M327.7,6.3H81v231.3h197.7c55.6,0,100.9,45.3,100.9,100.9c0,55.6-45.3,100.9-100.9,100.9H81V506h366.6   l0.6-381.2H327.7V6.3z" id="XMLID_3876_"/></g></svg>