<?xml version="1.0" ?><svg id="Layer_1" style="enable-background:new 0 0 512 512;" version="1.1" viewBox="0 0 512 512" xml:space="preserve" xmlns="http://www.w3.org/2000/svg" xmlns:xlink="http://www.w3.org/1999/xlink"><g id="XMLID_4114_"><polygon id="XMLID_4125_" points="339.7,6 339.7,112.8 448.3,112.8  "/><path d="M221.9,311h-16.8v27.4h16.8c4.8,0,8.4-1.3,10.8-3.8c2.4-2.6,3.6-5.8,3.6-9.8s-1.2-7.2-3.6-9.9   C230.4,312.3,226.7,311,221.9,311z" id="XMLID_4139_"/><path d="M367.6,338.6L367.6,338.6c0-49.1-39.8-88.9-88.9-88.9h-215v177.8h215   C327.8,427.5,367.6,387.7,367.6,338.6z M175.7,378.3h-13v-55.9l-0.3-0.1L141,378.3h-8.9l-21.8-57l-0.3,0.1v56.9H97v-77.8h17   l22.3,59.8h0.3l22.5-59.8h16.6V378.3z M242.1,342.2c-4.9,4.4-11.6,6.6-20.2,6.6h-16.8v29.5h-13v-77.8h29.8c8.6,0,15.3,2.2,20.2,6.6   c4.9,4.4,7.3,10.3,7.3,17.5C249.4,332,247,337.8,242.1,342.2z M259.5,347.5v-16.2c0-9.4,2.9-17.1,8.6-23c5.7-5.9,13.1-8.9,22.1-8.9   c9,0,16.1,2.3,21.1,6.8c5.1,4.6,7.5,10.5,7.4,17.8l-0.2,0.3h-12.3c0-4.4-1.4-7.9-4.1-10.6s-6.6-4-11.7-4c-5.4,0-9.7,2-13,6   c-3.3,4-4.9,9.1-4.9,15.3v16.3c0,6.3,1.7,11.4,5.2,15.5c3.4,4,7.9,6.1,13.4,6.1c4.2,0,7.5-0.5,9.9-1.4c2.4-0.9,4.3-2.1,5.5-3.4   v-16.1h-16.3v-9.7h29.3v29.4c-2.1,3-5.5,5.7-10.2,8.1c-4.7,2.4-10.7,3.6-18.1,3.6c-9.2,0-16.7-3-22.7-8.9   C262.4,364.6,259.5,356.9,259.5,347.5z" id="XMLID_4264_"/><path d="M327.7,6.3H81v231.3h197.7c55.6,0,100.9,45.3,100.9,100.9c0,55.6-45.3,100.9-100.9,100.9H81V506h366.7   l0.6-381.2H327.7V6.3z" id="XMLID_4269_"/></g></svg>