<?xml version="1.0" ?><svg id="Layer_1" style="enable-background:new 0 0 512 512;" version="1.1" viewBox="0 0 512 512" xml:space="preserve" xmlns="http://www.w3.org/2000/svg" xmlns:xlink="http://www.w3.org/1999/xlink"><g id="XMLID_4136_"><polygon id="XMLID_4140_" points="339.7,6 339.7,112.8 448.3,112.8  "/><polygon id="XMLID_4191_" points="214.3,320.3 202.9,354.8 225.9,354.8 214.6,320.3  "/><polygon id="XMLID_4284_" points="136.2,320.3 124.8,354.8 147.8,354.8 136.5,320.3  "/><path d="M367.6,338.6L367.6,338.6c0-49.1-39.8-88.9-88.9-88.9h-215v177.8h215   C327.8,427.5,367.6,387.7,367.6,338.6z M158.4,387.4l-6.7-20.4h-31l-6.7,20.4H98.9l30.5-87.5h13.9l30.2,87.5H158.4z M236.5,387.4   l-6.7-20.4h-31l-6.7,20.4H177l30.5-87.5h13.9l30.2,87.5H236.5z M268.6,378.4c-6.3-6.9-9.5-15.7-9.5-26.3v-16.6   c0-10.7,3.1-19.4,9.4-26.3s14.4-10.4,24.5-10.4c10.3,0,18.4,2.6,24.3,7.9c5.9,5.2,8.8,12.4,8.6,21.6l-0.1,0.4h-14.1   c0-5.8-1.6-10.3-4.7-13.4c-3.2-3.1-7.8-4.7-13.9-4.7c-5.9,0-10.6,2.4-14.1,7.1c-3.5,4.7-5.2,10.6-5.2,17.8V352   c0,7.3,1.8,13.2,5.3,17.9c3.5,4.7,8.3,7.1,14.4,7.1c6,0,10.5-1.6,13.6-4.7c3.1-3.1,4.7-7.6,4.7-13.5h14.1l0.1,0.4   c0.2,8.8-2.7,15.9-8.6,21.4c-5.9,5.4-13.8,8.1-23.9,8.1C283.2,388.7,274.9,385.2,268.6,378.4z" id="XMLID_4289_"/><path d="M327.7,6.3H81v231.3h197.7c55.6,0,100.9,45.3,100.9,100.9c0,55.6-45.3,100.9-100.9,100.9H81V506h366.7   l0.6-381.2H327.7V6.3z" id="XMLID_4301_"/></g></svg>