<?xml version="1.0" ?><svg id="Layer_1" style="enable-background:new 0 0 512 512;" version="1.1" viewBox="0 0 512 512" xml:space="preserve" xmlns="http://www.w3.org/2000/svg" xmlns:xlink="http://www.w3.org/1999/xlink"><g id="XMLID_4249_"><polygon id="XMLID_4251_" points="339.7,6 339.7,112.8 448.3,112.8  "/><path d="M208.4,310.8H189v31.8h19.5c5.6,0,9.7-1.5,12.5-4.5c2.8-3,4.2-6.7,4.2-11.3s-1.4-8.4-4.2-11.4   C218.2,312.4,214,310.8,208.4,310.8z" id="XMLID_4270_"/><path d="M367.6,338.6L367.6,338.6c0-49.1-39.8-88.9-88.9-88.9h-215v177.8h215   C327.8,427.5,367.6,387.7,367.6,338.6z M151.2,347c-5.6,5.1-13.4,7.6-23.3,7.6h-19.5v34.1h-15v-90h34.5c9.9,0,17.7,2.6,23.3,7.7   c5.6,5.1,8.4,11.9,8.4,20.2C159.6,335.2,156.8,341.9,151.2,347z M231.8,347c-5.6,5.1-13.4,7.6-23.3,7.6H189v34.1h-15v-90h34.5   c9.9,0,17.7,2.6,23.3,7.7c5.6,5.1,8.4,11.9,8.4,20.2C240.2,335.2,237.4,341.9,231.8,347z M247.2,310.8v-12.1h70.2v12.1h-27.8v77.9   h-15v-77.9H247.2z" id="XMLID_4369_"/><path d="M127.8,310.8h-19.5v31.8h19.5c5.6,0,9.7-1.5,12.5-4.5c2.8-3,4.2-6.7,4.2-11.3s-1.4-8.4-4.2-11.4   C137.6,312.4,133.4,310.8,127.8,310.8z" id="XMLID_4374_"/><path d="M327.7,6.3H81v231.3h197.7c55.6,0,100.9,45.3,100.9,100.9s-45.3,100.9-100.9,100.9H81V506h366.7   l0.6-381.2H327.7V6.3z" id="XMLID_4375_"/></g></svg>