<?xml version="1.0" ?><svg id="Layer_1" style="enable-background:new 0 0 512 512;" version="1.1" viewBox="0 0 512 512" xml:space="preserve" xmlns="http://www.w3.org/2000/svg" xmlns:xlink="http://www.w3.org/1999/xlink"><g id="XMLID_3107_"><polygon id="XMLID_3121_" points="339.7,6 339.7,112.8 448.3,112.8  "/><path d="M222.5,310.1c-5.7,0-10.2,2.1-13.5,6.2c-3.3,4.2-4.9,9.5-4.9,16v14.1c0,6.6,1.7,11.9,5,16.1   c3.3,4.2,7.8,6.3,13.5,6.3c5.9,0,10.6-2.1,14.1-6.2c3.4-4.2,5.2-9.5,5.2-16.1v-14.1c0-6.5-1.7-11.8-5.2-16   C233.1,312.2,228.4,310.1,222.5,310.1z" id="XMLID_3896_"/><path d="M367.6,338.6L367.6,338.6c0-49.1-39.8-88.9-88.9-88.9h-215v177.8h215   C327.8,427.5,367.6,387.7,367.6,338.6z M177.2,378.3h-13v-55.9l-0.3-0.1l-21.4,55.9h-8.9l-21.8-57l-0.3,0.1v56.9h-13v-77.8h17   l22.3,59.8h0.3l22.5-59.8h16.6V378.3z M254.7,346.4c0,9.5-3,17.4-8.9,23.6c-6,6.2-13.7,9.4-23.3,9.4c-9.3,0-16.9-3.1-22.7-9.4   c-5.8-6.2-8.8-14.1-8.8-23.6v-14c0-9.5,2.9-17.3,8.7-23.6c5.8-6.3,13.4-9.4,22.7-9.4c9.5,0,17.2,3.1,23.2,9.4c6,6.3,9,14.1,9,23.6   V346.4z M273.8,300.5l18.5,56.7l1.4,5.7h0.3l1.3-5.6l18.6-56.8h13.8L300,378.3h-12.3L260,300.5H273.8z" id="XMLID_4053_"/><path d="M327.7,6.3H81v231.3h197.7c55.6,0,100.9,45.3,100.9,100.9c0,55.6-45.3,100.9-100.9,100.9H81V506h366.6   l0.6-381.2H327.7V6.3z" id="XMLID_4080_"/></g></svg>