<?xml version="1.0" ?><svg id="Layer_1" style="enable-background:new 0 0 512 512;" version="1.1" viewBox="0 0 512 512" xml:space="preserve" xmlns="http://www.w3.org/2000/svg" xmlns:xlink="http://www.w3.org/1999/xlink"><g id="XMLID_3903_"><polygon id="XMLID_3905_" points="339.7,6 339.7,112.8 448.3,112.8  "/><path d="M129.9,307.7H111v30.9h18.9c5.4,0,9.5-1.4,12.2-4.3c2.7-2.9,4.1-6.5,4.1-11c0-4.4-1.4-8.2-4.1-11.1   C139.3,309.1,135.3,307.7,129.9,307.7z" id="XMLID_3907_"/><path d="M295.9,364.6c4.1-4.7,6.2-10.8,6.2-18.3V333c0-7.4-2.1-13.4-6.2-18.2c-4.1-4.7-9.7-7.1-16.7-7.1h-14.3   v64.1h14.3C286.2,371.8,291.8,369.4,295.9,364.6z" id="XMLID_3998_"/><path d="M367.6,338.6L367.6,338.6c0-49.1-39.8-88.9-88.9-88.9h-215v177.8h215   C327.8,427.5,367.6,387.7,367.6,338.6z M152.6,342.8c-5.5,4.9-13,7.4-22.7,7.4H111v33.2H96.4v-87.5h33.5c9.7,0,17.2,2.5,22.7,7.5   c5.5,5,8.2,11.5,8.2,19.7C160.8,331.3,158,337.9,152.6,342.8z M226.8,378.2c-5.7,4.3-13.2,6.5-22.4,6.5c-8.9,0-16.6-2.4-23.3-7.1   c-6.6-4.7-9.8-11.4-9.6-20l0.1-0.4h14.1c0,5.2,1.8,9.2,5.4,11.9c3.6,2.7,8,4,13.2,4c5.2,0,9.2-1.1,12-3.3c2.9-2.2,4.3-5.1,4.3-8.9   c0-3.6-1.3-6.6-3.9-9c-2.6-2.3-7.2-4.4-13.7-6.2c-9.4-2.6-16.7-6-21.8-10.2c-5.1-4.2-7.7-9.7-7.7-16.6c0-7,2.8-12.9,8.4-17.4   c5.6-4.6,12.8-6.8,21.6-6.8c9.5,0,17,2.5,22.7,7.6c5.7,5.1,8.4,11.3,8.2,18.8l-0.1,0.4h-14.1c0-4.6-1.5-8.3-4.6-11   c-3.1-2.7-7.1-4.1-12.2-4.1c-4.9,0-8.7,1.2-11.4,3.5c-2.7,2.3-4,5.3-4,9c0,3.4,1.5,6.1,4.4,8.3c2.9,2.2,7.8,4.3,14.5,6.2   c9.2,2.6,16.2,6.1,21,10.5c4.8,4.4,7.2,10.1,7.2,17C235.4,368.1,232.5,373.9,226.8,378.2z M250.3,295.9h28.9   c11.1,0,20.1,3.5,27.1,10.4c6.9,6.9,10.4,15.8,10.4,26.7v13.3c0,10.9-3.5,19.8-10.4,26.7c-6.9,6.9-16,10.3-27.1,10.3h-28.9V295.9z" id="XMLID_4001_"/><path d="M327.7,6.3H81v231.3h197.7c55.6,0,100.9,45.3,100.9,100.9c0,55.6-45.3,100.9-100.9,100.9H81V506h366.6   l0.6-381.2H327.7V6.3z" id="XMLID_4006_"/></g></svg>