<?xml version="1.0" ?><svg id="Layer_1" style="enable-background:new 0 0 512 512;" version="1.1" viewBox="0 0 512 512" xml:space="preserve" xmlns="http://www.w3.org/2000/svg" xmlns:xlink="http://www.w3.org/1999/xlink"><g id="XMLID_3051_"><polygon id="XMLID_3078_" points="339.7,6 339.7,112.8 448.3,112.8  "/><path d="M163.5,303.1h-23.7v38.7h23.7c6.8,0,11.9-1.8,15.3-5.4c3.4-3.6,5.1-8.2,5.1-13.8s-1.7-10.2-5.1-13.9   C175.3,304.9,170.3,303.1,163.5,303.1z" id="XMLID_3091_"/><path d="M367.6,338.6L367.6,338.6c0-49.1-39.8-88.9-88.9-88.9h-215v177.8h215   C327.8,427.5,367.6,387.7,367.6,338.6z M191.9,347.1c-6.8,6.2-16.3,9.3-28.4,9.3h-23.7v41.5h-18.3V288.4h42   c12.1,0,21.6,3.1,28.4,9.4c6.8,6.2,10.3,14.5,10.3,24.6C202.2,332.7,198.7,340.9,191.9,347.1z M227.7,390.6   c-8.3-5.9-12.3-14.3-12-25.1l0.2-0.5h17.6c0,6.6,2.3,11.5,6.8,14.9c4.5,3.3,10.1,5,16.6,5c6.5,0,11.5-1.4,15.1-4.1   c3.6-2.7,5.4-6.4,5.4-11.1c0-4.6-1.6-8.3-4.9-11.2c-3.2-2.9-9-5.5-17.2-7.8c-11.8-3.3-20.9-7.5-27.3-12.8   c-6.4-5.3-9.6-12.2-9.6-20.7c0-8.8,3.5-16.1,10.5-21.8c7-5.7,16.1-8.6,27.1-8.6c11.8,0,21.3,3.2,28.4,9.5   c7.1,6.3,10.5,14.2,10.3,23.5l-0.2,0.5H277c0-5.8-1.9-10.4-5.8-13.8c-3.8-3.4-8.9-5.1-15.3-5.1c-6.2,0-10.9,1.5-14.3,4.4   c-3.3,2.9-5,6.7-5,11.3c0,4.2,1.8,7.7,5.5,10.4c3.7,2.7,9.7,5.3,18.2,7.8c11.5,3.2,20.2,7.6,26.3,13.1c6,5.5,9,12.6,9,21.3   c0,9.1-3.6,16.3-10.7,21.7c-7.1,5.4-16.5,8.1-28.1,8.1C245.7,399.5,236,396.6,227.7,390.6z" id="XMLID_3911_"/><path d="M327.7,6.3H81v231.3h197.7c55.6,0,100.9,45.3,100.9,100.9s-45.3,100.9-100.9,100.9H81V506h366.6   l0.6-381.2H327.7V6.3z" id="XMLID_3924_"/></g></svg>