<?xml version="1.0" ?><svg data-name="1-Seo Marketing" height="32" id="_1-Seo_Marketing" viewBox="0 0 32 32" width="32" xmlns="http://www.w3.org/2000/svg"><defs><style>.cls-1{fill:none;stroke:#000;stroke-linejoin:round;stroke-width:2px;}</style></defs><title/><rect class="cls-1" height="28" width="30" x="1" y="2"/><line class="cls-1" x1="1" x2="31" y1="8" y2="8"/><line class="cls-1" x1="3" x2="5" y1="5" y2="5"/><line class="cls-1" x1="6" x2="8" y1="5" y2="5"/><line class="cls-1" x1="27" x2="29" y1="5" y2="5"/><path class="cls-1" d="M6,21v1a1,1,0,0,0,1,1H9a1,1,0,0,0,1-1V20a1,1,0,0,0-1-1H7"/><path class="cls-1" d="M10,17V16a1,1,0,0,0-1-1H7a1,1,0,0,0-1,1v2a1,1,0,0,0,1,1H9"/><polyline class="cls-1" points="18 23 14 23 14 15 18 15"/><line class="cls-1" x1="14" x2="18" y1="19" y2="19"/><rect class="cls-1" height="8" rx="1" ry="1" width="5" x="21" y="15"/></svg>