<?xml version="1.0" ?><svg viewBox="0 0 436.71 441.8" xmlns="http://www.w3.org/2000/svg"><title/><g data-name="Layer 2" id="Layer_2"><g data-name="phone, police, call, emergency, telephone, help, crime, safety, 911, assistance, service" id="phone_police_call_emergency_telephone_help_crime_safety_911_assistance_service"><path d="M208.15,403.23a132,132,0,0,0,186.53,0,27.29,27.29,0,0,0,0-38.61L348,317.91a50,50,0,0,0-56.24-9.78c-24.27,11.24-64.42,13.41-118-40.11s-51.36-93.69-40.11-117.95a50,50,0,0,0-9.79-56.24L77.17,47.11a27.32,27.32,0,0,0-38.6,0c-51.43,51.42-51.43,135.1,0,186.52ZM46.15,54.7a16.6,16.6,0,0,1,23.44,0l46.71,46.72a39.25,39.25,0,0,1,7.64,44.15c-12.68,27.36-15.64,72.13,42.26,130s102.67,54.94,130,42.25a39.29,39.29,0,0,1,44.16,7.64L387.1,372.2h0a16.56,16.56,0,0,1,0,23.44,121.33,121.33,0,0,1-171.37,0L46.15,226.06A121.3,121.3,0,0,1,46.15,54.7Z"/><path d="M435.5,24.26a5.36,5.36,0,0,0-6.18-1.57c-2.26.93-55.52,22.12-79.58-20a5.36,5.36,0,0,0-9.31,0c-24.06,42.11-77.32,20.92-79.57,20a5.36,5.36,0,0,0-6.51,7.92c19,28.52,7.76,61.82,7.65,62.13C250.23,126,250.64,153,263.22,173c8.37,13.32,21.78,23.2,41,30.19a94.08,94.08,0,0,1,36.7,25,5.34,5.34,0,0,0,4.14,2h0a5.38,5.38,0,0,0,4.13-1.95,94.11,94.11,0,0,1,36.71-25c19.23-7,32.65-16.87,41-30.19,12.58-20,13-47,1.22-80.27-.11-.33-11.3-33.63,7.65-62.15A5.36,5.36,0,0,0,435.5,24.26Zm-53.24,168.9a105,105,0,0,0-37.18,23.77,104.84,104.84,0,0,0-37.18-23.77C266.13,178,254.43,146.3,272.12,96.31c.48-1.38,10.3-30.27-2.39-59.73a104.37,104.37,0,0,0,22.1,2.84h1.37c22.17,0,39.92-8.35,51.88-24.31,12.21,16.28,30.42,24.59,53.25,24.3a104.38,104.38,0,0,0,22.11-2.84c-12.69,29.46-2.87,58.35-2.38,59.74C435.74,146.3,424,178,382.26,193.16Z"/><path d="M393.58,94.88l-26.12,25.46a5.36,5.36,0,0,0-1.54,4.74l4.33,25.25-22.67-11.92a5.37,5.37,0,0,0-5,0l-22.67,11.92,4.33-25.25a5.36,5.36,0,0,0-1.54-4.74l-18.34-17.88,25.34-3.68a5.35,5.35,0,0,0,4-2.93l11.33-23,11.34,23a5.35,5.35,0,0,0,4,2.93l9.72,1.41a5.36,5.36,0,0,0,1.54-10.61l-6.93-1L349.89,58.4a5.36,5.36,0,0,0-9.61,0l-14.9,30.18-33.3,4.84a5.35,5.35,0,0,0-3,9.14l24.1,23.49-5.69,33.17a5.36,5.36,0,0,0,7.78,5.65l29.78-15.66,29.79,15.66a5.36,5.36,0,0,0,7.78-5.65L377,126.05l24.1-23.49a5.36,5.36,0,0,0-7.48-7.68Z"/></g></g></svg>