<?xml version="1.0" ?><svg viewBox="0 0 437.91 340.67" xmlns="http://www.w3.org/2000/svg"><title/><g data-name="Layer 2" id="Layer_2"><g data-name="sign, alert, caution, warning, danger, alarm, exclamation" id="sign_alert_caution_warning_danger_alarm_exclamation"><path d="M29.84,340.67H408.07a29.77,29.77,0,0,0,24.7-46.38L243.66,13.15A29.74,29.74,0,0,0,219,0h0a29.74,29.74,0,0,0-24.7,13.15h0L5.14,294.29a29.77,29.77,0,0,0,24.7,46.38ZM14,300.27,203.15,19.14h0a19,19,0,0,1,31.61,0L423.87,300.27A19,19,0,0,1,408.07,330H29.84A19,19,0,0,1,14,300.27Z"/><path d="M97.28,298.15H340.63A20.93,20.93,0,0,0,358,265.54L236.32,84.67a20.92,20.92,0,0,0-34.73,0L79.92,265.54a20.93,20.93,0,0,0,17.36,32.61Zm-8.47-26.62L210.49,90.65a10.2,10.2,0,0,1,16.93,0L349.09,271.53a10.2,10.2,0,0,1-8.46,15.9H97.28a10.21,10.21,0,0,1-8.47-15.9Z"/><path d="M207.41,220.34a11.65,11.65,0,0,0,23.09,0l10.1-75.71a21.84,21.84,0,1,0-43.29,0Zm3.18-85.92A11.12,11.12,0,0,1,230,143.21l-10.11,75.71c0,.34-.11.8-.92.8s-.87-.46-.91-.8l-10.11-75.71A11.13,11.13,0,0,1,210.59,134.42Z"/><path d="M219,238.36a18.81,18.81,0,1,0,18.81,18.81A18.83,18.83,0,0,0,219,238.36Zm0,26.89a8.09,8.09,0,1,1,8.09-8.08A8.09,8.09,0,0,1,219,265.25Z"/></g></g></svg>