<?xml version="1.0" ?><svg viewBox="0 0 417.39 438.87" xmlns="http://www.w3.org/2000/svg"><title/><g data-name="Layer 2" id="Layer_2"><g data-name="alert, sign, caution, warning, danger, alarm, exclamation, people" id="alert_sign_caution_warning_danger_alarm_exclamation_people"><path d="M63.35,321.15a26.64,26.64,0,0,0,13-22.84V281.06a57.85,57.85,0,0,0,75.88-55V187.56a57.88,57.88,0,0,0-115.75,0v38.51a57.89,57.89,0,0,0,29.15,50.21v22a15.87,15.87,0,0,1-7.77,13.6A118.3,118.3,0,0,0,0,413.35v20.16a5.36,5.36,0,0,0,5.36,5.36H183.43a5.36,5.36,0,0,0,5.36-5.36V413.35a118.3,118.3,0,0,0-57.9-101.44,15.87,15.87,0,0,1-7.77-13.6,5.36,5.36,0,1,0-10.72,0,26.63,26.63,0,0,0,13,22.84,107.51,107.51,0,0,1,52.64,92.2v14.79H10.72V413.35A107.52,107.52,0,0,1,63.35,321.15ZM47.24,226.07V187.56a47.15,47.15,0,0,1,94.3,0v38.51a47.2,47.2,0,0,1-47.15,47.15h0A47.2,47.2,0,0,1,47.24,226.07Z"/><path d="M374.49,0H253.18a43,43,0,0,0-42.9,42.9v83.69a5.36,5.36,0,0,0,10.72,0V42.9a32.22,32.22,0,0,1,32.18-32.18H374.49A32.22,32.22,0,0,1,406.67,42.9V164.21a32.21,32.21,0,0,1-32.18,32.17H186.3l33-30.31a5.36,5.36,0,1,0-7.26-7.89L168.93,197.8a5.36,5.36,0,0,0,3.62,9.31H374.49a43,43,0,0,0,42.9-42.9V42.9A43,43,0,0,0,374.49,0Z"/><path d="M325.21,33.2a21.85,21.85,0,0,0-38.09,17.28l10.11,75.71a11.65,11.65,0,0,0,23.09,0l10.1-75.71A21.82,21.82,0,0,0,325.21,33.2ZM319.8,49.06l-10.11,75.71c-.05.34-.11.8-.92.8s-.87-.46-.91-.8L297.75,49.06a11.12,11.12,0,1,1,22.05,0Z"/><path d="M290,164.36a18.81,18.81,0,1,0,18.8-18.81A18.82,18.82,0,0,0,290,164.36Zm26.89,0a8.09,8.09,0,1,1-8.09-8.09A8.09,8.09,0,0,1,316.86,164.36Z"/></g></g></svg>