<?xml version="1.0" ?><svg viewBox="0 0 434.57 438.15" xmlns="http://www.w3.org/2000/svg"><title/><g data-name="Layer 2" id="Layer_2"><g data-name="fire, exit, emergency, sign, symbol, escape, safety, danger, security" id="fire_exit_emergency_sign_symbol_escape_safety_danger_security"><path d="M25.26,270.4a31.34,31.34,0,0,0,43,7.06l43.81-30.25,39.81,51-38.29,32.53a36.31,36.31,0,0,0-6.37,48.52l34.26,49.48a21.85,21.85,0,0,0,14.64,9.13,20.58,20.58,0,0,0,3.23.25,21.77,21.77,0,0,0,17.78-34.37L156.24,374.3A16.45,16.45,0,0,1,159.35,352l36.72-29.47,24.83,29.24a36.49,36.49,0,0,0,49.59,5.6l47.81-35.73a22,22,0,0,0-26-35.55l-29.73,21.35a16.43,16.43,0,0,1-22.33-3l-55.73-68.69-20.19-25.88,25.14-18.41L206,213.28a21.55,21.55,0,0,0,29,4.91,21.5,21.5,0,0,0,5.35-30.79l-21-28.09a31.32,31.32,0,0,0-43-7.06l-37.06,25.58L108,137.72a32,32,0,0,0-50.53,39.43l15.05,19.29a20.45,20.45,0,0,0,23.57,6.38l2.53,3.41-7.17,5.5L55.21,238.24,38.65,216.43a21.55,21.55,0,0,0-29-4.92,21.53,21.53,0,0,0-5.35,30.8ZM10.89,227.6a10.65,10.65,0,0,1,4.67-7.15,10.79,10.79,0,0,1,14.55,2.47l19.75,26A5.37,5.37,0,0,0,57.3,250l40.57-29.7,11.45-8.79a5.36,5.36,0,0,0,1-7.44l-8.46-11.41a5.35,5.35,0,0,0-7.54-1.07A9.65,9.65,0,0,1,81,189.85l-15.06-19.3a21.32,21.32,0,1,1,33.63-26.23l34.4,44.09a5.35,5.35,0,0,0,7.27,1.11l41.22-28.45a20.64,20.64,0,0,1,28.35,4.65l21,28.09a10.81,10.81,0,0,1-2.68,15.45,10.83,10.83,0,0,1-14.57-2.47l-19.74-26a5.37,5.37,0,0,0-7.44-1.08l-33.85,24.78a5.37,5.37,0,0,0-1.06,7.62l23.66,30.33,55.8,68.77a27.17,27.17,0,0,0,36.91,4.94l29.72-21.35A11.32,11.32,0,0,1,311.89,313l-47.81,35.73a25.77,25.77,0,0,1-35-3.95l-28.2-33.21a5.36,5.36,0,0,0-7.44-.72l-40.79,32.74a27.17,27.17,0,0,0-5.14,36.87L168.43,410a11,11,0,0,1-10.67,17.32,10.93,10.93,0,0,1-7.43-4.63l-34.26-49.48a25.64,25.64,0,0,1,4.5-34.25l42.21-35.86a5.36,5.36,0,0,0,.76-7.38l-46.08-59.07a5.36,5.36,0,0,0-4.23-2.06,5.3,5.3,0,0,0-3,1l-48,33.11A20.62,20.62,0,0,1,33.85,264l-21-28.08A10.71,10.71,0,0,1,10.89,227.6Z"/><path d="M424.51,83.64a5.36,5.36,0,0,0-9.72,4.52c8.08,17.38,10.77,37.44,8,59.64-2.41,19.29-12.81,34.54-30.9,45.33a86.12,86.12,0,0,1-67.79,8.42c-29.18-8.43-47.3-27.64-53.87-57.2C269.91,143,262.66,111.9,288,89a58.1,58.1,0,0,1,9.11-6.57A53.84,53.84,0,0,0,307,75a4.64,4.64,0,0,1,4.37-1.22,4.58,4.58,0,0,1,3.3,3c.4,1.16.76,2.38,1.06,3.62a14.21,14.21,0,0,0,13.86,11h.12a13.92,13.92,0,0,0,13.62-10.52c2.38-9.11,2.79-19.93,1.2-32.16a5.42,5.42,0,0,0-.19-.87c-.05-.18-5.54-18.73,1.14-34.26a4.57,4.57,0,0,1,4.3-2.83,4.51,4.51,0,0,1,4.2,2.81,78.89,78.89,0,0,0,20.18,28.24,5.36,5.36,0,0,0,7.18-8A68.26,68.26,0,0,1,363.86,9.39a15.08,15.08,0,0,0-14-9.39h-.08a15.16,15.16,0,0,0-14.12,9.31C328,27.11,333,47.08,333.94,50.46c1.35,10.68,1,20-1,27.66a3.2,3.2,0,0,1-3.29,2.52,3.53,3.53,0,0,1-3.53-2.81c-.37-1.53-.82-3-1.32-4.52a15.35,15.35,0,0,0-25.29-6,43.5,43.5,0,0,1-7.86,6,68.35,68.35,0,0,0-10.8,7.8C251,108,259.21,144.4,259.8,146.85c9.31,41.77,38.49,58.4,61.33,65a98.27,98.27,0,0,0,27.24,3.85,95.76,95.76,0,0,0,49-13.36c20.78-12.4,33.24-30.8,36-53.21C436.45,124.9,433.45,102.87,424.51,83.64Z"/><path d="M398.3,63.42a5.36,5.36,0,0,0,8-7.16l-1.53-1.68a5.36,5.36,0,0,0-7.87,7.29C397.36,62.38,397.83,62.9,398.3,63.42Z"/><path d="M381.5,126.77a5.35,5.35,0,0,0-4,6.44c2,8.57.78,17.85-3.65,27.59a23.35,23.35,0,0,1-15.24,12.95c-11.5,3.1-32.72-1-40.9-25.25-.22-1.13-1.21-7.45,2.7-10.95a8.11,8.11,0,0,1,5.73-1.88c6.92.27,24-1,32.47-19.25a5.42,5.42,0,0,1,3.72-3,5.23,5.23,0,0,1,4.48,1,5.36,5.36,0,0,0,6.63-8.42,15.88,15.88,0,0,0-13.59-3,16.17,16.17,0,0,0-11,9c-5.57,11.92-16.38,13.31-22.33,13.07a18.6,18.6,0,0,0-13.3,4.6c-9.1,8.16-6.08,21.07-5.94,21.62a3.31,3.31,0,0,0,.12.42c7.71,23.24,26.51,33.84,43.66,33.84a39.35,39.35,0,0,0,10.29-1.34,34.05,34.05,0,0,0,22.22-18.86c5.43-12,6.89-23.54,4.33-34.47A5.36,5.36,0,0,0,381.5,126.77Z"/></g></g></svg>