<?xml version="1.0" ?><!DOCTYPE svg  PUBLIC '-//W3C//DTD SVG 1.1//EN'  'http://www.w3.org/Graphics/SVG/1.1/DTD/svg11.dtd'><svg enable-background="new 0 0 64 64" id="Layer_1" version="1.1" viewBox="0 0 64 64" xml:space="preserve" xmlns="http://www.w3.org/2000/svg" xmlns:xlink="http://www.w3.org/1999/xlink"><g><path d="M47.3,13.3C47.2,13.3,47.2,13.3,47.3,13.3C47.2,13.3,47.2,13.3,47.3,13.3c-4.7-4.3-10.7-6.8-17.4-6.8   C15.7,6.5,4.2,18,4.2,32.1c0,7.3,3.1,13.9,8,18.6c0,0,0,0,0,0.1c0,0,0,0,0.1,0c4.6,4.3,10.7,6.9,17.5,6.9   c14.1,0,25.6-11.5,25.6-25.6C55.5,24.7,52.3,18,47.3,13.3z M6.2,32.1c0-13,10.6-23.6,23.6-23.6c5.8,0,11.1,2.1,15.2,5.6l-5,5.4   v-0.6c0-1.2-1-2.2-2.2-2.2h-16c-1.2,0-2.2,1-2.2,2.2v22.7L13,48.6C8.8,44.4,6.2,38.5,6.2,32.1z M21.6,24h14.3L22,38.9h-0.4V24z    M38.1,24.6v14.4H24.7L38.1,24.6z M21.6,42.3l1.3-1.4h15.2v4.5c0,0.1-0.1,0.2-0.2,0.2h-16c-0.1,0-0.2-0.1-0.2-0.2V42.3z M37.8,22   H21.6v-3.2c0-0.1,0.1-0.2,0.2-0.2h16c0.1,0,0.2,0.1,0.2,0.2v2.8L37.8,22z M29.9,55.7c-5.9,0-11.3-2.2-15.4-5.8l5.2-5.6v1   c0,1.2,1,2.2,2.2,2.2h16c1.2,0,2.2-1,2.2-2.2v-23l6.5-7c4.3,4.3,6.9,10.2,6.9,16.7C53.5,45.1,42.9,55.7,29.9,55.7z"/><path d="M28.2,44.3h3.3c0.6,0,1-0.4,1-1s-0.4-1-1-1h-3.3c-0.6,0-1,0.4-1,1S27.6,44.3,28.2,44.3z"/></g></svg>