<?xml version="1.0" ?><!DOCTYPE svg  PUBLIC '-//W3C//DTD SVG 1.1//EN'  'http://www.w3.org/Graphics/SVG/1.1/DTD/svg11.dtd'><svg enable-background="new 0 0 64 64" id="Layer_1" version="1.1" viewBox="0 0 64 64" xml:space="preserve" xmlns="http://www.w3.org/2000/svg" xmlns:xlink="http://www.w3.org/1999/xlink"><g><path d="M48.4,12.6L25.6,22.9l-5.4-0.5l2.3-2.3c0.4-0.4,0.4-1,0-1.4s-1-0.4-1.4,0L17.7,22l-4.6-0.5l3.3-3.3c0.4-0.4,0.4-1,0-1.4   s-1-0.4-1.4,0L9.9,22c0,0,0,0,0,0l-4.3,4.3c-0.2,0.2-0.3,0.6-0.3,0.9c0.1,0.3,0.3,0.6,0.6,0.7L17.4,33l-1.7,1.7l-7.5-0.4   c-0.5,0-0.9,0.3-1,0.8l-0.9,3.9c-0.1,0.3,0,0.7,0.3,0.9l3.9,3.9c0.2,0.2,0.4,0.3,0.6,0.3l1.1,0.1l-0.8,0.8c-0.9,0.9-0.9,2.2,0,3.1   l2.9,2.9c0.8,0.8,2.3,0.8,3.1,0l0.8-0.8l0.1,1.1c0,0.2,0.1,0.4,0.3,0.6l3.9,3.9c0.2,0.2,0.6,0.3,0.9,0.3l3.9-0.9   c0.5-0.1,0.8-0.5,0.8-1l-0.4-7.5l1.7-1.7l5.1,11.5c0.1,0.3,0.4,0.5,0.7,0.6c0.1,0,0.1,0,0.2,0c0.3,0,0.5-0.1,0.7-0.3l4.3-4.3   c0,0,0,0,0,0l5.1-5.1c0.4-0.4,0.4-1,0-1.4s-1-0.4-1.4,0l-3.3,3.3l-0.5-4.6l3.4-3.4c0.4-0.4,0.4-1,0-1.4s-1-0.4-1.4,0L40,41.9   l-0.5-5.3l10.3-22.8c0.2-0.4,0.1-0.8-0.2-1.1C49.2,12.5,48.8,12.4,48.4,12.6z M37.5,36.1c-0.1,0.2-0.1,0.3-0.1,0.5l1.5,14.4   l-3.3,3.3l-5.1-11.5c-0.1-0.3-0.4-0.5-0.7-0.6c-0.1,0-0.1,0-0.2,0c-0.3,0-0.5,0.1-0.7,0.3l-3,3c-0.2,0.2-0.3,0.5-0.3,0.8l0.4,7.1   l-2.5,0.6l-3.2-3.2l-0.3-2.8c0-0.4-0.3-0.7-0.7-0.8c-0.4-0.1-0.8,0-1,0.2l-2.3,2.3c-0.1,0.1-0.2,0.1-0.3,0l-2.9-2.9   c-0.1-0.1-0.1-0.2,0-0.3l2.3-2.3c0.3-0.3,0.4-0.7,0.2-1c-0.1-0.4-0.4-0.6-0.8-0.7L11.6,42l-3.2-3.2L9,36.3l7.1,0.4   c0.3,0,0.6-0.1,0.8-0.3l3-3c0.2-0.2,0.3-0.6,0.3-0.9c-0.1-0.3-0.3-0.6-0.6-0.7L8.1,26.7l3.3-3.3l14.4,1.5c0.2,0,0.4,0,0.5-0.1   l20.6-9.3L37.5,36.1z"/></g></svg>