<?xml version="1.0" ?><!DOCTYPE svg  PUBLIC '-//W3C//DTD SVG 1.1//EN'  'http://www.w3.org/Graphics/SVG/1.1/DTD/svg11.dtd'><svg enable-background="new 0 0 64 64" id="Layer_1" version="1.1" viewBox="0 0 64 64" xml:space="preserve" xmlns="http://www.w3.org/2000/svg" xmlns:xlink="http://www.w3.org/1999/xlink"><g><path d="M17.1,57.2h26.5c1.7,0,3.1-1.4,3.1-3.1V10.1c0-1.7-1.4-3.1-3.1-3.1H17.1C15.4,7,14,8.4,14,10.1v44.1   C14,55.8,15.4,57.2,17.1,57.2z M43.6,55.2H17.1c-0.6,0-1.1-0.5-1.1-1.1v-7.7h28.6v7.7C44.7,54.7,44.2,55.2,43.6,55.2z M16,44.5V18   h28.6v26.5H16z M17.1,9h26.5c0.6,0,1.1,0.5,1.1,1.1V16H16v-5.9C16,9.5,16.5,9,17.1,9z"/><path d="M33.1,49.6h-5.5c-0.6,0-1,0.4-1,1s0.4,1,1,1h5.5c0.6,0,1-0.4,1-1S33.7,49.6,33.1,49.6z"/><path d="M27.5,28.9l-3.1-1.7v-3.7c0-0.6-0.4-1-1-1s-1,0.4-1,1v3.7l-3.1,1.7c-0.5,0.3-0.7,0.9-0.4,1.4c0.2,0.3,0.5,0.5,0.9,0.5   c0.2,0,0.3,0,0.5-0.1l2.1-1.2V32l-1.1,0.8c-0.4,0.3-0.6,0.9-0.2,1.4c0.2,0.3,0.5,0.4,0.8,0.4c0.2,0,0.4-0.1,0.6-0.2l1-0.7l1,0.7   c0.2,0.1,0.4,0.2,0.6,0.2c0.3,0,0.6-0.1,0.8-0.4c0.3-0.4,0.2-1.1-0.2-1.4L24.4,32v-2.6l2.1,1.2c0.2,0.1,0.3,0.1,0.5,0.1   c0.4,0,0.7-0.2,0.9-0.5C28.1,29.7,28,29.1,27.5,28.9z"/><path d="M33.1,24.7H41c0.6,0,1-0.4,1-1s-0.4-1-1-1h-7.8c-0.6,0-1,0.4-1,1S32.6,24.7,33.1,24.7z"/><path d="M41,27.4h-7.8c-0.6,0-1,0.4-1,1s0.4,1,1,1H41c0.6,0,1-0.4,1-1S41.5,27.4,41,27.4z"/><path d="M41,32h-7.8c-0.6,0-1,0.4-1,1s0.4,1,1,1H41c0.6,0,1-0.4,1-1S41.5,32,41,32z"/><path d="M41,36.6h-7.8c-0.6,0-1,0.4-1,1s0.4,1,1,1H41c0.6,0,1-0.4,1-1S41.5,36.6,41,36.6z"/></g></svg>