<?xml version="1.0" ?><svg enable-background="new 0 0 64 64" height="64px" version="1.1" viewBox="0 0 64 64" width="64px" xml:space="preserve" xmlns="http://www.w3.org/2000/svg" xmlns:xlink="http://www.w3.org/1999/xlink"><g id="Guide"/><g id="Layer_1"><g><path d="M35.8490715,31.5283012l2.6320572-2.6320534v17.0943336    c0,0.7263756-0.5943451,1.3207207-1.3113365,1.3207207c-0.7263756,0-1.3207207-0.5943451-1.3207207-1.3207207V31.5283012z" fill="#C6C6C6"/><path d="M40.7547455,19.867939L34.06604,26.5565853c-0.6603889-1.0094414-1.0660439-2.3396034-1.0660439-3.801857    c0-3.1509686,1.8679085-5.6981506,4.169796-5.6981506C38.6980896,17.0565777,40.0283127,18.1792221,40.7547455,19.867939z" fill="#C6C6C6"/><path d="M30.171875,25.378418c-0.2763672,0-0.5-0.2236328-0.5-0.5v-7.5864258c0-0.2763672,0.2236328-0.5,0.5-0.5    s0.5,0.2236328,0.5,0.5v7.5864258C30.671875,25.1547852,30.4482422,25.378418,30.171875,25.378418z" fill="#C6C6C6"/><path d="M27.9472656,25.378418c-0.2763672,0-0.5-0.2236328-0.5-0.5v-7.5864258c0-0.2763672,0.2236328-0.5,0.5-0.5    s0.5,0.2236328,0.5,0.5v7.5864258C28.4472656,25.1547852,28.2236328,25.378418,27.9472656,25.378418z" fill="#C6C6C6"/><path d="M25.7226562,25.378418c-0.2763672,0-0.5-0.2236328-0.5-0.5v-7.5864258c0-0.2763672,0.2236328-0.5,0.5-0.5    s0.5,0.2236328,0.5,0.5v7.5864258C26.2226562,25.1547852,25.9990234,25.378418,25.7226562,25.378418z" fill="#C6C6C6"/><path d="M23.4980469,25.378418c-0.2763672,0-0.5-0.2236328-0.5-0.5v-7.5864258c0-0.2763672,0.2236328-0.5,0.5-0.5    s0.5,0.2236328,0.5,0.5v7.5864258C23.9980469,25.1547852,23.7744141,25.378418,23.4980469,25.378418z" fill="#C6C6C6"/><path d="M25.5188732,41.8585014l2.6320534-2.6321106v6.7641907    c0,0.7263756-0.5943432,1.3207207-1.3207188,1.3207207c-0.7169914,0-1.3113346-0.5943451-1.3113346-1.3207207V41.8585014z" fill="#C6C6C6"/><path d="M30.6886654,24.8773708c-0.4528122,1.5377388-1.3773212,2.7546997-2.5377388,3.282999v4.3113289    l-2.6320534,2.6320534v-6.9433823c-1.1603603-0.5282993-2.0849266-1.7452602-2.5377388-3.282999H30.6886654z" fill="#C6C6C6"/><path d="M32,7C18.1900024,7,7,18.1900024,7,32s11.1900024,25,25,25s25-11.1900024,25-25S45.8099976,7,32,7z     M11.7641392,32c0-11.1792221,9.0566387-20.2358608,20.2358608-20.2358608c4.7264252,0,9.0660248,1.6321144,12.5094414,4.3490429    l-3.7546959,3.7547569L34.06604,26.5565853l-17.952858,17.9528561C13.3962536,41.0660248,11.7641392,36.7264252,11.7641392,32z     M32,52.2358589c-4.7264252,0-9.0660248-1.6321144-12.5094433-4.349041l6.0283165-6.0283165l2.6320534-2.6321106    l7.6981449-7.6980896l12.0377464-12.0377445C50.6037445,22.9339752,52.2358589,27.2735748,52.2358589,32    C52.2358589,43.1792221,43.1792221,52.2358589,32,52.2358589z" fill="#FF6456"/></g></g></svg>