<?xml version="1.0" ?><svg enable-background="new 0 0 64 64" height="64px" version="1.1" viewBox="0 0 64 64" width="64px" xml:space="preserve" xmlns="http://www.w3.org/2000/svg" xmlns:xlink="http://www.w3.org/1999/xlink"><g id="Guide"/><g id="Layer_1"><g><path d="M32,7C18.1900024,7,7,18.1900024,7,32s11.1900024,25,25,25s25-11.1900024,25-25S45.8099976,7,32,7z     M11.7600098,32c0-11.1799927,9.0599976-20.2399902,20.2399902-20.2399902c4.7299805,0,9.0700073,1.6400146,12.5100098,4.3499756    l-3.4799805,3.4800415L40.75,19.8699951l-0.7700195,0.7700195l-4.2199707,4.2299805L22.2800293,38.3499756l-6.1700439,6.1600342    C13.4000244,41.0700073,11.7600098,36.7299805,11.7600098,32z M32,52.2399902    c-4.7299805,0-9.0700073-1.6400146-12.5100098-4.3499756l5.9799805-5.9800415l18.7300415-18.7299805l3.6900024-3.6900024    C50.5999756,22.9299927,52.2399902,27.2700195,52.2399902,32C52.2399902,43.1799927,43.1799927,52.2399902,32,52.2399902z" fill="#FF6456"/><path d="M35.7600098,24.8699951L22.2800293,38.3499756c-2.5-3.3099976-4.1600342-7.039978-4.1600342-10.4499512    c0-6.9400024,9.0599976-10.6900024,13.8800049-3.5599976c2.2000122-3.25,5.2800293-4.2400513,7.9799805-3.7000122    L35.7600098,24.8699951z" fill="#BF4B41"/><path d="M45.8800049,27.9000244C45.8800049,34.8499756,38.9500122,43.2000122,32,46.5    c-2.2600098-1.0700073-4.5100098-2.6799927-6.5300293-4.5900269l18.7300415-18.7299805    C45.2399902,24.4299927,45.8800049,26.0499878,45.8800049,27.9000244z" fill="#BF4B41"/></g></g></svg>