<?xml version="1.0" ?><svg enable-background="new 0 0 64 64" height="64px" version="1.1" viewBox="0 0 64 64" width="64px" xml:space="preserve" xmlns="http://www.w3.org/2000/svg" xmlns:xlink="http://www.w3.org/1999/xlink"><g id="Guide"/><g id="Layer_1"><g><rect fill="#25314F" height="27.0441132" width="27.0441132" x="28.172678" y="10.1875"/><path d="M47.4511108,13.7092676c1.5224648,1.9149427,2.4344063,4.3370562,2.4344063,6.9735785    c0,6.1952553-5.0222359,11.2174931-11.2174911,11.2174931c-2.6365242,0-5.0586357-0.9119415-6.9735794-2.4344082    c2.0550232,2.5847893,5.22435,4.2439156,8.7830849,4.2439156c6.1952553,0,11.2174911-5.0222397,11.2174911-11.217495    C51.6950226,18.9336185,50.0358963,15.7642927,47.4511108,13.7092676z" fill="#FFCE7B"/><circle cx="14.1942997" cy="31.9979744" fill="#FFCE7B" r="5.4110913"/><path d="M25.990118,38.3635559c-0.9140797-0.783268-2.2891865-0.6753197-3.070858,0.2387581l-3.6658878,4.2848434    l-3.7849989-2.7294731c-0.6646881-0.479641-1.5399485-0.5445137-2.2663193-0.172287    c-0.7279663,0.3722229-1.1858034,1.1209297-1.1858034,1.9387589V53.8125h4.3560982v-7.6322136l1.9589691,1.4123306    c0.9188633,0.6630936,2.1924057,0.510479,2.9288807-0.3504257l4.9686737-5.8077736    C27.0110779,40.5203362,26.9041958,39.1452293,25.990118,38.3635559z" fill="#A4FF88"/><rect fill="#B29D83" height="3.5393302" width="26.9533615" x="26.2076035" y="50.2731705"/><polygon fill="none" points="49.3808479,42.6499977 44.026474,42.6499977 44.924778,50.2731705 48.4825439,50.2731705   "/><polygon fill="#8FC1FF" points="40.6241455,50.2731705 31.0583115,50.2731705 29.9877205,47.0968475 41.6947365,47.0968475   "/><path d="M33.5497398,44.1474075H33.549736c-1.1903725,0-2.1553593,0.9649849-2.1553593,2.1553574v0.7940826h4.3107243    v-0.7940826C35.705101,45.1123924,34.7401123,44.1474075,33.5497398,44.1474075z" fill="none"/><rect fill="#FFCE7B" height="1.8604171" width="2.2461133" x="37.2705727" y="45.2364311"/><polygon fill="#8FC1FF" points="49.0930405,45.092392 44.3142853,45.092392 44.924778,50.2731705 48.4825439,50.2731705   "/><path d="M32.5,18.6875c-0.2763672,0-0.5-0.2236328-0.5-0.5V15.75c0-0.2763672,0.2236328-0.5,0.5-0.5    s0.5,0.2236328,0.5,0.5v2.4375C33,18.4638672,32.7763672,18.6875,32.5,18.6875z" fill="#FFCE7B"/><path d="M33.71875,17.46875h-2.4375c-0.2763672,0-0.5-0.2236328-0.5-0.5s0.2236328-0.5,0.5-0.5h2.4375    c0.2763672,0,0.5,0.2236328,0.5,0.5S33.9951172,17.46875,33.71875,17.46875z" fill="#FFCE7B"/><path d="M39.6875,24.2094727c-0.2763672,0-0.5-0.2236328-0.5-0.5v-2.4375c0-0.2763672,0.2236328-0.5,0.5-0.5    s0.5,0.2236328,0.5,0.5v2.4375C40.1875,23.9858398,39.9638672,24.2094727,39.6875,24.2094727z" fill="#FFCE7B"/><path d="M40.90625,22.9907227h-2.4375c-0.2763672,0-0.5-0.2236328-0.5-0.5s0.2236328-0.5,0.5-0.5h2.4375    c0.2763672,0,0.5,0.2236328,0.5,0.5S41.1826172,22.9907227,40.90625,22.9907227z" fill="#FFCE7B"/></g></g></svg>