<?xml version="1.0" ?><svg enable-background="new 0 0 64 64" height="64px" version="1.1" viewBox="0 0 64 64" width="64px" xml:space="preserve" xmlns="http://www.w3.org/2000/svg" xmlns:xlink="http://www.w3.org/1999/xlink"><g id="Guide"/><g id="Layer_1"><g><path d="M37.6015625,56.4755859c-0.1923828,0-0.3759766-0.1118164-0.4580078-0.2998047L30,39.8481445    l-7.1435547,16.3276367c-0.1103516,0.2539062-0.4042969,0.3691406-0.6582031,0.2578125    c-0.2529297-0.1108398-0.3681641-0.4052734-0.2578125-0.6582031l7.6015625-17.375    c0.1582031-0.3642578,0.7578125-0.3642578,0.9160156,0l7.6015625,17.375    c0.1103516,0.2529297-0.0048828,0.5473633-0.2578125,0.6582031    C37.7363281,56.4624023,37.6689453,56.4755859,37.6015625,56.4755859z" fill="#6B6B6B"/><rect fill="#8FC1FF" height="13.875" transform="matrix(0.9310116 -0.3649896 0.3649896 0.9310116 -7.5578418 17.9625854)" width="8.25" x="39.6124458" y="22.0365257"/><polygon fill="#6B91BF" points="20.5065289,41.2942314 41.7447815,35.1928558 38.049263,25.7663631 18.3230076,35.7245293   "/><rect fill="#8FC1FF" height="8.0537109" transform="matrix(0.9310116 -0.3649896 0.3649896 0.9310116 -13.1461163 9.0577106)" width="4.3554688" x="15.2095375" y="35.2773743"/><path d="M32.7357178,8.0242281c0.15625,0.7702026,0.2392578,1.5670166,0.2392578,2.3833008    c0,6.5864248-5.3392944,11.9257193-11.9257202,11.9257193c-0.8162842,0-1.6130981-0.0830078-2.3833008-0.2392578    c1.6802368,1.2592163,3.7601929,2.0142822,6.0215397,2.0142822c5.5573788,0,10.0625057-4.505127,10.0625057-10.062499    C34.75,11.784421,33.9949341,9.7044649,32.7357178,8.0242281z" fill="#FFCE7B"/></g></g></svg>