<?xml version="1.0" ?><svg enable-background="new 0 0 64 64" height="64px" version="1.1" viewBox="0 0 64 64" width="64px" xml:space="preserve" xmlns="http://www.w3.org/2000/svg" xmlns:xlink="http://www.w3.org/1999/xlink"><g id="Guide"/><g id="Layer_1"><g><polygon fill="#EFEFEF" points="41.039978,19.4899902 41.0300293,19.5900269 40.75,19.8699951 35.7600098,24.8699951     24.6500244,35.9799805 22.960022,19.4899902   "/><path d="M32,7C18.1900024,7,7,18.1900024,7,32s11.1900024,25,25,25s25-11.1900024,25-25S45.8099976,7,32,7z     M11.7600098,32c0-11.1799927,9.0599976-20.2399902,20.2399902-20.2399902c4.7299805,0,9.0700073,1.6400146,12.5100098,4.3499756    l-3.4799805,3.4800415L40.75,19.8699951l-4.9899902,5L24.6500244,35.9799805l-8.5400391,8.5300293    C13.4000244,41.0700073,11.7600098,36.7299805,11.7600098,32z M32,52.2399902    c-4.7299805,0-9.0700073-1.6400146-12.5100098-4.3499756l28.4000244-28.4000244    C50.5999756,22.9299927,52.2399902,27.2700195,52.2399902,32C52.2399902,43.1799927,43.1799927,52.2399902,32,52.2399902z" fill="#FF6456"/><path d="M35.7599983,24.8700008c-0.2799988-0.0700016-0.5999985-0.1000004-0.9599991-0.1000004    c-2.7999992,0-2.7999992,2-5.5999985,2s-2.8000011-2-5.6000004-2l1.050024,11.20998L35.7599983,24.8700008z" fill="#8FC1FF"/><polygon fill="#8FC1FF" points="40.2600098,27.1199951 38.4799805,44.5100098 25.5200195,44.5100098 25.2700195,42.1099854   "/></g></g></svg>