<?xml version="1.0" ?><svg enable-background="new 0 0 64 64" height="64px" version="1.1" viewBox="0 0 64 64" width="64px" xml:space="preserve" xmlns="http://www.w3.org/2000/svg" xmlns:xlink="http://www.w3.org/1999/xlink"><g id="Guide"/><g id="Layer_1"><g><circle cx="32" cy="32" fill="#7BBF66" r="25"/><circle cx="32" cy="32" fill="#FFFFFF" r="21.205677"/><path d="M32,15.6416016c-0.2763672,0-0.5-0.2236328-0.5-0.5v-2.96875c0-0.2763672,0.2236328-0.5,0.5-0.5    s0.5,0.2236328,0.5,0.5v2.96875C32.5,15.4179688,32.2763672,15.6416016,32,15.6416016z" fill="#6B6B6B"/><path d="M23.5703125,17.8999023c-0.171875,0-0.3408203-0.0893555-0.4326172-0.25l-1.484375-2.5708008    c-0.1386719-0.2392578-0.0566406-0.5449219,0.1826172-0.6831055c0.2392578-0.1386719,0.5458984-0.0571289,0.6826172,0.1831055    l1.484375,2.5708008c0.1386719,0.2392578,0.0566406,0.5449219-0.1826172,0.6831055    C23.7412109,17.878418,23.6552734,17.8999023,23.5703125,17.8999023z" fill="#6B6B6B"/><path d="M17.4003906,24.0708008c-0.0849609,0-0.1708984-0.0214844-0.25-0.0668945l-2.5712891-1.484375    c-0.2392578-0.1381836-0.3212891-0.4438477-0.1826172-0.6831055c0.1376953-0.2392578,0.4443359-0.3198242,0.6826172-0.1831055    l2.5712891,1.484375c0.2392578,0.1381836,0.3212891,0.4438477,0.1826172,0.6831055    C17.7412109,23.980957,17.5722656,24.0708008,17.4003906,24.0708008z" fill="#6B6B6B"/><path d="M15.1416016,32.5h-2.96875c-0.2763672,0-0.5-0.2236328-0.5-0.5s0.2236328-0.5,0.5-0.5h2.96875    c0.2763672,0,0.5,0.2236328,0.5,0.5S15.4179688,32.5,15.1416016,32.5z" fill="#6B6B6B"/><path d="M14.8291016,42.4135742c-0.171875,0-0.3408203-0.0898438-0.4326172-0.25    c-0.1386719-0.2392578-0.0566406-0.5449219,0.1826172-0.6831055l2.5712891-1.484375    c0.2382812-0.1376953,0.5449219-0.0561523,0.6826172,0.1831055c0.1386719,0.2392578,0.0566406,0.5449219-0.1826172,0.6831055    l-2.5712891,1.484375C15,42.3920898,14.9140625,42.4135742,14.8291016,42.4135742z" fill="#6B6B6B"/><path d="M22.0859375,49.6708984c-0.0849609,0-0.1708984-0.0214844-0.25-0.0668945    c-0.2392578-0.1381836-0.3212891-0.4438477-0.1826172-0.6831055l1.484375-2.5708008    c0.1376953-0.2397461,0.4443359-0.3188477,0.6826172-0.1831055c0.2392578,0.1381836,0.3212891,0.4438477,0.1826172,0.6831055    l-1.484375,2.5708008C22.4267578,49.581543,22.2578125,49.6708984,22.0859375,49.6708984z" fill="#6B6B6B"/><path d="M32,52.3271484c-0.2763672,0-0.5-0.2236328-0.5-0.5v-2.96875c0-0.2763672,0.2236328-0.5,0.5-0.5    s0.5,0.2236328,0.5,0.5v2.96875C32.5,52.1035156,32.2763672,52.3271484,32,52.3271484z" fill="#6B6B6B"/><path d="M41.9140625,49.6708984c-0.171875,0-0.3408203-0.0893555-0.4326172-0.25l-1.484375-2.5708008    c-0.1386719-0.2392578-0.0566406-0.5449219,0.1826172-0.6831055c0.2382812-0.137207,0.5449219-0.0571289,0.6826172,0.1831055    l1.484375,2.5708008c0.1386719,0.2392578,0.0566406,0.5449219-0.1826172,0.6831055    C42.0849609,49.6494141,41.9990234,49.6708984,41.9140625,49.6708984z" fill="#6B6B6B"/><path d="M49.1708984,42.4135742c-0.0849609,0-0.1708984-0.0214844-0.25-0.0668945l-2.5712891-1.484375    c-0.2392578-0.1381836-0.3212891-0.4438477-0.1826172-0.6831055c0.1376953-0.2387695,0.4443359-0.3193359,0.6826172-0.1831055    l2.5712891,1.484375c0.2392578,0.1381836,0.3212891,0.4438477,0.1826172,0.6831055    C49.5117188,42.3237305,49.3427734,42.4135742,49.1708984,42.4135742z" fill="#6B6B6B"/><path d="M51.8271484,32.5h-2.96875c-0.2763672,0-0.5-0.2236328-0.5-0.5s0.2236328-0.5,0.5-0.5h2.96875    c0.2763672,0,0.5,0.2236328,0.5,0.5S52.1035156,32.5,51.8271484,32.5z" fill="#6B6B6B"/><path d="M46.5996094,24.0708008c-0.171875,0-0.3408203-0.0898438-0.4326172-0.25    c-0.1386719-0.2392578-0.0566406-0.5449219,0.1826172-0.6831055l2.5712891-1.484375    c0.2382812-0.1381836,0.5449219-0.0566406,0.6826172,0.1831055c0.1386719,0.2392578,0.0566406,0.5449219-0.1826172,0.6831055    l-2.5712891,1.484375C46.7705078,24.0493164,46.6845703,24.0708008,46.5996094,24.0708008z" fill="#6B6B6B"/><path d="M40.4296875,17.8999023c-0.0849609,0-0.1708984-0.0214844-0.25-0.0668945    c-0.2392578-0.1381836-0.3212891-0.4438477-0.1826172-0.6831055l1.484375-2.5708008    c0.1367188-0.2397461,0.4433594-0.3203125,0.6826172-0.1831055c0.2392578,0.1381836,0.3212891,0.4438477,0.1826172,0.6831055    l-1.484375,2.5708008C40.7705078,17.8105469,40.6015625,17.8999023,40.4296875,17.8999023z" fill="#6B6B6B"/><path d="M32,42.7666016c-0.2763672,0-0.5-0.2236328-0.5-0.5V33.859375c0-0.2763672,0.2236328-0.5,0.5-0.5    s0.5,0.2236328,0.5,0.5v8.4072266C32.5,42.5429688,32.2763672,42.7666016,32,42.7666016z" fill="#6B6B6B"/><path d="M31.4023438,30.7392578c-0.2080078,0-0.4033203-0.1313477-0.4736328-0.3393555L26.875,18.4477539    c-0.0888672-0.2617188,0.0517578-0.5454102,0.3134766-0.6342773c0.2607422-0.0878906,0.5458984,0.0522461,0.6337891,0.3129883    l4.0537109,11.9521484c0.0888672,0.2617188-0.0517578,0.5454102-0.3134766,0.6342773    C31.5097656,30.730957,31.4550781,30.7392578,31.4023438,30.7392578z" fill="#6B6B6B"/><circle cx="32" cy="32" fill="#7BBF66" r="1.8594531"/></g></g></svg>