<?xml version="1.0" ?><!DOCTYPE svg  PUBLIC '-//W3C//DTD SVG 1.1//EN'  'http://www.w3.org/Graphics/SVG/1.1/DTD/svg11.dtd'><svg height="6.82666in" style="shape-rendering:geometricPrecision; text-rendering:geometricPrecision; image-rendering:optimizeQuality; fill-rule:evenodd; clip-rule:evenodd" viewBox="0 0 6.82666 6.82666" width="6.82666in" xml:space="preserve" xmlns="http://www.w3.org/2000/svg" xmlns:xlink="http://www.w3.org/1999/xlink"><defs><style type="text/css">
   <![CDATA[
    .fil1 {fill:none}
    .fil0 {fill:black}
   ]]>
  </style></defs><g id="Layer_x0020_1"><path class="fil0" d="M5.49798 1.85481l0 3.17597 -0.118843 0 0 -3.17597 0.118843 0zm-0.246287 0l0 3.17597 -0.362673 0 0 -3.17597 0.362673 0zm-0.548909 0l0 3.17597 -0.107823 0 0 -3.17597 0.107823 0zm-0.21565 0l0 3.17597 -0.21565 0 0 -3.17597 0.21565 0zm-0.401886 0l0 3.17597 -0.362673 0 0 -3.17597 0.362673 0zm-0.490118 0l0 3.17597 -0.118839 0 0 -3.17597 0.118839 0zm2.13507 -0.442689l-4.60711 0c-0.0706063,0 -0.13474,0.0288307 -0.181177,0.0752677 -0.046437,0.046437 -0.0752677,0.110571 -0.0752677,0.181177l0 3.54846c0,0.0706024 0.0288307,0.134736 0.0752677,0.181173 0.046437,0.046437 0.110571,0.0752677 0.181177,0.0752677l4.60711 0c0.0706102,0 0.134744,-0.0288307 0.181173,-0.0752677 0.046437,-0.0464291 0.0752677,-0.110563 0.0752677,-0.181173l0 -3.54846c0,-0.0706063 -0.0288307,-0.13474 -0.0752677,-0.181177 -0.046437,-0.046437 -0.110571,-0.0752677 -0.181173,-0.0752677zm-2.43283 0.442689l0 3.17597 -0.28548 0 0 -3.17597 0.28548 0zm-0.466815 0l0 3.17597 -0.28548 0 0 -3.17597 0.28548 0zm-0.464406 0l0 3.17597 -0.118839 0 0 -3.17597 0.118839 0zm-0.246287 0l0 3.17597 -0.362673 0 0 -3.17597 0.362673 0zm-0.548906 0l0 3.17597 -0.215654 0 0 -3.17597 0.215654 0z"/></g><rect class="fil1" height="6.82666" width="6.82666"/></svg>