<?xml version="1.0" ?><svg height="60px" version="1.1" viewBox="0 0 60 60" width="60px" xmlns="http://www.w3.org/2000/svg" xmlns:xlink="http://www.w3.org/1999/xlink"><title/><desc/><defs/><g fill="none" fill-rule="evenodd" id="Page-1" stroke="none" stroke-width="1"><g id="024---Mince-Pie"><circle cx="30" cy="30" fill="#FCCC88" fill-rule="nonzero" id="Oval" r="29"/><circle cx="30" cy="30" fill="#E07585" fill-rule="nonzero" id="Oval" r="23"/><path d="M30,7.5 C29.7238576,7.5 29.5,7.27614237 29.5,7 C29.5,6.72385763 29.7238576,6.5 30,6.5 C31.3807119,6.5 32.5,5.38071187 32.5,4 C32.5,2.61928813 31.3807119,1.5 30,1.5 C29.7238576,1.5 29.5,1.27614237 29.5,1 C29.5,0.723857625 29.7238576,0.5 30,0.5 C31.9329966,0.5 33.5,2.06700338 33.5,4 C33.5,5.93299662 31.9329966,7.5 30,7.5 Z" fill="#F5A585" fill-rule="nonzero" id="Shape"/><path d="M30,59.5 C28.0670034,59.5 26.5,57.9329966 26.5,56 C26.5,54.0670034 28.0670034,52.5 30,52.5 C30.2761424,52.5 30.5,52.7238576 30.5,53 C30.5,53.2761424 30.2761424,53.5 30,53.5 C28.6192881,53.5 27.5,54.6192881 27.5,56 C27.5,57.3807119 28.6192881,58.5 30,58.5 C30.2761424,58.5 30.5,58.7238576 30.5,59 C30.5,59.2761424 30.2761424,59.5 30,59.5 L30,59.5 Z" fill="#F5A585" fill-rule="nonzero" id="Shape"/><path d="M26.00537,7.84961 C25.7463153,7.84930625 25.5304103,7.65115615 25.5079317,7.3930784 C25.4854531,7.13500065 25.6638489,6.90250685 25.91895,6.85742 C27.2767915,6.61573314 28.1825048,5.32020268 27.9431981,3.9619397 C27.7038914,2.60367672 26.4099503,1.6956942 25.05127,1.93262 C24.7800749,1.97928209 24.5221761,1.79795143 24.4743229,1.52696395 C24.4264696,1.25597647 24.6066654,0.997283433 24.87744,0.94824 C26.7794394,0.616031801 28.5911887,1.88684959 28.9264165,3.78831909 C29.2616443,5.68978859 27.9937048,7.50355345 26.09277,7.8418 C26.0639327,7.84704061 26.0346795,7.84965465 26.00537,7.84961 Z" fill="#F5A585" fill-rule="nonzero" id="Shape"/><path d="M34.50732,59.106 C32.6940509,59.1015963 31.1843006,57.713245 31.0282659,55.9066965 C30.8722312,54.100148 32.1215699,52.4734894 33.90723,52.15824 C34.0830726,52.12719 34.2621227,52.1923096 34.376934,52.3290687 C34.4917454,52.4658279 34.5248753,52.6534496 34.463844,52.8212587 C34.4028128,52.9890678 34.2568926,53.11157 34.08105,53.14262 C32.7232085,53.3843069 31.8174952,54.6798373 32.0568019,56.0381003 C32.2961086,57.3963633 33.5900497,58.3043458 34.94873,58.06742 C35.2199251,58.0207579 35.4778239,58.2020886 35.5256771,58.4730761 C35.5735304,58.7440635 35.3933346,59.0027566 35.12256,59.0518 C34.9194775,59.0879585 34.7135964,59.1060957 34.50732,59.106 L34.50732,59.106 Z" fill="#F5A585" fill-rule="nonzero" id="Shape"/><path d="M22.1333,8.88721 C21.8907157,8.88713916 21.6831865,8.71293405 21.6410836,8.47403132 C21.5989807,8.2351286 21.7344546,8.00047446 21.9624,7.91748 C23.2599185,7.44527654 23.9289685,6.01063346 23.456765,4.713115 C22.9845615,3.41559654 21.5499185,2.74654654 20.2524,3.21875 C19.9932063,3.31230187 19.7071908,3.17844153 19.6129758,2.91948813 C19.5187608,2.66053473 19.6518886,2.37417749 19.9106,2.2793 C21.7269624,1.61832561 23.7352406,2.55495263 24.396215,4.371315 C25.0571894,6.18767737 24.1205624,8.19595561 22.3042,8.85693 C22.2494405,8.87693255 22.1915984,8.88718099 22.1333,8.88721 Z" fill="#F5A585" fill-rule="nonzero" id="Shape"/><path d="M38.89014,57.93408 C37.1919404,57.9321417 35.7399791,56.711841 35.4458293,55.0393095 C35.1516795,53.366778 36.1001626,51.7243087 37.6958,51.14308 C37.8637464,51.0814888 38.0518035,51.1143416 38.1889204,51.229226 C38.3260372,51.3441105 38.3913084,51.5235107 38.3600734,51.6996466 C38.3288384,51.8757824 38.2058595,52.0217994 38.0376,52.08253 C37.0871868,52.4281794 36.4386506,53.3124052 36.3945038,54.3227565 C36.3503571,55.3331078 36.9192974,56.2705306 37.83594,56.69776 C38.4362288,56.9805653 39.1248985,57.0106465 39.74756,56.78126 C40.0067537,56.6877081 40.2927692,56.8215685 40.3869842,57.0805219 C40.4811992,57.3394753 40.3480714,57.6258325 40.08936,57.72071 C39.7052036,57.8615268 39.2992921,57.9337482 38.89014,57.93408 Z" fill="#F5A585" fill-rule="nonzero" id="Shape"/><path d="M18.50049,10.58154 C18.2740354,10.5818308 18.0756584,10.4298864 18.0169455,10.2111752 C17.9582327,9.99246406 18.0538447,9.76159856 18.25,9.64844 C19.027383,9.20378635 19.5075349,8.37727333 19.5087355,7.48170663 C19.5099361,6.58613992 19.0320018,5.75834252 18.2558138,5.31160619 C17.4796258,4.86486987 16.5237686,4.86744615 15.75,5.31836 C15.5952594,5.40778598 15.4045574,5.40783339 15.2497724,5.31848434 C15.0949874,5.2291353 14.9996516,5.06397371 14.9996986,4.88525144 C14.9997455,4.70652917 15.0951681,4.5414177 15.25,4.45215 C16.9239976,3.48690369 19.0635048,4.0608448 20.0296402,5.73432938 C20.9957756,7.40781396 20.4229711,9.54762573 18.75,10.51465 C18.6741757,10.5585397 18.5881006,10.5816151 18.50049,10.58154 L18.50049,10.58154 Z" fill="#F5A585" fill-rule="nonzero" id="Shape"/><path d="M43.00586,56.01611 C41.4205784,56.0190521 40.031307,54.9560095 39.6197044,53.4250915 C39.2081018,51.8941735 39.8769792,50.277777 41.25,49.48535 C41.4047406,49.395924 41.5954426,49.3958766 41.7502276,49.4852257 C41.9050126,49.5745747 42.0003484,49.7397363 42.0003014,49.9184586 C42.0002545,50.0971808 41.9048319,50.2622923 41.75,50.35156 C40.972617,50.7962137 40.4924651,51.6227267 40.4912645,52.5182934 C40.4900639,53.4138601 40.9679982,54.2416575 41.7441862,54.6883938 C42.5203742,55.1351301 43.4762314,55.1325539 44.25,54.68164 C44.4047406,54.592214 44.5954426,54.5921666 44.7502276,54.6815157 C44.9050126,54.7708647 45.0003484,54.9360263 45.0003014,55.1147486 C45.0002545,55.2934708 44.9048319,55.4585823 44.75,55.54785 C44.2199651,55.8547211 43.6183197,56.0162485 43.00586,56.01611 Z" fill="#F5A585" fill-rule="nonzero" id="Shape"/><path d="M15.21631,12.88086 C15.0059,12.8811622 14.8178152,12.7497048 14.7457943,12.5520045 C14.6737734,12.3543041 14.7332293,12.1326694 14.89453,11.99756 C15.9521774,11.1100743 16.0901207,9.53323239 15.202635,8.475585 C14.3151493,7.41793761 12.7383074,7.27999431 11.68066,8.16748 C11.5439707,8.28294056 11.3559849,8.31651754 11.1877769,8.25551607 C11.0195689,8.1945146 10.8968061,8.04824315 10.865903,7.87200435 C10.8349998,7.69576555 10.900672,7.51645239 11.03809,7.40186 C11.9955913,6.59476126 13.3113561,6.360756 14.4884225,6.78822761 C15.6654888,7.21569923 16.524461,8.23949718 16.7409069,9.47293476 C16.9573528,10.7063723 16.498284,11.9614626 15.53709,12.76416 C15.4471717,12.8394992 15.3336185,12.8808099 15.21631,12.88086 L15.21631,12.88086 Z" fill="#F5A585" fill-rule="nonzero" id="Shape"/><path d="M46.71533,53.41553 C45.2434894,53.4172892 43.927918,52.4977375 43.423883,51.1148903 C42.9198479,49.732043 43.3351327,48.1816102 44.46289,47.23584 C44.5997364,47.1202132 44.7879759,47.0866127 44.9563751,47.1477534 C45.1247743,47.2088942 45.2476092,47.3554366 45.2783968,47.5319263 C45.3091843,47.708416 45.2432216,47.8878931 45.10547,48.00244 C44.4212921,48.5765426 44.0953657,49.4720398 44.2504642,50.3516065 C44.4055627,51.2311733 45.0181228,51.9611824 45.8573992,52.2666465 C46.6966756,52.5721107 47.6351621,52.4066226 48.31934,51.83252 C48.4560293,51.7170594 48.6440151,51.6834825 48.8122231,51.7444839 C48.9804311,51.8054854 49.1031939,51.9517569 49.134097,52.1279957 C49.1650002,52.3042345 49.099328,52.4835476 48.96191,52.59814 C48.3329483,53.1271382 47.5371759,53.41667 46.71533,53.41553 Z" fill="#F5A585" fill-rule="nonzero" id="Shape"/><path d="M12.38037,15.71582 C12.1862216,15.7155137 12.0098024,15.6028454 11.9278668,15.4268333 C11.8459311,15.2508212 11.8732937,15.0432901 11.99805,14.89453 C12.5748263,14.2106551 12.7421953,13.2706983 12.4369266,12.4297662 C12.1316579,11.5888341 11.4002907,10.9751296 10.5191285,10.8205043 C9.63796635,10.665879 8.74134525,10.993906 8.168,11.68066 C8.05321593,11.8175999 7.8740945,11.882901 7.69810902,11.851965 C7.52212355,11.8210291 7.37601041,11.6985559 7.31480902,11.53068 C7.25360762,11.3628042 7.28661592,11.1750299 7.4014,11.03809 C8.20409744,10.076896 9.45918765,9.6178272 10.6926252,9.83427308 C11.9260628,10.050719 12.9498608,10.9096912 13.3773324,12.0867575 C13.804804,13.2638239 13.5707987,14.5795887 12.7637,15.53709 C12.6689027,15.6507625 12.5283827,15.7162808 12.38037,15.71582 L12.38037,15.71582 Z" fill="#F5A585" fill-rule="nonzero" id="Shape"/><path d="M49.91113,50.21289 C48.5520954,50.2102457 47.317431,49.4211845 46.7442161,48.1889481 C46.1710011,46.9567116 46.3628584,45.5040573 47.23633,44.46289 C47.3511159,44.3261252 47.5301455,44.2609867 47.7059803,44.2920118 C47.8818151,44.3230369 48.0277414,44.4455119 48.0887903,44.6133018 C48.1498392,44.7810917 48.1167359,44.9687052 48.00195,45.10547 C47.4251737,45.7893449 47.2578047,46.7293017 47.5630734,47.5702338 C47.8683421,48.4111659 48.5997093,49.0248704 49.4808715,49.1794957 C50.3620337,49.334121 51.2586547,49.006094 51.832,48.31934 C51.9467841,48.1824001 52.1259055,48.117099 52.301891,48.1480349 C52.4778765,48.1789709 52.6239896,48.3014441 52.685191,48.4693199 C52.7463924,48.6371958 52.7133841,48.8249701 52.5986,48.96191 C52.0034963,49.6751937 51.1477547,50.1207378 50.22214,50.19922 C50.11816,50.2085 50.01416,50.21289 49.91113,50.21289 Z" fill="#F5A585" fill-rule="nonzero" id="Shape"/><path d="M10.08105,19 C9.90247345,18.9998933 9.73751331,18.9045435 9.64828732,18.7498557 C9.55906133,18.5951679 9.55911953,18.4046333 9.64844,18.25 C10.3320147,17.0549141 9.9206828,15.5320724 8.72836538,14.8436801 C7.53604796,14.1552879 6.01155862,14.5604705 5.31836,15.75 C5.2290923,15.9048319 5.06398083,16.0002545 4.88525856,16.0003014 C4.70653629,16.0003484 4.5413747,15.9050126 4.45202566,15.7502276 C4.36267661,15.5954426 4.36272402,15.4047406 4.45215,15.25 C5.41917427,13.5770289 7.55898604,13.0042244 9.23247062,13.9703598 C10.9059552,14.9364952 11.4798963,17.0760024 10.51465,18.75 C10.4251457,18.9047992 10.2598622,19.0000964 10.08105,19 Z" fill="#F5A585" fill-rule="nonzero" id="Shape"/><path d="M52.51074,46.499 C51.2612141,46.497761 50.107214,45.830172 49.4832432,44.7475932 C48.8592723,43.6650144 48.8600754,42.3318263 49.48535,41.25 C49.5746177,41.0951681 49.7397292,40.9997455 49.9184514,40.9996986 C50.0971737,40.9996516 50.2623353,41.0949874 50.3516843,41.2497724 C50.4410334,41.4045574 50.440986,41.5952594 50.35156,41.75 C49.6679853,42.9450859 50.0793172,44.4679276 51.2716346,45.1563199 C52.463952,45.8447121 53.9884414,45.4395295 54.68164,44.25 C54.7709077,44.0951681 54.9360192,43.9997455 55.1147414,43.9996986 C55.2934637,43.9996516 55.4586253,44.0949874 55.5479743,44.2497724 C55.6373234,44.4045574 55.637276,44.5952594 55.54785,44.75 C54.9209766,45.8340537 53.7629936,46.5009088 52.51074,46.499 L52.51074,46.499 Z" fill="#F5A585" fill-rule="nonzero" id="Shape"/><path d="M8.38721,22.6333 C8.2241652,22.6331467 8.07142625,22.5535408 7.97791279,22.4199785 C7.88439934,22.2864163 7.86184741,22.1156601 7.91748,21.9624 C8.38968346,20.6648815 7.72063346,19.2302385 6.423115,18.758035 C5.12559654,18.2858315 3.69095346,18.9548815 3.21875,20.2524 C3.15801939,20.4206595 3.01200244,20.5436384 2.83586656,20.5748734 C2.65973068,20.6061084 2.48033047,20.5408372 2.36544604,20.4037204 C2.25056161,20.2666035 2.21770884,20.0785464 2.2793,19.9106 C2.94027439,18.0942376 4.94855263,17.1576106 6.764915,17.818585 C8.58127737,18.4795594 9.51790439,20.4878376 8.85693,22.3042 C8.78513419,22.5017563 8.59740787,22.6332831 8.38721,22.6333 L8.38721,22.6333 Z" fill="#F5A585" fill-rule="nonzero" id="Shape"/><path d="M54.43408,42.39453 C53.2916931,42.3945563 52.2211067,41.8373488 51.5657384,40.9016457 C50.9103701,39.9659426 50.7526161,38.7693855 51.14308,37.6958 C51.2038106,37.5275405 51.3498276,37.4045616 51.5259634,37.3733266 C51.7020993,37.3420916 51.8814995,37.4073628 51.996384,37.5444796 C52.1112684,37.6815965 52.1441212,37.8696536 52.08253,38.0376 C51.6103265,39.3351185 52.2793765,40.7697615 53.576895,41.241965 C54.8744135,41.7141685 56.3090565,41.0451185 56.78126,39.7476 C56.8419906,39.5793405 56.9880076,39.4563616 57.1641434,39.4251266 C57.3402793,39.3938916 57.5196795,39.4591628 57.634564,39.5962796 C57.7494484,39.7333965 57.7823012,39.9214536 57.72071,40.0894 C57.2166427,41.4707259 55.9045092,42.3910303 54.43409,42.39457 L54.43408,42.39453 Z" fill="#F5A585" fill-rule="nonzero" id="Shape"/><path d="M7.3501,26.50586 C7.32079045,26.5059046 7.29153726,26.5032906 7.2627,26.49805 C7.13209812,26.4751273 7.0159784,26.4011953 6.93994962,26.2925586 C6.86392084,26.1839219 6.83422818,26.0495044 6.85742,25.91895 C7.0964617,24.5592719 6.18859818,23.2630626 4.8291,23.023 C3.47060312,22.7897651 2.17796922,23.6949587 1.93262,25.05132 C1.88357657,25.3220946 1.62488353,25.5022904 1.35389605,25.4544371 C1.08290857,25.4065839 0.901577915,25.1486851 0.94824,24.87749 C1.16289452,23.6437518 2.02034907,22.6187071 3.19676624,22.1894877 C4.3731834,21.7602683 5.68928093,21.9922859 6.64800433,22.7979136 C7.60672773,23.6035414 8.0619706,24.8600042 7.8418,26.09277 C7.799903,26.3315668 7.59254437,26.5057742 7.3501,26.50586 Z" fill="#F5A585" fill-rule="nonzero" id="Shape"/><path d="M55.60645,38.01514 C54.5715894,38.0155892 53.5895835,37.5580432 52.9242402,36.7654178 C52.2588969,35.9727924 51.9784356,34.9263578 52.1582,33.90723 C52.2061991,33.635401 52.465471,33.4539509 52.7373,33.50195 C53.009129,33.5499491 53.1905791,33.809221 53.14258,34.08105 C52.9056542,35.4397303 53.8136367,36.7336714 55.1718997,36.9729781 C56.5301627,37.2122848 57.8256931,36.3065715 58.06738,34.94873 C58.1164234,34.6779554 58.3751165,34.4977596 58.6461039,34.5456129 C58.9170914,34.5934661 59.0984221,34.8513649 59.05176,35.12256 C58.7546628,36.7934715 57.3035653,38.0117698 55.60645,38.01514 L55.60645,38.01514 Z" fill="#F5A585" fill-rule="nonzero" id="Shape"/><path d="M7,30.5 C6.86736817,30.500077 6.74014647,30.4474233 6.64636159,30.3536384 C6.5525767,30.2598535 6.49992301,30.1326318 6.5,30 C6.5,28.6192881 5.38071187,27.5 4,27.5 C2.61928813,27.5 1.5,28.6192881 1.5,30 C1.5,30.2761424 1.27614237,30.5 1,30.5 C0.723857625,30.5 0.5,30.2761424 0.5,30 C0.5,28.0670034 2.06700338,26.5 4,26.5 C5.93299662,26.5 7.5,28.0670034 7.5,30 C7.50007699,30.1326318 7.4474233,30.2598535 7.35363841,30.3536384 C7.25985353,30.4474233 7.13263183,30.500077 7,30.5 Z" fill="#F5A585" fill-rule="nonzero" id="Shape"/><path d="M56,33.5 C54.0679719,33.4976637 52.5023363,31.9320281 52.5,30 C52.5,29.7238576 52.7238576,29.5 53,29.5 C53.2761424,29.5 53.5,29.7238576 53.5,30 C53.5,31.3807119 54.6192881,32.5 56,32.5 C57.3807119,32.5 58.5,31.3807119 58.5,30 C58.5,29.7238576 58.7238576,29.5 59,29.5 C59.2761424,29.5 59.5,29.7238576 59.5,30 C59.4976637,31.9320281 57.9320281,33.4976637 56,33.5 L56,33.5 Z" fill="#F5A585" fill-rule="nonzero" id="Shape"/><path d="M1.43994,35.53564 C1.1974988,35.5355551 0.990141307,35.3613528 0.94824,35.12256 C0.616031801,33.2205606 1.88684959,31.4088113 3.78831909,31.0735835 C5.68978859,30.7383557 7.50355345,32.0062952 7.8418,33.90723 C7.87284996,34.0830726 7.80773042,34.2621227 7.67097128,34.3769341 C7.53421213,34.4917454 7.34659036,34.5248753 7.17878127,34.4638441 C7.01097217,34.4028128 6.88846995,34.2568926 6.85742,34.08105 C6.68197017,33.0850771 5.92376702,32.2929017 4.93643538,32.0739933 C3.94910375,31.8550849 2.92713347,32.2525652 2.34717,33.08105 C1.96506697,33.6232474 1.81578963,34.2957894 1.93262,34.94873 C1.95581182,35.0792844 1.92611916,35.2137019 1.85009038,35.3223386 C1.7740616,35.4309753 1.65794188,35.5049073 1.52734,35.52783 C1.49850274,35.5330706 1.46924955,35.5356846 1.43994,35.53564 Z" fill="#F5A585" fill-rule="nonzero" id="Shape"/><path d="M55.60352,28.98535 C53.9064009,28.9819846 52.4552979,27.7636852 52.1582,26.09277 C52.1102009,25.820941 52.291651,25.5616691 52.56348,25.51367 C52.835309,25.4656709 53.0945809,25.647121 53.14258,25.91895 C53.3842669,27.2767915 54.6797973,28.1825048 56.0380603,27.9431981 C57.3963233,27.7038914 58.3043058,26.4099503 58.06738,25.05127 C58.0207179,24.7800749 58.2020486,24.5221761 58.4730361,24.4743229 C58.7440235,24.4264696 59.0027166,24.6066654 59.05176,24.87744 C59.2305424,25.8964105 58.9497206,26.9422933 58.2845874,27.7346707 C57.6194541,28.527048 56.6380556,28.9848564 55.60352,28.98535 L55.60352,28.98535 Z" fill="#F5A585" fill-rule="nonzero" id="Shape"/><path d="M2.749,40.41846 C2.53880213,40.4184431 2.35107581,40.2869163 2.27928,40.08936 C1.85171165,38.914376 2.08346872,37.600541 2.88725057,36.6427639 C3.69103241,35.6849869 4.94472544,35.2287769 6.17607562,35.4459839 C7.40742579,35.6631909 8.42936171,36.520816 8.85693,37.6958 C8.91852116,37.8637464 8.88566839,38.0518035 8.77078396,38.1889204 C8.65589953,38.3260372 8.47649932,38.3913084 8.30036344,38.3600734 C8.12422756,38.3288384 7.97821061,38.2058595 7.91748,38.0376 C7.44527654,36.7400815 6.01063346,36.0710315 4.713115,36.543235 C3.41559654,37.0154385 2.74654654,38.4500815 3.21875,39.7476 C3.27437264,39.9008599 3.25181648,40.0716107 3.15830507,40.20517 C3.06479365,40.3387293 2.91206124,40.4183374 2.74902,40.4185 L2.749,40.41846 Z" fill="#F5A585" fill-rule="nonzero" id="Shape"/><path d="M54.436,24.60791 C52.9635032,24.6076271 51.6480587,23.6873712 51.143,22.3042 C51.0814088,22.1362536 51.1142616,21.9481965 51.229146,21.8110796 C51.3440305,21.6739628 51.5234307,21.6086916 51.6995666,21.6399266 C51.8757024,21.6711616 52.0217194,21.7941405 52.08245,21.9624 C52.3879121,22.8017473 53.1179571,23.4143741 53.9975842,23.5695098 C54.8772113,23.7246455 55.7727842,23.3987214 56.3469492,22.7145098 C56.9211143,22.0302982 57.0866421,21.0917473 56.78118,20.2524 C56.6876281,19.9932063 56.8214885,19.7071908 57.0804419,19.6129758 C57.3393953,19.5187608 57.6257525,19.6518886 57.72063,19.9106 C58.110639,20.982969 57.9535306,22.1781238 57.2996255,23.1132657 C56.6457203,24.0484076 55.5770869,24.6061715 54.436,24.60791 L54.436,24.60791 Z" fill="#F5A585" fill-rule="nonzero" id="Shape"/><path d="M4.88574,45 C4.70687557,45.0003017 4.54149974,44.904949 4.45215,44.75 C3.48690369,43.0760024 4.0608448,40.9364952 5.73432938,39.9703598 C7.40781396,39.0042244 9.54762573,39.5770289 10.51465,41.25 C10.604076,41.4047406 10.6041234,41.5954426 10.5147743,41.7502276 C10.4254253,41.9050126 10.2602637,42.0003484 10.0815414,42.0003014 C9.90281917,42.0002545 9.7377077,41.9048319 9.64844,41.75 C8.95524138,40.5604705 7.43075204,40.1552879 6.23843462,40.8436801 C5.0461172,41.5320724 4.63478531,43.0549141 5.31836,44.25 C5.4076414,44.4046398 5.40767885,44.5951552 5.31845825,44.7498301 C5.22923765,44.9045049 5.06430264,44.9998598 4.88574,45 L4.88574,45 Z" fill="#F5A585" fill-rule="nonzero" id="Shape"/><path d="M52.52246,20.499 C51.2702064,20.5009088 50.1122234,19.8340537 49.48535,18.75 C49.395924,18.5952594 49.3958766,18.4045574 49.4852257,18.2497724 C49.5745747,18.0949874 49.7397363,17.9996516 49.9184586,17.9996986 C50.0971808,17.9997455 50.2622923,18.0951681 50.35156,18.25 C51.0447586,19.4395295 52.569248,19.8447121 53.7615654,19.1563199 C54.9538828,18.4679276 55.3652147,16.9450859 54.68164,15.75 C54.592214,15.5952594 54.5921666,15.4045574 54.6815157,15.2497724 C54.7708647,15.0949874 54.9360263,14.9996516 55.1147486,14.9996986 C55.2934708,14.9997455 55.4585823,15.0951681 55.54785,15.25 C56.1731246,16.3318263 56.1739277,17.6650144 55.5499568,18.7475932 C54.925986,19.830172 53.7719859,20.497761 52.52246,20.499 L52.52246,20.499 Z" fill="#F5A585" fill-rule="nonzero" id="Shape"/><path d="M7.78516,49.14062 C7.63716016,49.1410811 7.49665181,49.0755704 7.40186,48.96191 C6.59476126,48.0044087 6.360756,46.6886439 6.78822761,45.5115775 C7.21569923,44.3345112 8.23949718,43.475539 9.47293476,43.2590931 C10.7063723,43.0426472 11.9614626,43.501716 12.76416,44.46291 C12.9402802,44.6747082 12.911993,44.9890439 12.700889,45.1659956 C12.489785,45.3429474 12.1753405,45.3158965 11.99756,45.10549 C11.1100743,44.0478426 9.53323239,43.9098993 8.475585,44.797385 C7.41793761,45.6848707 7.27999431,47.2617126 8.16748,48.31936 C8.29222991,48.4681204 8.31958871,48.6756473 8.23765388,48.8516554 C8.15571904,49.0276636 7.97930452,49.1403305 7.78516,49.14064 L7.78516,49.14062 Z" fill="#F5A585" fill-rule="nonzero" id="Shape"/><path d="M49.92285,16.78809 C49.81985,16.78809 49.71631,16.7832 49.6123,16.77441 C48.6866865,16.6959314 47.8309448,16.2503909 47.23584,15.53711 C47.1202132,15.4002636 47.0866127,15.2120241 47.1477534,15.0436249 C47.2088942,14.8752257 47.3554366,14.7523908 47.5319263,14.7216032 C47.708416,14.6908157 47.8878931,14.7567784 48.00244,14.89453 C48.8899257,15.9521774 50.4667676,16.0901207 51.524415,15.202635 C52.5820624,14.3151493 52.7200057,12.7383074 51.83252,11.68066 C51.7170594,11.5439707 51.6834825,11.3559849 51.7444839,11.1877769 C51.8054854,11.0195689 51.9517569,10.8968061 52.1279957,10.865903 C52.3042345,10.8349998 52.4835476,10.900672 52.59814,11.03809 C53.4713763,12.0794039 53.6630274,13.532019 53.0897425,14.76418 C52.5164576,15.9963411 51.2818456,16.7853617 49.92285,16.78809 L49.92285,16.78809 Z" fill="#F5A585" fill-rule="nonzero" id="Shape"/><path d="M11.35889,52.71533 C11.2415746,52.7152846 11.1280136,52.6739736 11.03809,52.59863 C10.076896,51.7959326 9.6178272,50.5408423 9.83427308,49.3074048 C10.050719,48.0739672 10.9096912,47.0501692 12.0867575,46.6226976 C13.2638239,46.195226 14.5795887,46.4292313 15.53709,47.23633 C15.7485101,47.4137736 15.7760535,47.7290099 15.59861,47.94043 C15.4211664,48.1518501 15.1059301,48.1793935 14.89451,48.00195 C14.2107401,47.4242419 13.2702691,47.2562186 12.4287594,47.5614224 C11.5872497,47.8666261 10.9731482,48.5984709 10.8186925,49.4801916 C10.6642369,50.3619123 10.9930031,51.2589242 11.68066,51.832 C11.8419592,51.9671082 11.9014157,52.1887404 11.8293974,52.3864398 C11.7573791,52.5841391 11.5692981,52.715598 11.35889,52.7153 L11.35889,52.71533 Z" fill="#F5A585" fill-rule="nonzero" id="Shape"/><path d="M46.71,13.58105 C45.8879923,13.5822783 45.0920373,13.2927467 44.46293,12.76367 C44.3261651,12.6488841 44.2610267,12.4698545 44.2920518,12.2940197 C44.3230768,12.1181849 44.4455519,11.9722586 44.6133418,11.9112097 C44.7811317,11.8501608 44.9687452,11.8832641 45.10551,11.99805 C45.7891965,12.5764938 46.7300736,12.7450337 47.5720394,12.439881 C48.4140051,12.1347282 49.0284198,11.4025056 49.1827406,10.5203437 C49.3370614,9.63818185 49.0077105,8.74086179 48.31934,8.168 C48.1076493,7.99055919 48.0798842,7.67510574 48.257325,7.463415 C48.4347658,7.25172426 48.7502193,7.22395919 48.96191,7.4014 C50.0899796,8.3469572 50.5055435,9.8974714 50.0015595,11.2804463 C49.4975756,12.6634213 48.1818529,13.5830198 46.70991,13.58108 L46.71,13.58105 Z" fill="#F5A585" fill-rule="nonzero" id="Shape"/><path d="M15.49951,55.61475 C15.4118985,55.6148216 15.3258235,55.5917427 15.25,55.54785 C14.1663229,54.9229893 13.4985001,53.7672931 13.4982498,52.5163707 C13.4979995,51.2654483 14.1653598,50.109485 15.2487868,49.4841906 C16.3322137,48.8588963 17.6669874,48.8593383 18.75,49.48535 C18.9048319,49.5746177 19.0002545,49.7397292 19.0003014,49.9184514 C19.0003484,50.0971737 18.9050126,50.2623353 18.7502276,50.3516843 C18.5954426,50.4410334 18.4047406,50.440986 18.25,50.35156 C17.4762314,49.9006461 16.5203742,49.8980699 15.7441862,50.3448062 C14.9679982,50.7915425 14.4900639,51.6193399 14.4912645,52.5149066 C14.4924651,53.4104733 14.972617,54.2369863 15.75,54.68164 C15.9461659,54.7947942 16.0417863,55.0256659 15.9830722,55.244384 C15.9243581,55.463102 15.7259716,55.6150486 15.49951,55.61475 L15.49951,55.61475 Z" fill="#F5A585" fill-rule="nonzero" id="Shape"/><path d="M42.99414,10.98242 C42.381713,10.9827978 41.7800476,10.821434 41.25,10.51465 C41.0951681,10.4253823 40.9997455,10.2602708 40.9996986,10.0815486 C40.9996516,9.90282629 41.0949874,9.7376647 41.2497724,9.64831566 C41.4045574,9.55896661 41.5952594,9.55901402 41.75,9.64844 C42.9450859,10.3320147 44.4679276,9.9206828 45.1563199,8.72836538 C45.8447121,7.53604796 45.4395295,6.01155862 44.25,5.31836 C44.0951681,5.2290923 43.9997455,5.06398083 43.9996986,4.88525856 C43.9996516,4.70653629 44.0949874,4.5413747 44.2497724,4.45202566 C44.4045574,4.36267661 44.5952594,4.36272402 44.75,4.45215 C46.1230846,5.24444219 46.792028,6.86082649 46.3803997,8.39172508 C45.9687715,9.92262367 44.5794092,10.9855704 42.99414,10.98242 L42.99414,10.98242 Z" fill="#F5A585" fill-rule="nonzero" id="Shape"/><path d="M20.08154,57.751 C20.0232454,57.750928 19.9654107,57.7406809 19.91064,57.72072 C18.7343848,57.2940892 17.8753729,56.2719559 17.6575829,55.0398205 C17.4397929,53.8076851 17.8963608,52.5530123 18.8550907,51.7490055 C19.8138206,50.9449986 21.1288454,50.7139842 22.3042,51.14309 C22.4724595,51.2038206 22.5954384,51.3498376 22.6266734,51.5259734 C22.6579084,51.7021093 22.5926372,51.8815095 22.4555204,51.996394 C22.3184035,52.1112784 22.1303464,52.1441312 21.9624,52.08254 C20.6648815,51.6103366 19.2302385,52.2793866 18.758035,53.576905 C18.2858316,54.8744235 18.9548816,56.3090665 20.2524,56.78127 C20.4803454,56.8642645 20.6158193,57.0989186 20.5737164,57.3378213 C20.5316135,57.576724 20.3240843,57.7509292 20.0815,57.751 L20.08154,57.751 Z" fill="#F5A585" fill-rule="nonzero" id="Shape"/><path d="M38.89453,9.06982 C38.4855864,9.06941175 38.0798764,8.99735916 37.6958,8.85693 C37.5275405,8.79619939 37.4045616,8.65018244 37.3733266,8.47404656 C37.3420916,8.29791068 37.4073628,8.11851047 37.5444796,8.00362604 C37.6815965,7.88874161 37.8696536,7.85588884 38.0376,7.91748 C38.8769473,8.22294208 39.8154982,8.05741424 40.4997098,7.48324922 C41.1839213,6.9090842 41.5098455,6.01351132 41.3547098,5.13388422 C41.1995741,4.25425712 40.5869473,3.52421208 39.7476,3.21875 C39.5793405,3.15801939 39.4563616,3.01200244 39.4251266,2.83586656 C39.3938916,2.65973068 39.4591628,2.48033047 39.5962796,2.36544604 C39.7333965,2.25056161 39.9214536,2.21770884 40.0894,2.2793 C41.6838908,2.86144298 42.6311852,4.50340685 42.3370306,6.1751617 C42.042876,7.84691655 40.5920042,9.06690963 38.89457,9.06982 L38.89453,9.06982 Z" fill="#F5A585" fill-rule="nonzero" id="Shape"/><path d="M24.96484,59.05957 C24.9355305,59.0596138 24.9062774,59.0569997 24.87744,59.05176 C23.6443754,58.8363897 22.6202021,57.9788988 22.1914305,56.8028938 C21.762659,55.6268889 21.9945739,54.311428 22.7996533,53.3529502 C23.6047327,52.3944724 24.8603956,51.9389151 26.09277,52.1582 C26.364599,52.2061991 26.5460491,52.465471 26.49805,52.7373 C26.4500509,53.009129 26.190779,53.1905791 25.91895,53.14258 C24.5602697,52.9056542 23.2663286,53.8136367 23.0270219,55.1718997 C22.7877152,56.5301627 23.6934285,57.8256931 25.05127,58.06738 C25.306373,58.1124672 25.4847692,58.344964 25.4622878,58.6030434 C25.4398064,58.8611228 25.2238966,59.0592714 24.96484,59.05957 L24.96484,59.05957 Z" fill="#F5A585" fill-rule="nonzero" id="Shape"/><path d="M34.52246,7.896 C34.3161879,7.89607431 34.110312,7.87793723 33.90723,7.8418 C33.7313874,7.81075005 33.5854672,7.68824783 33.5244359,7.52043873 C33.4634047,7.35262964 33.4965346,7.16500787 33.6113459,7.02824872 C33.7261573,6.89148958 33.9052074,6.82637004 34.08105,6.85742 C35.4397303,7.0943458 36.7336714,6.18636328 36.9729781,4.8281003 C37.2122848,3.46983732 36.3065715,2.17430686 34.94873,1.93262 C34.6779554,1.88357657 34.4977596,1.62488353 34.5456129,1.35389605 C34.5934661,1.08290857 34.8513649,0.901577915 35.12256,0.94824 C36.9080318,1.26369291 38.1571377,2.89026726 38.0011133,4.69666602 C37.8450889,6.50306477 36.3355785,7.89136871 34.52246,7.896 L34.52246,7.896 Z" fill="#F5A585" fill-rule="nonzero" id="Shape"/><polygon fill="#FCCC88" id="Shape" points="29.99 7 36.746 20.643 51.854 22.831 40.922 33.45 43.503 48.445 29.99 41.365 16.477 48.445 19.057 33.45 8.125 22.831 23.233 20.643"/><path d="M30,1 C13.9837423,1 1,13.9837423 1,30 C1,46.0162577 13.9837423,59 30,59 C46.0162577,59 59,46.0162577 59,30 C59.0012787,22.3083299 55.946341,14.9313234 50.5075088,9.4924912 C45.0686766,4.05365901 37.6916701,0.998721273 30,1 Z M30,53 C17.2974508,53 7,42.7025492 7,30 C7,17.2974508 17.2974508,7 30,7 C42.7025492,7 53,17.2974508 53,30 C52.9840498,42.6959366 42.6959366,52.9840498 30,53 Z" id="Shape" stroke="#F58D6D"/></g></g></svg>