<?xml version="1.0" ?><svg height="53px" version="1.1" viewBox="0 0 58 53" width="58px" xmlns="http://www.w3.org/2000/svg" xmlns:xlink="http://www.w3.org/1999/xlink"><title/><desc/><defs/><g fill="none" fill-rule="evenodd" id="Page-1" stroke="none" stroke-width="1"><g id="010---Heart"><path d="M56.15991,25.07 C56.01001,25.5 55.84009,25.93 55.66991,26.37 C55.24,27.44 54.75,28.53 54.2,29.61 C54.04009,29.91 53.88005,30.22 53.72,30.52 C53.62,30.70005 53.52,30.89 53.41995,31.07005 C53.0307979,31.8180759 52.6035883,32.5456791 52.14,33.25 C51.94994,33.53 51.76,33.81 51.56005,34.09 C50.3553646,35.7867164 49.017826,37.3850749 47.56005,38.87 C46.89,39.56 46.18993,40.25 45.45995,40.93 C40.4001016,45.516773 34.8848074,49.5745139 29,53.04 C23.1195656,49.5811278 17.610584,45.5264488 12.56006,40.94 L12.55006,40.94 C11.82006,40.25 11.11,39.56 10.43995,38.86 L10.42995,38.86 C8.97501259,37.3725036 7.63766685,35.7743755 6.42995,34.08 C6.22998333,33.8 6.04,33.52 5.86,33.24 C5.39651271,32.5390442 4.96931391,31.8147578 4.58009,31.07 C4.48,30.89 4.38,30.7 4.28,30.52 C4.12,30.22 3.95993,29.91 3.8,29.61 C3.25,28.53 2.76,27.44 2.33,26.37 C2.15983,25.93 1.98991,25.5 1.84,25.07 C0.33250435,21.1525151 -0.245981941,16.9388072 0.15,12.76 C0.192176066,12.3569314 0.255621184,11.956373 0.34007,11.56 C0.825577466,8.51074034 2.31828586,5.7119121 4.58007,3.61 C10.67993,-1.88 22.89,-1.88 29,9.1 C35.11,-1.88 47.32007,-1.88 53.41992,3.61 C55.6817041,5.7119121 57.1744125,8.51074034 57.65992,11.56 C57.7443688,11.956373 57.8078139,12.3569314 57.84999,12.76 C58.2459465,16.9388134 57.6674328,21.1525215 56.15991,25.07 L56.15991,25.07 Z" fill="#ED634C" id="Shape"/><path d="M57.85,12.76 L57.2,13.37 C55.7957481,14.6633169 53.6342519,14.6633169 52.23,13.37 C51.2186795,12.4221642 49.6465706,12.4177972 48.63,13.36 C47.2329095,14.6677896 45.0622518,14.672157 43.65991,13.37 C42.6486434,12.4221742 41.0765768,12.4178072 40.06006,13.36 C38.6610353,14.6628102 36.4943161,14.6671698 35.09006,13.37 C34.0786965,12.4221754 32.5065734,12.4178085 31.48996,13.36 C30.0929209,14.6678315 27.9222507,14.672199 26.51996,13.37 C25.504725,12.4222021 23.9303202,12.417841 22.90985,13.36 C21.5146817,14.6628175 19.3502602,14.6671812 17.94985,13.37 C16.9347213,12.4221771 15.3603544,12.4178158 14.33999,13.36 C12.9467597,14.6677961 10.7783923,14.6721677 9.3799,13.37 C8.36472081,12.4221682 6.79031472,12.417807 5.7699,13.36 C4.37286085,14.6678315 2.20219072,14.672199 0.7999,13.37 L0.1499,12.76 C0.192076066,12.3569314 0.255521184,11.956373 0.33997,11.56 L1.49,12.64 C2.50597403,13.5799517 4.07412597,13.5799517 5.0901,12.64 C6.48524322,11.3371192 8.64971459,11.3327553 10.0501,12.63 C11.0652537,13.5777597 12.6395709,13.5821209 13.65996,12.64 C15.05316,11.3321761 17.2215379,11.3278044 18.62,12.63 C19.6352023,13.5777735 21.2095625,13.5821346 22.23,12.64 C23.6270178,11.3321147 25.7977304,11.3277471 27.2,12.63 C27.6424094,13.0443255 28.215196,13.2918076 28.82012,13.33 C29.5482606,13.3924951 30.2684988,13.1415211 30.80012,12.64005 C32.1971417,11.3321745 34.3678466,11.3278069 35.77012,12.63005 C36.7814637,13.5778272 38.3535265,13.582194 39.37012,12.64005 C40.7671833,11.332192 42.9378951,11.3278244 44.34021,12.63005 C45.3514979,13.577822 46.9235221,13.5821889 47.94006,12.64005 C49.3390618,11.3371816 51.5058267,11.3328219 52.91006,12.63005 C53.9214468,13.577816 55.4935236,13.5821827 56.51016,12.64005 L57.66006,11.56005 C57.7444634,11.9564088 57.8078651,12.3569505 57.85,12.76 L57.85,12.76 Z" fill="#EBECED" fill-rule="nonzero" id="Shape"/><path d="M56.15991,25.07 C56.01001,25.5 55.84009,25.93 55.66991,26.37 C54.4822291,26.6981881 53.2091631,26.4006293 52.29,25.58 C52.2691189,25.5601113 52.2455284,25.5432778 52.21993,25.53 C51.1924468,24.6200106 49.6474132,24.6200106 48.61993,25.53 C47.2028279,26.7800011 45.0769421,26.7800011 43.65984,25.53 C42.6343112,24.6150209 41.0855188,24.6150209 40.05999,25.53 C38.6785718,26.8039764 36.5570656,26.8255803 35.14999,25.58 C35.1245768,25.5625864 35.1011264,25.5424688 35.08005,25.52 C34.0499913,24.6128906 32.5049535,24.6171822 31.47995,25.53 C30.0584422,26.7821559 27.9264075,26.7778661 26.50995,25.52 C25.4978465,24.5799958 23.9319635,24.5799958 22.91986,25.52 C22.89996,25.55 22.86994,25.56 22.84992,25.58 C21.4263655,26.7806081 19.3387295,26.7593491 17.93992,25.53 C16.9143912,24.6150209 15.3655988,24.6150209 14.34007,25.53 C12.9229679,26.7800011 10.7970821,26.7800011 9.37998,25.53 C8.36865565,24.5821739 6.7965544,24.577807 5.77998,25.52 C5.74998,25.55 5.72998,25.56 5.70991,25.58 C4.79075353,26.400619 3.51770162,26.6981772 2.33003,26.37 C2.15986,25.93 1.98994,25.5 1.84003,25.07 C2.85248478,25.7402144 4.19247215,25.6285488 5.08003,24.8 C5.09993,24.77 5.12995,24.76 5.14997,24.74 C6.5551269,23.4892894 8.68057458,23.5109334 10.05997,24.79 C11.0873786,25.7000352 12.6324114,25.7000352 13.65982,24.79 C15.0769221,23.5399989 17.2028079,23.5399989 18.61991,24.79 C19.6473694,25.7000521 21.1924506,25.7000521 22.21991,24.79 C22.2449033,24.775755 22.2683811,24.7590019 22.28998,24.74 C23.6951118,23.489202 25.8206314,23.5108467 27.2,24.79 C28.2249864,25.7028625 29.7700582,25.7071543 30.8001,24.8 C32.1926325,23.5580414 34.2875339,23.5324413 35.71,24.74 C35.73,24.76 35.76,24.78 35.78007,24.8 C36.7966444,25.742193 38.3687457,25.7378261 39.38007,24.79 C40.7971721,23.5399989 42.9230579,23.5399989 44.34016,24.79 C45.3656784,25.7050064 46.9144916,25.7050064 47.94001,24.79 C49.3349987,23.5507097 51.4300731,23.529375 52.85001,24.74 C52.87001,24.76 52.90001,24.78 52.91995,24.8 C53.8075012,25.6285281 55.1474639,25.7401931 56.15991,25.07 L56.15991,25.07 Z" fill="#EBECED" fill-rule="nonzero" id="Shape"/><path d="M54.2,29.61 C54.04009,29.91 53.88005,30.22 53.72,30.52 C53.1896576,30.3735156 52.7002869,30.1065862 52.29,29.74 C52.2691347,29.7200923 52.2455413,29.7032566 52.21993,29.69 C51.1886947,28.7899607 49.6511653,28.7899607 48.61993,29.69 C47.2028279,30.9400011 45.0769421,30.9400011 43.65984,29.69 C42.6286552,28.7899782 41.0911748,28.7899782 40.05999,29.69 C38.6785407,30.9638978 36.5570951,30.9855012 35.14999,29.74 C35.1245907,29.7225683 35.1011422,29.7024524 35.08005,29.68 C34.0444138,28.7878493 32.510614,28.7921098 31.47995,29.69 C30.0584422,30.9421559 27.9264075,30.9378661 26.50995,29.68 C25.4932771,28.7478369 23.9313241,28.7521876 22.91986,29.69 C22.894912,29.7042527 22.8714781,29.7210055 22.84992,29.74 C21.428165,30.9456014 19.3368287,30.9243047 17.93992,29.69 C16.9087352,28.7899782 15.3712548,28.7899782 14.34007,29.69 C12.9229679,30.9400011 10.7970821,30.9400011 9.37998,29.69 C8.36407702,28.749965 6.79588298,28.749965 5.77998,29.69 C5.75497352,29.7042244 5.73149372,29.7209789 5.70991,29.74 C5.30220419,30.1101813 4.81196016,30.377604 4.28,30.52 C4.12,30.22 3.95993,29.91 3.8,29.61 C4.2804933,29.5215155 4.72507252,29.2957526 5.08,28.96 C5.0999,28.94 5.12992,28.92 5.14994,28.9 C6.55883634,27.6593079 8.67660189,27.6808738 10.05994,28.95 C11.0854653,29.8649882 12.6342647,29.8649882 13.65979,28.95 C15.0806385,27.7099491 17.1990315,27.7099491 18.61988,28.95 C19.6454563,29.8650049 21.1943037,29.8650049 22.21988,28.95 C22.2442011,28.9298049 22.2711378,28.9129863 22.29996,28.9 C23.7050114,27.6592741 25.82042,27.6808604 27.19986,28.95 C28.2248464,29.8628625 29.7699182,29.8671543 30.79996,28.96 C32.1963528,27.7278872 34.2839162,27.7023775 35.71,28.9 C35.73,28.92 35.76,28.94 35.78007,28.96 C36.7966559,29.9021636 38.368734,29.8977967 39.38007,28.95 C40.8009185,27.7099491 42.9193115,27.7099491 44.34016,28.95 C45.3656853,29.8649882 46.9144847,29.8649882 47.94001,28.95 C49.3426026,27.7305732 51.4228753,27.7093892 52.85001,28.9 C52.8753954,28.9174497 52.8988421,28.9375641 52.91995,28.96 C53.2761966,29.2939037 53.7202184,29.5193748 54.2,29.61 Z" fill="#EBECED" fill-rule="nonzero" id="Shape"/><path d="M52.14,33.25 C51.94994,33.53 51.76,33.81 51.56005,34.09 C50.5797256,33.6389924 49.4253279,33.8117559 48.61999,34.53 C47.2028879,35.7800011 45.0770021,35.7800011 43.6599,34.53 C42.6343712,33.6150209 41.0855788,33.6150209 40.06005,34.53 C38.6786318,35.8039764 36.5571256,35.8255803 35.15005,34.58 C35.1246368,34.5625864 35.1011864,34.5424688 35.08011,34.52 C34.0500513,33.6128906 32.5050135,33.6171822 31.48001,34.53 C30.0585022,35.7821559 27.9264675,35.7778661 26.51001,34.52 C25.4979065,33.5799958 23.9320235,33.5799958 22.91992,34.52 C22.90002,34.55 22.87,34.56 22.84998,34.58 C21.4264255,35.7806081 19.3387895,35.7593491 17.93998,34.53 C16.9144512,33.6150209 15.3656588,33.6150209 14.34013,34.53 C12.9230279,35.7800011 10.7971421,35.7800011 9.38004,34.53 C8.58470943,33.7836521 7.41164697,33.6047147 6.42997,34.08 C6.22999,33.8 6.04,33.52 5.86,33.24 C7.23471174,32.5125131 8.91902741,32.7330746 10.06007,33.79 C11.0855884,34.7050064 12.6344016,34.7050064 13.65992,33.79 C15.0770221,32.5399989 17.2029079,32.5399989 18.62001,33.79 C19.6474694,34.7000521 21.1925506,34.7000521 22.22001,33.79 C22.2450033,33.775755 22.2684811,33.7590019 22.29008,33.74 C23.6951965,32.4892627 25.8206459,32.5109072 27.2,33.79 C28.2249864,34.7028625 29.7700582,34.7071543 30.8001,33.8 C32.1906957,32.5530617 34.2893485,32.5274157 35.71,33.74 C35.73,33.76 35.76,33.78 35.78007,33.8 C36.7966444,34.742193 38.3687457,34.7378261 39.38007,33.79 C40.7971721,32.5399989 42.9230579,32.5399989 44.34016,33.79 C45.3656784,34.7050064 46.9144916,34.7050064 47.94001,33.79 C49.0995611,32.7718364 50.7606053,32.558273 52.14,33.25 Z" fill="#EBECED" fill-rule="nonzero" id="Shape"/><path d="M47.56006,38.87 C46.89001,39.56 46.18994,40.25 45.45996,40.93 C44.6603205,40.800017 43.9163382,40.4384369 43.32007,39.89 C42.4899403,39.1432646 41.2301497,39.1432646 40.40002,39.89 C39.6311722,40.6048095 38.6198687,41.0014762 37.57007,41 C36.564487,41.0034213 35.5927828,40.6368076 34.84007,39.97 C34.7986856,39.9462325 34.7614869,39.9158277 34.72996,39.88 C33.8911438,39.1628314 32.6539173,39.1670832 31.82005,39.89 C31.0573329,40.6082209 30.0476387,41.0056466 29,41 C27.9497124,41.0038741 26.9375184,40.6068764 26.16992,39.89 C25.3430123,39.1449735 24.0869177,39.1449735 23.26001,39.89 C23.2253701,39.9223952 23.1886231,39.9524609 23.15001,39.98 C21.5331449,41.3289798 19.1722858,41.2906956 17.60001,39.89 C16.7698879,39.1432946 15.5101321,39.1432946 14.68001,39.89 C14.0945764,40.4445288 13.3560197,40.8103458 12.56014,40.94 L12.55014,40.94 C11.82014,40.25 11.11008,39.56 10.44003,38.86 C10.5999447,38.8013849 10.7728304,38.7875541 10.94003,38.82 L11.94003,39 C12.4535683,38.9817733 12.943423,38.779461 13.32016,38.43 C14.9319873,37.0100197 17.3482227,37.0100197 18.96005,38.43 C19.7946405,39.1649641 21.0454595,39.1649641 21.88005,38.43 C21.91997,38.4 21.95005,38.37 21.99005,38.34 C23.5943408,36.9558342 25.9815324,36.9945451 27.5401,38.43 C28.3702252,39.162826 29.6148678,39.1671033 30.45001,38.44 C32.0300462,37.0395329 34.3955429,37.0013111 36.02,38.35 C36.0552712,38.3741498 36.0886967,38.4008903 36.12,38.43 C36.945033,39.1799813 38.204967,39.1799813 39.03,38.43 C40.6456366,37.0100134 43.0642634,37.0100134 44.6799,38.43 C45.2764828,38.962236 46.1141167,39.1305224 46.86997,38.87 C47.0921345,38.7849285 47.3378955,38.7849285 47.56006,38.87 Z" fill="#EBECED" fill-rule="nonzero" id="Shape"/><path d="M5.81683,16.85787 C6.03081866,16.4392193 6.4210982,16.1384457 6.88045186,16.0381771 C7.33980552,15.9379085 7.81992026,16.0486907 8.1889,16.34009 C8.7819,16.85787 8.7819,17.8934 8.1889,18.92893 C7.57684789,19.8005217 6.7630061,20.5110924 5.81683,21 C4.8706539,20.5110924 4.05681211,19.8005217 3.44476,18.92893 C2.85176,17.8934 2.85176,16.85787 3.44476,16.34009 C3.81373974,16.0486907 4.29385448,15.9379085 4.75320814,16.0381771 C5.2125618,16.1384457 5.60284134,16.4392193 5.81683,16.85787 Z" fill="#FE9189" id="Shape"/><path d="M15.0901,16.85787 C15.3040865,16.4392197 15.6943642,16.1384461 16.1537164,16.0381774 C16.6130686,15.9379087 17.093182,16.0486909 17.46216,16.34009 C18.05516,16.85787 18.05516,17.8934 17.46216,18.92893 C16.8501119,19.8005216 16.0362734,20.5110924 15.0901,21 C14.143911,20.5110993 13.3300579,19.8005278 12.718,18.92893 C12.125,17.8934 12.125,16.85787 12.718,16.34009 C13.086981,16.0486793 13.5671036,15.9378902 14.0264655,16.0381593 C14.4858273,16.1384284 14.8761127,16.4392095 15.0901,16.85787 L15.0901,16.85787 Z" fill="#FE9189" id="Shape"/><path d="M24.36336,16.85787 C24.5773465,16.4392197 24.9676242,16.1384461 25.4269764,16.0381774 C25.8863286,15.9379087 26.366442,16.0486909 26.73542,16.34009 C27.32842,16.85787 27.32842,17.8934 26.73542,18.92893 C26.1233746,19.800524 25.3095354,20.5110953 24.36336,21 C23.4171839,20.5110924 22.6033421,19.8005217 21.99129,18.92893 C21.39829,17.8934 21.39829,16.85787 21.99129,16.34009 C22.3602697,16.0486907 22.8403845,15.9379085 23.2997381,16.0381771 C23.7590918,16.1384457 24.1493713,16.4392193 24.36336,16.85787 L24.36336,16.85787 Z" fill="#FE9189" id="Shape"/><path d="M33.63663,16.85787 C33.8506165,16.4392197 34.2408942,16.1384461 34.7002464,16.0381774 C35.1595986,15.9379087 35.639712,16.0486909 36.00869,16.34009 C36.60169,16.85787 36.60169,17.8934 36.00869,18.92893 C35.3966419,19.8005216 34.5828034,20.5110924 33.63663,21 C32.6904501,20.511098 31.8766071,19.8005263 31.26456,18.92893 C30.67156,17.8934 30.67156,16.85787 31.26456,16.34009 C31.6335397,16.0486907 32.1136545,15.9379085 32.5730081,16.0381771 C33.0323618,16.1384457 33.4226413,16.4392193 33.63663,16.85787 Z" fill="#FE9189" id="Shape"/><path d="M42.90989,16.85787 C43.1238765,16.4392197 43.5141542,16.1384461 43.9735064,16.0381774 C44.4328586,15.9379087 44.912972,16.0486909 45.28195,16.34009 C45.87495,16.85787 45.87495,17.8934 45.28195,18.92893 C44.6699046,19.800524 43.8560654,20.5110953 42.90989,21 C41.9637119,20.5110953 41.1498694,19.8005241 40.53782,18.92893 C39.94482,17.8934 39.94482,16.85787 40.53782,16.34009 C40.9067997,16.0486907 41.3869145,15.9379085 41.8462681,16.0381771 C42.3056218,16.1384457 42.6959013,16.4392193 42.90989,16.85787 L42.90989,16.85787 Z" fill="#FE9189" id="Shape"/><path d="M52.18316,16.85787 C52.3971465,16.4392197 52.7874242,16.1384461 53.2467764,16.0381774 C53.7061286,15.9379087 54.186242,16.0486909 54.55522,16.34009 C55.14822,16.85787 55.14822,17.8934 54.55522,18.92893 C53.9431695,19.8005194 53.1293316,20.5110897 52.18316,21 C51.2369801,20.511098 50.4231371,19.8005263 49.81109,18.92893 C49.21809,17.8934 49.21809,16.85787 49.81109,16.34009 C50.1800697,16.0486907 50.6601845,15.9379085 51.1195381,16.0381771 C51.5788918,16.1384457 51.9691713,16.4392193 52.18316,16.85787 L52.18316,16.85787 Z" fill="#FE9189" id="Shape"/></g></g></svg>