<?xml version="1.0" ?><!DOCTYPE svg  PUBLIC '-//W3C//DTD SVG 1.1//EN'  'http://www.w3.org/Graphics/SVG/1.1/DTD/svg11.dtd'><svg enable-background="new 0 0 26 26" id="Слой_1" version="1.1" viewBox="0 0 26 26" xml:space="preserve" xmlns="http://www.w3.org/2000/svg" xmlns:xlink="http://www.w3.org/1999/xlink"><path d="M24.25,1H1.75C1.3359375,1,1,1.3359375,1,1.75S1.3359375,2.5,1.75,2.5h4.875v21.75  c0,0.4140625,0.3359375,0.75,0.75,0.75s0.75-0.3359375,0.75-0.75v-6.0703125L18.2099609,24.875  C18.3378906,24.9599609,18.4814453,25,18.6240234,25c0.2431641,0,0.4814453-0.1181641,0.6259766-0.3349609  c0.2285156-0.3457031,0.1347656-0.8105469-0.2099609-1.0400391L8.7270508,16.7783203l10.3149414-6.9052734  c0.0796509-0.0532227,0.1422729-0.1213989,0.1940308-0.1953735c0.003479-0.0050049,0.0095825-0.0065308,0.0130005-0.0116577  C19.2495117,9.6652832,19.2495117,9.6643677,19.25,9.6636353c0.0548096-0.0827637,0.092041-0.1746826,0.1107178-0.2706299  c0.0088501-0.0455933,0.0001221-0.0910645,0.0004272-0.1369629c0.0004883-0.0505371,0.0090942-0.100647-0.0007935-0.1508789  c-0.0189209-0.0961914-0.0567017-0.1882935-0.1118774-0.2711182C19.24823,8.8337402,19.248291,8.833313,19.2480469,8.8330078  c-0.022644-0.0339966-0.0562134-0.0537109-0.0830688-0.0827026c-0.0396118-0.0429688-0.0731201-0.0905151-0.1239624-0.1243286  L19.038269,8.6241455c-0.0012207-0.0007935-0.0024414-0.0016479-0.0036621-0.0024414L9.8520508,2.5H24.25  C24.6640625,2.5,25,2.1640625,25,1.75S24.6640625,1,24.25,1z M8.125,3.1513672l9.1501465,6.1000977L8.125,15.3769531V3.1513672z" fill="#1D1D1B"/></svg>