<?xml version="1.0" ?><!DOCTYPE svg  PUBLIC '-//W3C//DTD SVG 1.1//EN'  'http://www.w3.org/Graphics/SVG/1.1/DTD/svg11.dtd'><svg enable-background="new 0 0 26 26" id="Слой_1" version="1.1" viewBox="0 0 26 26" xml:space="preserve" xmlns="http://www.w3.org/2000/svg" xmlns:xlink="http://www.w3.org/1999/xlink"><path d="M23.7197266,12.4697266L18.625,17.5644531L14.0605469,13l5.0947266-5.0947266  c0.2929688-0.2929688,0.2929688-0.7675781,0-1.0605469L14.8105469,2.5H24.25C24.6640625,2.5,25,2.1640625,25,1.75  S24.6640625,1,24.25,1H1.75C1.3359375,1,1,1.3359375,1,1.75S1.3359375,2.5,1.75,2.5h10.9394531l4.875,4.875L13,11.9394531  L7.9052734,6.8447266c-0.2929688-0.2929688-0.7675781-0.2929688-1.0605469,0l-5.625,5.625  c-0.2929688,0.2929688-0.2929688,0.7675781,0,1.0605469C1.3662109,13.6767578,1.5576172,13.75,1.75,13.75  s0.3837891-0.0732422,0.5302734-0.2197266L7.375,8.4355469L11.9394531,13l-5.0947266,5.0947266  c-0.2929688,0.2929688-0.2929688,0.7675781,0,1.0605469l5.625,5.625C12.6162109,24.9267578,12.8076172,25,13,25  s0.3837891-0.0732422,0.5302734-0.2197266c0.2929688-0.2929688,0.2929688-0.7675781,0-1.0605469L8.4355469,18.625L13,14.0605469  l5.0947266,5.0947266C18.2412109,19.3017578,18.4326172,19.375,18.625,19.375s0.3837891-0.0732422,0.5302734-0.2197266l5.625-5.625  c0.2929688-0.2929688,0.2929688-0.7675781,0-1.0605469S24.0126953,12.1767578,23.7197266,12.4697266z" fill="#1D1D1B"/></svg>