<?xml version="1.0" ?><!DOCTYPE svg  PUBLIC '-//W3C//DTD SVG 1.1//EN'  'http://www.w3.org/Graphics/SVG/1.1/DTD/svg11.dtd'><svg enable-background="new 0 0 26 26" id="Слой_1" version="1.1" viewBox="0 0 26 26" xml:space="preserve" xmlns="http://www.w3.org/2000/svg" xmlns:xlink="http://www.w3.org/1999/xlink"><g><path d="M24.25,1H1.75C1.3359375,1,1,1.3359375,1,1.75S1.3359375,2.5,1.75,2.5h22.5   C24.6640625,2.5,25,2.1640625,25,1.75S24.6640625,1,24.25,1z" fill="#1D1D1B"/><path d="M13,4.75c-5.1005859,0-9.25,4.1494141-9.25,9.25s4.1494141,9.25,9.25,9.25s9.25-4.1494141,9.25-9.25   S18.1005859,4.75,13,4.75z M13,21.75c-4.2734375,0-7.75-3.4765625-7.75-7.75S8.7265625,6.25,13,6.25s7.75,3.4765625,7.75,7.75   S17.2734375,21.75,13,21.75z" fill="#1D1D1B"/></g></svg>