<?xml version="1.0" ?><!DOCTYPE svg  PUBLIC '-//W3C//DTD SVG 1.1//EN'  'http://www.w3.org/Graphics/SVG/1.1/DTD/svg11.dtd'><svg enable-background="new 0 0 512 512" height="512px" id="Calque_1" version="1.1" viewBox="0 0 512 512" width="512px" xml:space="preserve" xmlns="http://www.w3.org/2000/svg" xmlns:xlink="http://www.w3.org/1999/xlink"><g><g><g><g id="XMLID_1_"><g><g><g><path d="M400.86,256c0,88.11-71.42,159.53-159.54,159.54h-0.01c-88.11,0-159.54-71.43-159.54-159.54         c0-88.12,71.43-159.55,159.54-159.55h0.01C329.44,96.46,400.86,167.88,400.86,256z" fill="#2FC1F1"/></g></g></g><g><path d="M241.31,96.45c88.12,0,159.55,71.43,159.55,159.55c0,88.11-71.43,159.54-159.55,159.54       c-88.11,0-159.54-71.43-159.54-159.54C81.77,167.88,153.2,96.45,241.31,96.45z" fill="none"/><path d="M479.418,231.821c-1.563-1.562-4.096-1.562-5.656,0l-22.571,22.571       c-0.414-55.468-22.193-107.552-61.457-146.816C350.09,67.933,297.379,46.1,241.31,46.1c-115.739,0-209.9,94.161-209.9,209.9       s94.161,209.9,209.9,209.9c71.268,0,137.067-35.696,176.011-95.486c1.206-1.852,0.683-4.329-1.168-5.535       c-1.854-1.208-4.33-0.683-5.535,1.168C373.155,423.563,309.862,457.9,241.31,457.9c-111.328,0-201.9-90.572-201.9-201.9       s90.572-201.9,201.9-201.9c110.777,0,200.989,89.681,201.879,200.252l-22.531-22.531c-1.563-1.562-4.096-1.562-5.656,0       c-1.563,1.562-1.563,4.095,0,5.657l29.38,29.38c0.75,0.75,1.768,1.172,2.828,1.172s2.078-0.422,2.828-1.172l29.38-29.38       C480.98,235.916,480.98,233.383,479.418,231.821z" fill="#526471"/><g><g><path d="M230.55,174.39h-77.61c-2.209,0-4,1.791-4,4s1.791,4,4,4h73.61V252h-73.61c-2.209,0-4,1.791-4,4         v77.61c0,2.209,1.791,4,4,4h77.61c2.209,0,4-1.791,4-4s-1.791-4-4-4h-73.61V260h73.61c2.209,0,4-1.791,4-4v-77.61         C234.55,176.181,232.759,174.39,230.55,174.39z" fill="#007ECA"/><path d="M329.68,174.39c-2.209,0-4,1.791-4,4V252h-69.61v-73.61c0-2.209-1.791-4-4-4s-4,1.791-4,4V256         c0,2.209,1.791,4,4,4h73.61v73.61c0,2.209,1.791,4,4,4s4-1.791,4-4V256v-77.61C333.68,176.181,331.889,174.39,329.68,174.39z         " fill="#007ECA"/></g></g></g></g></g></g><linearGradient gradientTransform="matrix(1 0 0 -1 29.1 515.4)" gradientUnits="userSpaceOnUse" id="SVGID_1_" x1="212.22" x2="371.76" y1="259.405" y2="259.405"><stop offset="0" style="stop-color:#000000"/><stop offset="1" style="stop-color:#FFFFFF;stop-opacity:0"/></linearGradient><path d="M400.86,256c0,88.11-71.42,159.53-159.54,159.54V96.45   C329.44,96.46,400.86,167.88,400.86,256z" enable-background="new    " fill="url(#SVGID_1_)" opacity="0.2"/></g></svg>