<?xml version="1.0" ?><!DOCTYPE svg  PUBLIC '-//W3C//DTD SVG 1.1//EN'  'http://www.w3.org/Graphics/SVG/1.1/DTD/svg11.dtd'><svg enable-background="new 0 0 512 512" height="512px" id="Calque_1" version="1.1" viewBox="0 0 512 512" width="512px" xml:space="preserve" xmlns="http://www.w3.org/2000/svg" xmlns:xlink="http://www.w3.org/1999/xlink"><g><g><g><g id="XMLID_1_"><g><polygon fill="#526471" points="308.78,456.07 203.22,456.07 211.48,416 216.8,390.18 295.2,390.18 300.52,416      "/><path d="M476.17,77.65v290.81c0,11.95-9.78,21.72-21.72,21.72H295.2h-78.4H57.55       c-11.94,0-21.72-9.77-21.72-21.72V77.65c0-11.95,9.78-21.72,21.72-21.72h396.9C466.39,55.93,476.17,65.7,476.17,77.65z        M453.95,345.9V79.95H58.05V345.9H453.95z" fill="#303C44"/><path d="M454.45,382.93H57.55c-11.94,0-21.72-9.77-21.72-21.72v7.25c0,11.95,9.78,21.72,21.72,21.72h396.9       c11.94,0,21.72-9.77,21.72-21.72v-7.25C476.17,373.16,466.39,382.93,454.45,382.93z" opacity="0.2"/><path d="M360.34,141.99v3.24c0,7.2-5.84,13.03-13.03,13.03h-11.05v-29.3h11.05       C354.5,128.96,360.34,134.79,360.34,141.99z" fill="#ECEFF0"/><path d="M175.74,128.96v29.3h-11.05c-7.19,0-13.03-5.83-13.03-13.03v-3.24c0-7.2,5.84-13.03,13.03-13.03H175.74       z" fill="#ECEFF0"/><path d="M297.52,158.26v0.01c0,22.92-18.59,41.52-41.52,41.52s-41.51-18.6-41.51-41.52v-0.01       c0-5.16,0.94-10.09,2.66-14.65c2.09-5.55,5.34-10.53,9.45-14.65h58.8c4.11,4.12,7.36,9.1,9.46,14.65       C296.58,148.17,297.52,153.1,297.52,158.26z" fill="#C98B0E"/><circle cx="256" cy="246.6" fill="#C98B0E" r="15.05"/><path d="M217.27,303.25h-41.53v-41.53C198.67,261.73,217.27,280.33,217.27,303.25z" fill="#C98B0E"/><path d="M336.26,261.72v41.53h-41.53C294.73,280.33,313.33,261.73,336.26,261.72z" fill="#C98B0E"/><path d="M285.4,128.96c4.11,4.12,7.36,9.1,9.46,14.65c1.72,4.56,2.66,9.49,2.66,14.65v0.01       c0,22.92-18.59,41.52-41.52,41.52s-41.51-18.6-41.51-41.52v-0.01c0-5.16,0.94-10.09,2.66-14.65       c2.09-5.55,5.34-10.53,9.45-14.65h-50.86v132.76c22.93,0.01,41.53,18.61,41.53,41.53h77.46c0-22.92,18.6-41.52,41.53-41.53       V128.96H285.4z M256,261.65c-8.31,0-15.05-6.74-15.05-15.05s6.74-15.05,15.05-15.05c8.31,0,15.05,6.74,15.05,15.05       S264.31,261.65,256,261.65z" fill="#FFC035"/><path d="M58.05,79.95V345.9h395.9V79.95H58.05z M360.34,145.23c0,7.2-5.84,13.03-13.03,13.03h-11.05v144.99       H175.74V158.26h-11.05c-7.19,0-13.03-5.83-13.03-13.03v-3.24c0-7.2,5.84-13.03,13.03-13.03h182.62       c7.19,0,13.03,5.83,13.03,13.03V145.23z" fill="#007ECA"/></g><g><path d="M216.8,390.18H57.55c-11.94,0-21.72-9.77-21.72-21.72V77.65c0-11.95,9.78-21.72,21.72-21.72h396.9       c11.94,0,21.72,9.77,21.72,21.72v290.81c0,11.95-9.78,21.72-21.72,21.72H295.2" fill="none"/><rect fill="none" height="265.95" width="395.9" x="58.05" y="79.95"/><g><g><path d="M283.38,371.52h-54.76c-2.209,0-4-1.791-4-4s1.791-4,4-4h54.76c2.209,0,4,1.791,4,4         S285.589,371.52,283.38,371.52z" fill="#ECEFF0"/></g></g><polyline fill="none" points="203.22,456.07 216.8,390.18 295.2,390.18 308.78,456.07      "/><g><g><path d="M346.85,460.07h-181.7c-2.209,0-4-1.791-4-4s1.791-4,4-4h181.7c2.209,0,4,1.791,4,4         S349.059,460.07,346.85,460.07z" fill="#303C44"/></g></g><path d="M175.74,128.96h-11.05c-7.19,0-13.03,5.83-13.03,13.03v3.24c0,7.2,5.84,13.03,13.03,13.03h11.05" fill="none"/><path d="M336.26,158.26h11.05c7.19,0,13.03-5.83,13.03-13.03v-3.24c0-7.2-5.84-13.03-13.03-13.03h-11.05" fill="none"/><path d="M285.4,128.96c7.49,7.5,12.12,17.86,12.12,29.3v0.01c0,22.92-18.59,41.52-41.52,41.52       s-41.51-18.6-41.51-41.52v-0.01c0-11.44,4.63-21.8,12.11-29.3" fill="none"/><path d="M294.73,303.25c0-22.92,18.6-41.52,41.53-41.53" fill="none"/><path d="M175.74,261.72c22.93,0.01,41.53,18.61,41.53,41.53" fill="none"/><polygon fill="none" points="175.74,128.96 226.6,128.96 285.4,128.96 336.26,128.96 336.26,158.26 336.26,261.72        336.26,303.25 294.73,303.25 217.27,303.25 175.74,303.25 175.74,261.72 175.74,158.26      "/><circle cx="256" cy="246.6" fill="none" r="15.05"/></g></g></g></g><linearGradient gradientUnits="userSpaceOnUse" id="SVGID_1_" x1="238.16" x2="426.345" y1="185.32" y2="373.505"><stop offset="0" style="stop-color:#000000"/><stop offset="1" style="stop-color:#FFFFFF;stop-opacity:0"/></linearGradient><path d="M453.95,79.95V345.9H77.58l98.16-80.14v37.49h160.52V158.26h11.05   c7.19,0,13.03-5.83,13.03-13.03v-3.24c0-7.2-5.84-13.03-13.03-13.03h-4.01l60.02-49.01H453.95z" fill="url(#SVGID_1_)" opacity="0.2"/><polygon opacity="0.2" points="300.52,416 211.48,416 216.8,390.18 295.2,390.18  "/><linearGradient gradientUnits="userSpaceOnUse" id="SVGID_2_" x1="256" x2="336.26" y1="216.105" y2="216.105"><stop offset="0" style="stop-color:#000000"/><stop offset="1" style="stop-color:#FFFFFF;stop-opacity:0"/></linearGradient><path d="M336.26,128.96v132.76c-22.93,0.01-41.53,18.61-41.53,41.53H256V128.96H336.26z" fill="url(#SVGID_2_)" opacity="0.2"/><path d="M360.34,141.99v1.62H151.66v-1.62c0-7.2,5.84-13.03,13.03-13.03h182.62   C354.5,128.96,360.34,134.79,360.34,141.99z" opacity="0.2"/></g></svg>