<?xml version="1.0" ?><!DOCTYPE svg  PUBLIC '-//W3C//DTD SVG 1.1//EN'  'http://www.w3.org/Graphics/SVG/1.1/DTD/svg11.dtd'><svg enable-background="new 0 0 512 512" height="512px" id="Calque_1" version="1.1" viewBox="0 0 512 512" width="512px" xml:space="preserve" xmlns="http://www.w3.org/2000/svg" xmlns:xlink="http://www.w3.org/1999/xlink"><g><g><g><g><g id="XMLID_1_"><g><rect fill="#758289" height="17.07" width="271.34" x="120.33" y="410.48"/><rect fill="#758289" height="75.44" width="43.92" x="444.66" y="84.45"/><rect fill="#758289" height="75.44" width="43.92" x="23.42" y="84.45"/><path d="M201.06,261.14c0,15.5,6.42,29.51,16.75,39.5h-54.24l18.87-39.5l-18.87-39.5h54.24        C207.48,231.63,201.06,245.64,201.06,261.14z" fill="#C9314B"/><path d="M202.06,84.45h107.88c0,29.79-24.15,53.93-53.94,53.93S202.06,114.24,202.06,84.45z" fill="#758289"/><path d="M309.94,84.45c0,29.79-24.15,53.93-53.94,53.93s-53.94-24.14-53.94-53.93h1.58        c5.82,23.51,27.05,40.93,52.36,40.93s46.54-17.42,52.36-40.93H309.94z" opacity="0.2"/><path d="M329.56,261.14l18.88,39.5h-54.25c10.33-9.99,16.75-24,16.75-39.5s-6.42-29.51-16.75-39.5h54.25        L329.56,261.14z" fill="#C9314B"/><path d="M310.94,261.14c0,15.5-6.42,29.51-16.75,39.5c-9.89,9.56-23.35,15.44-38.19,15.44        c-14.84,0-28.3-5.88-38.19-15.44c-10.33-9.99-16.75-24-16.75-39.5s6.42-29.51,16.75-39.5c9.89-9.56,23.35-15.44,38.19-15.44        c14.84,0,28.3,5.88,38.19,15.44C304.52,231.63,310.94,245.64,310.94,261.14z" fill="#FFC035"/><path d="M163.57,221.64l18.87,39.5l-18.87,39.5h54.24c9.89,9.56,23.35,15.44,38.19,15.44        c14.84,0,28.3-5.88,38.19-15.44h54.25l-18.88-39.5l18.88-39.5h-54.25c-9.89-9.56-23.35-15.44-38.19-15.44        c-14.84,0-28.3,5.88-38.19,15.44H163.57z M444.66,84.45v75.44h-26.5c-14.63,0-26.49,11.87-26.49,26.5v10.08v214.01H120.33        V186.39c0-14.63-11.86-26.5-26.49-26.5h-26.5V84.45h134.72c0,29.79,24.15,53.93,53.94,53.93s53.94-24.14,53.94-53.93H444.66z" fill="#303C44"/></g><g><line fill="none" x1="67.34" x2="93.84" y1="159.89" y2="159.89"/><line fill="none" x1="202.06" x2="67.34" y1="84.45" y2="84.45"/><line fill="none" x1="444.66" x2="309.94" y1="84.45" y2="84.45"/><line fill="none" x1="418.16" x2="444.66" y1="159.89" y2="159.89"/><polyline fill="none" points="120.33,186.39 120.33,410.48 120.33,427.55 391.67,427.55 391.67,410.48 391.67,196.47               "/><line fill="none" x1="391.67" x2="391.67" y1="196.47" y2="186.39"/><path d="M93.84,159.89c14.63,0,26.49,11.87,26.49,26.5" fill="none"/><path d="M391.67,186.39c0-14.63,11.86-26.5,26.49-26.5" fill="none"/><rect fill="none" height="75.44" width="43.92" x="23.42" y="84.45"/><rect fill="none" height="75.44" width="43.92" x="444.66" y="84.45"/><path d="M309.94,84.45c0,29.79-24.15,53.93-53.94,53.93s-53.94-24.14-53.94-53.93H309.94z" fill="none"/><line fill="none" x1="120.33" x2="391.67" y1="410.48" y2="410.48"/><path d="M217.81,221.64c9.89-9.56,23.35-15.44,38.19-15.44c14.84,0,28.3,5.88,38.19,15.44        c10.33,9.99,16.75,24,16.75,39.5s-6.42,29.51-16.75,39.5c-9.89,9.56-23.35,15.44-38.19,15.44c-14.84,0-28.3-5.88-38.19-15.44        c-10.33-9.99-16.75-24-16.75-39.5S207.48,231.63,217.81,221.64z" fill="none"/><polyline fill="none" points="217.81,300.64 163.57,300.64 163.56,300.64       "/><polyline fill="none" points="217.81,221.64 163.57,221.64 163.56,221.64       "/><line fill="none" x1="163.57" x2="182.44" y1="221.64" y2="261.14"/><line fill="none" x1="182.44" x2="163.57" y1="261.14" y2="300.64"/><line fill="none" x1="348.44" x2="294.19" y1="221.64" y2="221.64"/><line fill="none" x1="348.44" x2="294.19" y1="300.64" y2="300.64"/><line fill="none" x1="348.44" x2="329.56" y1="300.64" y2="261.14"/><line fill="none" x1="329.56" x2="348.44" y1="261.14" y2="221.64"/></g></g></g></g></g><linearGradient gradientUnits="userSpaceOnUse" id="SVGID_1_" x1="256.005" x2="256.005" y1="261.14" y2="316.08"><stop offset="0" style="stop-color:#000000"/><stop offset="1" style="stop-color:#FFFFFF;stop-opacity:0"/></linearGradient><path d="M348.44,300.64h-54.25c-9.89,9.56-23.35,15.44-38.19,15.44   c-14.84,0-28.3-5.88-38.19-15.44h-54.24l18.87-39.5h147.12L348.44,300.64z" fill="url(#SVGID_1_)" opacity="0.2"/></g></svg>