<?xml version="1.0" ?><!DOCTYPE svg  PUBLIC '-//W3C//DTD SVG 1.1//EN'  'http://www.w3.org/Graphics/SVG/1.1/DTD/svg11.dtd'><svg enable-background="new 0 0 512 512" height="512px" id="Calque_1" version="1.1" viewBox="0 0 512 512" width="512px" xml:space="preserve" xmlns="http://www.w3.org/2000/svg" xmlns:xlink="http://www.w3.org/1999/xlink"><g><g><g id="XMLID_1_"><g><path d="M323.5,82.69c-18.39,3.31-24.49,20.48-32.3,36.34h-67.68c-7.81-15.85-16.63-33.03-35.02-36.34      c-35.65-6.41-0.85-64.97,67.5-12.81c20.72-15.81,38.36-21.45,51.88-21.45C338.97,48.43,348.34,78.22,323.5,82.69z" fill="#A7B7C1"/><path d="M443.52,119.08c0.29,0.02,0.58,0.04,0.86,0.06c0.58,0.04,1.16,0.1,1.73,0.17      c1.42,0.19,2.82,0.45,4.18,0.8c0.25,0.07,0.51,0.14,0.76,0.21c0.31,0.09,0.62,0.18,0.92,0.27c0.25,0.08,0.49,0.16,0.74,0.24      c0.27,0.09,0.53,0.19,0.79,0.28c0.52,0.2,1.04,0.4,1.54,0.61c0.26,0.11,0.52,0.22,0.77,0.34c0.25,0.11,0.5,0.23,0.75,0.35      c2.27,1.09,4.39,2.42,6.35,3.97c0.19,0.15,0.38,0.3,0.56,0.46c0.43,0.34,0.84,0.7,1.24,1.07c0.21,0.18,0.41,0.37,0.6,0.56      c0.24,0.22,0.47,0.45,0.7,0.68c0.35,0.35,0.69,0.71,1.02,1.08c0.18,0.2,0.37,0.4,0.54,0.61c1.7,1.95,3.18,4.1,4.39,6.42      c0.12,0.21,0.24,0.43,0.34,0.65c0.08,0.15,0.16,0.31,0.23,0.47c0.21,0.42,0.41,0.85,0.59,1.29c0.72,1.66,1.31,3.38,1.76,5.17      c0.08,0.36,0.17,0.71,0.25,1.07c0,0.01,0,0.02,0,0.03c0.08,0.39,0.16,0.78,0.23,1.17c0,0.01,0.01,0.02,0.01,0.03      c0.07,0.38,0.13,0.77,0.18,1.16c0.06,0.4,0.11,0.8,0.15,1.2c0.05,0.4,0.08,0.81,0.11,1.22c0.03,0.37,0.05,0.74,0.06,1.12      c0.02,0.44,0.03,0.89,0.03,1.34c0,1.18-0.06,2.34-0.18,3.49c-0.06,0.57-0.13,1.14-0.21,1.71c-0.05,0.28-0.09,0.56-0.14,0.84      c-0.31,1.68-0.73,3.32-1.26,4.9c-0.47,1.39-1.03,2.74-1.67,4.04c-0.21,0.43-0.43,0.86-0.66,1.29c-0.26,0.48-0.54,0.96-0.82,1.43      c-0.29,0.47-0.59,0.93-0.89,1.38c-0.31,0.45-0.62,0.9-0.95,1.34c-0.33,0.44-0.67,0.86-1.02,1.29c-0.69,0.84-1.43,1.65-2.2,2.42      c-0.39,0.39-0.78,0.76-1.19,1.13c-0.2,0.18-0.4,0.37-0.61,0.54c-0.41,0.36-0.83,0.71-1.26,1.05c-0.22,0.17-0.44,0.33-0.66,0.5      c-0.43,0.33-0.88,0.64-1.33,0.95c-0.46,0.31-0.92,0.6-1.39,0.89c-1.88,1.14-3.87,2.1-5.97,2.87c-0.52,0.19-1.05,0.37-1.58,0.54      c-0.54,0.16-1.08,0.32-1.62,0.46c-0.55,0.14-1.09,0.26-1.65,0.38c-1.05,0.21-2.12,0.38-3.2,0.49c-1.21,0.13-2.44,0.2-3.68,0.2      H289.87v-68.28h1.33h150.56C442.35,119.03,442.94,119.04,443.52,119.08z" fill="#FFC035"/><path d="M68.48,119.08c0.58-0.04,1.17-0.05,1.76-0.05h153.28v68.28H70.24c-0.38,0-0.76-0.01-1.14-0.02      c-0.38-0.01-0.76-0.03-1.14-0.06c-0.56-0.04-1.11-0.09-1.66-0.15c-0.82-0.1-1.64-0.22-2.44-0.37c-0.27-0.05-0.54-0.1-0.8-0.16      c-0.78-0.17-1.55-0.36-2.31-0.58c-0.34-0.09-0.68-0.2-1.02-0.31c-0.78-0.25-1.55-0.53-2.31-0.85c-0.17-0.06-0.33-0.13-0.49-0.2      c-0.51-0.21-1-0.43-1.49-0.67c-0.39-0.19-0.78-0.38-1.16-0.59c-0.52-0.27-1.03-0.56-1.53-0.86c-0.3-0.18-0.61-0.36-0.91-0.56      c-0.23-0.14-0.46-0.3-0.69-0.45c-0.45-0.31-0.9-0.62-1.33-0.95c-1.27-0.95-2.47-1.98-3.59-3.1c-0.23-0.23-0.46-0.46-0.68-0.69      c-0.04-0.03-0.07-0.07-0.1-0.11c-0.23-0.23-0.45-0.47-0.66-0.71c-1.06-1.18-2.03-2.43-2.92-3.75c-0.13-0.2-0.26-0.39-0.39-0.6      c-0.15-0.23-0.3-0.46-0.44-0.69c-0.26-0.43-0.51-0.88-0.76-1.33c-0.14-0.25-0.27-0.5-0.4-0.75c-0.11-0.22-0.22-0.44-0.33-0.66      c-0.04-0.07-0.07-0.13-0.1-0.19c-0.18-0.38-0.35-0.75-0.51-1.13c-0.02-0.04-0.04-0.08-0.05-0.12c-0.11-0.25-0.21-0.49-0.31-0.74      c-0.2-0.49-0.39-0.99-0.57-1.5c-0.35-1.01-0.66-2.04-0.92-3.09c-0.13-0.53-0.25-1.06-0.35-1.59c-0.05-0.26-0.1-0.51-0.14-0.77      c-0.05-0.26-0.09-0.53-0.13-0.79c-0.08-0.52-0.14-1.03-0.19-1.55c-0.03-0.29-0.06-0.58-0.08-0.87      c-0.03-0.37-0.05-0.74-0.07-1.12c-0.02-0.5-0.03-1-0.03-1.5c0-0.45,0.01-0.9,0.03-1.34c0.01-0.38,0.03-0.75,0.06-1.12      c0.03-0.41,0.06-0.82,0.11-1.22c0.04-0.4,0.09-0.8,0.15-1.2c0.05-0.39,0.11-0.78,0.18-1.16c0-0.01,0.01-0.02,0.01-0.03      c0.07-0.39,0.15-0.78,0.23-1.17c0-0.01,0-0.02,0-0.03c0.08-0.36,0.17-0.71,0.25-1.07c0.45-1.79,1.04-3.51,1.76-5.17      c0.18-0.44,0.38-0.87,0.59-1.29c0.07-0.16,0.15-0.32,0.23-0.47c0.1-0.22,0.22-0.44,0.34-0.65c1.21-2.32,2.69-4.47,4.39-6.42      c0.17-0.21,0.36-0.41,0.54-0.61c0.33-0.37,0.67-0.73,1.02-1.08c0.23-0.23,0.46-0.46,0.7-0.68c0.19-0.19,0.39-0.38,0.6-0.56      c0.4-0.37,0.81-0.73,1.24-1.07c0.18-0.16,0.37-0.31,0.56-0.46c1.96-1.55,4.08-2.88,6.35-3.97c0.25-0.12,0.5-0.24,0.75-0.35      c0.26-0.12,0.51-0.23,0.77-0.34c0.51-0.21,1.02-0.42,1.55-0.61c2.35-0.86,4.82-1.47,7.38-1.8c0.57-0.07,1.15-0.13,1.73-0.17      C67.9,119.12,68.19,119.1,68.48,119.08z" fill="#FFC035"/><path d="M475.9,153.18c0,1.18-0.06,2.34-0.18,3.49c-0.06,0.57-0.13,1.14-0.21,1.71      c-0.05,0.28-0.09,0.56-0.14,0.84c-0.05,0.25-0.09,0.49-0.15,0.73c-0.02-0.16-0.06-0.32-0.09-0.48v-0.03      c-0.08-0.36-0.17-0.71-0.25-1.07c-0.45-1.79-1.04-3.51-1.76-5.17c-0.18-0.44-0.38-0.87-0.59-1.29      c-0.07-0.16-0.15-0.32-0.23-0.47c-0.1-0.22-0.22-0.44-0.34-0.65c-1.21-2.32-2.69-4.47-4.39-6.42c-0.17-0.21-0.36-0.41-0.54-0.61      c-0.33-0.37-0.67-0.73-1.02-1.08c-0.23-0.23-0.46-0.46-0.7-0.68c-0.19-0.19-0.39-0.38-0.6-0.56c-0.4-0.37-0.81-0.73-1.24-1.07      c-0.18-0.16-0.37-0.31-0.56-0.46c-1.96-1.55-4.08-2.88-6.35-3.97c-0.25-0.12-0.5-0.24-0.75-0.35c-0.25-0.12-0.51-0.23-0.77-0.34      c-0.5-0.21-1.02-0.41-1.54-0.61c-0.26-0.09-0.52-0.19-0.79-0.28c-0.25-0.08-0.49-0.16-0.74-0.24c-0.3-0.09-0.61-0.18-0.92-0.27      c-0.25-0.07-0.51-0.14-0.76-0.21c-1.36-0.35-2.76-0.61-4.18-0.8c-0.57-0.07-1.15-0.13-1.73-0.17c-0.28-0.02-0.57-0.04-0.86-0.06      c-0.58-0.04-1.17-0.05-1.76-0.05H289.87v-13.53h151.89c0.59,0,1.18,0.01,1.76,0.05c0.29,0.02,0.58,0.04,0.86,0.06      c0.58,0.04,1.16,0.1,1.73,0.17c1.42,0.19,2.82,0.45,4.18,0.8c0.25,0.07,0.51,0.14,0.76,0.21c0.31,0.09,0.62,0.18,0.92,0.27      c0.25,0.08,0.49,0.16,0.74,0.24c0.27,0.09,0.53,0.19,0.79,0.28c0.52,0.2,1.04,0.4,1.54,0.61c0.26,0.11,0.52,0.22,0.77,0.34      c0.25,0.11,0.5,0.23,0.75,0.35c2.27,1.09,4.39,2.42,6.35,3.97c0.19,0.15,0.38,0.3,0.56,0.46c0.43,0.34,0.84,0.7,1.24,1.07      c0.21,0.18,0.41,0.37,0.6,0.56c0.24,0.22,0.47,0.45,0.7,0.68c0.35,0.35,0.69,0.71,1.02,1.08c0.18,0.2,0.37,0.4,0.54,0.61      c1.7,1.95,3.18,4.1,4.39,6.42c0.12,0.21,0.24,0.43,0.34,0.65c0.08,0.15,0.16,0.31,0.23,0.47c0.21,0.42,0.41,0.85,0.59,1.29      c0.72,1.66,1.31,3.38,1.76,5.17c0.08,0.36,0.17,0.71,0.25,1.07v0.03c0.08,0.39,0.16,0.78,0.23,1.17c0,0.01,0.01,0.02,0.01,0.03      c0.07,0.38,0.13,0.77,0.18,1.16c0.06,0.4,0.11,0.8,0.15,1.2c0.05,0.4,0.08,0.81,0.11,1.22c0.03,0.37,0.05,0.74,0.06,1.12      C475.89,152.28,475.9,152.73,475.9,153.18z" fill="#FFFFFF" opacity="0.2"/><path d="M223.52,119.03v13.53H70.24c-0.59,0-1.18,0.01-1.76,0.05c-0.29,0.02-0.58,0.04-0.86,0.06      c-0.58,0.04-1.16,0.1-1.73,0.17c-2.56,0.33-5.03,0.94-7.38,1.8c-0.53,0.19-1.04,0.4-1.55,0.61c-0.26,0.11-0.51,0.22-0.77,0.34      c-0.25,0.11-0.5,0.23-0.75,0.35c-2.27,1.09-4.39,2.42-6.35,3.97c-0.19,0.15-0.38,0.3-0.56,0.46c-0.43,0.34-0.84,0.7-1.24,1.07      c-0.21,0.18-0.41,0.37-0.6,0.56c-0.24,0.22-0.47,0.45-0.7,0.68c-0.35,0.35-0.69,0.71-1.02,1.08c-0.18,0.2-0.37,0.4-0.54,0.61      c-1.7,1.95-3.18,4.1-4.39,6.42c-0.12,0.21-0.24,0.43-0.34,0.65c-0.08,0.15-0.16,0.31-0.23,0.47c-0.21,0.42-0.41,0.85-0.59,1.29      c-0.72,1.66-1.31,3.38-1.76,5.17c-0.08,0.36-0.17,0.71-0.25,1.07v0.03c-0.03,0.16-0.07,0.32-0.1,0.48      c-0.01-0.06-0.02-0.11-0.03-0.17c-0.05-0.26-0.1-0.51-0.14-0.77c-0.05-0.26-0.09-0.53-0.13-0.79c-0.08-0.52-0.14-1.03-0.19-1.55      c-0.03-0.29-0.06-0.58-0.08-0.87c-0.03-0.37-0.05-0.74-0.07-1.12c-0.02-0.5-0.03-1-0.03-1.5c0-0.45,0.01-0.9,0.03-1.34      c0.01-0.38,0.03-0.75,0.06-1.12c0.03-0.41,0.06-0.82,0.11-1.22c0.04-0.4,0.09-0.8,0.15-1.2c0.05-0.39,0.11-0.78,0.18-1.16      c0-0.01,0.01-0.02,0.01-0.03c0.07-0.39,0.15-0.78,0.23-1.17v-0.03c0.08-0.36,0.17-0.71,0.25-1.07c0.45-1.79,1.04-3.51,1.76-5.17      c0.18-0.44,0.38-0.87,0.59-1.29c0.07-0.16,0.15-0.32,0.23-0.47c0.1-0.22,0.22-0.44,0.34-0.65c1.21-2.32,2.69-4.47,4.39-6.42      c0.17-0.21,0.36-0.41,0.54-0.61c0.33-0.37,0.67-0.73,1.02-1.08c0.23-0.23,0.46-0.46,0.7-0.68c0.19-0.19,0.39-0.38,0.6-0.56      c0.4-0.37,0.81-0.73,1.24-1.07c0.18-0.16,0.37-0.31,0.56-0.46c1.96-1.55,4.08-2.88,6.35-3.97c0.25-0.12,0.5-0.24,0.75-0.35      c0.26-0.12,0.51-0.23,0.77-0.34c0.51-0.21,1.02-0.42,1.55-0.61c2.35-0.86,4.82-1.47,7.38-1.8c0.57-0.07,1.15-0.13,1.73-0.17      c0.28-0.02,0.57-0.04,0.86-0.06c0.58-0.04,1.17-0.05,1.76-0.05H223.52z" fill="#FFFFFF" opacity="0.2"/><path d="M67.96,283.89v-96.65v-0.01c0.38,0.03,0.76,0.05,1.14,0.06c0.38,0.01,0.76,0.02,1.14,0.02h153.28v276.26      H105.01c-20.38,0-37.05-16.67-37.05-37.05v-76.28V283.89z" fill="#303C44"/><rect fill="#ECEFF0" height="344.54" width="66.35" x="223.52" y="119.03"/><path d="M445.44,187.12v96.77v66.35v76.28c0,20.38-16.67,37.05-37.05,37.05H289.87V187.31h151.89      c1.24,0,2.47-0.07,3.68-0.2V187.12z" fill="#303C44"/></g><g><path d="M289.87,463.57h118.52c20.38,0,37.05-16.67,37.05-37.05v-76.28v-66.35v-96.77" fill="none"/><path d="M67.96,187.24v96.65v66.35v76.28c0,20.38,16.67,37.05,37.05,37.05h118.51" fill="none"/><path d="M59.73,185.66c0.34,0.11,0.68,0.22,1.02,0.31c0.76,0.22,1.53,0.41,2.31,0.58c0.26,0.06,0.53,0.11,0.8,0.16      c0.8,0.15,1.62,0.27,2.44,0.37c0.55,0.06,1.1,0.11,1.66,0.15c0.38,0.03,0.76,0.05,1.14,0.06c0.38,0.01,0.76,0.02,1.14,0.02      h153.28" fill="none"/><path d="M56.93,184.61c0.16,0.07,0.32,0.14,0.49,0.2" fill="none"/><path d="M54.28,183.35c0.38,0.21,0.77,0.4,1.16,0.59" fill="none"/><path d="M51.84,181.93c0.3,0.2,0.61,0.38,0.91,0.56" fill="none"/><path d="M49.82,180.53c0.43,0.33,0.88,0.64,1.33,0.95" fill="none"/><path d="M45.55,176.74c0.22,0.23,0.45,0.46,0.68,0.69" fill="none"/><path d="M44.79,175.92c0.21,0.24,0.43,0.48,0.66,0.71" fill="none"/><path d="M41.48,171.57c0.12,0.2,0.25,0.4,0.39,0.6" fill="none"/><path d="M40.28,169.55c0.25,0.45,0.5,0.9,0.76,1.33" fill="none"/><path d="M39.55,168.14c0.11,0.22,0.22,0.44,0.33,0.66" fill="none"/><path d="M38.94,166.82c0.16,0.38,0.33,0.76,0.51,1.13" fill="none"/><path d="M37.09,161.37c0.26,1.05,0.57,2.08,0.92,3.09c0.18,0.51,0.37,1.01,0.57,1.5c0.1,0.25,0.2,0.49,0.31,0.74" fill="none"/><path d="M36.6,159.01c0.04,0.26,0.09,0.51,0.14,0.77" fill="none"/><path d="M36.28,156.67c0.05,0.52,0.11,1.03,0.19,1.55" fill="none"/><path d="M36.13,154.68c0.02,0.38,0.04,0.75,0.07,1.12" fill="none"/><path d="M36.19,150.72c-0.03,0.37-0.05,0.74-0.06,1.12" fill="none"/><path d="M36.63,147.14c-0.07,0.38-0.13,0.77-0.18,1.16c-0.06,0.4-0.11,0.8-0.15,1.2" fill="none"/><path d="M36.87,145.94c-0.08,0.39-0.16,0.78-0.23,1.17" fill="none"/><path d="M37.12,144.84c-0.08,0.36-0.17,0.71-0.25,1.07" fill="none"/><path d="M39.47,138.38c-0.21,0.43-0.41,0.85-0.59,1.29" fill="none"/><path d="M40.04,137.26c-0.12,0.21-0.24,0.43-0.34,0.65" fill="none"/><path d="M45.99,129.15c-0.35,0.35-0.69,0.71-1.02,1.08c-0.18,0.2-0.37,0.4-0.54,0.61" fill="none"/><path d="M47.29,127.91c-0.2,0.18-0.41,0.37-0.6,0.56" fill="none"/><path d="M49.09,126.38c-0.19,0.15-0.38,0.3-0.56,0.46" fill="none"/><path d="M56.19,122.06c-0.26,0.11-0.5,0.22-0.75,0.35" fill="none"/><path d="M58.51,121.11c-0.53,0.19-1.04,0.39-1.55,0.61" fill="none"/><path d="M67.62,119.14c-0.58,0.03-1.16,0.09-1.73,0.17" fill="none"/><path d="M223.52,119.03H70.24c-0.59,0-1.18,0.01-1.76,0.05" fill="none"/><path d="M443.52,119.08c-0.58-0.04-1.17-0.05-1.76-0.05H291.2h-1.33" fill="none"/><path d="M446.11,119.31c-0.57-0.08-1.15-0.14-1.73-0.17" fill="none"/><path d="M451.05,120.32c-0.25-0.08-0.51-0.14-0.76-0.21" fill="none"/><path d="M452.71,120.83c-0.25-0.08-0.49-0.16-0.74-0.24" fill="none"/><path d="M455.04,121.72c-0.51-0.22-1.02-0.42-1.54-0.61" fill="none"/><path d="M456.56,122.41c-0.25-0.13-0.5-0.25-0.75-0.35" fill="none"/><path d="M463.47,126.84c-0.18-0.16-0.37-0.31-0.56-0.46" fill="none"/><path d="M465.31,128.47c-0.19-0.19-0.4-0.38-0.6-0.56" fill="none"/><path d="M467.57,130.84c-0.17-0.21-0.36-0.41-0.54-0.61c-0.33-0.37-0.67-0.73-1.02-1.08" fill="none"/><path d="M472.3,137.91c-0.1-0.22-0.22-0.44-0.34-0.65" fill="none"/><path d="M473.12,139.67c-0.18-0.44-0.38-0.86-0.59-1.29" fill="none"/><path d="M475.13,145.91c-0.08-0.36-0.17-0.71-0.25-1.07" fill="none"/><path d="M475.36,147.11c-0.07-0.39-0.15-0.78-0.23-1.17" fill="none"/><path d="M475.7,149.5c-0.04-0.4-0.09-0.8-0.15-1.2c-0.05-0.39-0.11-0.78-0.18-1.16" fill="none"/><path d="M475.87,151.84c-0.01-0.38-0.03-0.75-0.06-1.12" fill="none"/><path d="M475.51,158.38c0.08-0.57,0.15-1.14,0.21-1.71" fill="none"/><path d="M474.11,164.12c0.53-1.58,0.95-3.22,1.26-4.9" fill="none"/><path d="M470.96,170.88c0.28-0.47,0.56-0.95,0.82-1.43c0.23-0.43,0.45-0.86,0.66-1.29" fill="none"/><path d="M468.1,174.89c0.35-0.43,0.69-0.85,1.02-1.29c0.33-0.44,0.64-0.89,0.95-1.34" fill="none"/><path d="M462.84,180.03c0.43-0.34,0.85-0.68,1.26-1.05c0.21-0.17,0.41-0.35,0.61-0.54c0.41-0.36,0.8-0.74,1.19-1.13      " fill="none"/><path d="M459.46,182.37c0.47-0.28,0.93-0.58,1.39-0.89c0.45-0.3,0.9-0.62,1.33-0.95" fill="none"/><path d="M448.64,186.62c0.56-0.12,1.1-0.24,1.65-0.38c0.54-0.14,1.08-0.3,1.62-0.46c0.53-0.17,1.06-0.35,1.58-0.54" fill="none"/><line fill="none" x1="289.87" x2="441.76" y1="187.31" y2="187.31"/><path d="M70.24,187.31c-0.38,0-0.76-0.01-1.14-0.02c-0.38-0.01-0.76-0.03-1.14-0.06c-0.56-0.03-1.11-0.08-1.66-0.15      c-0.82-0.09-1.64-0.21-2.44-0.37c-0.27-0.05-0.53-0.1-0.8-0.16c-0.78-0.16-1.55-0.36-2.31-0.58c-0.34-0.1-0.68-0.2-1.02-0.31      c-0.78-0.25-1.55-0.53-2.31-0.85c-0.17-0.06-0.33-0.13-0.49-0.2c-0.51-0.21-1-0.43-1.49-0.67c-0.39-0.18-0.78-0.38-1.16-0.59      c-0.52-0.27-1.03-0.56-1.53-0.86c-0.31-0.18-0.61-0.37-0.91-0.56c-0.23-0.14-0.46-0.3-0.69-0.45c-0.45-0.31-0.9-0.62-1.33-0.95      c-1.27-0.95-2.47-1.98-3.59-3.1c-0.23-0.22-0.46-0.45-0.68-0.69c-0.04-0.03-0.07-0.07-0.1-0.11c-0.23-0.23-0.45-0.47-0.66-0.71      c-1.06-1.18-2.03-2.43-2.92-3.75c-0.13-0.2-0.26-0.39-0.39-0.6c-0.15-0.23-0.3-0.46-0.44-0.69c-0.26-0.44-0.52-0.88-0.76-1.33      c-0.14-0.25-0.27-0.5-0.4-0.75c-0.12-0.22-0.23-0.44-0.33-0.66c-0.04-0.07-0.07-0.13-0.1-0.19c-0.18-0.38-0.35-0.75-0.51-1.13      c-0.02-0.04-0.04-0.08-0.05-0.12c-0.11-0.24-0.21-0.49-0.31-0.74c-0.2-0.49-0.39-0.99-0.57-1.5c-0.35-1.01-0.66-2.04-0.92-3.09      c-0.13-0.53-0.25-1.06-0.35-1.59c-0.05-0.26-0.1-0.51-0.14-0.77c-0.05-0.26-0.09-0.53-0.13-0.79c-0.08-0.52-0.14-1.03-0.19-1.55      c-0.03-0.29-0.06-0.58-0.08-0.87c-0.03-0.37-0.05-0.75-0.07-1.12c-0.02-0.5-0.03-1-0.03-1.5c0-0.45,0.01-0.9,0.03-1.34      c0.01-0.37,0.03-0.75,0.06-1.12c0.03-0.41,0.06-0.82,0.11-1.22c0.04-0.4,0.09-0.8,0.15-1.2c0.05-0.39,0.11-0.78,0.18-1.16      c0-0.01,0.01-0.02,0.01-0.03c0.07-0.4,0.15-0.79,0.23-1.17c0-0.01,0-0.02,0-0.03c0.08-0.36,0.17-0.72,0.25-1.07      c0.45-1.79,1.04-3.51,1.76-5.17c0.18-0.44,0.38-0.87,0.59-1.29c0.07-0.16,0.15-0.32,0.23-0.47c0.11-0.22,0.22-0.44,0.34-0.65      c1.21-2.32,2.69-4.47,4.39-6.42c0.17-0.21,0.36-0.41,0.54-0.61c0.33-0.37,0.67-0.73,1.02-1.08c0.23-0.23,0.46-0.46,0.7-0.68      c0.19-0.19,0.39-0.38,0.6-0.56c0.4-0.37,0.81-0.73,1.24-1.07c0.18-0.16,0.37-0.31,0.56-0.46c1.96-1.55,4.08-2.88,6.35-3.97      c0.25-0.12,0.5-0.24,0.75-0.35c0.26-0.12,0.51-0.23,0.77-0.34c0.51-0.21,1.02-0.42,1.55-0.61c2.35-0.86,4.82-1.47,7.38-1.8      c0.57-0.07,1.15-0.13,1.73-0.17c0.28-0.02,0.57-0.04,0.86-0.06c0.59-0.03,1.17-0.04,1.76-0.04" fill="none"/><path d="M441.76,187.31c1.24,0,2.47-0.07,3.68-0.2c1.08-0.11,2.15-0.28,3.2-0.49c0.55-0.12,1.1-0.24,1.65-0.38      c0.54-0.14,1.08-0.3,1.62-0.46c0.53-0.17,1.06-0.35,1.58-0.54c2.1-0.77,4.09-1.73,5.97-2.87c0.47-0.29,0.93-0.58,1.39-0.89      c0.45-0.31,0.9-0.62,1.33-0.95c0.22-0.17,0.44-0.33,0.66-0.5c0.43-0.34,0.85-0.69,1.26-1.05c0.21-0.17,0.41-0.36,0.61-0.54      c0.41-0.37,0.8-0.74,1.19-1.13c0.77-0.77,1.51-1.58,2.2-2.42c0.35-0.42,0.69-0.85,1.02-1.29c0.33-0.44,0.64-0.88,0.95-1.34      c0.3-0.45,0.6-0.91,0.89-1.38c0.28-0.47,0.56-0.95,0.82-1.43c0.23-0.43,0.45-0.86,0.66-1.29c0.64-1.3,1.2-2.65,1.67-4.04      c0.54-1.59,0.96-3.22,1.26-4.9c0.05-0.28,0.09-0.56,0.14-0.84c0.08-0.57,0.16-1.14,0.21-1.71c0.12-1.15,0.18-2.31,0.18-3.49      c0-0.45-0.01-0.9-0.03-1.34c-0.01-0.37-0.03-0.75-0.06-1.12c-0.03-0.41-0.06-0.82-0.11-1.22c-0.04-0.4-0.09-0.8-0.15-1.2      c-0.05-0.39-0.11-0.78-0.18-1.16c0-0.01-0.01-0.02-0.01-0.03c-0.07-0.4-0.15-0.79-0.23-1.17c0-0.01,0-0.02,0-0.03      c-0.08-0.36-0.17-0.72-0.25-1.07c-0.45-1.79-1.04-3.51-1.76-5.17c-0.18-0.44-0.38-0.87-0.59-1.29      c-0.07-0.16-0.15-0.32-0.23-0.47c-0.11-0.22-0.22-0.44-0.34-0.65c-1.21-2.32-2.69-4.47-4.39-6.42      c-0.17-0.21-0.36-0.41-0.54-0.61c-0.33-0.37-0.67-0.73-1.02-1.08c-0.23-0.23-0.46-0.46-0.7-0.68c-0.19-0.19-0.39-0.38-0.6-0.56      c-0.4-0.37-0.81-0.73-1.24-1.07c-0.18-0.16-0.37-0.31-0.56-0.46c-1.96-1.55-4.08-2.88-6.35-3.97c-0.25-0.12-0.5-0.24-0.75-0.35      c-0.25-0.12-0.51-0.23-0.77-0.34c-0.5-0.21-1.02-0.41-1.54-0.61c-0.26-0.09-0.52-0.19-0.79-0.28c-0.25-0.08-0.49-0.16-0.74-0.24      c-0.3-0.09-0.61-0.18-0.92-0.27c-0.25-0.07-0.51-0.14-0.76-0.21c-1.36-0.35-2.76-0.61-4.18-0.8c-0.57-0.07-1.15-0.13-1.73-0.17      c-0.28-0.02-0.57-0.04-0.86-0.06c-0.59-0.03-1.17-0.04-1.76-0.04" fill="none"/><polygon fill="none" points="223.52,119.03 289.87,119.03 289.87,187.31 289.87,463.57 223.52,463.57 223.52,187.31     "/><path d="M223.52,119.03c-7.81-15.85-16.63-33.03-35.02-36.34c-35.65-6.41-0.85-64.97,67.5-12.81      c68.35-52.16,103.15,6.4,67.5,12.81c-18.39,3.31-24.49,20.48-32.3,36.34v0.01" fill="none"/></g></g></g><rect height="15.77" opacity="0.2" width="155.56" x="67.96" y="187.23"/><rect height="15.77" opacity="0.2" width="155.56" x="289.875" y="187.23"/><linearGradient gradientUnits="userSpaceOnUse" id="SVGID_1_" x1="256" x2="337.6937" y1="256" y2="256"><stop offset="0" style="stop-color:#000000"/><stop offset="1" style="stop-color:#FFFFFF;stop-opacity:0"/></linearGradient><path d="M323.5,82.69c-18.39,3.31-24.49,20.48-32.3,36.34h-1.33v344.54H256V69.88   c20.72-15.81,38.36-21.45,51.88-21.45C338.97,48.43,348.34,78.22,323.5,82.69z" fill="url(#SVGID_1_)" opacity="0.1"/></g></svg>