<?xml version="1.0" ?><!DOCTYPE svg  PUBLIC '-//W3C//DTD SVG 1.1//EN'  'http://www.w3.org/Graphics/SVG/1.1/DTD/svg11.dtd'><svg height="512px" style="enable-background:new 0 0 512 512;" version="1.1" viewBox="0 0 512 512" width="512px" xml:space="preserve" xmlns="http://www.w3.org/2000/svg" xmlns:xlink="http://www.w3.org/1999/xlink"><g id="social__x2C__media__x2C__xing__x2C_"><g><path d="M434.636,16.01H77.729c-33.863,0-61.54,27.677-61.54,61.54    v356.888c0,33.876,27.677,61.553,61.54,61.553h356.907c33.499,0,61.176-27.677,61.176-61.553V77.55    C495.812,43.687,468.135,16.01,434.636,16.01L434.636,16.01z M122.531,312.085l48.793-81.206l-36.786-64.84h62.28l36.773,64.84    L184.8,312.085H122.531z M354.865,398.028h-66.27l-63.372-111.438l98.326-172.619h65.919l-97.962,172.619L354.865,398.028z" style="fill-rule:evenodd;clip-rule:evenodd;fill:#516A4F;"/><polygon points="196.818,166.039 134.538,166.039 171.324,230.879     122.531,312.085 184.8,312.085 233.592,230.879   " style="fill-rule:evenodd;clip-rule:evenodd;fill:#E9D9A8;"/><polygon points="323.55,113.972 225.224,286.591 288.596,398.028     354.865,398.028 291.507,286.591 389.469,113.972   " style="fill-rule:evenodd;clip-rule:evenodd;fill:#E9D9A8;"/></g></g><g id="Layer_1"/></svg>