<?xml version="1.0" ?><!DOCTYPE svg  PUBLIC '-//W3C//DTD SVG 1.1//EN'  'http://www.w3.org/Graphics/SVG/1.1/DTD/svg11.dtd'><svg height="512px" style="enable-background:new 0 0 512 512;" version="1.1" viewBox="0 0 512 512" width="512px" xml:space="preserve" xmlns="http://www.w3.org/2000/svg" xmlns:xlink="http://www.w3.org/1999/xlink"><g id="social__x2C__media__x2C___blogger__x2C_"><g><path d="M310.63,292.789H201.369    c-10.199,0-18.568,8.005-18.568,18.218c0,9.811,8.369,17.841,18.568,17.841H310.63c10.188,0,18.218-8.03,18.218-17.841    C328.848,300.794,320.817,292.789,310.63,292.789L310.63,292.789z" style="fill-rule:evenodd;clip-rule:evenodd;fill:#516A4F;"/><path d="M201.369,218.859h53.536c10.558,0,18.587-8.381,18.587-18.568    c0-9.837-8.029-18.218-18.587-18.218h-53.536c-10.199,0-18.568,8.381-18.568,18.218    C182.801,210.479,191.17,218.859,201.369,218.859L201.369,218.859z" style="fill-rule:evenodd;clip-rule:evenodd;fill:#516A4F;"/><path d="M434.438,16.01H77.549c-33.862,0-61.539,27.677-61.539,61.552    v356.901c0,33.851,27.677,61.527,61.539,61.527h356.889c33.875,0,61.553-27.677,61.553-61.527V77.562    C495.99,43.687,468.313,16.01,434.438,16.01L434.438,16.01z M408.943,248.356l-0.728,64.105c0,53.172-43.335,96.507-96.858,96.507    H200.278c-53.536,0-97.235-43.712-97.235-96.507V246.9v-47.337c0-52.809,43.699-96.52,97.235-96.52h67.744    c24.767,2.923,61.176,24.402,74.651,52.808c3.638,8.017,5.821,9.108,8.732,32.783c1.455,12.02,2.559,21.116,8.029,26.223    c7.628,6.913,36.033,2.183,41.88,6.549l3.989,3.274l2.911,5.471l0.728,4.366V248.356z" style="fill-rule:evenodd;clip-rule:evenodd;fill:#516A4F;"/><path d="M200.278,103.044c-53.536,0-97.235,43.711-97.235,96.52V246.9    v65.562c0,52.795,43.699,96.507,97.235,96.507h111.079c53.523,0,96.858-43.335,96.858-96.507l0.728-64.105v-13.839l-0.728-4.366    l-2.911-5.471l-3.989-3.274c-5.847-4.366-34.252,0.364-41.88-6.549c-5.471-5.106-6.574-14.203-8.029-26.223    c-2.911-23.675-5.095-24.767-8.732-32.783c-13.476-28.405-49.885-49.885-74.651-52.808H200.278z M201.369,182.073h53.536    c10.558,0,18.587,8.381,18.587,18.218c0,10.188-8.029,18.568-18.587,18.568h-53.536c-10.199,0-18.568-8.381-18.568-18.568    C182.801,190.454,191.17,182.073,201.369,182.073L201.369,182.073z M201.369,292.789H310.63c10.188,0,18.218,8.005,18.218,18.218    c0,9.811-8.03,17.841-18.218,17.841H201.369c-10.199,0-18.568-8.03-18.568-17.841C182.801,300.794,191.17,292.789,201.369,292.789    L201.369,292.789z" style="fill-rule:evenodd;clip-rule:evenodd;fill:#E9D9A8;"/></g></g><g id="Layer_1"/></svg>