<?xml version="1.0" ?><!DOCTYPE svg  PUBLIC '-//W3C//DTD SVG 1.1//EN'  'http://www.w3.org/Graphics/SVG/1.1/DTD/svg11.dtd'><svg height="512px" style="enable-background:new 0 0 512 512;" version="1.1" viewBox="0 0 512 512" width="512px" xml:space="preserve" xmlns="http://www.w3.org/2000/svg" xmlns:xlink="http://www.w3.org/1999/xlink"><g id="social__x2C__media__x2C___viber__x2C_"><g><path d="M434.438,16H77.549C43.687,16,16.01,43.677,16.01,77.553    v356.895C16.01,468.322,43.687,496,77.549,496h356.889c33.875,0,61.553-27.678,61.553-61.553V77.553    C495.99,43.677,468.313,16,434.438,16L434.438,16z M253.099,116.521c0.728-11.655,12.013-7.289,17.106-8.017    c71.013,2.183,131.838,65.919,131.11,134.384c0,1.456,0,3.275,0,5.094c0.351,5.834,0,11.292-8.03,11.292    c-8.732,0-7.276-8.732-8.004-15.294c0-0.728,0-1.092,0-1.819c-9.46-72.831-43.336-107.071-116.907-117.999    C262.194,123.071,252.723,124.526,253.099,116.521L253.099,116.521z M364.881,239.614c-0.352,2.911-1.807,5.094-5.822,5.821    c-8.004,1.092-9.459-3.639-9.836-8.732c0-2.195,0-4.378-0.352-6.197c-7.653-44.063-23.311-60.449-68.829-70.285    c-6.926-1.819-17.113-0.728-15.658-10.564c1.807-9.836,11.292-6.549,18.192-5.821c45.543,5.458,82.681,44.063,82.305,86.671    C364.529,233.053,365.257,236.703,364.881,239.614L364.881,239.614z M327.016,233.416c-1.104,0.729-2.184,1.092-4.015,1.456    c-2.534,0-4.366-0.728-6.173-2.547c-1.104-1.456-2.184-3.639-2.184-5.821c-1.832-18.582-11.668-29.133-30.613-32.057    c-5.445-1.092-10.915-2.91-8.355-10.188c1.807-5.106,6.549-5.471,11.292-5.471c20.023-0.728,43.687,22.947,43.335,43.712    C330.654,226.867,329.926,231.233,327.016,233.416L327.016,233.416z M402.043,360.888c-7.653,21.479-34.604,43.335-57.538,42.972    c-3.287-0.728-9.485-1.819-15.307-4.002C246.9,365.254,183.165,312.446,139.83,239.979c-9.837-16.386-18.569-34.239-26.586-52.809    c-13.839-33.511,0.728-61.916,36.045-73.559c6.198-1.832,12.396-2.196,18.582,0c14.93,5.457,53.172,56.81,53.898,72.104    c0.729,11.656-7.641,18.205-15.657,23.676c-9.837,6.549-13.475,14.202-12.747,22.57c0,4.742,1.455,9.836,4.002,14.931    c14.579,32.42,40.061,54.627,72.462,69.193c12.02,5.47,23.312,4.742,31.341-7.277c14.554-21.491,32.043-20.4,51.34-6.926    c9.836,6.562,19.673,13.111,28.781,20.401C393.662,332.119,409.696,340.487,402.043,360.888L402.043,360.888z" style="fill-rule:evenodd;clip-rule:evenodd;fill:#819D50;"/><path d="M269.829,316.085c-32.401-14.566-57.883-36.773-72.462-69.193    c-2.547-5.095-4.002-10.188-4.002-14.931c-0.728-8.368,2.91-16.021,12.747-22.57c8.017-5.471,16.386-12.02,15.657-23.676    c-0.727-15.294-38.969-66.646-53.898-72.104c-6.186-2.196-12.384-1.832-18.582,0c-35.317,11.643-49.884,40.048-36.045,73.559    c8.017,18.569,16.749,36.423,26.586,52.809c43.335,72.468,107.07,125.275,189.368,159.879c5.821,2.183,12.02,3.274,15.307,4.002    c22.935,0.363,49.885-21.492,57.538-42.972c7.653-20.4-8.381-28.769-20.752-38.604c-9.108-7.29-18.945-13.84-28.781-20.401    c-19.297-13.475-36.786-14.565-51.34,6.926C293.141,320.827,281.849,321.555,269.829,316.085L269.829,316.085z" style="fill-rule:evenodd;clip-rule:evenodd;fill:#E9D9A8;"/><path d="M268.374,124.162    c73.571,10.928,107.447,45.168,116.907,117.999v1.819c0.728,6.562-0.729,15.294,8.004,15.294c8.03,0,8.381-5.458,8.03-11.292    c0-1.818,0-3.638,0-5.094c0.728-68.465-60.098-132.201-131.11-134.384c-5.094,0.728-16.379-3.639-17.106,8.017    C252.723,124.526,262.194,123.071,268.374,124.162L268.374,124.162z" style="fill-rule:evenodd;clip-rule:evenodd;fill:#E9D9A8;"/><path d="M364.881,230.506c0.376-42.607-36.762-81.213-82.305-86.671    c-6.9-0.728-16.386-4.015-18.192,5.821c-1.455,9.837,8.732,8.745,15.658,10.564c45.519,9.836,61.176,26.223,68.829,70.285    c0.352,1.819,0.352,4.002,0.352,6.197c0.377,5.094,1.832,9.824,9.836,8.732c4.016-0.728,5.471-2.91,5.822-5.821    C365.257,236.703,364.529,233.053,364.881,230.506L364.881,230.506z" style="fill-rule:evenodd;clip-rule:evenodd;fill:#E9D9A8;"/><path d="M330.303,222.501c0.352-20.765-23.312-44.439-43.335-43.712    c-4.743,0-9.485,0.364-11.292,5.471c-2.56,7.277,2.91,9.096,8.355,10.188c18.945,2.924,28.781,13.475,30.613,32.057    c0,2.183,1.079,4.365,2.184,5.821c1.807,1.819,3.639,2.547,6.173,2.547c1.831-0.364,2.91-0.728,4.015-1.456    C329.926,231.233,330.654,226.867,330.303,222.501L330.303,222.501z" style="fill-rule:evenodd;clip-rule:evenodd;fill:#E9D9A8;"/></g></g><g id="Layer_1"/></svg>