<?xml version="1.0" ?><!DOCTYPE svg  PUBLIC '-//W3C//DTD SVG 1.1//EN'  'http://www.w3.org/Graphics/SVG/1.1/DTD/svg11.dtd'><svg height="512px" style="enable-background:new 0 0 512 512;" version="1.1" viewBox="0 0 512 512" width="512px" xml:space="preserve" xmlns="http://www.w3.org/2000/svg" xmlns:xlink="http://www.w3.org/1999/xlink"><g id="social__x2C__media__x2C__instagram__x2C_"><g><path d="M434.447,16.01H77.553c-33.862,0-61.54,28.041-61.54,61.54    v356.913c0,33.851,27.678,61.527,61.54,61.527h356.895c33.862,0,61.54-27.677,61.54-61.527V77.55    C495.987,44.051,468.31,16.01,434.447,16.01L434.447,16.01z M415.866,223.226v24.039v107.077c0,34.227-27.678,61.903-61.54,61.903    H157.674c-34.239,0-61.553-27.677-61.553-61.903V247.265v-24.039v-65.555c0-33.863,27.313-61.54,61.553-61.54h196.652    c33.862,0,61.54,27.677,61.54,61.54V223.226z" style="fill-rule:evenodd;clip-rule:evenodd;fill:#D66527;"/><path d="M256,312.462c30.965,0,56.446-25.143,56.446-56.452    c0-9.837-2.911-19.31-7.289-27.313c-1.079-1.832-2.184-3.651-3.639-5.471c-10.188-14.202-26.95-23.312-45.519-23.312    c-18.945,0-35.682,9.109-45.895,23.312c-1.079,1.819-2.184,3.639-3.263,5.471c-4.742,8.004-7.289,17.477-7.289,27.313    C199.554,287.319,224.685,312.462,256,312.462L256,312.462z" style="fill-rule:evenodd;clip-rule:evenodd;fill:#D66527;"/><polygon points="379.093,187.18 379.093,139.83 379.093,132.917     371.804,132.917 324.829,132.917 324.829,187.18   " style="fill-rule:evenodd;clip-rule:evenodd;fill:#D66527;"/><path d="M340.124,232.334c2.195,7.277,3.274,15.294,3.274,23.676    c0,48.423-39.32,87.768-87.398,87.768c-48.429,0-87.774-39.345-87.774-87.768c0-8.018,1.455-16.398,3.287-23.676    c1.092-3.274,2.183-6.197,3.274-9.108h-47.714v16.749v114.367c0,17.113,13.475,30.588,30.601,30.588h196.652    c16.749,0,30.601-13.475,30.601-30.588V239.975v-16.749h-47.714C338.305,226.137,339.396,229.06,340.124,232.334L340.124,232.334z    " style="fill-rule:evenodd;clip-rule:evenodd;fill:#D66527;"/><path d="M157.674,416.245h196.652c33.862,0,61.54-27.677,61.54-61.903    V247.265v-24.039v-65.555c0-33.863-27.678-61.54-61.54-61.54H157.674c-34.239,0-61.553,27.677-61.553,61.54v65.555v24.039v107.077    C96.121,388.568,123.435,416.245,157.674,416.245L157.674,416.245z M354.326,384.93H157.674    c-17.126,0-30.601-13.475-30.601-30.588V239.975v-16.749h47.714c-1.092,2.911-2.183,5.834-3.274,9.108    c-1.832,7.277-3.287,15.658-3.287,23.676c0,48.423,39.346,87.768,87.774,87.768c48.078,0,87.398-39.345,87.398-87.768    c0-8.382-1.079-16.398-3.274-23.676c-0.729-3.274-1.819-6.197-2.911-9.108h47.714v16.749v114.367    C384.927,371.455,371.075,384.93,354.326,384.93L354.326,384.93z M312.446,256.01c0,31.31-25.481,56.452-56.446,56.452    c-31.315,0-56.446-25.143-56.446-56.452c0-9.837,2.547-19.31,7.289-27.313c1.079-1.832,2.184-3.651,3.263-5.471    c10.213-14.202,26.949-23.312,45.895-23.312c18.568,0,35.331,9.109,45.519,23.312c1.455,1.819,2.56,3.639,3.639,5.471    C309.535,236.7,312.446,246.173,312.446,256.01L312.446,256.01z M324.829,187.18v-54.263h46.975h7.289v6.913v47.35H324.829z" style="fill-rule:evenodd;clip-rule:evenodd;fill:#E9D9A8;"/></g></g><g id="Layer_1"/></svg>