<?xml version="1.0" ?><!DOCTYPE svg  PUBLIC '-//W3C//DTD SVG 1.1//EN'  'http://www.w3.org/Graphics/SVG/1.1/DTD/svg11.dtd'><svg height="512px" style="enable-background:new 0 0 512 512;" version="1.1" viewBox="0 0 512 512" width="512px" xml:space="preserve" xmlns="http://www.w3.org/2000/svg" xmlns:xlink="http://www.w3.org/1999/xlink"><g id="social__x2C__media__x2C__dribble_x2C_"><g><path d="M248.355,210.843c-23.675-41.88-48.805-76.106-50.624-78.654    c-38.241,17.842-66.646,53.159-75.755,95.416C125.627,227.604,182.801,228.332,248.355,210.843L248.355,210.843z" style="fill-rule:evenodd;clip-rule:evenodd;fill:#018982;"/><path d="M171.873,363.802L171.873,363.802    c-1.092-1.079-2.184-1.807-2.91-2.535C170.781,362.723,171.873,363.802,171.873,363.802L171.873,363.802z" style="fill-rule:evenodd;clip-rule:evenodd;fill:#1A1A1A;"/><path d="M265.463,257.101c1.832-0.728,3.639-1.455,5.471-1.819    c-3.639-7.653-7.277-15.657-11.299-23.311c-70.285,21.128-138.022,19.673-140.205,19.673c-0.364,1.455-0.364,2.91-0.364,4.366    c0,34.947,13.475,67.017,35.331,91.406c-0.364,0-0.364-0.352-0.364-0.352S191.533,280.77,265.463,257.101L265.463,257.101z" style="fill-rule:evenodd;clip-rule:evenodd;fill:#018982;"/><path d="M346.312,153.305c-24.038-21.116-55.706-34.227-90.315-34.227    c-11.291,0-21.843,1.455-32.406,4.002c2.183,2.547,28.041,36.786,51.358,79.758C326.639,183.541,345.961,153.681,346.312,153.305    L346.312,153.305z" style="fill-rule:evenodd;clip-rule:evenodd;fill:#018982;"/><polygon points="223.226,123.08 222.861,123.08 223.226,123.08     223.226,123.08   " style="fill-rule:evenodd;clip-rule:evenodd;fill:#1A1A1A;"/><path d="M434.438,16.01H77.549c-33.862,0-61.539,27.677-61.539,61.552    v356.901c0,33.499,27.677,61.527,61.539,61.527h356.889c33.875,0,61.553-28.028,61.553-61.527V77.562    C495.99,43.687,468.313,16.01,434.438,16.01L434.438,16.01z M412.958,288.046c-2.183,10.213-5.47,20.4-9.46,30.237    c-4.015,9.46-9.108,18.568-14.93,27.301c-5.471,8.381-12.02,16.411-19.297,23.688c-7.302,6.926-15.307,13.826-23.688,19.297    c-8.732,5.821-17.841,10.915-27.301,14.93c-9.836,4.015-19.673,7.277-30.236,9.108c-10.564,2.184-21.129,3.288-32.051,3.288    c-10.928,0-21.843-1.104-32.406-3.288c-10.201-1.831-20.4-5.094-29.861-9.108c-9.473-4.015-18.944-9.108-27.313-14.93    c-8.381-5.471-16.397-12.371-23.675-19.297c-7.289-7.276-13.839-15.307-19.673-23.688c-5.821-8.732-10.552-17.841-14.566-27.301    c-4.366-9.837-7.276-20.024-9.46-30.237c-2.183-10.563-3.287-21.479-3.287-32.036c0-2.56,0-5.095,0.364-7.653    c0.363-8.382,1.104-16.75,2.923-24.767c2.184-10.188,5.094-20.389,9.46-30.225c4.015-9.473,8.745-18.568,14.566-26.95    c5.834-8.368,12.384-16.385,19.673-23.675c7.277-7.276,15.294-13.826,23.675-19.66c8.369-5.834,17.841-10.928,27.313-14.93    c9.461-4.003,19.66-6.913,29.861-9.097c10.563-2.195,21.479-3.287,32.406-3.287c10.922,0,21.486,1.092,32.051,3.287    c10.563,2.184,20.4,5.094,30.236,9.097c9.46,4.002,18.568,9.096,27.301,14.93c8.381,5.834,16.386,12.384,23.688,19.66    c7.277,7.29,13.826,14.931,19.297,23.675c5.821,8.382,10.915,17.478,14.93,26.95c3.99,9.836,7.277,20.036,9.46,30.225    c1.832,8.744,2.56,17.489,2.911,26.222c0,2.183,0.377,4.015,0.377,6.198C416.246,266.567,415.142,277.482,412.958,288.046    L412.958,288.046z" style="fill-rule:evenodd;clip-rule:evenodd;fill:#018982;"/><path d="M361.618,168.963c-0.376,0.376-22.231,32.056-76.131,54.275    c0.728,1.807,1.48,3.639,2.56,5.458c2.183,4.729,4.365,9.472,6.549,14.202c0.728,2.547,1.832,4.729,2.91,7.289    c46.999-6.197,93.245,3.99,95.052,4.366c0-3.639,0-7.289-0.351-10.928C389.647,215.585,378.731,189.727,361.618,168.963    L361.618,168.963z" style="fill-rule:evenodd;clip-rule:evenodd;fill:#018982;"/><path d="M279.314,278.21    c-80.855,28.054-107.078,84.864-107.441,85.592c23.312,17.841,52.443,28.781,84.123,28.781c18.952,0,36.793-3.639,53.179-10.94    c-1.832-11.644-9.837-53.522-29.133-103.784C279.666,278.21,279.666,278.21,279.314,278.21L279.314,278.21z" style="fill-rule:evenodd;clip-rule:evenodd;fill:#018982;"/><path d="M305.888,271.661c17.841,49.182,25.143,89.229,26.599,97.61    c30.588-20.751,52.443-53.548,58.616-91.789C388.191,276.755,349.95,264.735,305.888,271.661L305.888,271.661z" style="fill-rule:evenodd;clip-rule:evenodd;fill:#018982;"/><path d="M171.873,363.802c0.363-0.728,26.586-57.538,107.441-85.592    l0.728-0.352c19.296,50.262,27.301,92.141,29.133,103.784c-16.386,7.302-34.227,10.94-53.179,10.94    C224.316,392.583,195.185,381.643,171.873,363.802L171.873,363.802z M255.996,415.895c10.922,0,21.486-1.104,32.051-3.288    c10.563-1.831,20.4-5.094,30.236-9.108c9.46-4.015,18.568-9.108,27.301-14.93c8.381-5.471,16.386-12.371,23.688-19.297    c7.277-7.276,13.826-15.307,19.297-23.688c5.821-8.732,10.915-17.841,14.93-27.301c3.99-9.837,7.277-20.024,9.46-30.237    c2.184-10.563,3.288-21.479,3.288-32.036l-0.377-6.198c-0.352-8.732-1.079-17.478-2.911-26.222    c-2.183-10.188-5.47-20.389-9.46-30.225c-4.015-9.473-9.108-18.568-14.93-26.95c-5.471-8.744-12.02-16.385-19.297-23.675    c-7.302-7.276-15.307-13.826-23.688-19.66c-8.732-5.834-17.841-10.928-27.301-14.93c-9.836-4.003-19.673-6.913-30.236-9.097    c-10.564-2.195-21.129-3.287-32.051-3.287c-10.928,0-21.843,1.092-32.406,3.287c-10.201,2.184-20.4,5.094-29.861,9.097    c-9.473,4.002-18.944,9.096-27.313,14.93c-8.381,5.834-16.397,12.384-23.675,19.66c-7.289,7.29-13.839,15.307-19.673,23.675    c-5.821,8.382-10.552,17.478-14.566,26.95c-4.366,9.836-7.276,20.036-9.46,30.225c-1.819,8.017-2.56,16.385-2.923,24.767    l-0.364,7.653c0,10.558,1.104,21.473,3.287,32.036c2.184,10.213,5.094,20.4,9.46,30.237c4.015,9.46,8.745,18.568,14.566,27.301    c5.834,8.381,12.384,16.411,19.673,23.688c7.277,6.926,15.294,13.826,23.675,19.297c8.369,5.821,17.841,10.915,27.313,14.93    c9.461,4.015,19.66,7.277,29.861,9.108C234.153,414.79,245.068,415.895,255.996,415.895L255.996,415.895z M270.934,255.281    l-5.471,1.819c-73.93,23.669-111.431,89.964-111.431,89.964c-21.492-24.038-34.967-56.107-34.967-91.055l0.364-4.366    c2.183,0,69.92,1.455,140.205-19.673C263.656,239.624,267.295,247.628,270.934,255.281L270.934,255.281z M305.888,271.661    c44.063-6.926,82.304,5.094,85.215,5.821c-6.173,38.241-28.028,71.038-58.616,91.789    C331.03,360.891,323.729,320.843,305.888,271.661L305.888,271.661z M168.963,361.267l2.91,2.535l0,0L168.963,361.267z     M294.596,242.898c-2.184-4.73-4.366-9.473-6.549-14.202l-2.56-5.458c53.899-22.22,75.755-53.899,76.131-54.275    c17.113,20.764,28.029,46.622,30.589,74.663c0.351,3.639,0.351,7.289,0.351,10.928c-1.807-0.376-48.053-10.563-95.052-4.366    L294.596,242.898z M274.948,202.838c-23.317-42.972-49.176-77.211-51.358-79.758c10.563-2.547,21.115-4.002,32.406-4.002    c34.609,0,66.277,13.11,90.315,34.227C345.961,153.681,326.639,183.541,274.948,202.838L274.948,202.838z M248.355,210.843    c-65.555,17.489-122.729,16.762-126.379,16.762c9.108-42.257,37.514-77.574,75.755-95.416    C199.551,134.736,224.681,168.963,248.355,210.843L248.355,210.843z" style="fill-rule:evenodd;clip-rule:evenodd;fill:#E9D9A8;"/></g></g><g id="Layer_1"/></svg>