<?xml version="1.0" ?><!DOCTYPE svg  PUBLIC '-//W3C//DTD SVG 1.1//EN'  'http://www.w3.org/Graphics/SVG/1.1/DTD/svg11.dtd'><svg height="512px" style="enable-background:new 0 0 512 512;" version="1.1" viewBox="0 0 512 512" width="512px" xml:space="preserve" xmlns="http://www.w3.org/2000/svg" xmlns:xlink="http://www.w3.org/1999/xlink"><g id="social__x2C_media__x2C__vintage__x2C__xing__x2C_"><g><path d="M256,495.998c126.469,0,230.171-97.885,239.296-222.145    H16.704C25.732,398.113,129.432,495.998,256,495.998L256,495.998z M495.296,238.147C486.171,113.987,382.469,16.002,256,16.002    c-126.568,0-230.268,97.984-239.296,222.145H495.296L495.296,238.147z" style="fill-rule:evenodd;clip-rule:evenodd;fill:#819D52;"/><path d="M256,431.109c96.481,0,175.11-78.729,175.11-175.209    c0-96.281-78.629-175.01-175.11-175.01c-96.377,0-175.009,78.729-175.009,175.01C80.991,352.381,159.623,431.109,256,431.109    L256,431.109z" style="fill-rule:evenodd;clip-rule:evenodd;fill:#E9D9A8;"/><path d="M24.831,238.147h462.442    c0.401,5.919,0.602,11.938,0.602,17.753c0,6.018-0.2,12.034-0.602,17.954H24.831c-0.401-5.92-0.705-11.936-0.705-17.954    C24.126,250.084,24.43,244.066,24.831,238.147L24.831,238.147z" style="fill-rule:evenodd;clip-rule:evenodd;fill:#E9D9A8;"/><path d="M256,412.557c86.352,0,156.557-70.406,156.557-156.657    c0-86.251-70.205-156.456-156.557-156.456c-86.247,0-156.655,70.205-156.655,156.456C99.345,342.15,169.753,412.557,256,412.557    L256,412.557z" style="fill-rule:evenodd;clip-rule:evenodd;fill:#819D52;"/><polygon points="224.31,207.559 190.712,207.559 210.469,241.958     183.992,285.186 217.59,285.186 243.966,241.958   " style="fill-rule:evenodd;clip-rule:evenodd;fill:#E9D9A8;"/><polygon points="292.307,179.98 239.354,272.447 273.452,332.02     309.258,332.02 275.155,272.447 328.013,179.98   " style="fill-rule:evenodd;clip-rule:evenodd;fill:#E9D9A8;"/></g></g><g id="Layer_1"/></svg>