<?xml version="1.0" ?><!DOCTYPE svg  PUBLIC '-//W3C//DTD SVG 1.1//EN'  'http://www.w3.org/Graphics/SVG/1.1/DTD/svg11.dtd'><svg height="512px" style="enable-background:new 0 0 512 512;" version="1.1" viewBox="0 0 512 512" width="512px" xml:space="preserve" xmlns="http://www.w3.org/2000/svg" xmlns:xlink="http://www.w3.org/1999/xlink"><g id="social__x2C_media__x2C__vintage__x2C___chrome__x2C_"><g><path d="M256.101,495.946c126.469,0,230.067-97.885,239.195-222.145    H16.704C25.831,398.062,129.432,495.946,256.101,495.946L256.101,495.946z M495.296,238.198    C486.168,113.938,382.569,16.054,256.101,16.054c-126.669,0-230.27,97.884-239.396,222.145H495.296L495.296,238.198z" style="fill-rule:evenodd;clip-rule:evenodd;fill:#516A4F;"/><path d="M256.101,431.059c96.381,0,175.01-78.729,175.01-175.108    c0-96.28-78.629-175.01-175.01-175.01c-96.479,0-175.008,78.729-175.008,175.01C81.093,352.33,159.621,431.059,256.101,431.059    L256.101,431.059z" style="fill-rule:evenodd;clip-rule:evenodd;fill:#E9D9A8;"/><path d="M24.829,238.198h462.545c0.4,5.818,0.501,11.835,0.501,17.752    c0,6.018-0.101,12.032-0.501,17.852H24.829c-0.402-5.819-0.703-11.834-0.703-17.852C24.126,250.033,24.427,244.017,24.829,238.198    L24.829,238.198z" style="fill-rule:evenodd;clip-rule:evenodd;fill:#E9D9A8;"/><path d="M256.101,412.608c86.251,0,156.456-70.409,156.456-156.658    c0-86.25-70.205-156.556-156.456-156.556S99.444,169.7,99.444,255.95C99.444,342.199,169.85,412.608,256.101,412.608    L256.101,412.608z" style="fill-rule:evenodd;clip-rule:evenodd;fill:#516A4F;"/><path d="M212.273,244.518c0.301,0.301,0.802-0.701,1.303-0.701h0.202    c0.501,0,1.002,1.002,1.103,0.3c4.915-18.654,21.764-31.491,41.119-31.491c1.104,0,2.507,0.4,3.711,0.4c0.101,0,0.101,0,0.101,0    h69.9c0.505,0,1.006,0.2,1.307-0.4c0.301-0.401,0.301-0.703,0-1.305c-7.622-12.735-18.454-23.267-31.193-30.789    c-13.337-7.621-28.48-11.633-43.825-11.633c-26.576,0-51.448,12.034-68.097,32.794c-0.301,0.501-0.301,0.401-0.101,0.904    L212.273,244.518z M335.932,222.653h-49.343c-0.501,0-1.002,0.701-1.202,1.305c-0.201,0.501,0,1.204,0.3,1.604    c8.224,8.022,12.335,18.955,12.335,30.388c0,8.726-1.603,17.05-8.022,24.171c0,0.1,0,0.1,0,0.1l-34.8,60.676    c-0.201,0.604,0,1.103,0.3,1.503c0.301,0.505,0.902,0.802,1.403,0.802c23.069-0.297,44.63-9.522,61.076-25.973    c16.149-16.249,25.174-38.21,25.174-61.178c0-11.032-2.107-22.064-6.019-32.093C336.934,223.354,336.436,222.653,335.932,222.653    L335.932,222.653z M268.937,297.372c-0.498-0.4-1.002-0.705-1.503-0.504c-3.61,1.002-7.522,1.506-11.434,1.506    c-16.348,0-31.392-9.529-38.41-24.469l-35.103-60.68c-0.2-0.3-0.604-0.601-1.104-0.601c-0.601,0-1.102,0.301-1.302,0.601    c-7.222,13.038-11.233,27.781-11.233,42.825c0,20.96,7.622,41.121,21.361,57.063c13.64,15.748,32.294,25.976,52.854,28.988    c0,0.097,0.2,0.097,0.2,0.097c0.503,0,1.004-0.2,1.204-0.698l24.47-42.626C269.24,298.374,269.24,297.87,268.937,297.372    L268.937,297.372z M223.406,256.051c0,17.854,14.741,32.497,32.594,32.497c18.054,0,32.596-14.643,32.596-32.497    c0-18.053-14.542-32.696-32.596-32.696C238.147,223.354,223.406,237.998,223.406,256.051L223.406,256.051z" style="fill-rule:evenodd;clip-rule:evenodd;fill:#E9D9A8;"/></g></g><g id="Layer_1"/></svg>