<?xml version="1.0" ?><!DOCTYPE svg  PUBLIC '-//W3C//DTD SVG 1.1//EN'  'http://www.w3.org/Graphics/SVG/1.1/DTD/svg11.dtd'><svg height="512px" style="enable-background:new 0 0 512 512;" version="1.1" viewBox="0 0 512 512" width="512px" xml:space="preserve" xmlns="http://www.w3.org/2000/svg" xmlns:xlink="http://www.w3.org/1999/xlink"><g id="social__x2C_media__x2C__vintage__x2C__vkontakte__x2C_"><g><path d="M256.101,495.998c126.469,0,230.07-97.885,239.195-222.145    H16.704C25.833,398.113,129.436,495.998,256.101,495.998L256.101,495.998z M495.296,238.248    C486.171,113.987,382.569,16.002,256.101,16.002c-126.665,0-230.268,97.984-239.396,222.245H495.296L495.296,238.248z" style="fill-rule:evenodd;clip-rule:evenodd;fill:#516A4F;"/><path d="M256.101,431.109c96.381,0,175.01-78.729,175.01-175.109    c0-96.281-78.629-175.11-175.01-175.11c-96.478,0-175.006,78.829-175.006,175.11C81.094,352.381,159.623,431.109,256.101,431.109    L256.101,431.109z" style="fill-rule:evenodd;clip-rule:evenodd;fill:#E9D9A8;"/><path d="M24.831,238.248h462.543c0.4,5.818,0.501,11.833,0.501,17.752    c0,6.02-0.101,12.033-0.501,17.854H24.831c-0.404-5.82-0.705-11.834-0.705-17.854C24.126,250.081,24.427,244.066,24.831,238.248    L24.831,238.248z" style="fill-rule:evenodd;clip-rule:evenodd;fill:#E9D9A8;"/><path d="M256.101,412.656c86.251,0,156.456-70.406,156.456-156.656    c0-86.351-70.205-156.556-156.456-156.556S99.448,169.649,99.448,256C99.448,342.25,169.85,412.656,256.101,412.656    L256.101,412.656z" style="fill-rule:evenodd;clip-rule:evenodd;fill:#516A4F;"/><path d="M341.148,213.177c-2.308-1.707-10.531-1.707-18.754-1.707    c-8.323,0.1-16.647,0.1-18.654,0.901c-1.804,0.705-5.818,10.431-11.032,20.361c-5.915,11.233-13.137,22.165-17.753,21.964    c-6.115,0-4.612-18.454-4.212-32.195c0.101-8.925-1.402-11.834-2.604-12.636c-3.21-2.208-11.838-4.312-11.838-4.312    s-26.176-2.007-29.786,9.326c5.017,0.601,13.54-0.902,10.23,33.999c-0.301,1.707-4.012,15.945-16.146-3.31    c-3.009-4.913-14.643-33.999-18.754-34.099c-13.341-0.301-26.678-0.902-31.293,1.707c-4.313,2.505,5.818,22.465,22.97,49.243    c13.838,21.965,28.681,39.012,54.256,43.324c4.813,0.5,17.251,1.004,21.263-0.902c2.608-1.303-0.701-20.158,8.424-22.064    c4.011-0.803,19.656,19.756,25.475,22.064c3.61,1.502,11.433,2.107,19.456,1.707c8.724-0.205,18.554,0.902,19.556-5.117    c2.107-13.037-26.376-30.088-27.078-38.111c-0.701-5.818,10.331-16.445,15.946-24.572    C337.839,228.822,345.561,216.888,341.148,213.177L341.148,213.177z" style="fill-rule:evenodd;clip-rule:evenodd;fill:#E9D9A8;"/></g></g><g id="Layer_1"/></svg>