<?xml version="1.0" ?><!DOCTYPE svg  PUBLIC '-//W3C//DTD SVG 1.1//EN'  'http://www.w3.org/Graphics/SVG/1.1/DTD/svg11.dtd'><svg height="512px" style="enable-background:new 0 0 512 512;" version="1.1" viewBox="0 0 512 512" width="512px" xml:space="preserve" xmlns="http://www.w3.org/2000/svg" xmlns:xlink="http://www.w3.org/1999/xlink"><g id="social__x2C_media__x2C__vintage__x2C___google__drive__x2C_"><g><path d="M256.102,495.998c126.467,0,230.065-97.984,239.193-222.145    H16.705C25.83,398.014,129.532,495.998,256.102,495.998L256.102,495.998z M495.295,238.147    c-9.128-124.26-112.727-222.145-239.193-222.145c-126.669,0-230.271,97.884-239.396,222.145H495.295L495.295,238.147z" style="fill-rule:evenodd;clip-rule:evenodd;fill:#C95B5E;"/><path d="M256.102,431.109c96.379,0,175.004-78.729,175.004-175.209    c0-96.281-78.625-175.01-175.004-175.01c-96.481,0-175.01,78.729-175.01,175.01C81.092,352.381,159.62,431.109,256.102,431.109    L256.102,431.109z" style="fill-rule:evenodd;clip-rule:evenodd;fill:#E9D9A8;"/><path d="M24.828,238.147h462.541    c0.401,5.919,0.505,11.934,0.505,17.753c0,6.016-0.104,12.034-0.505,17.954H24.828c-0.401-5.92-0.701-11.938-0.701-17.954    C24.127,250.081,24.427,244.066,24.828,238.147L24.828,238.147z" style="fill-rule:evenodd;clip-rule:evenodd;fill:#E9D9A8;"/><path d="M256.102,412.557c86.249,0,156.45-70.406,156.45-156.657    c0-86.251-70.201-156.456-156.45-156.456c-86.254,0-156.656,70.205-156.656,156.456    C99.445,342.15,169.848,412.557,256.102,412.557L256.102,412.557z" style="fill-rule:evenodd;clip-rule:evenodd;fill:#C95B5E;"/><polygon points="231.428,285.186 230.927,287.189 208.763,325.801     207.356,328.811 313.97,328.811 314.37,327.908 336.532,288.695 337.935,285.186 232.431,285.186   " style="fill-rule:evenodd;clip-rule:evenodd;fill:#E9D9A8;"/><polygon points="251.989,231.627 251.385,230.826 228.92,192.415     227.617,190.107 226.314,192.415 174.463,281.775 174.063,282.576 174.463,283.379 196.929,321.889 198.432,324.197     199.734,321.889 251.385,232.432   " style="fill-rule:evenodd;clip-rule:evenodd;fill:#E9D9A8;"/><polygon points="284.78,184.993 284.283,183.186 283.481,183.186     239.752,185.695 237.043,185.695 238.249,187.902 290.102,276.156 290.502,276.156 291.505,276.156 335.329,276.156     337.935,276.156 336.532,273.953   " style="fill-rule:evenodd;clip-rule:evenodd;fill:#E9D9A8;"/></g></g><g id="Layer_1"/></svg>