<?xml version="1.0" ?><!DOCTYPE svg  PUBLIC '-//W3C//DTD SVG 1.1//EN'  'http://www.w3.org/Graphics/SVG/1.1/DTD/svg11.dtd'><svg height="512px" style="enable-background:new 0 0 512 512;" version="1.1" viewBox="0 0 512 512" width="512px" xml:space="preserve" xmlns="http://www.w3.org/2000/svg" xmlns:xlink="http://www.w3.org/1999/xlink"><g id="social__x2C_media__x2C__vintage__x2C__google_blogger__x2C_"><g><path d="M256.101,495.998c126.469,0,230.168-97.984,239.195-222.148    H16.704C25.829,398.014,129.532,495.998,256.101,495.998L256.101,495.998z M495.296,238.147    c-9.027-124.26-112.727-222.145-239.195-222.145c-126.568,0-230.271,97.884-239.396,222.145H495.296L495.296,238.147z" style="fill-rule:evenodd;clip-rule:evenodd;fill:#C95B5E;"/><path d="M256.101,431.105c96.481,0,175.01-78.729,175.01-175.206    c0-96.281-78.528-175.01-175.01-175.01S81.091,159.619,81.091,255.9C81.091,352.377,159.619,431.105,256.101,431.105    L256.101,431.105z" style="fill-rule:evenodd;clip-rule:evenodd;fill:#E9D9A8;"/><path d="M24.827,238.147h462.547c0.4,5.917,0.501,11.936,0.501,17.753    c0,6.016-0.101,12.034-0.501,17.95H24.827c-0.4-5.916-0.701-11.934-0.701-17.95C24.126,250.083,24.427,244.064,24.827,238.147    L24.827,238.147z" style="fill-rule:evenodd;clip-rule:evenodd;fill:#E9D9A8;"/><path d="M256.101,412.553c86.251,0,156.456-70.402,156.456-156.653    c0-86.251-70.205-156.456-156.456-156.456S99.444,169.649,99.444,255.9C99.444,342.15,169.85,412.553,256.101,412.553    L256.101,412.553z" style="fill-rule:evenodd;clip-rule:evenodd;fill:#C95B5E;"/><path d="M325.3,242.661l-2.004-1.504    c-2.608-2.006-15.845,0.1-19.456-3.11c-2.608-2.306-3.109-6.518-3.711-12.134c-1.406-10.932-2.308-11.634-4.011-15.244    c-6.319-13.238-23.271-24.673-34.904-24.673h-31.59c-24.773,0-45.131,20.36-45.131,45.031v22.065v30.388    c0,24.773,20.357,42.426,45.131,42.426h51.851c24.871,0,45.332-18.857,45.532-43.629l0.602-28.684v-6.418l-0.802-1.906    L325.3,242.661z M230.225,220.697h25.074c4.713,0,8.524,4.513,8.524,9.327c0,4.613-3.812,9.327-8.524,9.327h-25.074    c-4.813,0-8.624-4.714-8.624-9.327C221.601,225.209,225.412,220.697,230.225,220.697L230.225,220.697z M281.074,288.691h-50.85    c-4.813,0-8.624-2.904-8.624-7.719c0-4.711,3.812-7.621,8.624-7.621h50.85c4.713,0,8.523,2.91,8.523,7.621    C289.598,285.787,285.787,288.691,281.074,288.691L281.074,288.691z" style="fill-rule:evenodd;clip-rule:evenodd;fill:#E9D9A8;"/></g></g><g id="Layer_1"/></svg>