<?xml version="1.0" ?><svg viewBox="0 0 64 64" xmlns="http://www.w3.org/2000/svg" xmlns:xlink="http://www.w3.org/1999/xlink"><defs><linearGradient gradientUnits="userSpaceOnUse" id="gradient_ice" x1="6.423" x2="61.423" y1="-3.497" y2="57.503"><stop offset="0" stop-color="#fff200"/><stop offset="1" stop-color="#cd118c"/></linearGradient></defs><g id="target-financial-business-finance"><path d="M62,7V5H59V2H57V5.586L49.066,13.52a28.046,28.046,0,1,0,1.414,1.414L58.414,7ZM56,34a26.042,26.042,0,1,1-8.348-19.066L43.4,19.191a20.077,20.077,0,1,0,1.414,1.414l4.257-4.257A25.9,25.9,0,0,1,56,34ZM37,34a7.028,7.028,0,1,1-2.816-5.6L31,31.586V30H29v5h5V33H32.414L35.6,29.816A6.953,6.953,0,0,1,37,34Zm-1.389-7.025a9.023,9.023,0,1,0,1.414,1.414l6.37-6.37a18.07,18.07,0,1,1-1.414-1.414Z" style="fill:url(#gradient_ice)"/></g></svg>