<?xml version="1.0" ?><svg viewBox="0 0 64 64" xmlns="http://www.w3.org/2000/svg" xmlns:xlink="http://www.w3.org/1999/xlink"><defs><linearGradient gradientUnits="userSpaceOnUse" id="gradient_ice" x1="-9.51" x2="50.49" y1="18.106" y2="80.106"><stop offset="0" stop-color="#fff200"/><stop offset="1" stop-color="#cd118c"/></linearGradient><linearGradient id="gradient_ice-2" x1="-16.356" x2="43.644" xlink:href="#gradient_ice" y1="24.732" y2="86.732"/><linearGradient id="gradient_ice-3" x1="-11.359" x2="48.641" xlink:href="#gradient_ice" y1="19.896" y2="81.896"/><linearGradient id="gradient_ice-4" x1="-6.362" x2="53.638" xlink:href="#gradient_ice" y1="15.06" y2="77.06"/><linearGradient id="gradient_ice-5" x1="-5.512" x2="54.488" xlink:href="#gradient_ice" y1="14.238" y2="76.238"/><linearGradient id="gradient_ice-6" x1="-0.515" x2="59.485" xlink:href="#gradient_ice" y1="9.401" y2="71.401"/><linearGradient id="gradient_ice-7" x1="4.483" x2="64.483" xlink:href="#gradient_ice" y1="4.565" y2="66.565"/><linearGradient id="gradient_ice-8" x1="9.48" x2="69.48" xlink:href="#gradient_ice" y1="-0.271" y2="61.729"/><linearGradient id="gradient_ice-9" x1="24.805" x2="84.805" xlink:href="#gradient_ice" y1="-15.102" y2="46.898"/><linearGradient id="gradient_ice-10" x1="19.808" x2="79.808" xlink:href="#gradient_ice" y1="-10.265" y2="51.735"/><linearGradient id="gradient_ice-11" x1="-0.348" x2="59.652" xlink:href="#gradient_ice" y1="9.24" y2="71.24"/><linearGradient id="gradient_ice-12" x1="4.649" x2="64.649" xlink:href="#gradient_ice" y1="4.404" y2="66.404"/><linearGradient id="gradient_ice-13" x1="9.646" x2="69.646" xlink:href="#gradient_ice" y1="-0.432" y2="61.568"/><linearGradient id="gradient_ice-14" x1="4.816" x2="64.816" xlink:href="#gradient_ice" y1="4.243" y2="66.243"/><linearGradient id="gradient_ice-15" x1="9.813" x2="69.813" xlink:href="#gradient_ice" y1="-0.593" y2="61.407"/><linearGradient id="gradient_ice-16" x1="14.81" x2="74.81" xlink:href="#gradient_ice" y1="-5.429" y2="56.571"/><linearGradient id="gradient_ice-17" x1="-10.676" x2="49.324" xlink:href="#gradient_ice" y1="19.235" y2="81.235"/><linearGradient id="gradient_ice-18" x1="-5.679" x2="54.321" xlink:href="#gradient_ice" y1="14.399" y2="76.399"/></defs><g id="chart-financial-business-finance"><polygon points="53 60 53 59 51 59 51 60 43 60 43 59 41 59 41 60 33 60 33 59 31 59 31 60 23 60 23 59 21 59 21 60 12 60 12 59 10 59 10 60 4 60 4 54 5 54 5 52 4 52 4 44 5 44 5 42 4 42 4 34 5 34 5 32 4 32 4 24 5 24 5 22 4 22 4 14 5 14 5 12 4 12 4 2 2 2 2 62 62 62 62 60 53 60" style="fill:url(#gradient_ice)"/><path d="M15,49H7v8h8Zm-2,6H9V51h4Z" style="fill:url(#gradient_ice-2)"/><path d="M15,39H7v8h8Zm-2,6H9V41h4Z" style="fill:url(#gradient_ice-3)"/><path d="M15,29H7v8h8Zm-2,6H9V31h4Z" style="fill:url(#gradient_ice-4)"/><path d="M36,49H28v8h8Zm-2,6H30V51h4Z" style="fill:url(#gradient_ice-5)"/><path d="M36,39H28v8h8Zm-2,6H30V41h4Z" style="fill:url(#gradient_ice-6)"/><path d="M36,29H28v8h8Zm-2,6H30V31h4Z" style="fill:url(#gradient_ice-7)"/><path d="M36,19H28v8h8Zm-2,6H30V21h4Z" style="fill:url(#gradient_ice-8)"/><path d="M56,9H48v8h8Zm-2,6H50V11h4Z" style="fill:url(#gradient_ice-9)"/><path d="M56,19H48v8h8Zm-2,6H50V21h4Z" style="fill:url(#gradient_ice-10)"/><path d="M46,49H38v8h8Zm-2,6H40V51h4Z" style="fill:url(#gradient_ice-11)"/><path d="M46,39H38v8h8Zm-2,6H40V41h4Z" style="fill:url(#gradient_ice-12)"/><path d="M46,29H38v8h8Zm-2,6H40V31h4Z" style="fill:url(#gradient_ice-13)"/><path d="M56,49H48v8h8Zm-2,6H50V51h4Z" style="fill:url(#gradient_ice-14)"/><path d="M56,39H48v8h8Zm-2,6H50V41h4Z" style="fill:url(#gradient_ice-15)"/><path d="M56,29H48v8h8Zm-2,6H50V31h4Z" style="fill:url(#gradient_ice-16)"/><path d="M26,49H18v8h8Zm-2,6H20V51h4Z" style="fill:url(#gradient_ice-17)"/><path d="M26,39H18v8h8Zm-2,6H20V41h4Z" style="fill:url(#gradient_ice-18)"/></g></svg>