<?xml version="1.0" ?><svg viewBox="0 0 64 64" xmlns="http://www.w3.org/2000/svg" xmlns:xlink="http://www.w3.org/1999/xlink"><defs><linearGradient gradientUnits="userSpaceOnUse" id="gradient_ice" x1="4.927" x2="57.927" y1="5.862" y2="64.862"><stop offset="0" stop-color="#fff200"/><stop offset="1" stop-color="#cd118c"/></linearGradient><linearGradient id="gradient_ice-2" x1="4.43" x2="57.43" xlink:href="#gradient_ice" y1="6.309" y2="65.309"/></defs><g id="money-chart-business-finance"><path d="M42,10V6H39V2H25V6H22v4H11V62H53V10ZM27,4H37V6H27ZM24,8H40v4H24ZM51,60H13V12h9v2H42V12h9Z" style="fill:url(#gradient_ice)"/><path d="M17,56H47V18H17Zm2-36H45V54H19Z" style="fill:url(#gradient_ice-2)"/><polygon points="33 23 31 23 31 25 24 25 24 38 25 38 38 38 38 47 26 47 26 46 24 46 24 49 31 49 31 51 33 51 33 49 40 49 40 36 39 36 26 36 26 27 38 27 38 28 40 28 40 25 33 25 33 23" style="fill:url(#gradient_ice-2)"/></g></svg>