<?xml version="1.0" ?><svg viewBox="0 0 64 64" xmlns="http://www.w3.org/2000/svg" xmlns:xlink="http://www.w3.org/1999/xlink"><defs><linearGradient gradientUnits="userSpaceOnUse" id="gradient_ice" x1="1.246" x2="64.246" y1="0.758" y2="64.758"><stop offset="0" stop-color="#fff200"/><stop offset="1" stop-color="#cd118c"/></linearGradient><linearGradient id="gradient_ice-2" x1="3.246" x2="66.246" xlink:href="#gradient_ice" y1="-1.211" y2="62.789"/><linearGradient id="gradient_ice-3" x1="-10.253" x2="52.747" xlink:href="#gradient_ice" y1="12.077" y2="76.077"/></defs><g data-name="us sign-mobile-financial-business-finance" id="us_sign-mobile-financial-business-finance"><path d="M48,2H16a3,3,0,0,0-3,3V59a3,3,0,0,0,3,3H48a3,3,0,0,0,3-3V5A3,3,0,0,0,48,2Zm1,57a1,1,0,0,1-1,1H16a1,1,0,0,1-1-1V5a1,1,0,0,1,1-1H48a1,1,0,0,1,1,1Z" style="fill:url(#gradient_ice)"/><path d="M44,6H20a3,3,0,0,0-3,3V47a3,3,0,0,0,3,3H44a3,3,0,0,0,3-3V9A3,3,0,0,0,44,6Zm1,41a1,1,0,0,1-1,1H20a1,1,0,0,1-1-1V9a1,1,0,0,1,1-1H44a1,1,0,0,1,1,1Z" style="fill:url(#gradient_ice-2)"/><path d="M34,52H30a2,2,0,0,0-2,2v2a2,2,0,0,0,2,2h4a2,2,0,0,0,2-2V54A2,2,0,0,0,34,52Zm-4,4V54h4v2Z" style="fill:url(#gradient_ice-3)"/><polygon points="33 13 31 13 31 15 24 15 24 29 25 29 38 29 38 39 26 39 26 38 24 38 24 41 31 41 31 43 33 43 33 41 40 41 40 27 39 27 26 27 26 17 38 17 38 18 40 18 40 15 33 15 33 13" style="fill:url(#gradient_ice-2)"/></g></svg>