<?xml version="1.0" ?><svg viewBox="0 0 64 64" xmlns="http://www.w3.org/2000/svg" xmlns:xlink="http://www.w3.org/1999/xlink"><defs><linearGradient gradientUnits="userSpaceOnUse" id="gradient_ice" x1="-9.773" x2="48.227" y1="14.82" y2="76.82"><stop offset="0" stop-color="#fff200"/><stop offset="1" stop-color="#cd118c"/></linearGradient><linearGradient id="gradient_ice-2" x1="21.567" x2="79.567" xlink:href="#gradient_ice" y1="-14.498" y2="47.502"/><linearGradient id="gradient_ice-3" x1="23.339" x2="81.339" xlink:href="#gradient_ice" y1="-16.155" y2="45.845"/><linearGradient id="gradient_ice-4" x1="12.002" x2="70.002" xlink:href="#gradient_ice" y1="-5.55" y2="56.45"/><linearGradient id="gradient_ice-5" x1="10.006" x2="68.006" xlink:href="#gradient_ice" y1="-3.683" y2="58.317"/><linearGradient id="gradient_ice-6" x1="9.937" x2="67.937" xlink:href="#gradient_ice" y1="-3.619" y2="58.381"/><linearGradient id="gradient_ice-7" x1="12.07" x2="70.07" xlink:href="#gradient_ice" y1="-5.614" y2="56.386"/><linearGradient id="gradient_ice-8" x1="6.806" x2="64.806" xlink:href="#gradient_ice" y1="-0.69" y2="61.31"/><linearGradient id="gradient_ice-9" x1="4.811" x2="62.811" xlink:href="#gradient_ice" y1="1.177" y2="63.177"/><linearGradient id="gradient_ice-10" x1="4.742" x2="62.742" xlink:href="#gradient_ice" y1="1.241" y2="63.241"/><linearGradient id="gradient_ice-11" x1="6.875" x2="64.875" xlink:href="#gradient_ice" y1="-0.754" y2="61.246"/><linearGradient id="gradient_ice-12" x1="0.613" x2="58.613" xlink:href="#gradient_ice" y1="5.104" y2="67.104"/><linearGradient id="gradient_ice-13" x1="-1.382" x2="56.618" xlink:href="#gradient_ice" y1="6.971" y2="68.971"/><linearGradient id="gradient_ice-14" x1="-1.451" x2="56.549" xlink:href="#gradient_ice" y1="7.035" y2="69.035"/><linearGradient id="gradient_ice-15" x1="0.682" x2="58.682" xlink:href="#gradient_ice" y1="5.039" y2="67.039"/></defs><g data-name="reward-performance-business-finance" id="reward-performance-business-finance-4"><path d="M17,20A15.017,15.017,0,0,0,2,35V57.8l20,4.445V55h1c1.991,0,5-1.6,5-4V47h4V35A15,15,0,0,0,17,20ZM30,45H26v6c0,.966-1.761,2-3,2H20v6.753L4,56.2V35a13,13,0,1,1,26,0Z" style="fill:url(#gradient_ice)"/><path d="M58,4V2H40V4H36V8a12.939,12.939,0,0,0,4.751,10.04A9.418,9.418,0,0,0,46,23.421V26H41v5H57V26H52V23.421a9.421,9.421,0,0,0,5.249-5.381A12.936,12.936,0,0,0,62,8V4ZM38,8V6h2v8.11c0,.078,0,.156,0,.233A10.961,10.961,0,0,1,38,8ZM55,28v1H43V28Zm-7-2V23.938a8.063,8.063,0,0,0,2,0V26Zm2.729-4.243a6.135,6.135,0,0,1-3.222.05c-.077-.019-.155-.027-.231-.048A7.366,7.366,0,0,1,42.521,17.1,8.827,8.827,0,0,1,42,14.11V4H56V6H48V8h8v6.11c0,.281-.016.559-.042.836A8.876,8.876,0,0,1,55.48,17.1,7.363,7.363,0,0,1,50.729,21.757ZM60,8a10.961,10.961,0,0,1-2,6.343c0-.077,0-.155,0-.233V6h2Z" style="fill:url(#gradient_ice-2)"/><rect height="2" style="fill:url(#gradient_ice-3)" width="2" x="44" y="6"/><rect height="2" style="fill:url(#gradient_ice-4)" width="2" x="48" y="33"/><rect height="2" style="fill:url(#gradient_ice-5)" width="2" x="48" y="37"/><rect height="2" style="fill:url(#gradient_ice-6)" width="2" x="46" y="35"/><rect height="2" style="fill:url(#gradient_ice-7)" width="2" x="50" y="35"/><rect height="2" style="fill:url(#gradient_ice-8)" width="2" x="42" y="37"/><rect height="2" style="fill:url(#gradient_ice-9)" width="2" x="42" y="41"/><rect height="2" style="fill:url(#gradient_ice-10)" width="2" x="40" y="39"/><rect height="2" style="fill:url(#gradient_ice-11)" width="2" x="44" y="39"/><rect height="2" style="fill:url(#gradient_ice-12)" width="2" x="36" y="43"/><rect height="2" style="fill:url(#gradient_ice-13)" width="2" x="36" y="47"/><rect height="2" style="fill:url(#gradient_ice-14)" width="2" x="34" y="45"/><rect height="2" style="fill:url(#gradient_ice-15)" width="2" x="38" y="45"/></g></svg>