<?xml version="1.0" ?><svg viewBox="0 0 64 64" xmlns="http://www.w3.org/2000/svg" xmlns:xlink="http://www.w3.org/1999/xlink"><defs><linearGradient gradientUnits="userSpaceOnUse" id="gradient_ice" x1="5.579" x2="64.579" y1="8.452" y2="63.452"><stop offset="0" stop-color="#fff200"/><stop offset="1" stop-color="#cd118c"/></linearGradient><linearGradient id="gradient_ice-2" x1="4.601" x2="63.601" xlink:href="#gradient_ice" y1="9.501" y2="64.501"/><linearGradient id="gradient_ice-3" x1="12.125" x2="71.125" xlink:href="#gradient_ice" y1="1.43" y2="56.43"/><linearGradient id="gradient_ice-4" x1="7.15" x2="66.15" xlink:href="#gradient_ice" y1="6.767" y2="61.767"/></defs><g data-name="chart-financial-business-finance" id="chart-financial-business-finance-4"><path d="M58,43V12a2,2,0,0,0-2-2H8a2,2,0,0,0-2,2V43H2v7a3,3,0,0,0,3,3H59a3,3,0,0,0,3-3V43ZM8,12H56V43H8ZM40.719,45l-.5,2H23.781l-.5-2ZM60,50a1,1,0,0,1-1,1H5a1,1,0,0,1-1-1V45H21.219l1,4H41.781l1-4H60Z" style="fill:url(#gradient_ice)"/><polygon points="12 13 9 13 9 17 11 17 11 15 12 15 12 13" style="fill:url(#gradient_ice-2)"/><polygon points="52 42 55 42 55 38 53 38 53 40 52 40 52 42" style="fill:url(#gradient_ice-3)"/><path d="M30,39H52V37H50V19H42V37H38V25H30V37H26V31H18v6H14V17H12V39H30ZM44,21h4V37H44ZM32,27h4V37H32ZM20,37V33h4v4Z" style="fill:url(#gradient_ice-4)"/></g></svg>