<?xml version="1.0" ?><svg viewBox="0 0 64 64" xmlns="http://www.w3.org/2000/svg" xmlns:xlink="http://www.w3.org/1999/xlink"><defs><linearGradient gradientUnits="userSpaceOnUse" id="gradient_ice" x1="4.335" x2="58.335" y1="0.749" y2="56.749"><stop offset="0" stop-color="#fff200"/><stop offset="1" stop-color="#cd118c"/></linearGradient><linearGradient id="gradient_ice-2" x1="9.551" x2="63.551" xlink:href="#gradient_ice" y1="-4.281" y2="51.719"/><linearGradient id="gradient_ice-3" x1="4.369" x2="58.369" xlink:href="#gradient_ice" y1="0.716" y2="56.716"/><linearGradient id="gradient_ice-4" x1="14.732" x2="68.732" xlink:href="#gradient_ice" y1="-9.278" y2="46.722"/></defs><g data-name="us sign-financial-business-finance" id="us_sign-financial-business-finance"><path d="M49,19A17,17,0,1,0,29,35.719V39H28V59a3,3,0,0,0,3,3h2a3,3,0,0,0,3-3V39H35V35.719A17.016,17.016,0,0,0,49,19ZM17,19A15,15,0,1,1,32,34,15.017,15.017,0,0,1,17,19ZM34,59a1,1,0,0,1-1,1H31a1,1,0,0,1-1-1V41h4ZM33,39H31V35.949c.333.02.662.051,1,.051s.667-.031,1-.051Z" style="fill:url(#gradient_ice)"/><polygon points="33 30 33 28 38 28 38 18 28 18 28 12 38 12 38 10 33 10 33 8 31 8 31 10 26 10 26 20 36 20 36 26 26 26 26 28 31 28 31 30 33 30" style="fill:url(#gradient_ice-2)"/><rect height="2" style="fill:url(#gradient_ice-3)" width="2" x="21" y="18"/><rect height="2" style="fill:url(#gradient_ice-4)" width="2" x="41" y="18"/></g></svg>