<?xml version="1.0" ?><svg viewBox="0 0 64 64" xmlns="http://www.w3.org/2000/svg" xmlns:xlink="http://www.w3.org/1999/xlink"><defs><linearGradient gradientUnits="userSpaceOnUse" id="gradient_ice" x1="-0.243" x2="65.757" y1="0.243" y2="66.243"><stop offset="0" stop-color="#fff200"/><stop offset="1" stop-color="#cd118c"/></linearGradient><linearGradient id="gradient_ice-2" x1="10" x2="76" xlink:href="#gradient_ice" y1="-10" y2="56"/><linearGradient id="gradient_ice-3" x1="8" x2="74" xlink:href="#gradient_ice" y1="-8" y2="58"/><linearGradient id="gradient_ice-6" x1="22" x2="88" xlink:href="#gradient_ice" y1="-22" y2="44"/><linearGradient id="gradient_ice-7" x1="20" x2="86" xlink:href="#gradient_ice" y1="-20" y2="46"/><linearGradient id="gradient_ice-10" x1="-2" x2="64" xlink:href="#gradient_ice" y1="2" y2="68"/><linearGradient id="gradient_ice-11" x1="-4" x2="62" xlink:href="#gradient_ice" y1="4" y2="70"/><linearGradient id="gradient_ice-14" x1="19.5" x2="85.5" xlink:href="#gradient_ice" y1="-19.5" y2="46.5"/><linearGradient id="gradient_ice-15" x1="17.5" x2="83.5" xlink:href="#gradient_ice" y1="-17.5" y2="48.5"/><linearGradient id="gradient_ice-18" x1="6.5" x2="72.5" xlink:href="#gradient_ice" y1="-6.5" y2="59.5"/><linearGradient id="gradient_ice-19" x1="4.5" x2="70.5" xlink:href="#gradient_ice" y1="-4.5" y2="61.5"/></defs><g id="dimond-financial-business-finance"><path d="M56.554,19H7.446L2,27.713V40.525l30,20.69,30-20.69V27.713ZM59.2,27H47.618l-3-6H55.446ZM16.062,29V39H4V29ZM46,29V39H18.062V29ZM18.669,27l2.953-6h20.76l3,6ZM44.936,41,32,57.384,19.121,41ZM16.577,41,28.853,56.615,6.211,41Zm30.908,0h10.3L35.169,56.6ZM48,39V29H60V39ZM8.554,21H19.393L16.44,27H4.8Z" style="fill:url(#gradient_ice)"/><rect height="2" style="fill:url(#gradient_ice-2)" width="2" x="31" y="11"/><rect height="2" style="fill:url(#gradient_ice-3)" width="2" x="31" y="15"/><rect height="2" style="fill:url(#gradient_ice-3)" width="2" x="29" y="13"/><rect height="2" style="fill:url(#gradient_ice-2)" width="2" x="33" y="13"/><rect height="2" style="fill:url(#gradient_ice-6)" width="2" x="55" y="11"/><rect height="2" style="fill:url(#gradient_ice-7)" width="2" x="55" y="15"/><rect height="2" style="fill:url(#gradient_ice-7)" width="2" x="53" y="13"/><rect height="2" style="fill:url(#gradient_ice-6)" width="2" x="57" y="13"/><rect height="2" style="fill:url(#gradient_ice-10)" width="2" x="7" y="11"/><rect height="2" style="fill:url(#gradient_ice-11)" width="2" x="7" y="15"/><rect height="2" style="fill:url(#gradient_ice-11)" width="2" x="5" y="13"/><rect height="2" style="fill:url(#gradient_ice-10)" width="2" x="9" y="13"/><rect height="2" style="fill:url(#gradient_ice-14)" width="2" x="44" y="5"/><rect height="2" style="fill:url(#gradient_ice-15)" width="2" x="44" y="9"/><rect height="2" style="fill:url(#gradient_ice-15)" width="2" x="42" y="7"/><rect height="2" style="fill:url(#gradient_ice-14)" width="2" x="46" y="7"/><rect height="2" style="fill:url(#gradient_ice-18)" width="2" x="18" y="5"/><rect height="2" style="fill:url(#gradient_ice-19)" width="2" x="18" y="9"/><rect height="2" style="fill:url(#gradient_ice-19)" width="2" x="16" y="7"/><rect height="2" style="fill:url(#gradient_ice-18)" width="2" x="20" y="7"/></g></svg>