<?xml version="1.0" ?><svg viewBox="0 0 64 64" xmlns="http://www.w3.org/2000/svg" xmlns:xlink="http://www.w3.org/1999/xlink"><defs><linearGradient gradientUnits="userSpaceOnUse" id="gradient_ice" x1="0.261" x2="65.261" y1="1.726" y2="63.726"><stop offset="0" stop-color="#fff200"/><stop offset="1" stop-color="#cd118c"/></linearGradient><linearGradient id="gradient_ice-3" x1="-4.026" x2="60.974" xlink:href="#gradient_ice" y1="6.221" y2="68.221"/><linearGradient id="gradient_ice-4" x1="4.549" x2="69.549" xlink:href="#gradient_ice" y1="-2.769" y2="59.231"/><linearGradient id="gradient_ice-5" x1="0.757" x2="65.757" xlink:href="#gradient_ice" y1="1.207" y2="63.207"/><linearGradient id="gradient_ice-6" x1="-22.863" x2="42.137" xlink:href="#gradient_ice" y1="25.969" y2="87.969"/><linearGradient id="gradient_ice-7" x1="-0.234" x2="64.766" xlink:href="#gradient_ice" y1="2.246" y2="64.246"/><linearGradient id="gradient_ice-8" x1="23.385" x2="88.385" xlink:href="#gradient_ice" y1="-22.517" y2="39.483"/><linearGradient id="gradient_ice-9" x1="13.13" x2="78.13" xlink:href="#gradient_ice" y1="-11.765" y2="50.235"/><linearGradient id="gradient_ice-10" x1="-12.137" x2="52.863" xlink:href="#gradient_ice" y1="14.724" y2="76.724"/><linearGradient id="gradient_ice-11" x1="-12.607" x2="52.393" xlink:href="#gradient_ice" y1="15.217" y2="77.217"/><linearGradient id="gradient_ice-12" x1="12.659" x2="77.659" xlink:href="#gradient_ice" y1="-11.272" y2="50.728"/></defs><g data-name="money-target-financial-business-finance" id="money-target-financial-business-finance-2"><path d="M32,19A13,13,0,1,0,45,32,13.015,13.015,0,0,0,32,19Zm0,24A11,11,0,1,1,43,32,11.013,11.013,0,0,1,32,43Z" style="fill:url(#gradient_ice)"/><polygon points="33 23 31 23 31 25 27 25 27 33 35 33 35 37 29 37 29 36 27 36 27 39 31 39 31 41 33 41 33 39 37 39 37 31 29 31 29 27 35 27 35 28 37 28 37 25 33 25 33 23" style="fill:url(#gradient_ice)"/><rect height="2" style="fill:url(#gradient_ice-3)" width="2" x="22" y="31"/><rect height="2" style="fill:url(#gradient_ice-4)" width="2" x="40" y="31"/><polygon points="5 16 7 16 7 7 16 7 16 5 5 5 5 16" style="fill:url(#gradient_ice-5)"/><polygon points="7 48 5 48 5 59 16 59 16 57 7 57 7 48" style="fill:url(#gradient_ice-6)"/><polygon points="57 57 48 57 48 59 59 59 59 48 57 48 57 57" style="fill:url(#gradient_ice-7)"/><polygon points="57 16 59 16 59 5 48 5 48 7 57 7 57 16" style="fill:url(#gradient_ice-8)"/><path d="M37.477,2H26.523L32,15.692ZM34.523,4,32,10.308,29.477,4Z" style="fill:url(#gradient_ice-9)"/><path d="M2,26.523V37.477L15.692,32Zm2,2.954L10.308,32,4,34.523Z" style="fill:url(#gradient_ice-10)"/><path d="M26.523,62H37.477L32,48.308Zm2.954-2L32,53.692,34.523,60Z" style="fill:url(#gradient_ice-11)"/><path d="M48.308,32,62,37.477V26.523ZM60,34.523,53.692,32,60,29.477Z" style="fill:url(#gradient_ice-12)"/></g></svg>