<?xml version="1.0" ?><!DOCTYPE svg  PUBLIC '-//W3C//DTD SVG 1.1//EN'  'http://www.w3.org/Graphics/SVG/1.1/DTD/svg11.dtd'><svg enable-background="new 0 0 100 100" height="100px" id="Calque_1" version="1.1" viewBox="0 0 100 100" width="100px" xml:space="preserve" xmlns="http://www.w3.org/2000/svg" xmlns:xlink="http://www.w3.org/1999/xlink"><g><path d="M94.95,62.98l-1.26-7.131c-0.061-0.35-0.351-0.619-0.71-0.659L86.55,54.47l2.59-5.93   c0.15-0.33,0.061-0.72-0.22-0.95l-5.55-4.66c-0.271-0.23-0.67-0.25-0.97-0.05l-5.391,3.58l-1.83-6.21   c-0.1-0.33-0.399-0.56-0.739-0.58V10.94c0-4-3.221-7.26-7.2-7.34V3.55c0-1.15-0.94-2.09-2.09-2.09h-8.24   c-0.561,0-1.09,0.22-1.48,0.62C55.04,2.47,54.82,3,54.82,3.55V3.6h-40.3c-4.05,0-7.35,3.29-7.35,7.34v4.02H7.13   c-1.15,0-2.09,0.93-2.09,2.08v8.24c0,0.57,0.22,1.09,0.61,1.48c0.4,0.4,0.92,0.61,1.48,0.61h0.04v1.51H7.13   c-1.15,0-2.09,0.93-2.09,2.09v8.24c0,0.56,0.22,1.08,0.61,1.47c0.4,0.4,0.92,0.61,1.48,0.61h0.04v49.9c0,4.05,3.3,7.35,7.35,7.35   h52.57c4.05,0,7.351-3.3,7.351-7.35v-4.46l0.189,0.25c0.15,0.22,0.4,0.329,0.65,0.329c0.09,0,0.189-0.01,0.279-0.04l6.801-2.479   c0.34-0.12,0.56-0.46,0.529-0.82l-0.399-6.46l6.29,1.53c0.06,0.01,0.12,0.02,0.189,0.02c0.28,0,0.55-0.149,0.7-0.409l3.62-6.271   c0.18-0.31,0.13-0.7-0.11-0.96l-4.47-4.689l5.8-2.881C94.83,63.69,95.01,63.34,94.95,62.98z M52.43,48.54l2.59,5.93l-6.43,0.721   c-0.36,0.04-0.65,0.31-0.71,0.659l-1.26,7.131c-0.06,0.359,0.11,0.71,0.44,0.869l5.8,2.881l-4.47,4.689   c-0.24,0.26-0.29,0.65-0.11,0.96L51.9,78.65c0.149,0.26,0.42,0.409,0.699,0.409c0.07,0,0.131-0.01,0.19-0.02l6.29-1.53l-0.41,6.46   c-0.02,0.36,0.2,0.69,0.54,0.82l6.8,2.479c0.09,0.03,0.19,0.04,0.28,0.04c0.25,0,0.5-0.109,0.65-0.329l0.319-0.431v1.49H14.34   V14.09h52.93v25.58H67.16c-0.36,0-0.67,0.24-0.771,0.58l-1.83,6.21l-5.39-3.58c-0.3-0.2-0.7-0.18-0.97,0.05l-5.55,4.66   C52.37,47.82,52.28,48.21,52.43,48.54z M44.67,95.46c0,0.45-0.36,0.81-0.81,0.81h-6.11c-0.45,0-0.81-0.359-0.81-0.81v-4.14   c0-0.44,0.36-0.811,0.81-0.811h6.11c0.45,0,0.81,0.37,0.81,0.811V95.46z M18.28,6.59c1.23,0,2.23,1,2.23,2.23s-1,2.23-2.23,2.23   c-1.24,0-2.24-1-2.24-2.23S17.05,6.59,18.28,6.59z M87.41,65.56c-0.01,0.011-0.021,0.021-0.04,0.03   c-0.03,0.021-0.061,0.03-0.09,0.061c-0.03,0.02-0.04,0.04-0.061,0.05l-0.06,0.06c-0.021,0.021-0.03,0.04-0.05,0.061   c-0.011,0.02-0.03,0.04-0.04,0.06c-0.021,0.03-0.03,0.061-0.04,0.08C87.02,65.98,87.01,66,87,66.03c-0.01,0.04-0.02,0.08-0.03,0.12   c0,0.01,0,0.02-0.01,0.029c-0.02,0.16-0.05,0.32-0.08,0.48v0.06c-0.01,0.03-0.01,0.061-0.01,0.09v0.08   c0.01,0.03,0.01,0.051,0.01,0.08c0.01,0.021,0.01,0.05,0.021,0.07c0.01,0.03,0.02,0.06,0.029,0.08c0.011,0.02,0.021,0.05,0.03,0.07   c0.01,0.02,0.021,0.05,0.04,0.069c0.02,0.021,0.03,0.05,0.05,0.07c0.021,0.01,0.03,0.03,0.04,0.05l4.49,4.71l-3.01,5.23l-6.34-1.53   c-0.011-0.01-0.03-0.01-0.051-0.01c-0.029-0.011-0.06-0.011-0.1-0.021c-0.021,0-0.05,0.01-0.07,0.01h-0.08   c-0.029,0.011-0.05,0.011-0.08,0.021c-0.02,0.01-0.05,0.01-0.08,0.02c-0.02,0.011-0.039,0.021-0.069,0.03   c-0.021,0.01-0.05,0.021-0.07,0.04c-0.02,0.01-0.05,0.03-0.07,0.05c-0.02,0.011-0.04,0.021-0.05,0.03   c-0.12,0.11-0.24,0.21-0.37,0.31l-0.02,0.021l-0.04,0.04c-0.021,0.02-0.04,0.04-0.061,0.06c-0.02,0.03-0.039,0.051-0.05,0.07   c-0.01,0.021-0.029,0.04-0.04,0.06c-0.02,0.03-0.029,0.051-0.04,0.08c-0.01,0.021-0.02,0.04-0.02,0.07   c-0.01,0.021-0.021,0.05-0.021,0.08c-0.01,0.02-0.02,0.04-0.02,0.07v0.09c0,0.02-0.01,0.04,0,0.06l0.4,6.5l-5.66,2.061l-3.87-5.24   c-0.021-0.03-0.04-0.05-0.061-0.08c-0.02-0.01-0.02-0.02-0.029-0.03c-0.03-0.029-0.061-0.05-0.091-0.069   C71.5,80.1,71.49,80.09,71.48,80.08c-0.03-0.01-0.061-0.03-0.091-0.04c-0.02-0.01-0.029-0.021-0.05-0.03   C71.31,80,71.28,80,71.25,79.99c-0.02-0.01-0.04-0.01-0.07-0.021c-0.029,0-0.06,0-0.09-0.01h-0.55c-0.04,0-0.08,0-0.12,0.01h-0.03   c-0.22,0.03-0.42,0.16-0.54,0.34L66,85.54l-5.67-2.07l0.41-6.5V76.82c-0.01-0.021-0.01-0.051-0.021-0.07   c-0.01-0.03-0.01-0.05-0.02-0.08s-0.021-0.05-0.03-0.07c-0.01-0.02-0.02-0.05-0.03-0.069c-0.02-0.03-0.029-0.05-0.04-0.07   c-0.02-0.02-0.029-0.04-0.05-0.06c-0.02-0.021-0.04-0.051-0.06-0.07c-0.021-0.01-0.03-0.021-0.04-0.04   c-0.141-0.1-0.271-0.21-0.4-0.32c-0.01-0.02-0.03-0.029-0.05-0.04c-0.02-0.02-0.04-0.04-0.07-0.05c-0.02-0.01-0.05-0.02-0.069-0.03   c-0.021-0.02-0.051-0.029-0.07-0.04c-0.03-0.01-0.05-0.01-0.07-0.02c-0.029,0-0.06-0.01-0.09-0.01   c-0.02-0.011-0.04-0.011-0.07-0.011H59.48c-0.03,0-0.061,0.011-0.08,0.011c-0.021,0-0.051,0-0.07,0.01L53,77.32L49.98,72.1   l4.5-4.72c0.01-0.01,0.02-0.03,0.029-0.04c0.021-0.03,0.04-0.05,0.061-0.08c0.01-0.02,0.02-0.04,0.04-0.06   c0.01-0.03,0.02-0.05,0.029-0.07c0.011-0.03,0.021-0.06,0.021-0.08c0.01-0.03,0.02-0.05,0.03-0.08v-0.08   c0.01-0.02,0.01-0.05,0.01-0.069c0-0.03,0-0.061-0.01-0.09V66.67c-0.04-0.16-0.07-0.32-0.091-0.479V66.17   c-0.01-0.05-0.02-0.1-0.04-0.14c0-0.021-0.01-0.03-0.02-0.05c-0.01-0.03-0.021-0.07-0.04-0.101c-0.01-0.01-0.02-0.03-0.03-0.04   c-0.02-0.03-0.04-0.06-0.069-0.09c-0.011-0.01-0.021-0.02-0.03-0.03c-0.021-0.02-0.05-0.05-0.08-0.069   c-0.021-0.021-0.04-0.03-0.06-0.04c-0.021-0.021-0.04-0.03-0.07-0.04l-5.84-2.9l1.05-5.939l6.479-0.721V56   c0.051,0,0.101-0.01,0.141-0.03c0.01,0,0.02,0,0.04-0.01c0.029-0.01,0.069-0.03,0.1-0.05c0.01,0,0.021,0,0.03-0.01   c0.04-0.021,0.07-0.04,0.109-0.07c0.011-0.01,0.021-0.021,0.021-0.03c0.03-0.02,0.06-0.05,0.08-0.08c0.01-0.01,0.02-0.01,0.02-0.02   c0.03-0.03,0.051-0.07,0.07-0.11c0.09-0.149,0.17-0.29,0.26-0.439c0.011-0.021,0.011-0.03,0.021-0.051   c0.02-0.029,0.029-0.06,0.04-0.08c0.01-0.029,0.02-0.05,0.02-0.079c0.01-0.021,0.021-0.051,0.021-0.07   c0.01-0.03,0.01-0.061,0.01-0.08v-0.08c0-0.03,0-0.06-0.01-0.08c0-0.02,0-0.05-0.011-0.08c-0.01-0.03-0.02-0.06-0.029-0.08   c0-0.02-0.011-0.04-0.011-0.06l-2.609-5.97l4.62-3.87l5.42,3.6c0.04,0.03,0.08,0.05,0.13,0.07c0,0,0.01,0.01,0.02,0.01   c0.04,0.01,0.08,0.03,0.12,0.04h0.03c0.05,0.01,0.1,0.02,0.15,0.02c0.06,0,0.109-0.01,0.159-0.02c0.021,0,0.04-0.01,0.061-0.02   c0.03,0,0.05-0.01,0.08-0.02c0.149-0.06,0.31-0.12,0.47-0.17c0.021-0.01,0.03-0.02,0.04-0.02c0.03-0.02,0.07-0.03,0.1-0.05   c0.021-0.01,0.04-0.02,0.061-0.03c0.02-0.02,0.04-0.04,0.07-0.06c0.02-0.01,0.029-0.03,0.05-0.05c0.02-0.02,0.04-0.04,0.05-0.06   c0.02-0.02,0.03-0.04,0.05-0.06c0.01-0.03,0.03-0.05,0.04-0.07c0.01-0.03,0.021-0.06,0.04-0.09c0-0.02,0.01-0.03,0.021-0.05   l1.829-6.25h0.301c0.01,0,0.01,0,0.01,0h5.72l1.84,6.25c0.03,0.09,0.07,0.18,0.12,0.25c0.01,0.01,0.021,0.02,0.03,0.03   c0.02,0.03,0.04,0.06,0.07,0.08c0.01,0.01,0.02,0.02,0.04,0.03c0.02,0.02,0.05,0.04,0.08,0.06C75.99,48,76,48.01,76.02,48.02   c0.04,0.02,0.08,0.04,0.12,0.05l0.011,0.01c0.159,0.05,0.319,0.11,0.479,0.17c0.03,0.02,0.07,0.02,0.101,0.03   c0.02,0.01,0.02,0.01,0.039,0.01c0.051,0.01,0.101,0.02,0.15,0.02s0.1-0.01,0.15-0.02c0.02,0,0.029,0,0.04-0.01   c0.04-0.01,0.069-0.02,0.1-0.03c0.021,0,0.03-0.01,0.04-0.01c0.05-0.02,0.09-0.04,0.13-0.07l5.42-3.6l4.62,3.87l-2.61,5.97   c-0.01,0.02-0.02,0.04-0.02,0.06c-0.01,0.03-0.021,0.05-0.03,0.08s-0.01,0.061-0.01,0.08c0,0.03-0.01,0.05-0.01,0.08v0.08   c0.01,0.02,0.01,0.05,0.01,0.08c0,0.02,0.01,0.05,0.02,0.07c0.011,0.029,0.011,0.05,0.021,0.079c0.01,0.03,0.03,0.061,0.04,0.091   c0.01,0.01,0.02,0.029,0.03,0.04c0.08,0.149,0.17,0.3,0.25,0.439c0.02,0.04,0.04,0.08,0.069,0.11c0.011,0.01,0.011,0.01,0.021,0.02   c0.02,0.03,0.05,0.061,0.08,0.08c0.01,0.01,0.02,0.021,0.02,0.03c0.04,0.03,0.08,0.05,0.12,0.07c0,0.01,0.01,0.01,0.021,0.02   c0.029,0.021,0.069,0.03,0.109,0.04c0.01,0.01,0.021,0.01,0.03,0.021c0.05,0.01,0.1,0.02,0.14,0.029h0.011l6.47,0.721l1.05,5.939   L87.41,65.56z" fill="#010101"/><path d="M70.78,50.42c-7.2,0-13.061,5.87-13.061,13.07c0,7.21,5.86,13.069,13.061,13.069   c7.21,0,13.069-5.859,13.069-13.069C83.85,56.29,77.99,50.42,70.78,50.42z M80.89,64.07l-5.17,5.17   c-0.16,0.16-0.359,0.229-0.569,0.229s-0.42-0.069-0.57-0.229c-0.32-0.32-0.32-0.83,0-1.15l4.6-4.6l-4.6-4.601   c-0.32-0.31-0.32-0.83,0-1.14c0.31-0.32,0.83-0.32,1.14,0l5.17,5.17c0.16,0.15,0.24,0.36,0.24,0.57   C81.13,63.71,81.05,63.91,80.89,64.07z M60.44,63.49c0-0.21,0.079-0.42,0.229-0.57l5.18-5.17c0.311-0.32,0.83-0.32,1.141,0   c0.319,0.31,0.319,0.83,0,1.14L62.39,63.49l4.601,4.6c0.319,0.32,0.319,0.83,0,1.15c-0.16,0.16-0.36,0.229-0.57,0.229   S66,69.4,65.85,69.24l-5.18-5.17C60.52,63.91,60.44,63.71,60.44,63.49z M68.23,71.17c-0.091,0-0.181-0.01-0.28-0.05   c-0.42-0.15-0.63-0.62-0.48-1.04l5.101-13.74c0.16-0.42,0.63-0.64,1.05-0.479c0.42,0.159,0.63,0.62,0.47,1.04L69,70.65   C68.87,70.97,68.56,71.17,68.23,71.17z" fill="#010101"/></g></svg>