<?xml version="1.0" ?><!DOCTYPE svg  PUBLIC '-//W3C//DTD SVG 1.1//EN'  'http://www.w3.org/Graphics/SVG/1.1/DTD/svg11.dtd'><svg enable-background="new 0 0 100 100" height="100px" id="Calque_1" version="1.1" viewBox="0 0 100 100" width="100px" xml:space="preserve" xmlns="http://www.w3.org/2000/svg" xmlns:xlink="http://www.w3.org/1999/xlink"><path d="M76.14,5.89V5.85c0-1.1-0.89-1.99-1.979-1.99h-7.83c-0.54,0-1.04,0.21-1.41,0.58  c-0.37,0.38-0.58,0.88-0.58,1.41v0.04H26.02c-3.85,0-6.98,3.13-6.98,6.98v3.82H19c-1.1,0-1.99,0.89-1.99,1.98v7.83  c0,0.54,0.21,1.04,0.59,1.41c0.37,0.37,0.87,0.58,1.4,0.58h0.04v1.43H19c-1.1,0-1.99,0.89-1.99,1.99v7.83c0,0.53,0.21,1.03,0.59,1.4  c0.37,0.38,0.87,0.58,1.4,0.58h0.04v47.44c0,3.85,3.13,6.979,6.98,6.979H76c3.85,0,6.98-3.13,6.98-6.979V12.87  C82.99,9.07,79.93,5.96,76.14,5.89z M54.69,93.22c0,0.42-0.341,0.771-0.771,0.771h-5.81c-0.43,0-0.77-0.351-0.77-0.771V89.28  c0-0.42,0.34-0.771,0.77-0.771h5.81c0.43,0,0.771,0.351,0.771,0.771V93.22z M29.6,8.73c1.17,0,2.12,0.95,2.12,2.12  s-0.95,2.12-2.12,2.12s-2.12-0.95-2.12-2.12S28.43,8.73,29.6,8.73z M76.17,15.87v70.29H25.86V15.87H76.17z" fill="#010101"/></svg>