<?xml version="1.0" ?><svg viewBox="0 0 43.31 43.3" xmlns="http://www.w3.org/2000/svg"><defs><style>.cls-1{fill:#f6921e;}</style></defs><title/><g data-name="Layer 2" id="Layer_2"><g data-name="Layer 1" id="Layer_1-2"><path class="cls-1" d="M35.61,7.69a11,11,0,1,0,0,15.61A11,11,0,0,0,35.61,7.69ZM34.2,21.88a9,9,0,1,1,0-12.78A9,9,0,0,1,34.2,21.88Z"/><path class="cls-1" d="M38.77,4.53A15.49,15.49,0,0,0,13.71,21.87h0L.29,35.28a1,1,0,0,0,0,1.41L6.6,43A1,1,0,0,0,8,43l13.4-13.4h0A15.49,15.49,0,0,0,38.77,4.53ZM19.3,28.89l-12,12L2.41,36l12-12,2.44,2.44h0ZM37.35,25a13.5,13.5,0,0,1-19.08,0h0a13.5,13.5,0,1,1,19.09,0Z"/></g></g></svg>