<?xml version="1.0" ?><svg enable-background="new 0 0 52 52" id="Layer_1" version="1.1" viewBox="0 0 52 52" xml:space="preserve" xmlns="http://www.w3.org/2000/svg" xmlns:xlink="http://www.w3.org/1999/xlink"><g><g><path d="M49.9922028,7.7399292l-0.039978-1.1799316l-1.1500244,0.2399902    c-1.4899902,0.2900391-3.0499878,0.4399414-4.6699829,0.4399414c-9.3300171,0-17.6699829-5.0200195-17.75-5.0799561    l-0.5299683-0.3199463l-0.5300293,0.3299561c-0.0800171,0.0499268-8.1699829,5.0699463-17.460022,5.0699463    c-1.4545288,0-2.8755493-0.1397705-4.2354126-0.380127l36.5582275,30.9903564    C50.4050446,24.1329956,49.9997711,7.9584351,49.9922028,7.7399292z" fill="#F93E2B"/></g><g><path d="M25.3722076,49.8899536l0.4800415,0.2700195l0.4899902-0.2700195    c5.3046875-2.9263916,9.4190063-6.5618896,12.612915-10.4610596L2.0049601,8.1061401    C1.9744425,11.524231,2.5147257,37.2850952,25.3722076,49.8899536z"/></g></g></svg>