<?xml version="1.0" ?><svg enable-background="new 0 0 52 52" id="Layer_1" version="1.1" viewBox="0 0 52 52" xml:space="preserve" xmlns="http://www.w3.org/2000/svg" xmlns:xlink="http://www.w3.org/1999/xlink"><g><path d="M38.0005493,20.9855042v-6.5648193c0-6.8486328-5.3828125-12.4199219-12-12.4199219s-12,5.5712891-12,12.4199219v6.5641479   C10.8296509,24.1609192,9,28.4996643,9,32.9992371c0,9.3800049,7.6300049,17,17,17s17-7.6199951,17-17   C43,28.495697,41.1675415,24.1532288,38.0005493,20.9855042z M16.0005493,14.4206848   c0-5.7451172,4.4863281-10.4199219,10-10.4199219s10,4.6748047,10,10.4199219v4.8339844   c-0.031311-0.022644-0.0644531-0.0419922-0.0958862-0.0644531c-0.1480103-0.1057739-0.2993164-0.2030029-0.4506836-0.3031006   c-0.1502686-0.1003418-0.2970581-0.2075806-0.4495239-0.3023682c-1.822998-1.1487427-3.8476563-1.9195557-5.9628906-2.3019409   C28.0444336,16.1016541,27.0285034,15.9992371,26,15.9992371c-1.4227295,0-2.822937,0.1866455-4.1776123,0.5297852   c-0.937561,0.2370605-1.8549194,0.5441895-2.7364502,0.9381714C18.3671265,17.7878723,17.670166,18.1591492,17,18.5792542   c-0.31604,0.2011108-0.6307983,0.4156494-0.9430542,0.6384888c-0.0184937,0.0133057-0.0379028,0.0244751-0.0563965,0.0379028   V14.4206848z M27.0005493,34.8577576v3.1430054h-2v-3.1426392C23.2776489,34.4125061,22,32.861908,22,30.9992371   c0-2.2000122,1.789978-4,4-4s4,1.7999878,4,4C30,32.8615417,28.7230225,34.4117126,27.0005493,34.8577576z"/></g></svg>