<?xml version="1.0" ?><!DOCTYPE svg  PUBLIC '-//W3C//DTD SVG 1.1//EN'  'http://www.w3.org/Graphics/SVG/1.1/DTD/svg11.dtd'><svg height="512px" style="enable-background:new 0 0 512 512;" version="1.1" viewBox="0 0 512 512" width="512px" xml:space="preserve" xmlns="http://www.w3.org/2000/svg" xmlns:xlink="http://www.w3.org/1999/xlink"><g id="twitter__x2C__social__x2C__media__x2C__icons_x2C_"><g><g><path d="M124.062,22.189h263.569     c56.244,0,102.176,45.938,102.176,102.18v263.255c0,56.258-45.932,102.192-102.176,102.192H124.062     c-55.938,0-102.176-45.935-102.176-102.192V124.369C21.886,68.127,68.124,22.189,124.062,22.189L124.062,22.189z" style="fill-rule:evenodd;clip-rule:evenodd;fill:#D0E8F8;"/></g><g><path d="M400.572,255.996c0,79.816-64.781,144.593-144.586,144.593     c-79.796,0-144.582-64.776-144.582-144.593c0-79.799,64.786-144.585,144.582-144.585     C335.791,111.411,400.572,176.197,400.572,255.996L400.572,255.996z" style="fill-rule:evenodd;clip-rule:evenodd;fill:#FEFEFE;"/></g><g><path d="M405.588,255.996c0,82.755-66.857,149.893-149.602,149.893     c-82.741,0-149.879-67.138-149.879-149.893c0-82.744,67.138-149.879,149.879-149.879     C338.73,106.117,405.588,173.252,405.588,255.996L405.588,255.996z" style="fill-rule:evenodd;clip-rule:evenodd;fill:#42BDED;"/></g><g><path d="M344.635,210.354c-6.492,2.952-13.553,4.717-20.92,5.601     c7.672-4.423,13.252-11.483,15.91-19.735c-6.781,4.122-14.732,7.071-22.971,8.545c-6.777-6.777-16.188-11.19-26.496-11.19     c-20.33,0-36.523,15.896-36.523,35.626c0,2.944,0.304,5.593,0.894,8.251c-30.332-1.471-57.135-15.612-75.093-37.399     c-2.941,5.3-4.729,11.48-4.729,17.961c0,12.368,6.494,23.558,16.21,29.745c-6.184,0-11.784-1.764-16.493-4.423     c0,0.294,0,0.294,0,0.587c0,4.427,0.87,8.839,2.354,12.969c4.423,11.189,14.426,19.719,26.8,22.083     c-3.245,0.888-6.184,1.174-9.716,1.174c-2.354,0-4.423,0-6.774-0.587c4.706,14.429,17.958,24.735,33.861,25.029     c-12.378,9.429-27.981,15.309-45.068,15.309c-2.938,0-5.88-0.293-8.822-0.587c16.19,10.307,35.342,16.204,55.962,16.204     c56.828,0,91.867-39.465,100.998-80.4c1.768-7.357,2.643-14.425,2.643-21.499c0-1.765,0-3.235-0.287-4.706     C333.738,223.906,339.908,217.423,344.635,210.354L344.635,210.354z" style="fill-rule:evenodd;clip-rule:evenodd;fill:#FEFEFE;"/></g><g><path d="M124.062,16.006h8.542h51.821h10.307c3.249,0,6.188,2.651,6.188,6.184l0,0     c0,3.232-2.938,5.89-6.188,5.89h-10.307h-51.821h-8.542c-26.216,0-50.357,10.897-67.725,28.264     C38.97,73.721,28.073,97.866,28.073,124.369v71.267c0.587,0,1.177,0,1.764,0h10.006c3.246,0,5.901,2.646,5.901,5.88l0,0     c0,3.543-2.655,6.191-5.901,6.191H29.837c-0.587,0-1.177,0-1.764-0.294v180.211c0,2.364,0,4.723,0.283,6.78c0,0,0.304,0,0.587,0     h167.556c-17.65-7.657-33.561-18.558-47.112-31.81c-23.841-24.145-39.747-55.944-43.279-91.572H68.124     c-3.242,0-5.903-2.648-5.903-6.194l0,0c0-3.235,2.661-5.877,5.903-5.877h37.093c0-1.181,0-2.061,0-2.955     c0-16.78,2.938-32.98,7.955-48.289H65.469c-3.248,0-5.883-2.648-5.883-5.895l0,0c0-3.238,2.635-6.177,5.883-6.177h51.229     c0.307,0,0.59,0,1.177,0.294c7.672-17.381,18.265-33.274,31.513-46.525c13.552-13.245,29.462-24.148,47.112-31.807h-67.138     c-3.229,0-5.887-2.645-5.887-6.187l0,0c0-3.235,2.658-5.888,5.887-5.888h126.625c41.535,0,79.211,16.784,106.301,43.881     c27.391,27.384,44.176,65.076,44.176,106.592c0,41.522-16.785,79.219-44.176,106.599c-27.09,27.101-64.766,43.884-106.301,43.884     c-1.765,0-3.525,0-5.01,0c-0.588,0-0.871,0-1.175,0H29.837c3.836,19.139,13.252,35.922,26.5,49.177     c17.367,17.371,41.509,28.268,67.725,28.268h13.842h19.432h61.849c3.528,0,6.188,2.645,6.188,5.894l0,0     c0,3.529-2.659,6.178-6.188,6.178h-61.849h-19.432h-13.842c-29.741,0-56.828-12.071-76.267-31.804     c-19.722-19.718-31.793-46.818-31.793-76.566V124.369c0-29.738,12.071-56.835,31.793-76.564     C67.233,28.08,94.32,16.006,124.062,16.006L124.062,16.006z M328.141,483.923h-9.719c-3.25,0-5.885,2.645-5.885,5.894l0,0     c0,3.529,2.635,6.178,5.885,6.178h9.719c3.246,0,5.881-2.648,5.881-6.178l0,0C334.021,486.567,331.387,483.923,328.141,483.923     L328.141,483.923z M281.025,483.923h-31.224c-3.225,0-5.887,2.645-5.887,5.894l0,0c0,3.529,2.662,6.178,5.887,6.178h31.224     c3.535,0,6.189-2.648,6.189-6.178l0,0C287.215,486.567,284.561,483.923,281.025,483.923L281.025,483.923z M357.885,483.923     h-5.295c-3.25,0-5.904,2.645-5.904,5.894l0,0c0,3.529,2.654,6.178,5.904,6.178h5.295h26.498h3.248     c29.725,0,56.832-12.071,76.553-31.804c19.439-19.718,31.814-46.818,31.814-76.566V124.369c0-29.738-12.375-56.835-31.814-76.564     c-18.852-18.544-44.174-30.625-72.15-31.799c-0.287,0-0.588,0-0.873,0h-3.529H376.43H264.531c-3.248,0-5.887,2.651-5.887,6.184     l0,0c0,3.232,2.639,5.89,5.887,5.89H376.43h11.201c26.496,0,50.338,10.897,68.008,28.264     c17.367,17.377,28.268,41.522,28.268,68.025v263.255c0,26.513-10.9,50.654-28.268,68.031     c-17.67,17.371-41.512,28.268-68.008,28.268h-3.248H357.885z M223.606,16.006h15.016c3.222,0,5.884,2.651,5.884,6.184l0,0     c0,3.232-2.662,5.89-5.884,5.89h-15.016c-3.249,0-5.904-2.658-5.904-5.89l0,0C217.702,18.657,220.357,16.006,223.606,16.006     L223.606,16.006z M47.512,258.951H39.56c-3.248,0-5.887,2.642-5.887,5.877l0,0c0,3.546,2.639,6.194,5.887,6.194h7.952     c3.225,0,5.883-2.648,5.883-6.194l0,0C53.395,261.593,50.736,258.951,47.512,258.951L47.512,258.951z M99.026,105.523H81.659     c-3.229,0-6.188,2.652-6.188,5.888l0,0c0,3.542,2.959,6.187,6.188,6.187h17.367c3.553,0,6.19-2.645,6.19-6.187l0,0     C105.217,108.176,102.579,105.523,99.026,105.523L99.026,105.523z M353.766,353.763c25.02-25.025,40.619-59.483,40.619-97.767     c0-38.276-15.6-72.728-40.619-97.757c-25.035-25.335-59.488-40.642-97.779-40.642c-38.284,0-73.025,15.307-98.058,40.642     c-25.018,25.029-40.338,59.48-40.338,97.757c0,38.283,15.32,72.741,40.338,97.767c25.032,25.333,59.773,40.642,98.058,40.642     C294.277,394.404,328.73,379.096,353.766,353.763L353.766,353.763z" style="fill:#42BDED;"/></g></g></g><g id="Layer_1"/></svg>