<?xml version="1.0" ?><!DOCTYPE svg  PUBLIC '-//W3C//DTD SVG 1.1//EN'  'http://www.w3.org/Graphics/SVG/1.1/DTD/svg11.dtd'><svg height="512px" style="enable-background:new 0 0 512 512;" version="1.1" viewBox="0 0 512 512" width="512px" xml:space="preserve" xmlns="http://www.w3.org/2000/svg" xmlns:xlink="http://www.w3.org/1999/xlink"><g id="google__x2C__plus__x2C__icons__x2C__social__x2C_media"><g><g><path d="M124.087,22.192h263.54     c56.248,0,102.189,45.935,102.189,102.179v263.264c0,56.241-45.941,102.176-102.189,102.176h-263.54     c-56.248,0-102.183-45.935-102.183-102.176V124.371C21.904,68.127,67.839,22.192,124.087,22.192L124.087,22.192z" style="fill-rule:evenodd;clip-rule:evenodd;fill:#F4C7B9;"/></g><g><path d="M400.295,256.002c0,79.801-64.486,144.588-144.284,144.588     c-80.109,0-144.585-64.787-144.585-144.588c0-79.802,64.476-144.589,144.585-144.589     C335.809,111.413,400.295,176.2,400.295,256.002L400.295,256.002z" style="fill-rule:evenodd;clip-rule:evenodd;fill:#FEFEFE;"/></g><g><path d="M405.591,256.002c0,82.75-66.841,149.891-149.58,149.891     c-82.754,0-149.896-67.141-149.896-149.891c0-82.744,67.141-149.882,149.896-149.882     C338.75,106.12,405.591,173.258,405.591,256.002L405.591,256.002z" style="fill-rule:evenodd;clip-rule:evenodd;fill:#E52B33;"/></g><g><path d="M319.619,253.058c-1.188,0-2.068,0-3.249,0     c0,0,0-0.297,0-0.588c0-0.884,0-1.471,0-2.061c0-4.123,0-8.249,0-12.364c0-0.891-0.881-2.064-1.174-2.064     c-3.836,0-7.658,0-11.48,0c0,5.006,0,9.716,0,14.429c0,0.884,0,1.764,0,2.648c-5.891,0-11.487,0-17.371,0     c0,1.474,0,2.354,0,3.238c0.28,2.941,0.28,6.182,0.587,9.131c2.936,0.293,5.884,0.293,9.119,0.293c2.361,0.301,5.003,0,7.665,0     c0,6.19,0,11.48,0,17.084c4.416,0,8.231,0,12.654,0c0-5.604,0-11.193,0-17.084c5.883,0,11.187,0,16.783,0c0-3.242,0-6.19,0-9.424     c0-1.178,0-2.058,0-3.238C328.737,253.058,324.328,253.058,319.619,253.058L319.619,253.058z M270.729,251.883     c-10.6,0-21.495,0-32.095,0c-3.235,0-6.184,0-9.429,0c-0.587,0-1.467,0.587-1.467,1.175c-0.297,6.18-0.297,12.369-0.297,18.853     c9.132,0,17.671,0,26.496,0c-0.283,1.175-0.587,2.062-0.87,3.235c-4.129,11.774-16.494,17.671-29.745,15.597     c-16.497-2.642-26.51-17.951-23.555-34.446c0.287-2.352,0.874-4.413,2.048-6.474c5.307-12.081,18.848-19.436,32.1-16.494     c4.72,1.174,8.846,3.239,12.375,6.481c4.709-4.717,9.419-9.423,14.427-14.433c-0.294-0.297-0.888-0.594-1.174-1.181     c-11.779-9.72-25.041-13.248-40.057-10.894c-21.483,3.539-36.803,20.612-40.331,40.349c-1.485,8.239-0.897,17.372,2.641,25.91     c8.252,21.193,29.151,33.861,51.832,31.506c10.894-1.467,20.899-5.296,28.563-13.548c11.187-12.067,14.135-26.496,12.367-42.694     C274.264,252.173,273.083,251.586,270.729,251.883L270.729,251.883z" style="fill-rule:evenodd;clip-rule:evenodd;fill:#FEFEFE;"/></g><g><path d="M124.087,16.005h8.539h51.818h10.306c3.252,0,6.191,2.655,6.191,6.187l0,0     c0,3.235-2.938,5.884-6.191,5.884h-10.306h-51.818h-8.539c-26.51,0-50.361,10.893-67.728,28.274     C38.685,73.73,28.084,97.868,28.084,124.371v71.271c0.59,0,0.88,0,1.468,0h10.013c3.529,0,6.184,2.648,6.184,5.884l0,0     c0,3.543-2.655,6.188-6.184,6.188H29.552c-0.587,0-0.877,0-1.468-0.297v180.219c0,2.354,0,4.717,0.293,6.771h0.297h167.843     c-17.671-7.657-33.567-18.551-47.112-31.799c-23.862-24.148-39.748-55.955-43.29-91.583h-37.99c-3.235,0-5.887-2.655-5.887-6.184     l0,0c0-3.235,2.652-5.896,5.887-5.896h37.11c0-1.178,0-2.062,0-2.942c0-16.78,2.648-32.979,7.952-47.996H65.478     c-3.239,0-5.894-2.938-5.894-6.19l0,0c0-3.235,2.655-6.174,5.894-6.174h51.241c0.297,0,0.587,0,1.178,0.294     c7.364-17.381,18.261-33.277,31.509-46.535c13.545-13.252,29.441-24.146,47.112-31.796H129.38c-3.249,0-5.887-2.655-5.887-6.191     l0,0c0-3.234,2.638-5.894,5.887-5.894h126.631c41.507,0,79.21,16.794,106.3,43.881c27.391,27.39,44.167,65.076,44.167,106.602     c0,41.518-16.776,79.214-44.167,106.604c-27.09,27.083-64.793,43.873-106.3,43.873c-1.768,0-3.542,0-5.307,0     c-0.293,0-0.59,0-0.884,0H29.849c3.826,19.146,13.245,35.922,26.51,49.177c17.367,17.371,41.218,28.271,67.728,28.271h13.835     h19.439h61.834c3.235,0,6.187,2.647,6.187,5.883l0,0c0,3.543-2.952,6.185-6.187,6.185h-61.834h-19.439h-13.835     c-29.745,0-56.835-12.067-76.273-31.8C28.084,444.463,16,417.373,16,387.635V124.371C16,94.63,28.084,67.54,47.813,47.808     C67.252,28.076,94.342,16.005,124.087,16.005L124.087,16.005z M327.857,483.928h-9.426c-3.235,0-6.178,2.647-6.178,5.883l0,0     c0,3.543,2.942,6.185,6.178,6.185h9.426c3.535,0,6.19-2.642,6.19-6.185l0,0C334.048,486.575,331.393,483.928,327.857,483.928     L327.857,483.928z M281.035,483.928h-31.214c-3.246,0-5.887,2.647-5.887,5.883l0,0c0,3.543,2.642,6.185,5.887,6.185h31.214     c3.242,0,6.177-2.642,6.177-6.185l0,0C287.212,486.575,284.277,483.928,281.035,483.928L281.035,483.928z M357.896,483.928     h-5.304c-3.242,0-5.883,2.647-5.883,5.883l0,0c0,3.543,2.641,6.185,5.883,6.185h5.304h26.503h3.229     c29.752,0,56.835-12.067,76.574-31.8C483.646,444.463,496,417.373,496,387.635V124.371c0-29.741-12.354-56.831-31.799-76.563     c-18.846-18.544-44.167-30.629-72.145-31.803c-0.301,0-0.594,0-1.181,0h-3.249h-11.18H264.552c-3.249,0-6.186,2.655-6.186,6.187     l0,0c0,3.235,2.937,5.884,6.186,5.884h111.896h11.18c26.51,0,50.364,10.893,67.729,28.274     c17.671,17.381,28.291,41.519,28.291,68.021v263.264c0,26.503-10.62,50.651-28.291,68.021     c-17.364,17.371-41.219,28.271-67.729,28.271h-3.229H357.896z M223.608,16.005h14.729c3.529,0,6.184,2.655,6.184,6.187l0,0     c0,3.235-2.655,5.884-6.184,5.884h-14.729c-3.229,0-5.883-2.648-5.883-5.884l0,0C217.725,18.66,220.379,16.005,223.608,16.005     L223.608,16.005z M47.227,258.944h-7.662c-3.232,0-6.177,2.66-6.177,5.896l0,0c0,3.528,2.945,6.184,6.177,6.184h7.662     c3.532,0,6.18-2.655,6.18-6.184l0,0C53.407,261.604,50.758,258.944,47.227,258.944L47.227,258.944z M99.044,105.52H81.678     c-3.532,0-6.188,2.659-6.188,5.894l0,0c0,3.536,2.655,6.191,6.188,6.191h17.367c3.252,0,6.191-2.655,6.191-6.191l0,0     C105.235,108.179,102.297,105.52,99.044,105.52L99.044,105.52z M353.766,354.061c25.036-25.322,40.639-59.77,40.639-98.059     c0-38.276-15.603-72.73-40.639-97.767c-25.028-25.322-59.77-40.631-97.754-40.631c-38.287,0-73.035,15.309-98.063,40.631     c-25.036,25.036-40.642,59.49-40.642,97.767c0,38.289,15.606,72.736,40.642,98.059c25.029,25.029,59.777,40.345,98.063,40.345     C293.996,394.405,328.737,379.09,353.766,354.061L353.766,354.061z" style="fill:#E52B33;"/></g></g></g><g id="Layer_1"/></svg>