<?xml version="1.0" ?><!DOCTYPE svg  PUBLIC '-//W3C//DTD SVG 1.1//EN'  'http://www.w3.org/Graphics/SVG/1.1/DTD/svg11.dtd'><svg height="512px" style="enable-background:new 0 0 512 512;" version="1.1" viewBox="0 0 512 512" width="512px" xml:space="preserve" xmlns="http://www.w3.org/2000/svg" xmlns:xlink="http://www.w3.org/1999/xlink"><g id="apple_._mac__x2C_iphone_x2C__logo"><g><g><path d="M124.087,22.189h263.54     c56.248,0,102.189,45.938,102.189,102.18v263.255c0,56.258-45.941,102.192-102.189,102.192h-263.54     c-56.248,0-102.183-45.935-102.183-102.192V124.369C21.904,68.127,67.839,22.189,124.087,22.189L124.087,22.189z" style="fill-rule:evenodd;clip-rule:evenodd;fill:#E5E6E7;"/></g><g><path d="M400.295,255.996c0,79.816-64.486,144.593-144.284,144.593     c-80.109,0-144.585-64.776-144.585-144.593c0-79.799,64.476-144.585,144.585-144.585     C335.809,111.411,400.295,176.197,400.295,255.996L400.295,255.996z" style="fill-rule:evenodd;clip-rule:evenodd;fill:#FEFEFE;"/></g><g><path d="M405.591,255.996c0,82.755-67.134,149.893-149.58,149.893     c-82.754,0-149.896-67.138-149.896-149.893c0-82.744,67.141-149.879,149.896-149.879     C338.457,106.117,405.591,173.252,405.591,255.996L405.591,255.996z" style="fill-rule:evenodd;clip-rule:evenodd;fill:#A9ABAD;"/></g><g><path d="M281.622,195.93c5.896-7.365,10.02-17.968,8.839-28.274     c-8.546,0.294-19.146,5.894-25.623,13.552c-5.595,6.474-10.594,17.074-9.13,27.38     C265.418,209.471,275.445,203.588,281.622,195.93L281.622,195.93z" style="fill-rule:evenodd;clip-rule:evenodd;fill:#FEFEFE;"/></g><g><path d="M303.415,261.89c0-7.071,1.769-12.954,4.123-17.674     c5.59-10.6,14.135-15.6,14.715-15.896c-10.306-15.31-26.202-17.381-31.792-17.671c-13.549-1.475-26.496,7.955-33.579,7.955     c-6.768,0-17.367-7.665-28.554-7.665c-15.03,0.3-28.561,8.846-36.232,22.388c-2.348,4.125-4.116,8.538-5.296,13.255     c-6.467,25.909,3.839,57.422,16.497,75.966c7.365,10.894,15.9,22.978,27.394,22.685c11.177-0.598,15.296-7.368,28.554-7.368     c13.54,0,17.082,7.368,28.862,7.074c11.768-0.304,19.433-10.896,26.797-21.797c8.245-12.668,11.78-24.735,12.067-25.329     C326.683,297.812,303.716,288.687,303.415,261.89L303.415,261.89z" style="fill-rule:evenodd;clip-rule:evenodd;fill:#FEFEFE;"/></g><g><path d="M124.087,16.006h8.539h51.818h10.306c3.252,0,6.191,2.651,6.191,6.184l0,0     c0,3.232-2.938,5.89-6.191,5.89h-10.306h-51.818h-8.539c-26.51,0-50.361,10.897-67.728,28.264     c-17.674,17.377-28.274,41.522-28.274,68.025v71.267c0.59,0,0.88,0,1.468,0h10.013c3.529,0,6.184,2.646,6.184,5.88l0,0     c0,3.543-2.655,6.191-6.184,6.191H29.552c-0.587,0-0.877,0-1.468-0.294v180.211c0,2.364,0,4.723,0.293,6.78h0.297h167.843     c-17.671-7.657-33.567-18.558-47.112-31.81c-23.862-24.145-39.748-55.944-43.29-91.572h-37.99c-3.235,0-5.887-2.648-5.887-6.194     l0,0c0-3.235,2.652-5.877,5.887-5.877h37.11c0-1.181,0-2.061,0-2.955c0-16.78,2.648-32.98,7.952-48.289H65.478     c-3.239,0-5.894-2.648-5.894-5.895l0,0c0-3.238,2.655-6.177,5.894-6.177h51.241c0.297,0,0.587,0,1.178,0.294     c7.364-17.381,18.261-33.274,31.509-46.525c13.545-13.245,29.441-24.148,47.112-31.807H129.38c-3.249,0-5.887-2.645-5.887-6.187     l0,0c0-3.235,2.638-5.888,5.887-5.888h126.631c41.507,0,79.21,16.784,106.3,43.881c27.391,27.384,44.167,65.076,44.167,106.592     c0,41.522-16.776,79.219-44.167,106.599c-27.09,27.101-64.793,43.884-106.3,43.884c-1.768,0-3.542,0-5.307,0     c-0.293,0-0.59,0-0.884,0H29.849c3.826,19.139,13.245,35.922,26.51,49.177c17.367,17.371,41.218,28.268,67.728,28.268h13.835     h19.439h61.834c3.235,0,6.187,2.645,6.187,5.894l0,0c0,3.529-2.952,6.178-6.187,6.178h-61.834h-19.439h-13.835     c-29.745,0-56.835-12.071-76.273-31.804C28.084,444.473,16,417.372,16,387.624V124.369c0-29.738,12.084-56.835,31.813-76.564     C67.252,28.08,94.342,16.006,124.087,16.006L124.087,16.006z M327.857,483.923h-9.426c-3.235,0-6.178,2.645-6.178,5.894l0,0     c0,3.529,2.942,6.178,6.178,6.178h9.426c3.535,0,6.19-2.648,6.19-6.178l0,0C334.048,486.567,331.393,483.923,327.857,483.923     L327.857,483.923z M281.035,483.923h-31.214c-3.246,0-5.887,2.645-5.887,5.894l0,0c0,3.529,2.642,6.178,5.887,6.178h31.214     c3.242,0,6.177-2.648,6.177-6.178l0,0C287.212,486.567,284.277,483.923,281.035,483.923L281.035,483.923z M357.896,483.923     h-5.304c-3.242,0-5.883,2.645-5.883,5.894l0,0c0,3.529,2.641,6.178,5.883,6.178h5.304h26.503h3.229     c29.752,0,56.835-12.071,76.574-31.804C483.646,444.473,496,417.372,496,387.624V124.369c0-29.738-12.354-56.835-31.799-76.564     c-18.846-18.544-44.167-30.625-72.145-31.799c-0.301,0-0.594,0-1.181,0h-3.249h-11.18H264.552c-3.249,0-6.186,2.651-6.186,6.184     l0,0c0,3.232,2.937,5.89,6.186,5.89h111.896h11.18c26.51,0,50.364,10.897,67.729,28.264     c17.671,17.377,28.291,41.522,28.291,68.025v263.255c0,26.513-10.62,50.654-28.291,68.031     c-17.364,17.371-41.219,28.268-67.729,28.268h-3.229H357.896z M223.608,16.006h14.729c3.529,0,6.184,2.651,6.184,6.184l0,0     c0,3.232-2.655,5.89-6.184,5.89h-14.729c-3.229,0-5.883-2.658-5.883-5.89l0,0C217.725,18.657,220.379,16.006,223.608,16.006     L223.608,16.006z M47.227,258.951h-7.662c-3.232,0-6.177,2.642-6.177,5.877l0,0c0,3.546,2.945,6.194,6.177,6.194h7.662     c3.532,0,6.18-2.648,6.18-6.194l0,0C53.407,261.593,50.758,258.951,47.227,258.951L47.227,258.951z M99.044,105.523H81.678     c-3.532,0-6.188,2.652-6.188,5.888l0,0c0,3.542,2.655,6.187,6.188,6.187h17.367c3.252,0,6.191-2.645,6.191-6.187l0,0     C105.235,108.176,102.297,105.523,99.044,105.523L99.044,105.523z M353.766,353.763c25.036-25.025,40.639-59.483,40.639-97.767     c0-38.276-15.603-72.728-40.639-97.757c-25.028-25.335-59.77-40.642-97.754-40.642c-38.287,0-73.035,15.307-98.063,40.642     c-25.036,25.029-40.642,59.48-40.642,97.757c0,38.283,15.606,72.741,40.642,97.767c25.029,25.333,59.777,40.642,98.063,40.642     C293.996,394.404,328.737,379.096,353.766,353.763L353.766,353.763z" style="fill:#A9ABAD;"/></g></g></g><g id="Layer_1"/></svg>