<?xml version="1.0" ?><svg id="Layer_1" style="enable-background:new 0 0 50 50;" version="1.1" viewBox="0 0 50 50" xml:space="preserve" xmlns="http://www.w3.org/2000/svg" xmlns:xlink="http://www.w3.org/1999/xlink"><style type="text/css">
	.st0{fill:#414042;}
</style><g><path class="st0" d="M45.8,39.2l1.5-1.3l-11.9-1l1.7-7c0,0,0.8-1.5-1.1-2.6c-1.9-1.2-4.3-3-4.3-3l-0.9,2.8l2.8,2.5   c0,0-1.7,3.2-1.7,7l-10.2-0.9l14.3-20.2c0,0,1.8-3.5-2.8-2.8c-4.7,0.8-12.3,5.5-14.5,7.9L3.7,11.8v1.8L19.9,23   c0,0,5.8-4.8,10.3-5.8L15.3,37.3l1.6,3l-13.3-3l-0.2,1.4l26.8,6l1.6-1.1l-13.6-3l2.4-3.4L45.8,39.2z"/><polygon class="st0" points="32.6,10.7 32.2,9.5 38.8,7.2 38.2,5.6 21.4,11.8 22.5,15.1  "/><circle class="st0" cx="39.8" cy="11.7" r="2.7"/></g></svg>