<?xml version="1.0" ?><svg id="Layer_1" style="enable-background:new 0 0 50 50;" version="1.1" viewBox="0 0 50 50" xml:space="preserve" xmlns="http://www.w3.org/2000/svg" xmlns:xlink="http://www.w3.org/1999/xlink"><style type="text/css">
	.st0{fill:#414042;}
</style><g><path class="st0" d="M23.5,11.3c-1.4,0-3.7,0.8-1.4,4c2.3,3.2,3.8,7.3,3.8,7.3s-3.2,2.9-4.5,4c-1.3,1.1-1.4,2-1.4,2   s-1.2,6.5-1.5,8.4l-4-3.4l4.1-7l3.8-2.6v-3.7l-6.8,3.4l-4.6,7L4.4,25l-1.8,0.4l24.6,21l1.5-0.6l-6.3-5.4l1.7-10.6c0,0,3.4-3,5-4.4   c1.6-1.3,1.1-2.1,0.8-3.8c-0.3-1.7-3-6-3-6c5.7,1.2,8.1,5.9,8.1,5.9l2.3-1.6C33.4,12.1,25,11.3,23.5,11.3z"/><path class="st0" d="M19.5,15.9l-0.3-3.7c-5,1.9-7.1,9.1-7.1,9.1l2,0.8C16.2,18,19.5,15.9,19.5,15.9z"/><ellipse class="st0" cx="20.2" cy="7.7" rx="2.7" ry="2.9"/></g><g><path class="st0" d="M30.2,41.3V35l14-18.6l0.2-0.2v-2l2-1.2v20.3L30.2,41.3z M32.2,35.7v2.5l12.2-6V19.5L32.2,35.7z"/></g></svg>