<?xml version="1.0" ?><svg id="Layer_1" style="enable-background:new 0 0 50 50;" version="1.1" viewBox="0 0 50 50" xml:space="preserve" xmlns="http://www.w3.org/2000/svg" xmlns:xlink="http://www.w3.org/1999/xlink"><style type="text/css">
	.st0{fill:#414042;}
</style><g><path class="st0" d="M2.8,10.4l0.8,3.5c0,0,15.6,9.9,23.5,17.9c0,0,16.7,8.1,16.9,8.1s3.7,1.1,2.8-2.9c-0.9-3.9-4.7-14.6-18-23   L28.6,19c0,0,8.8,5.4,12.8,15.2l-12.2-5.5C29.1,28.8,14.6,15.9,2.8,10.4z"/><polygon class="st0" points="7.7,26.1 7,27.3 21.9,34.4 23.7,33.7  "/><polygon class="st0" points="30.6,36.8 29.9,38.1 45.1,45.3 47,44.3  "/><circle class="st0" cx="15.7" cy="11.6" r="3.1"/><circle class="st0" cx="23.2" cy="14.4" r="3.1"/></g></svg>