<?xml version="1.0" ?><!DOCTYPE svg  PUBLIC '-//W3C//DTD SVG 1.1//EN'  'http://www.w3.org/Graphics/SVG/1.1/DTD/svg11.dtd'><svg height="512px" style="enable-background:new 0 0 512 512;" version="1.1" viewBox="0 0 512 512" width="512px" xml:space="preserve" xmlns="http://www.w3.org/2000/svg" xmlns:xlink="http://www.w3.org/1999/xlink"><g id="army_x2C__military_x2C__war_x2C__weapon__x2C_navy_x2C__aviation_x2C___submariine__x2C_"><g><path d="M474.532,276.049c-0.836-4.094-2.833-7.834-5.81-10.803c-4.084-4.084-9.489-6.377-15.245-6.377    l-153.945-0.477c-1.034-1.314-2.905-2.707-6.026-3.948l-1.916-22.494l-7.087-0.072v-13.294h-1.502v13.294h-2.159l0,0h-0.071    h-0.819v-20.759h-1.52v20.759h-3.201V214.43h-1.521v17.448l-12.79-0.071l0,0l0,0l0,0h-4.992l0,0l0,0l0,0l-8.463-0.072l0,0l0,0    l-16.865-0.063l-2.365,24.374c-3.049,0.692-5.675,1.376-7.744,2.077l-47.562-0.145c-21.253,0-69.912,11.766-89.168,16.604h-4.083    l-39.251-0.125c-1.727,0-3.103,1.654-3.103,3.732c0,2.076,1.376,3.813,3.103,3.813h8.311h2.779l-0.072,16.748l25.256,0.072    l4.794-12.125c0.126-0.342,0.467-0.621,0.81-0.621c0.072,0,0.153,0.082,0.225,0.082c0.54,0.135,51.645,12.799,93.153,12.934    l277.382,0.898l0.072,0.891v-0.891c11.854,0,21.541-9.615,21.541-21.451C474.677,277.641,474.605,276.867,474.532,276.049    L474.532,276.049z M101.291,269.33l-7.205-22.989l-20.219-0.055l-0.144,27.685h9.147C83.833,273.684,91.037,271.82,101.291,269.33    L101.291,269.33z" style="fill:#010101;"/></g></g><g id="Layer_1"/></svg>