<?xml version="1.0" ?><!DOCTYPE svg  PUBLIC '-//W3C//DTD SVG 1.1//EN'  'http://www.w3.org/Graphics/SVG/1.1/DTD/svg11.dtd'><svg height="512px" style="enable-background:new 0 0 512 512;" version="1.1" viewBox="0 0 512 512" width="512px" xml:space="preserve" xmlns="http://www.w3.org/2000/svg" xmlns:xlink="http://www.w3.org/1999/xlink"><g id="army_x2C__military_x2C__war_x2C__weapon__x2C_navy_x2C__aviation_x2C___ship__x2C__helicopter__x2C_"><g><path d="M223.754,279.088l233.359,0.756l0.071-20.004l-8.311-0.053l-9.084-15.857h-14.372l-0.091,15.775    h-8.922v7.762c0,0.613-0.558,1.17-1.169,1.17l0,0l-166.992-0.557l1.529-1.871c0.217-0.27,0.567-0.477,0.909-0.477l0,0    l161.153,0.549v-5.676l-4.299-9.957h-11.98c-0.54,0-1.044-0.495-1.115-1.044l-0.81-9.561l-29.843-0.063    c-0.63,0-1.188-0.558-1.188-1.178v-2.491l0,0v-0.271l0.072-7.069h-0.072v-3.598v-2.977l0.072-1.664h-0.072v-0.827h0.072v-1.386    l-1.457-7.411h-1.709c-0.162,0-0.233,0-0.342-0.135c-0.09-0.072-0.09-0.135-0.09-0.279v-2.635l-13.905-0.063l0,0l0,0h-1.528l0,0    h-1.313v7.536c0,0.216-0.216,0.423-0.414,0.423l0,0h-1.942l0,0h-0.414v-7.132h-0.414l0,0l0,0l-7.555-0.063h-2.482v7.133h-1.188    l0.072-7.069h-0.414l0,0l0,0l-7.591-0.063h-2.447v7.133h-0.071v2.896v0.08h-1.602l0.072-37.245h-1.637l0,0l0,0l-30.257-0.135    l-9.75-0.081l-0.09,37.461h-0.071v4.29l-0.072,15.012c0,0.63-0.468,1.106-1.098,1.106h-8.927l0,0l-27.891-0.135l0,0l0,0    l-27.495-0.063l-5.388,28.439c-0.144,0.559-0.566,0.9-1.106,0.9l0,0h-4.569c-0.27,0-0.62-0.127-0.836-0.342    c-0.198-0.207-0.271-0.477-0.271-0.756v-20.49l-12.321-0.071l-0.072,20.903c0,0.279-0.081,0.557-0.278,0.756    c-0.216,0.215-0.612,0.359-0.837,0.359l-16.055-0.072l-10.721,10.109l67.627,0.207L223.754,279.088z M56.848,264.068    c-2.141-1.25-4.209-2.492-6.35-3.814l0.692-1.582l0.045-0.072l4.228,2.078l-4.272-10.875l2.329-0.756    c2.365,4.228,4.722,8.445,7.088,12.664c3.517-0.342,7.061-0.684,10.577-1.033c7.402-0.693,14.805-1.395,22.225-2.078    c-0.145-0.756-0.288-1.529-0.414-2.349c1.718-1.942,6.296-1.395,9.471-1.942c1.476-0.207,3.338,0.135,4.075-0.836    c-14.382-0.558-27.738-0.558-42.22-0.558c-0.054-0.396-0.126-0.747-0.27-1.098c8.652,0.071,17.314,0.144,25.967,0.197    c4.227,0,8.437,0.082,12.664,0.082c0.422-0.208,0.764-0.424,1.178-0.63c0.692-0.136,1.457-0.207,2.141-0.342    c0.423-0.271,0.765-0.549,1.188-0.837c0.144,0,0.342,0,0.54,0c0.413,0,0.836,0,1.321,0.072c0.423,0.216,0.837,0.413,1.305,0.701    c0.566-0.071,1.106-0.071,1.744-0.144c0.549,0.278,1.106,0.549,1.655,0.827c1.521,0,3.05,0,4.569,0c11.413,0,22.846,0,34.259,0    c0.072,0.423,0.072,0.773,0.145,1.17c-12.809-0.126-25.553-0.207-38.334-0.342c-0.297,0.135-0.566,0.342-0.836,0.494l-3.4,0.207    l0.765,3.454c22.432-1.943,25.75,18.555,8.014,18.762c0.153,0.621,0.297,1.242,0.423,1.871c2.707-0.072,5.486-0.072,8.167-0.072    c4.569-2.348,5.756-0.342-0.198,1.457l-24.914-0.215c-0.297-0.9-0.413-1.512-0.765-2.348c-4.839-1.664-8.112-3.184-12.735-5.604    c-0.145-0.217-0.225-2.707-0.225-3.184c-2.411-1.188-4.839-2.357-7.178-3.535c-7.078,0-14.139,0-21.199,0    c2.284,1.395,4.649,2.77,6.935,4.084c-0.216,0.477-0.414,0.898-0.639,1.322c-2.141-1.188-4.281-2.43-6.494-3.607    c-0.639,1.943-1.25,3.885-1.871,5.738c-0.558,0.08-1.106,0.152-1.672,0.152C56.649,269.051,56.722,266.551,56.848,264.068    L56.848,264.068z M471.216,281.445v26.721l-21.172,22.424H58.322c-5.558-30.527-17.538-49.145-17.538-49.145    c244.575,0,139.833-0.207,430.432-0.207V281.445z M251.788,218.935l-14.391-0.063l-0.071,17.989l24.761,0.152L251.788,218.935z     M212.879,221.849v1.997h-3.931l-0.071,1.664l0,0v4.784l0,0l0,0v6.503l12.241,0.063v-13.015h-4.228v-7.753h-10.523v4.641h5.405    C212.394,220.733,212.879,221.219,212.879,221.849L212.879,221.849z" style="fill:#010101;"/></g></g><g id="Layer_1"/></svg>