<?xml version="1.0" ?><!DOCTYPE svg  PUBLIC '-//W3C//DTD SVG 1.1//EN'  'http://www.w3.org/Graphics/SVG/1.1/DTD/svg11.dtd'><svg height="512px" style="enable-background:new 0 0 512 512;" version="1.1" viewBox="0 0 512 512" width="512px" xml:space="preserve" xmlns="http://www.w3.org/2000/svg" xmlns:xlink="http://www.w3.org/1999/xlink"><g id="army_x2C__military_x2C__war_x2C__weapon__x2C_navy_x2C__aviation_x2C__gun__x2C__machine__x2C_"><g><path d="M37.222,217.836c0,2.068,1.043,3.741,2.212,3.741h0.207h4.371c0,0,2.761,0.342,4.29,3.732    c0.135,0,2.419,0.765,5.055,0.135c0.414,0,0.819,0,1.313,0h46.725c0.611,0.9,1.664,1.871,3.256,1.871c1.646,0,1.646,0,1.646,0    s0.216-1.602,1.332-1.602v-0.27h39.25c0.477,2.698,2.771,2.698,6.359,2.698c1.385,0,3.679,0.279,6.575,0.702    c5.478,0.755,13.716,1.861,23.475,1.861c13.77,0,22.701,1.034,28.098,3.247c1.25,0.558,2.492,0.63,3.598,0.63l0,0    c0.558,0,1.115,0,1.736,0c0.621-0.072,1.241-0.072,1.871-0.072c0.611,0,1.034-0.144,1.313-0.485    c0.135-0.136,0.27-0.279,0.351-0.414c1.178-0.144,1.861-0.63,2.285-1.241l0.404,0.071h0.072c0.288,0,9.345,0.478,20.219,1.026    l3.184,2.644c-0.135,1.584-0.836,8.707-5.262,18.268c-4.569,10.028-14.327,24.919-34.331,38.698l-0.135,0.071    c-0.423,0.468-0.153,0.899,0.477,2.069c0.423,0.701,1.043,1.673,1.799,2.914c1.313,2.068,3.121,4.965,5.469,8.58    c3.948,6.152,8.031,12.395,8.031,12.395l0.414,0.611l0.558-0.342c0.135-0.071,12.106-6.781,24.986-20.489    c10.937-11.639,24.5-30.742,29.978-57.181c0.818-0.071,2.077-0.071,2.688,0.63h0.288c0,2.698,0.27,5.469,1.79,6.089l0,0    c0,0,0.701,4.434,1.663,5.819c-0.063,0,1.116,0,1.116,0v-2.284c0,0-0.909-1.188,0-2.016l0.485-0.071v-1.367    c0.414-0.288,0.684-0.918,1.583,0.054c0,0.072,0.279,0.072,0.63,0.072c0.756,1.241,2.761,3.112,7.681,3.399    c2.006,0.055,3.877,0.207,5.685,0.27c3.318,0.207,6.431,0.414,9.614,0.414c0.621,0,1.179,0,1.791,0    c3.336-0.071,5.055-1.385,6.098-2.554c0.972,0.953,2.356,3.04,4.155,7.537c4.435,11.004,8.229,18.632,9.354,24.495    c1.16,5.828,0.612,7.825,9.75,6.926c9.129-0.972,12.179-7.537,11.972-10.577c-0.207-3.058-6.503-16.005-8.374-21.527    c-1.942-5.478-2.348-8.112-0.971-10.802c1.043-2.007,2.077-5.676,1.735-7.34h0.63l1.313-2.42c1.583,0.414,5.056,1.242,6.979,1.655    c0.558,0.071,0.98,0.216,1.395,0.288c0.414,2.482,4.848,4.137,11.558,6.638c2.078,0.836,4.425,1.727,6.845,2.698    c10.109,4.083,71.729,32.32,79.338,36.674c1.942,1.188,3.741,1.745,5.262,1.745c3.454,0,5.54-2.771,5.954-7.951    c0.414-8.742,7.195-39.049,7.951-42.017c0.422-1.745,0.701-3.058-0.054-4.235c-0.63-1.035-1.943-1.584-4.29-2.007    c-1.602-0.279-4.579-0.827-8.455-1.448c-16.748-2.985-47.903-8.391-55.989-9.488c-2.024-0.198-3.76-0.342-5.271-0.342    c-3.535,0-5.405,0.62-7.133,1.241c-1.043,0.351-1.942,0.62-3.12,0.756c-0.612,0.071-1.377,0.144-2.276,0.144    c-3.598,0-7.834-0.701-8.238-0.755c-0.621-0.145-10.245-2.43-13.429-3.185c-1.043-0.288-1.942-0.342-2.698-0.342    c-1.394,0-1.942,0.396-2.158,0.684l-0.136,0.135v0.278l0,0c-2.626-0.413-6.367-0.972-6.367-0.972l-2.482-0.898    c-0.207-4.354-5.396-7.816-6.926-8.239c0.063-0.126,0.135-0.341,0.135-0.549c0-1.52-4.021-7.617-9.21-7.617H234.438    c0-0.145,0-0.198,0-0.198l-1.241-0.918h-1.736v-0.125h5.126c0,0,0-2.636,0-3.607c0-0.899,0-1.169-0.971-1.169    c-1.448,0-2.491,2.348-2.491,2.348h-2.842c-0.207-0.972-0.971-1.728-1.871-1.728c-0.89,0-1.654,0.756-1.861,1.728h-0.486    c-2.626-2.141-6.863-0.612-6.863-0.612h-2.132l-0.558-0.566h-3.112c-1.808-2.563-3.391,0-3.391,0h-2.842v0.908h-0.836    c-0.27-0.342-0.684-0.629-1.376-0.629c-2.77,0-3.255,1.528-3.255,3.606c0,0.207,0,0.549,0,0.963    c-0.216-0.145-0.423-0.198-0.692-0.198c-0.279,0-0.549,0.054-0.765,0.27c0-0.413,0-0.692,0-0.827c0-0.899-0.072-1.313-1.242-1.313    c-0.414,0-0.701,0-0.971,0c-0.072,0-0.072-0.071-0.135-0.144c-0.414-0.485-1.178-0.692-2.491-0.692    c-1.664,0-11.504,0.207-21.875,0.342c-10.109,0.207-20.642,0.423-22.296,0.423c-1.106,0-2.006,0.342-2.635,0.899    c-0.342,0-0.818,0-1.241,0c-1.034,0-3.256,0.071-3.256,2.697v-0.413c0,0-25.535,0-35.86,0c-0.207,0-0.477,0-0.684,0    c-0.072,0-0.135,0-0.27,0c-0.144,0-0.288,0.072-0.423,0.072c-0.072,0-0.207,0-0.279,0.063c-0.135,0-0.288,0-0.342,0.072    c-0.135,0-0.216,0-0.288,0c-0.135,0.071-0.198,0.071-0.342,0.135c-0.063,0-0.135,0.071-0.207,0.071    c-0.135,0-0.27,0.063-0.405,0.145c-0.081,0-0.081,0-0.153,0.072c-0.198,0.054-0.342,0.126-0.477,0.206h-0.072    c-0.135,0.135-0.27,0.189-0.485,0.271c0,0.072-0.072,0.072-0.072,0.072c-0.135,0.063-0.27,0.206-0.342,0.27    c-0.072,0-0.072,0.08-0.135,0.08c-0.135,0.055-0.207,0.198-0.342,0.271l-0.081,0.072c-0.135,0.125-0.207,0.206-0.342,0.279    c0,0.063,0,0.063-0.072,0.134c-0.135,0.063-0.207,0.216-0.342,0.342l0,0c-2.141,2.356-3.265,5.819-5.541,8.167    c-0.548,0.63-1.178,1.106-1.943,1.528h-0.342v0.073c-1.448,0.755-3.049,1.106-4.982,1.106h-0.144v0.135    c-0.063,0-0.135,0.071-0.207,0.135H61.174v-2.213l-7.475-14.399c0.558-0.342,0.9-1.377,0.9-2.555c0-1.529-0.558-2.708-1.313-2.708    h-1.799h-0.072h-2.977H47.88h-1.376c-0.702,0-1.25,1.179-1.25,2.708c0,1.178,0.342,2.141,0.837,2.555h-0.216v0.207    c0.081,0,0.971,5.531,0.081,9.561c0,0,0,0-0.081,0c-0.207,0-0.621,0.071-0.684,0.071h-0.144v3.589    c0,0.207-1.169,2.915-2.905,2.915v0.27h-2.5h-0.207C38.265,214.157,37.222,215.82,37.222,217.836L37.222,217.836z M50.228,211.252    L50.228,211.252c-1.583,0-2.896-1.313-2.896-2.914c0-1.583,1.313-2.824,2.896-2.824h5.55l2.905,5.738H50.228z M137.04,210.208    L137.04,210.208l0.495,0.495l-0.972,3.454h-28.035v-1.449h-0.207v-1.456v-1.044h17.449H137.04z M231.749,207.996L231.749,207.996    L231.749,207.996h-8.733l0,0H231.749z M221.568,212.286L221.568,212.286h0.341v0.081    C221.837,212.286,221.703,212.286,221.568,212.286L221.568,212.286z M147.626,210.775L147.626,210.775L147.626,210.775h5.135    h0.072c3.112-0.909,5.945-1.395,8.787-1.395c2.978,0,5.262,0.558,7.061,0.899c1.106,0.288,2.006,0.495,2.77,0.495h7.124h0.081    c2.824-0.909,5.459-1.322,7.816-1.322c2.699,0,4.56,0.549,5.954,0.899c0.612,0.216,1.106,0.351,1.521,0.423    c-0.702,0.135-0.836,0.62-0.972,0.962c-0.135,0.413-0.279,0.899-2.285,0.899h-9.345c-0.765,0-0.828-0.144-0.899-0.27    c-0.207-0.692-0.629-1.115-1.871-1.115h-11c-1.313,0-1.664,0.423-1.871,1.115c-0.072,0.126-0.135,0.27-0.971,0.27h-8.869    c-0.818,0-0.818-0.144-0.89-0.27c-0.216-0.692-0.621-1.115-1.943-1.115h-4.704l-1.592,0.063v2.843h-1.871v-3.382H147.626z     M290.508,247.03L290.508,247.03v-9.398c0.135-0.081,0.271-0.153,0.423-0.279c0.136-0.215,0.27-0.351,0.342-0.485    c0.135-0.207,0.342-0.485,2.555-0.485c2.293,0,7.689,0.278,10.667,0.485c1.178,0.063,2.149,0.063,2.491,0.135    c0.765,0.549,1.529,1.592,1.529,3.185c0,3.318,0.477,5.126-5.334,7.546c-0.144-0.072-0.278,0.962,1.592,0.692    c1.871-0.207,3.949-2.078,4.714-3.184c0.746-1.106,2.554-5.127,2.626-5.604l1.934-0.558c0,0,1.871-0.756,2.501-1.997l0.27,0.055    v4.784c0,0-0.765,2.896,0,5.738c0.206,0.63,0.413,0.899,0.701,1.115c-0.765,0.756-1.942,1.439-4.164,1.439    c-3.67,0.152-7.34-0.126-11.207-0.342c-1.808-0.126-3.679-0.207-5.684-0.342C291.561,249.324,290.589,247.318,290.508,247.03    L290.508,247.03z M107.629,223.646L107.629,223.646L107.629,223.646h0.558c0.549,0,1.025-0.485,1.025-1.043    c0-0.477-0.279-0.827-0.684-0.972v-0.054h28.17h6.026v2.068H107.629z M100.497,223.646L100.497,223.646H55.229    c0.828-1.043,1.655-2.068,1.655-2.068h2.149H88.93c0.072,0.054,0.144,0.054,0.207,0.126v0.072h2.419    c-0.27,0.144-0.477,0.485-0.477,0.827c0,0.558,0.477,1.043,1.043,1.043H100.497L100.497,223.646L100.497,223.646z" style="fill:#010101;"/></g></g><g id="Layer_1"/></svg>