<?xml version="1.0" ?><!DOCTYPE svg  PUBLIC '-//W3C//DTD SVG 1.1//EN'  'http://www.w3.org/Graphics/SVG/1.1/DTD/svg11.dtd'><svg height="512px" style="enable-background:new 0 0 512 512;" version="1.1" viewBox="0 0 512 512" width="512px" xml:space="preserve" xmlns="http://www.w3.org/2000/svg" xmlns:xlink="http://www.w3.org/1999/xlink"><g id="army_x2C__military_x2C__war_x2C__weapon__x2C_navy_x2C__aviation_x2C___ship__x2C__aircraft__x2C__carrier"><g><path d="M198.635,262.118c-0.126,0-0.198,0-0.342,0c-0.27-0.054-0.692-0.054-0.963-0.126    c-0.071-0.08-0.144-0.08-0.225-0.08c-0.117-0.064-0.27-0.136-0.387-0.208c-0.566,0-1.133,0-1.673,0    c-0.072,0-0.072-0.063-0.152-0.063c0-0.495,0-0.972,0-1.467c0-0.197,0-0.476,0.08-0.611c0.558,0,1.106,0,1.674,0    c0.27-0.071,0.458-0.071,0.755-0.135c0.126,0,0.342-0.072,0.54-0.072c-0.072,0-0.27,0-0.342,0c-0.342,0-0.684,0-0.953,0    c0,0-0.081-0.08-0.153-0.135c0-0.287,0-0.558,0-0.836c-0.072-0.279-0.27-0.549-0.414-0.765c-0.278-0.611-0.549-1.241-0.836-1.87    c-0.198-0.414-0.396-0.828-0.621-1.242c-0.071-0.206-0.144-0.477-0.27-0.684l0,0c0.891,0,1.799,0,2.707,0    c0.045,0.054,0.045,0.126,0.126,0.126c0.144,0.145,0.27,0.271,0.414,0.352c0.342,0.278,0.611,0.691,1.034,0.971    c0.071,0.063,0.144,0.207,0.297,0.279c0.81,0.611,1.448,1.385,2.213,2.006c0.27,0.135,0.468,0.404,0.683,0.62    c0.082,0,0.082,0.072,0.127,0.072c0.144,0.135,0.296,0.054,0.422,0.135c0.343,0.145,0.684,0.207,1.053,0.278    c0.611,0.271,1.376,0.486,2.068,0.692c4.3,0.136,10.794-1.942,14.04,0.072c0.226,0.135,0.423,0.271,0.639,0.405    c0.071,0.071,0.126,0.144,0.198,0.144c0.225,0.072,0.413,0.072,0.638,0.072c0.469,0.125,0.963,0.125,1.448,0.278    c0.352,0.135,0.693,0.207,1.035,0.27c0.197,0.072,0.351,0.072,0.539,0.153c0.297,0.126,0.639,0.27,0.918,0.396    c0.144,0.072,0.341,0.144,0.485,0.217l1.799,0.206l-10.604,0.072c0.081,0.063,0.351,0.135,0.495,0.135l0,0    c-0.072,0.071-0.414,0.216-0.495,0.216l0,0c-0.072,0-0.072,0-0.072,0c0,0.198,0,0.342,0,0.549c0,0.072,0,0.207,0,0.27    c0,0.072-0.045,0.072-0.045,0.153c-0.152,0-0.224,0-0.368,0c0,0,0,0,0,0.054v0.072c-0.198,0.072-0.27,0-0.27-0.126    c-0.126,0-0.271,0-0.423,0v0.413h-3.391v-0.413c0,0,0.071-0.081,0.144-0.081l0,0l0,0c-6.565-0.072-3.886-0.135-8.356-0.342    c-0.152,0.207-0.422,0.342-0.565,0.477c-0.226,0.145-0.423,0.359-0.621,0.414c0,0.08-0.342-0.055-0.414-0.055    c-0.494-0.144-0.98-0.287-1.447-0.413c0-0.216,0-0.423,0-0.63C199.966,262.334,199.273,262.262,198.635,262.118L198.635,262.118z     M74.397,265.855v-15.771v-3.473v-9.416h-6.791v-6.845v-6.79h6.791h1.106v-32.389h4.155v32.389h11.216v-6.773v-4.371v-6.781h6.71    h17.781h6.791v17.926h18.833h6.764v6.79v6.845h-6.764v9.416h46.384v8.033v5.818v5.393c118.706,0.072,102.841,0.216,308.313,0.216    c0,0-13.384,20.759-19.455,54.757H39.914l-23.602-24.986v-29.771v-0.216H74.397z M428.743,262.118c-0.072,0-0.216,0-0.297,0    c-0.342-0.054-0.684-0.054-0.953-0.126c-0.072-0.08-0.198-0.08-0.27-0.08c-0.153-0.064-0.271-0.136-0.423-0.208    c-0.54,0-1.106,0-1.673,0l-0.045-0.063c0-0.495,0-0.972,0-1.467c0-0.197-0.072-0.476,0-0.611c0.611,0,1.178,0,1.718,0    c0.197-0.071,0.494-0.071,0.692-0.135c0.216,0,0.342-0.072,0.566-0.072c-0.081,0-0.297,0-0.351,0c-0.288,0-0.639,0-0.908,0    c-0.072,0-0.145-0.08-0.198-0.135c0-0.287,0-0.558,0-0.836c-0.071-0.279-0.288-0.549-0.342-0.765    c-0.297-0.611-0.638-1.241-0.908-1.87c-0.144-0.414-0.423-0.828-0.567-1.242c-0.125-0.206-0.197-0.477-0.341-0.684l0,0    c0.908,0,1.816,0,2.707,0c0.072,0.054,0.144,0.126,0.189,0.126c0.08,0.145,0.224,0.271,0.368,0.352    c0.351,0.278,0.692,0.691,1.034,0.971c0.126,0.063,0.198,0.207,0.351,0.279c0.756,0.611,1.377,1.385,2.213,2.006    c0.188,0.135,0.414,0.404,0.684,0.62l0.072,0.072c0.152,0.135,0.27,0.054,0.494,0.135c0.271,0.145,0.611,0.207,0.963,0.278    c0.684,0.271,1.447,0.486,2.141,0.692c4.227,0.136,10.739-1.942,13.986,0.072c0.197,0.135,0.422,0.271,0.62,0.405    c0.072,0.071,0.216,0.144,0.27,0.144c0.216,0.072,0.369,0.072,0.567,0.072c0.485,0.125,0.953,0.125,1.447,0.278    c0.342,0.135,0.765,0.207,1.106,0.27c0.144,0.072,0.342,0.072,0.494,0.153c0.343,0.126,0.612,0.27,0.954,0.396    c0.152,0.072,0.297,0.144,0.423,0.217l1.871,0.206l-10.649,0.072c0.072,0.063,0.414,0.135,0.468,0.135l0,0    c-0.054,0.071-0.351,0.216-0.468,0.216l0,0l0,0c0,0.198,0,0.342-0.081,0.549c0,0.072,0.081,0.207,0,0.27    c0,0.072,0,0.072-0.072,0.153c-0.072,0-0.197,0-0.27,0c0,0,0,0-0.072,0.054v0.072c-0.225,0.072-0.225,0-0.27-0.126    c-0.144,0-0.225,0-0.342,0v0.413h-3.472v-0.413c0.071,0,0.144-0.081,0.144-0.081l0,0l0,0c-6.584-0.072-3.885-0.135-8.311-0.342    c-0.216,0.207-0.413,0.342-0.639,0.477c-0.198,0.145-0.342,0.359-0.539,0.414c-0.072,0.08-0.414-0.055-0.495-0.055    c-0.486-0.144-0.953-0.287-1.376-0.413c0-0.216,0-0.423,0-0.63C430.119,262.334,429.436,262.262,428.743,262.118L428.743,262.118z     M390.383,262.118c-0.054,0-0.198,0-0.27,0c-0.351-0.054-0.693-0.054-0.963-0.126c-0.144-0.08-0.225-0.08-0.297-0.08    c-0.116-0.064-0.27-0.136-0.387-0.208c-0.566,0-1.106,0-1.673,0l-0.081-0.063c0-0.495,0-0.972,0-1.467    c0-0.197-0.071-0.476,0-0.611c0.647,0,1.188,0,1.754,0c0.189-0.071,0.459-0.071,0.684-0.135c0.198,0,0.342-0.072,0.54-0.072    c-0.072,0-0.271,0-0.342,0c-0.27,0-0.611,0-0.882,0c-0.08,0-0.152-0.08-0.225-0.135c0-0.287,0-0.558,0-0.836    c-0.072-0.279-0.27-0.549-0.342-0.765c-0.27-0.611-0.62-1.241-0.917-1.87c-0.189-0.414-0.388-0.828-0.54-1.242    c-0.144-0.206-0.216-0.477-0.342-0.684l0,0c0.882,0,1.799,0,2.707,0c0.045,0.054,0.117,0.126,0.117,0.126    c0.153,0.145,0.297,0.271,0.423,0.352c0.342,0.278,0.692,0.691,1.034,0.971c0.144,0.063,0.216,0.207,0.297,0.279    c0.81,0.611,1.448,1.385,2.284,2.006c0.198,0.135,0.396,0.404,0.684,0.62l0.055,0.072c0.144,0.135,0.297,0.054,0.413,0.135    c0.351,0.145,0.693,0.207,1.062,0.278c0.692,0.271,1.448,0.486,2.141,0.692c4.228,0.136,10.721-1.942,13.968,0.072    c0.217,0.135,0.414,0.271,0.639,0.405c0.072,0.071,0.198,0.144,0.271,0.144c0.197,0.072,0.341,0.072,0.566,0.072    c0.468,0.125,0.962,0.125,1.448,0.278c0.351,0.135,0.692,0.207,1.105,0.27c0.127,0.072,0.352,0.072,0.469,0.153    c0.368,0.126,0.638,0.27,0.988,0.396c0.117,0.072,0.271,0.144,0.414,0.217l1.871,0.206l-10.676,0.072    c0.081,0.063,0.422,0.135,0.494,0.135l0,0c-0.072,0.071-0.413,0.216-0.494,0.216l0,0l0,0c0,0.198,0,0.342-0.072,0.549    c0,0.072,0.072,0.207,0,0.27c0,0.072,0,0.072-0.045,0.153c-0.081,0-0.226,0-0.297,0c0,0,0,0-0.054,0.054v0.072    c-0.216,0.072-0.216,0-0.297-0.126c-0.117,0-0.271,0-0.342,0v0.413h-3.463v-0.413c0.072,0,0.144-0.081,0.144-0.081l0,0l0,0    c-6.565-0.072-3.858-0.135-8.311-0.342c-0.197,0.207-0.423,0.342-0.611,0.477c-0.225,0.145-0.351,0.359-0.567,0.414    c-0.054,0.08-0.396-0.055-0.467-0.055c-0.495-0.144-0.99-0.287-1.376-0.413c0-0.216,0-0.423,0-0.63    C391.786,262.334,391.094,262.262,390.383,262.118L390.383,262.118z M352.04,262.118c-0.071,0-0.197,0-0.27,0    c-0.342-0.054-0.692-0.054-0.98-0.126c-0.126-0.08-0.197-0.08-0.27-0.08c-0.153-0.064-0.27-0.136-0.423-0.208    c-0.54,0-1.105,0-1.646,0l-0.071-0.063c0-0.495,0-0.972,0-1.467c0-0.197-0.072-0.476,0-0.611c0.54,0,1.178,0,1.718,0    c0.225-0.071,0.495-0.071,0.692-0.135c0.217,0,0.342-0.072,0.567-0.072c-0.082,0-0.279,0-0.351,0c-0.343,0-0.64,0-0.909,0    c-0.072,0-0.126-0.08-0.197-0.135c0-0.287,0-0.558,0-0.836c-0.072-0.279-0.297-0.549-0.343-0.765    c-0.297-0.611-0.638-1.241-0.908-1.87c-0.198-0.414-0.422-0.828-0.539-1.242c-0.153-0.206-0.226-0.477-0.369-0.684l0,0    c0.908,0,1.816,0,2.698,0c0.081,0.054,0.153,0.126,0.153,0.126c0.126,0.145,0.27,0.271,0.414,0.352    c0.351,0.278,0.692,0.691,1.033,0.971c0.153,0.063,0.198,0.207,0.271,0.279c0.836,0.611,1.447,1.385,2.293,2.006    c0.216,0.135,0.414,0.404,0.611,0.62c0.072,0,0.145,0.072,0.145,0.072c0.152,0.135,0.27,0.054,0.423,0.135    c0.342,0.145,0.684,0.207,1.034,0.278c0.684,0.271,1.376,0.486,2.159,0.692c4.209,0.136,10.721-1.942,13.968,0.072    c0.197,0.135,0.423,0.271,0.62,0.405c0.072,0.071,0.145,0.144,0.288,0.144c0.126,0.072,0.351,0.072,0.549,0.072    c0.485,0.125,0.98,0.125,1.447,0.278c0.343,0.135,0.685,0.207,1.106,0.27c0.145,0.072,0.297,0.072,0.495,0.153    c0.27,0.126,0.611,0.27,0.953,0.396c0.153,0.072,0.297,0.144,0.423,0.217l1.862,0.206l-10.641,0.072    c0.072,0.063,0.414,0.135,0.486,0.135l0,0c-0.072,0.071-0.414,0.216-0.486,0.216l0,0l0,0c0,0.198,0,0.342-0.081,0.549    c0,0.072,0.081,0.207,0,0.27c0,0.072,0,0.072-0.072,0.153c-0.071,0-0.197,0-0.342,0c0,0,0,0,0,0.054v0.072    c-0.197,0.072-0.197,0-0.27-0.126c-0.152,0-0.27,0-0.422,0v0.413h-3.392v-0.413l0.144-0.081l0,0l0,0    c-6.583-0.072-3.885-0.135-8.382-0.342c-0.145,0.207-0.342,0.342-0.54,0.477c-0.225,0.145-0.342,0.359-0.566,0.414    c-0.072,0.08-0.414-0.055-0.495-0.055c-0.468-0.144-0.953-0.287-1.447-0.413c0-0.216,0-0.423,0-0.63    C353.417,262.334,352.733,262.262,352.04,262.118L352.04,262.118z M313.698,262.118c-0.072,0-0.216,0-0.288,0    c-0.351-0.054-0.692-0.054-1.034-0.126c-0.072-0.08-0.126-0.08-0.198-0.08c-0.152-0.064-0.297-0.136-0.422-0.208    c-0.558,0-1.106,0-1.673,0c-0.073,0-0.073-0.063-0.118-0.063c0-0.495,0-0.972,0-1.467c0-0.197,0-0.476,0.045-0.611    c0.567,0,1.188,0,1.746,0c0.197-0.071,0.494-0.071,0.692-0.135c0.144,0,0.341-0.072,0.539-0.072c-0.045,0-0.27,0-0.342,0    c-0.342,0-0.692,0-0.962,0c0,0-0.072-0.08-0.145-0.135c0-0.287,0-0.558,0-0.836c-0.071-0.279-0.27-0.549-0.341-0.765    c-0.271-0.611-0.621-1.241-0.892-1.87c-0.224-0.414-0.413-0.828-0.638-1.242c-0.045-0.206-0.126-0.477-0.271-0.684l0,0    c0.908,0,1.8,0,2.708,0c0.071,0.054,0.144,0.126,0.144,0.126c0.126,0.145,0.27,0.271,0.396,0.352    c0.342,0.278,0.711,0.691,1.053,0.971c0.126,0.063,0.197,0.207,0.279,0.279c0.836,0.611,1.447,1.385,2.284,2.006    c0.197,0.135,0.413,0.404,0.611,0.62c0.072,0,0.152,0.072,0.152,0.072c0.117,0.135,0.271,0.054,0.414,0.135    c0.342,0.145,0.692,0.207,1.035,0.278c0.683,0.271,1.375,0.486,2.068,0.692c4.299,0.136,10.793-1.942,14.067,0.072    c0.188,0.135,0.413,0.271,0.611,0.405c0.071,0.071,0.144,0.144,0.27,0.144c0.144,0.072,0.342,0.072,0.566,0.072    c0.468,0.125,0.953,0.125,1.448,0.278c0.351,0.135,0.692,0.207,1.106,0.27c0.152,0.072,0.27,0.072,0.495,0.153    c0.269,0.126,0.611,0.27,0.962,0.396c0.144,0.072,0.27,0.144,0.413,0.217l1.871,0.206l-10.676,0.072    c0.071,0.063,0.423,0.135,0.494,0.135l0,0c-0.071,0.071-0.423,0.216-0.494,0.216l0,0l0,0c0,0.198,0,0.342-0.045,0.549    c0,0.072,0,0.207,0,0.27c0,0.072,0,0.072-0.072,0.153c-0.081,0-0.225,0-0.351,0c0,0,0,0,0,0.054v0.072    c-0.216,0.072-0.297,0-0.297-0.126c-0.117,0-0.271,0-0.387,0v0.413h-3.4v-0.413c0,0,0.055-0.081,0.126-0.081l0,0l0,0    c-6.565-0.072-3.858-0.135-8.364-0.342c-0.144,0.207-0.342,0.342-0.566,0.477c-0.189,0.145-0.342,0.359-0.54,0.414    c-0.071,0.08-0.414-0.055-0.485-0.055c-0.494-0.144-0.963-0.287-1.457-0.413c0-0.216,0-0.423,0-0.63    C315.083,262.334,314.391,262.262,313.698,262.118L313.698,262.118z M275.338,262.118c-0.072,0-0.198,0-0.27,0    c-0.342-0.054-0.693-0.054-1.035-0.126c-0.071-0.08-0.144-0.08-0.215-0.08c-0.127-0.064-0.279-0.136-0.424-0.208    c-0.539,0-1.105,0-1.646,0c-0.072,0-0.072-0.063-0.152-0.063c0-0.495,0-0.972,0-1.467c0-0.197,0-0.476,0.08-0.611    c0.54,0,1.106,0,1.718,0c0.226-0.071,0.495-0.071,0.711-0.135c0.126,0,0.351-0.072,0.539-0.072c-0.071,0-0.27,0-0.341,0    c-0.342,0-0.684,0-0.954,0c0,0-0.08-0.08-0.152-0.135c0-0.287,0-0.558,0-0.836c-0.072-0.279-0.271-0.549-0.342-0.765    c-0.271-0.611-0.639-1.241-0.908-1.87c-0.198-0.414-0.423-0.828-0.621-1.242c-0.072-0.206-0.144-0.477-0.27-0.684l0,0    c0.891,0,1.799,0,2.68,0c0.082,0.054,0.153,0.126,0.153,0.126c0.144,0.145,0.27,0.271,0.414,0.352    c0.341,0.278,0.692,0.691,1.034,0.971c0.071,0.063,0.225,0.207,0.27,0.279c0.837,0.611,1.476,1.385,2.285,2.006    c0.225,0.135,0.422,0.404,0.638,0.62c0.081,0,0.081,0.072,0.127,0.072c0.152,0.135,0.296,0.054,0.422,0.135    c0.342,0.145,0.684,0.207,1.034,0.278c0.711,0.271,1.395,0.486,2.087,0.692c4.281,0.136,10.793-1.942,14.04,0.072    c0.226,0.135,0.423,0.271,0.639,0.405c0.054,0.071,0.126,0.144,0.198,0.144c0.197,0.072,0.422,0.072,0.611,0.072    c0.495,0.125,0.989,0.125,1.457,0.278c0.368,0.135,0.711,0.207,1.053,0.27c0.197,0.072,0.351,0.072,0.548,0.153    c0.271,0.126,0.639,0.27,0.98,0.396c0.126,0.072,0.27,0.144,0.414,0.217l1.799,0.206l-10.604,0.072    c0.081,0.063,0.423,0.135,0.495,0.135l0,0c-0.072,0.071-0.414,0.216-0.495,0.216l0,0c0,0,0,0-0.072,0c0,0.198,0,0.342,0,0.549    c0,0.072,0,0.207,0,0.27c0,0.072-0.071,0.072-0.071,0.153c-0.126,0-0.198,0-0.342,0c0,0,0,0,0,0.054v0.072    c-0.198,0.072-0.27,0-0.27-0.126c-0.153,0-0.271,0-0.424,0v0.413h-3.391v-0.413c0,0,0.072-0.081,0.145-0.081l0,0l0,0    c-6.584-0.072-3.886-0.135-8.383-0.342c-0.126,0.207-0.342,0.342-0.54,0.477c-0.225,0.145-0.342,0.359-0.639,0.414    c0,0.08-0.351-0.055-0.396-0.055c-0.494-0.144-0.98-0.287-1.475-0.413c0-0.216,0-0.423,0-0.63    C276.714,262.334,276.03,262.262,275.338,262.118L275.338,262.118z M236.995,262.118c-0.071,0-0.216,0-0.288,0    c-0.351-0.054-0.692-0.054-1.034-0.126c-0.081-0.08-0.126-0.08-0.198-0.08c-0.152-0.064-0.27-0.136-0.422-0.208    c-0.558,0-1.106,0-1.674,0c-0.044,0-0.044-0.063-0.116-0.063c0-0.495,0-0.972,0-1.467c0-0.197,0-0.476,0.072-0.611    c0.539,0,1.105,0,1.718,0c0.197-0.071,0.422-0.071,0.692-0.135c0.144,0,0.342-0.072,0.566-0.072c-0.072,0-0.297,0-0.342,0    c-0.378,0-0.72,0-0.989,0c0,0-0.072-0.08-0.126-0.135c0-0.287,0-0.558,0-0.836c-0.072-0.279-0.288-0.549-0.414-0.765    c-0.296-0.611-0.566-1.241-0.836-1.87c-0.226-0.414-0.414-0.828-0.611-1.242c-0.082-0.206-0.153-0.477-0.297-0.684l0,0    c0.908,0,1.799,0,2.707,0c0.071,0.054,0.071,0.126,0.144,0.126c0.126,0.145,0.271,0.271,0.423,0.352    c0.342,0.278,0.611,0.691,1.025,0.971c0.081,0.063,0.197,0.207,0.27,0.279c0.837,0.611,1.457,1.385,2.213,2.006    c0.279,0.135,0.494,0.404,0.692,0.62c0.072,0,0.072,0.072,0.152,0.072c0.145,0.135,0.271,0.054,0.414,0.135    c0.342,0.145,0.684,0.207,1.035,0.278c0.683,0.271,1.375,0.486,2.06,0.692c4.308,0.136,10.828-1.942,14.066,0.072    c0.198,0.135,0.423,0.271,0.621,0.405c0.072,0.071,0.144,0.144,0.216,0.144c0.198,0.072,0.423,0.072,0.62,0.072    c0.486,0.125,0.954,0.125,1.448,0.278c0.342,0.135,0.693,0.207,1.034,0.27c0.226,0.072,0.342,0.072,0.567,0.153    c0.27,0.126,0.611,0.27,0.962,0.396c0.145,0.072,0.271,0.144,0.414,0.217l1.799,0.206l-10.578,0.072    c0.046,0.063,0.343,0.135,0.468,0.135l0,0c-0.054,0.071-0.422,0.216-0.468,0.216l0,0h-0.071c0,0.198,0,0.342,0,0.549    c0,0.072,0,0.207,0,0.27c0,0.072-0.081,0.072-0.081,0.153c-0.145,0-0.189,0-0.342,0c0,0,0,0,0,0.054v0.072    c-0.216,0.072-0.27,0-0.27-0.126c-0.145,0-0.297,0-0.414,0v0.413h-3.4v-0.413c0,0,0.073-0.081,0.127-0.081l0,0l0,0    c-6.566-0.072-3.859-0.135-8.365-0.342c-0.144,0.207-0.342,0.342-0.566,0.477c-0.198,0.145-0.414,0.359-0.611,0.414    c0,0.08-0.342-0.055-0.414-0.055c-0.494-0.144-0.963-0.287-1.457-0.413c0-0.216,0-0.423,0-0.63    C238.299,262.334,237.688,262.262,236.995,262.118L236.995,262.118z" style="fill:#010101;"/></g></g><g id="Layer_1"/></svg>