<?xml version="1.0" ?><!DOCTYPE svg  PUBLIC '-//W3C//DTD SVG 1.1//EN'  'http://www.w3.org/Graphics/SVG/1.1/DTD/svg11.dtd'><svg height="6.82666in" style="shape-rendering:geometricPrecision; text-rendering:geometricPrecision; image-rendering:optimizeQuality; fill-rule:evenodd; clip-rule:evenodd" viewBox="0 0 6.82666 6.82666" width="6.82666in" xml:space="preserve" xmlns="http://www.w3.org/2000/svg" xmlns:xlink="http://www.w3.org/1999/xlink"><defs><style type="text/css">
   <![CDATA[
    .fil1 {fill:#000029}
    .fil2 {fill:#000066}
    .fil3 {fill:#0066CC}
    .fil5 {fill:#512DA8}
    .fil4 {fill:#FAC23C}
    .fil0 {fill:#FFA726}
    .fil6 {fill:#FFFFFE}
   ]]>
  </style></defs><g id="Layer_x0020_1"><path class="fil0" d="M5.79596 6.66846c0.123547,-0.0240906 0.232598,-0.0549567 0.328213,-0.096 0.0977047,-0.0344724 0.188437,-0.0887874 0.269102,-0.178035 0.102177,-0.103059 0.175862,-0.238449 0.224713,-0.418236 0.253268,-0.932126 0.282984,-4.01662 0.0506575,-4.94449 -0.0240591,-0.123622 -0.0548858,-0.232748 -0.0958858,-0.328425 -0.0343622,-0.0977165 -0.0886339,-0.188437 -0.177646,-0.269146 -0.103146,-0.10252 -0.23874,-0.176433 -0.418925,-0.22539 -0.932598,-0.253291 -4.01682,-0.283126 -4.94484,-0.0505709 -0.123362,0.0240276 -0.23226,0.0548071 -0.327791,0.0957126 -0.0979488,0.0343819 -0.188898,0.0887756 -0.269756,0.178075 -0.10235,0.103102 -0.176142,0.238598 -0.225059,0.418591 -0.253276,0.932858 -0.283157,4.0163 -0.0506457,4.94461 0.0241339,0.12398 0.0550787,0.233374 0.0962598,0.329248 0.0344409,0.0974961 0.0886378,0.188047 0.177626,0.268559 0.103102,0.102327 0.238579,0.176122 0.418547,0.225028 0.931783,0.25328 4.0182,0.283028 4.94543,0.0504724z"/><g id="_308112672"><path class="fil1" d="M1.25706 1.78925l4.31254 0c0.222059,0 0.403732,0.181669 0.403732,0.403728l0 2.44071c0,0.222059 -0.181673,0.403728 -0.403732,0.403728l-4.31254 0c-0.222051,0 -0.403724,-0.181669 -0.403724,-0.403728l0 -2.44071c0,-0.222059 0.181673,-0.403728 0.403724,-0.403728z" id="_308653000"/><path class="fil2" d="M1.25706 1.86924c-0.177898,0 -0.323728,0.145835 -0.323728,0.323732l0 2.44071c0,0.177898 0.145831,0.323732 0.323728,0.323732l4.31254 0c0.177902,0 0.323736,-0.145827 0.323736,-0.323732l0 -2.44071c0,-0.177906 -0.145835,-0.323732 -0.323736,-0.323732l-4.31254 0z" id="_308652088"/><circle class="fil3" cx="4.21874" cy="3.41333" id="_308652448" r="1.19845"/><path class="fil4" d="M3.41337 2.5259c0.0221969,0.0201614 0.043626,0.0411496 0.0642598,0.0629016l-0.128606 0c0.0206339,-0.021752 0.042063,-0.0427402 0.0642598,-0.0629016l8.66142e-005 0z" id="_308652232"/><circle class="fil5" cx="2.60792" cy="3.41333" id="_308652616" r="1.19845"/><path class="fil3" d="M3.53805 2.65756c0.0166142,0.0204213 0.0325748,0.0413976 0.0478386,0.0629016l-0.34511 0c0.0152638,-0.0215039 0.0312244,-0.0424803 0.0478386,-0.0629016l0.249433 0z" id="_308651968"/><path class="fil3" d="M3.6312 2.78921c0.0125748,0.0205709 0.0245512,0.0415394 0.0358937,0.0629016l-0.507528 0c0.0113425,-0.0213622 0.0233189,-0.0423307 0.0358937,-0.0629016l0.43574 0z" id="_308655856"/><path class="fil3" d="M3.70082 2.92086c0.00932283,0.0206614 0.0180669,0.0416378 0.0262323,0.0629016l-0.627449 0c0.00816535,-0.0212638 0.0169094,-0.0422402 0.0262323,-0.0629016l0.574984 0z" id="_308655160"/><path class="fil3" d="M3.75109 3.05252c0.00653543,0.0207283 0.0125157,0.0417047 0.017937,0.0629016l-0.711386 0c0.00542126,-0.0211969 0.0114016,-0.0421732 0.017937,-0.0629016l0.675512 0z" id="_308655640"/><path class="fil3" d="M3.78446 3.18417c0.00402362,0.0207835 0.00751181,0.041752 0.0104488,0.0629016l-0.76315 0c0.00293701,-0.0211496 0.0064252,-0.0421181 0.0104488,-0.0629016l0.742252 0z" id="_308655664"/><path class="fil3" d="M3.80246 3.31582c0.00167717,0.0208228 0.00281102,0.0417953 0.00340945,0.0629016l-0.785071 0c0.000598425,-0.0211063 0.00173228,-0.0420787 0.00340945,-0.0629016l0.778252 0z" id="_308655544"/><path class="fil3" d="M3.80588 3.44748c-0.000594488,0.0211063 -0.00172441,0.0420827 -0.0033937,0.0629016l-0.778315 0c-0.00166929,-0.0208189 -0.00279921,-0.0417953 -0.0033937,-0.0629016l0.785102 0z" id="_308655112"/><path class="fil3" d="M3.79497 3.57913c-0.00292913,0.0211457 -0.00640945,0.0421181 -0.0104252,0.0629016l-0.742433 0c-0.00401575,-0.0207835 -0.00749606,-0.0417559 -0.0104252,-0.0629016l0.763283 0z" id="_308654944"/><path class="fil3" d="M3.76914 3.71078c-0.00541339,0.0211969 -0.0113819,0.0421732 -0.0179094,0.0629016l-0.675795 0c-0.00652756,-0.0207283 -0.0124961,-0.0417047 -0.0179094,-0.0629016l0.711614 0z" id="_308654584"/><path class="fil3" d="M3.72723 3.84244c-0.00815748,0.0212638 -0.0168858,0.0422402 -0.0262008,0.0629016l-0.575394 0c-0.00931496,-0.0206614 -0.0180433,-0.0416378 -0.0262008,-0.0629016l0.627795 0z" id="_308654536"/><path class="fil3" d="M3.66734 3.97409c-0.0113307,0.0213583 -0.0232992,0.0423307 -0.0358583,0.0629016l-0.436299 0c-0.0125591,-0.0205709 -0.0245276,-0.0415433 -0.0358583,-0.0629016l0.508016 0z" id="_308654872"/><path class="fil3" d="M3.58621 4.10574c-0.015248,0.0215 -0.031185,0.0424803 -0.0477835,0.0629016l-0.250189 0c-0.0165984,-0.0204213 -0.0325354,-0.0414016 -0.0477835,-0.0629016l0.345756 0z" id="_308654440"/><path class="fil6" d="M4.70356 3.65932c0.016122,-0.0251457 0.0241142,-0.0510354 0.0241142,-0.0776575 0,-0.0263307 -0.00754724,-0.0504409 -0.0227795,-0.0724803 -0.0150906,-0.0220394 -0.0369843,-0.0389055 -0.0655315,-0.0507402 -0.0286969,-0.0118307 -0.072185,-0.0211496 -0.130906,-0.0278071 -0.0386102,-0.00458661 -0.0637559,-0.00976378 -0.0751457,-0.0156772 -0.0113898,-0.00577165 -0.0171575,-0.0142047 -0.0171575,-0.0255906 0,-0.0100591 0.00458268,-0.0186378 0.0136063,-0.0257362 0.00902362,-0.00710236 0.0235197,-0.0106535 0.0433425,-0.0106535 0.0196732,0 0.0363858,0.00458268 0.0501417,0.0137559 0.0100591,0.00695276 0.0173071,0.017752 0.0215945,0.0323937l0.166858 -0.0159764c-0.0115394,-0.0301732 -0.0260354,-0.0539882 -0.0434882,-0.0717402 -0.0174567,-0.0176024 -0.0392008,-0.0306181 -0.0653819,-0.0390512 -0.0260354,-0.00842913 -0.0665669,-0.0125709 -0.121295,-0.0125709 -0.0519173,0 -0.0933386,0.00547244 -0.124252,0.0162677 -0.0309173,0.0107992 -0.0551732,0.0272165 -0.0727756,0.0492598 -0.0176024,0.0218898 -0.0263307,0.0480748 -0.0263307,0.0783976 0,0.0278071 0.0081378,0.0525079 0.0244094,0.0742559 0.0164173,0.0215984 0.0363858,0.0371299 0.0602008,0.0461496 0.0239646,0.00917323 0.0664173,0.0190827 0.127657,0.0297323 0.0409724,0.00724803 0.0662677,0.013315 0.0757323,0.0181969 0.013315,0.00694882 0.0199685,0.0168622 0.0199685,0.0295827 0,0.0112402 -0.00502756,0.0207087 -0.0152323,0.0281063 -0.0130197,0.0102047 -0.0313622,0.0152362 -0.0550276,0.0152362 -0.021748,0 -0.0390512,-0.00444094 -0.0520709,-0.013315 -0.0130157,-0.00887402 -0.0230748,-0.0236693 -0.0303228,-0.044374l-0.174839 0.0159764c0.0100591,0.0442244 0.0329843,0.0783937 0.0686339,0.102358 0.0356496,0.0241063 0.0955551,0.0360945 0.179575,0.0360945 0.0594606,0 0.106504,-0.00739764 0.140965,-0.0223386 0.0344685,-0.0149409 0.0597598,-0.0349094 0.0757362,-0.0600551z" id="_308114880"/><polygon class="fil6" id="_308112600" points="5.00088,3.73106 5.00088,3.55444 4.81273,3.55444 4.81273,3.73106 "/><path class="fil6" d="M4.16232 3.73106l0 -0.460622 -0.176614 0 0 0.222028c0,0.0420118 -0.00665748,0.0711496 -0.0199685,0.0874213 -0.0134606,0.016122 -0.0306181,0.0242598 -0.0514764,0.0242598 -0.0192283,0 -0.0341693,-0.00606693 -0.0448228,-0.0181969 -0.0106457,-0.0122756 -0.0159724,-0.0328346 -0.0159724,-0.0616811l0 -0.253831 -0.177504 0 0 0.293323c0,0.0605 0.0137559,0.105319 0.0412677,0.134311 0.0276654,0.0291417 0.0655276,0.0436417 0.114047,0.0436417 0.0363858,0 0.0670079,-0.00651181 0.0920079,-0.0195276 0.0248504,-0.0130197 0.0495512,-0.0347598 0.0741063,-0.0653819l0 0.0742559 0.164929 0z" id="_308113272"/><path class="fil6" d="M3.43367 3.57634c0,-0.073811 0.00917323,-0.124252 0.0273661,-0.151173 0.0127244,-0.0190827 0.0307677,-0.0286969 0.0538425,-0.0286969 0.0121299,0 0.0286969,0.0042874 0.0495512,0.0130157l0.0547323 -0.125287c-0.0309173,-0.0162717 -0.0594606,-0.0244055 -0.0856457,-0.0244055 -0.0248504,0 -0.0457087,0.00606299 -0.0627165,0.0183425 -0.0168661,0.0122756 -0.0332835,0.0347598 -0.0492598,0.0674488l0 -0.0751417 -0.16537 0 0 0.460622 0.1775 0 0 -0.154724z" id="_308112984"/><path class="fil6" d="M3.13324 3.40948l0.0547283 -0.125287c-0.0309134,-0.0162717 -0.0594606,-0.0244055 -0.0856457,-0.0244055 -0.0248504,0 -0.0457047,0.00606299 -0.0627126,0.0183425 -0.0168661,0.0122756 -0.0332874,0.0347598 -0.0492598,0.0674488l0 -0.0751417 -0.165374 0 0 0.460622 0.177504 0 0 -0.154724c0,-0.073811 0.00917323,-0.124252 0.0273622,-0.151173 0.0127244,-0.0190827 0.0307677,-0.0286969 0.0538425,-0.0286969 0.0121339,0 0.0286969,0.0042874 0.0495551,0.0130157z" id="_308112936"/><polygon class="fil6" id="_308112840" points="2.71049,3.73106 2.71049,3.27044 2.53387,3.27044 2.53387,3.73106 "/><polygon class="fil6" id="_308113104" points="2.71049,3.21541 2.71049,3.0956 2.53387,3.0956 2.53387,3.21541 "/><path class="fil6" d="M2.43817 3.28272c-0.022189,-0.0671535 -0.0563622,-0.116854 -0.102067,-0.149248 -0.0458543,-0.0323976 -0.10887,-0.0485157 -0.188894,-0.0485157 -0.102358,0 -0.181496,0.028252 -0.237559,0.0846063 -0.0559134,0.0565079 -0.0838701,0.137272 -0.0838701,0.242291 0,0.0786969 0.0159764,0.143484 0.0477756,0.193921 0.0318071,0.0504449 0.0695236,0.0857953 0.113307,0.105913 0.0439331,0.0199724 0.100287,0.0300315 0.16952,0.0300315 0.0569488,0 0.103839,-0.0082874 0.140673,-0.0247087 0.0369764,-0.0164173 0.0677441,-0.0408228 0.0925945,-0.0732205 0.025,-0.0322441 0.043189,-0.072626 0.0547283,-0.120846l-0.172177 -0.0519213c-0.00872835,0.0400866 -0.0226299,0.0707047 -0.0418622,0.0917126 -0.0192283,0.0211496 -0.0476299,0.0316535 -0.0852008,0.0316535 -0.0387559,0 -0.0687835,-0.0130157 -0.0902283,-0.0390512 -0.0214528,-0.026185 -0.0320984,-0.0742559 -0.0320984,-0.144665 0,-0.0566535 0.00901969,-0.0983661 0.0269173,-0.124843 0.0236693,-0.0356496 0.0578386,-0.0535472 0.102508,-0.0535472 0.0196732,0 0.0374252,0.00399213 0.0534016,0.012126 0.0158268,0.00799213 0.0292874,0.0195276 0.040378,0.0344685 0.00665748,0.00887402 0.0130197,0.0229252 0.0190866,0.0421535l0.173067 -0.038311z" id="_308112792"/></g></g></svg>