<?xml version="1.0" ?><svg viewBox="0 0 96 96" xmlns="http://www.w3.org/2000/svg"><defs><style>.cls-1{fill:#2ad3c0;}</style></defs><title/><g data-name="Your Icons" id="Your_Icons"><path class="cls-1" d="M47.5,92.82A44.41,44.41,0,1,1,91.91,48.41,44.46,44.46,0,0,1,47.5,92.82ZM47.5,6A42.41,42.41,0,1,0,89.91,48.41,42.46,42.46,0,0,0,47.5,6Z"/><path class="cls-1" d="M44.18,60.64l2-8.88L51.59,50l1.29-6.91L47.6,44.26l4.19-19H41.69l-4.55,22L31.59,49l-.93,7.1,4.82-1.21L32.6,69.54H62.43l1.91-8.9Zm16.64,6.9H35l3-15.37-5,1.25.38-2.91,5.45-1.71,4.46-21.52h6L45,46.87l5.39-1.16-.52,2.77L44.45,50.2,41.69,62.64H61.87Z"/></g></svg>