<?xml version="1.0" ?><svg viewBox="0 0 96 96" xmlns="http://www.w3.org/2000/svg"><defs><style>.cls-1{fill:#2ad3c0;}</style></defs><title/><g data-name="Your Icons" id="Your_Icons"><path class="cls-1" d="M63.28,67.75l0-23.38-15,15-15-15V67.75H8c.25.52.5,1,.76,1.48l.29.52a44.64,44.64,0,0,0,78,0l.29-.52c.26-.47.51-1,.77-1.48ZM48,90.63A42.6,42.6,0,0,1,11.33,69.75h24V49.2l13,13,13-13,0,20.56H84.67A42.6,42.6,0,0,1,48,90.63Z"/><path class="cls-1" d="M48,3.37A44.68,44.68,0,0,0,3.37,48a44.08,44.08,0,0,0,1,9.64c.15.7.33,1.41.52,2.1.12.44.24.87.37,1.29.07.24.14.47.22.71H27.29V29.63l21,20.65,21-20.65V61.74H90.47c.08-.24.15-.47.22-.7.13-.43.26-.87.38-1.3.19-.7.36-1.4.51-2.09A44.65,44.65,0,0,0,48,3.37ZM89.62,57.22c-.18.83-.39,1.68-.64,2.52H71.34V24.87l-23,22.61-23-22.61V59.74H7c-.25-.83-.46-1.68-.64-2.53a42.06,42.06,0,0,1-1-9.21,42.63,42.63,0,0,1,85.26,0A42.22,42.22,0,0,1,89.62,57.22Z"/></g></svg>