<?xml version="1.0" ?><!DOCTYPE svg  PUBLIC '-//W3C//DTD SVG 1.1//EN'  'http://www.w3.org/Graphics/SVG/1.1/DTD/svg11.dtd'><svg id="Layer_1" style="enable-background:new 0 0 512 512;" version="1.1" viewBox="0 0 512 512" xml:space="preserve" xmlns="http://www.w3.org/2000/svg" xmlns:xlink="http://www.w3.org/1999/xlink"><style type="text/css">
	.st0{fill:#E5ECFF;stroke:#5D5185;stroke-width:9;stroke-miterlimit:10;}
	.st1{fill:#FFFFFF;stroke:#5D5185;stroke-width:9;stroke-miterlimit:10;}
	.st2{opacity:0.14;fill:#393B40;}
	.st3{fill:none;stroke:#5D5185;stroke-width:8;stroke-linecap:round;stroke-miterlimit:10;}
	.st4{fill:#FFB0B1;stroke:#5D5185;stroke-width:8;stroke-miterlimit:10;}
	.st5{fill:none;stroke:#5D5185;stroke-width:8;stroke-miterlimit:10;}
	.st6{fill:#FFE5C0;stroke:#5D5185;stroke-width:8;stroke-miterlimit:10;}
	.st7{fill:#FFFFFF;stroke:#5D5185;stroke-width:8;stroke-miterlimit:10;}
	.st8{fill:#FFFFFF;}
</style><g><g><polygon class="st0" points="94.1,200.7 94.1,40.6 332.6,40.6 428.7,132.9 428.7,471.4 94.1,471.4 94.1,144.9    "/><path class="st1" d="M427.1,132.9h-94.5V42.2c0-0.6,0.7-0.9,1.1-0.5l93.9,90.1C428,132.2,427.7,132.9,427.1,132.9z"/><polygon class="st2" points="424.2,137.5 343.4,155.5 339.6,137.5    "/><g><g><g><path class="st3" d="M216,341.7c-19.4-30-15.5-70.6,11.2-96.3c26.9-25.9,68-28.1,97.3-7.1"/><path class="st4" d="M237.3,350.2l-13.7,13.2c-0.2,0.2-0.6,0.2-0.8,0l-13.2-13.7c-0.2-0.2-0.2-0.6,0-0.8l13.7-13.2        c0.2-0.2,0.6-0.2,0.8,0l13.2,13.7C237.5,349.6,237.5,349.9,237.3,350.2z"/><path class="st4" d="M345.3,246.2l-13.7,13.2c-0.2,0.2-0.6,0.2-0.8,0l-13.2-13.7c-0.2-0.2-0.2-0.6,0-0.8l13.7-13.2        c0.2-0.2,0.6-0.2,0.8,0l13.2,13.7C345.5,245.7,345.5,246,345.3,246.2z"/></g><g><line class="st5" x1="181.4" x2="274.8" y1="289.4" y2="199.6"/><ellipse class="st6" cx="174.9" cy="295.7" rx="9.1" ry="9.1" transform="matrix(0.7206 -0.6934 0.6934 0.7206 -156.1685 203.9009)"/><ellipse class="st6" cx="280.3" cy="194.3" rx="9.1" ry="9.1" transform="matrix(0.7206 -0.6934 0.6934 0.7206 -56.3595 248.6554)"/></g><path class="st7" d="M241,246l-13.7,13.2c-0.2,0.2-0.6,0.2-0.8,0l-13.2-13.7c-0.2-0.2-0.2-0.6,0-0.8l13.7-13.2       c0.2-0.2,0.6-0.2,0.8,0l13.2,13.7C241.3,245.5,241.2,245.8,241,246z"/></g><circle class="st8" cx="278.2" cy="298.4" r="36.8"/></g></g></g></svg>