<?xml version="1.0" ?><!DOCTYPE svg  PUBLIC '-//W3C//DTD SVG 1.1//EN'  'http://www.w3.org/Graphics/SVG/1.1/DTD/svg11.dtd'><svg id="Layer_1" style="enable-background:new 0 0 512 512;" version="1.1" viewBox="0 0 512 512" xml:space="preserve" xmlns="http://www.w3.org/2000/svg" xmlns:xlink="http://www.w3.org/1999/xlink"><style type="text/css">
	.st0{fill:#D8D5F2;stroke:#5D5185;stroke-width:9;stroke-miterlimit:10;}
	.st1{fill:#FFFFFF;stroke:#5D5185;stroke-width:9;stroke-miterlimit:10;}
	.st2{fill:#F2F1B1;stroke:#5D5185;stroke-width:9;stroke-miterlimit:10;}
	.st3{fill:#FFE5C0;stroke:#5D5185;stroke-width:9;stroke-miterlimit:10;}
	.st4{fill:#FFC1C1;stroke:#5D5185;stroke-width:9;stroke-miterlimit:10;}
	.st5{fill:#FFFFFF;}
	.st6{opacity:0.14;fill:#6C6B79;}
</style><g><g><g><polygon class="st0" points="96.8,200.7 96.8,40.6 335.2,40.6 431.4,132.9 431.4,471.4 96.8,471.4 96.8,144.9     "/><path class="st1" d="M429.7,132.9h-94.5V42.2c0-0.6,0.7-0.9,1.1-0.5l93.9,90.1C430.6,132.2,430.3,132.9,429.7,132.9z"/></g><g><rect class="st2" height="110.2" width="46.5" x="172.8" y="185.9"/><rect class="st3" height="74.3" width="49.5" x="237.8" y="221.8"/><rect class="st4" height="45.1" width="49.5" x="305.8" y="251"/></g><g><polygon class="st5" points="208.2,354.3 215.8,354.3 227.3,375.2 239.2,354.3 246.9,354.3 231.2,379 247.6,405.7 239.7,405.7       226.8,384.2 215.1,405.7 207,405.7 223.2,379.2     "/><polygon class="st5" points="257.1,353.2 264.4,353.2 264.4,400.1 286,400.1 286,405.5 257.1,405.5     "/><path class="st5" d="M321.7,356.4c0,0-6.2-3.2-13.1-2.5c-6.9,0.7-9,2.6-12,5.9c-2.3,2.6-3.1,8.9-1.4,12.6s5.9,7,7.9,7.9      c3.3,1.5,8.9,3.8,8.9,3.8s5.1,2.5,4.9,7.3c-0.1,4.8-2.2,6.7-5.2,7.9c-3,1.2-6.3,1-9.5,0.6c-3.2-0.4-7.4-2.8-7.4-2.8l-1.6,5.6      c0,0,5.1,3.3,11.9,3.3c6.8,0,10.8-1.4,13.2-3.6c1.7-1.5,4.9-4.8,5.2-8.4c0,0,1.6-7.1-2.6-11.4c-3.2-3.3-8.4-5.6-8.4-5.6      s-7.4-2.8-8.3-3.8c-0.7-0.8-4.4-3.3-3-7.9c0.9-3,3.5-5.2,6.6-5.8c1.7-0.3,3.8-0.5,6.3,0.1c6.4,1.5,5.6,2,5.6,2L321.7,356.4z"/></g><polygon class="st6" points="426.9,137.4 346,155.4 342.2,137.4    "/></g></g></svg>