<?xml version="1.0" ?><!DOCTYPE svg  PUBLIC '-//W3C//DTD SVG 1.1//EN'  'http://www.w3.org/Graphics/SVG/1.1/DTD/svg11.dtd'><svg id="Layer_1" style="enable-background:new 0 0 512 512;" version="1.1" viewBox="0 0 512 512" xml:space="preserve" xmlns="http://www.w3.org/2000/svg" xmlns:xlink="http://www.w3.org/1999/xlink"><style type="text/css">
	.st0{fill:#FFE5C0;stroke:#5D5185;stroke-width:9;stroke-miterlimit:10;}
	.st1{fill:#FFFFFF;stroke:#5D5185;stroke-width:9;stroke-miterlimit:10;}
	.st2{fill:#FFFFFF;}
	.st3{fill:#C4E3F0;stroke:#5D5185;stroke-width:9;stroke-miterlimit:10;}
	.st4{fill:#FFB2B2;stroke:#5D5185;stroke-width:9;stroke-miterlimit:10;}
	.st5{opacity:0.14;fill:#807360;}
</style><g><g><g><polyline class="st0" points="96.6,175.2 96.6,40.6 335.1,40.6 431.2,132.9 431.2,471.4 96.6,471.4 96.6,175.2     "/><path class="st1" d="M429.6,132.9h-94.5V42.2c0-0.6,0.7-0.9,1.1-0.5l93.9,90.1C430.5,132.2,430.2,132.9,429.6,132.9z"/></g><g><path class="st2" d="M233.8,356.6c-2.6-7.1-9.5-9-15.3-9.5c-5.8-0.6-16.1,0.9-16.1,0.9v51.4h6.8v-21c0.4,0.8,6.1,0.7,6.1,0.7      c8.8,0,11.6-2.6,15-5.6C233.6,370.5,236.4,363.8,233.8,356.6z M226.7,368c-1.8,3.5-5.3,4.6-8.1,5.2c-2.8,0.6-9.2,0-9.2,0v-20.6      c0,0,5.4-0.7,8.5-0.4c0.7,0.1,2.5,0.4,3.6,0.8c2.7,0.9,4,2.3,5.3,4.1C228.5,360.3,228.8,363.9,226.7,368z"/><polygon class="st2" points="279,350.1 279,355.3 293.6,355.3 293.6,399.4 300.3,399.4 300.3,355.5 315.2,355.5 315.2,350.1           "/><path class="st2" d="M274.2,356.6c-2.6-7.1-9.5-9-15.3-9.5s-16.1,0.9-16.1,0.9v51.4h6.8v-21c0.4,0.8,6.1,0.7,6.1,0.7      c8.8,0,11.6-2.6,15-5.6C274.1,370.5,276.9,363.8,274.2,356.6z M267.1,368c-1.8,3.5-5.3,4.6-8.1,5.2c-2.8,0.6-9.2,0-9.2,0v-20.6      c0,0,5.4-0.7,8.5-0.4c0.7,0.1,2.5,0.4,3.6,0.8c2.7,0.9,4,2.3,5.3,4.1C269,360.3,269.3,363.9,267.1,368z"/></g><path class="st3" d="M317,239.4c0,35.2-28.6,63.8-63.8,63.8c-35.2,0-63.8-28.6-63.8-63.8c0-35.2,28.6-63.8,63.8-63.8v63.8H317z"/><path class="st4" d="M338.5,220h-63.8v-63.8C309.9,156.2,338.5,184.8,338.5,220z"/><polygon class="st5" points="426.8,137.5 346,155.5 342.2,137.5    "/></g></g></svg>