<?xml version="1.0" ?><!DOCTYPE svg  PUBLIC '-//W3C//DTD SVG 1.1//EN'  'http://www.w3.org/Graphics/SVG/1.1/DTD/svg11.dtd'><svg id="Layer_1" style="enable-background:new 0 0 512 512;" version="1.1" viewBox="0 0 512 512" xml:space="preserve" xmlns="http://www.w3.org/2000/svg" xmlns:xlink="http://www.w3.org/1999/xlink"><style type="text/css">
	.st0{fill:#FFD4C2;stroke:#5D5185;stroke-width:9;stroke-miterlimit:10;}
	.st1{opacity:0.12;fill:#605049;}
	.st2{fill:#FFFFFF;stroke:#5D5185;stroke-width:9;stroke-miterlimit:10;}
	.st3{fill:#D8D5F2;stroke:#5D5185;stroke-width:9;stroke-miterlimit:10;}
	.st4{fill:#FFEF99;stroke:#5D5185;stroke-width:9;stroke-miterlimit:10;}
	.st5{fill:#F2F1B1;stroke:#5D5185;stroke-width:9;stroke-miterlimit:10;}
	.st6{fill:#FFFFFF;}
</style><g><g><polyline class="st0" points="91.4,175.2 91.4,40.6 329.9,40.6 426,132.9 426,471.4 91.4,471.4 91.4,175.2    "/><polygon class="st1" points="421.6,137.4 340.8,155.4 337,137.4    "/><path class="st2" d="M425.1,132.9h-95.2V41.5c0-0.3,0.4-0.5,0.6-0.3l94.9,91.1C425.6,132.5,425.5,132.9,425.1,132.9z"/><g><rect class="st3" height="139.3" width="161.8" x="177.1" y="181.3"/><circle class="st4" cx="277.9" cy="219" r="14.9"/><polyline class="st5" points="177.1,286.4 202.6,270.5 234.9,219 277.9,287.6 303.7,253.3 330.8,287.6 338.9,293.2 338.9,320.9       177.1,320.9 177.1,286.4     "/></g><g><path class="st6" d="M241.5,366.1c-2.4-6.6-8.8-8.3-14.1-8.8c-5.3-0.5-14.9,0.9-14.9,0.9v47.4h6.3v-19.4      c0.4,0.8,5.6,0.6,5.6,0.6c8.1,0,10.7-2.4,13.8-5.2C241.3,378.8,243.9,372.6,241.5,366.1z M234.9,376.5c-1.7,3.2-4.9,4.3-7.5,4.8      c-2.6,0.5-8.5,0-8.5,0v-19c0,0,5-0.7,7.8-0.3c0.7,0.1,2.3,0.4,3.4,0.7c2.5,0.9,3.7,2.1,4.9,3.8      C236.6,369.4,236.9,372.8,234.9,376.5z"/><path class="st6" d="M320.5,363.6c-0.3-0.5-6.6-1.7-10-1.9c-3.4-0.2-8.1,0-12.3,3.2c-4.3,3.2-6.6,8.6-7.4,11.3      c-0.8,2.7-1.3,11.6,2.6,16.9c3.9,5.3,7.7,6.8,12.4,7.5c4.9,0.8,11.4-0.8,11.4-0.8v-14.7h-9.9v-5.1h16.3v23.9l-2.2,0.7      c-2.2,0.7-4.5,1.2-6.9,1.4c-3.8,0.3-8.3,0.2-12.6-0.4c-6-0.7-11.2-5.4-11.2-5.4c-4.9-4.9-6.1-10.4-6.5-12s-1.3-10.8,1.4-17.4      c2.7-6.6,7.8-9.8,9.1-10.7c1.3-0.9,4.6-3.4,13-3.9c7.1-0.4,14.2,2.2,14.2,2.2L320.5,363.6z"/><path class="st6" d="M196.7,357.1h6.5V391c0,0,0.4,5.3-2.1,8.6c-2.1,2.8-4.4,5.6-11.3,5.9c-6,0.3-7.9-1.1-7.9-1.1l0.9-5      c0,0,3.6,1.9,6.9,0.9c0,0,4.5-1,6.1-4.4c0,0,0.9-1.2,1-4.6C196.9,389.6,196.7,357.1,196.7,357.1z"/><polygon class="st6" points="250.9,357 277.1,357 277.1,362.4 256.9,362.4 256.9,378.1 275.9,378.1 275.9,383.5 257,383.5       257,400.6 277.1,400.6 277.1,405.6 250.9,405.6     "/></g></g></g></svg>