<?xml version="1.0" ?><svg style="enable-background:new 0 0 64 64;" version="1.1" viewBox="0 0 64 64" xml:space="preserve" xmlns="http://www.w3.org/2000/svg" xmlns:xlink="http://www.w3.org/1999/xlink"><style type="text/css">
	.st0{fill:#0072FF;}
</style><g id="GUIDES_64"/><g id="Layer_3"/><g id="Layer_2"><path class="st0" d="M30.4,33.1c0.2,0.3,0.7,0.2,0.6-0.2l-3.4-17.2c-0.7-2.8-2.7-3.6-5.2-3.7v0h-18c-0.2,0-0.4,0.2-0.4,0.4   c0,0.2,0.1,0.4,0.3,0.5C17.1,16.2,26,23.9,30.4,33.1z"/><path class="st0" d="M52.7,12l-7.2,0c-0.9,0-1.7,0.6-2.1,1.4L32.8,42l0,0c0,0,0,0,0,0l0,0l0,0C30.4,35.7,26.1,30,20,25.6   c-0.8-0.6-2,0.2-1.7,1.2l7.2,27.1c0.3,1.3,1.5,2.1,2.8,2.1l7.9,0c1.2,0,2.2-0.7,2.7-1.8l15.9-39.1C55.3,13.6,54.2,12,52.7,12z"/></g></svg>