<?xml version="1.0" ?><svg style="enable-background:new 0 0 64 64;" version="1.1" viewBox="0 0 64 64" xml:space="preserve" xmlns="http://www.w3.org/2000/svg" xmlns:xlink="http://www.w3.org/1999/xlink"><style type="text/css">
	.st0{fill:#0072FF;}
</style><g id="GUIDES_64"/><g id="Layer_3"/><g id="Layer_2"><path class="st0" d="M8.2,35.7l10.3,6.7c1.2,0.8,2.9,0.7,4-0.2l7.6-6.4c0.9-0.8,0.8-2.2-0.2-2.8l-13.3-8.2c-0.6-0.4-1.4-0.3-2,0.1   l-6.7,5.3C6.1,31.7,6.2,34.4,8.2,35.7z"/><path class="st0" d="M14.6,23.3c0.6,0.5,1.4,0.5,2,0.1l13.3-8.2c1-0.6,1.1-2.1,0.2-2.8L22.5,6c-1.1-1-2.8-1-4-0.2L8.2,12.5   c-1.9,1.3-2.1,4-0.3,5.5L14.6,23.3z"/><path class="st0" d="M55.8,12.5L45.5,5.8c-1.2-0.8-2.9-0.7-4,0.2l-7.6,6.4c-0.9,0.8-0.8,2.2,0.2,2.8l13.3,8.2   c0.6,0.4,1.4,0.3,2-0.1l6.7-5.3C57.9,16.6,57.8,13.8,55.8,12.5z"/><path class="st0" d="M56.1,30.2l-6.7-5.3c-0.6-0.5-1.4-0.5-2-0.1L34.1,33c-1,0.6-1.1,2.1-0.2,2.8l7.6,6.4c1.1,1,2.8,1,4,0.2   l10.3-6.7C57.8,34.4,57.9,31.7,56.1,30.2z"/><path class="st0" d="M16.4,49.9l9.5,5.7c3.8,2.3,8.5,2.3,12.3,0l9.5-5.7c0.4-0.3,0.7-0.8,0.7-1.3v0c0-1.2-1.3-1.9-2.3-1.2l-1.7,1.1   c-0.5,0.4-1.3,0.3-1.8-0.1l-9.7-8c-0.6-0.5-1.3-0.5-1.9,0l-9.7,8c-0.5,0.4-1.2,0.5-1.8,0.1L18,47.4c-1-0.6-2.3,0.1-2.3,1.2v0   C15.7,49.1,16,49.6,16.4,49.9z"/></g></svg>