<?xml version="1.0" ?><svg style="enable-background:new 0 0 64 64;" version="1.1" viewBox="0 0 64 64" xml:space="preserve" xmlns="http://www.w3.org/2000/svg" xmlns:xlink="http://www.w3.org/1999/xlink"><style type="text/css">
	.st0{fill:#0072FF;}
</style><g id="GUIDES_64"/><g id="Layer_3"/><g id="Layer_2"><path class="st0" d="M39,12.5c0.8-2.2-0.9-4.5-3.2-4.5h-6.7c-3.4,0-6.5,2.2-7.7,5.4l-14.8,42C5.9,57.7,7.6,60,9.9,60h8.9   c2.1,0,4.1-1.4,4.8-3.4l8.4-24L39,12.5z"/><path class="st0" d="M54.1,60c2.4,0,4-2.3,3.2-4.5L45.1,20.8c-0.3-1-1.7-1-2,0l-4.8,13.8l-1.8,5c-0.7,1.9-0.7,3.9,0,5.8l3.9,11.2   c0.7,2,2.6,3.4,4.8,3.4H54.1z"/></g></svg>