<?xml version="1.0" ?><svg style="enable-background:new 0 0 64 64;" version="1.1" viewBox="0 0 64 64" xml:space="preserve" xmlns="http://www.w3.org/2000/svg" xmlns:xlink="http://www.w3.org/1999/xlink"><style type="text/css">
	.st0{fill:#0072FF;}
</style><g id="GUIDES_64"/><g id="Layer_3"/><g id="Layer_2"><path class="st0" d="M13.1,31.1c-0.9,1.4-1.3,5.8-1,8.8c0.1,1,0.3,1.8,0.6,2.3c0.4,0.7,1,1.1,1.7,1.1c0.4,0,0.7-0.1,9.1-2.7   c0,0,3.7-1.1,3.7-1.2c0.9-0.2,1.6-1.1,1.6-2.1c0.1-1.1-0.5-2-1.5-2.4c0,0-2.6-1-2.6-1c-9-3.6-9.4-3.7-9.9-3.7   C14.1,30.1,13.5,30.5,13.1,31.1z"/><path class="st0" d="M28.2,44c0,0-1.8,2.1-1.8,2.1c-6.3,7.3-6.6,7.6-6.7,8c-0.3,0.6,0,1.5,0.4,1.9c1.6,1.6,8.4,4.2,10.8,3.9   c0.8-0.1,1.3-0.6,1.6-1.2c0.1-0.4,0.2-0.7,0.2-9.3c0,0,0-3.8,0-3.9c0.1-0.9-0.6-1.8-1.6-2.2C29.9,43,28.8,43.2,28.2,44z"/><path class="st0" d="M43.3,42.7c0,0-3.7-1.2-3.8-1.2c-0.9-0.3-1.9,0-2.6,0.8c-0.7,0.8-0.8,1.9-0.2,2.8l1.5,2.3   c5,7.8,5.4,8.3,5.8,8.6c0.6,0.4,1.3,0.5,2,0.2c2.1-0.8,6.8-6.5,7.1-8.6c0.1-0.8-0.1-1.4-0.7-1.8C52,45.4,51.7,45.3,43.3,42.7z"/><path class="st0" d="M53.1,30.4c-0.2-2.3-4.3-8.4-6.3-9.4c-0.7-0.3-1.4-0.3-2,0.1c-0.4,0.2-0.6,0.6-5.7,7.6c0,0-2.3,3.1-2.3,3.2   c-0.6,0.7-0.6,1.8,0,2.7c0.6,0.9,1.6,1.4,2.6,1.1c0,0,1.3-0.3,2.8-0.7c9.5-2.3,9.8-2.4,10.2-2.7C52.8,31.9,53.1,31.3,53.1,30.4   C53.1,30.5,53.1,30.5,53.1,30.4z"/><path class="st0" d="M29.7,4.1c-2.4-0.6-11.7,2-13.4,3.7c-0.6,0.6-0.8,1.3-0.6,1.9c0.3,0.5,11.7,18.2,11.7,18.2   c1.7,2.7,3.1,2.3,3.5,2.1c0.4-0.1,1.3-0.4,1.3-3.6c0-3.9-1-20.2-1.1-20.9C31.1,4.8,30.5,4.3,29.7,4.1z"/></g></svg>