<?xml version="1.0" ?><svg style="enable-background:new 0 0 64 64;" version="1.1" viewBox="0 0 64 64" xml:space="preserve" xmlns="http://www.w3.org/2000/svg" xmlns:xlink="http://www.w3.org/1999/xlink"><style type="text/css">
	.st0{fill:#0072FF;}
</style><g id="GUIDES_64"/><g id="Layer_3"/><g id="Layer_2"><path class="st0" d="M34.5,11.9c-1.2-0.6-2.6-0.7-3.9-0.4c-1.1,0.3-2.2,0.9-3,1.7c-7.2,7.1-14.3,14.2-21.5,21.3   c-0.8,0.8-1.5,1.8-1.7,3c-0.6,2,0.1,4.3,1.7,5.8c5,5,10.1,10,15.1,15c1.1,1.1,2.7,1.8,4.3,1.8c4.1,0,8.3,0,12.4,0   c1.9,0.1,3.7-0.5,5-1.9c4.6-4.5,9.1-9,13.7-13.6c0.7-0.7,1.6-1.4,2.2-2.3c1.1-1.6,1.3-3.7,0.6-5.5c-0.5-1.4-1.7-2.4-2.8-3.5   c-6.4-6.3-12.7-12.6-19.1-18.9C36.6,13.4,35.8,12.4,34.5,11.9z M20.9,41.3c-0.4,0.5-0.9,0.6-1.5,0.7c-1,0.1-2-0.4-2.7-1.1   c-0.5-0.5-1-1-1.5-1.6c-0.4-0.5,0.1-1,0.5-1.4c4.7-4.6,9.4-9.3,14.1-14c0.6-0.6,1.2-1.3,1.9-1.8c0.6-0.3,1.1,0.4,1.5,0.7   c0.9,0.9,1.8,1.7,2.6,2.7c0.4,0.5,0,1-0.4,1.4C30.6,31.7,25.7,36.5,20.9,41.3z M35.7,52.3c-0.5,0.6-1,1.1-1.6,1.6   c-0.6,0.5-1.4,0.9-2.2,0.9c-0.1,0-0.2,0-0.2,0c-0.7,0-1.4-0.3-1.9-0.8c-0.3-0.3-0.6-0.7-1-1c-0.5-0.4-1.2-1.1-0.6-1.7   c1-1.1,2.1-2.1,3.2-3.1c0.4-0.3,1-0.2,1.4,0.2c0.9,0.9,1.9,1.8,2.8,2.8C35.9,51.3,36.1,51.9,35.7,52.3z M35.5,39.8   c-2.7,2.7-5.4,5.3-8,8c-0.4,0.5-0.9,0.6-1.4,0.6c-1.1,0.1-2.1-0.4-2.9-1.1c-0.4-0.4-0.9-0.9-1.3-1.4c-0.5-0.5,0-1.1,0.4-1.5   c2.7-2.6,5.4-5.3,8-8c0.5-0.5,0.9-1,1.5-1.4c0.6-0.3,1,0.3,1.4,0.7c0.9,0.9,1.9,1.8,2.7,2.8C36.2,38.9,35.8,39.4,35.5,39.8z"/></g></svg>