<?xml version="1.0" ?><!DOCTYPE svg  PUBLIC '-//W3C//DTD SVG 1.1//EN'  'http://www.w3.org/Graphics/SVG/1.1/DTD/svg11.dtd'><svg height="100%" style="fill-rule:evenodd;clip-rule:evenodd;stroke-linejoin:round;stroke-miterlimit:1.41421;" version="1.1" viewBox="0 0 101 126" width="100%" xml:space="preserve" xmlns="http://www.w3.org/2000/svg" xmlns:serif="http://www.serif.com/" xmlns:xlink="http://www.w3.org/1999/xlink"><path d="M78.794,28.866l-33.4,1.7c-1,0 -1.9,0.5 -2.6,1.2l-34.7,34.6c-3.1,3.1 -3.1,8.2 0,11.3l27.5,27.5c1.5,1.5 3.5,2.3 5.7,2.3c2.1,0 4.1,-0.8 5.7,-2.3l34.7,-34.7c0.7,-0.7 1.1,-1.6 1.2,-2.6l1.7,-33.4l9.3,-9.3l-5.7,-5.7l-9.4,9.4Zm-3.9,37.1l-33.6,33.6l-27.5,-27.5l33.6,-33.6l23,-1.2l-4.5,4.5c-4.5,-2.1 -10,-1.4 -13.6,2.3c-4.7,4.7 -4.7,12.3 0,17c2.3,2.3 5.4,3.5 8.5,3.5c3.1,0 6.1,-1.2 8.5,-3.5c3.7,-3.7 4.5,-9.2 2.3,-13.6l4.5,-4.5l-1.2,23Zm-10.1,-13.4c0,1.1 -0.4,2.1 -1.2,2.8c-1.6,1.6 -4.1,1.6 -5.7,0c-0.8,-0.8 -1.2,-1.8 -1.2,-2.8c0,-1.1 0.4,-2.1 1.2,-2.8c0.8,-0.8 1.8,-1.2 2.8,-1.2c1,0 2,0.4 2.8,1.2c0.9,0.7 1.3,1.7 1.3,2.8Z" style="fill-rule:nonzero;"/><path d="M74.894,65.966l-33.6,33.6l-27.5,-27.5l33.6,-33.6l23,-1.2l-4.5,4.5c-4.5,-2.1 -10,-1.4 -13.6,2.3c-4.7,4.7 -4.7,12.3 0,17c2.3,2.3 5.4,3.5 8.5,3.5c3.1,0 6.1,-1.2 8.5,-3.5c3.7,-3.7 4.5,-9.2 2.3,-13.6l4.5,-4.5l-1.2,23Z" style="fill:#ff0c0c;"/><path d="M53.394,37.266l-34.1,40.3l-5.5,-5.5l34.8,-34.8l4.8,0Z" style="fill:#020000;fill-opacity:0.199643;"/></svg>