<?xml version="1.0" ?><svg id="Слой_1" style="enable-background:new 0 0 512 512;" version="1.1" viewBox="0 0 512 512" xml:space="preserve" xmlns="http://www.w3.org/2000/svg" xmlns:xlink="http://www.w3.org/1999/xlink"><style type="text/css">
	.st0{fill:#234F77;}
	.st1{fill:#0939B2;}
	.st2{fill:#BA0000;}
	.st3{fill:#006BCC;}
	.st4{fill:#E02828;}
	.st5{fill:#1C6C99;}
	.st6{fill:#11AAED;}
	.st7{fill:#132AD3;}
	.st8{fill:#FF8500;}
	.st9{fill:url(#SVGID_1_);}
	.st10{fill:url(#SVGID_2_);}
	.st11{fill:url(#SVGID_3_);}
</style><g id="XMLID_8_"><g><path class="st7" d="M256,8.4c136.8,0,247.6,110.9,247.6,247.6S392.8,503.6,256,503.6S8.4,392.8,8.4,256S119.2,8.4,256,8.4z     M397.4,422.3V265.8c0-16.6-6.7-31.6-17.6-42.5c-10.9-10.9-25.9-17.6-42.5-17.6c-21.3,0-39.9,11-50.6,27.7c-0.8,1.2-2.6,1-3.1-0.4    c-7.1-19.3-25.7-33.1-47.5-33.1h0c-17.9,0-33.6,9.3-42.6,23.3l-0.1,0c-0.7-10.2-5.3-19.4-12.4-26s-16.5-10.6-26.9-10.6    c-21.8,0-39.5,17.7-39.5,39.4v99.8c0,4.8,3.9,8.7,8.7,8.7h62.2c0,0,0,30.8,0,46.3c0,4.8,3.9,8.7,8.7,8.7h82.9c0,0,0,20.6,0,32.8    c0,4.8,3.9,8.7,8.7,8.7h102.8C393.5,431,397.4,427.1,397.4,422.3z M387.8,131.6c0-27.9-22.6-50.6-50.6-50.6    c-27.9,0-50.6,22.6-50.6,50.6s22.6,50.6,50.6,50.6C365.2,182.1,387.8,159.5,387.8,131.6z M278.7,137.5c0-23.5-19.1-42.6-42.6-42.6    c-23.5,0-42.6,19.1-42.6,42.6s19.1,42.6,42.6,42.6C259.6,180.1,278.7,161,278.7,137.5z M187.3,137.9c0-18.3-14.9-33.2-33.2-33.2    c-18.3,0-33.2,14.9-33.2,33.2c0,18.3,14.9,33.2,33.2,33.2C172.4,171.1,187.3,156.2,187.3,137.9z"/></g></g></svg>