<?xml version="1.0" ?><!DOCTYPE svg  PUBLIC '-//W3C//DTD SVG 1.1//EN'  'http://www.w3.org/Graphics/SVG/1.1/DTD/svg11.dtd'><svg enable-background="new 0 0 34.234 40.576" height="40.576px" id="Layer_1" version="1.1" viewBox="0 0 34.234 40.576" width="34.234px" xml:space="preserve" xmlns="http://www.w3.org/2000/svg" xmlns:xlink="http://www.w3.org/1999/xlink"><g><g><path d="M17.653,40.576c-3.842,0-7.763-0.317-11.816-0.95c-0.304-0.048-0.548-0.276-0.615-0.576    c-2.237-9.929-3.159-19.171-2.818-28.255c0.016-0.414,0.371-0.727,0.777-0.721c0.414,0.016,0.736,0.364,0.721,0.778    c-0.329,8.8,0.545,17.758,2.672,27.37c7.478,1.122,14.494,1.139,21.41,0.051l0.603-26.795c0.011-0.414,0.4-0.733,0.767-0.733    c0.414,0.009,0.742,0.353,0.733,0.767L29.469,38.93c-0.008,0.36-0.271,0.664-0.627,0.723    C25.153,40.268,21.441,40.576,17.653,40.576z"/></g><g><path d="M29.336,11.911c-0.045,0-0.09-0.004-0.135-0.012c-5.614-1.027-11.238-1.009-17.189-0.99    c-3.251,0.009-6.612,0.021-10.063-0.145c-0.324-0.016-0.603-0.239-0.688-0.553L0.026,5.647c-0.062-0.225-0.014-0.466,0.128-0.651    C0.297,4.811,0.517,4.702,0.75,4.702c0.896,0,1.715-0.004,2.482-0.008c0.9-0.004,1.732-0.009,2.529-0.005    c0.159-4.017,0.842-4.675,4.772-4.684C14.302-0.001,18.071,0,21.909,0.001l4.941,0.001c0.357,0,0.665,0.252,0.735,0.603    l0.644,3.213l5.392,1c0.377,0.07,0.64,0.412,0.611,0.794l-0.317,4.166c-0.022,0.291-0.211,0.543-0.484,0.646L29.6,11.863    C29.515,11.895,29.426,11.911,29.336,11.911z M14.38,9.403c5.086,0,9.966,0.104,14.886,0.982l3.19-1.198l0.229-3.017l-5.229-0.971    c-0.301-0.056-0.538-0.289-0.599-0.589l-0.623-3.109l-4.327-0.001c-3.834,0-7.604-0.002-11.37,0.004    c-3.063,0.007-3.153,0.007-3.275,3.2C7.352,4.707,7.441,4.708,7.531,4.71c2.687,0.06,5.371,0.143,8.057,0.226l3.363,0.103    c0.414,0.012,0.739,0.357,0.728,0.771c-0.013,0.407-0.346,0.728-0.75,0.728c-0.007,0-0.015,0-0.022,0l-3.365-0.102    C12.86,6.353,10.181,6.27,7.498,6.21C6.151,6.181,4.805,6.188,3.239,6.194c-0.48,0.002-0.982,0.005-1.51,0.006L2.565,9.29    c3.224,0.138,6.382,0.129,9.441,0.119C12.804,9.406,13.595,9.403,14.38,9.403z"/></g><g><path d="M15.641,33.009c-0.529,0-1.047-0.051-1.531-0.156c-1.553-0.337-2.605-2.905-2.871-4.095    c-0.358-1.6-0.41-3.276-0.455-4.754c-0.019-0.593-0.035-1.168-0.071-1.714c-0.017-0.243,0.086-0.478,0.275-0.631l3.879-3.154    c0.075-0.061,0.162-0.107,0.255-0.135c3-0.914,5.475,0.178,7.147,3.166c0.095,0.169,0.117,0.359,0.077,0.534    c0.003,0.016,0.007,0.032,0.009,0.049l0.062,0.381c0.531,3.271,1.132,6.977-2.469,9.332    C18.796,32.583,17.174,33.009,15.641,33.009z M12.231,22.58c0.022,0.445,0.036,0.906,0.051,1.378    c0.046,1.48,0.092,3.012,0.419,4.472c0.313,1.398,1.238,2.851,1.727,2.957c1.478,0.32,3.498-0.027,4.699-0.813    c2.784-1.821,2.311-4.743,1.809-7.836l-0.062-0.384c-0.014-0.081-0.013-0.161,0-0.238c-1.303-2.231-2.955-2.986-5.178-2.354    L12.231,22.58z"/></g><g><path d="M5.164,32.05c-0.381,0-0.707-0.289-0.745-0.675c-0.041-0.412,0.26-0.78,0.672-0.821l6.714-0.672    c0.406-0.045,0.779,0.259,0.82,0.671c0.041,0.412-0.259,0.78-0.672,0.821l-6.714,0.672C5.214,32.049,5.189,32.05,5.164,32.05z"/></g><g><path d="M21.948,22.651c-0.365,0-0.685-0.267-0.74-0.639c-0.062-0.41,0.221-0.792,0.63-0.853l6.715-1.007    c0.413-0.065,0.791,0.221,0.854,0.631c0.061,0.41-0.222,0.791-0.631,0.853l-6.715,1.007    C22.022,22.649,21.985,22.651,21.948,22.651z"/></g><g><path d="M27.994,31.715c-0.026,0-0.053-0.001-0.079-0.004l-6.379-0.672c-0.412-0.043-0.711-0.413-0.668-0.825    c0.044-0.412,0.422-0.702,0.824-0.667l6.379,0.672c0.412,0.043,0.711,0.413,0.668,0.825    C28.698,31.429,28.373,31.715,27.994,31.715z"/></g><g><path d="M11.544,22.651c-0.021,0-0.044-0.001-0.066-0.003l-7.719-0.672c-0.413-0.036-0.719-0.399-0.683-0.812    c0.036-0.412,0.412-0.712,0.812-0.682l7.721,0.672c0.412,0.036,0.718,0.399,0.682,0.812    C12.256,22.357,11.929,22.651,11.544,22.651z"/></g></g></svg>