<?xml version="1.0" ?><!DOCTYPE svg  PUBLIC '-//W3C//DTD SVG 1.1//EN'  'http://www.w3.org/Graphics/SVG/1.1/DTD/svg11.dtd'><svg enable-background="new 0 0 31.139 39.487" height="39.487px" id="Layer_1" version="1.1" viewBox="0 0 31.139 39.487" width="31.139px" xml:space="preserve" xmlns="http://www.w3.org/2000/svg" xmlns:xlink="http://www.w3.org/1999/xlink"><g><g><path d="M15.448,30.694c-6.645,0.001-12.478-3.423-14.576-9.149c-1.262-3.44-1.155-6.885,0.324-10.525    c-0.01-0.013-0.02-0.025-0.029-0.038c-0.141-0.194-0.181-0.443-0.107-0.672c0.25-0.774,0.496-1.512,0.733-2.227    c0.514-1.547,1-3.008,1.409-4.465c0.729-2.591,2.293-3.694,5.13-3.614c3.696,0.119,7.344,0.097,11.203,0.07    c1.587-0.01,3.19-0.02,4.816-0.02c0.307,0,0.582,0.187,0.696,0.472l3.76,9.398c0.052,0.129,0.065,0.265,0.045,0.394    c2.34,3.969,2.906,8.104,1.594,11.665c-1.301,3.528-4.321,6.24-8.507,7.637C19.757,30.349,17.561,30.694,15.448,30.694z     M2.675,11.29c-0.008,0.069-0.024,0.139-0.053,0.207c-1.367,3.313-1.479,6.43-0.342,9.532c2.485,6.779,10.907,9.927,19.185,7.168    c3.744-1.25,6.435-3.641,7.574-6.732c1.131-3.068,0.647-6.668-1.357-10.175H2.675z M2.808,9.79h24.331l-3.295-8.235    c-1.449,0.002-2.881,0.011-4.299,0.02C15.668,1.6,12.006,1.62,8.284,1.504c-2.105-0.086-3.103,0.613-3.639,2.52    c-0.418,1.491-0.909,2.969-1.43,4.533C3.082,8.96,2.945,9.37,2.808,9.79z"/></g><g><path d="M24.42,39.487H6.292c-0.414,0-0.75-0.336-0.75-0.75s0.336-0.75,0.75-0.75H24.42c0.414,0,0.75,0.336,0.75,0.75    S24.834,39.487,24.42,39.487z"/></g><g><path d="M15.446,27.075c-0.152,0-0.305-0.003-0.459-0.01c-0.414-0.018-0.735-0.367-0.717-0.781    c0.019-0.415,0.409-0.753,0.781-0.717c2.841,0.115,5.1-1.043,7.632-2.829c2.265-1.598,2.49-3.758,2.752-6.259    c0.07-0.668,0.143-1.358,0.259-2.039c0.07-0.407,0.46-0.677,0.866-0.612c0.408,0.07,0.683,0.458,0.612,0.866    c-0.109,0.641-0.178,1.291-0.245,1.94c-0.274,2.625-0.559,5.339-3.379,7.329C21.248,25.587,18.678,27.075,15.446,27.075z"/></g><g><path d="M15.019,38.145c-0.397,0-0.729-0.313-0.748-0.715l-0.335-7.05c-0.02-0.414,0.3-0.765,0.714-0.784    c0.377-0.031,0.765,0.3,0.784,0.714l0.335,7.05c0.02,0.413-0.3,0.765-0.714,0.784C15.043,38.145,15.031,38.145,15.019,38.145z"/></g></g></svg>