<?xml version="1.0" ?><!DOCTYPE svg  PUBLIC '-//W3C//DTD SVG 1.1//EN'  'http://www.w3.org/Graphics/SVG/1.1/DTD/svg11.dtd'><svg enable-background="new 0 0 34.953 39.958" height="39.958px" id="Layer_1" version="1.1" viewBox="0 0 34.953 39.958" width="34.953px" xml:space="preserve" xmlns="http://www.w3.org/2000/svg" xmlns:xlink="http://www.w3.org/1999/xlink"><g><g><path d="M21.079,25.173c-2.037,0-4.219-0.503-6.101-0.937l-0.783-0.18c-1.584-0.358-4.4-1.267-4.763-1.456    c-2.896-1.506-3.625-2.4-4.598-4.08c-0.771-1.331-0.688-3.009,0.228-4.603c1.104-1.923,3.074-3.17,5.017-3.177l1.008-0.004    c2.242-0.009,4.488-0.017,6.728,0.019c0.597,0.01,1.172,0.111,1.728,0.209c0.239,0.042,0.478,0.084,0.716,0.118    c0.09,0.013,0.174,0.041,0.25,0.082c0.123-0.03,0.257-0.028,0.389,0.011l5.201,1.56c0.136,0.041,0.257,0.12,0.351,0.227    c0.267,0.308,0.607,0.641,0.972,0.999c1.737,1.708,4.363,4.289,2.167,7.189c-1.136,1.5-4.04,2.944-5.416,3.498    C23.228,25.028,22.174,25.173,21.079,25.173z M14.056,12.229c-0.988,0-1.976,0.004-2.963,0.008l-1.008,0.004    c-1.396,0.005-2.892,0.979-3.722,2.424c-0.642,1.117-0.726,2.248-0.229,3.104c0.797,1.377,1.3,2.102,3.99,3.502    c0.249,0.113,2.823,0.966,4.402,1.323l0.789,0.181c2.688,0.621,6.033,1.392,8.296,0.482c1.742-0.701,4.01-1.995,4.78-3.013    c1.299-1.716-0.02-3.243-2.023-5.214c-0.331-0.324-0.643-0.632-0.904-0.919l-4.999-1.498c-0.049-0.016-0.096-0.035-0.14-0.058    c-0.089,0.021-0.183,0.028-0.278,0.012c-0.255-0.036-0.51-0.081-0.765-0.125c-0.521-0.092-1.014-0.179-1.491-0.187    C16.546,12.236,15.301,12.229,14.056,12.229z"/></g><g><path d="M21.158,8.547c-0.123,0-0.249-0.03-0.364-0.095c-0.361-0.202-0.491-0.658-0.29-1.021c0.105-0.188,0.203-0.377,0.299-0.563    c0.575-1.11,1.227-2.368,3.141-2.921c2.312-0.664,4.594-1.672,6.801-2.646c0.959-0.423,1.919-0.847,2.885-1.246    c0.382-0.155,0.82,0.024,0.979,0.407c0.158,0.383-0.024,0.821-0.407,0.979c-0.955,0.395-1.903,0.813-2.852,1.231    c-2.253,0.995-4.583,2.023-6.991,2.716c-1.294,0.374-1.684,1.127-2.224,2.169c-0.104,0.199-0.208,0.401-0.32,0.604    C21.677,8.408,21.422,8.547,21.158,8.547z"/></g><g><path d="M17.925,39.958c-0.817,0-1.655-0.059-2.51-0.178c-5.478-0.765-10.498-3.933-12.793-8.073    c-3.032-5.47-3.423-11.421-1.229-18.729C2.307,9.938,4.887,8.566,7.382,7.24c0.691-0.367,1.345-0.714,1.965-1.097    c0.421-0.26,0.854-0.179,3.28,0.604c0.414,0.134,0.79,0.255,1.048,0.328c1.716,0.487,3.396,0.321,5.176,0.147    c0.869-0.086,1.768-0.174,2.66-0.176c4.32-0.364,7.356,2.509,10.028,5.047c0.728,0.691,1.416,1.345,2.114,1.925    c1.152,0.955,1.353,3.104,1.289,4.223c-0.423,7.464-2.864,13.485-7.259,17.897C25.192,38.641,21.789,39.958,17.925,39.958z     M9.959,7.527C9.35,7.894,8.708,8.234,8.086,8.565C5.76,9.801,3.563,10.968,2.83,13.41c-2.099,6.989-1.758,12.407,1.104,17.57    c2.073,3.742,6.661,6.612,11.688,7.314c4.416,0.612,8.321-0.526,10.999-3.215c4.127-4.144,6.423-9.838,6.823-16.923    c0.07-1.245-0.266-2.583-0.749-2.984c-0.737-0.612-1.476-1.313-2.189-1.992c-2.417-2.295-4.912-4.665-8.261-4.665    c-0.043,0-0.085,0.001-0.128,0.001l-0.907,3.178c-0.113,0.398-0.524,0.632-0.927,0.517c-0.398-0.113-0.63-0.528-0.517-0.927    l0.772-2.703c-0.503,0.032-1.014,0.082-1.542,0.134c-1.84,0.181-3.741,0.368-5.731-0.196c-0.271-0.077-0.665-0.204-1.1-0.344    C11.529,7.969,10.396,7.604,9.959,7.527z"/></g><g><path d="M18.764,18.303c-0.06,0-0.12-0.007-0.18-0.021c-0.402-0.099-0.648-0.505-0.55-0.907l2.396-9.756    c0.099-0.403,0.513-0.646,0.907-0.55c0.402,0.099,0.648,0.505,0.55,0.907l-2.396,9.756C19.407,18.074,19.101,18.303,18.764,18.303    z"/></g></g></svg>