<?xml version="1.0" ?><!DOCTYPE svg  PUBLIC '-//W3C//DTD SVG 1.1//EN'  'http://www.w3.org/Graphics/SVG/1.1/DTD/svg11.dtd'><svg enable-background="new 0 0 39.23 40.805" height="40.805px" id="Layer_1" version="1.1" viewBox="0 0 39.23 40.805" width="39.23px" xml:space="preserve" xmlns="http://www.w3.org/2000/svg" xmlns:xlink="http://www.w3.org/1999/xlink"><g><g><path d="M16.982,40.805c-3.732,0-7.417-0.349-11.19-1.045c-0.388-0.071-0.654-0.431-0.609-0.822l1.736-15.208    c0.047-0.412,0.422-0.704,0.83-0.66c0.412,0.047,0.707,0.418,0.66,0.83L6.753,38.408c6.836,1.188,13.409,1.194,20.565,0.023    l-0.244-1.723c-0.236-1.682-0.45-3.204-0.688-4.721c-0.295-1.876-0.611-3.749-0.927-5.622l-0.408-2.428    c-0.068-0.408,0.208-0.795,0.617-0.863c0.405-0.067,0.795,0.208,0.863,0.617l0.407,2.424c0.317,1.878,0.634,3.757,0.93,5.639    c0.239,1.525,0.454,3.055,0.691,4.746l0.345,2.443c0.058,0.401-0.214,0.776-0.614,0.845    C24.391,40.466,20.663,40.805,16.982,40.805z"/></g><g><path d="M17.959,24.268c-3.321,0-6.677-0.041-9.987-0.206c-1.541-0.079-3.283-2.569-3.604-4.152    c-0.451-2.225-0.557-4.527-0.66-6.754c-0.042-0.907-0.083-1.814-0.148-2.717c-0.03-0.414,0.281-0.772,0.694-0.802    c0.42-0.028,0.772,0.282,0.802,0.694c0.065,0.916,0.108,1.835,0.15,2.755c0.1,2.169,0.203,4.414,0.631,6.524    c0.256,1.261,1.687,2.925,2.211,2.952c4.914,0.245,9.952,0.215,14.824,0.184c1.452-0.009,2.906-0.018,4.363-0.02l1.844-11.787    c0.064-0.41,0.452-0.685,0.857-0.625c0.409,0.064,0.689,0.448,0.625,0.857l-1.943,12.421c-0.058,0.365-0.372,0.634-0.741,0.634    c-1.669,0-3.334,0.01-4.996,0.021C21.256,24.258,19.612,24.268,17.959,24.268z"/></g><g><path d="M13.036,23.221c-0.396,0-0.726-0.309-0.749-0.708l-0.671-12.085c-0.023-0.414,0.294-0.768,0.708-0.791    c0.416-0.021,0.767,0.294,0.791,0.708l0.671,12.085c0.023,0.414-0.294,0.767-0.708,0.791    C13.063,23.22,13.049,23.221,13.036,23.221z"/></g><g><path d="M20.423,23.221c-0.014,0-0.028,0-0.042-0.001c-0.414-0.023-0.73-0.376-0.708-0.79l0.67-12.085    c0.023-0.414,0.36-0.729,0.791-0.708c0.414,0.023,0.73,0.377,0.708,0.791l-0.67,12.084C21.149,22.912,20.818,23.221,20.423,23.221    z"/></g><g><path d="M20.757,40.005c-0.008,0-0.016,0-0.024,0c-0.414-0.013-0.739-0.359-0.726-0.773l0.336-10.742    c0.013-0.414,0.359-0.741,0.773-0.726c0.414,0.013,0.739,0.359,0.726,0.773l-0.336,10.742    C21.493,39.684,21.16,40.005,20.757,40.005z"/></g><g><path d="M34.854,23.556c-0.079,0-0.159-0.012-0.237-0.039c-0.393-0.131-0.605-0.556-0.474-0.949l3.522-10.56    c-1.326-2.255-3.173-1.965-6.919-0.791c-0.131,0.042-0.271,0.044-0.404,0.012c-4.13-1.02-7.993-0.896-11.729-0.775    c-1.081,0.035-2.152,0.069-3.22,0.077c-1.492,0.004-3.024-0.059-4.498-0.125c-3.065-0.138-6.226-0.282-9.255,0.295l2.437,1.761    c0.336,0.243,0.412,0.711,0.169,1.047c-0.243,0.337-0.711,0.413-1.047,0.169l-2.887-2.087c-0.232-0.168-0.349-0.454-0.299-0.736    l0.156-0.897c0.052-0.3,0.279-0.538,0.576-0.604C4.139,8.6,7.608,8.756,10.962,8.908c1.456,0.066,2.972,0.13,4.419,0.124    c1.055-0.007,2.114-0.042,3.182-0.076c3.777-0.121,7.681-0.247,11.932,0.769c3.273-1.026,6.628-1.988,8.648,1.861    c0.095,0.181,0.112,0.392,0.047,0.586l-3.626,10.872C35.46,23.358,35.168,23.556,34.854,23.556z"/></g><g><path d="M13.036,38.998c-0.414,0-0.75-0.336-0.75-0.75v-9.735c0-0.414,0.336-0.75,0.75-0.75s0.75,0.336,0.75,0.75v9.735    C13.786,38.662,13.45,38.998,13.036,38.998z"/></g><g><path d="M26.464,9.794c-0.216,0-0.431-0.093-0.58-0.273c-3.059-3.717-7.308-3.512-11.397-2.985    c-1.562,0.201-3.074,0.878-4.674,1.595C9.091,8.453,8.345,8.787,7.595,9.072c-0.387,0.149-0.82-0.046-0.968-0.434    C6.48,8.251,6.674,7.818,7.061,7.671C7.771,7.4,8.498,7.075,9.2,6.761c1.63-0.73,3.315-1.484,5.096-1.713    c4.31-0.555,9.202-0.788,12.747,3.52c0.263,0.32,0.217,0.792-0.103,1.056C26.801,9.738,26.632,9.794,26.464,9.794z"/></g><g><path d="M25.792,28.591H8.336c-0.414,0-0.75-0.336-0.75-0.75s0.336-0.75,0.75-0.75h17.457c0.414,0,0.75,0.336,0.75,0.75    S26.207,28.591,25.792,28.591z"/></g><g><path d="M19.078,5.765c-0.414,0-0.75-0.336-0.75-0.75V2.638L15.8,1.792v3.223c0,0.414-0.336,0.75-0.75,0.75s-0.75-0.336-0.75-0.75    V0.75c0-0.241,0.116-0.468,0.312-0.608c0.196-0.142,0.448-0.18,0.676-0.103l4.028,1.347c0.306,0.103,0.512,0.389,0.512,0.711    v2.917C19.828,5.429,19.492,5.765,19.078,5.765z"/></g></g></svg>