<?xml version="1.0" ?><!DOCTYPE svg  PUBLIC '-//W3C//DTD SVG 1.1//EN'  'http://www.w3.org/Graphics/SVG/1.1/DTD/svg11.dtd'><svg enable-background="new 0 0 64 64" id="Layer_1" version="1.1" viewBox="0 0 64 64" xml:space="preserve" xmlns="http://www.w3.org/2000/svg" xmlns:xlink="http://www.w3.org/1999/xlink"><g><polygon fill="#A3D3C7" points="20.7,15.7 9.7,21.9 12.2,26.3 23.2,20  "/><polygon fill="#A3D3C7" points="17.4,9.9 6.5,16.1 8.7,20.2 19.7,13.9  "/><polygon fill="#A3D3C7" points="24.2,21.8 13.2,28 15.7,32.4 26.7,26.2  "/><polygon fill="#49897A" points="38.5,27.8 29.8,27.6 32.7,32.7 38.4,32.8  "/><polygon fill="#49897A" points="38.5,25.8 38.6,20.7 26.1,20.5 26.1,21.1 28.6,25.6  "/><polygon fill="#49897A" points="38.7,13.7 26.2,13.5 26.1,18.5 38.6,18.7  "/><polygon fill="#49897A" points="38.8,7 26.2,6.9 26.2,11.5 38.8,11.7  "/><polygon fill="#49897A" points="38.2,41.8 37.8,41.8 38.2,42.5  "/><polygon fill="#A3D3C7" points="27.7,27.9 16.7,34.1 19.2,38.5 30.2,32.3  "/><polygon fill="#49897A" points="38.4,34.8 33.8,34.7 36.7,39.8 38.3,39.8  "/><path d="M32.3,47.7c-0.2,0-0.4,0-0.5,0.1c-0.5,0.3-0.7,0.9-0.4,1.5c0.3,0.5,1,0.7,1.5,0.4c0.5-0.3,0.7-0.9,0.4-1.5   C33.1,47.9,32.7,47.7,32.3,47.7z" fill="#7EBCAF"/><polygon fill="#7EBCAF" points="40.4,35 45.6,37.7 47.9,33.2 40.5,29.3  "/><polygon fill="#7EBCAF" points="41,19.4 52.1,25.2 54.4,20.8 43.3,14.9  "/><polygon fill="#7EBCAF" points="40.5,27.1 48.8,31.4 51.2,27 40.6,21.4  "/><polygon fill="#7EBCAF" points="44.2,13.1 55.4,19 57.5,14.8 46.3,9  "/><polygon fill="#7EBCAF" points="40.2,42.8 42.3,43.9 44.6,39.4 40.3,37.2  "/><path d="M23.7,46.3l6.2,10.8l10.9-6.2l-6.2-10.8L23.7,46.3z M33.8,51.5c-0.5,0.3-1,0.4-1.5,0.4   c-1.1,0-2.1-0.6-2.7-1.6c-0.8-1.5-0.3-3.3,1.1-4.2c0.5-0.3,1-0.4,1.5-0.4c1.1,0,2.1,0.6,2.7,1.6C35.8,48.8,35.3,50.6,33.8,51.5z" fill="#BEEDDF"/><polygon fill="#A3D3C7" points="31.1,34 20.2,40.2 22.7,44.6 33.6,38.4  "/><polygon fill="#7EBCAF" points="40.2,45.9 40.7,46.9 41.4,45.7 40.2,45.1  "/><path d="M58.5,13.1L47.3,7.3c-0.9-0.5-2.1-0.1-2.6,0.8l-4,7.5L40.8,7c0-1.1-0.8-2-1.9-2L26.3,4.9c0,0,0,0,0,0   c-1.1,0-1.9,0.9-1.9,1.9l-0.2,10.9l-5-8.8c-0.5-0.9-1.7-1.2-2.7-0.7l-11,6.3c-0.9,0.5-1.3,1.7-0.7,2.7l23.4,41.1c0.3,0.6,1,1,1.7,1   c0.3,0,0.7-0.1,1-0.3l11-6.3c0.5-0.3,0.8-0.7,0.9-1.2c0.1-0.5,0.1-1-0.2-1.5l-0.6-1l17.4-33.2C59.8,14.8,59.4,13.6,58.5,13.1z    M26.2,6.9L38.8,7l-0.1,4.7l-12.6-0.2L26.2,6.9z M26.2,13.5l12.6,0.2l-0.1,5l-12.6-0.2L26.2,13.5z M26.1,20.5l12.5,0.2l-0.1,5   l-9.9-0.2l-2.6-4.5L26.1,20.5z M36.7,39.8l-2.9-5.1l4.6,0.1l-0.1,5L36.7,39.8z M38.2,41.8l0,0.7l-0.4-0.7L38.2,41.8z M32.7,32.7   l-2.9-5.1l8.7,0.1l-0.1,5L32.7,32.7z M6.5,16.1l10.9-6.3l2.3,4.1L8.7,20.2L6.5,16.1z M9.7,21.9l10.9-6.2l2.5,4.4l-10.9,6.2   L9.7,21.9z M13.2,28l10.9-6.2l2.5,4.4l-10.9,6.2L13.2,28z M16.7,34.1l10.9-6.2l2.5,4.4l-10.9,6.2L16.7,34.1z M20.2,40.2L31.1,34   l2.5,4.4l-10.9,6.2L20.2,40.2z M29.8,57.1l-6.2-10.8l10.9-6.2l6.2,10.8L29.8,57.1z M40.7,46.9l-0.6-1l0-0.8l1.2,0.6L40.7,46.9z    M42.3,43.9l-2.1-1.1l0.1-5.6l4.3,2.3L42.3,43.9z M45.6,37.7L40.4,35l0.1-5.6l7.4,3.9L45.6,37.7z M48.8,31.4l-8.3-4.4l0.1-5.6   L51.2,27L48.8,31.4z M52.1,25.2L41,19.4l2.3-4.5l11.1,5.8L52.1,25.2z M55.4,19l-11.1-5.8L46.3,9l11.2,5.8L55.4,19z" fill="#101A1E"/><path d="M32.3,45.7c-0.5,0-1.1,0.1-1.5,0.4c-1.5,0.8-2,2.7-1.1,4.2c0.5,1,1.6,1.6,2.7,1.6c0.5,0,1.1-0.1,1.5-0.4   c1.5-0.8,2-2.7,1.1-4.2C34.4,46.3,33.4,45.7,32.3,45.7z M32.8,49.7c-0.5,0.3-1.2,0.1-1.5-0.4c-0.3-0.5-0.1-1.2,0.4-1.5   c0.2-0.1,0.3-0.1,0.5-0.1c0.4,0,0.7,0.2,0.9,0.5C33.5,48.8,33.4,49.4,32.8,49.7z" fill="#101A1E"/></g></svg>