<?xml version="1.0" ?><!DOCTYPE svg  PUBLIC '-//W3C//DTD SVG 1.1//EN'  'http://www.w3.org/Graphics/SVG/1.1/DTD/svg11.dtd'><svg enable-background="new 0 0 64 64" id="Layer_1" version="1.1" viewBox="0 0 64 64" xml:space="preserve" xmlns="http://www.w3.org/2000/svg" xmlns:xlink="http://www.w3.org/1999/xlink"><g><path d="M27.3,26.2h9.5c0.1,0,0.2-0.1,0.2-0.2l0.5-16.9C37.4,9,37.3,9,37.2,9H26.8c-0.1,0-0.2,0.1-0.2,0.2l0.5,16.8   C27.1,26.1,27.2,26.2,27.3,26.2z" fill="#49897A"/><path d="M51.7,28.2H36.7h-9.5H12.3c-0.1,0-0.2,0.1-0.2,0.2v3.2h39.7v-3.2C51.9,28.2,51.8,28.2,51.7,28.2z" fill="#BEEDDF"/><path d="M12.1,35.3c0,0.1,0.1,0.2,0.2,0.2h1.4h36.4h1.6c0.1,0,0.2-0.1,0.2-0.2v-1.7H12.1V35.3z" fill="#BEEDDF"/><path d="M49.1,37.5H14.7c0.1,3.1,0.2,12.1-2,17.6h8l2.5-7.8c0.1-0.4,0.6-0.7,1-0.7c0.5,0,0.8,0.4,0.9,0.9l1,7.6   h11.5l3.1-11.6c0.1-0.5,0.6-0.8,1.1-0.7c0.5,0.1,0.9,0.5,0.9,0.9L43.3,55h7.8C48.9,49.5,49,40.5,49.1,37.5z" fill="#A3D3C7"/><path d="M51.7,26.2H38.9c0,0,0-0.1,0-0.1l0.5-16.9c0-1.2-1-2.2-2.2-2.2H26.8c-1.2,0-2.2,1-2.2,2.2L25.1,26   c0,0.1,0,0.1,0,0.2H12.3c-1.2,0-2.2,1-2.2,2.2v7c0,1.2,1,2.2,2.2,2.2h0.4c0.1,3.1,0.2,13.3-2.5,18.1c-0.2,0.3-0.2,0.7,0,1   c0.2,0.3,0.5,0.5,0.9,0.5h10.3c0.4,0,0.8-0.3,1-0.7l1.4-4.3l0.6,4.2c0.1,0.5,0.5,0.9,1,0.9h13.1c0.5,0,0.8-0.3,1-0.7l1.6-6.2l0.3,6   c0,0.5,0.5,0.9,1,0.9h10.3c0.4,0,0.7-0.2,0.9-0.5c0.2-0.3,0.2-0.7,0-1c-2.7-4.8-2.6-15-2.5-18.1h0.6c1.2,0,2.2-1,2.2-2.2v-7   C53.9,27.1,52.9,26.2,51.7,26.2z M26.8,9h10.5c0.1,0,0.2,0.1,0.2,0.1L36.9,26c0,0.1-0.1,0.2-0.2,0.2h-9.5c-0.1,0-0.2-0.1-0.2-0.2   L26.6,9.1C26.6,9,26.7,9,26.8,9z M51.1,55h-7.8l-0.6-11.4c0-0.5-0.4-0.9-0.9-0.9c-0.5-0.1-0.9,0.3-1.1,0.7L37.7,55H26.2l-1-7.6   c-0.1-0.5-0.4-0.8-0.9-0.9c-0.5,0-0.9,0.2-1,0.7L20.7,55h-8c2.2-5.5,2.1-14.5,2-17.6h34.3C49,40.5,48.9,49.5,51.1,55z M51.9,35.3   c0,0.1-0.1,0.2-0.2,0.2h-1.6H13.7h-1.4c-0.1,0-0.2-0.1-0.2-0.2v-1.7h39.7V35.3z M51.9,31.6H12.1v-3.2c0-0.1,0.1-0.2,0.2-0.2h14.9   h9.5h14.9c0.1,0,0.2,0.1,0.2,0.2V31.6z" fill="#101A1E"/></g></svg>