<?xml version="1.0" ?><svg height="64" viewBox="0 0 64 64" width="64" xmlns="http://www.w3.org/2000/svg"><defs><style>.cls-1{fill:none;stroke:#000;stroke-linejoin:round;stroke-width:2px;}</style></defs><title/><g data-name="20-Pc" id="_20-Pc"><rect class="cls-1" height="58" rx="1" ry="1" width="42" x="11" y="1"/><polyline class="cls-1" points="14 59 14 62.002 15.026 63 48.972 63 50 62.001 50 59"/><rect class="cls-1" height="10" width="32" x="16" y="6"/><line class="cls-1" x1="16" x2="36" y1="11" y2="11"/><line class="cls-1" x1="38" x2="40" y1="11" y2="11"/><line class="cls-1" x1="42" x2="44" y1="11" y2="11"/><polyline class="cls-1" points="18 24 18 20 46 20 46 24"/><line class="cls-1" x1="15" x2="49" y1="24" y2="24"/><polyline class="cls-1" points="18 32 18 28 46 28 46 32"/><line class="cls-1" x1="15" x2="49" y1="32" y2="32"/><circle class="cls-1" cx="44" cy="41" r="4"/><circle class="cls-1" cx="18" cy="39" r="2"/><circle class="cls-1" cx="26" cy="39" r="2"/><line class="cls-1" x1="15" x2="29" y1="45" y2="45"/><polyline class="cls-1" points="16 50 16 54 20 54"/></g></svg>