<?xml version="1.0" ?><svg height="64" viewBox="0 0 64 64" width="64" xmlns="http://www.w3.org/2000/svg"><defs><style>.cls-1{fill:none;stroke:#000;stroke-linejoin:round;stroke-width:2px;}</style></defs><title/><g data-name="14-Wifi" id="_14-Wifi"><path class="cls-1" d="M63,39V55a2,2,0,0,1-2,2H3a2,2,0,0,1-2-2V39Z"/><rect class="cls-1" height="4" width="56" x="4" y="35"/><rect class="cls-1" height="6" width="10" x="6" y="57"/><rect class="cls-1" height="6" width="10" x="48" y="57"/><line class="cls-1" x1="1" x2="63" y1="35" y2="35"/><polyline class="cls-1" points="10 35 10 5 16 5 16 35"/><line class="cls-1" x1="7" x2="19" y1="10" y2="10"/><rect class="cls-1" height="6" width="54" x="5" y="43"/><line class="cls-1" x1="4" x2="6" y1="53" y2="53"/><line class="cls-1" x1="8" x2="10" y1="53" y2="53"/><line class="cls-1" x1="32" x2="32" y1="43" y2="49"/><line class="cls-1" x2="64" y1="63" y2="63"/><line class="cls-1" x1="12" x2="60" y1="53" y2="53"/><polyline class="cls-1" points="26 17 28 17 28 7 31 7 31 24 34 24 34 12 37 12 37 20 40 20 40 4 43 4 43 22 46 22 46 11 49 11 49 17 52 17"/><line class="cls-1" x1="22" x2="24" y1="17" y2="17"/><line class="cls-1" x1="54" x2="56" y1="17" y2="17"/></g></svg>