<?xml version="1.0" ?><svg height="64" viewBox="0 0 64 64" width="64" xmlns="http://www.w3.org/2000/svg"><defs><style>.cls-1{fill:none;stroke:#000;stroke-linejoin:round;stroke-width:2px;}</style></defs><title/><g data-name="5-Webcam" id="_5-Webcam"><circle class="cls-1" cx="32" cy="27" r="26"/><circle class="cls-1" cx="32" cy="27" r="19"/><path class="cls-1" d="M42,27A10,10,0,1,0,32,37V27Z"/><polygon class="cls-1" points="45 63 19 63 21 59 43 59 45 63"/><line class="cls-1" x1="16" x2="48" y1="63" y2="63"/><line class="cls-1" x1="24" x2="24" y1="51" y2="59"/><line class="cls-1" x1="40" x2="40" y1="51" y2="59"/><line class="cls-1" x1="32" x2="28" y1="27" y2="27"/><line class="cls-1" x1="31" x2="33" y1="13" y2="13"/><line class="cls-1" x1="31" x2="33" y1="41" y2="41"/><line class="cls-1" x1="45" x2="47" y1="27" y2="27"/><line class="cls-1" x1="17" x2="19" y1="27" y2="27"/><polyline class="cls-1" points="36 35 36 31 40 31"/><line class="cls-1" x1="27" x2="27" y1="1" y2="9"/><line class="cls-1" x1="37" x2="37" y1="1" y2="9"/></g></svg>