<?xml version="1.0" ?><svg height="64" viewBox="0 0 64 64" width="64" xmlns="http://www.w3.org/2000/svg"><defs><style>.cls-1{fill:none;stroke:#000;stroke-linejoin:round;stroke-width:2px;}</style></defs><title/><g data-name="7-Security Cam" id="_7-Security_Cam"><path class="cls-1" d="M57,29A25,25,0,0,1,7,29V24H57Z"/><rect class="cls-1" height="8" width="56" x="4" y="16"/><rect class="cls-1" height="6" width="48" x="8" y="10"/><line class="cls-1" x2="64" y1="10" y2="10"/><path class="cls-1" d="M22,24V39a10,10,0,0,0,20,0V24"/><circle class="cls-1" cx="32" cy="38" r="5"/><line class="cls-1" x1="22" x2="7" y1="28" y2="28"/><line class="cls-1" x1="57" x2="42" y1="28" y2="28"/><line class="cls-1" x1="7" x2="9" y1="20" y2="20"/><line class="cls-1" x1="55" x2="57" y1="20" y2="20"/><line class="cls-1" x1="12" x2="52" y1="20" y2="20"/><line class="cls-1" x1="31" x2="33" y1="38" y2="38"/></g></svg>