<?xml version="1.0" ?><!DOCTYPE svg  PUBLIC '-//W3C//DTD SVG 1.1//EN'  'http://www.w3.org/Graphics/SVG/1.1/DTD/svg11.dtd'><svg height="500mm" style="shape-rendering:geometricPrecision; text-rendering:geometricPrecision; image-rendering:optimizeQuality; fill-rule:evenodd; clip-rule:evenodd" version="1.1" viewBox="0 0 50000 50000" width="500mm" xml:space="preserve" xmlns="http://www.w3.org/2000/svg" xmlns:xlink="http://www.w3.org/1999/xlink"><defs><style type="text/css">
   <![CDATA[
    .str0 {stroke:#2B2A29;stroke-width:1000}
    .fil0 {fill:none}
   ]]>
  </style></defs><g id="Слой_x0020_1"><path class="fil0 str0" d="M49223 4757l0 0c-231,-253 -627,-270 -880,-39 -5066,4638 -8931,8176 -13997,12814 -7004,1479 -9750,5907 -11808,10811l-21704 19874c-253,231 -271,627 -39,880l0 0c231,253 627,270 880,39l47510 -43499c252,-231 270,-627 38,-880z"/><path class="fil0 str0" d="M47490 5499c-1315,-1437 -2631,-2874 -3947,-4311 -617,1601 -1825,2712 -3632,3325 -1329,1217 -2658,2434 -3988,3651 -768,1825 -2081,2768 -3632,3325l3947 4311 11252 -10301z"/><line class="fil0 str0" x1="42118" x2="45677" y1="3271" y2="7159"/><line class="fil0 str0" x1="34481" x2="38056" y1="10231" y2="14136"/><line class="fil0 str0" x1="37917" x2="41864" y1="6338" y2="10650"/><line class="fil0 str0" x1="39911" x2="43858" y1="4513" y2="8824"/><line class="fil0 str0" x1="35923" x2="39870" y1="8164" y2="12475"/></g></svg>