<?xml version="1.0" ?><!DOCTYPE svg  PUBLIC '-//W3C//DTD SVG 1.1//EN'  'http://www.w3.org/Graphics/SVG/1.1/DTD/svg11.dtd'><svg height="500mm" style="shape-rendering:geometricPrecision; text-rendering:geometricPrecision; image-rendering:optimizeQuality; fill-rule:evenodd; clip-rule:evenodd" version="1.1" viewBox="0 0 50000 50000" width="500mm" xml:space="preserve" xmlns="http://www.w3.org/2000/svg" xmlns:xlink="http://www.w3.org/1999/xlink"><defs><style type="text/css">
   <![CDATA[
    .str0 {stroke:#2B2A29;stroke-width:1000}
    .fil0 {fill:none}
   ]]>
  </style></defs><g id="Слой_x0020_1"><path class="fil0 str0" d="M25526 25738c-1581,7401 -3312,17664 -5669,22423 -819,1655 -711,1509 -1434,8 -3594,-7457 -6772,-19926 -7311,-28426 -22,-347 -786,-6715 -998,-6994 -6528,-8602 4978,-16389 15412,-9087 10435,-7302 21941,485 15413,9087 -212,279 -976,6647 -998,6994 -540,8500 -3718,20969 -7311,28426 -724,1501 -615,1647 -1435,-8 -2357,-4759 -4088,-15022 -5669,-22423z"/></g></svg>