<?xml version="1.0" ?><!DOCTYPE svg  PUBLIC '-//W3C//DTD SVG 1.1//EN'  'http://www.w3.org/Graphics/SVG/1.1/DTD/svg11.dtd'><svg id="Layer_1" style="enable-background:new 0 0 512 512;" version="1.1" viewBox="0 0 512 512" xml:space="preserve" xmlns="http://www.w3.org/2000/svg" xmlns:xlink="http://www.w3.org/1999/xlink"><style type="text/css">
	.st0{fill:url(#SVGID_1_);}
	.st1{fill:url(#SVGID_2_);}
	.st2{fill:none;stroke:url(#SVGID_3_);stroke-width:1.5;stroke-miterlimit:10;}
	.st3{fill:#FFFFFF;}
	.st4{fill:none;stroke:url(#SVGID_4_);stroke-width:2;stroke-miterlimit:10;}
</style><linearGradient gradientUnits="userSpaceOnUse" id="SVGID_1_" x1="219.3368" x2="292.6632" y1="463.9274" y2="48.0726"><stop offset="5.596740e-002" style="stop-color:#E6BE68"/><stop offset="9.628294e-002" style="stop-color:#EFAF49"/><stop offset="0.1384" style="stop-color:#F6A230"/><stop offset="0.1826" style="stop-color:#FB9A1F"/><stop offset="0.23" style="stop-color:#FE9514"/><stop offset="0.2859" style="stop-color:#FF9311"/><stop offset="0.5899" style="stop-color:#F0A122"/><stop offset="0.8146" style="stop-color:#F6BF1B"/><stop offset="0.8753" style="stop-color:#F0C041"/><stop offset="0.9544" style="stop-color:#EAC16E"/><stop offset="0.9944" style="stop-color:#E7C17F"/></linearGradient><circle class="st0" cx="256" cy="256" r="211.1"/><g><linearGradient gradientUnits="userSpaceOnUse" id="SVGID_2_" x1="59.782" x2="452.218" y1="256" y2="256"><stop offset="5.056200e-002" style="stop-color:#E6BE83"/><stop offset="6.283368e-002" style="stop-color:#E7BA78"/><stop offset="0.1022" style="stop-color:#EAAF58"/><stop offset="0.1432" style="stop-color:#EDA73F"/><stop offset="0.186" style="stop-color:#EFA12E"/><stop offset="0.2318" style="stop-color:#F09D23"/><stop offset="0.2859" style="stop-color:#F09C20"/><stop offset="0.5899" style="stop-color:#F0D877"/><stop offset="0.8146" style="stop-color:#F6CE7E"/><stop offset="0.9944" style="stop-color:#E7C17F"/></linearGradient><circle class="st1" cx="256" cy="256" r="196.2"/><linearGradient gradientUnits="userSpaceOnUse" id="SVGID_3_" x1="256" x2="256" y1="452.968" y2="59.032"><stop offset="5.056200e-002" style="stop-color:#FFDF15"/><stop offset="0.2697" style="stop-color:#DB8B0E"/><stop offset="0.5575" style="stop-color:#FF9200"/><stop offset="0.8146" style="stop-color:#F7E3B1"/><stop offset="0.8883" style="stop-color:#F0D37C"/><stop offset="0.9589" style="stop-color:#E9C64F"/><stop offset="0.9944" style="stop-color:#E7C13E"/></linearGradient><circle class="st2" cx="256" cy="256" r="196.2"/></g><g id="Shape_1_1_"><g><path class="st3" d="M209.8,256c0,25.6,20.8,46.3,46.3,46.3c25.6,0,46.3-20.8,46.3-46.3c0-25.6-20.8-46.3-46.3-46.3    C230.6,209.7,209.8,230.5,209.8,256z M274.5,314.9c-0.5-0.7-1.4-0.9-2.2-0.7c-5.3,1.5-10.7,2.2-16.2,2.2    c-23.3,0-44.8-13.7-54.7-34.8c0-0.1-0.1-0.1-0.1-0.2l-49.8-86.3c-0.4-0.6-1-1-1.8-1h0c-0.7,0-1.4,0.4-1.8,1    c-10.4,18.5-15.9,39.5-15.9,60.8c0,29.9,10.8,58.8,30.4,81.3c19.4,22.3,46.1,37,75.1,41.3c0.1,0,0.2,0,0.3,0c0.7,0,1.4-0.4,1.8-1    l34.9-60.5C275,316.5,275,315.6,274.5,314.9z M371.6,210.7c-0.3-0.8-1.1-1.3-1.9-1.3h-69.9c-0.8,0-1.6,0.5-1.9,1.3    c-0.3,0.8-0.1,1.6,0.5,2.2c11.7,11.5,18.1,26.8,18.1,43.1c0,12.4-3.7,24.3-10.8,34.4c0,0-0.1,0.1-0.1,0.1L255.8,377    c-0.4,0.6-0.4,1.4,0,2c0.4,0.6,1,1,1.8,1h0c32.8-0.4,63.6-13.4,86.7-36.8c21-21.3,33.5-48.8,35.5-78.4v-17.6    C379,234.6,376.2,222.4,371.6,210.7z M194,241.4c0.4,0.6,1,1,1.8,1c0.1,0,0.2,0,0.3,0c0.8-0.1,1.5-0.7,1.7-1.5    c6.9-26.7,30.9-45.3,58.5-45.3c1.7,0,3.5,0.1,5.2,0.2c0.1,0,0.1,0,0.2,0h99.5c0.7,0,1.4-0.4,1.8-1c0.4-0.6,0.4-1.4,0-2    c-10.8-18.2-26.2-33.4-44.4-44c-18.8-11-40.4-16.7-62.3-16.7c-37.9,0-73.2,17-96.9,46.7c-0.5,0.7-0.6,1.6-0.2,2.3L194,241.4z"/></g><g><linearGradient gradientUnits="userSpaceOnUse" id="SVGID_4_" x1="131.845" x2="380.155" y1="256" y2="256"><stop offset="5.056200e-002" style="stop-color:#FFDF15"/><stop offset="0.2697" style="stop-color:#DB8B0E"/><stop offset="0.5575" style="stop-color:#FF9200"/><stop offset="0.8146" style="stop-color:#F7E3B1"/><stop offset="0.8883" style="stop-color:#F0D37C"/><stop offset="0.9589" style="stop-color:#E9C64F"/><stop offset="0.9944" style="stop-color:#E7C13E"/></linearGradient><path class="st4" d="M209.8,256c0,25.6,20.8,46.3,46.3,46.3c25.6,0,46.3-20.8,46.3-46.3c0-25.6-20.8-46.3-46.3-46.3    C230.6,209.7,209.8,230.5,209.8,256z M274.5,314.9c-0.5-0.7-1.4-0.9-2.2-0.7c-5.3,1.5-10.7,2.2-16.2,2.2    c-23.3,0-44.8-13.7-54.7-34.8c0-0.1-0.1-0.1-0.1-0.2l-49.8-86.3c-0.4-0.6-1-1-1.8-1h0c-0.7,0-1.4,0.4-1.8,1    c-10.4,18.5-15.9,39.5-15.9,60.8c0,29.9,10.8,58.8,30.4,81.3c19.4,22.3,46.1,37,75.1,41.3c0.1,0,0.2,0,0.3,0c0.7,0,1.4-0.4,1.8-1    l34.9-60.5C275,316.5,275,315.6,274.5,314.9z M371.6,210.7c-0.3-0.8-1.1-1.3-1.9-1.3h-69.9c-0.8,0-1.6,0.5-1.9,1.3    c-0.3,0.8-0.1,1.6,0.5,2.2c11.7,11.5,18.1,26.8,18.1,43.1c0,12.4-3.7,24.3-10.8,34.4c0,0-0.1,0.1-0.1,0.1L255.8,377    c-0.4,0.6-0.4,1.4,0,2c0.4,0.6,1,1,1.8,1h0c32.8-0.4,63.6-13.4,86.7-36.8c21-21.3,33.5-48.8,35.5-78.4v-17.6    C379,234.6,376.2,222.4,371.6,210.7z M194,241.4c0.4,0.6,1,1,1.8,1c0.1,0,0.2,0,0.3,0c0.8-0.1,1.5-0.7,1.7-1.5    c6.9-26.7,30.9-45.3,58.5-45.3c1.7,0,3.5,0.1,5.2,0.2c0.1,0,0.1,0,0.2,0h99.5c0.7,0,1.4-0.4,1.8-1c0.4-0.6,0.4-1.4,0-2    c-10.8-18.2-26.2-33.4-44.4-44c-18.8-11-40.4-16.7-62.3-16.7c-37.9,0-73.2,17-96.9,46.7c-0.5,0.7-0.6,1.6-0.2,2.3L194,241.4z"/></g></g></svg>