<?xml version="1.0" ?><!DOCTYPE svg  PUBLIC '-//W3C//DTD SVG 1.1//EN'  'http://www.w3.org/Graphics/SVG/1.1/DTD/svg11.dtd'><svg id="Layer_1" style="enable-background:new 0 0 512 512;" version="1.1" viewBox="0 0 512 512" xml:space="preserve" xmlns="http://www.w3.org/2000/svg" xmlns:xlink="http://www.w3.org/1999/xlink"><style type="text/css">
	.st0{fill:url(#SVGID_1_);}
	.st1{fill:url(#SVGID_2_);}
	.st2{fill:none;stroke:url(#SVGID_3_);stroke-width:1.5;stroke-miterlimit:10;}
	.st3{opacity:0.93;}
	.st4{fill:#FFFFFF;}
	.st5{fill:none;stroke:url(#SVGID_4_);stroke-width:2;stroke-miterlimit:10;}
</style><linearGradient gradientUnits="userSpaceOnUse" id="SVGID_1_" x1="219.3368" x2="292.6632" y1="463.9274" y2="48.0726"><stop offset="5.596740e-002" style="stop-color:#E6BE68"/><stop offset="9.628294e-002" style="stop-color:#EFAF49"/><stop offset="0.1384" style="stop-color:#F6A230"/><stop offset="0.1826" style="stop-color:#FB9A1F"/><stop offset="0.23" style="stop-color:#FE9514"/><stop offset="0.2859" style="stop-color:#FF9311"/><stop offset="0.5899" style="stop-color:#F0A122"/><stop offset="0.8146" style="stop-color:#F6BF1B"/><stop offset="0.8753" style="stop-color:#F0C041"/><stop offset="0.9544" style="stop-color:#EAC16E"/><stop offset="0.9944" style="stop-color:#E7C17F"/></linearGradient><circle class="st0" cx="256" cy="256" r="211.1"/><g><linearGradient gradientUnits="userSpaceOnUse" id="SVGID_2_" x1="59.782" x2="452.218" y1="256" y2="256"><stop offset="5.056200e-002" style="stop-color:#E6BE83"/><stop offset="6.283368e-002" style="stop-color:#E7BA78"/><stop offset="0.1022" style="stop-color:#EAAF58"/><stop offset="0.1432" style="stop-color:#EDA73F"/><stop offset="0.186" style="stop-color:#EFA12E"/><stop offset="0.2318" style="stop-color:#F09D23"/><stop offset="0.2859" style="stop-color:#F09C20"/><stop offset="0.5899" style="stop-color:#F0D877"/><stop offset="0.8146" style="stop-color:#F6CE7E"/><stop offset="0.9944" style="stop-color:#E7C17F"/></linearGradient><circle class="st1" cx="256" cy="256" r="196.2"/><linearGradient gradientUnits="userSpaceOnUse" id="SVGID_3_" x1="256" x2="256" y1="452.968" y2="59.032"><stop offset="5.056200e-002" style="stop-color:#FFDF15"/><stop offset="0.2697" style="stop-color:#DB8B0E"/><stop offset="0.5575" style="stop-color:#FF9200"/><stop offset="0.8146" style="stop-color:#F7E3B1"/><stop offset="0.8883" style="stop-color:#F0D37C"/><stop offset="0.9589" style="stop-color:#E9C64F"/><stop offset="0.9944" style="stop-color:#E7C13E"/></linearGradient><circle class="st2" cx="256" cy="256" r="196.2"/></g><g class="st3" id="Shape_1_1_"><g><path class="st4" d="M362.2,189.6c-3.3,1.4-6.6,2.7-10,3.6c4.1-4.6,7.1-9.9,9-15.8c0.4-1.3,0-2.7-1.1-3.6c-1.1-0.9-2.6-1-3.8-0.3    c-7.3,4.3-15.1,7.3-23.2,9.2c-8.2-8.1-19.5-12.7-31-12.7c-24.4,0-44.4,19.9-44.4,44.4c0,1.9,0.1,3.8,0.4,5.8    c-30.4-2.7-58.5-17.6-77.9-41.4c-0.7-0.9-1.8-1.3-2.8-1.2c-1.1,0.1-2,0.7-2.7,1.7c-3.9,6.7-6,14.4-6,22.3    c0,10.7,3.8,20.8,10.5,28.8c-2-0.7-4.1-1.6-5.9-2.7c-1.1-0.5-2.3-0.5-3.3,0c-1,0.6-1.7,1.7-1.7,2.8c0,0.2,0,0.4,0,0.6    c0,15.9,8.6,30.3,21.7,38.2c-1.2-0.1-2.2-0.3-3.4-0.5c-1.2-0.2-2.3,0.2-3.1,1.1c-0.8,0.9-1.1,2.1-0.7,3.2    c4.9,15.1,17.4,26.3,32.5,29.8c-12.6,7.9-26.9,12-42,12c-3.1,0-6.3-0.2-9.4-0.5c-1.5-0.2-3,0.7-3.5,2.2c-0.5,1.5,0,3.1,1.3,3.9    c17.2,11,36.7,17.4,56.9,18.7h16.1c40.2-2.5,66-22.1,80.7-38.9c19.7-22.3,30.9-51.8,30.9-80.9c0-1.2,0-2.5-0.1-3.6    c7.7-5.8,14.4-12.9,19.8-21c0.8-1.2,0.7-2.8-0.2-4C365.1,189.3,363.5,189,362.2,189.6z"/></g><g><linearGradient gradientTransform="matrix(0.498 0 0 -0.498 64.752 320.25)" gradientUnits="userSpaceOnUse" id="SVGID_4_" x1="192.4507" x2="605.7462" y1="132.0157" y2="132.0157"><stop offset="5.056200e-002" style="stop-color:#FFDF15"/><stop offset="0.2697" style="stop-color:#DB8B0E"/><stop offset="0.5575" style="stop-color:#FF9200"/><stop offset="0.8146" style="stop-color:#F7E3B1"/><stop offset="0.8883" style="stop-color:#F0D37C"/><stop offset="0.9589" style="stop-color:#E9C64F"/><stop offset="0.9944" style="stop-color:#E7C13E"/></linearGradient><path class="st5" d="M362.2,189.6c-3.3,1.4-6.6,2.7-10,3.6c4.1-4.6,7.1-9.9,9-15.8c0.4-1.3,0-2.7-1.1-3.6c-1.1-0.9-2.6-1-3.8-0.3    c-7.3,4.3-15.1,7.3-23.2,9.2c-8.2-8.1-19.5-12.7-31-12.7c-24.4,0-44.4,19.9-44.4,44.4c0,1.9,0.1,3.8,0.4,5.8    c-30.4-2.7-58.5-17.6-77.9-41.4c-0.7-0.9-1.8-1.3-2.8-1.2c-1.1,0.1-2,0.7-2.7,1.7c-3.9,6.7-6,14.4-6,22.3    c0,10.7,3.8,20.8,10.5,28.8c-2-0.7-4.1-1.6-5.9-2.7c-1.1-0.5-2.3-0.5-3.3,0c-1,0.6-1.7,1.7-1.7,2.8c0,0.2,0,0.4,0,0.6    c0,15.9,8.6,30.3,21.7,38.2c-1.2-0.1-2.2-0.3-3.4-0.5c-1.2-0.2-2.3,0.2-3.1,1.1c-0.8,0.9-1.1,2.1-0.7,3.2    c4.9,15.1,17.4,26.3,32.5,29.8c-12.6,7.9-26.9,12-42,12c-3.1,0-6.3-0.2-9.4-0.5c-1.5-0.2-3,0.7-3.5,2.2c-0.5,1.5,0,3.1,1.3,3.9    c17.2,11,36.7,17.4,56.9,18.7h16.1c40.2-2.5,66-22.1,80.7-38.9c19.7-22.3,30.9-51.8,30.9-80.9c0-1.2,0-2.5-0.1-3.6    c7.7-5.8,14.4-12.9,19.8-21c0.8-1.2,0.7-2.8-0.2-4C365.1,189.3,363.5,189,362.2,189.6z"/></g></g></svg>