<?xml version="1.0" ?><!DOCTYPE svg  PUBLIC '-//W3C//DTD SVG 1.1//EN'  'http://www.w3.org/Graphics/SVG/1.1/DTD/svg11.dtd'><svg id="Layer_1" style="enable-background:new 0 0 512 512;" version="1.1" viewBox="0 0 512 512" xml:space="preserve" xmlns="http://www.w3.org/2000/svg" xmlns:xlink="http://www.w3.org/1999/xlink"><style type="text/css">
	.st0{fill:url(#SVGID_1_);}
	.st1{fill:url(#SVGID_2_);}
	.st2{fill:none;stroke:url(#SVGID_3_);stroke-width:1.5;stroke-miterlimit:10;}
	.st3{opacity:0.93;}
	.st4{fill:#FFFFFF;}
	.st5{fill:none;stroke:url(#SVGID_4_);stroke-miterlimit:10;}
</style><linearGradient gradientUnits="userSpaceOnUse" id="SVGID_1_" x1="219.3368" x2="292.6632" y1="463.9274" y2="48.0726"><stop offset="5.596740e-002" style="stop-color:#E6BE68"/><stop offset="9.628294e-002" style="stop-color:#EFAF49"/><stop offset="0.1384" style="stop-color:#F6A230"/><stop offset="0.1826" style="stop-color:#FB9A1F"/><stop offset="0.23" style="stop-color:#FE9514"/><stop offset="0.2859" style="stop-color:#FF9311"/><stop offset="0.5899" style="stop-color:#F0A122"/><stop offset="0.8146" style="stop-color:#F6BF1B"/><stop offset="0.8753" style="stop-color:#F0C041"/><stop offset="0.9544" style="stop-color:#EAC16E"/><stop offset="0.9944" style="stop-color:#E7C17F"/></linearGradient><circle class="st0" cx="256" cy="256" r="211.1"/><g><linearGradient gradientUnits="userSpaceOnUse" id="SVGID_2_" x1="59.782" x2="452.218" y1="256" y2="256"><stop offset="5.056200e-002" style="stop-color:#E6BE83"/><stop offset="6.283368e-002" style="stop-color:#E7BA78"/><stop offset="0.1022" style="stop-color:#EAAF58"/><stop offset="0.1432" style="stop-color:#EDA73F"/><stop offset="0.186" style="stop-color:#EFA12E"/><stop offset="0.2318" style="stop-color:#F09D23"/><stop offset="0.2859" style="stop-color:#F09C20"/><stop offset="0.5899" style="stop-color:#F0D877"/><stop offset="0.8146" style="stop-color:#F6CE7E"/><stop offset="0.9944" style="stop-color:#E7C17F"/></linearGradient><circle class="st1" cx="256" cy="256" r="196.2"/><linearGradient gradientUnits="userSpaceOnUse" id="SVGID_3_" x1="256" x2="256" y1="452.968" y2="59.032"><stop offset="5.056200e-002" style="stop-color:#FFDF15"/><stop offset="0.2697" style="stop-color:#DB8B0E"/><stop offset="0.5575" style="stop-color:#FF9200"/><stop offset="0.8146" style="stop-color:#F7E3B1"/><stop offset="0.8883" style="stop-color:#F0D37C"/><stop offset="0.9589" style="stop-color:#E9C64F"/><stop offset="0.9944" style="stop-color:#E7C13E"/></linearGradient><circle class="st2" cx="256" cy="256" r="196.2"/></g><g class="st3" id="Shape_1_2_"><g><path class="st4" d="M401,224.8c-0.1-0.1-0.1-0.2-0.2-0.4c-0.8-1.3-2.4-2.3-4-2.3h-15.2c-1.8,0-3.4,1-4.2,2.6l-19.7,39.6    l-19.8-39.6c-0.8-1.5-2.4-2.6-4.2-2.6H317c-1,0-2.1,0.4-2.9,1c-5.4-2.4-12-3.6-19.8-3.6c-24.9,0-32.8,10.8-35.3,17.8    c-6.3-10.9-18.2-17.6-32.8-17.6c-9.5,0-16.3,2.3-20.9,5v-25.1c0-2.6-2.1-4.6-4.6-4.6h-14.3c-2.6,0-4.6,2.1-4.6,4.6v30.7    c-6.4-6.5-16.2-10.9-29.6-10.9c-26.5,0-41.1,13.6-41.1,38.5c0,24.1,14.8,37.4,41.6,37.4c14.6,0,23.5-4.4,28.9-9.5    c-0.1,1.4-0.1,2.5-0.1,2.5c-0.1,1.2,0.4,2.6,1.2,3.5c0.9,0.9,2.1,1.4,3.4,1.4h14c2.2,0,4-1.4,4.5-3.4c4.7,3,11.9,5.7,21.7,5.7    c12.5,0,23.1-5,29.9-13.5c4.6,8.6,14.9,13.7,28.4,13.7c10.8,0,18.3-2.9,23.3-6c0.5,2.1,2.4,3.6,4.5,3.6h13.2l0,0    c2.6,0,4.6-2.1,4.6-4.6c0-0.3,0-0.6-0.1-0.8c-0.1-1.3-0.5-5.6-0.5-8.4v-19l14.9,27.8l-11.4,21.7c-0.7,1.4-0.7,3.2,0.1,4.6    c0.8,1.4,2.4,2.3,4,2.3H353c1.8,0,3.4-1,4.1-2.6l43.5-85.4l0,0v-4.2H401z M151.6,238.5c7.3,0,12.7,3.3,14.5,8.8h-29.9    C138.5,241.5,145.2,238.5,151.6,238.5z M165.6,269.5c-0.2,0.7-2.8,7.4-14,7.4c-8,0-14.1-4.3-16.1-10.8h34.6    C168,266.1,166.3,267.5,165.6,269.5z M222.8,276.7c-12.1,0-17.4-9.5-17.4-19c0-9.4,5.4-18.8,17.3-18.8c10.4,0,17.3,7.5,17.3,18.7    C240,268.6,232.8,276.7,222.8,276.7z M282.2,243.7c0,0,0.7-5.3,11.1-5.3c2.8,0,11.3,0.5,12.6,6.8h-12.6c-4.3,0-8.4,0.2-12,0.7    C281.8,245.2,282.1,244.5,282.2,243.7z M263.8,251.4c-0.2-1.2-0.4-2.4-0.6-3.5h8.6C268.8,248.8,266.1,250.1,263.8,251.4z     M288.1,277.1c-3.9,0-10.5-0.8-10.5-6.7c0-1.5,0-3.8,6.8-5.3c5.4-1.1,12.9-1.3,21.7-1.3C305.9,267.1,304.1,277.1,288.1,277.1z"/></g><g><linearGradient gradientTransform="matrix(0.498 0 0 -0.498 64.752 320.25)" gradientUnits="userSpaceOnUse" id="SVGID_4_" x1="92.3078" x2="674.4897" y1="129.0039" y2="129.0039"><stop offset="5.056200e-002" style="stop-color:#FFDF15"/><stop offset="0.2697" style="stop-color:#DB8B0E"/><stop offset="0.5575" style="stop-color:#FF9200"/><stop offset="0.8146" style="stop-color:#E9B000"/><stop offset="0.8154" style="stop-color:#E9B000"/><stop offset="0.9343" style="stop-color:#E8BC2D"/><stop offset="0.9944" style="stop-color:#E7C13E"/></linearGradient><path class="st5" d="M401,224.8c-0.1-0.1-0.1-0.2-0.2-0.4c-0.8-1.3-2.4-2.3-4-2.3h-15.2c-1.8,0-3.4,1-4.2,2.6l-19.7,39.6    l-19.8-39.6c-0.8-1.5-2.4-2.6-4.2-2.6H317c-1,0-2.1,0.4-2.9,1c-5.4-2.4-12-3.6-19.8-3.6c-24.9,0-32.8,10.8-35.3,17.8    c-6.3-10.9-18.2-17.6-32.8-17.6c-9.5,0-16.3,2.3-20.9,5v-25.1c0-2.6-2.1-4.6-4.6-4.6h-14.3c-2.6,0-4.6,2.1-4.6,4.6v30.7    c-6.4-6.5-16.2-10.9-29.6-10.9c-26.5,0-41.1,13.6-41.1,38.5c0,24.1,14.8,37.4,41.6,37.4c14.6,0,23.5-4.4,28.9-9.5    c-0.1,1.4-0.1,2.5-0.1,2.5c-0.1,1.2,0.4,2.6,1.2,3.5c0.9,0.9,2.1,1.4,3.4,1.4h14c2.2,0,4-1.4,4.5-3.4c4.7,3,11.9,5.7,21.7,5.7    c12.5,0,23.1-5,29.9-13.5c4.6,8.6,14.9,13.7,28.4,13.7c10.8,0,18.3-2.9,23.3-6c0.5,2.1,2.4,3.6,4.5,3.6h13.2l0,0    c2.6,0,4.6-2.1,4.6-4.6c0-0.3,0-0.6-0.1-0.8c-0.1-1.3-0.5-5.6-0.5-8.4v-19l14.9,27.8l-11.4,21.7c-0.7,1.4-0.7,3.2,0.1,4.6    c0.8,1.4,2.4,2.3,4,2.3H353c1.8,0,3.4-1,4.1-2.6l43.5-85.4l0,0v-4.2H401z M151.6,238.5c7.3,0,12.7,3.3,14.5,8.8h-29.9    C138.5,241.5,145.2,238.5,151.6,238.5z M165.6,269.5c-0.2,0.7-2.8,7.4-14,7.4c-8,0-14.1-4.3-16.1-10.8h34.6    C168,266.1,166.3,267.5,165.6,269.5z M222.8,276.7c-12.1,0-17.4-9.5-17.4-19c0-9.4,5.4-18.8,17.3-18.8c10.4,0,17.3,7.5,17.3,18.7    C240,268.6,232.8,276.7,222.8,276.7z M282.2,243.7c0,0,0.7-5.3,11.1-5.3c2.8,0,11.3,0.5,12.6,6.8h-12.6c-4.3,0-8.4,0.2-12,0.7    C281.8,245.2,282.1,244.5,282.2,243.7z M263.8,251.4c-0.2-1.2-0.4-2.4-0.6-3.5h8.6C268.8,248.8,266.1,250.1,263.8,251.4z     M288.1,277.1c-3.9,0-10.5-0.8-10.5-6.7c0-1.5,0-3.8,6.8-5.3c5.4-1.1,12.9-1.3,21.7-1.3C305.9,267.1,304.1,277.1,288.1,277.1z"/></g></g></svg>