<?xml version="1.0" ?><!DOCTYPE svg  PUBLIC '-//W3C//DTD SVG 1.1//EN'  'http://www.w3.org/Graphics/SVG/1.1/DTD/svg11.dtd'><svg id="Layer_1" style="enable-background:new 0 0 512 512;" version="1.1" viewBox="0 0 512 512" xml:space="preserve" xmlns="http://www.w3.org/2000/svg" xmlns:xlink="http://www.w3.org/1999/xlink"><style type="text/css">
	.st0{fill:url(#SVGID_1_);}
	.st1{fill:url(#SVGID_2_);}
	.st2{fill:none;stroke:url(#SVGID_3_);stroke-width:1.5;stroke-miterlimit:10;}
	.st3{opacity:0.93;}
	.st4{fill:#FFFFFF;}
	.st5{fill:none;stroke:url(#SVGID_4_);stroke-width:2;stroke-miterlimit:10;}
</style><linearGradient gradientUnits="userSpaceOnUse" id="SVGID_1_" x1="219.3368" x2="292.6632" y1="463.9274" y2="48.0726"><stop offset="5.596740e-002" style="stop-color:#E6BE68"/><stop offset="9.628294e-002" style="stop-color:#EFAF49"/><stop offset="0.1384" style="stop-color:#F6A230"/><stop offset="0.1826" style="stop-color:#FB9A1F"/><stop offset="0.23" style="stop-color:#FE9514"/><stop offset="0.2859" style="stop-color:#FF9311"/><stop offset="0.5899" style="stop-color:#F0A122"/><stop offset="0.8146" style="stop-color:#F6BF1B"/><stop offset="0.8753" style="stop-color:#F0C041"/><stop offset="0.9544" style="stop-color:#EAC16E"/><stop offset="0.9944" style="stop-color:#E7C17F"/></linearGradient><circle class="st0" cx="256" cy="256" r="211.1"/><g><linearGradient gradientUnits="userSpaceOnUse" id="SVGID_2_" x1="59.782" x2="452.218" y1="256" y2="256"><stop offset="5.056200e-002" style="stop-color:#E6BE83"/><stop offset="6.283368e-002" style="stop-color:#E7BA78"/><stop offset="0.1022" style="stop-color:#EAAF58"/><stop offset="0.1432" style="stop-color:#EDA73F"/><stop offset="0.186" style="stop-color:#EFA12E"/><stop offset="0.2318" style="stop-color:#F09D23"/><stop offset="0.2859" style="stop-color:#F09C20"/><stop offset="0.5899" style="stop-color:#F0D877"/><stop offset="0.8146" style="stop-color:#F6CE7E"/><stop offset="0.9944" style="stop-color:#E7C17F"/></linearGradient><circle class="st1" cx="256" cy="256" r="196.2"/><linearGradient gradientUnits="userSpaceOnUse" id="SVGID_3_" x1="256" x2="256" y1="452.968" y2="59.032"><stop offset="5.056200e-002" style="stop-color:#FFDF15"/><stop offset="0.2697" style="stop-color:#DB8B0E"/><stop offset="0.5575" style="stop-color:#FF9200"/><stop offset="0.8146" style="stop-color:#F7E3B1"/><stop offset="0.8883" style="stop-color:#F0D37C"/><stop offset="0.9589" style="stop-color:#E9C64F"/><stop offset="0.9944" style="stop-color:#E7C13E"/></linearGradient><circle class="st2" cx="256" cy="256" r="196.2"/></g><g class="st3" id="Shape_1"><g><path class="st4" d="M377.6,285.1v-66.7c-0.6-13.4-2.6-23.3-8.7-30.5c-8.2-9.8-23.4-13.8-52.6-13.8H210.8    c-29.8,0-45.2,4.3-53.4,14.7c-8,10.2-8,25.2-8,45.9v39.5c0,40.2,9.5,60.6,61.4,60.6h105.5c25.3,0,39.2-3.5,48.2-12.2    C372.5,315.2,376.5,303.7,377.6,285.1z M296,260l-47.9,25c-1.1,0.5-2.2,0.9-3.4,0.9c-1.3,0-2.7-0.3-3.9-1.1    c-2.2-1.3-3.5-3.7-3.5-6.3v-49.9c0-2.6,1.4-4.9,3.5-6.3c2.2-1.3,4.9-1.4,7.2-0.2l47.9,24.8c2.5,1.3,4,3.7,4,6.5    C300,256.2,298.5,258.7,296,260z"/></g><g><linearGradient gradientTransform="matrix(0.498 0 0 -0.498 64.752 320.25)" gradientUnits="userSpaceOnUse" id="SVGID_4_" x1="170.6151" x2="627.4948" y1="132.0657" y2="132.0657"><stop offset="5.056200e-002" style="stop-color:#FFDF15"/><stop offset="0.2697" style="stop-color:#DB8B0E"/><stop offset="0.5575" style="stop-color:#FF9200"/><stop offset="0.8146" style="stop-color:#F7E3B1"/><stop offset="0.8883" style="stop-color:#F0D37C"/><stop offset="0.9589" style="stop-color:#E9C64F"/><stop offset="0.9944" style="stop-color:#E7C13E"/></linearGradient><path class="st5" d="M377.6,285.1v-66.7c-0.6-13.4-2.6-23.3-8.7-30.5c-8.2-9.8-23.4-13.8-52.6-13.8H210.8    c-29.8,0-45.2,4.3-53.4,14.7c-8,10.2-8,25.2-8,45.9v39.5c0,40.2,9.5,60.6,61.4,60.6h105.5c25.3,0,39.2-3.5,48.2-12.2    C372.5,315.2,376.5,303.7,377.6,285.1z M296,260l-47.9,25c-1.1,0.5-2.2,0.9-3.4,0.9c-1.3,0-2.7-0.3-3.9-1.1    c-2.2-1.3-3.5-3.7-3.5-6.3v-49.9c0-2.6,1.4-4.9,3.5-6.3c2.2-1.3,4.9-1.4,7.2-0.2l47.9,24.8c2.5,1.3,4,3.7,4,6.5    C300,256.2,298.5,258.7,296,260z"/></g></g></svg>