<?xml version="1.0" ?><!DOCTYPE svg  PUBLIC '-//W3C//DTD SVG 1.1//EN'  'http://www.w3.org/Graphics/SVG/1.1/DTD/svg11.dtd'><svg enable-background="new 0 0 512 512" id="Layer_1" version="1.1" viewBox="0 0 512 512" xml:space="preserve" xmlns="http://www.w3.org/2000/svg" xmlns:xlink="http://www.w3.org/1999/xlink"><path d="M402.2,74.4c-4.9-5.8-12-9.1-19.6-9.1H129.4c-7.6,0-14.7,3.3-19.6,9.1c-4.9,5.8-7,13.4-5.8,20.9l15.4,92.6  c0,0.3,0.1,0.6,0.1,0.9l39.5,236.6c2,12.4,12.7,21.5,25.4,21.5h143c12.6,0,23.3-9,25.4-21.5l39.5-236.6c0-0.3,0.1-0.6,0.1-0.9  l15.4-92.6C409.2,87.7,407,80.1,402.2,74.4z M123,85.5c1.6-1.9,3.9-2.9,6.4-2.9h253.1c2.5,0,4.8,1,6.4,2.9c1.6,1.9,2.3,4.4,1.9,6.8  l-14.3,85.8h-241l-14.3-85.8C120.7,89.9,121.4,87.5,123,85.5z M182.4,329.7l-17-96.7c-0.8-4.7,2.3-9.2,7-10c4.7-0.8,9.2,2.3,10,7  l17,96.7c0.8,4.7-2.3,9.2-7,10c-0.5,0.1-1,0.1-1.5,0.1C186.8,336.9,183.1,333.9,182.4,329.7z M191,357.3c3.2-3.2,9-3.2,12.2,0  c1.6,1.6,2.5,3.9,2.5,6.1c0,2.3-0.9,4.5-2.5,6.1c-1.6,1.6-3.8,2.6-6.1,2.6c-2.3,0-4.5-1-6.1-2.6c-1.6-1.6-2.6-3.9-2.6-6.1  C188.4,361.1,189.4,358.9,191,357.3z M231.5,238.1l30.2-8.1c6.1-1.6,11.7,3.9,10,10l-8.1,30.2c-1.6,6.1-9.3,8.1-13.7,3.7l-22.1-22.1  C223.4,247.3,225.4,239.7,231.5,238.1z M286.3,380.1c-12.3,0-22.3-10-22.3-22.3c0-12.3,10-22.3,22.3-22.3c12.3,0,22.3,10,22.3,22.3  C308.6,370.2,298.6,380.1,286.3,380.1z" fill="#1D3A55"/></svg>