<?xml version="1.0" ?><svg enable-background="new 0 0 32 32" version="1.1" viewBox="0 0 32 32" xml:space="preserve" xmlns="http://www.w3.org/2000/svg" xmlns:xlink="http://www.w3.org/1999/xlink"><g id="SOLID"><g><path d="M24.772,1.625H1.625v28.75h28.75V7.228L24.772,1.625z M11.07,22.883c-1.075,0-1.949-0.867-1.948-1.942    c0-1.069,0.873-1.945,1.948-1.945c1.079,0,1.951,0.877,1.951,1.945C13.021,22.017,12.149,22.883,11.07,22.883z M15.965,22.88    c0-1.833-0.713-3.559-2.005-4.849c-1.293-1.295-3.011-2.009-4.838-2.009v-2.806c5.326,0,9.662,4.335,9.662,9.664H15.965z     M20.939,22.879c0-6.523-5.303-11.831-11.818-11.831V8.241c8.068,0,14.632,6.569,14.632,14.638H20.939z"/></g></g></svg>