<?xml version="1.0" ?><svg enable-background="new 0 0 32 32" version="1.1" viewBox="0 0 32 32" xml:space="preserve" xmlns="http://www.w3.org/2000/svg" xmlns:xlink="http://www.w3.org/1999/xlink"><g id="SOLID"><g><path d="M24.772,1.625H1.625v28.75h28.75V7.228L24.772,1.625z M20.96,22.871c-0.71,0.444-1.525,0.72-2.117,0.858    c-0.591,0.137-1.231,0.207-1.919,0.207c-0.719,0-1.413-0.079-2.07-0.296c-0.6-0.197-0.935-0.416-1.36-0.779    c-0.423-0.365-0.629-0.732-0.793-1.144c-0.164-0.41-0.266-1.262-0.266-2.043v-5.86h-2.131V11.15    c0.682-0.05,1.247-0.242,1.723-0.648c0.48-0.408,0.864-0.897,1.152-1.467c0.29-0.571,0.322-1.27,0.322-2.147h2.664v4.262h4.262    v2.664h-4.262v4.262c0,0.99,0.094,1.785,0.199,2.066c0.105,0.28,0.299,0.504,0.585,0.673c0.379,0.227,0.81,0.341,1.297,0.341    c0.865,0,1.87-0.294,2.714-0.949V22.871z"/></g></g></svg>