<?xml version="1.0" ?><svg enable-background="new 0 0 32 32" version="1.1" viewBox="0 0 32 32" xml:space="preserve" xmlns="http://www.w3.org/2000/svg" xmlns:xlink="http://www.w3.org/1999/xlink"><g id="SOLID"><g><g><polygon points="10.091,17.602 11.11,17.602 11.11,22.758 12.097,22.758 12.097,17.602 13.117,17.602 13.117,16.725      10.091,16.725    "/></g><g><path d="M18.322,18.253c-0.136,0-0.27,0.035-0.404,0.106c-0.132,0.07-0.256,0.174-0.375,0.309v-1.943h-0.884v6.033h0.884v-0.341     c0.114,0.137,0.24,0.237,0.374,0.301c0.133,0.065,0.285,0.096,0.457,0.096c0.26,0,0.459-0.083,0.595-0.251     c0.137-0.168,0.206-0.41,0.206-0.724v-2.47c0-0.365-0.072-0.642-0.22-0.832C18.811,18.348,18.6,18.253,18.322,18.253z      M18.275,21.715c0,0.143-0.027,0.244-0.077,0.306c-0.05,0.064-0.128,0.095-0.236,0.095c-0.074,0-0.144-0.017-0.211-0.048     c-0.068-0.031-0.137-0.086-0.208-0.157v-2.773c0.06-0.061,0.12-0.107,0.18-0.136c0.061-0.03,0.122-0.043,0.185-0.043     c0.117,0,0.209,0.038,0.273,0.115c0.062,0.077,0.093,0.192,0.093,0.342V21.715z"/></g><g><path d="M15.873,12.19c0.133,0,0.239-0.038,0.318-0.112c0.079-0.076,0.118-0.18,0.118-0.31V9.098c0-0.107-0.04-0.194-0.121-0.26     c-0.08-0.066-0.186-0.098-0.315-0.098c-0.121,0-0.218,0.033-0.294,0.098c-0.074,0.066-0.113,0.153-0.113,0.26v2.671     c0,0.134,0.036,0.237,0.106,0.312C15.642,12.154,15.742,12.19,15.873,12.19z"/></g><g><path d="M24.772,1.625H1.625v28.75h28.75V7.228L24.772,1.625z M18.112,8.013h0.984v3.759c0,0.116,0.023,0.2,0.064,0.252     c0.04,0.052,0.108,0.078,0.2,0.078c0.072,0,0.164-0.035,0.275-0.103c0.11-0.069,0.212-0.156,0.303-0.264V8.013h0.986v4.903     h-0.985v-0.542c-0.18,0.199-0.369,0.352-0.567,0.456c-0.197,0.104-0.387,0.156-0.572,0.156c-0.23,0-0.4-0.073-0.515-0.219     c-0.115-0.146-0.173-0.365-0.173-0.657V8.013z M14.453,9.135c0-0.381,0.132-0.683,0.398-0.908     c0.265-0.225,0.622-0.338,1.069-0.338c0.407,0,0.742,0.119,1.003,0.356c0.259,0.237,0.39,0.543,0.39,0.917v2.533     c0,0.419-0.128,0.748-0.382,0.987c-0.257,0.239-0.608,0.358-1.056,0.358c-0.43,0-0.776-0.123-1.035-0.369     c-0.257-0.247-0.387-0.578-0.387-0.995V9.135z M11.769,6.27l0.72,2.656h0.07l0.685-2.656h1.128l-1.291,3.888v2.758h-1.11v-2.633     L10.652,6.27H11.769z M22.773,24.089c-0.719,0.717-6.776,0.733-6.776,0.733s-6.056-0.016-6.777-0.733     c-0.721-0.719-0.723-4.263-0.723-4.29c0-0.021,0.002-3.57,0.723-4.289c0.721-0.717,6.777-0.727,6.777-0.726     c0-0.001,6.057,0.009,6.776,0.727c0.721,0.719,0.73,4.269,0.73,4.289C23.502,19.799,23.496,23.368,22.773,24.089z"/></g><g><path d="M20.964,18.197c-0.393,0-0.711,0.121-0.958,0.365c-0.247,0.243-0.372,0.559-0.372,0.944v1.999     c0,0.43,0.114,0.766,0.339,1.01c0.225,0.245,0.534,0.367,0.926,0.367c0.436,0,0.764-0.114,0.982-0.344     c0.221-0.232,0.329-0.576,0.329-1.032v-0.229h-0.9v0.203c0,0.263-0.031,0.431-0.088,0.508c-0.058,0.077-0.159,0.115-0.304,0.115     c-0.14,0-0.238-0.044-0.297-0.135c-0.057-0.091-0.085-0.254-0.085-0.488V20.64h1.674v-1.135c0-0.422-0.107-0.746-0.322-0.97     C21.673,18.31,21.365,18.197,20.964,18.197z M21.31,19.946h-0.774v-0.449c0-0.187,0.03-0.321,0.09-0.399     c0.061-0.083,0.161-0.122,0.301-0.122c0.133,0,0.232,0.039,0.29,0.122c0.062,0.078,0.093,0.213,0.093,0.399V19.946z"/></g><g><path d="M15.126,21.687c-0.084,0.096-0.173,0.176-0.272,0.238c-0.098,0.063-0.181,0.094-0.245,0.094     c-0.081,0-0.141-0.023-0.18-0.071c-0.035-0.048-0.054-0.123-0.054-0.229v-3.414h-0.874v3.721c0,0.266,0.052,0.463,0.153,0.596     c0.104,0.134,0.255,0.199,0.458,0.199c0.164,0,0.333-0.046,0.508-0.141c0.176-0.093,0.343-0.231,0.506-0.412v0.489H16v-4.451     h-0.874V21.687z"/></g></g></g></svg>