<?xml version="1.0" ?><svg enable-background="new 0 0 32 32" version="1.1" viewBox="0 0 32 32" xml:space="preserve" xmlns="http://www.w3.org/2000/svg" xmlns:xlink="http://www.w3.org/1999/xlink"><g id="SOLID"><g><g><path d="M17.365,17.313c-4.734,1.649-6.28,4.975-6.296,5.012c1.362,1.059,3.071,1.699,4.932,1.699     c1.111-0.001,2.169-0.227,3.132-0.637c-0.118-0.701-0.584-3.158-1.713-6.092C17.4,17.301,17.383,17.306,17.365,17.313z"/></g><g><path d="M21.298,9.978C19.886,8.733,18.031,7.977,16,7.977c-0.652,0-1.285,0.079-1.891,0.225c0.12,0.161,1.627,2.16,2.999,4.68     C20.136,11.747,21.279,10.008,21.298,9.978z"/></g><g><path d="M15.556,13.366c-1.389-2.467-2.873-4.481-2.98-4.623c-2.238,1.057-3.907,3.119-4.428,5.603     C8.36,14.348,11.703,14.39,15.556,13.366z"/></g><g><path d="M16.555,16.061c0.104-0.035,0.211-0.066,0.316-0.096c-0.201-0.456-0.421-0.913-0.651-1.364     c-4.132,1.237-8.095,1.148-8.237,1.143C7.981,15.83,7.977,15.914,7.977,16c0,2.061,0.778,3.941,2.056,5.36     C10.029,21.357,12.225,17.462,16.555,16.061z"/></g><g><path d="M24.772,1.625H1.625v28.75h28.75V7.228L24.772,1.625z M25.203,17.891c-0.124,0.605-0.308,1.199-0.548,1.766     c-0.235,0.557-0.526,1.094-0.866,1.596c-0.335,0.498-0.722,0.964-1.146,1.391c-0.425,0.423-0.893,0.809-1.39,1.147     c-0.502,0.338-1.04,0.629-1.596,0.866c-0.568,0.24-1.161,0.423-1.765,0.547c-0.62,0.128-1.256,0.193-1.892,0.193     c-0.637,0-1.274-0.065-1.892-0.193c-0.604-0.124-1.199-0.308-1.766-0.547c-0.557-0.237-1.094-0.527-1.597-0.866     c-0.497-0.337-0.964-0.723-1.389-1.147c-0.425-0.426-0.811-0.893-1.147-1.391c-0.339-0.501-0.631-1.039-0.866-1.596     c-0.24-0.568-0.424-1.161-0.549-1.766c-0.126-0.619-0.19-1.255-0.19-1.891c0-0.637,0.064-1.274,0.19-1.892     c0.124-0.605,0.308-1.199,0.548-1.766c0.236-0.558,0.527-1.096,0.866-1.597c0.336-0.498,0.722-0.964,1.147-1.391     c0.424-0.424,0.892-0.809,1.389-1.145c0.502-0.34,1.04-0.632,1.597-0.868c0.567-0.24,1.161-0.424,1.766-0.547     C14.726,6.668,15.363,6.604,16,6.604c0.636,0,1.273,0.064,1.892,0.191c0.604,0.123,1.198,0.307,1.765,0.547     c0.557,0.236,1.094,0.528,1.596,0.868c0.497,0.337,0.965,0.722,1.39,1.145c0.424,0.426,0.811,0.892,1.146,1.391     c0.341,0.501,0.632,1.039,0.866,1.597c0.241,0.566,0.424,1.161,0.548,1.766c0.127,0.618,0.192,1.255,0.192,1.892     C25.395,16.636,25.331,17.272,25.203,17.891z"/></g><g><path d="M17.726,14.078c0.186,0.383,0.367,0.772,0.534,1.164c0.059,0.14,0.117,0.278,0.173,0.416     c2.756-0.347,5.472,0.236,5.588,0.26c-0.019-1.902-0.7-3.647-1.825-5.014C22.181,10.924,20.894,12.784,17.726,14.078z"/></g><g><path d="M18.922,16.923c1.052,2.892,1.48,5.247,1.562,5.731c1.801-1.216,3.081-3.146,3.438-5.382     C23.756,17.219,21.512,16.508,18.922,16.923z"/></g></g></g></svg>