<?xml version="1.0" ?><svg enable-background="new 0 0 32 32" version="1.1" viewBox="0 0 32 32" xml:space="preserve" xmlns="http://www.w3.org/2000/svg" xmlns:xlink="http://www.w3.org/1999/xlink"><g id="SOLID"><g><path d="M24.772,1.625H1.625v28.75h28.75V7.228L24.772,1.625z M25.3,21.011c-0.111,0.26-0.613,0.629-2.366,0.9    c-0.143,0.022-0.199,0.209-0.284,0.6c-0.031,0.142-0.063,0.282-0.106,0.43c-0.037,0.128-0.117,0.187-0.251,0.187h-0.022    c-0.093,0-0.225-0.017-0.392-0.049c-0.297-0.058-0.63-0.112-1.053-0.112c-0.247,0-0.503,0.022-0.76,0.064    c-0.526,0.088-0.973,0.403-1.446,0.737c-0.687,0.486-1.397,0.988-2.502,0.988c-0.048,0-0.095-0.001-0.143-0.004h0    c-0.03,0.002-0.062,0.004-0.093,0.004c-1.105,0-1.815-0.501-2.501-0.986c-0.474-0.335-0.921-0.651-1.447-0.738    c-0.257-0.043-0.513-0.064-0.76-0.064c-0.445,0-0.797,0.069-1.053,0.119c-0.156,0.031-0.29,0.057-0.393,0.057    c-0.107,0-0.222-0.023-0.273-0.195c-0.044-0.149-0.075-0.293-0.106-0.432c-0.078-0.359-0.134-0.58-0.284-0.603    c-1.753-0.271-2.255-0.64-2.367-0.902c-0.016-0.037-0.025-0.075-0.027-0.112c-0.006-0.101,0.066-0.189,0.165-0.206    c2.695-0.444,3.903-3.198,3.953-3.315c0.001-0.003,0.003-0.006,0.004-0.01c0.165-0.334,0.197-0.624,0.096-0.862    c-0.185-0.436-0.788-0.627-1.187-0.754c-0.098-0.031-0.19-0.06-0.263-0.089c-0.797-0.315-0.863-0.638-0.832-0.803    c0.053-0.281,0.429-0.476,0.732-0.476c0.083,0,0.156,0.015,0.218,0.044c0.358,0.168,0.681,0.253,0.96,0.253    c0.385,0,0.553-0.162,0.574-0.183c-0.01-0.182-0.022-0.373-0.034-0.569c-0.08-1.274-0.18-2.857,0.223-3.761    c1.208-2.709,3.77-2.919,4.526-2.919c0.019,0,0.332-0.003,0.332-0.003l0.045,0c0.758,0,3.325,0.211,4.534,2.921    c0.403,0.904,0.303,2.488,0.223,3.761l-0.003,0.055c-0.011,0.177-0.022,0.35-0.031,0.515c0.019,0.02,0.174,0.168,0.523,0.182h0    c0.265-0.01,0.57-0.095,0.905-0.251c0.098-0.046,0.207-0.055,0.281-0.055c0.113,0,0.228,0.022,0.323,0.062l0.006,0.002    c0.271,0.096,0.448,0.286,0.452,0.484c0.004,0.187-0.139,0.467-0.838,0.743c-0.072,0.029-0.165,0.058-0.263,0.089    c-0.4,0.127-1.003,0.318-1.187,0.754c-0.101,0.238-0.069,0.528,0.096,0.862c0.001,0.003,0.003,0.006,0.004,0.01    c0.05,0.117,1.257,2.87,3.953,3.314c0.1,0.016,0.171,0.105,0.165,0.206C25.326,20.936,25.316,20.974,25.3,21.011z"/></g></g></svg>