<?xml version="1.0" ?><svg enable-background="new 0 0 64 64" height="64px" version="1.1" viewBox="0 0 64 64" width="64px" xml:space="preserve" xmlns="http://www.w3.org/2000/svg" xmlns:xlink="http://www.w3.org/1999/xlink"><g id="Guide"/><g id="Layer_1"><g><path d="M32,6.5C17.9394531,6.5,6.5,17.9394531,6.5,32S17.9394531,57.5,32,57.5S57.5,46.0605469,57.5,32    S46.0605469,6.5,32,6.5z M32,56.5C18.4902344,56.5,7.5,45.5092773,7.5,32S18.4902344,7.5,32,7.5S56.5,18.4907227,56.5,32    S45.5097656,56.5,32,56.5z" fill="#383838"/><path d="M48.2822266,19.1806641c-0.0878906-0.1123047-0.2207031-0.1811523-0.3632812-0.1894531    c-0.1464844-0.012207-0.2822266,0.0444336-0.3828125,0.1455078L34.0263672,32.6466675l-8.9101562,8.9099731    c-0.0003052,0.0003052-0.0004883,0.0008545-0.0007935,0.0011597l-5.9786987,5.9788208    c-0.1005859,0.1010742-0.1542969,0.2402344-0.1455078,0.3828125C19,48.0625,19.0683594,48.1943359,19.1806641,48.2827148    C22.8818359,51.1987305,27.3144531,52.7402344,32,52.7402344c11.4365234,0,20.7402344-9.3041992,20.7402344-20.7402344    C52.7402344,27.3154297,51.1992188,22.8828125,48.2822266,19.1806641z M44.1503906,23.9370117    c0.8066406,1.1455078,1.2294922,2.5043945,1.2294922,3.9628906c0,6.9189453-6.8769531,14.8569336-13.3798828,18.0449219    c-1.9482422-0.9526367-3.9443359-2.34375-5.8095703-4.0478516L44.1503906,23.9370117z M32,51.7402344    c-4.2714844,0-8.3222656-1.3466797-11.7529297-3.8999023l5.2446899-5.244751    c2.0158081,1.8452759,4.1798096,3.3550415,6.2943726,4.3565674C31.8535156,46.9838867,31.9267578,47,32,47    s0.1464844-0.0161133,0.2148438-0.0483398c6.8408203-3.2480469,14.1650391-11.6782227,14.1650391-19.0517578    c0-1.7275391-0.5273438-3.3320312-1.5177002-4.6751099l2.9776611-2.9777222    C50.3935547,23.6782227,51.7402344,27.7294922,51.7402344,32C51.7402344,42.8847656,42.8847656,51.7402344,32,51.7402344z" fill="#383838"/><path d="M22.6337891,38.7036133l13.4794922-13.4799805c0,0,0,0,0-0.0004883l4.2207031-4.2299805    c0.0002441-0.0002441,0.0001831-0.0005493,0.0004272-0.0007935l4.5288696-4.5289917    c0.1015625-0.1010742,0.1542969-0.2402344,0.1455078-0.3828125C45,15.9375,44.9316406,15.8056641,44.8193359,15.7172852    C41.1181641,12.8012695,36.6855469,11.2597656,32,11.2597656c-11.4365234,0-20.7402344,9.3041992-20.7402344,20.7402344    c0,4.6845703,1.5410156,9.1171875,4.4580078,12.8193359c0.0878906,0.1118164,0.2207031,0.1811523,0.3632812,0.1894531    c0.0097656,0.0004883,0.0195312,0.0009766,0.0292969,0.0009766c0.1318359,0,0.2587891-0.0522461,0.3535156-0.1459961    l6.1398315-6.1400757C22.612915,38.7156982,22.6251221,38.7123413,22.6337891,38.7036133z M22.3329468,37.5800781    c-2.3977661-3.3204346-3.7128296-6.7399902-3.7128296-9.6801758c0-3.059082,1.9521484-5.7128906,4.8574219-6.6025391    c0.6650391-0.2041016,1.3291016-0.3037109,1.9833984-0.3037109c2.3359375,0,4.5341797,1.2729492,6.125,3.6264648    C31.6787109,24.7573242,31.8339844,24.8398438,32,24.8398438s0.3212891-0.0825195,0.4140625-0.2197266    c1.6721802-2.4697266,3.9972534-3.7541504,6.4922485-3.6137085L22.3329468,37.5800781z M16.1601562,43.7529297    C13.6064453,40.3222656,12.2597656,36.2705078,12.2597656,32c0-10.8847656,8.8554688-19.7402344,19.7402344-19.7402344    c4.2714844,0,8.3222656,1.3466797,11.7529297,3.8999023l-3.9551392,3.9552612    c-2.9187622-0.4744873-5.7766724,0.7565308-7.796814,3.3713989c-2.6708984-3.4760742-6.2626953-3.9291992-8.8164062-3.1450195    c-3.328125,1.019043-5.5644531,4.0571289-5.5644531,7.5585938c0,3.1860962,1.4266968,6.8602295,4.0039062,10.3890381    L16.1601562,43.7529297z" fill="#383838"/></g></g></svg>