<?xml version="1.0" ?><svg enable-background="new 0 0 64 64" height="64px" version="1.1" viewBox="0 0 64 64" width="64px" xml:space="preserve" xmlns="http://www.w3.org/2000/svg" xmlns:xlink="http://www.w3.org/1999/xlink"><g id="Guide"/><g id="Layer_1"><g><path d="M12.625,35.0961914c1.8759766,0,3.4023438-1.1538086,3.4023438-2.5717773    S14.5009766,29.9526367,12.625,29.9526367c-0.2763672,0-0.5,0.2236328-0.5,0.5v4.1435547    C12.125,34.8725586,12.3486328,35.0961914,12.625,35.0961914z M13.125,30.9882812    c1.0722656,0.1552734,1.9023438,0.7958984,1.9023438,1.5361328S14.1972656,33.9052734,13.125,34.0605469V30.9882812z" fill="#383838"/><path d="M57.1796875,14.2885742l-6.1210938-2.3598633    c-0.1523438-0.059082-0.3261719-0.0385742-0.4628906,0.0541992c-0.1357422,0.0932617-0.2167969,0.2470703-0.2167969,0.4121094    v0.2949219v4.4248047v10.9306641h-2.0205078v-2.3022461c0-0.2763672-0.2236328-0.5-0.5-0.5h-6.2714844    c-0.2763672,0-0.5,0.2236328-0.5,0.5v6.8979492h-1.3564453c-0.0195923-0.0005493-0.0379028-0.0058594-0.0576172-0.0058594    h-8.3896484c-0.6290283,0-1.204895,0.2755127-1.6113281,0.7400513c-0.3474121-0.3166504-0.7099609-0.6257935-1.1015625-0.914856    c-3.7313843-2.7317505-7.6226196-2.5492554-9.1550903-2.3376465l1.1463013-3.0407715l1.9912109,0.8105469    c0.2558594,0.1044922,0.546875-0.0195312,0.6513672-0.2744141c0.1044922-0.2558594-0.0185547-0.5473633-0.2744141-0.6513672    l-2.4667969-1.0043945c-0.125-0.0517578-0.265625-0.0493164-0.3886719,0.0048828    c-0.1240234,0.0537109-0.2197266,0.1552734-0.2675781,0.2817383L14.913269,39.2305298    c-0.585144-0.1713257-1.2021484-0.2676392-1.84198-0.2676392C9.4482422,38.9628906,6.5,41.9106445,6.5,45.5341797    c0,3.6230469,2.9482422,6.5708008,6.5712891,6.5708008s6.5703125-2.9477539,6.5703125-6.5708008    c0-2.6304321-1.5567627-4.8983765-3.7940674-5.9473877l1.887146-5.0059814    c0.1025391,0.2957764,0.236145,0.5820923,0.4176636,0.8464355c0.6591797,0.9614258,1.7480469,1.5356445,2.9121094,1.5356445    h4.1298828v0.9165039h-1.6435547c-0.1601562,0-0.3105469,0.0766602-0.4042969,0.206543    c-0.0947266,0.1293945-0.1210938,0.2963867-0.0712891,0.4487305l0.2834473,0.8676147    c-0.0263672-0.0003052-0.0518188-0.0079346-0.0783691-0.0038452l-1.2275391,0.1933594    c-0.6337891,0.1000977-1.1572266,0.5390625-1.3671875,1.1459961c-0.2089844,0.6069336-0.0673828,1.2753906,0.3710938,1.7446289    l3.0576172,3.2753906c0.5761719,0.6166992,1.3896484,0.9707031,2.2333984,0.9707031h6.5388794    c0.5639038,3.0540771,3.2415161,5.3764648,6.4562378,5.3764648s5.8932495-2.3223877,6.4572144-5.3764648h2.0584106    c0.2763672,0,0.5-0.2236328,0.5-0.5s-0.2236328-0.5-0.5-0.5h-1.9541626    c0.0018921-0.0651245,0.0098267-0.1287231,0.0098267-0.1943359c0-3.6235352-2.9482422-6.5712891-6.5712891-6.5712891    c-0.4815063,0-0.9497681,0.0554199-1.4020996,0.1542358l-0.560791-2.0775757    c-0.0076904-0.0287476-0.0259399-0.0505981-0.038147-0.0766602h2.3311157c1.1865234,0,2.1513672-0.9707031,2.1513672-2.1640625    c0-0.4265747-0.1275024-0.8222046-0.340271-1.1577148h0.1029663h6.2714844h6.8554688c0.2763672,0,0.5-0.2236328,0.5-0.5    s-0.2236328-0.5-0.5-0.5h-1.96875v-4.0957031c0-0.2763672-0.2236328-0.5-0.5-0.5h-0.8662109V17.4575806l5.8007812-2.2363892    C57.3730469,15.1469727,57.5,14.9614258,57.5,14.7548828S57.3730469,14.362793,57.1796875,14.2885742z M18.6416016,45.5341797    c0,3.0717773-2.4990234,5.5708008-5.5703125,5.5708008C9.9990234,51.1049805,7.5,48.605957,7.5,45.5341797    s2.4990234-5.5712891,5.5712891-5.5712891c0.5157471,0,1.0131836,0.0760498,1.4875488,0.2078857l-0.8235474,2.1847534    c-0.2145386-0.0447998-0.4364014-0.069397-0.6640015-0.069397c-1.7910156,0-3.2480469,1.4570312-3.2480469,3.2480469    c0,1.7905273,1.4570312,3.2475586,3.2480469,3.2475586c1.7900391,0,3.2470703-1.4570312,3.2470703-3.2475586    c0-1.2085571-0.6711426-2.2526855-1.652771-2.8120117l0.828186-2.1970215    C17.3533325,41.4287109,18.6416016,43.3314819,18.6416016,45.5341797z M12.8945312,46.0019531    c0.0585938,0.0219727,0.1181641,0.0322266,0.1767578,0.0322266c0.2021484,0,0.3925781-0.1235352,0.4677734-0.3237305    l0.7722168-2.0484009c0.6060181,0.4030762,1.0070801,1.0909424,1.0070801,1.8721313    c0,1.2392578-1.0078125,2.2475586-2.2470703,2.2475586s-2.2480469-1.0083008-2.2480469-2.2475586    c0-1.2397461,1.0087891-2.2480469,2.2480469-2.2480469c0.1033325,0,0.2020264,0.0169678,0.3016968,0.0305176l-0.7694702,2.0412598    C12.5058594,45.6162109,12.6367188,45.9047852,12.8945312,46.0019531z M26.7626953,42.2573242    c0.6896973,0.1809082,1.2021484,0.8039551,1.2021484,1.5498047c0,0.8867188-0.7207031,1.6079102-1.6074219,1.6079102    s-1.6083984-0.7211914-1.6083984-1.6079102c0-0.7458496,0.5131226-1.3688965,1.203064-1.5498047H26.7626953z     M27.4575195,41.451355l0.4371948-1.4884644h1.367981v1.4423828c0,0.2763672,0.2236328,0.5,0.5,0.5h1.0205078v3.8232422    h-2.6777344c0.5240479-0.477356,0.859375-1.1583252,0.859375-1.9213867    C28.9648438,42.7636108,28.3448486,41.8679199,27.4575195,41.451355z M30.2626953,40.9052734v-2.0258789h3.0214844    l-1.28125,2.0258789H30.2626953z M18.9765625,34.8613281c-0.4814453-0.699707-0.5820312-1.5561523-0.2773438-2.3466797    l0.5253906-1.3496094c1.0185547-0.1757812,5.015625-0.6362305,8.7529297,2.1010742    c0.4306641,0.3183594,0.8359375,0.6572266,1.2080078,1.0097656c-0.0050659,0.0182495-0.0030518,0.0405884-0.0075073,0.0591431    c-0.0349731,0.1453247-0.0588989,0.2964478-0.0588989,0.4638062c0,0.1915894,0.0330811,0.3740845,0.0800171,0.5510864    c0.0126343,0.0474854,0.0274658,0.0925903,0.0431519,0.1387329c0.0499268,0.1471558,0.1130371,0.2869263,0.1918945,0.4180908    c0.0105591,0.0175781,0.0147095,0.0388794,0.0257568,0.0561523h-8.3955078    C20.2177734,35.9628906,19.4570312,35.5615234,18.9765625,34.8613281z M26.1943359,36.9628906H31.25v0.9165039h-1.4873047    c-0.2763672,0-0.5,0.2236328-0.5,0.5v0.5834961h-1.0742798l0.1299438-0.4423828    c0.0449219-0.1513672,0.015625-0.3144531-0.0791016-0.440918c-0.0947266-0.1259766-0.2431641-0.2001953-0.4003906-0.2001953    h-1.6445312V36.9628906z M27.1708984,38.8793945l-0.6849976,2.3328247    c-0.043457-0.0021362-0.0844727-0.0130005-0.128479-0.0130005c-0.18573,0-0.366394,0.0210571-0.5411987,0.0581055h-0.7996216    l-0.7763672-2.3779297H27.1708984z M21.6308594,41.0639648c0.0898438-0.2602539,0.3056641-0.4414062,0.578125-0.4838867    l1.2275391-0.1933594c0.0811768-0.0128174,0.1507568-0.0487671,0.2128906-0.0942383l0.5292969,1.6201172    c0.0327759,0.1000977,0.0967407,0.1826782,0.1769409,0.2428589c-0.3731079,0.4511719-0.6066284,1.0218506-0.6066284,1.6516724    c0,0.0362549,0.0092163,0.0698853,0.0106812,0.1057739l-1.9725952-2.1130981    C21.5996094,41.5991211,21.5419922,41.3237305,21.6308594,41.0639648z M39.3427734,51.1049805    c-2.6610718,0-4.8895264-1.8773193-5.4381104-4.3764648h2.425354c0.4775391,1.2000122,1.6450806,2.0532227,3.0127563,2.0532227    c1.3684082,0,2.5361328-0.8532104,3.0137329-2.0532227h2.425354    C44.2332764,49.2276611,42.0046997,51.1049805,39.3427734,51.1049805z M33.7724609,45.5341797    c0-2.3295898,1.4387207-4.3273315,3.4729004-5.157959l0.6165771,2.2842407    c-1.0435791,0.5407715-1.7662354,1.6190796-1.7662354,2.8737183c0,0.0665283,0.015686,0.1287842,0.0196533,0.1943359h-2.3330688    C33.7800293,45.6634521,33.7724609,45.5997925,33.7724609,45.5341797z M41.571167,45.7285156h-1.9639282    c0.0430298-0.0999146,0.0611572-0.2115479,0.0304565-0.324707l-0.56427-2.0903931    c0.0893555-0.0108643,0.177124-0.0272827,0.2693481-0.0272827c1.2392578,0,2.2480469,1.0083008,2.2480469,2.2480469    C41.5908203,45.600708,41.5768433,45.6634521,41.571167,45.7285156z M41.2396851,46.7285156    c-0.3986816,0.6305542-1.0974731,1.0532227-1.8969116,1.0532227s-1.4978638-0.4226685-1.8962402-1.0532227H41.2396851z     M38.6728516,45.6645508c0.0070801,0.0265503,0.0321655,0.0396729,0.0430908,0.0639648h-1.6005859    c-0.0056763-0.0650635-0.0196533-0.1278076-0.0196533-0.1943359c0-0.791626,0.413147-1.4854736,1.0328369-1.8861084    L38.6728516,45.6645508z M39.3427734,39.9628906c3.0722656,0,5.5712891,2.4995117,5.5712891,5.5712891    c0,0.0656128-0.0075684,0.1292725-0.0098267,0.1943359H42.571167c0.0039673-0.0655518,0.0196533-0.1278076,0.0196533-0.1943359    c0-1.7910156-1.4570312-3.2480469-3.2480469-3.2480469c-0.1821899,0-0.3579712,0.0248413-0.5321045,0.053833l-0.6096191-2.2583618    C38.5698242,40.0044556,38.9514771,39.9628906,39.3427734,39.9628906z M36.4150391,37.300293l0.5689697,2.1077881    c-2.4595337,0.9507446-4.2115479,3.3347778-4.2115479,6.1260986c0,0.0656128,0.0079346,0.1292114,0.0098267,0.1943359h-0.9990845    v-3.8232422h0.4951172c0.171875,0,0.3310547-0.0878906,0.4228516-0.2329102l1.9130859-3.0258789    c0.0966797-0.1538086,0.1025391-0.3486328,0.0146484-0.5083008s-0.2548828-0.2587891-0.4375-0.2587891H32.25v-0.9165039h4.1998291    C36.4022827,37.0656128,36.3831177,37.1824951,36.4150391,37.300293z M40.8242188,34.7988281    c0,0.6420898-0.5166016,1.1640625-1.1513672,1.1640625h-8.3896484c-0.6416016,0-1.1640625-0.5219727-1.1640625-1.1640625    c0-0.125,0.0166016-0.2285156,0.0498047-0.3164062c0.0103149-0.0253296,0.0464478-0.1213379,0.0545654-0.1533813    c0.1784668-0.4215088,0.5941162-0.6937866,1.0596924-0.6937866h8.3566895    c0.0101318,0.0006104,0.0187378,0.0058594,0.0290527,0.0058594h0.0317993    C40.3118286,33.6575317,40.8242188,34.1779175,40.8242188,34.7988281z M42.0869141,26.2431641h5.2714844v2.3022461v4.0957031    h-5.2714844V26.2431641z M51.7451172,32.4316406h-3.3867188v-3.3862305h3.3867188V32.4316406z M51.3789062,16.3862305v-3.2626953    l4.2314453,1.6313477L51.3789062,16.3862305z" fill="#383838"/></g></g></svg>