<?xml version="1.0" ?><svg enable-background="new 0 0 64 64" height="64px" version="1.1" viewBox="0 0 64 64" width="64px" xml:space="preserve" xmlns="http://www.w3.org/2000/svg" xmlns:xlink="http://www.w3.org/1999/xlink"><g id="Guide"/><g id="Layer_1"><g><path d="M28.5048828,32.8251953c0.0002441-0.0002441,0.0003052-0.0006104,0.0005493-0.0008545l5.9139404-5.9138184    c0.0001831-0.0001831,0.0003662-0.0001831,0.0005493-0.0003662l6.6884766-6.6884766    c0.000061-0.000061,0-0.000061,0.000061-0.0001221l3.7548218-3.7547607    c0.1005859-0.1010742,0.1542969-0.2402344,0.1455078-0.3828125c-0.0078125-0.1425781-0.0771484-0.2749023-0.1894531-0.3632812    C41.1240234,12.8051758,36.6914062,11.2641602,32,11.2641602c-11.4335938,0-20.7363281,9.3022461-20.7363281,20.7358398    c0,4.6904297,1.5410156,9.1235352,4.4570312,12.8188477C15.8095703,44.9311523,15.9414062,45,16.0839844,45.0083008    c0.0097656,0.0004883,0.0195312,0.0009766,0.0292969,0.0009766c0.1318359,0,0.2597656-0.0522461,0.3535156-0.1464844    l11.2428589-11.2426758L28.5048828,32.8251953z M26.6384888,33.2772217l-0.6199341,0.619751v-5.7368164    c0-0.1958008-0.1142578-0.3740234-0.2929688-0.4550781c-0.8613281-0.3920898-1.5830078-1.2236328-2.0390625-2.3276367h1.8584595    c0.001709,0,0.0031128,0.0009766,0.0048218,0.0009766s0.0031128-0.0009766,0.0048218-0.0009766h2.5596924    c0.001709,0,0.0031128,0.0009766,0.0048218,0.0009766s0.0031128-0.0009766,0.0048218-0.0009766h1.859436    c-0.4560547,1.1040039-1.1777344,1.9355469-2.0390625,2.3276367c-0.1787109,0.0810547-0.2929688,0.2592773-0.2929688,0.4550781    v4.104187L26.6384888,33.2772217z M33.5,22.7548828c0-2.8662109,1.6464844-5.1982422,3.6699219-5.1982422    c1.1962891,0,2.2939453,0.8178711,2.984375,2.2045898l-5.9804688,5.9804688    C33.7363281,24.8676758,33.5,23.8291016,33.5,22.7548828z M16.1630859,43.7524414    C13.609375,40.3271484,12.2636719,36.2763672,12.2636719,32c0-10.8823242,8.8535156-19.7358398,19.7363281-19.7358398    c4.2773438,0,8.328125,1.3457031,11.7529297,3.8989258l-2.8607788,2.8607788    c-0.8737793-1.5562134-2.2261963-2.4672241-3.722229-2.4672241c-2.5751953,0-4.6699219,2.7807617-4.6699219,6.1982422    c0,1.3468018,0.3453369,2.6397095,0.9498901,3.7110596l-4.7985229,4.7984619v-2.7976074    c1.1314087-0.6326294,2.026001-1.8479004,2.4927368-3.3860474c0.0029297-0.0065308,0.0049438-0.0130615,0.0075684-0.0197144    c0.0045166-0.0149536,0.0119019-0.0274658,0.0162964-0.0424805c0.005188-0.0175171-0.0002441-0.0354004,0.0029907-0.0531006    c0.0053711-0.0293579,0.0175171-0.0561523,0.0175171-0.0870361v-7.5864258c0-0.2763672-0.2236328-0.5-0.5-0.5    s-0.5,0.2236328-0.5,0.5v7.0854492h-1.5693359v-7.0854492c0-0.2763672-0.2236328-0.5-0.5-0.5s-0.5,0.2236328-0.5,0.5v7.0854492    h-1.5693359v-7.0854492c0-0.2763672-0.2236328-0.5-0.5-0.5s-0.5,0.2236328-0.5,0.5v7.0854492h-1.5683594v-7.0854492    c0-0.2763672-0.2236328-0.5-0.5-0.5s-0.5,0.2236328-0.5,0.5v7.5864258c0,0.0308838,0.012146,0.0576782,0.0175171,0.0870361    c0.0032349,0.0177002-0.0021973,0.0355835,0.0029907,0.0531006c0.0043945,0.0150146,0.0117798,0.0275269,0.0162964,0.0424805    c0.0026245,0.0066528,0.0046387,0.0131836,0.0075684,0.0197144c0.4667358,1.538147,1.3613281,2.753418,2.4927368,3.3860474    v6.4303589L16.1630859,43.7524414z" fill="#383838"/><path d="M32,6.5C17.9394531,6.5,6.5,17.9394531,6.5,32S17.9394531,57.5,32,57.5S57.5,46.0605469,57.5,32    S46.0605469,6.5,32,6.5z M32,56.5C18.4902344,56.5,7.5,45.5092773,7.5,32S18.4902344,7.5,32,7.5S56.5,18.4907227,56.5,32    S45.5097656,56.5,32,56.5z" fill="#383838"/><path d="M48.2792969,19.1811523C48.1904297,19.0688477,48.0585938,19,47.9160156,18.9916992    c-0.1464844-0.0053711-0.2822266,0.0444336-0.3828125,0.1455078L36.2903442,30.3798828l-0.7952271,0.7949219    c-0.0002441,0.0002441-0.0003052,0.0006104-0.0005493,0.0008545l-10.036499,10.0363159l-0.2930298,0.2929077    c-0.000061,0.000061-0.0001221,0.0002441-0.0001831,0.0003052l-6.0281372,6.0280151    c-0.1005859,0.1010742-0.1542969,0.2402344-0.1455078,0.3828125c0.0078125,0.1425781,0.0771484,0.2749023,0.1894531,0.3632812    C22.8759766,51.1948242,27.3085938,52.7358398,32,52.7358398c11.4335938,0,20.7363281-9.3022461,20.7363281-20.7358398    C52.7363281,27.3095703,51.1953125,22.8764648,48.2792969,19.1811523z M37.9814453,30.1030273v15.8876953    c0,0.4448242-0.3720703,0.8208008-0.8115234,0.8208008c-0.453125,0-0.8212891-0.3681641-0.8212891-0.8208008V31.7356567    l1.0128784-1.0128784L37.9814453,30.1030273z M27.6513672,40.4331055v5.5576172    c0,0.4526367-0.3681641,0.8208008-0.8212891,0.8208008c-0.4394531,0-0.8115234-0.3759766-0.8115234-0.8208008v-3.9251709    l0.3630371-0.3630371L27.6513672,40.4331055z M32,51.7358398c-4.2773438,0-8.328125-1.3457031-11.7529297-3.8989258    l4.7714844-4.7714233v2.9252319c0,1.0039062,0.8125,1.8208008,1.8115234,1.8208008    c1.0039062,0,1.8212891-0.8168945,1.8212891-1.8208008v-6.5579834l6.6972656-6.6971436v13.255127    c0,1.0039062,0.8173828,1.8208008,1.8212891,1.8208008c0.9990234,0,1.8115234-0.8168945,1.8115234-1.8208008V29.1028442    l8.8554688-8.8552856C50.390625,23.6728516,51.7363281,27.7236328,51.7363281,32    C51.7363281,42.8823242,42.8828125,51.7358398,32,51.7358398z" fill="#383838"/></g></g></svg>