<?xml version="1.0" ?><svg height="256px" id="Layer_1" style="enable-background:new 0 0 256 256;" version="1.1" viewBox="0 0 256 256" width="256px" xml:space="preserve" xmlns="http://www.w3.org/2000/svg" xmlns:xlink="http://www.w3.org/1999/xlink"><style type="text/css">
	.st0{fill:#DD5050;}
	.st1{fill:#F76B6B;}
	.st2{fill:none;stroke:#F79494;stroke-width:8;stroke-linecap:round;stroke-linejoin:round;stroke-miterlimit:10;}
	.st3{fill:#F7F2F2;}
</style><g><path class="st0" d="M228.6,135c-6,28.8-50.2,46.8-70.2,53.5c-6.7,2.3-12.8,5.6-17.8,9.9c-3.7,4.4-7.4,8.7-11.1,13.1   c-1.5-1.7-2.9-3.5-4.4-5.2c2.2-2.6,4.4-5.2,6.7-7.9c5-4.3,11-7.6,17.8-9.9c20-6.7,64.2-24.7,70.2-53.5   c7.7-37.3-15.5-72.5-51.9-78.6c-1.8-0.3-4.5-1-7.9-1.3c7.5-0.9,13.6,0.8,16.8,1.3C213.1,62.5,236.4,97.7,228.6,135z"/><path class="st1" d="M219.8,135c-6,28.8-50.2,46.8-70.2,53.5c-6.7,2.3-12.8,5.6-17.8,9.9c-2.2,2.6-4.4,5.2-6.7,7.9   c-2.2-2.6-4.4-5.2-6.7-7.9c-5-4.3-11-7.6-17.8-9.9c-20-6.7-64.2-24.7-70.2-53.5c-7.7-37.3,15.5-72.5,51.9-78.6   c1.7-0.3,4.4-0.9,7.8-1.3h0c4.6-0.5,10.4-0.4,16.8,1.8c8.6,3,14.6,8.5,18.4,13.1c2.2,2.7,3.7,5.1,4.5,6.5c2.1-3.8,8.7-14.8,22-19.6   c2.7-1,5.4-1.6,7.9-1.9c3.4,0.4,6.2,1,7.9,1.3C204.3,62.5,227.5,97.7,219.8,135z"/><path class="st2" d="M62.9,90.8c6.1-6.5,14.2-10.9,23.3-12.4c0.6-0.1,1.3-0.2,2.1-0.4c1.2-0.2,2.4-0.5,3.7-0.6l0.7-0.1   c0.8-0.1,1.5-0.1,2.2-0.1"/><path class="st2" d="M52.4,130.5c-1.6-7.8-1.3-15.5,0.8-22.7"/></g><g><path class="st3" d="M87.6,145.2v-18.3c0-2.3,0.7-4.1,2.1-5.6c1.4-1.4,3.2-2.2,5.4-2.2c2.6,0,4.6,1.2,6,3.6   c0.9-1.3,1.8-2.2,2.8-2.8s2.2-0.8,3.6-0.8c2.3,0,4,0.7,5.3,2.2c1.2,1.4,1.8,3.5,1.8,6.2v17.7H107v-16.5c0-0.8-0.1-1.4-0.2-1.6   c-0.1-0.3-0.4-0.4-0.8-0.4c-0.7,0-1.1,0.6-1.1,1.9v16.7h-7.6v-16.5c0-0.8-0.1-1.3-0.2-1.6s-0.4-0.4-0.8-0.4c-0.7,0-1.1,0.7-1.1,2   v16.5H87.6z"/><path class="st3" d="M131.2,119.2c3.6,0,6.7,1.3,9.3,3.9c2.6,2.6,3.9,5.8,3.9,9.4c0,3.7-1.3,6.9-3.9,9.5c-2.6,2.6-5.7,3.9-9.5,3.9   c-3.7,0-6.8-1.3-9.4-3.9c-2.6-2.6-3.9-5.8-3.9-9.4c0-3.7,1.3-6.9,3.9-9.5S127.4,119.2,131.2,119.2z M131,126.7   c-1.6,0-2.9,0.6-4,1.7c-1.1,1.1-1.6,2.5-1.6,4.1c0,1.6,0.5,3,1.6,4.1c1.1,1.1,2.4,1.7,4,1.7c1.6,0,2.9-0.6,4-1.7   c1.1-1.1,1.6-2.5,1.6-4.1c0-1.6-0.5-3-1.6-4.1C133.8,127.2,132.5,126.7,131,126.7z"/><path class="st3" d="M147.3,145.2v-18.3c0-2.3,0.7-4.1,2.1-5.6c1.4-1.4,3.2-2.2,5.4-2.2c2.6,0,4.6,1.2,6,3.6   c0.9-1.3,1.8-2.2,2.8-2.8s2.2-0.8,3.6-0.8c2.3,0,4,0.7,5.3,2.2c1.2,1.4,1.8,3.5,1.8,6.2v17.7h-7.6v-16.5c0-0.8-0.1-1.4-0.2-1.6   s-0.4-0.4-0.8-0.4c-0.7,0-1.1,0.6-1.1,1.9v16.7H157v-16.5c0-0.8-0.1-1.3-0.2-1.6c-0.1-0.3-0.4-0.4-0.8-0.4c-0.7,0-1.1,0.7-1.1,2   v16.5H147.3z"/></g></svg>