<?xml version="1.0" ?><svg height="256px" id="Layer_1" style="enable-background:new 0 0 256 256;" version="1.1" viewBox="0 0 256 256" width="256px" xml:space="preserve" xmlns="http://www.w3.org/2000/svg" xmlns:xlink="http://www.w3.org/1999/xlink"><style type="text/css">
	.st0{fill:#E0CEBD;}
	.st1{fill:#53C3F4;}
	.st2{display:none;}
	.st3{display:inline;fill:#1E1E1E;}
	
		.st4{display:inline;fill:#F4F4A8;stroke:#636362;stroke-width:4;stroke-linecap:round;stroke-linejoin:round;stroke-miterlimit:10;}
	.st5{fill:#1E1E1E;}
	.st6{fill:none;stroke:#666666;stroke-width:4;stroke-linecap:round;stroke-linejoin:round;stroke-miterlimit:10;}
	.st7{fill:#C61F0E;}
	.st8{fill:#EDDCCA;}
	.st9{fill:none;stroke:#777675;stroke-linecap:round;stroke-miterlimit:10;}
	.st10{fill:#FAFCFC;}
	.st11{fill:#723D0D;}
	.st12{fill:#505151;}
	.st13{fill:#F5F7F7;}
	.st14{fill:url(#SVGID_1_);}
	.st15{fill:url(#SVGID_2_);}
	.st16{fill:#DD5050;}
	.st17{fill:#F76B6B;}
	.st18{fill:none;stroke:#F79494;stroke-width:8;stroke-linecap:round;stroke-linejoin:round;stroke-miterlimit:10;}
	.st19{fill:#E2D0C0;}
</style><g><path class="st0" d="M129.1,99.6L129.1,99.6c6.6,0,12,5.4,12,12v31.5c0,6.6-5.4,12-12,12h0c-6.6,0-12-5.4-12-12v-31.5   C117.1,105,122.5,99.6,129.1,99.6z"/><path class="st1" d="M165,136.6V210l-0.1-1l-34.6,2l-4.8-0.1L91.7,209l-0.1,1v-73.5c0-5.1,5.4-9.2,12-9.2H153   C159.6,127.4,165,131.5,165,136.6z"/><g><g id="head_6_"><g class="st2"><path class="st3" d="M98.7,56c-1.3-0.8-2.9-1.8-4.7-3.2c0.2,0.5,0.5,0.9,0.7,1.3c2.7,5.2,3.9,8.9,3.9,8.9      c-3-0.8-5.8-1.6-8.3-2.6c1.8,2,2.7,3.4,2.7,3.4s-3.9,0.9-9.7,1.1c-7.4,0.2-14.7,0.4-21.1-3.3c-6.8-4-6.6-8.7-13-10.2      c-4.1-0.9-7.6,0.2-9,0.6c-6,1.9-9.2,6.3-10.2,7.8c1-2.2,7.4-15.7,20.6-18.1c7.2-1.3,13,1.5,17.9,3.3c0.3,0.1,0.6,0.2,1,0.4      c-4.1-5.6-4.9-9.8-10.8-12.8c0,0-3.5-1.8-21.5-3c1.3-0.7,2.9-1.5,4.9-2.2c2-0.7,4.4-1.3,7-1.7c1.8-0.2,6.5-0.8,12.2,0.3      c10.1,1.9,16.7,7.6,20.1,10.5c-1.8-5.7,0.1-7.4-1.8-11.1c-2.5-5-8.4-7.1-13.1-8.1c2.2-0.9,8.8-3.3,16.1-0.9      c10,3.3,13.9,13,14.6,14.9C101.7,42.2,98.7,56,98.7,56z"/><path class="st4" d="M86.6,23.7c-0.6-0.6-1.3-1.2-2-1.7"/><path class="st4" d="M94.4,39.4c-0.1-0.8-0.2-1.6-0.4-2.4c-0.5-2.3-1.5-5.7-3.6-8.8"/></g><g class="st2"><path class="st3" d="M225.9,60.7c-1-1.5-4.2-5.8-10.1-7.8c-1.4-0.4-4.9-1.5-9-0.6c-6.5,1.5-6.2,6.3-13,10.2      c-6.5,3.8-13.7,3.5-21.1,3.3c-5.8-0.2-9.7-1.1-9.7-1.1s0.9-1.3,2.7-3.4c-2.5,1-5.2,1.8-8.3,2.6c0,0,1.2-3.7,3.9-8.9      c0.2-0.4,0.5-0.8,0.7-1.3c-1.8,1.4-3.4,2.4-4.7,3.2c0,0-2.9-13.8,1.4-24.7c0.8-2,4.6-11.6,14.6-14.9c7.3-2.4,13.9,0,16.1,0.9      c-4.7,1-10.6,3.1-13.1,8.1c-1.9,3.7-0.1,5.3-1.8,11.1c3.4-2.9,10-8.6,20.1-10.5c5.8-1.1,10.4-0.6,12.2-0.3c2.7,0.4,5,1,7,1.7      c2,0.7,3.7,1.5,4.9,2.2c-18,1.2-21.5,3-21.5,3c-5.9,3-6.8,7.2-10.8,12.8c0.3-0.1,0.7-0.3,1-0.4c4.9-1.9,10.8-4.6,17.9-3.3      C218.5,45,224.9,58.6,225.9,60.7z"/><path class="st4" d="M172.1,22.3c0.8-0.4,1.6-0.7,2.5-1"/><path class="st4" d="M161.6,36.2c0.2-0.8,0.5-1.6,0.8-2.3c0.9-2.2,2.4-5.3,5-8"/></g><g><circle class="st5" cx="170.1" cy="53" r="23.2"/><path class="st6" d="M185.1,50.5c-0.7-3.9-2.8-7.3-5.9-9.6c-1.3-1-2.7-1.7-4.2-2.2c-0.7-0.2-1.5-0.4-2.2-0.6"/></g><g><circle class="st5" cx="89.3" cy="52.1" r="23.2"/><path class="st6" d="M74.3,49.6c0.7-3.9,2.8-7.3,5.9-9.6c1.3-1,2.7-1.7,4.2-2.2c0.7-0.2,1.5-0.4,2.2-0.6"/></g><path class="st7" d="M168,80.7c5.1,2.6,8.2,5.4,10.2,7.5c1.1,1.2,3,3.5,6.4,5.3c1.5,0.8,2.9,1.3,3.8,1.6     c-0.7-0.6-1.7-1.6-2.4-3.3c-1.2-2.8-0.6-5.3-0.4-6.1c3.6-1,7.2-1.9,10.9-2.9c-2-0.5-4-1.1-6.1-1.9c-5.1-1.7-9.7-3.7-13.7-5.8     C173.8,77,170.9,78.8,168,80.7z"/><path class="st7" d="M89.8,79.3c-5.1,2.6-8.2,5.4-10.2,7.5c-1.1,1.2-3,3.5-6.4,5.3c-1.5,0.8-2.9,1.3-3.8,1.6     c0.7-0.6,1.7-1.6,2.4-3.3c1.2-2.8,0.6-5.3,0.4-6.1c-3.6-1-7.2-1.9-10.9-2.9c2-0.5,4-1.1,6.1-1.9c5.1-1.7,9.7-3.7,13.7-5.8     C83.9,75.6,86.8,77.4,89.8,79.3z"/><ellipse class="st8" cx="128.3" cy="79.9" rx="46.1" ry="39.9"/><path class="st7" d="M110.6,43c-4.9,2.5-13.7,7.9-20.8,18.3c-4.3,6.3-6.5,12.3-7.6,16.7c-0.4-1.4-0.8-2.8-1.2-4.2     c0.7-3.7,2.4-9.9,7.1-16.1C96,47.1,107,43.9,110.6,43z"/><path class="st9" d="M146.9,101c-5.2,3-11.6,4.8-18.5,4.8c-7.5,0-14.5-2.1-19.9-5.6"/><g id="eye_16_"><path class="st10" d="M117.1,75.7c-0.1,1.1-0.6,7.6-4.9,9c-3.3,1.1-6.7-1.6-6.9-1.7c-2.3-2-2.8-5-3.7-11      c-0.7-4.8-0.2-5.8,0.1-6.3c1.6-2.6,5.8-3.3,8.8-2.3C115.6,65.1,117.4,71.4,117.1,75.7z"/><ellipse class="st11" cx="110" cy="75.7" rx="5.1" ry="7.4"/><ellipse class="st12" cx="110" cy="76.5" rx="2.3" ry="4"/><ellipse class="st13" cx="112" cy="72.3" rx="1.3" ry="1.5"/></g><g id="eye_15_"><path class="st10" d="M140.4,75.6c0.1,1.1,0.6,7.6,4.9,9c3.3,1.1,6.7-1.6,6.9-1.7c2.3-2,2.8-5,3.7-11c0.7-4.8,0.2-5.8-0.1-6.3      c-1.6-2.6-5.8-3.3-8.8-2.3C141.9,64.9,140.2,71.3,140.4,75.6z"/><ellipse class="st11" cx="147.5" cy="75.5" rx="5.1" ry="7.4"/><ellipse class="st12" cx="147.5" cy="76.3" rx="2.3" ry="4"/><ellipse class="st13" cx="145.5" cy="72.2" rx="1.3" ry="1.5"/></g></g><radialGradient cx="148.0654" cy="-10.5663" gradientTransform="matrix(1.1158 0 0 0.4877 -16.585 97.8412)" gradientUnits="userSpaceOnUse" id="SVGID_1_" r="10.7891"><stop offset="0" style="stop-color:#FF969E"/><stop offset="1" style="stop-color:#EDDCCA"/></radialGradient><ellipse class="st14" cx="148.6" cy="92.7" rx="16.3" ry="5.3"/><radialGradient cx="111.57" cy="-10.5663" gradientTransform="matrix(1.1158 0 0 0.4877 -16.585 97.8412)" gradientUnits="userSpaceOnUse" id="SVGID_2_" r="10.7891"><stop offset="0" style="stop-color:#FF969E"/><stop offset="1" style="stop-color:#EDDCCA"/></radialGradient><ellipse class="st15" cx="107.9" cy="92.7" rx="16.3" ry="5.3"/></g></g><g><path class="st16" d="M205.7,178.3c-4.7,22.5-39.3,36.6-54.9,41.8c-5.3,1.8-10,4.4-13.9,7.7c-2.9,3.4-5.8,6.8-8.6,10.2   c-1.1-1.4-2.3-2.7-3.4-4.1c1.7-2.1,3.5-4.1,5.2-6.2c3.9-3.3,8.6-6,13.9-7.7c15.6-5.3,50.2-19.3,54.9-41.8   c6.1-29.2-12.1-56.7-40.6-61.4c-1.4-0.2-3.5-0.7-6.2-1c5.8-0.7,10.6,0.6,13.1,1C193.6,121.7,211.7,149.2,205.7,178.3z"/><path class="st17" d="M198.8,178.3c-4.7,22.5-39.3,36.6-54.9,41.8c-5.2,1.8-10,4.4-13.9,7.7c-1.7,2.1-3.5,4.1-5.2,6.2   c-1.7-2.1-3.5-4.1-5.2-6.2c-3.9-3.3-8.6-6-13.9-7.7c-15.6-5.3-50.2-19.3-54.9-41.8c-6.1-29.2,12.1-56.7,40.6-61.4   c1.3-0.2,3.4-0.7,6.1-1h0c3.6-0.4,8.2-0.3,13.1,1.4c6.7,2.3,11.4,6.6,14.4,10.2c1.7,2.1,2.9,4,3.5,5.1c1.6-2.9,6.8-11.6,17.2-15.3   c2.1-0.8,4.2-1.2,6.2-1.5c2.7,0.3,4.8,0.8,6.2,1C186.7,121.7,204.8,149.2,198.8,178.3z"/><path class="st18" d="M76.1,143.7c4.8-5.1,11.1-8.5,18.2-9.7c0.5-0.1,1-0.2,1.6-0.3c0.9-0.2,1.9-0.4,2.9-0.5l0.6-0.1   c0.6-0.1,1.2-0.1,1.7-0.1"/><path class="st18" d="M67.9,174.8c-1.3-6.1-1-12.1,0.6-17.7"/></g><g><g id="hand_12_"><path class="st19" d="M57.5,164.3c0,4.7-1.9,8.8-4.7,10.6c-1,0.6-2,1-3.2,1c-4.3,0-7.8-5.2-7.8-11.5s3.5-11.5,7.8-11.5    c0.3,0,0.6,0,0.9,0.1C54.5,153.4,57.5,158.3,57.5,164.3z"/><path class="st8" d="M57.5,164.3c0,4.7-1.9,8.8-4.7,10.6c-3.9-0.6-7-5.5-7-11.5c0-4.7,1.9-8.8,4.7-10.6    C54.5,153.4,57.5,158.3,57.5,164.3z"/></g><g id="hand_11_"><path class="st19" d="M199,164.3c0,4.7,1.9,8.8,4.7,10.6c1,0.6,2,1,3.2,1c4.3,0,7.8-5.2,7.8-11.5s-3.5-11.5-7.8-11.5    c-0.3,0-0.6,0-0.9,0.1C202,153.4,199,158.3,199,164.3z"/><path class="st8" d="M199,164.3c0,4.7,1.9,8.8,4.7,10.6c3.9-0.6,7-5.5,7-11.5c0-4.7-1.9-8.8-4.7-10.6    C202,153.4,199,158.3,199,164.3z"/></g></g><path class="st7" d="M148.7,44c3.7,1.5,9.9,4.6,15.4,10.9c8.5,9.6,10,20.5,10.3,24.4c0.8-1.4,1.5-2.7,2.3-4.1  c-0.2-3.4-1-9.8-5.2-16.3C163.9,47.2,151.3,44.5,148.7,44z"/></svg>