<?xml version="1.0" ?><!DOCTYPE svg  PUBLIC '-//W3C//DTD SVG 1.1//EN'  'http://www.w3.org/Graphics/SVG/1.1/DTD/svg11.dtd'><svg enable-background="new 0 0 512 512" height="512px" id="Слой_1" version="1.1" viewBox="0 0 512 512" width="512px" xml:space="preserve" xmlns="http://www.w3.org/2000/svg" xmlns:xlink="http://www.w3.org/1999/xlink"><path d="M256.001,0.009C114.601,0.009,0.013,114.63,0.013,256c0,141.371,114.588,255.991,255.988,255.991  c141.367,0,255.986-114.62,255.986-255.991C511.987,114.63,397.368,0.009,256.001,0.009z M438.429,178.971  c7.529,17.875,12.374,36.592,14.403,55.842c-7.278-0.406-14.624-0.625-22.124-0.625c-32.467,0-66.9,3.75-102.183,11.468  c-5.874-12.531-12.218-25.188-18.905-37.874c39.843-19.75,75.497-43.342,105.839-69.123  C424.617,151.128,432.335,164.597,438.429,178.971z M91.852,366.776c-7.156-10.563-13.28-21.873-18.313-33.717  c-10.155-24-15.343-49.563-15.498-75.904c14.093,2,28.873,3.031,44.216,3.031c47.56,0,100.4-9.688,153.868-29.375  c5.467,10.187,10.654,20.406,15.592,30.592c-0.688,0.219-1.375,0.469-2.03,0.688C197.472,286.655,136.1,324.028,91.852,366.776z   M333.027,73.569c14.78,6.25,28.624,14.218,41.404,23.78c-27.219,22.625-58.153,42.499-92.058,59.154  c-0.531,0.281-1.096,0.531-1.596,0.813c-21.813-35.405-44.967-67.279-68.216-94.528c14.155-3.156,28.655-4.75,43.437-4.75  C282.749,58.038,308.653,63.257,333.027,73.569z M115.976,116.005c11.906-11.843,25.03-22.062,39.248-30.468  c24.437,26.562,48.716,58.748,71.184,94.278c-12.687,4.344-25.374,8.125-38.091,11.25c-29.842,7.375-58.841,11.093-86.059,11.093  c-12.656,0-24.749-0.813-36.123-2.438c2.063-7.031,4.562-13.968,7.406-20.75C83.509,155.378,97.79,134.191,115.976,116.005z   M178.941,438.462c-17.343-7.375-33.374-17.031-47.873-28.874c15.656-15.312,33.905-29.78,54.561-43.187  c30.874-20.063,65.434-36.688,102.745-49.373c2.25-0.781,4.469-1.5,6.75-2.25c12.498,31.906,21.904,62.811,27.623,91.091  c2.469,12.28,4.219,23.905,5.188,34.624c-22.873,8.938-47.062,13.468-71.934,13.468C229.22,453.961,203.315,448.743,178.941,438.462  z M395.962,395.995c-4.375,4.404-8.969,8.562-13.718,12.499c-5.5-32.749-15.78-69.528-30.593-108.341  c26.938-5.219,53.561-7.904,79.059-7.904l0,0l0,0c6.721,0,13.346,0.156,19.813,0.563c-2.563,13.75-6.593,27.217-12.093,40.248  C428.429,356.59,414.148,377.776,395.962,395.995z" id="Dribbble_2_"/></svg>