<?xml version="1.0" ?><!DOCTYPE svg  PUBLIC '-//W3C//DTD SVG 1.1//EN'  'http://www.w3.org/Graphics/SVG/1.1/DTD/svg11.dtd'><svg enable-background="new 0 0 64 64" height="64px" id="Layer_1" version="1.1" viewBox="0 0 64 64" width="64px" xml:space="preserve" xmlns="http://www.w3.org/2000/svg" xmlns:xlink="http://www.w3.org/1999/xlink"><g id="sledge_1_"><g><g><g><path d="M12.386,18.186c-0.112,0-0.226-0.038-0.315-0.112L8.16,14.89c-0.164-0.133-0.227-0.354-0.156-0.554      s0.258-0.332,0.469-0.334C8.676,14,9.317,13.93,9.598,13.635c0.119-0.125,0.267-0.479,0.409-0.818      c0.32-0.77,0.72-1.726,1.555-2.282c0.524-0.35,1.171-0.526,1.923-0.526c0.641,0,1.131,0.135,1.151,0.141      c0.204,0.057,0.351,0.236,0.364,0.447l0.393,5.919c0.014,0.19-0.084,0.37-0.248,0.466l-1.629,0.943      c-0.147,0.084-0.32,0.087-0.463,0.02l-0.469,0.201C12.52,18.172,12.453,18.186,12.386,18.186z M9.613,14.783l2.854,2.323      l0.502-0.216c0.117-0.051,0.245-0.053,0.359-0.014l1.047-0.605l-0.348-5.225c-0.148-0.021-0.336-0.039-0.543-0.039      c-0.551,0-1.011,0.12-1.368,0.358c-0.583,0.39-0.903,1.157-1.187,1.835c-0.193,0.463-0.361,0.863-0.607,1.123      C10.119,14.537,9.866,14.684,9.613,14.783z" fill="#37474F"/></g></g><g><g><g><g><g><path d="M11.164,18.754c-0.521,0-0.959-0.403-0.996-0.93c-0.039-0.551,0.376-1.028,0.927-1.067         c0.02-0.002,0.854-0.081,2.121-0.813c1.275-0.738,1.758-1.428,1.763-1.435c0.312-0.453,0.933-0.573,1.388-0.266         s0.579,0.921,0.274,1.378c-0.118,0.177-0.789,1.106-2.423,2.053c-1.627,0.941-2.771,1.063-2.983,1.078         C11.211,18.753,11.188,18.754,11.164,18.754z" fill="#37474F"/></g></g></g></g></g></g><g><g><path d="M44.5,51h-30c-3.006,0-5.695-2.434-5.995-5.426L7.002,30.55c-0.025-0.258,0.15-0.493,0.404-0.541     c0.074-0.015,1.854-0.346,4.572-0.346c3.232,0,6.318,0.458,9.172,1.36c4.564,1.443,7.168,4.275,9.686,7.015     C33.776,41.237,36.316,44,41.5,44c6.3,0,7.508-3.998,7.519-4.039c0.069-0.238,0.301-0.387,0.551-0.358     C49.816,39.637,50,39.849,50,40.098V45.5C50,48.532,47.532,51,44.5,51z M8.045,30.92L9.5,45.475C9.75,47.97,11.992,50,14.5,50h30     c2.481,0,4.5-2.019,4.5-4.5v-3.503C47.914,43.355,45.727,45,41.5,45c-5.623,0-8.43-3.053-11.4-6.285     c-2.43-2.643-4.94-5.375-9.25-6.738c-2.757-0.871-5.742-1.313-8.871-1.313C10.139,30.663,8.727,30.824,8.045,30.92z" fill="#37474F"/></g></g><g><g><path d="M9.281,23.593c0.628-2.354,2.127-4.319,4.221-5.531l1.188-0.686c1.297-0.751,2.822-1.148,4.41-1.148     c3.407,0,6.624,1.786,8.005,4.444l0.107,0.208l0.229,0.05c2.273,0.498,5.396,1.969,6.713,4.473     c1.292,2.457,0.909,5.914,0.119,8.329c-0.389,1.192-1.302,2.45-2.159,3.453l0.291,0.351c0.125,0.15,0.249,0.275,0.374,0.419     c0.945-1.093,1.991-2.521,2.445-3.912c0.853-2.609,1.252-6.372-0.186-9.104c-1.434-2.725-4.594-4.321-7.158-4.933     c-1.603-2.867-5.097-4.777-8.78-4.777c-1.764,0-3.462,0.443-4.911,1.283l-1.188,0.686c-2.324,1.346-3.989,3.525-4.686,6.139     c-0.227,0.85-0.332,1.71-0.338,2.564c0.29-0.029,0.627-0.058,1.002-0.081C8.992,25.076,9.085,24.33,9.281,23.593z" fill="#37474F"/></g><g><g><path d="M10.863,27.76c2.672,0,6.527,0.355,10.891,1.856c5.137,1.769,7.883,5.38,10.268,8.239      C34.513,40.842,37.312,43,41.5,43c4.646,0,5.729-3.403,5.778-3.526c0.597-1.501,1.206-2.086,2.147-2.374      c0.203-0.063,0.403-0.091,0.595-0.091c0.938,0,1.678,0.693,1.678,1.565c0,0.873-0.826,1.364-1.671,1.364      c-0.173,0-0.346-0.021-0.513-0.063C49.504,39.923,47.787,44,41.5,44c-5.124,0-8.391-2.717-11.014-5.863      c-2.209-2.649-4.737-5.58-9.336-7.113c-3.076-1.025-6.496-1.285-9.156-1.285c-2.587,0-4.455,0.246-4.588,0.271      c-0.063,0.013-0.127,0.019-0.188,0.019c-0.472,0-0.89-0.336-0.979-0.814c-0.104-0.543,0.254-1.066,0.796-1.169      C7.168,28.019,8.584,27.76,10.863,27.76L10.863,27.76z M10.863,26.76c-2.379,0-3.857,0.271-4.018,0.303      c-0.521,0.098-0.977,0.396-1.277,0.837c-0.302,0.442-0.412,0.974-0.313,1.499c0.178,0.943,1.004,1.629,1.962,1.629      c0.126,0,0.253-0.013,0.376-0.036c0.242-0.04,2.037-0.253,4.4-0.253c2.346,0,5.782,0.214,8.84,1.234      c4.446,1.482,6.906,4.434,8.884,6.805C32.134,41.675,35.656,45,41.5,45c5.301,0,7.674-2.661,8.554-4.062      c1.51-0.012,2.645-1.024,2.645-2.364c0-1.438-1.176-2.565-2.678-2.565c-0.296,0-0.595,0.045-0.888,0.135      c-1.299,0.397-2.105,1.255-2.784,2.961l-0.006,0.015l-0.013,0.035C46.09,39.821,45.029,42,41.5,42      c-3.308,0-5.913-1.431-8.711-4.785l-0.451-0.544c-2.307-2.785-5.178-6.252-10.26-8.001C17.489,27.092,13.447,26.76,10.863,26.76      L10.863,26.76z" fill="#37474F"/></g></g><g><g><path d="M10.863,27.76c2.672,0,6.527,0.355,10.891,1.856c5.137,1.769,7.883,5.38,10.268,8.239      C34.513,40.842,37.312,43,41.5,43c4.646,0,5.729-3.403,5.778-3.526c0.597-1.501,1.206-2.086,2.147-2.374      c0.203-0.063,0.403-0.091,0.595-0.091c0.938,0,1.678,0.693,1.678,1.565c0,0.873-0.826,1.364-1.671,1.364      c-0.173,0-0.346-0.021-0.513-0.063C49.504,39.923,47.787,44,41.5,44c-5.124,0-8.391-2.717-11.014-5.863      c-2.209-2.649-4.737-5.58-9.336-7.113c-3.076-1.025-6.496-1.285-9.156-1.285c-2.587,0-4.455,0.246-4.588,0.271      c-0.063,0.013-0.127,0.019-0.188,0.019c-0.472,0-0.89-0.336-0.979-0.814c-0.104-0.543,0.254-1.066,0.796-1.169      C7.168,28.019,8.584,27.76,10.863,27.76L10.863,27.76z M10.863,26.76c-2.379,0-3.857,0.271-4.018,0.303      c-0.521,0.098-0.977,0.396-1.277,0.837c-0.302,0.442-0.412,0.974-0.313,1.499c0.178,0.943,1.004,1.629,1.962,1.629      c0.126,0,0.253-0.013,0.376-0.036c0.242-0.04,2.037-0.253,4.4-0.253c2.346,0,5.782,0.214,8.84,1.234      c4.446,1.482,6.906,4.434,8.884,6.805C32.134,41.675,35.656,45,41.5,45c5.301,0,7.674-2.661,8.554-4.062      c1.51-0.012,2.645-1.024,2.645-2.364c0-1.438-1.176-2.565-2.678-2.565c-0.296,0-0.595,0.045-0.888,0.135      c-1.299,0.397-2.105,1.255-2.784,2.961l-0.006,0.015l-0.013,0.035C46.09,39.821,45.029,42,41.5,42      c-3.308,0-5.913-1.431-8.711-4.785l-0.451-0.544c-2.307-2.785-5.178-6.252-10.26-8.001C17.489,27.092,13.447,26.76,10.863,26.76      L10.863,26.76z" fill="#37474F"/></g></g></g><g><path d="M56.572,47.574c-1.333-0.496-2.629-0.269-3.288,0.719c-0.641,0.961-0.443,2.223,0.44,2.813    c0.791,0.527,1.608,0.364,2.134-0.424c0.153-0.229,0.091-0.54-0.139-0.693c-0.229-0.152-0.539-0.092-0.693,0.139    c-0.217,0.324-0.419,0.363-0.747,0.146c-0.476-0.317-0.455-0.987-0.163-1.426c0.443-0.664,1.355-0.655,2.063-0.354    c0.892,0.381,1.607,1.711,1.607,2.588C57.787,54.709,55.116,56,52,56H8.5C7.121,56,6,54.879,6,53.5V53c0-0.276-0.224-0.5-0.5-0.5    S5,52.724,5,53v0.5c0,0.092,0.02,0.179,0.027,0.27C5.015,53.813,5,53.856,5,53.904V55.5C5,57.43,6.57,59,8.5,59H52    C60.375,59,60.292,48.959,56.572,47.574z M52,58H8.5c-1.209,0-2.221-0.863-2.45-2.007C6.682,56.614,7.546,57,8.5,57H52    c2.524,0,4.102-0.753,5.094-1.658C56.364,56.925,54.896,58,52,58z" fill="#37474F"/></g><g><g><path d="M46.781,56.563c-0.216,0-0.415-0.141-0.479-0.357c-0.016-0.052-1.569-5.236-5.114-5.236     c-0.276,0-0.5-0.124-0.5-0.4s0.224-0.5,0.5-0.5c4.293,0,6.003,5.613,6.073,5.853c0.078,0.265-0.073,0.542-0.337,0.621     C46.876,56.556,46.828,56.563,46.781,56.563z" fill="#37474F"/></g></g><g><g><path d="M12.188,56.563c-0.047,0-0.095-0.007-0.142-0.021c-0.265-0.078-0.416-0.356-0.338-0.621     c0.071-0.239,1.78-5.853,6.073-5.853c0.276,0,0.5,0.224,0.5,0.5s-0.224,0.4-0.5,0.4c-3.555,0-5.1,5.185-5.114,5.235     C12.603,56.422,12.403,56.563,12.188,56.563z" fill="#37474F"/></g></g><g><g><path d="M15.701,41.336c-0.131,0-0.263-0.052-0.361-0.154c-0.19-0.2-0.184-0.517,0.017-0.707     c0.498-0.476,0.919-1.313,1.101-2.188c0.331-1.6-0.699-3.171-2.296-3.502c-1.228-0.256-2.43,0.537-2.684,1.761     c-0.192,0.926,0.404,1.835,1.331,2.028c0.686,0.138,1.361-0.302,1.504-0.988c0.056-0.271,0.32-0.451,0.591-0.388     c0.271,0.056,0.444,0.32,0.388,0.591c-0.254,1.226-1.463,2.02-2.686,1.764c-1.467-0.305-2.412-1.745-2.107-3.21     c0.365-1.765,2.103-2.901,3.865-2.538c2.139,0.445,3.516,2.547,3.072,4.686c-0.223,1.078-0.742,2.09-1.389,2.707     C15.95,41.29,15.826,41.336,15.701,41.336z" fill="#37474F"/></g></g><g><g><path d="M12.711,50.613c-0.232,0-0.441-0.163-0.488-0.4c-1.377-6.755,3.295-10.891,7.052-11.67     c1.376-0.288,2.788-0.019,3.968,0.754c1.18,0.773,1.986,1.959,2.272,3.339c0.483,2.335-1.021,4.628-3.354,5.111     c-1.921,0.4-3.807-0.839-4.205-2.76c-0.16-0.771-0.011-1.559,0.421-2.216c0.432-0.658,1.095-1.108,1.865-1.268     c0.27-0.063,0.535,0.117,0.591,0.388s-0.118,0.535-0.389,0.591c-0.509,0.105-0.946,0.402-1.231,0.837s-0.384,0.955-0.278,1.465     c0.287,1.381,1.645,2.272,3.023,1.984c1.793-0.372,2.95-2.135,2.578-3.93c-0.232-1.118-0.886-2.079-1.842-2.705     c-0.955-0.627-2.098-0.846-3.216-0.612c-2.634,0.547-7.633,3.83-6.276,10.492c0.056,0.271-0.119,0.534-0.39,0.59     C12.777,50.61,12.744,50.613,12.711,50.613z" fill="#37474F"/></g></g><g><g><path d="M21.926,39.665c-0.276,0-0.5-0.224-0.5-0.5s0.224-0.5,0.5-0.5c0.918,0,1.666-0.747,1.666-1.665     c0-0.679-0.553-1.231-1.232-1.231c-0.488,0-0.887,0.397-0.887,0.886c0,0.276-0.224,0.5-0.5,0.5s-0.5-0.224-0.5-0.5     c0-1.04,0.846-1.886,1.887-1.886c1.23,0,2.232,1.001,2.232,2.231C24.592,38.47,23.396,39.665,21.926,39.665z" fill="#37474F"/></g></g><g><path d="M6.938,20.432c-0.625,0.001-1.115-0.368-1.526-0.679c-0.483-0.364-0.775-0.563-1.155-0.436    c-0.265,0.087-0.546-0.053-0.634-0.313c-0.088-0.262,0.052-0.546,0.313-0.634c0.901-0.303,1.553,0.188,2.078,0.585    c0.482,0.364,0.775,0.563,1.155,0.436c0.382-0.129,0.494-0.465,0.659-1.048c0.18-0.633,0.402-1.42,1.303-1.723    c0.901-0.308,1.553,0.188,2.079,0.584c0.483,0.364,0.773,0.564,1.158,0.436c0.262-0.087,0.545,0.053,0.633,0.314    s-0.053,0.545-0.314,0.633c-0.893,0.301-1.553-0.188-2.078-0.584c-0.484-0.365-0.782-0.563-1.158-0.436    c-0.382,0.129-0.494,0.465-0.659,1.048c-0.18,0.633-0.402,1.42-1.303,1.723C7.295,20.404,7.111,20.432,6.938,20.432z" fill="#37474F"/></g></g></svg>