<?xml version="1.0" ?><!DOCTYPE svg  PUBLIC '-//W3C//DTD SVG 1.1//EN'  'http://www.w3.org/Graphics/SVG/1.1/DTD/svg11.dtd'><svg enable-background="new 0 0 64 64" height="64px" id="Layer_1" version="1.1" viewBox="0 0 64 64" width="64px" xml:space="preserve" xmlns="http://www.w3.org/2000/svg" xmlns:xlink="http://www.w3.org/1999/xlink"><g id="snow_1_"><g><g><g><g><g><path d="M58.188,27.992c-1.158-1.76-3.124-2.74-5.842-2.913c-4.651-0.28-5.26,3.624-5.823,7.059        c-0.323,1.971-0.631,3.851-1.578,4.926c0.027-0.437,0.102-0.984,0.159-1.408c0.302-2.221,0.715-5.263-1.732-5.655        c-0.682-0.108-1.254,0.095-1.738,0.58c-1.463,1.466-1.613,5.377-1.609,6.988c-0.012,0.094-0.244,0.354-0.415,0.544        C38.977,38.816,38.002,39.882,38,42v4.563h1v-4.562c0.002-1.736,0.79-2.595,1.353-3.221c0.36-0.401,0.672-0.749,0.671-1.212        c-0.005-2.394,0.338-5.301,1.317-6.282c0.261-0.261,0.534-0.358,0.872-0.298c1.371,0.22,1.219,2.183,0.899,4.532        c-0.176,1.299-0.304,2.238,0.03,2.771c0.146,0.231,0.449,0.304,0.681,0.163c1.86-1.114,2.28-3.677,2.687-6.155        c0.569-3.477,1.085-6.456,4.771-6.222c2.389,0.152,4.095,0.981,5.071,2.465c1.58,2.4,1.37,6.601-0.608,12.146        c-0.781,2.191-3.604,4.432-5.735,5.875h1.738c2.01-1.49,4.209-3.493,4.938-5.539C59.142,36.943,60.411,31.369,58.188,27.992z" fill="#37474F"/></g></g></g></g><g><g><g><g><path d="M13.062,46.563c-2.131-1.442-4.952-3.683-5.734-5.875C5.35,35.142,5.139,30.941,6.72,28.541        c0.977-1.483,2.683-2.313,5.07-2.464c0.139-0.009,0.273-0.014,0.404-0.014c3.345,0,3.818,2.89,4.367,6.235        c0.406,2.479,0.826,5.041,2.687,6.155c0.23,0.141,0.536,0.068,0.681-0.163c0.333-0.532,0.206-1.471,0.029-2.77        c-0.318-2.351-0.472-4.313,0.9-4.533c0.34-0.061,0.611,0.036,0.873,0.298c0.978,0.98,1.32,3.888,1.315,6.283        c0,0.463,0.311,0.809,0.671,1.21C24.28,39.406,24.998,40.263,25,42v4.563h1v-4.563c-0.002-2.119-0.905-3.184-1.538-3.888        c-0.17-0.19-0.404-0.45-0.415-0.541c0.004-1.614-0.146-5.525-1.608-6.99c-0.483-0.485-1.056-0.688-1.738-0.58        c-2.447,0.393-2.034,3.435-1.732,5.655c0.058,0.424,0.132,0.971,0.159,1.406c-0.947-1.075-1.256-2.955-1.579-4.926        c-0.563-3.436-1.165-7.336-5.822-7.061c-2.717,0.173-4.683,1.147-5.841,2.907c-2.224,3.376-0.955,8.941,0.501,13.023        c0.734,2.059,2.955,4.067,4.975,5.557H13.062z" fill="#37474F"/></g></g></g></g><g><g><g><g><g><path d="M52.5,56h-15c-1.379,0-2.5-1.121-2.5-2.5v-5c0-1.379,1.121-2.5,2.5-2.5h15c1.379,0,2.5,1.121,2.5,2.5         v5C55,54.879,53.879,56,52.5,56z M37.5,47c-0.827,0-1.5,0.673-1.5,1.5v5c0,0.827,0.673,1.5,1.5,1.5h15         c0.827,0,1.5-0.673,1.5-1.5v-5c0-0.827-0.673-1.5-1.5-1.5H37.5z" fill="#37474F"/></g></g></g></g><g><g><path d="M38,60v-4h14v4h1v-4.5c0-0.276-0.224-0.5-0.5-0.5h-15c-0.276,0-0.5,0.224-0.5,0.5V60H38z" fill="#37474F"/></g></g></g><g><g><g><g><g><path d="M26.5,56h-15C10.121,56,9,54.879,9,53.5v-5c0-1.379,1.121-2.5,2.5-2.5h15c1.379,0,2.5,1.121,2.5,2.5         v5C29,54.879,27.879,56,26.5,56z M11.5,47c-0.827,0-1.5,0.673-1.5,1.5v5c0,0.827,0.673,1.5,1.5,1.5h15         c0.827,0,1.5-0.673,1.5-1.5v-5c0-0.827-0.673-1.5-1.5-1.5H11.5z" fill="#37474F"/></g></g></g></g><g><g><path d="M12,60v-4h14v4h1v-4.5c0-0.276-0.224-0.5-0.5-0.5h-15c-0.276,0-0.5,0.224-0.5,0.5V60H12z" fill="#37474F"/></g></g></g></g><g><g><g><path d="M9,16.5c0.276,0,0.5,0.224,0.5,0.5v4c0,0.276-0.224,0.5-0.5,0.5S8.5,21.276,8.5,21v-4      C8.5,16.724,8.724,16.5,9,16.5z" fill="#37474F"/></g><g><path d="M10.768,17.232c0.195,0.195,0.195,0.512,0,0.707l-2.828,2.828c-0.195,0.195-0.512,0.195-0.707,0      s-0.195-0.512,0-0.707l2.828-2.828C10.256,17.037,10.572,17.037,10.768,17.232z" fill="#37474F"/></g><g><path d="M11.5,19c0,0.276-0.224,0.5-0.5,0.5H7c-0.276,0-0.5-0.224-0.5-0.5s0.224-0.5,0.5-0.5h4      C11.276,18.5,11.5,18.724,11.5,19z" fill="#37474F"/></g><g><path d="M10.768,20.768c-0.195,0.195-0.512,0.195-0.707,0l-2.828-2.828c-0.195-0.195-0.195-0.512,0-0.707      s0.512-0.195,0.707,0l2.828,2.828C10.963,20.256,10.963,20.572,10.768,20.768z" fill="#37474F"/></g><g><path d="M9,21.5c-0.276,0-0.5-0.224-0.5-0.5v-4c0-0.276,0.224-0.5,0.5-0.5s0.5,0.224,0.5,0.5v4      C9.5,21.276,9.276,21.5,9,21.5z" fill="#37474F"/></g></g></g><g><g><g><path d="M55,4.5c0.276,0,0.5,0.224,0.5,0.5v4c0,0.276-0.224,0.5-0.5,0.5S54.5,9.276,54.5,9V5      C54.5,4.724,54.724,4.5,55,4.5z" fill="#37474F"/></g><g><path d="M56.768,5.232c0.195,0.195,0.195,0.512,0,0.707l-2.828,2.828c-0.195,0.195-0.512,0.195-0.707,0      s-0.195-0.512,0-0.707l2.828-2.828C56.256,5.037,56.572,5.037,56.768,5.232z" fill="#37474F"/></g><g><path d="M57.5,7c0,0.276-0.224,0.5-0.5,0.5h-4c-0.276,0-0.5-0.224-0.5-0.5s0.224-0.5,0.5-0.5h4      C57.276,6.5,57.5,6.724,57.5,7z" fill="#37474F"/></g><g><path d="M56.768,8.768c-0.195,0.195-0.512,0.195-0.707,0l-2.828-2.828c-0.195-0.195-0.195-0.512,0-0.707      s0.512-0.195,0.707,0l2.828,2.828C56.963,8.256,56.963,8.572,56.768,8.768z" fill="#37474F"/></g><g><path d="M55,9.5c-0.276,0-0.5-0.224-0.5-0.5V5c0-0.276,0.224-0.5,0.5-0.5s0.5,0.224,0.5,0.5v4      C55.5,9.276,55.276,9.5,55,9.5z" fill="#37474F"/></g></g></g><g><g><g><path d="M52,15.5c0.276,0,0.5,0.225,0.5,0.5v6c0,0.276-0.224,0.5-0.5,0.5s-0.5-0.224-0.5-0.5v-6      C51.5,15.725,51.724,15.5,52,15.5z" fill="#37474F"/></g><g><path d="M54.475,16.525c0.195,0.195,0.195,0.512,0,0.707l-4.242,4.242c-0.195,0.195-0.512,0.195-0.707,0      s-0.195-0.512,0-0.707l4.242-4.242C53.963,16.33,54.279,16.33,54.475,16.525z" fill="#37474F"/></g><g><path d="M55.5,19c0,0.276-0.224,0.5-0.5,0.5h-6c-0.275,0-0.5-0.224-0.5-0.5s0.225-0.5,0.5-0.5h6      C55.275,18.5,55.5,18.724,55.5,19z" fill="#37474F"/></g><g><path d="M54.475,21.475c-0.195,0.195-0.512,0.195-0.707,0l-4.242-4.242c-0.195-0.195-0.195-0.512,0-0.707      s0.512-0.195,0.707,0l4.242,4.242C54.67,20.963,54.67,21.279,54.475,21.475z" fill="#37474F"/></g><g><path d="M52,22.5c-0.276,0-0.5-0.224-0.5-0.5v-6c0-0.276,0.224-0.5,0.5-0.5s0.5,0.224,0.5,0.5v6      C52.5,22.276,52.276,22.5,52,22.5z" fill="#37474F"/></g></g></g><g><g><g><path d="M14,4.5c0.276,0,0.5,0.225,0.5,0.5v6c0,0.275-0.224,0.5-0.5,0.5s-0.5-0.225-0.5-0.5V5      C13.5,4.724,13.724,4.5,14,4.5z" fill="#37474F"/></g><g><path d="M16.475,5.525c0.195,0.195,0.195,0.512,0,0.707l-4.242,4.242c-0.195,0.195-0.512,0.195-0.707,0      s-0.195-0.512,0-0.707l4.242-4.242C15.963,5.33,16.279,5.33,16.475,5.525z" fill="#37474F"/></g><g><path d="M17.5,8c0,0.276-0.225,0.5-0.5,0.5h-6c-0.276,0-0.5-0.224-0.5-0.5s0.224-0.5,0.5-0.5h6      C17.275,7.5,17.5,7.724,17.5,8z" fill="#37474F"/></g><g><path d="M16.475,10.475c-0.195,0.195-0.512,0.195-0.707,0l-4.242-4.242c-0.195-0.195-0.195-0.512,0-0.707      s0.512-0.195,0.707,0l4.242,4.242C16.67,9.963,16.67,10.279,16.475,10.475z" fill="#37474F"/></g><g><path d="M14,11.5c-0.276,0-0.5-0.224-0.5-0.5V5c0-0.276,0.224-0.5,0.5-0.5s0.5,0.224,0.5,0.5v6      C14.5,11.276,14.276,11.5,14,11.5z" fill="#37474F"/></g></g></g><g><g><g><g><path d="M32,5c0.276,0,0.5,0.224,0.5,0.5v25c0,0.276-0.224,0.5-0.5,0.5s-0.5-0.224-0.5-0.5v-25       C31.5,5.224,31.724,5,32,5z" fill="#37474F"/></g><g><path d="M41.192,8.808c0.195,0.195,0.195,0.512,0,0.707L23.515,27.192c-0.195,0.195-0.512,0.195-0.707,0       s-0.195-0.512,0-0.707L40.485,8.808C40.681,8.612,40.997,8.612,41.192,8.808z" fill="#37474F"/></g><g><path d="M45,18c0,0.276-0.224,0.5-0.5,0.5h-25c-0.276,0-0.5-0.224-0.5-0.5s0.224-0.5,0.5-0.5h25       C44.776,17.5,45,17.724,45,18z" fill="#37474F"/></g><g><path d="M41.192,27.192c-0.195,0.195-0.512,0.195-0.707,0L22.808,9.515c-0.195-0.195-0.195-0.512,0-0.707       s0.512-0.195,0.707,0l17.678,17.678C41.388,26.681,41.388,26.997,41.192,27.192z" fill="#37474F"/></g><g><path d="M32,31c-0.276,0-0.5-0.224-0.5-0.5v-25C31.5,5.224,31.724,5,32,5s0.5,0.224,0.5,0.5v25       C32.5,30.776,32.276,31,32,31z" fill="#37474F"/></g></g><g><g><path d="M30.5,6.469c0.153,0,0.306,0.072,0.405,0.207L32,8.181l1.095-1.505       c0.164-0.226,0.477-0.271,0.699-0.109c0.223,0.161,0.271,0.474,0.111,0.698L32,9.881l-1.904-2.616       c-0.163-0.224-0.112-0.537,0.11-0.698C30.294,6.501,30.396,6.469,30.5,6.469z" fill="#37474F"/><path d="M32,26.121l1.903,2.617c0.164,0.224,0.114,0.537-0.109,0.699c-0.222,0.161-0.535,0.113-0.698-0.11       L32,27.819l-1.096,1.508c-0.163,0.224-0.475,0.271-0.698,0.11c-0.224-0.162-0.273-0.476-0.109-0.699L32,26.121z" fill="#37474F"/></g><g><path d="M39.094,8.786c0.108,0.108,0.165,0.267,0.14,0.433l-0.29,1.838l1.839-0.29       c0.275-0.043,0.528,0.146,0.571,0.417c0.044,0.271-0.143,0.527-0.415,0.572l-3.197,0.503l0.504-3.196       c0.043-0.273,0.3-0.459,0.571-0.416C38.925,8.663,39.021,8.713,39.094,8.786z" fill="#37474F"/><path d="M26.258,23.742l-0.505,3.197c-0.042,0.273-0.299,0.46-0.571,0.417       c-0.271-0.043-0.459-0.299-0.416-0.572l0.291-1.841l-1.841,0.291c-0.273,0.043-0.527-0.144-0.571-0.415       c-0.044-0.273,0.143-0.529,0.417-0.572L26.258,23.742z" fill="#37474F"/></g><g><path d="M43.531,16.501c0,0.153-0.071,0.306-0.207,0.404L41.819,18l1.506,1.096       c0.225,0.164,0.271,0.477,0.109,0.698c-0.161,0.224-0.474,0.272-0.698,0.111L40.119,18l2.617-1.903       c0.224-0.163,0.536-0.113,0.698,0.109C43.499,16.295,43.531,16.397,43.531,16.501z" fill="#37474F"/><path d="M23.88,18l-2.618,1.904c-0.223,0.163-0.536,0.113-0.698-0.109c-0.161-0.222-0.113-0.536,0.11-0.699       L22.181,18l-1.507-1.096c-0.224-0.163-0.271-0.475-0.11-0.697c0.162-0.225,0.475-0.273,0.699-0.11L23.88,18z" fill="#37474F"/></g><g><path d="M41.214,25.094c-0.108,0.108-0.267,0.166-0.432,0.14l-1.839-0.29l0.29,1.84       c0.043,0.274-0.146,0.528-0.416,0.571c-0.272,0.044-0.528-0.143-0.572-0.415l-0.504-3.198l3.197,0.505       c0.272,0.043,0.459,0.299,0.416,0.571C41.337,24.926,41.287,25.021,41.214,25.094z" fill="#37474F"/><path d="M26.259,12.259l-3.198-0.505c-0.272-0.043-0.459-0.299-0.416-0.571       c0.043-0.271,0.299-0.459,0.572-0.416l1.84,0.29l-0.29-1.84c-0.043-0.273,0.144-0.527,0.415-0.571       c0.273-0.044,0.528,0.143,0.572,0.416L26.259,12.259z" fill="#37474F"/></g><g><path d="M33.5,29.531c-0.154,0-0.307-0.071-0.404-0.206L32,27.819l-1.096,1.506       c-0.163,0.225-0.477,0.271-0.698,0.11c-0.224-0.162-0.272-0.475-0.11-0.698L32,26.119l1.904,2.618       c0.162,0.224,0.113,0.536-0.11,0.698C33.705,29.5,33.603,29.531,33.5,29.531z" fill="#37474F"/><path d="M32,9.881l-1.904-2.618c-0.162-0.224-0.113-0.536,0.11-0.698c0.222-0.161,0.535-0.113,0.698,0.11       L32,8.181l1.096-1.506c0.163-0.224,0.476-0.271,0.698-0.11c0.224,0.162,0.272,0.475,0.11,0.698L32,9.881z" fill="#37474F"/></g></g></g><path d="M34.248,24.062c-0.1,0-0.198-0.029-0.282-0.087l-2.005-1.372l-2.028,1.337    c-0.141,0.092-0.317,0.109-0.471,0.043c-0.154-0.065-0.266-0.203-0.296-0.368l-0.448-2.389l-2.379-0.487    c-0.164-0.034-0.3-0.147-0.363-0.303c-0.063-0.155-0.043-0.332,0.051-0.47l1.372-2.005l-1.338-2.029    c-0.093-0.14-0.108-0.316-0.043-0.471s0.203-0.266,0.368-0.296l2.389-0.448l0.488-2.38c0.034-0.164,0.147-0.301,0.303-0.363    c0.156-0.063,0.332-0.045,0.47,0.052l2.005,1.373l2.028-1.337c0.14-0.093,0.316-0.11,0.471-0.043    c0.154,0.065,0.266,0.203,0.296,0.368l0.448,2.388l2.379,0.487c0.164,0.034,0.3,0.147,0.363,0.303    c0.063,0.155,0.043,0.332-0.051,0.47l-1.372,2.005l1.337,2.029c0.093,0.14,0.108,0.316,0.043,0.471s-0.203,0.266-0.368,0.296    l-2.389,0.448l-0.487,2.379c-0.034,0.164-0.147,0.3-0.303,0.363C34.375,24.05,34.312,24.062,34.248,24.062z M31.966,21.5    c0.099,0,0.197,0.029,0.282,0.087l1.661,1.137l0.404-1.971c0.041-0.199,0.198-0.354,0.398-0.391l1.979-0.371l-1.108-1.682    c-0.112-0.17-0.11-0.39,0.004-0.558l1.137-1.661l-1.971-0.403c-0.199-0.041-0.354-0.198-0.391-0.398l-0.371-1.979l-1.682,1.108    c-0.17,0.113-0.39,0.111-0.558-0.005l-1.661-1.138l-0.404,1.972c-0.041,0.199-0.198,0.354-0.398,0.391l-1.979,0.371l1.108,1.682    c0.112,0.17,0.11,0.39-0.004,0.558l-1.137,1.661l1.971,0.404c0.199,0.041,0.354,0.198,0.391,0.398l0.371,1.979l1.681-1.107    C31.774,21.527,31.87,21.5,31.966,21.5z" fill="#37474F"/><path d="M35.559,27.307c-0.094,0-0.188-0.026-0.269-0.078l-3.351-2.139l-3.388,2.079    c-0.139,0.086-0.309,0.099-0.457,0.034c-0.148-0.063-0.258-0.194-0.293-0.352l-0.858-3.883l-3.865-0.925    c-0.157-0.038-0.287-0.149-0.348-0.299c-0.061-0.15-0.045-0.32,0.042-0.456l2.138-3.35l-2.079-3.389    c-0.085-0.138-0.098-0.309-0.034-0.457c0.063-0.148,0.194-0.258,0.352-0.293l3.882-0.858l0.924-3.865    c0.038-0.157,0.149-0.287,0.299-0.348c0.15-0.061,0.32-0.045,0.456,0.042l3.351,2.139l3.389-2.079    c0.138-0.086,0.31-0.099,0.457-0.034c0.148,0.063,0.258,0.194,0.293,0.352l0.858,3.883l3.865,0.925    c0.157,0.038,0.287,0.149,0.348,0.299c0.061,0.15,0.045,0.32-0.042,0.456l-2.138,3.35l2.08,3.389    c0.085,0.138,0.098,0.309,0.034,0.457c-0.063,0.148-0.194,0.258-0.352,0.293l-3.883,0.859l-0.925,3.864    c-0.038,0.157-0.149,0.287-0.299,0.348C35.686,27.295,35.622,27.307,35.559,27.307z M31.944,24c0.094,0,0.188,0.026,0.269,0.078    l3.022,1.93l0.835-3.486c0.045-0.187,0.191-0.331,0.378-0.372l3.503-0.775l-1.877-3.057c-0.101-0.163-0.099-0.369,0.004-0.53    l1.929-3.021l-3.487-0.835c-0.187-0.045-0.331-0.191-0.372-0.378l-0.774-3.503l-3.057,1.876c-0.163,0.101-0.371,0.098-0.53-0.004    l-3.022-1.93l-0.834,3.487c-0.045,0.187-0.191,0.331-0.378,0.372l-3.502,0.774l1.876,3.057c0.101,0.163,0.099,0.369-0.004,0.53    l-1.929,3.021l3.487,0.835c0.187,0.045,0.331,0.191,0.372,0.378l0.774,3.503l3.056-1.876C31.763,24.024,31.854,24,31.944,24z" fill="#37474F"/></g></g></svg>