<?xml version="1.0" ?><!DOCTYPE svg  PUBLIC '-//W3C//DTD SVG 1.1//EN'  'http://www.w3.org/Graphics/SVG/1.1/DTD/svg11.dtd'><svg enable-background="new 0 0 64 64" height="64px" id="Layer_1" version="1.1" viewBox="0 0 64 64" width="64px" xml:space="preserve" xmlns="http://www.w3.org/2000/svg" xmlns:xlink="http://www.w3.org/1999/xlink"><g id="wreath_1_"><g><g><g><g><path d="M43.772,30.182c-0.047,0-0.094-0.007-0.139-0.02c-0.219-0.063-1.335-0.412-1.793-1.063       c-0.637-0.903-0.28-2.278-0.237-2.432c0.05-0.179,0.194-0.316,0.377-0.355c5.009-1.075,9.715-3.263,11.988-5.576       c0.162-0.163,0.413-0.195,0.608-0.081c0.056,0.032,1.358,0.808,1.712,2.279c0.333,1.388,0.006,2.662-0.009,2.715       c-0.032,0.123-0.109,0.228-0.217,0.295c-3.599,2.268-8.291,3.891-12.248,4.235C43.802,30.182,43.787,30.182,43.772,30.182z        M42.509,27.22c-0.059,0.382-0.086,0.97,0.149,1.304c0.178,0.252,0.77,0.524,1.167,0.652c3.722-0.343,8.108-1.853,11.526-3.964       c0.065-0.358,0.171-1.185-0.035-2.043c-0.163-0.678-0.631-1.167-0.944-1.429C51.929,24.018,47.364,26.13,42.509,27.22z" fill="#37474F"/></g></g></g><g><path d="M44.818,54.027c-0.125,0-0.246-0.047-0.34-0.133c-3.352-3.102-6.571-7.688-7.83-11.152     c-0.061-0.167-0.028-0.354,0.086-0.491c0.028-0.034,0.701-0.837,1.304-1.24c0.282-0.19,0.675-0.282,1.2-0.282     c0.442,0,0.828,0.068,0.844,0.071c0.153,0.028,0.285,0.126,0.356,0.265c1.987,3.881,5.117,7.299,8.372,9.142     c0.193,0.11,0.292,0.334,0.24,0.551c-0.016,0.065-0.397,1.629-1.737,2.356c-1.209,0.657-2.347,0.895-2.395,0.904     C44.885,54.024,44.852,54.027,44.818,54.027z M37.691,42.675c1.251,3.229,4.184,7.386,7.271,10.302     c0.371-0.1,1.113-0.33,1.875-0.743c0.62-0.337,0.962-0.973,1.123-1.366c-3.265-1.958-6.261-5.249-8.291-9.116     c-0.118-0.013-0.271-0.023-0.431-0.023c-0.441,0-0.604,0.086-0.643,0.112C38.296,42.041,37.929,42.415,37.691,42.675z" fill="#37474F"/></g><g><g><g><path d="M18.133,53.174c-0.279,0-1.717-0.052-2.684-1.068c-0.909-0.96-1.553-1.75-1.58-1.783       c-0.125-0.155-0.146-0.371-0.054-0.549c2.173-4.122,6.062-8.007,8.952-10.029c0.075-0.053,0.164-0.084,0.257-0.089       c0.36,0.003,1.023,0.049,1.559,0.516c0.536,0.468,1.038,1.618,1.094,1.748c0.085,0.196,0.034,0.424-0.124,0.567       c-3.517,3.179-6.035,6.938-6.908,10.313c-0.056,0.216-0.246,0.368-0.469,0.375C18.17,53.174,18.137,53.174,18.133,53.174z        M14.858,49.947c0.259,0.307,0.735,0.857,1.316,1.471c0.489,0.516,1.191,0.681,1.612,0.732       c0.981-3.362,3.441-7.026,6.823-10.156c-0.195-0.399-0.472-0.883-0.685-1.068c-0.23-0.201-0.549-0.254-0.719-0.267       C20.5,42.586,16.945,46.145,14.858,49.947z" fill="#37474F"/></g></g></g><g><path d="M20.911,29.217c-0.094,0-0.188-0.026-0.271-0.08c-3.78-2.444-8.395-3.962-12.041-3.962l-0.106,0     c-0.273,0.004-0.422-0.145-0.484-0.36c-0.019-0.062-0.438-1.533,0.08-2.908c0.483-1.285,1.409-2.045,1.448-2.077     c0.12-0.096,0.278-0.132,0.426-0.099c3.7,0.84,9.174,2.79,12.424,5.519c0.091,0.076,0.151,0.181,0.171,0.298     c0.023,0.137,0.222,1.362-0.131,2.081c-0.303,0.618-1.082,1.368-1.17,1.451C21.16,29.17,21.035,29.217,20.911,29.217z      M8.891,24.177c3.668,0.075,8.182,1.55,11.949,3.901c0.246-0.262,0.557-0.623,0.688-0.89c0.132-0.268,0.123-0.863,0.07-1.293     c-3.057-2.491-8.074-4.298-11.602-5.13c-0.246,0.248-0.701,0.771-0.973,1.494C8.756,22.97,8.818,23.74,8.891,24.177z" fill="#37474F"/></g></g><g><path d="M14,18.718c-1.379,0-2.5-1.122-2.5-2.5s1.121-2.5,2.5-2.5s2.5,1.122,2.5,2.5S15.379,18.718,14,18.718z     M14,14.718c-0.827,0-1.5,0.673-1.5,1.5s0.673,1.5,1.5,1.5s1.5-0.673,1.5-1.5S14.827,14.718,14,14.718z" fill="#37474F"/></g><g><path d="M19,37.718c-1.379,0-2.5-1.121-2.5-2.5s1.121-2.5,2.5-2.5s2.5,1.121,2.5,2.5S20.379,37.718,19,37.718z     M19,33.718c-0.827,0-1.5,0.673-1.5,1.5s0.673,1.5,1.5,1.5s1.5-0.673,1.5-1.5S19.827,33.718,19,33.718z" fill="#37474F"/></g><g><path d="M8,32.718c-1.379,0-2.5-1.122-2.5-2.5s1.121-2.5,2.5-2.5s2.5,1.122,2.5,2.5S9.379,32.718,8,32.718z     M8,28.718c-0.827,0-1.5,0.673-1.5,1.5s0.673,1.5,1.5,1.5s1.5-0.673,1.5-1.5S8.827,28.718,8,28.718z" fill="#37474F"/></g><g><path d="M26.5,58.718c-1.379,0-2.5-1.121-2.5-2.5s1.121-2.5,2.5-2.5s2.5,1.121,2.5,2.5S27.879,58.718,26.5,58.718z     M26.5,54.718c-0.827,0-1.5,0.673-1.5,1.5s0.673,1.5,1.5,1.5s1.5-0.673,1.5-1.5S27.327,54.718,26.5,54.718z" fill="#37474F"/></g><g><path d="M10,45.718c-1.379,0-2.5-1.121-2.5-2.5s1.121-2.5,2.5-2.5s2.5,1.121,2.5,2.5S11.379,45.718,10,45.718z     M10,41.718c-0.827,0-1.5,0.673-1.5,1.5s0.673,1.5,1.5,1.5s1.5-0.673,1.5-1.5S10.827,41.718,10,41.718z" fill="#37474F"/></g><g><path d="M32.5,47.718c-1.379,0-2.5-1.121-2.5-2.5s1.121-2.5,2.5-2.5s2.5,1.121,2.5,2.5S33.879,47.718,32.5,47.718z     M32.5,43.718c-0.827,0-1.5,0.673-1.5,1.5s0.673,1.5,1.5,1.5s1.5-0.673,1.5-1.5S33.327,43.718,32.5,43.718z" fill="#37474F"/></g><g><path d="M51,49.718c-1.379,0-2.5-1.121-2.5-2.5s1.121-2.5,2.5-2.5s2.5,1.121,2.5,2.5S52.379,49.718,51,49.718z     M51,45.718c-0.827,0-1.5,0.673-1.5,1.5s0.673,1.5,1.5,1.5s1.5-0.673,1.5-1.5S51.827,45.718,51,45.718z" fill="#37474F"/></g><g><g><path d="M45,24.718c-1.379,0-2.5-1.122-2.5-2.5s1.121-2.5,2.5-2.5s2.5,1.122,2.5,2.5S46.379,24.718,45,24.718z      M45,20.718c-0.827,0-1.5,0.673-1.5,1.5s0.673,1.5,1.5,1.5s1.5-0.673,1.5-1.5S45.827,20.718,45,20.718z" fill="#37474F"/></g></g><g><path d="M56,33.718c-1.379,0-2.5-1.121-2.5-2.5c0-1.378,1.121-2.5,2.5-2.5s2.5,1.122,2.5,2.5    C58.5,32.597,57.379,33.718,56,33.718z M56,29.718c-0.827,0-1.5,0.673-1.5,1.5s0.673,1.5,1.5,1.5s1.5-0.673,1.5-1.5    S56.827,29.718,56,29.718z" fill="#37474F"/></g><g><g><path d="M12.077,15.698c-0.402,0.38-0.782,0.783-1.112,1.236c-0.863,1.187-1.36,2.575-1.761,3.986     c0.341-0.45,0.647-0.702,0.647-0.702c0.188,0.042,0.385,0.098,0.575,0.145c0.333-1.029,0.733-1.998,1.347-2.841     c0.123-0.169,0.275-0.314,0.413-0.472C12.069,16.796,12,16.516,12,16.218C12,16.037,12.032,15.865,12.077,15.698z" fill="#37474F"/><path d="M50.068,48.978c-0.645,0.477-1.324,0.92-2.001,1.352c0.166,0.102,0.331,0.217,0.497,0.311     c0,0-0.081,0.334-0.295,0.748c0.11-0.07,0.221-0.143,0.33-0.213c0.967-0.617,1.94-1.26,2.822-2.004     c-0.136,0.029-0.276,0.046-0.422,0.046C50.662,49.218,50.348,49.126,50.068,48.978z" fill="#37474F"/><path d="M57.8,30.36c-0.266-1.314-0.756-2.567-1.241-3.79c-0.236-0.594-0.455-1.162-0.652-1.729     c-0.041,0.412-0.109,0.681-0.109,0.681c-0.19,0.12-0.393,0.229-0.587,0.344c0.137,0.361,0.279,0.72,0.419,1.073     c0.306,0.77,0.612,1.552,0.86,2.346C57.069,29.433,57.546,29.831,57.8,30.36z" fill="#37474F"/><path d="M56.961,32.962c-0.153,1.559-0.749,3.068-1.331,4.534c-0.278,0.7-0.566,1.425-0.799,2.142     c-0.241,0.742-0.441,1.513-0.636,2.258c-0.4,1.537-0.802,2.991-1.51,4.254C52.882,46.46,53,46.825,53,47.218     c0,0.125-0.015,0.247-0.037,0.366c0.022-0.03,0.051-0.053,0.072-0.083c1.143-1.569,1.644-3.493,2.128-5.354     c0.19-0.731,0.388-1.487,0.619-2.201c0.223-0.686,0.492-1.363,0.776-2.081C57.268,36.081,58,34.234,58,32.218     c0-0.235-0.012-0.466-0.03-0.697C57.874,32.146,57.492,32.668,56.961,32.962z" fill="#37474F"/><path d="M44.329,53.046c-0.013,0.011-0.026,0.022-0.04,0.033c-1.406,1.165-2.861,2.369-4.562,2.921     c-0.847,0.275-1.813,0.403-3.043,0.403c-0.746,0-1.528-0.047-2.285-0.091c-0.785-0.047-1.597-0.095-2.399-0.095     s-1.615,0.048-2.399,0.095c-0.368,0.021-0.743,0.043-1.116,0.06c-0.029,0.376-0.157,0.722-0.365,1.011     c0.517-0.018,1.033-0.042,1.541-0.073c1.539-0.092,3.141-0.092,4.68,0c0.771,0.046,1.568,0.093,2.345,0.093     c1.338,0,2.403-0.144,3.352-0.452c1.882-0.611,3.412-1.877,4.891-3.102c0.216-0.179,0.438-0.359,0.657-0.539     c-0.457,0.15-0.766,0.215-0.766,0.215C44.655,53.376,44.492,53.205,44.329,53.046z" fill="#37474F"/><path d="M24.516,56.067c-0.081-0.023-0.166-0.041-0.244-0.066c-1.701-0.552-3.156-1.757-4.563-2.923     c-0.435-0.36-0.884-0.723-1.337-1.073c-0.071,0.223-0.154,0.449-0.212,0.67c0,0-0.268,0.003-0.637-0.062     c0.521,0.392,1.042,0.816,1.548,1.235c1.479,1.226,3.009,2.492,4.892,3.104c0.252,0.082,0.513,0.15,0.783,0.209     c-0.152-0.282-0.246-0.6-0.246-0.943C24.5,56.167,24.512,56.118,24.516,56.067z" fill="#37474F"/><path d="M20.669,36.317c0.086,0.166,0.173,0.331,0.241,0.495c0.195,0.471,0.333,0.986,0.479,1.533     c0.22,0.826,0.444,1.595,0.89,2.314C22.538,40.46,22.8,40,23.054,40c0,0,0.018,0,0.043,0c-0.345,0-0.539-1.231-0.741-1.989     c-0.148-0.555-0.301-1.089-0.521-1.621c-0.211-0.508-0.502-0.984-0.784-1.464c-0.042-0.071-0.08-0.139-0.121-0.209     C20.971,34.878,21,35.044,21,35.218C21,35.625,20.877,36.001,20.669,36.317z" fill="#37474F"/><path d="M8.369,26.942c0.279-0.701,0.566-1.426,0.799-2.143c0.01-0.031,0.019-0.063,0.028-0.094     c-0.236-0.01-0.48-0.032-0.709-0.03c0,0-0.076-0.275-0.123-0.681C8.315,24.16,8.27,24.328,8.217,24.49     c-0.223,0.687-0.492,1.365-0.776,2.083c-0.286,0.721-0.573,1.453-0.817,2.201c0.328-0.313,0.764-0.51,1.246-0.542     C8.03,27.798,8.2,27.368,8.369,26.942z" fill="#37474F"/><path d="M9.168,39.637c-0.232-0.717-0.52-1.442-0.799-2.144C7.696,35.797,7,34.042,7,32.218     c0-0.091,0.009-0.18,0.013-0.271c-0.423-0.242-0.745-0.63-0.901-1.099C6.043,31.298,6,31.753,6,32.218     c0,2.016,0.732,3.86,1.44,5.645c0.284,0.719,0.554,1.396,0.776,2.083c0.185,0.569,0.345,1.163,0.5,1.75     c0.259-0.219,0.57-0.377,0.917-0.441C9.49,40.714,9.342,40.169,9.168,39.637z" fill="#37474F"/><path d="M14.584,49.443c-1.068-0.728-2.079-1.524-2.811-2.53c-0.413-0.567-0.718-1.199-0.985-1.858     C10.546,45.16,10.28,45.218,10,45.218c-0.084,0-0.164-0.015-0.245-0.025c0.313,0.815,0.693,1.599,1.21,2.308     c1.076,1.479,2.61,2.504,4.127,3.476c-0.508-0.569-0.834-0.97-0.834-0.97C14.357,49.819,14.478,49.631,14.584,49.443z" fill="#37474F"/><path d="M36.211,42.384c-0.508,0.211-1.004,0.502-1.483,0.784c-0.32,0.188-0.634,0.364-0.947,0.525     c0.261,0.219,0.465,0.5,0.587,0.825c0.294-0.156,0.583-0.32,0.868-0.488c0.471-0.277,0.915-0.539,1.358-0.723     c0.231-0.096,0.475-0.177,0.727-0.253c-0.064-0.16-0.146-0.327-0.202-0.484c0,0,0.283-0.338,0.634-0.674     C37.235,42.035,36.705,42.179,36.211,42.384z" fill="#37474F"/><path d="M29.273,43.168c-0.479-0.282-0.976-0.574-1.484-0.785c-0.531-0.22-1.104-0.372-1.656-0.52     c-0.424-0.113-0.83-0.228-1.214-0.363c0.177,0.333,0.298,0.615,0.298,0.615c-0.144,0.13-0.276,0.267-0.417,0.399     c0.355,0.115,0.716,0.22,1.075,0.315c0.547,0.145,1.063,0.282,1.531,0.477c0.444,0.184,0.889,0.446,1.359,0.723     c0.565,0.333,1.147,0.66,1.765,0.89c0.052-0.345,0.19-0.658,0.395-0.921C30.374,43.801,29.833,43.498,29.273,43.168z" fill="#37474F"/><path d="M42.068,36.709c-0.166,0.451-0.301,0.919-0.423,1.379c-0.271,1.02-0.527,1.983-1.16,2.616     c-0.229,0.229-0.511,0.397-0.813,0.546c0.188,0.019,0.321,0.041,0.321,0.041c0.125,0.244,0.266,0.475,0.397,0.713     c0.287-0.165,0.561-0.352,0.802-0.593c0.823-0.823,1.126-1.964,1.42-3.066c0.052-0.193,0.104-0.377,0.155-0.563     C42.428,37.514,42.178,37.142,42.068,36.709z" fill="#37474F"/><path d="M44.452,34.274c0.311-0.64,0.548-1.31,0.548-2.056c0-0.955-0.374-1.791-0.816-2.586     c-0.136,0.014-0.277,0.039-0.411,0.05c0,0-0.494-0.146-0.941-0.397c0.04,0.068,0.079,0.139,0.119,0.207     c0.54,0.917,1.05,1.783,1.05,2.727c0,0.738-0.314,1.43-0.709,2.136c0.221-0.084,0.458-0.136,0.709-0.136     C44.156,34.218,44.307,34.24,44.452,34.274z" fill="#37474F"/></g><g><path d="M44,38.718c-1.379,0-2.5-1.121-2.5-2.5s1.121-2.5,2.5-2.5s2.5,1.121,2.5,2.5S45.379,38.718,44,38.718z      M44,34.718c-0.827,0-1.5,0.673-1.5,1.5s0.673,1.5,1.5,1.5s1.5-0.673,1.5-1.5S44.827,34.718,44,34.718z" fill="#37474F"/></g></g><g><g><path d="M39.861,27.255c-0.718-3.564-2.194-7.141-4.238-9.267c-0.222,0.244-0.49,0.45-0.807,0.602     c1.796,1.812,3.164,4.964,3.896,8.091l-2.277-0.547l-1.38,1.883c-0.495-2.771-1.566-6.174-2.664-8.427     c-0.149,0.36-0.365,0.685-0.648,0.957c1.046,2.349,2.154,5.93,2.504,8.802l0.152,1.254l2.45-3.341l3.166,0.76L39.861,27.255z" fill="#37474F"/></g><g id="bow_1_"><g><path d="M32.313,19.25c-0.161,0-0.307-0.025-0.454-0.045c-1.271,2.823-2.151,8.054-2.665,11.956l-1.586-2.039      l-2.585,0.731c1.168-5.486,2.659-9.267,4.408-11.232c-0.324-0.145-0.593-0.351-0.821-0.591c-1.936,2.25-3.521,6.401-4.734,12.43      l-0.161,0.803l3.519-0.995l2.656,3.415l0.146-1.203c0.771-6.332,1.866-11.246,2.904-13.291      C32.742,19.226,32.535,19.25,32.313,19.25z" fill="#37474F"/></g><g><path d="M42.232,5.459c-0.174-0.118-0.401-0.177-0.675-0.177c-1.724,0-6.627,2.727-8.729,5.583      c0.282,0.212,0.506,0.479,0.683,0.774c1.774-2.608,6.531-5.357,8.047-5.357c0.07,0,0.107,0.007,0.101-0.003      c2.239,1.881,3.353,7.868,2.958,10.033c-0.674,1.086-3.147,1.898-5.818,1.898c-1.283,0-2.482-0.181-3.552-0.516      c-0.037,0.337-0.126,0.664-0.263,0.97c1.157,0.357,2.447,0.545,3.814,0.545c3.159,0,5.927-1.019,6.73-2.479      c0.024-0.043,0.042-0.091,0.052-0.139C46.083,14.176,44.896,7.652,42.232,5.459z" fill="#37474F"/></g><g><g><g><path d="M29.601,8.124c1.569,0.093,3.23,0.093,4.799,0c0.742-0.044,1.508-0.088,2.242-0.09        c0.492-0.338,0.991-0.65,1.479-0.928c-0.446-0.044-0.915-0.073-1.435-0.073c-0.776,0-1.574,0.047-2.345,0.092        c-1.541,0.092-3.14,0.092-4.681,0c-0.771-0.045-1.569-0.092-2.346-0.092c-0.52,0-0.988,0.028-1.435,0.073        c0.487,0.277,0.987,0.59,1.479,0.928C28.093,8.036,28.858,8.08,29.601,8.124z" fill="#37474F"/><path d="M19.072,10.587c-0.576,0.478-1.172,0.971-1.768,1.404c-0.604,0.44-1.264,0.861-1.902,1.268        c-0.49,0.312-0.98,0.634-1.464,0.966c0.021-0.001,0.04-0.006,0.062-0.006c0.438,0,0.839,0.145,1.169,0.383        c0.257-0.167,0.514-0.336,0.771-0.5c0.651-0.415,1.324-0.844,1.955-1.302c0.457-0.333,0.906-0.696,1.348-1.059        c0.12-0.552,0.266-1.107,0.435-1.652C19.475,10.255,19.272,10.421,19.072,10.587z" fill="#37474F"/><path d="M53.036,16.935c-1.15-1.58-2.821-2.645-4.438-3.675c-0.639-0.407-1.299-0.828-1.903-1.268        c-0.594-0.433-1.19-0.926-1.767-1.403c-0.2-0.166-0.402-0.333-0.605-0.499c0.169,0.545,0.314,1.1,0.435,1.652        c0.442,0.363,0.891,0.726,1.35,1.059c0.629,0.458,1.303,0.887,1.953,1.302c1.538,0.98,3.128,1.994,4.167,3.42        c0.83,1.142,1.285,2.503,1.684,3.957c0.143-0.13,0.284-0.26,0.414-0.393c0,0,0.318,0.19,0.667,0.55        C54.553,19.985,54.045,18.321,53.036,16.935z" fill="#37474F"/><path d="M25.875,21.607c-1.104,0.293-2.243,0.597-3.066,1.419c-0.623,0.624-0.948,1.43-1.197,2.264        c0.148,0.114,0.314,0.225,0.453,0.341c0,0,0.203,1.182-0.088,1.776c-0.271,0.555-1.065,1.309-1.065,1.309        c-0.138-0.089-0.284-0.167-0.424-0.253c-0.097,0.171-0.194,0.343-0.299,0.521C19.604,29.977,19,31.002,19,32.218        c0,0.354,0.062,0.689,0.148,1.015c0.522,0.039,0.987,0.274,1.321,0.639C20.199,33.327,20,32.784,20,32.208        c0-0.943,0.51-1.805,1.05-2.722c0.282-0.479,0.574-0.973,0.785-1.481c0.22-0.531,0.373-1.103,0.521-1.657        c0.271-1.02,0.527-1.983,1.16-2.616c0.633-0.632,1.596-0.889,2.615-1.16c0.178-0.047,0.357-0.099,0.537-0.149        c0.172-0.422,0.354-0.83,0.543-1.227C26.794,21.355,26.349,21.481,25.875,21.607z" fill="#37474F"/><path d="M40.485,23.733c0.633,0.633,0.89,1.597,1.16,2.617c0.1,0.373,0.21,0.751,0.333,1.123        c0.027-0.381,0.106-0.672,0.106-0.672c0.226-0.048,0.452-0.102,0.68-0.155c-0.051-0.182-0.103-0.362-0.152-0.552        c-0.293-1.103-0.597-2.244-1.42-3.067c-0.823-0.823-1.963-1.126-3.065-1.419c-0.268-0.071-0.528-0.141-0.779-0.216        c0.196,0.386,0.384,0.782,0.56,1.192C38.912,22.851,39.86,23.108,40.485,23.733z" fill="#37474F"/></g><g><path d="M28.887,17.65c-1.102,0.362-2.347,0.559-3.684,0.559h-0.001c-2.671,0-5.146-0.812-5.819-1.898        c-0.394-2.174,0.729-8.195,2.93-10.016c0,0,0.035-0.014,0.13-0.014c1.51,0,6.232,2.726,8.024,5.324        c0.16-0.309,0.378-0.584,0.646-0.814c-2.132-2.83-6.961-5.509-8.67-5.509c-0.274,0-0.501,0.06-0.714,0.206        c-2.622,2.161-3.811,8.686-3.31,11.104c0.011,0.049,0.028,0.096,0.052,0.14c0.804,1.459,3.572,2.479,6.73,2.479        c0.001,0,0.001,0,0.002,0c1.32,0,2.567-0.178,3.693-0.511C28.839,18.353,28.839,17.998,28.887,17.65z" fill="#37474F"/></g></g></g></g><g><g><g><path d="M32.009,19.618c-1.13,0-2.272-0.241-3.397-0.716l-0.34-0.144l0.037-0.367       c0.211-2.079,0.799-4.439,1.854-7.428l0.082-0.229l0.23-0.078c1.015-0.343,2.055-0.342,3.07,0l0.231,0.078l0.081,0.229       c1.053,2.983,1.642,5.343,1.852,7.428l0.037,0.367l-0.34,0.144C34.281,19.377,33.139,19.618,32.009,19.618z M29.346,18.118       c1.775,0.664,3.55,0.664,5.327,0c-0.226-1.858-0.763-3.968-1.675-6.584c-0.662-0.182-1.316-0.181-1.976,0       C30.109,14.155,29.571,16.265,29.346,18.118z" fill="#37474F"/></g></g></g></g><path d="M12.234,39.284c-0.018,0-0.034-0.001-0.052-0.003c-0.274-0.028-0.474-0.273-0.446-0.548   c0.008-0.077,0.201-1.901,0.877-3.249c0.123-0.248,0.426-0.347,0.672-0.224c0.246,0.124,0.346,0.425,0.223,0.671   c-0.592,1.182-0.775,2.887-0.776,2.904C12.705,39.092,12.487,39.284,12.234,39.284z" fill="#37474F"/><path d="M10.607,36.561c-0.033,0-0.066-0.003-0.102-0.011c-0.27-0.056-0.443-0.319-0.389-0.59   c0.017-0.079,0.412-1.948,1.514-3.141c0.188-0.205,0.504-0.216,0.707-0.028c0.202,0.188,0.215,0.504,0.027,0.706   c-0.915,0.991-1.265,2.647-1.268,2.664C11.049,36.398,10.84,36.561,10.607,36.561z" fill="#37474F"/><path d="M37.323,52.519c-0.029,0-0.059-0.002-0.088-0.008c-0.076-0.014-1.883-0.338-3.178-1.109   c-0.237-0.142-0.315-0.448-0.174-0.686c0.143-0.238,0.45-0.314,0.686-0.174c1.14,0.679,2.823,0.981,2.84,0.984   c0.271,0.048,0.453,0.307,0.405,0.579C37.771,52.348,37.561,52.519,37.323,52.519z" fill="#37474F"/><path d="M34.489,53.945c-0.045,0-0.091-0.006-0.136-0.019c-0.078-0.022-1.914-0.551-3.023-1.735   c-0.188-0.201-0.178-0.518,0.023-0.707c0.201-0.187,0.52-0.179,0.707,0.023c0.916,0.979,2.549,1.452,2.565,1.456   c0.265,0.076,0.419,0.353,0.344,0.618C34.907,53.801,34.707,53.945,34.489,53.945z" fill="#37474F"/><path d="M49,36.302c-0.155,0-0.31-0.072-0.407-0.209c-0.16-0.225-0.108-0.537,0.116-0.698   c1.076-0.768,2.032-2.19,2.042-2.204c0.154-0.23,0.465-0.291,0.693-0.139c0.229,0.153,0.292,0.464,0.139,0.693   c-0.043,0.064-1.066,1.587-2.292,2.464C49.202,36.272,49.101,36.302,49,36.302z" fill="#37474F"/><path d="M48.75,39.052c-0.206,0-0.399-0.128-0.472-0.334c-0.092-0.26,0.045-0.546,0.306-0.638   c1.271-0.448,2.354-1.75,2.364-1.763c0.176-0.214,0.491-0.244,0.703-0.068c0.214,0.176,0.244,0.49,0.068,0.703   c-0.051,0.063-1.272,1.531-2.804,2.071C48.861,39.043,48.806,39.052,48.75,39.052z" fill="#37474F"/><path d="M29.156,15.843c-0.198,0-0.387-0.119-0.465-0.314c-0.152-0.383-1.875-1.832-3.521-2.098   c-0.272-0.044-0.457-0.301-0.414-0.573c0.044-0.272,0.3-0.461,0.574-0.414c1.858,0.301,3.957,1.881,4.291,2.714   c0.102,0.256-0.023,0.547-0.279,0.65C29.281,15.832,29.219,15.843,29.156,15.843z" fill="#37474F"/><path d="M34.75,15.843c-0.062,0-0.125-0.011-0.186-0.036c-0.257-0.103-0.381-0.394-0.278-0.65   c0.333-0.833,2.432-2.414,4.29-2.714c0.268-0.045,0.529,0.141,0.573,0.414c0.045,0.272-0.141,0.529-0.413,0.573   c-1.646,0.266-3.369,1.715-3.522,2.098C35.136,15.725,34.948,15.843,34.75,15.843z" fill="#37474F"/></g></svg>