<?xml version="1.0" ?><svg enable-background="new 0 0 32 32" version="1.1" viewBox="0 0 32 32" xml:space="preserve" xmlns="http://www.w3.org/2000/svg" xmlns:xlink="http://www.w3.org/1999/xlink"><g id="FILLED_copy"><g><g><path d="M28.083,12.606c0-6.687-5.41-12.107-12.083-12.107S3.917,5.92,3.917,12.606     c0,5.392,3.52,9.956,8.381,11.523L16,30.952l3.702-6.823C24.563,22.562,28.083,17.998,28.083,12.606z" fill="#FFFFFF"/><path d="M16,32.002l-4.047-7.46c-5.114-1.738-8.536-6.509-8.536-11.936C3.417,5.655,9.062,0,16,0s12.583,5.655,12.583,12.606     c0,5.427-3.422,10.197-8.536,11.936L16,32.002z M16,1C9.613,1,4.417,6.207,4.417,12.606c0,5.059,3.229,9.498,8.034,11.048     l0.19,0.062L16,29.904l3.358-6.188l0.19-0.062c4.806-1.55,8.034-5.989,8.034-11.048C27.583,6.207,22.387,1,16,1z"/></g><g><g><path d="M23.296,9.132c0,0-0.145-1.097-0.592-1.581c-0.566-0.633-1.201-0.637-1.492-0.673      c-2.084-0.162-5.21-0.162-5.21-0.162h-0.007c0,0-3.126,0-5.209,0.162c-0.291,0.036-0.925,0.04-1.492,0.673      C8.849,8.034,8.704,9.132,8.704,9.132s-0.149,1.288-0.149,2.575v1.207c0,1.289,0.149,2.576,0.149,2.576s0.145,1.097,0.592,1.579      c0.567,0.633,1.31,0.614,1.642,0.68C12.128,17.872,16,17.91,16,17.91s3.129-0.006,5.213-0.166      c0.291-0.037,0.925-0.041,1.492-0.674c0.446-0.482,0.592-1.579,0.592-1.579s0.149-1.288,0.149-2.576v-1.207      C23.445,10.419,23.296,9.132,23.296,9.132z M14.14,15.111V9.514l4.655,2.798L14.14,15.111z" fill="#FF0000"/></g></g></g></g></svg>