<?xml version="1.0" ?><svg enable-background="new 0 0 32 32" id="FILLED" version="1.1" viewBox="0 0 32 32" xml:space="preserve" xmlns="http://www.w3.org/2000/svg" xmlns:xlink="http://www.w3.org/1999/xlink"><g><g><path d="M28.083,12.606c0-6.687-5.41-12.107-12.083-12.107S3.917,5.92,3.917,12.606    c0,5.392,3.52,9.956,8.381,11.523L16,30.952l3.702-6.823C24.563,22.562,28.083,17.998,28.083,12.606z" fill="#FF0000"/><path d="M16,32l-4.047-7.458c-5.114-1.738-8.536-6.509-8.536-11.936C3.417,5.654,9.062-0.001,16-0.001s12.583,5.655,12.583,12.607    c0,5.427-3.422,10.197-8.536,11.936L16,32z M16,0.999c-6.387,0-11.583,5.207-11.583,11.607c0,5.059,3.229,9.498,8.034,11.048    l0.19,0.062L16,29.904l3.358-6.188l0.19-0.062c4.806-1.55,8.034-5.989,8.034-11.048C27.583,6.206,22.387,0.999,16,0.999z"/></g><g><path d="M18.108,8.694c0-1.066,2.139-1.619,2.139,0.185c-0.006,0.99-0.142,1.904-0.36,2.74h2.224    c0.169-1.01,0.162-2.008,0.162-3.183c0-3.311-6.228-3.863-6.228,0.333c0,2.946,1.415,4.496,2.895,5.312    c-1.233,2.373-2.895,3.666-2.895,3.666c-4.652-3.716-4.201-10.009-4.201-10.009H9.817c0.038,8.501,4.616,11.481,5.179,11.923    c0.562,0.442,0.675,0.405,1.351,0.368c0.674-0.037,2.212-1.546,4.088-4.415c0.181-0.278,0.343-0.543,0.491-0.802    c0.785,0.173,1.347,0.176,1.347,0.176v-1.803C18.333,12.815,18.108,9.504,18.108,8.694z" fill="#FFFFFF"/></g></g></svg>