<?xml version="1.0" ?><svg enable-background="new 0 0 32 32" id="FILLED" version="1.1" viewBox="0 0 32 32" xml:space="preserve" xmlns="http://www.w3.org/2000/svg" xmlns:xlink="http://www.w3.org/1999/xlink"><g><g><path d="M28.083,12.606c0-6.687-5.41-12.107-12.083-12.107S3.917,5.92,3.917,12.606    c0,5.392,3.52,9.956,8.381,11.523L16,30.952l3.702-6.823C24.563,22.562,28.083,17.998,28.083,12.606z" fill="#FF0000"/><path d="M16,32l-4.047-7.458c-5.114-1.738-8.536-6.509-8.536-11.936C3.417,5.654,9.062-0.001,16-0.001s12.583,5.655,12.583,12.607    c0,5.427-3.422,10.197-8.536,11.936L16,32z M16,0.999c-6.387,0-11.583,5.207-11.583,11.607c0,5.059,3.229,9.498,8.034,11.048    l0.19,0.062L16,29.904l3.358-6.188l0.19-0.062c4.806-1.55,8.034-5.989,8.034-11.048C27.583,6.206,22.387,0.999,16,0.999z"/></g><g><g><ellipse cx="12.003" cy="12.271" fill="#FFFFFF" rx="3.109" ry="3.115"/></g><g><ellipse cx="19.997" cy="12.271" fill="#FFFFFF" rx="3.109" ry="3.115"/></g></g></g></svg>