<?xml version="1.0" ?><svg id="Layer_1" style="enable-background:new 0 0 512 512;" version="1.1" viewBox="0 0 512 512" xml:space="preserve" xmlns="http://www.w3.org/2000/svg" xmlns:xlink="http://www.w3.org/1999/xlink"><g id="XMLID_8210_"><g id="XMLID_1032_"><path d="M252,506c-8.4,0-14.9-2-19.1-6c-3.4-3.3-5.2-7.7-5.4-13.1c-0.3-11.9-0.5-23.8-0.8-35.7l-2.8-120.6    c0-2.2,1.7-4,3.8-4c2.1,0,4,1.7,4,3.8l2.8,120.6c0.3,11.9,0.6,23.8,0.8,35.7c0.1,3.3,1,5.8,2.9,7.6c2.8,2.7,8,4,14.9,3.9    c4.9-0.1,10.2-0.6,15.4-1.3c5.8-0.8,8.6-2.2,9.9-3.2c2-1.5,1.8-4.1,1.4-8.3c-0.1-0.7-0.1-1.3-0.2-1.9c-0.4-4.7-0.8-10.9-0.9-17.1    l-3.1-135.7c0-2.2,1.7-4,3.8-4c2.1,0,4,1.7,4,3.8l3.1,135.7c0.1,6,0.5,11.8,0.9,16.7c0,0.6,0.1,1.1,0.2,1.7    c0.4,4.4,1.1,11.1-4.5,15.4c-3.1,2.3-7.5,3.9-13.6,4.7c-5.5,0.8-11.1,1.2-16.3,1.4C252.9,506,252.4,506,252,506z" id="XMLID_3609_"/></g><g id="XMLID_1029_"><path d="M165.2,340.3c-12.3,0-23.9-4-26.9-20.3c-2.5-13.4-2.5-27.2-2.6-40.5c0-3,0-6-0.1-9    c-0.2-18.3-0.1-34.7,0.4-50.2c1.1-20.1,2.4-42.1,4.3-69.3c0.1-2,0.3-3.9,0.4-5.9c1.2-18.4,2.5-37.4,7.4-55.9    c10-37.6,32.9-64.4,64.5-75.4c35.1-12.2,70.6-10,95,6.1c0.7,0.5,1.4,0.9,2.1,1.4c16.9,11.8,29.6,30.7,37.9,56.1    c9.6,29.5,12.6,61.1,15.6,91.7c0.3,3.6,0.7,7.2,1,10.7c1.2,12.2,2.4,24.6,3.5,36.6c2.1,22.5,4.2,45.8,6.9,68.6    c0.2,1.3,0.3,2.7,0.5,4.1c1.6,11.8,3.6,26.5-7.1,36.6c-1.6,1.5-3.4,2.8-5.5,3.9l0,0c-9.1,4.7-21.3,4.6-31.1,4.5    c-2.3,0-4.5-0.1-6.5,0c-14.3,0.3-28.8,0.1-42.8-0.1c-3.1,0-6.2-0.1-9.3-0.1c-25.7-0.3-53.1-0.3-79.8,2.9c-2.5,0.3-5.3,0.8-8.3,1.3    C179,339.1,172,340.3,165.2,340.3z M256.9,13.9c-13.4,0-27.5,2.4-41.7,7.4c-29.1,10.1-50.2,35-59.5,70    c-4.7,17.7-5.9,36.3-7.2,54.4c-0.1,2-0.3,3.9-0.4,5.9c-1.9,27.2-3.3,49.1-4.3,69.1c-0.5,15.3-0.6,31.6-0.4,49.7c0,3,0.1,6,0.1,9.1    c0.1,13,0.1,26.4,2.5,39.1c3,16.4,17.5,15.2,37.6,11.8c3.1-0.5,6-1,8.7-1.4c27.2-3.3,54.8-3.3,80.8-3c3.1,0,6.2,0.1,9.3,0.1    c14,0.2,28.4,0.3,42.5,0.1c2.1,0,4.3,0,6.7,0c9.4,0.1,20,0.2,27.4-3.6c1.4-0.7,2.7-1.6,3.8-2.6c7.7-7.3,6.2-18.7,4.7-29.8    c-0.2-1.4-0.4-2.9-0.6-4.3c-2.8-22.9-4.9-46.3-7-68.8c-1.1-12-2.2-24.3-3.4-36.5c-0.4-3.6-0.7-7.2-1.1-10.8    c-2.9-30.1-5.9-61.3-15.2-90c-7.7-23.8-19.4-41.3-34.9-52.1c-0.6-0.4-1.3-0.9-1.9-1.3C290.6,18.1,274.5,13.9,256.9,13.9z" id="XMLID_3610_"/></g></g></svg>