<?xml version="1.0" ?><svg viewBox="0 0 512 512" xmlns="http://www.w3.org/2000/svg"><title/><g data-name="1" id="_1"><path d="M365.64,450H136.77a50.17,50.17,0,0,1-50.11-50.11V98.11A50.17,50.17,0,0,1,136.77,48h150.1a15,15,0,0,1,10.6,4.39L411.35,166.27a15,15,0,0,1,4.4,10.61v223A50.17,50.17,0,0,1,365.64,450ZM136.77,78a20.13,20.13,0,0,0-20.11,20.11V399.89A20.13,20.13,0,0,0,136.77,420H365.64a20.13,20.13,0,0,0,20.11-20.11V183.09L280.65,78Z"/><path d="M400.75,191.88H322a50.17,50.17,0,0,1-50.11-50.11V63a15,15,0,0,1,30,0v78.77A20.13,20.13,0,0,0,322,161.88h78.77a15,15,0,0,1,0,30Z"/><path d="M310.2,380h-118a15,15,0,0,1-15-15V279a15,15,0,0,1,15-15h118a15,15,0,0,1,15,15v86A15,15,0,0,1,310.2,380Zm-103-30h88V294h-88Z"/><path d="M296.69,294h-91a15,15,0,0,1-15-15V248.48a60.49,60.49,0,0,1,121,0V279A15,15,0,0,1,296.69,294Zm-76-30h61V248.48a30.49,30.49,0,0,0-61,0Z"/></g></svg>