<?xml version="1.0" ?><svg viewBox="0 0 512 512" xmlns="http://www.w3.org/2000/svg"><title/><g data-name="1" id="_1"><path d="M361.43,450H132.56a50.17,50.17,0,0,1-50.11-50.11V98.11A50.17,50.17,0,0,1,132.56,48h150.1a15,15,0,0,1,10.61,4.39L407.15,166.27a15,15,0,0,1,4.39,10.61v223A50.17,50.17,0,0,1,361.43,450ZM132.56,78a20.13,20.13,0,0,0-20.11,20.11V399.89A20.13,20.13,0,0,0,132.56,420H361.43a20.13,20.13,0,0,0,20.11-20.11V183.09L276.45,78Z"/><path d="M396.54,191.88H317.77a50.17,50.17,0,0,1-50.11-50.11V63a15,15,0,0,1,30,0v78.77a20.13,20.13,0,0,0,20.11,20.11h78.77a15,15,0,1,1,0,30Z"/><path d="M135.21,267.36c0-3.31,3-6.22,7.68-6.22h27.4c17.47,0,31.24,8.21,31.24,30.45v.66c0,22.24-14.3,30.71-32.56,30.71H155.86v28.59c0,4.24-5.16,6.35-10.32,6.35s-10.33-2.11-10.33-6.35Zm20.65,11.78v27.93H169c7.41,0,11.91-4.23,11.91-13.23v-1.46c0-9-4.5-13.24-11.91-13.24Z"/><path d="M257.52,315.68H231.18v35.87c0,4.24-5.16,6.35-10.33,6.35s-10.32-2.11-10.32-6.35V267.36c0-4.36,5.16-6.22,10.32-6.22s10.33,1.86,10.33,6.22v32.43h26.34V267.36c0-4.36,5.16-6.22,10.33-6.22s10.32,1.86,10.32,6.22v84.19c0,4.24-5.16,6.35-10.32,6.35s-10.33-2.11-10.33-6.35Z"/><path d="M292.46,267.36c0-3.31,3.05-6.22,7.68-6.22h27.4c17.47,0,31.24,8.21,31.24,30.45v.66c0,22.24-14.3,30.71-32.56,30.71H313.11v28.59c0,4.24-5.16,6.35-10.32,6.35s-10.33-2.11-10.33-6.35Zm20.65,11.78v27.93h13.11c7.41,0,11.91-4.23,11.91-13.23v-1.46c0-9-4.5-13.24-11.91-13.24Z"/></g></svg>