<?xml version="1.0" ?><svg id="Layer_1" style="enable-background:new 0 0 512 512;" version="1.1" viewBox="0 0 512 512" xml:space="preserve" xmlns="http://www.w3.org/2000/svg" xmlns:xlink="http://www.w3.org/1999/xlink"><g id="XMLID_3074_"><polygon id="XMLID_3094_" points="339.7,6 339.7,112.8 448.3,112.8  "/><path d="M327.7,6.3H81v231.3h197.7c55.6,0,100.9,45.3,100.9,100.9c0,55.6-45.3,100.9-100.9,100.9H81V506h366.6   l0.6-381.2H327.7V6.3z" id="XMLID_3126_"/><polygon id="XMLID_4003_" points="175.4,312.1 160.7,356.5 190.3,356.5 175.9,312.1  "/><path d="M367.6,338.6c0-49.1-39.8-88.9-88.9-88.9h-215v177.8h215C327.8,427.5,367.6,387.7,367.6,338.6z    M204,398.6l-8.6-26.3h-39.9l-8.7,26.3h-19.4l39.3-112.7h17.9l38.9,112.7H204z M257.8,398.6H239V285.9h18.8V398.6z" id="XMLID_4084_"/></g></svg>