<?xml version="1.0" ?><svg id="Layer_1" style="enable-background:new 0 0 512 512;" version="1.1" viewBox="0 0 512 512" xml:space="preserve" xmlns="http://www.w3.org/2000/svg" xmlns:xlink="http://www.w3.org/1999/xlink"><g id="XMLID_4239_"><polygon id="XMLID_4243_" points="339.7,6 339.7,112.8 448.3,112.8  "/><path d="M145,344.9h-0.8h-19.9v28.9h20.3c5.2,0,9.2-1.2,12-3.6c2.8-2.4,4.2-5.8,4.2-10.3c0-4.5-1.4-8.1-4.1-10.8   C153.8,346.4,150,345,145,344.9z" id="XMLID_4246_"/><path d="M367.6,338.6L367.6,338.6c0-49.1-39.8-88.9-88.9-88.9h-215v177.8h215   C327.8,427.5,367.6,387.7,367.6,338.6z M167.4,379.2c-5.5,4.4-13.1,6.6-22.9,6.6h-35.3v-90h29.5c9.9,0,17.7,2.1,23.3,6.2   c5.6,4.1,8.4,10.2,8.4,18.4c0,4-1.1,7.5-3.4,10.7c-2.2,3.2-5.4,5.6-9.4,7.2c5.8,0.9,10.2,3.4,13.3,7.5c3.1,4,4.7,8.8,4.7,14.2   C175.7,368.4,172.9,374.8,167.4,379.2z M206.1,385.8h-15v-90h15V385.8z M241.3,321.1v64.7h-15v-90h15l39.9,64.8l0.4-0.1v-64.7h15   v90h-15l-39.9-64.8L241.3,321.1z" id="XMLID_4307_"/><path d="M151.4,330.4c2.7-2.2,4-5.3,4-9.4c0-4.5-1.4-7.8-4.3-9.9c-2.8-2.2-7-3.2-12.4-3.2h-14.5v25.8h16.1   C145,333.7,148.7,332.6,151.4,330.4z" id="XMLID_4316_"/><path d="M327.7,6.3H81v231.3h197.7c55.6,0,100.9,45.3,100.9,100.9s-45.3,100.9-100.9,100.9H81V506h366.6   l0.6-381.2H327.7V6.3z" id="XMLID_4317_"/></g></svg>