<?xml version="1.0" ?><svg id="Layer_1" style="enable-background:new 0 0 512 512;" version="1.1" viewBox="0 0 512 512" xml:space="preserve" xmlns="http://www.w3.org/2000/svg" xmlns:xlink="http://www.w3.org/1999/xlink"><g id="XMLID_3926_"><polygon id="XMLID_3946_" points="339.7,6 339.7,112.8 448.3,112.8  "/><polygon id="XMLID_3952_" points="229.3,322.4 220.4,349.2 238.3,349.2 229.5,322.4  "/><path d="M367.6,338.6L367.6,338.6c0-49.1-39.8-88.9-88.9-88.9h-215v177.8h215   C327.8,427.5,367.6,387.7,367.6,338.6z M142.8,315.7h-32.2v20.8H138v9.1h-27.4v29H99.2v-68h43.6V315.7z M195.4,374.6h-43.2v-68   h11.4v59h31.9V374.6z M246.5,374.6l-5.2-15.9h-24.1l-5.2,15.9h-11.7l23.7-68h10.8l23.5,68H246.5z M271.5,367.6   c-4.9-5.3-7.4-12.2-7.4-20.5v-12.9c0-8.3,2.4-15.1,7.3-20.5c4.9-5.4,11.2-8.1,19-8.1c8,0,14.3,2,18.9,6.1c4.6,4.1,6.8,9.7,6.7,16.8   l-0.1,0.3h-11c0-4.5-1.2-8-3.7-10.4c-2.5-2.4-6.1-3.6-10.8-3.6c-4.6,0-8.3,1.8-11,5.5c-2.7,3.7-4,8.3-4,13.9v13   c0,5.6,1.4,10.3,4.1,13.9c2.7,3.7,6.5,5.5,11.2,5.5c4.6,0,8.2-1.2,10.6-3.6c2.4-2.4,3.6-5.9,3.6-10.5h10.9l0.1,0.3   c0.1,6.9-2.1,12.4-6.7,16.6c-4.6,4.2-10.8,6.3-18.6,6.3C282.8,375.6,276.4,372.9,271.5,367.6z" id="XMLID_4161_"/><path d="M327.7,6.3H81v231.3h197.7c55.6,0,100.9,45.3,100.9,100.9c0,55.6-45.3,100.9-100.9,100.9H81V506h366.6   l0.6-381.2H327.7V6.3z" id="XMLID_4169_"/></g></svg>