<?xml version="1.0" ?><svg id="Layer_1" style="enable-background:new 0 0 512 512;" version="1.1" viewBox="0 0 512 512" xml:space="preserve" xmlns="http://www.w3.org/2000/svg" xmlns:xlink="http://www.w3.org/1999/xlink"><g id="XMLID_3930_"><polygon id="XMLID_3931_" points="339.7,6 339.7,112.8 448.3,112.8  "/><path d="M302.1,321.2c0-4.5-1.4-8.1-4.1-10.7c-2.7-2.6-6.9-3.9-12.4-3.9h-15.9v28.6h15.1c6,0,10.4-1.2,13.2-3.5   C300.8,329.4,302.1,325.9,302.1,321.2z" id="XMLID_3933_"/><path d="M124.7,306.6h-15.9v28.6h15.1c6,0,10.4-1.2,13.2-3.5c2.8-2.3,4.1-5.8,4.1-10.6c0-4.5-1.4-8.1-4.1-10.7   C134.4,307.9,130.3,306.6,124.7,306.6z" id="XMLID_3934_"/><polygon id="XMLID_3935_" points="205.2,315.5 193.4,351 217.1,351 205.5,315.5  "/><path d="M367.6,338.6L367.6,338.6c0-49.1-39.8-88.9-88.9-88.9h-215v177.8h215   C327.8,427.5,367.6,387.7,367.6,338.6z M160.6,384.6h-15.5c-1.6-1.4-2.7-3.5-3.2-6.4c-0.5-2.9-0.7-5.8-0.7-8.7v-7.2   c0-4.6-1.3-8.3-4-11c-2.7-2.7-6.3-4.1-10.8-4.1h-17.7v37.3h-15v-90h31c10,0,17.8,2.3,23.2,6.8c5.5,4.5,8.2,11,8.2,19.4   c0,4.7-1.2,8.7-3.6,12c-2.4,3.4-5.9,6-10.5,8.1c5.1,1.6,8.7,4.2,11,7.9c2.2,3.6,3.4,8.1,3.4,13.5v7.5c0,2.6,0.3,5.2,1,7.7   c0.7,2.5,1.8,4.4,3.3,5.7V384.6z M228,384.6l-6.9-21h-31.9l-6.9,21h-15.5l31.4-90h14.3l31,90H228z M269.7,384.6h-15v-90h31   c10,0,17.8,2.3,23.2,6.8c5.5,4.5,8.2,11,8.2,19.4c0,4.7-1.2,8.7-3.6,12c-2.4,3.4-5.9,6-10.5,8.1c5.1,1.6,8.7,4.2,11,7.9   c2.2,3.6,3.4,8.1,3.4,13.5v7.5c0,2.6,0.3,5.2,1,7.7c0.7,2.5,1.8,4.4,3.3,5.7v1.4h-15.5c-1.6-1.4-2.7-3.5-3.2-6.4   c-0.5-2.9-0.7-5.8-0.7-8.7v-7.2c0-4.6-1.3-8.3-4-11s-6.3-4.1-10.8-4.1h-17.7V384.6z" id="XMLID_3947_"/><path d="M327.7,6.3H81v231.3h197.7c55.6,0,100.9,45.3,100.9,100.9c0,55.6-45.3,100.9-100.9,100.9H81V506h366.6   l0.6-381.2H327.7V6.3z" id="XMLID_3951_"/></g></svg>