<?xml version="1.0" ?><svg id="Layer_1" style="enable-background:new 0 0 512 512;" version="1.1" viewBox="0 0 512 512" xml:space="preserve" xmlns="http://www.w3.org/2000/svg" xmlns:xlink="http://www.w3.org/1999/xlink"><g id="XMLID_4190_"><polygon id="XMLID_4202_" points="339.7,6 339.7,112.8 448.3,112.8  "/><path d="M367.6,338.6L367.6,338.6c0-49.1-39.8-88.9-88.9-88.9h-215v177.8h215   C327.8,427.5,367.6,387.7,367.6,338.6z M174.6,382.4h-13.4V325l-0.3-0.1l-22,57.5h-9.2l-22.4-58.6l-0.3,0.1v58.5H93.6v-80h17.5   l23,61.5h0.3l23.1-61.5h17V382.4z M237.5,382.4l-26.1-34.6h-6.5v34.6h-13.4v-80h13.4v33.9h5.2l26-33.9h15.7l0.2,0.3l-30,37.6   l32.5,42.1H237.5z M269.8,302.4l19.1,58.3l1.4,5.8h0.3l1.4-5.7l19.1-58.4h14.2l-28.6,80h-12.7l-28.5-80H269.8z" id="XMLID_4308_"/><path d="M327.7,6.3H81v231.3h197.7c55.6,0,100.9,45.3,100.9,100.9c0,55.6-45.3,100.9-100.9,100.9H81V506h366.7   l0.6-381.2H327.7V6.3z" id="XMLID_4311_"/></g></svg>