<?xml version="1.0" ?><svg id="Layer_1" style="enable-background:new 0 0 512 512;" version="1.1" viewBox="0 0 512 512" xml:space="preserve" xmlns="http://www.w3.org/2000/svg" xmlns:xlink="http://www.w3.org/1999/xlink"><g id="XMLID_4094_"><polygon id="XMLID_4233_" points="339.7,6 339.7,112.8 448.3,112.8  "/><path d="M367.6,338.6L367.6,338.6c0-49.1-39.8-88.9-88.9-88.9h-215v177.8h215   C327.8,427.5,367.6,387.7,367.6,338.6z M153.5,382.9h-13.4v-34.1h-35.8v34.1H91v-80h13.4v35.2h35.8v-35.2h13.4V382.9z M224.6,313.6   h-24.7v69.3h-13.4v-69.3h-24.3v-10.7h62.4V313.6z M248.4,324.3l-0.3,0.1v58.5h-13.4v-80h17.5l23,61.5h0.3l23.1-61.5h17v80h-13.4   v-57.5l-0.3-0.1l-22,57.5h-9.2L248.4,324.3z" id="XMLID_4421_"/><path d="M327.7,6.3H81v231.3h197.7c55.6,0,100.9,45.3,100.9,100.9s-45.3,100.9-100.9,100.9H81V506h366.6   l0.6-381.2H327.7V6.3z" id="XMLID_4441_"/></g></svg>