<?xml version="1.0" ?><!DOCTYPE svg  PUBLIC '-//W3C//DTD SVG 1.1//EN'  'http://www.w3.org/Graphics/SVG/1.1/DTD/svg11.dtd'><svg height="512px" style="enable-background:new 0 0 512 512;" version="1.1" viewBox="0 0 512 512" width="512px" xml:space="preserve" xmlns="http://www.w3.org/2000/svg" xmlns:xlink="http://www.w3.org/1999/xlink"><g id="file__x2C__xls__x2C__excel__x2C_"><g id="Layer_87"><g><g><path d="M428.136,454.369H83.865c-2.773,0-5.022-2.246-5.022-5.021V24.26c0-2.775,2.249-5.021,5.022-5.021h344.271      c2.774,0,5.021,2.246,5.021,5.021v425.087C433.156,452.123,430.91,454.369,428.136,454.369z M88.886,444.328h334.228V29.282      H88.886V444.328z"/></g><g><path d="M387.789,179.595H124.215c-9.218,0-16.721-7.555-16.721-16.836V70.473c0-9.277,7.502-16.826,16.721-16.826h263.574      c9.217,0,16.716,7.549,16.716,16.826v92.286C404.505,172.04,397.006,179.595,387.789,179.595z M124.215,63.689      c-3.684,0-6.678,3.042-6.678,6.784v92.286c0,3.746,2.994,6.793,6.678,6.793h263.574c3.677,0,6.674-3.047,6.674-6.793V70.473      c0-3.742-2.997-6.784-6.674-6.784H124.215z"/></g><g><path d="M182.979,149.613h-12.132v-10.918h12.132V149.613z M216.752,109.897L228.3,88.05h14.178l-18.125,30.56l19.148,31.003      h-14.761l-11.694-22.29l-11.846,22.29h-14.178l18.564-31.003L191.46,88.05h14.177L216.752,109.897z M262.069,140.019h27.045      v9.594H249.79V88.05h12.279V140.019z M329.021,133.523c0-2.363-0.877-4.282-2.481-5.757c-1.759-1.329-4.533-2.659-8.774-3.988      c-7.161-2.065-12.717-4.573-16.373-7.529c-3.802-2.957-5.555-6.794-5.555-11.81c0-5.167,2.045-9.307,6.284-12.404      c4.242-3.249,9.797-4.87,16.375-4.87c6.576,0,12.132,1.914,16.226,5.459c4.241,3.546,6.286,7.978,6.14,13.292v0.146h-11.841      c0-2.805-1.022-5.016-2.921-6.789c-1.758-1.626-4.387-2.513-7.896-2.513c-3.213,0-5.701,0.74-7.454,2.216      c-1.903,1.325-2.779,3.248-2.779,5.464c0,2.065,1.022,3.837,2.927,5.167c1.897,1.329,5.116,2.66,9.794,4.13      c6.724,1.924,11.841,4.432,15.346,7.535c3.364,3.103,5.117,7.085,5.117,12.107c0,5.318-2.044,9.448-6.139,12.55      c-4.094,2.951-9.505,4.432-16.229,4.432c-6.723,0-12.423-1.626-17.395-5.167c-4.971-3.4-7.309-8.27-7.161-14.475l0.146-0.292      h11.841c0,3.686,1.022,6.345,3.218,8.118c2.337,1.622,5.409,2.508,9.352,2.508c3.22,0,5.849-0.735,7.605-2.065      C328.144,137.657,329.021,135.738,329.021,133.523L329.021,133.523z"/></g><g><path d="M390.855,474.006H121.29c-2.773,0-5.022-2.246-5.022-5.021s2.249-5.021,5.022-5.021h269.565      c2.776,0,5.021,2.246,5.021,5.021S393.632,474.006,390.855,474.006z"/></g><g><path d="M366.884,492.762H145.116c-2.772,0-5.021-2.246-5.021-5.021s2.249-5.021,5.021-5.021h221.768      c2.775,0,5.021,2.246,5.021,5.021S369.659,492.762,366.884,492.762z"/></g><g><path d="M395.243,305.24H116.757c-2.773,0-5.021-2.246-5.021-5.021v-43.845c0-2.776,2.249-5.022,5.021-5.022h278.486      c2.77,0,5.021,2.247,5.021,5.022v43.845C400.264,302.994,398.013,305.24,395.243,305.24z M121.778,295.197h268.444v-33.803      H121.778V295.197z"/></g><g><path d="M395.243,349.242H116.757c-2.773,0-5.021-2.246-5.021-5.021v-44.002c0-2.775,2.249-5.021,5.021-5.021h278.486      c2.77,0,5.021,2.246,5.021,5.021v44.002C400.264,346.996,398.013,349.242,395.243,349.242z M121.778,339.199h268.444V305.24      H121.778V339.199z"/></g><g><path d="M395.243,393.244H116.757c-2.773,0-5.021-2.246-5.021-5.021v-44.002c0-2.773,2.249-5.021,5.021-5.021h278.486      c2.77,0,5.021,2.248,5.021,5.021v44.002C400.264,390.998,398.013,393.244,395.243,393.244z M121.778,383.201h268.444v-33.959      H121.778V383.201z"/></g><g><path d="M309.581,393.244H202.424c-2.772,0-5.021-2.246-5.021-5.021V256.374c0-2.776,2.249-5.022,5.021-5.022h107.157      c2.774,0,5.021,2.247,5.021,5.022v131.849C314.603,390.998,312.355,393.244,309.581,393.244z M207.445,383.201h97.115V261.395      h-97.115V383.201z"/></g></g></g></g><g id="Layer_1"/></svg>