<?xml version="1.0" ?><!DOCTYPE svg  PUBLIC '-//W3C//DTD SVG 1.1//EN'  'http://www.w3.org/Graphics/SVG/1.1/DTD/svg11.dtd'><svg height="512px" style="enable-background:new 0 0 512 512;" version="1.1" viewBox="0 0 512 512" width="512px" xml:space="preserve" xmlns="http://www.w3.org/2000/svg" xmlns:xlink="http://www.w3.org/1999/xlink"><g id="file__x2C__txt__x2C__text__x2C_"><g id="Layer_60"><g><g><path d="M428.136,454.371H83.865c-2.773,0-5.022-2.246-5.022-5.021V24.263c0-2.775,2.249-5.021,5.022-5.021h344.271      c2.774,0,5.021,2.246,5.021,5.021V449.35C433.156,452.125,430.91,454.371,428.136,454.371z M88.886,444.33h334.228V29.284      H88.886V444.33z"/></g><g><path d="M387.789,179.592H124.215c-9.218,0-16.721-7.555-16.721-16.837v-92.28c0-9.282,7.502-16.831,16.721-16.831h263.574      c9.217,0,16.716,7.549,16.716,16.831v92.28C404.505,172.037,397.006,179.592,387.789,179.592z M124.215,63.687      c-3.684,0-6.678,3.047-6.678,6.789v92.28c0,3.747,2.994,6.794,6.678,6.794h263.574c3.677,0,6.674-3.047,6.674-6.794v-92.28      c0-3.742-2.997-6.789-6.674-6.789H124.215z"/></g><g><path d="M183.271,149.621h-12.279v-10.929h12.279V149.621z M237.652,97.646h-17.249v51.975h-12.133V97.646h-17.103v-9.599      h46.484V97.646z M265.87,109.9l11.402-21.853h14.323l-18.124,30.56l19.147,31.014h-14.762l-11.84-22.301l-11.7,22.301h-14.177      l18.418-31.014l-17.979-30.56h14.031L265.87,109.9z M341.008,97.646h-17.25v51.975H311.48V97.646h-17.104v-9.599h46.632V97.646z      "/></g><g><path d="M390.855,474.008H121.29c-2.773,0-5.022-2.246-5.022-5.021s2.249-5.021,5.022-5.021h269.565      c2.776,0,5.021,2.246,5.021,5.021S393.632,474.008,390.855,474.008z"/></g><g><path d="M366.884,492.758H145.116c-2.772,0-5.021-2.246-5.021-5.021s2.249-5.02,5.021-5.02h221.768      c2.775,0,5.021,2.244,5.021,5.02S369.659,492.758,366.884,492.758z"/></g><g><path d="M370.687,260.947H141.319c-2.772,0-5.021-2.246-5.021-5.021s2.249-5.021,5.021-5.021h229.368      c2.771,0,5.021,2.246,5.021,5.021S373.457,260.947,370.687,260.947z"/></g><g><path d="M370.687,299.633H263.821c-2.772,0-5.021-2.246-5.021-5.023c0-2.773,2.249-5.021,5.021-5.021h106.865      c2.771,0,5.021,2.248,5.021,5.021C375.707,297.387,373.457,299.633,370.687,299.633z"/></g><g><path d="M370.687,338.314H141.319c-2.772,0-5.021-2.244-5.021-5.02s2.249-5.021,5.021-5.021h229.368      c2.771,0,5.021,2.246,5.021,5.021S373.457,338.314,370.687,338.314z"/></g><g><path d="M256.075,376.854H141.319c-2.772,0-5.021-2.246-5.021-5.021s2.249-5.021,5.021-5.021h114.756      c2.772,0,5.021,2.246,5.021,5.021S258.848,376.854,256.075,376.854z"/></g><g><path d="M223.768,299.633h-82.449c-2.772,0-5.021-2.246-5.021-5.023c0-2.773,2.249-5.021,5.021-5.021h82.449      c2.773,0,5.021,2.248,5.021,5.021C228.789,297.387,226.541,299.633,223.768,299.633z"/></g></g></g></g><g id="Layer_1"/></svg>