<?xml version="1.0" ?><!DOCTYPE svg  PUBLIC '-//W3C//DTD SVG 1.1//EN'  'http://www.w3.org/Graphics/SVG/1.1/DTD/svg11.dtd'><svg height="512px" style="enable-background:new 0 0 512 512;" version="1.1" viewBox="0 0 512 512" width="512px" xml:space="preserve" xmlns="http://www.w3.org/2000/svg" xmlns:xlink="http://www.w3.org/1999/xlink"><g id="file__x2C__docx__x2C__doc__x2C_"><g id="Layer_25"><g><g><path d="M428.136,454.297H83.865c-2.773,0-5.022-2.246-5.022-5.021V24.188c0-2.775,2.249-5.021,5.022-5.021h344.271      c2.774,0,5.021,2.246,5.021,5.021v425.088C433.156,452.051,430.91,454.297,428.136,454.297z M88.886,444.254h334.228V29.209      H88.886V444.254z"/></g><g><path d="M387.789,179.517H124.215c-9.218,0-16.721-7.555-16.721-16.837V70.4c0-9.282,7.502-16.831,16.721-16.831h263.574      c9.217,0,16.716,7.549,16.716,16.831v92.28C404.505,171.962,397.006,179.517,387.789,179.517z M124.215,63.611      c-3.684,0-6.678,3.047-6.678,6.789v92.28c0,3.747,2.994,6.794,6.678,6.794h263.574c3.677,0,6.674-3.047,6.674-6.794V70.4      c0-3.742-2.997-6.789-6.674-6.789H124.215z"/></g><g><path d="M147.166,149.546h-12.132v-10.783h12.132V149.546z M159.59,149.546V88.124h20.906c7.454,0,13.592,2.357,18.417,7.08      c4.825,4.875,7.167,11.08,7.167,18.458v10.188c0,7.534-2.341,13.729-7.167,18.453c-4.825,4.875-10.964,7.242-18.417,7.242      H159.59z M171.869,97.571v42.375h8.043c4.386,0,7.746-1.48,10.233-4.432c2.483-2.951,3.798-6.789,3.798-11.664v-10.188      c0-4.724-1.315-8.708-3.798-11.664c-2.488-2.956-5.847-4.427-10.233-4.427H171.869z M264.698,124.293      c0,7.529-2.483,13.729-7.162,18.755c-4.679,4.87-10.819,7.378-18.418,7.378c-7.459,0-13.598-2.508-18.276-7.378      c-4.679-5.027-7.016-11.226-7.016-18.755v-11.075c0-7.529,2.337-13.733,7.016-18.604c4.679-5.021,10.817-7.378,18.276-7.378      c7.454,0,13.739,2.356,18.418,7.378c4.679,4.87,7.162,11.075,7.162,18.604V124.293z M252.419,113.073      c0-4.724-1.168-8.713-3.511-11.814c-2.336-2.952-5.7-4.573-9.79-4.573c-4.24,0-7.459,1.621-9.649,4.573      c-2.342,3.102-3.51,7.09-3.51,11.814v11.221c0,4.875,1.168,8.859,3.51,11.957c2.337,3.103,5.555,4.583,9.649,4.583      c4.235,0,7.454-1.48,9.79-4.583c2.343-3.098,3.511-7.082,3.511-11.957V113.073z M320.102,128.575v0.297      c0.151,6.496-1.752,11.81-5.847,15.647c-4.236,3.989-9.938,5.908-17.249,5.908c-7.309,0-13.154-2.362-17.833-7.237      c-4.533-4.724-6.87-10.778-6.87-18.302v-12.107c0-7.535,2.337-13.588,6.723-18.463c4.533-4.724,10.234-7.08,17.396-7.08      c7.605,0,13.453,1.913,17.687,5.751c4.242,3.988,6.291,9.307,6.146,15.95l-0.151,0.297h-11.84c0-3.989-0.876-7.09-2.775-9.307      c-2.05-2.21-4.97-3.243-9.065-3.243c-3.657,0-6.577,1.476-8.621,4.573c-2.196,2.956-3.219,6.793-3.219,11.371v12.258      c0,4.724,1.022,8.563,3.364,11.513c2.191,2.952,5.263,4.432,9.061,4.432c3.802,0,6.728-1.038,8.48-3.102      c1.899-2.065,2.775-5.022,2.775-9.156H320.102z M350.365,109.825l11.401-21.701h14.183l-18.131,30.409l19.152,31.014h-14.766      l-11.695-22.15l-11.839,22.15h-14.184l18.569-31.014l-18.13-30.409h14.183L350.365,109.825z"/></g><g><path d="M390.855,473.934H121.29c-2.773,0-5.022-2.248-5.022-5.021c0-2.775,2.249-5.021,5.022-5.021h269.565      c2.776,0,5.021,2.246,5.021,5.021C395.877,471.686,393.632,473.934,390.855,473.934z"/></g><g><path d="M366.884,492.834H145.116c-2.772,0-5.021-2.246-5.021-5.021s2.249-5.021,5.021-5.021h221.768      c2.775,0,5.021,2.246,5.021,5.021S369.659,492.834,366.884,492.834z"/></g><g><path d="M370.687,261.02H141.319c-2.772,0-5.021-2.246-5.021-5.022c0-2.775,2.249-5.021,5.021-5.021h229.368      c2.771,0,5.021,2.247,5.021,5.021C375.707,258.773,373.457,261.02,370.687,261.02z"/></g><g><path d="M370.687,299.557H141.319c-2.772,0-5.021-2.246-5.021-5.021s2.249-5.021,5.021-5.021h229.368      c2.771,0,5.021,2.246,5.021,5.021S373.457,299.557,370.687,299.557z"/></g><g><path d="M370.687,338.24H141.319c-2.772,0-5.021-2.246-5.021-5.021s2.249-5.021,5.021-5.021h229.368      c2.771,0,5.021,2.246,5.021,5.021S373.457,338.24,370.687,338.24z"/></g><g><path d="M256.075,376.93H141.319c-2.772,0-5.021-2.248-5.021-5.021c0-2.775,2.249-5.021,5.021-5.021h114.756      c2.772,0,5.021,2.246,5.021,5.021C261.097,374.682,258.848,376.93,256.075,376.93z"/></g></g></g></g><g id="Layer_1"/></svg>