<?xml version="1.0" ?><!DOCTYPE svg  PUBLIC '-//W3C//DTD SVG 1.1//EN'  'http://www.w3.org/Graphics/SVG/1.1/DTD/svg11.dtd'><svg height="512px" style="enable-background:new 0 0 512 512;" version="1.1" viewBox="0 0 512 512" width="512px" xml:space="preserve" xmlns="http://www.w3.org/2000/svg" xmlns:xlink="http://www.w3.org/1999/xlink"><g id="file__x2C___doc__x2C__docx__x2C_"><g id="Layer_121"><g><g><path d="M428.136,454.369H83.865c-2.773,0-5.022-2.246-5.022-5.021V24.26c0-2.775,2.249-5.021,5.022-5.021h344.271      c2.774,0,5.021,2.246,5.021,5.021v425.087C433.156,452.123,430.91,454.369,428.136,454.369z M88.886,444.328h334.228V29.282      H88.886V444.328z"/></g><g><path d="M387.789,179.59H124.215c-9.218,0-16.721-7.55-16.721-16.831V70.473c0-9.282,7.502-16.831,16.721-16.831h263.574      c9.217,0,16.716,7.549,16.716,16.831v92.286C404.505,172.04,397.006,179.59,387.789,179.59z M124.215,63.684      c-3.684,0-6.678,3.047-6.678,6.789v92.286c0,3.741,2.994,6.788,6.678,6.788h263.574c3.677,0,6.674-3.047,6.674-6.788V70.473      c0-3.742-2.997-6.789-6.674-6.789H124.215z"/></g><g><path d="M175.525,149.613h-12.133V138.69h12.133V149.613z M187.95,149.613V88.045h20.906c7.308,0,13.452,2.513,18.271,7.237      c4.825,4.87,7.313,10.923,7.313,18.453v10.194c0,7.524-2.488,13.729-7.313,18.453c-4.82,4.724-10.964,7.232-18.271,7.232H187.95      z M200.087,97.644v42.375h8.038c4.387,0,7.892-1.476,10.38-4.427c2.483-2.956,3.656-6.94,3.656-11.664v-10.194      c0-4.87-1.173-8.713-3.656-11.664c-2.488-2.952-5.993-4.427-10.38-4.427H200.087z M292.916,124.372      c0,7.523-2.343,13.729-7.021,18.745c-4.823,4.875-10.964,7.237-18.417,7.237c-7.605,0-13.598-2.362-18.276-7.237      c-4.674-5.016-7.016-11.221-7.016-18.745v-11.081c0-7.524,2.342-13.729,7.016-18.604c4.679-5.017,10.671-7.383,18.13-7.383      c7.6,0,13.74,2.367,18.419,7.383c4.823,4.875,7.166,11.08,7.166,18.604V124.372z M280.779,113.146      c0-4.724-1.17-8.708-3.651-11.81c-2.343-3.102-5.557-4.578-9.797-4.578c-4.094,0-7.312,1.476-9.648,4.578      c-2.191,3.103-3.365,6.94-3.365,11.81v11.227c0,4.864,1.173,8.853,3.51,11.956c2.191,3.103,5.556,4.578,9.649,4.578      s7.453-1.476,9.795-4.578c2.337-3.103,3.507-7.091,3.507-11.956V113.146z M348.321,128.652l0.145,0.146      c0.146,6.642-1.903,11.961-5.993,15.798c-4.095,3.838-9.796,5.757-17.107,5.757c-7.309,0-13.302-2.362-17.834-7.086      c-4.533-4.724-6.869-10.778-6.869-18.312v-12.253c0-7.378,2.19-13.583,6.724-18.307c4.386-4.724,10.233-7.091,17.395-7.091      c7.46,0,13.307,1.923,17.547,5.761c4.235,3.989,6.285,9.302,6.285,15.945l-0.146,0.297H336.62c0-4.134-1.021-7.237-2.921-9.302      c-1.898-2.215-4.97-3.248-8.919-3.248c-3.651,0-6.577,1.476-8.768,4.427c-2.05,3.103-3.219,6.793-3.219,11.518v12.253      c0,4.583,1.169,8.421,3.365,11.523c2.337,2.951,5.408,4.427,9.206,4.427c3.801,0,6.582-1.033,8.48-3.102      c1.754-2.07,2.774-5.167,2.774-9.151H348.321z"/></g><g><path d="M390.855,474.006H121.29c-2.773,0-5.022-2.246-5.022-5.021s2.249-5.021,5.022-5.021h269.565      c2.776,0,5.021,2.246,5.021,5.021S393.632,474.006,390.855,474.006z"/></g><g><path d="M366.884,492.762H145.116c-2.772,0-5.021-2.246-5.021-5.021s2.249-5.021,5.021-5.021h221.768      c2.775,0,5.021,2.246,5.021,5.021S369.659,492.762,366.884,492.762z"/></g><g><path d="M370.687,261.092H141.319c-2.772,0-5.021-2.246-5.021-5.021c0-2.775,2.249-5.022,5.021-5.022h229.368      c2.771,0,5.021,2.247,5.021,5.022C375.707,258.846,373.457,261.092,370.687,261.092z"/></g><g><path d="M370.687,299.631H141.319c-2.772,0-5.021-2.246-5.021-5.023c0-2.773,2.249-5.021,5.021-5.021h229.368      c2.771,0,5.021,2.248,5.021,5.021C375.707,297.385,373.457,299.631,370.687,299.631z"/></g><g><path d="M370.687,338.318H141.319c-2.772,0-5.021-2.246-5.021-5.021s2.249-5.021,5.021-5.021h229.368      c2.771,0,5.021,2.246,5.021,5.021S373.457,338.318,370.687,338.318z"/></g><g><path d="M256.075,376.996H141.319c-2.772,0-5.021-2.246-5.021-5.02c0-2.775,2.249-5.021,5.021-5.021h114.756      c2.772,0,5.021,2.246,5.021,5.021C261.097,374.75,258.848,376.996,256.075,376.996z"/></g></g></g></g><g id="Layer_1"/></svg>