<?xml version="1.0" ?><!DOCTYPE svg  PUBLIC '-//W3C//DTD SVG 1.1//EN'  'http://www.w3.org/Graphics/SVG/1.1/DTD/svg11.dtd'><svg enable-background="new 0 0 512 512" height="512px" version="1.1" viewBox="0 0 512 512" width="512px" xml:space="preserve" xmlns="http://www.w3.org/2000/svg" xmlns:xlink="http://www.w3.org/1999/xlink"><g id="Ebene_3"/><g id="Ebene_1"><g><path d="M64,250c-3.313,0-6,2.687-6,6v64c0,3.313,2.687,6,6,6s6-2.687,6-6v-64C70,252.687,67.313,250,64,250z"/><path d="M112,186c-3.313,0-6,2.687-6,6v160c0,3.313,2.687,6,6,6s6-2.687,6-6V192C118,188.687,115.313,186,112,186z"/><path d="M160,218c-3.313,0-6,2.687-6,6v128c0,3.313,2.687,6,6,6s6-2.687,6-6V224C166,220.687,163.313,218,160,218z"/><path d="M208,154c-3.313,0-6,2.687-6,6v192c0,3.313,2.687,6,6,6s6-2.687,6-6V160C214,156.687,211.313,154,208,154z"/><path d="M384,218c-4.127,0-8.248,0.366-12.312,1.092c-7.942-29.842-22.937-54.458-43.583-71.447    C307.716,130.868,282.783,122,256,122h-6v236h134c38.598,0,70-31.402,70-70S422.598,218,384,218z M384,346H262V134.179    c39.243,2.331,84.293,27.775,99.43,93.392l1.4,6.067l6.011-1.623c4.95-1.336,10.05-2.014,15.16-2.014c31.981,0,58,26.019,58,58    S415.981,346,384,346z"/></g></g><g id="Ebene_2"/></svg>