<?xml version="1.0" ?><!DOCTYPE svg  PUBLIC '-//W3C//DTD SVG 1.1//EN'  'http://www.w3.org/Graphics/SVG/1.1/DTD/svg11.dtd'><svg enable-background="new 0 0 512 512" height="512px" version="1.1" viewBox="0 0 512 512" width="512px" xml:space="preserve" xmlns="http://www.w3.org/2000/svg" xmlns:xlink="http://www.w3.org/1999/xlink"><g id="Ebene_3"/><g id="Ebene_1"><path d="M465.396,125.714l-11.411-1.652c-1.722-0.25-42.832-6.201-64.115-6.042c-15.832-15.906-37.547-24.978-60.008-24.978   c-46.752,0-84.787,38.239-84.787,85.241c0,3.883,0.255,7.742,0.762,11.541c-53.717-4.755-100.217-31.095-149.769-84.568   l-5.824-6.285l-3.914,7.623c-7.106,13.838-19.33,54.358-9.362,84.618c7.176,21.784,24.415,44.412,41.299,60.109   c-14.5-2.199-32.029-6.536-47.679-12.881l-11.658-4.726l3.664,12.034c6.72,22.074,20.851,45.247,38.769,63.576   c18.781,19.212,40.881,32.319,64.573,38.416c-24.711,16.212-53.193,24.717-83.143,24.717c-6.034,0-12.12-0.358-18.087-1.064   l-25.74-3.046l21.783,14.047c37.094,23.921,79.979,36.565,124.017,36.565c35.488,0,68.693-7.087,98.691-21.065   c27.506-12.817,51.811-31.136,72.239-54.447c37.637-42.951,59.224-99.797,59.224-155.963c0-2.627-0.046-5.3-0.137-7.975   L465.396,125.714z M346.669,335.537c-28.551,32.582-79.817,71.421-161.905,71.421c-33.574,0-66.439-7.756-96.312-22.596   c35.116-1.172,68.165-13.252,95.9-35.115l11.065-8.723l-13.957-1.933c-53.248-7.373-88.57-50.908-103.015-84.496   C100.987,261.555,123.843,265,137.333,265h19.684l-16.337-10.98c-18.92-12.716-43.685-40.366-52.315-66.564   c-7.251-22.013-0.344-51.681,5.268-67.302c51.82,53.824,101.217,79.25,159.176,82.18l7.943,0.402l-1.794-7.748   c-1.25-5.395-1.883-11.016-1.883-16.706c0-40.385,32.652-73.241,72.787-73.241c20.051,0,39.412,8.427,53.118,23.119l1.864,1.999   l2.731-0.095c13.228-0.458,38.442,2.438,53.181,4.325l-38.177,40.574l0.113,2.533c0.15,3.343,0.226,6.703,0.226,9.986   C402.918,240.78,382.417,294.743,346.669,335.537z"/></g><g id="Ebene_2"/></svg>