<?xml version="1.0" ?><!DOCTYPE svg  PUBLIC '-//W3C//DTD SVG 1.1//EN'  'http://www.w3.org/Graphics/SVG/1.1/DTD/svg11.dtd'><svg enable-background="new 0 0 512 512" height="512px" version="1.1" viewBox="0 0 512 512" width="512px" xml:space="preserve" xmlns="http://www.w3.org/2000/svg" xmlns:xlink="http://www.w3.org/1999/xlink"><g id="Ebene_3"/><g id="Ebene_1"><g><path d="M434.795,282.316c-6.702-7.719-18.901-17.843-47.349-17.843c-13.642,0-33.391,1.762-47.345,17.798    C327.175,297.127,320.892,322,320.892,358h12c0-75,28.16-81.803,54.555-81.803S442,283,442,358h12    C454,322,447.718,297.201,434.795,282.316z"/><path d="M387.855,258.789c30.646,0,55.579-24.933,55.579-55.579c0-30.646-24.933-55.579-55.579-55.579    c-30.646,0-55.578,24.933-55.578,55.579C332.277,233.856,357.21,258.789,387.855,258.789z M387.855,159.631    c24.029,0,43.579,19.549,43.579,43.579c0,24.029-19.55,43.579-43.579,43.579s-43.578-19.549-43.578-43.579    C344.277,179.181,363.826,159.631,387.855,159.631z"/><path d="M244.071,273.492c-12.361,0-30.262,1.594-42.947,16.172C189.424,303.11,183.736,326,183.736,358h12    c0-67,24.949-72.785,48.335-72.785c23.385,0,48.333,5.785,48.333,72.785h12c0-32-5.687-54.827-17.384-68.3    C274.3,275.048,256.417,273.492,244.071,273.492z"/><path d="M244.438,269.634c27.838,0,50.485-22.648,50.485-50.486c0-27.838-22.647-50.485-50.485-50.485    s-50.485,22.647-50.485,50.485C193.953,246.986,216.601,269.634,244.438,269.634z M244.438,180.662    c21.221,0,38.485,17.265,38.485,38.485c0,21.222-17.265,38.486-38.485,38.486s-38.485-17.265-38.485-38.486    C205.953,197.927,223.218,180.662,244.438,180.662z"/><path d="M112.869,281.98c-11.155,0-27.314,1.435-38.807,14.643C63.516,308.743,58.389,329,58.389,358h12    c0-26,4.163-43.751,12.727-53.592c6.386-7.339,15.562-10.52,29.754-10.52c20.553,0,42.48,5.112,42.48,64.112h12    c0-29-5.125-49.207-15.669-61.351C140.158,283.377,124.012,281.98,112.869,281.98z"/><path d="M113.197,279.841c25.195,0,45.693-20.499,45.693-45.694c0-25.195-20.498-45.693-45.693-45.693    c-25.194,0-45.691,20.498-45.691,45.693C67.506,259.342,88.003,279.841,113.197,279.841z M113.197,200.454    c18.578,0,33.693,15.115,33.693,33.693c0,18.579-15.115,33.694-33.693,33.694c-18.577,0-33.691-15.115-33.691-33.694    C79.506,215.568,94.62,200.454,113.197,200.454z"/></g></g><g id="Ebene_2"/></svg>