<?xml version="1.0" ?><!DOCTYPE svg  PUBLIC '-//W3C//DTD SVG 1.1//EN'  'http://www.w3.org/Graphics/SVG/1.1/DTD/svg11.dtd'><svg enable-background="new 0 0 512 512" height="512px" version="1.1" viewBox="0 0 512 512" width="512px" xml:space="preserve" xmlns="http://www.w3.org/2000/svg" xmlns:xlink="http://www.w3.org/1999/xlink"><g id="Ebene_3"/><g id="Ebene_1"><path d="M422.434,287.846C422.4,126.417,367.97,92.219,365.652,90.842l-1.492-0.887l-1.734,0.046   c-38.177,1.024-71.467,12.571-98.946,34.319c-21.882,17.319-40.056,41.062-54.018,70.571   c-17.405,36.785-23.804,72.845-26.016,90.031c-13.761-12.935-18.25-37.505-19.474-57.266c-1.618-26.105,2.007-50.001,2.043-50.24   l1.621-10.493l-9.824,4.023c-21.51,8.809-41.224,30.085-54.087,58.372c-13.277,29.197-17.446,61.243-11.74,90.235   c5.843,29.685,21.972,54.578,46.643,71.989C167.265,411.753,206.868,422,256.337,422c58.838,0,103.296-15.477,132.139-46.001   C424.051,338.35,422.616,291.673,422.434,287.846z M379.628,367.89C353.136,395.832,311.655,410,256.337,410   c-116.868,0-145.758-58.119-152.577-92.763c-5.151-26.17-1.183-56.405,10.889-82.95c9.603-21.115,23.157-37.789,38.141-47.261   c-2.6,27.3-4.906,94.822,32.851,113.991l8.115,4.12l0.589-9.082c0.031-0.477,3.354-48.243,25.965-96.03   c13.166-27.826,30.196-50.131,50.618-66.294c24.932-19.733,55.153-30.383,89.858-31.67c7.862,6.066,49.648,44.995,49.648,185.939   l0.009,0.33C410.466,288.775,412.438,333.285,379.628,367.89z"/></g><g id="Ebene_2"/></svg>