<?xml version="1.0" ?><svg enable-background="new 0 0 24 24" id="Layer_1" version="1.1" viewBox="0 0 24 24" xml:space="preserve" xmlns="http://www.w3.org/2000/svg" xmlns:xlink="http://www.w3.org/1999/xlink"><g><path d="M20.7871094,10c-0.2260742,0-0.4526367,0.0239258-0.6733398,0.0712891l-2.2147217,0.4748535   c-0.0935059-0.3004761-0.25-0.5853882-0.4874268-0.822998l-2.1347656-2.1347656   c-0.784668-0.7836914-2.059082-0.7827148-2.8417969,0l-0.1151733,0.1151733l-1.3555298-3.3890991   C10.8881836,4.1245117,10.7045898,4,10.5,4H9.6621094C7.5551758,4,5.6918945,5.3427734,5.0258789,7.3417969   C4.9838867,7.4677734,4.9936523,7.6049805,5.0527344,7.7236328L6.659668,10.9375   c-1.2192383-0.1455078-3.4741211-0.6313477-4.769043-2.25C1.7758789,8.5444336,1.5932617,8.4760742,1.4121094,8.5078125   C1.2319336,8.5400391,1.0834961,8.6679688,1.0258789,8.8417969l-0.5493164,1.6474609   C0.1601562,11.4379883,0,12.4262695,0,13.4257812c0,1.4350586,0.3388672,2.8710938,0.9799805,4.1523438L1,19.5   C1,19.7763672,1.2236328,20,1.5,20h6c0.215332,0,0.40625-0.1376953,0.4741211-0.3417969   c0.1010742-0.3027344,0.2714844-0.7416992,0.4550781-1.1210938c0.2875977,0.5068359,0.7329102,1.1025391,1.347168,1.4101562   C9.8457031,19.9819336,9.9223633,20,10,20h9.637207c0.6967773,0,1.3530273-0.3706055,1.7128906-0.9677734l1.9160156-3.1796875   C23.7460938,15.0556641,24,14.1425781,24,13.2124023C24,11.440918,22.5585938,10,20.7871094,10z" fill="#303C42"/><path d="M13.855957,8.0004883c0.2583008,0,0.5170898,0.0981445,0.7138672,0.2949219l2.1347656,2.1347656   c0.3935547,0.3935547,0.3935547,1.0341797,0,1.4277344l-2.8466797,2.8466797c-0.3930664,0.3935547-1.0336914,0.3935547-1.4277344,0   l-2.1347656-2.1347656c-0.3935547-0.3935547-0.3935547-1.0341797,0-1.4277344l2.8466797-2.8466797   C13.3388672,8.0986328,13.597168,8.0004883,13.855957,8.0004883z" fill="#FFCA28"/><path d="M12.7905273,13.6503906c0.0976562,0.0976562,0.2255859,0.1464844,0.3535156,0.1464844   s0.2558594-0.0488281,0.3535156-0.1464844l2.152832-2.152832c0.1953125-0.1953125,0.1953125-0.5117188,0-0.7070312   l-1.440918-1.440918c-0.1953125-0.1953125-0.5117188-0.1953125-0.7070312,0l-2.152832,2.152832   c-0.1953125,0.1953125-0.1953125,0.5117188,0,0.7070312L12.7905273,13.6503906z" fill="#303C42"/><rect fill="#69B342" height="1.0378726" transform="matrix(0.7071068 -0.7071068 0.7071068 0.7071068 -4.1776695 12.9142132)" width="2.0446711" x="12.477664" y="10.9810638"/><path d="M22.409668,15.3369141l-1.9160156,3.1791992C20.3139648,18.8144531,19.9853516,19,19.637207,19h-9.5083008   c-0.6123047-0.3759766-1.0380859-1.3129883-1.1547852-1.6591797c-0.0556641-0.1640625-0.1918945-0.2880859-0.3598633-0.3271484   c-0.1674805-0.0395508-0.3457031,0.0112305-0.4677734,0.1328125C7.7236328,17.5693359,7.3388672,18.4902344,7.1474609,19H2v-1.5   c0-0.0771484-0.0180664-0.1538086-0.0522461-0.2231445L1.875,17.1313477C1.3027344,15.9873047,1,14.7060547,1,13.4257812   c0-0.8920898,0.1430664-1.7739258,0.4248047-2.6201172l0.284668-0.8535156C3.9223633,11.9746094,7.3417969,12,7.5,12   c0.1733398,0,0.3339844-0.0898438,0.425293-0.2373047s0.0996094-0.331543,0.0219727-0.4863281L6.0429688,7.4682617   C6.6240234,5.9838867,8.0537109,5,9.6621094,5h0.4995117l1.388916,3.4729004l-1.9621582,1.9621582   c-0.7832031,0.7832031-0.7832031,2.0581055,0,2.8417969l2.1347656,2.1347656   c0.3920898,0.3916016,0.9067383,0.5874023,1.4208984,0.5874023c0.5146484,0,1.0292969-0.1958008,1.4208984-0.5874023   l2.8466797-2.8466797c0.2861938-0.2861938,0.46521-0.6384888,0.5422363-1.0079956l2.3693848-0.5081177   C20.4750977,11.0166016,20.6313477,11,20.7871094,11C22.0073242,11,23,11.9926758,23,13.2124023   C23,13.9609375,22.7958984,14.6953125,22.409668,15.3369141z" fill="#69B342"/><path d="M1.3082886,12.3052979c0.1653442-0.7255249,0.9803467-1.0877686,1.630188-0.7252197   C5.0042725,12.732605,7.3690796,12.75,7.5,12.75c0.1733398,0,0.3339844-0.0898438,0.425293-0.2373047   s0.0996094-0.331543,0.0219727-0.4863281l-0.0963135-0.1925659C7.7576904,11.9313354,7.6379395,12,7.5,12   c-0.1582031,0-3.5776367-0.0253906-5.7905273-2.0478516l-0.284668,0.8535156C1.1430664,11.6518555,1,12.5336914,1,13.4257812   c0,0.1362915,0.0171509,0.2719116,0.0239868,0.4080811C1.0712891,13.4130249,1.1853027,12.8449097,1.3082886,12.3052979z" fill="#FFFFFF" opacity="0.2"/><path d="M8.874939,5.8299561c0.4492798-0.0924683,0.906311,0.1391602,1.1254272,0.5420532   l1.2860107,2.3650513l0.2641602-0.2641602L10.1616211,5H9.6621094C8.0537109,5,6.6240234,5.9838867,6.0429688,7.4682617   L6.223938,7.8301392C6.7654419,6.7979126,7.7385864,6.0637817,8.874939,5.8299561z" fill="#FFFFFF" opacity="0.2"/><path d="M22.5448608,11.8834229c0.0163574,0.1081543,0.0332642,0.2163086,0.0332642,0.3289795   c0,0.7485352-0.2041016,1.4829102-0.590332,2.1245117l-1.2547607,2.0819702C20.1416626,17.4000854,19.0797119,18,17.9341431,18   h-7.0040283c-1.0571899,0-2.0310059-0.6487427-2.3742676-1.6486206c-0.0012207-0.0036011-0.0024414-0.0071411-0.0036011-0.0105591   c-0.0556641-0.1640625-0.1918945-0.2880859-0.3598633-0.3271484c-0.1674805-0.0395508-0.3457031,0.0112305-0.4677734,0.1328125   c-0.1367188,0.1367188-0.2694092,0.3254395-0.3929443,0.5355835C6.857666,17.4884644,6.0073853,18,5.0719604,18H2v1h5.1474609   c0.1914062-0.5097656,0.5761719-1.4306641,0.9990234-1.8535156c0.1220703-0.121582,0.300293-0.1723633,0.4677734-0.1328125   c0.1679688,0.0390625,0.3041992,0.1630859,0.3598633,0.3271484C9.0908203,17.6870117,9.5166016,18.6240234,10.1289062,19h9.5083008   c0.3481445,0,0.6767578-0.1855469,0.8564453-0.4838867l1.9160156-3.1791992C22.7958984,14.6953125,23,13.9609375,23,13.2124023   C23,12.711731,22.8264771,12.2546387,22.5448608,11.8834229z" opacity="0.1"/><linearGradient gradientUnits="userSpaceOnUse" id="SVGID_1_" x1="0.7015366" x2="21.6837826" y1="9.5293865" y2="19.3135681"><stop offset="0" style="stop-color:#FFFFFF;stop-opacity:0.2"/><stop offset="1" style="stop-color:#FFFFFF;stop-opacity:0"/></linearGradient><path d="M20.7871094,10c-0.2260742,0-0.4526367,0.0239258-0.6733398,0.0712891l-2.2147217,0.4748535   c-0.0935059-0.3004761-0.25-0.5853882-0.4874268-0.822998l-2.1347656-2.1347656   c-0.784668-0.7836914-2.059082-0.7827148-2.8417969,0l-0.1151733,0.1151733l-1.3555298-3.3890991   C10.8881836,4.1245117,10.7045898,4,10.5,4H9.6621094C7.5551758,4,5.6918945,5.3427734,5.0258789,7.3417969   C4.9838867,7.4677734,4.9936523,7.6049805,5.0527344,7.7236328L6.659668,10.9375   c-1.2192383-0.1455078-3.4741211-0.6313477-4.769043-2.25C1.7758789,8.5444336,1.5932617,8.4760742,1.4121094,8.5078125   C1.2319336,8.5400391,1.0834961,8.6679688,1.0258789,8.8417969l-0.5493164,1.6474609   C0.1601562,11.4379883,0,12.4262695,0,13.4257812c0,1.4350586,0.3388672,2.8710938,0.9799805,4.1523438L1,19.5   C1,19.7763672,1.2236328,20,1.5,20h6c0.215332,0,0.40625-0.1376953,0.4741211-0.3417969   c0.1010742-0.3027344,0.2714844-0.7416992,0.4550781-1.1210938c0.2875977,0.5068359,0.7329102,1.1025391,1.347168,1.4101562   C9.8457031,19.9819336,9.9223633,20,10,20h9.637207c0.6967773,0,1.3530273-0.3706055,1.7128906-0.9677734l1.9160156-3.1796875   C23.7460938,15.0556641,24,14.1425781,24,13.2124023C24,11.440918,22.5585938,10,20.7871094,10z" fill="url(#SVGID_1_)"/></g><g/><g/><g/><g/><g/><g/><g/><g/><g/><g/><g/><g/><g/><g/><g/></svg>