<?xml version="1.0" ?><svg enable-background="new 0 0 24 24" id="Layer_1" version="1.1" viewBox="0 0 24 24" xml:space="preserve" xmlns="http://www.w3.org/2000/svg" xmlns:xlink="http://www.w3.org/1999/xlink"><path d="M22.7363281,8.059082c-0.1630859-0.0869141-0.359375-0.078125-0.5136719,0.0249023l-1.1594238,0.7720337  c-0.3148804-0.6727905-0.6990967-1.3174438-1.1637573-1.9168701C20.5319214,6.7629395,21,6.1879272,21,5.5  C21,4.6728516,20.3271484,4,19.5,4h-1.5505371C17.7171631,2.8602905,16.7076416,2,15.5,2s-2.2171631,0.8602905-2.4494629,2  h-0.118103C12.9674683,3.8353882,13,3.6702271,13,3.5C13,2.121582,11.8789063,1,10.5,1  C9.6344604,1,8.848938,1.4575195,8.3981934,2.1737061C8.1185913,2.0653687,7.8175049,2,7.5,2  C6.2923584,2,5.2828369,2.8602905,5.0505371,4H4.5C3.6728516,4,3,4.6728516,3,5.5  c0,0.6763916,0.4528809,1.2429199,1.0691528,1.4293823C3.611145,7.5252686,3.2324829,8.168396,2.9221191,8.8412476  L1.7753906,8.0830078C1.6230469,7.980957,1.4248047,7.9711914,1.2636719,8.0595703C1.1015625,8.1469727,1,8.315918,1,8.5v1  C1,9.7763672,1.2236328,10,1.5,10S2,9.7763672,2,9.5V9.4301758l0.5430298,0.3587646C2.1928101,10.81427,2,11.8944092,2,13  c0,2.4594727,0.9042969,4.8227539,2.5458984,6.6542969c0.6568604,0.7335205,1.4728394,1.3110962,2.3847656,1.7106323L6.2929688,22  H5.5C5.2236328,22,5,22.2236328,5,22.5S5.2236328,23,5.5,23h1c0.1328125,0,0.2587891-0.0522461,0.3525391-0.1459961  l1.1309204-1.1271973C8.6290283,21.9005737,9.303833,22,9.9970703,22h3.9931641  c0.6873779,0,1.3561401-0.1003418,1.9981079-0.2734375l1.1630249,1.1318359C17.2451172,22.9492188,17.3701172,23,17.5,23h1  c0.2763672,0,0.5-0.2236328,0.5-0.5S18.7763672,22,18.5,22h-0.796875l-0.6572876-0.6396484  c1.0130005-0.4448853,1.9171753-1.1080322,2.6338501-1.965332c1.4882813-1.7802734,2.3125-4.0385742,2.3203125-6.3588867  c0.0038452-1.1105347-0.1925049-2.1989136-0.5525513-3.2345581L22,9.4335938V9.5c0,0.2763672,0.2236328,0.5,0.5,0.5  S23,9.7763672,23,9.5v-1C23,8.3154297,22.8984375,8.1464844,22.7363281,8.059082z" fill="#303C42"/><g/><g/><g/><g/><g/><g/><g/><g/><g/><g/><g/><g/><g/><g/><g/></svg>