<?xml version="1.0" ?><svg enable-background="new 0 0 24 24" id="Layer_1" version="1.1" viewBox="0 0 24 24" xml:space="preserve" xmlns="http://www.w3.org/2000/svg" xmlns:xlink="http://www.w3.org/1999/xlink"><g><path d="M12,3c-4.9628906,0-9,4.0375977-9,9s4.0371094,9,9,9s9-4.0375977,9-9S16.9628906,3,12,3z M18,13.3637695   C18,14.3422852,17.2724609,15,16.1904297,15c-0.5400391,0-1.15802-0.2443848-1.7630005-0.5725708   C14.7556152,15.0324097,15,15.6503906,15,16.1904297C15,17.2729492,14.3417969,18,13.3632813,18   c-0.4833984,0-1-0.3227539-1.3642578-0.6347656C11.6357422,17.6772461,11.1210938,18,10.6367188,18   C9.6582031,18,9,17.2729492,9,16.1904297c0-0.5400391,0.2443848-1.15802,0.5725708-1.7630005   C8.9675903,14.7556152,8.3496094,15,7.8095703,15C6.7275391,15,6,14.3422852,6,13.3637695   c0-0.4848633,0.3222656-1.0004883,0.6347656-1.3642578C6.3222656,11.6352539,6,11.1196289,6,10.6362305   C6,9.6577148,6.7275391,9,7.8095703,9c0.5400391,0,1.15802,0.2443848,1.7630005,0.5725708   C9.2443848,8.9675903,9,8.3496094,9,7.8095703C9,6.7270508,9.6582031,6,10.6367188,6c0.4833984,0,1,0.3227539,1.3642578,0.6347656   C12.3642578,6.3227539,12.8789063,6,13.3632813,6C14.3417969,6,15,6.7270508,15,7.8095703   c0,0.5400391-0.2443848,1.15802-0.5725708,1.7630005C15.0324097,9.2443848,15.6503906,9,16.1904297,9   C17.2724609,9,18,9.6577148,18,10.6362305c0,0.4848633-0.3222656,1.0004883-0.6347656,1.3642578   C17.6777344,12.3647461,18,12.8803711,18,13.3637695z" fill="#303C42"/><path d="M12,0C5.3828125,0,0,5.3833008,0,12s5.3828125,12,12,12s12-5.3833008,12-12S18.6171875,0,12,0z M12,22   C6.4863281,22,2,17.5141602,2,12S6.4863281,2,12,2s10,4.4858398,10,10S17.5136719,22,12,22z" fill="#303C42"/></g><g/><g/><g/><g/><g/><g/><g/><g/><g/><g/><g/><g/><g/><g/><g/></svg>