<?xml version="1.0" ?><svg enable-background="new 0 0 24 24" id="Layer_1" version="1.1" viewBox="0 0 24 24" xml:space="preserve" xmlns="http://www.w3.org/2000/svg" xmlns:xlink="http://www.w3.org/1999/xlink"><g><path d="M22,12c-0.2089844,0-0.5800781,0.059082-1.3334961,0.1821289   C20.4657593,12.2147827,20.2396851,12.2514038,20,12.2896729V9.5C20,5.5512695,16.8598633,3,12,3S4,5.5512695,4,9.5v2.7896729   c-0.2396851-0.038269-0.4657593-0.0748901-0.6665039-0.1075439C2.5800781,12.059082,2.2089844,12,2,12   c-1.7578125,0-2,1.4418945-2,3c0,3.2524414,5.4951172,6,12,6s12-2.7475586,12-6C24,13.4418945,23.7578125,12,22,12z M15,16   c0,0.5512695-0.4487305,1-1,1h-4c-0.5512695,0-1-0.4487305-1-1v-3c0-0.5512695,0.4487305-1,1-1h4c0.5512695,0,1,0.4487305,1,1V16z    M5,14.4643555v-0.661377c0.5787354,0.2191772,1.5160522,0.4686279,3,0.6256104v1.2747803   c-1.5247803-0.2531738-2.3741455-0.6057129-2.7563477-0.8083496C5.0932617,14.8149414,5,14.6499023,5,14.4643555z M19,14.4643555   c0,0.1855469-0.0932617,0.3505859-0.2436523,0.4301758C18.369873,15.0997925,17.5091553,15.4585571,16,15.7090454v-1.397522   c1.4852905-0.1560059,2.427063-0.3807983,3-0.5680542V14.4643555z" fill="#303C42"/><path d="M13.5,13h-3c-0.2763672,0-0.5,0.2236328-0.5,0.5v2c0,0.2763672,0.2236328,0.5,0.5,0.5h3   c0.2763672,0,0.5-0.2236328,0.5-0.5v-2C14,13.2236328,13.7763672,13,13.5,13z" fill="#303C42"/></g><g/><g/><g/><g/><g/><g/><g/><g/><g/><g/><g/><g/><g/><g/><g/></svg>