<?xml version="1.0" ?><svg id="Layer_1" style="enable-background:new 0 0 512 512;" version="1.1" viewBox="0 0 512 512" xml:space="preserve" xmlns="http://www.w3.org/2000/svg" xmlns:xlink="http://www.w3.org/1999/xlink"><g id="XMLID_2_"><g id="XMLID_1818_"><g id="XMLID_1925_"><path d="M356.8,491.4c-1.6,0-3-1.3-3-3V336.8c0-1.6,1.3-3,3-3s3,1.3,3,3v151.7     C359.7,490.1,358.4,491.4,356.8,491.4z" id="XMLID_2693_"/></g><g id="XMLID_1855_"><g id="XMLID_1856_"><path d="M146.5,492.4c-1.6,0-3-1.3-3-3V372.3c0-1.6,1.3-3,3-3s3,1.3,3,3v117.2      C149.5,491.1,148.1,492.4,146.5,492.4z" id="XMLID_2614_"/></g></g><g id="XMLID_1854_"><path d="M499.5,506H12.5c-2.2,0-3.9-1.8-3.9-3.9s1.8-3.9,3.9-3.9h486.9c2.2,0,3.9,1.8,3.9,3.9     S501.6,506,499.5,506z" id="XMLID_2613_"/></g></g><g id="XMLID_1991_"><path d="M398.6,118.9c-6.4,0-12.7-0.3-19.1-1c-0.8-0.1-2-0.2-3.1-0.8c0,0,0,0,0,0c-0.2-0.1-0.4-0.2-0.6-0.3    c-3.7-2.5-3.6-10.6-2.2-25.6c0.1-1.5,0.3-2.9,0.3-3.5c0.1-2.3,0.2-4.1,0.4-5.9c0.2-3.1,0.4-5.8,0.3-9.7    c-0.2-5.2,0.8-10.6,9.6-10.9c7.3-0.3,14.7-0.3,22-0.2c0.9,0,2.3,0,3.9-0.1c7.6-0.4,13.6-0.4,16.8,2.2c5,4.2,4.3,14.6,3.8,21.4    c-0.1,1-0.1,1.9-0.2,2.7c-0.1,3.7-0.4,7-0.6,10.2c-0.3,4.2-0.6,8.2-0.7,12.8c-0.1,7-2.5,7.8-8.7,8.1l-0.1,0    C412.8,118.6,405.6,118.9,398.6,118.9z M379.3,111.8c0.3,0.1,0.7,0.1,0.9,0.1c12.8,1.5,25.6,1,39.8,0.3l0.1,0    c1.1-0.1,2.3-0.1,3-0.2c0-0.4,0.1-1,0.1-2.1c0.1-4.8,0.4-8.8,0.7-13.2c0.2-3.2,0.5-6.4,0.6-10c0-0.8,0.1-1.8,0.2-2.8    c0.3-4.3,1-14.2-1.7-16.5c-1.6-1.4-9.4-1-12.7-0.8c-1.7,0.1-3.2,0.2-4.3,0.1c-7.2-0.2-14.4-0.1-21.6,0.2c-3.6,0.1-4.1,0.4-3.9,4.8    c0.2,4.3-0.1,7.2-0.3,10.4c-0.1,1.7-0.3,3.5-0.4,5.7c0,0.8-0.2,2.1-0.3,3.8C378.4,103.2,378.4,109.9,379.3,111.8z" id="XMLID_2764_"/></g><g id="XMLID_1980_"><path d="M302,118.9c-6.4,0-12.7-0.3-19.1-1c-0.8-0.1-2-0.2-3.1-0.8c0,0,0,0,0,0c-0.2-0.1-0.4-0.2-0.6-0.3    c-3.7-2.5-3.6-10.6-2.2-25.6c0.1-1.5,0.3-2.9,0.3-3.5c0.1-2.3,0.2-4.1,0.4-5.9c0.2-3.1,0.4-5.8,0.3-9.7    c-0.2-5.2,0.8-10.6,9.6-10.9c7.3-0.3,14.7-0.3,22-0.2c0.9,0,2.3,0,3.9-0.1c7.6-0.4,13.6-0.4,16.8,2.2c5,4.2,4.3,14.6,3.8,21.4    c-0.1,1-0.1,1.9-0.2,2.7c-0.1,3.7-0.4,7-0.6,10.2c-0.3,4.2-0.6,8.2-0.7,12.8c-0.1,7-2.5,7.8-8.7,8.1l-0.1,0    C316.2,118.6,309.1,118.9,302,118.9z M282.7,111.8c0.3,0.1,0.7,0.1,0.9,0.1c12.8,1.5,25.6,1,39.8,0.3l0.1,0c1.1-0.1,2.3-0.1,3-0.2    c0-0.4,0.1-1,0.1-2.1c0.1-4.8,0.4-8.8,0.7-13.2c0.2-3.2,0.5-6.4,0.6-10c0-0.8,0.1-1.8,0.2-2.8c0.3-4.3,1-14.2-1.7-16.5    c-1.6-1.4-9.4-1-12.7-0.8c-1.7,0.1-3.2,0.2-4.3,0.1c-7.2-0.2-14.4-0.1-21.6,0.2c-3.6,0.1-4.1,0.4-3.9,4.8    c0.2,4.3-0.1,7.2-0.3,10.4c-0.1,1.7-0.3,3.5-0.4,5.7c0,0.8-0.2,2.1-0.3,3.8C281.9,103.2,281.8,109.9,282.7,111.8z" id="XMLID_2752_"/></g><g id="XMLID_1969_"><path d="M398.6,195.8c-6.4,0-12.7-0.3-19.1-1c-0.8-0.1-2-0.2-3.1-0.8c0,0,0,0,0,0c-0.2-0.1-0.4-0.2-0.6-0.3    c-3.7-2.5-3.6-10.6-2.2-25.6c0.1-1.5,0.3-2.9,0.3-3.5c0.1-2.3,0.2-4.1,0.4-5.9c0.2-3.1,0.4-5.8,0.3-9.7    c-0.2-5.2,0.8-10.6,9.6-10.9c7.3-0.3,14.7-0.3,22-0.2c0.9,0,2.3,0,3.9-0.1c7.6-0.4,13.6-0.4,16.8,2.2c5,4.2,4.3,14.6,3.8,21.4    c-0.1,1-0.1,1.9-0.2,2.7c-0.1,3.7-0.4,7-0.6,10.2c-0.3,4.2-0.6,8.2-0.7,12.8c-0.1,7-2.5,7.8-8.7,8.1l-0.1,0    C412.8,195.5,405.6,195.8,398.6,195.8z M379.3,188.8c0.3,0.1,0.7,0.1,0.9,0.1c12.8,1.5,25.6,1,39.8,0.3l0.1,0    c1.1-0.1,2.3-0.1,3-0.2c0-0.4,0.1-1,0.1-2.1c0.1-4.8,0.4-8.8,0.7-13.2c0.2-3.2,0.5-6.4,0.6-10c0-0.8,0.1-1.8,0.2-2.8    c0.3-4.3,1-14.2-1.7-16.5c-1.6-1.4-9.4-1-12.7-0.8c-1.7,0.1-3.2,0.2-4.3,0.1c-7.2-0.2-14.4-0.1-21.6,0.2c-3.6,0.1-4.1,0.4-3.9,4.8    c0.2,4.3-0.1,7.2-0.3,10.4c-0.1,1.7-0.3,3.5-0.4,5.7c0,0.8-0.2,2.1-0.3,3.8C378.4,180.1,378.4,186.9,379.3,188.8z" id="XMLID_2740_"/></g><g id="XMLID_1958_"><path d="M302,195.8c-6.4,0-12.7-0.3-19.1-1c-0.8-0.1-2-0.2-3.1-0.8c0,0,0,0,0,0c-0.2-0.1-0.4-0.2-0.6-0.3    c-3.7-2.5-3.6-10.6-2.2-25.6c0.1-1.5,0.3-2.9,0.3-3.5c0.1-2.3,0.2-4.1,0.4-5.9c0.2-3.1,0.4-5.8,0.3-9.7    c-0.2-5.2,0.8-10.6,9.6-10.9c7.3-0.3,14.7-0.3,22-0.2c0.9,0,2.3,0,3.9-0.1c7.6-0.4,13.6-0.4,16.8,2.2c5,4.2,4.3,14.6,3.8,21.4    c-0.1,1-0.1,1.9-0.2,2.7c-0.1,3.7-0.4,7-0.6,10.2c-0.3,4.2-0.6,8.2-0.7,12.8c-0.1,7-2.5,7.8-8.7,8.1l-0.1,0    C316.2,195.5,309.1,195.8,302,195.8z M282.7,188.8c0.3,0.1,0.7,0.1,0.9,0.1c12.8,1.5,25.6,1,39.8,0.3l0.1,0c1.1-0.1,2.3-0.1,3-0.2    c0-0.4,0.1-1,0.1-2.1c0.1-4.8,0.4-8.8,0.7-13.2c0.2-3.2,0.5-6.4,0.6-10c0-0.8,0.1-1.8,0.2-2.8c0.3-4.3,1-14.2-1.7-16.5    c-1.6-1.4-9.4-1-12.7-0.8c-1.7,0.1-3.2,0.2-4.3,0.1c-7.2-0.2-14.4-0.1-21.6,0.2c-3.6,0.1-4.1,0.4-3.9,4.8    c0.2,4.3-0.1,7.2-0.3,10.4c-0.1,1.7-0.3,3.5-0.4,5.7c0,0.8-0.2,2.1-0.3,3.8C281.9,180.1,281.8,186.9,282.7,188.8z" id="XMLID_2727_"/></g><g id="XMLID_1947_"><path d="M398.6,280.2c-6.4,0-12.7-0.3-19.1-1c-0.8-0.1-2-0.2-3.1-0.8c0,0,0,0,0,0c-0.2-0.1-0.4-0.2-0.6-0.3    c-3.7-2.5-3.6-10.6-2.2-25.6c0.1-1.5,0.3-2.9,0.3-3.5c0.1-2.3,0.2-4.1,0.4-5.9c0.2-3.1,0.4-5.8,0.3-9.7    c-0.2-5.2,0.8-10.6,9.6-10.9c7.3-0.3,14.7-0.3,22-0.2c0.9,0,2.3,0,3.9-0.1c7.6-0.4,13.6-0.4,16.8,2.2c5,4.2,4.3,14.6,3.8,21.4    c-0.1,1-0.1,1.9-0.2,2.7c-0.1,3.7-0.4,7-0.6,10.2c-0.3,4.2-0.6,8.2-0.7,12.8c-0.1,7-2.5,7.8-8.7,8.1l-0.1,0    C412.8,279.8,405.6,280.2,398.6,280.2z M379.3,273.1c0.3,0.1,0.7,0.1,0.9,0.1c12.8,1.5,25.6,1,39.8,0.3l0.1,0    c1.1-0.1,2.3-0.1,3-0.2c0-0.4,0.1-1,0.1-2.1c0.1-4.8,0.4-8.8,0.7-13.2c0.2-3.2,0.5-6.4,0.6-10c0-0.8,0.1-1.8,0.2-2.8    c0.3-4.3,1-14.2-1.7-16.5c-1.6-1.4-9.4-1-12.7-0.8c-1.7,0.1-3.2,0.2-4.3,0.1c-7.2-0.2-14.4-0.1-21.6,0.2c-3.6,0.1-4.1,0.4-3.9,4.8    c0.2,4.3-0.1,7.2-0.3,10.4c-0.1,1.7-0.3,3.5-0.4,5.7c0,0.8-0.2,2.1-0.3,3.8C378.4,264.4,378.4,271.2,379.3,273.1z" id="XMLID_2715_"/></g><g id="XMLID_1936_"><path d="M302,280.2c-6.4,0-12.7-0.3-19.1-1c-0.8-0.1-2-0.2-3.1-0.8c0,0,0,0,0,0c-0.2-0.1-0.4-0.2-0.6-0.3    c-3.7-2.5-3.6-10.6-2.2-25.6c0.1-1.5,0.3-2.9,0.3-3.5c0.1-2.3,0.2-4.1,0.4-5.9c0.2-3.1,0.4-5.8,0.3-9.7    c-0.2-5.2,0.8-10.6,9.6-10.9c7.3-0.3,14.7-0.3,22-0.2c0.9,0,2.3,0,3.9-0.1c7.6-0.4,13.6-0.4,16.8,2.2c5,4.2,4.3,14.6,3.8,21.4    c-0.1,1-0.1,1.9-0.2,2.7c-0.1,3.7-0.4,7-0.6,10.2c-0.3,4.2-0.6,8.2-0.7,12.8c-0.1,7-2.5,7.8-8.7,8.1l-0.1,0    C316.2,279.8,309.1,280.2,302,280.2z M282.7,273.1c0.3,0.1,0.7,0.1,0.9,0.1c12.8,1.5,25.6,1,39.8,0.3l0.1,0c1.1-0.1,2.3-0.1,3-0.2    c0-0.4,0.1-1,0.1-2.1c0.1-4.8,0.4-8.8,0.7-13.2c0.2-3.2,0.5-6.4,0.6-10c0-0.8,0.1-1.8,0.2-2.8c0.3-4.3,1-14.2-1.7-16.5    c-1.6-1.4-9.4-1-12.7-0.8c-1.7,0.1-3.2,0.2-4.3,0.1c-7.2-0.2-14.4-0.1-21.6,0.2c-3.6,0.1-4.1,0.4-3.9,4.8    c0.2,4.3-0.1,7.2-0.3,10.4c-0.1,1.7-0.3,3.5-0.4,5.7c0,0.8-0.2,2.1-0.3,3.8C281.9,264.4,281.8,271.2,282.7,273.1z" id="XMLID_2703_"/></g><g id="XMLID_1993_"><path d="M459.7,495.8c-1,0-2.1-0.1-3-0.1c-0.9,0-1.7-0.1-2.5-0.1H246.6c-2.2,0-3.9-1.8-3.9-3.9V9.9    c0-2.2,1.8-3.9,3.9-3.9H467c2.2,0,3.9,1.8,3.9,3.9v325.4c0,11.9-0.1,24-0.1,35.8c-0.2,34.2-0.4,69.7,1.1,104.2    c0,0.8,0.1,1.8,0.2,2.8c0.5,5.5,1.4,15.8-9.1,17.4C461.9,495.7,460.8,495.8,459.7,495.8z M250.5,487.7h203.6c1,0,1.9,0,2.9,0.1    c1.7,0.1,3.4,0.2,4.8,0c2.5-0.4,3.1-1.7,2.5-9c-0.1-1.1-0.2-2.1-0.2-3.1c-1.4-34.8-1.3-70.3-1.1-104.6c0.1-11.7,0.1-23.9,0.1-35.7    V13.9H250.5V487.7z" id="XMLID_2768_"/></g><g id="XMLID_1924_"><path d="M244.8,493.4H50c-2.2,0-3.9-1.8-3.9-3.9V97.2c0-2.2,1.8-3.9,3.9-3.9h194.8c2.2,0,3.9,1.8,3.9,3.9v392.3    C248.7,491.7,247,493.4,244.8,493.4z M54,485.6h186.9V101.1H54V485.6z" id="XMLID_2690_"/></g><g id="XMLID_1923_"><path d="M194.3,176.5c-6.4,0-12.7-0.3-19.1-1c-0.8-0.1-2-0.2-3.1-0.8c-0.2-0.1-0.4-0.2-0.6-0.3    c-3.7-2.5-3.6-10.6-2.2-25.6c0.1-1.5,0.3-2.9,0.3-3.5c0.1-2.3,0.2-4.1,0.4-5.9c0.2-3.1,0.4-5.8,0.3-9.7    c-0.2-5.2,0.8-10.6,9.6-10.9c7.3-0.3,14.7-0.3,22-0.2c0.9,0,2.3,0,3.9-0.1c7.6-0.4,13.6-0.4,16.8,2.2c5,4.2,4.3,14.6,3.8,21.4    c-0.1,1-0.1,1.9-0.2,2.7c-0.1,3.7-0.4,7-0.6,10.2c-0.3,4.2-0.6,8.2-0.7,12.8c-0.1,7-2.5,7.8-8.7,8.1l-0.1,0    C208.5,176.2,201.4,176.5,194.3,176.5z M175,169.4c0.3,0.1,0.7,0.1,0.9,0.1c12.8,1.5,25.6,1,39.8,0.3l0.1,0c1.1-0.1,2.3-0.1,3-0.2    c0-0.4,0.1-1,0.1-2.1c0.1-4.8,0.4-8.8,0.7-13.2c0.2-3.2,0.5-6.4,0.6-10c0-0.8,0.1-1.8,0.2-2.8c0.3-4.3,1-14.2-1.7-16.5    c-1.6-1.4-9.4-1-12.7-0.8c-1.7,0.1-3.2,0.2-4.3,0.1c-7.2-0.2-14.4-0.1-21.6,0.2c-3.6,0.1-4.1,0.4-3.9,4.8    c0.2,4.3-0.1,7.2-0.3,10.4c-0.1,1.7-0.3,3.5-0.4,5.7c0,0.8-0.2,2.1-0.3,3.8C174.2,160.8,174.1,167.5,175,169.4z" id="XMLID_2687_"/></g><g id="XMLID_1912_"><path d="M105,180.2c-6.4,0-12.7-0.3-19.1-1c-0.8-0.1-2-0.2-3.1-0.8c-0.2-0.1-0.4-0.2-0.6-0.3    c-3.7-2.5-3.6-10.6-2.2-25.6c0.1-1.5,0.3-2.9,0.3-3.5c0.1-2.3,0.2-4.1,0.4-5.9c0.2-3.1,0.4-5.8,0.3-9.7    c-0.2-5.2,0.8-10.6,9.6-10.9c7.3-0.3,14.7-0.3,22-0.2c0.9,0,2.3,0,3.9-0.1c7.6-0.4,13.6-0.4,16.8,2.2c5,4.2,4.3,14.6,3.8,21.4    c-0.1,1-0.1,1.9-0.2,2.7c-0.1,3.7-0.4,7-0.6,10.2c-0.3,4.2-0.6,8.2-0.7,12.8c-0.1,7-2.5,7.8-8.7,8.1l-0.1,0    C119.2,179.9,112,180.2,105,180.2z M85.7,173.2c0.3,0.1,0.7,0.1,0.9,0.1c12.8,1.5,25.6,1,39.8,0.3l0.1,0c1.1-0.1,2.3-0.1,3-0.2    c0-0.4,0.1-1,0.1-2.1c0.1-4.8,0.4-8.8,0.7-13.2c0.2-3.2,0.5-6.4,0.6-10c0-0.8,0.1-1.8,0.2-2.8c0.3-4.3,1-14.2-1.7-16.5    c-1.6-1.4-9.4-1-12.7-0.8c-1.7,0.1-3.2,0.2-4.3,0.1c-7.2-0.2-14.4-0.1-21.6,0.2c-3.6,0.1-4.1,0.4-3.9,4.8    c0.2,4.3-0.1,7.2-0.3,10.4c-0.1,1.7-0.3,3.5-0.4,5.7c0,0.8-0.2,2.1-0.3,3.8C84.8,164.5,84.7,171.3,85.7,173.2z" id="XMLID_2675_"/></g><g id="XMLID_1901_"><path d="M194.3,253.4c-6.4,0-12.7-0.3-19.1-1c-0.8-0.1-2-0.2-3.1-0.8l0,0c-0.2-0.1-0.4-0.2-0.6-0.3    c-3.7-2.5-3.6-10.6-2.2-25.6c0.1-1.5,0.3-2.9,0.3-3.5c0.1-2.3,0.2-4.1,0.4-5.9c0.2-3.1,0.4-5.8,0.3-9.7    c-0.2-5.2,0.8-10.6,9.6-10.9c7.3-0.3,14.7-0.3,22-0.2c0.9,0,2.3,0,3.9-0.1c7.6-0.4,13.6-0.4,16.8,2.2c5,4.2,4.3,14.6,3.8,21.4    c-0.1,1-0.1,1.9-0.2,2.7c-0.1,3.7-0.4,7-0.6,10.2c-0.3,4.2-0.6,8.2-0.7,12.8c-0.1,7-2.5,7.8-8.7,8.1l-0.1,0    C208.5,253.1,201.4,253.4,194.3,253.4z M175,246.4c0.3,0.1,0.7,0.1,0.9,0.1c12.8,1.5,25.6,1,39.8,0.3l0.1,0c1.1-0.1,2.3-0.1,3-0.2    c0-0.4,0.1-1,0.1-2.1c0.1-4.8,0.4-8.8,0.7-13.2c0.2-3.2,0.5-6.4,0.6-10c0-0.8,0.1-1.8,0.2-2.8c0.3-4.3,1-14.2-1.7-16.5    c-1.6-1.4-9.4-1-12.7-0.8c-1.7,0.1-3.2,0.2-4.3,0.1c-7.2-0.2-14.4-0.1-21.6,0.2c-3.6,0.1-4.1,0.4-3.9,4.8    c0.2,4.3-0.1,7.2-0.3,10.4c-0.1,1.7-0.3,3.5-0.4,5.7c0,0.8-0.2,2.1-0.3,3.8C174.2,237.7,174.1,244.5,175,246.4z" id="XMLID_2663_"/></g><g id="XMLID_1890_"><path d="M105,257.1c-6.4,0-12.7-0.3-19.1-1c-0.8-0.1-2-0.2-3.1-0.8c-0.2-0.1-0.4-0.2-0.6-0.3    c-3.7-2.5-3.6-10.6-2.2-25.6c0.1-1.5,0.3-2.9,0.3-3.5c0.1-2.3,0.2-4.1,0.4-5.9c0.2-3.1,0.4-5.8,0.3-9.7    c-0.2-5.2,0.8-10.6,9.6-10.9c7.3-0.3,14.7-0.3,22-0.2c0.9,0,2.3,0,3.9-0.1c7.6-0.4,13.6-0.4,16.8,2.2c5,4.2,4.3,14.6,3.8,21.4    c-0.1,1-0.1,1.9-0.2,2.7c-0.1,3.7-0.4,7-0.6,10.2c-0.3,4.2-0.6,8.2-0.7,12.8c-0.1,7-2.5,7.8-8.7,8.1l-0.1,0    C119.2,256.8,112,257.1,105,257.1z M85.7,250.1c0.3,0.1,0.7,0.1,0.9,0.1c12.8,1.5,25.6,1,39.8,0.3l0.1,0c1.1-0.1,2.3-0.1,3-0.2    c0-0.4,0.1-1,0.1-2.1c0.1-4.8,0.4-8.8,0.7-13.2c0.2-3.2,0.5-6.4,0.6-10c0-0.8,0.1-1.8,0.2-2.8c0.3-4.3,1-14.2-1.7-16.5    c-1.6-1.4-9.4-1-12.7-0.8c-1.7,0.1-3.2,0.2-4.3,0.1c-7.2-0.2-14.4-0.1-21.6,0.2c-3.6,0.1-4.1,0.4-3.9,4.8    c0.2,4.3-0.1,7.2-0.3,10.4c-0.1,1.7-0.3,3.5-0.4,5.7c0,0.8-0.2,2.1-0.3,3.8C84.8,241.4,84.7,248.2,85.7,250.1z" id="XMLID_2651_"/></g><g id="XMLID_1879_"><path d="M194.3,337.8c-6.4,0-12.7-0.3-19.1-1c-0.8-0.1-2-0.2-3.1-0.8l0,0c-0.2-0.1-0.4-0.2-0.6-0.3    c-3.7-2.5-3.6-10.6-2.2-25.6c0.1-1.5,0.3-2.9,0.3-3.5c0.1-2.3,0.2-4.1,0.4-5.9c0.2-3.1,0.4-5.8,0.3-9.7    c-0.2-5.2,0.8-10.6,9.6-10.9c7.3-0.3,14.7-0.3,22-0.2c0.9,0,2.3,0,3.9-0.1c7.6-0.4,13.6-0.4,16.8,2.2c5,4.2,4.3,14.6,3.8,21.4    c-0.1,1-0.1,1.9-0.2,2.7c-0.1,3.7-0.4,7-0.6,10.2c-0.3,4.2-0.6,8.2-0.7,12.8c-0.1,7-2.5,7.8-8.7,8.1l-0.1,0    C208.5,337.4,201.4,337.8,194.3,337.8z M175,330.7c0.3,0.1,0.7,0.1,0.9,0.1c12.8,1.5,25.6,1,39.8,0.3l0.1,0c1.1-0.1,2.3-0.1,3-0.2    c0-0.4,0.1-1,0.1-2.1c0.1-4.8,0.4-8.8,0.7-13.2c0.2-3.2,0.5-6.4,0.6-10c0-0.8,0.1-1.8,0.2-2.8c0.3-4.3,1-14.2-1.7-16.5    c-1.6-1.4-9.4-1-12.7-0.8c-1.7,0.1-3.2,0.2-4.3,0.1c-7.2-0.2-14.4-0.1-21.6,0.2c-3.6,0.1-4.1,0.4-3.9,4.8    c0.2,4.3-0.1,7.2-0.3,10.4c-0.1,1.7-0.3,3.5-0.4,5.7c0,0.8-0.2,2.1-0.3,3.8C174.2,322,174.1,328.8,175,330.7z" id="XMLID_2639_"/></g><g id="XMLID_1992_"><path d="M105,341.5c-6.4,0-12.7-0.3-19.1-1c-0.8-0.1-2-0.2-3.1-0.8l0,0c-0.2-0.1-0.4-0.2-0.6-0.3    c-3.7-2.5-3.6-10.6-2.2-25.6c0.1-1.5,0.3-2.9,0.3-3.5c0.1-2.3,0.2-4.1,0.4-5.9c0.2-3.1,0.4-5.8,0.3-9.7    c-0.2-5.2,0.8-10.6,9.6-10.9c7.3-0.3,14.7-0.3,22-0.2c0.9,0,2.3,0,3.9-0.1c7.6-0.4,13.6-0.4,16.8,2.2c5,4.2,4.3,14.6,3.8,21.4    c-0.1,1-0.1,1.9-0.2,2.7c-0.1,3.7-0.4,7-0.6,10.2c-0.3,4.2-0.6,8.2-0.7,12.8c-0.1,7-2.5,7.8-8.7,8.1l-0.1,0    C119.2,341.2,112,341.5,105,341.5z M85.7,334.4c0.3,0.1,0.7,0.1,0.9,0.1c12.8,1.5,25.6,1,39.8,0.3l0.1,0c1.1-0.1,2.3-0.1,3-0.2    c0-0.4,0.1-1,0.1-2.1c0.1-4.8,0.4-8.8,0.7-13.2c0.2-3.2,0.5-6.4,0.6-10c0-0.8,0.1-1.8,0.2-2.8c0.3-4.3,1-14.2-1.7-16.5    c-1.6-1.4-9.4-1-12.7-0.8c-1.7,0.1-3.2,0.2-4.3,0.1c-7.2-0.2-14.4-0.1-21.6,0.2c-3.6,0.1-4.1,0.4-3.9,4.8    c0.2,4.3-0.1,7.2-0.3,10.4c-0.1,1.7-0.3,3.5-0.4,5.7c0,0.8-0.2,2.1-0.3,3.8C84.8,325.7,84.7,332.5,85.7,334.4z" id="XMLID_2627_"/></g><g id="XMLID_1995_"><path d="M194.3,492.4H99.7c-1.6,0-3-1.3-3-3v-70.4c0-27.4,22.3-49.7,49.7-49.7h1c27.4,0,49.7,22.3,49.7,49.7    v70.4C197.2,491.1,195.9,492.4,194.3,492.4z M102.7,486.5h88.7v-67.5c0-24.2-19.7-43.8-43.8-43.8h-1c-24.2,0-43.8,19.7-43.8,43.8    V486.5z" id="XMLID_2615_"/></g><g id="XMLID_2172_"><path d="M424.9,494.6c-1.6,0-3-1.3-3-3V339.7H291.6v149.8c0,1.6-1.3,3-3,3s-3-1.3-3-3V336.8c0-1.6,1.3-3,3-3    h136.3c1.6,0,3,1.3,3,3v154.9C427.9,493.3,426.5,494.6,424.9,494.6z" id="XMLID_2767_"/></g></g></svg>