<?xml version="1.0" ?><svg id="Layer_1" style="enable-background:new 0 0 512 512;" version="1.1" viewBox="0 0 512 512" xml:space="preserve" xmlns="http://www.w3.org/2000/svg" xmlns:xlink="http://www.w3.org/1999/xlink"><g id="XMLID_8207_"><g id="XMLID_1477_"><g id="XMLID_1478_"><g id="XMLID_1480_"><path d="M256,394.3c-76.3,0-138.3-62.1-138.3-138.3S179.7,117.7,256,117.7S394.3,179.7,394.3,256      S332.3,394.3,256,394.3z M256,125.6c-71.9,0-130.4,58.5-130.4,130.4S184.1,386.4,256,386.4S386.4,327.9,386.4,256      S327.9,125.6,256,125.6z" id="XMLID_3155_"/></g></g><g id="XMLID_1481_"><path d="M187.4,137.4c-0.8,0-1.5-0.2-2.2-0.7c-6.1-4.1-9.7-10.3-13.1-16.4c-0.6-1.1-1.3-2.3-1.9-3.4     c-7.6-12.8-17.9-23.3-28.7-34.5c-7.2-7.4-14.6-15-21.1-23.2c-3.3-4.1-4.1-7.9-2.5-11.2c0.9-2,3.3-2.8,5.3-1.8     c1.9,0.9,2.8,3.3,1.8,5.2c0,0.2,0.1,1,1.6,2.9c6.2,7.9,13.5,15.4,20.5,22.6c10.7,11,21.8,22.4,29.9,36c0.7,1.2,1.4,2.3,2,3.5     c3.1,5.5,6.1,10.6,10.6,13.7c1.8,1.2,2.3,3.7,1.1,5.5C189.9,136.8,188.7,137.4,187.4,137.4z" id="XMLID_3154_"/></g><g id="XMLID_1482_"><path d="M319.4,136.4c-0.5,0-1.1-0.1-1.6-0.3c-2-0.9-2.9-3.2-2-5.2c10.2-22.8,22.5-45,36.3-65.8     c0.7-1,1.3-2,2-3c5-7.4,10.1-15.1,13.2-23.4c0.8-2,3-3.1,5.1-2.3c2,0.8,3.1,3,2.3,5.1c-3.4,9.1-8.8,17.2-14.1,25.1     c-0.7,1-1.3,2-2,2.9c-13.6,20.5-25.6,42.2-35.7,64.6C322.3,135.6,320.9,136.4,319.4,136.4z" id="XMLID_3153_"/></g><g id="XMLID_1483_"><path d="M111.9,456c-1,0-1.9-0.3-2.7-1.1c-1.6-1.5-1.7-4-0.2-5.6c4.3-4.6,8.2-8.8,11.9-12.8     c7.2-7.7,13.9-14.8,22.1-23.7c12.8-13.8,20.9-26.5,30.2-41.1l2.4-3.7c1.2-1.8,3.6-2.4,5.4-1.2c1.8,1.2,2.4,3.6,1.2,5.4l-2.4,3.7     c-9.5,15-17.7,27.9-31.1,42.3c-8.2,8.9-14.9,16-22.1,23.7c-3.8,4-7.6,8.2-11.9,12.8C114,455.6,113,456,111.9,456z" id="XMLID_3152_"/></g><g id="XMLID_1484_"><path d="M461.7,389c-0.7,0-1.4-0.2-2.1-0.6c-9.8-6.2-19.9-12.2-29.7-18.1c-4.6-2.7-9.1-5.5-13.7-8.2     c-10.9-6.6-21.6-13.8-31.9-20.8c-4.6-3.1-9.4-6.3-14.1-9.5c-1.8-1.2-2.3-3.6-1.1-5.5c1.2-1.8,3.6-2.3,5.5-1.1     c4.7,3.1,9.5,6.4,14.1,9.5c10.3,6.9,20.9,14.1,31.6,20.6c4.6,2.8,9.1,5.5,13.7,8.2c9.8,5.9,20,12,29.9,18.2     c1.8,1.2,2.4,3.6,1.2,5.4C464.2,388.4,463,389,461.7,389z" id="XMLID_3151_"/></g></g><g id="XMLID_1479_"><path d="M256,506c-66.8,0-129.6-26-176.8-73.2C32,385.6,6,322.8,6,256S32,126.4,79.2,79.2    C126.4,32,189.2,6,256,6s129.6,26,176.8,73.2C480,126.4,506,189.2,506,256s-26,129.6-73.2,176.8C385.6,480,322.8,506,256,506z     M256,13.9C122.5,13.9,13.9,122.5,13.9,256S122.5,498.1,256,498.1S498.1,389.5,498.1,256S389.5,13.9,256,13.9z" id="XMLID_3158_"/></g></g></svg>