<?xml version="1.0" ?><svg id="Layer_1" style="enable-background:new 0 0 512 512;" version="1.1" viewBox="0 0 512 512" xml:space="preserve" xmlns="http://www.w3.org/2000/svg" xmlns:xlink="http://www.w3.org/1999/xlink"><g id="XMLID_8214_"><g id="XMLID_3797_"><path d="M101.6,199c-2.2,0-3.9-1.8-3.9-3.9c0-2.2,1.7-3.9,3.9-3.9l217.7-0.7c0,0,0,0,0,0c2.2,0,3.9,1.8,3.9,3.9    c0,2.2-1.7,3.9-3.9,3.9L101.6,199C101.6,199,101.6,199,101.6,199z" id="XMLID_2494_"/></g><g id="XMLID_3798_"><path d="M99.4,227c-2.2,0-3.9-1.7-3.9-3.9c0-2.2,1.7-3.9,3.9-4l217.7-1.5c0,0,0,0,0,0c2.2,0,3.9,1.7,3.9,3.9    c0,2.2-1.7,3.9-3.9,4L99.4,227C99.4,227,99.4,227,99.4,227z" id="XMLID_2493_"/></g><g id="XMLID_3799_"><path d="M340.3,280.1c-0.3,0-0.6,0-1,0l-1.6-0.1c-12.5-0.5-22.3-10.7-22.4-23.2c0-28.6-0.1-67.4,0-90.2    c0-5.9,2.3-11.4,6.5-15.5c4.1-4,9.5-6.2,15.2-6.2c0.1,0,0.3,0,0.4,0l4.5,0.1c11.7,0.2,21.3,9.9,21.3,21.7l0.2,90.1    c0,6.4-2.5,12.4-7.1,16.8C352,277.8,346.3,280.1,340.3,280.1z M337.1,152.8c-3.6,0-7.1,1.4-9.7,4c-2.7,2.6-4.2,6.1-4.2,9.9    c0,22.8,0,61.6,0,90.2l0,0c0,8.3,6.5,15,14.8,15.4l1.6,0.1c4.2,0.2,8.2-1.4,11.3-4.3c3.1-2.9,4.7-6.9,4.7-11.1l-0.2-90.1    c0-7.5-6.1-13.7-13.6-13.8l-4.5-0.1C337.3,152.8,337.2,152.8,337.1,152.8z" id="XMLID_2490_"/></g><g id="XMLID_3800_"><path d="M377,256.2c-0.2,0-0.5,0-0.7,0l-1.1,0c-9.2-0.4-16.4-7.9-16.4-17.1v0c0-16.4,0-45,0-61.3    c0-4.3,1.7-8.4,4.8-11.4c3.1-3,7.2-4.7,11.5-4.6l3.1,0.1c8.6,0.2,15.7,7.3,15.7,16l0.2,61.3c0,4.7-1.8,9.1-5.2,12.4    C385.7,254.5,381.5,256.2,377,256.2z M366.7,239.1c0,5,3.9,9,8.9,9.2l1.1,0c2.5,0.1,4.9-0.8,6.8-2.6c1.8-1.8,2.8-4.1,2.8-6.7    l-0.2-61.3c0-4.4-3.6-8.1-8-8.1l-3.1-0.1c-2.2,0-4.3,0.8-5.9,2.3c-1.6,1.5-2.4,3.6-2.5,5.8C366.7,194.1,366.7,222.6,366.7,239.1    L366.7,239.1z" id="XMLID_2487_"/></g><g id="XMLID_3802_"><path d="M81.9,279.9c-0.1,0-0.2,0-0.3,0l-4.5-0.1c-11.7-0.1-21.3-9.8-21.5-21.5l-0.9-90.1    c-0.1-6.4,2.4-12.4,7-16.9c4.6-4.5,10.6-6.8,17-6.6l1.6,0.1c12.5,0.4,22.4,10.5,22.5,23.1l0,0c0.2,23.3,0.6,66,0.7,90.2    c0,5.9-2.2,11.4-6.4,15.5C93.1,277.7,87.7,279.9,81.9,279.9z M78,152.6c-4,0-7.8,1.5-10.8,4.4c-3,3-4.7,6.9-4.6,11.2l0.9,90.1    c0.1,7.5,6.2,13.6,13.7,13.7l4.5,0.1c3.7,0,7.3-1.4,9.9-4c2.7-2.6,4.1-6.2,4.1-9.9c-0.2-24.1-0.5-66.8-0.7-90.2l0,0    c-0.1-8.3-6.6-15-14.9-15.3l-1.6-0.1C78.4,152.6,78.2,152.6,78,152.6z" id="XMLID_2484_"/></g><g id="XMLID_3801_"><path d="M43.6,263.4c-0.1,0-0.1,0-0.2,0l-3.1,0c-8.7-0.1-15.8-7.2-15.8-15.9l-0.6-61.3c0-4.7,1.8-9.1,5.1-12.4    c3.4-3.3,7.8-5,12.5-4.9l1.1,0c9.2,0.3,16.5,7.7,16.5,16.9l0,0c0.1,16.4,0.4,45,0.5,61.3c0,4.3-1.7,8.4-4.7,11.5    C51.9,261.8,47.9,263.4,43.6,263.4z M41,176.8c-2.4,0-4.7,0.9-6.4,2.6c-1.8,1.8-2.8,4.1-2.8,6.7l0.6,61.3c0,4.4,3.7,8,8.1,8.1    l3.1,0c0,0,0.1,0,0.1,0c2.2,0,4.2-0.8,5.8-2.4c1.6-1.6,2.4-3.6,2.4-5.8c-0.1-16.3-0.3-44.9-0.5-61.3l0,0c0-5-4-9-8.9-9.1l-1.1,0    C41.2,176.8,41.1,176.8,41,176.8z" id="XMLID_2481_"/></g><g id="XMLID_4280_"><path d="M408.7,208.2C408.6,208.2,408.6,208.2,408.7,208.2l-15.9-0.3c-2.2,0-3.9-1.8-3.9-4c0-2.2,1.8-3.9,4-3.9    l15.9,0.3c2.2,0,3.9,1.8,3.9,4C412.6,206.5,410.8,208.2,408.7,208.2z" id="XMLID_2247_"/></g><g id="XMLID_4281_"><path d="M25.8,213.7C25.8,213.7,25.8,213.7,25.8,213.7l-15.9-0.3c-2.2,0-3.9-1.8-3.9-4c0-2.2,1.8-3.9,4-3.9    l15.9,0.3c2.2,0,3.9,1.8,3.9,4C29.7,212,28,213.7,25.8,213.7z" id="XMLID_2246_"/></g><g id="XMLID_14259_"><path d="M195,286.2c-2.2,0-3.9-1.8-3.9-3.9c0-2.2,1.7-3.9,3.9-4l217.7-0.7c0,0,0,0,0,0c2.2,0,3.9,1.8,3.9,3.9    c0,2.2-1.7,3.9-3.9,4L195,286.2C195,286.2,195,286.2,195,286.2z" id="XMLID_2245_"/></g><g id="XMLID_14214_"><path d="M192.8,314.2c-2.2,0-3.9-1.7-3.9-3.9c0-2.2,1.7-3.9,3.9-4l217.7-1.5c2.2,0,3.9,1.7,4,3.9    c0,2.2-1.7,3.9-3.9,4L192.8,314.2C192.9,314.2,192.9,314.2,192.8,314.2z" id="XMLID_2244_"/></g><g id="XMLID_12778_"><path d="M433.7,367.3c-0.3,0-0.6,0-1,0l-1.6-0.1c-12.5-0.5-22.3-10.7-22.4-23.2l0,0c0-28.5-0.1-67.3,0-90.2    c0-5.9,2.3-11.4,6.5-15.5c4.1-4,9.5-6.2,15.2-6.2c0.1,0,0.3,0,0.4,0l4.5,0.1c11.7,0.2,21.3,9.9,21.3,21.7l0.2,90.1    c0,6.4-2.5,12.4-7.1,16.8C445.4,365,439.7,367.3,433.7,367.3z M430.5,240c-3.6,0-7.1,1.4-9.7,4c-2.7,2.6-4.2,6.1-4.2,9.9    c0,22.8,0,61.6,0,90.2c0,8.3,6.5,15,14.8,15.4l1.6,0.1c4.2,0.2,8.2-1.4,11.3-4.3c3.1-2.9,4.7-6.9,4.7-11.1l-0.2-90.1    c0-7.5-6.1-13.7-13.6-13.8l-4.5-0.1C430.7,240,430.6,240,430.5,240z" id="XMLID_2241_"/></g><g id="XMLID_12777_"><path d="M470.4,343.3c-0.2,0-0.5,0-0.7,0l-1.1,0c-9.2-0.4-16.4-7.9-16.4-17.1l0,0c0-16.4,0-45,0-61.3    c0-4.3,1.7-8.4,4.8-11.4c3.1-3,7.2-4.7,11.5-4.6l3.1,0.1c8.6,0.2,15.7,7.3,15.7,16l0.2,61.3c0,4.7-1.8,9.1-5.2,12.4    C479.1,341.7,474.9,343.3,470.4,343.3z M468.3,256.7c-2.1,0-4.2,0.8-5.7,2.3c-1.6,1.5-2.4,3.6-2.4,5.8c0,16.3,0,44.9,0,61.3l0,0    c0,5,3.9,9,8.9,9.2l1.1,0c2.5,0.1,4.9-0.8,6.8-2.6c1.8-1.8,2.8-4.1,2.8-6.7l-0.2-61.3c0-4.4-3.6-8.1-8-8.1l-3.1-0.1    C468.4,256.7,468.3,256.7,468.3,256.7z" id="XMLID_2238_"/></g><g id="XMLID_12776_"><path d="M175.3,367c-0.1,0-0.2,0-0.3,0l-4.5-0.1c-11.7-0.1-21.3-9.8-21.5-21.5l-0.9-90.1    c-0.1-6.4,2.4-12.4,7-16.9c4.6-4.5,10.6-6.8,17-6.6l1.6,0.1c12.5,0.4,22.4,10.5,22.5,23.1v0c0.2,23.3,0.6,66,0.7,90.2    c0,5.9-2.2,11.4-6.4,15.5C186.5,364.8,181.1,367,175.3,367z M171.5,239.8c-4,0-7.8,1.5-10.8,4.4c-3,3-4.7,6.9-4.6,11.2l0.9,90.1    c0.1,7.5,6.2,13.6,13.7,13.7l4.5,0.1c0.1,0,0.1,0,0.2,0c3.7,0,7.1-1.4,9.8-4c2.7-2.6,4.1-6.2,4.1-9.9c-0.2-24.1-0.5-66.8-0.7-90.2    c-0.1-8.3-6.6-15-14.9-15.3l-1.6-0.1C171.8,239.8,171.6,239.8,171.5,239.8z" id="XMLID_2235_"/></g><g id="XMLID_12775_"><path d="M137,350.6c-0.1,0-0.1,0-0.2,0l-3.1,0c-8.7-0.1-15.8-7.2-15.8-15.9l-0.6-61.3c0-4.7,1.8-9.1,5.1-12.4    c3.4-3.3,7.8-5,12.5-4.9l1.1,0c9.2,0.3,16.5,7.7,16.5,16.9v0c0.1,16.4,0.4,45,0.5,61.3c0,4.3-1.7,8.4-4.7,11.5    C145.3,348.9,141.3,350.6,137,350.6z M134.4,264c-2.4,0-4.7,0.9-6.4,2.6c-1.8,1.8-2.8,4.1-2.8,6.7l0.6,61.3c0,4.4,3.7,8,8.1,8.1    l3.1,0c2.2,0,4.3-0.8,5.9-2.4c1.6-1.6,2.4-3.6,2.4-5.8c-0.1-16.3-0.3-44.9-0.5-61.3v0c0-5-4-9-8.9-9.1l-1.1,0    C134.6,264,134.5,264,134.4,264z" id="XMLID_2232_"/></g><g id="XMLID_12543_"><path d="M502.1,295.4C502,295.4,502,295.4,502.1,295.4l-15.9-0.3c-2.2,0-3.9-1.8-3.9-4s1.9-3.9,4-3.9l15.9,0.3    c2.2,0,3.9,1.8,3.9,4C506,293.7,504.2,295.4,502.1,295.4z" id="XMLID_1997_"/></g><g id="XMLID_12542_"><path d="M119.2,300.9C119.2,300.9,119.2,300.9,119.2,300.9l-15.9-0.3c-2.2,0-3.9-1.8-3.9-4    c0-2.2,1.8-3.9,3.9-3.9c0,0,0,0,0.1,0l15.9,0.3c2.2,0,3.9,1.8,3.9,4C123.1,299.2,121.4,300.9,119.2,300.9z" id="XMLID_1996_"/></g></g></svg>