<?xml version="1.0" ?><svg height="256px" id="Layer_1" style="enable-background:new 0 0 256 256;" version="1.1" viewBox="0 0 256 256" width="256px" xml:space="preserve" xmlns="http://www.w3.org/2000/svg" xmlns:xlink="http://www.w3.org/1999/xlink"><style type="text/css">
	.st0{fill:#E0CEBD;}
	.st1{fill:#53C3F4;}
	.st2{fill:#161616;}
	.st3{fill:#EDDCCA;}
	.st4{fill:none;stroke:#777675;stroke-linecap:round;stroke-miterlimit:10;}
	.st5{fill:#FAFCFC;}
	.st6{fill:#723D0D;}
	.st7{fill:#505151;}
	.st8{fill:#F5F7F7;}
	.st9{fill:url(#SVGID_1_);}
	.st10{fill:url(#SVGID_2_);}
	.st11{fill:#DD5050;}
	.st12{fill:#F76B6B;}
	.st13{fill:none;stroke:#F79494;stroke-width:8;stroke-linecap:round;stroke-linejoin:round;stroke-miterlimit:10;}
	.st14{fill:#E2D0C0;}
</style><g><path class="st0" d="M129.1,97L129.1,97c6.6,0,12,5.4,12,12v31.5c0,6.6-5.4,12-12,12h0c-6.6,0-12-5.4-12-12V109   C117.1,102.4,122.5,97,129.1,97z"/><path class="st1" d="M165,134v73.4l-0.1-1l-34.6,2l-4.8-0.1l-33.9-1.8l-0.1,1V134c0-5.1,5.4-9.2,12-9.2H153   C159.6,124.8,165,128.9,165,134z"/><g><g id="head_3_"><path class="st2" d="M139.4,42.5c-7-0.2-14.1-0.4-21.1-0.5c0.9-3.7-0.5-7.5-3.5-9.6c-3.9-2.8-8.3-1.2-8.7-1     c2.3-3.1,6.3-4.5,9.8-3.4c4.1,1.2,6.8,5.3,6.4,9.8c-0.2-1.1-0.8-6.3,2.6-10.9c4.8-6.5,13.1-5.9,13.6-5.9c-1,0.5-5,3-6.6,8.1     c-1.2,3.9-0.3,7.2,0.1,8.5c0.2-6.2,4.2-10.6,8.2-10.7c2.9-0.1,5.2,2.1,5.8,2.8c-2.9-0.4-5.8,0.8-7.4,3.2     C136.5,35.6,136.8,39.7,139.4,42.5z"/><ellipse class="st3" cx="128.3" cy="77.3" rx="46.1" ry="39.9"/><path class="st4" d="M146.9,98.4c-5.2,3-11.6,4.8-18.5,4.8c-7.5,0-14.5-2.1-19.9-5.6"/><g id="eye_6_"><path class="st5" d="M117.1,72.3c-0.1,1.1-0.6,7.6-4.9,9c-3.3,1.1-6.7-1.6-6.9-1.7c-2.3-2-2.8-5-3.7-11      c-0.7-4.8-0.2-5.8,0.1-6.3c1.6-2.6,5.8-3.3,8.8-2.3C115.6,61.7,117.4,68,117.1,72.3z"/><ellipse class="st6" cx="110.1" cy="72.3" rx="5.1" ry="7.4"/><ellipse class="st7" cx="110.1" cy="73.1" rx="2.3" ry="4"/><ellipse class="st8" cx="112" cy="68.9" rx="1.3" ry="1.5"/></g><g id="eye_5_"><path class="st5" d="M140.4,72.1c0.1,1.1,0.6,7.6,4.9,9c3.3,1.1,6.7-1.6,6.9-1.7c2.3-2,2.8-5,3.7-11c0.7-4.8,0.2-5.8-0.1-6.3      c-1.6-2.6-5.8-3.3-8.8-2.3C142,61.5,140.2,67.8,140.4,72.1z"/><ellipse class="st6" cx="147.5" cy="72.1" rx="5.1" ry="7.4"/><ellipse class="st7" cx="147.5" cy="72.9" rx="2.3" ry="4"/><ellipse class="st8" cx="145.5" cy="68.8" rx="1.3" ry="1.5"/></g></g><radialGradient cx="148.0773" cy="-12.7008" gradientTransform="matrix(1.1158 0 0 0.4877 -16.585 96.2799)" gradientUnits="userSpaceOnUse" id="SVGID_1_" r="10.7891"><stop offset="0" style="stop-color:#FF949D"/><stop offset="1" style="stop-color:#EDDCCA"/></radialGradient><ellipse class="st9" cx="148.6" cy="90.1" rx="16.3" ry="5.3"/><radialGradient cx="111.5818" cy="-12.7008" gradientTransform="matrix(1.1158 0 0 0.4877 -16.585 96.2799)" gradientUnits="userSpaceOnUse" id="SVGID_2_" r="10.7891"><stop offset="0" style="stop-color:#FF949D"/><stop offset="1" style="stop-color:#EDDCCA"/></radialGradient><ellipse class="st10" cx="107.9" cy="90.1" rx="16.3" ry="5.3"/></g></g><g><path class="st11" d="M205.7,175.7c-4.7,22.5-39.3,36.6-54.9,41.8c-5.3,1.8-10,4.4-13.9,7.7c-2.9,3.4-5.8,6.8-8.6,10.2   c-1.1-1.4-2.3-2.7-3.4-4.1c1.7-2.1,3.5-4.1,5.2-6.2c3.9-3.3,8.6-6,13.9-7.7c15.6-5.3,50.2-19.3,54.9-41.8   c6.1-29.2-12.1-56.7-40.6-61.4c-1.4-0.2-3.5-0.7-6.2-1c5.8-0.7,10.6,0.6,13.1,1C193.6,119.1,211.7,146.6,205.7,175.7z"/><path class="st12" d="M198.8,175.7c-4.7,22.5-39.3,36.6-54.9,41.8c-5.2,1.8-10,4.4-13.9,7.7c-1.7,2.1-3.5,4.1-5.2,6.2   c-1.7-2.1-3.5-4.1-5.2-6.2c-3.9-3.3-8.6-6-13.9-7.7c-15.6-5.3-50.2-19.3-54.9-41.8c-6.1-29.2,12.1-56.7,40.6-61.4   c1.3-0.2,3.4-0.7,6.1-1h0c3.6-0.4,8.2-0.3,13.1,1.4c6.7,2.3,11.4,6.6,14.4,10.2c1.7,2.1,2.9,4,3.5,5.1c1.6-2.9,6.8-11.6,17.2-15.3   c2.1-0.8,4.2-1.2,6.2-1.5c2.7,0.3,4.8,0.8,6.2,1C186.7,119.1,204.9,146.6,198.8,175.7z"/><path class="st13" d="M76.1,141.1c4.8-5.1,11.1-8.5,18.2-9.7c0.5-0.1,1-0.2,1.6-0.3c0.9-0.2,1.9-0.4,2.9-0.5l0.6-0.1   c0.6-0.1,1.2-0.1,1.7-0.1"/><path class="st13" d="M67.9,172.2c-1.3-6.1-1-12.1,0.6-17.7"/></g><g><g id="hand_6_"><path class="st14" d="M57.6,161.7c0,4.7-1.9,8.8-4.7,10.6c-1,0.6-2,1-3.2,1c-4.3,0-7.8-5.2-7.8-11.5s3.5-11.5,7.8-11.5    c0.3,0,0.6,0,0.9,0.1C54.5,150.8,57.6,155.7,57.6,161.7z"/><path class="st3" d="M57.6,161.7c0,4.7-1.9,8.8-4.7,10.6c-3.9-0.6-7-5.5-7-11.5c0-4.7,1.9-8.8,4.7-10.6    C54.5,150.8,57.6,155.7,57.6,161.7z"/></g><g id="hand_5_"><path class="st14" d="M199,161.7c0,4.7,1.9,8.8,4.7,10.6c1,0.6,2,1,3.2,1c4.3,0,7.8-5.2,7.8-11.5s-3.5-11.5-7.8-11.5    c-0.3,0-0.6,0-0.9,0.1C202.1,150.8,199,155.7,199,161.7z"/><path class="st3" d="M199,161.7c0,4.7,1.9,8.8,4.7,10.6c3.9-0.6,7-5.5,7-11.5c0-4.7-1.9-8.8-4.7-10.6    C202.1,150.8,199,155.7,199,161.7z"/></g></g></svg>