<?xml version="1.0" ?><svg id="Multicolor" viewBox="0 0 100 112" xmlns="http://www.w3.org/2000/svg" xmlns:xlink="http://www.w3.org/1999/xlink"><defs><style>.cls-1,.cls-12,.cls-6{fill:none;}.cls-2{fill:#fff0ed;}.cls-3{clip-path:url(#clip-path);}.cls-19,.cls-4{fill:#87898c;}.cls-13,.cls-5{fill:#656769;}.cls-12,.cls-13,.cls-19,.cls-21,.cls-6,.cls-7,.cls-8{stroke:#45413c;stroke-linejoin:round;}.cls-19,.cls-6,.cls-7,.cls-8{stroke-linecap:round;}.cls-20,.cls-7{fill:#fff;}.cls-8{fill:#ff6242;}.cls-9{fill:#ffcebf;}.cls-10{fill:#ffb59e;}.cls-11{fill:#bdbec0;}.cls-14{fill:#ffdcd1;}.cls-15{fill:#ffdf3d;}.cls-16{fill:#ffef9e;}.cls-17{fill:#f0f0f0;}.cls-18{fill:#e0e0e0;}.cls-21{fill:#ff6196;}</style><clipPath id="clip-path"><circle class="cls-1" cx="50.529" cy="56.027" r="40"/></clipPath></defs><title/><g id="Background"><g data-name="New Symbol 93" id="New_Symbol_93"><circle class="cls-2" cx="50.015" cy="56.027" r="40"/></g></g><g id="Scene"><g class="cls-3"><rect class="cls-4" height="16" width="19" x="23.03" y="83.527"/><rect class="cls-5" height="4.5" width="19" x="23.03" y="83.527"/><rect class="cls-6" height="16" width="19" x="23.03" y="83.527"/><line class="cls-6" x1="32.53" x2="32.53" y1="96.027" y2="89.027"/><path class="cls-7" d="M32.529,55.527a15.084,15.084,0,0,0-4.7.748l.041,27.252H37.2l.04-27.252A15.1,15.1,0,0,0,32.529,55.527Z"/><rect class="cls-8" height="6" width="19" x="23.03" y="77.527"/><line class="cls-6" x1="23.031" x2="42.03" y1="79.527" y2="79.527"/><line class="cls-6" x1="23.031" x2="42.061" y1="81.527" y2="81.527"/><line class="cls-6" x1="32.53" x2="32.53" y1="60.565" y2="77.527"/><path class="cls-9" d="M36.03,55.936V51.527h-7v4.409c-.3.071-.6.151-.891.24l4.39,4.389,4.39-4.389C36.627,56.087,36.33,56.007,36.03,55.936Z"/><path class="cls-10" d="M36.03,51.527h-7v4.462l1.2.356a8.1,8.1,0,0,0,4.6,0l1.2-.356Z"/><path class="cls-6" d="M36.03,55.936V51.527h-7v4.409c-.3.071-.6.151-.891.24l4.39,4.389,4.39-4.389C36.627,56.087,36.33,56.007,36.03,55.936Z"/><path class="cls-4" d="M47.53,70.642A15.021,15.021,0,0,0,37.244,56.278L35.409,68.483a57.535,57.535,0,0,0,1.878,14.074,2.08,2.08,0,0,0,.642,1.041l3.054,2.673a1.429,1.429,0,0,0,1.888.007,14.108,14.108,0,0,0,4.661-10.6V70.641Z"/><path class="cls-11" d="M47.53,73.521h0V70.641h0A15.021,15.021,0,0,0,37.244,56.278l-.413,2.75A15.02,15.02,0,0,1,47.53,73.521Z"/><path class="cls-6" d="M47.53,70.642A15.021,15.021,0,0,0,37.244,56.278L35.409,68.483a57.535,57.535,0,0,0,1.878,14.074,2.08,2.08,0,0,0,.642,1.041l3.054,2.673a1.429,1.429,0,0,0,1.888.007,14.108,14.108,0,0,0,4.661-10.6V70.641Z"/><path class="cls-5" d="M35.409,68.483A55.49,55.49,0,0,0,36.4,78.6l4.045-11.558-2.16-5.038,2.88-.72L40.6,57.86a15.056,15.056,0,0,0-3.353-1.582Z"/><path class="cls-12" d="M35.409,68.483A55.49,55.49,0,0,0,36.4,78.6l4.045-11.558-2.16-5.038,2.88-.72L40.6,57.86a15.056,15.056,0,0,0-3.353-1.582Z"/><path class="cls-6" d="M42.03,67.043l0,8.814c0,2.543-2.164,6.633-4.1,7.741"/><path class="cls-4" d="M17.53,70.642A15.021,15.021,0,0,1,27.817,56.278l1.834,12.205a57.534,57.534,0,0,1-1.877,14.074,2.08,2.08,0,0,1-.642,1.041l-3.054,2.673a1.429,1.429,0,0,1-1.888.007,14.108,14.108,0,0,1-4.661-10.6V70.641Z"/><path class="cls-11" d="M17.53,73.521h0V70.641h0A15.021,15.021,0,0,1,27.817,56.278l.413,2.75A15.021,15.021,0,0,0,17.53,73.521Z"/><path class="cls-6" d="M17.53,70.642A15.021,15.021,0,0,1,27.817,56.278l1.834,12.205a57.534,57.534,0,0,1-1.877,14.074,2.08,2.08,0,0,1-.642,1.041l-3.054,2.673a1.429,1.429,0,0,1-1.888.007,14.108,14.108,0,0,1-4.661-10.6V70.641Z"/><path class="cls-5" d="M29.651,68.483A55.489,55.489,0,0,1,28.658,78.6L24.613,67.043l2.159-5.038-2.879-.72.571-3.425a15.056,15.056,0,0,1,3.353-1.582Z"/><path class="cls-12" d="M29.651,68.483A55.489,55.489,0,0,1,28.658,78.6L24.613,67.043l2.159-5.038-2.879-.72.571-3.425a15.056,15.056,0,0,1,3.353-1.582Z"/><path class="cls-6" d="M23.03,67.043l0,8.814c0,2.543,2.164,6.633,4.1,7.741"/><path class="cls-13" d="M32.53,62.005l.84-.72a5.128,5.128,0,0,1,2.45-1.307,1.451,1.451,0,0,1,1.749,1.411v1.232a1.451,1.451,0,0,1-1.749,1.411,5.128,5.128,0,0,1-2.45-1.307Z"/><path class="cls-13" d="M32.53,62.005l-.839-.72a5.127,5.127,0,0,0-2.451-1.307,1.451,1.451,0,0,0-1.748,1.411v1.232a1.451,1.451,0,0,0,1.748,1.411,5.127,5.127,0,0,0,2.451-1.307Z"/><circle class="cls-13" cx="32.53" cy="62.005" r="1.44"/><path class="cls-9" d="M42.533,41.521v-2.5a10,10,0,0,0-20,0v2.5a2,2,0,0,0,0,4c.042,0,.081-.01.123-.013a9.987,9.987,0,0,0,19.755,0c.041,0,.08.013.122.013a2,2,0,0,0,0-4Z"/><path class="cls-14" d="M32.533,32.019a10.4,10.4,0,0,1,10,7.57v-.568a10,10,0,0,0-20,0v.567A10.4,10.4,0,0,1,32.533,32.019Z"/><path class="cls-6" d="M42.533,41.521v-2.5a10,10,0,0,0-20,0v2.5a2,2,0,0,0,0,4c.042,0,.081-.01.123-.013a9.987,9.987,0,0,0,19.755,0c.041,0,.08.013.122.013a2,2,0,0,0,0-4Z"/><circle class="cls-10" cx="26.783" cy="45.771" r="1.25"/><circle class="cls-10" cx="38.283" cy="45.771" r="1.25"/><path class="cls-6" d="M38.033,42.521a1.629,1.629,0,0,0-3.008,0"/><path class="cls-6" d="M30.025,42.521a1.63,1.63,0,0,0-3.009,0"/><path class="cls-6" d="M29.533,48.31a4.363,4.363,0,0,0,6.017,0"/><path class="cls-15" d="M41.077,31.22a1.018,1.018,0,0,1,0-.4l.387-1.937a.3.3,0,0,0-.294-.358h-.834a.3.3,0,0,1-.3-.3V26.136a.3.3,0,0,0-.47-.246,5.555,5.555,0,0,1-3.03,1.131c-1.844,0-4.781-.594-8,1a8.07,8.07,0,0,0-4,5,10.06,10.06,0,0,1,2.781-2.531c.552,1.068,3.05,2.032,5.719,2.032a9.125,9.125,0,0,0,5.4-1.573,10.039,10.039,0,0,1,3.072,3.659.178.178,0,0,0,.025-.086A21.861,21.861,0,0,0,41.077,31.22Z"/><path class="cls-16" d="M27.85,29.916c3.334-1.651,6.377-1.036,8.287-1.036a5.753,5.753,0,0,0,3.139-1.171.308.308,0,0,1,.487.255v2.159a.311.311,0,0,0,.311.311h.864a.309.309,0,0,1,.2.072l.325-1.627a.3.3,0,0,0-.294-.358h-.834a.3.3,0,0,1-.3-.3V26.136a.3.3,0,0,0-.47-.246,5.555,5.555,0,0,1-3.03,1.131c-1.844,0-4.781-.594-8,1a8.07,8.07,0,0,0-4,5c.083-.11.168-.217.255-.323A7.732,7.732,0,0,1,27.85,29.916Z"/><path class="cls-6" d="M41.077,31.22a1.018,1.018,0,0,1,0-.4l.387-1.937a.3.3,0,0,0-.294-.358h-.834a.3.3,0,0,1-.3-.3V26.136a.3.3,0,0,0-.47-.246,5.555,5.555,0,0,1-3.03,1.131c-1.844,0-4.781-.594-8,1a8.07,8.07,0,0,0-4,5,10.06,10.06,0,0,1,2.781-2.531c.552,1.068,3.05,2.032,5.719,2.032a9.125,9.125,0,0,0,5.4-1.573,10.039,10.039,0,0,1,3.072,3.659.178.178,0,0,0,.025-.086A21.861,21.861,0,0,0,41.077,31.22Z"/><line class="cls-6" x1="32.533" x2="32.533" y1="54.021" y2="52.021"/><line class="cls-6" x1="31.033" x2="31.033" y1="53.909" y2="52.021"/><line class="cls-6" x1="34.033" x2="34.033" y1="53.909" y2="52.021"/><line class="cls-6" x1="35.533" x2="35.533" y1="53.562" y2="51.521"/><line class="cls-6" x1="29.533" x2="29.533" y1="53.562" y2="51.521"/><line class="cls-6" x1="37.033" x2="37.033" y1="52.951" y2="51.021"/><line class="cls-6" x1="28.033" x2="28.033" y1="52.951" y2="51.021"/><line class="cls-6" x1="38.533" x2="38.533" y1="52.016" y2="50.021"/><line class="cls-6" x1="26.533" x2="26.533" y1="52.016" y2="50.021"/><line class="cls-6" x1="40.033" x2="40.033" y1="50.624" y2="49.021"/><line class="cls-6" x1="25.033" x2="25.033" y1="50.624" y2="49.021"/><rect class="cls-17" height="16" width="19" x="58.519" y="83.053"/><rect class="cls-18" height="4.5" width="19" x="58.519" y="83.053"/><rect class="cls-6" height="16" width="19" x="58.519" y="83.053"/><line class="cls-6" x1="68.019" x2="68.019" y1="95.553" y2="88.553"/><path class="cls-7" d="M68.017,55.053a15.084,15.084,0,0,0-4.7.748l.041,27.252h9.329L72.724,55.8A15.108,15.108,0,0,0,68.017,55.053Z"/><rect class="cls-19" height="6" width="19" x="58.519" y="77.053"/><line class="cls-6" x1="58.519" x2="77.519" y1="79.053" y2="79.053"/><line class="cls-6" x1="58.519" x2="77.549" y1="81.053" y2="81.053"/><line class="cls-6" x1="68.019" x2="68.019" y1="60.092" y2="77.053"/><path class="cls-9" d="M71.519,55.462V51.053h-7v4.409c-.3.071-.6.151-.892.24l4.39,4.39,4.39-4.39C72.115,55.613,71.818,55.533,71.519,55.462Z"/><path class="cls-10" d="M71.519,51.053h-7v4.462l1.2.356a8.1,8.1,0,0,0,4.6,0l1.2-.356Z"/><path class="cls-6" d="M71.519,55.462V51.053h-7v4.409c-.3.071-.6.151-.892.24l4.39,4.39,4.39-4.39C72.115,55.613,71.818,55.533,71.519,55.462Z"/><path class="cls-17" d="M83.019,70.168A15.021,15.021,0,0,0,72.732,55.8L70.9,68.009a57.534,57.534,0,0,0,1.877,14.074,2.08,2.08,0,0,0,.642,1.041L76.471,85.8a1.429,1.429,0,0,0,1.888.007,14.108,14.108,0,0,0,4.661-10.6V70.167Z"/><path class="cls-20" d="M83.019,73.047h0V70.167h0A15.021,15.021,0,0,0,72.732,55.8l-.413,2.75A15.021,15.021,0,0,1,83.019,73.047Z"/><path class="cls-6" d="M83.019,70.168A15.021,15.021,0,0,0,72.732,55.8L70.9,68.009a57.534,57.534,0,0,0,1.877,14.074,2.08,2.08,0,0,0,.642,1.041L76.471,85.8a1.429,1.429,0,0,0,1.888.007,14.108,14.108,0,0,0,4.661-10.6V70.167Z"/><path class="cls-4" d="M70.9,68.009a55.489,55.489,0,0,0,.993,10.118l4.045-11.558-2.159-5.038,2.879-.72-.571-3.425A15.056,15.056,0,0,0,72.732,55.8Z"/><path class="cls-12" d="M70.9,68.009a55.489,55.489,0,0,0,.993,10.118l4.045-11.558-2.159-5.038,2.879-.72-.571-3.425A15.056,15.056,0,0,0,72.732,55.8Z"/><path class="cls-6" d="M77.519,66.569v8.814c0,2.544-2.167,6.633-4.1,7.741"/><path class="cls-17" d="M53.019,70.168A15.021,15.021,0,0,1,63.305,55.8l1.835,12.2a57.535,57.535,0,0,1-1.878,14.074,2.08,2.08,0,0,1-.642,1.041L59.566,85.8a1.429,1.429,0,0,1-1.888.007,14.108,14.108,0,0,1-4.661-10.6V70.167Z"/><path class="cls-20" d="M53.019,73.047h0V70.167h0A15.021,15.021,0,0,1,63.305,55.8l.413,2.75A15.02,15.02,0,0,0,53.019,73.047Z"/><path class="cls-6" d="M53.019,70.168A15.021,15.021,0,0,1,63.305,55.8l1.835,12.2a57.535,57.535,0,0,1-1.878,14.074,2.08,2.08,0,0,1-.642,1.041L59.566,85.8a1.429,1.429,0,0,1-1.888.007,14.108,14.108,0,0,1-4.661-10.6V70.167Z"/><path class="cls-4" d="M65.14,68.009a55.49,55.49,0,0,1-.994,10.118L60.1,66.569l2.16-5.038-2.88-.72.571-3.425A15.056,15.056,0,0,1,63.305,55.8Z"/><path class="cls-12" d="M65.14,68.009a55.49,55.49,0,0,1-.994,10.118L60.1,66.569l2.16-5.038-2.88-.72.571-3.425A15.056,15.056,0,0,1,63.305,55.8Z"/><path class="cls-6" d="M58.519,66.569l0,8.814c0,2.544,2.164,6.633,4.1,7.741"/><path class="cls-21" d="M68.019,61.531l.839-.72A5.127,5.127,0,0,1,71.309,59.5a1.451,1.451,0,0,1,1.748,1.411v1.232a1.451,1.451,0,0,1-1.748,1.411,5.127,5.127,0,0,1-2.451-1.307Z"/><path class="cls-21" d="M68.019,61.531l-.84-.72a5.128,5.128,0,0,0-2.45-1.307,1.451,1.451,0,0,0-1.749,1.411v1.232a1.451,1.451,0,0,0,1.749,1.411,5.128,5.128,0,0,0,2.45-1.307Z"/><circle class="cls-21" cx="68.019" cy="61.531" r="1.44"/><path class="cls-9" d="M78.03,41.027v-2.5a10,10,0,0,0-20,0v2.5a2,2,0,0,0,0,4c.042,0,.082-.01.123-.013a9.987,9.987,0,0,0,19.755,0c.041,0,.08.013.122.013a2,2,0,0,0,0-4Z"/><path class="cls-6" d="M78.03,41.027v-2.5a10,10,0,0,0-20,0v2.5a2,2,0,0,0,0,4c.042,0,.082-.01.123-.013a9.987,9.987,0,0,0,19.755,0c.041,0,.08.013.122.013a2,2,0,0,0,0-4Z"/><circle class="cls-10" cx="62.28" cy="45.277" r="1.25"/><circle class="cls-10" cx="73.78" cy="45.277" r="1.25"/><path class="cls-6" d="M65.022,47.816a4.363,4.363,0,0,0,6.017,0"/><path class="cls-6" d="M73.53,42.027a1.629,1.629,0,0,0-3.008,0"/><path class="cls-6" d="M65.522,42.027a1.629,1.629,0,0,0-3.008,0"/><path class="cls-15" d="M79.031,35.569v4.47a.992.992,0,0,1-.99.99A1.018,1.018,0,0,1,77.031,40a6.483,6.483,0,0,0-3.84-5.9,9.579,9.579,0,0,1-3.66.93h-.07a2.463,2.463,0,0,1-.93,2,2.734,2.734,0,0,1-2.24.76.5.5,0,0,1-.34-.76,1.8,1.8,0,0,0,.08-1.5c-.5-1.46-2.5-1.5-2.5-1.5l-.66.07a6.483,6.483,0,0,0-3.84,5.9,1.018,1.018,0,0,1-1.01,1.03.992.992,0,0,1-.99-.99v-4.47a6.545,6.545,0,0,1,2.21-4.9,1.1,1.1,0,0,0,.35-.63c.45-2.25,4.06-4.01,8.44-4.01s7.98,1.76,8.44,4.01a1.1,1.1,0,0,0,.35.63A6.545,6.545,0,0,1,79.031,35.569Z"/><path class="cls-6" d="M69.461,35.029c-.03-.83-.51-1.5-.93-1.5"/><path class="cls-16" d="M76.817,30.67a1.112,1.112,0,0,1-.343-.629c-.458-2.257-4.06-4.014-8.444-4.014s-7.985,1.757-8.443,4.014a1.112,1.112,0,0,1-.343.629,6.515,6.515,0,0,0-2.214,4.9v2.5a6.515,6.515,0,0,1,2.214-4.9,1.112,1.112,0,0,0,.343-.629c.458-2.257,4.06-4.014,8.443-4.014s7.986,1.757,8.444,4.014a1.112,1.112,0,0,0,.343.629,6.514,6.514,0,0,1,2.213,4.9v-2.5A6.514,6.514,0,0,0,76.817,30.67Z"/><path class="cls-6" d="M79.031,35.569v4.47a.992.992,0,0,1-.99.99A1.018,1.018,0,0,1,77.031,40a6.483,6.483,0,0,0-3.84-5.9,9.579,9.579,0,0,1-3.66.93h-.07a2.463,2.463,0,0,1-.93,2,2.734,2.734,0,0,1-2.24.76.5.5,0,0,1-.34-.76,1.8,1.8,0,0,0,.08-1.5c-.5-1.46-2.5-1.5-2.5-1.5l-.66.07a6.483,6.483,0,0,0-3.84,5.9,1.018,1.018,0,0,1-1.01,1.03.992.992,0,0,1-.99-.99v-4.47a6.545,6.545,0,0,1,2.21-4.9,1.1,1.1,0,0,0,.35-.63c.45-2.25,4.06-4.01,8.44-4.01s7.98,1.76,8.44,4.01a1.1,1.1,0,0,0,.35.63A6.545,6.545,0,0,1,79.031,35.569Z"/></g></g></svg>