<?xml version="1.0" ?><svg id="Multicolor" viewBox="0 0 100 112" xmlns="http://www.w3.org/2000/svg"><defs><style>.cls-1{fill:#fff0ed;}.cls-2,.cls-3{fill:#dea47a;}.cls-2,.cls-5{stroke:#45413c;stroke-linecap:round;stroke-linejoin:round;}.cls-4{fill:#f0c2a1;}.cls-5{fill:none;}.cls-6{fill:#9f5ae5;}.cls-7{fill:#2d86fa;}.cls-8{fill:#ff6196;}.cls-9{fill:#45413c;fill-opacity:0.15;}</style></defs><title/><g id="Scene"><g data-name="New Symbol 1" id="New_Symbol_1-35"><circle class="cls-1" cx="50.086" cy="55.806" r="40"/></g><path class="cls-2" d="M46.785,75.76A1.834,1.834,0,1,1,43.3,76.9L29.406,34.536l3.487-1.144Z"/><path class="cls-3" d="M33.493,29.334a3.67,3.67,0,1,1-4.63-2.344A3.67,3.67,0,0,1,33.493,29.334Z"/><path class="cls-4" d="M26.582,31.8a3.669,3.669,0,0,1,6.848,0,3.669,3.669,0,1,0-6.911-.175C26.539,31.68,26.559,31.738,26.582,31.8Z"/><path class="cls-5" d="M33.493,29.334a3.67,3.67,0,1,1-4.63-2.344A3.67,3.67,0,0,1,33.493,29.334Z"/><path class="cls-6" d="M72.689,48.761a1.835,1.835,0,0,0-2.315-1.172l-12.2,4a3.67,3.67,0,0,1-4.631-2.343,3.669,3.669,0,0,0-4.63-2.344L34.962,51.477l-2.456-7.488,13.947-4.573a3.67,3.67,0,0,1,4.631,2.343,3.669,3.669,0,0,0,4.63,2.344l12.2-4a1.835,1.835,0,0,1,2.315,1.171Z"/><path class="cls-7" d="M37.981,60.687l13.948-4.574a3.671,3.671,0,0,1,4.631,2.344A3.67,3.67,0,0,0,61.19,60.8c7.584-2.488,4.785-1.57,12.2-4h0a1.836,1.836,0,0,0,1.171-2.315l-1.877-5.722a1.835,1.835,0,0,0-2.315-1.172l-12.2,4a3.671,3.671,0,0,1-4.631-2.343,3.669,3.669,0,0,0-4.63-2.344L34.962,51.477Z"/><path class="cls-8" d="M29.406,34.535l13.948-4.573a3.67,3.67,0,0,1,4.63,2.343,3.669,3.669,0,0,0,4.63,2.344l12.2-4a1.835,1.835,0,0,1,2.315,1.172l3.1,9.454A1.835,1.835,0,0,0,67.918,40.1l-12.2,4a3.669,3.669,0,0,1-4.63-2.344,3.67,3.67,0,0,0-4.631-2.343L32.506,43.989Z"/><path class="cls-5" d="M56.559,58.457a3.669,3.669,0,0,0-4.63-2.344L37.982,60.687,29.406,34.536l13.947-4.574a3.67,3.67,0,0,1,4.631,2.344Z"/><path class="cls-5" d="M47.984,32.306a3.67,3.67,0,0,0,4.63,2.343l12.2-4a1.835,1.835,0,0,1,2.315,1.172l7.433,22.664A1.836,1.836,0,0,1,73.394,56.8l-12.2,4a3.67,3.67,0,0,1-4.631-2.343Z"/><ellipse class="cls-9" cx="50.085" cy="82.731" rx="15.525" ry="1.725"/></g></svg>