<?xml version="1.0" ?><svg id="Multicolor" viewBox="0 0 100 112" xmlns="http://www.w3.org/2000/svg" xmlns:xlink="http://www.w3.org/1999/xlink"><defs><style>.cls-1,.cls-6{fill:none;}.cls-2{fill:#fff0ed;}.cls-3{clip-path:url(#clip-path);}.cls-4{fill:#614b44;}.cls-5{fill:#947063;}.cls-11,.cls-12,.cls-13,.cls-14,.cls-6,.cls-7,.cls-9{stroke:#45413c;stroke-linecap:round;stroke-linejoin:round;}.cls-10,.cls-7{fill:#ffda8f;}.cls-8{fill:#ffbe3d;}.cls-9{fill:#fff;}.cls-11{fill:#f7e5c6;}.cls-12{fill:#6dd627;}.cls-13{fill:#ff8a14;}.cls-14{fill:#ff6242;}</style><clipPath id="clip-path"><circle class="cls-1" cx="50.499" cy="55.977" r="40"/></clipPath></defs><title/><g id="Background"><g data-name="New Symbol 93" id="New_Symbol_93-6"><circle class="cls-2" cx="49.986" cy="55.978" r="40"/></g></g><g id="Scene"><g class="cls-3"><path class="cls-4" d="M47.686,52.023a9.013,9.013,0,0,1-1.359-4.978c0-12.036-2.212-21.192-13.827-21.192S18.674,35.009,18.674,47.045a9.013,9.013,0,0,1-1.359,4.978,2,2,0,0,0,1.318,3,17.1,17.1,0,0,0,10.344-.758V50.054h7v4.211a17.278,17.278,0,0,0,10.39.758,2,2,0,0,0,1.319-3Z"/><path class="cls-5" d="M32.5,30.375c9.087,0,12.6,5.429,13.767,13.466-.42-10.42-3.207-17.988-13.767-17.988S19.153,33.421,18.734,43.841C19.9,35.8,23.413,30.375,32.5,30.375Z"/><path class="cls-6" d="M47.686,52.023a9.013,9.013,0,0,1-1.359-4.978c0-12.036-2.212-21.192-13.827-21.192S18.674,35.009,18.674,47.045a9.013,9.013,0,0,1-1.359,4.978,2,2,0,0,0,1.318,3,17.1,17.1,0,0,0,10.344-.758V50.054h7v4.211a17.278,17.278,0,0,0,10.39.758,2,2,0,0,0,1.319-3Z"/><path class="cls-7" d="M42.5,41.918s.009-2.784,0-2.949c-3,0-3.348-1.486-3.348-4.407-1.2,1.8-4.245,2.407-6.652,2.407s-5.448-.6-6.651-2.407c0,2.921-.352,4.4-3.349,4.407-.008.165,0,2.949,0,2.949a2,2,0,0,0,0,4c.042,0,.081-.01.123-.013a9.978,9.978,0,0,0,19.755,0c.041,0,.08.013.122.013a2,2,0,0,0,0-4Z"/><circle class="cls-8" cx="26.75" cy="45.726" r="1.25"/><circle class="cls-8" cx="38.25" cy="45.726" r="1.25"/><path class="cls-6" d="M29.492,48.266a4.363,4.363,0,0,0,6.017,0"/><path class="cls-6" d="M30,42.476a1.629,1.629,0,0,0-3.008,0"/><path class="cls-6" d="M38.009,42.469a1.63,1.63,0,0,0-3.009,0"/><path class="cls-9" d="M45.425,100.481a6.666,6.666,0,0,0,.074-1c0-12-5-15.5-5-15.5h-16s-5,3.5-5,15.5a7.721,7.721,0,0,0,.069,1Z"/><path class="cls-9" d="M39.793,64.622a5.853,5.853,0,0,0-7.316,1.349,5.853,5.853,0,0,0-7.316-1.349,2.037,2.037,0,0,0-.978.939c-1.282,2.613-2.584,5.8-1.2,7.907,0,0,2,2,2,10.5s15,8.5,15,0,2-10.5,2-10.5c1.382-2.108.081-5.294-1.2-7.907A2.034,2.034,0,0,0,39.793,64.622Z"/><path class="cls-10" d="M35.977,55.911V53.835a9.993,9.993,0,0,1-7,0v2.076a14.493,14.493,0,0,0-11,14.057v5c0,.084.047,3.5.047,3.5a10.491,10.491,0,0,0,5.354,8.475l4.885,2.713a2.5,2.5,0,1,0,2.428-4.371l-4.885-2.713a5.505,5.505,0,0,1-2.828-4.785V73.471h0v0c-1.383-2.108-.081-5.294,1.2-7.907a2.037,2.037,0,0,1,.978-.939,5.853,5.853,0,0,1,7.316,1.349,5.853,5.853,0,0,1,7.316-1.349,2.034,2.034,0,0,1,.977.939c1.283,2.613,2.584,5.8,1.2,7.907v0h.006l0,4.313a5.5,5.5,0,0,1-2.827,4.788l-4.885,2.713a2.5,2.5,0,1,0,2.428,4.371l4.884-2.713a10.489,10.489,0,0,0,5.354-8.475,31.314,31.314,0,0,0,.048-3.5v-5A14.493,14.493,0,0,0,35.977,55.911Z"/><path class="cls-9" d="M30.977,62.471a4.177,4.177,0,0,1,1.5,3.5"/><path class="cls-9" d="M33.977,62.471a4.177,4.177,0,0,0-1.5,3.5"/><path class="cls-8" d="M32.477,54.468a9.951,9.951,0,0,1-3.5-.633v2.119a12.173,12.173,0,0,0,7,0V53.835A9.955,9.955,0,0,1,32.477,54.468Z"/><path class="cls-6" d="M35.977,55.911V53.835a9.993,9.993,0,0,1-7,0v2.076a14.493,14.493,0,0,0-11,14.057v5c0,.084.047,3.5.047,3.5a10.491,10.491,0,0,0,5.354,8.475l4.885,2.713a2.5,2.5,0,1,0,2.428-4.371l-4.885-2.713a5.505,5.505,0,0,1-2.828-4.785V73.471h0v0c-1.383-2.108-.081-5.294,1.2-7.907a2.037,2.037,0,0,1,.978-.939,5.853,5.853,0,0,1,7.316,1.349,5.853,5.853,0,0,1,7.316-1.349,2.034,2.034,0,0,1,.977.939c1.283,2.613,2.584,5.8,1.2,7.907v0h.006l0,4.313a5.5,5.5,0,0,1-2.827,4.788l-4.885,2.713a2.5,2.5,0,1,0,2.428,4.371l4.884-2.713a10.489,10.489,0,0,0,5.354-8.475,31.314,31.314,0,0,0,.048-3.5v-5A14.493,14.493,0,0,0,35.977,55.911Z"/><path class="cls-9" d="M76.048,65.069a2.043,2.043,0,0,0-.978-.94,5.853,5.853,0,0,0-7.316,1.349,5.853,5.853,0,0,0-7.316-1.349,2.039,2.039,0,0,0-.978.94c-1.282,2.613-2.583,5.8-1.2,7.907,0,0,1.995,2,1.995,10.5,0,4.25,3.75,6.375,7.5,6.375s7.5-2.125,7.5-6.375c0-8.5,1.995-10.5,1.995-10.5C78.631,70.867,77.33,67.682,76.048,65.069Z"/><path class="cls-9" d="M80.68,99.978a6.656,6.656,0,0,0,.074-1c0-12-5-15.5-5-15.5h-16s-5,3.5-5,15.5a7.9,7.9,0,0,0,.068,1Z"/><path class="cls-11" d="M71.945,78.978H63.563a1,1,0,0,0-.847,1.532l1.261,2.009a7.994,7.994,0,0,1,1.631,4.213l.595,7.6a.3.3,0,0,0,.511.189l1.81-1.809a3.005,3.005,0,0,0,.856-1.755l.52-4.222a7.994,7.994,0,0,1,1.631-4.213l1.261-2.009A1,1,0,0,0,71.945,78.978Z"/><path class="cls-12" d="M65.5,78.978a10.993,10.993,0,0,1,1.582,5.043.3.3,0,0,0,.511.222c1.518-1.687.907-5.265.907-5.265Z"/><path class="cls-13" d="M67.782,86.645s4.03,4.163,4.139,7.279a.3.3,0,0,0,.535.167c.215-.288.4-.541.552-.76a2.944,2.944,0,0,0,.316-2.852A6.409,6.409,0,0,0,67.782,86.645Z"/><path class="cls-13" d="M67.782,86.645s-4.03,4.163-4.139,7.279a.3.3,0,0,1-.535.167c-.215-.288-.4-.541-.552-.76a2.944,2.944,0,0,1-.316-2.852A6.409,6.409,0,0,1,67.782,86.645Z"/><path class="cls-10" d="M71.254,55.419V53.342a9.978,9.978,0,0,1-7,0v2.077a14.493,14.493,0,0,0-11,14.057v5c0,.085.047,3.5.047,3.5a10.49,10.49,0,0,0,5.354,8.474l4.885,2.714a2.5,2.5,0,1,0,2.428-4.371l-4.885-2.714a5.505,5.505,0,0,1-2.828-4.785V72.978h.005v0c-1.382-2.109-.081-5.294,1.2-7.907a2.039,2.039,0,0,1,.978-.94,5.853,5.853,0,0,1,7.316,1.349,5.853,5.853,0,0,1,7.316-1.349,2.043,2.043,0,0,1,.978.94c1.282,2.613,2.583,5.8,1.2,7.907v0h.005l0,4.314a5.5,5.5,0,0,1-2.827,4.787L69.54,84.793a2.5,2.5,0,0,0,2.428,4.371l4.885-2.714a10.49,10.49,0,0,0,5.354-8.474,31.851,31.851,0,0,0,.047-3.5v-5A14.493,14.493,0,0,0,71.254,55.419Z"/><path class="cls-9" d="M66.254,61.978a4.177,4.177,0,0,1,1.5,3.5"/><path class="cls-9" d="M69.254,61.978a4.177,4.177,0,0,0-1.5,3.5"/><path class="cls-12" d="M71,78.978a18.069,18.069,0,0,1,2.355,4.542.3.3,0,0,0,.571.016,18.587,18.587,0,0,0,.574-4.558Z"/><path class="cls-12" d="M62,78.978s-1.125,1.437-.329,4.647a.3.3,0,0,0,.569.06A26.035,26.035,0,0,1,65,78.978Z"/><ellipse class="cls-14" cx="64.254" cy="77.203" rx="2.75" ry="2.475"/><path class="cls-6" d="M66.948,76.7a1.728,1.728,0,0,1-1.694,1.178A1.669,1.669,0,0,1,63.5,76.3a1.616,1.616,0,0,1,1.313-1.525"/><ellipse class="cls-14" cx="71.754" cy="77.203" rx="2.75" ry="2.475"/><path class="cls-6" d="M69.06,77.706a1.728,1.728,0,0,1,1.694-1.178A1.67,1.67,0,0,1,72.5,78.1a1.617,1.617,0,0,1-1.313,1.526"/><ellipse class="cls-14" cx="68.254" cy="77.203" rx="2.75" ry="2.475"/><path class="cls-6" d="M70.948,76.7a1.728,1.728,0,0,1-1.694,1.178A1.669,1.669,0,0,1,67.5,76.3a1.616,1.616,0,0,1,1.313-1.525"/><ellipse class="cls-14" cx="70.534" cy="73.266" rx="2.75" ry="2.475"/><path class="cls-6" d="M67.84,73.769a1.728,1.728,0,0,1,1.694-1.178,1.669,1.669,0,0,1,1.75,1.575,1.616,1.616,0,0,1-1.313,1.525"/><ellipse class="cls-14" cx="66.004" cy="73.266" rx="2.75" ry="2.475"/><path class="cls-6" d="M68.7,72.763A1.73,1.73,0,0,1,67,73.941a1.669,1.669,0,0,1-1.75-1.575,1.617,1.617,0,0,1,1.313-1.526"/><path class="cls-8" d="M67.754,53.976a9.956,9.956,0,0,1-3.5-.634v2.12a12.173,12.173,0,0,0,7,0v-2.12A9.956,9.956,0,0,1,67.754,53.976Z"/><path class="cls-6" d="M71.254,55.419V53.342a9.978,9.978,0,0,1-7,0v2.077a14.493,14.493,0,0,0-11,14.057v5c0,.085.047,3.5.047,3.5a10.49,10.49,0,0,0,5.354,8.474l4.885,2.714a2.5,2.5,0,1,0,2.428-4.371l-4.885-2.714a5.505,5.505,0,0,1-2.828-4.785V72.978h.005v0c-1.382-2.109-.081-5.294,1.2-7.907a2.039,2.039,0,0,1,.978-.94,5.853,5.853,0,0,1,7.316,1.349,5.853,5.853,0,0,1,7.316-1.349,2.043,2.043,0,0,1,.978.94c1.282,2.613,2.583,5.8,1.2,7.907v0h.005l0,4.314a5.5,5.5,0,0,1-2.827,4.787L69.54,84.793a2.5,2.5,0,0,0,2.428,4.371l4.885-2.714a10.49,10.49,0,0,0,5.354-8.474,31.851,31.851,0,0,0,.047-3.5v-5A14.493,14.493,0,0,0,71.254,55.419Z"/><path class="cls-7" d="M77.754,41.478v-2.5a10,10,0,1,0-20,0v2.5a2,2,0,0,0,0,4c.042,0,.081-.009.123-.012a9.986,9.986,0,0,0,19.754,0c.042,0,.081.012.123.012a2,2,0,0,0,0-4Z"/><circle class="cls-8" cx="62.004" cy="45.728" r="1.25"/><circle class="cls-8" cx="73.504" cy="45.728" r="1.25"/><path class="cls-6" d="M70.754,48.268a4.324,4.324,0,0,1-6,0"/><path class="cls-6" d="M65.254,42.478a1.625,1.625,0,0,0-3,0"/><path class="cls-6" d="M73.254,42.478a1.625,1.625,0,0,0-3,0"/><path class="cls-4" d="M82.218,42.133a3.716,3.716,0,0,0-2.594-5.592,11.951,11.951,0,0,0-23.74,0,3.716,3.716,0,0,0-2.594,5.592,5.243,5.243,0,1,0,3.2,9.949,4.234,4.234,0,0,0,7.448,1.143,10.014,10.014,0,0,1-6.069-7.757c-.04,0-.08.01-.12.01a2,2,0,0,1,0-4s2.5-3.56,5-3.03,3.906.14,5.812-2.532A8.117,8.117,0,0,1,72.927,32.7a1.174,1.174,0,0,1,1.446.975,17.745,17.745,0,0,0,3.381,7.806,2,2,0,0,1,0,4c-.04,0-.08-.01-.12-.01a10.014,10.014,0,0,1-6.069,7.757,4.234,4.234,0,0,0,7.448-1.143,5.243,5.243,0,1,0,3.2-9.949Z"/><path class="cls-5" d="M82.754,43.728a3.72,3.72,0,0,1-.536,1.905,5.264,5.264,0,0,1,3.736,3.347,5.238,5.238,0,0,0-3.534-6.794A3.712,3.712,0,0,1,82.754,43.728Z"/><path class="cls-5" d="M53.29,45.633a3.685,3.685,0,0,1-.2-3.447,5.238,5.238,0,0,0-3.534,6.794A5.264,5.264,0,0,1,53.29,45.633Z"/><path class="cls-5" d="M55.884,40.041a11.951,11.951,0,0,1,23.74,0,3.76,3.76,0,0,1,2.688,1.924,3.689,3.689,0,0,0,.442-1.737,3.743,3.743,0,0,0-3.13-3.687,11.951,11.951,0,0,0-23.74,0,3.742,3.742,0,0,0-3.13,3.687,3.689,3.689,0,0,0,.442,1.737A3.76,3.76,0,0,1,55.884,40.041Z"/><path class="cls-6" d="M82.218,42.133a3.716,3.716,0,0,0-2.594-5.592,11.951,11.951,0,0,0-23.74,0,3.716,3.716,0,0,0-2.594,5.592,5.243,5.243,0,1,0,3.2,9.949,4.234,4.234,0,0,0,7.448,1.143,10.014,10.014,0,0,1-6.069-7.757c-.04,0-.08.01-.12.01a2,2,0,0,1,0-4s2.5-3.56,5-3.03,3.906.14,5.812-2.532A8.117,8.117,0,0,1,72.927,32.7a1.174,1.174,0,0,1,1.446.975,17.745,17.745,0,0,0,3.381,7.806,2,2,0,0,1,0,4c-.04,0-.08-.01-.12-.01a10.014,10.014,0,0,1-6.069,7.757,4.234,4.234,0,0,0,7.448-1.143,5.243,5.243,0,1,0,3.2-9.949Z"/><circle class="cls-9" cx="57.504" cy="45.728" r="1.25"/><circle class="cls-9" cx="78.004" cy="45.728" r="1.25"/><path class="cls-9" d="M59.46,65.069a1.937,1.937,0,0,1,.254-.388,9.805,9.805,0,0,0-1.738-1.238,10.445,10.445,0,0,0-5.007-1.6,4.253,4.253,0,0,0-2.279.394,3.528,3.528,0,0,0-1.639,2.685,8.983,8.983,0,0,0,.338,3.228c.266,1.09.7,2.318,1.757,2.7a3.27,3.27,0,0,0,2.363-.3,16.087,16.087,0,0,0,2.275-1.2,8.473,8.473,0,0,1,1.605-.9,2.7,2.7,0,0,1,.723-.158A23.6,23.6,0,0,1,59.46,65.069Z"/><path class="cls-6" d="M49.01,65.505c2.268-1.619,6.96-.926,9.9.725"/><path class="cls-6" d="M49.656,69.061a10.058,10.058,0,0,1,8.771-1.67"/><path class="cls-9" d="M76.048,65.069a1.937,1.937,0,0,0-.254-.388,9.805,9.805,0,0,1,1.738-1.238,10.445,10.445,0,0,1,5.007-1.6,4.253,4.253,0,0,1,2.279.394,3.528,3.528,0,0,1,1.639,2.685,8.961,8.961,0,0,1-.339,3.228c-.265,1.09-.7,2.318-1.757,2.7a3.267,3.267,0,0,1-2.362-.3,16.087,16.087,0,0,1-2.275-1.2,8.473,8.473,0,0,0-1.605-.9,2.71,2.71,0,0,0-.723-.158A23.6,23.6,0,0,0,76.048,65.069Z"/><path class="cls-6" d="M86.5,65.505c-2.268-1.619-6.96-.926-9.9.725"/><path class="cls-6" d="M85.851,69.061a10.056,10.056,0,0,0-8.77-1.67"/></g></g></svg>