<?xml version="1.0" ?><svg id="Multicolor" viewBox="0 0 100 112" xmlns="http://www.w3.org/2000/svg"><defs><style>.cls-1{fill:#fff0ed;}.cls-2{fill:#45413c;fill-opacity:0.15;}.cls-3{fill:#9f5ae5;}.cls-4{fill:#ff6196;}.cls-5{fill:#2d86fa;}.cls-6{fill:none;stroke:#45413c;stroke-linecap:round;stroke-linejoin:round;}</style></defs><title/><g id="Scene"><circle class="cls-1" cx="50" cy="56" r="40"/><ellipse class="cls-2" cx="50" cy="87.73" rx="15.53" ry="1.73"/><polygon class="cls-3" points="36.54 61.41 47.86 61.41 50.11 59.16 52.36 61.41 63.67 61.41 54.11 51.84 54.11 45.41 46.11 45.41 46.11 51.84 36.54 61.41"/><path class="cls-3" d="M25.7,61.41h8.63a17.63,17.63,0,0,1,.09-16H25.76a25.69,25.69,0,0,0-.06,16Z"/><path class="cls-3" d="M67.77,53.5a17.55,17.55,0,0,1-1.87,7.91h8.63a25.69,25.69,0,0,0-.06-16H65.8A17.55,17.55,0,0,1,67.77,53.5Z"/><path class="cls-4" d="M46.11,36.3v9.11h8V36.3A17.73,17.73,0,0,1,65.8,45.41h8.66a25.66,25.66,0,0,0-48.7,0h8.66A17.73,17.73,0,0,1,46.11,36.3Z"/><path class="cls-5" d="M65.09,62.83l-1.42-1.42H52.36l7.08,7.08a17.63,17.63,0,0,1-18.66,0l7.08-7.08H36.54l-1.42,1.42q-.43-.69-.8-1.42H25.7a25.7,25.7,0,0,0,6.13,10.08l.14.15.15.15a25.61,25.61,0,0,0,36,0l.16-.15.15-.16a25.69,25.69,0,0,0,6.12-10.07H65.89Q65.53,62.14,65.09,62.83Z"/><path class="cls-6" d="M68.4,71.48a25.66,25.66,0,1,0-36.57,0l.14.15.15.15a25.61,25.61,0,0,0,36,0l.16-.15Zm-.63-18a17.55,17.55,0,0,1-2.67,9.33l-11-11V36.3A17.69,17.69,0,0,1,67.77,53.5ZM46.11,36.3V51.84l-11,11a17.65,17.65,0,0,1,11-26.53ZM40.78,68.49l9.33-9.33,9.33,9.33a17.63,17.63,0,0,1-18.66,0Z"/></g></svg>