<?xml version="1.0" ?><svg id="Multicolor" viewBox="0 0 100 112" xmlns="http://www.w3.org/2000/svg"><defs><style>.cls-1{fill:#fff0ed;}.cls-2{fill:#45413c;fill-opacity:0.15;}.cls-3{fill:#ff6242;}.cls-4{fill:#ff8a14;}.cls-5{fill:#ffe500;}.cls-6{fill:#6dd627;}.cls-7{fill:#00b8f0;}.cls-8{fill:#9f5ae5;}.cls-9{fill:#ff866e;}.cls-10{fill:#ffaa54;}.cls-11{fill:none;stroke:#45413c;stroke-linecap:round;stroke-linejoin:round;}.cls-12{fill:#fff48c;}.cls-13{fill:#9ceb60;}.cls-14{fill:#4acfff;}.cls-15{fill:#bf8df2;}</style></defs><title/><g id="Scene"><circle class="cls-1" cx="50" cy="56" r="40"/><ellipse class="cls-2" cx="50" cy="85.93" rx="15.53" ry="1.73"/><path class="cls-3" d="M44.23,40.83A12.43,12.43,0,0,0,34,48.68l6.45-.92A7.43,7.43,0,0,1,49,46.55l6.45-.92A12.42,12.42,0,0,0,44.23,40.83Z"/><path class="cls-4" d="M53,52.33q0,.34,0,.68L58,52.3c0-.18,0-.35,0-.53a12.34,12.34,0,0,0-2.48-6.15L49,46.55A7.45,7.45,0,0,1,53,52.33Z"/><path class="cls-4" d="M38.21,54a7.44,7.44,0,0,1,2.28-6.24L34,48.68a12.4,12.4,0,0,0-.56,7.12l4.94-.7A7.45,7.45,0,0,1,38.21,54Z"/><path class="cls-5" d="M58,52.3l-4.94.7a7.45,7.45,0,0,1-14.64,2.09l-4.94.7a12.36,12.36,0,0,0,3.73,6.5l19-2.71A12.35,12.35,0,0,0,58,52.3Z"/><path class="cls-6" d="M49.44,65a12.43,12.43,0,0,0,6.79-5.38l-19,2.71a12.42,12.42,0,0,0,7.29,3.23l.31,2.72,4.92-.7Z"/><path class="cls-7" d="M55.24,72.07a2.48,2.48,0,0,0-2.75-2.19L50,70.16l-.29-2.6-4.92.7.28,2.46L42.63,71a2.48,2.48,0,0,0-.77,4.72l12.87-1.83A2.47,2.47,0,0,0,55.24,72.07Z"/><path class="cls-8" d="M43.18,75.93l2.47-.28L46,78.94A2.48,2.48,0,1,0,51,78.38l-.37-3.29,2.47-.28a2.48,2.48,0,0,0,1.68-.94L41.86,75.71A2.48,2.48,0,0,0,43.18,75.93Z"/><path class="cls-9" d="M47.32,40.87h0q-.5-.07-1-.1H46.1q-.46,0-.94,0l-.64,0-.29,0-.2,0H44l-.16,0h0l-.2,0h0l-.18,0h-.06l-.16,0h0l-.19,0h0l-.15,0h-.06l-.16,0h0l-.19.05h0l-.14,0-.06,0-.16,0h0l-.18.06-.06,0-.13,0-.06,0-.15.05,0,0-.16.06-.06,0-.12,0-.07,0-.13.05-.1,0-.1,0-.08,0-.09,0-.08,0-.08,0-.15.07-.08,0-.09,0-.06,0-.34.19-.06,0-.1.06,0,0-.35.22h0l-.12.08h0l-.37.26h0A12.51,12.51,0,0,0,34,48.68l1.37-.2a13.24,13.24,0,0,1,18.21-2.85l.29.21,1.56-.22A12.46,12.46,0,0,0,47.32,40.87Z"/><path class="cls-10" d="M57.68,50.23v0L57.61,50l0-.07-.07-.26,0-.09-.07-.21,0-.06L57.32,49l0-.09-.08-.22,0-.06-.1-.24,0-.07-.11-.25,0,0-.11-.23,0-.06-.13-.26v0l-.13-.24,0,0L56.37,47v0l-.15-.25v0L56,46.42v0l-.34-.5,0,0-.18-.24h0l-1.56.22A13.26,13.26,0,0,1,57.68,50.23Z"/><path class="cls-10" d="M34,48.68q-.12.3-.22.61h0q-.08.23-.14.46v0l-.05.2v0c0,.15-.08.3-.11.45v0l0,.18v.05l0,.22v0l0,.19v.07l0,.16v.07l0,.22v.05l0,.17v.31c0,.07,0,.14,0,.21v.32c0,.05,0,.1,0,.15V53a13.25,13.25,0,0,1,2.21-4.5Z"/><path class="cls-11" d="M58,51.78A12.41,12.41,0,1,0,44.51,65.53l.58,5.18L42.63,71a2.48,2.48,0,1,0,.56,4.93l2.47-.28L46,78.94A2.48,2.48,0,0,0,51,78.38l-.37-3.29,2.47-.28a2.48,2.48,0,0,0-.56-4.93L50,70.16,49.44,65A12.43,12.43,0,0,0,58,51.78ZM38.21,54a7.45,7.45,0,1,1,8.23,6.57A7.46,7.46,0,0,1,38.21,54Z"/><path class="cls-3" d="M34.71,43.87a7.41,7.41,0,0,1,2.63,1.38l7,1.7A12.41,12.41,0,0,0,24.07,42l7,1.7A7.4,7.4,0,0,1,34.71,43.87Z"/><path class="cls-4" d="M39.79,53.1l0,.1,4.83,1.17a12.35,12.35,0,0,0-.24-7.42l-7-1.7A7.46,7.46,0,0,1,39.79,53.1Z"/><path class="cls-4" d="M25.48,48.95a7.45,7.45,0,0,1,5.62-5.21l-7-1.7a12.34,12.34,0,0,0-3.36,5.53q-.14.48-.24,1l4.83,1.17A7.51,7.51,0,0,1,25.48,48.95Z"/><polygon class="cls-4" points="31.1 43.74 24.07 42.04 24.07 42.04 31.1 43.74 31.1 43.74"/><polygon class="cls-4" points="37.34 45.24 37.34 45.24 44.36 46.94 44.36 46.94 37.34 45.24"/><path class="cls-5" d="M30.56,58.18a7.46,7.46,0,0,1-5.26-8.48l-4.83-1.17a12.36,12.36,0,0,0,.84,7.56l19.08,4.61a12.35,12.35,0,0,0,4.17-6.23l0-.12-4.83-1.17A7.46,7.46,0,0,1,30.56,58.18Z"/><path class="cls-6" d="M26.86,62l-.75,2.6,4.83,1.17.69-2.39a12.44,12.44,0,0,0,8.76-2.69L21.31,56.09A12.42,12.42,0,0,0,26.86,62Z"/><path class="cls-7" d="M25.41,67,23,66.33a2.48,2.48,0,0,0-2.18,4.37l12.22,3a2.48,2.48,0,0,0-.5-4.56l-2.38-.69.76-2.62-4.83-1.17Z"/><path class="cls-8" d="M21.64,71.1l2.38.69L23.11,75a2.48,2.48,0,0,0,4.77,1.38l.92-3.18,2.38.69a2.47,2.47,0,0,0,1.88-.21l-12.22-3A2.48,2.48,0,0,0,21.64,71.1Z"/><path class="cls-9" d="M25.67,42.42a13.24,13.24,0,0,1,16.15,3.22q.35.41.66.85l1.88.45a12.48,12.48,0,0,0-3.88-5.55h0l-.12-.1h0l-.11-.09h0q-.31-.24-.65-.47h0l-.11-.07,0,0-.11-.07,0,0-.11-.07,0,0-.1-.06,0,0-.11-.06,0,0-.36-.2,0,0-.1-.05-.06,0-.09,0-.08,0-.08,0-.07,0-.09,0-.08,0-.08,0-.09,0-.08,0-.11,0-.11,0-.1,0-.08,0-.09,0-.08,0-.09,0-.08,0-.1,0-.07,0-.11,0-.06,0-.11,0-.06,0-.17-.05L35.84,39l-.07,0-.18,0-.08,0-.25-.06h0l-.22,0-.08,0-.19,0h-.06l-.25,0h0l-.22,0h-.08l-.19,0h-.06l-.25,0h-2l-.23,0h0l-.26,0h0l-.22,0h-.05l-.24,0h0l-.26,0h0l-.22,0h0l-.5.12h0l-.22.06h0l-.49.15h0l-.22.08h0L28,39.5h0l-.22.09h0l-.47.21h0l-.22.11h0l-.47.25h0l-.68.41h0q-.33.21-.65.45h0q-.32.24-.62.49h0l-.51.46Z"/><path class="cls-10" d="M44.91,52.87l0-.17v-.06l0-.18v0l0-.2h0q0-.35,0-.7h0A12.27,12.27,0,0,0,45,50v-.14l0-.21h0l0-.22h0a12.42,12.42,0,0,0-.59-2.45l-1.88-.45A13.28,13.28,0,0,1,44.9,53h0Z"/><path class="cls-10" d="M21.61,45.64a13.28,13.28,0,0,1,4.06-3.22L24.07,42l-.07.07h0q-.28.28-.55.57h0q-.27.3-.52.61h0a12.3,12.3,0,0,0-1.45,2.32Z"/><path class="cls-11" d="M44.56,54.48A12.41,12.41,0,1,0,26.86,62l-1.45,5L23,66.33a2.48,2.48,0,1,0-1.38,4.77l2.38.69L23.11,75a2.48,2.48,0,0,0,4.77,1.38l.92-3.18,2.38.69a2.48,2.48,0,0,0,1.38-4.77l-2.38-.69,1.45-5A12.43,12.43,0,0,0,44.56,54.48ZM25.48,48.95a7.45,7.45,0,1,1,5.08,9.23A7.46,7.46,0,0,1,25.48,48.95Z"/><path class="cls-3" d="M71.33,33.42h0l8.48,1.08V30.93a2.48,2.48,0,0,0-2.48-2.48H67.4a2.48,2.48,0,0,0-1.74,4.25l5.61.71Z"/><path class="cls-4" d="M66,38.79a12.4,12.4,0,0,0-10.9-1.38l17.13,2.17,2.65-2.65v3l5,.63v-6l-8.48-1.08Z"/><path class="cls-5" d="M48.55,42.63l5.86.74a7.44,7.44,0,0,1,10.71,1.36l5.86.74a12.38,12.38,0,0,0-1.51-3.18l2.72-2.72L55.06,37.41A12.48,12.48,0,0,0,48.55,42.63Z"/><path class="cls-5" d="M74.85,40.87a2.48,2.48,0,1,0,5,0v-.32l-5-.63Z"/><path class="cls-6" d="M66.57,49.14a7.43,7.43,0,0,1-.22,1.8l4.95.63A12.44,12.44,0,0,0,71,45.48l-5.86-.74A7.41,7.41,0,0,1,66.57,49.14Z"/><path class="cls-6" d="M54.41,43.38l-5.86-.74a12.33,12.33,0,0,0-1.83,5.82l4.95.63A7.44,7.44,0,0,1,54.41,43.38Z"/><path class="cls-7" d="M61.11,56.32l7.4.94a12.38,12.38,0,0,0,2.79-5.69l-4.95-.63A7.48,7.48,0,0,1,61.11,56.32Z"/><path class="cls-7" d="M51.67,49.14v-.07l-4.95-.63c0,.23,0,.46,0,.69A12.34,12.34,0,0,0,48,54.66l7.41.94A7.45,7.45,0,0,1,51.67,49.14Z"/><path class="cls-8" d="M59.12,56.59a7.4,7.4,0,0,1-3.71-1L48,54.66a12.41,12.41,0,0,0,20.5,2.6l-7.4-.94A7.42,7.42,0,0,1,59.12,56.59Z"/><path class="cls-9" d="M77.33,28.45H67.4a2.48,2.48,0,0,0-2.48,2.48v0s0,.06,0,.08v.52l0,.1v0l0,.05a2.48,2.48,0,0,1,2.34-1.65h9.93a2.48,2.48,0,0,1,2.48,2.48V30.93A2.48,2.48,0,0,0,77.33,28.45Z"/><path class="cls-10" d="M55.07,37.41l5.22.66a13.25,13.25,0,0,1,5.42.55,12.37,12.37,0,0,0-2.46-1.19l-.06,0-.06,0-.22-.07h0A12.49,12.49,0,0,0,55.07,37.41Z"/><path class="cls-12" d="M48.55,42.63l2.77.35.11-.14a13.2,13.2,0,0,1,8.85-4.77l-5.22-.66q-.39.14-.78.3A12.49,12.49,0,0,0,48.55,42.63Z"/><path class="cls-13" d="M46.73,48.45l2,.25A13.17,13.17,0,0,1,51.33,43l-2.77-.35a12.38,12.38,0,0,0-1.19,2.53l0,.12,0,.09-.08.27A12.42,12.42,0,0,0,46.73,48.45Z"/><path class="cls-14" d="M48.92,54.78l0-.14a13.31,13.31,0,0,1-.2-5.94l-2-.25a12.5,12.5,0,0,0,1,5.65v0l.07.16.17.37Z"/><path class="cls-15" d="M48,54.66a12.48,12.48,0,0,0,2.09,3,13.2,13.2,0,0,1-1.17-2.87Z"/><path class="cls-11" d="M77.33,28.45H67.4a2.48,2.48,0,1,0,0,5h3.94L66,38.79a12.42,12.42,0,1,0,3.51,3.51l5.37-5.37v3.94a2.48,2.48,0,1,0,5,0V30.93A2.48,2.48,0,0,0,77.33,28.45ZM59.12,56.59a7.45,7.45,0,1,1,7.45-7.45A7.46,7.46,0,0,1,59.12,56.59Z"/><path class="cls-4" d="M38.31,54.64c0-.21-.08-.42-.1-.64l-4.93.56v.08q.07.59.19,1.16l4.94-.7Q38.36,54.87,38.31,54.64Z"/><path class="cls-5" d="M38.42,55.09l-4.94.7a12.37,12.37,0,0,0,3.74,6.5L46.28,61l.17-.44A7.46,7.46,0,0,1,38.42,55.09Z"/><path class="cls-6" d="M39,63.64a12.37,12.37,0,0,0,5.55,1.89l.74-1.89,1-2.63L37.22,62.3A12.51,12.51,0,0,0,39,63.64Z"/><path class="cls-11" d="M33.28,54.55a12.43,12.43,0,0,0,11.23,11"/><path class="cls-11" d="M46.45,60.57A7.46,7.46,0,0,1,38.21,54"/><path class="cls-3" d="M44.23,40.83l.54,4.81v.13a7.41,7.41,0,0,1,4.24.78l6.45-.92A12.42,12.42,0,0,0,44.23,40.83Z"/><path class="cls-4" d="M53,52.33,58,51.78a12.34,12.34,0,0,0-2.47-6.14h0L49,46.55A7.45,7.45,0,0,1,53,52.33Z"/><path class="cls-9" d="M44.23,40.83l.28,2.47a13.19,13.19,0,0,1,9.12,2.34l.29.21,1.56-.22A12.42,12.42,0,0,0,44.23,40.83Z"/><path class="cls-10" d="M57.68,50.24a12.32,12.32,0,0,0-2.2-4.6h0l-1.56.22A13.26,13.26,0,0,1,57.68,50.24Z"/><path class="cls-11" d="M58,51.78A12.43,12.43,0,0,0,44.23,40.83"/><path class="cls-11" d="M44.78,45.76A7.46,7.46,0,0,1,53,52.33"/></g></svg>