<?xml version="1.0" ?><svg id="Multicolor" viewBox="0 0 100 112" xmlns="http://www.w3.org/2000/svg" xmlns:xlink="http://www.w3.org/1999/xlink"><defs><style>.cls-1,.cls-7{fill:none;}.cls-2{fill:#fff0ed;}.cls-3{clip-path:url(#clip-path);}.cls-4,.cls-9{fill:#614b44;}.cls-11,.cls-15,.cls-18,.cls-26,.cls-27,.cls-28,.cls-29,.cls-4,.cls-5,.cls-7,.cls-8{stroke:#45413c;stroke-linecap:round;stroke-linejoin:round;}.cls-14,.cls-5{fill:#ffda8f;}.cls-6{fill:#ffbe3d;}.cls-8{fill:#00dfeb;}.cls-10{fill:#947063;}.cls-11,.cls-16{fill:#fff5e3;}.cls-12,.cls-15{fill:#9f5ae5;}.cls-13{fill:#bf8df2;}.cls-17{fill:#f7e5c6;}.cls-18{fill:#b89558;}.cls-19{fill:#e04122;}.cls-20{fill:#ff6242;}.cls-21{fill:#ffe9bd;}.cls-22{fill:#f0f0f0;}.cls-23{fill:#e0e0e0;}.cls-24{fill:#ff87af;}.cls-25{fill:#ffb0ca;}.cls-26{fill:#656769;}.cls-27,.cls-32{fill:#ff8a14;}.cls-28{fill:#ffe500;}.cls-29,.cls-30{fill:#a86c4d;}.cls-31{fill:#de926a;}.cls-33{fill:#ffaa54;}</style><clipPath id="clip-path"><circle class="cls-1" cx="49.974" cy="56.15" r="40"/></clipPath></defs><title/><g id="Scene"><g data-name="New Symbol 1" id="New_Symbol_1-14"><circle class="cls-2" cx="49.975" cy="56.15" r="40"/></g><g class="cls-3"><path class="cls-4" d="M44.722,67.189a8.7,8.7,0,0,1-1.369-4.249V54.009a1.992,1.992,0,0,1-1.5.676c-.042,0-.081-.01-.123-.012a9.987,9.987,0,0,1-19.755,0c-.041,0-.08.012-.122.012a1.991,1.991,0,0,1-1.5-.678V62.94a8.713,8.713,0,0,1-1.368,4.249,1,1,0,0,0,.868,1.5h24A1,1,0,0,0,44.722,67.189Z"/><path class="cls-5" d="M41.855,50.685v-2.5a10,10,0,1,0-20,0v2.5a2,2,0,0,0,0,4c.042,0,.081-.009.122-.012a9.987,9.987,0,0,0,19.755,0c.042,0,.081.012.123.012a2,2,0,0,0,0-4Z"/><circle class="cls-6" cx="26.105" cy="54.443" r="1.25"/><circle class="cls-6" cx="37.605" cy="54.443" r="1.25"/><path class="cls-7" d="M28.846,58.185a4.363,4.363,0,0,1,6.017,0"/><path class="cls-7" d="M29.355,50.183a1.631,1.631,0,0,1-3.009,0"/><path class="cls-7" d="M37.363,50.19a1.629,1.629,0,0,1-3.008,0"/><path class="cls-8" d="M42.235,58.551l-1.254-1.775a.2.2,0,0,1,0-.231l1.254-1.775a.2.2,0,0,1,.327,0l1.256,1.775a.2.2,0,0,1,0,.231l-1.256,1.775A.2.2,0,0,1,42.235,58.551Z"/><path class="cls-8" d="M21.145,58.551l-1.254-1.775a.2.2,0,0,1,0-.231l1.254-1.775a.2.2,0,0,1,.327,0l1.256,1.775a.2.2,0,0,1,0,.231l-1.256,1.775A.2.2,0,0,1,21.145,58.551Z"/><path class="cls-9" d="M31.855,36.685a11.5,11.5,0,0,0-11.5,11.5v2.5c0,1,.824.834,1,.834a2.466,2.466,0,0,0,2.431-1.834l.149-2.614a2.6,2.6,0,0,1,2.592-2.386h0a5.944,5.944,0,0,0,5.043-2.345.33.33,0,0,1,.567,0,5.946,5.946,0,0,0,5.044,2.345h0a2.6,2.6,0,0,1,2.593,2.386l.148,2.614a2.468,2.468,0,0,0,2.432,1.834c.176,0,1,.166,1-.834v-2.5A11.5,11.5,0,0,0,31.855,36.685Z"/><path class="cls-10" d="M31.855,36.685a11.5,11.5,0,0,0-11.5,11.5v2.5a11.258,11.258,0,0,1,11.5-11,11.259,11.259,0,0,1,11.5,11v-2.5A11.5,11.5,0,0,0,31.855,36.685Z"/><path class="cls-7" d="M31.855,36.685a11.5,11.5,0,0,0-11.5,11.5v2.5c0,1,.824.834,1,.834a2.466,2.466,0,0,0,2.431-1.834l.149-2.614a2.6,2.6,0,0,1,2.592-2.386h0a5.944,5.944,0,0,0,5.043-2.345.33.33,0,0,1,.567,0,5.946,5.946,0,0,0,5.044,2.345h0a2.6,2.6,0,0,1,2.593,2.386l.148,2.614a2.468,2.468,0,0,0,2.432,1.834c.176,0,1,.166,1-.834v-2.5A11.5,11.5,0,0,0,31.855,36.685Z"/><path class="cls-5" d="M21.855,86.685h-4v14a2.5,2.5,0,0,0,5,0v-15A1,1,0,0,1,21.855,86.685Z"/><path class="cls-5" d="M41.855,86.685h4v14a2.5,2.5,0,0,1-5,0v-15A1,1,0,0,0,41.855,86.685Z"/><rect class="cls-11" height="2.536" transform="translate(40.71 195.906) rotate(180)" width="5" x="17.855" y="96.685"/><path class="cls-12" d="M31.855,65.185a15.5,15.5,0,0,0-15.5,15.5v3.134a1,1,0,0,1,.5-.134h5a1,1,0,0,1,1,1v4.5h18v-4.5a1,1,0,0,1,1-1h5a1,1,0,0,1,.5.134V80.685A15.5,15.5,0,0,0,31.855,65.185Z"/><path class="cls-13" d="M16.355,80.685a15.5,15.5,0,0,1,31,0s0-2-3-6c-2.779-3.7-6.844-6.551-11.4-.6a1.388,1.388,0,0,1-2.2,0c-4.557-5.955-8.622-3.108-11.4.6C16.355,78.685,16.355,80.685,16.355,80.685Z"/><path class="cls-7" d="M31.855,65.185a15.5,15.5,0,0,0-15.5,15.5v3.134a1,1,0,0,1,.5-.134h5a1,1,0,0,1,1,1v4.5h18v-4.5a1,1,0,0,1,1-1h5a1,1,0,0,1,.5.134V80.685A15.5,15.5,0,0,0,31.855,65.185Z"/><path class="cls-14" d="M35.355,62.554a10.022,10.022,0,0,1-7,0v3.028a15.377,15.377,0,0,0-3.217,1.13l4.033,2.365a1,1,0,0,1,.308.282L31.362,72a.6.6,0,0,0,.985,0l1.884-2.636a.989.989,0,0,1,.308-.282l4.032-2.365a15.368,15.368,0,0,0-3.216-1.13Z"/><path class="cls-6" d="M31.855,63.185a9.954,9.954,0,0,1-3.5-.631v2.131a12.5,12.5,0,0,0,7,0V62.554A9.954,9.954,0,0,1,31.855,63.185Z"/><path class="cls-7" d="M35.355,62.554a10.022,10.022,0,0,1-7,0v3.028a15.377,15.377,0,0,0-3.217,1.13l4.033,2.365a1,1,0,0,1,.308.282L31.362,72a.6.6,0,0,0,.985,0l1.884-2.636a.989.989,0,0,1,.308-.282l4.032-2.365a15.368,15.368,0,0,0-3.216-1.13Z"/><rect class="cls-15" height="3" rx="1" ry="1" width="7" x="40.855" y="83.685"/><rect class="cls-15" height="3" rx="1" ry="1" width="7" x="15.855" y="83.685"/><path class="cls-16" d="M23.355,110.685h17l.56-7.4a71.806,71.806,0,0,0-.06-11.6h-18a71.806,71.806,0,0,0-.06,11.6Z"/><path class="cls-17" d="M41.087,95.685q-.062-2-.232-4h-18q-.173,2-.232,4Z"/><path class="cls-7" d="M23.355,110.685h17l.56-7.4a71.806,71.806,0,0,0-.06-11.6h-18a71.806,71.806,0,0,0-.06,11.6Z"/><rect class="cls-18" height="2.5" width="18" x="22.855" y="89.185"/><path class="cls-7" d="M40.855,84.685V81.348a8.827,8.827,0,0,1,1-4.081h0"/><path class="cls-7" d="M22.855,84.685V81.348a8.827,8.827,0,0,0-1-4.081h0"/><path class="cls-15" d="M26.58,72.8a.866.866,0,0,0,1.162-.388l1.6-3.2a1,1,0,0,0-.173-.129l-4.033-2.365a15.522,15.522,0,0,0-3.3,2.147A13.6,13.6,0,0,0,26.58,72.8Z"/><path class="cls-15" d="M37.13,72.8a.867.867,0,0,1-1.163-.388l-1.6-3.2a1.006,1.006,0,0,1,.174-.129l4.032-2.365a15.554,15.554,0,0,1,3.3,2.147A13.6,13.6,0,0,1,37.13,72.8Z"/><path class="cls-19" d="M49.975,30.15l-3-4,.953-3.334c-.963-1.145-4.17-5.674-8.274-2.607a6.3,6.3,0,0,0-2.629,4.9c0,4.15,1.694,7.263,10.538,13.324a.778.778,0,0,0,.516.131l-1.1-4.415Z"/><path class="cls-19" d="M62.975,25.11a6.3,6.3,0,0,0-2.627-4.9c-4.07-3.042-7.117,1.3-8.347,2.692-.023-.025-.047-.054-.073-.085l-.953,3.334,3,4-3,4,1.1,4.415a.772.772,0,0,0,.359-.131C61.284,32.373,62.979,29.26,62.975,25.11Z"/><path class="cls-20" d="M39.654,22.731c3.528-2.637,6.393.339,7.739,1.954l.535-1.869c-.963-1.145-4.17-5.674-8.274-2.607a6.3,6.3,0,0,0-2.629,4.9,11.71,11.71,0,0,0,.093,1.547A6.512,6.512,0,0,1,39.654,22.731Z"/><path class="cls-20" d="M51.928,25.337c.026.031.05.06.073.086,1.23-1.4,4.277-5.735,8.347-2.692a6.51,6.51,0,0,1,2.534,3.925,11.867,11.867,0,0,0,.093-1.546,6.3,6.3,0,0,0-2.627-4.9c-4.07-3.042-7.117,1.3-8.347,2.692-.023-.025-.047-.054-.073-.085l-.953,3.334.522.7Z"/><path class="cls-7" d="M49.975,30.15l-3-4,.953-3.334c-.963-1.145-4.17-5.674-8.274-2.607a6.3,6.3,0,0,0-2.629,4.9c0,4.15,1.694,7.263,10.538,13.324a.778.778,0,0,0,.516.131l-1.1-4.415Z"/><path class="cls-7" d="M62.975,25.11a6.3,6.3,0,0,0-2.627-4.9c-4.07-3.042-7.117,1.3-8.347,2.692-.023-.025-.047-.054-.073-.085l-.953,3.334,3,4-3,4,1.1,4.415a.772.772,0,0,0,.359-.131C61.284,32.373,62.979,29.26,62.975,25.11Z"/><path class="cls-14" d="M77.663,92.729v6a2.5,2.5,0,0,0,5,0v-19a14.5,14.5,0,0,0-29,0v19a2.5,2.5,0,0,0,5,0v-6Z"/><path class="cls-21" d="M68.163,69.229a14.5,14.5,0,0,1,14.5,14.5v-4a14.5,14.5,0,0,0-29,0v4A14.5,14.5,0,0,1,68.163,69.229Z"/><path class="cls-7" d="M77.663,92.729v6a2.5,2.5,0,0,0,5,0v-19a14.5,14.5,0,0,0-29,0v19a2.5,2.5,0,0,0,5,0v-6Z"/><rect class="cls-22" height="15" width="19" x="58.663" y="92.729"/><rect class="cls-23" height="6" width="19" x="58.663" y="92.729"/><rect class="cls-7" height="15" width="19" x="58.663" y="92.729"/><line class="cls-7" x1="68.163" x2="68.163" y1="99.729" y2="107.729"/><path class="cls-24" d="M78.653,74.819c-.28-.71-1.01-2.18-1.37-3.1a10.376,10.376,0,0,1-.12-1.991V68.359a14.5,14.5,0,0,0-18,0v1.369a10.288,10.288,0,0,1-.12,1.991c-.36.92-1.09,2.39-1.37,3.1-1.14,2.84.12,4.45.99,7.52v10.39h19V82.339C78.533,79.269,79.793,77.659,78.653,74.819Z"/><path class="cls-25" d="M68.163,69.229a14.447,14.447,0,0,1,9.622,3.652c-.19-.418-.37-.827-.5-1.162a10.376,10.376,0,0,1-.12-1.991V68.359a14.5,14.5,0,0,0-18,0v1.369a10.288,10.288,0,0,1-.12,1.991c-.131.335-.311.744-.5,1.162A14.445,14.445,0,0,1,68.163,69.229Z"/><path class="cls-7" d="M78.653,74.819c-.28-.71-1.01-2.18-1.37-3.1a10.376,10.376,0,0,1-.12-1.991V68.359a14.5,14.5,0,0,0-18,0v1.369a10.288,10.288,0,0,1-.12,1.991c-.36.92-1.09,2.39-1.37,3.1-1.14,2.84.12,4.45.99,7.52v10.39h19V82.339C78.533,79.269,79.793,77.659,78.653,74.819Z"/><path class="cls-26" d="M64.176,74.091a1,1,0,0,0,1.5.415l2.489-1.777-3.5-7.075a14.387,14.387,0,0,0-3.55,1.4Z"/><path class="cls-26" d="M72.151,74.091a1,1,0,0,1-1.5.415l-2.489-1.777,3.5-7.075a14.394,14.394,0,0,1,3.551,1.4Z"/><rect class="cls-27" height="2" width="19" x="58.663" y="94.729"/><rect class="cls-28" height="2" width="3" x="66.663" y="94.729"/><polygon class="cls-14" points="71.663 63.229 64.663 63.229 64.663 65.654 68.163 72.729 71.663 65.654 71.663 63.229"/><path class="cls-6" d="M64.663,65.654a12.173,12.173,0,0,0,7,0V62.229h-7Z"/><polygon class="cls-7" points="71.663 63.229 64.663 63.229 64.663 65.654 68.163 72.729 71.663 65.654 71.663 63.229"/><path class="cls-29" d="M76.233,37.5a7.5,7.5,0,0,1,7.5,7.5v7.067A16.8,16.8,0,0,0,87.443,62.6a1,1,0,0,1-.993,1.6A13.006,13.006,0,0,1,76.233,51.5Z"/><circle class="cls-30" cx="76.483" cy="39.754" r="4.25"/><path class="cls-31" d="M75.983,37.5a4.249,4.249,0,0,1,4.247,4.217,4.2,4.2,0,0,0,.5-1.967,4.25,4.25,0,1,0-8.5,0c0,.012,0,.023,0,.034A4.232,4.232,0,0,1,75.983,37.5Z"/><circle class="cls-7" cx="76.483" cy="39.754" r="4.25"/><path class="cls-5" d="M78.233,51.729v-2.5a10,10,0,1,0-20,0v2.5a2,2,0,1,0,0,4c.042,0,.081-.01.123-.013a9.987,9.987,0,0,0,19.755,0c.041,0,.08.013.122.013a2,2,0,0,0,0-4Z"/><path class="cls-30" d="M68.233,36.5a11.694,11.694,0,0,0-11.5,11.725v4c3.017,0,7-5,7.5-9,2,3.5,12.484,9,15.5,9v-4A11.693,11.693,0,0,0,68.233,36.5Z"/><path class="cls-31" d="M68.233,36.5a11.694,11.694,0,0,0-11.5,11.725v3.5a11.5,11.5,0,1,1,23,0v-3.5A11.693,11.693,0,0,0,68.233,36.5Z"/><path class="cls-7" d="M68.233,36.5a11.694,11.694,0,0,0-11.5,11.725v4c3.017,0,7-5,7.5-9,2,3.5,12.484,9,15.5,9v-4A11.693,11.693,0,0,0,68.233,36.5Z"/><path class="cls-7" d="M58.244,55.723a2.275,2.275,0,0,1-1.959,3.409,2.25,2.25,0,1,1,.163-4.495"/><circle class="cls-6" cx="62.483" cy="55.979" r="1.25"/><circle class="cls-6" cx="73.983" cy="55.979" r="1.25"/><path class="cls-7" d="M71.233,59.729a4.321,4.321,0,0,0-6,0"/><path class="cls-32" d="M68.233,51a5,5,0,0,1-5,5H62.177a2.811,2.811,0,0,1-2.731-2.145,5.933,5.933,0,0,1,.218-3.837,2.819,2.819,0,0,1,1.512-1.491,7.782,7.782,0,0,1,4.913-.251A2.8,2.8,0,0,1,68.233,51Z"/><path class="cls-33" d="M66.089,48.28a7.789,7.789,0,0,0-4.913.251,2.819,2.819,0,0,0-1.512,1.491,5.933,5.933,0,0,0-.218,3.837,2.806,2.806,0,0,0,.818,1.393L66.9,48.617A2.781,2.781,0,0,0,66.089,48.28Z"/><path class="cls-7" d="M68.233,51a5,5,0,0,1-5,5H62.177a2.811,2.811,0,0,1-2.731-2.145,5.933,5.933,0,0,1,.218-3.837,2.819,2.819,0,0,1,1.512-1.491,7.782,7.782,0,0,1,4.913-.251A2.8,2.8,0,0,1,68.233,51Z"/><path class="cls-32" d="M68.233,51a5,5,0,0,0,5,5H74.29a2.809,2.809,0,0,0,2.73-2.145,5.933,5.933,0,0,0-.217-3.837,2.817,2.817,0,0,0-1.513-1.491,7.781,7.781,0,0,0-4.913-.251A2.8,2.8,0,0,0,68.233,51Z"/><path class="cls-33" d="M75.29,48.531a7.788,7.788,0,0,0-4.913-.251A2.8,2.8,0,0,0,68.233,51a4.985,4.985,0,0,0,1.62,3.684l5.908-5.908A2.859,2.859,0,0,0,75.29,48.531Z"/><path class="cls-7" d="M68.233,51a5,5,0,0,0,5,5H74.29a2.809,2.809,0,0,0,2.73-2.145,5.933,5.933,0,0,0-.217-3.837,2.817,2.817,0,0,0-1.513-1.491,7.781,7.781,0,0,0-4.913-.251A2.8,2.8,0,0,0,68.233,51Z"/><path class="cls-7" d="M65.733,51.729a1.625,1.625,0,0,1-3,0"/><path class="cls-7" d="M73.733,51.729a1.625,1.625,0,0,1-3,0"/></g></g></svg>