<?xml version="1.0" ?><svg id="Multicolor" viewBox="0 0 100 112" xmlns="http://www.w3.org/2000/svg"><defs><style>.cls-1{fill:#fff0ed;}.cls-2{fill:#45413c;fill-opacity:0.15;}.cls-3{fill:#fff;}.cls-4{fill:#ff6242;}.cls-5{fill:#ff8a14;}.cls-6{fill:#ffe500;}.cls-7{fill:#6dd627;}.cls-8{fill:#00b8f0;}.cls-9{fill:#9f5ae5;}.cls-10{fill:none;}.cls-10,.cls-11{stroke:#45413c;stroke-linecap:round;stroke-linejoin:round;}.cls-11{fill:#2d86fa;}</style></defs><title/><g id="Scene"><g data-name="New Symbol 1" id="New_Symbol_1-22"><circle class="cls-1" cx="50.242" cy="55.806" r="40"/></g><ellipse class="cls-2" cx="50.239" cy="82.729" rx="15.525" ry="1.725"/><rect class="cls-3" height="40.449" rx="1" ry="1" width="64.35" x="18.064" y="30.58"/><path class="cls-4" d="M19.064,30.58h62.35a1,1,0,0,1,1,1v2.679a0,0,0,0,1,0,0H18.064a0,0,0,0,1,0,0V31.58A1,1,0,0,1,19.064,30.58Z"/><rect class="cls-5" height="3.679" width="64.35" x="18.064" y="37.934"/><rect class="cls-6" height="3.679" width="64.35" x="18.064" y="45.289"/><rect class="cls-7" height="3.679" width="64.35" x="18.064" y="52.643"/><rect class="cls-8" height="3.679" width="64.35" x="18.064" y="59.997"/><path class="cls-9" d="M18.064,67.351h64.35a0,0,0,0,1,0,0v2.679a1,1,0,0,1-1,1H19.064a1,1,0,0,1-1-1V67.351A0,0,0,0,1,18.064,67.351Z"/><rect class="cls-10" height="40.449" rx="1" ry="1" width="64.35" x="18.064" y="30.58"/><path class="cls-11" d="M19.064,30.582H46.527a0,0,0,0,1,0,0V50.193a0,0,0,0,1,0,0H18.064a0,0,0,0,1,0,0V31.582A1,1,0,0,1,19.064,30.582Z"/><path class="cls-3" d="M22.224,32.044a.2.2,0,0,1,.343,0l.651,1.082,1.231.286a.2.2,0,0,1,.145.133.2.2,0,0,1-.039.192l-.828.955.109,1.259a.2.2,0,0,1-.277.2L22.4,35.659l-1.164.493a.2.2,0,0,1-.277-.2l.109-1.259-.828-.955a.2.2,0,0,1-.039-.192.2.2,0,0,1,.145-.133l1.231-.286Z"/><path class="cls-3" d="M22.224,38.172a.2.2,0,0,1,.343,0l.651,1.083,1.231.285a.2.2,0,0,1,.106.326l-.828.954.109,1.259a.2.2,0,0,1-.277.2L22.4,41.787l-1.164.493a.2.2,0,0,1-.277-.2l.109-1.259-.828-.954a.2.2,0,0,1,.106-.326l1.231-.285Z"/><path class="cls-3" d="M27.174,35.108a.2.2,0,0,1,.343,0l.651,1.083,1.231.285a.2.2,0,0,1,.146.133.2.2,0,0,1-.04.193l-.828.954.109,1.259a.2.2,0,0,1-.277.2l-1.163-.493-1.164.493a.2.2,0,0,1-.277-.2l.109-1.259-.828-.954a.2.2,0,0,1-.039-.193.2.2,0,0,1,.145-.133l1.231-.285Z"/><path class="cls-3" d="M27.174,41.236a.2.2,0,0,1,.343,0l.651,1.083L29.4,42.6a.2.2,0,0,1,.106.326l-.828.954.109,1.259a.2.2,0,0,1-.277.2l-1.163-.493-1.164.493a.2.2,0,0,1-.277-.2l.109-1.259-.828-.954a.2.2,0,0,1,.106-.326l1.231-.285Z"/><path class="cls-3" d="M22.224,44.3a.2.2,0,0,1,.343,0l.651,1.082,1.231.285a.2.2,0,0,1,.106.326l-.828.954.109,1.259a.2.2,0,0,1-.277.2L22.4,47.916l-1.164.493a.2.2,0,0,1-.277-.2l.109-1.259-.828-.954a.2.2,0,0,1,.106-.326l1.231-.285Z"/><path class="cls-3" d="M32.124,32.044a.2.2,0,0,1,.343,0l.651,1.082,1.231.286a.2.2,0,0,1,.146.133.2.2,0,0,1-.04.192l-.828.955.109,1.259a.2.2,0,0,1-.277.2L32.3,35.659l-1.164.493a.2.2,0,0,1-.277-.2l.109-1.259-.828-.955a.2.2,0,0,1-.039-.192.2.2,0,0,1,.145-.133l1.231-.286Z"/><path class="cls-3" d="M32.124,38.172a.2.2,0,0,1,.343,0l.651,1.083,1.231.285a.2.2,0,0,1,.106.326l-.828.954.109,1.259a.2.2,0,0,1-.277.2L32.3,41.787l-1.164.493a.2.2,0,0,1-.277-.2l.109-1.259-.828-.954a.2.2,0,0,1,.106-.326l1.231-.285Z"/><path class="cls-3" d="M37.074,35.108a.2.2,0,0,1,.343,0l.651,1.083,1.231.285a.2.2,0,0,1,.146.133.2.2,0,0,1-.04.193l-.828.954.109,1.259a.2.2,0,0,1-.277.2l-1.163-.493-1.164.493a.2.2,0,0,1-.277-.2l.109-1.259-.828-.954a.2.2,0,0,1-.039-.193.2.2,0,0,1,.145-.133l1.231-.285Z"/><path class="cls-3" d="M37.074,41.236a.2.2,0,0,1,.343,0l.651,1.083L39.3,42.6a.2.2,0,0,1,.106.326l-.828.954.109,1.259a.2.2,0,0,1-.277.2l-1.163-.493-1.164.493a.2.2,0,0,1-.277-.2l.109-1.259-.828-.954a.2.2,0,0,1,.106-.326l1.231-.285Z"/><path class="cls-3" d="M32.124,44.3a.2.2,0,0,1,.343,0l.651,1.082,1.231.285a.2.2,0,0,1,.106.326l-.828.954.109,1.259a.2.2,0,0,1-.277.2L32.3,47.916l-1.164.493a.2.2,0,0,1-.277-.2l.109-1.259-.828-.954a.2.2,0,0,1,.106-.326l1.231-.285Z"/><path class="cls-3" d="M42.024,32.044a.2.2,0,0,1,.343,0l.652,1.082,1.23.286a.2.2,0,0,1,.146.133.2.2,0,0,1-.04.192l-.828.955.109,1.259a.2.2,0,0,1-.277.2L42.2,35.659l-1.164.493a.2.2,0,0,1-.277-.2l.109-1.259-.828-.955A.2.2,0,0,1,40,33.545a.2.2,0,0,1,.145-.133l1.231-.286Z"/><path class="cls-3" d="M42.024,38.172a.2.2,0,0,1,.343,0l.652,1.083,1.23.285a.2.2,0,0,1,.106.326l-.828.954.109,1.259a.2.2,0,0,1-.277.2L42.2,41.787l-1.164.493a.2.2,0,0,1-.277-.2l.109-1.259-.828-.954a.2.2,0,0,1,.106-.326l1.231-.285Z"/><path class="cls-3" d="M42.024,44.3a.2.2,0,0,1,.343,0l.652,1.082,1.23.285a.2.2,0,0,1,.106.326l-.828.954.109,1.259a.2.2,0,0,1-.277.2L42.2,47.916l-1.164.493a.2.2,0,0,1-.277-.2l.109-1.259-.828-.954a.2.2,0,0,1,.106-.326l1.231-.285Z"/></g></svg>