<?xml version="1.0" ?><svg id="Multicolor" viewBox="0 0 100 112" xmlns="http://www.w3.org/2000/svg"><defs><style>.cls-1{fill:#fff0ed;}.cls-2{fill:#45413c;fill-opacity:0.15;}.cls-3{fill:#e0366f;}.cls-4{fill:#ff6196;}.cls-5{fill:#ff87af;}.cls-6{fill:#fff;}.cls-7{fill:#ff866e;}.cls-8{fill:#ff6242;}.cls-9{fill:#e04122;}.cls-10{fill:none;stroke:#45413c;stroke-linecap:round;stroke-linejoin:round;}</style></defs><title/><g id="Scene"><circle class="cls-1" cx="50" cy="56" r="40"/><ellipse class="cls-2" cx="50" cy="87.73" rx="15.52" ry="1.72"/><path class="cls-3" d="M73.19,38.7a1.65,1.65,0,0,0-1.41-2.49H28.21A1.65,1.65,0,0,0,26.8,38.7l1.75,2.91H71.44Z"/><polygon class="cls-4" points="67.99 47.36 71.44 41.61 28.55 41.61 32 47.36 67.99 47.36"/><polygon class="cls-5" points="35.45 53.11 64.54 53.11 67.99 47.36 32 47.36 35.45 53.11"/><polygon class="cls-6" points="38.9 58.86 61.09 58.86 64.54 53.11 35.45 53.11 38.9 58.86"/><polygon class="cls-7" points="42.35 64.61 57.64 64.61 61.09 58.86 38.9 58.86 42.35 64.61"/><polygon class="cls-8" points="45.8 70.36 54.19 70.36 57.64 64.61 42.35 64.61 45.8 70.36"/><path class="cls-9" d="M48.58,75a1.65,1.65,0,0,0,2.82,0l2.78-4.64H45.8Z"/><path class="cls-10" d="M51.41,75a1.65,1.65,0,0,1-2.82,0L26.8,38.7a1.65,1.65,0,0,1,1.41-2.49H71.77a1.65,1.65,0,0,1,1.41,2.49Z"/></g></svg>