<?xml version="1.0" ?><svg id="Multicolor" viewBox="0 0 100 112" xmlns="http://www.w3.org/2000/svg"><defs><style>.cls-1{fill:#fff0ed;}.cls-2{fill:#45413c;fill-opacity:0.15;}.cls-3{fill:#ffe500;}.cls-4{fill:#fff48c;}.cls-5{fill:none;stroke:#45413c;stroke-linecap:round;stroke-linejoin:round;}</style></defs><title/><g id="Scene"><circle class="cls-1" cx="50" cy="56" r="40"/><ellipse class="cls-2" cx="50" cy="87.73" rx="15.53" ry="1.72"/><path class="cls-3" d="M51.41,75a1.65,1.65,0,0,1-2.82,0L26.8,38.7a1.65,1.65,0,0,1,1.41-2.49H71.78a1.65,1.65,0,0,1,1.41,2.49Z"/><path class="cls-4" d="M73.21,37a1.65,1.65,0,0,0-1.43-.83H28.21A1.65,1.65,0,0,0,26.8,38.7l1.33,2.22a1.59,1.59,0,0,1,.11-.24,1.54,1.54,0,0,1,1.34-.78H70.4a1.54,1.54,0,0,1,1.34.78,1.59,1.59,0,0,1,.11.24l1.33-2.22A1.65,1.65,0,0,0,73.21,37Z"/><path class="cls-5" d="M51.41,75a1.65,1.65,0,0,1-2.82,0L26.8,38.7a1.65,1.65,0,0,1,1.41-2.49H71.78a1.65,1.65,0,0,1,1.41,2.49Z"/></g></svg>