<?xml version="1.0" ?><svg id="Multicolor" viewBox="0 0 100 112" xmlns="http://www.w3.org/2000/svg"><defs><style>.cls-1{fill:#fff0ed;}.cls-2{fill:#e0366f;}.cls-3{fill:#ff6196;}.cls-4{fill:#ff87af;}.cls-5{fill:#fff;}.cls-6{fill:#ff866e;}.cls-7{fill:#ff6242;}.cls-8{fill:#e04122;}.cls-9{fill:#ffb0ca;}.cls-10{fill:none;stroke:#45413c;stroke-linecap:round;stroke-linejoin:round;}.cls-11{fill:#45413c;fill-opacity:0.15;}</style></defs><title/><g id="Scene"><g data-name="New Symbol 1" id="New_Symbol_1-58"><circle class="cls-1" cx="50.002" cy="55.947" r="40"/></g><path class="cls-2" d="M31.605,33.278A15.069,15.069,0,0,0,28.271,36.7H47.9C44.692,33.069,38.768,27.923,31.605,33.278Z"/><path class="cls-2" d="M68.405,33.278C61.273,27.946,55.566,32.9,52.163,36.7H71.737A15.04,15.04,0,0,0,68.405,33.278Z"/><path class="cls-3" d="M74.138,42.947a13.209,13.209,0,0,0-2.4-6.25H52.163c-.878.98-1.6,1.884-2.159,2.516-.435-.495-1.149-1.438-2.1-2.516H28.271a13.194,13.194,0,0,0-2.405,6.25Z"/><path class="cls-4" d="M25.808,44.082a23.443,23.443,0,0,0,.5,5.115H73.693a23.443,23.443,0,0,0,.5-5.115,11.261,11.261,0,0,0-.058-1.135H25.866C25.829,43.322,25.809,43.7,25.808,44.082Z"/><path class="cls-5" d="M28.915,55.447H71.09a19.456,19.456,0,0,0,2.6-6.25H26.311A19.482,19.482,0,0,0,28.915,55.447Z"/><path class="cls-6" d="M34.108,61.7H65.9a34.577,34.577,0,0,0,5.19-6.25H28.915A34.649,34.649,0,0,0,34.108,61.7Z"/><path class="cls-7" d="M41.416,67.947H58.592A81.045,81.045,0,0,0,65.9,61.7H34.108A80.905,80.905,0,0,0,41.416,67.947Z"/><path class="cls-8" d="M49.039,73.452a1.709,1.709,0,0,0,1.93,0c2.87-1.966,5.4-3.792,7.623-5.5H41.416C43.641,69.66,46.17,71.486,49.039,73.452Z"/><path class="cls-3" d="M28.271,36.7H47.9a21.039,21.039,0,0,0-4.785-4.152l-.016-.01-.108-.064-.01-.006-.111-.064L42.86,32.4l-.111-.063-.013-.007-.111-.061-.006,0q-.237-.129-.48-.248l-.011,0-.1-.048L42,31.944,41.9,31.9l-.044-.02-.089-.041-.04-.017c-.03-.014-.059-.027-.089-.039l-.051-.022-.087-.037-.035-.014-.1-.042h0c-.075-.03-.15-.06-.227-.088l-.03-.011-.085-.031-.054-.02-.083-.028-.056-.02-.084-.028-.056-.018-.079-.025-.071-.022-.068-.021-.073-.021-.073-.021-.064-.018-.083-.022-.057-.015-.1-.026-.122-.029-.077-.017-.068-.016-.082-.017-.064-.013-.078-.015-.073-.014-.073-.013-.079-.013-.069-.011-.083-.013-.066-.01L39,31.041l-.062-.007-.1-.012-.054-.006L38.634,31l-.061,0-.092-.007-.071,0-.082,0-.071,0-.086,0-.07,0-.084,0H37.79l-.093,0h-.065l-.092,0-.068,0-.151.009-.058,0-.1.007L37.1,31l-.1.009-.073.008-.086.009-.074.009-.091.013-.072.01-.086.013-.076.012-.1.017-.064.011-.1.02-.06.012-.159.034-.057.013-.109.025-.068.017-.095.024-.079.021-.086.024-.081.023-.087.026-.078.023-.089.029-.08.026-.09.03-.077.026-.1.036-.066.024-.166.063-.051.021-.116.046-.076.032-.1.04-.076.033-.1.043-.075.034-.1.046-.076.036-.1.048-.07.035-.1.053-.074.038-.109.058-.061.032-.157.087-.063.036-.127.073-.077.046-.1.058-.08.049-.1.061-.078.05-.1.064-.073.048-.109.072-.072.049-.107.073-.07.05-.112.079-.069.05c-.059.042-.117.085-.176.129s-.143.107-.214.162l-.037.028A15.082,15.082,0,0,0,28.271,36.7Z"/><path class="cls-3" d="M52.163,36.7H71.736l-.023-.032c-.045-.066-.092-.13-.139-.194l-.018-.026c-.052-.069-.1-.138-.155-.206l-.05-.065c-.046-.06-.092-.119-.139-.178l-.058-.072-.12-.148-.068-.081-.122-.145-.1-.114c-.031-.035-.061-.07-.093-.1l-.084-.094c-.034-.037-.068-.075-.1-.112s-.095-.1-.143-.152l-.059-.062q-.181-.189-.369-.37l-.039-.038A14.909,14.909,0,0,0,68.4,33.278a11.147,11.147,0,0,0-4.946-2.231l-.02,0-.142-.021-.027,0L63.136,31,63.1,31l-.124-.013-.038,0-.124-.01-.036,0c-.042,0-.084-.006-.126-.009l-.033,0-.147-.007h-.01c-.1,0-.209-.006-.314-.006h-.21l-.091,0-.07,0-.078,0-.075,0-.073.005-.079.006-.071.006-.077.007-.077.007L61.178,31l-.08.009-.194.026-.014,0-.095.014-.049.008-.082.014-.069.012-.074.014-.065.012-.086.018-.056.012-.084.018-.061.014-.082.019-.056.014-.086.021-.052.014-.089.024-.02.006c-.115.031-.229.065-.342.1l-.044.014-.1.032-.033.011-.1.036-.03.011-.1.035-.042.015-.091.034-.042.016-.091.036-.038.015-.1.04,0,0c-.161.066-.321.136-.478.21l-.027.013-.1.045-.033.016L57.9,32l-.035.018-.092.046-.033.017-.094.049-.031.016-.094.051-.026.014q-.287.156-.565.325l-.015.009-.09.056-.038.023-.079.051-.04.025-.086.055-.03.02-.086.056-.035.024-.088.059-.011.007q-.166.112-.327.228h0l-.073.052-.048.035-.06.044-.058.042-.06.045-.053.04-.062.047-.058.044-.056.044-.056.044-.054.042-.086.068-.022.017-.1.079-.019.016-.113.091-.017.014-.1.083L54.9,34l-.1.087-.024.02-.086.074-.026.023-.087.076-.021.018-.1.085-.01.009A28.616,28.616,0,0,0,52.163,36.7Z"/><path class="cls-4" d="M29.121,42.947a14.737,14.737,0,0,1,2.484-2.328c6.466-4.834,11.923-1.111,15.285,2.328h6.291c3.468-3.548,8.761-7.159,15.222-2.328a14.731,14.731,0,0,1,2.483,2.328h3.252l0-.015c-.006-.06-.012-.12-.019-.18l0-.029-.024-.187,0-.022c-.009-.064-.019-.129-.028-.193l0-.015a12.283,12.283,0,0,0-.375-1.65l0-.011c-.02-.064-.039-.128-.06-.192l0-.009c-.02-.063-.041-.126-.062-.189l0-.016-.06-.173-.015-.041c-.018-.051-.036-.1-.055-.152l-.018-.048-.057-.149-.017-.043-.06-.151-.018-.043c-.021-.051-.042-.1-.064-.152l-.016-.039c-.022-.051-.045-.1-.068-.154l-.016-.036c-.023-.052-.047-.1-.071-.155L73,38.868l-.069-.145-.022-.046c-.025-.052-.051-.1-.077-.155l-.013-.028c-.094-.186-.191-.369-.293-.55l-.03-.053-.072-.126-.036-.06-.069-.117-.043-.071c-.02-.034-.041-.068-.062-.1l-.05-.081-.059-.093c-.016-.026-.034-.052-.051-.078s-.041-.064-.062-.1l-.052-.079c-.019-.028-.038-.057-.058-.085l-.061-.09-.055-.079-.027-.038H52.163c-.392.438-.753.861-1.083,1.251-.408.483-.767.915-1.075,1.264h0c-.435-.494-1.149-1.437-2.1-2.515H28.271a13.27,13.27,0,0,0-2.382,6.037h0c-.008.069-.016.138-.023.208v0Z"/><path class="cls-9" d="M74.2,44.082c0-.082,0-.164,0-.245l0-.094c0-.059,0-.117-.007-.174l0-.079c-.005-.084-.01-.167-.016-.25l0-.036c-.007-.081-.013-.161-.021-.241l0-.016H70.886A14.853,14.853,0,0,1,72.461,45.2a13.462,13.462,0,0,1,1.35,3.331,23.458,23.458,0,0,0,.364-3.331c.011-.275.017-.551.02-.83,0-.093,0-.187,0-.281Z"/><path class="cls-9" d="M26.192,48.531A13.433,13.433,0,0,1,27.546,45.2a14.733,14.733,0,0,1,1.575-2.251H25.866v0c-.027.272-.044.545-.052.821v.045c0,.088,0,.177,0,.265,0,.376.007.747.022,1.116A23.648,23.648,0,0,0,26.192,48.531Z"/><path class="cls-9" d="M47.064,43.127a4.075,4.075,0,0,0,5.893.052l.224-.232H46.89C46.949,43.007,47.006,43.067,47.064,43.127Z"/><path class="cls-10" d="M49.039,73.453a1.709,1.709,0,0,0,1.93,0C70.468,60.091,74.2,53.231,74.2,44.082h0a13.89,13.89,0,0,0-5.791-10.8h0c-8.971-6.707-15.689,2.856-18.4,5.935-1.9-2.16-9.108-12.88-18.4-5.935h0a13.89,13.89,0,0,0-5.8,10.8h0C25.8,53.231,29.542,60.091,49.039,73.453Z"/><ellipse class="cls-11" cx="50.002" cy="82.873" rx="15.525" ry="1.725"/></g></svg>