<?xml version="1.0" ?><svg id="Multicolor" viewBox="0 0 100 112" xmlns="http://www.w3.org/2000/svg"><defs><style>.cls-1{fill:#fff0ed;}.cls-2{fill:#45413c;fill-opacity:0.15;}.cls-3{fill:#e0366f;}.cls-4{fill:#ff6196;}.cls-5{fill:#ff87af;}.cls-6{fill:#fff;}.cls-7{fill:#ff866e;}.cls-8{fill:#ff6242;}.cls-9{fill:#e04122;}.cls-10{fill:none;stroke:#45413c;stroke-linecap:round;stroke-linejoin:round;}</style></defs><title/><g id="Scene"><g data-name="New Symbol 1" id="New_Symbol_1-56"><circle class="cls-1" cx="50.021" cy="55.809" r="40"/></g><ellipse class="cls-2" cx="50.025" cy="82.734" rx="15.525" ry="1.725"/><path class="cls-3" d="M25.025,37.809h50a1,1,0,0,1,1,1v4a0,0,0,0,1,0,0h-52a0,0,0,0,1,0,0v-4A1,1,0,0,1,25.025,37.809Z"/><rect class="cls-4" height="5" width="52" x="24.025" y="42.809"/><rect class="cls-5" height="5" width="52" x="24.025" y="47.809"/><rect class="cls-6" height="5" width="52" x="24.025" y="52.809"/><rect class="cls-7" height="5" width="52" x="24.025" y="57.809"/><rect class="cls-8" height="5" width="52" x="24.025" y="62.809"/><path class="cls-9" d="M24.025,67.809h52a0,0,0,0,1,0,0v4a1,1,0,0,1-1,1h-50a1,1,0,0,1-1-1v-4a0,0,0,0,1,0,0Z"/><rect class="cls-10" height="35" rx="1" ry="1" width="52" x="24.025" y="37.809"/></g></svg>