<?xml version="1.0" ?><svg id="Multicolor" viewBox="0 0 100 112" xmlns="http://www.w3.org/2000/svg"><defs><style>.cls-1{fill:#fff0ed;}.cls-2{fill:#45413c;fill-opacity:0.15;}.cls-3{fill:#ffb0ca;}.cls-4{fill:#fff;}.cls-5{fill:#80ddff;}.cls-6{fill:#fcd;}.cls-7{fill:#b8ecff;}.cls-8{fill:none;stroke:#656769;stroke-linecap:round;stroke-linejoin:round;}</style></defs><title/><g id="Scene"><g data-name="New Symbol 1" id="New_Symbol_1-17"><circle class="cls-1" cx="50.057" cy="55.793" r="40"/></g><ellipse class="cls-2" cx="50.054" cy="82.718" rx="15.525" ry="1.725"/><path class="cls-3" d="M50.069,39.043h-.026l.012.015Z"/><path class="cls-4" d="M29.8,56.543h40.5a19.831,19.831,0,0,0,3.673-8.75H26.13A19.822,19.822,0,0,0,29.8,56.543Z"/><path class="cls-3" d="M26.13,47.793H73.978a25.254,25.254,0,0,0,.27-3.865,12.271,12.271,0,0,0-1.05-4.885H50.069l-.014.015-.012-.015H26.911a12.238,12.238,0,0,0-1.051,4.885A25.128,25.128,0,0,0,26.13,47.793Z"/><path class="cls-5" d="M68.457,33.124c-8.958-6.7-15.668,2.825-18.388,5.919H73.2A14.85,14.85,0,0,0,68.457,33.124Z"/><path class="cls-5" d="M31.656,33.124a14.867,14.867,0,0,0-4.745,5.919H50.043C48.122,36.851,40.927,26.193,31.656,33.124Z"/><path class="cls-3" d="M38.339,65.293H61.772a47.929,47.929,0,0,0,8.533-8.75H29.8A47.983,47.983,0,0,0,38.339,65.293Z"/><path class="cls-5" d="M49.091,73.3a1.707,1.707,0,0,0,1.929,0c4.312-2.954,7.852-5.591,10.752-8H38.339C41.239,67.707,44.78,70.344,49.091,73.3Z"/><path class="cls-6" d="M26.146,47.793h.261a13.615,13.615,0,0,1,1.19-2.75,14.886,14.886,0,0,1,4.059-4.579,13.065,13.065,0,0,1,2.359-1.421h-7.1a12.9,12.9,0,0,0-.772,2.362l0,.023-.03.136,0,.023c-.028.139-.054.277-.078.417l-.007.044c-.007.039-.013.079-.019.118l-.009.058c-.006.039-.012.079-.017.118l0,.019c-.014.094-.025.188-.036.283l0,.017c0,.043-.009.086-.013.129l0,.047c0,.042-.008.083-.011.125l0,.04c-.011.142-.02.286-.027.429v.024c0,.05,0,.1-.005.151v0c0,.105,0,.211,0,.317s0,.225,0,.337c0,.261.009.521.019.778A23.91,23.91,0,0,0,26.146,47.793Z"/><path class="cls-6" d="M47.116,42.972a4.074,4.074,0,0,0,5.893.052,17.989,17.989,0,0,1,5.232-3.981H50.07l-.013.015h0l-.012-.015H41.857A17.568,17.568,0,0,1,47.116,42.972Z"/><path class="cls-6" d="M68.455,40.464a14.879,14.879,0,0,1,4.057,4.579,13.633,13.633,0,0,1,1.188,2.75h.261a23.867,23.867,0,0,0,.265-2.75q.023-.552.021-1.115A12.287,12.287,0,0,0,73.2,39.043H66.112A13.4,13.4,0,0,1,68.455,40.464Z"/><path class="cls-7" d="M51.132,37.793c-.4.477-.757.9-1.062,1.25h8.171a8.939,8.939,0,0,1,7.871,0H73.2c-.051-.116-.1-.231-.157-.345l-.013-.029-.074-.155-.018-.035c-.025-.052-.05-.1-.076-.155l-.01-.017q-.132-.26-.274-.514c-.032-.057-.064-.114-.1-.171l0,0-.1-.168,0,0a14.983,14.983,0,0,0-3.92-4.322A12.05,12.05,0,0,0,64.7,31.162l-.012,0-.149-.043-.036-.01-.135-.036-.044-.011-.131-.033-.047-.01-.13-.03-.036-.007c-.15-.032-.3-.06-.446-.083l-.031-.005-.115-.017-.062-.009-.1-.013-.077-.009-.095-.01-.081-.008-.092-.008-.085-.007-.088,0-.087,0-.086,0-.1,0-.065,0h-.343l-.055,0-.118,0-.057,0-.116.006-.055,0-.118.008-.053.005-.118.011-.053,0-.123.014-.044.006c-.052.006-.1.013-.155.021h-.01c-.113.017-.226.035-.338.056l-.031.006-.138.027-.029.007L60.27,31l-.033.008-.132.031-.034.008-.127.033-.04.01-.143.04-.013,0c-.165.047-.329.1-.491.154l-.008,0-.151.053-.02.008-.133.049-.035.014-.12.047-.037.015-.131.053-.019.008-.148.064-.006,0q-.235.1-.468.218l0,0-.143.071-.025.013-.125.065-.028.015-.118.064-.032.017-.118.065-.029.016-.134.077-.007,0c-.1.057-.2.116-.3.176h0c-.046.027-.091.056-.137.084l-.036.024-.107.068-.033.022-.1.066-.047.031-.094.064-.041.028-.095.065-.045.031-.08.057-.059.042-.06.044q-.1.068-.189.138l-.005,0-.061.046-.074.056-.061.047-.06.046-.074.058-.055.042-.079.063-.033.027-.1.077-.022.018-.1.079-.023.019A31.787,31.787,0,0,0,51.132,37.793Z"/><path class="cls-7" d="M26.911,39.043h7.1a9.1,9.1,0,0,1,7.842,0h8.186a43.377,43.377,0,0,0-4.091-4.548h0q-.252-.23-.514-.454l0,0-.118-.1-.027-.022-.111-.093-.015-.013-.121-.1-.012-.01-.117-.094-.019-.015c-.088-.07-.177-.139-.267-.208l-.032-.024-.1-.075-.046-.034c-.028-.022-.057-.043-.086-.064l-.054-.039c-.029-.022-.059-.043-.089-.064l-.045-.033c-.027-.02-.056-.04-.084-.059l-.061-.043-.1-.07-.03-.021-.137-.092-.056-.038-.083-.054-.064-.041-.078-.05-.062-.039-.081-.05-.067-.041-.074-.045-.07-.042-.081-.048-.063-.037-.142-.081-.032-.017L42.7,32.12l-.061-.032-.087-.047L42.476,32l-.074-.038-.074-.038-.079-.039-.076-.038-.071-.033-.079-.038-.072-.033-.143-.065-.086-.038-.06-.026-.1-.04-.07-.029-.085-.035-.079-.031-.076-.029-.079-.03-.087-.032-.071-.026-.093-.032-.069-.023c-.044-.016-.088-.03-.133-.044l-.077-.025-.1-.032-.086-.025-.08-.023-.08-.022-.083-.022-.084-.022-.084-.021-.078-.019-.093-.021-.075-.017L39.7,31l-.066-.013c-.055-.011-.11-.022-.164-.031l-.061-.01q-.053-.011-.105-.018l-.084-.013-.088-.013-.082-.011-.091-.011-.082-.01-.095-.01-.077-.007-.1-.008-.071-.006c-.048,0-.1-.006-.144-.009l-.031,0-.172-.007h-.074l-.1,0h-.261l-.1,0-.075,0-.115.006-.065,0-.128.009-.055,0-.18.017-.043,0-.142.016-.067.009-.114.016-.079.011-.11.018-.077.014-.109.02-.078.015-.124.025-.06.013-.145.034-.047.01q-.093.022-.186.048l-.057.015-.133.037-.07.021-.123.037-.07.022-.125.041L35,31.31l-.129.044-.065.024-.141.053-.053.02-.2.077-.02.009-.176.075-.057.025c-.047.021-.094.041-.141.063l-.067.031-.127.06-.08.039-.119.06-.077.039L33.419,32l-.067.036c-.053.028-.107.058-.16.088l-.039.021c-.066.038-.134.076-.2.116l-.045.027-.157.095-.062.038-.139.087-.076.049-.122.08-.087.057-.123.084-.077.053-.144.1-.058.041c-.069.049-.137.1-.206.151l-.174.131-.04.031c-.047.036-.094.072-.14.109l-.031.024c-.054.043-.107.085-.16.129l-.011.008A14.841,14.841,0,0,0,26.911,39.043Z"/><path class="cls-8" d="M49.091,73.3a1.707,1.707,0,0,0,1.929,0c19.5-13.361,23.236-20.222,23.228-29.37h0a13.89,13.89,0,0,0-5.791-10.8h0c-8.972-6.708-15.689,2.855-18.4,5.934-1.9-2.159-9.109-12.88-18.4-5.934h0a13.889,13.889,0,0,0-5.8,10.8h0C25.85,53.076,29.594,59.937,49.091,73.3Z"/></g></svg>