<?xml version="1.0" ?><svg id="Multicolor" viewBox="0 0 100 112" xmlns="http://www.w3.org/2000/svg"><defs><style>.cls-1{fill:#fff0ed;}.cls-2{fill:#45413c;fill-opacity:0.15;}.cls-3{fill:#fff;}.cls-4{fill:#bdbec0;}.cls-5{fill:#525252;}.cls-6{fill:#9f5ae5;}.cls-7{fill:none;stroke:#45413c;stroke-linecap:round;stroke-linejoin:round;}</style></defs><title/><g id="Scene"><circle class="cls-1" cx="50" cy="56" r="40"/><ellipse class="cls-2" cx="50" cy="87.73" rx="15.52" ry="1.73"/><path class="cls-3" d="M65,62.83l-9.17-9.17H44.18L35,62.83a17.55,17.55,0,0,1-2.67-9.17h-8a25.5,25.5,0,0,0,3.64,13H42.5l7.5-7.5,7.5,7.5H72a25.5,25.5,0,0,0,3.64-13h-8A17.55,17.55,0,0,1,65,62.83Z"/><path class="cls-4" d="M67.66,53.5c0,.05,0,.11,0,.16h8c0-.05,0-.11,0-.16A25.5,25.5,0,0,0,72.2,40.66H62.11A17.61,17.61,0,0,1,67.66,53.5Z"/><path class="cls-4" d="M24.34,53.66h8c0-.05,0-.11,0-.16a17.61,17.61,0,0,1,5.55-12.84H27.79A25.5,25.5,0,0,0,24.34,53.5C24.34,53.55,24.34,53.61,24.34,53.66Z"/><polygon class="cls-4" points="44.18 53.66 55.81 53.66 54 51.84 54 40.66 46 40.66 46 51.84 44.18 53.66"/><path class="cls-5" d="M46,36.3v4.36h8V36.3a17.63,17.63,0,0,1,8.11,4.36H72.2a25.65,25.65,0,0,0-44.41,0h10.1A17.64,17.64,0,0,1,46,36.3Z"/><path class="cls-6" d="M59.33,68.49a17.63,17.63,0,0,1-18.66,0l1.83-1.83H28a25.83,25.83,0,0,0,3.74,4.83l.14.15.15.15a25.61,25.61,0,0,0,36,0l.16-.15.15-.16A25.83,25.83,0,0,0,72,66.66H57.5Z"/><path class="cls-7" d="M68.29,71.48a25.66,25.66,0,1,0-36.57,0l.14.15.15.15a25.61,25.61,0,0,0,36,0l.16-.15Zm-.63-18A17.55,17.55,0,0,1,65,62.83l-11-11V36.3A17.69,17.69,0,0,1,67.66,53.5ZM46,36.3V51.84l-11,11A17.65,17.65,0,0,1,46,36.3ZM40.67,68.49,50,59.16l9.33,9.33a17.63,17.63,0,0,1-18.66,0Z"/></g></svg>