<?xml version="1.0" ?><svg id="Multicolor" viewBox="0 0 100 112" xmlns="http://www.w3.org/2000/svg" xmlns:xlink="http://www.w3.org/1999/xlink"><defs><style>.cls-1,.cls-10,.cls-6{fill:none;}.cls-2{fill:#fff0ed;}.cls-15,.cls-3{fill:#45413c;}.cls-3{opacity:0.15;}.cls-4{fill:#f0f0f0;}.cls-5{fill:#e0e0e0;}.cls-10,.cls-11,.cls-14,.cls-20,.cls-6,.cls-7,.cls-8{stroke:#45413c;stroke-linejoin:round;}.cls-11,.cls-20,.cls-6,.cls-7,.cls-8{stroke-linecap:round;}.cls-7{fill:#525252;}.cls-8,.cls-9{fill:#fff;}.cls-11,.cls-21{fill:#ffda8f;}.cls-12{fill:#87898c;}.cls-13{fill:#bdbec0;}.cls-14{fill:#ff6196;}.cls-16{fill:#ffbe3d;}.cls-17{fill:#614b44;}.cls-18{fill:#947063;}.cls-19{clip-path:url(#clip-path);}.cls-20{fill:#ffb0ca;}.cls-22{fill:#ffe9bd;}</style><clipPath id="clip-path"><circle class="cls-1" cx="50.475" cy="56.027" r="40"/></clipPath></defs><title/><g id="Background"><g data-name="New Symbol 1" id="New_Symbol_1-2"><circle class="cls-2" cx="49.958" cy="56.02" r="40"/></g></g><g id="Scene"><ellipse class="cls-3" cx="31.073" cy="92.291" rx="11" ry="1.65"/><path class="cls-4" d="M38.222,71.391v19.25a1.1,1.1,0,0,1-1.1,1.1H34.339a1.1,1.1,0,0,1-1.1-1.065l-.4-12.552A1.817,1.817,0,0,0,31.528,76.4a1.77,1.77,0,0,0-2.221,1.653l-.4,12.625a1.1,1.1,0,0,1-1.1,1.065H25.023a1.1,1.1,0,0,1-1.1-1.1V71.391Z"/><rect class="cls-5" height="2.75" width="14.3" x="23.922" y="71.391"/><path class="cls-6" d="M38.222,71.391v19.25a1.1,1.1,0,0,1-1.1,1.1H34.339a1.1,1.1,0,0,1-1.1-1.065l-.4-12.552A1.817,1.817,0,0,0,31.528,76.4a1.77,1.77,0,0,0-2.221,1.653l-.4,12.625a1.1,1.1,0,0,1-1.1,1.065H25.023a1.1,1.1,0,0,1-1.1-1.1V71.391Z"/><path class="cls-7" d="M23.67,91.741a1.1,1.1,0,0,1-.986-1.595,3.3,3.3,0,0,1,2.889-1.7h.55a3.3,3.3,0,0,1,2.889,1.7,1.1,1.1,0,0,1-.987,1.595Z"/><path class="cls-7" d="M34.12,91.741a1.1,1.1,0,0,1-.987-1.595,3.3,3.3,0,0,1,2.89-1.7h.55a3.3,3.3,0,0,1,2.889,1.7,1.1,1.1,0,0,1-.987,1.595Z"/><path class="cls-8" d="M31.073,51.041a11.54,11.54,0,0,1,3.594.571l-.031,19.779H27.508l-.032-19.778A11.535,11.535,0,0,1,31.073,51.041Z"/><line class="cls-6" x1="31.072" x2="31.072" y1="54.891" y2="71.391"/><path class="cls-4" d="M48.874,62.987l1.943-4.067a4.582,4.582,0,0,0-2.2-.54c-1.677,0-3.19,1.064-4.653,2.093a1.076,1.076,0,0,1-1.664-.625,11.574,11.574,0,0,0-7.628-8.236l-1.4,9.329a46.9,46.9,0,0,0,3.3,16.5s.792,1.727,1.65,0V64.46a7.1,7.1,0,0,0,.875.877,3.714,3.714,0,0,0,2.454.93c1.818,0,3.612-1.262,4.939-2.194a10.431,10.431,0,0,1,2.122-1.293C48.714,62.78,48.8,62.867,48.874,62.987Z"/><path class="cls-9" d="M34.353,53.712l.314-2.1a11.571,11.571,0,0,1,7.68,8.46.523.523,0,0,1-.952.392C39.92,58.121,37.273,54.571,34.353,53.712Z"/><path class="cls-10" d="M49.128,63.714A2.2,2.2,0,0,0,53.5,63.17c-.273-2.306-1.918-4.79-4.883-4.79-1.677,0-3.19,1.064-4.653,2.093a1.076,1.076,0,0,1-1.664-.625,11.574,11.574,0,0,0-7.628-8.236l-1.4,9.329a46.9,46.9,0,0,0,3.3,16.5s.792,1.727,1.65,0V64.46a7.1,7.1,0,0,0,.875.877,3.714,3.714,0,0,0,2.454.93c1.818,0,3.612-1.262,4.939-2.194a10.431,10.431,0,0,1,2.122-1.293C48.939,62.78,49.121,63.672,49.128,63.714Z"/><path class="cls-11" d="M31.073,51.041a11.549,11.549,0,0,1,3.355.5l-3.355,3.354-3.355-3.354A11.544,11.544,0,0,1,31.073,51.041Z"/><path class="cls-4" d="M19.523,62.591A11.556,11.556,0,0,1,27.47,51.615l1.4,9.326A43.95,43.95,0,0,1,27.437,71.7a1.593,1.593,0,0,1-.491.8l-2.333,2.042a1.093,1.093,0,0,1-1.443.006,10.791,10.791,0,0,1-3.648-8.1V62.59Z"/><path class="cls-9" d="M19.523,64.791h0v-2.2h0A11.556,11.556,0,0,1,27.47,51.615l.316,2.1A11.553,11.553,0,0,0,19.523,64.791Z"/><path class="cls-6" d="M19.523,62.591A11.556,11.556,0,0,1,27.47,51.615l1.4,9.326A43.95,43.95,0,0,1,27.437,71.7a1.593,1.593,0,0,1-.491.8l-2.333,2.042a1.093,1.093,0,0,1-1.443.006,10.791,10.791,0,0,1-3.648-8.1V62.59Z"/><line class="cls-6" x1="38.223" x2="38.223" y1="59.841" y2="67.255"/><path class="cls-12" d="M28.872,60.941a42.456,42.456,0,0,1-.759,7.732l-3.091-8.832,1.65-3.85-2.2-.55.436-2.617a11.5,11.5,0,0,1,2.562-1.209Z"/><path class="cls-13" d="M24.908,52.824a11.5,11.5,0,0,1,2.562-1.209l.316,2.1h0A11.494,11.494,0,0,0,24.5,55.3Z"/><path class="cls-10" d="M28.872,60.941a42.456,42.456,0,0,1-.759,7.732l-3.091-8.832,1.65-3.85-2.2-.55.436-2.617a11.5,11.5,0,0,1,2.562-1.209Z"/><path class="cls-6" d="M23.922,59.841l0,6.736c0,1.943,1.544,5.068,3.023,5.914"/><path class="cls-12" d="M37.237,52.823l.435,2.618-2.2.55,1.65,3.85-3.08,8.8a41.911,41.911,0,0,1-.77-7.7l1.4-9.329A11.5,11.5,0,0,1,37.237,52.823Z"/><path class="cls-13" d="M34.353,53.714l.314-2.1a11.5,11.5,0,0,1,2.57,1.211l.41,2.471A11.493,11.493,0,0,0,34.353,53.714Z"/><path class="cls-6" d="M37.237,52.823l.435,2.618-2.2.55,1.65,3.85-3.08,8.8a41.911,41.911,0,0,1-.77-7.7l1.4-9.329A11.5,11.5,0,0,1,37.237,52.823Z"/><path class="cls-14" d="M31.072,55.991l-.642-.55a3.925,3.925,0,0,0-1.872-1,1.109,1.109,0,0,0-1.336,1.078v.942a1.108,1.108,0,0,0,1.336,1.078,3.907,3.907,0,0,0,1.872-1Z"/><path class="cls-14" d="M31.072,55.991l.641-.55a3.927,3.927,0,0,1,1.873-1,1.109,1.109,0,0,1,1.336,1.078v.942a1.108,1.108,0,0,1-1.336,1.078,3.91,3.91,0,0,1-1.873-1Z"/><circle class="cls-14" cx="31.072" cy="55.991" r="1.1"/><path class="cls-11" d="M31.072,33.441a6.6,6.6,0,0,0-6.6,6.6v.881a1.347,1.347,0,0,0,.138,2.667,6.6,6.6,0,0,0,13.062-1.348v-2.2A6.6,6.6,0,0,0,31.072,33.441Z"/><circle class="cls-15" cx="30.247" cy="40.866" r="0.825"/><circle class="cls-15" cx="34.647" cy="40.866" r="0.825"/><circle class="cls-16" cx="28.047" cy="43.066" r="0.825"/><path class="cls-6" d="M30.522,45.042a2.975,2.975,0,0,0,3.3,0"/><path class="cls-17" d="M35.887,29.945a1.108,1.108,0,0,0-1.467.475q-.447.82-3.356.82c-5.5,0-4.949,4.4-4.949,4.4-2.75,0-1.65,4.95-1.65,4.95h.26a1.8,1.8,0,0,0,1.552-1.775,1.307,1.307,0,0,1,1.532-1.079,17.022,17.022,0,0,0,3.255.324,10.938,10.938,0,0,0,3.256-.324c3.124-1.086,3.344,2.854,3.344,2.854C39.455,34.3,37.977,30.975,35.887,29.945Z"/><path class="cls-18" d="M35.887,29.945a1.108,1.108,0,0,0-1.467.475q-.447.82-3.356.82c-5.5,0-4.949,4.4-4.949,4.4.1-1.237,2.2-2.2,4.949-2.2s7.035-.146,7.351,3.245h0C38.736,32.881,37.493,30.736,35.887,29.945Z"/><path class="cls-6" d="M35.887,29.945a1.108,1.108,0,0,0-1.467.475q-.447.82-3.356.82c-5.5,0-4.949,4.4-4.949,4.4-2.75,0-1.65,4.95-1.65,4.95h.26a1.8,1.8,0,0,0,1.552-1.775,1.307,1.307,0,0,1,1.532-1.079,17.022,17.022,0,0,0,3.255.324,10.938,10.938,0,0,0,3.256-.324c3.124-1.086,3.344,2.854,3.344,2.854C39.455,34.3,37.977,30.975,35.887,29.945Z"/><path class="cls-11" d="M48.612,62.78c.327,0,.509.892.516.934A2.2,2.2,0,0,0,53.5,63.17c-.273-2.306-1.918-4.79-4.883-4.79Z"/><g class="cls-19"><line class="cls-6" x1="50.475" x2="50.475" y1="14.985" y2="29.98"/><path class="cls-20" d="M50.472,36.027c-5.68-2.521-3.515-9.532,0-6.047C53.987,26.5,56.155,33.505,50.472,36.027Z"/><line class="cls-6" x1="39.475" x2="39.475" y1="14.985" y2="25.068"/><path class="cls-20" d="M39.472,28.527c-3.249-1.442-2.01-5.453,0-3.459C41.483,23.074,42.723,27.084,39.472,28.527Z"/><line class="cls-6" x1="61.475" x2="61.477" y1="14.985" y2="25.068"/><path class="cls-20" d="M61.477,28.527c3.249-1.442,2.011-5.453,0-3.459C59.466,23.074,58.226,27.084,61.477,28.527Z"/></g><ellipse class="cls-3" cx="69.208" cy="92.291" rx="11" ry="1.65"/><path class="cls-4" d="M62.059,71.391v19.25a1.1,1.1,0,0,0,1.1,1.1h2.784a1.1,1.1,0,0,0,1.1-1.065l.4-12.552A1.817,1.817,0,0,1,68.752,76.4a1.77,1.77,0,0,1,2.221,1.653l.4,12.625a1.1,1.1,0,0,0,1.1,1.065h2.785a1.1,1.1,0,0,0,1.1-1.1V71.391Z"/><rect class="cls-5" height="2.75" width="14.3" x="62.059" y="71.391"/><path class="cls-6" d="M62.059,71.391v19.25a1.1,1.1,0,0,0,1.1,1.1h2.784a1.1,1.1,0,0,0,1.1-1.065l.4-12.552A1.817,1.817,0,0,1,68.752,76.4a1.77,1.77,0,0,1,2.221,1.653l.4,12.625a1.1,1.1,0,0,0,1.1,1.065h2.785a1.1,1.1,0,0,0,1.1-1.1V71.391Z"/><path class="cls-7" d="M76.61,91.741a1.1,1.1,0,0,0,.987-1.595,3.3,3.3,0,0,0-2.889-1.7h-.55a3.3,3.3,0,0,0-2.89,1.7,1.1,1.1,0,0,0,.987,1.595Z"/><path class="cls-7" d="M66.16,91.741a1.1,1.1,0,0,0,.987-1.595,3.3,3.3,0,0,0-2.889-1.7h-.55a3.3,3.3,0,0,0-2.89,1.7,1.1,1.1,0,0,0,.987,1.595Z"/><path class="cls-8" d="M69.208,51.041a11.551,11.551,0,0,0-3.595.571l.032,19.779h7.128L72.8,51.613A11.524,11.524,0,0,0,69.208,51.041Z"/><line class="cls-6" x1="69.209" x2="69.209" y1="54.891" y2="71.391"/><path class="cls-11" d="M69.208,51.041a11.544,11.544,0,0,0-3.355.5l3.355,3.354,3.355-3.354A11.549,11.549,0,0,0,69.208,51.041Z"/><path class="cls-4" d="M57.658,62.591c0,1.1.132,2.205-1.1,2.442-.906.226-1.262-.351-1.716-1.078L50.52,66.309c3.577,6.049,9.814,3.451,11.539.946V77.441c.858,1.727,1.65,0,1.65,0a46.9,46.9,0,0,0,3.3-16.5l-1.4-9.329A11.554,11.554,0,0,0,57.658,62.591Z"/><path class="cls-9" d="M65.928,53.712l-.315-2.1a11.554,11.554,0,0,0-7.955,10.979c0,.368.014.736-.012,1.072A11.6,11.6,0,0,1,65.928,53.712Z"/><path class="cls-4" d="M80.758,62.591a11.556,11.556,0,0,0-7.947-10.976l-1.4,9.326A43.95,43.95,0,0,0,72.844,71.7a1.585,1.585,0,0,0,.49.8l2.334,2.042a1.092,1.092,0,0,0,1.442.006,10.788,10.788,0,0,0,3.649-8.1V62.59Z"/><path class="cls-9" d="M80.758,64.791h0v-2.2h0a11.556,11.556,0,0,0-7.947-10.976l-.316,2.1A11.554,11.554,0,0,1,80.758,64.791Z"/><path class="cls-6" d="M80.758,62.591a11.556,11.556,0,0,0-7.947-10.976l-1.4,9.326A43.95,43.95,0,0,0,72.844,71.7a1.585,1.585,0,0,0,.49.8l2.334,2.042a1.092,1.092,0,0,0,1.442.006,10.788,10.788,0,0,0,3.649-8.1V62.59Z"/><line class="cls-6" x1="62.058" x2="62.058" y1="59.841" y2="67.255"/><path class="cls-10" d="M57.658,62.591c0,1.1.132,2.205-1.1,2.442-.906.226-1.262-.351-1.716-1.078L50.52,66.309c3.577,6.049,9.814,3.451,11.539.946V77.441c.858,1.727,1.65,0,1.65,0a46.9,46.9,0,0,0,3.3-16.5l-1.4-9.329A11.554,11.554,0,0,0,57.658,62.591Z"/><path class="cls-21" d="M51.449,65.8a2.529,2.529,0,0,0,3.169-2.1,2.646,2.646,0,0,0-2.007-2.822l-.632-.171a1.685,1.685,0,0,0-2.058,1.15l-.477,1.617a1.686,1.686,0,0,0,1.175,2.1Z"/><path class="cls-22" d="M49.92,63.506a1.687,1.687,0,0,1,2.059-1.15l.632.171a2.779,2.779,0,0,1,1.874,1.693,2.586,2.586,0,0,0,.133-.521,2.646,2.646,0,0,0-2.007-2.822l-.632-.171a1.687,1.687,0,0,0-2.059,1.15l-.476,1.617a1.677,1.677,0,0,0,.12,1.241Z"/><path class="cls-6" d="M51.449,65.8a2.529,2.529,0,0,0,3.169-2.1,2.646,2.646,0,0,0-2.007-2.822l-.632-.171a1.685,1.685,0,0,0-2.058,1.15l-.477,1.617a1.686,1.686,0,0,0,1.175,2.1Z"/><path class="cls-11" d="M69.209,33.441a6.6,6.6,0,0,1,6.6,6.6v.881a1.347,1.347,0,0,1-.139,2.667,6.6,6.6,0,0,1-13.061-1.348v-2.2A6.6,6.6,0,0,1,69.209,33.441Z"/><circle class="cls-15" cx="70.034" cy="40.866" r="0.825"/><circle class="cls-15" cx="65.634" cy="40.866" r="0.825"/><circle class="cls-16" cx="72.234" cy="43.066" r="0.825"/><path class="cls-6" d="M69.759,45.042a2.975,2.975,0,0,1-3.3,0"/><path class="cls-17" d="M62.609,38.941c-1.324-.661-.8-4.094.4-4.652l-.861-.688a1,1,0,0,1,.687-1.81h8.116a5.267,5.267,0,0,1,5.407,5.146v3.971c-3.971,0-4-3.123-7.393-3.971-.087.771-1.074,1.5-2.647,1.985a1.945,1.945,0,0,0-1.986-1.985Z"/><path class="cls-18" d="M70.952,31.791H62.837a1,1,0,0,0-.688,1.81l.518.414a1.289,1.289,0,0,1,.17-.024h8.115a5.267,5.267,0,0,1,5.407,5.146v-2.2A5.267,5.267,0,0,0,70.952,31.791Z"/><path class="cls-6" d="M62.609,38.941c-1.324-.661-.8-4.094.4-4.652l-.861-.688a1,1,0,0,1,.687-1.81h8.116a5.267,5.267,0,0,1,5.407,5.146v3.971c-3.971,0-4-3.123-7.393-3.971-.087.771-1.074,1.5-2.647,1.985a1.945,1.945,0,0,0-1.986-1.985Z"/><path class="cls-12" d="M71.409,60.941a42.456,42.456,0,0,0,.759,7.732l3.091-8.832-1.65-3.85,2.2-.55-.436-2.617a11.5,11.5,0,0,0-2.562-1.209Z"/><path class="cls-13" d="M75.373,52.824a11.5,11.5,0,0,0-2.562-1.209l-.316,2.1h0a11.507,11.507,0,0,1,3.29,1.579Z"/><path class="cls-10" d="M71.409,60.941a42.456,42.456,0,0,0,.759,7.732l3.091-8.832-1.65-3.85,2.2-.55-.436-2.617a11.5,11.5,0,0,0-2.562-1.209Z"/><path class="cls-6" d="M76.359,59.841l0,6.736c0,1.943-1.544,5.068-3.023,5.914"/><path class="cls-12" d="M63.043,52.823l-.434,2.618,2.2.55-1.65,3.85,3.08,8.8a41.911,41.911,0,0,0,.77-7.7l-1.4-9.329A11.519,11.519,0,0,0,63.043,52.823Z"/><path class="cls-13" d="M65.928,53.714l-.315-2.1a11.519,11.519,0,0,0-2.57,1.211l-.409,2.471A11.493,11.493,0,0,1,65.928,53.714Z"/><path class="cls-6" d="M63.043,52.823l-.434,2.618,2.2.55-1.65,3.85,3.08,8.8a41.911,41.911,0,0,0,.77-7.7l-1.4-9.329A11.519,11.519,0,0,0,63.043,52.823Z"/><path class="cls-14" d="M69.209,55.991l.642-.55a3.925,3.925,0,0,1,1.872-1,1.109,1.109,0,0,1,1.336,1.078v.942a1.108,1.108,0,0,1-1.336,1.078,3.907,3.907,0,0,1-1.872-1Z"/><path class="cls-14" d="M69.209,55.991l-.642-.55a3.925,3.925,0,0,0-1.872-1,1.109,1.109,0,0,0-1.336,1.078v.942a1.108,1.108,0,0,0,1.336,1.078,3.907,3.907,0,0,0,1.872-1Z"/><circle class="cls-14" cx="69.209" cy="55.991" r="1.1"/></g></svg>