<?xml version="1.0" ?><svg id="Multicolor" viewBox="0 0 100 112" xmlns="http://www.w3.org/2000/svg"><defs><style>.cls-1{fill:#fff0ed;}.cls-2{fill:#45413c;fill-opacity:0.15;}.cls-3{fill:#ff87af;stroke:#45413c;stroke-linecap:round;stroke-linejoin:round;}</style></defs><title/><g id="Scene"><circle class="cls-1" cx="50" cy="56" r="40"/><ellipse class="cls-2" cx="50" cy="87.93" rx="15.53" ry="1.72"/><path class="cls-3" d="M65,51a15,15,0,0,0-7.18-12.8A14.5,14.5,0,0,0,64.5,26a2.5,2.5,0,0,0-5,0,9.5,9.5,0,0,1-19,0,2.5,2.5,0,0,0-5,0,14.5,14.5,0,0,0,6.68,12.2A15,15,0,0,0,47,65.7V70H44a3,3,0,0,0,0,6h3v4a3,3,0,0,0,6,0V76h3a3,3,0,0,0,0-6H53V65.7A15,15,0,0,0,65,51ZM41,51a9,9,0,1,1,9,9A9,9,0,0,1,41,51Z"/></g></svg>