<?xml version="1.0" ?><svg id="Multicolor" viewBox="0 0 100 112" xmlns="http://www.w3.org/2000/svg"><defs><style>.cls-1{fill:#fff0ed;}.cls-2{fill:#45413c;fill-opacity:0.15;}.cls-3{fill:#9f5ae5;}.cls-4{fill:#ff6196;}.cls-5{fill:#2d86fa;}.cls-6{fill:#ff87af;}.cls-7{fill:none;stroke:#45413c;stroke-linecap:round;stroke-linejoin:round;}.cls-8{fill:#bf8df2;}.cls-9{fill:#53aaf9;}</style></defs><title/><g id="Scene"><circle class="cls-1" cx="50" cy="56" r="40"/><ellipse class="cls-2" cx="50" cy="85.93" rx="15.52" ry="1.72"/><path class="cls-3" d="M46.63,64.66l-.1,2.52,5,.18.1-2.52A12.44,12.44,0,0,0,61.88,54.24l-5-.18a7.45,7.45,0,0,1-14.7-.54l-5-.18A12.44,12.44,0,0,0,46.63,64.66Z"/><path class="cls-4" d="M42.13,52.31a7.45,7.45,0,1,1,14.75,1.74l5,.18c.05-.39.09-.78.1-1.17a12.41,12.41,0,1,0-24.81-.94q0,.61,0,1.2l5,.18A7.49,7.49,0,0,1,42.13,52.31Z"/><path class="cls-5" d="M46.43,69.87,44,69.78a2.48,2.48,0,1,0-.19,5l2.48.09-.13,3.31a2.48,2.48,0,1,0,5,.19L51.21,75l2.48.09a2.48,2.48,0,0,0,.19-5l-2.48-.09.1-2.69-5-.18Z"/><path class="cls-6" d="M41.08,45.64A13.25,13.25,0,0,1,61.94,51.5h0v0l0-.26v-.06l0-.27v0l0-.24v-.05l0-.27v-.05l0-.23v-.05l-.06-.25,0-.07-.05-.21v-.05l-.07-.24,0-.08-.06-.21,0-.08-.07-.2,0-.1-.07-.18,0-.13L61.1,48l0-.11L61,47.69l-.05-.12-.05-.12-.06-.12-.09-.18L60.66,47l0-.09-.14-.26,0,0-.08-.14,0-.07-.16-.27v0l-.1-.15,0,0-.19-.29h0l-.3-.43v0l-.2-.26h0l-.33-.4,0,0-.22-.24v0l-.35-.37,0,0-.21-.21,0,0-.37-.34,0,0L57.48,43l-.05,0-.12-.1,0,0-.22-.17L57,42.64l-.18-.13-.08-.06-.12-.08-.1-.07-.17-.11-.1-.06-.16-.1L56,42l-.11-.06-.17-.1-.1-.06-.13-.07-.13-.07-.15-.08-.1,0-.19-.09-.09,0-.16-.07-.09,0-.19-.08-.09,0L54,41l-.08,0-.2-.07-.06,0-.23-.08-.07,0-.24-.07-.07,0-.22-.06h0l-.24-.06-.06,0-.25-.06h-.06l-.26-.05h0l-.27,0h-.06l-.27,0h-.05l-.28,0h0l-.28,0h-.05l-.28,0H48.74l-.24,0h-.06l-.27,0h-.06l-.23,0h-.06l-.26,0H47.5l-.24,0h0l-.26.05h-.07l-.24.06h0l-.26.07-.07,0-.25.07h0l-.23.07-.07,0-.25.08,0,0-.21.08-.06,0-.24.09-.06,0-.2.08-.06,0-.23.1-.06,0-.2.1,0,0-.23.12-.07,0-.19.11,0,0-.22.13-.06,0L43,42l0,0-.19.12-.06,0-.21.14,0,0-.17.12-.06,0-.2.15-.05,0-.16.13-.05,0-.19.16-.06,0-.15.13-.05,0-.18.16-.06.06-.15.14,0,0-.17.17-.06.06-.15.15,0,.05-.15.16-.06.06-.16.18,0,0-.13.15-.05.07-.15.19,0,.05-.12.16-.05.07-.14.19,0,.07-.12.18,0,0-.14.21,0,0-.13.21,0,.05-.12.21,0,.06-.12.22,0,0-.12.24v0l-.11.24v0l-.11.24,0,0-.1.24,0,0-.1.25v0l-.1.26h0q-.1.28-.18.56v0l-.08.27v0l-.07.27v0l-.06.28v0q-.06.3-.11.6h0A13.27,13.27,0,0,1,41.08,45.64Z"/><path class="cls-7" d="M62,53.07A12.41,12.41,0,1,0,46.63,64.66l-.2,5.21L44,69.78a2.48,2.48,0,0,0-.19,5l2.48.09-.13,3.31a2.48,2.48,0,1,0,5,.19L51.21,75l2.48.09a2.48,2.48,0,0,0,.19-5l-2.48-.09.2-5.21A12.43,12.43,0,0,0,62,53.07Zm-19.85-.75A7.45,7.45,0,1,1,49.29,60,7.46,7.46,0,0,1,42.13,52.31Z"/><path class="cls-3" d="M50.27,49.68s0,.09,0,.13l5,.69A7.45,7.45,0,1,1,70.13,50a7.41,7.41,0,0,1-.48,2.53l5,.69a12.41,12.41,0,0,0-1.51-10l3.43-3.34L70.33,39l-.66.64a12.45,12.45,0,0,0-1.68-1l-7.38-1A12.43,12.43,0,0,0,50.27,49.68Z"/><path class="cls-3" d="M78.52,41.79a2.48,2.48,0,0,0,5,.07l0-1.09-5-.69Z"/><path class="cls-4" d="M62.86,37.44a12.42,12.42,0,0,0-2.24.17l7.38,1A12.34,12.34,0,0,0,62.86,37.44Z"/><path class="cls-4" d="M78.58,37.86l0,2.23,5,.69.12-8.84a2.48,2.48,0,0,0-2.45-2.52l-9.93-.14a2.48,2.48,0,1,0-.07,5l3.94.06L70.33,39l6.24.86Z"/><path class="cls-5" d="M62.58,57.3a7.46,7.46,0,0,1-7.32-6.8l-5-.69a12.41,12.41,0,0,0,24.37,3.37l-5-.69A7.46,7.46,0,0,1,62.58,57.3Z"/><path class="cls-8" d="M50.28,49.81l1.84.25a13.26,13.26,0,0,1,17.3-10.64l0,0L69,39.17l0,0-.12-.07-.48-.26,0,0-.21-.1,0,0-.09,0-7.36-1a12.45,12.45,0,0,0-2.62.74l-.07,0-.12,0-.11,0-.13.06-.17.08,0,0-.2.1,0,0-.19.1,0,0-.18.1-.05,0-.18.1-.05,0-.17.1-.06,0-.16.1-.06,0-.16.1-.06,0-.15.11-.06,0-.15.11-.06,0-.15.11-.06,0-.15.11-.06.05-.14.12-.06,0-.15.12-.05,0-.14.13-.06.05-.14.13-.05.05L54,41l-.05.05-.13.14,0,0-.13.14-.05.06-.12.14,0,.05-.13.15,0,0L53.1,42l0,0-.13.17,0,0-.14.18,0,0-.14.18,0,0-.13.18v0l-.14.2h0a12.42,12.42,0,0,0-.78,1.37l0,.06-.06.12-.06.12,0,.06-.19.45h0l-.19.49v0l0,.13,0,0v0A12.44,12.44,0,0,0,50.28,49.81Z"/><path class="cls-6" d="M66.69,38.1l-.09,0a12.47,12.47,0,0,0-6-.46l7.36,1a12.34,12.34,0,0,0-1.19-.49Z"/><path class="cls-6" d="M83,30.25l-.08-.09h0l-.1-.09,0,0L82.72,30l-.1-.08h0l-.1-.07h0l-.11-.07h0l-.1-.05-.12-.06,0,0,0,0-.11,0h0l-.08,0h0l-.08,0h0l-.15,0h-.42l-9.93-.14a2.48,2.48,0,0,0-2.52,2.45v0s0,0,0,.07v0s0,.05,0,.07h0v.21h0l0,.08h0v.13l0,.08v0l0,.08h0a2.48,2.48,0,0,1,2.36-1.62l9.93.14a2.48,2.48,0,0,1,2.45,2.51l0-1.66A2.47,2.47,0,0,0,83,30.25Z"/><path class="cls-9" d="M52.24,54.64a13.33,13.33,0,0,1-.18-4.21c0-.12,0-.24,0-.36l-1.84-.25c0,.18,0,.36,0,.54a12.46,12.46,0,0,0,.95,4.29l.14.33.07.15,0,.07.1.21,0,0,.11.21,0,.05.27.48v0l.14.23,0,.08.11.17,0,.07.12.18,0,.07.12.17.06.08.12.15.07.09.11.14.08.1.11.13.08.09.11.13.08.08.06.07a13.2,13.2,0,0,1-1.29-3.59Z"/><path class="cls-7" d="M81.18,29.41l-9.93-.14a2.48,2.48,0,1,0-.07,5l3.94.05-5.45,5.3a12.42,12.42,0,1,0,3.46,3.56l5.45-5.3-.05,3.94a2.48,2.48,0,1,0,5,.07l.14-9.93A2.48,2.48,0,0,0,81.18,29.41ZM62.58,57.3A7.45,7.45,0,1,1,70.13,50,7.46,7.46,0,0,1,62.58,57.3Z"/><path class="cls-3" d="M15,45.59a2.48,2.48,0,0,0,4.94-.49l-.1-1L15,45.53Z"/><path class="cls-3" d="M36.13,39.36,30,41.16a12.39,12.39,0,0,0-1.39,1L28,41.72l-5.78,1.69L25.41,46A12.41,12.41,0,0,0,25,56.67l4.83-1.41a7.45,7.45,0,1,1,14-4.23v.15l4.83-1.41A12.43,12.43,0,0,0,36.13,39.36Z"/><path class="cls-4" d="M22.68,37.34l3.92-.39A2.48,2.48,0,1,0,26.11,32l-9.88,1A2.48,2.48,0,0,0,14,35.7l1,9.82,4.85-1.41-.29-2.94,2.72,2.23L28,41.72Z"/><path class="cls-4" d="M35.17,39.42A12.34,12.34,0,0,0,30,41.16l6.18-1.8Q35.65,39.37,35.17,39.42Z"/><path class="cls-5" d="M37.13,59.18a7.46,7.46,0,0,1-7.32-3.92L25,56.67a12.41,12.41,0,0,0,23.76-6.13q0-.39-.1-.77l-4.83,1.41A7.46,7.46,0,0,1,37.13,59.18Z"/><path class="cls-8" d="M37.11,41.23a13.18,13.18,0,0,1,6.3,3.52q.43.43.82.89l.26.32a13.15,13.15,0,0,1,2.26,4.37l1.9-.55A12.39,12.39,0,0,0,47.85,47l0-.1-.06-.14-.1-.21v0a12.27,12.27,0,0,0-.79-1.43l0,0-.12-.19,0,0-.13-.18,0,0-.15-.21h0L46.05,44h0l-.16-.19,0,0-.13-.15,0-.05-.13-.15,0,0-.15-.16,0,0-.37-.37,0,0-.16-.15-.06-.05-.13-.12-.07-.06-.13-.11-.07-.06-.14-.11L44.09,42,44,41.93l-.06,0-.2-.15-.07,0-.14-.1-.09-.06-.12-.08-.1-.06-.12-.08-.1-.06-.12-.07-.1-.06L42.62,41l-.1-.06-.17-.1-.14-.07-.12-.06L42,40.68l-.11-.05-.12-.06-.11-.05-.09,0-.15-.06-.16-.07-.1,0L41,40.24l-.06,0L40.23,40l-.08,0-.06,0h0a12.49,12.49,0,0,0-4-.55L30,41.16l0,0-.1.06-.08.05-.07,0-.1.06-.05,0q-.36.24-.69.5A13.29,13.29,0,0,1,37.11,41.23Z"/><path class="cls-6" d="M14.1,36.64h.11a2.48,2.48,0,0,1,2.19-2l9.88-1a2.48,2.48,0,0,1,2.49,1.41v0c0-.05,0-.11,0-.16v-.3h0v-.18s0,0,0,0v-.07h0V34.1l0-.1v0l0-.08v-.11l0-.07,0-.06,0-.11h0l0,0,0-.08h0v0l0-.07,0-.07v0L28.38,33,28.32,33v0l-.09-.11,0,0,0,0,0,0,0,0h0L28,32.6l0,0-.08-.07h0l-.16-.11h0l-.09-.06h0l-.1-.05h0l-.05,0,0,0-.08,0,0,0-.07,0-.06,0,0,0-.08,0h0l-.07,0h0l-.09,0h-.65l-2.22.22L16.23,33h-.36l-.06,0-.05,0-.06,0,0,0-.06,0-.05,0-.06,0,0,0-.06,0,0,0-.05,0,0,0-.05,0,0,0-.05,0,0,0-.05,0,0,0,0,0-.06,0,0,0-.17.17h0l-.07.08,0,0,0,.06,0,0,0,.06,0,0,0,.06,0,0,0,.06,0,0,0,.06,0,0,0,.07,0,.07,0,.06,0,.05,0,.05,0,.05,0,.06v.51s0,.07,0,.11v.05s0,0,0,.06,0,0,0,.06v.1Z"/><path class="cls-6" d="M36.11,39.37a12.45,12.45,0,0,0-4.63,1h0l-.09,0h0l-.07,0-.07,0-.1,0-.06,0-.1,0-.05,0-.1.05-.05,0-.1.05-.05,0-.1.05-.06,0-.09.05-.06,0-.09.05-.06,0-.1.06-.05,0h0Z"/><path class="cls-9" d="M46.42,59.09a12.52,12.52,0,0,0,1.14-1.9l.07-.16v0a12.47,12.47,0,0,0,.48-1.19h0q.2-.59.34-1.19a12.53,12.53,0,0,0,.17-4.86l-1.9.55q.16.54.28,1.1a13.28,13.28,0,0,1-.8,7.92h0l.18-.24Z"/><path class="cls-7" d="M14,35.7l1,9.88a2.48,2.48,0,1,0,4.94-.49l-.39-3.92L25.41,46a12.42,12.42,0,1,0,3.15-3.84l-5.88-4.81,3.92-.39A2.48,2.48,0,1,0,26.11,32l-9.88,1A2.48,2.48,0,0,0,14,35.7ZM29,52.51a7.45,7.45,0,1,1,8.15,6.67A7.46,7.46,0,0,1,29,52.51Z"/><path class="cls-3" d="M43.9,63.64a12.32,12.32,0,0,0,2.73,1l.59-1L49.29,60a7.46,7.46,0,0,1-6.88-5.4,7.36,7.36,0,0,1-.23-1.13l-5-.18a12.33,12.33,0,0,0,.15,1.31A12.46,12.46,0,0,0,43.9,63.64Z"/><path class="cls-4" d="M42.13,52.31l-5-.19q0,.61,0,1.2l5,.18A7.44,7.44,0,0,1,42.13,52.31Z"/><path class="cls-7" d="M37.17,52.13a12.43,12.43,0,0,0,9.46,12.53"/><path class="cls-7" d="M49.29,60a7.46,7.46,0,0,1-7.16-7.73"/><path class="cls-4" d="M50,40.19l-.19,5A7.45,7.45,0,0,1,57,52.88l5,.19A12.43,12.43,0,0,0,50,40.19Z"/><path class="cls-6" d="M61.94,51.5q0-.22,0-.44V51l0-.18v-.05l0-.2v0q0-.24-.09-.48h0l0-.22v0l-.05-.21v0q-.09-.35-.19-.69v0l-.07-.21h0q-.11-.34-.25-.67v0l-.08-.2v0q-.14-.32-.29-.64v0l-.09-.18,0,0-.1-.18v0l-.23-.4,0,0-.09-.15,0-.05L60,45.87l0-.05-.12-.18a12.39,12.39,0,0,0-.75-1l-.23-.27-.24-.26A12.37,12.37,0,0,0,50,40.19l-.09,2.48a13.25,13.25,0,0,1,12,8.83Z"/><path class="cls-7" d="M62,53.07A12.43,12.43,0,0,0,50,40.19"/><path class="cls-7" d="M49.85,45.15A7.46,7.46,0,0,1,57,52.88"/></g></svg>