<?xml version="1.0" ?><!DOCTYPE svg  PUBLIC '-//W3C//DTD SVG 1.1//EN'  'http://www.w3.org/Graphics/SVG/1.1/DTD/svg11.dtd'><svg height="100%" style="fill-rule:evenodd;clip-rule:evenodd;stroke-linejoin:round;stroke-miterlimit:1.41421;" version="1.1" viewBox="0 0 101 126" width="100%" xml:space="preserve" xmlns="http://www.w3.org/2000/svg" xmlns:serif="http://www.serif.com/" xmlns:xlink="http://www.w3.org/1999/xlink"><g><rect height="14" style="fill:#a2a2a2;" width="40" x="30.594" y="87.533"/><rect height="40" style="fill:#fff;" width="40" x="30.594" y="39.533"/><rect height="8" style="fill:#a2a2a2;" width="40" x="30.594" y="23.533"/><path d="M70.594,109.533c4.4,0 8,-3.6 8,-8l0,-78c0,-4.4 -3.6,-8 -8,-8l-40,0c-4.4,0 -8,3.6 -8,8l0,78c0,4.4 3.6,8 8,8l40,0Zm-40,-8l0,-14l40,0l0,14l-40,0Zm0,-22l0,-40l40,0l0,40l-40,0Zm40,-56l0,8l-40,0l0,-8l40,0Z" style="fill-rule:nonzero;"/><path d="M30.594,99.533l0,2l40,0l0,-4l-40,2Z" style="fill:#020000;fill-opacity:0.207008;"/><path d="M30.594,77.533l0,2l40,0l0,-4l-40,2Z" style="fill:#020000;fill-opacity:0.207008;"/><path d="M30.594,29.533l0,2l40,0l0,-4l-40,2Z" style="fill:#020000;fill-opacity:0.207008;"/><rect height="8" width="10" x="45.594" y="90.533"/></g></svg>