<?xml version="1.0" ?><!DOCTYPE svg  PUBLIC '-//W3C//DTD SVG 1.1//EN'  'http://www.w3.org/Graphics/SVG/1.1/DTD/svg11.dtd'><svg height="100%" style="fill-rule:evenodd;clip-rule:evenodd;stroke-linejoin:round;stroke-miterlimit:1.41421;" version="1.1" viewBox="0 0 101 126" width="100%" xml:space="preserve" xmlns="http://www.w3.org/2000/svg" xmlns:serif="http://www.serif.com/" xmlns:xlink="http://www.w3.org/1999/xlink"><g><path d="M50.394,80.171c9.4,0 17,-7.6 17,-17l0,-26c0,-9.4 -7.6,-17 -17,-17c-9.4,0 -17,7.6 -17,17l0,26c0,9.3 7.6,17 17,17Zm-9,-43c0,-5 4,-9 9,-9c5,0 9,4 9,9l0,26c0,5 -4,9 -9,9c-5,0 -9,-4 -9,-9l0,-26Z" style="fill-rule:nonzero;"/><path d="M46.394,90.871l0,7.2l-8.5,0l0,8l25.1,0l0,-8l-8.6,0l0,-7.2c13,-1.7 23,-11.7 23,-23.7l0,-4l-8,0l0,4c0,8.8 -8.5,16 -19,16c-10.5,0 -19,-7.2 -19,-16l0,-4l-8,0l0,4c0,12 10,22 23,23.7Z" style="fill-rule:nonzero;"/><path d="M41.394,37.171c0,-5 4,-9 9,-9c5,0 9,4 9,9l0,26c0,5 -4,9 -9,9c-5,0 -9,-4 -9,-9l0,-26Z" style="fill:#dadada;"/><path d="M41.394,39.621c1.665,12.916 1.877,27.802 13.277,31.802c-19.663,5.996 -15.307,-14.62 -13.277,-31.802Z" style="fill:#020000;fill-opacity:0.19889;"/></g></svg>