<?xml version="1.0" ?><!DOCTYPE svg  PUBLIC '-//W3C//DTD SVG 1.1//EN'  'http://www.w3.org/Graphics/SVG/1.1/DTD/svg11.dtd'><svg height="100%" style="fill-rule:evenodd;clip-rule:evenodd;stroke-linejoin:round;stroke-miterlimit:1.41421;" version="1.1" viewBox="0 0 101 126" width="100%" xml:space="preserve" xmlns="http://www.w3.org/2000/svg" xmlns:serif="http://www.serif.com/" xmlns:xlink="http://www.w3.org/1999/xlink"><path d="M26.631,107.316l48,0c4.4,0 8,-3.6 8,-8l0,-46c0,-4.4 -3.6,-8 -8,-8l-5,0l0,-6.5c0,-10.6 -8.5,-19.2 -19,-19.2c-10.5,0 -19,8.6 -19,19.2l0,6.5l-5,0c-4.4,0 -8,3.6 -8,8l0,46c0,4.4 3.6,8 8,8Zm13,-68.6c0,-6.2 4.9,-11.2 11,-11.2c6.1,0 11,5 11,11.2l0,6.5l-22,0l0,-6.5Zm-13,14.6l5,0l0,20.2l8,0l0,-20.2l22,0l0,20.2l8,0l0,-20.2l5,0l0,46l-48,0l0,-46Z" style="fill-rule:nonzero;"/><path d="M74.631,99.316l0,-46l-5,0l0,20.2l-8,0l0,-20.2l-22,0l0,20.2l-8,0l0,-20.2l-5,0l0,46l48,0Z" style="fill:#fff01b;"/><path d="M26.631,96.316l0,3l48,0l0,-7l-48,4Z" style="fill:#020000;fill-opacity:0.2;"/></svg>