<?xml version="1.0" ?><!DOCTYPE svg  PUBLIC '-//W3C//DTD SVG 1.1//EN'  'http://www.w3.org/Graphics/SVG/1.1/DTD/svg11.dtd'><svg enable-background="new 0 0 512 512" id="Layer_1" version="1.1" viewBox="0 0 512 512" xml:space="preserve" xmlns="http://www.w3.org/2000/svg" xmlns:xlink="http://www.w3.org/1999/xlink"><g><path d="M258.8,507.2C120.4,507.8,6.6,392.6,9.9,251.9C13,118,123.9,7.2,261.9,8.7C398.7,10.1,511.8,124,508.1,264.8   C504.6,398.2,394.6,507.9,258.8,507.2z M477.8,258.1C476.9,135,379.3,40.1,263,38C142.8,35.8,40.3,132.6,40.4,258.1   C40.5,381.4,139.1,476,255.2,478C375.2,480,476.8,383.5,477.8,258.1z"/><path d="M279.1,94.3c-5,15.9-10,31.4-15.1,47.5c26.1,1.5,50.4,7.6,72.5,21.4c8.1-6.4,17.1-9.1,27.1-6.4c11.1,3,18.3,10.2,20.8,21.4   c2.5,11-0.2,21.1-9,28.4c-3.6,3-4.6,5.9-4.5,10.4c0.5,22.6-11.1,39-28.3,51.7c-8.5,6.3-18.1,11-26.2,15.9   c5,5.2,11.4,10.4,15.9,16.8c17,24.1,11,60.8-12.1,77.6c-2,1.5-4.1,3.2-6.5,3.7c-8.8,1.8-9,9.3-11.5,15.9c10.7,0.1,20,2.8,27.2,10.4   c5.7,6,8.2,13.2,6.4,21.5c-0.8,3.8-2.7,5.6-6.9,5.6c-48.3-0.1-96.7-0.1-145,0c-4.7,0-6.5-2.2-7.2-6.4c-1.7-11.3,4.2-22.4,15.8-27.3   c5.4-2.3,11.4-3.2,17.4-4.8c-1.2-3.2-2.4-7-4-10.6c-0.4-1-1.7-2-2.7-2.4c-25.2-9-36.4-39.1-31.1-63c3-13.7,8.8-26,25.5-36.6   c-7.4-4.1-15-7.7-22.1-12.2c-13.6-8.7-25-19.7-30.3-35.3c-2.5-7.4-2.8-15.6-3.5-23.5c-0.2-2.8-0.5-4.8-2.8-6.8   c-12-10.2-14.1-27.4-5.1-39.5c9.4-12.7,26.2-15.8,39.6-7.2c2.5,1.6,4.2,1.7,6.7,0.3c21-12.3,44-17.9,68.1-18.9   c4-0.2,5.7-1.3,6.8-5.3c4.6-15.6,9.7-31.1,14.7-46.7c2.1-6.6,3.4-7.4,10.2-5.8c12.5,2.9,25,5.8,37.4,9c3.2,0.8,4.7,0.2,6.4-2.5   c5.7-9,15.5-12.7,26-10.3c9.1,2.1,16.3,10,17.8,19.5c1.6,9.9-3.3,19.9-12.2,24.9c-13.8,7.8-31.8-0.3-34.8-15.8   c-0.8-4-2.3-5.8-6.3-6.6C302.9,100,291.3,97.1,279.1,94.3z M252.6,151.4c-5.4,0.6-14.9,1-24.2,2.7c-22.3,3.9-42.9,12-59.7,27.9   c-17.5,16.5-21.8,37.8-11.7,57.5c5.9,11.4,15.1,19.8,25.9,26.4c27.2,16.5,57.1,21.3,88.4,18.6c25.2-2.2,48.7-9.3,68.6-25.7   c14.5-11.9,23.7-26.7,21.1-46.4c-2.2-16.2-12-27.9-24.7-37.2C312.5,157.9,285.3,152.1,252.6,151.4z M209.2,288.4   c-0.4,1.8-0.7,2.9-0.9,4c-4.1,31.8-2,63.2,8.2,93.7c4.4,13.2,10.6,25.5,20.9,35.4c3.8,3.6,7.7,6,13.3,5.4c4.6-0.5,9.3,0.2,14-0.2   c2.5-0.2,5.3-1,7.3-2.4c10.2-7.4,16.2-18,21-29.2c10.7-25.3,14.1-51.9,13.6-79.1c-0.2-9.1-1.4-18.1-2.2-27.6   C272.1,297.2,240.8,297.2,209.2,288.4z M315.2,297.5c2.6,25.7,0.9,50.5-4.5,75.6C336.8,360.5,339.4,315,315.2,297.5z M201.4,372.6   c-1.5-12.5-3.5-24.7-4.2-37.1c-0.7-12.3-0.2-24.6-0.2-37C174,315.1,176.6,359.8,201.4,372.6z M330,103.2   c-0.3,7.9,5.9,14.5,13.7,14.8c7.8,0.2,14.4-6.1,14.6-13.9c0.2-7.7-5.7-14-13.5-14.4C336.8,89.3,330.3,95.3,330,103.2z M326.6,426.5   c0.1-0.9,0.2-1.6,0.1-2.2c-2-11-19-19.5-29.1-14.5c-0.4,0.2-1,0.4-1.2,0.8c-3.6,5.2-7.2,10.5-11,16   C299.4,426.5,313,426.5,326.6,426.5z M227.6,426.6c-3.8-5.5-7.3-10.7-10.9-15.7c-0.6-0.8-1.9-1.3-3-1.5c-7.5-1.2-14.6-0.1-20.8,4.7   c-3.9,3-6.7,6.8-5.9,12.5C200.5,426.6,213.8,426.6,227.6,426.6z M345.2,169.6c10.2,8.4,18,18.2,22.8,30.2   c8.3-6.4,9.9-17.7,3.9-25.9C365.7,165.1,354.4,163.2,345.2,169.6z M143.9,198c7.7-9.9,15.4-19.9,23-29.7c-8.6-5-19.2-2.8-25.1,5.9   C136.4,182,137.7,192.8,143.9,198z"/><path d="M295.6,222.1c-9.9-0.1-17.7-8-17.5-17.9c0.1-9.8,8.2-17.7,18-17.6c9.6,0.2,17.8,8.5,17.7,18   C313.5,214.3,305.4,222.1,295.6,222.1z"/><path d="M236.1,204.2c0.1,9.9-7.7,17.7-17.6,17.8c-10,0.1-17.7-7.5-17.7-17.6c-0.1-10,7.7-17.9,17.5-17.9   C227.9,186.5,236,194.5,236.1,204.2z"/><path d="M257.9,268c-13.8-0.6-26.4-1.5-37.4-9c-1.8-1.2-3.9-2.4-4.8-4.2c-0.9-1.7-1.2-5.2-0.2-6.1c1.4-1.2,5.1-1.9,6.4-0.9   c17.4,13.2,36.8,11.6,56.3,7.4c4.2-0.9,8.1-3.7,11.8-6.1c3-2,5.9-3.9,8.7-0.6c3,3.5,0.3,6.1-2.4,8.3c-7.4,6.2-16.2,8.9-25.6,10.1   C266.1,267.5,261.5,267.7,257.9,268z"/></g></svg>