<?xml version="1.0" ?><!DOCTYPE svg  PUBLIC '-//W3C//DTD SVG 1.1//EN'  'http://www.w3.org/Graphics/SVG/1.1/DTD/svg11.dtd'><svg enable-background="new 0 0 512 512" id="Layer_1" version="1.1" viewBox="0 0 512 512" xml:space="preserve" xmlns="http://www.w3.org/2000/svg" xmlns:xlink="http://www.w3.org/1999/xlink"><g><path d="M259,507.2C120.4,507.9,6.7,392.7,9.9,252.1C12.9,118.1,124,7,262.3,8.7c136.6,1.6,249.4,115.4,245.8,255.9   C504.7,398.1,394.7,507.8,259,507.2z M477.8,257.9c-1-125.3-102.4-221.7-222-219.9C139.3,39.7,40.2,134.7,40.4,258.3   c0.2,125.3,102.4,221.6,222,219.7C378.8,476.2,476.9,381.4,477.8,257.9z"/><path d="M185.6,226.6c31.8-24.3,63.2-48.3,94.7-72.4c5.4-4.1,10.8-8.4,16.3-12.4c2.2-1.6,3-3.1,2.6-6.1   c-3.8-28.4,17.5-51.8,44.6-49.5c17.8,1.5,33.2,15.2,37,32.9c4,18.9-4.1,37.7-20.5,47c-15.6,8.9-35.1,6.4-48.5-6.2   c-0.8-0.8-1.4-1.8-2.4-3.1c-1.9,1.4-3.4,2.5-4.8,3.6c-35.2,26.9-70.4,53.8-105.6,80.7c-2.7,2-3.9,3.8-3,7.4   c2.5,10.9,0,21.1-5.4,31.1c11.5,5.5,22.7,10.9,34,16.2c28.7,13.6,57.4,27.2,86,41c3.1,1.5,5.1,1.3,7.9-1   c17.2-14.4,42.2-12.8,56.8,3.4c15.5,17.2,15.1,43.4-0.9,59.8c-15.5,15.9-40.6,16.6-57.2,1.1c-11.9-11.1-15.6-25.1-12.7-41   c0.3-1.5,0.7-2.9,1.1-4.8c-10.8-5.2-21.6-10.3-32.4-15.4c-30.5-14.5-61-29-91.4-43.6c-3.2-1.5-5.7-1.7-9.2-0.1   c-26.8,12.7-58.1-7-58.7-36.5c-0.4-18.7,7.3-32.9,24.1-40.8c16.7-7.9,32.4-4.6,46.2,7.8C184.5,225.9,184.9,226.1,185.6,226.6z"/></g></svg>