<?xml version="1.0" ?><!DOCTYPE svg  PUBLIC '-//W3C//DTD SVG 1.1//EN'  'http://www.w3.org/Graphics/SVG/1.1/DTD/svg11.dtd'><svg enable-background="new 0 0 512 512" id="Layer_1" version="1.1" viewBox="0 0 512 512" xml:space="preserve" xmlns="http://www.w3.org/2000/svg" xmlns:xlink="http://www.w3.org/1999/xlink"><g><path d="M258.9,507.2C120.4,507.8,6.6,392.6,9.9,252c3-134,114-244.8,252-243.3C398.6,10.1,511.8,124,508.1,264.8   C504.7,398.2,394.6,507.8,258.9,507.2z M40.2,258c1,123.1,98.7,217.9,215,220c119.9,2.1,222.3-94.3,222.5-219.8   C477.8,135,379.1,39.9,262.6,38C142.8,36,41.2,132.5,40.2,258z"/><path d="M165.7,275.4c-2.5,11.7-9.7,18.1-19.6,21.7c-14.1,5.1-28.5,5.2-42.6,0.1c-12.5-4.5-20.1-13.7-22.7-26.9   c-1.8-9.2-1.4-18.3,1.5-27.1c3.5-10.8,10.9-18.2,21.5-22.1c11.7-4.2,23.9-4.7,35.9-1.7c14.7,3.6,23.9,13.1,28.1,27.9   c0-19.9,0-39.8,0-60.2c6.1,0,11.7,0,17.9,0c0,13.9,0,28,0,42.9c15.4-13.8,32.4-15.9,49.9-8.6c18.5,7.7,24.7,23.4,23.4,43.7   c8.3-12,20-14.3,32.1-15c10.4-0.6,20.9-0.1,31.2-0.1c1.7-9.3-1.6-15.9-9.2-18.6c-7.4-2.6-15.2-3.2-22.4,0c-3.2,1.4-5.5,4.9-8.2,7.4   c-1,0.9-1.9,2.6-2.9,2.7c-5.3,0.3-10.6,0.1-16.2,0.1c1.1-10,6.3-16.5,14.8-19.5c19-6.7,37.8-7,55.8,4.6c-0.6-1.7-1.3-3.4-2.2-5.9   c6.5,0,12.6-0.2,18.7,0.2c1.2,0.1,2.6,2.2,3.4,3.7c8.6,17.1,17.2,34.2,25.7,51.3c0.7,1.3,1.4,2.6,2.4,4.5   c5.5-11,10.8-21.6,16.1-32.1c4.1-8.2,8-16.5,12.3-24.5c0.8-1.5,3.1-2.9,4.8-3.1c4.8-0.4,9.6-0.1,15.3-0.1c-1.9,3.8-3.5,7-5.1,10.2   c-15.7,30.8-31.4,61.7-47,92.6c-1.5,3-3.3,4-6.5,3.8c-4.8-0.3-9.5-0.1-15.2-0.1c4.7-9,8.9-17.2,13.4-25.3c1.6-2.9,1.7-5.2,0.1-8.2   c-9.1-16.8-18-33.8-27-50.7c-0.6-1.1-1.4-2.2-2.2-3.5c0,19.5,0,38.6,0,58.1c-4.9,0-10,0-15.4,0c-0.3-3-0.7-6.1-1.1-10   c-11.7,12.9-26.1,14.5-41.3,12.6c-15.2-1.9-22.8-9.1-26.1-24.8c-6.5,14.1-16.8,22.6-31.6,24.8c-14.6,2.2-27.8-1-39.3-12   c-0.4,3.5-0.8,6.4-1.2,9.5c-5.6,0-11,0-16.8,0c0-11.3,0-22.3,0-33.7c-23.4,0-46.5,0-69.5,0c-0.8,9.4,5.1,18.8,14.2,22.7   c10.9,4.7,29.3,2.6,34.4-9.4c0.4-0.9,2-1.8,3.1-1.8C155,275.3,160,275.4,165.7,275.4z M213.2,229.9c-16.5,0-27.4,11.8-27.3,29.5   c0.1,17.4,11,29.1,27.2,29.3c16.3,0.1,27.6-11.9,27.6-29.4C240.8,241.6,229.8,229.9,213.2,229.9z M322.7,260.3   c-12.1,0.9-23.8,1.5-35.5,2.9c-6.9,0.8-10.9,5.4-11.2,10.9c-0.4,6.4,3.2,12,10,13.7c4.4,1.1,9.2,1.4,13.8,1.1   C315.1,287.9,324.1,277.1,322.7,260.3z M98.4,251.5c17,0,34,0,51.1,0c-0.8-14-9.8-22-24.7-22.3C110,229,99.5,237.7,98.4,251.5z"/></g></svg>