<?xml version="1.0" ?><!DOCTYPE svg  PUBLIC '-//W3C//DTD SVG 1.1//EN'  'http://www.w3.org/Graphics/SVG/1.1/DTD/svg11.dtd'><svg enable-background="new 0 0 512 512" id="Layer_1" version="1.1" viewBox="0 0 512 512" xml:space="preserve" xmlns="http://www.w3.org/2000/svg" xmlns:xlink="http://www.w3.org/1999/xlink"><g><path d="M258.9,507.2C120.4,507.9,6.6,392.6,9.9,252C12.9,118,124,7,262.4,8.7c136.6,1.7,249.4,115.4,245.8,256   C504.7,398.2,394.7,507.8,258.9,507.2z M477.8,258c-1-123.8-99.6-218.5-215.9-220C142.3,36.4,40.2,133,40.4,258.2   c0.2,123.9,99.7,218.4,216,219.8C375.7,479.4,476.8,383.2,477.8,258z"/><path d="M337.1,327.4c-12.6-2.5-20.7-12.1-32-18.5c0,3.3-0.2,5.4,0,7.5c1.5,15.1-3.2,27.8-14.5,38.1c-9.2,8.5-14.2,19.2-15.7,31.4   c-0.9,6.9,1.2,8.8,8.3,7.9c5.1-0.6,10.2-1.6,15.2-2.7c11.7-2.6,22.5-0.5,32.6,5.6c2.4,1.4,4.7,3.3,6.5,5.4c6.1,7.3,4,15.4-5.1,17.8   c-7.2,1.9-14.7,2.8-22.1,3.2c-9.5,0.5-19,0.2-28.5-0.1c-5.2-0.2-10.1-1.4-13.7-6c-2.5-3.3-6-2.6-8.9,0.3c-2.2,2.2-5.1,4.9-8,5.2   c-17.8,2-35.5,2-53.1-2c-4.7-1.1-9.9-2.7-10.9-8.2c-1-5.7,2.2-10.2,6.8-13.6c9.5-7,20.2-10,32-8.2c6.6,1,13.1,2.5,19.7,3.3   c6.2,0.7,8.2-1.1,7.4-7.3c-1.3-10.9-6.7-19.8-15.2-26.6c-8.7-6.8-16.8-14.2-19.5-25.1c-1.7-6.8-1.5-14.1-2-21.1   c-0.1-1.4,0.1-2.8,0.2-4.3c-0.4-0.4-0.8-0.7-1.2-1.1c-10.7,6.9-21.4,13.7-32.1,20.6c-0.4-0.5-0.9-1-1.3-1.5c1.1-1.7,2-3.5,3.3-5   c6.7-7.2,13.5-14.3,20.3-21.4c0.9-1,1.9-1.9,2.8-2.9c9.6-10.8,9.1-18.2-2.1-27.3c-10.5-8.5-19.4-18.3-24.5-30.9   c-7.3-17.7-7.6-35.6,1.7-52.6c18.8-34.6,43.2-65.1,72-91.9c9.7-9,15.2-8.7,24,1c24.8,27.2,44.6,57.7,57.1,92.4   c8.3,22.9,2.7,60.9-27.9,83.7c-2.4,1.8-4.8,3.5-7.3,5.2c-5.2,3.6-6,6.7-1.8,11.3c4.7,5.2,10,9.8,15,14.6c6.2,6,12.4,12.1,18.5,18.2   C334.6,323.7,335.8,325.6,337.1,327.4z M272.7,280.4c17.4,0.4,30.7-7.5,42.1-18.8c19.2-19.1,25.9-42.7,18.2-68.2   c-9-29.8-26.7-55.3-46.8-78.8c-11-12.8-15.3-12.5-25.2,1.3c-12.6,17.5-25.1,35.2-36.5,53.5c-6.2,9.9-12.1,20.7-15,31.8   C198,245.2,239.5,280.6,272.7,280.4z M298.9,323.4c0-17.3-14-31.2-31.1-31c-17.2,0.1-31,14-30.9,31.3c0,17.2,14.1,31.1,31.2,31.1   C285.2,354.6,298.9,340.7,298.9,323.4z M236.1,400.1c-7.7,2.3-15.5,4.4-23.2,7.1c-1.7,0.6-3.7,3-3.7,4.6c0,1.5,2.3,4.1,3.9,4.3   c5.3,0.7,10.8,1.1,16.1,0.6c6.1-0.6,12-2.3,18-3.4c4-0.7,4.9-2.2,2.9-5.7C247.2,402.1,242,401.3,236.1,400.1z M292.4,400   c-0.1,0.4-0.3,0.8-0.4,1.2c-5.1,0-10.1,0.4-13.3,5.1c-1,1.4-1.9,3.6-1.3,5c0.4,1.1,2.9,1.6,4.5,2c4.7,1,9.5,1.5,14.1,2.7   c6.4,1.7,12.7,3.2,19,0.1c1.7-0.8,3.6-2.8,3.8-4.5c0.2-1.3-1.8-3.7-3.3-4.2C307.9,404.7,300.1,402.4,292.4,400z M263.9,392.9   c5.8-3.1,8-17.2,5.5-22.6c-0.8-1.7-3.5-3.3-5.4-3.3c-1.8,0-4.5,1.6-5.4,3.2C255.6,375.7,258.9,388.5,263.9,392.9z"/><path d="M370.7,364.9c-5-3.2-10.1-6.4-15.4-9.7c-2,5.2-4,10.4-5.9,15.6c-0.6-0.1-1.2-0.2-1.8-0.2c-0.8-1.9-2-3.8-2.2-5.7   c-0.9-8.8-1.8-17.5-2.2-26.3c-0.3-6,1.4-7.5,7.4-7.2c8.4,0.5,16.9,1.4,25.3,2.4c1.5,0.2,2.9,1.7,4.3,2.7c-1.3,1.1-2.5,2.7-4,3.3   c-3,1-6.1,1.5-9.2,2.1c-4.5,0.8-5.1,2.1-2.7,6c2.6,4.3,5.2,8.5,7.6,12.8c0.4,0.7,0.1,1.9,0.1,2.9   C371.5,363.9,371.1,364.4,370.7,364.9z"/><path d="M170.2,371.7c-2.4-6.2-4.4-11.4-6.4-16.7c-5.8,2.7-9.4,8.8-18.2,9c2.7-4.9,4.5-8.8,6.8-12.4c5.8-8.8,5.8-8.5-4.4-10.7   c-3.2-0.7-6-2.8-9-4.3c3-1.3,5.8-3.5,8.9-3.9c7.4-0.9,14.9-1,22.4-1.5c3.3-0.2,5.5,1.6,5.3,4.6c-0.8,11-2.1,22-3.2,33   C172.3,369.4,171.6,369.8,170.2,371.7z"/><path d="M325.2,207.5c-0.3,10-2.1,19.7-8.3,28.2c-8,11.1-18.8,11.6-28,1.4c-7.4-8.2-7.4-8.2-13.4,1.3c-1.4,2.2-3,4.5-4.7,6.4   c-10.5,11.5-25,11.3-35-0.7c-9.4-11.2-12.1-24.6-11.3-38.8c0.6-10.6,3.3-20.7,10.2-29.2c11.9-14.7,29.1-13.9,39.5,1.8   c0.7,1.1,1.4,2.3,2.2,3.3c3.6,4.4,6.6,4.4,10.1-0.1c0.6-0.8,1.2-1.6,1.8-2.4c8.8-10.8,20.6-10.5,28.8,0.8   C322.9,187.9,324.9,197.4,325.2,207.5z M232.8,209.6c-0.2,8.9,2,17.2,7.8,24.2c7.5,9.1,18.4,9.1,26.2,0.2   c10.6-12.3,10.5-37-0.2-49.2c-7.6-8.6-18.5-8.6-25.8,0.3C234.8,192.1,232.6,200.5,232.8,209.6z M285.9,207.7   c-0.1,7.2,1.4,13.9,5.6,19.8c6.1,8.5,15.3,8.5,21.5,0c7.8-10.7,7.5-29.9-0.6-40.4c-5.4-7-13.8-7.4-19.6-0.7   C287.4,192.4,286,199.9,285.9,207.7z"/><path d="M270.9,326c1.4,2.1,3.6,4,3.9,6.2c0.5,3.5-2.1,5.6-5.5,5.6c-3.4-0.1-5.8-2.5-5.1-5.9c0.5-2.2,2.8-4,4.4-6   C269.4,325.9,270.1,326,270.9,326z"/><path d="M262.6,208.2c-1.3,4.4-2,8.5-3.8,12.1c-2.1,4.2-5.2,4.1-8,0.2c-4.3-5.9-4.2-19.2,0.2-25c2.4-3.2,5.7-3.4,7.5,0.2   C260.4,199.6,261.3,204,262.6,208.2z"/><path d="M296.8,206.9c0.9-3.2,1.3-6.5,2.7-9.4c1.7-3.5,4.7-3.4,6.9-0.2c2.9,4.1,2.9,14.7,0.1,19.1c-2.2,3.5-5.4,3.5-7.2-0.3   C298,213.4,297.7,210.2,296.8,206.9z"/></g></svg>