<?xml version="1.0" ?><svg height="512" id="svg2" version="1.1" width="512" xmlns="http://www.w3.org/2000/svg" xmlns:cc="http://creativecommons.org/ns#" xmlns:dc="http://purl.org/dc/elements/1.1/" xmlns:inkscape="http://www.inkscape.org/namespaces/inkscape" xmlns:rdf="http://www.w3.org/1999/02/22-rdf-syntax-ns#" xmlns:sodipodi="http://sodipodi.sourceforge.net/DTD/sodipodi-0.dtd" xmlns:svg="http://www.w3.org/2000/svg"><defs id="defs4"><clipPath clipPathUnits="userSpaceOnUse" id="clipPath3847"><rect height="401.85031" id="rect3849" ry="24.940269" style="fill:#005cc8;fill-opacity:1;stroke:none" width="405.50885" x="192.91168" y="341.59683"/></clipPath><clipPath clipPathUnits="userSpaceOnUse" id="clipPath4206"><rect height="342.67416" id="rect4208" ry="21.83189" style="fill:#005ad2;fill-opacity:1;stroke:none" width="342.67416" x="275.56522" y="396.76877"/></clipPath></defs><g id="layer1" transform="translate(0,-540.36218)"><rect height="506.55707" id="rect3851" ry="32.272926" style="fill:#415fa8;fill-opacity:1;stroke:none" width="506.55707" x="3.1982057" y="544.98157"/><g clip-path="url(#clipPath4206)" id="g4145" style="opacity:0.48961247;fill:#000000;fill-opacity:0.05882353" transform="matrix(1.3828822,0,0,1.3291636,-339.82296,70.702582)"><g id="g4147" style="fill:#000000;fill-opacity:0.05882353;stroke:none"><path d="m 561.53848,561.01605 c 0,61.06995 -50.79847,110.57692 -113.46155,110.57692 l 707.10677,707.10683 c 62.6631,0 113.4616,-49.507 113.4616,-110.577 z" id="path4149" style="fill:#000000;fill-opacity:0.05882353"/><path d="m 448.07693,671.59297 c -31.86024,0 -60.65337,-12.79797 -81.26213,-33.40672 l 707.1068,707.10675 c 20.6087,20.6088 49.4019,33.4068 81.2621,33.4068 z" id="path4151" style="fill:#000000;fill-opacity:0.05882353"/><path d="m 366.8148,638.18625 c -19.92477,-19.92478 -32.19941,-47.15048 -32.19941,-77.1702 l 707.10681,707.10675 c 0,30.0197 12.2746,57.2455 32.1994,77.1702 z" id="path4153" style="fill:#000000;fill-opacity:0.05882353"/><path d="m 334.61539,561.01605 c 0,-61.06994 50.79847,-110.57692 113.46154,-110.57692 l 707.10677,707.10677 c -62.6631,0 -113.4615,49.507 -113.4615,110.5769 z" id="path4155" style="fill:#000000;fill-opacity:0.05882353"/><path d="m 448.07693,450.43913 c 31.86024,0 60.65338,12.79797 81.26214,33.40672 l 707.10673,707.10675 c -20.6087,-20.6087 -49.4018,-33.4067 -81.2621,-33.4067 z" id="path4157" style="fill:#000000;fill-opacity:0.05882353"/><path d="m 529.33907,483.84585 c 19.92477,19.92478 32.19941,47.15049 32.19941,77.1702 l 707.10682,707.10675 c 0,-30.0197 -12.2747,-57.2454 -32.1995,-77.1702 z" id="path4159" style="fill:#000000;fill-opacity:0.05882353"/></g><path d="m 561.53848,561.01605 c 0,61.06995 -50.79847,110.57692 -113.46155,110.57692 -62.66307,0 -113.46154,-49.50697 -113.46154,-110.57692 0,-61.06994 50.79847,-110.57692 113.46154,-110.57692 62.66308,0 113.46155,49.50698 113.46155,110.57692 z" id="path4111" style="fill:#000000;fill-opacity:0.05882353;stroke:none"/></g><path d="m 120.28527,797.83624 c 0,-20.21076 4.40074,-39.44357 12.06127,-57.04648 l 66.82588,182.87477 C 152.3943,901.00886 120.28527,853.2528 120.28527,797.83624 m 234.21658,-7.00856 c 0,11.89826 -4.7267,25.75241 -10.59434,45.14822 l -14.01713,46.61509 -50.5269,-149.95074 15.97303,-1.62989 c 7.66052,-0.97795 6.68258,-12.06126 -0.81496,-11.57229 0,0 -22.6556,1.79289 -37.3247,1.79289 l -36.83573,-1.79289 c -7.49754,-0.48897 -8.31249,11.08332 -0.97795,11.57229 l 14.83209,1.62989 21.84066,59.32835 -30.64212,91.76335 -51.01585,-151.0917 16.136,-1.62989 c 7.49753,-0.97795 6.5196,-12.06126 -0.97794,-11.57229 0,0 -22.6556,1.79289 -37.3247,1.79289 l -8.96445,-0.16299 c 25.10045,-37.97666 67.96682,-63.07712 116.86381,-63.07712 36.34676,0 69.59671,14.01714 94.37118,36.67275 h -1.79288 c -13.69116,0 -23.47055,11.89826 -23.47055,24.77447 0,11.57229 6.68258,21.35169 13.69115,32.76099 5.37867,9.29042 11.57228,21.18869 11.57228,38.62862 m -91.92633,19.2328 43.02935,117.67872 0.97794,1.95592 c -14.50611,5.21573 -30.15315,7.98652 -46.45214,7.98652 -13.69116,0 -26.89335,-1.95592 -39.44358,-5.70463 l 41.88843,-121.91653 m 120.2866,-79.37611 c 10.92033,20.04777 17.11394,42.70338 17.11394,67.15187 0,51.50482 -28.03428,96.65302 -69.59671,120.7756 L 373.08272,795.2284 c 7.9865,-19.88477 10.75733,-35.85779 10.75733,-50.03792 l -0.97793,-14.50611 M 260.13067,634.84627 A 162.98997,162.98997 0 0 1 423.12064,797.83624 162.98997,162.98997 0 0 1 260.13067,960.82621 162.98997,162.98997 0 0 1 97.1407,797.83624 162.98997,162.98997 0 0 1 260.13067,634.84627 m 0,318.48243 c 85.73272,0 155.49243,-69.75969 155.49243,-155.49246 0,-85.73272 -69.75971,-155.49243 -155.49243,-155.49243 -85.73272,0 -155.49243,69.75971 -155.49243,155.49243 0,85.73277 69.75971,155.49246 155.49243,155.49246 z" id="path4095" style="fill:#ffffff"/></g></svg>