<?xml version="1.0" ?><svg id="Layer_1" style="enable-background:new 0 0 48 48;" version="1.1" viewBox="0 0 48 48" xml:space="preserve" xmlns="http://www.w3.org/2000/svg" xmlns:xlink="http://www.w3.org/1999/xlink"><style type="text/css">
	.st0{fill:#FF4676;}
	.st1{fill:#0F1C70;}
	.st2{fill:#FFE92E;}
	.st3{fill:#17D5D1;}
	.st4{fill:#FFFFFF;}
	.st5{fill:#EA2461;}
	.st6{fill:#F2F2F2;}
</style><g><g><g><g><g><circle class="st2" cx="24" cy="24" r="24"/></g></g></g></g><g><path class="st1" d="M27.9,15.1c1.6-1,3.7-0.5,4.7,1.2c1,1.6,0.5,3.7-1.2,4.7"/><g><g><path class="st1" d="M39.8,12.3l-5.6,3.4c-0.2,0.1-0.4,0-0.5-0.1l0,0c-0.1-0.2,0-0.4,0.1-0.5l5.6-3.4c0.2-0.1,0.4,0,0.5,0.1l0,0      C40,12,39.9,12.2,39.8,12.3z"/></g><g><path class="st1" d="M33.7,7.1l-2.1,6.1c-0.1,0.2-0.3,0.3-0.4,0.2l0,0C31,13.4,30.9,13.2,31,13L33,6.9c0.1-0.2,0.3-0.3,0.4-0.2      l0,0C33.7,6.7,33.8,6.9,33.7,7.1z"/></g><g><path class="st1" d="M41.1,20.1l-6.4-1c-0.2,0-0.3-0.2-0.3-0.4l0,0c0-0.2,0.2-0.3,0.4-0.3l6.4,1c0.2,0,0.3,0.2,0.3,0.4l0,0      C41.4,20,41.2,20.2,41.1,20.1z"/></g></g><g><g><path class="st1" d="M15.2,35l4,5.3c0.8,1.1,2.2,1.3,3.4,0.7l0,0c1.3-0.8,1.6-2.5,0.7-3.7l-3.7-4.9L15.2,35z"/></g><path class="st4" d="M13.9,34.4l0.4,0.6c0.2,0.4,0.7,0.5,1.1,0.3l4.4-2.7c0.4-0.2,0.5-0.7,0.3-1.1l-0.4-0.6L13.9,34.4z"/><g><path class="st4" d="M22,9.9l11.3,18.7c-4.5-0.8-9,0-12.9,2.3l-6.4-10.7C17.7,17.8,20.6,14.1,22,9.9z"/></g><path class="st5" d="M20.3,30.9l-5.5,3.3c-2.8,1.7-6.4,0.8-8.1-2l-0.4-0.6c-1.7-2.8-0.8-6.4,2-8.1l5.5-3.3L20.3,30.9z"/></g><path class="st5" d="M24.5,7.7l11.9,19.6c0.2,0.3,0.1,0.8-0.3,1l-1.5,0.9c-0.3,0.2-0.8,0.1-1-0.3L21.7,9.4c-0.2-0.3-0.1-0.8,0.3-1    l1.5-0.9C23.8,7.2,24.3,7.4,24.5,7.7z"/></g></g></svg>