<?xml version="1.0" ?><!DOCTYPE svg  PUBLIC '-//W3C//DTD SVG 1.0//EN'  'http://www.w3.org/TR/2001/REC-SVG-20010904/DTD/svg10.dtd'><svg height="128px" style="shape-rendering:geometricPrecision; text-rendering:geometricPrecision; image-rendering:optimizeQuality; fill-rule:evenodd; clip-rule:evenodd" version="1.0" viewBox="0 0 28192 45678" width="79px" xml:space="preserve" xmlns="http://www.w3.org/2000/svg" xmlns:xlink="http://www.w3.org/1999/xlink"><defs><style type="text/css">
   <![CDATA[
    .fil0 {fill:#E6C131}
   ]]>
  </style></defs><g id="Layer_x0020_1"><path class="fil0" d="M4335 0l19522 0c2384,0 4335,1951 4335,4335l0 37008c0,2384 -1951,4335 -4335,4335l-19522 0c-2384,0 -4335,-1951 -4335,-4335l0 -37008c0,-2384 1951,-4335 4335,-4335zm9422 11910l678 0c1916,0 3485,1568 3485,3485l0 2613c0,1917 -1569,3485 -3485,3485l-678 0c-1916,0 -3484,-1568 -3484,-3485l0 -2613c0,-1917 1568,-3485 3484,-3485zm339 23520l-1159 -1540 531 -8087 628 0 628 0 531 8087 -1159 1540zm-4307 -12291l2003 0 678 1078c273,434 351,905 233,1403 -10,43 -17,87 -20,132l-531 8086c-1,17 -2,35 -2,52l-5169 0 0 -7944c0,-1544 1264,-2807 2808,-2807zm6612 0l2002 0c1544,0 2808,1263 2808,2807l0 7944 -5169 0c0,-17 -1,-35 -2,-52l-531 -8086c-3,-45 -9,-89 -19,-132 -119,-498 -41,-970 232,-1403l679 -1078zm-4870 -19986l4728 0c1092,0 1092,1650 0,1650l-4728 0c-1092,0 -1092,-1650 0,-1650zm2565 36511c1182,0 2141,959 2141,2141 0,1183 -959,2141 -2141,2141 -1182,0 -2141,-958 -2141,-2141 0,-1182 959,-2141 2141,-2141zm-10037 -31582l20074 0 0 29514 -20074 0 0 -29514z"/></g></svg>