<?xml version="1.0" ?><!DOCTYPE svg  PUBLIC '-//W3C//DTD SVG 1.0//EN'  'http://www.w3.org/TR/2001/REC-SVG-20010904/DTD/svg10.dtd'><svg height="88px" style="shape-rendering:geometricPrecision; text-rendering:geometricPrecision; image-rendering:optimizeQuality; fill-rule:evenodd; clip-rule:evenodd" version="1.0" viewBox="0 0 17883 16721" width="94px" xml:space="preserve" xmlns="http://www.w3.org/2000/svg" xmlns:xlink="http://www.w3.org/1999/xlink"><defs><style type="text/css">
   <![CDATA[
    .fil0 {fill:#E6C131}
   ]]>
  </style></defs><g id="Layer_x0020_1"><path class="fil0" d="M17883 7215l-5145 0 0 7889c0,891 726,1617 1616,1617l3529 0 0 -9506zm-12575 -1034c-685,-2258 -1126,-3752 -689,-5095 232,-710 768,-1159 1843,-1076 142,2949 2846,7148 5161,7205l0 7833 -2880 0 -4877 0c-659,0 -1181,-414 -1436,-1022l-2290 -5443c-125,-353 -484,-1822 836,-1948l4332 -454z"/></g></svg>