<?xml version="1.0" ?><!DOCTYPE svg  PUBLIC '-//W3C//DTD SVG 1.0//EN'  'http://www.w3.org/TR/2001/REC-SVG-20010904/DTD/svg10.dtd'><svg height="128px" style="shape-rendering:geometricPrecision; text-rendering:geometricPrecision; image-rendering:optimizeQuality; fill-rule:evenodd; clip-rule:evenodd" version="1.0" viewBox="0 0 13456 19784" width="87px" xml:space="preserve" xmlns="http://www.w3.org/2000/svg" xmlns:xlink="http://www.w3.org/1999/xlink"><defs><style type="text/css">
   <![CDATA[
    .fil0 {fill:#E6C131}
   ]]>
  </style></defs><g id="Layer_x0020_1"><path class="fil0" d="M4764 6223l3928 0c2620,0 4764,2209 4764,4909l0 6930c0,947 -752,1722 -1671,1722l-10113 0c-920,0 -1672,-775 -1672,-1722l0 -6930c0,-2700 2144,-4909 4764,-4909zm734 6025c0,1528 1643,1582 1643,2682 0,382 -168,520 -436,520 -267,0 -435,-138 -435,-520l0 -420 -795 0 0 367c0,726 305,1192 909,1314l0 390 688 0 0 -390c596,-122 910,-588 910,-1314 0,-1529 -1644,-1582 -1644,-2683 0,-382 153,-527 421,-527 267,0 420,145 420,527l0 222 795 0 0 -168c0,-726 -306,-1185 -902,-1307l0 -398 -688 0 0 398c-588,130 -886,588 -886,1307l0 0zm1230 -2685c2209,0 3999,1791 3999,3999 0,2209 -1790,4000 -3999,4000 -2209,0 -3999,-1791 -3999,-4000 0,-2208 1790,-3999 3999,-3999zm0 -9563c0,0 -1120,-19 -1478,987 0,0 -976,-550 -1710,638 0,0 -1719,-135 -1198,1449l1289 2596c232,-30 468,-46 708,-46l2389 0 2389 0c240,0 476,16 708,46l1289 -2596c522,-1584 -1198,-1449 -1198,-1449 -734,-1188 -1710,-638 -1710,-638 -357,-1006 -1478,-987 -1478,-987z"/></g></svg>