<?xml version="1.0" ?><!DOCTYPE svg  PUBLIC '-//W3C//DTD SVG 1.0//EN'  'http://www.w3.org/TR/2001/REC-SVG-20010904/DTD/svg10.dtd'><svg height="128px" style="shape-rendering:geometricPrecision; text-rendering:geometricPrecision; image-rendering:optimizeQuality; fill-rule:evenodd; clip-rule:evenodd" version="1.0" viewBox="0 0 7183 11872" width="77px" xml:space="preserve" xmlns="http://www.w3.org/2000/svg" xmlns:xlink="http://www.w3.org/1999/xlink"><defs><style type="text/css">
   <![CDATA[
    .fil0 {fill:#E6C131}
   ]]>
  </style></defs><g id="Layer_x0020_1"><path class="fil0" d="M3420 0l342 0c968,0 1759,792 1759,1759l0 1319c0,968 -791,1759 -1759,1759l-342 0c-967,0 -1759,-791 -1759,-1759l0 -1319c0,-967 792,-1759 1759,-1759zm171 11872l-585 -777 268 -4082 317 0 317 0 268 4082 -585 777zm-2174 -6204l1011 0 343 544c137,219 177,457 117,708 -5,22 -9,44 -10,67l-268 4082c-1,8 -1,17 -1,26l-2609 0 0 -4010c0,-779 638,-1417 1417,-1417zm3338 0l1011 0c779,0 1417,638 1417,1417l0 4010 -2609 0c0,-9 -1,-18 -1,-26l-268 -4082c-2,-23 -5,-45 -10,-67 -60,-251 -21,-489 117,-708l343 -544z"/></g></svg>