<?xml version="1.0" ?><svg enable-background="new 0 0 32 32" version="1.1" viewBox="0 0 32 32" xml:space="preserve" xmlns="http://www.w3.org/2000/svg" xmlns:xlink="http://www.w3.org/1999/xlink"><g id="GLYPH"><g><g><g><path d="M28.5,1v22.912L16,30.856L3.5,23.912V1H16H28.5 M29.5,0H16H2.5v24.5L16,32l13.5-7.5V0L29.5,0z"/></g></g></g><g><g><g><path d="M4.82,2.322v20.839L16,29.372l11.18-6.211V2.322H4.82z M16.1,23.88c-1.609,0-7.192-6.332-7.192-10.578      c0-4.064,3.175-7.432,7.192-7.432c3.817,0,6.993,3.368,6.993,7.432C23.092,17.548,17.509,23.88,16.1,23.88z"/></g></g><g><path d="M16.123,8.617c-0.393,0-0.765,0.062-1.124,0.151C15.588,9.031,16,9.615,16,10.296c0,0.927-0.759,1.679-1.696,1.679     c-0.932,0-1.686-0.744-1.695-1.664c-0.575,0.74-0.927,1.666-0.927,2.702c0,2.238,1.933,4.152,4.44,4.152     c2.261,0,4.194-1.913,4.194-4.152C20.317,10.53,18.384,8.617,16.123,8.617z"/></g></g></g></svg>