<?xml version="1.0" ?><svg enable-background="new 0 0 32 32" version="1.1" viewBox="0 0 32 32" xml:space="preserve" xmlns="http://www.w3.org/2000/svg" xmlns:xlink="http://www.w3.org/1999/xlink"><g id="GLYPH"><g><g><g><path d="M28.5,1v22.912L16,30.856L3.5,23.912V1H16H28.5 M29.5,0H16H2.5v24.5L16,32l13.5-7.5V0L29.5,0z"/></g></g></g><g><g><path d="M13.576,11.147c0-1.281-0.988-1.297-0.988-1.297H9.7v2.625h2.887C12.588,12.475,13.576,12.475,13.576,11.147z"/></g><g><path d="M12.85,14.05H9.7v3.15h3.15c0.227,0,1.575-0.016,1.575-1.575C14.425,14.066,12.85,14.05,12.85,14.05z"/></g><g><g><path d="M4.82,2.322v20.839L16,29.372l11.18-6.211V2.322H4.82z M18.625,9.325h4.2v1.05h-4.2V9.325z M16.262,15.625      c0,3.241-2.887,3.15-2.887,3.15H7.6v-10.5l5.644,0.009c1.647,0,2.725,0.937,2.725,2.837c0,1.901-1.589,2.022-1.589,2.022      C16.475,13.143,16.262,15.625,16.262,15.625z M20.725,17.2c1.575,0,1.575-1.575,1.575-1.575h2.1c0,3.15-3.675,3.15-3.675,3.15      c-4.2,0-3.937-3.937-3.937-3.937S16.781,10.9,20.725,10.9c3.675,0,3.675,3.15,3.675,4.2c-1.05,0-5.25,0-5.25,0      C19.15,17.2,20.725,17.2,20.725,17.2z"/></g></g><g><path d="M20.725,12.475c-1.61,0-1.575,1.575-1.575,1.575h3.15C22.3,14.05,22.334,12.475,20.725,12.475z"/></g></g></g></svg>