<?xml version="1.0" ?><svg enable-background="new 0 0 32 32" version="1.1" viewBox="0 0 32 32" xml:space="preserve" xmlns="http://www.w3.org/2000/svg" xmlns:xlink="http://www.w3.org/1999/xlink"><g id="GLYPH"><g><g><g><path d="M28.5,1v22.912L16,30.856L3.5,23.912V1H16H28.5 M29.5,0H16H2.5v24.5L16,32l13.5-7.5V0L29.5,0z"/></g></g></g><g><g><path d="M15.026,12.807c-2.156-0.534-0.976-2.416,0.771-2.388c1.695,0.028,2.558,1.853,3.326,1.759     c0.771-0.095,1.426-1.272,0.215-2.325c-1.047-0.912-2.371-1.414-4.405-1.226c-1.596,0.148-3.112,1.195-3.296,3.236     c-0.185,2.043,2.188,3.08,4.067,3.363c1.317,0.197,3.112,0.847,2.034,2.104c-0.991,1.155-2.865,0.441-3.358,0.127     c-0.493-0.315-1.048-1.446-1.973-1.383c-0.925,0.062-1.381,1.302-0.245,2.389c1.017,0.973,2.126,1.508,4.498,1.382     c2.373-0.126,4.499-2.262,3.666-4.273C19.494,13.561,17.183,13.341,15.026,12.807z"/></g><g><g><path d="M4.82,2.322v20.839L16,29.372l11.18-6.211V2.322H4.82z M19.669,22.118c-0.863,0-1.668-0.25-2.352-0.68      c-0.44,0.081-0.892,0.126-1.357,0.126c-4.118,0-7.454-3.369-7.454-7.524c0-0.403,0.031-0.799,0.092-1.186      c-0.453-0.708-0.716-1.55-0.716-2.457c0-2.493,1.991-4.514,4.448-4.514c0.896,0,1.73,0.27,2.43,0.733      c0.391-0.065,0.792-0.099,1.201-0.099c4.117,0,7.455,3.369,7.455,7.524c0,0.346-0.026,0.686-0.07,1.021      c0.488,0.724,0.772,1.6,0.772,2.543C24.118,20.097,22.127,22.118,19.669,22.118z"/></g></g></g></g></svg>