<?xml version="1.0" ?><svg enable-background="new 0 0 32 32" version="1.1" viewBox="0 0 32 32" xml:space="preserve" xmlns="http://www.w3.org/2000/svg" xmlns:xlink="http://www.w3.org/1999/xlink"><g id="GLYPH"><g><g><g><path d="M28.5,1v22.912L16,30.856L3.5,23.912V1H16H28.5 M29.5,0H16H2.5v24.5L16,32l13.5-7.5V0L29.5,0z"/></g></g></g><g><g><circle cx="17.658" cy="7.914" r="0.553"/></g><g><circle cx="14.342" cy="7.914" r="0.553"/></g><g><g><path d="M4.82,2.322v20.839L16,29.372l11.18-6.211V2.322H4.82z M11.025,15.652c0,0.61-0.495,1.106-1.106,1.106      c-0.61,0-1.106-0.495-1.106-1.106V11.23c0-0.61,0.495-1.106,1.106-1.106c0.61,0,1.106,0.495,1.106,1.106V15.652z M20.422,18.969      h-1.106v2.764c0,0.61-0.495,1.106-1.106,1.106c-0.61,0-1.106-0.495-1.106-1.106v-2.764h-2.211v2.764      c0,0.61-0.495,1.106-1.106,1.106c-0.61,0-1.106-0.495-1.106-1.106v-2.764h-1.106v-8.292h8.844V18.969z M11.578,10.125      c0-1.465,0.715-2.759,1.811-3.564l-0.568-0.984c-0.076-0.133-0.03-0.301,0.101-0.378C13.055,5.123,13.223,5.168,13.3,5.3      l0.554,0.96C14.49,5.905,15.221,5.702,16,5.702c0.779,0,1.51,0.203,2.146,0.557l0.553-0.959      c0.076-0.133,0.246-0.179,0.378-0.102c0.133,0.077,0.179,0.245,0.102,0.378L18.611,6.56c1.096,0.805,1.811,2.099,1.811,3.564      H11.578z M23.186,15.652c0,0.61-0.495,1.106-1.106,1.106c-0.61,0-1.106-0.495-1.106-1.106V11.23c0-0.61,0.495-1.106,1.106-1.106      c0.61,0,1.106,0.495,1.106,1.106V15.652z"/></g></g></g></g></svg>