<?xml version="1.0" ?><svg enable-background="new 0 0 32 32" version="1.1" viewBox="0 0 32 32" xml:space="preserve" xmlns="http://www.w3.org/2000/svg" xmlns:xlink="http://www.w3.org/1999/xlink"><g id="Layer_9_copy"><path d="M16,0H2.5v6.705l1.668,1.668v17.054L16,32l11.832-6.574V8.373L29.5,6.705V0H16z M18.263,9.899   c0,0.887,0.247,4.512,4.569,4.916v1.974c0,0-0.616-0.004-1.477-0.193c-0.162,0.283-0.341,0.573-0.539,0.878   c-2.058,3.14-3.745,4.793-4.484,4.833c-0.741,0.041-0.865,0.081-1.482-0.403C14.232,21.42,9.21,18.158,9.168,8.851h2.223   c0,0-0.494,6.889,4.609,10.957c0,0,1.823-1.416,3.175-4.014C17.552,14.901,16,13.204,16,9.98c0-4.593,6.831-3.989,6.831-0.364   c0,1.286,0.008,2.379-0.178,3.485h-2.439c0.239-0.916,0.388-1.916,0.394-3C20.609,8.127,18.263,8.731,18.263,9.899z"/></g></svg>