<?xml version="1.0" ?><svg id="Layer_1" style="enable-background:new 0 0 512 512;" version="1.1" viewBox="0 0 512 512" xml:space="preserve" xmlns="http://www.w3.org/2000/svg" xmlns:xlink="http://www.w3.org/1999/xlink"><style type="text/css">
	.st0{fill:#F9F96E;stroke:#231F20;stroke-width:10;stroke-miterlimit:10;}
	.st1{opacity:0.64;fill:#EAE77A;}
	.st2{fill:#D7F3F7;stroke:#231F20;stroke-width:10;stroke-miterlimit:10;}
	.st3{opacity:0.61;fill:#C0DFE2;}
</style><g id="XMLID_369_"><g id="XMLID_362_"><path class="st0" d="M204.6,502.6h-88.7c-11.7,0-21.1-9.5-21.1-21.1V29.6c0-11.7,9.5-21.1,21.1-21.1h88.7    c11.7,0,21.1,9.5,21.1,21.1v451.8C225.7,493.1,216.3,502.6,204.6,502.6z" id="XMLID_360_"/><path class="st1" d="M220.8,25.4v445.4c0,11.5-9,26.1-19.7,26.1h-81.6c-10.7,0-19.1-14.6-19.1-26.1" id="XMLID_349_"/><path class="st2" d="M177.1,467h-33.7c-11.7,0-21.1-9.5-21.1-21.1v-79.1c0-11.7,9.5-21.1,21.1-21.1h33.7    c11.7,0,21.1,9.5,21.1,21.1v79.1C198.2,457.6,188.8,467,177.1,467z" id="XMLID_361_"/><line class="st2" id="XMLID_363_" x1="94.8" x2="225.7" y1="53.6" y2="53.6"/><line class="st2" id="XMLID_367_" x1="94.8" x2="225.7" y1="86.6" y2="86.6"/><line class="st2" id="XMLID_368_" x1="94.8" x2="225.7" y1="117.6" y2="117.6"/></g><g id="XMLID_370_"><path class="st2" d="M399.2,491.8l-88.8,11.6c-11.3,1.5-21.7-6.5-23.2-17.9l-56-430.4    c-1.5-11.3,6.5-21.7,17.9-23.2l88.8-11.6c11.3-1.5,21.7,6.5,23.2,17.9l56,430.4C418.5,479.9,410.5,490.3,399.2,491.8z" id="XMLID_385_"/><path class="st3" d="M355.1,34.2l55.3,424.8c1.5,11.2-2.4,27.1-13.2,28.5l-85.6,11.1C300.7,500,291,492,291,472.5    " id="XMLID_535_"/><path class="st0" d="M367.5,461.4l-34.2,4.5c-11.3,1.5-21.7-6.5-23.2-17.9l-9.7-74.7    c-1.5-11.3,6.5-21.7,17.9-23.2l34.2-4.5c11.3-1.5,21.7,6.5,23.2,17.9l9.7,74.7C386.9,449.6,378.9,460,367.5,461.4z" id="XMLID_381_"/><line class="st2" id="XMLID_380_" x1="234.1" x2="364" y1="77.5" y2="60.6"/><line class="st2" id="XMLID_376_" x1="238.2" x2="368.1" y1="109.1" y2="92.2"/><line class="st2" id="XMLID_375_" x1="242.1" x2="371.9" y1="138.7" y2="121.8"/></g></g></svg>