<?xml version="1.0" ?><svg id="Layer_1" style="enable-background:new 0 0 512 512;" version="1.1" viewBox="0 0 512 512" xml:space="preserve" xmlns="http://www.w3.org/2000/svg" xmlns:xlink="http://www.w3.org/1999/xlink"><style type="text/css">
	.st0{fill:#D7F3F7;stroke:#231F20;stroke-width:10;stroke-miterlimit:10;}
	.st1{opacity:0.61;fill:#C0DFE2;}
	.st2{fill:none;stroke:#231F20;stroke-width:10;stroke-linecap:round;stroke-miterlimit:10;}
</style><g id="XMLID_384_"><circle class="st0" cx="140.6" cy="317.1" id="XMLID_377_" r="102.4"/><path class="st1" d="M200.3,241.6c21,18.4,37.8,41.7,37.8,72.1c0,55.5-44.4,100.6-99.1,100.6   c-22.6,0-43.5-9.9-60.2-22.8L200.3,241.6z" id="XMLID_474_"/><circle class="st0" cx="374.7" cy="317.1" id="XMLID_379_" r="102.4"/><line class="st0" id="XMLID_382_" x1="243" x2="269.5" y1="317.1" y2="317.1"/><path class="st2" d="M30.5,317.1h-1.9c-11.3,0-20.4-9.4-20.1-20.7l4.7-153.2c0.4-14.3,9.2-26.9,22.4-32.3l31.9-13" id="XMLID_378_"/><path class="st2" d="M480.8,317.1h7.9c8.2,0,14.8-6.6,14.8-14.8V136.8c0-10.9-6-21-15.6-26.2l-40.3-18.2" id="XMLID_383_"/><path class="st1" d="M433.9,241.6c21,18.4,37.8,41.7,37.8,72.1c0,55.5-44.4,100.6-99.1,100.6   c-22.6,0-43.5-9.9-60.2-22.8L433.9,241.6z" id="XMLID_465_"/></g></svg>