<?xml version="1.0" ?><svg id="Layer_1" style="enable-background:new 0 0 512 512;" version="1.1" viewBox="0 0 512 512" xml:space="preserve" xmlns="http://www.w3.org/2000/svg" xmlns:xlink="http://www.w3.org/1999/xlink"><style type="text/css">
	.st0{fill:#D7F3F7;stroke:#231F20;stroke-width:10;stroke-miterlimit:10;}
	.st1{opacity:0.61;fill:#C0DFE2;}
	.st2{fill:#F9F96E;stroke:#231F20;stroke-width:10;stroke-miterlimit:10;}
</style><g id="XMLID_397_"><path class="st0" d="M501,248.6c-0.6,0.9-1.2,1.7-1.9,2.6c-8.2,9.8-26.9,10-38.3,13.2   c-12.1,3.5-23.7,10.1-31.1,20.3c-7.8,10.8-9.1,25-6.6,37.8c2.4,12.4,16.2,20.1,15.7,33.7c-0.2,6.2-4.2,11.5-8.5,15.9   c-12.7,12.9-29.5,20.8-46.5,27c-14.7,5.3-29.9,9.5-45.2,12.9c-78.2,17.3-159.1,15.1-232.1-21c-51-25.2-99.8-71-100.4-131.8   C5.1,167,116.8,91,255.5,89.5c23-0.3,46.1,1.5,68.8,5.6c35.1,6.2,69.9,17.5,100.8,35.6c16.3,9.5,30.9,21.5,43.4,35.6   c12.5,14.1,26.1,30.6,33.4,48.1C506.6,225.8,508.1,238.1,501,248.6z" id="XMLID_386_"/><path class="st1" d="M321.5,101.9c33.1,5.9,71,19.7,100.1,36.7c15.3,9,24.9,17.7,36.7,31   c11.8,13.3,28.4,27.4,35.3,43.9c4.5,10.8,9.9,21.1,3.2,31c-0.6,0.8-1.2,1.6-1.8,2.4c-7.7,9.3-33.1,12.1-43.8,15.2   c-11.4,3.3-22.3,9.5-29.3,19.2c-7.4,10.2-8.5,23.6-6.2,35.7c2.2,11.7,16.6,25.5,16.1,38.3c-0.2,5.8-2.9,7.6-7,11.8   c-11.9,12.1-23,18.3-39,24.1c-13.9,5-36,10.8-50.4,14c-73.7,16.3-153.5,17-222.3-17" id="XMLID_493_"/><circle class="st2" cx="260.8" cy="355.2" id="XMLID_393_" r="34.8"/><circle class="st2" cx="152.6" cy="321.6" id="XMLID_398_" r="34.8"/><circle class="st2" cx="192.9" cy="164" id="XMLID_402_" r="34.8"/><circle class="st2" cx="305.3" cy="157.7" id="XMLID_413_" r="34.8"/><circle class="st2" cx="105.8" cy="224.1" id="XMLID_409_" r="34.8"/></g></svg>