<?xml version="1.0" ?><svg id="Layer_1" style="enable-background:new 0 0 512 512;" version="1.1" viewBox="0 0 512 512" xml:space="preserve" xmlns="http://www.w3.org/2000/svg" xmlns:xlink="http://www.w3.org/1999/xlink"><style type="text/css">
	.st0{fill:#F9F96E;stroke:#231F20;stroke-width:10;stroke-linecap:round;stroke-miterlimit:10;}
	.st1{opacity:0.86;fill:#EAE77A;}
	.st2{fill:#D7F3F7;stroke:#231F20;stroke-width:10;stroke-miterlimit:10;}
</style><g id="XMLID_296_"><path class="st0" d="M422.6,503.5H89.4c-15.5,0-28.1-12.6-28.1-28.1V36.6c0-15.5,12.6-28.1,28.1-28.1h333.3   c15.5,0,28.1,12.6,28.1,28.1v438.8C450.8,490.9,438.2,503.5,422.6,503.5z" id="XMLID_291_"/><path class="st1" d="M418.6,14.5c15.2,0,27.4,12.3,27.4,27.4v428c0,15.2-12.3,27.4-27.4,27.4H93.4   C78.3,497.5,66,485.2,66,470" id="XMLID_497_"/><path class="st2" d="M349.3,161.5H162.7c-13.3,0-24.2-10.8-24.2-24.2V95.7c0-13.3,10.8-24.2,24.2-24.2h186.5   c13.3,0,24.2,10.8,24.2,24.2v41.7C373.4,150.7,362.6,161.5,349.3,161.5z" id="XMLID_292_"/><path class="st2" d="M187.9,282.9h-40.9c-6.4,0-11.6-5.2-11.6-11.6v-36.7c0-6.4,5.2-11.6,11.6-11.6h40.9   c6.4,0,11.6,5.2,11.6,11.6v36.7C199.5,277.7,194.3,282.9,187.9,282.9z" id="XMLID_293_"/><path class="st2" d="M276.5,282.9h-40.9c-6.4,0-11.6-5.2-11.6-11.6v-36.7c0-6.4,5.2-11.6,11.6-11.6h40.9   c6.4,0,11.6,5.2,11.6,11.6v36.7C288.1,277.7,282.9,282.9,276.5,282.9z" id="XMLID_312_"/><path class="st2" d="M365.1,282.9h-40.9c-6.4,0-11.6-5.2-11.6-11.6v-36.7c0-6.4,5.2-11.6,11.6-11.6h40.9   c6.4,0,11.6,5.2,11.6,11.6v36.7C376.7,277.7,371.5,282.9,365.1,282.9z" id="XMLID_315_"/><path class="st2" d="M187.9,365.4h-40.9c-6.4,0-11.6-5.2-11.6-11.6V317c0-6.4,5.2-11.6,11.6-11.6h40.9   c6.4,0,11.6,5.2,11.6,11.6v36.7C199.5,360.2,194.3,365.4,187.9,365.4z" id="XMLID_318_"/><path class="st2" d="M276.5,365.4h-40.9c-6.4,0-11.6-5.2-11.6-11.6V317c0-6.4,5.2-11.6,11.6-11.6h40.9   c6.4,0,11.6,5.2,11.6,11.6v36.7C288.1,360.2,282.9,365.4,276.5,365.4z" id="XMLID_317_"/><path class="st2" d="M365.1,365.4h-40.9c-6.4,0-11.6-5.2-11.6-11.6V317c0-6.4,5.2-11.6,11.6-11.6h40.9   c6.4,0,11.6,5.2,11.6,11.6v36.7C376.7,360.2,371.5,365.4,365.1,365.4z" id="XMLID_316_"/><path class="st2" d="M187.9,447.9h-40.9c-6.4,0-11.6-5.2-11.6-11.6v-36.7c0-6.4,5.2-11.6,11.6-11.6h40.9   c6.4,0,11.6,5.2,11.6,11.6v36.7C199.5,442.7,194.3,447.9,187.9,447.9z" id="XMLID_324_"/><path class="st2" d="M276.5,447.9h-40.9c-6.4,0-11.6-5.2-11.6-11.6v-36.7c0-6.4,5.2-11.6,11.6-11.6h40.9   c6.4,0,11.6,5.2,11.6,11.6v36.7C288.1,442.7,282.9,447.9,276.5,447.9z" id="XMLID_323_"/><path class="st2" d="M365.1,447.9h-40.9c-6.4,0-11.6-5.2-11.6-11.6v-36.7c0-6.4,5.2-11.6,11.6-11.6h40.9   c6.4,0,11.6,5.2,11.6,11.6v36.7C376.7,442.7,371.5,447.9,365.1,447.9z" id="XMLID_319_"/></g></svg>