<?xml version="1.0" ?><svg id="Layer_1" style="enable-background:new 0 0 512 512;" version="1.1" viewBox="0 0 512 512" xml:space="preserve" xmlns="http://www.w3.org/2000/svg" xmlns:xlink="http://www.w3.org/1999/xlink"><g id="XMLID_19626_"><g id="XMLID_2_"><path d="M373.1,503.6c-14.1,0-26-14.9-35-26.3c-3-3.8-5.9-7.4-8.4-9.9L22.9,160.7c-1.2-1.2-2.5-2.4-3.8-3.6    c-7.8-7.1-17.4-16-10.9-29.2c2.4-4.9,7.6-9.4,12.1-13.3c1.9-1.6,3.6-3.1,5-4.5l79.7-79.7c16.5-16.5,33.6-33.6,55.9-11.5    c6.3,6.2,12.6,12.6,18.8,18.8c3.1,3.1,6.2,6.3,9.4,9.4l290.5,290.5c1.9,1.9,4.4,4,7,6.3c7.8,6.6,16.6,14.1,18.8,22.2    c0.5,1.8,0.7,3.6,0.7,5.3c0,13-12.5,23-22.6,31.1c-3.3,2.6-6.4,5.1-8.6,7.4l-70.8,70.8c-1.7,1.7-3.5,3.8-5.5,6.1    c-5,5.8-10.6,12.3-16.7,15C378.7,503.1,375.9,503.6,373.1,503.6z M139.6,14.3c-9.7,0-18.8,8.5-30.6,20.2l-79.7,79.7    c-1.5,1.5-3.4,3.1-5.3,4.8c-4.1,3.6-8.8,7.6-10.7,11.5c-4.2,8.6,1.1,14.4,9.6,22.3c1.3,1.2,2.7,2.5,4,3.8l306.7,306.7    c2.7,2.7,5.7,6.5,8.8,10.4c8.7,10.9,19.1,24,30.5,24c2,0,4.1-0.4,6.2-1.4c4.9-2.2,10.1-8.2,14.6-13.5c2-2.4,4-4.6,5.8-6.4    l70.8-70.8c2.5-2.5,5.7-5.1,9.1-7.8c9.1-7.3,20.5-16.4,20.4-26.5l0,0c0-1.3-0.2-2.5-0.5-3.8c-1.7-6.4-10.2-13.5-16.9-19.3    c-2.7-2.3-5.3-4.5-7.4-6.6L184.8,51.2c-3.1-3.1-6.2-6.3-9.4-9.4c-6.1-6.2-12.5-12.5-18.7-18.7C150.5,16.9,145,14.3,139.6,14.3z" id="XMLID_19610_"/></g><g id="XMLID_321_"><path d="M191.3,101.4c-0.8,0-1.5-0.3-2.1-0.9c-1.1-1.2-1.1-3,0.1-4.2l19-18.4c1.2-1.1,3-1.1,4.2,0.1    c1.1,1.2,1.1,3-0.1,4.2l-19,18.4C192.8,101.2,192.1,101.4,191.3,101.4z" id="XMLID_19609_"/></g><g id="XMLID_322_"><path d="M208.8,143.9c-0.7,0-1.5-0.3-2-0.8c-1.2-1.1-1.2-3-0.1-4.2l32.1-33c1.1-1.2,3-1.2,4.2-0.1    c1.2,1.1,1.2,3,0.1,4.2l-32.1,33C210.3,143.6,209.6,143.9,208.8,143.9z" id="XMLID_19608_"/></g><g id="XMLID_330_"><path d="M134.4,44.5c-0.8,0-1.5-0.3-2.1-0.9c-1.1-1.2-1.1-3,0.1-4.2l19-18.4c1.2-1.1,3-1.1,4.2,0.1    c1.1,1.2,1.1,3-0.1,4.2l-19,18.4C135.9,44.2,135.1,44.5,134.4,44.5z" id="XMLID_19607_"/></g><g id="XMLID_329_"><path d="M150.3,85.4c-0.7,0-1.5-0.3-2-0.8c-1.2-1.1-1.2-3-0.1-4.2l32.1-33c1.1-1.2,3-1.2,4.2-0.1    c1.2,1.1,1.2,3,0.1,4.2l-32.1,33C151.8,85.1,151.1,85.4,150.3,85.4z" id="XMLID_19606_"/></g><g id="XMLID_324_"><path d="M262.8,172.9c-0.8,0-1.5-0.3-2.1-0.9c-1.1-1.2-1.1-3,0.1-4.2l19-18.4c1.2-1.1,3-1.1,4.2,0.1    c1.1,1.2,1.1,3-0.1,4.2l-19,18.4C264.3,172.7,263.6,172.9,262.8,172.9z" id="XMLID_19605_"/></g><g id="XMLID_323_"><path d="M287.7,222.8c-0.7,0-1.5-0.3-2-0.8c-1.2-1.1-1.2-3-0.1-4.2l32.1-33c1.1-1.2,3-1.2,4.2-0.1    c1.2,1.1,1.2,3,0.1,4.2l-32.1,33C289.2,222.5,288.4,222.8,287.7,222.8z" id="XMLID_19604_"/></g><g id="XMLID_326_"><path d="M344.8,254.9c-0.8,0-1.5-0.3-2.1-0.9c-1.1-1.2-1.1-3,0.1-4.2l19-18.4c1.2-1.1,3-1.1,4.2,0.1    c1.1,1.2,1.1,3-0.1,4.2l-19,18.4C346.2,254.6,345.5,254.9,344.8,254.9z" id="XMLID_19603_"/></g><g id="XMLID_325_"><path d="M369.6,304.7c-0.7,0-1.5-0.3-2-0.8c-1.2-1.1-1.2-3-0.1-4.2l32.1-33c1.1-1.2,3-1.2,4.2-0.1    c1.2,1.1,1.2,3,0.1,4.2l-32.1,33C371.1,304.4,370.4,304.7,369.6,304.7z" id="XMLID_19602_"/></g><g id="XMLID_328_"><path d="M426.3,336.4c-0.8,0-1.5-0.3-2.1-0.9c-1.1-1.2-1.1-3,0.1-4.2l19-18.4c1.2-1.1,3-1.1,4.2,0.1    c1.1,1.2,1.1,3-0.1,4.2l-19,18.4C427.8,336.1,427,336.4,426.3,336.4z" id="XMLID_19601_"/></g><g id="XMLID_327_"><path d="M451.2,386.3c-0.7,0-1.5-0.3-2-0.8c-1.2-1.1-1.2-3-0.1-4.2l32.1-33c1.1-1.2,3-1.2,4.2-0.1    c1.2,1.1,1.2,3,0.1,4.2l-32.1,33C452.7,386,451.9,386.3,451.2,386.3z" id="XMLID_19600_"/></g></g></svg>