<?xml version="1.0" ?><svg id="Layer_1" style="enable-background:new 0 0 512 512;" version="1.1" viewBox="0 0 512 512" xml:space="preserve" xmlns="http://www.w3.org/2000/svg" xmlns:xlink="http://www.w3.org/1999/xlink"><g id="XMLID_19613_"><g id="XMLID_3503_"><path d="M259.6,325.6c-0.4,0-0.8,0-1.2,0c-11.7-0.5-22.2-8.4-29.7-22.2c-7.3-13.4-10.9-31-10.1-49.4    c0.8-18.4,5.9-35.6,14.4-48.3c8.7-13.1,19.9-19.9,31.6-19.4c11.7,0.5,22.2,8.4,29.7,22.2c7.3,13.4,10.9,31,10.1,49.4    c-0.8,18.4-5.9,35.6-14.4,48.3C281.6,318.7,270.8,325.6,259.6,325.6z M263.4,190.2c-21,0-39.1,28.3-40.7,63.9    c-0.8,17.7,2.6,34.5,9.6,47.3c6.8,12.5,16.1,19.6,26.3,20l0,0c10.2,0.5,20.1-5.8,28-17.6c8.1-12.1,13-28.6,13.8-46.3    c1.6-36.2-14.5-66.4-35.9-67.3C264.1,190.2,263.7,190.2,263.4,190.2z" id="XMLID_16108_"/></g><g id="XMLID_4604_"><path d="M458.8,396.5c-15.3,0-29.5-11.6-42.2-22l-1.4-1.2c-38.2-31.2-79.7-54.8-123.3-70.1    c-1.1-0.4-1.6-1.5-1.2-2.6c0.4-1.1,1.5-1.6,2.6-1.2c44,15.4,85.9,39.3,124.5,70.7l1.4,1.2c14.1,11.5,28.7,23.5,44.2,20.6    c3-0.6,5.2-1.6,6.7-3.4c3.1-3.6,3.5-9.4,3.9-15.6c0.3-4.4,0.6-8.9,1.9-13c1.5-4.5,4.1-8,6.6-11.4c1.5-2.1,3-4,4.2-6.2    c5.6-10.1,5.3-23.6,4-33.1c-0.7-5.5-1.9-11-3-16.4c-1.2-6-2.5-12.2-3.3-18.4c-0.6-4.7-1-10.8,0.9-16.4c1.1-3.5,3-6.3,4.8-9    c1.3-2,2.6-4,3.6-6.1c4-8.8,2.5-19.2,1-29.2c-0.3-2.3-0.7-4.7-0.9-7c-1.6-14.1,1.1-25.8,4.7-39.5c2.4-9,3.9-16.6,3.4-24.3    c-0.6-8.1-3.1-13.8-7.5-17c-8.4-6.1-22.9-2.5-33.5,0.2c-1.5,0.4-3,0.7-4.3,1.1c-11.9,2.8-23.7,7.2-35.1,13.3    c-6.8,3.6-13.6,7.4-20.2,11.1c-14.6,8.1-29.8,16.5-45.2,23.2c-7.1,3.1-14.9,5.5-22.4,7.8c-16.4,5.1-33.3,10.4-46.2,22.6    c-0.8,0.8-2.1,0.7-2.9-0.1c-0.8-0.8-0.7-2.1,0.1-2.9c13.5-12.8,30.9-18.2,47.8-23.5c7.8-2.4,15.1-4.7,22.1-7.7    c15.3-6.5,30.3-14.9,44.9-23c6.6-3.7,13.5-7.5,20.3-11.1c11.7-6.2,23.9-10.8,36.1-13.6c1.3-0.3,2.8-0.7,4.3-1    c11.3-2.8,26.9-6.7,36.8,0.5c5.4,3.9,8.5,10.6,9.1,20c0.6,8.7-1.3,17.5-3.5,25.7c-3.7,13.8-6.2,24.5-4.6,38    c0.3,2.2,0.6,4.5,0.9,6.9c1.5,10.6,3.1,21.6-1.3,31.4c-1.1,2.5-2.5,4.6-3.9,6.7c-1.7,2.6-3.4,5.1-4.3,8.1    c-1.6,4.8-1.2,10.3-0.7,14.6c0.7,6.1,2,12.2,3.2,18.1c1.1,5.4,2.3,11,3.1,16.7c1.4,10.2,1.7,24.6-4.5,35.6c-1.4,2.4-3,4.6-4.5,6.7    c-2.4,3.3-4.7,6.3-6,10.2c-1.2,3.6-1.4,7.8-1.7,12c-0.4,6.6-0.9,13.4-4.9,18c-2.1,2.4-5.1,4-9,4.7    C462.3,396.3,460.6,396.5,458.8,396.5z" id="XMLID_15744_"/></g><g id="XMLID_3504_"><path d="M55.3,393.3c-1.8,0-3.7-0.2-5.5-0.5c-4.1-0.7-7.2-2.2-9.4-4.7c-4.2-4.6-4.7-11.4-5.1-18    c-0.3-4.1-0.6-8.4-1.8-12c-1.3-3.9-3.7-6.9-6.2-10.2c-1.6-2.1-3.3-4.3-4.7-6.7c-6.4-11.1-6.1-25.5-4.7-35.7    c0.8-5.7,2-11.3,3.2-16.7c1.3-5.9,2.6-12,3.4-18.1c0.5-4.3,0.9-9.8-0.7-14.6c-1-2.9-2.7-5.4-4.5-8.1c-1.4-2.1-2.9-4.2-4.1-6.7    c-4.7-9.9-3-20.9-1.4-31.5c0.4-2.4,0.7-4.6,1-6.9c1.6-13.4-1-24.2-4.8-38c-2.3-8.2-4.3-16.9-3.6-25.7c0.7-9.1,3.8-15.8,9.2-19.7    c10.3-7.5,26.8-3.6,38.8-0.7c1.6,0.4,3.1,0.7,4.5,1.1c12.7,2.8,25.4,7.4,37.7,13.6c7.1,3.6,14.3,7.4,21.3,11.1    c15.2,8.1,31,16.4,46.9,23c7.3,3,14.9,5.3,23.1,7.7c17.6,5.3,35.8,10.7,49.9,23.5c0.8,0.8,0.9,2,0.1,2.9c-0.8,0.8-2,0.9-2.9,0.1    c-13.4-12.1-31.2-17.5-48.3-22.6c-7.9-2.4-16-4.8-23.5-7.8c-16.1-6.6-32-15-47.3-23.2c-6.9-3.7-14.1-7.5-21.2-11.1    c-12-6-24.3-10.5-36.7-13.3c-1.4-0.3-2.9-0.7-4.5-1.1c-11.2-2.7-26.6-6.4-35.4,0.1c-4.5,3.2-6.9,8.7-7.5,16.7    c-0.6,7.7,1,15.3,3.5,24.3c3.8,13.7,6.6,25.4,5,39.5c-0.3,2.3-0.6,4.7-1,7c-1.5,10-3.1,20.4,1.1,29.2c1,2.2,2.3,4.1,3.8,6.1    c1.9,2.7,3.8,5.6,5,9c1.9,5.5,1.5,11.7,0.9,16.4c-0.8,6.3-2.1,12.4-3.4,18.4c-1.2,5.4-2.4,10.9-3.1,16.4c-1.3,9.5-1.7,23,4.2,33.1    c1.3,2.2,2.8,4.2,4.4,6.2c2.6,3.4,5.3,6.9,6.9,11.4c1.4,4.1,1.7,8.6,2,13c0.4,6.2,0.8,12,4.1,15.6c1.6,1.7,3.8,2.8,7.1,3.4    c16.3,2.8,31.6-9.1,46.4-20.7l1.5-1.2c40.3-31.5,84.1-55.3,130.2-70.7c1.1-0.4,2.2,0.2,2.6,1.3c0.4,1.1-0.2,2.2-1.3,2.6    c-45.6,15.3-89,38.9-128.9,70.1l-1.5,1.2C86.1,381.8,71.2,393.3,55.3,393.3z" id="XMLID_16024_"/></g><g id="XMLID_2233_"><path d="M157.4,218.3c21,1.1,41.7,4.9,61.7,11.4c2.1,0.7,3-2.6,0.9-3.3c-20.3-6.6-41.3-10.4-62.6-11.5    C155.2,214.8,155.2,218.2,157.4,218.3L157.4,218.3z" id="XMLID_485_"/></g><g id="XMLID_4605_"><path d="M167.5,246.9c15.3-7.2,32.1-10.5,49-9.6c2.2,0.1,2.2-3.3,0-3.4c-17.5-0.8-34.9,2.7-50.7,10.1    C163.8,244.9,165.5,247.8,167.5,246.9L167.5,246.9z" id="XMLID_484_"/></g><g id="XMLID_4606_"><path d="M181.8,281.5c5.7-17.2,19.8-30.7,37.1-35.9c2.1-0.6,1.2-3.9-0.9-3.3c-18.5,5.5-33.4,20-39.5,38.3    C177.8,282.7,181.1,283.6,181.8,281.5L181.8,281.5z" id="XMLID_483_"/></g><g id="XMLID_4610_"><path d="M18.9,198.7c4.9-6.4,12.5-10.2,20.5-10.5c2.2-0.1,2.2-3.5,0-3.4c-9.4,0.3-17.7,4.7-23.4,12.2    C14.6,198.7,17.5,200.4,18.9,198.7L18.9,198.7z" id="XMLID_478_"/></g><g id="XMLID_4612_"><path d="M36.8,331.7c9.9-3.2,18.9-8.5,26.5-15.6c1.6-1.5-0.8-3.9-2.4-2.4c-7.2,6.7-15.6,11.7-25,14.7    C33.9,329.1,34.8,332.4,36.8,331.7L36.8,331.7z" id="XMLID_477_"/></g><g id="XMLID_4607_"><path d="M303.7,239c10.7-13.1,24-23.8,39-31.6c1.9-1,0.2-3.9-1.7-2.9c-15.3,7.9-28.8,18.8-39.7,32.1    C299.9,238.3,302.3,240.7,303.7,239L303.7,239z" id="XMLID_482_"/></g><g id="XMLID_4608_"><path d="M308.4,241.5c-2-2.8-5.3,0-3.7,2.9c1.4,2.4,4,4.4,6,6.3c2.3,2.2,4.7,4.3,7.2,6.3    c9.4,7.6,19.9,13.7,31.2,18.1c2,0.8,2.9-2.5,0.9-3.3c-8-3.2-15.7-7.3-22.8-12.2c-3.6-2.5-7-5.1-10.3-8c-1.5-1.4-3.1-2.8-4.5-4.2    c-1.3-1.3-4.6-3.7-4.9-5.5c-0.1,0.6-0.3,1.1-0.4,1.7c-0.1,0-0.2,0.1-0.4,0.1c-0.5-0.3-1-0.6-1.5-0.8c0.1,0.1,0.2,0.2,0.2,0.3    C306.8,244.9,309.7,243.2,308.4,241.5L308.4,241.5z" id="XMLID_481_"/></g><g id="XMLID_4609_"><path d="M308,245.5c15.3-1.9,30.4-4.7,45.4-8.4c2.1-0.5,1.2-3.8-0.9-3.3c-14.7,3.6-29.5,6.4-44.5,8.3    C305.9,242.4,305.9,245.8,308,245.5L308,245.5z" id="XMLID_480_"/></g><g id="XMLID_4614_"><path d="M489.1,179c-5.4,6.1-12,10.8-19.6,13.6c-2,0.8-1.1,4,0.9,3.3c8.2-3.1,15.3-8,21.1-14.5    C492.9,179.7,490.5,177.3,489.1,179L489.1,179z" id="XMLID_476_"/></g><g id="XMLID_4621_"><path d="M489.3,311.8c-9.2,0.5-18.4,0.3-27.5-0.8c-2.2-0.2-2.1,3.2,0,3.4c9.1,1,18.3,1.3,27.5,0.8    C491.5,315,491.5,311.6,489.3,311.8L489.3,311.8z" id="XMLID_475_"/></g></g></svg>