<?xml version="1.0" ?><svg id="Layer_1" style="enable-background:new 0 0 512 512;" version="1.1" viewBox="0 0 512 512" xml:space="preserve" xmlns="http://www.w3.org/2000/svg" xmlns:xlink="http://www.w3.org/1999/xlink"><g id="XMLID_1_"><g id="XMLID_7066_"><path d="M424.1,360.4c-2.7,0-5.3-0.2-8-0.3c-1.2-0.1-2.4-0.2-3.5-0.2c-7.2-0.4-14.7-0.2-21.8,0    c-1.4,0-2.9,0.1-4.3,0.1l0,0c-5.8,0.1-11.5,0.2-16.9,0.2l-146.2,0c-7.4,0-14.8,0-22.2,0c-8.2,0-15.3-5.2-17.8-13l-58.3-183.8    c-1.1-3.3-0.5-6.9,1.6-9.7c2.1-2.8,5.3-4.4,8.8-4.4h362.2c3.5,0,6.7,1.6,8.8,4.4c2.1,2.8,2.6,6.4,1.6,9.7L462.9,305    c-3,9.5-6.1,19.4-9.4,30.4l-0.2,0.6c-2.6,8.5-5.2,17.2-14.8,21.7C433.8,359.9,428.9,360.4,424.1,360.4z M403.6,353.7    c3.1,0,6.2,0.1,9.3,0.2c1.2,0.1,2.4,0.1,3.6,0.2c6.7,0.4,13.6,0.9,19.5-1.9c7.2-3.4,9.2-10.2,11.6-18l0.2-0.6    c3.3-11,6.4-20.9,9.4-30.4l44.9-141.6c0.5-1.5,0.2-3.1-0.7-4.3c-0.9-1.3-2.4-2-3.9-2H135.3c-1.6,0-3,0.7-3.9,2    c-0.9,1.3-1.2,2.8-0.7,4.3L189,345.3c1.7,5.3,6.5,8.9,12.1,8.9c7.4,0,14.8,0,22.2,0l146.2,0c5.4,0,11.1,0,16.8-0.2h0    c1.4,0,2.8-0.1,4.3-0.1C394.8,353.8,399.2,353.7,403.6,353.7z" id="XMLID_11484_"/></g><g id="XMLID_7059_"><path d="M456.6,411.2c-0.7,0-1.5-0.2-2.2-0.6c-10.9-7-30.3-9.9-43.6-10.3c-6.3-0.2-10.8,0-15.5,0.1    c-3.6,0.1-7.4,0.2-12,0.2c-2.2,0-4-1.8-4-4c0-2.2,1.8-4,4-4c0,0,0,0,0,0c4.4,0,8.1-0.1,11.7-0.2c4.6-0.1,9.5-0.3,16-0.1    c15,0.4,35.5,3.6,47.8,11.5c1.9,1.2,2.4,3.7,1.2,5.5C459.2,410.6,457.9,411.2,456.6,411.2z" id="XMLID_11477_"/></g><g id="XMLID_7058_"><path d="M254.6,400.6c-2.2,0-3.9-1.7-4-3.9c-0.1-2.2,1.7-4.1,3.9-4.1c5.1-0.2,11.9-0.3,18.7-0.4    c24.2-0.3,43.1-0.5,62.7-0.6h0c2.2,0,4,1.8,4,4c0,2.2-1.8,4-4,4c-19.6,0-38.5,0.2-62.6,0.6c-6.8,0.1-13.5,0.3-18.6,0.4    C254.7,400.6,254.7,400.6,254.6,400.6z" id="XMLID_11476_"/></g><g id="XMLID_7057_"><path d="M208.9,401.7C208.9,401.7,208.9,401.7,208.9,401.7c-10.3,0-19.4-0.3-28-0.9c-10.5-0.7-19.3-5-24-11.7    c-3.2-4.6-4.2-10-2.8-15.1c3-10.5,14.6-20.3,30.3-25.7c2.1-0.7,4.4,0.4,5.1,2.5c0.7,2.1-0.4,4.4-2.5,5.1    c-12.9,4.4-23,12.5-25.2,20.3c-0.8,2.8-0.2,5.7,1.6,8.3c3.3,4.6,10,7.8,18,8.3c8.4,0.6,17.3,0.9,27.4,0.9c2.2,0,4,1.8,4,4    C212.9,399.9,211.1,401.7,208.9,401.7z" id="XMLID_11475_"/></g><g id="XMLID_7056_"><path d="M232.3,424.7c-4.4,0-9-0.8-13.2-2.4c-9.8-3.7-17.9-14.1-13.8-26c2.1-6.1,7.4-11,14.8-13.8    c9.7-3.6,21.3-3.2,29,1.1h0c5.6,3.2,9.2,9.8,9.4,17.7c0.3,7.8-2.7,14.1-8.7,18.3C245.2,423,238.9,424.7,232.3,424.7z M233.9,388.1    c-3.7,0-7.5,0.6-10.9,1.9c-5.1,1.9-8.7,5.1-10,9c-2.5,7.1,2.8,13.5,9.1,15.9c7.9,3,17.7,2.3,23.3-1.7c3.7-2.6,5.5-6.5,5.3-11.5    c-0.1-3.9-1.6-8.9-5.4-11h0C242.3,388.9,238.2,388.1,233.9,388.1z" id="XMLID_11472_"/></g><g id="XMLID_7055_"><path d="M356.8,425c-9.3,0-18.9-3.8-24-12.5c-3.1-5.3-3.5-12-1.1-17.6c2.5-5.9,8.2-10.5,15.9-13.1    c9.5-3.2,20.3-2.5,27.6,1.7l0,0c5.8,3.4,9.2,8.6,9.7,15.1c1,11.5-5.9,21-17.9,24.8C363.9,424.5,360.4,425,356.8,425z M360,387.8    c-3.2,0-6.6,0.5-9.8,1.6c-5.5,1.8-9.5,5-11.1,8.7c-1.4,3.3-1.2,7.3,0.6,10.4c4.9,8.4,16.5,10,24.9,7.3c3.1-1,13.3-5.1,12.4-16.5    c-0.3-3.9-2.3-6.9-5.8-8.9C368.3,388.7,364.3,387.8,360,387.8z" id="XMLID_11469_"/></g><g id="XMLID_7063_"><path d="M456.2,310.3H176.3c-1.7,0-3-1.3-3-3s1.3-3,3-3h279.9c1.7,0,3,1.3,3,3S457.9,310.3,456.2,310.3z" id="XMLID_11481_"/></g><g id="XMLID_7062_"><path d="M247.9,356.7c-1.3,0-2.5-0.9-2.9-2.2l-56.8-198.1c-0.5-1.6,0.5-3.3,2.1-3.7c1.6-0.5,3.3,0.5,3.7,2.1    l56.8,198.1c0.5,1.6-0.5,3.3-2.1,3.7C248.5,356.6,248.2,356.7,247.9,356.7z" id="XMLID_11480_"/></g><g id="XMLID_7061_"><path d="M340.9,360.2c-0.2,0-0.4,0-0.7-0.1c-1.6-0.4-2.6-2-2.3-3.6l45.7-201.6c0.4-1.6,2-2.6,3.6-2.3    c1.6,0.4,2.6,2,2.3,3.6l-45.7,201.6C343.5,359.2,342.3,360.2,340.9,360.2z" id="XMLID_11479_"/></g><g id="XMLID_7060_"><path d="M298.7,359.2c-1.6,0-2.9-1.3-3-2.9c-0.3-8.2-6.9-200.8-6.9-202.9c0-1.7,1.3-3,3-3c1.7,0,3,1.3,3,3    c0,3.1,6.8,200.7,6.9,202.7c0.1,1.7-1.2,3-2.9,3.1C298.8,359.2,298.7,359.2,298.7,359.2z" id="XMLID_11478_"/></g><g id="XMLID_7065_"><path d="M494.5,198.6H138.3c-1.7,0-3-1.3-3-3s1.3-3,3-3h356.2c1.7,0,3,1.3,3,3S496.1,198.6,494.5,198.6z" id="XMLID_11483_"/></g><g id="XMLID_7064_"><path d="M156.3,252.9c-1.5,0-2.7-1.1-3-2.5c-0.3-1.6,0.9-3.2,2.5-3.4c1.9-0.3,223.3-1.9,318.4-2.6c0,0,0,0,0,0    c1.7,0,3,1.3,3,3c0,1.7-1.3,3-3,3c-107.8,0.8-312.5,2.3-317.7,2.6C156.5,252.8,156.4,252.9,156.3,252.9z" id="XMLID_11482_"/></g><g id="XMLID_7054_"><path d="M127.9,160.4c-1.1,0-2.2-0.6-2.7-1.7c-5.1-10.5-8.9-17.4-12.4-23.5c-4.9-8.8-9.2-16.4-15.3-31.7    l-45.3-0.9c-1.7,0-3-1.4-2.9-3.1c0-1.6,1.4-2.9,3-2.9c0,0,0,0,0.1,0l47.3,0.9c1.2,0,2.3,0.8,2.7,1.9c6.3,16.2,10.4,23.5,15.7,32.8    c3.5,6.1,7.4,13.1,12.5,23.8c0.7,1.5,0.1,3.3-1.4,4C128.8,160.3,128.3,160.4,127.9,160.4z" id="XMLID_11468_"/></g><g id="XMLID_7053_"><path d="M49.3,114H6.6c-1.7,0-3-1.3-3-3V90c0-1.7,1.3-3,3-3h42.7c1.7,0,3,1.3,3,3v21    C52.3,112.6,51,114,49.3,114z M9.6,108h36.7V93H9.6V108z" id="XMLID_11465_"/></g></g></svg>