<?xml version="1.0" ?><!DOCTYPE svg  PUBLIC '-//W3C//DTD SVG 1.1//EN'  'http://www.w3.org/Graphics/SVG/1.1/DTD/svg11.dtd'><svg height="6.82666in" style="shape-rendering:geometricPrecision; text-rendering:geometricPrecision; image-rendering:optimizeQuality; fill-rule:evenodd; clip-rule:evenodd" viewBox="0 0 6.82666 6.82666" width="6.82666in" xml:space="preserve" xmlns="http://www.w3.org/2000/svg" xmlns:xlink="http://www.w3.org/1999/xlink"><defs><style type="text/css">
   <![CDATA[
    .fil0 {fill:#0288D1}
    .fil2 {fill:#0D415E}
    .fil1 {fill:#FFFFFE}
   ]]>
  </style></defs><g id="Layer_x0020_1"><circle class="fil0" cx="3.41333" cy="3.41333" r="3.41333"/><path class="fil1" d="M1.58835 1.95879l3.64994 0c0.232091,0 0.421697,0.189598 0.421697,0.421693l0 2.0657c0,0.232094 -0.189606,0.421693 -0.421697,0.421693l-3.64994 0c-0.232091,0 -0.421689,-0.189606 -0.421689,-0.421693l0 -2.0657c0,-0.232087 0.189598,-0.421693 0.421689,-0.421693z"/><g id="_476860712"><path class="fil2" d="M1.58835 2.03878l3.64994 0c0.187941,0 0.341701,0.153756 0.341701,0.341697l0 2.0657c0,0.187941 -0.15376,0.341697 -0.341701,0.341697l-3.64994 0c-0.187933,0 -0.341693,-0.153756 -0.341693,-0.341697l0 -2.0657c0,-0.187941 0.15376,-0.341697 0.341693,-0.341697zm1.82498 1.98023c-0.195445,0.277177 -0.514264,0.445488 -0.859213,0.445488 -0.580524,0 -1.05118,-0.47065 -1.05118,-1.05117 0,-0.58052 0.470654,-1.05117 1.05118,-1.05117 0.344949,0 0.663768,0.168311 0.859213,0.445488 0.195449,-0.277177 0.514272,-0.445488 0.85922,-0.445488 0.58052,0 1.05117,0.470654 1.05117,1.05117 0,0.580516 -0.470654,1.05117 -1.05117,1.05117 -0.344949,0 -0.663772,-0.168311 -0.85922,-0.445488z" id="_476861624"/><path class="fil2" d="M4.27255 2.43205c-0.369933,0 -0.692008,0.20474 -0.85922,0.507059 -0.167213,-0.302319 -0.489283,-0.507059 -0.859213,-0.507059 -0.541953,0 -0.981287,0.439335 -0.981287,0.98128 0,0.541945 0.439335,0.98128 0.981287,0.98128 0.369929,0 0.692,-0.20474 0.859213,-0.507059 0.167213,0.302319 0.489287,0.507059 0.85922,0.507059 0.541945,0 0.981283,-0.439335 0.981283,-0.98128 0,-0.541945 -0.439339,-0.98128 -0.981283,-0.98128zm-1.82502 1.03011l0.14572 0.0439409c-0.00976378,0.040811 -0.0251614,0.0749921 -0.0463228,0.10228 -0.0210276,0.0274213 -0.0470709,0.0480748 -0.0783661,0.0619724 -0.0311732,0.0138976 -0.0708583,0.0209094 -0.119059,0.0209094 -0.0585906,0 -0.106287,-0.00851181 -0.143472,-0.0254173 -0.0370551,-0.0170236 -0.0689803,-0.0469449 -0.0958976,-0.0896378 -0.0269173,-0.042689 -0.040437,-0.0975236 -0.040437,-0.164126 0,-0.0888858 0.0236614,-0.15724 0.0709843,-0.205063 0.0474488,-0.0476969 0.114429,-0.0716102 0.201059,-0.0716102 0.0677323,0 0.121063,0.0136457 0.15987,0.041063 0.038685,0.0274173 0.0676063,0.0694803 0.0863858,0.126319l-0.146476 0.0324252c-0.00513386,-0.0162795 -0.0105157,-0.0281693 -0.0161496,-0.0356811 -0.00938976,-0.0126417 -0.0207835,-0.0224094 -0.0341772,-0.0291693 -0.0135197,-0.00688583 -0.0285433,-0.0102638 -0.0451969,-0.0102638 -0.0378071,0 -0.0667244,0.0151457 -0.0867559,0.0453189 -0.0151496,0.0224094 -0.0227835,0.0577126 -0.0227835,0.105661 0,0.0595906 0.00901181,0.100276 0.0271654,0.122437 0.0181496,0.0220354 0.0435669,0.0330512 0.0763661,0.0330512 0.0317992,0 0.0558386,-0.00888976 0.0721102,-0.0267913 0.0162756,-0.0177795 0.0280433,-0.0436929 0.0354331,-0.0776181zm0.221465 -0.31774l0.149476 0 0 0.101406 -0.149476 0 0 -0.101406zm0 0.147976l0.149476 0 0 0.38985 -0.149476 0 0 -0.38985zm0.246378 0l0.139965 0 0 0.0635984c0.0135197,-0.0276654 0.0274173,-0.0466969 0.041689,-0.0570866 0.0143976,-0.0103898 0.0320472,-0.0155236 0.0530827,-0.0155236 0.0221575,0 0.0463189,0.00688583 0.0724843,0.0206575l-0.0463228 0.106039c-0.0176496,-0.00738976 -0.0316693,-0.0110197 -0.041937,-0.0110197 -0.0195315,0 -0.0348031,0.0081378 -0.0455709,0.0242874 -0.0153976,0.0227835 -0.0231575,0.0654764 -0.0231575,0.127945l0 0.130953 -0.150232 0 0 -0.38985zm0.364937 0l0.139965 0 0 0.0635984c0.0135197,-0.0276654 0.0274173,-0.0466969 0.041689,-0.0570866 0.0143976,-0.0103898 0.0320472,-0.0155236 0.0530827,-0.0155236 0.0221614,0 0.0463189,0.00688583 0.0724843,0.0206575l-0.0463189 0.106039c-0.0176535,-0.00738976 -0.0316732,-0.0110197 -0.0419409,-0.0110197 -0.0195315,0 -0.0348031,0.0081378 -0.0455709,0.0242874 -0.0153976,0.0227835 -0.0231575,0.0654764 -0.0231575,0.127945l0 0.130953 -0.150232 0 0 -0.38985zm0.766929 0.38985l-0.139591 0 0 -0.0628465c-0.0207795,0.0259173 -0.041685,0.0443189 -0.0627205,0.0553346 -0.0211575,0.0110157 -0.0470748,0.0165276 -0.0778661,0.0165276 -0.0410669,0 -0.0731142,-0.0122677 -0.0965276,-0.0369331 -0.0232835,-0.0245394 -0.0349291,-0.0624724 -0.0349291,-0.113677l0 -0.248256 0.150232 0 0 0.214831c0,0.0244134 0.00450787,0.041815 0.0135197,0.0522047 0.00901575,0.0102677 0.0216614,0.0154016 0.037937,0.0154016 0.0176496,0 0.0321732,-0.00688583 0.0435669,-0.0205315 0.0112677,-0.0137717 0.0169016,-0.0384331 0.0169016,-0.0739882l0 -0.187917 0.149476 0 0 0.38985zm0.0646024 -0.108165l0.147976 -0.0135197c0.00613386,0.0175236 0.0146496,0.0300433 0.0256654,0.0375551 0.0110157,0.00751181 0.0256614,0.0112677 0.0440669,0.0112677 0.0200315,0 0.0355551,-0.00425591 0.0465748,-0.0128937 0.00863386,-0.00625984 0.0128937,-0.0142756 0.0128937,-0.0237874 0,-0.0107677 -0.00563386,-0.0191535 -0.0169016,-0.0250354 -0.00801181,-0.00413386 -0.0294213,-0.00926772 -0.0640984,-0.0154016 -0.0518307,-0.00901575 -0.0877598,-0.0174016 -0.108043,-0.0251614 -0.0201575,-0.0076378 -0.0370551,-0.0207835 -0.0509528,-0.039063 -0.0137717,-0.0184055 -0.0206575,-0.039311 -0.0206575,-0.0628465 0,-0.0256614 0.00738976,-0.0478228 0.0222874,-0.0663504 0.0148937,-0.0186575 0.0354252,-0.0325512 0.0615906,-0.041689 0.0261654,-0.00914173 0.0612205,-0.0137717 0.105161,-0.0137717 0.0463228,0 0.080626,0.00350787 0.102661,0.0106417 0.0221575,0.00713386 0.040563,0.0181535 0.0553346,0.0330472 0.0147717,0.0150276 0.0270433,0.0351811 0.0368071,0.0607205l-0.14122 0.0135197c-0.00362992,-0.0123898 -0.00976378,-0.0215315 -0.0182756,-0.0274134 -0.0116457,-0.00776378 -0.0257874,-0.0116457 -0.0424409,-0.0116457 -0.0167756,0 -0.0290472,0.00300787 -0.0366811,0.00901575 -0.0076378,0.00600787 -0.0115157,0.0132717 -0.0115157,0.0217835 0,0.0096378 0.00488189,0.0167756 0.0145197,0.0216575 0.0096378,0.00500787 0.0309252,0.00938976 0.0635984,0.0132717 0.0497008,0.00563386 0.0865079,0.0135197 0.110795,0.0235315 0.0241614,0.0100197 0.0426929,0.0242913 0.0554606,0.0429449 0.0128937,0.0186535 0.0192795,0.0390591 0.0192795,0.0613465 0,0.0225315 -0.00675984,0.0444409 -0.0204055,0.0657205 -0.0135197,0.0212874 -0.0349291,0.038185 -0.0641024,0.0508307 -0.0291654,0.0126457 -0.0689803,0.0189055 -0.119303,0.0189055 -0.0711102,0 -0.121815,-0.0101457 -0.151988,-0.0305472 -0.0301693,-0.0202835 -0.0495748,-0.0492047 -0.0580866,-0.0866339zm0.48587 -0.041315l0.159248 0 0 0.14948 -0.159248 0 0 -0.14948z" id="_476861432"/></g></g></svg>