<?xml version="1.0" ?><!DOCTYPE svg  PUBLIC '-//W3C//DTD SVG 1.1//EN'  'http://www.w3.org/Graphics/SVG/1.1/DTD/svg11.dtd'><svg height="6.82666in" style="shape-rendering:geometricPrecision; text-rendering:geometricPrecision; image-rendering:optimizeQuality; fill-rule:evenodd; clip-rule:evenodd" viewBox="0 0 6.82666 6.82666" width="6.82666in" xml:space="preserve" xmlns="http://www.w3.org/2000/svg" xmlns:xlink="http://www.w3.org/1999/xlink"><defs><style type="text/css">
   <![CDATA[
    .fil3 {fill:black}
    .fil2 {fill:#2F4120}
    .fil0 {fill:#689F38}
    .fil1 {fill:#FFFFFE}
   ]]>
  </style></defs><g id="Layer_x0020_1"><circle class="fil0" cx="3.41333" cy="3.41333" r="3.41333"/><path class="fil1" d="M1.58835 1.95879l3.64994 0c0.232091,0 0.421697,0.189598 0.421697,0.421693l0 2.0657c0,0.232094 -0.189606,0.421693 -0.421697,0.421693l-3.64994 0c-0.232091,0 -0.421689,-0.189606 -0.421689,-0.421693l0 -2.0657c0,-0.232087 0.189598,-0.421693 0.421689,-0.421693z"/><path class="fil2" d="M1.58835 2.03878l3.64994 0c0.187941,0 0.341701,0.153756 0.341701,0.341697l0 2.0657c0,0.187941 -0.15376,0.341697 -0.341701,0.341697l-3.64994 0c-0.187933,0 -0.341693,-0.153756 -0.341693,-0.341697l0 -2.0657c0,-0.187941 0.15376,-0.341697 0.341693,-0.341697zm0.482201 1.0513c0.178528,0 0.323252,0.144724 0.323252,0.323252 0,0.178528 -0.144724,0.323252 -0.323252,0.323252 -0.178528,0 -0.323252,-0.144724 -0.323252,-0.323252 0,-0.178528 0.144724,-0.323252 0.323252,-0.323252zm0.416339 0.0652717l0.142457 0 0 0.175295c0.0140591,-0.0147638 0.0300039,-0.025752 0.0479606,-0.0331929 0.0178307,-0.00732283 0.037563,-0.0109843 0.0592953,-0.0109843 0.0447677,0 0.0817402,0.016063 0.111035,0.048311 0.0292953,0.032248 0.0439409,0.0785512 0.0439409,0.138913 0,0.0401614 -0.00673228,0.0755984 -0.0200827,0.106311 -0.0133425,0.0305945 -0.0318898,0.0535079 -0.0555118,0.0686299 -0.0236299,0.0151181 -0.0498504,0.0226811 -0.0786732,0.0226811 -0.024689,0 -0.0473701,-0.0053189 -0.0678031,-0.0159528 -0.0154764,-0.00838583 -0.0323661,-0.0239764 -0.0505551,-0.0470118l0 0.0544567 -0.132063 0 0 -0.507457zm0.141394 0.322122c0,0.0317756 0.00590551,0.054811 0.0178346,0.0689843 0.011815,0.0142913 0.026815,0.0213819 0.0450079,0.0213819 0.0167717,0 0.0309449,-0.0069685 0.0422874,-0.0210276 0.0114606,-0.0140591 0.017126,-0.037563 0.017126,-0.0706378 0,-0.0291772 -0.00555118,-0.0506732 -0.0167717,-0.0642598 -0.0111063,-0.0137008 -0.024689,-0.0205512 -0.0405157,-0.0205512 -0.0191339,0 -0.0347323,0.00708661 -0.0467795,0.0213819 -0.0121654,0.0141732 -0.018189,0.0357874 -0.018189,0.0647283zm0.335587 -0.322122l0.141039 0 0 0.0956811 -0.141039 0 0 -0.0956811zm0 0.139622l0.141039 0 0 0.367835 -0.141039 0 0 -0.367835zm0.401146 -0.139622l0 0.139622 0.0772559 0 0 0.103476 -0.0772559 0 0 0.130169c0,0.0155906 0.00153543,0.0259882 0.00449213,0.0310669 0.00460236,0.00779921 0.0127559,0.0116929 0.0243307,0.0116929 0.0103937,0 0.0249252,-0.00294882 0.0437047,-0.00897638l0.0103976 0.0974528c-0.0348465,0.00767717 -0.0673307,0.0114606 -0.0975709,0.0114606 -0.0350827,0 -0.0609528,-0.00449213 -0.0776063,-0.0134685 -0.0165354,-0.00897638 -0.0288228,-0.0226811 -0.0368543,-0.0409882 -0.00791339,-0.018311 -0.0119331,-0.0480748 -0.0119331,-0.0890669l0 -0.129343 -0.0517362 0 0 -0.103476 0.0517362 0 0 -0.0674488 0.141039 -0.0721732zm0.418748 0.363583l0.133953 0.0148819c-0.00744488,0.0279961 -0.0194921,0.0522126 -0.0363858,0.0727638 -0.0167717,0.020437 -0.0383898,0.0363858 -0.0646102,0.0477205 -0.0261063,0.0113425 -0.0594173,0.0170157 -0.099815,0.0170157 -0.0390984,0 -0.0715827,-0.00366535 -0.0975709,-0.0108701 -0.0258701,-0.00732283 -0.0481929,-0.0191339 -0.0669764,-0.035437 -0.0186614,-0.0161811 -0.0333071,-0.0353189 -0.0439409,-0.0572874 -0.0106299,-0.0219724 -0.0159449,-0.0510315 -0.0159449,-0.0872953 0,-0.0377992 0.00649606,-0.0693386 0.0193701,-0.0944961 0.00944882,-0.0185472 0.0224449,-0.0350866 0.0388661,-0.0497323 0.0164173,-0.0146496 0.0331929,-0.0256299 0.0505551,-0.0327205 0.0275236,-0.0113386 0.0627244,-0.0170079 0.105602,-0.0170079 0.060122,0 0.105839,0.010748 0.137378,0.0321299 0.0315354,0.0214961 0.053626,0.0527992 0.0663819,0.0940236l-0.132535 0.0177205c-0.00413386,-0.0157126 -0.0116929,-0.0275236 -0.0226772,-0.0355551 -0.0109843,-0.00791339 -0.025752,-0.0119331 -0.0442953,-0.0119331 -0.0232717,0 -0.0421693,0.00838583 -0.0567008,0.0250433 -0.0144094,0.0167717 -0.0216181,0.0420512 -0.0216181,0.0760709 0,0.0302402 0.00720866,0.0531575 0.0215039,0.0688661 0.0142913,0.0157126 0.0324803,0.0235079 0.054689,0.0235079 0.0184252,0 0.0340197,-0.00472441 0.0465394,-0.0140591 0.0126417,-0.00944882 0.0219724,-0.0238583 0.0282323,-0.0433504zm0.181437 -0.0389803c0,-0.0562283 0.0188976,-0.102531 0.0566969,-0.138913 0.0377992,-0.036378 0.0888268,-0.0545709 0.153091,-0.0545709 0.0735906,0 0.129106,0.0213819 0.166669,0.0641417 0.030122,0.0344921 0.0452402,0.0768937 0.0452402,0.127217 0,0.0566969 -0.0186654,0.103004 -0.0561063,0.139268 -0.0374488,0.0361457 -0.0893031,0.0542205 -0.155449,0.0542205 -0.0589449,0 -0.106665,-0.0150039 -0.143051,-0.045126 -0.0447638,-0.0372087 -0.0670906,-0.0859921 -0.0670906,-0.146236zm0.141035 -0.00023622c0,0.0329567 0.00661811,0.0572913 0.0198465,0.073 0.0132283,0.0157126 0.0297677,0.023626 0.0498465,0.023626 0.0202008,0 0.0367402,-0.00779528 0.0497283,-0.0232717 0.0129961,-0.0154764 0.0194921,-0.0403976 0.0194921,-0.0746535 0,-0.0320118 -0.00649606,-0.0557559 -0.0196063,-0.0714646 -0.0131142,-0.0155906 -0.0292953,-0.0233898 -0.0486693,-0.0233898 -0.0204331,0 -0.0373268,0.00791732 -0.0506732,0.0237441 -0.0133465,0.0159449 -0.0199646,0.0400433 -0.0199646,0.0724094zm0.353661 -0.324366l0.141039 0 0 0.0956811 -0.141039 0 0 -0.0956811zm0 0.139622l0.141039 0 0 0.367835 -0.141039 0 0 -0.367835zm0.231051 0l0.131354 0 0 0.0598898c0.0196024,-0.0245709 0.0393346,-0.0420551 0.0594134,-0.052563 0.0200827,-0.0105157 0.0444134,-0.0158307 0.0732362,-0.0158307 0.0389803,0 0.0693386,0.0115748 0.0914291,0.0348465 0.0219685,0.0231535 0.0329528,0.059063 0.0329528,0.10761l0 0.233882 -0.141744 0 0 -0.202343c0,-0.0231535 -0.00425591,-0.0394528 -0.0127598,-0.0490236 -0.00850394,-0.00956693 -0.020437,-0.0144094 -0.0357913,-0.0144094 -0.0168898,0 -0.0307126,0.00649606 -0.0412244,0.0193701 -0.0105118,0.0129961 -0.0158268,0.0361457 -0.0158268,0.0696929l0 0.176713 -0.141039 0 0 -0.367835z"/><path class="fil3" d="M1.95046 3.54328l7.87402e-006 -1.9685e-005 -0.0226378 -0.00606693 0.00889764 -0.0332047 0.0226378 0.00606299 0.00236614 -0.00883858 0.0541378 -0.202035 0.00236614 -0.00883858 -0.0226378 -0.00606693 0.00889764 -0.0332087 0.0226378 0.00606693 0.00603543 -0.0225197 0.0378937 0.0101535 -0.00603543 0.0225197 0.0222323 0.00595669 0.00603543 -0.0225197 0.0378898 0.0101535 -0.0060315 0.0225197 0.00935433 0.00250787c0.0218465,0.00585433 0.0385984,0.0134094 0.0502992,0.0227559 0.0116378,0.00933071 0.0195709,0.0210236 0.0237992,0.0350787 0.00431496,0.0140039 0.00466929,0.0275945 0.0011378,0.0407795 -0.00326772,0.012189 -0.00968504,0.0228228 -0.0191693,0.0318465 -0.00948819,0.00902362 -0.021815,0.0150709 -0.0369882,0.0181457 0.0159606,0.00970079 0.0269646,0.0219291 0.032937,0.0366654 0.00605906,0.014689 0.00685039,0.0303937 0.00238583,0.0470433 -0.00360236,0.0134567 -0.00980709,0.0251457 -0.0185551,0.0351496 -0.00874803,0.0100079 -0.0181181,0.0169921 -0.028122,0.0210236 -0.00998425,0.00396063 -0.0217087,0.00588976 -0.0350866,0.00573228 -0.0134488,-0.000177165 -0.0292638,-0.00270079 -0.0475118,-0.00759055l-0.0111535 -0.00298819 -0.0060315 0.0225 -0.0378937 -0.0101535 0.0060315 -0.0225 -0.0222323 -0.00595669 -0.00602756 0.0225 -0.0378937 -0.0101535 0.00602756 -0.0225zm0.0824094 -0.155681l0.061878 0.0165787c0.0167874,0.00449606 0.0291457,0.00659449 0.0369961,0.00634252 0.0104252,-0.000275591 0.0189685,-0.00312598 0.0256181,-0.00848425 0.00664567,-0.00535827 0.0113425,-0.0130236 0.0140354,-0.0230827 0.00255118,-0.00952362 0.00253543,-0.0185236 -0.000129921,-0.0269488 -0.00258661,-0.00847244 -0.00777559,-0.0152165 -0.0155197,-0.0201496 -0.00774409,-0.00492913 -0.0219094,-0.0101535 -0.0424252,-0.0156496l-0.0572165 -0.0153307 -0.0232362 0.0867244zm-0.0354449 0.132283l0.0712677 0.0190945c0.0122559,0.00328346 0.0209764,0.00512205 0.0262205,0.00552756 0.00907087,0.000787402 0.0170945,0.000153543 0.023937,-0.00194094 0.00684252,-0.00209055 0.0130669,-0.00613386 0.0187362,-0.0121102 0.00566929,-0.00597638 0.00969685,-0.0135394 0.0121417,-0.0226614 0.00287402,-0.0107244 0.00262205,-0.0207165 -0.000783465,-0.030122 -0.00333858,-0.00938976 -0.00944882,-0.0169528 -0.0183189,-0.0227559 -0.00879921,-0.0057874 -0.0223583,-0.0111339 -0.0405433,-0.0160039l-0.0662087 -0.0177402 -0.0264488 0.0987126z"/></g></svg>