<?xml version="1.0" ?><!DOCTYPE svg  PUBLIC '-//W3C//DTD SVG 1.1//EN'  'http://www.w3.org/Graphics/SVG/1.1/DTD/svg11.dtd'><svg enable-background="new 0 0 512 512" id="Layer_1" version="1.1" viewBox="0 0 512 512" xml:space="preserve" xmlns="http://www.w3.org/2000/svg" xmlns:xlink="http://www.w3.org/1999/xlink"><g><g><circle cx="256" cy="256" fill="#41C2E0" r="244.4"/></g></g><path d="M212.4,316.9c-23.6-0.8-38.3-17.7-42.2-31.5c6.6,1.3,13,1,19.4-0.6c0.2,0,0.3-0.2,0.6-0.3  c-12.7-3-22.6-9.8-29.5-20.8c-4.5-7.3-6.7-15.3-6.6-24.1c6.4,3.4,13,5.3,20.2,5.5c-9.6-6.9-16-15.9-18.7-27.5  c-2.6-11.5-0.9-22.5,4.9-32.9c24.6,29,55.7,44.8,93.6,47.4c-0.3-1.8-0.5-3.4-0.7-5c-1.3-10.7,0.8-20.6,6.6-29.7  c7.2-11.3,17.5-18.4,30.8-20.5c15.3-2.5,28.6,1.9,39.7,12.7c0.7,0.7,1.4,1,2.4,0.7c9.3-2,18.1-5.4,26.4-10.2  c0.2-0.1,0.4-0.2,0.6-0.3c0.1,0,0.1,0,0.3,0c-3.6,10.6-10.1,18.7-19.4,24.7c8.8-1,17.2-3.3,25.3-6.8c0.1,0.1,0.1,0.1,0.2,0.2  c-1.7,2.3-3.4,4.6-5.2,6.8c-4.8,5.9-10.3,11.1-16.5,15.7c-0.5,0.4-0.8,0.8-0.7,1.4c0.3,6.7,0,13.5-0.9,20.1  c-1.7,14.1-5.7,27.6-11.7,40.4c-6.2,13.3-14.3,25.2-24.5,35.8c-17.3,17.9-38.1,29.4-62.4,34.7c-8.3,1.8-16.8,2.8-25.3,3  c-26.2,0.8-50.3-5.7-72.6-19.5c-0.3-0.2-0.6-0.4-1.1-0.7c15.8,1.7,30.9-0.3,45.4-6.3C198.5,326.4,205.6,322.2,212.4,316.9z" fill="#FFFFFF"/><g><path d="M255.3,474.1c-58.5,0-113.5-22.8-154.9-64.2C59,368.5,36.2,313.5,36.2,255S59,141.5,100.3,100.1   c41.4-41.4,96.4-64.2,154.9-64.2s113.5,22.8,154.9,64.2c41.4,41.4,64.2,96.4,64.2,154.9s-22.8,113.5-64.2,154.9   S313.8,474.1,255.3,474.1z M255.3,51.9C143.3,51.9,52.2,143,52.2,255s91.1,203.1,203.1,203.1S458.3,367,458.3,255   S367.2,51.9,255.3,51.9z" fill="#FFFFFF"/></g></svg>