<?xml version="1.0" ?><!DOCTYPE svg  PUBLIC '-//W3C//DTD SVG 1.1//EN'  'http://www.w3.org/Graphics/SVG/1.1/DTD/svg11.dtd'><svg enable-background="new 0 0 512 512" id="Layer_1" version="1.1" viewBox="0 0 512 512" xml:space="preserve" xmlns="http://www.w3.org/2000/svg" xmlns:xlink="http://www.w3.org/1999/xlink"><g><g><circle cx="256" cy="256" fill="#D80976" r="244.4"/></g></g><path d="M191.3,210.2c-26.7,0-48.6,19.4-52.1,44.8l0,0c-0.5,2.2-0.6,4.7-0.6,7.1c0,28.7,23.5,51.7,52.7,51.7  c29,0,52.5-23,52.5-51.7c0-7.8-1.6-15.1-4.5-21.6C230.7,222.6,212.5,210.2,191.3,210.2L191.3,210.2z M375.7,257.8  c-2-26.8-24.8-47.7-52.4-47.7c-21.5,0-39.7,12.5-48.1,30.6c-2.8,6.6-4.5,13.6-4.5,21.3c0,28.7,23.5,51.7,52.7,51.7  c29,0,52.5-23,52.5-51.7C375.9,260.8,375.9,259.3,375.7,257.8L375.7,257.8z" fill="#FFFFFF"/><g><path d="M255.3,474.1c-58.5,0-113.5-22.8-154.9-64.2S36.2,313.5,36.2,255S59,141.5,100.3,100.1   c41.4-41.4,96.4-64.2,154.9-64.2s113.5,22.8,154.9,64.2s64.2,96.4,64.2,154.9s-22.8,113.5-64.2,154.9S313.8,474.1,255.3,474.1z    M255.3,51.9C143.3,51.9,52.2,143,52.2,255s91.1,203.1,203.1,203.1s203-91.1,203-203.1S367.2,51.9,255.3,51.9z" fill="#FFFFFF"/></g></svg>