<?xml version="1.0" ?><!DOCTYPE svg  PUBLIC '-//W3C//DTD SVG 1.1//EN'  'http://www.w3.org/Graphics/SVG/1.1/DTD/svg11.dtd'><svg enable-background="new 0 0 512 512" id="Layer_1" version="1.1" viewBox="0 0 512 512" xml:space="preserve" xmlns="http://www.w3.org/2000/svg" xmlns:xlink="http://www.w3.org/1999/xlink"><g><g><circle cx="256" cy="256" fill="#AD0707" r="244.4"/></g></g><path d="M241,292.3c-0.2,0.7-0.4,1.3-0.5,1.8c-8.8,34.3-9.7,41.9-18.7,57.9c-4.3,7.6-9.1,14.8-14.5,21.6  c-0.6,0.8-1.1,1.8-2.4,1.5c-1.3-0.3-1.4-1.5-1.6-2.5c-1.4-10.4-2.2-20.9-1.9-31.4c0.5-13.7,2.2-18.4,19.8-92.7  c0.3-1.1-0.1-2.1-0.4-3.1c-4.2-11.4-5.1-23-1.4-34.7c8-25.3,36.7-27.3,41.8-6.4c3.1,12.9-5.1,29.9-11.4,54.9  c-5.2,20.6,19.1,35.3,39.9,20.3c19.2-13.9,26.6-47.2,25.2-70.8c-2.8-47.1-54.4-57.3-87.2-42.1c-37.6,17.4-46.1,63.9-29.1,85.2  c2.2,2.7,3.8,4.3,3.1,7.1c-1.1,4.3-2.1,8.6-3.3,12.8c-0.9,3.1-3.5,4.3-6.7,3c-6.2-2.5-11.5-6.5-15.7-11.7  c-14.4-17.8-18.5-53.1,0.5-82.9c21.1-33.1,60.3-46.5,96.1-42.4c42.8,4.9,69.8,34.1,74.9,67.2c2.3,15.1,0.7,52.4-20.5,78.7  c-24.4,30.3-63.9,32.3-82.2,13.7C243.6,295.7,242.4,294,241,292.3z" fill="#FFFFFF"/><g><path d="M255.3,474.1c-58.5,0-113.5-22.8-154.9-64.2C59,368.5,36.2,313.5,36.2,255S59,141.5,100.3,100.1   c41.4-41.4,96.4-64.2,154.9-64.2s113.5,22.8,154.9,64.2c41.4,41.4,64.2,96.4,64.2,154.9s-22.8,113.5-64.2,154.9   S313.8,474.1,255.3,474.1z M255.3,51.9C143.3,51.9,52.2,143,52.2,255s91.1,203.1,203.1,203.1S458.3,367,458.3,255   S367.2,51.9,255.3,51.9z" fill="#FFFFFF"/></g></svg>