<?xml version="1.0" ?><!DOCTYPE svg  PUBLIC '-//W3C//DTD SVG 1.1//EN'  'http://www.w3.org/Graphics/SVG/1.1/DTD/svg11.dtd'><svg enable-background="new 0 0 512 512" id="Layer_1" version="1.1" viewBox="0 0 512 512" xml:space="preserve" xmlns="http://www.w3.org/2000/svg" xmlns:xlink="http://www.w3.org/1999/xlink"><g><g><linearGradient gradientTransform="matrix(1 0 0 -1 0 512)" gradientUnits="userSpaceOnUse" id="SVGID_1_" x1="11.6" x2="500.4" y1="256" y2="256"><stop offset="0" style="stop-color:#FFC658"/><stop offset="0.3656" style="stop-color:#F62B37"/><stop offset="0.6398" style="stop-color:#C82091"/><stop offset="0.9892" style="stop-color:#3542E0"/></linearGradient><circle cx="256" cy="256" fill="url(#SVGID_1_)" r="244.4"/></g></g><radialGradient cx="220.1564" cy="-76.0758" gradientTransform="matrix(0.9785 0 0 -0.9785 5.4897 506.9309)" gradientUnits="userSpaceOnUse" id="SVGID_2_" r="604.5208"><stop offset="0" style="stop-color:#FFC658"/><stop offset="0.3656" style="stop-color:#F62B37"/><stop offset="0.6398" style="stop-color:#C82091"/><stop offset="0.9892" style="stop-color:#3542E0"/></radialGradient><path d="M498.7,227c2.3,19.3,2.3,38.7,0,58  C485.3,397,397,485.3,285,498.7c-19.3,2.3-38.7,2.3-58,0C115,485.3,26.7,397,13.3,285c-2.3-19.3-2.3-38.7,0-58  C26.7,115,115,26.7,227,13.3c19.3-2.3,38.7-2.3,58,0C397,26.7,485.3,115,498.7,227z" enable-background="new    " fill="url(#SVGID_2_)" opacity="0.4"/><g><path d="M357.9,213c-1.4-13.6-6.6-25.7-16.8-35.4c-10.7-10.2-23.7-14.7-38-15.4c-24.3-1.3-82.1-2.2-102.5,1.1   c-23.2,3.8-38.4,17.3-44.8,40.2c-5,17.6-4,98.9-1.1,116.3c3.9,23.8,18,39.1,41.6,45.2c16.3,4.2,96.6,3.7,114.7,0.8   c23.8-3.9,39.2-17.9,45.4-41.4C361.2,306.3,359.5,229.3,357.9,213z M338.8,316.5c-2.8,18.1-14.8,29.3-33,31.3   c-16.7,1.8-91.4,2.8-106.8-1.5c-14.8-4.1-23.3-14.3-25.8-29.3c-2.4-14.3-2.9-85.5,0-104.5c2.7-17.9,14.7-29.1,32.8-31.2   c18.4-2.1,84.4-2.3,102,0.4c18.1,2.8,29.3,14.8,31.2,33C341.1,231.8,341.6,298.2,338.8,316.5z M256,211.4   c-29.4,0-53.1,23.8-53.1,53.2c0,29.3,23.7,53,53,53.1c29.4,0.1,53.2-23.7,53.2-53.1S285.4,211.4,256,211.4z M255.6,298.9   c-18.7,0-34-15.5-34-34.5c0-18.9,15.4-34.2,34.5-34.2c18.9,0,34.2,15.4,34.2,34.5C290.3,283.7,274.9,298.9,255.6,298.9z    M323.6,209.5c0,6.9-5.5,12.4-12.4,12.4s-12.4-5.4-12.4-12.4s5.5-12.6,12.6-12.5C318.2,197,323.6,202.5,323.6,209.5z" fill="#FFFFFF"/></g><g><path d="M255.3,474.1c-58.5,0-113.5-22.8-154.9-64.2C59,368.5,36.2,313.5,36.2,255S59,141.5,100.3,100.1   c41.4-41.4,96.4-64.2,154.9-64.2s113.5,22.8,154.9,64.2c41.4,41.4,64.2,96.4,64.2,154.9s-22.8,113.5-64.2,154.9   S313.8,474.1,255.3,474.1z M255.3,51.9C143.3,51.9,52.2,143,52.2,255s91.1,203.1,203.1,203.1S458.3,367,458.3,255   S367.2,51.9,255.3,51.9z" fill="#FFFFFF"/></g></svg>