<?xml version="1.0" ?><!DOCTYPE svg  PUBLIC '-//W3C//DTD SVG 1.1//EN'  'http://www.w3.org/Graphics/SVG/1.1/DTD/svg11.dtd'><svg enable-background="new 0 0 512 512" id="Layer_1" version="1.1" viewBox="0 0 512 512" xml:space="preserve" xmlns="http://www.w3.org/2000/svg" xmlns:xlink="http://www.w3.org/1999/xlink"><g><g><circle cx="256" cy="256" fill="#33A3C1" r="244.4"/></g></g><path d="M356.5,272.8c0.9-5.5,1.3-11.1,1.3-16.7c0-57.2-46.4-103.7-103.6-103.7c-5.7,0-11.2,0.5-16.7,1.4  c-9.5-6.3-20.9-10-33.2-10c-33.1,0-59.9,26.8-59.9,59.9c0,11.2,3.1,21.7,8.4,30.7c-1.5,7-2.3,14.3-2.3,21.7  c0,57.2,46.4,103.6,103.6,103.6c7.4,0,14.8-0.8,21.8-2.3c8.9,5.2,19.3,8.3,30.4,8.3c33.1,0,60-26.8,60-60  C366.3,293.5,362.7,282.2,356.5,272.8z M285.7,315.3c-14.4,6.5-35.8,6.7-50.9,3.1c-21.2-5.1-30.6-17.1-32.3-26.8  c-2.7-14.9,14.3-20.2,23.2-9.8c2.1,2.4,3.9,4.9,5.9,7.3c11.7,13.9,36.8,12.5,44.9,1.4c3.3-4.5,3.2-10.5-0.1-14.8  c-3.7-4.7-7.9-4.7-43.7-13.8c-34.8-8.8-34.2-39.7-24.1-54.7c8.2-12.2,24.1-17.1,38.8-18.3c25.4-1.9,53.3,10.1,55.8,26.6  c1,6.7-2.5,12-9.2,13.6c-9.6,2.2-12.9-3.9-18.2-9.6c-10.9-11.7-32.3-10.6-40-4.2c-5.8,4.8-6.7,13.1-1.1,17.7  c8.9,7.2,38.1,9.1,52.4,15.4c14.8,6.5,21.6,18.1,21.5,31.9C308.7,296.9,300.7,308.5,285.7,315.3z" fill="#FFFFFF"/><g><path d="M255.3,474.1c-58.5,0-113.5-22.8-154.9-64.2S36.2,313.5,36.2,255S59,141.5,100.3,100.1   c41.4-41.4,96.4-64.2,154.9-64.2s113.5,22.8,154.9,64.2s64.2,96.4,64.2,154.9s-22.8,113.5-64.2,154.9S313.8,474.1,255.3,474.1z    M255.3,51.9C143.3,51.9,52.2,143,52.2,255s91.1,203.1,203.1,203.1s203-91.1,203-203.1S367.2,51.9,255.3,51.9z" fill="#FFFFFF"/></g></svg>