<?xml version="1.0" ?><svg enable-background="new 0 0 24 24" id="Layer_1" version="1.1" viewBox="0 0 24 24" xml:space="preserve" xmlns="http://www.w3.org/2000/svg" xmlns:xlink="http://www.w3.org/1999/xlink"><g><path d="M22.372715,10.5869141c-1.9894981-1.1578979-6.1007576-0.3303223-8.5610056,0.3289795   c1.8258085-1.9006958,4.6880827-5.2640991,4.6880827-7.6776123C18.4997921,1.2709961,17.2332306,0,15.2728443,0   C14.178153,0,12.8017321,0.7685547,12,1.4526367C11.1987562,0.7685547,9.8223352,0,8.7271557,0   C6.7667689,0,5.5002079,1.2709961,5.5002079,3.2382812c0,2.413208,2.8616638,5.7761841,4.6874723,7.677002   c-2.4602489-0.6593628-6.5708351-1.4864502-8.5603962-0.3283691c-1.6352016,0.9536133-2.082453,2.6362305-1.1391237,4.2866211   c0.5243973,0.9169922,1.8143952,1.7001953,2.7665131,2.0458984c-0.1796818,1.0039062-0.1533153,2.5239258,0.3705935,3.4414062   c0.4638524,0.8100586,1.1088514,1.3457031,1.8656631,1.5483398c0.2246022,0.0600586,0.4575052,0.0898438,0.694314,0.0898438   c0.5605288,0,1.1440063-0.1660156,1.6972113-0.4882812c1.7023993-0.9925537,2.9756737-4.0003662,3.7486591-6.3572998   c0.0980806,1.06427,0.2376022,1.885498,0.3762093,2.6820068c0.2534094,1.4570312,0.4926596,2.8325195,0.4926596,5.6645508   c0,0.2763672,0.2236261,0.5,0.4999838,0.5c0.2763586,0,0.4999847-0.2236328,0.4999847-0.5   c0-2.9179688-0.2578049-4.4013672-0.507308-5.8354492c-0.0767803-0.4413452-0.1512403-0.8796997-0.2191706-1.348877   c0.7832394,2.0996094,1.9133301,4.3609009,3.3440704,5.1950684c0.5532055,0.3222656,1.1366825,0.4882812,1.6972122,0.4882812   c0.2368088,0,0.4697113-0.0297852,0.694313-0.0898438c0.7568111-0.2026367,1.4018097-0.7382812,1.8656635-1.5488281   c0.5243969-0.9169922,0.5502739-2.4370117,0.3705921-3.440918c0.9521198-0.3457031,2.2421169-1.1289062,2.7665138-2.0458984   C24.4551678,13.2231445,24.0079174,11.5405273,22.372715,10.5869141z" fill="#303C42"/><path d="M8.7266674,1c0.90625,0,2.362793,0.8833008,2.9023438,1.4790039   c0.0947266,0.1044922,0.2294922,0.1640625,0.3706055,0.1640625s0.2753906-0.0595703,0.3706055-0.1640625   C12.9102612,1.8833008,14.3668041,1,15.2725658,1c1.3945312,0,2.2270508,0.8369141,2.2270508,2.2382812   c0,2.3535156-3.6977539,6.3618164-5.5,8.0776367c-1.8022461-1.7148438-5.5-5.722168-5.5-8.0776367   C6.4996166,1.8369141,7.3321362,1,8.7266674,1z" fill="#69B342"/><path d="M15.2725658,1c-0.9057617,0-2.3623047,0.8833008-2.9023438,1.4790039   c-0.0952148,0.1044922-0.2294922,0.1640625-0.3706055,0.1640625s-0.2758789-0.0595703-0.3706055-0.1640625   C11.0894604,1.8833008,9.6329174,1,8.7266674,1C7.3321362,1,6.4996166,1.8369141,6.4996166,3.2382812   c0,2.3554688,3.6977539,6.362793,5.5,8.0776367c-1.4528198-1.3823853-4.4337158-4.612793-4.4337158-6.5115967   C7.5659008,3.6746216,8.2370434,3,9.3611889,3c0.7305908,0,1.9047241,0.7120361,2.3396606,1.1922607   c0.076355,0.0842285,0.1849976,0.1322632,0.2987671,0.1322632s0.2219849-0.0480347,0.2987671-0.1322632   C12.7336864,3.7120361,13.9078808,3,14.6380444,3c1.1241455,0,1.7952881,0.6746216,1.7952881,1.8043213   c0,1.8972168-2.980896,5.128418-4.4337158,6.5115967c1.8022461-1.7158203,5.5-5.7241211,5.5-8.0776367   C17.4996166,1.8369141,16.6670971,1,15.2725658,1z" fill="#FFFFFF" opacity="0.2"/><path d="M7.3780346,20.6464844c-0.5625,0.3286133-1.1259766,0.4316406-1.6293945,0.2963867   c-0.5004883-0.1337891-0.9228516-0.4970703-1.2558594-1.0786133c-0.4326172-0.7573242-0.4003906-2.3994141-0.1674805-3.1367188   c0.0424805-0.1337891,0.0263672-0.2792969-0.043457-0.4008789c-0.0703125-0.121582-0.1884766-0.2080078-0.3256836-0.2382812   c-0.7470703-0.1645508-2.1679688-0.9550781-2.6005859-1.7109375c-0.6645508-1.1621094-0.3750001-2.2563477,0.7749023-2.9262695   c1.9331055-1.1254883,6.9980469,0.1323242,9.2788086,0.8603516C10.8521557,14.6054688,9.3155346,19.5175781,7.3780346,20.6464844z" fill="#69B342"/><path d="M22.6436596,14.3774414c-0.4326172,0.7558594-1.8535156,1.5463867-2.6005859,1.7109375   c-0.137207,0.0302734-0.2553711,0.1166992-0.3256836,0.2382812c-0.0698242,0.121582-0.0859375,0.2670898-0.043457,0.4008789   c0.2329102,0.7373047,0.2651367,2.3793945-0.1674805,3.1362305c-0.3330078,0.5820312-0.7553711,0.9453125-1.2558594,1.0791016   c-0.5024414,0.1347656-1.065918,0.0322266-1.6293945-0.2963867c-1.9375-1.1289062-3.4741211-6.0410156-4.03125-8.3349609   c2.28125-0.7290039,7.3452148-1.9863281,9.2788086-0.8603516C23.0186596,12.1210938,23.3082104,13.215332,22.6436596,14.3774414z" fill="#69B342"/><path d="M7.840559,19.1989136c-0.5061646,0.2792969-1.0132446,0.3668213-1.4663086,0.2518921   c-0.4503784-0.1137085-0.8304443-0.4224854-1.130127-0.916748c-0.3893433-0.6436157-0.3603516-2.0392456-0.1507568-2.6658936   c0.038269-0.1137085,0.0237427-0.2373657-0.0390625-0.3407593c-0.0632935-0.1033325-0.1696167-0.1767578-0.2930908-0.2025146   c-0.6723022-0.1398315-1.9509888-0.8117065-2.340332-1.4541016c-0.5980225-0.9876709-0.3374634-1.9177246,0.6973267-2.4870605   c0.421814-0.2319336,1.0114136-0.3430176,1.6887207-0.3720703c-1.086853-0.0377197-2.0481567,0.0737305-2.6764526,0.4395142   c-1.1499023,0.6699219-1.4394531,1.7641602-0.7749023,2.9262695c0.4326172,0.7558594,1.8535156,1.5463867,2.6005859,1.7109375   c0.137207,0.0302734,0.2553711,0.1166992,0.3256836,0.2382812c0.0698242,0.121582,0.0859375,0.2670898,0.043457,0.4008789   c-0.2329102,0.7373047-0.2651367,2.3793945,0.1674805,3.1367188c0.3330078,0.581543,0.7553711,0.9448242,1.2558594,1.0786133   c0.503418,0.1352539,1.0668945,0.0322266,1.6293945-0.2963867c1.8571167-1.0820312,3.3433838-5.633606,3.9544067-8.0300903   C10.7459545,14.7040405,9.4473095,18.3147583,7.840559,19.1989136z" opacity="0.1"/><path d="M21.8687572,11.4511719c-0.6287231-0.3661499-1.5906372-0.4776611-2.6781006-0.4398804   c0.6779785,0.0290527,1.2681274,0.1401978,1.6903687,0.3724365c1.03479,0.5693359,1.2953491,1.4993896,0.6973267,2.4870605   c-0.3893433,0.642395-1.6680298,1.31427-2.340332,1.4541016c-0.1234741,0.0257568-0.2297974,0.0991821-0.2930908,0.2025146   c-0.0628052,0.1033936-0.0773315,0.2270508-0.0390625,0.3407593c0.2095947,0.6266479,0.2385864,2.0222778-0.1507568,2.6654663   c-0.2996826,0.4946899-0.6797485,0.8034668-1.130127,0.9171753c-0.4521484,0.114502-0.9592285,0.0274048-1.4663086-0.2518921   c-1.6067505-0.8841553-2.9053955-4.494873-3.4918823-6.5825195c0.6110229,2.3964844,2.09729,6.9480591,3.9544067,8.0300903   c0.5634766,0.3286133,1.1269531,0.4311523,1.6293945,0.2963867c0.5004883-0.1337891,0.9228516-0.4970703,1.2558594-1.0791016   c0.4326172-0.7568359,0.4003906-2.3989258,0.1674805-3.1362305c-0.0424805-0.1337891-0.0263672-0.2792969,0.043457-0.4008789   c0.0703125-0.121582,0.1884766-0.2080078,0.3256836-0.2382812c0.7470703-0.1645508,2.1679688-0.9550781,2.6005859-1.7109375   C23.3082104,13.215332,23.0186596,12.1210938,21.8687572,11.4511719z" opacity="0.1"/><linearGradient gradientUnits="userSpaceOnUse" id="SVGID_1_" x1="2.5392487" x2="22.7493954" y1="7.1192808" y2="16.5434265"><stop offset="0" style="stop-color:#FFFFFF;stop-opacity:0.2"/><stop offset="1" style="stop-color:#FFFFFF;stop-opacity:0"/></linearGradient><path d="M22.372715,10.5869141c-1.9894981-1.1578979-6.1007576-0.3303223-8.5610056,0.3289795   c1.8258085-1.9006958,4.6880827-5.2640991,4.6880827-7.6776123C18.4997921,1.2709961,17.2332306,0,15.2728443,0   C14.178153,0,12.8017321,0.7685547,12,1.4526367C11.1987562,0.7685547,9.8223352,0,8.7271557,0   C6.7667689,0,5.5002079,1.2709961,5.5002079,3.2382812c0,2.413208,2.8616638,5.7761841,4.6874723,7.677002   c-2.4602489-0.6593628-6.5708351-1.4864502-8.5603962-0.3283691c-1.6352016,0.9536133-2.082453,2.6362305-1.1391237,4.2866211   c0.5243973,0.9169922,1.8143952,1.7001953,2.7665131,2.0458984c-0.1796818,1.0039062-0.1533153,2.5239258,0.3705935,3.4414062   c0.4638524,0.8100586,1.1088514,1.3457031,1.8656631,1.5483398c0.2246022,0.0600586,0.4575052,0.0898438,0.694314,0.0898438   c0.5605288,0,1.1440063-0.1660156,1.6972113-0.4882812c1.7023993-0.9925537,2.9756737-4.0003662,3.7486591-6.3572998   c0.0980806,1.06427,0.2376022,1.885498,0.3762093,2.6820068c0.2534094,1.4570312,0.4926596,2.8325195,0.4926596,5.6645508   c0,0.2763672,0.2236261,0.5,0.4999838,0.5c0.2763586,0,0.4999847-0.2236328,0.4999847-0.5   c0-2.9179688-0.2578049-4.4013672-0.507308-5.8354492c-0.0767803-0.4413452-0.1512403-0.8796997-0.2191706-1.348877   c0.7832394,2.0996094,1.9133301,4.3609009,3.3440704,5.1950684c0.5532055,0.3222656,1.1366825,0.4882812,1.6972122,0.4882812   c0.2368088,0,0.4697113-0.0297852,0.694313-0.0898438c0.7568111-0.2026367,1.4018097-0.7382812,1.8656635-1.5488281   c0.5243969-0.9169922,0.5502739-2.4370117,0.3705921-3.440918c0.9521198-0.3457031,2.2421169-1.1289062,2.7665138-2.0458984   C24.4551678,13.2231445,24.0079174,11.5405273,22.372715,10.5869141z" fill="url(#SVGID_1_)"/></g><g/><g/><g/><g/><g/><g/><g/><g/><g/><g/><g/><g/><g/><g/><g/></svg>