<?xml version="1.0" ?><svg enable-background="new 0 0 24 24" id="Layer_1" version="1.1" viewBox="0 0 24 24" xml:space="preserve" xmlns="http://www.w3.org/2000/svg" xmlns:xlink="http://www.w3.org/1999/xlink"><path d="M19.8920898,3H20.5C20.7763672,3,21,2.7763672,21,2.5v-2C21,0.2236328,20.7763672,0,20.5,0h-2.800293  c-0.6538086,0-1.2675781,0.3193359-1.6411133,0.8535156c-0.3730469,0.5341797-0.4614258,1.21875-0.2373047,1.831543  C16.6352539,4.9077148,18,9.1381836,18,12.5c0,3.9487305-2.3549805,6.5-6,6.5s-6-2.5512695-6-6.5  c0-3.3574219,1.3657227-7.5908203,2.1801758-9.8154297c0.2241211-0.6132813,0.1352539-1.2973633-0.237793-1.8310547  C7.5688477,0.3188477,6.9550781,0,6.3012695,0H3.5C3.2236328,0,3,0.2236328,3,0.5v2C3,2.7763672,3.2236328,3,3.5,3h0.6079102  C2.7788086,5.3012695,1,9.440918,1,13.5C1,19.7807617,6.6879883,24,12,24s11-4.2192383,11-10.5  C23,9.440918,21.2211914,5.3012695,19.8920898,3z M3.5,14C3.223877,14,3,13.776123,3,13.5C3,13.2238159,3.223877,13,3.5,13  S4,13.2238159,4,13.5C4,13.776123,3.776123,14,3.5,14z M4.5,8C4.223877,8,4,7.776123,4,7.5C4,7.2238159,4.223877,7,4.5,7  S5,7.2238159,5,7.5C5,7.776123,4.776123,8,4.5,8z M5.5,19C5.223877,19,5,18.776123,5,18.5C5,18.2238159,5.223877,18,5.5,18  S6,18.2238159,6,18.5C6,18.776123,5.776123,19,5.5,19z M12,22c-0.276123,0-0.5-0.223877-0.5-0.5c0-0.2761841,0.223877-0.5,0.5-0.5  s0.5,0.2238159,0.5,0.5C12.5,21.776123,12.276123,22,12,22z M18.5,19c-0.276123,0-0.5-0.223877-0.5-0.5  c0-0.2761841,0.223877-0.5,0.5-0.5s0.5,0.2238159,0.5,0.5C19,18.776123,18.776123,19,18.5,19z M19.5,8  C19.223877,8,19,7.776123,19,7.5C19,7.2238159,19.223877,7,19.5,7S20,7.2238159,20,7.5C20,7.776123,19.776123,8,19.5,8z M20.5,14  c-0.276123,0-0.5-0.223877-0.5-0.5c0-0.2761841,0.223877-0.5,0.5-0.5s0.5,0.2238159,0.5,0.5C21,13.776123,20.776123,14,20.5,14z" fill="#303C42"/><g/><g/><g/><g/><g/><g/><g/><g/><g/><g/><g/><g/><g/><g/><g/></svg>