<?xml version="1.0" ?><svg enable-background="new 0 0 24 24" id="Layer_1" version="1.1" viewBox="0 0 24 24" xml:space="preserve" xmlns="http://www.w3.org/2000/svg" xmlns:xlink="http://www.w3.org/1999/xlink"><g><path d="M20,12.4308472V9.5c0-1.4526367,0.6894531-6.2387695,0.9003906-6.7001953l-0.0126953-0.0095215   C20.9536743,2.6993408,21,2.6043701,21,2.5C21,1.2602539,16.105957,1,12,1S3,1.2602539,3,2.5   c0,0.0899658,0.0327759,0.1732788,0.0820923,0.2531738L3.0737305,2.7587891C3.3105469,3.2612305,4,8.0473633,4,9.5v2.9308472   C1.2509155,13.0188599,0,14.4351807,0,17c0,3.2524414,5.4951172,6,12,6s12-2.7475586,12-6   C24,14.4351807,22.7490845,13.0188599,20,12.4308472z" fill="#303C42"/><path d="M14,13h-4c-0.6704712,0-1.2614136,0.3341064-1.6244507,0.8417358   C6.416626,13.6535645,5.4071655,13.3436279,5,13.1812134V9.5c0-0.8751831-0.3745728-4.248291-0.748291-6.1055298   C5.9708862,3.8764038,9.1719971,4,12,4s6.0291138-0.1235962,7.748291-0.6055298C19.3745728,5.251709,19,8.6248169,19,9.5v3.6679077   c-0.4370117,0.1618652-1.4822998,0.4678955-3.3867798,0.6602173C15.2493286,13.3286133,14.6641235,13,14,13z" fill="#69B342"/><path d="M15,15v3c0,0.5512695-0.4487305,1-1,1h-4c-0.5512695,0-1-0.4487305-1-1v-3c0-0.5512695,0.4487305-1,1-1h4   C14.5512695,14,15,14.4487305,15,15z" fill="#FFCA28"/><path d="M8,15v2.713562c-1.4321899-0.2359619-2.2832642-0.567749-2.7563477-0.8185425   C5.0932617,16.8149414,5,16.6499023,5,16.4643555V14.241394c0.5740356,0.1871338,1.5305786,0.4103394,3.0192871,0.567749   C8.0131226,14.8729248,8,14.9346313,8,15z" fill="#C38355"/><path d="M15.979126,14.7935181C17.4481812,14.6300049,18.4188232,14.4024658,19,14.220459v2.2438965   c0,0.1855469-0.0932617,0.3505859-0.2436523,0.4306641C18.2832642,17.145813,17.4321899,17.4776001,16,17.713562V15   C16,14.9293213,15.9863281,14.8623657,15.979126,14.7935181z" fill="#C38355"/><path d="M5.6555176,3.6707153C5.12677,3.5949707,4.6466064,3.505188,4.251709,3.3944702   C4.6254272,5.251709,5,8.6248169,5,9.5v3.6812134c0.2060547,0.0822144,0.5681763,0.2022095,1.1277466,0.3250732V9.3682861   C6.1277466,8.5481567,5.9096069,5.7806396,5.6555176,3.6707153z" fill="#FFFFFF" opacity="0.2"/><path d="M18.3444824,3.6707153c-0.2540894,2.1099243-0.472229,4.8774414-0.472229,5.6975708v4.1146851   C18.4170532,13.3634644,18.7836914,13.2480469,19,13.1679077V9.5c0-0.8751831,0.3745728-4.248291,0.748291-6.1055298   C19.3533936,3.505188,18.87323,3.5949707,18.3444824,3.6707153z" opacity="0.1"/><path d="M5,14.241394v2.2229614c0,0.1855469,0.0932617,0.3505859,0.2436523,0.4306641   c0.2095947,0.111084,0.5084839,0.2385254,0.8840942,0.3660278v-2.7333984C5.6518555,14.4314575,5.2785645,14.3322144,5,14.241394z" fill="#FFFFFF" opacity="0.2"/><path d="M17.8722534,17.2610474c0.3756104-0.1275024,0.6744995-0.2549438,0.8840942-0.3660278   C18.9067383,16.8149414,19,16.6499023,19,16.4643555V14.220459c-0.2797241,0.0875854-0.6553345,0.185791-1.1277466,0.2822876   V17.2610474z" opacity="0.1"/><path d="M12,2c3.5073242,0,6.0976562,0.2456055,7.3344727,0.5C18.0976562,2.7543945,15.5073242,3,12,3   S5.9023438,2.7543945,4.6655273,2.5C5.9023438,2.2456055,8.4926758,2,12,2z" fill="#69B342"/><path d="M12.8344727,2.5c2.0591431,0,3.7905884,0.0857544,5.1292725,0.2070923   C18.5181885,2.6420288,18.9855957,2.5717773,19.3344727,2.5C18.0976562,2.2456055,15.5073242,2,12,2   S5.9023438,2.2456055,4.6655273,2.5c0.5106812,0.1050415,1.2637329,0.2075195,2.2052002,0.2929077   C8.2819214,2.6273804,10.3164062,2.5,12.8344727,2.5z" fill="#FFFFFF" opacity="0.2"/><path d="M12,22c-6.2958984,0-11-2.6396484-11-5c0-2.0198364,0.8639526-3.0478516,3-3.5494385v3.0137939   c0,0.5561523,0.296875,1.0595703,0.7749023,1.3134766c0.5734253,0.3045044,1.623291,0.7098999,3.3725586,0.9680786   C8.4439697,19.4797363,9.1610107,20,10,20h4c0.8389893,0,1.5560303-0.5202637,1.8525391-1.2540894   c1.7492676-0.2581787,2.7991333-0.6635742,3.3725586-0.9680786C19.703125,17.5239258,20,17.0205078,20,16.4643555v-3.0137939   C22.1360474,13.9521484,23,14.9801636,23,17C23,19.3603516,18.2958984,22,12,22z" fill="#69B342"/><path d="M21.8345337,14.2276001C21.946228,14.6126709,22,15.050293,22,15.5494385c0,2.3603516-4.7041016,5-11,5   c-4.4849854,0-8.1514282-1.3410645-9.895752-2.9649048C1.7930298,19.7754517,6.2202148,22,12,22c6.2958984,0,11-2.6396484,11-5   C23,15.7115479,22.6435547,14.8296509,21.8345337,14.2276001z" opacity="0.1"/><path d="M13.5,15h-3c-0.2763672,0-0.5,0.2236328-0.5,0.5v2c0,0.2763672,0.2236328,0.5,0.5,0.5h3   c0.2763672,0,0.5-0.2236328,0.5-0.5v-2C14,15.2236328,13.7763672,15,13.5,15z" fill="#303C42"/><rect fill="#C38355" height="1" width="2" x="11" y="16"/><rect height="1" opacity="0.1" width="2" x="11" y="16"/><linearGradient gradientUnits="userSpaceOnUse" id="SVGID_1_" x1="1.1051474" x2="24.2017803" y1="6.4609342" y2="17.2310715"><stop offset="0" style="stop-color:#FFFFFF;stop-opacity:0.2"/><stop offset="1" style="stop-color:#FFFFFF;stop-opacity:0"/></linearGradient><path d="M20,12.4308472V9.5c0-1.4526367,0.6894531-6.2387695,0.9003906-6.7001953l-0.0126953-0.0095215   C20.9536743,2.6993408,21,2.6043701,21,2.5C21,1.2602539,16.105957,1,12,1S3,1.2602539,3,2.5   c0,0.0899658,0.0327759,0.1732788,0.0820923,0.2531738L3.0737305,2.7587891C3.3105469,3.2612305,4,8.0473633,4,9.5v2.9308472   C1.2509155,13.0188599,0,14.4351807,0,17c0,3.2524414,5.4951172,6,12,6s12-2.7475586,12-6   C24,14.4351807,22.7490845,13.0188599,20,12.4308472z" fill="url(#SVGID_1_)"/></g><g/><g/><g/><g/><g/><g/><g/><g/><g/><g/><g/><g/><g/><g/><g/></svg>