<?xml version="1.0" ?><svg enable-background="new 0 0 24 24" id="Layer_1" version="1.1" viewBox="0 0 24 24" xml:space="preserve" xmlns="http://www.w3.org/2000/svg" xmlns:xlink="http://www.w3.org/1999/xlink"><g><path d="M20,12.4308472V9.5c0-1.4526367,0.6894531-6.2387695,0.9003906-6.7001953   c0.0054932-0.0073242-0.0033569-0.0141602-0.0031128-0.0213013C20.9577637,2.69104,21,2.5997925,21,2.5   C21,1.2602539,16.105957,1,12,1S3,1.2602539,3,2.5c0,0.081665,0.0238647,0.1585083,0.0646973,0.2318726   c0.0022583,0.008728,0.0010376,0.0162354,0.0090332,0.0269165C3.3105469,3.2612305,4,8.0473633,4,9.5v2.9308472   C1.2509155,13.0188599,0,14.4351807,0,17c0,3.2524414,5.4951172,6,12,6s12-2.7475586,12-6   C24,14.4351807,22.7490845,13.0188599,20,12.4308472z M8,15v2.7114258   c-1.4290161-0.2357178-2.2839966-0.565979-2.7563477-0.8164063C5.0932617,16.8149414,5,16.6499023,5,16.4643555v-2.223938   c0.5749512,0.1865845,1.5232544,0.4119873,3.019165,0.5700073C8.0130615,14.8737793,8,14.9350586,8,15z M15,18   c0,0.5512695-0.4487305,1-1,1h-4c-0.5512695,0-1-0.4487305-1-1v-3c0-0.5512695,0.4487305-1,1-1h4c0.5512695,0,1,0.4487305,1,1V18z    M19,16.4643555c0,0.1855469-0.0932617,0.3505859-0.2436523,0.4306641C18.2785034,17.1483765,17.4122925,17.4838257,16,17.71698V15   c0-0.069519-0.0135498-0.1353149-0.0205078-0.2030029C17.4537354,14.6338501,18.4170532,14.4030151,19,14.220459V16.4643555z" fill="#303C42"/><path d="M13.5,15h-3c-0.2763672,0-0.5,0.2236328-0.5,0.5v2c0,0.2763672,0.2236328,0.5,0.5,0.5h3   c0.2763672,0,0.5-0.2236328,0.5-0.5v-2C14,15.2236328,13.7763672,15,13.5,15z" fill="#303C42"/></g><g/><g/><g/><g/><g/><g/><g/><g/><g/><g/><g/><g/><g/><g/><g/></svg>