<?xml version="1.0" ?><svg enable-background="new 0 0 24 24" id="Layer_1" version="1.1" viewBox="0 0 24 24" xml:space="preserve" xmlns="http://www.w3.org/2000/svg" xmlns:xlink="http://www.w3.org/1999/xlink"><path d="M21.8699341,15.5764771C21.9526978,15.0563965,22,14.5276489,22,14.0001221  c0-4.0748291-2.4532471-7.5820923-5.9572144-9.1385498c-1.3567505-3.1307373-3.6651001-4.7110596-3.7654419-4.7774658  c-0.1679688-0.1123047-0.3867188-0.1123047-0.5546875,0c-0.1362305,0.0909424-2.4417725,1.6750488-3.779541,4.7869263  C4.3302002,6.4780273,2,10.0346069,2,14.0001221c0,0.5303345,0.0539551,1.0548096,0.1365356,1.5739136  C0.0371704,18.7572021,0,20.4297485,0,20.5001221c0,0.2382813,0.1679688,0.4433594,0.4023438,0.4902344  c1.1191406,0.2241211,2.6699219,0.453125,4.3251953,0.453125c0.1936646,0,0.3898315-0.0065918,0.5858765-0.0132446  C7.1522217,23.0861206,9.5216675,24.0001221,12,24.0001221c2.5352783,0,4.880249-0.9442139,6.6779175-2.5661621  c0.1923218,0.0064697,0.3847656,0.0129395,0.5750122,0.0129395c1.6796875,0,3.2578125-0.2387695,4.3447266-0.456543  C23.8320313,20.9434814,24,20.7384033,24,20.5001221C24,20.4223022,23.9700317,18.7622681,21.8699341,15.5764771z   M2.9147339,18.1547852c0.0939941,0.2056274,0.2035522,0.4039307,0.3115845,0.6031494  c-0.2301636,0.0205688-0.4597778,0.0474854-0.6901855,0.0571289C2.5361328,18.8150635,2.7077026,18.5177002,2.9147339,18.1547852z   M10,9.5001221c0-0.7615967,0.1369019-1.5435791,0.3339233-2.2911377C10.8776855,7.0762939,11.435791,7.0001221,12,7.0001221  c0.5553589,0,1.0929565,0.0706177,1.6112061,0.1912231C13.8646851,7.9631958,14,8.7385254,14,9.5001221  c0,0.2456055-0.0360107,0.4755249-0.06073,0.7105713C12.8129883,10.003418,12.0372314,10.0001221,12,10.0001221  c-0.0753784,0-0.8445435,0.0089722-1.9373169,0.2079468C10.0385132,9.9715576,10,9.7351685,10,9.5001221z M11.998291,14.7406006  c-0.2820435-0.3474731-0.6889038-0.9073486-1.0631714-1.6283569c0.6379395-0.1071777,1.053894-0.1121216,1.0639038-0.1121216  c0.005249,0,0.4196777,0.0038452,1.0526123,0.1080322C12.6768188,13.8268433,12.2783203,14.3946533,11.998291,14.7406006z   M17.6199341,18.171814c-1.3995361-0.2921143-2.4678345-0.7451782-3.2530518-1.2115479  c0.7414551-0.8450317,1.3245239-1.7677612,1.7493286-2.7771606c0.378479,0.2141113,0.7428589,0.4447021,1.0712795,0.7076416  c0.4550266,0.3638306,0.9675999,0.7910767,1.4786472,1.2328491C18.4265747,16.8773804,18.0690308,17.5636597,17.6199341,18.171814z   M16.9855957,9.0776978c0.8300171,0.8406372,1.4483643,1.8922119,1.7674561,3.0814209  c-0.5646362-0.3943481-1.1838989-0.7390137-1.8547363-1.0344849C16.9587402,10.5999146,17,10.0632935,17,9.5001221  C17,9.3587646,16.9904785,9.2185669,16.9855957,9.0776978z M6.4007568,18.1779785  c-0.4402466-0.5886841-0.789978-1.2252197-1.0229492-1.9049072c0.4471436-0.505127,0.9241943-0.9747314,1.4346824-1.3823242  c0.350657-0.2805786,0.7128396-0.5150757,1.0753274-0.7185669c0.4623413,1.1005249,1.0609741,2.0176392,1.7322388,2.7828369  C8.8787231,17.3566895,7.7294312,17.8134155,6.4007568,18.1779785z M11.6537476,4.0142822  C11.77948,3.807373,11.8991699,3.625,12,3.5001221c0.0476685,0.059021,0.1894531,0.2706299,0.3525391,0.5178223  C12.2345581,4.0137939,12.1190186,4.0001221,12,4.0001221C11.8834839,4.0001221,11.7694092,4.0103149,11.6537476,4.0142822z   M5.2660522,12.1328735c0.317688-1.1387939,0.9195557-2.1832275,1.7520142-3.0328369C7.0136719,9.2346191,7,9.3624268,7,9.5001221  c0,0.552002,0.0373535,1.0888062,0.0970459,1.6104736C6.4855957,11.380249,5.8666992,11.7155762,5.2660522,12.1328735z   M11.9994507,19.0723267c0.4242554,0.3059692,0.8400269,0.5883179,1.2232056,0.843811  c0.3675537,0.244873,0.7716064,0.456604,1.199646,0.6439209C13.6624146,20.8381958,12.8494873,21.0001221,12,21.0001221  c-0.8303833,0-1.6494141-0.1575317-2.421936-0.4420166c0.4165039-0.1813965,0.8205566-0.3894043,1.1992798-0.6419678  C11.161499,19.65979,11.5767822,19.3769531,11.9994507,19.0723267z M20.6410522,18.9879761  c0.1187744-0.2062988,0.2506104-0.4019165,0.3560181-0.6187134c0.0031738-0.0064697,0.0009766-0.013855,0.0038452-0.0204468  c0.2214355,0.2506104,0.40448,0.4786377,0.4990845,0.6513062C21.4853516,18.9995728,21.0305176,18.9933472,20.6410522,18.9879761z" fill="#303C42"/><g/><g/><g/><g/><g/><g/><g/><g/><g/><g/><g/><g/><g/><g/><g/></svg>