<?xml version="1.0" ?><svg enable-background="new 0 0 24 24" id="Layer_1" version="1.1" viewBox="0 0 24 24" xml:space="preserve" xmlns="http://www.w3.org/2000/svg" xmlns:xlink="http://www.w3.org/1999/xlink"><path d="M23,9c0-0.1875,0.1621094-0.559082,0.3188477-0.918457C23.6220703,7.3852539,24,6.519043,24,5.5  C24,3.8144531,22.7480469,2,20,2c-2.1444092,0-4.0921021,1.3504028-5.418335,2.8101196  C14.3422852,4.3092041,13.8599243,4,13.2275391,4c-0.402832,0-0.8740234,0.1845703-1.2270508,0.4165039  C11.6474609,4.1845703,11.1762695,4,10.7724609,4c-0.578125,0-1.0341187,0.2559204-1.2912598,0.6821899  C8.2139893,3.265625,6.2050781,2,4,2C1.2519531,2,0,3.8144531,0,5.5c0,1.019043,0.3779297,1.8852539,0.6811523,2.581543  C0.8378906,8.440918,1,8.8125,1,9S0.8378906,9.559082,0.6811523,9.918457C0.3779297,10.6147461,0,11.480957,0,12.5  C0,14.1855469,1.2519531,16,4,16c0.5737305,0,1.128418-0.1097412,1.6647949-0.2758179C5.2982788,17.5029907,5,19.3114624,5,20.5  c0,0.2021484,0.121582,0.3847656,0.3085938,0.4619141c0.1870117,0.0776367,0.4018555,0.034668,0.5449219-0.1083984  c0.8779297-0.8779297,1.9243164-1.456543,2.4667969-1.722168l1.7636719,2.6459961C10.1782227,21.9189453,10.3359375,22,10.5,22  c0.046875,0,0.0942383-0.0063477,0.140625-0.0200195C10.8505859,21.918457,10.9960938,21.7275391,11,21.5087891  c0.0403442-2.315918,0.3471069-6.0408936,0.9996948-7.6219482C12.6523438,15.4675293,12.9596558,19.1928711,13,21.5087891  c0.0039063,0.21875,0.1494141,0.409668,0.359375,0.4711914C13.4057617,21.9936523,13.453125,22,13.5,22  c0.1640625,0,0.3217773-0.0810547,0.4160156-0.2226563l1.7636719-2.6459961  c0.5419922,0.265625,1.5888672,0.8442383,2.4667969,1.722168c0.144043,0.1435547,0.3583984,0.1865234,0.5449219,0.1083984  C18.878418,20.8847656,19,20.7021484,19,20.5c0-1.1729736-0.2902832-2.9499512-0.6502075-4.7061157  C18.8842163,15.9241943,19.4349365,16,20,16c2.7480469,0,4-1.8144531,4-3.5c0-1.019043-0.3779297-1.8852539-0.6811523-2.581543  C23.1621094,9.559082,23,9.1875,23,9z M11.2885742,9c-1.1147461,1.0688477-2.1679688,1.75-2.7172852,1.75  C8,10.75,8,10.3564453,8,10.2270508c0-0.253418,0.2270508-0.7084961,0.3901367-0.8500977  C8.4995117,9.2822266,8.5624933,9.1445313,8.5624933,9c0-0.1450195-0.0624933-0.2827148-0.1718683-0.3779297  C8.2270508,8.4799805,8,8.0253906,8,7.7724609C8,7.6430664,8,7.25,8.5712891,7.25C9.1206055,7.25,10.1738281,7.9311523,11.2885742,9  z M15.4287109,7.25C16,7.25,16,7.6430664,16,7.7724609c0,0.2539063-0.2270508,0.7089844-0.3901367,0.8505859  C15.5004883,8.7177734,15.4374933,8.8554688,15.4374933,9c0,0.1450195,0.0625067,0.2827148,0.1718817,0.3779297  C15.7729492,9.5200195,16,9.9741211,16,10.2270508C16,10.3564453,16,10.75,15.4287109,10.75  c-0.5493164,0-1.6025391-0.6811523-2.7172852-1.75C13.8261719,7.9311523,14.8793945,7.25,15.4287109,7.25z M13.75,12.4287109  C13.75,13,13.3569336,13,13.2275391,13c-0.2539063,0-0.7089844-0.2270508-0.8505859-0.3901367  C12.2822266,12.5004883,12.1445313,12.4375,12,12.4375h-0.0004883c-0.1445313,0-0.2822266,0.0625-0.3774414,0.171875  C11.4799805,12.7729492,11.0253906,13,10.7724609,13C10.6430664,13,10.25,13,10.25,12.4287109  c0-0.5493164,0.6811523-1.6025391,1.75-2.7172852C13.0688477,10.8261719,13.75,11.8793945,13.75,12.4287109z M10.7724609,5  c0.2539063,0,0.7089844,0.2270508,0.8505859,0.3901367C11.7177734,5.4995117,11.8554688,5.5625,12,5.5625h0.0004883  c0.1445313,0,0.2822266-0.0625,0.3774414-0.171875C12.5200195,5.2270508,12.9746094,5,13.2275391,5  C13.3569336,5,13.75,5,13.75,5.5712891c0,0.5493164-0.6811523,1.6025391-1.75,2.7172852  c-1.0688477-1.1147461-1.75-2.1679688-1.75-2.7172852C10.25,5,10.6430664,5,10.7724609,5z M2.0268555,5.6621094  C1.9374939,5.4008789,2.0766602,5.1166992,2.3378906,5.0268555c0.2602539-0.0869141,0.5454102,0.0493164,0.6352539,0.3110352  c0.2149048,0.5041504,3.1470337,0.805481,6.3359985,0.6799927C9.343689,6.1600952,9.3912354,6.3051758,9.4521484,6.4521484  c-1.03302-0.4280396-1.9246826-0.1079712-2.2816772,0.5996094C4.8956299,7.0176392,2.3936768,6.7302246,2.0268555,5.6621094z   M21.6621094,12.9731445C21.6083984,12.9912109,21.5537109,13,21.5,13c-0.2075195,0-0.4018555-0.1303711-0.4731445-0.3378906  c-0.1495972-0.3500977-1.6108398-0.6075439-3.5560303-0.694519c-0.0983276-0.3918457-0.1878052-0.7390137-0.2624512-1.0245972  c2.1674805,0.0679932,4.4187012,0.3874512,4.7647705,1.3948975C22.0624943,12.5991211,21.9233398,12.8833008,21.6621094,12.9731445z  " fill="#303C42"/><g/><g/><g/><g/><g/><g/><g/><g/><g/><g/><g/><g/><g/><g/><g/></svg>