<?xml version="1.0" ?><svg enable-background="new 0 0 24 24" id="Layer_1" version="1.1" viewBox="0 0 24 24" xml:space="preserve" xmlns="http://www.w3.org/2000/svg" xmlns:xlink="http://www.w3.org/1999/xlink"><g><path d="M23.5,3c-6.5058594,0-9.9456787,4.5471802-10.887207,6.0149536   c-0.0630493-0.0144653-0.1289673-0.0180664-0.1948242-0.0081177c-0.1347656,0.0224609-0.2539062,0.0986328-0.3310547,0.2114258   c-0.4199219,0.6162109-0.8271484,1.3520508-1.2578125,2.1308594C10.5595703,11.8354492,10.2861328,12.3300781,10,12.8129883V12   c0-1.1030273-0.8974609-2-2-2H2c-1.1025391,0-2,0.8969727-2,2v3.9511719C0,18.7314453,2.2216797,20.9960938,4.9511719,21   c0.0078125,0,0.015625,0,0.0224609,0c3.8339844,0,4.9912109-1.4931641,5.921875-2.6938477   c1.2900391-1.6650391,2.2050781-3.4746094,3.0908203-5.2246094c0.3164062-0.6259766,0.6289062-1.2441406,0.953125-1.8442383   c0.1036377-0.190979,0.0638428-0.4185791-0.0795898-0.572937C15.7090454,9.3147583,19.0505371,4.5,23.5,4.5   C23.7763672,4.5,24,4.2763672,24,4V3.5C24,3.2236328,23.7763672,3,23.5,3z" fill="#303C42"/><path d="M13.09375,12.6298828c-0.8642578,1.7080078-1.7578125,3.4741211-2.9892578,5.0639648   C9.2666016,18.7749023,8.3183594,20,4.9736328,20c-0.0068359,0-0.0136719,0-0.0205078,0   C2.7734375,19.9970703,1,18.1806641,1,15.9511719V12c0-0.5512695,0.4482422-1,1-1h6c0.5517578,0,1,0.4487305,1,1v2.5   c0,0.2167969,0.1396484,0.4086914,0.3457031,0.4755859c0.2050781,0.0678711,0.4316406-0.0058594,0.5585938-0.1816406   c0.6748047-0.9287109,1.2470703-1.9614258,1.7998047-2.9604492c0.3183594-0.5756836,0.6230469-1.1274414,0.9238281-1.6123047   l1.2294922,0.9208984C13.5996094,11.6298828,13.3476562,12.1274414,13.09375,12.6298828z" fill="#D97924"/><path d="M13.2363281,11.1298828c-0.8642578,1.7080078-1.7578125,3.4741211-2.9892578,5.0639648   C9.4091797,17.2749023,8.4609375,18.5,5.1162109,18.5c-0.0068359,0-0.0136719,0-0.0205078,0   c-2.1796875-0.0029297-3.953125-1.8193359-3.953125-4.0488281v-2.9346924C1.0599365,11.6619873,1,11.821106,1,12v3.9511719   C1,18.1806641,2.7734375,19.9970703,4.953125,20c0.0068359,0,0.0136719,0,0.0205078,0   c3.3447266,0,4.2929688-1.2250977,5.1308594-2.3061523c1.2314453-1.5898438,2.125-3.355957,2.9892578-5.0639648   c0.2539062-0.5024414,0.5058594-1,0.7636719-1.487793l-0.453125-0.3394165   C13.3485718,10.9126587,13.2921753,11.0194092,13.2363281,11.1298828z" opacity="0.1"/><path d="M14.0630493,10.0472412l-0.6268921-0.4700317c0.5911255-0.9292603,2.4174805-3.4266357,5.6712646-4.7417603   C16.5268555,6.4216309,14.7354736,8.9818115,14.0630493,10.0472412z" fill="#AB6116"/><path d="M7.5,5h-5C1.6728516,5,1,5.6728516,1,6.5S1.6728516,8,2.5,8H4c0.2753906,0,0.5,0.2241211,0.5,0.5   C4.5,8.7763672,4.7236328,9,5,9s0.5-0.2236328,0.5-0.5C5.5,7.6728516,4.8271484,7,4,7H2.5C2.2246094,7,2,6.7758789,2,6.5   S2.2246094,6,2.5,6h5C8.3271484,6,9,5.3271484,9,4.5S8.3271484,3,7.5,3h-6C1.2236328,3,1,3.2236328,1,3.5S1.2236328,4,1.5,4h6   C7.7753906,4,8,4.2241211,8,4.5S7.7753906,5,7.5,5z" fill="#989DA0"/><linearGradient gradientUnits="userSpaceOnUse" id="SVGID_1_" x1="-0.0220107" x2="19.146822" y1="5.5804033" y2="14.5189772"><stop offset="0" style="stop-color:#FFFFFF;stop-opacity:0.2"/><stop offset="1" style="stop-color:#FFFFFF;stop-opacity:0"/></linearGradient><path d="M23.5,3c-6.5058594,0-9.9456787,4.5471802-10.887207,6.0149536   c-0.0630493-0.0144653-0.1289673-0.0180664-0.1948242-0.0081177c-0.1347656,0.0224609-0.2539062,0.0986328-0.3310547,0.2114258   c-0.4199219,0.6162109-0.8271484,1.3520508-1.2578125,2.1308594C10.5595703,11.8354492,10.2861328,12.3300781,10,12.8129883V12   c0-1.1030273-0.8974609-2-2-2H2c-1.1025391,0-2,0.8969727-2,2v3.9511719C0,18.7314453,2.2216797,20.9960938,4.9511719,21h0.0224609   c3.8339844,0,4.9912109-1.4931641,5.921875-2.6938477c1.2900391-1.6650391,2.2050781-3.4746094,3.0908203-5.2246094   c0.3164062-0.6259766,0.6289062-1.2441406,0.953125-1.8442383c0.1036377-0.190979,0.0638428-0.4185791-0.0795898-0.572937   C15.7090454,9.3147583,19.0505371,4.5,23.5,4.5C23.7763672,4.5,24,4.2763672,24,4V3.5C24,3.2236328,23.7763672,3,23.5,3z M7.5,5h-5   C1.6728516,5,1,5.6728516,1,6.5S1.6728516,8,2.5,8H4c0.2753906,0,0.5,0.2241211,0.5,0.5C4.5,8.7763672,4.7236328,9,5,9   s0.5-0.2236328,0.5-0.5C5.5,7.6728516,4.8271484,7,4,7H2.5C2.2246094,7,2,6.7758789,2,6.5S2.2246094,6,2.5,6h5   C8.3271484,6,9,5.3271484,9,4.5S8.3271484,3,7.5,3h-6C1.2236328,3,1,3.2236328,1,3.5S1.2236328,4,1.5,4h6   C7.7753906,4,8,4.2241211,8,4.5S7.7753906,5,7.5,5z" fill="url(#SVGID_1_)"/></g><g/><g/><g/><g/><g/><g/><g/><g/><g/><g/><g/><g/><g/><g/><g/></svg>