<?xml version="1.0" ?><svg enable-background="new 0 0 24 24" id="Layer_1" version="1.1" viewBox="0 0 24 24" xml:space="preserve" xmlns="http://www.w3.org/2000/svg" xmlns:xlink="http://www.w3.org/1999/xlink"><path d="M23.6186523,7.2329102C23.2563477,4.9667969,22.7719727,4,22.0004883,4h-0.0009766  c-1.5444946,0.0020752-5.8435669,2.5829468-7.4780273,3.6877441C14.2648926,7.2583008,13.8078613,7,13.2270508,7  c-0.402832,0-0.8735352,0.1845703-1.2265625,0.4165039C11.6479492,7.1845703,11.1762695,7,10.7729492,7  c-0.5806274,0-1.0375977,0.2581177-1.2942505,0.6873779C7.8220825,6.5703735,3.461731,4.0012207,2.0004883,4H1.9995117  C1.2280273,4,0.7436523,4.9672852,0.3813477,7.2329102C0.1000977,8.9921875,0,10.9003906,0,12  c0,0.0800781,0.0229492,7.9980469,1.9995117,8h0.0009766c1.4607544,0,5.8199463-2.5678711,7.4789429-3.6859741  C9.7362061,16.7424927,10.1929321,17,10.7729492,17c0.402832,0,0.8735352-0.1845703,1.2265625-0.4165039  C12.3520508,16.8154297,12.8237305,17,13.2270508,17c0.5812378,0,1.0383911-0.258728,1.2949219-0.6887817  C16.1550293,17.4161377,20.4570923,20.0004272,21.9990234,20C21.9995117,20,22,20,22,20c1.9770508-0.0019531,2-7.9199219,2-8  C24,10.9003906,23.8999023,8.9921875,23.6186523,7.2329102z M12.706543,12c0.8520508-0.815918,2.0771484-1.75,2.722168-1.75  C16,10.25,16,10.6435547,16,10.7729492c0,0.253418-0.2270508,0.7084961-0.3901367,0.8500977  c-0.109375,0.0947266-0.172368,0.2324219-0.172368,0.3769531c0,0.1450195,0.0625048,0.2827148,0.1718798,0.3779297  C15.7729492,12.5200195,16,12.9741211,16,13.2270508C16,13.3564453,16,13.75,15.4287109,13.75  C14.7539063,13.75,13.5253906,12.784668,12.706543,12z M8,13.2270508c0-0.253418,0.2270508-0.7084961,0.3901367-0.8500977  C8.4995117,12.2822266,8.5624952,12.1445313,8.5624952,12c0-0.1450195-0.0624952-0.2827148-0.1718702-0.3779297  C8.2270508,11.4799805,8,11.0258789,8,10.7729492C8,10.6435547,8,10.25,8.5712891,10.25  c0.6748047,0,1.9033203,0.965332,2.722168,1.75c-0.8520508,0.815918-2.0771484,1.75-2.722168,1.75  C8,13.75,8,13.3564453,8,13.2270508z M10.7729492,8c0.253418,0,0.7084961,0.2270508,0.8500977,0.3901367  C11.7177734,8.4995117,11.8554688,8.5625,12,8.5625h0.0004883c0.1445313,0,0.2822266-0.0625,0.3774414-0.171875  C12.5200195,8.2270508,12.9741211,8,13.2270508,8C13.3564453,8,13.75,8,13.75,8.5712891  c0,0.6748047-0.965332,1.9033203-1.75,2.722168c-0.8158569-0.8519897-1.7498779-2.0770874-1.75-2.7220459V8.571167  C10.2501221,8.000061,10.6435547,8,10.7729492,8z M13.2270508,16c-0.253418,0-0.7084961-0.2270508-0.8500977-0.3901367  C12.2822266,15.5004883,12.1445313,15.4375,12,15.4375h-0.0004883c-0.1445313,0-0.2822266,0.0625-0.3774414,0.171875  C11.4799805,15.7729492,11.0258789,16,10.7729492,16C10.6435547,16,10.25,16,10.25,15.4287109  c0-0.6748047,0.965332-1.9033203,1.75-2.722168c0.8158569,0.8519897,1.7498779,2.0770874,1.75,2.7220459v0.0002441  C13.7498779,15.999939,13.3564453,16,13.2270508,16z" fill="#303C42"/><g/><g/><g/><g/><g/><g/><g/><g/><g/><g/><g/><g/><g/><g/><g/></svg>