<?xml version="1.0" ?><svg viewBox="0 0 512 512" xmlns="http://www.w3.org/2000/svg"><title/><g data-name="1" id="_1"><path d="M381.43,450H152.56a50.17,50.17,0,0,1-50.11-50.11V98.11A50.17,50.17,0,0,1,152.56,48h150.1a15,15,0,0,1,10.61,4.39L427.15,166.27a15,15,0,0,1,4.39,10.61v223A50.17,50.17,0,0,1,381.43,450ZM152.56,78a20.13,20.13,0,0,0-20.11,20.11V399.89A20.13,20.13,0,0,0,152.56,420H381.43a20.13,20.13,0,0,0,20.11-20.11V183.09L296.45,78Z"/><path d="M416.54,191.88H337.77a50.17,50.17,0,0,1-50.11-50.11V63a15,15,0,0,1,30,0v78.77a20.13,20.13,0,0,0,20.11,20.11h78.77a15,15,0,1,1,0,30Z"/><path d="M189.23,279.14c-7.54,0-11.91,4.24-11.91,13.24v35.08c0,9,4.37,13.24,12,13.24,10.59,0,11.25-8.08,11.65-13.24.4-4.9,4.9-6.22,10.19-6.22,7.15,0,10.46,1.85,10.46,9.79,0,17.61-14.29,27.67-33.22,27.67-17.34,0-31.77-8.47-31.77-31.24V292.38c0-22.77,14.43-31.24,31.77-31.24,18.93,0,33.22,9.53,33.22,26.34,0,7.95-3.31,9.8-10.32,9.8-5.56,0-10.06-1.46-10.33-6.22C200.88,287.62,200.48,279.14,189.23,279.14Z"/><path d="M264.55,261.14c18.27,0,32.56,8.47,32.56,31.24v34.29c0,22.76-14.29,31.23-32.56,31.23H241.12c-5.43,0-9-2.91-9-6.22V267.36c0-3.31,3.57-6.22,9-6.22Zm-11.78,18V339.9h11.78c7.41,0,11.91-4.23,11.91-13.23V292.38c0-9-4.5-13.24-11.91-13.24Z"/><path d="M310.21,267.36a6.16,6.16,0,0,1,6.36-6.22H344c18.13,0,32.56,6.75,32.56,28.33,0,14.82-6.75,23.3-16,26.87l16.15,29.25a4.41,4.41,0,0,1,.67,2.39c0,5.16-6.89,10.72-13,10.72a7,7,0,0,1-6.61-3.84L339.6,319.65h-8.74v31.9c0,4.24-5.16,6.35-10.32,6.35s-10.33-2.11-10.33-6.35Zm20.65,11.78v24.63H344c7.41,0,11.91-3,11.91-12.31s-4.5-12.32-11.91-12.32Z"/></g></svg>