<?xml version="1.0" ?><svg viewBox="0 0 512 512" xmlns="http://www.w3.org/2000/svg"><title/><g data-name="1" id="_1"><path d="M376.83,450H148a50.17,50.17,0,0,1-50.11-50.11V98.11A50.17,50.17,0,0,1,148,48h150.1a15,15,0,0,1,10.61,4.39L422.55,166.27a15,15,0,0,1,4.39,10.61v223A50.17,50.17,0,0,1,376.83,450ZM148,78a20.13,20.13,0,0,0-20.11,20.11V399.89A20.13,20.13,0,0,0,148,420H376.83a20.13,20.13,0,0,0,20.11-20.11V183.09L291.85,78Z"/><path d="M411.94,191.88H333.17a50.17,50.17,0,0,1-50.11-50.11V63a15,15,0,0,1,30,0v78.77a20.13,20.13,0,0,0,20.11,20.11h78.77a15,15,0,0,1,0,30Z"/><path d="M252.38,357.87a77,77,0,1,1,54.45-22.52A76.72,76.72,0,0,1,252.38,357.87Zm0-123.94a47,47,0,1,0,33.24,13.74A46.86,46.86,0,0,0,252.38,233.93Z"/><path d="M334.41,377.93a15,15,0,0,1-10.61-4.39l-38.18-38.19a15,15,0,0,1,21.21-21.21L345,352.33a15,15,0,0,1-10.6,25.6Z"/></g></svg>