<?xml version="1.0" ?><!DOCTYPE svg  PUBLIC '-//W3C//DTD SVG 1.1//EN'  'http://www.w3.org/Graphics/SVG/1.1/DTD/svg11.dtd'><svg enable-background="new 0 0 64 64" height="64px" id="Spotify" version="1.1" viewBox="0 0 64 64" width="64px" xml:space="preserve" xmlns="http://www.w3.org/2000/svg" xmlns:xlink="http://www.w3.org/1999/xlink"><linearGradient gradientTransform="matrix(1 0 0 -1 -1918 -2480)" gradientUnits="userSpaceOnUse" id="Circle_Shadow_1_" x1="1982.0313" x2="1950.0313" y1="-2543.999" y2="-2511.999"><stop offset="0.3163" style="stop-color:#FFFFFF;stop-opacity:0"/><stop offset="0.3508" style="stop-color:#E9E9E9;stop-opacity:0.0504"/><stop offset="0.4543" style="stop-color:#ACACAC;stop-opacity:0.2018"/><stop offset="0.5572" style="stop-color:#787878;stop-opacity:0.3523"/><stop offset="0.6569" style="stop-color:#4D4D4D;stop-opacity:0.4981"/><stop offset="0.7528" style="stop-color:#2B2B2B;stop-opacity:0.6385"/><stop offset="0.8441" style="stop-color:#131313;stop-opacity:0.7719"/><stop offset="0.9286" style="stop-color:#050505;stop-opacity:0.8956"/><stop offset="1" style="stop-color:#000000"/></linearGradient><polygon enable-background="new    " fill="url(#Circle_Shadow_1_)" id="Circle_Shadow" opacity="0.2" points="64.029,64   64.029,30.059 49,15.029 15.059,48.971 30.088,64 "/><circle cx="32" cy="32" fill="#7DB429" id="Circle" r="24"/><g id="WTF_shadow"><g><defs><circle cx="32.029" cy="32" id="SVGID_1_" r="24"/></defs><clipPath id="SVGID_2_"><use overflow="visible" xlink:href="#SVGID_1_"/></clipPath><linearGradient gradientTransform="matrix(1 0 0 -1 -274 -299)" gradientUnits="userSpaceOnUse" id="SVGID_3_" x1="348.6289" x2="295.401" y1="-373.6133" y2="-320.3854"><stop offset="0.5255" style="stop-color:#000000;stop-opacity:0"/><stop offset="0.801" style="stop-color:#000000"/></linearGradient><path clip-path="url(#SVGID_2_)" d="M74.58,53.343    c-0.035-0.036-0.071-0.071-0.105-0.106c-0.037-0.035-0.072-0.07-0.106-0.105c-0.037-0.037-0.073-0.072-0.11-0.109    c-0.033-0.035-0.068-0.068-0.104-0.104s-0.069-0.07-0.104-0.104c-0.036-0.037-0.071-0.071-0.106-0.106    c-0.034-0.036-0.07-0.071-0.105-0.106c-0.036-0.035-0.07-0.07-0.105-0.105c-0.037-0.036-0.071-0.071-0.107-0.107    c-0.034-0.033-0.068-0.068-0.104-0.103c-0.037-0.038-0.076-0.076-0.113-0.114c-0.034-0.033-0.068-0.066-0.104-0.102    s-0.066-0.068-0.102-0.104c-0.038-0.037-0.075-0.074-0.112-0.111c-0.034-0.033-0.067-0.067-0.102-0.102    c-0.036-0.037-0.072-0.072-0.108-0.109c-0.035-0.035-0.072-0.071-0.107-0.107c-0.037-0.036-0.072-0.071-0.108-0.107    c-0.034-0.033-0.067-0.068-0.103-0.103c-0.035-0.036-0.071-0.071-0.106-0.106c-0.036-0.035-0.071-0.07-0.106-0.105    c-0.035-0.036-0.07-0.071-0.105-0.106c-0.036-0.036-0.071-0.071-0.105-0.106c-0.035-0.035-0.072-0.07-0.106-0.105    c-0.036-0.037-0.073-0.072-0.11-0.109c-0.033-0.035-0.068-0.069-0.104-0.104c-0.035-0.035-0.069-0.068-0.104-0.104    c-0.034-0.037-0.071-0.071-0.106-0.106c-0.035-0.036-0.07-0.071-0.105-0.106s-0.07-0.07-0.105-0.105    c-0.037-0.037-0.073-0.073-0.11-0.109c-0.033-0.033-0.065-0.066-0.101-0.1c-0.037-0.038-0.074-0.076-0.112-0.113    c-0.034-0.035-0.069-0.068-0.104-0.104s-0.068-0.07-0.104-0.104s-0.07-0.069-0.106-0.104c-0.034-0.035-0.069-0.07-0.104-0.105    c-0.035-0.037-0.072-0.072-0.109-0.109c-0.033-0.035-0.068-0.068-0.104-0.104c-0.035-0.037-0.072-0.072-0.109-0.109    c-0.034-0.035-0.068-0.07-0.104-0.104c-0.035-0.036-0.07-0.071-0.106-0.106c-0.035-0.035-0.07-0.07-0.104-0.104    c-0.037-0.037-0.072-0.073-0.109-0.11c-0.034-0.033-0.067-0.066-0.102-0.101c-0.037-0.038-0.076-0.075-0.113-0.113    c-0.032-0.033-0.066-0.065-0.101-0.101c-0.036-0.037-0.073-0.074-0.112-0.111c-0.033-0.034-0.067-0.068-0.103-0.104    c-0.036-0.035-0.071-0.07-0.106-0.105c-0.035-0.036-0.07-0.071-0.105-0.105c-0.036-0.037-0.07-0.072-0.105-0.106    c-0.037-0.036-0.074-0.072-0.109-0.108c-0.033-0.033-0.067-0.068-0.102-0.102c-0.037-0.038-0.074-0.075-0.113-0.112    c-0.033-0.034-0.068-0.069-0.104-0.104c-0.035-0.034-0.07-0.069-0.105-0.104c-0.034-0.034-0.069-0.069-0.104-0.104    c-0.034-0.037-0.071-0.071-0.106-0.106c-0.035-0.036-0.07-0.071-0.105-0.106c-0.037-0.037-0.074-0.072-0.111-0.109    c-0.033-0.034-0.067-0.068-0.103-0.104s-0.069-0.068-0.104-0.104c-0.035-0.036-0.072-0.072-0.107-0.107    c-0.034-0.035-0.068-0.07-0.104-0.104c-0.037-0.037-0.072-0.073-0.108-0.108c-0.037-0.037-0.074-0.074-0.112-0.111    c-0.033-0.035-0.066-0.067-0.102-0.103c-0.036-0.036-0.072-0.071-0.108-0.106c-0.034-0.035-0.067-0.068-0.103-0.104    c-0.037-0.037-0.073-0.074-0.11-0.111c-0.034-0.033-0.067-0.066-0.103-0.101c-0.035-0.037-0.071-0.073-0.107-0.108    c-0.035-0.037-0.071-0.072-0.105-0.106c-0.037-0.036-0.072-0.071-0.106-0.106c-0.037-0.037-0.073-0.072-0.11-0.109    c-0.033-0.033-0.066-0.067-0.104-0.103c-0.035-0.036-0.071-0.073-0.108-0.108c-0.034-0.035-0.069-0.069-0.104-0.104    c-0.035-0.036-0.07-0.071-0.105-0.106c-0.036-0.035-0.07-0.07-0.105-0.105c-0.035-0.036-0.071-0.071-0.106-0.105    c-0.036-0.037-0.073-0.074-0.11-0.109c-0.033-0.034-0.066-0.068-0.102-0.102c-0.036-0.037-0.072-0.074-0.109-0.109    c-0.035-0.035-0.07-0.071-0.105-0.106c-0.034-0.034-0.067-0.067-0.103-0.102c-0.036-0.038-0.073-0.075-0.112-0.112    c-0.032-0.033-0.065-0.066-0.101-0.102c-0.038-0.037-0.075-0.075-0.114-0.113c-0.033-0.034-0.066-0.066-0.101-0.102    c-0.037-0.035-0.073-0.072-0.11-0.108c-0.031-0.033-0.063-0.065-0.098-0.099c-0.038-0.039-0.076-0.076-0.115-0.115    c-0.033-0.033-0.066-0.066-0.101-0.1c-0.038-0.039-0.076-0.076-0.114-0.115c-0.033-0.032-0.064-0.065-0.1-0.099    c-0.037-0.038-0.075-0.075-0.113-0.112c-0.032-0.033-0.064-0.066-0.1-0.1c-0.035-0.037-0.071-0.072-0.107-0.109    c-0.035-0.035-0.07-0.07-0.105-0.105c-0.037-0.036-0.072-0.071-0.106-0.105c-0.035-0.037-0.071-0.072-0.106-0.106    c-0.035-0.036-0.07-0.071-0.106-0.106c-0.035-0.035-0.07-0.07-0.104-0.105c-0.037-0.036-0.074-0.072-0.109-0.108    c-0.034-0.034-0.068-0.069-0.104-0.104s-0.071-0.072-0.108-0.108c-0.035-0.034-0.069-0.069-0.104-0.104    c-0.036-0.035-0.071-0.071-0.108-0.107c-0.033-0.034-0.068-0.068-0.104-0.104c-0.036-0.037-0.072-0.072-0.109-0.108    c-0.035-0.036-0.072-0.072-0.107-0.108c-0.032-0.031-0.064-0.064-0.098-0.098c-0.039-0.039-0.078-0.078-0.117-0.117    c-0.031-0.031-0.063-0.063-0.096-0.096c-0.039-0.039-0.078-0.078-0.117-0.116c-0.031-0.032-0.063-0.063-0.097-0.097    c-0.039-0.039-0.077-0.079-0.118-0.118c-0.033-0.033-0.066-0.065-0.101-0.101c-0.036-0.035-0.071-0.071-0.106-0.106    c-0.035-0.034-0.068-0.067-0.103-0.103c-0.036-0.035-0.071-0.071-0.106-0.107c-0.037-0.035-0.072-0.071-0.107-0.105    c-0.036-0.037-0.072-0.074-0.109-0.109c-0.033-0.034-0.066-0.068-0.102-0.102c-0.038-0.039-0.075-0.076-0.114-0.115    c-0.033-0.032-0.065-0.065-0.101-0.101c-0.035-0.036-0.071-0.071-0.107-0.106c-0.035-0.035-0.07-0.07-0.105-0.105    c-0.035-0.036-0.07-0.07-0.105-0.105c-0.035-0.037-0.071-0.071-0.105-0.106c-0.037-0.036-0.072-0.071-0.106-0.106    c-0.035-0.035-0.071-0.07-0.106-0.105c-0.037-0.037-0.074-0.074-0.111-0.111c-0.033-0.033-0.067-0.066-0.102-0.101    c-0.035-0.036-0.07-0.071-0.105-0.106s-0.071-0.07-0.106-0.105c-0.036-0.036-0.071-0.071-0.106-0.106    c-0.035-0.036-0.071-0.071-0.107-0.108c-0.034-0.032-0.066-0.066-0.102-0.101c-0.037-0.038-0.076-0.075-0.114-0.114    c-0.034-0.035-0.069-0.068-0.104-0.104s-0.07-0.07-0.105-0.105c-0.033-0.033-0.067-0.068-0.103-0.103    c-0.036-0.037-0.073-0.075-0.112-0.112c-0.032-0.033-0.066-0.066-0.101-0.101c-0.037-0.037-0.073-0.074-0.11-0.11    c-0.035-0.035-0.068-0.068-0.104-0.104c-0.037-0.037-0.074-0.074-0.111-0.11c-0.033-0.035-0.068-0.069-0.104-0.104    c-0.036-0.035-0.07-0.069-0.105-0.104c-0.035-0.036-0.07-0.071-0.105-0.106c-0.037-0.037-0.074-0.074-0.111-0.11    c-0.033-0.032-0.064-0.064-0.098-0.097c-0.038-0.039-0.077-0.078-0.116-0.117c-0.032-0.032-0.065-0.064-0.099-0.098    c-0.039-0.039-0.075-0.076-0.112-0.113c-0.034-0.033-0.067-0.066-0.103-0.101c-0.035-0.036-0.071-0.073-0.108-0.108    c-0.034-0.035-0.068-0.069-0.104-0.104c-0.035-0.036-0.072-0.071-0.107-0.108c-0.035-0.035-0.07-0.069-0.105-0.104    c-0.035-0.036-0.07-0.072-0.107-0.107c-0.035-0.035-0.07-0.072-0.107-0.107c-0.033-0.035-0.068-0.069-0.104-0.104    c-0.035-0.037-0.071-0.072-0.107-0.106c-0.032-0.034-0.064-0.067-0.1-0.101c-0.039-0.041-0.078-0.08-0.118-0.119    c-0.032-0.033-0.065-0.064-0.099-0.098c-0.037-0.037-0.074-0.074-0.111-0.111c-0.032-0.033-0.065-0.065-0.1-0.1    c-0.039-0.038-0.076-0.076-0.115-0.113c-0.032-0.033-0.065-0.066-0.1-0.101c-0.035-0.036-0.07-0.072-0.107-0.108    c-0.034-0.035-0.069-0.068-0.104-0.104c-0.037-0.038-0.075-0.076-0.114-0.114c-0.031-0.032-0.063-0.063-0.097-0.097    c-0.039-0.039-0.077-0.077-0.116-0.116c-0.031-0.032-0.063-0.063-0.097-0.097c-0.037-0.036-0.073-0.073-0.108-0.109    c-0.037-0.037-0.074-0.072-0.111-0.109c-0.032-0.033-0.065-0.066-0.1-0.101c-0.037-0.038-0.076-0.076-0.115-0.114    c-0.03-0.031-0.063-0.063-0.096-0.096c-0.037-0.039-0.076-0.077-0.115-0.115c-0.033-0.035-0.067-0.068-0.104-0.104    c-0.035-0.036-0.07-0.071-0.107-0.106c-0.033-0.034-0.068-0.069-0.104-0.104c-0.035-0.036-0.071-0.071-0.105-0.106    c-0.037-0.036-0.072-0.071-0.106-0.106c-0.037-0.037-0.074-0.073-0.112-0.11c-0.031-0.032-0.064-0.065-0.098-0.099    c-0.036-0.035-0.072-0.072-0.108-0.107c-0.036-0.037-0.073-0.074-0.11-0.109c-0.033-0.035-0.067-0.068-0.103-0.104    c-0.037-0.037-0.073-0.073-0.11-0.11c-0.033-0.035-0.068-0.069-0.104-0.104c-0.035-0.035-0.07-0.07-0.105-0.105    c-0.037-0.038-0.074-0.075-0.111-0.112c-0.032-0.033-0.065-0.066-0.1-0.099c-0.035-0.037-0.072-0.074-0.108-0.11    c-0.035-0.035-0.069-0.07-0.104-0.105c-0.035-0.037-0.072-0.073-0.109-0.11c-0.035-0.035-0.07-0.07-0.106-0.105    c-0.035-0.036-0.071-0.071-0.106-0.107c-0.033-0.034-0.066-0.067-0.101-0.1c-0.037-0.038-0.075-0.076-0.112-0.114    c-0.035-0.034-0.067-0.067-0.103-0.101c-0.036-0.037-0.073-0.073-0.11-0.109c-0.033-0.035-0.068-0.069-0.104-0.104    c-0.036-0.037-0.073-0.073-0.11-0.11c-0.032-0.034-0.065-0.067-0.1-0.1c-0.037-0.038-0.075-0.075-0.112-0.112    c-0.034-0.034-0.068-0.068-0.104-0.102c-0.035-0.037-0.072-0.074-0.109-0.11c-0.034-0.035-0.068-0.07-0.104-0.104    c-0.035-0.036-0.071-0.071-0.107-0.107c-0.034-0.035-0.069-0.07-0.104-0.105c-0.037-0.036-0.072-0.072-0.108-0.107    c-0.035-0.036-0.07-0.071-0.104-0.106c-0.035-0.035-0.068-0.069-0.104-0.104c-0.037-0.038-0.074-0.075-0.112-0.112    c-0.031-0.033-0.064-0.066-0.1-0.099c-0.037-0.039-0.076-0.077-0.114-0.115c-0.033-0.034-0.067-0.067-0.103-0.101    c-0.035-0.036-0.07-0.072-0.106-0.107c-0.035-0.036-0.069-0.071-0.104-0.106c-0.037-0.037-0.074-0.073-0.11-0.109    c-0.032-0.033-0.064-0.065-0.097-0.098c-0.039-0.038-0.076-0.076-0.115-0.114c-0.033-0.035-0.068-0.069-0.104-0.104    c-0.035-0.036-0.07-0.071-0.105-0.106c-0.035-0.036-0.071-0.071-0.106-0.106c-0.036-0.037-0.073-0.073-0.11-0.109    c-0.033-0.034-0.065-0.067-0.1-0.101c-0.037-0.037-0.074-0.074-0.111-0.111c-0.035-0.036-0.072-0.071-0.106-0.106    c-0.034-0.035-0.068-0.068-0.103-0.103c-0.037-0.036-0.072-0.073-0.109-0.109c-0.034-0.035-0.069-0.07-0.104-0.105    c-0.037-0.036-0.072-0.072-0.107-0.107s-0.069-0.07-0.104-0.104c-0.036-0.036-0.071-0.072-0.106-0.107    c-0.036-0.037-0.073-0.073-0.109-0.109c-0.035-0.035-0.07-0.07-0.105-0.104c-0.035-0.036-0.069-0.071-0.104-0.106    c-0.035-0.036-0.069-0.07-0.104-0.105c-0.037-0.036-0.071-0.071-0.107-0.107c-0.035-0.035-0.068-0.07-0.105-0.105    c-0.035-0.037-0.072-0.073-0.108-0.109c-0.034-0.035-0.068-0.069-0.103-0.103c-0.037-0.037-0.072-0.073-0.109-0.109    c-0.035-0.035-0.069-0.07-0.104-0.105c-0.036-0.037-0.071-0.072-0.108-0.108c-0.032-0.034-0.065-0.067-0.101-0.1    c-0.036-0.037-0.073-0.074-0.11-0.111c-0.035-0.036-0.07-0.072-0.106-0.107c-0.035-0.036-0.071-0.072-0.106-0.107    c-0.035-0.036-0.072-0.071-0.107-0.107c-0.033-0.034-0.067-0.067-0.102-0.101c-0.035-0.037-0.072-0.073-0.108-0.109    c-0.034-0.035-0.069-0.07-0.104-0.104c-0.037-0.037-0.072-0.074-0.111-0.111c-0.033-0.035-0.067-0.069-0.103-0.103    c-0.036-0.036-0.071-0.072-0.106-0.107c-0.034-0.035-0.069-0.07-0.104-0.104c-0.037-0.037-0.073-0.074-0.11-0.111    c-0.035-0.035-0.068-0.069-0.104-0.103c-0.035-0.036-0.069-0.071-0.104-0.106c-0.035-0.036-0.072-0.071-0.106-0.106    c-0.036-0.036-0.071-0.071-0.106-0.107c-0.037-0.037-0.072-0.072-0.109-0.109c-0.033-0.034-0.067-0.067-0.102-0.101    c-0.035-0.037-0.072-0.073-0.109-0.109c-0.034-0.036-0.069-0.071-0.104-0.106c-0.036-0.037-0.071-0.072-0.108-0.108    c-0.035-0.035-0.069-0.069-0.104-0.104c-0.035-0.036-0.071-0.071-0.106-0.106c-0.035-0.035-0.068-0.069-0.104-0.104    c-0.037-0.038-0.074-0.075-0.111-0.112c-0.033-0.034-0.068-0.068-0.103-0.102c-0.036-0.037-0.073-0.073-0.11-0.11    c-0.033-0.035-0.068-0.069-0.104-0.104s-0.069-0.07-0.105-0.105c-0.035-0.036-0.07-0.072-0.107-0.107    c-0.034-0.036-0.07-0.072-0.107-0.108c-0.034-0.035-0.068-0.07-0.105-0.105c-0.033-0.035-0.067-0.069-0.103-0.104    c-0.038-0.038-0.076-0.075-0.112-0.113c-0.033-0.034-0.066-0.066-0.101-0.1c-0.037-0.037-0.074-0.074-0.11-0.11    c-0.035-0.035-0.068-0.069-0.104-0.103c-0.036-0.037-0.073-0.073-0.11-0.11c-0.034-0.035-0.067-0.069-0.103-0.103    c-0.037-0.037-0.073-0.074-0.11-0.11c-0.034-0.034-0.067-0.068-0.103-0.102c-0.037-0.037-0.073-0.074-0.11-0.11    c-0.034-0.035-0.069-0.069-0.104-0.104c-0.035-0.036-0.07-0.071-0.105-0.106C39.938,18.703,36.169,17,32,17    c-8.284,0-15,6.716-15,15c0,4.169,1.703,7.938,4.449,10.657c0.035,0.036,0.071,0.071,0.106,0.106    c0.035,0.035,0.071,0.07,0.107,0.105c0.035,0.035,0.07,0.07,0.106,0.105c0.036,0.037,0.073,0.073,0.11,0.109    c0.035,0.035,0.069,0.068,0.104,0.104s0.069,0.07,0.104,0.104c0.035,0.035,0.07,0.069,0.105,0.104    c0.036,0.037,0.072,0.074,0.109,0.109c0.037,0.037,0.074,0.073,0.111,0.11c0.033,0.032,0.066,0.065,0.1,0.099    c0.037,0.037,0.073,0.074,0.11,0.11c0.035,0.034,0.07,0.069,0.105,0.104c0.036,0.036,0.072,0.071,0.108,0.107    c0.035,0.035,0.069,0.068,0.104,0.104s0.07,0.07,0.105,0.105s0.07,0.07,0.105,0.105c0.036,0.035,0.072,0.071,0.109,0.107    c0.037,0.037,0.073,0.073,0.11,0.109c0.034,0.033,0.067,0.066,0.101,0.101c0.037,0.037,0.074,0.074,0.111,0.11    c0.035,0.035,0.07,0.07,0.105,0.104c0.036,0.036,0.071,0.071,0.107,0.106c0.035,0.035,0.069,0.07,0.104,0.104    c0.035,0.035,0.07,0.07,0.105,0.105c0.036,0.035,0.072,0.072,0.109,0.109s0.075,0.073,0.112,0.11    c0.032,0.032,0.064,0.063,0.097,0.097c0.037,0.036,0.073,0.073,0.11,0.11c0.036,0.036,0.072,0.072,0.108,0.106    c0.035,0.035,0.069,0.07,0.104,0.104c0.036,0.036,0.071,0.071,0.107,0.106c0.036,0.037,0.072,0.072,0.108,0.107    c0.034,0.034,0.069,0.068,0.104,0.104c0.037,0.037,0.073,0.074,0.11,0.111c0.035,0.033,0.069,0.067,0.104,0.103    c0.035,0.034,0.069,0.069,0.104,0.104c0.036,0.035,0.072,0.072,0.109,0.108c0.036,0.036,0.072,0.071,0.108,0.106    c0.036,0.035,0.071,0.07,0.107,0.106c0.034,0.034,0.068,0.067,0.103,0.103c0.035,0.035,0.07,0.071,0.105,0.106    c0.036,0.036,0.072,0.072,0.109,0.108c0.036,0.035,0.072,0.072,0.107,0.106c0.035,0.035,0.07,0.07,0.105,0.105    c0.034,0.034,0.068,0.067,0.104,0.104c0.037,0.037,0.074,0.074,0.111,0.111c0.035,0.035,0.07,0.069,0.106,0.104    c0.035,0.034,0.069,0.069,0.104,0.104c0.035,0.036,0.071,0.071,0.106,0.106c0.036,0.035,0.072,0.071,0.108,0.107    c0.035,0.035,0.07,0.07,0.105,0.104c0.035,0.035,0.069,0.069,0.104,0.104c0.037,0.037,0.074,0.074,0.111,0.11    c0.034,0.033,0.067,0.068,0.102,0.102c0.038,0.038,0.076,0.076,0.114,0.114c0.033,0.032,0.066,0.065,0.1,0.101    c0.036,0.035,0.072,0.071,0.109,0.107c0.035,0.035,0.07,0.07,0.105,0.105c0.035,0.035,0.071,0.07,0.106,0.105    c0.035,0.035,0.07,0.07,0.105,0.105c0.037,0.037,0.074,0.072,0.111,0.109c0.034,0.034,0.067,0.066,0.101,0.102    c0.037,0.037,0.074,0.074,0.112,0.111c0.034,0.034,0.068,0.068,0.103,0.102c0.036,0.037,0.073,0.074,0.11,0.111    c0.034,0.033,0.068,0.067,0.103,0.103c0.036,0.036,0.071,0.071,0.107,0.106c0.035,0.035,0.07,0.07,0.105,0.104    c0.036,0.036,0.073,0.073,0.109,0.11c0.036,0.035,0.071,0.069,0.107,0.105c0.034,0.034,0.068,0.068,0.103,0.104    c0.036,0.035,0.072,0.071,0.109,0.107c0.035,0.036,0.07,0.07,0.105,0.105c0.036,0.035,0.071,0.07,0.107,0.106    c0.035,0.035,0.07,0.07,0.105,0.104c0.036,0.037,0.073,0.072,0.109,0.109c0.035,0.034,0.069,0.068,0.104,0.104    c0.035,0.035,0.071,0.07,0.107,0.105c0.035,0.036,0.07,0.07,0.105,0.105s0.07,0.07,0.105,0.105    c0.036,0.035,0.073,0.072,0.11,0.108c0.034,0.034,0.067,0.067,0.102,0.103c0.036,0.037,0.072,0.072,0.109,0.108    c0.036,0.036,0.072,0.072,0.108,0.108c0.036,0.035,0.072,0.07,0.107,0.106c0.035,0.034,0.069,0.068,0.104,0.103    c0.035,0.037,0.071,0.072,0.106,0.106c0.035,0.036,0.071,0.071,0.106,0.106c0.036,0.035,0.071,0.072,0.107,0.107    s0.071,0.07,0.106,0.105s0.07,0.068,0.105,0.104c0.036,0.036,0.072,0.072,0.108,0.108c0.034,0.034,0.067,0.067,0.102,0.103    c0.037,0.037,0.074,0.073,0.111,0.11c0.035,0.035,0.071,0.07,0.106,0.104c0.034,0.035,0.069,0.069,0.104,0.104    c0.036,0.036,0.072,0.072,0.109,0.108c0.035,0.035,0.069,0.068,0.104,0.104c0.037,0.038,0.075,0.075,0.112,0.112    c0.033,0.032,0.066,0.065,0.1,0.1c0.036,0.037,0.073,0.073,0.11,0.11c0.035,0.035,0.071,0.07,0.106,0.105    c0.036,0.035,0.071,0.071,0.107,0.106c0.034,0.034,0.068,0.067,0.102,0.103c0.037,0.037,0.074,0.074,0.111,0.111    c0.033,0.033,0.066,0.066,0.1,0.1c0.038,0.037,0.075,0.076,0.113,0.113c0.035,0.035,0.07,0.07,0.105,0.104    c0.033,0.035,0.067,0.068,0.103,0.104c0.036,0.037,0.073,0.073,0.11,0.11c0.033,0.034,0.068,0.069,0.104,0.104    c0.036,0.035,0.072,0.071,0.107,0.107s0.072,0.07,0.107,0.107c0.034,0.033,0.069,0.067,0.104,0.103    c0.034,0.035,0.067,0.067,0.102,0.103c0.038,0.039,0.077,0.078,0.116,0.116c0.034,0.034,0.068,0.067,0.104,0.103    s0.068,0.068,0.104,0.104c0.035,0.036,0.07,0.071,0.107,0.107c0.035,0.035,0.071,0.072,0.108,0.107    c0.033,0.034,0.065,0.067,0.101,0.103c0.037,0.036,0.074,0.073,0.111,0.11c0.034,0.034,0.068,0.068,0.104,0.104    c0.035,0.037,0.072,0.072,0.109,0.109c0.034,0.035,0.069,0.068,0.104,0.104c0.034,0.035,0.071,0.071,0.106,0.105    c0.034,0.035,0.069,0.07,0.104,0.105c0.036,0.035,0.071,0.071,0.106,0.105c0.037,0.037,0.073,0.074,0.11,0.111    c0.035,0.034,0.07,0.069,0.104,0.104c0.033,0.034,0.067,0.067,0.103,0.102c0.036,0.036,0.072,0.072,0.108,0.108    c0.035,0.035,0.07,0.07,0.105,0.105c0.036,0.037,0.073,0.073,0.109,0.109c0.033,0.034,0.068,0.068,0.104,0.102    c0.035,0.037,0.071,0.073,0.107,0.109c0.035,0.035,0.07,0.07,0.105,0.105s0.07,0.07,0.106,0.105    c0.035,0.035,0.069,0.07,0.104,0.105s0.07,0.07,0.106,0.105c0.035,0.036,0.069,0.071,0.106,0.106    c0.035,0.036,0.072,0.071,0.108,0.108c0.034,0.034,0.068,0.068,0.104,0.104c0.035,0.035,0.068,0.07,0.104,0.105    c0.036,0.035,0.073,0.072,0.11,0.108c0.034,0.036,0.069,0.071,0.106,0.106c0.034,0.035,0.068,0.069,0.104,0.104    s0.068,0.069,0.104,0.104s0.071,0.071,0.107,0.106c0.036,0.037,0.072,0.073,0.109,0.11c0.033,0.033,0.067,0.068,0.103,0.102    c0.037,0.037,0.073,0.074,0.11,0.11c0.033,0.034,0.068,0.069,0.104,0.104c0.035,0.034,0.07,0.069,0.105,0.104    c0.035,0.036,0.072,0.071,0.107,0.108c0.035,0.035,0.069,0.068,0.104,0.104c0.036,0.037,0.073,0.074,0.11,0.109    c0.034,0.035,0.068,0.069,0.104,0.104c0.035,0.035,0.069,0.07,0.104,0.104c0.035,0.037,0.071,0.072,0.106,0.106    c0.035,0.036,0.069,0.071,0.106,0.106c0.035,0.035,0.069,0.07,0.105,0.105c0.035,0.036,0.07,0.071,0.105,0.106    c0.035,0.036,0.07,0.071,0.106,0.106c0.037,0.036,0.074,0.073,0.111,0.11c0.032,0.033,0.065,0.065,0.1,0.099    c0.037,0.037,0.073,0.074,0.11,0.11c0.033,0.035,0.068,0.069,0.104,0.104s0.07,0.07,0.106,0.105    c0.036,0.036,0.071,0.072,0.108,0.107c0.035,0.035,0.069,0.07,0.104,0.105c0.034,0.034,0.067,0.068,0.103,0.104    c0.039,0.037,0.076,0.074,0.114,0.113c0.031,0.031,0.063,0.063,0.097,0.096c0.037,0.039,0.076,0.078,0.115,0.115    c0.032,0.033,0.066,0.067,0.102,0.103c0.035,0.036,0.072,0.071,0.109,0.108c0.034,0.035,0.07,0.07,0.105,0.106    c0.033,0.034,0.068,0.067,0.104,0.103c0.037,0.037,0.074,0.074,0.111,0.111c0.035,0.035,0.068,0.069,0.104,0.104    c0.033,0.035,0.067,0.068,0.103,0.104c0.037,0.038,0.075,0.075,0.112,0.112c0.033,0.034,0.068,0.067,0.103,0.103    c0.036,0.036,0.072,0.072,0.109,0.108c0.034,0.034,0.067,0.069,0.104,0.104c0.035,0.035,0.071,0.071,0.108,0.107    c0.035,0.036,0.069,0.07,0.106,0.105c0.033,0.035,0.068,0.07,0.104,0.105c0.035,0.035,0.069,0.07,0.104,0.105    s0.07,0.07,0.106,0.105c0.035,0.036,0.069,0.071,0.106,0.105c0.035,0.037,0.072,0.072,0.107,0.108    c0.035,0.035,0.07,0.07,0.105,0.104c0.033,0.035,0.068,0.07,0.104,0.104c0.036,0.036,0.072,0.072,0.108,0.108    c0.034,0.035,0.071,0.07,0.106,0.105c0.034,0.035,0.069,0.069,0.104,0.104c0.034,0.036,0.069,0.071,0.106,0.106    c0.034,0.035,0.069,0.07,0.105,0.105c0.036,0.036,0.072,0.072,0.109,0.107c0.033,0.035,0.068,0.069,0.104,0.104    c0.036,0.036,0.07,0.071,0.107,0.106c0.033,0.035,0.067,0.068,0.104,0.104c0.035,0.036,0.071,0.072,0.107,0.107    c0.035,0.035,0.07,0.07,0.105,0.105c0.035,0.036,0.069,0.071,0.105,0.106c0.035,0.036,0.072,0.071,0.107,0.108    c0.036,0.035,0.072,0.071,0.108,0.107c0.035,0.035,0.069,0.068,0.104,0.104c0.034,0.034,0.068,0.069,0.104,0.104    c0.036,0.036,0.071,0.071,0.106,0.106c0.035,0.037,0.07,0.071,0.106,0.106c0.035,0.036,0.069,0.071,0.106,0.106    c0.037,0.037,0.074,0.074,0.11,0.11c0.033,0.033,0.065,0.065,0.099,0.099c0.037,0.037,0.074,0.074,0.111,0.11    c0.034,0.035,0.068,0.069,0.104,0.104c0.037,0.035,0.072,0.072,0.109,0.109c0.034,0.034,0.068,0.068,0.104,0.104    c0.034,0.036,0.069,0.07,0.106,0.105c0.035,0.037,0.069,0.071,0.105,0.106c0.037,0.037,0.074,0.074,0.111,0.11    c0.033,0.033,0.065,0.066,0.101,0.101c0.036,0.037,0.072,0.073,0.108,0.108c0.035,0.035,0.07,0.07,0.104,0.104    c0.035,0.035,0.069,0.07,0.104,0.104c0.035,0.037,0.072,0.072,0.109,0.108c0.034,0.036,0.069,0.071,0.105,0.106    c0.033,0.033,0.068,0.068,0.104,0.103c0.036,0.038,0.073,0.075,0.11,0.111c0.034,0.035,0.069,0.069,0.104,0.104    c0.037,0.037,0.072,0.072,0.109,0.108c0.033,0.034,0.066,0.067,0.102,0.103c0.037,0.037,0.074,0.073,0.11,0.11    c0.034,0.034,0.069,0.068,0.104,0.104c0.033,0.035,0.068,0.068,0.104,0.104c0.037,0.037,0.074,0.074,0.111,0.11    c0.033,0.034,0.066,0.067,0.102,0.102c0.036,0.037,0.073,0.074,0.111,0.111c0.034,0.034,0.068,0.069,0.104,0.104    s0.07,0.07,0.106,0.105c0.035,0.036,0.071,0.07,0.106,0.107c0.035,0.035,0.072,0.07,0.106,0.105    c0.035,0.035,0.069,0.068,0.104,0.104c0.037,0.037,0.074,0.074,0.111,0.111c0.033,0.034,0.067,0.067,0.103,0.102    c0.034,0.037,0.069,0.072,0.106,0.106c0.034,0.036,0.069,0.071,0.105,0.106c0.035,0.035,0.07,0.07,0.105,0.105    c0.035,0.036,0.07,0.071,0.106,0.106c0.035,0.036,0.071,0.071,0.106,0.106s0.069,0.069,0.104,0.104    c0.037,0.038,0.075,0.075,0.112,0.112c0.033,0.033,0.066,0.065,0.101,0.1c0.036,0.036,0.072,0.072,0.108,0.107    c0.033,0.035,0.068,0.07,0.104,0.104c0.034,0.035,0.068,0.069,0.104,0.104c0.037,0.037,0.074,0.074,0.113,0.111    c0.033,0.035,0.068,0.07,0.104,0.105c0.034,0.035,0.071,0.072,0.108,0.107c0.033,0.033,0.065,0.066,0.101,0.101    c0.036,0.036,0.071,0.073,0.108,0.11c0.035,0.034,0.069,0.069,0.104,0.104c0.036,0.036,0.071,0.072,0.106,0.107    s0.07,0.07,0.106,0.105c0.037,0.037,0.074,0.074,0.111,0.111c0.032,0.033,0.067,0.065,0.101,0.1    c0.036,0.036,0.072,0.072,0.108,0.107c0.034,0.035,0.069,0.07,0.104,0.105c0.035,0.036,0.07,0.071,0.106,0.105    c0.034,0.037,0.069,0.072,0.106,0.107c0.035,0.035,0.069,0.07,0.105,0.105s0.072,0.072,0.107,0.107s0.07,0.07,0.105,0.105    c0.036,0.036,0.071,0.07,0.107,0.105c0.035,0.035,0.068,0.069,0.104,0.104c0.035,0.036,0.07,0.071,0.105,0.106    s0.07,0.07,0.106,0.105c0.035,0.036,0.07,0.071,0.106,0.105c0.035,0.037,0.07,0.072,0.105,0.106    c0.036,0.037,0.073,0.073,0.109,0.109c0.034,0.034,0.068,0.067,0.104,0.103c0.035,0.036,0.07,0.071,0.106,0.106    c0.035,0.036,0.071,0.071,0.108,0.108c0.033,0.033,0.066,0.067,0.102,0.102c0.036,0.037,0.072,0.072,0.107,0.109    c0.037,0.035,0.072,0.07,0.107,0.105s0.069,0.07,0.104,0.105c0.037,0.035,0.074,0.071,0.109,0.107s0.071,0.071,0.107,0.107    c0.033,0.033,0.066,0.066,0.102,0.102c0.036,0.036,0.072,0.072,0.108,0.107c0.034,0.037,0.069,0.072,0.106,0.107    c0.035,0.035,0.069,0.07,0.105,0.105c0.037,0.037,0.074,0.074,0.111,0.109c0.033,0.035,0.066,0.068,0.103,0.104    c0.035,0.035,0.07,0.07,0.104,0.105c0.035,0.035,0.07,0.07,0.106,0.105c0.035,0.036,0.07,0.07,0.106,0.105    C56.091,77.297,59.859,79,64.029,79c8.283,0,15-6.716,15-15C79.029,59.831,77.326,56.063,74.58,53.343z" enable-background="new    " fill="url(#SVGID_3_)" opacity="0.4"/></g></g><path d="M32,17c-8.284,0-15,6.716-15,15s6.716,15,15,15c8.283,0,15-6.716,15-15S40.283,17,32,17z   M38.086,39.078c-0.244,0-0.408-0.084-0.635-0.223c-2.176-1.314-4.885-2.006-7.762-2.006c-1.605,0-3.221,0.205-4.731,0.52  c-0.246,0.054-0.556,0.148-0.739,0.148c-0.568,0-0.949-0.453-0.949-0.942c0-0.632,0.363-0.943,0.816-1.03  c1.854-0.422,3.698-0.663,5.614-0.663c3.282,0,6.207,0.753,8.725,2.263c0.375,0.22,0.595,0.44,0.595,0.996  C39.018,38.682,38.578,39.078,38.086,39.078z M39.719,35.107c-0.324,0-0.529-0.131-0.75-0.26c-2.441-1.447-5.822-2.411-9.525-2.411  c-1.898,0-3.539,0.266-4.896,0.625c-0.292,0.08-0.456,0.168-0.729,0.168c-0.646,0-1.171-0.525-1.171-1.176  c0-0.637,0.309-1.076,0.933-1.252c1.686-0.463,3.408-0.82,5.914-0.82c3.927,0,7.728,0.978,10.71,2.765  c0.502,0.288,0.688,0.649,0.688,1.187C40.889,34.583,40.371,35.107,39.719,35.107z M41.58,30.49c-0.305,0-0.486-0.074-0.771-0.23  c-2.715-1.628-6.93-2.524-11.003-2.524c-2.033,0-4.1,0.207-5.992,0.72c-0.217,0.055-0.493,0.164-0.769,0.164  c-0.8,0-1.414-0.633-1.414-1.433c0-0.815,0.505-1.273,1.05-1.434c2.138-0.63,4.525-0.924,7.119-0.924  c4.404,0,9.039,0.906,12.424,2.895c0.457,0.258,0.773,0.647,0.773,1.361C42.996,29.903,42.338,30.49,41.58,30.49z" fill="#FFFFFF" id="WTF"/></svg>