<?xml version="1.0" ?><!DOCTYPE svg  PUBLIC '-//W3C//DTD SVG 1.1//EN'  'http://www.w3.org/Graphics/SVG/1.1/DTD/svg11.dtd'><svg enable-background="new 0 0 64 64" height="64px" id="Amazon" version="1.1" viewBox="0 0 64 64" width="64px" xml:space="preserve" xmlns="http://www.w3.org/2000/svg" xmlns:xlink="http://www.w3.org/1999/xlink"><linearGradient gradientTransform="matrix(1 0 0 -1 -274 -299)" gradientUnits="userSpaceOnUse" id="Circle_Shadow_1_" x1="338" x2="306" y1="-362.9995" y2="-330.9995"><stop offset="0.3163" style="stop-color:#FFFFFF;stop-opacity:0"/><stop offset="0.3508" style="stop-color:#E9E9E9;stop-opacity:0.0504"/><stop offset="0.4543" style="stop-color:#ACACAC;stop-opacity:0.2018"/><stop offset="0.5572" style="stop-color:#787878;stop-opacity:0.3523"/><stop offset="0.6569" style="stop-color:#4D4D4D;stop-opacity:0.4981"/><stop offset="0.7528" style="stop-color:#2B2B2B;stop-opacity:0.6385"/><stop offset="0.8441" style="stop-color:#131313;stop-opacity:0.7719"/><stop offset="0.9286" style="stop-color:#050505;stop-opacity:0.8956"/><stop offset="1" style="stop-color:#000000"/></linearGradient><polygon enable-background="new    " fill="url(#Circle_Shadow_1_)" id="Circle_Shadow" opacity="0.2" points="64,64 64,30.059   48.971,15.029 15.029,48.971 30.059,64 "/><circle cx="32" cy="32" fill="#FF8E2E" id="Circle" r="24"/><g id="a_shadow"><g><defs><circle cx="32" cy="32" id="SVGID_1_" r="24"/></defs><clipPath id="SVGID_2_"><use overflow="visible" xlink:href="#SVGID_1_"/></clipPath><linearGradient gradientTransform="matrix(1 0 0 -1 -274 -299)" gradientUnits="userSpaceOnUse" id="SVGID_3_" x1="346.9043" x2="294.397" y1="-375.3003" y2="-322.793"><stop offset="0" style="stop-color:#FFFFFF;stop-opacity:0"/><stop offset="0.3207" style="stop-color:#A4A4A4;stop-opacity:0.3207"/><stop offset="0.6527" style="stop-color:#4D4D4D;stop-opacity:0.6527"/><stop offset="0.8871" style="stop-color:#151515;stop-opacity:0.8871"/><stop offset="1" style="stop-color:#000000"/></linearGradient><path clip-path="url(#SVGID_2_)" d="M76.121,70.343v-0.002    c-0.014-0.313-0.08-0.551-0.211-0.749l-0.014-0.019l-0.017-0.021c-0.021-0.022-0.041-0.03-0.062-0.05    c-0.004-0.005-0.004-0.01-0.006-0.014L75.8,69.471l-0.016-0.021c-0.021-0.022-0.041-0.032-0.062-0.05    c-0.002-0.004-0.004-0.01-0.007-0.015l-0.014-0.019l-0.017-0.021c-0.021-0.021-0.041-0.031-0.062-0.05    c-0.003-0.005-0.003-0.01-0.006-0.014l-0.015-0.019l-0.016-0.021c-0.021-0.022-0.041-0.032-0.063-0.051    c-0.002-0.004-0.002-0.01-0.006-0.014l-0.014-0.019l-0.016-0.021c-0.021-0.023-0.042-0.033-0.063-0.053    c-0.004-0.003-0.005-0.008-0.007-0.012l-0.013-0.02l-0.018-0.021c-0.021-0.022-0.041-0.032-0.062-0.052    c-0.003-0.004-0.003-0.008-0.006-0.013l-0.013-0.019L75.3,68.938c-0.021-0.021-0.041-0.031-0.062-0.051    c-0.004-0.004-0.004-0.009-0.006-0.013l-0.015-0.019l-0.015-0.021c-0.021-0.021-0.042-0.032-0.063-0.051    c-0.004-0.004-0.004-0.01-0.007-0.014l-0.014-0.019l-0.017-0.021c-0.021-0.022-0.041-0.032-0.062-0.051    c-0.002-0.005-0.003-0.01-0.006-0.014l-0.015-0.02l-0.016-0.021c-0.021-0.022-0.04-0.03-0.061-0.05    c-0.004-0.006-0.004-0.01-0.008-0.016l-0.014-0.018l-0.016-0.021c-0.021-0.021-0.04-0.03-0.061-0.049    c-0.004-0.006-0.005-0.012-0.008-0.016l-0.014-0.018l-0.016-0.021c-0.021-0.021-0.041-0.031-0.063-0.05    c-0.002-0.005-0.003-0.011-0.006-0.015l-0.014-0.018l-0.017-0.021c-0.021-0.021-0.04-0.03-0.062-0.049    c-0.002-0.006-0.004-0.012-0.006-0.016l-0.015-0.018l-0.016-0.021c-0.021-0.021-0.04-0.031-0.062-0.05    c-0.003-0.005-0.004-0.011-0.007-0.015l-0.014-0.02l-0.017-0.021c-0.021-0.021-0.041-0.03-0.062-0.049    c-0.002-0.005-0.003-0.011-0.006-0.015l-0.015-0.019l-0.016-0.021c-0.021-0.021-0.041-0.031-0.063-0.05    c-0.002-0.005-0.002-0.011-0.006-0.015l-0.014-0.018l-0.016-0.021c-0.021-0.021-0.041-0.031-0.063-0.051    c-0.003-0.004-0.003-0.009-0.006-0.013l-0.015-0.019l-0.015-0.021c-0.021-0.021-0.041-0.031-0.063-0.051    c-0.003-0.003-0.004-0.008-0.006-0.012l-0.016-0.021l-0.016-0.021c-0.021-0.022-0.04-0.031-0.061-0.049    c-0.002-0.006-0.004-0.012-0.006-0.016l-0.015-0.02l-0.017-0.021c-0.021-0.022-0.041-0.032-0.063-0.052    c-0.003-0.004-0.004-0.008-0.006-0.012l-0.014-0.02l-0.016-0.021c-0.021-0.021-0.041-0.031-0.063-0.049    c-0.003-0.005-0.003-0.011-0.006-0.015L73.846,67.4l-0.017-0.021c-0.021-0.021-0.041-0.031-0.062-0.05    c-0.002-0.005-0.004-0.011-0.006-0.015l-0.015-0.019l-0.017-0.021c-0.021-0.022-0.041-0.032-0.062-0.051    c-0.003-0.004-0.003-0.01-0.006-0.014l-0.015-0.02l-0.016-0.021c-0.021-0.022-0.041-0.03-0.062-0.05    c-0.002-0.006-0.003-0.01-0.007-0.014l-0.014-0.02l-0.016-0.021c-0.021-0.021-0.041-0.031-0.063-0.049    c-0.002-0.005-0.002-0.011-0.006-0.015l-0.014-0.019l-0.016-0.021c-0.021-0.021-0.041-0.031-0.063-0.05    c-0.002-0.005-0.003-0.011-0.006-0.015l-0.014-0.019l-0.017-0.021c-0.021-0.022-0.04-0.032-0.062-0.051    c-0.004-0.004-0.004-0.01-0.006-0.014l-0.014-0.02l-0.018-0.021c-0.021-0.022-0.04-0.03-0.061-0.049    c-0.002-0.005-0.004-0.011-0.006-0.015l-0.015-0.02l-0.017-0.021c-0.021-0.022-0.041-0.031-0.063-0.051    c-0.003-0.004-0.004-0.009-0.006-0.013l-0.014-0.019l-0.016-0.021c-0.021-0.023-0.042-0.031-0.063-0.051    c-0.004-0.004-0.004-0.01-0.006-0.014l-0.014-0.019l-0.017-0.021c-0.021-0.022-0.041-0.032-0.062-0.051    c-0.002-0.005-0.004-0.01-0.007-0.014l-0.014-0.02l-0.017-0.021c-0.021-0.022-0.041-0.03-0.062-0.05    c-0.003-0.006-0.003-0.01-0.006-0.014l0.02,0.016l-0.015-0.021c-0.021-0.021-0.042-0.031-0.063-0.052    c-0.004-0.003-0.005-0.008-0.007-0.012l-0.014-0.019l-0.017-0.021c-0.021-0.021-0.041-0.031-0.062-0.05    c-0.003-0.005-0.003-0.011-0.006-0.015l-0.015-0.019l-0.016-0.021c-0.021-0.022-0.041-0.033-0.063-0.051    c-0.002-0.004-0.002-0.01-0.006-0.014l-0.014-0.02l-0.016-0.021c-0.021-0.022-0.041-0.031-0.063-0.05    c-0.003-0.006-0.003-0.01-0.006-0.014l-0.014-0.02l-0.016-0.021c-0.021-0.021-0.041-0.031-0.063-0.049    c-0.002-0.005-0.003-0.011-0.006-0.015l-0.014-0.019l-0.017-0.021c-0.021-0.021-0.04-0.031-0.062-0.05    c-0.002-0.005-0.004-0.011-0.006-0.015l-0.015-0.019l-0.016-0.021c-0.021-0.022-0.041-0.033-0.063-0.052    c-0.002-0.004-0.003-0.008-0.005-0.012l-0.014-0.021l-0.017-0.02c-0.021-0.021-0.039-0.031-0.061-0.05    c-0.003-0.005-0.004-0.011-0.007-0.015l-0.015-0.02L72,65.439c-0.021-0.022-0.04-0.031-0.061-0.051    c-0.004-0.004-0.004-0.01-0.008-0.015l-0.014-0.019l-0.016-0.021c-0.021-0.021-0.041-0.032-0.063-0.05    c-0.003-0.005-0.003-0.011-0.006-0.015l-0.014-0.018l-0.018-0.021c-0.021-0.021-0.039-0.03-0.06-0.049    c-0.003-0.005-0.004-0.011-0.007-0.015l-0.014-0.019l-0.018-0.021c-0.021-0.022-0.04-0.03-0.061-0.05    c-0.004-0.006-0.004-0.012-0.008-0.016l-0.014-0.018l-0.016-0.021c-0.021-0.021-0.041-0.031-0.063-0.051    c-0.003-0.004-0.003-0.009-0.006-0.013l-0.014-0.019L71.51,64.92c-0.021-0.021-0.041-0.031-0.063-0.05    c-0.002-0.004-0.004-0.011-0.006-0.015l-0.014-0.019l-0.017-0.021c-0.021-0.022-0.041-0.031-0.062-0.051    c-0.002-0.004-0.004-0.01-0.006-0.014l-0.015-0.02l-0.017-0.021c-0.021-0.022-0.041-0.032-0.062-0.05    c-0.002-0.004-0.003-0.01-0.006-0.014L71.23,64.63l-0.016-0.021c-0.021-0.022-0.041-0.032-0.063-0.051    c-0.002-0.005-0.004-0.009-0.006-0.013l-0.014-0.021l-0.016-0.02c-0.021-0.021-0.041-0.031-0.061-0.05    c-0.004-0.005-0.004-0.011-0.008-0.015l-0.014-0.02L71.02,64.4c-0.021-0.021-0.041-0.03-0.063-0.049    c-0.003-0.006-0.003-0.011-0.006-0.015l-0.014-0.019l-0.017-0.021c-0.021-0.021-0.041-0.031-0.062-0.05    c-0.002-0.004-0.004-0.011-0.006-0.015l-0.015-0.019l-0.016-0.021c-0.021-0.023-0.042-0.032-0.063-0.053    c-0.003-0.003-0.004-0.008-0.006-0.012l-0.013-0.02l-0.017-0.021c-0.021-0.022-0.041-0.032-0.063-0.052    c-0.003-0.003-0.004-0.008-0.006-0.012l-0.014-0.02l-0.016-0.021c-0.021-0.022-0.042-0.031-0.063-0.051    c-0.004-0.004-0.004-0.009-0.006-0.013l-0.015-0.019l-0.016-0.021c-0.021-0.021-0.041-0.031-0.062-0.051    c-0.004-0.004-0.004-0.01-0.007-0.014l-0.013-0.019l-0.018-0.021c-0.021-0.022-0.041-0.032-0.062-0.051    c-0.003-0.005-0.003-0.01-0.006-0.014l-0.015-0.02l-0.016-0.021c-0.021-0.022-0.041-0.032-0.063-0.05    c-0.002-0.004-0.002-0.01-0.006-0.014l-0.014-0.02l-0.016-0.021c-0.021-0.021-0.041-0.03-0.063-0.049    c-0.002-0.006-0.003-0.011-0.006-0.015l-0.014-0.019l-0.016-0.021c-0.021-0.021-0.041-0.031-0.063-0.05    c-0.003-0.004-0.003-0.011-0.006-0.015l-0.014-0.019l-0.017-0.021c-0.021-0.022-0.041-0.031-0.062-0.051    c-0.002-0.004-0.004-0.01-0.006-0.014l-0.015-0.02l-0.017-0.021c-0.021-0.022-0.041-0.032-0.062-0.05    c-0.003-0.004-0.003-0.01-0.006-0.014l-0.014-0.02l-0.017-0.021c-0.021-0.021-0.041-0.03-0.062-0.049    c-0.002-0.006-0.003-0.011-0.007-0.015L69.76,63.07l-0.016-0.021c-0.021-0.021-0.041-0.031-0.063-0.05    c-0.002-0.004-0.002-0.011-0.006-0.015l-0.014-0.019l-0.018-0.021c-0.021-0.022-0.039-0.031-0.06-0.049    c-0.003-0.006-0.004-0.012-0.007-0.016l-0.014-0.02l-0.016-0.021c-0.021-0.022-0.041-0.032-0.063-0.051    c-0.003-0.003-0.004-0.009-0.006-0.013l-0.014-0.02l-0.017-0.02c-0.021-0.022-0.04-0.031-0.062-0.051    c-0.002-0.004-0.004-0.01-0.006-0.015l-0.015-0.019l-0.017-0.021c-0.021-0.022-0.041-0.032-0.063-0.051    c-0.003-0.004-0.003-0.009-0.006-0.013l-0.014-0.02l-0.017-0.021c-0.021-0.021-0.04-0.03-0.061-0.049    c-0.003-0.006-0.005-0.012-0.007-0.016l-0.014-0.018l-0.016-0.021c-0.021-0.021-0.042-0.031-0.063-0.051    c-0.004-0.004-0.004-0.01-0.006-0.014l-0.015-0.019l-0.017-0.021c-0.021-0.021-0.039-0.03-0.061-0.049    c-0.003-0.006-0.004-0.012-0.007-0.016l-0.015-0.02l-0.016-0.021c-0.021-0.022-0.041-0.03-0.063-0.05    c-0.002-0.004-0.002-0.01-0.006-0.014l-0.014-0.02l-0.016-0.021c-0.021-0.021-0.041-0.03-0.063-0.049    c-0.002-0.004-0.002-0.011-0.006-0.015l-0.014-0.019l-0.016-0.021c-0.021-0.021-0.041-0.031-0.063-0.05    c-0.002-0.005-0.003-0.01-0.006-0.015l-0.014-0.019l-0.017-0.021c-0.021-0.022-0.041-0.031-0.062-0.051    c-0.002-0.004-0.004-0.01-0.006-0.014l0.043,0.038l-0.017-0.021c-0.021-0.022-0.041-0.031-0.062-0.051    c-0.002-0.004-0.004-0.01-0.006-0.014l-0.015-0.02l-0.017-0.02c-0.021-0.023-0.041-0.031-0.063-0.051    c-0.002-0.004-0.003-0.01-0.006-0.014l-0.014-0.02l-0.016-0.021c-0.021-0.021-0.041-0.03-0.062-0.049    c-0.002-0.004-0.003-0.011-0.007-0.015l-0.014-0.019l-0.016-0.021c-0.021-0.023-0.042-0.031-0.063-0.052    c-0.004-0.003-0.004-0.009-0.006-0.013l-0.014-0.019l-0.018-0.021c-0.021-0.022-0.041-0.032-0.062-0.051    c-0.003-0.004-0.003-0.01-0.006-0.014l-0.013-0.02l-0.018-0.021c-0.005-0.005-0.01-0.007-0.015-0.012v-5.46    c0-2.25-0.127-3.896-1.476-5.449c-0.028-0.035-0.066-0.068-0.098-0.104c-0.027-0.035-0.066-0.067-0.097-0.103    c-0.029-0.036-0.068-0.069-0.099-0.104c-0.027-0.033-0.064-0.064-0.093-0.098c-0.03-0.035-0.069-0.07-0.101-0.107    c-0.029-0.034-0.068-0.068-0.1-0.104c-0.026-0.031-0.063-0.064-0.093-0.097c-0.028-0.036-0.069-0.071-0.101-0.106    c-0.027-0.035-0.065-0.066-0.096-0.102c-0.027-0.033-0.064-0.067-0.096-0.102c-0.027-0.035-0.066-0.067-0.096-0.103    s-0.067-0.069-0.098-0.104c-0.029-0.035-0.069-0.07-0.102-0.105c-0.025-0.033-0.064-0.064-0.092-0.098    c-0.029-0.034-0.067-0.068-0.098-0.104c-0.028-0.034-0.066-0.067-0.098-0.103c-0.029-0.036-0.07-0.072-0.102-0.108    c-0.026-0.032-0.063-0.063-0.092-0.095c-0.029-0.037-0.069-0.072-0.102-0.109c-0.027-0.033-0.064-0.064-0.095-0.1    c-0.028-0.034-0.066-0.067-0.097-0.103c-0.028-0.034-0.066-0.067-0.098-0.103c-0.027-0.035-0.066-0.068-0.097-0.104    c-0.028-0.035-0.066-0.068-0.097-0.103c-0.028-0.035-0.066-0.068-0.098-0.103c-0.027-0.035-0.066-0.068-0.097-0.104    c-0.028-0.035-0.065-0.068-0.097-0.104c-0.028-0.035-0.067-0.068-0.099-0.104c-0.028-0.034-0.065-0.066-0.096-0.102    c-0.029-0.035-0.068-0.069-0.101-0.104c-0.026-0.034-0.064-0.065-0.095-0.101c-0.028-0.034-0.065-0.067-0.097-0.103    c-0.028-0.034-0.066-0.067-0.098-0.103c-0.027-0.035-0.065-0.068-0.097-0.104c-0.028-0.035-0.065-0.068-0.097-0.104    c-0.028-0.034-0.066-0.067-0.098-0.103c-0.027-0.034-0.065-0.067-0.097-0.103c-0.028-0.035-0.065-0.068-0.097-0.104    c-0.027-0.033-0.064-0.066-0.096-0.102c-0.058-0.069-0.133-0.139-0.196-0.208c-0.027-0.033-0.063-0.066-0.095-0.101    c-0.027-0.033-0.066-0.068-0.098-0.104c-0.027-0.035-0.066-0.068-0.098-0.104c-0.028-0.035-0.066-0.068-0.098-0.104    c-0.027-0.035-0.066-0.068-0.098-0.104c-0.027-0.033-0.064-0.065-0.094-0.1c-0.029-0.035-0.066-0.068-0.1-0.104    c-0.027-0.035-0.065-0.068-0.096-0.104c-0.029-0.035-0.066-0.068-0.098-0.104c-0.027-0.034-0.066-0.067-0.098-0.103    c-0.027-0.034-0.066-0.069-0.098-0.104c-0.029-0.033-0.068-0.068-0.099-0.104c-0.027-0.033-0.065-0.066-0.095-0.1    c-0.027-0.034-0.064-0.066-0.094-0.102c-0.031-0.035-0.07-0.07-0.103-0.107c-0.026-0.033-0.065-0.065-0.095-0.1    c-0.028-0.035-0.066-0.067-0.098-0.103c-0.027-0.035-0.066-0.067-0.097-0.103c-0.028-0.035-0.065-0.068-0.097-0.104    c-0.028-0.035-0.066-0.068-0.098-0.104c-0.027-0.035-0.066-0.067-0.097-0.103c-0.028-0.035-0.067-0.069-0.099-0.104    c-0.027-0.032-0.064-0.065-0.094-0.1c-0.029-0.035-0.067-0.068-0.099-0.104c-0.028-0.035-0.065-0.068-0.097-0.104    c-0.028-0.035-0.067-0.068-0.098-0.104c-0.029-0.034-0.065-0.066-0.096-0.102c-0.057-0.066-0.131-0.135-0.191-0.203    c-0.029-0.035-0.068-0.07-0.101-0.104c-0.028-0.035-0.065-0.068-0.097-0.103c-0.028-0.035-0.068-0.07-0.1-0.104    c-0.027-0.033-0.063-0.065-0.092-0.099c-0.029-0.035-0.068-0.069-0.1-0.104c-0.028-0.035-0.066-0.067-0.098-0.103    c-0.027-0.035-0.065-0.068-0.097-0.104c-0.028-0.036-0.067-0.07-0.099-0.105c-0.027-0.032-0.064-0.063-0.092-0.097    c-0.031-0.036-0.071-0.073-0.104-0.11c-0.026-0.031-0.063-0.063-0.092-0.097c-0.029-0.034-0.068-0.069-0.099-0.104    c-0.028-0.034-0.066-0.068-0.098-0.103c-0.027-0.035-0.066-0.068-0.097-0.103c-0.028-0.035-0.066-0.068-0.097-0.103    c-0.028-0.035-0.066-0.068-0.098-0.104c-0.029-0.036-0.068-0.07-0.1-0.105c-0.026-0.033-0.063-0.063-0.092-0.097    c-0.028-0.035-0.066-0.069-0.098-0.104c-0.059-0.069-0.135-0.14-0.197-0.209c-0.026-0.032-0.063-0.063-0.092-0.097    c-0.029-0.036-0.068-0.071-0.102-0.108c-0.028-0.033-0.066-0.067-0.096-0.102c-0.029-0.035-0.068-0.07-0.1-0.104    c-0.027-0.033-0.064-0.066-0.094-0.1c-0.028-0.033-0.064-0.068-0.096-0.102c-0.029-0.036-0.067-0.07-0.1-0.105    c-0.027-0.035-0.066-0.068-0.097-0.103c-0.029-0.035-0.068-0.07-0.099-0.104c-0.027-0.033-0.063-0.064-0.093-0.098    c-0.03-0.037-0.071-0.073-0.104-0.109c-0.026-0.033-0.063-0.064-0.093-0.098c-0.028-0.035-0.067-0.07-0.099-0.105    c-0.028-0.031-0.063-0.064-0.094-0.098c-0.03-0.037-0.07-0.072-0.103-0.109c-0.026-0.032-0.064-0.064-0.095-0.099    c-0.028-0.034-0.065-0.067-0.097-0.103c-0.028-0.035-0.066-0.068-0.098-0.104c-0.027-0.035-0.065-0.068-0.097-0.103    c-0.028-0.036-0.067-0.07-0.099-0.105c-0.027-0.032-0.064-0.063-0.092-0.097c-0.03-0.036-0.068-0.07-0.101-0.105    c-0.028-0.035-0.065-0.067-0.097-0.103c-0.029-0.036-0.069-0.071-0.102-0.106c-0.025-0.031-0.063-0.063-0.09-0.096    c-0.031-0.037-0.07-0.072-0.104-0.109c-0.027-0.033-0.064-0.065-0.094-0.099c-0.028-0.035-0.066-0.067-0.098-0.103    c-0.027-0.034-0.064-0.067-0.095-0.102c-0.029-0.035-0.069-0.072-0.101-0.107c-0.027-0.033-0.065-0.065-0.096-0.1    c-0.027-0.035-0.066-0.068-0.097-0.103c-0.028-0.035-0.065-0.068-0.097-0.104c-0.029-0.034-0.066-0.067-0.096-0.103    c-0.029-0.034-0.066-0.068-0.098-0.104c-0.029-0.035-0.068-0.07-0.1-0.104c-0.028-0.034-0.066-0.068-0.097-0.103    c-0.028-0.035-0.067-0.068-0.099-0.104c-0.027-0.033-0.063-0.064-0.092-0.098c-0.03-0.037-0.068-0.07-0.1-0.105    c-0.029-0.035-0.066-0.068-0.098-0.104c-0.029-0.035-0.068-0.069-0.1-0.104c-0.026-0.033-0.063-0.064-0.092-0.098    c-0.029-0.036-0.068-0.07-0.1-0.105c-0.027-0.035-0.066-0.068-0.098-0.104c-0.028-0.035-0.068-0.07-0.1-0.105    c-0.027-0.031-0.063-0.063-0.091-0.095c-0.03-0.037-0.071-0.074-0.103-0.11c-0.028-0.033-0.065-0.066-0.096-0.099    c-0.027-0.035-0.066-0.068-0.097-0.104c-0.026-0.033-0.063-0.064-0.095-0.099c-0.028-0.036-0.067-0.071-0.1-0.106    c-0.029-0.035-0.068-0.069-0.099-0.104c-0.026-0.034-0.065-0.066-0.095-0.1c-0.028-0.035-0.066-0.068-0.098-0.104    c-0.027-0.034-0.064-0.066-0.095-0.102c-0.058-0.067-0.131-0.135-0.19-0.203c-0.031-0.037-0.071-0.073-0.104-0.11    c-0.026-0.032-0.063-0.063-0.092-0.096c-0.058-0.07-0.134-0.14-0.195-0.208c-0.028-0.034-0.065-0.067-0.097-0.102    c-0.029-0.035-0.067-0.07-0.1-0.104c-0.027-0.035-0.065-0.068-0.097-0.103c-0.026-0.033-0.063-0.066-0.093-0.1    c-0.029-0.036-0.068-0.07-0.1-0.105c-0.028-0.035-0.067-0.068-0.099-0.104c-0.028-0.034-0.065-0.066-0.097-0.102    c-0.027-0.035-0.065-0.066-0.096-0.102c-0.028-0.035-0.068-0.07-0.101-0.107c-0.026-0.032-0.065-0.064-0.095-0.099    c-0.027-0.034-0.064-0.065-0.094-0.1c-0.03-0.037-0.07-0.072-0.103-0.108c-0.026-0.033-0.063-0.064-0.094-0.099    c-0.029-0.035-0.068-0.07-0.099-0.104c-0.027-0.033-0.065-0.066-0.095-0.101c-0.028-0.035-0.067-0.07-0.099-0.104    c-0.029-0.033-0.067-0.067-0.098-0.102c-0.027-0.035-0.065-0.068-0.097-0.104c-0.028-0.033-0.065-0.067-0.097-0.102    c-0.028-0.034-0.066-0.068-0.098-0.104c-0.027-0.035-0.066-0.068-0.098-0.104c-0.027-0.033-0.064-0.065-0.093-0.098    c-0.06-0.07-0.134-0.139-0.197-0.208c-0.028-0.034-0.065-0.067-0.095-0.101c-0.029-0.035-0.068-0.069-0.1-0.104    c-0.028-0.035-0.067-0.069-0.098-0.104c-0.027-0.032-0.064-0.064-0.093-0.097c-0.029-0.036-0.067-0.071-0.101-0.107    c-0.027-0.034-0.065-0.068-0.097-0.103c-0.028-0.035-0.067-0.069-0.099-0.104c-0.027-0.034-0.065-0.067-0.096-0.101    c-0.028-0.034-0.066-0.068-0.097-0.102c-0.028-0.034-0.065-0.066-0.095-0.1c-0.029-0.036-0.068-0.071-0.1-0.106    c-0.028-0.035-0.067-0.069-0.1-0.104c-0.027-0.034-0.064-0.066-0.095-0.1c-0.028-0.034-0.065-0.068-0.097-0.103    c-0.027-0.033-0.064-0.066-0.094-0.1c-0.031-0.036-0.07-0.072-0.103-0.108c-0.028-0.035-0.067-0.068-0.097-0.103    c-0.027-0.033-0.064-0.065-0.094-0.098c-0.029-0.035-0.066-0.07-0.099-0.105c-0.028-0.034-0.065-0.067-0.097-0.102    c-0.028-0.036-0.068-0.072-0.102-0.108c-0.027-0.033-0.064-0.066-0.095-0.099c-0.027-0.034-0.065-0.067-0.097-0.102    c-0.026-0.033-0.063-0.065-0.092-0.099c-0.031-0.036-0.07-0.072-0.102-0.108c-0.029-0.035-0.068-0.07-0.1-0.105    c-0.027-0.033-0.064-0.065-0.095-0.099c-0.026-0.034-0.065-0.067-0.095-0.1c-0.027-0.035-0.066-0.07-0.098-0.104    c-0.029-0.036-0.068-0.071-0.101-0.106c-0.026-0.034-0.065-0.067-0.095-0.1c-0.027-0.035-0.066-0.068-0.098-0.103    c-0.027-0.033-0.064-0.066-0.094-0.099c-0.058-0.069-0.133-0.137-0.195-0.206c-0.028-0.036-0.067-0.07-0.098-0.105    c-0.029-0.034-0.066-0.068-0.098-0.102c-0.027-0.034-0.066-0.068-0.098-0.103c-0.027-0.035-0.066-0.069-0.098-0.104    c-0.027-0.034-0.064-0.066-0.094-0.1c-0.029-0.037-0.07-0.072-0.104-0.108c-0.025-0.032-0.062-0.063-0.088-0.094    c-0.031-0.036-0.07-0.072-0.103-0.108c-0.026-0.034-0.065-0.066-0.095-0.1c-0.029-0.036-0.069-0.071-0.102-0.107    c-0.027-0.033-0.064-0.066-0.095-0.1c-0.026-0.033-0.063-0.066-0.095-0.099c-0.028-0.035-0.066-0.07-0.098-0.104    c-0.029-0.036-0.07-0.071-0.102-0.107c-0.027-0.033-0.064-0.065-0.094-0.099c-0.027-0.034-0.065-0.066-0.094-0.1    c-0.031-0.036-0.069-0.071-0.102-0.106c-0.027-0.034-0.066-0.067-0.096-0.102c-0.028-0.034-0.066-0.068-0.096-0.102    c-0.029-0.035-0.067-0.069-0.099-0.104c-0.028-0.034-0.065-0.067-0.097-0.102c-0.028-0.035-0.067-0.069-0.098-0.104    c-0.029-0.035-0.068-0.069-0.099-0.104c-0.028-0.033-0.065-0.066-0.095-0.1c-0.029-0.035-0.068-0.069-0.1-0.104    c-0.027-0.034-0.064-0.067-0.095-0.101c-0.028-0.035-0.067-0.068-0.097-0.103s-0.067-0.068-0.098-0.102    c-0.029-0.035-0.066-0.069-0.098-0.104c-0.027-0.034-0.066-0.068-0.096-0.102c-0.029-0.035-0.067-0.069-0.098-0.104    c-0.029-0.035-0.067-0.069-0.099-0.104c-0.028-0.034-0.065-0.066-0.095-0.1c-0.03-0.036-0.069-0.071-0.102-0.107    c-0.027-0.032-0.063-0.063-0.091-0.096c-0.03-0.035-0.067-0.07-0.099-0.105c-0.029-0.035-0.069-0.07-0.1-0.105    c-0.029-0.034-0.066-0.067-0.097-0.101c-0.028-0.034-0.065-0.067-0.096-0.101c-0.028-0.034-0.066-0.068-0.097-0.103    c-0.029-0.035-0.068-0.069-0.1-0.104c-0.027-0.034-0.066-0.067-0.096-0.101c-0.029-0.035-0.068-0.07-0.1-0.105    c-0.027-0.032-0.063-0.064-0.092-0.097c-0.029-0.036-0.068-0.071-0.101-0.107c-0.028-0.034-0.065-0.066-0.095-0.1    c-0.029-0.036-0.069-0.071-0.102-0.107c-0.027-0.033-0.064-0.065-0.093-0.098c-0.029-0.035-0.067-0.069-0.099-0.104    c-0.028-0.035-0.067-0.07-0.1-0.105c-0.027-0.034-0.064-0.066-0.095-0.1c-0.028-0.034-0.066-0.068-0.097-0.103    c-0.028-0.034-0.066-0.068-0.097-0.102c-0.028-0.035-0.067-0.069-0.098-0.104c-0.028-0.034-0.065-0.067-0.095-0.101    c-0.03-0.036-0.069-0.071-0.102-0.107c-0.027-0.033-0.064-0.065-0.093-0.097c-0.029-0.035-0.068-0.07-0.099-0.105    c-0.029-0.036-0.068-0.07-0.101-0.105c-0.026-0.032-0.063-0.064-0.091-0.096c-0.03-0.037-0.07-0.072-0.102-0.108    c-0.028-0.034-0.066-0.068-0.097-0.102c-0.028-0.034-0.065-0.067-0.096-0.101c-0.028-0.035-0.065-0.069-0.097-0.103    c-0.029-0.035-0.068-0.07-0.1-0.105c-0.027-0.034-0.066-0.067-0.096-0.101c-0.028-0.035-0.067-0.069-0.098-0.104    c-0.028-0.033-0.065-0.066-0.095-0.1c-0.028-0.035-0.067-0.069-0.099-0.104c-0.029-0.035-0.068-0.07-0.1-0.105    c-0.027-0.033-0.065-0.066-0.095-0.1c-0.028-0.035-0.067-0.068-0.098-0.103c-0.027-0.033-0.063-0.066-0.093-0.099    c-0.031-0.037-0.071-0.073-0.104-0.11c-0.026-0.032-0.063-0.064-0.092-0.096c-0.029-0.036-0.067-0.071-0.101-0.107    c-0.027-0.034-0.065-0.066-0.095-0.1c-0.028-0.035-0.067-0.069-0.098-0.104c-0.028-0.034-0.065-0.067-0.095-0.101    c-0.03-0.036-0.07-0.072-0.104-0.108c-0.025-0.032-0.063-0.064-0.091-0.096c-0.029-0.035-0.067-0.069-0.099-0.104    c-0.028-0.036-0.068-0.071-0.101-0.106c-0.026-0.033-0.063-0.065-0.092-0.097c-0.03-0.036-0.069-0.072-0.101-0.108    c-0.028-0.033-0.066-0.066-0.097-0.1c-0.028-0.034-0.065-0.067-0.096-0.101c-0.028-0.035-0.067-0.069-0.099-0.104    C37.439,19.434,37.232,19.216,37,19c-1.521-1.39-3.146-2-5-2h-1c-3.374,0.194-7.191,1.653-7.985,5.827    c-0.078,0.31,0.031,0.498,0.183,0.62c0.029,0.039,0.06,0.073,0.097,0.103c0.029,0.039,0.06,0.073,0.097,0.103    c0.03,0.039,0.061,0.073,0.098,0.103c0.029,0.039,0.06,0.072,0.096,0.102c0.029,0.039,0.06,0.073,0.096,0.103    c0.03,0.04,0.061,0.073,0.098,0.104c0.029,0.039,0.06,0.072,0.097,0.102c0.029,0.039,0.06,0.073,0.097,0.103    c0.029,0.039,0.059,0.072,0.096,0.102c0.03,0.04,0.061,0.074,0.098,0.104c0.029,0.039,0.06,0.072,0.096,0.102    c0.029,0.039,0.06,0.073,0.097,0.103c0.029,0.039,0.06,0.073,0.097,0.103c0.029,0.039,0.06,0.073,0.097,0.103    c0.029,0.039,0.06,0.072,0.096,0.102c0.029,0.039,0.06,0.073,0.097,0.103c0.029,0.039,0.06,0.073,0.097,0.103    c0.029,0.039,0.06,0.073,0.097,0.103c0.029,0.039,0.06,0.073,0.097,0.103c0.029,0.039,0.059,0.073,0.096,0.102    c0.029,0.04,0.06,0.074,0.097,0.104c0.029,0.039,0.06,0.072,0.097,0.102c0.029,0.039,0.06,0.073,0.096,0.103    c0.029,0.039,0.06,0.073,0.097,0.103c0.029,0.039,0.06,0.073,0.097,0.103c0.029,0.039,0.06,0.073,0.097,0.103    c0.029,0.039,0.06,0.072,0.096,0.102c0.029,0.039,0.06,0.073,0.097,0.103c0.029,0.039,0.06,0.072,0.096,0.102    c0.029,0.039,0.06,0.073,0.097,0.103c0.029,0.039,0.06,0.073,0.097,0.103c0.029,0.039,0.06,0.072,0.097,0.102    c0.029,0.039,0.06,0.073,0.097,0.103c0.001,0.001,0.001,0.003,0.002,0.005c-0.13,0.054-0.275,0.109-0.393,0.163    c-2.409,1.088-4,2.887-4,6c0,1.761,0.576,3.147,1.495,4.146c0.031,0.035,0.065,0.068,0.098,0.104    c0.031,0.035,0.064,0.066,0.095,0.101c0.031,0.035,0.065,0.068,0.097,0.104c0.031,0.036,0.065,0.068,0.098,0.104    c0.032,0.037,0.066,0.069,0.099,0.104c0.03,0.034,0.063,0.065,0.094,0.101c0.031,0.035,0.065,0.068,0.098,0.104    c0.031,0.036,0.066,0.068,0.098,0.104c0.029,0.033,0.061,0.063,0.091,0.097c0.033,0.038,0.068,0.073,0.102,0.108    c0.03,0.034,0.063,0.066,0.094,0.101c0.032,0.036,0.067,0.071,0.101,0.106c0.03,0.034,0.062,0.064,0.093,0.098    c0.031,0.035,0.063,0.068,0.095,0.103c0.033,0.037,0.068,0.071,0.102,0.106c0.029,0.033,0.061,0.063,0.09,0.097    c0.033,0.038,0.068,0.072,0.102,0.108c0.031,0.035,0.064,0.066,0.096,0.102c0.031,0.036,0.065,0.068,0.098,0.104    c0.031,0.035,0.064,0.067,0.096,0.103c0.03,0.034,0.063,0.065,0.093,0.101c0.033,0.037,0.067,0.07,0.101,0.105    c0.03,0.035,0.063,0.064,0.093,0.1c0.032,0.036,0.067,0.07,0.1,0.105c0.03,0.035,0.063,0.066,0.095,0.102    c0.032,0.036,0.066,0.069,0.099,0.104c0.031,0.034,0.064,0.065,0.096,0.101c0.03,0.034,0.063,0.065,0.093,0.1    c0.033,0.037,0.068,0.072,0.102,0.107c0.031,0.035,0.064,0.066,0.095,0.102c0.031,0.035,0.064,0.066,0.096,0.102    c0.031,0.036,0.065,0.068,0.098,0.104c0.031,0.035,0.064,0.066,0.096,0.102c0.032,0.036,0.066,0.068,0.099,0.105    c0.031,0.035,0.064,0.065,0.095,0.101c0.031,0.035,0.065,0.067,0.097,0.103c0.03,0.034,0.063,0.066,0.095,0.102    c0.032,0.035,0.066,0.068,0.099,0.104c0.032,0.036,0.066,0.069,0.099,0.104c0.03,0.034,0.064,0.065,0.096,0.103    c0.03,0.033,0.063,0.064,0.093,0.098c0.032,0.037,0.067,0.07,0.1,0.106c0.031,0.036,0.065,0.068,0.098,0.104    c0.03,0.033,0.063,0.064,0.094,0.1c0.033,0.037,0.068,0.071,0.102,0.107c0.029,0.033,0.062,0.063,0.092,0.097    c0.032,0.037,0.067,0.071,0.1,0.106c0.03,0.033,0.063,0.064,0.093,0.099c0.032,0.036,0.066,0.069,0.099,0.104    c0.032,0.037,0.066,0.069,0.099,0.104c0.031,0.035,0.064,0.065,0.096,0.103c0.029,0.032,0.062,0.063,0.092,0.098    c0.032,0.037,0.067,0.07,0.101,0.107c0.031,0.035,0.065,0.067,0.098,0.104c0.03,0.033,0.062,0.064,0.092,0.098    c0.033,0.037,0.068,0.071,0.102,0.107c0.03,0.035,0.063,0.066,0.095,0.101c0.031,0.035,0.064,0.067,0.096,0.103    c0.031,0.035,0.065,0.067,0.098,0.104c0.031,0.036,0.065,0.068,0.098,0.104c0.031,0.035,0.064,0.067,0.096,0.102    c0.031,0.036,0.064,0.068,0.096,0.104c0.031,0.035,0.065,0.067,0.097,0.104c0.031,0.035,0.065,0.068,0.097,0.104    c0.03,0.033,0.062,0.064,0.092,0.098c0.03,0.035,0.063,0.066,0.094,0.102c-3.17-0.439-8.133-2.49-11.726-4.486    c-0.142-0.073-0.285-0.112-0.427-0.112c-0.183,0-0.369,0.067-0.505,0.194C17.082,39.634,17,39.82,17.001,40.01    c0,0.246,0.133,0.471,0.316,0.616c0.012,0.011,0.025,0.021,0.037,0.031c0.022,0.022,0.036,0.052,0.06,0.071    c0.012,0.011,0.025,0.021,0.038,0.03c0.022,0.022,0.035,0.054,0.059,0.071c0.013,0.011,0.026,0.021,0.039,0.033    c0.021,0.021,0.035,0.051,0.058,0.068c0.012,0.012,0.025,0.021,0.037,0.031c0.022,0.021,0.035,0.053,0.06,0.071    c0.012,0.011,0.025,0.021,0.037,0.03c0.022,0.021,0.036,0.053,0.06,0.071c0.012,0.011,0.025,0.021,0.037,0.031    c0.022,0.022,0.036,0.052,0.06,0.071c0.011,0.01,0.023,0.02,0.035,0.029c0.022,0.022,0.037,0.055,0.062,0.073    c0.013,0.013,0.027,0.022,0.04,0.034c0.021,0.021,0.034,0.049,0.057,0.066c0.012,0.012,0.025,0.021,0.038,0.033    c0.022,0.021,0.035,0.051,0.059,0.069c0.013,0.011,0.026,0.021,0.039,0.033c0.021,0.021,0.035,0.051,0.058,0.069    c0.012,0.011,0.025,0.021,0.037,0.03c0.022,0.021,0.036,0.052,0.06,0.071c0.012,0.01,0.024,0.021,0.036,0.029    c0.023,0.022,0.037,0.055,0.062,0.074c0.013,0.01,0.026,0.021,0.038,0.031c0.021,0.021,0.035,0.051,0.058,0.069    c0.011,0.01,0.023,0.021,0.035,0.028c0.023,0.023,0.037,0.056,0.062,0.074c0.013,0.012,0.026,0.021,0.039,0.033    c0.022,0.021,0.035,0.051,0.059,0.069c0.013,0.011,0.025,0.021,0.038,0.032c0.021,0.021,0.035,0.051,0.058,0.068    c0.012,0.012,0.024,0.021,0.036,0.03c0.022,0.022,0.036,0.054,0.061,0.073c0.012,0.011,0.025,0.021,0.037,0.031    c0.022,0.021,0.036,0.051,0.06,0.07c0.012,0.012,0.025,0.021,0.037,0.031c0.022,0.021,0.036,0.052,0.06,0.07    c0.013,0.012,0.026,0.022,0.039,0.033c0.021,0.021,0.035,0.051,0.058,0.069c0.012,0.011,0.025,0.021,0.038,0.032    c0.022,0.021,0.035,0.051,0.059,0.068c0.012,0.01,0.024,0.021,0.036,0.03c0.022,0.022,0.036,0.054,0.061,0.073    c0.012,0.011,0.025,0.021,0.037,0.031c0.022,0.021,0.036,0.052,0.06,0.07c0.012,0.012,0.024,0.021,0.036,0.03    c0.022,0.022,0.036,0.054,0.06,0.072c0.013,0.011,0.026,0.021,0.039,0.032c0.022,0.021,0.035,0.052,0.059,0.069    c0.012,0.011,0.025,0.021,0.037,0.031c0.022,0.022,0.036,0.052,0.06,0.071c0.013,0.011,0.026,0.021,0.039,0.033    c0.022,0.021,0.035,0.051,0.059,0.068c0.012,0.012,0.025,0.021,0.037,0.031c0.022,0.021,0.036,0.052,0.06,0.07    c0.012,0.012,0.025,0.021,0.037,0.031c0.022,0.021,0.036,0.053,0.06,0.071c0.012,0.011,0.025,0.021,0.037,0.031    c0.022,0.022,0.036,0.052,0.06,0.071c0.012,0.011,0.025,0.021,0.038,0.031c0.022,0.021,0.035,0.053,0.059,0.07    c0.012,0.011,0.025,0.021,0.037,0.031c0.022,0.021,0.036,0.052,0.06,0.07c0.012,0.012,0.025,0.021,0.037,0.031    c0.022,0.021,0.036,0.053,0.06,0.071c0.012,0.011,0.025,0.021,0.037,0.03c0.022,0.022,0.036,0.053,0.06,0.071    c0.012,0.011,0.024,0.021,0.036,0.031c0.023,0.021,0.037,0.054,0.061,0.071c0.013,0.012,0.026,0.021,0.039,0.033    c0.021,0.021,0.035,0.052,0.059,0.069c0.013,0.011,0.026,0.021,0.038,0.032c0.021,0.021,0.035,0.051,0.058,0.068    c0.012,0.012,0.024,0.021,0.037,0.031c0.022,0.021,0.036,0.053,0.06,0.071c0.012,0.011,0.025,0.021,0.038,0.032    c0.022,0.021,0.036,0.052,0.06,0.07c0.012,0.01,0.024,0.021,0.036,0.029c0.022,0.022,0.036,0.053,0.061,0.072    c0.012,0.011,0.024,0.021,0.036,0.031c0.022,0.021,0.037,0.053,0.061,0.072c0.012,0.01,0.025,0.021,0.038,0.031    c0.022,0.021,0.035,0.053,0.059,0.07c0.012,0.011,0.025,0.021,0.038,0.031c0.022,0.021,0.035,0.052,0.059,0.07    c0.012,0.012,0.025,0.021,0.038,0.032c0.022,0.021,0.035,0.052,0.059,0.07c0.012,0.011,0.025,0.021,0.038,0.032    c0.022,0.021,0.035,0.052,0.059,0.069c0.013,0.011,0.026,0.021,0.039,0.033c0.022,0.021,0.035,0.051,0.059,0.069    c0.012,0.011,0.025,0.021,0.037,0.031c0.022,0.021,0.036,0.051,0.06,0.07c0.013,0.012,0.026,0.021,0.038,0.032    c0.021,0.021,0.035,0.051,0.058,0.069c0.012,0.01,0.024,0.021,0.036,0.029c0.022,0.022,0.036,0.055,0.061,0.073    c0.012,0.011,0.025,0.021,0.037,0.031c0.022,0.021,0.036,0.052,0.06,0.071c0.013,0.01,0.026,0.021,0.039,0.032    c0.021,0.021,0.035,0.052,0.058,0.069c0.012,0.011,0.025,0.021,0.037,0.031c0.022,0.021,0.036,0.052,0.06,0.07    c0.012,0.012,0.025,0.021,0.037,0.031c0.022,0.021,0.036,0.053,0.06,0.071c0.012,0.011,0.025,0.021,0.037,0.03    c0.022,0.021,0.036,0.053,0.06,0.071c0.012,0.011,0.025,0.021,0.037,0.031c0.022,0.021,0.035,0.052,0.06,0.071    c0.012,0.011,0.025,0.021,0.037,0.031c0.022,0.021,0.036,0.051,0.06,0.07c0.012,0.012,0.025,0.021,0.037,0.031    c0.022,0.021,0.035,0.052,0.06,0.07c0.012,0.012,0.025,0.021,0.038,0.031c0.022,0.022,0.035,0.053,0.059,0.071    c0.013,0.011,0.026,0.022,0.039,0.033c0.021,0.021,0.035,0.051,0.058,0.069c0.011,0.01,0.023,0.02,0.035,0.028    c0.023,0.022,0.037,0.056,0.062,0.074c0.013,0.011,0.026,0.021,0.039,0.032c0.021,0.021,0.034,0.051,0.058,0.068    c0.013,0.012,0.026,0.021,0.039,0.033c0.021,0.021,0.035,0.051,0.058,0.069c0.013,0.011,0.026,0.021,0.038,0.032    c0.022,0.021,0.035,0.052,0.059,0.069c0.012,0.011,0.024,0.021,0.036,0.03c0.022,0.021,0.036,0.053,0.061,0.072    c0.012,0.011,0.025,0.021,0.037,0.031c0.022,0.021,0.036,0.051,0.06,0.07c0.013,0.012,0.026,0.021,0.039,0.033    c0.022,0.021,0.035,0.051,0.059,0.068c0.011,0.011,0.023,0.021,0.034,0.029c0.023,0.022,0.037,0.055,0.063,0.074    c0.012,0.012,0.025,0.021,0.037,0.031c0.022,0.021,0.036,0.052,0.06,0.07c0.013,0.013,0.027,0.022,0.04,0.035    c0.021,0.021,0.034,0.049,0.057,0.066c0.012,0.011,0.024,0.021,0.037,0.031c0.022,0.021,0.036,0.053,0.061,0.072    c0.012,0.01,0.024,0.021,0.036,0.029c0.022,0.021,0.036,0.053,0.061,0.072c0.013,0.012,0.027,0.021,0.04,0.033    c0.021,0.021,0.034,0.05,0.057,0.068c0.013,0.01,0.026,0.021,0.039,0.032c0.022,0.021,0.035,0.052,0.059,0.069    c0.011,0.01,0.023,0.02,0.034,0.029c0.023,0.021,0.038,0.055,0.063,0.073c0.013,0.011,0.026,0.021,0.039,0.033    c0.022,0.021,0.035,0.051,0.059,0.069c0.012,0.011,0.025,0.021,0.037,0.031c0.022,0.021,0.036,0.051,0.06,0.07    c0.012,0.012,0.025,0.021,0.037,0.031c0.022,0.021,0.036,0.052,0.06,0.07c0.012,0.011,0.024,0.021,0.036,0.03    c0.022,0.022,0.036,0.054,0.061,0.072c0.013,0.011,0.026,0.021,0.039,0.033c0.022,0.021,0.035,0.051,0.059,0.069    c0.013,0.01,0.026,0.021,0.039,0.032c0.022,0.021,0.035,0.052,0.059,0.069c0.011,0.01,0.023,0.02,0.035,0.029    c0.022,0.021,0.036,0.054,0.061,0.072c0.012,0.012,0.025,0.021,0.037,0.031c0.022,0.021,0.036,0.053,0.06,0.071    c0.013,0.011,0.026,0.021,0.039,0.032c0.022,0.021,0.035,0.052,0.059,0.069c0.012,0.011,0.025,0.021,0.037,0.031    c0.022,0.021,0.036,0.052,0.06,0.071c0.012,0.01,0.024,0.021,0.036,0.029c0.022,0.022,0.036,0.053,0.061,0.072    c0.012,0.012,0.025,0.021,0.038,0.032c0.022,0.021,0.035,0.052,0.059,0.069c0.013,0.013,0.027,0.022,0.04,0.035    c0.021,0.021,0.034,0.049,0.058,0.067c0.012,0.011,0.024,0.021,0.036,0.03c0.022,0.021,0.036,0.053,0.061,0.072    c0.012,0.01,0.025,0.021,0.037,0.03c0.022,0.021,0.036,0.052,0.06,0.071c0.012,0.011,0.025,0.021,0.037,0.031    c0.022,0.021,0.036,0.052,0.06,0.07c0.012,0.012,0.025,0.021,0.037,0.031c0.022,0.021,0.036,0.053,0.06,0.071    c0.012,0.011,0.025,0.021,0.037,0.03c0.022,0.021,0.036,0.053,0.06,0.071c0.012,0.011,0.025,0.021,0.037,0.031    c0.022,0.021,0.036,0.053,0.06,0.071c0.012,0.011,0.025,0.021,0.037,0.031c0.022,0.021,0.036,0.051,0.06,0.07    c0.011,0.01,0.023,0.02,0.035,0.029c0.022,0.023,0.037,0.055,0.062,0.074c0.013,0.011,0.026,0.021,0.039,0.033    c0.021,0.021,0.035,0.051,0.058,0.068c0.012,0.012,0.025,0.021,0.038,0.032c0.022,0.021,0.035,0.051,0.059,0.069    c0.012,0.012,0.025,0.021,0.038,0.033c0.022,0.021,0.035,0.051,0.059,0.068c0.012,0.011,0.024,0.021,0.037,0.031    c0.022,0.021,0.036,0.053,0.061,0.072c0.013,0.01,0.026,0.021,0.039,0.032c0.022,0.021,0.035,0.052,0.059,0.069    c0.012,0.011,0.025,0.021,0.037,0.031c0.022,0.021,0.036,0.052,0.06,0.07c0.013,0.012,0.026,0.021,0.038,0.032    c0.022,0.021,0.035,0.052,0.058,0.069c0.012,0.01,0.024,0.021,0.036,0.029c0.023,0.022,0.037,0.055,0.062,0.073    c0.013,0.011,0.026,0.021,0.039,0.032c0.022,0.021,0.035,0.052,0.059,0.07c0.012,0.01,0.024,0.02,0.035,0.029    c0.023,0.021,0.037,0.053,0.061,0.072c0.012,0.012,0.025,0.021,0.037,0.031c0.022,0.021,0.036,0.052,0.06,0.07    c0.012,0.012,0.025,0.021,0.038,0.033c0.022,0.021,0.035,0.051,0.059,0.069c0.012,0.011,0.025,0.021,0.038,0.032    c0.022,0.021,0.035,0.052,0.059,0.07c0.012,0.01,0.025,0.021,0.037,0.03c0.022,0.022,0.036,0.052,0.06,0.071    c0.012,0.011,0.025,0.021,0.037,0.031c0.022,0.021,0.036,0.052,0.06,0.07c0.013,0.012,0.027,0.022,0.04,0.034    c0.021,0.021,0.034,0.05,0.058,0.068c0.011,0.01,0.023,0.02,0.034,0.028c0.023,0.022,0.037,0.056,0.063,0.074    c0.013,0.012,0.026,0.022,0.039,0.033c0.021,0.021,0.034,0.05,0.058,0.068c0.012,0.011,0.025,0.021,0.037,0.031    c0.022,0.021,0.036,0.051,0.06,0.07c0.012,0.012,0.024,0.021,0.037,0.031c0.022,0.021,0.036,0.052,0.06,0.07    c0.012,0.011,0.023,0.021,0.035,0.029c0.022,0.023,0.037,0.055,0.062,0.074c0.013,0.012,0.026,0.021,0.04,0.033    c0.021,0.021,0.034,0.05,0.057,0.068c0.012,0.01,0.025,0.021,0.037,0.03c0.022,0.021,0.036,0.052,0.06,0.071    c0.012,0.011,0.025,0.021,0.037,0.031c0.022,0.021,0.036,0.052,0.06,0.07c0.012,0.012,0.024,0.021,0.036,0.031    c0.023,0.021,0.037,0.053,0.061,0.072c0.012,0.011,0.025,0.021,0.038,0.031c0.022,0.021,0.035,0.052,0.059,0.07    c0.012,0.012,0.024,0.021,0.036,0.03c0.022,0.022,0.036,0.053,0.06,0.071c0.013,0.013,0.027,0.023,0.041,0.035    c0.021,0.021,0.033,0.049,0.056,0.066c0.012,0.01,0.024,0.021,0.036,0.03c0.023,0.022,0.037,0.054,0.062,0.073    c0.013,0.011,0.026,0.021,0.039,0.033c0.021,0.021,0.034,0.049,0.058,0.067c0.012,0.011,0.023,0.021,0.035,0.03    c0.022,0.021,0.037,0.053,0.061,0.072c0.012,0.011,0.025,0.021,0.038,0.031c0.022,0.021,0.036,0.053,0.06,0.07    c0.012,0.01,0.024,0.021,0.036,0.029c0.022,0.022,0.036,0.055,0.061,0.074c0.012,0.01,0.024,0.02,0.035,0.029    c0.023,0.021,0.037,0.053,0.061,0.072c0.012,0.011,0.025,0.021,0.037,0.031c0.022,0.021,0.036,0.052,0.06,0.07    c0.012,0.012,0.025,0.021,0.037,0.031c0.022,0.021,0.036,0.053,0.06,0.071c0.012,0.011,0.025,0.021,0.038,0.032    c0.022,0.021,0.035,0.052,0.059,0.069c0.012,0.011,0.025,0.021,0.038,0.032c0.022,0.021,0.035,0.052,0.059,0.07    c0.012,0.011,0.025,0.021,0.037,0.031c0.022,0.021,0.036,0.051,0.06,0.07c0.013,0.012,0.027,0.021,0.04,0.034    c0.021,0.021,0.034,0.05,0.058,0.067c0.012,0.012,0.024,0.021,0.037,0.031c0.022,0.021,0.036,0.053,0.06,0.071    c0.012,0.011,0.025,0.021,0.037,0.03c0.022,0.021,0.036,0.053,0.06,0.072c0.012,0.01,0.025,0.021,0.037,0.03    c0.022,0.021,0.036,0.052,0.06,0.071c0.012,0.011,0.025,0.021,0.037,0.031c0.022,0.021,0.036,0.052,0.06,0.07    c0.012,0.012,0.025,0.021,0.037,0.031c0.022,0.021,0.036,0.053,0.06,0.071c0.012,0.011,0.025,0.021,0.037,0.03    c0.022,0.021,0.036,0.053,0.06,0.071c0.012,0.011,0.025,0.021,0.037,0.031c0.022,0.021,0.036,0.052,0.06,0.071    c0.012,0.011,0.025,0.021,0.037,0.031c0.022,0.021,0.036,0.051,0.06,0.07c0.013,0.012,0.025,0.021,0.038,0.032    c0.022,0.021,0.035,0.052,0.059,0.069c0.012,0.012,0.025,0.021,0.037,0.031c0.022,0.021,0.036,0.053,0.06,0.071    c0.011,0.01,0.023,0.021,0.035,0.03c0.022,0.021,0.036,0.053,0.061,0.072c0.012,0.01,0.024,0.021,0.037,0.03    c0.022,0.022,0.036,0.054,0.061,0.072c0.013,0.011,0.026,0.021,0.039,0.032c0.021,0.021,0.035,0.052,0.059,0.07    c0.012,0.01,0.025,0.021,0.037,0.03c0.022,0.022,0.036,0.052,0.06,0.071c0.013,0.011,0.025,0.021,0.038,0.031    c0.021,0.021,0.035,0.052,0.058,0.069c0.012,0.011,0.024,0.021,0.036,0.03c0.023,0.021,0.037,0.054,0.062,0.072    c0.013,0.012,0.026,0.021,0.039,0.033c0.021,0.021,0.034,0.051,0.058,0.068c0.011,0.01,0.023,0.02,0.034,0.029    c0.023,0.021,0.037,0.054,0.063,0.074c0.012,0.011,0.025,0.021,0.037,0.031c0.022,0.021,0.036,0.051,0.06,0.07    c0.013,0.012,0.026,0.021,0.039,0.032c0.022,0.021,0.035,0.052,0.059,0.069c0.012,0.01,0.024,0.021,0.036,0.03    c0.022,0.022,0.036,0.054,0.061,0.072c0.013,0.011,0.026,0.022,0.039,0.032c0.021,0.021,0.035,0.052,0.059,0.07    c0.012,0.01,0.024,0.021,0.037,0.03c0.021,0.021,0.035,0.052,0.06,0.071c0.012,0.01,0.024,0.021,0.036,0.029    c0.021,0.022,0.035,0.054,0.061,0.072c0.014,0.012,0.027,0.022,0.04,0.034c0.021,0.021,0.034,0.05,0.058,0.067    c0.013,0.011,0.024,0.021,0.037,0.031c0.021,0.021,0.035,0.053,0.061,0.071c0.013,0.011,0.025,0.021,0.039,0.032    c0.021,0.021,0.035,0.052,0.059,0.07c0.012,0.011,0.023,0.021,0.037,0.031c0.021,0.021,0.035,0.051,0.061,0.07    c0.012,0.012,0.023,0.021,0.037,0.031c0.021,0.021,0.034,0.052,0.06,0.07c0.012,0.012,0.024,0.021,0.036,0.031    c0.021,0.021,0.035,0.053,0.061,0.071c0.012,0.011,0.023,0.021,0.037,0.03c0.021,0.021,0.035,0.053,0.061,0.072    c0.012,0.01,0.024,0.021,0.037,0.03c0.021,0.022,0.034,0.052,0.06,0.071c0.012,0.011,0.024,0.021,0.036,0.031    c0.022,0.021,0.035,0.052,0.061,0.07c0.014,0.012,0.025,0.021,0.037,0.032c0.021,0.021,0.036,0.052,0.061,0.07    c0.012,0.011,0.023,0.021,0.037,0.03c0.021,0.021,0.034,0.053,0.06,0.071c0.013,0.013,0.026,0.022,0.04,0.034    c0.021,0.021,0.033,0.05,0.058,0.068c0.011,0.01,0.022,0.02,0.034,0.027c0.021,0.023,0.036,0.055,0.063,0.074    c0.012,0.012,0.025,0.021,0.039,0.033c0.021,0.021,0.034,0.051,0.059,0.068c0.012,0.011,0.023,0.021,0.033,0.029    c0.022,0.022,0.037,0.055,0.063,0.073c0.014,0.013,0.025,0.022,0.04,0.034c0.021,0.021,0.034,0.05,0.058,0.068    c0.012,0.01,0.023,0.02,0.035,0.028c0.022,0.022,0.036,0.056,0.063,0.074c0.013,0.011,0.025,0.022,0.039,0.032    c0.021,0.021,0.033,0.051,0.058,0.068c0.013,0.01,0.022,0.021,0.034,0.029c0.023,0.021,0.037,0.055,0.063,0.074    c0.014,0.011,0.026,0.021,0.039,0.033c0.021,0.021,0.034,0.05,0.059,0.067c0.011,0.011,0.021,0.021,0.033,0.029    c0.023,0.022,0.037,0.054,0.063,0.073c0.013,0.012,0.024,0.021,0.037,0.031c0.021,0.021,0.035,0.053,0.06,0.071    c0.014,0.013,0.027,0.022,0.041,0.034c0.021,0.021,0.033,0.05,0.058,0.068c0.011,0.01,0.022,0.02,0.034,0.027    c0.021,0.023,0.035,0.055,0.062,0.074c0.015,0.012,0.026,0.021,0.041,0.034c0.021,0.021,0.033,0.05,0.058,0.067    c0.012,0.01,0.022,0.021,0.033,0.029c0.022,0.021,0.037,0.055,0.063,0.073c0.014,0.012,0.027,0.022,0.039,0.034    c0.021,0.021,0.035,0.05,0.059,0.068c0.012,0.01,0.023,0.021,0.037,0.03c0.021,0.021,0.035,0.052,0.061,0.071    c0.012,0.011,0.023,0.021,0.037,0.031c0.021,0.021,0.034,0.052,0.059,0.07c0.013,0.012,0.025,0.021,0.037,0.031    c0.021,0.021,0.035,0.053,0.061,0.07c0.012,0.012,0.023,0.021,0.037,0.031c0.021,0.021,0.035,0.053,0.061,0.071    c0.012,0.011,0.024,0.021,0.037,0.031c0.021,0.022,0.034,0.052,0.059,0.071c0.013,0.011,0.025,0.021,0.037,0.031    c0.022,0.021,0.035,0.051,0.061,0.07c0.012,0.012,0.025,0.021,0.037,0.031c0.021,0.021,0.035,0.052,0.061,0.07    c0.012,0.012,0.024,0.021,0.036,0.031c0.022,0.022,0.035,0.053,0.06,0.071c0.015,0.012,0.027,0.022,0.041,0.034    c0.021,0.021,0.033,0.05,0.058,0.068c0.011,0.01,0.022,0.019,0.033,0.027c0.022,0.021,0.036,0.055,0.063,0.074    c0.014,0.012,0.026,0.021,0.039,0.033c0.021,0.021,0.034,0.051,0.059,0.068c0.011,0.01,0.021,0.021,0.033,0.028    c0.022,0.022,0.037,0.056,0.063,0.074c0.014,0.012,0.027,0.022,0.04,0.034c0.021,0.021,0.034,0.05,0.058,0.067    c0.012,0.011,0.024,0.021,0.037,0.031c0.021,0.021,0.035,0.052,0.061,0.071c0.012,0.011,0.023,0.021,0.037,0.031    c0.021,0.021,0.035,0.051,0.06,0.07c0.013,0.012,0.024,0.021,0.036,0.031c0.021,0.021,0.035,0.052,0.061,0.07    c0.012,0.011,0.023,0.021,0.034,0.029c0.022,0.022,0.037,0.055,0.063,0.074c0.013,0.012,0.025,0.021,0.039,0.033    c0.021,0.021,0.033,0.05,0.058,0.068c0.011,0.01,0.022,0.02,0.034,0.028c0.023,0.022,0.037,0.054,0.063,0.074    c0.014,0.012,0.028,0.022,0.043,0.035c0.021,0.021,0.032,0.049,0.055,0.065c0.012,0.01,0.021,0.019,0.031,0.026    c0.023,0.024,0.039,0.058,0.064,0.077c0.014,0.012,0.027,0.021,0.04,0.033c0.021,0.021,0.034,0.051,0.058,0.068    c0.012,0.01,0.022,0.021,0.034,0.029c0.022,0.021,0.037,0.054,0.062,0.072c0.015,0.013,0.027,0.022,0.041,0.035    c0.021,0.021,0.033,0.049,0.058,0.067c0.012,0.011,0.024,0.021,0.037,0.031c0.021,0.021,0.034,0.052,0.06,0.071    c0.012,0.011,0.024,0.021,0.037,0.031c0.021,0.021,0.035,0.051,0.061,0.07c0.012,0.012,0.023,0.021,0.037,0.031    c0.021,0.021,0.035,0.052,0.06,0.07c0.012,0.012,0.024,0.021,0.037,0.031c0.022,0.021,0.034,0.053,0.06,0.071    c0.012,0.011,0.024,0.021,0.037,0.03c0.021,0.021,0.035,0.053,0.061,0.072c0.012,0.01,0.023,0.021,0.037,0.03    c0.021,0.021,0.035,0.052,0.06,0.071c0.013,0.011,0.024,0.021,0.037,0.031c0.022,0.021,0.036,0.053,0.06,0.07    c0.012,0.012,0.024,0.021,0.037,0.031c0.021,0.021,0.035,0.052,0.061,0.07c0.014,0.013,0.026,0.022,0.039,0.035    c0.021,0.021,0.035,0.05,0.059,0.067c0.011,0.011,0.021,0.021,0.034,0.028c0.022,0.023,0.036,0.055,0.062,0.074    c0.014,0.012,0.027,0.021,0.04,0.033c0.021,0.021,0.034,0.051,0.058,0.068c0.013,0.01,0.023,0.02,0.035,0.029    c0.021,0.021,0.037,0.054,0.062,0.072c0.014,0.013,0.026,0.022,0.04,0.035c0.021,0.021,0.033,0.049,0.058,0.067    c0.013,0.011,0.024,0.021,0.037,0.03c0.021,0.021,0.035,0.053,0.06,0.072c0.013,0.01,0.024,0.021,0.037,0.03    c0.021,0.021,0.035,0.052,0.061,0.071c0.012,0.011,0.023,0.021,0.037,0.031c0.021,0.021,0.035,0.052,0.06,0.07    c0.013,0.012,0.024,0.021,0.037,0.031c0.022,0.021,0.035,0.053,0.06,0.071c0.013,0.011,0.024,0.021,0.037,0.03    c0.021,0.021,0.035,0.053,0.061,0.071c0.012,0.011,0.023,0.021,0.037,0.031c0.021,0.021,0.035,0.052,0.06,0.071    c0.013,0.01,0.023,0.02,0.035,0.029c0.022,0.022,0.036,0.055,0.062,0.073c0.014,0.013,0.026,0.022,0.041,0.034    c0.021,0.021,0.033,0.049,0.057,0.066c0.013,0.012,0.025,0.021,0.038,0.033c0.021,0.021,0.034,0.051,0.06,0.07    c0.012,0.01,0.022,0.02,0.034,0.027c0.022,0.023,0.036,0.056,0.062,0.074c0.015,0.013,0.027,0.022,0.041,0.034    c0.021,0.021,0.033,0.05,0.058,0.068c0.012,0.011,0.024,0.021,0.036,0.03c0.021,0.021,0.035,0.053,0.061,0.072    c0.014,0.01,0.025,0.021,0.037,0.03c0.021,0.022,0.035,0.052,0.061,0.071c0.012,0.011,0.023,0.021,0.037,0.031    c0.021,0.021,0.035,0.052,0.06,0.07c0.012,0.012,0.024,0.021,0.037,0.031c0.022,0.021,0.034,0.052,0.06,0.07    c0.012,0.012,0.024,0.021,0.037,0.031c0.021,0.021,0.035,0.053,0.061,0.071c0.012,0.011,0.023,0.021,0.037,0.031    c0.021,0.021,0.034,0.052,0.06,0.071c0.012,0.011,0.024,0.021,0.036,0.031c0.021,0.021,0.035,0.051,0.061,0.07    c0.012,0.012,0.024,0.021,0.037,0.031c0.021,0.021,0.035,0.052,0.061,0.07c0.013,0.013,0.025,0.022,0.039,0.033    c0.021,0.021,0.035,0.051,0.059,0.069c0.011,0.01,0.021,0.021,0.033,0.028c0.022,0.022,0.037,0.055,0.063,0.074    c0.014,0.012,0.026,0.021,0.04,0.033c0.021,0.021,0.034,0.051,0.058,0.068c0.012,0.01,0.022,0.019,0.035,0.027    c0.021,0.023,0.035,0.056,0.062,0.074c0.013,0.012,0.024,0.021,0.036,0.032c0.022,0.021,0.037,0.052,0.061,0.069    c0.014,0.013,0.027,0.022,0.04,0.035c0.021,0.021,0.034,0.049,0.058,0.067c0.013,0.011,0.024,0.021,0.037,0.031    c0.022,0.021,0.035,0.052,0.061,0.071c0.012,0.011,0.023,0.021,0.037,0.031c0.021,0.021,0.035,0.051,0.06,0.07    c0.013,0.012,0.024,0.021,0.037,0.031c0.022,0.021,0.035,0.052,0.06,0.07c0.013,0.012,0.024,0.021,0.037,0.031    c0.021,0.021,0.035,0.053,0.061,0.071c0.012,0.011,0.023,0.021,0.037,0.03c0.021,0.021,0.035,0.053,0.06,0.072    c0.013,0.01,0.024,0.021,0.037,0.03c0.021,0.021,0.035,0.052,0.06,0.071c0.013,0.011,0.024,0.021,0.037,0.031    c0.022,0.021,0.035,0.052,0.061,0.07c0.013,0.012,0.025,0.022,0.04,0.034c0.021,0.021,0.034,0.05,0.058,0.067    c0.012,0.01,0.021,0.019,0.031,0.027c0.023,0.023,0.038,0.057,0.064,0.076c0.012,0.012,0.024,0.021,0.037,0.032    c0.021,0.021,0.035,0.052,0.06,0.069c0.013,0.013,0.026,0.022,0.04,0.035c0.021,0.021,0.033,0.049,0.058,0.067    c0.013,0.011,0.024,0.021,0.037,0.031c0.022,0.021,0.035,0.052,0.06,0.071c0.014,0.011,0.025,0.021,0.037,0.031    c0.022,0.021,0.035,0.051,0.061,0.07c0.012,0.011,0.023,0.021,0.037,0.031c0.021,0.021,0.035,0.052,0.06,0.07    c0.013,0.012,0.024,0.021,0.037,0.031c0.022,0.021,0.035,0.053,0.06,0.071c0.012,0.011,0.024,0.021,0.037,0.03    c0.021,0.021,0.035,0.053,0.061,0.072c0.013,0.01,0.025,0.021,0.039,0.032c0.021,0.021,0.033,0.05,0.058,0.067    c0.013,0.012,0.024,0.021,0.036,0.031c0.021,0.021,0.036,0.053,0.061,0.071c0.012,0.011,0.024,0.021,0.037,0.031    c0.022,0.022,0.036,0.053,0.062,0.071c0.011,0.011,0.022,0.02,0.032,0.029c0.023,0.021,0.037,0.055,0.063,0.073    c0.013,0.011,0.024,0.021,0.037,0.031c0.021,0.021,0.035,0.052,0.06,0.071c0.014,0.012,0.027,0.021,0.041,0.033    c0.021,0.021,0.033,0.051,0.057,0.068c0.012,0.01,0.023,0.02,0.035,0.029c0.021,0.021,0.037,0.054,0.062,0.072    c0.013,0.012,0.026,0.022,0.04,0.034c0.021,0.021,0.034,0.05,0.059,0.068c0.012,0.011,0.023,0.021,0.037,0.03    c0.021,0.021,0.034,0.053,0.059,0.072c0.013,0.01,0.025,0.021,0.037,0.03c0.021,0.021,0.035,0.052,0.061,0.071    c0.012,0.011,0.023,0.021,0.037,0.031c0.021,0.021,0.035,0.051,0.061,0.07c0.012,0.012,0.023,0.021,0.037,0.031    c0.021,0.021,0.034,0.052,0.059,0.07c0.013,0.012,0.025,0.021,0.037,0.031c0.022,0.021,0.035,0.053,0.061,0.071    c0.012,0.011,0.023,0.021,0.037,0.031c0.021,0.021,0.035,0.052,0.061,0.071c0.012,0.011,0.023,0.021,0.036,0.03    c0.022,0.021,0.035,0.052,0.06,0.071c0.014,0.011,0.025,0.021,0.037,0.031c0.022,0.021,0.037,0.053,0.061,0.07    c0.012,0.012,0.023,0.021,0.037,0.031c0.021,0.021,0.035,0.053,0.061,0.071c0.012,0.011,0.023,0.021,0.036,0.03    c0.021,0.021,0.035,0.053,0.06,0.072c0.014,0.01,0.027,0.021,0.041,0.032c0.021,0.021,0.033,0.052,0.058,0.069    c0.011,0.01,0.022,0.02,0.034,0.029c0.023,0.021,0.037,0.054,0.063,0.073c0.014,0.011,0.025,0.021,0.037,0.031    c0.022,0.022,0.035,0.052,0.061,0.071c0.013,0.011,0.025,0.021,0.037,0.031c0.021,0.021,0.035,0.051,0.06,0.07    c0.013,0.012,0.024,0.021,0.037,0.031c0.022,0.021,0.034,0.052,0.06,0.07c0.014,0.012,0.025,0.021,0.037,0.033    c0.022,0.021,0.036,0.051,0.061,0.069c0.013,0.011,0.025,0.022,0.039,0.033c0.021,0.021,0.033,0.05,0.058,0.067    c0.013,0.012,0.024,0.021,0.036,0.031c0.021,0.021,0.035,0.053,0.061,0.071c0.012,0.011,0.024,0.021,0.036,0.03    c0.022,0.021,0.036,0.053,0.062,0.072c0.012,0.01,0.023,0.021,0.035,0.029c0.022,0.021,0.037,0.053,0.062,0.072    c0.013,0.01,0.022,0.02,0.035,0.029c0.022,0.021,0.036,0.055,0.062,0.073c0.014,0.013,0.026,0.022,0.041,0.034    c0.021,0.021,0.033,0.05,0.057,0.068c0.012,0.01,0.022,0.02,0.035,0.027c0.021,0.023,0.035,0.055,0.062,0.074    c0.013,0.012,0.026,0.021,0.04,0.034c0.021,0.021,0.033,0.05,0.059,0.067c0.012,0.012,0.023,0.021,0.036,0.031    c0.021,0.021,0.035,0.053,0.06,0.071c0.013,0.011,0.024,0.021,0.037,0.031c0.021,0.021,0.035,0.052,0.061,0.071    c0.012,0.01,0.023,0.021,0.037,0.03c0.021,0.021,0.035,0.052,0.061,0.071c0.012,0.011,0.023,0.021,0.036,0.031    c0.021,0.021,0.035,0.052,0.06,0.07c0.013,0.012,0.024,0.021,0.037,0.031c0.022,0.021,0.035,0.053,0.061,0.071    c3.803,3.304,8.727,6.374,13.727,6.374c5.041,0,7.771-1.29,10.898-3.256l0.02-0.014c0.367-0.22,0.604-0.389,0.928-0.644    c0.003,0.002,0.007,0.003,0.009,0.005c0.019,0.023,0.026,0.053,0.049,0.072c0.015,0.015,0.033,0.019,0.048,0.029    c0.02,0.023,0.026,0.053,0.049,0.073c0.016,0.015,0.032,0.019,0.049,0.029c0.019,0.022,0.026,0.053,0.049,0.073    c0.015,0.014,0.033,0.018,0.048,0.029c0.019,0.022,0.026,0.053,0.049,0.072c0.015,0.014,0.033,0.018,0.049,0.03    c0.019,0.022,0.026,0.052,0.048,0.071c0.016,0.016,0.033,0.02,0.051,0.03c0.018,0.023,0.025,0.052,0.048,0.072    c0.015,0.015,0.032,0.019,0.048,0.028c0.02,0.023,0.025,0.054,0.049,0.074c0.016,0.014,0.033,0.018,0.048,0.028    c0.019,0.022,0.027,0.054,0.05,0.073c0.015,0.014,0.032,0.018,0.047,0.029c0.02,0.022,0.026,0.053,0.049,0.072    c0.016,0.014,0.033,0.018,0.049,0.029c0.02,0.023,0.027,0.053,0.049,0.072c0.014,0.015,0.032,0.018,0.047,0.029    c0.02,0.023,0.026,0.053,0.049,0.073c0.016,0.015,0.034,0.019,0.051,0.03c0.018,0.023,0.025,0.052,0.047,0.072    c0.13,0.123,0.3,0.172,0.439,0.172h0.008c0.213-0.002,0.394-0.086,0.549-0.208c1.463-1.316,1.974-3.419,1.992-4.604L76.121,70.343    z" enable-background="new    " fill="url(#SVGID_3_)" opacity="0.2"/></g></g><g id="a"><g id=":_x29__5_"><path d="M42.654,41.29c-0.148-0.001-0.303,0.034-0.444,0.103c-0.161,0.064-0.325,0.141-0.479,0.205    l-0.229,0.094l-0.297,0.117v0.004C37.984,43.119,34.001,44,31.001,44s-8.8-2.325-12.851-4.576    c-0.142-0.074-0.285-0.113-0.427-0.113c-0.183,0-0.369,0.067-0.505,0.195C17.082,39.634,17,39.82,17.001,40.01    c0,0.246,0.133,0.471,0.316,0.616C21.119,43.93,26.043,47,31.043,47c5.042,0,7.771-1.29,10.898-3.256l0.02-0.014    c0.41-0.244,0.652-0.42,1.04-0.73c0.241-0.18,0.572-0.559,0.567-0.848C43.563,41.641,43.126,41.29,42.654,41.29z" fill="#FFFFFF" id="_x29__5_"/><path d="M46.996,39.468v-0.002c-0.014-0.313-0.079-0.551-0.21-0.749l-0.015-0.019l-0.016-0.021    c-0.133-0.144-0.259-0.196-0.396-0.26c-0.409-0.159-1.008-0.243-1.729-0.246c-0.518,0-1.089,0.05-1.66,0.177l-0.002-0.039    l-0.576,0.192l-0.011,0.005l-0.325,0.104v0.016c-0.383,0.159-0.729,0.355-1.055,0.59c-0.197,0.151-0.367,0.352-0.376,0.656    c-0.005,0.166,0.079,0.355,0.22,0.47s0.303,0.15,0.444,0.15c0.034,0,0.065-0.001,0.094-0.007l0.028-0.004l0.021-0.004    c0.28-0.06,0.691-0.1,1.174-0.168c0.412-0.045,0.851-0.078,1.229-0.078c0.27-0.002,0.51,0.018,0.676,0.055    c0.084,0.017,0.146,0.039,0.182,0.057c0.011,0.006,0.019,0.012,0.021,0.014c0.01,0.022,0.02,0.082,0.018,0.166    c0.004,0.316-0.133,0.904-0.315,1.479c-0.181,0.576-0.397,1.153-0.545,1.537c-0.033,0.089-0.056,0.187-0.056,0.29    c-0.002,0.154,0.06,0.341,0.191,0.465c0.131,0.124,0.301,0.172,0.44,0.172h0.007c0.213-0.002,0.395-0.086,0.549-0.208    c1.464-1.315,1.975-3.419,1.993-4.604L46.996,39.468z" fill="#FFFFFF" id="_x3E__5_"/></g><path d="M34.001,25c-2,0-5.962,1.079-8,2c-2.409,1.088-4,2.887-4,6c0,3.909,2.823,6,6,6c1.059,0,4,0,6-3   c0.729,0.994,1.263,1.466,2.519,2.525c0.33,0.131,0.662,0.131,0.926-0.065c0.795-0.664,2.187-1.858,2.914-2.519   c0.332-0.267,0.266-0.662,0.063-0.992c-0.728-0.928-1.422-2.16-1.422-3.949v-6c0-2.517-0.146-4.28-2-6c-1.521-1.39-3.146-2-5-2h-1   c-3.374,0.194-7.192,1.653-7.986,5.827c-0.133,0.531,0.265,0.728,0.53,0.794l3.706,0.463c0.399-0.065,0.596-0.398,0.663-0.727   c0.33-1.458,0.764-2.224,2.087-2.357l1.024,0.038c0.794,0,1.513,0.3,1.976,0.962C33.529,22.795,34.001,24.071,34.001,25L34.001,25   L34.001,25z M30.76,34.949c-0.132,0-0.33,0.064-0.53,0.064c-1.455,0.002-2.229-1.357-2.229-3.015c0-4,5.007-4,6-4v1   C34.001,34,31.621,34.747,30.76,34.949z" fill="#FFFFFF" id="a_5_"/></g></svg>