<?xml version="1.0" ?><!DOCTYPE svg  PUBLIC '-//W3C//DTD SVG 1.1//EN'  'http://www.w3.org/Graphics/SVG/1.1/DTD/svg11.dtd'><svg enable-background="new 0 0 64 64" height="64px" id="Forrst" version="1.1" viewBox="0 0 64 64" width="64px" xml:space="preserve" xmlns="http://www.w3.org/2000/svg" xmlns:xlink="http://www.w3.org/1999/xlink"><linearGradient gradientTransform="matrix(1 0 0 1 -1096 -1454)" gradientUnits="userSpaceOnUse" id="Circle_Shadow_1_" x1="1160.0293" x2="1128.0292" y1="1517.999" y2="1485.999"><stop offset="0.3163" style="stop-color:#FFFFFF;stop-opacity:0"/><stop offset="0.3508" style="stop-color:#E9E9E9;stop-opacity:0.0504"/><stop offset="0.4543" style="stop-color:#ACACAC;stop-opacity:0.2018"/><stop offset="0.5572" style="stop-color:#787878;stop-opacity:0.3523"/><stop offset="0.6569" style="stop-color:#4D4D4D;stop-opacity:0.4981"/><stop offset="0.7528" style="stop-color:#2B2B2B;stop-opacity:0.6385"/><stop offset="0.8441" style="stop-color:#131313;stop-opacity:0.7719"/><stop offset="0.9286" style="stop-color:#050505;stop-opacity:0.8956"/><stop offset="1" style="stop-color:#000000"/></linearGradient><polygon enable-background="new    " fill="url(#Circle_Shadow_1_)" id="Circle_Shadow" opacity="0.2" points="64.029,64   64.029,30.059 49,15.029 15.059,48.971 30.088,64 "/><circle cx="32" cy="32" fill="#1C8642" id="Circle" r="24"/><g id="Tree_Shadow"><g><g><defs><circle cx="32.029" cy="32" id="SVGID_1_" r="24"/></defs><clipPath id="SVGID_2_"><use overflow="visible" xlink:href="#SVGID_1_"/></clipPath><linearGradient gradientTransform="matrix(1 0 0 1 -548 -727)" gradientUnits="userSpaceOnUse" id="SVGID_3_" x1="622.7197" x2="569.3103" y1="807.6934" y2="754.2841"><stop offset="0.5816" style="stop-color:#000000;stop-opacity:0"/><stop offset="1" style="stop-color:#000000"/></linearGradient><path clip-path="url(#SVGID_2_)" d="M76.921,77.609     L64.938,49.688c-0.065-0.198-0.191-0.373-0.356-0.494c-0.035-0.035-0.065-0.076-0.106-0.105     c-0.033-0.035-0.063-0.076-0.104-0.104c-0.036-0.037-0.067-0.078-0.106-0.107c-0.035-0.036-0.066-0.076-0.105-0.105     c-0.036-0.035-0.066-0.076-0.106-0.104c-0.034-0.036-0.065-0.076-0.106-0.104c-0.033-0.037-0.063-0.076-0.104-0.106     c-0.034-0.036-0.063-0.076-0.104-0.106c-0.035-0.035-0.066-0.076-0.106-0.104c-0.036-0.036-0.065-0.076-0.106-0.106     c-0.035-0.035-0.064-0.074-0.104-0.105c-0.035-0.034-0.063-0.074-0.104-0.104c-0.037-0.037-0.065-0.076-0.106-0.106     c-0.035-0.035-0.063-0.075-0.104-0.105c-0.035-0.036-0.065-0.075-0.106-0.104c-0.035-0.037-0.065-0.076-0.106-0.106     c-0.035-0.036-0.063-0.075-0.104-0.106c-0.035-0.034-0.065-0.075-0.104-0.104c-0.035-0.035-0.066-0.076-0.107-0.105     c-0.034-0.035-0.064-0.076-0.104-0.105c-0.037-0.035-0.066-0.076-0.107-0.105c-0.035-0.037-0.064-0.075-0.105-0.105     c-0.035-0.036-0.064-0.076-0.105-0.105c-0.034-0.035-0.064-0.076-0.105-0.105c-0.035-0.036-0.064-0.077-0.105-0.107     c-0.035-0.033-0.064-0.074-0.104-0.104c-0.036-0.036-0.065-0.076-0.106-0.105c-0.035-0.037-0.065-0.076-0.105-0.106     c-0.035-0.035-0.064-0.076-0.105-0.104c-0.035-0.037-0.064-0.076-0.105-0.105c-0.035-0.037-0.064-0.076-0.105-0.106     c-0.035-0.036-0.065-0.075-0.104-0.106c-0.036-0.034-0.065-0.075-0.106-0.104c-0.035-0.034-0.064-0.075-0.105-0.104     c-0.035-0.035-0.064-0.076-0.105-0.105c-0.035-0.036-0.063-0.076-0.104-0.105c-0.035-0.037-0.065-0.075-0.106-0.106     c-0.035-0.035-0.064-0.075-0.105-0.104c-0.035-0.035-0.063-0.076-0.104-0.105c-0.036-0.037-0.067-0.078-0.108-0.107     c-0.035-0.035-0.064-0.074-0.105-0.104c-0.034-0.035-0.064-0.074-0.104-0.104c-0.034-0.035-0.065-0.076-0.106-0.105     c-0.034-0.035-0.065-0.076-0.104-0.105c-0.037-0.035-0.064-0.076-0.105-0.104c-0.035-0.037-0.064-0.076-0.105-0.106     c-0.035-0.035-0.065-0.076-0.104-0.104c-0.037-0.037-0.065-0.078-0.106-0.107c-0.035-0.035-0.064-0.076-0.105-0.105     c-0.035-0.034-0.064-0.075-0.105-0.104c-0.035-0.036-0.063-0.075-0.104-0.106c-0.035-0.035-0.065-0.074-0.106-0.105     c-0.035-0.035-0.066-0.074-0.107-0.105c-0.033-0.035-0.063-0.075-0.104-0.104c-0.035-0.035-0.064-0.076-0.105-0.104     c-0.034-0.037-0.065-0.078-0.106-0.105c-0.034-0.037-0.063-0.076-0.104-0.105c-0.035-0.035-0.065-0.076-0.106-0.106     c-0.035-0.035-0.063-0.076-0.104-0.104c-0.035-0.037-0.064-0.076-0.105-0.106c-0.037-0.036-0.066-0.077-0.107-0.106     c-0.035-0.035-0.063-0.074-0.104-0.104c-0.037-0.036-0.066-0.077-0.105-0.105c-0.037-0.037-0.065-0.076-0.106-0.106     c-0.035-0.036-0.065-0.076-0.106-0.106c-0.035-0.035-0.064-0.076-0.105-0.105c-0.035-0.035-0.064-0.075-0.105-0.104     c-0.035-0.036-0.066-0.077-0.107-0.106c-0.034-0.035-0.063-0.075-0.104-0.104c-0.035-0.037-0.066-0.078-0.105-0.106     c-0.036-0.035-0.065-0.075-0.106-0.105c-0.034-0.035-0.063-0.076-0.104-0.105c-0.035-0.035-0.064-0.076-0.105-0.105     c-0.035-0.036-0.066-0.077-0.107-0.105c-0.035-0.035-0.063-0.076-0.104-0.104c-0.037-0.036-0.066-0.077-0.107-0.108     c-0.035-0.033-0.064-0.072-0.104-0.104c-0.035-0.036-0.065-0.077-0.106-0.107c-0.035-0.035-0.065-0.074-0.105-0.104     c-0.035-0.036-0.064-0.076-0.105-0.106c-0.035-0.034-0.065-0.075-0.105-0.104c-0.036-0.036-0.065-0.076-0.106-0.105     c-0.034-0.037-0.063-0.076-0.104-0.105c-0.035-0.036-0.064-0.076-0.105-0.106C55.68,40.3,55.65,40.26,55.609,40.23     c-0.035-0.035-0.065-0.076-0.104-0.105c-0.034-0.035-0.065-0.076-0.104-0.105c-0.036-0.035-0.066-0.076-0.107-0.105     c-0.035-0.036-0.064-0.075-0.105-0.105c-0.035-0.035-0.065-0.076-0.106-0.106c-0.035-0.035-0.063-0.074-0.104-0.104     c-0.035-0.035-0.064-0.076-0.105-0.105c-0.034-0.036-0.064-0.076-0.105-0.105c-0.035-0.035-0.064-0.076-0.104-0.105     c-0.036-0.035-0.065-0.076-0.106-0.105c-0.035-0.037-0.065-0.078-0.105-0.105c-0.036-0.036-0.064-0.077-0.105-0.106     c-0.035-0.034-0.066-0.075-0.105-0.104c-0.035-0.034-0.064-0.075-0.104-0.104c-0.035-0.036-0.066-0.077-0.107-0.106     c-0.035-0.035-0.064-0.075-0.105-0.105c-0.035-0.036-0.066-0.076-0.105-0.105c-0.035-0.035-0.065-0.076-0.106-0.105     c-0.035-0.036-0.063-0.076-0.104-0.105c-0.035-0.037-0.066-0.078-0.107-0.106c-0.035-0.035-0.064-0.075-0.105-0.104     c-0.035-0.035-0.063-0.074-0.104-0.104c-0.036-0.036-0.066-0.077-0.107-0.106c-0.035-0.035-0.064-0.076-0.104-0.104     c-0.035-0.036-0.063-0.076-0.104-0.106c-0.035-0.035-0.066-0.074-0.107-0.105c-0.034-0.034-0.063-0.074-0.104-0.104     c-0.037-0.037-0.068-0.078-0.109-0.109c-0.034-0.034-0.064-0.073-0.104-0.104c-0.034-0.035-0.065-0.076-0.106-0.107     c-0.034-0.034-0.064-0.073-0.104-0.104c-0.034-0.035-0.063-0.076-0.104-0.105c-0.035-0.035-0.066-0.076-0.106-0.105     c-0.036-0.036-0.065-0.077-0.106-0.107c-0.035-0.035-0.064-0.073-0.104-0.104c-0.036-0.036-0.066-0.077-0.105-0.107     c-0.035-0.035-0.064-0.074-0.104-0.104c-0.036-0.036-0.065-0.077-0.106-0.107c-0.035-0.035-0.064-0.076-0.104-0.104     c-0.036-0.036-0.067-0.076-0.106-0.106c-0.035-0.035-0.064-0.074-0.104-0.104c-0.036-0.037-0.065-0.077-0.106-0.107     c-0.035-0.035-0.065-0.074-0.104-0.104c-0.035-0.035-0.066-0.076-0.106-0.105c-0.033-0.036-0.064-0.075-0.104-0.104     c-0.036-0.037-0.066-0.076-0.107-0.106c-0.035-0.036-0.066-0.075-0.105-0.106c-0.036-0.034-0.065-0.075-0.105-0.104     c-0.035-0.036-0.064-0.075-0.105-0.106c-0.035-0.035-0.065-0.076-0.106-0.105c-0.035-0.034-0.063-0.074-0.104-0.104     c-0.035-0.037-0.064-0.078-0.105-0.106c-0.035-0.036-0.064-0.076-0.105-0.106c-0.035-0.035-0.066-0.076-0.105-0.105     c-0.036-0.035-0.064-0.076-0.105-0.105c-0.035-0.035-0.065-0.076-0.106-0.104c-0.034-0.037-0.063-0.076-0.104-0.106     c-0.035-0.035-0.064-0.076-0.105-0.105c-0.035-0.035-0.064-0.076-0.105-0.104c-0.035-0.036-0.063-0.077-0.104-0.106     c-0.035-0.034-0.066-0.075-0.106-0.104c-0.035-0.036-0.064-0.075-0.105-0.106c-0.035-0.033-0.064-0.074-0.104-0.105     c-0.036-0.035-0.065-0.076-0.106-0.105c-0.034-0.035-0.064-0.075-0.104-0.104c-0.036-0.037-0.067-0.078-0.108-0.106     c-0.033-0.035-0.063-0.074-0.104-0.104c-0.035-0.037-0.066-0.076-0.105-0.106c-0.037-0.035-0.065-0.076-0.106-0.105     c-0.034-0.035-0.065-0.076-0.104-0.105c-0.037-0.035-0.066-0.076-0.107-0.104c-0.033-0.035-0.063-0.076-0.104-0.104     c-0.035-0.037-0.066-0.078-0.107-0.107c-0.035-0.036-0.064-0.076-0.104-0.106c-0.035-0.036-0.065-0.077-0.106-0.107     c-0.035-0.036-0.063-0.076-0.104-0.105c-0.035-0.036-0.066-0.077-0.107-0.107c-0.035-0.036-0.064-0.076-0.105-0.106     c-0.033-0.036-0.064-0.076-0.104-0.106c-0.036-0.036-0.067-0.077-0.108-0.107C47.07,31.684,47.04,31.644,47,31.614     c-0.036-0.036-0.066-0.077-0.107-0.107c-0.035-0.036-0.064-0.076-0.104-0.106c-0.035-0.036-0.063-0.076-0.104-0.106     c-0.035-0.036-0.065-0.077-0.106-0.107c-0.035-0.036-0.065-0.076-0.106-0.106c-0.035-0.036-0.063-0.076-0.104-0.106     c-0.035-0.035-0.065-0.076-0.104-0.105c-0.037-0.036-0.066-0.077-0.107-0.107c-0.035-0.036-0.066-0.077-0.106-0.107     c-0.034-0.035-0.065-0.076-0.104-0.105c-0.035-0.036-0.066-0.077-0.106-0.107c-0.034-0.035-0.063-0.076-0.104-0.105     c-0.035-0.036-0.066-0.077-0.106-0.107c-0.035-0.035-0.065-0.076-0.104-0.105c-0.034-0.036-0.064-0.076-0.105-0.106     c-0.035-0.036-0.064-0.077-0.105-0.107c-0.035-0.036-0.064-0.076-0.104-0.105c-0.036-0.036-0.065-0.077-0.106-0.107     c-0.035-0.035-0.063-0.076-0.104-0.105c-0.036-0.037-0.066-0.078-0.109-0.108c-0.033-0.036-0.063-0.076-0.104-0.105     c-0.035-0.036-0.066-0.077-0.105-0.106c-0.035-0.036-0.066-0.076-0.105-0.106c-0.035-0.036-0.066-0.077-0.106-0.106     c-0.036-0.036-0.065-0.077-0.106-0.106c-0.033-0.036-0.063-0.076-0.104-0.106c-0.035-0.036-0.064-0.077-0.105-0.107     c-0.035-0.035-0.065-0.076-0.105-0.105c-0.035-0.037-0.066-0.078-0.109-0.108c-0.033-0.035-0.063-0.074-0.103-0.104     c-0.036-0.037-0.065-0.077-0.106-0.108c-0.037-0.036-0.065-0.076-0.105-0.106c-0.035-0.036-0.066-0.077-0.105-0.106     c-0.129-0.111-0.16-0.151-0.201-0.181c-0.035-0.036-0.065-0.077-0.106-0.106c-0.035-0.036-0.065-0.076-0.104-0.106     C43.07,27.682,43.04,27.641,43,27.611c-0.036-0.035-0.064-0.076-0.105-0.105c-0.035-0.036-0.064-0.076-0.105-0.106     c-0.035-0.036-0.064-0.076-0.105-0.106c-0.035-0.036-0.065-0.077-0.106-0.107c-0.035-0.035-0.063-0.075-0.104-0.104     c-0.037-0.037-0.068-0.078-0.108-0.108C42.329,26.94,42.3,26.9,42.26,26.87c-0.033-0.036-0.064-0.077-0.105-0.106     c-0.035-0.036-0.065-0.077-0.106-0.107c-0.034-0.035-0.063-0.075-0.104-0.105c-0.034-0.036-0.064-0.077-0.105-0.108     c-0.035-0.036-0.064-0.076-0.104-0.105c-0.037-0.037-0.067-0.077-0.108-0.107c-0.034-0.035-0.063-0.075-0.104-0.104     c-0.035-0.037-0.064-0.078-0.105-0.108c-0.035-0.035-0.063-0.075-0.104-0.104c-0.035-0.037-0.065-0.077-0.106-0.108     c-0.035-0.036-0.065-0.076-0.106-0.105c-0.035-0.036-0.063-0.077-0.104-0.107c-0.035-0.036-0.065-0.076-0.106-0.106     c-0.033-0.035-0.064-0.075-0.104-0.105c-0.035-0.036-0.066-0.077-0.107-0.107c-0.035-0.036-0.063-0.076-0.104-0.105     c-0.035-0.036-0.065-0.077-0.106-0.107c-0.035-0.035-0.063-0.076-0.104-0.105c-0.035-0.036-0.065-0.077-0.105-0.107     c-0.035-0.036-0.066-0.076-0.105-0.106c-0.036-0.036-0.065-0.076-0.105-0.106c-0.035-0.036-0.066-0.077-0.105-0.107     c-0.035-0.035-0.066-0.075-0.104-0.105c-0.036-0.036-0.065-0.077-0.106-0.107c-0.035-0.036-0.065-0.077-0.106-0.106     c-0.034-0.036-0.065-0.077-0.104-0.106c-0.037-0.036-0.066-0.077-0.107-0.107c-0.035-0.036-0.064-0.076-0.104-0.105     c-0.035-0.036-0.065-0.076-0.104-0.105c-0.035-0.036-0.065-0.077-0.106-0.107c-0.035-0.036-0.064-0.076-0.105-0.106     c-0.035-0.036-0.064-0.077-0.105-0.106c-0.035-0.036-0.066-0.077-0.104-0.106c-0.037-0.036-0.066-0.077-0.106-0.106     c-0.035-0.036-0.066-0.076-0.105-0.106c-0.035-0.036-0.064-0.076-0.105-0.106c-0.035-0.036-0.064-0.076-0.105-0.106     c-0.034-0.036-0.065-0.076-0.104-0.106c-0.036-0.036-0.065-0.077-0.106-0.107c-0.035-0.035-0.064-0.076-0.104-0.105     c-0.037-0.037-0.067-0.078-0.108-0.108c-0.035-0.035-0.063-0.076-0.104-0.105c-0.035-0.036-0.066-0.077-0.105-0.107     c-0.035-0.035-0.065-0.075-0.104-0.105c-0.035-0.037-0.065-0.077-0.106-0.108c-0.035-0.035-0.064-0.076-0.105-0.105     c-0.035-0.036-0.066-0.077-0.105-0.107c-0.035-0.035-0.064-0.076-0.104-0.105c-0.035-0.037-0.066-0.078-0.106-0.108     c-0.035-0.035-0.064-0.076-0.104-0.105c-0.036-0.036-0.065-0.077-0.106-0.107c-0.035-0.036-0.064-0.076-0.105-0.106     c-0.035-0.036-0.065-0.076-0.104-0.105c-0.034-0.036-0.065-0.077-0.106-0.107c-0.034-0.036-0.064-0.076-0.105-0.106     c-0.035-0.035-0.063-0.076-0.104-0.105c-0.036-0.037-0.066-0.078-0.107-0.108c-0.035-0.035-0.064-0.076-0.105-0.105     c-0.035-0.037-0.065-0.077-0.106-0.107c-0.035-0.035-0.063-0.075-0.104-0.105c-0.035-0.036-0.066-0.077-0.107-0.107     c-0.034-0.036-0.064-0.076-0.104-0.106c-0.035-0.035-0.065-0.075-0.105-0.105c-0.035-0.036-0.066-0.077-0.107-0.107     c-0.033-0.036-0.063-0.076-0.104-0.106c-0.036-0.036-0.065-0.077-0.106-0.106c-0.034-0.036-0.065-0.076-0.104-0.106     c-0.035-0.036-0.064-0.076-0.105-0.106c-0.035-0.036-0.066-0.077-0.107-0.107c-0.034-0.036-0.063-0.076-0.104-0.106     c-0.034-0.036-0.063-0.076-0.104-0.105c-0.035-0.036-0.065-0.077-0.105-0.107c-0.035-0.036-0.066-0.076-0.105-0.105     c-0.035-0.036-0.066-0.077-0.106-0.107c-0.035-0.035-0.063-0.076-0.104-0.105c-0.035-0.036-0.065-0.077-0.105-0.106     c-0.035-0.036-0.064-0.076-0.105-0.106c-0.035-0.036-0.064-0.077-0.105-0.107c-0.035-0.036-0.064-0.076-0.104-0.105     c-0.035-0.036-0.066-0.077-0.107-0.107c-0.035-0.036-0.064-0.076-0.104-0.105c-0.037-0.037-0.068-0.078-0.109-0.108     c-0.034-0.035-0.064-0.075-0.104-0.104c-0.034-0.036-0.065-0.077-0.106-0.107c-0.035-0.035-0.064-0.076-0.104-0.105     c-0.036-0.036-0.065-0.077-0.106-0.107c-0.035-0.035-0.065-0.075-0.104-0.105c-0.036-0.036-0.067-0.077-0.108-0.107     c-0.033-0.036-0.063-0.076-0.104-0.106c-0.035-0.036-0.063-0.076-0.104-0.106C32.509,17.12,32.273,17,32,17     c-0.437,0-0.797,0.283-0.934,0.672h-0.004L19.088,45.598c-0.004,0.01-0.009,0.021-0.013,0.028l-0.013,0.03l0.005,0.007     C19.03,45.77,19,45.881,19,46c0,0.305,0.143,0.566,0.356,0.75c0.033,0.039,0.068,0.073,0.106,0.105     c0.033,0.039,0.067,0.074,0.106,0.105c0.033,0.039,0.067,0.073,0.106,0.105c0.034,0.039,0.068,0.072,0.107,0.105     c0.033,0.039,0.067,0.072,0.106,0.105c0.033,0.039,0.067,0.072,0.106,0.104c0.033,0.039,0.067,0.073,0.105,0.106     c0.034,0.037,0.068,0.072,0.107,0.105c0.033,0.038,0.067,0.072,0.106,0.105c0.033,0.037,0.066,0.072,0.104,0.105     c0.034,0.038,0.068,0.072,0.108,0.105c0.033,0.039,0.067,0.072,0.106,0.105c0.033,0.037,0.067,0.071,0.105,0.104     c0.034,0.039,0.067,0.073,0.106,0.106c0.034,0.039,0.068,0.071,0.107,0.104c0.033,0.039,0.067,0.071,0.105,0.104     c0.034,0.039,0.068,0.072,0.106,0.106c0.034,0.039,0.068,0.073,0.107,0.106c0.033,0.039,0.066,0.071,0.104,0.104     c0.034,0.04,0.068,0.075,0.108,0.107c0.033,0.039,0.067,0.072,0.105,0.104c0.033,0.039,0.068,0.073,0.106,0.106     c0.034,0.039,0.068,0.072,0.107,0.105c0.033,0.037,0.066,0.071,0.104,0.104c0.034,0.041,0.069,0.076,0.108,0.109     c0.034,0.038,0.068,0.071,0.106,0.104c0.033,0.038,0.067,0.071,0.105,0.104c0.034,0.041,0.068,0.075,0.108,0.107     c0.033,0.039,0.067,0.072,0.105,0.104c0.033,0.039,0.068,0.074,0.106,0.106c0.033,0.039,0.067,0.071,0.105,0.104     c0.034,0.039,0.068,0.073,0.107,0.106c0.033,0.039,0.067,0.072,0.105,0.104c0.034,0.039,0.068,0.074,0.108,0.107     c0.033,0.039,0.067,0.071,0.105,0.104c0.034,0.039,0.068,0.074,0.106,0.106c0.033,0.039,0.067,0.072,0.106,0.104     c0.034,0.039,0.067,0.074,0.106,0.105c0.034,0.039,0.068,0.074,0.107,0.105c0.033,0.039,0.067,0.072,0.105,0.104     c0.034,0.039,0.068,0.074,0.107,0.107c0.033,0.038,0.067,0.071,0.105,0.104c0.034,0.04,0.069,0.075,0.108,0.108     c0.033,0.037,0.066,0.071,0.104,0.104c0.034,0.037,0.068,0.072,0.107,0.105c0.033,0.039,0.067,0.072,0.106,0.105     c0.033,0.039,0.067,0.073,0.106,0.106c0.033,0.037,0.067,0.071,0.105,0.104c0.034,0.039,0.068,0.072,0.107,0.105     c0.033,0.039,0.067,0.072,0.106,0.105c0.033,0.039,0.067,0.072,0.106,0.104c0.033,0.039,0.067,0.072,0.106,0.106     c0.034,0.039,0.068,0.072,0.107,0.105c0.033,0.039,0.067,0.072,0.105,0.104c0.034,0.039,0.068,0.074,0.107,0.107     c0.033,0.038,0.067,0.071,0.105,0.104c0.034,0.038,0.068,0.073,0.107,0.106c0.033,0.038,0.067,0.072,0.106,0.105     c0.033,0.039,0.067,0.072,0.106,0.105c0.033,0.039,0.067,0.071,0.106,0.104c0.033,0.039,0.067,0.071,0.106,0.104     c0.034,0.041,0.069,0.074,0.108,0.107c0.033,0.039,0.067,0.072,0.105,0.104c0.033,0.039,0.067,0.073,0.106,0.106     c0.033,0.039,0.068,0.071,0.106,0.104c0.033,0.039,0.068,0.073,0.106,0.105c0.033,0.039,0.068,0.074,0.106,0.105     c0.033,0.039,0.067,0.074,0.106,0.106c0.034,0.039,0.068,0.072,0.108,0.106c0.033,0.037,0.067,0.07,0.105,0.104     c0.033,0.039,0.067,0.072,0.105,0.104c0.034,0.039,0.068,0.074,0.107,0.106c0.033,0.039,0.068,0.073,0.106,0.106     c0.033,0.039,0.068,0.072,0.106,0.105c0.033,0.038,0.068,0.072,0.106,0.104c0.034,0.039,0.068,0.073,0.107,0.106     c0.033,0.039,0.067,0.071,0.105,0.104c0.034,0.039,0.068,0.074,0.107,0.105c0.033,0.039,0.067,0.073,0.105,0.104     c0.034,0.041,0.068,0.073,0.107,0.108c0.033,0.037,0.067,0.071,0.106,0.104c0.033,0.038,0.067,0.071,0.106,0.104     c0.034,0.039,0.068,0.074,0.107,0.106c0.033,0.039,0.067,0.072,0.106,0.104c0.034,0.039,0.068,0.074,0.107,0.106     c0.033,0.039,0.067,0.071,0.105,0.104c0.034,0.039,0.068,0.072,0.107,0.105c0.033,0.039,0.067,0.073,0.106,0.105     c0.033,0.037,0.067,0.072,0.105,0.104c0.034,0.04,0.069,0.074,0.108,0.108c0.033,0.037,0.067,0.07,0.105,0.104     c0.034,0.039,0.068,0.074,0.107,0.107c0.033,0.037,0.067,0.072,0.105,0.104c0.033,0.039,0.067,0.073,0.106,0.106     c0.033,0.039,0.068,0.071,0.106,0.104c0.033,0.039,0.068,0.073,0.106,0.106c0.034,0.039,0.068,0.073,0.107,0.106     c0.033,0.039,0.067,0.07,0.105,0.104c0.034,0.039,0.068,0.074,0.107,0.105c0.033,0.039,0.066,0.072,0.104,0.104     c0.034,0.04,0.069,0.075,0.108,0.108c0.033,0.039,0.067,0.072,0.105,0.104c0.033,0.039,0.068,0.073,0.106,0.105     c0.034,0.039,0.068,0.072,0.107,0.105c0.033,0.039,0.067,0.072,0.105,0.105c0.033,0.039,0.067,0.072,0.106,0.104     c0.034,0.039,0.068,0.074,0.107,0.107c0.033,0.039,0.067,0.071,0.106,0.104c0.033,0.039,0.067,0.072,0.105,0.105     c0.033,0.039,0.068,0.072,0.107,0.105c0.033,0.039,0.067,0.072,0.106,0.105c0.033,0.039,0.068,0.072,0.106,0.105     c0.033,0.039,0.067,0.072,0.106,0.105c0.033,0.038,0.067,0.072,0.106,0.105c0.033,0.039,0.067,0.071,0.105,0.104     c0.034,0.04,0.068,0.075,0.108,0.107c0.033,0.039,0.067,0.072,0.105,0.104c0.033,0.039,0.068,0.073,0.106,0.106     c0.033,0.039,0.068,0.072,0.106,0.104c0.033,0.039,0.067,0.073,0.106,0.106c0.034,0.037,0.067,0.07,0.106,0.104     c0.033,0.039,0.067,0.073,0.106,0.105c0.033,0.039,0.067,0.074,0.106,0.107c0.034,0.038,0.067,0.071,0.106,0.105     c0.034,0.037,0.068,0.072,0.107,0.104c0.032,0.039,0.065,0.072,0.104,0.105c0.032,0.039,0.066,0.074,0.105,0.107     c0.031,0.039,0.066,0.071,0.104,0.104c0.034,0.04,0.068,0.074,0.107,0.105c0.033,0.039,0.066,0.072,0.105,0.105     c0.032,0.039,0.065,0.072,0.104,0.105c0.033,0.039,0.065,0.073,0.104,0.106c0.033,0.039,0.067,0.071,0.105,0.104     c0.034,0.039,0.068,0.072,0.107,0.105c0.033,0.039,0.065,0.072,0.104,0.105c0.034,0.039,0.068,0.074,0.107,0.106     c0.031,0.039,0.066,0.071,0.104,0.104c0.033,0.039,0.066,0.072,0.105,0.105c0.035,0.039,0.068,0.072,0.106,0.106     c0.033,0.038,0.066,0.071,0.104,0.104c0.033,0.039,0.066,0.072,0.104,0.105c0.034,0.038,0.069,0.073,0.108,0.108     c0.033,0.037,0.066,0.072,0.105,0.105c0.033,0.037,0.066,0.07,0.104,0.104c0.032,0.041,0.067,0.074,0.106,0.107     c0.032,0.039,0.066,0.072,0.104,0.105c0.032,0.039,0.065,0.071,0.104,0.104c0.033,0.039,0.068,0.073,0.106,0.106     c0.033,0.037,0.065,0.07,0.104,0.104c0.033,0.039,0.067,0.074,0.108,0.107c0.032,0.039,0.065,0.072,0.104,0.104     c0.033,0.039,0.067,0.072,0.106,0.106c0.032,0.037,0.066,0.072,0.104,0.104c0.031,0.039,0.066,0.074,0.105,0.105     c0.032,0.039,0.066,0.074,0.105,0.106c0.033,0.039,0.066,0.072,0.104,0.105c0.033,0.038,0.067,0.073,0.106,0.106     c0.033,0.037,0.066,0.07,0.104,0.104c0.035,0.039,0.067,0.072,0.106,0.105c0.032,0.039,0.067,0.073,0.106,0.106     c0.032,0.039,0.065,0.071,0.104,0.104c0.032,0.039,0.067,0.073,0.106,0.105c0.031,0.039,0.066,0.074,0.105,0.105     c0.031,0.039,0.064,0.072,0.104,0.104c0.032,0.041,0.067,0.074,0.108,0.108c0.031,0.037,0.065,0.072,0.104,0.104     c0.033,0.039,0.065,0.072,0.104,0.105c0.033,0.039,0.067,0.072,0.106,0.105c0.033,0.039,0.066,0.073,0.105,0.105     c0.033,0.039,0.066,0.072,0.105,0.105c0.033,0.039,0.066,0.072,0.104,0.105c0.033,0.039,0.067,0.072,0.104,0.104     c0.035,0.039,0.068,0.074,0.107,0.107c0.033,0.036,0.066,0.071,0.104,0.104c0.034,0.039,0.067,0.073,0.108,0.106     c0.031,0.039,0.066,0.071,0.104,0.104c0.033,0.039,0.066,0.073,0.105,0.105c0.032,0.039,0.067,0.074,0.106,0.105     c0.032,0.039,0.065,0.072,0.104,0.104c0.033,0.039,0.066,0.074,0.107,0.108c0.033,0.037,0.066,0.07,0.104,0.104     c0.033,0.039,0.067,0.072,0.106,0.104c0.033,0.039,0.065,0.074,0.104,0.106c0.033,0.039,0.067,0.073,0.105,0.106     c0.033,0.039,0.068,0.072,0.105,0.104c0.033,0.039,0.068,0.072,0.105,0.105c0.034,0.038,0.067,0.073,0.105,0.106     c0.033,0.038,0.068,0.071,0.105,0.104c0.033,0.039,0.068,0.074,0.107,0.107c0.031,0.037,0.066,0.071,0.104,0.104     c0.032,0.039,0.067,0.071,0.106,0.104c0.032,0.039,0.067,0.073,0.104,0.106c0.033,0.039,0.066,0.073,0.105,0.104     c0.033,0.041,0.066,0.073,0.105,0.106c0.033,0.038,0.067,0.072,0.104,0.104c0.032,0.039,0.067,0.072,0.106,0.106     c0.033,0.038,0.067,0.072,0.105,0.104c0.033,0.039,0.066,0.074,0.105,0.105c0.033,0.039,0.067,0.073,0.105,0.105     c0.032,0.039,0.066,0.072,0.105,0.105c0.033,0.039,0.067,0.073,0.106,0.107c0.032,0.037,0.065,0.07,0.104,0.104     c0.033,0.039,0.066,0.074,0.105,0.107c0.033,0.039,0.067,0.072,0.106,0.105c0.032,0.039,0.065,0.072,0.104,0.105     c0.033,0.039,0.068,0.072,0.105,0.105c0.033,0.039,0.066,0.072,0.105,0.105c0.033,0.039,0.067,0.072,0.106,0.105     c0.032,0.039,0.065,0.073,0.104,0.105c0.033,0.039,0.067,0.073,0.106,0.105c0.032,0.039,0.067,0.072,0.104,0.104     c0.032,0.039,0.066,0.073,0.105,0.106c0.032,0.039,0.066,0.072,0.105,0.104c0.033,0.039,0.066,0.073,0.105,0.106     c0.033,0.039,0.068,0.072,0.107,0.105c0.033,0.039,0.064,0.071,0.104,0.104c0.034,0.039,0.066,0.074,0.105,0.107     c0.033,0.038,0.066,0.071,0.105,0.104c0.033,0.039,0.067,0.073,0.105,0.106c0.033,0.039,0.068,0.072,0.105,0.104     c0.033,0.039,0.067,0.073,0.105,0.106c0.033,0.039,0.068,0.071,0.105,0.104c0.033,0.039,0.067,0.073,0.106,0.104     c0.032,0.039,0.065,0.072,0.104,0.105c0.033,0.039,0.067,0.072,0.106,0.105c0.032,0.039,0.065,0.074,0.104,0.106     c0.032,0.038,0.066,0.072,0.105,0.104c0.031,0.039,0.066,0.072,0.105,0.105c0.032,0.039,0.066,0.073,0.105,0.105     c0.033,0.039,0.066,0.074,0.105,0.106c0.033,0.037,0.066,0.072,0.104,0.105c0.034,0.038,0.067,0.073,0.106,0.106     c0.033,0.037,0.066,0.07,0.104,0.104c0.033,0.039,0.067,0.073,0.106,0.104c0.033,0.039,0.065,0.074,0.104,0.106     c0.033,0.039,0.068,0.073,0.106,0.106c0.033,0.039,0.066,0.071,0.105,0.104c0.032,0.038,0.066,0.073,0.105,0.106     c0.033,0.037,0.066,0.07,0.105,0.104c0.032,0.039,0.066,0.072,0.104,0.107c0.034,0.037,0.065,0.072,0.104,0.104     c0.033,0.039,0.067,0.072,0.106,0.104c0.032,0.039,0.067,0.074,0.106,0.105c0.032,0.039,0.065,0.074,0.104,0.105     c0.032,0.039,0.065,0.074,0.104,0.106c0.033,0.039,0.067,0.072,0.106,0.105c0.033,0.038,0.067,0.071,0.104,0.104     c0.033,0.039,0.067,0.072,0.105,0.105c0.033,0.039,0.066,0.072,0.105,0.105c0.033,0.039,0.066,0.073,0.105,0.106     c0.033,0.039,0.066,0.071,0.105,0.104c0.033,0.039,0.067,0.072,0.104,0.105c0.034,0.039,0.068,0.072,0.108,0.107     c0.033,0.037,0.066,0.071,0.104,0.104c0.033,0.037,0.066,0.072,0.105,0.104c0.033,0.039,0.066,0.072,0.104,0.105     c0.033,0.039,0.067,0.072,0.106,0.105c0.033,0.039,0.066,0.072,0.105,0.104c0.033,0.039,0.066,0.074,0.105,0.106     c0.033,0.037,0.066,0.072,0.105,0.104c0.032,0.039,0.065,0.073,0.106,0.106c0.032,0.039,0.065,0.072,0.104,0.104     c0.031,0.039,0.066,0.072,0.105,0.105c0.032,0.038,0.066,0.073,0.105,0.106c0.033,0.038,0.065,0.072,0.104,0.105     c0.033,0.039,0.067,0.072,0.106,0.105c0.033,0.037,0.066,0.071,0.104,0.104c0.035,0.039,0.066,0.071,0.105,0.104     c0.033,0.039,0.067,0.073,0.106,0.105c0.033,0.039,0.065,0.074,0.104,0.105c0.033,0.039,0.066,0.073,0.105,0.106     c0.033,0.039,0.068,0.072,0.105,0.104c0.033,0.039,0.068,0.074,0.104,0.106c0.033,0.038,0.068,0.071,0.107,0.106     c0.032,0.039,0.067,0.072,0.106,0.104c0.031,0.039,0.066,0.072,0.104,0.104c0.033,0.039,0.066,0.072,0.105,0.105     c0.032,0.039,0.067,0.073,0.106,0.105c0.032,0.039,0.065,0.074,0.104,0.105c0.033,0.039,0.066,0.073,0.105,0.106     c0.033,0.037,0.066,0.071,0.105,0.104c0.033,0.039,0.065,0.073,0.106,0.106c0.033,0.038,0.065,0.073,0.104,0.106     c0.033,0.037,0.066,0.07,0.105,0.104c0.033,0.039,0.066,0.072,0.105,0.105c0.033,0.039,0.066,0.072,0.105,0.105     c0.032,0.039,0.067,0.072,0.105,0.105c0.033,0.039,0.068,0.072,0.106,0.105c0.032,0.038,0.065,0.072,0.104,0.104     c0.031,0.039,0.066,0.074,0.104,0.106c0.033,0.039,0.068,0.073,0.107,0.106c0.032,0.039,0.065,0.072,0.104,0.104     c0.032,0.039,0.066,0.073,0.105,0.106c0.033,0.037,0.066,0.072,0.105,0.105c0.032,0.038,0.065,0.072,0.104,0.105     c0.032,0.039,0.067,0.072,0.106,0.105c0.032,0.039,0.066,0.071,0.104,0.104c0.033,0.039,0.068,0.071,0.105,0.104     c0.033,0.039,0.067,0.073,0.106,0.106c0.033,0.039,0.065,0.073,0.104,0.106C51.434,78.857,51.695,79,52,79     c0.02,0,0.035-0.01,0.055-0.011L52.063,79H63v-2.126h0.021v0.106h0.104l0.001,0.104h0.104v0.105h0.105l0.001,0.105h0.104     l0.002,0.105h0.104l0.001,0.105h0.104l0.002,0.105h0.104l0.002,0.105h0.104l0.002,0.106h0.104l0.002,0.104h0.104l0.001,0.106     h0.105v0.105h0.104l0.001,0.105h0.104l0.002,0.105h0.104l0.001,0.105h0.104l0.002,0.104h0.105l0.001,0.106h0.104v0.106h0.104     l0.001,0.104h0.105L65.042,79H76c0.553,0,1-0.447,1-1C77,77.861,76.973,77.73,76.921,77.609z" enable-background="new    " fill="url(#SVGID_3_)" opacity="0.4"/></g></g></g><path d="M44.921,45.609L44.921,45.609L32.938,17.688l0,0C32.805,17.291,32.441,17,32,17  c-0.437,0-0.797,0.283-0.934,0.672h-0.004L19.088,45.598c-0.004,0.01-0.009,0.021-0.013,0.028l-0.013,0.03l0.005,0.007  C19.03,45.77,19,45.881,19,46c0,0.553,0.448,1,1,1c0.02,0,0.035-0.01,0.055-0.011L20.063,47H31v-6l-3-2v-1l3,2v-5h2v3l3-2v1l-3,2v2  l5-2v1l-5,2l0.042,5H44c0.553,0,1-0.447,1-1C45,45.861,44.973,45.73,44.921,45.609z" fill="#FFFFFF" id="Tree"/></svg>