<?xml version="1.0" ?><!DOCTYPE svg  PUBLIC '-//W3C//DTD SVG 1.1//EN'  'http://www.w3.org/Graphics/SVG/1.1/DTD/svg11.dtd'><svg enable-background="new 0 0 64 64" height="64px" id="Embed" version="1.1" viewBox="0 0 64 64" width="64px" xml:space="preserve" xmlns="http://www.w3.org/2000/svg" xmlns:xlink="http://www.w3.org/1999/xlink"><linearGradient gradientTransform="matrix(1 0 0 1 -548 -727)" gradientUnits="userSpaceOnUse" id="Circle_Shadow_1_" x1="612.0303" x2="580.0302" y1="791.001" y2="759.0009"><stop offset="0.3163" style="stop-color:#FFFFFF;stop-opacity:0"/><stop offset="0.3508" style="stop-color:#E9E9E9;stop-opacity:0.0504"/><stop offset="0.4543" style="stop-color:#ACACAC;stop-opacity:0.2018"/><stop offset="0.5572" style="stop-color:#787878;stop-opacity:0.3523"/><stop offset="0.6569" style="stop-color:#4D4D4D;stop-opacity:0.4981"/><stop offset="0.7528" style="stop-color:#2B2B2B;stop-opacity:0.6385"/><stop offset="0.8441" style="stop-color:#131313;stop-opacity:0.7719"/><stop offset="0.9286" style="stop-color:#050505;stop-opacity:0.8956"/><stop offset="1" style="stop-color:#000000"/></linearGradient><polygon enable-background="new    " fill="url(#Circle_Shadow_1_)" id="Circle_Shadow" opacity="0.2" points="64.029,64   64.029,30.059 49,15.029 15.059,48.971 30.088,64 "/><circle cx="32" cy="32" fill="#FF872E" id="Circle" r="24"/><g id="_x3C__x3E__Shadow"><g><defs><circle cx="32.029" cy="32" id="SVGID_1_" r="24"/></defs><clipPath id="SVGID_2_"><use overflow="visible" xlink:href="#SVGID_1_"/></clipPath><g clip-path="url(#SVGID_2_)"><linearGradient gradientTransform="matrix(1 0 0 -1 -274 -299)" gradientUnits="userSpaceOnUse" id="SVGID_3_" x1="349.0225" x2="307.0283" y1="-367.9658" y2="-325.9717"><stop offset="0.4745" style="stop-color:#000000;stop-opacity:0"/><stop offset="0.5207" style="stop-color:#000000;stop-opacity:0.0471"/><stop offset="1" style="stop-color:#000000"/></linearGradient><polygon enable-background="new    " fill="url(#SVGID_3_)" opacity="0.3" points="78.965,62.877 78.965,62.854 78.9,62.813      78.9,62.789 78.837,62.748 78.837,62.727 78.773,62.686 78.773,62.662 78.71,62.622 78.71,62.598 78.646,62.557 78.646,62.534      78.582,62.494 78.582,62.471 78.518,62.43 78.518,62.406 78.454,62.366 78.454,62.342 78.391,62.301 78.391,62.277      78.326,62.238 78.326,62.214 78.264,62.174 78.264,62.15 78.198,62.109 78.198,62.087 78.134,62.047 78.134,62.021 78.07,61.982      78.07,61.959 78.007,61.919 78.007,61.896 77.941,61.855 77.941,61.831 77.878,61.791 77.878,61.768 77.814,61.729      77.814,61.704 77.751,61.664 77.751,61.641 77.688,61.6 77.688,61.576 77.623,61.536 77.623,61.512 77.559,61.471 77.559,61.448      77.495,61.408 77.495,61.384 77.432,61.344 77.432,61.32 77.367,61.279 77.367,61.256 77.305,61.216 77.305,61.191      77.238,61.152 77.238,61.129 77.175,61.088 77.175,61.064 77.111,61.023 77.111,61.001 77.048,60.961 77.048,60.938      76.982,60.896 76.982,60.873 76.92,60.833 76.92,60.811 76.855,60.77 76.855,60.746 76.792,60.706 76.792,60.682 76.729,60.641      76.729,60.617 76.664,60.577 76.664,60.555 76.6,60.514 76.6,60.49 76.536,60.45 76.536,60.426 76.473,60.385 76.473,60.361      76.408,60.322 76.408,60.298 76.346,60.258 76.346,60.234 76.279,60.193 76.279,60.17 76.217,60.13 76.217,60.105 76.152,60.066      76.152,60.043 76.089,60.003 76.089,59.979 76.023,59.938 76.023,59.915 75.961,59.875 75.961,59.852 75.896,59.811      75.896,59.787 75.833,59.747 75.833,59.725 75.77,59.684 75.77,59.66 75.705,59.62 75.705,59.596 75.641,59.555 75.641,59.531      75.577,59.491 75.577,59.468 75.514,59.428 75.514,59.404 75.449,59.363 75.449,59.34 75.387,59.3 75.387,59.275 75.32,59.236      75.32,59.212 75.258,59.172 75.258,59.148 75.193,59.107 75.193,59.085 75.13,59.045 75.13,59.021 75.064,58.98 75.064,58.957      75.002,58.917 75.002,58.895 74.938,58.854 74.938,58.829 74.874,58.789 74.874,58.766 74.811,58.727 74.811,58.701      74.746,58.66 74.746,58.639 74.682,58.598 74.682,58.574 74.618,58.534 74.618,58.51 74.555,58.471 74.555,58.445 74.49,58.404      74.49,58.382 74.427,58.342 74.427,58.318 74.361,58.277 74.361,58.254 74.299,58.214 74.299,58.189 74.234,58.15 74.234,58.127      74.171,58.087 74.171,58.063 74.107,58.021 74.107,57.999 74.043,57.959 74.043,57.936 73.979,57.895 73.979,57.871      73.915,57.831 73.915,57.809 73.852,57.768 73.852,57.743 73.787,57.703 73.787,57.68 73.723,57.639 73.723,57.615      73.659,57.575 73.659,57.552 73.596,57.512 73.596,57.488 73.531,57.447 73.531,57.424 73.468,57.384 73.468,57.359      73.402,57.32 73.402,57.296 73.34,57.256 73.34,57.232 73.275,57.191 73.275,57.169 73.212,57.129 73.212,57.104 73.148,57.064      73.148,57.041 73.084,57 73.084,56.979 73.02,56.938 73.02,56.913 72.956,56.873 72.956,56.85 72.893,56.811 72.893,56.785      72.828,56.744 72.828,56.723 72.764,56.682 72.764,56.657 72.7,56.617 72.7,56.594 72.637,56.555 72.637,56.529 72.572,56.488      72.572,56.466 72.508,56.426 72.508,56.402 72.443,56.361 72.443,56.338 72.381,56.298 72.381,56.273 72.316,56.234      72.316,56.211 72.253,56.171 72.253,56.146 72.188,56.105 72.188,56.083 72.125,56.043 72.125,56.02 72.061,55.979      72.061,55.955 71.997,55.915 71.997,55.893 71.934,55.852 71.934,55.827 71.869,55.787 71.869,55.764 71.805,55.723      71.805,55.699 71.741,55.659 71.741,55.636 71.678,55.596 71.678,55.57 71.613,55.531 71.613,55.508 71.549,55.467      71.549,55.443 71.484,55.402 71.484,55.38 71.422,55.34 71.422,55.316 71.357,55.275 71.357,55.252 71.294,55.212 71.294,55.188      71.229,55.148 71.229,55.125 71.166,55.085 71.166,55.061 71.102,55.02 71.102,54.997 71.038,54.957 71.038,54.934      70.975,54.895 70.975,54.869 70.91,54.828 70.91,54.805 70.846,54.764 70.846,54.741 70.782,54.701 70.782,54.678 70.719,54.639      70.719,54.613 70.654,54.572 70.654,54.55 70.59,54.51 70.59,54.486 70.525,54.445 70.525,54.422 70.463,54.382 70.463,54.357      70.398,54.318 70.398,54.294 70.335,54.254 70.335,54.23 70.271,54.189 70.271,54.167 70.207,54.127 70.207,54.104      70.143,54.063 70.143,54.039 70.079,53.999 70.079,53.975 70.016,53.936 70.016,53.911 69.951,53.871 69.951,53.848      69.887,53.807 69.887,53.783 69.823,53.743 69.823,53.719 69.76,53.68 69.76,53.654 69.695,53.615 69.695,53.592 69.631,53.551      69.631,53.527 69.566,53.486 69.566,53.464 69.504,53.424 69.504,53.4 69.439,53.359 69.439,53.336 69.376,53.296 69.376,53.271      69.313,53.232 69.313,53.209 69.248,53.169 69.248,53.145 69.184,53.104 69.184,53.081 69.12,53.041 69.12,53.018 69.057,52.979      69.057,52.953 68.992,52.912 68.992,52.889 68.928,52.848 68.928,52.825 68.863,52.785 68.863,52.762 68.801,52.723      68.801,52.697 68.736,52.656 68.736,52.634 68.672,52.594 68.672,52.568 68.607,52.529 68.607,52.506 68.545,52.466      68.545,52.441 68.48,52.402 68.48,52.378 68.417,52.338 68.417,52.314 68.354,52.273 68.354,52.251 68.289,52.211 68.289,52.188      68.225,52.146 68.225,52.123 68.161,52.083 68.161,52.059 68.098,52.02 68.098,51.995 68.033,51.955 68.033,51.932      67.969,51.891 67.969,51.867 67.904,51.827 67.904,51.803 67.842,51.764 67.842,51.739 67.777,51.699 67.777,51.676      67.714,51.636 67.714,51.611 67.648,51.57 67.648,51.548 67.586,51.508 67.586,51.484 67.521,51.443 67.521,51.42 67.458,51.38      67.458,51.355 67.395,51.316 67.395,51.293 67.33,51.253 67.33,51.229 67.266,51.188 67.266,51.165 67.202,51.125 67.202,51.102      67.139,51.063 67.139,51.037 67.074,50.996 67.074,50.973 67.012,50.934 67.012,50.909 66.945,50.869 66.945,50.846      66.883,50.807 66.883,50.781 66.818,50.74 66.818,50.718 66.755,50.678 66.755,50.652 66.689,50.613 66.689,50.59 66.627,50.55      66.627,50.525 66.563,50.486 66.563,50.462 66.499,50.422 66.499,50.398 66.436,50.357 66.436,50.334 66.371,50.294      66.371,50.271 66.309,50.23 66.309,50.207 66.243,50.166 66.243,50.143 66.18,50.104 66.18,50.079 66.115,50.039 66.115,50.016      66.052,49.977 66.052,49.951 65.986,49.91 65.986,49.887 65.924,49.848 65.924,49.823 65.859,49.783 65.859,49.76 65.796,49.721      65.796,49.695 65.73,49.654 65.73,49.632 65.668,49.592 65.668,49.566 65.604,49.527 65.604,49.504 65.54,49.463 65.54,49.439      65.477,49.4 65.477,49.376 65.412,49.336 65.412,49.313 65.35,49.271 65.35,49.248 65.284,49.207 65.284,49.186 65.221,49.145      65.221,49.121 65.156,49.08 65.156,49.057 65.093,49.018 65.093,48.993 65.027,48.953 65.027,48.93 64.965,48.891 64.965,48.865      64.9,48.825 64.9,48.801 64.837,48.76 64.837,48.736 64.773,48.697 64.773,48.674 64.709,48.633 64.709,48.609 64.646,48.568      64.646,48.546 64.581,48.506 64.581,48.482 64.518,48.441 64.518,48.418 64.453,48.377 64.453,48.354 64.391,48.314      64.391,48.291 64.325,48.25 64.325,48.227 64.262,48.188 64.262,48.162 64.197,48.121 64.197,48.1 64.134,48.059 64.134,48.035      64.07,47.995 64.07,47.971 64.006,47.93 64.006,47.907 63.941,47.867 63.941,47.844 63.878,47.803 63.878,47.779 63.814,47.739      63.814,47.716 63.75,47.676 63.75,47.65 63.688,47.611 63.688,47.588 63.622,47.547 63.622,47.523 63.559,47.484 63.559,47.46      63.494,47.42 63.494,47.396 63.432,47.355 63.432,47.332 63.367,47.292 63.367,47.27 63.303,47.229 63.303,47.205 63.238,47.164      63.238,47.141 63.175,47.102 63.175,47.076 63.111,47.036 63.111,47.014 63.047,46.973 63.047,46.949 62.982,46.908      62.982,46.886 62.919,46.846 62.919,46.82 62.854,46.781 62.854,46.758 62.791,46.718 62.791,46.693 62.729,46.652 62.729,46.63      62.663,46.59 62.663,46.564 62.6,46.525 62.6,46.502 62.535,46.461 62.535,46.438 62.473,46.396 62.473,46.375 62.407,46.334      62.407,46.311 62.344,46.271 62.344,46.246 62.279,46.205 62.279,46.184 62.216,46.143 62.216,46.119 62.152,46.079      62.152,46.055 62.088,46.014 62.088,45.99 62.023,45.95 62.023,45.928 61.961,45.889 61.961,45.863 61.896,45.822 61.896,45.8      61.832,45.76 61.832,45.734 61.77,45.695 61.77,45.672 61.705,45.632 61.705,45.607 61.641,45.566 61.641,45.544 61.576,45.504      61.576,45.479 61.514,45.439 61.514,45.416 61.449,45.376 61.449,45.354 61.385,45.313 61.385,45.289 61.32,45.248 61.32,45.225      61.257,45.186 61.257,45.16 61.193,45.12 61.193,45.098 61.129,45.057 61.129,45.033 61.064,44.992 61.064,44.969 61.001,44.93      61.001,44.904 60.938,44.865 60.938,44.842 60.873,44.801 60.873,44.777 60.809,44.736 60.809,44.713 60.745,44.673      60.745,44.648 60.682,44.609 60.682,44.586 60.617,44.545 60.617,44.521 60.555,44.48 60.555,44.458 60.488,44.418      60.488,44.395 60.426,44.354 60.426,44.33 60.361,44.289 60.361,44.268 60.298,44.227 60.298,44.202 60.234,44.162      60.234,44.139 60.17,44.098 60.17,44.075 60.105,44.035 60.105,44.012 60.042,43.971 60.042,43.947 59.979,43.907 59.979,43.884      59.915,43.844 59.915,43.818 59.852,43.779 59.852,43.756 59.786,43.715 59.786,43.691 59.723,43.65 59.723,43.628      59.659,43.588 59.659,43.564 59.596,43.523 59.596,43.5 59.529,43.459 59.529,43.436 59.467,43.396 59.467,43.372 59.402,43.332      59.402,43.309 59.339,43.268 59.339,43.244 59.273,43.203 59.273,43.18 59.211,43.141 59.211,43.117 59.146,43.077      59.146,43.055 59.083,43.014 59.083,42.989 59.02,42.949 59.02,42.925 58.955,42.885 58.955,42.861 58.893,42.82 58.893,42.798      58.827,42.758 58.827,42.732 58.764,42.693 58.764,42.67 58.699,42.63 58.699,42.605 58.637,42.564 58.637,42.542 58.57,42.502      58.57,42.479 58.508,42.438 58.508,42.414 58.443,42.373 58.443,42.35 58.38,42.311 58.38,42.287 58.314,42.246 58.314,42.223      58.252,42.184 58.252,42.158 58.188,42.118 58.188,42.096 58.124,42.055 58.124,42.031 58.061,41.991 58.061,41.967      57.996,41.926 57.996,41.902 57.934,41.863 57.934,41.84 57.868,41.799 57.868,41.775 57.805,41.734 57.805,41.712 57.74,41.672      57.74,41.646 57.677,41.607 57.677,41.584 57.613,41.544 57.613,41.52 57.549,41.479 57.549,41.456 57.484,41.416 57.484,41.393      57.421,41.352 57.421,41.328 57.357,41.288 57.357,41.266 57.293,41.225 57.293,41.201 57.229,41.16 57.229,41.137      57.165,41.098 57.165,41.073 57.102,41.033 57.102,41.009 57.037,40.969 57.037,40.945 56.973,40.904 56.973,40.881      56.909,40.841 56.909,40.816 56.846,40.777 56.846,40.754 56.781,40.713 56.781,40.689 56.717,40.648 56.717,40.626      56.654,40.587 56.654,40.563 56.59,40.521 56.59,40.498 56.525,40.457 56.525,40.434 56.462,40.395 56.462,40.37 56.398,40.33      56.398,40.307 56.334,40.266 56.334,40.243 56.27,40.203 56.27,40.18 56.206,40.139 56.206,40.115 56.143,40.075 56.143,40.051      56.078,40.01 56.078,39.986 56.016,39.947 56.016,39.923 55.95,39.883 55.95,39.859 55.887,39.818 55.887,39.795 55.822,39.754      55.822,39.73 55.759,39.691 55.759,39.668 55.695,39.628 55.695,39.604 55.631,39.563 55.631,39.54 55.566,39.5 55.566,39.477      55.503,39.436 55.503,39.412 55.439,39.372 55.439,39.348 55.375,39.307 55.375,39.285 55.313,39.245 55.313,39.221      55.248,39.182 55.248,39.156 55.184,39.115 55.184,39.093 55.119,39.053 55.119,39.029 55.057,38.989 55.057,38.965      54.992,38.925 54.992,38.9 54.928,38.861 54.928,38.837 54.863,38.797 54.863,38.773 54.8,38.732 54.8,38.71 54.736,38.67      54.736,38.646 54.672,38.605 54.672,38.582 54.607,38.541 54.607,38.518 54.545,38.479 54.545,38.455 54.48,38.414 54.48,38.391      54.416,38.35 54.416,38.326 54.352,38.285 54.352,38.264 54.289,38.225 54.289,38.199 54.225,38.158 54.225,38.135 54.16,38.094      54.16,38.07 54.098,38.029 54.098,38.007 54.033,37.967 54.033,37.943 53.969,37.902 53.969,37.879 53.904,37.838 53.904,37.814      53.841,37.775 53.841,37.751 53.777,37.711 53.777,37.688 53.713,37.646 53.713,37.623 53.648,37.582 53.648,37.561      53.585,37.52 53.585,37.496 53.521,37.456 53.521,37.434 53.457,37.393 53.457,37.368 53.393,37.328 53.393,37.305      53.329,37.264 53.329,37.24 53.266,37.2 53.266,37.177 53.201,37.137 53.201,37.113 53.139,37.073 53.139,37.049 53.074,37.009      53.074,36.984 53.01,36.945 53.01,36.921 52.945,36.881 52.945,36.857 52.882,36.816 52.882,36.793 52.818,36.753 52.818,36.729      52.754,36.689 52.754,36.666 52.689,36.625 52.689,36.602 52.626,36.563 52.626,36.537 52.563,36.497 52.563,36.475      52.498,36.434 52.498,36.41 52.436,36.37 52.436,36.348 52.37,36.307 52.37,36.282 52.307,36.242 52.307,36.219 52.242,36.178      52.242,36.154 52.18,36.115 52.18,36.091 52.113,36.051 52.113,36.027 52.051,35.986 52.051,35.963 51.986,35.922 51.986,35.898      51.923,35.859 51.923,35.835 51.857,35.795 51.857,35.771 51.795,35.73 51.795,35.707 51.73,35.667 51.73,35.645 51.667,35.604      51.667,35.58 51.604,35.539 51.604,35.516 51.539,35.477 51.539,35.452 51.477,35.412 51.477,35.389 51.411,35.348      51.411,35.324 51.348,35.284 51.348,35.26 51.283,35.219 51.283,35.197 51.221,35.157 51.221,35.133 51.154,35.092      51.154,35.068 51.092,35.029 51.092,35.005 51.027,34.965 51.027,34.941 50.964,34.9 50.964,34.877 50.9,34.837 50.9,34.813      50.836,34.773 50.836,34.749 50.771,34.709 50.771,34.686 50.708,34.645 50.708,34.622 50.645,34.582 50.645,34.559      50.58,34.518 50.58,34.493 50.518,34.453 50.518,34.43 50.453,34.391 50.453,34.366 50.389,34.326 50.389,34.303 50.324,34.262      50.324,34.238 50.262,34.198 50.262,34.175 50.197,34.135 50.197,34.111 50.133,34.07 50.133,34.047 50.068,34.006      50.068,33.982 50.005,33.943 50.005,33.919 49.941,33.879 49.941,33.855 49.877,33.814 49.877,33.791 49.813,33.75      49.813,33.729 49.749,33.688 49.749,33.664 49.686,33.624 49.686,33.602 49.621,33.561 49.621,33.536 49.559,33.496      49.559,33.473 49.493,33.432 49.493,33.408 49.43,33.368 49.43,33.346 49.366,33.305 49.366,33.279 49.302,33.24 49.302,33.217      49.236,33.176 49.236,33.152 49.174,33.113 49.174,33.089 49.109,33.049 49.109,33.025 49.046,32.984 49.046,32.961      48.982,32.921 48.982,32.896 48.918,32.857 48.918,32.833 48.854,32.793 48.854,32.77 48.79,32.729 48.79,32.705 48.727,32.665      48.727,32.643 48.662,32.602 48.662,32.578 48.6,32.538 48.6,32.516 48.534,32.474 48.534,32.45 48.471,32.41 48.471,32.386      48.407,32.346 48.407,32.322 48.343,32.282 48.343,32.258 48.277,32.218 48.277,32.194 48.215,32.154 48.215,32.131      48.15,32.091 48.15,32.067 48.087,32.026 48.087,32.003 48.023,31.963 48.023,31.939 47.959,31.899 47.959,31.875 47.895,31.834      47.895,31.812 47.831,31.771 47.831,31.748 47.768,31.708 47.768,31.684 47.703,31.643 47.703,31.62 47.641,31.58 47.641,31.556      47.575,31.515 47.575,31.492 47.512,31.452 47.512,31.428 47.448,31.388 47.448,31.364 47.384,31.324 47.384,31.3 47.32,31.26      47.32,31.236 47.256,31.196 47.256,31.173 47.191,31.133 47.191,31.109 47.128,31.068 47.128,31.045 47.064,31.005 47.064,30.98      47,30.94 47,30.917 36,24 36,27 36.064,27.04 36.064,27.064 36.128,27.104 36.128,27.128 36.191,27.168 36.191,27.192      36.256,27.232 36.256,27.256 36.32,27.296 36.32,27.319 36.384,27.359 36.384,27.383 36.448,27.424 36.448,27.447 36.512,27.487      36.512,27.511 36.575,27.551 36.575,27.575 36.641,27.615 36.641,27.639 36.704,27.679 36.704,27.703 36.768,27.742      36.768,27.767 36.831,27.807 36.831,27.831 36.896,27.871 36.896,27.895 36.959,27.934 36.959,27.958 37.023,27.998      37.023,28.022 37.087,28.062 37.087,28.086 37.15,28.126 37.15,28.15 37.215,28.19 37.215,28.213 37.279,28.254 37.279,28.278      37.343,28.317 37.343,28.341 37.406,28.381 37.406,28.406 37.471,28.446 37.471,28.469 37.535,28.509 37.535,28.533 37.6,28.573      37.6,28.597 37.662,28.637 37.662,28.661 37.727,28.701 37.727,28.725 37.79,28.764 37.79,28.789 37.854,28.829 37.854,28.853      37.918,28.892 37.918,28.917 37.98,28.956 37.98,28.98 38.046,29.021 38.046,29.044 38.109,29.084 38.109,29.108 38.174,29.147      38.174,29.172 38.236,29.211 38.236,29.236 38.302,29.276 38.302,29.299 38.366,29.34 38.366,29.363 38.43,29.403 38.43,29.427      38.493,29.467 38.493,29.491 38.559,29.531 38.559,29.555 38.621,29.594 38.621,29.619 38.686,29.659 38.686,29.683      38.749,29.723 38.749,29.747 38.813,29.786 38.813,29.81 38.877,29.851 38.877,29.875 38.941,29.915 38.941,29.938      39.005,29.978 39.005,30.002 39.068,30.042 39.068,30.065 39.133,30.105 39.133,30.13 39.197,30.17 39.197,30.194 39.262,30.233      39.262,30.258 39.324,30.297 39.324,30.321 39.389,30.361 39.389,30.386 39.452,30.425 39.452,30.449 39.518,30.489      39.518,30.513 39.58,30.553 39.58,30.577 39.645,30.617 39.645,30.641 39.708,30.681 39.708,30.705 39.771,30.745 39.771,30.769      39.836,30.809 39.836,30.832 39.9,30.872 39.9,30.896 39.964,30.936 39.964,30.96 40.027,31.001 40.027,31.024 40.092,31.064      40.092,31.088 40.156,31.128 40.156,31.151 40.221,31.191 40.221,31.216 40.283,31.255 40.283,31.279 40.348,31.319      40.348,31.343 40.411,31.383 40.411,31.407 40.477,31.447 40.477,31.472 40.539,31.511 40.539,31.535 40.604,31.575      40.604,31.599 40.667,31.638 40.667,31.663 40.73,31.703 40.73,31.727 40.795,31.767 40.795,31.791 40.859,31.831 40.859,31.854      40.923,31.894 40.923,31.918 40.986,31.958 40.986,31.982 41.051,32.022 41.051,32.046 41.113,32.085 41.113,32.11 41.18,32.15      41.18,32.174 41.243,32.214 41.243,32.238 41.307,32.278 41.307,32.302 41.37,32.341 41.37,32.365 41.436,32.405 41.436,32.429      41.499,32.47 41.499,32.494 41.563,32.533 41.563,32.557 41.626,32.598 41.626,32.621 41.689,32.661 41.689,32.686      41.754,32.725 41.754,32.749 41.818,32.789 41.818,32.813 41.882,32.854 41.882,32.877 41.945,32.917 41.945,32.939 42.01,32.98      42.01,33.004 42.074,33.044 42.074,33.068 42.137,33.107 42.137,33.132 42.163,33.148 36,37 36,40 36.064,39.959 36.064,40.063      36.128,40.021 36.128,40.128 36.191,40.087 36.191,40.191 36.256,40.15 36.256,40.256 36.32,40.215 36.32,40.32 36.384,40.279      36.384,40.384 36.448,40.343 36.448,40.447 36.512,40.406 36.512,40.512 36.575,40.471 36.575,40.575 36.641,40.534      36.641,40.639 36.704,40.598 36.704,40.703 36.768,40.663 36.768,40.768 36.831,40.727 36.831,40.83 36.896,40.789      36.896,40.895 36.959,40.854 36.959,40.958 37.023,40.917 37.023,41.021 37.087,40.98 37.087,41.086 37.15,41.045 37.15,41.15      37.215,41.109 37.215,41.214 37.279,41.173 37.279,41.277 37.343,41.236 37.343,41.342 37.406,41.301 37.406,41.404      37.471,41.364 37.471,41.469 37.535,41.428 37.535,41.533 37.6,41.492 37.6,41.598 37.662,41.557 37.662,41.661 37.727,41.62      37.727,41.725 37.79,41.684 37.79,41.788 37.854,41.747 37.854,41.854 37.918,41.813 37.918,41.916 37.98,41.875 37.98,41.98      38.046,41.939 38.046,42.044 38.109,42.003 38.109,42.107 38.174,42.066 38.174,42.172 38.236,42.131 38.236,42.234      38.302,42.193 38.302,42.299 38.366,42.258 38.366,42.363 38.43,42.322 38.43,42.428 38.493,42.387 38.493,42.491 38.559,42.45      38.559,42.555 38.621,42.514 38.621,42.619 38.686,42.578 38.686,42.684 38.749,42.643 38.749,42.747 38.813,42.706      38.813,42.811 38.877,42.77 38.877,42.874 38.941,42.833 38.941,42.938 39.005,42.896 39.005,43.002 39.068,42.961      39.068,43.064 39.133,43.023 39.133,43.13 39.197,43.089 39.197,43.193 39.262,43.152 39.262,43.258 39.324,43.217 39.324,43.32      39.389,43.279 39.389,43.386 39.452,43.346 39.452,43.449 39.518,43.408 39.518,43.514 39.58,43.473 39.58,43.577 39.645,43.536      39.645,43.641 39.708,43.6 39.708,43.705 39.771,43.664 39.771,43.77 39.836,43.729 39.836,43.832 39.9,43.791 39.9,43.896      39.964,43.855 39.964,43.961 40.027,43.92 40.027,44.023 40.092,43.982 40.092,44.088 40.156,44.047 40.156,44.152      40.221,44.111 40.221,44.216 40.283,44.175 40.283,44.279 40.348,44.238 40.348,44.344 40.411,44.303 40.411,44.407      40.477,44.366 40.477,44.473 40.539,44.432 40.539,44.535 40.604,44.494 40.604,44.6 40.667,44.559 40.667,44.663 40.73,44.622      40.73,44.727 40.795,44.686 40.795,44.791 40.859,44.75 40.859,44.854 40.923,44.813 40.923,44.918 40.986,44.877 40.986,44.982      41.051,44.941 41.051,45.046 41.113,45.005 41.113,45.109 41.18,45.068 41.18,45.174 41.243,45.133 41.243,45.238 41.307,45.197      41.307,45.302 41.37,45.261 41.37,45.365 41.436,45.324 41.436,45.43 41.499,45.389 41.499,45.493 41.563,45.452 41.563,45.559      41.626,45.518 41.626,45.621 41.689,45.58 41.689,45.686 41.754,45.645 41.754,45.749 41.818,45.708 41.818,45.813      41.882,45.771 41.882,45.876 41.945,45.835 41.945,45.939 42.01,45.898 42.01,46.004 42.074,45.963 42.074,46.068 42.137,46.027      42.137,46.132 42.201,46.091 42.201,46.195 42.266,46.154 42.266,46.26 42.33,46.219 42.33,46.324 42.393,46.284 42.393,46.387      42.457,46.346 42.457,46.451 42.521,46.41 42.521,46.516 42.585,46.475 42.585,46.579 42.648,46.538 42.648,46.643      42.713,46.602 42.713,46.707 42.777,46.666 42.777,46.771 42.841,46.729 42.841,46.834 42.904,46.793 42.904,46.898      42.969,46.857 42.969,46.962 43.033,46.921 43.033,47.025 43.098,46.984 43.098,47.09 43.16,47.049 43.16,47.152 43.225,47.111      43.225,47.218 43.289,47.177 43.289,47.282 43.354,47.241 43.354,47.346 43.416,47.305 43.416,47.409 43.48,47.368 43.48,47.475      43.545,47.434 43.545,47.537 43.607,47.497 43.607,47.602 43.672,47.561 43.672,47.665 43.736,47.624 43.736,47.729 43.8,47.688      43.8,47.793 43.863,47.752 43.863,47.855 43.928,47.814 43.928,47.92 43.992,47.879 43.992,47.984 44.057,47.943 44.057,48.049      44.119,48.008 44.119,48.111 44.184,48.07 44.184,48.176 44.247,48.135 44.247,48.24 44.313,48.199 44.313,48.305 44.375,48.264      44.375,48.367 44.438,48.326 44.438,48.432 44.503,48.391 44.503,48.495 44.566,48.454 44.566,48.561 44.631,48.52      44.631,48.623 44.693,48.582 44.693,48.688 44.759,48.646 44.759,48.751 44.823,48.71 44.823,48.814 44.887,48.773      44.887,48.878 44.95,48.837 44.95,48.941 45.016,48.9 45.016,49.006 45.078,48.965 45.078,49.07 45.143,49.029 45.143,49.134      45.206,49.093 45.206,49.197 45.27,49.156 45.27,49.262 45.334,49.221 45.334,49.326 45.398,49.285 45.398,49.391 45.461,49.35      45.461,49.453 45.525,49.412 45.525,49.518 45.59,49.477 45.59,49.581 45.654,49.54 45.654,49.645 45.717,49.604 45.717,49.709      45.781,49.668 45.781,49.771 45.846,49.73 45.846,49.837 45.909,49.796 45.909,49.9 45.973,49.859 45.973,49.964 46.037,49.923      46.037,50.027 46.102,49.986 46.102,50.092 46.165,50.051 46.165,50.156 46.229,50.115 46.229,50.221 46.293,50.18      46.293,50.283 46.357,50.242 46.357,50.348 46.421,50.307 46.421,50.412 46.484,50.371 46.484,50.475 46.549,50.434      46.549,50.539 46.613,50.498 46.613,50.604 46.677,50.563 46.677,50.667 46.74,50.626 46.74,50.73 46.805,50.689 46.805,50.795      46.869,50.754 46.869,50.859 46.932,50.818 46.932,50.922 46.996,50.881 46.996,50.986 47.061,50.945 47.061,51.05      47.124,51.009 47.124,51.114 47.188,51.073 47.188,51.178 47.252,51.137 47.252,51.241 47.316,51.2 47.316,51.307 47.38,51.266      47.38,51.37 47.443,51.329 47.443,51.434 47.508,51.393 47.508,51.497 47.57,51.456 47.57,51.563 47.637,51.521 47.637,51.625      47.699,51.584 47.699,51.688 47.764,51.646 47.764,51.753 47.827,51.712 47.827,51.816 47.893,51.775 47.893,51.881      47.955,51.84 47.955,51.943 48.02,51.902 48.02,52.008 48.083,51.967 48.083,52.072 48.146,52.031 48.146,52.137 48.211,52.096      48.211,52.199 48.273,52.158 48.273,52.264 48.339,52.223 48.339,52.328 48.402,52.287 48.402,52.393 48.467,52.352      48.467,52.455 48.529,52.414 48.529,52.52 48.596,52.479 48.596,52.583 48.658,52.542 48.658,52.646 48.723,52.605      48.723,52.711 48.786,52.67 48.786,52.773 48.85,52.732 48.85,52.839 48.914,52.798 48.914,52.902 48.979,52.861 48.979,52.967      49.042,52.926 49.042,53.029 49.105,52.989 49.105,53.094 49.17,53.053 49.17,53.158 49.232,53.117 49.232,53.223 49.298,53.182      49.298,53.285 49.361,53.244 49.361,53.35 49.426,53.309 49.426,53.414 49.488,53.373 49.488,53.479 49.555,53.438      49.555,53.541 49.617,53.5 49.617,53.605 49.682,53.564 49.682,53.669 49.745,53.628 49.745,53.732 49.811,53.691 49.811,53.797      49.873,53.756 49.873,53.859 49.938,53.818 49.938,53.925 50.001,53.884 50.001,53.988 50.064,53.947 50.064,54.052      50.129,54.011 50.129,54.115 50.193,54.074 50.193,54.18 50.257,54.139 50.257,54.244 50.32,54.203 50.32,54.307 50.385,54.266      50.385,54.371 50.448,54.33 50.448,54.436 50.514,54.395 50.514,54.499 50.576,54.458 50.576,54.563 50.641,54.521      50.641,54.627 50.704,54.586 50.704,54.691 50.77,54.65 50.77,54.755 50.832,54.714 50.832,54.818 50.896,54.777 50.896,54.883      50.96,54.842 50.96,54.947 51.023,54.906 51.023,55.01 51.088,54.969 51.088,55.073 51.152,55.032 51.152,55.139 51.216,55.098      51.216,55.202 51.279,55.161 51.279,55.266 51.344,55.225 51.344,55.329 51.407,55.288 51.407,55.395 51.473,55.354      51.473,55.457 51.535,55.416 51.535,55.521 51.6,55.48 51.6,55.585 51.663,55.544 51.663,55.648 51.729,55.607 51.729,55.713      51.791,55.672 51.791,55.775 51.855,55.734 51.855,55.841 51.919,55.8 51.919,55.904 51.982,55.863 51.982,55.969 52.047,55.928      52.047,56.032 52.109,55.991 52.109,56.096 52.175,56.055 52.175,56.16 52.238,56.119 52.238,56.225 52.303,56.184      52.303,56.287 52.366,56.246 52.366,56.352 52.432,56.311 52.432,56.415 52.494,56.374 52.494,56.479 52.559,56.438      52.559,56.543 52.622,56.502 52.622,56.605 52.686,56.564 52.686,56.671 52.75,56.63 52.75,56.734 52.814,56.693 52.814,56.799      52.878,56.758 52.878,56.861 52.941,56.82 52.941,56.927 53.006,56.886 53.006,56.99 53.07,56.949 53.07,57.055 53.134,57.014      53.134,57.118 53.197,57.077 53.197,57.182 53.262,57.141 53.262,57.246 53.325,57.205 53.325,57.311 53.391,57.27      53.391,57.373 53.453,57.332 53.453,57.438 53.518,57.396 53.518,57.501 53.581,57.46 53.581,57.564 53.645,57.523      53.645,57.629 53.709,57.588 53.709,57.691 53.771,57.65 53.771,57.757 53.837,57.716 53.837,57.82 53.9,57.779 53.9,57.885      53.965,57.844 53.965,57.948 54.027,57.907 54.027,58.012 54.093,57.971 54.093,58.076 54.156,58.035 54.156,58.141 54.221,58.1      54.221,58.203 54.284,58.162 54.284,58.268 54.35,58.227 54.35,58.332 54.412,58.291 54.412,58.396 54.477,58.354 54.477,58.459      54.54,58.418 54.54,58.523 54.604,58.482 54.604,58.587 54.668,58.546 54.668,58.65 54.732,58.609 54.732,58.715 54.796,58.674      54.796,58.777 54.859,58.736 54.859,58.843 54.924,58.802 54.924,58.906 54.986,58.865 54.986,58.971 55.052,58.93      55.052,59.034 55.115,58.993 55.115,59.098 55.18,59.057 55.18,59.162 55.243,59.121 55.243,59.227 55.307,59.186 55.307,59.289      55.371,59.248 55.371,59.354 55.436,59.313 55.436,59.417 55.499,59.376 55.499,59.48 55.563,59.439 55.563,59.545      55.627,59.504 55.627,59.607 55.691,59.566 55.691,59.673 55.755,59.632 55.755,59.736 55.818,59.695 55.818,59.801      55.883,59.76 55.883,59.864 55.945,59.823 55.945,59.93 56.012,59.889 56.012,59.992 56.074,59.951 56.074,60.057 56.139,60.016      56.139,60.12 56.202,60.079 56.202,60.184 56.268,60.143 56.268,60.248 56.33,60.207 56.33,60.313 56.395,60.271 56.395,60.375      56.458,60.334 56.458,60.439 56.521,60.398 56.521,60.503 56.586,60.462 56.586,60.566 56.648,60.525 56.648,60.631      56.714,60.59 56.714,60.693 56.777,60.652 56.777,60.759 56.842,60.718 56.842,60.822 56.904,60.781 56.904,60.887      56.969,60.846 56.969,60.95 57.033,60.909 57.033,61.014 57.098,60.973 57.098,61.078 57.161,61.037 57.161,61.143      57.225,61.102 57.225,61.205 57.289,61.164 57.289,61.27 57.354,61.229 57.354,61.334 57.417,61.293 57.417,61.396 57.48,61.355      57.48,61.461 57.545,61.42 57.545,61.525 57.609,61.484 57.609,61.589 57.673,61.548 57.673,61.652 57.736,61.611 57.736,61.717      57.801,61.676 57.801,61.779 57.865,61.739 57.865,61.846 57.93,61.805 57.93,61.908 57.992,61.867 57.992,61.973 58.057,61.932      58.057,62.036 58.12,61.995 58.12,62.1 58.186,62.059 58.186,62.164 58.248,62.123 58.248,62.229 58.313,62.188 58.313,62.291      58.376,62.25 58.376,62.355 58.439,62.314 58.439,62.419 58.504,62.378 58.504,62.482 58.566,62.441 58.566,62.547      58.631,62.506 58.631,62.611 58.695,62.57 58.695,62.675 58.76,62.634 58.76,62.738 58.823,62.697 58.823,62.803 58.887,62.762      58.887,62.866 58.951,62.825 58.951,62.932 59.016,62.891 59.016,62.994 59.079,62.953 59.079,63.059 59.143,63.018      59.143,63.122 59.207,63.081 59.207,63.186 59.271,63.145 59.271,63.25 59.335,63.209 59.335,63.313 59.398,63.271      59.398,63.377 59.463,63.336 59.463,63.441 59.527,63.4 59.527,63.505 59.591,63.464 59.591,63.568 59.654,63.527 59.654,63.633      59.719,63.592 59.719,63.695 59.782,63.654 59.782,63.761 59.848,63.721 59.848,63.824 59.91,63.783 59.91,63.889 59.975,63.848      59.975,63.952 60.038,63.911 60.038,64.018 60.102,63.977 60.102,64.08 60.166,64.039 60.166,64.145 60.229,64.104      60.229,64.208 60.294,64.167 60.294,64.271 60.357,64.23 60.357,64.336 60.422,64.295 60.422,64.398 60.484,64.357      60.484,64.463 60.549,64.422 60.549,64.527 60.613,64.486 60.613,64.591 60.678,64.55 60.678,64.654 60.741,64.613      60.741,64.719 60.805,64.678 60.805,64.782 60.869,64.741 60.869,64.848 60.934,64.807 60.934,64.91 60.997,64.869      60.997,64.975 61.061,64.934 61.061,65.038 61.125,64.997 61.125,65.102 61.188,65.061 61.188,65.166 61.253,65.125      61.253,65.229 61.316,65.188 61.316,65.293 61.381,65.252 61.381,65.357 61.443,65.316 61.443,65.421 61.509,65.38      61.509,65.484 61.572,65.443 61.572,65.549 61.637,65.508 61.637,65.611 61.7,65.57 61.7,65.677 61.764,65.636 61.764,65.74      61.828,65.699 61.828,65.805 61.893,65.764 61.893,65.868 61.956,65.827 61.956,65.934 62.02,65.893 62.02,65.996 62.084,65.955      62.084,66.061 62.146,66.02 62.146,66.124 62.212,66.083 62.212,66.188 62.275,66.146 62.275,66.252 62.34,66.211 62.34,66.314      62.402,66.273 62.402,66.379 62.468,66.338 62.468,66.443 62.531,66.402 62.531,66.507 62.596,66.466 62.596,66.57      62.659,66.529 62.659,66.635 62.723,66.594 62.723,66.698 62.787,66.657 62.787,66.764 62.852,66.723 62.852,66.826      62.915,66.785 62.915,66.891 62.979,66.85 62.979,66.954 63.043,66.913 63.043,67.02 63.105,66.979 63.105,67.082 63.171,67.041      63.171,67.146 63.234,67.105 63.234,67.21 63.299,67.169 63.299,67.273 63.361,67.232 63.361,67.338 63.426,67.297 63.426,67.4      63.49,67.359 63.49,67.465 63.555,67.424 63.555,67.529 63.618,67.488 63.618,67.593 63.682,67.552 63.682,67.656 63.746,67.615      63.746,67.721 63.811,67.68 63.811,67.784 63.874,67.743 63.874,67.85 63.938,67.809 63.938,67.912 64.002,67.871 64.002,67.977      64.064,67.936 64.064,68.04 64.13,67.999 64.13,68.104 64.193,68.063 64.193,68.168 64.258,68.127 64.258,68.23 64.32,68.189      64.32,68.296 64.387,68.255 64.387,68.359 64.449,68.318 64.449,68.423 64.514,68.382 64.514,68.486 64.577,68.445      64.577,68.551 64.643,68.51 64.643,68.614 64.705,68.573 64.705,68.68 64.77,68.639 64.77,68.742 64.833,68.701 64.833,68.807      64.896,68.766 64.896,68.87 64.961,68.829 64.961,68.936 65.023,68.895 65.023,68.998 65.089,68.957 65.089,69.063      65.152,69.021 65.152,69.126 65.217,69.085 65.217,69.189 65.279,69.148 65.279,69.254 65.344,69.213 65.344,69.316      65.408,69.275 65.408,69.381 65.473,69.34 65.473,69.445 65.536,69.404 65.536,69.509 65.6,69.468 65.6,69.572 65.664,69.531      65.664,69.637 65.729,69.596 65.729,69.7 65.792,69.659 65.792,69.766 65.855,69.725 65.855,69.828 65.92,69.787 65.92,69.893      65.982,69.852 65.982,69.956 66.048,69.915 66.048,70.021 66.111,69.979 66.111,70.084 66.175,70.043 66.175,70.146      66.238,70.105 66.238,70.212 66.305,70.171 66.305,70.275 66.367,70.234 66.367,70.34 66.432,70.299 66.432,70.402      66.495,70.361 66.495,70.467 66.561,70.426 66.561,70.531 66.623,70.49 66.623,70.596 66.688,70.555 66.688,70.658      66.751,70.617 66.751,70.723 66.814,70.682 66.814,70.786 66.879,70.745 66.879,70.852 66.941,70.811 66.941,70.914      67.006,70.873 67.006,70.979 67.07,70.938 67.07,71.042 67.135,71.001 67.135,71.105 67.198,71.064 67.198,71.17 67.262,71.129      67.262,71.232 67.326,71.191 67.326,71.298 67.391,71.257 67.391,71.361 67.454,71.32 67.454,71.425 67.518,71.384      67.518,71.489 67.582,71.448 67.582,71.553 67.646,71.512 67.646,71.616 67.71,71.575 67.71,71.682 67.773,71.641 67.773,71.744      67.837,71.703 67.837,71.809 67.9,71.768 67.9,71.873 67.966,71.832 67.966,71.938 68.029,71.896 68.029,72 79.029,64.959      79.029,62.917    "/><linearGradient gradientTransform="matrix(1 0 0 -1 -274 -299)" gradientUnits="userSpaceOnUse" id="SVGID_4_" x1="337.0322" x2="294.9766" y1="-367.9956" y2="-325.94"><stop offset="0.4745" style="stop-color:#000000;stop-opacity:0"/><stop offset="1" style="stop-color:#000000"/></linearGradient><polygon enable-background="new    " fill="url(#SVGID_4_)" opacity="0.3" points="60.029,56 59.965,56.041 59.965,55.936      59.9,55.977 59.9,55.872 59.837,55.912 59.837,55.809 59.773,55.85 59.773,55.745 59.71,55.785 59.71,55.682 59.646,55.721      59.646,55.617 59.582,55.657 59.582,55.553 59.518,55.594 59.518,55.489 59.454,55.529 59.454,55.425 59.391,55.465      59.391,55.361 59.326,55.402 59.326,55.297 59.264,55.337 59.264,55.232 59.198,55.273 59.198,55.17 59.135,55.21 59.135,55.105      59.07,55.146 59.07,55.042 59.006,55.082 59.006,54.979 58.941,55.02 58.941,54.914 58.878,54.955 58.878,54.852 58.814,54.891      58.814,54.786 58.751,54.826 58.751,54.723 58.688,54.764 58.688,54.659 58.623,54.699 58.623,54.596 58.559,54.635      58.559,54.531 58.495,54.57 58.495,54.467 58.432,54.507 58.432,54.402 58.367,54.443 58.367,54.339 58.305,54.379      58.305,54.275 58.238,54.316 58.238,54.212 58.176,54.252 58.176,54.146 58.111,54.188 58.111,54.084 58.047,54.125      58.047,54.02 57.982,54.061 57.982,53.956 57.92,53.996 57.92,53.893 57.855,53.934 57.855,53.828 57.792,53.868 57.792,53.766      57.729,53.805 57.729,53.701 57.664,53.741 57.664,53.637 57.6,53.678 57.6,53.573 57.536,53.613 57.536,53.509 57.473,53.549      57.473,53.445 57.408,53.486 57.408,53.381 57.346,53.421 57.346,53.316 57.279,53.357 57.279,53.253 57.217,53.293      57.217,53.189 57.152,53.23 57.152,53.126 57.088,53.166 57.088,53.063 57.023,53.102 57.023,52.998 56.961,53.038      56.961,52.936 56.896,52.975 56.896,52.87 56.833,52.91 56.833,52.807 56.77,52.848 56.77,52.742 56.705,52.782 56.705,52.68      56.643,52.719 56.643,52.615 56.577,52.656 56.577,52.551 56.514,52.591 56.514,52.486 56.449,52.527 56.449,52.423      56.387,52.463 56.387,52.359 56.32,52.4 56.32,52.295 56.258,52.335 56.258,52.23 56.193,52.271 56.193,52.168 56.129,52.209      56.129,52.104 56.064,52.145 56.064,52.04 56.002,52.08 56.002,51.977 55.938,52.018 55.938,51.912 55.874,51.952 55.874,51.85      55.811,51.889 55.811,51.784 55.746,51.824 55.746,51.721 55.684,51.761 55.684,51.657 55.618,51.697 55.618,51.593      55.555,51.633 55.555,51.529 55.49,51.57 55.49,51.465 55.427,51.505 55.427,51.4 55.361,51.441 55.361,51.337 55.299,51.377      55.299,51.273 55.234,51.314 55.234,51.209 55.17,51.25 55.17,51.146 55.105,51.186 55.105,51.082 55.043,51.122 55.043,51.018      54.979,51.059 54.979,50.954 54.915,50.994 54.915,50.891 54.852,50.932 54.852,50.826 54.787,50.867 54.787,50.764      54.725,50.803 54.725,50.699 54.659,50.74 54.659,50.635 54.596,50.675 54.596,50.57 54.531,50.611 54.531,50.507 54.468,50.547      54.468,50.443 54.402,50.484 54.402,50.379 54.34,50.419 54.34,50.314 54.275,50.355 54.275,50.251 54.211,50.291 54.211,50.188      54.146,50.229 54.146,50.124 54.084,50.164 54.084,50.061 54.02,50.1 54.02,49.996 53.956,50.036 53.956,49.934 53.893,49.973      53.893,49.868 53.828,49.908 53.828,49.805 53.766,49.846 53.766,49.74 53.7,49.781 53.7,49.677 53.637,49.717 53.637,49.613      53.572,49.654 53.572,49.549 53.509,49.589 53.509,49.484 53.443,49.525 53.443,49.422 53.381,49.462 53.381,49.357      53.316,49.398 53.316,49.293 53.253,49.333 53.253,49.229 53.188,49.27 53.188,49.166 53.125,49.206 53.125,49.102      53.061,49.143 53.061,49.038 52.997,49.078 52.997,48.975 52.934,49.016 52.934,48.91 52.869,48.951 52.869,48.848      52.807,48.887 52.807,48.782 52.741,48.822 52.741,48.719 52.678,48.759 52.678,48.654 52.613,48.695 52.613,48.591      52.55,48.631 52.55,48.527 52.484,48.568 52.484,48.463 52.422,48.503 52.422,48.398 52.357,48.439 52.357,48.335 52.294,48.375      52.294,48.271 52.229,48.313 52.229,48.207 52.166,48.247 52.166,48.145 52.102,48.184 52.102,48.08 52.038,48.12 52.038,48.016      51.975,48.057 51.975,47.952 51.91,47.992 51.91,47.889 51.848,47.93 51.848,47.824 51.782,47.865 51.782,47.761 51.719,47.801      51.719,47.697 51.654,47.738 51.654,47.633 51.591,47.673 51.591,47.568 51.525,47.609 51.525,47.506 51.463,47.546      51.463,47.441 51.398,47.482 51.398,47.378 51.335,47.418 51.335,47.313 51.271,47.354 51.271,47.25 51.207,47.291      51.207,47.186 51.143,47.227 51.143,47.122 51.079,47.162 51.079,47.059 51.016,47.098 51.016,46.994 50.951,47.035      50.951,46.93 50.889,46.971 50.889,46.866 50.823,46.906 50.823,46.803 50.76,46.843 50.76,46.738 50.695,46.779 50.695,46.675      50.632,46.715 50.632,46.611 50.566,46.652 50.566,46.547 50.504,46.587 50.504,46.482 50.439,46.523 50.439,46.42 50.376,46.46      50.376,46.355 50.313,46.396 50.313,46.291 50.248,46.332 50.248,46.229 50.184,46.268 50.184,46.164 50.12,46.204 50.12,46.1      50.057,46.141 50.057,46.036 49.992,46.076 49.992,45.973 49.93,46.014 49.93,45.908 49.863,45.949 49.863,45.846 49.801,45.885      49.801,45.779 49.736,45.82 49.736,45.717 49.673,45.757 49.673,45.652 49.607,45.693 49.607,45.589 49.545,45.629      49.545,45.525 49.48,45.566 49.48,45.461 49.417,45.501 49.417,45.396 49.354,45.438 49.354,45.334 49.289,45.375 49.289,45.27      49.227,45.311 49.227,45.205 49.161,45.246 49.161,45.143 49.098,45.182 49.098,45.078 49.033,45.119 49.033,45.014      48.971,45.055 48.971,44.95 48.904,44.99 48.904,44.887 48.842,44.927 48.842,44.822 48.777,44.863 48.777,44.759 48.714,44.799      48.714,44.695 48.648,44.736 48.648,44.631 48.586,44.671 48.586,44.566 48.521,44.607 48.521,44.503 48.458,44.543      48.458,44.439 48.395,44.479 48.395,44.375 48.33,44.416 48.33,44.313 48.268,44.352 48.268,44.247 48.202,44.287 48.202,44.184      48.139,44.225 48.139,44.119 48.074,44.16 48.074,44.057 48.012,44.096 48.012,43.992 47.945,44.033 47.945,43.928      47.883,43.968 47.883,43.864 47.818,43.904 47.818,43.801 47.755,43.841 47.755,43.736 47.691,43.775 47.691,43.673      47.627,43.713 47.627,43.609 47.563,43.65 47.563,43.545 47.499,43.585 47.499,43.48 47.436,43.521 47.436,43.418 47.371,43.459      47.371,43.354 47.309,43.395 47.309,43.29 47.243,43.33 47.243,43.227 47.18,43.266 47.18,43.162 47.115,43.203 47.115,43.098      47.052,43.139 47.052,43.034 46.986,43.074 46.986,42.971 46.924,43.011 46.924,42.906 46.859,42.947 46.859,42.843      46.796,42.883 46.796,42.777 46.732,42.818 46.732,42.715 46.668,42.756 46.668,42.65 46.604,42.691 46.604,42.587 46.54,42.627      46.54,42.523 46.477,42.563 46.477,42.459 46.412,42.5 46.412,42.396 46.35,42.436 46.35,42.332 46.284,42.373 46.284,42.268      46.221,42.309 46.221,42.203 46.156,42.244 46.156,42.141 46.093,42.18 46.093,42.076 46.027,42.117 46.027,42.012      45.965,42.052 45.965,41.948 45.9,41.988 45.9,41.885 45.837,41.925 45.837,41.82 45.773,41.859 45.773,41.757 45.709,41.797      45.709,41.693 45.645,41.734 45.645,41.629 45.581,41.669 45.581,41.564 45.518,41.605 45.518,41.501 45.453,41.541      45.453,41.438 45.391,41.479 45.391,41.373 45.325,41.414 45.325,41.311 45.262,41.35 45.262,41.246 45.197,41.287      45.197,41.182 45.134,41.223 45.134,41.117 45.068,41.158 45.068,41.055 45.006,41.094 45.006,40.99 44.941,41.031      44.941,40.926 44.878,40.966 44.878,40.861 44.814,40.902 44.814,40.799 44.75,40.84 44.75,40.734 44.686,40.775 44.686,40.671      44.622,40.711 44.622,40.607 44.559,40.646 44.559,40.543 44.494,40.584 44.494,40.479 44.432,40.52 44.432,40.416      44.366,40.457 44.366,40.352 44.303,40.393 44.303,40.288 44.238,40.328 44.238,40.225 44.175,40.264 44.175,40.16      44.109,40.201 44.109,40.096 44.047,40.136 44.047,40.032 43.982,40.072 43.982,39.969 43.919,40.01 43.919,39.904      43.854,39.945 43.854,39.84 43.791,39.88 43.791,39.777 43.729,39.816 43.729,39.713 43.663,39.754 43.663,39.648 43.6,39.689      43.6,39.585 43.535,39.625 43.535,39.521 43.473,39.563 43.473,39.458 43.407,39.498 43.407,39.395 43.344,39.434 43.344,39.329      43.279,39.369 43.279,39.266 43.216,39.307 43.216,39.202 43.152,39.242 43.152,39.139 43.088,39.178 43.088,39.074      43.023,39.115 43.023,39.011 42.961,39.05 42.961,38.947 42.896,38.988 42.896,38.883 42.832,38.924 42.832,38.818      42.768,38.859 42.768,38.755 42.705,38.794 42.705,38.691 42.641,38.732 42.641,38.627 42.576,38.668 42.576,38.563      42.514,38.604 42.514,38.5 42.449,38.54 42.449,38.436 42.385,38.477 42.385,38.371 42.32,38.412 42.32,38.307 42.257,38.348      42.257,38.244 42.193,38.284 42.193,38.18 42.129,38.221 42.129,38.116 42.064,38.156 42.064,38.052 42.001,38.092      42.001,37.988 41.938,38.027 41.938,37.925 41.873,37.965 41.873,37.859 41.809,37.9 41.809,37.796 41.745,37.836 41.745,37.732      41.682,37.771 41.682,37.669 41.617,37.709 41.617,37.605 41.555,37.646 41.555,37.541 41.488,37.582 41.488,37.479      41.426,37.518 41.426,37.414 41.361,37.455 41.361,37.35 41.297,37.391 41.297,37.285 41.234,37.324 41.234,37.223 41.17,37.262      41.17,37.158 41.105,37.199 41.105,37.094 41.042,37.134 41.042,37.029 40.979,37.068 40.979,36.967 40.914,37.008      40.914,36.902 40.85,36.943 40.85,36.838 40.786,36.878 40.786,36.773 40.723,36.814 40.723,36.711 40.658,36.752 40.658,36.646      40.596,36.688 40.596,36.583 40.529,36.623 40.529,36.52 40.467,36.559 40.467,36.455 40.402,36.495 40.402,36.393      40.339,36.432 40.339,36.327 40.273,36.367 40.273,36.264 40.211,36.305 40.211,36.2 40.146,36.24 40.146,36.137 40.083,36.178      40.083,36.072 40.02,36.113 40.02,36.008 39.955,36.048 39.955,35.943 39.893,35.984 39.893,35.881 39.827,35.922 39.827,35.816      39.764,35.855 39.764,35.752 39.699,35.793 39.699,35.689 39.637,35.729 39.637,35.625 39.572,35.665 39.572,35.561      39.508,35.602 39.508,35.497 39.443,35.537 39.443,35.434 39.38,35.475 39.38,35.369 39.316,35.409 39.316,35.307 39.252,35.346      39.252,35.242 39.188,35.283 39.188,35.178 39.125,35.217 39.125,35.114 39.061,35.154 39.061,35.05 38.996,35.09 38.996,34.986      38.934,35.025 38.934,34.922 38.869,34.962 38.869,34.857 38.805,34.898 38.805,34.795 38.74,34.836 38.74,34.73 38.677,34.771      38.677,34.667 38.613,34.707 38.613,34.604 38.549,34.645 38.549,34.539 38.484,34.58 38.484,34.477 38.421,34.516      38.421,34.411 38.357,34.451 38.357,34.348 38.293,34.389 38.293,34.283 38.229,34.324 38.229,34.221 38.165,34.26      38.165,34.156 38.102,34.195 38.102,34.092 38.037,34.133 38.037,34.027 37.975,34.068 37.975,33.965 37.909,34.006 37.909,33.9      37.846,33.939 37.846,33.837 37.781,33.877 37.781,33.771 37.717,33.813 37.717,33.709 37.654,33.748 37.654,33.645      37.59,33.686 37.59,33.581 37.525,33.621 37.525,33.518 37.462,33.559 37.462,33.453 37.398,33.493 37.398,33.391 37.334,33.43      37.334,33.326 37.27,33.367 37.27,33.262 37.206,33.302 37.206,33.197 37.143,33.236 37.143,33.134 37.078,33.174 37.078,33.07      37.016,33.109 37.016,33.006 36.95,33.047 36.95,32.941 36.887,32.982 36.887,32.879 36.823,32.919 36.823,32.814 36.759,32.855      36.759,32.75 36.693,32.791 36.693,32.688 36.631,32.727 36.631,32.623 36.566,32.663 36.566,32.561 36.503,32.6 36.503,32.495      36.438,32.535 36.438,32.431 36.375,32.471 36.375,32.367 36.313,32.407 36.313,32.304 36.247,32.344 36.247,32.239      36.184,32.279 36.184,32.176 36.119,32.216 36.119,32.112 36.057,32.152 36.057,32.048 35.991,32.089 35.991,31.984      35.928,32.024 35.928,31.92 35.863,31.96 35.863,31.856 35.8,31.897 35.8,31.793 35.736,31.833 35.736,31.729 35.672,31.769      35.672,31.665 35.607,31.706 35.607,31.601 35.545,31.641 35.545,31.537 35.48,31.578 35.48,31.473 35.416,31.514 35.416,31.409      35.354,31.449 35.354,31.346 35.288,31.386 35.288,31.282 35.225,31.322 35.225,31.218 35.16,31.258 35.16,31.154 35.098,31.194      35.098,31.09 35.033,31.13 35.033,31.026 34.969,31.067 34.969,30.962 34.904,31.002 34.904,30.898 34.841,30.938 34.841,30.834      34.777,30.875 34.777,30.771 34.713,30.811 34.713,30.707 34.648,30.747 34.648,30.643 34.585,30.683 34.585,30.579      34.521,30.619 34.521,30.515 34.457,30.556 34.457,30.452 34.395,30.492 34.395,30.387 34.329,30.428 34.329,30.324      34.266,30.364 34.266,30.26 34.201,30.3 34.201,30.196 34.139,30.236 34.139,30.132 34.074,30.172 34.074,30.068 34.01,30.109      34.01,30.004 33.945,30.045 33.945,29.94 33.881,29.981 33.881,29.876 33.818,29.916 33.818,29.813 33.754,29.853 33.754,29.749      33.689,29.79 33.689,29.685 33.626,29.725 33.626,29.621 33.563,29.661 33.563,29.557 33.498,29.598 33.498,29.493      33.436,29.533 33.436,29.43 33.37,29.47 33.37,29.365 33.307,29.405 33.307,29.302 33.242,29.342 33.242,29.238 33.18,29.278      33.18,29.174 33.113,29.214 33.113,29.11 33.051,29.15 33.051,29.046 32.986,29.086 32.986,28.982 32.923,29.023 32.923,28.918      32.857,28.959 32.857,28.854 32.795,28.895 32.795,28.791 32.73,28.831 32.73,28.727 32.667,28.767 32.667,28.663 32.604,28.703      32.604,28.599 32.539,28.639 32.539,28.535 32.476,28.575 32.476,28.471 32.411,28.512 32.411,28.408 32.347,28.448      32.347,28.343 32.284,28.383 32.284,28.279 32.22,28.319 32.22,28.216 32.156,28.256 32.156,28.152 32.091,28.193 32.091,28.088      32.028,28.128 32.028,28.024 31.964,28.064 31.964,27.96 31.9,28.001 31.9,27.896 31.836,27.937 31.836,27.833 31.772,27.873      31.772,27.769 31.708,27.809 31.708,27.705 31.645,27.745 31.645,27.641 31.58,27.682 31.58,27.577 31.517,27.617 31.517,27.513      31.453,27.553 31.453,27.449 31.389,27.489 31.389,27.386 31.325,27.426 31.325,27.321 31.261,27.361 31.261,27.258      31.197,27.298 31.197,27.194 31.133,27.234 31.133,27.13 31.068,27.17 31.068,27.066 31.005,27.106 31.005,27.002 30.941,27.042      30.941,26.938 30.877,26.979 30.877,26.875 30.813,26.915 30.813,26.811 30.749,26.851 30.749,26.747 30.686,26.787      30.686,26.683 30.621,26.723 30.621,26.619 30.557,26.659 30.557,26.555 30.493,26.595 30.493,26.491 30.43,26.531 30.43,26.427      30.366,26.467 30.366,26.364 30.301,26.404 30.301,26.299 30.238,26.339 30.238,26.235 30.174,26.275 30.174,26.172      30.11,26.212 30.11,26.108 30.046,26.148 30.046,26.044 29.982,26.084 29.982,25.98 29.918,26.02 29.918,25.917 29.854,25.957      29.854,25.853 29.79,25.893 29.79,25.789 29.727,25.829 29.727,25.725 29.662,25.765 29.662,25.661 29.599,25.701 29.599,25.597      29.535,25.637 29.535,25.533 29.47,25.574 29.47,25.469 29.407,25.509 29.407,25.406 29.342,25.446 29.342,25.341 29.279,25.381      29.279,25.278 29.215,25.318 29.215,25.213 29.151,25.253 29.151,25.15 29.087,25.19 29.087,25.086 29.023,25.126 29.023,25.022      28.959,25.063 28.959,24.958 28.895,24.998 28.895,24.895 28.831,24.935 28.831,24.831 28.767,24.871 28.767,24.767      28.703,24.807 28.703,24.703 28.639,24.743 28.639,24.639 28.576,24.679 28.576,24.575 28.511,24.616 28.511,24.511      28.448,24.551 28.448,24.447 28.383,24.488 28.383,24.384 28.32,24.424 28.32,24.32 28.256,24.36 28.256,24.256 28.192,24.296      28.192,24.192 28.128,24.232 28.128,24.128 28.063,24.168 28.063,24.064 28,24.104 28,24 17,30.917 17,32.958 17.064,32.999      17.064,33.021 17.128,33.063 17.128,33.086 17.192,33.127 17.192,33.148 17.256,33.189 17.256,33.214 17.32,33.255 17.32,33.277      17.383,33.318 17.383,33.342 17.448,33.383 17.448,33.404 17.512,33.445 17.512,33.469 17.576,33.51 17.576,33.533 17.64,33.574      17.64,33.598 17.704,33.639 17.704,33.661 17.768,33.702 17.768,33.725 17.832,33.766 17.832,33.789 17.895,33.83 17.895,33.854      17.959,33.895 17.959,33.916 18.023,33.957 18.023,33.98 18.087,34.021 18.087,34.044 18.151,34.085 18.151,34.107      18.215,34.148 18.215,34.172 18.279,34.213 18.279,34.236 18.343,34.277 18.343,34.3 18.407,34.341 18.407,34.363 18.471,34.404      18.471,34.427 18.535,34.468 18.535,34.491 18.599,34.532 18.599,34.555 18.663,34.596 18.663,34.619 18.727,34.66      18.727,34.684 18.79,34.725 18.79,34.747 18.854,34.788 18.854,34.811 18.918,34.852 18.918,34.874 18.982,34.915 18.982,34.938      19.046,34.979 19.046,35.002 19.11,35.043 19.11,35.066 19.174,35.107 19.174,35.13 19.238,35.171 19.238,35.193 19.301,35.234      19.301,35.258 19.366,35.299 19.366,35.32 19.43,35.361 19.43,35.386 19.493,35.427 19.493,35.449 19.558,35.49 19.558,35.514      19.621,35.555 19.621,35.577 19.686,35.618 19.686,35.641 19.75,35.682 19.75,35.704 19.813,35.745 19.813,35.77 19.877,35.811      19.877,35.833 19.941,35.874 19.941,35.896 20.005,35.938 20.005,35.96 20.069,36.001 20.069,36.023 20.133,36.064      20.133,36.088 20.197,36.129 20.197,36.152 20.261,36.193 20.261,36.216 20.324,36.257 20.324,36.279 20.388,36.32      20.388,36.344 20.453,36.385 20.453,36.407 20.517,36.448 20.517,36.471 20.58,36.512 20.58,36.535 20.645,36.576 20.645,36.6      20.708,36.641 20.708,36.663 20.772,36.704 20.772,36.727 20.836,36.768 20.836,36.79 20.9,36.831 20.9,36.854 20.964,36.896      20.964,36.919 21.028,36.96 21.028,36.982 21.091,37.023 21.091,37.046 21.156,37.087 21.156,37.109 21.22,37.15 21.22,37.174      21.283,37.215 21.283,37.238 21.348,37.279 21.348,37.302 21.411,37.343 21.411,37.365 21.476,37.406 21.476,37.43      21.539,37.471 21.539,37.493 21.603,37.534 21.603,37.557 21.667,37.598 21.667,37.621 21.731,37.662 21.731,37.686      21.795,37.727 21.795,37.749 21.859,37.79 21.859,37.813 21.923,37.854 21.923,37.877 21.987,37.918 21.987,37.939 22.051,37.98      22.051,38.004 22.114,38.045 22.114,38.066 22.178,38.107 22.178,38.132 22.243,38.173 22.243,38.195 22.307,38.236      22.307,38.26 22.37,38.301 22.37,38.323 22.435,38.364 22.435,38.389 22.499,38.43 22.499,38.451 22.563,38.492 22.563,38.516      22.626,38.557 22.626,38.578 22.69,38.619 22.69,38.643 22.754,38.684 22.754,38.707 22.818,38.748 22.818,38.771 22.881,38.813      22.881,38.834 22.946,38.875 22.946,38.898 23.01,38.939 23.01,38.963 23.074,39.004 23.074,39.025 23.137,39.066 23.137,39.09      23.201,39.131 23.201,39.152 23.266,39.193 23.266,39.218 23.329,39.259 23.329,39.281 23.393,39.322 23.393,39.346      23.458,39.389 23.458,39.409 23.521,39.45 23.521,39.475 23.585,39.516 23.585,39.537 23.649,39.578 23.649,39.602      23.713,39.643 23.713,39.664 23.777,39.705 23.777,39.729 23.841,39.771 23.841,39.793 23.904,39.834 23.904,39.855      23.969,39.896 23.969,39.92 24.033,39.961 24.033,39.984 24.096,40.025 24.096,40.048 24.16,40.089 24.16,40.111 24.225,40.152      24.225,40.176 24.288,40.217 24.288,40.24 24.353,40.281 24.353,40.305 24.416,40.346 24.416,40.367 24.48,40.408 24.48,40.432      24.544,40.473 24.544,40.495 24.608,40.536 24.608,40.559 24.672,40.6 24.672,40.622 24.736,40.663 24.736,40.688 24.8,40.729      24.8,40.751 24.864,40.792 24.864,40.814 24.927,40.855 24.927,40.878 24.991,40.919 24.991,40.941 25.056,40.982 25.056,41.006      25.119,41.047 25.119,41.07 25.183,41.111 25.183,41.134 25.247,41.175 25.247,41.197 25.312,41.238 25.312,41.262      25.375,41.303 25.375,41.326 25.439,41.367 25.439,41.389 25.503,41.43 25.503,41.453 25.567,41.494 25.567,41.518      25.631,41.559 25.631,41.581 25.694,41.622 25.694,41.645 25.759,41.686 25.759,41.709 25.823,41.75 25.823,41.773      25.887,41.814 25.887,41.837 25.95,41.878 25.95,41.9 26.015,41.941 26.015,41.964 26.079,42.005 26.079,42.027 26.143,42.068      26.143,42.092 26.206,42.133 26.206,42.154 26.271,42.195 26.271,42.221 26.334,42.261 26.334,42.284 26.398,42.325      26.398,42.348 26.462,42.389 26.462,42.411 26.526,42.452 26.526,42.475 26.59,42.516 26.59,42.539 26.654,42.58 26.654,42.604      26.717,42.645 26.717,42.666 26.781,42.707 26.781,42.73 26.846,42.771 26.846,42.795 26.909,42.836 26.909,42.857      26.974,42.898 26.974,42.922 27.037,42.963 27.037,42.986 27.102,43.027 27.102,43.051 27.165,43.092 27.165,43.113      27.229,43.154 27.229,43.178 27.293,43.219 27.293,43.242 27.357,43.283 27.357,43.307 27.421,43.348 27.421,43.369      27.484,43.41 27.484,43.434 27.549,43.475 27.549,43.497 27.613,43.538 27.613,43.563 27.677,43.604 27.677,43.625 27.74,43.666      27.74,43.688 27.805,43.729 27.805,43.753 27.869,43.794 27.869,43.816 27.933,43.857 27.933,43.881 27.996,43.922      27.996,43.943 28.061,43.984 28.061,44.008 28.124,44.049 28.124,44.072 28.188,44.113 28.188,44.136 28.252,44.177      28.252,44.199 28.316,44.24 28.316,44.264 28.38,44.305 28.38,44.328 28.444,44.369 28.444,44.393 28.507,44.434 28.507,44.455      28.572,44.496 28.572,44.52 28.636,44.561 28.636,44.583 28.699,44.624 28.699,44.646 28.764,44.688 28.764,44.71 28.827,44.751      28.827,44.773 28.892,44.814 28.892,44.839 28.955,44.88 28.955,44.902 29.019,44.943 29.019,44.966 29.083,45.007      29.083,45.029 29.147,45.07 29.147,45.094 29.211,45.135 29.211,45.158 29.275,45.199 29.275,45.223 29.339,45.264      29.339,45.285 29.403,45.326 29.403,45.35 29.467,45.391 29.467,45.413 29.53,45.454 29.53,45.477 29.595,45.518 29.595,45.541      29.659,45.582 29.659,45.605 29.723,45.646 29.723,45.669 29.786,45.71 29.786,45.732 29.851,45.773 29.851,45.797      29.914,45.838 29.914,45.861 29.979,45.902 29.979,45.924 30.042,45.965 30.042,45.988 30.106,46.029 30.106,46.052      30.17,46.093 30.17,46.116 30.234,46.157 30.234,46.18 30.297,46.221 30.297,46.244 30.362,46.285 30.362,46.309 30.426,46.35      30.426,46.372 30.489,46.413 30.489,46.436 30.554,46.477 30.554,46.499 30.617,46.54 30.617,46.563 30.682,46.604      30.682,46.627 30.745,46.668 30.745,46.689 30.809,46.73 30.809,46.755 30.873,46.796 30.873,46.818 30.938,46.859      30.938,46.883 31.001,46.924 31.001,46.945 31.065,46.986 31.065,47.01 31.129,47.051 31.129,47.074 31.193,47.115      31.193,47.139 31.257,47.18 31.257,47.201 31.32,47.242 31.32,47.266 31.385,47.307 31.385,47.33 31.449,47.371 31.449,47.395      31.513,47.436 31.513,47.457 31.576,47.498 31.576,47.521 31.641,47.563 31.641,47.585 31.704,47.626 31.704,47.648      31.769,47.689 31.769,47.713 31.832,47.754 31.832,47.775 31.896,47.816 31.896,47.841 31.96,47.882 31.96,47.904 32.024,47.945      32.024,47.969 32.087,48.01 32.087,48.031 32.152,48.072 32.152,48.096 32.216,48.137 32.216,48.16 32.28,48.201 32.28,48.225      32.344,48.266 32.344,48.287 32.407,48.328 32.407,48.352 32.472,48.393 32.472,48.416 32.535,48.457 32.535,48.479 32.6,48.521      32.6,48.543 32.663,48.584 32.663,48.605 32.729,48.646 32.729,48.671 32.791,48.712 32.791,48.734 32.855,48.775 32.855,48.799      32.919,48.84 32.919,48.861 32.982,48.902 32.982,48.927 33.047,48.968 33.047,48.99 33.111,49.031 33.111,49.055 33.175,49.096      33.175,49.118 33.238,49.159 33.238,49.182 33.303,49.223 33.303,49.246 33.366,49.287 33.366,49.311 33.43,49.352 33.43,49.373      33.494,49.414 33.494,49.438 33.559,49.479 33.559,49.501 33.622,49.542 33.622,49.564 33.688,49.605 33.688,49.629 33.75,49.67      33.75,49.691 33.814,49.732 33.814,49.757 33.878,49.798 33.878,49.82 33.941,49.861 33.941,49.885 34.006,49.926 34.006,49.948      34.068,49.989 34.068,50.012 34.134,50.053 34.134,50.076 34.197,50.117 34.197,50.141 34.262,50.182 34.262,50.204      34.325,50.245 34.325,50.268 34.391,50.309 34.391,50.331 34.453,50.372 34.453,50.396 34.518,50.438 34.518,50.459 34.581,50.5      34.581,50.523 34.645,50.564 34.645,50.587 34.709,50.628 34.709,50.65 34.771,50.691 34.771,50.715 34.837,50.756      34.837,50.777 34.9,50.818 34.9,50.843 34.965,50.884 34.965,50.906 35.029,50.947 35.029,50.971 35.093,51.012 35.093,51.034      35.156,51.075 35.156,51.098 35.221,51.139 35.221,51.162 35.284,51.203 35.284,51.227 35.348,51.268 35.348,51.289      35.412,51.33 35.412,51.354 35.477,51.395 35.477,51.418 35.54,51.459 35.54,51.48 35.604,51.521 35.604,51.545 35.668,51.586      35.668,51.609 35.732,51.65 35.732,51.673 35.796,51.714 35.796,51.736 35.859,51.777 35.859,51.801 35.924,51.842      35.924,51.864 35.986,51.904 35.986,51.928 36.052,51.969 36.052,51.992 36.115,52.033 36.115,52.057 36.18,52.098 36.18,52.12      36.243,52.161 36.243,52.184 36.309,52.225 36.309,52.248 36.371,52.289 36.371,52.313 36.436,52.354 36.436,52.375      36.499,52.416 36.499,52.439 36.563,52.48 36.563,52.503 36.627,52.544 36.627,52.566 36.689,52.607 36.689,52.631      36.755,52.672 36.755,52.693 36.818,52.734 36.818,52.759 36.883,52.8 36.883,52.822 36.947,52.863 36.947,52.887 37.01,52.927      37.01,52.95 37.074,52.991 37.074,53.014 37.139,53.055 37.139,53.078 37.202,53.119 37.202,53.143 37.266,53.184 37.266,53.206      37.33,53.247 37.33,53.27 37.395,53.311 37.395,53.333 37.458,53.374 37.458,53.396 37.521,53.438 37.521,53.461 37.586,53.502      37.586,53.525 37.65,53.566 37.65,53.589 37.713,53.629 37.713,53.652 37.777,53.693 37.777,53.717 37.842,53.758 37.842,53.779      37.904,53.82 37.904,53.846 37.971,53.886 37.971,53.908 38.033,53.949 38.033,53.973 38.098,54.014 38.098,54.036      38.161,54.077 38.161,54.1 38.225,54.141 38.225,54.164 38.289,54.205 38.289,54.229 38.354,54.27 38.354,54.291 38.417,54.332      38.417,54.355 38.48,54.396 38.48,54.42 38.545,54.461 38.545,54.482 38.607,54.523 38.607,54.547 38.673,54.588 38.673,54.611      38.736,54.652 38.736,54.675 38.801,54.716 38.801,54.738 38.863,54.779 38.863,54.803 38.928,54.844 38.928,54.866      38.992,54.907 38.992,54.93 39.057,54.971 39.057,54.994 39.12,55.035 39.12,55.059 39.186,55.1 39.186,55.122 39.248,55.163      39.248,55.186 39.313,55.227 39.313,55.25 39.376,55.291 39.376,55.313 39.439,55.354 39.439,55.377 39.504,55.418      39.504,55.441 39.566,55.482 39.566,55.505 39.632,55.546 39.632,55.568 39.695,55.609 39.695,55.633 39.76,55.674 39.76,55.695      39.823,55.736 39.823,55.761 39.889,55.802 39.889,55.824 39.951,55.865 39.951,55.889 40.016,55.93 40.016,55.952      40.079,55.993 40.079,56.016 40.143,56.057 40.143,56.08 40.207,56.121 40.207,56.145 40.271,56.186 40.271,56.208      40.335,56.249 40.335,56.271 40.398,56.313 40.398,56.336 40.463,56.377 40.463,56.398 40.525,56.439 40.525,56.463      40.591,56.504 40.591,56.527 40.654,56.568 40.654,56.591 40.719,56.632 40.719,56.654 40.782,56.695 40.782,56.719      40.846,56.76 40.846,56.782 40.91,56.823 40.91,56.848 40.975,56.889 40.975,56.91 41.038,56.951 41.038,56.975 41.104,57.016      41.104,57.038 41.166,57.079 41.166,57.102 41.23,57.143 41.23,57.166 41.294,57.207 41.294,57.229 41.357,57.271 41.357,57.293      41.422,57.334 41.422,57.357 41.484,57.398 41.484,57.422 41.55,57.463 41.55,57.484 41.613,57.525 41.613,57.549 41.678,57.59      41.678,57.613 41.741,57.654 41.741,57.677 41.807,57.718 41.807,57.74 41.869,57.781 41.869,57.805 41.934,57.846      41.934,57.868 41.997,57.909 41.997,57.932 42.061,57.973 42.061,57.996 42.125,58.037 42.125,58.061 42.188,58.102      42.188,58.124 42.253,58.165 42.253,58.188 42.316,58.229 42.316,58.252 42.381,58.293 42.381,58.314 42.445,58.355      42.445,58.379 42.509,58.42 42.509,58.443 42.572,58.484 42.572,58.507 42.637,58.548 42.637,58.57 42.7,58.611 42.7,58.635      42.764,58.676 42.764,58.698 42.828,58.739 42.828,58.764 42.893,58.805 42.893,58.826 42.956,58.867 42.956,58.891      43.02,58.932 43.02,58.954 43.084,58.995 43.084,59.018 43.146,59.059 43.146,59.082 43.212,59.123 43.212,59.146 43.275,59.188      43.275,59.21 43.34,59.251 43.34,59.273 43.402,59.314 43.402,59.337 43.468,59.378 43.468,59.4 43.531,59.441 43.531,59.465      43.596,59.506 43.596,59.529 43.659,59.57 43.659,59.593 43.723,59.634 43.723,59.656 43.787,59.697 43.787,59.721      43.852,59.762 43.852,59.784 43.915,59.825 43.915,59.85 43.979,59.891 43.979,59.912 44.043,59.953 44.043,59.977      44.105,60.018 44.105,60.04 44.171,60.081 44.171,60.104 44.234,60.145 44.234,60.168 44.299,60.209 44.299,60.23 44.361,60.271      44.361,60.295 44.426,60.336 44.426,60.359 44.49,60.4 44.49,60.424 44.555,60.465 44.555,60.486 44.618,60.527 44.618,60.551      44.682,60.592 44.682,60.615 44.746,60.656 44.746,60.68 44.811,60.721 44.811,60.742 44.874,60.783 44.874,60.807      44.938,60.848 44.938,60.87 45.002,60.911 45.002,60.934 45.064,60.975 45.064,60.998 45.129,61.039 45.129,61.063      45.193,61.104 45.193,61.126 45.257,61.167 45.257,61.189 45.32,61.23 45.32,61.254 45.387,61.295 45.387,61.316 45.449,61.357      45.449,61.381 45.514,61.422 45.514,61.445 45.577,61.486 45.577,61.509 45.641,61.55 45.641,61.573 45.705,61.614      45.705,61.637 45.77,61.678 45.77,61.7 45.833,61.741 45.833,61.766 45.896,61.807 45.896,61.828 45.961,61.869 45.961,61.893      46.023,61.934 46.023,61.956 46.089,61.997 46.089,62.021 46.152,62.063 46.152,62.084 46.217,62.125 46.217,62.146      46.279,62.188 46.279,62.212 46.344,62.253 46.344,62.275 46.408,62.316 46.408,62.339 46.473,62.38 46.473,62.402      46.536,62.443 46.536,62.467 46.6,62.508 46.6,62.531 46.664,62.572 46.664,62.596 46.729,62.636 46.729,62.658 46.792,62.699      46.792,62.723 46.855,62.764 46.855,62.786 46.92,62.827 46.92,62.852 46.982,62.893 46.982,62.914 47.047,62.955 47.047,62.979      47.111,63.02 47.111,63.042 47.176,63.083 47.176,63.105 47.238,63.146 47.238,63.17 47.305,63.211 47.305,63.232 47.367,63.273      47.367,63.297 47.432,63.338 47.432,63.361 47.495,63.402 47.495,63.425 47.559,63.466 47.559,63.489 47.623,63.529      47.623,63.553 47.688,63.594 47.688,63.617 47.751,63.658 47.751,63.682 47.814,63.723 47.814,63.744 47.879,63.785      47.879,63.809 47.941,63.85 47.941,63.872 48.007,63.913 48.007,63.936 48.07,63.977 48.07,64 48.134,64.041 48.134,64.063      48.198,64.104 48.198,64.128 48.262,64.169 48.262,64.191 48.326,64.232 48.326,64.256 48.391,64.297 48.391,64.318      48.454,64.359 48.454,64.383 48.518,64.424 48.518,64.447 48.582,64.488 48.582,64.511 48.646,64.552 48.646,64.575      48.71,64.616 48.71,64.639 48.773,64.68 48.773,64.702 48.837,64.743 48.837,64.768 48.9,64.809 48.9,64.83 48.966,64.871      48.966,64.895 49.029,64.936 49.029,64.958 60.029,72 60.029,69 59.965,68.96 59.965,68.938 59.9,68.896 59.9,68.872      59.837,68.832 59.837,68.809 59.773,68.77 59.773,68.744 59.71,68.704 59.71,68.682 59.646,68.641 59.646,68.617 59.582,68.577      59.582,68.553 59.518,68.514 59.518,68.489 59.454,68.449 59.454,68.425 59.391,68.385 59.391,68.361 59.326,68.32      59.326,68.298 59.264,68.258 59.264,68.232 59.198,68.193 59.198,68.17 59.135,68.13 59.135,68.105 59.07,68.064 59.07,68.042      59.006,68.002 59.006,67.979 58.941,67.938 58.941,67.914 58.878,67.874 58.878,67.852 58.814,67.811 58.814,67.786      58.751,67.746 58.751,67.723 58.688,67.684 58.688,67.659 58.623,67.619 58.623,67.596 58.559,67.555 58.559,67.531      58.495,67.491 58.495,67.467 58.432,67.427 58.432,67.402 58.367,67.363 58.367,67.34 58.305,67.3 58.305,67.275 58.238,67.234      58.238,67.212 58.176,67.172 58.176,67.146 58.111,67.107 58.111,67.084 58.047,67.044 58.047,67.021 57.982,66.98      57.982,66.956 57.92,66.916 57.92,66.893 57.855,66.854 57.855,66.828 57.792,66.788 57.792,66.766 57.729,66.725 57.729,66.701      57.664,66.661 57.664,66.637 57.6,66.598 57.6,66.572 57.536,66.532 57.536,66.509 57.473,66.469 57.473,66.445 57.408,66.404      57.408,66.382 57.346,66.342 57.346,66.316 57.279,66.277 57.279,66.254 57.217,66.214 57.217,66.189 57.152,66.148      57.152,66.126 57.088,66.086 57.088,66.063 57.023,66.021 57.023,65.998 56.961,65.958 56.961,65.934 56.896,65.895      56.896,65.87 56.833,65.83 56.833,65.807 56.77,65.768 56.77,65.743 56.705,65.703 56.705,65.68 56.643,65.639 56.643,65.614      56.577,65.574 56.577,65.551 56.514,65.511 56.514,65.486 56.449,65.447 56.449,65.424 56.387,65.384 56.387,65.359      56.32,65.318 56.32,65.295 56.258,65.255 56.258,65.23 56.193,65.191 56.193,65.168 56.129,65.128 56.129,65.104 56.064,65.064      56.064,65.04 56.002,65 56.002,64.977 55.938,64.938 55.938,64.912 55.874,64.872 55.874,64.85 55.811,64.809 55.811,64.785      55.746,64.745 55.746,64.721 55.684,64.682 55.684,64.656 55.618,64.616 55.618,64.593 55.555,64.553 55.555,64.529      55.49,64.489 55.49,64.465 55.427,64.425 55.427,64.4 55.361,64.361 55.361,64.337 55.299,64.297 55.299,64.273 55.234,64.232      55.234,64.21 55.17,64.17 55.17,64.146 55.105,64.105 55.105,64.082 55.043,64.042 55.043,64.018 54.979,63.979 54.979,63.954      54.915,63.914 54.915,63.891 54.852,63.852 54.852,63.826 54.787,63.786 54.787,63.764 54.725,63.723 54.725,63.698      54.659,63.658 54.659,63.635 54.596,63.596 54.596,63.57 54.531,63.531 54.531,63.507 54.468,63.467 54.468,63.443      54.402,63.402 54.402,63.379 54.34,63.339 54.34,63.314 54.275,63.275 54.275,63.252 54.211,63.212 54.211,63.188 54.146,63.146      54.146,63.124 54.084,63.084 54.084,63.061 54.02,63.02 54.02,62.996 53.956,62.956 53.956,62.934 53.893,62.893 53.893,62.868      53.866,62.852 60.029,59    "/></g></g></g><g id="_x3C__x3E_"><polygon fill="#FFFFFF" id="_x3E__1_" points="47,30.917 36,24 36,27 44,32 36,37 36,40 47,32.959  "/><polygon fill="#FFFFFF" id="_x3C__1_" points="17,30.917 28,24 28,27 20,32 28,37 28,40 17,32.958  "/></g></svg>