<?xml version="1.0" ?><!DOCTYPE svg  PUBLIC '-//W3C//DTD SVG 1.1//EN'  'http://www.w3.org/Graphics/SVG/1.1/DTD/svg11.dtd'><svg enable-background="new 0 0 64 64" height="64px" id="MySpace" version="1.1" viewBox="0 0 64 64" width="64px" xml:space="preserve" xmlns="http://www.w3.org/2000/svg" xmlns:xlink="http://www.w3.org/1999/xlink"><linearGradient gradientTransform="matrix(1 0 0 -1 -1370 -1753)" gradientUnits="userSpaceOnUse" id="Circle_Shadow_1_" x1="1434.0303" x2="1402.0295" y1="-1816.9995" y2="-1784.9989"><stop offset="0.3163" style="stop-color:#FFFFFF;stop-opacity:0"/><stop offset="0.3508" style="stop-color:#E9E9E9;stop-opacity:0.0504"/><stop offset="0.4543" style="stop-color:#ACACAC;stop-opacity:0.2018"/><stop offset="0.5572" style="stop-color:#787878;stop-opacity:0.3523"/><stop offset="0.6569" style="stop-color:#4D4D4D;stop-opacity:0.4981"/><stop offset="0.7528" style="stop-color:#2B2B2B;stop-opacity:0.6385"/><stop offset="0.8441" style="stop-color:#131313;stop-opacity:0.7719"/><stop offset="0.9286" style="stop-color:#050505;stop-opacity:0.8956"/><stop offset="1" style="stop-color:#000000"/></linearGradient><polygon enable-background="new    " fill="url(#Circle_Shadow_1_)" id="Circle_Shadow" opacity="0.2" points="64.029,64   64.029,30.059 49,15.029 15.059,48.971 30.088,64 "/><circle cx="32" cy="32" fill="#484848" id="Circle" r="24"/><g id="Shadow"><g><defs><circle cx="32.029" cy="32" id="SVGID_1_" r="24"/></defs><clipPath id="SVGID_2_"><use overflow="visible" xlink:href="#SVGID_1_"/></clipPath><linearGradient gradientTransform="matrix(1 0 0 -1 -274 -299)" gradientUnits="userSpaceOnUse" id="SVGID_3_" x1="348.8555" x2="297.594" y1="-375.4243" y2="-324.1629"><stop offset="0.5459" style="stop-color:#000000;stop-opacity:0"/><stop offset="0.547" style="stop-color:#000000;stop-opacity:0.0025"/><stop offset="1" style="stop-color:#000000"/></linearGradient><path clip-path="url(#SVGID_2_)" d="M76.484,68.01    c-0.035-0.037-0.072-0.072-0.108-0.109c-0.033-0.034-0.067-0.068-0.103-0.104c-0.037-0.038-0.074-0.076-0.112-0.113    c-0.033-0.035-0.067-0.067-0.101-0.103c-0.037-0.038-0.074-0.076-0.112-0.113c-0.033-0.034-0.067-0.067-0.101-0.103    c-0.037-0.037-0.072-0.073-0.108-0.11c-0.035-0.037-0.072-0.073-0.108-0.108c-0.035-0.037-0.07-0.072-0.107-0.108    c-0.031-0.034-0.065-0.067-0.1-0.103c-0.035-0.037-0.072-0.072-0.107-0.109c-0.037-0.038-0.073-0.075-0.11-0.112    c-0.034-0.036-0.069-0.069-0.104-0.104c-0.035-0.037-0.072-0.074-0.109-0.11c-0.033-0.035-0.067-0.067-0.102-0.103    c-0.035-0.037-0.07-0.073-0.106-0.109c-0.035-0.038-0.073-0.074-0.11-0.112c-0.033-0.034-0.066-0.067-0.102-0.103    c-0.036-0.039-0.074-0.076-0.112-0.114c-0.033-0.035-0.067-0.067-0.101-0.103c-0.037-0.039-0.074-0.076-0.112-0.113    c-0.033-0.035-0.067-0.068-0.101-0.104c-0.035-0.037-0.071-0.072-0.106-0.107c-0.037-0.038-0.074-0.076-0.112-0.113    c-0.001-0.002-0.003-0.003-0.004-0.005c2.334-0.423,4.105-2.454,4.105-4.91c0-1.405-0.584-2.673-1.52-3.581    c-0.035-0.035-0.068-0.072-0.105-0.107c-0.034-0.035-0.069-0.071-0.105-0.107c-0.035-0.036-0.07-0.072-0.105-0.107    s-0.069-0.072-0.105-0.106c-0.036-0.037-0.072-0.074-0.109-0.11c-0.033-0.035-0.067-0.07-0.104-0.104    c-0.035-0.037-0.07-0.073-0.105-0.109c-0.037-0.037-0.071-0.072-0.108-0.109c-0.035-0.035-0.069-0.07-0.104-0.104    c-0.035-0.038-0.07-0.074-0.107-0.11c-0.034-0.035-0.068-0.07-0.104-0.104c-0.037-0.038-0.072-0.074-0.109-0.11    c-0.034-0.036-0.069-0.073-0.106-0.108c-0.034-0.037-0.067-0.071-0.104-0.105c-0.034-0.037-0.069-0.072-0.105-0.109    c-0.036-0.035-0.07-0.072-0.105-0.106c-0.035-0.036-0.07-0.072-0.106-0.106c-0.035-0.037-0.069-0.072-0.104-0.107    c-0.037-0.038-0.071-0.074-0.109-0.111c-0.034-0.035-0.068-0.07-0.104-0.104c-0.037-0.039-0.072-0.074-0.109-0.111    c-0.034-0.035-0.068-0.07-0.104-0.105s-0.071-0.072-0.106-0.108c-0.036-0.036-0.07-0.072-0.106-0.107    c-0.034-0.036-0.069-0.071-0.104-0.106c-0.036-0.037-0.072-0.074-0.109-0.11c-0.034-0.035-0.068-0.069-0.104-0.104    c-0.037-0.037-0.072-0.073-0.109-0.11c-0.034-0.035-0.068-0.07-0.104-0.104c-0.037-0.037-0.072-0.074-0.108-0.109    c-0.035-0.036-0.069-0.071-0.104-0.106c-0.035-0.036-0.07-0.073-0.107-0.108c-0.034-0.035-0.068-0.071-0.104-0.106    c-0.034-0.037-0.069-0.073-0.106-0.108c-0.036-0.037-0.071-0.074-0.107-0.108c-0.034-0.036-0.068-0.071-0.104-0.104    c-0.037-0.037-0.072-0.074-0.109-0.111c-0.034-0.035-0.068-0.07-0.104-0.104c-0.035-0.036-0.07-0.073-0.106-0.108    c-0.037-0.037-0.073-0.076-0.111-0.112c-0.034-0.034-0.065-0.068-0.102-0.103c-0.037-0.039-0.073-0.076-0.111-0.113    c-0.032-0.033-0.065-0.067-0.1-0.102c-0.037-0.037-0.073-0.076-0.112-0.113c-0.033-0.035-0.066-0.069-0.102-0.104    c-0.037-0.038-0.073-0.075-0.111-0.112c-0.034-0.035-0.066-0.068-0.102-0.103c-0.037-0.037-0.071-0.074-0.108-0.11    c-0.035-0.037-0.07-0.072-0.106-0.107c-0.035-0.037-0.068-0.072-0.104-0.107c-0.036-0.036-0.07-0.073-0.106-0.107    c-0.035-0.037-0.07-0.074-0.107-0.108c-0.035-0.037-0.069-0.072-0.105-0.107c-0.035-0.036-0.07-0.073-0.107-0.108    c-0.034-0.036-0.069-0.072-0.105-0.107c-0.035-0.036-0.068-0.07-0.104-0.105c-0.037-0.037-0.071-0.073-0.107-0.109    c-0.035-0.036-0.07-0.072-0.105-0.107s-0.069-0.072-0.105-0.105c-0.036-0.038-0.071-0.074-0.109-0.111    c-0.033-0.035-0.068-0.07-0.104-0.105c-0.036-0.035-0.07-0.072-0.107-0.107c-0.035-0.037-0.07-0.072-0.107-0.107    c-0.033-0.037-0.067-0.072-0.104-0.106c-0.035-0.037-0.07-0.073-0.105-0.108c-0.035-0.037-0.07-0.072-0.106-0.107    c-0.036-0.038-0.071-0.074-0.108-0.11c-0.033-0.035-0.066-0.069-0.103-0.104c-0.037-0.039-0.073-0.075-0.112-0.113    c-0.033-0.034-0.064-0.067-0.101-0.102c-0.036-0.039-0.072-0.076-0.11-0.113c-0.033-0.034-0.068-0.069-0.104-0.104    c-0.035-0.036-0.07-0.071-0.106-0.106c-0.036-0.039-0.071-0.074-0.108-0.111c-0.034-0.035-0.068-0.07-0.104-0.105    s-0.071-0.072-0.106-0.108s-0.07-0.072-0.106-0.107c-0.036-0.036-0.069-0.071-0.106-0.108c-0.035-0.035-0.069-0.071-0.105-0.106    c-0.035-0.036-0.068-0.071-0.105-0.106c-0.035-0.037-0.07-0.073-0.108-0.11c-0.034-0.035-0.068-0.07-0.104-0.104    c-0.035-0.037-0.07-0.074-0.107-0.109c-0.035-0.036-0.069-0.071-0.104-0.106c-0.036-0.036-0.071-0.073-0.108-0.11    c-0.034-0.035-0.068-0.069-0.104-0.104c-0.035-0.036-0.069-0.071-0.106-0.106c-0.035-0.039-0.07-0.074-0.108-0.11    c-0.033-0.035-0.065-0.07-0.103-0.104c-0.035-0.037-0.071-0.074-0.109-0.111c-0.035-0.036-0.07-0.072-0.105-0.107    c-0.035-0.036-0.068-0.07-0.104-0.105c-0.035-0.037-0.07-0.072-0.106-0.108c-0.035-0.036-0.07-0.073-0.107-0.108    c-0.034-0.035-0.068-0.07-0.104-0.105c-0.035-0.037-0.07-0.073-0.107-0.109c-0.035-0.035-0.069-0.072-0.105-0.107    c-0.035-0.035-0.068-0.071-0.105-0.105c-0.035-0.038-0.071-0.074-0.108-0.111c-0.035-0.035-0.069-0.072-0.106-0.106    c-0.033-0.035-0.066-0.07-0.103-0.104c-0.036-0.037-0.071-0.074-0.108-0.109c-0.035-0.037-0.07-0.072-0.105-0.107    s-0.069-0.072-0.105-0.107c-0.035-0.037-0.07-0.073-0.107-0.108c-0.035-0.037-0.07-0.073-0.107-0.108    c-0.033-0.035-0.068-0.07-0.104-0.105c-0.036-0.036-0.07-0.073-0.107-0.108c-0.035-0.036-0.07-0.073-0.107-0.108    c-0.035-0.036-0.069-0.072-0.105-0.107c-0.035-0.036-0.068-0.07-0.104-0.105c-0.037-0.037-0.07-0.072-0.106-0.107    c-0.036-0.038-0.072-0.074-0.108-0.111c-0.033-0.035-0.068-0.068-0.104-0.104c-0.036-0.038-0.071-0.075-0.108-0.111    c-0.034-0.036-0.069-0.07-0.104-0.105c-0.036-0.039-0.073-0.075-0.111-0.112c-0.033-0.034-0.064-0.068-0.102-0.103    c-0.035-0.037-0.071-0.074-0.108-0.111c-0.034-0.035-0.067-0.07-0.104-0.105c-0.035-0.037-0.069-0.072-0.106-0.109    c-0.035-0.035-0.067-0.07-0.104-0.104c-0.037-0.038-0.072-0.075-0.109-0.11c-0.035-0.037-0.069-0.072-0.105-0.106    c-0.033-0.036-0.068-0.072-0.104-0.106c-0.036-0.037-0.07-0.074-0.107-0.109c-0.035-0.036-0.07-0.073-0.107-0.109    c-0.034-0.035-0.068-0.07-0.104-0.104c-0.036-0.037-0.071-0.073-0.106-0.109s-0.069-0.072-0.106-0.107    c-0.035-0.037-0.071-0.074-0.108-0.109c-0.033-0.035-0.067-0.07-0.104-0.105s-0.07-0.072-0.107-0.107    c-0.035-0.037-0.07-0.073-0.106-0.108c-0.035-0.037-0.069-0.071-0.105-0.108c-0.036-0.035-0.069-0.071-0.106-0.106    c-0.034-0.036-0.068-0.072-0.104-0.106c-0.036-0.037-0.071-0.074-0.108-0.111c-0.034-0.034-0.068-0.069-0.104-0.104    c-0.035-0.036-0.069-0.071-0.106-0.106c-0.035-0.039-0.07-0.074-0.108-0.111c-0.035-0.036-0.069-0.071-0.104-0.105    c-0.033-0.035-0.066-0.069-0.102-0.104c-0.038-0.04-0.075-0.079-0.115-0.117c-0.033-0.035-0.066-0.068-0.104-0.104    c-0.034-0.036-0.068-0.072-0.105-0.107c-0.033-0.036-0.066-0.07-0.104-0.105c-0.037-0.039-0.074-0.076-0.113-0.114    c-0.033-0.035-0.066-0.068-0.102-0.103c-0.035-0.037-0.071-0.074-0.109-0.111c-0.033-0.034-0.066-0.069-0.102-0.104    c-0.037-0.038-0.072-0.076-0.11-0.113c-0.034-0.035-0.068-0.07-0.104-0.104c-0.035-0.037-0.07-0.073-0.106-0.108    c-0.035-0.037-0.069-0.072-0.105-0.106c-0.034-0.037-0.071-0.074-0.108-0.11c-0.033-0.035-0.067-0.07-0.104-0.105    c-0.035-0.035-0.07-0.072-0.107-0.107c-0.035-0.037-0.069-0.073-0.106-0.109c-0.034-0.035-0.069-0.07-0.104-0.105    c-0.035-0.037-0.07-0.073-0.107-0.109c-0.034-0.035-0.068-0.07-0.104-0.105c-0.037-0.037-0.072-0.073-0.107-0.109    c-0.035-0.035-0.069-0.07-0.104-0.105c-0.037-0.037-0.072-0.074-0.109-0.11c-0.035-0.036-0.07-0.072-0.106-0.106    c-0.034-0.037-0.069-0.072-0.104-0.106c-0.035-0.037-0.07-0.073-0.106-0.108c-0.034-0.035-0.069-0.072-0.104-0.107    c-0.036-0.035-0.071-0.072-0.107-0.107c-0.035-0.037-0.07-0.072-0.107-0.109c-0.033-0.035-0.067-0.069-0.104-0.104    c-0.036-0.037-0.07-0.073-0.107-0.108c-0.035-0.037-0.07-0.072-0.106-0.109c-0.035-0.035-0.07-0.072-0.106-0.107    c-0.035-0.035-0.068-0.07-0.104-0.104c-0.037-0.039-0.073-0.076-0.111-0.113c-0.033-0.035-0.066-0.069-0.102-0.104    c-0.037-0.037-0.072-0.074-0.11-0.111c-0.034-0.035-0.067-0.071-0.104-0.105c-0.035-0.037-0.07-0.074-0.107-0.109    c-0.034-0.035-0.068-0.07-0.104-0.105c-0.037-0.036-0.07-0.072-0.107-0.109c-0.036-0.037-0.071-0.072-0.107-0.107    c-0.035-0.036-0.068-0.072-0.104-0.105c-0.035-0.037-0.068-0.072-0.104-0.106c-0.037-0.038-0.072-0.075-0.109-0.112    c-0.034-0.035-0.069-0.07-0.104-0.105c-0.034-0.037-0.069-0.072-0.106-0.107c-0.034-0.036-0.068-0.072-0.104-0.105    c-0.036-0.039-0.071-0.074-0.108-0.111c-0.035-0.035-0.069-0.071-0.104-0.106c-0.035-0.034-0.067-0.071-0.104-0.104    c-0.035-0.038-0.071-0.075-0.109-0.112c-0.034-0.035-0.069-0.071-0.104-0.106c-0.037-0.035-0.07-0.072-0.106-0.106    c-0.035-0.036-0.069-0.072-0.104-0.106c-0.035-0.037-0.07-0.074-0.107-0.109c-0.035-0.035-0.069-0.071-0.104-0.105    c-0.037-0.037-0.072-0.074-0.109-0.109c-0.034-0.037-0.069-0.072-0.106-0.108c-0.034-0.036-0.069-0.072-0.106-0.106    c-0.033-0.035-0.066-0.07-0.103-0.104c-0.036-0.037-0.071-0.074-0.106-0.109c-0.037-0.036-0.071-0.073-0.108-0.108    c-0.035-0.037-0.07-0.073-0.106-0.109c-0.035-0.035-0.067-0.07-0.104-0.104c-0.036-0.037-0.071-0.074-0.109-0.11    c-0.035-0.037-0.07-0.073-0.105-0.108s-0.069-0.072-0.105-0.105c-0.035-0.037-0.068-0.072-0.105-0.107    c-0.035-0.037-0.07-0.074-0.108-0.111c-0.034-0.035-0.069-0.07-0.104-0.105c-0.035-0.036-0.069-0.072-0.106-0.107    c-0.034-0.035-0.067-0.072-0.104-0.105c-0.035-0.037-0.07-0.074-0.107-0.11c-0.035-0.036-0.07-0.071-0.105-0.106    c-0.035-0.036-0.068-0.071-0.104-0.105c-0.036-0.038-0.072-0.074-0.11-0.111c-0.033-0.035-0.068-0.07-0.104-0.105    c-0.036-0.036-0.071-0.073-0.107-0.107c-0.035-0.037-0.07-0.072-0.105-0.107c-0.035-0.037-0.07-0.073-0.107-0.109    c-0.034-0.035-0.068-0.07-0.104-0.105c-0.037-0.036-0.072-0.073-0.109-0.109c-0.034-0.035-0.066-0.07-0.104-0.104    c-0.037-0.039-0.072-0.076-0.11-0.113c-0.035-0.036-0.068-0.07-0.104-0.104c-0.035-0.037-0.07-0.073-0.105-0.108    c-0.036-0.037-0.071-0.074-0.108-0.11c-0.034-0.036-0.069-0.071-0.104-0.106c-0.034-0.036-0.068-0.072-0.104-0.107    c-0.034-0.037-0.069-0.074-0.106-0.109c-0.035-0.037-0.07-0.073-0.106-0.108c-0.036-0.037-0.071-0.074-0.108-0.11    c-0.035-0.036-0.068-0.071-0.104-0.105c-0.035-0.037-0.069-0.073-0.106-0.108c-0.035-0.037-0.068-0.073-0.105-0.108    c-0.035-0.037-0.07-0.073-0.105-0.108c-0.035-0.037-0.07-0.073-0.106-0.108c-0.036-0.037-0.07-0.072-0.106-0.107    c-0.035-0.037-0.07-0.073-0.105-0.108c-0.035-0.036-0.069-0.072-0.105-0.107c-0.035-0.037-0.07-0.074-0.107-0.109    c-0.035-0.037-0.069-0.072-0.105-0.107c-0.035-0.037-0.068-0.072-0.105-0.108c-0.035-0.037-0.07-0.073-0.107-0.109    c-0.035-0.036-0.068-0.071-0.104-0.105c-0.037-0.038-0.071-0.074-0.108-0.111c-0.035-0.036-0.069-0.071-0.104-0.106    c-0.035-0.037-0.07-0.073-0.106-0.108c-0.035-0.036-0.069-0.072-0.106-0.108c-0.035-0.036-0.068-0.072-0.105-0.107    c-0.035-0.038-0.07-0.075-0.108-0.111c-0.034-0.035-0.067-0.07-0.103-0.104c-0.036-0.038-0.072-0.075-0.11-0.112    c-0.033-0.035-0.065-0.069-0.101-0.103c-0.037-0.039-0.074-0.076-0.112-0.114c-0.034-0.035-0.067-0.07-0.103-0.104    c-0.037-0.038-0.072-0.075-0.11-0.111c-0.034-0.035-0.067-0.07-0.103-0.104c-0.037-0.037-0.072-0.074-0.109-0.11    c-0.034-0.036-0.069-0.072-0.105-0.107c-0.033-0.037-0.068-0.072-0.105-0.108c-0.034-0.036-0.069-0.072-0.105-0.108    c-0.035-0.037-0.07-0.073-0.107-0.109c-0.033-0.036-0.067-0.071-0.104-0.106c-0.036-0.037-0.07-0.073-0.107-0.109    c-0.035-0.037-0.07-0.074-0.107-0.11c-0.034-0.035-0.068-0.07-0.104-0.105c-0.037-0.037-0.072-0.073-0.107-0.109    c-0.036-0.037-0.07-0.072-0.105-0.108c-0.037-0.036-0.07-0.072-0.107-0.108c-0.034-0.036-0.069-0.072-0.105-0.108    c-0.035-0.036-0.068-0.072-0.105-0.107c-0.035-0.037-0.069-0.073-0.106-0.109c-0.036-0.037-0.071-0.074-0.108-0.109    c-0.033-0.036-0.067-0.071-0.104-0.106c-0.035-0.037-0.068-0.073-0.105-0.108c-0.035-0.036-0.069-0.072-0.105-0.108    c-0.036-0.037-0.07-0.073-0.107-0.108c-0.033-0.036-0.067-0.071-0.104-0.106c-0.036-0.038-0.072-0.075-0.11-0.111    c-0.034-0.036-0.067-0.071-0.104-0.105c-0.035-0.037-0.069-0.073-0.105-0.108c-0.034-0.037-0.069-0.073-0.106-0.109    c-0.035-0.036-0.069-0.072-0.105-0.107c-0.035-0.037-0.07-0.073-0.105-0.109s-0.07-0.072-0.106-0.107    c-0.036-0.037-0.069-0.073-0.106-0.109c-0.037-0.037-0.071-0.073-0.107-0.108c-0.035-0.036-0.068-0.071-0.104-0.105    c-0.037-0.037-0.072-0.074-0.107-0.109c-0.035-0.037-0.07-0.073-0.105-0.108c-0.035-0.037-0.07-0.072-0.106-0.108    c-0.036-0.038-0.071-0.074-0.108-0.11c-0.033-0.036-0.068-0.07-0.104-0.104c-0.035-0.037-0.07-0.073-0.107-0.109    c-0.035-0.037-0.068-0.073-0.105-0.108c-0.035-0.037-0.07-0.073-0.107-0.109C43.678,23.588,42.41,23,41,23c-2.762,0-5,2.239-5,5    c0,1.406,0.584,2.671,1.52,3.58c0.035,0.037,0.069,0.073,0.106,0.109c0.035,0.036,0.069,0.072,0.104,0.107    c0.035,0.037,0.07,0.073,0.106,0.108c0.036,0.036,0.07,0.072,0.106,0.107c0.035,0.036,0.068,0.072,0.104,0.107    c0.036,0.037,0.071,0.074,0.108,0.11c0.035,0.036,0.068,0.072,0.104,0.106c0.036,0.037,0.071,0.073,0.108,0.109    c0.034,0.036,0.069,0.073,0.104,0.107c0.035,0.036,0.069,0.072,0.105,0.107c0.035,0.036,0.07,0.073,0.107,0.11    c0.035,0.034,0.068,0.069,0.104,0.104c0.036,0.037,0.071,0.073,0.108,0.108c0.035,0.037,0.068,0.072,0.104,0.107    c0.035,0.036,0.07,0.072,0.106,0.107c0.035,0.037,0.07,0.072,0.105,0.107c0.035,0.036,0.069,0.072,0.105,0.107    c0.035,0.037,0.07,0.072,0.107,0.109c0.035,0.037,0.07,0.072,0.107,0.107c0.033,0.036,0.068,0.071,0.104,0.105    c0.035,0.037,0.07,0.074,0.107,0.108c0.033,0.036,0.068,0.072,0.104,0.107c0.037,0.036,0.071,0.073,0.108,0.108    c0.015,0.017,0.024,0.033,0.04,0.049c-0.09,0.021-0.178,0.049-0.266,0.074c-0.015-0.015-0.033-0.025-0.049-0.041    c-0.037-0.037-0.072-0.074-0.109-0.109c-0.034-0.036-0.068-0.071-0.104-0.105c-0.037-0.037-0.072-0.074-0.109-0.109    c-0.034-0.037-0.069-0.072-0.106-0.108c-0.034-0.036-0.067-0.071-0.104-0.104c-0.034-0.037-0.069-0.074-0.106-0.109    c-0.034-0.036-0.067-0.072-0.104-0.106c-0.035-0.036-0.069-0.073-0.106-0.108c-0.036-0.037-0.069-0.073-0.106-0.109    c-0.035-0.036-0.069-0.07-0.105-0.105c-0.035-0.037-0.07-0.074-0.107-0.108c-0.035-0.037-0.07-0.073-0.106-0.108    c-0.034-0.035-0.068-0.07-0.104-0.104c-0.035-0.037-0.07-0.073-0.107-0.109c-0.034-0.036-0.069-0.073-0.106-0.108    c-0.034-0.037-0.069-0.072-0.104-0.107c-0.036-0.037-0.071-0.073-0.107-0.109c-0.034-0.036-0.068-0.071-0.104-0.105    c-0.037-0.037-0.071-0.074-0.108-0.11c-0.035-0.036-0.069-0.072-0.104-0.107c-0.035-0.037-0.07-0.073-0.106-0.108    c-0.036-0.038-0.072-0.074-0.11-0.11c-0.033-0.035-0.066-0.07-0.102-0.104c-0.036-0.038-0.072-0.075-0.109-0.112    c-0.033-0.036-0.068-0.071-0.104-0.105c-0.036-0.038-0.072-0.075-0.11-0.111c-0.034-0.036-0.067-0.071-0.104-0.105    c-0.035-0.036-0.068-0.072-0.104-0.107c-0.036-0.037-0.071-0.074-0.108-0.109c-0.033-0.036-0.068-0.072-0.104-0.107    c-0.035-0.036-0.069-0.072-0.106-0.108c-0.035-0.038-0.072-0.075-0.109-0.111c-0.033-0.035-0.066-0.069-0.102-0.103    c-0.035-0.037-0.07-0.074-0.107-0.11c-0.035-0.037-0.07-0.073-0.106-0.108c-0.034-0.037-0.069-0.073-0.106-0.109    c-0.035-0.037-0.069-0.072-0.105-0.107c-0.035-0.037-0.07-0.073-0.105-0.108c-0.035-0.037-0.069-0.073-0.106-0.108    c-0.035-0.037-0.069-0.073-0.106-0.108c-0.035-0.037-0.069-0.073-0.105-0.109c-0.036-0.037-0.071-0.073-0.107-0.109    c-0.035-0.036-0.068-0.072-0.104-0.106c-0.035-0.036-0.069-0.072-0.104-0.106c-0.035-0.038-0.07-0.074-0.109-0.11    c-0.033-0.036-0.067-0.072-0.104-0.107c-0.035-0.037-0.07-0.074-0.107-0.109c-0.035-0.036-0.069-0.072-0.106-0.107    c-0.034-0.036-0.067-0.071-0.104-0.106c-0.035-0.038-0.07-0.074-0.108-0.11c-0.035-0.037-0.069-0.072-0.104-0.107    c-0.035-0.037-0.069-0.072-0.105-0.107c-0.035-0.037-0.07-0.073-0.105-0.109c-0.035-0.037-0.069-0.073-0.106-0.108    c-0.035-0.037-0.07-0.073-0.106-0.109c-0.035-0.037-0.07-0.073-0.107-0.108c-0.034-0.037-0.069-0.072-0.105-0.107    c-0.033-0.036-0.068-0.072-0.104-0.107c-0.036-0.037-0.07-0.073-0.107-0.109c-0.035-0.037-0.07-0.073-0.107-0.109    c-0.034-0.037-0.069-0.072-0.105-0.107c-0.034-0.036-0.068-0.072-0.104-0.106c-0.037-0.037-0.071-0.074-0.108-0.11    c-0.035-0.037-0.069-0.072-0.106-0.108C32.152,26.477,31.134,26,30,26c-2.209,0-4,1.791-4,4c0,1.129,0.472,2.145,1.225,2.872    c0.036,0.037,0.071,0.073,0.108,0.11c0.035,0.035,0.069,0.07,0.105,0.105c0.035,0.037,0.07,0.073,0.107,0.107    c0.034,0.037,0.068,0.072,0.104,0.106c0.036,0.037,0.07,0.074,0.107,0.109c0.036,0.037,0.071,0.073,0.108,0.108    c0.035,0.037,0.069,0.071,0.105,0.106c0.035,0.036,0.069,0.072,0.105,0.106c0.035,0.037,0.07,0.072,0.106,0.107    c0.036,0.038,0.072,0.075,0.109,0.111c0.034,0.035,0.068,0.07,0.104,0.105c0.036,0.036,0.071,0.072,0.108,0.108    c0.035,0.036,0.069,0.071,0.105,0.106c0.035,0.035,0.07,0.071,0.106,0.106c0.036,0.037,0.071,0.074,0.108,0.11    c0.035,0.035,0.07,0.07,0.106,0.105c0.035,0.037,0.07,0.073,0.106,0.108c0.035,0.036,0.069,0.071,0.105,0.106    c0.035,0.037,0.07,0.073,0.107,0.108c0.035,0.036,0.069,0.072,0.106,0.106c0.006,0.008,0.011,0.016,0.017,0.021    c-0.323,0.051-0.621,0.141-0.896,0.264c-0.029-0.029-0.059-0.058-0.089-0.086c-0.034-0.035-0.068-0.07-0.104-0.104    c-0.035-0.038-0.07-0.074-0.107-0.109c-0.035-0.036-0.07-0.073-0.107-0.108c-0.034-0.035-0.069-0.071-0.105-0.105    c-0.035-0.037-0.069-0.072-0.106-0.107c-0.035-0.037-0.07-0.074-0.107-0.108c-0.035-0.037-0.07-0.073-0.107-0.108    c-0.035-0.037-0.07-0.072-0.106-0.107c-0.035-0.037-0.07-0.072-0.106-0.107c-0.034-0.035-0.068-0.072-0.104-0.105    c-0.036-0.037-0.071-0.074-0.108-0.109c-0.035-0.037-0.069-0.072-0.106-0.107c-0.035-0.037-0.069-0.072-0.105-0.106    c-0.036-0.038-0.072-0.074-0.109-0.11c-0.035-0.035-0.069-0.072-0.105-0.105c-0.035-0.037-0.069-0.073-0.106-0.107    c-0.035-0.037-0.07-0.072-0.107-0.107c-0.034-0.037-0.068-0.072-0.105-0.107c-0.035-0.037-0.071-0.074-0.108-0.109    c-0.035-0.037-0.07-0.072-0.106-0.107c-0.035-0.036-0.069-0.072-0.106-0.107c-0.035-0.035-0.069-0.072-0.105-0.105    c-0.035-0.037-0.07-0.073-0.106-0.108c-0.036-0.038-0.071-0.074-0.109-0.11c-0.034-0.035-0.069-0.07-0.105-0.105    c-0.035-0.037-0.07-0.073-0.107-0.108c-0.035-0.036-0.069-0.072-0.105-0.106c-0.035-0.037-0.069-0.073-0.105-0.108    c-0.036-0.037-0.07-0.074-0.107-0.109c-0.035-0.037-0.069-0.072-0.106-0.107c-0.035-0.037-0.07-0.074-0.107-0.109    c-0.035-0.037-0.07-0.073-0.106-0.108c-0.035-0.037-0.07-0.073-0.106-0.108c-0.034-0.036-0.068-0.072-0.104-0.106    c-0.036-0.038-0.071-0.075-0.109-0.11c-0.035-0.037-0.07-0.073-0.106-0.107c-0.034-0.037-0.068-0.072-0.105-0.106    c-0.035-0.038-0.07-0.074-0.107-0.109c-0.035-0.037-0.07-0.073-0.106-0.108c-0.035-0.037-0.069-0.072-0.105-0.107    c-0.035-0.037-0.07-0.073-0.107-0.109c-0.035-0.037-0.07-0.073-0.107-0.108c-0.034-0.036-0.068-0.072-0.104-0.106    c-0.035-0.037-0.07-0.074-0.107-0.109c-0.035-0.037-0.07-0.073-0.107-0.108c-0.034-0.036-0.068-0.071-0.104-0.106    c-0.036-0.038-0.071-0.074-0.109-0.11c-0.034-0.036-0.069-0.072-0.105-0.106c-0.035-0.037-0.07-0.073-0.107-0.108    C22.626,29.365,21.858,29,21,29c-1.657,0-3,1.343-3,3c0,0.854,0.361,1.62,0.934,2.167c0.035,0.036,0.069,0.071,0.104,0.104    c0.035,0.037,0.07,0.074,0.107,0.109c0.035,0.036,0.07,0.072,0.106,0.107c0.035,0.037,0.07,0.072,0.107,0.109    c0.035,0.036,0.07,0.072,0.107,0.107c0.035,0.036,0.069,0.072,0.105,0.105c0.035,0.037,0.07,0.073,0.106,0.108    c0.035,0.036,0.069,0.072,0.105,0.106c0.035,0.037,0.07,0.074,0.107,0.108c0.036,0.037,0.071,0.074,0.108,0.109    c0.034,0.036,0.068,0.071,0.104,0.104c0.035,0.038,0.07,0.074,0.108,0.109c0.034,0.036,0.068,0.072,0.104,0.105    c0.035,0.037,0.07,0.074,0.106,0.108c0.036,0.038,0.071,0.074,0.108,0.108c0.035,0.037,0.069,0.072,0.105,0.107    c0.035,0.037,0.07,0.073,0.107,0.108c0.008,0.009,0.014,0.019,0.022,0.026C18.929,36.186,18,38.042,18,39v1    c0,0.568,0.006,0.809,0.19,0.915c0.025,0.045,0.061,0.08,0.105,0.106c0.025,0.045,0.061,0.082,0.106,0.107    c0.026,0.046,0.062,0.083,0.107,0.107c0.026,0.047,0.061,0.082,0.106,0.109c0.026,0.045,0.062,0.081,0.107,0.107    c0.025,0.045,0.061,0.081,0.105,0.105c0.025,0.047,0.062,0.082,0.106,0.108c0.025,0.046,0.061,0.081,0.106,0.106    c0.026,0.047,0.062,0.082,0.107,0.108c0.026,0.046,0.062,0.082,0.106,0.108c0.025,0.046,0.062,0.082,0.106,0.107    c0.026,0.047,0.062,0.082,0.106,0.107c0.025,0.046,0.061,0.081,0.106,0.107c0.026,0.045,0.062,0.082,0.107,0.107    c0.026,0.046,0.061,0.082,0.106,0.107c0.025,0.046,0.061,0.082,0.106,0.107c0.026,0.047,0.062,0.083,0.108,0.109    c0.025,0.045,0.061,0.081,0.105,0.105c0.026,0.047,0.062,0.084,0.107,0.109c0.025,0.045,0.061,0.08,0.104,0.105    c0.026,0.047,0.062,0.084,0.108,0.109c0.025,0.045,0.061,0.081,0.106,0.107c0.026,0.046,0.062,0.082,0.107,0.107    c0.025,0.045,0.061,0.08,0.105,0.106c0.025,0.046,0.061,0.082,0.106,0.108c0.026,0.047,0.062,0.082,0.107,0.108    c0.025,0.045,0.061,0.08,0.105,0.106c0.026,0.046,0.062,0.082,0.107,0.107c0.025,0.047,0.061,0.081,0.105,0.107    c0.025,0.046,0.061,0.082,0.106,0.107c0.025,0.047,0.062,0.082,0.106,0.108c0.026,0.046,0.062,0.082,0.107,0.108    c0.025,0.045,0.061,0.08,0.105,0.105c0.025,0.046,0.062,0.082,0.107,0.107c0.026,0.047,0.062,0.082,0.106,0.109    c0.025,0.045,0.062,0.082,0.106,0.107c0.026,0.046,0.062,0.082,0.106,0.107c0.026,0.045,0.062,0.082,0.106,0.107    c0.025,0.045,0.061,0.081,0.105,0.105c0.026,0.048,0.062,0.084,0.108,0.11c0.025,0.046,0.061,0.08,0.105,0.106    c0.026,0.046,0.062,0.083,0.107,0.107c0.026,0.047,0.062,0.082,0.106,0.107c0.026,0.046,0.062,0.082,0.106,0.107    c0.025,0.045,0.061,0.082,0.105,0.107c0.025,0.046,0.062,0.083,0.107,0.107c0.025,0.047,0.061,0.082,0.106,0.109    c0.026,0.045,0.061,0.08,0.106,0.106c0.026,0.046,0.062,0.083,0.107,0.108c0.025,0.045,0.061,0.082,0.106,0.106    c0.026,0.046,0.061,0.082,0.105,0.106c0.026,0.047,0.062,0.084,0.108,0.11c0.025,0.046,0.061,0.081,0.105,0.106    c0.026,0.046,0.062,0.082,0.107,0.107c0.025,0.047,0.061,0.082,0.106,0.108c0.025,0.045,0.061,0.08,0.105,0.106    c0.025,0.045,0.061,0.082,0.106,0.107c0.025,0.046,0.062,0.082,0.106,0.107c0.026,0.048,0.062,0.084,0.108,0.109    c0.025,0.045,0.061,0.08,0.105,0.106c0.025,0.046,0.062,0.082,0.106,0.106c0.026,0.047,0.061,0.082,0.105,0.108    c0.026,0.046,0.062,0.083,0.108,0.108c0.025,0.045,0.061,0.08,0.105,0.106c0.026,0.046,0.062,0.083,0.107,0.109    c0.025,0.045,0.061,0.079,0.105,0.106c0.026,0.047,0.062,0.082,0.108,0.108c0.025,0.045,0.06,0.08,0.104,0.104    c0.026,0.047,0.062,0.084,0.107,0.109c0.026,0.047,0.062,0.083,0.108,0.109c0.025,0.045,0.061,0.08,0.105,0.105    c0.025,0.045,0.061,0.081,0.106,0.107c0.025,0.046,0.062,0.082,0.107,0.107c0.026,0.047,0.062,0.082,0.106,0.108    c0.025,0.046,0.061,0.081,0.106,0.106c0.026,0.047,0.062,0.084,0.107,0.109c0.026,0.047,0.061,0.082,0.106,0.107    c0.026,0.046,0.062,0.082,0.106,0.107c0.026,0.045,0.062,0.082,0.106,0.106c0.025,0.046,0.061,0.082,0.106,0.108    c0.025,0.045,0.062,0.082,0.107,0.108c0.025,0.045,0.061,0.08,0.105,0.106c0.025,0.046,0.061,0.082,0.106,0.107    c0.026,0.047,0.062,0.083,0.107,0.109c0.025,0.045,0.061,0.081,0.106,0.107c0.025,0.045,0.061,0.08,0.105,0.105    c0.025,0.046,0.061,0.082,0.106,0.107c0.026,0.047,0.062,0.084,0.107,0.109c0.025,0.045,0.061,0.08,0.105,0.105    c0.026,0.047,0.062,0.082,0.107,0.109c0.025,0.047,0.062,0.082,0.107,0.107c0.025,0.046,0.061,0.081,0.105,0.107    c0.025,0.045,0.061,0.08,0.106,0.106c0.026,0.046,0.062,0.083,0.107,0.108c0.026,0.047,0.062,0.082,0.107,0.108    c0.025,0.046,0.061,0.08,0.104,0.106c0.026,0.046,0.062,0.083,0.108,0.109c0.025,0.045,0.061,0.08,0.105,0.105    c0.026,0.046,0.062,0.083,0.108,0.109c0.025,0.045,0.061,0.08,0.105,0.106c0.025,0.046,0.061,0.081,0.106,0.106    c0.026,0.048,0.062,0.084,0.108,0.109c0.025,0.045,0.061,0.08,0.105,0.106c0.025,0.046,0.062,0.082,0.107,0.108    c0.026,0.045,0.061,0.08,0.106,0.106c0.026,0.046,0.062,0.083,0.107,0.108c0.025,0.045,0.061,0.08,0.105,0.106    c0.025,0.046,0.061,0.082,0.106,0.108c0.025,0.046,0.062,0.082,0.106,0.107c0.026,0.047,0.062,0.082,0.107,0.108    c0.025,0.045,0.061,0.08,0.104,0.106c0.026,0.047,0.062,0.082,0.108,0.108c0.025,0.046,0.061,0.081,0.105,0.106    c0.026,0.047,0.062,0.082,0.106,0.107c0.026,0.047,0.062,0.082,0.106,0.108c0.026,0.046,0.062,0.083,0.107,0.108    c0.025,0.045,0.061,0.082,0.105,0.106c0.025,0.046,0.061,0.082,0.106,0.108c0.026,0.045,0.062,0.082,0.108,0.108    c0.026,0.046,0.062,0.081,0.106,0.107c0.025,0.045,0.061,0.079,0.105,0.106c0.025,0.045,0.061,0.082,0.106,0.106    c0.026,0.047,0.062,0.083,0.107,0.108c0.025,0.045,0.06,0.082,0.104,0.106c0.026,0.047,0.062,0.083,0.108,0.108    c0.025,0.047,0.061,0.082,0.106,0.107c0.026,0.047,0.062,0.083,0.107,0.109c0.025,0.045,0.061,0.08,0.105,0.105    c0.025,0.047,0.061,0.082,0.106,0.108c0.026,0.046,0.062,0.082,0.107,0.108c0.025,0.045,0.061,0.082,0.106,0.106    c0.025,0.048,0.062,0.083,0.107,0.108c0.025,0.046,0.06,0.08,0.104,0.107c0.026,0.045,0.062,0.082,0.108,0.108    c0.025,0.045,0.062,0.081,0.106,0.106c0.024,0.045,0.061,0.082,0.104,0.107c0.024,0.046,0.062,0.083,0.106,0.109    c0.025,0.045,0.063,0.08,0.106,0.105c0.025,0.047,0.062,0.082,0.104,0.107c0.025,0.046,0.063,0.082,0.106,0.107    c0.025,0.047,0.062,0.082,0.105,0.108c0.026,0.046,0.063,0.082,0.108,0.108c0.024,0.045,0.061,0.08,0.104,0.106    c0.024,0.046,0.062,0.083,0.106,0.109c0.025,0.045,0.062,0.079,0.104,0.106c0.026,0.045,0.063,0.082,0.106,0.107    c0.026,0.046,0.063,0.081,0.106,0.107c0.024,0.045,0.062,0.082,0.106,0.108c0.025,0.045,0.062,0.08,0.104,0.106    c0.026,0.045,0.062,0.082,0.106,0.106c0.025,0.048,0.062,0.083,0.105,0.108c0.025,0.046,0.063,0.082,0.105,0.107    c0.027,0.047,0.063,0.084,0.109,0.109c0.024,0.045,0.061,0.081,0.104,0.105c0.024,0.047,0.062,0.082,0.104,0.108    c0.026,0.046,0.063,0.082,0.107,0.108c0.025,0.045,0.061,0.08,0.105,0.105c0.024,0.047,0.062,0.082,0.105,0.108    c0.025,0.046,0.063,0.083,0.107,0.108c0.024,0.045,0.061,0.08,0.104,0.106c0.024,0.046,0.062,0.082,0.106,0.108    c0.024,0.045,0.062,0.082,0.106,0.108c0.025,0.046,0.062,0.081,0.106,0.107c0.025,0.045,0.061,0.079,0.104,0.106    c0.025,0.045,0.062,0.082,0.106,0.107c0.025,0.046,0.063,0.083,0.107,0.109c0.024,0.045,0.061,0.08,0.104,0.105    c0.024,0.046,0.062,0.082,0.106,0.107c0.024,0.047,0.062,0.084,0.106,0.109c0.024,0.045,0.062,0.081,0.104,0.106    c0.025,0.046,0.063,0.082,0.107,0.108c0.025,0.045,0.061,0.08,0.105,0.106c0.024,0.046,0.062,0.083,0.106,0.108    c0.025,0.045,0.062,0.08,0.104,0.105c0.025,0.047,0.063,0.084,0.109,0.11c0.024,0.046,0.061,0.082,0.105,0.106    c0.025,0.047,0.061,0.082,0.105,0.107c0.024,0.046,0.061,0.082,0.104,0.107c0.026,0.047,0.063,0.082,0.106,0.108    c0.026,0.045,0.063,0.081,0.105,0.106c0.025,0.047,0.063,0.082,0.107,0.109c0.025,0.045,0.062,0.08,0.104,0.106    c0.026,0.046,0.063,0.082,0.108,0.108c0.024,0.045,0.061,0.08,0.104,0.106c0.025,0.046,0.063,0.081,0.105,0.106    c0.025,0.047,0.063,0.082,0.106,0.108c0.025,0.046,0.062,0.083,0.107,0.109c0.024,0.045,0.061,0.079,0.104,0.106    c0.025,0.047,0.063,0.082,0.107,0.108c0.025,0.045,0.061,0.08,0.105,0.106c0.024,0.045,0.062,0.082,0.106,0.108    c0.024,0.045,0.062,0.08,0.104,0.106c0.025,0.046,0.063,0.082,0.106,0.107c0.024,0.047,0.062,0.083,0.106,0.109    c0.025,0.045,0.062,0.081,0.105,0.105c0.025,0.047,0.063,0.082,0.107,0.108c0.024,0.046,0.061,0.081,0.104,0.106    c0.025,0.047,0.062,0.084,0.107,0.109c0.024,0.045,0.061,0.08,0.104,0.105c0.025,0.047,0.063,0.082,0.106,0.109    c0.024,0.045,0.062,0.082,0.104,0.107c0.026,0.046,0.063,0.082,0.108,0.107c0.024,0.045,0.06,0.08,0.104,0.106    c0.025,0.047,0.063,0.084,0.108,0.11c0.024,0.045,0.062,0.08,0.104,0.105c0.025,0.047,0.063,0.082,0.107,0.108    c0.023,0.045,0.061,0.08,0.104,0.106c0.026,0.047,0.063,0.082,0.108,0.109c0.025,0.045,0.062,0.081,0.106,0.105    c0.025,0.047,0.062,0.082,0.105,0.108c0.025,0.045,0.062,0.081,0.104,0.106c0.026,0.047,0.063,0.084,0.108,0.109    c0.024,0.045,0.061,0.08,0.104,0.106c0.024,0.046,0.062,0.083,0.106,0.108c0.025,0.045,0.062,0.08,0.105,0.106    c0.025,0.046,0.063,0.083,0.107,0.108c0.024,0.045,0.061,0.082,0.104,0.106c0.024,0.046,0.062,0.082,0.106,0.108    c0.024,0.046,0.062,0.083,0.106,0.109c0.025,0.045,0.062,0.08,0.104,0.105c0.025,0.046,0.063,0.082,0.106,0.107    c0.025,0.047,0.062,0.084,0.107,0.109c0.024,0.045,0.062,0.081,0.106,0.105c0.024,0.047,0.061,0.082,0.104,0.107    c0.024,0.047,0.062,0.082,0.106,0.108c0.025,0.047,0.062,0.083,0.106,0.108c0.024,0.045,0.062,0.08,0.104,0.106    c0.025,0.046,0.063,0.082,0.106,0.108c0.024,0.045,0.062,0.082,0.106,0.108c0.025,0.044,0.062,0.08,0.104,0.105    c0.024,0.047,0.062,0.083,0.106,0.108c0.025,0.047,0.063,0.082,0.106,0.108c0.026,0.046,0.062,0.082,0.107,0.108    c0.024,0.045,0.061,0.08,0.104,0.105c0.025,0.046,0.062,0.082,0.106,0.107c0.024,0.046,0.062,0.082,0.104,0.106    c0.025,0.048,0.063,0.085,0.107,0.11c0.025,0.045,0.061,0.08,0.105,0.105c0.025,0.047,0.063,0.084,0.107,0.109    c0.025,0.045,0.061,0.08,0.104,0.105c0.026,0.047,0.063,0.082,0.107,0.108c0.025,0.048,0.063,0.083,0.107,0.109    c0.025,0.045,0.061,0.08,0.104,0.106c0.025,0.045,0.062,0.082,0.107,0.108c0.024,0.045,0.061,0.08,0.104,0.106    c0.025,0.045,0.063,0.082,0.106,0.107c0.024,0.046,0.062,0.083,0.106,0.107c0.025,0.047,0.062,0.082,0.105,0.107    c0.025,0.047,0.063,0.084,0.107,0.109c0.024,0.045,0.061,0.08,0.104,0.105c0.024,0.047,0.062,0.084,0.106,0.109    c0.025,0.045,0.062,0.08,0.105,0.105c0.025,0.047,0.061,0.082,0.104,0.107c0.026,0.047,0.063,0.084,0.109,0.11    c0.025,0.045,0.061,0.081,0.105,0.106c0.025,0.047,0.062,0.082,0.107,0.108c0.024,0.044,0.061,0.08,0.104,0.104    c0.025,0.047,0.063,0.084,0.109,0.11c0.024,0.045,0.061,0.08,0.104,0.104c0.025,0.048,0.063,0.084,0.107,0.109    c0.025,0.047,0.063,0.084,0.107,0.109c0.025,0.046,0.063,0.081,0.105,0.107c0.025,0.045,0.061,0.08,0.104,0.104    c0.024,0.047,0.062,0.083,0.106,0.108c0.024,0.047,0.062,0.084,0.106,0.109c0.025,0.045,0.062,0.081,0.104,0.106    c0.025,0.046,0.063,0.082,0.107,0.108c0.025,0.045,0.062,0.08,0.105,0.106c0.025,0.046,0.063,0.083,0.107,0.108    c0.024,0.045,0.061,0.08,0.104,0.106c0.024,0.046,0.062,0.082,0.106,0.108c0.024,0.046,0.062,0.082,0.106,0.107    c0.024,0.047,0.062,0.081,0.104,0.107c0.025,0.047,0.063,0.083,0.107,0.109c0.025,0.045,0.061,0.08,0.105,0.105    c0.024,0.046,0.062,0.083,0.106,0.109c0.025,0.045,0.062,0.08,0.104,0.105c0.025,0.047,0.063,0.082,0.106,0.108    c0.025,0.046,0.062,0.083,0.107,0.108c0.024,0.045,0.062,0.08,0.104,0.106c0.025,0.047,0.063,0.083,0.107,0.108    c0.025,0.045,0.061,0.08,0.105,0.106c0.024,0.046,0.061,0.081,0.104,0.106c0.024,0.049,0.063,0.084,0.108,0.111    c0.024,0.045,0.061,0.08,0.104,0.105c0.024,0.046,0.062,0.082,0.104,0.107c0.026,0.047,0.063,0.082,0.108,0.108    c0.025,0.045,0.062,0.081,0.104,0.106c0.025,0.045,0.062,0.08,0.104,0.106c0.026,0.048,0.063,0.084,0.108,0.11    c0.025,0.045,0.062,0.081,0.105,0.107c0.025,0.045,0.063,0.08,0.105,0.106c0.025,0.046,0.063,0.081,0.105,0.106    c0.025,0.047,0.063,0.084,0.107,0.108c0.025,0.046,0.061,0.082,0.105,0.106c0.024,0.047,0.062,0.082,0.105,0.109    c0.025,0.045,0.063,0.082,0.107,0.107c0.024,0.046,0.061,0.082,0.104,0.107c0.024,0.045,0.062,0.082,0.106,0.107    c0.024,0.046,0.062,0.083,0.106,0.109c0.104,0.186,0.345,0.191,0.916,0.191h4c1,0,1,0,1-1v-1c0-0.104-0.018-0.222-0.039-0.343    c0.025,0.041,0.06,0.074,0.103,0.099c0.025,0.045,0.061,0.08,0.104,0.105c0.026,0.047,0.063,0.084,0.108,0.109    c0.026,0.047,0.062,0.082,0.106,0.108c0.025,0.044,0.061,0.08,0.104,0.104c0.026,0.048,0.063,0.084,0.108,0.111    c0.024,0.045,0.062,0.08,0.106,0.106c0.024,0.045,0.062,0.081,0.104,0.106c0.025,0.045,0.062,0.08,0.104,0.106    c0.026,0.047,0.063,0.084,0.108,0.11c0.024,0.045,0.061,0.08,0.104,0.105c0.024,0.047,0.062,0.082,0.106,0.108    c0.025,0.046,0.062,0.081,0.105,0.106c0.025,0.047,0.063,0.084,0.107,0.108c0.025,0.046,0.061,0.082,0.105,0.106    c0.024,0.047,0.062,0.082,0.105,0.108c0.025,0.046,0.063,0.083,0.107,0.108c0.024,0.046,0.061,0.082,0.104,0.107    c0.024,0.045,0.062,0.082,0.106,0.107c0.024,0.046,0.062,0.083,0.106,0.109c0.104,0.186,0.345,0.191,0.916,0.191h6c1,0,1,0,1-1    c0-0.492-0.053-0.986-0.155-1.464c0.002,0.001,0.004,0.003,0.006,0.004c0.024,0.045,0.061,0.08,0.104,0.106    c0.024,0.047,0.062,0.082,0.106,0.108c0.025,0.046,0.062,0.08,0.105,0.106c0.025,0.046,0.061,0.081,0.105,0.107    c0.024,0.047,0.062,0.082,0.106,0.108c0.025,0.046,0.062,0.082,0.106,0.108c0.025,0.045,0.062,0.082,0.106,0.106    c0.025,0.046,0.062,0.081,0.104,0.106c0.025,0.046,0.062,0.082,0.105,0.107c0.025,0.047,0.063,0.082,0.106,0.108    c0.026,0.047,0.063,0.083,0.108,0.11c0.024,0.043,0.061,0.078,0.104,0.104c0.025,0.047,0.063,0.083,0.107,0.109    c0.025,0.046,0.062,0.08,0.105,0.106c0.025,0.046,0.063,0.083,0.107,0.108c0.024,0.046,0.061,0.082,0.104,0.107    c0.025,0.045,0.062,0.082,0.106,0.107c0.025,0.046,0.062,0.083,0.106,0.107c0.025,0.047,0.062,0.082,0.105,0.107    c0.024,0.046,0.062,0.082,0.106,0.107c0.024,0.047,0.062,0.084,0.106,0.109c0.104,0.187,0.345,0.192,0.916,0.192h4h4c1,0,1,0,1-1    v-1C78.029,70.234,77.432,68.958,76.484,68.01z" enable-background="new    " fill="url(#SVGID_3_)" opacity="0.8"/></g></g><g id="_x2E_oO"><path d="M30,35c-2.725,0-4,2.529-4,5l0,0c0,1,0,1,1,1h6c1,0,1,0,1-1l0,0C34,37.529,32.725,35,30,35z" fill="#FFFFFF"/><circle cx="30" cy="30" fill="#FFFFFF" r="4"/><path d="M41,34c-2.725,0-5,2.529-5,5v1c0,1,0,1,1,1h4h4c1,0,1,0,1-1v-1C46,36.529,43.725,34,41,34z" fill="#FFFFFF"/><circle cx="41" cy="28" fill="#FFFFFF" r="5"/><path d="M21,36c-2,0-3,2-3,3v1c0,1,0,1,1,1h4c1,0,1,0,1-1v-1C24,38,23,36,21,36z" fill="#FFFFFF"/><circle cx="21" cy="32" fill="#FFFFFF" r="3"/></g></svg>