<?xml version="1.0" ?><!DOCTYPE svg  PUBLIC '-//W3C//DTD SVG 1.1//EN'  'http://www.w3.org/Graphics/SVG/1.1/DTD/svg11.dtd'><svg enable-background="new 0 0 64 64" height="64px" id="Google_Drive" version="1.1" viewBox="0 0 64 64" width="64px" xml:space="preserve" xmlns="http://www.w3.org/2000/svg" xmlns:xlink="http://www.w3.org/1999/xlink"><linearGradient gradientTransform="matrix(1 0 0 -1 -822 -1026)" gradientUnits="userSpaceOnUse" id="Circle_Shadow_1_" x1="886.0303" x2="854.0302" y1="-1089.9985" y2="-1057.9985"><stop offset="0.3163" style="stop-color:#FFFFFF;stop-opacity:0"/><stop offset="0.3508" style="stop-color:#E9E9E9;stop-opacity:0.0504"/><stop offset="0.4543" style="stop-color:#ACACAC;stop-opacity:0.2018"/><stop offset="0.5572" style="stop-color:#787878;stop-opacity:0.3523"/><stop offset="0.6569" style="stop-color:#4D4D4D;stop-opacity:0.4981"/><stop offset="0.7528" style="stop-color:#2B2B2B;stop-opacity:0.6385"/><stop offset="0.8441" style="stop-color:#131313;stop-opacity:0.7719"/><stop offset="0.9286" style="stop-color:#050505;stop-opacity:0.8956"/><stop offset="1" style="stop-color:#000000"/></linearGradient><polygon enable-background="new    " fill="url(#Circle_Shadow_1_)" id="Circle_Shadow" opacity="0.2" points="64.029,64   64.029,30.059 49,15.029 15.059,48.971 30.088,64 "/><circle cx="32" cy="32" fill="#4083F7" id="Circle" r="24"/><g id="Shadow"><g><defs><circle cx="32.029" cy="32" id="SVGID_1_" r="24"/></defs><clipPath id="SVGID_2_"><use overflow="visible" xlink:href="#SVGID_1_"/></clipPath><linearGradient gradientTransform="matrix(1 0 0 -1 -274 -299)" gradientUnits="userSpaceOnUse" id="SVGID_3_" x1="348.5225" x2="295.0074" y1="-376.5063" y2="-322.9913"><stop offset="0.5663" style="stop-color:#000000;stop-opacity:0"/><stop offset="1" style="stop-color:#000000"/></linearGradient><polygon clip-path="url(#SVGID_2_)" enable-background="new    " fill="url(#SVGID_3_)" opacity="0.5" points="78.923,69.895     78.756,69.895 78.816,69.787 78.648,69.787 78.71,69.682 78.542,69.682 78.604,69.574 78.438,69.574 78.497,69.469 78.33,69.469     78.391,69.361 78.225,69.361 78.284,69.256 78.117,69.256 78.178,69.148 78.012,69.148 78.07,69.043 77.904,69.043 77.965,68.938     77.798,68.938 77.859,68.83 77.691,68.83 77.752,68.725 77.585,68.725 77.646,68.618 77.479,68.618 77.54,68.512 77.372,68.512     77.379,68.5 79.029,68.5 69.029,51 68.982,51 68.923,50.895 68.877,50.895 68.816,50.787 68.771,50.787 68.71,50.682     68.664,50.682 68.604,50.575 68.559,50.575 68.497,50.469 68.451,50.469 68.391,50.361 68.346,50.361 68.284,50.256     68.238,50.256 68.178,50.148 68.132,50.148 68.07,50.043 68.025,50.043 67.966,49.938 67.919,49.938 67.857,49.83 67.813,49.83     67.752,49.725 67.707,49.725 67.646,49.618 67.6,49.618 67.539,49.512 67.494,49.512 67.434,49.404 67.387,49.404 67.326,49.299     67.281,49.299 67.221,49.191 67.175,49.191 67.113,49.086 67.068,49.086 67.008,48.979 66.962,48.979 66.9,48.874 66.855,48.874     66.795,48.768 66.749,48.768 66.688,48.661 66.643,48.661 66.582,48.555 66.536,48.555 66.477,48.448 66.43,48.448 66.369,48.342     66.323,48.342 66.264,48.234 66.217,48.234 66.156,48.129 66.109,48.129 66.05,48.023 66.004,48.023 65.943,47.917 65.896,47.917     65.837,47.811 65.791,47.811 65.73,47.704 65.686,47.704 65.624,47.598 65.578,47.598 65.518,47.491 65.473,47.491 65.412,47.385     65.365,47.385 65.305,47.279 65.259,47.279 65.198,47.173 65.152,47.173 65.092,47.066 65.046,47.066 64.984,46.96 64.939,46.96     64.879,46.854 64.833,46.854 64.771,46.747 64.729,46.747 64.667,46.641 64.621,46.641 64.561,46.535 64.516,46.535 64.454,46.43     64.408,46.43 64.348,46.322 64.302,46.322 64.241,46.216 64.195,46.216 64.135,46.109 64.088,46.109 64.027,46.004 63.982,46.004     63.922,45.896 63.876,45.896 63.814,45.791 63.77,45.791 63.709,45.686 63.663,45.686 63.604,45.578 63.557,45.578 63.496,45.473     63.45,45.473 63.391,45.365 63.344,45.365 63.283,45.26 63.238,45.26 63.177,45.152 63.131,45.152 63.07,45.047 63.023,45.047     62.964,44.939 62.918,44.939 62.857,44.834 62.813,44.834 62.751,44.729 62.705,44.729 62.645,44.621 62.6,44.621 62.538,44.516     62.493,44.516 62.432,44.408 62.387,44.408 62.326,44.303 62.279,44.303 62.219,44.195 62.174,44.195 62.113,44.09 62.066,44.09     62.006,43.982 61.961,43.982 61.9,43.877 61.854,43.877 61.793,43.771 61.748,43.771 61.688,43.664 61.643,43.664 61.581,43.559     61.534,43.559 61.475,43.452 61.43,43.452 61.368,43.346 61.322,43.346 61.262,43.239 61.216,43.239 61.154,43.133 61.109,43.133     61.049,43.027 61.004,43.027 60.941,42.92 60.896,42.92 60.836,42.814 60.79,42.814 60.729,42.708 60.684,42.708 60.623,42.602     60.577,42.602 60.518,42.495 60.471,42.495 60.41,42.389 60.363,42.389 60.305,42.282 60.258,42.282 60.197,42.176 60.15,42.176     60.091,42.07 60.045,42.07 59.984,41.964 59.938,41.964 59.878,41.857 59.832,41.857 59.771,41.751 59.727,41.751 59.665,41.645     59.619,41.645 59.559,41.538 59.514,41.538 59.452,41.432 59.406,41.432 59.346,41.326 59.301,41.326 59.24,41.221 59.193,41.221     59.133,41.113 59.088,41.113 59.027,41.007 58.98,41.007 58.92,40.9 58.875,40.9 58.814,40.794 58.768,40.794 58.707,40.688     58.662,40.688 58.602,40.581 58.555,40.581 58.494,40.477 58.449,40.477 58.389,40.369 58.343,40.369 58.282,40.264     58.236,40.264 58.176,40.156 58.13,40.156 58.068,40.05 58.023,40.05 57.963,39.943 57.917,39.943 57.855,39.837 57.811,39.837     57.75,39.73 57.704,39.73 57.645,39.625 57.598,39.625 57.537,39.52 57.491,39.52 57.432,39.412 57.385,39.412 57.324,39.307     57.277,39.307 57.218,39.199 57.172,39.199 57.111,39.093 57.066,39.093 57.006,38.986 56.959,38.986 56.898,38.88 56.854,38.88     56.792,38.773 56.746,38.773 56.686,38.668 56.641,38.668 56.579,38.563 56.533,38.563 56.473,38.455 56.427,38.455 56.366,38.35     56.32,38.35 56.26,38.242 56.215,38.242 56.154,38.136 56.107,38.136 56.048,38.029 56.002,38.029 55.941,37.924 55.896,37.924     55.835,37.816 55.789,37.816 55.729,37.711 55.682,37.711 55.621,37.604 55.576,37.604 55.516,37.498 55.469,37.498     55.408,37.393 55.363,37.393 55.303,37.285 55.257,37.285 55.195,37.18 55.15,37.18 55.09,37.073 55.044,37.073 54.982,36.967     54.938,36.967 54.877,36.859 54.831,36.859 54.771,36.754 54.725,36.754 54.664,36.648 54.619,36.648 54.559,36.541     54.512,36.541 54.451,36.436 54.404,36.436 54.346,36.329 54.299,36.329 54.238,36.223 54.191,36.223 54.132,36.116     54.086,36.116 54.025,36.01 53.979,36.01 53.919,35.904 53.874,35.904 53.813,35.797 53.768,35.797 53.707,35.691 53.66,35.691     53.6,35.585 53.555,35.585 53.494,35.479 53.447,35.479 53.387,35.372 53.342,35.372 53.281,35.266 53.234,35.266 53.174,35.16     53.129,35.16 53.066,35.053 53.021,35.053 52.961,34.945 52.916,34.945 52.855,34.841 52.811,34.841 52.749,34.734 52.703,34.734     52.643,34.628 52.596,34.628 52.535,34.521 52.49,34.521 52.43,34.416 52.384,34.416 52.323,34.311 52.277,34.311 52.217,34.203     52.171,34.203 52.109,34.096 52.064,34.096 52.004,33.99 51.958,33.99 51.896,33.885 51.854,33.885 51.791,33.777 51.745,33.777     51.686,33.671 51.639,33.671 51.578,33.564 51.533,33.564 51.473,33.459 51.427,33.459 51.365,33.352 51.318,33.352     51.259,33.245 51.213,33.245 51.152,33.141 51.105,33.141 51.046,33.033 51,33.033 50.939,32.927 50.895,32.927 50.833,32.82     50.787,32.82 50.727,32.715 50.682,32.715 50.621,32.607 50.575,32.607 50.516,32.502 50.468,32.502 50.407,32.396 50.361,32.396     50.302,32.289 50.256,32.289 50.195,32.183 50.148,32.183 50.088,32.076 50.043,32.076 49.982,31.97 49.936,31.97 49.875,31.864     49.83,31.864 49.77,31.758 49.723,31.758 49.662,31.651 49.617,31.651 49.557,31.545 49.512,31.545 49.45,31.438 49.404,31.438     49.344,31.333 49.299,31.333 49.236,31.226 49.191,31.226 49.131,31.119 49.085,31.119 49.023,31.014 48.979,31.014     48.918,30.907 48.872,30.907 48.813,30.801 48.766,30.801 48.705,30.694 48.659,30.694 48.6,30.588 48.553,30.588 48.492,30.482     48.447,30.482 48.387,30.375 48.34,30.375 48.279,30.269 48.232,30.269 48.173,30.163 48.128,30.163 48.066,30.057 48.021,30.057     47.96,29.95 47.914,29.95 47.854,29.844 47.809,29.844 47.748,29.737 47.701,29.737 47.641,29.631 47.596,29.631 47.535,29.525     47.488,29.525 47.428,29.418 47.383,29.418 47.322,29.313 47.275,29.313 47.216,29.206 47.17,29.206 47.109,29.1 47.063,29.1     47.002,28.993 46.957,28.993 46.896,28.887 46.852,28.887 46.79,28.781 46.744,28.781 46.684,28.675 46.639,28.675 46.576,28.568     46.531,28.568 46.471,28.462 46.425,28.462 46.363,28.355 46.318,28.355 46.258,28.249 46.212,28.249 46.15,28.143 46.105,28.143     46.045,28.037 45.999,28.037 45.938,27.931 45.893,27.931 45.832,27.824 45.787,27.824 45.727,27.717 45.68,27.717 45.619,27.611     45.574,27.611 45.514,27.505 45.467,27.505 45.406,27.398 45.359,27.398 45.3,27.292 45.254,27.292 45.193,27.187 45.148,27.187     45.088,27.08 45.041,27.08 44.98,26.974 44.936,26.974 44.874,26.867 44.828,26.867 44.768,26.761 44.723,26.761 44.661,26.654     44.615,26.654 44.555,26.548 44.51,26.548 44.449,26.442 44.402,26.442 44.342,26.335 44.297,26.335 44.236,26.229 44.189,26.229     44.13,26.123 44.084,26.123 44.023,26.017 43.979,26.017 43.917,25.91 43.87,25.91 43.811,25.804 43.766,25.804 43.704,25.698     43.658,25.698 43.598,25.591 43.551,25.591 43.49,25.485 43.445,25.485 43.385,25.379 43.339,25.379 43.277,25.272 43.232,25.272     43.172,25.167 43.127,25.167 43.064,25.06 43.02,25.06 42.959,24.953 42.913,24.953 42.854,24.847 42.807,24.847 42.746,24.741     42.7,24.741 42.641,24.634 42.594,24.634 42.533,24.528 42.486,24.528 42.427,24.422 42.381,24.422 42.32,24.316 42.275,24.316     42.214,24.209 42.168,24.209 42.107,24.103 42.063,24.103 42.002,23.997 41.956,23.997 41.896,23.89 41.85,23.89 41.788,23.784     41.743,23.784 41.684,23.678 41.637,23.678 41.575,23.572 41.529,23.572 41.469,23.465 41.425,23.465 41.363,23.358     41.316,23.358 41.256,23.252 41.211,23.252 41.15,23.146 41.104,23.146 41.044,23.04 40.998,23.04 40.938,22.934 40.893,22.934     40.831,22.828 40.785,22.828 40.725,22.721 40.68,22.721 40.618,22.615 40.572,22.615 40.512,22.508 40.466,22.508 40.404,22.401     40.359,22.401 40.299,22.296 40.253,22.296 40.191,22.189 40.146,22.189 40.086,22.083 40.04,22.083 39.979,21.977 39.934,21.977     39.873,21.871 39.827,21.871 39.768,21.764 39.721,21.764 39.66,21.658 39.613,21.658 39.555,21.552 39.508,21.552 39.447,21.445     39.4,21.445 39.341,21.339 39.295,21.339 39.234,21.232 39.189,21.232 39.129,21.126 39.082,21.126 39.021,21.02 38.977,21.02     38.915,20.914 38.869,20.914 38.809,20.808 38.764,20.808 38.702,20.701 38.657,20.701 38.598,20.595 38.55,20.595 38.488,20.488     38.443,20.488 38.383,20.382 38.338,20.382 38.277,20.276 38.23,20.276 38.171,20.169 38.125,20.169 38.064,20.063 38.018,20.063     37.957,19.957 37.911,19.957 37.852,19.851 37.807,19.851 37.745,19.744 37.699,19.744 37.639,19.638 37.593,19.638     37.532,19.531 37.486,19.531 37.426,19.425 37.38,19.425 37.318,19.319 37.273,19.319 37.213,19.213 37.167,19.213 37.105,19.106     37.061,19.106 37,19 28,19 30.678,23.687 30.66,23.722 30.576,23.572 30.553,23.615 30.47,23.465 30.446,23.51 30.362,23.358     30.339,23.402 30.256,23.252 30.233,23.295 30.15,23.146 30.127,23.189 30.044,23.04 30.021,23.084 29.937,22.934 29.914,22.977     29.831,22.828 29.808,22.871 29.725,22.721 29.702,22.765 29.618,22.615 29.595,22.659 29.511,22.508 29.488,22.552     29.405,22.401 29.382,22.445 29.299,22.296 29.276,22.34 29.192,22.189 29.169,22.233 29.086,22.083 29.063,22.127 28.979,21.977     28.957,22.021 28.873,21.871 28.85,21.914 28.767,21.764 28.744,21.808 28.66,21.658 28.637,21.702 28.553,21.552 28.53,21.595     28.447,21.445 28.424,21.489 28.341,21.339 28.318,21.383 28.234,21.232 28.212,21.275 28.129,21.126 28.105,21.17 28.022,21.02     27.999,21.063 27.916,20.914 27.893,20.958 27.809,20.808 27.786,20.852 27.703,20.701 27.68,20.745 27.596,20.595 27.573,20.639     27.49,20.488 27.467,20.532 27.383,20.382 27.36,20.425 27.277,20.276 27.254,20.319 27.171,20.169 27.147,20.214 27.064,20.063     27.041,20.107 26.958,19.957 26.935,20.001 26.851,19.851 26.828,19.894 26.745,19.744 26.722,19.788 26.638,19.638     26.615,19.682 26.532,19.531 26.509,19.575 26.426,19.425 26.402,19.469 26.319,19.319 26.296,19.363 26.212,19.213     26.189,19.257 26.106,19.106 26.083,19.149 26,19 17,36.063 21,45 21.033,44.943 21.106,45.105 21.14,45.049 21.213,45.213     21.246,45.156 21.319,45.318 21.353,45.264 21.426,45.426 21.459,45.369 21.532,45.531 21.565,45.475 21.639,45.639     21.672,45.581 21.745,45.744 21.778,45.688 21.851,45.852 21.884,45.794 21.958,45.957 21.991,45.898 22.064,46.063     22.098,46.005 22.171,46.169 22.204,46.111 22.277,46.275 22.311,46.219 22.383,46.382 22.417,46.325 22.49,46.488 22.523,46.432     22.597,46.596 22.629,46.539 22.702,46.701 22.735,46.645 22.809,46.809 22.842,46.751 22.915,46.914 22.949,46.855     23.022,47.021 23.055,46.964 23.128,47.127 23.162,47.07 23.234,47.232 23.268,47.176 23.341,47.339 23.375,47.281 23.448,47.445     23.481,47.389 23.554,47.552 23.587,47.495 23.66,47.658 23.693,47.602 23.767,47.766 23.8,47.707 23.874,47.871 23.907,47.814     23.98,47.979 24.013,47.921 24.086,48.083 24.119,48.025 24.192,48.189 24.226,48.133 24.299,48.296 24.332,48.239 24.405,48.4     24.438,48.346 24.511,48.508 24.544,48.451 24.618,48.614 24.651,48.557 24.725,48.721 24.758,48.664 24.831,48.827     24.864,48.771 24.937,48.934 24.97,48.877 25.043,49.04 25.077,48.982 25.15,49.146 25.184,49.09 25.256,49.252 25.29,49.195     25.363,49.357 25.396,49.302 25.469,49.465 25.503,49.407 25.576,49.57 25.609,49.516 25.683,49.678 25.715,49.622 25.788,49.784     25.821,49.729 25.895,49.891 25.928,49.833 26.001,49.997 26.035,49.939 26.107,50.104 26.141,50.046 26.214,50.209     26.247,50.152 26.32,50.314 26.354,50.258 26.427,50.422 26.46,50.365 26.534,50.527 26.567,50.473 26.64,50.635 26.673,50.577     26.746,50.74 26.779,50.684 26.853,50.848 26.886,50.791 26.959,50.953 26.992,50.896 27.065,51.061 27.099,51.003 27.172,51.166     27.205,51.109 27.278,51.271 27.312,51.216 27.385,51.379 27.418,51.322 27.491,51.484 27.524,51.43 27.597,51.592 27.631,51.534     27.704,51.698 27.737,51.643 27.81,51.805 27.843,51.747 27.917,51.91 27.95,51.854 28.023,52.018 28.057,51.959 28.13,52.123     28.163,52.066 28.236,52.229 28.27,52.173 28.342,52.336 28.376,52.277 28.449,52.441 28.482,52.385 28.555,52.548 28.588,52.491     28.661,52.654 28.694,52.598 28.768,52.761 28.801,52.704 28.874,52.867 28.907,52.811 28.98,52.975 29.015,52.916 29.088,53.08     29.121,53.023 29.193,53.186 29.227,53.129 29.3,53.292 29.333,53.234 29.406,53.398 29.439,53.342 29.513,53.506 29.546,53.449     29.619,53.611 29.652,53.555 29.726,53.718 29.759,53.661 29.832,53.824 29.866,53.768 29.939,53.932 29.972,53.874     30.045,54.037 30.078,53.98 30.151,54.143 30.185,54.086 30.258,54.25 30.292,54.191 30.364,54.355 30.397,54.299 30.471,54.462     30.504,54.404 30.577,54.566 30.61,54.511 30.683,54.674 30.717,54.617 30.79,54.781 30.824,54.725 30.896,54.887 30.929,54.831     31.002,54.993 31.036,54.936 31.109,55.1 31.143,55.042 31.216,55.206 31.249,55.148 31.322,55.313 31.355,55.256 31.428,55.418     31.461,55.361 31.534,55.525 31.568,55.468 31.642,55.632 31.675,55.575 31.748,55.736 31.781,55.682 31.854,55.844     31.887,55.787 31.96,55.95 31.994,55.893 32.067,56.057 32.1,56.001 32.173,56.163 32.206,56.105 32.279,56.27 32.313,56.213     32.386,56.376 32.419,56.318 32.493,56.482 32.525,56.426 32.6,56.588 32.632,56.529 32.705,56.693 32.738,56.637 32.813,56.801     32.846,56.744 32.918,56.907 32.951,56.852 33.023,57.014 33.059,56.956 33.131,57.119 33.164,57.063 33.236,57.227     33.271,57.169 33.344,57.332 33.377,57.275 33.45,57.438 33.482,57.382 33.557,57.545 33.59,57.489 33.662,57.65 33.695,57.594     33.77,57.758 33.803,57.7 33.876,57.863 33.909,57.809 33.98,57.971 34.016,57.913 34.088,58.076 34.121,58.02 34.195,58.184     34.229,58.127 34.301,58.289 34.334,58.232 34.407,58.396 34.439,58.339 34.514,58.502 34.548,58.443 34.621,58.607     34.654,58.553 34.727,58.715 34.76,58.657 34.833,58.82 34.866,58.764 34.939,58.927 34.973,58.87 35.046,59.033 35.079,58.977     35.152,59.141 35.186,59.083 35.259,59.246 35.292,59.188 35.365,59.352 35.398,59.295 35.473,59.459 35.505,59.4 35.578,59.564     35.611,59.508 35.686,59.671 35.718,59.614 35.791,59.777 35.824,59.721 35.896,59.884 35.932,59.827 36.004,59.99 36.037,59.934     36.109,60.096 36.145,60.039 36.217,60.203 36.25,60.146 36.323,60.311 36.355,60.253 36.43,60.416 36.463,60.359 36.535,60.521     36.568,60.464 36.643,60.628 36.676,60.57 36.749,60.734 36.782,60.678 36.855,60.841 36.889,60.784 36.961,60.945 36.994,60.889     37.068,61.055 37.102,60.996 37.175,61.159 37.208,61.104 37.279,61.266 37.313,61.209 37.387,61.372 37.421,61.314     37.494,61.479 37.527,61.422 37.6,61.584 37.633,61.527 37.706,61.691 37.738,61.634 37.813,61.797 37.846,61.74 37.919,61.904     37.952,61.848 38.025,62.01 38.059,61.953 38.132,62.116 38.165,62.061 38.238,62.223 38.271,62.166 38.346,62.329 38.378,62.271     38.451,62.436 38.484,62.378 38.559,62.541 38.591,62.484 38.664,62.646 38.697,62.591 38.771,62.754 38.805,62.697     38.877,62.859 38.91,62.805 38.982,62.967 39.018,62.91 39.09,63.073 39.123,63.018 39.195,63.18 39.229,63.123 39.303,63.286     39.336,63.229 39.409,63.393 39.441,63.335 39.516,63.498 39.549,63.441 39.621,63.604 39.654,63.547 39.729,63.711     39.762,63.654 39.835,63.816 39.868,63.761 39.941,63.924 39.975,63.867 40.047,64.029 40.08,63.973 40.154,64.137 40.188,64.08     40.26,64.242 40.293,64.186 40.367,64.35 40.4,64.293 40.473,64.455 40.506,64.398 40.579,64.563 40.611,64.505 40.686,64.668     40.721,64.609 40.793,64.773 40.826,64.719 40.898,64.881 40.932,64.823 41.005,64.986 41.038,64.93 41.111,65.093 41.145,65.036     41.218,65.199 41.251,65.143 41.324,65.307 41.357,65.249 41.432,65.412 41.464,65.355 41.537,65.52 41.57,65.462 41.645,65.625     41.677,65.566 41.75,65.73 41.783,65.674 41.855,65.838 41.891,65.779 41.963,65.943 41.996,65.887 42.068,66.05 42.104,65.993     42.176,66.156 42.209,66.102 42.281,66.264 42.314,66.205 42.389,66.369 42.422,66.313 42.495,66.475 42.527,66.418     42.602,66.582 42.635,66.525 42.707,66.688 42.741,66.63 42.814,66.794 42.848,66.738 42.92,66.9 42.954,66.843 43.027,67.007     43.061,66.951 43.133,67.113 43.166,67.057 43.238,67.221 43.271,67.162 43.346,67.325 43.38,67.268 43.453,67.432 43.486,67.376     43.559,67.538 43.592,67.48 43.665,67.645 43.698,67.588 43.771,67.751 43.805,67.693 43.878,67.857 43.911,67.8 43.984,67.963     44.018,67.906 44.091,68.07 44.124,68.014 44.197,68.176 44.23,68.119 44.305,68.282 44.337,68.227 44.41,68.389 44.443,68.332     44.518,68.495 44.55,68.438 44.623,68.602 44.656,68.544 44.729,68.707 44.764,68.65 44.836,68.814 44.869,68.757 44.941,68.92     44.977,68.863 45.049,69.025 45.082,68.971 45.154,69.133 45.188,69.076 45.262,69.239 45.295,69.184 45.368,69.346 45.4,69.289     45.475,69.452 45.508,69.396 45.58,69.559 45.613,69.5 45.688,69.664 45.721,69.607 45.794,69.771 45.827,69.715 45.898,69.877     45.934,69.82 46.006,69.982 46.04,69.926 46.113,70.09 46.146,70.034 46.219,70.195 46.252,70.141 46.325,70.303 46.357,70.245     46.432,70.408 46.465,70.352 46.538,70.516 46.57,70.458 46.645,70.621 46.678,70.564 46.751,70.729 46.784,70.671 46.857,70.834     46.891,70.777 46.964,70.939 46.997,70.884 47.07,71.047 47.104,70.989 47.177,71.152 47.21,71.096 47.283,71.259 47.316,71.202     47.391,71.365 47.423,71.309 47.496,71.473 47.529,71.415 47.604,71.578 47.637,71.521 47.709,71.686 47.742,71.628     47.814,71.791 47.85,71.734 47.922,71.896 47.955,71.841 48.027,72.004 48.063,71.945 48.135,72.109 48.168,72.055 48.24,72.216     48.273,72.158 48.348,72.322 48.381,72.266 48.454,72.43 48.486,72.373 48.561,72.535 48.593,72.479 48.666,72.641 48.699,72.583     48.773,72.748 48.807,72.691 48.879,72.854 48.912,72.797 48.984,72.961 49.02,72.902 49.092,73.066 49.126,73.009 49.199,73.173     49.232,73.117 49.305,73.279 49.338,73.223 49.411,73.386 49.443,73.328 49.518,73.491 49.551,73.436 49.624,73.598     49.657,73.541 49.73,73.704 49.764,73.646 49.837,73.811 49.87,73.754 49.943,73.917 49.977,73.859 50.05,74.023 50.083,73.967     50.156,74.13 50.189,74.073 50.264,74.236 50.296,74.18 50.369,74.343 50.402,74.285 50.477,74.448 50.509,74.393 50.582,74.555     50.615,74.498 50.688,74.661 50.723,74.604 50.795,74.768 50.828,74.71 50.9,74.873 50.936,74.816 51.008,74.98 51.041,74.923     51.113,75.086 51.146,75.029 51.221,75.191 51.254,75.135 51.327,75.299 51.359,75.242 51.434,75.404 51.467,75.35 51.539,75.512     51.572,75.455 51.646,75.618 51.68,75.561 51.753,75.725 51.786,75.667 51.859,75.83 51.893,75.773 51.965,75.938 51.998,75.88     52.07,76.043 52.105,75.984 52.18,76.148 52.212,76.094 52.284,76.256 52.316,76.199 52.391,76.361 52.424,76.307 52.497,76.469     52.529,76.412 52.604,76.575 52.637,76.52 52.71,76.682 52.743,76.624 52.816,76.787 52.85,76.73 52.923,76.895 52.956,76.837     53.029,77 53.779,75.725 53.92,75.725 53.859,75.83 54.025,75.83 53.965,75.938 54.132,75.938 54.07,76.043 54.238,76.043     54.178,76.148 54.346,76.148 54.284,76.256 54.451,76.256 54.391,76.361 54.559,76.361 54.497,76.469 54.664,76.469     54.604,76.575 54.771,76.575 54.71,76.682 54.877,76.682 54.816,76.787 54.984,76.787 54.923,76.895 55.09,76.895 55.029,77     75.029,77 79.029,70 78.861,70   "/></g></g><g id="Drive"><polygon fill="#FFFFFF" points="23,45 43,45 47,38 27,38  "/><polygon fill="#FFFFFF" points="47,36.5 37,19 28,19 38,36.5  "/><polygon fill="#FFFFFF" points="26,19 17,36.063 21,45 31,28  "/></g></svg>