<?xml version="1.0" ?><!DOCTYPE svg  PUBLIC '-//W3C//DTD SVG 1.1//EN'  'http://www.w3.org/Graphics/SVG/1.1/DTD/svg11.dtd'><svg enable-background="new 0 0 64 64" height="64px" id="Jsfiddle" version="1.1" viewBox="0 0 64 64" width="64px" xml:space="preserve" xmlns="http://www.w3.org/2000/svg" xmlns:xlink="http://www.w3.org/1999/xlink"><linearGradient gradientTransform="matrix(1 0 0 -1 -1370 -1753)" gradientUnits="userSpaceOnUse" id="Circle_Shadow_1_" x1="1434.0303" x2="1402.0295" y1="-1816.9995" y2="-1784.9989"><stop offset="0.3163" style="stop-color:#FFFFFF;stop-opacity:0"/><stop offset="0.3508" style="stop-color:#E9E9E9;stop-opacity:0.0504"/><stop offset="0.4543" style="stop-color:#ACACAC;stop-opacity:0.2018"/><stop offset="0.5572" style="stop-color:#787878;stop-opacity:0.3523"/><stop offset="0.6569" style="stop-color:#4D4D4D;stop-opacity:0.4981"/><stop offset="0.7528" style="stop-color:#2B2B2B;stop-opacity:0.6385"/><stop offset="0.8441" style="stop-color:#131313;stop-opacity:0.7719"/><stop offset="0.9286" style="stop-color:#050505;stop-opacity:0.8956"/><stop offset="1" style="stop-color:#000000"/></linearGradient><polygon enable-background="new    " fill="url(#Circle_Shadow_1_)" id="Circle_Shadow" opacity="0.2" points="64.029,64   64.029,30.059 49,15.029 15.059,48.971 30.088,64 "/><circle cx="32" cy="32" fill="#4679BD" id="Circle" r="24"/><g id="shadow"><g><defs><circle cx="32.029" cy="32" id="SVGID_1_" r="24"/></defs><clipPath id="SVGID_2_"><use overflow="visible" xlink:href="#SVGID_1_"/></clipPath><linearGradient gradientTransform="matrix(1 0 0 -1 -274 -299)" gradientUnits="userSpaceOnUse" id="SVGID_3_" x1="347.5605" x2="296.8388" y1="-374.9131" y2="-324.1913"><stop offset="0.5255" style="stop-color:#000000;stop-opacity:0"/><stop offset="0.5946" style="stop-color:#000000;stop-opacity:0.1456"/><stop offset="1" style="stop-color:#000000"/></linearGradient><path clip-path="url(#SVGID_2_)" d="M77.387,64.141    c-0.035-0.037-0.072-0.07-0.107-0.106c-0.033-0.035-0.069-0.069-0.104-0.104c-0.034-0.037-0.071-0.072-0.108-0.109    c-0.034-0.035-0.069-0.068-0.104-0.104c-0.034-0.035-0.069-0.07-0.104-0.105c-0.035-0.036-0.071-0.07-0.106-0.106    s-0.071-0.069-0.106-0.104c-0.035-0.037-0.07-0.071-0.105-0.107c-0.036-0.036-0.072-0.07-0.107-0.107    c-0.035-0.035-0.07-0.068-0.104-0.104c-0.035-0.036-0.07-0.071-0.106-0.105c-0.035-0.037-0.07-0.072-0.105-0.106    c-0.035-0.037-0.071-0.071-0.106-0.106c-0.034-0.037-0.071-0.07-0.106-0.105c-0.034-0.037-0.07-0.071-0.105-0.107    c-0.035-0.035-0.07-0.07-0.105-0.105c-0.035-0.036-0.072-0.071-0.109-0.108c-0.033-0.034-0.066-0.067-0.102-0.103    c-0.03-0.031-0.063-0.063-0.095-0.096c-0.036-2.388-0.909-4.42-2.388-5.855c-0.035-0.036-0.07-0.071-0.105-0.106    c-0.035-0.034-0.07-0.069-0.104-0.104c-0.036-0.037-0.073-0.074-0.11-0.11c-0.033-0.035-0.068-0.07-0.104-0.104    c-0.035-0.035-0.07-0.071-0.105-0.105c-0.035-0.036-0.07-0.07-0.105-0.105c-0.036-0.037-0.07-0.072-0.106-0.106    c-0.036-0.036-0.069-0.071-0.106-0.106c-0.035-0.035-0.07-0.071-0.105-0.105c-0.036-0.036-0.07-0.072-0.107-0.107    c-0.035-0.035-0.07-0.07-0.106-0.105c-0.033-0.034-0.067-0.068-0.103-0.104s-0.072-0.072-0.107-0.107    c-0.036-0.036-0.07-0.072-0.105-0.106c-0.037-0.036-0.07-0.071-0.106-0.106s-0.072-0.071-0.108-0.107    c-0.033-0.034-0.066-0.068-0.104-0.102c-0.034-0.036-0.069-0.072-0.105-0.107c-0.037-0.038-0.074-0.075-0.111-0.111    c-0.033-0.033-0.066-0.066-0.102-0.101c-0.035-0.037-0.07-0.073-0.107-0.108c-0.035-0.035-0.069-0.07-0.105-0.105    c-0.036-0.036-0.071-0.072-0.107-0.107c-0.035-0.035-0.07-0.07-0.105-0.105s-0.07-0.071-0.105-0.105    c-0.037-0.035-0.072-0.072-0.109-0.107c-0.032-0.033-0.064-0.067-0.1-0.101c-0.035-0.036-0.072-0.073-0.109-0.11    c-0.035-0.035-0.069-0.07-0.105-0.105c-0.036-0.036-0.07-0.072-0.105-0.105c-0.037-0.037-0.072-0.074-0.108-0.108    c-0.034-0.034-0.067-0.068-0.103-0.103c-0.035-0.035-0.07-0.072-0.105-0.105c-0.037-0.037-0.073-0.075-0.111-0.111    c-0.033-0.035-0.068-0.068-0.104-0.104c-0.036-0.036-0.07-0.071-0.105-0.106c-0.037-0.036-0.07-0.071-0.107-0.106    c-0.035-0.035-0.069-0.07-0.105-0.105c-0.035-0.035-0.07-0.07-0.105-0.105s-0.07-0.071-0.106-0.106    c-0.035-0.036-0.069-0.071-0.106-0.106c-0.035-0.035-0.069-0.07-0.104-0.104c-0.036-0.036-0.069-0.071-0.106-0.106    c-0.035-0.035-0.071-0.072-0.107-0.107c-0.034-0.034-0.068-0.069-0.104-0.104c-0.037-0.037-0.072-0.074-0.108-0.108    c-0.034-0.034-0.067-0.068-0.101-0.103c-0.039-0.037-0.076-0.076-0.113-0.113c-0.035-0.033-0.069-0.068-0.104-0.103    c-0.036-0.036-0.069-0.071-0.106-0.106c-0.035-0.035-0.069-0.071-0.105-0.105c-0.036-0.036-0.07-0.07-0.105-0.105    c-0.037-0.037-0.072-0.072-0.108-0.108c-0.034-0.034-0.067-0.069-0.104-0.103c-0.035-0.037-0.07-0.074-0.107-0.109    c-0.034-0.034-0.068-0.069-0.104-0.104c-0.035-0.037-0.072-0.072-0.107-0.107c-0.036-0.036-0.07-0.072-0.106-0.106    c-0.036-0.036-0.071-0.073-0.108-0.108c-0.035-0.035-0.07-0.071-0.106-0.106c-0.032-0.032-0.063-0.065-0.099-0.097    c-0.037-0.039-0.075-0.078-0.114-0.116c-0.034-0.034-0.067-0.067-0.103-0.103s-0.07-0.071-0.106-0.106    c-0.036-0.036-0.069-0.072-0.106-0.106c-0.035-0.035-0.07-0.07-0.105-0.105c-0.036-0.036-0.072-0.072-0.108-0.108    c-0.034-0.034-0.069-0.069-0.104-0.104c-0.034-0.034-0.068-0.069-0.104-0.104c-0.034-0.035-0.069-0.07-0.106-0.105    c-0.035-0.036-0.07-0.072-0.107-0.108c-0.035-0.035-0.07-0.071-0.105-0.104c-0.035-0.037-0.069-0.071-0.105-0.106    c-0.036-0.037-0.072-0.073-0.109-0.108c-0.033-0.035-0.067-0.068-0.104-0.104c-0.035-0.036-0.07-0.072-0.105-0.107    s-0.07-0.07-0.106-0.104c-0.034-0.035-0.069-0.07-0.104-0.104c-0.035-0.037-0.07-0.072-0.106-0.107    c-0.036-0.036-0.07-0.071-0.106-0.106c-0.037-0.036-0.072-0.073-0.109-0.108c-0.033-0.034-0.066-0.068-0.103-0.103    c-0.034-0.034-0.069-0.071-0.104-0.106c-0.037-0.037-0.074-0.074-0.112-0.111c-0.032-0.032-0.065-0.064-0.099-0.098    c-0.037-0.037-0.072-0.074-0.109-0.11c-0.036-0.036-0.07-0.071-0.105-0.106c-0.037-0.035-0.072-0.072-0.108-0.107    c-0.034-0.034-0.068-0.069-0.104-0.104c-0.035-0.037-0.072-0.074-0.109-0.109c-0.034-0.036-0.07-0.071-0.106-0.106    c-0.032-0.032-0.065-0.065-0.099-0.1c-0.037-0.037-0.073-0.074-0.11-0.11c-0.036-0.036-0.069-0.07-0.106-0.105    c-0.035-0.037-0.071-0.072-0.107-0.108c-0.034-0.034-0.068-0.069-0.104-0.103c-0.035-0.037-0.069-0.071-0.105-0.106    c-0.038-0.038-0.076-0.077-0.115-0.114c-0.031-0.031-0.063-0.064-0.096-0.096c-0.036-0.037-0.072-0.074-0.109-0.11    c-0.035-0.036-0.07-0.071-0.105-0.106c-0.036-0.035-0.07-0.071-0.106-0.105c-0.036-0.035-0.071-0.072-0.108-0.107    c-0.033-0.034-0.066-0.068-0.103-0.104c-0.036-0.036-0.071-0.072-0.108-0.109c-0.035-0.035-0.069-0.069-0.105-0.104    c-0.035-0.035-0.07-0.071-0.105-0.104c-0.035-0.037-0.069-0.071-0.105-0.106c-0.036-0.036-0.07-0.072-0.105-0.106    c-0.037-0.035-0.072-0.072-0.108-0.107c-0.035-0.035-0.069-0.069-0.104-0.104c-0.035-0.037-0.068-0.072-0.104-0.106    c-0.035-0.036-0.071-0.072-0.107-0.107c-0.034-0.034-0.067-0.069-0.104-0.104c-0.035-0.036-0.071-0.072-0.108-0.108    c-0.035-0.036-0.069-0.071-0.106-0.106c-0.033-0.033-0.067-0.068-0.104-0.103c-0.036-0.037-0.072-0.074-0.109-0.11    c-0.035-0.035-0.068-0.07-0.104-0.104c-0.035-0.035-0.07-0.071-0.105-0.105c-0.035-0.035-0.07-0.07-0.104-0.104    c-0.036-0.036-0.071-0.072-0.108-0.108c-0.035-0.035-0.07-0.072-0.107-0.107c-0.033-0.033-0.067-0.068-0.104-0.103    c-0.035-0.036-0.072-0.073-0.109-0.11c-0.034-0.034-0.068-0.069-0.104-0.104c-0.035-0.035-0.07-0.07-0.105-0.105    c-0.034-0.034-0.068-0.069-0.104-0.104c-0.037-0.037-0.071-0.073-0.108-0.108c-0.035-0.037-0.07-0.071-0.105-0.105    c-0.036-0.036-0.07-0.071-0.105-0.105c-0.037-0.037-0.072-0.072-0.108-0.108c-0.035-0.035-0.069-0.07-0.104-0.104    c-0.035-0.035-0.07-0.07-0.105-0.105s-0.07-0.07-0.105-0.105s-0.07-0.07-0.105-0.105s-0.07-0.071-0.106-0.106    c-0.036-0.036-0.071-0.073-0.108-0.108c-0.035-0.035-0.068-0.069-0.104-0.104c-0.035-0.035-0.068-0.07-0.105-0.104    c-0.035-0.037-0.072-0.075-0.109-0.111c-0.033-0.033-0.064-0.066-0.1-0.1c-0.037-0.037-0.073-0.074-0.111-0.111    c-0.034-0.035-0.069-0.07-0.104-0.104c-0.037-0.037-0.07-0.072-0.106-0.106c-0.036-0.036-0.072-0.072-0.108-0.108    c-0.035-0.035-0.068-0.07-0.104-0.104c-0.035-0.035-0.069-0.07-0.104-0.104c-0.036-0.036-0.071-0.073-0.108-0.108    c-0.034-0.034-0.067-0.068-0.103-0.103c-0.036-0.038-0.073-0.075-0.11-0.112c-0.037-0.035-0.071-0.07-0.107-0.105    c-0.034-0.034-0.068-0.069-0.104-0.104c-0.037-0.037-0.072-0.072-0.106-0.106c-0.035-0.035-0.07-0.071-0.106-0.104    c-0.035-0.037-0.07-0.074-0.106-0.108c-0.035-0.035-0.07-0.07-0.105-0.104c-0.032-0.033-0.065-0.068-0.101-0.102    c-0.038-0.039-0.076-0.077-0.114-0.115c-0.034-0.034-0.067-0.068-0.104-0.102c-0.035-0.037-0.071-0.074-0.108-0.109    c-0.034-0.035-0.067-0.07-0.104-0.104c-0.035-0.037-0.07-0.071-0.105-0.106s-0.068-0.07-0.104-0.104    c-0.037-0.035-0.071-0.072-0.107-0.106c-0.035-0.036-0.071-0.072-0.107-0.106c-0.035-0.037-0.07-0.072-0.106-0.107    c-0.035-0.035-0.069-0.07-0.104-0.104s-0.07-0.071-0.105-0.104c-0.035-0.036-0.071-0.072-0.107-0.108    c-0.033-0.034-0.068-0.069-0.104-0.104c-0.036-0.035-0.071-0.071-0.107-0.106c-0.036-0.036-0.07-0.071-0.105-0.106    c-0.037-0.035-0.071-0.071-0.108-0.106c-0.034-0.035-0.067-0.069-0.104-0.104c-0.035-0.035-0.069-0.07-0.105-0.105    c-0.036-0.037-0.072-0.073-0.109-0.109c-0.035-0.035-0.068-0.07-0.104-0.104c-0.036-0.036-0.072-0.072-0.108-0.108    c-0.034-0.034-0.067-0.067-0.103-0.102c-0.035-0.036-0.07-0.072-0.106-0.106c-0.034-0.035-0.071-0.072-0.106-0.107    c-0.036-0.036-0.072-0.072-0.108-0.108c-0.035-0.035-0.069-0.069-0.104-0.104s-0.068-0.069-0.104-0.104    c-0.036-0.037-0.071-0.074-0.11-0.109c-0.033-0.035-0.066-0.069-0.103-0.104c-0.036-0.037-0.072-0.073-0.108-0.108    c-0.035-0.035-0.07-0.07-0.104-0.104c-0.035-0.035-0.069-0.07-0.104-0.104c-0.037-0.037-0.072-0.074-0.109-0.109    c-0.034-0.034-0.068-0.068-0.104-0.104c-0.035-0.037-0.072-0.072-0.109-0.109c-0.035-0.035-0.069-0.07-0.105-0.104    c-0.035-0.035-0.068-0.071-0.104-0.104c-0.037-0.037-0.071-0.071-0.107-0.106c-0.035-0.036-0.07-0.071-0.105-0.106    s-0.07-0.07-0.105-0.105s-0.07-0.071-0.105-0.105c-0.035-0.035-0.068-0.068-0.103-0.103c-0.037-0.038-0.075-0.076-0.113-0.114    c-0.034-0.035-0.069-0.07-0.106-0.104c-0.033-0.035-0.066-0.069-0.103-0.104c-0.036-0.036-0.071-0.073-0.108-0.108    c-0.035-0.035-0.069-0.07-0.104-0.104c-0.036-0.036-0.071-0.071-0.106-0.106s-0.07-0.07-0.105-0.105s-0.068-0.07-0.104-0.104    c-0.037-0.037-0.072-0.074-0.11-0.109c-0.035-0.036-0.07-0.071-0.106-0.105c-0.033-0.035-0.068-0.07-0.103-0.104    c-0.036-0.036-0.071-0.073-0.107-0.108c-0.034-0.034-0.069-0.069-0.104-0.104c-0.037-0.037-0.073-0.074-0.111-0.11    c-0.032-0.033-0.067-0.068-0.103-0.104c-0.035-0.036-0.071-0.072-0.108-0.108c-0.034-0.034-0.067-0.069-0.104-0.103    c-0.035-0.037-0.069-0.072-0.106-0.108c-0.036-0.036-0.072-0.073-0.108-0.108c-0.035-0.035-0.068-0.068-0.104-0.104    c-0.036-0.036-0.072-0.073-0.107-0.107c-0.035-0.035-0.07-0.072-0.105-0.105c-0.036-0.036-0.071-0.072-0.107-0.107    c-0.035-0.033-0.068-0.068-0.104-0.104c-0.035-0.036-0.07-0.072-0.106-0.107c-0.034-0.035-0.069-0.07-0.104-0.105    c-0.036-0.037-0.072-0.074-0.109-0.11c-0.035-0.035-0.068-0.07-0.104-0.104S48.75,32.034,48.715,32    c-0.038-0.038-0.075-0.076-0.113-0.112c-0.033-0.035-0.068-0.069-0.103-0.103c-0.036-0.036-0.071-0.072-0.108-0.108    c-0.033-0.035-0.068-0.07-0.104-0.105c-0.035-0.035-0.07-0.071-0.106-0.105c-0.034-0.036-0.069-0.072-0.106-0.107    c-0.035-0.036-0.07-0.072-0.106-0.107c-0.036-0.036-0.071-0.071-0.106-0.106s-0.069-0.07-0.104-0.105s-0.069-0.071-0.104-0.106    c-0.037-0.036-0.071-0.072-0.108-0.107c-0.034-0.035-0.067-0.07-0.104-0.104c-0.035-0.037-0.072-0.073-0.108-0.109    c-0.034-0.035-0.068-0.07-0.104-0.104c-0.035-0.036-0.07-0.073-0.106-0.108c-0.035-0.035-0.069-0.07-0.104-0.104    c-0.035-0.037-0.072-0.073-0.109-0.109c-0.033-0.035-0.067-0.07-0.104-0.104c-0.035-0.037-0.072-0.074-0.109-0.11    c-0.035-0.035-0.069-0.07-0.105-0.105c-0.034-0.035-0.068-0.07-0.104-0.104c-0.037-0.037-0.072-0.073-0.109-0.109    c-0.033-0.034-0.066-0.068-0.102-0.102c-0.037-0.037-0.074-0.075-0.11-0.111c-0.034-0.035-0.068-0.069-0.104-0.104    c-0.035-0.037-0.072-0.073-0.109-0.109c-0.034-0.036-0.069-0.071-0.104-0.106c-0.034-0.035-0.069-0.071-0.104-0.105    c-0.036-0.036-0.071-0.072-0.108-0.107c-0.034-0.035-0.067-0.07-0.104-0.104c-0.035-0.037-0.07-0.073-0.107-0.109    c-0.034-0.034-0.066-0.068-0.102-0.102c-0.037-0.037-0.072-0.073-0.108-0.109c-0.035-0.036-0.07-0.071-0.104-0.105    c-0.037-0.037-0.074-0.074-0.11-0.11c-0.034-0.034-0.067-0.068-0.103-0.102c-0.037-0.037-0.074-0.075-0.111-0.111    c-0.033-0.034-0.066-0.067-0.102-0.101c-0.035-0.037-0.07-0.073-0.107-0.109c-0.035-0.036-0.07-0.071-0.106-0.106    c-0.035-0.035-0.069-0.071-0.104-0.105c-0.035-0.037-0.071-0.073-0.107-0.108c-0.035-0.035-0.068-0.07-0.104-0.104    c-0.035-0.036-0.071-0.073-0.107-0.108c-0.036-0.036-0.071-0.072-0.107-0.107c-0.035-0.036-0.07-0.071-0.105-0.106    c-0.034-0.035-0.068-0.069-0.104-0.103c-0.037-0.037-0.072-0.073-0.109-0.109c-0.034-0.036-0.069-0.071-0.104-0.106    c-0.036-0.036-0.071-0.071-0.106-0.106c-0.034-0.035-0.068-0.07-0.104-0.104c-0.035-0.037-0.07-0.073-0.107-0.108    c-0.035-0.035-0.07-0.071-0.105-0.106c-0.036-0.036-0.07-0.072-0.107-0.107c-0.035-0.035-0.068-0.07-0.104-0.104    c-0.037-0.038-0.074-0.075-0.111-0.111c-0.033-0.035-0.068-0.069-0.103-0.103c-0.035-0.036-0.07-0.071-0.106-0.106    c-0.035-0.036-0.07-0.071-0.104-0.106c-0.035-0.035-0.07-0.071-0.105-0.105c-0.036-0.037-0.071-0.074-0.11-0.11    c-0.033-0.035-0.066-0.069-0.103-0.103c-0.036-0.037-0.071-0.074-0.108-0.109c-0.035-0.036-0.07-0.072-0.107-0.107    c-0.034-0.035-0.068-0.071-0.105-0.105c-0.033-0.035-0.067-0.069-0.104-0.104c-0.035-0.036-0.068-0.071-0.105-0.106    c-0.035-0.036-0.069-0.072-0.105-0.107c-0.036-0.037-0.072-0.073-0.109-0.109c-0.033-0.035-0.068-0.07-0.104-0.104    c-0.036-0.037-0.073-0.074-0.11-0.11C39.611,22.882,37.496,22,35,22c-3.554,0-6.565,2.038-8,5c-0.697-0.532-2.051-1-3-1    c-2.274,0-4.222,1.47-4.222,3.708c0,0.421,0.064,0.827,0.186,1.209C18.191,31.955,17,33.82,17,36c0,1.652,0.7,3.16,1.818,4.251    c0.035,0.036,0.071,0.072,0.107,0.106c0.035,0.035,0.07,0.07,0.105,0.105c0.036,0.037,0.072,0.073,0.109,0.107    c0.035,0.037,0.07,0.072,0.106,0.105c0.035,0.036,0.071,0.072,0.107,0.107c0.034,0.033,0.068,0.068,0.103,0.103    c0.036,0.036,0.071,0.072,0.107,0.107c0.035,0.036,0.07,0.071,0.106,0.106c0.036,0.036,0.072,0.071,0.108,0.107    c0.034,0.035,0.069,0.068,0.104,0.104c0.038,0.039,0.075,0.076,0.114,0.113c0.032,0.032,0.063,0.063,0.096,0.096    c0.037,0.037,0.074,0.074,0.112,0.111c0.034,0.035,0.069,0.07,0.104,0.104c0.035,0.037,0.07,0.072,0.106,0.106    c0.035,0.035,0.069,0.07,0.105,0.104c0.036,0.037,0.073,0.074,0.11,0.109c0.035,0.036,0.07,0.07,0.105,0.105    c0.034,0.035,0.069,0.07,0.104,0.104c0.036,0.037,0.073,0.073,0.11,0.109c0.034,0.035,0.069,0.07,0.104,0.104    c0.035,0.037,0.07,0.071,0.106,0.106c0.035,0.035,0.069,0.069,0.104,0.104c0.035,0.035,0.071,0.071,0.107,0.106    c0.036,0.037,0.073,0.074,0.11,0.11c0.034,0.035,0.068,0.068,0.103,0.103c0.035,0.036,0.07,0.071,0.106,0.106    c0.035,0.035,0.07,0.07,0.105,0.105s0.071,0.071,0.107,0.106c0.035,0.036,0.07,0.071,0.106,0.106    c0.035,0.035,0.07,0.07,0.106,0.104c0.036,0.037,0.073,0.073,0.109,0.108c0.034,0.035,0.069,0.069,0.104,0.104    c0.035,0.035,0.069,0.069,0.105,0.104c0.036,0.037,0.072,0.072,0.109,0.108c0.034,0.035,0.068,0.069,0.104,0.104    c0.036,0.035,0.071,0.072,0.108,0.107c0.035,0.036,0.07,0.071,0.106,0.105c0.036,0.037,0.071,0.072,0.108,0.107    c0.034,0.035,0.068,0.069,0.104,0.104c0.035,0.036,0.071,0.071,0.107,0.106c0.035,0.036,0.071,0.071,0.107,0.106    c0.035,0.036,0.071,0.071,0.106,0.106c0.036,0.035,0.071,0.071,0.107,0.106c0.034,0.034,0.067,0.067,0.102,0.103    c0.037,0.037,0.074,0.074,0.112,0.111c0.034,0.035,0.069,0.069,0.104,0.104c0.036,0.037,0.073,0.074,0.11,0.109    c0.033,0.034,0.067,0.068,0.101,0.102c0.036,0.037,0.073,0.074,0.11,0.111c0.034,0.033,0.068,0.068,0.103,0.103    c0.035,0.036,0.071,0.071,0.107,0.106c0.035,0.036,0.071,0.072,0.107,0.107c0.035,0.035,0.07,0.07,0.105,0.105    c0.036,0.037,0.073,0.072,0.11,0.108c0.034,0.035,0.068,0.069,0.104,0.104c0.035,0.035,0.07,0.07,0.106,0.105    c0.035,0.036,0.07,0.071,0.106,0.105c0.035,0.037,0.07,0.072,0.106,0.106c0.035,0.036,0.07,0.071,0.106,0.106    c0.035,0.035,0.071,0.07,0.107,0.105c0.035,0.036,0.07,0.071,0.105,0.105c0.035,0.035,0.07,0.07,0.106,0.105    c0.035,0.036,0.07,0.071,0.106,0.106c0.035,0.036,0.07,0.071,0.106,0.106c0.035,0.035,0.07,0.07,0.106,0.105    c0.035,0.036,0.07,0.07,0.106,0.105c0.035,0.035,0.07,0.07,0.105,0.105c0.036,0.037,0.072,0.072,0.108,0.107    c0.035,0.037,0.07,0.072,0.106,0.106c0.034,0.034,0.068,0.068,0.103,0.103c0.036,0.037,0.071,0.072,0.108,0.108    c0.035,0.036,0.07,0.071,0.106,0.106c0.035,0.035,0.07,0.07,0.106,0.105c0.035,0.036,0.07,0.071,0.106,0.106    c0.035,0.036,0.071,0.071,0.107,0.106c0.033,0.034,0.067,0.067,0.101,0.103c0.038,0.038,0.076,0.075,0.114,0.112    c0.033,0.033,0.065,0.066,0.099,0.1c0.038,0.038,0.075,0.076,0.113,0.113c0.035,0.035,0.07,0.07,0.106,0.104    c0.033,0.034,0.066,0.067,0.1,0.101c0.037,0.039,0.074,0.076,0.111,0.111c0.034,0.034,0.067,0.068,0.101,0.103    c0.038,0.038,0.076,0.075,0.114,0.114c0.033,0.033,0.066,0.066,0.101,0.1c0.037,0.038,0.074,0.074,0.111,0.111    c0.034,0.033,0.068,0.067,0.103,0.103s0.07,0.071,0.105,0.104c0.036,0.037,0.072,0.074,0.109,0.108    c0.035,0.036,0.071,0.072,0.107,0.106c0.035,0.037,0.07,0.072,0.106,0.106c0.034,0.035,0.068,0.069,0.104,0.104    c0.035,0.035,0.071,0.072,0.107,0.107c0.035,0.035,0.07,0.07,0.106,0.105c0.035,0.035,0.07,0.07,0.106,0.105    c0.036,0.036,0.072,0.073,0.109,0.108c0.034,0.034,0.067,0.067,0.102,0.103c0.036,0.037,0.072,0.072,0.109,0.108    c0.035,0.036,0.07,0.071,0.105,0.104c0.035,0.035,0.07,0.07,0.105,0.105c0.035,0.036,0.071,0.072,0.107,0.107    c0.035,0.035,0.07,0.07,0.106,0.105c0.037,0.037,0.073,0.073,0.11,0.11c0.032,0.032,0.064,0.063,0.096,0.096    c0.037,0.038,0.073,0.075,0.111,0.111c0.036,0.036,0.073,0.073,0.11,0.11c0.035,0.035,0.07,0.069,0.105,0.104    c0.035,0.036,0.07,0.07,0.106,0.105c0.034,0.035,0.069,0.07,0.105,0.104c0.035,0.036,0.071,0.071,0.107,0.106    c0.034,0.035,0.069,0.07,0.104,0.104c0.037,0.037,0.074,0.074,0.112,0.11c0.033,0.035,0.066,0.068,0.1,0.101    c0.038,0.039,0.077,0.077,0.115,0.115c0.032,0.032,0.064,0.063,0.097,0.097c0.036,0.037,0.073,0.074,0.11,0.11    c0.035,0.036,0.07,0.071,0.106,0.106c0.035,0.035,0.07,0.07,0.106,0.105c0.035,0.036,0.071,0.07,0.107,0.105    c0.035,0.037,0.069,0.07,0.105,0.105c0.035,0.036,0.071,0.072,0.108,0.107c0.033,0.033,0.067,0.067,0.101,0.102    c0.038,0.038,0.076,0.076,0.114,0.114c0.034,0.034,0.068,0.067,0.104,0.103c0.035,0.036,0.069,0.07,0.105,0.105    c0.036,0.035,0.071,0.072,0.107,0.107s0.071,0.071,0.107,0.106c0.034,0.034,0.068,0.069,0.104,0.104    c0.035,0.035,0.07,0.071,0.106,0.106c0.035,0.036,0.069,0.071,0.106,0.106c0.035,0.035,0.07,0.07,0.105,0.105    c0.035,0.036,0.071,0.072,0.107,0.107c0.035,0.035,0.07,0.069,0.104,0.104c0.035,0.035,0.069,0.07,0.104,0.104    c0.035,0.035,0.07,0.07,0.104,0.105c0.037,0.037,0.073,0.073,0.11,0.109c0.033,0.035,0.068,0.07,0.104,0.104    c0.035,0.035,0.069,0.07,0.105,0.105c0.036,0.037,0.072,0.072,0.109,0.109c0.033,0.034,0.069,0.069,0.104,0.104    c0.034,0.034,0.067,0.067,0.103,0.103c0.037,0.037,0.071,0.073,0.108,0.108c0.035,0.036,0.07,0.071,0.104,0.106    c0.037,0.037,0.074,0.072,0.11,0.109c0.034,0.034,0.068,0.068,0.104,0.104c0.035,0.035,0.07,0.07,0.105,0.105    c0.035,0.036,0.07,0.071,0.106,0.105c0.034,0.035,0.067,0.07,0.104,0.104c0.036,0.038,0.073,0.075,0.111,0.112    c0.033,0.033,0.066,0.066,0.1,0.102c0.037,0.036,0.074,0.073,0.111,0.109c0.034,0.035,0.069,0.07,0.104,0.104    c0.035,0.037,0.07,0.071,0.106,0.106c0.036,0.036,0.072,0.071,0.108,0.108c0.033,0.033,0.068,0.067,0.103,0.103    c0.035,0.036,0.071,0.072,0.107,0.106c0.034,0.037,0.071,0.072,0.106,0.107s0.07,0.07,0.105,0.105s0.07,0.07,0.105,0.105    c0.035,0.036,0.07,0.071,0.106,0.106c0.035,0.036,0.069,0.071,0.106,0.106c0.035,0.035,0.069,0.07,0.105,0.105    c0.036,0.037,0.072,0.072,0.109,0.107c0.033,0.035,0.065,0.067,0.1,0.102c0.036,0.037,0.073,0.074,0.109,0.109    c0.035,0.035,0.068,0.069,0.104,0.104c0.037,0.037,0.074,0.074,0.112,0.11c0.034,0.035,0.067,0.07,0.104,0.104    c0.034,0.036,0.069,0.071,0.105,0.106c0.035,0.035,0.07,0.072,0.107,0.107c0.035,0.035,0.07,0.07,0.105,0.105    c0.034,0.033,0.068,0.068,0.104,0.104c0.035,0.036,0.071,0.072,0.108,0.108c0.035,0.035,0.069,0.069,0.104,0.104    c0.035,0.037,0.07,0.071,0.106,0.106c0.035,0.036,0.07,0.071,0.106,0.106c0.035,0.035,0.07,0.07,0.104,0.104    c0.036,0.036,0.071,0.072,0.108,0.108c0.035,0.035,0.07,0.07,0.107,0.105c0.03,0.033,0.063,0.065,0.096,0.098    c0.039,0.041,0.078,0.08,0.119,0.119c0.033,0.034,0.066,0.067,0.102,0.102c0.035,0.035,0.07,0.07,0.105,0.105    s0.07,0.07,0.105,0.105c0.036,0.037,0.072,0.072,0.107,0.107s0.07,0.07,0.104,0.104c0.035,0.036,0.07,0.071,0.106,0.106    c0.035,0.035,0.07,0.07,0.105,0.105c0.035,0.036,0.07,0.071,0.106,0.105c0.034,0.037,0.069,0.072,0.106,0.106    c0.033,0.035,0.067,0.069,0.103,0.104c0.036,0.037,0.075,0.074,0.112,0.111c0.033,0.034,0.067,0.068,0.102,0.103    c0.037,0.036,0.074,0.073,0.111,0.11c0.033,0.035,0.067,0.067,0.102,0.102c0.036,0.036,0.072,0.072,0.107,0.107    c0.035,0.037,0.07,0.071,0.106,0.106c0.035,0.036,0.071,0.071,0.106,0.106s0.07,0.07,0.104,0.104    c0.037,0.038,0.074,0.075,0.112,0.111c0.031,0.032,0.064,0.065,0.1,0.099c0.034,0.036,0.069,0.072,0.105,0.107    c0.035,0.035,0.072,0.072,0.107,0.107c0.035,0.036,0.07,0.071,0.106,0.106c0.035,0.036,0.069,0.071,0.106,0.106    c0.035,0.035,0.069,0.07,0.105,0.105c0.036,0.037,0.072,0.072,0.109,0.109c0.033,0.033,0.066,0.067,0.102,0.102    c0.035,0.035,0.07,0.07,0.105,0.105c0.035,0.037,0.072,0.072,0.107,0.107c0.035,0.036,0.07,0.071,0.106,0.105    c0.034,0.037,0.069,0.072,0.106,0.106c0.034,0.036,0.069,0.071,0.105,0.106c0.035,0.035,0.07,0.07,0.105,0.105    c0.035,0.036,0.071,0.072,0.108,0.108c0.033,0.034,0.067,0.067,0.103,0.101c0.035,0.037,0.07,0.073,0.107,0.109    c0.035,0.036,0.07,0.07,0.105,0.105c0.035,0.037,0.07,0.071,0.106,0.106c0.035,0.036,0.07,0.071,0.106,0.106    c0.033,0.035,0.068,0.068,0.104,0.104c0.036,0.037,0.073,0.074,0.11,0.109c0.034,0.037,0.069,0.072,0.106,0.106    c0.032,0.034,0.066,0.069,0.103,0.103c0.036,0.037,0.073,0.074,0.11,0.111c0.033,0.034,0.068,0.069,0.104,0.104    c0.035,0.035,0.07,0.07,0.105,0.105s0.069,0.07,0.104,0.104c0.036,0.037,0.071,0.073,0.108,0.108    c0.035,0.037,0.072,0.072,0.107,0.107c0.034,0.034,0.067,0.068,0.102,0.102c0.037,0.037,0.072,0.072,0.108,0.108    c0.035,0.036,0.07,0.071,0.106,0.106c0.035,0.035,0.07,0.07,0.105,0.105c0.035,0.036,0.071,0.071,0.107,0.107    c0.033,0.035,0.068,0.068,0.104,0.104c0.036,0.037,0.073,0.074,0.11,0.11c0.032,0.032,0.065,0.065,0.099,0.099    c0.037,0.038,0.074,0.075,0.112,0.112c0.034,0.035,0.069,0.069,0.104,0.104s0.069,0.07,0.105,0.105    c0.036,0.036,0.072,0.072,0.107,0.107c0.033,0.035,0.066,0.067,0.102,0.102c0.036,0.037,0.072,0.074,0.109,0.109    c0.037,0.037,0.072,0.074,0.109,0.109c0.033,0.034,0.067,0.067,0.102,0.102c0.035,0.037,0.072,0.072,0.107,0.107    c0.035,0.036,0.07,0.071,0.106,0.106c0.035,0.036,0.069,0.071,0.106,0.106c0.035,0.035,0.069,0.07,0.105,0.105    c0.035,0.036,0.07,0.07,0.105,0.105c0.035,0.037,0.072,0.072,0.108,0.107c0.033,0.035,0.067,0.068,0.103,0.104    c0.035,0.037,0.072,0.071,0.107,0.107s0.07,0.071,0.106,0.105c0.034,0.037,0.069,0.072,0.106,0.106    c0.034,0.036,0.069,0.071,0.105,0.106c0.035,0.035,0.068,0.07,0.104,0.104c0.036,0.037,0.072,0.073,0.108,0.109    c0.035,0.035,0.069,0.07,0.106,0.105c0.033,0.034,0.068,0.069,0.104,0.104c0.036,0.035,0.07,0.072,0.107,0.107    c0.035,0.035,0.069,0.07,0.105,0.105c0.035,0.036,0.07,0.07,0.105,0.105c0.037,0.037,0.074,0.074,0.11,0.11    c0.033,0.033,0.066,0.066,0.101,0.101c0.037,0.037,0.074,0.074,0.111,0.11c0.031,0.032,0.063,0.065,0.098,0.097    c0.037,0.039,0.074,0.078,0.113,0.115c0.034,0.035,0.069,0.07,0.104,0.104c0.035,0.036,0.069,0.071,0.106,0.106    c0.035,0.036,0.071,0.072,0.108,0.107c0.033,0.034,0.065,0.068,0.101,0.102c0.035,0.035,0.069,0.07,0.104,0.105    c0.037,0.038,0.074,0.074,0.112,0.111c0.035,0.035,0.07,0.07,0.105,0.105c0.034,0.035,0.069,0.07,0.104,0.104    c0.035,0.037,0.07,0.072,0.106,0.106c0.035,0.036,0.07,0.071,0.106,0.106c0.033,0.035,0.068,0.068,0.104,0.104    c0.035,0.037,0.071,0.072,0.107,0.108c0.037,0.038,0.074,0.075,0.113,0.112c0.031,0.033,0.064,0.065,0.099,0.099    c0.036,0.036,0.071,0.071,0.108,0.108c0.035,0.035,0.069,0.07,0.105,0.105c0.035,0.036,0.07,0.07,0.105,0.105    c0.035,0.037,0.07,0.071,0.106,0.106c0.035,0.036,0.07,0.071,0.106,0.106c0.033,0.035,0.068,0.07,0.104,0.104    c0.036,0.036,0.071,0.071,0.108,0.107c0.034,0.034,0.069,0.069,0.104,0.104c0.035,0.036,0.07,0.071,0.106,0.106    c0.034,0.036,0.069,0.071,0.106,0.106c0.034,0.035,0.069,0.07,0.105,0.105c0.035,0.036,0.07,0.07,0.105,0.105    c0.035,0.037,0.07,0.071,0.106,0.106c0.035,0.035,0.069,0.069,0.104,0.104s0.07,0.071,0.106,0.106    c0.035,0.036,0.07,0.071,0.106,0.106C51.805,73.264,53.325,73.975,55,74c0,0,17.982,0,18.092,0C76.354,74,79,71.213,79,68    C79,66.453,78.384,65.128,77.387,64.141z" enable-background="new    " fill="url(#SVGID_3_)" opacity="0.5"/></g></g><path d="M43.359,30.81c0.012-0.176,0.027-0.35,0.027-0.527C43.387,25.429,39.93,22,35,22  c-3.554,0-6.565,2.038-8,5c-0.697-0.532-2.051-1-3-1c-2.274,0-4.222,1.47-4.222,3.708c0,0.421,0.064,0.827,0.186,1.209  C18.191,31.955,17,33.82,17,36c0,3.256,2.705,5.949,6,6c0,0,17.982,0,18.092,0C44.354,42,47,39.213,47,36  C47,33.576,45.497,31.687,43.359,30.81z M25.054,37.5c-0.599-0.543-0.972-1.201-1.122-1.975c-0.049-0.26-0.074-0.531-0.074-0.816  c-0.001-1.104,0.401-2.018,1.206-2.736c0.804-0.72,1.827-1.081,3.07-1.08c1.275,0,2.478,0.477,3.54,1.432  c0.265,0.237,0.521,0.506,0.768,0.803l1.365,1.604c0.236,0.324,0.49,0.604,0.752,0.841c0.701,0.629,1.463,0.942,2.104,0.942  c0.547,0,1.004-0.166,1.371-0.502c0.319-0.306,0.501-0.673,0.542-1.095l0.008-0.187c0-0.185-0.025-0.356-0.079-0.521  c-0.087-0.271-0.247-0.517-0.479-0.733c-0.361-0.347-0.818-0.519-1.375-0.519c-0.68,0-1.354,0.229-2.092,0.944l-1.209-1.421  L33.2,32.319c1.057-1.036,2.112-1.425,3.532-1.425c1.261,0,2.279,0.357,3.06,1.072l0.019,0.014C40.604,32.693,41,33.615,41,34.744  c0,0.281-0.025,0.547-0.074,0.803c-0.148,0.764-0.521,1.416-1.119,1.955c-0.586,0.541-1.303,0.879-2.146,1.014  c-0.281,0.045-0.577,0.066-0.89,0.066c-1.305,0-2.51-0.467-3.547-1.398c-0.281-0.252-0.55-0.537-0.804-0.855l-1.366-1.596  c-0.23-0.318-0.48-0.596-0.74-0.83c-0.699-0.629-1.47-0.941-2.131-0.941c-0.205,0-0.397,0.023-0.577,0.072  c-0.297,0.078-0.558,0.227-0.783,0.439c-0.275,0.262-0.448,0.564-0.516,0.904c-0.022,0.113-0.035,0.232-0.034,0.354  c0,0.486,0.175,0.9,0.524,1.244L26.825,36c0.375,0.344,0.836,0.514,1.383,0.514c0.688,0,1.364-0.229,2.101-0.951l1.203,1.402  l0.133,0.162c-1.099,1.047-2.143,1.443-3.509,1.443C26.877,38.57,25.85,38.213,25.054,37.5z" fill="#FFFFFF" id="js"/></svg>