<?xml version="1.0" ?><!DOCTYPE svg  PUBLIC '-//W3C//DTD SVG 1.0//EN'  'http://www.w3.org/TR/2001/REC-SVG-20010904/DTD/svg10.dtd'><svg enable-background="new 0 0 200 200" height="200px" id="Layer_1" version="1.0" viewBox="0 0 200 200" width="200px" xml:space="preserve" xmlns="http://www.w3.org/2000/svg" xmlns:xlink="http://www.w3.org/1999/xlink"><g id="New_Symbol"/><g id="New_Symbol_1_"/><g id="New_Symbol_1"/><g id="New_Symbol_9_2_"/><g id="New_Symbol_7"/><g id="New_Symbol_9_1_"/><g id="New_Symbol_9"/><g id="Nuevo_símbolo"/><g id="New_Symbol_10"/><g id="New_Symbol_12"/><g id="New_Symbol_14"/><g id="New_Symbol_15"/><g id="New_Symbol_16"/><g id="New_Symbol_17_1_"/><g id="New_Symbol_18"/><g id="New_Symbol_19"/><g id="New_Symbol_17"/><g><path d="M31,137h138.4c1.3,0,2.6-1,2.6-2.3V45c0-1.3-1.3-2-2.6-2H143V15H59v28H31c-1.3,0-2,0.7-2,2v89.7C29,136,29.7,137,31,137z    M143,55h12.7L143,63.1V55z M112,84.9l45-28.2v68.1L112,84.9z M153.9,125H44.2l44.9-39.5l10.9,6.8L110,86L153.9,125z M61,65V17h80   v47c0,0.1-0.1,0.2-0.1,0.3l-31.1,19.5c-0.1,0-0.3,0.1-0.4,0.2l-9.3,5.9L60.8,65.5C60.8,65.3,61,65.2,61,65z M87.6,84.4L43,123.7   V56.7L87.6,84.4z M43.8,55H59v9.3L43.8,55z M31,45C31,44.8,30.8,45,31,45l28,0v8H41v72.6c0,0.2,0,0.5,0,0.7v0.7h118V53h-16v-8h26.4   c0.2,0,0.6-0.2,0.6,0v89.7c0,0.2-0.4,0.3-0.6,0.3H31c-0.2,0,0-0.1,0-0.3V45z"/><path d="M195.7,168.7l-0.1-0.2L170.8,140H100H29.2L4.5,168.3l-0.2,0.2l-0.1,0.2c-0.1,0.3-1.7,7.9,2,12.6c1.9,2.3,4.7,3.7,8.4,3.7   H100h85.3c3.7,0,6.5-1.4,8.4-3.7C197.4,176.7,195.8,169,195.7,168.7z M30.1,142H100h69.9l23.9,27.3c-0.1,0.6-0.3,1-0.7,1.4   c-1.4,1.4-4.7,1.4-5.9,1.4H99.8l-87,0.1c-1.1,0.1-4.3,0-5.8-1.4c-0.4-0.4-0.6-0.8-0.7-1.4L30.1,142z M192.2,180   c-1.5,1.8-3.8,3-6.8,3H100H14.7c-3.1,0-5.4-1.2-6.8-3c-1.7-2.1-2-5.3-2-7.6c1.9,1.6,5.1,1.7,6.4,1.7c0.3,0,0.5-0.1,0.6-0.1h87.4   l86.9,0.1c0,0,0.3,0,0.6,0c1.3,0,4.5-0.1,6.4-1.6C194.2,174.7,193.9,177.9,192.2,180z"/><path d="M150.6,150H49.2l-9.7,12.6l120.9,0.1L150.6,150z M50.2,152h99.4l6.8,8.6l-112.8,0.1L50.2,152z"/><path d="M73.7,43h28c0.6,0,1-0.4,1-1s-0.4-1-1-1h-28c-0.6,0-1,0.4-1,1S73.2,43,73.7,43z"/><path d="M73.7,32h28c0.6,0,1-0.4,1-1s-0.4-1-1-1h-28c-0.6,0-1,0.4-1,1S73.2,32,73.7,32z"/><path d="M117.7,54c0-0.6-0.4-1-1-1h-43c-0.6,0-1,0.4-1,1s0.4,1,1,1h43C117.3,55,117.7,54.6,117.7,54z"/></g></svg>