<?xml version="1.0" ?><!DOCTYPE svg  PUBLIC '-//W3C//DTD SVG 1.1//EN'  'http://www.w3.org/Graphics/SVG/1.1/DTD/svg11.dtd'><svg enable-background="new 0 0 91 91" height="91px" id="Layer_1" version="1.1" viewBox="0 0 91 91" width="91px" xml:space="preserve" xmlns="http://www.w3.org/2000/svg" xmlns:xlink="http://www.w3.org/1999/xlink"><g><path d="M59.02,32.354v-6.965c0-1.287-0.938-2.346-2.166-2.553c1.02-1.217,1.658-2.764,1.658-4.471   c0-3.859-3.141-7.002-7.002-7.002c-3.859,0-7.002,3.143-7.002,7.002c0,1.707,0.641,3.254,1.66,4.471   c-1.229,0.207-2.166,1.266-2.166,2.553v6.965c-11.127,3.25-19.266,13.51-19.266,25.688c0,14.785,11.988,26.771,26.773,26.771   c14.789,0,26.775-11.986,26.775-26.771C78.285,45.863,70.146,35.604,59.02,32.354z M51.51,13.961c2.43,0,4.406,1.975,4.406,4.404   s-1.977,4.404-4.406,4.404c-2.428,0-4.404-1.975-4.404-4.404S49.082,13.961,51.51,13.961z M68.914,59.564h-1.316l1.902,1.9   c0.596,0.596,0.596,1.559,0,2.154c-0.297,0.297-0.688,0.447-1.076,0.447c-0.391,0-0.779-0.15-1.076-0.447l-4.057-4.055h-8.105   l5.729,5.727h5.74c0.84,0,1.523,0.682,1.523,1.523c0,0.84-0.684,1.521-1.523,1.521h-2.693l0.932,0.936   c0.596,0.592,0.596,1.557,0,2.15c-0.297,0.297-0.686,0.447-1.076,0.447c-0.389,0-0.777-0.15-1.076-0.447l-0.93-0.93v2.689   c0,0.842-0.684,1.523-1.523,1.523s-1.523-0.682-1.523-1.523v-5.734l-5.73-5.73v8.102l4.057,4.059c0.596,0.594,0.596,1.559,0,2.152   c-0.297,0.297-0.686,0.445-1.074,0.445c-0.391,0-0.781-0.148-1.078-0.445l-1.904-1.902v1.316c0,0.842-0.68,1.523-1.523,1.523   c-0.84,0-1.521-0.682-1.521-1.523v-1.316l-1.904,1.902c-0.596,0.596-1.559,0.596-2.152,0c-0.596-0.594-0.596-1.559,0-2.152   l4.057-4.059v-8.104l-5.73,5.732v5.734c0,0.842-0.682,1.523-1.521,1.523c-0.842,0-1.523-0.682-1.523-1.523l-0.002-2.689l-0.93,0.93   c-0.297,0.297-0.688,0.447-1.078,0.447c-0.389,0-0.779-0.15-1.076-0.447c-0.594-0.594-0.594-1.559,0-2.15l0.932-0.936h-2.691   c-0.84,0-1.523-0.682-1.523-1.521c0-0.842,0.684-1.523,1.523-1.523h5.738l5.73-5.727H39.73l-4.057,4.055   c-0.297,0.297-0.688,0.447-1.078,0.447c-0.387,0-0.777-0.15-1.074-0.447c-0.596-0.596-0.596-1.559,0-2.154l1.904-1.9h-1.32   c-0.84,0-1.521-0.684-1.521-1.527c0-0.84,0.682-1.52,1.521-1.52h1.32l-1.904-1.904c-0.596-0.594-0.596-1.559,0-2.154   c0.594-0.596,1.557-0.596,2.152,0l4.057,4.059h8.104l-5.729-5.73h-5.738c-0.84,0-1.523-0.682-1.523-1.523   c0-0.84,0.684-1.523,1.523-1.523h2.691l-0.932-0.93c-0.594-0.596-0.594-1.561,0-2.154s1.559-0.594,2.154,0l0.93,0.934l0.002-2.693   c0-0.842,0.682-1.523,1.523-1.523c0.84,0,1.521,0.682,1.521,1.523v5.736l5.73,5.73V46.26l-4.057-4.057   c-0.596-0.594-0.596-1.559,0-2.152c0.594-0.596,1.557-0.596,2.152,0l1.904,1.902v-1.318c0-0.84,0.682-1.52,1.521-1.52   c0.844,0,1.523,0.68,1.523,1.52v1.318l1.904-1.902c0.596-0.596,1.561-0.596,2.152,0c0.596,0.594,0.596,1.557,0,2.152l-4.057,4.057   v8.102l5.73-5.729v-5.736c0-0.842,0.684-1.523,1.523-1.523s1.523,0.682,1.523,1.523v2.693l0.93-0.934   c0.596-0.594,1.561-0.594,2.152,0c0.596,0.594,0.596,1.559,0,2.154l-0.93,0.93h2.691c0.84,0,1.523,0.684,1.523,1.523   c0,0.842-0.684,1.523-1.523,1.523h-5.736l-5.732,5.73h8.105l4.057-4.059c0.594-0.596,1.559-0.596,2.152,0   c0.596,0.596,0.596,1.561,0,2.154l-1.902,1.904h1.316c0.842,0,1.523,0.68,1.523,1.52C70.438,58.881,69.756,59.564,68.914,59.564z"/><path d="M21.225,64.033l-5.283-1.852l-1.854-5.287c-0.045-0.127-0.166-0.211-0.301-0.211s-0.256,0.084-0.301,0.211l-1.852,5.287   L6.35,64.033c-0.127,0.045-0.213,0.164-0.213,0.301c0,0.135,0.086,0.254,0.213,0.301l5.285,1.85l1.852,5.287   c0.045,0.129,0.166,0.215,0.301,0.215s0.256-0.086,0.301-0.215l1.854-5.287l5.283-1.85c0.129-0.047,0.215-0.166,0.215-0.301   C21.439,64.197,21.354,64.078,21.225,64.033z"/><circle cx="24.635" cy="19.109" r="4.613"/><circle cx="77.1" cy="23.722" r="3.46"/></g></svg>