<?xml version="1.0" ?><!DOCTYPE svg  PUBLIC '-//W3C//DTD SVG 1.1//EN'  'http://www.w3.org/Graphics/SVG/1.1/DTD/svg11.dtd'><svg enable-background="new 0 0 91 91" height="91px" id="Layer_1" version="1.1" viewBox="0 0 91 91" width="91px" xml:space="preserve" xmlns="http://www.w3.org/2000/svg" xmlns:xlink="http://www.w3.org/1999/xlink"><g><path d="M13.763,65.682c-0.582,0.076-1.164,0.285-1.699,0.533c-1.066,0.496-1.15,1.203-0.209,1.93   c0.4,0.311,0.926,0.508,1.425,0.631c0.964,0.24,1.944,0.43,2.928,0.576c4.46,0.664,8.907,1.441,13.387,1.924   c6.198,0.662,11.558-1.191,15.692-6.012c1.158-1.346,2.166-2.818,3.33-4.348c0.332,0.236,0.77,0.512,1.166,0.84   c2.252,1.859,4.383,3.895,6.766,5.568c5.605,3.936,11.781,5.252,18.508,3.496c0.893-0.232,1.84-0.273,2.715-0.551   c1.816-0.576,3.662-1.123,5.381-1.93c1.377-0.648,1.285-1.816-0.057-2.527c-0.465-0.244-0.986-0.385-1.486-0.555   c-4.402-1.482-8.016-4.291-10.842-7.756c-3.463-4.25-7.291-7.84-12.135-10.41c-3.246-1.721-7.166-1.152-9.531,1.6   c-0.17,0.197-0.35,0.383-0.6,0.66c-0.633-0.457-1.086-0.863-1.607-1.145c-1.576-0.852-3.203-1.916-5.053-1.389   c-1.957,0.561-3.941,1.268-5.683,2.297c-3.846,2.273-7.081,5.363-10.306,8.426c-1.252,1.189-2.389,2.498-3.611,3.715   C19.878,63.609,17.14,65.248,13.763,65.682z"/><path d="M9.204,40.43c1.432-1.082,2.766-2.324,4.65-3.381c-0.096,1.801-0.246,3.184-0.223,4.568   c0.02,1.299-0.512,2.715,0.521,3.957c0.27-0.172,0.553-0.256,0.564-0.369c0.264-2.619,0.496-5.242,0.774-8.287   c0.429,0.725,0.628,1.061,0.829,1.398c1.191,1.992,2.373,3.99,3.578,5.973c0.314,0.516,0.729,1.088,1.425,0.709   c0.778-0.422,0.322-1.037,0.034-1.533c-0.869-1.49-1.781-2.955-2.659-4.439c-0.38-0.643-0.715-1.311-1.263-2.32   c2.318,0.965,4.172,1.738,6.026,2.51c0.698-1.656,0.597-1.891-0.989-2.213c-2.006-0.41-3.76-1.338-5.588-2.432   c2.219-2.02,4.178-3.904,6.266-5.635c0.623-0.516,1.021-0.9,0.521-1.566c-0.501-0.666-1.086-0.242-1.529,0.172   c-1.309,1.225-2.576,2.488-3.881,3.719c-0.442,0.412-0.945,0.764-1.693,1.359c0.205-1.689,0.429-2.932,0.485-4.18   c0.054-1.184,0.22-2.408-0.159-3.555c-0.17-0.012-0.342-0.023-0.511-0.037c-0.397,2.318-0.793,4.635-1.188,6.951   c-1.262-1.664-2.097-3.383-3.089-5.006c-0.987-1.615-1.626-3.543-3.606-4.414c0.473,1.869,1.529,3.441,2.334,5.123   c0.844,1.762,1.725,3.506,2.748,5.58c-2.758-0.488-5.062-1.342-7.492-0.658c2.421,1.064,5.17,1.117,7.662,2.559   c-1.32,1.064-2.463,1.963-3.578,2.895c-1.578,1.318-3.156,2.637-4.688,4.008c-0.497,0.443-1.181,0.926-0.636,2.023   C6.349,42.705,7.748,41.529,9.204,40.43z"/><path d="M9.251,59.209c0.029-1.115-1.447-2.049-3.176-2.004c-1.077,0.027-1.579,0.541-1.555,1.598   c0.031,1.375,1.232,2.58,2.527,2.531C8.231,61.291,9.222,60.336,9.251,59.209z"/><path d="M33.413,21.076c-0.344,2.281,1.161,3.803,2.924,3.113c0.752-0.297,1.154-0.871,1.184-1.654   c0.027-0.736-0.354-1.348-1.078-1.432C35.437,20.992,34.41,21.076,33.413,21.076z"/><path d="M73.618,23.82c-2.08,0.35-2.996,2.334-4.857,2.818c-0.285-1.682,0.279-3.377-0.258-4.947   c-0.145-0.012-0.293-0.021-0.438-0.033c-0.303,1.338-0.605,2.678-0.934,4.129c-0.994-0.752-1.432-1.898-3.012-2.357   c1.164,1.805,2.076,3.219,3.008,4.662c-2.148,2.111-4.697,3.51-6.287,5.977c1.947-1.131,3.588-2.73,5.711-3.768   c0.391,2.158-0.563,4.238,0.654,6.551c1.436-2.127,0.215-4.404,1.189-6.244c1.258,0.895,1.355,2.789,3.18,3.256   c-0.115-2.285-2.09-3.506-2.531-5.523c0.855-0.639,1.727-1.238,2.535-1.914C72.378,25.762,73.524,25.33,73.618,23.82z"/><path d="M85.312,46.291c0.992,0.082,1.783-0.813,1.861-2.107c0.074-1.271-0.59-2.049-1.789-2.086   c-0.941-0.029-1.547,0.646-1.625,1.818C83.671,45.182,84.345,46.211,85.312,46.291z"/></g></svg>