<?xml version="1.0" ?><!DOCTYPE svg  PUBLIC '-//W3C//DTD SVG 1.1//EN'  'http://www.w3.org/Graphics/SVG/1.1/DTD/svg11.dtd'><svg height="6.82666in" style="shape-rendering:geometricPrecision; text-rendering:geometricPrecision; image-rendering:optimizeQuality; fill-rule:evenodd; clip-rule:evenodd" viewBox="0 0 6.82666 6.82666" width="6.82666in" xml:space="preserve" xmlns="http://www.w3.org/2000/svg" xmlns:xlink="http://www.w3.org/1999/xlink"><defs><style type="text/css">
   <![CDATA[
    .fil2 {fill:none}
    .fil1 {fill:black}
    .fil0 {fill:black;fill-rule:nonzero}
   ]]>
  </style></defs><g id="Layer_x0020_1"><path class="fil0" d="M1.56187 0.853331l2.6179 0c0.0222638,0 0.0423976,0.00909843 0.0569016,0.0237756l1.25548 1.25547 3.93701e-006 -3.93701e-006c0.015622,0.0156181 0.0234291,0.0360945 0.0234291,0.0565669l3.93701e-006 0 0 3.5334c0,0.0690551 -0.028189,0.131772 -0.0736102,0.177185 -0.0454134,0.0454134 -0.108134,0.0736063 -0.177189,0.0736063l-3.70292 0c-0.0690551,0 -0.131776,-0.0281929 -0.177189,-0.0736063 -0.0454213,-0.0454134 -0.0736102,-0.10813 -0.0736102,-0.177185l0 -4.61842c0,-0.0690551 0.028189,-0.131772 0.0736102,-0.177185 0.0454134,-0.0454134 0.108134,-0.0736063 0.177189,-0.0736063zm2.58477 0.16l-2.58477 0c-0.0248858,0 -0.0475709,0.0102402 -0.064063,0.0267323 -0.0164961,0.0164961 -0.0267362,0.0391772 -0.0267362,0.0640591l0 4.61842c0,0.0248819 0.0102402,0.047563 0.0267362,0.0640591 0.0164921,0.0164921 0.0391772,0.0267323 0.064063,0.0267323l3.70292 0c0.0248858,0 0.0475709,-0.0102402 0.064063,-0.0267323 0.0164961,-0.0164961 0.0267362,-0.0391772 0.0267362,-0.0640591l0 -3.50027 -1.20894 -1.20894z"/><path class="fil0" d="M5.42837 2.26881l-1.24541 -0.00363386 0 -0.079689 -0.000232283 0.08c-0.0441811,-0.000125984 -0.0798937,-0.0360512 -0.0797677,-0.0802323 7.87402e-006,-0.00222835 0.000110236,-0.00443307 0.000295276,-0.00661024l-0.00316929 -1.24511 -0.000311024 0c-0.000110236,-0.0441811 0.0356142,-0.0800945 0.0797953,-0.0802047 0.0223858,-5.51181e-005 0.0426457,0.00909055 0.0572047,0.023874l1.25538 1.25537 3.93701e-006 -3.93701e-006c0.0312402,0.0312402 0.0312402,0.0818937 0,0.113134 -0.0174567,0.0174567 -0.0409803,0.0251575 -0.0637874,0.0231024z"/><path class="fil1" d="M4.83096 4.66356l-2.83527 0c-0.0690551,0 -0.13178,0.0281969 -0.177193,0.0736102 -0.0454134,0.0454213 -0.0736102,0.108146 -0.0736102,0.177193l0 0.898965 0 0.030185c0,0.010748 0.000755906,0.0216063 0.0022126,0.0325197 0.000137795,0.00151575 0.000318898,0.0030315 0.000547244,0.00455512l5.11811e-005 -3.93701e-006c0.00141339,0.0094252 0.00355512,0.0191969 0.00636614,0.0292283 0.00759843,0.0362717 0.0397638,0.0635157 0.0782953,0.0635157l3.16025 0 0.00342126 0 0.268752 0c0.0690551,0 0.131776,-0.0281929 0.177189,-0.0736063 0.0454213,-0.0454134 0.0736102,-0.10813 0.0736102,-0.177185l-3.93701e-006 -3.5334c0,0.0204724 -0.00780709,0.0409449 -0.0234291,0.0565669 -0.0174567,0.0174567 -0.0409803,0.0251575 -0.0637874,0.0231024l-0.0727795 -0.000212598 0 3.45394c0,0.0248819 -0.0102402,0.047563 -0.0267362,0.0640591 -0.0164921,0.0164921 -0.0391772,0.0267323 -0.064063,0.0267323l-0.183024 0 0 -0.898965c0,-0.0690472 -0.0281969,-0.131772 -0.0736102,-0.177193 -0.0454134,-0.0454134 -0.108138,-0.0736102 -0.177193,-0.0736102zm-0.546055 0.483378c0,0.0592677 -0.0323858,0.106583 -0.0971535,0.141799 0.0386732,0.00833071 0.0694961,0.026874 0.092752,0.0558071 0.0231142,0.028752 0.0347441,0.0636654 0.0347441,0.104535 0,0.0592677 -0.0216575,0.109776 -0.0649252,0.151543 -0.0431929,0.0417008 -0.0971496,0.0625669 -0.161602,0.0625669 -0.0611535,0 -0.111819,-0.017563 -0.15202,-0.0526614 -0.0402795,-0.0351654 -0.0635079,-0.0811142 -0.0699528,-0.138024l0.12513 -0.0150906c0.00409055,0.0319094 0.0148622,0.0562008 0.0323858,0.0730945 0.0175276,0.0168976 0.0386732,0.0254685 0.0635118,0.0254685 0.0267244,0 0.0492047,-0.0102165 0.067437,-0.0304921 0.0182362,-0.0202795 0.0273543,-0.0474764 0.0273543,-0.0819055 0,-0.0325433 -0.00872835,-0.058252 -0.026252,-0.0773425 -0.0175315,-0.0191024 -0.0388307,-0.0286102 -0.0639803,-0.0286102 -0.0165079,0 -0.036315,0.00314173 -0.0594213,0.00958661l0.0142992 -0.105323c0.0350591,0.000787402 0.0618228,-0.0067126 0.0801772,-0.0227953 0.0184252,-0.0161457 0.0276654,-0.0375709 0.0276654,-0.0642953 0,-0.0227913 -0.00675591,-0.0408701 -0.0202756,-0.0543937 -0.0135236,-0.0135197 -0.0316024,-0.0202756 -0.0539213,-0.0202756 -0.0221654,0 -0.0409528,0.0077874 -0.0565945,0.0231102 -0.0156417,0.0153268 -0.0253071,0.0377283 -0.0286102,0.067122l-0.119319 -0.020122c0.00833465,-0.040874 0.020811,-0.0735354 0.0375748,-0.097937 0.0167165,-0.0243307 0.0400748,-0.0435748 0.0699528,-0.0575354 0.0300118,-0.0140197 0.0635079,-0.021063 0.10061,-0.021063 0.0636693,0 0.114535,0.0203425 0.152957,0.0608386 0.0315276,0.0332283 0.0474764,0.0705787 0.0474764,0.112394zm-0.468717 0.0372598c0,0.0415 -0.00755118,0.0764016 -0.0226378,0.104539 -0.0150906,0.0282953 -0.0341142,0.0504606 -0.0573819,0.0666496 -0.0231063,0.0160394 -0.046689,0.0267283 -0.0705827,0.0319134 -0.0325394,0.00644488 -0.0797008,0.00974803 -0.14148,0.00974803l-0.0888189 0 0 0.254665 -0.136295 0 0 -0.675181 0.218669 0c0.0828425,0 0.136925,0.00345669 0.162075,0.0102205 0.0386732,0.0100591 0.0712126,0.0320669 0.0973071,0.0660236 0.0260984,0.0339528 0.0391457,0.077815 0.0391457,0.131421zm-0.652701 -0.207665l0 0.675181 -0.126551 0 0 -0.531496 -0.134091 0.531496 -0.131268 0 -0.133618 -0.531496 0 0.531496 -0.126551 0 0 -0.675181 0.204051 0 0.122461 0.460602 0.121043 -0.460602 0.204524 0z"/><path class="fil1" d="M3.65396 5.12525c-0.0143071,-0.015878 -0.0327008,-0.025937 -0.0547047,-0.0298661 -0.0163543,-0.00314567 -0.0490512,-0.00456299 -0.0980945,-0.00456299l-0.0658701 0 0 0.191476 0.0745157 0c0.0537598,0 0.0897559,-0.00346063 0.107839,-0.0105354 0.0180787,-0.00707087 0.0322283,-0.0180787 0.0425984,-0.0331654 0.0102205,-0.0150945 0.0154094,-0.0325433 0.0154094,-0.0525079 0,-0.0245236 -0.00723228,-0.0447992 -0.0216929,-0.0608386z"/></g><rect class="fil2" height="6.82666" width="6.82666"/></svg>