<?xml version="1.0" ?><!DOCTYPE svg  PUBLIC '-//W3C//DTD SVG 1.1//EN'  'http://www.w3.org/Graphics/SVG/1.1/DTD/svg11.dtd'><svg height="6.82666in" style="shape-rendering:geometricPrecision; text-rendering:geometricPrecision; image-rendering:optimizeQuality; fill-rule:evenodd; clip-rule:evenodd" viewBox="0 0 6.82666 6.82666" width="6.82666in" xml:space="preserve" xmlns="http://www.w3.org/2000/svg" xmlns:xlink="http://www.w3.org/1999/xlink"><defs><style type="text/css">
   <![CDATA[
    .fil2 {fill:none}
    .fil1 {fill:black}
    .fil0 {fill:black;fill-rule:nonzero}
   ]]>
  </style></defs><g id="Layer_x0020_1"><g id="_339058488"><path class="fil0" d="M1.60666 0.913331l2.55457 0c0.0222638,0 0.0423976,0.00909843 0.0569016,0.0237756l1.22509 1.22509 3.93701e-006 -3.93701e-006c0.015622,0.0156181 0.0234291,0.0360945 0.0234291,0.0565669l3.93701e-006 0 0 3.4479c0,0.0679173 -0.0277244,0.129602 -0.0723937,0.174272 -0.0446693,0.0446693 -0.106354,0.0723937 -0.174272,0.0723937l-3.61333 0c-0.0679173,0 -0.129602,-0.0277244 -0.174272,-0.0723937 -0.0446693,-0.0446693 -0.0723937,-0.106354 -0.0723937,-0.174272l0 -4.50667c0,-0.0679173 0.0277244,-0.129602 0.0723937,-0.174272 0.0446693,-0.0446693 0.106354,-0.0723937 0.174272,-0.0723937zm2.52144 0.16l-2.52144 0c-0.023748,0 -0.0454016,0.00977559 -0.0611457,0.0255197 -0.0157441,0.0157441 -0.0255197,0.0373976 -0.0255197,0.0611457l0 4.50667c0,0.023748 0.00977559,0.0454016 0.0255197,0.0611457 0.0157441,0.0157441 0.0373976,0.0255197 0.0611457,0.0255197l3.61333 0c0.023748,0 0.0454016,-0.00977559 0.0611457,-0.0255197 0.0157441,-0.0157441 0.0255197,-0.0373976 0.0255197,-0.0611457l0 -3.41478 -1.17856 -1.17856z" id="_339065256"/><path class="fil0" d="M5.37944 2.29843l-1.21511 -0.00354724 0 -0.079689 -0.000232283 0.08c-0.0441811,-0.000125984 -0.0798937,-0.0360512 -0.0797677,-0.0802323 7.87402e-006,-0.00222835 0.000110236,-0.00443307 0.000295276,-0.00661024l-0.00308661 -1.21482 -0.000311024 0c-0.000110236,-0.0441811 0.0356142,-0.0800945 0.0797953,-0.0802047 0.0223858,-5.51181e-005 0.0426457,0.00909055 0.0572047,0.023874l1.225 1.225 3.93701e-006 -3.93701e-006c0.0312402,0.0312402 0.0312402,0.0818937 0,0.113134 -0.0174567,0.0174567 -0.0409803,0.0251575 -0.0637874,0.0231024z" id="_339061752"/></g><path class="fil1" d="M4.79666 4.63139l-2.76667 0c-0.0679173,0 -0.129602,0.0277244 -0.174272,0.0723937 -0.0446693,0.0446693 -0.0723937,0.106354 -0.0723937,0.174272l0 0.87528 0.16 0 2.94 0 0.16 0 0 -0.87528c0,-0.0679173 -0.0277244,-0.129602 -0.0723937,-0.174272 -0.0446693,-0.0446693 -0.106354,-0.0723937 -0.174272,-0.0723937zm-0.493776 0.384878c0.0276102,0.0289921 0.048626,0.0645787 0.0630472,0.10661 0.0142638,0.042185 0.0214724,0.0940315 0.0214724,0.155854 0,0.0541496 -0.00674803,0.100933 -0.020248,0.140205 -0.0164134,0.0478583 -0.0398819,0.0866693 -0.070563,0.116276 -0.0230079,0.0225512 -0.0541496,0.0400354 -0.0934173,0.0526142 -0.0292992,0.00935827 -0.0685709,0.0139606 -0.117811,0.0139606l-0.250193 0 0 -0.658846 0.243138 0c0.0547598,0 0.0964843,0.00414173 0.125327,0.0125787 0.0386535,0.0113504 0.0717874,0.0316024 0.099248,0.060748zm-0.801657 -0.0733268l0.263843 0.658846 -0.144807 0 -0.0575236 -0.149717 -0.263386 0 -0.0543031 0.149717 -0.141126 0 0.256634 -0.658846 0.140669 0zm-0.710079 -0.0111969c0.0805315,0 0.146031,0.0237756 0.196346,0.0714843 0.0300669,0.0280709 0.0524646,0.0685669 0.0674961,0.121339l-0.131768 0.0314449c-0.00766929,-0.0342087 -0.0239291,-0.0612047 -0.0487795,-0.0809961 -0.0247008,-0.0197874 -0.0547638,-0.0296024 -0.0900472,-0.0296024 -0.0487795,0 -0.0885118,0.0174843 -0.118882,0.0526142 -0.030374,0.0349764 -0.0455591,0.0917323 -0.0455591,0.170272 0,0.0832953 0.014878,0.142661 0.0449449,0.177941 0.0299134,0.035437 0.068874,0.0530787 0.116736,0.0530787 0.0354331,0 0.0658071,-0.0112008 0.0912717,-0.033748 0.0254646,-0.0223976 0.0437165,-0.0578307 0.0549173,-0.106l0.128854 0.0408031c-0.0197874,0.0719449 -0.0526181,0.125327 -0.0986378,0.160303 -0.0458661,0.0348228 -0.104311,0.0523071 -0.175028,0.0523071 -0.087437,0 -0.159378,-0.0299134 -0.215677,-0.0895827 -0.0562953,-0.0598268 -0.0845197,-0.141587 -0.0845197,-0.24513 0,-0.109681 0.028378,-0.194819 0.0849803,-0.255563 0.0566063,-0.0605906 0.131004,-0.0909646 0.22335,-0.0909646z"/><path class="fil1" d="M3.96817 5.05446l0 0.436268 0.099248 0c0.037122,0 0.0639685,-0.00199606 0.0805354,-0.00629134 0.0214764,-0.00537008 0.0394213,-0.0144173 0.053689,-0.0273031 0.0142677,-0.0128858 0.0257717,-0.0342087 0.0348228,-0.0636614 0.00889764,-0.0294528 0.0134961,-0.0697953 0.0134961,-0.120724 0,-0.0509291 -0.00459843,-0.0898898 -0.0134961,-0.117197 -0.00905118,-0.0273031 -0.0216299,-0.048626 -0.0377362,-0.063815 -0.0162598,-0.0153386 -0.036815,-0.0256142 -0.0616654,-0.0309843 -0.018563,-0.00429528 -0.0549173,-0.00629134 -0.10922,-0.00629134l-0.0596732 0z"/><polygon class="fil1" points="3.52009,5.34116 3.42928,5.09664 3.34031,5.34116 "/></g><rect class="fil2" height="6.82666" width="6.82666"/></svg>