<?xml version="1.0" ?><!DOCTYPE svg  PUBLIC '-//W3C//DTD SVG 1.1//EN'  'http://www.w3.org/Graphics/SVG/1.1/DTD/svg11.dtd'><svg height="6.82666in" style="shape-rendering:geometricPrecision; text-rendering:geometricPrecision; image-rendering:optimizeQuality; fill-rule:evenodd; clip-rule:evenodd" viewBox="0 0 6.82666 6.82666" width="6.82666in" xml:space="preserve" xmlns="http://www.w3.org/2000/svg" xmlns:xlink="http://www.w3.org/1999/xlink"><defs><style type="text/css">
   <![CDATA[
    .fil1 {fill:none}
    .fil0 {fill:black}
   ]]>
  </style></defs><g id="Layer_x0020_1"><path class="fil0" d="M4.50471 2.93553l0 -1.76221 -2.18276 0 0 0.600929 0 1.16128 -0.319992 0 0 -1.9222c0,-0.0883346 0.0716614,-0.159996 0.159996,-0.159996l2.50275 0c0.0883346,0 0.159996,0.0716693 0.159996,0.159996l0 1.9222 -0.319992 0z"/><path class="fil0" d="M3.7305 4.39587c-0.0314567,0.0449567 -0.0722008,0.0829252 -0.119433,0.111098l0.103189 0.428685c0.00279134,0.00814173 0.00431102,0.016874 0.00431102,0.0259606 0,0.0441811 -0.0358189,0.08 -0.08,0.08l-0.448878 0c-0.00668898,0.000129921 -0.0135039,-0.000582677 -0.020311,-0.00222047 -0.0429528,-0.0103386 -0.0693976,-0.0535472 -0.0590591,-0.0965l0.000326772 7.87402e-005 0.104941 -0.436004c-0.0472323,-0.0281772 -0.0879764,-0.0661378 -0.119433,-0.111098 -0.0440984,-0.0630433 -0.0699803,-0.139433 -0.0699803,-0.22148 0,-0.106902 0.0433386,-0.203693 0.113398,-0.273752 0.0700669,-0.0700669 0.166854,-0.113402 0.273756,-0.113402 0.106902,0 0.203689,0.0433346 0.273756,0.113402 0.0700591,0.0700591 0.113398,0.16685 0.113398,0.273752 0,0.0820472 -0.0258819,0.158437 -0.0699803,0.22148zm0.774209 -1.54034l-2.18276 0 -0.319992 0 -0.454319 0c-0.0441811,0 -0.08,0.0358189 -0.08,0.08l0 2.9578c0,0.0441811 0.0358189,0.08 0.08,0.08l3.73137 0c0.0441811,0 0.08,-0.0358189 0.08,-0.08l0 -2.9578c0,-0.0441811 -0.0358189,-0.08 -0.08,-0.08l-0.454311 0 -0.319992 0z"/></g><rect class="fil1" height="6.82666" width="6.82666"/></svg>