<?xml version="1.0" ?><!DOCTYPE svg  PUBLIC '-//W3C//DTD SVG 1.1//EN'  'http://www.w3.org/Graphics/SVG/1.1/DTD/svg11.dtd'><svg height="6.82666in" style="shape-rendering:geometricPrecision; text-rendering:geometricPrecision; image-rendering:optimizeQuality; fill-rule:evenodd; clip-rule:evenodd" viewBox="0 0 6.82666 6.82666" width="6.82666in" xml:space="preserve" xmlns="http://www.w3.org/2000/svg" xmlns:xlink="http://www.w3.org/1999/xlink"><defs><style type="text/css">
   <![CDATA[
    .fil1 {fill:none}
    .fil0 {fill:black}
   ]]>
  </style></defs><g id="Layer_x0020_1"><polygon class="fil0" points="1.49783,0.853331 2.81643,2.74827 3.33531,2.55941 3.3625,2.55941 3.92858,2.76545 3.98949,2.78762 5.32915,0.853331 4.22921,0.853331 3.44615,1.97865 3.41333,2.02581 3.38052,1.97865 2.59746,0.853331 "/><path class="fil0" d="M3.34891 2.63936l-0.552484 0.201087 -0.552476 0.201087 -0.293866 0.508992 0 0.00015748 -0.293866 0.508984 0.102114 0.579094 0.102079 0.578913 0.450252 0.377807 0.450291 0.377846 0.587957 0 0.587957 0 0.450291 -0.377846 0.450248 -0.377807 0.102083 -0.578913 0.10211 -0.579094 -0.293866 -0.508984 0 -0.00015748 -0.293866 -0.508992 -0.552472 -0.201087 -0.552484 -0.201087zm3.93701e-006 0.874114c0.218602,0 0.416516,0.0886142 0.559772,0.23187 0.143256,0.14326 0.23187,0.341173 0.23187,0.559776 0,0.218602 -0.0886142,0.416516 -0.23187,0.559772 -0.143256,0.143256 -0.341169,0.23187 -0.559772,0.23187 -0.218602,0 -0.416516,-0.0886142 -0.559776,-0.23187 -0.143256,-0.143256 -0.23187,-0.341169 -0.23187,-0.559772 0,-0.218602 0.0886142,-0.416516 0.23187,-0.559776 0.143256,-0.143256 0.341177,-0.23187 0.559776,-0.23187z"/></g><rect class="fil1" height="6.82666" width="6.82666"/></svg>