<?xml version="1.0" ?><!DOCTYPE svg  PUBLIC '-//W3C//DTD SVG 1.1//EN'  'http://www.w3.org/Graphics/SVG/1.1/DTD/svg11.dtd'><svg enable-background="new 0 0 1024 1024" height="1024px" id="Layer_1" version="1.1" viewBox="0 0 1024 1024" width="1024px" xml:space="preserve" xmlns="http://www.w3.org/2000/svg" xmlns:xlink="http://www.w3.org/1999/xlink"><path d="M808.817,0H394.076L145.071,249.004v704.225c0,39.023,31.452,70.771,70.111,70.771h593.635  c38.66,0,70.111-31.748,70.111-70.771V70.772C878.929,31.748,847.478,0,808.817,0z M854.753,953.229  c0,25.566-20.607,46.367-45.936,46.367H215.183c-25.328,0-45.935-20.801-45.935-46.367V249.004h164.828c33,0,60-27,60-60v-164.6  h414.741c25.328,0,45.936,20.801,45.936,46.368V953.229z" fill="#8E44AD"/><g><path d="M80,670.833h65.071V585l-70.946,88.375h0.012C75.337,671.805,77.368,670.833,80,670.833z" fill="#262626"/><path d="M944,670.833h-65.071V585l70.946,88.375h-0.012C948.663,671.805,946.632,670.833,944,670.833z" fill="#262626"/><path d="M882.443,861.471c-1.934,5.149-8.015,9.362-13.515,9.362H155.071c-5.5,0-11.582-4.213-13.515-9.362   L73.514,680.195c-1.933-5.149,0.986-9.362,6.486-9.362h864c5.5,0,8.419,4.213,6.486,9.362L882.443,861.471z" fill="#8E44AD"/></g><g><path d="M273.788,818.323c0-5.013,1.483-8.881,4.454-11.606c2.969-2.724,7.287-4.087,12.955-4.087   c5.394,0,9.534,1.363,12.423,4.087c2.888,2.726,4.332,6.594,4.332,11.606c0,4.903-1.485,8.732-4.454,11.483   c-2.971,2.751-7.07,4.127-12.301,4.127c-5.395,0-9.645-1.362-12.751-4.086C275.341,827.123,273.788,823.282,273.788,818.323z" fill="#FFFFFF"/><path d="M328.059,831.891V712.396h32.448v119.494H328.059z" fill="#FFFFFF"/><path d="M500.107,831.891H457.77l-43.646-84.186h-0.735c1.034,13.241,1.553,23.349,1.553,30.323v53.862h-28.606   V712.396h42.174l43.482,83.041h0.49c-0.764-12.042-1.144-21.713-1.144-29.016v-54.025h28.77V831.891z" fill="#FFFFFF"/><path d="M627.366,769.609c0,19.943-5.49,35.31-16.469,46.098c-10.98,10.789-26.414,16.184-46.303,16.184h-38.66   V712.396h41.357c19.18,0,33.986,4.903,44.422,14.712C622.147,736.916,627.366,751.084,627.366,769.609z M593.854,770.754   c0-10.952-2.164-19.07-6.496-24.356c-4.332-5.285-10.912-7.929-19.74-7.929h-9.398v66.94h7.193c9.807,0,17-2.847,21.576-8.541   C591.567,791.175,593.854,782.47,593.854,770.754z" fill="#FFFFFF"/><path d="M750.212,769.609c0,19.943-5.49,35.31-16.469,46.098c-10.98,10.789-26.414,16.184-46.303,16.184h-38.66   V712.396h41.357c19.18,0,33.986,4.903,44.422,14.712C744.993,736.916,750.212,751.084,750.212,769.609z M716.7,770.754   c0-10.952-2.164-19.07-6.496-24.356c-4.332-5.285-10.912-7.929-19.74-7.929h-9.398v66.94h7.193c9.807,0,17-2.847,21.576-8.541   C714.413,791.175,716.7,782.47,716.7,770.754z" fill="#FFFFFF"/></g><g><g><path d="M729.983,369.821c0,8.25-9,15-20,15H314.852c-11,0-20-6.75-20-15s9-15,20-15h395.132    C720.983,354.821,729.983,361.571,729.983,369.821z" fill="#8E44AD"/></g><g><path d="M729.148,459.821c0,8.25-9,15-20,15H314.017c-11,0-20-6.75-20-15s9-15,20-15h395.132    C720.148,444.821,729.148,451.571,729.148,459.821z" fill="#8E44AD"/></g><g><path d="M729.983,550.016c0,8.25-9,15-20,15H314.852c-11,0-20-6.75-20-15s9-15,20-15h395.132    C720.983,535.016,729.983,541.766,729.983,550.016z" fill="#8E44AD"/></g></g></svg>