<?xml version="1.0" ?><!DOCTYPE svg  PUBLIC '-//W3C//DTD SVG 1.1//EN'  'http://www.w3.org/Graphics/SVG/1.1/DTD/svg11.dtd'><svg enable-background="new 0 0 1024 1024" height="1024px" id="Layer_1" version="1.1" viewBox="0 0 1024 1024" width="1024px" xml:space="preserve" xmlns="http://www.w3.org/2000/svg" xmlns:xlink="http://www.w3.org/1999/xlink"><path d="M808.817,0H394.076L145.071,249.004v704.225c0,39.023,31.452,70.771,70.111,70.771h593.635  c38.66,0,70.111-31.748,70.111-70.771V70.772C878.929,31.748,847.478,0,808.817,0z M854.753,953.229  c0,25.566-20.607,46.367-45.936,46.367H215.183c-25.328,0-45.935-20.801-45.935-46.367V249.004h164.828c33,0,60-27,60-60v-164.6  h414.741c25.328,0,45.936,20.801,45.936,46.368V953.229z" fill="#3498DB"/><g><path d="M80,670.833h65.071V585l-70.946,88.375h0.012C75.337,671.805,77.368,670.833,80,670.833z" fill="#262626"/><path d="M944,670.833h-65.071V585l70.946,88.375h-0.012C948.663,671.805,946.632,670.833,944,670.833z" fill="#262626"/><path d="M882.443,861.471c-1.934,5.149-8.015,9.362-13.515,9.362H155.071c-5.5,0-11.582-4.213-13.515-9.362   L73.514,680.195c-1.933-5.149,0.986-9.362,6.486-9.362h864c5.5,0,8.419,4.213,6.486,9.362L882.443,861.471z" fill="#3498DB"/></g><g><g><path d="M181.771,818.323c0-5.013,1.484-8.881,4.454-11.606c2.97-2.724,7.287-4.087,12.955-4.087    c5.395,0,9.535,1.363,12.424,4.087c2.888,2.726,4.332,6.594,4.332,11.606c0,4.903-1.485,8.732-4.455,11.483    c-2.971,2.751-7.069,4.127-12.301,4.127c-5.395,0-9.645-1.362-12.75-4.086C183.324,827.123,181.771,823.282,181.771,818.323z" fill="#FFFFFF"/><path d="M322.762,750.402c0,13.351-3.938,23.662-11.811,30.937c-7.874,7.273-19.058,10.911-33.552,10.911h-9.072    v39.641h-32.284V712.396h41.356c15.093,0,26.427,3.297,34.001,9.89C318.974,728.88,322.762,738.252,322.762,750.402z     M268.327,765.932h5.885c4.85,0,8.705-1.361,11.565-4.087c2.86-2.724,4.291-6.483,4.291-11.279    c0-8.063-4.469-12.097-13.404-12.097h-8.337V765.932z" fill="#FFFFFF"/><path d="M341.806,831.891V712.396h32.285v93.421h46.016v26.073H341.806z" fill="#FFFFFF"/><path d="M525.952,750.402c0,13.351-3.938,23.662-11.812,30.937c-7.874,7.273-19.058,10.911-33.551,10.911h-9.073    v39.641h-32.284V712.396h41.357c15.092,0,26.427,3.297,34.001,9.89C522.165,728.88,525.952,738.252,525.952,750.402z     M471.517,765.932h5.885c4.85,0,8.705-1.361,11.565-4.087c2.861-2.724,4.291-6.483,4.291-11.279    c0-8.063-4.468-12.097-13.404-12.097h-8.337V765.932z" fill="#FFFFFF"/><path d="M577.28,788.408v43.482h-32.285V712.396h39.15c32.475,0,48.713,11.77,48.713,35.309    c0,13.841-6.756,24.548-20.27,32.121l34.818,52.064H610.79l-25.336-43.482H577.28z M577.28,764.134h6.049    c11.279,0,16.918-4.986,16.918-14.957c0-8.228-5.531-12.342-16.592-12.342h-6.375V764.134z" fill="#FFFFFF"/><path d="M770.089,771.979c0,20.106-4.932,35.391-14.793,45.853c-9.863,10.462-24.303,15.693-43.318,15.693    c-18.746,0-33.117-5.258-43.115-15.774c-10-10.516-14.998-25.828-14.998-45.935c0-19.888,4.971-35.076,14.916-45.566    c9.943-10.488,24.398-15.733,43.359-15.733c19.016,0,33.43,5.204,43.238,15.611C765.185,736.536,770.089,751.82,770.089,771.979z     M687.864,771.979c0,23.104,8.037,34.655,24.113,34.655c8.172,0,14.234-2.806,18.186-8.418c3.949-5.612,5.926-14.357,5.926-26.237    c0-11.933-2.004-20.746-6.008-26.44c-4.006-5.693-9.986-8.541-17.941-8.541C695.956,736.998,687.864,748.659,687.864,771.979z" fill="#FFFFFF"/></g><g><path d="M799.727,842.456c-5.885,0-11.47-0.487-16.756-1.461V819.64c1.745,0.278,3.597,0.592,5.559,0.939    c1.961,0.348,4.086,0.521,6.375,0.521c5.34,0,9.154-1.368,11.442-4.104c2.289-2.736,3.433-7.419,3.433-14.051V708.83h32.449v91.75    c0,13.773-3.543,24.195-10.626,31.268C824.519,838.919,813.894,842.456,799.727,842.456z" fill="#FFFFFF"/></g></g><g><g><path d="M729.983,369.821c0,8.25-9,15-20,15H314.852c-11,0-20-6.75-20-15s9-15,20-15h395.132    C720.983,354.821,729.983,361.571,729.983,369.821z" fill="#3498DB"/></g><g><path d="M729.148,459.821c0,8.25-9,15-20,15H314.017c-11,0-20-6.75-20-15s9-15,20-15h395.132    C720.148,444.821,729.148,451.571,729.148,459.821z" fill="#3498DB"/></g><g><path d="M729.983,550.016c0,8.25-9,15-20,15H314.852c-11,0-20-6.75-20-15s9-15,20-15h395.132    C720.983,535.016,729.983,541.766,729.983,550.016z" fill="#3498DB"/></g></g></svg>