<?xml version="1.0" ?><!DOCTYPE svg  PUBLIC '-//W3C//DTD SVG 1.1//EN'  'http://www.w3.org/Graphics/SVG/1.1/DTD/svg11.dtd'><svg enable-background="new 0 0 512 512" height="512px" version="1.1" viewBox="0 0 512 512" width="512px" xml:space="preserve" xmlns="http://www.w3.org/2000/svg" xmlns:xlink="http://www.w3.org/1999/xlink"><g id="_x30_1"/><g id="_x30_2"/><g id="_x30_3"/><g id="_x30_4"/><g id="_x30_5"/><g id="_x30_6"/><g id="_x30_7"/><g id="_x30_8"/><g id="_x30_9"/><g id="_x31_0"/><g id="_x31_1"/><g id="_x31_2"/><g id="_x31_3"/><g id="_x31_4"/><g id="_x31_5"/><g id="_x31_6"/><g id="_x31_7"/><g id="_x31_8"/><g id="_x31_9"/><g id="_x32_0"/><g id="_x32_1"/><g id="_x32_2"/><g id="_x32_3"/><g id="_x32_4"/><g id="_x32_5"/><g id="_x32_6"/><g id="_x32_7"/><g id="_x32_8"/><g id="_x32_9"/><g id="_x33_0"/><g id="_x33_1"/><g id="_x33_2"/><g id="_x33_3"/><g id="_x33_4"/><g id="_x33_5"/><g id="_x33_6"/><g id="_x33_7"/><g id="_x33_8"/><g id="_x33_9"/><g id="_x34_0"/><g id="_x34_1"/><g id="_x34_2"/><g id="_x34_3"/><g id="_x34_4"/><g id="_x34_5"/><g id="_x34_6"/><g id="_x34_7"/><g id="_x34_8"/><g id="_x34_9"/><g id="_x35_0"><g><path d="M490.466,259.701V97.861c0-23.984-19.512-43.497-43.496-43.497H192.571    c-23.983,0-43.496,19.513-43.496,43.497v53.414H65.029c-23.983,0-43.496,19.513-43.496,43.497v161.84    c0,15.924,8.711,30.268,22.136,37.852l-18.792,49.504c-1.518,4-0.349,8.523,2.919,11.285c1.866,1.577,4.183,2.384,6.515,2.384    c1.753,0,3.515-0.457,5.099-1.385l95.802-56.144h184.217c23.984,0,43.497-19.513,43.497-43.497v-53.414h13.865l95.802,56.145    c1.584,0.929,3.345,1.385,5.099,1.385c2.332,0,4.649-0.807,6.515-2.384c3.268-2.762,4.437-7.285,2.919-11.285l-18.792-49.502    C481.755,289.975,490.466,275.63,490.466,259.701z M342.748,356.611c0,12.858-10.461,23.32-23.32,23.32H132.473    c-1.793,0-3.554,0.478-5.101,1.385l-73.477,43.06l12.106-31.891c1.015-2.673,0.847-5.651-0.46-8.194    c-1.308-2.543-3.633-4.411-6.397-5.141c-10.266-2.709-17.435-11.978-17.435-22.539v-161.84c0-12.859,10.46-23.32,23.319-23.32    h94.135h160.264c12.859,0,23.32,10.461,23.32,23.32v98.338V356.611z M470.29,259.701c0,10.566-7.167,19.834-17.43,22.539    c-2.766,0.729-5.092,2.597-6.4,5.14c-1.308,2.543-1.476,5.522-0.461,8.195l12.106,31.892l-73.477-43.061    c-1.547-0.907-3.308-1.385-5.101-1.385h-16.603v-88.25c0-23.984-19.513-43.497-43.497-43.497H169.252V97.861    c0-12.859,10.46-23.32,23.319-23.32h254.399c12.858,0,23.319,10.461,23.319,23.32V259.701z" fill="#E2247A"/><path d="M216.72,213.232c-14.615,0-23.929,5.604-30.722,13.414c-6.795-7.81-16.117-13.414-30.749-13.414    c-22.502,0-40.809,17.384-40.809,38.752c0,33.079,32.881,63.73,64.68,93.372c1.938,1.806,4.408,2.709,6.879,2.709    c2.472,0,4.945-0.904,6.882-2.712l0.087-0.082c31.754-29.628,64.589-60.265,64.589-93.287    C257.558,230.617,239.238,213.232,216.72,213.232z M185.996,324.17c-26.313-24.671-51.379-49.828-51.379-72.186    c0-10.243,9.255-18.576,20.632-18.576c10.222,0,15.125,3.628,21.862,16.175c1.758,3.274,5.172,5.316,8.888,5.316    s7.13-2.042,8.888-5.316c6.736-12.547,11.633-16.175,21.833-16.175c11.393,0,20.662,8.333,20.662,18.576    C237.381,274.318,212.301,299.486,185.996,324.17z" fill="#E2247A"/><path d="M425.479,156.562c-5.572,0-10.088,4.517-10.088,10.088v59.1c0,5.572,4.517,10.088,10.088,10.088    s10.088-4.517,10.088-10.088v-59.1C435.568,161.078,431.051,156.562,425.479,156.562z" fill="#E2247A"/><path d="M425.479,114.837c-5.572,0-10.088,4.517-10.088,10.088v7.573c0,5.572,4.517,10.088,10.088,10.088    s10.088-4.517,10.088-10.088v-7.573C435.568,119.354,431.051,114.837,425.479,114.837z" fill="#E2247A"/><path d="M304.511,252.842c-5.572,0-10.088,4.517-10.088,10.088v59.101c0,5.572,4.517,10.088,10.088,10.088    s10.088-4.517,10.088-10.088V262.93C314.599,257.358,310.083,252.842,304.511,252.842z" fill="#E2247A"/><path d="M304.511,211.146c-5.572,0-10.088,4.517-10.088,10.088v7.544c0,5.572,4.517,10.088,10.088,10.088    s10.088-4.517,10.088-10.088v-7.544C314.599,215.663,310.083,211.146,304.511,211.146z" fill="#E2247A"/></g></g></svg>