<?xml version="1.0" ?><!DOCTYPE svg  PUBLIC '-//W3C//DTD SVG 1.1//EN'  'http://www.w3.org/Graphics/SVG/1.1/DTD/svg11.dtd'><svg enable-background="new 0 0 512 512" height="512px" version="1.1" viewBox="0 0 512 512" width="512px" xml:space="preserve" xmlns="http://www.w3.org/2000/svg" xmlns:xlink="http://www.w3.org/1999/xlink"><g id="_x30_1"/><g id="_x30_2"/><g id="_x30_3"/><g id="_x30_4"/><g id="_x30_5"/><g id="_x30_6"/><g id="_x30_7"/><g id="_x30_8"/><g id="_x30_9"/><g id="_x31_0"/><g id="_x31_1"/><g id="_x31_2"/><g id="_x31_3"/><g id="_x31_4"/><g id="_x31_5"/><g id="_x31_6"/><g id="_x31_7"/><g id="_x31_8"/><g id="_x31_9"/><g id="_x32_0"/><g id="_x32_1"/><g id="_x32_2"/><g id="_x32_3"/><g id="_x32_4"/><g id="_x32_5"/><g id="_x32_6"/><g id="_x32_7"/><g id="_x32_8"/><g id="_x32_9"/><g id="_x33_0"/><g id="_x33_1"/><g id="_x33_2"/><g id="_x33_3"/><g id="_x33_4"/><g id="_x33_5"/><g id="_x33_6"/><g id="_x33_7"/><g id="_x33_8"/><g id="_x33_9"/><g id="_x34_0"/><g id="_x34_1"/><g id="_x34_2"/><g id="_x34_3"/><g id="_x34_4"/><g id="_x34_5"/><g id="_x34_6"/><g id="_x34_7"/><g id="_x34_8"/><g id="_x34_9"/><g id="_x35_0"><g><path d="M434.031,49.952H404.31v-4.601c0-19.263-15.657-34.935-34.935-34.935    c-19.246,0-34.904,15.672-34.904,34.935v4.601H181.665v-8.038c0-19.264-15.658-34.936-34.904-34.936    c-19.263,0-34.935,15.672-34.935,34.936v8.038H77.969c-30.767,0-55.797,25.045-55.797,55.829v48.639    c-0.012,0.199-0.03,0.397-0.03,0.6s0.019,0.4,0.03,0.6v280.017c0,30.768,25.03,55.799,55.797,55.799h356.062    c30.783,0,55.826-25.031,55.826-55.799V105.78C489.857,74.997,464.814,49.952,434.031,49.952z M354.646,45.351    c0-8.138,6.607-14.758,14.76-14.758c8.121,0,14.728,6.621,14.728,14.758V60.04v14.689c0,0.508-0.026,1.011-0.076,1.507    c-0.755,7.43-7.034,13.247-14.673,13.252h-0.01c-7.613,0-13.896-5.819-14.652-13.252c-0.051-0.496-0.076-0.999-0.076-1.507V60.04    V45.351z M132.003,41.914c0-8.138,6.62-14.759,14.758-14.759c8.121,0,14.728,6.621,14.728,14.759V60.04v11.253    c0,8.138-6.606,14.758-14.728,14.758c-8.138,0-14.758-6.62-14.758-14.758V60.04V41.914z M77.969,70.128h33.857v1.165    c0,1.806,0.138,3.58,0.403,5.313c0.177,1.155,0.411,2.292,0.698,3.407c0.144,0.558,0.301,1.11,0.472,1.657    c4.43,14.212,17.71,24.558,33.361,24.558c15.638,0,28.906-10.346,33.333-24.558c0.17-0.547,0.327-1.099,0.471-1.657    c0.287-1.115,0.521-2.252,0.698-3.407c0.265-1.733,0.403-3.507,0.403-5.313v-1.165h152.806v4.601c0,1.204,0.062,2.394,0.181,3.567    c1.791,17.595,16.681,31.369,34.724,31.369h0.031c19.246,0,34.903-15.672,34.903-34.936v-4.601h29.722    c19.657,0,35.65,15.993,35.65,35.652v39.15H42.349v-39.15C42.349,86.122,58.328,70.128,77.969,70.128z M434.031,471.257H77.969    c-19.641,0-35.62-15.98-35.62-35.622V165.107h427.333v270.528C469.682,455.277,453.688,471.257,434.031,471.257z" fill="#E2247A"/><path d="M436.758,318.172c-0.188-37.455-31.271-80.818-71.307-80.818h-5.436    c-5.237-24.902-28.541-43.733-56.422-43.733c-22.894,0-36.65,9.201-47.442,24.054c-10.792-14.853-24.549-24.054-47.442-24.054    c-27.88,0-51.185,18.832-56.423,43.733h-5.435c-40.112,0-71.239,43.489-71.337,80.982c-0.029,0.881-0.031,1.763-0.031,2.644    c0,0.264,0.01,0.525,0.03,0.785v5.024c0,15.742,12.821,28.549,28.58,28.549c7.032,0,13.479-2.557,18.46-6.788    c4.98,4.231,11.427,6.788,18.459,6.788c6.581,0,12.648-2.233,17.485-5.981c5.104,4.765,11.95,7.685,19.466,7.685    c10.521,0,19.726-5.726,24.677-14.221c14.473,15.271,30.64,30.353,46.629,45.266l6.882-7.376l-6.881,7.377    c1.937,1.807,4.408,2.709,6.879,2.709c2.474,0,4.947-0.904,6.886-2.712c15.988-14.913,32.155-29.995,46.628-45.266    c4.951,8.496,14.155,14.222,24.677,14.222c7.517,0,14.362-2.919,19.466-7.684c4.836,3.747,10.904,5.98,17.484,5.98    c7.032,0,13.479-2.557,18.46-6.788c4.98,4.231,11.428,6.788,18.46,6.788c15.741,0,28.548-12.807,28.548-28.549v-4.451    c0.06-0.444,0.091-0.897,0.091-1.357c0-0.271-0.011-0.541-0.032-0.807C436.813,319.552,436.801,318.885,436.758,318.172z     M186.335,324.667v3.826c0,4.617-3.755,8.372-8.372,8.372s-8.372-3.755-8.372-8.372v-1.704c0-5.572-4.517-10.088-10.088-10.088    c-5.572,0-10.088,4.517-10.088,10.088c0,4.617-3.77,8.372-8.403,8.372c-4.616,0-8.371-3.755-8.371-8.372    c0-5.572-4.517-10.088-10.088-10.088c-5.572,0-10.088,4.517-10.088,10.088c0,4.617-3.755,8.372-8.372,8.372    c-4.633,0-8.403-3.755-8.403-8.372v-5.809c0-0.262-0.01-0.521-0.03-0.777c0.001-0.438,0.007-0.876,0.023-1.315    c0.004-0.124,0.007-0.248,0.007-0.372c0-27.452,23.608-60.986,51.161-60.986h4.942c0.072,0.563,0.175,1.129,0.26,1.694    c0.009,0.059,0.018,0.117,0.027,0.176C155.138,279.441,166.227,300.53,186.335,324.667z M256.152,366.91    c-42.809-40.027-84.796-81.113-84.796-118.95c0-18.837,16.757-34.162,37.354-34.162c17.87,0,27.238,6.77,38.553,27.86    c1.757,3.275,5.173,5.319,8.89,5.319c3.717,0,7.132-2.044,8.89-5.319c11.314-21.091,20.682-27.86,38.552-27.86    c20.597,0,37.354,15.325,37.354,34.162C340.948,285.796,298.96,326.883,256.152,366.91z M416.583,320.98v5.809    c0,4.617-3.756,8.372-8.372,8.372s-8.372-3.755-8.372-8.372c0-5.572-4.517-10.088-10.088-10.088s-10.088,4.517-10.088,10.088    c0,4.617-3.756,8.372-8.372,8.372c-4.633,0-8.402-3.755-8.402-8.372c0-5.572-4.517-10.088-10.088-10.088    s-10.088,4.517-10.088,10.088v1.704c0,4.617-3.756,8.372-8.372,8.372s-8.372-3.755-8.372-8.372v-3.826    c20.109-24.138,31.197-45.228,34.254-65.269c0.009-0.057,0.018-0.113,0.025-0.17c0.085-0.565,0.188-1.133,0.261-1.697h4.942    c27.537,0,51.132,33.534,51.132,60.986c0,0.248,0.009,0.495,0.027,0.742c0.014,0.195,0.022,0.421,0.026,0.667    C416.602,320.272,416.583,320.624,416.583,320.98z" fill="#E2247A"/><path d="M349.485,379.685c-5.571,0-10.088,4.517-10.088,10.088v38.411c0,5.572,4.517,10.088,10.088,10.088    s10.088-4.517,10.088-10.088v-38.411C359.573,384.202,355.057,379.685,349.485,379.685z" fill="#E2247A"/><path d="M390.542,367.946c-5.571,0-10.088,4.517-10.088,10.088v17c0,5.572,4.517,10.088,10.088,10.088    s10.088-4.517,10.088-10.088v-17C400.63,372.462,396.113,367.946,390.542,367.946z" fill="#E2247A"/><path d="M164.734,379.685c-5.572,0-10.088,4.517-10.088,10.088v38.411c0,5.572,4.517,10.088,10.088,10.088    s10.088-4.517,10.088-10.088v-38.411C174.823,384.202,170.306,379.685,164.734,379.685z" fill="#E2247A"/><path d="M123.678,367.946c-5.572,0-10.088,4.517-10.088,10.088v17c0,5.572,4.517,10.088,10.088,10.088    s10.088-4.517,10.088-10.088v-17C133.767,372.462,129.25,367.946,123.678,367.946z" fill="#E2247A"/><path d="M123.678,426.034c-5.572,0-10.088,4.517-10.088,10.088v2.95c0,5.572,4.517,10.088,10.088,10.088    s10.088-4.517,10.088-10.088v-2.95C133.767,430.55,129.25,426.034,123.678,426.034z" fill="#E2247A"/><path d="M390.542,426.003c-5.571,0-10.088,4.517-10.088,10.088v2.95c0,5.572,4.517,10.088,10.088,10.088    s10.088-4.517,10.088-10.088v-2.95C400.63,430.52,396.113,426.003,390.542,426.003z" fill="#E2247A"/></g></g></svg>