<?xml version="1.0" ?><svg id="Слой_1" style="enable-background:new 0 0 512 512;" version="1.1" viewBox="0 0 512 512" xml:space="preserve" xmlns="http://www.w3.org/2000/svg" xmlns:xlink="http://www.w3.org/1999/xlink"><style type="text/css">
	.st0{fill:#FFF1D3;}
	.st1{fill:#5C4A43;}
	.st2{fill:#FFFFFF;}
	.st3{fill:#BEB7B4;}
	.st4{fill:#FDDCCE;}
</style><g><g><path class="st0" d="M453.2,330.5c0,6.5-2.7,12.5-6.9,16.8c-4.3,4.3-10.2,7-16.7,7h-22.8c-4.9,0-8.9,3.9-8.9,8.6v44.4    c0,11.2-9.5,20.4-21.2,20.4H196c-11.7,0-21.2-9.1-21.2-20.4v-41.6c0-6.2-5.3-11.3-11.8-11.3h-22.8c-13,0-23.6-10.7-23.6-23.8    c0-6.5,2.7-12.5,6.9-16.8c0.3-0.3,0.6-0.6,0.9-0.9c7-6.3,9.6-16,6.1-24.6c-8.6-21.2-12.2-46.5-12.2-69.1    C118.5,134,193,65,284.9,65s166.5,69,166.5,154.1c0,22.5-3.6,47.9-12.2,69.1c-3.5,8.6-0.9,18.3,6.1,24.6    C450.1,317.2,453.2,323.5,453.2,330.5z"/></g><g><g><path class="st1" d="M416,327.6c-0.4,12.5-10.2,19-21.8,19c-7,0-14.1-0.3-21.1,0c-10.3,0.5-15.4,8.3-15.4,17.8c0,8,0,16,0,24     c0,6.5,0.1,13,0,19.5c-0.2,9.2-7.3,15.7-16.4,15.9c-7.3,0.2-14.6,0-21.8,0c-34.2,0-68.4,0-102.6,0c-21.8,0-43.8,0.6-65.6,0     c-10-0.3-16.2-7.6-16.3-17.2c0-7.9,0-15.8,0-23.6c0-6.1,0.3-12.3,0-18.4c-0.5-11.3-9.3-17.9-20.1-18c-7.3-0.1-14.6,0.1-21.9,0     c-11.1-0.2-20.2-9.2-19.3-20.6c0.6-7.9,6.3-11.5,10.6-17.4c4.3-5.9,6.4-13.2,5.5-20.5c-0.9-7.5-4.8-14.7-6.9-22     c-2.2-7.9-3.9-15.9-5.1-24c-4.1-27.1-3-54.8,6.2-80.8c8-22.7,21.8-43.2,39.2-59.8c37.9-36.2,91.5-52.3,143.3-46.4     c49.8,5.7,97.1,33.2,124.2,75.6c13.1,20.6,21.3,44.3,23.1,68.7c1.1,15,0.1,30.4-2.3,45.2c-1.4,8.3-3.2,16.6-5.7,24.7     c-2.2,7.1-6,14.1-6.1,21.7c-0.1,6.8,2.4,13.4,6.7,18.7C411.1,315.7,415.7,319.3,416,327.6c0.2,7.7,12.2,7.7,12,0     c-0.2-7.7-2.8-14.9-8-20.8c-4.9-5.6-9.7-10.4-8.1-18.5c0.7-3.7,2.6-7.2,3.8-10.8c1.4-4.1,2.6-8.2,3.7-12.4     c2.2-8.5,3.7-17.1,4.8-25.7c3.6-28,2.1-56.4-7.7-83.1c-18.2-49.4-59.6-87-109-104C255.4,34.4,195.7,40,148,67.9     c-44.9,26.3-77,71.7-83.4,123.6c-3.9,31.8,1.7,63.8,12.2,93.8c2.6,7.4,0.2,14-5.1,19.3c-5.5,5.4-9,12-9.9,19.7     c-1.4,13.3,6.3,26.4,18.6,31.6c8.1,3.5,17.4,2.5,26,2.5c5.8,0,15.9-1.9,16.4,6.4c0.9,14.3-0.3,28.7,0,43     c0.3,12.3,8,22.9,19.9,26.6c3.9,1.2,8,1.2,12,1.2c11.4,0,22.9,0,34.3,0c36.9,0,73.7,0,110.6,0c12.2,0,24.4,0,36.6,0     c2.4,0,4.8,0.1,7.2-0.1c13.8-1.2,25.3-11.9,26.1-26c0.9-14.4,0-29.2,0-43.6c0-1.5-0.5-4,0.2-5.4c1.3-2.9,5.8-2,8.3-2     c8,0,16.5,0.8,24.4-0.5c14.9-2.6,25-15.8,25.4-30.5C428.2,319.8,416.2,319.8,416,327.6z"/></g></g><g><g><path class="st1" d="M189.1,447c0-9.9,0-19.8,0-29.7c0-7.7-12-7.7-12,0c0,9.9,0,19.8,0,29.7C177.1,454.7,189.1,454.7,189.1,447     L189.1,447z"/></g></g><g><g><path class="st1" d="M227.7,447c0-9.9,0-19.8,0-29.7c0-7.7-12-7.7-12,0c0,9.9,0,19.8,0,29.7C215.7,454.7,227.7,454.7,227.7,447     L227.7,447z"/></g></g><g><g><path class="st1" d="M270.8,447c0-9.9,0-19.8,0-29.7c0-7.7-12-7.7-12,0c0,9.9,0,19.8,0,29.7C258.8,454.7,270.8,454.7,270.8,447     L270.8,447z"/></g></g><g><g><path class="st1" d="M313.9,447c0-9.9,0-19.8,0-29.7c0-7.7-12-7.7-12,0c0,9.9,0,19.8,0,29.7C301.9,454.7,313.9,454.7,313.9,447     L313.9,447z"/></g></g><g><g><circle class="st1" cx="186.9" cy="281.3" r="26.7"/><g><path class="st1" d="M207.6,281.3c-0.3,11.3-9.2,20.7-20.7,20.7c-11.3,0-20.8-9.4-20.7-20.7c0-11.3,9.4-20.7,20.7-20.7      C198.4,260.6,207.3,270,207.6,281.3c0.2,7.7,12.2,7.7,12,0c-0.3-13.7-8.5-25.8-21.3-30.7c-12.6-4.8-27.6-0.9-36.3,9.4      c-8.9,10.7-10.5,26.2-3.2,38.1c7.1,11.8,20.9,17.7,34.4,15.2c15.4-2.8,26-16.8,26.4-32.1C219.8,273.6,207.8,273.6,207.6,281.3z"/></g></g><g><circle class="st1" cx="302.8" cy="281.3" r="26.7"/><g><path class="st1" d="M323.5,281.3c-0.3,11.3-9.2,20.7-20.7,20.7c-11.3,0-20.8-9.4-20.7-20.7c0-11.3,9.4-20.7,20.7-20.7      C314.3,260.6,323.2,270,323.5,281.3c0.2,7.7,12.2,7.7,12,0c-0.3-13.7-8.5-25.8-21.3-30.7c-12.6-4.8-27.6-0.9-36.3,9.4      c-8.9,10.7-10.5,26.2-3.2,38.1c7.1,11.8,20.9,17.7,34.4,15.2c15.4-2.8,26-16.8,26.4-32.1C335.7,273.6,323.7,273.6,323.5,281.3z"/></g></g><g><path class="st1" d="M244.8,345.3L244.8,345.3c10.2,0,16.2-11.4,10.5-19.8L245,310.5c-0.1-0.2-0.3-0.2-0.4,0l-10.2,14.9     C228.6,333.9,234.6,345.3,244.8,345.3z"/><g><path class="st1" d="M244.8,351.3c14.8,0,23.2-16.6,15.6-28.9c-1.9-3.1-4.1-6-6.2-9.1c-2.3-3.3-4.7-8.7-9.2-8.8      c-4.6-0.2-6.9,4.8-9.1,8.1c-2.2,3.2-4.6,6.4-6.7,9.8C221.3,335.1,230.2,350.6,244.8,351.3c7.7,0.4,7.7-11.6,0-12      c-3.7-0.2-6.8-3-6.7-6.9c0.1-2.3,1.6-4.1,2.8-6c2.9-4.3,5.9-8.6,8.8-12.9c-1.7,1-3.5,2-5.2,3c0.1,0,0.3,0,0.4,0      c-1.7-1-3.5-2-5.2-3c3,4.4,6,8.8,9,13.2c1.4,2.1,3,4.1,2.6,6.8c-0.5,3.3-3.4,5.7-6.7,5.7C237.1,339.3,237.1,351.3,244.8,351.3z"/></g></g><g><circle class="st2" cx="187.9" cy="281.3" r="12.9"/></g><g><circle class="st2" cx="165.9" cy="282.1" r="5.7"/></g><g><circle class="st2" cx="303.8" cy="282.1" r="12.9"/></g><g><circle class="st2" cx="281.7" cy="282.8" r="5.7"/></g><g><path class="st3" d="M245.5,337L245.5,337c5.2,0,8.2-5.8,5.3-10.1l-5.2-7.6c-0.1-0.1-0.2-0.1-0.2,0l-5.2,7.6     C237.2,331.2,240.3,337,245.5,337z"/></g><g><g><path class="st1" d="M209.9,371c20.2,16.5,48.9,15.3,69.9,0.9c6.3-4.3,0.3-14.7-6.1-10.4c-11.9,8.2-25.7,12.1-39.9,8.2      c-4-1.1-7.9-2.7-11.5-4.8c-1.2-0.7-2.3-1.4-3.5-2.2c-0.4-0.3-0.8-0.6-1.2-0.8c1.6,1.1,1,0.8,0.7,0.5      C212.5,357.6,203.9,366.1,209.9,371L209.9,371z"/></g></g><g><g><path class="st1" d="M174.6,230.7c1-0.5-0.9,0.3-0.3,0.1c0.7-0.3,1.5-0.6,2.2-0.8c2.8-0.9,5.7-1.6,8.6-2.1      c9.4-1.4,18.6,0,27.4,3.4c7.2,2.8,10.3-8.8,3.2-11.6c-14.8-5.6-32.7-6.2-47.2,0.6C161.6,223.6,167.7,234,174.6,230.7      L174.6,230.7z"/></g></g><g><g><path class="st1" d="M279.8,230.7c1-0.5-0.9,0.3-0.3,0.1c0.7-0.3,1.5-0.6,2.2-0.8c2.8-0.9,5.7-1.6,8.6-2.1      c9.4-1.4,18.6,0,27.4,3.4c7.2,2.8,10.3-8.8,3.2-11.6c-14.8-5.6-32.7-6.2-47.2,0.6C266.8,223.6,272.9,234,279.8,230.7      L279.8,230.7z"/></g></g></g><g><ellipse class="st4" cx="315" cy="338.5" rx="17.3" ry="12.8"/></g><g><ellipse class="st4" cx="179.3" cy="338.5" rx="17.3" ry="12.8"/></g></g></svg>