<?xml version="1.0" ?><svg id="Слой_1" style="enable-background:new 0 0 512 512;" version="1.1" viewBox="0 0 512 512" xml:space="preserve" xmlns="http://www.w3.org/2000/svg" xmlns:xlink="http://www.w3.org/1999/xlink"><style type="text/css">
	.st0{fill:#FDEDFF;}
	.st1{fill:#5C4A43;}
	.st2{fill:#FFFFFF;}
	.st3{fill:#BEB7B4;}
	.st4{fill:#FFFCF6;}
</style><g><g><path class="st0" d="M469.6,331.2c0,6.9-2.8,13.2-7.4,17.8c-4.6,4.6-10.8,7.4-17.7,7.4h-24.2c-5.2,0-9.5,4.1-9.5,9.1v47.1    c0,11.9-10.1,21.6-22.5,21.6H196.8c-12.4,0-22.5-9.7-22.5-21.6v-44.2c0-6.6-5.6-12-12.5-12h-24.2c-13.8,0-25.1-11.3-25.1-25.2    c0-6.9,2.8-13.2,7.4-17.8c0.3-0.3,0.7-0.6,1-1c7.5-6.7,10.2-16.9,6.5-26.1c-9.1-22.5-13-49.4-13-73.3    c0-90.3,79.1-163.5,176.6-163.5s176.6,73.2,176.6,163.5c0,23.9-3.8,50.8-13,73.3c-3.7,9.2-1,19.4,6.5,26.1    C466.3,317,469.6,323.8,469.6,331.2z"/></g><g><g><path class="st1" d="M430.5,328.1c-0.4,13.2-10.8,20.6-23.2,20.6c-7.5,0-15.1-0.3-22.6,0c-10.7,0.5-16,8.6-16,18.5     c0,8.3,0,16.6,0,24.9c0,7.1,0.1,14.2,0,21.3c-0.2,9.9-7.9,17.1-17.7,17.3c-7.5,0.2-15,0-22.5,0c-36.4,0-72.9,0-109.3,0     c-23.3,0-46.6,0.5-69.9,0c-10.3-0.2-17.6-7.9-17.6-18.1c0-8,0-16,0-24c0-7,0.3-14,0-21c-0.4-11.4-9.2-18.8-20.3-18.9     c-7.9-0.1-15.7,0.1-23.6,0c-12-0.1-22-9.7-21.1-22.1c0.6-8.2,6-12,10.7-18c4.6-5.9,7.2-13.5,6.5-21.1c-0.7-8.2-4.9-15.9-7.2-23.8     c-2.5-8.5-4.3-17.2-5.6-26c-4.4-29-3.2-58.5,6.6-86.3c8.6-24.1,23.3-45.9,41.8-63.5c40.2-38.3,96.8-55.3,151.6-49.2     c52.9,5.9,103.3,34.9,132.3,80c14,21.8,22.9,46.9,24.8,72.9c1.2,16.2,0.2,32.8-2.4,48.8c-1.4,8.7-3.4,17.4-6,25.9     c-2.4,7.7-6.6,15.2-6.6,23.5c0,7.1,2.7,14,7.1,19.5c2.4,2.9,5.4,5.1,7.3,8.4C429.5,320.8,430.4,324.3,430.5,328.1     c0.2,7.7,12.2,7.7,12,0c-0.2-8-2.9-15.3-8.1-21.4c-5.2-6.1-10.6-11-9.1-19.9c0.7-4,2.7-7.8,4-11.6c1.6-4.7,3-9.4,4.3-14.3     c2.2-8.6,3.7-17.3,4.9-26c3.9-30,2.3-60.5-8.3-89.1c-19.4-52-63.3-91.5-115.4-109.4c-55.3-19-118.6-13-169,16.7     c-47.3,27.8-81.2,75.7-88,130.5c-2,15.8-1.5,32,0.3,47.8c1.1,9.4,2.6,18.7,4.9,27.9c2.1,8.5,5.3,16.4,7.9,24.7     c2.8,8.6-1,15.2-6.9,21.2c-5.5,5.6-8.8,12.9-9.4,20.7c-1.2,14.7,8.3,28.4,22,33.2c8.3,2.9,18.3,1.7,26.9,1.7     c6.4,0,15.6-1.5,16,7.5c0.7,15.1-0.4,30.4,0,45.5c0.3,13.3,9.4,25.2,22.6,28.1c3.7,0.8,7.4,0.8,11.2,0.8c12.3,0,24.6,0,37,0     c39,0,78,0,116.9,0c12.8,0,25.6,0,38.5,0c2.9,0,5.8,0.1,8.7-0.3c14.3-1.7,25.4-13.4,26.1-27.8c0.7-15.3,0-30.7,0-46     c0-1.8-0.5-4.5,0.5-6.1c1.6-2.6,6.2-1.8,8.8-1.8c8.4,0,17.3,0.8,25.5-0.5c15.7-2.6,26.6-16.5,27-32     C442.7,320.3,430.7,320.3,430.5,328.1z"/></g></g><g><g><g><path class="st1" d="M188.3,451.7c0-10.5,0-21,0-31.5c0-7.7-12-7.7-12,0c0,10.5,0,21,0,31.5      C176.3,459.4,188.3,459.4,188.3,451.7L188.3,451.7z"/></g></g><g><g><path class="st1" d="M229.3,451.7c0-10.5,0-21,0-31.5c0-7.7-12-7.7-12,0c0,10.5,0,21,0,31.5      C217.3,459.4,229.3,459.4,229.3,451.7L229.3,451.7z"/></g></g><g><g><path class="st1" d="M275,451.7c0-10.5,0-21,0-31.5c0-7.7-12-7.7-12,0c0,10.5,0,21,0,31.5C263,459.4,275,459.4,275,451.7      L275,451.7z"/></g></g><g><g><path class="st1" d="M320.7,451.7c0-10.5,0-21,0-31.5c0-7.7-12-7.7-12,0c0,10.5,0,21,0,31.5      C308.7,459.4,320.7,459.4,320.7,451.7L320.7,451.7z"/></g></g></g><g><g><g><circle class="st1" cx="187.1" cy="275.8" r="28.4"/><g><path class="st1" d="M209.4,275.8c-0.3,12.2-9.9,22.4-22.4,22.4c-12.2,0-22.4-10.2-22.4-22.4c0-12.2,10.2-22.4,22.4-22.4       C199.5,253.5,209.2,263.6,209.4,275.8c0.2,7.7,12.2,7.7,12,0c-0.3-14.3-8.9-27-22.3-32.2c-13.5-5.2-29.4-0.8-38.5,10.3       c-9.1,11.1-10.5,27.1-3.1,39.4c7.4,12.4,21.8,18.7,35.9,16.2c16.3-2.9,27.7-17.5,28-33.8C221.6,268.1,209.6,268.1,209.4,275.8z       "/></g></g><g><circle class="st1" cx="310" cy="275.8" r="28.4"/><g><path class="st1" d="M332.4,275.8c-0.3,12.2-9.9,22.4-22.4,22.4c-12.2,0-22.4-10.2-22.4-22.4c0-12.2,10.2-22.4,22.4-22.4       C322.5,253.5,332.1,263.6,332.4,275.8c0.2,7.7,12.2,7.7,12,0c-0.3-14.3-8.9-27-22.3-32.2c-13.5-5.2-29.4-0.8-38.5,10.3       c-9.1,11.1-10.5,27.1-3.1,39.4c7.4,12.4,21.8,18.7,35.9,16.2c16.3-2.9,27.7-17.5,28-33.8C344.6,268.1,332.6,268.1,332.4,275.8z       "/></g></g></g><g><path class="st1" d="M248.5,343.6L248.5,343.6c10.8,0,17.2-12.1,11.1-21l-10.9-15.8c-0.1-0.2-0.4-0.2-0.5,0l-10.9,15.8     C231.3,331.5,237.7,343.6,248.5,343.6z"/><g><path class="st1" d="M248.5,349.6c10.9,0,19.9-9.4,19.4-20.3c-0.3-7.8-6.3-14.4-10.5-20.5c-1.5-2.2-3.3-5.8-5.7-7.3      c-4.3-2.5-7.6,0.6-9.9,3.9c-3.9,5.7-9.4,11.7-11.7,18.3C225.7,336.6,235.5,349.1,248.5,349.6c7.7,0.3,7.7-11.7,0-12      c-3.8-0.2-7.1-2.8-7.4-6.8c-0.2-2.8,1.3-4.8,2.7-7c3.2-4.7,6.4-9.4,9.6-14.1c-1.7,1-3.5,2-5.2,3c0.2,0,0.3,0,0.5,0      c-1.7-1-3.5-2-5.2-3c3.3,4.8,6.6,9.5,9.8,14.3c1.5,2.2,2.9,4.3,2.5,7c-0.5,3.7-3.7,6.5-7.4,6.5      C240.8,337.6,240.8,349.6,248.5,349.6z"/></g></g><g><g><circle class="st2" cx="188.2" cy="275.8" r="13.6"/></g><g><circle class="st2" cx="164.8" cy="276.6" r="6.1"/></g></g><g><g><circle class="st2" cx="311.1" cy="276.6" r="13.6"/></g><g><circle class="st2" cx="287.7" cy="277.4" r="6.1"/></g></g><g><path class="st3" d="M249.3,334.9L249.3,334.9c5.5,0,8.8-6.2,5.6-10.7l-5.5-8.1c-0.1-0.1-0.2-0.1-0.2,0l-5.5,8.1     C240.5,328.7,243.8,334.9,249.3,334.9z"/></g><g><g><path class="st1" d="M164.5,217.8c10.7,0,21.5,0,32.2,0c3.5,0,8.7,0.9,11.9-0.9c4.1-2.3,7.9-6,11.7-8.9c6.1-4.6,0.1-15-6.1-10.4      c-1.7,1.3-3.4,2.6-5.1,3.9c-1.5,1.1-5.6,3.2-6.4,4.8c-0.4,0.8,4-0.2,2.3-0.6c-0.6-0.1-1.5,0-2.1,0c-2.5,0-5,0-7.4,0      c-10.3,0-20.6,0-30.9,0C156.7,205.8,156.7,217.8,164.5,217.8L164.5,217.8z"/></g></g><g><g><path class="st1" d="M334.1,205.8c-10.3,0-20.6,0-30.9,0c-2.4,0-4.8,0-7.2,0c-0.6,0-1.6-0.2-2.2,0c-1.7,0.6,2.1,0.1,2.2,0.7      c-0.3-1.2-5.1-3.9-6.1-4.6c-1.8-1.4-3.7-2.8-5.5-4.2c-6.2-4.7-12.1,5.8-6.1,10.4c3.8,2.8,7.5,6.7,11.7,8.9      c3.3,1.7,8.3,0.9,11.9,0.9c10.7,0,21.5,0,32.2,0C341.8,217.8,341.8,205.8,334.1,205.8L334.1,205.8z"/></g></g><g><g><g><path class="st1" d="M210,378.8c4.2,0,8.5,0,12.7,0c7.7,0,7.7-12,0-12c-4.2,0-8.5,0-12.7,0C202.2,366.8,202.2,378.8,210,378.8       L210,378.8z"/></g></g><g><g><path class="st1" d="M274.4,378.8c4.2,0,8.5,0,12.7,0c7.7,0,7.7-12,0-12c-4.2,0-8.5,0-12.7,0       C266.7,366.8,266.6,378.8,274.4,378.8L274.4,378.8z"/></g></g><g><g><path class="st1" d="M242.8,378.8c4.2,0,8.5,0,12.7,0c7.7,0,7.7-12,0-12c-4.2,0-8.5,0-12.7,0C235,366.8,235,378.8,242.8,378.8       L242.8,378.8z"/></g></g></g></g><g><ellipse class="st4" cx="330.9" cy="333.3" rx="18.3" ry="13.6"/></g><g><ellipse class="st4" cx="167.7" cy="333.3" rx="18.3" ry="13.6"/></g></g></svg>