<?xml version="1.0" ?><svg id="Слой_1" style="enable-background:new 0 0 512 512;" version="1.1" viewBox="0 0 512 512" xml:space="preserve" xmlns="http://www.w3.org/2000/svg" xmlns:xlink="http://www.w3.org/1999/xlink"><style type="text/css">
	.st0{fill:#FFF0D3;}
	.st1{fill:#5C4A43;}
	.st2{fill:#FFFFFF;}
	.st3{fill:#BEB7B4;}
	.st4{fill:#FDDCCE;}
</style><g><g><g><path class="st0" d="M454.5,333.2c0,6.9-2.8,13.1-7.3,17.6c-4.5,4.5-10.7,7.3-17.6,7.3h-24c-5.2,0-9.4,4-9.4,9v46.6     c0,11.8-10,21.4-22.2,21.4H184.2c-12.3,0-22.2-9.6-22.2-21.4v-43.8c0-6.6-5.5-11.9-12.4-11.9h-24c-13.7,0-24.9-11.2-24.9-25     c0-6.9,2.8-13.1,7.3-17.6c0.3-0.3,0.7-0.6,1-0.9c7.4-6.7,10.1-16.8,6.4-25.9c-9.1-22.3-12.8-48.9-12.8-72.6     c0-89.5,78.3-162,175-162s175,72.5,175,162c0,23.7-3.8,50.3-12.8,72.6c-3.7,9.1-1,19.2,6.4,25.9     C451.3,319.2,454.5,325.8,454.5,333.2z"/></g><g><g><path class="st1" d="M425.1,332c-0.3,8.1-4.8,15.5-12.3,18.7c-3.8,1.6-7.8,1.6-11.8,1.6c-7.5,0-15.2-0.6-22.6,0.1      c-6.9,0.7-12.9,5.6-14.2,12.5c-0.4,2.3-0.3,4.6-0.3,6.9c0,8.5,0,17,0,25.5c0,6.5,0.2,13,0,19.5c-0.3,9.8-8.2,16.5-17.7,16.7      c-8,0.2-16.1,0-24.1,0c-36.2,0-72.3,0-108.5,0c-16,0-32.1,0-48.1,0c-7,0-14.6,0.9-21.5-0.1c-10.1-1.5-14.8-9.8-14.8-19.2      c0-8.4,0-16.8,0-25.2c0-6,0.2-12.1,0-18.1c-0.5-12.4-10.5-18.5-21.9-18.5c-7.4,0-14.9,0.2-22.3,0c-13.5-0.3-23.5-13.6-19.2-26.7      c2.5-7.5,9.8-11.6,13.2-18.6c3.2-6.8,3.9-14.7,1.6-21.9c-2.6-7.9-5.6-15.5-7.7-23.6c-2.1-8.6-3.7-17.3-4.7-26.1      c-3.1-28-1.2-55.7,8.9-82.2c9.1-23.6,24.2-44.7,42.8-61.7c40.4-36.9,97-52.9,150.9-45.7c51.8,6.9,100.7,36,128.6,80.6      c13.5,21.5,21.8,46.2,23.5,71.6c1.1,15.9,0,32.2-2.6,47.9c-1.5,8.6-3.4,17.2-6,25.6c-2.3,7.4-6.3,14.6-6.3,22.4      c0,7.3,2.9,14.3,7.6,19.9c2.2,2.6,5,4.7,6.8,7.7C424.1,324.8,425,328.3,425.1,332c0.2,7.7,12.2,7.7,12,0      c-0.2-7.9-2.8-15.2-8-21.2c-5.1-6-10.5-10.9-9-19.6c0.6-3.7,2.5-7.2,3.7-10.7c1.5-4.4,2.9-8.8,4.1-13.2c2.3-8.8,4-17.7,5.1-26.7      c3.9-29.4,2.6-59.4-7.6-87.5c-18.6-51.5-61.5-91-112.7-109.3c-54.2-19.4-116.5-14.3-166.7,14c-46.6,26.3-81.7,72.7-89.6,126.1      c-4.8,32.3-1.2,67.6,10,98.2c2.8,7.7,5.2,14.6,0.2,22.1c-2.1,3.2-5.3,5.5-7.6,8.6c-2.5,3.3-4.4,7.2-5.4,11.2      c-3.6,14.1,3,29.6,15.9,36.5c8.7,4.7,18.3,3.9,27.9,3.9c6.4,0,18.9-2.4,19.6,6.8c0.6,7.2,0,14.6,0,21.8c0,7.7-0.1,15.5,0,23.2      c0.1,12.1,7,22.7,18.4,27.2c4.7,1.9,9.5,2.1,14.4,2.1c11.8,0,23.5,0,35.3,0c38.5,0,77,0,115.5,0c13.2,0,26.4,0,39.6,0      c2,0,4.1,0.1,6.1,0c14-0.4,26.9-9.9,29-24.2c1-6.5,0.4-13.5,0.4-20.1c0-9.3,0-18.5,0-27.8c0-1.8-0.3-3.8,0-5.6      c0.7-4,4.4-3.5,7.5-3.5c8.2,0,16.7,0.7,24.9-0.2c16.6-1.7,28.4-15.8,28.9-32.1C437.3,324.3,425.3,324.3,425.1,332z"/></g></g><g><g><circle class="st1" cx="183.9" cy="286.1" r="28.1"/><g><path class="st1" d="M206,286.1c-0.3,12.1-9.8,22.1-22.1,22.1c-12.1,0-22.1-10.1-22.1-22.1c0-12.1,10-22.1,22.1-22.1       C196.2,264,205.7,274,206,286.1c0.2,7.7,12.2,7.7,12,0c-0.4-14.4-9-27-22.5-32.1c-13.3-5-29-0.6-37.9,10.4       c-8.9,11-10.3,26.6-3.2,38.9c7.3,12.5,21.8,18.8,35.9,16.3c16.2-2.9,27.3-17.4,27.7-33.5C218.2,278.4,206.2,278.4,206,286.1z"/></g></g><g><circle class="st1" cx="305.8" cy="286.1" r="28.1"/><g><path class="st1" d="M327.9,286.1c-0.3,12.1-9.8,22.1-22.1,22.1c-12.1,0-22.1-10.1-22.1-22.1c0-12.1,10-22.1,22.1-22.1       C318,264,327.6,274,327.9,286.1c0.2,7.7,12.2,7.7,12,0c-0.4-14.4-9-27-22.5-32.1c-13.3-5-29-0.6-37.9,10.4       c-8.9,11-10.3,26.6-3.2,38.9c7.3,12.5,21.8,18.8,35.9,16.3c16.2-2.9,27.3-17.4,27.7-33.5C340.1,278.4,328.1,278.4,327.9,286.1z       "/></g></g></g><g><path class="st1" d="M244.8,353.3L244.8,353.3c10.7,0,17-12,11-20.8l-10.8-15.7c-0.1-0.2-0.4-0.2-0.5,0l-10.8,15.7     C227.8,341.3,234.1,353.3,244.8,353.3z"/><g><path class="st1" d="M244.8,359.3c10.8,0,19.8-9.3,19.3-20.1c-0.3-7.8-6.2-14.2-10.4-20.4c-1.5-2.2-3.3-5.8-5.6-7.2      c-4.2-2.5-7.6,0.6-9.9,3.9c-3.9,5.7-9.3,11.6-11.6,18.1C222.1,346.3,231.9,358.7,244.8,359.3c7.7,0.3,7.7-11.7,0-12      c-3.8-0.2-7-2.8-7.3-6.7c-0.2-2.7,1.2-4.7,2.7-6.9c3.2-4.7,6.4-9.3,9.6-14c-1.7,1-3.5,2-5.2,3c0.2,0,0.3,0,0.5,0      c-1.7-1-3.5-2-5.2-3c3.2,4.7,6.5,9.5,9.7,14.2c1.4,2.1,2.9,4.2,2.5,6.9c-0.5,3.6-3.7,6.4-7.3,6.4      C237.1,347.3,237.1,359.3,244.8,359.3z"/></g></g><g><g><g><path class="st1" d="M185.2,455.1c0-10.4,0-20.8,0-31.2c0-7.7-12-7.7-12,0c0,10.4,0,20.8,0,31.2       C173.2,462.9,185.2,462.9,185.2,455.1L185.2,455.1z"/></g></g><g><g><path class="st1" d="M225.9,455.1c0-10.4,0-20.8,0-31.2c0-7.7-12-7.7-12,0c0,10.4,0,20.8,0,31.2       C213.9,462.9,225.9,462.9,225.9,455.1L225.9,455.1z"/></g></g><g><g><path class="st1" d="M271.1,455.1c0-10.4,0-20.8,0-31.2c0-7.7-12-7.7-12,0c0,10.4,0,20.8,0,31.2       C259.1,462.9,271.1,462.9,271.1,455.1L271.1,455.1z"/></g></g><g><g><path class="st1" d="M316.4,455.1c0-10.4,0-20.8,0-31.2c0-7.7-12-7.7-12,0c0,10.4,0,20.8,0,31.2       C304.4,462.9,316.4,462.9,316.4,455.1L316.4,455.1z"/></g></g></g><g><g><path class="st1" d="M220.2,389.4c14.8,9.4,34.4,8,49.3,0c6.8-3.6,0.8-14-6.1-10.4c-11.3,6-26.1,7.1-37.2,0      C219.7,374.9,213.7,385.3,220.2,389.4L220.2,389.4z"/></g></g><g><g><path class="st1" d="M178.7,226.6c5.8,0,11.6,0,17.4,0c7.7,0,7.7-12,0-12c-5.8,0-11.6,0-17.4,0      C170.9,214.6,170.9,226.6,178.7,226.6L178.7,226.6z"/></g></g><g><g><path class="st1" d="M293.7,226.6c5.8,0,11.6,0,17.4,0c7.7,0,7.7-12,0-12c-5.8,0-11.6,0-17.4,0      C285.9,214.6,285.9,226.6,293.7,226.6L293.7,226.6z"/></g></g><g><g><circle class="st2" cx="187.1" cy="286.1" r="13.5"/></g><g><circle class="st2" cx="163.9" cy="286.9" r="6"/></g></g><g><g><circle class="st2" cx="310.2" cy="287" r="13.5"/></g><g><circle class="st2" cx="287" cy="287.8" r="6"/></g></g><g><path class="st3" d="M244.8,344.3L244.8,344.3c5.5,0,8.7-6.1,5.6-10.6l-5.5-8c-0.1-0.1-0.2-0.1-0.2,0l-5.5,8     C236.2,338.2,239.4,344.3,244.8,344.3z"/></g><g><ellipse class="st4" cx="172.6" cy="344.5" rx="18.2" ry="13.5"/></g><g><ellipse class="st4" cx="321.7" cy="344.5" rx="18.2" ry="13.5"/></g></g><g><g><path class="st1" d="M153.7,274.9c-3.2,0-6.4,0-9.6,0c-3.1,0-6.1,2.8-6,6c0.1,3.3,2.6,6,6,6c3.2,0,6.4,0,9.6,0c3.1,0,6.1-2.8,6-6     C159.6,277.6,157.1,274.9,153.7,274.9L153.7,274.9z"/></g></g><g><g><path class="st1" d="M344.7,275.8c-3.2,0-6.4,0-9.6,0c-3.1,0-6.1,2.8-6,6c0.1,3.3,2.6,6,6,6c3.2,0,6.4,0,9.6,0c3.1,0,6.1-2.8,6-6     C350.6,278.5,348.1,275.8,344.7,275.8L344.7,275.8z"/></g></g></g></svg>