<?xml version="1.0" ?><!DOCTYPE svg  PUBLIC '-//W3C//DTD SVG 1.1//EN'  'http://www.w3.org/Graphics/SVG/1.1/DTD/svg11.dtd'><svg height="512px" style="enable-background:new 0 0 512 512;" version="1.1" viewBox="0 0 512 512" width="512px" xml:space="preserve" xmlns="http://www.w3.org/2000/svg" xmlns:xlink="http://www.w3.org/1999/xlink"><g id="bells__x2C__bell__x2C__christmas_bells__x2C__christamas"><g><g><path d="M199.84,398.526c-0.439,0-0.88-0.064-1.309-0.194c-35.885-10.909-69.411-26.288-99.648-45.71     c-31.454-20.204-60.403-45.458-86.042-75.061c-0.846-0.977-1.231-2.271-1.058-3.551c0.174-1.281,0.89-2.425,1.965-3.142     c6.884-4.583,12.869-8.111,18.828-11.103l2.724-1.46c24.648-13.192,52.584-28.144,62.057-60.012     c11.557-40.614,43.743-66.89,81.984-66.89c17.137,0,34.542,5.459,50.334,15.789c24.646,15.894,39.265,39.337,41.137,65.997     c1.945,27.711-10.464,55.299-34.046,75.692c-23.888,20.769-26.922,52.955-29.6,81.354c-0.817,8.667-1.589,16.854-2.889,24.541     c-0.216,1.275-0.969,2.396-2.069,3.077C201.489,398.298,200.667,398.526,199.84,398.526z M23.05,275.556     c47.891,53.994,104.612,90.892,173.129,112.622c0.813-5.921,1.407-12.213,2.026-18.788c2.836-30.077,6.051-64.169,32.665-87.308     c21.427-18.528,32.709-43.406,30.964-68.262c-1.668-23.762-14.83-44.743-37.06-59.079c-14.349-9.384-30.05-14.336-45.433-14.336     c-34.112,0-62.901,23.71-73.342,60.403c-10.557,35.518-41.549,52.105-66.451,65.434l-2.771,1.484     c-0.037,0.02-0.074,0.039-0.112,0.058C32.291,269.978,27.883,272.49,23.05,275.556z" style="fill:#221F20;"/></g><g><path d="M202.201,377.293c-0.345,0-0.694-0.04-1.044-0.123c-50.074-11.901-93.616-41.319-121.326-63.901     c-29.96-24.417-47.886-45.726-48.635-46.62c-1.594-1.906-1.341-4.743,0.565-6.338c1.906-1.594,4.745-1.341,6.339,0.563     c0.713,0.853,72.416,85.502,165.138,107.54c2.418,0.574,3.912,3.001,3.337,5.419C206.084,375.9,204.238,377.293,202.201,377.293z     " style="fill:#221F20;"/></g><g><path d="M230.991,264.961c-0.927,0-1.861-0.285-2.665-0.876c-2.001-1.474-2.429-4.29-0.956-6.292     c28.843-39.182,4.197-61.702,3.944-61.925c-1.862-1.646-2.039-4.489-0.393-6.352c1.646-1.862,4.49-2.037,6.352-0.393     c0.33,0.292,8.133,7.297,11.572,20.08c3.11,11.559,3.167,30.297-14.228,53.926C233.736,264.327,232.373,264.961,230.991,264.961z     " style="fill:#221F20;"/></g><g><path d="M239.753,158.998C239.753,158.998,239.753,158.998,239.753,158.998     c-4.647,0-9.162-1.301-13.057-3.762c-0.046-0.029-0.091-0.059-0.136-0.089c-10.882-7.439-13.923-21.944-6.923-33.021     c0.029-0.046,0.059-0.091,0.089-0.136c4.663-6.821,12.19-10.894,20.136-10.894c4.61,0,9.088,1.388,12.954,4.014     c5.354,3.406,9.167,8.956,10.466,15.24c1.3,6.288,0.05,12.64-3.52,17.895C255.478,154.979,248.004,158.998,239.753,158.998z      M231.572,147.67c2.438,1.523,5.266,2.328,8.181,2.328c5.173,0,9.824-2.477,12.442-6.626c0.03-0.047,0.061-0.094,0.092-0.14     c2.212-3.232,2.986-7.16,2.18-11.059c-0.813-3.93-3.191-7.391-6.526-9.496c-0.047-0.03-0.094-0.061-0.14-0.092     c-2.378-1.628-5.124-2.488-7.94-2.488c-4.946,0-9.672,2.58-12.66,6.905C222.873,133.932,224.786,142.98,231.572,147.67z" style="fill:#221F20;"/></g><g><path d="M310.284,401.356c-0.863,0-1.718-0.248-2.455-0.729c-1.09-0.71-1.819-1.855-2.001-3.144     c-1.044-7.409-1.624-15.286-2.237-23.625c-2.116-28.759-4.516-61.355-27.961-82.697c-10.13-9.166-18.092-19.459-23.654-30.583     c-0.671-1.344-0.629-2.933,0.114-4.238c12.745-22.403,13.43-48.835,1.83-70.705c-0.716-1.35-0.698-2.972,0.049-4.306     c7.292-13.029,17.992-23.748,31.806-31.858c15.26-9.457,31.999-14.455,48.413-14.455c39.153,0,71.677,26.919,82.856,68.579     c8.395,31.483,35.226,46.763,58.898,60.244c1.549,0.883,3.085,1.757,4.604,2.629c0.039,0.022,0.078,0.046,0.117,0.069     c1.516,0.934,3.062,1.866,4.607,2.801c4.699,2.837,9.558,5.771,13.612,8.715c1.034,0.751,1.7,1.904,1.832,3.175     c0.133,1.271-0.281,2.537-1.138,3.484c-51.628,57.115-113.145,95.214-188.064,116.472     C311.108,401.3,310.695,401.356,310.284,401.356z M261.102,258.632c4.996,9.331,11.91,18.023,20.577,25.865     c26.109,23.768,28.647,58.266,30.888,88.702c0.459,6.244,0.899,12.224,1.527,17.866c69.312-20.553,126.754-56.128,175.324-108.58     c-2.794-1.815-5.83-3.648-8.8-5.441c-1.547-0.935-3.095-1.869-4.613-2.804c-1.489-0.854-2.997-1.713-4.517-2.578     c-25.206-14.355-53.776-30.625-63.139-65.74c-10.092-37.603-39.202-61.905-74.162-61.905c-14.633,0-29.625,4.468-43.38,12.924     c-0.229,0.17-0.474,0.318-0.732,0.443c-11.554,6.834-20.646,15.668-27.057,26.284     C274.516,207.106,273.81,234.775,261.102,258.632z" style="fill:#221F20;"/></g><g><path d="M308.385,380.122c-2.079,0-3.946-1.449-4.396-3.564c-0.518-2.431,1.034-4.82,3.465-5.338     c92.806-19.753,166.733-102.978,167.47-103.816c1.641-1.868,4.483-2.053,6.351-0.413s2.053,4.482,0.413,6.351     c-0.772,0.88-19.276,21.833-49.824,45.598c-28.256,21.982-72.451,50.424-122.536,61.084     C309.011,380.09,308.695,380.122,308.385,380.122z" style="fill:#221F20;"/></g><g><path d="M278.482,159.803c-8.201,0-15.733-4.17-20.147-11.155c-0.019-0.029-0.037-0.058-0.055-0.088     c-6.892-11.481-3.555-25.986,7.596-33.023c3.75-2.37,8.115-3.623,12.622-3.623c8.287,0,16.138,4.274,20.485,11.154     c0.019,0.029,0.037,0.059,0.055,0.088c3.359,5.596,4.379,12.078,2.872,18.252c-1.511,6.189-5.41,11.443-10.982,14.799     C287.187,158.56,282.884,159.803,278.482,159.803z M265.971,143.883c2.759,4.334,7.432,6.92,12.512,6.92     c2.715,0,5.372-0.772,7.683-2.233c0.03-0.019,0.061-0.037,0.091-0.055c3.517-2.109,5.972-5.391,6.911-9.241     c0.938-3.84,0.291-7.901-1.818-11.441c-2.721-4.27-7.64-6.919-12.851-6.919c-2.802,0-5.505,0.772-7.817,2.233     C263.717,127.542,261.654,136.641,265.971,143.883z" style="fill:#221F20;"/></g><g><path d="M93.251,386.063c-1.101,0-2.211-0.049-3.332-0.147c-15.243-1.338-29.496-12.032-35.467-26.609     c-5.648-13.789-2.932-28.688,7.453-40.877c1.612-1.893,4.452-2.12,6.344-0.508s2.119,4.452,0.507,6.344     c-8.244,9.677-10.366,20.909-5.975,31.63c4.728,11.542,15.95,20.004,27.926,21.056c11.265,0.981,21.52-4.864,28.868-16.482     c1.328-2.102,4.109-2.729,6.208-1.397c2.101,1.328,2.727,4.107,1.398,6.208C118.643,378.779,106.69,386.063,93.251,386.063z" style="fill:#221F20;"/></g><g><path d="M413.848,393.984c-0.26,0-0.519-0.003-0.778-0.008c-14.913-0.283-27.528-8.655-34.608-22.97     c-1.103-2.228-0.189-4.927,2.038-6.028c2.223-1.103,4.927-0.191,6.028,2.038c5.621,11.362,15.107,17.741,26.712,17.962     c12.482,0.242,24.738-6.695,30.47-17.252c5.383-9.917,4.11-21.639-3.585-33.005c-1.394-2.058-0.854-4.855,1.204-6.249     c2.057-1.394,4.855-0.854,6.249,1.204c9.673,14.287,11.107,29.325,4.041,42.344C444.447,385.23,429.343,393.983,413.848,393.984z     " style="fill:#221F20;"/></g><g><path d="M387.213,199.825c-1.468,0-2.907-0.717-3.771-2.038c-22.499-34.417-56.252-38.063-56.59-38.095     c-2.47-0.239-4.285-2.433-4.052-4.903c0.232-2.47,2.412-4.293,4.887-4.058c1.554,0.143,38.321,3.939,63.288,42.131     c1.36,2.081,0.776,4.869-1.305,6.229C388.912,199.587,388.058,199.825,387.213,199.825z" style="fill:#221F20;"/></g></g></g><g id="Layer_1"/></svg>