<?xml version="1.0" ?><!DOCTYPE svg  PUBLIC '-//W3C//DTD SVG 1.1//EN'  'http://www.w3.org/Graphics/SVG/1.1/DTD/svg11.dtd'><svg height="512px" style="enable-background:new 0 0 512 512;" version="1.1" viewBox="0 0 512 512" width="512px" xml:space="preserve" xmlns="http://www.w3.org/2000/svg" xmlns:xlink="http://www.w3.org/1999/xlink"><g id="gloves__x2C__winter_gloves__x2C__winters__x2C_"><g><g><path d="M129.513,461.224c-8.724,0-17.335-1.497-25.593-4.451c-19.27-7.14-34.549-21.328-43.07-39.97     c-8.368-18.308-9.132-38.651-2.15-57.284l10.228-28.12l-26.524,16.17c-0.045,0.028-0.091,0.055-0.137,0.081     c-3.032,1.705-6.493,2.606-10.007,2.606c-7.188,0-13.729-3.598-17.496-9.626c-2.859-4.583-3.729-9.969-2.454-15.169     c1.287-5.244,4.614-9.687,9.374-12.519l72.143-47.036c1.183-0.771,2.659-0.943,3.988-0.462l133.944,48.459     c1.125,0.406,2.041,1.244,2.547,2.327c0.506,1.084,0.56,2.324,0.149,3.447L201.085,411.1     C190.364,441.069,161.597,461.224,129.513,461.224z M77.543,316.375c1.016,0,2.027,0.344,2.851,1.019     c1.479,1.21,2.032,3.224,1.378,5.02l-14.63,40.223c-6.151,16.417-5.473,34.311,1.893,50.426     c7.519,16.449,21.001,28.97,37.963,35.254c7.235,2.588,14.826,3.908,22.514,3.908c28.292,0,53.653-17.756,63.108-44.183     l31.833-87.21l-127.591-46.16l-70.345,45.863c-0.058,0.038-0.116,0.074-0.176,0.109c-2.7,1.588-4.579,4.061-5.291,6.963     c-0.692,2.821-0.214,5.754,1.347,8.257c2.109,3.376,5.796,5.393,9.861,5.393c1.948,0,3.86-0.489,5.533-1.416l37.409-22.807     C75.924,316.592,76.735,316.375,77.543,316.375z" style="fill:#221F20;"/></g><g><path d="M240.466,326.23c-1.322,0-2.627-0.212-3.88-0.629c-0.04-0.014-0.08-0.027-0.119-0.042     L86.119,270.725c-3.216-1.092-5.839-3.487-7.206-6.582c-1.327-3.006-1.354-6.311-0.082-9.332l3.593-10.794     c1.64-4.918,6.178-8.095,11.562-8.095c1.417,0,2.823,0.229,4.178,0.68c0.039,0.013,0.077,0.026,0.115,0.041l150.807,54.833     c6.25,2.125,9.554,9.167,7.367,15.733c-0.025,0.074-0.052,0.148-0.08,0.222l-4.089,10.423     C250.554,322.869,245.821,326.23,240.466,326.23z M239.479,317.078c0.319,0.101,0.651,0.152,0.987,0.152     c1.496,0,2.862-0.965,3.322-2.346c0.024-0.074,0.051-0.147,0.08-0.221l4.076-10.39c0.499-1.629-0.024-3.7-1.768-4.282     c-0.038-0.013-0.076-0.025-0.114-0.039l-150.79-54.828c-0.421-0.135-0.853-0.203-1.286-0.203c-1.149,0-2.546,0.51-3.023,1.94     l-3.653,10.975c-0.046,0.138-0.098,0.273-0.157,0.406c-0.417,0.938-0.233,1.75-0.005,2.266c0.353,0.799,1.039,1.418,1.882,1.699     c0.041,0.014,0.081,0.027,0.121,0.042L239.479,317.078z" style="fill:#221F20;"/></g><g><path d="M383.01,424.652C383.009,424.652,383.01,424.652,383.01,424.652     c-32.009-0.001-60.752-19.964-71.525-49.675l-33.372-91.876c-0.408-1.122-0.353-2.361,0.153-3.443     c0.507-1.082,1.422-1.918,2.545-2.324l133.944-48.458c1.327-0.481,2.806-0.31,3.988,0.461l72.225,47.073     c9.527,5.962,12.634,18.386,6.856,27.648c-3.806,6.068-10.511,9.832-17.506,9.832c-3.609,0-7.133-1.008-10.19-2.914     l-26.482-15.822l10.236,27.821c14.137,39.472-6.145,83.062-45.198,97.206C400.393,423.149,391.759,424.652,383.01,424.652z      M288.109,284.265l31.835,87.643c9.487,26.165,34.831,43.744,63.064,43.745c7.713,0,15.325-1.325,22.626-3.938     c34.388-12.455,52.243-50.887,39.787-85.667l-14.618-39.729c-0.658-1.79-0.117-3.8,1.351-5.018     c1.469-1.217,3.545-1.377,5.181-0.399l37.482,22.395c1.724,1.074,3.55,1.596,5.501,1.596c3.924,0,7.707-2.147,9.875-5.604     c3.15-5.05,1.326-11.914-4.07-15.292l-70.415-45.892L288.109,284.265z" style="fill:#221F20;"/></g><g><path d="M271.851,289.665L271.851,289.665c-4.844-0.001-9.594-3.006-11.821-7.479     c-0.094-0.188-0.174-0.383-0.24-0.583l-3.655-10.961c-2.189-6.57,1.107-13.611,7.348-15.733l150.809-54.834     c0.038-0.014,0.077-0.027,0.115-0.04c1.253-0.417,2.545-0.629,3.839-0.629c4.959,0,9.575,3.178,11.761,8.095     c0.051,0.115,0.098,0.232,0.139,0.352l3.653,10.52c1.046,3.135,0.912,6.431-0.356,9.331c-1.351,3.086-3.825,5.37-6.974,6.439     L275.66,288.992C274.483,289.434,273.188,289.665,271.851,289.665z M268.207,278.398c0.753,1.287,2.305,2.267,3.644,2.267l0,0     c0.256,0,0.489-0.039,0.693-0.115l150.897-54.884c0.038-0.014,0.076-0.027,0.115-0.04c0.753-0.251,1.305-0.766,1.639-1.531     c0.37-0.844,0.399-1.874,0.082-2.825l-3.564-10.263c-0.929-1.947-2.7-2.998-4.415-2.45l-150.789,54.828     c-0.038,0.014-0.076,0.026-0.115,0.04c-1.767,0.589-2.269,2.728-1.721,4.371L268.207,278.398z" style="fill:#221F20;"/></g><g><path d="M172.179,272.807c-0.478,0-0.964-0.076-1.442-0.238c-2.354-0.796-3.618-3.35-2.821-5.704     l64.003-189.253c0.546-1.617,1.96-2.785,3.651-3.017c1.691-0.233,3.366,0.512,4.329,1.921l104.227,152.684     c1.401,2.053,0.873,4.853-1.18,6.254c-2.052,1.4-4.853,0.874-6.254-1.18l-99.138-145.23l-61.112,180.704     C175.807,271.623,174.056,272.807,172.179,272.807z" style="fill:#221F20;"/></g><g><path d="M335.369,83.552H136.523c-2.485,0-4.5-2.015-4.5-4.5V55.729c0-2.485,2.015-4.5,4.5-4.5h198.846     c2.485,0,4.5,2.015,4.5,4.5v23.324C339.869,81.538,337.854,83.552,335.369,83.552z M141.023,74.552h189.846V60.229H141.023     V74.552z" style="fill:#221F20;"/></g><g><path d="M163.028,397.143c-0.51,0-1.028-0.087-1.536-0.271c-2.336-0.848-3.542-3.43-2.693-5.766     l24.238-66.743c0.848-2.336,3.429-3.545,5.766-2.693c2.336,0.848,3.542,3.43,2.693,5.766l-24.238,66.743     C166.594,396.007,164.867,397.143,163.028,397.143z" style="fill:#221F20;"/></g><g><path d="M353.196,372.921c-1.84,0-3.566-1.137-4.23-2.966l-24.222-66.743     c-0.848-2.336,0.359-4.917,2.695-5.766c2.336-0.847,4.918,0.359,5.766,2.695l24.222,66.743c0.848,2.336-0.359,4.917-2.695,5.766     C354.225,372.834,353.706,372.921,353.196,372.921z" style="fill:#221F20;"/></g></g></g><g id="Layer_1"/></svg>