<?xml version="1.0" ?><!DOCTYPE svg  PUBLIC '-//W3C//DTD SVG 1.1//EN'  'http://www.w3.org/Graphics/SVG/1.1/DTD/svg11.dtd'><svg height="512px" style="enable-background:new 0 0 512 512;" version="1.1" viewBox="0 0 512 512" width="512px" xml:space="preserve" xmlns="http://www.w3.org/2000/svg" xmlns:xlink="http://www.w3.org/1999/xlink"><g id="crescent__x2C__star__x2C__stars__x2C__sky__x2C__night__x2C_"><g><g><path d="M280.773,500.726C280.771,500.726,280.775,500.726,280.773,500.726     c-49.197-0.001-97.063-17.585-134.781-49.515c-87.897-74.651-98.787-206.751-24.281-294.479     c21.555-25.362,49.335-45.508,80.339-58.261c1.983-0.816,4.27-0.119,5.458,1.668c1.189,1.786,0.951,4.163-0.567,5.679     c-4.165,4.157-8.472,8.455-12.227,13.043c-71.135,84.195-60.711,210.609,23.189,281.851     c36.061,30.609,81.915,47.47,129.101,47.47c0.006,0,0.004,0,0.01,0c26.19-0.002,51.684-5.028,75.773-14.939     c1.989-0.819,4.281-0.113,5.467,1.682c1.187,1.796,0.935,4.181-0.601,5.689C388.209,479.375,336.041,500.726,280.773,500.726z      M184.828,116.695c-21.366,11.778-40.543,27.374-56.258,45.864c-71.292,83.943-60.866,210.354,23.243,281.787     c36.089,30.551,81.89,47.378,128.959,47.379c45.268,0,88.358-14.964,123.508-42.532c-18.538,5.307-37.718,7.987-57.265,7.988     c-0.003,0-0.008,0-0.011,0c-49.32,0-97.237-17.617-134.926-49.608c-42.514-36.1-68.462-86.563-73.066-142.096     C134.535,211.451,150.785,158.803,184.828,116.695z" style="fill:#221F20;"/></g><g><path d="M298.792,315.764c-0.944,0-1.888-0.297-2.684-0.888l-29.301-21.771l-29.72,21.787     c-1.579,1.158-3.724,1.162-5.306,0.012c-1.583-1.15-2.241-3.191-1.629-5.05l11.498-34.874l-29.72-21.393     c-1.585-1.141-2.253-3.174-1.654-5.034c0.599-1.859,2.33-3.119,4.283-3.119h36.48l11.512-34.932     c0.609-1.854,2.336-3.118,4.297-3.092c1.951,0.01,3.673,1.276,4.265,3.135l11.102,34.888h36.877c1.953,0,3.684,1.26,4.283,3.119     c0.599,1.859-0.069,3.892-1.654,5.033l-29.75,21.414l11.109,34.897c0.593,1.861-0.084,3.893-1.674,5.027     C300.624,315.485,299.708,315.764,298.792,315.764z M266.825,283.013c0.943,0,1.888,0.296,2.684,0.888l20.76,15.425     l-7.864-24.704c-0.591-1.855,0.079-3.88,1.659-5.018l21.073-15.168h-26.212c-1.96,0-3.694-1.268-4.288-3.135l-7.887-24.783     l-8.182,24.827c-0.607,1.845-2.331,3.092-4.273,3.092h-25.781l21.073,15.168c1.594,1.147,2.26,3.196,1.645,5.062l-8.13,24.66     l21.064-15.441C264.957,283.303,265.892,283.013,266.825,283.013z" style="fill:#221F20;"/></g><g><path d="M94.038,120.08c-0.935,0-1.869-0.291-2.661-0.871c-1.572-1.153-2.223-3.187-1.613-5.038     l11.491-34.876L71.533,57.888c-1.585-1.141-2.252-3.174-1.653-5.033c0.6-1.858,2.33-3.118,4.283-3.118h36.488l11.512-34.918     c0.608-1.845,2.333-3.091,4.273-3.091c0.008,0,0.016,0,0.024,0c1.951,0.01,3.673,1.277,4.265,3.136l11.093,34.873h36.452     c1.948,0,3.674,1.253,4.278,3.104s-0.052,3.882-1.625,5.03l-29.348,21.424l11.116,34.92c0.59,1.854-0.079,3.878-1.658,5.016     c-1.578,1.139-3.709,1.133-5.283-0.016l-29.331-21.398l-29.752,21.415C95.881,119.798,94.959,120.08,94.038,120.08z      M88.11,58.736l21.081,15.184c1.593,1.147,2.258,3.195,1.644,5.06l-8.192,24.862l21.165-15.233c1.58-1.136,3.71-1.13,5.281,0.017     l20.854,15.213l-7.927-24.902c-0.587-1.845,0.071-3.858,1.635-5l20.823-15.2h-25.946c-1.96,0-3.694-1.269-4.288-3.136     l-7.879-24.769l-8.18,24.813c-0.608,1.845-2.332,3.091-4.274,3.091H88.11z" style="fill:#221F20;"/></g><g><path d="M460.783,435.861c-0.932,0-1.863-0.288-2.653-0.865l-29.332-21.411l-29.75,21.428     c-1.582,1.14-3.718,1.131-5.29-0.021s-2.224-3.187-1.613-5.038l11.497-34.89l-29.72-21.393c-1.585-1.142-2.253-3.175-1.654-5.033     c0.6-1.859,2.33-3.119,4.283-3.119h36.479l11.512-34.918c0.611-1.853,2.374-3.095,4.297-3.091c1.95,0.01,3.673,1.276,4.265,3.135     l11.102,34.874h36.877c1.953,0,3.684,1.26,4.283,3.119c0.599,1.858-0.069,3.893-1.654,5.033l-29.75,21.413l11.11,34.913     c0.59,1.854-0.079,3.878-1.658,5.016C462.628,435.578,461.705,435.861,460.783,435.861z M390.505,374.519l21.072,15.168     c1.594,1.147,2.26,3.195,1.645,5.061l-8.194,24.867l21.158-15.239c1.578-1.137,3.711-1.132,5.283,0.017l20.854,15.223     l-7.928-24.911c-0.591-1.854,0.079-3.879,1.659-5.017l21.073-15.168h-26.212c-1.959,0-3.693-1.268-4.288-3.135l-7.887-24.774     l-8.182,24.818c-0.607,1.845-2.331,3.091-4.273,3.091H390.505z" style="fill:#221F20;"/></g><g><path d="M103.109,288.991c-7.229,0-13.571-6.345-13.571-13.578c0-7.479,6.088-13.563,13.571-13.563     c7.609,0,13.57,5.958,13.57,13.563C116.679,282.9,110.592,288.991,103.109,288.991z M103.109,270.85     c-2.208,0-4.571,1.834-4.571,4.563c0,2.268,2.307,4.578,4.571,4.578c2.734,0,4.57-2.367,4.57-4.578     C107.679,272.727,105.8,270.85,103.109,270.85z" style="fill:#221F20;"/></g><g><path d="M149.764,388.343c-7.736,0-13.57-5.837-13.57-13.577c0-7.479,6.087-13.563,13.57-13.563     c7.229,0,13.57,6.338,13.57,13.563C163.334,382.252,157.247,388.343,149.764,388.343z M149.764,370.202     c-2.734,0-4.57,2.359-4.57,4.563c0,2.695,1.879,4.577,4.57,4.577c2.207,0,4.57-1.839,4.57-4.577     C154.334,372.505,152.027,370.202,149.764,370.202z" style="fill:#221F20;"/></g><g><path d="M185.183,455.298c-7.356,0-13.571-6.014-13.571-13.133c0-7.486,6.088-13.577,13.571-13.577     c7.609,0,13.57,5.964,13.57,13.577C198.753,449.529,192.792,455.298,185.183,455.298z M185.183,437.588     c-2.208,0-4.571,1.839-4.571,4.577c0,2.163,2.179,4.133,4.571,4.133c2.605,0,4.57-1.776,4.57-4.133     C189.753,439.47,187.874,437.588,185.183,437.588z" style="fill:#221F20;"/></g><g><path d="M54.295,215.117c-2.485,0-4.5-2.015-4.5-4.5v-46.225c0-2.485,2.015-4.5,4.5-4.5s4.5,2.015,4.5,4.5     v46.225C58.795,213.102,56.78,215.117,54.295,215.117z" style="fill:#221F20;"/></g><g><path d="M77.623,191.796H31.4c-2.485,0-4.5-2.015-4.5-4.5s2.015-4.5,4.5-4.5h46.223     c2.485,0,4.5,2.015,4.5,4.5S80.108,191.796,77.623,191.796z" style="fill:#221F20;"/></g><g><path d="M218.012,215.117c-2.485,0-4.5-2.015-4.5-4.5v-46.225c0-2.485,2.015-4.5,4.5-4.5     s4.5,2.015,4.5,4.5v46.225C222.512,213.102,220.498,215.117,218.012,215.117z" style="fill:#221F20;"/></g><g><path d="M240.908,191.796h-46.223c-2.485,0-4.5-2.015-4.5-4.5s2.015-4.5,4.5-4.5h46.223     c2.485,0,4.5,2.015,4.5,4.5S243.394,191.796,240.908,191.796z" style="fill:#221F20;"/></g><g><path d="M333.349,419.447c-2.485,0-4.5-2.015-4.5-4.5v-46.225c0-2.485,2.015-4.5,4.5-4.5     s4.5,2.015,4.5,4.5v46.225C337.849,417.433,335.834,419.447,333.349,419.447z" style="fill:#221F20;"/></g><g><path d="M356.684,396.112h-46.225c-2.485,0-4.5-2.015-4.5-4.5s2.015-4.5,4.5-4.5h46.225     c2.485,0,4.5,2.015,4.5,4.5S359.169,396.112,356.684,396.112z" style="fill:#221F20;"/></g></g></g><g id="Layer_1"/></svg>