<?xml version="1.0" ?><!DOCTYPE svg  PUBLIC '-//W3C//DTD SVG 1.1//EN'  'http://www.w3.org/Graphics/SVG/1.1/DTD/svg11.dtd'><svg height="512px" style="enable-background:new 0 0 512 512;" version="1.1" viewBox="0 0 512 512" width="512px" xml:space="preserve" xmlns="http://www.w3.org/2000/svg" xmlns:xlink="http://www.w3.org/1999/xlink"><g id="giftbox__x2C__gift__x2C__christmas_giftbox__x2C__christmas_gifts__x2C_"><g><g><path d="M273.687,440.588H30.306c-2.485,0-4.5-2.015-4.5-4.5V190.761c0-2.485,2.015-4.5,4.5-4.5h243.381     c2.485,0,4.5,2.015,4.5,4.5v245.327C278.187,438.573,276.172,440.588,273.687,440.588z M34.806,431.588h234.381V195.261H34.806     V431.588z" style="fill:#221F20;"/></g><g><path d="M287.751,195.261H16.242c-2.485,0-4.5-2.015-4.5-4.5v-49.449c0-2.485,2.015-4.5,4.5-4.5h271.509     c2.485,0,4.5,2.015,4.5,4.5v49.449C292.251,193.247,290.236,195.261,287.751,195.261z M20.742,186.261h262.509v-40.449H20.742     V186.261z" style="fill:#221F20;"/></g><g><path d="M128.52,144.662c-9.661,0-20.696-6.742-29.519-18.034c-14.239-17.53-18.392-38.748-9.606-49.289     c0.027-0.032,0.054-0.064,0.083-0.096c3.104-3.519,7.39-5.378,12.392-5.378c9.487,0,20.653,6.774,29.869,18.121     c14.138,16.864,18.462,38.812,9.619,48.918C138.194,142.671,133.757,144.662,128.52,144.662z M96.267,83.15     c-5.098,6.22-2.398,22.884,9.773,37.87c6.971,8.92,15.774,14.642,22.48,14.642c2.573,0,4.524-0.84,5.963-2.567     c0.027-0.033,0.055-0.065,0.083-0.097c5.201-5.894,2.128-23.091-9.77-37.284c-8.904-10.962-17.674-14.849-22.927-14.849     C99.481,80.865,97.648,81.612,96.267,83.15z" style="fill:#221F20;"/></g><g><path d="M154.151,144.662c-0.001,0-0.001,0-0.002,0c-5.236-0.001-9.672-1.991-12.835-5.757     c-8.849-10.112-4.523-32.061,9.664-48.974c9.17-11.292,20.336-18.066,29.824-18.066c5.002,0,9.288,1.859,12.393,5.378     c0.029,0.032,0.057,0.065,0.084,0.099c8.779,10.545,4.625,31.763-9.662,49.353C174.841,137.92,163.806,144.662,154.151,144.662z      M180.802,80.865c-5.253,0-14.023,3.887-22.883,14.795c-11.947,14.243-15.019,31.44-9.814,37.338     c0.028,0.032,0.056,0.064,0.083,0.096c1.44,1.728,3.39,2.567,5.963,2.568c6.701,0,15.505-5.721,22.429-14.577     c12.219-15.045,14.918-31.709,9.824-37.936C185.023,81.612,183.19,80.865,180.802,80.865z" style="fill:#221F20;"/></g><g><path d="M496.239,271.87H291.142c-2.485,0-4.5-2.015-4.5-4.5v-30.55c0-2.485,2.015-4.5,4.5-4.5h205.098     c2.485,0,4.5,2.015,4.5,4.5v30.55C500.739,269.855,498.725,271.87,496.239,271.87z M295.642,262.87h196.098v-21.55H295.642     V262.87z" style="fill:#221F20;"/></g><g><path d="M486.05,423.618H301.814c-2.485,0-4.5-2.015-4.5-4.5V267.37c0-2.485,2.015-4.5,4.5-4.5H486.05     c2.485,0,4.5,2.015,4.5,4.5v151.748C490.55,421.604,488.535,423.618,486.05,423.618z M306.314,414.618H481.55V271.87H306.314     V414.618z" style="fill:#221F20;"/></g><g><path d="M376.308,240.461c-7.359,0-15.916-4.158-22.888-11.122c-7.04-7.047-11.237-15.682-11.229-23.102     c0.005-4.233,1.377-7.836,3.969-10.419c2.5-2.505,5.945-3.833,9.953-3.833c7.187,0,15.809,4.335,23.064,11.597     c0.026,0.026,0.052,0.053,0.077,0.08c11.336,11.92,14.366,25.776,7.206,32.948C383.93,239.132,380.421,240.461,376.308,240.461z      M356.112,200.985c-1.589,0-2.798,0.403-3.592,1.199c-1.098,1.095-1.328,2.813-1.33,4.063c-0.004,3.925,2.252,10.38,8.594,16.728     c5.159,5.154,11.646,8.486,16.523,8.486c1.172,0,2.78-0.211,3.791-1.218c2.901-2.906,0.608-11.972-7.328-20.339     C366.186,203.329,359.85,200.985,356.112,200.985z" style="fill:#221F20;"/></g><g><path d="M395.463,240.461c-0.001,0-0.001,0-0.002,0c-4.012,0-7.457-1.308-9.97-3.781     c-2.685-2.5-4.148-5.956-4.235-9.999c-0.154-7.134,4.104-15.751,11.392-23.061c6.946-7.288,15.545-11.636,23.012-11.636     c4.071,0,7.552,1.326,10.065,3.835c7.188,7.188,4.091,21.561-7.201,33.436c-0.052,0.055-0.105,0.108-0.16,0.161     C411.09,236.332,402.528,240.461,395.463,240.461z M415.659,200.985c-4.911,0-11.398,3.485-16.528,8.879     c-0.025,0.027-0.051,0.053-0.077,0.08c-5.529,5.533-8.901,11.873-8.8,16.545c0.034,1.611,0.49,2.797,1.394,3.626     c0.048,0.043,0.094,0.087,0.139,0.133c0.806,0.805,2.042,1.213,3.676,1.213h0.001c4.719,0,11.078-3.25,16.616-8.489     c7.814-8.263,10.294-17.776,7.284-20.786C418.565,201.39,417.318,200.985,415.659,200.985z" style="fill:#221F20;"/></g><g><path d="M342.537,422.165c-2.485,0-4.5-2.015-4.5-4.5V269.308c0-2.485,2.015-4.5,4.5-4.5     s4.5,2.015,4.5,4.5v148.357C347.037,420.15,345.022,422.165,342.537,422.165z" style="fill:#221F20;"/></g><g><path d="M439.031,422.165c-2.485,0-4.5-2.015-4.5-4.5V269.308c0-2.485,2.015-4.5,4.5-4.5     s4.5,2.015,4.5,4.5v148.357C443.531,420.15,441.517,422.165,439.031,422.165z" style="fill:#221F20;"/></g><g><path d="M273.687,367.379H30.306c-2.485,0-4.5-2.015-4.5-4.5s2.015-4.5,4.5-4.5h243.381     c2.485,0,4.5,2.015,4.5,4.5S276.172,367.379,273.687,367.379z" style="fill:#221F20;"/></g><g><path d="M273.687,268.955H30.306c-2.485,0-4.5-2.015-4.5-4.5s2.015-4.5,4.5-4.5h243.381     c2.485,0,4.5,2.015,4.5,4.5S276.172,268.955,273.687,268.955z" style="fill:#221F20;"/></g></g></g><g id="Layer_1"/></svg>