<?xml version="1.0" ?><svg style="enable-background:new 0 0 96 96;" version="1.1" viewBox="0 0 96 96" xml:space="preserve" xmlns="http://www.w3.org/2000/svg" xmlns:xlink="http://www.w3.org/1999/xlink"><style type="text/css">
	.st0{display:none;}
	.st1{fill:#FFFFFF;}
	.st2{fill:none;stroke:#000000;stroke-width:2;stroke-linecap:round;stroke-linejoin:round;stroke-miterlimit:10;}
	.st3{fill:#FFF8FA;}
	.st4{stroke:#000000;stroke-width:2;stroke-miterlimit:10;}
	.st5{fill:none;stroke:#000000;stroke-miterlimit:10;}
	.st6{fill:none;stroke:#000000;stroke-width:2;stroke-linecap:round;stroke-miterlimit:10;}
	.st7{fill:#231F20;stroke:#000000;stroke-width:0;stroke-miterlimit:10;}
	.st8{fill:#FF0D5C;}
	.st9{display:inline;}
	.st10{fill:none;stroke:#00D8E9;stroke-width:0.25;stroke-linecap:round;stroke-linejoin:round;stroke-miterlimit:10;}
	.st11{fill:none;stroke:#00D8E9;stroke-width:0.25;stroke-linejoin:round;stroke-miterlimit:10;}
	.st12{fill:none;stroke:#00D8E9;stroke-linecap:round;stroke-linejoin:round;stroke-miterlimit:10;}
	.st13{fill:none;stroke:#00D8E9;stroke-linejoin:round;stroke-miterlimit:10;}
</style><g id="banana"/><g id="Layer_12"/><g id="grape"/><g id="assasin"/><g id="gold"/><g id="mage_ass"/><g id="fighter"/><g id="SUPPORT"/><g id="marksman"/><g id="JUNGLE"/><g id="TANK"/><g class="st0" id="creditcard"/><g class="st0" id="CAKE"/><g class="st0" id="TOPI"/><g class="st0" id="SPATU"/><g class="st0" id="SETTING"/><g class="st0" id="CART"/><g class="st0" id="k3"/><g class="st0" id="computer"/><g class="st0" id="phone"/><g class="st0" id="location"/><g id="koper"><g id="Layer_29"/><path d="M59.5,62.6c0,0.6,0.4,1,1,1h12.1c-0.2,0.7-0.5,1.4-0.9,1.9c-0.6,0.7-1.4,1.1-2.2,1.1H21.6c-1.5,0-2.8-1.3-3.2-3h12.1   c0.6,0,1-0.4,1-1v-3.7c3.3,1.8,7,2.7,10.8,2.7h6.4c3.5,0,6.8-0.8,9.9-2.3c0.3-0.2,0.6-0.3,0.9-0.5V62.6z M69.5,30v8.7   c0,3.3-0.7,6.4-2.2,9.2c-2,4.1-5.5,7.5-9.6,9.5c-2.8,1.4-5.9,2.1-9,2.1h-6.4c-3.9,0-7.7-1.1-11.1-3.2c-6.1-3.8-9.7-10.4-9.7-17.6   v-13c0-0.1,0.1-0.2,0.2-0.2H69c0.3,0,0.5,0.2,0.5,0.5v2.3 M78.7,37.3c-0.7,4.3-2.3,7.3-4.7,8.9c-1.6,1.1-3.3,1.4-4.3,1.4   c1.2-2.8,1.8-5.7,1.8-8.8v-8.9c1.6-0.3,4.4-0.5,6.1,1.1C78.9,32.2,79.2,34.3,78.7,37.3z"/></g><g class="st0" id="guide"/><g id="MAGICAL"/><g id="phisical"/><g id="mango"/><g id="orange"/></svg>