<?xml version="1.0" ?><svg id="Layer_1" style="enable-background:new 0 0 242.9 242.9;" version="1.1" viewBox="0 0 242.9 242.9" xml:space="preserve" xmlns="http://www.w3.org/2000/svg" xmlns:xlink="http://www.w3.org/1999/xlink"><style type="text/css">
	.st0{fill:#69CCED;}
</style><path class="st0" d="M105.4,106.4c0,7.3-4.1,13.1-11.2,13.1h-2.9v-25c0.9-0.4,2.5-0.5,3.9-0.5C102.6,94.3,105.4,99.4,105.4,106.4z   M241.8,42.5v159c0,23.2-18.8,42-42,42h-159c-23.2,0-42-18.8-42-42v-159c0-23.2,18.8-42,42-42h159C223,0.5,241.8,19.3,241.8,42.5z   M124.5,165.5c-1.5-3.1-3.7-13.4-5.3-22.8c-1.6-9-4.5-14.3-10.2-16.5V126c8.6-4,12.9-12.1,12.9-21c0-7.2-1.5-12.8-6.6-17.4  c-5.5-5-13.4-6.2-22.4-6.2c-6.2,0-12.7,0.6-17.8,1.6v82.6h16.3v-33.5h2.4c5.5,0,8.1,3,9.6,13.4c1.2,9.2,3.1,17.7,4.1,20H124.5z   M165.5,79.8c-2.4-0.7-5.6-1.4-9.8-1.4c-5.7,0-10.9,1.9-14.5,5.6c-4.8,5-6.2,11.3-6.2,18.2v2.5h-8.2v11.6h8.2v49.2h16.3v-49.2h10.6  v-11.6h-10.6v-2.9c0-5.3,2-10.1,7.5-10.1c2,0,3.7,0.2,5,0.7L165.5,79.8z"/></svg>