<?xml version="1.0" ?><svg id="Layer_1" style="enable-background:new 0 0 242.9 242.9;" version="1.1" viewBox="0 0 242.9 242.9" xml:space="preserve" xmlns="http://www.w3.org/2000/svg" xmlns:xlink="http://www.w3.org/1999/xlink"><style type="text/css">
	.st0{fill:#5DBC73;}
</style><path class="st0" d="M156.6,121.5c0,10.2-2.1,19.2-8.2,19.2c-2,0-4.2-1.1-5.6-5c-0.7-1.3-0.9-3.3-0.9-5.6v-17.3  c0-1.6,0.1-3.3,0.8-4.6c0.7-3,3.2-5.6,5.8-5.6C153.7,102.5,156.6,109.2,156.6,121.5z M242.9,42v159c0,23.2-18.8,42-42,42H42  c-23.2,0-42-18.8-42-42V42C0,18.8,18.8,0,42,0h159C224.1,0,242.9,18.8,242.9,42z M87.3,109.6C87.3,87.5,96.2,79,106,79  c3.8,0,6.1,0.8,8.1,1.7l2.9-14.5c-1.7-1.2-5.9-2.4-12-2.4c-17.3,0-36,13.1-36,46.7c0,25.3,10.8,44,33.6,44c6.1,0,11-0.9,13.5-2.1  l-1.7-14.5c-2.1,0.7-5.4,1.3-8.3,1.3C95.4,139.2,87.3,130.8,87.3,109.6z M173.9,121.3c0-18-5.8-33.3-20.1-33.3  c-5.9,0-10.8,3.2-13.5,8.5h-0.3l-0.9-7.4h-15.1c0.3,6.1,0.5,12.7,0.5,20.5v69.5h17.3v-30.7h0.3c1.9,3,5.4,6.3,10.7,6.3  C163.8,154.8,173.9,144.3,173.9,121.3z"/></svg>