<?xml version="1.0" ?><svg id="Layer_1" style="enable-background:new 0 0 242.9 242.9;" version="1.1" viewBox="0 0 242.9 242.9" xml:space="preserve" xmlns="http://www.w3.org/2000/svg" xmlns:xlink="http://www.w3.org/1999/xlink"><style type="text/css">
	.st0{fill:#EF4529;}
</style><path class="st0" d="M96.6,113.3l2.9,18.6H86.8l3.3-18.5c0.9-5.2,2.2-14.4,3.2-20.4h0.4C94.5,99,95.7,107.9,96.6,113.3z M242.8,41.8  v159c0,23.2-18.8,42-42,42h-159c-23.2,0-42-18.8-42-42v-159c0-23.2,18.8-42,42-42h159C224-0.2,242.8,18.6,242.8,41.8z M121.7,165.8  l-17.3-89.1H83.6l-19.3,89.1h16.8l4-20.4h16l3.8,20.4H121.7z M178.3,124.3c0-14.4-4.9-24.2-17.2-24.2c-6.7,0-12.3,3.3-15.7,8.5h-0.3  l-0.8-7.4h-14.9c0.1,6.1,0.5,12.3,0.5,19.4v45.2h17.3v-39.4c0-2.5,0.4-4.6,0.9-5.9c1.2-3.8,3.6-5.8,6.5-5.8c5,0,6.3,5.2,6.3,10.7  v40.5h17.3V124.3z"/></svg>