<?xml version="1.0" ?><svg enable-background="new 0 0 515.91 728.5" height="512" id="Layer_1" version="1.1" viewBox="0 0 512.00003 512" width="512" xml:space="preserve" xmlns="http://www.w3.org/2000/svg" xmlns:cc="http://creativecommons.org/ns#" xmlns:dc="http://purl.org/dc/elements/1.1/" xmlns:inkscape="http://www.inkscape.org/namespaces/inkscape" xmlns:rdf="http://www.w3.org/1999/02/22-rdf-syntax-ns#" xmlns:sodipodi="http://sodipodi.sourceforge.net/DTD/sodipodi-0.dtd" xmlns:svg="http://www.w3.org/2000/svg" xmlns:xlink="http://www.w3.org/1999/xlink"><defs id="defs7"><filter color-interpolation-filters="sRGB" id="filter3442"><feGaussianBlur id="feGaussianBlur3444" stdDeviation="2.3432203"/></filter><linearGradient gradientTransform="translate(-322.85714,-811.42857)" gradientUnits="userSpaceOnUse" id="linearGradient3380" x1="447.5928" x2="413.88904" xlink:href="#linearGradient3374" y1="883.36084" y2="910.63495"/><linearGradient id="linearGradient3374"><stop id="stop3376" offset="0" style="stop-color:#ffffff;stop-opacity:0.43727598"/><stop id="stop3378" offset="1" style="stop-color:#ffffff;stop-opacity:0"/></linearGradient><filter color-interpolation-filters="sRGB" id="filter3478"><feGaussianBlur id="feGaussianBlur3480" stdDeviation="3.4723602"/></filter><linearGradient gradientTransform="translate(-322.85714,-811.42857)" gradientUnits="userSpaceOnUse" id="linearGradient3025" x1="447.5928" x2="413.88904" xlink:href="#linearGradient3374" y1="883.36084" y2="910.63495"/></defs><g id="g6892" transform="translate(1.5e-5,0)"><path d="M 0,0 0,512 512,512 512,0 0,0 z" id="path5060" style="fill:#75d121;fill-opacity:1;fill-rule:nonzero;stroke:none"/><path d="m 237.31655,56.001523 c -19.0353,0.16129 -39.10307,13.02881 -51.69568,38.56786 -18.1254,-4.18793 -34.06377,-2.48813 -46.34731,3.27803 -39.04787,18.329837 -40.923802,77.739907 42.95948,119.310987 -38.52258,-8.90855 -67.2579,-5.80573 -86.248342,3.77993 -40.368035,20.37629 -36.728489,69.67162 10.759482,93.08678 -16.096852,69.6672 54.8963,107.3129 108.91225,27.1026 -11.66867,32.6385 -14.66979,71.3753 -10.96337,114.8723 l 7.68534,-0.6588 c -3.97042,-46.5952 -0.004,-87.0615 13.75519,-119.8599 -14.44977,103.759 67.91966,122.298 100.44269,56.3382 75.54745,17.4555 113.42682,-67.4907 4.20342,-122.16553 119.53799,27.10218 144.08186,-62.84857 74.45369,-97.18035 C 422.70785,96.843873 337.54778,58.967383 282.87964,168.63096 299.85227,93.196993 270.12206,55.723543 237.31655,56.001523 z" id="path3326" style="fill:#ffffff;fill-opacity:1;fill-rule:evenodd;stroke:none"/></g></svg>