<?xml version="1.0" ?><svg enable-background="new 0 0 515.91 728.5" height="512" id="Layer_1" version="1.1" viewBox="0 0 512.00003 512" width="512" xml:space="preserve" xmlns="http://www.w3.org/2000/svg" xmlns:cc="http://creativecommons.org/ns#" xmlns:dc="http://purl.org/dc/elements/1.1/" xmlns:inkscape="http://www.inkscape.org/namespaces/inkscape" xmlns:rdf="http://www.w3.org/1999/02/22-rdf-syntax-ns#" xmlns:sodipodi="http://sodipodi.sourceforge.net/DTD/sodipodi-0.dtd" xmlns:svg="http://www.w3.org/2000/svg"><defs id="defs7"/><g id="g7272" transform="translate(-959.85869,-191.85399)"><rect height="512" id="rect7053" style="fill:#46af52;fill-opacity:1;fill-rule:nonzero;stroke:none" width="512" x="959.8587" y="191.85399"/><path d="m 1215.8586,247.85395 c -110.4099,0 -199.9999,89.59001 -199.9999,200.00002 0,110.41001 89.59,200.00001 199.9999,200.00001 110.4101,0 200.0002,-89.59 200.0002,-200.00001 0,-110.41001 -89.5901,-200.00002 -200.0002,-200.00002 z m 0,7.8984 c 106.1387,0 192.0744,85.96301 192.0744,192.10162 0,72.1957 -39.7661,135.03951 -98.6062,167.86011 1.8907,-26.3176 3.4352,-55.4909 5.2473,-81.3337 21.7271,-21.08791 38.7154,-38.68581 60.809,-59.87971 7.0735,-7.6559 5.5198,-18.317 -0.8472,-24.7336 -5.0703,-4.832 -10.5437,-8.1848 -16.2886,-8.0077 -3.4472,0.1062 -6.9799,1.5025 -10.604,4.5642 -22.4456,22.2633 -45.9999,45.8127 -66.7122,66.2203 -2.7575,2.6978 -4.5007,6.4059 -4.8375,10.2486 -2.8318,33.16191 -4.6457,72.88121 -7.2151,105.13791 -0.1231,1.5226 -0.021,3.0514 0.3008,4.5369 -8.8894,2.5619 -18.0425,4.4764 -27.4119,5.7392 0.3344,-1.6277 0.463,-3.2763 0.3279,-4.9467 -2.5933,-32.5578 -0.9679,-87.3516 -2.5963,-126.75591 0.075,-1.3861 0.1258,-2.7824 0.2186,-4.0722 25.4532,-24.7043 57.0361,-60.7412 82.9188,-85.5698 8.287,-8.9691 7.5573,-22.6252 -1.3664,-31.2379 -5.4874,-5.2965 -10.8933,-8.3629 -16.6986,-8.2538 -4.5154,0.086 -9.2809,2.1 -14.4575,6.4773 -25.6665,24.691 -50.358,52.1789 -73.572,76.4143 -23.2199,-24.2405 -47.9524,-51.7159 -73.6266,-76.4143 -5.1767,-4.3773 -9.7666,-6.2226 -14.1843,-6.2039 -5.6798,0.023 -12.2133,3.5056 -16.9718,7.9804 -8.1725,6.7342 -9.6262,22.269 -1.3391,31.2379 25.8828,24.8286 57.4655,60.8655 82.9187,85.5698 0.094,1.3034 0.1701,2.7255 0.2461,4.1269 -1.6253,39.40121 -0.032,94.15481 -2.6237,126.70121 -0.141,1.7429 -0.01,3.4726 0.3553,5.1654 -9.85,-1.2539 -19.4539,-3.272 -28.7784,-5.9579 0.3312,-1.4846 0.4514,-3.012 0.3279,-4.5369 -2.5694,-32.2567 -4.4105,-71.976 -7.2424,-105.13791 -0.3367,-3.8427 -2.0799,-7.5508 -4.8373,-10.2486 -20.7124,-20.4076 -44.2393,-43.957 -66.685,-66.2203 -3.624,-3.0617 -7.1844,-4.4578 -10.6312,-4.5642 -0.3594,-0.013 -0.7091,-0.017 -1.0659,0 -5.3525,0.2381 -10.4692,3.4775 -15.2227,8.0077 -6.3671,6.4166 -7.9208,17.0777 -0.8472,24.7336 22.0935,21.1936 39.109,38.7918 60.8362,59.87971 1.8129,25.8523 3.3557,55.0361 5.2474,81.361 -58.8633,-32.814 -98.6609,-95.67451 -98.6609,-167.88741 0,-106.13861 85.9631,-192.10162 192.1016,-192.10162 z m 0,81.25161 c -18.1931,0 -32.9324,14.7402 -32.9324,32.93251 0,18.1926 14.7393,32.9326 32.9324,32.9326 18.1934,0 32.9599,-14.7401 32.9599,-32.9326 0,-18.19241 -14.7667,-32.93251 -32.9599,-32.93251 z" id="path10543" style="font-size:medium;font-style:normal;font-variant:normal;font-weight:normal;font-stretch:normal;text-indent:0;text-align:start;text-decoration:none;line-height:normal;letter-spacing:normal;word-spacing:normal;text-transform:none;direction:ltr;block-progression:tb;writing-mode:lr-tb;text-anchor:start;baseline-shift:baseline;color:#000000;fill:#ffffff;fill-opacity:1;fill-rule:nonzero;stroke:none;stroke-width:24.00000191;marker:none;visibility:visible;display:inline;overflow:visible;enable-background:accumulate;font-family:Sans;-inkscape-font-specification:Sans"/></g></svg>