<?xml version="1.0" ?><svg data-name="Layer 1" id="Layer_1" viewBox="0 0 100 100" xmlns="http://www.w3.org/2000/svg"><defs><style>.cls-1{fill:#1a1818;}</style></defs><title/><path class="cls-1" d="M50.24,69.75a5.5,5.5,0,0,1-5.5-5.5V56.49a5.5,5.5,0,0,1,11,0v7.76A5.5,5.5,0,0,1,50.24,69.75Z"/><path class="cls-1" d="M50.24,9.65A40.35,40.35,0,0,0,24.42,81a38.8,38.8,0,0,0,3.2,2.41V70.23a30.36,30.36,0,1,1,45.24,0V83.4A40.34,40.34,0,0,0,50.24,9.65ZM39.55,78.41V88.92a40.6,40.6,0,0,0,21,.11V78.57a30.44,30.44,0,0,1-21-.16Z"/><path class="cls-1" d="M46.71,42.47a26.37,26.37,0,0,0-5.41-1.53c-.61-.09-1.19-.16-1.75-.21a21.53,21.53,0,0,0-2.39-.1A27.87,27.87,0,0,0,33,41a27.16,27.16,0,0,0-5.41,1.54,1.62,1.62,0,0,1,0-.22v-.94A6.56,6.56,0,0,1,28,39.71a8.36,8.36,0,0,1,2.38-3.54,10.44,10.44,0,0,1,13.63,0A7.59,7.59,0,0,1,46.71,42.47Z"/><path class="cls-1" d="M72.86,41.28v1.25A26.12,26.12,0,0,0,67.44,41a25.57,25.57,0,0,0-4.14-.33,27,27,0,0,0-2.8.16L59.15,41a26.34,26.34,0,0,0-5.42,1.56,7.62,7.62,0,0,1,2.73-6.36,10.45,10.45,0,0,1,13.67,0,8.38,8.38,0,0,1,2.39,3.53A6.58,6.58,0,0,1,72.86,41.28Z"/><path class="cls-1" d="M72.86,42.53V41.28A6.53,6.53,0,0,1,72.86,42.53Z"/></svg>