<?xml version="1.0" ?><svg height="64" viewBox="0 0 64 64" width="64" xmlns="http://www.w3.org/2000/svg"><defs><style>.cls-1{fill:none;stroke:#000;stroke-linejoin:round;stroke-width:2px;}</style></defs><title/><g data-name="17-Audio" id="_17-Audio"><rect class="cls-1" height="40" rx="9" ry="9" width="30" x="17" y="1"/><rect class="cls-1" height="14" width="4" x="30" y="45"/><polygon class="cls-1" points="40 63 24 63 25 59 39 59 40 63"/><line class="cls-1" x1="20" x2="44" y1="63" y2="63"/><rect class="cls-1" height="4" width="10" x="27" y="41"/><line class="cls-1" x1="32" x2="32" y1="1" y2="18"/><line class="cls-1" x1="37" x2="37" y1="1" y2="7"/><line class="cls-1" x1="27" x2="27" y1="1" y2="7"/><line class="cls-1" x1="32" x2="32" y1="41" y2="24"/><line class="cls-1" x1="27" x2="27" y1="41" y2="35"/><line class="cls-1" x1="37" x2="37" y1="41" y2="35"/><line class="cls-1" x1="17" x2="27" y1="21" y2="21"/><line class="cls-1" x1="17" x2="25" y1="11" y2="11"/><line class="cls-1" x1="17" x2="25" y1="31" y2="31"/><line class="cls-1" x1="17" x2="23" y1="16" y2="16"/><line class="cls-1" x1="17" x2="23" y1="26" y2="26"/><line class="cls-1" x1="47" x2="37" y1="21" y2="21"/><line class="cls-1" x1="47" x2="39" y1="31" y2="31"/><line class="cls-1" x1="47" x2="39" y1="11" y2="11"/><line class="cls-1" x1="47" x2="41" y1="26" y2="26"/><line class="cls-1" x1="47" x2="41" y1="16" y2="16"/><line class="cls-1" x1="32" x2="32" y1="20" y2="22"/></g></svg>