<?xml version="1.0" ?><svg height="64" viewBox="0 0 64 64" width="64" xmlns="http://www.w3.org/2000/svg"><defs><style>.cls-1{fill:none;stroke:#000;stroke-linejoin:round;stroke-width:2px;}</style></defs><title/><g data-name="16-Projector" id="_16-Projector"><path class="cls-1" d="M45,41H61a2,2,0,0,0,2-2V21a2,2,0,0,0-2-2H45"/><path class="cls-1" d="M19,19H3a2,2,0,0,0-2,2V39a2,2,0,0,0,2,2H19"/><circle class="cls-1" cx="32" cy="30" r="17"/><circle class="cls-1" cx="32" cy="30" r="13"/><path class="cls-1" d="M24,30a8,8,0,0,1,8-8"/><path class="cls-1" d="M40,30a8,8,0,0,1-8,8"/><polyline class="cls-1" points="5 41 4.993 47.997 7.997 51 13 51 13 41"/><polyline class="cls-1" points="59 41 59.007 47.997 56.003 51 51 51 51 41"/><line class="cls-1" x1="2" x2="16" y1="44" y2="44"/><line class="cls-1" x1="48" x2="62" y1="44" y2="44"/><line class="cls-1" x1="59" x2="57" y1="24" y2="24"/><line class="cls-1" x1="55" x2="53" y1="24" y2="24"/><line class="cls-1" x1="59" x2="53" y1="28" y2="28"/><rect class="cls-1" height="5" width="4" x="54" y="32"/><line class="cls-1" x1="7" x2="1" y1="24" y2="24"/><line class="cls-1" x1="11" x2="1" y1="28" y2="28"/><line class="cls-1" x1="7" x2="1" y1="32" y2="32"/><line class="cls-1" x1="11" x2="1" y1="36" y2="36"/></g></svg>