<?xml version="1.0" ?><svg height="64" viewBox="0 0 64 64" width="64" xmlns="http://www.w3.org/2000/svg"><defs><style>.cls-1{fill:none;stroke:#000;stroke-linejoin:round;stroke-width:2px;}</style></defs><title/><g data-name="2-Computer" id="_2-Computer"><path class="cls-1" d="M61,3a2,2,0,0,1,2,2V49H1V5A2,2,0,0,1,3,3Z"/><line class="cls-1" x1="1" x2="63" y1="38" y2="38"/><polyline class="cls-1" points="39 49 41 59 23 59 25 49"/><polyline class="cls-1" points="20 63 20 59 44 59 44 63"/><polyline class="cls-1" points="6 38 6 8 58 8 58 38"/><line class="cls-1" x1="17" x2="47" y1="63" y2="63"/><circle class="cls-1" cx="32" cy="43" r="2"/><polyline class="cls-1" points="14 12 10 12 10 16"/></g></svg>