<?xml version="1.0" ?><svg height="64" viewBox="0 0 64 64" width="64" xmlns="http://www.w3.org/2000/svg"><defs><style>.cls-1{fill:none;stroke:#000;stroke-linejoin:round;stroke-width:2px;}</style></defs><title/><g data-name="21-Game" id="_21-Game"><path class="cls-1" d="M49,34H15A14,14,0,1,0,27.635,54h8.73A13.995,13.995,0,1,0,49,34Z"/><polyline class="cls-1" points="28 34 28 30 36 30 36 34"/><circle class="cls-1" cx="49" cy="48" r="10"/><circle class="cls-1" cx="15" cy="48" r="10"/><polygon class="cls-1" points="20 46 17 46 17 43 13 43 13 46 10 46 10 50 13 50 13 53 17 53 17 50 20 50 20 46"/><circle class="cls-1" cx="49" cy="48" r="3"/><line class="cls-1" x1="27" x2="37" y1="38" y2="38"/><line class="cls-1" x1="29" x2="31" y1="42" y2="42"/><line class="cls-1" x1="33" x2="35" y1="42" y2="42"/><rect class="cls-1" height="4" width="6" x="29" y="46"/><polyline class="cls-1" points="19 15 21 15 21 5 24 5 24 22 27 22 27 10 30 10 30 18 33 18 33 2 36 2 36 20 39 20 39 9 42 9 42 15 45 15"/><line class="cls-1" x1="15" x2="17" y1="15" y2="15"/><line class="cls-1" x1="47" x2="49" y1="15" y2="15"/><line class="cls-1" x1="32" x2="32" y1="22" y2="30"/><line class="cls-1" x1="46" x2="39" y1="48" y2="48"/><line class="cls-1" x1="59" x2="52" y1="48" y2="48"/><line class="cls-1" x1="49" x2="49" y1="45" y2="38"/><line class="cls-1" x1="49" x2="49" y1="51" y2="58"/></g></svg>