<?xml version="1.0" ?><!DOCTYPE svg  PUBLIC '-//W3C//DTD SVG 1.1//EN'  'http://www.w3.org/Graphics/SVG/1.1/DTD/svg11.dtd'><svg height="512px" style="enable-background:new 0 0 512 512;" version="1.1" viewBox="0 0 512 512" width="512px" xml:space="preserve" xmlns="http://www.w3.org/2000/svg" xmlns:xlink="http://www.w3.org/1999/xlink"><g id="block__x2C__deadlock__x2C__firewall_x2C__stop"><g><linearGradient gradientUnits="userSpaceOnUse" id="SVGID_1_" x1="256.0029" x2="437.3574" y1="256" y2="256"><stop offset="0" style="stop-color:#CF1504"/><stop offset="1" style="stop-color:#750000"/></linearGradient><path d="M256.003,496    c30.844-9.402,57.513-24.769,80.191-42.614c65.188-51.146,101.163-131.054,101.163-213.896V80.819    c-115.399,0-171.676-54.467-181.354-64.819V496z" style="fill-rule:evenodd;clip-rule:evenodd;fill:url(#SVGID_1_);"/><linearGradient gradientUnits="userSpaceOnUse" id="SVGID_2_" x1="74.6426" x2="256.0029" y1="256" y2="256"><stop offset="0" style="stop-color:#CF1504"/><stop offset="1" style="stop-color:#750000"/></linearGradient><path d="M256.003,496    c-30.937-9.402-57.604-24.769-80.291-42.614C110.617,402.239,74.643,322.332,74.643,239.49V80.819    c115.304,0,171.683-54.467,181.36-64.819V496z" style="fill-rule:evenodd;clip-rule:evenodd;fill:url(#SVGID_2_);"/><polygon points="191.942,143.544 154.081,181.405 218.046,245.466     154.081,309.516 191.942,347.389 256.003,283.328 320.058,347.389 357.907,309.516 293.871,245.466 357.907,181.405     320.058,143.544 256.003,207.604   " style="fill-rule:evenodd;clip-rule:evenodd;fill:#FFFFFF;"/></g></g><g id="Layer_1"/></svg>