<?xml version="1.0" ?><!DOCTYPE svg  PUBLIC '-//W3C//DTD SVG 1.1//EN'  'http://www.w3.org/Graphics/SVG/1.1/DTD/svg11.dtd'><svg height="512px" style="enable-background:new 0 0 512 512;" version="1.1" viewBox="0 0 512 512" width="512px" xml:space="preserve" xmlns="http://www.w3.org/2000/svg" xmlns:xlink="http://www.w3.org/1999/xlink"><g id="naviagation__x2C__location__x2C__map__x2C__point__x2C__location__x2C_"><g><path d="M160.463,289.578c-12.029-2.175-23.818-3.745-35.555-4.864    v21.826c11.736,0.281,23.525,1.494,35.555,3.199V289.578z" style="fill-rule:evenodd;clip-rule:evenodd;fill:#ED1B23;"/><path d="M214.996,299.954c-12.029-2.314-24.123-4.845-35.554-6.873    v19.8c11.432,1.722,23.525,3.655,35.554,5.753V299.954z" style="fill-rule:evenodd;clip-rule:evenodd;fill:#ED1B23;"/><path d="M377.605,292.8c-12.023,3.955-23.602,7.154-35.332,9.48    v18.299c11.578-1.945,23.309-4.863,35.332-8.818V292.8z" style="fill-rule:evenodd;clip-rule:evenodd;fill:#ED1B23;"/><path d="M323.594,305.327c-12.094,1.494-24.199,2.402-35.555,2.402    v17.771c11.355,0,23.461-0.527,35.555-2.021V305.327z" style="fill-rule:evenodd;clip-rule:evenodd;fill:#ED1B23;"/><path d="M432.203,267.757c-12.105,6.738-24.199,12.926-35.625,17.789    v19.271c11.426-4.336,23.52-10.014,35.625-16.582V267.757z" style="fill-rule:evenodd;clip-rule:evenodd;fill:#ED1B23;"/><path d="M486.215,252.827v-23.156    c-12.105,9.709-23.672,18.591-35.414,26.367v21.428C462.543,270.159,474.109,262.016,486.215,252.827L486.215,252.827z" style="fill-rule:evenodd;clip-rule:evenodd;fill:#ED1B23;"/><radialGradient cx="256.0068" cy="229.5996" gradientTransform="matrix(6.8138 0 0 6.8138 -1488.3801 -1283.6067)" gradientUnits="userSpaceOnUse" id="SVGID_1_" r="30.9485"><stop offset="0" style="stop-color:#000000"/><stop offset="1" style="stop-color:#3D4148"/></radialGradient><path d="M16,208.009    c47.889-48.105,96.739-38.689,155.959-28.904c0.229,0.369,0.381,0.674,0.609,1.043l73.189,126.674l64.313-112.113    c60.059-1.342,142.828-52.881,185.93-90.896v268.822c-222.375,182.556-363.398-5.227-480,85.23V208.009z" style="fill-rule:evenodd;clip-rule:evenodd;fill:url(#SVGID_1_);"/><path d="M124.908,284.714c11.736,1.119,23.525,2.689,35.555,4.864    v20.161c-12.029-1.705-23.818-2.918-35.555-3.199V284.714z" style="fill-rule:evenodd;clip-rule:evenodd;fill:#FFFFFF;"/><path d="M179.441,293.081c11.432,2.028,23.525,4.559,35.554,6.873    v18.68c-12.029-2.098-24.123-4.031-35.554-5.753V293.081z" style="fill-rule:evenodd;clip-rule:evenodd;fill:#FFFFFF;"/><path d="M288.039,307.729c11.355,0,23.461-0.908,35.555-2.402v18.152    c-12.094,1.494-24.199,2.021-35.555,2.021V307.729z" style="fill-rule:evenodd;clip-rule:evenodd;fill:#FFFFFF;"/><path d="M342.273,302.28c11.73-2.326,23.309-5.525,35.332-9.48v18.961    c-12.023,3.955-23.754,6.873-35.332,8.818V302.28z" style="fill-rule:evenodd;clip-rule:evenodd;fill:#FFFFFF;"/><path d="M396.578,285.546c11.426-4.863,23.52-11.051,35.625-17.789    v20.479c-12.105,6.568-24.199,12.246-35.625,16.582V285.546z" style="fill-rule:evenodd;clip-rule:evenodd;fill:#FFFFFF;"/><path d="M450.801,256.038c11.742-7.775,23.309-16.658,35.414-26.367    v23.156c-12.105,9.188-23.672,17.332-35.414,24.639V256.038z" style="fill-rule:evenodd;clip-rule:evenodd;fill:#FFFFFF;"/><path d="M51.936,318.939v-20.995    c-10.612,5.754-20.702,13.441-30.703,22.998V337.9C31.768,329.837,41.851,323.784,51.936,318.939L51.936,318.939z" style="fill-rule:evenodd;clip-rule:evenodd;fill:#ED1B23;"/><path d="M106.451,306.54v-22.336c-12.24,0.51-24.34,2.01-35.543,5.678    v22.184C82.633,308.544,94.211,306.821,106.451,306.54L106.451,306.54z" style="fill-rule:evenodd;clip-rule:evenodd;fill:#ED1B23;"/><path d="M21.232,320.942c10.001-9.557,20.091-17.244,30.703-22.998    v20.995c-10.084,4.845-20.168,10.897-30.703,18.961V320.942z" style="fill-rule:evenodd;clip-rule:evenodd;fill:#FFFFFF;"/><path d="M70.908,289.882c11.204-3.668,23.303-5.168,35.543-5.678    v22.336c-12.24,0.281-23.818,2.004-35.543,5.525V289.882z" style="fill-rule:evenodd;clip-rule:evenodd;fill:#FFFFFF;"/><path d="M234.566,300.786c11.42,2.004,23.525,4.541,35.625,6.943    v18.586c-12.1-2.004-24.205-4.031-35.625-5.736V300.786z" style="fill-rule:evenodd;clip-rule:evenodd;fill:#FFFFFF;"/><linearGradient gradientUnits="userSpaceOnUse" id="SVGID_2_" x1="161.3647" x2="330.0273" y1="180.4785" y2="180.4785"><stop offset="0" style="stop-color:#610000"/><stop offset="0.0242" style="stop-color:#790501"/><stop offset="0.0583" style="stop-color:#940A02"/><stop offset="0.0975" style="stop-color:#AA0E03"/><stop offset="0.1433" style="stop-color:#BB1103"/><stop offset="0.1999" style="stop-color:#C61304"/><stop offset="0.2794" style="stop-color:#CD1504"/><stop offset="0.5" style="stop-color:#CF1504"/><stop offset="0.7297" style="stop-color:#CD1504"/><stop offset="0.8124" style="stop-color:#C61304"/><stop offset="0.8714" style="stop-color:#BB1003"/><stop offset="0.9191" style="stop-color:#AA0C02"/><stop offset="0.9595" style="stop-color:#940701"/><stop offset="0.9951" style="stop-color:#790100"/><stop offset="1" style="stop-color:#750000"/></linearGradient><path d="M253.088,54.136h-14.707    c-43.107,3.662-77.016,39.586-77.016,83.889c0,14.93,4.032,29.572,11.204,42.123l73.189,126.674l71.789-125.18    c8.074-12.926,12.48-27.861,12.48-43.617C330.027,93.722,296.031,57.798,253.088,54.136L253.088,54.136z" style="fill-rule:evenodd;clip-rule:evenodd;fill:url(#SVGID_2_);"/><path d="M294.531,139.735c0-26.666-21.422-48.029-47.936-48.029    c-26.672,0-48.193,21.363-48.193,48.029s21.521,47.953,48.193,47.953C273.109,187.688,294.531,166.401,294.531,139.735    L294.531,139.735z" style="fill-rule:evenodd;clip-rule:evenodd;fill:#4FBA6F;"/><path d="M246.596,91.706c26.514,0,47.936,21.363,47.936,48.029    s-21.422,47.953-47.936,47.953c-26.672,0-48.193-21.287-48.193-47.953S219.924,91.706,246.596,91.706L246.596,91.706z" style="fill-rule:evenodd;clip-rule:evenodd;fill:#A6230E;"/><path d="M246.596,100.149c21.803,0,39.51,17.631,39.51,39.586    c0,21.967-17.707,39.51-39.51,39.51c-22.043,0-39.674-17.543-39.674-39.51C206.922,117.78,224.553,100.149,246.596,100.149    L246.596,100.149z" style="fill-rule:evenodd;clip-rule:evenodd;fill:#FEFEFE;"/></g></g><g id="Layer_1"/></svg>