<?xml version="1.0" ?><!DOCTYPE svg  PUBLIC '-//W3C//DTD SVG 1.1//EN'  'http://www.w3.org/Graphics/SVG/1.1/DTD/svg11.dtd'><svg height="512px" style="enable-background:new 0 0 512 512;" version="1.1" viewBox="0 0 512 512" width="512px" xml:space="preserve" xmlns="http://www.w3.org/2000/svg" xmlns:xlink="http://www.w3.org/1999/xlink"><g id="home__x2C__house__x2C__key__x2C_"><g><linearGradient gradientUnits="userSpaceOnUse" id="SVGID_1_" x1="16" x2="496" y1="235.8901" y2="235.8901"><stop offset="0" style="stop-color:#8A9AA9"/><stop offset="0.3214" style="stop-color:#C3D2DB"/><stop offset="0.699" style="stop-color:#C3D2DB"/><stop offset="1" style="stop-color:#8A9AA9"/></linearGradient><path d="M496,286.542h-59.915l0.769,149.545H75.916V286.542H16    L255.96,35.693C381.304,166.725,341.468,125.017,496,286.542L496,286.542z" style="fill-rule:evenodd;clip-rule:evenodd;fill:url(#SVGID_1_);"/><radialGradient cx="278.5576" cy="211.8096" gradientTransform="matrix(6.7855 0 0 6.7855 -1481.413 -1278.0966)" gradientUnits="userSpaceOnUse" id="SVGID_2_" r="7.255"><stop offset="0" style="stop-color:#000000"/><stop offset="1" style="stop-color:#3D4148"/></radialGradient><polygon points="382.241,94.754 435.228,94.754     435.228,223.518 382.241,168.205   " style="fill-rule:evenodd;clip-rule:evenodd;fill:url(#SVGID_2_);"/><radialGradient cx="256.0308" cy="255.5322" gradientTransform="matrix(6.7855 0 0 6.7855 -1481.413 -1278.0966)" gradientUnits="userSpaceOnUse" id="SVGID_3_" r="24.967"><stop offset="0" style="stop-color:#000000"/><stop offset="1" style="stop-color:#3D4148"/></radialGradient><polygon points="494.362,435.32 494.591,476.307     17.399,476.307 17.399,475.225 17.173,435.32   " style="fill-rule:evenodd;clip-rule:evenodd;fill:url(#SVGID_3_);"/><linearGradient gradientUnits="userSpaceOnUse" id="SVGID_4_" x1="16" x2="496" y1="161.1177" y2="161.1177"><stop offset="0" style="stop-color:#610000"/><stop offset="0.0242" style="stop-color:#790501"/><stop offset="0.0583" style="stop-color:#940A02"/><stop offset="0.0975" style="stop-color:#AA0E03"/><stop offset="0.1433" style="stop-color:#BB1103"/><stop offset="0.1999" style="stop-color:#C61304"/><stop offset="0.2794" style="stop-color:#CD1504"/><stop offset="0.5" style="stop-color:#CF1504"/><stop offset="0.7297" style="stop-color:#CD1504"/><stop offset="0.8124" style="stop-color:#C61304"/><stop offset="0.8714" style="stop-color:#BB1003"/><stop offset="0.9191" style="stop-color:#AA0C02"/><stop offset="0.9595" style="stop-color:#940701"/><stop offset="0.9951" style="stop-color:#790100"/><stop offset="1" style="stop-color:#750000"/></linearGradient><polygon points="255.96,35.693 16,286.542 75.916,286.542     256.502,100.195 436.085,286.542 496,286.542   " style="fill-rule:evenodd;clip-rule:evenodd;fill:url(#SVGID_4_);"/><linearGradient gradientUnits="userSpaceOnUse" id="SVGID_5_" x1="211.9941" x2="299.9248" y1="305.4482" y2="305.4482"><stop offset="0" style="stop-color:#5B5A5A"/><stop offset="0.15" style="stop-color:#2B2B2B"/><stop offset="0.2701" style="stop-color:#0C0C0C"/><stop offset="0.3367" style="stop-color:#000000"/><stop offset="0.7194" style="stop-color:#403E40"/><stop offset="1" style="stop-color:#999999"/></linearGradient><path d="M244.29,269.745v49.092    c-18.593,5.127-32.296,22.181-32.296,42.409c0,24.271,19.696,43.947,43.966,43.947c24.349,0,43.965-19.677,43.965-43.947    c0-20.229-13.622-37.282-32.213-42.409V213.48c0-4.12-3.114-7.54-7.236-7.777h-8.951c-4.12,0.237-7.234,3.657-7.234,7.777v7.474    h-22.793c-1.637,0-2.879,1.4-2.879,2.956v6.151c0,1.629,1.242,2.88,2.879,2.88h22.793v6.377h-16.729    c-1.706,0-2.879,1.401-2.879,3.036v5.984c0,1.715,1.173,3.037,2.879,3.037h16.729v6.376h-6.617c-1.626,0-3.026,1.402-3.026,2.957    v6.079c0,1.635,1.4,2.957,3.026,2.957H244.29z M229.975,361.246c0-14.393,11.672-25.985,25.985-25.985    c14.393,0,25.983,11.593,25.983,25.985c0,14.314-11.591,25.983-25.983,25.983C241.646,387.229,229.975,375.561,229.975,361.246    L229.975,361.246z" style="fill-rule:evenodd;clip-rule:evenodd;fill:url(#SVGID_5_);"/></g></g><g id="Layer_1"/></svg>