<?xml version="1.0" ?><!DOCTYPE svg  PUBLIC '-//W3C//DTD SVG 1.1//EN'  'http://www.w3.org/Graphics/SVG/1.1/DTD/svg11.dtd'><svg height="512px" style="enable-background:new 0 0 512 512;" version="1.1" viewBox="0 0 512 512" width="512px" xml:space="preserve" xmlns="http://www.w3.org/2000/svg" xmlns:xlink="http://www.w3.org/1999/xlink"><g id="protected__x2C__firewall__x2C__protection__x2C_"><g><linearGradient gradientUnits="userSpaceOnUse" id="SVGID_1_" x1="255.999" x2="437.3926" y1="256" y2="256"><stop offset="0" style="stop-color:#11A235"/><stop offset="0.2781" style="stop-color:#0D902D"/><stop offset="0.8338" style="stop-color:#036118"/><stop offset="1" style="stop-color:#005211"/></linearGradient><path d="M255.999,496c30.85-9.382,57.525-24.772,80.203-42.525    c65.22-51.255,101.19-131.157,101.19-214.037V80.822C321.964,80.822,265.68,26.344,255.999,16V496z" style="fill-rule:evenodd;clip-rule:evenodd;fill:url(#SVGID_1_);"/><linearGradient gradientUnits="userSpaceOnUse" id="SVGID_2_" x1="74.6074" x2="255.999" y1="256" y2="256"><stop offset="0" style="stop-color:#11A235"/><stop offset="0.2781" style="stop-color:#0D902D"/><stop offset="0.8338" style="stop-color:#036118"/><stop offset="1" style="stop-color:#005211"/></linearGradient><path d="M255.999,496c-30.847-9.382-57.618-24.772-80.3-42.525    C110.577,402.22,74.607,322.317,74.607,239.533V80.822c115.332,0,171.71-54.479,181.392-64.822V496z" style="fill-rule:evenodd;clip-rule:evenodd;fill:url(#SVGID_2_);"/><path d="M254.194,336.457c-4.93,4.066-10.631,6.547-17.077,6.547    h-0.865c-6.445,0-13-3.226-17.077-8.157l-75.562-83.732l36.632-32.457l59.243,65.777L371.14,159.331l33.406,35.789    L254.194,336.457z" style="fill-rule:evenodd;clip-rule:evenodd;fill:#FFFFFF;"/></g></g><g id="Layer_1"/></svg>