<?xml version="1.0" ?><svg id="Layer_1" style="enable-background:new 0 0 242.9 242.9;" version="1.1" viewBox="0 0 242.9 242.9" xml:space="preserve" xmlns="http://www.w3.org/2000/svg" xmlns:xlink="http://www.w3.org/1999/xlink"><style type="text/css">
	.st0{fill:#69CCED;}
</style><path class="st0" d="M121.5,0L121.5,0C54.4,0,0,54.4,0,121.5v0c0,67.1,54.4,121.5,121.5,121.5h0c67.1,0,121.5-54.4,121.5-121.5v0  C242.9,54.4,188.5,0,121.5,0z M108.6,165c-1-2.4-2.9-10.8-4.1-20c-1.5-10.4-4.1-13.4-9.6-13.4h-2.4V165H76.3V82.4  c5.1-1,11.6-1.6,17.8-1.6c9,0,16.9,1.2,22.4,6.2c5.1,4.6,6.6,10.2,6.6,17.4c0,9-4.4,17-12.9,21v0.3c5.7,2.2,8.6,7.6,10.2,16.5  c1.6,9.3,3.9,19.6,5.3,22.8H108.6z M164.8,92c-1.2-0.5-3-0.7-5-0.7c-5.5,0-7.5,4.7-7.5,10.1v2.9h10.6v11.6h-10.6V165h-16.3v-49.2  h-8.2v-11.6h8.2v-2.5c0-6.8,1.4-13.2,6.2-18.2c3.6-3.7,8.8-5.6,14.5-5.6c4.2,0,7.5,0.6,9.8,1.4L164.8,92z M106.6,105.9  c0,7.3-4.1,13.1-11.2,13.1h-2.9V94c0.9-0.4,2.5-0.5,3.9-0.5C103.7,93.7,106.6,98.8,106.6,105.9z"/></svg>