<?xml version="1.0" ?><svg id="Layer_1" style="enable-background:new 0 0 242.9 242.9;" version="1.1" viewBox="0 0 242.9 242.9" xml:space="preserve" xmlns="http://www.w3.org/2000/svg" xmlns:xlink="http://www.w3.org/1999/xlink"><style type="text/css">
	.st0{fill:#73C499;}
</style><path class="st0" d="M101.1,119.6c0,24.6-7.3,32.8-15.6,32.8c-0.9,0-2.2,0-3-0.3V90.7c1.1-0.4,2.2-0.4,3.4-0.4  C96.3,90.3,101.1,101.4,101.1,119.6z M242.9,121.5L242.9,121.5c0,67.1-54.4,121.5-121.5,121.5h0C54.4,242.9,0,188.5,0,121.5v0  C0,54.4,54.4,0,121.5,0h0C188.5,0,242.9,54.4,242.9,121.5z M119.1,120.3c0-17.3-4-29.1-11.6-36c-5.7-5.3-13.5-7.9-24.7-7.9  c-6.9,0-13.2,0.7-17.6,1.7v87.5c3.4,0.4,8.9,0.9,14.3,0.9c12.4,0,21.3-2.8,27.2-8.6C114.4,151.1,119.1,138.2,119.1,120.3z   M177.8,124.4c0-14.4-4.9-24.2-17.2-24.2c-6.7,0-12.3,3.3-15.7,8.5h-0.3l-0.8-7.4h-14.9c0.1,6.1,0.5,12.3,0.5,19.4v45.2h17.3v-39.4  c0-2.5,0.4-4.6,0.9-5.9c1.2-3.8,3.6-5.8,6.5-5.8c5,0,6.3,5.2,6.3,10.7v40.4h17.3V124.4z"/></svg>