<?xml version="1.0" ?><svg id="Layer_1" style="enable-background:new 0 0 242.9 242.9;" version="1.1" viewBox="0 0 242.9 242.9" xml:space="preserve" xmlns="http://www.w3.org/2000/svg" xmlns:xlink="http://www.w3.org/1999/xlink"><style type="text/css">
	.st0{fill:#FBD603;}
</style><path class="st0" d="M156.8,121.5c0,10.2-2.1,19.2-8.2,19.2c-2,0-4.2-1.1-5.6-5c-0.7-1.3-0.9-3.3-0.9-5.6v-17.3  c0-1.6,0.1-3.3,0.8-4.6c0.7-3,3.2-5.6,5.8-5.6C153.8,102.5,156.8,109.2,156.8,121.5z M242.9,121.5L242.9,121.5  c0,67.1-54.4,121.5-121.5,121.5h0C54.4,242.9,0,188.5,0,121.5v0C0,54.4,54.4,0,121.5,0h0C188.5,0,242.9,54.4,242.9,121.5z   M115.4,127.5c0-9.4-4.4-18.4-16.1-25.5c-9.7-5.8-12.3-8.6-12.3-13.9c0-4.8,3.6-9.3,11-9.3c5,0,8.9,1.5,11.4,3l2.8-14.9  c-2.6-1.6-8.2-3.2-14-3.2c-18.6,0-28.2,11.9-28.2,26.2c0,8.1,4.6,17.5,16.8,24.9c7.5,4.9,11.5,8.1,11.5,14.5c0,5.8-4,10-12.2,10  c-5,0-11.1-1.5-14.7-3.4l-2.5,14.9c2.9,1.7,9.9,3.6,17.1,3.6C103.3,154.5,115.4,143.8,115.4,127.5z M174.1,121.3  c0-18-5.8-33.3-20.1-33.3c-5.9,0-10.8,3.2-13.5,8.5h-0.3l-0.9-7.4h-15.1c0.3,6.1,0.5,12.7,0.5,20.5v69.5h17.3v-30.7h0.3  c1.9,3,5.4,6.3,10.7,6.3C163.9,154.8,174.1,144.3,174.1,121.3z"/></svg>