<?xml version="1.0" ?><svg id="Layer_1" style="enable-background:new 0 0 242.9 242.9;" version="1.1" viewBox="0 0 242.9 242.9" xml:space="preserve" xmlns="http://www.w3.org/2000/svg" xmlns:xlink="http://www.w3.org/1999/xlink"><style type="text/css">
	.st0{fill:#EE4529;}
</style><path class="st0" d="M96.7,113.5l2.9,18.6H86.9l3.3-18.5c0.9-5.2,2.2-14.4,3.2-20.4h0.4C94.6,99.2,95.8,108.1,96.7,113.5z   M242.9,121.5L242.9,121.5c0,67.1-54.4,121.5-121.5,121.5h0C54.4,242.9,0,188.5,0,121.5v0C0,54.4,54.4,0,121.5,0h0  C188.5,0,242.9,54.4,242.9,121.5z M121.8,166l-17.3-89.1H83.8L64.5,166h16.8l4-20.4h16l3.8,20.4H121.8z M178.4,124.5  c0-14.4-4.9-24.2-17.2-24.2c-6.7,0-12.3,3.3-15.7,8.5h-0.3l-0.8-7.4h-14.9c0.1,6.1,0.5,12.3,0.5,19.4V166h17.3v-39.4  c0-2.5,0.4-4.6,0.9-5.9c1.2-3.8,3.6-5.8,6.5-5.8c5,0,6.3,5.2,6.3,10.7V166h17.3V124.5z"/></svg>