<?xml version="1.0" ?><svg id="Layer_1" style="enable-background:new 0 0 242.9 242.9;" version="1.1" viewBox="0 0 242.9 242.9" xml:space="preserve" xmlns="http://www.w3.org/2000/svg" xmlns:xlink="http://www.w3.org/1999/xlink"><style type="text/css">
	.st0{fill:#5EC6CD;}
</style><path class="st0" d="M154.3,107.3c0.4,1.3,0.7,3,0.7,4.8v17.3c0,1.7-0.3,3.7-0.8,5.2c-1.3,3.4-3.6,4.6-5.8,4.6  c-4.9,0-8.3-6.1-8.3-18.1c0-10.6,2.5-19,8.7-19C151.7,102,153.5,104.5,154.3,107.3z M242.9,121.5L242.9,121.5  c0,67.1-54.4,121.5-121.5,121.5h0C54.4,242.9,0,188.5,0,121.5v0C0,54.4,54.4,0,121.5,0h0C188.5,0,242.9,54.4,242.9,121.5z   M116.6,127c0-9.4-4.4-18.4-16.1-25.5c-9.7-5.8-12.3-8.6-12.3-13.9c0-4.8,3.6-9.3,11-9.3c5,0,8.9,1.5,11.4,3l2.8-14.9  c-2.6-1.6-8.2-3.2-14-3.2c-18.6,0-28.2,11.9-28.2,26.2c0,8.1,4.6,17.5,16.8,24.9c7.5,4.9,11.5,8.1,11.5,14.5c0,5.8-4,10-12.2,10  c-5,0-11.1-1.5-14.7-3.4l-2.5,14.9c2.9,1.7,9.9,3.6,17.1,3.6C104.6,154,116.6,143.3,116.6,127z M172.8,88.5h-15.1l-0.9,6.5h-0.3  c-2.5-4.9-6.7-7.5-11.9-7.5c-12,0-21.8,12.4-21.8,34c0,15.5,5.7,31.3,20.2,31.3c4.9,0,9.4-2.4,11.6-6.5h0.3v4  c0,9.9-3.4,15.7-12.2,15.7c-5,0-9.1-1.3-12.4-2.8l-3.2,13.4c4.6,2,10.2,3,16.1,3c9.5,0,16.3-2.6,21-7.1c5.3-5,7.8-12.7,7.8-26.6V109  C172.2,101.2,172.6,94.3,172.8,88.5z"/></svg>