<?xml version="1.0" ?><svg enable-background="new 0 0 24 24" id="Layer_1" version="1.1" viewBox="0 0 24 24" xml:space="preserve" xmlns="http://www.w3.org/2000/svg" xmlns:xlink="http://www.w3.org/1999/xlink"><g><path d="M3.5,20.5h4v-17h-4   c-1.6568543,0-3,1.3431458-3,3v11C0.5,19.1568546,1.8431457,20.5,3.5,20.5z" fill="none" stroke="#303C42" stroke-linecap="round" stroke-linejoin="round" stroke-miterlimit="10"/><path d="M16.5,20.5h4   c1.6568546,0,3-1.3431454,3-3v-11c0-1.6568542-1.3431454-3-3-3h-4V20.5z" fill="none" stroke="#303C42" stroke-linecap="round" stroke-linejoin="round" stroke-miterlimit="10"/><path d="M7.5,4.5   c0,0,1,0,1.5-1h6c0,0,0.5,1,1.5,1" fill="none" stroke="#303C42" stroke-linecap="round" stroke-linejoin="round" stroke-miterlimit="10"/><line fill="none" stroke="#303C42" stroke-linecap="round" stroke-linejoin="round" stroke-miterlimit="10" x1="7.5" x2="16.5" y1="20.5" y2="20.5"/><circle cx="4" cy="10" fill="none" r="1.5" stroke="#303C42" stroke-linecap="round" stroke-linejoin="round" stroke-miterlimit="10"/><circle cx="4" cy="13.5" fill="#303C42" r="0.5"/><circle cx="4" cy="15.5" fill="#303C42" r="0.5"/><circle cx="5" cy="14.5" fill="#303C42" r="0.5"/><circle cx="3" cy="14.5" fill="#303C42" r="0.5"/><circle cx="20" cy="14" fill="none" r="1.5" stroke="#303C42" stroke-linecap="round" stroke-linejoin="round" stroke-miterlimit="10"/><circle cx="20" cy="10.5" fill="#303C42" r="0.5"/><circle cx="20" cy="8.5" fill="#303C42" r="0.5"/><circle cx="19" cy="9.5" fill="#303C42" r="0.5"/><circle cx="21" cy="9.5" fill="#303C42" r="0.5"/><line fill="none" stroke="#303C42" stroke-linecap="round" stroke-linejoin="round" stroke-miterlimit="10" x1="4.5" x2="5.5" y1="5.5" y2="5.5"/><line fill="none" stroke="#303C42" stroke-linecap="round" stroke-linejoin="round" stroke-miterlimit="10" x1="18.5" x2="19.5" y1="5.5" y2="5.5"/><line fill="none" stroke="#303C42" stroke-linecap="round" stroke-linejoin="round" stroke-miterlimit="10" x1="19" x2="19" y1="5" y2="6"/></g><g/><g/><g/><g/><g/><g/><g/><g/><g/><g/><g/><g/><g/><g/><g/></svg>