<?xml version="1.0" ?><svg enable-background="new 0 0 24 24" id="Layer_1" version="1.1" viewBox="0 0 24 24" xml:space="preserve" xmlns="http://www.w3.org/2000/svg" xmlns:xlink="http://www.w3.org/1999/xlink"><path d="M18.5,1.5h-13L0.5,12  l5,10.5h13l5-10.5L18.5,1.5z M20.8845215,11h-5.5764771l-0.7955322-1.4227905l3.2472534-4.7633667L20.8845215,11z M12.824585,8.5  h-1.6464844l-3.3753052-5h8.4023438L12.824585,8.5z M11.175415,15.5h1.6464844l3.3753052,5H7.7948608L11.175415,15.5z   M6.2435913,4.8061523l3.2451782,4.7687988L8.6919556,11H3.1154785L6.2435913,4.8061523z M3.1154785,13h5.5764771  l0.7955322,1.4227905l-3.2472534,4.7633667L3.1154785,13z M17.7564087,19.1938477l-3.2451782-4.7687988L15.3080444,13h5.5764771  L17.7564087,19.1938477z" fill="none" stroke="#303C42" stroke-linecap="round" stroke-linejoin="round" stroke-miterlimit="10"/><g/><g/><g/><g/><g/><g/><g/><g/><g/><g/><g/><g/><g/><g/><g/></svg>