<?xml version="1.0" ?><svg enable-background="new 0 0 24 24" id="Layer_1" version="1.1" viewBox="0 0 24 24" xml:space="preserve" xmlns="http://www.w3.org/2000/svg" xmlns:xlink="http://www.w3.org/1999/xlink"><g><path d="M12,0.5   c0,0,3.3362875,0,5.3757706,0.5450909c0.6618919,0.1769035,1.1243515,0.769474,1.1243458,1.4545991l-0.0000935,13.0003319   C18.5000095,17.156868,17.156868,18.5,15.5000219,18.5H8.4999781c-1.6568456,0-2.9999881-1.343132-3-2.9999781L5.4998827,2.4996901   C5.4998779,1.8145649,5.9623375,1.2219944,6.6242299,1.0450909C8.6637125,0.5,12,0.5,12,0.5z" fill="none" stroke="#303C42" stroke-linecap="round" stroke-linejoin="round" stroke-miterlimit="10"/><path d="M6.5,17.7358875V22   c0,0.8284264,0.6715727,1.5,1.5,1.5h1c0.8284273,0,1.5-0.6715736,1.5-1.5v-3.5" fill="none" stroke="#303C42" stroke-linecap="round" stroke-linejoin="round" stroke-miterlimit="10"/><path d="M13.5,18.5V22   c0,0.8284264,0.6715727,1.5,1.5,1.5h1c0.8284264,0,1.5-0.6715736,1.5-1.5v-4.2640972" fill="none" stroke="#303C42" stroke-linecap="round" stroke-linejoin="round" stroke-miterlimit="10"/><path d="M15,12.5H9   c-0.8284273,0-1.5-0.6715727-1.5-1.5V8c0-0.8284273,0.6715727-1.5,1.5-1.5h6c0.8284273,0,1.5,0.6715727,1.5,1.5v3   C16.5,11.8284273,15.8284273,12.5,15,12.5z" fill="none" stroke="#303C42" stroke-linecap="round" stroke-linejoin="round" stroke-miterlimit="10"/><polyline fill="none" points="8,7 9,8.5    10.5,6.5 12,8.5 13.5,6.5 15,8.5 16,7  " stroke="#303C42" stroke-linecap="round" stroke-linejoin="round" stroke-miterlimit="10"/><polyline fill="none" points="16,12    15,10.5 13.5,12.5 12,10.5 10.5,12.5 9,10.5 8,12  " stroke="#303C42" stroke-linecap="round" stroke-linejoin="round" stroke-miterlimit="10"/><circle cx="9" cy="4" fill="none" r="0.5" stroke="#303C42" stroke-linecap="round" stroke-linejoin="round" stroke-miterlimit="10"/><circle cx="15" cy="4" fill="none" r="0.5" stroke="#303C42" stroke-linecap="round" stroke-linejoin="round" stroke-miterlimit="10"/><path d="M5.5,7.5   l-3.6755493,4.5944366C1.6144236,12.3569708,1.5,12.6831675,1.5,13.0193748v0.0000019   C1.5,13.8371019,2.1628976,14.5,2.9806235,14.5h0.0000024c0.6420667,0,1.2466466-0.3023615,1.6317894-0.8160877L5.5,12.5" fill="none" stroke="#303C42" stroke-linecap="round" stroke-linejoin="round" stroke-miterlimit="10"/><path d="M18.5,7.5   l3.6755486,4.5944366C22.3855762,12.3569708,22.5,12.6831675,22.5,13.0193748v0.0000019   C22.5,13.8371019,21.8371029,14.5,21.0193768,14.5h-0.0000019c-0.642067,0-1.2466469-0.3023615-1.6317902-0.8160877L18.5,12.5" fill="none" stroke="#303C42" stroke-linecap="round" stroke-linejoin="round" stroke-miterlimit="10"/></g><g/><g/><g/><g/><g/><g/><g/><g/><g/><g/><g/><g/><g/><g/><g/></svg>