<?xml version="1.0" ?><svg enable-background="new 0 0 24 24" id="Layer_1" version="1.1" viewBox="0 0 24 24" xml:space="preserve" xmlns="http://www.w3.org/2000/svg" xmlns:xlink="http://www.w3.org/1999/xlink"><g><g><path d="M22.5,11V2    c0-0.8284302-0.6715698-1.5-1.5-1.5H3C2.1715698,0.5,1.5,1.1715698,1.5,2v9" fill="none" stroke="#303C42" stroke-linecap="round" stroke-linejoin="round" stroke-miterlimit="10"/><path d="M1.5,13v9    c0,0.8284302,0.6715698,1.5,1.5,1.5h18c0.8284302,0,1.5-0.6715698,1.5-1.5v-9" fill="none" stroke="#303C42" stroke-linecap="round" stroke-linejoin="round" stroke-miterlimit="10"/></g><path d="M22.5000019,13   H1.499999C0.9477148,13,0.5,12.5522852,0.5,12.000001V11.999999C0.5,11.4477148,0.9477148,11,1.499999,11h21.0000038   C23.0522861,11,23.5,11.4477148,23.5,11.999999v0.0000019C23.5,12.5522852,23.0522861,13,22.5000019,13z" fill="none" stroke="#303C42" stroke-linecap="round" stroke-linejoin="round" stroke-miterlimit="10"/><line fill="none" stroke="#303C42" stroke-linecap="round" stroke-linejoin="round" stroke-miterlimit="10" x1="3.5" x2="3.5" y1="11" y2="13"/><line fill="none" stroke="#303C42" stroke-linecap="round" stroke-linejoin="round" stroke-miterlimit="10" x1="20.5" x2="20.5" y1="11" y2="13"/><rect fill="none" height="5" stroke="#303C42" stroke-linecap="round" stroke-linejoin="round" stroke-miterlimit="10" width="15" x="4.5" y="3.5"/><rect fill="none" height="6" stroke="#303C42" stroke-linecap="round" stroke-linejoin="round" stroke-miterlimit="10" width="9" x="7.5" y="15.5"/><circle cx="4.5" cy="16.5" fill="none" r="1" stroke="#303C42" stroke-linecap="round" stroke-linejoin="round" stroke-miterlimit="10"/><line fill="none" stroke="#303C42" stroke-linecap="round" stroke-linejoin="round" stroke-miterlimit="10" x1="4.5" x2="4.5" y1="19.5" y2="21.5"/><line fill="none" stroke="#303C42" stroke-linecap="round" stroke-linejoin="round" stroke-miterlimit="10" x1="3.5" x2="5.5" y1="20.5" y2="20.5"/><circle cx="19.5" cy="15.5" fill="#303C42" r="0.5"/><circle cx="12" cy="2" fill="#303C42" r="0.5"/><circle cx="19.5" cy="17.5" fill="#303C42" r="0.5"/><circle cx="18.5" cy="20.5" fill="#303C42" r="0.5"/><circle cx="20.5" cy="16.5" fill="#303C42" r="0.5"/><circle cx="18.5" cy="16.5" fill="#303C42" r="0.5"/></g><g/><g/><g/><g/><g/><g/><g/><g/><g/><g/><g/><g/><g/><g/><g/></svg>