<?xml version="1.0" ?><svg enable-background="new 0 0 24 24" id="Layer_1" version="1.1" viewBox="0 0 24 24" xml:space="preserve" xmlns="http://www.w3.org/2000/svg" xmlns:xlink="http://www.w3.org/1999/xlink"><g><path d="M12,23.5001068   c-4.6944203,0-8.5-3.3055801-8.5-8c0,0,0.3751321-8.6280355,1.7752581-12.5619364   C5.5997167,2.0265467,6.3624926,1.336794,7.2984529,1.091212C8.3677435,0.8106461,10.0257721,0.4904369,12,0.5001069   c1.9742279-0.0096699,3.6322565,0.3105392,4.7015476,0.5911052c0.9359589,0.245582,1.6987362,0.9353347,2.0231953,1.8469586   C20.1248684,6.8720713,20.5,15.5001068,20.5,15.5001068C20.5,20.1945267,16.6944199,23.5001068,12,23.5001068z" fill="none" stroke="#303C42" stroke-linecap="round" stroke-linejoin="round" stroke-miterlimit="10"/><path d="M12,12.5001068   c2.0678644,0,3.5022373-0.2111635,4.4486732-0.4394207c0.9391994-0.226512,1.6020679-1.0900965,1.5516453-2.0549078   C18.0002136,10.0037899,18.0001087,10.0018988,18,10.0001068c-0.1305351-2.1624565-0.999958-5.0000057-0.999958-5.0000057   c-0.2412434-0.9347157-0.8083878-1.6419401-1.5042973-1.8937428c-0.7950449-0.2876728-2.0278311-0.615993-3.495719-0.6060781   c-1.4679394-0.0099149-2.7007256,0.3184054-3.4957705,0.6060781C7.8083453,3.358161,7.2412019,4.0653853,6.999959,5.0001011   c0,0-0.8694239,2.8375492-0.999959,5.0000057c-0.0001082,0.001792-0.0002141,0.0036831-0.0003181,0.0056715   c-0.0504227,0.9648113,0.6124458,1.8283958,1.5516453,2.0549078C8.4977627,12.2889433,9.9321356,12.5001068,12,12.5001068z" fill="none" stroke="#303C42" stroke-linecap="round" stroke-linejoin="round" stroke-miterlimit="10"/><rect fill="none" height="4" id="XMLID_1304_" stroke="#303C42" stroke-linecap="round" stroke-linejoin="round" stroke-miterlimit="10" width="1" x="7" y="14.5001068"/><rect fill="none" height="4" id="XMLID_1303_" stroke="#303C42" stroke-linecap="round" stroke-linejoin="round" stroke-miterlimit="10" transform="matrix(3.456061e-11 1 -1 3.456061e-11 24.0001068 9.0001068)" width="1" x="7" y="14.5001068"/><line fill="none" stroke="#303C42" stroke-linecap="round" stroke-linejoin="round" stroke-miterlimit="10" x1="9.5" x2="10.5" y1="20.5001068" y2="20.5001068"/><line fill="none" stroke="#303C42" stroke-linecap="round" stroke-linejoin="round" stroke-miterlimit="10" x1="13.5" x2="14.5" y1="20.5001068" y2="20.5001068"/><circle cx="15.5" cy="18.0001068" fill="none" r="0.5" stroke="#303C42" stroke-linecap="round" stroke-linejoin="round" stroke-miterlimit="10"/><circle cx="17.5" cy="15.5001068" fill="none" r="1" stroke="#303C42" stroke-linecap="round" stroke-linejoin="round" stroke-miterlimit="10"/></g><g/><g/><g/><g/><g/><g/><g/><g/><g/><g/><g/><g/><g/><g/><g/></svg>