<?xml version="1.0" ?><svg enable-background="new 0 0 24 24" id="Layer_1" version="1.1" viewBox="0 0 24 24" xml:space="preserve" xmlns="http://www.w3.org/2000/svg" xmlns:xlink="http://www.w3.org/1999/xlink"><path d="M12,0.5  C5.6487427,0.5,0.5,5.6486816,0.5,12c0,6.3512573,5.1487427,11.5,11.5,11.5S23.5,18.3512573,23.5,12  C23.5,5.6486816,18.3512573,0.5,12,0.5z M16.4213257,4.7505493L12,9.171875L7.5786743,4.7505493  C8.868042,3.9624023,10.3781738,3.5,12,3.5S15.131958,3.9624023,16.4213257,4.7505493z M3.5,12  c0-1.6218262,0.4623413-3.132019,1.2504883-4.4213867L9.171875,12l-4.4213257,4.4213257C3.9624023,15.131958,3.5,13.6218262,3.5,12z   M7.5786743,19.2494507L12,14.828125l4.4213257,4.4213257C15.131958,20.0375977,13.6218262,20.5,12,20.5  S8.868042,20.0375977,7.5786743,19.2494507z M19.2494507,16.4213257L14.828125,12l4.4213867-4.4213867  C20.0376587,8.867981,20.5,10.3781738,20.5,12S20.0375977,15.131958,19.2494507,16.4213257z" fill="none" stroke="#303C42" stroke-linecap="round" stroke-linejoin="round" stroke-miterlimit="10"/><g/><g/><g/><g/><g/><g/><g/><g/><g/><g/><g/><g/><g/><g/><g/></svg>