<?xml version="1.0" ?><svg enable-background="new 0 0 24 24" id="Layer_1" version="1.1" viewBox="0 0 24 24" xml:space="preserve" xmlns="http://www.w3.org/2000/svg" xmlns:xlink="http://www.w3.org/1999/xlink"><g><polygon fill="none" points="21.5,5.5    21.5,2.5 18.5,2.5 18.5,0.5 5.5,0.5 5.5,2.5 2.5,2.5 2.5,5.5 0.5,5.5 0.5,18.5 2.5,18.5 2.5,21.5 5.5,21.5 5.5,23.5 18.5,23.5    18.5,21.5 21.5,21.5 21.5,18.5 23.5,18.5 23.5,5.5  " stroke="#303C42" stroke-linecap="round" stroke-linejoin="round" stroke-miterlimit="10"/><polygon fill="none" points="18.5,18.5    18.5,20.5 5.5,20.5 5.5,18.5 3.5,18.5 3.5,5.5 5.5,5.5 5.5,3.5 18.5,3.5 18.5,5.5 20.5,5.5 20.5,18.5  " stroke="#303C42" stroke-linecap="round" stroke-linejoin="round" stroke-miterlimit="10"/><rect fill="none" height="2.8287334" stroke="#303C42" stroke-linecap="round" stroke-linejoin="round" stroke-miterlimit="10" transform="matrix(0.7071068 -0.7071068 0.7071068 0.7071068 -3.2204096 12.7248106)" width="7.778481" x="9.8607597" y="8.8354168"/><polyline fill="none" points="10,12    7.5,9.5 9.5,7.5 12,10  " stroke="#303C42" stroke-linecap="round" stroke-linejoin="round" stroke-miterlimit="10"/></g><g/><g/><g/><g/><g/><g/><g/><g/><g/><g/><g/><g/><g/><g/><g/></svg>