<?xml version="1.0" ?><!DOCTYPE svg  PUBLIC '-//W3C//DTD SVG 1.1//EN'  'http://www.w3.org/Graphics/SVG/1.1/DTD/svg11.dtd'><svg enable-background="new 0 0 50 50" height="50px" version="1.1" viewBox="0 0 50 50" width="50px" xml:space="preserve" xmlns="http://www.w3.org/2000/svg" xmlns:xlink="http://www.w3.org/1999/xlink"><g id="Layer_13"/><g id="Layer_12"/><g id="Layer_11"/><g id="Layer_10"/><g id="Layer_9"><path clip-rule="evenodd" d="M15.416,47.35c1.272,1.316,3.092,2.198,5.584,2.623l0.092,0.016h0.135L28.866,50   h0.12l0.097-0.016c2.495-0.415,4.216-1.283,5.395-2.618c1.179-1.335,1.746-3.059,1.946-5.202l0.005-0.057v-0.064l-0.004-7.044   c-0.001-3.619-0.568-7.288-1.957-10.481c-1.066-2.449-2.616-4.62-4.759-6.284l5.304-7.683l2.24-3.245l-3.754,1.198L29.61,9.745   l1.556-5.577L32.329,0l-3.326,2.775l-4.82,4.022l-4.669-2.169l-2.922-1.357l1.09,3.035l1.44,4.01l-2.858-0.529l-3.518-0.651   l2.22,2.809l4.98,6.303c-2.135,1.662-3.679,3.829-4.742,6.272c-1.389,3.192-1.956,6.861-1.957,10.48l-0.004,7.044l0,0.064   l0.006,0.057C13.447,44.278,14.123,46.012,15.416,47.35 M16.333,43.811l4.053-2.115l4.118,2.149l0.549,0.287l0.549-0.287   l4.117-2.149l3.729,1.945c-0.213,0.778-0.531,1.425-0.986,1.942c-0.745,0.845-1.93,1.416-3.716,1.725l-7.383-0.01   c-1.852-0.328-3.156-0.937-4.005-1.815C16.907,45.017,16.57,44.458,16.333,43.811z M20.386,34.479l4.118,2.149l0.549,0.287   l0.549-0.287l4.117-2.149l4.017,2.095l0.002,4.54l-3.469-1.81l-0.549-0.286l-0.549,0.286l-4.117,2.149l-4.118-2.149l-0.549-0.286   l-0.549,0.286l-3.901,2.036l0.003-4.54l0.331-0.173L20.386,34.479z M20.312,27.263l4.118,2.149l0.549,0.287l0.55-0.287l4.118-2.149   l3.471,1.811c0.349,1.556,0.539,3.18,0.598,4.813l-3.446-1.798l-0.549-0.286l-0.549,0.286l-4.117,2.149l-4.118-2.149l-0.549-0.286   l-0.549,0.286l-3.885,2.027c0.047-1.651,0.227-3.296,0.568-4.874L20.312,27.263z M22.111,19.99h5.45   c2.018,1.405,3.459,3.359,4.437,5.605l0.12,0.282l-1.923-1.003l-0.55-0.286l-0.549,0.286l-4.118,2.149l-4.118-2.149l-0.549-0.286   l-0.549,0.286l-2.284,1.192l0.196-0.47C18.652,23.348,20.093,21.395,22.111,19.99z M25.676,13.824l2.373-0.758l2.507-0.8   l-3.467,5.022h-4.471l-3.321-4.202l1.641,0.304l2.3,0.427l-0.791-2.205l-1.141-3.179l2.52,1.171l0.772,0.359l0.659-0.549   l2.151-1.796l-1.061,3.806L25.676,13.824z" fill-rule="evenodd"/></g><g id="Layer_8"/><g id="Layer_7"/><g id="Layer_6"/><g id="Layer_5"/><g id="Layer_4"/><g id="Layer_3"/><g id="Layer_2"/></svg>