<?xml version="1.0" ?><!DOCTYPE svg  PUBLIC '-//W3C//DTD SVG 1.1//EN'  'http://www.w3.org/Graphics/SVG/1.1/DTD/svg11.dtd'><svg height="512px" style="enable-background:new 0 0 512 512;" version="1.1" viewBox="0 0 512 512" width="512px" xml:space="preserve" xmlns="http://www.w3.org/2000/svg" xmlns:xlink="http://www.w3.org/1999/xlink"><g id="Chat_x2C__communication_x2C__facebook_x2C__line-icon_x2C__social_x2C__web"><g><path d="M245.618,16.175    c132.431-5.054,243.891,98.061,249.196,230.493c5.054,132.434-98.061,243.883-230.49,248.941    c-132.43,5.311-243.888-98.061-249.196-230.492C10.074,132.938,113.188,21.234,245.618,16.175L245.618,16.175z" style="fill-rule:evenodd;clip-rule:evenodd;fill:#025497;"/><path d="M445.278,109.939c29.315,37.911,47.512,85.171,49.536,136.729    c2.27,58.383-16.431,112.471-49.536,155.432H64.667c-29.322-38.166-47.515-85.174-49.539-136.982    c-2.021-58.126,16.682-112.21,49.539-155.178H445.278z M222.872,383.395V242.117h-26.029v-33.106h26.029v-19.208    c0-19.712,5.562-34.624,16.938-45.237c11.37-10.616,27.034-15.924,47.513-15.924c4.041,0,8.083,0.251,12.125,0.757    c4.047,0.763,4.551,0.509,9.604,1.772v35.379c-2.521-0.503-5.054-0.755-7.581-1.261c-2.275-0.255-5.054-0.255-8.341-0.255    c-7.58,0-13.395,2.021-17.437,6.317c-3.79,4.299-5.813,10.367-5.813,18.199v19.46h34.621v33.106h-34.621v141.277H222.872z" style="fill-rule:evenodd;clip-rule:evenodd;fill:#0E4C7C;"/><path d="M222.872,242.117v141.277h47.009V242.117h34.621v-33.106    h-34.621v-19.46c0-7.832,2.023-13.9,5.813-18.199c4.042-4.296,9.856-6.317,17.437-6.317l8.341,0.255l7.581,1.261v-35.379    l-9.604-1.772l-12.125-0.757c-20.479,0-36.143,5.308-47.513,15.924c-11.377,10.613-16.938,25.525-16.938,45.237v19.208h-26.029    v33.106H222.872z" style="fill-rule:evenodd;clip-rule:evenodd;fill:#FFFFFF;"/></g></g><g id="Layer_1"/></svg>