<?xml version="1.0" ?><svg height="32" viewBox="0 0 32 32" width="32" xmlns="http://www.w3.org/2000/svg"><defs><style>.cls-1{fill:none;stroke:#000;stroke-linejoin:round;stroke-width:2px;}</style></defs><title/><g data-name="9-Itune" id="_9-Itune"><circle class="cls-1" cx="16" cy="16" r="15"/><path class="cls-1" d="M11,23H9a2.006,2.006,0,0,1-2-2H7a2.006,2.006,0,0,1,2-2h2a2.006,2.006,0,0,1,2,2h0A2.006,2.006,0,0,1,11,23Z"/><path class="cls-1" d="M21,23H19a2.006,2.006,0,0,1-2-2h0a2.006,2.006,0,0,1,2-2h2a2.006,2.006,0,0,1,2,2h0A2.006,2.006,0,0,1,21,23Z"/><polyline class="cls-1" points="13 21 13 11 23 9 23 21"/></g></svg>