<?xml version="1.0" ?><svg height="32" viewBox="0 0 32 32" width="32" xmlns="http://www.w3.org/2000/svg"><defs><style>.cls-1{fill:none;stroke:#000;stroke-linejoin:round;stroke-width:2px;}</style></defs><title/><g data-name="23-Paypal" id="_23-Paypal"><path class="cls-1" d="M13,17h4a8.024,8.024,0,0,0,8-8h0a8.024,8.024,0,0,0-8-8H10L5,27h6Z"/><path class="cls-1" d="M8.769,27,8,31h6l2-10h4a8.024,8.024,0,0,0,8-8h0q0-4.5-3-6"/><path class="cls-1" d="M15,12h2a3.009,3.009,0,0,0,3-3h0a3.009,3.009,0,0,0-3-3H14l-1,6Z"/></g></svg>