<?xml version="1.0" ?><svg height="32" viewBox="0 0 32 32" width="32" xmlns="http://www.w3.org/2000/svg"><defs><style>.cls-1{fill:none;stroke:#000;stroke-linejoin:round;stroke-width:2px;}</style></defs><title/><g data-name="11-Behance" id="_11-Behance"><path class="cls-1" d="M30,10V22a9,9,0,0,1-9,9H11a9,9,0,0,1-9-9V10a9,9,0,0,1,9-9h7s5,0,5,5V8a1.959,1.959,0,0,0,2,2Z"/><path class="cls-1" d="M16,11H10A2.006,2.006,0,0,1,8,9H8a2.006,2.006,0,0,1,2-2h6a2.006,2.006,0,0,1,2,2h0A2.006,2.006,0,0,1,16,11Z"/><path class="cls-1" d="M19,24H11a3.009,3.009,0,0,1-3-3H8a3.009,3.009,0,0,1,3-3h8a3.009,3.009,0,0,1,3,3h0A3.009,3.009,0,0,1,19,24Z"/></g></svg>