<?xml version="1.0" ?><!DOCTYPE svg  PUBLIC '-//W3C//DTD SVG 1.1//EN'  'http://www.w3.org/Graphics/SVG/1.1/DTD/svg11.dtd'><svg height="512px" style="enable-background:new 0 0 512 512;" version="1.1" viewBox="0 0 512 512" width="512px" xml:space="preserve" xmlns="http://www.w3.org/2000/svg" xmlns:xlink="http://www.w3.org/1999/xlink"><g id="drop_x2C__box_x2C__dropbox_x2C__logo_x2C_"><g><path d="M442.773,116.207L281.717,23.214c-8.084-4.658-17.064-7.046-26.089-7.206V16    c-0.015,0-0.021,0.008-0.029,0.008c-0.014,0-0.029-0.008-0.036-0.008v0.008c-9.018,0.16-18.006,2.548-26.089,7.206l-161.05,92.979    c-16.728,9.667-27.03,27.505-27.03,46.825v185.959c0,19.32,10.303,37.165,27.03,46.817l161.05,92.993    c8.083,4.658,17.064,7.038,26.089,7.199V496c0.007,0,0.022-0.014,0.036-0.014c0.008,0,0.015,0.014,0.029,0.014v-0.014    c9.017-0.146,18.005-2.541,26.089-7.199l161.057-92.993c16.721-9.652,27.031-27.497,27.031-46.817V163.018    C469.805,143.704,459.494,125.853,442.773,116.207z" style="fill:#3B76BB;"/><path d="M259.023,193.72l76.176,47.022l-76.176,47.004l-76.163-47.004L259.023,193.72z M334.893,326.4    l-22.693,14.822l-53.016-43.984l-53.039,43.984L183.474,326.4v16.604l75.709,45.387l75.709-45.387V326.4L334.893,326.4    L334.893,326.4z M335.199,240.742l52.244-41.831l-75.551-49.285l-52.855,44.094l-52.863-44.094l-75.563,49.285l52.25,41.831    l-52.25,41.805l75.563,49.285l52.863-44.086l52.855,44.086l75.551-49.285L335.199,240.742z" style="fill:#FFFFFF;"/></g></g><g id="Layer_1"/></svg>