<?xml version="1.0" ?><!DOCTYPE svg  PUBLIC '-//W3C//DTD SVG 1.1//EN'  'http://www.w3.org/Graphics/SVG/1.1/DTD/svg11.dtd'><svg height="512px" style="enable-background:new 0 0 512 512;" version="1.1" viewBox="0 0 512 512" width="512px" xml:space="preserve" xmlns="http://www.w3.org/2000/svg" xmlns:xlink="http://www.w3.org/1999/xlink"><g id="Behance_x2C__logo_x2C__social"><g><path d="M442.766,116.212L281.717,23.219c-8.076-4.658-17.064-7.046-26.085-7.206v-0.008    c-0.015,0-0.021,0-0.033,0c-0.011,0-0.025,0-0.036,0v0.008c-9.018,0.16-18.006,2.548-26.089,7.206l-161.05,92.979    c-16.724,9.659-27.03,27.505-27.03,46.824v185.957c0,19.32,10.306,37.172,27.03,46.816l161.05,92.994    c8.083,4.658,17.064,7.045,26.089,7.205l0,0c0.011,0,0.025,0,0.036,0c0.012,0,0.019,0,0.033,0l0,0    c9.013-0.16,18.009-2.541,26.085-7.205l161.049-92.979c16.729-9.66,27.039-27.506,27.039-46.824V163.022    C469.805,143.709,459.494,125.857,442.766,116.212z" style="fill:#49A1DA;"/><path d="M185.715,252.641h36.274c8.068,0,21.886,3.483,21.886,18.949c0,8.061-6.366,17.545-14.428,17.545    h-43.732V252.641z M302.248,179.831h65.422v21.875h-65.422V179.831z M359.01,252.641h-48.088    c1.658-13.011,11.34-21.656,24.146-21.656C347.648,230.985,356.914,239.885,359.01,252.641L359.01,252.641z M309.506,267.289    h80.01c0-1.256,0-2.482,0-3.738c0-30.083-21.627-54.419-54.447-54.419c-33.01,0-54.695,24.336-54.695,54.419    c0,30.301,21.686,54.637,54.695,54.637c32.82,0,48.475-18.721,53.439-43.699H359.01c-2.709,12.785-10.324,21.875-23.941,21.875    C321.254,296.363,310.514,283.557,309.506,267.289L309.506,267.289z M273.174,274.488c0-15.881-10.521-29.469-24.752-34.435    c10.325-6.396,17.334-17.918,17.334-30.922c0-20.203-16.301-36.5-36.308-36.5h-72.836v145.556h72.836    C253.386,318.188,273.174,298.627,273.174,274.488L273.174,274.488z M221.99,230.985h-36.274v-29.279h36.274    c8.068,0,14.68,6.586,14.68,14.654C236.669,224.392,230.058,230.985,221.99,230.985L221.99,230.985z" style="fill:#FFFFFF;"/></g></g><g id="Layer_1"/></svg>