<?xml version="1.0" ?><!DOCTYPE svg  PUBLIC '-//W3C//DTD SVG 1.1//EN'  'http://www.w3.org/Graphics/SVG/1.1/DTD/svg11.dtd'><svg height="6.82666in" style="shape-rendering:geometricPrecision; text-rendering:geometricPrecision; image-rendering:optimizeQuality; fill-rule:evenodd; clip-rule:evenodd" viewBox="0 0 6.82666 6.82666" width="6.82666in" xml:space="preserve" xmlns="http://www.w3.org/2000/svg" xmlns:xlink="http://www.w3.org/1999/xlink"><defs><style type="text/css">
   <![CDATA[
    .fil0 {fill:#1FA0B0}
    .fil1 {fill:#26C6DA}
    .fil2 {fill:#FFFFFE}
   ]]>
  </style></defs><g id="Layer_x0020_1"><circle class="fil0" cx="3.41333" cy="3.41333" r="3.41333"/><circle class="fil1" cx="3.41333" cy="3.41333" r="3.21667"/><path class="fil0" d="M3.36423 2.91328c-0.00360236,-0.0331929 -0.0053622,-0.0665906 -0.0053622,-0.0999843 0,-0.497311 0.403244,-0.900575 0.900575,-0.900575 0.234311,0 0.457634,0.090189 0.625382,0.251831 0.159827,-0.0360512 0.313142,-0.097122 0.454268,-0.180634l0.181409 -0.107346 -0.0645118 0.200677c-0.0336929,0.104799 -0.0862126,0.201693 -0.153941,0.286433 0.0528228,-0.0169213 0.104772,-0.0366772 0.155614,-0.0592165l0.252394 -0.111882 -0.153476 0.229488c-0.107244,0.160358 -0.240894,0.302748 -0.394465,0.419465 0.000614173,0.0222756 0.00096063,0.044563 0.00096063,0.0668504 0,0.589815 -0.232209,1.18547 -0.621524,1.62711 -0.463008,0.525244 -1.09692,0.787988 -1.79367,0.787988 -0.462717,0 -0.911504,-0.131689 -1.30097,-0.381402l-0.294484 -0.188811 0.34728 0.0420512c0.0617323,0.00747638 0.123969,0.0107441 0.186142,0.0107441 0.285614,0 0.562382,-0.0762165 0.804791,-0.22074 -0.292831,-0.0772362 -0.533236,-0.299075 -0.628488,-0.595823l-0.0411496 -0.128197 0.132268 0.0251614c0.00215748,0.000409449 0.00431496,0.000811024 0.00647638,0.00120079 -0.237406,-0.164154 -0.389154,-0.438181 -0.389154,-0.741433 0,-0.0035 0,-0.00699606 0,-0.0104961l0 -0.135953 0.118846 0.0660236c0.023189,0.0128819 0.0469567,0.0244803 0.0712126,0.0347638 -0.117295,-0.154575 -0.183161,-0.345213 -0.183161,-0.545177 0,-0.159504 0.0416142,-0.315201 0.122047,-0.452988l0.0581929 -0.0996929 0.0729134 0.0894921c0.38235,0.469295 0.933228,0.764118 1.53359,0.821067z"/><path class="fil2" d="M5.49009 2.3776c-0.147055,0.065189 -0.305406,0.109406 -0.47126,0.129142 0.169453,-0.101665 0.299421,-0.262402 0.361008,-0.453976 -0.158654,0.0938819 -0.334398,0.16228 -0.521224,0.199079 -0.149701,-0.159587 -0.363071,-0.259126 -0.599165,-0.259126 -0.45337,0 -0.820579,0.367598 -0.820579,0.820579 0,0.0642559 0.00711024,0.127079 0.021185,0.187126 -0.681961,-0.0343504 -1.28679,-0.361028 -1.69143,-0.857681 -0.0708268,0.121335 -0.111138,0.262335 -0.111138,0.412661 0,0.284827 0.144882,0.536122 0.364846,0.683177 -0.1345,-0.00420866 -0.260886,-0.041248 -0.371744,-0.102835 0,0.00359843 0,0.0068937 0,0.0104961 0,0.397437 0.28298,0.72915 0.658323,0.804508 -0.0687008,0.0188228 -0.141303,0.0289921 -0.216055,0.0289921 -0.0528504,0 -0.104268,-0.00511811 -0.154535,-0.0146811 0.104657,0.326051 0.407697,0.563295 0.766882,0.569866 -0.280921,0.220244 -0.634752,0.351142 -1.01935,0.351142 -0.0664016,0 -0.131807,-0.00357874 -0.19576,-0.0113228 0.363091,0.232799 0.794343,0.368748 1.2578,0.368748 1.5095,0 2.3352,-1.25067 2.3352,-2.33511 0,-0.035563 -0.000909449,-0.0708465 -0.00236614,-0.10611 0.160413,-0.115673 0.299421,-0.260276 0.40937,-0.424677z"/></g></svg>