<?xml version="1.0" ?><!DOCTYPE svg  PUBLIC '-//W3C//DTD SVG 1.1//EN'  'http://www.w3.org/Graphics/SVG/1.1/DTD/svg11.dtd'><svg height="6.82666in" style="shape-rendering:geometricPrecision; text-rendering:geometricPrecision; image-rendering:optimizeQuality; fill-rule:evenodd; clip-rule:evenodd" viewBox="0 0 6.82666 6.82666" width="6.82666in" xml:space="preserve" xmlns="http://www.w3.org/2000/svg" xmlns:xlink="http://www.w3.org/1999/xlink"><defs><style type="text/css">
   <![CDATA[
    .fil1 {fill:#1B92D0}
    .fil0 {fill:#1D74A1}
    .fil2 {fill:#FFFFFE}
   ]]>
  </style></defs><g id="Layer_x0020_1"><circle class="fil0" cx="3.41333" cy="3.41333" r="3.41333"/><circle class="fil1" cx="3.41333" cy="3.41333" r="3.21667"/><path class="fil0" d="M5.29767 3.2058c0.0124134,0.0875984 0.0184331,0.176071 0.0184331,0.264543 0,1.03841 -0.841724,1.88028 -1.88017,1.88026 -0.0884606,0 -0.176681,-0.00643307 -0.264236,-0.0186929 -0.178752,0.104177 -0.380665,0.158661 -0.588071,0.158665 -0.645098,1.1811e-005 -1.16793,-0.523012 -1.16792,-1.16806 0,-0.207252 0.054315,-0.409339 0.158512,-0.587957 -0.0122913,-0.0875354 -0.0187559,-0.175874 -0.0187559,-0.26428 0,-1.03854 0.841929,-1.88047 1.88047,-1.88046 0.0884606,0 0.176811,0.00625197 0.26437,0.0186929 0.17865,-0.104268 0.380583,-0.158634 0.587925,-0.158669 0.64511,-0.000110236 1.16813,0.523067 1.16813,1.16813 0,0.207287 -0.054563,0.409177 -0.158677,0.587835zm-0.972256 0.712539c1.9685e-005,-0.0862795 -0.013815,-0.175539 -0.0561929,-0.251811 -0.0385315,-0.0693504 -0.0921181,-0.124953 -0.158406,-0.168508 -0.0809685,-0.0532008 -0.172469,-0.0921063 -0.264413,-0.121839 -0.119201,-0.0385394 -0.242016,-0.0685433 -0.364181,-0.0960591 -0.0796693,-0.0179409 -0.15948,-0.0371732 -0.238118,-0.059252 -0.0529488,-0.0148661 -0.104209,-0.0352874 -0.153209,-0.0602165 -0.0503031,-0.0255945 -0.0969606,-0.0589449 -0.132543,-0.103177 -0.0375827,-0.0467244 -0.0553268,-0.101402 -0.0553622,-0.161295 -6.69291e-005,-0.107622 0.0615827,-0.188075 0.148535,-0.245878 0.101551,-0.0675039 0.22563,-0.0888858 0.345622,-0.0890472 0.112732,-0.000149606 0.248705,0.0147362 0.340898,0.0859528 0.0755906,0.0583937 0.132213,0.137311 0.177646,0.220504 0.0203425,0.037252 0.0477362,0.080189 0.0796772,0.108732 0.0196614,0.0175669 0.0550709,0.0207717 0.0800197,0.020811 0.0405039,6.29921e-005 0.0741496,-0.0129488 0.10211,-0.042437 0.0260512,-0.0274764 0.0423543,-0.0586772 0.0423543,-0.0969449 0,-0.0523465 -0.0169843,-0.102665 -0.0412717,-0.14852 -0.0323268,-0.0610394 -0.0840827,-0.112961 -0.137815,-0.155457 -0.0724213,-0.0572717 -0.159374,-0.0964252 -0.246961,-0.124114 -0.115768,-0.0366024 -0.242583,-0.0479764 -0.363492,-0.0479764 -0.154362,0 -0.31448,0.0183504 -0.459752,0.0728307 -0.109681,0.0411299 -0.211713,0.102858 -0.283287,0.197354 -0.0639488,0.0844331 -0.0942677,0.179587 -0.0942677,0.285429 0,0.102134 0.0235748,0.199791 0.0875669,0.280972 0.0659685,0.083689 0.153606,0.142965 0.250819,0.18489 0.134181,0.0578701 0.280256,0.0978346 0.422894,0.128386 0.105811,0.0226614 0.214496,0.0469921 0.31772,0.0795748 0.0805433,0.0254252 0.155957,0.0642362 0.21761,0.122669 0.0661339,0.0626772 0.0955866,0.142917 0.0955827,0.233476 -7.87402e-006,0.126547 -0.0645709,0.223276 -0.166929,0.294091 -0.115709,0.0800512 -0.256043,0.10676 -0.394583,0.10676 -0.0958898,0 -0.199512,-0.0117441 -0.286866,-0.0537402 -0.0690039,-0.0331772 -0.13137,-0.0786181 -0.177524,-0.140315 -0.0442717,-0.0591772 -0.0796732,-0.126098 -0.108425,-0.194035 -0.0164291,-0.038815 -0.0395827,-0.0818898 -0.0720394,-0.109748 -0.0242874,-0.0208425 -0.0527992,-0.028752 -0.084563,-0.028752 -0.0408465,0 -0.0781181,0.0106732 -0.108157,0.0392835 -0.0260394,0.0247992 -0.0393819,0.0534291 -0.0393819,0.0894803 0,0.091815 0.0398386,0.178228 0.0908031,0.252669 0.063189,0.0922953 0.144547,0.164886 0.242902,0.218339 0.166878,0.0906969 0.369067,0.116886 0.556488,0.116886 0.165055,0 0.335406,-0.0217126 0.48848,-0.0862165 0.118323,-0.0498583 0.225528,-0.122335 0.299626,-0.228874 0.0679724,-0.0977283 0.100358,-0.205839 0.100386,-0.324878z"/><path class="fil2" d="M3.71685 1.69187c-0.0915748,-0.0144764 -0.185272,-0.0220709 -0.280921,-0.0220709 -0.994386,-7.87402e-006 -1.80047,0.806083 -1.80047,1.80047 0,0.0954488 0.00787008,0.189398 0.0220827,0.280902 -0.102472,0.165846 -0.161835,0.361587 -0.161839,0.571335 3.93701e-006,0.60085 0.486925,1.08807 1.08793,1.08807 0.209673,-7.87402e-006 0.405268,-0.0594409 0.571457,-0.161976 0.0917165,0.0142008 0.185134,0.022 0.28085,0.0220039 0.994386,0 1.80018,-0.806087 1.80018,-1.80026 0,-0.0955197 -0.00730709,-0.189488 -0.0218031,-0.281063 0.102417,-0.165976 0.162047,-0.361587 0.162047,-0.571315 3.93701e-006,-0.601004 -0.487256,-1.08814 -1.08812,-1.08814 -0.209803,7.08661e-005 -0.405409,0.059437 -0.571386,0.162047zm0.688563 2.22648c0,-0.114209 -0.0220157,-0.211276 -0.0662598,-0.290681 -0.0439488,-0.0793307 -0.105563,-0.145031 -0.184406,-0.196512 -0.0782913,-0.0517638 -0.172819,-0.0950866 -0.283732,-0.131098 -0.111205,-0.0358071 -0.234917,-0.0686535 -0.371217,-0.0979843 -0.108811,-0.0256024 -0.186953,-0.0449409 -0.234071,-0.0582323 -0.046563,-0.0130118 -0.0929055,-0.0311614 -0.138555,-0.0544961 -0.0455866,-0.0230866 -0.0810197,-0.050437 -0.106484,-0.0820157 -0.0251142,-0.0312992 -0.0375591,-0.067811 -0.0377008,-0.111205 0.000141732,-0.0692126 0.0366417,-0.128291 0.112823,-0.179209 0.0757441,-0.0500748 0.17611,-0.0756732 0.301445,-0.0756732 0.135528,-0.000362205 0.232866,0.0235472 0.291886,0.0692638 0.060626,0.0467047 0.112807,0.11176 0.156343,0.195539 0.0343898,0.0599961 0.066189,0.103098 0.0965827,0.130039 0.0310787,0.0279961 0.0759449,0.0411575 0.133201,0.0411575 0.0635079,0.00019685 0.117815,-0.0225787 0.160283,-0.0673937 0.0424961,-0.0447953 0.0642992,-0.0957874 0.0642992,-0.151984 0,-0.0604803 -0.0170315,-0.122457 -0.0505748,-0.185961 -0.0336181,-0.0633071 -0.0866417,-0.123642 -0.158886,-0.18076 -0.0726457,-0.0574685 -0.163524,-0.103114 -0.272469,-0.137646 -0.109295,-0.0344646 -0.238358,-0.0516969 -0.387606,-0.0516969 -0.18661,0 -0.3495,0.0259646 -0.487843,0.0779252 -0.138835,0.0519843 -0.24539,0.126618 -0.318965,0.223957 -0.0737126,0.097122 -0.110496,0.208882 -0.110496,0.333728 0,0.131028 0.0348937,0.241598 0.104736,0.330492 0.0696969,0.0881339 0.163795,0.157831 0.281965,0.208827 0.117957,0.0508425 0.263673,0.0951575 0.437823,0.13315 0.12976,0.0272756 0.233295,0.0532402 0.310394,0.0776417 0.0768661,0.0241969 0.138697,0.0590157 0.186661,0.104445 0.0474646,0.0450157 0.070622,0.102756 0.0706142,0.175409 0,0.0910197 -0.0429724,0.166406 -0.132445,0.228307 -0.0889646,0.0615433 -0.205224,0.0925512 -0.349071,0.0925512 -0.105134,0 -0.189059,-0.0153228 -0.252205,-0.0458425 -0.0638661,-0.0305394 -0.113177,-0.0695 -0.14813,-0.116134 -0.0352362,-0.0471929 -0.0683622,-0.106488 -0.098811,-0.177299 -0.0254606,-0.0611299 -0.0565551,-0.107331 -0.0936102,-0.139272 -0.0373622,-0.0319252 -0.0832205,-0.0480433 -0.136661,-0.0480433 -0.065126,0 -0.120421,0.0205433 -0.163327,0.0613504 -0.0424764,0.0405079 -0.0642087,0.0902205 -0.0642087,0.147409 0,0.0969173 0.0352402,0.196291 0.104791,0.297862 0.0694252,0.101425 0.159673,0.182787 0.270709,0.243433 0.156579,0.0846772 0.354984,0.126594 0.594689,0.126594 0.199949,0 0.373051,-0.0307323 0.519543,-0.0924921 0.146295,-0.0616142 0.258126,-0.147287 0.334236,-0.256917 0.0763071,-0.109512 0.114642,-0.233102 0.114709,-0.370535z"/></g></svg>