<?xml version="1.0" ?><!DOCTYPE svg  PUBLIC '-//W3C//DTD SVG 1.1//EN'  'http://www.w3.org/Graphics/SVG/1.1/DTD/svg11.dtd'><svg height="6.82666in" style="shape-rendering:geometricPrecision; text-rendering:geometricPrecision; image-rendering:optimizeQuality; fill-rule:evenodd; clip-rule:evenodd" viewBox="0 0 6.82666 6.82666" width="6.82666in" xml:space="preserve" xmlns="http://www.w3.org/2000/svg" xmlns:xlink="http://www.w3.org/1999/xlink"><defs><style type="text/css">
   <![CDATA[
    .fil1 {fill:#00C853}
    .fil0 {fill:#069B44}
    .fil2 {fill:#FFFFFE}
   ]]>
  </style></defs><g id="Layer_x0020_1"><circle class="fil0" cx="3.41333" cy="3.41333" r="3.41333"/><circle class="fil1" cx="3.41333" cy="3.41333" r="3.21667"/><path class="fil0" d="M2.39443 2.47576c0.141697,-0.121366 0.302087,-0.220937 0.476417,-0.288079 0.457425,-0.176169 0.994453,-0.144 1.42094,0.101067 0.373445,0.214587 0.668925,0.56828 0.792528,0.982929 0.0480551,0.161205 0.0781693,0.328555 0.0800276,0.497039 0.0042126,0.382283 -0.12237,0.766059 -0.356433,1.06871 -0.25172,0.325476 -0.62315,0.550193 -1.02715,0.626642 -0.331252,0.0626811 -0.678937,0.0177008 -0.987193,-0.116988 -0.368701,-0.161098 -0.67252,-0.463449 -0.841358,-0.828071 -0.0970551,-0.209594 -0.153394,-0.439976 -0.157594,-0.671177 -0.00709055,-0.390232 -0.00536614,-0.780547 -0.00304331,-1.17081 0.00214567,-0.359929 -0.00773622,-0.719831 -0.00302756,-1.07976 0.00129134,-0.0986378 0.0593661,-0.193835 0.151059,-0.233169 0.0937559,-0.0402165 0.203248,-0.0407953 0.297858,-0.00295276 0.0951732,0.0380669 0.156917,0.135898 0.156709,0.237614 -0.000606299,0.292339 -0.00112598,0.584681 0.000255906,0.877016zm2.15283 1.47302c0.0310866,-0.200724 0.00451969,-0.409976 -0.0737126,-0.59728 -0.0774173,-0.18535 -0.211343,-0.345791 -0.372315,-0.464736 -0.212004,-0.156654 -0.487346,-0.219272 -0.747579,-0.188976 -0.15639,0.0182047 -0.308996,0.0695315 -0.442878,0.15272 -0.126346,0.0785039 -0.233008,0.185622 -0.320937,0.304937 -0.279142,0.378795 -0.256374,0.949646 0.0399528,1.31236 0.0842795,0.103154 0.184429,0.195094 0.298433,0.264461 0.213921,0.130161 0.476008,0.177449 0.722693,0.137953 0.213705,-0.0342205 0.414709,-0.137193 0.569346,-0.288303 0.173028,-0.169083 0.289949,-0.393917 0.326996,-0.633138z"/><path class="fil2" d="M5.00765 3.29454c-0.115843,-0.395854 -0.400287,-0.732323 -0.75572,-0.936421 -0.406256,-0.233598 -0.916059,-0.257256 -1.35234,-0.0957795 -0.220626,0.088315 -0.420071,0.226417 -0.584024,0.398394 -0.00273622,-0.354094 0,-0.70813 -0.00139764,-1.06215 0.000559055,-0.0690906 -0.0417598,-0.137602 -0.106421,-0.163173 -0.0748583,-0.0302835 -0.162315,-0.0294252 -0.236614,0.00219685 -0.0623819,0.0269685 -0.101469,0.0935827 -0.102606,0.160697 -0.00331496,0.359783 0.00529134,0.71961 0.00303543,1.07919 -0.00219685,0.389787 0.00498819,0.779016 0.0030315,1.16889 0.00908268,0.219504 0.0585906,0.438732 0.150201,0.639016 0.162335,0.346331 0.451689,0.631835 0.800795,0.788382 0.294087,0.125146 0.625004,0.175787 0.940291,0.111689 0.386197,-0.0676732 0.740492,-0.286343 0.978744,-0.59698 0.224776,-0.288236 0.335909,-0.655488 0.33972,-1.01889 -0.00522835,-0.160697 -0.0299449,-0.321055 -0.0766969,-0.475067zm-0.381343 0.666488c-0.0365512,0.256701 -0.162256,0.499303 -0.350142,0.678106 -0.164512,0.165071 -0.382681,0.274307 -0.61261,0.310079 -0.2655,0.0437165 -0.546354,-0.00966142 -0.776921,-0.148602 -0.121272,-0.0745 -0.228311,-0.172177 -0.318799,-0.282189 -0.318803,-0.392882 -0.338106,-0.99972 -0.0424016,-1.41043 0.0952205,-0.126264 0.207189,-0.242327 0.343114,-0.325429 0.143311,-0.0904921 0.307803,-0.144709 0.475846,-0.164232 0.280634,-0.0327362 0.574941,0.0371102 0.80437,0.204098 0.171697,0.128795 0.31415,0.300134 0.398591,0.498244 0.0822677,0.201059 0.115004,0.425 0.0789528,0.640354z"/></g></svg>