<?xml version="1.0" ?><svg data-name="Layer 1" id="Layer_1" viewBox="0 0 128 128" xmlns="http://www.w3.org/2000/svg"><defs><style>.cls-1{fill:#627a83;}.cls-2{fill:#062b31;}</style></defs><title/><path class="cls-1" d="M64,99c-.85,0-28.36-.27-37-1.07-.44-.08-1-.14-1.54-.21-2.54-.3-6-.72-8.69-3.47-1.87-1.86-3.12-6.5-3.49-9A160.3,160.3,0,0,1,12.25,68.1V59.86a159.84,159.84,0,0,1,1.08-17.18c.36-2.43,1.62-7.07,3.45-8.9a12,12,0,0,1,8.34-3.59l.67-.07C40.88,29.05,63.74,29,64,29s23.14,0,38.24,1.09l.67.07a12,12,0,0,1,8.31,3.55c1.87,1.87,3.13,6.5,3.49,9a160.34,160.34,0,0,1,1.07,17.12v8.24a159.86,159.86,0,0,1-1.08,17.18c-.36,2.43-1.62,7.06-3.44,8.89a12.08,12.08,0,0,1-8.33,3.59l-.7.07C87.28,98.9,64.75,99,64,99Z"/><path class="cls-2" d="M64,32.29c.23,0,22.92,0,37.9,1.08l.66.07c2,.18,4.16.39,6.28,2.58l0,0,0,0c1,1,2.14,4.54,2.53,7.07a156,156,0,0,1,1,16.71v8.24a156.82,156.82,0,0,1-1,16.72c-.37,2.47-1.54,6.06-2.52,7l0,0,0,0c-2.11,2.18-4.32,2.39-6.27,2.58l-.68.07c-14.72,1-36.89,1.1-37.89,1.1-1.15,0-28-.27-36.57-1-.51-.08-1-.15-1.58-.21-2.28-.27-4.87-.58-6.73-2.51l0,0,0,0c-1-1-2.14-4.53-2.52-7.05a156,156,0,0,1-1-16.71V59.86a156.79,156.79,0,0,1,1-16.71c.39-2.55,1.55-6.09,2.53-7.07l0,0,0,0c2.12-2.19,4.33-2.39,6.28-2.58l.66-.06c15-1.07,37.67-1.08,37.89-1.08H64m0-6.5H64s-23.09,0-38.48,1.1c-2.15.25-6.83.27-11,4.59-3.29,3.3-4.37,10.79-4.37,10.79A162.25,162.25,0,0,0,9,59.86V68.1a162.19,162.19,0,0,0,1.1,17.59s1.07,7.49,4.37,10.78c4.19,4.32,9.68,4.19,12.13,4.65,8.8.83,37.4,1.09,37.4,1.09s23.11,0,38.51-1.13c2.15-.25,6.84-.28,11-4.6,3.29-3.29,4.37-10.78,4.37-10.78A162.27,162.27,0,0,0,119,68.11V59.87a162.27,162.27,0,0,0-1.1-17.59s-1.07-7.49-4.37-10.79c-4.18-4.32-8.87-4.35-11-4.59C87.11,25.79,64,25.79,64,25.79Z"/><polygon class="cls-2" points="54.13 47.61 54.13 80.39 82.12 64 54.13 47.61"/></svg>