<?xml version="1.0" ?><svg data-name="Layer 1" id="Layer_1" viewBox="0 0 128 128" xmlns="http://www.w3.org/2000/svg"><defs><style>.cls-1{fill:#627a83;}.cls-2{fill:#062b31;}</style></defs><title/><path class="cls-1" d="M52,110.27A56.66,56.66,0,0,1,20.58,101L11.3,94.16l11.47,1c1.32.11,2.64.17,3.93.17a36.23,36.23,0,0,0,15.81-3.33c-7.85-3-11.8-10.21-12.89-14.48l-1.19-4.63a22.72,22.72,0,0,1-5.41-15l.22-5.66,1.85,1.18a21.49,21.49,0,0,1,1.19-20.08l2.35-3.68,2.85,3.31C43.76,47.14,58.32,50.38,64.83,51.1c-.12-9.3,5-17.16,14.2-21.49a18.47,18.47,0,0,1,7.92-1.71,22.92,22.92,0,0,1,15,5.86c2.55-.64,6.62-1.9,9-3.56l6.46-4.54L116,33.44A14.65,14.65,0,0,1,114.75,37l6.37-3-2.56,7.28c-.24.67-1.75,4.2-9,10.24l.08,1.53h-.17c-.56,15.69-8.67,43.31-37.11,53.54A59.8,59.8,0,0,1,52,110.27Z"/><path class="cls-2" d="M86.94,31.16a19.58,19.58,0,0,1,14,6.17s7.64-1.5,11.86-4.47c0,0-1.06,5.88-8.09,10.38h.06c.54,0,4.48-.1,10.68-3,0,0-1.19,3.39-9.3,9.84v0c.49,15.26-7.06,43.47-35,53.51A56.36,56.36,0,0,1,52,107,53.69,53.69,0,0,1,22.5,98.35c1.46.12,2.85.18,4.2.18C43.21,98.53,51.22,90,50.78,90h-.61c-14,0-17.41-13.4-17.41-13.4a6.46,6.46,0,0,0,3.73.92,20.4,20.4,0,0,0,5-.72C25.67,73.11,26.26,58,26.26,58a13.45,13.45,0,0,0,7.2,2.26,7,7,0,0,0,1.26-.1C20.31,48.65,29,35,29,35c16.26,18.87,36.25,19.54,39,19.54h.33c-1.48-8.86,2.17-17.37,12-22a15.35,15.35,0,0,1,6.54-1.4M106.2,50.1v0M122,18.47l-12.93,9.08a24,24,0,0,1-6.34,2.65,26.17,26.17,0,0,0-15.83-5.54h0a21.69,21.69,0,0,0-9.3,2C68.46,31,62.88,38.42,61.77,47.36A49.25,49.25,0,0,1,33.94,30.78l-5.7-6.61-4.7,7.36a25.19,25.19,0,0,0-3.4,16.66l-.37,9.53a26.23,26.23,0,0,0,5.69,16.68l1,3.9a26.17,26.17,0,0,0,8.36,12.89A37.24,37.24,0,0,1,26.7,92C25.5,92,24.27,92,23,91.87L.1,90l18.55,13.63A60.21,60.21,0,0,0,52,113.52a63,63,0,0,0,21.38-3.8,57.06,57.06,0,0,0,31.7-27.91,68.92,68.92,0,0,0,7.57-28.65c6.63-5.71,8.45-9.35,8.94-10.74l5.12-14.57-7,3.26L122,18.47Z"/></svg>