<?xml version="1.0" ?><svg id="Layer_1" style="enable-background:new 0 0 512 512;" version="1.1" viewBox="0 0 512 512" xml:space="preserve" xmlns="http://www.w3.org/2000/svg" xmlns:xlink="http://www.w3.org/1999/xlink"><style type="text/css">
	.st0{fill:none;stroke:#020202;stroke-width:2;stroke-miterlimit:10;}
	.st1{fill:none;stroke:#020202;stroke-width:2;stroke-linecap:round;stroke-linejoin:round;stroke-miterlimit:10;}
	.st2{fill:#020202;}
	.st3{fill:none;stroke:#020202;stroke-miterlimit:10;}
	.st4{clip-path:url(#SVGID_2_);}
</style><circle class="st0" cx="256" cy="256" r="231.4"/><circle class="st1" cx="256" cy="256" r="202.3"/><g><path class="st2" d="M256.1,53.3c-2.6,0-13.4-20.3,0-20.3C269.1,33.2,258.4,53.3,256.1,53.3z"/><path class="st2" d="M273.7,54.1c-2.6-0.2-11.5-21.4,1.8-20.2C288.5,35.2,276,54.3,273.7,54.1z"/><path class="st2" d="M291.2,56.4c-2.6-0.5-9.6-22.3,3.6-20C307.6,38.9,293.5,56.8,291.2,56.4z"/><path class="st2" d="M308.5,60.3c-2.6-0.7-7.6-23.1,5.3-19.6C326.3,44.2,310.7,60.9,308.5,60.3z"/><path class="st2" d="M325.4,65.6c-2.5-0.9-5.6-23.7,7-19.1C344.5,51.1,327.5,66.4,325.4,65.6z"/><path class="st2" d="M341.7,72.4c-2.4-1.1-3.5-24.1,8.6-18.4C362,59.6,343.8,73.3,341.7,72.4z"/><path class="st2" d="M357.4,80.5c-2.3-1.3-1.4-24.3,10.2-17.6C378.7,69.6,359.4,81.7,357.4,80.5z"/><path class="st2" d="M372.3,90c-2.2-1.5,0.7-24.3,11.7-16.6C394.5,81,374.2,91.3,372.3,90z"/><path class="st2" d="M386.3,100.8c-2-1.7,2.8-24.2,13.1-15.5C409.2,93.8,388.1,102.3,386.3,100.8z"/><path class="st2" d="M399.3,112.7c-1.9-1.9,4.9-23.8,14.4-14.3C422.8,107.7,401,114.4,399.3,112.7z"/><path class="st2" d="M411.3,125.8c-1.7-2,7-23.3,15.6-13C435.1,122.8,412.8,127.5,411.3,125.8z"/><path class="st2" d="M422,139.8c-1.5-2.2,9-22.6,16.7-11.6C446,138.9,423.4,141.7,422,139.8z"/><path class="st2" d="M431.5,154.7c-1.3-2.3,10.9-21.7,17.6-10.1C455.5,155.9,432.7,156.7,431.5,154.7z"/><path class="st2" d="M439.7,170.4c-1.1-2.4,12.8-20.7,18.4-8.6C463.4,173.7,440.7,172.5,439.7,170.4z"/><path class="st2" d="M446.5,186.7c-0.9-2.5,14.5-19.5,19.1-6.9C469.8,192.1,447.2,188.9,446.5,186.7z"/><path class="st2" d="M451.8,203.6c-0.7-2.6,16.2-18.2,19.6-5.2C474.6,211,452.4,205.8,451.8,203.6z"/><path class="st2" d="M455.6,220.9c-0.5-2.6,17.7-16.7,20-3.5C477.7,230.2,456,223.1,455.6,220.9z"/><path class="st2" d="M457.9,238.4c-0.2-2.6,19.1-15.1,20.3-1.7C479.1,249.6,458.1,240.7,457.9,238.4z"/><path class="st2" d="M458.7,256.1c0-2.6,20.3-13.4,20.3,0C478.8,269.1,458.7,258.4,458.7,256.1z"/><path class="st2" d="M457.9,273.7c0.2-2.6,21.4-11.5,20.2,1.8C476.8,288.5,457.7,276,457.9,273.7z"/><path class="st2" d="M455.6,291.2c0.5-2.6,22.3-9.6,20,3.6C473.1,307.6,455.2,293.5,455.6,291.2z"/><path class="st2" d="M451.7,308.5c0.7-2.6,23.1-7.6,19.6,5.3C467.8,326.3,451.1,310.7,451.7,308.5z"/><path class="st2" d="M446.4,325.4c0.9-2.5,23.7-5.6,19.1,7C460.9,344.5,445.6,327.5,446.4,325.4z"/><path class="st2" d="M439.6,341.7c1.1-2.4,24.1-3.5,18.4,8.6C452.4,362,438.7,343.8,439.6,341.7z"/><path class="st2" d="M431.5,357.4c1.3-2.3,24.3-1.4,17.6,10.2C442.4,378.7,430.3,359.4,431.5,357.4z"/><path class="st2" d="M422,372.3c1.5-2.2,24.3,0.7,16.6,11.7C431,394.5,420.7,374.2,422,372.3z"/><path class="st2" d="M411.2,386.3c1.7-2,24.2,2.8,15.5,13.1C418.2,409.2,409.7,388.1,411.2,386.3z"/><path class="st2" d="M399.3,399.3c1.9-1.9,23.8,4.9,14.3,14.4C404.3,422.8,397.6,401,399.3,399.3z"/><path class="st2" d="M386.2,411.3c2-1.7,23.3,7,13,15.6C389.2,435.1,384.5,412.8,386.2,411.3z"/><path class="st2" d="M372.2,422c2.2-1.5,22.6,9,11.6,16.7C373.1,446,370.3,423.4,372.2,422z"/><path class="st2" d="M357.3,431.5c2.3-1.3,21.7,10.9,10.1,17.6C356.1,455.5,355.3,432.7,357.3,431.5z"/><path class="st2" d="M341.6,439.7c2.4-1.1,20.7,12.8,8.6,18.4C338.3,463.4,339.5,440.7,341.6,439.7z"/><path class="st2" d="M325.3,446.5c2.5-0.9,19.5,14.5,6.9,19.1C319.9,469.8,323.1,447.2,325.3,446.5z"/><path class="st2" d="M308.4,451.8c2.6-0.7,18.2,16.2,5.2,19.6C301,474.6,306.2,452.4,308.4,451.8z"/><path class="st2" d="M291.1,455.6c2.6-0.5,16.7,17.7,3.5,20C281.8,477.7,288.9,456,291.1,455.6z"/><path class="st2" d="M273.6,457.9c2.6-0.2,15.1,19.1,1.7,20.3C262.4,479.1,271.3,458.1,273.6,457.9z"/><path class="st2" d="M255.9,458.7c2.6,0,13.4,20.3,0,20.3C242.9,478.8,253.6,458.7,255.9,458.7z"/><path class="st2" d="M238.3,457.9c2.6,0.2,11.5,21.4-1.8,20.2C223.5,476.8,236,457.7,238.3,457.9z"/><path class="st2" d="M220.8,455.6c2.6,0.5,9.6,22.3-3.6,20C204.4,473.1,218.5,455.2,220.8,455.6z"/><path class="st2" d="M203.5,451.7c2.6,0.7,7.6,23.1-5.3,19.6C185.7,467.8,201.3,451.1,203.5,451.7z"/><path class="st2" d="M186.6,446.4c2.5,0.9,5.6,23.7-7,19.1C167.5,460.9,184.5,445.6,186.6,446.4z"/><path class="st2" d="M170.3,439.6c2.4,1.1,3.5,24.1-8.6,18.4C150,452.4,168.2,438.7,170.3,439.6z"/><path class="st2" d="M154.6,431.5c2.3,1.3,1.4,24.3-10.2,17.6C133.3,442.4,152.6,430.3,154.6,431.5z"/><path class="st2" d="M139.7,422c2.2,1.5-0.7,24.3-11.7,16.6C117.5,431,137.8,420.7,139.7,422z"/><path class="st2" d="M125.7,411.2c2,1.7-2.8,24.2-13.1,15.5C102.8,418.2,123.9,409.7,125.7,411.2z"/><path class="st2" d="M112.7,399.3c1.9,1.9-4.9,23.8-14.4,14.3C89.2,404.3,111,397.6,112.7,399.3z"/><path class="st2" d="M100.7,386.2c1.7,2-7,23.3-15.6,13C76.9,389.2,99.2,384.5,100.7,386.2z"/><path class="st2" d="M90,372.2c1.5,2.2-9,22.6-16.7,11.6C66,373.1,88.6,370.3,90,372.2z"/><path class="st2" d="M80.5,357.3c1.3,2.3-10.9,21.7-17.6,10.1C56.5,356.1,79.3,355.3,80.5,357.3z"/><path class="st2" d="M72.3,341.6c1.1,2.4-12.8,20.7-18.4,8.6C48.6,338.3,71.3,339.5,72.3,341.6z"/><path class="st2" d="M65.5,325.3c0.9,2.5-14.5,19.5-19.1,6.9C42.2,319.9,64.8,323.1,65.5,325.3z"/><path class="st2" d="M60.2,308.4c0.7,2.6-16.2,18.2-19.6,5.2C37.4,301,59.6,306.2,60.2,308.4z"/><path class="st2" d="M56.4,291.1c0.5,2.6-17.7,16.7-20,3.5C34.3,281.8,56,288.9,56.4,291.1z"/><path class="st2" d="M54.1,273.6c0.2,2.6-19.1,15.1-20.3,1.7C32.9,262.4,53.9,271.3,54.1,273.6z"/><path class="st2" d="M53.3,255.9c0,2.6-20.3,13.4-20.3,0C33.2,242.9,53.3,253.6,53.3,255.9z"/><path class="st2" d="M54.1,238.3c-0.2,2.6-21.4,11.5-20.2-1.8C35.2,223.5,54.3,236,54.1,238.3z"/><path class="st2" d="M56.4,220.8c-0.5,2.6-22.3,9.6-20-3.6C38.9,204.4,56.8,218.5,56.4,220.8z"/><path class="st2" d="M60.3,203.5c-0.7,2.6-23.1,7.6-19.6-5.3C44.2,185.7,60.9,201.3,60.3,203.5z"/><path class="st2" d="M65.6,186.6c-0.9,2.5-23.7,5.6-19.1-7C51.1,167.5,66.4,184.5,65.6,186.6z"/><path class="st2" d="M72.4,170.3c-1.1,2.4-24.1,3.5-18.4-8.6C59.6,150,73.3,168.2,72.4,170.3z"/><path class="st2" d="M80.5,154.6c-1.3,2.3-24.3,1.4-17.6-10.2C69.6,133.3,81.7,152.6,80.5,154.6z"/><path class="st2" d="M90,139.7c-1.5,2.2-24.3-0.7-16.6-11.7C81,117.5,91.3,137.8,90,139.7z"/><path class="st2" d="M100.8,125.7c-1.7,2-24.2-2.8-15.5-13.1C93.8,102.8,102.3,123.9,100.8,125.7z"/><path class="st2" d="M112.7,112.7c-1.9,1.9-23.8-4.9-14.3-14.4C107.7,89.2,114.4,111,112.7,112.7z"/><path class="st2" d="M125.8,100.7c-2,1.7-23.3-7-13-15.6C122.8,76.9,127.5,99.2,125.8,100.7z"/><path class="st2" d="M139.8,90c-2.2,1.5-22.6-9-11.6-16.7C138.9,66,141.7,88.6,139.8,90z"/><path class="st2" d="M154.7,80.5c-2.3,1.3-21.7-10.9-10.1-17.6C155.9,56.5,156.7,79.3,154.7,80.5z"/><path class="st2" d="M170.4,72.3c-2.4,1.1-20.7-12.8-8.6-18.4C173.7,48.6,172.5,71.3,170.4,72.3z"/><path class="st2" d="M186.7,65.5c-2.5,0.9-19.5-14.5-6.9-19.1C192.1,42.2,188.9,64.8,186.7,65.5z"/><path class="st2" d="M203.6,60.2c-2.6,0.7-18.2-16.2-5.2-19.6C211,37.4,205.8,59.6,203.6,60.2z"/><path class="st2" d="M220.9,56.4c-2.6,0.5-16.7-17.7-3.5-20C230.2,34.3,223.1,56,220.9,56.4z"/><path class="st2" d="M238.4,54.1c-2.6,0.2-15.1-19.1-1.7-20.3C249.6,32.9,240.7,53.9,238.4,54.1z"/></g><path class="st3" d="M243.3,30.8"/><g><g><defs><rect height="160.8" id="SVGID_1_" width="248.9" x="131.6" y="175.6"/></defs><clipPath id="SVGID_2_"><use style="overflow:visible;" xlink:href="#SVGID_1_"/></clipPath><path class="st4" d="M323.4,213.3c-31.6,0-46.6,16.7-53.6,30.8c-4.7,9.4-6.5,18.7-7.1,24.5c-1.4-5.6-4-11.7-8.5-16.5    c-2.3-2.4-4.9-4.3-7.8-5.7c6.5-4.4,12.9-12.4,12.9-27.3c0-13.8-4.7-25.1-13.6-32.8c-8.2-7.1-19.4-10.8-32.5-10.8h-77.4    c-2.2,0-4,1.8-4,4v148.8c0,2.2,1.8,4,4,4H213c0.1,0,0.3,0,0.6,0c3.4,0,15.5-0.5,27.1-6.4c9.6-4.9,20.9-14.7,23.2-34    c1.9,8.3,5.7,18.1,13.4,26.3c10.6,11.4,26.1,17.2,46,17.2c0.3,0,1,0,2.1,0c5,0,17.9-0.6,29.7-6.2c15.2-7.2,23.2-20.1,23.2-37.5    c0-2.2-1.8-4-4-4h-26.2c-1.1,0-2.1,0.4-2.9,1.2c-0.8,0.8-1.2,1.8-1.1,2.9c0,0.1,0.1,3.7-3,6.8c-3.3,3.3-9.1,5.1-16.9,5.1    c-0.1,0-0.2,0-0.3,0c-0.1,0-0.3,0-0.7,0c-1.6,0-7.3-0.2-12.3-3.2c-5-3-7.9-7.9-8.7-14.7h72.9c2,0,3.7-1.5,4-3.5    c0.2-1.3,4-32.2-13.8-52.5C355.6,218.9,341.5,213.3,323.4,213.3L323.4,213.3z M302.9,258.1c2.1-5.8,7.6-14.9,21-14.9    c5.7,0,10.1,1.6,13.2,4.7c3.1,3.1,4.4,7.2,5,10.2H302.9z M173.7,266.1H213c1.2,0,11.7,0.5,11.7,16.4c0,10.4-4.3,15.1-13.9,15.3    h-37.1V266.1z M210.3,235.1h-36.6v-25.2h39.2c1.1,0,6.6,0.8,6.6,11.5C219.5,235.1,214.6,235.1,210.3,235.1L210.3,235.1z     M210.3,235.1"/></g><path d="M291.3,208.1h61.4c2.2,0,4-1.8,4-4v-18.3c0-2.2-1.8-4-4-4h-61.4c-2.2,0-4,1.8-4,4v18.3   C287.3,206.3,289.1,208.1,291.3,208.1L291.3,208.1z M291.3,208.1"/></g></svg>