<?xml version="1.0" ?><svg height="48" viewBox="0 0 48 48" width="48" xmlns="http://www.w3.org/2000/svg"><defs><style>.cls-1{fill:#d0d7df;}.cls-2{fill:#f1f2f2;}.cls-3{fill:#fc934e;}.cls-4{fill:none;stroke:#474c54;stroke-linecap:round;stroke-linejoin:round;stroke-width:2px;}</style></defs><title/><g data-name="18-Blogger" id="_18-Blogger"><g data-name="&lt;Group&gt;" id="_Group_"><path class="cls-1" d="M47,7V41a6,6,0,0,1-6,6H7a6,6,0,0,1-6-6V7A6,6,0,0,1,7,1H41A6,6,0,0,1,47,7ZM39,34V22s0-4-4-4H32V14a6,6,0,0,0-6-6H15a6,6,0,0,0-6,6V34a6,6,0,0,0,6,6H33A6,6,0,0,0,39,34Z"/><rect class="cls-2" height="6" rx="2" ry="2" width="18" x="15" y="26"/><rect class="cls-2" height="5" rx="2" ry="2" width="11" x="15" y="13"/><path class="cls-3" d="M39,22V34a6,6,0,0,1-6,6H15a6,6,0,0,1-6-6V14a6,6,0,0,1,6-6H26a6,6,0,0,1,6,6v4h3C39,18,39,22,39,22Zm-6,8V28a2.006,2.006,0,0,0-2-2H17a2.006,2.006,0,0,0-2,2v2a2.006,2.006,0,0,0,2,2H31A2.006,2.006,0,0,0,33,30ZM26,16V15a2.006,2.006,0,0,0-2-2H17a2.006,2.006,0,0,0-2,2v1a2.006,2.006,0,0,0,2,2h7A2.006,2.006,0,0,0,26,16Z"/><rect class="cls-4" height="46" rx="6" ry="6" width="46" x="1" y="1"/><path class="cls-4" d="M39,34a6,6,0,0,1-6,6H15a6,6,0,0,1-6-6V14a6,6,0,0,1,6-6H26a6,6,0,0,1,6,6v4h3"/><line class="cls-4" x1="39" x2="39" y1="34" y2="22"/><path class="cls-4" d="M39,22s0-4-4-4"/><rect class="cls-4" height="5" rx="2" ry="2" width="11" x="15" y="13"/><rect class="cls-4" height="6" rx="2" ry="2" width="18" x="15" y="26"/></g></g></svg>