<?xml version="1.0" ?><svg height="48" viewBox="0 0 48 48" width="48" xmlns="http://www.w3.org/2000/svg"><defs><style>.cls-1{fill:#49aaee;}.cls-2{fill:none;stroke:#474c54;stroke-linecap:round;stroke-linejoin:round;stroke-width:2px;}</style></defs><title/><g data-name="3-Skype" id="_3-Skype"><g data-name="&lt;Group&gt;" id="_Group_"><path class="cls-1" d="M44.13,32.87A7.994,7.994,0,1,1,32.87,44.13a22,22,0,0,1-29-29A7.994,7.994,0,1,1,15.13,3.87a22,22,0,0,1,29,29Z"/><path class="cls-2" d="M44.13,32.87a22,22,0,0,0-29-29A7.994,7.994,0,1,0,3.87,15.13a22,22,0,0,0,29,29A7.994,7.994,0,1,0,44.13,32.87Z"/></g><path class="cls-2" d="M30,20V18a4,4,0,0,0-4-4H22a4,4,0,0,0-4,4v2a4,4,0,0,0,4,4h2"/><path class="cls-2" d="M18,28v2a4,4,0,0,0,4,4h4a4,4,0,0,0,4-4V28a4,4,0,0,0-4-4H24"/></g></svg>