<?xml version="1.0" ?><svg height="48" viewBox="0 0 48 48" width="48" xmlns="http://www.w3.org/2000/svg"><defs><style>.cls-1{fill:#f1f2f2;}.cls-2{fill:#fa5c66;}.cls-3{fill:none;stroke:#474c54;stroke-linecap:round;stroke-linejoin:round;stroke-width:2px;}</style></defs><title/><g data-name="5-Youtube" id="_5-Youtube"><g data-name="&lt;Group&gt;" id="_Group_"><polygon class="cls-1" points="28 22 20 26 20 18 28 22"/><path class="cls-2" d="M47,7V41a6,6,0,0,1-6,6H7a6,6,0,0,1-6-6V7A6,6,0,0,1,7,1H41A6,6,0,0,1,47,7ZM20,26l8-4-8-4Z"/><rect class="cls-3" height="46" rx="6" ry="6" width="46" x="1" y="1"/><polyline class="cls-3" points="6 39 13 39 30 39"/><line class="cls-3" x1="34" x2="36" y1="39" y2="39"/><line class="cls-3" x1="40" x2="42" y1="39" y2="39"/><polyline class="cls-3" points="13 37 13 39 13 41"/><polygon class="cls-3" points="20 26 20 18 28 22 20 26"/></g></g></svg>