<?xml version="1.0" ?><svg height="48" viewBox="0 0 48 48" width="48" xmlns="http://www.w3.org/2000/svg"><defs><style>.cls-1{fill:#4c7ee7;}.cls-2{fill:#49aaee;}.cls-3{fill:none;stroke:#474c54;stroke-linecap:round;stroke-linejoin:round;stroke-width:2px;}</style></defs><title/><g data-name="23-Paypal" id="_23-Paypal"><g data-name="&lt;Group&gt;" id="_Group_"><path class="cls-1" d="M35,11v6A10,10,0,0,1,25,27H15.93L19,6H33.66A9.966,9.966,0,0,1,35,11Z"/><path class="cls-2" d="M47,16v6A10,10,0,0,1,37,32H23L21,47H13l2.2-15.03L15.93,27H25A10,10,0,0,0,35,17V11a9.966,9.966,0,0,0-1.34-5H37A9.99,9.99,0,0,1,47,16Z"/><path class="cls-2" d="M33.66,6H19L15.93,27H12L9,47H1L7,1H25A9.993,9.993,0,0,1,33.66,6Z"/><path class="cls-3" d="M15.93,27H12L9,47H1L7,1H25A10,10,0,0,1,35,11v6A10,10,0,0,1,25,27Z"/><path class="cls-3" d="M15.2,31.97,13,47h8l2-15H37A10,10,0,0,0,47,22V16a10.011,10.011,0,0,0-5.98-9.16"/><polyline class="cls-3" points="28 6 19 6 16.653 22.054"/></g></g></svg>