<?xml version="1.0" ?><svg height="48" viewBox="0 0 48 48" width="48" xmlns="http://www.w3.org/2000/svg"><defs><style>.cls-1{fill:#f97f3e;}.cls-2{fill:#49aaee;}.cls-3{fill:none;stroke:#474c54;stroke-linecap:round;stroke-linejoin:round;stroke-width:2px;}</style></defs><title/><g data-name="24- Periscope" id="_24-_Periscope"><g data-name="&lt;Group&gt;" id="_Group_"><path class="cls-1" d="M24.75,9.04a9,9,0,1,1-9.71,9.71A7.915,7.915,0,0,0,17,19a8,8,0,0,0,8-8A7.915,7.915,0,0,0,24.75,9.04Z"/><path class="cls-2" d="M24,1A18,18,0,0,1,42,19c0,12-18,28-18,28S6,31,6,19A18,18,0,0,1,24,1Zm9,17a8.99,8.99,0,0,0-8.25-8.96A7.915,7.915,0,0,1,25,11a8,8,0,0,1-8,8,7.915,7.915,0,0,1-1.96-.25A9,9,0,0,0,33,18Z"/><path class="cls-3" d="M42,19A18,18,0,0,0,6,19C6,31,24,47,24,47S42,31,42,19Z"/><path class="cls-3" d="M24.75,9.04A7.915,7.915,0,0,1,25,11a8,8,0,0,1-8,8,7.915,7.915,0,0,1-1.96-.25,9,9,0,1,0,9.71-9.71Z"/></g></g></svg>