<?xml version="1.0" ?><svg data-name="1-Facebook" height="48" id="_1-Facebook" viewBox="0 0 48 48" width="48" xmlns="http://www.w3.org/2000/svg"><defs><style>.cls-1{fill:#f1f2f2;}.cls-2{fill:#49aaee;}.cls-3{fill:none;stroke:#474c54;stroke-linecap:round;stroke-linejoin:round;stroke-width:2px;}</style></defs><title/><g data-name="&lt;Group&gt;" id="_Group_"><path class="cls-1" d="M35,23l-2,7H27V46l.1.78A21.145,21.145,0,0,1,24,47a22.277,22.277,0,0,1-5-.56V30H13V23h6V11a2.938,2.938,0,0,1,3-3H34v7H27v8Z"/><path class="cls-2" d="M24,1a22.995,22.995,0,0,1,3.1,45.78L27,46V30h6l2-7H27V15h7V8H22a2.938,2.938,0,0,0-3,3V23H13v7h6V46.44A22.994,22.994,0,0,1,24,1Z"/><path class="cls-3" d="M27,46V30h6l2-7H27V15h7V8H22a2.938,2.938,0,0,0-3,3V23H13v7h6V42"/><path class="cls-3" d="M19,46.44a23,23,0,1,1,8.1.34A21.145,21.145,0,0,1,24,47,22.277,22.277,0,0,1,19,46.44Z"/></g></svg>