<?xml version="1.0" ?><svg height="48" viewBox="0 0 48 48" width="48" xmlns="http://www.w3.org/2000/svg"><defs><style>.cls-1{fill:none;stroke:#000;stroke-linecap:round;stroke-linejoin:round;stroke-width:2px;}</style></defs><title/><g data-name="3-Skype" id="_3-Skype"><path class="cls-1" d="M44.134,32.868a22,22,0,0,0-29-29A8,8,0,1,0,3.866,15.132a22,22,0,0,0,29,29A8,8,0,1,0,44.134,32.868Z"/><path class="cls-1" d="M30,20V18a4,4,0,0,0-4-4H22a4,4,0,0,0-4,4v2a4,4,0,0,0,4,4h2"/><path class="cls-1" d="M18,28v2a4,4,0,0,0,4,4h4a4,4,0,0,0,4-4V28a4,4,0,0,0-4-4H24"/></g></svg>