<?xml version="1.0" ?><svg height="48" viewBox="0 0 48 48" width="48" xmlns="http://www.w3.org/2000/svg"><defs><style>.cls-1{fill:#d0d7df;}.cls-2{fill:#f1f2f2;}.cls-3{fill:#a263e5;}.cls-4{fill:#a4b0c0;}</style></defs><title/><g data-name="28-Twitch" id="_28-Twitch"><g data-name="&lt;Group&gt;" id="_Group_"><rect class="cls-1" height="11" rx="1" ry="1" width="6" x="27" y="15"/><rect class="cls-1" height="11" rx="1" ry="1" width="6" x="15" y="15"/><path class="cls-2" d="M41,9V27l-5,5H27l-5,5V32H7V12l3-3ZM33,25V16a1,1,0,0,0-1-1H28a1,1,0,0,0-1,1v9a1,1,0,0,0,1,1h4A1,1,0,0,0,33,25ZM21,25V16a1,1,0,0,0-1-1H16a1,1,0,0,0-1,1v9a1,1,0,0,0,1,1h4A1,1,0,0,0,21,25Z"/><path class="cls-3" d="M47,3V28L36,39H28l-5,6H17V39H1V8L6,3ZM41,27V9H10L7,12V32H22v5l5-5h9Z"/><path class="cls-4" d="M20,27H16a2,2,0,0,1-2-2V16a2,2,0,0,1,2-2h4a2,2,0,0,1,2,2v9A2,2,0,0,1,20,27Zm-4-2,4,0V16H16Z"/><path class="cls-4" d="M32,27H28a2,2,0,0,1-2-2V16a2,2,0,0,1,2-2h4a2,2,0,0,1,2,2v9A2,2,0,0,1,32,27Zm-4-2,4,0V16H28Z"/></g></g></svg>