<?xml version="1.0" ?><svg viewBox="0 0 64 64" xmlns="http://www.w3.org/2000/svg"><defs><style>.cls-1{fill:none;stroke:#000;stroke-linecap:round;stroke-linejoin:round;stroke-width:2px;}</style></defs><title/><g data-name="Layer 6" id="Layer_6"><path class="cls-1" d="M50.47,17.15V46.23a4.64,4.64,0,0,1-4.62,4.63H17.27a4.64,4.64,0,0,1-4.62-4.62V17.15a4.64,4.64,0,0,1,4.62-4.62H45.85"/><circle cx="50.52" cy="13.82" r="1"/><polyline class="cls-1" points="31.94 23.17 25.93 28.11 25.41 28.54 19.5 23.88 24.83 19.58 26.09 18.56"/><polygon class="cls-1" points="44.5 33.07 37.91 38.4 32.06 33.79 26.16 29.13 25.41 28.54 25.93 28.11 31.94 23.17 38.59 28.41 44.5 33.07"/><polygon class="cls-1" points="32.06 33.79 28.72 36.53 26.3 38.52 19.59 33.33 25.41 28.54 26.16 29.13 32.06 33.79"/><polyline class="cls-1" points="42.03 25.59 38.59 28.41 32.06 33.79 26.16 29.13 25.41 28.54 25.93 28.11 31.94 23.17 37.7 18.44 44.41 23.63"/><polyline class="cls-1" points="32 37.58 32 45.56 35.73 42.68"/><line class="cls-1" x1="32" x2="28.03" y1="45.56" y2="43.15"/></g></svg>