<?xml version="1.0" ?><svg viewBox="0 0 64 64" xmlns="http://www.w3.org/2000/svg"><defs><style>.cls-1{fill:none;stroke:#000;stroke-linecap:round;stroke-linejoin:round;stroke-width:2px;}</style></defs><title/><g data-name="Layer 5" id="Layer_5"><path class="cls-1" d="M16.8,31.81v-.15a15,15,0,0,1,8.55-13.52"/><path class="cls-1" d="M38.65,18.37a15,15,0,0,1,8.07,13.28H36.62"/><polyline class="cls-1" points="30.57 31.75 36.62 31.65 46.73 31.65"/><line class="cls-1" x1="45.96" x2="36.29" y1="36.38" y2="36.38"/><path class="cls-1" d="M49.92,20.69A4.43,4.43,0,0,0,49,16.77c-1.78-1.8-5.72-1-10.38,1.6a49.4,49.4,0,0,0-10,7.68h0l-.5.5-.05.05-.09.1a46.45,46.45,0,0,0-9.19,12.45c-1.77,3.77-2.09,6.85-.56,8.38,1.72,1.72,5.46,1.07,9.92-1.35"/><path class="cls-1" d="M13.45,41.63C13.13,36,18,28.26,26.07,22.35c7.65-5.58,16-7.91,21.34-6.44l.42.13a2.56,2.56,0,0,1,.33.13"/><path class="cls-1" d="M19.74,48.35h-.06"/><circle cx="49.35" cy="24.35" r="1.27"/><path class="cls-1" d="M22.46,43.37a14.9,14.9,0,0,0,5.73,2.82,15.73,15.73,0,0,0,3.58.42A15,15,0,0,0,46,36.38H36.29a4.83,4.83,0,0,1-9,0,4.61,4.61,0,0,1-.33-1.73V29.79A4.85,4.85,0,0,1,28,26.71l.09-.1.05-.05h0a1.36,1.36,0,0,1,.33-.33l.14-.15h0a4.85,4.85,0,0,1,3.08-1.11,4.38,4.38,0,0,1,4.47,3.64"/></g></svg>