<?xml version="1.0" ?><!DOCTYPE svg  PUBLIC '-//W3C//DTD SVG 1.1//EN'  'http://www.w3.org/Graphics/SVG/1.1/DTD/svg11.dtd'><svg enable-background="new 0 0 128 128" id="Layer_1" version="1.1" viewBox="0 0 128 128" xml:space="preserve" xmlns="http://www.w3.org/2000/svg" xmlns:xlink="http://www.w3.org/1999/xlink"><g><path d="M94,34h-9.7H43.7H34c-1,0-1.9,0.4-2.5,1l0,0c-0.7,0.7-1.1,1.7-1.2,2.7l-3.6,72.9c0,0,0,0,0,0.2   c0,0.9,0.4,1.7,1,2.3c0.6,0.6,1.5,1.1,2.5,1.1l0,0l0.2,0h67.3l0.2,0v0l0,0c1,0,1.8-0.5,2.5-1.1c0.6-0.6,1-1.4,1-2.3   c0-0.1,0-0.1,0-0.2l-3.6-72.9c-0.1-1-0.5-2-1.1-2.7c0,0-0.1-0.1-0.1-0.1C95.9,34.4,95,34,94,34z M45.8,30h36.3   c-0.5-4.2-2.4-8-5.2-10.9c-3.3-3.3-7.9-5.3-12.9-5.3c-5,0-9.6,2-12.9,5.3C48.2,21.9,46.3,25.7,45.8,30z M62,70.6v-9.3   c-1.2,0.2-2.3,0.7-3.3,1.4c-1.5,1-2.3,2.4-2.3,4c0,0.8,0.2,1.4,0.5,1.9c0.3,0.5,1,0.9,1.8,1.2c0.9,0.3,1.6,0.5,2.2,0.6   C61.2,70.5,61.6,70.5,62,70.6z M66,76.6v10.2c1.4-0.2,2.7-0.6,3.7-1.3c1.5-0.9,2.3-2.2,2.3-3.9c0-1.7-0.7-2.9-2-3.7   C69,77.4,67.7,77,66,76.6z M62,52.3c0-1.1,0.9-2,2-2c1.1,0,2,0.9,2,2v3.6c3.4,0.1,6.3,0.8,8.7,1.8c1.4,0.7,2.1,1.6,2.1,2.5   c0,1.9-0.9,2.9-2.7,2.9c-0.4,0-1.6-0.3-3.7-1c-1.5-0.5-2.9-0.8-4.4-0.9v10c3.6,0.6,6.5,1.5,8.6,2.9c2.3,1.5,3.4,3.9,3.4,7.2   c0,3.5-1.3,6.2-4,8.2c-2.1,1.6-4.8,2.6-8.1,2.9V96c0,1.1-0.9,2-2,2c-1.1,0-2-0.9-2-2v-3.6c-2.6-0.1-5.1-0.6-7.6-1.4   c-3-1-4.5-2-4.5-3.2c0-2.2,0.9-3.3,2.7-3.3c0.4,0,1.9,0.4,4.4,1.2c1.7,0.5,3.3,0.9,4.9,1.1V75.9c-0.9-0.1-1.7-0.3-2.3-0.4   c-1-0.2-2.1-0.5-3.4-1c-1.3-0.5-2.3-1-3.1-1.6c-0.8-0.6-1.4-1.4-2-2.5c-0.5-1-0.8-2.2-0.8-3.6c0-3.2,1.4-5.8,4.2-7.9   c2.2-1.6,4.6-2.6,7.3-3V52.3z M34,30h7.8c0.5-5.4,2.9-10.2,6.4-13.7c4-4,9.6-6.5,15.8-6.5s11.7,2.5,15.8,6.5   c3.6,3.6,6,8.4,6.4,13.7H94c2.1,0,4,0.9,5.4,2.2c0,0,0.1,0.1,0.1,0.1c1.3,1.4,2.1,3.2,2.2,5.3l3.6,72.9c0,0.2,0,0.3,0,0.4   c0,2-0.9,3.9-2.2,5.2c-1.3,1.3-3.2,2.2-5.1,2.3v0c-0.2,0-0.3,0-0.4,0H30.3c-0.1,0-0.2,0-0.4,0l0,0c-2-0.1-3.8-1-5.1-2.3   c-1.4-1.3-2.2-3.2-2.2-5.2c0,0,0-0.2,0-0.4l3.6-72.9c0.1-2.1,1-4,2.4-5.4l0,0l0,0C30,30.8,31.9,30,34,30z" fill="#2B2D03"/><path clip-rule="evenodd" d="M101.3,110.7l-3.6-72.9c-0.1-1-0.5-2-1.1-2.7L96.5,35   c-0.6-0.6-1.5-1-2.5-1h-9.7H43.7H34c-1,0-1.9,0.4-2.5,1c-0.7,0.7-1.1,1.7-1.2,2.7l-3.6,72.9c0,0,0,0,0,0.2c0,0.9,0.4,1.7,1,2.3   c0.6,0.6,1.5,1.1,2.5,1.1l0,0l0.2,0h67.3l0.2,0l0,0c1,0,1.8-0.5,2.5-1.1c0.6-0.6,1-1.4,1-2.3C101.3,110.7,101.3,110.7,101.3,110.7z    M62,86.8V75.9c-0.9-0.1-1.7-0.3-2.3-0.4c-1-0.2-2.1-0.5-3.4-1c-1.3-0.5-2.3-1-3.1-1.6c-0.8-0.6-1.4-1.4-2-2.5   c-0.5-1-0.8-2.2-0.8-3.6c0-3.2,1.4-5.8,4.2-7.9c2.2-1.6,4.6-2.6,7.3-3v-3.7c0-1.1,0.9-2,2-2c1.1,0,2,0.9,2,2v3.6   c3.4,0.1,6.3,0.8,8.7,1.8c1.4,0.7,2.1,1.6,2.1,2.5c0,1.9-0.9,2.9-2.7,2.9c-0.4,0-1.6-0.3-3.7-1c-1.5-0.5-2.9-0.8-4.4-0.9v10   c3.6,0.6,6.5,1.5,8.6,2.9c2.3,1.5,3.4,3.9,3.4,7.2c0,3.5-1.3,6.2-4,8.2c-2.1,1.6-4.8,2.6-8.1,2.9V96c0,1.1-0.9,2-2,2   c-1.1,0-2-0.9-2-2v-3.6c-2.6-0.1-5.1-0.6-7.6-1.4c-3-1-4.5-2-4.5-3.2c0-2.2,0.9-3.3,2.7-3.3c0.4,0,1.9,0.4,4.4,1.2   C58.8,86.3,60.4,86.6,62,86.8z" fill="#C0D863" fill-rule="evenodd"/><path clip-rule="evenodd" d="M58.8,69.8c0.9,0.3,1.6,0.5,2.2,0.6l1,0.2v-9.3   c-1.2,0.2-2.3,0.7-3.3,1.4c-1.5,1-2.3,2.4-2.3,4c0,0.8,0.2,1.4,0.5,1.9C57.3,69.1,57.9,69.5,58.8,69.8z" fill="#C0D863" fill-rule="evenodd"/><path clip-rule="evenodd" d="M66,76.6v10.2c1.4-0.2,2.7-0.6,3.7-1.3c1.5-0.9,2.3-2.2,2.3-3.9   c0-1.7-0.7-2.9-2-3.7C69,77.4,67.7,77,66,76.6z" fill="#C0D863" fill-rule="evenodd"/></g></svg>