<?xml version="1.0" ?><!DOCTYPE svg  PUBLIC '-//W3C//DTD SVG 1.1//EN'  'http://www.w3.org/Graphics/SVG/1.1/DTD/svg11.dtd'><svg enable-background="new 0 0 128 128" id="Layer_1" version="1.1" viewBox="0 0 128 128" xml:space="preserve" xmlns="http://www.w3.org/2000/svg" xmlns:xlink="http://www.w3.org/1999/xlink"><g><path d="M65.9,113.2V67.5c0-1.1,0.9-2,2-2h45.7c1.1,0,2,0.9,2,2c0,13.2-5.3,25.1-14,33.7c-8.6,8.6-20.6,14-33.7,14   C66.8,115.2,65.9,114.3,65.9,113.2z M58.1,104.1V60.5c0-1.1,0.9-2,2-2h43.6c-0.5-11.3-5.3-21.4-12.7-28.9   c-7.9-7.9-18.8-12.8-30.9-12.8c-12.1,0-23,4.9-30.9,12.8c-7.9,7.9-12.8,18.8-12.8,30.9s4.9,23,12.8,30.9   C36.7,98.8,46.8,103.6,58.1,104.1z M62.1,62.5v43.7c0,1.1-0.9,2-2,2c-13.2,0-25.1-5.3-33.7-14c-8.6-8.6-14-20.6-14-33.7   c0-13.2,5.3-25.1,14-33.7c8.6-8.6,20.6-14,33.7-14c13.2,0,25.1,5.3,33.7,14c8.6,8.6,14,20.6,14,33.7c0,1.1-0.9,2-2,2H62.1z    M69.9,69.5v41.6c11.3-0.5,21.4-5.3,28.9-12.7c7.5-7.5,12.2-17.6,12.7-28.9H69.9z" fill="#2B2D03"/><path clip-rule="evenodd" d="M58.1,104.1V60.5c0-1.1,0.9-2,2-2h43.6   c-0.5-11.3-5.3-21.4-12.7-28.9c-7.9-7.9-18.8-12.8-30.9-12.8c-12.1,0-23,4.9-30.9,12.8c-7.9,7.9-12.8,18.8-12.8,30.9   c0,12.1,4.9,23,12.8,30.9C36.7,98.8,46.8,103.6,58.1,104.1z" fill="#FFE64C" fill-rule="evenodd"/><path clip-rule="evenodd" d="M69.9,69.5v41.6c11.3-0.5,21.4-5.3,28.9-12.7   c7.5-7.5,12.2-17.6,12.7-28.9H69.9z" fill="#C0D863" fill-rule="evenodd"/></g></svg>