<?xml version="1.0" ?><!DOCTYPE svg  PUBLIC '-//W3C//DTD SVG 1.0//EN'  'http://www.w3.org/TR/2001/REC-SVG-20010904/DTD/svg10.dtd'><svg height="110px" style="enable-background:new 0 0 110 110;" version="1.0" viewBox="0 0 110 110" width="110px" xml:space="preserve" xmlns="http://www.w3.org/2000/svg" xmlns:xlink="http://www.w3.org/1999/xlink"><g id="Artboard"/><g id="Multicolor"><circle cx="55" cy="55" r="55" style="fill:#25B7D3;"/><g><path d="M79,43.214c0,0,3,54-56,30c11-4,17-8,17-8s-13-12-9-15c-2-2-5-7-2-9c-1-2-4-5-1-7c-1-2-3-9,1-5    s15,13,26,14c-3-4,0-14,9-14s11,9,15,9s7,0,7,0L79,43.214z" style="fill:#F0F1F1;"/><path d="M35.751,77.48l40.585-40.585c-2.703-2.497-5.5-7.681-12.336-7.681c-9,0-12,10-9,14    c-11-1-22-10-26-14s-2,3-1,5c-3,2,0,5,1,7c-3,2,0,7,2,9c-4,3,9,15,9,15s-6,4-17,8C27.62,75.093,31.86,76.494,35.751,77.48z" style="fill:#FFFFFF;"/><circle cx="68.5" cy="39.714" r="2.5" style="fill:#5B5C5F;"/></g></g></svg>