<?xml version="1.0" ?><!DOCTYPE svg  PUBLIC '-//W3C//DTD SVG 1.1//EN'  'http://www.w3.org/Graphics/SVG/1.1/DTD/svg11.dtd'><svg enable-background="new 0 0 512 512" height="512px" id="Layer_1" version="1.1" viewBox="0 0 512 512" width="512px" xml:space="preserve" xmlns="http://www.w3.org/2000/svg" xmlns:xlink="http://www.w3.org/1999/xlink"><path d="M275.014,2.775v128h120.174v79.531H275.014v129.842c0,29.362,1.58,48.22,4.688,56.562  c3.081,8.325,8.912,14.987,17.361,19.969c11.188,6.707,24,10.081,38.438,10.081c25.612,0,51.138-8.349,76.5-25.018V481.6  c-21.656,10.188-41.25,17.363-58.8,21.477c-17.514,4.105-36.5,6.148-56.9,6.148c-23.125,0-43.6-2.918-61.394-8.762  c-17.781-5.862-32.956-14.201-45.519-24.988c-12.588-10.837-21.313-22.338-26.125-34.544c-4.888-12.188-7.275-29.854-7.275-52.999  V210.307H100v-71.694c19.887-6.449,36.938-15.713,51.112-27.787c14.188-12.068,25.575-26.588,34.15-43.506  c8.6-16.888,14.5-38.42,17.725-64.544L275.014,2.775L275.014,2.775z" fill="#1D1D1B"/></svg>