<?xml version="1.0" ?><!DOCTYPE svg  PUBLIC '-//W3C//DTD SVG 1.1//EN'  'http://www.w3.org/Graphics/SVG/1.1/DTD/svg11.dtd'><svg enable-background="new 0 0 512 512" height="512px" id="Layer_1" version="1.1" viewBox="0 0 512 512" width="512px" xml:space="preserve" xmlns="http://www.w3.org/2000/svg" xmlns:xlink="http://www.w3.org/1999/xlink"><path d="M504.169,224.177c0,0-45.7-2.731-62.238-8.906c-0.824-3.887-1.712-7.575-2.638-10.937  c-12.593-46.356-66.225-81.825-111.462-77.312c-16.112-12.951-0.593-26.731,0-32c-42.675,5.325-57.662,72.237-74.8,117.612  c-13.463-13.062-25.425-23.362-36.113-29.099c-30.03-16.088-56.743-35.563-113.087-56.513c-1.738,18.656-10.812,153.112,96,192  c-50.763,52.531-146.031,43.889-192,0C127.862,482.76,404.45,424.616,443.318,266.928  C472.481,267.158,504.169,224.177,504.169,224.177z M359.481,190.177c8.844,0,16,7.156,16,16c0,8.844-7.156,16-16,16  c-8.852,0-16-7.156-16-16C343.481,197.333,350.631,190.177,359.481,190.177z" fill="#1D1D1B"/></svg>