<?xml version="1.0" ?><!DOCTYPE svg  PUBLIC '-//W3C//DTD SVG 1.1//EN'  'http://www.w3.org/Graphics/SVG/1.1/DTD/svg11.dtd'><svg enable-background="new 0 0 512 512" height="512px" id="Layer_1" version="1.1" viewBox="0 0 512 512" width="512px" xml:space="preserve" xmlns="http://www.w3.org/2000/svg" xmlns:xlink="http://www.w3.org/1999/xlink"><g><path d="M256,0C114.609,0,0,114.612,0,256c0,141.388,114.609,256,256,256c141.391,0,256-114.612,256-256   C512,114.612,397.391,0,256,0z M256,448c-105.875,0-192-86.125-192-192S150.125,64,256,64s192,86.125,192,192S361.875,448,256,448z    M255.344,121.387c-74.219,0-134.594,60.375-134.594,134.6c0,74.231,60.375,134.606,134.594,134.606   c74.234,0,134.609-60.375,134.609-134.606C389.953,181.762,329.578,121.387,255.344,121.387z M255.344,141.2   c29.219,0,55.906,10.925,76.234,28.957c-2.078,2.956-19.406,26.219-60.281,41.544c-18.844-34.625-39.703-63.063-42.906-67.325   C237.031,142.3,246.062,141.2,255.344,141.2z M206.453,152.112c3.047,4.15,23.578,32.619,42.641,66.513   c-53.781,14.281-101.156,14.062-106.281,14C150.25,196.938,174.297,167.281,206.453,152.112z M140.359,256.175   c0-1.175,0.047-2.35,0.062-3.52c5.047,0.095,60.766,0.832,118.172-16.355c3.298,6.419,6.423,12.963,9.328,19.5   c-1.53,0.438-3.03,0.875-4.517,1.356c-59.312,19.188-90.858,71.438-93.483,75.894C151.562,312.656,140.359,285.699,140.359,256.175   z M255.344,371.137c-26.562,0-51.078-9.062-70.578-24.273c2.078-4.206,25.359-49.188,90.188-71.787   c0.266-0.088,0.516-0.169,0.766-0.264c16.173,41.97,22.828,77.095,24.548,87.201C286.469,367.889,271.281,371.137,255.344,371.137z    M319.594,351.469c-1.188-6.98-7.297-40.644-22.328-81.969c36.031-5.764,67.688,3.688,71.595,4.925   C363.766,306.406,345.391,334.05,319.594,351.469z M290.234,251.374c-0.781-1.949-1.609-3.938-2.453-5.938   c-2.391-5.593-4.969-11.174-7.625-16.655c42.516-17.345,61.784-42.05,64.189-45.312c16.028,19.544,25.731,44.481,25.95,71.606   C366.531,254.263,328.516,246.575,290.234,251.374z" fill="#1D1D1B"/></g></svg>