<?xml version="1.0" ?><!DOCTYPE svg  PUBLIC '-//W3C//DTD SVG 1.1//EN'  'http://www.w3.org/Graphics/SVG/1.1/DTD/svg11.dtd'><svg style="enable-background:new 0 0 200 200;" version="1.1" viewBox="0 0 200 200" xml:space="preserve" xmlns="http://www.w3.org/2000/svg" xmlns:xlink="http://www.w3.org/1999/xlink"><style type="text/css">
	.st0{fill:#0087BC;}
	.st1{fill:#F2F2F2;}
	.st2{fill:#B3B3B3;}
	.st3{fill:#F2F2F2;stroke:#B3B3B3;stroke-width:3;stroke-miterlimit:10;}
	.st4{opacity:0.3;fill:#FFFFFF;}
	.st5{opacity:0.2;fill:#F2F2F2;}
	.st6{fill:#E84236;}
	.st7{fill:#FFFFFF;stroke:#B3B3B3;stroke-width:3;stroke-miterlimit:10;}
	.st8{fill:#5C337F;}
	.st9{fill:#6988B7;}
	.st10{fill:#FFFFFF;stroke:#B3B3B3;stroke-width:2;stroke-linecap:round;stroke-linejoin:round;stroke-miterlimit:10;}
	.st11{fill:#0067E3;}
	.st12{fill:#FFF200;}
	.st13{fill:#FFFFFF;stroke:#000000;stroke-width:5;stroke-miterlimit:10;}
	.st14{opacity:0.66;fill:#FFFFFF;}
	.st15{fill:#17CB2D;}
	.st16{fill:#FFFFFF;}
	.st17{fill:#9E0A03;}
	.st18{opacity:0.15;fill:#FFFFFF;}
	.st19{fill:#CCCCCC;stroke:#B3B3B3;stroke-width:3;stroke-miterlimit:10;}
	.st20{fill:#E6E6E6;stroke:#B3B3B3;stroke-width:3;stroke-miterlimit:10;}
	.st21{fill:#FF233D;}
	.st22{fill:#F73E26;}
	.st23{fill:#F2F2F2;stroke:#000000;stroke-width:4;stroke-linecap:round;stroke-linejoin:round;stroke-miterlimit:10;}
	.st24{fill:#F2F2F2;stroke:#000000;stroke-width:4;stroke-miterlimit:10;}
	.st25{stroke:#000000;stroke-width:4;stroke-miterlimit:10;}
	.st26{fill:none;stroke:#000000;stroke-width:4;stroke-linecap:round;stroke-linejoin:round;stroke-miterlimit:10;}
	.st27{fill:url(#SVGID_1_);}
	.st28{fill:#B22483;}
	.st29{opacity:0.32;fill:#FFFFFF;}
	.st30{fill:#12A0CC;}
	.st31{fill:#F2F2F2;stroke:#BDCCD4;stroke-width:3;stroke-miterlimit:10;}
	.st32{fill:#FF1E13;}
	.st33{fill:#F2F2F2;stroke:#CCCCCC;stroke-width:3;stroke-miterlimit:10;}
	.st34{fill:#FF1E13;stroke:#CCCCCC;stroke-width:3;stroke-miterlimit:10;}
	.st35{fill:#1F41CC;}
	.st36{opacity:0.2;fill:#F2F2F2;stroke:#000000;stroke-width:0.5;stroke-miterlimit:10;}
	.st37{opacity:0.3;fill:#FFFFFF;stroke:#000000;stroke-width:0.5;stroke-miterlimit:10;}
</style><g><g id="Artboard_16"/><g id="Linked_In"><g id="In"/><g id="Bubble_13_"/></g><g id="Google_Plus"><g><circle class="st6" cx="100" cy="100" r="100"/></g><g id="Icon_3_"/><g id="Bubble_12_"><ellipse class="st4" cx="55.3" cy="56.4" rx="29" ry="19" transform="matrix(0.653 -0.7573 0.7573 0.653 -23.551 61.485)"/><ellipse class="st4" cx="31" cy="102" rx="11" ry="12"/><path class="st5" d="M100,5C47.5,5,5,47.5,5,100s42.5,95,95,95s95-42.5,95-95S152.5,5,100,5z M100,190c-49.7,0-90-40.3-90-90      s40.3-90,90-90s90,40.3,90,90S149.7,190,100,190z"/></g><g><path class="st7" d="M118.8,74.3c-9.4-17.4-28.2-29-49.6-28.2c-27.3,1-49.9,22.8-51.8,50.1C15.3,127.7,40.3,154,71.4,154      c28.4,0,52.4-22,53.9-49.9c0-0.9-0.1-2.6-0.7-3.3c-1.3-1.6-4.7-0.2-6.1-1.4h-2.8h-8.3H72.7c0,0-0.9,0.5-1.1,0.7      c-0.3,0.3-0.6,1.3-0.6,1.3v12.4c0,0,0.3,0.4,0.6,0.7c0.2,0.2,1.1,0.2,1.1,0.2h31.6c-5.6,13-18.5,21.5-33.4,21.3      c-18.4-0.2-33.8-14.6-35.4-32.8C33.7,81.9,50.4,64,71.4,64c13.1,0,24.6,7,30.9,17.5c0,0,0.7,1.7,2.2,1.9      c1.2,0.2,2.7-0.5,2.7-0.5l10.6-5.1c0,0,1-0.3,1.3-1.3C119.5,75.1,118.8,74.3,118.8,74.3z"/><path class="st7" d="M181.2,100.6h-13.6V88c0-1.3-0.6-2.8-1.9-2.8h-11.8c-1.3,0-2.7,1.5-2.7,2.8v12.6h-12.8      c-1.3,0-2.6,1.6-2.6,2.9v11.8c0,1.3,1.3,2.9,2.6,2.9h12.8v12.6c0,1.3,1.4,2.8,2.7,2.8h11.8c1.3,0,1.9-1.5,1.9-2.8v-12.6h13.6      c1.3,0,2.9-1.6,2.9-2.9v-11.8C184.1,102.2,182.5,100.6,181.2,100.6z"/></g></g><g id="Twitch"><g id="Twitch_1_"/><g id="Bubble_11_"/></g><g id="Discord"><g id="Controller"/><g id="Bubble_10_"/></g><g id="Behance"><g id="BE"/><g id="Bubble_9_"/></g><g id="SnapChat"><g id="Snap_Icon"/><g id="Ghost"/><g id="Dots"/><g id="Bubble_8_"/></g><g id="WhatsApp"><g id="Icon_2_"/><g id="Bubble_7_"/></g><g id="Flipboard"><g id="Bubble_6_"/><g id="Icon_1_"/></g><g id="Pinterest"><g id="Bubble_5_"/><g id="Icon"/></g><g id="Reddit"><g id="Reddit_Icon"/><g id="Bubble_1_"/></g><g id="Tumblr"><g id="Layer_21"/><g id="Bubble"/></g><g id="Instagram"><g id="Layer_20"/><g id="Bubble_4_"/></g><g id="Twitter"><g id="Twitter_Bird"/><g id="Bubble_3_"/></g><g id="YouTube"><g id="YouTube_Button"/><g id="Bubble_2_"/></g><g id="Facebook_Icon"><g id="Facebook"/></g></g></svg>