<?xml version="1.0" ?><!DOCTYPE svg  PUBLIC '-//W3C//DTD SVG 1.1//EN'  'http://www.w3.org/Graphics/SVG/1.1/DTD/svg11.dtd'><svg style="enable-background:new 0 0 200 200;" version="1.1" viewBox="0 0 200 200" xml:space="preserve" xmlns="http://www.w3.org/2000/svg" xmlns:xlink="http://www.w3.org/1999/xlink"><style type="text/css">
	.st0{fill:#0087BC;}
	.st1{fill:#F2F2F2;}
	.st2{fill:#F2F2F2;stroke:#000000;stroke-width:3;stroke-linecap:round;stroke-linejoin:round;stroke-miterlimit:10;}
	.st3{opacity:0.3;fill:#F2F2F2;}
	.st4{fill:#E84236;}
	.st5{fill:#FFFFFF;stroke:#000000;stroke-width:3;stroke-linecap:round;stroke-linejoin:round;stroke-miterlimit:10;}
	.st6{fill:#5C337F;}
	.st7{fill:#6988B7;}
	.st8{fill:#0067E3;}
	.st9{fill:#FFF200;}
	.st10{fill:#FFFFFF;stroke:#000000;stroke-width:5;stroke-linecap:round;stroke-linejoin:round;stroke-miterlimit:10;}
	.st11{opacity:0.66;fill:#FFFFFF;}
	.st12{fill:#17CB2D;}
	.st13{fill:#FFFFFF;}
	.st14{opacity:0.4;fill:#F2F2F2;}
	.st15{fill:#9E0A03;}
	.st16{fill:#CCCCCC;stroke:#000000;stroke-width:3;stroke-linecap:round;stroke-linejoin:round;stroke-miterlimit:10;}
	.st17{fill:#E6E6E6;stroke:#000000;stroke-width:3;stroke-linecap:round;stroke-linejoin:round;stroke-miterlimit:10;}
	.st18{fill:#FF233D;}
	.st19{fill:#F73E26;}
	.st20{fill:#F2F2F2;stroke:#000000;stroke-width:4;stroke-linecap:round;stroke-linejoin:round;stroke-miterlimit:10;}
	.st21{stroke:#000000;stroke-width:4;stroke-linecap:round;stroke-linejoin:round;stroke-miterlimit:10;}
	.st22{fill:none;stroke:#000000;stroke-width:4;stroke-linecap:round;stroke-linejoin:round;stroke-miterlimit:10;}
	.st23{fill:url(#SVGID_1_);}
	.st24{fill:#B22483;}
	.st25{fill:#12A0CC;}
	.st26{fill:#FF1E13;}
	.st27{fill:#FF1E13;stroke:#000000;stroke-width:3;stroke-linecap:round;stroke-linejoin:round;stroke-miterlimit:10;}
	.st28{fill:#1F41CC;}
</style><g><g id="Artboard_16"/><g id="Linked_In"><g id="In"/><g id="Bubble_13_"/></g><g id="Google_Plus"><g id="Icon_3_"/><g id="Bubble_12_"/></g><g id="Twitch"><g id="Twitch_1_"/><g id="Bubble_11_"/></g><g id="Discord"><g id="Controller"/><g id="Bubble_10_"/></g><g id="Behance"><g id="BE"/><g id="Bubble_9_"/></g><g id="SnapChat"><g id="Snap_Icon"/><g id="Ghost"/><g id="Dots"/><g id="Bubble_8_"/></g><g id="WhatsApp"><g id="Icon_2_"/><g id="Bubble_7_"/></g><g id="Flipboard"><g id="Bubble_6_"/><g id="Icon_1_"/></g><g id="Pinterest"><g id="Bubble_5_"/><g id="Icon"/></g><g id="Reddit"><g id="Reddit_Icon"/><g id="Bubble_1_"/></g><g id="Tumblr"><g><radialGradient cx="64.9" cy="82.45" gradientUnits="userSpaceOnUse" id="SVGID_1_" r="97.5"><stop offset="0.172" style="stop-color:#6D6870"/><stop offset="0.8441" style="stop-color:#495870"/></radialGradient><path class="st23" d="M100,197.5c-53.8,0-97.5-43.7-97.5-97.5S46.2,2.5,100,2.5s97.5,43.7,97.5,97.5S153.8,197.5,100,197.5z"/><path d="M100,5c52.4,0,95,42.6,95,95s-42.6,95-95,95S5,152.4,5,100S47.6,5,100,5 M100,0C44.8,0,0,44.8,0,100s44.8,100,100,100      s100-44.8,100-100S155.2,0,100,0L100,0z"/></g><g id="Layer_21"/><path class="st2" d="M110.5,136V90.5h28v-30h-28v-34H90.7c0,31-24.6,34-24.6,34h-7.6v30h15v51.7v9.2c0,46.1,68.5,9.2,68.5,9.2     l-9.6-27.6C132.4,132.9,110.5,145.2,110.5,136z"/><g id="Bubble"><path class="st3" d="M100,5C47.5,5,5,47.5,5,100s42.5,95,95,95s95-42.5,95-95S152.5,5,100,5z M100,190c-49.7,0-90-40.3-90-90      s40.3-90,90-90s90,40.3,90,90S149.7,190,100,190z"/></g></g><g id="Instagram"><g id="Layer_20"/><g id="Bubble_4_"/></g><g id="Twitter"><g id="Twitter_Bird"/><g id="Bubble_3_"/></g><g id="YouTube"><g id="YouTube_Button"/><g id="Bubble_2_"/></g><g id="Facebook_Icon"><g id="Facebook"/><g id="Bubble_14_"/></g></g></svg>