<?xml version="1.0" ?><svg enable-background="new 0 0 32 32" id="FILLED" version="1.1" viewBox="0 0 32 32" xml:space="preserve" xmlns="http://www.w3.org/2000/svg" xmlns:xlink="http://www.w3.org/1999/xlink"><g><g><path d="M28.083,12.606c0-6.687-5.41-12.107-12.083-12.107S3.917,5.92,3.917,12.606    c0,5.392,3.52,9.956,8.381,11.523L16,30.952l3.702-6.823C24.563,22.562,28.083,17.998,28.083,12.606z" fill="#FF0000"/><path d="M16,32.001l-4.046-7.459c-5.115-1.738-8.537-6.509-8.537-11.936C3.417,5.654,9.061-0.001,16-0.001    s12.583,5.655,12.583,12.607c0,5.427-3.422,10.197-8.536,11.936L16,32.001z M16,0.999c-6.387,0-11.583,5.207-11.583,11.607    c0,5.059,3.229,9.498,8.035,11.048l0.19,0.062L16,29.903l3.358-6.188l0.19-0.062c4.806-1.55,8.034-5.989,8.034-11.048    C27.583,6.206,22.386,0.999,16,0.999z"/></g><g><g><path d="M22.904,14.782V12.21c0-0.712-0.583-1.296-1.293-1.296h-0.637c-0.364,0-0.656-0.292-0.656-0.639     c0-2.482-2.022-4.507-4.498-4.507h-1.931c-2.113,0-3.843,1.734-3.843,3.85v5.164c0,2.117,1.73,3.869,3.843,3.869h5.154     C21.155,18.651,22.904,16.899,22.904,14.782L22.904,14.782z M13.889,14.125h4.498c0.365,0,0.656,0.292,0.656,0.657     c0,0.347-0.291,0.639-0.656,0.639h-4.498c-0.346,0-0.637-0.292-0.637-0.639C13.251,14.418,13.543,14.125,13.889,14.125     L13.889,14.125z M16.966,9.618c0,0.365-0.273,0.657-0.637,0.657h-2.441c-0.346,0-0.637-0.292-0.637-0.657     c0-0.347,0.291-0.638,0.637-0.638h2.441C16.694,8.98,16.966,9.271,16.966,9.618L16.966,9.618z" fill="#FFFFFF"/></g></g></g></svg>