<?xml version="1.0" ?><svg enable-background="new 0 0 32 32" version="1.1" viewBox="0 0 32 32" xml:space="preserve" xmlns="http://www.w3.org/2000/svg" xmlns:xlink="http://www.w3.org/1999/xlink"><g id="FILLED_copy"><g><g><path d="M28.083,12.606c0-6.687-5.41-12.107-12.083-12.107S3.917,5.92,3.917,12.606     c0,5.392,3.52,9.956,8.381,11.523L16,30.952l3.702-6.823C24.563,22.562,28.083,17.998,28.083,12.606z" fill="#FFFFFF"/><path d="M16,32l-4.047-7.458c-5.114-1.738-8.536-6.509-8.536-11.936C3.417,5.654,9.062-0.001,16-0.001     s12.583,5.655,12.583,12.607c0,5.427-3.422,10.197-8.536,11.936L16,32z M16,0.999c-6.387,0-11.583,5.207-11.583,11.607     c0,5.059,3.229,9.498,8.034,11.048l0.19,0.062L16,29.904l3.358-6.188l0.19-0.062c4.806-1.55,8.034-5.989,8.034-11.048     C27.583,6.206,22.387,0.999,16,0.999z"/></g><g><path d="M9.023,11.215c0,0,1.272-1.005,1.696-0.502c0.424,0.502,2.042,6.567,2.583,7.686     c0.472,0.981,1.773,2.278,3.199,1.352c1.426-0.926,6.167-4.982,7.016-9.772c0.848-4.789-5.706-3.785-6.399,0.387     c1.735-1.044,2.661,0.424,1.774,2.086c-0.886,1.66-1.696,2.743-2.12,2.743c-0.423,0-0.749-1.111-1.234-3.053     c-0.501-2.007-0.498-5.624-2.582-5.214c-1.966,0.387-4.548,3.477-4.548,3.477L9.023,11.215z" fill="#FF0000"/></g></g></g></svg>