<?xml version="1.0" ?><!DOCTYPE svg  PUBLIC '-//W3C//DTD SVG 1.1//EN'  'http://www.w3.org/Graphics/SVG/1.1/DTD/svg11.dtd'><svg height="8.063mm" style="shape-rendering:geometricPrecision; text-rendering:geometricPrecision; image-rendering:optimizeQuality; fill-rule:evenodd; clip-rule:evenodd" version="1.1" viewBox="0 0 600 599" width="8.0661mm" xml:space="preserve" xmlns="http://www.w3.org/2000/svg" xmlns:xlink="http://www.w3.org/1999/xlink"><defs><style type="text/css">
   <![CDATA[
    .fil0 {fill:black}
   ]]>
  </style></defs><g id="Layer_x0020_1"><path class="fil0" d="M237 593c-162,-35 -265,-194 -230,-356 1,-7 3,-15 5,-22l51 46 0 0 101 92 -91 27c7,18 15,35 25,50 33,52 87,91 151,105 15,3 29,4 43,5l-2 59c-18,0 -35,-2 -53,-6zm350 -210l0 -1 1 1c2,-7 3,-13 5,-20 35,-162 -68,-322 -230,-356 -20,-5 -40,-7 -60,-7l-1 59c16,1 32,2 48,6 65,14 118,53 152,104 10,17 19,34 25,52l-92 25 152 137zm-295 -10c-12,-4 -20,-15 -20,-27 0,-16 12,-28 28,-28 15,0 27,12 27,28 0,12 -8,23 -20,27l0 18 -15 0 0 -18zm-30 -101l38 0 38 0 0 -26c0,-10 -5,-20 -11,-27l0 0c-7,-7 -17,-11 -27,-11 -11,0 -20,4 -27,11l0 0c-7,7 -11,17 -11,27l0 26zm141 70c0,57 -46,104 -103,104 -57,0 -104,-47 -104,-104l0 -70 21 0 0 -36c0,-22 10,-43 25,-58l-1 0c15,-15 36,-24 59,-24 23,0 43,9 58,24l0 0c15,15 24,36 24,58l0 36 22 0 0 70 -1 0z"/></g></svg>