<?xml version="1.0" ?><!DOCTYPE svg  PUBLIC '-//W3C//DTD SVG 1.1//EN'  'http://www.w3.org/Graphics/SVG/1.1/DTD/svg11.dtd'><svg height="6.2822mm" style="shape-rendering:geometricPrecision; text-rendering:geometricPrecision; image-rendering:optimizeQuality; fill-rule:evenodd; clip-rule:evenodd" version="1.1" viewBox="0 0 1059 827" width="8.0433mm" xml:space="preserve" xmlns="http://www.w3.org/2000/svg" xmlns:xlink="http://www.w3.org/1999/xlink"><defs><style type="text/css">
   <![CDATA[
    .fil0 {fill:black}
   ]]>
  </style></defs><g id="Layer_x0020_1"><path class="fil0" d="M539 0c91,0 175,29 243,78 100,-39 170,-51 212,-42 47,10 68,39 64,82 -2,28 -18,63 -47,101 -78,102 -263,247 -525,377 166,-22 322,-77 467,-171 -6,223 -189,402 -414,402 -111,0 -212,-44 -286,-116 -88,33 -150,42 -188,34 -47,-10 -68,-39 -65,-82 2,-29 19,-63 48,-102 78,-101 262,-247 525,-377 -156,21 -303,71 -440,155 35,-193 204,-339 406,-339zm-342 645c-17,-25 -31,-52 -43,-81 -16,17 -30,33 -41,47 -17,23 -28,41 -30,54 21,4 59,-2 114,-20zm653 -505c20,24 38,49 53,77 17,-17 31,-33 43,-48 17,-23 28,-41 30,-53 -23,-5 -64,2 -126,24z"/></g></svg>