<?xml version="1.0" ?><svg viewBox="0 0 64 64" xmlns="http://www.w3.org/2000/svg"><defs><style>.cls-1{fill:none;stroke:#000;stroke-miterlimit:10;stroke-width:2px;}</style></defs><title/><g data-name="Layer 2" id="Layer_2"><path class="cls-1" d="M34.61,44.09a3.47,3.47,0,0,0,1.33,2.76,8.56,8.56,0,0,0,10.8-.14.46.46,0,0,1,.76.34v9.53a1.83,1.83,0,0,1-1,1.67A19.93,19.93,0,0,1,38.2,60c-9,0-16.29-5.62-16.29-12.58V27.17a.64.64,0,0,0-.64-.64H17.49a1,1,0,0,1-1-1V17.1a15.62,15.62,0,0,0,3-1.3,15.11,15.11,0,0,0,2.37-1.59A15.81,15.81,0,0,0,27.63,4h5.82a1.16,1.16,0,0,1,1.16,1.16v10a.64.64,0,0,0,.64.64h11.1A1.16,1.16,0,0,1,47.5,17v8.41a1.16,1.16,0,0,1-1.16,1.16H35.25a.64.64,0,0,0-.64.64Z"/></g></svg>