<?xml version="1.0" ?><svg viewBox="0 0 64 64" xmlns="http://www.w3.org/2000/svg"><defs><style>.cls-1{fill:none;stroke:#000;stroke-miterlimit:10;stroke-width:2px;}</style></defs><title/><g data-name="Layer 2" id="Layer_2"><path class="cls-1" d="M8.61,5,5.47,13.15a1.56,1.56,0,0,0-.1.56V51A1.56,1.56,0,0,0,6.94,52.6H17a1.56,1.56,0,0,1,1.56,1.56v4.27A1.56,1.56,0,0,0,20.14,60h5a1.56,1.56,0,0,0,1.11-.46l6.48-6.48a1.56,1.56,0,0,1,1.11-.46h9.89a1.56,1.56,0,0,0,1.11-.46L58.17,38.78a1.56,1.56,0,0,0,.46-1.11V5.56A1.56,1.56,0,0,0,57.06,4h-47A1.56,1.56,0,0,0,8.61,5ZM53.19,35.92l-7.45,7.45a1.56,1.56,0,0,1-1.11.46H31.78l-6.1,6.1a.4.4,0,0,1-.69-.28V43.84H15.6A1.56,1.56,0,0,1,14,42.27V10.65A1.56,1.56,0,0,1,15.6,9.09H52.09a1.56,1.56,0,0,1,1.56,1.56V34.82A1.56,1.56,0,0,1,53.19,35.92Z"/><rect class="cls-1" height="14.57" rx="0.71" ry="0.71" width="4.91" x="27.09" y="18.58"/><rect class="cls-1" height="14.57" rx="0.71" ry="0.71" width="4.91" x="40.37" y="18.58"/></g></svg>