<?xml version="1.0" ?><svg enable-background="new 0 0 64 64" height="64px" version="1.1" viewBox="0 0 64 64" width="64px" xml:space="preserve" xmlns="http://www.w3.org/2000/svg" xmlns:xlink="http://www.w3.org/1999/xlink"><g id="Guide"/><g id="Layer_1"><g><g><path d="M57,27.712204v20.961689h-5.612648c0-2.6293488-2.1241913-4.7534599-4.7404938-4.7534599     c-2.6293449,0-4.7534561,2.1241112-4.7534561,4.7534599H23.7990475c0-2.6293488-2.1241894-4.7534599-4.7404938-4.7534599     c-2.6293468,0-4.7535372,2.1241112-4.7535372,4.7534599H7V34.1285248c0-5.200491,4.2158308-9.4163208,9.4163208-9.4163208H54     C55.6568527,24.712204,57,26.0553493,57,27.712204z" fill="#8FC1FF"/><path d="M57,49.1738281h-5.612793c-0.2763672,0-0.5-0.2236328-0.5-0.5     c0-2.3452148-1.9023438-4.253418-4.2402344-4.253418c-2.3452148,0-4.253418,1.9082031-4.253418,4.253418     c0,0.2763672-0.2236328,0.5-0.5,0.5H23.7988281c-0.2763672,0-0.5-0.2236328-0.5-0.5     c0-2.3452148-1.9023438-4.253418-4.2402344-4.253418c-2.3452148,0-4.253418,1.9082031-4.253418,4.253418     c0,0.2763672-0.2236328,0.5-0.5,0.5H7c-0.2763672,0-0.5-0.2236328-0.5-0.5V34.128418     c0-5.4677734,4.4487305-9.9160156,9.9165039-9.9160156H54c1.9296875,0,3.5,1.5703125,3.5,3.5v20.9614258     C57.5,48.9501953,57.2763672,49.1738281,57,49.1738281z M51.8637695,48.1738281H56.5V27.7124023c0-1.378418-1.121582-2.5-2.5-2.5     H16.4165039C11.5,25.2124023,7.5,29.2119141,7.5,34.128418v14.0454102h6.3286133     c0.2529297-2.6630859,2.5019531-4.753418,5.2299805-4.753418c2.7211914,0,4.9648438,2.090332,5.2167969,4.753418h17.1416016     c0.2529297-2.6630859,2.5019531-4.753418,5.2299805-4.753418C49.3681641,43.4204102,51.6118164,45.5107422,51.8637695,48.1738281     z" fill="#383838"/></g><g><path d="M23.7990475,48.673893c0,2.6293449-2.1241894,4.7534561-4.7404938,4.7534561     c-2.6293468,0-4.7535372-2.1241112-4.7535372-4.7534561c0-2.6293488,2.1241903-4.7534599,4.7535372-4.7534599     C21.6748581,43.920433,23.7990475,46.0445442,23.7990475,48.673893z" fill="#666666"/><path d="M19.0585938,53.9272461c-2.8969727,0-5.253418-2.3564453-5.253418-5.253418     s2.3564453-5.253418,5.253418-5.253418c2.8896484,0,5.2402344,2.3564453,5.2402344,5.253418     S21.9482422,53.9272461,19.0585938,53.9272461z M19.0585938,44.4204102c-2.3452148,0-4.253418,1.9082031-4.253418,4.253418     s1.9082031,4.253418,4.253418,4.253418c2.3378906,0,4.2402344-1.9082031,4.2402344-4.253418     S21.3964844,44.4204102,19.0585938,44.4204102z" fill="#383838"/></g><g><path d="M51.387352,48.673893c0,2.6293449-2.1241913,4.7534561-4.7404938,4.7534561     c-2.6293449,0-4.7534561-2.1241112-4.7534561-4.7534561c0-2.6293488,2.1241112-4.7534599,4.7534561-4.7534599     C49.2631607,43.920433,51.387352,46.0445442,51.387352,48.673893z" fill="#666666"/><path d="M46.6469727,53.9272461c-2.8969727,0-5.253418-2.3564453-5.253418-5.253418     s2.3564453-5.253418,5.253418-5.253418c2.8896484,0,5.2402344,2.3564453,5.2402344,5.253418     S49.5366211,53.9272461,46.6469727,53.9272461z M46.6469727,44.4204102c-2.3452148,0-4.253418,1.9082031-4.253418,4.253418     s1.9082031,4.253418,4.253418,4.253418c2.3378906,0,4.2402344-1.9082031,4.2402344-4.253418     S48.9848633,44.4204102,46.6469727,44.4204102z" fill="#383838"/></g><g><rect fill="#A4FF88" height="6.1523252" width="18.6728458" x="20.7336636" y="18.5598793"/><path d="M39.4067383,25.2124023H20.7338867c-0.2763672,0-0.5-0.2236328-0.5-0.5v-6.1523438     c0-0.2763672,0.2236328-0.5,0.5-0.5h18.6728516c0.2763672,0,0.5,0.2236328,0.5,0.5v6.1523438     C39.9067383,24.9887695,39.6831055,25.2124023,39.4067383,25.2124023z M21.2338867,24.2124023h17.6728516v-5.1523438H21.2338867     V24.2124023z" fill="#383838"/></g><g><rect fill="#F2DB5C" height="10.9014883" width="9.4983263" x="39.4065094" y="13.8107157"/><path d="M48.9047852,25.2124023h-9.4980469c-0.2763672,0-0.5-0.2236328-0.5-0.5V13.8105469     c0-0.2763672,0.2236328-0.5,0.5-0.5h9.4980469c0.2763672,0,0.5,0.2236328,0.5,0.5v10.9018555     C49.4047852,24.9887695,49.1811523,25.2124023,48.9047852,25.2124023z M39.9067383,24.2124023h8.4980469v-9.9018555h-8.4980469     V24.2124023z" fill="#383838"/></g><g><rect fill="#B29D83" height="7.9872289" width="9.3364229" x="30.0700855" y="10.57265"/><path d="M39.4067383,19.0600586h-9.3364258c-0.2763672,0-0.5-0.2236328-0.5-0.5v-7.9873047     c0-0.2763672,0.2236328-0.5,0.5-0.5h9.3364258c0.2763672,0,0.5,0.2236328,0.5,0.5v7.9873047     C39.9067383,18.8364258,39.6831055,19.0600586,39.4067383,19.0600586z M30.5703125,18.0600586h8.3364258v-6.9873047h-8.3364258     V18.0600586z" fill="#383838"/></g><g><path d="M19.0520325,38.0409775h-7.825326v-5.6015244c0-2.4196968,1.9615507-4.3812485,4.3812466-4.3812485     h3.4440794V38.0409775z" fill="#6B91BF"/><path d="M19.0522461,38.5410156h-7.8256836c-0.2763672,0-0.5-0.2236328-0.5-0.5v-5.6015625     c0-2.6914062,2.1899414-4.8813477,4.8813477-4.8813477h3.4443359c0.2763672,0,0.5,0.2236328,0.5,0.5v9.9829102     C19.5522461,38.3173828,19.3286133,38.5410156,19.0522461,38.5410156z M11.7265625,37.5410156h6.8256836v-8.9829102h-2.9443359     c-2.1401367,0-3.8813477,1.7412109-3.8813477,3.8813477V37.5410156z" fill="#383838"/></g><g><rect fill="#6B91BF" height="5.9904218" width="5.9904218" x="22.6225338" y="28.0582047"/><path d="M28.612793,34.5488281h-5.9902344c-0.2763672,0-0.5-0.2236328-0.5-0.5v-5.9907227     c0-0.2763672,0.2236328-0.5,0.5-0.5h5.9902344c0.2763672,0,0.5,0.2236328,0.5,0.5v5.9907227     C29.112793,34.3251953,28.8891602,34.5488281,28.612793,34.5488281z M23.1225586,33.5488281h4.9902344v-4.9907227h-4.9902344     V33.5488281z" fill="#383838"/></g><g><rect fill="#6B91BF" height="5.9904218" width="5.9904218" x="32.8527069" y="28.0582047"/><path d="M38.8432617,34.5488281h-5.9907227c-0.2763672,0-0.5-0.2236328-0.5-0.5v-5.9907227     c0-0.2763672,0.2236328-0.5,0.5-0.5h5.9907227c0.2763672,0,0.5,0.2236328,0.5,0.5v5.9907227     C39.3432617,34.3251953,39.1196289,34.5488281,38.8432617,34.5488281z M33.3525391,33.5488281h4.9907227v-4.9907227h-4.9907227     V33.5488281z" fill="#383838"/></g><g><rect fill="#6B91BF" height="5.9904218" width="5.9904218" x="43.0828781" y="28.0582047"/><path d="M49.0732422,34.5488281h-5.9902344c-0.2763672,0-0.5-0.2236328-0.5-0.5v-5.9907227     c0-0.2763672,0.2236328-0.5,0.5-0.5h5.9902344c0.2763672,0,0.5,0.2236328,0.5,0.5v5.9907227     C49.5732422,34.3251953,49.3496094,34.5488281,49.0732422,34.5488281z M43.5830078,33.5488281h4.9902344v-4.9907227h-4.9902344     V33.5488281z" fill="#383838"/></g></g></g></svg>