<?xml version="1.0" ?><svg enable-background="new 0 0 64 64" height="64px" version="1.1" viewBox="0 0 64 64" width="64px" xml:space="preserve" xmlns="http://www.w3.org/2000/svg" xmlns:xlink="http://www.w3.org/1999/xlink"><g id="Guide"/><g id="Layer_1"><g><path d="M57,37.75v13.5h-5.1400146c0.7800293-0.8400269,1.25-1.9799805,1.25-3.2199707    c0-2.6300049-2.1300049-4.75-4.7399902-4.75c-2.1500244,0-3.9699707,1.4199829-4.5599976,3.3799438h4.5499878v2.75h-4.5499878    c0.210022,0.6900024,0.5700073,1.3200073,1.0499878,1.8400269H24.2700195    c0.4699707-0.5200195,0.8399658-1.1500244,1.0499878-1.8400269h-4.2399902v-2.75h4.2399902    c-0.5899658-1.9599609-2.3999634-3.3799438-4.539978-3.3799438c-2.6300049,0-4.75,2.1199951-4.75,4.75    c0,1.2399902,0.4699707,2.3799438,1.25,3.2199707h-3.6600342v-13.5H57z" fill="#FF6456"/><path d="M57,51.75h-5.1401367c-0.1987305,0-0.3789062-0.1176758-0.4584961-0.300293    c-0.0791016-0.1821289-0.0429688-0.3945312,0.0922852-0.5400391c0.7197266-0.7749023,1.1162109-1.7973633,1.1162109-2.8793945    c0-2.3432617-1.9018555-4.25-4.2397461-4.25c-1.6616211,0-3.1264648,0.9326172-3.8300781,2.3798828h3.8198242    c0.2763672,0,0.5,0.2236328,0.5,0.5v2.75c0,0.2763672-0.2236328,0.5-0.5,0.5H44.543457    c0.1801758,0.3662109,0.4111328,0.7050781,0.6835938,1.0004883c0.1347656,0.1459961,0.1704102,0.3579102,0.0908203,0.5400391    C45.2382812,51.6323242,45.0585938,51.75,44.8598633,51.75H24.2700195c-0.1977539,0-0.3769531-0.1162109-0.4570312-0.296875    s-0.0463867-0.3920898,0.0859375-0.5385742c0.2749023-0.3037109,0.5063477-0.6435547,0.6855469-1.0043945h-3.5043945    c-0.2763672,0-0.5-0.2236328-0.5-0.5v-2.75c0-0.2763672,0.2236328-0.5,0.5-0.5h3.5097656    c-0.7016602-1.4472656-2.1586914-2.3798828-3.8095703-2.3798828c-2.3432617,0-4.25,1.9067383-4.25,4.25    c0,1.0820312,0.3964844,2.1044922,1.1162109,2.8793945c0.1352539,0.1455078,0.1713867,0.3579102,0.0922852,0.5400391    C17.6591797,51.6323242,17.4790039,51.75,17.2802734,51.75h-3.6601562c-0.2763672,0-0.5-0.2236328-0.5-0.5v-13.5    c0-0.2763672,0.2236328-0.5,0.5-0.5H57c0.2763672,0,0.5,0.2236328,0.5,0.5v13.5C57.5,51.5263672,57.2763672,51.75,57,51.75z     M52.8598633,50.75H56.5v-12.5H14.1201172v12.5h2.1601562c-0.4882812-0.8085938-0.75-1.7451172-0.75-2.7197266    c0-2.8950195,2.3549805-5.25,5.25-5.25c2.3291016,0,4.3457031,1.5014648,5.0185547,3.7358398    c0.0454102,0.1513672,0.0166016,0.3154297-0.0776367,0.4423828s-0.2431641,0.2016602-0.4013672,0.2016602h-3.7397461v1.75    h3.7397461c0.1582031,0,0.3076172,0.0751953,0.4018555,0.2021484c0.0942383,0.1274414,0.1225586,0.2919922,0.0766602,0.4433594    C25.671875,49.9702148,25.4912109,50.3725586,25.2626953,50.75h18.6010742    c-0.2246094-0.3730469-0.4047852-0.7753906-0.5322266-1.1943359c-0.0458984-0.1513672-0.0175781-0.315918,0.0766602-0.4433594    c0.0942383-0.1269531,0.2436523-0.2021484,0.4018555-0.2021484h4.0498047v-1.75h-4.0498047    c-0.1582031,0-0.3071289-0.074707-0.4013672-0.2016602s-0.1230469-0.2910156-0.0776367-0.4423828    c0.6728516-2.234375,2.6977539-3.7358398,5.0390625-3.7358398c2.8891602,0,5.2397461,2.3549805,5.2397461,5.25    C53.6098633,49.0048828,53.3481445,49.9414062,52.8598633,50.75z" fill="#383838"/></g><g><path d="M21.0800171,49.4099731h4.2399902c-0.210022,0.6900024-0.5800171,1.3200073-1.0499878,1.8400269    c-0.8699951,0.9400024-2.1199951,1.539978-3.4899902,1.539978c-1.3900146,0-2.6300049-0.5899658-3.5-1.539978    c-0.7800293-0.8400269-1.25-1.9799805-1.25-3.2199707c0-2.6300049,2.1199951-4.75,4.75-4.75    c2.1400146,0,3.9500122,1.4199829,4.539978,3.3799438h-4.2399902V49.4099731z" fill="#666666"/><path d="M20.7802734,53.2900391c-1.4902344,0-2.8642578-0.6044922-3.8686523-1.7026367    c-0.8901367-0.9575195-1.3813477-2.2216797-1.3813477-3.5571289c0-2.8950195,2.3549805-5.25,5.25-5.25    c2.3291016,0,4.3457031,1.5014648,5.0185547,3.7358398c0.0454102,0.1513672,0.0166016,0.3154297-0.0776367,0.4423828    s-0.2431641,0.2016602-0.4013672,0.2016602h-3.7397461v1.75h3.7397461c0.1582031,0,0.3076172,0.0751953,0.4018555,0.2021484    c0.0942383,0.1274414,0.1225586,0.2919922,0.0766602,0.4433594c-0.2250977,0.7392578-0.6254883,1.4414062-1.1572266,2.0297852    C23.6367188,52.6704102,22.230957,53.2900391,20.7802734,53.2900391z M20.7802734,43.7802734    c-2.3432617,0-4.25,1.9067383-4.25,4.25c0,1.0820312,0.3964844,2.1044922,1.1162109,2.8793945    c0.8154297,0.8911133,1.9277344,1.3803711,3.1337891,1.3803711c1.1728516,0,2.3110352-0.5029297,3.1230469-1.3798828    c0.2719727-0.3007812,0.5024414-0.6396484,0.6811523-1h-3.5043945c-0.2763672,0-0.5-0.2236328-0.5-0.5v-2.75    c0-0.2763672,0.2236328-0.5,0.5-0.5h3.5097656C23.8881836,44.7128906,22.4311523,43.7802734,20.7802734,43.7802734z" fill="#383838"/></g><g><path d="M53.1099854,48.0300293c0,1.2399902-0.4699707,2.3799438-1.25,3.2199707    c-0.8699951,0.9500122-2.1099854,1.539978-3.4899902,1.539978c-1.3900146,0-2.6400146-0.5999756-3.5100098-1.539978    c-0.4799805-0.5200195-0.8399658-1.1500244-1.0499878-1.8400269h4.5499878v-2.75h-4.5499878    c0.5900269-1.9599609,2.4099731-3.3799438,4.5599976-3.3799438    C50.9799805,43.2800293,53.1099854,45.4000244,53.1099854,48.0300293z" fill="#666666"/><path d="M48.3701172,53.2900391c-1.4638672,0-2.8769531-0.6196289-3.8769531-1.7001953    c-0.5297852-0.5737305-0.9311523-1.2768555-1.1616211-2.0341797c-0.0458984-0.1513672-0.0175781-0.315918,0.0766602-0.4433594    c0.0942383-0.1269531,0.2436523-0.2021484,0.4018555-0.2021484h4.0498047v-1.75h-4.0498047    c-0.1582031,0-0.3071289-0.074707-0.4013672-0.2016602s-0.1230469-0.2910156-0.0776367-0.4423828    c0.6728516-2.234375,2.6977539-3.7358398,5.0390625-3.7358398c2.8891602,0,5.2397461,2.3549805,5.2397461,5.25    c0,1.3354492-0.4912109,2.5996094-1.3837891,3.5600586C51.2382812,52.6694336,49.8320312,53.2900391,48.3701172,53.2900391z     M44.543457,49.9101562c0.1801758,0.3662109,0.4111328,0.7050781,0.6835938,1.0004883    c0.8115234,0.8764648,1.9570312,1.3793945,3.1430664,1.3793945c1.199707,0,2.3081055-0.4892578,3.1210938-1.3774414    c0.722168-0.777832,1.1186523-1.800293,1.1186523-2.8823242c0-2.3432617-1.9018555-4.25-4.2397461-4.25    c-1.6616211,0-3.1264648,0.9326172-3.8300781,2.3798828h3.8198242c0.2763672,0,0.5,0.2236328,0.5,0.5v2.75    c0,0.2763672-0.2236328,0.5-0.5,0.5H44.543457z" fill="#383838"/></g><g><rect fill="#FF6456" height="17" width="31.4799805" x="25.5200195" y="20.75"/><path d="M57,38.25H25.5200195c-0.2763672,0-0.5-0.2236328-0.5-0.5v-17c0-0.2763672,0.2236328-0.5,0.5-0.5H57    c0.2763672,0,0.5,0.2236328,0.5,0.5v17C57.5,38.0263672,57.2763672,38.25,57,38.25z M26.0200195,37.25H56.5v-16H26.0200195V37.25z    " fill="#383838"/></g><g><rect fill="#FF6456" height="11.25" width="8.0444336" x="17.4755859" y="26.5"/><path d="M25.5200195,38.25h-8.0444336c-0.2763672,0-0.5-0.2236328-0.5-0.5V26.5c0-0.2763672,0.2236328-0.5,0.5-0.5    h8.0444336c0.2763672,0,0.5,0.2236328,0.5,0.5v11.25C26.0200195,38.0263672,25.7963867,38.25,25.5200195,38.25z M17.9755859,37.25    h7.0444336V27h-7.0444336V37.25z" fill="#383838"/></g><g><polygon fill="#666666" points="6.125,51.25 13.625,51.25 13.625,37.75   "/><path d="M13.625,51.75h-7.5c-0.1772461,0-0.3413086-0.09375-0.4311523-0.246582    c-0.0898438-0.1523438-0.0917969-0.3413086-0.0058594-0.4960938l7.5-13.5    c0.1108398-0.1992188,0.3408203-0.2963867,0.5625-0.2412109C13.9711914,37.3232422,14.125,37.5219727,14.125,37.75v13.5    C14.125,51.5263672,13.9013672,51.75,13.625,51.75z M6.9746094,50.75H13.125V39.6796875L6.9746094,50.75z" fill="#383838"/></g><path d="M48.3598633,49.9101562H21.0800781c-0.2763672,0-0.5-0.2236328-0.5-0.5v-2.75   c0-0.2763672,0.2236328-0.5,0.5-0.5h27.2797852c0.2763672,0,0.5,0.2236328,0.5,0.5v2.75   C48.8598633,49.6865234,48.6362305,49.9101562,48.3598633,49.9101562z M21.5800781,48.9101562h26.2797852v-1.75H21.5800781   V48.9101562z" fill="#383838"/><g><rect fill="#BF4B41" height="8.0625" width="8.0625" x="27.75" y="22.875"/><path d="M35.8125,31.4375H27.75c-0.2763672,0-0.5-0.2236328-0.5-0.5V22.875c0-0.2763672,0.2236328-0.5,0.5-0.5    h8.0625c0.2763672,0,0.5,0.2236328,0.5,0.5v8.0625C36.3125,31.2138672,36.0888672,31.4375,35.8125,31.4375z M28.25,30.4375h7.0625    V23.375H28.25V30.4375z" fill="#383838"/></g><g><rect fill="#BF4B41" height="3.25" width="3.8505859" x="13.625" y="34.5"/><path d="M17.4755859,38.25H13.625c-0.2763672,0-0.5-0.2236328-0.5-0.5V34.5c0-0.2763672,0.2236328-0.5,0.5-0.5    h3.8505859c0.2763672,0,0.5,0.2236328,0.5,0.5v3.25C17.9755859,38.0263672,17.7519531,38.25,17.4755859,38.25z M14.125,37.25    h2.8505859V35H14.125V37.25z" fill="#383838"/></g><g><polygon fill="#F2DB5C" points="25.5200195,23.2815552 20,24.1943169 20,19.8193169 25.5200195,20.7320766   "/><path d="M20,24.6943359c-0.1176758,0-0.2324219-0.0415039-0.3232422-0.1186523    C19.5644531,24.4804688,19.5,24.3413086,19.5,24.1943359v-4.375c0-0.1469727,0.0644531-0.2861328,0.1767578-0.3813477    c0.1118164-0.0952148,0.2602539-0.1337891,0.4047852-0.1118164l5.5200195,0.9125977    c0.2412109,0.0395508,0.418457,0.2485352,0.418457,0.4931641v2.5498047c0,0.2446289-0.1772461,0.4536133-0.418457,0.4931641    L20.081543,24.6875C20.0541992,24.6918945,20.0273438,24.6943359,20,24.6943359z M20.5,20.4086914v3.1962891l4.5200195-0.7475586    V21.15625L20.5,20.4086914z M25.5200195,23.2817383h0.0097656H25.5200195z" fill="#383838"/></g><g><rect fill="#BF4B41" height="14.875" width="7.5" x="38.4583321" y="22.875"/><path d="M45.9584961,38.25h-7.5c-0.2763672,0-0.5-0.2236328-0.5-0.5V22.875c0-0.2763672,0.2236328-0.5,0.5-0.5h7.5    c0.2763672,0,0.5,0.2236328,0.5,0.5V37.75C46.4584961,38.0263672,46.2348633,38.25,45.9584961,38.25z M38.9584961,37.25h6.5    V23.375h-6.5V37.25z" fill="#383838"/></g></g></svg>