<?xml version="1.0" ?><svg enable-background="new 0 0 64 64" height="64px" version="1.1" viewBox="0 0 64 64" width="64px" xml:space="preserve" xmlns="http://www.w3.org/2000/svg" xmlns:xlink="http://www.w3.org/1999/xlink"><g id="Guide"/><g id="Layer_1"><g><rect fill="#25314F" height="27.0441132" width="27.0441132" x="28.172678" y="10.1875"/><path d="M55.2167969,37.7314453H28.1728516c-0.2763672,0-0.5-0.2236328-0.5-0.5V10.1875    c0-0.2763672,0.2236328-0.5,0.5-0.5h27.0439453c0.2763672,0,0.5,0.2236328,0.5,0.5v27.0439453    C55.7167969,37.5078125,55.4931641,37.7314453,55.2167969,37.7314453z M28.6728516,36.7314453h26.0439453V10.6875H28.6728516    V36.7314453z" fill="#383838"/></g><g><path d="M47.4511108,13.7092676c1.5224648,1.9149427,2.4344063,4.3370562,2.4344063,6.9735785    c0,6.1952553-5.0222359,11.2174931-11.2174911,11.2174931c-2.6365242,0-5.0586357-0.9119415-6.9735794-2.4344082    c2.0550232,2.5847893,5.22435,4.2439156,8.7830849,4.2439156c6.1952553,0,11.2174911-5.0222397,11.2174911-11.217495    C51.6950226,18.9336185,50.0358963,15.7642927,47.4511108,13.7092676z" fill="#FFCE7B"/><path d="M40.4775391,34.2099609c-3.5908203,0-6.9345703-1.6157227-9.1748047-4.4331055    c-0.1582031-0.1987305-0.1416016-0.4848633,0.0380859-0.6645508c0.1806641-0.1806641,0.4667969-0.1958008,0.6645508-0.0380859    c1.9140625,1.5219727,4.2177734,2.3261719,6.6625977,2.3261719c5.909668,0,10.7177734-4.8081055,10.7177734-10.7177734    c0-2.4448242-0.8041992-4.7485352-2.3256836-6.6621094c-0.1582031-0.1987305-0.1420898-0.4848633,0.0375977-0.6645508    c0.1811523-0.1806641,0.4663086-0.1958008,0.6645508-0.0380859c2.8168945,2.2392578,4.4326172,5.5830078,4.4326172,9.1743164    C52.1948242,28.9536133,46.9384766,34.2099609,40.4775391,34.2099609z M35.4262695,31.9492188    c1.5317383,0.8198242,3.2578125,1.2607422,5.0512695,1.2607422c5.909668,0,10.7172852-4.8081055,10.7172852-10.7177734    c0-1.793457-0.4404297-3.519043-1.2597656-5.050293c0.2983398,1.0405273,0.4506836,2.1269531,0.4506836,3.2407227    c0,6.4614258-5.2563477,11.7177734-11.7177734,11.7177734C37.5541992,32.4003906,36.4672852,32.2475586,35.4262695,31.9492188z" fill="#FFCE7B"/></g><g><circle cx="14.1942997" cy="31.9979744" fill="#FFCE7B" r="5.4110913"/><path d="M14.1943359,37.9091797c-3.2592773,0-5.9111328-2.6518555-5.9111328-5.9111328    s2.6518555-5.9111328,5.9111328-5.9111328s5.9111328,2.6518555,5.9111328,5.9111328S17.4536133,37.9091797,14.1943359,37.9091797z     M14.1943359,27.0869141c-2.7080078,0-4.9111328,2.203125-4.9111328,4.9111328s2.203125,4.9111328,4.9111328,4.9111328    s4.9111328-2.203125,4.9111328-4.9111328S16.9023438,27.0869141,14.1943359,27.0869141z" fill="#383838"/></g><g><path d="M25.990118,38.3635559c-0.9140797-0.783268-2.2891865-0.6753197-3.070858,0.2387581l-3.6658878,4.2848434    l-3.7849989-2.7294731c-0.6646881-0.479641-1.5399485-0.5445137-2.2663193-0.172287    c-0.7279663,0.3722229-1.1858034,1.1209297-1.1858034,1.9387589V53.8125h4.3560982v-7.6322136l1.9589691,1.4123306    c0.9188633,0.6630936,2.1924057,0.510479,2.9288807-0.3504257l4.9686737-5.8077736    C27.0110779,40.5203362,26.9041958,39.1452293,25.990118,38.3635559z" fill="#A4FF88"/><path d="M16.3725586,54.3125h-4.3564453c-0.2763672,0-0.5-0.2236328-0.5-0.5V41.9243164    c0-1.0107422,0.559082-1.9243164,1.4584961-2.3842773c0.8989258-0.4604492,1.9667969-0.3789062,2.7861328,0.2124023    l3.4121094,2.4599609l3.3666992-3.9350586c0.465332-0.5439453,1.1147461-0.8740234,1.8286133-0.9296875    c0.7143555-0.0532227,1.4042969,0.1713867,1.9467773,0.6362305l0,0c0.5439453,0.4643555,0.8740234,1.1132812,0.9291992,1.8266602    c0.0556641,0.7133789-0.1699219,1.4057617-0.6352539,1.9492188l-4.96875,5.8076172    c-0.8989258,1.0507812-2.480957,1.2402344-3.6010742,0.4306641l-1.1665039-0.8408203V53.8125    C16.8725586,54.0888672,16.6489258,54.3125,16.3725586,54.3125z M12.5161133,53.3125h3.3564453v-7.1323242    c0-0.1875,0.1049805-0.359375,0.2719727-0.4453125c0.168457-0.0844727,0.3681641-0.0698242,0.5205078,0.0395508    l1.9589844,1.4125977c0.7026367,0.5068359,1.6933594,0.3876953,2.2563477-0.2700195l4.96875-5.8076172    c0.2915039-0.340332,0.4326172-0.7744141,0.3979492-1.2211914s-0.2412109-0.8535156-0.581543-1.1445312    c-0.0004883,0-0.0004883,0-0.0009766-0.0004883c-0.3393555-0.2915039-0.7758789-0.4345703-1.2192383-0.3984375    c-0.4472656,0.034668-0.8540039,0.2416992-1.1459961,0.5830078l-3.6660156,4.284668    c-0.168457,0.1967773-0.4614258,0.2324219-0.6723633,0.0805664l-3.7851562-2.7294922    c-0.5136719-0.3710938-1.1831055-0.4208984-1.7456055-0.1333008c-0.5639648,0.2885742-0.9140625,0.8608398-0.9140625,1.4941406    V53.3125z" fill="#383838"/></g><g><rect fill="#B29D83" height="3.5393302" width="26.9533615" x="26.2076035" y="50.2731705"/><path d="M53.1611328,54.3125H26.2075195c-0.2763672,0-0.5-0.2236328-0.5-0.5v-3.5395508    c0-0.2763672,0.2236328-0.5,0.5-0.5h26.9536133c0.2763672,0,0.5,0.2236328,0.5,0.5V53.8125    C53.6611328,54.0888672,53.4375,54.3125,53.1611328,54.3125z M26.7075195,53.3125h25.9536133v-2.5395508H26.7075195V53.3125z" fill="#383838"/></g><path d="M48.4824219,50.7729492h-3.5576172c-0.253418,0-0.4667969-0.1899414-0.496582-0.4414062   l-0.8984375-7.6230469c-0.0166016-0.1420898,0.027832-0.2841797,0.1230469-0.390625   c0.0947266-0.1069336,0.230957-0.1679688,0.3735352-0.1679688h5.3544922c0.1425781,0,0.2788086,0.0610352,0.3735352,0.1679688   c0.0952148,0.1064453,0.1396484,0.2485352,0.1230469,0.390625l-0.8984375,7.6230469   C48.9492188,50.5830078,48.7358398,50.7729492,48.4824219,50.7729492z M45.3691406,49.7729492h2.6689453l0.7802734-6.6230469   h-4.2294922L45.3691406,49.7729492z" fill="#383838"/><g><polygon fill="#8FC1FF" points="40.6241455,50.2731705 31.0583115,50.2731705 29.9877205,47.0968475 41.6947365,47.0968475   "/><path d="M40.6240234,50.7729492h-9.565918c-0.2148438,0-0.4052734-0.1367188-0.4736328-0.340332    l-1.0703125-3.1762695c-0.0517578-0.1523438-0.0263672-0.3208008,0.0673828-0.4511719    c0.0942383-0.1308594,0.2451172-0.2084961,0.40625-0.2084961h11.7070312c0.1611328,0,0.3120117,0.0776367,0.40625,0.2084961    c0.09375,0.1308594,0.1191406,0.2988281,0.0673828,0.4511719l-1.0708008,3.1762695    C41.0292969,50.6362305,40.8383789,50.7729492,40.6240234,50.7729492z M31.4174805,49.7729492h8.8476562l0.7333984-2.1762695    H30.684082L31.4174805,49.7729492z" fill="#383838"/></g><path d="M35.7050781,47.5966797h-4.3105469c-0.2763672,0-0.5-0.2236328-0.5-0.5v-0.7939453   c0-1.4643555,1.190918-2.6552734,2.6552734-2.6552734s2.6552734,1.190918,2.6552734,2.6552734v0.7939453   C36.2050781,47.3730469,35.9814453,47.5966797,35.7050781,47.5966797z M31.8945312,46.5966797h3.3105469v-0.2939453   c0-0.9125977-0.7426758-1.6552734-1.6552734-1.6552734s-1.6552734,0.7426758-1.6552734,1.6552734V46.5966797z" fill="#383838"/><g><rect fill="#FFCE7B" height="1.8604171" width="2.2461133" x="37.2705727" y="45.2364311"/><path d="M39.5166016,47.5966797h-2.2460938c-0.2763672,0-0.5-0.2236328-0.5-0.5v-1.8603516    c0-0.2763672,0.2236328-0.5,0.5-0.5h2.2460938c0.2763672,0,0.5,0.2236328,0.5,0.5v1.8603516    C40.0166016,47.3730469,39.7929688,47.5966797,39.5166016,47.5966797z M37.7705078,46.5966797h1.2460938v-0.8603516h-1.2460938    V46.5966797z" fill="#383838"/></g><g><polygon fill="#8FC1FF" points="49.0930405,45.092392 44.3142853,45.092392 44.924778,50.2731705 48.4825439,50.2731705   "/><path d="M48.4824219,50.7729492h-3.5576172c-0.253418,0-0.4667969-0.1899414-0.496582-0.4414062    l-0.6103516-5.1806641c-0.0166016-0.1420898,0.027832-0.2841797,0.1230469-0.390625    c0.0947266-0.1069336,0.230957-0.1679688,0.3735352-0.1679688h4.7788086c0.1425781,0,0.2788086,0.0610352,0.3735352,0.1679688    c0.0952148,0.1064453,0.1396484,0.2485352,0.1230469,0.390625l-0.6108398,5.1806641    C48.9492188,50.5830078,48.7358398,50.7729492,48.4824219,50.7729492z M45.3691406,49.7729492h2.6689453l0.4926758-4.1806641    h-3.6538086L45.3691406,49.7729492z" fill="#383838"/></g><path d="M41,54.3125H10.375c-0.2763672,0-0.5-0.2236328-0.5-0.5s0.2236328-0.5,0.5-0.5H41   c0.2763672,0,0.5,0.2236328,0.5,0.5S41.2763672,54.3125,41,54.3125z" fill="#383838"/><path d="M32.5,18.6875c-0.2763672,0-0.5-0.2236328-0.5-0.5V15.75c0-0.2763672,0.2236328-0.5,0.5-0.5   s0.5,0.2236328,0.5,0.5v2.4375C33,18.4638672,32.7763672,18.6875,32.5,18.6875z" fill="#FFCE7B"/><path d="M33.71875,17.46875h-2.4375c-0.2763672,0-0.5-0.2236328-0.5-0.5s0.2236328-0.5,0.5-0.5h2.4375   c0.2763672,0,0.5,0.2236328,0.5,0.5S33.9951172,17.46875,33.71875,17.46875z" fill="#FFCE7B"/><path d="M39.6875,24.2094727c-0.2763672,0-0.5-0.2236328-0.5-0.5v-2.4375c0-0.2763672,0.2236328-0.5,0.5-0.5   s0.5,0.2236328,0.5,0.5v2.4375C40.1875,23.9858398,39.9638672,24.2094727,39.6875,24.2094727z" fill="#FFCE7B"/><path d="M40.90625,22.9907227h-2.4375c-0.2763672,0-0.5-0.2236328-0.5-0.5s0.2236328-0.5,0.5-0.5h2.4375   c0.2763672,0,0.5,0.2236328,0.5,0.5S41.1826172,22.9907227,40.90625,22.9907227z" fill="#FFCE7B"/></g></svg>