<?xml version="1.0" ?><svg height="36" id="svg2" version="1.1" viewBox="0 0 36 36.000001" width="36" xmlns="http://www.w3.org/2000/svg" xmlns:cc="http://creativecommons.org/ns#" xmlns:dc="http://purl.org/dc/elements/1.1/" xmlns:inkscape="http://www.inkscape.org/namespaces/inkscape" xmlns:rdf="http://www.w3.org/1999/02/22-rdf-syntax-ns#" xmlns:sodipodi="http://sodipodi.sourceforge.net/DTD/sodipodi-0.dtd" xmlns:svg="http://www.w3.org/2000/svg"><defs id="defs4"/><g id="layer1" transform="translate(0,-1016.3622)"><path d="M 27.478516 2 C 23.335386 2 20 5.3695 20 9.5 C 20 13.632 23.335403 17 27.478516 17 C 31.620623 17 35 13.6356 35 9.5 A 0.50004994 0.50004994 0 0 0 34.960938 9.3046875 A 0.50004994 0.50004994 0 0 0 34.958984 9.3046875 C 34.84727 5.2668875 31.55052 2.0019531 27.478516 2.0019531 L 27.478516 2 z M 27.478516 3 C 31.080571 3 34 5.9094 34 9.5 C 34 13.0924 31.080588 16 27.478516 16 C 23.875288 16 21 13.096 21 9.5 C 21 5.9057 23.875305 3 27.478516 3 z M 25 6 L 25 6.0097656 L 24.976562 6.0097656 L 24.976562 7.0097656 L 26.003906 7.0097656 C 26.938191 7.0097656 27.408734 7.4511358 27.578125 8 L 25 8 L 25 9 L 27.578125 9 C 27.408278 9.5486333 26.937247 9.9921875 26.003906 9.9921875 L 25.652344 9.9921875 L 25.646484 9.9863281 L 25.640625 9.9921875 L 24.976562 9.9921875 L 24.976562 10.671875 L 24.947266 10.701172 L 24.976562 10.730469 L 24.976562 10.992188 L 25.244141 10.992188 L 28.324219 14.001953 L 29.023438 13.287109 L 26.613281 10.931641 C 27.707963 10.709473 28.410325 9.8958232 28.603516 9 L 29.96875 9 L 29.96875 8 L 28.603516 8 C 28.526224 7.6404157 28.359405 7.299929 28.125 7 L 29.96875 7 L 29.96875 6 L 25 6 z M 12.197266 9.0019531 C 9.3280825 9.0019531 7 11.320194 7 14.183594 L 7 17.273438 L 6.4589844 16.732422 A 0.50005 0.50005 0 0 0 6.0996094 16.582031 A 0.50005 0.50005 0 0 0 5.7519531 17.439453 L 7.1660156 18.853516 A 0.50005 0.50005 0 0 0 7.8730469 18.853516 L 9.2871094 17.439453 A 0.50005 0.50005 0 1 0 8.5800781 16.732422 L 8 17.3125 L 8 14.183594 C 8 11.858394 9.863268 10.001953 12.197266 10.001953 L 18.494141 10.001953 A 0.50005 0.50005 0 1 0 18.494141 9.0019531 L 12.197266 9.0019531 z M 27.472656 18 A 0.50005 0.50005 0 0 0 27.126953 18.146484 L 25.712891 19.560547 A 0.50064305 0.50064305 0 1 0 26.419922 20.269531 L 26.998047 19.689453 L 26.998047 22.818359 C 26.998047 25.143559 25.136732 27 22.802734 27 L 16.505859 27 A 0.50005 0.50005 0 1 0 16.505859 28 L 22.802734 28 C 25.671917 28 27.998047 25.681759 27.998047 22.818359 L 27.998047 19.724609 L 28.541016 20.269531 A 0.50064305 0.50064305 0 1 0 29.248047 19.560547 L 27.833984 18.146484 A 0.50005 0.50005 0 0 0 27.472656 18 z M 7.4804688 20.001953 C 3.337339 20.001953 -5.9211895e-016 23.3695 0 27.5 C 0 31.632 3.3373562 35 7.4804688 35 C 11.622577 35 15 31.6356 15 27.5 A 0.50004994 0.50004994 0 0 0 14.960938 27.304688 A 0.50004994 0.50004994 0 0 0 14.958984 27.304688 C 14.84727 23.266887 11.552473 20.003906 7.4804688 20.003906 L 7.4804688 20.001953 z M 7.4804688 21.001953 C 11.082524 21.001953 14 23.9094 14 27.5 C 14 31.0924 11.082541 34 7.4804688 34 C 3.8772412 34 1 31.096 1 27.5 C 1 23.9057 3.8772585 21.001953 7.4804688 21.001953 z M 7.6875 23.005859 C 7.4230801 22.995284 7.1594841 23.0258 6.90625 23.09375 C 6.3997819 23.22935 5.9342985 23.518 5.5820312 23.9375 C 4.8775084 24.7767 4.7722635 25.971222 5.3203125 26.919922 A 0.50005006 0.50005006 0 0 0 5.3652344 26.988281 A 0.50005 0.50005 0 0 0 5.3964844 27.046875 C 5.4797476 27.176401 5.5462674 27.311804 5.609375 27.449219 L 4.9648438 27.449219 A 0.50005006 0.50005006 0 1 0 4.9648438 28.449219 L 5.8867188 28.449219 C 5.9972427 29.405095 5.7038252 30.393436 5.0195312 31.107422 A 0.50006652 0.50006652 0 0 0 5.5996094 31.900391 A 0.50025091 0.50025091 0 0 0 5.7363281 31.845703 C 6.1662478 31.586803 6.4995745 31.411116 6.7871094 31.353516 C 7.0746443 31.296516 7.340195 31.319522 7.7753906 31.544922 L 7.7480469 31.527344 C 8.2671719 31.840044 8.8493942 31.994994 9.4042969 31.996094 C 9.9591996 31.996094 10.509392 31.845259 10.894531 31.443359 A 0.50006641 0.50006641 0 0 0 10.171875 30.751953 C 10.044374 30.885053 9.7681273 30.996794 9.40625 30.996094 C 9.0443727 30.995394 8.6203669 30.884822 8.2636719 30.669922 A 0.50005006 0.50005006 0 0 0 8.2363281 30.654297 C 7.6680367 30.359918 7.1219132 30.278036 6.6289062 30.367188 C 6.8602684 29.755446 6.9546399 29.100405 6.8964844 28.449219 L 7.9980469 28.449219 A 0.50005006 0.50005006 0 1 0 7.9980469 27.449219 L 6.6777344 27.449219 C 6.5672271 27.123238 6.4301374 26.804314 6.2382812 26.505859 A 0.50005 0.50005 0 0 0 6.2148438 26.472656 A 0.50005006 0.50005006 0 0 0 6.1855469 26.419922 C 5.8461164 25.832422 5.911259 25.099878 6.3476562 24.580078 C 6.7840608 24.060278 7.4947072 23.869462 8.1328125 24.101562 C 8.7709306 24.333662 9.1933658 24.936734 9.1933594 25.615234 A 0.50005006 0.50005006 0 1 0 10.193359 25.615234 C 10.19337 24.519634 9.5044122 23.536809 8.4746094 23.162109 C 8.2171638 23.068459 7.9519199 23.016434 7.6875 23.005859 z " id="path5768" style="color:#000000;font-style:normal;font-variant:normal;font-weight:normal;font-stretch:normal;font-size:medium;line-height:normal;font-family:sans-serif;text-indent:0;text-align:start;text-decoration:none;text-decoration-line:none;text-decoration-style:solid;text-decoration-color:#000000;letter-spacing:normal;word-spacing:normal;text-transform:none;direction:ltr;block-progression:tb;writing-mode:lr-tb;baseline-shift:baseline;text-anchor:start;white-space:normal;clip-rule:nonzero;display:inline;overflow:visible;visibility:visible;opacity:1;isolation:auto;mix-blend-mode:normal;color-interpolation:sRGB;color-interpolation-filters:linearRGB;solid-color:#000000;solid-opacity:1;fill:#000000;fill-opacity:1;fill-rule:nonzero;stroke:none;stroke-width:0.99999988;stroke-linecap:round;stroke-linejoin:round;stroke-miterlimit:34.17825699;stroke-dasharray:none;stroke-dashoffset:0;stroke-opacity:1;color-rendering:auto;image-rendering:auto;shape-rendering:auto;text-rendering:auto;enable-background:accumulate" transform="translate(0,1016.3622)"/></g></svg>