<?xml version="1.0" ?><svg height="58px" version="1.1" viewBox="0 0 58 58" width="58px" xmlns="http://www.w3.org/2000/svg" xmlns:xlink="http://www.w3.org/1999/xlink"><title/><desc/><defs/><g fill="none" fill-rule="evenodd" id="Page-1" stroke="none" stroke-width="1"><g fill-rule="nonzero" id="009---Cracker"><path d="M17.32285,36.65469 C17.30185,36.61257 17.1915,36.39828 17.00864,36.08499 C16.9847666,35.9865342 16.9312502,35.8977778 16.85532,35.83071 C15.85947,34.19943 13.32554,30.72109 9.80232,30.72109 C5.87361,30.72109 4.50643,29.46182 4.49764,29.45352 C4.37178011,29.3250914 4.18664611,29.2741462 4.01279926,29.3201015 C3.83895241,29.3660569 3.70317685,29.5018324 3.65722155,29.6756793 C3.61126624,29.8495261 3.6622114,30.0346601 3.79064,30.16052 C3.85412,30.22452 5.40197,31.72106 9.80236,31.72106 C11.89343,31.72106 13.64148,33.26606 14.81823,34.7008 C12.86084,33.815 9.81408,32.91552 7.32971,34.3236 C3.91471,36.2616 2.10314,35.8402 2.09045,35.83825 C1.82428465,35.7648983 1.5490517,35.9212046 1.4757,36.18737 C1.4023483,36.4535354 1.55865465,36.7287683 1.82482,36.80212 C2.0790954,36.8597679 2.33958747,36.8853568 2.60022,36.87829 C4.45697958,36.7734727 6.25567811,36.1934098 7.82385,35.19372 C10.88794,33.45654 15.26916,35.99908 16.09423,36.51122 C16.30444,36.86187 16.42297,37.09155 16.42834,37.10241 C16.5133367,37.2714848 16.6863728,37.3782149 16.87561,37.37829 C17.048765,37.3779469 17.2094499,37.2881538 17.3004878,37.1408619 C17.3915257,36.9935701 17.3999905,36.809693 17.32287,36.65466 L17.32285,36.65469 Z" fill="#EACA6F" id="Shape"/><path d="M56.1752,21.19785 C56.08926,21.17295 54.0043,20.63485 50.1762,22.80625 C47.11273,24.54496 42.73089,22.00095 41.90582,21.48868 C41.69561,21.1381 41.57708,20.90842 41.57171,20.89756 C41.4474291,20.6517384 41.1477857,20.5526694 40.9014671,20.6759622 C40.6551485,20.7992551 40.5548771,21.0984983 40.67718,21.34531 C40.69818,21.38743 40.80853,21.60172 40.99139,21.91495 C41.0152606,22.013424 41.0687764,22.1022004 41.14471,22.16929 C42.14056,23.80057 44.67449,27.27891 48.19771,27.27891 C52.12642,27.27891 53.4936,28.53818 53.50239,28.54648 C53.6282499,28.6749086 53.8133839,28.7258538 53.9872307,28.6798985 C54.1610776,28.6339431 54.2968531,28.4981676 54.3428085,28.3243207 C54.3887638,28.1504739 54.3378186,27.9653399 54.20939,27.83948 C54.14591,27.77548 52.59806,26.27894 48.19767,26.27894 C46.10611,26.27894 44.35807,24.73322 43.18119,23.29828 C44.599558,23.9778677 46.143367,24.3561546 47.71524,24.40928 C48.7473247,24.4268463 49.7660581,24.1741831 50.67032,23.67637 C54.08532,21.73789 55.89493,22.1583 55.90958,22.16172 C56.1757454,22.2350717 56.4509783,22.0787654 56.52433,21.8126 C56.5976817,21.5464346 56.4413754,21.2712017 56.17521,21.19785 L56.1752,21.19785 Z" fill="#EACA6F" id="Shape"/><polyline fill="#D8625E" id="Shape" points="40.91 21.16 41.02 26.88 26.88 41.02 21 40.75 20.51 47.38 9.9 57.99 0 48.09 10.61 37.49 17.16 37 16.98 31.12 31.12 16.98 36.86 17.06 36.78 16.98 37.49 10.62 48.1 0.01 58 9.91 47.39 20.51 40.91 21.16"/><polygon fill="#944143" id="Shape" points="21.22 41.02 21.15 41.65 20.51 47.38 16.27 43.14 14.85 41.73 10.61 37.49 16.34 36.85 16.98 36.78"/><polygon fill="#F0F3F4" id="Shape" points="16.976 50.92 12.732 50.92 12.732 46.678 8.488 46.678 8.488 42.435 5.659 42.435 3.537 44.556 6.366 44.556 6.366 48.799 10.61 48.799 10.61 53.042 14.854 53.042"/><polygon fill="#944143" id="Shape" points="26.88 41.02 21.22 41.02 16.98 36.78 16.98 31.12 21.93 36.07"/><polygon fill="#944143" id="Shape" points="47.39 20.51 41.66 21.15 41.02 21.22 38.2 18.4 38.2 18.39 36.78 16.98 36.85 16.34 37.49 10.62 41.73 14.86 43.15 16.27"/><polygon fill="#F0F3F4" id="Shape" points="41.024 7.08 45.268 7.08 45.268 11.322 49.512 11.322 49.512 15.565 52.341 15.565 54.463 13.444 51.634 13.444 51.634 9.201 47.39 9.201 47.39 4.958 43.146 4.958"/><polygon fill="#944143" id="Shape" points="41.02 21.22 41.02 26.88 31.12 16.98 36.78 16.98"/><polygon fill="#C9CED1" id="Shape" points="32.989 28.745 36.073 31.828 31.829 36.071 28.745 32.988 25.011 29.255 21.927 26.172 26.171 21.929 29.255 25.012"/><circle cx="29" cy="29" fill="#F0F3F4" id="Oval" r="4.00059"/><polygon fill="#EACA6F" id="Shape" points="21.92 41.02 21.255 41.02 21.15 41.65 16.34 36.85 16.894 36.729 16.98 36.07"/><polygon fill="#EACA6F" id="Shape" points="41.66 21.15 41.039 21.239 41.02 21.93 36.07 16.98 36.718 16.929 36.85 16.34"/></g></g></svg>