<?xml version="1.0" ?><svg height="58px" version="1.1" viewBox="0 0 52 58" width="52px" xmlns="http://www.w3.org/2000/svg" xmlns:xlink="http://www.w3.org/1999/xlink"><title/><desc/><defs/><g fill="none" fill-rule="evenodd" id="Page-1" stroke="none" stroke-width="1"><g id="017---Snow-Globe" transform="translate(-1.000000, -1.000000)"><path d="M40.84,49 C50.6479052,42.8328303 55.1918302,30.9202854 51.9826785,19.7878853 C48.7735267,8.65548523 38.5857234,0.98967515 27,0.98967515 C15.4142766,0.98967515 5.22647327,8.65548523 2.01732154,19.7878853 C-1.19183019,30.9202854 3.3520948,42.8328303 13.16,49 L40.84,49 Z" fill="#BDDCF3" id="Shape"/><path d="M44,49 L40.82825,49 L40.82825,46 L13.1665,46 L13.1665,49 L10,49 C7.790861,49 6,50.790861 6,53 L6,59 L48,59 L48,53 C48,50.790861 46.209139,49 44,49 Z" fill="#445C71" id="Shape"/><rect fill="#EACA6F" fill-rule="nonzero" height="4" id="Rectangle-path" rx="2" width="24" x="15" y="52"/><rect fill="#FEDEBB" fill-rule="nonzero" height="15" id="Rectangle-path" width="20" x="17" y="25"/><polygon fill="#F5A585" id="Shape" points="40 25 14 25 14 22 27 15 40 22"/><path d="M26,32 L28,32 C29.1045695,32 30,32.8954305 30,34 L30,40 L24,40 L24,34 C24,32.8954305 24.8954305,32 26,32 Z" fill="#BE9379" fill-rule="nonzero" id="Shape"/><path d="M17,33.09 L17,40 L10.09,40 C10.0294098,39.6701302 9.99928299,39.3353874 10,39 C10.0026194,35.6873771 12.6873771,33.0026194 16,33 C16.3353875,32.9992804 16.6701306,33.0294073 17,33.09 L17,33.09 Z" fill="#FFFFFF" id="Shape"/><path d="M44,39 C44.000717,39.3353874 43.9705902,39.6701302 43.91,40 L37,40 L37,33.09 C37.3298694,33.0294073 37.6646125,32.9992804 38,33 C41.3126229,33.0026194 43.9973806,35.6873771 44,39 L44,39 Z" fill="#FFFFFF" id="Shape"/><polyline fill="#F58D6D" id="Shape" points="32 17.69 32 14 36 14 36 19.85"/><rect fill="#F5A585" fill-rule="nonzero" height="2" id="Rectangle-path" rx="1" width="6" x="31" y="12"/><circle cx="18" cy="9" fill="#FFFFFF" fill-rule="nonzero" id="Oval" r="2"/><circle cx="29" cy="8" fill="#FFFFFF" fill-rule="nonzero" id="Oval" r="1"/><circle cx="43" cy="16" fill="#FFFFFF" fill-rule="nonzero" id="Oval" r="2"/><circle cx="8.5" cy="23.5" fill="#FFFFFF" fill-rule="nonzero" id="Oval" r="2.5"/><circle cx="12.5" cy="15.5" fill="#FFFFFF" fill-rule="nonzero" id="Oval" r="1.5"/><circle cx="46" cy="29" fill="#FFFFFF" fill-rule="nonzero" id="Oval" r="2"/><circle cx="6.5" cy="32.5" fill="#FFFFFF" fill-rule="nonzero" id="Oval" r="1.5"/><path d="M49.52,40 C47.4028896,43.6621944 44.4231834,46.7517515 40.84,49 L13.16,49 C9.57681658,46.7517515 6.59711042,43.6621944 4.48,40 L49.52,40 Z" fill="#F0F3F4" id="Shape"/></g></g></svg>