<?xml version="1.0" ?><svg height="59px" version="1.1" viewBox="0 0 50 59" width="50px" xmlns="http://www.w3.org/2000/svg" xmlns:xlink="http://www.w3.org/1999/xlink"><title/><desc/><defs/><g fill="none" fill-rule="evenodd" id="Page-1" stroke="none" stroke-width="1"><g fill-rule="nonzero" id="005---Bell"><path d="M49.98,25.68 C49.9435259,26.9472824 49.7280602,28.2030433 49.34,29.41 C48.9058233,30.6324074 48.2095563,31.7450694 47.3,32.67 C46.8252877,33.2440846 46.2177361,33.6937415 45.53,33.98 C44.9981808,34.1417406 44.4297947,34.1382536 43.9,33.97 C43.0582772,33.6736565 42.2978784,33.1838501 41.68,32.54 C40.595238,31.4535316 39.6572787,30.2298141 38.89,28.9 L38.89,24 C38.8929006,22.3812864 38.6293792,20.77313 38.11,19.24 C39.0051509,20.0010578 39.9617487,20.686731 40.97,21.29 C43.6012148,23.0146788 46.8075105,23.6293386 49.89,23 C49.9,23.08 49.91,23.17 49.92,23.25 C49.9999065,24.0574115 50.0199613,24.8696288 49.98,25.68 Z" fill="#94567C" id="Shape"/><path d="M12,19.25 C11.4257893,20.906383 11.1317583,22.6469114 11.13,24.4 L11.13,29.08 C10.3898513,30.3442404 9.48901936,31.5072548 8.45,32.54 C7.83212326,33.1838521 7.07172395,33.6736589 6.23,33.97 C5.70020562,34.1382555 5.13181891,34.1417425 4.6,33.98 C3.91375104,33.6911247 3.30678034,33.2418978 2.83,32.67 C1.92046099,31.7450557 1.22419653,30.6323978 0.79,29.41 C0.401910442,28.2030505 0.186444045,26.9472854 0.15,25.68 C0.10998372,24.8696295 0.130038569,24.0574081 0.21,23.25 C0.22,23.17 0.23,23.08 0.24,23 C3.3224896,23.6293175 6.52877726,23.0146593 9.16,21.29 C10.1616576,20.6900204 11.1116074,20.0076622 12,19.25 L12,19.25 Z" fill="#94567C" id="Shape"/><path d="M50,49 C50,54.52 38.81,59 25,59 C11.19,59 0,54.52 0,49 C0,46.77 1.83,44.7 4.92,43.04 C8.08214204,41.2925569 10.0323069,37.9527076 10,34.34 L10,24.4 C9.99766616,21.5242066 10.7901727,18.7037138 12.29,16.25 C14.7656452,12.095792 19.1079433,9.40610397 23.93,9.04 C24.26,9.02 24.6,9 24.93,9 L25.01,9 C28.985418,8.99624472 32.7977276,10.5802072 35.6,13.4 C36.4610706,14.2542302 37.2134239,15.2114654 37.84,16.25 C38.4120122,17.1910488 38.8749952,18.1941785 39.22,19.24 C39.7393792,20.77313 40.0029006,22.3812864 40,24 L40,34.34 C39.9676931,37.9527076 41.917858,41.2925569 45.08,43.04 C48.17,44.7 50,46.77 50,49 Z" fill="#F4CD1E" id="Shape"/><ellipse cx="25" cy="49.5" fill="#EC9130" id="Oval" rx="21" ry="6.5"/><path d="M36,25 C35.4477153,25 35,24.5522847 35,24 C34.9937833,21.2238369 33.8363142,18.5746212 31.8035182,16.683891 C29.7707221,14.7931608 27.0447328,13.8303211 24.27539,14.0249 C23.9189979,14.0491476 23.5767421,13.8814204 23.377547,13.5848997 C23.1783519,13.2883789 23.15248,12.908113 23.309677,12.5873446 C23.466874,12.2665762 23.7832579,12.0540376 24.13965,12.02979 C27.4617302,11.7973971 30.7313658,12.9534814 33.1690224,15.2224136 C35.6066791,17.4913458 36.9939184,20.6698069 37,24 C37,24.5522847 36.5522847,25 36,25 Z" fill="#F6DB6D" id="Shape"/><path d="M33.772,40.05078 C33.7501171,40.0507601 33.7282594,40.0492936 33.70657,40.04639 C27.9248249,39.32178 22.0752351,39.32178 16.29349,40.04639 C16.0197749,40.0822581 15.7688082,39.8894451 15.73294,39.61573 C15.6970719,39.3420149 15.8898849,39.0910481 16.1636,39.05518 C22.031483,38.31787 27.968577,38.31787 33.83646,39.05518 C34.0975884,39.0894067 34.2873813,39.3203482 34.2703656,39.5831599 C34.2533499,39.8459716 34.0353618,40.0505114 33.772,40.05078 L33.772,40.05078 Z" fill="#EC9130" id="Shape"/><path d="M32,45 C32,48.8659932 28.8659932,52 25,52 C21.1340068,52 18,48.8659932 18,45 C17.9999698,44.4439523 18.0671231,43.8899377 18.2,43.35 C22.7213248,42.8833586 27.2786752,42.8833586 31.8,43.35 C31.9328769,43.8899377 32.0000302,44.4439523 32,45 Z" fill="#DC6C33" id="Shape"/><path d="M21,5 C21.0004149,4.23020042 21.2226099,3.47682071 21.64,2.83 C19.72,2.14 10.57,-0.87 7,2.76 C3.66,6.16 10.09,13.83 12.29,16.25 C14.7656452,12.095792 19.1079433,9.40610397 23.93,9.04 C24.26,9.02 24.6,9 24.93,9 C22.7476574,8.96318294 20.9982862,7.1826525 21,5 Z M17.31,6.15 C16.3923934,6.73894065 15.3591668,7.12426939 14.28,7.28 C13.2535866,7.58818691 12.1546478,7.55307704 11.15,7.18 C10.8418757,7.03124918 10.628126,6.7387496 10.58,6.4 C10.4978887,5.89646516 10.6745093,5.38539297 11.05,5.04 C11.1047676,4.99538762 11.1653161,4.95838573 11.23,4.93 C12.1306117,4.58366819 13.0999285,4.45351257 14.06,4.55 C15.0532437,4.59472359 16.0388524,4.74558205 17,5 C17.25,5.06 17.72,5.18 17.77,5.5 C17.82,5.78 17.51,6.01 17.31,6.15 Z" fill="#94567C" id="Shape"/><path d="M43.13,2.76 C39.56,-0.87 30.41,2.14 28.49,2.83 L28.48,2.83 L28.39,2.88 C28.7919116,3.51377971 29.003615,4.24953574 29,5 C29.0017639,7.2059657 27.2159632,8.99624205 25.01,9 C28.985418,8.99624472 32.7977276,10.5802072 35.6,13.4 C36.4610706,14.2542302 37.2134239,15.2114654 37.84,16.25 C40.04,13.83 46.47,6.16 43.13,2.76 Z M39.44,6.4 C39.3918689,6.73874753 39.1781208,7.03124496 38.87,7.18 C37.8653521,7.55307632 36.7664135,7.58818618 35.74,7.28 C34.6608306,7.12427966 33.6276019,6.73895014 32.71,6.15 C32.51,6.01005 32.2,5.78 32.25,5.5 C32.3,5.18 32.77,5.06 33.02,5 C33.9811458,4.74557312 34.9667554,4.59471451 35.96,4.55 C36.9200717,4.45349907 37.8893917,4.58365511 38.79,4.93 C38.8546839,4.95838573 38.9152324,4.99538762 38.97,5.04 C39.3455095,5.38538067 39.5221336,5.89646324 39.44,6.4 Z" fill="#94567C" id="Shape"/><path d="M29.5,5 C29.501985,7.4817078 27.492965,9.49576748 25.01126,9.5 L24.92126,9.5 C23.2876871,9.47132966 21.797974,8.5595421 21.0292394,7.11786617 C20.2605048,5.67619024 20.3335205,3.93111993 21.22,2.5587 L21.23126,2.5587 C22.0636123,1.26555608 23.5001782,0.488702143 25.0380017,0.500122513 C26.5758252,0.511542883 28.000695,1.30964676 28.81375,2.61501 C29.2658958,3.32801064 29.5040618,4.15573155 29.5,5 Z" fill="#4E435F" id="Shape"/></g></g></svg>