<?xml version="1.0" ?><!DOCTYPE svg  PUBLIC '-//W3C//DTD SVG 1.1//EN'  'http://www.w3.org/Graphics/SVG/1.1/DTD/svg11.dtd'><svg enable-background="new 0 0 64 64" id="Layer_1" version="1.1" viewBox="0 0 64 64" xml:space="preserve" xmlns="http://www.w3.org/2000/svg" xmlns:xlink="http://www.w3.org/1999/xlink"><g><path d="M17,35.8l1.9,1.9c0.2,0.2,0.3,0.4,0.3,0.7c0,0.3-0.1,0.5-0.3,0.7l-3.1,3.1c-0.4,0.4-1,0.4-1.4,0l-1.9-1.9   l-2,2l11.2,11.2l2-2l-1.9-1.9c-0.2-0.2-0.3-0.4-0.3-0.7c0-0.3,0.1-0.5,0.3-0.7l3.1-3.1c0.4-0.4,1-0.4,1.4,0l1.9,1.9l19.3-19.3   L36.3,16.5L17,35.8z M43.2,28.2c0.4,0.4,0.4,1,0,1.4L31.3,41.5c-0.2,0.2-0.5,0.3-0.7,0.3c-0.3,0-0.5-0.1-0.7-0.3   c-0.4-0.4-0.4-1,0-1.4l11.9-11.9C42.2,27.8,42.8,27.8,43.2,28.2z" fill="#515E27"/><path d="M46,10.1c-2.1,0-4.1,0.8-5.6,2.3l-2.7,2.7l11.2,11.2l2.7-2.7c3.1-3.1,3.1-8.1,0-11.2   C50.1,10.9,48.1,10.1,46,10.1z" fill="#515E27"/><path d="M46,8.1c-2.6,0-5.1,1-7,2.9L14.9,35.1c-0.2,0.2-0.3,0.4-0.3,0.7c0,0.3,0.1,0.5,0.3,0.7l1.9,1.9l-1.6,1.6   l-1.9-1.9c-0.4-0.4-1-0.4-1.4,0l-3.4,3.4C8,42,8,42.6,8.4,43L21,55.6c0.2,0.2,0.5,0.3,0.7,0.3c0.3,0,0.5-0.1,0.7-0.3l3.4-3.4   c0.2-0.2,0.3-0.4,0.3-0.7c0-0.3-0.1-0.5-0.3-0.7l-1.9-1.9l1.6-1.6l1.9,1.9c0.4,0.4,1,0.4,1.4,0L53,25c3.9-3.9,3.9-10.2,0-14   C51.1,9.1,48.6,8.1,46,8.1z M28.2,47l-1.9-1.9c-0.4-0.4-1-0.4-1.4,0l-3.1,3.1c-0.2,0.2-0.3,0.4-0.3,0.7c0,0.3,0.1,0.5,0.3,0.7   l1.9,1.9l-2,2L10.5,42.3l2-2l1.9,1.9c0.4,0.4,1,0.4,1.4,0l3.1-3.1c0.2-0.2,0.3-0.4,0.3-0.7c0-0.3-0.1-0.5-0.3-0.7L17,35.8   l19.3-19.3l11.2,11.2L28.2,47z M51.6,23.6l-2.7,2.7L37.7,15.1l2.7-2.7c1.5-1.5,3.5-2.3,5.6-2.3c2.1,0,4.1,0.8,5.6,2.3   C54.7,15.5,54.7,20.5,51.6,23.6z" fill="#1F2310"/><path d="M29.9,41.5c0.2,0.2,0.5,0.3,0.7,0.3c0.3,0,0.5-0.1,0.7-0.3l11.9-11.9c0.4-0.4,0.4-1,0-1.4   c-0.4-0.4-1-0.4-1.4,0L29.9,40.1C29.5,40.5,29.5,41.1,29.9,41.5z" fill="#1F2310"/></g></svg>