<?xml version="1.0" ?><svg height="36" id="svg6390" version="1.1" width="36" xmlns="http://www.w3.org/2000/svg" xmlns:cc="http://creativecommons.org/ns#" xmlns:dc="http://purl.org/dc/elements/1.1/" xmlns:inkscape="http://www.inkscape.org/namespaces/inkscape" xmlns:rdf="http://www.w3.org/1999/02/22-rdf-syntax-ns#" xmlns:sodipodi="http://sodipodi.sourceforge.net/DTD/sodipodi-0.dtd" xmlns:svg="http://www.w3.org/2000/svg"><defs id="defs6392"/><g id="layer1" transform="translate(0,-1016.3622)"><path d="m 4.9997,1025.3622 0,5 22,0 0,-0.5 0,-2 0,-2.5 -22,0 z m 1.5,1 5,0 c 0.2761,0 0.5,0.2239 0.5,0.5 l 0,2 c 10e-5,0.2378 -0.1732,0.4213 -0.4062,0.4688 -0.034,0.01 -0.06,0.031 -0.094,0.031 l -0.031,0 -4.9688,0 c -0.034,-5e-4 -0.061,-0.024 -0.094,-0.031 -0.017,0 -0.046,0 -0.062,0 -0.2058,-0.067 -0.3434,-0.2525 -0.3438,-0.4688 l 0,-2 c 0,-0.2761 0.2239,-0.5 0.5,-0.5 z m 0.5,1 0,1 4,0 0,-1 -4,0 z m 21,0 0,3 1,0 0,-3 -1,0 z m -10.5,1 c 0.2761,0 0.5,0.2239 0.5,0.5 0,0.2761 -0.2239,0.5 -0.5,0.5 -0.2761,0 -0.5,-0.2239 -0.5,-0.5 0,-0.2761 0.2239,-0.5 0.5,-0.5 z m 2,0 c 0.2761,0 0.5,0.2239 0.5,0.5 0,0.2761 -0.2239,0.5 -0.5,0.5 -0.2761,0 -0.5,-0.2239 -0.5,-0.5 0,-0.2761 0.2239,-0.5 0.5,-0.5 z m 2,0 c 0.2761,0 0.5,0.2239 0.5,0.5 0,0.2761 -0.2239,0.5 -0.5,0.5 -0.2761,0 -0.5,-0.2239 -0.5,-0.5 0,-0.2761 0.2239,-0.5 0.5,-0.5 z m 1.5,0 2,0 0,1 -2,0 0,-1 z m 7,0 0,1 1,0 c 0.5626,0 1,0.4374 1,1 l 0,4 c 0,0.5627 -0.4374,1 -1,1 l -8.1875,0 -0.031,0 -1.1874,0 -15.5938,0 c -1.0994,0 -2,0.9007 -2,2 l 0,3 c 0,1.0994 0.9006,2 2,2 l 17.5,0 0,-1 -17.5,0 c -0.5626,0 -1,-0.4373 -1,-1 l 0,-3 c 0,-0.5626 0.4374,-1 1,-1 l 15.5625,0 1.2187,0 8.2188,0 c 1.0994,0 2,-0.9006 2,-2 l 0,-4 c 0,-1.0993 -0.9006,-2 -2,-2 l -1,0 z m -3.5,11 0,1.5 0,2 0,1.5 3,0 0,-5 -3,0 z m -2,1 0,3 1,0 0,-3 -1,0 z m 6,0 0,1 2,0 c 0.6762,0.01 0.6762,-1.0096 0,-1 l -2,0 z m 0,2 0,1 2,0 c 0.6762,0.01 0.6762,-1.0096 0,-1 l -2,0 z" id="rect6216" style="font-size:medium;font-style:normal;font-variant:normal;font-weight:normal;font-stretch:normal;text-indent:0;text-align:start;text-decoration:none;line-height:normal;letter-spacing:normal;word-spacing:normal;text-transform:none;direction:ltr;block-progression:tb;writing-mode:lr-tb;text-anchor:start;baseline-shift:baseline;color:#000000;fill:#000000;fill-opacity:1;fill-rule:nonzero;stroke:none;visibility:visible;display:inline;overflow:visible;enable-background:accumulate;font-family:sans-serif"/></g></svg>