<?xml version="1.0" ?><svg height="36" id="svg6390" version="1.1" width="36" xmlns="http://www.w3.org/2000/svg" xmlns:cc="http://creativecommons.org/ns#" xmlns:dc="http://purl.org/dc/elements/1.1/" xmlns:inkscape="http://www.inkscape.org/namespaces/inkscape" xmlns:rdf="http://www.w3.org/1999/02/22-rdf-syntax-ns#" xmlns:sodipodi="http://sodipodi.sourceforge.net/DTD/sodipodi-0.dtd" xmlns:svg="http://www.w3.org/2000/svg"><defs id="defs6392"/><g id="layer1" transform="translate(0,-1016.3622)"><path d="m 12.9999,1019.3622 10.0001,0 10e-5,0.1836 0,7.8164 -10,0 0,-7.8164 0,-0.1836 z m 1.0001,2 0,3 0.5,0 0.5,0 1,0 0.5,0 0.5,0 0,-2.9991 -0.5,-9e-4 -2,0 z m 5,0 0,3 0.5,0 0.5,0 1,0 0.5,0 0.5,0 0,-2.9991 -0.5,-9e-4 -2,0 z m -4,1 1,0 0,1 -1,0 z m 5,0 1,0 0,1 -1,0 z m -3,3 0,1 2,0 0,-1 z m -6,3 14,0 0,5 0,13 0,1.5 c 0,0.8397 -0.6603,1.5 -1.5,1.5 l -11,0 c -0.8397,0 -1.5,-0.6603 -1.5,-1.5 l 0,-1.5 0,-13 z m 7.0039,3.3887 -2.4746,2.4746 0.707,0.707 1.2676,-1.2676 0,5.3106 -2.4531,0 0,-0.6094 c 0.5533,-0.2217 0.9492,-0.7623 0.9492,-1.3906 0,-0.8225 -0.6775,-1.5 -1.5,-1.5 -0.8225,0 -1.5,0.6775 -1.5,1.5 0,0.6654 0.4459,1.2282 1.0508,1.4219 l 0,1.0781 0.5,0.5 2.9531,0 0,2.0703 c -0.8595,0.2238 -1.5039,1.0034 -1.5039,1.9297 0,1.0986 0.9014,2 2,2 1.0986,0 2,-0.9014 2,-2 0,-0.9233 -0.6408,-1.6991 -1.4961,-1.9258 l 0,-1.0742 2.9883,0 0.5,-0.5 0,-1.5 1.0078,0 0,-3 -2.9648,0 0,0.5 0,2.5 0.957,0 0,1 -2.4883,0 0,-6.3106 1.2676,1.2676 0.707,-0.7071 z m -3.5039,4.7246 c 0.2821,0 0.5,0.2179 0.5,0.5 0,0.282 -0.2179,0.5 -0.5,0.5 -0.2821,0 -0.5,-0.218 -0.5,-0.5 0,-0.2821 0.2179,-0.5 0.5,-0.5 z m 6.5352,0.5 0.9648,0 0,1 -0.9648,0 z m -3.0352,6 c 0.5582,0 1,0.4418 1,1 0,0.5582 -0.4418,1 -1,1 -0.5582,0 -1,-0.4418 -1,-1 0,-0.5582 0.4418,-1 1,-1 z" id="rect6386" style="font-size:medium;font-style:normal;font-variant:normal;font-weight:normal;font-stretch:normal;text-indent:0;text-align:start;text-decoration:none;line-height:normal;letter-spacing:normal;word-spacing:normal;text-transform:none;direction:ltr;block-progression:tb;writing-mode:lr-tb;text-anchor:start;baseline-shift:baseline;color:#000000;fill:#000000;fill-opacity:1;fill-rule:nonzero;stroke:none;visibility:visible;display:inline;overflow:visible;enable-background:accumulate;font-family:sans-serif"/></g></svg>