<?xml version="1.0" ?><svg height="36" id="svg6390" version="1.1" width="36" xmlns="http://www.w3.org/2000/svg" xmlns:cc="http://creativecommons.org/ns#" xmlns:dc="http://purl.org/dc/elements/1.1/" xmlns:inkscape="http://www.inkscape.org/namespaces/inkscape" xmlns:rdf="http://www.w3.org/1999/02/22-rdf-syntax-ns#" xmlns:sodipodi="http://sodipodi.sourceforge.net/DTD/sodipodi-0.dtd" xmlns:svg="http://www.w3.org/2000/svg"><defs id="defs6392"/><g id="layer1" transform="translate(0,-1016.3622)"><path d="m 12.0625,1023.3622 11.875,0 c 0.036,0 0.094,0.037 0.094,0.1504 l 0,11.8496 -6.0312,0 -6.0312,0 0,-11.8496 c 0,-0.1136 0.058,-0.1504 0.094,-0.1504 z m 0.9375,3 0,0.5 0,3 0,0.5 4,0 0,-0.5 0,-3 0,-0.5 z m 6,0 0,0.5 0,3 0,0.5 4,0 0,-0.5 0,-3 0,-0.5 z m -5,1 2,0 0,2 -2,0 z m 6,0 2,0 0,2 -2,0 z m -11.4336,9 2.4024,0 7.0312,0 7.0312,0 2.4024,0 c -0.1715,3.1998 -1.8917,6.1227 -4.6836,7.7363 -2.94,1.6992 -6.56,1.6992 -9.5,0 -2.7919,-1.6136 -4.5121,-4.5365 -4.6836,-7.7363 z m 9.4336,1 c -0.2761,0 -0.5,0.2239 -0.5,0.5 0,0.2761 0.2239,0.5 0.5,0.5 0.2761,0 0.5,-0.2239 0.5,-0.5 0,-0.2761 -0.2239,-0.5 -0.5,-0.5 z m -1.4121,1.0684 -0.707,0.707 c 0.5595,0.5595 1.3486,0.8161 2.1269,0.8203 0.7783,0 1.5744,-0.247 2.1231,-0.832 l -0.7286,-0.6836 c -0.3062,0.3265 -0.8349,0.5186 -1.3886,0.5156 -0.5538,0 -1.1019,-0.2035 -1.4258,-0.5273 z m -1.4121,1.4179 -0.707,0.7071 c 0.9119,0.9119 2.2343,1.3503 3.5429,1.3593 1.3087,0.01 2.6333,-0.4141 3.5215,-1.3613 l -0.7305,-0.6836 c -0.645,0.6879 -1.6991,1.0524 -2.7832,1.0449 -1.0841,-0.01 -2.1666,-0.3894 -2.8437,-1.0664 z m -1.418,1.4141 -0.7051,0.707 c 1.2656,1.2635 3.1246,1.8845 4.9668,1.8946 1.8423,0.01 3.6965,-0.5934 4.9278,-1.9063 l -0.7285,-0.6836 c -0.989,1.0542 -2.5755,1.5987 -4.1934,1.5899 -1.6179,-0.01 -3.2377,-0.5735 -4.2676,-1.6016 z" id="path6092" style="font-size:medium;font-style:normal;font-variant:normal;font-weight:normal;font-stretch:normal;text-indent:0;text-align:start;text-decoration:none;line-height:normal;letter-spacing:normal;word-spacing:normal;text-transform:none;direction:ltr;block-progression:tb;writing-mode:lr-tb;text-anchor:start;baseline-shift:baseline;color:#000000;fill:#000000;fill-opacity:1;fill-rule:evenodd;stroke:none;visibility:visible;display:inline;overflow:visible;enable-background:accumulate;font-family:sans-serif"/></g></svg>