<?xml version="1.0" ?><svg id="Layer_1" style="enable-background:new 0 0 242.9 242.9;" version="1.1" viewBox="0 0 242.9 242.9" xml:space="preserve" xmlns="http://www.w3.org/2000/svg" xmlns:xlink="http://www.w3.org/1999/xlink"><style type="text/css">
	.st0{fill:#6FBE44;}
</style><path class="st0" d="M82.8,224.8c-1.2,0-3,0-4.1-0.4v-83c1.4-0.5,3-0.5,4.6-0.5c14.1,0,20.5,15,20.5,39.6  C103.9,213.7,94.1,224.8,82.8,224.8z M189.6,185.2h-0.4c-1.1,10.2-3,19.3-5,27.5l-7.5,30.2h23.9l-6.6-30.4  C192.2,204.5,190.6,195.2,189.6,185.2z M242.9,242.9v-87.1l-22.5,87.1H242.9z M0,0v242.9h57.6c-0.8-0.1-1.6-0.2-2.3-0.2V124.5  c5.9-1.4,14.5-2.3,23.7-2.3c15.2,0,25.7,3.6,33.4,10.7c10.3,9.3,15.7,25.2,15.7,48.5c0,24.3-6.2,41.6-16.8,50.9  c-5.7,5.5-13.3,9-23.1,10.6h68.4l-21.4-87.1h25l4.6,37.7c1.2,9.5,2.3,18.2,3,26.4h0.5c1.4-8.2,3.2-17.8,4.8-26.1l7.7-38h18l7.5,37.1  c1.8,9.8,3.4,18.4,4.5,26.9h0.5c0.5-8.2,1.6-17.3,3-26.8l5.4-37.3h23V0H0z"/></svg>