<?xml version="1.0" ?><svg id="Layer_1" style="enable-background:new 0 0 242.9 242.9;" version="1.1" viewBox="0 0 242.9 242.9" xml:space="preserve" xmlns="http://www.w3.org/2000/svg" xmlns:xlink="http://www.w3.org/1999/xlink"><style type="text/css">
	.st0{fill:#FED600;}
</style><path class="st0" d="M220.4,242.9l22.5-87.3v87.3H220.4z M189.6,185.1h-0.4c-1.1,10.2-3,19.3-5,27.5l-7.5,30.3h23.9l-6.6-30.5  C192.2,204.4,190.6,195.1,189.6,185.1z M0,0v242.9h78V122.6h52.3V143h-28.9v30.9h27.1v19.4h-27.1v49.6h55.3l-21.4-87.3h25l4.6,37.7  c1.2,9.5,2.3,18.2,3,26.4h0.5c1.4-8.2,3.2-17.8,4.8-26.1l7.7-38h18l7.5,37.1c1.8,9.8,3.4,18.4,4.5,26.9h0.5c0.5-8.2,1.6-17.3,3-26.8  l5.4-37.3h23V0H0z"/></svg>