<?xml version="1.0" ?><svg id="Layer_1" style="enable-background:new 0 0 242.9 242.9;" version="1.1" viewBox="0 0 242.9 242.9" xml:space="preserve" xmlns="http://www.w3.org/2000/svg" xmlns:xlink="http://www.w3.org/1999/xlink"><style type="text/css">
	.st0{fill:#BC81B8;}
</style><path class="st0" d="M237.9,177.4c2,0,3.6,0,5,0.4v65.1h-20.2v-44.3c0-3.7,0.4-6.8,0.9-8.7C226.3,180.8,232.9,177.4,237.9,177.4z   M164.2,159.8c0-10.5-4.3-18.7-15.2-18.7c-2.1,0-4.3,0.4-5.7,0.9V179c1.1,0.4,2.3,0.4,3.7,0.4C158.9,179.4,164.2,171,164.2,159.8z   M0,0v242.9h120V124.4c6.6-1.4,15.5-2.3,24.4-2.3c13.9,0,24.8,2,32.7,9.3c7.1,6.2,10.3,16.2,10.3,26.4c0,13-3.9,22.1-10.2,28.9  c-7.5,7.9-19.6,11.4-29.3,11.4c-1.6,0-3.2,0-4.6,0v44.8h55.8v-61c0-8.7-0.4-18.2-0.7-26.2h20.3l1.2,12.7h0.5  c3.9-9.3,10.9-14.1,17.3-14.1c2.3,0,3.6,0,5,0.4V0H0z"/></svg>