<?xml version="1.0" ?><svg id="Layer_1" style="enable-background:new 0 0 242.9 242.9;" version="1.1" viewBox="0 0 242.9 242.9" xml:space="preserve" xmlns="http://www.w3.org/2000/svg" xmlns:xlink="http://www.w3.org/1999/xlink"><style type="text/css">
	.st0{fill:#69CCED;}
</style><path class="st0" d="M155.1,214.4c1.7,12.3,4.1,23.6,5.6,28h-22.9v-47.5h3.4C149.2,194.9,152.9,199.2,155.1,214.4z M0.3-0.5v242.9  h113.9V123.7c7.4-1.4,16.8-2.3,25.8-2.3c13,0,24.5,1.8,32.4,9c7.4,6.7,9.5,14.8,9.5,25.2c0,13-6.3,24.7-18.7,30.4v0.4  c8.3,3.2,12.4,11,14.8,24c2.2,12.6,5.2,26.5,7.3,32h15.6V172H189v-16.8h11.9v-3.6c0-9.9,2-19.1,9-26.3c5.2-5.4,12.8-8.1,21.1-8.1  c5,0,9.1,0.6,12.2,1.4V-0.5H0.3z M158.2,157.8c0-10.3-4.1-17.7-14.8-18c-2,0-4.3,0.2-5.6,0.7v36.2h4.1  C152.2,176.7,158.2,168.4,158.2,157.8z M235.3,136.5c-7.9,0-10.8,6.8-10.8,14.6v4.1h15.3V172h-15.3v70.3h18.7V132.8l-0.7,4.8  C240.7,136.9,238.1,136.5,235.3,136.5z"/></svg>