<?xml version="1.0" ?><svg id="Layer_1" style="enable-background:new 0 0 242.9 242.9;" version="1.1" viewBox="0 0 242.9 242.9" xml:space="preserve" xmlns="http://www.w3.org/2000/svg" xmlns:xlink="http://www.w3.org/1999/xlink"><style type="text/css">
	.st0{fill:#65C5B4;}
</style><path class="st0" d="M219.5,198.6c0,12.8-2,27.5-9.5,27.5c-8.4,0-10.7-12.5-10.7-27.5c0-12,1.8-27.1,10.3-27.1  C217.6,171.5,219.5,186.6,219.5,198.6z M0,0v242.9h143.1c-25.2-4.1-37.2-27.9-37.2-58.8c0-45.3,25.2-63,48.5-63  c8.2,0,13.9,1.6,16.2,3.2l-3.9,19.6c-2.7-1.2-5.7-2.3-10.9-2.3c-13.2,0-25.2,11.4-25.2,41.2c0,28.7,10.9,40,25.2,40  c3.9,0,8.4-0.9,11.2-1.8l2.3,19.6c-1.9,0.9-4.8,1.7-8.5,2.2h40.2c-15.8-3.9-25-19.5-25-43.8c0-31.4,16.4-45.3,33.7-45.3  c20.5,0,33,17.3,33,44.8V0H0z M217.3,242.9h25.6v-44.3C242.9,228.4,229.4,239.8,217.3,242.9z"/></svg>