<?xml version="1.0" ?><svg id="Layer_1" style="enable-background:new 0 0 242.9 242.9;" version="1.1" viewBox="0 0 242.9 242.9" xml:space="preserve" xmlns="http://www.w3.org/2000/svg" xmlns:xlink="http://www.w3.org/1999/xlink"><style type="text/css">
	.st0{fill:#C3A2CD;}
</style><path class="st0" d="M136.3,172.2l4,25.4H123l4.5-25.3c1.3-7,3.1-19.7,4.3-27.8h0.5C133.4,152.7,135.1,164.8,136.3,172.2z   M120.6,216l-5.2,26.9h32.1l-5.1-26.9H120.6z M200.3,208.1c0.4,13.7,8.3,18.8,18.8,18.8c6.7,0,12.6-1.4,16.8-2.9l3.2,17  c-1.9,0.7-4.2,1.4-6.6,2h10.4v-47.1c0,6.3-0.2,9.7-0.7,12.3H200.3z M211.5,171.3c-7.8,0-10.8,11.4-11,20.2h20.9  C221.4,180.2,218.6,171.3,211.5,171.3z M0,0v242.9h92.5l26.1-120.6H147l23.4,120.6h30.9c-15.4-5.1-23.7-19.6-23.7-41.5  c0-29.6,15.3-47.3,35.4-47.3c18.9,0,29.9,15,29.9,41.7V0H0z"/></svg>