<?xml version="1.0" ?><svg id="Layer_1" style="enable-background:new 0 0 242.9 242.9;" version="1.1" viewBox="0 0 242.9 242.9" xml:space="preserve" xmlns="http://www.w3.org/2000/svg" xmlns:xlink="http://www.w3.org/1999/xlink"><style type="text/css">
	.st0{fill:#A9B4DB;}
</style><path class="st0" d="M218.6,186.1v56.8h-19.3v-55.3c0-3.5,0.6-6.5,1.3-8.4c1.7-5.4,5-8.2,9.1-8.2  C216.7,171.1,218.6,178.3,218.6,186.1z M0,0v242.9h104.1V117.8h54.4V139h-30.1v28.8H157V188h-28.6v33.8h32.3v21.2H175v-63.5  c0-10-0.6-18.7-0.7-27.3h21l1.1,10.4h0.4c4.8-7.2,12.6-11.9,22.1-11.9c17.3,0,24.1,13.7,24.1,34V0H0z"/></svg>