<?xml version="1.0" ?><svg style="enable-background:new 0 0 70 70;" version="1.1" viewBox="0 0 70 70" xml:space="preserve" xmlns="http://www.w3.org/2000/svg" xmlns:xlink="http://www.w3.org/1999/xlink"><style type="text/css">
	.st0{fill:#E5E5E5;}
	.st1{fill:#231F20;}
	.st2{fill:#FFFFFF;}
</style><g id="Warstwa_2"><rect class="st0" height="56" id="XMLID_5_" width="38" x="16" y="7"/></g><g id="Warstwa_1"><path class="st1" d="M54,7H16V6c0-3.3,2.7-6,6-6h26c3.3,0,6,2.7,6,6V7z" id="XMLID_1_"/><path class="st1" d="M48,70H22c-3.3,0-6-2.7-6-6v-1h38v1C54,67.3,51.3,70,48,70z" id="XMLID_2_"/><rect class="st1" height="56" id="XMLID_3_" width="1.4" x="16" y="7"/><rect class="st1" height="56" id="XMLID_4_" width="1.4" x="52.6" y="7"/><path class="st2" d="M47.9,4H22.1c-0.6,0-1-0.5-1-1v0c0-0.6,0.5-1,1-1h25.8c0.6,0,1,0.5,1,1v0   C48.9,3.6,48.5,4,47.9,4z" id="XMLID_6_"/><rect class="st1" height="28.2" id="XMLID_8_" width="13.4" x="28.3" y="20.2"/><rect class="st1" height="1.9" id="XMLID_11_" width="8.5" x="18.6" y="20.2"/><rect class="st1" height="1.9" id="XMLID_9_" width="8.5" x="18.6" y="23.9"/><rect class="st1" height="1.9" id="XMLID_10_" width="8.5" x="18.6" y="27.7"/><rect class="st1" height="1.9" id="XMLID_14_" width="8.5" x="18.6" y="31.5"/><rect class="st1" height="1.9" id="XMLID_19_" width="8.5" x="18.6" y="50.3"/><rect class="st1" height="1.9" id="XMLID_20_" width="8.5" x="18.6" y="54.1"/><rect class="st1" height="1.9" id="XMLID_22_" width="8.5" x="18.6" y="57.8"/><rect class="st1" height="9.4" id="XMLID_21_" width="13.4" x="28.3" y="50.3"/><rect class="st1" height="13.2" id="XMLID_18_" width="8.5" x="18.6" y="35.2"/><rect class="st1" height="9.4" id="XMLID_12_" width="32.9" x="18.6" y="8.9"/><rect class="st1" height="1.9" id="XMLID_13_" width="8.5" x="42.9" y="20.2"/><rect class="st1" height="1.9" id="XMLID_23_" width="3.7" x="42.9" y="23.9"/><g id="XMLID_26_"><rect class="st1" height="1.9" id="XMLID_24_" width="3.7" x="42.9" y="23.9"/><rect class="st1" height="1.9" id="XMLID_25_" width="3.7" x="47.8" y="23.9"/></g><g id="XMLID_27_"><rect class="st1" height="1.9" id="XMLID_29_" width="3.7" x="42.9" y="27.7"/><rect class="st1" height="1.9" id="XMLID_28_" width="3.7" x="47.8" y="27.7"/></g><g id="XMLID_30_"><rect class="st1" height="1.9" id="XMLID_32_" width="3.7" x="42.9" y="31.5"/><rect class="st1" height="1.9" id="XMLID_31_" width="3.7" x="47.8" y="31.5"/></g></g><g id="Warstwa_3"/><g id="Warstwa_4"/></svg>