<?xml version="1.0" ?><!DOCTYPE svg  PUBLIC '-//W3C//DTD SVG 1.1//EN'  'http://www.w3.org/Graphics/SVG/1.1/DTD/svg11.dtd'><svg enable-background="new 0 0 512 512" height="512px" id="Coffee_x5F_idea" version="1.1" viewBox="0 0 512 512" width="512px" xml:space="preserve" xmlns="http://www.w3.org/2000/svg" xmlns:xlink="http://www.w3.org/1999/xlink"><g><path d="M374.88,353.443c-0.676-0.021-1.373,1.057-2.07,1.057h-9.406c-1.529-11-11.229-20-22.994-20H143.062   c-11.744,0-22.646,7.596-24.177,18.936c-0.156,1.035-1.384,0.959-1.384,2.016v21.375c0,67.32,55.744,122.949,123.064,122.949   c44.866,0,85.22-23.275,106.371-59.275h25.875c23.738,0,43.064-19.803,43.064-43.539   C415.874,373.92,397.673,354.547,374.88,353.443z M292.78,469.18c-3.852,2.131-7.865,4.035-11.93,5.666   c-0.756,0.303-1.533,0.445-2.301,0.445c-2.455,0-4.777-1.469-5.746-3.887c-1.27-3.172,0.27-6.773,3.441-8.045   c3.592-1.439,7.141-3.125,10.545-5.008c2.992-1.654,6.756-0.572,8.408,2.418C296.853,463.76,295.771,467.525,292.78,469.18z    M332.886,430.119c-5.094,8.689-11.408,16.602-18.773,23.521c-1.195,1.119-2.715,1.676-4.234,1.676   c-1.65,0-3.293-0.654-4.512-1.951c-2.34-2.492-2.219-6.406,0.273-8.746c6.502-6.107,12.076-13.09,16.568-20.756   c1.729-2.947,5.51-3.943,8.467-2.211C333.624,423.379,334.612,427.17,332.886,430.119z M372.81,424.5h-18.09   c5.738-14,5.78-31.475,5.78-47.674V370.5h12.31c0.697,0,1.395-1.203,2.07-1.135c14.084,1.057,25.244,13.178,25.244,27.533   C400.124,411.951,387.862,424.5,372.81,424.5z"/><path d="M241.5,50.097c3.416,0,7-2.771,7-6.188V19.037c0-3.416-3.584-6.188-7-6.188s-7,2.771-7,6.188V43.91   C234.5,47.326,238.084,50.097,241.5,50.097z"/><path d="M325.677,81.32c1.584,0,3.166-0.604,4.375-1.813l17.586-17.588c2.418-2.416,2.418-6.334,0-8.75   c-2.416-2.416-6.332-2.416-8.748,0l-17.588,17.588c-2.416,2.416-2.416,6.334,0,8.75C322.511,80.716,324.093,81.32,325.677,81.32z"/><path d="M154.657,82.492c1.209,1.207,2.791,1.813,4.375,1.813s3.166-0.605,4.375-1.814c2.416-2.414,2.416-6.332,0-8.75   l-17.59-17.588c-2.416-2.414-6.332-2.416-8.75,0.002c-2.416,2.416-2.416,6.332,0,8.75L154.657,82.492z"/><path d="M204.357,226.765c4.941,2.723,8.143,7.838,8.143,13.348v13.121c0,3.418,2.084,6.188,5.5,6.188s5.5-2.77,5.5-6.188v-13.121   c0-10.02-4.969-19.287-13.858-24.186c-22.316-12.299-35.901-35.75-35.901-61.201c0-22.828,11.337-44.258,30.093-57.33   c2.805-1.953,3.565-5.811,1.608-8.613c-1.953-2.805-5.777-3.492-8.576-1.539c-22.076,15.383-35.174,40.611-35.174,67.482   C161.692,184.687,178.093,212.291,204.357,226.765z"/><path d="M219,269.879c-3.416,0-6.5,2.77-6.5,6.188v12.063c0,3.416,3.084,6.188,6.5,6.188s6.5-2.771,6.5-6.188v-12.063   C225.5,272.648,222.416,269.879,219,269.879z"/><path d="M276.705,215.927c-8.891,4.898-15.205,14.164-15.205,24.186v13.121c0,3.418,3.584,6.188,7,6.188s7-2.77,7-6.188v-13.121   c0-5.512,3.049-10.627,7.988-13.348c26.264-14.475,42.567-42.078,42.567-72.039c0-26.871-13.183-52.098-35.257-67.482   c-2.801-1.951-6.661-1.266-8.616,1.539c-1.955,2.803-1.268,6.66,1.535,8.613c18.756,13.072,29.795,34.504,29.795,57.33   C313.513,180.177,299.02,203.628,276.705,215.927z"/><path d="M223.704,87.599c0.543,0,1.092-0.072,1.639-0.223c11.99-3.285,25.01-3.285,37,0c3.285,0.898,6.697-1.035,7.602-4.334   c0.904-3.295-1.035-6.699-4.332-7.602c-14.127-3.869-29.426-3.869-43.539,0.002c-3.295,0.902-5.236,4.307-4.332,7.604   C218.495,85.792,220.985,87.599,223.704,87.599z"/><path d="M268.5,269.879c-3.416,0-7,2.77-7,6.188v12.063c0,3.416,3.584,6.188,7,6.188s7-2.771,7-6.188v-12.063   C275.5,272.648,271.916,269.879,268.5,269.879z"/><path d="M296.5,245.369c-3.416,0-6,2.771-6,6.188v36.573c0,3.416,2.584,6.188,6,6.188s6-2.771,6-6.188v-36.573   C302.5,248.14,299.916,245.369,296.5,245.369z"/><path d="M185.5,251.556v36.573c0,3.416,2.084,6.188,5.5,6.188s5.5-2.771,5.5-6.188v-36.573c0-3.416-2.084-6.188-5.5-6.188   S185.5,248.14,185.5,251.556z"/><path d="M350.101,239.638c7.291,2.676,10.949,6.334,13.625,13.625c1.141,3.111,5.488,3.111,6.631,0   c2.676-7.291,6.334-10.949,13.623-13.625c3.113-1.141,3.113-5.488,0-6.631c-7.289-2.676-10.947-6.334-13.623-13.623   c-1.143-3.113-5.49-3.113-6.631,0c-2.676,7.289-6.334,10.947-13.625,13.623C346.987,234.15,346.987,238.498,350.101,239.638z"/><path d="M132.142,152.728c3.113-1.143,3.113-5.49,0-6.631c-7.289-2.676-10.947-6.334-13.623-13.623   c-1.141-3.113-5.488-3.113-6.631,0c-2.674,7.289-6.334,10.947-13.623,13.623c-3.113,1.141-3.113,5.488,0,6.631   c7.289,2.676,10.949,6.334,13.623,13.623c1.143,3.113,5.49,3.113,6.631,0C121.194,159.062,124.853,155.404,132.142,152.728z"/><path d="M243.839,188.589c15.098,0,27.383-12.283,27.383-27.381s-12.285-27.359-27.383-27.359   c-15.074,0-27.359,12.262-27.359,27.359S228.765,188.589,243.839,188.589z M243.839,146.224c8.279,0,15.008,6.727,15.008,14.984   c0,8.279-6.729,15.006-15.008,15.006c-8.256,0-14.984-6.727-14.984-15.006C228.854,152.951,235.583,146.224,243.839,146.224z"/></g></svg>