<?xml version="1.0" ?><!DOCTYPE svg  PUBLIC '-//W3C//DTD SVG 1.1//EN'  'http://www.w3.org/Graphics/SVG/1.1/DTD/svg11.dtd'><svg enable-background="new 0 0 91 91" height="91px" id="Layer_1" version="1.1" viewBox="0 0 91 91" width="91px" xml:space="preserve" xmlns="http://www.w3.org/2000/svg" xmlns:xlink="http://www.w3.org/1999/xlink"><g><path d="M16.983,74.298c2.268,4.244,15.25,19.027,18.834,8.469c2.004-5.898-9.418-10.26-15.564-10.408   c3.988-2.396,7.773-5.018,11.393-7.826c0,0,0.002,0.002,0,0c0.008,0.012,0.014,0.025,0.021,0.035   c0.008,0.018,0.016,0.035,0.031,0.051c0.006,0.008,0.016,0.016,0.02,0.021c0.035,0.053,0.078,0.098,0.131,0.139   c3.297,3.504,17.148,10.203,17.646,1.305c0.354-6.375-9.52-5.227-15.244-3.623c3.775-3.088,7.377-6.365,10.852-9.799   c0.26-0.064,0.504-0.27,0.561-0.564c0.482-0.479,0.961-0.957,1.438-1.441c0.006-0.004,0.014-0.004,0.018-0.008   c0.154-0.117,0.313-0.236,0.471-0.355c0.08,0.186,0.238,0.332,0.512,0.365c4.936,0.549,10.572,0.166,15.135-1.887   c1.91-0.861,5.861-4.844,3.057-6.973c-2.605-1.98-7.211,0.496-9.615,1.691c-1.875,0.932-3.818,1.928-5.658,3.07   c4.143-4.447,8.129-9.076,12.053-13.785c3.402,1.688,9.146,1.973,12.41,0.488c1.684-0.764,5.314-4.016,3.215-6.102   c-1.773-1.761-5.764-0.26-7.705,0.381c-1.592,0.527-3.428,1.09-5.115,1.844c1.568-1.906,3.131-3.822,4.691-5.746   c0.082,0.023,0.168,0.027,0.262-0.01c3.516-1.416,6.678-4.422,9.357-7.021c2.113-2.053,6.035-5.441,5.619-8.807   c-0.391-3.156-5.928-2.389-7.652-1.211c-4.504,3.074-6.281,8.967-7.314,14.158c-2.662,3.168-5.182,6.478-7.729,9.742   c0.119-3.098-0.023-6.25-0.379-9.296c-0.223-1.938-0.537-7.633-3.33-7.982c-3.703-0.459-4.172,4.662-3.672,7.131   c0.799,3.971,2.643,9.207,6.141,11.724c-0.713,0.902-1.428,1.807-2.156,2.695c-3.725,4.555-7.557,9.035-11.602,13.307   c-0.189,0.057-0.379,0.109-0.563,0.17c1.039-3.438,0.99-7.586,0.811-10.643c-0.162-2.775-0.533-10.021-4.445-10.568   c-4.662-0.652-7.227,5.547-6.449,9.303c1.18,5.697,5.268,10.121,6.846,15.625c-5.389,5.293-11.102,10-17.15,14.254   c1.529-3.65,1.744-8.219,1.928-12.035c0.127-2.588,0.621-8.307-2.439-9.637c-3.539-1.537-5.971,4.428-5.814,6.945   c0.336,5.482,4.26,10.34,4.182,15.793c-0.004,0.145,0.039,0.254,0.1,0.352c-2.35,1.592-4.752,3.109-7.201,4.578   c-0.07-0.074-0.139-0.146-0.211-0.219c0.822-3.42,0.32-7.533-0.219-10.832c-0.449-2.77-1.045-7.754-4.131-8.943   c-3.371-1.301-5.568,4.549-5.363,6.891c0.49,5.547,4.713,9.971,8.492,13.779c-0.002,0.02-0.006,0.041-0.01,0.064   c-0.006,0.043,0,0.08,0.004,0.119c-2.592,1.52-5.23,2.982-7.93,4.387c-0.463,0.238-0.057,1.018,0.414,0.809   c2.764-1.229,5.426-2.576,8.006-4.01C16.976,74.269,16.976,74.282,16.983,74.298z"/></g></svg>