<?xml version="1.0" ?><!DOCTYPE svg  PUBLIC '-//W3C//DTD SVG 1.1//EN'  'http://www.w3.org/Graphics/SVG/1.1/DTD/svg11.dtd'><svg enable-background="new 0 0 91 91" height="91px" id="Layer_1" version="1.1" viewBox="0 0 91 91" width="91px" xml:space="preserve" xmlns="http://www.w3.org/2000/svg" xmlns:xlink="http://www.w3.org/1999/xlink"><g><path d="M81.059,35.09l-19.787-2.873c-1.125-0.164-2.102-0.873-2.605-1.893l-8.85-17.932c-1.27-2.57-4.936-2.57-6.207,0   l-8.848,17.932c-0.504,1.02-1.479,1.729-2.605,1.893L12.369,35.09c-2.838,0.416-3.971,3.904-1.918,5.904L24.77,54.951   c0.816,0.797,1.188,1.939,0.996,3.059l-3.381,19.711c-0.484,2.826,2.48,4.984,5.021,3.646l17.697-9.305   c1.008-0.529,2.213-0.529,3.221,0l17.697,9.305c2.539,1.338,5.506-0.82,5.021-3.646L67.662,58.01   c-0.191-1.119,0.182-2.262,0.996-3.059l14.316-13.957C85.029,38.994,83.896,35.506,81.059,35.09z M76.816,42.99L65.578,53.951   c-0.816,0.791-1.189,1.936-0.994,3.061l2.652,15.471c0.484,2.826-2.48,4.977-5.02,3.646l-13.893-7.303   c-1.008-0.529-2.213-0.529-3.221,0l-13.891,7.303c-2.539,1.33-5.506-0.82-5.02-3.646l2.654-15.471   c0.191-1.125-0.182-2.27-0.996-3.061L16.611,42.99c-2.055-1.996-0.918-5.484,1.92-5.898l15.531-2.256   c1.125-0.16,2.1-0.871,2.604-1.895l6.943-14.068c1.271-2.572,4.938-2.572,6.207,0l6.945,14.068   c0.504,1.023,1.479,1.734,2.605,1.895l15.531,2.256C77.736,37.506,78.869,40.994,76.816,42.99z"/><path d="M67.297,40.43L56.76,38.898c-1.053-0.156-1.963-0.814-2.434-1.77l-4.713-9.549c-1.186-2.402-4.613-2.402-5.799,0   l-4.711,9.549c-0.473,0.955-1.383,1.613-2.436,1.77L26.133,40.43c-2.652,0.383-3.713,3.645-1.795,5.514l7.627,7.432   c0.762,0.742,1.107,1.816,0.928,2.865l-1.799,10.49c-0.455,2.645,2.318,4.658,4.689,3.412l9.426-4.957   c0.941-0.496,2.066-0.496,3.01,0l9.426,4.957c2.371,1.246,5.145-0.768,4.689-3.412l-1.799-10.49   c-0.18-1.049,0.166-2.123,0.93-2.865l7.623-7.432C71.008,44.074,69.951,40.813,67.297,40.43z"/></g></svg>