<?xml version="1.0" ?><!DOCTYPE svg  PUBLIC '-//W3C//DTD SVG 1.1//EN'  'http://www.w3.org/Graphics/SVG/1.1/DTD/svg11.dtd'><svg enable-background="new 0 0 91 91" height="91px" id="Layer_1" version="1.1" viewBox="0 0 91 91" width="91px" xml:space="preserve" xmlns="http://www.w3.org/2000/svg" xmlns:xlink="http://www.w3.org/1999/xlink"><g><path d="M72.621,25.127c0,0,7.322-5.135,5.68-17.357c0,0-0.371-2.688-2.879-1.859c0,0-0.932,0.428-0.617,2.582   c0,0,1.016,6.742-1.066,1.564c0,0-0.307-0.461-0.66-4.186c0,0-1.316-3.176-3.23-0.385c0,0-1.715,4.27,1.551,8.559   c0,0,3.105,3.221-0.354,7.264c0,0-2.248,1.861-1.145-2.162c0,0,0.734-3.074-1.289-3.297c0,0-2.328-0.689-2.818,3.092   c0,0-0.648,8.686-2.898,11.914c0,0-0.576,0.533-1.334,1.324c-4.102-2.406-9.809-4.258-16.266-2.086   c-0.654-1.357-1.35-2.475-1.35-2.475c-1.07-3.029,0.303-9.982,0.303-9.982c0.438-3.076-1.549-3.049-1.549-3.049   c-1.641-0.27-1.729,2.305-1.729,2.305c-0.006,3.4-1.369,1.445-1.369,1.445c-1.848-3.932,1.297-5.777,1.297-5.777   c3.502-2.646,3.078-6.373,3.078-6.373c-0.902-2.611-2.627-0.41-2.627-0.41c-1.088,2.844-1.428,3.141-1.428,3.141   c-2.766,3.604-0.502-1.461-0.502-1.461c0.715-1.621,0.074-2.162,0.074-2.162c-1.795-1.201-2.67,0.828-2.67,0.828   c-3.949,9.223,0.705,14.863,0.705,14.863c1.273,1.387,1.246,2.209,1.246,2.209c-0.701,1.211-3.115-2.281-3.115-2.281   c-2.357-1.945-2.439,0.525-2.439,0.525c0.039,2.063,2.502,4.113,2.502,4.113c3.107,2.59,5.008,4.475,5.99,5.514   c-3.717,0.107-10.279,0.627-8.996,2.982l4.25,1.527c-3.137,3.369-9.381,10.158-12.76,14.4c0,0-7.838,9.184-10.027,11.205   c0,0-6.236,8.09,0.672,18.539c0,0,6.406,12.811,24.271,6.742c0,0,16.012-6.066,29.324-21.236c0,0,4.213-4.381,1.77-17.527   c0,0,15.85,6.289-2.021-10.111c0,0-0.955-1.139-2.658-2.582c1.645-0.936,4.172-2.271,7.725-3.877c0,0,3.572-1.613,4.291-4.041   c0,0,0.707-2.951-2.705-1.428c0,0-3.984,3.336-4.416,1.672C70.432,27.332,70.668,26.35,72.621,25.127z M34.922,71.779   c-0.787,3.842-5.777,6.063-11.148,4.961c-5.367-1.104-9.082-5.109-8.293-8.951c0.787-3.84,5.779-6.061,11.148-4.957   C31.996,63.932,35.711,67.939,34.922,71.779z M35.861,49.709c-0.428,1.662-1.572,2.703-2.668,2.422   c-1.094-0.281-1.6-1.746-1.172-3.406c0.426-1.662,1.574-2.703,2.668-2.422S36.287,48.049,35.861,49.709z M45.818,57.467   c-1.305,0-2.285-1.49-2.285-3.467s0.98-3.465,2.285-3.465c1.303,0,2.283,1.488,2.283,3.465S47.121,57.467,45.818,57.467z"/><circle cx="30.018" cy="69.241" r="2.343"/></g></svg>