<?xml version="1.0" ?><svg height="60px" version="1.1" viewBox="0 0 60 60" width="60px" xmlns="http://www.w3.org/2000/svg" xmlns:xlink="http://www.w3.org/1999/xlink"><title/><desc/><defs/><g fill="none" fill-rule="evenodd" id="Page-1" stroke="none" stroke-width="1"><g id="005---Skip-Forward" transform="translate(1.000000, 1.000000)"><g fill-rule="nonzero" id="Icons"><path d="M58,29 C57.9846973,36.6755537 54.9206045,44.0305897 49.4819168,49.4467724 C44.0432292,54.8629552 36.6755511,57.896524 29,57.88 C28.33,57.88 27.66,57.86 27,57.8 C11.8148168,56.8192902 1.57651669e-14,44.216819 1.39888101e-14,29 C1.22124533e-14,13.783181 11.8148168,1.18070975 27,0.2 C27.66,0.14 28.33,0.12 29,0.12 C36.6755511,0.103475955 44.0432292,3.13704484 49.4819168,8.55322756 C54.9206045,13.9694103 57.9846973,21.3244463 58,29 Z" fill="#424242" id="Shape"/><ellipse cx="27" cy="29" fill="#9E9E9E" id="Oval" rx="27" ry="28.79999"/><path d="M55,29 C54.951764,43.3199666 43.3200365,54.8980092 29,54.88 C28.16,54.88 27.33,54.84 26.5,54.76 C13.1870891,53.5358138 3.00007599,42.3690773 3.00007599,29 C3.00007599,15.6309227 13.1870891,4.46418623 26.5,3.24 C27.33,3.16 28.16,3.12 29,3.12 C43.3200433,3.10197426 54.9517805,14.6800265 55,29 Z" fill="#FF5722" id="Shape"/><ellipse cx="26.5" cy="29" fill="#FF9801" id="Oval" rx="23.5" ry="25.76001"/><path d="M29,54.875 C14.7258624,54.8062083 3.20367241,43.1910968 3.24953355,28.9168671 C3.29539468,14.6426374 14.8919815,3.1018034 29.1662665,3.12473387 C43.4405514,3.14766433 54.9999997,14.7256966 55,29 C54.9492389,43.3181062 43.3181845,54.893242 29,54.875 Z M29,5.125 C15.8304243,5.19376862 5.20363798,15.9134441 5.24948467,29.0831195 C5.29533136,42.2527949 15.9964946,52.898223 29.1662298,52.8752983 C42.3359651,52.8523737 53.0000025,42.1697552 53,29 C52.950323,15.7860145 42.2140648,5.10567421 29,5.125 Z" fill="#2980BA" id="Shape"/><path d="M29,54.875 C14.7258624,54.8062083 3.20367241,43.1910968 3.24953355,28.9168671 C3.29539468,14.6426374 14.8919815,3.1018034 29.1662665,3.12473387 C43.4405514,3.14766433 54.9999997,14.7256966 55,29 C54.9492389,43.3181062 43.3181845,54.893242 29,54.875 Z M29,5.125 C15.8304243,5.19376862 5.20363798,15.9134441 5.24948467,29.0831195 C5.29533136,42.2527949 15.9964946,52.898223 29.1662298,52.8752983 C42.3359651,52.8523737 53.0000025,42.1697552 53,29 C52.950323,15.7860145 42.2140648,5.10567421 29,5.125 Z" fill="#804169" id="Shape"/><path d="M26,26.05 L26,31.95 L18.09,37.43 C17.8750482,37.5713089 17.600112,37.5840412 17.3730202,37.4632033 C17.1459284,37.3423655 17.0028885,37.1072239 17,36.85 L17,21.15 C16.9990824,20.891095 17.141549,20.6529519 17.370112,20.5313312 C17.598675,20.4097105 17.8757803,20.4245952 18.09,20.57 L26,26.05 Z" fill="#9E9E9E" id="Shape"/><path d="M37,27.44 L37,30.56 L27.09,37.43 C26.8750482,37.5713089 26.600112,37.5840412 26.3730202,37.4632033 C26.1459284,37.3423655 26.0028885,37.1072239 26,36.85 L26,21.15 C25.9990824,20.891095 26.141549,20.6529519 26.370112,20.5313312 C26.598675,20.4097105 26.8757803,20.4245952 27.09,20.57 L37,27.44 Z" fill="#9E9E9E" id="Shape"/><path d="M23,27.5 L23,33.4 L17.25,37.38 C17.0902778,37.2506433 16.9982417,37.0555267 17,36.85 L16.9999753,23.34 L23,27.5 Z" fill="#F5F5F5" id="Shape"/><path d="M34,28.89 L34,32.01 L26.25,37.38 C26.0902778,37.2506433 25.9982417,37.0555267 26,36.85 L25.9999753,23.34 L34,28.89 Z" fill="#F5F5F5" id="Shape"/><rect fill="#9E9E9E" height="16" id="Rectangle-path" rx="1" width="4" x="37" y="21"/><path d="M39,22 L39,36 C39,36.5522847 38.5522847,37 38,37 C37.4477153,37 37,36.5522847 37,36 L37,22 C37,21.4477153 37.4477153,21 38,21 C38.5522847,21 39,21.4477153 39,22 Z" fill="#F5F5F5" id="Shape"/></g><g id="Outline" stroke="#000000" stroke-linecap="round" stroke-linejoin="round" stroke-width="2"><ellipse cx="29" cy="29" id="Oval" rx="29" ry="28.875"/><ellipse cx="29" cy="29" id="Oval" rx="25" ry="24.875"/><path d="M26,31.95 L18.09,37.43 C17.8757803,37.5754048 17.598675,37.5902895 17.370112,37.4686688 C17.141549,37.3470481 16.9990824,37.108905 17,36.85 L17,21.15 C16.9990824,20.891095 17.141549,20.6529519 17.370112,20.5313312 C17.598675,20.4097105 17.8757803,20.4245952 18.09,20.57 L26,26.05" id="Shape"/><path d="M37,30.56 L27.09,37.43 C26.8757803,37.5754048 26.598675,37.5902895 26.370112,37.4686688 C26.141549,37.3470481 25.9990824,37.108905 26,36.85 L26,21.15 C25.9990824,20.891095 26.141549,20.6529519 26.370112,20.5313312 C26.598675,20.4097105 26.8757803,20.4245952 27.09,20.57 L37,27.44" id="Shape"/><rect height="16" id="Rectangle-path" rx="1" width="4" x="37" y="21"/></g></g></g></svg>