<?xml version="1.0" ?><svg height="60px" version="1.1" viewBox="0 0 60 60" width="60px" xmlns="http://www.w3.org/2000/svg" xmlns:xlink="http://www.w3.org/1999/xlink"><title/><desc/><defs/><g fill="none" fill-rule="evenodd" id="Page-1" stroke="none" stroke-width="1"><g id="009---Shuffle" transform="translate(1.000000, 1.000000)"><g fill-rule="nonzero" id="Icons"><path d="M58,29 C57.9846973,36.6755537 54.9206045,44.0305897 49.4819168,49.4467724 C44.0432292,54.8629552 36.6755511,57.896524 29,57.88 C28.33,57.88 27.66,57.86 27,57.8 C11.8148168,56.8192902 1.57651669e-14,44.216819 1.39888101e-14,29 C1.22124533e-14,13.783181 11.8148168,1.18070975 27,0.2 C27.66,0.14 28.33,0.12 29,0.12 C36.6755511,0.103475955 44.0432292,3.13704484 49.4819168,8.55322756 C54.9206045,13.9694103 57.9846973,21.3244463 58,29 Z" fill="#424242" id="Shape"/><ellipse cx="27" cy="29" fill="#9E9E9E" id="Oval" rx="27" ry="28.79999"/><path d="M55,29 C54.951764,43.3199666 43.3200365,54.8980092 29,54.88 C28.16,54.88 27.33,54.84 26.5,54.76 C13.1870891,53.5358138 3.00007599,42.3690773 3.00007599,29 C3.00007599,15.6309227 13.1870891,4.46418623 26.5,3.24 C27.33,3.16 28.16,3.12 29,3.12 C43.3200433,3.10197426 54.9517805,14.6800265 55,29 Z" fill="#0377BC" id="Shape"/><ellipse cx="26.5" cy="29" fill="#02A9F4" id="Oval" rx="23.5" ry="25.76001"/><path d="M29,54.875 C14.7258624,54.8062083 3.20367241,43.1910968 3.24953355,28.9168671 C3.29539468,14.6426374 14.8919815,3.1018034 29.1662665,3.12473387 C43.4405514,3.14766433 54.9999997,14.7256966 55,29 C54.9492389,43.3181062 43.3181845,54.893242 29,54.875 Z M29,5.125 C15.8304243,5.19376862 5.20363798,15.9134441 5.24948467,29.0831195 C5.29533136,42.2527949 15.9964946,52.898223 29.1662298,52.8752983 C42.3359651,52.8523737 53.0000025,42.1697552 53,29 C52.950323,15.7860145 42.2140648,5.10567421 29,5.125 Z" fill="#2980BA" id="Shape"/><path d="M29,54.875 C14.7258624,54.8062083 3.20367241,43.1910968 3.24953355,28.9168671 C3.29539468,14.6426374 14.8919815,3.1018034 29.1662665,3.12473387 C43.4405514,3.14766433 54.9999997,14.7256966 55,29 C54.9492389,43.3181062 43.3181845,54.893242 29,54.875 Z M29,5.125 C15.8304243,5.19376862 5.20363798,15.9134441 5.24948467,29.0831195 C5.29533136,42.2527949 15.9964946,52.898223 29.1662298,52.8752983 C42.3359651,52.8523737 53.0000025,42.1697552 53,29 C52.950323,15.7860145 42.2140648,5.10567421 29,5.125 Z" fill="#804169" id="Shape"/><path d="M40,38 C39.7347485,38.0001141 39.4803283,37.8947939 39.2927672,37.7072328 C39.1052061,37.5196717 38.9998859,37.2652515 39,37 L39,31 C38.9999038,30.6396543 39.1937128,30.3071322 39.5072998,30.1296154 C39.8208869,29.9520986 40.2057353,29.9570516 40.51465,30.14258 L45.51465,33.14258 C45.8157865,33.3233199 46.0000327,33.6487877 46.0000327,34 C46.0000327,34.3512123 45.8157865,34.6766801 45.51465,34.85742 L40.51465,37.85742 C40.3592297,37.9507978 40.1813143,38.000088 40,38 Z M41,32.76611 L41,35.23389 L43.05664,34 L41,32.76611 Z" fill="#A5A5A4" id="Shape"/><polyline fill="#FFEB3A" id="Shape" points="40 22 40 19 45 22 40 25 40 22"/><polyline fill="#FFEB3A" id="Shape" points="40 34 40 31 45 34 40 37 40 34"/></g><g id="Outline" stroke="#000000" stroke-linecap="round" stroke-linejoin="round" stroke-width="2"><ellipse cx="29" cy="29" id="Oval" rx="29" ry="28.875"/><ellipse cx="29" cy="29" id="Oval" rx="25" ry="24.875"/><path d="M13,22 L21,22 C24.3116533,22.0049563 26.9950437,24.6883467 27,28 C27.0026194,31.3126229 29.6873771,33.9973806 33,34 L40,34" id="Shape"/><path d="M13,34 L21,34 C24.3126229,33.9973806 26.9973806,31.3126229 27,28 C27.0049563,24.6883467 29.6883467,22.0049563 33,22 L40,22 L40,19 L45,22 L40,25 L40,22" id="Shape"/><polyline id="Shape" points="45 34 40 31 40 37 45 34"/></g></g></g></svg>