<?xml version="1.0" ?><svg height="56px" version="1.1" viewBox="0 0 56 56" width="56px" xmlns="http://www.w3.org/2000/svg" xmlns:xlink="http://www.w3.org/1999/xlink"><title/><desc/><defs/><g fill="none" fill-rule="evenodd" id="Page-1" stroke="none" stroke-width="1"><g fill="#000000" fill-rule="nonzero" id="009---Shuffle"><path d="M28,4.125 C14.8304243,4.19376862 4.20363798,14.9134441 4.24948467,28.0831195 C4.29533136,41.2527949 14.9964946,51.898223 28.1662298,51.8752983 C41.3359651,51.8523737 52.0000025,41.1697552 52,28 C51.950323,14.7860145 41.2140648,4.10567421 28,4.125 Z M44.51465,33.85742 L39.51465,36.85742 C39.2057353,37.0429484 38.8208869,37.0479014 38.5072998,36.8703846 C38.1937128,36.6928678 37.9999038,36.3603457 38,36 L38,34 L32,34 C29.538862,33.9968239 27.2604154,32.7006877 26,30.58679 C24.7395846,32.7006877 22.461138,33.9968239 20,34 L12,34 C11.4477153,34 11,33.5522847 11,33 C11,32.4477153 11.4477153,32 12,32 L20,32 C22.7600805,31.9967599 24.9967599,29.7600805 25,27 C24.9951507,24.2405874 22.7594126,22.0048493 20,22 L12,22 C11.4477153,22 11,21.5522847 11,21 C11,20.4477153 11.4477153,20 12,20 L20,20 C22.4591408,20.0017497 24.7370069,21.2937637 26.00049,23.4035 C27.2624213,21.2926589 29.5407073,20.0001957 32,20 L38,20 L38,18 C37.9999038,17.6396543 38.1937128,17.3071322 38.5072998,17.1296154 C38.8208869,16.9520986 39.2057353,16.9570516 39.51465,17.14258 L44.51465,20.14258 C44.8157865,20.3233199 45.0000327,20.6487877 45.0000327,21 C45.0000327,21.3512123 44.8157865,21.6766801 44.51465,21.85742 L39.51465,24.85742 C39.2057353,25.0429484 38.8208869,25.0479014 38.5072998,24.8703846 C38.1937128,24.6928678 37.9999038,24.3603457 38,24 L38,22 L32,22 C29.2404028,22.0044048 27.0044048,24.2404028 27,27 C27.0032401,29.7600805 29.2399195,31.9967599 32,32 L38,32 L38,30 C37.9999038,29.6396543 38.1937128,29.3071322 38.5072998,29.1296154 C38.8208869,28.9520986 39.2057353,28.9570516 39.51465,29.14258 L44.51465,32.14258 C44.8157865,32.3233199 45.0000327,32.6487877 45.0000327,33 C45.0000327,33.3512123 44.8157865,33.6766801 44.51465,33.85742 Z" id="Shape"/><polygon id="Shape" points="40 19.766 40 21 40 22.234 42.057 21"/><polygon id="Shape" points="40 34.234 42.057 33 40 31.766"/><path d="M28,0.125 C12.6212947,0.193808325 0.203691524,12.7043573 0.249564007,28.0831481 C0.29543649,43.4619389 12.787452,55.8981865 28.1662941,55.87525 C43.5451362,55.8523134 56.0000005,43.3788592 56,28 C55.9479795,12.5778464 43.422232,0.108017439 28,0.125 Z M28,53.875 C13.7258624,53.8062083 2.20367241,42.1910968 2.24953355,27.9168671 C2.29539468,13.6426374 13.8919815,2.1018034 28.1662665,2.12473387 C42.4405514,2.14766433 53.9999997,13.7256966 54,28 C53.9494092,42.3181773 42.3182549,53.8934126 28,53.875 Z" id="Shape"/></g></g></svg>