<?xml version="1.0" ?><svg height="56px" version="1.1" viewBox="0 0 56 56" width="56px" xmlns="http://www.w3.org/2000/svg" xmlns:xlink="http://www.w3.org/1999/xlink"><title/><desc/><defs/><g fill="none" fill-rule="evenodd" id="Page-1" stroke="none" stroke-width="1"><g fill="#000000" fill-rule="nonzero" id="003---Rewind"><polygon id="Shape" points="30 30.427 37 35.276 37 20.724 30 25.573"/><polygon id="Shape" points="28 35.275 28 20.725 17.501 28"/><path d="M28,4.125 C14.8304243,4.19376862 4.20363798,14.9134441 4.24948467,28.0831195 C4.29533136,41.2527949 14.9964946,51.898223 28.1662298,51.8752983 C41.3359651,51.8523737 52.0000025,41.1697552 52,28 C51.950323,14.7860145 41.2140648,4.10567421 28,4.125 Z M39,35.8501 C38.9992426,36.789254 38.2389513,37.5508511 37.2998,37.55322 C36.9561129,37.5531506 36.6207177,37.4476592 36.33887,37.25098 L30,32.85925 L30,35.84525 C30.0007436,36.4784134 29.6495773,37.0595362 29.088693,37.3533139 C28.5278088,37.6470917 27.8501385,37.6048488 27.33008,37.24369 L16.01758,29.40483 C15.5564453,29.0858026 15.2812478,28.5607749 15.2812478,28.00004 C15.2812478,27.4393051 15.5564453,26.9142774 16.01758,26.59525 L27.33008,18.75639 C27.8502576,18.3958851 28.5275744,18.3539852 29.0882186,18.6476288 C29.6488628,18.9412724 30.0001234,19.521901 30,20.15479 L30,23.14079 L36.34082,18.74803 C36.8563019,18.3886926 37.5292788,18.3472446 38.08496,18.64061 C38.6479509,18.9332894 39.0008543,19.5153772 39,20.1499 L39,35.8501 Z" id="Shape"/><path d="M28,0.125 C12.6212947,0.193808325 0.203691524,12.7043573 0.249564007,28.0831481 C0.29543649,43.4619389 12.787452,55.8981865 28.1662941,55.87525 C43.5451362,55.8523134 56.0000005,43.3788592 56,28 C55.9479795,12.5778464 43.422232,0.108017439 28,0.125 Z M28,53.875 C13.7258624,53.8062083 2.20367241,42.1910968 2.24953355,27.9168671 C2.29539468,13.6426374 13.8919815,2.1018034 28.1662665,2.12473387 C42.4405514,2.14766433 53.9999997,13.7256966 54,28 C53.9494092,42.3181773 42.3182549,53.8934126 28,53.875 Z" id="Shape"/></g></g></svg>