<?xml version="1.0" ?><svg height="56px" version="1.1" viewBox="0 0 56 56" width="56px" xmlns="http://www.w3.org/2000/svg" xmlns:xlink="http://www.w3.org/1999/xlink"><title/><desc/><defs/><g fill="none" fill-rule="evenodd" id="Page-1" stroke="none" stroke-width="1"><g fill="#000000" fill-rule="nonzero" id="011---Share"><circle cx="36" cy="38" id="Oval" r="5"/><path d="M28,0.125 C12.6212947,0.193808325 0.203691524,12.7043573 0.249564007,28.0831481 C0.29543649,43.4619389 12.787452,55.8981865 28.1662941,55.87525 C43.5451362,55.8523134 56.0000005,43.3788592 56,28 C55.9479795,12.5778464 43.422232,0.108017439 28,0.125 Z M28,53.875 C13.7258624,53.8062083 2.20367241,42.1910968 2.24953355,27.9168671 C2.29539468,13.6426374 13.8919815,2.1018034 28.1662665,2.12473387 C42.4405514,2.14766433 53.9999997,13.7256966 54,28 C53.9494092,42.3181773 42.3182549,53.8934126 28,53.875 Z" id="Shape"/><circle cx="29" cy="16" id="Oval" r="3"/><circle cx="19" cy="28" id="Oval" r="4"/><path d="M28,4.125 C14.8304243,4.19376862 4.20363798,14.9134441 4.24948467,28.0831195 C4.29533136,41.2527949 14.9964946,51.898223 28.1662298,51.8752983 C41.3359651,51.8523737 52.0000025,41.1697552 52,28 C51.950323,14.7860145 41.2140648,4.10567421 28,4.125 Z M36,45 C33.6671475,45.0024332 31.4867196,43.841356 30.1866072,41.90437 C28.8864948,39.9673841 28.6379446,37.5096232 29.52393,35.35156 L23.59033,31.85614 C21.5465506,34.3001088 17.949782,34.7223492 15.3955534,32.8181607 C12.8413247,30.9139722 12.2189961,27.3463766 13.9776574,24.689851 C15.7363186,22.0333254 19.2636191,21.2128487 22.01416,22.8205 L25.11084,19.10327 C24.3969764,18.2260897 24.0049583,17.1309385 24,16 C24,13.2385763 26.2385763,11 29,11 C31.7614237,11 34,13.2385763 34,16 C34,18.7614237 31.7614237,21 29,21 C28.1765988,20.9942642 27.3677127,20.7826407 26.647,20.3844 L23.55127,24.101 C24.9880305,25.7625556 25.392036,28.0807332 24.60205,30.13036 L30.5415,33.629 C32.5812756,31.0820649 36.1107188,30.2831739 39.0484728,31.703443 C41.9862267,33.123712 43.5522609,36.3860322 42.8230654,39.5665725 C42.0938698,42.7471128 39.26306,45.0013781 36,45 Z" id="Shape"/></g></g></svg>