<?xml version="1.0" ?><svg height="56px" version="1.1" viewBox="0 0 56 56" width="56px" xmlns="http://www.w3.org/2000/svg" xmlns:xlink="http://www.w3.org/1999/xlink"><title/><desc/><defs/><g fill="none" fill-rule="evenodd" id="Page-1" stroke="none" stroke-width="1"><g fill="#000000" fill-rule="nonzero" id="018---Expand"><path d="M28,4.125 C14.8304243,4.19376862 4.20363798,14.9134441 4.24948467,28.0831195 C4.29533136,41.2527949 14.9964946,51.898223 28.1662298,51.8752983 C41.3359651,51.8523737 52.0000025,41.1697552 52,28 C51.950323,14.7860145 41.2140648,4.10567421 28,4.125 Z M23,39 L18,39 C17.7347624,39.000069 17.4803684,38.8947343 17.292817,38.707183 C17.1052657,38.5196316 16.999931,38.2652376 17,38 L17,33 C17,32.4477153 17.4477153,32 18,32 C18.5522847,32 19,32.4477153 19,33 L19,37 L23,37 C23.5522847,37 24,37.4477153 24,38 C24,38.5522847 23.5522847,39 23,39 Z M23,19 L19,19 L19,23 C19,23.5522847 18.5522847,24 18,24 C17.4477153,24 17,23.5522847 17,23 L17,18 C16.999931,17.7347624 17.1052657,17.4803684 17.292817,17.292817 C17.4803684,17.1052657 17.7347624,16.999931 18,17 L23,17 C23.5522847,17 24,17.4477153 24,18 C24,18.5522847 23.5522847,19 23,19 Z M39,38 C39.000069,38.2652376 38.8947343,38.5196316 38.707183,38.707183 C38.5196316,38.8947343 38.2652376,39.000069 38,39 L33,39 C32.4477153,39 32,38.5522847 32,38 C32,37.4477153 32.4477153,37 33,37 L37,37 L37,33 C37,32.4477153 37.4477153,32 38,32 C38.5522847,32 39,32.4477153 39,33 L39,38 Z M39,23 C39,23.5522847 38.5522847,24 38,24 C37.4477153,24 37,23.5522847 37,23 L37,19 L33,19 C32.4477153,19 32,18.5522847 32,18 C32,17.4477153 32.4477153,17 33,17 L38,17 C38.2652376,16.999931 38.5196316,17.1052657 38.707183,17.292817 C38.8947343,17.4803684 39.000069,17.7347624 39,18 L39,23 Z" id="Shape"/><path d="M28,0.125 C12.6212947,0.193808325 0.203691524,12.7043573 0.249564007,28.0831481 C0.29543649,43.4619389 12.787452,55.8981865 28.1662941,55.87525 C43.5451362,55.8523134 56.0000005,43.3788592 56,28 C55.9479795,12.5778464 43.422232,0.108017439 28,0.125 Z M28,53.875 C13.7258624,53.8062083 2.20367241,42.1910968 2.24953355,27.9168671 C2.29539468,13.6426374 13.8919815,2.1018034 28.1662665,2.12473387 C42.4405514,2.14766433 53.9999997,13.7256966 54,28 C53.9494092,42.3181773 42.3182549,53.8934126 28,53.875 Z" id="Shape"/></g></g></svg>