<?xml version="1.0" ?><svg height="56px" version="1.1" viewBox="0 0 56 56" width="56px" xmlns="http://www.w3.org/2000/svg" xmlns:xlink="http://www.w3.org/1999/xlink"><title/><desc/><defs/><g fill="none" fill-rule="evenodd" id="Page-1" stroke="none" stroke-width="1"><g fill="#000000" fill-rule="nonzero" id="014---Volume"><path d="M30.44141,17.16455 C30.1005073,16.9909629 29.6897352,17.0317721 29.38965,17.26904 L20,24.49219 L20,31.50781 L29.38965,38.731 C29.6916935,38.9632507 30.0994346,39.0037837 30.4412905,38.8355422 C30.7831465,38.6673007 30.9997688,38.3194926 31,37.93848 L31,18.06148 C31.0043864,17.6792271 30.7864057,17.3292147 30.44141,17.16455 Z" id="Shape"/><path d="M28,4.125 C14.8304243,4.19376862 4.20363798,14.9134441 4.24948467,28.0831195 C4.29533136,41.2527949 14.9964946,51.898223 28.1662298,51.8752983 C41.3359651,51.8523737 52.0000025,41.1697552 52,28 C51.950323,14.7860145 41.2140648,4.10567421 28,4.125 Z M36,26 C35.4477153,26 35,25.5522847 35,25 C35,24.4477153 35.4477153,24 36,24 C38.7614237,24 41,26.2385763 41,29 C41,31.7614237 38.7614237,34 36,34 C35.4477153,34 35,33.5522847 35,33 C35,32.4477153 35.4477153,32 36,32 C37.6568542,32 39,30.6568542 39,29 C39,27.3431458 37.6568542,26 36,26 Z M33,28 L33,37.93848 C33.0023739,39.0824537 32.3532451,40.1279775 31.3269064,40.6332598 C30.3005676,41.1385421 29.0760966,41.0154203 28.1709,40.31592 L18.66016,33 L15,33 C13.3438951,32.9981923 12.0018077,31.6561049 12,30 L12,26 C12.0018077,24.3438951 13.3438951,23.0018077 15,23 L18.66016,23 L28.1709,15.68408 C29.0767446,14.9873448 30.2997562,14.8657663 31.3250408,15.3705296 C32.3503253,15.8752929 32.9997873,16.9187189 33,18.06152 L33,28 Z M36,38 C35.4477153,38 35,37.5522847 35,37 C35,36.4477153 35.4477153,36 36,36 C39.8659932,35.9999999 42.9999999,32.8659932 42.9999999,29 C42.9999999,25.1340068 39.8659932,22.0000001 36,22 C35.4477153,22 35,21.5522847 35,21 C35,20.4477153 35.4477153,20 36,20 C40.9705627,20 45,24.0294373 45,29 C45,33.9705627 40.9705627,38 36,38 Z" id="Shape"/><path d="M28,0.125 C12.6212947,0.193808325 0.203691524,12.7043573 0.249564007,28.0831481 C0.29543649,43.4619389 12.787452,55.8981865 28.1662941,55.87525 C43.5451362,55.8523134 56.0000005,43.3788592 56,28 C55.9479795,12.5778464 43.422232,0.108017439 28,0.125 Z M28,53.875 C13.7258624,53.8062083 2.20367241,42.1910968 2.24953355,27.9168671 C2.29539468,13.6426374 13.8919815,2.1018034 28.1662665,2.12473387 C42.4405514,2.14766433 53.9999997,13.7256966 54,28 C53.9494092,42.3181773 42.3182549,53.8934126 28,53.875 Z" id="Shape"/><path d="M18,28 L18,25 L15,25 C14.4479437,25.0005512 14.0005512,25.4479437 14,26 L14,30 C14.0005512,30.5520563 14.4479437,30.9994488 15,31 L18,31 L18,28 Z" id="Shape"/></g></g></svg>