<?xml version="1.0" ?><svg height="60px" version="1.1" viewBox="0 0 44 60" width="44px" xmlns="http://www.w3.org/2000/svg" xmlns:xlink="http://www.w3.org/1999/xlink"><title/><desc/><defs/><g fill="none" fill-rule="evenodd" id="Page-1" stroke="none" stroke-width="1"><g id="029---Gingerbread-Man"><g fill-rule="nonzero" id="Colour" transform="translate(0.000000, 1.000000)"><path d="M37.8703,56.61242 C37.1857799,57.1225334 36.3539794,57.3962905 35.5003,57.39242 C34.5200552,57.3919762 33.573883,57.0327031 32.84039,56.38242 C33.5764998,56.3241013 34.2806929,56.0569804 34.87029,55.61242 C35.7248761,54.9842945 36.2946618,54.0421665 36.4541001,52.9936255 C36.6135383,51.9450844 36.3495455,50.8761743 35.72029,50.02242 L26.89029,38.04237 C26.6373699,37.6971057 26.5007895,37.2803604 26.50029,36.85237 L26.50029,32.00237 C26.4998177,31.3352468 26.8321614,30.7118524 27.3863132,30.34041 C27.940465,29.9689677 28.6433861,29.8984347 29.26029,30.15237 L31.35029,31.01237 C30.3067346,31.0869828 29.4987132,31.9561519 29.50029,33.00237 L29.50029,37.85237 C29.5007895,38.2803604 29.6373699,38.6971057 29.89029,39.04237 L38.72029,51.02242 C39.3495465,51.8761731 39.613541,52.9450824 39.4541046,53.9936233 C39.2946683,55.0421643 38.7248845,55.984293 37.8703,56.61242 Z" fill="#A4C2F7" id="Shape"/><path d="M42.7,31.52 C42.0834253,33.0202714 40.6220292,33.9998018 39,34 C38.4788115,33.9981141 37.9628224,33.8962741 37.48,33.7 L35.74,32.99 C35.8264024,32.9983278 35.9132132,33.0016667 36,33 C37.9105319,33.0000629 39.5543985,31.6490223 39.9244022,29.7746612 C40.294406,27.9003002 39.287242,26.0259393 37.52,25.3 L24.07007,19.76 C27.7349595,17.8576443 30.0251154,14.0624011 29.9997944,9.93326913 C29.9744735,5.80413714 27.6379445,2.03726609 23.95,0.18 C28.5818719,1.01238323 32.170375,4.70038546 32.8757981,9.35328539 C33.5812211,14.0061853 31.2471224,18.5921092 27.07012,20.76 L40.52,26.3 C41.5021259,26.7021232 42.2839134,27.4784667 42.6928898,28.4577587 C43.1018661,29.4370507 43.1044243,30.5388194 42.7,31.52 Z" fill="#A4C2F7" id="Shape"/><path d="M35.74,32.99 C35.3071688,32.961509 34.8817365,32.8635921 34.48,32.7 L31.85,31.62 C32.160182,31.5926856 32.4723717,31.6407148 32.76,31.76 L35.74,32.99 Z" fill="#E3E7F2" id="Shape"/><path d="M33,11 C33.1309143,14.8630873 31.3069669,18.5322149 28.14824,20.76 C25.6298514,22.4133196 22.3701486,22.4133196 19.85176,20.76 C16.6930331,18.5322149 14.8690857,14.8630873 15,11 C15,4.92 19.02539,5.32907052e-15 24,5.32907052e-15 C28.97461,5.32907052e-15 33,4.92 33,11 Z" fill="#A4C2F7" id="Shape"/><path d="M29,11 C29.1309143,14.8630873 27.3069669,18.5322149 24.14824,20.76 C21.6298514,22.4133196 18.3701486,22.4133196 15.85176,20.76 C12.6930331,18.5322149 10.8690857,14.8630873 11,11 C11,4.92 15.02539,-1.77635684e-15 20,-1.77635684e-15 C24.97461,-1.77635684e-15 29,4.92 29,11 Z" fill="#FFFFFF" id="Shape"/><path d="M39.7,30.52 C39.0834253,32.0202714 37.6220292,32.9998018 36,33 C35.9132132,33.0016667 35.8264024,32.9983278 35.74,32.99 L32.76,31.76 C32.4723717,31.6407148 32.160182,31.5926856 31.85,31.62 L29.76,30.76 C29.1430961,30.5060647 28.440175,30.5765977 27.8860232,30.94804 C27.3318714,31.3194824 26.9995277,31.9428768 27,32.61 L27,37.46 C27.0005009,37.8879902 27.1370812,38.304735 27.39,38.65 L36.22,50.63 C36.8492502,51.4837562 37.1132399,52.5526648 36.9538019,53.6012042 C36.7943638,54.6497437 36.2245816,55.5918712 35.37,56.22 C34.7803982,56.6645588 34.0762024,56.9316793 33.34009,56.99 C33.1305109,56.8052253 32.9426178,56.597223 32.78003,56.37 L23.61,43.93 C22.9991837,43.0893774 21.8431945,42.8625418 20.96,43.41 C20.7338312,43.5389578 20.5391534,43.7165741 20.39005,43.93 L11.22,56.37 C10.4689101,57.3967892 9.2721735,58.0025907 8,58 C7.14632122,58.0038669 6.3145218,57.7301101 5.63,57.22 C5.52,57.14004 5.42002667,57.06004 5.33008,56.98 C3.7976231,55.603769 3.55964945,53.289271 4.78,51.63 L13.61,39.65 C13.8629188,39.304735 13.9994991,38.8879902 14,38.46 L14,33.61 C14.0004723,32.9428768 13.6681286,32.3194824 13.1139768,31.94804 C12.559825,31.5765977 11.8569039,31.5060647 11.24,31.76 L10.88,31.91 L6.52,33.7 C6.03717758,33.8962741 5.52118852,33.9981141 5,34 C4.01514702,33.9984304 3.06511481,33.6354858 2.33008,32.98 C1.879685,32.5784406 1.52732886,32.0789844 1.30008,31.52 C0.895651121,30.5388294 0.898197933,29.4370691 1.30715858,28.4577788 C1.71611923,27.4784884 2.49788852,26.7021386 3.48,26.3 L16.30007,21.02 C17.42995,21.65 19.15007,21.36 18.31007,20.76005 C15.75,18.94 14,15.25 14,11 C14,4.92 17.58008,0 22,0 C26.41992,0 30,4.92 30,11 C30,15.09 28.38,18.66 25.97,20.54 L37.52,25.3 C38.5021259,25.7021232 39.2839134,26.4784667 39.6928898,27.4577587 C40.1018661,28.4370507 40.1044243,29.5388194 39.7,30.52 L39.7,30.52 Z" fill="#E3E7F2" id="Shape"/><polygon fill="#E3E7F2" id="Shape" points="14.56 51.84 8.31 46.85 6.17 49.74 12.42 54.74"/><polygon fill="#E3E7F2" id="Shape" points="29.44 51.84 35.69 46.85 37.83 49.74 31.58 54.74"/><polygon fill="#E3E7F2" id="Shape" points="37.13 24.9 37.13 24.91 33.82 32.2 37.11 33.55 40.43 26.26"/><polygon fill="#E3E7F2" id="Shape" points="6.897 24.9 6.897 24.91 10.207 32.2 6.917 33.55 3.597 26.26"/><circle cx="22" cy="30" fill="#A4C2F7" id="Oval" r="2"/><circle cx="22" cy="37" fill="#A4C2F7" id="Oval" r="2"/><circle cx="18" cy="9" fill="#A4C2F7" id="Oval" r="2"/><circle cx="26" cy="9" fill="#A4C2F7" id="Oval" r="2"/><path d="M17,33.61 L17,38.46 C16.9994991,38.8879902 16.8629188,39.304735 16.61,39.65 L7.78,51.63 C6.55962969,53.2892513 6.79756851,55.6037471 8.33,56.98 C8.41984,57.06 8.51981333,57.14 8.62992,57.22 C8.89696081,57.4211098 9.18951589,57.5858822 9.49992,57.71 C9.02264426,57.9001712 8.51376563,57.9985596 8,58 C7.14632122,58.0038669 6.3145218,57.7301101 5.63,57.22 C5.52,57.14004 5.42002667,57.06004 5.33008,56.98 C3.7976231,55.603769 3.55964945,53.289271 4.78,51.63 L13.61,39.65 C13.8629188,39.304735 13.9994991,38.8879902 14,38.46 L14,33.61 C14.005904,33.0441371 13.7649683,32.5037835 13.34009,32.13 L13.88,31.91 L14.24,31.76 C14.8569039,31.5060647 15.559825,31.5765977 16.1139768,31.94804 C16.6681286,32.3194824 17.0004723,32.9428768 17,33.61 L17,33.61 Z" fill="#FFFFFF" id="Shape"/><path d="M6.48,26 C5.49788671,26.4021366 4.71611515,27.1784857 4.30715254,28.1577763 C3.89818993,29.1370668 3.89564169,30.2388282 4.30007,31.22 C4.52731886,31.7789844 4.879675,32.2784406 5.33007,32.68 C5.67583863,32.9904081 6.07582032,33.2344792 6.51,33.4 C5.09405509,33.982801 3.46942074,33.702955 2.33007,32.68 C1.879675,32.2784406 1.52731886,31.7789844 1.30007,31.22 C0.895641691,30.2388282 0.898189927,29.1370668 1.30715254,28.1577763 C1.71611515,27.1784857 2.49788671,26.4021366 3.48,26 L6.48,26 Z" fill="#FFFFFF" id="Shape"/></g><g id="Outline"><path d="M11.75,16 C13.6737507,20.9281447 18.8331012,23.7888712 24.0320849,22.8100985 C29.2310685,21.8313258 32.9969508,17.2903145 32.9969508,12 C32.9969508,6.70968553 29.2310685,2.16867419 24.0320849,1.18990152 C18.8331012,0.211128848 13.6737507,3.07185528 11.75,8" id="Shape" stroke="#428DFF" stroke-linecap="round" stroke-linejoin="round" stroke-width="2"/><path d="M42.7,32.52 C42.0834253,34.0202714 40.6220292,34.9998018 39,35 C38.4788115,34.9981141 37.9628224,34.8962741 37.48,34.7 L32.7615,32.75709 C32.1445318,32.5030441 31.4415081,32.5734001 30.8871192,32.944671 C30.3327303,33.3159419 29.9999987,33.939225 30,34.60645 L30,39.46261 C29.9999914,39.8896261 30.1366587,40.3054346 30.39,40.64918 L39.22,52.63 C39.8492502,53.4837562 40.1132399,54.5526648 39.9538019,55.6012042 C39.7943638,56.6497437 39.2245816,57.5918712 38.37,58.22 C37.6854782,58.7301101 36.8536788,59.0038669 36,59 C34.7278265,59.0025907 33.5310899,58.3967892 32.78,57.37 L23.61011,44.92513 C23.2331425,44.4135328 22.635481,44.1115303 22,44.1115303 C21.364519,44.1115303 20.7668575,44.4135328 20.38989,44.92513 L11.22,57.37 C10.4689101,58.3967892 9.2721735,59.0025907 8,59 C7.14632122,59.0038669 6.3145218,58.7301101 5.63,58.22 C4.77541841,57.5918712 4.20563615,56.6497437 4.04619813,55.6012042 C3.88676011,54.5526648 4.15074975,53.4837562 4.78,52.63 L13.61,40.64918 C13.8633413,40.3054346 14.0000086,39.8896261 14,39.46261 L14,34.60645 C14.0000013,33.939225 13.6672697,33.3159419 13.1128808,32.944671 C12.5584919,32.5734001 11.8554682,32.5030441 11.2385,32.75709 L6.52,34.7 C6.03717758,34.8962741 5.52118852,34.9981141 5,35 C3.0894681,35.0000629 1.44560152,33.6490223 1.07559778,31.7746612 C0.705594035,29.9003002 1.71275799,28.0259393 3.48,27.3 L16.93,21.76 C20.1078698,23.4133207 23.8922702,23.4133207 27.07014,21.76 L40.52,27.3 C41.5021259,27.7021232 42.2839134,28.4784667 42.6928898,29.4577587 C43.1018661,30.4370507 43.1044243,31.5388194 42.7,32.52 Z" id="Shape" stroke="#428DFF" stroke-linecap="round" stroke-linejoin="round" stroke-width="2"/><path d="M12.42,55.74 L6.17,50.74" id="Shape" stroke="#428DFF" stroke-linecap="round" stroke-linejoin="round"/><path d="M14.56,52.84 L8.31,47.85" id="Shape" stroke="#428DFF" stroke-linecap="round" stroke-linejoin="round"/><path d="M37.83,50.74 L31.58,55.74" id="Shape" stroke="#428DFF" stroke-linecap="round" stroke-linejoin="round"/><path d="M35.69,47.85 L29.44,52.84" id="Shape" stroke="#428DFF" stroke-linecap="round" stroke-linejoin="round"/><path d="M6.89,34.55 L3.57,27.26" id="Shape" stroke="#428DFF" stroke-linecap="round" stroke-linejoin="round"/><path d="M10.18,33.2 L6.87,25.91" id="Shape" stroke="#428DFF" stroke-linecap="round" stroke-linejoin="round"/><path d="M40.43,27.26 L37.11,34.55" id="Shape" stroke="#428DFF" stroke-linecap="round" stroke-linejoin="round"/><polyline id="Shape" points="37.13 25.9 37.13 25.91 33.82 33.2" stroke="#428DFF" stroke-linecap="round" stroke-linejoin="round"/><circle cx="22" cy="31" id="Oval" r="2" stroke="#428DFF" stroke-linecap="round" stroke-linejoin="round"/><circle cx="22" cy="38" id="Oval" r="2" stroke="#428DFF" stroke-linecap="round" stroke-linejoin="round"/><circle cx="18" cy="10" id="Oval" r="2" stroke="#428DFF" stroke-linecap="round" stroke-linejoin="round" stroke-width="2"/><circle cx="26" cy="10" id="Oval" r="2" stroke="#428DFF" stroke-linecap="round" stroke-linejoin="round" stroke-width="2"/><path d="M26,15 L26,15 C26,17.209139 24.209139,19 22,19 L22,19 C19.790861,19 18,17.209139 18,15 L18,15" id="Shape" stroke="#428DFF" stroke-linecap="round" stroke-linejoin="round" stroke-width="2"/><circle cx="11" cy="12" fill="#428DFF" fill-rule="nonzero" id="Oval" r="1"/></g></g></g></svg>