<?xml version="1.0" ?><!DOCTYPE svg  PUBLIC '-//W3C//DTD SVG 1.1//EN'  'http://www.w3.org/Graphics/SVG/1.1/DTD/svg11.dtd'><svg enable-background="new 0 0 100 100" height="100px" id="Layer_1" version="1.1" viewBox="0 0 100 100" width="100px" xml:space="preserve" xmlns="http://www.w3.org/2000/svg" xmlns:xlink="http://www.w3.org/1999/xlink"><g><path d="M51.467,4C26.091,4,5.445,24.646,5.445,50.022c0,25.376,20.646,46.021,46.021,46.021c25.377,0,46.022-20.645,46.022-46.021   C97.489,24.646,76.844,4,51.467,4z M51.467,94.044c-24.273,0-44.021-19.748-44.021-44.021C7.445,25.749,27.193,6,51.467,6   c24.274,0,44.022,19.749,44.022,44.022C95.489,74.296,75.741,94.044,51.467,94.044z"/><path d="M51.951,41.998l-0.866,1.501l6.72,11.64h2.31l-8.161-14.135C52.129,41.312,52.129,41.69,51.951,41.998z"/><polygon points="49.931,41.498 40.854,25.778 49.93,41.499  "/><path d="M41.72,23.278l1.844,3.193l-0.978-1.693h18.153l17.528,30.36H80c0.357,0,0.688,0.19,0.866,0.5l-18.684-32.36   c-0.179-0.31-0.509-0.5-0.866-0.5H40.854c-0.357,0-0.688,0.19-0.866,0.5C40.345,22.659,41.362,22.659,41.72,23.278z"/><path d="M80,55.139h-1.732H60.114h-2.31H44.365l-1.155,2h16.327h18.73L69.19,72.859H34.135l3.83-6.635l-4.696,8.135   c-0.179,0.31-0.509,0.5-0.866,0.5h37.365c0.357,0,0.688-0.19,0.866-0.5l10.232-17.721c0.179-0.31,0.179-0.69,0-1   S80.357,55.139,80,55.139z"/><path d="M33.269,74.359l4.696-8.135l5.245-9.085l1.155-2l6.72-11.64l0.866-1.501c0.178-0.308,0.178-0.686,0.002-0.995   c-0.001-0.001-0.001-0.003-0.002-0.005l-8.388-14.527l-1.844-3.193c-0.357-0.619-1.375-0.619-1.732,0l-18.682,32.36   c-0.179,0.31-0.179,0.69,0,1l10.23,17.721c0.179,0.31,0.509,0.5,0.866,0.5S33.09,74.669,33.269,74.359z M23.326,56.139   l17.527-30.36l9.077,15.72l-0.001,0.001l-8.162,14.138l-9.365,16.223L23.326,56.139z"/></g></svg>