<?xml version="1.0" ?><!DOCTYPE svg  PUBLIC '-//W3C//DTD SVG 1.1//EN'  'http://www.w3.org/Graphics/SVG/1.1/DTD/svg11.dtd'><svg enable-background="new 0 0 100 100" height="100px" id="Layer_1" version="1.1" viewBox="0 0 100 100" width="100px" xml:space="preserve" xmlns="http://www.w3.org/2000/svg" xmlns:xlink="http://www.w3.org/1999/xlink"><g><path d="M50.083,3.597C24.706,3.597,4.06,24.243,4.06,49.62c0,25.376,20.646,46.021,46.023,46.021   c25.376,0,46.021-20.645,46.021-46.021C96.103,24.243,75.458,3.597,50.083,3.597z M50.083,93.641   C25.808,93.641,6.06,73.893,6.06,49.62c0-24.274,19.749-44.023,44.023-44.023c24.273,0,44.021,19.749,44.021,44.023   C94.103,73.893,74.355,93.641,50.083,93.641z"/><path d="M53.358,52.983c-7.374,2.201-13.49,7.046-18.18,14.402c-0.277,0.435-0.178,1.009,0.228,1.326   c4.266,3.33,9.358,5.09,14.727,5.09c2.925,0,5.821-0.546,8.608-1.624c0.444-0.171,0.705-0.631,0.625-1.1   c-1.009-5.949-2.621-11.835-4.788-17.495C54.391,53.096,53.859,52.833,53.358,52.983z M50.133,71.802   c-4.614,0-9.006-1.42-12.762-4.117c4.203-6.296,9.344-10.399,15.671-12.505c1.857,5.004,3.271,10.182,4.209,15.415   C54.934,71.396,52.543,71.802,50.133,71.802z"/><path d="M72.991,52.393c-5.342-0.928-10.276-1.083-14.688-0.461c-0.3,0.042-0.565,0.219-0.72,0.479   c-0.155,0.261-0.184,0.578-0.077,0.861c1.926,5.151,3.409,10.479,4.407,15.833c0.062,0.331,0.285,0.608,0.595,0.739   c0.125,0.052,0.256,0.078,0.388,0.078c0.195,0,0.39-0.057,0.557-0.169c5.547-3.718,9.322-9.63,10.355-16.219   C73.892,52.994,73.528,52.486,72.991,52.393z M63.578,67.196c-0.923-4.537-2.186-9.044-3.763-13.435   c3.62-0.379,7.575-0.231,11.841,0.438C70.605,59.346,67.723,63.975,63.578,67.196z"/><path d="M27.819,45.362c0.002,0,0.004,0,0.007,0c7.856-0.053,14.727-0.93,20.418-2.605c0.292-0.086,0.528-0.3,0.643-0.581   c0.115-0.281,0.096-0.6-0.051-0.865c-2.392-4.299-5.179-8.54-8.283-12.603c-0.292-0.384-0.817-0.503-1.248-0.285   c-6.259,3.182-10.8,8.905-12.458,15.702c-0.073,0.299-0.004,0.615,0.188,0.857C27.224,45.222,27.513,45.362,27.819,45.362z    M39.476,30.598c2.577,3.43,4.922,6.98,6.988,10.581c-4.941,1.314-10.758,2.042-17.328,2.167   C30.801,37.932,34.498,33.368,39.476,30.598z"/><path d="M67.663,33.978c-0.299,0.004-0.58,0.141-0.767,0.374c-3.076,3.833-7.276,6.92-12.486,9.176   c-0.25,0.108-0.445,0.314-0.54,0.57s-0.081,0.539,0.038,0.784c0.556,1.145,1.131,2.407,1.76,3.857   c0.183,0.424,0.632,0.667,1.087,0.588c4.884-0.841,10.317-0.784,16.143,0.171c0.054,0.009,0.108,0.013,0.162,0.013   c0.245,0,0.483-0.09,0.668-0.256c0.226-0.203,0.347-0.497,0.33-0.8c-0.294-5.245-2.237-10.128-5.619-14.124   C68.247,34.104,67.991,33.977,67.663,33.978z M63.963,46.733c-2.329,0-4.603,0.167-6.771,0.497c-0.36-0.818-0.705-1.577-1.04-2.291   c4.652-2.149,8.515-4.964,11.507-8.385c2.39,3.15,3.86,6.834,4.299,10.776C69.199,46.934,66.515,46.733,63.963,46.733z"/><path d="M50.133,20.973c-15.899,0-28.835,12.935-28.835,28.834c0,15.899,12.936,28.834,28.835,28.834   c15.899,0,28.834-12.935,28.834-28.834C78.967,33.908,66.032,20.973,50.133,20.973z M50.133,76.642   c-14.797,0-26.835-12.038-26.835-26.834s12.038-26.834,26.835-26.834c14.796,0,26.834,12.038,26.834,26.834   S64.929,76.642,50.133,76.642z"/><path d="M52.1,50.424c0.272-0.085,0.495-0.282,0.613-0.542c0.117-0.26,0.119-0.557,0.003-0.818   c-0.504-1.137-1.033-2.267-1.572-3.359c-0.218-0.442-0.725-0.658-1.196-0.511c-6.338,1.992-14.002,3.008-22.778,3.021   c-0.541,0.001-0.982,0.431-0.998,0.971l-0.012,0.215c-0.009,0.135-0.018,0.27-0.018,0.407c0,5.587,1.973,11.033,5.557,15.333   c0.19,0.229,0.472,0.36,0.768,0.36c0.018,0,0.036,0,0.053-0.001c0.315-0.017,0.604-0.182,0.779-0.444   C38.186,57.718,44.512,52.795,52.1,50.424z M32.412,62.812c-2.684-3.652-4.185-8.066-4.268-12.602   c8.204-0.082,15.454-1.042,21.578-2.856c0.241,0.5,0.479,1.005,0.711,1.515C43.266,51.359,37.213,56.042,32.412,62.812z"/><path d="M51.706,40.635c0.181,0.331,0.522,0.521,0.878,0.521c0.13,0,0.263-0.025,0.39-0.079c5.047-2.137,9.073-5.112,11.965-8.843   c0.163-0.21,0.235-0.476,0.202-0.739c-0.034-0.263-0.171-0.502-0.381-0.665c-4.249-3.282-9.307-5.016-14.627-5.016   c-1.915,0-3.896,0.256-5.886,0.76c-0.324,0.082-0.585,0.32-0.697,0.634s-0.059,0.664,0.14,0.932   C46.666,32.139,49.362,36.343,51.706,40.635z M50.133,27.813c4.534,0,8.862,1.376,12.58,3.991   c-2.458,2.891-5.711,5.264-9.694,7.069c-2.037-3.654-4.323-7.239-6.812-10.685C47.537,27.939,48.852,27.813,50.133,27.813z"/></g></svg>