<?xml version="1.0" ?><!DOCTYPE svg  PUBLIC '-//W3C//DTD SVG 1.1//EN'  'http://www.w3.org/Graphics/SVG/1.1/DTD/svg11.dtd'><svg enable-background="new 0 0 100 100" height="100px" id="Layer_1" version="1.1" viewBox="0 0 100 100" width="100px" xml:space="preserve" xmlns="http://www.w3.org/2000/svg" xmlns:xlink="http://www.w3.org/1999/xlink"><g><path d="M49.68,95.74c25.35,0,45.974-20.624,45.974-45.974S75.029,3.792,49.68,3.792c-25.351,0-45.975,20.624-45.975,45.974   S24.329,95.74,49.68,95.74z M49.68,5.792c24.247,0,43.974,19.727,43.974,43.974S73.927,93.74,49.68,93.74   c-24.248,0-43.975-19.727-43.975-43.974S25.432,5.792,49.68,5.792z"/><path d="M22.922,35.479c0.365,0.043,0.41,0.047,0.776,0.079c0.26,0.022,0.689,0.06,1.539,0.137   C26.93,40.33,37.956,70.53,38.588,72.277c0.487,1.349,1.764,2.255,3.176,2.255c1.394,0,2.556-0.911,3.033-2.377   c0.544-1.671,4.485-13.119,6.68-19.485c3.342,9.154,6.806,18.649,7.15,19.607c0.488,1.349,1.765,2.255,3.177,2.255   c1.394,0,2.556-0.911,3.032-2.377c0.35-1.074,1.451-4.216,2.846-8.193c1.784-5.089,4.228-12.059,6.429-18.498   c2.142-6.458,1.904-12.878-0.605-16.354c-1.634-2.261-4.099-3.063-6.794-2.184c-1.168,0.38-2.62,1.611-3.232,3.503   c-0.53,1.639-0.607,4.354,2.038,7.988c4.015,5.51,1.692,11.912,1.647,12.04l-2.93,9.718l-8.242-24.52   c0.788-0.062,1.671-0.137,1.906-0.172c1.008-0.15,1.946-1.082,1.772-2.378c-0.147-1.112-0.942-1.776-2.126-1.776l-0.412,0.019   c-2.506,0.168-4.765,0.253-6.724,0.253c-1.363,0-3.624-0.044-6.651-0.257l-0.151-0.01c-0.071-0.004-0.146-0.006-0.223-0.006   c-1.115,0-1.909,0.581-2.132,1.585c-0.122,0.644,0.017,1.296,0.379,1.79c0.32,0.436,0.794,0.711,1.333,0.775   c0.365,0.043,0.409,0.047,0.778,0.079c0.261,0.022,0.69,0.06,1.535,0.137l3.819,10.46l-4.817,14.301l-8.328-24.8   c0.789-0.062,1.671-0.136,1.907-0.172c1.006-0.152,1.943-1.083,1.771-2.377c-0.155-1.175-1.022-1.836-2.323-1.772L37.09,31.35   c-2.51,0.168-4.771,0.253-6.723,0.253c-1.34,0-3.575-0.044-6.615-0.255l-0.186-0.013c-0.073-0.004-0.149-0.007-0.229-0.007   c-1.112,0-1.904,0.582-2.125,1.584c-0.123,0.644,0.015,1.297,0.377,1.791C21.91,35.141,22.383,35.416,22.922,35.479z    M23.338,33.329l0.275,0.015c3.098,0.214,5.383,0.26,6.754,0.26c1.995,0,4.303-0.087,6.856-0.258l0.286-0.015   c0.063,0,0.108,0.004,0.139,0.008c-0.003,0.006-0.003,0.016-0.001,0.032c0.008,0.06,0.015,0.112-0.088,0.137   c-0.243,0.037-1.924,0.17-3.039,0.253c-0.308,0.023-0.588,0.187-0.759,0.444s-0.213,0.579-0.115,0.872l9.684,28.836   c0.137,0.407,0.519,0.682,0.948,0.682s0.811-0.274,0.947-0.681l5.878-17.451c0.073-0.215,0.07-0.449-0.008-0.662l-4.156-11.385   c-0.133-0.363-0.463-0.617-0.847-0.652c-1.283-0.119-1.857-0.169-2.178-0.196c-0.34-0.03-0.381-0.033-0.672-0.045   c-0.02-0.025-0.048-0.122-0.087-0.164c0,0,0.06-0.027,0.228-0.027l0.234,0.012c3.085,0.217,5.396,0.262,6.801,0.262   c1.994,0,4.298-0.087,6.848-0.258l0.278-0.014c0.057,0,0.1,0.003,0.13,0.007c0.006,0.049,0.014,0.112,0.014,0.112   c-0.008,0.016-0.06,0.05-0.089,0.057c-0.242,0.037-1.923,0.171-3.039,0.254c-0.309,0.023-0.588,0.187-0.759,0.444   c-0.171,0.257-0.213,0.579-0.115,0.872l9.651,28.711c0.139,0.412,0.554,0.685,0.964,0.681c0.436-0.007,0.816-0.294,0.941-0.711   l3.813-12.657c0.114-0.302,2.741-7.458-1.923-13.86c-1.702-2.337-2.308-4.479-1.752-6.194c0.417-1.289,1.417-2.044,1.948-2.217   c1.866-0.608,3.422-0.115,4.553,1.453c1.759,2.436,2.542,7.88,0.332,14.545c-2.195,6.423-4.638,13.388-6.421,18.474   c-1.453,4.145-2.503,7.139-2.86,8.236c-0.211,0.651-0.603,0.996-1.13,0.996c-0.563,0-1.097-0.385-1.296-0.934   c-0.378-1.05-4.511-12.379-8.119-22.26c-0.145-0.395-0.52-0.657-0.939-0.657c-0.003,0-0.006,0-0.009,0   c-0.424,0.004-0.799,0.274-0.937,0.674c-4.69,13.605-7.18,20.861-7.609,22.181c-0.212,0.652-0.604,0.996-1.131,0.996   c-0.563,0-1.096-0.384-1.295-0.935c-0.685-1.894-13.569-37.183-13.569-37.183c-0.133-0.363-0.462-0.617-0.847-0.653   c-1.289-0.12-1.862-0.169-2.183-0.197c-0.337-0.029-0.379-0.033-0.667-0.043c-0.019-0.025-0.047-0.122-0.087-0.167   C23.116,33.355,23.174,33.329,23.338,33.329z"/></g></svg>