<?xml version="1.0" ?><!DOCTYPE svg  PUBLIC '-//W3C//DTD SVG 1.1//EN'  'http://www.w3.org/Graphics/SVG/1.1/DTD/svg11.dtd'><svg enable-background="new 0 0 48 48" height="48px" id="Layer_5" version="1.1" viewBox="0 0 48 48" width="48px" xml:space="preserve" xmlns="http://www.w3.org/2000/svg" xmlns:xlink="http://www.w3.org/1999/xlink"><path d="M34.537,9.25l0.033-0.006c0,0-0.094-0.046-0.231-0.114c-0.538-0.311-1.094-0.594-1.662-0.855  c-2.4-1.265-6.414-3.51-7.977-5.153c-2.292-2.412-2.626-3.064-2.626-3.064s-0.307,2.67-1.007,3.765  c-0.7,1.094-2.476,2.932-5.769,4.441c-0.135,0.062-0.244,0.126-0.344,0.189C8.01,11.818,3.208,18.915,3.208,27.152  c0,11.482,9.309,20.791,20.793,20.791c11.482,0,20.791-9.309,20.791-20.791C44.792,19.52,40.667,12.866,34.537,9.25z M32.752,44.61  c-1.444,0.612-4.421,1.4-7.223,1.006c-2.802-0.394-3.633-1.707-3.633-1.707s-0.526-1.007,0.875-1.095  c0.612,0.132,2.075,1.357,4.387,1.357c2.311,0,4.412-0.569,5.287-0.919s1.531-1.095,2.101-0.438  C35.115,43.472,34.196,43.998,32.752,44.61z M26.011,39.868c0,0,0.5-1.025,1.771-1.735l0.046-0.045l0.087-0.027  c0.46-0.238,1.022-0.419,1.69-0.512l0.125-0.038l0.057,0.015c0.13-0.015,0.243-0.044,0.382-0.051  c3.108-0.131,3.282,2.394,3.282,2.394s-0.394,1.475-1.138,0c-0.072-0.145-0.138-0.268-0.204-0.39  c-0.204-0.386-1.024-0.69-2.027-0.733c-1.007-0.043-2.277,0.788-2.277,0.788s-0.787,0.962-1.4,0.991  C25.792,40.553,26.011,39.868,26.011,39.868z M37.479,39.095c-2.846-1.575-3.853-4.377-6.479-5.034  c-0.176,0-1.814,0.364-3.809,1.707s-4.114,2.539-7.835,3.766c-3.722,1.226-8.667-0.964-7.748-5.646  c1.794-7.922,9.893-6.172,9.893-6.172c1.276,0.148,3.021,1.138,5.21,2.758c1.818,1.347,3.56,2.079,4.102,2.291  c0.013,0.004,1.076,0.282,3.076-1.022c2.014-1.313,4.64-3.064,5.472-3.283c0.831-0.218,3.851-0.044,3.414,3.677  C42.338,35.856,40.325,40.671,37.479,39.095z" fill="#241F20"/></svg>