<?xml version="1.0" ?><!DOCTYPE svg  PUBLIC '-//W3C//DTD SVG 1.1//EN'  'http://www.w3.org/Graphics/SVG/1.1/DTD/svg11.dtd'><svg enable-background="new 0 0 512 512" id="Layer_1" version="1.1" viewBox="0 0 512 512" xml:space="preserve" xmlns="http://www.w3.org/2000/svg" xmlns:xlink="http://www.w3.org/1999/xlink"><g><path d="M153.5,287.1c-0.2,0-0.4-0.1-0.6-0.1l-0.6,0.1c-24.5,1.5-43.9,21.9-43.9,46.8c0,12.1,4.6,23.1,12.1,31.4l4.7,4.9   c7.1,7.8,20.4,23.7,27.1,40.4c0.2,0.5,0.4,1.1,0.6,1.6l0.6-1.7c6.7-16.7,20-32.6,27-40.3l4.7-4.9c7.5-8.3,12.1-19.3,12.1-31.4   C197.3,309,178,288.6,153.5,287.1z"/><path d="M176.5,389.2c-3.5,4.6-7.1,9.9-10.1,15.4c2.9,3.2,4.5,7.5,4.5,11.9c0,9.5-7.3,17.3-16.6,18l-4.3-0.2   c-8.6-1.4-15.1-8.8-15.1-17.8c0-4.4,1.6-8.6,4.4-11.9v0c-3-5.5-6.6-10.7-10.1-15.4c-7.9,6.8-12.5,16.8-12.5,27.3   c0,20,16.2,36.2,36.1,36.2c19.9,0,36.1-16.2,36.1-36.2C189,406,184.4,396,176.5,389.2z"/><path d="M361.6,151.9v31.3c0,10-8.1,18.1-18.1,18.1c-10,0-18.1-8.1-18.1-18.1v-31.3c-10.8,6.3-18,17.9-18,31.3   c0,10.3,4.3,19.5,11.2,26.1l-37.2,52.7c-4.3-1.8-9.1-2.8-14-2.8c-6,0-11.7,1.5-16.8,4.1l-74-45.9c-2.6-17.4-17.6-30.8-35.7-30.8   c-19.9,0-36.1,16.2-36.1,36.1c0,17,11.9,31.3,27.8,35.1l2.1,24.1c5.3-2.2,11.1-3.5,17.2-3.9l0.7,0l-1.8-20.6   c10.5-2.9,19.1-10.5,23.4-20.4l62.8,39c-3.5,5.6-5.6,12.1-5.6,19.3c0,19.9,16.2,36.1,36.1,36.1c19.9,0,36.1-16.2,36.1-36.1   c0-8.4-2.9-16.1-7.7-22.3l38.7-54.9c2.9,0.8,5.9,1.2,9,1.2c19.9,0,36.1-16.2,36.1-36.1C379.6,169.8,372.4,158.1,361.6,151.9z    M140.8,240.7c-9.9,0-18-8.1-18-18c0-10,8.1-18,18-18c10,0,18,8.1,18,18C158.8,232.6,150.8,240.7,140.8,240.7z M267.3,313.3   c-9.9,0-18-8.1-18-18c0-10,8.1-18,18-18c10,0,18,8.1,18,18C285.3,305.2,277.2,313.3,267.3,313.3z"/><path d="M352.1,74.5c-1.1-3.7-4.5-6.5-8.6-6.5c-5,0-9.1,4.1-9.1,9.1v106c0,5,4.1,9.1,9.1,9.1c5,0,9.1-4.1,9.1-9.1v-66.7   c19.9,0.8,32.5-22,54.8-13.3c0-16.8,0-25.1,0-41.9C384.8,52.5,372.2,75.6,352.1,74.5z"/></g></svg>