<?xml version="1.0" ?><!DOCTYPE svg  PUBLIC '-//W3C//DTD SVG 1.1//EN'  'http://www.w3.org/Graphics/SVG/1.1/DTD/svg11.dtd'><svg enable-background="new 0 0 512 512" id="Layer_1" version="1.1" viewBox="0 0 512 512" xml:space="preserve" xmlns="http://www.w3.org/2000/svg" xmlns:xlink="http://www.w3.org/1999/xlink"><g><path d="M150.3,200.6c13.8,1.2,28.4,2,43.3,2.2v-61.4C175.8,147.1,160.1,169.5,150.3,200.6z"/><path d="M139.9,264.6h53.8v-43.7c-16.6-0.2-32.8-1.1-48.1-2.6C142.4,232.6,140.4,248.2,139.9,264.6z"/><path d="M211.7,141.4v61.4c14.9-0.2,29.5-1,43.3-2.2C245.3,169.5,229.6,147.1,211.7,141.4z"/><path d="M145.5,328.8c15.3-1.5,31.5-2.4,48.1-2.6v-43.6h-53.8C140.4,299,142.4,314.5,145.5,328.8z"/><path d="M259.8,218.3c-15.3,1.5-31.5,2.4-48.1,2.6v43.6h53.8C265,248.2,263,232.6,259.8,218.3z"/><path d="M278,330.9c18.1,2.4,34.6,5.7,48.3,9.8c0.7,0.2,1.4,0.5,2,0.9c9.6-17.7,15.5-37.6,16.8-58.9h-61.5   C283.1,299.7,281.2,315.9,278,330.9z"/><path d="M121.7,282.7H60.2c1.3,21.2,7.3,41.2,16.9,58.9c0.6-0.4,1.3-0.7,2-0.9c13.7-4.1,30.1-7.3,48.3-9.8   C124.2,315.9,122.2,299.7,121.7,282.7z"/><path d="M127.4,216.2c-18.1-2.4-34.5-5.7-48.2-9.8c-0.7-0.2-1.4-0.5-2-0.9c-9.6,17.7-15.6,37.7-16.9,59h61.5   C122.2,247.5,124.2,231.2,127.4,216.2z"/><path d="M193.6,405.9v-61.5c-15,0.2-29.5,1-43.4,2.2C160,377.7,175.7,400.1,193.6,405.9z"/><path d="M211.7,344.4v61.5c17.9-5.7,33.6-28.2,43.4-59.3C241.3,345.3,226.7,344.6,211.7,344.4z"/><path d="M131.8,348.6c-16.8,2.2-32,5.1-44.8,8.7c19.7,27.2,48.6,47.1,82.3,55.2C153.3,399.2,140.2,376.8,131.8,348.6z"/><path d="M236.1,412.4c33.6-8.1,62.6-28,82.3-55.2c-12.9-3.6-28.1-6.5-44.8-8.7C265.1,376.8,252,399.2,236.1,412.4z"/><path d="M169.3,134.8c-33.6,8.1-62.5,28-82.2,55.1c12.8,3.6,28,6.5,44.8,8.7C140.3,170.4,153.3,148,169.3,134.8z"/><path d="M265.5,282.7h-53.8v43.6c16.6,0.2,32.8,1.1,48.1,2.6C263,314.5,265,299,265.5,282.7z"/><path d="M273.5,198.6c16.7-2.2,31.9-5.1,44.8-8.7c-19.7-27.1-48.6-47-82.2-55C252,148,265.1,170.4,273.5,198.6z"/><path d="M326.3,206.4c-13.7,4.1-30.1,7.4-48.3,9.8c3.2,15,5.1,31.2,5.7,48.3h61.5c-1.3-21.3-7.3-41.3-16.9-59   C327.6,205.9,327,206.2,326.3,206.4z"/><path d="M447.5,135.5c0,0-0.1,0-0.1,0l-2.9,0c-4.9-14.4-15.5-25.9-29.7-31.8c-27-11.2-58,1.6-69.2,28.6c-1.9,4.6,0.3,9.9,4.9,11.8   c4.6,1.9,9.9-0.3,11.8-4.9c3.6-8.6,10.3-15.3,18.8-18.8c8.6-3.6,18-3.5,26.6,0c7.2,3,13,8.2,16.8,14.8l-1.2,0c-3.3,0-5.5,3.5-4,6.5   c0,0,0.1,0.1,0.1,0.1l11.7,20.8l7.7,0.1l12.2-20.5C452.8,139.3,450.9,135.6,447.5,135.5z"/><path d="M437,186.7c-4.6-1.9-9.9,0.3-11.8,4.9c-7.4,17.7-27.7,26.1-45.5,18.8c-7.2-3-13-8.2-16.8-14.8l1.2,0c3.3,0,5.5-3.5,4-6.5   c0,0-0.1-0.1-0.1-0.1l-11.7-20.8l-7.7-0.1l-12.2,20.5c-1.7,2.9,0.3,6.6,3.6,6.7c0,0,0.1,0,0.1,0l2.9,0   c4.9,14.4,15.5,25.9,29.7,31.8c6.6,2.7,13.5,4,20.2,4c20.7,0,40.5-12.3,48.9-32.6C443.8,193.9,441.6,188.6,437,186.7z"/></g></svg>