<?xml version="1.0" ?><!DOCTYPE svg  PUBLIC '-//W3C//DTD SVG 1.1//EN'  'http://www.w3.org/Graphics/SVG/1.1/DTD/svg11.dtd'><svg enable-background="new 0 0 512 512" id="Layer_1" version="1.1" viewBox="0 0 512 512" xml:space="preserve" xmlns="http://www.w3.org/2000/svg" xmlns:xlink="http://www.w3.org/1999/xlink"><g><path d="M413.6,109.2C413.6,109.2,413.6,109.2,413.6,109.2l0-2.7c0-25.6-20.8-46.4-46.4-46.4H144.8c-25.6,0-46.4,20.8-46.4,46.4   v2.7H413.6z M351.6,81.8c3.4-3.4,9.5-3.4,12.8,0c1.7,1.7,2.7,4,2.7,6.4c0,2.4-1,4.7-2.6,6.4c-1.7,1.7-4,2.7-6.4,2.7   c-2.4,0-4.7-1-6.4-2.7c-1.7-1.7-2.7-4-2.7-6.4C349,85.9,349.9,83.6,351.6,81.8z"/><path d="M413.6,402.8H98.3v2.7c0,25.6,20.8,46.4,46.4,46.4h222.4c25.6,0,46.4-20.8,46.4-46.4L413.6,402.8   C413.6,402.8,413.6,402.8,413.6,402.8z M262.4,424.9c-1.7,1.7-4,2.7-6.4,2.7c-2.4,0-4.7-1-6.4-2.7c-1.7-1.7-2.6-4-2.6-6.4   c0-2.4,1-4.7,2.6-6.4c3.4-3.4,9.5-3.4,12.8,0c1.7,1.7,2.7,4,2.7,6.4C265.1,420.9,264.1,423.2,262.4,424.9z"/><path d="M413.7,384.7V127.3c0,0,0,0,0,0H98.3v257.3L413.7,384.7C413.6,384.7,413.6,384.7,413.7,384.7z M183,317.9   c-5,0-9.1-4.1-9.1-9.1c0-74.4,60.5-135,135-135c5,0,9.1,4.1,9.1,9.1s-4.1,9.1-9.1,9.1C244.5,192,192,244.5,192,308.9   C192,313.9,188,317.9,183,317.9z M217,317.9c-5,0-9.1-4.1-9.1-9.1c0-55.7,45.3-101,101-101c5,0,9.1,4.1,9.1,9.1s-4.1,9.1-9.1,9.1   c-45.7,0-82.8,37.2-82.8,82.8C226,313.9,222,317.9,217,317.9z M263.8,308.9c0,5-4.1,9.1-9.1,9.1s-9.1-4.1-9.1-9.1   c0-34.8,28.4-63.2,63.2-63.2c5,0,9.1,4.1,9.1,9.1s-4.1,9.1-9.1,9.1C284,263.8,263.8,284,263.8,308.9z M308.9,329   c-11.1,0-20.1-9-20.1-20.1s9-20.1,20.1-20.1s20.1,9,20.1,20.1S320,329,308.9,329z"/></g></svg>