<?xml version="1.0" ?><!DOCTYPE svg  PUBLIC '-//W3C//DTD SVG 1.1//EN'  'http://www.w3.org/Graphics/SVG/1.1/DTD/svg11.dtd'><svg enable-background="new 0 0 512 512" id="Layer_1" version="1.1" viewBox="0 0 512 512" xml:space="preserve" xmlns="http://www.w3.org/2000/svg" xmlns:xlink="http://www.w3.org/1999/xlink"><path d="M442.5,385.5c-29.6,0-44.1-4.7-59.4-9.7c-16-5.2-32.5-10.6-65-10.6c-15.2,0-26.8,1.2-36.6,3c15.3-33.2,40.9-63.7,55.1-79.3  l10.2-10.7c16.4-18,26.3-41.9,26.3-68.2c0-54-42.1-98.1-95.2-101.5c-0.4-0.1-0.8-0.1-1.3-0.1l-1.4,0.1  c-53.2,3.3-95.2,47.5-95.2,101.5c0,26.3,9.9,50.2,26.2,68.2l10.2,10.7c14.4,15.9,40.8,47.3,55.9,81.2c-7.1,1.7-13.3,3.8-19.4,5.7  c-15.3,5-29.7,9.7-59.4,9.7c-29.6,0-44.1-4.7-59.3-9.7c-16-5.2-32.5-10.6-65-10.6c-5,0-9.1,4.1-9.1,9.1c0,5,4.1,9.1,9.1,9.1  c29.6,0,44.1,4.7,59.3,9.7c16,5.2,32.5,10.6,65,10.6c32.5,0,49-5.4,65-10.6c15.3-5,29.7-9.7,59.4-9.7c29.6,0,44.1,4.7,59.4,9.7  c16,5.2,32.5,10.6,65,10.6c5,0,9.1-4.1,9.1-9.1C451.6,389.6,447.5,385.5,442.5,385.5z M229.5,214.3c0-25.5,20.7-46.2,46.2-46.2  c25.5,0,46.2,20.7,46.2,46.2c0,25.5-20.7,46.2-46.2,46.2C250.1,260.5,229.5,239.8,229.5,214.3z"/></svg>