<?xml version="1.0" ?><!DOCTYPE svg  PUBLIC '-//W3C//DTD SVG 1.1//EN'  'http://www.w3.org/Graphics/SVG/1.1/DTD/svg11.dtd'><svg enable-background="new 0 0 512 512" id="Layer_1" version="1.1" viewBox="0 0 512 512" xml:space="preserve" xmlns="http://www.w3.org/2000/svg" xmlns:xlink="http://www.w3.org/1999/xlink"><g><polygon points="252.6,333.2 252.6,333.2 292.7,360.6 254.9,280 252.6,275.2 250.3,280 212.5,360.6  "/><path d="M384.3,99V413h49.5V99H384.3z M410.4,322.6c-1.7,1.7-4,2.7-6.4,2.7c-2.4,0-4.7-1-6.4-2.7c-1.7-1.7-2.6-4-2.6-6.4   c0-2.4,1-4.7,2.6-6.4c3.4-3.4,9.5-3.4,12.8,0c1.7,1.7,2.7,4.1,2.7,6.4S412,320.9,410.4,322.6z M410.4,282.5c-1.7,1.7-4,2.7-6.4,2.7   c-2.4,0-4.8-1-6.4-2.7c-1.7-1.7-2.6-4-2.6-6.4s1-4.7,2.6-6.4c3.4-3.4,9.5-3.4,12.8,0c1.7,1.7,2.7,4,2.7,6.4S412,280.8,410.4,282.5z    M410.4,242.3c-1.7,1.7-4,2.7-6.4,2.7c-2.4,0-4.7-1-6.4-2.6c-1.7-1.7-2.6-4-2.6-6.4c0-2.4,1-4.7,2.6-6.4c3.4-3.4,9.5-3.4,12.8,0   c1.7,1.7,2.7,4,2.7,6.4C413,238.3,412,240.6,410.4,242.3z M410.4,202.2c-1.7,1.7-4,2.7-6.4,2.7c-2.4,0-4.7-1-6.4-2.6   c-1.7-1.7-2.6-4-2.6-6.4c0-2.4,1-4.7,2.6-6.4c3.4-3.4,9.5-3.4,12.8,0c1.7,1.7,2.7,4,2.7,6.4C413,198.2,412,200.5,410.4,202.2z"/><path d="M78.2,413h288V99h-288V413z M335,312h-62.6l25.9,55.2L252.6,336l-45.7,31.2l25.9-55.2h-16.5c0,0,0,0,0,0v-64L335,234.7V312   z M289.4,151.4H335v65.1c-0.4,0-0.7,0-1,0l-44.6,5V151.4z M180.1,151.4h91.2v72.2l-91.2,10.2V151.4z M118.5,151.4H162v84.4   l-43.5,4.8V151.4z M118.5,258.9c0.3,0,0.7,0,1,0l78.8-8.8v61.9c0,0,0,0,0,0h-79.8V258.9z"/></g></svg>