<?xml version="1.0" ?><!DOCTYPE svg  PUBLIC '-//W3C//DTD SVG 1.1//EN'  'http://www.w3.org/Graphics/SVG/1.1/DTD/svg11.dtd'><svg height="512px" style="shape-rendering:geometricPrecision; text-rendering:geometricPrecision; image-rendering:optimizeQuality; fill-rule:evenodd; clip-rule:evenodd" version="1.1" viewBox="0 0 512 512" width="512px" xml:space="preserve" xmlns="http://www.w3.org/2000/svg" xmlns:xlink="http://www.w3.org/1999/xlink"><defs><style type="text/css">
   <![CDATA[
    .fil2 {fill:#FEFEFE}
    .fil0 {fill:#AFD485}
    .fil1 {fill:#5D924B}
   ]]>
  </style></defs><g id="Layer_x0020_1"><g id="_309021845120"><path class="fil0" d="M16 257c0,-7 -2,-17 -14,-21 25,-9 28,-39 9,-55 23,-6 29,-22 18,-47 28,2 37,-12 29,-39 26,2 38,-11 34,-38 27,9 41,0 43,-27 25,12 40,6 47,-19 22,17 38,14 49,-11 6,12 14,17 26,17l0 241 -241 -1z"/><path class="fil1" d="M496 257c-1,-10 2,-17 14,-21 -25,-9 -28,-39 -9,-55 -23,-6 -29,-22 -18,-47 -28,2 -37,-12 -29,-39 -26,2 -38,-11 -34,-38 -27,9 -41,0 -43,-27 -25,12 -40,6 -47,-19 -22,17 -38,14 -49,-11 -6,12 -14,17 -26,17l0 241 241 -1z"/><path class="fil1" d="M16 257c1,6 -2,15 -14,19 25,9 28,39 9,55 23,6 29,22 18,47 28,-2 37,12 29,39 26,-2 38,11 34,38 27,-9 41,0 43,27 25,-12 40,-6 47,19 22,-17 38,-14 49,11 6,-12 14,-17 26,-17l0 -237 -241 -1z"/><path class="fil0" d="M496 257c-1,6 2,15 14,19 -25,9 -28,39 -9,55 -23,6 -29,22 -18,47 -28,-2 -37,12 -29,39 -26,-2 -38,11 -34,38 -27,-9 -41,0 -43,27 -25,-12 -40,-6 -47,19 -22,-17 -38,-14 -49,11 -6,-12 -14,-17 -26,-17l2 -237 239 -1z"/><path class="fil2" d="M405 116c-93,-127 -331,-76 -351,105 26,-155 247,-224 351,-105z"/><path class="fil2" d="M104 395c92,126 330,76 351,-105 -27,155 -248,224 -351,105z"/><g><path class="fil2" d="M181 202c-25,33 -26,77 -6,110 19,-49 42,-104 71,-153 -27,12 -52,26 -65,43z"/><path class="fil2" d="M358 159c-61,44 -114,111 -156,181 -2,-1 31,15 51,15 27,0 54,-12 72,-35 36,-47 33,-176 33,-161z"/></g></g></g></svg>