<?xml version="1.0" ?><!DOCTYPE svg  PUBLIC '-//W3C//DTD SVG 1.1//EN'  'http://www.w3.org/Graphics/SVG/1.1/DTD/svg11.dtd'><svg height="512px" style="shape-rendering:geometricPrecision; text-rendering:geometricPrecision; image-rendering:optimizeQuality; fill-rule:evenodd; clip-rule:evenodd" version="1.1" viewBox="0 0 512 512" width="512px" xml:space="preserve" xmlns="http://www.w3.org/2000/svg" xmlns:xlink="http://www.w3.org/1999/xlink"><defs><style type="text/css">
   <![CDATA[
    .fil2 {fill:#FEFEFE}
    .fil0 {fill:#4FA6DC}
    .fil1 {fill:#2C79AB}
   ]]>
  </style></defs><g id="Layer_x0020_1"><g id="_307557607728"><path class="fil0" d="M16 257c0,-7 -2,-17 -14,-21 25,-9 28,-39 9,-55 23,-6 29,-22 18,-47 28,2 37,-12 29,-39 26,2 38,-11 34,-38 27,9 41,0 43,-27 25,12 40,6 47,-19 22,17 38,14 49,-11 6,12 14,17 26,17l0 241 -241 -1z"/><path class="fil1" d="M496 257c-1,-10 2,-17 14,-21 -25,-9 -28,-39 -9,-55 -23,-6 -29,-22 -18,-47 -28,2 -37,-12 -29,-39 -26,2 -38,-11 -34,-38 -27,9 -41,0 -43,-27 -25,12 -40,6 -47,-19 -22,17 -38,14 -49,-11 -6,12 -14,17 -26,17l0 241 241 -1z"/><path class="fil1" d="M16 257c1,6 -2,15 -14,19 25,9 28,39 9,55 23,6 29,22 18,47 28,-2 37,12 29,39 26,-2 38,11 34,38 27,-9 41,0 43,27 25,-12 40,-6 47,19 22,-17 38,-14 49,11 6,-12 14,-17 26,-17l0 -237 -241 -1z"/><path class="fil0" d="M496 257c-1,6 2,15 14,19 -25,9 -28,39 -9,55 -23,6 -29,22 -18,47 -28,-2 -37,12 -29,39 -26,-2 -38,11 -34,38 -27,-9 -41,0 -43,27 -25,-12 -40,-6 -47,19 -22,-17 -38,-14 -49,11 -6,-12 -14,-17 -26,-17l2 -237 239 -1z"/><path class="fil2" d="M405 116c-93,-127 -331,-76 -351,105 26,-155 247,-224 351,-105z"/><path class="fil2" d="M104 395c92,126 330,76 351,-105 -27,155 -248,224 -351,105z"/><path class="fil2" d="M342 258c0,-47 -38,-85 -86,-85 -4,0 -8,0 -13,1 -8,-8 -19,-12 -31,-12 -27,0 -49,22 -49,49 0,11 4,21 10,29 -2,6 -2,12 -2,18 0,48 38,86 85,86 6,0 12,-1 18,-2 9,8 20,12 32,12 27,0 49,-22 49,-49 0,-13 -5,-25 -14,-34 1,-4 1,-8 1,-13zm-46 38c-3,4 -8,8 -14,11 -7,3 -15,4 -24,4 -10,0 -19,-2 -26,-6 -5,-2 -9,-6 -12,-10 -3,-5 -5,-9 -5,-13 0,-3 1,-5 3,-7 2,-1 4,-2 7,-2 3,0 4,0 6,2 2,1 3,3 4,6 2,3 3,6 5,8 1,2 4,4 6,5 3,1 7,2 12,2 6,0 12,-1 16,-4 4,-3 6,-6 6,-10 0,-4 -1,-6 -3,-9 -3,-2 -6,-3 -9,-4 -3,-1 -8,-2 -14,-4 -8,-1 -14,-3 -19,-6 -6,-2 -10,-5 -13,-9 -3,-4 -5,-8 -5,-14 0,-6 2,-11 5,-15 4,-4 8,-7 14,-10 7,-2 14,-3 22,-3 7,0 13,1 17,2 5,2 9,4 12,6 4,3 6,5 7,8 2,3 3,6 3,8 0,3 -1,5 -3,7 -2,2 -4,3 -7,3 -2,0 -4,-1 -6,-2 -1,-1 -2,-3 -4,-6 -2,-3 -4,-6 -7,-9 -3,-2 -7,-3 -13,-3 -6,0 -11,1 -14,4 -4,2 -5,5 -5,8 0,2 0,4 2,5 1,2 2,3 4,4 2,1 5,2 7,2 2,1 5,2 10,3 6,1 12,3 17,4 5,2 9,4 12,6 4,2 7,5 9,9 1,3 2,7 2,12 0,6 -1,12 -5,17z"/></g></g></svg>