<?xml version="1.0" ?><!DOCTYPE svg  PUBLIC '-//W3C//DTD SVG 1.1//EN'  'http://www.w3.org/Graphics/SVG/1.1/DTD/svg11.dtd'><svg enable-background="new 0 0 100 100" height="100px" id="Layer_1" version="1.1" viewBox="0 0 100 100" width="100px" xml:space="preserve" xmlns="http://www.w3.org/2000/svg" xmlns:xlink="http://www.w3.org/1999/xlink"><g><path d="M76.244,16h-7.025c-0.459-2.093-2.322-3.667-4.553-3.667h-8.225c0.035-0.273,0.059-0.55,0.059-0.833   C56.5,7.916,53.584,5,50,5s-6.5,2.916-6.5,6.5c0,0.283,0.025,0.56,0.061,0.833h-8.229c-2.229,0-4.092,1.573-4.551,3.667h-6.891   c-2.447,0-4.225,1.663-4.225,3.954V90.5c0,2.439,1.936,4.5,4.225,4.5h52.354c2.254,0,4.09-2.019,4.09-4.5V19.954   C80.334,17.626,78.652,16,76.244,16z M50,7c2.482,0,4.5,2.019,4.5,4.5c0,0.286-0.033,0.562-0.084,0.833   c-0.066,0.35-0.174,0.684-0.314,1c-0.164,0.365-0.385,0.694-0.635,1C52.641,15.342,51.402,16,50,16s-2.641-0.658-3.467-1.667   c-0.25-0.306-0.469-0.635-0.633-1c-0.143-0.316-0.25-0.65-0.316-1C45.533,12.062,45.5,11.786,45.5,11.5C45.5,9.019,47.52,7,50,7z    M32.666,21.667v-2V18v-1c0-0.354,0.074-0.69,0.199-1c0.396-0.976,1.352-1.667,2.467-1.667h8.828   c0.299,0.616,0.691,1.178,1.16,1.667c1.184,1.23,2.842,2,4.68,2s3.496-0.77,4.68-2c0.471-0.489,0.861-1.051,1.162-1.667h8.824   c1.117,0,2.072,0.691,2.469,1.667c0.125,0.31,0.199,0.646,0.199,1v1v1.667v2v1.667H32.666V21.667z M69.334,25.333v-3.667h5.332   v67.667H25.334V21.667h5.332v3.667H69.334z M78.334,90.5c0,1.203-0.799,2.5-2.09,2.5H23.891c-1.184,0-2.225-1.168-2.225-2.5V19.954   c0-1.35,1.117-1.954,2.225-1.954h6.775v1.667h-7.332v71.667h53.332V19.667h-7.332V18h6.91c1.289,0,2.09,0.749,2.09,1.954V90.5z"/><rect height="2" width="44" x="28" y="67.333"/><rect height="2" width="44" x="28" y="74.667"/><rect height="2" width="44" x="28" y="82"/><path d="M40.867,59.12c1.324,0.976,2.77,1.678,4.336,2.107c1.568,0.43,3.07,0.645,4.512,0.645c2.299,0,4.516-0.458,6.652-1.375   c2.137-0.918,4.158-2.317,6.062-4.198l-1.115-1.394c-1.857,1.765-3.773,3.048-5.748,3.85c-1.975,0.801-3.959,1.202-5.957,1.202   c-1.254,0-2.549-0.18-3.883-0.54c-1.336-0.36-2.555-0.958-3.658-1.794c-1.104-0.836-2.016-1.927-2.734-3.274   c-0.719-1.346-1.08-3.008-1.08-4.982c0-1.974,0.371-3.853,1.115-5.642c0.742-1.789,1.754-3.35,3.031-4.685s2.746-2.397,4.406-3.187   c1.658-0.791,3.418-1.186,5.277-1.186c1.393,0,2.623,0.198,3.691,0.593c1.068,0.395,1.969,0.958,2.699,1.689   c0.732,0.731,1.283,1.603,1.656,2.613c0.369,1.01,0.555,2.119,0.555,3.326c0,1.37-0.186,2.671-0.555,3.901   c-0.373,1.231-0.826,2.312-1.359,3.239c-0.535,0.929-1.109,1.666-1.725,2.212c-0.615,0.545-1.166,0.818-1.654,0.818   c-0.186,0-0.406-0.098-0.662-0.296c-0.256-0.196-0.383-0.597-0.383-1.202c0-0.277,0.018-0.575,0.053-0.888   c0.035-0.314,0.086-0.69,0.156-1.132c0.07-0.44,0.168-0.981,0.297-1.62c0.127-0.639,0.283-1.434,0.469-2.386l1.15-5.226h-2.369   l-0.523,2.16c-0.092-0.208-0.225-0.481-0.398-0.818c-0.176-0.337-0.414-0.662-0.715-0.976c-0.303-0.313-0.686-0.58-1.15-0.801   c-0.465-0.22-1.045-0.331-1.742-0.331c-0.975,0-1.904,0.273-2.785,0.818c-0.885,0.545-1.666,1.277-2.352,2.195   s-1.225,1.974-1.619,3.17c-0.396,1.196-0.592,2.456-0.592,3.78c0,0.998,0.133,1.852,0.398,2.56   c0.268,0.708,0.615,1.283,1.045,1.724c0.43,0.441,0.918,0.766,1.465,0.975c0.545,0.209,1.084,0.313,1.619,0.313   c0.604,0,1.154-0.091,1.654-0.277c0.498-0.187,0.959-0.419,1.377-0.697c0.416-0.279,0.787-0.592,1.113-0.941   c0.326-0.347,0.615-0.684,0.871-1.01c0.021,0.186,0.047,0.4,0.07,0.645c0.021,0.244,0.088,0.495,0.191,0.749   c0.104,0.255,0.256,0.494,0.453,0.713c0.197,0.221,0.471,0.413,0.818,0.576c0.439,0.186,0.906,0.279,1.393,0.279   c0.883,0,1.857-0.343,2.926-1.028c1.068-0.685,2.045-1.771,2.928-3.257c0.418-0.697,0.766-1.422,1.043-2.177   c0.279-0.755,0.5-1.481,0.662-2.177c0.164-0.697,0.279-1.359,0.348-1.985c0.07-0.628,0.105-1.173,0.105-1.638   c0-1.509-0.242-2.884-0.732-4.126c-0.486-1.243-1.178-2.305-2.07-3.188c-0.895-0.881-1.975-1.567-3.24-2.054   c-1.266-0.49-2.689-0.732-4.268-0.732c-1.602,0-3.111,0.215-4.527,0.645c-1.418,0.43-2.723,1.028-3.92,1.793   c-1.195,0.766-2.264,1.672-3.205,2.717c-0.939,1.044-1.74,2.183-2.402,3.413c-0.662,1.232-1.168,2.526-1.516,3.884   c-0.35,1.359-0.521,2.735-0.521,4.127c0,2.346,0.43,4.321,1.289,5.923C38.451,56.857,39.543,58.146,40.867,59.12z M52.293,48.271   c-0.279,0.894-0.65,1.683-1.115,2.369c-0.465,0.685-0.998,1.224-1.604,1.62c-0.602,0.395-1.23,0.591-1.881,0.591   c-0.186,0-0.43-0.033-0.73-0.104c-0.303-0.07-0.598-0.227-0.889-0.471c-0.291-0.244-0.545-0.603-0.766-1.079   c-0.221-0.477-0.332-1.108-0.332-1.898c0-0.813,0.117-1.667,0.35-2.561c0.23-0.895,0.557-1.708,0.975-2.438   c0.418-0.732,0.928-1.336,1.533-1.812c0.604-0.476,1.275-0.713,2.02-0.713c0.326,0,0.662,0.069,1.01,0.208   c0.35,0.14,0.662,0.355,0.941,0.645c0.279,0.29,0.506,0.673,0.68,1.149s0.26,1.039,0.26,1.689   C52.721,46.44,52.57,47.376,52.293,48.271z"/></g></svg>