<?xml version="1.0" ?><!DOCTYPE svg  PUBLIC '-//W3C//DTD SVG 1.1//EN'  'http://www.w3.org/Graphics/SVG/1.1/DTD/svg11.dtd'><svg height="512px" style="enable-background:new 0 0 512 512;" version="1.1" viewBox="0 0 512 512" width="512px" xml:space="preserve" xmlns="http://www.w3.org/2000/svg" xmlns:xlink="http://www.w3.org/1999/xlink"><g id="file__x2C__type__x2C__document__x2C__format__x2C__computer__x2C___pdf__x2C_"><g><g><polygon points="111.072,26.469 353.08,26.469 424.602,98.844      424.602,448.875 111.072,448.875    " style="fill-rule:evenodd;clip-rule:evenodd;fill:#FFFFFF;"/><path d="M424.602,455.736H111.072c-3.79,0-6.859-3.07-6.859-6.861V26.469c0-3.791,3.069-6.86,6.859-6.86     H353.08c1.831,0,3.593,0.734,4.877,2.037l71.526,72.375c1.267,1.285,1.982,3.02,1.982,4.823v350.031     C431.466,452.666,428.392,455.736,424.602,455.736z M117.933,442.016h299.813V101.662l-67.534-68.333H117.933V442.016z" style="fill:#5D84C3;"/></g><g><rect height="105.599" style="fill-rule:evenodd;clip-rule:evenodd;fill:#5D84C3;" width="313.532" x="133.981" y="178.616"/></g><g><path d="M217.359,259.467h-11.056v-9.819h11.056V259.467z M239.869,239.153v20.313H228.68v-56.1h22.11     c6.394,0,11.322,1.753,15.048,4.983c3.597,3.226,5.46,7.663,5.46,12.912c0,5.378-1.863,9.682-5.46,12.913     c-3.727,3.368-8.654,4.979-15.048,4.979H239.869z M239.869,230.412h10.921c3.063,0,5.46-0.808,7.059-2.561     c1.6-1.615,2.397-3.763,2.397-6.452c0-2.693-0.798-4.983-2.397-6.727c-1.599-1.753-3.996-2.561-7.059-2.561h-10.921V230.412z      M279.429,259.467v-56.1h19.043c6.791,0,12.389,2.29,16.785,6.598c4.396,4.433,6.657,9.948,6.657,16.813v9.283     c0,6.86-2.262,12.513-6.657,16.817c-4.396,4.437-9.994,6.589-16.785,6.589H279.429z M290.616,212.113v38.608h7.323     c3.996,0,7.057-1.34,9.323-4.033c2.268-2.693,3.46-6.19,3.46-10.627v-9.283c0-4.442-1.192-7.938-3.46-10.627     c-2.267-2.689-5.327-4.038-9.323-4.038H290.616z M364.932,236.193H341.76v23.273h-11.187v-56.1h38.223v8.746H341.76v15.473     h23.172V236.193z" style="fill:#FFFFFF;"/></g><g><path d="M267.416,147.446c-0.036,0-0.073,0-0.11,0c-13.931-0.027-26.04-5.089-32.391-13.541     c-2.275-3.028-1.666-7.328,1.365-9.604c3.028-2.285,7.328-1.666,9.606,1.363c3.721,4.956,11.939,8.043,21.446,8.062     c0.028,0,0.056,0,0.083,0c9.737,0,18.726-3.244,22.393-8.085c2.284-3.02,6.589-3.611,9.608-1.326     c3.019,2.285,3.615,6.589,1.33,9.613C294.425,142.271,281.663,147.446,267.416,147.446z" style="fill:#5D84C3;"/></g><g><path d="M147.969,234.308c-0.025,0-0.051,0-0.078,0c-41.673-0.454-66.399-11.334-73.486-32.34     c-9.229-27.366,17.023-62.753,32.453-74.771c2.992-2.322,7.303-1.79,9.627,1.197c2.329,2.992,1.792,7.3-1.198,9.631     c-13.259,10.324-34.518,39.875-27.88,59.555c6.254,18.538,36.426,22.741,60.635,23.007c3.788,0.041,6.826,3.147,6.784,6.933     C154.785,231.284,151.723,234.308,147.969,234.308z" style="fill:#5D84C3;"/></g><g><polygon points="353.08,98.844 424.602,98.844 353.08,26.469    " style="fill-rule:evenodd;clip-rule:evenodd;fill:#D6E3F4;"/><path d="M424.602,105.704H353.08c-3.79,0-6.86-3.069-6.86-6.86V26.469c0-2.781,1.68-5.291,4.254-6.346     c2.574-1.06,5.529-0.454,7.483,1.523l71.526,72.375c1.946,1.969,2.515,4.915,1.45,7.466     C429.869,104.043,427.373,105.704,424.602,105.704z M359.939,91.984h48.239l-48.239-48.813V91.984z" style="fill:#5D84C3;"/></g><g><path d="M243.34,494.393c-0.376,0-0.757-0.027-1.143-0.092l-22.509-3.766     c-3.306-0.557-5.727-3.414-5.727-6.77v-34.891c0-3.789,3.069-6.859,6.859-6.859c3.791,0,6.86,3.07,6.86,6.859v29.082     l16.782,2.809c3.738,0.629,6.259,4.162,5.633,7.9C249.537,492.021,246.63,494.393,243.34,494.393z" style="fill:#5D84C3;"/></g><g><path d="M329.251,494.393c-0.376,0-0.762-0.027-1.146-0.092l-22.507-3.766     c-3.309-0.557-5.727-3.414-5.727-6.77v-34.891c0-3.789,3.069-6.859,6.859-6.859s6.86,3.07,6.86,6.859v29.082l16.78,2.809     c3.739,0.629,6.259,4.162,5.635,7.9C335.446,492.021,332.537,494.393,329.251,494.393z" style="fill:#5D84C3;"/></g><g><path d="M294.874,66.155c6.259-1.748,13.188,0.941,16.519,6.86     c4.13,7.13,1.73,16.142-5.332,20.313c-7.057,4.033-15.978,1.615-19.979-5.516c-3.193-5.516-2.396-12.375,1.469-16.95     c1.331,1.886,3.726,2.418,5.727,1.211C295.277,70.863,296.076,68.308,294.874,66.155L294.874,66.155z" style="fill-rule:evenodd;clip-rule:evenodd;fill:#5D84C3;"/></g><g><path d="M232.809,66.155c6.259-1.748,13.185,0.941,16.65,6.86     c3.994,7.13,1.597,16.142-5.463,20.313c-6.924,4.033-15.982,1.615-19.979-5.516c-3.196-5.516-2.397-12.375,1.466-16.95     c1.331,1.886,3.861,2.418,5.727,1.211C233.341,70.863,234.007,68.308,232.809,66.155L232.809,66.155z" style="fill-rule:evenodd;clip-rule:evenodd;fill:#5D84C3;"/></g><g><path d="M317.651,375.693c-4.662,0-10.521,0.541-17.445,1.885c-9.462-10.227-19.318-25.158-26.375-39.686     c6.929-29.596,3.464-33.764,2-35.648c-1.734-2.152-3.996-5.516-6.662-5.516c-1.064,0-3.992,0.537-5.194,0.807     c-3.063,1.08-4.66,3.365-5.859,6.457c-3.729,8.607,1.333,23.41,6.527,34.846c-4.529,17.758-11.855,39.012-19.713,56.365     c-19.712,9.145-30.101,18.023-31.035,26.5c-0.399,3.096,0.399,7.666,5.729,11.838c1.464,1.078,3.196,1.748,5.061,1.748     c4.527,0,9.056-3.635,14.383-11.168c3.997-5.379,8.126-12.912,12.387-22.191c13.989-6.193,31.167-11.709,45.819-14.803     c8.255,7.939,15.583,11.977,21.975,11.977c4.662,0,8.526-2.156,11.453-6.322c3.065-4.172,3.735-8.076,2.001-11.303     C330.701,377.578,325.773,375.693,317.651,375.693L317.651,375.693z M224.818,426.41c-2.397-1.887-2.265-3.227-2.265-3.629     c0.266-2.965,4.795-8.076,15.982-14.4C230.013,424.121,225.617,426.139,224.818,426.41L224.818,426.41z M267.306,306.148     c0.267,0,5.461,5.781,0.532,16.951C260.513,315.428,266.907,306.414,267.306,306.148L267.306,306.148z M256.649,390.221     c5.197-12.643,10.125-26.633,13.85-39.682c5.865,10.627,12.922,20.85,19.851,29.055     C279.291,382.287,267.438,385.916,256.649,390.221L256.649,390.221z M323.645,387.67c-1.597,2.283-5.062,2.283-6.259,2.283     c-2.799,0-3.864-1.613-8.122-4.844c3.593-0.533,6.791-0.67,9.452-0.67c4.662,0,5.461,0.807,6.131,1.072     C324.709,385.916,324.442,386.59,323.645,387.67L323.645,387.67z" style="fill:#5D84C3;"/></g></g></g><g id="Layer_1"/></svg>