<?xml version="1.0" ?><!DOCTYPE svg  PUBLIC '-//W3C//DTD SVG 1.1//EN'  'http://www.w3.org/Graphics/SVG/1.1/DTD/svg11.dtd'><svg height="512px" style="enable-background:new 0 0 512 512;" version="1.1" viewBox="0 0 512 512" width="512px" xml:space="preserve" xmlns="http://www.w3.org/2000/svg" xmlns:xlink="http://www.w3.org/1999/xlink"><g id="file__x2C__type__x2C__document__x2C__format__x2C__computer__x2C___ai__x2C__illustrator__x2C_"><g><g><polygon points="111.072,26.466 353.08,26.466 424.602,98.846      424.602,448.881 111.072,448.881    " style="fill-rule:evenodd;clip-rule:evenodd;fill:#FFFFFF;"/><path d="M424.602,455.74h-313.53c-3.79,0-6.859-3.07-6.859-6.859V26.466c0-3.79,3.069-6.86,6.859-6.86     H353.08c1.831,0,3.593,0.734,4.877,2.038l71.526,72.38c1.267,1.285,1.982,3.019,1.982,4.822v350.035     C431.466,452.67,428.392,455.74,424.602,455.74z M117.932,442.02h299.814V101.664l-67.534-68.337h-232.28V442.02z" style="fill:#5D84C3;"/></g><g><rect height="105.607" style="fill-rule:evenodd;clip-rule:evenodd;fill:#5D84C3;" width="313.532" x="133.98" y="178.614"/></g><g><path d="M259.847,259.465h-11.189v-9.82h11.189V259.465z M300.866,247.359H281.42l-3.858,12.105H266.37     l19.052-55.963h11.453l18.913,55.963h-11.187L300.866,247.359z M284.086,238.751h13.986l-6.924-22.2h-0.138L284.086,238.751z      M332.835,259.465h-11.187v-55.963h11.187V259.465z" style="fill:#FFFFFF;"/></g><g><path d="M267.499,147.494c-14.012,0-26.19-5.08-32.584-13.591c-2.275-3.028-1.666-7.328,1.365-9.604     c3.028-2.285,7.328-1.666,9.606,1.363c3.76,5.006,12.038,8.112,21.613,8.112c0.004,0,0.009,0,0.018,0     c9.691-0.005,18.639-3.263,22.269-8.108c2.276-3.033,6.575-3.644,9.604-1.372c3.032,2.271,3.647,6.571,1.376,9.604     c-6.286,8.378-19.02,13.591-33.239,13.596C267.517,147.494,267.508,147.494,267.499,147.494z" style="fill:#5D84C3;"/></g><g><path d="M147.969,234.31c-0.025,0-0.051,0-0.078,0c-41.673-0.454-66.396-11.333-73.483-32.34     c-9.234-27.362,17.019-62.758,32.448-74.775c2.99-2.322,7.303-1.79,9.629,1.198c2.329,2.992,1.792,7.3-1.195,9.631     c-13.261,10.324-34.52,39.884-27.882,59.56c6.256,18.538,36.426,22.741,60.635,23.007c3.788,0.041,6.826,3.147,6.784,6.934     C154.785,231.286,151.722,234.31,147.969,234.31z" style="fill:#5D84C3;"/></g><g><polygon points="353.08,98.846 424.602,98.846 353.08,26.466    " style="fill-rule:evenodd;clip-rule:evenodd;fill:#D6E3F4;"/><path d="M424.602,105.706H353.08c-3.79,0-6.86-3.069-6.86-6.86v-72.38c0-2.781,1.68-5.291,4.254-6.346     c2.574-1.065,5.529-0.455,7.483,1.523l71.526,72.38c1.946,1.968,2.515,4.914,1.45,7.465     C429.869,104.045,427.373,105.706,424.602,105.706z M359.939,91.986h48.239l-48.239-48.817V91.986z" style="fill:#5D84C3;"/></g><g><path d="M243.339,494.398c-0.378,0-0.759-0.027-1.143-0.092l-22.509-3.771     c-3.306-0.557-5.727-3.42-5.727-6.77v-34.885c0-3.791,3.069-6.861,6.859-6.861c3.791,0,6.86,3.07,6.86,6.861v29.08l16.782,2.809     c3.738,0.629,6.259,4.166,5.633,7.902C249.534,492.025,246.629,494.398,243.339,494.398z" style="fill:#5D84C3;"/></g><g><path d="M329.251,494.398c-0.381,0-0.762-0.027-1.146-0.092l-22.507-3.771     c-3.309-0.557-5.727-3.42-5.727-6.77v-34.885c0-3.791,3.069-6.861,6.859-6.861s6.86,3.07,6.86,6.861v29.08l16.78,2.809     c3.739,0.629,6.259,4.166,5.635,7.902C335.446,492.025,332.537,494.398,329.251,494.398z" style="fill:#5D84C3;"/></g><g><path d="M294.874,66.157c6.259-1.615,13.188,0.937,16.519,6.993     c4.13,6.993,1.73,16.143-5.332,20.181c-7.057,4.033-15.978,1.615-19.979-5.383c-3.193-5.648-2.396-12.375,1.469-17.083     c1.331,1.881,3.726,2.423,5.727,1.34C295.277,70.999,296.076,68.305,294.874,66.157L294.874,66.157z" style="fill-rule:evenodd;clip-rule:evenodd;fill:#5D84C3;"/></g><g><path d="M232.809,66.157c6.259-1.615,13.185,0.937,16.65,6.993     c3.994,6.993,1.597,16.143-5.463,20.181c-6.924,4.033-15.982,1.615-19.979-5.383c-3.196-5.648-2.397-12.375,1.466-17.083     c1.331,1.881,3.861,2.423,5.727,1.34C233.341,70.999,234.006,68.305,232.809,66.157L232.809,66.157z" style="fill-rule:evenodd;clip-rule:evenodd;fill:#5D84C3;"/></g><g><path d="M360.803,354.035v-33.094h-32.896v11.031H295.14v-22.061h-54.606v22.061h-32.765v-11.031h-32.897     v33.094h32.897v-11.031h19.313c-24.907,14.531-41.157,41.838-41.157,71.838c0,2.965,2.397,5.516,5.327,5.516     c3.063,0,5.46-2.551,5.46-5.516c0-29.055,17.714-55.291,43.821-66.322v16.547h54.606V348.52     c26.109,11.031,43.821,37.268,43.821,66.322c0,2.965,2.399,5.516,5.46,5.516c2.933,0,5.461-2.551,5.461-5.516     c0-30-16.382-57.307-41.288-71.838h19.313v11.031H360.803z M196.713,343.004h-10.788v-11.031h10.788V343.004z M284.22,354.035     h-32.766v-33.094h32.766V354.035z M338.961,331.973h10.921v11.031h-10.921V331.973z" style="fill:#5D84C3;"/></g><g><rect height="33.094" style="fill-rule:evenodd;clip-rule:evenodd;fill:#D6E3F4;" width="32.766" x="251.454" y="320.941"/></g></g></g><g id="Layer_1"/></svg>