<?xml version="1.0" ?><!DOCTYPE svg  PUBLIC '-//W3C//DTD SVG 1.1//EN'  'http://www.w3.org/Graphics/SVG/1.1/DTD/svg11.dtd'><svg enable-background="new 0 0 512 512" height="512px" version="1.1" viewBox="0 0 512 512" width="512px" xml:space="preserve" xmlns="http://www.w3.org/2000/svg" xmlns:xlink="http://www.w3.org/1999/xlink"><g id="Ebene_3"/><g id="Ebene_1"><path d="M408,70V58c-33.5,0-59.151,8.666-76.242,25.757C314.666,100.849,306,126.5,306,160v26h-18h-24H158v-26   c0-60.561,29.439-90,90-90V58c-33.5,0-59.151,8.666-76.242,25.757C154.666,100.849,146,126.5,146,160v26h-42v12h42v250h12V198h106   h24h18v250h12V198h90v-12h-90v-26C318,99.439,347.439,70,408,70z"/></g><g id="Ebene_2"/></svg>