<?xml version="1.0" ?><svg id="Layer_1" style="enable-background:new 0 0 512 512;" version="1.1" viewBox="0 0 512 512" xml:space="preserve" xmlns="http://www.w3.org/2000/svg" xmlns:xlink="http://www.w3.org/1999/xlink"><style type="text/css">
	.st0{fill:#37759D;}
	.st1{fill:#215B7C;}
</style><g id="XMLID_1683_"><g id="XMLID_2596_"><g id="XMLID_2597_"><g id="XMLID_2607_"><path class="st0" d="M59.8,403.1l-0.7-0.7c3.9-3.6,8.3-6.5,13.1-8.8l0.4,0.9C67.9,396.7,63.6,399.6,59.8,403.1      z" id="XMLID_3082_"/></g><g id="XMLID_2608_"><path class="st0" d="M56.7,399.4l-0.4-0.9c3.2-1.6,6.2-3.4,9.1-5.4l0.5,0.8C63,395.9,59.9,397.8,56.7,399.4z" id="XMLID_3081_"/></g><g id="XMLID_2609_"><path class="st0" d="M51.9,395.2l-0.7-0.7c2.3-2.3,5-4.1,8-5.3l0.4,0.9C56.7,391.2,54,393,51.9,395.2z" id="XMLID_3080_"/></g><g id="XMLID_2610_"><path class="st0" d="M49.1,391.9l-0.8-0.6c3-3.8,6.9-6.6,11.4-8.3l0.3,0.9C55.7,385.5,51.9,388.2,49.1,391.9z" id="XMLID_3079_"/></g><g id="XMLID_2611_"><path class="st0" d="M47.1,387.1l-0.6-0.7c3.6-3.1,7.5-5.7,11.7-7.8l0.4,0.9C54.5,381.5,50.6,384.1,47.1,387.1      z" id="XMLID_3078_"/></g><g id="XMLID_2612_"><path class="st0" d="M41.3,376.4l-0.6-0.7c3.4-3,7-5.8,10.7-8.3l0.5,0.8C48.2,370.7,44.6,373.5,41.3,376.4z" id="XMLID_3077_"/></g><g id="XMLID_2613_"><path class="st0" d="M36.5,373l-0.7-0.7c3.6-3.4,7.5-6.5,11.7-9.2l0.5,0.8C43.9,366.6,40,369.6,36.5,373z" id="XMLID_3076_"/></g><g id="XMLID_2614_"><path class="st0" d="M35.6,368.1l-0.8-0.6c2.7-3.7,6.3-7,10.2-9.4l0.5,0.8C41.7,361.3,38.2,364.5,35.6,368.1z" id="XMLID_3075_"/></g><g id="XMLID_2615_"><path class="st0" d="M30.6,360.4l-0.7-0.6c3.9-4.5,8.6-8.2,13.8-11.1l0.5,0.8C39.1,352.3,34.5,356,30.6,360.4z      " id="XMLID_3074_"/></g><g id="XMLID_2616_"><path class="st0" d="M30.7,355.1l-0.7-0.6c2.9-3.5,6.3-6.6,10.2-9l0.5,0.8C36.9,348.7,33.5,351.6,30.7,355.1z" id="XMLID_3073_"/></g><g id="XMLID_2617_"><path class="st0" d="M28.2,347.8l-0.7-0.6c3.8-4.4,8.7-7.6,14.3-9.3l0.3,0.9C36.7,340.4,31.9,343.6,28.2,347.8      z" id="XMLID_3072_"/></g><g id="XMLID_2618_"><path class="st0" d="M42.9,379.5l-0.7-0.7c3.3-3.1,6.8-6,10.5-8.6l0.6,0.8C49.6,373.5,46.1,376.4,42.9,379.5z" id="XMLID_3071_"/></g><g id="XMLID_2619_"><path class="st0" d="M45.6,383.4c-0.4-0.2-0.6-0.5-0.7-0.9c-0.1-0.8,0.6-1.7,1.2-2.2c3.3-2.3,6.9-4.2,10.6-5.7      l0.3,0.9c-3.7,1.4-7.2,3.3-10.4,5.5c-0.5,0.3-0.9,0.9-0.8,1.3c0,0.1,0,0.1,0.1,0.1L45.6,383.4z" id="XMLID_3070_"/></g><g id="XMLID_2620_"><rect class="st0" height="13.7" id="XMLID_3069_" transform="matrix(0.4608 0.8875 -0.8875 0.4608 316.052 154.8898)" width="1" x="30.1" y="330.7"/></g><g id="XMLID_2621_"><path class="st0" d="M21.8,336.3l-0.4-0.9c5-2.2,9.9-4.8,14.5-7.7l0.5,0.8C31.7,331.5,26.8,334.1,21.8,336.3z" id="XMLID_3068_"/></g><g id="XMLID_2622_"><rect class="st0" height="12.6" id="XMLID_3067_" transform="matrix(0.5388 0.8424 -0.8424 0.5388 288.1585 126.751)" width="1" x="27.8" y="320.2"/></g><g id="XMLID_2623_"><path class="st0" d="M20.3,323.6l-0.5-0.8c3.3-2.3,7-4.1,10.8-5.3l0.3,0.9C27.2,319.6,23.6,321.3,20.3,323.6z" id="XMLID_3066_"/></g><g id="XMLID_2624_"><rect class="st0" height="15.2" id="XMLID_3065_" transform="matrix(0.4453 0.8954 -0.8954 0.4453 296.0511 154.2394)" width="1" x="23.1" y="308.5"/></g><g id="XMLID_2625_"><rect class="st0" height="15.8" id="XMLID_3064_" transform="matrix(0.4589 0.8885 -0.8885 0.4589 286.526 144.4183)" width="1" x="24.2" y="299.5"/></g><g id="XMLID_2626_"><rect class="st0" height="13.6" id="XMLID_3063_" transform="matrix(0.4413 0.8973 -0.8973 0.4413 280.5121 151.0375)" width="1" x="18.5" y="294"/></g><g id="XMLID_2627_"><rect class="st0" height="19.3" id="XMLID_3062_" transform="matrix(0.4236 0.9058 -0.9058 0.4236 277.0627 150.6391)" width="1" x="19.7" y="283.4"/></g><g id="XMLID_2628_"><path class="st0" d="M13.6,289.1l-0.6-0.7c4.4-3.9,9.4-6.9,14.8-9.1l0.4,0.9C22.7,282.3,17.9,285.3,13.6,289.1      z" id="XMLID_3061_"/></g><g id="XMLID_2629_"><path class="st0" d="M11.1,276.2l-0.5-0.9c5.4-2.9,11.2-5.4,17.1-7.2L28,269C22.2,270.9,16.5,273.3,11.1,276.2      z" id="XMLID_3060_"/></g><g id="XMLID_2630_"><rect class="st0" height="14.6" id="XMLID_3059_" transform="matrix(0.369 0.9294 -0.9294 0.369 256.5183 148.8343)" width="1" x="18.2" y="256.1"/></g><g id="XMLID_2631_"><rect class="st0" height="14.9" id="XMLID_3058_" transform="matrix(0.2266 0.974 -0.974 0.2266 262.6906 180.474)" width="1" x="17.2" y="248.2"/></g><g id="XMLID_2632_"><path class="st0" d="M13.4,248.6l-0.2-0.9c4.8-1,9.7-1.8,14.6-2.4l0.1,1C23.1,246.8,18.2,247.6,13.4,248.6z" id="XMLID_3057_"/></g><g id="XMLID_2633_"><rect class="st0" height="11.9" id="XMLID_3056_" transform="matrix(0.1972 0.9804 -0.9804 0.1972 249.7314 172.3432)" width="1" x="19.1" y="232.7"/></g><g id="XMLID_2634_"><path class="st0" d="M13.8,230.2l0-1c4.5-0.1,9.1-0.6,13.6-1.4l0.2,1C23.1,229.6,18.4,230.1,13.8,230.2z" id="XMLID_3055_"/></g><g id="XMLID_2635_"><path class="st0" d="M30.7,218.6c-5.1-0.5-10.3-0.5-15.4,0l-0.1-1c5.2-0.5,10.4-0.5,15.6,0L30.7,218.6z" id="XMLID_3054_"/></g><g id="XMLID_2636_"><rect class="st0" height="1" id="XMLID_3053_" width="11.6" x="19.2" y="207"/></g><g id="XMLID_2637_"><rect class="st0" height="1" id="XMLID_3052_" transform="matrix(0.99 0.1407 -0.1407 0.99 28.0074 -1.3784)" width="14.2" x="16.7" y="196.8"/></g><g id="XMLID_2638_"><rect class="st0" height="1" id="XMLID_3051_" transform="matrix(0.9637 0.2669 -0.2669 0.9637 52.0501 -0.6391)" width="9.1" x="23.9" y="190.7"/></g><g id="XMLID_2639_"><path class="st0" d="M35.4,184.2c-4.8-1.7-9.8-2.9-14.9-3.6l0.1-1c5.1,0.7,10.2,1.9,15.1,3.6L35.4,184.2z" id="XMLID_3050_"/></g><g id="XMLID_2640_"><rect class="st0" height="1" id="XMLID_3049_" transform="matrix(0.9604 0.2788 -0.2788 0.9604 49.4011 -2.4256)" width="14.1" x="26.2" y="172"/></g><g id="XMLID_2641_"><path class="st0" d="M38.7,165.7c-2.7-2.2-6.3-3.4-9.9-3.1l-0.1-1c3.8-0.3,7.6,0.9,10.5,3.3L38.7,165.7z" id="XMLID_3048_"/></g><g id="XMLID_2642_"><rect class="st0" height="1" id="XMLID_3047_" transform="matrix(0.9851 0.172 -0.172 0.9851 27.2669 -3.8506)" width="9.3" x="31.2" y="155"/></g><g id="XMLID_2643_"><path class="st0" d="M45.1,151.2c-2.6-1.3-5.3-2.3-8.1-2.9l0.2-0.9c2.9,0.7,5.7,1.7,8.3,3L45.1,151.2z" id="XMLID_3046_"/></g><g id="XMLID_2644_"><path class="st0" d="M48,145.5c-3.2-1.2-6.3-2.7-9.2-4.5l0.5-0.8c2.9,1.7,6,3.2,9.1,4.4L48,145.5z" id="XMLID_3045_"/></g><g id="XMLID_2645_"><path class="st0" d="M50.4,140.2c-2.5-1.1-4.8-2.7-6.8-4.6l0.7-0.7c1.9,1.9,4.1,3.3,6.6,4.4L50.4,140.2z" id="XMLID_3044_"/></g><g id="XMLID_2646_"><path class="st0" d="M55.2,138.4c-3.4-1.5-6.5-3.8-8.7-6.7l0.8-0.6c2.2,2.8,5.1,5.1,8.4,6.4L55.2,138.4z" id="XMLID_3043_"/></g><g id="XMLID_2647_"><rect class="st0" height="1" id="XMLID_3042_" transform="matrix(0.6616 0.7498 -0.7498 0.6616 113.1261 3.7991)" width="11" x="46.9" y="126.8"/></g><g id="XMLID_2648_"><rect class="st0" height="7.9" id="XMLID_3041_" transform="matrix(0.6093 0.7929 -0.7929 0.6093 346.7993 106.3938)" width="1" x="64.9" y="401.2"/></g><g id="XMLID_2649_"><path class="st0" d="M66.7,413.8l-0.7-0.6c4.4-5.4,8.9-10.3,15.2-11.6l0.2,1C75.4,403.7,71,408.6,66.7,413.8z" id="XMLID_3040_"/></g><g id="XMLID_2650_"><path class="st0" d="M73.2,413.3l-0.6-0.8c3.8-2.9,7.9-5.6,12.2-7.8l0.5,0.9C81.1,407.8,77,410.4,73.2,413.3z" id="XMLID_3039_"/></g><g id="XMLID_2651_"><rect class="st0" height="12.6" id="XMLID_3038_" transform="matrix(0.5466 0.8374 -0.8374 0.5466 382.9241 118.4359)" width="1" x="81.6" y="406.5"/></g><g id="XMLID_2652_"><path class="st0" d="M79.5,420.6l-0.6-0.8c4.1-3.1,8.5-5.7,13.1-7.9l0.4,0.9C87.9,414.9,83.6,417.5,79.5,420.6      z" id="XMLID_3037_"/></g><g id="XMLID_2653_"><path class="st0" d="M83.9,427.3l-0.6-0.8c4.2-3.4,8.8-6.3,13.6-8.8l0.4,0.9C92.6,421.1,88.1,424,83.9,427.3z" id="XMLID_3036_"/></g><g id="XMLID_2654_"><rect class="st0" height="13.7" id="XMLID_3035_" transform="matrix(0.5356 0.8445 -0.8445 0.5356 404.2052 115.428)" width="1" x="96.7" y="418.4"/></g><g id="XMLID_2655_"><path class="st0" d="M95.5,434.2c-0.2,0-0.4,0-0.6-0.1c-0.4-0.1-0.6-0.4-0.7-0.8l0.9-0.2      c0,0.1,0.1,0.1,0.1,0.1c0.3,0.1,1-0.1,1.4-0.4l12.3-8.4l0.5,0.8l-12.3,8.4C96.7,434,96.1,434.2,95.5,434.2z" id="XMLID_3034_"/></g><g id="XMLID_2656_"><path class="st0" d="M101,439.5c-0.1,0-0.2,0-0.3-0.1c-0.2-0.1-0.2-0.4-0.1-0.6l1.1-1.9l0.9,0.5l-0.1,0.1      l10.3-7.3l0.6,0.8l-12,8.5C101.1,439.5,101.1,439.5,101,439.5z" id="XMLID_3033_"/></g><g id="XMLID_2657_"><rect class="st0" height="14.8" id="XMLID_3032_" transform="matrix(0.6081 0.7939 -0.7939 0.6081 392.1175 85.2162)" width="1" x="109.3" y="432.3"/></g><g id="XMLID_2658_"><path class="st0" d="M110.2,446.7l-0.7-0.6c3.3-3.8,7.5-7,12.1-9.1l0.4,0.9C117.5,439.9,113.4,443,110.2,446.7      z" id="XMLID_3031_"/></g><g id="XMLID_2659_"><path class="st0" d="M116.3,450c-0.1,0-0.2,0-0.3-0.1c-0.2-0.1-0.2-0.3-0.2-0.5l0.2-1.7l1,0.1l-0.1,0.7      c2.3-1.6,4.5-3.5,6.5-5.5l0.7,0.7c-2.3,2.3-4.8,4.4-7.6,6.2C116.5,450,116.4,450,116.3,450z" id="XMLID_3030_"/></g><g id="XMLID_2660_"><path class="st0" d="M61,128.1c-3.7-2.1-6.9-5-9.3-8.6l0.8-0.5c2.3,3.4,5.4,6.2,8.9,8.2L61,128.1z" id="XMLID_3029_"/></g><g id="XMLID_2785_"><path class="st0" d="M65.4,120.2c-2.8-1.6-5.4-3.9-7.4-6.5l0.8-0.6c1.9,2.5,4.4,4.7,7.1,6.2L65.4,120.2z" id="XMLID_3028_"/></g><g id="XMLID_2786_"><path class="st0" d="M66.4,112.9c-2.4-1.7-4.5-3.7-6.4-5.9l0.7-0.6c1.8,2.2,3.9,4.1,6.2,5.7L66.4,112.9z" id="XMLID_3027_"/></g><g id="XMLID_2787_"><path class="st0" d="M72.3,108.2c-3.5-1-6.7-3.2-9-6l0.8-0.6c2.1,2.7,5.1,4.7,8.5,5.7L72.3,108.2z" id="XMLID_3026_"/></g><g id="XMLID_2788_"><path class="st0" d="M77.2,103.3c-4-1-7.4-3.9-9-7.7l0.9-0.4c1.5,3.5,4.6,6.2,8.3,7.1L77.2,103.3z" id="XMLID_3025_"/></g><g id="XMLID_2790_"><path class="st0" d="M81,98.1c-3.2-0.8-6.1-3.2-7.5-6.3l0.9-0.4c1.2,2.8,3.8,5,6.8,5.8L81,98.1z" id="XMLID_3024_"/></g><g id="XMLID_2791_"><path class="st0" d="M87.1,94.3c-3.8-1.7-6.9-4.6-8.7-8.3l0.9-0.4c1.7,3.4,4.7,6.3,8.2,7.9L87.1,94.3z" id="XMLID_3023_"/></g><g id="XMLID_2792_"><rect class="st0" height="1" id="XMLID_3022_" transform="matrix(0.7311 0.6823 -0.6823 0.7311 81.3059 -37.4564)" width="9.9" x="83.2" y="83.9"/></g><g id="XMLID_2793_"><path class="st0" d="M95.3,81.6c-2.9-1.7-5.3-4.2-6.8-7.2l0.9-0.4c1.4,2.8,3.6,5.3,6.4,6.8L95.3,81.6z" id="XMLID_3021_"/></g><g id="XMLID_2794_"><path class="st0" d="M101.4,79.7c-3-3-5.4-6.7-7-10.7l0.9-0.4c1.5,3.8,3.9,7.4,6.8,10.3L101.4,79.7z" id="XMLID_3020_"/></g><g id="XMLID_2795_"><path class="st0" d="M105.3,75.7c-2.7-2.9-4.8-6.4-6.1-10.1l0.9-0.3c1.3,3.6,3.3,7,5.9,9.8L105.3,75.7z" id="XMLID_3019_"/></g><g id="XMLID_2796_"><rect class="st0" height="1" id="XMLID_3018_" transform="matrix(0.4967 0.8679 -0.8679 0.4967 108.7848 -61.9154)" width="11.7" x="101.9" y="62.4"/></g><g id="XMLID_2797_"><path class="st0" d="M119.3,458.4c-0.2,0-0.4-0.1-0.5-0.2c-0.3-0.4-0.3-1.2,0.1-1.7c3.2-4,7.4-7.2,12-9.2      l0.4,0.9c-4.5,2-8.6,5.1-11.7,8.9c-0.1,0.1-0.1,0.4-0.1,0.4c0,0-0.1-0.1-0.2-0.1c-0.1,0-0.2,0-0.2,0l0.5,0.8      C119.5,458.4,119.4,458.4,119.3,458.4z" id="XMLID_3017_"/></g><g id="XMLID_2798_"><path class="st0" d="M126.1,465.1l-0.6-0.8c4.7-3.6,9.6-7.1,14.5-10.3l0.5,0.8      C135.6,458.1,130.7,461.6,126.1,465.1z" id="XMLID_3016_"/></g><g id="XMLID_2799_"><rect class="st0" height="11.2" id="XMLID_893_" transform="matrix(0.5635 0.8261 -0.8261 0.5635 443.4001 87.8541)" width="1" x="138.1" y="457.9"/></g><g id="XMLID_2800_"><path class="st0" d="M138.7,473.4l-0.6-0.8c4.1-3.3,8.5-6.2,13.1-8.8l0.5,0.8      C147.1,467.2,142.7,470.1,138.7,473.4z" id="XMLID_886_"/></g><g id="XMLID_2801_"><path class="st0" d="M148.8,476.9l-0.4-0.9c4.3-2.1,8.1-4.9,11.4-8.3l0.7,0.7      C157.1,471.9,153.2,474.8,148.8,476.9z" id="XMLID_879_"/></g><g id="XMLID_2802_"><path class="st0" d="M122.3,465l-0.8-0.5c2.4-3.7,5.6-7,9.3-9.4l0.5,0.8C127.7,458.2,124.6,461.4,122.3,465z" id="XMLID_872_"/></g><g id="XMLID_2803_"><path class="st0" d="M156,478.4C155.9,478.4,155.9,478.4,156,478.4c-0.6,0-0.9-0.5-0.9-0.9      c0-0.4,0.2-0.7,0.6-0.8l0.1,1c0.1,0,0.1-0.1,0.2-0.1c0-0.1,0-0.1,0-0.1c0,0,0,0-0.1,0c0.1,0,0.2-0.1,0.4-0.4      c3.1-3.8,6.9-7,11.3-9.4l0.5,0.8c-4.2,2.4-7.9,5.4-11,9.2C156.9,477.9,156.5,478.4,156,478.4z" id="XMLID_865_"/></g><g id="XMLID_2804_"><rect class="st0" height="15.1" id="XMLID_858_" transform="matrix(0.6545 0.7561 -0.7561 0.6545 418.4164 36.9366)" width="1" x="168.3" y="468.7"/></g><g id="XMLID_2805_"><path class="st0" d="M169.2,482.5l-0.7-0.6c3-3.4,6.5-6.3,10.2-8.8l0.5,0.8      C175.6,476.3,172.2,479.2,169.2,482.5z" id="XMLID_851_"/></g><g id="XMLID_2806_"><path class="st0" d="M177.5,482.2l-0.6-0.8c3.3-2.4,6.5-5.1,9.4-8l0.7,0.7C184.1,477.1,180.9,479.8,177.5,482.2      z" id="XMLID_844_"/></g><g id="XMLID_2807_"><path class="st0" d="M184.3,486.3l-0.8-0.6c2.6-3.5,5.5-6.8,8.8-9.8l0.7,0.7      C189.7,479.6,186.8,482.9,184.3,486.3z" id="XMLID_837_"/></g><g id="XMLID_2808_"><path class="st0" d="M190.6,489.7l-0.8-0.5c2.6-4,6.1-7.5,10.2-10l0.5,0.8C196.6,482.5,193.2,485.8,190.6,489.7      z" id="XMLID_830_"/></g><g id="XMLID_2809_"><rect class="st0" height="13" id="XMLID_823_" transform="matrix(0.7071 0.7071 -0.7071 0.7071 403.3987 0.5387)" width="1" x="200.6" y="480.7"/></g><g id="XMLID_2810_"><rect class="st0" height="5.8" id="XMLID_816_" transform="matrix(0.6639 0.7478 -0.7478 0.6639 434.1685 6.1019)" width="1" x="209.8" y="483.1"/></g><g id="XMLID_2811_"><path class="st0" d="M96.6,335.9c-0.1,0-0.1,0-0.2,0c-1.1-0.2-1.8-1.3-2.1-1.9c-5.8-10.8-9.2-22.7-12.2-34.1      c-8.5-32.3-14.9-66.5-4.5-97.8l0.9,0.3c-10.3,31.1-3.9,65.1,4.5,97.2c3,11.3,6.3,23.2,12.1,33.9c0.4,0.7,0.8,1.3,1.4,1.4      c0.2,0,0.5-0.2,0.6-0.4c0.1-0.2,0-0.2,0-0.2l0.5-0.8c0.4,0.3,0.6,0.8,0.4,1.4C97.9,335.4,97.3,335.9,96.6,335.9z" id="XMLID_809_"/></g><g id="XMLID_2812_"><path class="st0" d="M104.3,289.8c-2.2-0.5-3.4-2.5-4.4-4.4c-4.2-8.5-6.9-17.5-7.9-27      c-0.5-4.2-0.6-9.5,2.5-13.4l0.8,0.6c-2.8,3.6-2.7,8.6-2.3,12.7c1,9.3,3.6,18.3,7.8,26.6c0.9,1.7,2,3.6,3.7,3.9L104.3,289.8z" id="XMLID_802_"/></g><g id="XMLID_2813_"><path class="st0" d="M313.6,69.8l-0.9-0.2c0.3-1.4-1.2-2.6-2.5-3.4c-8.7-5.2-19.5-8.4-32.2-9.5      c-11.3-1-22.8-0.2-34,0.5l-0.1-1c11.2-0.7,22.7-1.5,34.1-0.5c12.8,1.1,23.8,4.3,32.6,9.7C312.9,66.8,314,68.3,313.6,69.8z" id="XMLID_795_"/></g><g id="XMLID_2814_"><path class="st0" d="M297.4,75.6c-3.9-3.1-9.5-3.3-14.4-3.1c-8.8,0.2-17.6,1-26.3,2.3l-0.1-1      c8.7-1.3,17.6-2,26.5-2.3c5.1-0.1,10.8,0,15,3.3L297.4,75.6z" id="XMLID_788_"/></g><g id="XMLID_2815_"><rect class="st0" height="55.5" id="XMLID_781_" transform="matrix(0.9515 0.3077 -0.3077 0.9515 116.9442 -123.7931)" width="1" x="450.5" y="281.2"/></g><g id="XMLID_2816_"><path class="st0" d="M430.6,333.2l-0.9-0.3c4.5-12.5,8.5-25.4,11.9-38.3l0.9,0.2      C439.1,307.7,435.1,320.6,430.6,333.2z" id="XMLID_774_"/></g><g id="XMLID_2817_"><path class="st0" d="M294.2,467.1l-0.2-0.9l65.6-16.2c3.8-0.9,7.7-1.9,11-4.1l0.5,0.8      c-3.4,2.3-7.6,3.4-11.3,4.3L294.2,467.1z" id="XMLID_767_"/></g><g id="XMLID_2818_"><path class="st0" d="M301.4,317.2c-3.3-2.3-7.1-4-11-4.9c-4-0.9-8.2-1.1-12.9-1.2c-11.8-0.2-23.7-0.2-35.5,0.1      l0-1c11.8-0.3,23.7-0.4,35.5-0.1c4.7,0.1,9,0.2,13.1,1.2c4,0.9,8,2.7,11.4,5.1L301.4,317.2z" id="XMLID_760_"/></g><g id="XMLID_2819_"><path class="st0" d="M284.9,359.6c-1.6-0.8-3.5-0.8-5.4-0.9c-2.5-0.1-5-0.2-6.9-1.8c-2.4-2-2.7-5.4-2.5-8      c0.1-0.8,0.2-1.7,0.3-2.5c0.2-1.9,0.5-3.7,0.2-5.5l1-0.2c0.3,1.9,0.1,3.9-0.2,5.8c-0.1,0.8-0.2,1.7-0.3,2.5      c-0.2,2.3,0.1,5.4,2.2,7.1c1.7,1.4,3.9,1.5,6.3,1.6c2,0.1,4,0.2,5.8,1L284.9,359.6z" id="XMLID_753_"/></g><g id="XMLID_2820_"><rect class="st0" height="12.6" id="XMLID_746_" transform="matrix(0.537 0.8436 -0.8436 0.537 281.5262 -29.2538)" width="1" x="166.9" y="235.5"/></g><g id="XMLID_2821_"><rect class="st0" height="11.4" id="XMLID_739_" transform="matrix(0.6386 0.7695 -0.7695 0.6386 242.2656 -38.4757)" width="1" x="161.6" y="233"/></g><g id="XMLID_2822_"><path class="st0" d="M152.6,238l-0.4-0.9c3.7-1.6,7-3.7,9.9-6.4l0.7,0.7C159.8,234.2,156.4,236.4,152.6,238z" id="XMLID_732_"/></g><g id="XMLID_2823_"><path class="st0" d="M149.6,231.1l-0.3-0.9c3.7-1.1,7.3-2.4,10.7-4.1l0.4,0.9      C157,228.7,153.3,230.1,149.6,231.1z" id="XMLID_725_"/></g><g id="XMLID_2824_"><path class="st0" d="M147.2,224.4l-0.3-0.9l12.1-4.1c0.2-0.1,0.3-0.1,0.3-0.1c0,0.1,0,0.2,0.1,0.3      c0.1,0,0.1,0,0.2,0c0.1-0.1,0.2-0.2,0.2-0.3l-1-0.1c0-0.2,0.1-0.4,0.4-0.5c0.2-0.1,0.5-0.1,0.8,0.1c0.2,0.2,0.3,0.4,0.3,0.7      c-0.1,0.6-0.7,0.8-0.9,0.8L147.2,224.4z" id="XMLID_718_"/></g><g id="XMLID_2825_"><rect class="st0" height="9.8" id="XMLID_711_" transform="matrix(0.1465 0.9892 -0.9892 0.1465 341.7133 36.8637)" width="1" x="149" y="211.6"/></g><g id="XMLID_2826_"><rect class="st0" height="9.7" id="XMLID_704_" transform="matrix(4.297103e-002 0.9991 -0.9991 4.297103e-002 352.5514 49.456)" width="1" x="150" y="203.9"/></g><g id="XMLID_2827_"><path class="st0" d="M144.6,205.5c-0.1,0-0.3,0-0.4,0l0-1c3.5,0,7.1-0.2,10.6-0.8l0.1,1      C151.5,205.2,148,205.5,144.6,205.5z" id="XMLID_697_"/></g><g id="XMLID_2828_"><rect class="st0" height="1" id="XMLID_690_" width="8.7" x="148.5" y="196.3"/></g><g id="XMLID_2829_"><rect class="st0" height="1" id="XMLID_688_" transform="matrix(0.9987 5.048333e-002 -5.048333e-002 0.9987 9.8418 -7.3765)" width="8.7" x="146.6" y="190.7"/></g><g id="XMLID_2830_"><rect class="st0" height="1" id="XMLID_686_" transform="matrix(0.9943 0.1069 -0.1069 0.9943 20.7105 -15.0964)" width="9.3" x="146.6" y="185.2"/></g><g id="XMLID_2831_"><path class="st0" d="M158.6,180.3c-3.3-0.8-6.7-1.1-10-1l0-1c3.5-0.2,6.9,0.2,10.3,1L158.6,180.3z" id="XMLID_685_"/></g><g id="XMLID_2832_"><path class="st0" d="M162,175.1c-3.5-0.5-6.9-1.4-10.2-2.6l0.3-0.9c3.2,1.2,6.6,2,10.1,2.5L162,175.1z" id="XMLID_684_"/></g><g id="XMLID_2833_"><path class="st0" d="M162.9,171.6c-3.4-0.7-6.7-1.9-9.8-3.5l0.4-0.9c3,1.5,6.3,2.7,9.6,3.4L162.9,171.6z" id="XMLID_683_"/></g><g id="XMLID_2834_"><rect class="st0" height="1" id="XMLID_682_" transform="matrix(0.7887 0.6148 -0.6148 0.7887 134.551 -64.638)" width="7.9" x="157.3" y="162.9"/></g><g id="XMLID_2835_"><rect class="st0" height="9.3" id="XMLID_681_" transform="matrix(0.6154 0.7882 -0.7882 0.6154 320.2204 -186.1066)" width="1" x="350.3" y="230.4"/></g><g id="XMLID_2836_"><rect class="st0" height="8.6" id="XMLID_674_" transform="matrix(0.6175 0.7866 -0.7866 0.6175 312.7491 -183.2041)" width="1" x="344.3" y="225.7"/></g><g id="XMLID_2837_"><path class="st0" d="M333.8,227.3l-0.3-0.9c3.1-1,6-2.4,8.6-4.3l0.6,0.8C339.9,224.8,336.9,226.3,333.8,227.3z" id="XMLID_662_"/></g><g id="XMLID_2838_"><path class="st0" d="M331.3,221.5l-0.2-1c3.6-0.6,7.1-2.1,10-4.2l0.6,0.8C338.6,219.3,335,220.8,331.3,221.5z" id="XMLID_620_"/></g><g id="XMLID_2839_"><path class="st0" d="M328.8,213.2l-0.1-1c4.7-0.3,9.4-1.1,14-2.4l0.3,0.9C338.3,212.1,333.6,212.9,328.8,213.2z      " id="XMLID_613_"/></g><g id="XMLID_2840_"><path class="st0" d="M332.3,204l-0.3-0.9c3-1,6.3-1.3,9.4-0.9l-0.1,1C338.3,202.7,335.2,203,332.3,204z" id="XMLID_606_"/></g><g id="XMLID_2841_"><path class="st0" d="M330.8,197.3l-0.2-0.9c3.2-0.8,6.7-0.8,9.9-0.1l-0.2,0.9      C337.2,196.5,333.9,196.6,330.8,197.3z" id="XMLID_599_"/></g><g id="XMLID_2842_"><rect class="st0" height="1" id="XMLID_592_" transform="matrix(0.9817 0.1905 -0.1905 0.9817 42.0817 -60.7532)" width="11.8" x="331.1" y="188"/></g><g id="XMLID_2843_"><rect class="st0" height="1" id="XMLID_585_" transform="matrix(0.9466 0.3225 -0.3225 0.9466 76.9643 -100.2027)" width="9.2" x="336.3" y="181.7"/></g><g id="XMLID_2844_"><rect class="st0" height="1" id="XMLID_578_" transform="matrix(0.8977 0.4406 -0.4406 0.8977 114.0237 -135.0002)" width="14.1" x="340.7" y="177.5"/></g><g id="XMLID_2845_"><path class="st0" d="M356.1,174.4c-2.2-1.6-4.8-2.6-7.5-2.8l0.1-1c2.9,0.2,5.7,1.3,8,3L356.1,174.4z" id="XMLID_571_"/></g><g id="XMLID_2846_"><rect class="st0" height="1" id="XMLID_564_" transform="matrix(0.8396 0.5433 -0.5433 0.8396 148.0847 -167.4715)" width="9.8" x="352.7" y="166.5"/></g><g id="XMLID_2847_"><path class="st0" d="M365.9,167.1c-1.6-1-3-2.4-4.1-4l0.8-0.5c0.9,1.5,2.2,2.8,3.8,3.7L365.9,167.1z" id="XMLID_557_"/></g><g id="XMLID_2848_"><rect class="st0" height="8.1" id="XMLID_550_" transform="matrix(0.2989 0.9543 -0.9543 0.2989 432.4297 -173.2065)" width="1" x="333.6" y="203.6"/></g><g id="XMLID_2849_"><path class="st0" d="M344.6,234.8l-0.8-0.5c1.8-2.8,4.5-5.1,7.5-6.5l0.4,0.9      C348.8,229.9,346.3,232.1,344.6,234.8z" id="XMLID_543_"/></g><g id="XMLID_2850_"><path class="st0" d="M339.3,228.5l-0.8-0.5c0.8-1.1,1.9-2.1,3.1-2.6l0.4,0.9C340.9,226.8,340,227.6,339.3,228.5      z" id="XMLID_536_"/></g><g id="XMLID_2851_"><path class="st0" d="M250.7,184.2l-0.7-0.7c0.1-0.1,0.1-0.4,0-0.8c-0.6-2.3-2.7-3.9-4.9-5.3      c-6.6-4.1-13.8-7.4-20.8-10.6c-3.1-1.4-6.1-2.6-9-1.8l-0.3-0.9c3.2-0.9,6.4,0.4,9.7,1.9c7,3.2,14.2,6.5,20.9,10.6      c2.4,1.5,4.7,3.2,5.3,5.9C251.3,183.5,251,184,250.7,184.2z" id="XMLID_529_"/></g><g id="XMLID_2852_"><path class="st0" d="M238.4,183c-3.7-3.5-8-6.3-12.6-8.5l0.4-0.9c4.7,2.3,9,5.2,12.8,8.7L238.4,183z" id="XMLID_522_"/></g><g id="XMLID_2853_"><path class="st0" d="M413.1,193.5c-1.1-6.2-6.1-11.6-12.2-13.2l0.2-0.9c6.5,1.7,11.8,7.4,13,14L413.1,193.5z" id="XMLID_515_"/></g><g id="XMLID_2854_"><path class="st0" d="M405.5,194c-0.8-1.4-2-2.7-3.4-3.6l0.5-0.8c1.5,1,2.8,2.3,3.7,3.9L405.5,194z" id="XMLID_508_"/></g><g id="XMLID_2855_"><rect class="st0" height="1" id="XMLID_501_" transform="matrix(0.8228 0.5683 -0.5683 0.8228 157.9673 -78.0765)" width="8.3" x="200" y="213.8"/></g><g id="XMLID_2856_"><path class="st0" d="M208.7,214c-1.4-2.2-3.2-4.1-5.3-5.6l0.6-0.8c2.2,1.6,4.1,3.6,5.5,5.9L208.7,214z" id="XMLID_367_"/></g><g id="XMLID_2857_"><path class="st0" d="M211,210.8c-0.1,0-0.3-0.1-0.4-0.2l-3.9-4.4l0.7-0.6l2.6,3c-0.7-2.2-2-4.2-3.8-5.6l0.6-0.8      c2.5,1.9,4.1,4.9,4.6,8c0,0.2-0.1,0.4-0.3,0.5C211.1,210.8,211.1,210.8,211,210.8z" id="XMLID_355_"/></g><g id="XMLID_2858_"><path class="st0" d="M383.3,212.8c-2.7-0.9-5-2.7-6.5-5.1l0.8-0.5c1.4,2.2,3.5,3.8,6,4.7L383.3,212.8z" id="XMLID_353_"/></g><g id="XMLID_2859_"><rect class="st0" height="1" id="XMLID_352_" transform="matrix(0.8944 0.4472 -0.4472 0.8944 132.6499 -150.8992)" width="4.3" x="383.8" y="205"/></g><g id="XMLID_2860_"><rect class="st0" height="1" id="XMLID_339_" width="3.4" x="121.4" y="149.3"/></g><g id="XMLID_2861_"><path class="st0" d="M128.2,145.4h-2.9c-0.2,0-0.3-0.1-0.4-0.3s-0.1-0.4,0-0.5c1.3-1.8,3.3-3.1,5.6-3.7l0.2,0.9      c-1.7,0.4-3.3,1.3-4.4,2.5h1.9V145.4z" id="XMLID_338_"/></g><g id="XMLID_2862_"><rect class="st0" height="1" id="XMLID_334_" transform="matrix(0.9578 0.2873 -0.2873 0.9578 45.2028 -33.1217)" width="5.1" x="132.9" y="136.9"/></g><g id="XMLID_2863_"><rect class="st0" height="1" id="XMLID_333_" transform="matrix(0.9935 0.1138 -0.1138 0.9935 16.1161 -15.2281)" width="4.4" x="139.3" y="133.1"/></g><g id="XMLID_2864_"><path class="st0" d="M148.4,129.4l-2.9-0.5c-0.2,0-0.3-0.2-0.4-0.3c-0.1-0.2,0-0.4,0.1-0.5l4.4-3.9l0.6,0.7      l-3.6,3.2l1.9,0.3L148.4,129.4z" id="XMLID_332_"/></g><g id="XMLID_2865_"><path class="st0" d="M158.7,122.4l-0.8-0.5c0.9-1.6,2.4-2.7,4.1-3.2l0.3,0.9      C160.7,120.1,159.4,121.1,158.7,122.4z" id="XMLID_330_"/></g><g id="XMLID_2866_"><rect class="st0" height="5.7" id="XMLID_329_" transform="matrix(0.5139 0.8578 -0.8578 0.5139 290.0831 -272.4468)" width="1" x="385" y="116.9"/></g><g id="XMLID_2867_"><path class="st0" d="M393.8,122.4c-0.7,0-1.4-0.1-2.2-0.3l0.2-0.9c1.2,0.3,2.4,0.3,3.6,0l0.2,0.9      C395.1,122.3,394.4,122.4,393.8,122.4z" id="XMLID_328_"/></g></g></g><g id="XMLID_2598_"><path class="st1" d="M256,506c-66.8,0-129.6-26-176.8-73.2S6,322.8,6,256c0-66.8,26-129.6,73.2-176.8    C126.4,32,189.2,6,256,6s129.6,26,176.8,73.2C480,126.4,506,189.2,506,256s-26,129.6-73.2,176.8S322.8,506,256,506z M256,11.8    C121.4,11.8,11.8,121.4,11.8,256c0,134.6,109.5,244.2,244.2,244.2S500.2,390.6,500.2,256C500.2,121.4,390.6,11.8,256,11.8z" id="XMLID_3099_"/></g><g id="XMLID_2599_"><path class="st1" d="M204.3,263.8c-10,0-20.5-2.3-31.1-6.8c-10.7-4.6-18.2-10.2-22.9-17.1    c-15-22-15.3-64.1,6.8-85.4l0,0c13.4-12.9,35.8-18.4,58.5-14.4c21.8,3.8,39.6,15.7,47.5,31.7c7,14.3,7.5,31.4,1.2,48.1    c-6.7,17.9-20.4,32.6-36.6,39.3C220.3,262.3,212.4,263.8,204.3,263.8z M161.1,158.7c-19.8,19.1-19.5,58.2-6.1,77.9    c4.1,6,10.8,10.9,20.4,15c17.8,7.6,35.1,8.4,49.9,2.2c14.7-6.1,27.2-19.6,33.3-36c5.7-15.2,5.4-30.6-1-43.5    c-7-14.4-23.2-25-43.2-28.5C193.7,142.2,173.2,147.1,161.1,158.7L161.1,158.7z" id="XMLID_3096_"/></g><g id="XMLID_2600_"><path class="st1" d="M378.8,254.4c-17,0-33.5-7.7-43.8-21.5c-12.1-16.3-11.1-41.6,2.3-58.9    c4.4-5.7,10-10.3,16.5-13.6h0c15-7.5,34.1-7.4,49.8,0.3c14.4,7.1,24,19.3,27,34.3c4.3,22-8.5,45.6-29.7,54.8    C393.8,252.9,386.3,254.4,378.8,254.4z M356.5,165.6c-5.7,2.9-10.6,6.9-14.5,11.9c-11.9,15.3-12.9,37.6-2.3,51.9    c13.2,17.8,38,24.2,58.9,15.1c18.8-8.1,30.1-28.9,26.3-48.3c-2.6-13.2-11.1-24-23.8-30.2C387,159,369.9,158.9,356.5,165.6    L356.5,165.6z" id="XMLID_3093_"/></g><g id="XMLID_2601_"><path class="st1" d="M136.5,283.2c-0.9,0-1.8-0.4-2.3-1.2c-1-1.3-0.7-3.1,0.6-4.1c31-22.8,84.5-26.5,121.9-8.6    c1.4,0.7,2.1,2.4,1.4,3.9c-0.7,1.4-2.4,2.1-3.9,1.4c-35.6-17.1-86.5-13.6-115.9,8C137.7,283,137.1,283.2,136.5,283.2z" id="XMLID_3092_"/></g><g id="XMLID_2603_"><path class="st1" d="M320.7,271.7c-0.9,0-1.8-0.4-2.3-1.2c-1-1.3-0.7-3.1,0.6-4.1c28.2-20.7,76.8-24.1,110.8-7.8    c1.4,0.7,2.1,2.4,1.4,3.9c-0.7,1.4-2.4,2.1-3.9,1.4c-32.2-15.5-78.3-12.3-104.9,7.2C321.9,271.5,321.3,271.7,320.7,271.7z" id="XMLID_3091_"/></g><g id="XMLID_2868_"><path class="st1" d="M200.7,428.8c-0.8,0-1.5-0.2-2.2-0.6c-2.3-1.5-2.2-4.4-2.1-8c0.8-24,14.2-47.5,37.9-66.2    c20.7-16.3,47.4-27.5,71.4-29.9l0.3,2.9l-0.3-2.9c38.1-3.8,79.2,9.9,109.8,36.6c2.7,2.3,3.4,6.1,1.9,9.3c-1.6,3.2-5,5-8.5,4.3    c-37.2-6.9-80.1-13.2-119.6-0.3c-18,5.9-35.9,15.8-56.5,31.4c-3.1,2.4-6.2,5.2-9.5,8.3c-5.4,5-11.1,10.2-17.2,13.4    C204.2,428,202.4,428.8,200.7,428.8z M318.5,329.1c-4.1,0-8.2,0.2-12.2,0.6c-23,2.3-48.5,13-68.4,28.7    c-22.3,17.7-35,39.6-35.7,61.9c0,0.5,0,1.3,0,2.1c0.3-0.2,0.8-0.4,1.3-0.6c5.4-2.8,10.8-7.8,15.9-12.6c3.2-3,6.6-6.1,9.9-8.6    c21.1-16,39.5-26.2,58.2-32.3c40.8-13.3,84.6-6.9,122.5,0.1c1.4,0.3,2-0.8,2.2-1.1c0.2-0.4,0.5-1.5-0.5-2.3    C385.5,342.1,351.5,329.1,318.5,329.1z" id="XMLID_325_"/></g><g id="XMLID_2602_"><path class="st1" d="M206.3,224.4c-9.5,0-18.3-8.2-20.9-10.9c-6.2-6.3-10.9-16.7-4-25.1    c7.1-8.7,22.3-6.5,30.5-1.6c4.8,2.9,8.5,7.3,10.2,12.4l0,0c2,5.7,1.1,12.5-2.4,17.6c-2.9,4.4-7.4,7.1-12.4,7.4    C207,224.3,206.6,224.4,206.3,224.4z M195.8,188.3c-4,0-7.7,1.1-10,3.8c-4.4,5.4-0.8,12.7,3.7,17.3c4.5,4.7,11.5,9.5,17.4,9.1    c4.1-0.3,6.6-2.8,8-4.8c2.4-3.6,3.1-8.5,1.7-12.5c-1.3-3.8-4-7.1-7.7-9.3C205.5,189.8,200.5,188.3,195.8,188.3z" id="XMLID_3088_"/></g><g id="XMLID_2605_"><path class="st1" d="M382.8,219.5c-6.5,0-12.3-5.2-14.6-7.5c-4.7-4.8-7.4-12.3-2.7-18c5.1-6.2,15.8-4.7,21.6-1.3    c3.4,2,6,5.2,7.2,8.8v0c1.4,4.1,0.8,8.9-1.7,12.6c-2.1,3.2-5.3,5.1-9,5.4C383.3,219.5,383.1,219.5,382.8,219.5z M375.8,195.5    c-2.4,0-4.6,0.6-5.9,2.2c-3.4,4.1,1.8,9.6,2.4,10.3c2.9,2.9,7.2,6,10.8,5.8c2.4-0.2,3.8-1.6,4.6-2.8c1.4-2.2,1.8-5.1,1-7.5l0,0    c-0.8-2.3-2.5-4.4-4.7-5.7C382,196.5,378.8,195.5,375.8,195.5z" id="XMLID_3085_"/></g><g id="XMLID_2604_"><path class="st1" d="M421.7,146.1c-1.2,0-2.3-0.7-2.7-1.9c-3.4-8.8-9.9-16.7-18.4-22.4    c-7.8-5.2-17.3-8.6-27.7-9.9c-0.4,0.7-1.1,1.2-1.9,1.3c-1.6,0.3-3.1-0.7-3.4-2.3c-0.2-1.2,0.1-2.4,1-3.3c1.3-1.4,3.4-1.7,4.9-1.5    c11.3,1.4,21.9,5.2,30.4,10.9c9.5,6.3,16.8,15.3,20.6,25.2c0.6,1.5-0.2,3.2-1.7,3.8C422.4,146.1,422.1,146.1,421.7,146.1z" id="XMLID_3084_"/></g><g id="XMLID_2606_"><path class="st1" d="M119.4,156.3c-0.4,0-0.9-0.1-1.3-0.3c-1.4-0.7-2-2.5-1.3-3.9c7.8-15.7,20.3-29.1,36.1-38.6    c15.8-9.5,33.4-14.3,51-13.9c1.6,0,2.9,1.4,2.8,3c0,1.6-1.3,2.8-2.9,2.8c0,0-0.1,0-0.1,0c-33.3-0.8-66.9,19.4-81.6,49.2    C121.5,155.7,120.5,156.3,119.4,156.3z" id="XMLID_3083_"/></g></g></svg>