<?xml version="1.0" ?><svg id="Layer_1" style="enable-background:new 0 0 512 512;" version="1.1" viewBox="0 0 512 512" xml:space="preserve" xmlns="http://www.w3.org/2000/svg" xmlns:xlink="http://www.w3.org/1999/xlink"><style type="text/css">
	.st0{fill:#B85F48;}
	.st1{fill:#7C281A;}
</style><g id="XMLID_1681_"><g id="XMLID_1982_"><g id="XMLID_2274_"><rect class="st0" height="25.7" id="XMLID_4331_" transform="matrix(0.5972 0.8021 -0.8021 0.5972 332.7689 111.3444)" width="1" x="55" y="374.1"/></g><g id="XMLID_2273_"><path class="st0" d="M46.4,386.2c-0.1,0-0.1,0-0.2,0c-0.3-0.1-0.5-0.3-0.6-0.6c-0.1-0.4,0.2-0.8,0.7-1.2     c3.7-2.3,7.6-4.3,11.6-6.1l0.4,0.9c-3.9,1.7-7.8,3.8-11.5,6c-0.1,0.1-0.2,0.1-0.2,0.1l0.4-0.2c0.1,0.2,0.1,0.5,0,0.7     C46.9,386.1,46.7,386.2,46.4,386.2z M46.4,385.2c-0.1,0-0.2,0.1-0.2,0.1c-0.1,0.1-0.1,0.3,0,0.4l0.4-0.3     C46.6,385.3,46.5,385.2,46.4,385.2C46.4,385.2,46.4,385.2,46.4,385.2z" id="XMLID_4328_"/></g><g id="XMLID_2272_"><path class="st0" d="M41.9,380.4l-0.3-0.9c4.4-1.6,8.5-3.8,12.3-6.5l0.6,0.8C50.6,376.5,46.4,378.8,41.9,380.4z     " id="XMLID_4327_"/></g><g id="XMLID_2271_"><path class="st0" d="M40.9,376.8l-0.4-0.9c4.2-2,8.2-4.5,11.9-7.5l0.6,0.8C49.3,372.2,45.2,374.8,40.9,376.8z" id="XMLID_4326_"/></g><g id="XMLID_2270_"><rect class="st0" height="15.4" id="XMLID_4325_" transform="matrix(0.5801 0.8145 -0.8145 0.5801 316.2725 119.2234)" width="1" x="42" y="358.7"/></g><g id="XMLID_2269_"><rect class="st0" height="16.4" id="XMLID_4324_" transform="matrix(0.5195 0.8545 -0.8545 0.5195 328.3913 140.0532)" width="1" x="39.2" y="353.8"/></g><g id="XMLID_2268_"><path class="st0" d="M31,361.7l-0.6-0.8c4.6-3.7,9.5-7.1,14.6-10.1l0.5,0.9C40.4,354.7,35.6,358.1,31,361.7z" id="XMLID_4323_"/></g><g id="XMLID_2267_"><path class="st0" d="M30,357.2l-0.7-0.8c4.7-4,9.8-7.7,15.1-10.9l0.5,0.9C39.8,349.6,34.7,353.2,30,357.2z" id="XMLID_4322_"/></g><g id="XMLID_2266_"><rect class="st0" height="17.2" id="XMLID_4321_" transform="matrix(0.5819 0.8133 -0.8133 0.5819 296.8511 118.0415)" width="1" x="33.1" y="339.1"/></g><g id="XMLID_2265_"><rect class="st0" height="19.2" id="XMLID_4320_" transform="matrix(0.6235 0.7818 -0.7818 0.6235 280.7567 102.7162)" width="1" x="33.2" y="333.3"/></g><g id="XMLID_2264_"><rect class="st0" height="17.8" id="XMLID_4319_" transform="matrix(0.6175 0.7866 -0.7866 0.6175 279.0312 105.8299)" width="1" x="30.2" y="330.9"/></g><g id="XMLID_2263_"><rect class="st0" height="17.4" id="XMLID_4318_" transform="matrix(0.6328 0.7743 -0.7743 0.6328 270.0335 99.2072)" width="1" x="29.9" y="325.6"/></g><g id="XMLID_2262_"><rect class="st0" height="20.2" id="XMLID_4317_" transform="matrix(0.6487 0.761 -0.761 0.6487 260.0868 92.6586)" width="1" x="29.2" y="318"/></g><g id="XMLID_2261_"><path class="st0" d="M20.6,329.2l-0.7-0.7c4.4-4.8,9.5-8.8,15.2-12l0.5,0.9C29.9,320.5,24.9,324.4,20.6,329.2z" id="XMLID_4316_"/></g><g id="XMLID_2260_"><path class="st0" d="M20.1,324.2l-0.7-0.7c4.5-4.3,9.4-8.2,14.5-11.6l0.6,0.8C29.3,316.1,24.5,320,20.1,324.2z" id="XMLID_4315_"/></g><g id="XMLID_2259_"><path class="st0" d="M19.1,316.2l-0.7-0.7c4.5-4.5,9.4-8.5,14.6-12l0.6,0.8C28.3,307.8,23.5,311.8,19.1,316.2z" id="XMLID_4314_"/></g><g id="XMLID_2258_"><path class="st0" d="M18.1,310.7l-0.7-0.7c3.6-3.6,7.5-7,11.5-10.1l0.6,0.8C25.5,303.7,21.6,307.1,18.1,310.7z" id="XMLID_4313_"/></g><g id="XMLID_2257_"><path class="st0" d="M14.5,308.2l-0.7-0.7c5.2-4.8,10.8-9.4,16.5-13.6l0.6,0.8     C25.3,298.9,19.7,303.4,14.5,308.2z" id="XMLID_4312_"/></g><g id="XMLID_2256_"><path class="st0" d="M15.1,301.2l-0.7-0.7c4.1-4.1,8.5-8,13-11.6l0.6,0.8C23.5,293.3,19.1,297.1,15.1,301.2z" id="XMLID_4311_"/></g><g id="XMLID_2255_"><rect class="st0" height="19.2" id="XMLID_4310_" transform="matrix(0.4709 0.8822 -0.8822 0.4709 263.5646 137.62)" width="1" x="16.6" y="278.9"/></g><g id="XMLID_2254_"><rect class="st0" height="1" id="XMLID_4309_" width="2.7" x="9.2" y="282.5"/></g><g id="XMLID_2253_"><path class="st0" d="M8.8,281.1l-0.6-0.8c3.9-2.7,8.2-4.9,12.7-6.5l0.3,0.9C16.9,276.3,12.7,278.4,8.8,281.1z" id="XMLID_4308_"/></g><g id="XMLID_2252_"><path class="st0" d="M8.8,276.1l-0.6-0.8c3.5-2.5,7.2-4.8,11-6.7l0.4,0.9C15.9,271.3,12.3,273.6,8.8,276.1z" id="XMLID_4307_"/></g><g id="XMLID_2251_"><path class="st0" d="M9.8,265.7l-0.6-0.8c3.1-2.1,6.3-3.9,9.7-5.4l0.4,0.9C16.1,261.9,12.8,263.7,9.8,265.7z" id="XMLID_4306_"/></g><g id="XMLID_2250_"><rect class="st0" height="12.9" id="XMLID_4305_" transform="matrix(0.5037 0.8639 -0.8639 0.5037 230.3183 115.7987)" width="1" x="13.9" y="251.9"/></g><g id="XMLID_2249_"><path class="st0" d="M8.8,256.7l-0.6-0.8c3.9-2.8,8.1-5.3,12.4-7.4l0.4,0.9C16.8,251.5,12.7,253.9,8.8,256.7z" id="XMLID_4304_"/></g><g id="XMLID_2248_"><path class="st0" d="M7.8,249.4l-0.6-0.8c4.1-3,8.5-5.6,13.1-7.7l0.4,0.9C16.2,243.9,11.9,246.4,7.8,249.4z" id="XMLID_4303_"/></g><g id="XMLID_2247_"><path class="st0" d="M6.8,242.1l-0.5-0.9c5-2.6,10.3-4.9,15.7-6.8l0.3,0.9C17,237.2,11.8,239.5,6.8,242.1z" id="XMLID_4302_"/></g><g id="XMLID_2246_"><path class="st0" d="M9.4,284.5l-0.8-0.6c3.2-4,7.7-6.9,12.7-8.2l0.3,1C16.9,277.9,12.5,280.7,9.4,284.5z" id="XMLID_4301_"/></g><g id="XMLID_2245_"><path class="st0" d="M11,297.1l-0.6-0.8c3.3-2.6,7.1-4.6,11-5.8l0.3,1C17.8,292.7,14.1,294.6,11,297.1z" id="XMLID_4300_"/></g><g id="XMLID_2244_"><path class="st0" d="M9.3,286.8l-0.3-1c3.8-1,7.5-2.6,10.9-4.5l0.5,0.9C17,284.2,13.2,285.7,9.3,286.8z" id="XMLID_4299_"/></g><g id="XMLID_2243_"><path class="st0" d="M8.8,233.2c-0.7,0-1.3,0-2,0l0-1c5.3,0.1,10.7-0.3,15.9-1.3l0.2,1     C18.3,232.7,13.6,233.2,8.8,233.2z" id="XMLID_4298_"/></g><g id="XMLID_2242_"><path class="st0" d="M8.7,226.8l-0.3-1c4.2-1.2,8.4-2.1,12.7-2.7l0.2,1C17,224.8,12.8,225.7,8.7,226.8z" id="XMLID_4297_"/></g><g id="XMLID_2241_"><path class="st0" d="M9.7,221.5l-0.3-1c4.3-1.4,8.7-2.5,13.1-3.3l0.2,1C18.3,219,13.9,220.1,9.7,221.5z" id="XMLID_4296_"/></g><g id="XMLID_2240_"><path class="st0" d="M10.7,213.4l-0.3-1c5.2-1.7,10.7-2.8,16.1-3.3l0.1,1C21.2,210.7,15.8,211.8,10.7,213.4z" id="XMLID_4295_"/></g><g id="XMLID_2239_"><path class="st0" d="M12.3,206.3l-0.3-1c5-1.6,10.2-2.6,15.5-3.1l0.1,1C22.4,203.7,17.3,204.7,12.3,206.3z" id="XMLID_4294_"/></g><g id="XMLID_2238_"><path class="st0" d="M11.3,200.1l-0.2-1c5.4-1.3,10.9-2.1,16.5-2.2l0,1C22.1,198,16.6,198.8,11.3,200.1z" id="XMLID_4293_"/></g><g id="XMLID_2237_"><path class="st0" d="M14.2,191.1l-0.1-1c6.6-0.7,13.2-1.6,19.7-2.6l0.2,1C27.5,189.5,20.8,190.4,14.2,191.1z" id="XMLID_4292_"/></g><g id="XMLID_2236_"><rect class="st0" height="21.5" id="XMLID_4291_" transform="matrix(0.1288 0.9917 -0.9917 0.1288 202.2768 129.9268)" width="1" x="26.7" y="169.3"/></g><g id="XMLID_2235_"><path class="st0" d="M22.9,174.5l-0.1-1c3.8-0.6,7.7-0.6,11.5-0.3l-0.1,1C30.4,173.9,26.6,174,22.9,174.5z" id="XMLID_4290_"/></g><g id="XMLID_2234_"><path class="st0" d="M23.6,170.1l-0.1-1c6.4-0.7,13-1.6,19.3-2.7l0.2,1C36.6,168.5,30,169.4,23.6,170.1z" id="XMLID_4289_"/></g><g id="XMLID_2233_"><rect class="st0" height="17.2" id="XMLID_4288_" transform="matrix(0.1172 0.9931 -0.9931 0.1172 190.4235 101.0407)" width="1" x="37.9" y="149"/></g><g id="XMLID_2232_"><path class="st0" d="M30.7,151.8l-0.2-1c5.4-1.3,11-1.7,16.5-1.1l-0.1,1C41.4,150.1,36,150.5,30.7,151.8z" id="XMLID_4287_"/></g><g id="XMLID_2231_"><path class="st0" d="M54.6,399c-0.3,0-0.7-0.1-0.9-0.4c-0.3-0.3-0.3-0.7-0.1-1.1c0.3-0.4,0.9-0.7,1.3-0.4     c0.2,0.1,0.4,0.3,0.3,0.7c0.1-0.1,0.2-0.2,0.4-0.2c4-3,8.2-5.8,12.4-8.3l0.5,0.9c-4.2,2.5-8.4,5.3-12.3,8.2     C55.7,398.8,55.1,399,54.6,399z M54.4,397.9c0.1,0.1,0.3,0.1,0.6,0l-0.7-0.3C54.3,397.7,54.3,397.8,54.4,397.9     C54.4,397.9,54.4,398,54.4,397.9C54.5,398,54.5,397.9,54.4,397.9z M54.3,397.6l0.5,0.2L54.3,397.6     C54.3,397.6,54.3,397.6,54.3,397.6z" id="XMLID_4283_"/></g><g id="XMLID_2230_"><rect class="st0" height="20.4" id="XMLID_4282_" transform="matrix(0.5311 0.8473 -0.8473 0.5311 368.3213 129.3772)" width="1" x="66.8" y="387.3"/></g><g id="XMLID_2229_"><rect class="st0" height="21.2" id="XMLID_4281_" transform="matrix(0.4904 0.8715 -0.8715 0.4904 387.1142 146.2989)" width="1" x="68" y="393.6"/></g><g id="XMLID_2228_"><path class="st0" d="M64.9,415.8l-0.6-0.8c5.9-4.9,12.4-9,19.3-12.3l0.4,0.9C77.1,406.8,70.7,410.9,64.9,415.8z     " id="XMLID_4280_"/></g><g id="XMLID_2227_"><path class="st0" d="M73.6,419.7l-0.7-0.7c4.8-4.6,10-8.8,15.4-12.6l0.6,0.8C83.5,410.9,78.3,415.1,73.6,419.7z     " id="XMLID_4279_"/></g><g id="XMLID_2226_"><rect class="st0" height="19.9" id="XMLID_4278_" transform="matrix(0.6386 0.7695 -0.7695 0.6386 353.9557 84.0707)" width="1" x="87" y="409"/></g><g id="XMLID_2225_"><path class="st0" d="M88.9,430.4l-0.7-0.7c4.8-4.4,9.9-8.5,15.3-12.2l0.6,0.8C98.8,422,93.6,426,88.9,430.4z" id="XMLID_4277_"/></g><g id="XMLID_2224_"><path class="st0" d="M92.7,441.9l-0.4-0.9c5.3-2.1,9.9-5.8,12.9-10.6l0.8,0.5C103,435.8,98.2,439.7,92.7,441.9z     " id="XMLID_4276_"/></g><g id="XMLID_2223_"><path class="st0" d="M101,447.5l-0.9-0.5c2.3-4,5.8-7.4,9.9-9.5l0.5,0.9C106.5,440.4,103.2,443.6,101,447.5z" id="XMLID_4275_"/></g><g id="XMLID_2222_"><path class="st0" d="M105.6,455.6l-0.8-0.6c3.1-4.2,6.8-8,11-11.2l0.6,0.8C112.3,447.8,108.7,451.5,105.6,455.6     z" id="XMLID_4274_"/></g><g id="XMLID_2221_"><path class="st0" d="M112.2,457.7l-0.8-0.6c3.9-5,8.8-11.3,15.6-13.9l0.4,0.9     C120.8,446.7,116,452.8,112.2,457.7z" id="XMLID_4273_"/></g><g id="XMLID_2220_"><path class="st0" d="M120.1,461.2l-0.8-0.6c4.3-5.3,9.3-9.9,15-13.7l0.6,0.8     C129.3,451.4,124.4,455.9,120.1,461.2z" id="XMLID_4272_"/></g><g id="XMLID_2219_"><path class="st0" d="M130.2,462.2l-0.8-0.6c3.5-4.5,7.5-8.6,12-12.2l0.6,0.8     C137.6,453.7,133.6,457.7,130.2,462.2z" id="XMLID_4271_"/></g><g id="XMLID_2218_"><path class="st0" d="M134.6,468.2l-0.7-0.7c4.9-5,10.3-9.6,16-13.6l0.6,0.8     C144.8,458.7,139.4,463.2,134.6,468.2z" id="XMLID_4270_"/></g><g id="XMLID_2217_"><path class="st0" d="M140.1,472.7l-0.7-0.7c4.6-4.8,9.6-9.2,14.9-13.2l0.6,0.8     C149.7,463.6,144.7,468,140.1,472.7z" id="XMLID_4269_"/></g><g id="XMLID_2216_"><path class="st0" d="M147.7,482.2l-0.8-0.6c5.2-6.6,11-12.8,17.5-18.2l0.6,0.8     C158.6,469.5,152.8,475.6,147.7,482.2z" id="XMLID_4268_"/></g><g id="XMLID_2215_"><path class="st0" d="M158.8,481.6l-0.9-0.5c3.7-6.5,8.5-12.2,14.3-17l0.6,0.8     C167.2,469.5,162.3,475.3,158.8,481.6z" id="XMLID_4267_"/></g><g id="XMLID_2214_"><path class="st0" d="M167.2,483.1l-0.9-0.5c3.2-5.8,7.4-11,12.4-15.3l0.7,0.8     C174.4,472.3,170.3,477.4,167.2,483.1z" id="XMLID_4266_"/></g><g id="XMLID_2213_"><path class="st0" d="M175.2,485.1l-0.9-0.5c3.5-6,7.9-11.5,13-16.2l0.7,0.7     C182.9,473.8,178.6,479.2,175.2,485.1z" id="XMLID_4265_"/></g><g id="XMLID_2212_"><path class="st0" d="M183.1,487.1l-0.8-0.5c4-6.2,8.7-12,14-17.2l0.7,0.7C191.8,475.3,187.1,481,183.1,487.1z" id="XMLID_4264_"/></g><g id="XMLID_2211_"><path class="st0" d="M191.7,493.7l-0.8-0.6l11.1-16.8c1.4-2.1,2.8-4,5.1-4.7l0.3,1c-1.9,0.6-3.2,2.3-4.5,4.3     L191.7,493.7z" id="XMLID_4263_"/></g><g id="XMLID_2210_"><path class="st0" d="M201.4,497.5c-0.1,0-0.1,0-0.2,0l0.1-1c1.4,0.1,2.4-1.6,3.2-3.1     c2.8-5.7,6.6-10.8,11.3-15.2l0.7,0.7c-4.6,4.2-8.3,9.2-11.1,14.9C204.7,495,203.5,497.5,201.4,497.5z" id="XMLID_4262_"/></g><g id="XMLID_2209_"><path class="st0" d="M209.4,504.6l-0.7-0.7c2.2-2.1,3.8-4.9,5.3-7.6c2-3.6,4.1-7.4,7.9-9.4l0.5,0.9     c-3.5,1.9-5.4,5.4-7.5,9C213.4,499.5,211.8,502.4,209.4,504.6z" id="XMLID_4261_"/></g><g id="XMLID_2208_"><path class="st0" d="M220.3,500.7l-0.8-0.6c3.5-5,7.8-9.4,12.8-12.9l0.6,0.8C228,491.5,223.7,495.8,220.3,500.7     z" id="XMLID_4260_"/></g><g id="XMLID_2207_"><path class="st0" d="M230.2,504.7l-0.8-0.6c3.4-4.9,7.4-9.3,11.9-13.2l0.7,0.8     C237.5,495.4,233.5,499.8,230.2,504.7z" id="XMLID_4259_"/></g><g id="XMLID_2206_"><path class="st0" d="M242.2,503.1l-0.9-0.4c3.1-6.3,7.7-11.8,13.5-15.9l0.6,0.8     C249.8,491.6,245.3,496.9,242.2,503.1z" id="XMLID_4258_"/></g><g id="XMLID_2205_"><path class="st0" d="M251.2,503.1l-0.9-0.5c2.9-5.4,6.3-10.6,10.3-15.3l0.8,0.6     C257.4,492.6,254,497.7,251.2,503.1z" id="XMLID_4257_"/></g><g id="XMLID_2204_"><path class="st0" d="M261.5,499.7l-0.5-0.9c3.6-2.2,6.6-5.5,8.4-9.2l0.9,0.4C268.3,494,265.2,497.5,261.5,499.7     z" id="XMLID_4256_"/></g><g id="XMLID_2203_"><path class="st0" d="M39.3,168.6c-4.6-5.6-6.8-12.8-6-20c0-0.4,0.4-1,0.8-1.1c0.3-0.1,0.6,0,0.8,0.3l-0.8,0.6     c0,0,0.1,0.1,0.2,0.1c0.1,0,0.2,0,0.2,0c0,0-0.1,0.2-0.1,0.3c-0.7,6.9,1.4,13.9,5.8,19.2L39.3,168.6z" id="XMLID_4255_"/></g><g id="XMLID_2202_"><path class="st0" d="M37.2,183.7c-4.8-6.9-8.3-14.6-10.5-22.7l1-0.3c2.1,8,5.6,15.6,10.3,22.4L37.2,183.7z" id="XMLID_4254_"/></g><g id="XMLID_2201_"><path class="st0" d="M33.5,192.2c-1.1-2.4-2.7-4.6-4.3-6.8c-0.9-1.2-1.8-2.4-2.6-3.6c-2-3.1-4.1-7.8-2.5-12.3     l0.9,0.3c-1.6,4.3,0.8,9,2.4,11.4c0.8,1.2,1.7,2.4,2.5,3.6c1.6,2.2,3.3,4.4,4.4,7L33.5,192.2z" id="XMLID_4253_"/></g><g id="XMLID_2200_"><path class="st0" d="M31,199.5c-6.1-5.3-10.2-12.7-11.6-20.7l1-0.2c1.4,7.8,5.4,14.9,11.3,20.1L31,199.5z" id="XMLID_4252_"/></g><g id="XMLID_2199_"><path class="st0" d="M28,208.5c-6.3-5.3-10.6-13-11.9-21.1l1-0.2c1.3,7.9,5.5,15.4,11.6,20.5L28,208.5z" id="XMLID_4251_"/></g><g id="XMLID_2198_"><path class="st0" d="M26.4,216.7c-6.4-4.6-10.8-11.6-12.2-19.3l1-0.2c1.3,7.5,5.6,14.3,11.8,18.7L26.4,216.7z" id="XMLID_4250_"/></g><g id="XMLID_2197_"><path class="st0" d="M27,225.3c-7-3.8-12.1-11-13.3-18.9l1-0.2c1.2,7.6,6.1,14.5,12.8,18.1L27,225.3z" id="XMLID_4249_"/></g><g id="XMLID_2196_"><path class="st0" d="M25.5,230.7c-6.2-3.6-11-9.1-13.7-15.7l0.9-0.4c2.6,6.4,7.3,11.8,13.2,15.2L25.5,230.7z" id="XMLID_4248_"/></g><g id="XMLID_2195_"><path class="st0" d="M25,238.7c-6.2-4.2-11.3-10.3-14.2-17.2l0.9-0.4c2.9,6.7,7.8,12.7,13.8,16.7L25,238.7z" id="XMLID_4247_"/></g><g id="XMLID_2194_"><path class="st0" d="M23.4,246.6c-5.8-5.2-11.1-11.1-15.6-17.5l0.8-0.6c4.5,6.3,9.7,12.2,15.5,17.4L23.4,246.6z     " id="XMLID_4246_"/></g><g id="XMLID_2193_"><path class="st0" d="M23.4,256.3c-6-4.5-11.4-9.7-16.1-15.6l0.8-0.6c4.6,5.8,9.9,11,15.9,15.5L23.4,256.3z" id="XMLID_4245_"/></g><g id="XMLID_2192_"><path class="st0" d="M22.9,265.8c-6-3.5-11.4-8.2-15.5-13.8l0.8-0.6c4.1,5.4,9.3,10.1,15.2,13.5L22.9,265.8z" id="XMLID_4244_"/></g><g id="XMLID_2191_"><path class="st0" d="M28.5,276.4c-7.2-2.4-13.6-7.2-18.1-13.3l0.8-0.6c4.4,6,10.6,10.6,17.6,13L28.5,276.4z" id="XMLID_4243_"/></g><g id="XMLID_2190_"><path class="st0" d="M26.6,286.2c-6.9-2.7-13.4-6.9-18.7-12l0.7-0.7c5.2,5.1,11.6,9.1,18.3,11.8L26.6,286.2z" id="XMLID_4242_"/></g><g id="XMLID_2189_"><path class="st0" d="M26,292.2c-6.2-2.7-12.3-5.9-18.1-9.5l0.5-0.8c5.7,3.6,11.8,6.7,17.9,9.4L26,292.2z" id="XMLID_4241_"/></g><g id="XMLID_2188_"><path class="st0" d="M26.9,306.3c-4.4-2.3-8.7-5.1-12.7-8.1c-2.5-1.9-5-4.2-5.7-7.2l1-0.2     c0.6,2.7,2.9,4.8,5.3,6.6c3.9,3,8.2,5.7,12.5,8L26.9,306.3z" id="XMLID_4240_"/></g><g id="XMLID_2187_"><path class="st0" d="M33.5,318.2c-8.3-3.4-15.9-8.1-22.7-14l0.7-0.8c6.7,5.8,14.2,10.4,22.4,13.8L33.5,318.2z" id="XMLID_4239_"/></g><g id="XMLID_2186_"><path class="st0" d="M43.1,327.8c-8.7-2.7-17-6.6-24.6-11.5l0.5-0.8c7.6,4.9,15.8,8.7,24.4,11.4L43.1,327.8z" id="XMLID_4238_"/></g><g id="XMLID_2185_"><path class="st0" d="M42.6,335.8c-7.2-2-14.1-4.9-20.6-8.6l0.5-0.9c6.4,3.6,13.3,6.5,20.4,8.5L42.6,335.8z" id="XMLID_4237_"/></g><g id="XMLID_2184_"><path class="st0" d="M42,339.4c-6.7-1.9-13.5-4.1-20-6.6l0.4-0.9c6.5,2.5,13.2,4.7,19.9,6.6L42,339.4z" id="XMLID_4236_"/></g><g id="XMLID_2183_"><rect class="st0" height="1" id="XMLID_4235_" transform="matrix(0.9628 0.2702 -0.2702 0.9628 94.5984 3.0604)" width="19.8" x="26.3" y="344.6"/></g><g id="XMLID_2182_"><path class="st0" d="M48.9,363.5c-7-2.9-13.9-6.3-20.5-10.2l0.5-0.9c6.5,3.9,13.3,7.3,20.3,10.2L48.9,363.5z" id="XMLID_4234_"/></g><g id="XMLID_2181_"><path class="st0" d="M57.2,373.2c-8.6-0.2-16.9-3.4-23.4-8.9l0.6-0.8c6.3,5.4,14.4,8.5,22.8,8.7L57.2,373.2z" id="XMLID_4233_"/></g><g id="XMLID_2180_"><path class="st0" d="M70.6,380.9c-9.6-1.2-19.2-2.9-28.5-5.1l0.2-1c9.3,2.2,18.9,3.9,28.4,5L70.6,380.9z" id="XMLID_4232_"/></g><g id="XMLID_2179_"><path class="st0" d="M75.1,391.4c-8.8-1.2-17.4-3.6-25.6-7.2l0.4-0.9c8.1,3.6,16.6,5.9,25.3,7.1L75.1,391.4z" id="XMLID_4231_"/></g><g id="XMLID_2178_"><rect class="st0" height="1" id="XMLID_4230_" transform="matrix(0.9846 0.1749 -0.1749 0.9846 69.7978 -5.3841)" width="34" x="48.4" y="392.8"/></g><g id="XMLID_2177_"><path class="st0" d="M85.1,409c-8.7-1.4-17.3-3.7-25.5-6.7l0.3-0.9c8.2,3,16.7,5.3,25.4,6.7L85.1,409z" id="XMLID_4229_"/></g><g id="XMLID_2176_"><rect class="st0" height="1" id="XMLID_4228_" transform="matrix(0.9732 0.2301 -0.2301 0.9732 97.4186 -6.8207)" width="33.5" x="61.2" y="413.8"/></g><g id="XMLID_2175_"><path class="st0" d="M106.2,427.8c-10.8-0.3-22.9-0.7-33.4-5.8l0.4-0.9c10.2,5,22.3,5.4,33,5.7L106.2,427.8z" id="XMLID_4227_"/></g><g id="XMLID_2174_"><path class="st0" d="M107.5,435.1c-9.5,0-19.1-1.1-28.4-3.2l0.2-1c12.7,3,25.8,3.9,38.8,2.8l0.1,1     C114.6,434.9,111,435.1,107.5,435.1z" id="XMLID_4226_"/></g><g id="XMLID_2173_"><path class="st0" d="M122.2,442.6c-7.4,0-14.7-1.1-21.7-3.2l0.3-1c9.7,3,20.2,3.9,30.3,2.7l0.1,1     C128.3,442.5,125.3,442.6,122.2,442.6z" id="XMLID_4225_"/></g><g id="XMLID_2172_"><path class="st0" d="M130.9,450.4c-9.8,0-19.6-0.7-29.3-2.1l0.1-1c11.2,1.6,22.6,2.3,33.9,2.1l0,1     C134.1,450.4,132.5,450.4,130.9,450.4z" id="XMLID_4224_"/></g><g id="XMLID_2171_"><path class="st0" d="M132.9,461c-5.3,0-10.5-0.6-15.7-1.8c-0.2,0-0.3-0.2-0.4-0.4c0-0.2,0-0.4,0.2-0.5     c1.6-1.3,3.8-1.8,5.8-1.3l-0.2,1c-1.3-0.3-2.7-0.1-4,0.5c10.7,2.4,21.9,2,32.5-1l0.3,1C145.3,460.1,139.1,461,132.9,461z" id="XMLID_4223_"/></g><g id="XMLID_2170_"><path class="st0" d="M135.3,467.6c-1.7,0-3.4,0-5.1-0.1l0-1c11.2,0.4,22.4-0.5,33.4-2.6l0.2,1     C154.4,466.7,144.8,467.6,135.3,467.6z" id="XMLID_4222_"/></g><g id="XMLID_2169_"><path class="st0" d="M144.8,474.7l-0.1-1c12.6-1.4,25.4-3.1,37.9-5.1l0.2,1     C170.2,471.6,157.4,473.3,144.8,474.7z" id="XMLID_4221_"/></g><g id="XMLID_2168_"><path class="st0" d="M163.8,481.8l-0.3-1c10.5-3.1,21.3-5.5,32.1-7.1l0.1,1C185,476.4,174.3,478.7,163.8,481.8z     " id="XMLID_4220_"/></g><g id="XMLID_2167_"><path class="st0" d="M185.6,486.2c-1.7,0-3.4-0.2-5.1-0.7l0.3-1c5.5,1.7,11.1,0,17-1.8c4.8-1.5,9.8-3,14.7-2.5     l-0.1,1c-4.8-0.5-9.6,1-14.4,2.4C193.9,484.9,189.8,486.2,185.6,486.2z" id="XMLID_4219_"/></g><g id="XMLID_2166_"><rect class="st0" height="43.5" id="XMLID_4218_" transform="matrix(0.3402 0.9404 -0.9404 0.3402 599.0377 119.1115)" width="1" x="214.1" y="464.7"/></g><g id="XMLID_2165_"><path class="st0" d="M219.7,495.4l-0.1-1c9.1-0.8,18.1-2.6,26.8-5.3l0.3,1C238,492.8,228.9,494.6,219.7,495.4z" id="XMLID_4217_"/></g><g id="XMLID_2164_"><path class="st0" d="M235.8,504.8l-0.2-1c8-1.8,15.9-4.5,23.4-8l0.4,0.9C251.9,500.3,243.9,503,235.8,504.8z" id="XMLID_4216_"/></g><g id="XMLID_2159_"><path class="st0" d="M148.6,246c-0.1,0-0.1,0-0.2-0.1c-0.2-0.1-0.4-0.4-0.2-0.7c1-2.1,2.4-4,4.2-5.5     c0.2-0.2,0.5-0.2,0.7,0c0.2,0.2,0.2,0.5,0,0.7c-1.6,1.4-3,3.2-3.9,5.1C148.9,245.9,148.8,246,148.6,246z" id="XMLID_4203_"/></g><g id="XMLID_2158_"><path class="st0" d="M145.4,242.6c-0.1,0-0.3,0-0.3-0.1c-0.2-0.2-0.2-0.5,0-0.7l4.2-4.3c0.2-0.2,0.5-0.2,0.7,0     c0.2,0.2,0.2,0.5,0,0.7l-4.2,4.3C145.6,242.5,145.5,242.6,145.4,242.6z" id="XMLID_4202_"/></g><g id="XMLID_2157_"><path class="st0" d="M142.3,241.5c-0.1,0-0.1,0-0.2,0c-0.3-0.1-0.4-0.4-0.3-0.7c1-2.5,2.9-4.6,5.2-6     c0.2-0.1,0.5-0.1,0.7,0.2c0.1,0.2,0.1,0.5-0.2,0.7c-2.1,1.3-3.8,3.2-4.8,5.5C142.7,241.4,142.5,241.5,142.3,241.5z" id="XMLID_4201_"/></g><g id="XMLID_2156_"><path class="st0" d="M140.5,239.3c-0.1,0-0.2,0-0.3-0.1c-0.2-0.1-0.3-0.5-0.2-0.7c1.1-1.7,2.3-3.3,3.8-4.6     c0.2-0.2,0.5-0.2,0.7,0c0.2,0.2,0.2,0.5,0,0.7c-1.4,1.3-2.7,2.8-3.7,4.4C140.9,239.2,140.7,239.3,140.5,239.3z" id="XMLID_4200_"/></g><g id="XMLID_2155_"><path class="st0" d="M139.1,236.5c-0.1,0-0.2,0-0.3-0.1c-0.2-0.2-0.3-0.5-0.1-0.7c1.4-1.9,3-3.7,4.8-5.1     c0.2-0.2,0.5-0.1,0.7,0.1c0.2,0.2,0.1,0.5-0.1,0.7c-1.8,1.4-3.3,3.1-4.6,4.9C139.4,236.5,139.2,236.5,139.1,236.5z" id="XMLID_4199_"/></g><g id="XMLID_2154_"><path class="st0" d="M136.6,234.7c-0.1,0-0.1,0-0.2,0c-0.3-0.1-0.4-0.4-0.3-0.7c0.7-1.8,2-3.3,3.7-4.3     c0.2-0.1,0.5-0.1,0.7,0.2c0.1,0.2,0.1,0.5-0.2,0.7c-1.5,0.9-2.6,2.3-3.3,3.9C137,234.6,136.8,234.7,136.6,234.7z" id="XMLID_4198_"/></g><g id="XMLID_2153_"><path class="st0" d="M134.3,231.5c-0.1,0-0.2,0-0.3-0.1c-0.2-0.2-0.2-0.5,0-0.7c1.6-1.7,3.4-3.3,5.3-4.6     c0.2-0.2,0.5-0.1,0.7,0.1c0.2,0.2,0.1,0.5-0.1,0.7c-1.9,1.3-3.6,2.8-5.1,4.5C134.6,231.5,134.5,231.5,134.3,231.5z" id="XMLID_4197_"/></g><g id="XMLID_2152_"><path class="st0" d="M134,228.3c-0.1,0-0.3-0.1-0.4-0.2c-0.2-0.2-0.2-0.5,0-0.7l4-3.5c0.2-0.2,0.5-0.2,0.7,0     c0.2,0.2,0.2,0.5,0,0.7l-4,3.5C134.3,228.2,134.2,228.3,134,228.3z" id="XMLID_4196_"/></g><g id="XMLID_2151_"><path class="st0" d="M131.5,226c-0.1,0-0.2,0-0.3-0.1c-0.2-0.2-0.2-0.5,0-0.7c1.6-1.7,3.3-3.2,5.1-4.5     c0.2-0.2,0.5-0.1,0.7,0.1c0.2,0.2,0.1,0.5-0.1,0.7c-1.8,1.3-3.5,2.8-5,4.4C131.8,225.9,131.6,226,131.5,226z" id="XMLID_4195_"/></g><g id="XMLID_2150_"><path class="st0" d="M129.8,222.3c-0.2,0-0.3-0.1-0.4-0.2c-0.2-0.2-0.1-0.5,0.1-0.7l4.2-2.8     c0.2-0.2,0.5-0.1,0.7,0.1c0.2,0.2,0.1,0.5-0.1,0.7l-4.2,2.8C130,222.3,129.9,222.3,129.8,222.3z" id="XMLID_4194_"/></g><g id="XMLID_2149_"><path class="st0" d="M127,218.3c-0.2,0-0.3-0.1-0.4-0.2c-0.1-0.2-0.1-0.5,0.2-0.7l5.7-3.5     c0.2-0.1,0.5-0.1,0.7,0.2c0.1,0.2,0.1,0.5-0.2,0.7l-5.7,3.5C127.2,218.2,127.1,218.3,127,218.3z" id="XMLID_4193_"/></g><g id="XMLID_2148_"><path class="st0" d="M127,213.8c-0.2,0-0.3-0.1-0.4-0.3c-0.1-0.2,0-0.5,0.2-0.7c1.8-1,3.6-2.1,5.3-3.3     c0.2-0.2,0.5-0.1,0.7,0.1c0.2,0.2,0.1,0.5-0.1,0.7c-1.7,1.2-3.5,2.4-5.4,3.4C127.2,213.7,127.1,213.8,127,213.8z" id="XMLID_4192_"/></g><g id="XMLID_2147_"><path class="st0" d="M124.8,208c-0.2,0-0.3-0.1-0.4-0.3c-0.1-0.2,0-0.5,0.2-0.7l7.2-4c0.2-0.1,0.5,0,0.7,0.2     c0.1,0.2,0,0.5-0.2,0.7l-7.2,4C124.9,208,124.9,208,124.8,208z" id="XMLID_4191_"/></g><g id="XMLID_2146_"><path class="st0" d="M124.8,202.5c-0.2,0-0.4-0.1-0.5-0.4c-0.1-0.3,0.1-0.5,0.3-0.6c2.2-0.7,4.4-1.7,6.4-3     c0.2-0.1,0.5-0.1,0.7,0.1c0.2,0.2,0.1,0.5-0.1,0.7c-2.1,1.3-4.3,2.4-6.6,3.1C124.9,202.5,124.8,202.5,124.8,202.5z" id="XMLID_4190_"/></g><g id="XMLID_2145_"><path class="st0" d="M124,197.5c-0.2,0-0.4-0.1-0.5-0.4c-0.1-0.3,0.1-0.5,0.3-0.6c1.9-0.6,3.8-1.6,5.4-2.9     c0.2-0.2,0.5-0.1,0.7,0.1s0.1,0.5-0.1,0.7c-1.7,1.4-3.6,2.4-5.7,3.1C124.1,197.5,124.1,197.5,124,197.5z" id="XMLID_4189_"/></g><g id="XMLID_2144_"><path class="st0" d="M122,192.8c-0.2,0-0.4-0.1-0.5-0.4c-0.1-0.3,0.1-0.5,0.3-0.6c2.3-0.6,4.4-1.6,6.4-2.9     c0.2-0.2,0.5-0.1,0.7,0.1c0.2,0.2,0.1,0.5-0.1,0.7c-2,1.4-4.3,2.4-6.6,3.1C122.1,192.8,122.1,192.8,122,192.8z" id="XMLID_4188_"/></g><g id="XMLID_2143_"><path class="st0" d="M124,186.3c-0.3,0-0.5-0.2-0.5-0.5c0-0.3,0.2-0.5,0.5-0.5c1.9-0.2,3.8-1,5.2-2.3     c0.2-0.2,0.5-0.2,0.7,0c0.2,0.2,0.2,0.5,0,0.7C128.3,185.2,126.3,186.1,124,186.3C124.1,186.3,124.1,186.3,124,186.3z" id="XMLID_4187_"/></g><g id="XMLID_2142_"><path class="st0" d="M124.3,181.8c-0.2,0-0.5-0.2-0.5-0.4c0-0.3,0.1-0.5,0.4-0.6c1.5-0.2,3-0.7,4.4-1.4     c0.2-0.1,0.5,0,0.7,0.2c0.1,0.2,0,0.5-0.2,0.7C127.6,181,126,181.5,124.3,181.8C124.3,181.8,124.3,181.8,124.3,181.8z" id="XMLID_4186_"/></g><g id="XMLID_2141_"><path class="st0" d="M125.1,178.3c-0.2,0-0.3-0.1-0.4-0.2c-0.2-0.2-0.1-0.5,0.1-0.7c1.7-1.3,3.7-2.1,5.7-2.5     c0.3,0,0.5,0.1,0.6,0.4c0,0.3-0.1,0.5-0.4,0.6c-1.9,0.3-3.7,1.1-5.3,2.3C125.3,178.2,125.2,178.3,125.1,178.3z" id="XMLID_4185_"/></g><g id="XMLID_2140_"><path class="st0" d="M124.5,172.7c-0.2,0-0.5-0.2-0.5-0.4c0-0.3,0.1-0.5,0.4-0.6c2.1-0.3,4.2-0.9,6.2-1.8     c0.3-0.1,0.5,0,0.7,0.2c0.1,0.3,0,0.5-0.2,0.7C129,171.8,126.8,172.4,124.5,172.7C124.6,172.7,124.6,172.7,124.5,172.7z" id="XMLID_4184_"/></g><g id="XMLID_2139_"><path class="st0" d="M124.8,166.2c-0.2,0-0.4-0.2-0.5-0.4c-0.1-0.3,0.1-0.5,0.4-0.6l7-1.5     c0.3-0.1,0.5,0.1,0.6,0.4c0.1,0.3-0.1,0.5-0.4,0.6l-7,1.5C124.9,166.2,124.8,166.2,124.8,166.2z" id="XMLID_4183_"/></g><g id="XMLID_2138_"><path class="st0" d="M127,160.8c-0.2,0-0.5-0.2-0.5-0.4c0-0.3,0.2-0.5,0.4-0.6c2.1-0.3,4.2-0.8,6.2-1.4     c0.3-0.1,0.5,0.1,0.6,0.3c0.1,0.3-0.1,0.5-0.3,0.6C131.4,160,129.3,160.4,127,160.8C127.1,160.8,127.1,160.8,127,160.8z" id="XMLID_4182_"/></g><g id="XMLID_2137_"><path class="st0" d="M129.8,154.3c-0.2,0-0.4-0.1-0.4-0.3c-0.1-0.2,0-0.5,0.2-0.7c1.6-0.8,3.4-1.2,5.2-1.3     c0.3,0,0.5,0.2,0.5,0.5c0,0.3-0.2,0.5-0.5,0.5c-1.7,0-3.3,0.5-4.8,1.2C129.9,154.3,129.9,154.3,129.8,154.3z" id="XMLID_4181_"/></g><g id="XMLID_2136_"><path class="st0" d="M136.3,149.3h-6.8c-0.3,0-0.5-0.2-0.5-0.5s0.2-0.5,0.5-0.5h6.8c0.3,0,0.5,0.2,0.5,0.5     S136.6,149.3,136.3,149.3z" id="XMLID_4180_"/></g><g id="XMLID_2135_"><path class="st0" d="M138.5,144.8C138.5,144.8,138.5,144.8,138.5,144.8l-4.8-0.3c-0.3,0-0.5-0.3-0.5-0.5     c0-0.3,0.2-0.5,0.5-0.5l4.8,0.3c0.3,0,0.5,0.3,0.5,0.5C139,144.6,138.8,144.8,138.5,144.8z" id="XMLID_4179_"/></g><g id="XMLID_2134_"><path class="st0" d="M140.5,140.8C140.5,140.8,140.5,140.8,140.5,140.8l-4.5-0.3c-0.3,0-0.5-0.3-0.5-0.5     c0-0.3,0.3-0.5,0.5-0.5l4.5,0.3c0.3,0,0.5,0.3,0.5,0.5C141,140.6,140.8,140.8,140.5,140.8z" id="XMLID_4178_"/></g><g id="XMLID_2133_"><path class="st0" d="M145.3,136.8C145.3,136.8,145.2,136.8,145.3,136.8l-4.8-0.8c-0.3,0-0.5-0.3-0.4-0.6     c0-0.3,0.3-0.5,0.6-0.4l4.7,0.8c0.3,0,0.5,0.3,0.4,0.6C145.7,136.6,145.5,136.8,145.3,136.8z" id="XMLID_4177_"/></g><g id="XMLID_2132_"><path class="st0" d="M147.5,134.3c-0.1,0-0.2,0-0.3-0.1l-3.7-2.8c-0.2-0.2-0.3-0.5-0.1-0.7     c0.2-0.2,0.5-0.3,0.7-0.1l3.7,2.8c0.2,0.2,0.3,0.5,0.1,0.7C147.8,134.2,147.7,134.3,147.5,134.3z" id="XMLID_4176_"/></g><g id="XMLID_2131_"><path class="st0" d="M153.7,247c-0.4,0-0.8-0.3-1-0.6l-0.1-0.2l2.7-4.9c0.1-0.2,0.4-0.3,0.7-0.2     c0.2,0.1,0.3,0.4,0.2,0.7l-2.3,4.3c0.2,0.1,0.4,0.2,0.4,0.4c0,0.3-0.1,0.5-0.4,0.6C153.8,247,153.8,247,153.7,247z" id="XMLID_4175_"/></g><g id="XMLID_2130_"><path class="st0" d="M158.5,248.5c-0.1,0-0.2,0-0.3-0.1c-0.2-0.1-0.3-0.4-0.2-0.7c0.9-1.5,1.6-3,2.3-4.7     c0.1-0.3,0.4-0.4,0.6-0.3c0.3,0.1,0.4,0.4,0.3,0.6c-0.7,1.7-1.4,3.3-2.3,4.8C158.9,248.4,158.7,248.5,158.5,248.5z" id="XMLID_4174_"/></g><g id="XMLID_2129_"><path class="st0" d="M158.4,208c-0.2,0-0.3-0.1-0.4-0.2c-0.1-0.1-0.3-0.4,0-0.9c0.8-1.7,1.9-3.3,3.3-4.8     c0.2-0.2,0.5-0.2,0.7,0c0.2,0.2,0.2,0.5,0,0.7c-1.2,1.3-2.2,2.7-3,4.3c0.1,0.1,0.1,0.3,0.1,0.4c0,0.2-0.2,0.4-0.5,0.5     C158.5,208,158.4,208,158.4,208z" id="XMLID_4173_"/></g><g id="XMLID_2128_"><path class="st0" d="M154.8,206.3c-0.1,0-0.2,0-0.3-0.1c-0.2-0.2-0.2-0.5-0.1-0.7l4.5-5.3     c0.2-0.2,0.5-0.2,0.7-0.1c0.2,0.2,0.2,0.5,0.1,0.7l-4.5,5.3C155.1,206.2,154.9,206.3,154.8,206.3z" id="XMLID_4172_"/></g><g id="XMLID_2127_"><path class="st0" d="M151.8,203.8c-0.1,0-0.3,0-0.3-0.1c-0.2-0.2-0.2-0.5,0-0.7l3.6-3.7c0.2-0.2,0.5-0.2,0.7,0     c0.2,0.2,0.2,0.5,0,0.7l-3.6,3.7C152.1,203.7,151.9,203.8,151.8,203.8z" id="XMLID_4171_"/></g><g id="XMLID_2126_"><path class="st0" d="M149.8,200.5c-0.1,0-0.3,0-0.4-0.1c-0.2-0.2-0.2-0.5,0-0.7l3.3-3.3c0.2-0.2,0.5-0.2,0.7,0     s0.2,0.5,0,0.7l-3.3,3.3C150.1,200.5,149.9,200.5,149.8,200.5z" id="XMLID_4170_"/></g><g id="XMLID_2125_"><path class="st0" d="M146.6,197.5c-0.1,0-0.3-0.1-0.4-0.2c-0.2-0.2-0.1-0.5,0.1-0.7l4.1-3.2     c0.2-0.2,0.5-0.1,0.7,0.1c0.2,0.2,0.1,0.5-0.1,0.7l-4.1,3.2C146.8,197.5,146.7,197.5,146.6,197.5z" id="XMLID_4169_"/></g><g id="XMLID_2124_"><path class="st0" d="M145.3,194c-0.1,0-0.3-0.1-0.4-0.2c-0.2-0.2-0.1-0.5,0.1-0.7l4.3-3.5     c0.2-0.2,0.5-0.1,0.7,0.1c0.2,0.2,0.1,0.5-0.1,0.7l-4.2,3.5C145.5,194,145.4,194,145.3,194z" id="XMLID_4168_"/></g><g id="XMLID_2123_"><path class="st0" d="M144.3,189.8c-0.1,0-0.2,0-0.3-0.1c-0.2-0.2-0.3-0.5-0.1-0.7c1-1.4,2.4-2.6,4-3.3     c0.2-0.1,0.5,0,0.7,0.2c0.1,0.2,0,0.5-0.2,0.7c-1.4,0.7-2.7,1.8-3.6,3C144.6,189.7,144.5,189.8,144.3,189.8z" id="XMLID_4167_"/></g><g id="XMLID_2122_"><path class="st0" d="M144,185.8c-0.2,0-0.3-0.1-0.4-0.2c-0.2-0.2-0.1-0.5,0.1-0.7c1.7-1.2,3.5-2.2,5.4-3     c0.3-0.1,0.5,0,0.6,0.3c0.1,0.3,0,0.5-0.3,0.6c-1.8,0.7-3.6,1.7-5.2,2.9C144.3,185.7,144.1,185.8,144,185.8z" id="XMLID_4166_"/></g><g id="XMLID_2121_"><path class="st0" d="M144.3,180.7c-0.2,0-0.3-0.1-0.4-0.3c-0.1-0.2,0-0.5,0.2-0.7l4.8-2.7     c0.2-0.1,0.5,0,0.7,0.2c0.1,0.2,0,0.5-0.2,0.7l-4.8,2.7C144.4,180.7,144.4,180.7,144.3,180.7z" id="XMLID_4165_"/></g><g id="XMLID_2120_"><path class="st0" d="M144.5,176.5c-0.2,0-0.4-0.1-0.5-0.4c-0.1-0.3,0.1-0.5,0.3-0.6l4.6-1.3     c0.3-0.1,0.5,0.1,0.6,0.3c0.1,0.3-0.1,0.5-0.3,0.6l-4.6,1.3C144.6,176.5,144.6,176.5,144.5,176.5z" id="XMLID_4164_"/></g><g id="XMLID_2119_"><path class="st0" d="M146.3,173c-0.3,0-0.5-0.2-0.5-0.4c0-0.3,0.2-0.5,0.4-0.6c1.3-0.1,2.5-0.5,3.6-1.1     c0.2-0.1,0.5,0,0.7,0.2c0.1,0.2,0,0.5-0.2,0.7C149.1,172.4,147.7,172.8,146.3,173C146.3,173,146.3,173,146.3,173z" id="XMLID_4163_"/></g><g id="XMLID_2118_"><path class="st0" d="M147.3,169.3c-0.3,0-0.6,0-0.9-0.1c-0.3,0-0.5-0.3-0.4-0.6c0-0.3,0.3-0.5,0.6-0.4     c1,0.2,2.1,0,2.9-0.6c0.2-0.1,0.5-0.1,0.7,0.2c0.1,0.2,0.1,0.5-0.2,0.7C149.3,169,148.3,169.3,147.3,169.3z" id="XMLID_4162_"/></g><g id="XMLID_2117_"><path class="st0" d="M148,165.8c-0.2,0-0.5,0-0.7,0c-0.3,0-0.5-0.3-0.5-0.5c0-0.3,0.3-0.5,0.5-0.5     c1.1,0.1,2.3-0.1,3.3-0.4c0.3-0.1,0.5,0.1,0.6,0.3c0.1,0.3-0.1,0.5-0.3,0.6C150,165.6,149,165.8,148,165.8z" id="XMLID_4161_"/></g><g id="XMLID_2116_"><path class="st0" d="M151.3,163.2c-0.1,0-0.2,0-0.3,0c-0.3,0-0.5-0.3-0.5-0.5s0.3-0.5,0.5-0.5     c0.8,0.1,1.6-0.2,2.2-0.7c0.2-0.2,0.5-0.2,0.7,0c0.2,0.2,0.2,0.5,0,0.7C153.3,162.9,152.3,163.2,151.3,163.2z" id="XMLID_4160_"/></g><g id="XMLID_2115_"><path class="st0" d="M154.9,160.5c-0.1,0-0.3,0-0.4,0c-0.3-0.1-0.4-0.3-0.4-0.6c0.1-0.3,0.3-0.4,0.6-0.4     c0.3,0.1,0.6,0,0.9-0.2c0.2-0.1,0.5-0.1,0.7,0.2c0.1,0.2,0.1,0.5-0.2,0.7C155.7,160.4,155.3,160.5,154.9,160.5z" id="XMLID_4159_"/></g><g id="XMLID_2114_"><path class="st0" d="M150,130.6c-0.1,0-0.1,0-0.2,0c-1.3-0.6-2.6-1.3-3.8-2.1c-0.2-0.2-0.3-0.5-0.1-0.7     c0.2-0.2,0.5-0.3,0.7-0.1c1.2,0.8,2.4,1.4,3.7,2c0.3,0.1,0.4,0.4,0.3,0.7C150.4,130.5,150.2,130.6,150,130.6z" id="XMLID_4158_"/></g><g id="XMLID_2113_"><path class="st0" d="M179.7,226C179.7,226,179.6,226,179.7,226c-0.3,0-0.6-0.2-0.6-0.5c0-0.3,0.2-0.5,0.3-0.7     c3.4-5.8,5.9-12,7.7-18.4c0.1-0.3,0.4-0.4,0.6-0.3c0.3,0.1,0.4,0.3,0.3,0.6c-1.8,6.5-4.4,12.7-7.7,18.5c0,0.1,0.1,0.2,0,0.3     C180.2,225.8,179.9,226,179.7,226z" id="XMLID_4157_"/></g><g id="XMLID_2112_"><path class="st0" d="M180,213c-0.1,0-0.1,0-0.2,0c-0.2-0.1-0.4-0.4-0.2-0.7l3-6.3c0.1-0.3,0.4-0.4,0.7-0.2     c0.2,0.1,0.4,0.4,0.2,0.7l-3,6.3C180.4,212.9,180.2,213,180,213z" id="XMLID_4156_"/></g><g id="XMLID_2111_"><path class="st0" d="M330.7,240.6c-0.1,0-0.1,0-0.2,0c-0.3-0.1-0.4-0.4-0.3-0.7c0.9-2.2,2.5-4.1,4.5-5.3     c0.2-0.1,0.5-0.1,0.7,0.2c0.1,0.2,0.1,0.5-0.2,0.7c-1.8,1.1-3.3,2.9-4.1,4.9C331.1,240.5,330.9,240.6,330.7,240.6z" id="XMLID_4155_"/></g><g id="XMLID_2110_"><path class="st0" d="M328.3,236.3c-0.1,0-0.2,0-0.3-0.1c-0.2-0.1-0.3-0.4-0.2-0.7c0.9-1.5,2-2.8,3.4-3.9     c0.2-0.2,0.5-0.1,0.7,0.1c0.2,0.2,0.1,0.5-0.1,0.7c-1.3,1-2.3,2.2-3.1,3.6C328.6,236.2,328.5,236.3,328.3,236.3z" id="XMLID_4154_"/></g><g id="XMLID_2109_"><path class="st0" d="M326.1,232.3c-0.1,0-0.1,0-0.2,0c-0.3-0.1-0.4-0.4-0.3-0.7c0.6-1.5,1.6-2.7,2.9-3.7     c0.2-0.2,0.5-0.1,0.7,0.1c0.2,0.2,0.1,0.5-0.1,0.7c-1.1,0.9-2,2-2.6,3.3C326.4,232.2,326.3,232.3,326.1,232.3z" id="XMLID_4153_"/></g><g id="XMLID_2108_"><path class="st0" d="M322.8,228.7c-0.1,0-0.3-0.1-0.4-0.2c-0.2-0.2-0.2-0.5,0-0.7l3.8-3.4     c0.2-0.2,0.5-0.2,0.7,0c0.2,0.2,0.2,0.5,0,0.7l-3.8,3.4C323,228.7,322.9,228.7,322.8,228.7z" id="XMLID_4152_"/></g><g id="XMLID_2107_"><path class="st0" d="M320.5,225.2c-0.1,0-0.3-0.1-0.4-0.2c-0.2-0.2-0.2-0.5,0-0.7l3.7-3.3     c0.2-0.2,0.5-0.2,0.7,0c0.2,0.2,0.2,0.5,0,0.7l-3.7,3.3C320.8,225.2,320.6,225.2,320.5,225.2z" id="XMLID_4151_"/></g><g id="XMLID_2106_"><path class="st0" d="M316.3,221.8c-0.1,0-0.2,0-0.3-0.1c-0.2-0.2-0.2-0.5-0.1-0.7c1.1-1.4,2.6-2.5,4.2-3.3     c0.2-0.1,0.5,0,0.7,0.2c0.1,0.2,0,0.5-0.2,0.7c-1.5,0.7-2.8,1.8-3.9,3.1C316.6,221.7,316.4,221.8,316.3,221.8z" id="XMLID_4150_"/></g><g id="XMLID_2105_"><path class="st0" d="M315.3,217.7c-0.1,0-0.3-0.1-0.4-0.2c-0.2-0.2-0.2-0.5,0-0.7l4.5-4c0.2-0.2,0.5-0.2,0.7,0     c0.2,0.2,0.2,0.5,0,0.7l-4.5,4C315.5,217.7,315.4,217.7,315.3,217.7z" id="XMLID_4149_"/></g><g id="XMLID_2104_"><path class="st0" d="M314,212.8c-0.1,0-0.2,0-0.3-0.1c-0.2-0.2-0.2-0.5,0-0.7c1.1-1.2,2.3-2.3,3.6-3.3     c0.2-0.2,0.5-0.1,0.7,0.1c0.2,0.2,0.1,0.5-0.1,0.7c-1.3,0.9-2.4,2-3.4,3.2C314.3,212.7,314.2,212.8,314,212.8z" id="XMLID_4148_"/></g><g id="XMLID_2103_"><path class="st0" d="M312,207.2c-0.1,0-0.3-0.1-0.4-0.2c-0.2-0.2-0.1-0.5,0.1-0.7l3.8-3     c0.2-0.2,0.5-0.1,0.7,0.1c0.2,0.2,0.1,0.5-0.1,0.7l-3.8,3C312.2,207.2,312.1,207.2,312,207.2z" id="XMLID_4147_"/></g><g id="XMLID_2102_"><path class="st0" d="M310.3,201c-0.2,0-0.3-0.1-0.4-0.2c-0.2-0.2-0.1-0.5,0.1-0.7l5.1-3.7     c0.2-0.2,0.5-0.1,0.7,0.1c0.2,0.2,0.1,0.5-0.1,0.7l-5.1,3.7C310.5,200.9,310.4,201,310.3,201z" id="XMLID_4146_"/></g><g id="XMLID_2101_"><path class="st0" d="M310.8,195.3c-0.2,0-0.3-0.1-0.4-0.2c-0.2-0.2-0.1-0.5,0.1-0.7l4-2.7     c0.2-0.2,0.5-0.1,0.7,0.1s0.1,0.5-0.1,0.7l-4,2.7C311,195.2,310.9,195.3,310.8,195.3z" id="XMLID_4145_"/></g><g id="XMLID_2100_"><path class="st0" d="M310.5,190.7c-0.2,0-0.4-0.1-0.5-0.3c-0.1-0.3,0-0.5,0.3-0.7c1.3-0.5,2.4-1.3,3.5-2.3     c0.2-0.2,0.5-0.2,0.7,0c0.2,0.2,0.2,0.5,0,0.7c-1.1,1-2.4,1.9-3.8,2.5C310.7,190.7,310.6,190.7,310.5,190.7z" id="XMLID_4144_"/></g><g id="XMLID_2099_"><path class="st0" d="M309.3,185.2c-0.2,0-0.3-0.1-0.4-0.2c-0.1-0.2-0.1-0.5,0.2-0.7l4.6-2.8c0-0.1,0-0.1,0-0.2     c0-0.3,0.2-0.5,0.5-0.5c0.3,0,0.5,0.2,0.6,0.4c0.1,0.4-0.2,0.9-0.5,1.1l-4.7,2.8C309.4,185.2,309.3,185.2,309.3,185.2z" id="XMLID_4143_"/></g><g id="XMLID_2098_"><path class="st0" d="M309.8,179.7c-0.3,0-0.5-0.2-0.5-0.5c0-0.3,0.2-0.5,0.5-0.5c1.8-0.1,3.5-0.9,4.8-2.1     c0-0.1,0-0.4,0-0.6c0-0.5-0.1-1.2,0.5-1.5c0.3-0.1,0.5,0,0.7,0.3c0.1,0.3,0,0.5-0.3,0.7c0,0,0.1,0.3,0.1,0.4c0,0.4,0.1,1-0.3,1.4     C313.8,178.7,311.9,179.5,309.8,179.7C309.8,179.7,309.8,179.7,309.8,179.7z" id="XMLID_4142_"/></g><g id="XMLID_2097_"><path class="st0" d="M312,173.9c-0.2,0-0.3-0.1-0.4-0.3c-0.1-0.2,0-0.5,0.2-0.7l4.1-2.3c0.2-0.1,0.5,0,0.7,0.2     s0,0.5-0.2,0.7l-4.1,2.3C312.1,173.9,312.1,173.9,312,173.9z" id="XMLID_4141_"/></g><g id="XMLID_2096_"><path class="st0" d="M313,167.6c-0.2,0-0.4-0.1-0.5-0.3c-0.1-0.3,0-0.5,0.3-0.7l3.9-1.7c0.3-0.1,0.5,0,0.7,0.3     c0.1,0.3,0,0.5-0.3,0.7l-3.9,1.7C313.1,167.6,313.1,167.6,313,167.6z" id="XMLID_4140_"/></g><g id="XMLID_2095_"><path class="st0" d="M314.3,162.2c-0.3,0-0.5-0.2-0.5-0.5c0-0.3,0.2-0.5,0.5-0.5c1.3-0.1,2.5-0.6,3.5-1.3     c0.2-0.2,0.5-0.1,0.7,0.1c0.2,0.2,0.1,0.5-0.1,0.7C317.2,161.6,315.8,162.1,314.3,162.2C314.3,162.2,314.3,162.2,314.3,162.2z" id="XMLID_4139_"/></g><g id="XMLID_2094_"><path class="st0" d="M316.6,157.5c-0.2,0-0.3-0.1-0.4-0.2c-0.1-0.2-0.1-0.5,0.2-0.7l2.5-1.5     c0.2-0.1,0.5-0.1,0.7,0.2c0.1,0.2,0.1,0.5-0.2,0.7l-2.5,1.5C316.7,157.5,316.7,157.5,316.6,157.5z" id="XMLID_4138_"/></g><g id="XMLID_2093_"><path class="st0" d="M316.8,152c-0.2,0-0.5-0.2-0.5-0.4c0-0.3,0.2-0.5,0.4-0.6c0.8-0.1,1.6-0.4,2.3-0.9     c0.2-0.2,0.5-0.1,0.7,0.1c0.2,0.2,0.1,0.5-0.1,0.7C318.8,151.5,317.8,151.9,316.8,152C316.8,152,316.8,152,316.8,152z" id="XMLID_4137_"/></g><g id="XMLID_2092_"><path class="st0" d="M320.6,147.5c-0.2,0-0.4,0-0.5,0c-0.3,0-0.5-0.3-0.5-0.5c0-0.3,0.3-0.5,0.5-0.5     c1.5,0.1,3-0.3,4.3-1c0.2-0.1,0.5-0.1,0.7,0.2c0.1,0.2,0.1,0.5-0.2,0.7C323.6,147.1,322.1,147.5,320.6,147.5z" id="XMLID_4136_"/></g><g id="XMLID_2091_"><path class="st0" d="M326.3,142h-4c-0.3,0-0.5-0.2-0.5-0.5s0.2-0.5,0.5-0.5h4c0.3,0,0.5,0.2,0.5,0.5     S326.6,142,326.3,142z" id="XMLID_4135_"/></g><g id="XMLID_2090_"><path class="st0" d="M328.3,137.5C328.3,137.5,328.3,137.5,328.3,137.5l-3-0.3c-0.3,0-0.5-0.3-0.5-0.5     c0-0.3,0.3-0.5,0.5-0.5l3,0.3c0.3,0,0.5,0.3,0.5,0.5C328.8,137.3,328.6,137.5,328.3,137.5z" id="XMLID_4134_"/></g><g id="XMLID_2089_"><path class="st0" d="M328.9,133.3c-0.9,0-1.9-0.2-2.8-0.6c-0.3-0.1-0.4-0.4-0.3-0.7s0.4-0.4,0.7-0.3     c0.8,0.3,1.7,0.5,2.5,0.5c0.3,0,0.5,0.2,0.5,0.5c0,0.3-0.2,0.5-0.5,0.5C329,133.3,328.9,133.3,328.9,133.3z" id="XMLID_4133_"/></g><g id="XMLID_2088_"><path class="st0" d="M331,130.1C331,130.1,331,130.1,331,130.1l-2.8-0.3c-0.3,0-0.5-0.3-0.4-0.5     c0-0.3,0.3-0.5,0.5-0.4l2.7,0.3c0.3,0,0.5,0.3,0.4,0.5C331.5,129.9,331.3,130.1,331,130.1z" id="XMLID_4132_"/></g><g id="XMLID_2087_"><path class="st0" d="M334.8,126.8c0,0-0.1,0-0.1,0c-1-0.3-2-0.3-3,0c-0.3,0.1-0.5-0.1-0.6-0.4     c-0.1-0.3,0.1-0.5,0.4-0.6c1.2-0.3,2.4-0.3,3.5,0c0.3,0.1,0.4,0.4,0.3,0.6C335.2,126.7,335,126.8,334.8,126.8z" id="XMLID_4131_"/></g><g id="XMLID_2086_"><path class="st0" d="M339.2,126.4c-0.1,0-0.2,0-0.2-0.1l-3.8-2.1c-0.2-0.1-0.3-0.4-0.2-0.7s0.4-0.3,0.7-0.2     l3.8,2.1c0.2,0.1,0.3,0.4,0.2,0.7C339.6,126.3,339.4,126.4,339.2,126.4z" id="XMLID_4130_"/></g><g id="XMLID_2085_"><path class="st0" d="M343.5,122.3C343.5,122.3,343.5,122.3,343.5,122.3l-3-0.2c-0.3,0-0.5-0.3-0.5-0.5     s0.3-0.5,0.5-0.5l3,0.2c0.3,0,0.5,0.3,0.5,0.5C344,122.1,343.8,122.3,343.5,122.3z" id="XMLID_4129_"/></g><g id="XMLID_2084_"><path class="st0" d="M345.8,121.1c-0.9,0-1.7-0.5-2.1-1.3c-0.1-0.2,0-0.5,0.2-0.7s0.5,0,0.7,0.2     c0.2,0.5,0.8,0.8,1.3,0.8c0.3,0,0.5,0.2,0.5,0.5S346.1,121,345.8,121.1C345.8,121.1,345.8,121.1,345.8,121.1z" id="XMLID_4128_"/></g><g id="XMLID_2083_"><path class="st0" d="M348.3,120c-0.1,0-0.2,0-0.3-0.1l-0.8-0.5c-0.2-0.2-0.3-0.5-0.1-0.7s0.5-0.3,0.7-0.1     l0.8,0.5c0.2,0.2,0.3,0.5,0.1,0.7C348.6,119.9,348.5,120,348.3,120z" id="XMLID_4127_"/></g><g id="XMLID_2082_"><path class="st0" d="M362.5,238.7c-0.1,0-0.3-0.1-0.4-0.2c-0.2-0.2-0.1-0.5,0.1-0.7c4.6-3.8,8.6-8.2,11.8-13.2     c0.2-0.2,0.5-0.3,0.7-0.2c0.2,0.1,0.3,0.5,0.2,0.7c-3.3,5.1-7.3,9.7-12.1,13.5C362.8,238.7,362.6,238.7,362.5,238.7z" id="XMLID_4126_"/></g><g id="XMLID_2081_"><path class="st0" d="M361.2,229.7c-0.1,0-0.2,0-0.3-0.1c-0.2-0.1-0.3-0.4-0.2-0.7l4.3-7.2     c0.1-0.2,0.4-0.3,0.7-0.2c0.2,0.1,0.3,0.4,0.2,0.7l-4.3,7.2C361.6,229.7,361.4,229.7,361.2,229.7z" id="XMLID_4125_"/></g><g id="XMLID_2080_"><path class="st0" d="M343.3,199.3c-0.1,0-0.2,0-0.3-0.1c-0.2-0.1-0.3-0.4-0.2-0.7c1.6-2.7,3.6-5.3,5.7-7.6     c0.2-0.2,0.5-0.2,0.7,0c0.2,0.2,0.2,0.5,0,0.7c-2.1,2.3-4,4.8-5.6,7.5C343.7,199.2,343.5,199.3,343.3,199.3z" id="XMLID_4124_"/></g><g id="XMLID_2079_"><path class="st0" d="M341.7,195.7c-0.1,0-0.2,0-0.3-0.1c-0.2-0.2-0.3-0.5-0.1-0.7l4.1-5.4     c0.2-0.2,0.5-0.3,0.7-0.1c0.2,0.2,0.3,0.5,0.1,0.7l-4.1,5.4C342,195.6,341.9,195.7,341.7,195.7z" id="XMLID_4123_"/></g><g id="XMLID_2078_"><path class="st0" d="M339.5,192.3c-0.1,0-0.2,0-0.3-0.1c-0.2-0.2-0.3-0.5-0.1-0.7l2-2.7     c0.2-0.2,0.5-0.3,0.7-0.1c0.2,0.2,0.3,0.5,0.1,0.7l-2,2.8C339.9,192.2,339.7,192.3,339.5,192.3z" id="XMLID_4122_"/></g><g id="XMLID_2077_"><path class="st0" d="M336.5,190.5c-0.1,0-0.2,0-0.3-0.1c-0.2-0.2-0.2-0.5-0.1-0.7l1.3-1.5     c0.2-0.2,0.5-0.2,0.7-0.1c0.2,0.2,0.2,0.5,0.1,0.7l-1.3,1.5C336.8,190.5,336.7,190.5,336.5,190.5z" id="XMLID_4121_"/></g><g id="XMLID_2076_"><path class="st0" d="M335.8,188.5c-0.1,0-0.2,0-0.3-0.1c-0.2-0.2-0.3-0.5-0.1-0.7c1.1-1.6,2.4-2.9,3.8-4.1     c0.2-0.2,0.5-0.1,0.7,0.1c0.2,0.2,0.1,0.5-0.1,0.7c-1.4,1.1-2.6,2.4-3.6,3.9C336.1,188.5,336,188.5,335.8,188.5z" id="XMLID_4120_"/></g><g id="XMLID_2075_"><path class="st0" d="M333.3,185.3c-0.1,0-0.3,0-0.4-0.1c-0.2-0.2-0.2-0.5,0-0.7l2.7-2.8c0.2-0.2,0.5-0.2,0.7,0     c0.2,0.2,0.2,0.5,0,0.7l-2.7,2.8C333.5,185.2,333.4,185.3,333.3,185.3z" id="XMLID_4119_"/></g><g id="XMLID_2074_"><path class="st0" d="M332.8,182c-0.1,0-0.2,0-0.3-0.1c-0.2-0.2-0.2-0.5-0.1-0.7l2.5-3c0.2-0.2,0.5-0.2,0.7-0.1     c0.2,0.2,0.2,0.5,0.1,0.7l-2.5,3C333.1,182,332.9,182,332.8,182z" id="XMLID_4118_"/></g><g id="XMLID_2073_"><path class="st0" d="M331,179.3c-0.1,0-0.2,0-0.3-0.1c-0.2-0.1-0.3-0.5-0.2-0.7c1.2-1.9,2.8-3.5,4.7-4.6     c0.2-0.1,0.5-0.1,0.7,0.2c0.1,0.2,0.1,0.5-0.2,0.7c-1.8,1.1-3.3,2.5-4.4,4.3C331.4,179.2,331.2,179.3,331,179.3z" id="XMLID_4117_"/></g><g id="XMLID_2072_"><path class="st0" d="M333.3,174.3c-0.1,0-0.3,0-0.4-0.1c-0.2-0.2-0.2-0.5,0-0.7l3.3-3.3c0.2-0.2,0.5-0.2,0.7,0     s0.2,0.5,0,0.7l-3.3,3.3C333.6,174.2,333.4,174.3,333.3,174.3z" id="XMLID_4116_"/></g><g id="XMLID_2071_"><path class="st0" d="M333.8,171c-0.1,0-0.2,0-0.3-0.1c-0.2-0.2-0.2-0.5,0-0.7c1.1-1.3,2.4-2.4,3.9-3.3     c0.2-0.1,0.5-0.1,0.7,0.1c0.2,0.2,0.1,0.5-0.1,0.7c-1.4,0.9-2.6,1.9-3.7,3.1C334.1,171,333.9,171,333.8,171z" id="XMLID_4115_"/></g><g id="XMLID_2070_"><path class="st0" d="M334.3,166.8c-0.1,0-0.3-0.1-0.4-0.2c-0.2-0.2-0.1-0.5,0.1-0.7l3.2-2.5     c0.2-0.2,0.5-0.1,0.7,0.1c0.2,0.2,0.1,0.5-0.1,0.7l-3.2,2.5C334.5,166.7,334.4,166.8,334.3,166.8z" id="XMLID_4114_"/></g><g id="XMLID_2069_"><path class="st0" d="M335.5,163.8c-0.1,0-0.2,0-0.3-0.1c-0.2-0.2-0.2-0.5,0-0.7c0.9-1,2-1.9,3.1-2.6     c0.2-0.1,0.5-0.1,0.7,0.2c0.1,0.2,0.1,0.5-0.2,0.7c-1.1,0.7-2.1,1.5-2.9,2.4C335.8,163.7,335.7,163.8,335.5,163.8z" id="XMLID_4113_"/></g><g id="XMLID_2068_"><path class="st0" d="M337.5,159.3c-0.2,0-0.4-0.1-0.5-0.3c-0.1-0.3,0-0.5,0.3-0.7c1-0.4,1.9-1,2.7-1.6     c0.2-0.2,0.5-0.1,0.7,0.1c0.2,0.2,0.1,0.5-0.1,0.7c-0.9,0.7-1.9,1.3-2.9,1.7C337.7,159.2,337.6,159.3,337.5,159.3z" id="XMLID_4112_"/></g><g id="XMLID_2067_"><path class="st0" d="M340.8,155.8c-0.1,0-0.3,0-0.4-0.1c-0.2-0.2-0.2-0.5,0-0.7l1-1c0.2-0.2,0.5-0.2,0.7,0     c0.2,0.2,0.2,0.5,0,0.7l-1,1C341.1,155.7,340.9,155.8,340.8,155.8z" id="XMLID_4111_"/></g><g id="XMLID_2066_"><path class="st0" d="M343.8,152.5c-0.1,0-0.3-0.1-0.4-0.2c-0.2-0.2-0.1-0.5,0.1-0.7l1.2-1     c0.2-0.2,0.5-0.1,0.7,0.1c0.2,0.2,0.1,0.5-0.1,0.7l-1.3,1C344,152.5,343.9,152.5,343.8,152.5z" id="XMLID_4110_"/></g><g id="XMLID_2065_"><path class="st0" d="M366.1,163.3c-0.1,0-0.3-0.1-0.4-0.2l-7.8-9c-0.2-0.2-0.2-0.5,0.1-0.7     c0.2-0.2,0.5-0.2,0.7,0.1l7.8,9c0.2,0.2,0.2,0.5-0.1,0.7C366.3,163.2,366.2,163.3,366.1,163.3z" id="XMLID_4109_"/></g><g id="XMLID_2064_"><path class="st0" d="M358.6,164.5c-0.1,0-0.1,0-0.2-0.1c-0.2-0.1-0.4-0.4-0.2-0.7l1-2c0.1-0.2,0.4-0.4,0.7-0.2     c0.2,0.1,0.4,0.4,0.2,0.7l-1,2C359,164.4,358.8,164.5,358.6,164.5z" id="XMLID_4108_"/></g><g id="XMLID_2063_"><path class="st0" d="M354.3,167.8c-0.1,0-0.1,0-0.2,0c-0.3-0.1-0.4-0.4-0.3-0.6l0.8-2c0.1-0.3,0.4-0.4,0.6-0.3     c0.3,0.1,0.4,0.4,0.3,0.6l-0.8,2C354.7,167.6,354.5,167.8,354.3,167.8z" id="XMLID_4107_"/></g><g id="XMLID_2062_"><path class="st0" d="M166.4,55.2c-0.2,0-0.4-0.1-0.4-0.3c-0.1-0.2,0-0.5,0.2-0.7c28.7-14.6,62.4-14.5,92-14.4     c9.2,0,20.6,0.1,29.3,5.9l0.8,0.5l-3.8,1.6c-0.3,0.1-0.5,0-0.7-0.3c-0.1-0.3,0-0.5,0.3-0.7l2.1-0.9c-8.4-5.2-19.2-5.2-28-5.3     c-29.6-0.1-63.1-0.3-91.6,14.3C166.6,55.2,166.5,55.2,166.4,55.2z" id="XMLID_4106_"/></g><g id="XMLID_2061_"><path class="st0" d="M243.2,76C243.2,76,243.1,76,243.2,76c-0.3,0-0.5-0.2-0.5-0.5c0.1-2.7,1.7-5,3.3-7.2     c0.5-0.6,0.9-1.3,1.3-1.9c1.8-2.9,2.5-6.7,0.2-8.5c-1.3-1-3.2-1.1-5-1.1c-7.8,0.3-15.8,2.1-22.9,5.2c-0.3,0.1-0.5,0-0.7-0.3     c-0.1-0.3,0-0.5,0.3-0.7c7.3-3.2,15.4-5.1,23.3-5.3c2-0.1,4.1,0,5.6,1.3c2.7,2.2,2.1,6.6,0,9.9c-0.4,0.7-0.9,1.3-1.3,2     c-1.5,2.2-3,4.2-3.1,6.7C243.6,75.8,243.4,76,243.2,76z" id="XMLID_4105_"/></g><g id="XMLID_2060_"><path class="st0" d="M71.2,318.2c-0.1,0-0.3-0.1-0.4-0.2l-16-18c-0.2-0.2-0.2-0.5,0-0.7c0.2-0.2,0.5-0.2,0.7,0     l16,18c0.2,0.2,0.2,0.5,0,0.7C71.4,318.2,71.3,318.2,71.2,318.2z" id="XMLID_4104_"/></g><g id="XMLID_2059_"><path class="st0" d="M95.4,301.9c-3.5,0-7.2-2.1-9.7-5.6c-2.4-3.5-3.5-7.9-4.4-11.7c-0.1-0.3,0.1-0.5,0.4-0.6     c0.3-0.1,0.5,0.1,0.6,0.4c0.9,3.9,1.9,8,4.3,11.4c2.5,3.6,6.5,5.7,10,5.1c0.3,0,0.5,0.1,0.6,0.4c0,0.3-0.1,0.5-0.4,0.6     C96.3,301.8,95.8,301.9,95.4,301.9z" id="XMLID_4103_"/></g><g id="XMLID_2058_"><path class="st0" d="M359.5,287.3c-23.6,0-47.4-6.9-67.4-19.5c-0.2-0.1-0.3-0.5-0.2-0.7     c0.1-0.2,0.5-0.3,0.7-0.2c20.8,13.2,45.9,20.1,70.6,19.3c0.3,0,0.5,0.2,0.5,0.5c0,0.3-0.2,0.5-0.5,0.5     C362,287.3,360.8,287.3,359.5,287.3z" id="XMLID_4102_"/></g><g id="XMLID_2057_"><path class="st0" d="M420.2,278.9c-0.1,0-0.2,0-0.3-0.1c-0.2-0.2-0.3-0.5-0.1-0.7c11-15.8,24.3-29.9,39.4-41.8     c0.2-0.2,0.5-0.1,0.7,0.1c0.2,0.2,0.1,0.5-0.1,0.7c-15.1,11.9-28.2,25.9-39.2,41.6C420.5,278.9,420.3,278.9,420.2,278.9z" id="XMLID_4101_"/></g><g id="XMLID_2056_"><path class="st0" d="M461.3,201c-0.2,0-0.3-0.1-0.4-0.2l-18.5-29.3c2,4.5,4.5,8.7,7.6,12.5     c0.2,0.2,0.1,0.5-0.1,0.7c-0.2,0.2-0.5,0.1-0.7-0.1c-4.2-5.2-7.4-11.1-9.6-17.5l-1.3-3.9l23.4,37c0.1,0.2,0.1,0.5-0.2,0.7     C461.5,201,461.4,201,461.3,201z" id="XMLID_4100_"/></g><g id="XMLID_2053_"><path class="st0" d="M277.6,468.6l-0.6-0.8c2.3-1.6,4.8-2.9,7.4-4.1l0.4,0.9     C282.3,465.7,279.9,467.1,277.6,468.6z" id="XMLID_4095_"/></g><g id="XMLID_2052_"><path class="st0" d="M273.6,465.4l-0.5-0.9c2.7-1.6,5.5-2.9,8.3-4l0.4,0.9C278.9,462.6,276.2,463.9,273.6,465.4     z" id="XMLID_4094_"/></g><g id="XMLID_2051_"><path class="st0" d="M271.6,462.7l-0.5-0.9c2.9-1.8,5.9-3.3,9.1-4.6l0.4,0.9C277.4,459.5,274.4,461,271.6,462.7     z" id="XMLID_4093_"/></g><g id="XMLID_2050_"><path class="st0" d="M271.3,459l-0.5-0.9c2.7-1.5,5.6-2.7,8.6-3.6l0.3,1C276.8,456.3,273.9,457.5,271.3,459z" id="XMLID_4092_"/></g><g id="XMLID_2049_"><rect class="st0" height="9.6" id="XMLID_4091_" transform="matrix(0.3395 0.9406 -0.9406 0.3395 609.3094 39.4839)" width="1" x="276" y="448.8"/></g><g id="XMLID_2048_"><rect class="st0" height="7.2" id="XMLID_4090_" transform="matrix(0.3303 0.9439 -0.9439 0.3303 610.5377 42.683)" width="1" x="274.7" y="448"/></g><g id="XMLID_2047_"><path class="st0" d="M270.7,450l-0.3-0.9c3.4-1.2,7-2.1,10.6-2.8l0.2,1C277.6,447.9,274.1,448.8,270.7,450z" id="XMLID_4089_"/></g><g id="XMLID_2046_"><path class="st0" d="M271.5,446.7l-0.4-0.9c2-0.9,4.2-1.7,6.3-2.3l0.3,1C275.6,445.1,273.5,445.8,271.5,446.7z" id="XMLID_4088_"/></g><g id="XMLID_2045_"><path class="st0" d="M269.8,443.2l-0.4-0.9c2.7-1.3,5.6-2.4,8.6-3.1l0.2,1C275.3,440.9,272.4,441.9,269.8,443.2     z" id="XMLID_4087_"/></g><g id="XMLID_2044_"><path class="st0" d="M270.2,440.8l-0.2-1c2.5-0.6,4.9-1.5,7.1-2.7l0.5,0.9C275.2,439.2,272.7,440.1,270.2,440.8     z" id="XMLID_4086_"/></g><g id="XMLID_2043_"><rect class="st0" height="11.9" id="XMLID_4085_" transform="matrix(0.3027 0.9531 -0.9531 0.3027 606.9125 42.8251)" width="1" x="273.7" y="430.3"/></g><g id="XMLID_2042_"><path class="st0" d="M271.9,434.2l-0.2-1c2.2-0.4,4.2-1.1,6.2-2l0.4,0.9C276.3,433.1,274.1,433.8,271.9,434.2z" id="XMLID_4084_"/></g><g id="XMLID_2041_"><path class="st0" d="M271.3,431.7l-0.5-0.9c2.2-1.3,4.7-2.2,7.2-2.7l0.2,1C275.7,429.6,273.4,430.4,271.3,431.7     z" id="XMLID_4083_"/></g><g id="XMLID_2040_"><rect class="st0" height="9.7" id="XMLID_4082_" transform="matrix(0.3086 0.9512 -0.9512 0.3086 595.5507 31.7569)" width="1" x="275.4" y="420.7"/></g><g id="XMLID_2039_"><path class="st0" d="M272.3,423l0-1c2.4-0.1,4.8-0.6,7.1-1.4l0.3,0.9C277.4,422.4,274.9,422.9,272.3,423z" id="XMLID_4081_"/></g><g id="XMLID_2038_"><rect class="st0" height="8.1" id="XMLID_4080_" transform="matrix(0.1504 0.9886 -0.9886 0.1504 648.4851 83.2474)" width="1" x="275.3" y="414.9"/></g><g id="XMLID_2037_"><path class="st0" d="M273.3,417.8l-0.1-1c2.2-0.1,4.4-0.7,6.3-1.7l0.4,0.9C277.9,417,275.6,417.6,273.3,417.8z" id="XMLID_4079_"/></g><g id="XMLID_2036_"><rect class="st0" height="6.4" id="XMLID_4078_" transform="matrix(0.1972 0.9804 -0.9804 0.1972 625.5262 62.3776)" width="1" x="274.2" y="410"/></g><g id="XMLID_2035_"><path class="st0" d="M271.9,412.5l-0.2-1c2.7-0.6,5.4-1.5,7.9-2.5l0.4,0.9C277.4,411,274.6,411.8,271.9,412.5z" id="XMLID_4077_"/></g><g id="XMLID_2034_"><path class="st0" d="M272.1,409.3l-0.2-1c2.4-0.4,4.9-1.1,7.2-1.9l0.3,0.9C277.1,408.2,274.6,408.8,272.1,409.3     z" id="XMLID_4076_"/></g><g id="XMLID_2033_"><path class="st0" d="M270.7,406l-0.2-1c2.5-0.6,4.9-1.6,7.2-2.8l0.5,0.9C275.8,404.4,273.3,405.4,270.7,406z" id="XMLID_4075_"/></g><g id="XMLID_2032_"><path class="st0" d="M271.2,402.5l-0.2-1c2.5-0.5,4.9-1.4,7.1-2.7l0.5,0.9C276.2,401,273.7,401.9,271.2,402.5z" id="XMLID_4074_"/></g><g id="XMLID_2031_"><rect class="st0" height="7" id="XMLID_4073_" transform="matrix(0.3592 0.9332 -0.9332 0.3592 546.6645 -2.044)" width="1" x="274.3" y="393.6"/></g><g id="XMLID_2030_"><path class="st0" d="M271.7,395.5l-0.3-0.9c2.2-0.8,4.4-1.7,6.4-2.9l0.5,0.9C276.2,393.7,274,394.7,271.7,395.5     z" id="XMLID_4072_"/></g><g id="XMLID_2029_"><path class="st0" d="M270.7,391.3l-0.2-1c2.1-0.5,4.2-1.3,6.1-2.2l0.4,0.9C275,390,272.9,390.7,270.7,391.3z" id="XMLID_4071_"/></g><g id="XMLID_2028_"><rect class="st0" height="6.6" id="XMLID_4070_" transform="matrix(0.3982 0.9173 -0.9173 0.3982 518.8113 -18.905)" width="1" x="273.3" y="382.6"/></g><g id="XMLID_2027_"><rect class="st0" height="5.8" id="XMLID_4069_" transform="matrix(0.3027 0.9531 -0.9531 0.3027 554.0125 6.1336)" width="1" x="272.3" y="378.8"/></g><g id="XMLID_2026_"><rect class="st0" height="5.7" id="XMLID_4068_" transform="matrix(0.2615 0.9652 -0.9652 0.2615 568.4361 13.6346)" width="1" x="274.8" y="375.5"/></g><g id="XMLID_2025_"><path class="st0" d="M279.8,471.4l-0.6-0.8c2-1.6,4.3-2.9,6.6-4.1l0.4,0.9C284,468.5,281.8,469.9,279.8,471.4z" id="XMLID_4067_"/></g><g id="XMLID_2024_"><rect class="st0" height="9" id="XMLID_4066_" transform="matrix(0.5533 0.833 -0.833 0.5533 520.6215 -28.3922)" width="1" x="286.3" y="466.7"/></g><g id="XMLID_2023_"><rect class="st0" height="8.3" id="XMLID_4065_" transform="matrix(0.5452 0.8383 -0.8383 0.5452 528.3889 -26.9503)" width="1" x="288.5" y="469.3"/></g><g id="XMLID_2022_"><rect class="st0" height="8.1" id="XMLID_4064_" transform="matrix(0.5994 0.8005 -0.8005 0.5994 498.8007 -44.2311)" width="1" x="293.1" y="472.2"/></g><g id="XMLID_2021_"><path class="st0" d="M293.8,481.5l-0.5-0.9c1.7-1,3.2-2.3,4.6-3.7l0.7,0.7C297.2,479.1,295.6,480.4,293.8,481.5     z" id="XMLID_4063_"/></g><g id="XMLID_2020_"><path class="st0" d="M298.5,481.8l-0.4-0.9c1.4-0.6,2.7-1.6,3.8-2.7l0.7,0.7     C301.5,480.1,300.1,481.1,298.5,481.8z" id="XMLID_4062_"/></g><g id="XMLID_2019_"><path class="st0" d="M334,460.6l-0.6-0.8c3.1-2.3,5.8-5.7,8-10c3.9-7.7,5.6-16.9,5-27.3     c-0.5-9.6-2.8-19-5.2-27.6l1-0.3c2.4,8.7,4.7,18.1,5.2,27.8c0.5,10.6-1.2,19.9-5.1,27.8C340,454.8,337.2,458.2,334,460.6z" id="XMLID_4061_"/></g><g id="XMLID_2018_"><path class="st0" d="M326.5,441.4l-0.2-1c1.2-0.3,2.1-1.3,3-3.2c3.8-8.6,2.1-18.9,0.8-27.1l1-0.2     c1.4,8.4,3.1,18.8-0.8,27.7C329.2,439.8,328,441.1,326.5,441.4z" id="XMLID_4060_"/></g><g id="XMLID_2017_"><path class="st0" d="M128.7,351.7c-0.1,0-0.1,0-0.2,0c-0.3-0.1-0.4-0.4-0.3-0.6c0.4-1.1,1.4-1.8,2.3-2.4     c2.2-1.4,4.6-2.6,7-3.7c0.3-0.1,0.5,0,0.7,0.3c0.1,0.3,0,0.5-0.3,0.7c-2.4,1-4.7,2.2-6.9,3.6c-0.8,0.5-1.6,1.1-1.9,1.9     C129.1,351.6,128.9,351.7,128.7,351.7z" id="XMLID_4059_"/></g><g id="XMLID_2016_"><path class="st0" d="M129,355.5c-0.2,0-0.3-0.1-0.4-0.2c-0.2-0.2-0.1-0.5,0.1-0.7l6.5-4.3     c0.2-0.1,0.5-0.1,0.7,0.1c0.2,0.2,0.1,0.5-0.1,0.7l-6.5,4.3C129.2,355.5,129.1,355.5,129,355.5z" id="XMLID_4058_"/></g><g id="XMLID_2015_"><path class="st0" d="M130.5,360c-0.2,0-0.3-0.1-0.4-0.2c-0.1-0.2-0.1-0.5,0.2-0.7l6.7-4     c0.2-0.1,0.5-0.1,0.7,0.2c0.1,0.2,0.1,0.5-0.2,0.7l-6.7,4C130.7,360,130.6,360,130.5,360z" id="XMLID_4057_"/></g><g id="XMLID_2014_"><path class="st0" d="M132.3,362.6c-0.2,0-0.3-0.1-0.4-0.2c-0.2-0.2-0.1-0.5,0.1-0.7l6.9-4.6     c0.2-0.2,0.5-0.1,0.7,0.1c0.2,0.2,0.1,0.5-0.1,0.7l-6.9,4.6C132.5,362.6,132.4,362.6,132.3,362.6z" id="XMLID_4056_"/></g><g id="XMLID_2013_"><path class="st0" d="M134.3,365.2c-0.2,0-0.4-0.1-0.4-0.3c-0.1-0.2,0-0.5,0.2-0.7c2.1-1,4.1-2.2,6-3.6     c0.2-0.2,0.5-0.1,0.7,0.1c0.2,0.2,0.1,0.5-0.1,0.7c-1.9,1.4-4,2.6-6.1,3.7C134.4,365.2,134.4,365.2,134.3,365.2z" id="XMLID_4055_"/></g><g id="XMLID_2012_"><path class="st0" d="M137.1,366.6c-0.2,0-0.4-0.1-0.4-0.3c-0.1-0.2,0-0.5,0.2-0.7l6-3.1c0.2-0.1,0.5,0,0.7,0.2     c0.1,0.2,0,0.5-0.2,0.7l-6,3.1C137.2,366.5,137.2,366.6,137.1,366.6z" id="XMLID_4054_"/></g><g id="XMLID_2011_"><path class="st0" d="M140.1,368.8c-0.2,0-0.3-0.1-0.4-0.2c-0.2-0.2-0.1-0.5,0.1-0.7l6.2-4.1     c0.2-0.2,0.5-0.1,0.7,0.1c0.2,0.2,0.1,0.5-0.1,0.7l-6.2,4.1C140.3,368.8,140.2,368.8,140.1,368.8z" id="XMLID_4053_"/></g><g id="XMLID_2010_"><path class="st0" d="M142.8,370.5c-0.2,0-0.3-0.1-0.4-0.2c-0.2-0.2-0.1-0.5,0.1-0.7l5.3-3.7     c0.2-0.2,0.5-0.1,0.7,0.1c0.2,0.2,0.1,0.5-0.1,0.7l-5.3,3.7C143,370.5,142.9,370.5,142.8,370.5z" id="XMLID_4052_"/></g><g id="XMLID_2009_"><path class="st0" d="M146.6,371.4c-0.2,0-0.3-0.1-0.4-0.2c-0.2-0.2-0.1-0.5,0.1-0.7l5.2-3.8     c0.2-0.2,0.5-0.1,0.7,0.1c0.2,0.2,0.1,0.5-0.1,0.7l-5.2,3.8C146.8,371.4,146.7,371.4,146.6,371.4z" id="XMLID_4051_"/></g><g id="XMLID_2008_"><path class="st0" d="M150,373c-0.2,0-0.3-0.1-0.4-0.2c-0.2-0.2-0.1-0.5,0.1-0.7l7.6-5.2     c0.2-0.2,0.5-0.1,0.7,0.1c0.2,0.2,0.1,0.5-0.1,0.7l-7.6,5.2C150.2,373,150.1,373,150,373z" id="XMLID_4050_"/></g><g id="XMLID_2007_"><path class="st0" d="M155.1,375.2c-0.1,0-0.2,0-0.3-0.1c-0.2-0.2-0.2-0.5-0.1-0.7c1.6-1.9,3.4-3.7,5.4-5.2     c0.2-0.2,0.5-0.1,0.7,0.1c0.2,0.2,0.1,0.5-0.1,0.7c-1.9,1.4-3.7,3.1-5.2,5C155.4,375.1,155.3,375.2,155.1,375.2z" id="XMLID_4049_"/></g><g id="XMLID_2006_"><path class="st0" d="M160.3,377c-0.1,0-0.1,0-0.2,0c-0.3-0.1-0.4-0.4-0.2-0.7c1-2.1,2.4-4,4.1-5.5     c0.2-0.2,0.5-0.2,0.7,0c0.2,0.2,0.2,0.5,0,0.7c-1.6,1.4-3,3.2-3.9,5.2C160.7,376.9,160.5,377,160.3,377z" id="XMLID_4048_"/></g><g id="XMLID_2005_"><path class="st0" d="M164,375.7c-0.1,0-0.2,0-0.3-0.1c-0.2-0.2-0.3-0.5-0.1-0.7c1.3-1.8,2.9-3.3,4.8-4.5     c0.2-0.1,0.5-0.1,0.7,0.2c0.1,0.2,0.1,0.5-0.2,0.7c-1.8,1.1-3.3,2.5-4.5,4.2C164.3,375.6,164.1,375.7,164,375.7z" id="XMLID_4047_"/></g><g id="XMLID_2004_"><path class="st0" d="M168.7,375c-0.1,0-0.2,0-0.3-0.1c-0.2-0.2-0.2-0.5-0.1-0.7c1.7-2,3.6-3.8,5.6-5.5     c0.2-0.2,0.5-0.1,0.7,0.1c0.2,0.2,0.1,0.5-0.1,0.7c-2,1.6-3.8,3.5-5.5,5.4C168.9,375,168.8,375,168.7,375z" id="XMLID_4046_"/></g><g id="XMLID_2003_"><path class="st0" d="M174.6,374.3c-0.1,0-0.2,0-0.3-0.1c-0.2-0.2-0.2-0.5,0-0.7l3-3.3c0.2-0.2,0.5-0.2,0.7,0     c0.2,0.2,0.2,0.5,0,0.7l-3,3.3C174.9,374.3,174.7,374.3,174.6,374.3z" id="XMLID_4045_"/></g><g id="XMLID_2002_"><path class="st0" d="M177.2,374.6c-0.1,0-0.3-0.1-0.4-0.2c-0.2-0.2-0.2-0.5,0-0.7l5.7-5.2     c0.2-0.2,0.5-0.2,0.7,0c0.2,0.2,0.2,0.5,0,0.7l-5.7,5.2C177.5,374.6,177.4,374.6,177.2,374.6z" id="XMLID_4044_"/></g><g id="XMLID_2001_"><path class="st0" d="M182.3,374.7c-0.1,0-0.2,0-0.3-0.1c-0.2-0.2-0.2-0.5,0-0.7l3.7-4c0.2-0.2,0.5-0.2,0.7,0     c0.2,0.2,0.2,0.5,0,0.7l-3.7,4C182.6,374.6,182.4,374.7,182.3,374.7z" id="XMLID_4043_"/></g><g id="XMLID_2000_"><path class="st0" d="M187.3,375c-0.1,0-0.3,0-0.4-0.1c-0.2-0.2-0.2-0.5,0-0.7l4-4c0.2-0.2,0.5-0.2,0.7,0     c0.2,0.2,0.2,0.5,0,0.7l-4,4C187.5,374.9,187.4,375,187.3,375z" id="XMLID_4042_"/></g><g id="XMLID_1999_"><path class="st0" d="M192.3,376c-0.1,0-0.2,0-0.3-0.1c-0.2-0.2-0.2-0.5,0-0.7l2.7-2.9c0.2-0.2,0.5-0.2,0.7,0     s0.2,0.5,0,0.7l-2.7,2.9C192.6,376,192.4,376,192.3,376z" id="XMLID_4041_"/></g><g id="XMLID_1998_"><path class="st0" d="M196.6,375.3c-0.1,0-0.3-0.1-0.4-0.2c-0.2-0.2-0.2-0.5,0-0.7l3-2.7c0.2-0.2,0.5-0.2,0.7,0     c0.2,0.2,0.2,0.5,0,0.7l-3,2.7C196.8,375.3,196.7,375.3,196.6,375.3z" id="XMLID_4040_"/></g><g id="XMLID_1997_"><path class="st0" d="M202,376.4c-0.2,0-0.3-0.1-0.4-0.2c-0.2-0.2-0.1-0.5,0.1-0.7l3.3-2.3     c0.2-0.2,0.5-0.1,0.7,0.1c0.2,0.2,0.1,0.5-0.1,0.7l-3.3,2.3C202.2,376.3,202.1,376.4,202,376.4z" id="XMLID_4039_"/></g><g id="XMLID_1996_"><path class="st0" d="M208.6,375c-0.2,0-0.3-0.1-0.4-0.2c-0.2-0.2-0.1-0.5,0.1-0.7l2.7-2     c0.2-0.2,0.5-0.1,0.7,0.1c0.2,0.2,0.1,0.5-0.1,0.7l-2.7,2C208.8,375,208.7,375,208.6,375z" id="XMLID_4038_"/></g><g id="XMLID_1995_"><path class="st0" d="M212.4,375.7c-0.1,0-0.2,0-0.3-0.1c-0.2-0.2-0.2-0.5,0-0.7c1.5-1.6,3.4-2.9,5.4-3.6     c0.3-0.1,0.5,0,0.6,0.3s0,0.5-0.3,0.6c-1.9,0.7-3.7,1.8-5,3.3C212.6,375.7,212.5,375.7,212.4,375.7z" id="XMLID_4037_"/></g><g id="XMLID_1994_"><path class="st0" d="M217.3,374.6c-0.1,0-0.3-0.1-0.4-0.2c-0.2-0.2-0.1-0.5,0.1-0.7l3.4-2.6     c0.2-0.2,0.5-0.1,0.7,0.1c0.2,0.2,0.1,0.5-0.1,0.7l-3.4,2.6C217.5,374.6,217.4,374.6,217.3,374.6z" id="XMLID_4036_"/></g><g id="XMLID_1993_"><path class="st0" d="M222.6,373.7c-0.2,0-0.3-0.1-0.4-0.2c-0.2-0.2-0.1-0.5,0.1-0.7l2.3-1.7     c0.2-0.2,0.5-0.1,0.7,0.1c0.2,0.2,0.1,0.5-0.1,0.7l-2.3,1.7C222.8,373.7,222.7,373.7,222.6,373.7z" id="XMLID_4035_"/></g><g id="XMLID_1992_"><path class="st0" d="M226.9,374.7c-0.1,0-0.3-0.1-0.4-0.2c-0.2-0.2-0.2-0.5,0.1-0.7l2.3-2     c0.2-0.2,0.5-0.2,0.7,0.1c0.2,0.2,0.2,0.5-0.1,0.7l-2.3,2C227.2,374.6,227.1,374.7,226.9,374.7z" id="XMLID_4034_"/></g><g id="XMLID_1991_"><path class="st0" d="M231.3,374c-0.1,0-0.2,0-0.3-0.1c-0.2-0.2-0.2-0.5,0-0.7c0.9-1,2-1.8,3.1-2.4     c0.2-0.1,0.5,0,0.7,0.2c0.1,0.2,0,0.5-0.2,0.7c-1.1,0.6-2,1.3-2.9,2.2C231.6,374,231.4,374,231.3,374z" id="XMLID_4033_"/></g><g id="XMLID_1990_"><path class="st0" d="M237.3,374c-0.1,0-0.3-0.1-0.4-0.2c-0.2-0.2-0.2-0.5,0-0.7c1.1-1.1,2.4-1.9,3.8-2.5     c0.7-0.3,2-0.2,3.2-0.1c0.5,0,1,0.1,1.3,0.1c0.3,0,0.5,0.2,0.5,0.5c0,0.3-0.2,0.5-0.5,0.5c-0.4,0-0.9,0-1.5-0.1     c-0.9-0.1-2.2-0.2-2.7,0c-1.3,0.5-2.5,1.3-3.5,2.3C237.6,374,237.4,374,237.3,374z" id="XMLID_4032_"/></g><g id="XMLID_1989_"><path class="st0" d="M246,373.7c-0.2,0-0.4-0.1-0.4-0.3c-0.1-0.2,0-0.5,0.2-0.7l2-1c0.2-0.1,0.5,0,0.7,0.2     c0.1,0.2,0,0.5-0.2,0.7l-2,1C246.1,373.7,246.1,373.7,246,373.7z" id="XMLID_4031_"/></g><g id="XMLID_1988_"><path class="st0" d="M159.4,339.9c-0.2,0-0.4-0.1-0.5-0.3c-0.1-0.3,0-0.5,0.3-0.6c15.9-6,33.3-8.7,50.2-7.8     c2.8,0.2,6.1,0.5,8.4,2.5c0.2,0.2,0.2,0.5,0,0.7c-0.2,0.2-0.5,0.2-0.7,0c-2.1-1.8-5.1-2.1-7.8-2.2c-16.8-0.9-34.1,1.8-49.8,7.8     C159.6,339.9,159.5,339.9,159.4,339.9z" id="XMLID_4030_"/></g><g id="XMLID_1987_"><path class="st0" d="M185.6,346.7c-0.2,0-0.4-0.2-0.5-0.4c-0.1-0.3,0.1-0.5,0.4-0.6c5.5-1.3,11.1-2.1,16.8-2.4     c0.3,0,0.5,0.2,0.5,0.5c0,0.3-0.2,0.5-0.5,0.5c-5.6,0.3-11.1,1-16.6,2.4C185.7,346.7,185.7,346.7,185.6,346.7z" id="XMLID_4029_"/></g><g id="XMLID_1986_"><path class="st0" d="M379.4,352.5c-0.1,0-0.2,0-0.3-0.1c-7.3-5-15.8-8.4-24.6-9.9c-0.3,0-0.5-0.3-0.4-0.6     s0.3-0.5,0.6-0.4c8.9,1.5,17.5,5,25,10.1c0.2,0.2,0.3,0.5,0.1,0.7C379.7,352.4,379.6,352.5,379.4,352.5z" id="XMLID_4028_"/></g><g id="XMLID_1985_"><path class="st0" d="M379.4,363.2c-0.1,0-0.3-0.1-0.4-0.2c-1.4-1.8-3.5-2.9-5.8-3.2c-0.3,0-0.5-0.3-0.4-0.6     c0-0.3,0.3-0.5,0.6-0.4c2.5,0.3,4.9,1.6,6.5,3.6c0.2,0.2,0.1,0.5-0.1,0.7C379.7,363.2,379.6,363.2,379.4,363.2z" id="XMLID_4027_"/></g><g id="XMLID_1984_"><path class="st1" d="M95.9,147.4c-0.3,0-0.6,0-0.8-0.1c-1.6-0.5-2.5-2.1-2-3.7c5.6-19.4,21.1-36.6,42.6-47.2     c22.3-11,47.3-13.1,67-5.5c4.8,1.9,11.4,5,13,10.4c0.5,1.6-0.4,3.3-2,3.7c-1.6,0.5-3.3-0.4-3.7-2c-0.6-2.2-3.8-4.4-9.4-6.5     c-18.1-7-41.3-5-62.1,5.3c-20,9.9-34.3,25.7-39.5,43.5C98.4,146.5,97.2,147.4,95.9,147.4z" id="XMLID_4026_"/></g><g id="XMLID_1983_"><path class="st1" d="M422.2,155.9c-0.5,0-1.1-0.2-1.6-0.5c-1.4-0.9-1.8-2.7-0.9-4.1c4.6-7.3-5.4-21.4-9.1-26.7     c-19-26.8-61.9-45-95.6-29.5c-1.5,0.7-3.3,0-4-1.5c-0.7-1.5,0-3.3,1.5-4c36.4-16.8,82.7,2.7,103,31.4c5.2,7.4,16.1,22.7,9.3,33.3     C424.2,155.4,423.2,155.9,422.2,155.9z" id="XMLID_4025_"/></g></g><g id="XMLID_2275_"><path class="st1" d="M256,508.5c-5.8,0-11.6-0.2-17.4-0.6c-12-0.9-24.1-2.6-35.8-5.2    c-23.8-5.3-46.8-14-68.4-25.9C91.6,453,56.9,418.1,34,375.7C-17,281.2-5,171.9,65.4,90.6c33.3-38.5,77.7-65.8,128.2-78.8    c50.5-13,102.4-10.7,150.1,6.9c86.1,31.7,150.1,110.8,162.9,201.5c1.7,11.9,2.6,23.9,2.6,35.6l0,0c0.2,41.7-9.9,81.9-30.1,119.5    C435.4,456.5,347.4,508.5,256,508.5z M258.9,9.8c-71,0-141.8,30.3-188.9,84.7c-68.7,79.4-80.4,186-30.6,278.3    c22.3,41.4,56.2,75.4,98,98.6c21,11.6,43.5,20.2,66.8,25.3c11.5,2.5,23.3,4.3,35,5.1c95.1,6.9,189.4-45.1,234.7-129.3    c19.8-36.7,29.7-76,29.4-116.6l0,0c-0.1-11.4-0.9-23.1-2.6-34.8c-12.5-88.6-74.9-165.8-159-196.7C315,14.5,286.9,9.8,258.9,9.8z" id="XMLID_4332_"/></g><g id="XMLID_2163_"><path class="st1" d="M166.9,255.9c-5,0-10-1.1-15-3.3c-15.5-6.8-27.6-24.5-31.7-46.4    c-4.2-22.4-0.5-45.9,10.4-66.1c8.3-15.5,25.8-28.6,42.9-23.9l0,0C187.1,120,198.8,133,205,151c7.2,20.9,7.7,47.5,1.3,69.4    c-4.4,15.1-13.5,26.8-24.9,32.2C176.8,254.8,171.9,255.9,166.9,255.9z M166.4,121.3c-12.3,0-24.4,10.4-30.5,21.7    c-10.3,19-13.8,41.1-9.8,62.2c3.7,19.9,14.5,36,28.2,42c8.4,3.7,16.9,3.7,24.6,0.1c9.9-4.6,17.8-15,21.7-28.4    c6.1-20.8,5.6-46-1.2-65.8c-5.5-15.9-16-27.7-27.4-30.9l0,0C170.1,121.6,168.2,121.3,166.4,121.3z" id="XMLID_4213_"/></g><g id="XMLID_2162_"><path class="st1" d="M353.5,253.1c-5,0-10-1.1-15-3.3c-15.5-6.8-27.7-24.5-31.7-46.4    c-4.2-22.4-0.5-45.9,10.4-66.1c8.3-15.5,25.8-28.6,42.9-23.9l0,0c13.5,3.7,25.3,16.7,31.5,34.7c7.2,20.9,7.7,47.5,1.3,69.4    c-4.4,15.1-13.5,26.8-24.9,32.2C363.3,252,358.4,253.1,353.5,253.1z M352.9,118.5c-12.3,0-24.4,10.4-30.5,21.7    c-10.3,19-13.8,41.1-9.8,62.2c3.7,19.9,14.5,36,28.2,42c8.4,3.7,16.9,3.7,24.6,0.1c9.9-4.6,17.8-15,21.7-28.4    c6.1-20.8,5.6-46-1.2-65.8c-5.5-15.9-16-27.7-27.4-30.9l0,0C356.7,118.8,354.8,118.5,352.9,118.5z" id="XMLID_4210_"/></g><g id="XMLID_2161_"><path class="st1" d="M163.8,214.4c-5.1,0-10.3-2.1-14.7-6.2c-8.1-7.6-11.5-20.2-9-32.8c2-10,7.7-19.1,14.9-23.6    c4.7-3,9.8-4,14.8-2.8c12.1,2.8,18,17.1,18.3,29.2l0,0c0.1,4.9-0.5,9.8-1.7,14.7c-1.9,7-4.9,12.5-9,16.1    C173.2,212.6,168.5,214.4,163.8,214.4z M165.6,154.5c-2.5,0-4.9,0.8-7.3,2.3c-5.7,3.7-10.6,11.5-12.2,19.8    c-2.1,10.5,0.6,21,7.2,27.2c4.9,4.6,12.7,7.2,20,0.8c3.2-2.9,5.7-7.3,7.2-13.2c1.1-4.3,1.7-8.8,1.6-13l0,0    c-0.3-10.2-5.1-21.5-13.7-23.5C167.5,154.6,166.5,154.5,165.6,154.5z" id="XMLID_4207_"/></g><g id="XMLID_2160_"><path class="st1" d="M351.3,207.4c-5.1,0-10.3-2.1-14.7-6.2c-8.1-7.6-11.5-20.2-9-32.8c2-10,7.7-19.1,14.9-23.6    c4.7-3,9.8-4,14.8-2.8c12.1,2.8,18,17.1,18.3,29.2l0,0c0.1,4.9-0.5,9.8-1.7,14.7c-1.9,7-4.9,12.5-9,16.1    C360.8,205.6,356.1,207.4,351.3,207.4z M353.1,147.5c-2.5,0-4.9,0.8-7.3,2.3c-5.7,3.7-10.6,11.5-12.2,19.8    c-2.1,10.5,0.6,21,7.2,27.2c4.9,4.6,12.7,7.2,20,0.8c3.2-2.9,5.7-7.3,7.2-13.2c1.1-4.3,1.7-8.8,1.6-13l0,0    c-0.3-10.2-5.1-21.5-13.7-23.5C355,147.6,354,147.5,353.1,147.5z" id="XMLID_4204_"/></g><g id="XMLID_2055_"><path class="st1" d="M377.2,389.7c-6.5,0-13.8-0.5-18.2-1c-1.6-0.2-2.8-1.7-2.6-3.3c0.2-1.6,1.7-2.8,3.3-2.6    c6.6,0.8,19.1,1.4,25.4,0.6c4.7-0.6,12.8-3.1,14.6-12.8c1-5.4,0.6-13.4-1.8-17.7c-7.6-12.9-23.2-18.1-37.2-21.9    c-16.9-4.6-31-7.8-49.1-9.9c-49.3-5.7-99.4-2.4-132.9,1.4c-10.1,1.1-29,3.2-39.2,11.9c-7.7,6.5-11.3,19.5-4.4,28.5    c3.7,4.9,9.3,7.5,13.4,8.8c11.8,3.9,23.9,3.5,36.6,3.2c1.8-0.1,3.6-0.1,5.5-0.1c24.3-0.5,51.1-0.9,81.9,0.2    c1.7,0.1,2.9,1.5,2.9,3.1c-0.1,1.7-1.5,2.9-3.1,2.9c-30.6-1.1-57.3-0.8-81.5-0.2c-1.8,0-3.6,0.1-5.4,0.1    c-12.7,0.4-25.8,0.8-38.7-3.4c-7-2.3-12.6-6.1-16.3-10.9c-8.2-10.8-5.8-27.3,5.4-36.7c11.6-9.8,31.7-12,42.4-13.3    c33.7-3.8,84.4-7.1,134.2-1.4c18.5,2.1,32.8,5.4,50,10.1c15.2,4.1,32.2,9.7,40.9,24.6c3.4,5.8,3.7,15.4,2.6,21.8    c-1.7,9.7-9.1,16.3-19.7,17.7C383.4,389.5,380.4,389.7,377.2,389.7z" id="XMLID_4099_"/></g><g id="XMLID_2054_"><path class="st1" d="M302.1,488.6c-0.4,0-0.8,0-1.2,0c-12.9-0.4-23.7-9.7-28.7-18.8c-6.1-11.1-5.8-24.3-5.6-35    l0.8-36.5c0-1.6-0.1-3.4-0.2-5.3c-0.5-7.4-1.1-16.6,6.6-21.4c2.6-1.6,5.4-2.3,8.1-2.8c16.1-3.4,32.6-4.1,48.9-2.1    c4.8,0.6,10.5,1.5,15.8,3.9c5.3,2.4,9.5,6.2,12.4,11.3l0,0c5.6,9.9,5.3,22.8,4.6,31.6c-1.3,16.2-7.1,32.4-16.7,46.6    C341.1,468.8,325.3,488.6,302.1,488.6z M312.7,371.7c-9.9,0-19.7,1-29.5,3.1c-2.2,0.5-4.4,1-6.1,2.1c-4.3,2.7-4.3,8.3-3.8,15.9    c0.1,2,0.3,4,0.2,5.8l-0.8,36.5c-0.2,10.5-0.5,22.3,4.8,31.9c4,7.3,13.2,15.4,23.6,15.7c20.8,0.6,35.5-17.8,40.9-25.8    c9-13.4,14.5-28.6,15.7-43.8c0.7-8,1-19.7-3.8-28.1v0c-2.3-4-5.4-6.9-9.6-8.8c-4.5-2-9.6-2.9-14-3.4    C324.4,372.1,318.6,371.7,312.7,371.7z" id="XMLID_4096_"/></g></g></svg>