<?xml version="1.0" ?><svg id="Layer_1" style="enable-background:new 0 0 512 512;" version="1.1" viewBox="0 0 512 512" xml:space="preserve" xmlns="http://www.w3.org/2000/svg" xmlns:xlink="http://www.w3.org/1999/xlink"><style type="text/css">
	.st0{fill:#37759D;}
	.st1{fill:#215B7C;}
</style><g id="XMLID_324_"><g id="XMLID_253_"><g id="XMLID_495_"><path class="st0" d="M40,378.5c-0.1,0-0.3-0.1-0.4-0.2c-0.2-0.2-0.1-0.5,0.1-0.7c5.6-4.3,11.6-8.3,17.8-12     c0.2-0.1,0.5-0.1,0.7,0.2c0.1,0.2,0.1,0.5-0.2,0.7c-6.1,3.6-12,7.6-17.7,11.9C40.2,378.4,40.1,378.5,40,378.5z" id="XMLID_5743_"/></g><g id="XMLID_494_"><path class="st0" d="M42.1,382.8c-0.2,0-0.4-0.1-0.5-0.3c-0.1-0.3,0-0.5,0.3-0.7c4.2-1.9,8.3-4.1,12.2-6.6     c0.2-0.2,0.5-0.1,0.7,0.1c0.1,0.2,0.1,0.5-0.1,0.7c-3.9,2.5-8.1,4.8-12.4,6.7C42.2,382.8,42.2,382.8,42.1,382.8z" id="XMLID_5742_"/></g><g id="XMLID_493_"><path class="st0" d="M45.9,386c-0.2,0-0.3-0.1-0.4-0.2c-0.1-0.2-0.1-0.5,0.2-0.7l9.6-5.6     c0.2-0.1,0.5-0.1,0.7,0.2c0.1,0.2,0.1,0.5-0.2,0.7l-9.6,5.6C46.1,386,46,386,45.9,386z" id="XMLID_5741_"/></g><g id="XMLID_492_"><path class="st0" d="M49.1,389.7c-0.2,0-0.3-0.1-0.4-0.2c-0.1-0.2-0.1-0.5,0.2-0.7l8.1-4.8     c0.2-0.1,0.5-0.1,0.7,0.2c0.1,0.2,0.1,0.5-0.2,0.7l-8.1,4.8C49.3,389.7,49.2,389.7,49.1,389.7z" id="XMLID_5740_"/></g><g id="XMLID_491_"><path class="st0" d="M50.7,394.5c-0.2,0-0.4-0.1-0.5-0.3c-0.1-0.3,0-0.5,0.2-0.7c3.6-1.6,7-3.6,10.2-5.8     c0.2-0.2,0.5-0.1,0.7,0.1c0.2,0.2,0.1,0.5-0.1,0.7c-3.3,2.3-6.7,4.3-10.3,5.9C50.8,394.5,50.7,394.5,50.7,394.5z" id="XMLID_5739_"/></g><g id="XMLID_490_"><path class="st0" d="M55.5,397.3c-0.2,0-0.4-0.1-0.5-0.3c-0.1-0.3,0-0.5,0.3-0.7l7.5-3.2c0.3-0.1,0.5,0,0.7,0.3     c0.1,0.3,0,0.5-0.3,0.7l-7.5,3.2C55.7,397.2,55.6,397.3,55.5,397.3z" id="XMLID_5738_"/></g><g id="XMLID_489_"><path class="st0" d="M57.3,405c-0.2,0-0.3-0.1-0.4-0.2c-0.1-0.2-0.1-0.5,0.2-0.7l11-6.9     c0.2-0.1,0.5-0.1,0.7,0.2c0.1,0.2,0.1,0.5-0.2,0.7l-11,6.9C57.5,405,57.4,405,57.3,405z" id="XMLID_5737_"/></g><g id="XMLID_488_"><path class="st0" d="M62.5,407.5c-0.2,0-0.3-0.1-0.4-0.2c-0.1-0.2-0.1-0.5,0.2-0.7l10.8-6.5     c0.2-0.1,0.5-0.1,0.7,0.2c0.1,0.2,0.1,0.5-0.2,0.7l-10.8,6.5C62.7,407.4,62.6,407.5,62.5,407.5z" id="XMLID_5736_"/></g><g id="XMLID_487_"><path class="st0" d="M67.3,410.1c-0.2,0-0.4-0.1-0.4-0.3c-0.1-0.2,0-0.5,0.2-0.7l12.9-6.5     c0.2-0.1,0.5,0,0.7,0.2c0.1,0.2,0,0.5-0.2,0.7L67.6,410C67.5,410.1,67.4,410.1,67.3,410.1z" id="XMLID_5735_"/></g><g id="XMLID_486_"><path class="st0" d="M71.2,414.6c-0.2,0-0.3-0.1-0.4-0.2c-0.1-0.2-0.1-0.5,0.2-0.7l12.9-7.6     c0.2-0.1,0.5-0.1,0.7,0.2c0.1,0.2,0.1,0.5-0.2,0.7l-12.9,7.6C71.4,414.6,71.3,414.6,71.2,414.6z" id="XMLID_5734_"/></g><g id="XMLID_485_"><path class="st0" d="M72.8,418.8c-0.2,0-0.3-0.1-0.4-0.2c-0.2-0.2-0.1-0.5,0.1-0.7c5.5-4.1,11.5-7.4,17.8-9.8     c0.3-0.1,0.5,0,0.6,0.3c0.1,0.3,0,0.5-0.3,0.6c-6.3,2.4-12.2,5.7-17.6,9.7C73,418.7,72.9,418.8,72.8,418.8z" id="XMLID_5733_"/></g><g id="XMLID_484_"><path class="st0" d="M79.2,421.4c-0.2,0-0.4-0.1-0.4-0.3c-0.1-0.2,0-0.5,0.2-0.7l11.8-5.9     c0.2-0.1,0.5,0,0.7,0.2c0.1,0.2,0,0.5-0.2,0.7l-11.8,5.9C79.3,421.4,79.3,421.4,79.2,421.4z" id="XMLID_5732_"/></g><g id="XMLID_483_"><path class="st0" d="M82.4,427.3c-0.2,0-0.3-0.1-0.4-0.2c-0.2-0.2-0.1-0.5,0.1-0.7c4.9-3.5,10.2-6.4,15.8-8.6     c0.3-0.1,0.5,0,0.6,0.3c0.1,0.3,0,0.5-0.3,0.6c-5.5,2.1-10.7,5-15.5,8.5C82.6,427.3,82.5,427.3,82.4,427.3z" id="XMLID_5731_"/></g><g id="XMLID_482_"><path class="st0" d="M85.7,431.1c-0.2,0-0.3-0.1-0.4-0.2c-0.2-0.2-0.1-0.5,0.1-0.7c4.6-3,9.5-5.4,14.6-7.2     c0.3-0.1,0.5,0,0.6,0.3c0.1,0.3,0,0.5-0.3,0.6c-5.1,1.8-9.9,4.1-14.4,7.1C85.9,431.1,85.8,431.1,85.7,431.1z" id="XMLID_5730_"/></g><g id="XMLID_481_"><path class="st0" d="M93.7,433.3c-0.2,0-0.4-0.1-0.5-0.3c-0.1-0.3,0-0.5,0.2-0.7c2.5-1.1,4.8-2.5,6.9-4.2     c0.2-0.2,0.5-0.1,0.7,0.1c0.2,0.2,0.1,0.5-0.1,0.7c-2.2,1.7-4.6,3.2-7.1,4.4C93.9,433.3,93.8,433.3,93.7,433.3z" id="XMLID_5729_"/></g><g id="XMLID_480_"><path class="st0" d="M93.2,440.2c-0.2,0-0.4-0.1-0.5-0.3c-0.1-0.3,0-0.5,0.3-0.7c4.3-1.9,8.3-4.3,11.9-7.2     c0.2-0.2,0.5-0.1,0.7,0.1c0.2,0.2,0.1,0.5-0.1,0.7c-3.7,3-7.8,5.5-12.1,7.3C93.3,440.2,93.2,440.2,93.2,440.2z" id="XMLID_5728_"/></g><g id="XMLID_479_"><path class="st0" d="M95.9,443.5c-0.2,0-0.4-0.1-0.5-0.3c-0.1-0.3,0-0.5,0.3-0.7c2.9-1.2,5.7-3,8-5.2     c0.2-0.2,0.5-0.2,0.7,0c0.2,0.2,0.2,0.5,0,0.7c-2.4,2.3-5.2,4.2-8.3,5.4C96,443.5,95.9,443.5,95.9,443.5z" id="XMLID_5727_"/></g><g id="XMLID_478_"><path class="st0" d="M38.3,371.9c-0.2,0-0.3-0.1-0.4-0.2c-0.1-0.2-0.1-0.5,0.2-0.7l12.4-7.5     c0.2-0.1,0.5-0.1,0.7,0.2c0.1,0.2,0.1,0.5-0.2,0.7l-12.4,7.5C38.5,371.9,38.4,371.9,38.3,371.9z" id="XMLID_5726_"/></g><g id="XMLID_477_"><path class="st0" d="M37.2,367.1c-0.1,0-0.3-0.1-0.4-0.2c-0.2-0.2-0.1-0.5,0.1-0.7c2.8-2.1,5.7-4.2,8.6-6.2     c-1.2,0.2-2.5,0.4-3.7,0.5c-2.5,0.3-5.2,0.6-7,1.6c-0.2,0.1-0.5,0-0.7-0.2c-0.1-0.2,0-0.5,0.2-0.7c2.1-1.1,4.8-1.4,7.4-1.7     c2.5-0.3,5.2-0.6,7-1.6c0.2-0.1,0.5,0,0.7,0.2c0.1,0.2,0.1,0.5-0.2,0.7c-4,2.5-7.9,5.3-11.7,8.2     C37.4,367.1,37.3,367.1,37.2,367.1z" id="XMLID_5725_"/></g><g id="XMLID_476_"><path class="st0" d="M32.4,356.3c-0.2,0-0.4-0.1-0.5-0.3c-0.1-0.3,0-0.5,0.3-0.7l12.4-5.4     c0.3-0.1,0.5,0,0.7,0.3c0.1,0.3,0,0.5-0.3,0.7l-12.4,5.4C32.5,356.3,32.4,356.3,32.4,356.3z" id="XMLID_5724_"/></g><g id="XMLID_475_"><path class="st0" d="M31.3,352c-0.2,0-0.4-0.1-0.4-0.3c-0.1-0.2,0-0.5,0.2-0.7l12.3-6.5c0.2-0.1,0.5,0,0.7,0.2     c0.1,0.2,0,0.5-0.2,0.7l-12.3,6.5C31.4,351.9,31.4,352,31.3,352z" id="XMLID_5723_"/></g><g id="XMLID_474_"><path class="st0" d="M27.5,347.2c-0.2,0-0.4-0.1-0.5-0.3c-0.1-0.3,0-0.5,0.3-0.7l12.4-5.3     c0.3-0.1,0.5,0,0.7,0.3c0.1,0.3,0,0.5-0.3,0.7l-12.4,5.3C27.7,347.1,27.6,347.2,27.5,347.2z" id="XMLID_5722_"/></g><g id="XMLID_473_"><path class="st0" d="M25.4,342.3c-0.2,0-0.3-0.1-0.4-0.2c-0.1-0.2-0.1-0.5,0.2-0.7c3.9-2.4,8.1-4.4,12.5-6     c0.3-0.1,0.5,0,0.6,0.3c0.1,0.3,0,0.5-0.3,0.6c-4.3,1.6-8.4,3.6-12.3,5.9C25.6,342.3,25.5,342.3,25.4,342.3z" id="XMLID_5721_"/></g><g id="XMLID_472_"><path class="st0" d="M22.7,337.4c-0.2,0-0.4-0.1-0.5-0.3c-0.1-0.3,0-0.5,0.3-0.7c5.5-2.5,11-5.3,16.2-8.4     c0.2-0.1,0.5-0.1,0.7,0.2c0.1,0.2,0.1,0.5-0.2,0.7c-5.2,3.1-10.7,6-16.3,8.5C22.8,337.4,22.7,337.4,22.7,337.4z" id="XMLID_5720_"/></g><g id="XMLID_471_"><path class="st0" d="M21.1,329.4c-0.2,0-0.3-0.1-0.4-0.2c-0.2-0.2-0.1-0.5,0.1-0.7c4.1-2.6,8.5-4.8,13-6.5     c0.3-0.1,0.5,0,0.6,0.3c0.1,0.3,0,0.5-0.3,0.6c-4.5,1.7-8.8,3.8-12.8,6.4C21.3,329.4,21.2,329.4,21.1,329.4z" id="XMLID_5719_"/></g><g id="XMLID_470_"><path class="st0" d="M17.8,325c-0.2,0-0.4-0.1-0.4-0.3c-0.1-0.2,0-0.5,0.2-0.7l12.9-6.5c0.2-0.1,0.5,0,0.7,0.2     c0.1,0.2,0,0.5-0.2,0.7L18,325C18,325,17.9,325,17.8,325z" id="XMLID_5718_"/></g><g id="XMLID_469_"><path class="st0" d="M15.7,318.1c-0.1,0-0.3-0.1-0.4-0.2c-0.2-0.2-0.2-0.5,0-0.7c3.2-3.1,7.2-5.4,11.4-6.7     c0.3-0.1,0.5,0.1,0.6,0.3s-0.1,0.5-0.3,0.6c-4.1,1.3-7.9,3.5-11,6.5C16,318.1,15.8,318.1,15.7,318.1z" id="XMLID_5717_"/></g><g id="XMLID_468_"><path class="st0" d="M13.5,308.3c-0.2,0-0.4-0.1-0.5-0.3c-0.1-0.3,0-0.5,0.2-0.7l14.6-6.8     c0.3-0.1,0.5,0,0.7,0.2c0.1,0.3,0,0.5-0.2,0.7l-14.6,6.8C13.6,308.3,13.6,308.3,13.5,308.3z" id="XMLID_5716_"/></g><g id="XMLID_467_"><path class="st0" d="M11.9,301.4c-0.2,0-0.4-0.1-0.4-0.3c-0.1-0.2,0-0.5,0.2-0.7c4.2-2.1,8.6-3.9,13-5.3     c0.3-0.1,0.5,0.1,0.6,0.3c0.1,0.3-0.1,0.5-0.3,0.6c-4.4,1.4-8.7,3.2-12.9,5.3C12.1,301.4,12,301.4,11.9,301.4z" id="XMLID_5715_"/></g><g id="XMLID_466_"><path class="st0" d="M10.3,293.8c-0.2,0-0.4-0.2-0.5-0.4c-0.1-0.3,0.1-0.5,0.4-0.6c4.8-1.1,9.5-2.6,14-4.7     c0.3-0.1,0.5,0,0.7,0.2c0.1,0.3,0,0.5-0.2,0.7c-4.5,2.1-9.3,3.7-14.2,4.7C10.4,293.8,10.3,293.8,10.3,293.8z" id="XMLID_5714_"/></g><g id="XMLID_465_"><path class="st0" d="M9.8,285.8c-0.2,0-0.3-0.1-0.4-0.3c-0.1-0.2,0-0.5,0.2-0.7c4.4-2.4,9.2-4.2,14.1-5.4     c0.3-0.1,0.5,0.1,0.6,0.4s-0.1,0.5-0.4,0.6c-4.8,1.1-9.5,2.9-13.9,5.3C9.9,285.8,9.8,285.8,9.8,285.8z" id="XMLID_5713_"/></g><g id="XMLID_464_"><path class="st0" d="M6.5,277.1c-0.2,0-0.4-0.1-0.4-0.3c-0.1-0.2,0-0.5,0.2-0.7c5-2.5,10.3-4.1,15.8-4.7     c0.3,0,0.5,0.2,0.6,0.4c0,0.3-0.2,0.5-0.4,0.6c-5.4,0.6-10.6,2.2-15.5,4.6C6.7,277.1,6.6,277.1,6.5,277.1z" id="XMLID_5712_"/></g><g id="XMLID_463_"><path class="st0" d="M8.7,268.6c-0.2,0-0.4-0.1-0.5-0.3c-0.1-0.3,0-0.5,0.3-0.7l12.4-5.4c0.3-0.1,0.5,0,0.7,0.3     c0.1,0.3,0,0.5-0.3,0.7l-12.4,5.4C8.8,268.5,8.7,268.6,8.7,268.6z" id="XMLID_5711_"/></g><g id="XMLID_462_"><path class="st0" d="M7.6,260.4c-0.2,0-0.4-0.1-0.5-0.4c-0.1-0.3,0.1-0.5,0.3-0.6l15.7-4.6     c0.3-0.1,0.5,0.1,0.6,0.3c0.1,0.3-0.1,0.5-0.3,0.6l-15.7,4.6C7.7,260.4,7.6,260.4,7.6,260.4z" id="XMLID_5710_"/></g><g id="XMLID_461_"><path class="st0" d="M9.2,250.8c-0.2,0-0.4-0.1-0.5-0.4c-0.1-0.3,0.1-0.5,0.3-0.6c5.1-1.5,10.4-2.6,15.7-3.2     c0.3,0,0.5,0.2,0.6,0.4c0,0.3-0.2,0.5-0.4,0.6c-5.2,0.6-10.5,1.7-15.5,3.1C9.3,250.8,9.3,250.8,9.2,250.8z" id="XMLID_5709_"/></g><g id="XMLID_460_"><path class="st0" d="M8.1,239.5c-0.2,0-0.4-0.2-0.5-0.4c-0.1-0.3,0.1-0.5,0.4-0.6l14-3.1     c0.3-0.1,0.5,0.1,0.6,0.4c0.1,0.3-0.1,0.5-0.4,0.6l-14,3.1C8.2,239.4,8.2,239.5,8.1,239.5z" id="XMLID_5708_"/></g><g id="XMLID_459_"><path class="st0" d="M9.7,231.3c-0.2,0-0.4-0.1-0.5-0.4c-0.1-0.3,0.1-0.5,0.3-0.6l9.2-2.6     c0.3-0.1,0.5,0.1,0.6,0.3c0.1,0.3-0.1,0.5-0.3,0.6l-9.2,2.6C9.8,231.3,9.8,231.3,9.7,231.3z" id="XMLID_5707_"/></g><g id="XMLID_458_"><path class="st0" d="M11.3,225.5c-0.2,0-0.3-0.1-0.4-0.2c-0.2-0.2-0.1-0.5,0.1-0.7c1.9-1.4,4.4-2.1,6.8-1.8     c0.3,0,0.5,0.3,0.4,0.6c0,0.3-0.3,0.5-0.6,0.4c-2.1-0.2-4.4,0.4-6.1,1.6C11.6,225.4,11.5,225.5,11.3,225.5z" id="XMLID_5706_"/></g><g id="XMLID_457_"><path class="st0" d="M9.2,218.4c-0.2,0-0.4-0.2-0.5-0.4c-0.1-0.3,0.1-0.5,0.4-0.6c4.5-1.1,9.1-1.5,13.7-0.9     c0.3,0,0.5,0.3,0.4,0.6s-0.3,0.5-0.6,0.4c-4.5-0.5-8.9-0.2-13.3,0.9C9.3,218.4,9.2,218.4,9.2,218.4z" id="XMLID_5705_"/></g><g id="XMLID_456_"><path class="st0" d="M11.8,210.8c-0.2,0-0.3-0.1-0.4-0.3c-0.1-0.2,0-0.5,0.2-0.7c4.2-2.3,9.2-2.9,13.9-1.8     c0.3,0.1,0.4,0.3,0.4,0.6c-0.1,0.3-0.3,0.4-0.6,0.4c-4.4-1-9.2-0.4-13.1,1.7C12,210.8,11.9,210.8,11.8,210.8z" id="XMLID_5704_"/></g><g id="XMLID_455_"><path class="st0" d="M16.2,202.3c-0.2,0-0.4-0.1-0.5-0.3c-0.1-0.3,0-0.5,0.3-0.7c3.8-1.7,8.1-2.2,12.1-1.5     c0.3,0,0.5,0.3,0.4,0.6c0,0.3-0.3,0.5-0.6,0.4c-3.9-0.7-8-0.2-11.6,1.4C16.3,202.3,16.3,202.3,16.2,202.3z" id="XMLID_5703_"/></g><g id="XMLID_454_"><path class="st0" d="M28.9,193c-0.1,0-0.2,0-0.3-0.1c-3.6-2.1-8.1-2.4-11.9-0.8c-0.3,0.1-0.5,0-0.7-0.3     c-0.1-0.3,0-0.5,0.3-0.7c4.1-1.8,9-1.5,12.8,0.8c0.2,0.1,0.3,0.4,0.2,0.7C29.3,192.9,29.1,193,28.9,193z" id="XMLID_5702_"/></g><g id="XMLID_453_"><path class="st0" d="M35.6,185.1C35.6,185.1,35.6,185.1,35.6,185.1L21,184c-0.3,0-0.5-0.3-0.5-0.5     c0-0.3,0.3-0.5,0.5-0.5l14.5,1.1c0.3,0,0.5,0.3,0.5,0.5C36.1,184.9,35.9,185.1,35.6,185.1z" id="XMLID_5701_"/></g><g id="XMLID_452_"><path class="st0" d="M34,177.6c-0.1,0-0.2,0-0.3-0.1c-2.9-1.9-6.5-2.4-9.8-1.4c-0.3,0.1-0.5-0.1-0.6-0.3     c-0.1-0.3,0.1-0.5,0.3-0.6c3.6-1.1,7.5-0.5,10.6,1.6c0.2,0.2,0.3,0.5,0.1,0.7C34.3,177.5,34.2,177.6,34,177.6z" id="XMLID_5700_"/></g><g id="XMLID_451_"><path class="st0" d="M38.8,170.7c0,0-0.1,0-0.1,0c-3.6-1-7.4-1-11-0.1c-0.3,0.1-0.5-0.1-0.6-0.4     c-0.1-0.3,0.1-0.5,0.4-0.6c3.8-0.9,7.8-0.9,11.5,0.1c0.3,0.1,0.4,0.3,0.4,0.6C39.2,170.6,39,170.7,38.8,170.7z" id="XMLID_5699_"/></g><g id="XMLID_450_"><path class="st0" d="M42.6,164.8c0,0-0.1,0-0.1,0c-3.6-1.1-7.4-1.7-11.1-1.8c-0.3,0-0.5-0.2-0.5-0.5     c0-0.3,0.2-0.5,0.5-0.5c3.9,0.1,7.7,0.7,11.4,1.8c0.3,0.1,0.4,0.4,0.3,0.6C43,164.7,42.8,164.8,42.6,164.8z" id="XMLID_5698_"/></g><g id="XMLID_449_"><path class="st0" d="M43.6,161c-0.1,0-0.2,0-0.3-0.1c-2.9-2.2-6.3-3.7-9.9-4.4c-0.3,0-0.5-0.3-0.4-0.6     c0-0.3,0.3-0.5,0.6-0.4c3.8,0.7,7.3,2.3,10.4,4.6c0.2,0.2,0.3,0.5,0.1,0.7C43.9,160.9,43.8,161,43.6,161z" id="XMLID_5697_"/></g><g id="XMLID_448_"><path class="st0" d="M45.7,152.1c0,0-0.1,0-0.1,0c-3.4-1-6.7-2.3-9.9-3.9l-0.1,0.9c0,0.3-0.3,0.5-0.6,0.4     c-0.3,0-0.5-0.3-0.4-0.6l0.2-1.6c0-0.2,0.1-0.3,0.3-0.4c0.1-0.1,0.3-0.1,0.5,0c3.3,1.7,6.8,3.1,10.4,4.1c0.3,0.1,0.4,0.4,0.3,0.6     C46.1,152,45.9,152.1,45.7,152.1z" id="XMLID_5696_"/></g><g id="XMLID_447_"><path class="st0" d="M51.2,146.4c-0.1,0-0.1,0-0.2,0c-4.6-2.2-9.8-3.3-14.9-3.3h0c-0.3,0-0.5-0.2-0.5-0.5     c0-0.3,0.3-0.5,0.6-0.5c5.2,0,10.5,1.2,15.2,3.4c0.3,0.1,0.4,0.4,0.2,0.7C51.6,146.3,51.4,146.4,51.2,146.4z" id="XMLID_5695_"/></g><g id="XMLID_446_"><path class="st0" d="M54.9,138.9c-0.1,0-0.2,0-0.3-0.1c-3.7-2.9-8.4-4.7-13.1-4.9c-0.3,0-0.5-0.3-0.5-0.5     c0-0.3,0.3-0.5,0.5-0.5c4.9,0.3,9.8,2.1,13.7,5.1c0.2,0.2,0.3,0.5,0.1,0.7C55.2,138.8,55.1,138.9,54.9,138.9z" id="XMLID_5694_"/></g><g id="XMLID_445_"><path class="st0" d="M59.1,128.7c-0.2,0-0.3-0.1-0.4-0.2c-2.5-3.3-7.6-4.3-11.1-2.2c-0.2,0.1-0.5,0.1-0.7-0.2     c-0.1-0.2-0.1-0.5,0.2-0.7c4-2.4,9.7-1.2,12.4,2.5c0.2,0.2,0.1,0.5-0.1,0.7C59.4,128.7,59.2,128.7,59.1,128.7z" id="XMLID_5693_"/></g><g id="XMLID_444_"><path class="st0" d="M64.6,122.8c-0.1,0-0.2,0-0.2-0.1l-12.9-6.5c-0.2-0.1-0.3-0.4-0.2-0.7     c0.1-0.2,0.4-0.3,0.7-0.2l12.9,6.5c0.2,0.1,0.3,0.4,0.2,0.7C65,122.7,64.8,122.8,64.6,122.8z" id="XMLID_5692_"/></g><g id="XMLID_443_"><path class="st0" d="M68.4,115.7c-0.1,0-0.2,0-0.3-0.1c-3.4-2.5-7.4-4.1-11.6-4.7c-0.3,0-0.5-0.3-0.4-0.6     c0-0.3,0.3-0.5,0.6-0.4c4.4,0.6,8.5,2.3,12.1,4.9c0.2,0.2,0.3,0.5,0.1,0.7C68.7,115.6,68.6,115.7,68.4,115.7z" id="XMLID_5691_"/></g><g id="XMLID_442_"><path class="st0" d="M72.2,109.7c-0.1,0-0.1,0-0.2-0.1c-3.6-1.8-7.4-3.2-11.2-4.2c-0.3-0.1-0.4-0.3-0.4-0.6     c0.1-0.3,0.3-0.4,0.6-0.4c3.9,1.1,7.8,2.5,11.4,4.3c0.2,0.1,0.4,0.4,0.2,0.7C72.6,109.6,72.4,109.7,72.2,109.7z" id="XMLID_5690_"/></g><g id="XMLID_441_"><path class="st0" d="M78.7,104.9c-0.1,0-0.2,0-0.3-0.1c-3.3-2.5-7.1-4.4-11.1-5.3c-0.3-0.1-0.4-0.3-0.4-0.6     c0.1-0.3,0.3-0.4,0.6-0.4c4.2,1,8.1,2.8,11.5,5.5c0.2,0.2,0.3,0.5,0.1,0.7C79,104.9,78.8,104.9,78.7,104.9z" id="XMLID_5689_"/></g><g id="XMLID_440_"><path class="st0" d="M79.8,98.3c-0.1,0-0.1,0-0.2-0.1L70.9,94c-0.2-0.1-0.4-0.4-0.2-0.7     c0.1-0.2,0.4-0.4,0.7-0.2l8.6,4.2c0.2,0.1,0.4,0.4,0.2,0.7C80.2,98.2,80,98.3,79.8,98.3z" id="XMLID_5688_"/></g><g id="XMLID_439_"><path class="st0" d="M86.7,95.3c-0.1,0-0.2,0-0.3-0.1l-11.8-7.5c-0.2-0.1-0.3-0.5-0.2-0.7     c0.1-0.2,0.5-0.3,0.7-0.2L87,94.4c0.2,0.1,0.3,0.5,0.2,0.7C87,95.2,86.9,95.3,86.7,95.3z" id="XMLID_5687_"/></g><g id="XMLID_438_"><path class="st0" d="M90.6,88.7c-0.1,0-0.2,0-0.3-0.1l-7.6-5.9c-0.2-0.2-0.3-0.5-0.1-0.7     c0.2-0.2,0.5-0.3,0.7-0.1l7.6,5.9c0.2,0.2,0.3,0.5,0.1,0.7C90.8,88.7,90.7,88.7,90.6,88.7z" id="XMLID_5686_"/></g><g id="XMLID_437_"><path class="st0" d="M98.5,84c-0.1,0-0.2,0-0.3-0.1c-3.8-3.1-7.7-6.1-11.6-8.9c-0.2-0.2-0.3-0.5-0.1-0.7     c0.2-0.2,0.5-0.3,0.7-0.1c4,2.8,7.9,5.8,11.6,8.9c0.2,0.2,0.2,0.5,0.1,0.7C98.8,84,98.7,84,98.5,84z" id="XMLID_5685_"/></g><g id="XMLID_436_"><path class="st0" d="M103.9,77.6c-0.1,0-0.2,0-0.3-0.1l-10.1-7.2c-0.2-0.2-0.3-0.5-0.1-0.7     c0.2-0.2,0.5-0.3,0.7-0.1l10.1,7.2c0.2,0.2,0.3,0.5,0.1,0.7C104.2,77.5,104.1,77.6,103.9,77.6z" id="XMLID_5684_"/></g><g id="XMLID_435_"><path class="st0" d="M108.8,71.1c-0.1,0-0.2,0-0.3-0.1c-2.2-2-4.9-3.5-7.8-4.3c-0.3-0.1-0.4-0.3-0.4-0.6     c0.1-0.3,0.3-0.4,0.6-0.4c3.1,0.8,5.9,2.4,8.2,4.5c0.2,0.2,0.2,0.5,0,0.7C109,71,108.9,71.1,108.8,71.1z" id="XMLID_5683_"/></g><g id="XMLID_434_"><path class="st0" d="M115.9,68.2c-0.1,0-0.2,0-0.3-0.1l-9.7-6.9c-0.2-0.2-0.3-0.5-0.1-0.7     c0.2-0.2,0.5-0.3,0.7-0.1l9.7,6.9c0.2,0.2,0.3,0.5,0.1,0.7C116.2,68.1,116,68.2,115.9,68.2z" id="XMLID_5682_"/></g><g id="XMLID_433_"><path class="st0" d="M124.4,65.2c-0.1,0-0.2,0-0.3-0.1c-3.9-3.1-7.5-6.6-10.8-10.4c-0.2-0.2-0.2-0.5,0.1-0.7     c0.2-0.2,0.5-0.2,0.7,0.1c3.2,3.7,6.8,7.2,10.6,10.2c0.2,0.2,0.3,0.5,0.1,0.7C124.7,65.1,124.5,65.2,124.4,65.2z" id="XMLID_5681_"/></g><g id="XMLID_432_"><path class="st0" d="M131.4,56c-0.1,0-0.2,0-0.3-0.1c-2.3-2.2-4.8-4.2-7.4-5.9c-0.2-0.2-0.3-0.5-0.1-0.7     c0.2-0.2,0.5-0.3,0.7-0.1c2.7,1.8,5.2,3.8,7.5,6c0.2,0.2,0.2,0.5,0,0.7C131.6,55.9,131.5,56,131.4,56z" id="XMLID_5680_"/></g><g id="XMLID_431_"><path class="st0" d="M137.8,52.3c-0.1,0-0.2,0-0.3-0.1c-3.5-2.4-6.7-5.2-9.7-8.3c-0.2-0.2-0.2-0.5,0-0.7     c0.2-0.2,0.5-0.2,0.7,0c2.9,3,6.1,5.8,9.5,8.2c0.2,0.2,0.3,0.5,0.1,0.7C138.1,52.2,138,52.3,137.8,52.3z" id="XMLID_5679_"/></g><g id="XMLID_430_"><path class="st0" d="M145.5,48.9c-0.2,0-0.3-0.1-0.4-0.2c-3-4.1-6.5-7.8-10.2-11.2c-0.2-0.2-0.2-0.5,0-0.7     c0.2-0.2,0.5-0.2,0.7,0c3.8,3.4,7.3,7.2,10.3,11.3c0.2,0.2,0.1,0.5-0.1,0.7C145.7,48.9,145.6,48.9,145.5,48.9z" id="XMLID_5678_"/></g><g id="XMLID_429_"><path class="st0" d="M101.4,446.3c-0.3,0-0.5-0.2-0.6-0.4c-0.1-0.2-0.2-0.7,0.5-1.2l9.4-7.4     c0.2-0.2,0.5-0.1,0.7,0.1c0.2,0.2,0.1,0.5-0.1,0.7l-9.3,7.3c0.1,0.1,0.1,0.3,0.1,0.4C102.1,446.1,101.7,446.3,101.4,446.3     C101.4,446.3,101.4,446.3,101.4,446.3z" id="XMLID_5677_"/></g><g id="XMLID_428_"><path class="st0" d="M107.7,446.8c-0.1,0-0.3-0.1-0.4-0.2c-0.2-0.2-0.1-0.5,0.1-0.7l11.8-9.2     c0.2-0.2,0.5-0.1,0.7,0.1c0.2,0.2,0.1,0.5-0.1,0.7l-11.8,9.2C108,446.7,107.9,446.8,107.7,446.8z" id="XMLID_5676_"/></g><g id="XMLID_427_"><path class="st0" d="M110.4,452.2c-0.2,0-0.3-0.1-0.4-0.2c-0.2-0.2-0.1-0.5,0.1-0.7l13.5-10.2     c0.2-0.2,0.5-0.1,0.7,0.1c0.2,0.2,0.1,0.5-0.1,0.7l-13.5,10.2C110.7,452.1,110.5,452.2,110.4,452.2z" id="XMLID_5675_"/></g><g id="XMLID_426_"><path class="st0" d="M118.5,453.7c-0.2,0-0.3-0.1-0.4-0.2c-0.2-0.2-0.1-0.5,0.1-0.7l12.9-8.6     c0.2-0.2,0.5-0.1,0.7,0.1c0.2,0.2,0.1,0.5-0.1,0.7l-12.9,8.6C118.7,453.7,118.6,453.7,118.5,453.7z" id="XMLID_5674_"/></g><g id="XMLID_425_"><path class="st0" d="M122.3,459.7c-0.2,0-0.3-0.1-0.4-0.2c-0.2-0.2-0.1-0.5,0.1-0.7c3.6-2.4,7-5.1,10.2-8     c0.2-0.2,0.5-0.2,0.7,0c0.2,0.2,0.2,0.5,0,0.7c-3.2,2.9-6.7,5.7-10.3,8.1C122.5,459.6,122.4,459.7,122.3,459.7z" id="XMLID_5673_"/></g><g id="XMLID_424_"><path class="st0" d="M127.2,462.9c-0.1,0-0.2,0-0.3-0.1c-0.2-0.2-0.2-0.5,0-0.7c3.5-3.8,7.5-7.1,11.8-9.9     c0.2-0.1,0.5-0.1,0.7,0.1c0.1,0.2,0.1,0.5-0.1,0.7c-4.3,2.8-8.2,6-11.6,9.8C127.4,462.9,127.3,462.9,127.2,462.9z" id="XMLID_5672_"/></g><g id="XMLID_423_"><path class="st0" d="M133.1,465.1c-0.1,0-0.3,0-0.4-0.1c-0.2-0.2-0.2-0.5,0-0.7c4.1-4.1,8.8-7.5,14.1-9.9     c0.2-0.1,0.5,0,0.7,0.2c0.1,0.3,0,0.5-0.2,0.7c-5.2,2.4-9.8,5.6-13.8,9.7C133.3,465,133.2,465.1,133.1,465.1z" id="XMLID_5671_"/></g><g id="XMLID_422_"><path class="st0" d="M140,467.2c-0.2,0-0.3-0.1-0.4-0.2c-0.2-0.2-0.1-0.5,0.1-0.7l9.2-6.5     c0.2-0.2,0.5-0.1,0.7,0.1c0.2,0.2,0.1,0.5-0.1,0.7l-9.2,6.5C140.2,467.2,140.1,467.2,140,467.2z" id="XMLID_5670_"/></g><g id="XMLID_421_"><path class="st0" d="M147,469.9c-0.2,0-0.3-0.1-0.4-0.2c-0.2-0.2-0.1-0.5,0.1-0.7l14-9.1     c0.2-0.1,0.5-0.1,0.7,0.1c0.2,0.2,0.1,0.5-0.1,0.7l-14,9.1C147.2,469.8,147.1,469.9,147,469.9z" id="XMLID_5669_"/></g><g id="XMLID_420_"><path class="st0" d="M151.4,474.8c-0.2,0-0.3-0.1-0.4-0.2c-0.2-0.2-0.1-0.5,0.1-0.7l15.6-11.3     c0.2-0.2,0.5-0.1,0.7,0.1c0.2,0.2,0.1,0.5-0.1,0.7l-15.6,11.3C151.6,474.8,151.5,474.8,151.4,474.8z" id="XMLID_5668_"/></g><g id="XMLID_419_"><path class="st0" d="M156.2,477.5c-0.2,0-0.3-0.1-0.4-0.3c-0.1-0.2,0-0.5,0.2-0.7c4.2-2.3,8-5.5,11.1-9.2     c0.2-0.2,0.5-0.2,0.7-0.1c0.2,0.2,0.2,0.5,0.1,0.7c-3.1,3.8-7.1,7-11.4,9.4C156.4,477.5,156.3,477.5,156.2,477.5z" id="XMLID_5667_"/></g><g id="XMLID_418_"><path class="st0" d="M161.8,479.8c-0.2,0-0.4-0.1-0.5-0.4l-4.6-16.9c-0.1-0.3,0.1-0.5,0.4-0.6     c0.3-0.1,0.5,0.1,0.6,0.4l4.6,16.9c0.1,0.3-0.1,0.5-0.4,0.6C161.9,479.8,161.8,479.8,161.8,479.8z" id="XMLID_5666_"/></g><g id="XMLID_417_"><path class="st0" d="M154,480.3c-0.2,0-0.4-0.1-0.5-0.4c-1.7-6.5-2.8-13.2-3.2-19.9c0-0.3,0.2-0.5,0.5-0.5     c0.3,0,0.5,0.2,0.5,0.5c0.4,6.6,1.5,13.3,3.2,19.7c0.1,0.3-0.1,0.5-0.4,0.6C154.1,480.3,154,480.3,154,480.3z" id="XMLID_5665_"/></g><g id="XMLID_416_"><path class="st0" d="M147.9,473.8c-0.2,0-0.4-0.1-0.5-0.4c-1.5-4.9-2-10.1-1.5-15.2c0-0.3,0.3-0.5,0.5-0.5     c0.3,0,0.5,0.3,0.5,0.5c-0.5,4.9,0,10,1.5,14.8c0.1,0.3-0.1,0.5-0.3,0.6C148,473.8,147.9,473.8,147.9,473.8z" id="XMLID_5664_"/></g><g id="XMLID_415_"><path class="st0" d="M138.6,465.3c-0.2,0-0.4-0.1-0.5-0.3c-2-5.7-2.9-11.9-2.6-18c0-0.3,0.2-0.5,0.5-0.5     c0.3,0,0.5,0.2,0.5,0.5c-0.3,5.9,0.6,12,2.5,17.6c0.1,0.3,0,0.5-0.3,0.6C138.7,465.3,138.7,465.3,138.6,465.3z" id="XMLID_5663_"/></g><g id="XMLID_414_"><path class="st0" d="M130,464.8c-0.2,0-0.4-0.2-0.5-0.4c-1.7-7-1.9-14.5-0.6-21.6c0.1-0.3,0.3-0.4,0.6-0.4     c0.3,0,0.5,0.3,0.4,0.6c-1.3,7-1.1,14.3,0.6,21.2c0.1,0.3-0.1,0.5-0.4,0.6C130.1,464.8,130.1,464.8,130,464.8z" id="XMLID_5662_"/></g><g id="XMLID_413_"><path class="st0" d="M126.7,460.4c-0.2,0-0.4-0.1-0.5-0.3c-2-6-2.3-12.7-0.7-18.9c0.1-0.3,0.3-0.4,0.6-0.4     c0.3,0.1,0.4,0.3,0.4,0.6c-1.5,6-1.3,12.5,0.7,18.3c0.1,0.3-0.1,0.5-0.3,0.6C126.8,460.4,126.7,460.4,126.7,460.4z" id="XMLID_5661_"/></g><g id="XMLID_412_"><path class="st0" d="M118.2,459.6c-0.3,0-0.5-0.2-0.5-0.4c-0.3-2.5-0.7-4.9-1-7.3c-0.9-5.8-1.8-11.4-1.1-17.9     c0-0.3,0.3-0.5,0.6-0.4c0.3,0,0.5,0.3,0.4,0.6c-0.7,6.4,0.1,11.8,1.1,17.6c0.4,2.3,0.8,4.8,1.1,7.3     C118.7,459.4,118.5,459.6,118.2,459.6C118.2,459.6,118.2,459.6,118.2,459.6z" id="XMLID_5660_"/></g><g id="XMLID_411_"><path class="st0" d="M110.4,453.2c-0.2,0-0.4-0.2-0.5-0.4c-1.1-5.2-1.7-10.5-1.6-15.9c0-0.3,0.2-0.5,0.5-0.5     c0,0,0,0,0,0c0.3,0,0.5,0.2,0.5,0.5c-0.1,5.2,0.5,10.5,1.6,15.6c0.1,0.3-0.1,0.5-0.4,0.6C110.5,453.2,110.5,453.2,110.4,453.2z" id="XMLID_5659_"/></g><g id="XMLID_410_"><path class="st0" d="M101.5,448.8c-0.2,0-0.4-0.2-0.5-0.4c-0.9-4.6-1.1-9.3-0.4-13.9c0-0.3,0.3-0.5,0.6-0.4     c0.3,0,0.5,0.3,0.4,0.6c-0.7,4.5-0.6,9.1,0.4,13.6c0.1,0.3-0.1,0.5-0.4,0.6C101.6,448.8,101.5,448.8,101.5,448.8z" id="XMLID_5658_"/></g><g id="XMLID_409_"><path class="st0" d="M96,442.7c-0.3,0-0.5-0.2-0.5-0.5c-0.3-6.5,0.4-12.9,2.1-19.2c0.1-0.3,0.3-0.4,0.6-0.4     c0.3,0.1,0.4,0.3,0.4,0.6c-1.7,6.2-2.4,12.5-2.1,18.9C96.5,442.5,96.3,442.7,96,442.7C96,442.7,96,442.7,96,442.7z" id="XMLID_5657_"/></g><g id="XMLID_408_"><path class="st0" d="M90.2,434.2C90.2,434.2,90.2,434.2,90.2,434.2c-0.3,0-0.5-0.3-0.5-0.5     c0.4-6.2,1.2-12.5,2.4-18.6c0.1-0.3,0.3-0.4,0.6-0.4c0.3,0.1,0.4,0.3,0.4,0.6c-1.3,6.1-2.1,12.3-2.4,18.5     C90.7,434,90.5,434.2,90.2,434.2z" id="XMLID_5656_"/></g><g id="XMLID_407_"><path class="st0" d="M85.3,430.6C85.3,430.6,85.3,430.6,85.3,430.6c-0.3,0-0.5-0.3-0.5-0.5     c0.7-7,1.7-14.1,2.9-21c0-0.3,0.3-0.4,0.6-0.4c0.3,0,0.5,0.3,0.4,0.6c-1.2,6.9-2.2,14-2.9,20.9C85.8,430.4,85.6,430.6,85.3,430.6     z" id="XMLID_5655_"/></g><g id="XMLID_406_"><path class="st0" d="M80.6,424.5c-0.3,0-0.5-0.2-0.5-0.5c-0.1-6.1,1.1-12.4,3.5-18c0.1-0.3,0.4-0.4,0.7-0.3     c0.3,0.1,0.4,0.4,0.3,0.7c-2.3,5.5-3.5,11.6-3.4,17.6C81.1,424.3,80.9,424.5,80.6,424.5C80.6,424.5,80.6,424.5,80.6,424.5z" id="XMLID_5654_"/></g><g id="XMLID_405_"><path class="st0" d="M76.3,417.6c0,0-0.1,0-0.1,0c-0.3-0.1-0.4-0.3-0.4-0.6l3.4-16.5c0.1-0.3,0.3-0.4,0.6-0.4     c0.3,0.1,0.4,0.3,0.4,0.6l-3.4,16.5C76.8,417.5,76.6,417.6,76.3,417.6z" id="XMLID_5653_"/></g><g id="XMLID_404_"><path class="st0" d="M69.9,414c0,0-0.1,0-0.1,0c-0.3-0.1-0.4-0.3-0.4-0.6l3.5-15.7c0.1-0.3,0.3-0.4,0.6-0.4     c0.3,0.1,0.4,0.3,0.4,0.6l-3.5,15.7C70.3,413.8,70.1,414,69.9,414z" id="XMLID_5652_"/></g><g id="XMLID_403_"><path class="st0" d="M63.5,404.3c0,0-0.1,0-0.1,0c-0.3-0.1-0.4-0.3-0.4-0.6l2.6-10.5c0.1-0.3,0.3-0.4,0.6-0.4     c0.3,0.1,0.4,0.3,0.4,0.6L64,403.9C63.9,404.2,63.7,404.3,63.5,404.3z" id="XMLID_5651_"/></g><g id="XMLID_402_"><path class="st0" d="M58,396.3C58,396.3,58,396.3,58,396.3c-0.3,0-0.5-0.3-0.5-0.5c0.2-3.9,1.3-7.7,3.1-11.2     c0.1-0.2,0.4-0.3,0.7-0.2c0.2,0.1,0.3,0.4,0.2,0.7c-1.7,3.3-2.8,7-3,10.8C58.5,396.1,58.2,396.3,58,396.3z" id="XMLID_5650_"/></g><g id="XMLID_401_"><path class="st0" d="M54.8,391C54.8,391,54.8,391,54.8,391c-0.3,0-0.5-0.3-0.5-0.5c0.3-3.9,1.1-7.8,2.3-11.4     c0.1-0.3,0.4-0.4,0.6-0.3c0.3,0.1,0.4,0.4,0.3,0.6c-1.2,3.6-2,7.4-2.3,11.2C55.3,390.8,55.1,391,54.8,391z" id="XMLID_5649_"/></g><g id="XMLID_400_"><path class="st0" d="M49.4,383.8C49.4,383.8,49.4,383.8,49.4,383.8c-0.3,0-0.5-0.3-0.5-0.6     c0.6-5.4,1.9-10.6,4-15.5c0.1-0.3,0.4-0.4,0.7-0.3c0.3,0.1,0.4,0.4,0.3,0.7c-2,4.9-3.4,10-3.9,15.3     C49.9,383.6,49.7,383.8,49.4,383.8z" id="XMLID_5648_"/></g><g id="XMLID_399_"><path class="st0" d="M46.8,378.9c0,0-0.1,0-0.1,0c-0.3-0.1-0.4-0.3-0.4-0.6l3.2-15.7c0.1-0.3,0.3-0.4,0.6-0.4     c0.3,0.1,0.4,0.3,0.4,0.6l-3.2,15.7C47.3,378.7,47.1,378.9,46.8,378.9z" id="XMLID_5647_"/></g><g id="XMLID_398_"><path class="st0" d="M43.3,370.4c0,0-0.1,0-0.1,0c-0.3-0.1-0.4-0.3-0.4-0.6l4-15.4c0.1-0.3,0.3-0.4,0.6-0.4     c0.3,0.1,0.4,0.3,0.4,0.6l-4,15.4C43.8,370.3,43.6,370.4,43.3,370.4z" id="XMLID_5646_"/></g><g id="XMLID_397_"><path class="st0" d="M39.2,362.3c0,0-0.1,0-0.1,0c-0.3-0.1-0.4-0.3-0.4-0.6c1.4-5.3,3.1-10.6,5.1-15.7     c0.1-0.3,0.4-0.4,0.6-0.3c0.3,0.1,0.4,0.4,0.3,0.6c-2,5.1-3.7,10.3-5,15.6C39.6,362.2,39.4,362.3,39.2,362.3z" id="XMLID_5645_"/></g><g id="XMLID_396_"><path class="st0" d="M37.3,358.3c0,0-0.1,0-0.1,0c-0.3-0.1-0.4-0.3-0.4-0.6c1.1-5.3,2.9-10.6,5.2-15.5     c0.1-0.3,0.4-0.4,0.7-0.2c0.3,0.1,0.4,0.4,0.2,0.7c-2.3,4.9-4,10-5.1,15.3C37.7,358.2,37.5,358.3,37.3,358.3z" id="XMLID_5644_"/></g><g id="XMLID_395_"><path class="st0" d="M29.5,350.3C29.4,350.3,29.4,350.3,29.5,350.3c-0.4-0.1-0.5-0.3-0.5-0.6     c1.3-6.7,3.2-13.3,5.8-19.6c0.1-0.3,0.4-0.4,0.7-0.3c0.3,0.1,0.4,0.4,0.3,0.7c-2.6,6.2-4.5,12.7-5.7,19.4     C29.9,350.1,29.7,350.3,29.5,350.3z" id="XMLID_5643_"/></g><g id="XMLID_394_"><path class="st0" d="M24.6,336.2c-0.1,0-0.1,0-0.2,0c-0.3-0.1-0.4-0.4-0.3-0.6l5.3-13.7c0.2-0.6,1-1.1,1.5-0.9     c0.4,0.1,0.6,0.4,0.6,0.8c0,0.3-0.2,0.5-0.5,0.5c-0.1,0-0.3-0.1-0.4-0.2c-0.1,0.1-0.2,0.2-0.2,0.3L25,335.8     C25,336,24.8,336.2,24.6,336.2z" id="XMLID_5642_"/></g><g id="XMLID_393_"><path class="st0" d="M22.8,322.4c0,0-0.1,0-0.1,0c-0.3-0.1-0.4-0.3-0.4-0.6c1.1-5.4,2.9-10.6,5.3-15.5     c0.1-0.2,0.4-0.3,0.7-0.2c0.2,0.1,0.3,0.4,0.2,0.7c-2.4,4.8-4.2,9.9-5.2,15.2C23.2,322.2,23,322.4,22.8,322.4z" id="XMLID_5641_"/></g><g id="XMLID_392_"><path class="st0" d="M18.4,314.7C18.4,314.7,18.3,314.7,18.4,314.7c-0.3,0-0.5-0.3-0.5-0.6     c0.8-5.3,3.7-10.3,7.8-13.7c0.2-0.2,0.5-0.1,0.7,0.1c0.2,0.2,0.1,0.5-0.1,0.7c-4,3.2-6.7,8-7.4,13.1     C18.9,314.6,18.6,314.7,18.4,314.7z" id="XMLID_5640_"/></g><g id="XMLID_391_"><path class="st0" d="M14.7,298.6c0,0-0.1,0-0.1,0c-0.3-0.1-0.4-0.4-0.3-0.6c1.7-6.2,4.3-12.1,7.5-17.6     c0.1-0.2,0.4-0.3,0.7-0.2s0.3,0.4,0.2,0.7c-3.2,5.5-5.7,11.3-7.4,17.4C15.1,298.4,14.9,298.6,14.7,298.6z" id="XMLID_5639_"/></g><g id="XMLID_390_"><path class="st0" d="M13,286.8c-0.1,0-0.1,0-0.2,0c-0.3-0.1-0.4-0.4-0.3-0.6c2-5.3,4.3-10.4,7-15.4     c0.1-0.2,0.4-0.3,0.7-0.2c0.2,0.1,0.3,0.4,0.2,0.7c-2.7,4.9-5,10-7,15.2C13.4,286.7,13.2,286.8,13,286.8z" id="XMLID_5638_"/></g><g id="XMLID_389_"><path class="st0" d="M11,272.3c-0.1,0-0.1,0-0.2,0c-0.3-0.1-0.4-0.4-0.3-0.7c2.8-7,6.5-13.6,10.8-19.8     c0.2-0.2,0.5-0.3,0.7-0.1c0.2,0.2,0.3,0.5,0.1,0.7c-4.3,6.1-7.9,12.7-10.7,19.6C11.3,272.2,11.1,272.3,11,272.3z" id="XMLID_5637_"/></g><g id="XMLID_388_"><path class="st0" d="M10.6,262.2c-0.1,0-0.2,0-0.3-0.1c-0.2-0.1-0.3-0.5-0.2-0.7c3.9-6.1,8-12.2,12.3-18.1     c0.2-0.2,0.5-0.3,0.7-0.1c0.2,0.2,0.3,0.5,0.1,0.7c-4.3,5.8-8.4,11.9-12.3,18C10.9,262.1,10.8,262.2,10.6,262.2z" id="XMLID_5636_"/></g><g id="XMLID_387_"><path class="st0" d="M11.5,250.1c-0.1,0-0.2,0-0.2-0.1c-0.2-0.1-0.3-0.4-0.2-0.7c3.4-6,7.4-11.7,11.8-17     c0.2-0.2,0.5-0.2,0.7-0.1c0.2,0.2,0.2,0.5,0.1,0.7c-4.4,5.2-8.4,10.9-11.7,16.8C11.8,250,11.6,250.1,11.5,250.1z" id="XMLID_5635_"/></g><g id="XMLID_386_"><path class="st0" d="M11.6,238.9c-0.1,0-0.2,0-0.2-0.1c-0.2-0.1-0.3-0.4-0.2-0.7c3.9-7.1,8.9-13.4,15-18.8     c0.2-0.2,0.5-0.2,0.7,0c0.2,0.2,0.2,0.5,0,0.7c-6,5.3-10.9,11.5-14.8,18.5C11.9,238.8,11.7,238.9,11.6,238.9z" id="XMLID_5634_"/></g><g id="XMLID_385_"><path class="st0" d="M13.5,225.1c-0.1,0-0.3,0-0.4-0.1c-0.2-0.2-0.2-0.5,0-0.7l15.4-15.7c0.2-0.2,0.5-0.2,0.7,0     c0.2,0.2,0.2,0.5,0,0.7l-15.4,15.7C13.8,225,13.6,225.1,13.5,225.1z" id="XMLID_5633_"/></g><g id="XMLID_384_"><path class="st0" d="M15.6,212.6c-0.1,0-0.2,0-0.3-0.1c-0.2-0.2-0.2-0.5-0.1-0.7c4.5-5.6,9.7-10.6,15.5-15     c0.2-0.2,0.5-0.1,0.7,0.1c0.2,0.2,0.1,0.5-0.1,0.7c-5.7,4.3-10.8,9.3-15.3,14.8C15.8,212.5,15.7,212.6,15.6,212.6z" id="XMLID_5632_"/></g><g id="XMLID_383_"><path class="st0" d="M18.4,198.9c-0.1,0-0.2,0-0.3-0.1c-0.2-0.2-0.2-0.5,0-0.7c4.9-5.4,10.5-10.2,16.6-14.2     c0.2-0.2,0.5-0.1,0.7,0.1c0.2,0.2,0.1,0.5-0.1,0.7c-6.1,3.9-11.6,8.7-16.4,14C18.7,198.9,18.6,198.9,18.4,198.9z" id="XMLID_5631_"/></g><g id="XMLID_382_"><path class="st0" d="M23.4,182.8C23.4,182.8,23.4,182.8,23.4,182.8c-0.4,0-0.8-0.3-0.8-0.8c0-0.6,0.5-0.9,0.7-1     c4.6-2.9,8.7-6.6,12.1-10.8c0.2-0.2,0.5-0.3,0.7-0.1c0.2,0.2,0.3,0.5,0.1,0.7c-3.4,4.3-7.5,8-12.2,11c0.1,0.1,0.2,0.2,0.2,0.4     C24.1,182.6,23.8,182.8,23.4,182.8z" id="XMLID_5630_"/></g><g id="XMLID_381_"><path class="st0" d="M24,171.4c-0.1,0-0.3-0.1-0.4-0.2c-0.2-0.2-0.2-0.5,0-0.7c6.5-6,13.3-11.9,20.2-17.4     c0.2-0.2,0.5-0.1,0.7,0.1s0.1,0.5-0.1,0.7c-6.9,5.5-13.6,11.4-20.1,17.4C24.3,171.4,24.1,171.4,24,171.4z" id="XMLID_5629_"/></g><g id="XMLID_380_"><path class="st0" d="M28.9,159.3c-0.1,0-0.3,0-0.4-0.1c-0.2-0.2-0.2-0.5,0-0.7c6.4-6.3,13.5-11.8,21.2-16.5     c0.2-0.1,0.5-0.1,0.7,0.2s0.1,0.5-0.2,0.7c-7.6,4.6-14.6,10.1-21,16.4C29.1,159.2,29,159.3,28.9,159.3z" id="XMLID_5628_"/></g><g id="XMLID_379_"><path class="st0" d="M41.4,140.3c-0.2,0-0.3-0.1-0.4-0.2c-0.2-0.2-0.1-0.5,0.1-0.7c6-4.3,12.2-8.4,18.6-12.1     c0.2-0.1,0.5-0.1,0.7,0.2c0.1,0.2,0.1,0.5-0.2,0.7c-6.3,3.7-12.6,7.8-18.5,12.1C41.6,140.3,41.5,140.3,41.4,140.3z" id="XMLID_5627_"/></g><g id="XMLID_378_"><path class="st0" d="M45.8,128.2c-0.2,0-0.3-0.1-0.4-0.3c-0.1-0.2,0-0.5,0.2-0.7c7.8-4.2,15.6-8.8,23.1-13.6     c0.2-0.1,0.5-0.1,0.7,0.2c0.1,0.2,0.1,0.5-0.2,0.7c-7.5,4.8-15.3,9.3-23.1,13.6C46,128.2,45.9,128.2,45.8,128.2z" id="XMLID_5626_"/></g><g id="XMLID_377_"><path class="st0" d="M53,117.5c-0.2,0-0.3-0.1-0.4-0.3c-0.1-0.2-0.1-0.5,0.2-0.7l24.4-13.8     c0.2-0.1,0.5-0.1,0.7,0.2c0.1,0.2,0.1,0.5-0.2,0.7l-24.4,13.8C53.1,117.5,53,117.5,53,117.5z" id="XMLID_5625_"/></g><g id="XMLID_376_"><path class="st0" d="M61.5,103.5c-0.2,0-0.4-0.1-0.5-0.3c-0.1-0.3,0-0.5,0.2-0.7c3.1-1.4,5.5-3.3,8-5.3     c1.8-1.4,3.7-2.9,5.8-4.2c5.5-3.3,11.5-6,17.4-8.7c1.1-0.5,2.1-1,3.2-1.5c0.3-0.1,0.5,0,0.7,0.2c0.1,0.3,0,0.5-0.2,0.7     c-1.1,0.5-2.1,1-3.2,1.5C87.1,88,81.1,90.7,75.6,94c-2.1,1.2-3.9,2.7-5.7,4.1c-2.5,1.9-5,3.9-8.2,5.4     C61.7,103.5,61.6,103.5,61.5,103.5z" id="XMLID_5624_"/></g><g id="XMLID_375_"><path class="st0" d="M83.4,85c-0.2,0-0.4-0.1-0.5-0.3c-0.1-0.3,0-0.5,0.2-0.7L107,73.1c0.3-0.1,0.5,0,0.7,0.2     c0.1,0.3,0,0.5-0.2,0.7L83.6,84.9C83.5,85,83.4,85,83.4,85z" id="XMLID_5623_"/></g><g id="XMLID_374_"><path class="st0" d="M94.3,71.7c-0.2,0-0.4-0.2-0.5-0.4c-0.1-0.3,0.1-0.5,0.4-0.6c9.3-2,18.5-4.8,27.3-8.5     c0.3-0.1,0.5,0,0.7,0.3c0.1,0.3,0,0.5-0.3,0.7c-8.9,3.7-18.1,6.6-27.5,8.5C94.3,71.7,94.3,71.7,94.3,71.7z" id="XMLID_5622_"/></g><g id="XMLID_373_"><path class="st0" d="M108,60.8c-0.2,0-0.4-0.2-0.5-0.4c-0.1-0.3,0.1-0.5,0.4-0.6c7.9-1.5,15.7-3.6,23.3-6.1     c0.3-0.1,0.5,0.1,0.6,0.3c0.1,0.3-0.1,0.5-0.3,0.6C123.9,57.1,116,59.2,108,60.8C108.1,60.8,108,60.8,108,60.8z" id="XMLID_5621_"/></g><g id="XMLID_372_"><path class="st0" d="M125.8,51.2c-0.2,0-0.5-0.2-0.5-0.4c0-0.3,0.1-0.5,0.4-0.6l14.1-2.4c0.3,0,0.5,0.1,0.6,0.4     c0,0.3-0.1,0.5-0.4,0.6L125.8,51.2C125.8,51.1,125.8,51.2,125.8,51.2z" id="XMLID_5620_"/></g><g id="XMLID_295_"><path class="st0" d="M356.1,390c-0.2,0-0.4-0.1-0.5-0.4c-0.5-1.7-1.6-3.1-3-4.1c-0.2-0.2-0.3-0.5-0.1-0.7     c0.2-0.2,0.5-0.3,0.7-0.1c1.6,1.1,2.8,2.8,3.4,4.7c0.1,0.3-0.1,0.5-0.3,0.6C356.2,390,356.2,390,356.1,390z" id="XMLID_5619_"/></g><g id="XMLID_292_"><path class="st0" d="M339.7,391.8c-0.1,0-0.3-0.1-0.4-0.2l-2.8-3.5c-0.2-0.2-0.1-0.5,0.1-0.7     c0.2-0.2,0.5-0.1,0.7,0.1l2.8,3.5c0.2,0.2,0.1,0.5-0.1,0.7C339.9,391.8,339.8,391.8,339.7,391.8z" id="XMLID_5618_"/></g><g id="XMLID_272_"><path class="st0" d="M280.1,402.7c-0.2,0-0.4-0.1-0.5-0.3c-0.1-0.3,0-0.5,0.2-0.7l4.9-2.3     c0.3-0.1,0.5,0,0.7,0.2c0.1,0.3,0,0.5-0.2,0.7l-4.9,2.3C280.2,402.6,280.1,402.7,280.1,402.7z" id="XMLID_5617_"/></g><g id="XMLID_271_"><path class="st0" d="M255.1,407.5c-0.2,0-0.4-0.2-0.5-0.4c-0.1-0.3,0.1-0.5,0.4-0.6l9.8-2.5     c0.3-0.1,0.5,0.1,0.6,0.4c0.1,0.3-0.1,0.5-0.4,0.6l-9.8,2.5C255.2,407.5,255.1,407.5,255.1,407.5z" id="XMLID_5616_"/></g><g id="XMLID_270_"><path class="st0" d="M183.4,410.5C183.4,410.5,183.4,410.5,183.4,410.5c-0.3,0-0.5-0.3-0.5-0.5     c0.6-6.5,3.2-12.8,7.4-17.8c0.2-0.2,0.5-0.2,0.7-0.1c0.2,0.2,0.2,0.5,0.1,0.7c-4,4.8-6.6,11-7.1,17.2     C183.9,410.3,183.7,410.5,183.4,410.5z" id="XMLID_5615_"/></g><g id="XMLID_269_"><path class="st0" d="M190.8,402c-0.2,0-0.4-0.1-0.5-0.3c-0.1-0.3,0-0.5,0.3-0.6c3.6-1.4,7.6-1.7,11.4-2.1     c3.9-0.3,8-0.7,11.6-2.2c0.3-0.1,0.5,0,0.7,0.3c0.1,0.3,0,0.5-0.3,0.7c-3.8,1.6-7.9,1.9-11.9,2.3c-3.7,0.3-7.6,0.7-11.1,2     C190.9,402,190.8,402,190.8,402z" id="XMLID_5614_"/></g><g id="XMLID_268_"><path class="st0" d="M377.9,442.5c-0.2,0-0.3-0.1-0.4-0.2c-0.2-0.2-0.1-0.5,0.1-0.7     c39.9-28.9,64.8-74.5,86.8-114.8c5.8-10.6,11.8-21.6,16.3-33c0.1-0.3,0.4-0.4,0.7-0.3c0.3,0.1,0.4,0.4,0.3,0.6     c-4.6,11.4-10.6,22.4-16.4,33.1c-22,40.3-47,86.1-87,115.1C378.1,442.5,378,442.5,377.9,442.5z" id="XMLID_5613_"/></g><g id="XMLID_267_"><path class="st0" d="M394.5,390.9c-0.2,0-0.3-0.1-0.4-0.2c-0.2-0.2-0.1-0.5,0.1-0.7     c16.2-12.2,29.3-28.5,37.7-47c0.1-0.3,0.4-0.4,0.7-0.2c0.3,0.1,0.4,0.4,0.2,0.7c-8.5,18.7-21.6,35-38,47.4     C394.7,390.8,394.6,390.9,394.5,390.9z" id="XMLID_5612_"/></g><g id="XMLID_266_"><path class="st0" d="M396.2,365.2c-0.1,0-0.2,0-0.3-0.1c-0.2-0.2-0.2-0.5-0.1-0.7c4.7-5.8,9.1-12,13.1-18.4     c0.1-0.2,0.5-0.3,0.7-0.2c0.2,0.1,0.3,0.5,0.2,0.7c-4,6.4-8.5,12.6-13.2,18.5C396.5,365.1,396.4,365.2,396.2,365.2z" id="XMLID_5611_"/></g><g id="XMLID_265_"><path class="st0" d="M252.5,35.7c-0.3,0-0.5-0.2-0.5-0.5c0-0.3,0.2-0.5,0.5-0.5l76.7-5c0.2,0,0.5,0.2,0.5,0.5     c0,0.3-0.2,0.5-0.5,0.5L252.5,35.7C252.5,35.7,252.5,35.7,252.5,35.7z" id="XMLID_5610_"/></g><g id="XMLID_264_"><path class="st0" d="M253.3,43.1c-0.3,0-0.5-0.2-0.5-0.5c0-0.3,0.2-0.5,0.5-0.5c28.4-1.4,57.2-1.9,85.6-1.7     c0.3,0,0.5,0.2,0.5,0.5c0,0.3-0.2,0.5-0.5,0.5c0,0,0,0,0,0C310.5,41.2,281.7,41.7,253.3,43.1C253.4,43.1,253.3,43.1,253.3,43.1z" id="XMLID_5609_"/></g><g id="XMLID_263_"><path class="st0" d="M310,57c-15.2,0-30.3-0.3-45.4-0.8c-0.3,0-0.5-0.2-0.5-0.5c0-0.3,0.2-0.5,0.5-0.5     c24.9,0.9,50.2,1.1,75.1,0.5c0.3,0,0.5,0.2,0.5,0.5c0,0.3-0.2,0.5-0.5,0.5C329.9,56.9,319.9,57,310,57z" id="XMLID_5608_"/></g><g id="XMLID_261_"><path class="st0" d="M413.1,92.7c-0.1,0-0.1,0-0.2,0c-5.2-2.5-11.2-3-17-3.4c-6.8-0.5-13.8-1.1-19.5-4.9     c-0.2-0.2-0.3-0.5-0.1-0.7c0.2-0.2,0.5-0.3,0.7-0.1c5.5,3.6,12.1,4.2,19,4.7c5.9,0.5,12,0.9,17.3,3.5c0.2,0.1,0.4,0.4,0.2,0.7     C413.4,92.6,413.2,92.7,413.1,92.7z" id="XMLID_5607_"/></g><g id="XMLID_260_"><path class="st0" d="M227.5,256.2c-0.3,0-0.5-0.2-0.5-0.5c0-0.3,0.2-0.5,0.5-0.5l103.3-3.2     c0.3,0,0.5,0.2,0.5,0.5c0,0.3-0.2,0.5-0.5,0.5L227.5,256.2C227.5,256.2,227.5,256.2,227.5,256.2z" id="XMLID_5606_"/></g><g id="XMLID_259_"><path class="st0" d="M229.7,273.9c-1.1,0-2.3-0.2-2.9-1.1c-0.1-0.1-0.1-0.2-0.1-0.4s0.1-0.3,0.2-0.3l6.8-4.7     c0.2-0.2,0.5-0.1,0.7,0.1c0.2,0.2,0.1,0.5-0.1,0.7l-6.3,4.3c0.6,0.4,1.5,0.4,2.5,0.3l88.3-5.7c0.3,0,0.5,0.2,0.5,0.5     c0,0.3-0.2,0.5-0.5,0.5l-88.3,5.7C230.2,273.9,229.9,273.9,229.7,273.9z" id="XMLID_5605_"/></g><g id="XMLID_258_"><path class="st0" d="M307.1,286.6c-0.2,0-0.4-0.1-0.5-0.3l-1-2.8c-0.1-0.2,0-0.4,0.1-0.5l7.8-8.2     c0.2-0.2,0.5-0.2,0.7,0s0.2,0.5,0,0.7l-7.6,8l0.8,2.2l7.2-0.5c0.3,0,0.5,0.2,0.5,0.5c0,0.3-0.2,0.5-0.5,0.5L307.1,286.6     C307.1,286.6,307.1,286.6,307.1,286.6z" id="XMLID_5604_"/></g><g id="XMLID_257_"><path class="st0" d="M377.7,295.1c-0.3,0-0.5-0.2-0.5-0.5c0-0.3,0.2-0.5,0.5-0.5l38.8-0.9c0,0,0,0,0,0     c0.3,0,0.5,0.2,0.5,0.5c0,0.3-0.2,0.5-0.5,0.5L377.7,295.1C377.7,295.1,377.7,295.1,377.7,295.1z" id="XMLID_5603_"/></g><g id="XMLID_256_"><path class="st0" d="M77.3,284.6c-0.2,0-0.4-0.1-0.5-0.4c-0.1-0.3,0.1-0.5,0.4-0.6c11.1-2.9,22.5-4.6,34-5.2     c0.3,0,0.5,0.2,0.5,0.5c0,0.3-0.2,0.5-0.5,0.5c-11.4,0.5-22.7,2.3-33.8,5.2C77.4,284.6,77.4,284.6,77.3,284.6z" id="XMLID_5602_"/></g><g id="XMLID_255_"><path class="st0" d="M86.1,307.9c-0.3,0-0.5-0.2-0.5-0.4c-0.5-4.7,0.8-9.5,3.6-13.2c0.2-0.2,0.5-0.3,0.7-0.1     c0.2,0.2,0.3,0.5,0.1,0.7c-2.6,3.4-3.9,7.7-3.5,12l6.1-0.1c0.3,0,0.5,0.2,0.5,0.5c0,0.3-0.2,0.5-0.5,0.5L86.1,307.9     C86.1,307.9,86.1,307.9,86.1,307.9z" id="XMLID_5601_"/></g><g id="XMLID_254_"><path class="st0" d="M111.2,371.6c-0.1,0-0.2,0-0.2-0.1c-3-1.6-4.7-4.6-6.4-7.5c-0.3-0.5-0.6-0.9-0.8-1.4     c-2.5-4.2-5.3-6.3-8.2-6.5c-0.1,0-0.3-0.1-0.3-0.2c-0.1-0.1-0.1-0.2-0.1-0.4c0.3-8.1,1.2-16.2,2.8-24.2c0.1-0.3,0.3-0.4,0.6-0.4     c0.3,0.1,0.4,0.3,0.4,0.6c-1.5,7.7-2.4,15.6-2.7,23.5c3.1,0.3,6,2.6,8.5,6.9c0.3,0.5,0.6,0.9,0.8,1.4c1.6,2.8,3.3,5.6,6,7.1     c0.2,0.1,0.3,0.4,0.2,0.7C111.6,371.5,111.4,371.6,111.2,371.6z" id="XMLID_5600_"/></g><g id="XMLID_262_"><path class="st0" d="M260,462.5C259.9,462.5,259.9,462.5,260,462.5c-8.7-1.6-17.7-1.4-26.4-1.2     c-8.5,0.2-17.2,0.4-25.7-1.1c-0.3,0-0.5-0.3-0.4-0.6s0.3-0.5,0.6-0.4c8.4,1.4,17.1,1.2,25.5,1.1c8.8-0.2,17.8-0.4,26.6,1.2     c0.3,0,0.5,0.3,0.4,0.6C260.4,462.3,260.2,462.5,260,462.5z" id="XMLID_5599_"/></g><g id="XMLID_307_"><g id="XMLID_276_"><path class="st0" d="M123.6,221.8c-0.2,0-0.3-0.1-0.4-0.2c-0.1-0.2-0.1-0.5,0.2-0.7l9.5-6      c0.2-0.1,0.5-0.1,0.7,0.2c0.1,0.2,0.1,0.5-0.2,0.7l-9.5,6C123.8,221.7,123.7,221.8,123.6,221.8z" id="XMLID_5592_"/></g><g id="XMLID_277_"><path class="st0" d="M119.7,214.7c-0.2,0-0.5-0.2-0.5-0.4c0-0.3,0.2-0.5,0.4-0.6c2.7-0.4,5.3-1.1,7.8-2.3      c0.2-0.1,0.5,0,0.7,0.2c0.1,0.2,0,0.5-0.2,0.7C125.3,213.5,122.6,214.3,119.7,214.7C119.7,214.7,119.7,214.7,119.7,214.7z" id="XMLID_5591_"/></g><g id="XMLID_278_"><path class="st0" d="M119.7,207.3c-0.2,0-0.5-0.2-0.5-0.4c0-0.3,0.2-0.5,0.4-0.6c3-0.4,6.1-1,9-1.7      c0.3-0.1,0.5,0.1,0.6,0.4c0.1,0.3-0.1,0.5-0.4,0.6C125.9,206.3,122.8,206.9,119.7,207.3C119.7,207.3,119.7,207.3,119.7,207.3z" id="XMLID_5590_"/></g><g id="XMLID_279_"><path class="st0" d="M122.9,200.5c-0.9,0-1.9-0.1-2.8-0.2c-0.3,0-0.5-0.3-0.4-0.6c0-0.3,0.3-0.5,0.6-0.4      c2.6,0.5,5.3,0.2,7.8-0.7c0.3-0.1,0.5,0,0.6,0.3c0.1,0.3,0,0.5-0.3,0.6C126.6,200.2,124.7,200.5,122.9,200.5z" id="XMLID_5589_"/></g><g id="XMLID_280_"><path class="st0" d="M121.7,194.8c-0.2,0-0.4-0.1-0.5-0.3c-0.1-0.3,0.1-0.5,0.3-0.6c2.6-0.9,5.4-1.2,8.2-1      c0.3,0,0.5,0.3,0.5,0.5c0,0.3-0.3,0.5-0.5,0.5c-2.6-0.2-5.3,0.1-7.8,1C121.8,194.8,121.7,194.8,121.7,194.8z" id="XMLID_5588_"/></g><g id="XMLID_281_"><path class="st0" d="M122.2,189.4c-0.2,0-0.4-0.1-0.5-0.3c-0.1-0.3,0-0.5,0.3-0.6c2.2-0.8,4.6-0.8,6.8-0.1      c0.3,0.1,0.4,0.4,0.3,0.6s-0.4,0.4-0.6,0.3c-2-0.7-4.2-0.6-6.2,0.1C122.3,189.3,122.2,189.4,122.2,189.4z" id="XMLID_5587_"/></g><g id="XMLID_282_"><path class="st0" d="M127.7,183.8h-5.5c-0.3,0-0.5-0.2-0.5-0.5s0.2-0.5,0.5-0.5h5.5c0.3,0,0.5,0.2,0.5,0.5      S127.9,183.8,127.7,183.8z" id="XMLID_5586_"/></g><g id="XMLID_283_"><path class="st0" d="M129.6,179.9c-0.1,0-0.3,0-0.4-0.1c-1.5-1.5-3.9-2.1-6-1.6c-0.3,0.1-0.5-0.1-0.6-0.3      c-0.1-0.3,0.1-0.5,0.3-0.6c2.4-0.7,5.1,0,6.9,1.8c0.2,0.2,0.2,0.5,0,0.7C129.8,179.9,129.7,179.9,129.6,179.9z" id="XMLID_5585_"/></g><g id="XMLID_284_"><path class="st0" d="M131.7,173.8C131.6,173.8,131.6,173.8,131.7,173.8l-6.6-1.1c-0.3,0-0.5-0.3-0.4-0.6      c0-0.3,0.3-0.5,0.6-0.4l6.5,1.1c0.3,0,0.5,0.3,0.4,0.6C132.1,173.6,131.9,173.8,131.7,173.8z" id="XMLID_5584_"/></g><g id="XMLID_285_"><path class="st0" d="M133.7,169.8c0,0-0.1,0-0.1,0l-6.5-1.5c-0.3-0.1-0.4-0.3-0.4-0.6c0.1-0.3,0.3-0.4,0.6-0.4      l6.5,1.5c0.3,0.1,0.4,0.3,0.4,0.6C134.1,169.7,133.9,169.8,133.7,169.8z" id="XMLID_5583_"/></g><g id="XMLID_286_"><path class="st0" d="M136.7,164.8c-0.1,0-0.1,0-0.2,0l-5-2c-0.3-0.1-0.4-0.4-0.3-0.7c0.1-0.3,0.4-0.4,0.7-0.3      l5,2c0.3,0.1,0.4,0.4,0.3,0.7C137,164.7,136.9,164.8,136.7,164.8z" id="XMLID_5582_"/></g><g id="XMLID_287_"><path class="st0" d="M137.2,160.8c-0.1,0-0.2,0-0.3-0.1l-5.5-3.5c-0.2-0.1-0.3-0.5-0.2-0.7      c0.1-0.2,0.5-0.3,0.7-0.2l5.5,3.5c0.2,0.1,0.3,0.5,0.2,0.7C137.5,160.7,137.4,160.8,137.2,160.8z" id="XMLID_5581_"/></g><g id="XMLID_288_"><path class="st0" d="M137.6,155.4c-0.1,0-0.3,0-0.4-0.1l-3.5-3.5c-0.2-0.2-0.2-0.5,0-0.7      c0.2-0.2,0.5-0.2,0.7,0l3.5,3.5c0.2,0.2,0.2,0.5,0,0.7C137.9,155.3,137.8,155.4,137.6,155.4z" id="XMLID_5580_"/></g><g id="XMLID_289_"><path class="st0" d="M142.7,151.8c0,0-0.1,0-0.1,0c-2.3-0.6-4.3-2.5-4.9-4.8c-0.1-0.3,0.1-0.5,0.4-0.6      c0.3-0.1,0.5,0.1,0.6,0.4c0.5,2,2.2,3.6,4.1,4.1c0.3,0.1,0.4,0.3,0.4,0.6C143.1,151.6,142.9,151.8,142.7,151.8z" id="XMLID_5579_"/></g><g id="XMLID_290_"><path class="st0" d="M149.2,149.8c-0.1,0-0.1,0-0.2,0c-3.1-1.3-5.5-4-6.3-7.3c-0.1-0.3,0.1-0.5,0.4-0.6      c0.3-0.1,0.5,0.1,0.6,0.4c0.7,2.9,2.9,5.5,5.7,6.6c0.3,0.1,0.4,0.4,0.3,0.7C149.6,149.6,149.4,149.8,149.2,149.8z" id="XMLID_5578_"/></g><g id="XMLID_291_"><path class="st0" d="M154.6,146.4c-0.1,0-0.2,0-0.3-0.1c-2.5-1.8-4.5-4.1-6-6.8c-0.1-0.2-0.1-0.5,0.2-0.7      c0.2-0.1,0.5-0.1,0.7,0.2c1.4,2.5,3.4,4.8,5.8,6.5c0.2,0.2,0.3,0.5,0.1,0.7C154.9,146.4,154.7,146.4,154.6,146.4z" id="XMLID_5577_"/></g><g id="XMLID_293_"><path class="st0" d="M158.7,141.8c-0.1,0-0.2,0-0.3-0.1c-1.6-1-2.7-3-2.7-4.9c0-0.3,0.2-0.5,0.5-0.5      c0,0,0,0,0,0c0.3,0,0.5,0.2,0.5,0.5c0,1.6,0.9,3.2,2.2,4.1c0.2,0.1,0.3,0.5,0.2,0.7C159,141.7,158.8,141.8,158.7,141.8z" id="XMLID_5576_"/></g><g id="XMLID_294_"><path class="st0" d="M126.2,228.4c-0.2,0-0.3-0.1-0.4-0.2c-0.2-0.2-0.1-0.5,0.1-0.7l5.5-3.9      c0.2-0.2,0.5-0.1,0.7,0.1c0.2,0.2,0.1,0.5-0.1,0.7l-5.5,3.9C126.4,228.3,126.3,228.4,126.2,228.4z" id="XMLID_5575_"/></g><g id="XMLID_296_"><path class="st0" d="M127.1,233.3c-0.2,0-0.3-0.1-0.4-0.3c-0.1-0.2-0.1-0.5,0.2-0.7l7-4      c0.2-0.1,0.5-0.1,0.7,0.2c0.1,0.2,0.1,0.5-0.2,0.7l-7,4C127.3,233.3,127.2,233.3,127.1,233.3z" id="XMLID_5574_"/></g><g id="XMLID_297_"><path class="st0" d="M130.7,239.3c-0.1,0-0.3-0.1-0.4-0.2c-0.2-0.2-0.2-0.5,0-0.7l5-4.5c0.2-0.2,0.5-0.2,0.7,0      c0.2,0.2,0.2,0.5,0,0.7l-5,4.5C130.9,239.3,130.8,239.3,130.7,239.3z" id="XMLID_5573_"/></g><g id="XMLID_298_"><path class="st0" d="M134.7,242.3c-0.1,0-0.2,0-0.3-0.1c-0.2-0.2-0.2-0.5-0.1-0.7c0.1-0.1,0.2-0.3,0.4-0.4      l3.2-3.2c0.2-0.2,0.5-0.2,0.7,0s0.2,0.5,0,0.7l-1.7,1.7c0.4,0,0.7-0.1,1.1-0.1c1.2-0.1,2.4-0.2,2.9-0.8c0.2-0.2,0.5-0.3,0.7-0.1      c0.2,0.2,0.3,0.5,0.1,0.7c-0.8,1-2.2,1.1-3.6,1.2c-1,0.1-2.1,0.2-2.7,0.6l-0.3,0.3C134.9,242.3,134.8,242.3,134.7,242.3z" id="XMLID_5572_"/></g><g id="XMLID_299_"><path class="st0" d="M155.5,220.3c-0.1,0-0.1,0-0.2,0c-0.3-0.1-0.4-0.4-0.3-0.7c1.1-2.6,3-5,5.4-6.6      c0.2-0.2,0.5-0.1,0.7,0.1c0.2,0.2,0.1,0.5-0.1,0.7c-2.2,1.5-4,3.7-5,6.2C155.9,220.1,155.7,220.3,155.5,220.3z" id="XMLID_5571_"/></g><g id="XMLID_300_"><path class="st0" d="M156.2,230.8c-0.1,0-0.2,0-0.3-0.1c-0.2-0.1-0.3-0.5-0.2-0.7c0.9-1.4,1.4-3.2,1.9-5.1      c0.3-1.2,0.7-2.4,1.1-3.5c-0.8,1.2-1.4,2.6-1.7,4c-0.1,0.3-0.3,0.4-0.6,0.4c-0.3-0.1-0.4-0.3-0.4-0.6c0.6-3,2.3-5.6,4.9-7.3      c0.2-0.1,0.5-0.1,0.7,0.1c0.2,0.2,0.1,0.5,0,0.7c-1.5,1.4-2.2,4-2.9,6.5c-0.5,1.9-1.1,3.9-2,5.4      C156.5,230.8,156.3,230.8,156.2,230.8z" id="XMLID_5570_"/></g><g id="XMLID_301_"><path class="st0" d="M160.7,231.8c-0.1,0-0.2,0-0.2-0.1c-0.2-0.1-0.3-0.4-0.2-0.7c1.6-3,3.9-5.7,6.6-7.7      c0.2-0.2,0.5-0.1,0.7,0.1c0.2,0.2,0.1,0.5-0.1,0.7c-2.6,2-4.8,4.5-6.3,7.4C161,231.7,160.8,231.8,160.7,231.8z" id="XMLID_5569_"/></g><g id="XMLID_302_"><path class="st0" d="M164.2,234.4c-0.1,0-0.2,0-0.3-0.1c-0.2-0.1-0.3-0.4-0.2-0.7c1.6-2.7,3.6-5.2,5.9-7.3      c0.2-0.2,0.5-0.2,0.7,0c0.2,0.2,0.2,0.5,0,0.7c-2.3,2.1-4.2,4.4-5.7,7.1C164.5,234.3,164.4,234.4,164.2,234.4z" id="XMLID_5568_"/></g><g id="XMLID_303_"><path class="st0" d="M168.2,237.3c-0.1,0-0.2,0-0.2-0.1c-0.2-0.1-0.3-0.4-0.2-0.7c1.7-3.3,3.9-6.2,6.5-8.7      c0.2-0.2,0.5-0.2,0.7,0c0.2,0.2,0.2,0.5,0,0.7c-2.6,2.4-4.7,5.3-6.3,8.4C168.5,237.2,168.4,237.3,168.2,237.3z" id="XMLID_5567_"/></g><g id="XMLID_304_"><path class="st0" d="M174.2,236.8c-0.1,0-0.1,0-0.2-0.1c-0.2-0.1-0.4-0.4-0.2-0.7c1-2.1,2.6-4,4.5-5.3      c0.4-0.3,0.8,0,1.6,0.5c0.2,0.2,0.6,0.4,0.8,0.5c0.1,0,0.3,0,0.4,0.1c0.2,0.2,0.2,0.5,0,0.7c-0.4,0.4-0.8,0.1-1.7-0.5      c-0.2-0.1-0.5-0.3-0.7-0.4c-1.7,1.2-3.1,2.9-4,4.8C174.6,236.7,174.4,236.8,174.2,236.8z" id="XMLID_5566_"/></g><g id="XMLID_305_"><path class="st0" d="M191.3,176.2c-0.2,0-0.3-0.1-0.4-0.2c-5.5-8.4-12.8-15.9-21.1-21.7      c-0.2-0.2-0.3-0.5-0.1-0.7c0.2-0.2,0.5-0.3,0.7-0.1c8.4,5.8,15.8,13.4,21.4,22c0.2,0.2,0.1,0.5-0.1,0.7      C191.5,176.2,191.4,176.2,191.3,176.2z" id="XMLID_5565_"/></g><g id="XMLID_306_"><path class="st0" d="M180,180.4c-0.3,0-0.5-0.2-0.5-0.4c-0.3-2.9-1.9-5.9-4.6-8.4c-2.4-2.3-5.3-4-8.1-5.7      c-0.2-0.1-0.3-0.4-0.2-0.7c0.1-0.2,0.4-0.3,0.7-0.2c2.9,1.7,5.8,3.5,8.3,5.8c2,1.9,4.4,5,4.9,9      C180.6,180.1,180.4,180.3,180,180.4C180.1,180.4,180,180.4,180,180.4z" id="XMLID_5564_"/></g></g><g id="XMLID_309_"><g id="XMLID_351_"><path class="st0" d="M305.6,196.6c-0.2,0-0.3-0.1-0.4-0.2c-0.1-0.2-0.1-0.5,0.2-0.7l9.5-6      c0.2-0.1,0.5-0.1,0.7,0.2c0.1,0.2,0.1,0.5-0.2,0.7l-9.5,6C305.8,196.6,305.7,196.6,305.6,196.6z" id="XMLID_5557_"/></g><g id="XMLID_350_"><path class="st0" d="M301.7,189.5c-0.2,0-0.5-0.2-0.5-0.4c0-0.3,0.2-0.5,0.4-0.6c2.7-0.4,5.3-1.1,7.8-2.3      c0.2-0.1,0.5,0,0.7,0.2c0.1,0.2,0,0.5-0.2,0.7C307.3,188.3,304.6,189.1,301.7,189.5C301.8,189.5,301.7,189.5,301.7,189.5z" id="XMLID_5556_"/></g><g id="XMLID_349_"><path class="st0" d="M301.7,182.2c-0.2,0-0.5-0.2-0.5-0.4c0-0.3,0.2-0.5,0.4-0.6c3-0.4,6.1-1,9-1.7      c0.3-0.1,0.5,0.1,0.6,0.4c0.1,0.3-0.1,0.5-0.4,0.6C307.9,181.2,304.8,181.8,301.7,182.2C301.7,182.2,301.7,182.2,301.7,182.2z" id="XMLID_5555_"/></g><g id="XMLID_348_"><path class="st0" d="M304.9,175.4c-0.9,0-1.9-0.1-2.8-0.2c-0.3,0-0.5-0.3-0.4-0.6c0-0.3,0.3-0.5,0.6-0.4      c2.6,0.5,5.3,0.2,7.8-0.7c0.3-0.1,0.5,0,0.6,0.3c0.1,0.3,0,0.5-0.3,0.6C308.6,175,306.8,175.4,304.9,175.4z" id="XMLID_5554_"/></g><g id="XMLID_347_"><path class="st0" d="M303.7,169.7c-0.2,0-0.4-0.1-0.5-0.3c-0.1-0.3,0.1-0.5,0.3-0.6c2.6-0.9,5.4-1.2,8.2-1      c0.3,0,0.5,0.3,0.5,0.5c0,0.3-0.3,0.5-0.5,0.5c-2.6-0.2-5.3,0.1-7.8,1C303.8,169.7,303.7,169.7,303.7,169.7z" id="XMLID_5553_"/></g><g id="XMLID_346_"><path class="st0" d="M304.2,164.2c-0.2,0-0.4-0.1-0.5-0.3c-0.1-0.3,0-0.5,0.3-0.6c2.2-0.8,4.6-0.8,6.8-0.1      c0.3,0.1,0.4,0.4,0.3,0.6s-0.4,0.4-0.6,0.3c-2-0.7-4.2-0.6-6.2,0.1C304.3,164.2,304.2,164.2,304.2,164.2z" id="XMLID_5552_"/></g><g id="XMLID_345_"><path class="st0" d="M309.7,158.7h-5.5c-0.3,0-0.5-0.2-0.5-0.5s0.2-0.5,0.5-0.5h5.5c0.3,0,0.5,0.2,0.5,0.5      S310,158.7,309.7,158.7z" id="XMLID_5551_"/></g><g id="XMLID_344_"><path class="st0" d="M311.6,154.8c-0.1,0-0.3,0-0.4-0.1c-1.5-1.5-3.9-2.1-6-1.6c-0.3,0.1-0.5-0.1-0.6-0.3      c-0.1-0.3,0.1-0.5,0.3-0.6c2.4-0.7,5.1,0,6.9,1.8c0.2,0.2,0.2,0.5,0,0.7C311.9,154.7,311.7,154.8,311.6,154.8z" id="XMLID_5550_"/></g><g id="XMLID_343_"><path class="st0" d="M313.7,148.7C313.7,148.7,313.6,148.7,313.7,148.7l-6.6-1.1c-0.3,0-0.5-0.3-0.4-0.6      c0-0.3,0.3-0.5,0.6-0.4l6.5,1.1c0.3,0,0.5,0.3,0.4,0.6C314.1,148.5,313.9,148.7,313.7,148.7z" id="XMLID_5549_"/></g><g id="XMLID_342_"><path class="st0" d="M315.7,144.7c0,0-0.1,0-0.1,0l-6.5-1.5c-0.3-0.1-0.4-0.3-0.4-0.6c0.1-0.3,0.3-0.4,0.6-0.4      l6.5,1.5c0.3,0.1,0.4,0.3,0.4,0.6C316.1,144.5,315.9,144.7,315.7,144.7z" id="XMLID_5548_"/></g><g id="XMLID_341_"><path class="st0" d="M318.7,139.7c-0.1,0-0.1,0-0.2,0l-5-2c-0.3-0.1-0.4-0.4-0.3-0.7c0.1-0.3,0.4-0.4,0.7-0.3      l5,2c0.3,0.1,0.4,0.4,0.3,0.7C319.1,139.6,318.9,139.7,318.7,139.7z" id="XMLID_5547_"/></g><g id="XMLID_340_"><path class="st0" d="M319.2,135.6c-0.1,0-0.2,0-0.3-0.1l-5.5-3.5c-0.2-0.1-0.3-0.5-0.2-0.7      c0.1-0.2,0.5-0.3,0.7-0.2l5.5,3.5c0.2,0.1,0.3,0.5,0.2,0.7C319.5,135.6,319.4,135.6,319.2,135.6z" id="XMLID_5546_"/></g><g id="XMLID_337_"><path class="st0" d="M319.6,130.2c-0.1,0-0.3,0-0.4-0.1l-3.5-3.5c-0.2-0.2-0.2-0.5,0-0.7s0.5-0.2,0.7,0      l3.5,3.5c0.2,0.2,0.2,0.5,0,0.7C319.9,130.2,319.8,130.2,319.6,130.2z" id="XMLID_5545_"/></g><g id="XMLID_336_"><path class="st0" d="M324.7,126.7c0,0-0.1,0-0.1,0c-2.3-0.6-4.3-2.5-4.9-4.8c-0.1-0.3,0.1-0.5,0.4-0.6      c0.3-0.1,0.5,0.1,0.6,0.4c0.5,2,2.2,3.6,4.1,4.1c0.3,0.1,0.4,0.3,0.4,0.6C325.1,126.5,324.9,126.7,324.7,126.7z" id="XMLID_5544_"/></g><g id="XMLID_335_"><path class="st0" d="M331.2,124.6c-0.1,0-0.1,0-0.2,0c-3.1-1.3-5.5-4-6.3-7.3c-0.1-0.3,0.1-0.5,0.4-0.6      c0.3-0.1,0.5,0.1,0.6,0.4c0.7,2.9,2.9,5.5,5.7,6.6c0.3,0.1,0.4,0.4,0.3,0.7C331.6,124.5,331.4,124.6,331.2,124.6z" id="XMLID_5543_"/></g><g id="XMLID_331_"><path class="st0" d="M336.6,121.3c-0.1,0-0.2,0-0.3-0.1c-2.5-1.8-4.5-4.1-6-6.8c-0.1-0.2-0.1-0.5,0.2-0.7      c0.2-0.1,0.5-0.1,0.7,0.2c1.4,2.5,3.4,4.8,5.8,6.5c0.2,0.2,0.3,0.5,0.1,0.7C336.9,121.2,336.8,121.3,336.6,121.3z" id="XMLID_5542_"/></g><g id="XMLID_322_"><path class="st0" d="M340.7,116.7c-0.1,0-0.2,0-0.3-0.1c-1.6-1-2.7-3-2.7-4.9c0-0.3,0.2-0.5,0.5-0.5      c0,0,0,0,0,0c0.3,0,0.5,0.2,0.5,0.5c0,1.6,0.9,3.2,2.2,4.1c0.2,0.1,0.3,0.5,0.2,0.7C341,116.6,340.8,116.7,340.7,116.7z" id="XMLID_5541_"/></g><g id="XMLID_321_"><path class="st0" d="M308.2,203.2c-0.2,0-0.3-0.1-0.4-0.2c-0.2-0.2-0.1-0.5,0.1-0.7l5.5-3.9      c0.2-0.2,0.5-0.1,0.7,0.1c0.2,0.2,0.1,0.5-0.1,0.7l-5.5,3.9C308.4,203.2,308.3,203.2,308.2,203.2z" id="XMLID_5540_"/></g><g id="XMLID_320_"><path class="st0" d="M309.2,208.2c-0.2,0-0.3-0.1-0.4-0.3c-0.1-0.2-0.1-0.5,0.2-0.7l7-4      c0.2-0.1,0.5-0.1,0.7,0.2c0.1,0.2,0.1,0.5-0.2,0.7l-7,4C309.3,208.1,309.2,208.2,309.2,208.2z" id="XMLID_5539_"/></g><g id="XMLID_319_"><path class="st0" d="M312.7,214.2c-0.1,0-0.3-0.1-0.4-0.2c-0.2-0.2-0.2-0.5,0-0.7l5-4.5c0.2-0.2,0.5-0.2,0.7,0      c0.2,0.2,0.2,0.5,0,0.7l-5,4.5C312.9,214.2,312.8,214.2,312.7,214.2z" id="XMLID_5538_"/></g><g id="XMLID_318_"><path class="st0" d="M316.7,217.2c-0.1,0-0.2,0-0.3-0.1c-0.2-0.2-0.2-0.5-0.1-0.7c0.1-0.1,0.2-0.3,0.4-0.4      l3.2-3.2c0.2-0.2,0.5-0.2,0.7,0s0.2,0.5,0,0.7l-1.7,1.7c0.4,0,0.7-0.1,1.1-0.1c1.2-0.1,2.4-0.2,2.9-0.8c0.2-0.2,0.5-0.3,0.7-0.1      c0.2,0.2,0.3,0.5,0.1,0.7c-0.8,1-2.2,1.1-3.6,1.2c-1,0.1-2.1,0.2-2.7,0.6L317,217C316.9,217.1,316.8,217.2,316.7,217.2z" id="XMLID_5537_"/></g><g id="XMLID_317_"><path class="st0" d="M337.5,195.1c-0.1,0-0.1,0-0.2,0c-0.3-0.1-0.4-0.4-0.3-0.7c1.1-2.6,3-5,5.4-6.6      c0.2-0.2,0.5-0.1,0.7,0.1c0.2,0.2,0.1,0.5-0.1,0.7c-2.2,1.5-4,3.7-5,6.2C337.9,195,337.7,195.1,337.5,195.1z" id="XMLID_5536_"/></g><g id="XMLID_316_"><path class="st0" d="M338.2,205.7c-0.1,0-0.2,0-0.3-0.1c-0.2-0.1-0.3-0.5-0.2-0.7c0.9-1.4,1.4-3.2,1.9-5.1      c0.3-1.2,0.7-2.4,1.1-3.5c-0.8,1.2-1.4,2.6-1.7,4c-0.1,0.3-0.3,0.4-0.6,0.4c-0.3-0.1-0.4-0.3-0.4-0.6c0.6-3,2.3-5.6,4.9-7.3      c0.2-0.1,0.5-0.1,0.7,0.1c0.2,0.2,0.1,0.5,0,0.7c-1.5,1.4-2.2,4-2.9,6.5c-0.5,1.9-1.1,3.9-2,5.4      C338.5,205.6,338.4,205.7,338.2,205.7z" id="XMLID_5535_"/></g><g id="XMLID_315_"><path class="st0" d="M342.7,206.7c-0.1,0-0.2,0-0.2-0.1c-0.2-0.1-0.3-0.4-0.2-0.7c1.6-3,3.9-5.7,6.6-7.7      c0.2-0.2,0.5-0.1,0.7,0.1c0.2,0.2,0.1,0.5-0.1,0.7c-2.6,2-4.8,4.5-6.3,7.4C343,206.6,342.9,206.7,342.7,206.7z" id="XMLID_5534_"/></g><g id="XMLID_314_"><path class="st0" d="M346.2,209.2c-0.1,0-0.2,0-0.3-0.1c-0.2-0.1-0.3-0.4-0.2-0.7c1.6-2.7,3.6-5.2,5.9-7.3      c0.2-0.2,0.5-0.2,0.7,0c0.2,0.2,0.2,0.5,0,0.7c-2.3,2.1-4.2,4.4-5.7,7.1C346.6,209.1,346.4,209.2,346.2,209.2z" id="XMLID_5533_"/></g><g id="XMLID_313_"><path class="st0" d="M350.2,212.2c-0.1,0-0.2,0-0.2-0.1c-0.2-0.1-0.3-0.4-0.2-0.7c1.7-3.3,3.9-6.2,6.5-8.7      c0.2-0.2,0.5-0.2,0.7,0c0.2,0.2,0.2,0.5,0,0.7c-2.6,2.4-4.7,5.3-6.3,8.4C350.6,212.1,350.4,212.2,350.2,212.2z" id="XMLID_5532_"/></g><g id="XMLID_312_"><path class="st0" d="M356.2,211.7c-0.1,0-0.1,0-0.2-0.1c-0.2-0.1-0.4-0.4-0.2-0.7c1-2.1,2.6-4,4.5-5.3      c0.4-0.3,0.8,0,1.6,0.5c0.2,0.2,0.6,0.4,0.8,0.5c0.1,0,0.3,0,0.4,0.1c0.2,0.2,0.2,0.5,0,0.7c-0.4,0.4-0.8,0.1-1.7-0.5      c-0.2-0.1-0.5-0.3-0.7-0.4c-1.7,1.2-3.1,2.9-4,4.8C356.6,211.6,356.4,211.7,356.2,211.7z" id="XMLID_5531_"/></g><g id="XMLID_311_"><path class="st0" d="M373.4,151.1c-0.2,0-0.3-0.1-0.4-0.2c-5.5-8.4-12.8-15.9-21.1-21.7      c-0.2-0.2-0.3-0.5-0.1-0.7c0.2-0.2,0.5-0.3,0.7-0.1c8.4,5.8,15.8,13.4,21.4,22c0.2,0.2,0.1,0.5-0.1,0.7      C373.5,151.1,373.4,151.1,373.4,151.1z" id="XMLID_5530_"/></g><g id="XMLID_310_"><path class="st0" d="M362,155.2c-0.3,0-0.5-0.2-0.5-0.4c-0.3-2.9-1.9-5.9-4.6-8.4c-2.4-2.3-5.3-4-8.1-5.7      c-0.2-0.1-0.3-0.4-0.2-0.7c0.1-0.2,0.4-0.3,0.7-0.2c2.9,1.7,5.8,3.5,8.3,5.8c2,1.9,4.4,5,4.9,9C362.6,155,362.4,155.2,362,155.2      C362.1,155.2,362.1,155.2,362,155.2z" id="XMLID_5529_"/></g></g></g><g id="XMLID_500_"><path class="st1" d="M255.8,508.5c-5.8,0-11.6-0.2-17.4-0.6c-12-0.9-24.1-2.6-35.8-5.2    c-23.8-5.3-46.8-14-68.4-25.9c-42.8-23.7-77.5-58.6-100.4-101c-13.7-25.3-23.1-53.9-28.2-85.1c-4-24.5-3.5-47.7,1.6-77.4    c7.7-45.3,27.7-87.7,57.9-122.5c33.3-38.5,77.7-65.8,128.2-78.8c50.5-13,102.4-10.7,150.1,6.9c86.1,31.7,150.1,110.8,162.9,201.5    c1.7,11.9,2.6,23.9,2.6,35.6l0,0c0.2,41.7-9.9,81.9-30.1,119.5C435.2,456.5,347.1,508.5,255.8,508.5z M258.6,9.8    c-71,0-141.8,30.3-188.9,84.7c-29.5,34.1-49,75.4-56.6,119.6c-4.9,29.1-5.4,51.6-1.6,75.5c4.9,30.5,14.2,58.5,27.5,83.2    c22.3,41.4,56.2,75.4,98,98.6c21,11.6,43.5,20.2,66.8,25.3c11.5,2.5,23.3,4.3,35,5.1c5.7,0.4,11.3,0.6,17,0.6    c89.2,0,175.2-50.7,217.8-129.9c19.8-36.7,29.7-76,29.4-116.6l0,0c-0.1-11.4-0.9-23.1-2.6-34.8c-12.5-88.6-74.9-165.8-159-196.7    C314.7,14.5,286.6,9.8,258.6,9.8z" id="XMLID_5748_"/></g><g id="XMLID_497_"><path class="st1" d="M164.9,436.5c-1.8,0-3.5-0.4-5-1.6c-2.1-1.7-3.1-4.4-2.9-8.3c1.3-25.6,10.8-53.8,24-71.7    c10.8-14.7,26.7-25.9,47.1-33.4c30.3-11.1,61.7-11.5,90.6-1.3c30.7,10.8,58.4,34.5,75.9,64.8v0l0.1,0.1c0.5,0.8,0.5,1.8,0.2,2.7    c-0.4,0.9-1.1,1.5-2,1.7c-32.9,8.4-66.2,14.1-98.3,19.6c-39.2,6.7-79.6,13.7-121.2,25.6l-1,0.3C170,435.7,167.4,436.5,164.9,436.5    z M275.8,318.9c-15.2,0-30.6,2.8-45.7,8.3c-19.6,7.2-34,17.4-44.3,31.3c-12.6,17.1-21.5,44-22.8,68.5c-0.1,2,0.3,3,0.6,3.3    c1,0.8,5-0.3,7.1-1l1.1-0.3c41.9-12,82.5-19,121.8-25.8c30.8-5.3,62.5-10.7,93.9-18.5c-16.9-27.5-42.5-48.9-70.8-58.8    C303.5,321.2,289.8,318.9,275.8,318.9z" id="XMLID_5745_"/></g><g id="XMLID_496_"><path class="st1" d="M222.1,418.3c-0.2,0-0.5,0-0.7-0.1c-1.6-0.4-2.6-2-2.2-3.6c5.7-24,24.1-42.9,49.2-50.8    c25.7-8,52.8-2.9,70.7,13.3c4.4,4,7.9,8.2,10.7,12.8c0.9,1.4,0.4,3.3-1,4.1c-1.4,0.9-3.3,0.4-4.1-1c-2.4-4.1-5.6-7.8-9.5-11.4    c-16.4-14.8-41.2-19.4-64.9-12c-23.1,7.2-40,24.5-45.2,46.4C224.7,417.4,223.4,418.3,222.1,418.3z" id="XMLID_5744_"/></g><g id="XMLID_274_"><path class="st1" d="M168.3,261.3c-4.5,0-9.1-0.6-13.7-1.9c-17.8-4.9-32-17.9-37.2-34.2    c-6.9-21.5,0.5-47.6,5.5-61.3c4.4-12.1,10.6-20.9,18.4-26.1c5.3-3.6,11.4-5.5,18-5.7c10.5-0.3,21.4,3.6,30.5,11.2    c18.3,15.1,28.3,41.3,25.9,68.3c-1.3,15.6-8,29.7-18.1,38.8C189.6,257.6,179.3,261.3,168.3,261.3z M160.5,138.1c-0.3,0-0.7,0-1,0    c-5.5,0.2-10.5,1.8-14.8,4.7l0,0c-6.7,4.5-12.2,12.4-16.2,23.2c-4.7,12.9-11.7,37.6-5.4,57.4c4.6,14.3,17.2,25.9,33,30.2    c14,3.8,27.7,1,37.5-7.8c9-8.1,14.9-20.8,16.1-34.8c2.2-25-7-49.2-23.8-63.1C178.4,141.6,169.2,138.1,160.5,138.1z" id="XMLID_5596_"/></g><g id="XMLID_275_"><path class="st1" d="M174.5,245.7c-2,0-4-0.3-5.9-0.9c-5.3-1.6-10.3-5.5-13.9-10.9c-7-10.2-7.2-26.5,3.4-34.6    c6-4.6,13.7-5.3,21.1-2.1c8.5,3.6,14.8,11.7,15.7,20.2c0,0,0,0,0,0c0.5,5-0.4,10.4-2.9,16c-1.6,3.6-3.3,6.1-5.5,8    C183.3,244.2,179,245.7,174.5,245.7z M170,201.2c-2.6,0-5.6,0.7-8.4,2.9c-7.8,6-7.4,18.7-2.1,26.5c2.9,4.3,6.7,7.3,10.8,8.5    c4.4,1.4,9.2,0.5,12.2-2.2c1.5-1.3,2.8-3.2,4-6c2-4.6,2.8-8.9,2.4-12.9v0c-0.7-6.4-5.6-12.5-12.1-15.3    C175.2,202,172.8,201.2,170,201.2z" id="XMLID_5593_"/></g><g id="XMLID_356_"><path class="st1" d="M350.3,236.2c-4.5,0-9.1-0.6-13.7-1.9c-17.7-4.9-32-17.9-37.2-34.2    c-6.9-21.5,0.5-47.6,5.5-61.3c4.4-12.1,10.6-20.9,18.4-26.1c5.3-3.6,11.4-5.5,18-5.7c10.5-0.3,21.4,3.6,30.5,11.2    c18.3,15.1,28.3,41.3,25.9,68.3c-1.3,15.6-8,29.7-18.1,38.8C371.6,232.4,361.3,236.2,350.3,236.2z M342.6,113c-0.3,0-0.7,0-1,0    c-5.5,0.2-10.5,1.8-14.8,4.7l0,0c-6.7,4.5-12.2,12.4-16.2,23.2c-4.7,12.9-11.7,37.6-5.4,57.4c4.6,14.3,17.2,25.9,33,30.2    c14,3.8,27.7,1,37.5-7.8c9-8.1,14.9-20.8,16.1-34.8c2.2-25-7-49.2-23.8-63.2C360.4,116.5,351.2,113,342.6,113z" id="XMLID_5561_"/></g><g id="XMLID_354_"><path class="st1" d="M356.5,220.6c-2,0-4-0.3-5.9-0.9c-5.3-1.6-10.3-5.5-13.9-10.9c-7-10.2-7.2-26.5,3.4-34.6    c6-4.6,13.7-5.3,21.1-2.1c8.5,3.6,14.8,11.7,15.7,20.2v0c0.5,5-0.4,10.4-2.9,16c-1.6,3.6-3.3,6.1-5.5,8    C365.4,219.1,361,220.6,356.5,220.6z M352.1,176.1c-2.6,0-5.6,0.7-8.4,2.9c-7.8,6-7.4,18.7-2.1,26.5c2.9,4.3,6.7,7.3,10.8,8.5    c4.4,1.4,9.2,0.5,12.2-2.2c1.5-1.3,2.8-3.2,4-6c2-4.6,2.8-8.9,2.4-12.9c-0.7-6.4-5.6-12.5-12.1-15.3    C357.2,176.9,354.8,176.1,352.1,176.1z" id="XMLID_5558_"/></g><g id="XMLID_308_"><path class="st1" d="M101.2,150.2c-0.4,0-0.8-0.1-1.1-0.2c-1.5-0.6-2.3-2.4-1.7-3.9c4.1-10.1,8.7-21.5,16.5-30.5    c13.7-16,36.2-24.3,66.9-24.8c5.6-0.1,11.4,0.3,15.7,4.1c1.2,1.1,1.4,3,0.3,4.2c-1.1,1.2-3,1.4-4.2,0.3c-2.9-2.5-7.5-2.6-11.7-2.6    c-28.9,0.5-49.9,8.1-62.5,22.7c-7.1,8.3-11.4,18.8-15.5,28.9C103.5,149.5,102.4,150.2,101.2,150.2z" id="XMLID_5528_"/></g><g id="XMLID_357_"><path class="st1" d="M281.6,111.4c-0.5,0-1.1-0.1-1.6-0.4c-1.4-0.9-1.9-2.7-1-4.1c15.7-25.9,56.8-50.8,88.2-32.7    c1.4,0.8,1.9,2.7,1.1,4.1c-0.8,1.4-2.7,1.9-4.1,1.1c-12.4-7.2-28.1-7.1-44.4,0c-14.6,6.4-27.9,17.9-35.6,30.6    C283.7,110.8,282.7,111.4,281.6,111.4z" id="XMLID_5527_"/></g></g></svg>