<?xml version="1.0" ?><svg id="Layer_1" style="enable-background:new 0 0 512 512;" version="1.1" viewBox="0 0 512 512" xml:space="preserve" xmlns="http://www.w3.org/2000/svg" xmlns:xlink="http://www.w3.org/1999/xlink"><style type="text/css">
	.st0{fill:#37759D;}
	.st1{fill:#215B7C;}
</style><g id="XMLID_4337_"><g id="XMLID_252_"><g id="XMLID_273_"><g id="XMLID_366_"><rect class="st0" height="25.7" id="XMLID_4638_" transform="matrix(0.5972 0.8021 -0.8021 0.5972 332.7687 111.3437)" width="1" x="55" y="374.1"/></g><g id="XMLID_368_"><path class="st0" d="M46.4,386.2c-0.1,0-0.1,0-0.2,0c-0.3-0.1-0.5-0.3-0.6-0.6c-0.1-0.4,0.2-0.8,0.7-1.2      c3.7-2.3,7.6-4.3,11.6-6.1l0.4,0.9c-3.9,1.7-7.8,3.8-11.5,6c-0.1,0.1-0.2,0.1-0.2,0.1l0.4-0.2c0.1,0.2,0.1,0.5,0,0.7      C46.9,386.1,46.7,386.2,46.4,386.2z M46.4,385.2c-0.1,0-0.2,0.1-0.2,0.1c-0.1,0.1-0.1,0.3,0,0.4l0.4-0.3      C46.6,385.3,46.5,385.2,46.4,385.2C46.4,385.2,46.4,385.2,46.4,385.2z" id="XMLID_4635_"/></g><g id="XMLID_369_"><path class="st0" d="M41.9,380.4l-0.3-0.9c4.4-1.6,8.5-3.8,12.3-6.5l0.6,0.8C50.6,376.5,46.4,378.8,41.9,380.4      z" id="XMLID_4634_"/></g><g id="XMLID_370_"><path class="st0" d="M40.9,376.8l-0.4-0.9c4.2-2,8.2-4.5,11.9-7.5l0.6,0.8C49.3,372.2,45.2,374.8,40.9,376.8z" id="XMLID_4633_"/></g><g id="XMLID_371_"><rect class="st0" height="15.4" id="XMLID_4632_" transform="matrix(0.5801 0.8145 -0.8145 0.5801 316.2723 119.2232)" width="1" x="42" y="358.7"/></g><g id="XMLID_498_"><rect class="st0" height="16.4" id="XMLID_4631_" transform="matrix(0.5191 0.8547 -0.8547 0.5191 328.5034 140.1993)" width="1" x="39.2" y="353.8"/></g><g id="XMLID_499_"><path class="st0" d="M31,361.7l-0.6-0.8c4.6-3.7,9.5-7.1,14.6-10.1l0.5,0.9C40.4,354.7,35.6,358,31,361.7z" id="XMLID_4630_"/></g><g id="XMLID_502_"><path class="st0" d="M30,357.2l-0.7-0.8c4.7-4,9.8-7.7,15.1-10.9l0.5,0.9C39.8,349.6,34.7,353.2,30,357.2z" id="XMLID_4629_"/></g><g id="XMLID_503_"><rect class="st0" height="17.2" id="XMLID_4628_" transform="matrix(0.5823 0.8129 -0.8129 0.5823 296.7205 117.8913)" width="1" x="33.1" y="339.1"/></g><g id="XMLID_504_"><rect class="st0" height="19.2" id="XMLID_4627_" transform="matrix(0.6235 0.7818 -0.7818 0.6235 280.7567 102.7161)" width="1" x="33.2" y="333.3"/></g><g id="XMLID_505_"><rect class="st0" height="17.8" id="XMLID_4626_" transform="matrix(0.617 0.7869 -0.7869 0.617 279.1719 105.9799)" width="1" x="30.2" y="330.9"/></g><g id="XMLID_506_"><rect class="st0" height="17.4" id="XMLID_4625_" transform="matrix(0.6332 0.774 -0.774 0.6332 269.8878 99.0592)" width="1" x="29.9" y="325.6"/></g><g id="XMLID_507_"><rect class="st0" height="20.2" id="XMLID_4624_" transform="matrix(0.6482 0.7615 -0.7615 0.6482 260.2354 92.8043)" width="1" x="29.2" y="318"/></g><g id="XMLID_509_"><path class="st0" d="M20.6,329.2l-0.7-0.7c4.4-4.8,9.5-8.8,15.2-12l0.5,0.9C29.9,320.5,24.9,324.4,20.6,329.2z      " id="XMLID_4623_"/></g><g id="XMLID_510_"><path class="st0" d="M20.1,324.2l-0.7-0.7c4.5-4.3,9.4-8.2,14.5-11.6l0.6,0.8C29.3,316.1,24.5,320,20.1,324.2z      " id="XMLID_4622_"/></g><g id="XMLID_511_"><path class="st0" d="M19.1,316.2l-0.7-0.7c4.5-4.5,9.4-8.5,14.6-12l0.6,0.8C28.3,307.8,23.5,311.8,19.1,316.2z      " id="XMLID_4621_"/></g><g id="XMLID_512_"><path class="st0" d="M18.1,310.7l-0.7-0.7c3.6-3.6,7.5-7,11.5-10.1l0.6,0.8C25.5,303.7,21.6,307.1,18.1,310.7z      " id="XMLID_4620_"/></g><g id="XMLID_513_"><path class="st0" d="M14.5,308.2l-0.7-0.7c5.2-4.8,10.8-9.4,16.5-13.6l0.6,0.8      C25.3,298.9,19.7,303.4,14.5,308.2z" id="XMLID_4619_"/></g><g id="XMLID_514_"><path class="st0" d="M15.1,301.2l-0.7-0.7c4.1-4.1,8.5-8,13-11.6l0.6,0.8C23.5,293.3,19.1,297.1,15.1,301.2z" id="XMLID_4618_"/></g><g id="XMLID_516_"><rect class="st0" height="19.2" id="XMLID_4617_" transform="matrix(0.4705 0.8824 -0.8824 0.4705 263.634 137.7327)" width="1" x="16.6" y="278.9"/></g><g id="XMLID_517_"><rect class="st0" height="1" id="XMLID_4616_" width="2.7" x="9.2" y="282.5"/></g><g id="XMLID_518_"><path class="st0" d="M8.8,281.1l-0.6-0.8c3.9-2.7,8.2-4.9,12.7-6.5l0.3,0.9C16.9,276.3,12.7,278.4,8.8,281.1z" id="XMLID_4615_"/></g><g id="XMLID_519_"><path class="st0" d="M8.8,276.1l-0.6-0.8c3.5-2.5,7.2-4.8,11-6.7l0.4,0.9C15.9,271.3,12.3,273.6,8.8,276.1z" id="XMLID_4614_"/></g><g id="XMLID_520_"><path class="st0" d="M9.8,265.7l-0.6-0.8c3.1-2.1,6.3-3.9,9.7-5.4l0.4,0.9C16.1,261.9,12.8,263.7,9.8,265.7z" id="XMLID_4613_"/></g><g id="XMLID_521_"><rect class="st0" height="12.9" id="XMLID_4612_" transform="matrix(0.5033 0.8641 -0.8641 0.5033 230.3881 115.9051)" width="1" x="13.9" y="251.9"/></g><g id="XMLID_523_"><path class="st0" d="M8.8,256.7l-0.6-0.8c3.9-2.8,8.1-5.3,12.4-7.4l0.4,0.9C16.8,251.5,12.7,253.9,8.8,256.7z" id="XMLID_4611_"/></g><g id="XMLID_524_"><path class="st0" d="M7.8,249.4l-0.6-0.8c4.1-3,8.5-5.6,13.1-7.7l0.4,0.9C16.2,243.9,11.9,246.4,7.8,249.4z" id="XMLID_4610_"/></g><g id="XMLID_525_"><path class="st0" d="M6.8,242.1l-0.5-0.9c5-2.6,10.3-4.9,15.7-6.8l0.3,0.9C17,237.2,11.8,239.5,6.8,242.1z" id="XMLID_4609_"/></g><g id="XMLID_526_"><path class="st0" d="M9.4,284.5l-0.8-0.6c3.2-4,7.7-6.9,12.7-8.2l0.3,1C16.9,277.9,12.5,280.7,9.4,284.5z" id="XMLID_4608_"/></g><g id="XMLID_527_"><path class="st0" d="M11,297.1l-0.6-0.8c3.3-2.6,7.1-4.6,11-5.8l0.3,1C17.8,292.7,14.1,294.6,11,297.1z" id="XMLID_4607_"/></g><g id="XMLID_528_"><path class="st0" d="M9.3,286.8l-0.3-1c3.8-1,7.5-2.6,10.9-4.5l0.5,0.9C17,284.2,13.2,285.7,9.3,286.8z" id="XMLID_4606_"/></g><g id="XMLID_530_"><path class="st0" d="M8.8,233.2c-0.7,0-1.3,0-2,0l0-1c5.3,0.1,10.7-0.3,15.9-1.3l0.2,1      C18.3,232.7,13.6,233.2,8.8,233.2z" id="XMLID_4605_"/></g><g id="XMLID_531_"><path class="st0" d="M8.7,226.8l-0.3-1c4.2-1.1,8.4-2.1,12.7-2.7l0.2,1C17,224.8,12.8,225.7,8.7,226.8z" id="XMLID_4604_"/></g><g id="XMLID_532_"><path class="st0" d="M9.7,221.5l-0.3-0.9c4.3-1.4,8.7-2.5,13.1-3.3l0.2,1C18.3,219,13.9,220.1,9.7,221.5z" id="XMLID_4603_"/></g><g id="XMLID_533_"><path class="st0" d="M10.7,213.4l-0.3-1c5.2-1.7,10.7-2.8,16.1-3.3l0.1,1C21.2,210.7,15.8,211.8,10.7,213.4z" id="XMLID_4602_"/></g><g id="XMLID_534_"><path class="st0" d="M12.3,206.3l-0.3-1c5-1.6,10.2-2.6,15.5-3.1l0.1,1C22.4,203.7,17.3,204.7,12.3,206.3z" id="XMLID_4601_"/></g><g id="XMLID_535_"><path class="st0" d="M11.3,200.1l-0.2-1c5.4-1.3,10.9-2.1,16.5-2.2l0,1C22.1,198,16.6,198.8,11.3,200.1z" id="XMLID_4600_"/></g><g id="XMLID_537_"><path class="st0" d="M14.2,191.1l-0.1-1c6.6-0.7,13.2-1.6,19.7-2.6l0.2,1C27.5,189.5,20.8,190.4,14.2,191.1z" id="XMLID_4599_"/></g><g id="XMLID_538_"><rect class="st0" height="21.5" id="XMLID_4598_" transform="matrix(0.1288 0.9917 -0.9917 0.1288 202.2768 129.9258)" width="1" x="26.7" y="169.3"/></g><g id="XMLID_539_"><path class="st0" d="M22.9,174.5l-0.1-1c3.8-0.6,7.7-0.6,11.5-0.3l-0.1,1C30.4,173.9,26.6,174,22.9,174.5z" id="XMLID_4597_"/></g><g id="XMLID_540_"><path class="st0" d="M23.6,170.1l-0.1-1c6.4-0.7,13-1.6,19.3-2.7l0.2,1C36.6,168.5,30,169.4,23.6,170.1z" id="XMLID_4596_"/></g><g id="XMLID_541_"><rect class="st0" height="17.2" id="XMLID_4595_" transform="matrix(0.1171 0.9931 -0.9931 0.1171 190.4305 101.0575)" width="1" x="37.9" y="149"/></g><g id="XMLID_542_"><path class="st0" d="M30.7,151.8l-0.2-1c5.4-1.3,11-1.7,16.5-1.1l-0.1,1C41.4,150.1,36,150.5,30.7,151.8z" id="XMLID_4594_"/></g><g id="XMLID_544_"><path class="st0" d="M54.6,399c-0.3,0-0.7-0.1-0.9-0.4c-0.3-0.3-0.3-0.7-0.1-1.1c0.3-0.4,0.9-0.7,1.3-0.4      c0.2,0.1,0.4,0.3,0.3,0.7c0.1-0.1,0.2-0.2,0.4-0.2c4-3,8.1-5.8,12.4-8.3l0.5,0.9c-4.2,2.5-8.4,5.3-12.3,8.2      C55.7,398.8,55.1,399,54.6,399z M54.4,397.9c0.1,0.1,0.3,0.1,0.6,0l-0.7-0.3c0,0,0,0,0,0v0v0C54.3,397.7,54.3,397.8,54.4,397.9      C54.4,397.9,54.4,398,54.4,397.9C54.5,398,54.5,397.9,54.4,397.9z" id="XMLID_4591_"/></g><g id="XMLID_545_"><rect class="st0" height="20.4" id="XMLID_4590_" transform="matrix(0.5311 0.8473 -0.8473 0.5311 368.3211 129.377)" width="1" x="66.8" y="387.3"/></g><g id="XMLID_546_"><rect class="st0" height="21.2" id="XMLID_4589_" transform="matrix(0.4904 0.8715 -0.8715 0.4904 387.114 146.2987)" width="1" x="68" y="393.6"/></g><g id="XMLID_547_"><path class="st0" d="M64.9,415.8l-0.6-0.8c5.9-4.9,12.4-9,19.3-12.3l0.4,0.9C77.1,406.8,70.7,410.9,64.9,415.8      z" id="XMLID_4588_"/></g><g id="XMLID_548_"><path class="st0" d="M73.6,419.7l-0.7-0.7c4.8-4.6,10-8.8,15.4-12.6l0.6,0.8C83.5,410.9,78.3,415.1,73.6,419.7      z" id="XMLID_4587_"/></g><g id="XMLID_549_"><rect class="st0" height="19.9" id="XMLID_4586_" transform="matrix(0.6386 0.7695 -0.7695 0.6386 353.9557 84.0702)" width="1" x="87" y="409"/></g><g id="XMLID_551_"><path class="st0" d="M88.9,430.4l-0.7-0.7c4.8-4.4,9.9-8.5,15.3-12.2l0.6,0.8C98.8,422,93.6,426,88.9,430.4z" id="XMLID_4585_"/></g><g id="XMLID_552_"><path class="st0" d="M92.7,441.9l-0.4-0.9c5.3-2.1,9.9-5.8,12.9-10.6l0.8,0.5C103,435.8,98.2,439.7,92.7,441.9      z" id="XMLID_4584_"/></g><g id="XMLID_553_"><path class="st0" d="M101,447.5l-0.9-0.5c2.3-4,5.8-7.4,9.9-9.5l0.5,0.9C106.5,440.4,103.2,443.6,101,447.5z" id="XMLID_4583_"/></g><g id="XMLID_554_"><path class="st0" d="M105.6,455.6l-0.8-0.6c3.1-4.2,6.8-8,11-11.2l0.6,0.8      C112.3,447.8,108.7,451.5,105.6,455.6z" id="XMLID_4582_"/></g><g id="XMLID_555_"><path class="st0" d="M112.2,457.7l-0.8-0.6c3.9-5,8.8-11.3,15.6-13.9l0.4,0.9      C120.8,446.7,116,452.8,112.2,457.7z" id="XMLID_4581_"/></g><g id="XMLID_556_"><path class="st0" d="M120.1,461.2l-0.8-0.6c4.3-5.3,9.3-9.9,15-13.7l0.6,0.8      C129.3,451.4,124.4,455.9,120.1,461.2z" id="XMLID_4580_"/></g><g id="XMLID_558_"><path class="st0" d="M130.2,462.2l-0.8-0.6c3.5-4.5,7.5-8.6,12-12.2l0.6,0.8      C137.6,453.7,133.6,457.7,130.2,462.2z" id="XMLID_4579_"/></g><g id="XMLID_559_"><path class="st0" d="M134.6,468.2l-0.7-0.7c4.9-5,10.3-9.6,16-13.6l0.6,0.8      C144.8,458.7,139.4,463.2,134.6,468.2z" id="XMLID_4578_"/></g><g id="XMLID_560_"><path class="st0" d="M140.1,472.7l-0.7-0.7c4.6-4.8,9.6-9.2,14.9-13.2l0.6,0.8      C149.7,463.6,144.7,468,140.1,472.7z" id="XMLID_4577_"/></g><g id="XMLID_561_"><path class="st0" d="M147.7,482.2l-0.8-0.6c5.2-6.6,11-12.8,17.5-18.2l0.6,0.8      C158.6,469.5,152.8,475.6,147.7,482.2z" id="XMLID_4576_"/></g><g id="XMLID_562_"><path class="st0" d="M158.8,481.6l-0.9-0.5c3.7-6.5,8.5-12.2,14.3-17l0.6,0.8      C167.2,469.5,162.3,475.3,158.8,481.6z" id="XMLID_4575_"/></g><g id="XMLID_563_"><path class="st0" d="M167.2,483.1l-0.9-0.5c3.2-5.8,7.4-11,12.4-15.3l0.7,0.8      C174.4,472.3,170.3,477.4,167.2,483.1z" id="XMLID_4574_"/></g><g id="XMLID_565_"><path class="st0" d="M175.2,485.1l-0.9-0.5c3.5-6,7.9-11.5,12.9-16.2l0.7,0.7      C182.9,473.8,178.6,479.2,175.2,485.1z" id="XMLID_4573_"/></g><g id="XMLID_566_"><path class="st0" d="M183.1,487.1l-0.8-0.5c4-6.2,8.7-12,14-17.2l0.7,0.7C191.8,475.3,187.1,481,183.1,487.1z" id="XMLID_4572_"/></g><g id="XMLID_567_"><path class="st0" d="M191.7,493.7l-0.8-0.6l11.1-16.8c1.4-2.1,2.8-4,5.1-4.7l0.3,1c-1.9,0.6-3.2,2.3-4.5,4.3      L191.7,493.7z" id="XMLID_4571_"/></g><g id="XMLID_568_"><path class="st0" d="M201.4,497.5c-0.1,0-0.1,0-0.2,0l0.1-1c1.4,0.1,2.4-1.6,3.2-3.1      c2.8-5.7,6.6-10.8,11.3-15.2l0.7,0.7c-4.6,4.2-8.3,9.2-11.1,14.9C204.7,495,203.5,497.5,201.4,497.5z" id="XMLID_4570_"/></g><g id="XMLID_569_"><path class="st0" d="M209.4,504.6l-0.7-0.7c2.2-2.1,3.8-4.9,5.3-7.6c2-3.6,4.1-7.4,7.9-9.4l0.5,0.9      c-3.5,1.9-5.4,5.4-7.5,9C213.4,499.5,211.8,502.4,209.4,504.6z" id="XMLID_4569_"/></g><g id="XMLID_570_"><path class="st0" d="M220.3,500.7l-0.8-0.6c3.5-5,7.8-9.4,12.8-12.9l0.6,0.8      C228,491.5,223.7,495.8,220.3,500.7z" id="XMLID_4568_"/></g><g id="XMLID_572_"><path class="st0" d="M230.2,504.7l-0.8-0.6c3.4-4.9,7.4-9.3,11.9-13.2l0.7,0.8      C237.5,495.4,233.5,499.8,230.2,504.7z" id="XMLID_4567_"/></g><g id="XMLID_573_"><path class="st0" d="M242.2,503.1l-0.9-0.4c3.1-6.3,7.7-11.8,13.5-15.9l0.6,0.8      C249.8,491.6,245.3,496.9,242.2,503.1z" id="XMLID_4566_"/></g><g id="XMLID_574_"><path class="st0" d="M251.2,503.1l-0.9-0.5c2.9-5.4,6.3-10.6,10.3-15.3l0.8,0.6      C257.4,492.6,254,497.7,251.2,503.1z" id="XMLID_4565_"/></g><g id="XMLID_575_"><path class="st0" d="M261.5,499.7l-0.5-0.9c3.6-2.2,6.6-5.5,8.4-9.2l0.9,0.4      C268.3,494,265.2,497.5,261.5,499.7z" id="XMLID_4564_"/></g><g id="XMLID_576_"><path class="st0" d="M39.3,168.6c-4.6-5.6-6.8-12.8-6-20c0-0.4,0.4-1,0.8-1.1c0.3-0.1,0.6,0,0.8,0.3l-0.8,0.6      c0,0,0.1,0.1,0.2,0.1c0.1,0,0.2,0,0.2,0c0,0-0.1,0.2-0.1,0.3c-0.7,6.9,1.4,13.9,5.8,19.2L39.3,168.6z" id="XMLID_4563_"/></g><g id="XMLID_577_"><path class="st0" d="M37.2,183.7c-4.8-6.9-8.3-14.6-10.5-22.7l1-0.3c2.1,8,5.6,15.6,10.3,22.4L37.2,183.7z" id="XMLID_4562_"/></g><g id="XMLID_579_"><path class="st0" d="M33.5,192.2c-1.1-2.4-2.7-4.6-4.3-6.8c-0.9-1.2-1.8-2.4-2.6-3.6      c-2.9-4.4-3.7-8.8-2.5-12.3l0.9,0.3c-1.6,4.3,0.8,9,2.4,11.4c0.8,1.2,1.7,2.4,2.5,3.5c1.6,2.2,3.3,4.4,4.4,7L33.5,192.2z" id="XMLID_4561_"/></g><g id="XMLID_580_"><path class="st0" d="M31,199.5c-6.1-5.3-10.2-12.7-11.6-20.7l1-0.2c1.4,7.8,5.4,14.9,11.3,20.1L31,199.5z" id="XMLID_4560_"/></g><g id="XMLID_581_"><path class="st0" d="M28,208.5c-6.3-5.3-10.6-13-11.9-21.1l1-0.2c1.3,7.9,5.5,15.4,11.6,20.5L28,208.5z" id="XMLID_4559_"/></g><g id="XMLID_582_"><path class="st0" d="M26.4,216.7c-6.4-4.6-10.8-11.6-12.2-19.3l1-0.2c1.3,7.5,5.6,14.3,11.8,18.7L26.4,216.7z" id="XMLID_4558_"/></g><g id="XMLID_583_"><path class="st0" d="M27,225.3c-7-3.8-12.1-11-13.3-18.9l1-0.2c1.2,7.6,6.1,14.5,12.8,18.1L27,225.3z" id="XMLID_4557_"/></g><g id="XMLID_584_"><path class="st0" d="M25.5,230.7c-6.2-3.6-11-9.1-13.7-15.7l0.9-0.4c2.6,6.4,7.3,11.8,13.2,15.2L25.5,230.7z" id="XMLID_4556_"/></g><g id="XMLID_586_"><path class="st0" d="M25,238.7c-6.2-4.2-11.3-10.3-14.2-17.2l0.9-0.4c2.9,6.7,7.8,12.7,13.8,16.7L25,238.7z" id="XMLID_4555_"/></g><g id="XMLID_587_"><path class="st0" d="M23.4,246.6c-5.8-5.2-11.1-11.1-15.6-17.5l0.8-0.6c4.5,6.3,9.7,12.2,15.5,17.4L23.4,246.6      z" id="XMLID_4554_"/></g><g id="XMLID_588_"><path class="st0" d="M23.4,256.3c-6-4.5-11.4-9.7-16-15.6l0.8-0.6c4.6,5.8,9.9,11,15.9,15.5L23.4,256.3z" id="XMLID_4553_"/></g><g id="XMLID_589_"><path class="st0" d="M22.9,265.8c-6-3.5-11.4-8.2-15.5-13.8l0.8-0.6c4.1,5.4,9.3,10.1,15.2,13.5L22.9,265.8z" id="XMLID_4552_"/></g><g id="XMLID_590_"><path class="st0" d="M28.5,276.4c-7.2-2.4-13.6-7.2-18.1-13.3l0.8-0.6c4.4,6,10.6,10.6,17.6,13L28.5,276.4z" id="XMLID_4551_"/></g><g id="XMLID_591_"><path class="st0" d="M26.6,286.2c-6.9-2.7-13.4-6.9-18.7-12l0.7-0.7c5.2,5.1,11.6,9.1,18.3,11.8L26.6,286.2z" id="XMLID_4550_"/></g><g id="XMLID_593_"><path class="st0" d="M26,292.2c-6.2-2.7-12.3-5.9-18.1-9.5l0.5-0.8c5.7,3.6,11.8,6.7,17.9,9.4L26,292.2z" id="XMLID_4549_"/></g><g id="XMLID_594_"><path class="st0" d="M26.9,306.3c-4.4-2.3-8.7-5.1-12.7-8.1c-2.5-1.9-5-4.2-5.7-7.2l1-0.2      c0.6,2.7,2.9,4.8,5.3,6.6c3.9,3,8.2,5.7,12.5,8L26.9,306.3z" id="XMLID_4548_"/></g><g id="XMLID_595_"><path class="st0" d="M33.5,318.2c-8.3-3.4-15.9-8.1-22.7-14l0.7-0.8c6.7,5.8,14.2,10.4,22.4,13.8L33.5,318.2z" id="XMLID_4547_"/></g><g id="XMLID_596_"><path class="st0" d="M43.1,327.8c-8.7-2.7-17-6.6-24.6-11.5l0.5-0.8c7.6,4.9,15.8,8.7,24.4,11.4L43.1,327.8z" id="XMLID_4546_"/></g><g id="XMLID_597_"><path class="st0" d="M42.6,335.8c-7.2-2-14.1-4.9-20.6-8.6l0.5-0.9c6.4,3.6,13.3,6.5,20.4,8.5L42.6,335.8z" id="XMLID_4545_"/></g><g id="XMLID_598_"><path class="st0" d="M42,339.4c-6.7-1.9-13.5-4.1-20-6.6l0.4-0.9c6.5,2.5,13.2,4.7,19.9,6.6L42,339.4z" id="XMLID_4544_"/></g><g id="XMLID_600_"><rect class="st0" height="1" id="XMLID_4543_" transform="matrix(0.9628 0.2702 -0.2702 0.9628 94.6018 3.061)" width="19.8" x="26.3" y="344.6"/></g><g id="XMLID_601_"><path class="st0" d="M48.9,363.5c-7-2.9-13.9-6.4-20.5-10.2l0.5-0.9c6.5,3.9,13.3,7.3,20.3,10.2L48.9,363.5z" id="XMLID_4542_"/></g><g id="XMLID_602_"><path class="st0" d="M57.2,373.2c-8.6-0.2-16.9-3.4-23.4-8.9l0.6-0.8c6.3,5.4,14.4,8.5,22.8,8.7L57.2,373.2z" id="XMLID_4541_"/></g><g id="XMLID_603_"><path class="st0" d="M70.6,380.9c-9.6-1.2-19.2-2.9-28.5-5.1l0.2-1c9.3,2.2,18.9,3.9,28.4,5L70.6,380.9z" id="XMLID_4540_"/></g><g id="XMLID_604_"><path class="st0" d="M75.1,391.4c-8.8-1.2-17.4-3.6-25.6-7.2l0.4-0.9c8.1,3.6,16.6,5.9,25.3,7.1L75.1,391.4z" id="XMLID_4539_"/></g><g id="XMLID_605_"><rect class="st0" height="1" id="XMLID_4538_" transform="matrix(0.9846 0.1749 -0.1749 0.9846 69.7866 -5.3843)" width="34" x="48.4" y="392.8"/></g><g id="XMLID_607_"><path class="st0" d="M85.1,409c-8.7-1.4-17.3-3.7-25.5-6.7l0.3-0.9c8.2,3,16.7,5.3,25.4,6.7L85.1,409z" id="XMLID_4537_"/></g><g id="XMLID_608_"><rect class="st0" height="1" id="XMLID_4536_" transform="matrix(0.9732 0.2301 -0.2301 0.9732 97.4214 -6.8206)" width="33.5" x="61.2" y="413.8"/></g><g id="XMLID_609_"><path class="st0" d="M106.2,427.8c-10.8-0.3-22.9-0.7-33.4-5.8l0.4-0.9c10.2,5,22.3,5.4,33,5.7L106.2,427.8z" id="XMLID_4535_"/></g><g id="XMLID_610_"><path class="st0" d="M107.5,435.1c-9.5,0-19.1-1.1-28.4-3.2l0.2-1c12.7,3,25.8,3.9,38.8,2.8l0.1,1      C114.6,434.9,111,435.1,107.5,435.1z" id="XMLID_4534_"/></g><g id="XMLID_611_"><path class="st0" d="M122.3,442.6c-7.4,0-14.7-1.1-21.7-3.2l0.3-1c9.7,3,20.2,3.9,30.3,2.7l0.1,1      C128.3,442.5,125.3,442.6,122.3,442.6z" id="XMLID_4533_"/></g><g id="XMLID_612_"><path class="st0" d="M130.9,450.4c-9.8,0-19.6-0.7-29.3-2.1l0.1-1c11.2,1.6,22.6,2.3,33.9,2.1l0,1      C134.1,450.4,132.5,450.4,130.9,450.4z" id="XMLID_4532_"/></g><g id="XMLID_614_"><path class="st0" d="M132.9,461c-5.3,0-10.5-0.6-15.7-1.8c-0.2,0-0.3-0.2-0.4-0.4c0-0.2,0-0.4,0.2-0.5      c1.6-1.3,3.8-1.8,5.8-1.3l-0.2,1c-1.3-0.3-2.8-0.1-4,0.5c10.7,2.4,21.9,2,32.5-1l0.3,1C145.3,460.1,139.1,461,132.9,461z" id="XMLID_4531_"/></g><g id="XMLID_615_"><path class="st0" d="M135.3,467.6c-1.7,0-3.4,0-5.1-0.1l0-1c11.2,0.4,22.4-0.5,33.4-2.6l0.2,1      C154.4,466.7,144.8,467.6,135.3,467.6z" id="XMLID_4530_"/></g><g id="XMLID_616_"><path class="st0" d="M144.8,474.7l-0.1-1c12.6-1.4,25.4-3.1,37.9-5.1l0.2,1      C170.2,471.6,157.4,473.3,144.8,474.7z" id="XMLID_4529_"/></g><g id="XMLID_617_"><path class="st0" d="M163.8,481.8l-0.3-1c10.5-3.1,21.3-5.5,32.1-7.1l0.1,1C185,476.4,174.3,478.7,163.8,481.8      z" id="XMLID_4528_"/></g><g id="XMLID_618_"><path class="st0" d="M185.6,486.2c-1.7,0-3.4-0.2-5.1-0.7l0.3-1c5.5,1.7,11.1,0,17-1.8c4.8-1.5,9.8-3,14.7-2.5      l-0.1,1c-4.8-0.5-9.6,1-14.4,2.4C193.9,484.9,189.8,486.2,185.6,486.2z" id="XMLID_4527_"/></g><g id="XMLID_619_"><rect class="st0" height="43.5" id="XMLID_4526_" transform="matrix(0.3402 0.9404 -0.9404 0.3402 599.0375 119.1113)" width="1" x="214.1" y="464.7"/></g><g id="XMLID_621_"><path class="st0" d="M219.7,495.4l-0.1-1c9.1-0.8,18.1-2.6,26.8-5.3l0.3,1C238,492.8,228.9,494.6,219.7,495.4z      " id="XMLID_4525_"/></g><g id="XMLID_622_"><path class="st0" d="M235.8,504.8l-0.2-1c8-1.8,15.9-4.5,23.4-8l0.4,0.9C251.9,500.3,243.9,503,235.8,504.8z" id="XMLID_4524_"/></g><g id="XMLID_623_"><path class="st0" d="M154.7,294.1l-0.8-0.6c2.5-3.7,5.5-7,8.9-9.8l0.6,0.8      C160.1,287.3,157.1,290.6,154.7,294.1z" id="XMLID_4523_"/></g><g id="XMLID_624_"><rect class="st0" height="10.6" id="XMLID_4522_" transform="matrix(0.7149 0.6993 -0.6993 0.7149 244.8601 -25.3152)" width="1" x="153" y="282.3"/></g><g id="XMLID_625_"><path class="st0" d="M143.1,288.7l-0.8-0.6c2.7-3.3,6.2-6,10.1-7.8l0.4,0.9      C149.1,282.8,145.7,285.5,143.1,288.7z" id="XMLID_4521_"/></g><g id="XMLID_626_"><rect class="st0" height="11.8" id="XMLID_4520_" transform="matrix(0.5915 0.8063 -0.8063 0.5915 285.4588 -2.7741)" width="1" x="145" y="274.4"/></g><g id="XMLID_627_"><path class="st0" d="M134,280.8l-0.5-0.8c4.3-2.8,8.9-5.4,13.5-7.6l0.4,0.9C142.8,275.4,138.3,278,134,280.8z" id="XMLID_4519_"/></g><g id="XMLID_628_"><path class="st0" d="M131.5,276.3l-0.5-0.9c3.3-2,6.9-3.7,10.5-5.1l0.4,0.9      C138.3,272.6,134.8,274.3,131.5,276.3z" id="XMLID_4518_"/></g><g id="XMLID_629_"><rect class="st0" height="12.1" id="XMLID_4517_" transform="matrix(0.4197 0.9077 -0.9077 0.4197 322.7852 32.8392)" width="1" x="135.2" y="262.8"/></g><g id="XMLID_630_"><rect class="st0" height="11.2" id="XMLID_4516_" transform="matrix(0.3477 0.9376 -0.9376 0.3477 334.2338 44.0984)" width="1" x="134.9" y="256.6"/></g><g id="XMLID_631_"><rect class="st0" height="15" id="XMLID_4515_" transform="matrix(0.3378 0.9412 -0.9412 0.3378 329.5872 43.7385)" width="1" x="133.2" y="248.6"/></g><g id="XMLID_632_"><path class="st0" d="M129.5,251.3c-0.4,0-0.9,0-1.3,0l0.1-1c4,0.3,8-0.8,11.4-3l0.6,0.8      C137,250.2,133.3,251.3,129.5,251.3z" id="XMLID_4514_"/></g><g id="XMLID_633_"><path class="st0" d="M126.4,246.5l-0.3-1c3.8-1,7.7-2.3,11.3-3.8l0.4,0.9C134.1,244.2,130.3,245.5,126.4,246.5      z" id="XMLID_4513_"/></g><g id="XMLID_634_"><rect class="st0" height="12.3" id="XMLID_4512_" transform="matrix(0.3361 0.9418 -0.9418 0.3361 313.636 35.0938)" width="1" x="131.4" y="233.8"/></g><g id="XMLID_635_"><rect class="st0" height="12.9" id="XMLID_4511_" transform="matrix(0.2306 0.9731 -0.9731 0.2306 328.8138 52.8996)" width="1" x="130.5" y="227.9"/></g><g id="XMLID_636_"><path class="st0" d="M124.9,228.7l-0.5-0.9c3.6-1.9,7.7-3.1,11.7-3.5l0.1,1      C132.3,225.7,128.4,226.9,124.9,228.7z" id="XMLID_4510_"/></g><g id="XMLID_637_"><path class="st0" d="M123.3,221.8l-0.2-1c3.9-0.8,7.8-1.9,11.5-3.3l0.3,0.9      C131.1,219.8,127.2,220.9,123.3,221.8z" id="XMLID_4509_"/></g><g id="XMLID_638_"><path class="st0" d="M125.5,214.7l-0.6-0.8c2.6-2.1,5.5-3.8,8.6-5.1l0.4,0.9      C130.9,211,128.1,212.7,125.5,214.7z" id="XMLID_4508_"/></g><g id="XMLID_639_"><rect class="st0" height="11.5" id="XMLID_4507_" transform="matrix(0.2968 0.9549 -0.9549 0.2968 287.3243 19.0662)" width="1" x="130.2" y="198.9"/></g><g id="XMLID_640_"><path class="st0" d="M126.7,198.8l0-1c3.4-0.1,6.7-0.7,10-1.6l0.3,1C133.6,198.1,130.2,198.6,126.7,198.8z" id="XMLID_4506_"/></g><g id="XMLID_641_"><rect class="st0" height="9.2" id="XMLID_4505_" transform="matrix(0.207 0.9783 -0.9783 0.207 291.149 23.3278)" width="1" x="130.7" y="186.7"/></g><g id="XMLID_642_"><path class="st0" d="M128.3,187.8l-0.3-1c3-0.9,6-1.4,9.1-1.6l0,1C134.2,186.4,131.2,186.9,128.3,187.8z" id="XMLID_4504_"/></g><g id="XMLID_643_"><rect class="st0" height="8.7" id="XMLID_4503_" transform="matrix(0.1837 0.983 -0.983 0.1837 286.7601 16.4743)" width="1" x="133" y="176.5"/></g><g id="XMLID_644_"><path class="st0" d="M135.4,174.4c-1.4,0-2.8,0-4.2-0.1l0.1-1c3.6,0.3,7.3,0.2,10.9-0.2l0.1,1      C140,174.3,137.7,174.4,135.4,174.4z" id="XMLID_4502_"/></g><g id="XMLID_645_"><path class="st0" d="M134.6,168.4c-1.3,0-2.7,0-4-0.1l0.1-1c3.3,0.2,6.7,0.2,9.9-0.2l0.1,1      C138.7,168.3,136.7,168.4,134.6,168.4z" id="XMLID_4501_"/></g><g id="XMLID_646_"><rect class="st0" height="9" id="XMLID_4500_" transform="matrix(5.471245e-002 0.9985 -0.9985 5.471245e-002 288.0794 14.8479)" width="1" x="135.7" y="155.1"/></g><g id="XMLID_647_"><rect class="st0" height="1" id="XMLID_4499_" width="10" x="135.2" y="150.3"/></g><g id="XMLID_648_"><rect class="st0" height="5.2" id="XMLID_4498_" transform="matrix(0.2873 0.9578 -0.9578 0.2873 240.0579 -31.5006)" width="1" x="140.7" y="143"/></g><g id="XMLID_649_"><path class="st0" d="M155.5,292.5c-0.1,0-0.1,0-0.2,0c-0.2-0.1-0.3-0.2-0.3-0.4c-1-5.7-2-11.5-2.9-17.1l1-0.2      c0.9,5.4,1.8,10.9,2.8,16.3c0.7-0.4,1.5-0.8,2.2-1l0.3,0.9c-0.9,0.3-1.8,0.8-2.7,1.3C155.6,292.5,155.5,292.5,155.5,292.5z" id="XMLID_4497_"/></g><g id="XMLID_650_"><path class="st0" d="M151.5,291.6c-2.4-4.3-4-8.9-4.8-13.8l1-0.2c0.7,4.8,2.3,9.3,4.7,13.5L151.5,291.6z" id="XMLID_4496_"/></g><g id="XMLID_651_"><path class="st0" d="M148.3,289l-1-0.1c0.4-5.5,0-11.1-1.1-16.6l1-0.2C148.4,277.7,148.7,283.4,148.3,289z" id="XMLID_4495_"/></g><g id="XMLID_652_"><path class="st0" d="M143,283.7c-0.4-5.2-0.3-10.5,0.3-15.8l1,0.1c-0.6,5.2-0.7,10.4-0.3,15.6L143,283.7z" id="XMLID_4494_"/></g><g id="XMLID_653_"><path class="st0" d="M139.4,280.3c-0.2-5.8,0.1-11.7,1-17.4l1,0.2c-0.9,5.7-1.2,11.5-1,17.2L139.4,280.3z" id="XMLID_4493_"/></g><g id="XMLID_654_"><path class="st0" d="M136.4,272.4l-1-0.1c0.4-5,2-9.9,4.4-14.2l0.9,0.5C138.3,262.8,136.8,267.6,136.4,272.4z" id="XMLID_4492_"/></g><g id="XMLID_655_"><path class="st0" d="M133.4,268.7l-1-0.1c0.8-5.5,2.3-10.8,4.7-15.8l0.9,0.4      C135.7,258.1,134.1,263.3,133.4,268.7z" id="XMLID_4491_"/></g><g id="XMLID_656_"><path class="st0" d="M131,263.2l-0.9-0.4c2.1-5.1,3.7-10.5,4.8-15.9l1,0.2C134.7,252.6,133,258,131,263.2z" id="XMLID_4490_"/></g><g id="XMLID_657_"><rect class="st0" height="19.8" id="XMLID_4489_" transform="matrix(0.9066 0.422 -0.422 0.9066 116.1597 -32.8556)" width="1" x="131.8" y="236"/></g><g id="XMLID_658_"><rect class="st0" height="15.5" id="XMLID_4488_" transform="matrix(0.8964 0.4433 -0.4433 0.8964 119.039 -33.8531)" width="1" x="131.4" y="229.9"/></g><g id="XMLID_659_"><path class="st0" d="M127,237.9l-0.9-0.5c2.7-5.2,5.6-10.4,8.7-15.3l0.8,0.5      C132.5,227.5,129.6,232.7,127,237.9z" id="XMLID_4487_"/></g><g id="XMLID_660_"><rect class="st0" height="17.7" id="XMLID_4486_" transform="matrix(0.8104 0.5858 -0.5858 0.8104 154.8022 -34.0642)" width="1" x="129.5" y="213.3"/></g><g id="XMLID_661_"><rect class="st0" height="17.4" id="XMLID_4485_" transform="matrix(0.8368 0.5475 -0.5475 0.8368 137.7689 -36.8042)" width="1" x="130.1" y="204"/></g><g id="XMLID_663_"><path class="st0" d="M124.9,212.6l-0.8-0.6c3.3-4.3,6.4-8.8,9.4-13.3l0.8,0.6      C131.4,203.8,128.2,208.3,124.9,212.6z" id="XMLID_4484_"/></g><g id="XMLID_664_"><path class="st0" d="M127.9,201.6l-0.8-0.7c3.9-4.5,7.5-9.3,10.7-14.3l0.8,0.5      C135.4,192.3,131.8,197.1,127.9,201.6z" id="XMLID_4483_"/></g><g id="XMLID_665_"><rect class="st0" height="19.4" id="XMLID_4482_" transform="matrix(0.8177 0.5757 -0.5757 0.8177 131.8493 -41.6607)" width="1" x="131.2" y="177.6"/></g><g id="XMLID_666_"><rect class="st0" height="13.7" id="XMLID_4481_" transform="matrix(0.7311 0.6822 -0.6822 0.7311 155.0806 -44.9008)" width="1" x="134" y="167.5"/></g><g id="XMLID_667_"><rect class="st0" height="13.7" id="XMLID_4480_" transform="matrix(0.6993 0.7149 -0.7149 0.6993 160.123 -48.0405)" width="1" x="136.7" y="159.4"/></g><g id="XMLID_668_"><path class="st0" d="M135.3,163l-0.7-0.7l10.2-11.6l-0.1-0.2l0.8-0.5c0.2-0.1,0.5-0.1,0.6,0.1      c0.2,0.2,0.2,0.5,0,0.6L135.3,163z" id="XMLID_4479_"/></g><g id="XMLID_669_"><path class="st0" d="M193,239.3c-3.6-2.8-6.1-7.2-7.7-13.3c-4-15.1-0.5-32,9.2-44.3c2-2.5,7.3-8.2,13.2-6.4      l-0.3,1c-5.3-1.6-10.2,3.7-12.1,6c-9.5,12-12.9,28.6-9,43.4c1.6,5.9,4,10.1,7.4,12.8L193,239.3z" id="XMLID_4478_"/></g><g id="XMLID_670_"><path class="st0" d="M192.1,219.9c-1.8-6.7,0.3-13.9,2-19.7c0.7-2.5,1.5-5.1,2.9-7.5c1.6-2.7,3.9-4.4,6.3-5      l0.2,1c-2.2,0.5-4.2,2.2-5.7,4.6c-1.4,2.2-2.1,4.8-2.8,7.2c-1.7,5.7-3.8,12.7-2,19.2L192.1,219.9z" id="XMLID_4477_"/></g><g id="XMLID_671_"><path class="st0" d="M200.1,218.9c-0.6-0.5-0.8-1.2-1-2c-1.7-6.7,0.3-14.3,5-19.3l0.7,0.7      c-4.5,4.8-6.3,12-4.7,18.4c0.1,0.5,0.3,1.1,0.7,1.5L200.1,218.9z" id="XMLID_4476_"/></g><g id="XMLID_672_"><path class="st0" d="M330.5,221.7l-0.9-0.5c1.3-2.2,1.8-5.1,1.4-9.1c-0.8-8.3-4.1-16.3-7.6-23.7      c-3.1-6.5-6.5-13-10.1-19.2c-0.1,0.1-0.3,0.1-0.4,0.1c-0.4,0-0.7-0.4-0.7-0.8c0-0.3,0.1-0.7,0.5-0.8c0.3-0.1,0.9-0.2,1.5,0.8      c3.6,6.3,7,12.8,10.2,19.4c3.6,7.5,7,15.6,7.7,24C332.4,216.2,331.9,219.3,330.5,221.7z M312.9,168.3      C312.9,168.3,312.9,168.3,312.9,168.3c-0.2,0-0.3,0.1-0.4,0.3l0.5,0.1c0.1,0,0.1-0.1,0.1-0.1c0-0.1,0-0.1,0-0.2      C313.2,168.4,313.1,168.3,312.9,168.3z" id="XMLID_4473_"/></g><g id="XMLID_673_"><path class="st0" d="M319,204l-1-0.1c0.3-3.5-1.2-7.5-2.9-11.4c-0.8-1.7-1.7-3.6-3-5.7      c-0.3-0.6-2.2-3.6-2.6-4.1l-0.1,0c-0.1-0.2-0.3-0.7,0.1-0.9c0.4-0.2,0.6-0.3,3.5,4.4c1.3,2.1,2.3,4,3,5.8      C317.8,196.1,319.3,200.3,319,204z" id="XMLID_4472_"/></g><g id="XMLID_675_"><path class="st0" d="M312.6,203.7l-1-0.1c0.6-6-3.9-12.1-9.8-13.3l0.2-1C308.3,190.6,313.2,197.2,312.6,203.7z      " id="XMLID_4471_"/></g><g id="XMLID_676_"><path class="st0" d="M349.5,135.5l-0.9-0.5c2.1-4.1,5.2-7.6,9-10.1l0.6,0.8      C354.5,128.2,351.5,131.6,349.5,135.5z" id="XMLID_4470_"/></g><g id="XMLID_677_"><path class="st0" d="M355.6,141.1l-1-0.2c0.8-3.7,2.7-7.2,5.4-9.8l0.7,0.7      C358.1,134.3,356.3,137.6,355.6,141.1z" id="XMLID_4469_"/></g><g id="XMLID_678_"><path class="st0" d="M358,145.9l-0.9-0.5c1.8-3.1,4.5-5.8,7.5-7.7l0.5,0.8C362.3,140.4,359.8,142.9,358,145.9z      " id="XMLID_4468_"/></g><g id="XMLID_679_"><path class="st0" d="M359.2,151.7l-0.7-0.7c2.4-2.2,5-4.3,7.7-6l0.5,0.8C364.1,147.5,361.6,149.5,359.2,151.7z      " id="XMLID_4467_"/></g><g id="XMLID_680_"><path class="st0" d="M360.2,156.7l-0.7-0.8c2.2-1.9,4.6-3.6,7-5.1l0.5,0.9      C364.7,153.2,362.3,154.8,360.2,156.7z" id="XMLID_4466_"/></g><g id="XMLID_687_"><rect class="st0" height="8.2" id="XMLID_4465_" transform="matrix(0.5393 0.8421 -0.8421 0.5393 300.9321 -235.8361)" width="1" x="365.5" y="153"/></g><g id="XMLID_689_"><path class="st0" d="M363.5,165.4l-0.6-0.8c2.3-1.8,4.8-3.6,7.3-5.1l0.5,0.8      C368.3,161.9,365.8,163.6,363.5,165.4z" id="XMLID_4464_"/></g><g id="XMLID_691_"><path class="st0" d="M364.9,170.1l-0.7-0.7c1.9-1.8,4.2-3.1,6.7-3.8l0.3,1      C368.9,167.2,366.7,168.4,364.9,170.1z" id="XMLID_4463_"/></g><g id="XMLID_692_"><path class="st0" d="M366.1,175.1l-0.5-0.9c4-2.3,8.3-4.3,12.7-5.8l0.3,0.9      C374.3,170.9,370.1,172.8,366.1,175.1z" id="XMLID_4462_"/></g><g id="XMLID_693_"><path class="st0" d="M369.5,181.8L369,181c3-1.9,6.3-3.3,9.8-3.9l0.2,1C375.6,178.7,372.3,180,369.5,181.8z" id="XMLID_4461_"/></g><g id="XMLID_694_"><path class="st0" d="M372.4,186.5l-0.4-0.9c3-1.5,6.1-2.8,9.3-3.9l0.3,0.9C378.5,183.7,375.4,185,372.4,186.5z      " id="XMLID_4460_"/></g><g id="XMLID_695_"><path class="st0" d="M374.1,191.8l-0.5-0.9c2.7-1.4,5.5-2.6,8.4-3.4l0.3,1      C379.5,189.3,376.7,190.4,374.1,191.8z" id="XMLID_4459_"/></g><g id="XMLID_696_"><rect class="st0" height="10.1" id="XMLID_4458_" transform="matrix(0.2968 0.9549 -0.9549 0.2968 453.0505 -229.0026)" width="1" x="381.5" y="188.1"/></g><g id="XMLID_698_"><rect class="st0" height="9.8" id="XMLID_4457_" transform="matrix(0.2051 0.9787 -0.9787 0.2051 499.389 -213.318)" width="1" x="380.5" y="195.9"/></g><g id="XMLID_699_"><path class="st0" d="M376.3,208.2l-0.3-1c3.9-1.1,8-1.6,12.1-1.7l0,1C384.2,206.6,380.2,207.1,376.3,208.2z" id="XMLID_4456_"/></g><g id="XMLID_700_"><rect class="st0" height="10.4" id="XMLID_4455_" transform="matrix(0.1016 0.9948 -0.9948 0.1016 557.6036 -186.4459)" width="1" x="381.5" y="210.3"/></g><g id="XMLID_701_"><path class="st0" d="M378.3,222.5l-0.2-1c4.1-0.9,8.2-1.6,12.4-2.1l0.1,1C386.5,220.9,382.4,221.6,378.3,222.5      z" id="XMLID_4454_"/></g><g id="XMLID_702_"><rect class="st0" height="1" id="XMLID_4453_" width="6.7" x="379.9" y="227.8"/></g><g id="XMLID_703_"><rect class="st0" height="1" id="XMLID_4452_" transform="matrix(0.9925 0.122 -0.122 0.9925 31.611 -44.7876)" width="6.7" x="378.2" y="235.2"/></g><g id="XMLID_705_"><path class="st0" d="M383.9,243.9c-2.3,0-4.6-0.2-6.9-0.7l0.2-1c2.7,0.6,5.5,0.8,8.2,0.7l0,1      C385,243.8,384.5,243.9,383.9,243.9z" id="XMLID_4451_"/></g><g id="XMLID_706_"><path class="st0" d="M384.4,253.7c-3-0.7-5.9-1.7-8.8-2.8l0.4-0.9c2.8,1.1,5.7,2.1,8.7,2.8L384.4,253.7z" id="XMLID_4450_"/></g><g id="XMLID_707_"><path class="st0" d="M385.8,260.2c-3.3-0.5-6.3-2.1-8.6-4.5l0.7-0.7c2.1,2.2,5,3.7,8,4.2L385.8,260.2z" id="XMLID_4449_"/></g><g id="XMLID_708_"><rect class="st0" height="1" id="XMLID_4448_" transform="matrix(0.7614 0.6483 -0.6483 0.7614 262.1019 -183.034)" width="5.7" x="376.8" y="264"/></g><g id="XMLID_709_"><path class="st0" d="M376.3,273.2c-0.8-1.9-1.3-3.8-1.5-5.8l1-0.1c0.2,1.9,0.7,3.8,1.5,5.6L376.3,273.2z" id="XMLID_4447_"/></g><g id="XMLID_710_"><rect class="st0" height="1" id="XMLID_4446_" transform="matrix(0.294 0.9558 -0.9558 0.294 524.723 -160.7747)" width="4.5" x="368.9" y="274.3"/></g><g id="XMLID_712_"><path class="st0" d="M359.5,131.5c-3.7-0.1-7.3-1-10.6-2.7l0.5-0.9c3.1,1.6,6.6,2.5,10.1,2.6L359.5,131.5z" id="XMLID_4445_"/></g><g id="XMLID_713_"><rect class="st0" height="1" id="XMLID_4444_" transform="matrix(0.9952 9.829275e-002 -9.829275e-002 0.9952 15.2109 -34.4623)" width="15.1" x="349.8" y="136.6"/></g><g id="XMLID_714_"><rect class="st0" height="1" id="XMLID_4443_" transform="matrix(0.9928 0.1198 -0.1198 0.9928 19.8598 -42.0193)" width="10.1" x="354.5" y="143.7"/></g><g id="XMLID_715_"><rect class="st0" height="1" id="XMLID_4442_" transform="matrix(0.9987 5.012690e-002 -5.012690e-002 0.9987 8.0897 -17.9728)" width="12.4" x="356.2" y="151.8"/></g><g id="XMLID_716_"><path class="st0" d="M369.5,160.8c-3.1,0-6.2-0.4-9.1-1.3l0.3-1c2.9,0.8,5.9,1.2,8.9,1.2L369.5,160.8z" id="XMLID_4441_"/></g><g id="XMLID_717_"><path class="st0" d="M372.2,169.7c-2.5,0-5.1-0.3-7.5-1l0.3-1c3.6,1,7.5,1.2,11.2,0.7l0.1,1      C374.9,169.6,373.6,169.7,372.2,169.7z" id="XMLID_4440_"/></g><g id="XMLID_719_"><path class="st0" d="M374.3,178.8c-2.4,0-4.8-0.2-7.2-0.6l0.2-1c4.1,0.8,8.3,0.8,12.5,0.2l0.1,1      C378,178.7,376.1,178.8,374.3,178.8z" id="XMLID_4439_"/></g><g id="XMLID_720_"><path class="st0" d="M373.8,187.3c-1.1,0-2.1-0.2-3-0.7l0.5-0.9c1.5,0.9,3.4,0.6,5.3,0.3      c1.8-0.3,3.7-0.6,5.5,0.1l-0.4,0.9c-1.5-0.6-3.2-0.4-5-0.1C375.8,187.2,374.8,187.3,373.8,187.3z" id="XMLID_4438_"/></g><g id="XMLID_721_"><path class="st0" d="M377,196c-1.2,0-2.4-0.2-3.6-0.5l0.3-1c2.6,0.8,5.5,0.6,8-0.5l0.4,0.9      C380.4,195.7,378.7,196,377,196z" id="XMLID_4437_"/></g><g id="XMLID_722_"><path class="st0" d="M368.2,276.5l0-1c4.5-0.1,9.1-0.6,13.6-1.4l0.2,1C377.4,275.9,372.8,276.4,368.2,276.5z" id="XMLID_4436_"/></g><g id="XMLID_723_"><rect class="st0" height="8.3" id="XMLID_4435_" transform="matrix(0.2796 0.9601 -0.9601 0.2796 532.202 -167.7052)" width="1" x="377.4" y="266.6"/></g><g id="XMLID_724_"><path class="st0" d="M373.8,270l-0.6-0.8c2.8-2.1,6.2-3.7,9.6-4.5l0.2,1C379.7,266.5,376.5,268,373.8,270z" id="XMLID_4434_"/></g><g id="XMLID_726_"><rect class="st0" height="13.1" id="XMLID_4433_" transform="matrix(0.4417 0.8971 -0.8971 0.4417 444.986 -195.6811)" width="1" x="379.2" y="253.2"/></g><g id="XMLID_727_"><rect class="st0" height="12.3" id="XMLID_4432_" transform="matrix(0.5154 0.857 -0.857 0.5154 402.5525 -204.4593)" width="1" x="381.5" y="247.5"/></g><g id="XMLID_728_"><path class="st0" d="M379.2,251.4l-0.7-0.7c2.4-2.3,5-4.4,7.7-6.4l0.6,0.8C384.2,247,381.6,249.1,379.2,251.4z      " id="XMLID_4431_"/></g><g id="XMLID_729_"><path class="st0" d="M377.6,247l-0.7-0.7c3.4-3.8,7.2-7.4,11.1-10.6l0.6,0.8C384.7,239.7,381,243.2,377.6,247z      " id="XMLID_4430_"/></g><g id="XMLID_730_"><path class="st0" d="M378.9,238.6l-0.8-0.6c2.2-3,4.8-5.6,7.8-7.8l0.6,0.8      C383.6,233.2,381.1,235.7,378.9,238.6z" id="XMLID_4429_"/></g><g id="XMLID_731_"><rect class="st0" height="12.3" id="XMLID_4428_" transform="matrix(0.7818 0.6235 -0.6235 0.7818 225.709 -187.9551)" width="1" x="380.9" y="222.4"/></g><g id="XMLID_733_"><path class="st0" d="M377.2,226l-0.7-0.7c2.8-2.6,5.4-5.5,7.7-8.5l0.8,0.6C382.6,220.4,380,223.3,377.2,226z" id="XMLID_4427_"/></g><g id="XMLID_734_"><rect class="st0" height="11.9" id="XMLID_4426_" transform="matrix(0.7774 0.629 -0.629 0.7774 218.9447 -193.3007)" width="1" x="382.1" y="206.8"/></g><g id="XMLID_735_"><path class="st0" d="M378.7,206.8l-1-0.3c1.1-3.8,2.5-7.5,4-11.1l0.9,0.4C381.1,199.4,379.8,203.1,378.7,206.8      z" id="XMLID_4425_"/></g><g id="XMLID_736_"><path class="st0" d="M375.3,201.7l-1-0.2l1.4-9c-0.8,1.3-1.7,2.5-2.9,3.6c-0.2,0.2-0.4,0.2-0.6,0      c-0.2-0.1-0.3-0.4-0.2-0.6c1.9-4.9,3.2-10,3.8-15.3l1,0.1c-0.5,4.5-1.5,8.9-3,13.2c0.9-1.2,1.7-2.6,2.4-3.9      c0.1-0.2,0.4-0.3,0.6-0.2c0.2,0.1,0.4,0.3,0.3,0.6L375.3,201.7z" id="XMLID_4424_"/></g><g id="XMLID_737_"><path class="st0" d="M370.7,179l-1-0.2c0.7-3.2,2.1-6.2,4.1-8.8l0.8,0.6C372.7,173.1,371.3,176,370.7,179z" id="XMLID_4423_"/></g><g id="XMLID_738_"><rect class="st0" height="8.7" id="XMLID_4422_" transform="matrix(0.9971 7.624798e-002 -7.624798e-002 0.9971 12.7447 -27.8323)" width="1" x="370.4" y="148.6"/></g><g id="XMLID_740_"><path class="st0" d="M196.9,134.4c-0.4-1.9-1.8-3.6-3.7-5c-1.8-1.3-3.9-2.1-5.9-2.9l0.4-0.9      c2.1,0.8,4.3,1.7,6.1,3c2.2,1.5,3.6,3.5,4.1,5.6L196.9,134.4z" id="XMLID_4421_"/></g><g id="XMLID_741_"><rect class="st0" height="9" id="XMLID_4420_" transform="matrix(0.9285 0.3714 -0.3714 0.9285 71.9049 -103.0618)" width="1" x="303" y="130.7"/></g><g id="XMLID_742_"><rect class="st0" height="0.9" id="XMLID_4419_" transform="matrix(0.7071 0.7071 -0.7071 0.7071 189.7843 -177.5362)" width="1" x="308.7" y="139.9"/></g><g id="XMLID_743_"><path class="st0" d="M163.3,389.3c-0.1,0-0.1,0-0.2,0c-1.7-0.7-3.1-2.2-3.6-4c-0.1-0.3,0.1-0.5,0.3-0.6      c0.3-0.1,0.5,0.1,0.6,0.3c0.5,1.5,1.6,2.7,3.1,3.3c0.3,0.1,0.4,0.4,0.3,0.7C163.6,389.2,163.5,389.3,163.3,389.3z" id="XMLID_4418_"/></g><g id="XMLID_744_"><path class="st0" d="M165.3,386.2c-0.1,0-0.2,0-0.3-0.1c-0.8-0.7-1.5-1.5-2.2-2.3c-0.2-0.2-0.1-0.5,0.1-0.7      c0.2-0.2,0.5-0.1,0.7,0.1c0.6,0.8,1.3,1.5,2.1,2.2c0.2,0.2,0.2,0.5,0,0.7C165.6,386.1,165.5,386.2,165.3,386.2z" id="XMLID_4417_"/></g><g id="XMLID_745_"><path class="st0" d="M167,384.9c-0.1,0-0.2,0-0.3-0.1c-1.1-0.7-2-1.6-2.6-2.8c-0.1-0.2,0-0.5,0.2-0.7      c0.2-0.1,0.5,0,0.7,0.2c0.5,1,1.3,1.8,2.3,2.4c0.2,0.1,0.3,0.5,0.2,0.7C167.3,384.8,167.2,384.9,167,384.9z" id="XMLID_4416_"/></g><g id="XMLID_747_"><path class="st0" d="M169.4,384.3c-0.1,0-0.2,0-0.2-0.1c-1.3-0.7-2.3-1.8-3-3c-0.1-0.2,0-0.5,0.2-0.7      c0.2-0.1,0.5,0,0.7,0.2c0.6,1.1,1.5,2,2.6,2.6c0.2,0.1,0.3,0.4,0.2,0.7C169.7,384.2,169.5,384.3,169.4,384.3z" id="XMLID_4415_"/></g><g id="XMLID_748_"><path class="st0" d="M170.9,382.7c-0.1,0-0.2,0-0.2-0.1c-1-0.5-1.9-1.3-2.5-2.2c-0.2-0.2-0.1-0.5,0.1-0.7      c0.2-0.2,0.5-0.1,0.7,0.1c0.5,0.8,1.3,1.4,2.1,1.9c0.2,0.1,0.3,0.4,0.2,0.7C171.2,382.6,171,382.7,170.9,382.7z" id="XMLID_4414_"/></g><g id="XMLID_749_"><path class="st0" d="M172.7,381.7c-0.1,0-0.1,0-0.2,0c-1.2-0.5-2.2-1.5-2.7-2.6c-0.1-0.2,0-0.5,0.2-0.7      c0.2-0.1,0.5,0,0.7,0.2c0.4,0.9,1.3,1.7,2.2,2.2c0.3,0.1,0.4,0.4,0.3,0.7C173,381.6,172.9,381.7,172.7,381.7z" id="XMLID_4413_"/></g><g id="XMLID_750_"><path class="st0" d="M176.2,381c-0.1,0-0.2,0-0.3-0.1c-1.2-1-2.3-2.1-3.1-3.5c-0.1-0.2-0.1-0.5,0.2-0.7      c0.2-0.1,0.5-0.1,0.7,0.2c0.8,1.2,1.7,2.3,2.9,3.2c0.2,0.2,0.3,0.5,0.1,0.7C176.5,380.9,176.3,381,176.2,381z" id="XMLID_4412_"/></g><g id="XMLID_751_"><path class="st0" d="M178.2,379.8c-0.1,0-0.3-0.1-0.4-0.2c-1-1.1-1.8-2.4-2.4-3.8c-0.1-0.3,0-0.5,0.3-0.7      c0.3-0.1,0.5,0,0.7,0.3c0.5,1.3,1.3,2.5,2.2,3.5c0.2,0.2,0.2,0.5,0,0.7C178.4,379.8,178.3,379.8,178.2,379.8z" id="XMLID_4411_"/></g><g id="XMLID_752_"><path class="st0" d="M180.3,378.2c-0.1,0-0.3,0-0.3-0.1c-1-0.9-1.7-2.1-2.1-3.4c-0.1-0.3,0.1-0.5,0.3-0.6      c0.3-0.1,0.5,0.1,0.6,0.3c0.4,1.1,1,2.2,1.8,3c0.2,0.2,0.2,0.5,0,0.7C180.6,378.1,180.5,378.2,180.3,378.2z" id="XMLID_4410_"/></g><g id="XMLID_754_"><path class="st0" d="M180.8,376.2c-0.2,0-0.3-0.1-0.4-0.3l-1.7-3c-0.1-0.2,0-0.5,0.2-0.7      c0.2-0.1,0.5,0,0.7,0.2l1.7,3c0.1,0.2,0,0.5-0.2,0.7C181,376.1,180.9,376.2,180.8,376.2z" id="XMLID_4409_"/></g><g id="XMLID_755_"><path class="st0" d="M182.7,375c-0.1,0-0.3-0.1-0.4-0.2c-0.8-1-1.4-2.1-1.8-3.4c-0.1-0.3,0.1-0.5,0.4-0.6      c0.3-0.1,0.5,0.1,0.6,0.4c0.3,1.1,0.8,2.1,1.6,3c0.2,0.2,0.2,0.5-0.1,0.7C182.9,375,182.8,375,182.7,375z" id="XMLID_4408_"/></g><g id="XMLID_756_"><path class="st0" d="M184,373.7c-0.1,0-0.3,0-0.4-0.1c-0.8-0.8-1.4-1.8-1.8-2.9c-0.1-0.3,0.1-0.5,0.3-0.6      c0.3-0.1,0.5,0.1,0.6,0.3c0.3,0.9,0.8,1.8,1.5,2.5c0.2,0.2,0.2,0.5,0,0.7C184.3,373.6,184.1,373.7,184,373.7z" id="XMLID_4407_"/></g><g id="XMLID_757_"><path class="st0" d="M186,372.8c-0.2,0-0.3-0.1-0.4-0.2c-0.6-1-1.2-2.1-1.7-3.3c-0.1-0.3,0-0.5,0.3-0.7      c0.3-0.1,0.5,0,0.7,0.3c0.4,1.1,1,2.1,1.6,3.1c0.1,0.2,0.1,0.5-0.2,0.7C186.2,372.8,186.1,372.8,186,372.8z" id="XMLID_4406_"/></g><g id="XMLID_758_"><path class="st0" d="M189.5,370.9c-0.1,0-0.2,0-0.3-0.1c-1.2-0.8-2-2.1-2.2-3.6c0-0.3,0.2-0.5,0.4-0.5      c0.3,0,0.5,0.2,0.5,0.4c0.1,1.1,0.8,2.2,1.7,2.8c0.2,0.2,0.3,0.5,0.1,0.7C189.8,370.8,189.7,370.9,189.5,370.9z" id="XMLID_4405_"/></g><g id="XMLID_759_"><path class="st0" d="M192.7,370c-0.1,0-0.2,0-0.3-0.1c-1.2-0.9-2.1-2.1-2.8-3.4c-0.1-0.2,0-0.5,0.2-0.7      c0.2-0.1,0.5,0,0.7,0.2c0.6,1.2,1.4,2.2,2.5,3c0.2,0.2,0.3,0.5,0.1,0.7C193,370,192.8,370,192.7,370z" id="XMLID_4404_"/></g><g id="XMLID_761_"><path class="st0" d="M194.8,369.3c-0.1,0-0.3-0.1-0.4-0.2c-1-1.1-1.6-2.5-1.8-4c0-0.3,0.2-0.5,0.4-0.5      c0.3,0,0.5,0.2,0.5,0.4c0.1,1.3,0.7,2.5,1.5,3.4c0.2,0.2,0.2,0.5,0,0.7C195.1,369.3,195,369.3,194.8,369.3z" id="XMLID_4403_"/></g><g id="XMLID_762_"><path class="st0" d="M198.1,369.4c-0.1,0-0.2,0-0.3-0.1c-1.4-1.2-2.3-2.8-2.7-4.6c-0.1-0.3,0.1-0.5,0.4-0.6      c0.3-0.1,0.5,0.1,0.6,0.4c0.3,1.5,1.1,3,2.3,4c0.2,0.2,0.2,0.5,0.1,0.7C198.4,369.4,198.3,369.4,198.1,369.4z" id="XMLID_4402_"/></g><g id="XMLID_763_"><path class="st0" d="M200.9,367c-0.2,0-0.3-0.1-0.4-0.3l-1.8-3.2c-0.1-0.2-0.1-0.5,0.2-0.7      c0.2-0.1,0.5-0.1,0.7,0.2l1.8,3.2c0.1,0.2,0.1,0.5-0.2,0.7C201,367,200.9,367,200.9,367z" id="XMLID_4401_"/></g><g id="XMLID_764_"><path class="st0" d="M204.5,365c-0.1,0-0.2,0-0.3-0.1c-1.1-0.7-2-1.9-2.4-3.1c-0.1-0.3,0.1-0.5,0.3-0.6      c0.3-0.1,0.5,0.1,0.6,0.3c0.3,1,1,2,1.9,2.6c0.2,0.1,0.3,0.5,0.2,0.7C204.8,364.9,204.7,365,204.5,365z" id="XMLID_4400_"/></g><g id="XMLID_765_"><path class="st0" d="M207.3,364c-0.1,0-0.2,0-0.3-0.1c-1.1-0.8-1.9-1.9-2.4-3.1c-0.1-0.3,0-0.5,0.3-0.7      c0.3-0.1,0.5,0,0.7,0.3c0.5,1.1,1.2,2,2.1,2.7c0.2,0.2,0.3,0.5,0.1,0.7C207.6,364,207.5,364,207.3,364z" id="XMLID_4399_"/></g><g id="XMLID_766_"><path class="st0" d="M209.8,363.5c-0.1,0-0.2,0-0.3-0.1c-1-0.8-1.7-1.9-2-3.2c-0.1-0.3,0.1-0.5,0.4-0.6      c0.3-0.1,0.5,0.1,0.6,0.4c0.2,1,0.8,1.9,1.6,2.6c0.2,0.2,0.2,0.5,0.1,0.7C210.1,363.5,210,363.5,209.8,363.5z" id="XMLID_4398_"/></g><g id="XMLID_768_"><path class="st0" d="M212.7,362.7c-0.1,0-0.3-0.1-0.4-0.2c-1-1.2-1.5-2.7-1.6-4.2c0-0.3,0.2-0.5,0.5-0.5      c0,0,0,0,0,0c0.3,0,0.5,0.2,0.5,0.5c0,1.3,0.5,2.6,1.3,3.5c0.2,0.2,0.2,0.5-0.1,0.7C212.9,362.6,212.8,362.7,212.7,362.7z" id="XMLID_4397_"/></g><g id="XMLID_769_"><path class="st0" d="M216.4,363c-0.2,0-0.4-0.1-0.5-0.3l-2-5.3c-0.1-0.3,0-0.5,0.3-0.6c0.3-0.1,0.5,0,0.6,0.3      l2,5.3c0.1,0.3,0,0.5-0.3,0.6C216.5,363,216.4,363,216.4,363z" id="XMLID_4396_"/></g><g id="XMLID_770_"><path class="st0" d="M219.7,358.6c-0.1,0-0.2,0-0.3-0.1c-0.8-0.5-1.3-1.4-1.4-2.3c0-0.3,0.1-0.5,0.4-0.6      c0.3,0,0.5,0.1,0.6,0.4c0.1,0.6,0.5,1.3,1,1.6c0.2,0.2,0.3,0.5,0.1,0.7C220,358.6,219.9,358.6,219.7,358.6z" id="XMLID_4395_"/></g><g id="XMLID_771_"><path class="st0" d="M222.7,357.9c-0.1,0-0.2,0-0.3-0.1c-0.8-0.5-1.4-1.4-1.7-2.3c-0.1-0.3,0.1-0.5,0.4-0.6      c0.3-0.1,0.5,0.1,0.6,0.4c0.2,0.7,0.6,1.3,1.3,1.7c0.2,0.2,0.3,0.5,0.1,0.7C223,357.8,222.8,357.9,222.7,357.9z" id="XMLID_4394_"/></g><g id="XMLID_772_"><path class="st0" d="M225.5,358.9c-0.1,0-0.3-0.1-0.4-0.2c-0.9-1-1.5-2.3-1.9-3.6c-0.1-0.3,0.1-0.5,0.4-0.6      c0.3-0.1,0.5,0.1,0.6,0.4c0.3,1.2,0.9,2.3,1.7,3.2c0.2,0.2,0.1,0.5-0.1,0.7C225.7,358.8,225.6,358.9,225.5,358.9z" id="XMLID_4393_"/></g><g id="XMLID_773_"><path class="st0" d="M229.3,357.9c-0.2,0-0.4-0.1-0.5-0.3c-0.4-1-0.7-2-0.8-3c0-0.3,0.2-0.5,0.5-0.5      c0.3,0,0.5,0.2,0.5,0.5c0.1,0.9,0.3,1.9,0.7,2.7c0.1,0.3,0,0.5-0.3,0.7C229.4,357.9,229.3,357.9,229.3,357.9z" id="XMLID_4392_"/></g><g id="XMLID_775_"><path class="st0" d="M234.2,359.3c-0.2,0-0.5-0.2-0.5-0.4c-0.3-2-0.4-4-0.3-5.9c0-0.3,0.3-0.5,0.5-0.5      c0.3,0,0.5,0.2,0.5,0.5c0,1.9,0.1,3.9,0.3,5.8C234.8,359,234.6,359.3,234.2,359.3C234.3,359.3,234.2,359.3,234.2,359.3z" id="XMLID_4391_"/></g><g id="XMLID_776_"><path class="st0" d="M238.5,358.7c-0.2,0-0.5-0.2-0.5-0.4c-0.3-1.8-0.5-3.6-0.5-5.4c0-0.3,0.2-0.5,0.5-0.5      c0.3,0,0.5,0.2,0.5,0.5c0,1.8,0.2,3.5,0.5,5.3C239.1,358.3,238.9,358.6,238.5,358.7C238.6,358.7,238.5,358.7,238.5,358.7z" id="XMLID_4390_"/></g><g id="XMLID_777_"><path class="st0" d="M242.5,354c-0.2,0-0.4-0.1-0.5-0.4c-0.4-1.1-0.5-2.4-0.3-3.6c0-0.3,0.3-0.5,0.6-0.4      c0.3,0,0.5,0.3,0.4,0.6c-0.1,1-0.1,2.1,0.3,3.1c0.1,0.3-0.1,0.5-0.3,0.6C242.6,354,242.5,354,242.5,354z" id="XMLID_4389_"/></g><g id="XMLID_778_"><path class="st0" d="M245.4,354.1c-0.3,0-0.5-0.1-0.7-0.3c-0.4-0.3-0.6-0.9-0.6-1.4c0-0.2,0-0.4,0-0.5      c0-0.4,0.1-0.7,0-0.9c-0.1-0.2,0-0.5,0.2-0.7c0.2-0.1,0.5,0,0.7,0.2c0.2,0.5,0.2,1,0.1,1.5c0,0.2,0,0.3,0,0.5      c0,0.2,0.1,0.5,0.2,0.6c0.1,0,0.1,0,0.1,0c0.3,0,0.5,0.1,0.6,0.4c0,0.3-0.1,0.5-0.4,0.6C245.6,354.1,245.5,354.1,245.4,354.1z" id="XMLID_4388_"/></g><g id="XMLID_779_"><path class="st0" d="M248.9,354.7c-0.2,0-0.4-0.1-0.5-0.3c-0.5-1.3-0.7-2.8-0.3-4.2c0.1-0.3,0.3-0.4,0.6-0.4      c0.3,0.1,0.4,0.3,0.4,0.6c-0.3,1.2-0.2,2.4,0.3,3.6c0.1,0.3,0,0.5-0.3,0.7C249,354.7,249,354.7,248.9,354.7z" id="XMLID_4387_"/></g><g id="XMLID_780_"><path class="st0" d="M253.3,354.7c-0.2,0-0.5-0.2-0.5-0.4l-0.5-3.8c0-0.3,0.2-0.5,0.4-0.6      c0.3,0,0.5,0.2,0.6,0.4l0.5,3.8C253.9,354.4,253.7,354.6,253.3,354.7C253.4,354.7,253.4,354.7,253.3,354.7z" id="XMLID_4386_"/></g><g id="XMLID_782_"><path class="st0" d="M257.6,354.2c-0.2,0-0.5-0.2-0.5-0.4c-0.1-1-0.2-1.9-0.2-2.9c0-0.3,0.2-0.5,0.5-0.5      c0.3,0,0.5,0.2,0.5,0.5c0,0.9,0.1,1.9,0.2,2.8C258.1,353.9,257.9,354.1,257.6,354.2C257.6,354.2,257.6,354.2,257.6,354.2z" id="XMLID_4385_"/></g><g id="XMLID_783_"><path class="st0" d="M261.3,352.8c-0.2,0-0.4-0.1-0.5-0.3l-0.5-1.5c-0.1-0.3,0.1-0.5,0.3-0.6      c0.3-0.1,0.5,0.1,0.6,0.3l0.5,1.5c0.1,0.3-0.1,0.5-0.3,0.6C261.4,352.8,261.4,352.8,261.3,352.8z" id="XMLID_4384_"/></g><g id="XMLID_784_"><path class="st0" d="M265.7,355.3C265.7,355.3,265.7,355.3,265.7,355.3c-0.3,0-0.5-0.3-0.5-0.5l0.3-3.3      c0-0.3,0.3-0.5,0.5-0.4c0.3,0,0.5,0.3,0.4,0.5l-0.3,3.3C266.2,355.1,266,355.3,265.7,355.3z" id="XMLID_4383_"/></g><g id="XMLID_785_"><path class="st0" d="M160,390.8c-0.1,0-0.2,0-0.3-0.1l-2.4-2.1c-0.2-0.2-0.2-0.5,0-0.7c0.2-0.2,0.5-0.2,0.7,0      l2.4,2.1c0.2,0.2,0.2,0.5,0,0.7C160.3,390.8,160.2,390.8,160,390.8z" id="XMLID_4382_"/></g><g id="XMLID_786_"><path class="st0" d="M158.4,392.7c-0.1,0-0.2,0-0.3-0.1c-1.1-0.7-2.1-1.7-2.7-2.9c-0.1-0.2,0-0.5,0.2-0.7      c0.2-0.1,0.5,0,0.7,0.2c0.5,1,1.3,1.9,2.3,2.5c0.2,0.1,0.3,0.4,0.2,0.7C158.7,392.6,158.5,392.7,158.4,392.7z" id="XMLID_4381_"/></g><g id="XMLID_787_"><path class="st0" d="M156,394.6c-0.1,0-0.2,0-0.3-0.1c-0.8-0.6-1.5-1.4-2-2.2c-0.2-0.2-0.1-0.5,0.1-0.7      c0.2-0.2,0.5-0.1,0.7,0.1c0.5,0.7,1.1,1.4,1.8,2c0.2,0.2,0.3,0.5,0.1,0.7C156.3,394.5,156.1,394.6,156,394.6z" id="XMLID_4380_"/></g><g id="XMLID_789_"><path class="st0" d="M153.5,396.5c-0.1,0-0.3-0.1-0.4-0.2l-1.3-1.7c-0.2-0.2-0.1-0.5,0.1-0.7      c0.2-0.2,0.5-0.1,0.7,0.1l1.3,1.7c0.2,0.2,0.1,0.5-0.1,0.7C153.7,396.5,153.6,396.5,153.5,396.5z" id="XMLID_4379_"/></g><g id="XMLID_790_"><path class="st0" d="M151.9,398.5c-0.2,0-0.3-0.1-0.4-0.2l-0.8-1.3c-0.1-0.2-0.1-0.5,0.2-0.7      c0.2-0.1,0.5-0.1,0.7,0.2l0.8,1.3c0.1,0.2,0.1,0.5-0.2,0.7C152,398.5,152,398.5,151.9,398.5z" id="XMLID_4378_"/></g><g id="XMLID_791_"><path class="st0" d="M148.4,401.2c-0.2,0-0.4-0.2-0.5-0.4l-0.5-2c-0.1-0.3,0.1-0.5,0.4-0.6      c0.3-0.1,0.5,0.1,0.6,0.4l0.5,2c0.1,0.3-0.1,0.5-0.4,0.6C148.4,401.2,148.4,401.2,148.4,401.2z" id="XMLID_4377_"/></g><g id="XMLID_792_"><path class="st0" d="M269.2,354.8C269.2,354.8,269.2,354.8,269.2,354.8c-0.3,0-0.5-0.2-0.5-0.5l0-3      c0-0.2,0-0.9,0.5-1.3c0.2-0.2,0.4-0.3,0.7-0.2c0.3,0,0.5,0.3,0.4,0.5c0,0.3-0.3,0.5-0.5,0.4c0,0-0.1,0.2-0.1,0.5l0,3      C269.7,354.6,269.5,354.8,269.2,354.8z" id="XMLID_4376_"/></g><g id="XMLID_793_"><path class="st0" d="M271.5,354C271.5,354,271.5,354,271.5,354c-0.4-0.1-0.5-0.3-0.5-0.6      c0.2-1.2,0.8-2.3,1.6-3.3c0.2-0.2,0.5-0.2,0.7,0c0.2,0.2,0.2,0.5,0,0.7c-0.7,0.8-1.2,1.8-1.4,2.8C272,353.8,271.8,354,271.5,354      z" id="XMLID_4375_"/></g><g id="XMLID_794_"><path class="st0" d="M274.4,353.5c-0.1,0-0.2,0-0.2-0.1c-0.2-0.1-0.3-0.4-0.2-0.7l1.5-3      c0.1-0.2,0.4-0.3,0.7-0.2c0.2,0.1,0.3,0.4,0.2,0.7l-1.5,3C274.7,353.4,274.5,353.5,274.4,353.5z" id="XMLID_4374_"/></g><g id="XMLID_796_"><path class="st0" d="M277.2,354c-0.1,0-0.2,0-0.3-0.1c-0.2-0.2-0.3-0.5-0.1-0.7l1.3-2c0.2-0.2,0.5-0.3,0.7-0.1      c0.2,0.2,0.3,0.5,0.1,0.7l-1.3,2C277.5,353.9,277.4,354,277.2,354z" id="XMLID_4373_"/></g><g id="XMLID_797_"><path class="st0" d="M279.7,355c-0.1,0-0.2,0-0.3-0.1c-0.2-0.2-0.2-0.5-0.1-0.7l2.6-3c0.2-0.2,0.5-0.2,0.7-0.1      c0.2,0.2,0.2,0.5,0.1,0.7l-2.6,3C280,354.9,279.8,355,279.7,355z" id="XMLID_4372_"/></g><g id="XMLID_798_"><path class="st0" d="M283.4,354.7c-0.1,0-0.3,0-0.4-0.1c-0.2-0.2-0.2-0.5,0-0.7l2.5-2.5c0.2-0.2,0.5-0.2,0.7,0      s0.2,0.5,0,0.7l-2.5,2.5C283.6,354.6,283.5,354.7,283.4,354.7z" id="XMLID_4371_"/></g><g id="XMLID_799_"><path class="st0" d="M287.5,355.9c-0.1,0-0.2,0-0.2-0.1c-0.2-0.1-0.3-0.4-0.2-0.7c0.7-1.3,2-2.3,3.4-2.7      c0.3-0.1,0.5,0.1,0.6,0.4c0.1,0.3-0.1,0.5-0.4,0.6c-1.2,0.3-2.2,1.1-2.8,2.2C287.8,355.9,287.6,355.9,287.5,355.9z" id="XMLID_4370_"/></g><g id="XMLID_800_"><path class="st0" d="M292,356.5c-0.1,0-0.3-0.1-0.4-0.2c-0.2-0.2-0.2-0.5,0-0.7c1-1,2.2-1.7,3.5-2.3      c0.3-0.1,0.5,0,0.7,0.3c0.1,0.3,0,0.5-0.3,0.7c-1.2,0.5-2.2,1.2-3.2,2.1C292.3,356.4,292.2,356.5,292,356.5z" id="XMLID_4369_"/></g><g id="XMLID_801_"><path class="st0" d="M295.5,357.7c-0.1,0-0.3-0.1-0.4-0.2c-0.2-0.2-0.2-0.5,0-0.7c1.3-1.2,2.7-2,4.3-2.7      c0.3-0.1,0.5,0,0.6,0.3c0.1,0.3,0,0.5-0.3,0.6c-1.5,0.6-2.8,1.4-4,2.5C295.8,357.6,295.7,357.7,295.5,357.7z" id="XMLID_4368_"/></g><g id="XMLID_803_"><path class="st0" d="M300.2,358.2c-0.2,0-0.4-0.1-0.5-0.3c-0.1-0.3,0-0.5,0.3-0.6l3.7-1.3      c0.3-0.1,0.5,0,0.6,0.3c0.1,0.3,0,0.5-0.3,0.6l-3.7,1.3C300.3,358.2,300.3,358.2,300.2,358.2z" id="XMLID_4367_"/></g><g id="XMLID_804_"><path class="st0" d="M146.4,399.8c-0.3,0-0.5-0.2-0.5-0.4c0-0.3,0.2-0.5,0.4-0.5c1.8-0.2,3.7-0.6,5.4-1.2      c0.3-0.1,0.5,0,0.6,0.3c0.1,0.3,0,0.5-0.3,0.6C150.2,399.2,148.3,399.6,146.4,399.8C146.4,399.8,146.4,399.8,146.4,399.8z" id="XMLID_4366_"/></g><g id="XMLID_805_"><path class="st0" d="M152.3,396c-1.1,0-2.1-0.1-3.2-0.2c-0.3,0-0.5-0.3-0.4-0.6c0-0.3,0.3-0.5,0.6-0.4      c1.7,0.2,3.4,0.2,5.1,0.1c0.3,0,0.5,0.2,0.5,0.5c0,0.3-0.2,0.5-0.5,0.5C153.7,396,153,396,152.3,396z" id="XMLID_4365_"/></g><g id="XMLID_806_"><path class="st0" d="M156.9,393.5C156.9,393.5,156.8,393.5,156.9,393.5c-1.4-0.1-2.8-0.1-4.1,0      c-0.3,0-0.5-0.2-0.5-0.5c0-0.3,0.2-0.5,0.5-0.5c1.4-0.1,2.8-0.1,4.2,0c0.3,0,0.5,0.3,0.5,0.5      C157.3,393.3,157.1,393.5,156.9,393.5z" id="XMLID_4364_"/></g><g id="XMLID_807_"><path class="st0" d="M157.5,391.9c-0.6,0-1.1,0-1.7-0.1c-0.3,0-0.5-0.3-0.5-0.5c0-0.3,0.3-0.5,0.5-0.5      c1.6,0.2,3.3,0.1,4.9-0.2c0.3-0.1,0.5,0.1,0.6,0.4c0.1,0.3-0.1,0.5-0.4,0.6C159.8,391.8,158.7,391.9,157.5,391.9z" id="XMLID_4363_"/></g><g id="XMLID_808_"><path class="st0" d="M159,389.3c-0.2,0-0.5-0.2-0.5-0.4c0-0.3,0.1-0.5,0.4-0.6c1.1-0.2,2.2-0.2,3.3-0.2      c0.3,0,0.5,0.3,0.5,0.5c0,0.3-0.3,0.5-0.5,0.5C161.1,389.1,160.1,389.1,159,389.3C159.1,389.3,159.1,389.3,159,389.3z" id="XMLID_4362_"/></g><g id="XMLID_810_"><path class="st0" d="M160.7,387.3c-0.3,0-0.5-0.2-0.5-0.5c0-0.3,0.2-0.5,0.5-0.5l3.7,0c0.3,0,0.5,0.2,0.5,0.5      c0,0.3-0.2,0.5-0.5,0.5L160.7,387.3C160.7,387.3,160.7,387.3,160.7,387.3z" id="XMLID_4361_"/></g><g id="XMLID_811_"><path class="st0" d="M167.7,384.3C167.7,384.3,167.7,384.3,167.7,384.3l-4-0.2c-0.3,0-0.5-0.2-0.5-0.5      c0-0.3,0.2-0.5,0.5-0.5l4,0.2c0.3,0,0.5,0.2,0.5,0.5C168.2,384.1,168,384.3,167.7,384.3z" id="XMLID_4360_"/></g><g id="XMLID_812_"><path class="st0" d="M171.3,381.9c-1.5,0-3.1-0.1-4.6-0.4c-0.3,0-0.5-0.3-0.4-0.6c0-0.3,0.3-0.5,0.6-0.4      c1.9,0.3,3.9,0.4,5.9,0.3c0.3,0,0.5,0.2,0.5,0.5c0,0.3-0.2,0.5-0.5,0.5C172.4,381.8,171.9,381.9,171.3,381.9z" id="XMLID_4359_"/></g><g id="XMLID_813_"><path class="st0" d="M175,380.2c-1.3,0-2.7-0.2-4-0.6c-0.3-0.1-0.4-0.4-0.3-0.6c0.1-0.3,0.4-0.4,0.6-0.3      c1.7,0.5,3.4,0.6,5.1,0.4c0.3,0,0.5,0.2,0.6,0.4s-0.2,0.5-0.4,0.6C176.1,380.1,175.6,380.2,175,380.2z" id="XMLID_4358_"/></g><g id="XMLID_814_"><path class="st0" d="M177.6,378.3c-1,0-2.1-0.3-3-0.8c-0.2-0.1-0.3-0.4-0.2-0.7c0.1-0.2,0.4-0.3,0.7-0.2      c0.8,0.5,1.8,0.7,2.7,0.6c0,0,0,0,0,0c0.3,0,0.5,0.2,0.5,0.5c0,0.3-0.2,0.5-0.5,0.5C177.8,378.3,177.7,378.3,177.6,378.3z" id="XMLID_4357_"/></g><g id="XMLID_815_"><path class="st0" d="M181.4,375.5h-4.7c-0.3,0-0.5-0.2-0.5-0.5s0.2-0.5,0.5-0.5h4.7c0.3,0,0.5,0.2,0.5,0.5      S181.6,375.5,181.4,375.5z" id="XMLID_4356_"/></g><g id="XMLID_817_"><path class="st0" d="M184.5,372c-0.9,0-1.9-0.1-2.8-0.4c-0.3-0.1-0.4-0.3-0.4-0.6c0.1-0.3,0.3-0.4,0.6-0.4      c1.8,0.5,3.8,0.4,5.6-0.1c0.3-0.1,0.5,0.1,0.6,0.3c0.1,0.3-0.1,0.5-0.3,0.6C186.8,371.8,185.7,372,184.5,372z" id="XMLID_4355_"/></g><g id="XMLID_818_"><path class="st0" d="M190.5,370.5C190.5,370.5,190.5,370.5,190.5,370.5c-1.5-0.1-3-0.5-4.4-1      c-0.3-0.1-0.4-0.4-0.3-0.7c0.1-0.3,0.4-0.4,0.7-0.3c1.3,0.5,2.6,0.9,4,1c0.3,0,0.5,0.3,0.5,0.5      C191,370.3,190.8,370.5,190.5,370.5z" id="XMLID_4354_"/></g><g id="XMLID_819_"><path class="st0" d="M196.5,368.5C196.5,368.5,196.5,368.5,196.5,368.5l-6.4-0.3c-0.3,0-0.5-0.3-0.5-0.5      c0-0.3,0.2-0.5,0.5-0.5l6.3,0.3c0.3,0,0.5,0.3,0.5,0.5C197,368.3,196.8,368.5,196.5,368.5z" id="XMLID_4353_"/></g><g id="XMLID_820_"><path class="st0" d="M200,366.3C200,366.3,200,366.3,200,366.3c-1.6,0-3.1-0.2-4.6-0.5      c-0.3-0.1-0.4-0.3-0.4-0.6c0.1-0.3,0.3-0.4,0.6-0.4c1.4,0.3,2.9,0.5,4.4,0.5c0.3,0,0.5,0.2,0.5,0.5      C200.5,366.1,200.3,366.3,200,366.3z" id="XMLID_4352_"/></g><g id="XMLID_821_"><path class="st0" d="M203.2,364.3C203.2,364.3,203.2,364.3,203.2,364.3c-1.7,0-3.4-0.2-5.1-0.5      c-0.3-0.1-0.4-0.3-0.4-0.6c0.1-0.3,0.3-0.4,0.6-0.4c1.6,0.3,3.3,0.5,4.9,0.5c0.3,0,0.5,0.2,0.5,0.5      C203.7,364.1,203.5,364.3,203.2,364.3z" id="XMLID_4351_"/></g><g id="XMLID_822_"><path class="st0" d="M207.9,362.7c-2.1,0-4.2-0.4-6.1-1.3c-0.3-0.1-0.4-0.4-0.2-0.7c0.1-0.3,0.4-0.4,0.7-0.2      c2.6,1.2,5.6,1.5,8.4,0.9c0.3-0.1,0.5,0.1,0.6,0.4c0.1,0.3-0.1,0.5-0.4,0.6C209.9,362.6,208.9,362.7,207.9,362.7z" id="XMLID_4350_"/></g><g id="XMLID_824_"><path class="st0" d="M218.2,359.8C218.2,359.8,218.2,359.8,218.2,359.8c-2.3-0.1-4.6-0.4-6.8-1      c-0.3-0.1-0.4-0.4-0.3-0.6c0.1-0.3,0.3-0.4,0.6-0.3c2.1,0.6,4.3,0.9,6.5,1c0.3,0,0.5,0.2,0.5,0.5      C218.7,359.6,218.5,359.8,218.2,359.8z" id="XMLID_4349_"/></g><g id="XMLID_825_"><path class="st0" d="M224.2,357.9C224.2,357.9,224.2,357.9,224.2,357.9c-2-0.2-4-0.5-6-1.1      c-0.3-0.1-0.4-0.3-0.3-0.6s0.3-0.4,0.6-0.3c1.9,0.5,3.8,0.9,5.7,1c0.3,0,0.5,0.3,0.5,0.5C224.7,357.7,224.5,357.9,224.2,357.9z" id="XMLID_4348_"/></g><g id="XMLID_826_"><path class="st0" d="M229.9,355.8C229.8,355.8,229.8,355.8,229.9,355.8c-1.7-0.1-3.3-0.5-4.8-1      c-0.3-0.1-0.4-0.4-0.3-0.6c0.1-0.3,0.4-0.4,0.6-0.3c1.5,0.5,3,0.9,4.5,1c0.3,0,0.5,0.3,0.5,0.5      C230.3,355.6,230.1,355.8,229.9,355.8z" id="XMLID_4347_"/></g><g id="XMLID_827_"><path class="st0" d="M236,354.2C236,354.2,236,354.2,236,354.2c-1.4-0.2-2.7-0.6-4-1.1      c-0.3-0.1-0.4-0.4-0.3-0.6c0.1-0.3,0.4-0.4,0.6-0.3c1.2,0.5,2.5,0.8,3.7,1c0.3,0,0.5,0.3,0.4,0.6      C236.5,354,236.3,354.2,236,354.2z" id="XMLID_4346_"/></g><g id="XMLID_828_"><path class="st0" d="M243.7,355.2c0,0-0.1,0-0.1,0c-1.5-0.4-2.9-0.9-4.2-1.6c-0.2-0.1-0.3-0.4-0.2-0.7      c0.1-0.2,0.4-0.3,0.7-0.2c1.3,0.6,2.7,1.2,4.1,1.5c0.3,0.1,0.4,0.3,0.4,0.6C244.1,355.1,243.9,355.2,243.7,355.2z" id="XMLID_4345_"/></g></g><g id="XMLID_1138_"><path class="st0" d="M450.5,344.3c-0.3,0-0.5-0.2-0.5-0.5l-2.1-85c0-0.3,0.2-0.5,0.5-0.5c0,0,0,0,0,0     c0.3,0,0.5,0.2,0.5,0.5l2.1,85C451,344.1,450.8,344.3,450.5,344.3C450.5,344.3,450.5,344.3,450.5,344.3z" id="XMLID_4342_"/></g><g id="XMLID_1672_"><path class="st0" d="M411.1,334.7c-0.1,0-0.2,0-0.2-0.1c-0.2-0.1-0.3-0.4-0.2-0.7c8.3-15.4,12.3-32.7,11.6-50.1     c0-0.3,0.2-0.5,0.5-0.5c0,0,0,0,0,0c0.3,0,0.5,0.2,0.5,0.5c0.7,17.6-3.4,35.1-11.8,50.6C411.4,334.6,411.2,334.7,411.1,334.7z" id="XMLID_4341_"/></g></g><g id="XMLID_358_"><path class="st1" d="M256,508.5c-5.8,0-11.6-0.2-17.4-0.6c-12-0.9-24.1-2.6-35.8-5.2    c-23.8-5.3-46.8-14-68.4-25.9C91.6,453,56.9,418.1,34,375.7C-17,281.2-5,171.9,65.4,90.6c33.3-38.5,77.7-65.8,128.2-78.8    c50.5-13,102.4-10.7,150.1,6.9c86.1,31.7,150.1,110.8,162.9,201.5c1.7,11.9,2.6,23.9,2.6,35.6l0,0c0.2,41.7-9.9,81.9-30.1,119.5    C435.4,456.5,347.4,508.5,256,508.5z M258.9,9.8c-71,0-141.8,30.3-188.9,84.7c-68.7,79.4-80.4,186-30.6,278.3    c22.3,41.4,56.2,75.4,98,98.6c21,11.6,43.5,20.2,66.8,25.3c11.5,2.5,23.3,4.3,35,5.1c5.7,0.4,11.3,0.6,17,0.6    c89.2,0,175.2-50.7,217.8-129.9c19.8-36.7,29.7-76,29.4-116.6l0,0c-0.1-11.4-0.9-23.1-2.6-34.8c-12.5-88.6-74.9-165.8-159-196.7    C315,14.5,286.9,9.8,258.9,9.8z" id="XMLID_4650_"/></g><g id="XMLID_364_"><g id="XMLID_361_"><path class="st1" d="M171.8,302.8c-6.5,0-13.2-1.4-19.8-4.2c-22.5-9.6-33.8-38.5-32.8-83.8     c0.7-30.1,6.2-56.3,16.3-77.9c3.6-7.6,11-17.4,16.1-22.5l0,0c8.6-8.7,20.4-12.3,32.2-10c13.2,2.6,24.5,12.3,30.2,25.8     c12.3,29.5,9.3,71.6,7.1,102.4c-2,27.2-8.5,46.6-19.4,57.8C193.7,298.6,183.1,302.8,171.8,302.8z M155.8,118.7     c-5.3,5.3-12,14.7-14.9,20.8c-9.8,20.9-15.1,46.2-15.8,75.5c-0.7,29.7,3.9,67.4,29.2,78.1c12.4,5.3,30.3,6.3,43.1-6.8     c9.7-10,15.8-28.7,17.7-54c2.2-30.2,5.1-71.4-6.7-99.6c-4.9-11.7-14.6-20-25.8-22.3C172.8,108.5,163,111.5,155.8,118.7     L155.8,118.7z" id="XMLID_4644_"/></g><g id="XMLID_362_"><path class="st1" d="M196.5,270.5c-0.7,0-1.3,0-2-0.1c-13.8-1.2-24.5-9.7-31-24.5c-6.8-15.6-6.7-32.8-6.4-39.5     c0.1-2.2,0.2-4.5,0.2-6.9c0.3-12.9,0.7-27.6,9.9-37.9c5.3-5.9,12.3-9.8,19.8-10.8c11.5-1.6,27.2,4,32.5,15.9     c2.2,5,3.4,10.2,3.7,15.6c0.1,1.7-1.2,3.1-2.8,3.1c-1.6,0.1-3.1-1.2-3.1-2.8c-0.2-4.7-1.3-9.2-3.2-13.5     c-4-9.1-16.7-13.7-26.1-12.4c-6,0.9-12,4.1-16.2,8.9c-7.7,8.6-8,22.1-8.3,34c-0.1,2.5-0.1,4.8-0.2,7.1     c-0.3,6.2-0.4,22.3,5.9,36.8c5.6,12.9,14.3,19.9,26,20.9c7.1,0.6,14-3.3,17-9.7c0.7-1.5,2.5-2.1,4-1.4c1.5,0.7,2.1,2.5,1.4,4     C213.6,265.4,205.3,270.5,196.5,270.5z" id="XMLID_4643_"/></g></g><g id="XMLID_359_"><g id="XMLID_363_"><path class="st1" d="M343.2,295.8c-9.6,0-18.7-3.1-26.3-9.4c-12-9.9-20.6-28.6-25.4-55.4     c-5.5-30.3-13-71.9-3.8-102.5c4.2-14.1,14.4-24.9,27.3-28.9c11.5-3.6,23.6-1.2,33.1,6.5l0,0c5.6,4.6,14,13.5,18.4,20.7     c12.4,20.4,20.7,45.9,24.5,75.7c5.8,44.9-2.4,74.9-23.7,86.8C359.3,293.6,351.1,295.8,343.2,295.8z M325.5,103.9     c-2.9,0-5.9,0.4-8.8,1.3c-11,3.4-19.7,12.7-23.3,24.9c-8.7,29.3-1.4,70,4,99.8c4.5,25,12.6,43,23.3,51.9     c14.1,11.7,31.7,8.8,43.5,2.2c24-13.4,24.5-51.3,20.7-80.8c-3.7-29-11.7-53.7-23.7-73.3c-3.5-5.8-11.2-14.4-17-19.1     C338.7,106.3,332.2,103.9,325.5,103.9z" id="XMLID_4640_"/></g><g id="XMLID_365_"><path class="st1" d="M317.5,266.1c-8,0-15.6-4.1-19.8-11c-0.9-1.4-0.4-3.3,1-4.1c1.4-0.9,3.3-0.4,4.1,1     c3.7,6.1,11,9.2,18,7.9c11.5-2.2,19.4-10.2,23.6-23.6c4.7-15,2.9-31,1.9-37.2c-0.4-2.3-0.7-4.6-1-7c-1.6-11.8-3.3-25.2-11.9-33     c-4.7-4.3-11-6.9-17.1-7.1c-9.4-0.3-21.6,5.6-24.7,15.1c-1.4,4.5-2,9.1-1.7,13.7c0.1,1.7-1.2,3.1-2.8,3.2     c-1.6,0.1-3.1-1.2-3.2-2.8c-0.3-5.4,0.4-10.8,2-15.9c4-12.4,19-19.6,30.6-19.2c7.6,0.3,15,3.3,20.9,8.7     c10.2,9.3,12.1,23.8,13.8,36.6c0.3,2.4,0.6,4.7,1,6.9c3.5,22.2,1.1,61.5-30.3,67.6C320.4,266,319,266.1,317.5,266.1z" id="XMLID_4639_"/></g></g><g id="XMLID_829_"><path class="st1" d="M91.6,164.4c-0.2,0-0.4,0-0.6-0.1c-1.6-0.3-2.7-1.9-2.3-3.6c4.3-20.4,16.6-39.7,34.5-54.4    c15.6-12.8,35.1-22.1,58.1-27.7c1.6-0.4,3.2,0.6,3.6,2.2c0.4,1.6-0.6,3.2-2.2,3.6c-22.2,5.4-40.9,14.4-55.8,26.6    c-16.9,13.8-28.4,32-32.4,51C94.2,163.4,93,164.4,91.6,164.4z" id="XMLID_4344_"/></g><g id="XMLID_831_"><path class="st1" d="M408.3,145.8c-1.1,0-2.2-0.6-2.7-1.7c-9.9-20.6-22.5-37.1-37.5-49.1    c-17-13.6-37.1-21.2-56.6-21.2c-1.7,0-3-1.3-3-3c0-1.7,1.3-3,3-3c0,0,0,0,0,0c20.8,0,42.3,8,60.4,22.5    c15.7,12.6,28.9,29.8,39.1,51.2c0.7,1.5,0.1,3.3-1.4,4C409.1,145.7,408.7,145.8,408.3,145.8z" id="XMLID_4343_"/></g><g id="XMLID_360_"><path class="st1" d="M390.1,430c-1.9,0-3.9-0.5-5.5-1.7l-4.2-2.8c-32.5-21.9-48.8-32.9-78.5-40.7    c-26.3-6.9-52.7-7.4-81-1.6l0,0c-13,2.7-29.5,9.5-42.7,15l-2.8,1.1c-13.7,5.7-25.2,13.2-37.3,21.2c-1.5,1-3,2-4.5,3    c-0.3,0.2-0.6,0.4-0.9,0.6c-0.9,0.5-2.6,1.7-4.8,1.2c-1.6-0.3-2.8-1.4-3.4-2.9c-1-2.4-0.1-5.5,1.3-7.5    c32.9-49.7,94.3-76.8,156.3-68.9c17.6,2.2,38.6,9.7,54.9,19.6c10.5,6.3,21.2,14,32.7,23.5c1.4,1.2,2.9,2.4,4.4,3.6    c8,6.4,17,13.6,22.3,22.8c2.8,4.8,2.7,9.6-0.2,12.3C394.6,429.2,392.3,430,390.1,430z M258.7,373.2c15.1,0,29.9,1.9,44.7,5.8    c30.6,8.1,47.2,19.2,80.3,41.5l4.2,2.8c1.3,0.8,3.3,0.9,4.2,0c0.7-0.7,0.4-2.9-0.9-5c-4.7-8.2-12.9-14.8-20.8-21.1    c-1.5-1.2-3-2.4-4.5-3.6c-11.3-9.3-21.8-16.8-32-23c-15.6-9.4-35.8-16.6-52.6-18.7c-59.8-7.6-118.9,18.5-150.6,66.3    c0,0,0,0.1-0.1,0.1c1.4-0.9,2.8-1.8,4.2-2.7c12.4-8.1,24.1-15.8,38.3-21.7l2.8-1.1c13.5-5.6,30.2-12.6,43.8-15.4l0,0    C233,374.6,246,373.2,258.7,373.2z" id="XMLID_4647_"/></g></g></svg>