<?xml version="1.0" ?><svg height="48px" version="1.1" viewBox="0 0 60 48" width="60px" xmlns="http://www.w3.org/2000/svg" xmlns:xlink="http://www.w3.org/1999/xlink"><title/><desc/><defs/><g fill="none" fill-rule="evenodd" id="Page-1" stroke="none" stroke-width="1"><g id="025---Mince-Pie"><g id="Colour"><path d="M41.93,13.62 C44.29,12.98 46.55,15.36 46.67,15.49 L46.68,15.5 L46.67,15.49 C46.6,15.33 45.88,13.61 48.77,10.95 C51.81,8.15 55.47,10.72 55.47,10.72 C53.09,6.33 57,3.06 57,3.06 C57,3.06 52.13,4.57 49.75,0.17 C49.75,0.17 49.89,4.64 45.9,5.67 C41.91,6.7 40.95,4.95 40.95,4.95 L40.95,4.95 C41.01,5.18 41.89,8.92 39.41,10.34 L41.93,13.62 Z" fill="#D5DF48" fill-rule="nonzero" id="Shape"/><path d="M20.5,10.34 C17.95,8.88 18.96,4.94 18.96,4.94 C18.96,4.94 18,6.7 14.01,5.67 C10.02,4.64 10.16,0.17 10.16,0.17 C7.78,4.57 2.91,3.06 2.91,3.06 C2.91,3.06 6.82,6.33 4.44,10.72 C4.44,10.72 8.1,8.15 11.14,10.95 C14.03,13.61 13.31,15.33 13.24,15.49 L13.23,15.5 L13.24,15.49 C13.36,15.36 15.62,12.98 17.98,13.62 L20.5,10.34 Z" fill="#D5DF48" fill-rule="nonzero" id="Shape"/><circle cx="22.8" cy="14.7" fill="#F85B44" fill-rule="nonzero" id="Oval" r="5"/><circle cx="37.45" cy="14.65" fill="#F85B44" fill-rule="nonzero" id="Oval" r="4.65"/><path d="M55.87,25.3 C55.7897926,25.3549075 55.7159978,25.4186393 55.65,25.49 L52.92,28.42 C52.5871008,28.78532 52.1128224,28.9893229 51.6186677,28.9797463 C51.124513,28.9701697 50.6584948,28.7479439 50.34,28.37 C49.278443,27.214278 47.7781643,26.5606278 46.2089269,26.5701499 C44.6396895,26.579672 43.1474536,27.2514806 42.1,28.42 C41.7650947,28.7854245 41.2892974,28.9892989 40.7937117,28.9797316 C40.2981261,28.9701644 39.830552,28.7480781 39.51,28.37 C38.4484542,27.2142581 36.9481712,26.5605936 35.3789267,26.5701157 C33.8096822,26.5796378 32.3174422,27.2514608 31.27,28.42 C30.935083,28.7854035 30.4592905,28.989263 29.9637124,28.9796958 C29.4681344,28.9701287 29.0005645,28.7480576 28.68,28.37 C27.6311645,27.2205491 26.1460476,26.5669524 24.59,26.57 C23.0073456,26.5722918 21.4996184,27.2444112 20.44,28.42 C20.107089,28.7852988 19.6328154,28.9892866 19.1386684,28.9797101 C18.6445214,28.9701336 18.1785074,28.7479232 17.86,28.37 C16.7984542,27.2142581 15.2981712,26.5605936 13.7289267,26.5701157 C12.1596822,26.5796378 10.6674422,27.2514608 9.62,28.42 C9.29001969,28.7694518 8.83062831,28.9674945 8.35,28.9674945 C7.86937169,28.9674945 7.40998031,28.7694518 7.08,28.42 L4.35,25.49 C4.28400218,25.4186393 4.21020741,25.3549075 4.13,25.3 C7.91,20.57 16.38,17.11 26.52,16.47 L33.48,16.47 C43.62,17.11 52.09,20.57 55.87,25.3 Z" fill="#FFA700" id="Shape"/><path d="M53.22,32.64 L47.52,45.67 C47.2064081,46.401266 46.4856599,46.8738878 45.69,46.87 L15.24,46.87 C14.481056,46.8695973 13.78773,46.4396577 13.45,45.76 L6.9,32.67 L7,30 L53,30 L53.22,32.64 Z" fill="#F88F00" id="Shape"/><path d="M50.32,32.64 L44.62,45.67 C44.3064209,46.4012768 43.5856647,46.8739038 42.79,46.87 L15.24,46.87 C14.481056,46.8695973 13.78773,46.4396577 13.45,45.76 L6.9,32.67 L7,30 L50.1,30 L50.32,32.64 Z" fill="#FFA700" id="Shape"/><path d="M58.48,28.13 L55.75,31.07 C54.6973365,32.2170345 53.2118522,32.8699916 51.655,32.8699916 C50.0981478,32.8699916 48.6126635,32.2170345 47.56,31.07 C47.2394373,30.6919395 46.7718668,30.4698662 46.2762877,30.4602991 C45.7807085,30.4507319 45.3049153,30.6545935 44.97,31.02 C43.9225764,32.1885655 42.4303363,32.8604119 40.8610846,32.8699436 C39.291833,32.8794752 37.7915416,32.2258056 36.73,31.07005 C36.4094553,30.6919654 35.9418853,30.4698699 35.4462996,30.460293 C34.9507139,30.4507162 34.4749124,30.6545816 34.14,31.02 C33.0925693,32.188559 31.6003252,32.8603963 30.0310735,32.8699185 C28.4618219,32.8794406 26.9615346,32.2257619 25.9,31.07 C25.5814926,30.6920768 25.1154786,30.4698664 24.6213316,30.4602899 C24.1271846,30.4507134 23.652911,30.6547012 23.32,31.02 C22.2603756,32.1955805 20.7526522,32.8676981 19.17,32.87 C17.6143776,32.8710193 16.1300439,32.2177673 15.08,31.07 C14.759448,30.6919219 14.2918739,30.4698356 13.7962883,30.4602684 C13.3007026,30.4507011 12.8249053,30.6545755 12.49,31.02 C11.4425693,32.188559 9.95032516,32.8603963 8.38107353,32.8699185 C6.81182191,32.8794406 5.31153462,32.2257619 4.25,31.07 L1.52,28.13 C0.789853632,27.3479041 0.830104267,26.1224959 1.61,25.39 C2.3094803,24.7344717 3.38553802,24.6960411 4.13,25.3 C4.21020741,25.3549075 4.28400218,25.4186393 4.35,25.49 L7.08,28.42 C7.40998031,28.7694518 7.86937169,28.9674945 8.35,28.9674945 C8.83062831,28.9674945 9.29001969,28.7694518 9.62,28.42 C10.6674422,27.2514608 12.1596822,26.5796378 13.7289267,26.5701157 C15.2981712,26.5605936 16.7984542,27.2142581 17.86,28.37 C18.1785074,28.7479232 18.6445214,28.9701336 19.1386684,28.9797101 C19.6328154,28.9892866 20.107089,28.7852988 20.44,28.42 C21.4996184,27.2444112 23.0073456,26.5722918 24.59,26.57 C26.1460476,26.5669524 27.6311645,27.2205491 28.68,28.37 C29.0005645,28.7480576 29.4681344,28.9701287 29.9637124,28.9796958 C30.4592905,28.989263 30.935083,28.7854035 31.27,28.42 C32.3174422,27.2514608 33.8096822,26.5796378 35.3789267,26.5701157 C36.9481712,26.5605936 38.4484542,27.2142581 39.51,28.37 C39.830552,28.7480781 40.2981261,28.9701644 40.7937117,28.9797316 C41.2892974,28.9892989 41.7650947,28.7854245 42.1,28.42 C43.1474536,27.2514806 44.6396895,26.579672 46.2089269,26.5701499 C47.7781643,26.5606278 49.278443,27.214278 50.34,28.37 C50.6584948,28.7479439 51.124513,28.9701697 51.6186677,28.9797463 C52.1128224,28.9893229 52.5871008,28.78532 52.92,28.42 L55.65,25.49 C55.7159978,25.4186393 55.7897926,25.3549075 55.87,25.3 C56.614462,24.6960411 57.6905197,24.7344717 58.39,25.39 C59.1698957,26.1224959 59.2101464,27.3479041 58.48,28.13 Z" fill="#FFC900" fill-rule="nonzero" id="Shape"/><path d="M53.76383,27.3 C49.98383,22.57 40.51383,17.61 30.37383,16.97 L23.41383,16.97 C22.22383,17.04 21.06383,17.16 19.92383,17.31 C22.0650729,16.8798769 24.2336386,16.5991997 26.41383,16.47 L33.37383,16.47 C43.51383,17.11 51.98383,20.57 55.76383,25.3 L53.76383,27.3 Z" fill="#F88F00" id="Shape"/><circle cx="30" cy="12.87" fill="#EF3A76" fill-rule="nonzero" id="Oval" r="5"/></g><g id="Outline" stroke="#000000" stroke-linejoin="round"><path d="M53.22,32.64 L47.52408,45.671 C47.2057452,46.3993124 46.4863434,46.8699946 45.6915,46.87 L15.23607,46.87 C14.4785245,46.8700027 13.7859957,46.4419988 13.44721,45.76443 L6.9,32.67" id="Shape" stroke-linecap="round" stroke-width="2"/><path d="M51.65384,32.87 C50.0956772,32.872184 48.6084341,32.2189584 47.55584,31.07008 C47.2355863,30.6925259 46.7684588,30.4708946 46.2734598,30.4616476 C45.7784608,30.4524005 45.3033815,30.6564304 44.96925,31.02176 C43.9213052,32.1895548 42.4290691,32.8606951 40.8600412,32.8698962 C39.2910133,32.8790974 37.7910087,32.2255042 36.72944,31.07008 C36.4092166,30.6923105 35.9419733,30.4705314 35.4468296,30.4612833 C34.9516859,30.4520352 34.4764867,30.6562118 34.14238,31.02176 C33.0944353,32.1895515 31.6022015,32.8606896 30.0331762,32.8698907 C28.4641509,32.8790918 26.9641485,32.2255009 25.90258,31.07008 C25.5823566,30.6923105 25.1151133,30.4705314 24.6199696,30.4612833 C24.1248259,30.4520352 23.6496267,30.6562118 23.31552,31.02176 C22.2676751,32.1895539 20.7755123,32.8607037 19.2065519,32.869905 C17.6375914,32.8791062 16.1376595,32.2255037 15.07619,31.07008 C14.7558399,30.6925158 14.2886369,30.4708884 13.7935679,30.4616418 C13.2984988,30.4523951 12.8233456,30.6564216 12.48912,31.02176 C11.4411753,32.1895515 9.94894147,32.8606896 8.37991617,32.8698907 C6.81089086,32.8790918 5.31088849,32.2255009 4.24932,31.07008 L1.52024,28.135 C0.78887692,27.3545195 0.828694476,26.1289281 1.609175,25.397565 C2.38965552,24.6662019 3.61524692,24.7060195 4.34661,25.4865 L7.07574,28.42161 C7.40578959,28.7717629 7.86566418,28.9702582 8.34685,28.9702582 C8.82803582,28.9702582 9.28791041,28.7717629 9.61796,28.42161 C10.6658051,27.2538176 12.1579665,26.582668 13.726926,26.5734649 C15.2958854,26.5642617 16.7958175,27.2178604 17.85729,28.37328 C18.1773887,28.7512573 18.6446749,28.9731905 19.1398965,28.9824419 C19.635118,28.9916934 20.1103673,28.787368 20.44436,28.42161 C21.4923032,27.2538172 22.9845363,26.5826773 24.5535616,26.5734742 C26.1225869,26.5642712 27.6225901,27.2178604 28.68416,28.37328 C29.0043819,28.7510508 29.4716244,28.9728318 29.9667681,28.9820818 C30.4619119,28.9913318 30.9371118,28.787157 31.27122,28.42161 C32.3191632,27.2538172 33.8113963,26.5826773 35.3804216,26.5734742 C36.9494469,26.5642712 38.4494501,27.2178604 39.51102,28.37328 C39.8310203,28.7512503 40.2982318,28.9731898 40.7933844,28.9824416 C41.2885371,28.9916935 41.7637133,28.7873624 42.09761,28.42161 C43.1456467,27.2538049 44.6379554,26.5826664 46.2070522,26.5734635 C47.776149,26.5642606 49.2762273,27.2178485 50.33789,28.37328 C50.6579547,28.7511443 51.1251445,28.9730054 51.6202579,28.9822565 C52.1153713,28.9915076 52.5905229,28.787254 52.92448,28.42161 L55.65361,25.4865 C56.1267189,24.981614 56.8332431,24.7674808 57.5070417,24.9247622 C58.1808402,25.0820436 58.7195471,25.5868448 58.9202367,26.2490122 C59.1209263,26.9111796 58.953109,27.6301141 58.48,28.135 L55.75087,31.07011 C54.6985367,32.2187813 53.2116741,32.8719835 51.65384,32.87 Z" id="Shape" stroke-width="2"/><path d="M26.52,16.47 C16.38,17.11 7.91,20.57 4.13,25.3" id="Shape" stroke-linecap="round" stroke-width="2"/><path d="M55.87,25.3 C52.09,20.57 43.62,17.11 33.48,16.47" id="Shape" stroke-linecap="round" stroke-width="2"/><circle cx="30" cy="12.87" id="Oval" r="5" stroke-width="2"/><path d="M26.49,16.44 C26.491361,16.4509963 26.4876866,16.4620195 26.48,16.47" id="Shape"/><path d="M19.24,17.46 C18.4414522,16.6298688 17.9968153,15.5218621 18,14.37 C18.0002236,12.6218633 19.0127234,11.0320042 20.5967459,10.2925079 C22.1807684,9.55301162 24.049711,9.79767769 25.39,10.92 L25.39,10.93" id="Shape" stroke-width="2"/><path d="M33.52,16.47 C33.5123134,16.4620195 33.508639,16.4509963 33.51,16.44" id="Shape"/><path d="M40.76,17.46 C41.5585478,16.6298688 42.0031847,15.5218621 42,14.37 C41.9997764,12.6218633 40.9872766,11.0320042 39.4032541,10.2925079 C37.8192316,9.55301162 35.950289,9.79767769 34.61,10.92 L34.61,10.93" id="Shape" stroke-width="2"/><path d="M18.07,13.58 C15.71,12.94 13.45,15.32 13.33,15.45" id="Shape" stroke-linecap="round"/><path d="M13.32,15.46 L13.33,15.45 C13.4,15.29 14.12,13.57 11.23,10.91 C8.19,8.11 4.53,10.68 4.53,10.68 C6.91,6.29 3,3.02 3,3.02 C3,3.02 7.87,4.53 10.25,0.13 C10.25,0.13 10.11,4.6 14.1,5.63 C18.09,6.66 19.05,4.9 19.05,4.9 C19.05,4.9 18.04,8.84 20.59,10.3" id="Shape" stroke-linecap="round"/><path d="M40.95,4.91 C41.01,5.14 41.89,8.88 39.41,10.3" id="Shape" stroke-linecap="round"/><path d="M40.95,4.9 L40.95,4.91 C40.95,4.91 41.91,6.66 45.9,5.63 C49.89,4.6 49.75,0.13 49.75,0.13 C52.13,4.53 57,3.02 57,3.02 C57,3.02 53.09,6.29 55.47,10.68 C55.47,10.68 51.81,8.11 48.77,10.91 C45.88,13.57 46.6,15.29 46.67,15.45" id="Shape" stroke-linecap="round"/><path d="M41.93,13.58 C44.29,12.94 46.55,15.32 46.67,15.45 L46.68,15.46" id="Shape" stroke-linecap="round"/></g></g></g></svg>