<?xml version="1.0" ?><svg viewBox="0 0 361.87 255.73" xmlns="http://www.w3.org/2000/svg"><defs><style>.cls-1{fill:#fbfcf2;}.cls-2{fill:none;stroke:#2e576d;stroke-miterlimit:10;stroke-width:2px;}.cls-3{fill:#2e576d;}.cls-4{fill:#a9ea9c;}.cls-5{font-size:38.4px;font-family:Dosis-ExtraBold, Dosis;font-weight:700;}.cls-15,.cls-5{fill:#274b5b;}.cls-6{letter-spacing:-0.04em;}.cls-7{letter-spacing:-0.06em;}.cls-8{letter-spacing:0em;}.cls-14,.cls-9{fill:#3f5a7c;}.cls-9{opacity:0.15;}.cls-10{fill:#ffc742;}.cls-11{fill:#8a7683;}.cls-11,.cls-12{opacity:0.5;}.cls-12{fill:#dd9e1f;}.cls-13{opacity:0.2;}.cls-16{fill:#fff;}</style></defs><title/><g data-name="Layer 2" id="Layer_2"><g data-name="Layer 1" id="Layer_1-2"><path class="cls-1" d="M171.7,43c-16.44-.28-31.84-6.63-46.16-13.52-19-9.12-38.6-20-61.28-19.46-10.55.26-21.25,3.37-28.74,9.7-8.26,7-11.87,17.26-11.9,27.19-.07,23.14,16.59,43.1,19.31,65.8,2.36,19.75-7.08,39.55-2,59.15,7.55,29,39.08,44.8,71,50.47,26.42,4.69,62.15,7.05,82.81-10.76,10.49-9,18.87-23,33.78-23.08,11.71-.1,20.41,8.74,30.59,13.67,17.5,8.48,41,4.67,56-6.73,23.74-18,21.43-43.11,18.72-68a123.17,123.17,0,0,1,3.06-43c3.46-14,10.88-27.66,5.9-42.16-8.31-24.22-46.32-34.87-72.94-34.44-20.15.32-39.75,5.77-57.33,14-16.72,7.79-32,17.23-52.15,16.86"/><circle class="cls-2" cx="141.73" cy="25.23" r="4.5" transform="translate(37.64 124.67) rotate(-53.78)"/><circle class="cls-3" cx="61.73" cy="34.23" r="4.5" transform="translate(-2.36 63.81) rotate(-53.78)"/><path class="cls-3" d="M42.16,35.58,37.43,42c-1.14,1.56,1.46,3.06,2.59,1.51l4.73-6.45c1.14-1.56-1.46-3.06-2.59-1.51Z"/><path class="cls-3" d="M45.08,40.63l-6.45-4.73c-1.56-1.14-3.06,1.46-1.51,2.59l6.45,4.73c1.56,1.14,3.06-1.46,1.51-2.59Z"/><circle class="cls-2" cx="169.16" cy="237.7" r="4.5" transform="translate(-105.5 139.34) rotate(-34.86)"/><circle class="cls-3" cx="90.57" cy="220.26" r="4.5" transform="translate(-109.64 91.29) rotate(-34.86)"/><path class="cls-3" d="M71.84,215l-6.56,4.57c-1.57,1.1-.08,3.7,1.51,2.59l6.56-4.57c1.57-1.1.08-3.7-1.51-2.59Z"/><path class="cls-3" d="M72.9,221.14l-4.57-6.56c-1.1-1.57-3.7-.08-2.59,1.51l4.57,6.56c1.1,1.57,3.7.08,2.59-1.51Z"/><rect class="cls-4" height="143" rx="12" ry="12" width="241" x="3.23" y="57.86"/><path class="cls-3" d="M232.23,197.86H17.47c-3.92,0-7.77-.67-10-4.47-1.67-2.84-1.23-6.52-1.23-9.7V96.24c0-8.69-.53-17.56,0-26.24.63-10.22,10.13-9.14,17.37-9.14H226.37c7.17,0,14.63.51,14.86,10.07.25,10.31,0,20.66,0,31v84.28c0,5.8-2.14,11.31-9,11.68-3.84.21-3.86,6.21,0,6a15.38,15.38,0,0,0,15-15.33c.11-3.33,0-6.68,0-10V85c0-9.25,2.21-22-6.93-27.78-5.53-3.52-13.54-2.39-19.82-2.39H81.79c-21.84,0-43.71-.31-65.55,0C10.77,54.94,5.67,57,2.63,61.79.21,65.58.23,69.55.23,73.79v89.95c0,8.53-.54,17.26,0,25.77.56,8.25,7,14.06,15.18,14.35,2,.07,4,0,6,0H232.23C236.09,203.86,236.1,197.86,232.23,197.86Z"/><text class="cls-5" transform="translate(23.21 118.39)"><tspan class="cls-6"><tspan class="cls-7" x="20.43" y="0"/><tspan class="cls-8" x="40.55" y="0"/></tspan><tspan x="0" y="46.08"/></text><circle class="cls-9" cx="225.73" cy="138.23" r="117.5"/><circle class="cls-10" cx="240.76" cy="121.24" r="115.5"/><path class="cls-11" d="M244.73,237.58c-2,.1-4,.15-6,.15a115.5,115.5,0,1,1,0-231c2,0,4,0,6,.15a115.51,115.51,0,0,0,0,230.7Z"/><path class="cls-11" d="M235.23,6.88c2-.1,4-.15,6-.15a115.5,115.5,0,1,1,0,231c-2,0-4,0-6-.15a115.51,115.51,0,0,0,0-230.7Z"/><circle class="cls-12" cx="240.76" cy="121.24" r="95.5"/><g class="cls-13"><path class="cls-14" d="M259.3,28.28a95.45,95.45,0,0,1,62.27,44.86,1.5,1.5,0,0,0,2.59-1.51A98.44,98.44,0,0,0,260.1,25.39c-1.88-.41-2.69,2.48-.8,2.89Z"/></g><g class="cls-13"><path class="cls-14" d="M335.34,120.49a95,95,0,0,1-94,94,1.5,1.5,0,0,0,0,3,98.07,98.07,0,0,0,97-97,1.5,1.5,0,0,0-3,0Z"/></g><path class="cls-3" d="M150,105.48A93.65,93.65,0,0,1,241.34,28c3.86,0,3.87-6,0-6-47.64.43-88.78,34.88-97.09,81.89-.67,3.78,5.11,5.4,5.79,1.6Z"/><path class="cls-3" d="M148.84,120.49q0-2.46.12-4.92a3,3,0,0,0-3-3,3.07,3.07,0,0,0-3,3q-.12,2.46-.12,4.92a3,3,0,0,0,6,0Z"/><path class="cls-3" d="M330,194.15c-31.4,37.71-83.73,52.25-129.88,35C159.55,214,130.06,175.57,126,132.39a116.44,116.44,0,0,1,24.57-83c2.37-3-1.85-7.27-4.24-4.24-32.12,40.59-35.76,98.29-7.42,141.92a121.25,121.25,0,0,0,195.35,11.3c2.45-2.95-1.77-7.21-4.24-4.24Z"/><path class="cls-3" d="M341.6,177.09q-2.33,4.16-5,8.14c-2.14,3.23,3.05,6.24,5.18,3q2.63-4,5-8.14c1.89-3.37-3.29-6.4-5.18-3Z"/><path class="cls-3" d="M185.59,20c32.66-17.57,72.65-18.74,106-2.26a115.27,115.27,0,0,1,60.94,131.71c-.92,3.75,4.87,5.35,5.79,1.6,8.78-35.94,1.2-74.3-21.42-103.69A121.28,121.28,0,0,0,182.57,14.85c-3.4,1.83-.38,7,3,5.18Z"/><path class="cls-15" d="M271.34,120.93a22.71,22.71,0,0,0-7.79-3.42s3.87-2.26,5.46-4.53a17.3,17.3,0,0,0,2.51-7.59c.13-1.82.44-9.45-5.46-13.84-4.56-3.4-9.79-4.75-16.81-5.19V71h-9.42V86.19h-7.17V71h-9.42V86.19H204.72v9.86h5.44c1.48,0,4.12.17,5.25,1.43s1.32,1.93,1.32,4.39,0,38.36,0,39.29a3.87,3.87,0,0,1-1,2.84c-.79.75-1.58.93-3.48.93h-5.63l-1.94,11.41h18.52v15.18h9.42V156.34h7.17v15.18h9.42V156.09c2.43-.14,4.7-.33,6-.5,2.68-.35,8.76-1.06,14.43-5.06s7-10.25,7.08-16.55S274.55,123.37,271.34,120.93Zm-38.68-24s3-.27,5.94-.22A29.73,29.73,0,0,1,248,98c3.87,1.2,6.16,4.13,6.25,7.59a7.45,7.45,0,0,1-4,7.23,22.79,22.79,0,0,1-9.72,2.39c-3.43.13-7.83,0-7.83,0Zm21.08,45.39c-2.16,1.2-6.47,2.26-10.65,2.57s-10.43.18-10.43.18V124.7s6-.31,10.65,0a29.94,29.94,0,0,1,10.34,2.4,8,8,0,0,1,4.84,7.5C258.49,139.26,255.89,141.12,253.74,142.32Z" data-name="BTC alt" id="BTC_alt"/><path class="cls-16" d="M269.16,41.51a53.74,53.74,0,0,1,19.55,10.36c1.48,1.22,3.61-.89,2.12-2.12A57.5,57.5,0,0,0,270,38.61a1.5,1.5,0,0,0-.8,2.89Z"/><path class="cls-16" d="M17.23,70.48h32a1.5,1.5,0,0,0,0-3h-32a1.5,1.5,0,0,0,0,3Z"/><path class="cls-16" d="M55.23,70.48h16a1.5,1.5,0,0,0,0-3h-16a1.5,1.5,0,0,0,0,3Z"/><path class="cls-3" d="M188.16,198.56a94.88,94.88,0,0,1-30.11-35c-1.75-3.45-6.92-.41-5.18,3a101.05,101.05,0,0,0,32.26,37.13c3.16,2.23,6.16-3,3-5.18Z"/></g></g></svg>