<?xml version="1.0" ?><svg id="Layer_1" style="enable-background:new 1 -1 100 100;" version="1.1" viewBox="1 -1 100 100" xml:space="preserve" xmlns="http://www.w3.org/2000/svg" xmlns:xlink="http://www.w3.org/1999/xlink"><title/><g><path d="M96.9,59l-8.3-7.4L75.9,34.2c-0.6-0.8-1.5-1.2-2.4-1.2h-6.6l-2.4-7.8C64.1,23.9,63,23,61.6,23h-7.5c-1.4,0-2.7,1-2.9,2.4   L49.7,33H7.6c-1.7,0-3,1.3-3,3L4.1,78.3c0,1.7,1.3,3,3,3h7.8c1.6,6.3,7.9,10.2,14.3,8.7c4.3-1,7.6-4.4,8.7-8.7h21.3   c1.6,6.3,7.9,10.2,14.3,8.7c4.3-1,7.6-4.4,8.7-8.7h12.6c1.7,0,3-1.3,3-3V61.2C97.9,60.3,97.4,59.5,96.9,59z M26.4,84.3   c-3.2,0-5.8-2.6-5.8-5.8s2.6-5.8,5.8-5.8s5.8,2.6,5.8,5.8S29.6,84.3,26.4,84.3z M41.1,57h-3.2v3.2c0,1.7-1.3,3-3,3s-3-1.3-3-3V57   h-3.2c-1.7,0-3-1.3-3-3s1.3-3,3-3h3.2v-3.2c0-1.7,1.3-3,3-3s3,1.3,3,3V51h3.2c1.7,0,3,1.3,3,3S42.7,57,41.1,57z M70.6,84.3   c-3.2,0-5.8-2.6-5.8-5.8s2.6-5.8,5.8-5.8s5.8,2.6,5.8,5.8S73.9,84.3,70.6,84.3z M61.1,50.6V39h10.8l8.5,11.6H61.1z"/><rect height="12.5" width="6" x="54.9" y="7.7"/><rect height="12.9" transform="matrix(0.7071 0.7071 -0.7071 0.7071 34.1491 -45.0552)" width="6" x="68.5" y="12.2"/><rect height="6" transform="matrix(0.7071 0.7071 -0.7071 0.7071 26.2696 -25.9398)" width="12.9" x="38" y="15.7"/></g></svg>