<?xml version="1.0" ?><svg height="60px" version="1.1" viewBox="0 0 48 60" width="48px" xmlns="http://www.w3.org/2000/svg" xmlns:xlink="http://www.w3.org/1999/xlink"><title/><desc/><defs/><g fill="none" fill-rule="evenodd" id="Page-1" stroke="none" stroke-linejoin="round" stroke-width="1"><g id="001---Candy-Cane" stroke="#000000" transform="translate(0.000000, 1.000000)"><path d="M17,27.85 L17,15.42 C16.9959238,10.1788999 19.6211554,5.28522778 23.99,2.39 C26.1591624,0.959242907 28.6742683,0.140451558 31.27,0.02 C37.4629985,-0.293966239 43.2073286,3.24651422 45.71,8.92 C46.5628812,10.8333662 47.0024551,12.9051562 47,15 L47,20 C47.0007593,21.2134538 46.2699933,22.3077108 45.1488481,22.771935 C44.0277028,23.2361592 42.7372831,22.9787995 41.88,22.12 C41.81,22.05 41.74,21.98 41.68,21.91 C41.6177859,21.8375931 41.5609668,21.7607201 41.51,21.68 C41.1777287,21.1826974 41.0002592,20.598092 41,20 L41,15.31 C40.9995864,14.2092168 40.8101678,13.1166773 40.44,12.08 C39.2990131,8.79287263 36.3765169,6.44943486 32.92,6.05 C32.82,6.04 32.71,6.03 32.6,6.02 C30.1148874,5.85595835 27.6727778,6.72824956 25.8539606,8.42960149 C24.0351434,10.1309534 23.0019913,12.5094799 23,15 L23,27.85" id="Shape" stroke-width="2"/><path d="M23,38.85 L23,55 C23,56.6568542 21.6568542,58 20,58 C18.3431458,58 17,56.6568542 17,55 L17,38.85" id="Shape" stroke-width="2"/><path d="M25,28.85 L25,37.85 C25.0009207,38.1154977 24.8958596,38.3703869 24.7081233,38.5581233 C24.5203869,38.7458596 24.2654977,38.8509207 24,38.85 L16,38.85 C15.7293937,38.8510366 15.4698092,38.7428764 15.28,38.55 C15.113307,38.3778221 15.0170034,38.1495469 15.01,37.91 C15.0018385,37.8911103 14.9984061,37.8705156 15,37.85 L15,28.85 C15.0016474,28.2983991 15.4483991,27.8516474 16,27.85 L24,27.85 C24.5516009,27.8516474 24.9983526,28.2983991 25,28.85 Z" id="Shape"/><path d="M8.02523,28.31739 C7.10551284,27.9829471 6.08047914,28.1181257 5.27890877,28.6795673 C4.47733839,29.2410089 3.99999999,30.1581323 4,31.13677 L4,35.57057 C3.99998368,36.5492165 4.47731536,37.466355 5.27888829,38.0278084 C6.08046122,38.5892617 7.10550454,38.7244459 8.02523,38.39 L15,35.85367 L15,30.85367 L8.02523,28.31739 Z" id="Shape"/><path d="M31.97477,28.31739 C32.8944872,27.9829471 33.9195209,28.1181257 34.7210912,28.6795673 C35.5226616,29.2410089 36,30.1581323 36,31.13677 L36,35.57057 C36.0000163,36.5492165 35.5226846,37.466355 34.7211117,38.0278084 C33.9195388,38.5892617 32.8944955,38.7244459 31.97477,38.39 L25,35.85367 L25,30.85367 L31.97477,28.31739 Z" id="Shape"/><path d="M6.84629,30.83021 L6.84629,33.35321 C6.84628883,33.5191234 6.92858861,33.6742319 7.06597622,33.7672476 C7.20336382,33.8602632 7.37794388,33.8790702 7.53199,33.81745 L10.6857,32.55597 C10.8755314,32.4800394 11.0000088,32.2961839 11.0000088,32.09173 C11.0000088,31.8872761 10.8755314,31.7034206 10.6857,31.62749 L7.532,30.366 C7.37795771,30.3043774 7.20338023,30.3231791 7.06599144,30.4161881 C6.92860265,30.5091972 6.84629746,30.6642993 6.84629,30.83021 Z" id="Shape"/><path d="M33.15371,30.83021 L33.15371,33.35321 C33.1537112,33.5191234 33.0714114,33.6742319 32.9340238,33.7672476 C32.7966362,33.8602632 32.6220561,33.8790702 32.46801,33.81745 L29.3143,32.55593 C29.1244686,32.4799994 28.9999912,32.2961439 28.9999912,32.09169 C28.9999912,31.8872361 29.1244686,31.7033806 29.3143,31.62745 L32.468,30.366 C32.6220423,30.3043774 32.7966198,30.3231791 32.9340086,30.4161881 C33.0713974,30.5091972 33.1537025,30.6642993 33.15371,30.83021 L33.15371,30.83021 Z" id="Shape"/><path d="M15.01,37.91 C14.1050769,38.516607 13.2430346,39.1848568 12.43,39.91 C12.36,39.97 12.29,40.04 12.22,40.1 C10.6307199,41.3971434 9.48154007,43.1540962 8.93,45.13 C8.36,47.7 9.09,50.42 7.55,52.74 C6.25967531,54.4565857 4.33737243,55.5869286 2.21,55.88 L0,54 C2.13926186,53.818776 4.1183363,52.7932556 5.5,51.15 C7.16,48.9 6.57,46.15 7.28,43.61 C7.97115175,41.5812668 9.28751091,39.8237873 11.04,38.59 C12.1991629,37.6538598 13.4447771,36.8301471 14.76,36.13 C14.84,36.08 14.92,36.04 15,36" id="Shape" stroke-linecap="round"/><path d="M15,35.83 C14.98,35.84 14.97,35.85 14.98,35.86 C14.8978213,35.9424158 14.8241188,36.0328688 14.76,36.13" id="Shape" stroke-linecap="round"/><path d="M15.28,38.55 C15.113389,38.8053746 14.9598578,39.0690476 14.82,39.34 C13.6800908,41.1610417 13.1478513,43.2970029 13.3,45.44 C13.64,48.05 15.25,50.36 14.59,53.07 C14.06,55.24 12.45,56.68 10.63,57.84 L7.92,56.82 C9.8,55.76 11.48,54.41 12.12,52.27 C12.92,49.59 11.43,47.2 11.23,44.58 C11.1526454,43.0249385 11.4945664,41.4776597 12.22,40.1" id="Shape" stroke-linecap="round"/><path d="M45.71,8.92 C44.0789741,10.1699553 42.3109181,11.230118 40.44,12.08" id="Shape"/><path d="M47,17.74 C45.0763485,18.5393432 43.0609552,19.0969353 41,19.4" id="Shape"/><path d="M36.64,0.73 C35.0586695,2.23840425 33.7940101,4.04700325 32.92,6.05" id="Shape"/><path d="M25.49,8.79 C24.6976393,6.7359287 24.1928671,4.58223388 23.99,2.39" id="Shape"/><path d="M23,16.5 C21.011959,16.7736897 18.9998019,16.8273472 17,16.66" id="Shape"/><path d="M23,23.57 C21.0143777,23.8748957 18.997682,23.9219519 17,23.71" id="Shape"/><path d="M23,44.76 C20.9976568,44.8008176 18.9945897,44.7307102 17,44.55" id="Shape"/><path d="M23,52.5 C21.0022461,52.6653251 18.993353,52.641888 17,52.43" id="Shape"/></g></g></svg>