<?xml version="1.0" ?><svg height="55px" version="1.1" viewBox="0 0 60 55" width="60px" xmlns="http://www.w3.org/2000/svg" xmlns:xlink="http://www.w3.org/1999/xlink"><title/><desc/><defs/><g fill="none" fill-rule="evenodd" id="Page-1" stroke="none" stroke-linecap="round" stroke-linejoin="round" stroke-width="1"><g id="010---Heart" stroke="#000000" transform="translate(1.000000, 1.000000)"><path d="M29,9.10008 C35.10513,-1.88468 47.31559,-1.88468 53.42086,3.60766 C59.52638,9.10008 59.52638,20.08483 53.42086,31.06958 C49.14718,39.30813 38.15781,47.54667 29,53.03909 C19.842,47.54667 8.85263,39.30813 4.579,31.06958 C-1.52627,20.08483 -1.52627,9.10008 4.579,3.60766 C10.68427,-1.88476 22.89468,-1.88468 29,9.10008 Z" id="Shape" stroke-width="2"/><path d="M0,11 L2.073,13.00148 C3.22772938,14.1163894 5.05805062,14.1163894 6.21278,13.00148 L6.21585,12.99848 C7.37058065,11.8835642 9.20090935,11.8835642 10.35564,12.99848 L10.35871,13.00148 C11.5134394,14.1163894 13.3437606,14.1163894 14.49849,13.00148 L14.50157,12.99848 C15.6562994,11.8835706 17.4866206,11.8835706 18.64135,12.99848 L18.64442,13.00148 C19.7991507,14.1163958 21.6294793,14.1163958 22.78421,13.00148 L22.78728,12.99848 C23.9420094,11.8835706 25.7723306,11.8835706 26.92706,12.99848 L26.93014,13.00148 C28.0848694,14.1163894 29.9151906,14.1163894 31.06992,13.00148 L31.073,12.99848 C32.2277294,11.8835706 34.0580506,11.8835706 35.21278,12.99848 L35.21585,13.00148 C36.3705807,14.1163958 38.2009093,14.1163958 39.35564,13.00148 L39.35871,12.99848 C40.5134394,11.8835706 42.3437606,11.8835706 43.49849,12.99848 L43.50157,13.00148 C44.6562994,14.1163894 46.4866206,14.1163894 47.64135,13.00148 L47.64442,12.99848 C48.7991507,11.8835642 50.6294793,11.8835642 51.78421,12.99848 L51.78728,13.00148 C52.9420094,14.1163894 54.7723306,14.1163894 55.92706,13.00148 L58,11" id="Shape"/><path d="M56.23,24.87 L55.93,25.16 C54.7772476,26.280003 52.9427524,26.280003 51.79,25.16 L51.78,25.16 C50.6272455,24.0400023 48.7927545,24.0400023 47.64,25.16 C46.4872455,26.2799977 44.6527545,26.2799977 43.5,25.16 C42.3472455,24.0400023 40.5127545,24.0400023 39.36,25.16 C38.2072476,26.280003 36.3727524,26.280003 35.22,25.16 L35.21,25.16 C34.6570774,24.6190382 33.9135346,24.3173107 33.14,24.32 C32.3671854,24.3210104 31.6249843,24.6221935 31.07,25.16 C29.9172455,26.2799977 28.0827545,26.2799977 26.93,25.16 C25.7772476,24.039997 23.9427524,24.039997 22.79,25.16 L22.78,25.16 C21.6272455,26.2799977 19.7927545,26.2799977 18.64,25.16 C17.4872455,24.0400023 15.6527545,24.0400023 14.5,25.16 C13.3472455,26.2799977 11.5127545,26.2799977 10.36,25.16 C9.2072476,24.039997 7.3727524,24.039997 6.22,25.16 L6.21,25.16 C5.0572476,26.280003 3.2227524,26.280003 2.07,25.16 L1.77,24.87" id="Shape"/><path d="M4.08,30.16 L4.09,30.16 C4.88102428,30.1773216 5.64551148,29.8744115 6.21,29.32 L6.22,29.32 C7.37679275,28.2099982 9.20320725,28.2099982 10.36,29.32 C11.5127545,30.4399977 13.3472455,30.4399977 14.5,29.32 C15.6581331,28.2133359 17.4818669,28.2133359 18.64,29.32 C19.7927545,30.4399977 21.6272455,30.4399977 22.78,29.32 L22.79,29.32 C23.9467928,28.2099982 25.7732072,28.2099982 26.93,29.32 C28.0827545,30.4399977 29.9172455,30.4399977 31.07,29.32 C31.6259475,28.7848847 32.3683666,28.4871998 33.14,28.49 C33.9123299,28.4835322 34.6560827,28.781752 35.21,29.32 L35.22,29.32 C36.3727524,30.440003 38.2072476,30.440003 39.36,29.32 C40.5181331,28.2133359 42.3418669,28.2133359 43.5,29.32 C44.6527545,30.4399977 46.4872455,30.4399977 47.64,29.32 C48.7981331,28.2133359 50.6218669,28.2133359 51.78,29.32 L51.79,29.32 C52.3544885,29.8744115 53.1189757,30.1773216 53.91,30.16 L53.92,30.16" id="Shape"/><path d="M51.62,34.01 C50.4499752,33.0354567 48.7333518,33.1001536 47.64,34.16 C46.4872455,35.2799977 44.6527545,35.2799977 43.5,34.16 C42.3472455,33.0400023 40.5127545,33.0400023 39.36,34.16 C38.2072476,35.280003 36.3727524,35.280003 35.22,34.16 L35.21,34.16 C34.6570774,33.6190382 33.9135346,33.3173107 33.14,33.32 C32.3671854,33.3210104 31.6249843,33.6221935 31.07,34.16 C29.9172455,35.2799977 28.0827545,35.2799977 26.93,34.16 C25.7772476,33.039997 23.9427524,33.039997 22.79,34.16 L22.78,34.16 C21.6272455,35.2799977 19.7927545,35.2799977 18.64,34.16 C17.4872455,33.0400023 15.6527545,33.0400023 14.5,34.16 C13.3472455,35.2799977 11.5127545,35.2799977 10.36,34.16 C9.26755604,33.0980307 7.5492793,33.0332716 6.38,34.01" id="Shape"/><path d="M11.37,39.8 L12.43,40 C13.2028146,39.9989896 13.9450157,39.6978065 14.5,39.16 C15.6581331,38.0533359 17.4818669,38.0533359 18.64,39.16 C19.7927545,40.2799977 21.6272455,40.2799977 22.78,39.16 L22.79,39.16 C23.9467928,38.0499982 25.7732072,38.0499982 26.93,39.16 C28.0827545,40.2799977 29.9172455,40.2799977 31.07,39.16 C31.6259475,38.6248847 32.3683666,38.3271998 33.14,38.33 C33.9123299,38.3235322 34.6560827,38.621752 35.21,39.16 L35.22,39.16 C36.3727524,40.280003 38.2072476,40.280003 39.36,39.16 C40.5181331,38.0533359 42.3418669,38.0533359 43.5,39.16 C44.0549843,39.6978065 44.7971854,39.9989896 45.57,40 C45.9330214,40.0033935 46.2931737,39.9354403 46.63,39.8 L46.64,39.8" id="Shape" stroke-width="2"/><path d="M5.81683,16.85787 C6.03081866,16.4392193 6.4210982,16.1384457 6.88045186,16.0381771 C7.33980552,15.9379085 7.81992026,16.0486907 8.1889,16.34009 C8.7819,16.85787 8.7819,17.8934 8.1889,18.92893 C7.57684789,19.8005217 6.7630061,20.5110924 5.81683,21 C4.8706539,20.5110924 4.05681211,19.8005217 3.44476,18.92893 C2.85176,17.8934 2.85176,16.85787 3.44476,16.34009 C3.81373974,16.0486907 4.29385448,15.9379085 4.75320814,16.0381771 C5.2125618,16.1384457 5.60284134,16.4392193 5.81683,16.85787 Z" id="Shape"/><path d="M15.0901,16.85787 C15.3040865,16.4392197 15.6943642,16.1384461 16.1537164,16.0381774 C16.6130686,15.9379087 17.093182,16.0486909 17.46216,16.34009 C18.05516,16.85787 18.05516,17.8934 17.46216,18.92893 C16.8501119,19.8005216 16.0362734,20.5110924 15.0901,21 C14.143911,20.5110993 13.3300579,19.8005278 12.718,18.92893 C12.125,17.8934 12.125,16.85787 12.718,16.34009 C13.086981,16.0486793 13.5671036,15.9378902 14.0264655,16.0381593 C14.4858273,16.1384284 14.8761127,16.4392095 15.0901,16.85787 L15.0901,16.85787 Z" id="Shape"/><path d="M24.36336,16.85787 C24.5773465,16.4392197 24.9676242,16.1384461 25.4269764,16.0381774 C25.8863286,15.9379087 26.366442,16.0486909 26.73542,16.34009 C27.32842,16.85787 27.32842,17.8934 26.73542,18.92893 C26.1233746,19.800524 25.3095354,20.5110953 24.36336,21 C23.4171839,20.5110924 22.6033421,19.8005217 21.99129,18.92893 C21.39829,17.8934 21.39829,16.85787 21.99129,16.34009 C22.3602697,16.0486907 22.8403845,15.9379085 23.2997381,16.0381771 C23.7590918,16.1384457 24.1493713,16.4392193 24.36336,16.85787 L24.36336,16.85787 Z" id="Shape"/><path d="M33.63663,16.85787 C33.8506165,16.4392197 34.2408942,16.1384461 34.7002464,16.0381774 C35.1595986,15.9379087 35.639712,16.0486909 36.00869,16.34009 C36.60169,16.85787 36.60169,17.8934 36.00869,18.92893 C35.3966419,19.8005216 34.5828034,20.5110924 33.63663,21 C32.6904501,20.511098 31.8766071,19.8005263 31.26456,18.92893 C30.67156,17.8934 30.67156,16.85787 31.26456,16.34009 C31.6335397,16.0486907 32.1136545,15.9379085 32.5730081,16.0381771 C33.0323618,16.1384457 33.4226413,16.4392193 33.63663,16.85787 Z" id="Shape"/><path d="M42.90989,16.85787 C43.1238765,16.4392197 43.5141542,16.1384461 43.9735064,16.0381774 C44.4328586,15.9379087 44.912972,16.0486909 45.28195,16.34009 C45.87495,16.85787 45.87495,17.8934 45.28195,18.92893 C44.6699046,19.800524 43.8560654,20.5110953 42.90989,21 C41.9637119,20.5110953 41.1498694,19.8005241 40.53782,18.92893 C39.94482,17.8934 39.94482,16.85787 40.53782,16.34009 C40.9067997,16.0486907 41.3869145,15.9379085 41.8462681,16.0381771 C42.3056218,16.1384457 42.6959013,16.4392193 42.90989,16.85787 L42.90989,16.85787 Z" id="Shape"/><path d="M52.18316,16.85787 C52.3971465,16.4392197 52.7874242,16.1384461 53.2467764,16.0381774 C53.7061286,15.9379087 54.186242,16.0486909 54.55522,16.34009 C55.14822,16.85787 55.14822,17.8934 54.55522,18.92893 C53.9431695,19.8005194 53.1293316,20.5110897 52.18316,21 C51.2369801,20.511098 50.4231371,19.8005263 49.81109,18.92893 C49.21809,17.8934 49.21809,16.85787 49.81109,16.34009 C50.1800697,16.0486907 50.6601845,15.9379085 51.1195381,16.0381771 C51.5788918,16.1384457 51.9691713,16.4392193 52.18316,16.85787 L52.18316,16.85787 Z" id="Shape"/></g></g></svg>