<?xml version="1.0" ?><svg height="60px" version="1.1" viewBox="0 0 60 60" width="60px" xmlns="http://www.w3.org/2000/svg" xmlns:xlink="http://www.w3.org/1999/xlink"><title/><desc/><defs/><g fill="none" fill-rule="evenodd" id="Page-1" stroke="none" stroke-linecap="round" stroke-linejoin="round" stroke-width="1"><g id="006---Present" stroke="#000000" transform="translate(1.000000, 0.000000)"><path d="M36.59,26 L55,26 L55,57 C54.9967707,58.1032291 54.1032291,58.9967707 53,59 L5,59 C3.89677088,58.9967707 3.00322927,58.1032291 3,57 L3,26 L21.4,26" id="Shape" stroke-width="2"/><path d="M21.4,26 L2,26 C0.896770878,25.9967707 0.00322927335,25.1032291 0,24 L0,18 C0.00322927335,16.8967709 0.896770878,16.0032293 2,16 L56,16 C57.1032291,16.0032293 57.9967707,16.8967709 58,18 L58,24 C57.9967707,25.1032291 57.1032291,25.9967707 56,26 L36.59,26" id="Shape" stroke-width="2"/><polyline id="Shape" points="23 16 25 16 25.57 16 26 16 29 16 32 16 32.43 16 33 16 35 16"/><polyline id="Shape" points="34 37.8 34 59 24 59 24 37.8"/><path d="M29,16 C29,16 23,-0.02 13,1.05 C3.66,2.05 5.66,15.13 18.17,16" id="Shape" stroke-width="2"/><path d="M26,16 C24.8929393,13.9438001 23.6407159,11.9691293 22.25285,10.091 C20.40272,7.60694 17.89926,4.06634 14.40735,4.12607 C13.7732238,4.12639566 13.1476865,4.27271845 12.57921,4.5537 C11.5618897,5.08215391 10.8900955,6.09901744 10.80311,7.2421 C10.8401785,8.53167124 11.3751651,9.75679154 12.29586,10.6605 C14.79485,13.44777 18.50592,14.9249 22,16" id="Shape"/><path d="M39.83,16 C52.34,15.13 54.34,2.05 45,1.05 C35,-0.02 29,16 29,16" id="Shape" stroke-width="2"/><path d="M36,16 C39.49408,14.9249 43.20515,13.44777 45.70414,10.66051 C46.6248349,9.75680154 47.1598215,8.53168124 47.19689,7.24211 C47.1099045,6.09902744 46.4381103,5.08216391 45.42079,4.55371 C44.8523135,4.27272845 44.2267762,4.12640566 43.59265,4.12608 C40.10074,4.06635 37.59728,7.60695 35.74715,10.09101 C34.3592845,11.9691361 33.1070611,13.9438035 32,16" id="Shape"/><path d="M25,16 C24.3025538,19.4934175 23.0892736,22.8636404 21.4,26 C18.98,30.43 15.09,34.89 9,36 L16,38 L13,44 C13,44 18.44,45.17 24,37.8 C26.1098816,34.8799516 27.7934295,31.6744765 29,28.28" id="Shape" stroke-width="2"/><path d="M33,16 C33.4496805,18.2729741 34.1195044,20.4967895 35,22.64 C35.4676164,23.7884714 35.9984279,24.9101862 36.59,26 C39.01,30.43 42.91,34.89 49,36 L42,38 L45,44 C45,44 39.56,45.17 34,37.8 C31.8901184,34.8799516 30.2065705,31.6744765 29,28.28 C28.72,27.55 28.45,26.79 28.19,26 C27.1135028,22.7232304 26.2385343,19.3836558 25.57,16" id="Shape" stroke-width="2"/></g></g></svg>