<?xml version="1.0" ?><svg height="60px" version="1.1" viewBox="0 0 51 60" width="51px" xmlns="http://www.w3.org/2000/svg" xmlns:xlink="http://www.w3.org/1999/xlink"><title/><desc/><defs/><g fill="none" fill-rule="evenodd" id="Page-1" stroke="none" stroke-linecap="round" stroke-linejoin="round" stroke-width="1"><g id="011---Santa" stroke="#000000" transform="translate(1.000000, 1.000000)"><path d="M41.93,13.23 C41.5598871,10.7942711 39.4636843,8.99570364 37,9 L11,9 C9.67293614,8.99679016 8.39930074,9.52254354 7.46092214,10.4609221 C6.52254354,11.3993007 5.99679016,12.6729361 6,14 L6,18 C5.99893657,18.795975 6.31466559,19.5596548 6.87750541,20.1224946 C7.44034523,20.6853344 8.204025,21.0010634 9,21 L38.61,21" id="Shape" stroke-width="2"/><path d="M16,21 C9.69,25.21 8.3,32.85 8.03,37.04 C8,37.46 7.98,37.84 7.98,38.18" id="Shape"/><path d="M31.97,21 C38.26,25.2 39.67,32.81 39.94,37.01 C39.96,37.35 39.98,37.66 39.99,37.94 L39.99,38 C40.0167498,38.6665821 40.0100748,39.3340861 39.97,40 L39.46,40" id="Shape"/><path d="M6.23,26.34 C4.54807607,25.6411077 2.61075128,26.0244031 1.32167222,27.3111019 C0.0325931577,28.5978007 -0.354282204,30.5344138 0.341500439,32.2176266 C1.03728308,33.9008393 2.67864948,34.9990465 4.5,35 C4.67709823,35.0002602 4.85406235,34.9902434 5.03,34.97" id="Shape" stroke-width="2"/><path d="M43.55,35 C46.0253693,34.9723855 48.013624,32.9506247 47.9998713,30.4751396 C47.9861187,27.9996545 45.9755233,26.0001096 43.5,26 C43.0977798,25.9970583 42.6971589,26.0509233 42.31,26.16" id="Shape" stroke-width="2"/><path d="M19.76,36.17 C19.0413487,36.6180346 18.4843508,37.2836296 18.17,38.07 C18.0587886,38.3675093 18.0012304,38.6823866 18,39 C18.0715668,40.1798753 18.7333976,41.2440691 19.76,41.83 C22.3714311,43.3899989 25.6285689,43.3899989 28.24,41.83 C29.2666024,41.2440691 29.9284332,40.1798753 30,39 C30.0012165,38.6747443 29.9401155,38.3522665 29.82,38.05 C29.5086448,37.2700665 28.9547049,36.6109482 28.24,36.17" id="Shape" stroke-width="2"/><path d="M41.62,23.66 C41.84,24.34 42.02,25.03 42.2,25.71 C42.24,25.86 42.28,26.01 42.31,26.16 C42.724854,27.8391995 43.035447,29.5424515 43.24,31.26 C43.38,32.5 43.47,33.75 43.55,35 C43.58,35.38 43.61,35.77 43.64,36.16 C43.66,36.41 43.68,36.65 43.7,36.9 C43.83,38.28 44,39.67 44,41.06 C44.0058911,42.3253589 43.8649487,43.5871285 43.58,44.82 C42.9323787,47.8198255 41.0957092,50.42869 38.49,52.05 C37.8813696,52.4201563 37.2424078,52.7379646 36.58,53 C26.58,57 24.58,58 24.58,58 L24,58 C24,58 22,57 12,53 C11.3375922,52.7379646 10.6986304,52.4201563 10.09,52.05 C7.48429083,50.42869 5.64762134,47.8198255 5,44.82 C4.7150513,43.5871285 4.57410895,42.3253589 4.58,41.06 C4.6082938,39.6322112 4.71177046,38.2069035 4.89,36.79 C4.9,36.58 4.92,36.37 4.94,36.16 C5.07,34.53 5.14,32.89 5.34,31.26 C5.56584418,29.389389 5.91324568,27.5354675 6.38,25.71 C6.76315617,24.0903606 7.30580547,22.512658 8,21" id="Shape" stroke-width="2"/><circle cx="17" cy="32" id="Oval" r="4"/><circle cx="31" cy="32" id="Oval" r="4"/><circle cx="18" cy="32" id="Oval" r="1"/><circle cx="30" cy="32" id="Oval" r="1"/><path d="M14,44 C9.15,42.61 8.14,39.78 7.98,38.18 C7.94280837,37.8209606 7.94280837,37.4590394 7.98,37.1 C7.99,37.04 8,37 8,37 C8.01,37.01 8.02,37.03 8.03,37.04 C10.07,39.98 18,38 18,38" id="Shape" stroke-width="2"/><path d="M33.95,44 C37.25,43.06 38.77,41.45 39.46,40 C39.7599409,39.3722541 39.9397042,38.6939019 39.99,38 L39.99,37.94 C40.0079441,37.7168556 40.0045956,37.4925094 39.98,37.27 C39.9756403,37.1794625 39.9656207,37.0892863 39.95,37 C39.9500579,37.0026695 39.9490229,37.0052468 39.9471349,37.0071349 C39.9452468,37.0090229 39.9426695,37.0100579 39.94,37.01 C37.93,40 29.95,38 29.95,38" id="Shape" stroke-width="2"/><path d="M19,46 L29,46" id="Shape" stroke-width="2"/><path d="M20,46 C20,48.209139 21.790861,50 24,50 C26.209139,50 28,48.209139 28,46" id="Shape" stroke-width="2"/><path d="M18,24 C16.4641299,24.1452855 15.0377504,24.8584752 14,26" id="Shape" stroke-width="2"/><path d="M30,24 C31.5358701,24.1452855 32.9622496,24.8584752 34,26" id="Shape" stroke-width="2"/><path d="M45.93,13.57 C45.9785239,13.215429 46.0019156,12.8578707 46,12.5 C46,5.6 37.72,0 27.5,0 C18.98,0 11.81,3.89 9.66,9.18" id="Shape" stroke-width="2"/><circle cx="43.5" cy="18.5" id="Oval" r="5.5" stroke-width="2"/></g></g></svg>