<?xml version="1.0" ?><svg height="48px" version="1.1" viewBox="0 0 60 48" width="60px" xmlns="http://www.w3.org/2000/svg" xmlns:xlink="http://www.w3.org/1999/xlink"><title/><desc/><defs/><g fill="none" fill-rule="evenodd" id="Page-1" stroke="none" stroke-linejoin="round" stroke-width="1"><g id="025---Mince-Pie" stroke="#000000"><path d="M53.22,32.64 L47.52408,45.671 C47.2057452,46.3993124 46.4863434,46.8699946 45.6915,46.87 L15.23607,46.87 C14.4785245,46.8700027 13.7859957,46.4419988 13.44721,45.76443 L6.9,32.67" id="Shape" stroke-linecap="round" stroke-width="2"/><path d="M51.65384,32.87 C50.0956772,32.872184 48.6084341,32.2189584 47.55584,31.07008 C47.2355863,30.6925259 46.7684588,30.4708946 46.2734598,30.4616476 C45.7784608,30.4524005 45.3033815,30.6564304 44.96925,31.02176 C43.9213052,32.1895548 42.4290691,32.8606951 40.8600412,32.8698962 C39.2910133,32.8790974 37.7910087,32.2255042 36.72944,31.07008 C36.4092166,30.6923105 35.9419733,30.4705314 35.4468296,30.4612833 C34.9516859,30.4520352 34.4764867,30.6562118 34.14238,31.02176 C33.0944353,32.1895515 31.6022015,32.8606896 30.0331762,32.8698907 C28.4641509,32.8790918 26.9641485,32.2255009 25.90258,31.07008 C25.5823566,30.6923105 25.1151133,30.4705314 24.6199696,30.4612833 C24.1248259,30.4520352 23.6496267,30.6562118 23.31552,31.02176 C22.2676751,32.1895539 20.7755123,32.8607037 19.2065519,32.869905 C17.6375914,32.8791062 16.1376595,32.2255037 15.07619,31.07008 C14.7558399,30.6925158 14.2886369,30.4708884 13.7935679,30.4616418 C13.2984988,30.4523951 12.8233456,30.6564216 12.48912,31.02176 C11.4411753,32.1895515 9.94894147,32.8606896 8.37991617,32.8698907 C6.81089086,32.8790918 5.31088849,32.2255009 4.24932,31.07008 L1.52024,28.135 C0.78887692,27.3545195 0.828694476,26.1289281 1.609175,25.397565 C2.38965552,24.6662019 3.61524692,24.7060195 4.34661,25.4865 L7.07574,28.42161 C7.40578959,28.7717629 7.86566418,28.9702582 8.34685,28.9702582 C8.82803582,28.9702582 9.28791041,28.7717629 9.61796,28.42161 C10.6658051,27.2538176 12.1579665,26.582668 13.726926,26.5734649 C15.2958854,26.5642617 16.7958175,27.2178604 17.85729,28.37328 C18.1773887,28.7512573 18.6446749,28.9731905 19.1398965,28.9824419 C19.635118,28.9916934 20.1103673,28.787368 20.44436,28.42161 C21.4923032,27.2538172 22.9845363,26.5826773 24.5535616,26.5734742 C26.1225869,26.5642712 27.6225901,27.2178604 28.68416,28.37328 C29.0043819,28.7510508 29.4716244,28.9728318 29.9667681,28.9820818 C30.4619119,28.9913318 30.9371118,28.787157 31.27122,28.42161 C32.3191632,27.2538172 33.8113963,26.5826773 35.3804216,26.5734742 C36.9494469,26.5642712 38.4494501,27.2178604 39.51102,28.37328 C39.8310203,28.7512503 40.2982318,28.9731898 40.7933844,28.9824416 C41.2885371,28.9916935 41.7637133,28.7873624 42.09761,28.42161 C43.1456467,27.2538049 44.6379554,26.5826664 46.2070522,26.5734635 C47.776149,26.5642606 49.2762273,27.2178485 50.33789,28.37328 C50.6579547,28.7511443 51.1251445,28.9730054 51.6202579,28.9822565 C52.1153713,28.9915076 52.5905229,28.787254 52.92448,28.42161 L55.65361,25.4865 C56.1267189,24.981614 56.8332431,24.7674808 57.5070417,24.9247622 C58.1808402,25.0820436 58.7195471,25.5868448 58.9202367,26.2490122 C59.1209263,26.9111796 58.953109,27.6301141 58.48,28.135 L55.75087,31.07011 C54.6985367,32.2187813 53.2116741,32.8719835 51.65384,32.87 Z" id="Shape" stroke-width="2"/><path d="M26.52,16.47 C16.38,17.11 7.91,20.57 4.13,25.3" id="Shape" stroke-linecap="round" stroke-width="2"/><path d="M55.87,25.3 C52.09,20.57 43.62,17.11 33.48,16.47" id="Shape" stroke-linecap="round" stroke-width="2"/><circle cx="30" cy="12.87" id="Oval" r="5" stroke-width="2"/><path d="M26.49,16.44 C26.491361,16.4509963 26.4876866,16.4620195 26.48,16.47" id="Shape"/><path d="M19.24,17.46 C18.4414522,16.6298688 17.9968153,15.5218621 18,14.37 C18.0002236,12.6218633 19.0127234,11.0320042 20.5967459,10.2925079 C22.1807684,9.55301162 24.049711,9.79767769 25.39,10.92 L25.39,10.93" id="Shape" stroke-width="2"/><path d="M33.52,16.47 C33.5123134,16.4620195 33.508639,16.4509963 33.51,16.44" id="Shape"/><path d="M40.76,17.46 C41.5585478,16.6298688 42.0031847,15.5218621 42,14.37 C41.9997764,12.6218633 40.9872766,11.0320042 39.4032541,10.2925079 C37.8192316,9.55301162 35.950289,9.79767769 34.61,10.92 L34.61,10.93" id="Shape" stroke-width="2"/><path d="M18.07,13.58 C15.71,12.94 13.45,15.32 13.33,15.45" id="Shape" stroke-linecap="round"/><path d="M13.32,15.46 L13.33,15.45 C13.4,15.29 14.12,13.57 11.23,10.91 C8.19,8.11 4.53,10.68 4.53,10.68 C6.91,6.29 3,3.02 3,3.02 C3,3.02 7.87,4.53 10.25,0.13 C10.25,0.13 10.11,4.6 14.1,5.63 C18.09,6.66 19.05,4.9 19.05,4.9 C19.05,4.9 18.04,8.84 20.59,10.3" id="Shape" stroke-linecap="round"/><path d="M40.95,4.91 C41.01,5.14 41.89,8.88 39.41,10.3" id="Shape" stroke-linecap="round"/><path d="M40.95,4.9 L40.95,4.91 C40.95,4.91 41.91,6.66 45.9,5.63 C49.89,4.6 49.75,0.13 49.75,0.13 C52.13,4.53 57,3.02 57,3.02 C57,3.02 53.09,6.29 55.47,10.68 C55.47,10.68 51.81,8.11 48.77,10.91 C45.88,13.57 46.6,15.29 46.67,15.45" id="Shape" stroke-linecap="round"/><path d="M41.93,13.58 C44.29,12.94 46.55,15.32 46.67,15.45 L46.68,15.46" id="Shape" stroke-linecap="round"/></g></g></svg>