<?xml version="1.0" ?><!DOCTYPE svg  PUBLIC '-//W3C//DTD SVG 1.1//EN'  'http://www.w3.org/Graphics/SVG/1.1/DTD/svg11.dtd'><svg enable-background="new 0 0 24 24" height="24px" id="Layer_1" version="1.1" viewBox="0 0 24 24" width="24px" xml:space="preserve" xmlns="http://www.w3.org/2000/svg" xmlns:xlink="http://www.w3.org/1999/xlink"><path clip-rule="evenodd" d="M3.173,18.389l3.984-5.575V2.833L3.173,1.24V18.389L3.173,18.389z M3.396,19.993  l12.715-6.575c0.172-0.088,0.271-0.254,0.271-0.446c-0.002-0.192-0.104-0.357-0.275-0.444L12.33,10.62l-1.469-3.801l10.247,3.521  v5.329L8.01,22.917L3.396,19.993L3.396,19.993z M2.175,19.499V0.501c0-0.171,0.078-0.318,0.219-0.414  c0.143-0.096,0.307-0.114,0.467-0.05L7.842,2.03c0.193,0.077,0.314,0.255,0.314,0.464v10.48c0,0.108-0.031,0.202-0.094,0.291  L4.45,18.323l10.334-5.343l-3.078-1.554c-0.115-0.058-0.195-0.146-0.24-0.266L9.542,6.178C9.471,5.992,9.51,5.794,9.649,5.651  c0.137-0.143,0.334-0.19,0.521-0.126l11.6,3.987c0.205,0.071,0.336,0.255,0.336,0.473v5.979c0,0.187-0.094,0.347-0.258,0.438  L8.235,23.936c-0.164,0.091-0.352,0.085-0.51-0.016l-5.599-3.55c-0.156-0.099-0.24-0.26-0.232-0.444  c0.008-0.184,0.107-0.338,0.27-0.422L2.175,19.499z" fill-rule="evenodd"/></svg>