<?xml version="1.0" ?><svg id="Layer_1" style="enable-background:new 0 0 96 96;" version="1.1" viewBox="0 0 96 96" xml:space="preserve" xmlns="http://www.w3.org/2000/svg" xmlns:xlink="http://www.w3.org/1999/xlink"><g><path d="M72.7,34.7c3.6,5.7,5.7,12.5,5.7,19.8c0,20.6-16.7,37.2-37.2,37.2C20.6,91.7,4,75,4,54.5c0-20.6,16.7-37.2,37.2-37.2   c7.5,0,14.5,2.2,20.4,6.1c-0.6-1.7-1.1-3.5-1.2-5.3c-5.7-3-12.2-4.7-19.2-4.7C18.4,13.3,0,31.7,0,54.5s18.4,41.2,41.2,41.2   c22.7,0,41.2-18.4,41.2-41.2c0-6.6-1.6-12.9-4.4-18.5C76.2,35.8,74.4,35.3,72.7,34.7z"/><path d="M87.9,11.8c-0.6-0.9-1.8-1.3-2.7-0.7l-3,1.8V9.3c0-1.1-0.9-2-2-2s-2,0.9-2,2v3.5l-3-1.8c-0.9-0.5-2.2-0.2-2.7,0.7   c-0.5,0.9-0.2,2.2,0.7,2.7l3,1.8l-3,1.8c-0.9,0.6-1.3,1.8-0.7,2.7c0.5,0.9,1.8,1.3,2.7,0.7l3-1.8v3.5c0,1.1,0.9,2,2,2   c1.1,0,2-0.9,2-2v-3.5l3,1.8c0.9,0.5,2.2,0.2,2.7-0.7c0.5-0.9,0.2-2.2-0.7-2.7l-3-1.8l3-1.8C88.1,13.9,88.4,12.7,87.9,11.8z"/><path d="M80.1,0.4c-8.8,0-15.9,7.1-15.9,15.9s7.1,15.9,15.9,15.9S96,25,96,16.2S88.9,0.4,80.1,0.4z M80.1,28.1   c-6.6,0-11.9-5.3-11.9-11.9c0-6.6,5.3-11.9,11.9-11.9C86.7,4.3,92,9.7,92,16.2C92,22.8,86.7,28.1,80.1,28.1z"/><path d="M69,48.7c0-4.2-3.4-7.6-7.6-7.6h-6.1c-0.2,0-0.4,0-0.6,0.1c-0.8-3.3-3.8-5.7-7.3-5.7h-6.1c-1.7,0-3.1,0.9-3.7,2.5l-0.3,0.8   c-1.4-2-3.7-3.3-6.2-3.3h-6.1c-1.7,0-3.1,0.9-3.7,2.5l-2.9,7.2c-0.3,0.8-0.4,1.6-0.2,2.4c-0.7,0.4-1.2,1.1-1.5,1.9l-2.9,7.2   c-0.5,1.3-0.4,2.6,0.4,3.7c0.8,1.1,1.9,1.8,3.3,1.8h9c0.5,0,1-0.1,1.5-0.2L25.4,68c-0.5,1.3-0.4,2.6,0.4,3.7   c0.8,1.1,1.9,1.8,3.3,1.8h9c3.8,0,6.9-2.8,7.5-6.5c0.6,0.4,1.4,0.7,2.2,0.7h9c4.2,0,7.6-3.4,7.6-7.5c0-1.5-0.4-2.9-1.2-4.1   C66.5,55.2,69,52.2,69,48.7z M24.9,39.4H31c2,0,3.6,1.6,3.6,3.6c0,2-1.6,3.6-3.6,3.6h-9L24.9,39.4z M26.4,58h-9l2.9-7.2h6.1   c2,0,3.6,1.6,3.6,3.6C30,56.4,28.3,58,26.4,58z M38.1,69.5h-9l2.9-7.2h6.1c2,0,3.6,1.6,3.6,3.6S40.1,69.5,38.1,69.5z M42.7,58h-9   l2.9-7.2h6.1c2,0,3.6,1.6,3.6,3.6C46.3,56.4,44.7,58,42.7,58z M47.4,46.6h-9l2.9-7.2h6.1c2,0,3.6,1.6,3.6,3.6   C51,45,49.3,46.6,47.4,46.6z M56.8,63.7h-9l2.9-7.2h6.1c2,0,3.6,1.6,3.6,3.6C60.4,62.1,58.8,63.7,56.8,63.7z M61.4,52.2h-9l2.9-7.2   h6.1c2,0,3.6,1.6,3.6,3.6S63.4,52.2,61.4,52.2z"/></g></svg>