<?xml version="1.0" ?><svg id="Layer_1" style="enable-background:new 0 0 96 96;" version="1.1" viewBox="0 0 96 96" xml:space="preserve" xmlns="http://www.w3.org/2000/svg" xmlns:xlink="http://www.w3.org/1999/xlink"><path d="M81.7,39.1c-0.2-0.9-0.5-1.8-0.8-2.6h0c-0.9-2.8-2.2-5.4-3.8-7.8C70.7,18.9,59.6,13,48,13c-3.9,0-7.9,0.7-11.6,2  c-9.9,3.5-17.9,11.6-21.3,21.5c-0.3,0.9-0.6,1.8-0.8,2.6C13.6,42,13.2,45,13.2,48c0,2.8,0.2,6.2,3.3,7.2c0.5,0.2,1.1,0.3,1.6,0.3  c2.9,0.1,5.9-1.8,7.9-3.7c2.5-2.3,4.4-5.2,5.4-8.4c1.9-6,1.6-12.5,0.9-18.6c-0.1-0.5-0.1-1-0.2-1.6l0-0.8c0.2-0.3,1,0,1.3,0.1  c2.5,0.7,4.9,1.5,7.2,2.7c3.5,1.7,6.6,4.1,9.5,6.6c2.9,2.5,5.6,5.3,8.1,8.2c2.7,3.1,5.1,6.4,7.5,9.7c2.1,2.9,4.9,5.8,8.2,7.2  c7.1,3,8.9-3.2,8.9-8.9C82.8,45,82.5,42,81.7,39.1z M27.7,42.2c-0.8,2.6-2.3,4.9-4.3,6.7c-1.2,1.1-3.3,2.7-5,2.6  c-0.2,0-0.4,0-0.5-0.1c-0.6-0.2-0.6-2.9-0.6-3.5c0-2.6,0.3-5.3,1-7.9c0.2-0.8,0.4-1.6,0.7-2.3c1.8-5.3,5.1-10,9.4-13.6  c0,0.4,0.1,0.8,0.1,1.1C29.1,30.8,29.4,36.8,27.7,42.2z M77.5,53.6c-0.3,0.2-1.8-0.3-2.1-0.4c-2.6-1.1-4.9-3.5-6.5-5.8  c-2.4-3.4-5-6.8-7.7-10c-2.6-3.1-5.4-6-8.5-8.6c-3.2-2.8-6.6-5.3-10.4-7.2c-1.9-0.9-3.9-1.7-6-2.4c0.4-0.2,0.9-0.4,1.3-0.5  C41,17.6,44.5,17,48,17c10.3,0,20.1,5.3,25.8,13.9c1.4,2.2,2.5,4.5,3.4,6.9c0.3,0.8,0.5,1.5,0.7,2.3c0.6,2.6,1,5.2,1,7.9  C78.8,49.2,78.5,52.8,77.5,53.6z M48,0C21.5,0,0,21.5,0,48c0,26.5,21.5,48,48,48c26.5,0,48-21.5,48-48C96,21.5,74.5,0,48,0z M48,92  C23.7,92,4,72.3,4,48C4,23.7,23.7,4,48,4c24.3,0,44,19.7,44,44C92,72.3,72.3,92,48,92z"/></svg>