<?xml version="1.0" ?><svg id="Layer_1" style="enable-background:new 0 0 96 96;" version="1.1" viewBox="0 0 96 96" xml:space="preserve" xmlns="http://www.w3.org/2000/svg" xmlns:xlink="http://www.w3.org/1999/xlink"><path d="M14.7,35.6c-1.5,0.5-3.8,2.1-4.6,2.7c-0.9,0.7-1.9,1-3,0.8c-1.1-0.1-2-0.7-2.7-1.5l-3.6-4.7c-1.1-1.5-1.1-3.5,0.1-5  C7.3,20.3,19.7,8.4,29.6,6.5c2.7-0.5,5.4-0.3,7.8,1c9.2,4.9,9.5,22.8,11.8,32.1c0.5,2,2.4,9.9,3.9,13.5c2.8-3.1,7-10.5,8.1-12.6  c2.8-5.3,2.2-10.9-4.7-6.8c-1.4,0.8-3,0.8-4.3-0.1c-1.3-0.9-2-2.4-1.7-4c1.5-9.2,7.5-16.9,15.9-21c6.9-3.5,16.2-4.5,22.8,0.2  c6.5,4.6,7.6,12.6,6.3,20c-1,5.6-2.8,11-5.2,16.1c-7.1,15.2-23,33.9-37.2,43.1c-9.6,6.2-19.9-0.4-24.3-9.4c-1.3-2.7-2.4-6.2-3.3-9  c-1.4-4.4-2.8-8.9-4.1-13.3c-1.4-4.7-2.9-9.4-4.4-14C16.5,40.6,15.5,37.5,14.7,35.6L14.7,35.6z M91.6,28.1  c4.9-27.7-33.1-21.9-37.1,2.2c10.1-6,15.4,2.5,10.3,12.1c-5.1,9.6-9.8,15.9-12.3,15.9c-2.4,0-4.3-6.4-7.1-17.6  c-2.9-11.6-2.9-32.5-15-30.2C19,12.6,4,30.5,4,30.5l3.6,4.7c0,0,7.4-5.8,9.8-2.9c2.5,2.9,11.8,38,15,44.5  c2.7,5.7,10.3,13.2,18.5,7.8C59.2,79.2,86.7,55.8,91.6,28.1z"/></svg>