<?xml version="1.0" ?><svg id="Layer_1" style="enable-background:new 0 0 96 96;" version="1.1" viewBox="0 0 96 96" xml:space="preserve" xmlns="http://www.w3.org/2000/svg" xmlns:xlink="http://www.w3.org/1999/xlink"><path d="M76,24v8h12v16H76v48H56V48H32v48H12V48H4V32h8v-9.2h0c0.4-12,4.3-21.8,17.4-22.7V0H48v16h-8.4l-0.9,0  c-6.1,0.1-6.6,1.4-6.7,6.7v1V24v8h24v-7.4v-1.9h0c0.4-12,4.3-21.8,17.4-22.7V0H92v16h-8.4l-0.9,0c-6.1,0.1-6.6,1.4-6.7,6.7V24L76,24  z M72,26.8v-0.2v-3.8h0c0.2-7.4,1.9-10.3,9.5-10.7v0h0.8H88V4H77.7h-2.3c-0.5,0-1,0-1.5,0C62.7,4.7,60.2,13.3,60,23.5  c0,0.4,0,0.8,0,1.2v8.7V36h-4.5H28V22.8h0c0.2-7.4,1.9-10.3,9.5-10.7v0h0.8H44V4H33.7h-2.3c-0.5,0-1,0-1.5,0  C18.7,4.7,16.2,13.3,16,23.5c0,0.4,0,0.8,0,1.2v2.5V36H8v8h8v48h12V44h1.5h4H60v48h12V44h12v-8H72V26.8z"/></svg>