<?xml version="1.0" ?><svg id="Layer_1" style="enable-background:new 0 0 96 96;" version="1.1" viewBox="0 0 96 96" xml:space="preserve" xmlns="http://www.w3.org/2000/svg" xmlns:xlink="http://www.w3.org/1999/xlink"><path d="M41.8,15.6c0-0.1,0-0.2-0.1-0.3c-0.5-2.3-1.9-4.3-3.5-6.1C35.1,5.8,31,4,26.3,4c-4.8,0-8.9,1.6-12,5.3  c-2.9,3.5-4,7.8-4,12.2v52.5c0,4.5,1,9,4,12.5c3.1,3.8,7.4,5.4,12.2,5.4c5.7,0,10.2-2.4,13.2-7.3c1.4-2.2,2-4.7,2.3-7.3l1.1-9.6  l15.4,19.2c2.8,3.5,6.9,4.9,11.3,4.9c4.4,0,8.3-1.6,11.3-4.8c3.1-3.1,4.7-7,4.7-11.4c0-3.3-1-6.3-3-9L67,47l12.7-18.5  c1.8-2.6,2.6-5.5,2.6-8.6c0-4.4-1.7-8.2-4.8-11.2C74.3,5.6,70.5,4,66.1,4c-5.6,0-10,2.7-13.2,7.3l-9.3,13.5L41.8,15.6L41.8,15.6z   M45.7,14.8l4-5.8c3.9-5.7,9.5-9,16.5-9c5.4,0,10.3,2,14.1,5.8c3.9,3.8,6,8.6,6,14.1c0,3.9-1.1,7.6-3.3,10.8L72,46.8l13.9,17.6  c2.6,3.3,3.9,7.2,3.9,11.4c0,5.5-2,10.3-5.8,14.2c-3.8,3.9-8.7,6-14.2,6c-5.7,0-10.8-1.9-14.4-6.4l-9.3-11.7c-0.4,3.2-1.2,6.3-2.9,9  c-3.8,6-9.6,9.1-16.6,9.1c-6,0-11.4-2.1-15.3-6.9c-3.5-4.3-4.9-9.6-4.9-15.1V21.6c0-5.4,1.5-10.6,5-14.8C15,2.2,20.3,0,26.3,0  c5.8,0,11,2.2,14.9,6.5c2.1,2.3,3.7,4.9,4.4,7.9C45.6,14.5,45.7,14.6,45.7,14.8z"/></svg>