<?xml version="1.0" ?><!DOCTYPE svg  PUBLIC '-//W3C//DTD SVG 1.1//EN'  'http://www.w3.org/Graphics/SVG/1.1/DTD/svg11.dtd'><svg enable-background="new 0 0 512 512" height="512px" version="1.1" viewBox="0 0 512 512" width="512px" xml:space="preserve" xmlns="http://www.w3.org/2000/svg" xmlns:xlink="http://www.w3.org/1999/xlink"><g id="_x30_1"/><g id="_x30_2"/><g id="_x30_3"/><g id="_x30_4"/><g id="_x30_5"/><g id="_x30_6"/><g id="_x30_7"/><g id="_x30_8"/><g id="_x30_9"/><g id="_x31_0"/><g id="_x31_1"/><g id="_x31_2"/><g id="_x31_3"/><g id="_x31_4"/><g id="_x31_5"/><g id="_x31_6"/><g id="_x31_7"/><g id="_x31_8"/><g id="_x31_9"/><g id="_x32_0"/><g id="_x32_1"/><g id="_x32_2"/><g id="_x32_3"/><g id="_x32_4"/><g id="_x32_5"/><g id="_x32_6"/><g id="_x32_7"/><g id="_x32_8"/><g id="_x32_9"/><g id="_x33_0"/><g id="_x33_1"/><g id="_x33_2"/><g id="_x33_3"/><g id="_x33_4"/><g id="_x33_5"/><g id="_x33_6"/><g id="_x33_7"/><g id="_x33_8"/><g id="_x33_9"/><g id="_x34_0"/><g id="_x34_1"/><g id="_x34_2"/><g id="_x34_3"/><g id="_x34_4"/><g id="_x34_5"/><g id="_x34_6"/><g id="_x34_7"/><g id="_x34_8"/><g id="_x34_9"/><g id="_x35_0"><g><path d="M185.152,56.849h77.521c5.572,0,10.088-4.517,10.088-10.088s-4.517-10.088-10.088-10.088h-77.521    c-5.572,0-10.088,4.517-10.088,10.088S179.581,56.849,185.152,56.849z" fill="#E2247A"/><path d="M410.327,127.431h-35.634V79.587c0-0.003,0-0.006,0-0.01s0-0.006,0-0.01V37.727    c0-16.617-13.518-30.135-30.133-30.135H94.286c-16.631,0-30.162,13.519-30.162,30.135v41.841c0,0.003,0,0.006,0,0.01    s0,0.006,0,0.01v355.189c0,0.003,0,0.006,0,0.01s0,0.006,0,0.01v39.451c0,16.631,13.53,30.162,30.162,30.162H344.56    c16.616,0,30.133-13.531,30.133-30.162v-39.451c0-0.003,0-0.006,0-0.01s0-0.006,0-0.01v-99.225h35.634    c20.705,0,37.549-16.845,37.549-37.549V164.98C447.876,144.276,431.031,127.431,410.327,127.431z M94.286,27.768H344.56    c5.49,0,9.957,4.467,9.957,9.958v31.762H84.301V37.727C84.301,32.235,88.78,27.768,94.286,27.768z M344.56,484.232H94.286    c-5.506,0-9.985-4.479-9.985-9.985v-29.373h270.216v29.373C354.517,479.752,350.05,484.232,344.56,484.232z M354.517,424.697    H84.301V89.666h270.216v37.766h-153.3c-20.704,0-37.548,16.845-37.548,37.549v133.021c0,2.479,0.244,4.912,0.713,7.275    c2.03,10.242,8.269,19.16,17.07,24.624l-14.902,39.271c-1.518,4-0.347,8.522,2.92,11.284c0.22,0.186,0.448,0.359,0.68,0.524    c0.074,0.053,0.151,0.099,0.226,0.149c0.16,0.107,0.322,0.213,0.487,0.31c0.092,0.055,0.187,0.104,0.281,0.156    c0.153,0.084,0.307,0.165,0.463,0.24c0.101,0.049,0.202,0.094,0.303,0.139c0.156,0.069,0.312,0.133,0.47,0.194    c0.104,0.04,0.207,0.078,0.312,0.114c0.163,0.056,0.327,0.106,0.492,0.154c0.101,0.029,0.201,0.06,0.303,0.086    c0.182,0.046,0.365,0.084,0.548,0.12c0.087,0.017,0.173,0.038,0.26,0.053c0.264,0.045,0.529,0.08,0.796,0.104    c0.007,0.001,0.014,0.002,0.021,0.003c0.274,0.023,0.55,0.034,0.826,0.036c0.015,0,0.031,0.002,0.046,0.002    c0.029,0,0.058-0.005,0.087-0.006c0.378-0.003,0.755-0.028,1.132-0.074c0.044-0.005,0.089-0.008,0.133-0.014    c0.384-0.052,0.765-0.131,1.143-0.228c0.072-0.019,0.143-0.037,0.214-0.057c0.372-0.104,0.739-0.228,1.101-0.375    c0.061-0.025,0.121-0.053,0.181-0.079c0.376-0.163,0.748-0.342,1.108-0.553l78.316-45.903h95.119V424.697z M427.699,298.002    c0,9.58-7.793,17.373-17.373,17.373h-45.722H256.659c-0.448,0-0.895,0.03-1.336,0.089c-1.325,0.177-2.605,0.616-3.766,1.296    l-55.994,32.82l8.137-21.443c1.014-2.673,0.847-5.65-0.46-8.192c-1.307-2.542-3.632-4.411-6.396-5.141    c-0.957-0.252-1.877-0.582-2.756-0.979c-6.151-2.784-10.244-8.935-10.244-15.822V164.98c0-9.579,7.793-17.373,17.372-17.373    h163.389h45.722c9.58,0,17.373,7.793,17.373,17.373V298.002z" fill="#E2247A"/><path d="M221.62,455.013h-9.913c-5.572,0-10.088,4.517-10.088,10.088s4.517,10.088,10.088,10.088h9.913    c5.572,0,10.088-4.517,10.088-10.088S227.191,455.013,221.62,455.013z" fill="#E2247A"/><path d="M339.04,170.545c-14.058,0-23.072,5.309-29.656,12.749c-6.581-7.44-15.588-12.749-29.63-12.749    c-21.917,0-39.747,16.931-39.747,37.742c0,32.042,31.771,61.664,62.496,90.31c1.938,1.807,4.408,2.71,6.879,2.71    c2.469,0,4.939-0.902,6.876-2.707c30.727-28.621,62.499-58.216,62.499-90.313C378.758,187.477,360.94,170.545,339.04,170.545z     M309.386,277.416c-25.235-23.675-49.202-47.795-49.202-69.128c0-9.686,8.779-17.565,19.57-17.565    c9.67,0,14.322,3.458,20.74,15.416c1.757,3.274,5.172,5.317,8.889,5.317s7.131-2.043,8.889-5.317    c6.418-11.958,11.077-15.416,20.769-15.416c10.775,0,19.541,7.879,19.541,17.565C358.581,229.667,334.619,253.764,309.386,277.416    z" fill="#E2247A"/><path d="M121.39,130.15c-5.572,0-10.088,4.517-10.088,10.088v56.79c0,5.572,4.517,10.088,10.088,10.088    s10.088-4.517,10.088-10.088v-56.79C131.478,134.667,126.961,130.15,121.39,130.15z" fill="#E2247A"/><path d="M121.39,216.351c-5.572,0-10.088,4.517-10.088,10.088v5.326c0,5.572,4.517,10.088,10.088,10.088    s10.088-4.517,10.088-10.088v-5.326C131.478,220.868,126.961,216.351,121.39,216.351z" fill="#E2247A"/></g></g></svg>