<?xml version="1.0" ?><!DOCTYPE svg  PUBLIC '-//W3C//DTD SVG 1.1//EN'  'http://www.w3.org/Graphics/SVG/1.1/DTD/svg11.dtd'><svg enable-background="new 0 0 512 512" height="512px" version="1.1" viewBox="0 0 512 512" width="512px" xml:space="preserve" xmlns="http://www.w3.org/2000/svg" xmlns:xlink="http://www.w3.org/1999/xlink"><g id="_x30_1"/><g id="_x30_2"/><g id="_x30_3"/><g id="_x30_4"/><g id="_x30_5"/><g id="_x30_6"/><g id="_x30_7"/><g id="_x30_8"/><g id="_x30_9"/><g id="_x31_0"/><g id="_x31_1"/><g id="_x31_2"/><g id="_x31_3"/><g id="_x31_4"/><g id="_x31_5"/><g id="_x31_6"/><g id="_x31_7"/><g id="_x31_8"/><g id="_x31_9"/><g id="_x32_0"/><g id="_x32_1"/><g id="_x32_2"/><g id="_x32_3"/><g id="_x32_4"/><g id="_x32_5"/><g id="_x32_6"/><g id="_x32_7"/><g id="_x32_8"/><g id="_x32_9"/><g id="_x33_0"/><g id="_x33_1"/><g id="_x33_2"/><g id="_x33_3"/><g id="_x33_4"/><g id="_x33_5"/><g id="_x33_6"/><g id="_x33_7"/><g id="_x33_8"/><g id="_x33_9"/><g id="_x34_0"/><g id="_x34_1"/><g id="_x34_2"/><g id="_x34_3"/><g id="_x34_4"/><g id="_x34_5"/><g id="_x34_6"/><g id="_x34_7"/><g id="_x34_8"/><g id="_x34_9"/><g id="_x35_0"><g><path d="M223.426,138.771h0.172c5.563,0,10.074-4.51,10.074-10.074s-4.511-10.074-10.074-10.074h-0.172    c-5.563,0-10.074,4.51-10.074,10.074S217.862,138.771,223.426,138.771z" fill="#E2247A"/><path d="M284.84,137.942h0.172c5.563,0,10.074-4.51,10.074-10.074s-4.511-10.074-10.074-10.074h-0.172    c-5.563,0-10.074,4.51-10.074,10.074S279.276,137.942,284.84,137.942z" fill="#E2247A"/><path d="M369.319,244.564c-0.679-14.649-7.272-27.873-17.587-37.581c9.518-16.486,14.541-35.188,14.541-54.309    c0-13.151-2.297-25.891-6.839-38.005c19.021-9.647,31.558-29.414,31.558-51.359c0-31.729-25.813-57.542-57.541-57.542    c-25.676,0-47.608,16.692-54.956,40.316c-12.457-2.422-25.538-2.639-38.162-0.606c-7.584-23.248-29.491-39.709-54.743-39.709    c-31.729,0-57.543,25.813-57.543,57.542c0,20.689,11.122,39.542,28.536,49.729c-1.696,4.34-3.106,8.797-4.233,13.33    c-1.874,7.308-3.181,15.594-3.655,25.118c-0.062,1.225,0.11,2.404,0.457,3.51c0.407,19.212,5.862,37.864,15.869,54.263    c-7.646,8.023-12.908,18.104-14.707,29.239c-7.683,1.857-15.962,4.517-24.738,7.97c-0.092,0.037-0.185,0.074-0.275,0.113    c-21.838,9.348-34.279,32.755-29.584,55.658c3.636,17.73,18.788,36.677,50.413,36.677c0,0,0,0,0.001,0    c1.02,0,2.063-0.041,3.107-0.082c-1.237,13.573,0.499,26.85,4.978,37.758c-16.222,12.833-26.881,34.287-26.881,58.551    c0,39.199,27.8,71.089,61.971,71.089c30.17,0,55.362-24.842,60.869-57.621c3.59,0.346,7.171,0.521,10.719,0.521    c2.437,0,4.886-0.103,7.336-0.266c5.736,32.441,30.788,56.937,60.736,56.937c34.186,0,61.998-31.891,61.998-71.089    c0-24.047-10.478-45.329-26.463-58.2c3.058-9.304,7.202-24.623,7.317-37.373c29.128-1.732,43.737-20.124,45.282-38.373    C418.855,280.039,404.404,255.128,369.319,244.564z M346.708,240.36c-0.201-0.009-0.403-0.024-0.604-0.032    c-0.783-0.03-1.563-0.047-2.335-0.047c-0.818,0-1.624,0.024-2.425,0.055c-0.135,0.005-0.272,0.003-0.406,0.009    c-0.188,0.009-0.37,0.027-0.558,0.038c-13.966,0.757-25.104,6.147-33.26,13.745c-0.139,0.129-0.273,0.261-0.411,0.391    c-0.369,0.352-0.736,0.706-1.092,1.066c-0.265,0.266-0.521,0.537-0.779,0.808c-0.215,0.227-0.432,0.453-0.641,0.684    c-0.365,0.397-0.72,0.801-1.07,1.207c-0.089,0.104-0.18,0.208-0.268,0.313c-6.506,7.676-10.531,16.946-11.737,26.175    c-0.034,0.263-0.056,0.522-0.085,0.784c-0.005,0.036-0.008,0.071-0.012,0.107c-1.819,16.14,4.51,30.246,16.878,39.351    c-14.515,16-31.511,32.133-48.425,47.928c-3.786-3.51-7.658-7.115-11.36-10.712c-5.622-5.436-18.661-18.183-20.045-19.535    l-17.815-18.606c-0.749-0.83-1.498-1.67-2.246-2.516c6.727-7.264,11.145-16.98,13.093-27.033c0.085-0.431,0.168-0.862,0.244-1.295    c0.02-0.111,0.037-0.222,0.056-0.333c1.367-8.045,1.149-16.433-0.978-24.298c-2.004-7.41-5.524-13.75-10.29-18.852    c-0.123-0.133-0.249-0.264-0.373-0.396c-0.209-0.218-0.419-0.436-0.633-0.649c-7.017-7.116-17.117-12.222-30.906-13.172    c-0.294-0.021-0.591-0.039-0.888-0.056c-0.434-0.024-0.866-0.049-1.307-0.065c-0.833-0.032-1.672-0.052-2.521-0.052    c0,0,0,0-0.001,0l0,0c-0.001,0-0.001,0-0.001,0c-0.545,0-1.094,0.006-1.646,0.019c2.467-6.662,6.993-12.467,12.872-16.784    c0.149-0.11,0.301-0.219,0.452-0.327c0.276-0.197,0.555-0.392,0.838-0.583c0.143-0.097,0.287-0.19,0.431-0.285    c0.286-0.188,0.573-0.375,0.865-0.556c0.165-0.102,0.331-0.2,0.497-0.299c0.273-0.164,0.545-0.329,0.822-0.487    c0.277-0.157,0.558-0.307,0.838-0.458c0.172-0.092,0.34-0.188,0.514-0.278c4.441-2.306,9.343-3.814,14.413-4.429    c0.019-0.002,0.038-0.005,0.058-0.007c0.516-0.062,1.034-0.112,1.554-0.156c0.056-0.004,0.111-0.011,0.168-0.016    c0.485-0.039,0.973-0.065,1.46-0.087c0.085-0.004,0.169-0.011,0.254-0.015c0.564-0.022,1.131-0.034,1.697-0.034    c0.752,0,1.486,0.014,2.21,0.039c0.101,0.003,0.198,0.008,0.298,0.011c9.837,0.377,17.141,3.045,23.46,8.626    c0.055,0.048,0.109,0.098,0.164,0.147c0.354,0.316,0.702,0.646,1.05,0.98c0.163,0.158,0.327,0.313,0.49,0.476    c0.191,0.19,0.381,0.391,0.57,0.587c4.344,4.507,8.427,10.62,12.776,18.74c1.753,3.272,5.163,5.315,8.875,5.317    c0.002,0,0.003,0,0.005,0c3.71,0,7.121-2.04,8.876-5.309c4.23-7.88,8.207-13.873,12.412-18.34c0.345-0.365,0.69-0.725,1.04-1.071    c0.101-0.099,0.201-0.194,0.302-0.292c0.409-0.396,0.819-0.784,1.237-1.155c0.014-0.013,0.028-0.026,0.043-0.039    c6.329-5.608,13.645-8.288,23.503-8.667c0.101-0.003,0.201-0.008,0.303-0.011c0.723-0.024,1.457-0.039,2.208-0.039    c0.961,0,1.916,0.041,2.867,0.103c0.146,0.01,0.293,0.016,0.439,0.027c0.899,0.068,1.793,0.167,2.681,0.29    c0.179,0.025,0.356,0.051,0.533,0.078c0.88,0.133,1.753,0.29,2.618,0.477c0.15,0.032,0.299,0.069,0.448,0.104    c0.897,0.204,1.789,0.429,2.669,0.69c0.047,0.014,0.093,0.03,0.14,0.044c0.879,0.264,1.747,0.561,2.604,0.881    c0.098,0.037,0.197,0.07,0.295,0.108c0.854,0.327,1.693,0.685,2.523,1.067c0.122,0.056,0.245,0.111,0.367,0.168    c0.809,0.382,1.604,0.792,2.389,1.227c0.135,0.075,0.268,0.15,0.401,0.226c0.749,0.427,1.485,0.877,2.208,1.351    c8.208,5.403,14.094,13.588,15.986,23.04c-0.051-0.004-0.102-0.005-0.153-0.009C347.855,240.418,347.281,240.388,346.708,240.36z     M148.195,63.31c0-20.62,16.775-37.395,37.395-37.395c18.822,0,34.785,14.062,37.13,32.708c0.362,2.878,1.947,5.461,4.35,7.086    c2.402,1.626,5.39,2.138,8.196,1.402c7.283-1.906,14.828-2.873,22.426-2.873c8.756,0,17.366,1.267,25.591,3.766    c2.879,0.874,5.996,0.417,8.501-1.247c2.505-1.663,4.137-4.359,4.447-7.35c1.987-19.095,17.988-33.494,37.221-33.494    c20.618,0,37.393,16.775,37.393,37.395c0,14.64-8.578,27.783-21.482,33.857c-2.168-3.272-4.404-6.268-6.622-9.059    c-3.461-4.356-9.798-5.082-14.154-1.621s-5.082,9.798-1.621,14.154c9.157,11.526,17.81,25.838,19.157,52.249    c-0.036,15.077-3.896,29.828-11.204,42.919c-0.49-0.218-0.991-0.41-1.486-0.615c-0.313-0.129-0.623-0.263-0.938-0.388    c-0.582-0.229-1.17-0.444-1.759-0.656c-0.387-0.139-0.772-0.278-1.162-0.41c-0.558-0.188-1.118-0.366-1.682-0.539    c-0.435-0.133-0.87-0.262-1.31-0.386c-0.539-0.152-1.079-0.298-1.623-0.436c-0.478-0.121-0.959-0.233-1.44-0.343    c-0.519-0.118-1.036-0.235-1.559-0.341c-0.526-0.106-1.057-0.199-1.588-0.292c-0.49-0.085-0.979-0.175-1.472-0.249    c-0.586-0.088-1.177-0.158-1.768-0.23c-0.449-0.054-0.896-0.117-1.348-0.162c-0.683-0.068-1.372-0.114-2.061-0.16    c-0.368-0.025-0.734-0.061-1.103-0.08c-1.062-0.053-2.129-0.083-3.204-0.083c-0.939,0-1.857,0.02-2.768,0.049    c-0.252,0.009-0.501,0.02-0.75,0.03c-0.74,0.031-1.471,0.071-2.191,0.122c-0.18,0.013-0.361,0.022-0.54,0.036    c-0.904,0.069-1.794,0.155-2.669,0.255c-0.11,0.013-0.219,0.028-0.328,0.041c-0.822,0.099-1.632,0.211-2.429,0.335    c-0.102,0.016-0.204,0.031-0.306,0.047c-11.649,1.881-20.645,6.607-28.133,13.515c0.039-0.361,0.063-0.727,0.063-1.099v-22.379    c4.92-0.664,8.717-4.87,8.717-9.972c0-5.563-4.511-10.074-10.074-10.074h-17.434c-5.563,0-10.074,4.51-10.074,10.074    c0,5.102,3.797,9.308,8.717,9.972v22.379c0,0.229,0.02,0.452,0.034,0.677c-7.396-6.685-16.27-11.256-27.698-13.097    c-0.082-0.013-0.166-0.025-0.25-0.039c-0.818-0.128-1.648-0.244-2.494-0.345c-0.094-0.011-0.188-0.024-0.281-0.035    c-0.882-0.101-1.778-0.187-2.689-0.257c-0.172-0.013-0.348-0.023-0.521-0.035c-0.727-0.051-1.463-0.092-2.209-0.123    c-0.247-0.01-0.494-0.021-0.743-0.029c-0.911-0.03-1.831-0.05-2.771-0.05c-1.165,0-2.321,0.04-3.471,0.103    c-0.281,0.016-0.561,0.042-0.842,0.061c-0.91,0.062-1.814,0.14-2.713,0.24c-0.261,0.029-0.521,0.062-0.782,0.094    c-0.985,0.122-1.964,0.267-2.935,0.434c-0.15,0.026-0.302,0.049-0.452,0.076c-2.377,0.427-4.706,0.982-6.976,1.667    c-0.011,0.003-0.021,0.007-0.031,0.01c-1.047,0.316-2.078,0.663-3.1,1.031c-0.284,0.102-0.565,0.21-0.849,0.316    c-0.723,0.273-1.438,0.558-2.147,0.857c-0.405,0.169-0.811,0.338-1.212,0.517c-0.509,0.228-1.011,0.469-1.512,0.709    c-0.438,0.209-0.885,0.399-1.317,0.618c-7.863-13.514-11.998-28.807-11.998-44.499c0-5.924,0.574-11.734,1.702-17.406    c3.392-16.151,10.064-26.546,17.029-35.314c3.461-4.356,2.734-10.693-1.622-14.154c-4.355-3.461-10.693-2.734-14.154,1.623    c-1.968,2.478-3.951,5.114-5.888,7.966C155.248,88.709,148.195,76.594,148.195,63.31z M146.129,318.769    c-16.813,0-27.995-7.5-30.676-20.576c-2.38-11.606,2.923-26.656,17.646-33.034c10.657-4.184,20.353-7.047,28.849-8.526    c0.155-0.027,0.302-0.054,0.432-0.079c0.276-0.047,0.547-0.091,0.818-0.134c0.148-0.024,0.299-0.05,0.447-0.073    c0.422-0.066,0.845-0.13,1.283-0.197c2.502-0.351,4.916-0.548,7.212-0.607c0.459-0.012,0.921-0.026,1.37-0.026    c0,0,0.001,0,0.002,0c0.851,0,1.68,0.026,2.496,0.068c0.137,0.007,0.272,0.016,0.408,0.023    c13.065,0.797,21.533,7.065,24.562,18.262c0.207,0.764,0.38,1.542,0.53,2.325c0.122,0.652,0.224,1.3,0.308,1.94    c1.571,12.011-2.972,24.783-10.188,31.219c-0.038,0.034-0.076,0.07-0.114,0.104c-0.155,0.136-0.314,0.264-0.473,0.394    c-0.18,0.148-0.359,0.299-0.544,0.439c-0.034,0.026-0.07,0.051-0.104,0.078c-0.59,0.444-1.197,0.853-1.821,1.217    c-0.017,0.009-0.03,0.021-0.047,0.031c-1.166,0.676-2.378,1.2-3.63,1.533c-11.804,3.127-23.617,3.996-23.729,4.004    c-0.408,0.029-0.813,0.083-1.214,0.162c-0.197,0.027-0.393,0.063-0.588,0.102C154.689,318.306,150.235,318.769,146.129,318.769z     M189.305,486.085c-23.062,0-41.822-22.853-41.822-50.942c0-20.538,10.035-38.264,24.443-46.316    c0.055-0.029,0.112-0.052,0.167-0.082c2.013-1.114,4.073-2.022,6.173-2.729c0.045-0.015,0.088-0.031,0.133-0.046    c0.604-0.2,1.213-0.377,1.823-0.544c0.123-0.033,0.244-0.072,0.368-0.104c0.535-0.14,1.075-0.258,1.615-0.372    c0.188-0.039,0.373-0.086,0.563-0.123c0.491-0.095,0.985-0.167,1.48-0.241c0.23-0.034,0.459-0.078,0.691-0.107    c0.495-0.063,0.994-0.103,1.492-0.145c0.229-0.019,0.454-0.049,0.684-0.063c0.727-0.046,1.457-0.07,2.189-0.07    c23.077,0,41.852,22.852,41.852,50.941c0,0.503-0.024,1.028-0.048,1.582c-0.009,0.201-0.001,0.399,0.003,0.598    C230.168,464.405,211.781,486.085,189.305,486.085z M370.814,434.715c0,28.089-18.773,50.942-41.85,50.942    c-23.063,0-41.824-22.853-41.824-50.942c0-28.089,18.762-50.941,41.824-50.941c0.759,0,1.514,0.028,2.265,0.077    c0.284,0.019,0.565,0.053,0.849,0.079c0.462,0.042,0.924,0.083,1.383,0.143c0.334,0.043,0.665,0.102,0.997,0.154    c0.409,0.065,0.817,0.132,1.224,0.212c0.332,0.066,0.662,0.142,0.992,0.217c0.415,0.095,0.83,0.194,1.242,0.304    c0.298,0.08,0.595,0.164,0.891,0.25c0.473,0.14,0.945,0.29,1.415,0.451c0.222,0.075,0.442,0.15,0.663,0.229    c0.624,0.228,1.244,0.471,1.861,0.734c0.061,0.026,0.123,0.05,0.185,0.076c1.472,0.64,2.92,1.382,4.343,2.229    c0.04,0.024,0.083,0.042,0.123,0.065C361.254,397.307,370.814,414.674,370.814,434.715z M343.818,365.703    c-0.613-0.173-1.229-0.338-1.847-0.49c-0.419-0.103-0.841-0.198-1.264-0.291c-0.478-0.105-0.955-0.202-1.435-0.294    c-0.414-0.08-0.827-0.164-1.244-0.234c-0.816-0.138-1.635-0.258-2.455-0.358c-0.324-0.04-0.65-0.068-0.977-0.102    c-0.639-0.067-1.278-0.124-1.92-0.167c-0.306-0.021-0.612-0.042-0.92-0.058c-0.93-0.049-1.861-0.082-2.793-0.082    c-1.041,0-2.076,0.032-3.105,0.09c-0.346,0.02-0.688,0.06-1.031,0.086c-0.681,0.052-1.361,0.101-2.035,0.178    c-0.407,0.046-0.809,0.113-1.213,0.168c-0.605,0.083-1.211,0.162-1.811,0.265c-0.43,0.074-0.854,0.166-1.281,0.25    c-0.566,0.111-1.134,0.22-1.695,0.348c-0.438,0.101-0.871,0.217-1.307,0.329c-0.541,0.139-1.084,0.275-1.621,0.43    c-0.439,0.126-0.873,0.268-1.309,0.405c-0.523,0.165-1.046,0.33-1.563,0.511c-0.438,0.152-0.871,0.316-1.305,0.48    c-0.506,0.19-1.011,0.382-1.511,0.587c-0.434,0.178-0.863,0.365-1.292,0.553c-0.489,0.215-0.978,0.434-1.462,0.663    c-0.428,0.202-0.851,0.412-1.273,0.625c-0.476,0.239-0.948,0.484-1.418,0.736c-0.418,0.226-0.834,0.456-1.247,0.692    c-0.462,0.263-0.92,0.533-1.375,0.809c-0.409,0.248-0.815,0.499-1.218,0.757c-0.449,0.287-0.893,0.582-1.335,0.881    c-0.397,0.269-0.792,0.54-1.184,0.818c-0.436,0.311-0.865,0.63-1.293,0.952c-0.386,0.289-0.771,0.579-1.149,0.878    c-0.421,0.333-0.834,0.675-1.248,1.02c-0.372,0.309-0.745,0.617-1.111,0.936c-0.408,0.355-0.808,0.723-1.208,1.09    c-0.356,0.326-0.715,0.649-1.065,0.985c-0.396,0.38-0.782,0.773-1.17,1.164c-0.34,0.342-0.683,0.679-1.016,1.029    c-0.387,0.407-0.762,0.828-1.139,1.246c-0.318,0.353-0.643,0.699-0.954,1.059c-0.383,0.442-0.752,0.9-1.125,1.354    c-0.29,0.354-0.588,0.7-0.872,1.061c-0.404,0.512-0.791,1.039-1.182,1.564c-0.238,0.319-0.484,0.63-0.717,0.954    c-0.607,0.846-1.199,1.708-1.773,2.586c-0.214,0.327-0.414,0.668-0.623,1c-0.358,0.568-0.721,1.134-1.064,1.715    c-0.239,0.405-0.464,0.822-0.697,1.233c-0.295,0.522-0.596,1.042-0.88,1.574c-0.234,0.439-0.454,0.889-0.681,1.334    c-0.264,0.519-0.531,1.036-0.785,1.563c-0.221,0.46-0.428,0.93-0.64,1.397c-0.238,0.526-0.479,1.049-0.707,1.582    c-0.204,0.479-0.396,0.967-0.592,1.452c-0.216,0.534-0.432,1.067-0.636,1.608c-0.186,0.496-0.361,0.998-0.538,1.499    c-0.192,0.543-0.384,1.086-0.563,1.636c-0.167,0.509-0.324,1.023-0.481,1.538c-0.169,0.555-0.336,1.11-0.493,1.671    c-0.146,0.521-0.284,1.046-0.42,1.571c-0.146,0.566-0.289,1.134-0.424,1.706c-0.124,0.531-0.242,1.065-0.356,1.6    c-0.123,0.577-0.24,1.157-0.351,1.739c-0.103,0.541-0.2,1.083-0.292,1.628c-0.099,0.589-0.19,1.181-0.276,1.774    c-0.08,0.547-0.156,1.096-0.225,1.647c-0.075,0.601-0.14,1.205-0.201,1.81c-0.057,0.554-0.111,1.108-0.156,1.666    c-0.018,0.22-0.046,0.437-0.062,0.657c-5.39,0.378-10.738,0.272-16.177-0.314c-0.008-0.09-0.02-0.179-0.027-0.269    c-0.046-0.531-0.107-1.057-0.163-1.585c-0.065-0.625-0.128-1.251-0.208-1.871c-0.069-0.539-0.153-1.072-0.233-1.607    c-0.09-0.601-0.178-1.201-0.28-1.797c-0.094-0.539-0.199-1.072-0.303-1.607c-0.112-0.581-0.226-1.162-0.351-1.738    c-0.116-0.537-0.243-1.068-0.37-1.6c-0.135-0.563-0.271-1.126-0.418-1.685c-0.14-0.531-0.287-1.059-0.438-1.584    c-0.156-0.547-0.316-1.093-0.483-1.635c-0.162-0.523-0.329-1.043-0.502-1.561c-0.177-0.534-0.359-1.064-0.548-1.591    c-0.183-0.513-0.37-1.023-0.563-1.53c-0.199-0.521-0.404-1.038-0.613-1.552c-0.203-0.5-0.408-0.998-0.621-1.491    c-0.219-0.508-0.446-1.01-0.676-1.511c-0.223-0.487-0.446-0.975-0.679-1.455c-0.239-0.494-0.487-0.98-0.736-1.468    c-0.242-0.473-0.481-0.946-0.732-1.412c-0.26-0.482-0.531-0.956-0.801-1.43c-0.259-0.456-0.514-0.914-0.781-1.362    c-0.282-0.473-0.577-0.934-0.868-1.398c-0.272-0.435-0.541-0.873-0.821-1.3c-0.31-0.469-0.632-0.925-0.95-1.385    c-0.281-0.407-0.557-0.819-0.846-1.219c-0.35-0.482-0.715-0.95-1.074-1.422c-0.275-0.36-0.542-0.728-0.823-1.082    c-0.637-0.802-1.29-1.587-1.958-2.355c-0.267-0.306-0.546-0.597-0.817-0.898c-0.423-0.468-0.842-0.94-1.275-1.394    c-0.317-0.333-0.647-0.65-0.972-0.976c-0.402-0.404-0.802-0.813-1.213-1.205c-0.343-0.327-0.696-0.64-1.046-0.958    c-0.406-0.371-0.811-0.745-1.225-1.104c-0.362-0.314-0.733-0.614-1.102-0.919c-0.417-0.345-0.831-0.691-1.255-1.024    c-0.377-0.296-0.762-0.58-1.144-0.866c-0.43-0.322-0.858-0.643-1.294-0.952c-0.391-0.276-0.785-0.542-1.181-0.809    c-0.442-0.299-0.886-0.595-1.335-0.882c-0.401-0.255-0.807-0.502-1.213-0.747c-0.456-0.275-0.914-0.547-1.377-0.81    c-0.411-0.233-0.825-0.46-1.242-0.683c-0.469-0.252-0.941-0.498-1.418-0.736c-0.42-0.211-0.843-0.417-1.268-0.617    c-0.484-0.229-0.972-0.448-1.462-0.662c-0.427-0.187-0.854-0.371-1.287-0.547c-0.499-0.204-1.002-0.396-1.507-0.586    c-0.434-0.163-0.866-0.324-1.304-0.476c-0.515-0.179-1.035-0.344-1.556-0.508c-0.436-0.137-0.87-0.276-1.31-0.402    c-0.535-0.154-1.076-0.291-1.617-0.429c-0.434-0.11-0.865-0.226-1.302-0.325c-0.562-0.128-1.128-0.237-1.695-0.348    c-0.424-0.083-0.846-0.173-1.273-0.247c-0.599-0.102-1.204-0.182-1.809-0.264c-0.402-0.055-0.803-0.121-1.207-0.167    c-0.674-0.077-1.354-0.126-2.033-0.178c-0.343-0.025-0.682-0.064-1.026-0.084c-1.026-0.059-2.058-0.09-3.097-0.09    c-0.965,0-1.926,0.034-2.883,0.084c-0.212,0.011-0.424,0.024-0.636,0.038c-4.696,0.299-9.297,1.186-13.766,2.674    c-3.034-8.609-3.849-19.459-2.234-30.353c5.225-0.669,12.674-1.86,20.279-3.875c0.227-0.061,0.445-0.137,0.67-0.201    c1.549,1.788,3.108,3.551,4.668,5.278c0.065,0.073,0.132,0.144,0.199,0.215l18.033,18.833c0.076,0.08,0.154,0.158,0.233,0.235    c0.143,0.139,14.292,13.975,20.227,19.714c4.278,4.155,8.7,8.253,12.978,12.217c1.849,1.713,3.698,3.427,5.539,5.148    c1.937,1.81,4.408,2.715,6.88,2.715c2.467,0,4.933-0.901,6.867-2.704c21.086-19.648,42.825-39.914,60.729-60.309    c11.241,2.865,21.882,3.861,24.485,4.072c0.067,0.012,0.133,0.02,0.2,0.031c0.029,6.864-2.269,19.035-5.119,28.705    c-0.642-0.218-1.288-0.42-1.937-0.614C344.42,365.869,344.119,365.788,343.818,365.703z M397.024,299.069    c-1.033,12.193-12.704,20.071-29.733,20.071c-3.953,0-8.201-0.41-12.625-1.218c-0.365-0.066-0.74-0.113-1.109-0.139    c-0.111-0.008-11.263-0.819-22.402-3.773c-1.549-0.412-3.002-0.91-4.388-1.464c-0.38-0.15-0.752-0.306-1.119-0.467    c-0.421-0.186-0.833-0.378-1.237-0.577c-0.303-0.148-0.604-0.298-0.896-0.454c-0.41-0.218-0.807-0.446-1.197-0.679    c-0.282-0.167-0.565-0.334-0.838-0.509c-0.352-0.225-0.687-0.461-1.021-0.697c-0.294-0.208-0.59-0.415-0.871-0.632    c-0.266-0.204-0.515-0.418-0.769-0.63c-0.323-0.271-0.649-0.541-0.954-0.824c-0.164-0.152-0.315-0.313-0.475-0.468    c-0.363-0.358-0.727-0.717-1.061-1.094c-0.051-0.056-0.095-0.117-0.145-0.173c-2.611-2.997-4.299-6.543-4.971-10.484    c-0.014-0.076-0.032-0.149-0.044-0.226c-0.083-0.518-0.135-1.048-0.183-1.58c-0.018-0.199-0.043-0.394-0.057-0.594    c-0.03-0.479-0.035-0.967-0.037-1.456c-0.002-0.255-0.008-0.509-0.001-0.768c0.013-0.488,0.047-0.982,0.087-1.479    c0.021-0.251,0.039-0.501,0.066-0.755c0.073-0.659,0.16-1.321,0.283-1.994c1.048-5.755,4.033-11.716,8.863-16.434    c0.059-0.057,0.118-0.113,0.177-0.169c0.244-0.235,0.493-0.466,0.746-0.694c0.17-0.153,0.344-0.302,0.519-0.452    c0.151-0.131,0.303-0.262,0.458-0.391c0.301-0.248,0.606-0.491,0.918-0.729c0.039-0.03,0.077-0.061,0.116-0.09    c4.771-3.609,10.854-6.052,18.072-6.526c0.845-0.055,1.701-0.092,2.58-0.092c1.318,0,2.674,0.089,4.04,0.217    c0.681,0.064,1.361,0.121,2.048,0.217c0.21,0.032,0.42,0.063,0.63,0.094c0.104,0.016,0.209,0.031,0.313,0.047    c0.473,0.069,0.946,0.135,1.419,0.224c0.054,0.01,0.108,0.02,0.162,0.029c0.798,0.136,1.579,0.286,2.355,0.438    c0.663,0.135,1.353,0.284,2.099,0.454c0.09,0.021,0.181,0.028,0.271,0.046C384.857,268.396,398.211,285.051,397.024,299.069z" fill="#E2247A"/><path d="M188.536,461.008c-7.502-2.161-14.512-13.872-12.664-26.309c0.654-4.402-2.385-8.502-6.787-9.156    c-4.419-0.658-8.502,2.385-9.156,6.788c-2.923,19.675,7.909,39.488,24.145,44.166c0.746,0.215,1.497,0.317,2.235,0.317    c3.5,0,6.723-2.298,7.74-5.83C195.281,466.706,192.813,462.24,188.536,461.008z" fill="#E2247A"/><path d="M170.924,420.536c0.607,0.14,1.214,0.207,1.812,0.207c3.672,0,6.99-2.526,7.848-6.256    c0.07-0.309,0.211-0.743,0.338-1.126c1.401-4.225-0.888-8.785-5.112-10.187c-4.225-1.402-8.785,0.888-10.187,5.112    c-0.246,0.741-0.526,1.628-0.748,2.59C163.877,415.214,166.586,419.539,170.924,420.536z" fill="#E2247A"/><path d="M350.144,424.312c-4.403,0.646-7.45,4.739-6.805,9.143c1.825,12.451-5.174,24.15-12.65,26.292    c-4.278,1.226-6.754,5.688-5.527,9.967c1.013,3.537,4.238,5.841,7.743,5.841c0.734,0,1.482-0.101,2.224-0.313    c16.207-4.644,27.044-24.438,24.158-44.125C358.641,426.713,354.557,423.669,350.144,424.312z" fill="#E2247A"/><path d="M346.475,419.485c0.591,0,1.19-0.065,1.79-0.201c4.341-0.984,7.062-5.301,6.077-9.642    c-0.225-0.992-0.507-1.843-0.734-2.527l-7.668,2.48l-7.63,2.596c0.135,0.406,0.262,0.79,0.313,1.015    C339.471,416.947,342.794,419.485,346.475,419.485z" fill="#E2247A"/></g></g></svg>