<?xml version="1.0" ?><!DOCTYPE svg  PUBLIC '-//W3C//DTD SVG 1.1//EN'  'http://www.w3.org/Graphics/SVG/1.1/DTD/svg11.dtd'><svg enable-background="new 0 0 512 512" height="512px" version="1.1" viewBox="0 0 512 512" width="512px" xml:space="preserve" xmlns="http://www.w3.org/2000/svg" xmlns:xlink="http://www.w3.org/1999/xlink"><g id="_x30_1"/><g id="_x30_2"/><g id="_x30_3"/><g id="_x30_4"/><g id="_x30_5"/><g id="_x30_6"/><g id="_x30_7"/><g id="_x30_8"/><g id="_x30_9"/><g id="_x31_0"/><g id="_x31_1"/><g id="_x31_2"/><g id="_x31_3"/><g id="_x31_4"/><g id="_x31_5"/><g id="_x31_6"/><g id="_x31_7"/><g id="_x31_8"/><g id="_x31_9"/><g id="_x32_0"/><g id="_x32_1"/><g id="_x32_2"/><g id="_x32_3"/><g id="_x32_4"/><g id="_x32_5"/><g id="_x32_6"/><g id="_x32_7"/><g id="_x32_8"/><g id="_x32_9"/><g id="_x33_0"/><g id="_x33_1"/><g id="_x33_2"/><g id="_x33_3"/><g id="_x33_4"/><g id="_x33_5"/><g id="_x33_6"/><g id="_x33_7"/><g id="_x33_8"/><g id="_x33_9"/><g id="_x34_0"/><g id="_x34_1"/><g id="_x34_2"/><g id="_x34_3"/><g id="_x34_4"/><g id="_x34_5"/><g id="_x34_6"/><g id="_x34_7"/><g id="_x34_8"/><g id="_x34_9"/><g id="_x35_0"><g><path d="M366.508,216.673c35.841-44.572,53.264-84.011,53.264-120.569c0-47.561-41.158-86.254-91.748-86.254    c-22.312,0-39.638,5.175-54.523,16.285c-9.729,7.26-18.398,17.059-27.139,30.84c-8.741-13.778-17.415-23.578-27.149-30.841    C204.322,15.024,187,9.85,164.7,9.85c-50.591,0-91.75,38.693-91.75,86.254c0,36.558,17.423,75.996,53.264,120.568    c6.012,7.476,12.428,14.965,19.154,22.454l20.386,128.745h-10.886c-17.63,0-31.973,14.355-31.973,32v82.504    c0,17.645,14.343,32,31.973,32h176.54c17.645,0,32-14.355,32-32v-82.504c0-17.645-14.355-32-32-32h-1.077l20.793-132.975    C356.484,228.816,361.629,222.741,366.508,216.673z M93.127,96.104c0-36.435,32.107-66.077,71.573-66.077    c33.638,0,52,13.072,72.771,51.803c1.757,3.276,5.173,5.321,8.891,5.321c3.718,0,7.134-2.044,8.891-5.321    c20.77-38.731,39.133-51.803,72.771-51.803c39.465,0,71.572,29.642,71.572,66.077c0,69.69-76.727,143.281-153.234,214.698    C169.855,239.385,93.127,165.792,93.127,96.104z M169.923,265.192c21.063,21.463,43.867,42.819,66.35,63.792v38.885h-50.091    L169.923,265.192z M343.232,399.869v31.164h-45.924c-5.571,0-10.088,4.517-10.088,10.088s4.517,10.088,10.088,10.088h45.924    v31.164c0,6.52-5.305,11.823-11.824,11.823h-176.54c-6.505,0-11.796-5.304-11.796-11.823v-82.504    c0-6.519,5.292-11.823,11.796-11.823h22.652c0.011,0,0.021,0.001,0.032,0.001c0.012,0,0.025-0.001,0.037-0.001h140.927    c0.013,0,0.025,0.001,0.038,0.001c0.011,0,0.021-0.001,0.032-0.001h12.82C337.928,388.046,343.232,393.35,343.232,399.869z     M309.91,367.87h-53.46v-38.885c23.831-22.23,48.023-44.891,70.12-67.653L309.91,367.87z" fill="#E2247A"/><path d="M193.917,194.752c-4.113-4.678-8.221-9.182-12.193-13.538c-25.537-28-45.708-50.116-43.542-89.761    c0.304-5.563-3.959-10.319-9.523-10.624c-5.553-0.298-10.319,3.959-10.624,9.523c-2.627,48.092,22.344,75.471,48.781,104.458    c3.912,4.29,7.957,8.725,11.949,13.264c1.994,2.268,4.78,3.427,7.58,3.427c2.366,0,4.741-0.828,6.657-2.512    C197.187,205.311,197.596,198.936,193.917,194.752z" fill="#E2247A"/><path d="M205.542,236.584c1.995,2.275,4.785,3.438,7.59,3.438c2.36,0,4.731-0.824,6.646-2.502    c4.189-3.673,4.609-10.046,0.937-14.236l-3.467-3.955c-3.673-4.19-10.047-4.609-14.236-0.937    c-4.189,3.673-4.609,10.046-0.937,14.236L205.542,236.584z" fill="#E2247A"/><path d="M264.941,431.033h-4.496c-5.572,0-10.088,4.517-10.088,10.088s4.517,10.088,10.088,10.088h4.496    c5.571,0,10.088-4.517,10.088-10.088S270.513,431.033,264.941,431.033z" fill="#E2247A"/></g></g></svg>