<?xml version="1.0" ?><svg style="enable-background:new 0 0 48 48;" version="1.1" viewBox="0 0 48 48" xml:space="preserve" xmlns="http://www.w3.org/2000/svg" xmlns:xlink="http://www.w3.org/1999/xlink"><g id="Icons"><g id="Icons_11_"><g><path d="M31.15827,36.5254c0.0591,0,0.0998-0.0431,0.0895-0.1014     c-0.0729-0.4143-0.3224-1.818-0.9298-2.5296c-0.0328-0.0384-0.0684-0.0739-0.1047-0.1089     c-0.8236-0.7953-2.0106-1.3115-3.011-1.8391c-0.5499-0.2901-1.1038-0.5724-1.656-0.8581     c-0.7601-0.3933-1.3772-0.7036-1.7075-1.5405c-0.2985-0.7566-0.3045-0.8449-0.3527-1.6453l0.3681-0.453     c0.2747-0.4055,0.4841-1.9492,0.4841-1.9492c0.3278-0.0091,0.5863-0.3526,0.6724-0.6236c0.139-0.4376,0.273-0.8439,0.3264-1.3007     c0.0394-0.337,0.1072-0.7508-0.1608-1.0175c-0.0455-0.0453-0.4293-0.1431-0.4847-0.0281     c0.0392-0.0814,0.0915-2.1453,0.0915-2.1453l0.5002-0.3717l-0.1491-1.1302c0,0-0.5092-2.4715-3.0676-3.0676     c-2.5584-0.5961-4.0985,0.7949-4.0985,0.7949c-0.8072,0-1.3413,0.5464-1.5897,1.54c-0.2484,0.9935,0.021,2.2346,0.021,2.2346     s0.0522,2.0638,0.0915,2.1453c-0.0554-0.115-0.4393-0.0172-0.4848,0.0281c-0.268,0.2667-0.2002,0.6806-0.1608,1.0175     c0.0535,0.4568,0.1874,0.8631,0.3264,1.3007c0.0862,0.271,0.3446,0.6145,0.6725,0.6236c0,0,0.2093,1.5437,0.484,1.9492     l0.3681,0.453c-0.0481,0.8004-0.0542,0.8887-0.3527,1.6453c-0.3302,0.8369-0.9474,1.1472-1.7075,1.5405     c-0.5522,0.2857-1.1061,0.568-1.656,0.8581c-1.0003,0.5276-2.1873,1.0438-3.011,1.8391     c-0.0362,0.035-0.0719,0.0705-0.1046,0.1089c-0.5689,0.6663-0.8238,1.9396-0.9138,2.4391     c-0.0182,0.1008,0.06,0.1918,0.1625,0.1918L31.15827,36.5254z" style="fill:#5F83CF;"/><path d="M37.65907,16.6483l-1.6042-0.1812l0.0001-0.0005c-0.0958-0.4793-0.2807-0.9313-0.5409-1.3285     l0.9997-1.2531c0.137-0.178,0.1233-0.4314-0.0342-0.5889l-0.2534-0.2533c-0.1574-0.1576-0.4108-0.1712-0.5888-0.0343     l-1.2463,0.9929c-0.4041-0.267-0.856-0.4656-1.3422-0.5615l-0.178-1.575c-0.0274-0.2191-0.2123-0.3903-0.4383-0.3903h-0.3561     c-0.2259,0-0.4108,0.1712-0.4382,0.3903l-0.1712,1.5545c-0.5067,0.0958-0.9724,0.2807-1.3832,0.5546l-1.2052-0.9655     c-0.1781-0.1369-0.4314-0.1233-0.5889,0.0342l-0.2534,0.2534c-0.1643,0.1575-0.178,0.4108-0.0342,0.5889l0.9518,1.1915     c-0.2876,0.4177-0.493,0.8902-0.5957,1.4038l-1.4997,0.1711c-0.226,0.0206-0.3903,0.2123-0.3903,0.4383v0.3492     c0,0.226,0.1643,0.4177,0.3903,0.4383l1.4997,0.1712c0.1026,0.5136,0.3013,0.9929,0.5888,1.4106l-0.9449,1.1915     c-0.1439,0.1712-0.1301,0.4314,0.0342,0.5889l0.2534,0.2465c0.1575,0.1644,0.4108,0.1781,0.5889,0.0343l1.1915-0.9519     c0.4177,0.2739,0.8902,0.4657,1.3969,0.5616l0.0002,0.0001h-0.0028l0.1746,1.5384c0.0254,0.2237,0.2146,0.3927,0.4397,0.3927     h0.3528c0.2253,0,0.4146-0.1693,0.4398-0.3932l0.174-1.5502c0.0014-0.0005,0.0021-0.0011,0.0035-0.0016     c0.0206-0.0068,0.0411-0.0137,0.0617-0.0205c0.0479-0.0137,0.089-0.0274,0.1437-0.0343l0.048-0.0205l0.1314-0.053     c0.2783-0.0903,0.5424-0.2069,0.7889-0.3555l0.1205-0.0571l0.0696-0.038l1.2278,0.9822c0.176,0.1409,0.4299,0.1268,0.5894-0.0326     l0.2489-0.249c0.159-0.1589,0.1735-0.4119,0.0337-0.5881l-0.9941-1.2522c0.2602-0.3971,0.4451-0.8491,0.5409-1.3352l1.6-0.1815     c0.2237-0.0254,0.3927-0.2146,0.3927-0.4397v-0.353C38.05197,16.8629,37.88287,16.6736,37.65907,16.6483z M29.83727,17.2746     c0-1.3079,1.0683-2.3693,2.3762-2.3693s2.3624,1.0614,2.3624,2.3693c0,1.3079-1.0545,2.3625-2.3624,2.3625     S29.83727,18.5825,29.83727,17.2746z" style="fill:#B7B7B7;"/></g></g></g></svg>