<?xml version="1.0" ?><svg style="enable-background:new 0 0 48 48;" version="1.1" viewBox="0 0 48 48" xml:space="preserve" xmlns="http://www.w3.org/2000/svg" xmlns:xlink="http://www.w3.org/1999/xlink"><g id="Icons"><g id="Icons_23_"><g><path d="M28.455,33.46942c-0.4329-1.8396-1.874-3.187-3.4656-4.0126     c0.17-0.08,0.2631-0.1143,0.4231-0.1943c0.71-0.36,1.0725-0.5531,1.3725-1.3131c0.28-0.7,0.29-0.78,0.33-1.51l-0.34-0.42     c-0.26-0.37-0.45-1.79-0.45-1.79c-0.31,0-0.55-0.3199-0.63-0.5699c-0.13-0.4-0.25-0.7701-0.3-1.1901     c-0.04-0.3099-0.1-0.69,0.15-0.93c0.04-0.0499,0.4-0.1399,0.45-0.03c-0.04-0.07-0.09-1.97-0.09-1.97s-0.25-1.1399-0.02-2.0499     c0.24-0.91,0.73-1.41,1.48-1.41c0,0,1.44-1.2701,3.82-0.73c2.38,0.55,2.85,2.82,2.85,2.82l0.14,1.03l-0.47,0.34     c0,0-0.05,1.9-0.08,1.97c0.05-0.11,0.41-0.02,0.45,0.03c0.25,0.24,0.18,0.62,0.15,0.93c-0.05,0.42-0.18,0.79-0.31,1.19     c-0.08,0.25-0.32,0.57-0.62,0.57c0,0-0.2,1.42-0.45,1.79l-0.34,0.42c0.04,0.73,0.05,0.81,0.32,1.51     c0.31,0.76,0.89,1.05,1.59,1.41c0.52,0.26,1.03,0.52,1.54,0.79c0.93,0.48,2.04,0.95,2.8,1.68c0.04,0.04,0.07,0.07,0.1,0.1     c0.63,0.73,0.85,1.37,0.88,1.54h-11.28" style="fill:#5F83CF;"/><g><path d="M27.045,33.46942c-0.04-0.17-0.24-0.97-0.84-1.67c-0.03-0.03-0.06-0.07-0.09-0.1      c-0.68-0.66-1.64-1.1-2.48-1.54c-0.06-0.03-0.12-0.06-0.17-0.09c-0.05-0.02-0.1-0.05-0.15-0.07c-0.43-0.23-0.87-0.45-1.31-0.68      c-0.66-0.35-1.5-0.65-1.78-1.38c-0.27-0.67-0.27-1.41-0.32-2.12h1.6l-0.4-0.48c0,0,1.77-0.35,1.77-0.49      c0-0.1467-0.1837-0.344-0.2619-0.4562c-0.0872-0.1251-0.34-0.3603-0.3234-0.5158c0.0725-0.6595,0.395-1.2331,0.5489-1.8525      c0.0686-0.2763,0.0616-0.5982,0.0569-0.8829c-0.0108-0.6603-0.1132-1.3198-0.2709-1.9602      c-0.1751-0.711-0.4238-1.4073-0.7591-2.059c-0.322-0.6257-0.7289-1.2204-1.2536-1.694      c-0.4929-0.445-1.0934-0.7679-1.7547-0.8657c-0.7789-0.1152-1.5633,0.0858-2.2622,0.4263c-0.4076,0-0.8132,0.077-1.1918,0.2283      c-0.7882,0.3153-1.4186,0.9291-1.8786,1.6309c-0.5046,0.7699-0.8272,1.657-0.9919,2.5601      c-0.1694,0.9284-0.1959,1.9394,0.0599,2.8547c0.0881,0.3153,0.2039,0.6218,0.3008,0.9343      c0.061,0.1965,0.2457,0.6155,0.1253,0.7956c-0.1051,0.1572-0.2268,0.304-0.3335,0.4603      c-0.0676,0.099-0.2202,0.2673-0.2202,0.3958c0,0.14,1.77,0.49,1.77,0.49l-0.39,0.48h1.59c-0.04,0.71-0.04,1.45-0.31,2.12      c-0.29,0.73-1.16,1.03-1.83,1.38c-0.49,0.25-0.98,0.5-1.46,0.75c-0.87,0.47-1.92,0.93-2.65,1.63c-0.02,0.03-0.06,0.07-0.08,0.1      c-0.6,0.7-0.8,1.5-0.84,1.67h11.29h0.32h1.85H27.045" style="fill:#5F83CF;"/></g></g></g></g></svg>