<?xml version="1.0" ?><svg style="enable-background:new 0 0 48 48;" version="1.1" viewBox="0 0 48 48" xml:space="preserve" xmlns="http://www.w3.org/2000/svg" xmlns:xlink="http://www.w3.org/1999/xlink"><g id="Icons"><g id="Icons_2_"><g><circle cx="24" cy="24" r="10.695" style="fill:#5F83CF;"/><path d="M16.2133,18.8559c0,0,3.0817-4.7559,9.2917-4.0459c0.34,0.03,0.65,0.03,0.83,0.34     c0.03,0.06,0.65,0.6,0.65,0.61h-1.73l-0.36,0.32l1.58,0.94c-0.35,0.09-1.25,0.38-1.25,0.38l-0.9159,1.0921l-0.0126,1.1872     L25.645,20.28c0.06,0,0.25-0.62,0.25-0.62l2.1132-1.2586c0.0374,0,0.1985,1.7758,0.1985,1.7758     c0.08,0.01,0.5783-0.2272,0.9183-0.4172c-0.1133,0.4219-0.91,2.05-0.91,2.05l-0.97,0.98l0.28,0.48l-3.9738,2.0679     c-0.1676,0.0701-0.317,0.1907-0.3662,0.3721c-0.16,0.6,0.3,1.5,0.36,1.69c0.06,0.18-0.48,0.73-0.53,0.76     c-0.05,0.03-1.06-0.53-1.23-0.61c0,0-2.5951-2.4009-2.7501-4.9714l0.8494-2.955L18.035,19.05     C18.035,19.05,16.5429,18.904,16.2133,18.8559" style="fill:#385C9B;"/><path d="M26.8029,27.2738c0,0,0.9579,0.0991,1.1396,0.0991c0.1817,0,0.7267-0.7102,0.7267-0.7102     s-0.2477-0.4625-0.3964-0.479c-0.1486-0.0165-1.7176,0.2147-1.7176,0.2147L26.8029,27.2738z" style="fill:#385C9B;"/><path d="M25.1528,27.2724c0,0,1.229,1.2227,1.3629,1.2955c0.1338,0.0728-0.1294,0.7519-0.1294,0.7519     l-0.8425,0.9892l-0.918-2.0032C24.6258,28.3058,25.1382,27.4023,25.1528,27.2724z" style="fill:#385C9B;"/><path d="M30.4171,23.1114l-0.1591,2.1742c0,0,1.4318,0.9605,1.6911,0.8367     c0.2592-0.1237-0.1061-4.4073-0.1061-4.4073L30.4171,23.1114z" style="fill:#385C9B;"/><path d="M28.5088,29.7116v-0.7223l2.9993-0.355c0,0-1.1507,3.4156-3.6604,3.9542l-1.5425-0.808     L28.5088,29.7116z" style="fill:#385C9B;"/></g></g></g></svg>