<?xml version="1.0" ?><svg id="Layer_1" style="enable-background:new 0 0 48 48;" version="1.1" viewBox="0 0 48 48" xml:space="preserve" xmlns="http://www.w3.org/2000/svg" xmlns:xlink="http://www.w3.org/1999/xlink"><g id="Icons"><g><path d="M31.88445,23.09525c0,0-2.3427-0.2647-2.3426-0.2653c-0.14-0.7001-0.41-1.3601-0.7899-1.94    l1.4599-1.8301c0.2-0.26,0.18-0.63-0.05-0.86l-0.37-0.37c-0.23-0.23-0.6-0.25-0.86-0.0499l-1.82,1.4499    c-0.59-0.3899-1.25-0.68-1.96-0.82l-0.26-2.3c-0.04-0.32-0.31-0.57-0.64-0.57h-0.52c-0.33,0-0.6,0.25-0.64,0.57l-0.25,2.27    c-0.74,0.14-1.42,0.41-2.02,0.81l-1.76-1.4099c-0.26-0.2001-0.63-0.1801-0.86,0.0499l-0.37,0.37c-0.24,0.23-0.26,0.6-0.05,0.86    l1.39,1.74c-0.42,0.61-0.72,1.3-0.87,2.05l-2.19,0.25c-0.33,0.03-0.57,0.31-0.57,0.64v0.51c0,0.3301,0.24,0.61,0.57,0.64    l2.19,0.25c0.15,0.75,0.44,1.4501,0.86,2.06l-1.38,1.74c-0.21,0.25-0.19,0.63,0.05,0.86l0.37,0.36    c0.23,0.2401,0.6,0.26,0.86,0.0501l1.74-1.39c0.61,0.3999,1.3,0.6799,2.0363,0.8202l0.2549,2.2466    c0.0371,0.3266,0.3135,0.5734,0.6422,0.5734h0.5151c0.329,0,0.6056-0.2472,0.6422-0.5742c0,0,0.25416-2.26338,0.2593-2.2661    c0.06485-0.03435,0.14385-0.04531,0.21376-0.06555c0.30478-0.0882,0.60422-0.19571,0.89385-0.32541    c0.30094-0.13477,0.59473-0.29653,0.88409-0.45444l1.7929,1.4344c0.2571,0.2057,0.6278,0.1851,0.8607-0.0477l0.3635-0.3635    c0.2322-0.2322,0.2534-0.6017,0.0492-0.8589l-1.4517-1.8286c0.38-0.58,0.6499-1.24,0.79-1.95l2.3365-0.265    c0.3267-0.037,0.5735-0.3134,0.5735-0.6421v-0.5155C32.45815,23.40865,32.21125,23.13225,31.88445,23.09525z M20.46185,24.00985    c0-1.91,1.56-3.46,3.4701-3.46c1.9099,0,3.4499,1.55,3.4499,3.46s-1.54,3.4501-3.4499,3.4501    C22.02185,27.45995,20.46185,25.91985,20.46185,24.00985z" style="fill:#5F83CF;"/></g></g></svg>