<?xml version="1.0" ?><svg enable-background="new 0 0 32 32" version="1.1" viewBox="0 0 32 32" xml:space="preserve" xmlns="http://www.w3.org/2000/svg" xmlns:xlink="http://www.w3.org/1999/xlink"><g id="GLYPH"><g><g><g><path d="M28.5,1v22.912L16,30.856L3.5,23.912V1H16H28.5 M29.5,0H16H2.5v24.5L16,32l13.5-7.5V0L29.5,0z"/></g></g></g><g><g><polygon points="10.838,12.821 16,16.074 21.195,12.632 16.047,9.674    "/></g><g><g><path d="M4.82,2.322v20.839L16,29.372l11.18-6.211V2.322H4.82z M21.34,19.694l-5.353,3.378l-5.234-3.403v-0.816l1.566,0.928      l0.174,0.103l0.161-0.123l3.381-2.595l3.38,2.595l0.162,0.123l0.175-0.104l1.588-0.952V19.694z M21.34,17.917l-1.742,1.045      l-3.563-2.735l-3.564,2.735l-1.718-1.017L7.014,15.73l3.758-2.859l-3.758-2.859l5.457-3.555l3.564,3.058l3.646-3.058      l5.303,3.389l-3.48,2.9l3.48,2.984L21.34,17.917z"/></g></g></g></g></svg>