<?xml version="1.0" ?><svg enable-background="new 0 0 32 32" version="1.1" viewBox="0 0 32 32" xml:space="preserve" xmlns="http://www.w3.org/2000/svg" xmlns:xlink="http://www.w3.org/1999/xlink"><g id="GLYPH"><g><g><g><path d="M28.5,1v22.912L16,30.856L3.5,23.912V1H16H28.5 M29.5,0H16H2.5v24.5L16,32l13.5-7.5V0L29.5,0z"/></g></g></g><g><g><path d="M4.82,2.322v20.839L16,29.372l11.18-6.211V2.322H4.82z M18.263,9.988c0,0.887,0.247,4.512,4.569,4.916v1.974     c0,0-0.616-0.004-1.477-0.193c-0.162,0.283-0.341,0.573-0.539,0.878c-2.058,3.14-3.745,4.793-4.484,4.833     c-0.741,0.041-0.865,0.081-1.482-0.403C14.232,21.509,9.21,18.247,9.168,8.94h2.223c0,0-0.494,6.889,4.609,10.957     c0,0,1.823-1.416,3.175-4.014C17.552,14.99,16,13.293,16,10.069c0-4.593,6.831-3.989,6.831-0.364     c0,1.286,0.008,2.379-0.178,3.485h-2.439c0.239-0.916,0.388-1.916,0.394-3C20.609,8.215,18.263,8.82,18.263,9.988z"/></g></g></g></svg>