<?xml version="1.0" ?><svg enable-background="new 0 0 32 32" version="1.1" viewBox="0 0 32 32" xml:space="preserve" xmlns="http://www.w3.org/2000/svg" xmlns:xlink="http://www.w3.org/1999/xlink"><g id="GLYPH"><g><g><g><path d="M28.5,1v22.912L16,30.856L3.5,23.912V1H16H28.5 M29.5,0H16H2.5v24.5L16,32l13.5-7.5V0L29.5,0z"/></g></g></g><g><g><path d="M16.535,14.559c0.1-0.033,0.204-0.063,0.305-0.093c-0.194-0.44-0.406-0.881-0.628-1.315     c-3.985,1.193-7.808,1.107-7.945,1.102c-0.002,0.083-0.006,0.163-0.006,0.247c0,1.988,0.75,3.801,1.983,5.17     C10.241,19.667,12.359,15.91,16.535,14.559z"/></g><g><path d="M17.316,15.766c-4.566,1.591-6.057,4.799-6.073,4.834c1.314,1.022,2.962,1.638,4.757,1.638     c1.071,0,2.092-0.219,3.021-0.614c-0.114-0.676-0.564-3.046-1.653-5.876C17.351,15.755,17.334,15.76,17.316,15.766z"/></g><g><path d="M15.572,11.96c-1.34-2.38-2.771-4.322-2.874-4.459c-2.158,1.019-3.769,3.008-4.271,5.404     C8.631,12.906,11.856,12.947,15.572,11.96z"/></g><g><path d="M21.11,8.692c-1.362-1.201-3.151-1.93-5.11-1.93c-0.629,0-1.239,0.076-1.823,0.217c0.116,0.156,1.569,2.084,2.893,4.514     C19.989,10.398,21.091,8.72,21.11,8.692z"/></g><g><path d="M18.818,15.39c1.015,2.789,1.427,5.061,1.506,5.528c1.737-1.172,2.972-3.034,3.316-5.191     C23.481,15.675,21.316,14.99,18.818,15.39z"/></g><g><path d="M17.665,12.646c0.18,0.369,0.354,0.745,0.515,1.122c0.057,0.135,0.113,0.268,0.167,0.401     c2.659-0.335,5.278,0.228,5.39,0.251c-0.018-1.835-0.675-3.518-1.76-4.836C21.962,9.605,20.72,11.398,17.665,12.646z"/></g><g><g><path d="M4.82,2.322v20.839L16,29.372l11.18-6.211V2.322H4.82z M24.877,16.324c-0.12,0.583-0.297,1.156-0.528,1.703      c-0.226,0.537-0.507,1.056-0.836,1.539c-0.323,0.48-0.696,0.93-1.105,1.341c-0.41,0.408-0.862,0.781-1.341,1.106      c-0.484,0.326-1.003,0.607-1.539,0.835c-0.547,0.231-1.12,0.408-1.702,0.527c-0.598,0.123-1.212,0.186-1.825,0.186      c-0.615,0-1.229-0.062-1.825-0.186c-0.583-0.12-1.156-0.297-1.703-0.527c-0.537-0.228-1.056-0.509-1.54-0.835      c-0.479-0.325-0.93-0.698-1.34-1.106c-0.41-0.411-0.782-0.861-1.106-1.341c-0.327-0.483-0.608-1.002-0.836-1.539      c-0.232-0.547-0.409-1.12-0.529-1.703C7,15.727,6.938,15.114,6.938,14.5c0-0.615,0.062-1.229,0.184-1.825      c0.12-0.583,0.297-1.157,0.529-1.703c0.227-0.538,0.509-1.057,0.836-1.54c0.324-0.481,0.697-0.93,1.106-1.341      c0.409-0.409,0.86-0.78,1.34-1.105c0.484-0.328,1.003-0.609,1.54-0.837c0.547-0.232,1.12-0.409,1.703-0.528      C14.771,5.5,15.385,5.438,16,5.438c0.613,0,1.227,0.062,1.825,0.184c0.582,0.119,1.155,0.296,1.702,0.528      c0.537,0.228,1.055,0.509,1.539,0.837c0.479,0.325,0.931,0.696,1.341,1.105c0.409,0.411,0.782,0.86,1.105,1.341      c0.328,0.483,0.609,1.002,0.836,1.54c0.232,0.546,0.409,1.12,0.528,1.703c0.122,0.596,0.185,1.21,0.185,1.825      C25.062,15.114,25,15.727,24.877,16.324z"/></g></g></g></g></svg>