<?xml version="1.0" ?><svg enable-background="new 0 0 32 32" version="1.1" viewBox="0 0 32 32" xml:space="preserve" xmlns="http://www.w3.org/2000/svg" xmlns:xlink="http://www.w3.org/1999/xlink"><g id="GLYPH"><g><g><g><path d="M28.5,1v22.912L16,30.856L3.5,23.912V1H16H28.5 M29.5,0H16H2.5v24.5L16,32l13.5-7.5V0L29.5,0z"/></g></g></g><g><g><path d="M15.184,19.278c-0.078,0.09-0.161,0.164-0.254,0.222c-0.092,0.059-0.168,0.088-0.228,0.088     c-0.076,0-0.132-0.022-0.168-0.066c-0.033-0.044-0.05-0.115-0.05-0.214v-3.186h-0.816v3.473c0,0.248,0.049,0.432,0.143,0.556     c0.097,0.125,0.238,0.185,0.427,0.185c0.153,0,0.311-0.043,0.475-0.132c0.164-0.087,0.32-0.216,0.472-0.385v0.456H16v-4.155     h-0.816V19.278z"/></g><g><polygon points="10.484,15.465 11.436,15.465 11.436,20.277 12.357,20.277 12.357,15.465 13.309,15.465 13.309,14.647      10.484,14.647    "/></g><g><g><path d="M18.167,16.072c-0.127,0-0.252,0.032-0.377,0.099c-0.123,0.065-0.239,0.162-0.35,0.289v-1.813h-0.826v5.631h0.826      v-0.319c0.106,0.128,0.224,0.221,0.349,0.281c0.125,0.061,0.266,0.09,0.427,0.09c0.242,0,0.429-0.077,0.555-0.234      c0.128-0.157,0.192-0.382,0.192-0.676v-2.305c0-0.34-0.067-0.599-0.205-0.777C18.623,16.161,18.426,16.072,18.167,16.072z       M18.124,19.304c0,0.134-0.025,0.228-0.072,0.286c-0.047,0.059-0.12,0.088-0.22,0.088c-0.069,0-0.134-0.015-0.197-0.045      c-0.063-0.029-0.128-0.08-0.194-0.146v-2.588c0.056-0.057,0.112-0.1,0.168-0.127c0.057-0.028,0.114-0.04,0.173-0.04      c0.109,0,0.195,0.036,0.255,0.108c0.058,0.072,0.087,0.179,0.087,0.319V19.304z"/></g></g><g><g><path d="M4.82,2.322v20.839L16,29.372l11.18-6.211V2.322H4.82z M17.971,6.515h0.918v3.508c0,0.108,0.021,0.187,0.059,0.235      c0.037,0.049,0.101,0.073,0.187,0.073c0.067,0,0.153-0.032,0.256-0.096c0.103-0.064,0.198-0.146,0.283-0.247V6.515h0.92v4.576      h-0.92v-0.505c-0.168,0.186-0.344,0.329-0.529,0.425c-0.183,0.097-0.361,0.146-0.534,0.146c-0.214,0-0.373-0.068-0.481-0.204      c-0.107-0.136-0.161-0.34-0.161-0.614V6.515z M14.556,7.562c0-0.355,0.123-0.637,0.372-0.847      c0.247-0.21,0.581-0.315,0.998-0.315c0.38,0,0.693,0.111,0.936,0.333c0.242,0.221,0.364,0.507,0.364,0.855v2.364      c0,0.391-0.119,0.698-0.357,0.921c-0.24,0.223-0.567,0.334-0.986,0.334c-0.401,0-0.724-0.115-0.966-0.344      c-0.24-0.23-0.361-0.54-0.361-0.928V7.562z M12.051,4.888l0.672,2.479h0.065l0.639-2.479h1.053l-1.205,3.629v2.574h-1.036V8.634      l-1.233-3.745H12.051z M22.321,21.52c-0.671,0.669-6.324,0.684-6.324,0.684s-5.653-0.014-6.325-0.684      c-0.673-0.672-0.674-3.979-0.674-4.004c0-0.019,0.002-3.332,0.674-4.004c0.673-0.67,6.325-0.679,6.325-0.678      c0,0,5.653,0.008,6.324,0.679c0.673,0.672,0.681,3.984,0.681,4.004C23.002,17.516,22.997,20.846,22.321,21.52z"/></g></g><g><path d="M15.882,10.414c0.125,0,0.223-0.035,0.297-0.104c0.073-0.071,0.11-0.168,0.11-0.289V7.527c0-0.1-0.037-0.181-0.113-0.243     c-0.075-0.061-0.173-0.092-0.294-0.092c-0.113,0-0.204,0.03-0.274,0.092c-0.069,0.062-0.105,0.143-0.105,0.243v2.493     c0,0.125,0.034,0.221,0.099,0.291C15.666,10.38,15.759,10.414,15.882,10.414z"/></g><g><g><path d="M20.633,16.02c-0.366,0-0.664,0.113-0.894,0.34c-0.231,0.227-0.347,0.521-0.347,0.881v1.865      c0,0.401,0.107,0.715,0.316,0.943c0.21,0.229,0.499,0.342,0.864,0.342c0.407,0,0.713-0.107,0.916-0.321      c0.206-0.217,0.307-0.537,0.307-0.964v-0.213h-0.84v0.19c0,0.245-0.029,0.403-0.082,0.474c-0.054,0.072-0.148,0.107-0.284,0.107      c-0.131,0-0.222-0.041-0.277-0.126c-0.053-0.085-0.08-0.237-0.08-0.456v-0.781h1.562v-1.06c0-0.394-0.1-0.696-0.3-0.906      C21.295,16.126,21.007,16.02,20.633,16.02z M20.956,17.653h-0.722v-0.419c0-0.174,0.028-0.299,0.084-0.372      c0.057-0.078,0.151-0.114,0.281-0.114c0.124,0,0.216,0.036,0.271,0.114c0.058,0.073,0.087,0.198,0.087,0.372V17.653z"/></g></g></g></g></svg>