<?xml version="1.0" ?><svg enable-background="new 0 0 32 32" version="1.1" viewBox="0 0 32 32" xml:space="preserve" xmlns="http://www.w3.org/2000/svg" xmlns:xlink="http://www.w3.org/1999/xlink"><g id="GLYPH"><g><g><g><path d="M28.5,1v22.912L16,30.856L3.5,23.912V1H16H28.5 M29.5,0H16H2.5v24.5L16,32l13.5-7.5V0L29.5,0z"/></g></g></g><g><g><path d="M4.82,2.322v20.839L16,29.372l11.18-6.211V2.322H4.82z M16.159,21.917c-4.374,0-7.917-3.543-7.917-7.917     c0-4.374,3.543-7.917,7.917-7.917c2.138,0,3.924,0.787,5.294,2.063l-2.232,2.232v-0.005c-0.831-0.792-1.885-1.197-3.062-1.197     c-2.612,0-4.735,2.207-4.735,4.819c0,2.612,2.123,4.824,4.735,4.824c2.37,0,3.983-1.356,4.315-3.216h-4.315v-3.088h7.446     c0.099,0.529,0.153,1.084,0.153,1.662C23.758,18.701,20.73,21.917,16.159,21.917z"/></g></g></g></svg>