<?xml version="1.0" ?><svg enable-background="new 0 0 32 32" version="1.1" viewBox="0 0 32 32" xml:space="preserve" xmlns="http://www.w3.org/2000/svg" xmlns:xlink="http://www.w3.org/1999/xlink"><g id="Layer_9_copy"><path d="M16,0H2.5v6.705l1.668,1.668v17.054L16,32l11.832-6.574V8.373L29.5,6.705V0H16z M17.953,16.831   c0.319,0.276,0.566,1.251,0.566,1.699v3.964h-2.262h-2.265c0,0,0.006-1.344,0-2.265c-3.099,0.667-3.964-1.699-3.964-1.699   c-0.566-1.132-1.132-1.699-1.132-1.699c-1.132-0.673,0-0.566,0-0.566c1.132,0,1.699,1.132,1.699,1.132   c0.994,1.687,2.762,1.416,3.397,1.132c0-0.566,0.248-1.422,0.566-1.699c-2.473-0.279-4.532-1.699-4.532-4.53   c0-2.831,0.568-3.397,1.135-3.964c-0.114-0.279-0.588-1.311,0.018-2.831c0,0,1.113,0,2.245,1.699   c0.561-0.561,2.265-0.566,2.832-0.566c0.565,0,2.269,0.005,2.83,0.566c1.132-1.699,2.248-1.699,2.248-1.699   c0.605,1.52,0.132,2.552,0.017,2.831c0.566,0.566,1.132,1.132,1.132,3.964C22.483,15.132,20.427,16.553,17.953,16.831z"/></g></svg>