<?xml version="1.0" ?><svg enable-background="new 0 0 32 32" version="1.1" viewBox="0 0 32 32" xml:space="preserve" xmlns="http://www.w3.org/2000/svg" xmlns:xlink="http://www.w3.org/1999/xlink"><g id="Layer_9_copy"><g><ellipse cx="16.011" cy="14.972" rx="2.974" ry="2.882"/><path d="M21.092,9.445H19.24c-0.256,0-0.463,0.207-0.463,0.463v1.852c0,0.256,0.207,0.463,0.463,0.463h1.852    c0.256,0,0.463-0.207,0.463-0.463V9.908C21.555,9.652,21.348,9.445,21.092,9.445z"/><path d="M20.614,15.133c0,2.462-2.061,4.46-4.603,4.46c-2.541,0-4.603-1.998-4.603-4.46c0-0.442,0.068-0.868,0.191-1.271    l-1.154-0.251v6.481c0,0.325,0.139,0.463,0.463,0.463h10.184c0.324,0,0.463-0.138,0.463-0.463v-6.481l-1.132,0.251    C20.547,14.265,20.614,14.691,20.614,15.133z"/><path d="M16,0H2.5v6.705l1.668,1.668v17.054L16,32l11.832-6.574V8.373L29.5,6.705V0H16z M23.407,20.555    c0,1.045-0.806,1.852-1.852,1.852h-11.11c-1.046,0-1.852-0.806-1.852-1.852V9.445c0-1.046,0.806-1.852,1.852-1.852h11.11    c1.045,0,1.852,0.806,1.852,1.852V20.555z"/></g></g></svg>