<?xml version="1.0" ?><svg enable-background="new 0 0 32 32" version="1.1" viewBox="0 0 32 32" xml:space="preserve" xmlns="http://www.w3.org/2000/svg" xmlns:xlink="http://www.w3.org/1999/xlink"><g id="Layer_9_copy"><g><circle cx="14.342" cy="7.914" r="0.553"/><circle cx="17.658" cy="7.914" r="0.553"/><path d="M16,0H2.5v6.705l1.668,1.668v17.054L16,32l11.832-6.574V8.373L29.5,6.705V0H16z M11.025,15.652    c0,0.61-0.495,1.106-1.106,1.106c-0.61,0-1.106-0.495-1.106-1.106V11.23c0-0.61,0.495-1.106,1.106-1.106    c0.61,0,1.106,0.495,1.106,1.106V15.652z M20.422,18.969h-1.106v2.764c0,0.61-0.495,1.106-1.106,1.106    c-0.61,0-1.106-0.495-1.106-1.106v-2.764h-2.211v2.764c0,0.61-0.495,1.106-1.106,1.106c-0.61,0-1.106-0.495-1.106-1.106v-2.764    h-1.106v-8.292h8.844V18.969z M11.578,10.125c0-1.465,0.715-2.759,1.811-3.564l-0.568-0.984c-0.076-0.133-0.03-0.301,0.101-0.378    C13.055,5.123,13.223,5.168,13.3,5.3l0.554,0.96C14.49,5.905,15.221,5.702,16,5.702c0.779,0,1.51,0.203,2.146,0.557l0.553-0.959    c0.076-0.133,0.246-0.179,0.378-0.102c0.133,0.077,0.179,0.245,0.102,0.378L18.611,6.56c1.096,0.805,1.811,2.099,1.811,3.564    H11.578z M23.186,15.652c0,0.61-0.495,1.106-1.106,1.106c-0.61,0-1.106-0.495-1.106-1.106V11.23c0-0.61,0.495-1.106,1.106-1.106    c0.61,0,1.106,0.495,1.106,1.106V15.652z"/></g></g></svg>