<?xml version="1.0" ?><svg enable-background="new 0 0 32 32" version="1.1" viewBox="0 0 32 32" xml:space="preserve" xmlns="http://www.w3.org/2000/svg" xmlns:xlink="http://www.w3.org/1999/xlink"><g id="Layer_9_copy"><g><path d="M16.008,7.225c-3.647,0-6.608,2.947-6.608,6.595c0,1.653,0.608,3.165,1.605,4.319l-0.904,2.292l2.01-1.278    c1.091,0.811,2.431,1.278,3.896,1.278c3.646,0,6.591-2.962,6.591-6.611C22.599,10.172,19.654,7.225,16.008,7.225z M20.184,16.579    c-0.062,0.328-0.842,1.029-1.449,1.169c-1.309,0.297-3.163-0.748-4.363-1.855c-1.2-1.091-2.4-2.853-2.228-4.178    c0.078-0.608,0.717-1.45,1.028-1.559c0.14-0.031,0.343-0.031,0.53-0.031c0.218,0.016,0.405,0.031,0.468,0.156l0.701,1.824    c0.047,0.14-0.062,0.296-0.203,0.468c-0.202,0.234-0.234,0.25-0.421,0.499c-0.093,0.125-0.031,0.281,0,0.343    c0.203,0.483,0.67,1.029,1.091,1.419c0.436,0.39,1.013,0.811,1.512,0.982c0.031,0,0.218,0.078,0.359,0.047    c0.125-0.016,0.202-0.109,0.311-0.249c0.202-0.25,0.281-0.343,0.452-0.577c0.14-0.172,0.28-0.234,0.421-0.156l1.589,0.733    c0.125,0.062,0.172,0.218,0.187,0.436C20.2,16.237,20.215,16.439,20.184,16.579z"/><path d="M16,0H2.5v6.705l1.668,1.668v17.054L16,32l11.832-6.574V8.373L29.5,6.705V0H16z M16.008,22.083    c-1.372,0-2.665-0.343-3.802-0.936l-4.457,2.027l1.247-4.989c-0.779-1.263-1.247-2.76-1.247-4.366    c0-4.552,3.693-8.248,8.259-8.248c4.55,0,8.243,3.695,8.243,8.248C24.251,18.388,20.558,22.083,16.008,22.083z"/></g></g></svg>