<?xml version="1.0" ?><svg enable-background="new 0 0 32 32" version="1.1" viewBox="0 0 32 32" xml:space="preserve" xmlns="http://www.w3.org/2000/svg" xmlns:xlink="http://www.w3.org/1999/xlink"><g id="Layer_9_copy"><g><path d="M16.123,7.742c-0.393,0-0.765,0.062-1.124,0.151C15.588,8.156,16,8.74,16,9.421c0,0.927-0.759,1.679-1.696,1.679    c-0.932,0-1.686-0.744-1.695-1.664c-0.575,0.74-0.927,1.666-0.927,2.702c0,2.238,1.933,4.152,4.44,4.152    c2.261,0,4.194-1.913,4.194-4.152C20.317,9.655,18.384,7.742,16.123,7.742z"/><path d="M16,0H2.5v6.705l1.668,1.668v17.054L16,32l11.832-6.574V8.373L29.5,6.705V0H16z M16.1,23.005    c-1.609,0-7.192-6.332-7.192-10.578c0-4.064,3.175-7.432,7.192-7.432c3.817,0,6.993,3.368,6.993,7.432    C23.092,16.673,17.509,23.005,16.1,23.005z"/></g></g></svg>