<?xml version="1.0" ?><svg id="Layer_1" style="enable-background:new 0 0 512 512;" version="1.1" viewBox="0 0 512 512" xml:space="preserve" xmlns="http://www.w3.org/2000/svg" xmlns:xlink="http://www.w3.org/1999/xlink"><style type="text/css">
	.st0{fill:url(#SVGID_1_);}
	.st1{fill:#0462FF;}
	.st2{fill:#FFFFFF;}
</style><g><g><linearGradient gradientUnits="userSpaceOnUse" id="SVGID_1_" x1="152.1333" x2="359.8679" y1="76.0987" y2="435.9055"><stop offset="0" style="stop-color:#0462FF"/><stop offset="0.1103" style="stop-color:#0A62FF"/><stop offset="0.2645" style="stop-color:#1D63FF"/><stop offset="0.4447" style="stop-color:#3B64FF"/><stop offset="0.6447" style="stop-color:#6466FF"/><stop offset="0.8582" style="stop-color:#9968FF"/><stop offset="1" style="stop-color:#C06AFF"/></linearGradient><path class="st0" d="M256,463.8c-114.6,0-207.8-93.2-207.8-207.8c0-114.6,93.2-207.8,207.8-207.8c114.6,0,207.8,93.2,207.8,207.8    C463.8,370.6,370.6,463.8,256,463.8z"/><path class="st1" d="M256,53.2c27.4,0,53.9,5.4,78.9,15.9c24.1,10.2,45.8,24.8,64.5,43.5c18.6,18.6,33.2,40.3,43.5,64.5    c10.6,25,15.9,51.5,15.9,78.9c0,27.4-5.4,53.9-15.9,78.9c-10.2,24.1-24.8,45.8-43.5,64.5c-18.6,18.6-40.3,33.2-64.5,43.5    c-25,10.6-51.5,15.9-78.9,15.9c-27.4,0-53.9-5.4-78.9-15.9c-24.1-10.2-45.8-24.8-64.5-43.5c-18.6-18.6-33.2-40.3-43.5-64.5    c-10.6-25-15.9-51.5-15.9-78.9c0-27.4,5.4-53.9,15.9-78.9c10.2-24.1,24.8-45.8,43.5-64.5c18.6-18.6,40.3-33.2,64.5-43.5    C202.1,58.6,228.6,53.2,256,53.2 M256,43.2C138.5,43.2,43.2,138.5,43.2,256c0,117.5,95.3,212.8,212.8,212.8    c117.5,0,212.8-95.3,212.8-212.8C468.8,138.5,373.5,43.2,256,43.2L256,43.2z"/></g><g><path class="st2" d="M188,350.6l68-43.3l68,43.3l-68,43.3L188,350.6z M109.9,284.2l68-43.3l68,43.3l-68,43.3L109.9,284.2z     M266.2,284.2l68-43.3l68,43.3l-68,43.3L266.2,284.2z M188,234.4l68-43.3l68,43.3l-68,43.3L188,234.4z M266.2,184.6l68-43.3    l68,43.3l-68,43.3L266.2,184.6z M109.9,184.6l68-43.3l68,43.3l-68,43.3L109.9,184.6z"/><path class="st1" d="M177.8,147.8l57.8,36.8l-57.8,36.8l-57.8-36.8L177.8,147.8 M334.2,147.8l57.8,36.8l-57.8,36.8l-57.8-36.8    L334.2,147.8 M256,197.6l57.8,36.8L256,271.2l-57.8-36.8L256,197.6 M334.2,247.4l57.8,36.8L334.2,321l-57.8-36.8L334.2,247.4     M177.8,247.4l57.8,36.8L177.8,321l-57.8-36.8L177.8,247.4 M256,313.8l57.8,36.8L256,387.4l-57.8-36.8L256,313.8 M334.2,134.8    L256,184.6l78.1,49.8L256,284.2l78.1,49.8l78.2-49.8l-78.1-49.8l78.1-49.8L334.2,134.8L334.2,134.8z M177.8,134.8l-78.2,49.8    l78.2,49.8l-78.2,49.8l78.2,49.8l78.2-49.8l-78.2-49.8l78.2-49.8L177.8,134.8L177.8,134.8z M256,184.6l-78.2,49.8L256,184.6    l78.1,49.8L256,184.6L256,184.6z M256,184.6l-78.2,49.8l78.2,49.8l78.1-49.8L256,184.6L256,184.6z M334.2,234.4L256,284.2    l-78.2-49.8l78.2,49.8L334.2,234.4L334.2,234.4z M256,300.8l-78.2,49.8l78.2,49.8l78.1-49.8L256,300.8L256,300.8z"/></g></g></svg>