<?xml version="1.0" ?><svg id="Layer_1" style="enable-background:new 0 0 512 512;" version="1.1" viewBox="0 0 512 512" xml:space="preserve" xmlns="http://www.w3.org/2000/svg" xmlns:xlink="http://www.w3.org/1999/xlink"><style type="text/css">
	.st0{fill:url(#SVGID_1_);}
	.st1{fill:#BD081B;}
</style><g><g><g><linearGradient gradientUnits="userSpaceOnUse" id="SVGID_1_" x1="152.1899" x2="359.9243" y1="76.1014" y2="435.908"><stop offset="0" style="stop-color:#BD081B"/><stop offset="1" style="stop-color:#6A0061"/></linearGradient><path class="st0" d="M256.1,463.8c-114.6,0-207.8-93.2-207.8-207.8c0-114.6,93.2-207.8,207.8-207.8     c114.6,0,207.8,93.2,207.8,207.8C463.8,370.6,370.6,463.8,256.1,463.8z M218.8,260.1c-2.5,10.7-16.6,70.5-19.3,81.8     c-5,21.2-2.6,46.3-0.6,59.3l0.1,0.6c0.5,3.5,3.4,6,6.9,6c2.2,0,4.3-1,5.6-2.7l0.3-0.4c6.5-8.3,22.2-29.9,28.2-51.4     c1.3-4.6,5.6-21.5,8.3-32.5c8.6,7.9,22,13.1,35,13.1c50.7,0,87.6-46.2,87.6-109.9c0-45.6-38.1-92.7-101.9-92.7     c-71.6,0-114.4,51.2-114.4,100.6c0,30.7,12.9,54.3,34.5,63.1c1.5,0.6,3,0.9,4.5,0.9c4.8,0,8.6-3.1,9.9-8.1     c0.3-1.2,0.8-3.2,1.4-5.3c0.7-2.6,1.3-5.4,1.8-6.9c1.6-6,0.2-9-3.2-13c-6.1-7.2-8.9-15.7-8.9-26.8c0-18.2,6.7-35.1,18.9-47.7     c13-13.5,30.8-20.6,51.5-20.6c36.2,0,58.7,20.6,58.7,53.7c0,21-4.5,40.4-12.7,54.8c-5.7,9.9-15.6,21.6-30.8,21.6     c-6.5,0-12.4-2.7-16.1-7.3c-3.5-4.4-4.6-10.1-3.2-16c1.6-6.8,3.8-14,6-20.9c4-12.8,7.7-24.9,7.7-34.6c0-16.7-10.3-28-25.6-28     c-19.4,0-34.5,19.6-34.5,44.6C214.2,247.4,217.3,256.5,218.8,260.1z"/><path class="st1" d="M256.1,53.2c27.4,0,53.9,5.4,78.9,15.9c24.1,10.2,45.8,24.8,64.5,43.5c18.6,18.6,33.2,40.3,43.5,64.5     c10.6,25,15.9,51.5,15.9,78.9c0,27.4-5.4,53.9-15.9,78.9c-10.2,24.1-24.8,45.8-43.5,64.5c-18.6,18.6-40.3,33.2-64.5,43.5     c-25,10.6-51.5,15.9-78.9,15.9c-27.4,0-53.9-5.4-78.9-15.9c-24.1-10.2-45.8-24.8-64.5-43.5c-18.6-18.6-33.2-40.3-43.5-64.5     c-10.6-25-15.9-51.5-15.9-78.9c0-27.4,5.4-53.9,15.9-78.9c10.2-24.1,24.8-45.8,43.5-64.5C131.3,94,153,79.4,177.1,69.2     C202.1,58.6,228.7,53.2,256.1,53.2 M193.6,301c4.8,0,9-2.1,11.8-5.7c-4.5,19-9.3,39.3-10.7,45.4c-5.2,22-2.7,47.8-0.7,61.2     c0,0.3,0.1,0.5,0.1,0.6c0.8,6,5.8,10.3,11.9,10.3c3.8,0,7.3-1.7,9.6-4.7l0.3-0.4c8.3-10.6,23.1-31.6,29.1-53.2     c1-3.7,3.9-15.1,6.5-25.2c9,5.9,20.5,9.5,32,9.5c53.6,0,92.6-48.3,92.6-114.9c0-48-40-97.7-106.9-97.7     c-74.7,0-119.4,53.7-119.4,105.6c0,32.8,14,58.1,37.5,67.7C189.3,300.6,191.4,301,193.6,301 M264.8,172.5     c17,0,30.9,4.8,40.3,13.9c8.8,8.5,13.4,20.5,13.4,34.7c0,40-16.9,71.4-38.5,71.4c-5,0-9.4-2-12.2-5.4c-1.8-2.2-3.6-6.1-2.3-11.7     c1.6-6.7,3.8-13.7,5.9-20.6c4.1-13.2,7.9-25.6,7.9-36.1c0-19.4-12.6-33-30.6-33c-22.2,0-39.5,21.8-39.5,49.6     c0,11.5,2.6,20.4,4.4,25.1c-0.4,1.8-1,4.3-1.7,7.3c-0.7-3.1-2.4-5.7-4.7-8.4c-5.3-6.2-7.7-13.7-7.7-23.6     c0-16.9,6.2-32.5,17.5-44.2C229,179.1,245.6,172.5,264.8,172.5 M256.1,43.2C138.6,43.2,43.3,138.5,43.3,256     s95.3,212.8,212.8,212.8S468.8,373.5,468.8,256S373.6,43.2,256.1,43.2L256.1,43.2z M193.6,291c-0.8,0-1.7-0.2-2.6-0.6     c-21.4-8.7-31.3-32.1-31.3-58.5c0-43.5,36.7-95.6,109.4-95.6c58.4,0,96.9,42.3,96.9,87.7c0,60-33.4,104.9-82.6,104.9     c-16.5,0-32.1-8.9-37.4-19.1c0,0-8.9,35.3-10.8,42.1c-6.6,24-26.1,48.1-27.6,50.1c-0.4,0.5-1,0.8-1.7,0.8c-0.9,0-1.8-0.6-2-1.7     c-0.4-3.1-5.4-33.4,0.5-58.2c2.9-12.4,19.7-83.4,19.7-83.4s-4.9-9.8-4.9-24.2c0-22.7,13.2-39.6,29.5-39.6     c13.9,0,20.6,10.5,20.6,23c0,14-8.9,34.9-13.5,54.3c-3.8,16.2,8.1,29.5,24.2,29.5c29,0,48.5-37.3,48.5-81.4     c0-33.5-22.6-58.7-63.7-58.7c-46.4,0-75.4,34.6-75.4,73.3c0,13.3,3.9,22.8,10.1,30c2.8,3.3,3.2,4.7,2.2,8.5     c-0.8,2.8-2.4,9.6-3.1,12.3C197.9,289.5,196,291,193.6,291L193.6,291z"/></g></g></g></svg>