<?xml version="1.0" ?><svg id="Layer_1" style="enable-background:new 0 0 512 512;" version="1.1" viewBox="0 0 512 512" xml:space="preserve" xmlns="http://www.w3.org/2000/svg" xmlns:xlink="http://www.w3.org/1999/xlink"><style type="text/css">
	.st0{fill:url(#SVGID_1_);}
	.st1{fill:#05CC47;}
</style><g><g><g><linearGradient gradientUnits="userSpaceOnUse" id="SVGID_1_" x1="359.8671" x2="152.1314" y1="435.9058" y2="76.0969"><stop offset="0" style="stop-color:#05CC47"/><stop offset="1" style="stop-color:#475C4D"/></linearGradient><path class="st0" d="M256,463.8c-114.6,0-207.8-93.2-207.8-207.8c0-114.6,93.2-207.8,207.8-207.8S463.8,141.4,463.8,256     C463.8,370.6,370.6,463.8,256,463.8z M174.3,337.5v46.4h56.8l25.7-49.3h80.8v-70.2h-44.3l44.3-84.9v-51.3h-54l-25.8,49.4h-83.5     v70.8h46.5L174.3,337.5z"/><path class="st1" d="M256,53.2c27.4,0,53.9,5.4,78.9,15.9c24.1,10.2,45.8,24.8,64.5,43.5c18.6,18.6,33.2,40.3,43.5,64.5     c10.6,25,15.9,51.5,15.9,78.9c0,27.4-5.4,53.9-15.9,78.9c-10.2,24.1-24.8,45.8-43.5,64.5c-18.6,18.6-40.3,33.2-64.5,43.5     c-25,10.6-51.5,15.9-78.9,15.9s-53.9-5.4-78.9-15.9c-24.1-10.2-45.8-24.8-64.5-43.5c-18.6-18.6-33.2-40.3-43.5-64.5     c-10.6-25-15.9-51.5-15.9-78.9c0-27.4,5.4-53.9,15.9-78.9c10.2-24.1,24.8-45.8,43.5-64.5c18.6-18.6,40.3-33.2,64.5-43.5     C202.1,58.6,228.6,53.2,256,53.2 M254.8,172.6h-75.4h-10v10v60.8v10h10h33.3l-42.1,80.7l-1.1,2.2v2.5v40.1v10h10h48.7h6.1     l2.8-5.4l22.9-44h72.8h10v-10v-60.2v-10h-10h-31l39.9-76.5l1.1-2.2v-2.5v-45.1v-10h-10h-46h-6.1l-2.8,5.4L254.8,172.6 M256,43.2     C138.5,43.2,43.2,138.5,43.2,256c0,117.5,95.3,212.8,212.8,212.8S468.8,373.5,468.8,256C468.8,138.5,373.5,43.2,256,43.2     L256,43.2z M179.3,243.4v-60.8h81.5l25.8-49.5h46v45.1l-47.5,91.1h47.5v60.2h-78.9l-25.7,49.3h-48.7v-40.1l49.8-95.4H179.3     L179.3,243.4z"/></g></g></g></svg>