<?xml version="1.0" ?><svg id="Layer_1" style="enable-background:new 0 0 512 512;" version="1.1" viewBox="0 0 512 512" xml:space="preserve" xmlns="http://www.w3.org/2000/svg" xmlns:xlink="http://www.w3.org/1999/xlink"><style type="text/css">
	.st0{fill:url(#SVGID_1_);}
	.st1{fill:#EA4C89;}
	.st2{fill:url(#SVGID_2_);}
	.st3{fill:url(#SVGID_3_);}
	.st4{fill:url(#SVGID_4_);}
	.st5{fill:url(#SVGID_5_);}
	.st6{fill:url(#SVGID_6_);}
	.st7{fill:url(#SVGID_7_);}
</style><g><g><g><linearGradient gradientUnits="userSpaceOnUse" id="SVGID_1_" x1="167.9395" x2="200.6226" y1="177.2242" y2="233.833"><stop offset="0" style="stop-color:#EA4C89"/><stop offset="0.1994" style="stop-color:#E4468C"/><stop offset="0.4781" style="stop-color:#D23394"/><stop offset="0.8022" style="stop-color:#B416A1"/><stop offset="1" style="stop-color:#9F00AA"/></linearGradient><path class="st0" d="M147.1,224.3c8.6-28,27.7-51.6,53.4-65.8c13.3,17.6,25.4,36,36.1,54.6C211.1,219.9,181.1,223.6,147.1,224.3z     "/><path class="st1" d="M199.2,165c10.8,14.6,20.7,29.6,29.8,44.8c-21.9,5.2-46.9,8.3-74.7,9.2C162.7,196.6,178.5,177.6,199.2,165      M201.9,152c-30.3,15.4-53.1,43.5-61.4,77.3c40-0.3,74.5-4.7,103.5-13.2C231.8,194.2,217.8,172.8,201.9,152L201.9,152z"/></g><g><linearGradient gradientUnits="userSpaceOnUse" id="SVGID_2_" x1="180.8132" x2="214.5319" y1="236.902" y2="295.3044"><stop offset="0" style="stop-color:#EA4C89"/><stop offset="0.1994" style="stop-color:#E4468C"/><stop offset="0.4781" style="stop-color:#D23394"/><stop offset="0.8022" style="stop-color:#B416A1"/><stop offset="1" style="stop-color:#9F00AA"/></linearGradient><path class="st2" d="M164.2,324.4c-13.9-18.9-21.7-41.7-22.1-65.1c42.3-0.4,79.6-5.4,111.1-14.7c1.3,2.6,2.5,5.3,3.8,8     C220,265.4,188.9,289.5,164.2,324.4z"/><path class="st1" d="M243.5,252.4c-30.8,13.1-57.4,34.3-79.2,63.4c-9.9-15.4-15.8-33.2-17-51.6     C183.1,263.5,215.4,259.6,243.5,252.4 M255.8,238.5c-33.2,10.4-72.7,15.7-118.6,15.8c0,1-0.2,2-0.2,3c0,28.7,10.3,55,27.4,75.5     c25.9-38.8,59.1-64.6,99.4-77.2C261.3,249.9,258.6,244.2,255.8,238.5L255.8,238.5z"/></g><g><linearGradient gradientUnits="userSpaceOnUse" id="SVGID_3_" x1="224.4982" x2="265.8435" y1="307.7152" y2="379.3275"><stop offset="0" style="stop-color:#EA4C89"/><stop offset="0.1994" style="stop-color:#E4468C"/><stop offset="0.4781" style="stop-color:#D23394"/><stop offset="0.8022" style="stop-color:#B416A1"/><stop offset="1" style="stop-color:#9F00AA"/></linearGradient><path class="st3" d="M255.2,370.5c-23.8,0-46.4-7.3-65.8-21.3c21.7-32.5,48.2-53.6,80.8-64.5c9.6,25.8,16.9,52.5,21.7,79.5     C280,368.4,267.7,370.5,255.2,370.5z"/><path class="st1" d="M267.3,291.1c8.2,22.7,14.5,46.1,19,69.7c-10.1,3.1-20.6,4.6-31,4.6c-21.1,0-41.2-6-58.8-17.5     c9.8-14,20.8-25.8,32.7-35.3C240.7,303.5,253.5,296.3,267.3,291.1 M273.3,278.6c-37.1,11.1-67.1,35-90.6,71.8     c20.1,15.7,45.2,25.1,72.5,25.1c15,0,29.2-2.9,42.4-8C292.5,337.1,284.3,307.4,273.3,278.6L273.3,278.6z"/></g><g><linearGradient gradientUnits="userSpaceOnUse" id="SVGID_4_" x1="262.7475" x2="295.8542" y1="130.0143" y2="187.3569"><stop offset="0" style="stop-color:#EA4C89"/><stop offset="0.1994" style="stop-color:#E4468C"/><stop offset="0.4781" style="stop-color:#D23394"/><stop offset="0.8022" style="stop-color:#B416A1"/><stop offset="1" style="stop-color:#9F00AA"/></linearGradient><path class="st4" d="M270,201.3c-10.5-18.9-22.3-37.4-35.2-55.2c6.9-1.3,13.7-2,20.4-2c23.4,0,45.7,7.1,64.9,20.6     C307.4,179.7,290.6,192,270,201.3z"/><path class="st1" d="M255.2,149.2c20.5,0,40.1,5.7,57.3,16.6c-10.8,11.5-24.3,21.3-40.4,29.1c-8.7-15.3-18.2-30.4-28.5-45     C247.5,149.4,251.4,149.2,255.2,149.2 M255.2,139.2c-10,0-19.7,1.4-29,3.8c15.6,21,29.5,42.6,41.6,64.8     c25.3-10.7,45.1-25.3,59.4-43.9C307.3,148.5,282.3,139.2,255.2,139.2L255.2,139.2z"/></g><g><linearGradient gradientUnits="userSpaceOnUse" id="SVGID_5_" x1="319.5151" x2="354.4199" y1="269.0252" y2="329.4821"><stop offset="0" style="stop-color:#EA4C89"/><stop offset="0.1994" style="stop-color:#E4468C"/><stop offset="0.4781" style="stop-color:#D23394"/><stop offset="0.8022" style="stop-color:#B416A1"/><stop offset="1" style="stop-color:#9F00AA"/></linearGradient><path class="st5" d="M324.2,346.9c-4.8-23.4-11.3-46.7-19.4-69.4c6.8-0.7,13.8-1.1,21-1.1c12.6,0,26.1,1.1,40.2,3.3     C360.6,306.4,345.7,330.3,324.2,346.9z"/><path class="st1" d="M325.8,271.5v10c10.8,0,22.2,0.8,34.1,2.5c-5.3,20.7-16.7,39.5-32.5,53.8c-4.2-18.8-9.4-37.5-15.7-55.8     c4.6-0.3,9.4-0.5,14.2-0.5L325.8,271.5 M325.8,271.5c-9.7,0-18.9,0.6-27.9,1.9c10,26.8,17.7,54.2,22.9,82.2     c26.8-18,45.8-46.7,51-79.9C355.6,272.9,340.3,271.5,325.8,271.5L325.8,271.5z"/></g><g><linearGradient gradientUnits="userSpaceOnUse" id="SVGID_6_" x1="313.5338" x2="343.2333" y1="207.3511" y2="258.7921"><stop offset="0" style="stop-color:#EA4C89"/><stop offset="0.1994" style="stop-color:#E4468C"/><stop offset="0.4781" style="stop-color:#D23394"/><stop offset="0.8022" style="stop-color:#B416A1"/><stop offset="1" style="stop-color:#9F00AA"/></linearGradient><path class="st6" d="M367.5,244.8c-14.2-2-28.1-3.1-41.2-3.1c-12,0-23.7,0.9-34.9,2.6c-1.9-4.4-3.7-8.3-5.5-12     c24-11.1,43.9-25.6,59.3-43.2C357.7,205.3,365.3,224.4,367.5,244.8z"/><path class="st1" d="M344.8,196.9c8.6,12.7,14.3,26.9,16.8,42c-12.2-1.5-24-2.3-35.4-2.3c-10.9,0-21.6,0.7-31.8,2.1     c-0.6-1.4-1.3-2.8-1.9-4.1C313.1,224.6,330.6,211.9,344.8,196.9 M345.4,181.1c-16.5,20.5-38.6,36.7-66.1,48.6     c3.2,6.6,6.2,13.3,9.1,20c12.1-2.1,24.7-3.1,37.9-3.1c14.9,0,30.5,1.3,46.8,4C371.6,224.3,361.5,200.1,345.4,181.1L345.4,181.1z"/></g><g><linearGradient gradientUnits="userSpaceOnUse" id="SVGID_7_" x1="152.1333" x2="359.8679" y1="76.0987" y2="435.9055"><stop offset="0" style="stop-color:#EA4C89"/><stop offset="0.1994" style="stop-color:#E4468C"/><stop offset="0.4781" style="stop-color:#D23394"/><stop offset="0.8022" style="stop-color:#B416A1"/><stop offset="1" style="stop-color:#9F00AA"/></linearGradient><path class="st7" d="M256,463.8c-114.6,0-207.8-93.2-207.8-207.8c0-114.6,93.2-207.8,207.8-207.8c114.6,0,207.8,93.2,207.8,207.8     C463.8,370.6,370.6,463.8,256,463.8z M255.2,109.3c-81.6,0-148,66.4-148,148c0,81.6,66.4,148,148,148c81.6,0,148-66.4,148-148     C403.3,175.7,336.8,109.3,255.2,109.3z"/><path class="st1" d="M256,53.2c27.4,0,53.9,5.4,78.9,15.9c24.1,10.2,45.8,24.8,64.5,43.5c18.6,18.6,33.2,40.3,43.5,64.5     c10.6,25,15.9,51.5,15.9,78.9c0,27.4-5.4,53.9-15.9,78.9c-10.2,24.1-24.8,45.8-43.5,64.5c-18.6,18.6-40.3,33.2-64.5,43.5     c-25,10.6-51.5,15.9-78.9,15.9c-27.4,0-53.9-5.4-78.9-15.9c-24.1-10.2-45.8-24.8-64.5-43.5c-18.6-18.6-33.2-40.3-43.5-64.5     c-10.6-25-15.9-51.5-15.9-78.9c0-27.4,5.4-53.9,15.9-78.9c10.2-24.1,24.8-45.8,43.5-64.5c18.6-18.6,40.3-33.2,64.5-43.5     C202.1,58.6,228.6,53.2,256,53.2 M255.2,410.4c84.4,0,153-68.6,153-153c0-84.4-68.6-153-153-153c-84.4,0-153,68.6-153,153     C102.2,341.7,170.8,410.4,255.2,410.4 M256,43.2C138.5,43.2,43.2,138.5,43.2,256c0,117.5,95.3,212.8,212.8,212.8     S468.8,373.5,468.8,256C468.8,138.5,373.5,43.2,256,43.2L256,43.2z M255.2,400.4c-79,0-143-64-143-143c0-79,64-143,143-143     s143,64,143,143C398.3,336.3,334.2,400.4,255.2,400.4L255.2,400.4z"/></g></g></g></svg>