<?xml version="1.0" ?><svg height="56px" version="1.1" viewBox="0 0 56 56" width="56px" xmlns="http://www.w3.org/2000/svg" xmlns:xlink="http://www.w3.org/1999/xlink"><title/><desc/><defs/><g fill="none" fill-rule="evenodd" id="Page-1" stroke="none" stroke-width="1"><g fill="#000000" fill-rule="nonzero" id="006---Skip-Backward"><polygon id="Shape" points="32 30.427 39 35.276 39 20.724 32 25.573"/><rect height="14" id="Rectangle-path" width="2" x="17" y="21"/><polygon id="Shape" points="21 29.037 30 35.276 30 20.724 21 26.963"/><path d="M28,0.125 C12.6212947,0.193808325 0.203691524,12.7043573 0.249564007,28.0831481 C0.29543649,43.4619389 12.787452,55.8981865 28.1662941,55.87525 C43.5451362,55.8523134 56.0000005,43.3788592 56,28 C55.9479795,12.5778464 43.422232,0.108017439 28,0.125 Z M28,53.875 C13.7258624,53.8062083 2.20367241,42.1910968 2.24953355,27.9168671 C2.29539468,13.6426374 13.8919815,2.1018034 28.1662665,2.12473387 C42.4405514,2.14766433 53.9999997,13.7256966 54,28 C53.9494092,42.3181773 42.3182549,53.8934126 28,53.875 Z" id="Shape"/><path d="M28,4.125 C14.8304243,4.19376862 4.20363798,14.9134441 4.24948467,28.0831195 C4.29533136,41.2527949 14.9964946,51.898223 28.1662298,51.8752983 C41.3359651,51.8523737 52.0000025,41.1697552 52,28 C51.950323,14.7860145 41.2140648,4.10567421 28,4.125 Z M41,35.8501 C40.9992426,36.789254 40.2389513,37.5508511 39.2998,37.55322 C38.9561129,37.5531506 38.6207177,37.4476592 38.33887,37.25098 L32,32.85925 L32,35.8501 C31.9992426,36.789254 31.2389513,37.5508511 30.2998,37.55322 C29.9561129,37.5531506 29.6207177,37.4476592 29.33887,37.25098 L21,31.46985 L21,35 C20.998738,36.1040464 20.1040464,36.998738 19,37 L17,37 C15.8959536,36.998738 15.001262,36.1040464 15,35 L15,21 C15.001262,19.8959536 15.8959536,19.001262 17,19 L19,19 C20.1040464,19.001262 20.998738,19.8959536 21,21 L21,24.53021 L29.34082,18.74805 C29.8563019,18.3887126 30.5292788,18.3472646 31.08496,18.64063 C31.6479445,18.9333061 32.0008469,19.5153844 32,20.1499 L32,23.14081 L38.34082,18.74805 C38.8563019,18.3887126 39.5292788,18.3472646 40.08496,18.64063 C40.6479445,18.9333061 41.0008469,19.5153844 41,20.1499 L41,35.8501 Z" id="Shape"/></g></g></svg>