<?xml version="1.0" ?><svg height="56px" version="1.1" viewBox="0 0 56 56" width="56px" xmlns="http://www.w3.org/2000/svg" xmlns:xlink="http://www.w3.org/1999/xlink"><title/><desc/><defs/><g fill="none" fill-rule="evenodd" id="Page-1" stroke="none" stroke-width="1"><g fill="#000000" fill-rule="nonzero" id="013---Playlist"><path d="M41,27.05469 L28,27.05469 C27.4477153,27.05469 27,27.5024053 27,28.05469 C27,28.6069747 27.4477153,29.05469 28,29.05469 L41,29.05469 C41.5522847,29.05469 42,28.6069747 42,28.05469 C42,27.5024053 41.5522847,27.05469 41,27.05469 Z" id="Shape"/><path d="M41,35.05469 L15,35.05469 C14.4477153,35.05469 14,35.5024053 14,36.05469 C14,36.6069747 14.4477153,37.05469 15,37.05469 L41,37.05469 C41.5522847,37.05469 42,36.6069747 42,36.05469 C42,35.5024053 41.5522847,35.05469 41,35.05469 Z" id="Shape"/><path d="M41,19.05469 L28,19.05469 C27.4477153,19.05469 27,19.5024053 27,20.05469 C27,20.6069747 27.4477153,21.05469 28,21.05469 L41,21.05469 C41.5522847,21.05469 42,20.6069747 42,20.05469 C42,19.5024053 41.5522847,19.05469 41,19.05469 Z" id="Shape"/><polygon id="Shape" points="14 19.117 14 28.883 20.943 24"/><path d="M28,4.125 C14.8304243,4.19376862 4.20363798,14.9134441 4.24948467,28.0831195 C4.29533136,41.2527949 14.9964946,51.898223 28.1662298,51.8752983 C41.3359651,51.8523737 52.0000025,41.1697552 52,28 C51.950323,14.7860145 41.2140648,4.10567421 28,4.125 Z M12,18.90918 C11.9962539,18.1958601 12.3916832,17.5403277 13.02441,17.21094 C13.6405126,16.8906862 14.3838241,16.9409808 14.95117,17.34131 L22.19043,22.43213 C22.6983001,22.7928947 23.0000022,23.3772817 23.0000022,24.000245 C23.0000022,24.6232083 22.6983001,25.2075953 22.19043,25.56836 L14.95117,30.65869 C14.3841497,31.0599356 13.6403134,31.1102656 13.02441,30.78906 C12.3916832,30.4596723 11.9962539,29.8041399 12,29.09082 L12,18.90918 Z M41,39.05469 L15,39.05469 C13.3431458,39.05469 12,37.7115442 12,36.05469 C12,34.3978358 13.3431458,33.05469 15,33.05469 L41,33.05469 C42.6568542,33.05469 44,34.3978358 44,36.05469 C44,37.7115442 42.6568542,39.05469 41,39.05469 Z M41,31.05469 L28,31.05469 C26.3431458,31.05469 25,29.7115442 25,28.05469 C25,26.3978358 26.3431458,25.05469 28,25.05469 L41,25.05469 C42.6568542,25.0546901 43.9999999,26.3978358 43.9999999,28.05469 C43.9999999,29.7115442 42.6568542,31.0546899 41,31.05469 Z M41,23.05469 L28,23.05469 C26.3431458,23.05469 25,21.7115442 25,20.05469 C25,18.3978358 26.3431458,17.05469 28,17.05469 L41,17.05469 C42.6568542,17.05469 44,18.3978358 44,20.05469 C44,21.7115442 42.6568542,23.05469 41,23.05469 Z" id="Shape"/><path d="M28,0.125 C12.6212947,0.193808325 0.203691524,12.7043573 0.249564007,28.0831481 C0.29543649,43.4619389 12.787452,55.8981865 28.1662941,55.87525 C43.5451362,55.8523134 56.0000005,43.3788592 56,28 C55.9479795,12.5778464 43.422232,0.108017439 28,0.125 Z M28,53.875 C13.7258624,53.8062083 2.20367241,42.1910968 2.24953355,27.9168671 C2.29539468,13.6426374 13.8919815,2.1018034 28.1662665,2.12473387 C42.4405514,2.14766433 53.9999997,13.7256966 54,28 C53.9494092,42.3181773 42.3182549,53.8934126 28,53.875 Z" id="Shape"/></g></g></svg>