<?xml version="1.0" ?><svg viewBox="0 0 128 128" xmlns="http://www.w3.org/2000/svg"><defs><style>.cls-1{fill:#ffc219;}.cls-2{fill:#ffda75;}.cls-3{fill:#f47c27;}.cls-4{fill:#e6e6e6;}.cls-5{fill:#f2f2f2;}.cls-6{fill:#ccc;}.cls-7{fill:#333;}.cls-8{fill:#1f1f1f;}.cls-9{fill:#4d4d4d;}</style></defs><title/><g data-name="06 Idea" id="_06_Idea"><path class="cls-1" d="M64.39,16C32.5,15.66,15.71,54.6,38.54,77.44A25.85,25.85,0,0,1,46,95.73V106a6,6,0,0,0,6,6H76a6,6,0,0,0,6-6c0-10-1.28-19.89,7.36-28.46C111.93,55.15,96.29,16.34,64.39,16Z"/><path class="cls-2" d="M47.66,97.39c0-8.72-3.54-14.37-9.12-20C47.18,86.08,46,95.53,46,106a6,6,0,0,0,2.67,5C47.36,109,47.66,108.4,47.66,97.39Z"/><path class="cls-2" d="M28,51.19C27.75,63,32.52,71.42,40.2,79.1A35.87,35.87,0,0,1,29.67,52.86c.67-30.73,37.8-46.75,60.55-25.51C68.15,3.88,28.71,19.32,28,51.19Z"/><path class="cls-3" d="M82.76,21.27a36,36,0,0,1,3.36,54,25.4,25.4,0,0,0-7.31,16.55,1.89,1.89,0,0,1-1.75,1.76L47.6,95.73H78.77v8a6,6,0,0,1-6,6h-24a6,6,0,0,1-1.6-.22A6,6,0,0,0,52,112H76a6,6,0,0,0,6-6c0-10-1.28-19.89,7.36-28.46A36,36,0,0,0,82.76,21.27Z"/><path class="cls-2" d="M61.74,106.55l-6-24.82a2.32,2.32,0,0,1,4.52-1.09L64,96.11l3.74-15.48a2.32,2.32,0,0,1,4.52,1.09l-6,24.82A2.33,2.33,0,0,1,61.74,106.55Z"/><polygon class="cls-1" points="64.38 94.53 64.09 95.73 68.87 95.73 69.25 94.19 64.38 94.53"/><polygon class="cls-1" points="59.13 95.73 63.91 95.73 63.63 94.59 58.93 94.92 59.13 95.73"/><path class="cls-4" d="M82,95.73H46V106a6,6,0,0,0,6,6H76a6,6,0,0,0,6-6Z"/><path class="cls-5" d="M48.67,111c-1.88-2.81-.62-8.14-1.07-15.26H46V106A6,6,0,0,0,48.67,111Z"/><path class="cls-6" d="M78.77,95.73v8a6,6,0,0,1-6,6h-24a6,6,0,0,1-1.6-.22h0A6,6,0,0,0,52,112H76a6,6,0,0,0,6-6V95.73Z"/><path class="cls-7" d="M52,112H76a6,6,0,0,0,6-6H46A6,6,0,0,0,52,112Z"/><path class="cls-8" d="M72.32,111c-10.91.19-26.57,1-20.32,1H76a6,6,0,0,0,6-6H78.33C77.45,108.21,74.85,110.95,72.32,111Z"/><path class="cls-9" d="M48.67,111c-1.16-1.73-1-3.17-1-5H46A6,6,0,0,0,48.67,111Z"/><path class="cls-7" d="M82,101.93v2H46v-2ZM46,97.8v2H82v-2Z"/><rect class="cls-9" height="2" width="1.66" x="46" y="101.93"/><rect class="cls-9" height="2" width="1.66" x="46" y="97.8"/><path class="cls-8" d="M78.76,103.93H82v-2H78.77C78.77,102.42,78.77,103.47,78.76,103.93Z"/><rect class="cls-8" height="2" width="3.23" x="78.77" y="97.8"/></g></svg>