<?xml version="1.0" ?><svg viewBox="0 0 128 128" xmlns="http://www.w3.org/2000/svg"><defs><style>.cls-1{fill:#333;}.cls-2{fill:#4d91bb;}.cls-3{fill:#2175aa;}.cls-4{fill:#1d6694;}.cls-5{fill:#7aaccc;}.cls-6{fill:#a6c8dd;}</style></defs><title/><g data-name="16 Bag" id="_16_Bag"><path class="cls-1" d="M72,35H56a3,3,0,0,1-3-3V24a11,11,0,0,1,22,0v8A3,3,0,0,1,72,35ZM59,29H69V24a5,5,0,0,0-10,0Z"/><rect class="cls-2" height="45" rx="6" ry="6" width="22.44" x="83.56" y="64"/><path class="cls-3" d="M97.73,104.87V83c0-2,1.82-2,5.27-3H97.73V64h-4.5v43.14H89.56a6,6,0,0,1-6-6V103a6,6,0,0,0,6,6H100a6,6,0,0,0,6-6v-1.86C106,107.22,97.73,109.06,97.73,104.87Z"/><rect class="cls-3" height="16" rx="6" ry="6" width="25.44" x="83.56" y="64"/><path class="cls-4" d="M97.73,76.54V64h-4.5V80H103C100.14,79.19,97.73,79,97.73,76.54Z"/><rect class="cls-2" height="45" rx="6" ry="6" width="22.44" x="22" y="64"/><path class="cls-5" d="M22.94,70.94a6,6,0,0,1,6-6c11.06,0,12.06-.38,14.19,1.32C40.8,63.34,38.52,64,28,64a6,6,0,0,0-6,6v33a6,6,0,0,0,2.26,4.68C22.46,105.44,22.94,106.87,22.94,70.94Z"/><path class="cls-3" d="M38.43,64a6,6,0,0,1,2.67,5v33a6,6,0,0,1-6.34,6V64h-4.5V80H25c3.75.79,5.27.75,5.27,2.49v23.73A1.77,1.77,0,0,1,28.5,108H24.67c1.81,1.21,3.31,1,5.6,1h8.17a6,6,0,0,0,6-6V70A6,6,0,0,0,38.43,64Z"/><rect class="cls-3" height="16" rx="6" ry="6" width="25.44" x="19" y="64"/><path class="cls-2" d="M19.94,70.94a6,6,0,0,1,6-6c14.49,0,15.06-.39,17.19,1.32C40.8,63.35,39,64,25,64a6,6,0,0,0-6,6c0,3.73-.49,6.49,2.26,8.68C19.64,76.66,19.94,75,19.94,70.94Z"/><path class="cls-4" d="M30.27,65.73v11.6c0,2-1.86,1.93-5.27,2.68h9.77V64H32A1.73,1.73,0,0,0,30.27,65.73Z"/><path class="cls-2" d="M90,112H38a6,6,0,0,1-6-6V56a32,32,0,0,1,64,0v50A6,6,0,0,1,90,112Z"/><path class="cls-5" d="M33.22,106V56A32,32,0,0,1,64.61,24,32,32,0,0,0,32,56v50a6,6,0,0,0,6,6h1.22A6,6,0,0,1,33.22,106Z"/><path class="cls-3" d="M85.19,32a31.87,31.87,0,0,1,8,21.19v50a6,6,0,0,1-6,6c-56.49,0-52.84.26-54.62-.61A6,6,0,0,0,38,112H90a6,6,0,0,0,6-6V56A31.91,31.91,0,0,0,85.19,32Z"/><path class="cls-3" d="M81.4,39.5A23.91,23.91,0,0,1,88,56v48H40.9v.9h48v-48A23.93,23.93,0,0,0,81.4,39.5Z"/><path class="cls-5" d="M40,104V56a24,24,0,0,1,48,0v48Z"/><path class="cls-6" d="M64.61,80,42.7,79.18a1.87,1.87,0,0,1-1.8-1.87V56A24,24,0,0,1,64.45,32,24,24,0,0,0,40,56v48h.9V80Z"/><path class="cls-3" d="M32,80v26a6,6,0,0,0,6,6H90a6,6,0,0,0,6-6V80Z"/><path class="cls-2" d="M33.22,106c0-25.2-.48-25.06,1.16-25.27L40,80H32v26a6,6,0,0,0,6,6h1.22A6,6,0,0,1,33.22,106Z"/><path class="cls-4" d="M33.22,80l58,1.43a2,2,0,0,1,2,2v19.76a6,6,0,0,1-6,6c-56.49,0-52.84.26-54.62-.61A6,6,0,0,0,38,112H90a6,6,0,0,0,6-6V80Z"/><path class="cls-1" d="M86.56,91H41.44c-4,0-4-6,0-6H86.56C90.52,85,90.53,91,86.56,91Z"/></g></svg>