<?xml version="1.0" ?><svg viewBox="0 0 128 128" xmlns="http://www.w3.org/2000/svg"><defs><style>.cls-1{fill:#ccc;}.cls-2{fill:#e6e6e6;}.cls-3{fill:#4d4d4d;}.cls-4{fill:#b3b3b3;}.cls-5{fill:#333;}</style></defs><title/><g data-name="31 Ruler" id="_31_Ruler"><path class="cls-1" d="M104.74,17.25,17.25,104.74a4.25,4.25,0,0,0,3,7.26h85.37a6.38,6.38,0,0,0,6.38-6.38V20.26A4.25,4.25,0,0,0,104.74,17.25ZM94,88a6,6,0,0,1-6,6H58.28a2,2,0,0,1-1.41-3.41L90.59,56.87A2,2,0,0,1,94,58.28Z"/><path class="cls-2" d="M89.25,95.25a6,6,0,0,0,6-6s-.6-31.33-1.35-31.59c.15.47.1,29.85.1,30.34a6,6,0,0,1-6,6H58.28a2,2,0,0,1-.63-.1C57.92,94.65,89.25,95.25,89.25,95.25Z"/><path class="cls-2" d="M18.5,106,106,18.5a4.21,4.21,0,0,1,5.34-.54,4.25,4.25,0,0,0-6.59-.71L17.25,104.74a4.25,4.25,0,0,0,.71,6.59A4.21,4.21,0,0,1,18.5,106Z"/><path class="cls-2" d="M108.65,21.16h0a3.71,3.71,0,0,0-1.09,2.62v77.41a6.38,6.38,0,0,1-6.38,6.38c-83.34,0-78.48-.47-80,1.09a4.15,4.15,0,0,0-1.24,3.09.26.26,0,0,0,.26.25h85.45a6.37,6.37,0,0,0,6.37-6.38V20.26a.34.34,0,0,0-.33-.34A4.15,4.15,0,0,0,108.65,21.16Z"/><path class="cls-3" d="M65.25,107.57V112h-2.5v-4.43Zm4.8,0V112h2.5v-4.43Zm7.3,0V112h2.5v-4.43Zm7.3,0V112h2.5v-4.43Zm7.3,0V112h2.5v-4.43Zm-58.4,0V112H36v-4.43Zm-7.3,0V112h2.5v-4.43Zm73,0V112h2.5v-4.46C101.25,107.58,99.77,107.57,99.25,107.57Zm-51.1,0V112h2.5v-4.43Zm-7.3,0V112h2.5v-4.43Zm14.6,0V112h2.5v-4.43Zm52.12-64.22H112v-2.5h-4.43Zm0,14.6H112v-2.5h-4.43Zm0-7.3H112v-2.5h-4.43Zm0-14.6H112v-2.5h-4.43Zm0,65.7H112v-2.5h-4.43C107.57,99.77,107.58,101.25,107.54,101.75Zm0-36.5H112v-2.5h-4.43Zm0-36.5H112v-2.5h-4.43Zm0,65.7H112V92h-4.43Zm0-7.3H112v-2.5h-4.43Zm0-14.6H112v-2.5h-4.43Zm0,7.3H112v-2.5h-4.43Z"/><path class="cls-4" d="M89.1,55.38,55.38,89.1a2,2,0,0,0,1,3.35,1.94,1.94,0,0,1,.52-1.86c36.34-36.34,34-34.6,35.58-34.23A2,2,0,0,0,89.1,55.38Z"/><path class="cls-4" d="M109.92,16.6c.86,1.44.59-4.89.59,87.53a6.38,6.38,0,0,1-6.38,6.38c-92.2,0-86.08.27-87.53-.59A4.17,4.17,0,0,0,20.26,112h85.37a6.38,6.38,0,0,0,6.38-6.38V20.26A4.17,4.17,0,0,0,109.92,16.6Z"/><path class="cls-5" d="M62.75,110.51V112h2.5v-1.49Z"/><path class="cls-5" d="M70.05,110.51V112h2.5v-1.49Z"/><path class="cls-5" d="M77.35,110.51V112h2.5v-1.49Z"/><path class="cls-5" d="M99.25,110.51V112h2.5v-1.49Z"/><path class="cls-5" d="M84.65,110.51V112h2.5v-1.49Z"/><path class="cls-5" d="M92,110.51V112h2.5v-1.49Z"/><path class="cls-5" d="M26.25,110.51V112h2.5v-1.49Z"/><path class="cls-5" d="M33.55,110.51V112H36v-1.49Z"/><path class="cls-5" d="M48.15,110.51V112h2.5v-1.49Z"/><path class="cls-5" d="M55.45,110.51V112h2.5v-1.49Z"/><path class="cls-5" d="M40.85,110.51V112h2.5v-1.49Z"/><rect class="cls-5" height="2.5" width="1.49" x="110.51" y="55.45"/><rect class="cls-5" height="2.5" width="1.49" x="110.51" y="40.85"/><rect class="cls-5" height="2.5" width="1.49" x="110.51" y="48.15"/><rect class="cls-5" height="2.5" width="1.49" x="110.51" y="62.75"/><rect class="cls-5" height="2.5" width="1.49" x="110.51" y="99.25"/><rect class="cls-5" height="2.5" width="1.49" x="110.51" y="33.55"/><rect class="cls-5" height="2.5" width="1.49" x="110.51" y="26.25"/><rect class="cls-5" height="2.5" width="1.49" x="110.51" y="91.95"/><rect class="cls-5" height="2.5" width="1.49" x="110.51" y="70.05"/><rect class="cls-5" height="2.5" width="1.49" x="110.51" y="84.65"/><rect class="cls-5" height="2.5" width="1.49" x="110.51" y="77.35"/></g></svg>