<?xml version="1.0" ?><svg viewBox="0 0 128 128" xmlns="http://www.w3.org/2000/svg"><defs><style>.cls-1{fill:#e0a66d;}.cls-2{fill:#e8bc91;}.cls-3{fill:#d89048;}.cls-4{fill:#c28041;}.cls-5{fill:#6d5c49;}.cls-6{fill:#594e43;}.cls-7{fill:#f7e9da;}</style></defs><title/><g data-name="36 Football" id="_36_Football"><path class="cls-1" d="M16.36,106.14a6.07,6.07,0,0,0,5.5,5.5,82.41,82.41,0,0,0,89.78-89.78,6.07,6.07,0,0,0-5.5-5.5A82.41,82.41,0,0,0,16.36,106.14Z"/><path class="cls-2" d="M109.44,18.06a6.31,6.31,0,0,1,.9.58,6.18,6.18,0,0,0-1.28-1.21v0a6.4,6.4,0,0,0-2.9-1.06A82.45,82.45,0,0,0,19.42,74.87h0c-1.23,4.92-4.55,15.38-3.06,31.27a6.2,6.2,0,0,0,1.2,3.09h0a6.19,6.19,0,0,0,1.06,1.09,6.32,6.32,0,0,1-.53-.79c3.1,1.56,18.73,1.68,32.2-2.08A36,36,0,0,0,25,76.12a4.43,4.43,0,0,1-2.75-5.84,82.47,82.47,0,0,1,50.94-49,1.65,1.65,0,0,1,2.13,1.2,36,36,0,0,0,32,27.94C111.34,36.27,110.9,20.86,109.44,18.06Z"/><path class="cls-3" d="M111,42.51c1-6.5,3.23-22.44-2.59-25.47a6,6,0,0,1,.69,2.38c-6.29-1-18.88-.62-30.49,2.63A36,36,0,0,0,96.14,50a11.27,11.27,0,0,1,4.11,14.89,82.69,82.69,0,0,1-36.44,35.92,11.09,11.09,0,0,1-14.43-4.19A36,36,0,0,0,21.51,79.12,82.89,82.89,0,0,0,18.81,109a6.18,6.18,0,0,1-1.77-.61,6.07,6.07,0,0,0,4.82,3.25A82.41,82.41,0,0,0,111,42.51Z"/><path class="cls-3" d="M106.3,16.37a5.94,5.94,0,0,1,5.33,5.33,82.89,82.89,0,0,1-2.68,30.16A36,36,0,0,1,76.14,19.06,82.89,82.89,0,0,1,106.3,16.37ZM19.06,76.14a82.89,82.89,0,0,0-2.68,30.16,5.94,5.94,0,0,0,5.33,5.33,82.89,82.89,0,0,0,30.16-2.68A36,36,0,0,0,19.06,76.14Z"/><path class="cls-1" d="M31,79.3a35.77,35.77,0,0,0-12-3.16,82.89,82.89,0,0,0-2.68,30.16,5.94,5.94,0,0,0,4.26,5.12,5.92,5.92,0,0,1-3-4.55,82.91,82.91,0,0,1,2.27-28.61,1.85,1.85,0,0,1,2-1.38A35.78,35.78,0,0,1,31,79.3Z"/><path class="cls-1" d="M108.51,17.12l.14,0c-4-2.33-21.51-1.17-32.52,1.91h0c0,.41.08.81.13,1.22h0a36,36,0,0,0,22,29,36,36,0,0,1-20.63-28,1.52,1.52,0,0,1,1.13-1.65,82.84,82.84,0,0,1,28.38-2.28,6.06,6.06,0,0,1,3.21,1.3A6.1,6.1,0,0,0,108.51,17.12Z"/><path class="cls-4" d="M110,18.2l0,.1A6.09,6.09,0,0,0,108.39,17c1.71,3.28,1,15.94.19,21.66a9.72,9.72,0,0,1-13.9,7.4A36.1,36.1,0,0,1,80.6,33.59a36,36,0,0,0,25.13,17.84v0c.69.12,2.2.33,3.21.42h0a88.23,88.23,0,0,0,3-17.9C112.15,21.46,111.68,20,110,18.2Z"/><path class="cls-4" d="M51.86,108.94c-.1-1.13-.29-2.47-.42-3.21h0A35.8,35.8,0,0,0,46.1,92.28c4.89,8.71-.39,15.2-6.27,16.13-9.81,1.55-19.6,1-21.5.48a6,6,0,0,1-1.64-1.22,5.92,5.92,0,0,0,5.12,4A83.62,83.62,0,0,0,51.86,108.94Z"/><path class="cls-3" d="M56.06,80.81l-7.87-7.87A2,2,0,0,1,51,70.11L58.89,78A2,2,0,0,1,56.06,80.81Zm8.06-8.06-7.87-7.87a2,2,0,0,0-2.83,2.83l7.88,7.88A2,2,0,0,0,64.12,72.75ZM74.58,62.29l-7.87-7.87a2,2,0,0,0-2.83,2.83l7.88,7.88A2,2,0,0,0,74.58,62.29Zm5.23-5.23-7.87-7.87A2,2,0,0,0,69.11,52L77,59.89A2,2,0,0,0,79.81,57.06ZM69.35,67.52l-7.87-7.87a2,2,0,0,0-2.83,2.83l7.88,7.88A2,2,0,0,0,69.35,67.52Z"/><path class="cls-5" d="M46.59,78.59l32-32a2,2,0,0,1,2.83,2.83l-32,32A2,2,0,0,1,46.59,78.59Z"/><rect class="cls-6" height="4" transform="translate(-32.24 61.63) rotate(-45)" width="4" x="56.27" y="67.73"/><rect class="cls-6" height="4" transform="translate(-27.01 63.79) rotate(-45)" width="4" x="61.5" y="62.5"/><rect class="cls-6" height="4" transform="translate(-37.47 59.46) rotate(-45)" width="4" x="51.04" y="72.96"/><rect class="cls-6" height="4" transform="translate(-16.55 68.13) rotate(-45)" width="4" x="71.96" y="52.04"/><rect class="cls-6" height="4" transform="translate(-21.78 65.96) rotate(-45)" width="4" x="66.73" y="57.27"/><path class="cls-7" d="M56.06,79.81l-7.87-7.87A2,2,0,0,1,51,69.11L58.89,77A2,2,0,0,1,56.06,79.81Zm8.06-8.06-7.87-7.87a2,2,0,0,0-2.83,2.83l7.88,7.88A2,2,0,0,0,64.12,71.75ZM74.58,61.29l-7.87-7.87a2,2,0,0,0-2.83,2.83l7.88,7.88A2,2,0,0,0,74.58,61.29Zm5.23-5.23-7.87-7.87A2,2,0,0,0,69.11,51L77,58.89A2,2,0,0,0,79.81,56.06ZM69.35,66.52l-7.87-7.87a2,2,0,0,0-2.83,2.83l7.88,7.88A2,2,0,0,0,69.35,66.52Z"/><path class="cls-2" d="M67.59,69.2a2,2,0,0,1-1.41-.59c-.22-.22-7.87-7.85-8.06-8.1.21.91.29.73,8.4,8.84a2,2,0,0,0,3-2.6A2,2,0,0,1,67.59,69.2Z"/><path class="cls-2" d="M62.36,74.43a2,2,0,0,1-1.41-.59c-.22-.22-7.87-7.85-8.06-8.1.21.91.29.73,8.4,8.84a2,2,0,0,0,3-2.6A2,2,0,0,1,62.36,74.43Z"/><path class="cls-2" d="M55.72,79.08c-.22-.22-7.87-7.85-8.06-8.1.21.91.29.73,8.4,8.84a2,2,0,0,0,3-2.6A2,2,0,0,1,55.72,79.08Z"/><path class="cls-2" d="M72.83,64a2,2,0,0,1-1.41-.59c-.22-.22-7.87-7.85-8.06-8.1.21.91.29.73,8.4,8.84a2,2,0,0,0,3-2.6A2,2,0,0,1,72.83,64Z"/><path class="cls-2" d="M80,56.29a2,2,0,0,1-3.36,1.86c-.22-.22-7.87-7.85-8.06-8.1.21.91.29.73,8.4,8.84A2,2,0,0,0,80,56.29Z"/></g></svg>