<?xml version="1.0" ?><svg id="Christmas_Icon" style="enable-background:new 0 0 56 56;" version="1.1" viewBox="0 0 56 56" xml:space="preserve" xmlns="http://www.w3.org/2000/svg" xmlns:xlink="http://www.w3.org/1999/xlink"><style type="text/css">
	.st0{fill:#F5F5F5;stroke:#3E2723;stroke-linecap:round;stroke-linejoin:round;stroke-miterlimit:10;}
	.st1{fill:#E0E0E0;}
	.st2{fill:#8D6E63;stroke:#3E2723;stroke-linecap:round;stroke-linejoin:round;stroke-miterlimit:10;}
	.st3{fill:#5D4037;}
	.st4{fill:none;stroke:#3E2723;stroke-linecap:round;stroke-linejoin:round;stroke-miterlimit:10;}
	.st5{fill:#FFD54F;stroke:#3E2723;stroke-linecap:round;stroke-linejoin:round;stroke-miterlimit:10;}
	.st6{fill:#E53935;stroke:#3E2723;stroke-linecap:round;stroke-linejoin:round;stroke-miterlimit:10;}
	.st7{fill:#B71C1C;}
	.st8{fill:#FFA000;}
	.st9{fill:#FFECB3;stroke:#3E2723;stroke-linecap:round;stroke-linejoin:round;stroke-miterlimit:10;}
	.st10{fill:#FFE082;}
	.st11{fill:#3E2723;}
	.st12{fill:#81C784;stroke:#3E2723;stroke-linecap:round;stroke-linejoin:round;stroke-miterlimit:10;}
	.st13{fill:#43A047;}
	.st14{fill:#263238;}
	.st15{fill:#4E342E;stroke:#3E2723;stroke-linecap:round;stroke-linejoin:round;stroke-miterlimit:10;}
	.st16{fill:none;}
	.st17{fill:#A1887F;stroke:#3E2723;stroke-linecap:round;stroke-linejoin:round;stroke-miterlimit:10;}
	.st18{fill:#6D4C41;}
	.st19{fill:#6D4C41;stroke:#3E2723;stroke-linecap:round;stroke-linejoin:round;stroke-miterlimit:10;}
	.st20{fill:#E0E0E0;stroke:#3E2723;stroke-miterlimit:10;}
	.st21{fill:#D81B60;stroke:#3E2723;stroke-linecap:round;stroke-linejoin:round;stroke-miterlimit:10;}
	.st22{fill:#E0E0E0;stroke:#3E2723;stroke-linecap:round;stroke-linejoin:round;stroke-miterlimit:10;}
	.st23{fill:#FBC02D;stroke:#3E2723;stroke-linecap:round;stroke-linejoin:round;stroke-miterlimit:10;}
</style><g id="Gloves"><path class="st6" d="M27.4,7.4l-4.7,4.7v-0.6c0-2.8-2.2-5-5-5l0,0c-2.8,0-5,2.2-5,5v10.6l-8.6,8.6l21.2,21.2l23.3-23.3   c5.9-5.9,5.9-15.4,0-21.2l0,0C42.8,1.5,33.3,1.5,27.4,7.4z"/><path class="st7" d="M25.3,51.2l23-23c5.7-5.7,5.7-14.9,0-20.5C48,7.5,47.8,7.3,47.5,7c3.3,5.7,2.5,13.1-2.4,18l-23,23L25.3,51.2z"/><g><g><path class="st4" d="M19.7,15.1c0.6,0.6,1,1.4,1.1,2.4l0.4,3.2l4.4,0.5c1.2,0.1,2.1,1,2.2,2.2l0.5,4.4l4.4,0.5     c1.2,0.1,2.1,1,2.2,2.2l0.5,4.4l3.2,0.4c0.9,0.1,1.8,0.5,2.4,1.1"/></g></g><line class="st4" x1="22.7" x2="19.8" y1="12.1" y2="15"/><path class="st5" d="M39.2,38c-0.2-0.2-0.5-0.4-0.9-0.4L33.1,37l-0.6-5.2c-0.1-0.7-0.6-1.2-1.3-1.3L26,30l-0.6-5.2   c-0.1-0.7-0.6-1.2-1.3-1.3L19,22.9l-0.6-5.2c0-0.4-0.2-0.7-0.4-0.9l-2.4,2.4l0.6,5.2c0,0.3,0.2,0.7,0.4,0.9   c0.2,0.2,0.5,0.4,0.9,0.4l5.2,0.6l0.6,5.2c0.1,0.7,0.6,1.2,1.3,1.3l5.2,0.6l0.6,5.2c0.1,0.7,0.6,1.2,1.3,1.3l5.2,0.6L39.2,38z"/><path class="st8" d="M31.6,39.4l4.9,0.6l1.8-1.8c0,0-0.1,0-0.1,0L33,37.5c-0.1,0-0.2-0.1-0.3-0.1L31,39.1   C31.2,39.3,31.4,39.4,31.6,39.4z"/><path class="st0" d="M31.3,46.6L9.4,24.7c-1-1-2.6-1-3.5,0l-2.1,2.1c-1,1-1,2.6,0,3.5l21.9,21.9c1,1,2.6,1,3.5,0l2.1-2.1   C32.3,49.2,32.3,47.6,31.3,46.6z"/><path class="st1" d="M27.8,46.6l-2.1,2.1c-0.6,0.6-1.4,0.8-2.1,0.7l2.5,2.5c0.8,0.8,2,0.8,2.8,0l2.1-2.1c0.8-0.8,0.8-2,0-2.8   l-2.5-2.5C28.6,45.2,28.3,46,27.8,46.6z"/></g></svg>