<?xml version="1.0" ?><svg id="Christmas_Icon" style="enable-background:new 0 0 56 56;" version="1.1" viewBox="0 0 56 56" xml:space="preserve" xmlns="http://www.w3.org/2000/svg" xmlns:xlink="http://www.w3.org/1999/xlink"><style type="text/css">
	.st0{fill:#F5F5F5;stroke:#3E2723;stroke-linecap:round;stroke-linejoin:round;stroke-miterlimit:10;}
	.st1{fill:#E0E0E0;}
	.st2{fill:#8D6E63;stroke:#3E2723;stroke-linecap:round;stroke-linejoin:round;stroke-miterlimit:10;}
	.st3{fill:#5D4037;}
	.st4{fill:none;stroke:#3E2723;stroke-linecap:round;stroke-linejoin:round;stroke-miterlimit:10;}
	.st5{fill:#FFD54F;stroke:#3E2723;stroke-linecap:round;stroke-linejoin:round;stroke-miterlimit:10;}
	.st6{fill:#E53935;stroke:#3E2723;stroke-linecap:round;stroke-linejoin:round;stroke-miterlimit:10;}
	.st7{fill:#B71C1C;}
	.st8{fill:#FFA000;}
	.st9{fill:#FFECB3;stroke:#3E2723;stroke-linecap:round;stroke-linejoin:round;stroke-miterlimit:10;}
	.st10{fill:#FFE082;}
	.st11{fill:#3E2723;}
	.st12{fill:#81C784;stroke:#3E2723;stroke-linecap:round;stroke-linejoin:round;stroke-miterlimit:10;}
	.st13{fill:#43A047;}
	.st14{fill:#263238;}
	.st15{fill:#4E342E;stroke:#3E2723;stroke-linecap:round;stroke-linejoin:round;stroke-miterlimit:10;}
	.st16{fill:none;}
	.st17{fill:#A1887F;stroke:#3E2723;stroke-linecap:round;stroke-linejoin:round;stroke-miterlimit:10;}
	.st18{fill:#6D4C41;}
	.st19{fill:#6D4C41;stroke:#3E2723;stroke-linecap:round;stroke-linejoin:round;stroke-miterlimit:10;}
	.st20{fill:#E0E0E0;stroke:#3E2723;stroke-miterlimit:10;}
	.st21{fill:#D81B60;stroke:#3E2723;stroke-linecap:round;stroke-linejoin:round;stroke-miterlimit:10;}
	.st22{fill:#E0E0E0;stroke:#3E2723;stroke-linecap:round;stroke-linejoin:round;stroke-miterlimit:10;}
	.st23{fill:#FBC02D;stroke:#3E2723;stroke-linecap:round;stroke-linejoin:round;stroke-miterlimit:10;}
</style><g id="Sock"><path class="st6" d="M28.6,12v17.5c0,1.4-1.1,2.5-2.5,2.5h-9.5c-5.5,0-10,4.5-10,10v0c0,5.5,4.5,10,10,10h22c5.5,0,10-4.5,10-10V32   V12H28.6z"/><path class="st12" d="M48.6,37L48.6,37c-8.3,0-15,6.7-15,15v0h5c5.5,0,10-4.5,10-10V37z"/><g><g><path class="st13" d="M48.1,42v-4.5c-1.6,0.1-3.1,0.4-4.5,0.9V47c0,1.7-0.8,3.1-2.1,4C45.3,49.8,48.1,46.2,48.1,42z"/><path class="st7" d="M44.6,37c0.1,0,0.1,0,0.2,0c1.1-0.3,2.2-0.4,3.3-0.5l0,0v-24h-4.5V32v5.3h0C43.9,37.2,44.2,37.1,44.6,37z"/></g></g><path class="st0" d="M48.1,4h-19c-1.4,0-2.5,1.1-2.5,2.5v3c0,1.4,1.1,2.5,2.5,2.5h19c1.4,0,2.5-1.1,2.5-2.5v-3   C50.6,5.1,49.5,4,48.1,4z"/><path class="st1" d="M45.6,6.5v3c0,0.8-0.4,1.5-1,2h3.5c1.1,0,2-0.9,2-2v-3c0-1.1-0.9-2-2-2h-3.5C45.2,5,45.6,5.7,45.6,6.5z"/><polyline class="st16" points="28.6,21 31.9,23 35.2,21 38.6,23 41.9,21 45.2,23 48.6,21  "/><polygon class="st12" points="48.6,21 45.2,23 41.9,21 38.6,23 35.2,21 31.9,23 28.6,21 28.6,17 31.9,19 35.2,17 38.6,19 41.9,17    45.2,19 48.6,17  "/><path class="st13" d="M45.2,22.4l2.8-1.7v-2.8l-2.6,1.5c-0.2,0.1-0.4,0.1-0.5,0l-1.4-0.8v2.8L45.2,22.4z"/></g></svg>