<?xml version="1.0" ?><svg id="Christmas_Icon" style="enable-background:new 0 0 56 56;" version="1.1" viewBox="0 0 56 56" xml:space="preserve" xmlns="http://www.w3.org/2000/svg" xmlns:xlink="http://www.w3.org/1999/xlink"><style type="text/css">
	.st0{fill:#F5F5F5;stroke:#3E2723;stroke-linecap:round;stroke-linejoin:round;stroke-miterlimit:10;}
	.st1{fill:#E0E0E0;}
	.st2{fill:#8D6E63;stroke:#3E2723;stroke-linecap:round;stroke-linejoin:round;stroke-miterlimit:10;}
	.st3{fill:#5D4037;}
	.st4{fill:none;stroke:#3E2723;stroke-linecap:round;stroke-linejoin:round;stroke-miterlimit:10;}
	.st5{fill:#FFD54F;stroke:#3E2723;stroke-linecap:round;stroke-linejoin:round;stroke-miterlimit:10;}
	.st6{fill:#E53935;stroke:#3E2723;stroke-linecap:round;stroke-linejoin:round;stroke-miterlimit:10;}
	.st7{fill:#B71C1C;}
	.st8{fill:#FFA000;}
	.st9{fill:#FFECB3;stroke:#3E2723;stroke-linecap:round;stroke-linejoin:round;stroke-miterlimit:10;}
	.st10{fill:#FFE082;}
	.st11{fill:#3E2723;}
	.st12{fill:#81C784;stroke:#3E2723;stroke-linecap:round;stroke-linejoin:round;stroke-miterlimit:10;}
	.st13{fill:#43A047;}
	.st14{fill:#263238;}
	.st15{fill:#4E342E;stroke:#3E2723;stroke-linecap:round;stroke-linejoin:round;stroke-miterlimit:10;}
	.st16{fill:none;}
	.st17{fill:#A1887F;stroke:#3E2723;stroke-linecap:round;stroke-linejoin:round;stroke-miterlimit:10;}
	.st18{fill:#6D4C41;}
	.st19{fill:#6D4C41;stroke:#3E2723;stroke-linecap:round;stroke-linejoin:round;stroke-miterlimit:10;}
	.st20{fill:#E0E0E0;stroke:#3E2723;stroke-miterlimit:10;}
	.st21{fill:#D81B60;stroke:#3E2723;stroke-linecap:round;stroke-linejoin:round;stroke-miterlimit:10;}
	.st22{fill:#E0E0E0;stroke:#3E2723;stroke-linecap:round;stroke-linejoin:round;stroke-miterlimit:10;}
	.st23{fill:#FBC02D;stroke:#3E2723;stroke-linecap:round;stroke-linejoin:round;stroke-miterlimit:10;}
</style><g id="Santa_Sleigh"><g><path class="st0" d="M18.6,49c-0.8,0-1.5-0.7-1.5-1.5v-8c0-0.8,0.7-1.5,1.5-1.5s1.5,0.7,1.5,1.5v8C20.1,48.3,19.4,49,18.6,49z"/></g><g><path class="st0" d="M42.6,49c-0.8,0-1.5-0.7-1.5-1.5v-8c0-0.8,0.7-1.5,1.5-1.5s1.5,0.7,1.5,1.5v8C44.1,48.3,43.4,49,42.6,49z"/></g><g><path class="st0" d="M54.6,50.5H9.1c-2.1,0-4-1-5.3-2.7l-2.5-3.4c-0.5-0.7-0.3-1.6,0.3-2.1c0.7-0.5,1.6-0.3,2.1,0.3l2.5,3.4    C6.9,47,8,47.5,9.1,47.5h45.5c0.8,0,1.5,0.7,1.5,1.5S55.4,50.5,54.6,50.5z"/></g><path class="st6" d="M39.6,40h-18c-8.3,0-15-6.7-15-15v-7.5c0-1.4,1.1-2.5,2.5-2.5h1.6c0.6,0,1.2,0.2,1.6,0.6l3.9,3.3   c0.9,0.7,2,1.2,3.2,1.2h11.2c1.8,0,3.5-1,4.4-2.6l3.5-6.4C39.8,8.5,42.3,7,45.1,7h4.5c2.8,0,5,2.2,5,5v13   C54.6,33.3,47.9,40,39.6,40z"/><path class="st7" d="M39.6,39.5c8,0,14.5-6.5,14.5-14.5V12c0-2.5-2-4.5-4.5-4.5h-2.9c1.7,0.8,2.9,2.5,2.9,4.5v13   c0,7-4.8,12.8-11.2,14.5H39.6z"/><g><path class="st5" d="M30.6,21.5H19.4c-1.5,0-3-0.5-4.2-1.5l-3.9-3.3c-0.2-0.1-0.4-0.2-0.6-0.2H5.1c-0.6,0-1,0.4-1,1    c0,0.8-0.7,1.5-1.5,1.5s-1.5-0.7-1.5-1.5c0-2.2,1.8-4,4-4h5.6c0.9,0,1.8,0.3,2.6,0.9l3.9,3.3c0.6,0.5,1.4,0.8,2.2,0.8h11.2    c1.3,0,2.5-0.7,3.1-1.8l3.5-6.4c1.6-2.9,4.6-4.7,7.9-4.7h4.5c3.6,0,6.5,2.9,6.5,6.5c0,0.8-0.7,1.5-1.5,1.5s-1.5-0.7-1.5-1.5    c0-1.9-1.6-3.5-3.5-3.5h-4.5c-2.2,0-4.2,1.2-5.3,3.2l-3.5,6.4C35.2,20.2,33,21.5,30.6,21.5z"/></g><line class="st5" x1="10.4" x2="50.8" y1="35" y2="35"/></g></svg>