<?xml version="1.0" ?><svg id="Christmas_Icon" style="enable-background:new 0 0 56 56;" version="1.1" viewBox="0 0 56 56" xml:space="preserve" xmlns="http://www.w3.org/2000/svg" xmlns:xlink="http://www.w3.org/1999/xlink"><style type="text/css">
	.st0{fill:#F5F5F5;stroke:#3E2723;stroke-linecap:round;stroke-linejoin:round;stroke-miterlimit:10;}
	.st1{fill:#E0E0E0;}
	.st2{fill:#8D6E63;stroke:#3E2723;stroke-linecap:round;stroke-linejoin:round;stroke-miterlimit:10;}
	.st3{fill:#5D4037;}
	.st4{fill:none;stroke:#3E2723;stroke-linecap:round;stroke-linejoin:round;stroke-miterlimit:10;}
	.st5{fill:#FFD54F;stroke:#3E2723;stroke-linecap:round;stroke-linejoin:round;stroke-miterlimit:10;}
	.st6{fill:#E53935;stroke:#3E2723;stroke-linecap:round;stroke-linejoin:round;stroke-miterlimit:10;}
	.st7{fill:#B71C1C;}
	.st8{fill:#FFA000;}
	.st9{fill:#FFECB3;stroke:#3E2723;stroke-linecap:round;stroke-linejoin:round;stroke-miterlimit:10;}
	.st10{fill:#FFE082;}
	.st11{fill:#3E2723;}
	.st12{fill:#81C784;stroke:#3E2723;stroke-linecap:round;stroke-linejoin:round;stroke-miterlimit:10;}
	.st13{fill:#43A047;}
	.st14{fill:#263238;}
	.st15{fill:#4E342E;stroke:#3E2723;stroke-linecap:round;stroke-linejoin:round;stroke-miterlimit:10;}
	.st16{fill:none;}
	.st17{fill:#A1887F;stroke:#3E2723;stroke-linecap:round;stroke-linejoin:round;stroke-miterlimit:10;}
	.st18{fill:#6D4C41;}
	.st19{fill:#6D4C41;stroke:#3E2723;stroke-linecap:round;stroke-linejoin:round;stroke-miterlimit:10;}
	.st20{fill:#E0E0E0;stroke:#3E2723;stroke-miterlimit:10;}
	.st21{fill:#D81B60;stroke:#3E2723;stroke-linecap:round;stroke-linejoin:round;stroke-miterlimit:10;}
	.st22{fill:#E0E0E0;stroke:#3E2723;stroke-linecap:round;stroke-linejoin:round;stroke-miterlimit:10;}
	.st23{fill:#FBC02D;stroke:#3E2723;stroke-linecap:round;stroke-linejoin:round;stroke-miterlimit:10;}
</style><g id="Ball"><circle class="st5" cx="28" cy="34" r="20"/><path class="st8" d="M27.5,53.5c0.2,0,0.4,0,0.5,0c10.8,0,19.5-8.7,19.5-19.5S38.8,14.5,28,14.5c-0.2,0-0.4,0-0.5,0   c8.9,2,15.5,10,15.5,19.5C43,43.5,36.4,51.4,27.5,53.5z"/><path class="st0" d="M33.5,18h-11c-1.4,0-2.5-1.1-2.5-2.5v-3c0-1.4,1.1-2.5,2.5-2.5h11c1.4,0,2.5,1.1,2.5,2.5v3   C36,16.9,34.9,18,33.5,18z"/><path class="st1" d="M31,12.5v3c0,0.8-0.4,1.5-1,2h3.5c1.1,0,2-0.9,2-2v-3c0-1.1-0.9-2-2-2H30C30.6,11,31,11.7,31,12.5z"/><path class="st0" d="M47.4,29.1c-3,0.3-4.7,2.2-5.9,3.7c-1.2,1.5-2,2.3-3.5,2.3s-2.2-0.8-3.5-2.3C33.2,31.1,31.4,29,28,29   c-3.4,0-5.2,2.2-6.5,3.7c-1.2,1.5-2,2.3-3.5,2.3c-1.5,0-2.2-0.8-3.5-2.3c-1.2-1.5-2.9-3.4-5.9-3.7c-0.3,1.3-0.5,2.6-0.6,4   c1.5,0,2.2,0.8,3.4,2.3c1.3,1.6,3.1,3.7,6.5,3.7c3.4,0,5.2-2.1,6.5-3.7c1.2-1.5,2-2.3,3.5-2.3c1.5,0,2.2,0.8,3.5,2.3   c1.3,1.6,3.1,3.7,6.5,3.7s5.2-2.1,6.5-3.7c1.2-1.5,2-2.3,3.4-2.3C47.9,31.6,47.7,30.3,47.4,29.1z"/><path class="st1" d="M42.8,36.4c0.5-0.5,0.9-1,1.3-1.5c1.1-1.3,1.9-2.2,3.3-2.4c0-0.5-0.1-1-0.1-1.5c0,0,0,0,0-0.1   c-0.1-0.5-0.2-0.9-0.3-1.4c-1.8,0.3-3.1,1.3-4.1,2.3c0.1,0.7,0.1,1.4,0.1,2.1C43,34.8,42.9,35.6,42.8,36.4z"/><circle class="st4" cx="27.8" cy="6" r="4"/></g></svg>