<?xml version="1.0" ?><svg id="Christmas_Icon" style="enable-background:new 0 0 56 56;" version="1.1" viewBox="0 0 56 56" xml:space="preserve" xmlns="http://www.w3.org/2000/svg" xmlns:xlink="http://www.w3.org/1999/xlink"><style type="text/css">
	.st0{fill:#F5F5F5;stroke:#3E2723;stroke-linecap:round;stroke-linejoin:round;stroke-miterlimit:10;}
	.st1{fill:#E0E0E0;}
	.st2{fill:#8D6E63;stroke:#3E2723;stroke-linecap:round;stroke-linejoin:round;stroke-miterlimit:10;}
	.st3{fill:#5D4037;}
	.st4{fill:none;stroke:#3E2723;stroke-linecap:round;stroke-linejoin:round;stroke-miterlimit:10;}
	.st5{fill:#FFD54F;stroke:#3E2723;stroke-linecap:round;stroke-linejoin:round;stroke-miterlimit:10;}
	.st6{fill:#E53935;stroke:#3E2723;stroke-linecap:round;stroke-linejoin:round;stroke-miterlimit:10;}
	.st7{fill:#B71C1C;}
	.st8{fill:#FFA000;}
	.st9{fill:#FFECB3;stroke:#3E2723;stroke-linecap:round;stroke-linejoin:round;stroke-miterlimit:10;}
	.st10{fill:#FFE082;}
	.st11{fill:#3E2723;}
	.st12{fill:#81C784;stroke:#3E2723;stroke-linecap:round;stroke-linejoin:round;stroke-miterlimit:10;}
	.st13{fill:#43A047;}
	.st14{fill:#263238;}
	.st15{fill:#4E342E;stroke:#3E2723;stroke-linecap:round;stroke-linejoin:round;stroke-miterlimit:10;}
	.st16{fill:none;}
	.st17{fill:#A1887F;stroke:#3E2723;stroke-linecap:round;stroke-linejoin:round;stroke-miterlimit:10;}
	.st18{fill:#6D4C41;}
	.st19{fill:#6D4C41;stroke:#3E2723;stroke-linecap:round;stroke-linejoin:round;stroke-miterlimit:10;}
	.st20{fill:#E0E0E0;stroke:#3E2723;stroke-miterlimit:10;}
	.st21{fill:#D81B60;stroke:#3E2723;stroke-linecap:round;stroke-linejoin:round;stroke-miterlimit:10;}
	.st22{fill:#E0E0E0;stroke:#3E2723;stroke-linecap:round;stroke-linejoin:round;stroke-miterlimit:10;}
	.st23{fill:#FBC02D;stroke:#3E2723;stroke-linecap:round;stroke-linejoin:round;stroke-miterlimit:10;}
</style><g id="Snowflake"><path class="st0" d="M52,26H32.8l13.6-13.6c0.8-0.8,0.8-2,0-2.8s-2-0.8-2.8,0L30,23.2V4c0-1.1-0.9-2-2-2s-2,0.9-2,2v19.2L12.4,9.6   c-0.8-0.8-2-0.8-2.8,0c-0.8,0.8-0.8,2,0,2.8L23.2,26H4c-1.1,0-2,0.9-2,2s0.9,2,2,2h19.2L9.6,43.6c-0.8,0.8-0.8,2,0,2.8   C10,46.8,10.5,47,11,47s1-0.2,1.4-0.6L26,32.8V52c0,1.1,0.9,2,2,2s2-0.9,2-2V32.8l13.6,13.6c0.4,0.4,0.9,0.6,1.4,0.6s1-0.2,1.4-0.6   c0.8-0.8,0.8-2,0-2.8L32.8,30H52c1.1,0,2-0.9,2-2S53.1,26,52,26z"/><g><path class="st0" d="M28,14.6c-0.5,0-1-0.2-1.4-0.6l-4.5-4.5c-0.8-0.8-0.8-2,0-2.8c0.8-0.8,2-0.8,2.8,0L28,9.8l3.1-3.1    c0.8-0.8,2-0.8,2.8,0s0.8,2,0,2.8L29.4,14C29,14.4,28.5,14.6,28,14.6z"/></g><g><path class="st0" d="M32.5,49.9c-0.5,0-1-0.2-1.4-0.6L28,46.2l-3.1,3.1c-0.8,0.8-2,0.8-2.8,0c-0.8-0.8-0.8-2,0-2.8l4.5-4.5    c0.8-0.8,2-0.8,2.8,0l4.5,4.5c0.8,0.8,0.8,2,0,2.8C33.5,49.7,33,49.9,32.5,49.9z"/></g><g><path class="st0" d="M47.9,34.5c-0.5,0-1-0.2-1.4-0.6L42,29.4c-0.8-0.8-0.8-2,0-2.8l4.5-4.5c0.8-0.8,2-0.8,2.8,0s0.8,2,0,2.8    L46.2,28l3.1,3.1c0.8,0.8,0.8,2,0,2.8C48.9,34.3,48.4,34.5,47.9,34.5z"/></g><g><path class="st0" d="M8.1,34.5c-0.5,0-1-0.2-1.4-0.6c-0.8-0.8-0.8-2,0-2.8L9.8,28l-3.1-3.1c-0.8-0.8-0.8-2,0-2.8    c0.8-0.8,2-0.8,2.8,0l4.5,4.5c0.8,0.8,0.8,2,0,2.8l-4.5,4.5C9.1,34.3,8.6,34.5,8.1,34.5z"/></g><path class="st0" d="M45.3,19.1h-6.4c-1.1,0-2-0.9-2-2v-6.4c0-1.1,0.9-2,2-2s2,0.9,2,2v4.4h4.4c1.1,0,2,0.9,2,2   S46.4,19.1,45.3,19.1z"/><path class="st0" d="M17.1,47.3c-1.1,0-2-0.9-2-2v-4.4h-4.4c-1.1,0-2-0.9-2-2s0.9-2,2-2h6.4c1.1,0,2,0.9,2,2v6.4   C19.1,46.4,18.2,47.3,17.1,47.3z"/><g><path class="st0" d="M38.9,47.3c-1.1,0-2-0.9-2-2v-6.4c0-1.1,0.9-2,2-2h6.4c1.1,0,2,0.9,2,2s-0.9,2-2,2h-4.4v4.4    C40.9,46.4,40,47.3,38.9,47.3z"/></g><g><path class="st0" d="M17.1,19.1h-6.4c-1.1,0-2-0.9-2-2s0.9-2,2-2h4.4v-4.4c0-1.1,0.9-2,2-2s2,0.9,2,2v6.4    C19.1,18.2,18.2,19.1,17.1,19.1z"/></g></g></svg>