<?xml version="1.0" ?><!DOCTYPE svg  PUBLIC '-//W3C//DTD SVG 1.1//EN'  'http://www.w3.org/Graphics/SVG/1.1/DTD/svg11.dtd'><svg height="512px" style="enable-background:new 0 0 512 512;" version="1.1" viewBox="0 0 512 512" width="512px" xml:space="preserve" xmlns="http://www.w3.org/2000/svg" xmlns:xlink="http://www.w3.org/1999/xlink"><g id="gear___x2C__setting__x2C__rench___x2C__hardware__x2C_"><g><linearGradient gradientUnits="userSpaceOnUse" id="SVGID_1_" x1="31.6333" x2="230.2646" y1="162.8003" y2="162.8003"><stop offset="0" style="stop-color:#8A9AA9"/><stop offset="0.2449" style="stop-color:#C3D2DB"/><stop offset="0.5" style="stop-color:#8A9AA9"/><stop offset="0.75" style="stop-color:#C3D2DB"/><stop offset="1" style="stop-color:#8A9AA9"/></linearGradient><path d="M151.113,89.593c3.285,0.882,6.411,2.007,9.457,3.289l11.233-16.6    c1.353-2.002,4.08-2.405,5.921-1.119l17.404,11.865c2.003,1.282,2.49,3.927,1.205,5.934l-11.314,16.518    c1.211,1.28,2.334,2.405,3.377,3.688c1.123,1.282,2.165,2.564,3.126,3.851l18.041-8.662c2.165-1.042,4.729-0.159,5.771,1.925    l9.224,19.002c0.967,2.165,0.081,4.649-2.085,5.694l-18.046,8.739c0.88,3.207,1.448,6.415,1.928,9.781l19.888,1.441    c2.402,0.163,4.168,2.246,4.013,4.655l-1.529,20.927c-0.163,2.406-2.321,4.168-4.648,4.009l-19.962-1.441    c-0.88,3.204-1.936,6.253-3.289,9.379l16.592,11.221c2.003,1.364,2.49,4.014,1.205,6.02l-11.869,17.32    c-1.448,1.919-4.013,2.484-6.017,1.12l-16.592-11.226c-1.13,1.2-2.327,2.328-3.525,3.288c-1.286,1.121-2.646,2.246-3.932,3.208    l8.736,18.04c0.967,2.084,0.087,4.729-2.084,5.773l-18.92,9.141c-2.084,1.042-4.649,0.082-5.699-2.006l-8.732-18.04    c-3.207,0.805-6.414,1.441-9.784,1.926l-1.441,19.965c-0.237,2.324-2.172,4.086-4.568,3.928l-21.011-1.522    c-2.409-0.159-4.175-2.246-4.013-4.648l1.448-19.888c-3.132-0.964-6.252-2.084-9.297-3.367l-11.226,16.599    c-1.374,1.92-4.094,2.483-6.016,1.119l-17.404-11.865c-2.003-1.282-2.403-4.009-1.198-5.935l11.382-16.518    c-1.198-1.201-2.322-2.405-3.37-3.687c-1.117-1.283-2.159-2.569-3.12-3.851l-18.047,8.661c-2.166,1.043-4.737,0.159-5.773-2.002    l-9.223-18.923c-1.042-2.169-0.075-4.656,2.083-5.691l18.041-8.743c-0.879-3.207-1.441-6.496-1.841-9.781l-19.962-1.449    c-2.409-0.156-4.175-2.239-4.006-4.566l1.516-21.009c0.244-2.405,2.246-4.17,4.656-4.009l19.969,1.445    c0.792-3.207,1.915-6.336,3.289-9.381l-16.606-11.226c-2.002-1.364-2.483-4.01-1.204-5.932l11.868-17.482    c1.368-1.926,4.007-2.407,6.01-1.12l16.524,11.3c1.124-1.201,2.409-2.324,3.606-3.286c1.28-1.205,2.646-2.246,3.925-3.207    l-8.743-18.04c-0.96-2.166-0.155-4.73,2.003-5.694l19.014-9.22c2.085-1.042,4.649-0.162,5.685,2.002l8.742,18.044    c3.126-0.801,6.415-1.448,9.697-1.926l1.455-19.883c0.156-2.406,2.24-4.168,4.649-4.014l21.004,1.607    c2.409,0.155,4.094,2.162,3.931,4.567L151.113,89.593z" style="fill:url(#SVGID_1_);"/><radialGradient cx="236.8975" cy="243.7598" gradientTransform="matrix(6.8138 0 0 6.8138 -1488.3801 -1283.6067)" gradientUnits="userSpaceOnUse" id="SVGID_2_" r="16.0614"><stop offset="0" style="stop-color:#000000"/><stop offset="1" style="stop-color:#3D4148"/></radialGradient><path d="M16,308.818l6.733-5.618l29.355,29.268l29.267-28.143l-30.39-29.349l6.732-6.732    l55.164,15.795l0.088,52.922v-1.123c38.889,38.969,78.329,77.297,117.307,116.187l0,0c16.03,18.676-7.464,44.344-25.741,30.39    c-11.869-9.06-26.229-25.18-37.447-36.007c-26.536-27.737-53.881-53.876-81.144-81.222H31.8L16,308.818z" style="fill:url(#SVGID_2_);"/><linearGradient gradientUnits="userSpaceOnUse" id="SVGID_3_" x1="212.5156" x2="495.999" y1="307.7734" y2="307.7734"><stop offset="0" style="stop-color:#8A9AA9"/><stop offset="0.2449" style="stop-color:#C3D2DB"/><stop offset="0.5" style="stop-color:#8A9AA9"/><stop offset="0.75" style="stop-color:#C3D2DB"/><stop offset="1" style="stop-color:#8A9AA9"/></linearGradient><path d="M383.08,203.293c4.649,1.205,9.143,2.808,13.392,4.73l16.12-23.654    c1.921-2.804,5.688-3.605,8.498-1.681l24.854,16.917c2.728,1.925,3.525,5.693,1.604,8.5l-16.112,23.652    c1.685,1.685,3.281,3.452,4.805,5.133c1.521,1.845,3.052,3.688,4.493,5.531l25.734-12.346c3.052-1.525,6.732-0.244,8.174,2.805    l13.079,27.022c1.443,3.047,0.239,6.733-2.881,8.261l-25.748,12.346c1.203,4.569,2.084,9.225,2.728,13.955l28.468,2.085    c3.369,0.235,5.934,3.201,5.697,6.57l-2.247,29.908c-0.251,3.452-3.214,5.937-6.576,5.691l-28.461-2.077    c-1.286,4.567-2.891,9.062-4.73,13.385l23.643,16.037c2.889,1.93,3.532,5.779,1.604,8.581l-16.835,24.78    c-1.834,2.809-5.691,3.525-8.501,1.604l-23.649-16.037c-1.61,1.685-3.369,3.208-5.136,4.729c-1.848,1.523-3.769,3.044-5.616,4.487    l12.432,25.74c1.529,3.047,0.156,6.74-2.803,8.263l-27.021,12.985c-3.132,1.522-6.745,0.244-8.187-2.808l-12.505-25.734    c-4.493,1.196-9.136,2.085-13.954,2.726l-2.077,28.38c-0.243,3.452-3.214,5.937-6.495,5.698l-29.991-2.164    c-3.29-0.244-5.854-3.21-5.609-6.578l2.083-28.468c-4.648-1.279-9.062-2.885-13.392-4.724l-16.036,23.649    c-1.923,2.728-5.773,3.445-8.579,1.604l-24.779-16.842c-2.891-1.922-3.53-5.767-1.603-8.574l16.033-23.658    c-1.598-1.684-3.207-3.361-4.811-5.128c-1.522-1.768-2.965-3.688-4.486-5.535l-25.737,12.43c-2.971,1.441-6.666,0.162-8.182-2.89    l-12.993-27.018c-1.441-3.047-0.237-6.654,2.802-8.183l25.747-12.424c-1.204-4.568-2.084-9.223-2.646-13.952l-28.461-2.085    c-3.458-0.237-5.941-3.208-5.698-6.571l2.165-29.916c0.245-3.447,3.208-5.931,6.57-5.69l28.462,2.084    c1.286-4.571,2.814-8.979,4.729-13.392l-23.643-16.036c-2.815-1.845-3.532-5.695-1.61-8.5l16.836-24.858    c1.928-2.802,5.778-3.529,8.505-1.519l23.653,15.952c1.686-1.682,3.451-3.286,5.219-4.731c1.84-1.603,3.6-3.048,5.602-4.489    l-12.504-25.741c-1.441-3.045-0.237-6.734,2.889-8.174l27.021-13.071c3.045-1.526,6.657-0.24,8.176,2.882l12.43,25.741    c4.499-1.283,9.141-2.165,13.959-2.723l2.077-28.469c0.244-3.37,3.215-5.853,6.497-5.612l30.07,2.165    c3.283,0.24,5.847,3.207,5.617,6.497L383.08,203.293z" style="fill:url(#SVGID_3_);"/><path d="M160.489,137.306c-6.496-7.46-15.953-12.592-26.699-13.39c-10.739-0.806-20.842,2.882-28.306,9.296    c-7.532,6.497-12.668,15.959-13.473,26.707c-0.792,10.737,2.89,20.845,9.386,28.38c6.489,7.459,15.956,12.591,26.62,13.39    c10.827,0.805,20.849-2.886,28.296-9.298c7.702-6.577,12.756-16.037,13.554-26.706    C170.592,154.863,166.985,144.842,160.489,137.306L160.489,137.306z" style="fill:#FFFFFF;"/><path d="M396.391,271.449c-9.298-10.824-22.69-18.041-38.084-19.16    c-15.313-1.128-29.667,4.005-40.417,13.228c-10.821,9.384-17.961,22.77-19.164,38.171c-1.125,15.314,4.101,29.748,13.31,40.332    c9.296,10.82,22.695,18.04,38.09,19.163c15.395,1.122,29.748-4.012,40.493-13.311c10.746-9.224,17.959-22.695,19.089-38.01    C410.824,296.469,405.694,282.109,396.391,271.449L396.391,271.449z" style="fill:#FFFFFF;"/><radialGradient cx="250.1548" cy="256.7881" gradientTransform="matrix(6.8138 0 0 6.8138 -1488.3801 -1283.6067)" gradientUnits="userSpaceOnUse" id="SVGID_4_" r="1.2805"><stop offset="0.1582" style="stop-color:#EBF1F6"/><stop offset="0.7797" style="stop-color:#EBF1F6"/><stop offset="0.8668" style="stop-color:#C0C7CD"/><stop offset="0.954" style="stop-color:#9AA3AA"/><stop offset="1" style="stop-color:#8C959D"/></radialGradient><path d="M209.88,472.311L209.88,472.311c3.451,3.369,9.067,3.369,12.43,0    c3.371-3.37,3.371-9.061,0-12.43c-3.363-3.363-8.979-3.363-12.43,0C206.59,463.25,206.59,468.94,209.88,472.311L209.88,472.311z" style="fill:url(#SVGID_4_);"/></g></g><g id="Layer_1"/></svg>