<?xml version="1.0" ?><!DOCTYPE svg  PUBLIC '-//W3C//DTD SVG 1.1//EN'  'http://www.w3.org/Graphics/SVG/1.1/DTD/svg11.dtd'><svg height="512px" style="enable-background:new 0 0 512 512;" version="1.1" viewBox="0 0 512 512" width="512px" xml:space="preserve" xmlns="http://www.w3.org/2000/svg" xmlns:xlink="http://www.w3.org/1999/xlink"><g id="car__x2C__police__x2C__black__x2C__scurity__x2C__bell__x2C__cab__x2C_"><g><path d="M54.917,319.409c0-6.863,1.306-13.577,3.721-19.779    c-1.827-0.331-3.589-0.712-5.351-1.241c-19.258-5.423-32.043-19.646-28.585-31.918c3.39-12.201,21.796-17.684,40.98-12.333    c3.209,0.918,6.202,2.026,8.946,3.399l24.212-59.985l0.198-0.784c13.114-38.832,31.654-74.794,78.646-74.794h58.413v-28.32    c0-7.112,5.87-12.991,13.057-12.991h13.957c7.173,0,13.062,5.879,13.062,12.991v28.32h58.413    c46.985,0,65.522,35.962,78.571,74.794l0.265,0.784l24.146,59.985c2.812-1.373,5.804-2.481,9.013-3.399    c19.186-5.351,37.524,0.132,40.983,12.333c3.454,12.272-9.329,26.495-28.595,31.918c-1.819,0.529-3.524,0.91-5.344,1.241    c2.415,6.202,3.656,12.916,3.656,19.779l0,0l0,0v28.71c0,4.431-0.53,8.814-1.505,12.981c0.975,2.548,1.505,5.293,1.505,8.17    v43.793l-2.02,42.155l-54.89,0.132v-44.188h-20.242h-27.4H159.998l0,0h-45.495l-1.108,44.188h-8.286v0.067l-48.621-0.199    l-1.703-41.376l0.133-44.572c0-2.877,0.595-5.622,1.57-8.17c-1.042-4.167-1.57-8.551-1.57-12.981V319.409L54.917,319.409    L54.917,319.409z M400.109,455.351C448.731,446.538,420.006,449.944,400.109,455.351L400.109,455.351z M231.923,59.188    l0.065-0.059c1.754-0.983,3.979-0.397,5.02,1.365l7.441,12.858c0.984,1.761,0.389,3.984-1.363,5.027l-0.074,0.066    c-1.762,0.975-3.979,0.389-5.02-1.373l-7.442-12.858C229.574,62.452,230.152,60.172,231.923,59.188L231.923,59.188z M214.69,76.42    l0.064-0.066c0.977-1.761,3.259-2.348,5.028-1.364l12.851,7.434c1.77,1.051,2.349,3.267,1.372,5.028l-0.065,0.066    c-0.976,1.761-3.258,2.347-5.028,1.373l-12.85-7.441C214.293,80.406,213.714,78.182,214.69,76.42L214.69,76.42z M208.423,99.921    v-0.067c0-2.024,1.637-3.653,3.721-3.653h14.817c2.018,0,3.722,1.629,3.722,3.653v0.067c0,2.017-1.704,3.655-3.722,3.655h-14.817    C210.06,103.576,208.423,101.938,208.423,99.921L208.423,99.921z M302.47,99.854v0.067c0,2.017-1.639,3.655-3.654,3.655h-14.885    c-2.016,0-3.656-1.639-3.656-3.655v-0.067c0-2.024,1.641-3.653,3.656-3.653h14.885C300.831,96.2,302.47,97.829,302.47,99.854    L302.47,99.854z M296.201,76.354L296.201,76.354c1.042,1.828,0.398,4.053-1.373,5.027l-12.851,7.443    c-1.767,1.04-3.983,0.454-5.026-1.307v-0.066c-1.042-1.762-0.462-3.978,1.307-5.028l12.916-7.434    C292.943,74.006,295.161,74.593,296.201,76.354L296.201,76.354z M278.969,59.129v0.059c1.771,0.984,2.349,3.265,1.375,4.961    l-7.441,12.925c-1.043,1.762-3.261,2.348-5.029,1.373l-0.066-0.066c-1.755-1.043-2.349-3.267-1.307-5.027l7.441-12.858    C274.934,58.731,277.149,58.146,278.969,59.129L278.969,59.129z M255.415,52.86h0.065c2.027,0,3.656,1.631,3.656,3.723v14.809    c0,2.028-1.629,3.656-3.656,3.656h-0.065c-2.026,0-3.655-1.628-3.655-3.656V56.583C251.76,54.491,253.389,52.86,255.415,52.86    L255.415,52.86z M329.491,357.777H183.168v-27.47h146.323V357.777z M177.686,151.147c-39.88,0-60.57,74.081-78.059,109.581    c8.873-3.324,18.663-5.087,28.982-5.087h255.045c10.254,0,20.045,1.763,28.926,5.087c-17.497-35.5-38.122-109.581-77.993-109.581    H177.686z M341.036,343.686L341.036,343.686v-0.132 M423.147,342.513v0.314v0.462v0.265v0.132 M423.147,342.049 M171.229,343.686    v-0.132 M155.037,369.471" style="fill-rule:evenodd;clip-rule:evenodd;"/><linearGradient gradientUnits="userSpaceOnUse" id="SVGID_1_" x1="183.0693" x2="329.3906" y1="344.043" y2="344.043"><stop offset="0.0056" style="stop-color:#A9D1EF"/><stop offset="0.5393" style="stop-color:#1998D5"/><stop offset="1" style="stop-color:#0073BB"/></linearGradient><rect height="27.47" style="fill-rule:evenodd;clip-rule:evenodd;fill:url(#SVGID_1_);" width="146.321" x="183.069" y="330.308"/><g><linearGradient gradientUnits="userSpaceOnUse" id="SVGID_2_" x1="344.541" x2="424.0234" y1="343.5967" y2="343.5967"><stop offset="0" style="stop-color:#8A9AA9"/><stop offset="0.2449" style="stop-color:#C3D2DB"/><stop offset="0.5" style="stop-color:#8A9AA9"/><stop offset="0.75" style="stop-color:#C3D2DB"/><stop offset="1" style="stop-color:#8A9AA9"/></linearGradient><path d="M344.541,344.398     c0.332,14.271,7.146,25.734,15.747,25.734h48.058c8.535,0,15.414-11.464,15.678-25.734v-0.116v-0.265v-0.464v-0.314v-0.328     v-0.133c-0.264-14.258-7.143-25.718-15.678-25.718h-48.058c-8.601,0-15.415,11.46-15.747,25.718v0.133v0.328v0.314v0.464v0.265     V344.398z" style="fill-rule:evenodd;clip-rule:evenodd;fill:url(#SVGID_2_);"/><linearGradient gradientUnits="userSpaceOnUse" id="SVGID_3_" x1="350.1318" x2="418.4346" y1="343.5869" y2="343.5869"><stop offset="0" style="stop-color:#610000"/><stop offset="0.0242" style="stop-color:#790501"/><stop offset="0.0583" style="stop-color:#940A02"/><stop offset="0.0975" style="stop-color:#AA0E03"/><stop offset="0.1433" style="stop-color:#BB1103"/><stop offset="0.1999" style="stop-color:#C61304"/><stop offset="0.2794" style="stop-color:#CD1504"/><stop offset="0.5" style="stop-color:#CF1504"/><stop offset="0.7297" style="stop-color:#CD1504"/><stop offset="0.8124" style="stop-color:#C61304"/><stop offset="0.8714" style="stop-color:#BB1003"/><stop offset="0.9191" style="stop-color:#AA0C02"/><stop offset="0.9595" style="stop-color:#940701"/><stop offset="0.9951" style="stop-color:#790100"/><stop offset="1" style="stop-color:#750000"/></linearGradient><path d="M350.132,344.267     c0.265,11.905,6.135,21.447,13.513,21.447h41.327c7.328,0,13.247-9.542,13.463-21.447v-0.1v-0.216v-0.38v-0.282v-0.264v-0.114     c-0.216-11.893-6.135-21.451-13.463-21.451h-41.327c-7.378,0-13.248,9.559-13.513,21.451v0.114v0.264v0.282v0.38v0.216V344.267z" style="fill-rule:evenodd;clip-rule:evenodd;fill:url(#SVGID_3_);"/></g><g><linearGradient gradientUnits="userSpaceOnUse" id="SVGID_4_" x1="87.3467" x2="166.8203" y1="343.7285" y2="343.7285"><stop offset="0" style="stop-color:#8A9AA9"/><stop offset="0.2449" style="stop-color:#C3D2DB"/><stop offset="0.5" style="stop-color:#8A9AA9"/><stop offset="0.75" style="stop-color:#C3D2DB"/><stop offset="1" style="stop-color:#8A9AA9"/></linearGradient><path d="M87.347,344.53     c0.323,14.273,7.146,25.734,15.736,25.734h48.068c8.524,0,15.413-11.461,15.669-25.734v-0.116v-0.265v-0.464v-0.314v-0.328     v-0.132c-0.256-14.258-7.145-25.719-15.669-25.719h-48.068c-8.591,0-15.413,11.461-15.736,25.719v0.132v0.328v0.314v0.464v0.265     V344.53z" style="fill-rule:evenodd;clip-rule:evenodd;fill:url(#SVGID_4_);"/><linearGradient gradientUnits="userSpaceOnUse" id="SVGID_5_" x1="92.9287" x2="161.2393" y1="343.7197" y2="343.7197"><stop offset="0" style="stop-color:#610000"/><stop offset="0.0242" style="stop-color:#790501"/><stop offset="0.0583" style="stop-color:#940A02"/><stop offset="0.0975" style="stop-color:#AA0E03"/><stop offset="0.1433" style="stop-color:#BB1103"/><stop offset="0.1999" style="stop-color:#C61304"/><stop offset="0.2794" style="stop-color:#CD1504"/><stop offset="0.5" style="stop-color:#CF1504"/><stop offset="0.7297" style="stop-color:#CD1504"/><stop offset="0.8124" style="stop-color:#C61304"/><stop offset="0.8714" style="stop-color:#BB1003"/><stop offset="0.9191" style="stop-color:#AA0C02"/><stop offset="0.9595" style="stop-color:#940701"/><stop offset="0.9951" style="stop-color:#790100"/><stop offset="1" style="stop-color:#750000"/></linearGradient><path d="M92.929,344.398     c0.272,11.908,6.136,21.448,13.52,21.448h41.321c7.334,0,13.254-9.54,13.47-21.448V344.3v-0.216v-0.381v-0.281v-0.265v-0.114     c-0.216-11.892-6.136-21.45-13.47-21.45h-41.321c-7.384,0-13.247,9.559-13.52,21.45v0.114v0.265v0.281v0.381v0.216V344.398z" style="fill-rule:evenodd;clip-rule:evenodd;fill:url(#SVGID_5_);"/></g><linearGradient gradientUnits="userSpaceOnUse" id="SVGID_6_" x1="164.8872" x2="348.9096" y1="148.8521" y2="326.5605"><stop offset="0.0056" style="stop-color:#A9D1EF"/><stop offset="0.5393" style="stop-color:#1998D5"/><stop offset="1" style="stop-color:#0073BB"/></linearGradient><path d="M177.587,151.147    c-39.882,0-60.571,74.081-78.06,109.581c8.872-3.324,18.663-5.087,28.983-5.087h255.046c10.254,0,20.043,1.763,28.926,5.087    c-17.497-35.5-38.122-109.581-77.996-109.581H177.587z" style="fill-rule:evenodd;clip-rule:evenodd;fill:url(#SVGID_6_);"/><path d="M109.508,408.036h-49.01c-3.2,0-5.814,2.614-5.814,5.807v39.49    c0,3.193,2.614,5.807,5.814,5.807h49.01c3.2,0,5.813-2.613,5.813-5.807v-39.49C115.321,410.65,112.708,408.036,109.508,408.036    L109.508,408.036z" style="fill-rule:evenodd;clip-rule:evenodd;"/><path d="M451.443,408.036h-49.017c-3.209,0-5.808,2.614-5.808,5.807v39.49    c0,3.193,2.599,5.807,5.808,5.807h49.017c3.193,0,5.807-2.613,5.807-5.807v-39.49C457.25,410.65,454.637,408.036,451.443,408.036    L451.443,408.036z" style="fill-rule:evenodd;clip-rule:evenodd;"/><linearGradient gradientUnits="userSpaceOnUse" id="SVGID_7_" x1="235.999" x2="276.0762" y1="101.3179" y2="101.3179"><stop offset="0" style="stop-color:#610000"/><stop offset="0.0242" style="stop-color:#790501"/><stop offset="0.0583" style="stop-color:#940A02"/><stop offset="0.0975" style="stop-color:#AA0E03"/><stop offset="0.1433" style="stop-color:#BB1103"/><stop offset="0.1999" style="stop-color:#C61304"/><stop offset="0.2794" style="stop-color:#CD1504"/><stop offset="0.5" style="stop-color:#CF1504"/><stop offset="0.7297" style="stop-color:#CD1504"/><stop offset="0.8124" style="stop-color:#C61304"/><stop offset="0.8714" style="stop-color:#BB1003"/><stop offset="0.9191" style="stop-color:#AA0C02"/><stop offset="0.9595" style="stop-color:#940701"/><stop offset="0.9951" style="stop-color:#790100"/><stop offset="1" style="stop-color:#750000"/></linearGradient><path d="M235.999,93.653v28.32h40.077v-28.32    c0-7.112-5.889-12.991-13.061-12.991h-13.96C241.871,80.662,235.999,86.541,235.999,93.653L235.999,93.653z" style="fill-rule:evenodd;clip-rule:evenodd;fill:url(#SVGID_7_);"/><linearGradient gradientUnits="userSpaceOnUse" id="SVGID_8_" x1="208.3223" x2="230.583" y1="99.8882" y2="99.8882"><stop offset="0" style="stop-color:#610000"/><stop offset="0.0242" style="stop-color:#790501"/><stop offset="0.0583" style="stop-color:#940A02"/><stop offset="0.0975" style="stop-color:#AA0E03"/><stop offset="0.1433" style="stop-color:#BB1103"/><stop offset="0.1999" style="stop-color:#C61304"/><stop offset="0.2794" style="stop-color:#CD1504"/><stop offset="0.5" style="stop-color:#CF1504"/><stop offset="0.7297" style="stop-color:#CD1504"/><stop offset="0.8124" style="stop-color:#C61304"/><stop offset="0.8714" style="stop-color:#BB1003"/><stop offset="0.9191" style="stop-color:#AA0C02"/><stop offset="0.9595" style="stop-color:#940701"/><stop offset="0.9951" style="stop-color:#790100"/><stop offset="1" style="stop-color:#750000"/></linearGradient><path d="M212.044,103.576h14.818    c2.018,0,3.721-1.639,3.721-3.655v-0.067c0-2.024-1.703-3.653-3.721-3.653h-14.818c-2.084,0-3.722,1.629-3.722,3.653v0.067    C208.322,101.938,209.96,103.576,212.044,103.576L212.044,103.576z" style="fill-rule:evenodd;clip-rule:evenodd;fill:url(#SVGID_8_);"/><linearGradient gradientUnits="userSpaceOnUse" id="SVGID_9_" x1="214.1191" x2="234.3784" y1="81.9365" y2="81.9365"><stop offset="0" style="stop-color:#610000"/><stop offset="0.0242" style="stop-color:#790501"/><stop offset="0.0583" style="stop-color:#940A02"/><stop offset="0.0975" style="stop-color:#AA0E03"/><stop offset="0.1433" style="stop-color:#BB1103"/><stop offset="0.1999" style="stop-color:#C61304"/><stop offset="0.2794" style="stop-color:#CD1504"/><stop offset="0.5" style="stop-color:#CF1504"/><stop offset="0.7297" style="stop-color:#CD1504"/><stop offset="0.8124" style="stop-color:#C61304"/><stop offset="0.8714" style="stop-color:#BB1003"/><stop offset="0.9191" style="stop-color:#AA0C02"/><stop offset="0.9595" style="stop-color:#940701"/><stop offset="0.9951" style="stop-color:#790100"/><stop offset="1" style="stop-color:#750000"/></linearGradient><path d="M215.963,81.449l12.852,7.441    c1.769,0.974,4.051,0.388,5.026-1.373l0.066-0.066c0.976-1.762,0.397-3.978-1.372-5.028l-12.851-7.434    c-1.771-0.983-4.052-0.396-5.027,1.364l-0.066,0.066C213.614,78.182,214.193,80.406,215.963,81.449L215.963,81.449z" style="fill-rule:evenodd;clip-rule:evenodd;fill:url(#SVGID_9_);"/><linearGradient gradientUnits="userSpaceOnUse" id="SVGID_10_" x1="229.9795" x2="244.8242" y1="68.7847" y2="68.7847"><stop offset="0" style="stop-color:#610000"/><stop offset="0.0242" style="stop-color:#790501"/><stop offset="0.0583" style="stop-color:#940A02"/><stop offset="0.0975" style="stop-color:#AA0E03"/><stop offset="0.1433" style="stop-color:#BB1103"/><stop offset="0.1999" style="stop-color:#C61304"/><stop offset="0.2794" style="stop-color:#CD1504"/><stop offset="0.5" style="stop-color:#CF1504"/><stop offset="0.7297" style="stop-color:#CD1504"/><stop offset="0.8124" style="stop-color:#C61304"/><stop offset="0.8714" style="stop-color:#BB1003"/><stop offset="0.9191" style="stop-color:#AA0C02"/><stop offset="0.9595" style="stop-color:#940701"/><stop offset="0.9951" style="stop-color:#790100"/><stop offset="1" style="stop-color:#750000"/></linearGradient><path d="M230.45,64.215l7.442,12.858    c1.042,1.762,3.259,2.348,5.02,1.373l0.074-0.066c1.753-1.043,2.349-3.267,1.365-5.027l-7.442-12.858    c-1.043-1.763-3.267-2.349-5.02-1.365l-0.066,0.059C230.055,60.172,229.476,62.452,230.45,64.215L230.45,64.215z" style="fill-rule:evenodd;clip-rule:evenodd;fill:url(#SVGID_10_);"/><linearGradient gradientUnits="userSpaceOnUse" id="SVGID_11_" x1="251.6611" x2="259.0371" y1="63.9541" y2="63.9541"><stop offset="0" style="stop-color:#610000"/><stop offset="0.0242" style="stop-color:#790501"/><stop offset="0.0583" style="stop-color:#940A02"/><stop offset="0.0975" style="stop-color:#AA0E03"/><stop offset="0.1433" style="stop-color:#BB1103"/><stop offset="0.1999" style="stop-color:#C61304"/><stop offset="0.2794" style="stop-color:#CD1504"/><stop offset="0.5" style="stop-color:#CF1504"/><stop offset="0.7297" style="stop-color:#CD1504"/><stop offset="0.8124" style="stop-color:#C61304"/><stop offset="0.8714" style="stop-color:#BB1003"/><stop offset="0.9191" style="stop-color:#AA0C02"/><stop offset="0.9595" style="stop-color:#940701"/><stop offset="0.9951" style="stop-color:#790100"/><stop offset="1" style="stop-color:#750000"/></linearGradient><path d="M251.661,56.583v14.809    c0,2.028,1.628,3.656,3.654,3.656h0.066c2.025,0,3.655-1.628,3.655-3.656V56.583c0-2.092-1.63-3.723-3.655-3.723h-0.066    C253.289,52.86,251.661,54.491,251.661,56.583L251.661,56.583z" style="fill-rule:evenodd;clip-rule:evenodd;fill:url(#SVGID_11_);"/><linearGradient gradientUnits="userSpaceOnUse" id="SVGID_12_" x1="265.8857" x2="280.7129" y1="68.7847" y2="68.7847"><stop offset="0" style="stop-color:#610000"/><stop offset="0.0242" style="stop-color:#790501"/><stop offset="0.0583" style="stop-color:#940A02"/><stop offset="0.0975" style="stop-color:#AA0E03"/><stop offset="0.1433" style="stop-color:#BB1103"/><stop offset="0.1999" style="stop-color:#C61304"/><stop offset="0.2794" style="stop-color:#CD1504"/><stop offset="0.5" style="stop-color:#CF1504"/><stop offset="0.7297" style="stop-color:#CD1504"/><stop offset="0.8124" style="stop-color:#C61304"/><stop offset="0.8714" style="stop-color:#BB1003"/><stop offset="0.9191" style="stop-color:#AA0C02"/><stop offset="0.9595" style="stop-color:#940701"/><stop offset="0.9951" style="stop-color:#790100"/><stop offset="1" style="stop-color:#750000"/></linearGradient><path d="M266.4,73.353c-1.044,1.761-0.446,3.984,1.308,5.027    l0.064,0.066c1.77,0.975,3.986,0.389,5.028-1.373l7.441-12.925c0.976-1.696,0.397-3.977-1.372-4.961v-0.059    c-1.821-0.983-4.036-0.397-5.027,1.365L266.4,73.353z" style="fill-rule:evenodd;clip-rule:evenodd;fill:url(#SVGID_12_);"/><linearGradient gradientUnits="userSpaceOnUse" id="SVGID_13_" x1="276.335" x2="296.6025" y1="81.9268" y2="81.9268"><stop offset="0" style="stop-color:#610000"/><stop offset="0.0242" style="stop-color:#790501"/><stop offset="0.0583" style="stop-color:#940A02"/><stop offset="0.0975" style="stop-color:#AA0E03"/><stop offset="0.1433" style="stop-color:#BB1103"/><stop offset="0.1999" style="stop-color:#C61304"/><stop offset="0.2794" style="stop-color:#CD1504"/><stop offset="0.5" style="stop-color:#CF1504"/><stop offset="0.7297" style="stop-color:#CD1504"/><stop offset="0.8124" style="stop-color:#C61304"/><stop offset="0.8714" style="stop-color:#BB1003"/><stop offset="0.9191" style="stop-color:#AA0C02"/><stop offset="0.9595" style="stop-color:#940701"/><stop offset="0.9951" style="stop-color:#790100"/><stop offset="1" style="stop-color:#750000"/></linearGradient><path d="M278.158,82.423c-1.77,1.051-2.347,3.267-1.305,5.028    v0.066c1.04,1.761,3.258,2.347,5.026,1.307l12.849-7.443c1.771-0.975,2.415-3.199,1.373-5.027l0,0    c-1.04-1.761-3.256-2.348-5.026-1.364L278.158,82.423z" style="fill-rule:evenodd;clip-rule:evenodd;fill:url(#SVGID_13_);"/><linearGradient gradientUnits="userSpaceOnUse" id="SVGID_14_" x1="280.1768" x2="302.3711" y1="99.8882" y2="99.8882"><stop offset="0" style="stop-color:#610000"/><stop offset="0.0242" style="stop-color:#790501"/><stop offset="0.0583" style="stop-color:#940A02"/><stop offset="0.0975" style="stop-color:#AA0E03"/><stop offset="0.1433" style="stop-color:#BB1103"/><stop offset="0.1999" style="stop-color:#C61304"/><stop offset="0.2794" style="stop-color:#CD1504"/><stop offset="0.5" style="stop-color:#CF1504"/><stop offset="0.7297" style="stop-color:#CD1504"/><stop offset="0.8124" style="stop-color:#C61304"/><stop offset="0.8714" style="stop-color:#BB1003"/><stop offset="0.9191" style="stop-color:#AA0C02"/><stop offset="0.9595" style="stop-color:#940701"/><stop offset="0.9951" style="stop-color:#790100"/><stop offset="1" style="stop-color:#750000"/></linearGradient><path d="M280.177,99.921c0,2.017,1.638,3.655,3.653,3.655    h14.885c2.019,0,3.656-1.639,3.656-3.655v-0.067c0-2.024-1.638-3.653-3.656-3.653H283.83c-2.016,0-3.653,1.629-3.653,3.653V99.921    z" style="fill-rule:evenodd;clip-rule:evenodd;fill:url(#SVGID_14_);"/><g><g><g><g><linearGradient gradientUnits="userSpaceOnUse" id="SVGID_15_" x1="212.373" x2="299.9027" y1="387.8984" y2="300.3688"><stop offset="0" style="stop-color:#8A9AA9"/><stop offset="0.2449" style="stop-color:#C3D2DB"/><stop offset="0.5" style="stop-color:#8A9AA9"/><stop offset="0.75" style="stop-color:#C3D2DB"/><stop offset="1" style="stop-color:#8A9AA9"/></linearGradient><path d="M329.328,358.471H182.945v-28.677h146.383V358.471z M326.467,356.256v-24.261H185.798        v24.261H326.467z" style="fill:url(#SVGID_15_);"/></g></g><linearGradient gradientUnits="userSpaceOnUse" id="SVGID_16_" x1="256.1323" x2="256.1323" y1="334.1621" y2="331.9443"><stop offset="0" style="stop-color:#999999"/><stop offset="0.2908" style="stop-color:#403E40"/><stop offset="1" style="stop-color:#000000"/></linearGradient><rect height="2.218" style="fill:url(#SVGID_16_);" width="140.669" x="185.798" y="331.944"/><linearGradient gradientUnits="userSpaceOnUse" id="SVGID_17_" x1="220.4116" x2="291.8542" y1="370.9922" y2="299.5496"><stop offset="0" style="stop-color:#8A9AA9"/><stop offset="0.2449" style="stop-color:#C3D2DB"/><stop offset="0.5" style="stop-color:#8A9AA9"/><stop offset="0.75" style="stop-color:#C3D2DB"/><stop offset="1" style="stop-color:#8A9AA9"/></linearGradient><rect height="2.216" style="fill:url(#SVGID_17_);" width="140.669" x="185.798" y="334.162"/><linearGradient gradientUnits="userSpaceOnUse" id="SVGID_18_" x1="256.1323" x2="256.1323" y1="338.5918" y2="336.3779"><stop offset="0" style="stop-color:#999999"/><stop offset="0.2908" style="stop-color:#403E40"/><stop offset="1" style="stop-color:#000000"/></linearGradient><rect height="2.214" style="fill:url(#SVGID_18_);" width="140.669" x="185.798" y="336.378"/><linearGradient gradientUnits="userSpaceOnUse" id="SVGID_19_" x1="220.416" x2="291.8507" y1="375.4102" y2="303.9755"><stop offset="0" style="stop-color:#8A9AA9"/><stop offset="0.2449" style="stop-color:#C3D2DB"/><stop offset="0.5" style="stop-color:#8A9AA9"/><stop offset="0.75" style="stop-color:#C3D2DB"/><stop offset="1" style="stop-color:#8A9AA9"/></linearGradient><rect height="2.2" style="fill:url(#SVGID_19_);" width="140.669" x="185.798" y="338.592"/><linearGradient gradientUnits="userSpaceOnUse" id="SVGID_20_" x1="256.1323" x2="256.1323" y1="343.0098" y2="340.792"><stop offset="0" style="stop-color:#999999"/><stop offset="0.2908" style="stop-color:#403E40"/><stop offset="1" style="stop-color:#000000"/></linearGradient><rect height="2.218" style="fill:url(#SVGID_20_);" width="140.669" x="185.798" y="340.792"/><linearGradient gradientUnits="userSpaceOnUse" id="SVGID_21_" x1="220.416" x2="291.85" y1="379.8262" y2="308.3922"><stop offset="0" style="stop-color:#8A9AA9"/><stop offset="0.2449" style="stop-color:#C3D2DB"/><stop offset="0.5" style="stop-color:#8A9AA9"/><stop offset="0.75" style="stop-color:#C3D2DB"/><stop offset="1" style="stop-color:#8A9AA9"/></linearGradient><rect height="2.198" style="fill:url(#SVGID_21_);" width="140.669" x="185.798" y="343.01"/><linearGradient gradientUnits="userSpaceOnUse" id="SVGID_22_" x1="256.1323" x2="256.1323" y1="347.4238" y2="345.208"><stop offset="0" style="stop-color:#999999"/><stop offset="0.2908" style="stop-color:#403E40"/><stop offset="1" style="stop-color:#000000"/></linearGradient><rect height="2.216" style="fill:url(#SVGID_22_);" width="140.669" x="185.798" y="345.208"/><linearGradient gradientUnits="userSpaceOnUse" id="SVGID_23_" x1="220.415" x2="291.8497" y1="384.2412" y2="312.8065"><stop offset="0" style="stop-color:#8A9AA9"/><stop offset="0.2449" style="stop-color:#C3D2DB"/><stop offset="0.5" style="stop-color:#8A9AA9"/><stop offset="0.75" style="stop-color:#C3D2DB"/><stop offset="1" style="stop-color:#8A9AA9"/></linearGradient><rect height="2.2" style="fill:url(#SVGID_23_);" width="140.669" x="185.798" y="347.424"/><linearGradient gradientUnits="userSpaceOnUse" id="SVGID_24_" x1="256.1323" x2="256.1323" y1="351.8398" y2="349.624"><stop offset="0" style="stop-color:#999999"/><stop offset="0.2908" style="stop-color:#403E40"/><stop offset="1" style="stop-color:#000000"/></linearGradient><rect height="2.216" style="fill:url(#SVGID_24_);" width="140.669" x="185.798" y="349.624"/><linearGradient gradientUnits="userSpaceOnUse" id="SVGID_25_" x1="220.4116" x2="291.8546" y1="388.6709" y2="317.2279"><stop offset="0" style="stop-color:#8A9AA9"/><stop offset="0.2449" style="stop-color:#C3D2DB"/><stop offset="0.5" style="stop-color:#8A9AA9"/><stop offset="0.75" style="stop-color:#C3D2DB"/><stop offset="1" style="stop-color:#8A9AA9"/></linearGradient><rect height="2.217" style="fill:url(#SVGID_25_);" width="140.669" x="185.798" y="351.84"/><linearGradient gradientUnits="userSpaceOnUse" id="SVGID_26_" x1="256.1323" x2="256.1323" y1="356.2559" y2="354.0566"><stop offset="0" style="stop-color:#999999"/><stop offset="0.2908" style="stop-color:#403E40"/><stop offset="1" style="stop-color:#000000"/></linearGradient><rect height="2.199" style="fill:url(#SVGID_26_);" width="140.669" x="185.798" y="354.057"/></g></g><g><path d="M75.217,256.221c-9.021-8.449-58.958-14.438-59.215,5.459     c-0.264,19.99,21.566,38.527,42.99,38.793L75.217,256.221z" style="fill-rule:evenodd;clip-rule:evenodd;"/></g><g><path d="M436.773,256.221c9.03-8.449,58.96-14.438,59.225,5.459     c0.265,19.99-21.567,38.527-42.999,38.793L436.773,256.221z" style="fill-rule:evenodd;clip-rule:evenodd;"/></g></g></g><g id="Layer_1"/></svg>