<?xml version="1.0" ?><svg id="Icons" viewBox="0 0 48 48" xmlns="http://www.w3.org/2000/svg"><defs><style>.cls-1{fill:#ffe500;}.cls-2{fill:#ebcb00;}.cls-3{fill:#fff48c;}.cls-4{fill:#45413c;opacity:0.15;}.cls-5{fill:none;stroke:#45413c;stroke-linecap:round;stroke-linejoin:round;}.cls-6{fill:#ffaa54;}</style></defs><title/><g data-name="&lt;Group&gt;" id="_Group_"><circle class="cls-1" cx="24" cy="21.5" data-name="&lt;Ellipse&gt;" id="_Ellipse_" r="20"/><path class="cls-2" d="M24,1.5a20,20,0,1,0,20,20A20,20,0,0,0,24,1.5Zm0,37A18.25,18.25,0,1,1,42.25,20.25,18.25,18.25,0,0,1,24,38.5Z" data-name="&lt;Compound Path&gt;" id="_Compound_Path_"/><ellipse class="cls-3" cx="24" cy="5.5" data-name="&lt;Ellipse&gt;" id="_Ellipse_2" rx="6" ry="1.5"/><ellipse class="cls-4" cx="24" cy="45.5" data-name="&lt;Ellipse&gt;" id="_Ellipse_3" rx="16" ry="1.5"/><circle class="cls-5" cx="24" cy="21.5" data-name="&lt;Ellipse&gt;" id="_Ellipse_4" r="20"/><g data-name="&lt;Group&gt;" id="_Group_2"><path class="cls-5" d="M23,28.27A2,2,0,0,1,24,28a2,2,0,1,1,0,4,2,2,0,1,1,0,4,2,2,0,0,1-1-.27" data-name="&lt;Path&gt;" id="_Path_"/></g><line class="cls-5" data-name="&lt;Line&gt;" id="_Line_" x1="16.5" x2="11" y1="22" y2="22"/><path class="cls-6" d="M9.5,26.5c0,.83,1.12,1.5,2.5,1.5s2.5-.67,2.5-1.5S13.38,25,12,25,9.5,25.67,9.5,26.5Z" data-name="&lt;Path&gt;" id="_Path_2"/><path class="cls-5" d="M13,17.16a11.43,11.43,0,0,0,3.37-1.1A11.18,11.18,0,0,0,19.25,14" data-name="&lt;Path&gt;" id="_Path_3"/><line class="cls-5" data-name="&lt;Line&gt;" id="_Line_2" x1="31.5" x2="37" y1="22" y2="22"/><path class="cls-6" d="M38.5,26.5c0,.83-1.12,1.5-2.5,1.5s-2.5-.67-2.5-1.5S34.62,25,36,25,38.5,25.67,38.5,26.5Z" data-name="&lt;Path&gt;" id="_Path_4"/><path class="cls-5" d="M35,17.16a11.43,11.43,0,0,1-3.37-1.1A11.18,11.18,0,0,1,28.75,14" data-name="&lt;Path&gt;" id="_Path_5"/></g></svg>