<?xml version="1.0" ?><svg enable-background="new 0 0 515.91 728.5" height="512" id="Layer_1" version="1.1" viewBox="0 0 512.00003 512" width="512" xml:space="preserve" xmlns="http://www.w3.org/2000/svg" xmlns:cc="http://creativecommons.org/ns#" xmlns:dc="http://purl.org/dc/elements/1.1/" xmlns:inkscape="http://www.inkscape.org/namespaces/inkscape" xmlns:rdf="http://www.w3.org/1999/02/22-rdf-syntax-ns#" xmlns:sodipodi="http://sodipodi.sourceforge.net/DTD/sodipodi-0.dtd" xmlns:svg="http://www.w3.org/2000/svg"><defs id="defs7"/><g id="g9696" transform="translate(1284.2968,-11037.159)"><path d="m -1278.2968,11043.159 0,200 200,0 0,-200 -200,0 z m 119.1406,21.888 c 10.1604,0 18.8927,0.744 21.4356,1.086 l 0,24.853 -14.7095,0 c -11.529,0 -13.7695,5.483 -13.7695,13.526 l 0,17.724 27.5146,0 -3.5888,27.784 -23.9258,0 0,71.264 0,0 -28.6743,0 0,-71.277 -23.9868,0 0,-27.783 23.9868,0 0,-20.484 c 0,-23.77 14.5114,-36.706 35.7177,-36.706 z" id="path9617" style="fill:#00a1f1;fill-opacity:1;fill-rule:nonzero;stroke:none"/><path d="m -1252.9168,11343.159 c -15.3478,0 -25.38,10.09 -25.38,23.316 0,12.947 9.7235,23.314 24.7826,23.314 l 0.2992,0 c 15.6408,0 25.38,-10.367 25.38,-23.314 -0.2905,-13.226 -9.7435,-23.316 -25.0818,-23.316 z m 132.2287,61.903 c -23.7948,0 -34.4661,13.091 -40.4348,22.282 l 0,-19.103 -44.8373,0 c 0.5947,12.656 0,134.918 0,134.918 l 44.8373,0 0,-75.353 c 0,-4.034 0.3061,-8.069 1.494,-10.951 3.2365,-8.056 10.626,-16.386 23.0165,-16.386 16.2217,0 22.7174,12.384 22.7174,30.516 l 0,72.174 44.8374,0 0,-77.364 c 0,-41.448 -22.12,-60.733 -51.6305,-60.733 z m -154.9461,3.179 0,134.918 44.8644,0 0,-134.918 -44.8644,0 z" id="path9625" style="fill:#00a1f1;fill-opacity:1"/><path d="m -778.29715,11234.528 c -9.07027,4.007 -18.80316,6.721 -29.01167,7.934 10.41952,-6.237 18.43286,-16.16 22.17927,-27.95 -9.7764,5.8 -20.57432,9.996 -32.07026,12.266 -9.22048,-9.806 -22.32937,-15.937 -36.87471,-15.937 -27.87444,0 -50.50412,22.62 -50.50412,50.503 0,3.967 0.44132,7.828 1.32704,11.491 -41.98676,-2.093 -79.19107,-22.223 -104.0952,-52.774 -4.3286,7.46 -6.8314,16.125 -6.8314,25.376 0,17.525 8.9304,32.987 22.47955,42.019 -8.26385,-0.251 -16.05295,-2.53 -22.88025,-6.317 0,0.225 0,0.402 0,0.631 0,24.458 17.41029,44.883 40.51558,49.503 -4.22723,1.146 -8.70496,1.763 -13.2975,1.763 -3.2706,0 -6.43069,-0.335 -9.51578,-0.917 6.42569,20.064 25.08475,34.68 47.16241,35.085 -17.30062,13.541 -39.04357,21.633 -62.73421,21.633 -4.0773,0 -8.0793,-0.264 -12.0469,-0.705 22.3345,14.316 48.88603,22.709 77.42999,22.709 92.88729,0 143.68251,-76.958 143.68251,-143.691 0,-2.209 -0.045,-4.373 -0.1491,-6.543 9.89099,-7.117 18.44185,-16.012 25.19415,-26.153 l 0.041,0.07 z" id="path9631" style="fill:#00a1f1;fill-opacity:1"/><path d="m -1043.3125,11521.219 c -7.0645,0 -14.0629,0.327 -20.9687,0.937 l 0,37.875 c 6.8944,-0.729 13.881,-1.125 20.9687,-1.125 69.55358,0 130.69211,35.992 165.8125,90.375 13.53405,-5.005 28.78548,-5.683 42.59375,-1.656 -39.20842,-75.118 -117.8045,-126.406 -208.40625,-126.406 z m -229.375,183.937 c -3.6403,16.434 -5.5937,33.501 -5.5937,51.032 0,9.501 0.5598,18.855 1.6562,28.062 5.8648,-4.431 12.9011,-7.204 20.375,-7.375 5.7636,-0.353 11.6023,0.463 17.0312,2.375 -0.8815,-7.569 -1.375,-15.257 -1.375,-23.062 0,-17.649 2.3401,-34.754 6.6876,-51.032 z m 460.96875,90.875 c -5.77653,9.877 -12.56885,19.158 -20.28125,27.594 -11.52291,13.067 -25.37595,23.582 -40.625,31.469 -34.14356,58.8 -97.78803,98.344 -170.6875,98.344 -3.9017,0 -7.7794,-0.121 -11.625,-0.344 -0.2648,12.593 -0.598,25.197 -0.3437,37.75 3.9637,0.199 7.9553,0.312 11.9687,0.312 116.18671,0 212.66721,-84.337 231.59375,-195.125 z" id="path9611" style="fill:#333333;fill-opacity:1;fill-rule:nonzero;stroke:none" transform="translate(0,-448)"/></g></svg>