<?xml version="1.0" ?><svg id="Christmas_Icon" style="enable-background:new 0 0 56 56;" version="1.1" viewBox="0 0 56 56" xml:space="preserve" xmlns="http://www.w3.org/2000/svg" xmlns:xlink="http://www.w3.org/1999/xlink"><style type="text/css">
	.st0{fill:#F5F5F5;stroke:#3E2723;stroke-linecap:round;stroke-linejoin:round;stroke-miterlimit:10;}
	.st1{fill:#E0E0E0;}
	.st2{fill:#8D6E63;stroke:#3E2723;stroke-linecap:round;stroke-linejoin:round;stroke-miterlimit:10;}
	.st3{fill:#5D4037;}
	.st4{fill:none;stroke:#3E2723;stroke-linecap:round;stroke-linejoin:round;stroke-miterlimit:10;}
	.st5{fill:#FFD54F;stroke:#3E2723;stroke-linecap:round;stroke-linejoin:round;stroke-miterlimit:10;}
	.st6{fill:#E53935;stroke:#3E2723;stroke-linecap:round;stroke-linejoin:round;stroke-miterlimit:10;}
	.st7{fill:#B71C1C;}
	.st8{fill:#FFA000;}
	.st9{fill:#FFECB3;stroke:#3E2723;stroke-linecap:round;stroke-linejoin:round;stroke-miterlimit:10;}
	.st10{fill:#FFE082;}
	.st11{fill:#3E2723;}
	.st12{fill:#81C784;stroke:#3E2723;stroke-linecap:round;stroke-linejoin:round;stroke-miterlimit:10;}
	.st13{fill:#43A047;}
	.st14{fill:#263238;}
	.st15{fill:#4E342E;stroke:#3E2723;stroke-linecap:round;stroke-linejoin:round;stroke-miterlimit:10;}
	.st16{fill:none;}
	.st17{fill:#A1887F;stroke:#3E2723;stroke-linecap:round;stroke-linejoin:round;stroke-miterlimit:10;}
	.st18{fill:#6D4C41;}
	.st19{fill:#6D4C41;stroke:#3E2723;stroke-linecap:round;stroke-linejoin:round;stroke-miterlimit:10;}
	.st20{fill:#E0E0E0;stroke:#3E2723;stroke-miterlimit:10;}
	.st21{fill:#D81B60;stroke:#3E2723;stroke-linecap:round;stroke-linejoin:round;stroke-miterlimit:10;}
	.st22{fill:#E0E0E0;stroke:#3E2723;stroke-linecap:round;stroke-linejoin:round;stroke-miterlimit:10;}
	.st23{fill:#FBC02D;stroke:#3E2723;stroke-linecap:round;stroke-linejoin:round;stroke-miterlimit:10;}
</style><g id="Ornament"><path class="st12" d="M52.5,28.5c0-1.7-0.6-3.3-1.7-4.5c0.5-1.5,0.5-3.2-0.2-4.8s-1.9-2.8-3.3-3.6c-0.1-1.6-0.8-3.2-2-4.4   s-2.8-1.9-4.4-2c-0.7-1.4-2-2.6-3.6-3.3s-3.3-0.7-4.8-0.2C31.3,4.6,29.7,4,28,4c-1.7,0-3.3,0.6-4.5,1.7c-1.5-0.5-3.2-0.5-4.8,0.2   s-2.8,1.9-3.6,3.3c-1.6,0.1-3.2,0.8-4.4,2s-1.9,2.8-2,4.4c-1.4,0.7-2.6,2-3.3,3.6S4.7,22.4,5.2,24c-1,1.2-1.7,2.8-1.7,4.5   c0,1.7,0.6,3.3,1.7,4.5c-0.5,1.5-0.5,3.2,0.2,4.8s1.9,2.8,3.3,3.6c0.1,1.6,0.8,3.2,2,4.4s2.8,1.9,4.4,2c0.7,1.4,2,2.6,3.6,3.3   s3.3,0.7,4.8,0.2c1.2,1,2.8,1.7,4.5,1.7c1.7,0,3.3-0.6,4.5-1.7c1.5,0.5,3.2,0.5,4.8-0.2s2.8-1.9,3.6-3.3c1.6-0.1,3.2-0.8,4.4-2   s1.9-2.8,2-4.4c1.4-0.7,2.6-2,3.3-3.6s0.7-3.3,0.2-4.8C51.9,31.8,52.5,30.2,52.5,28.5z M28,40.5c-6.6,0-12-5.4-12-12   c0-6.6,5.4-12,12-12s12,5.4,12,12C40,35.1,34.6,40.5,28,40.5z"/><g><path class="st13" d="M52,28.5c0-1.5-0.6-3-1.6-4.2c-0.1-0.1-0.1-0.3-0.1-0.5c0.5-1.5,0.4-3.1-0.2-4.5c-0.6-1.4-1.7-2.6-3.1-3.3    c-0.2-0.1-0.3-0.2-0.3-0.4c-0.1-1.5-0.8-3-1.9-4.1s-2.5-1.8-4.1-1.9c-0.2,0-0.3-0.1-0.4-0.3c-0.7-1.4-1.9-2.5-3.3-3.1    c-1.4-0.6-2.9-0.6-4.3-0.2c1.4,0.7,2.4,1.8,3.1,3c1.6,0.1,3.2,0.8,4.4,2s1.9,2.8,2,4.4c1.4,0.7,2.6,2,3.3,3.6s0.7,3.3,0.2,4.8    c1,1.2,1.7,2.8,1.7,4.5c0,1.7-0.6,3.3-1.7,4.5c0.5,1.5,0.5,3.2-0.2,4.8s-1.9,2.8-3.3,3.6c-0.1,1.6-0.8,3.2-2,4.4s-2.8,1.9-4.4,2    c-0.7,1.3-1.7,2.3-3.1,3c1.4,0.4,3,0.4,4.3-0.2c1.4-0.6,2.6-1.7,3.3-3.1c0.1-0.2,0.2-0.3,0.4-0.3c1.5-0.1,3-0.8,4.1-1.9    c1.1-1.1,1.8-2.5,1.9-4.1c0-0.2,0.1-0.3,0.3-0.4c1.4-0.7,2.5-1.9,3.1-3.3c0.6-1.4,0.7-3,0.2-4.5c-0.1-0.2,0-0.3,0.1-0.5    C51.4,31.5,52,30,52,28.5z"/></g><path class="st5" d="M16.5,32.5h-11C4.1,32.5,3,31.4,3,30v-3c0-1.4,1.1-2.5,2.5-2.5h11c1.4,0,2.5,1.1,2.5,2.5v3   C19,31.4,17.9,32.5,16.5,32.5z"/><path class="st5" d="M50.5,32.5h-11c-1.4,0-2.5-1.1-2.5-2.5v-3c0-1.4,1.1-2.5,2.5-2.5h11c1.4,0,2.5,1.1,2.5,2.5v3   C53,31.4,51.9,32.5,50.5,32.5z"/><circle class="st0" cx="11" cy="28.5" r="1.5"/><circle class="st0" cx="45" cy="28.5" r="1.5"/><ellipse class="st0" cx="40" cy="40.5" rx="1.5" ry="1.5" transform="matrix(0.7071 -0.7071 0.7071 0.7071 -16.9306 40.1672)"/><ellipse class="st0" cx="16" cy="40.5" rx="1.5" ry="1.5" transform="matrix(0.7071 -0.7071 0.7071 0.7071 -23.9722 23.1672)"/><circle class="st0" cx="28" cy="45.5" r="1.5"/><g><polygon class="st6" points="35.8,24 36.5,19.1 41.4,18.4 28,4.9 22.3,10.6   "/><polygon class="st6" points="14.6,18.4 19.5,19.1 20.2,24 33.7,10.6 28,4.9   "/><g><g><path class="st6" d="M35.6,12.7L28,9.9v-4l7.6-2.8C37.3,2.6,39,3.8,39,5.5v4.9C39,12.1,37.3,13.3,35.6,12.7z"/><path class="st6" d="M20.4,12.7L28,9.9v-4l-7.6-2.8C18.7,2.6,17,3.8,17,5.5v4.9C17,12.1,18.7,13.3,20.4,12.7z"/></g><path class="st6" d="M29.5,11.9h-3c-1.4,0-2.5-1.1-2.5-2.5v-3c0-1.4,1.1-2.5,2.5-2.5h3c1.4,0,2.5,1.1,2.5,2.5v3     C32,10.8,30.9,11.9,29.5,11.9z"/></g></g><path class="st8" d="M48,27v3c0,0.8-0.4,1.5-1,2h3.5c1.1,0,2-0.9,2-2v-3c0-1.1-0.9-2-2-2H47C47.6,25.5,48,26.2,48,27z"/></g></svg>