<?xml version="1.0" ?><svg id="Christmas_Icon" style="enable-background:new 0 0 56 56;" version="1.1" viewBox="0 0 56 56" xml:space="preserve" xmlns="http://www.w3.org/2000/svg" xmlns:xlink="http://www.w3.org/1999/xlink"><style type="text/css">
	.st0{fill:#F5F5F5;stroke:#3E2723;stroke-linecap:round;stroke-linejoin:round;stroke-miterlimit:10;}
	.st1{fill:#E0E0E0;}
	.st2{fill:#8D6E63;stroke:#3E2723;stroke-linecap:round;stroke-linejoin:round;stroke-miterlimit:10;}
	.st3{fill:#5D4037;}
	.st4{fill:none;stroke:#3E2723;stroke-linecap:round;stroke-linejoin:round;stroke-miterlimit:10;}
	.st5{fill:#FFD54F;stroke:#3E2723;stroke-linecap:round;stroke-linejoin:round;stroke-miterlimit:10;}
	.st6{fill:#E53935;stroke:#3E2723;stroke-linecap:round;stroke-linejoin:round;stroke-miterlimit:10;}
	.st7{fill:#B71C1C;}
	.st8{fill:#FFA000;}
	.st9{fill:#FFECB3;stroke:#3E2723;stroke-linecap:round;stroke-linejoin:round;stroke-miterlimit:10;}
	.st10{fill:#FFE082;}
	.st11{fill:#3E2723;}
	.st12{fill:#81C784;stroke:#3E2723;stroke-linecap:round;stroke-linejoin:round;stroke-miterlimit:10;}
	.st13{fill:#43A047;}
	.st14{fill:#263238;}
	.st15{fill:#4E342E;stroke:#3E2723;stroke-linecap:round;stroke-linejoin:round;stroke-miterlimit:10;}
	.st16{fill:none;}
	.st17{fill:#A1887F;stroke:#3E2723;stroke-linecap:round;stroke-linejoin:round;stroke-miterlimit:10;}
	.st18{fill:#6D4C41;}
	.st19{fill:#6D4C41;stroke:#3E2723;stroke-linecap:round;stroke-linejoin:round;stroke-miterlimit:10;}
	.st20{fill:#E0E0E0;stroke:#3E2723;stroke-miterlimit:10;}
	.st21{fill:#D81B60;stroke:#3E2723;stroke-linecap:round;stroke-linejoin:round;stroke-miterlimit:10;}
	.st22{fill:#E0E0E0;stroke:#3E2723;stroke-linecap:round;stroke-linejoin:round;stroke-miterlimit:10;}
	.st23{fill:#FBC02D;stroke:#3E2723;stroke-linecap:round;stroke-linejoin:round;stroke-miterlimit:10;}
</style><g id="Candle"><path class="st2" d="M53.5,50.5h-51c-0.6,0-1,0.4-1,1v2c0,0.6,0.4,1,1,1h51c0.6,0,1-0.4,1-1v-2C54.5,50.9,54.1,50.5,53.5,50.5z"/><path class="st0" d="M32.5,50.5h-9c-1.4,0-2.5-1.1-2.5-2.5V25c0-1.4,1.1-2.5,2.5-2.5h9c1.4,0,2.5,1.1,2.5,2.5v23   C35,49.4,33.9,50.5,32.5,50.5z"/><path class="st5" d="M32.1,8.4l-0.3,1.3c-0.4,1.5-1.4,2.8-2.9,3.5L28,13.5l0-12l-5.4,9.1c-0.8,1.4-1.1,3-0.5,4.5   c2,5.8,9.7,5.8,11.8,0c0.5-1.5,0.3-3.2-0.5-4.5L32.1,8.4z"/><path class="st0" d="M20,25v5.4c0,1,0.7,1.9,1.7,2.1c1.3,0.2,2.3-0.8,2.3-2v-4c0,1.1,0.9,2,2,2c1.1,0,2-0.9,2-2h7c0.6,0,1-0.4,1-1   V25c0-1.4-1.1-2.5-2.5-2.5h-11C21.1,22.5,20,23.6,20,25z"/><g><path class="st12" d="M43.4,45.6l0.8,0.2v0c0.5-3,1.9-5.9,4-8.1l1.7-1.8l-2.4-0.1c-3.1-0.1-6-1.1-8.6-2.9l0,0l-0.4,0.7    c-2,3-6,4-9.2,2.2l0,0L23,46.9l12.3,3.6v0C36.3,47,39.8,44.9,43.4,45.6z"/><path class="st13" d="M23.8,46.6L35,49.9c1.3-3.5,4.8-5.5,8.5-4.8l0.3,0.1c0.6-2.9,2-5.7,4-7.9l0.9-1l-1.4-0.1    c-0.5,0-0.9-0.1-1.4-0.1c-1.5,2-2.5,4.4-3,6.9l-0.8-0.2c-3.6-0.7-7.1,1.4-8.1,4.9L24.7,45L23.8,46.6z"/><line class="st12" x1="34.1" x2="23" y1="42.3" y2="46.9"/></g><g><circle class="st6" cx="17" cy="44.5" r="6"/><path class="st7" d="M16.4,50c0.2,0,0.4,0,0.6,0c3,0,5.5-2.5,5.5-5.5S20,39,17,39c-0.2,0-0.4,0-0.6,0c2.1,0.9,3.6,3,3.6,5.5    C20,46.9,18.5,49,16.4,50z"/></g></g></svg>