<?xml version="1.0" ?><!DOCTYPE svg  PUBLIC '-//W3C//DTD SVG 1.1//EN'  'http://www.w3.org/Graphics/SVG/1.1/DTD/svg11.dtd'><svg height="100%" style="fill-rule:evenodd;clip-rule:evenodd;stroke-linejoin:round;stroke-miterlimit:1.41421;" version="1.1" viewBox="0 0 101 125" width="100%" xml:space="preserve" xmlns="http://www.w3.org/2000/svg" xmlns:serif="http://www.serif.com/" xmlns:xlink="http://www.w3.org/1999/xlink"><path d="M72.564,102.799c0.9,0.7 2,1.1 3.1,1.1c0.7,0 1.5,-0.2 2.2,-0.5c1.7,-0.8 2.8,-2.6 2.8,-4.5l0,-69.8c0,-4.4 -3.6,-8 -8,-8l-45.2,0c-4.4,0 -8,3.6 -8,8l0,69.7c0,1.9 1.1,3.7 2.8,4.5c1.7,0.8 3.8,0.6 5.3,-0.6l0.1,-0.1l22.4,-18.8l22.4,18.9l0.1,0.1Z" style="fill:#ff1560;fill-rule:nonzero;"/><clipPath id="_clip1"><path clip-rule="nonzero" d="M72.564,102.799c0.9,0.7 2,1.1 3.1,1.1c0.7,0 1.5,-0.2 2.2,-0.5c1.7,-0.8 2.8,-2.6 2.8,-4.5l0,-69.8c0,-4.4 -3.6,-8 -8,-8l-45.2,0c-4.4,0 -8,3.6 -8,8l0,69.7c0,1.9 1.1,3.7 2.8,4.5c1.7,0.8 3.8,0.6 5.3,-0.6l0.1,-0.1l22.4,-18.8l22.4,18.9l0.1,0.1Z"/></clipPath><g clip-path="url(#_clip1)"><rect height="82.8" style="fill:#020000;fill-opacity:0.25;" width="30.6" x="50.064" y="21.099"/></g><path d="M22.586,91.602c0,0 0.078,-49.09 0.1,-63.121c0.004,-2.047 1.664,-3.704 3.71,-3.704c0.002,0 0.002,0 0.002,0l-3.812,66.825Z" style="fill:#fff;fill-opacity:0.5;fill-rule:nonzero;"/><path d="M24.846,100.522c-0.413,0.339 -0.985,0.41 -1.468,0.182c-0.483,-0.228 -0.792,-0.715 -0.792,-1.249c0,-1.937 0,-4.121 0,-4.121c0,0 0.497,1.205 0.939,2.279c0.18,0.435 0.525,0.781 0.96,0.961c0.435,0.179 0.924,0.178 1.358,-0.003c1.262,-0.527 2.79,-1.166 2.79,-1.166c0,0 -2.069,1.703 -3.787,3.117Z" style="fill:#fff;fill-opacity:0.5;"/></svg>