<?xml version="1.0" ?><!DOCTYPE svg  PUBLIC '-//W3C//DTD SVG 1.1//EN'  'http://www.w3.org/Graphics/SVG/1.1/DTD/svg11.dtd'><svg height="100%" style="fill-rule:evenodd;clip-rule:evenodd;stroke-linejoin:round;stroke-miterlimit:1.41421;" version="1.1" viewBox="0 0 101 126" width="100%" xml:space="preserve" xmlns="http://www.w3.org/2000/svg" xmlns:serif="http://www.serif.com/" xmlns:xlink="http://www.w3.org/1999/xlink"><g><rect height="8" style="fill:#58ea8b;" width="60" x="20.644" y="87.453"/><clipPath id="_clip1"><rect height="8" width="60" x="20.644" y="87.453"/></clipPath><g clip-path="url(#_clip1)"><rect height="8" style="fill:#020000;fill-opacity:0.25;" width="30.6" x="50.044" y="87.453"/></g><path d="M54.044,80.053l0,-36.6l17.9,15.4l5.2,-6.1l-24.5,-21c-1.5,-1.3 -3.7,-1.3 -5.2,0l-24.5,21l5.2,6.1l17.9,-15.4l0,36.5l8,0l0,0.1Z" style="fill:#58ea8b;fill-rule:nonzero;"/><clipPath id="_clip2"><path clip-rule="nonzero" d="M54.044,80.053l0,-36.6l17.9,15.4l5.2,-6.1l-24.5,-21c-1.5,-1.3 -3.7,-1.3 -5.2,0l-24.5,21l5.2,6.1l17.9,-15.4l0,36.5l8,0l0,0.1Z"/></clipPath><g clip-path="url(#_clip2)"><rect height="97" style="fill:#020000;fill-opacity:0.25;" width="50" x="50.044" y="10.615"/></g></g><path d="M22.484,93.526l0.078,-4.04l2.631,0l-2.709,4.04Z" style="fill:#fff;fill-opacity:0.5;fill-rule:nonzero;"/><path d="M28.283,56.997l-3.444,-4.028l2.354,-1.961l1.09,5.989Z" style="fill:#fff;fill-opacity:0.5;fill-rule:nonzero;"/><path d="M42.983,37.006c0,0 4.051,-3.144 5.535,-4.296c0.1,-0.078 0.236,-0.092 0.35,-0.036c0.114,0.056 0.186,0.172 0.186,0.299c0,0.47 0,1.013 0,1.013l-6.071,3.02Z" style="fill:#fff;fill-opacity:0.5;fill-rule:nonzero;"/></svg>