<?xml version="1.0" ?><svg style="enable-background:new 0 0 64 64;" version="1.1" viewBox="0 0 64 64" xml:space="preserve" xmlns="http://www.w3.org/2000/svg" xmlns:xlink="http://www.w3.org/1999/xlink"><style type="text/css">
	.st0{fill:#FFEEA9;}
	.st1{fill:#D32436;}
	.st2{fill:#8DD1D3;}
	.st3{fill:#330D00;}
	.st4{fill:none;stroke:#330D00;stroke-linecap:round;stroke-linejoin:round;stroke-miterlimit:10;}
</style><g id="_x34_0-Id_Card"/><g id="_x33_9-Formula"/><g id="_x33_8-Elbow"/><g id="_x33_7-Diploma"/><g id="_x33_6-Laptop"/><g id="_x33_5-Brush"/><g id="_x33_4-Baseball"/><g id="_x33_3-Student"/><g id="_x33_2-Highlighter"/><g id="_x33_1-Ruler"/><g id="_x33_0-Caliper"/><g id="_x32_9-Ruler_Elbow"/><g id="_x32_8-Abacus"/><g id="_x32_7-Id_Card"/><g id="_x32_6-Eraser"/><g id="_x32_5-Pencil"/><g id="_x32_4-Ink"/><g id="_x32_3-Graduation_Cap"/><g id="_x32_2-_Sling_Bag"/><g id="_x32_1-Rugby_Ball"/><g id="_x32_0-Clock"/><g id="_x31_9-Certificate"/><g id="_x31_8-Idea"/><g id="_x31_7-Bookshelf"/><g id="_x31_6-Formula"/><g id="_x31_5-Bell"/><g id="_x31_4-Magnifying_Glass"/><g id="_x31_3-Calculator"/><g id="_x31_2-Eyeglasses"><g><g><rect class="st1" height="15.1" width="20.1" x="7" y="31.7"/></g><g><rect class="st1" height="15.1" width="20.1" x="37.2" y="31.7"/></g><g><path class="st3" d="M59.7,16.9c-0.1-0.5-0.6-0.9-1.1-0.9h-4.8c-0.6,0-1.1,0.5-1.1,1.1s0.5,1.1,1.1,1.1h3.9l3.9,19.9h-3.1v-6.4     c0-0.6-0.5-1.1-1.1-1.1H37.2c-0.6,0-1.1,0.5-1.1,1.1v5.9c-2.5-0.8-5.3-0.8-7.9,0v-5.9c0-0.6-0.5-1.1-1.1-1.1H7     c-0.6,0-1.1,0.5-1.1,1.1v6.4H2.5l3.9-19.9h3.9c0.6,0,1.1-0.5,1.1-1.1S10.9,16,10.3,16H5.4c-0.5,0-1,0.4-1.1,0.9L0,39.1     C0,39.4,0,39.7,0.3,40c0.2,0.3,0.5,0.4,0.9,0.4h4.8v6.4C5.9,47.5,6.4,48,7,48h20.1c0.6,0,1.1-0.5,1.1-1.1V40c2.5-1,5.3-1,7.9,0     v6.8c0,0.6,0.5,1.1,1.1,1.1h20.1c0.6,0,1.1-0.5,1.1-1.1v-6.4h4.5c0.3,0,0.6-0.1,0.9-0.4c0.2-0.3,0.3-0.6,0.2-0.9L59.7,16.9z      M26,45.7H8.1V32.9H26V45.7z M56.2,45.7H38.3V32.9h17.9V45.7z"/></g></g></g><g id="_x31_1-Bus"/><g id="_x31_0-Trophy"/><g id="_x39_-Globe"/><g id="_x38_-Basket_Ball"/><g id="_x37_-Pen"/><g id="_x36_-Board"/><g id="_x35_-Bag"/><g id="_x34_-Exam"/><g id="_x33_-Book"/><g id="_x32_-Ruler"/><g id="_x31_-Building"/></svg>