<?xml version="1.0" ?><svg style="enable-background:new 0 0 512 512;" version="1.1" viewBox="0 0 512 512" xml:space="preserve" xmlns="http://www.w3.org/2000/svg" xmlns:xlink="http://www.w3.org/1999/xlink"><style type="text/css">
	.st0{fill-rule:evenodd;clip-rule:evenodd;}
</style><g id="LinkedIn"/><g id="Twitter"/><g id="Youtube_2"/><g id="Tumblr"/><g id="Facebook"/><g id="Instagram"/><g id="Youtube"/><g id="Whatsapp"/><g id="Reddit"/><g id="Snapachat"/><g id="Pinterest"/><g id="Google_x2B_"/><g id="GitHub"/><g id="Dribbble"/><g id="Deviant_Art"/><g id="Behance"><g><path d="M243.1,203.8c4.7-2.3,7.4-6,7.4-11.2c0-10-7-13.7-17.4-13.7h-25.6V233h26.3c9.8,0,19.2-4.7,19.2-15.6    C253.1,210.7,249.7,205.6,243.1,203.8z M218.5,187.9h12.2c4.3,0,8.2,1,8.2,6.2c0,4.5-3.1,6.4-7.3,6.4h-13.1V187.9z M232.3,224.3    h-13.8v-14.8h14c5.1,0,8.3,2.2,8.3,7.7C240.8,222.7,237,224.3,232.3,224.3z"/><rect height="7.3" width="21.8" x="266" y="182.5"/><path d="M276,193c-11.9,0-20.2,8.9-20.2,20.6c0,12.1,7.8,20.5,20.2,20.5c8.9,0,15.9-4.8,18.9-14h-9.5c-0.7,2.4-4.7,6-9,6    c-6,0-9.3-4.3-9.6-11.1h28.4C295.9,202.9,289.4,193,276,193z M266.7,207.8c0.1-3,2.1-6.8,9-6.8c5.3,0,7.6,1.4,8.6,6.8H266.7z"/><path d="M254.7,127.2c-43.8,0-79.2,35.5-79.2,79.2s35.5,79.2,79.2,79.2s79.2-35.5,79.2-79.2S298.4,127.2,254.7,127.2z     M254.7,282.3c-41.9,0-75.9-34-75.9-75.9c0-41.8,34-75.9,75.9-75.9c41.9,0,75.9,34.1,75.9,75.9    C330.6,248.3,296.5,282.3,254.7,282.3z"/><path d="M254.7,123.9c-45.5,0-82.5,37-82.5,82.5c0,45.5,37,82.5,82.5,82.5c45.5,0,82.5-37,82.5-82.5    C337.2,160.9,300.2,123.9,254.7,123.9z M254.7,282.3c-41.9,0-75.9-34-75.9-75.9c0-41.8,34-75.9,75.9-75.9    c41.9,0,75.9,34.1,75.9,75.9C330.6,248.3,296.5,282.3,254.7,282.3z"/><path d="M254.7,491.9c-1.8,0-3.3-1.5-3.3-3.3V483c0-1.8,1.5-3.3,3.3-3.3c1.8,0,3.3,1.5,3.3,3.3v5.6    C258,490.4,256.5,491.9,254.7,491.9z"/><path d="M254.7,466.4c-1.8,0-3.3-1.5-3.3-3.3v-20.3c0-1.8,1.5-3.3,3.3-3.3c1.8,0,3.3,1.5,3.3,3.3v20.3    C258,465,256.5,466.4,254.7,466.4z"/><path d="M254.7,419.8c-1.8,0-3.3-1.5-3.3-3.3V346c0-1.8,1.5-3.3,3.3-3.3c1.8,0,3.3,1.5,3.3,3.3v70.4    C258,418.3,256.5,419.8,254.7,419.8z"/><path d="M254.7,332.5c-1.8,0-3.3-1.5-3.3-3.3v-8.8c0-1.8,1.5-3.3,3.3-3.3c1.8,0,3.3,1.5,3.3,3.3v8.8    C258,331,256.5,332.5,254.7,332.5z"/><path d="M295.1,426.7c-1.8,0-3.3-1.5-3.3-3.3V403c0-1.8,1.5-3.3,3.3-3.3c1.8,0,3.3,1.5,3.3,3.3v20.3    C298.4,425.2,296.9,426.7,295.1,426.7z"/><path d="M295.1,380c-1.8,0-3.3-1.5-3.3-3.3v-43.9c0-1.8,1.5-3.3,3.3-3.3c1.8,0,3.3,1.5,3.3,3.3v43.9    C298.4,378.5,296.9,380,295.1,380z"/><path d="M295.1,319.2c-1.8,0-3.3-1.5-3.3-3.3V307c0-1.8,1.5-3.3,3.3-3.3c1.8,0,3.3,1.5,3.3,3.3v8.8    C298.4,317.7,296.9,319.2,295.1,319.2z"/><path d="M295.1,448.4c-1.8,0-3.3-1.5-3.3-3.3v-1.9c0-1.8,1.5-3.3,3.3-3.3c1.8,0,3.3,1.5,3.3,3.3v1.9    C298.4,446.9,296.9,448.4,295.1,448.4z"/><path d="M214.3,380.8c-1.8,0-3.3-1.5-3.3-3.3V307c0-1.8,1.5-3.3,3.3-3.3c1.8,0,3.3,1.5,3.3,3.3v70.4    C217.6,379.3,216.1,380.8,214.3,380.8z"/><path d="M214.3,406.5c-1.8,0-3.3-1.5-3.3-3.3v-8.8c0-1.8,1.5-3.3,3.3-3.3c1.8,0,3.3,1.5,3.3,3.3v8.8    C217.6,405,216.1,406.5,214.3,406.5z"/><g><circle cx="227.9" cy="32.4" r="12.3"/><circle cx="396.3" cy="229.2" r="12.3"/><circle cx="115.7" cy="229.2" r="12.3"/><path d="M363.7,86.4c-1.8,0-3.3-1.5-3.3-3.3v-8.9c0-1.8,1.5-3.3,3.3-3.3c1.8,0,3.3,1.5,3.3,3.3v8.9     C367.1,85,365.6,86.4,363.7,86.4z"/><path d="M377.8,92.2c-0.9,0-1.7-0.3-2.3-1c-1.3-1.3-1.3-3.4,0-4.7l6.3-6.3c1.3-1.3,3.4-1.3,4.7,0s1.3,3.4,0,4.7l-6.3,6.3     C379.5,91.9,378.6,92.2,377.8,92.2z"/><path d="M392.5,106.3h-8.7c-1.8,0-3.3-1.5-3.3-3.3c0-1.8,1.5-3.3,3.3-3.3h8.7c1.8,0,3.3,1.5,3.3,3.3     C395.8,104.8,394.3,106.3,392.5,106.3z"/><path d="M384.1,126.6c-0.8,0-1.7-0.3-2.3-1l-6.3-6.3c-1.3-1.3-1.3-3.4,0-4.7c1.3-1.3,3.4-1.3,4.7,0l6.3,6.3     c1.3,1.3,1.3,3.4,0,4.7C385.7,126.2,384.9,126.6,384.1,126.6z"/><path d="M363.7,135c-1.8,0-3.3-1.5-3.3-3.3v-8.7c0-1.8,1.5-3.3,3.3-3.3c1.8,0,3.3,1.5,3.3,3.3v8.7     C367.1,133.5,365.6,135,363.7,135z"/><path d="M343.4,126.6c-0.9,0-1.7-0.3-2.3-1c-1.3-1.3-1.3-3.4,0-4.7l6.3-6.3c1.3-1.3,3.4-1.3,4.7,0c1.3,1.3,1.3,3.4,0,4.7     l-6.3,6.3C345.1,126.2,344.3,126.6,343.4,126.6z"/><path d="M343.8,106.3H335c-1.8,0-3.3-1.5-3.3-3.3c0-1.8,1.5-3.3,3.3-3.3h8.7c1.8,0,3.3,1.5,3.3,3.3     C347.1,104.8,345.6,106.3,343.8,106.3z"/><path d="M349.7,92.2c-0.9,0-1.7-0.3-2.3-1l-6.3-6.3c-1.3-1.3-1.3-3.4,0-4.7c1.3-1.3,3.4-1.3,4.7,0l6.3,6.3c1.3,1.3,1.3,3.4,0,4.7     C351.4,91.9,350.6,92.2,349.7,92.2z"/><path d="M147.2,103.1c-1.8,0-3.3-1.5-3.3-3.3v-8.2c0-1.8,1.5-3.3,3.3-3.3c1.8,0,3.3,1.5,3.3,3.3v8.2     C150.5,101.6,149,103.1,147.2,103.1z"/><path d="M147.2,139.8c-1.8,0-3.3-1.5-3.3-3.3v-8.2c0-1.8,1.5-3.3,3.3-3.3c1.8,0,3.3,1.5,3.3,3.3v8.2     C150.5,138.3,149,139.8,147.2,139.8z"/><path d="M169.7,117.3h-8.2c-1.8,0-3.3-1.5-3.3-3.3c0-1.8,1.5-3.3,3.3-3.3h8.2c1.8,0,3.3,1.5,3.3,3.3     C173,115.8,171.5,117.3,169.7,117.3z"/><path d="M133,117.3h-8.2c-1.8,0-3.3-1.5-3.3-3.3c0-1.8,1.5-3.3,3.3-3.3h8.2c1.8,0,3.3,1.5,3.3,3.3     C136.3,115.8,134.8,117.3,133,117.3z"/></g><path class="st0" d="M276,193c-11.9,0-20.2,8.9-20.2,20.6c0,12.1,7.8,20.5,20.2,20.5c8.9,0,15.9-4.8,18.9-14h-9.5    c-0.7,2.4-4.7,6-9,6c-6,0-9.3-4.3-9.6-11.1h28.4C295.9,202.9,289.4,193,276,193z M266.7,207.8c0.1-3,2.1-6.8,9-6.8    c5.3,0,7.6,1.4,8.6,6.8H266.7z M266,182.5v7.3h21.8v-7.3H266z M243.1,203.8c4.7-2.3,7.4-6,7.4-11.2c0-10-7-13.7-17.4-13.7h-25.6    V233h26.3c9.8,0,19.2-4.7,19.2-15.6C253.1,210.7,249.7,205.6,243.1,203.8z M218.5,187.9h12.2c4.3,0,8.2,1,8.2,6.2    c0,4.5-3.1,6.4-7.3,6.4h-13.1V187.9z M232.3,224.3h-13.8v-14.8h14c5.1,0,8.3,2.2,8.3,7.7C240.8,222.7,237,224.3,232.3,224.3z" id="Behance_9_"/></g></g></svg>