<?xml version="1.0" ?><svg style="enable-background:new 0 0 512 512;" version="1.1" viewBox="0 0 512 512" xml:space="preserve" xmlns="http://www.w3.org/2000/svg" xmlns:xlink="http://www.w3.org/1999/xlink"><style type="text/css">
	.st0{fill-rule:evenodd;clip-rule:evenodd;}
</style><g id="LinkedIn"/><g id="Twitter"/><g id="Youtube_2"/><g id="Tumblr"/><g id="Facebook"/><g id="Instagram"/><g id="Youtube"><g><g><circle cx="227.9" cy="31.5" r="12.3"/><circle cx="396.3" cy="228.4" r="12.3"/><circle cx="115.7" cy="228.4" r="12.3"/><path d="M363.7,85.6c-1.8,0-3.3-1.5-3.3-3.3v-8.9c0-1.8,1.5-3.3,3.3-3.3c1.8,0,3.3,1.5,3.3,3.3v8.9     C367.1,84.1,365.6,85.6,363.7,85.6z"/><path d="M377.8,91.4c-0.9,0-1.7-0.3-2.3-1c-1.3-1.3-1.3-3.4,0-4.7l6.3-6.3c1.3-1.3,3.4-1.3,4.7,0c1.3,1.3,1.3,3.4,0,4.7l-6.3,6.3     C379.5,91.1,378.6,91.4,377.8,91.4z"/><path d="M392.5,105.4h-8.7c-1.8,0-3.3-1.5-3.3-3.3c0-1.8,1.5-3.3,3.3-3.3h8.7c1.8,0,3.3,1.5,3.3,3.3     C395.8,104,394.3,105.4,392.5,105.4z"/><path d="M384.1,125.7c-0.8,0-1.7-0.3-2.3-1l-6.3-6.3c-1.3-1.3-1.3-3.4,0-4.7c1.3-1.3,3.4-1.3,4.7,0l6.3,6.3     c1.3,1.3,1.3,3.4,0,4.7C385.7,125.4,384.9,125.7,384.1,125.7z"/><path d="M363.7,134.2c-1.8,0-3.3-1.5-3.3-3.3v-8.7c0-1.8,1.5-3.3,3.3-3.3c1.8,0,3.3,1.5,3.3,3.3v8.7     C367.1,132.7,365.6,134.2,363.7,134.2z"/><path d="M343.4,125.7c-0.9,0-1.7-0.3-2.3-1c-1.3-1.3-1.3-3.4,0-4.7l6.3-6.3c1.3-1.3,3.4-1.3,4.7,0c1.3,1.3,1.3,3.4,0,4.7     l-6.3,6.3C345.1,125.4,344.3,125.7,343.4,125.7z"/><path d="M343.8,105.4H335c-1.8,0-3.3-1.5-3.3-3.3c0-1.8,1.5-3.3,3.3-3.3h8.7c1.8,0,3.3,1.5,3.3,3.3     C347.1,104,345.6,105.4,343.8,105.4z"/><path d="M349.7,91.4c-0.9,0-1.7-0.3-2.3-1l-6.3-6.3c-1.3-1.3-1.3-3.4,0-4.7c1.3-1.3,3.4-1.3,4.7,0l6.3,6.3c1.3,1.3,1.3,3.4,0,4.7     C351.4,91.1,350.6,91.4,349.7,91.4z"/><path d="M147.2,102.3c-1.8,0-3.3-1.5-3.3-3.3v-8.2c0-1.8,1.5-3.3,3.3-3.3c1.8,0,3.3,1.5,3.3,3.3V99     C150.5,100.8,149,102.3,147.2,102.3z"/><path d="M147.2,138.9c-1.8,0-3.3-1.5-3.3-3.3v-8.2c0-1.8,1.5-3.3,3.3-3.3c1.8,0,3.3,1.5,3.3,3.3v8.2     C150.5,137.4,149,138.9,147.2,138.9z"/><path d="M169.7,116.5h-8.2c-1.8,0-3.3-1.5-3.3-3.3c0-1.8,1.5-3.3,3.3-3.3h8.2c1.8,0,3.3,1.5,3.3,3.3     C173,115,171.5,116.5,169.7,116.5z"/><path d="M133,116.5h-8.2c-1.8,0-3.3-1.5-3.3-3.3c0-1.8,1.5-3.3,3.3-3.3h8.2c1.8,0,3.3,1.5,3.3,3.3     C136.3,115,134.8,116.5,133,116.5z"/></g><path d="M294.1,179.4H236c-6.4,0-11.6,5.2-11.6,11.6v32.5c0,6.4,5.2,11.6,11.6,11.6h58.1c6.4,0,11.6-5.2,11.6-11.6V191    C305.7,184.6,300.5,179.4,294.1,179.4z M256.6,217.3v-22.8l22,11.5L256.6,217.3z M294.1,179.4H236c-6.4,0-11.6,5.2-11.6,11.6v32.5    c0,6.4,5.2,11.6,11.6,11.6h58.1c6.4,0,11.6-5.2,11.6-11.6V191C305.7,184.6,300.5,179.4,294.1,179.4z M256.6,217.3v-22.8l22,11.5    L256.6,217.3z M294.1,179.4H236c-6.4,0-11.6,5.2-11.6,11.6v32.5c0,6.4,5.2,11.6,11.6,11.6h58.1c6.4,0,11.6-5.2,11.6-11.6V191    C305.7,184.6,300.5,179.4,294.1,179.4z M256.6,217.3v-22.8l22,11.5L256.6,217.3z M294.1,179.4H236c-6.4,0-11.6,5.2-11.6,11.6v32.5    c0,6.4,5.2,11.6,11.6,11.6h58.1c6.4,0,11.6-5.2,11.6-11.6V191C305.7,184.6,300.5,179.4,294.1,179.4z M256.6,217.3v-22.8l22,11.5    L256.6,217.3z M294.1,179.4H236c-6.4,0-11.6,5.2-11.6,11.6v32.5c0,6.4,5.2,11.6,11.6,11.6h58.1c6.4,0,11.6-5.2,11.6-11.6V191    C305.7,184.6,300.5,179.4,294.1,179.4z M256.6,217.3v-22.8l22,11.5L256.6,217.3z M294.1,179.4H236c-6.4,0-11.6,5.2-11.6,11.6v32.5    c0,6.4,5.2,11.6,11.6,11.6h58.1c6.4,0,11.6-5.2,11.6-11.6V191C305.7,184.6,300.5,179.4,294.1,179.4z M256.6,217.3v-22.8l22,11.5    L256.6,217.3z M294.1,179.4H236c-6.4,0-11.6,5.2-11.6,11.6v32.5c0,6.4,5.2,11.6,11.6,11.6h58.1c6.4,0,11.6-5.2,11.6-11.6V191    C305.7,184.6,300.5,179.4,294.1,179.4z M256.6,217.3v-22.8l22,11.5L256.6,217.3z M294.1,179.4H236c-6.4,0-11.6,5.2-11.6,11.6v32.5    c0,6.4,5.2,11.6,11.6,11.6h58.1c6.4,0,11.6-5.2,11.6-11.6V191C305.7,184.6,300.5,179.4,294.1,179.4z M256.6,217.3v-22.8l22,11.5    L256.6,217.3z M294.1,179.4H236c-6.4,0-11.6,5.2-11.6,11.6v32.5c0,6.4,5.2,11.6,11.6,11.6h58.1c6.4,0,11.6-5.2,11.6-11.6V191    C305.7,184.6,300.5,179.4,294.1,179.4z M256.6,217.3v-22.8l22,11.5L256.6,217.3z M294.1,179.4H236c-6.4,0-11.6,5.2-11.6,11.6v32.5    c0,6.4,5.2,11.6,11.6,11.6h58.1c6.4,0,11.6-5.2,11.6-11.6V191C305.7,184.6,300.5,179.4,294.1,179.4z M256.6,217.3v-22.8l22,11.5    L256.6,217.3z M294.1,179.4H236c-6.4,0-11.6,5.2-11.6,11.6v32.5c0,6.4,5.2,11.6,11.6,11.6h58.1c6.4,0,11.6-5.2,11.6-11.6V191    C305.7,184.6,300.5,179.4,294.1,179.4z M256.6,217.3v-22.8l22,11.5L256.6,217.3z M294.1,179.4H236c-6.4,0-11.6,5.2-11.6,11.6v32.5    c0,6.4,5.2,11.6,11.6,11.6h58.1c6.4,0,11.6-5.2,11.6-11.6V191C305.7,184.6,300.5,179.4,294.1,179.4z M256.6,217.3v-22.8l22,11.5    L256.6,217.3z M265,128.1c-43.8,0-79.2,35.5-79.2,79.2s35.5,79.2,79.2,79.2s79.2-35.5,79.2-79.2S308.8,128.1,265,128.1z     M265,283.2c-41.9,0-75.9-34-75.9-75.9c0-41.8,34-75.9,75.9-75.9c41.9,0,75.9,34,75.9,75.9C340.9,249.1,306.9,283.2,265,283.2z     M294.1,179.4H236c-6.4,0-11.6,5.2-11.6,11.6v32.5c0,6.4,5.2,11.6,11.6,11.6h58.1c6.4,0,11.6-5.2,11.6-11.6V191    C305.7,184.6,300.5,179.4,294.1,179.4z M256.6,217.3v-22.8l22,11.5L256.6,217.3z M294.1,179.4H236c-6.4,0-11.6,5.2-11.6,11.6v32.5    c0,6.4,5.2,11.6,11.6,11.6h58.1c6.4,0,11.6-5.2,11.6-11.6V191C305.7,184.6,300.5,179.4,294.1,179.4z M256.6,217.3v-22.8l22,11.5    L256.6,217.3z M294.1,179.4H236c-6.4,0-11.6,5.2-11.6,11.6v32.5c0,6.4,5.2,11.6,11.6,11.6h58.1c6.4,0,11.6-5.2,11.6-11.6V191    C305.7,184.6,300.5,179.4,294.1,179.4z M256.6,217.3v-22.8l22,11.5L256.6,217.3z M294.1,179.4H236c-6.4,0-11.6,5.2-11.6,11.6v32.5    c0,6.4,5.2,11.6,11.6,11.6h58.1c6.4,0,11.6-5.2,11.6-11.6V191C305.7,184.6,300.5,179.4,294.1,179.4z M256.6,217.3v-22.8l22,11.5    L256.6,217.3z M294.1,179.4H236c-6.4,0-11.6,5.2-11.6,11.6v32.5c0,6.4,5.2,11.6,11.6,11.6h58.1c6.4,0,11.6-5.2,11.6-11.6V191    C305.7,184.6,300.5,179.4,294.1,179.4z M256.6,217.3v-22.8l22,11.5L256.6,217.3z M294.1,179.4H236c-6.4,0-11.6,5.2-11.6,11.6v32.5    c0,6.4,5.2,11.6,11.6,11.6h58.1c6.4,0,11.6-5.2,11.6-11.6V191C305.7,184.6,300.5,179.4,294.1,179.4z M256.6,217.3v-22.8l22,11.5    L256.6,217.3z M294.1,179.4H236c-6.4,0-11.6,5.2-11.6,11.6v32.5c0,6.4,5.2,11.6,11.6,11.6h58.1c6.4,0,11.6-5.2,11.6-11.6V191    C305.7,184.6,300.5,179.4,294.1,179.4z M256.6,217.3v-22.8l22,11.5L256.6,217.3z M294.1,179.4H236c-6.4,0-11.6,5.2-11.6,11.6v32.5    c0,6.4,5.2,11.6,11.6,11.6h58.1c6.4,0,11.6-5.2,11.6-11.6V191C305.7,184.6,300.5,179.4,294.1,179.4z M256.6,217.3v-22.8l22,11.5    L256.6,217.3z M294.1,179.4H236c-6.4,0-11.6,5.2-11.6,11.6v32.5c0,6.4,5.2,11.6,11.6,11.6h58.1c6.4,0,11.6-5.2,11.6-11.6V191    C305.7,184.6,300.5,179.4,294.1,179.4z M256.6,217.3v-22.8l22,11.5L256.6,217.3z M294.1,179.4H236c-6.4,0-11.6,5.2-11.6,11.6v32.5    c0,6.4,5.2,11.6,11.6,11.6h58.1c6.4,0,11.6-5.2,11.6-11.6V191C305.7,184.6,300.5,179.4,294.1,179.4z M256.6,217.3v-22.8l22,11.5    L256.6,217.3z M294.1,179.4H236c-6.4,0-11.6,5.2-11.6,11.6v32.5c0,6.4,5.2,11.6,11.6,11.6h58.1c6.4,0,11.6-5.2,11.6-11.6V191    C305.7,184.6,300.5,179.4,294.1,179.4z M256.6,217.3v-22.8l22,11.5L256.6,217.3z M294.1,179.4H236c-6.4,0-11.6,5.2-11.6,11.6v32.5    c0,6.4,5.2,11.6,11.6,11.6h58.1c6.4,0,11.6-5.2,11.6-11.6V191C305.7,184.6,300.5,179.4,294.1,179.4z M256.6,217.3v-22.8l22,11.5    L256.6,217.3z M294.1,179.4H236c-6.4,0-11.6,5.2-11.6,11.6v32.5c0,6.4,5.2,11.6,11.6,11.6h58.1c6.4,0,11.6-5.2,11.6-11.6V191    C305.7,184.6,300.5,179.4,294.1,179.4z M256.6,217.3v-22.8l22,11.5L256.6,217.3z"/><path d="M265,124.8c-45.5,0-82.5,37-82.5,82.5c0,45.5,37,82.5,82.5,82.5c45.5,0,82.5-37,82.5-82.5    C347.6,161.8,310.5,124.8,265,124.8z M265,283.2c-41.9,0-75.9-34-75.9-75.9c0-41.8,34-75.9,75.9-75.9c41.9,0,75.9,34,75.9,75.9    C340.9,249.1,306.9,283.2,265,283.2z"/><path d="M265,492.7c-1.8,0-3.3-1.5-3.3-3.3v-5.6c0-1.8,1.5-3.3,3.3-3.3c1.8,0,3.3,1.5,3.3,3.3v5.6    C268.4,491.2,266.9,492.7,265,492.7z"/><path d="M265,467.3c-1.8,0-3.3-1.5-3.3-3.3v-20.3c0-1.8,1.5-3.3,3.3-3.3c1.8,0,3.3,1.5,3.3,3.3V464    C268.4,465.8,266.9,467.3,265,467.3z"/><path d="M265,420.6c-1.8,0-3.3-1.5-3.3-3.3v-70.4c0-1.8,1.5-3.3,3.3-3.3c1.8,0,3.3,1.5,3.3,3.3v70.4    C268.4,419.1,266.9,420.6,265,420.6z"/><path d="M265,333.3c-1.8,0-3.3-1.5-3.3-3.3v-8.8c0-1.8,1.5-3.3,3.3-3.3c1.8,0,3.3,1.5,3.3,3.3v8.8    C268.4,331.8,266.9,333.3,265,333.3z"/><path d="M305.5,427.5c-1.8,0-3.3-1.5-3.3-3.3v-20.3c0-1.8,1.5-3.3,3.3-3.3c1.8,0,3.3,1.5,3.3,3.3v20.3    C308.8,426,307.3,427.5,305.5,427.5z"/><path d="M305.5,380.8c-1.8,0-3.3-1.5-3.3-3.3v-43.9c0-1.8,1.5-3.3,3.3-3.3c1.8,0,3.3,1.5,3.3,3.3v43.9    C308.8,379.3,307.3,380.8,305.5,380.8z"/><path d="M305.5,320c-1.8,0-3.3-1.5-3.3-3.3v-8.8c0-1.8,1.5-3.3,3.3-3.3c1.8,0,3.3,1.5,3.3,3.3v8.8    C308.8,318.5,307.3,320,305.5,320z"/><path d="M305.5,449.2c-1.8,0-3.3-1.5-3.3-3.3V444c0-1.8,1.5-3.3,3.3-3.3c1.8,0,3.3,1.5,3.3,3.3v1.9    C308.8,447.7,307.3,449.2,305.5,449.2z"/><path d="M224.6,381.6c-1.8,0-3.3-1.5-3.3-3.3v-70.4c0-1.8,1.5-3.3,3.3-3.3c1.8,0,3.3,1.5,3.3,3.3v70.4    C227.9,380.2,226.4,381.6,224.6,381.6z"/><path d="M224.6,407.3c-1.8,0-3.3-1.5-3.3-3.3v-8.8c0-1.8,1.5-3.3,3.3-3.3c1.8,0,3.3,1.5,3.3,3.3v8.8    C227.9,405.8,226.4,407.3,224.6,407.3z"/><path d="M294.1,179.4H236c-6.4,0-11.6,5.2-11.6,11.6v32.5c0,6.4,5.2,11.6,11.6,11.6h58.1    c6.4,0,11.6-5.2,11.6-11.6V191C305.7,184.6,300.5,179.4,294.1,179.4z M256.6,217.3v-22.8l22,11.5L256.6,217.3z" id="youtube_4_"/></g></g><g id="Whatsapp"/><g id="Reddit"/><g id="Snapachat"/><g id="Pinterest"/><g id="Google_x2B_"/><g id="GitHub"/><g id="Dribbble"/><g id="Deviant_Art"/><g id="Behance"/></svg>