<?xml version="1.0" ?><svg enable-background="new 0 0 64 64" height="64px" version="1.1" viewBox="0 0 64 64" width="64px" xml:space="preserve" xmlns="http://www.w3.org/2000/svg" xmlns:xlink="http://www.w3.org/1999/xlink"><g id="Guide"/><g id="Layer_1"><g><path d="M49.7314453,40.2290039C54.0151367,40.2290039,57.5,34.8271484,57.5,28.1875    s-3.4848633-12.0415039-7.7685547-12.0415039h-8.4228516h-8.1845703h-8.4223633    c-4.2836914,0-7.769043,5.4018555-7.769043,12.0415039c0,3.3448486,0.8859253,6.373291,2.3114624,8.5575562l-1.8036499,6.5386353    c-0.0737305,0.2661133,0.0830078,0.5415039,0.3491211,0.6147461c0.0444336,0.012207,0.0888672,0.0180664,0.1333008,0.0180664    c0.2192383,0,0.4204102-0.1455078,0.4814453-0.3671875l1.5985107-5.7950439    c1.0944214,1.2944946,2.4119263,2.1558228,3.850647,2.399353l3.2854004,5.2160034l-5.0993042,8.0952148    c-0.1474609,0.2338867-0.0771484,0.5424805,0.15625,0.6894531c0.0830078,0.0522461,0.1748047,0.0771484,0.2661133,0.0771484    c0.1660156,0,0.3286133-0.0825195,0.4233398-0.2333984l4.8443604-7.6905518l4.8441162,7.6905518    c0.0947266,0.1508789,0.2573242,0.2333984,0.4233398,0.2333984c0.0908203,0,0.1831055-0.0249023,0.2661133-0.0771484    c0.2333984-0.1469727,0.3037109-0.4555664,0.15625-0.6894531l-5.098999-8.0952148l3.2381592-5.140625h1.5654297h7.6831665    l3.2380371,5.1404419l-5.0994263,8.0953979c-0.1474609,0.2338867-0.0771484,0.5424805,0.15625,0.6894531    c0.0830078,0.0522461,0.1748047,0.0771484,0.2661133,0.0771484c0.1660156,0,0.3286133-0.0825195,0.4233398-0.2333984    l4.8444824-7.6906738l4.8444824,7.6906738c0.0947266,0.1508789,0.2573242,0.2333984,0.4233398,0.2333984    c0.0913086,0,0.1831055-0.0249023,0.2661133-0.0771484c0.2333984-0.1469727,0.3037109-0.4555664,0.15625-0.6894531    l-5.0993652-8.0953979l3.2380371-5.1404419H49.7314453z M49.7314453,17.1459961    C53.4638672,17.1459961,56.5,22.0991211,56.5,28.1875s-3.0361328,11.0415039-6.7685547,11.0415039h-0.6366577l5.234314-8.3095703    c0.1474609-0.2338867,0.0771484-0.5424805-0.15625-0.6894531c-0.2329102-0.1459961-0.5419922-0.0776367-0.6894531,0.15625    l-5.5701904,8.8427734h-3.513855c2.7492676-1.8563232,4.6777954-6.1044312,4.6777954-11.0415039    c0-4.9370117-1.9284058-9.1851196-4.6776733-11.0415039H49.7314453z M20.3231812,36.5929565l1.810791-6.5645142    c0.0848389,0.0076904,0.1690063,0.0345459,0.2537231,0.0345459c0.480957,0,0.956543-0.1245117,1.3862305-0.3686523    c0.6547852-0.3710938,1.125-0.9755859,1.3251953-1.7011719c0.2001953-0.7250977,0.105957-1.4853516-0.265625-2.1396484    c-0.3710938-0.6542969-0.9755859-1.125-1.7011719-1.3251953c-1.4975586-0.4145508-3.0517578,0.4682617-3.465332,1.9667969    c-0.2001953,0.7255859-0.105957,1.4853516,0.265625,2.1401367c0.2877197,0.5066528,0.7174072,0.8990479,1.232605,1.1451416    l-1.5591431,5.6522827c-1.0388184-1.9413452-1.6734619-4.4719849-1.6734619-7.2451782    c0-6.0883789,3.0366211-11.0415039,6.769043-11.0415039s6.7685547,4.953125,6.7685547,11.0415039    s-3.0361328,11.0415039-6.7685547,11.0415039C23.0322266,39.2290039,21.5047607,38.2331543,20.3231812,36.5929565z     M21.8999023,28.996582c-0.4677734-0.1293945-0.8579102-0.4326172-1.097168-0.8549805    c-0.2397461-0.4223633-0.3007812-0.9125977-0.171875-1.3803711c0.222168-0.8051758,0.9555664-1.3344727,1.7529297-1.3344727    c0.159668,0,0.3217773,0.0209961,0.4829102,0.0654297c0.4677734,0.1293945,0.8579102,0.4326172,1.097168,0.8549805    c0.2397461,0.421875,0.3007812,0.9121094,0.1713867,1.3798828v0.0004883    c-0.1293945,0.4677734-0.4326172,0.8579102-0.8549805,1.0976562C22.8574219,29.0654297,22.3666992,29.125,21.8999023,28.996582z     M27.7296753,44.4317017l-2.6472168-4.2026978h5.2945557L27.7296753,44.4317017z M32.1885376,39.2290039l5.234314-8.3095703    c0.1474609-0.2338867,0.0771484-0.5424805-0.15625-0.6894531c-0.2333984-0.1459961-0.5419922-0.0776367-0.6894531,0.15625    l-5.5701904,8.8427734h-3.2061768c0.0323486-0.0218506,0.0610352-0.0533447,0.0931396-0.0758667    c0.2666016-0.1871948,0.5236816-0.3989868,0.7732544-0.6300049c0.0703735-0.0651855,0.140625-0.1289673,0.2095337-0.1974487    c0.2753906-0.2733765,0.541626-0.5661621,0.7918701-0.8895874c0.0292969-0.0377808,0.0554199-0.0803833,0.0842896-0.1187744    c0.2235107-0.2975464,0.4336548-0.6165771,0.6340332-0.9509888c0.0564575-0.0942993,0.1125488-0.1878662,0.1671143-0.2849121    c0.2144775-0.3815308,0.4179688-0.7775879,0.6005249-1.1988525c0.0159912-0.0368652,0.0289917-0.0766602,0.0446777-0.1138306    c0.1662598-0.3930664,0.3145142-0.8046875,0.4507446-1.2277222c0.0379028-0.1176758,0.0748901-0.2348633,0.1103516-0.3546143    c0.1381836-0.46698,0.263855-0.9443359,0.3631592-1.4408569c0.0048218-0.0238647,0.0074463-0.0490112,0.012146-0.072937    c0.0932007-0.4766235,0.1619263-0.9683228,0.2166138-1.4676514c0.0145874-0.1331177,0.027832-0.2658691,0.0395508-0.4003906    c0.0462646-0.5303345,0.0784302-1.0673828,0.0784302-1.6170654s-0.0321655-1.086731-0.0784302-1.6170654    c-0.0117188-0.1345215-0.0249634-0.2672729-0.0395508-0.4003906c-0.0546875-0.4993286-0.1234131-0.9910278-0.2166138-1.4676514    c-0.0046997-0.0239258-0.0073242-0.0490723-0.012146-0.072937c-0.0993042-0.496582-0.2249756-0.9741211-0.3632202-1.4411011    c-0.0354004-0.1196289-0.0723877-0.2367554-0.1102295-0.354248c-0.1362915-0.4231567-0.2844849-0.8347168-0.4508057-1.2278442    c-0.015686-0.0371704-0.0286865-0.0769653-0.0446777-0.1138306c-0.1825562-0.4212646-0.3860474-0.8173218-0.6005249-1.1988525    c-0.0545654-0.0970459-0.1106567-0.1906128-0.1671143-0.2849121c-0.2003784-0.3344116-0.4105225-0.6534424-0.6340332-0.9509888    c-0.0288696-0.0383911-0.0549927-0.0809937-0.0842896-0.1187744c-0.2502441-0.3234253-0.5164795-0.6162109-0.7918701-0.8895874    c-0.0689087-0.0684814-0.1391602-0.1322632-0.2095337-0.1974487c-0.2498169-0.2312012-0.5070801-0.4432373-0.7739258-0.6305542    c-0.0318604-0.0223389-0.0603638-0.0535889-0.0924683-0.0753174h5.3232422c3.7324219,0,6.769043,4.953125,6.769043,11.0415039    s-3.0366211,11.0415039-6.769043,11.0415039H32.1885376z M40.8930664,28.1875    c0-4.9331055-1.9238281-9.1826172-4.6694336-11.0415039h5.0849609c3.7324219,0,6.7685547,4.953125,6.7685547,11.0415039    s-3.0361328,11.0415039-6.7685547,11.0415039h-5.0849609C38.9692383,37.3701172,40.8930664,33.1206055,40.8930664,28.1875z     M44.6359863,44.4315796l-2.6472168-4.2025757h5.2944946L44.6359863,44.4315796z" fill="#383838"/><path d="M10.4075317,24.7810669c0.5267334-0.2200317,0.9752197-0.5903931,1.288269-1.0818481    c0.4038086-0.6352539,0.5361328-1.3896484,0.3730469-2.1240234c0,0,0-0.0004883-0.0004883-0.0004883    c-0.3378906-1.5161133-1.847168-2.4755859-3.3618164-2.1381836c-0.7348633,0.1635742-1.3618164,0.6035156-1.7661133,1.2382812    c-0.4038086,0.6352539-0.5361328,1.3896484-0.3730469,2.1240234c0.1635742,0.7348633,0.6035156,1.3618164,1.2382812,1.765625    c0.4575195,0.2910156,0.9770508,0.440918,1.5068359,0.440918c0.0389404,0,0.078186-0.0112305,0.1172485-0.0128784    l3.0429077,13.678894c0.0522461,0.2333984,0.2587891,0.3916016,0.487793,0.3916016    c0.0361328,0,0.0722656-0.0039062,0.1088867-0.0117188c0.2695312-0.0600586,0.4394531-0.3271484,0.3798828-0.5966797    L10.4075317,24.7810669z M8.3422852,23.7207031c-0.409668-0.2607422-0.6933594-0.6650391-0.7983398-1.1386719    c-0.1054688-0.4741211-0.0200195-0.9609375,0.2407227-1.3706055c0.2602539-0.409668,0.6650391-0.6933594,1.1386719-0.7983398    c0.1323242-0.0297852,0.2646484-0.0439453,0.3950195-0.0439453c0.8325195,0,1.5854492,0.5771484,1.7739258,1.4228516    c0.1054688,0.4741211,0.0200195,0.9609375-0.2407227,1.3706055c-0.2602539,0.409668-0.6650391,0.6933594-1.1386719,0.7983398    C9.2363281,24.0668945,8.7514648,23.9804688,8.3422852,23.7207031z" fill="#383838"/><path d="M18.7729492,15.9125977c0.0957031,0.1479492,0.2563477,0.2285156,0.4204102,0.2285156    c0.0932617,0,0.1870117-0.0258789,0.2709961-0.0800781c0.2319336-0.1499023,0.2983398-0.4594727,0.1484375-0.6914062    l-3.4760742-5.3725586c-0.1503906-0.2319336-0.4599609-0.2983398-0.6914062-0.1484375    c-0.2319336,0.1499023-0.2983398,0.4594727-0.1484375,0.6914062L18.7729492,15.9125977z" fill="#383838"/><path d="M10.1274414,11.9277344c-0.2172852-0.1694336-0.5327148-0.1293945-0.7011719,0.0888672    c-0.1694336,0.2182617-0.1293945,0.5322266,0.0888672,0.7011719l5.5791016,4.3232422    c0.0908203,0.0708008,0.1987305,0.1049805,0.3056641,0.1049805c0.1494141,0,0.2973633-0.0664062,0.3955078-0.1938477    c0.1694336-0.2182617,0.1293945-0.5322266-0.0888672-0.7011719L10.1274414,11.9277344z" fill="#383838"/></g></g></svg>