<?xml version="1.0" ?><svg enable-background="new 0 0 64 64" height="64px" version="1.1" viewBox="0 0 64 64" width="64px" xml:space="preserve" xmlns="http://www.w3.org/2000/svg" xmlns:xlink="http://www.w3.org/1999/xlink"><g id="Guide"/><g id="Layer_1"><g><path d="M50.5761719,33.7446289l-5.0644531-12.9174805    c-0.1005859-0.2573242-0.3886719-0.3837891-0.6484375-0.2827148l-7.6806641,3.0107422    c-0.2568359,0.1005859-0.3837891,0.390625-0.2832031,0.6479492l0.5181885,1.3219604L18.588623,35.0304565l-0.1774902-0.4528198    c-0.1005859-0.2573242-0.3876953-0.3833008-0.6484375-0.2827148l-4.0556641,1.5898438    c-0.1230469,0.0483398-0.2226562,0.1435547-0.2753906,0.2651367c-0.0537109,0.121582-0.0556641,0.2592773-0.0078125,0.3828125    l2.9394531,7.4980469c0.0771484,0.1972656,0.2666016,0.3173828,0.4658203,0.3173828    c0.0605469,0,0.1230469-0.0112305,0.1826172-0.034668l4.0556641-1.5898438    c0.1230469-0.0483398,0.2226562-0.1435547,0.2753906-0.2651367c0.0537109-0.121582,0.0556641-0.2592773,0.0078125-0.3828125    l-0.1774292-0.4526367l7.9593506-2.2866821l-7.1920776,16.4390259c-0.1103516,0.2529297,0.0048828,0.5473633,0.2578125,0.6582031    c0.2539062,0.1118164,0.5478516-0.003418,0.6582031-0.2578125L30,39.8481445l7.1435547,16.3276367    c0.0820312,0.1879883,0.265625,0.2998047,0.4580078,0.2998047c0.0673828,0,0.1347656-0.0131836,0.2001953-0.0419922    c0.2529297-0.1108398,0.3681641-0.4052734,0.2578125-0.6582031l-7.3858032-16.8817749l10.7709961-3.0944214l0.5181274,1.3218994    c0.0488281,0.1235352,0.1445312,0.2226562,0.265625,0.2753906c0.0634766,0.027832,0.1318359,0.0419922,0.2001953,0.0419922    c0.0615234,0,0.1240234-0.0117188,0.1826172-0.034668l7.6816406-3.0112305    c0.1230469-0.0483398,0.2226562-0.1435547,0.2753906-0.2651367    C50.6220703,34.0058594,50.6240234,33.8681641,50.5761719,33.7446289z M17.1123047,43.2001953l-2.5742188-6.5668945    l3.1240234-1.2250977l0.1950073,0.4975586c0.0001831,0.0004883,0.0001221,0.0009766,0.0003052,0.0014648l2.1835938,5.5698242    c0.000061,0.000061,0.0001221,0.0001221,0.0001831,0.0001831l0.1951294,0.4978638L17.1123047,43.2001953z M20.8066406,40.6879883    l-0.3966064-1.0115356l-1.4547119-3.7107544l18.8288574-9.505249l0.128479,0.3276978l3.1655273,8.0758667L20.8066406,40.6879883z     M42.7119141,36.2905273l-0.5003662-1.2766113c-0.0004272-0.0011597-0.0001831-0.0025024-0.0006104-0.0036621    l-1.8481445-4.7131348l-2.3491211-5.9934082l6.7490234-2.6459961l4.6992188,11.9863281L42.7119141,36.2905273z" fill="#383838"/><path d="M24.6875,24.6083984c5.8242188,0,10.5625-4.7382812,10.5625-10.5625    c0-2.2905273-0.7314453-4.4765625-2.1142578-6.3212891c-0.1416016-0.1884766-0.3916016-0.2514648-0.6054688-0.15625    c-0.2128906,0.0957031-0.3310547,0.3261719-0.2851562,0.5556641c0.1523438,0.7495117,0.2294922,1.5180664,0.2294922,2.2836914    c0,6.2998047-5.1259766,11.425293-11.4257812,11.425293c-0.7646484,0-1.5332031-0.0771484-2.2832031-0.2294922    c-0.2275391-0.0449219-0.4599609,0.0712891-0.5556641,0.2856445c-0.0957031,0.2133789-0.03125,0.4643555,0.15625,0.6044922    C20.2109375,23.8769531,22.3974609,24.6083984,24.6875,24.6083984z M33.4746094,10.4077148    c0-0.0419922,0-0.0839844-0.0009766-0.1264648C33.9853516,11.4628906,34.25,12.7353516,34.25,14.0458984    c0,5.2729492-4.2900391,9.5625-9.5625,9.5625c-1.3105469,0-2.5830078-0.2646484-3.7646484-0.7758789    C27.8613281,22.925293,33.4746094,17.3012695,33.4746094,10.4077148z" fill="#383838"/></g></g></svg>