<?xml version="1.0" ?><svg enable-background="new 0 0 64 64" height="64px" version="1.1" viewBox="0 0 64 64" width="64px" xml:space="preserve" xmlns="http://www.w3.org/2000/svg" xmlns:xlink="http://www.w3.org/1999/xlink"><g id="Guide"/><g id="Layer_1"><g><path d="M26.8730469,18.2744141c-2.887207,0-5.2363281,2.3491211-5.2363281,5.2363281    c0,2.8876953,2.3491211,5.2368164,5.2363281,5.2368164c2.8876953,0,5.2368164-2.3491211,5.2368164-5.2368164    C32.1098633,20.6235352,29.7607422,18.2744141,26.8730469,18.2744141z M26.8730469,27.7475586    c-2.3359375,0-4.2363281-1.9003906-4.2363281-4.2368164c0-2.3359375,1.9003906-4.2363281,4.2363281-4.2363281    c2.3364258,0,4.2368164,1.9003906,4.2368164,4.2363281C31.1098633,25.847168,29.2094727,27.7475586,26.8730469,27.7475586z" fill="#383838"/><path d="M57,16.3178711h-3c-1.4731445,0-2.8583984-0.5737305-3.8999023-1.6152344l-0.1147461-0.1147461    c-1.2304688-1.2304688-2.8666992-1.9082031-4.6069336-1.9082031H29.5244141c-1.2504883,0-2.2675781,1.0170898-2.2675781,2.2675781    v0.5849609H13.3466797c-0.2763672,0-0.5,0.2236328-0.5,0.5v14.9594727c0,0.2763672,0.2236328,0.5,0.5,0.5h26.6347656    c0.2763672,0,0.5-0.2236328,0.5-0.5v-3.2397461H57c0.2763672,0,0.5-0.2236328,0.5-0.5v-10.434082    C57.5,16.5415039,57.2763672,16.3178711,57,16.3178711z M39.4814453,30.4916992H13.8466797V16.5322266h25.6347656v1.2299805    h-3.1137695c-0.7641602,0-1.4824219,0.2978516-2.0229492,0.8383789s-0.8383789,1.2587891-0.8383789,2.0229492    c0,1.5839844,1.2836914,2.8725586,2.8613281,2.8725586h3.1137695V30.4916992z M56.5,26.7519531H40.4814453v-3.2558594h3.9589844    c0.2763672,0,0.5-0.2236328,0.5-0.5s-0.2236328-0.5-0.5-0.5h-4.4589844h-3.6137695    c-1.0263672,0-1.8613281-0.8398438-1.8613281-1.8725586c0-0.496582,0.1938477-0.9643555,0.5454102-1.315918    s0.8193359-0.5454102,1.315918-0.5454102h3.6137695h4.4589844c0.2763672,0,0.5-0.2236328,0.5-0.5s-0.2236328-0.5-0.5-0.5    h-3.9589844v-1.7299805c0-0.2763672-0.2236328-0.5-0.5-0.5H28.2568359v-0.5849609    c0-0.6987305,0.5688477-1.2675781,1.2675781-1.2675781H45.378418c1.4731445,0,2.8583984,0.5737305,3.8999023,1.6152344    l0.1147461,0.1147461C50.6235352,16.6401367,52.2597656,17.3178711,54,17.3178711h2.5V26.7519531z" fill="#383838"/><path d="M43.2412109,32.8808594l-8.534668,6.8178711h-4.1625977    c-0.2363281-1.3461914-1.4101562-2.3725586-2.8178711-2.3725586H15.3291016c-0.1704102,0-0.3291016,0.0869141-0.4208984,0.2299805    L6.5791016,50.550293c-0.0986328,0.1542969-0.1054688,0.3496094-0.0175781,0.5097656    C6.6489258,51.2207031,6.8173828,51.3203125,7,51.3203125h11.5439453c0.1630859,0,0.3164062-0.0795898,0.409668-0.2133789    l2.21875-3.1728516h11.4760742c0.9370117,0,1.8500977-0.3305664,2.5698242-0.9301758l11.6386719-9.6894531    c0.6201172-0.5161133,0.9946289-1.2744141,1.027832-2.0805664s-0.277832-1.5927734-0.8530273-2.1586914    C46.0009766,32.0634766,44.3710938,31.9785156,43.2412109,32.8808594z M46.2172852,36.5458984l-11.6386719,9.6894531    c-0.5410156,0.4506836-1.2265625,0.6987305-1.9301758,0.6987305H20.9121094c-0.1630859,0-0.3164062,0.0795898-0.409668,0.2133789    l-2.21875,3.1728516H7.9145508l7.6879883-11.9941406h12.1235352c1.0263672,0,1.8613281,0.8398438,1.8613281,1.8725586    c0,0.496582-0.1938477,0.9638672-0.5454102,1.315918c-0.3515625,0.3515625-0.8193359,0.5454102-1.315918,0.5454102h-8.0727539    c-0.2763672,0-0.5,0.2236328-0.5,0.5s0.2236328,0.5,0.5,0.5h8.0727539c0.7641602,0,1.4824219-0.2978516,2.0229492-0.8383789    c0.4202881-0.4210205,0.6885376-0.9501343,0.7894287-1.5229492h4.3433838c0.1132812,0,0.2236328-0.0385742,0.3120117-0.109375    l8.6713867-6.9272461c0.734375-0.5874023,1.7954102-0.5322266,2.465332,0.1264648    c0.3798828,0.3735352,0.5771484,0.8720703,0.5551758,1.4042969    C46.8637695,35.7246094,46.6264648,36.2055664,46.2172852,36.5458984z" fill="#383838"/></g></g></svg>