<?xml version="1.0" ?><svg enable-background="new 0 0 64 64" height="64px" version="1.1" viewBox="0 0 64 64" width="64px" xml:space="preserve" xmlns="http://www.w3.org/2000/svg" xmlns:xlink="http://www.w3.org/1999/xlink"><g id="Guide"/><g id="Layer_1"><g><path d="M51.7949219,21.8641968v-6.0302124c0-0.1396484-0.0585938-0.2729492-0.1611328-0.3671875    c-0.1025391-0.0952148-0.2402344-0.1391602-0.3789062-0.1313477l-3.2841797,0.2624512V9.6918945    c0-0.1547852-0.0712891-0.3007812-0.1943359-0.3955078c-0.1240234-0.0947266-0.2802734-0.1289062-0.4316406-0.0883789    l-8.1953125,2.1353149V6.5629883c0-0.1704102-0.0869141-0.3295898-0.2304688-0.4213867    c-0.1445312-0.0917969-0.3261719-0.1049805-0.4794922-0.0322266L11.5683594,18.5380859    c-0.00177,0.0007935-0.0028076,0.0024414-0.0045776,0.0032959c-0.0158081,0.0075684-0.0278931,0.0195923-0.0427246,0.0286865    c-0.0252075,0.0153809-0.0477295,0.0320435-0.069519,0.0513916c-0.0119019,0.010498-0.0270386,0.0174561-0.0377808,0.0289307    c-0.0106201,0.0113525-0.0162354,0.0261841-0.0257568,0.0384521c-0.0178223,0.0229492-0.0327759,0.0462646-0.0463257,0.0719604    c-0.0076904,0.0145874-0.0192261,0.0266724-0.0254517,0.0419312c-0.0057373,0.0139771-0.0058594,0.0299072-0.0103149,0.0444336    c-0.0085449,0.02771-0.0140991,0.0550537-0.0177002,0.0842285c-0.0021973,0.0177002-0.0080566,0.0341187-0.0083008,0.052063    c-0.000061,0.0028687-0.0015869,0.0053711-0.0015869,0.0082397v3.1582031c0,0.041626,0.0140381,0.0786133,0.0236206,0.1172485    C10.078186,23.0059814,9.25,24.3356934,9.25,25.8662109v27.8540039c0,2.3251953,1.8916016,4.2167969,4.2167969,4.2167969    h37.0664062c2.3251953,0,4.2167969-1.8916016,4.2167969-4.2167969V43.965332v-8.34375v-9.7553711    C54.75,23.9837646,53.5014038,22.4042358,51.7949219,21.8641968z M46.9707031,15.6777954l-29.5541382,2.3616333    l21.3588257-5.5648193c0.0009155-0.0002441,0.0015869-0.0008545,0.0025024-0.0010986l8.1928101-2.1346436V15.6777954z     M38.1494141,11.6038818l-21.0848389,5.4937744l21.0848389-9.7524414V11.6038818z M12.2783203,21.6499023v-2.1964111    l35.2324219-2.8153076c0.0004883-0.000061,0.0009155-0.0003052,0.0014038-0.0003662l3.2827759-0.2623291v5.2744141h-0.2617188    H13.4667969H12.2783203z M50.5332031,56.9370117H13.4667969c-1.7734375,0-3.2167969-1.4428711-3.2167969-3.2167969V25.8662109    c0-1.7734375,1.4433594-3.2163086,3.2167969-3.2163086h37.0664062c1.7734375,0,3.2167969,1.4428711,3.2167969,3.2163086v9.2553711    H36.171875c-2.5761719,0-4.671875,2.0957031-4.671875,4.671875s2.0957031,4.671875,4.671875,4.671875H53.75v9.2548828    C53.75,55.4941406,52.3066406,56.9370117,50.5332031,56.9370117z M53.75,43.465332H36.171875    c-2.0244141,0-3.671875-1.6469727-3.671875-3.671875s1.6474609-3.671875,3.671875-3.671875H53.75V43.465332z" fill="#383838"/><path d="M34.0205078,39.793457c0,1.4135742,1.1503906,2.5639648,2.5644531,2.5639648    s2.5644531-1.1503906,2.5644531-2.5639648c0-1.4140625-1.1503906-2.5644531-2.5644531-2.5644531    S34.0205078,38.3793945,34.0205078,39.793457z M36.5849609,38.2290039c0.8623047,0,1.5644531,0.7016602,1.5644531,1.5644531    c0,0.8623047-0.7021484,1.5639648-1.5644531,1.5639648s-1.5644531-0.7016602-1.5644531-1.5639648    C35.0205078,38.9306641,35.7226562,38.2290039,36.5849609,38.2290039z" fill="#383838"/></g></g></svg>