<?xml version="1.0" ?><svg enable-background="new 0 0 64 64" height="64px" version="1.1" viewBox="0 0 64 64" width="64px" xml:space="preserve" xmlns="http://www.w3.org/2000/svg" xmlns:xlink="http://www.w3.org/1999/xlink"><g id="Guide"/><g id="Layer_1"><g><path d="M57,20.25H25.6331787c-0.0111084-0.0026245-0.0202026-0.0093384-0.0316162-0.0112305l-5.5200195-0.9125977    c-0.1445312-0.0219727-0.2929688,0.0166016-0.4047852,0.1118164C19.5644531,19.5332031,19.5,19.6723633,19.5,19.8193359v4.375    c0,0.1469727,0.0644531,0.2861328,0.1767578,0.3813477C19.7675781,24.652832,19.8823242,24.6943359,20,24.6943359    c0.0273438,0,0.0541992-0.0024414,0.081543-0.0068359l4.9384766-0.8164673V26h-7.5444336c-0.2763672,0-0.5,0.2236328-0.5,0.5V34    H13.625c-0.2763672,0-0.5,0.2236328-0.5,0.5v3.1207275L5.6879883,51.0073242    c-0.0859375,0.1547852-0.0839844,0.34375,0.0058594,0.4960938C5.7836914,51.65625,5.9477539,51.75,6.125,51.75h7.4951172H13.625    h3.4691162c0.9866333,0.9846191,2.2789917,1.5400391,3.6861572,1.5400391c1.3731079,0,2.7016602-0.5605469,3.6920166-1.5400391    h20.1853638c0.9877319,0.9780884,2.3250732,1.5400391,3.7124634,1.5400391c1.3856812,0,2.7168579-0.5629272,3.6936035-1.5400391    H57c0.2763672,0,0.5-0.2236328,0.5-0.5v-13.5v-17C57.5,20.4736328,57.2763672,20.25,57,20.25z M56.5,37.25H46.4584961V22.875    c0-0.2763672-0.2236328-0.5-0.5-0.5h-7.5c-0.2763672,0-0.5,0.2236328-0.5,0.5V37.25H26.0200195V26.5v-3.2182617V21.25H56.5V37.25z     M45.4584961,37.25h-6.5V23.375h6.5V37.25z M20.5,23.6049805v-3.1962891l4.5200195,0.7475586v1.7011719L20.5,23.6049805z     M17.9755859,27h7.0444336v10.25h-7.0444336V34.5V27z M14.125,35h2.8505859v2.25H14.125V35z M13.1201172,39.6884766V50.75    H6.9746094L13.1201172,39.6884766z M17.6464844,50.909668c-0.7197266-0.7749023-1.1162109-1.7973633-1.1162109-2.8793945    c0-2.3432617,1.9067383-4.25,4.25-4.25c1.6508789,0,3.1079102,0.9326172,3.8095703,2.3798828h-3.5097656    c-0.2763672,0-0.5,0.2236328-0.5,0.5v2.75c0,0.2763672,0.2236328,0.5,0.5,0.5h3.5043945    c-0.178894,0.3601685-0.4099121,0.6994019-0.6842041,1.0026855c-0.8118286,0.8751221-1.9484863,1.3771973-3.1199951,1.3771973    C19.5742188,52.2900391,18.4619141,51.8007812,17.6464844,50.909668z M43.8100586,47.1601562h4.0498047v1.75h-4.0498047    H25.3198242h-3.7397461v-1.75h3.7397461H43.8100586z M25.2626953,50.75    c0.0117188-0.0193481,0.0198975-0.0402832,0.0313721-0.0597534c0.0705566-0.1199341,0.1322632-0.2435303,0.1930542-0.3679199    c0.0305176-0.0625,0.0652466-0.1230469,0.0932617-0.1865234c0.0327759-0.0742188,0.0583496-0.1503296,0.0875244-0.225647    h17.7937012c0.0299072,0.0777588,0.0560303,0.1567383,0.0895386,0.2329102    c0.0269165,0.0612183,0.0601807,0.1189575,0.0894165,0.1790771c0.0618286,0.1274414,0.1244507,0.2541504,0.196106,0.3759766    c0.0098877,0.0167847,0.0170288,0.0352173,0.0270996,0.0518799H25.2626953z M45.2270508,50.9106445    c-0.2724609-0.2954102-0.503418-0.6342773-0.6835938-1.0004883h3.8164062c0.2763672,0,0.5-0.2236328,0.5-0.5v-2.75    c0-0.2763672-0.2236328-0.5-0.5-0.5h-3.8198242c0.7036133-1.4472656,2.168457-2.3798828,3.8300781-2.3798828    c2.3378906,0,4.2397461,1.9067383,4.2397461,4.25c0,1.0820312-0.3964844,2.1044922-1.1186523,2.8823242    c-0.8129883,0.8881836-1.9213867,1.3774414-3.1210938,1.3774414    C47.184082,52.2900391,46.0385742,51.7871094,45.2270508,50.9106445z M56.5,50.75h-3.6401367    c0.1410522-0.2335815,0.2573242-0.4802246,0.3597412-0.7330322c0.0285034-0.0703125,0.0499268-0.1427002,0.0753174-0.2142944    c0.0745239-0.2098999,0.1355591-0.4239502,0.1830444-0.6431885c0.0178833-0.0823364,0.0366821-0.1634521,0.0505981-0.2469482    c0.0483398-0.2895508,0.0812988-0.5829468,0.0812988-0.8822632c0-2.8950195-2.3505859-5.25-5.2397461-5.25    c-2.2114258,0-4.1257324,1.3485107-4.8998413,3.3798828H25.65979c-0.7733765-2.0313721-2.6796265-3.3798828-4.8795166-3.3798828    c-2.8950195,0-5.25,2.3549805-5.25,5.25c0,0.2991333,0.0328979,0.5924072,0.0811768,0.8817749    c0.0139771,0.0839844,0.032959,0.1655884,0.0509033,0.2484741c0.0472412,0.2179565,0.1079712,0.4307861,0.1819458,0.6394653    c0.0257568,0.072876,0.0476685,0.1464233,0.0765991,0.2179565c0.1022949,0.2524414,0.2185059,0.4987793,0.359375,0.7320557H14.125    v-12.5h3.3505859h8.0444336h12.9384766h7.5H56.5V50.75z" fill="#383838"/><path d="M27.75,31.4375h8.0625c0.2763672,0,0.5-0.2236328,0.5-0.5V22.875c0-0.2763672-0.2236328-0.5-0.5-0.5H27.75    c-0.2763672,0-0.5,0.2236328-0.5,0.5v8.0625C27.25,31.2138672,27.4736328,31.4375,27.75,31.4375z M28.25,23.375h7.0625v7.0625    H28.25V23.375z" fill="#383838"/></g></g></svg>