<?xml version="1.0" ?><svg baseProfile="tiny" id="Layer_1" overflow="scroll" version="1.1" viewBox="0 0 24 24" xml:space="preserve" xmlns="http://www.w3.org/2000/svg" xmlns:xlink="http://www.w3.org/1999/xlink"><path d="M22.75,0.5166016H1.25c-0.4140625,0-0.75,0.3359375-0.75,0.75v21.4667969  c0,0.4140625,0.3359375,0.75,0.75,0.75h21.5c0.4140625,0,0.75-0.3359375,0.75-0.75V1.2666016  C23.5,0.8525391,23.1640625,0.5166016,22.75,0.5166016z M22,2.0166016V11.75h-5.4118652  c-0.3560181-2.2616577-2.2694092-4-4.5881348-4s-4.2321167,1.7383423-4.5881348,4H2V2.0166016H22z M15.1625977,12.5  c0,1.7919922-1.4189453,3.25-3.1625977,3.25s-3.1625977-1.4580078-3.1625977-3.25S10.2563477,9.25,12,9.25  S15.1625977,10.7080078,15.1625977,12.5z M2,21.9833984V13.25h5.4118652c0.3560181,2.2616577,2.2694092,4,4.5881348,4  s4.2321167-1.7383423,4.5881348-4H22v8.7333984H2z" fill="#1D1D1D"/><path d="M16.7446289,8.0009766h3.0361328c0.4140625,0,0.75-0.3359375,0.75-0.75V4.21875  c0-0.4140625-0.3359375-0.75-0.75-0.75h-3.0361328c-0.4140625,0-0.75,0.3359375-0.75,0.75v3.0322266  C15.9946289,7.6650391,16.3305664,8.0009766,16.7446289,8.0009766z M17.4946289,4.96875h1.5361328v1.5322266h-1.5361328V4.96875z" fill="#1D1D1D"/></svg>