<?xml version="1.0" ?><!DOCTYPE svg  PUBLIC '-//W3C//DTD SVG 1.1//EN'  'http://www.w3.org/Graphics/SVG/1.1/DTD/svg11.dtd'><svg enable-background="new 0 0 26 26" id="Слой_1" version="1.1" viewBox="0 0 26 26" xml:space="preserve" xmlns="http://www.w3.org/2000/svg" xmlns:xlink="http://www.w3.org/1999/xlink"><g><path d="M24.25,1H1.75C1.3359375,1,1,1.3359375,1,1.75S1.3359375,2.5,1.75,2.5h22.5   C24.6640625,2.5,25,2.1640625,25,1.75S24.6640625,1,24.25,1z" fill="#1D1D1B"/><path d="M20.3525391,11.9267578c-1.9380493,1.9380493-5.8065796,3.0356445-11.5148926,3.2733154   C9.0159302,14.8358765,9.125,14.4321289,9.125,14c0-1.5166016-1.2333984-2.75-2.75-2.75s-2.75,1.2333984-2.75,2.75   s1.2333984,2.75,2.75,2.75c7.5878906,0,12.5068359-1.230957,15.0380859-3.7626953   c0.2929688-0.2929688,0.2929688-0.7680664,0-1.0605469C21.1201172,11.6337891,20.6455078,11.6337891,20.3525391,11.9267578z    M5.125,14c0-0.6894531,0.5605469-1.25,1.25-1.25s1.25,0.5605469,1.25,1.25s-0.5605469,1.25-1.25,1.25S5.125,14.6894531,5.125,14z" fill="#1D1D1B"/></g></svg>