<?xml version="1.0" ?><!DOCTYPE svg  PUBLIC '-//W3C//DTD SVG 1.1//EN'  'http://www.w3.org/Graphics/SVG/1.1/DTD/svg11.dtd'><svg enable-background="new 0 0 26 26" id="Слой_1" version="1.1" viewBox="0 0 26 26" xml:space="preserve" xmlns="http://www.w3.org/2000/svg" xmlns:xlink="http://www.w3.org/1999/xlink"><g><path d="M1.75,2.5h22.5C24.6640625,2.5,25,2.1640625,25,1.75S24.6640625,1,24.25,1H1.75   C1.3359375,1,1,1.3359375,1,1.75S1.3359375,2.5,1.75,2.5z" fill="#1D1D1B"/><path d="M1.75,10h19.3751831l-0.600769,0.3037109c-0.2460938,0.1245117-0.3457031,0.425293-0.2207031,0.671875   C20.3916016,11.1499023,20.5673828,11.25,20.75,11.25c0.0761719,0,0.1533203-0.0170898,0.2255859-0.0537109l3.8828125-1.9628906   l-3.8173828-1.9296875c-0.2470703-0.1254883-0.5478516-0.0268555-0.671875,0.2207031   c-0.125,0.246582-0.0253906,0.5473633,0.2207031,0.671875L21.1906738,8.5H1.75C1.3359375,8.5,1,8.8359375,1,9.25   S1.3359375,10,1.75,10z" fill="#1D1D1B"/><path d="M24.25,16H4.8748169l0.600769-0.3037109c0.2460938-0.1245117,0.3457031-0.425293,0.2207031-0.671875   c-0.125-0.2470703-0.4277344-0.3461914-0.671875-0.2207031l-3.8828125,1.9628906l3.8173828,1.9296875   C5.03125,18.7329102,5.1083984,18.75,5.1845703,18.75c0.1826172,0,0.3583984-0.1000977,0.4462891-0.2744141   c0.125-0.246582,0.0253906-0.5473633-0.2207031-0.671875L4.8093262,17.5H24.25c0.4140625,0,0.75-0.3359375,0.75-0.75   S24.6640625,16,24.25,16z" fill="#1D1D1B"/></g></svg>