<?xml version="1.0" ?><!DOCTYPE svg  PUBLIC '-//W3C//DTD SVG 1.1//EN'  'http://www.w3.org/Graphics/SVG/1.1/DTD/svg11.dtd'><svg enable-background="new 0 0 26 26" id="Слой_1" version="1.1" viewBox="0 0 26 26" xml:space="preserve" xmlns="http://www.w3.org/2000/svg" xmlns:xlink="http://www.w3.org/1999/xlink"><g><path d="M24.25,1H1.75C1.3359375,1,1,1.3359375,1,1.75S1.3359375,2.5,1.75,2.5h22.5   C24.6640625,2.5,25,2.1640625,25,1.75S24.6640625,1,24.25,1z" fill="#1D1D1B"/><path d="M19.625,11.25c-1.2548828,0-2.3040771,0.8493652-2.6329346,2H9.0079346   c-0.3288574-1.1506348-1.3780518-2-2.6329346-2c-1.5166016,0-2.75,1.2333984-2.75,2.75s1.2333984,2.75,2.75,2.75   c1.2548828,0,2.3040771-0.8493652,2.6329346-2h7.9841309c0.3288574,1.1506348,1.3780518,2,2.6329346,2   c1.5166016,0,2.75-1.2333984,2.75-2.75S21.1416016,11.25,19.625,11.25z M6.375,15.25c-0.6894531,0-1.25-0.5605469-1.25-1.25   s0.5605469-1.25,1.25-1.25s1.25,0.5605469,1.25,1.25S7.0644531,15.25,6.375,15.25z M19.625,15.25   c-0.6894531,0-1.25-0.5605469-1.25-1.25s0.5605469-1.25,1.25-1.25s1.25,0.5605469,1.25,1.25S20.3144531,15.25,19.625,15.25z" fill="#1D1D1B"/></g></svg>