<?xml version="1.0" ?><!DOCTYPE svg  PUBLIC '-//W3C//DTD SVG 1.1//EN'  'http://www.w3.org/Graphics/SVG/1.1/DTD/svg11.dtd'><svg enable-background="new 0 0 26 26" id="Слой_1" version="1.1" viewBox="0 0 26 26" xml:space="preserve" xmlns="http://www.w3.org/2000/svg" xmlns:xlink="http://www.w3.org/1999/xlink"><path d="M24.25,1H1.75C1.3359375,1,1,1.3359375,1,1.75S1.3359375,2.5,1.75,2.5h4.875v4.875  c0,0.4140625,0.3359375,0.75,0.75,0.75h4.411377L3.8916016,23.9145508C3.8879395,23.921936,3.888855,23.9299927,3.885437,23.937439  c-0.0206299,0.0444946-0.0269775,0.0939941-0.0386353,0.1427002c-0.0116577,0.0494385-0.0281982,0.097229-0.0296631,0.1470337  C3.8168945,24.2352295,3.8125,24.2418823,3.8125,24.25c0,0.0374756,0.0160522,0.0695801,0.0213623,0.1055908  c0.0078735,0.053833,0.0126343,0.1068115,0.0317993,0.1575928c0.0170898,0.0452271,0.0444336,0.0825806,0.069519,0.1231689  c0.0253906,0.0415039,0.0471191,0.083313,0.0805664,0.1195068c0.0362549,0.0392456,0.0808105,0.0666504,0.1246948,0.0974121  c0.0303345,0.0213623,0.0524292,0.0505371,0.0866089,0.067627c0.0067749,0.0033569,0.0142822,0.0018311,0.0211182,0.0050049  c0.0952759,0.0444946,0.1990356,0.072876,0.3109741,0.0734253C4.5601196,24.9993286,4.5610352,25,4.5620117,25  c0.0001221,0,0.0001831-0.000061,0.0003052-0.000061C4.5623779,24.999939,4.562439,25,4.5625,25h16.875  c0.000061,0,0.0001221-0.000061,0.0001831-0.000061C21.4378052,24.999939,21.4378662,25,21.4379883,25  c0.0009766,0,0.0018921-0.0006714,0.0028687-0.0006714c0.1119385-0.0005493,0.2156982-0.0289307,0.3109741-0.0734253  c0.0068359-0.0031738,0.0143433-0.0016479,0.0211182-0.0050049c0.0341797-0.0170898,0.0562744-0.0462646,0.0866089-0.067627  c0.0438843-0.0307617,0.0884399-0.0581665,0.1246948-0.0974121c0.0334473-0.0361938,0.0551758-0.0780029,0.0805664-0.1195068  c0.0250854-0.0405884,0.0524292-0.0779419,0.069519-0.1231689c0.019165-0.0507813,0.0239258-0.1037598,0.0317993-0.1575928  C22.1714478,24.3195801,22.1875,24.2874756,22.1875,24.25c0-0.0081177-0.0043945-0.0147705-0.0046387-0.0228271  c-0.0014648-0.0498047-0.0180054-0.0975952-0.0296631-0.1470337c-0.0116577-0.0487061-0.0180054-0.0982056-0.0386353-0.1427002  c-0.003418-0.0074463-0.0025024-0.0155029-0.0061646-0.0228882L14.213623,8.125H18.625c0.4140625,0,0.75-0.3359375,0.75-0.75V2.5  h4.875C24.6640625,2.5,25,2.1640625,25,1.75S24.6640625,1,24.25,1z M12.25,2.5v4.125H8.125V2.5H12.25z M13,9.0522461L20.223877,23.5  H5.776123L13,9.0522461z M17.875,6.625H13.75V2.5h4.125V6.625z" fill="#1D1D1B"/></svg>