<?xml version="1.0" ?><!DOCTYPE svg  PUBLIC '-//W3C//DTD SVG 1.1//EN'  'http://www.w3.org/Graphics/SVG/1.1/DTD/svg11.dtd'><svg enable-background="new 0 0 26 26" id="Слой_1" version="1.1" viewBox="0 0 26 26" xml:space="preserve" xmlns="http://www.w3.org/2000/svg" xmlns:xlink="http://www.w3.org/1999/xlink"><g><path d="M24.25,1H1.75C1.3359375,1,1,1.3359375,1,1.75S1.3359375,2.5,1.75,2.5h22.5   C24.6640625,2.5,25,2.1640625,25,1.75S24.6640625,1,24.25,1z" fill="#1D1D1B"/><path d="M19.625,11.25c-1.2548828,0-2.3040771,0.8493652-2.6329346,2h-1.3591309   c-0.2602539-0.9106445-0.97229-1.6226807-1.8829346-1.8829346v-1.3591309c1.1506348-0.3288574,2-1.3780518,2-2.6329346   c0-1.5166016-1.2333984-2.75-2.75-2.75s-2.75,1.2333984-2.75,2.75c0,1.2548828,0.8493652,2.3040771,2,2.6329346v1.3591309   c-0.9106445,0.2602539-1.6226807,0.97229-1.8829346,1.8829346H9.0079346c-0.3288574-1.1506348-1.3780518-2-2.6329346-2   c-1.5166016,0-2.75,1.2333984-2.75,2.75s1.2333984,2.75,2.75,2.75c1.2548828,0,2.3040771-0.8493652,2.6329346-2h1.3591309   c0.2602539,0.9106445,0.97229,1.6226807,1.8829346,1.8829346v1.3591309c-1.1506348,0.3288574-2,1.3780518-2,2.6329346   c0,1.5166016,1.2333984,2.75,2.75,2.75s2.75-1.2333984,2.75-2.75c0-1.2548828-0.8493652-2.3040771-2-2.6329346v-1.3591309   c0.9106445-0.2602539,1.6226807-0.97229,1.8829346-1.8829346h1.3591309c0.3288574,1.1506348,1.3780518,2,2.6329346,2   c1.5166016,0,2.75-1.2333984,2.75-2.75S21.1416016,11.25,19.625,11.25z M11.75,7.375c0-0.6894531,0.5605469-1.25,1.25-1.25   s1.25,0.5605469,1.25,1.25s-0.5605469,1.25-1.25,1.25S11.75,8.0644531,11.75,7.375z M6.375,15.25   c-0.6894531,0-1.25-0.5605469-1.25-1.25s0.5605469-1.25,1.25-1.25s1.25,0.5605469,1.25,1.25S7.0644531,15.25,6.375,15.25z    M14.25,20.625c0,0.6894531-0.5605469,1.25-1.25,1.25s-1.25-0.5605469-1.25-1.25s0.5605469-1.25,1.25-1.25   S14.25,19.9355469,14.25,20.625z M13,15.25c-0.6894531,0-1.25-0.5605469-1.25-1.25s0.5605469-1.25,1.25-1.25   s1.25,0.5605469,1.25,1.25S13.6894531,15.25,13,15.25z M19.625,15.25c-0.6894531,0-1.25-0.5605469-1.25-1.25   s0.5605469-1.25,1.25-1.25s1.25,0.5605469,1.25,1.25S20.3144531,15.25,19.625,15.25z" fill="#1D1D1B"/></g></svg>