<?xml version="1.0" ?><!DOCTYPE svg  PUBLIC '-//W3C//DTD SVG 1.1//EN'  'http://www.w3.org/Graphics/SVG/1.1/DTD/svg11.dtd'><svg enable-background="new 0 0 26 26" id="Слой_1" version="1.1" viewBox="0 0 26 26" xml:space="preserve" xmlns="http://www.w3.org/2000/svg" xmlns:xlink="http://www.w3.org/1999/xlink"><path d="M24.25,1H1.75C1.3359375,1,1,1.3359375,1,1.75S1.3359375,2.5,1.75,2.5h10.5v4.5644531l-5.4052734,5.4052734  c-0.2929688,0.2929688-0.2929688,0.7675781,0,1.0605469L12.25,18.9355469V24.25c0,0.4140625,0.3359375,0.75,0.75,0.75  s0.75-0.3359375,0.75-0.75v-5.3144531l5.4052734-5.4052734c0.2929688-0.2929688,0.2929688-0.7675781,0-1.0605469L13.75,7.0644531  V2.5h10.5C24.6640625,2.5,25,2.1640625,25,1.75S24.6640625,1,24.25,1z M13.75,9.1855469L17.5644531,13L13.75,16.8144531V9.1855469z   M12.25,16.8144531L8.4355469,13L12.25,9.1855469V16.8144531z" fill="#1D1D1B"/></svg>