<?xml version="1.0" ?><!DOCTYPE svg  PUBLIC '-//W3C//DTD SVG 1.1//EN'  'http://www.w3.org/Graphics/SVG/1.1/DTD/svg11.dtd'><svg enable-background="new 0 0 26 26" id="Слой_1" version="1.1" viewBox="0 0 26 26" xml:space="preserve" xmlns="http://www.w3.org/2000/svg" xmlns:xlink="http://www.w3.org/1999/xlink"><g><path d="M24.25,1H1.75C1.3359375,1,1,1.3359375,1,1.75S1.3359375,2.5,1.75,2.5h22.5   C24.6640625,2.5,25,2.1640625,25,1.75S24.6640625,1,24.25,1z" fill="#1D1D1B"/><path d="M19.2441406,3.2929688l-2.2548828,3.6342773c-0.1455078,0.2348633-0.0732422,0.5429688,0.1611328,0.6884766   c0.2333984,0.1445313,0.5429688,0.0737305,0.6884766-0.1611328l0.3551025-0.5724487L17.3966675,16H13.75V6.9998169   l0.3037109,0.600769C14.1416016,7.7749023,14.3173828,7.875,14.5,7.875c0.0761719,0,0.1533203-0.0170898,0.2255859-0.0537109   c0.2460938-0.1245117,0.3457031-0.425293,0.2207031-0.671875l-1.9628906-3.8828125l-1.9296875,3.8168945   c-0.125,0.246582-0.0253906,0.5473633,0.2207031,0.671875c0.2441406,0.1230469,0.546875,0.0258789,0.671875-0.2207031   L12.25,6.93396V16H8.6033325L7.8117676,6.9475098l0.3552246,0.5725098   c0.1464844,0.2358398,0.4570313,0.3056641,0.6884766,0.1611328c0.234375-0.1455078,0.3066406-0.4536133,0.1611328-0.6884766   L6.7226563,3.2958984L5.1337891,7.2670898C5.03125,7.5234375,5.1552734,7.8144531,5.4121094,7.9169922   c0.0605469,0.0244141,0.1240234,0.0356445,0.1855469,0.0356445c0.1982422,0,0.3857422-0.1186523,0.4638672-0.3144531   l0.2503662-0.6253052l0.8551025,9.7791138c0.0021362,0.0245361,0.0149536,0.0446167,0.0193481,0.0683594   C7.2417603,17.2197876,7.5391235,17.5,7.9140625,17.5H12.25v6.75c0,0.4140625,0.3359375,0.75,0.75,0.75s0.75-0.3359375,0.75-0.75   V17.5h4.3359375c0.374939,0,0.6723022-0.2802124,0.7277222-0.6396484c0.0043945-0.0237427,0.0172119-0.0438232,0.0193481-0.0683594   l0.8494873-9.7145386l0.2510986,0.6266479c0.078125,0.1953125,0.265625,0.3139648,0.4638672,0.3139648   c0.0625,0,0.125-0.0112305,0.1855469-0.0356445c0.2568359-0.1030273,0.3808594-0.394043,0.2783203-0.6503906L19.2441406,3.2929688z   " fill="#1D1D1B"/></g></svg>