<?xml version="1.0" ?><!DOCTYPE svg  PUBLIC '-//W3C//DTD SVG 1.1//EN'  'http://www.w3.org/Graphics/SVG/1.1/DTD/svg11.dtd'><svg enable-background="new 0 0 26 26" id="Слой_1" version="1.1" viewBox="0 0 26 26" xml:space="preserve" xmlns="http://www.w3.org/2000/svg" xmlns:xlink="http://www.w3.org/1999/xlink"><path d="M24.25,1H1.75C1.3359375,1,1,1.3359375,1,1.75S1.3359375,2.5,1.75,2.5h15.0644531l-9.9697266,9.9697266  c-0.0690918,0.0690918-0.1237793,0.1519775-0.1618042,0.2436523c-0.0759277,0.1833496-0.0759277,0.3898926,0,0.5732422  c0.0759888,0.1832275,0.2219849,0.3292847,0.4051514,0.4053955C7.1797485,13.7299805,7.2770386,13.75,7.375,13.75h9.4394531  l-9.9697266,9.9697266c-0.2929688,0.2929688-0.2929688,0.7675781,0,1.0605469C6.9912109,24.9267578,7.1826172,25,7.375,25  s0.3837891-0.0732422,0.5302734-0.2197266l11.25-11.25c0.0690918-0.0690918,0.1237793-0.1520386,0.1618042-0.2436523  c0.0759277-0.1833496,0.0759277-0.3898926,0-0.5732422c-0.0760498-0.1832886-0.222168-0.3294067-0.4054565-0.4054565  C18.8199463,12.2699585,18.7226563,12.25,18.625,12.25H9.1855469l9.75-9.75H24.25C24.6640625,2.5,25,2.1640625,25,1.75  S24.6640625,1,24.25,1z" fill="#1D1D1B"/></svg>